<svg xmlns="http://www.w3.org/2000/svg" width="20" height="20" viewBox="0 0 20 20" fill="none">
  <path d="M14.7708 2.0833C15.9288 2.2115 16.7082 2.5012 17.2899 3.1559 18.3333 4.3301 18.3333 6.2201 18.3333 10 18.3333 13.7799 18.3333 15.6698 17.2899 16.8442 16.7082 17.4988 15.9288 17.7885 14.7708 17.9167M5.2292 17.9167C4.0713 17.7885 3.2918 17.4988 2.7101 16.8442 1.6667 15.6698 1.6667 13.7799 1.6667 10 1.6667 6.2201 1.6667 4.3301 2.7101 3.1559 3.2918 2.5012 4.0713 2.2115 5.2292 2.0833" stroke="currentColor" stroke-linecap="round" stroke-linejoin="round" stroke-width="2"/>
  <path d="M6.3005 6.6752C7.5755 6.6252 8.3754 6.7002 8.8754 7.5752 9.4004 8.6253 10.7004 11.5503 11.0254 12.2252 11.3754 12.9503 11.8254 13.4503 13.6754 13.3253" stroke="currentColor" stroke-linecap="round" stroke-width="2"/>
  <path d="M14.1665 6.6667C12.3332 6.6548 10.8332 8.9167 9.9998 10 9.0832 11.25 7.5081 13.4167 5.8415 13.3333" stroke="currentColor" stroke-linecap="round" stroke-width="2"/>
</svg>
