<svg xmlns="http://www.w3.org/2000/svg" width="20" height="20" viewBox="0 0 20 20" fill="none">
  <path d="M10.8513 14.5833C10.8513 16.4243 9.3589 17.9167 7.518 17.9167 5.677 17.9167 4.1847 16.4243 4.1847 14.5833 4.1847 12.7424 5.677 11.25 7.518 11.25" stroke="currentColor" stroke-linecap="round" stroke-linejoin="round" stroke-width="2"/>
  <path d="M7.518 8.75L7.8907 8.0046C8.1148 7.5564 8.2269 7.3323 8.4283 7.2078 8.6296 7.0833 8.8802 7.0833 9.3813 7.0833H11.9046C13.1133 7.0833 13.7176 7.0833 13.9618 7.4786 14.2061 7.8738 13.9358 8.4143 13.3953 9.4953L12.1013 12.0833M12.1013 12.0833H13.768C14.8987 12.0833 15.464 12.0833 15.7113 12.4544 15.9588 12.8255 15.7413 13.3473 15.3064 14.391L14.1847 17.0833M12.1013 12.0833C11.0185 12.0833 10.4772 12.0833 10.2272 11.7478 10.2046 11.7174 10.184 11.6856 10.1658 11.6524 9.9638 11.286 10.1878 10.7932 10.6358 9.8074L11.6847 7.5" stroke="currentColor" stroke-linecap="round" stroke-linejoin="round" stroke-width="2"/>
  <path d="M14.1847 4.5833C14.875 4.5833 15.4347 4.0237 15.4347 3.3333 15.4347 2.643 14.875 2.0833 14.1847 2.0833 13.4943 2.0833 12.9347 2.643 12.9347 3.3333 12.9347 4.0237 13.4943 4.5833 14.1847 4.5833Z" stroke="currentColor" stroke-linecap="round" stroke-linejoin="round" stroke-width="2"/>
</svg>
