<svg xmlns="http://www.w3.org/2000/svg" width="20" height="20" viewBox="0 0 20 20" fill="none">
  <path d="M2.0817 15.3448V9.3257C2.0817 8.2186 2.0817 7.665 2.5806 7.5272 3.0795 7.3894 3.6667 7.7809 4.841 8.5638L15.486 15.6605C16.6603 16.4433 17.2475 16.8348 17.0408 17.1674 16.8342 17.5 16.0038 17.5 14.3431 17.5H5.3144C3.7905 17.5 3.0286 17.5 2.5551 17.1844 2.0817 16.8688 2.0817 16.3608 2.0817 15.3448Z" stroke="currentColor" stroke-linecap="round" stroke-linejoin="round" stroke-width="2"/>
  <path d="M7.0817 9.1667C8.9227 9.1667 10.415 7.6743 10.415 5.8333 10.415 3.9924 8.9227 2.5 7.0817 2.5 5.2408 2.5 3.7484 3.9924 3.7484 5.8333 3.7484 7.6743 5.2408 9.1667 7.0817 9.1667Z" stroke="currentColor" stroke-linecap="round" stroke-linejoin="round" stroke-width="2"/>
  <path d="M12.9183 8.33L17.8379 11.15M17.8379 11.15C18.1046 10.8672 17.654 10.05 17.2736 8.94M17.8379 11.15C17.654 11.35 17.0532 11.4 15.6366 11.665" stroke="currentColor" stroke-linecap="round" stroke-linejoin="round" stroke-width="2"/>
</svg>
