<svg xmlns="http://www.w3.org/2000/svg" width="20" height="20" viewBox="0 0 20 20" fill="none">
  <path d="M12.5 4.1667H16.25C17.0288 4.1667 17.4183 4.1667 17.7083 4.3341 17.8983 4.4438 18.0562 4.6016 18.1658 4.7917 18.3333 5.0817 18.3333 5.4712 18.3333 6.25 18.3333 7.0289 18.3333 7.4183 18.1658 7.7083 18.0562 7.8984 17.8983 8.0562 17.7083 8.1659 17.4183 8.3333 17.0288 8.3333 16.25 8.3333H12.5" stroke="currentColor" stroke-linecap="round" stroke-linejoin="round" stroke-width="2"/>
  <path d="M10.8333 11.6667H16.25C17.0288 11.6667 17.4183 11.6667 17.7083 11.8342 17.8983 11.9438 18.0562 12.1017 18.1658 12.2917 18.3333 12.5818 18.3333 12.9712 18.3333 13.75 18.3333 14.5288 18.3333 14.9183 18.1658 15.2083 18.0562 15.3983 17.8983 15.5562 17.7083 15.6658 17.4183 15.8333 17.0288 15.8333 16.25 15.8333H10.8333" stroke="currentColor" stroke-linecap="round" stroke-linejoin="round" stroke-width="2"/>
  <path d="M7.7497 11.9698L8.2698 11.6231 8.2698 11.6231 7.7497 11.9698ZM7.7724 12.0038L7.2523 12.3504 7.2523 12.3504 7.7724 12.0038ZM7.0118 17.5L6.5699 17.0581 7.0118 17.5ZM7.5433 16.9685L7.9853 17.4104H7.9853L7.5433 16.9685ZM7.663 13.7389L7.163 13.3639 7.163 13.3639 7.663 13.7389ZM7.7266 13.6543L8.2265 14.0293 8.2265 14.0293 7.7266 13.6543ZM7.663 15.2848L7.163 15.6597 7.163 15.6597 7.663 15.2848ZM7.327 14.752L7.9255 14.5718V14.5718L7.327 14.752ZM7.327 14.2718L7.9255 14.4518V14.4518L7.327 14.2718ZM4.6548 17.5L4.2129 17.9419 4.2129 17.9419 4.6548 17.5ZM8.1372 12.6943L8.7554 12.6024 8.7554 12.6024 8.1372 12.6943ZM8.1291 12.9849L8.7413 13.111V13.111L8.1291 12.9849ZM8.002 16.4213L7.4253 16.1806V16.1806L8.002 16.4213ZM8.0397 15.8913L8.6448 15.7345V15.7345L8.0397 15.8913ZM7.5221 11.5333L8.1305 11.3905 8.1305 11.3905 7.5221 11.5333ZM7.5526 11.6344L6.9671 11.853 6.9671 11.853 7.5526 11.6344ZM7.5 9.6533L7.2498 9.0806C7.0221 9.18 6.875 9.4049 6.875 9.6533H7.5ZM4.1667 9.6533H4.7917C4.7917 9.4049 4.6445 9.18 4.4169 9.0806L4.1667 9.6533ZM1.6667 5.8333H2.2917C2.2917 3.8773 3.8773 2.2917 5.8333 2.2917V1.6667 1.0417C3.187 1.0417 1.0417 3.187 1.0417 5.8333H1.6667ZM5.8333 1.6667V2.2917C7.7893 2.2917 9.375 3.8773 9.375 5.8333H10 10.625C10.625 3.187 8.4797 1.0417 5.8333 1.0417V1.6667ZM7.7497 11.9698L7.2297 12.3165 7.2523 12.3504 7.7724 12.0038 8.2924 11.657 8.2698 11.6231 7.7497 11.9698ZM7.0118 17.5L7.4538 17.9419 7.9853 17.4104 7.5433 16.9685 7.1014 16.5266 6.5699 17.0581 7.0118 17.5ZM7.663 13.7389L8.163 14.1139 8.2265 14.0293 7.7266 13.6543 7.2266 13.2793 7.163 13.3639 7.663 13.7389ZM7.663 15.2848L8.163 14.9098C8.0605 14.773 8.0014 14.6938 7.9607 14.6315 7.9238 14.5752 7.923 14.5634 7.9255 14.5718L7.327 14.752 6.7285 14.9321C6.8108 15.2057 6.9976 15.4392 7.163 15.6597L7.663 15.2848ZM7.663 13.7389L7.163 13.3639C6.9976 13.5845 6.8108 13.818 6.7285 14.0917L7.327 14.2718 7.9255 14.4518C7.923 14.4603 7.9238 14.4485 7.9607 14.3922 8.0014 14.33 8.0605 14.2507 8.163 14.1139L7.663 13.7389ZM7.327 14.752L7.9255 14.5718C7.9137 14.5328 7.9137 14.491 7.9255 14.4518L7.327 14.2718 6.7285 14.0917C6.646 14.3657 6.646 14.658 6.7285 14.9321L7.327 14.752ZM4.6548 17.5L4.2129 17.9419C4.4782 18.2073 4.7206 18.4516 4.9439 18.6219 5.1815 18.8032 5.4691 18.9583 5.8333 18.9583V18.3333 17.7083C5.8328 17.7083 5.8328 17.7083 5.8332 17.7083 5.8335 17.7084 5.8338 17.7084 5.8337 17.7084 5.8336 17.7084 5.8328 17.7082 5.8311 17.7077 5.8294 17.7072 5.8265 17.7062 5.8223 17.7044 5.8041 17.6968 5.7666 17.6773 5.7021 17.6281 5.5612 17.5207 5.387 17.3483 5.0968 17.0581L4.6548 17.5ZM7.0118 17.5L6.5699 17.0581C6.2796 17.3483 6.1055 17.5207 5.9646 17.6281 5.9 17.6773 5.8625 17.6968 5.8444 17.7044 5.8402 17.7062 5.8373 17.7072 5.8356 17.7077 5.8339 17.7082 5.833 17.7084 5.833 17.7084 5.8329 17.7084 5.8331 17.7084 5.8335 17.7083 5.8339 17.7083 5.8339 17.7083 5.8333 17.7083V18.3333 18.9583C6.1975 18.9583 6.4852 18.8032 6.7228 18.6219 6.946 18.4516 7.1885 18.2073 7.4538 17.9419L7.0118 17.5ZM4.1667 16.3215H3.5417C3.5417 16.6111 3.5306 16.93 3.6527 17.2248L4.2301 16.9856 4.8075 16.7464C4.8075 16.7463 4.8074 16.7462 4.8072 16.7453 4.8069 16.7444 4.8062 16.7421 4.8053 16.7377 4.8033 16.7282 4.8003 16.71 4.7978 16.6764 4.7921 16.6013 4.7917 16.5009 4.7917 16.3215H4.1667ZM4.6548 17.5L5.0968 17.0581C4.9699 16.9312 4.8992 16.8599 4.8501 16.8027 4.8282 16.7773 4.8174 16.7622 4.8121 16.7542 4.8096 16.7503 4.8084 16.7482 4.808 16.7474 4.8076 16.7467 4.8075 16.7464 4.8075 16.7464L4.2301 16.9856 3.6527 17.2248C3.7748 17.5194 4.0081 17.7372 4.2129 17.9419L4.6548 17.5ZM7.7724 12.0038L7.2523 12.3504C7.3703 12.5274 7.4379 12.6297 7.4825 12.7098 7.5223 12.7815 7.5204 12.7958 7.519 12.7863L8.1372 12.6943 8.7554 12.6024C8.7265 12.4083 8.6547 12.2461 8.5753 12.1028 8.5004 11.9682 8.3993 11.8174 8.2924 11.657L7.7724 12.0038ZM7.7266 13.6543L8.2265 14.0293C8.3422 13.875 8.4515 13.7301 8.5337 13.5998 8.621 13.4612 8.7017 13.3032 8.7413 13.111L8.1291 12.9849 7.517 12.8588C7.5189 12.8493 7.52 12.8638 7.4763 12.9331 7.4274 13.0107 7.3542 13.109 7.2266 13.2793L7.7266 13.6543ZM8.1372 12.6943L7.519 12.7863C7.5226 12.8103 7.5219 12.835 7.517 12.8588L8.1291 12.9849 8.7413 13.111C8.7758 12.9436 8.7805 12.7714 8.7554 12.6024L8.1372 12.6943ZM7.5433 16.9685L7.9853 17.4104C8.1109 17.2848 8.2279 17.1683 8.3193 17.0632 8.4153 16.9529 8.5111 16.8243 8.5788 16.6621L8.002 16.4213 7.4253 16.1806C7.4296 16.1702 7.4278 16.1835 7.3761 16.2429 7.3199 16.3075 7.2393 16.3887 7.1014 16.5266L7.5433 16.9685ZM7.663 15.2848L7.163 15.6597C7.28 15.8157 7.3484 15.9075 7.3949 15.9794 7.4376 16.0456 7.4375 16.0589 7.4347 16.0481L8.0397 15.8913 8.6448 15.7345C8.6006 15.5643 8.5239 15.4235 8.4446 15.3008 8.369 15.1838 8.2696 15.0519 8.163 14.9098L7.663 15.2848ZM8.002 16.4213L8.5788 16.6621C8.7014 16.3684 8.7246 16.0426 8.6448 15.7345L8.0397 15.8913 7.4347 16.0481C7.4461 16.0921 7.4428 16.1386 7.4253 16.1806L8.002 16.4213ZM7.5 11.1449H6.875C6.875 11.3129 6.8712 11.4956 6.9136 11.6762L7.5221 11.5333 8.1305 11.3905C8.1312 11.3936 8.1288 11.3867 8.1271 11.3492 8.1252 11.3058 8.125 11.2484 8.125 11.1449H7.5ZM7.7497 11.9698L8.2698 11.6231C8.2124 11.537 8.1807 11.4893 8.1582 11.452 8.1388 11.4198 8.1371 11.4128 8.1382 11.4158L7.5526 11.6344 6.9671 11.853C7.0321 12.0268 7.1365 12.1768 7.2297 12.3165L7.7497 11.9698ZM7.5221 11.5333L6.9136 11.6762C6.9277 11.7363 6.9456 11.7952 6.9671 11.853L7.5526 11.6344 8.1382 11.4158C8.1351 11.4075 8.1325 11.3991 8.1305 11.3905L7.5221 11.5333ZM7.5 9.6533H6.875V11.1449H7.5 8.125V9.6533H7.5ZM10 5.8333H9.375C9.375 7.2847 8.5019 8.5335 7.2498 9.0806L7.5 9.6533 7.7502 10.226C9.4413 9.4872 10.625 7.7992 10.625 5.8333H10ZM4.1667 9.6533H3.5417V16.3215H4.1667 4.7917V9.6533H4.1667ZM4.1667 9.6533L4.4169 9.0806C3.1647 8.5335 2.2917 7.2847 2.2917 5.8333H1.6667 1.0417C1.0417 7.7992 2.2254 9.4872 3.9164 10.226L4.1667 9.6533Z" fill="currentColor"/>
  <path d="M6.0417 5.8333H5.8333M6.25 5.8333C6.25 6.0635 6.0635 6.25 5.8333 6.25 5.6032 6.25 5.4167 6.0635 5.4167 5.8333 5.4167 5.6032 5.6032 5.4167 5.8333 5.4167 6.0635 5.4167 6.25 5.6032 6.25 5.8333Z" stroke="currentColor" stroke-linecap="round" stroke-linejoin="round" stroke-width="2"/>
</svg>
