<svg xmlns="http://www.w3.org/2000/svg" width="20" height="20" viewBox="0 0 20 20" fill="none">
  <path d="M7.0833 13.75C7.6655 12.7436 8.7537 12.0664 9.9999 12.0664 11.2462 12.0664 12.3344 12.7436 12.9166 13.75M11.6667 8.3333C11.6667 9.2538 10.9204 10 10 10 9.0795 10 8.3333 9.2538 8.3333 8.3333 8.3333 7.4129 9.0795 6.6667 10 6.6667 10.9204 6.6667 11.6667 7.4129 11.6667 8.3333Z" stroke="currentColor" stroke-linecap="round" stroke-width="2"/>
  <path d="M18.3333 11.6391V8.361C15.9527 8.361 14.4047 5.7753 15.61 3.7224L12.7233 2.0834C11.5032 4.1617 8.4982 4.1616 7.278 2.0833L4.3913 3.7223C5.5966 5.7753 4.0473 8.361 1.6667 8.361V11.6391C4.0472 11.6391 5.5952 14.2248 4.39 16.2777L7.2767 17.9167C8.4974 15.8373 11.5038 15.8373 12.7246 17.9166L15.6113 16.2776C14.4062 14.2247 15.9528 11.6391 18.3333 11.6391Z" stroke="currentColor" stroke-linecap="round" stroke-linejoin="round" stroke-width="2"/>
</svg>
