<svg xmlns="http://www.w3.org/2000/svg" width="20" height="20" viewBox="0 0 20 20" fill="none">
  <path d="M5.8333 11.6667L8.1607 9.3393C8.4862 9.0138 9.0138 9.0138 9.3393 9.3393L10.6608 10.6608C10.9862 10.9862 11.5138 10.9862 11.8393 10.6608L14.1667 8.3333" stroke="currentColor" stroke-linecap="round" stroke-linejoin="round" stroke-width="2"/>
  <path d="M17.4994 10.8333C17.5 10.567 17.5 10.2894 17.5 10 17.5 6.4645 17.5 4.6967 16.4017 3.5983 15.3033 2.5 13.5355 2.5 10 2.5 6.4645 2.5 4.6967 2.5 3.5983 3.5983 2.5 4.6967 2.5 6.4645 2.5 10 2.5 13.5355 2.5 15.3033 3.5983 16.4017 4.6967 17.5 6.4645 17.5 10 17.5 10.2894 17.5 10.567 17.5 10.8333 17.4994" stroke="currentColor" stroke-linecap="round" stroke-linejoin="round" stroke-width="2"/>
  <path d="M15.8114 13.3513C15.8163 13.3273 15.8504 13.3273 15.8552 13.3513 16.1085 14.5901 17.0766 15.5582 18.3154 15.8114 18.3393 15.8163 18.3393 15.8504 18.3154 15.8552 17.0766 16.1085 16.1085 17.0766 15.8552 18.3154 15.8504 18.3393 15.8163 18.3393 15.8114 18.3154 15.5582 17.0766 14.5901 16.1085 13.3513 15.8552 13.3273 15.8504 13.3273 15.8163 13.3513 15.8114 14.5901 15.5582 15.5582 14.5901 15.8114 13.3513Z" stroke="currentColor" stroke-linecap="round" stroke-linejoin="round" stroke-width="2"/>
</svg>
