<svg xmlns="http://www.w3.org/2000/svg" width="20" height="20" viewBox="0 0 20 20" fill="none">
  <path d="M3.5983 16.4017C2.5 15.3033 2.5 13.5355 2.5 10 2.5 6.4645 2.5 4.6967 3.5983 3.5983 4.6967 2.5 6.4645 2.5 10 2.5 13.5355 2.5 15.3033 2.5 16.4017 3.5983 17.5 4.6967 17.5 6.4645 17.5 10 17.5 13.5355 17.5 15.3033 16.4017 16.4017 15.3033 17.5 13.5355 17.5 10 17.5 6.4645 17.5 4.6967 17.5 3.5983 16.4017Z" stroke="currentColor" stroke-linecap="round" stroke-linejoin="round" stroke-width="2"/>
  <path d="M5.8333 11.6667L8.1607 9.3393C8.4862 9.0138 9.0138 9.0138 9.3393 9.3393L10.6608 10.6608C10.9862 10.9862 11.5138 10.9862 11.8393 10.6608L14.1667 8.3333" stroke="currentColor" stroke-linecap="round" stroke-linejoin="round" stroke-width="2"/>
</svg>
