<svg xmlns="http://www.w3.org/2000/svg" width="20" height="20" viewBox="0 0 20 20" fill="none">
  <path d="M18.3333 10C18.3333 14.6023 14.6023 18.3333 10 18.3333 5.3976 18.3333 1.6667 14.6023 1.6667 10 1.6667 5.3976 5.3976 1.6667 10 1.6667 14.6023 1.6667 18.3333 5.3976 18.3333 10Z" stroke="currentColor" stroke-linecap="round" stroke-linejoin="round" stroke-width="2"/>
  <path d="M1.6667 10.2742H5.0737C5.4011 10.2742 5.5648 10.2742 5.7059 10.2073 5.7751 10.1746 5.8394 10.1304 5.8968 10.0764 6.0137 9.9663 6.0869 9.8037 6.2334 9.4785 7.0278 7.7146 7.4251 6.8327 7.9393 6.6994 8.18 6.637 8.4325 6.6643 8.6578 6.7772 9.1392 7.0183 9.3754 7.9688 9.8478 9.8699L10.0725 10.7742C10.5818 12.8235 10.8364 13.8483 11.3558 14.078 11.5632 14.1697 11.7904 14.1908 12.0087 14.1387 12.5553 14.0083 12.9602 13.0451 13.77 11.1187 13.9182 10.7663 13.9922 10.5902 14.1168 10.4725 14.1693 10.4229 14.2277 10.3817 14.2903 10.3498 14.4391 10.2742 14.6142 10.2742 14.9644 10.2742H18.3333" stroke="currentColor" stroke-linecap="round" stroke-linejoin="round" stroke-width="2"/>
</svg>
