<svg xmlns="http://www.w3.org/2000/svg" width="20" height="20" viewBox="0 0 20 20" fill="none">
  <path d="M17.9167 3.75C17.9167 4.6705 17.1705 5.4167 16.25 5.4167 15.3295 5.4167 14.5833 4.6705 14.5833 3.75 14.5833 2.8295 15.3295 2.0833 16.25 2.0833 17.1705 2.0833 17.9167 2.8295 17.9167 3.75Z" stroke="currentColor" stroke-width="2"/>
  <path d="M17.0593 7.8381C17.0833 8.5751 17.0833 9.4266 17.0833 10.4167 17.0833 13.9522 17.0833 15.72 15.985 16.8183 14.8867 17.9167 13.1188 17.9167 9.5833 17.9167 6.0478 17.9167 4.28 17.9167 3.1817 16.8183 2.0833 15.72 2.0833 13.9522 2.0833 10.4167 2.0833 6.8811 2.0833 5.1134 3.1817 4.015 4.28 2.9167 6.0478 2.9167 9.5833 2.9167 10.5734 2.9167 11.4249 2.9167 12.1618 2.9408" stroke="currentColor" stroke-linecap="round" stroke-linejoin="round" stroke-width="2"/>
  <path d="M5.4167 12.0833L7.7441 9.7559C8.0695 9.4305 8.5972 9.4305 8.9226 9.7559L10.2441 11.0774C10.5695 11.4028 11.0972 11.4028 11.4226 11.0774L13.75 8.75" stroke="currentColor" stroke-linecap="round" stroke-linejoin="round" stroke-width="2"/>
</svg>
