<svg xmlns="http://www.w3.org/2000/svg" width="20" height="20" viewBox="0 0 20 20" fill="none">
  <path d="M8.3333 3.3333H11.6667C14.8093 3.3333 16.3808 3.3333 17.357 4.3096 18.3333 5.286 18.3333 6.8573 18.3333 10 18.3333 13.1427 18.3333 14.7141 17.357 15.6903 16.3808 16.6667 14.8093 16.6667 11.6667 16.6667H8.3333C5.1906 16.6667 3.6193 16.6667 2.643 15.6903 1.6667 14.7141 1.6667 13.1427 1.6667 10 1.6667 6.8573 1.6667 5.286 2.643 4.3096 3.6193 3.3333 5.1906 3.3333 8.3333 3.3333Z" stroke="currentColor" stroke-linecap="round" stroke-linejoin="round" stroke-width="2"/>
  <path d="M1.6667 11.6667H3.2147C4.4678 11.6667 5.0944 11.6667 5.6284 11.3903 5.6596 11.3742 5.6906 11.3573 5.7211 11.3398 6.2432 11.0408 6.5908 10.5102 7.2859 9.4488 8.4842 7.6193 9.0833 6.7045 9.9299 6.6682 9.9766 6.6662 10.0234 6.6662 10.0701 6.6682 10.9168 6.7045 11.5158 7.6193 12.7141 9.4488 13.4093 10.5102 13.7568 11.0408 14.2788 11.3398 14.3094 11.3573 14.3403 11.3742 14.3716 11.3903 14.9056 11.6667 15.5322 11.6667 16.7853 11.6667H18.3333" stroke="currentColor" stroke-linecap="round" stroke-linejoin="round" stroke-width="2"/>
</svg>
