<svg xmlns="http://www.w3.org/2000/svg" width="20" height="20" viewBox="0 0 20 20" fill="none">
  <path d="M10.0008 16.674C10.6908 16.674 11.25 16.1148 11.25 15.4248V11.2557H15.4183C16.1079 11.2557 16.667 10.6969 16.6675 10.0073 16.6679 9.3171 16.1085 8.7573 15.4183 8.7573H11.25V4.589C11.25 3.8994 10.6913 3.3403 10.0017 3.3398 9.3114 3.3394 8.7517 3.8988 8.7517 4.589V8.7573H4.5825C3.8926 8.7573 3.3333 9.3166 3.3333 10.0065 3.3333 10.6964 3.8926 11.2557 4.5825 11.2557H8.7517V15.4248C8.7517 16.1148 9.3109 16.674 10.0008 16.674Z" stroke="currentColor" stroke-linecap="round" stroke-linejoin="round" stroke-width="2"/>
</svg>
