<svg xmlns="http://www.w3.org/2000/svg" width="20" height="20" viewBox="0 0 20 20" fill="none">
  <path d="M10.05 17.927C9.6204 18.1979 9.4057 18.3333 9.1667 18.3333 8.9277 18.3333 8.7128 18.1978 8.2833 17.927L6.6909 16.9228C6.2868 16.6678 6.0847 16.5404 5.8604 16.5331 5.6181 16.5251 5.4124 16.6473 4.9757 16.9228 4.4866 17.2312 3.5141 18.0809 2.885 17.6757 2.5 17.4277 2.5 16.7979 2.5 15.5382V6.6667C2.5 4.3096 2.5 3.1311 3.1892 2.3989 3.8783 1.6667 4.9875 1.6667 7.2059 1.6667H11.1274C13.3458 1.6667 14.455 1.6667 15.1442 2.3989 15.8333 3.1311 15.8333 4.3096 15.8333 6.6667V10" stroke="currentColor" stroke-linecap="round" stroke-linejoin="round" stroke-width="2"/>
  <path d="M9.1667 9.1667H5.8333" stroke="currentColor" stroke-linecap="round" stroke-linejoin="round" stroke-width="2"/>
  <path d="M14.1667 11.6667V18.3333M17.5 15L10.8333 15" stroke="currentColor" stroke-linecap="round" stroke-linejoin="round" stroke-width="2"/>
  <path d="M12.5 5.8333L5.8333 5.8333" stroke="currentColor" stroke-linecap="round" stroke-linejoin="round" stroke-width="2"/>
</svg>
