<svg xmlns="http://www.w3.org/2000/svg" width="20" height="20" viewBox="0 0 20 20" fill="none">
  <path d="M14.1667 8.3333H15.8333C16.6099 8.3333 16.9982 8.3333 17.3045 8.2065 17.7128 8.0373 18.0373 7.7129 18.2065 7.3045 18.3333 6.9982 18.3333 6.6099 18.3333 5.8333 18.3333 5.0568 18.3333 4.6685 18.2065 4.3622 18.0373 3.9538 17.7128 3.6294 17.3045 3.4602 16.9982 3.3333 16.6099 3.3333 15.8333 3.3333H14.1667C13.3901 3.3333 13.0018 3.3333 12.6955 3.4602 12.2872 3.6294 11.9627 3.9538 11.7935 4.3622 11.6667 4.6685 11.6667 5.0568 11.6667 5.8333 11.6667 6.6099 11.6667 6.9982 11.7935 7.3045 11.9627 7.7129 12.2872 8.0373 12.6955 8.2065 13.0018 8.3333 13.3901 8.3333 14.1667 8.3333Z" stroke="currentColor" stroke-linecap="round" stroke-linejoin="round" stroke-width="2"/>
  <path d="M8.3333 5.8333H5.8333C3.5322 5.8333 1.6667 7.6988 1.6667 10 1.6667 12.3012 3.5322 14.1667 5.8333 14.1667H8.3333" stroke="currentColor" stroke-linecap="round" stroke-linejoin="round" stroke-width="2"/>
  <path d="M6.2501 12.0833L7.3346 12.9882C8.0004 13.5438 8.3334 13.8215 8.3334 14.1667 8.3334 14.5118 8.0004 14.7896 7.3346 15.3452L6.2501 16.25" stroke="currentColor" stroke-linecap="round" stroke-linejoin="round" stroke-width="2"/>
  <path d="M14.1667 16.6667H15.8333C16.6099 16.6667 16.9982 16.6667 17.3045 16.5398 17.7128 16.3707 18.0373 16.0462 18.2065 15.6378 18.3333 15.3315 18.3333 14.9432 18.3333 14.1667 18.3333 13.3901 18.3333 13.0018 18.2065 12.6955 18.0373 12.2872 17.7128 11.9627 17.3045 11.7935 16.9982 11.6667 16.6099 11.6667 15.8333 11.6667H14.1667C13.3901 11.6667 13.0018 11.6667 12.6955 11.7935 12.2872 11.9627 11.9627 12.2872 11.7935 12.6955 11.6667 13.0018 11.6667 13.3901 11.6667 14.1667 11.6667 14.9432 11.6667 15.3315 11.7935 15.6378 11.9627 16.0462 12.2872 16.3707 12.6955 16.5398 13.0018 16.6667 13.3901 16.6667 14.1667 16.6667Z" stroke="currentColor" stroke-linecap="round" stroke-linejoin="round" stroke-width="2"/>
</svg>
