<svg xmlns="http://www.w3.org/2000/svg" width="20" height="20" viewBox="0 0 20 20" fill="none">
  <path d="M2.0833 10C2.0833 6.268 2.0833 4.4021 3.2427 3.2427 4.4021 2.0833 6.268 2.0833 10 2.0833 13.7319 2.0833 15.5979 2.0833 16.7573 3.2427 17.9167 4.4021 17.9167 6.268 17.9167 10 17.9167 13.7319 17.9167 15.5979 16.7573 16.7573 15.5979 17.9167 13.7319 17.9167 10 17.9167 6.268 17.9167 4.4021 17.9167 3.2427 16.7573 2.0833 15.5979 2.0833 13.7319 2.0833 10Z" stroke="currentColor" stroke-linejoin="round" stroke-width="2"/>
  <path d="M10 13.3333L9.2783 11M5 13.3333L5.7218 11M5.7218 11L6.3253 9.0491C6.8166 7.4608 7.0622 6.6667 7.5 6.6667 7.9378 6.6667 8.1834 7.4608 8.6748 9.0491L9.2783 11M5.7218 11H9.2783" stroke="currentColor" stroke-linecap="round" stroke-linejoin="round" stroke-width="2"/>
  <path d="M11.6667 10.7247V11.6667C11.6667 12.5872 12.4128 13.3333 13.3333 13.3333 13.9524 13.3333 14.4927 12.9958 14.7801 12.4947M11.6667 10.7247V10C11.6667 9.0795 12.4128 8.3333 13.3333 8.3333 14.2538 8.3333 15 9.0795 15 10L15 10.7247H11.6667Z" stroke="currentColor" stroke-linecap="round" stroke-linejoin="round" stroke-width="2"/>
</svg>
