<svg xmlns="http://www.w3.org/2000/svg" width="20" height="20" viewBox="0 0 20 20" fill="none">
  <path d="M2.0833 10C2.0833 6.268 2.0833 4.4021 3.2427 3.2427 4.4021 2.0833 6.268 2.0833 10 2.0833 13.7319 2.0833 15.5979 2.0833 16.7573 3.2427 17.9167 4.4021 17.9167 6.268 17.9167 10 17.9167 13.7319 17.9167 15.5979 16.7573 16.7573 15.5979 17.9167 13.7319 17.9167 10 17.9167 6.268 17.9167 4.4021 17.9167 3.2427 16.7573 2.0833 15.5979 2.0833 13.7319 2.0833 10Z" stroke="currentColor" stroke-linejoin="round" stroke-width="2"/>
  <path d="M5.8333 13.3333V10M5.8333 10V7.1429C5.8333 6.8484 6.0287 6.6667 6.3095 6.6667H7.5C8.4205 6.6667 9.1667 7.4129 9.1667 8.3333 9.1667 9.2538 8.4205 10 7.5 10H5.8333Z" stroke="currentColor" stroke-linecap="round" stroke-linejoin="round" stroke-width="2"/>
  <path d="M11.6667 8.75V10.4167M11.6667 10.4167V13.3333M11.6667 10.4167C12.1342 9.7933 12.5693 9.0166 13.3333 8.8053 13.4622 8.7696 13.6006 8.75 13.75 8.75" stroke="currentColor" stroke-linecap="round" stroke-linejoin="round" stroke-width="2"/>
</svg>
