<svg xmlns="http://www.w3.org/2000/svg" width="20" height="20" viewBox="0 0 20 20" fill="none">
  <path d="M2.0833 10C2.0833 6.268 2.0833 4.4021 3.2427 3.2427 4.4021 2.0833 6.268 2.0833 10 2.0833 13.7319 2.0833 15.5979 2.0833 16.7573 3.2427 17.9167 4.4021 17.9167 6.268 17.9167 10 17.9167 13.7319 17.9167 15.5979 16.7573 16.7573 15.5979 17.9167 13.7319 17.9167 10 17.9167 6.268 17.9167 4.4021 17.9167 3.2427 16.7573 2.0833 15.5979 2.0833 13.7319 2.0833 10Z" stroke="currentColor" stroke-linejoin="round" stroke-width="2"/>
  <path d="M5.4167 13.3333V10M5.4167 10V7.6042C5.4167 7.5074 5.4167 7.4591 5.4207 7.4183 5.4597 7.0227 5.7727 6.7096 6.1683 6.6707 6.2091 6.6667 6.2574 6.6667 6.3542 6.6667H7.5C8.4205 6.6667 9.1667 7.4129 9.1667 8.3333 9.1667 9.2538 8.4205 10 7.5 10H5.4167Z" stroke="currentColor" stroke-linecap="round" stroke-linejoin="round" stroke-width="2"/>
  <path d="M14.5548 9.3521C14.4103 8.7722 13.7318 8.3333 12.9167 8.3333 11.9962 8.3333 11.25 8.893 11.25 9.5833 11.25 10.2737 11.9962 10.8333 12.9167 10.8333 13.8372 10.8333 14.5833 11.393 14.5833 12.0833 14.5833 12.7737 13.8372 13.3333 12.9167 13.3333 12.0986 13.3333 11.4183 12.8913 11.2769 12.3083" stroke="currentColor" stroke-linecap="round" stroke-width="2"/>
</svg>
