<svg xmlns="http://www.w3.org/2000/svg" width="20" height="20" viewBox="0 0 20 20" fill="none">
  <path d="M5.4705 16.3006C4.9823 16.7887 4.1909 16.7887 3.7027 16.3006 3.2146 15.8124 3.2146 15.0209 3.7027 14.5328 4.1909 14.0447 4.9823 14.0447 5.4705 14.5328 5.9586 15.0209 5.9586 15.8124 5.4705 16.3006Z" stroke="currentColor" stroke-width="2"/>
  <path d="M5.0033 10H5.3129C5.7549 10 6.1789 10.1756 6.4914 10.4882L9.5151 13.5118C9.8277 13.8244 10.0032 14.2483 10.0032 14.6903V15" stroke="currentColor" stroke-linecap="round" stroke-linejoin="round" stroke-width="2"/>
  <path d="M8.7586 12.5L15.4633 6.9785C15.7406 6.7501 15.9373 6.4387 16.0245 6.0901L16.6615 3.542C16.6923 3.4191 16.5809 3.3078 16.458 3.3385L13.9099 3.9755C13.5613 4.0627 13.2499 4.2594 13.0215 4.5367L7.5 11.2414" stroke="currentColor" stroke-linecap="round" stroke-linejoin="round" stroke-width="2"/>
  <path d="M11.5909 2.4105C10.7167 1.9146 10.2796 1.6667 10.0006 1.6667 9.7216 1.6667 9.2844 1.9146 8.4101 2.4104 7.5643 2.89 6.6781 3.1865 5.8136 3.3693 4.0973 3.7321 3.2391 3.9135 2.8695 4.3611 2.5 4.8086 2.5 5.5105 2.5 6.9144V8.3017M10.0005 18.3333C10.2605 18.3333 10.5205 18.2989 10.773 18.2302 11.1819 18.1188 11.5666 17.8793 12.3359 17.4003 14.0545 16.3303 14.9138 15.7954 15.5649 15.1083 16.3692 14.2598 16.9483 13.2397 17.2537 12.1336 17.4616 11.3807 17.4947 10.5691 17.5 9.1667" stroke="currentColor" stroke-linecap="round" stroke-linejoin="round" stroke-width="2"/>
  <path d="M5.4167 14.5833L7.9167 12.0833" stroke="currentColor" stroke-linejoin="round" stroke-width="2"/>
</svg>
