<svg xmlns="http://www.w3.org/2000/svg" width="20" height="20" viewBox="0 0 20 20" fill="none">
  <path d="M5.494 10C2.28 5.2381 8.4718 3.75 9.9989 1.6667 11.5263 3.75 17.7178 5.2381 14.5018 10H5.494Z" stroke="currentColor" stroke-linecap="round" stroke-linejoin="round" stroke-width="2"/>
  <path d="M10 13.3333L10 15" stroke="currentColor" stroke-linecap="round" stroke-linejoin="round" stroke-width="2"/>
  <path d="M5.4167 10V13.5714C5.4167 15.8163 5.4167 16.9386 6.0879 17.636 6.7591 18.3333 7.8394 18.3333 10 18.3333 12.1606 18.3333 13.2409 18.3333 13.9121 17.636 14.5833 16.9386 14.5833 15.8163 14.5833 13.5714V10" stroke="currentColor" stroke-linecap="round" stroke-linejoin="round" stroke-width="2"/>
  <path d="M16.6667 11.6667L17.5 11.25M16.6667 15L17.5 15.4167" stroke="currentColor" stroke-linecap="round" stroke-linejoin="round" stroke-width="2"/>
  <path d="M3.3333 11.6667L2.5 11.25M3.3333 15L2.5 15.4167" stroke="currentColor" stroke-linecap="round" stroke-linejoin="round" stroke-width="2"/>
</svg>
