<svg xmlns="http://www.w3.org/2000/svg" width="20" height="20" viewBox="0 0 20 20" fill="none">
  <path d="M18.3037 3.7551C18.3037 3.7551 18.4504 2.2679 18.0912 1.9087M18.0912 1.9087C17.73 1.5475 16.2451 1.6976 16.2451 1.6976M18.0912 1.9087L15.8333 4.1666" stroke="currentColor" stroke-linecap="round" stroke-linejoin="round" stroke-width="2"/>
  <path d="M18.3037 16.2448C18.3037 16.2448 18.4504 17.7321 18.0912 18.0912M18.0912 18.0912C17.73 18.4525 16.2451 18.3024 16.2451 18.3024M18.0912 18.0912L15.8333 15.8333" stroke="currentColor" stroke-linecap="round" stroke-linejoin="round" stroke-width="2"/>
  <path d="M1.9087 1.9087L4.1667 4.1666M1.9087 1.9087C2.27 1.5475 3.7549 1.6976 3.7549 1.6976M1.9087 1.9087C1.5496 2.2679 1.6963 3.7551 1.6963 3.7551" stroke="currentColor" stroke-linecap="round" stroke-linejoin="round" stroke-width="2"/>
  <path d="M1.9087 18.0912L4.1667 15.8333M1.9087 18.0912C2.27 18.4525 3.7549 18.3024 3.7549 18.3024M1.9087 18.0912C1.5496 17.7322 1.6963 16.2449 1.6963 16.2449" stroke="currentColor" stroke-linecap="round" stroke-linejoin="round" stroke-width="2"/>
  <path d="M15.8333 10C15.8333 13.2217 13.2217 15.8333 10 15.8333 6.7783 15.8333 4.1667 13.2217 4.1667 10 4.1667 6.7783 6.7783 4.1667 10 4.1667 13.2217 4.1667 15.8333 6.7783 15.8333 10Z" stroke="currentColor" stroke-width="2"/>
  <path d="M9.9283 7.7511C9.0078 7.7511 8.3333 8.2862 8.3333 8.9073 8.3333 9.5282 8.7683 9.9166 10 9.9166 11.3568 9.9166 11.6667 10.5353 11.6667 11.1563 11.6667 11.7773 11.0736 12.2678 9.9283 12.2678M9.9283 7.7511C10.654 7.7511 11.0376 8.0051 11.3405 8.3471M9.9283 7.7511V7.0475M9.9283 12.2678C9.2027 12.2678 8.9205 12.1245 8.5208 11.7628M9.9283 12.2678V12.924" stroke="currentColor" stroke-linecap="round" stroke-width="2"/>
</svg>
