<svg xmlns="http://www.w3.org/2000/svg" width="20" height="20" viewBox="0 0 20 20" fill="none">
  <path d="M18.3333 5.625H16.0092C15.5083 5.625 15.2578 5.625 15.0217 5.5535 14.7855 5.482 14.5771 5.3431 14.1603 5.0652 13.5351 4.6484 12.8218 4.1729 12.4675 4.0656 12.1133 3.9584 11.7375 3.9584 10.9861 3.9584 9.9643 3.9584 9.3056 3.9584 8.8462 4.1487 8.3868 4.339 8.0255 4.7003 7.3029 5.4228L6.667 6.0587C6.5042 6.2216 6.4227 6.303 6.3725 6.3834 6.1861 6.6814 6.2068 7.0642 6.4241 7.3405 6.4827 7.415 6.5724 7.4872 6.7518 7.6315 7.415 8.1652 8.371 8.112 8.9715 7.5079L10 6.4732H10.8333L15.8333 11.503C16.2936 11.966 16.2936 12.7166 15.8333 13.1796 15.3731 13.6426 14.6269 13.6426 14.1667 13.1796L13.75 12.7604M11.25 10.2456L13.75 12.7604M13.75 12.7604C14.2103 13.2234 14.2103 13.9741 13.75 14.437 13.2897 14.9 12.5436 14.9 12.0833 14.437L11.25 13.5988M11.25 13.5988C11.7103 14.0617 11.7103 14.8123 11.25 15.2753 10.7897 15.7383 10.0436 15.7383 9.5833 15.2753L8.3333 14.0178M11.25 13.5988L9.5833 11.9321M7.9167 13.5988L8.3333 14.0178M8.3333 14.0178C8.7936 14.4808 8.7936 15.2315 8.3333 15.6945 7.8731 16.1574 7.1269 16.1574 6.6667 15.6945L4.3136 13.2924C3.8301 12.7988 3.5884 12.5521 3.2786 12.4218 2.9689 12.2917 2.6234 12.2917 1.9325 12.2917H1.6667" stroke="currentColor" stroke-linecap="round" stroke-linejoin="round" stroke-width="2"/>
  <path d="M18.3333 12.2917H16.25" stroke="currentColor" stroke-linecap="round" stroke-width="2"/>
  <path d="M7.0833 5.625L1.6667 5.625" stroke="currentColor" stroke-linecap="round" stroke-width="2"/>
</svg>
