<svg xmlns="http://www.w3.org/2000/svg" width="20" height="20" viewBox="0 0 20 20" fill="none">
  <path d="M7.5 18.3333C7.7999 18.3333 8.909 17.8272 10.0412 16.8148M10.0412 16.8148C11.0065 15.9516 11.9886 14.7203 12.5 13.121 13.6111 9.6461 6.9444 13.121 9.1667 16.0167 9.4401 16.373 9.7346 16.6334 10.0412 16.8148ZM10.0412 16.8148C11.3768 17.6049 12.9426 16.895 14.0034 16.0787 14.3277 15.8292 14.4897 15.7044 14.5865 15.7432 14.6833 15.7821 14.7398 16.0053 14.853 16.4518 15.2151 17.8808 16.2846 19.0342 17.5 17.1754" stroke="currentColor" stroke-linecap="round" stroke-linejoin="round" stroke-width="2"/>
  <path d="M16.6667 10.8333L16.6667 6.5756C16.6667 5.147 16.6667 4.4327 16.4433 3.8622 16.0844 2.945 15.3252 2.2215 14.3627 1.8795 13.764 1.6667 13.0144 1.6667 11.5152 1.6667 8.8915 1.6667 7.5797 1.6667 6.532 2.0391 4.8476 2.6377 3.519 3.9037 2.8908 5.5088 2.5 6.5072 2.5 7.7572 2.5 10.2573L2.5 12.4049C2.5 14.9947 2.5 16.2895 3.2064 17.1888 3.4088 17.4463 3.6488 17.6751 3.9192 17.868 4.2251 18.0862 4.5747 18.2337 5 18.3333" stroke="currentColor" stroke-linecap="round" stroke-linejoin="round" stroke-width="2"/>
  <path d="M2.5 10C2.5 8.4658 3.7437 7.2222 5.2778 7.2222 5.8326 7.2222 6.4867 7.3194 7.0261 7.1749 7.5054 7.0465 7.8798 6.6721 8.0082 6.1928 8.1528 5.6534 8.0556 4.9993 8.0556 4.4444 8.0556 2.9103 9.2993 1.6667 10.8333 1.6667" stroke="currentColor" stroke-linecap="round" stroke-linejoin="round" stroke-width="2"/>
</svg>
