<svg xmlns="http://www.w3.org/2000/svg" width="20" height="20" viewBox="0 0 20 20" fill="none">
  <path d="M1.6667 5.8333H4.0542C4.6598 5.8333 5.2406 5.5336 5.6688 5 6.2804 4.238 7.185 3.972 8.0055 4.3127L9.1667 4.795M1.6667 13.3057H3.0172C3.9835 13.3057 4.4666 13.3057 4.9234 13.4344 4.9456 13.4407 4.9678 13.4472 4.9899 13.4538 5.4438 13.5917 5.8458 13.8507 6.6498 14.3689 8.2232 15.383 9.01 15.8901 9.8673 15.8283 9.9077 15.8254 9.948 15.8215 9.9883 15.8168 10.8413 15.7148 11.5099 15.0684 12.8472 13.7757L14.1667 12.5" stroke="currentColor" stroke-linecap="round" stroke-width="2"/>
  <path d="M18.3333 6.0282H16.236C15.3478 6.0282 14.7208 5.5456 14.0836 4.9021 13.6709 4.4854 13.1442 4.2398 12.5907 4.2059 11.9717 4.1681 11.2544 4.1149 10.6533 4.28 9.9842 4.4638 9.5425 4.9672 9.0752 5.4933L7.8692 6.8509C7.3769 7.4052 7.3769 8.3038 7.8692 8.8581 8.2942 9.3364 8.9599 9.4107 9.4599 9.0353 9.8198 8.7653 10.2286 8.3292 10.6526 8.1919 11.1298 8.0373 11.4258 8.3846 11.6962 8.7499L13.6297 11.362C14.3473 12.3313 14.706 12.8161 15.1965 13.0747 15.687 13.3333 16.2474 13.3333 17.3683 13.3333H18.3333" stroke="currentColor" stroke-linecap="round" stroke-width="2"/>
</svg>
