<svg xmlns="http://www.w3.org/2000/svg" width="20" height="20" viewBox="0 0 20 20" fill="none">
  <path d="M9.5833 5C5.8514 5 3.9854 5 2.826 5.9763 1.6667 6.9526 1.6667 8.524 1.6667 11.6667 1.6667 14.8093 1.6667 16.3808 2.826 17.357 3.9854 18.3333 5.8514 18.3333 9.5833 18.3333 13.3153 18.3333 15.1813 18.3333 16.3407 17.357 17.5 16.3808 17.5 14.8093 17.5 11.6667 17.5 10.6918 17.5 9.8683 17.4654 9.1667" stroke="currentColor" stroke-linecap="round" stroke-width="2"/>
  <path d="M15.4167 1.6667L15.6316 2.2475C15.9134 3.0092 16.0543 3.39 16.3322 3.6678 16.61 3.9456 16.9908 4.0866 17.7525 4.3684L18.3333 4.5833 17.7525 4.7983C16.9908 5.0801 16.61 5.221 16.3322 5.4988 16.0543 5.7767 15.9134 6.1575 15.6316 6.9191L15.4167 7.5 15.2018 6.9191C14.9199 6.1575 14.779 5.7767 14.5012 5.4988 14.2233 5.221 13.8425 5.0801 13.0808 4.7983L12.5 4.5833 13.0808 4.3684C13.8425 4.0866 14.2233 3.9456 14.5012 3.6678 14.779 3.39 14.9199 3.0092 15.2018 2.2475L15.4167 1.6667Z" stroke="currentColor" stroke-linejoin="round" stroke-width="2"/>
  <path d="M10 8.3333V15" stroke="currentColor" stroke-linecap="round" stroke-linejoin="round" stroke-width="2"/>
  <path d="M7.5 10V13.3333" stroke="currentColor" stroke-linecap="round" stroke-linejoin="round" stroke-width="2"/>
  <path d="M5 10.8333V12.5" stroke="currentColor" stroke-linecap="round" stroke-linejoin="round" stroke-width="2"/>
  <path d="M12.5 10V13.3333" stroke="currentColor" stroke-linecap="round" stroke-linejoin="round" stroke-width="2"/>
  <path d="M15 10.8333V12.5" stroke="currentColor" stroke-linecap="round" stroke-linejoin="round" stroke-width="2"/>
</svg>
