<svg xmlns="http://www.w3.org/2000/svg" width="20" height="20" viewBox="0 0 20 20" fill="none">
  <path d="M11.6667 10.5403L13.6423 8.5646C13.8863 8.3206 14.0083 8.1986 14.0736 8.0669 14.1977 7.8165 14.1977 7.5225 14.0736 7.272 14.0083 7.1404 13.8863 7.0184 13.6423 6.7744 13.3983 6.5303 13.2763 6.4083 13.1447 6.3431 12.8942 6.219 12.6002 6.219 12.3498 6.3431 12.2181 6.4083 12.0961 6.5303 11.8521 6.7744L9.8764 8.75M11.6667 10.5403L4.8146 17.3923C4.5706 17.6363 4.4486 17.7583 4.3169 17.8236 4.0665 17.9477 3.7725 17.9477 3.522 17.8236 3.3904 17.7583 3.2684 17.6363 3.0244 17.3923 2.7803 17.1483 2.6583 17.0263 2.5931 16.8947 2.469 16.6442 2.469 16.3502 2.5931 16.0998 2.6583 15.9681 2.7803 15.8461 3.0244 15.6021L9.8764 8.75M11.6667 10.5403L9.8764 8.75" stroke="currentColor" stroke-linecap="round" stroke-linejoin="round" stroke-width="2"/>
  <path d="M16.25 2.0833L16.1579 2.3323C16.0371 2.6587 15.9767 2.8219 15.8577 2.941 15.7386 3.06 15.5753 3.1204 15.2489 3.2412L15 3.3333 15.2489 3.4255C15.5753 3.5462 15.7386 3.6066 15.8577 3.7257 15.9767 3.8448 16.0371 4.008 16.1579 4.3344L16.25 4.5833 16.3421 4.3344C16.4629 4.008 16.5233 3.8448 16.6423 3.7257 16.7614 3.6066 16.9247 3.5462 17.2511 3.4255L17.5 3.3333 17.2511 3.2412C16.9247 3.1204 16.7614 3.06 16.6423 2.941 16.5233 2.8219 16.4629 2.6587 16.3421 2.3323L16.25 2.0833Z" stroke="currentColor" stroke-linejoin="round" stroke-width="2"/>
  <path d="M16.25 10.4167L16.1579 10.6656C16.0371 10.992 15.9767 11.1553 15.8577 11.2743 15.7386 11.3933 15.5753 11.4538 15.2489 11.5746L15 11.6667 15.2489 11.7588C15.5753 11.8796 15.7386 11.94 15.8577 12.059 15.9767 12.1781 16.0371 12.3413 16.1579 12.6677L16.25 12.9167 16.3421 12.6677C16.4629 12.3413 16.5233 12.1781 16.6423 12.059 16.7614 11.94 16.9247 11.8796 17.2511 11.7588L17.5 11.6667 17.2511 11.5746C16.9247 11.4538 16.7614 11.3933 16.6423 11.2743 16.5233 11.1553 16.4629 10.992 16.3421 10.6656L16.25 10.4167Z" stroke="currentColor" stroke-linejoin="round" stroke-width="2"/>
  <path d="M8.75 2.0833L8.6579 2.3323C8.5371 2.6587 8.4767 2.8219 8.3577 2.941 8.2386 3.06 8.0754 3.1204 7.7489 3.2412L7.5 3.3333 7.7489 3.4255C8.0754 3.5462 8.2386 3.6066 8.3577 3.7257 8.4767 3.8448 8.5371 4.008 8.6579 4.3344L8.75 4.5833 8.8421 4.3344C8.9629 4.008 9.0233 3.8448 9.1423 3.7257 9.2614 3.6066 9.4247 3.5462 9.7511 3.4255L10 3.3333 9.7511 3.2412C9.4247 3.1204 9.2614 3.06 9.1423 2.941 9.0233 2.8219 8.9629 2.6587 8.8421 2.3323L8.75 2.0833Z" stroke="currentColor" stroke-linejoin="round" stroke-width="2"/>
</svg>
