<svg xmlns="http://www.w3.org/2000/svg" width="20" height="20" viewBox="0 0 20 20" fill="none">
  <path d="M17.0833 14.1072V8.3333C17.0833 5.1906 17.0833 3.6193 16.107 2.643 15.1308 1.6667 13.5593 1.6667 10.4167 1.6667H9.5833C6.4406 1.6667 4.8693 1.6667 3.893 2.643 2.9167 3.6193 2.9167 5.1906 2.9167 8.3333V16.25" stroke="currentColor" stroke-linecap="round" stroke-width="2"/>
  <path d="M17.0833 14.1667H5C3.8494 14.1667 2.9167 15.0994 2.9167 16.25 2.9167 17.4006 3.8494 18.3333 5 18.3333H17.0833" stroke="currentColor" stroke-linecap="round" stroke-width="2"/>
  <path d="M17.0833 18.3333C15.9328 18.3333 15 17.4006 15 16.25 15 15.0994 15.9328 14.1667 17.0833 14.1667" stroke="currentColor" stroke-linecap="round" stroke-width="2"/>
  <path d="M10.2564 10L9.0392 6.2324C8.9627 5.9955 8.7278 5.8333 8.4615 5.8333 8.1952 5.8333 7.9604 5.9955 7.8839 6.2324L6.6667 10M12.5 5.8333V10M7.1154 8.75H9.8077" stroke="currentColor" stroke-linecap="round" stroke-linejoin="round" stroke-width="2"/>
</svg>
