<svg xmlns="http://www.w3.org/2000/svg" width="20" height="20" viewBox="0 0 20 20" fill="none">
  <path d="M10 3.7499C10 2.5993 9.0672 1.6666 7.9167 1.6666 6.7661 1.6666 5.8333 2.5993 5.8333 3.7499 4.4526 3.7499 3.3333 4.8692 3.3333 6.2499 3.3333 6.7238 3.4652 7.1669 3.6942 7.5445 2.5394 7.7654 1.6667 8.7807 1.6667 9.9999 1.6667 11.2191 2.5394 12.2344 3.6942 12.4553 3.4652 12.8329 3.3333 13.276 3.3333 13.7499 3.3333 15.1307 4.4526 16.2499 5.8333 16.2499 5.8333 17.4005 6.7661 18.3332 7.9167 18.3332 9.0672 18.3332 10 17.4005 10 16.2499" stroke="currentColor" stroke-linecap="round" stroke-linejoin="round" stroke-width="2"/>
  <path d="M10 16.2499C10 17.4005 10.9328 18.3332 12.0833 18.3332 13.2339 18.3332 14.1667 17.4005 14.1667 16.2499 15.5474 16.2499 16.6667 15.1307 16.6667 13.7499 16.6667 13.276 16.5348 12.8329 16.3058 12.4553 17.4606 12.2344 18.3333 11.2191 18.3333 9.9999 18.3333 8.7807 17.4606 7.7654 16.3058 7.5445 16.5348 7.1669 16.6667 6.7238 16.6667 6.2499 16.6667 4.8692 15.5474 3.7499 14.1667 3.7499 14.1667 2.5993 13.2339 1.6666 12.0833 1.6666 10.9328 1.6666 10 2.5993 10 3.7499" stroke="currentColor" stroke-linecap="round" stroke-linejoin="round" stroke-width="2"/>
  <path d="M8.7392 5.834V7.4832M5.8333 8.751H7.5433M12.5192 8.751H14.2292M12.5192 11.2288H14.2292M5.8333 11.2288H7.5433M8.7392 12.5168V14.1659M11.2604 12.5168V14.1659M11.2514 5.834V7.4832M8.3767 12.4737H11.6859C12.1461 12.4737 12.5192 12.1006 12.5192 11.6403V8.3166C12.5192 7.8563 12.1461 7.4832 11.6859 7.4832H8.3767C7.9164 7.4832 7.5433 7.8563 7.5433 8.3166V11.6403C7.5433 12.1006 7.9164 12.4737 8.3767 12.4737Z" stroke="currentColor" stroke-linecap="round" stroke-width="2"/>
</svg>
