<svg xmlns="http://www.w3.org/2000/svg" width="20" height="20" viewBox="0 0 20 20" fill="none">
  <path d="M15.3948 12.9346C15.3996 12.9107 15.4337 12.9107 15.4386 12.9346 15.6918 14.1734 16.6599 15.1415 17.8987 15.3948 17.9227 15.3996 17.9227 15.4337 17.8987 15.4386 16.6599 15.6918 15.6918 16.6599 15.4386 17.8987 15.4337 17.9227 15.3996 17.9227 15.3948 17.8987 15.1415 16.6599 14.1734 15.6918 12.9346 15.4386 12.9107 15.4337 12.9107 15.3996 12.9346 15.3948 14.1734 15.1415 15.1415 14.1734 15.3948 12.9346Z" stroke="currentColor" stroke-linecap="round" stroke-linejoin="round" stroke-width="2"/>
  <path d="M2.5 6.25H16.6667" stroke="currentColor" stroke-linecap="round" stroke-linejoin="round" stroke-width="2"/>
  <path d="M10.4167 17.0833H8.75C5.6073 17.0833 4.036 17.0833 3.0596 16.107 2.0833 15.1308 2.0833 13.5593 2.0833 10.4167V8.75C2.0833 5.6073 2.0833 4.036 3.0596 3.0596 4.036 2.0833 5.6073 2.0833 8.75 2.0833H10.4167C13.5593 2.0833 15.1308 2.0833 16.107 3.0596 17.0833 4.036 17.0833 5.6073 17.0833 8.75V10.4167" stroke="currentColor" stroke-linecap="round" stroke-linejoin="round" stroke-width="2"/>
</svg>
