<svg xmlns="http://www.w3.org/2000/svg" width="20" height="20" viewBox="0 0 20 20" fill="none">
  <path d="M5.8333 3.75C4.4526 3.75 3.3333 4.8693 3.3333 6.25 3.3333 6.7239 3.4652 7.167 3.6942 7.5446 2.5394 7.7655 1.6667 8.7808 1.6667 10 1.6667 11.2192 2.5394 12.2345 3.6942 12.4554M5.8333 3.75C5.8333 2.5994 6.7661 1.6667 7.9167 1.6667 9.0672 1.6667 10 2.5994 10 3.75V16.25C10 17.4006 9.0672 18.3333 7.9167 18.3333 6.7661 18.3333 5.8333 17.4006 5.8333 16.25 4.4526 16.25 3.3333 15.1308 3.3333 13.75 3.3333 13.2761 3.4652 12.833 3.6942 12.4554M5.8333 3.75C5.8333 4.4316 6.1607 5.0367 6.6667 5.4168M3.6942 12.4554C3.9912 11.9657 4.4517 11.586 5 11.3923" stroke="currentColor" stroke-linecap="round" stroke-linejoin="round" stroke-width="2"/>
  <path d="M14.1667 16.2499C15.5474 16.2499 16.6667 15.1306 16.6667 13.7499 16.6667 13.276 16.5348 12.8329 16.3058 12.4553 17.4606 12.2344 18.3333 11.2191 18.3333 9.9999 18.3333 8.7807 17.4606 7.7654 16.3058 7.5445M14.1667 16.2499C14.1667 17.4005 13.2339 18.3332 12.0833 18.3332 10.9328 18.3332 10 17.4005 10 16.2499L10 3.7499C10 2.5993 10.9328 1.6666 12.0833 1.6666 13.2339 1.6666 14.1667 2.5993 14.1667 3.7499 15.5474 3.7499 16.6667 4.8692 16.6667 6.2499 16.6667 6.7238 16.5348 7.1669 16.3058 7.5445M14.1667 16.2499C14.1667 15.5683 13.8393 14.9632 13.3333 14.5831M16.3058 7.5445C16.0087 8.0342 15.5483 8.4138 15 8.6077" stroke="currentColor" stroke-linecap="round" stroke-linejoin="round" stroke-width="2"/>
</svg>
