<svg xmlns="http://www.w3.org/2000/svg" width="20" height="20" viewBox="0 0 20 20" fill="none">
  <path d="M6.25 3.7501C4.8693 3.7501 3.75 4.8694 3.75 6.2501 3.75 6.724 3.8819 7.1671 4.1109 7.5447 2.9561 7.7656 2.0833 8.7809 2.0833 10.0001 2.0833 11.2193 2.9561 12.2347 4.1109 12.4555M6.25 3.7501C6.25 2.5995 7.1827 1.6668 8.3333 1.6668 9.4839 1.6668 10.4167 2.5995 10.4167 3.7501V5.0001M6.25 3.7501C6.25 4.4317 6.5773 5.0368 7.0833 5.4169M4.1109 12.4555C3.8819 12.8332 3.75 13.2763 3.75 13.7501 3.75 15.1308 4.8693 16.2501 6.25 16.2501 6.25 17.4007 7.1827 18.3334 8.3333 18.3334 9.4839 18.3334 10.4167 17.4007 10.4167 16.2501V15.0001M4.1109 12.4555C4.4079 11.9657 4.8684 11.5862 5.4167 11.3923" stroke="currentColor" stroke-linecap="round" stroke-linejoin="round" stroke-width="2"/>
  <path d="M14.5833 7.5H12.9167C12.131 7.5 11.7382 7.5 11.4941 7.7441 11.25 7.9882 11.25 8.381 11.25 9.1667V10.8333C11.25 11.619 11.25 12.0118 11.4941 12.2559 11.7382 12.5 12.131 12.5 12.9167 12.5H14.5833C15.369 12.5 15.7618 12.5 16.0059 12.2559 16.25 12.0118 16.25 11.619 16.25 10.8333V9.1667C16.25 8.381 16.25 7.9882 16.0059 7.7441 15.7618 7.5 15.369 7.5 14.5833 7.5Z" stroke="currentColor" stroke-linecap="round" stroke-linejoin="round" stroke-width="2"/>
  <path d="M12.5 12.5V14.1667M15 12.5V14.1667M12.5 5.8333V7.5M15 5.8333V7.5M11.25 8.75H9.5833M11.25 11.25H9.5833M17.9167 8.75H16.25M17.9167 11.25H16.25" stroke="currentColor" stroke-linecap="round" stroke-linejoin="round" stroke-width="2"/>
</svg>
