<svg xmlns="http://www.w3.org/2000/svg" width="20" height="20" viewBox="0 0 20 20" fill="none">
  <path d="M3.3333 13.7499C3.3333 15.1306 4.4526 16.2499 5.8333 16.2499 5.8333 17.4005 6.7661 18.3332 7.9167 18.3332 9.0672 18.3332 10 17.4005 10 16.2499 10 17.4005 10.9328 18.3332 12.0833 18.3332 13.2339 18.3332 14.1667 17.4004 14.1667 16.2498 15.5474 16.2498 16.6667 15.1305 16.6667 13.7498 16.6667 13.2759 16.5348 12.8328 16.3058 12.4553 17.4606 12.2343 18.3333 11.219 18.3333 9.9998 18.3333 8.7806 17.4606 7.7653 16.3058 7.5444 16.5348 7.1668 16.6667 6.7237 16.6667 6.2498 16.6667 4.8691 15.5474 3.7498 14.1667 3.7498 14.1667 2.5992 13.2339 1.6665 12.0833 1.6665 10.9328 1.6665 10 2.5993 10 3.7499 10 2.5993 9.0672 1.6665 7.9167 1.6665 6.7661 1.6665 5.8333 2.5993 5.8333 3.7499 4.4526 3.7499 3.3333 4.8692 3.3333 6.2499 3.3333 6.7238 3.4652 7.1669 3.6942 7.5445 2.5394 7.7653 1.6667 8.7807 1.6667 9.9999 1.6667 11.2191 2.5394 12.2344 3.6942 12.4553 3.4652 12.8329 3.3333 13.276 3.3333 13.7499Z" stroke="currentColor" stroke-linecap="round" stroke-linejoin="round" stroke-width="2"/>
  <path d="M6.25 12.0833L7.7849 7.4785C7.8636 7.2425 8.0845 7.0832 8.3333 7.0832 8.5822 7.0832 8.8031 7.2425 8.8818 7.4785L10.4167 12.0833M12.9167 7.0832V12.0833M7.0833 10.4166H9.5833" stroke="currentColor" stroke-linecap="round" stroke-linejoin="round" stroke-width="2"/>
</svg>
