<svg xmlns="http://www.w3.org/2000/svg" width="20" height="20" viewBox="0 0 20 20" fill="none">
  <path d="M11.8088 17.4088C15.2947 17.1771 18.0713 14.361 18.2998 10.8258 18.3445 10.1339 18.3445 9.4174 18.2998 8.7256 18.0713 5.1903 15.2947 2.3743 11.8088 2.1426 10.6196 2.0635 9.378 2.0637 8.1912 2.1426 4.7053 2.3743 1.9287 5.1903 1.7002 8.7256 1.6555 9.4174 1.6555 10.1339 1.7002 10.8258 1.7834 12.1133 2.3529 13.3055 3.0233 14.3122 3.4125 15.0169 3.1556 15.8965 2.7502 16.6648 2.4578 17.2188 2.3117 17.4958 2.429 17.6959 2.5464 17.896 2.8086 17.9024 3.3329 17.9152 4.3697 17.9404 5.0689 17.6464 5.6239 17.2372 5.9387 17.0051 6.0961 16.889 6.2045 16.8757 6.313 16.8623 6.5265 16.9503 6.9533 17.1261 7.337 17.2841 7.7825 17.3816 8.1912 17.4088 9.378 17.4877 10.6196 17.4878 11.8088 17.4088Z" stroke="currentColor" stroke-linejoin="round" stroke-width="2"/>
  <path d="M6.25 12.5L7.7849 7.8953C7.8636 7.6592 8.0845 7.5 8.3333 7.5 8.5822 7.5 8.8031 7.6592 8.8818 7.8953L10.4167 12.5M12.9167 7.5V12.5M7.0833 10.8333H9.5833" stroke="currentColor" stroke-linecap="round" stroke-linejoin="round" stroke-width="2"/>
</svg>
