<svg xmlns="http://www.w3.org/2000/svg" width="20" height="20" viewBox="0 0 20 20" fill="none">
  <path d="M15.6903 15.6903C14.7141 16.6667 13.1427 16.6667 10 16.6667 6.8573 16.6667 5.286 16.6667 4.3096 15.6903 3.3333 14.7141 3.3333 13.1427 3.3333 10 3.3333 6.8573 3.3333 5.286 4.3096 4.3096 5.286 3.3333 6.8573 3.3333 10 3.3333 13.1427 3.3333 14.7141 3.3333 15.6903 4.3096 16.6667 5.286 16.6667 6.8573 16.6667 10 16.6667 13.1427 16.6667 14.7141 15.6903 15.6903Z" stroke="currentColor" stroke-linecap="round" stroke-linejoin="round" stroke-width="2"/>
  <path d="M6.6667 1.6667V3.3333M13.3333 1.6667V3.3333M10 1.6667V3.3333M6.6667 16.6667V18.3333M10 16.6667V18.3333M13.3333 16.6667V18.3333M18.3333 13.3333H16.6667M3.3333 6.6667H1.6667M3.3333 13.3333H1.6667M3.3333 10H1.6667M18.3333 6.6667H16.6667M18.3333 10H16.6667" stroke="currentColor" stroke-linecap="round" stroke-linejoin="round" stroke-width="2"/>
  <path d="M9.5668 6.5516C9.7156 6.1495 10.2844 6.1495 10.4332 6.5516L11.1002 8.354C11.1937 8.6069 11.3931 8.8063 11.646 8.8998L13.4484 9.5668C13.8505 9.7156 13.8505 10.2844 13.4484 10.4332L11.646 11.1002C11.3931 11.1937 11.1937 11.3931 11.1002 11.646L10.4332 13.4484C10.2844 13.8505 9.7156 13.8505 9.5668 13.4484L8.8998 11.646C8.8063 11.3931 8.6069 11.1937 8.354 11.1002L6.5516 10.4332C6.1495 10.2844 6.1495 9.7156 6.5516 9.5668L8.354 8.8998C8.6069 8.8063 8.8063 8.6069 8.8998 8.354L9.5668 6.5516Z" stroke="currentColor" stroke-width="2"/>
</svg>
