<svg xmlns="http://www.w3.org/2000/svg" width="20" height="20" viewBox="0 0 20 20" fill="none">
  <path d="M5.4167 1.6667H12.0833" stroke="currentColor" stroke-linecap="round" stroke-linejoin="round" stroke-width="2"/>
  <path d="M14.5833 12.5L14.3684 13.0808C14.0866 13.8425 13.9457 14.2233 13.6678 14.5012 13.39 14.779 13.0092 14.9199 12.2475 15.2018L11.6667 15.4167 12.2475 15.6316C13.0092 15.9134 13.39 16.0543 13.6678 16.3322 13.9457 16.61 14.0866 16.9908 14.3684 17.7525L14.5833 18.3333 14.7982 17.7525C15.0801 16.9908 15.221 16.61 15.4988 16.3322 15.7767 16.0543 16.1575 15.9134 16.9192 15.6316L17.5 15.4167 16.9192 15.2018C16.1575 14.9199 15.7767 14.779 15.4988 14.5012 15.221 14.2233 15.0801 13.8425 14.7982 13.0808L14.5833 12.5Z" stroke="currentColor" stroke-linejoin="round" stroke-width="2"/>
  <path d="M14.5833 9.8348C13.9285 8.1371 12.5538 6.7971 10.8333 6.189V1.6667H6.6667V6.189C4.2392 7.047 2.5 9.3621 2.5 12.0833 2.5 15.5351 5.2982 18.3333 8.75 18.3333 9.6389 18.3333 10.4844 18.1478 11.25 17.8133" stroke="currentColor" stroke-linecap="round" stroke-linejoin="round" stroke-width="2"/>
  <path d="M3.3333 9.1667H14.1667" stroke="currentColor" stroke-linecap="round" stroke-width="2"/>
</svg>
