<svg xmlns="http://www.w3.org/2000/svg" width="20" height="20" viewBox="0 0 20 20" fill="none">
  <path d="M11.25 15C11.25 16.8409 9.7576 18.3333 7.9167 18.3333 6.0757 18.3333 4.5833 16.8409 4.5833 15V1.6667H11.25V8.3333" stroke="currentColor" stroke-linecap="round" stroke-linejoin="round" stroke-width="2"/>
  <path d="M13.3333 8.75L13.1184 9.3308C12.8366 10.0925 12.6957 10.4733 12.4178 10.7512 12.14 11.029 11.7592 11.1699 10.9975 11.4518L10.4167 11.6667 10.9975 11.8816C11.7592 12.1634 12.14 12.3043 12.4178 12.5822 12.6957 12.86 12.8366 13.2408 13.1184 14.0025L13.3333 14.5833 13.5482 14.0025C13.8301 13.2408 13.971 12.86 14.2488 12.5822 14.5267 12.3043 14.9075 12.1634 15.6692 11.8816L16.25 11.6667 15.6692 11.4518C14.9075 11.1699 14.5267 11.029 14.2488 10.7512 13.971 10.4733 13.8301 10.0925 13.5482 9.3308L13.3333 8.75Z" stroke="currentColor" stroke-linejoin="round" stroke-width="2"/>
  <path d="M3.75 1.6667H12.0833" stroke="currentColor" stroke-linecap="round" stroke-linejoin="round" stroke-width="2"/>
  <path d="M4.5833 6.6667H11.25" stroke="currentColor" stroke-linecap="round" stroke-linejoin="round" stroke-width="2"/>
</svg>
