<svg xmlns="http://www.w3.org/2000/svg" width="20" height="20" viewBox="0 0 20 20" fill="none">
  <path d="M12.4998 18.3333H5.3395C4.2315 18.3333 3.3332 17.4351 3.3332 16.327 3.3332 16.0027 3.4118 15.6833 3.5622 15.396L7.9165 7.0833V1.6667H12.0832V7.0833L13.7498 10.2651" stroke="currentColor" stroke-linecap="round" stroke-linejoin="round" stroke-width="2"/>
  <path d="M6.6666 1.6667H13.3333" stroke="currentColor" stroke-linecap="round" stroke-linejoin="round" stroke-width="2"/>
  <path d="M6.6666 9.5833H13.3333" stroke="currentColor" stroke-linecap="round" stroke-linejoin="round" stroke-width="2"/>
  <path d="M15.4166 12.5L15.2017 13.0808C14.9198 13.8425 14.7789 14.2233 14.5011 14.5012 14.2233 14.779 13.8424 14.9199 13.0808 15.2018L12.4999 15.4167 13.0808 15.6316C13.8424 15.9134 14.2233 16.0543 14.5011 16.3322 14.7789 16.61 14.9198 16.9908 15.2017 17.7525L15.4166 18.3333 15.6315 17.7525C15.9133 16.9908 16.0542 16.61 16.3321 16.3322 16.6099 16.0543 16.9908 15.9134 17.7524 15.6316L18.3332 15.4167 17.7524 15.2018C16.9908 14.9199 16.6099 14.779 16.3321 14.5012 16.0542 14.2233 15.9133 13.8425 15.6315 13.0808L15.4166 12.5Z" stroke="currentColor" stroke-linejoin="round" stroke-width="2"/>
</svg>
