<svg xmlns="http://www.w3.org/2000/svg" width="20" height="20" viewBox="0 0 20 20" fill="none">
  <path d="M9.1667 17.5H8.3333C5.1906 17.5 3.6193 17.5 2.643 16.5237 1.6667 15.5474 1.6667 13.976 1.6667 10.8333V8.3333C1.6667 5.1906 1.6667 3.6193 2.643 2.643 3.6193 1.6667 5.1906 1.6667 8.3333 1.6667H10C13.1427 1.6667 14.7141 1.6667 15.6903 2.643 16.6667 3.6193 16.6667 5.1906 16.6667 8.3333V8.75" stroke="currentColor" stroke-linecap="round" stroke-linejoin="round" stroke-width="2"/>
  <path d="M14.5058 12.003C14.6827 11.5546 15.3173 11.5546 15.4943 12.003L15.5248 12.0808C15.9568 13.1761 16.8239 14.0432 17.9193 14.4752L17.997 14.5058C18.4454 14.6827 18.4454 15.3173 17.997 15.4943L17.9193 15.5248C16.8239 15.9568 15.9568 16.8239 15.5248 17.9193L15.4943 17.997C15.3173 18.4454 14.6827 18.4454 14.5058 17.997L14.4752 17.9193C14.0432 16.8239 13.1761 15.9568 12.0808 15.5248L12.003 15.4943C11.5546 15.3173 11.5546 14.6827 12.003 14.5058L12.0808 14.4752C13.1761 14.0432 14.0432 13.1761 14.4752 12.0808L14.5058 12.003Z" stroke="currentColor" stroke-linecap="round" stroke-linejoin="round" stroke-width="2"/>
  <path d="M5.8333 5.8333H12.5M5.8333 9.5833H12.5M5.8333 13.3333H9.1667" stroke="currentColor" stroke-linecap="round" stroke-linejoin="round" stroke-width="2"/>
</svg>
