<svg xmlns="http://www.w3.org/2000/svg" width="20" height="20" viewBox="0 0 20 20" fill="none">
  <path d="M9.1667 16.6667C6.0419 16.6667 4.4795 16.6667 3.3842 15.8709 3.0305 15.6139 2.7194 15.3028 2.4624 14.9491 1.6667 13.8538 1.6667 12.2914 1.6667 9.1667 1.6667 6.0419 1.6667 4.4795 2.4624 3.3842 2.7194 3.0305 3.0305 2.7194 3.3842 2.4624 4.4795 1.6667 6.0419 1.6667 9.1667 1.6667H9.5833C12.3112 1.6667 13.6751 1.6667 14.6771 2.2807 15.2378 2.6242 15.7091 3.0956 16.0527 3.6563 16.6667 4.6582 16.6667 6.0221 16.6667 8.75" stroke="currentColor" stroke-linecap="round" stroke-linejoin="round" stroke-width="2"/>
  <path d="M14.5058 12.003C14.6827 11.5546 15.3173 11.5546 15.4943 12.003L15.5248 12.0808C15.9568 13.1761 16.8239 14.0432 17.9193 14.4752L17.997 14.5058C18.4454 14.6827 18.4454 15.3173 17.997 15.4943L17.9193 15.5248C16.8239 15.9568 15.9568 16.8239 15.5248 17.9193L15.4943 17.997C15.3173 18.4454 14.6827 18.4454 14.5058 17.997L14.4752 17.9193C14.0432 16.8239 13.1761 15.9568 12.0808 15.5248L12.003 15.4943C11.5546 15.3173 11.5546 14.6827 12.003 14.5058L12.0808 14.4752C13.1761 14.0432 14.0432 13.1761 14.4752 12.0808L14.5058 12.003Z" stroke="currentColor" stroke-linecap="round" stroke-linejoin="round" stroke-width="2"/>
  <path d="M9.1667 5.8333H5.8333V6.6667M9.1667 5.8333H12.5V6.6667M9.1667 5.8333V12.5M9.1667 12.5H8.3333M9.1667 12.5H10" stroke="currentColor" stroke-linecap="round" stroke-linejoin="round" stroke-width="2"/>
</svg>
