<svg xmlns="http://www.w3.org/2000/svg" width="20" height="20" viewBox="0 0 20 20" fill="none">
  <path d="M8.345 1.6667C5.1968 1.6667 3.6227 1.6667 2.6447 2.643 1.6667 3.6193 1.6667 5.1906 1.6667 8.3333 1.6667 11.476 1.6667 13.0474 2.6447 14.0237 3.6227 15 5.1968 15 8.345 15H11.6842C14.8324 15 16.4065 15 17.3845 14.0237 18.0592 13.3502 18.2684 12.3936 18.3333 10.8333" stroke="currentColor" stroke-linecap="round" stroke-width="2"/>
  <path d="M10 15V18.3333" stroke="currentColor" stroke-width="2"/>
  <path d="M6.6667 18.3333H13.3333" stroke="currentColor" stroke-linecap="round" stroke-width="2"/>
  <path d="M9.1667 12.5H10.8333" stroke="currentColor" stroke-linecap="round" stroke-linejoin="round" stroke-width="2"/>
  <path d="M15 3.3333H13.3333C12.5477 3.3333 12.1548 3.3333 11.9108 3.5774 11.6667 3.8215 11.6667 4.2143 11.6667 5V6.6667C11.6667 7.4523 11.6667 7.8452 11.9108 8.0893 12.1548 8.3333 12.5477 8.3333 13.3333 8.3333H15C15.7857 8.3333 16.1785 8.3333 16.4226 8.0893 16.6667 7.8452 16.6667 7.4523 16.6667 6.6667V5C16.6667 4.2143 16.6667 3.8215 16.4226 3.5774 16.1785 3.3333 15.7857 3.3333 15 3.3333Z" stroke="currentColor" stroke-linecap="round" stroke-linejoin="round" stroke-width="2"/>
  <path d="M12.9167 8.3333V10M15.4167 8.3333V10M12.9167 1.6667V3.3333M15.4167 1.6667V3.3333M11.6667 4.5833H10M11.6667 7.0833H10M18.3333 4.5833H16.6667M18.3333 7.0833H16.6667" stroke="currentColor" stroke-linecap="round" stroke-linejoin="round" stroke-width="2"/>
</svg>
