<svg xmlns="http://www.w3.org/2000/svg" width="20" height="20" viewBox="0 0 20 20" fill="none">
  <path d="M6.2426 11.6679C2.5008 9.6679 2.5008 8.6679 2.5008 8.3346 2.5008 8.0012 2.5008 7.0012 6.2426 5.0012M6.2426 11.6679C2.5008 13.6679 2.5 14.3346 2.5 15.0013M6.2426 11.6679C9.9837 9.6683 9.9837 8.6683 9.9837 8.3347 9.9837 8.0012 9.9837 7.0008 6.2426 5.0012M6.2426 5.0012C9.9844 3.0012 9.9844 2.3346 9.9844 1.6679M6.2426 5.0012L4.4232 3.9548C2.5005 2.7358 2.5 2.2018 2.5 1.6679" stroke="currentColor" stroke-linecap="round" stroke-linejoin="round" stroke-width="2"/>
  <path d="M12.0099 10.0004V11.6496M9.1041 12.9174H10.814M15.7899 12.9174H17.4999M15.7899 15.3951H17.4999M9.1041 15.3951H10.814M12.0099 16.6831V18.3323M14.5311 16.6831V18.3323M14.5222 10.0004V11.6496M11.6473 16.64H14.9566C15.4168 16.64 15.7899 16.2669 15.7899 15.8067V12.4829C15.7899 12.0227 15.4168 11.6496 14.9566 11.6496H11.6473C11.1872 11.6496 10.814 12.0227 10.814 12.4829V15.8067C10.814 16.2669 11.1872 16.64 11.6473 16.64Z" stroke="currentColor" stroke-linecap="round" stroke-width="2"/>
</svg>
