<svg xmlns="http://www.w3.org/2000/svg" width="20" height="20" viewBox="0 0 20 20" fill="none">
  <path d="M5.4483 1.9348C5.5805 1.5773 6.0861 1.5773 6.2184 1.9348L6.8113 3.5369C6.8944 3.7617 7.0716 3.9389 7.2964 4.0221L8.8986 4.6149C9.256 4.7472 9.256 5.2528 8.8986 5.3851L7.2964 5.9779C7.0716 6.0611 6.8944 6.2383 6.8113 6.4631L6.2184 8.0652C6.0861 8.4227 5.5805 8.4227 5.4483 8.0652L4.8554 6.4631C4.7722 6.2383 4.595 6.0611 4.3703 5.9779L2.7681 5.3851C2.4106 5.2528 2.4106 4.7472 2.7681 4.6149L4.3703 4.0221C4.595 3.9389 4.7722 3.7617 4.8554 3.5369L5.4483 1.9348Z" stroke="currentColor" stroke-width="2"/>
  <path d="M12.0033 8.0345L13.2391 9.2703M5 18.3333H6.248C7.2583 18.3333 7.7635 18.3333 8.2177 18.1452 8.6719 17.957 9.0292 17.5998 9.7436 16.8854L16.5347 10.0943C16.984 9.645 17.2086 9.4204 17.3287 9.1781 17.5571 8.7171 17.5571 8.1758 17.3287 7.7148 17.2086 7.4725 16.984 7.2478 16.5347 6.7986 16.0855 6.3494 15.8609 6.1248 15.6186 6.0047 15.1576 5.7762 14.6163 5.7762 14.1553 6.0047 13.9129 6.1248 13.6883 6.3494 13.2391 6.7986L6.4479 13.5898C5.7335 14.3042 5.3763 14.6614 5.1882 15.1157 5 15.5698 5 16.075 5 17.0853V18.3333Z" stroke="currentColor" stroke-linecap="round" stroke-linejoin="round" stroke-width="2"/>
</svg>
