<svg xmlns="http://www.w3.org/2000/svg" width="20" height="20" viewBox="0 0 20 20" fill="none">
  <path d="M8.1149 8.9835L4.8724 12.2978C3.8977 13.2942 3.4103 13.7923 3.3439 14.4002 3.3298 14.5286 3.3298 14.6583 3.3439 14.7867 3.4103 15.3944 3.8977 15.8926 4.8724 16.889L4.9967 17.0159C5.5171 17.5479 5.7773 17.8138 6.0887 17.9926 6.2697 18.0964 6.4623 18.1778 6.6625 18.235 7.0069 18.3333 7.3762 18.3333 8.1149 18.3333 8.8537 18.3333 9.223 18.3333 9.5673 18.235 9.7675 18.1778 9.9602 18.0964 10.1412 17.9926 10.4526 17.8138 10.7128 17.5479 11.2332 17.0159L13.6032 14.5934M8.1149 8.9835L11.0999 5.9359C12.2554 4.7563 12.8331 4.1665 13.5522 4.1667 14.2713 4.1669 14.8488 4.757 16.0035 5.9374L16.6227 6.5704C17.7632 7.7362 18.3335 8.3191 18.3333 9.0418 18.3331 9.7644 17.7625 10.3469 16.6213 11.512L13.6032 14.5934M8.1149 8.9835L13.6032 14.5934" stroke="currentColor" stroke-linecap="round" stroke-linejoin="round" stroke-width="2"/>
  <path d="M4.5833 1.6667L4.7983 2.2475C5.0801 3.0092 5.221 3.39 5.4988 3.6678 5.7767 3.9456 6.1575 4.0866 6.9191 4.3684L7.5 4.5833 6.9191 4.7983C6.1575 5.0801 5.7767 5.221 5.4988 5.4988 5.221 5.7767 5.0801 6.1575 4.7983 6.9191L4.5833 7.5 4.3684 6.9191C4.0866 6.1575 3.9456 5.7767 3.6678 5.4988 3.39 5.221 3.0092 5.0801 2.2475 4.7983L1.6667 4.5833 2.2475 4.3684C3.0092 4.0866 3.39 3.9456 3.6678 3.6678 3.9456 3.39 4.0866 3.0092 4.3684 2.2475L4.5833 1.6667Z" stroke="currentColor" stroke-linejoin="round" stroke-width="2"/>
</svg>
