<svg xmlns="http://www.w3.org/2000/svg" width="20" height="20" viewBox="0 0 20 20" fill="none">
  <path d="M15.8333 10.0008V8.8815C15.8333 8.2003 15.8333 7.8597 15.7065 7.5534 15.5796 7.2471 15.3388 7.0062 14.857 6.5245L10.9099 2.5774C10.4942 2.1616 10.2863 1.9538 10.0288 1.8306 9.9752 1.805 9.9203 1.7823 9.8643 1.7625 9.5951 1.6675 9.3012 1.6675 8.7132 1.6675 6.009 1.6675 4.6569 1.6675 3.7411 2.4059 3.5561 2.5551 3.3876 2.7236 3.2384 2.9086 2.5 3.8244 2.5 5.1765 2.5 7.8807V11.6675C2.5 14.8102 2.5 16.3815 3.4763 17.3578 4.4526 18.3342 6.024 18.3342 9.1667 18.3342H10.8621M10 2.0842V2.5008C10 4.8578 10 6.0364 10.7323 6.7686 11.4645 7.5008 12.643 7.5008 15 7.5008H15.4167" stroke="currentColor" stroke-linecap="round" stroke-linejoin="round" stroke-width="2"/>
  <path d="M14.5833 12.5008L14.7982 13.0817C15.0801 13.8433 15.221 14.2242 15.4988 14.502 15.7767 14.7798 16.1575 14.9207 16.9192 15.2026L17.5 15.4175 16.9192 15.6324C16.1575 15.9143 15.7767 16.0552 15.4988 16.333 15.221 16.6108 15.0801 16.9917 14.7982 17.7533L14.5833 18.3342 14.3684 17.7533C14.0866 16.9917 13.9457 16.6108 13.6678 16.333 13.39 16.0552 13.0092 15.9143 12.2475 15.6324L11.6667 15.4175 12.2475 15.2026C13.0092 14.9207 13.39 14.7798 13.6678 14.502 13.9457 14.2242 14.0866 13.8433 14.3684 13.0817L14.5833 12.5008Z" stroke="currentColor" stroke-linejoin="round" stroke-width="2"/>
</svg>
