<svg xmlns="http://www.w3.org/2000/svg" width="20" height="20" viewBox="0 0 20 20" fill="none">
  <path d="M5.8333 5.0007H13.9583C15.7139 5.0007 16.5917 5.0007 17.2222 5.422 17.4952 5.6044 17.7296 5.8388 17.912 6.1118 18.3333 6.7423 18.3333 7.6201 18.3333 9.3758 18.3333 12.3018 18.3333 13.7647 17.6311 14.8157 17.4792 15.0431 17.3055 15.2545 17.1129 15.447M2.8871 15.447C1.6667 14.2267 1.6667 12.2624 1.6667 8.3341V5.7876C1.6667 4.2739 1.6667 3.517 1.9836 2.9491 2.2095 2.5443 2.5436 2.2102 2.9484 1.9843 3.5163 1.6674 4.2732 1.6674 5.7869 1.6674 6.7567 1.6674 7.2416 1.6674 7.6661 1.8266 8.6352 2.19 9.0348 3.0704 9.4722 3.945L10 5.0007" stroke="currentColor" stroke-linecap="round" stroke-width="2"/>
  <path d="M8.7082 10.0008V11.6499M5.8024 12.9177H7.5124M12.4883 12.9177H14.1983M12.4883 15.3954H14.1983M5.8024 15.3954H7.5124M8.7082 16.6834V18.3326M11.2295 16.6834V18.3326M11.2205 10.0008V11.6499M8.3458 16.6403H11.655C12.1152 16.6403 12.4883 16.2673 12.4883 15.807V12.4833C12.4883 12.023 12.1152 11.6499 11.655 11.6499H8.3458C7.8855 11.6499 7.5124 12.023 7.5124 12.4833V15.807C7.5124 16.2673 7.8855 16.6403 8.3458 16.6403Z" stroke="currentColor" stroke-linecap="round" stroke-width="2"/>
</svg>
