<svg xmlns="http://www.w3.org/2000/svg" width="20" height="20" viewBox="0 0 20 20" fill="none">
  <path d="M5.8333 5H13.9583C15.7139 5 16.5917 5 17.2222 5.4213 17.4952 5.6037 17.7296 5.8381 17.912 6.1111 18.3333 6.7416 18.3333 7.6194 18.3333 9.375 18.3333 12.301 18.3333 13.7639 17.6311 14.8149 17.4792 15.0423 17.3055 15.2538 17.1129 15.4462M2.8871 15.4462C1.6667 14.2259 1.6667 12.2617 1.6667 8.3333V5.7869C1.6667 4.2732 1.6667 3.5163 1.9836 2.9484 2.2095 2.5436 2.5436 2.2095 2.9484 1.9836 3.5163 1.6667 4.2732 1.6667 5.7869 1.6667 6.7567 1.6667 7.2416 1.6667 7.6661 1.8258 8.6352 2.1893 9.0348 3.0697 9.4722 3.9443L10 5" stroke="currentColor" stroke-linecap="round" stroke-width="2"/>
  <path d="M15.2083 17.7083L13.3333 15.8333 13.3333 13.3333M15.2083 17.0833C14.8632 17.0833 14.5833 17.3632 14.5833 17.7083 14.5833 18.0535 14.8632 18.3333 15.2083 18.3333 15.5535 18.3333 15.8333 18.0535 15.8333 17.7083 15.8333 17.3632 15.5535 17.0833 15.2083 17.0833Z" stroke="currentColor" stroke-linecap="round" stroke-linejoin="round" stroke-width="2"/>
  <path d="M4.7917 17.7083L6.6667 15.8333 6.6667 13.3333M4.7917 17.0833C5.1368 17.0833 5.4167 17.3632 5.4167 17.7083 5.4167 18.0535 5.1368 18.3333 4.7917 18.3333 4.4465 18.3333 4.1667 18.0535 4.1667 17.7083 4.1667 17.3632 4.4465 17.0833 4.7917 17.0833Z" stroke="currentColor" stroke-linecap="round" stroke-linejoin="round" stroke-width="2"/>
  <path d="M10 17.7083L10 13.3333M10 17.0833C9.6548 17.0833 9.375 17.3632 9.375 17.7083 9.375 18.0535 9.6548 18.3333 10 18.3333 10.3452 18.3333 10.625 18.0535 10.625 17.7083 10.625 17.3632 10.3452 17.0833 10 17.0833Z" stroke="currentColor" stroke-linecap="round" stroke-linejoin="round" stroke-width="2"/>
</svg>
