<svg xmlns="http://www.w3.org/2000/svg" width="20" height="20" viewBox="0 0 20 20" fill="none">
  <path d="M5.0016 5.8333C4.272 5.9521 3.7349 6.1705 3.2995 6.5723 2.3452 7.4527 2.2119 8.9073 1.9455 11.8164L1.6731 14.7894C1.5698 16.2541 2.7155 17.5 4.1658 17.5H4.7881C5.8099 17.5 6.7288 16.8701 7.1084 15.9094L7.727 14.3434C7.9299 13.8297 8.0314 13.5728 8.243 13.4278 8.4547 13.2828 8.728 13.2828 9.2746 13.2828H10.7254C11.272 13.2828 11.5453 13.2828 11.757 13.4278 11.9686 13.5728 12.0701 13.8297 12.273 14.3434L12.8917 15.9094C13.2712 16.8701 14.1901 17.5 15.2119 17.5H15.8342C17.2845 17.5 18.4302 16.2541 18.3268 14.7894L18.0571 11.8212C17.7925 8.91 17.6602 7.4543 16.7057 6.5731 16.2701 6.1708 15.7324 5.9522 15.002 5.8333" stroke="currentColor" stroke-linecap="round" stroke-linejoin="round" stroke-width="2"/>
  <path d="M6.1458 9.7917H6.0417M6.25 9.7917C6.25 9.9068 6.1567 10 6.0417 10 5.9266 10 5.8333 9.9068 5.8333 9.7917 5.8333 9.6766 5.9266 9.5833 6.0417 9.5833 6.1567 9.5833 6.25 9.6766 6.25 9.7917Z" stroke="currentColor" stroke-linecap="round" stroke-linejoin="round" stroke-width="2"/>
  <path d="M14.0625 9.7917H13.9583M14.1667 9.7917C14.1667 9.9068 14.0734 10 13.9583 10 13.8432 10 13.75 9.9068 13.75 9.7917 13.75 9.6766 13.8432 9.5833 13.9583 9.5833 14.0734 9.5833 14.1667 9.6766 14.1667 9.7917Z" stroke="currentColor" stroke-linecap="round" stroke-linejoin="round" stroke-width="2"/>
  <path d="M9.9781 2.5179C9.9829 2.494 10.0171 2.494 10.0219 2.5179 10.2752 3.7567 11.2432 4.7249 12.4821 4.9781 12.506 4.983 12.506 5.0171 12.4821 5.0219 11.2432 5.2751 10.2752 6.2433 10.0219 7.4821 10.0171 7.506 9.9829 7.506 9.9781 7.4821 9.7248 6.2433 8.7568 5.2751 7.5179 5.0219 7.494 5.0171 7.494 4.983 7.5179 4.9781 8.7568 4.7249 9.7248 3.7567 9.9781 2.5179Z" stroke="currentColor" stroke-linecap="round" stroke-linejoin="round" stroke-width="2"/>
</svg>
