<svg xmlns="http://www.w3.org/2000/svg" width="20" height="20" viewBox="0 0 20 20" fill="none">
  <path d="M8.3333 5C5.1906 5 3.6193 5 2.643 5.9763 1.6667 6.9526 1.6667 8.524 1.6667 11.6667 1.6667 14.8093 1.6667 16.3808 2.643 17.357 3.6193 18.3333 5.1906 18.3333 8.3333 18.3333H11.6667C14.8093 18.3333 16.3808 18.3333 17.357 17.357 18.3333 16.3808 18.3333 14.8093 18.3333 11.6667 18.3333 10.6918 18.3333 9.8683 18.3042 9.1667" stroke="currentColor" stroke-linecap="round" stroke-linejoin="round" stroke-width="2"/>
  <path d="M15 1.6667L15.2457 2.3305C15.5678 3.201 15.7288 3.6362 16.0463 3.9537 16.3638 4.2712 16.799 4.4323 17.6695 4.7544L18.3333 5 17.6695 5.2456C16.799 5.5677 16.3638 5.7288 16.0463 6.0463 15.7288 6.3638 15.5678 6.799 15.2457 7.6695L15 8.3333 14.7543 7.6695C14.4322 6.799 14.2712 6.3638 13.9537 6.0463 13.6362 5.7288 13.201 5.5677 12.3305 5.2456L11.6667 5 12.3305 4.7544C13.201 4.4323 13.6362 4.2712 13.9537 3.9537 14.2712 3.6362 14.4322 3.201 14.7543 2.3305L15 1.6667Z" stroke="currentColor" stroke-linejoin="round" stroke-width="2"/>
</svg>
