<svg xmlns="http://www.w3.org/2000/svg" width="20" height="20" viewBox="0 0 20 20" fill="none">
  <path d="M15.8333 8.0172C15.8333 10.1666 14.7752 11.821 13.1653 12.9098 12.7903 13.1633 12.6028 13.2902 12.5102 13.4343 12.4177 13.5785 12.3861 13.7678 12.323 14.1464L12.2739 14.4407C12.1631 15.1058 12.1077 15.4383 11.8745 15.6358 11.6414 15.8333 11.3042 15.8333 10.6299 15.8333H8.4537C7.7794 15.8333 7.4422 15.8333 7.2091 15.6358 6.976 15.4383 6.9206 15.1058 6.8097 14.4407L6.7607 14.1464C6.6978 13.7691 6.6663 13.5804 6.5747 13.4369 6.4831 13.2934 6.2952 13.165 5.9194 12.9081 4.3266 11.8193 3.3333 10.1655 3.3333 8.0172 3.3333 4.5099 6.1315 1.6667 9.5833 1.6667 10.0114 1.6667 10.4294 1.7104 10.8333 1.7937" stroke="currentColor" stroke-linecap="round" stroke-linejoin="round" stroke-width="2"/>
  <path d="M13.75 1.6667L13.9649 2.2475C14.2468 3.0092 14.3877 3.39 14.6655 3.6678 14.9433 3.9456 15.3242 4.0866 16.0858 4.3684L16.6667 4.5833 16.0858 4.7983C15.3242 5.0801 14.9433 5.221 14.6655 5.4988 14.3877 5.7767 14.2468 6.1575 13.9649 6.9191L13.75 7.5 13.5351 6.9191C13.2533 6.1575 13.1123 5.7767 12.8345 5.4988 12.5567 5.221 12.1758 5.0801 11.4142 4.7983L10.8333 4.5833 11.4142 4.3684C12.1758 4.0866 12.5567 3.9456 12.8345 3.6678 13.1123 3.39 13.2533 3.0092 13.5351 2.2475L13.75 1.6667Z" stroke="currentColor" stroke-linejoin="round" stroke-width="2"/>
  <path d="M11.25 15.8333V16.6667C11.25 17.4523 11.25 17.8452 11.0059 18.0892 10.7618 18.3333 10.369 18.3333 9.5833 18.3333 8.7977 18.3333 8.4048 18.3333 8.1607 18.0892 7.9167 17.8452 7.9167 17.4523 7.9167 16.6667V15.8333" stroke="currentColor" stroke-linejoin="round" stroke-width="2"/>
</svg>
