<svg xmlns="http://www.w3.org/2000/svg" width="20" height="20" viewBox="0 0 20 20" fill="none">
  <circle cx="5.833333333333334" cy="6.666666666666667" r="1.25" stroke="currentColor" stroke-linecap="round" stroke-linejoin="round" stroke-width="2"/>
  <path d="M17.4981 9.1667C17.5 9.5584 17.5 9.9744 17.5 10.4167 17.5 14.1486 17.5 16.0146 16.3407 17.174 15.1813 18.3333 13.3153 18.3333 9.5833 18.3333 5.8514 18.3333 3.9854 18.3333 2.826 17.174 1.6667 16.0146 1.6667 14.1486 1.6667 10.4167 1.6667 6.6847 1.6667 4.8187 2.826 3.6594 3.9854 2.5 5.8514 2.5 9.5833 2.5 10.0256 2.5 10.4416 2.5 10.8333 2.5019" stroke="currentColor" stroke-linecap="round" stroke-width="2"/>
  <path d="M15.4167 1.6667L15.6316 2.2475C15.9134 3.0092 16.0543 3.39 16.3322 3.6678 16.61 3.9456 16.9908 4.0866 17.7525 4.3684L18.3333 4.5833 17.7525 4.7983C16.9908 5.0801 16.61 5.221 16.3322 5.4988 16.0543 5.7767 15.9134 6.1575 15.6316 6.9191L15.4167 7.5 15.2018 6.9191C14.9199 6.1575 14.779 5.7767 14.5012 5.4988 14.2233 5.221 13.8425 5.0801 13.0808 4.7983L12.5 4.5833 13.0808 4.3684C13.8425 4.0866 14.2233 3.9456 14.5012 3.6678 14.779 3.39 14.9199 3.0092 15.2018 2.2475L15.4167 1.6667Z" stroke="currentColor" stroke-linejoin="round" stroke-width="2"/>
  <path d="M3.75 17.9166C7.3937 13.5625 11.4784 7.82 17.4979 11.702" stroke="currentColor" stroke-width="2"/>
</svg>
