<svg xmlns="http://www.w3.org/2000/svg" width="20" height="20" viewBox="0 0 20 20" fill="none">
  <path d="M9.1667 1.6667C5.4848 1.6667 2.5 4.6212 2.5 8.2657 2.5 9.5098 2.8478 10.6735 3.4524 11.6667" stroke="currentColor" stroke-linecap="round" stroke-width="2"/>
  <path d="M14.1667 4.1667H12.5C11.7143 4.1667 11.3215 4.1667 11.0774 4.4107 10.8333 4.6548 10.8333 5.0477 10.8333 5.8333V7.5C10.8333 8.2857 10.8333 8.6785 11.0774 8.9226 11.3215 9.1667 11.7143 9.1667 12.5 9.1667H14.1667C14.9523 9.1667 15.3452 9.1667 15.5893 8.9226 15.8333 8.6785 15.8333 8.2857 15.8333 7.5V5.8333C15.8333 5.0477 15.8333 4.6548 15.5893 4.4107 15.3452 4.1667 14.9523 4.1667 14.1667 4.1667Z" stroke="currentColor" stroke-linecap="round" stroke-linejoin="round" stroke-width="2"/>
  <path d="M12.0833 9.1667V10.8333M14.5833 9.1667V10.8333M12.0833 2.5V4.1667M14.5833 2.5V4.1667M10.8333 5.4167H9.1667M10.8333 7.9167H9.1667M17.5 5.4167H15.8333M17.5 7.9167H15.8333" stroke="currentColor" stroke-linecap="round" stroke-linejoin="round" stroke-width="2"/>
  <path d="M5.3191 14.2485C5.2425 14.018 5.2042 13.9027 5.2087 13.8094 5.2181 13.6119 5.3426 13.4385 5.5263 13.3671 5.6132 13.3333 5.7342 13.3333 5.9763 13.3333H12.357C12.5992 13.3333 12.7202 13.3333 12.807 13.3671 12.9908 13.4385 13.1153 13.6119 13.1247 13.8094 13.1291 13.9027 13.0908 14.018 13.0143 14.2485 12.8727 14.6745 12.802 14.8876 12.6929 15.06 12.4643 15.4213 12.106 15.6806 11.6922 15.784 11.4946 15.8333 11.2708 15.8333 10.8234 15.8333H7.5099C7.0625 15.8333 6.8388 15.8333 6.6412 15.784 6.2274 15.6806 5.869 15.4213 5.6404 15.06 5.5313 14.8876 5.4606 14.6745 5.3191 14.2485Z" stroke="currentColor" stroke-width="2"/>
  <path d="M11.6667 15.8333L11.5589 16.3722C11.4411 16.9614 11.3822 17.256 11.2501 17.4888 11.046 17.8488 10.7152 18.1199 10.3222 18.2495 10.068 18.3333 9.7676 18.3333 9.1667 18.3333 8.5658 18.3333 8.2653 18.3333 8.0112 18.2495 7.6181 18.1199 7.2874 17.8488 7.0832 17.4888 6.9512 17.256 6.8923 16.9614 6.7744 16.3722L6.6667 15.8333" stroke="currentColor" stroke-width="2"/>
</svg>
