<svg xmlns="http://www.w3.org/2000/svg" width="20" height="20" viewBox="0 0 20 20" fill="none">
  <path d="M3.3272 12.4992V5.8042C3.3272 4.2262 3.3272 3.4372 3.8135 2.9469 4.0846 2.6736 4.4479 2.5527 4.9876 2.4992H9.1387" stroke="currentColor" stroke-linecap="round" stroke-linejoin="round" stroke-width="2"/>
  <path d="M2.9101 13.3453L3.3434 12.4992H16.5707L17.0277 13.3453C18.2256 15.5633 18.524 16.6722 18.0686 17.5024 17.6133 18.3325 16.4061 18.3325 13.9917 18.3325H5.9462C3.5317 18.3325 2.3245 18.3325 1.8692 17.5024 1.4139 16.6722 1.7122 15.5633 2.9101 13.3453Z" stroke="currentColor" stroke-linecap="round" stroke-linejoin="round" stroke-width="2"/>
  <path d="M12.8639 1.6675V3.3167M9.9689 4.5845H11.6725M16.6298 4.5845H18.3334M16.6298 7.0621H18.3334M9.9689 7.0621H11.6725M12.8639 8.3502V9.9993M15.3757 8.3502V9.9993M15.3668 1.6675V3.3167M12.5028 8.3071H15.7996C16.2581 8.3071 16.6298 7.934 16.6298 7.4738V4.15C16.6298 3.6898 16.2581 3.3167 15.7996 3.3167H12.5028C12.0442 3.3167 11.6725 3.6898 11.6725 4.15V7.4738C11.6725 7.934 12.0442 8.3071 12.5028 8.3071Z" stroke="currentColor" stroke-linecap="round" stroke-width="2"/>
</svg>
