<svg xmlns="http://www.w3.org/2000/svg" width="20" height="20" viewBox="0 0 20 20" fill="none">
  <path d="M10 12.9167L10 17.0833" stroke="currentColor" stroke-linecap="round" stroke-width="2"/>
  <path d="M4.9838 2.7379C3.5732 2.4693 2.868 2.335 2.2673 2.8497 1.6667 3.3644 1.6667 4.2002 1.6667 5.8718V11.8792C1.6667 13.4076 1.6667 14.1718 2.0522 14.6489 2.4377 15.126 3.2864 15.2876 4.9838 15.6108 6.4969 15.8989 7.6779 16.3579 8.5327 16.8193 9.3737 17.2731 9.7942 17.5 10 17.5 10.2058 17.5 10.6263 17.2731 11.4673 16.8193 12.3222 16.3579 13.5031 15.8989 15.0162 15.6108 16.7137 15.2876 17.5623 15.126 17.9478 14.6489 18.3333 14.1718 18.3333 13.4076 18.3333 11.8792V5.8718C18.3333 4.2002 18.3333 3.3644 17.7327 2.8497 17.132 2.335 16.4268 2.4693 15.0162 2.7379" stroke="currentColor" stroke-linecap="round" stroke-linejoin="round" stroke-width="2"/>
  <path d="M7.7441 8.9226L8.186 8.4807 8.186 8.4807 7.7441 8.9226ZM12.2559 8.9226L11.814 8.4807 11.814 8.4807 12.2559 8.9226ZM12.2559 4.4107L11.814 4.8527 11.814 4.8527 12.2559 4.4107ZM9.375 9.1667C9.375 8.8215 9.0952 8.5417 8.75 8.5417 8.4048 8.5417 8.125 8.8215 8.125 9.1667H9.375ZM8.125 10.8333C8.125 11.1785 8.4048 11.4583 8.75 11.4583 9.0952 11.4583 9.375 11.1785 9.375 10.8333H8.125ZM11.875 9.1667C11.875 8.8215 11.5952 8.5417 11.25 8.5417 10.9048 8.5417 10.625 8.8215 10.625 9.1667H11.875ZM10.625 10.8333C10.625 11.1785 10.9048 11.4583 11.25 11.4583 11.5952 11.4583 11.875 11.1785 11.875 10.8333H10.625ZM9.375 2.5C9.375 2.1548 9.0952 1.875 8.75 1.875 8.4048 1.875 8.125 2.1548 8.125 2.5H9.375ZM8.125 4.1667C8.125 4.5118 8.4048 4.7917 8.75 4.7917 9.0952 4.7917 9.375 4.5118 9.375 4.1667H8.125ZM11.875 2.5C11.875 2.1548 11.5952 1.875 11.25 1.875 10.9048 1.875 10.625 2.1548 10.625 2.5H11.875ZM10.625 4.1667C10.625 4.5118 10.9048 4.7917 11.25 4.7917 11.5952 4.7917 11.875 4.5118 11.875 4.1667H10.625ZM7.5 6.0417C7.8452 6.0417 8.125 5.7618 8.125 5.4167 8.125 5.0715 7.8452 4.7917 7.5 4.7917V6.0417ZM5.8333 4.7917C5.4882 4.7917 5.2083 5.0715 5.2083 5.4167 5.2083 5.7618 5.4882 6.0417 5.8333 6.0417V4.7917ZM7.5 8.5417C7.8452 8.5417 8.125 8.2618 8.125 7.9167 8.125 7.5715 7.8452 7.2917 7.5 7.2917V8.5417ZM5.8333 7.2917C5.4882 7.2917 5.2083 7.5715 5.2083 7.9167 5.2083 8.2618 5.4882 8.5417 5.8333 8.5417V7.2917ZM14.1667 6.0417C14.5118 6.0417 14.7917 5.7618 14.7917 5.4167 14.7917 5.0715 14.5118 4.7917 14.1667 4.7917V6.0417ZM12.5 4.7917C12.1548 4.7917 11.875 5.0715 11.875 5.4167 11.875 5.7618 12.1548 6.0417 12.5 6.0417V4.7917ZM14.1667 8.5417C14.5118 8.5417 14.7917 8.2618 14.7917 7.9167 14.7917 7.5715 14.5118 7.2917 14.1667 7.2917V8.5417ZM12.5 7.2917C12.1548 7.2917 11.875 7.5715 11.875 7.9167 11.875 8.2618 12.1548 8.5417 12.5 8.5417V7.2917ZM9.1667 4.7917H10.8333V3.5417H9.1667V4.7917ZM11.875 5.8333V7.5H13.125V5.8333H11.875ZM10.8333 8.5417H9.1667V9.7917H10.8333V8.5417ZM8.125 7.5V5.8333H6.875V7.5H8.125ZM9.1667 8.5417C8.7562 8.5417 8.5112 8.5403 8.3356 8.5168 8.2551 8.5059 8.2148 8.4932 8.1966 8.4857 8.1924 8.484 8.1897 8.4826 8.1881 8.4818 8.1865 8.4809 8.1858 8.4805 8.1857 8.4804 8.1856 8.4804 8.1858 8.4805 8.1861 8.4808 8.1864 8.481 8.1864 8.481 8.186 8.4807L7.3021 9.3645C7.5597 9.6221 7.8728 9.7157 8.169 9.7556 8.4473 9.793 8.7915 9.7917 9.1667 9.7917V8.5417ZM6.875 7.5C6.875 7.8752 6.8737 8.2194 6.9111 8.4977 6.9509 8.7939 7.0446 9.107 7.3021 9.3645L8.186 8.4807C8.1856 8.4802 8.1857 8.4802 8.1859 8.4805 8.1861 8.4808 8.1863 8.481 8.1862 8.481 8.1862 8.4809 8.1857 8.4802 8.1849 8.4786 8.184 8.477 8.1827 8.4743 8.181 8.47 8.1735 8.4519 8.1608 8.4116 8.1499 8.3311 8.1263 8.1555 8.125 7.9105 8.125 7.5H6.875ZM11.875 7.5C11.875 7.9105 11.8737 8.1555 11.8501 8.3311 11.8393 8.4116 11.8265 8.4519 11.819 8.47 11.8173 8.4743 11.8159 8.477 11.8151 8.4786 11.8142 8.4802 11.8138 8.4809 11.8138 8.481 11.8138 8.481 11.8138 8.4808 11.8141 8.4805 11.8143 8.4802 11.8143 8.4802 11.814 8.4807L12.6978 9.3645C12.9554 9.107 13.0491 8.7939 13.0889 8.4977 13.1263 8.2194 13.125 7.8752 13.125 7.5H11.875ZM10.8333 9.7917C11.2085 9.7917 11.5528 9.793 11.831 9.7556 12.1273 9.7157 12.4403 9.6221 12.6978 9.3645L11.814 8.4807C11.8136 8.481 11.8136 8.481 11.8138 8.4808 11.8142 8.4805 11.8143 8.4804 11.8143 8.4804 11.8142 8.4805 11.8135 8.4809 11.8119 8.4818 11.8103 8.4826 11.8076 8.484 11.8033 8.4857 11.7853 8.4932 11.7449 8.5059 11.6644 8.5168 11.4888 8.5403 11.2438 8.5417 10.8333 8.5417V9.7917ZM10.8333 4.7917C11.2438 4.7917 11.4888 4.793 11.6644 4.8166 11.7449 4.8274 11.7853 4.8402 11.8033 4.8476 11.8076 4.8494 11.8103 4.8507 11.8119 4.8516 11.8135 4.8524 11.8142 4.8528 11.8143 4.8529 11.8143 4.8529 11.8142 4.8528 11.8138 4.8526 11.8136 4.8523 11.8136 4.8523 11.814 4.8527L12.6978 3.9688C12.4403 3.7113 12.1273 3.6176 11.831 3.5778 11.5528 3.5403 11.2085 3.5417 10.8333 3.5417V4.7917ZM13.125 5.8333C13.125 5.4582 13.1263 5.1139 13.0889 4.8357 13.0491 4.5394 12.9554 4.2263 12.6978 3.9688L11.814 4.8527C11.8143 4.8531 11.8143 4.8531 11.8141 4.8528 11.8138 4.8525 11.8138 4.8523 11.8138 4.8524 11.8138 4.8524 11.8142 4.8531 11.8151 4.8547 11.8159 4.8563 11.8173 4.8591 11.819 4.8633 11.8265 4.8815 11.8393 4.9218 11.8501 5.0022 11.8737 5.1778 11.875 5.4228 11.875 5.8333H13.125ZM9.1667 3.5417C8.7915 3.5417 8.4473 3.5403 8.169 3.5778 7.8728 3.6176 7.5597 3.7113 7.3021 3.9688L8.186 4.8527C8.1864 4.8523 8.1864 4.8523 8.1861 4.8526 8.1858 4.8528 8.1856 4.8529 8.1857 4.8529 8.1858 4.8528 8.1865 4.8524 8.1881 4.8516 8.1897 4.8507 8.1924 4.8494 8.1966 4.8476 8.2148 4.8402 8.2551 4.8274 8.3356 4.8166 8.5112 4.793 8.7562 4.7917 9.1667 4.7917V3.5417ZM8.125 5.8333C8.125 5.4228 8.1263 5.1778 8.1499 5.0022 8.1608 4.9218 8.1735 4.8815 8.181 4.8633 8.1827 4.8591 8.184 4.8563 8.1849 4.8547 8.1857 4.8531 8.1862 4.8524 8.1862 4.8524 8.1863 4.8523 8.1861 4.8525 8.1859 4.8528 8.1857 4.8531 8.1856 4.8531 8.186 4.8527L7.3021 3.9688C7.0446 4.2263 6.9509 4.5394 6.9111 4.8357 6.8737 5.1139 6.875 5.4582 6.875 5.8333H8.125ZM8.125 9.1667V10.8333H9.375V9.1667H8.125ZM10.625 9.1667V10.8333H11.875V9.1667H10.625ZM8.125 2.5V4.1667H9.375V2.5H8.125ZM10.625 2.5V4.1667H11.875V2.5H10.625ZM7.5 4.7917H5.8333V6.0417H7.5V4.7917ZM7.5 7.2917H5.8333V8.5417H7.5V7.2917ZM14.1667 4.7917H12.5V6.0417H14.1667V4.7917ZM14.1667 7.2917H12.5V8.5417H14.1667V7.2917Z" fill="currentColor"/>
</svg>
