<svg xmlns="http://www.w3.org/2000/svg" width="20" height="20" viewBox="0 0 20 20" fill="none">
  <path d="M10.2564 15L9.0392 11.2324C8.9627 10.9956 8.7278 10.8333 8.4615 10.8333 8.1952 10.8333 7.9604 10.9956 7.8839 11.2324L6.6667 15M12.5 10.8333V15M7.1154 13.75H9.8077" stroke="currentColor" stroke-linecap="round" stroke-linejoin="round" stroke-width="2"/>
  <path d="M3.5565 15.7039C3.7439 17.0958 4.8968 18.1863 6.2997 18.2508 7.4802 18.305 8.6794 18.3333 10 18.3333 11.3206 18.3333 12.5198 18.305 13.7003 18.2508 15.1032 18.1863 16.2561 17.0958 16.4435 15.7039 16.5658 14.7956 16.6667 13.8647 16.6667 12.9167 16.6667 11.9687 16.5658 11.0378 16.4435 10.1294 16.2561 8.7375 15.1032 7.6471 13.7003 7.5826 12.5198 7.5283 11.3206 7.5 10 7.5 8.6794 7.5 7.4802 7.5283 6.2997 7.5826 4.8968 7.6471 3.7439 8.7375 3.5565 10.1294 3.4342 11.0378 3.3333 11.9687 3.3333 12.9167 3.3333 13.8647 3.4342 14.7956 3.5565 15.7039Z" stroke="currentColor" stroke-width="2"/>
  <path d="M6.25 7.5V5.4167C6.25 3.3456 7.9289 1.6667 10 1.6667 12.0711 1.6667 13.75 3.3456 13.75 5.4167V7.5" stroke="currentColor" stroke-linecap="round" stroke-linejoin="round" stroke-width="2"/>
</svg>
