<svg xmlns="http://www.w3.org/2000/svg" width="20" height="20" viewBox="0 0 20 20" fill="none">
  <path d="M1.6667 4.5833L7.4275 7.8475C9.5513 9.0508 10.4487 9.0508 12.5725 7.8475L18.3333 4.5833" stroke="currentColor" stroke-linejoin="round" stroke-width="2"/>
  <path d="M18.3202 10.813C18.3377 9.9916 18.3377 9.1751 18.3202 8.3537 18.2658 5.7991 18.2385 4.5217 17.2959 3.5756 16.3532 2.6294 15.0414 2.5964 12.4177 2.5305 10.8006 2.4898 9.1994 2.4898 7.5823 2.5305 4.9586 2.5964 3.6467 2.6293 2.7041 3.5755 1.7615 4.5217 1.7343 5.799 1.6798 8.3537 1.6623 9.1751 1.6623 9.9916 1.6798 10.813 1.7343 13.3677 1.7615 14.6449 2.7041 15.5912 3.6467 16.5373 4.9586 16.5703 7.5824 16.6362 8.67 16.6635 9.7504 16.6725 10.8333 16.6631" stroke="currentColor" stroke-linecap="round" stroke-linejoin="round" stroke-width="2"/>
  <path d="M15.4167 11.6667L15.6316 12.2475C15.9134 13.0092 16.0543 13.39 16.3322 13.6678 16.61 13.9457 16.9908 14.0866 17.7525 14.3684L18.3333 14.5833 17.7525 14.7982C16.9908 15.0801 16.61 15.221 16.3322 15.4988 16.0543 15.7767 15.9134 16.1575 15.6316 16.9192L15.4167 17.5 15.2018 16.9192C14.9199 16.1575 14.779 15.7767 14.5012 15.4988 14.2233 15.221 13.8425 15.0801 13.0808 14.7982L12.5 14.5833 13.0808 14.3684C13.8425 14.0866 14.2233 13.9457 14.5012 13.6678 14.779 13.39 14.9199 13.0092 15.2018 12.2475L15.4167 11.6667Z" stroke="currentColor" stroke-linejoin="round" stroke-width="2"/>
</svg>
