<svg xmlns="http://www.w3.org/2000/svg" width="20" height="20" viewBox="0 0 20 20" fill="none">
  <path d="M8.3333 5.8333L7.9035 6.995C7.3398 8.5183 7.0579 9.28 6.5023 9.8357 5.9467 10.3913 5.185 10.6731 3.6617 11.2368L2.5 11.6667 3.6617 12.0965C5.185 12.6602 5.9467 12.9421 6.5023 13.4977 7.0579 14.0533 7.3398 14.815 7.9035 16.3382L8.3333 17.5 8.7632 16.3382C9.3269 14.815 9.6088 14.0533 10.1643 13.4977 10.72 12.9421 11.4817 12.6602 13.0049 12.0965L14.1667 11.6667 13.0049 11.2368C11.4817 10.6731 10.72 10.3913 10.1643 9.8357 9.6088 9.28 9.3269 8.5183 8.7632 6.995L8.3333 5.8333Z" stroke="currentColor" stroke-linejoin="round" stroke-width="2"/>
  <path d="M15 2.5L14.8158 2.9979C14.5742 3.6507 14.4534 3.9772 14.2152 4.2153 13.9772 4.4534 13.6508 4.5742 12.9979 4.8158L12.5 5 12.9979 5.1842C13.6508 5.4258 13.9772 5.5466 14.2152 5.7847 14.4534 6.0228 14.5742 6.3493 14.8158 7.0021L15 7.5 15.1843 7.0021C15.4258 6.3493 15.5466 6.0228 15.7848 5.7847 16.0228 5.5466 16.3493 5.4258 17.0021 5.1842L17.5 5 17.0021 4.8158C16.3493 4.5742 16.0228 4.4534 15.7848 4.2153 15.5466 3.9772 15.4258 3.6507 15.1843 2.9979L15 2.5Z" stroke="currentColor" stroke-linejoin="round" stroke-width="2"/>
</svg>
