<svg xmlns="http://www.w3.org/2000/svg" width="20" height="20" viewBox="0 0 20 20" fill="none">
  <path d="M14.1667 9.1667C14.1667 11.4678 12.3012 13.3333 10 13.3333 7.6988 13.3333 5.8333 11.4678 5.8333 9.1667V5.8333C5.8333 3.5322 7.6988 1.6667 10 1.6667" stroke="currentColor" stroke-linecap="round" stroke-linejoin="round" stroke-width="2"/>
  <path d="M16.6667 9.1667C16.6667 12.8486 13.6819 15.8333 10 15.8333M10 15.8333C6.3181 15.8333 3.3333 12.8486 3.3333 9.1667M10 15.8333V18.3333" stroke="currentColor" stroke-linecap="round" stroke-linejoin="round" stroke-width="2"/>
  <path d="M11.9439 3.8718C12.9495 3.7466 13.7466 2.9495 13.8718 1.9439 13.8908 1.7917 14.0132 1.6667 14.1667 1.6667 14.3201 1.6667 14.4426 1.7917 14.4616 1.9439 14.5868 2.9495 15.3838 3.7466 16.3894 3.8718 16.5417 3.8907 16.6667 4.0133 16.6667 4.1667 16.6667 4.3201 16.5417 4.4426 16.3894 4.4616 15.3838 4.5867 14.5868 5.3838 14.4616 6.3894 14.4426 6.5417 14.3201 6.6667 14.1667 6.6667 14.0132 6.6667 13.8908 6.5417 13.8718 6.3894 13.7466 5.3838 12.9495 4.5867 11.9439 4.4616 11.7917 4.4426 11.6667 4.3201 11.6667 4.1667 11.6667 4.0133 11.7917 3.8907 11.9439 3.8718Z" stroke="currentColor" stroke-linecap="round" stroke-linejoin="round" stroke-width="2"/>
</svg>
