<svg xmlns="http://www.w3.org/2000/svg" width="20" height="20" viewBox="0 0 20 20" fill="none">
  <path d="M17.7083 4.5833C17.3632 4.5833 17.0833 4.3035 17.0833 3.9583 17.0833 3.6132 17.3632 3.3333 17.7083 3.3333 18.0535 3.3333 18.3333 3.6132 18.3333 3.9583 18.3333 4.3035 18.0535 4.5833 17.7083 4.5833ZM17.7083 4.5833V7.7083C17.7083 8.2898 17.7083 8.5806 17.6366 8.8172 17.475 9.3498 17.0582 9.7667 16.5255 9.9283 16.2889 10 15.9982 10 15.4167 10" stroke="currentColor" stroke-linejoin="round" stroke-width="2"/>
  <path d="M2.2917 15.4167C2.6368 15.4167 2.9167 15.6965 2.9167 16.0417 2.9167 16.3868 2.6368 16.6667 2.2917 16.6667 1.9465 16.6667 1.6667 16.3868 1.6667 16.0417 1.6667 15.6965 1.9465 15.4167 2.2917 15.4167ZM2.2917 15.4167L2.2917 12.2917C2.2917 11.7102 2.2917 11.4194 2.3634 11.1828 2.525 10.6502 2.9419 10.2333 3.4745 10.0717 3.7111 10 4.0019 10 4.5833 10" stroke="currentColor" stroke-linejoin="round" stroke-width="2"/>
  <path d="M4.5833 2.2917C4.5833 2.6369 4.3035 2.9167 3.9583 2.9167 3.6132 2.9167 3.3333 2.6369 3.3333 2.2917 3.3333 1.9466 3.6132 1.6667 3.9583 1.6667 4.3035 1.6667 4.5833 1.9466 4.5833 2.2917ZM4.5833 2.2917L7.7083 2.2917C8.2898 2.2917 8.5806 2.2917 8.8172 2.3635 9.3498 2.5251 9.7667 2.9419 9.9283 3.4746 10 3.7112 10 4.0019 10 4.5834" stroke="currentColor" stroke-linejoin="round" stroke-width="2"/>
  <path d="M15.4167 17.7084C15.4167 17.3633 15.6965 17.0834 16.0417 17.0834 16.3868 17.0834 16.6667 17.3633 16.6667 17.7084 16.6667 18.0536 16.3868 18.3334 16.0417 18.3334 15.6965 18.3334 15.4167 18.0536 15.4167 17.7084ZM15.4167 17.7084L12.2917 17.7084C11.7102 17.7084 11.4194 17.7084 11.1828 17.6367 10.6502 17.4751 10.2333 17.0583 10.0717 16.5256 10 16.289 10 15.9983 10 15.4168" stroke="currentColor" stroke-linejoin="round" stroke-width="2"/>
  <path d="M4.624 9.9593C4.624 7.4059 4.624 6.1292 5.4173 5.3359 6.2105 4.5426 7.4873 4.5426 10.0407 4.5426 12.5942 4.5426 13.8708 4.5426 14.6641 5.3359 15.4573 6.1292 15.4573 7.4059 15.4573 9.9593 15.4573 12.5128 15.4573 13.7895 14.6641 14.5828 13.8708 15.376 12.5942 15.376 10.0407 15.376 7.4873 15.376 6.2105 15.376 5.4173 14.5828 4.624 13.7895 4.624 12.5128 4.624 9.9593Z" stroke="currentColor" stroke-linejoin="round" stroke-width="2"/>
  <path d="M10.4158 12.0833L9.1987 8.3158C9.1221 8.0789 8.8873 7.9167 8.621 7.9167 8.3547 7.9167 8.1198 8.0789 8.0433 8.3158L6.8261 12.0833M12.4991 7.9167V12.0833M7.2748 10.8333H9.9672" stroke="currentColor" stroke-linecap="round" stroke-linejoin="round" stroke-width="2"/>
</svg>
