<svg xmlns="http://www.w3.org/2000/svg" width="20" height="20" viewBox="0 0 20 20" fill="none">
  <path d="M15 9.5833V12.5C15 15.2498 15 16.6248 14.1458 17.4791 13.2914 18.3333 11.9165 18.3333 9.1667 18.3333 6.4168 18.3333 5.0419 18.3333 4.1876 17.4791 3.3333 16.6248 3.3333 15.2498 3.3333 12.5V7.5C3.3333 4.7501 3.3333 3.3752 4.1876 2.5209 5.0419 1.6667 6.4168 1.6667 9.1667 1.6667 9.7894 1.6667 9.5083 1.6667 10 1.6766" stroke="currentColor" stroke-linecap="round" stroke-linejoin="round" stroke-width="2"/>
  <path d="M9.2708 15.625H9.1667M9.375 15.625C9.375 15.7401 9.2818 15.8333 9.1667 15.8333 9.0516 15.8333 8.9583 15.7401 8.9583 15.625 8.9583 15.5099 9.0516 15.4167 9.1667 15.4167 9.2818 15.4167 9.375 15.5099 9.375 15.625Z" stroke="currentColor" stroke-linecap="round" stroke-linejoin="round" stroke-width="2"/>
  <path d="M14.1448 1.6846C14.1496 1.6607 14.1837 1.6607 14.1886 1.6846 14.4418 2.9234 15.4099 3.8915 16.6487 4.1447 16.6727 4.1496 16.6727 4.1837 16.6487 4.1886 15.4099 4.4418 14.4418 5.4099 14.1886 6.6488 14.1837 6.6726 14.1496 6.6726 14.1448 6.6488 13.8915 5.4099 12.9234 4.4418 11.6846 4.1886 11.6607 4.1837 11.6607 4.1496 11.6846 4.1447 12.9234 3.8915 13.8915 2.9234 14.1448 1.6846Z" stroke="currentColor" stroke-linecap="round" stroke-linejoin="round" stroke-width="2"/>
</svg>
