<svg xmlns="http://www.w3.org/2000/svg" width="20" height="20" viewBox="0 0 20 20" fill="none">
  <path d="M15.8333 12.5L15.8333 7.5C15.8333 4.7501 15.8333 3.3752 14.9791 2.5209 14.1248 1.6667 12.7498 1.6667 10 1.6667 7.2501 1.6667 5.8752 1.6667 5.0209 2.5209 4.1667 3.3752 4.1667 4.7501 4.1667 7.5V12.5C4.1667 15.2498 4.1667 16.6248 5.0209 17.4791 5.8752 18.3333 7.2501 18.3333 10 18.3333 12.7498 18.3333 14.1248 18.3333 14.9791 17.4791 15.8333 16.6248 15.8333 15.2498 15.8333 12.5Z" stroke="currentColor" stroke-linecap="round" stroke-linejoin="round" stroke-width="2"/>
  <path d="M9.9781 5.8512C9.9829 5.8274 10.0171 5.8274 10.0219 5.8512 10.2752 7.0901 11.2432 8.0582 12.4821 8.3114 12.506 8.3163 12.506 8.3504 12.4821 8.3553 11.2432 8.6085 10.2752 9.5766 10.0219 10.8154 10.0171 10.8393 9.9829 10.8393 9.9781 10.8154 9.7248 9.5766 8.7568 8.6085 7.5179 8.3553 7.494 8.3504 7.494 8.3163 7.5179 8.3114 8.7568 8.0582 9.7248 7.0901 9.9781 5.8512Z" stroke="currentColor" stroke-linecap="round" stroke-linejoin="round" stroke-width="2"/>
  <path d="M10.1042 15.625H10M10.2083 15.625C10.2083 15.7401 10.1151 15.8333 10 15.8333 9.8849 15.8333 9.7917 15.7401 9.7917 15.625 9.7917 15.5099 9.8849 15.4167 10 15.4167 10.1151 15.4167 10.2083 15.5099 10.2083 15.625Z" stroke="currentColor" stroke-linecap="round" stroke-linejoin="round" stroke-width="2"/>
</svg>
