<svg xmlns="http://www.w3.org/2000/svg" width="20" height="20" viewBox="0 0 20 20" fill="none">
  <path d="M10 15.6461C8.6203 13.9795 7.5 12.9463 7.5 11.25 7.5 9.5537 8.7528 8.3333 10.0028 8.3333 11.2528 8.3333 12.5 9.5537 12.5 11.25 12.5 12.9463 11.3797 13.9795 10 15.6461ZM10 15.6461C8.3333 17.7665 5.0173 17.8851 3.6247 16.9183 2.2322 15.9516 2.2124 13.9498 3.1286 11.8295 4.0448 9.7092 5.266 7.1647 7.7095 3.7722 8.5103 2.8817 9.0811 2.5 9.9973 2.5M10 15.6461C11.6667 17.7665 14.9827 17.8851 16.3753 16.9183 17.7678 15.9516 17.7876 13.9498 16.8714 11.8295 15.9553 9.7092 14.7339 7.1647 12.2905 3.7722 11.4897 2.8817 10.9189 2.5 10.0028 2.5" stroke="currentColor" stroke-linecap="round" stroke-linejoin="round" stroke-width="2"/>
</svg>
