<svg xmlns="http://www.w3.org/2000/svg" width="20" height="20" viewBox="0 0 20 20" fill="none">
  <path d="M4.5323 13.5294C4.5323 13.3107 4.5254 13.1019 4.5124 12.9027M4.5124 12.9027C4.3945 11.0923 3.775 10.0699 3.2703 9.5588 2.399 10.4412 0.3867 13.9706 2.8472 16.6177L6.8228 14.8529C6.9027 15.1746 6.9987 15.4939 7.1122 15.8097 7.3718 16.5321 7.5016 16.8933 7.933 17.1967 8.3644 17.5 8.8407 17.5 9.7935 17.5H10.2065C11.1593 17.5 11.6356 17.5 12.067 17.1967 12.4983 16.8933 12.6282 16.5321 12.8878 15.8097 13.0013 15.4939 13.0973 15.1746 13.1772 14.8529L17.1528 16.6177C19.6133 13.9706 17.601 10.4412 16.7297 9.5588 16.2249 10.0699 15.6054 11.0923 15.4876 12.9027M4.5124 12.9027L5.4276 12.5565C5.9347 12.3647 6.1883 12.2688 6.3333 12.0773 6.4782 11.8859 6.504 11.5903 6.5555 10.9991 6.88 7.2767 8.6881 3.8503 10 2.5 11.3119 3.8503 13.12 7.2767 13.4445 10.9991 13.496 11.5903 13.5217 11.8859 13.6667 12.0773 13.8117 12.2688 14.0653 12.3647 14.5723 12.5565L15.4876 12.9027M15.4677 13.5294C15.4677 13.3107 15.4746 13.1019 15.4876 12.9027" stroke="currentColor" stroke-linecap="round" stroke-linejoin="round" stroke-width="2"/>
  <path d="M10 8.3333L10 9.1667" stroke="currentColor" stroke-linecap="round" stroke-linejoin="round" stroke-width="2"/>
  <path d="M16.6667 6.6667V5.8333M16.6667 3.3333V2.5" stroke="currentColor" stroke-linecap="round" stroke-linejoin="round" stroke-width="2"/>
  <path d="M3.3333 6.6667V5.8333M3.3333 3.3333V2.5" stroke="currentColor" stroke-linecap="round" stroke-linejoin="round" stroke-width="2"/>
</svg>
