<svg xmlns="http://www.w3.org/2000/svg" width="20" height="20" viewBox="0 0 20 20" fill="none">
  <circle cx="10" cy="9.166666666666668" r="1.6666666666666667" stroke="currentColor" stroke-linecap="round" stroke-width="2"/>
  <path d="M3.3333 14.1675C2.2868 12.7746 1.6667 11.043 1.6667 9.1667 1.6667 4.5643 5.3976 0.8333 10 0.8333 14.6023 0.8333 18.3333 4.5643 18.3333 9.1667 18.3333 11.043 17.7132 12.7746 16.6667 14.1675" stroke="currentColor" stroke-linecap="round" stroke-width="2"/>
  <path d="M6.2732 12.5C5.4814 11.6154 5 10.4473 5 9.1667 5 6.4052 7.2386 4.1667 10 4.1667 12.7614 4.1667 15 6.4052 15 9.1667 15 10.4473 14.5186 11.6154 13.7268 12.5" stroke="currentColor" stroke-linecap="round" stroke-width="2"/>
  <path d="M8.2929 14.8966C8.9352 13.965 9.2563 13.4992 9.6732 13.3794 9.887 13.318 10.113 13.318 10.3268 13.3794 10.7437 13.4992 11.0648 13.965 11.7071 14.8966 12.5617 16.1361 12.9889 16.7559 12.9067 17.2725 12.8649 17.5345 12.7448 17.7763 12.5633 17.9638 12.2054 18.3333 11.4703 18.3333 10 18.3333 8.5297 18.3333 7.7946 18.3333 7.4367 17.9638 7.2551 17.7763 7.135 17.5345 7.0933 17.2725 7.0111 16.7559 7.4384 16.1361 8.2929 14.8966Z" stroke="currentColor" stroke-linecap="round" stroke-linejoin="round" stroke-width="2"/>
</svg>
