<svg xmlns="http://www.w3.org/2000/svg" width="20" height="20" viewBox="0 0 20 20" fill="none">
  <path d="M5.0012 16.6652H18.3346" stroke="currentColor" stroke-linecap="round" stroke-linejoin="round" stroke-width="2"/>
  <path d="M3.0812 3.3683C2.5663 3.5087 2.5062 4.0983 2.3562 4.5983 2.2309 5.0685 1.9659 6.1086 1.7857 6.8193 1.6512 7.4483 1.6332 7.6982 1.7132 8.0983 1.9012 8.8483 2.5512 9.1433 3.9512 9.5333 4.6551 9.7133 5.1512 9.8643 5.9012 10.0642 6.03 10.1054 6.43 10.2063 6.7512 10.2933 7.0512 10.3983 7.3012 10.3683 7.2452 10.5983 7.2062 10.6897 6.7532 11.1983 6.3332 11.6483 6.0512 11.9983 5.8612 12.0832 5.8612 12.3483 5.8612 12.3483 5.8512 12.7483 6.4119 12.7983 6.5012 12.8483 7.7012 13.1483 8.1512 13.2782 8.7513 13.4283 9.2012 13.2483 9.5713 12.9983L11.4013 11.7982C11.8013 11.6183 11.9012 11.6943 12.3513 11.8142L16.3513 12.8983C17.0513 13.1483 17.6513 12.5483 17.4753 11.8483 17.2512 10.5983 16.8513 9.8483 16.2013 9.0483 15.1513 7.7983 13.8711 7.3106 12.9512 7.1482 12.5315 7.0742 10.9533 6.9494 9.4512 6.8383 7.9116 6.7244 6.4519 6.6242 6.4012 6.5483 5.3012 6.2983 5.6412 4.6833 5.1712 3.9783 4.9846 3.6983 4.6512 3.6483 4.1512 3.4983 3.7275 3.3898 3.4135 3.2776 3.0812 3.3683Z" stroke="currentColor" stroke-linecap="round" stroke-width="2"/>
</svg>
