<svg xmlns="http://www.w3.org/2000/svg" width="20" height="20" viewBox="0 0 20 20" fill="none">
  <path d="M2.5 10C2.5 6.4645 2.5 4.6967 3.5983 3.5983 4.6967 2.5 6.4645 2.5 10 2.5 13.5355 2.5 15.3033 2.5 16.4017 3.5983 17.5 4.6967 17.5 6.4645 17.5 10 17.5 13.5355 17.5 15.3033 16.4017 16.4017 15.3033 17.5 13.5355 17.5 10 17.5 6.4645 17.5 4.6967 17.5 3.5983 16.4017 2.5 15.3033 2.5 13.5355 2.5 10Z" stroke="currentColor" stroke-linecap="round" stroke-linejoin="round" stroke-width="2"/>
  <path d="M2.9167 5.8333H17.0833" stroke="currentColor" stroke-linecap="round" stroke-linejoin="round" stroke-width="2"/>
  <path d="M5.8333 5.8333H14.1667C14.1667 7.4047 14.1667 8.1904 13.6785 8.6785 13.1903 9.1667 12.4047 9.1667 10.8333 9.1667H9.1667C7.5953 9.1667 6.8096 9.1667 6.3215 8.6785 5.8333 8.1904 5.8333 7.4047 5.8333 5.8333Z" stroke="currentColor" stroke-linecap="round" stroke-linejoin="round" stroke-width="2"/>
  <path d="M10.1042 11.6667H10M10.2083 11.6667C10.2083 11.7818 10.1151 11.875 10 11.875 9.8849 11.875 9.7917 11.7818 9.7917 11.6667 9.7917 11.5516 9.8849 11.4583 10 11.4583 10.1151 11.4583 10.2083 11.5516 10.2083 11.6667Z" stroke="currentColor" stroke-linecap="round" stroke-linejoin="round" stroke-width="2"/>
</svg>
