<svg xmlns="http://www.w3.org/2000/svg" width="20" height="20" viewBox="0 0 20 20" fill="none">
  <path d="M2.0818 16.6674H15.4151" stroke="currentColor" stroke-linecap="round" stroke-linejoin="round" stroke-width="2"/>
  <path d="M16.7064 9.2011C17.6843 8.8344 17.8314 8.3344 17.8939 8.0011 17.9981 7.5844 17.7481 6.5219 17.5189 5.7094 17.4733 5.5329 17.1092 4.1531 17.0564 4.0011 16.8523 3.2719 16.3522 3.3052 15.9981 3.3552 15.8523 3.3865 14.8314 3.6636 14.6647 3.7469 14.1022 4.0844 14.1647 4.9802 13.9981 5.5636 13.8106 6.4177 13.3731 6.5427 12.8731 6.6261 11.1231 6.7511 7.2481 7.0636 7.2481 7.0636 3.9356 7.3552 2.3314 10.0011 2.0939 11.9386 1.9773 12.7511 2.7273 13.0428 3.1231 12.9386L7.4773 11.7511C7.8106 11.6261 8.0814 11.7302 8.2689 11.8552L10.2064 13.1261C10.6439 13.3552 11.0397 13.3761 11.3939 13.2927L13.2064 12.7969C13.5814 12.7553 13.656 12.5768 13.7064 12.4386 13.7805 12.2357 13.6215 12.0496 13.4356 11.8761 13.3314 11.7302 12.9981 11.3736 12.8731 11.2361 12.7064 11.0219 12.299 10.6677 12.3314 10.5219 12.0814 10.4178 12.9728 10.2606 14.4564 9.8552 15.2996 9.6248 16.272 9.364 16.7064 9.2011Z" stroke="currentColor" stroke-width="2"/>
</svg>
