<svg xmlns="http://www.w3.org/2000/svg" width="20" height="20" viewBox="0 0 20 20" fill="none">
  <path d="M3.6809 9.9319L6.4488 8.2471C6.9133 7.9649 7.1456 7.8237 7.3059 7.6301 7.9997 6.7923 7.3887 5.555 7.4922 4.5807 7.5992 3.5723 8.5609 2.193 9.5303 1.7654 9.8287 1.6338 10.1709 1.6338 10.4693 1.7654 11.4387 2.193 12.4003 3.5723 12.5074 4.5807 12.6109 5.555 11.9999 6.7923 12.6937 7.6301 12.854 7.8237 13.0862 7.9649 13.5508 8.2471L16.3189 9.9318C17.1661 10.4474 17.4998 10.9977 17.4998 12.0329 17.4998 12.5963 17.2505 12.7473 16.7477 12.6323L11.8938 11.5218 11.6758 13.4291C11.5968 14.1207 11.5573 14.4665 11.6715 14.7832 11.9392 15.525 12.8477 16.1326 13.4027 16.6722 13.7094 16.9703 14.0441 17.8278 13.6944 18.2178 13.4785 18.4586 13.1278 18.2631 12.8864 18.1692L10.5625 17.2653C10.2847 17.1573 10.1457 17.1033 9.9998 17.1033 9.8539 17.1033 9.7149 17.1573 9.4371 17.2653L7.1132 18.1692C6.8718 18.2631 6.5211 18.4586 6.3052 18.2178 5.9555 17.8278 6.2902 16.9703 6.5969 16.6722 7.1518 16.1326 8.0605 15.525 8.3281 14.7832 8.4423 14.4665 8.4028 14.1207 8.3238 13.4291L8.1059 11.5218 3.2522 12.6323C2.7492 12.7473 2.4999 12.5963 2.5 12.0326 2.5003 10.9976 2.8339 10.4475 3.6809 9.9319Z" stroke="currentColor" stroke-linecap="round" stroke-linejoin="round" stroke-width="2"/>
</svg>
