<svg xmlns="http://www.w3.org/2000/svg" width="20" height="20" viewBox="0 0 20 20" fill="none">
  <path d="M10.9829 11.5218L10.7668 13.4291C10.6884 14.1207 10.6492 14.4665 10.7625 14.7832 11.0279 15.525 11.9291 16.1326 12.4794 16.6722 12.7836 16.9703 13.1155 17.8278 12.7687 18.2178 12.5546 18.4586 12.2067 18.2631 11.9674 18.1692L9.6627 17.2653C9.3871 17.1573 9.2492 17.1033 9.1046 17.1033 8.9599 17.1033 8.8221 17.1573 8.5465 17.2653L6.2418 18.1692C6.0024 18.2631 5.6546 18.4586 5.4405 18.2178 5.0937 17.8278 5.4256 16.9703 5.7298 16.6722 6.2801 16.1326 7.1813 15.525 7.4467 14.7832 7.56 14.4665 7.5208 14.1207 7.4424 13.4291L7.2263 11.5218 2.4126 12.6323C1.9138 12.7473 1.6665 12.5963 1.6667 12.0326 1.6669 10.9976 1.9978 10.4475 2.8379 9.9319L5.5829 8.2471C6.0436 7.9649 6.2739 7.8237 6.4329 7.6301 6.666 7.3463 6.6667 6.6667 6.6667 6.6667" stroke="currentColor" stroke-linecap="round" stroke-linejoin="round" stroke-width="2"/>
  <path d="M7.0834 3.3333C7.4767 2.6555 8.0988 2.0292 8.697 1.7654 8.9953 1.6338 9.3376 1.6338 9.6359 1.7654 10.6053 2.193 11.567 3.5723 11.6741 4.5807 11.7776 5.555 11.1666 6.7923 11.8604 7.6301 12.0207 7.8237 12.2529 7.9649 12.7174 8.2471L15.4856 9.9318C16.3328 10.4474 16.6665 10.9977 16.6665 12.0329 16.6665 12.4524 16.2501 12.9167 16.2501 12.9167" stroke="currentColor" stroke-linecap="round" stroke-linejoin="round" stroke-width="2"/>
  <path d="M1.6667 1.6667L18.3333 18.3333" stroke="currentColor" stroke-linecap="round" stroke-linejoin="round" stroke-width="2"/>
</svg>
