<svg xmlns="http://www.w3.org/2000/svg" width="20" height="20" viewBox="0 0 20 20" fill="none">
  <path d="M1.6669 16.6667H15.0002" stroke="currentColor" stroke-linecap="round" stroke-linejoin="round" stroke-width="2"/>
  <path d="M3.1877 10.1384C2.9586 9.9718 2.7502 9.7634 2.5002 9.0343 2.4324 8.8534 2.1762 7.9468 1.9586 7.1176 1.775 6.4181 1.6115 5.7796 1.6877 5.6176 1.7502 5.4509 1.8336 5.3259 2.1044 5.1592 2.2711 5.0567 3.1252 4.8467 3.2919 4.8051 3.4586 4.7634 3.6877 4.7426 3.8752 4.8051 4.2294 4.8676 4.9586 5.9301 5.1461 6.0551 5.2294 6.1384 5.5002 6.3808 5.8127 6.4092 6.0419 6.4301 6.2711 6.3676 6.5211 6.2634 6.7502 6.1679 11.2711 3.9717 11.6877 3.7842 15.0836 2.3676 17.5503 4.6967 17.9253 5.1967 18.3128 5.6801 18.3961 5.8259 18.2919 6.2426 18.1573 6.6801 17.7919 6.7634 17.5836 6.8259 17.3753 6.8884 14.5003 7.6592 13.3753 7.9717 13.1295 8.0518 13.0095 8.2124 12.9794 8.2426 12.8336 8.4509 12.1711 9.8676 11.9836 10.1801 11.8544 10.5134 11.5003 10.9301 11.0419 11.0968 10.5628 11.2634 9.7294 11.4509 9.5419 11.5134 9.3544 11.5759 8.9169 11.7009 8.7711 11.6593 8.5836 11.6176 8.4044 11.4301 8.4878 11.1384 8.5711 10.8468 8.7294 10.0343 8.7502 9.9093 8.7711 9.7843 8.9794 9.2634 8.7502 9.2426 8.7086 9.1801 8.2711 9.3676 7.6252 9.5134 7.1454 9.6485 6.6429 9.7822 6.2919 9.8676 4.9377 10.2634 4.2043 10.3676 4.0419 10.3676 3.7294 10.3676 3.5002 10.3259 3.1877 10.1384Z" stroke="currentColor" stroke-width="2"/>
</svg>
