<svg xmlns="http://www.w3.org/2000/svg" width="20" height="20" viewBox="0 0 20 20" fill="none">
  <path d="M6.1082 9.0387C5.4142 9.3305 4.6348 9.4166 3.8889 9.26 2.5585 8.9807 1.6667 8.0975 1.6667 6.7132V5.1071C1.6667 3.4347 2.9381 2.4833 4.6296 2.5002 6.5088 2.519 8.75 3.9698 8.75 6.2555V16.1806C8.75 16.6342 8.75 16.861 8.6641 17.0353 8.4224 17.5253 7.9047 17.5 7.4306 17.5 6.9564 17.5 6.4387 17.5253 6.1971 17.0353 6.1111 16.861 6.1111 16.6342 6.1111 16.1806V9.254C6.1111 9.1801 6.1102 9.1083 6.1082 9.0387ZM6.1082 9.0387L6.1111 9.0375M6.1082 9.0387C6.0808 8.0681 5.8333 7.0834 5 7.0834" stroke="currentColor" stroke-linecap="round" stroke-width="2"/>
  <path d="M13.8918 9.0387C14.5858 9.3304 15.3653 9.4166 16.1111 9.26 17.4415 8.9807 18.3333 8.0975 18.3333 6.7132V5.1071C18.3333 3.4363 16.9895 2.484 15.3703 2.5002 13.4912 2.519 11.25 3.9698 11.25 6.2555V16.1806C11.25 16.6342 11.25 16.861 11.3359 17.0353 11.5776 17.5253 12.0953 17.5 12.5694 17.5 13.0436 17.5 13.5612 17.5253 13.8029 17.0353 13.8889 16.861 13.8889 16.6342 13.8889 16.1806V9.254C13.8889 9.1801 13.8898 9.1083 13.8918 9.0387ZM13.8918 9.0387L13.8889 9.0375M13.8918 9.0387C13.9192 8.0681 14.1667 7.0833 15 7.0833" stroke="currentColor" stroke-linecap="round" stroke-width="2"/>
</svg>
