<svg xmlns="http://www.w3.org/2000/svg" width="20" height="20" viewBox="0 0 20 20" fill="none">
  <path d="M16.769 5H3.231C2.8273 5 2.5 5.3273 2.5 5.731 2.5 5.7989 2.5095 5.8665 2.5281 5.9318L3.4759 9.2491C3.8084 10.4127 3.9746 10.9945 4.4202 11.3306 4.8657 11.6667 5.4708 11.6667 6.681 11.6667H13.319C14.5292 11.6667 15.1343 11.6667 15.5798 11.3306 16.0254 10.9945 16.1916 10.4127 16.5241 9.2491L17.4719 5.9318C17.4905 5.8665 17.5 5.7989 17.5 5.731 17.5 5.3273 17.1728 5 16.769 5Z" stroke="currentColor" stroke-linecap="round" stroke-linejoin="round" stroke-width="2"/>
  <path d="M13.3333 5L12.5 11.6667M7.5 11.6667L6.6667 5" stroke="currentColor" stroke-linecap="round" stroke-linejoin="round" stroke-width="2"/>
  <path d="M12.5 11.6667V18.3333M7.5 11.6667V18.3333" stroke="currentColor" stroke-linecap="round" stroke-linejoin="round" stroke-width="2"/>
  <path d="M8.3333 1.6667H11.6667" stroke="currentColor" stroke-linecap="round" stroke-linejoin="round" stroke-width="2"/>
  <path d="M10 1.6667V5" stroke="currentColor" stroke-linecap="round" stroke-linejoin="round" stroke-width="2"/>
</svg>
