<svg xmlns="http://www.w3.org/2000/svg" width="20" height="20" viewBox="0 0 20 20" fill="none">
  <path d="M13.2223 3.1503C13.9942 2.5266 14.8589 2.4887 15.8037 2.5019 16.2923 2.5088 16.5367 2.5122 16.7327 2.5882 17.0437 2.7088 17.2912 2.9564 17.4118 3.2673 17.4877 3.4633 17.4912 3.7077 17.4981 4.1963 17.5113 5.1411 17.4734 6.0057 16.8497 6.7777 16.3244 7.4278 15.4216 7.7675 14.9872 8.4851 14.6555 9.0329 14.81 9.6003 14.9525 10.1841L16.019 14.5552C16.2316 15.4263 16.0698 15.9846 15.4608 16.5937 15.1367 16.9178 14.8671 16.9013 14.6042 16.4825L11.3856 11.3541 9.8484 12.5759C9.2911 13.019 9.0124 13.2405 8.866 13.5522 8.523 14.2823 8.7408 15.3789 8.7518 16.1705 8.758 16.608 8.3799 17.4703 7.8449 17.4994 7.5146 17.5174 7.4024 17.1223 7.2957 16.8798L6.2686 14.5453C6.023 13.9871 6.0129 13.977 5.4546 13.7314L3.1201 12.7043C2.8777 12.5977 2.4826 12.4853 2.5006 12.1551 2.5297 11.6201 3.392 11.242 3.8295 11.2482 4.6211 11.2593 5.7177 11.477 6.4478 11.134 6.7595 10.9876 6.981 10.7089 7.4241 10.1516L8.6459 8.6144 3.5175 5.3957C3.0987 5.1329 3.0823 4.8633 3.4063 4.5393 4.0154 3.9302 4.5738 3.7685 5.4448 3.981L9.8159 5.0475C10.3997 5.19 10.9671 5.3445 11.5149 5.0128 12.2325 4.5784 12.5722 3.6756 13.2223 3.1503Z" stroke="currentColor" stroke-linecap="round" stroke-linejoin="round" stroke-width="2"/>
</svg>
