<svg xmlns="http://www.w3.org/2000/svg" width="20" height="20" viewBox="0 0 20 20" fill="none">
  <path d="M3.75 15C3.3046 14.8523 2.9453 14.6385 2.643 14.3288 1.6667 13.3283 1.6667 11.7182 1.6667 8.4979 1.6667 5.2776 1.6667 3.6675 2.643 2.6671 3.6193 1.6667 5.1906 1.6667 8.3333 1.6667H11.6667C14.8093 1.6667 16.3808 1.6667 17.357 2.6671 18.3333 3.6675 18.3333 5.2776 18.3333 8.4979 18.3333 11.7182 18.3333 13.3283 17.357 14.3288 17.0547 14.6385 16.6954 14.8523 16.25 15" stroke="currentColor" stroke-linecap="round" stroke-width="2"/>
  <path d="M7.4292 13.9718C8.4234 12.5635 8.9205 11.8593 9.5953 11.7107 9.8613 11.652 10.1387 11.652 10.4047 11.7107 11.0795 11.8593 11.5766 12.5635 12.5708 13.9718 13.7343 15.6197 14.3159 16.4437 14.1338 17.1188 14.0625 17.3828 13.9192 17.6258 13.7176 17.8248 13.2021 18.3333 12.1348 18.3333 10 18.3333 7.8653 18.3333 6.7979 18.3333 6.2824 17.8248 6.0808 17.6258 5.9375 17.3828 5.8662 17.1188 5.684 16.4437 6.2658 15.6197 7.4292 13.9718Z" stroke="currentColor" stroke-linecap="round" stroke-width="2"/>
</svg>
