<svg xmlns="http://www.w3.org/2000/svg" width="20" height="20" viewBox="0 0 20 20" fill="none">
  <path d="M7.0681 15H14.9768C15.9101 15 16.6667 14.2564 16.6667 13.3393 16.6667 12.0833 14.9768 11.6784 14.9768 11.6784 14.9768 11.6784 11.9037 10.497 8.3333 11.6667 8.3333 11.6667 8.2175 7.394 6.4249 2.6422 6.0712 1.7047 4.9177 1.3846 4.0712 1.9393 3.5126 2.3053 3.2339 2.9664 3.3656 3.6134L5.4111 13.6649C5.569 14.4413 6.2626 15 7.0681 15Z" stroke="currentColor" stroke-linecap="round" stroke-linejoin="round" stroke-width="2"/>
  <path d="M10.4167 8.75H15" stroke="currentColor" stroke-linecap="round" stroke-linejoin="round" stroke-width="2"/>
  <path d="M13.3333 15L10.8333 18.3333M10.8333 18.3333H6.6667M10.8333 18.3333H15" stroke="currentColor" stroke-linecap="round" stroke-linejoin="round" stroke-width="2"/>
</svg>
