<svg xmlns="http://www.w3.org/2000/svg" width="20" height="20" viewBox="0 0 20 20" fill="none">
  <path d="M5.0098 16.6667H18.3333" stroke="currentColor" stroke-linecap="round" stroke-linejoin="round" stroke-width="2"/>
  <path d="M17.3412 9.4168C17.6947 8.5835 18.1108 6.7502 18.2563 6.2502 18.2979 6.0002 18.3562 5.7919 18.2938 5.6252 18.2563 5.4169 18.0899 5.2377 17.7363 5.0794 17.6116 5.0419 16.426 4.6585 16.2387 4.7627 16.1556 4.771 15.906 4.8752 15.7188 5.0627 15.4692 5.3127 14.97 6.021 14.6164 6.2294 14.4707 6.3152 14.242 6.5002 13.7636 6.3544 13.4353 6.2691 11.9748 5.5382 11.4756 5.2919 11.0804 5.0968 8.9771 4.071 8.7093 3.9585 7.9604 3.521 5.2356 2.5002 2.6024 4.671 2.3237 4.9585 1.4917 5.6252 1.6997 6.1877 1.9077 6.7502 2.2405 6.7443 2.7605 6.896 3.2805 7.0477 5.8596 7.7502 6.2548 7.8544 6.65 7.9585 6.754 7.9794 6.962 8.1669 7.1284 8.3169 7.2324 8.6043 7.4612 9.0835 7.6276 9.3543 7.905 9.9724 8.002 10.146 8.0991 10.3197 8.1892 10.521 8.3764 10.7085 8.5013 10.8335 8.7093 10.969 8.8548 11.0418 9.1044 11.1668 10.6228 11.5418 11.1012 11.6668 11.3508 11.6668 11.5255 11.4793 11.5255 11.3127 11.538 11.146 11.3158 10.3127 11.2593 9.9585 11.226 9.7502 11.122 9.4377 11.1428 9.3127 11.1844 9.0627 11.954 9.4007 12.1204 9.4377 12.3076 9.4793 14.9492 10.2085 15.3027 10.271 15.6563 10.3335 16.3012 10.4585 16.7796 10.146 17.0916 9.9168 17.2163 9.6877 17.3412 9.4168Z" stroke="currentColor" stroke-width="2"/>
</svg>
