<svg xmlns="http://www.w3.org/2000/svg" width="20" height="20" viewBox="0 0 20 20" fill="none">
  <path d="M4.5833 14.1667C2.939 13.9612 1.6667 12.5554 1.6667 10.8518V8.3462C1.6667 6.0003 1.6667 4.8273 2.2284 3.9847 2.4716 3.6199 2.7841 3.3068 3.1481 3.063 3.9888 2.5 5.1592 2.5 7.5 2.5H12.5C14.8408 2.5 16.0112 2.5 16.8519 3.063 17.2158 3.3068 17.5283 3.6199 17.7716 3.9847 18.3333 4.8273 18.3333 6.0003 18.3333 8.3462V10.8518C18.3333 12.5554 17.061 13.9612 15.4167 14.1667" stroke="currentColor" stroke-linecap="round" stroke-linejoin="round" stroke-width="2"/>
  <path d="M12.4188 14.7029L11.2255 13.4101C10.6523 12.7892 10.3657 12.4787 10.0008 12.4787 9.636 12.4787 9.3493 12.7892 8.7762 13.4101L7.5828 14.7029C6.4758 15.9022 5.9223 16.5018 6.1408 17.0009 6.3593 17.5 7.1754 17.5 8.8075 17.5H11.1942C12.8263 17.5 13.6423 17.5 13.8609 17.0009 14.0794 16.5018 13.5259 15.9022 12.4188 14.7029Z" stroke="currentColor" stroke-linecap="round" stroke-linejoin="round" stroke-width="2"/>
</svg>
