<svg xmlns="http://www.w3.org/2000/svg" width="20" height="20" viewBox="0 0 20 20" fill="none">
  <path d="M8.3333 7.9167L4.3961 3.7297C4.0475 3.3537 4.1034 3.0791 4.5144 2.8414 5.2871 2.3944 5.8891 2.3823 6.7036 2.8293L10.7908 5.0723C11.0818 5.232 11.3672 5.3938 11.6667 5.4821" stroke="currentColor" stroke-linecap="round" stroke-linejoin="round" stroke-width="2"/>
  <path d="M10.4167 11.386L12.1753 17.0581C12.3188 17.5213 12.5717 17.6053 12.9633 17.3807 13.6997 16.9584 13.9965 16.4708 14.0164 15.5922L14.1162 11.1832C14.1296 10.5943 14.1272 10.0179 14.5833 9.5833" stroke="currentColor" stroke-linecap="round" stroke-linejoin="round" stroke-width="2"/>
  <path d="M6.9404 9.1536L8.5128 8.0046 12.203 5.3142C12.203 5.3142 13.5654 4.3133 14.3266 3.9798 15.2304 3.5839 16.0724 3.768 16.9782 4.021 17.4468 4.1518 17.6811 4.2172 17.8502 4.3393 18.1183 4.533 18.2928 4.8311 18.3286 5.1571 18.3513 5.3626 18.2915 5.5955 18.1721 6.0613L18.1721 6.0613C17.9412 6.9619 17.6818 7.7735 16.8823 8.3479 16.2091 8.8317 14.6494 9.4955 14.6494 9.4955L10.4431 11.3038 8.6485 12.073 8.6485 12.073C7.9978 12.3519 7.6725 12.4913 7.4512 12.7502 6.9328 13.3563 6.8596 14.4532 6.6661 15.2078 6.5592 15.6248 5.9729 16.3476 5.4505 16.2391 5.128 16.1721 5.1218 15.7683 5.0816 15.5109L4.6952 13.0324C4.6028 12.4397 4.5957 12.4276 4.1217 12.0523L2.1396 10.4828C1.9338 10.3197 1.5825 10.1125 1.685 9.8034 1.851 9.3027 2.7784 9.1631 3.1979 9.2803 3.9569 9.4923 4.9562 9.9782 5.7474 9.8382 6.0852 9.7784 6.3702 9.5702 6.9404 9.1536L6.9404 9.1536Z" stroke="currentColor" stroke-linecap="round" stroke-linejoin="round" stroke-width="2"/>
</svg>
