<svg xmlns="http://www.w3.org/2000/svg" width="20" height="20" viewBox="0 0 20 20" fill="none">
  <path d="M3.3349 12.5C2.4144 12.5 1.6682 11.7538 1.6682 10.8333V6.6667C1.6682 5.0953 1.6682 4.3096 2.1563 3.8215 2.6445 3.3333 3.4302 3.3333 5.0015 3.3333H15.0015C16.5728 3.3333 17.3586 3.3333 17.8467 3.8215 18.3348 4.3096 18.3348 5.0953 18.3348 6.6667V10.8333C18.3348 11.7538 17.5887 12.5 16.6682 12.5" stroke="currentColor" stroke-linecap="round" stroke-linejoin="round" stroke-width="2"/>
  <path d="M5.0015 8.3333H15.0015" stroke="currentColor" stroke-linecap="round" stroke-linejoin="round" stroke-width="2"/>
  <path d="M13.3348 12.5V13.3333C13.3348 15.1743 14.8273 16.6667 16.6682 16.6667" stroke="currentColor" stroke-linecap="round" stroke-linejoin="round" stroke-width="2"/>
  <path d="M6.6682 12.5V13.3333C6.6682 15.1743 5.1758 16.6667 3.3349 16.6667" stroke="currentColor" stroke-linecap="round" stroke-linejoin="round" stroke-width="2"/>
  <path d="M10.0015 16.6667V12.5" stroke="currentColor" stroke-linecap="round" stroke-linejoin="round" stroke-width="2"/>
</svg>
