<svg xmlns="http://www.w3.org/2000/svg" width="20" height="20" viewBox="0 0 20 20" fill="none">
  <path d="M15 1.6667V4.1667M5 1.6667V4.1667" stroke="currentColor" stroke-linecap="round" stroke-linejoin="round" stroke-width="2"/>
  <path d="M8.75 2.9167H11.25C14.3927 2.9167 15.9641 2.9167 16.9403 3.893 17.9167 4.8693 17.9167 6.4406 17.9167 9.5833V11.6667C17.9167 14.8093 17.9167 16.3808 16.9403 17.357 15.9641 18.3333 14.3927 18.3333 11.25 18.3333H8.75C5.6073 18.3333 4.036 18.3333 3.0596 17.357 2.0833 16.3808 2.0833 14.8093 2.0833 11.6667V9.5833C2.0833 6.4406 2.0833 4.8693 3.0596 3.893 4.036 2.9167 5.6073 2.9167 8.75 2.9167Z" stroke="currentColor" stroke-linecap="round" stroke-linejoin="round" stroke-width="2"/>
  <path d="M2.5 6.6667H17.5" stroke="currentColor" stroke-linecap="round" stroke-linejoin="round" stroke-width="2"/>
  <path d="M7.0363 12.1068C8.3772 11.9399 9.4399 10.8772 9.6068 9.5363 9.6321 9.3333 9.7954 9.1667 10 9.1667 10.2046 9.1667 10.3679 9.3333 10.3932 9.5363 10.5601 10.8772 11.6228 11.9399 12.9637 12.1068 13.1667 12.1321 13.3333 12.2954 13.3333 12.5 13.3333 12.7046 13.1667 12.8679 12.9637 12.8932 11.6228 13.0601 10.5601 14.1228 10.3932 15.4637 10.3679 15.6667 10.2046 15.8333 10 15.8333 9.7954 15.8333 9.6321 15.6667 9.6068 15.4637 9.4399 14.1228 8.3772 13.0601 7.0363 12.8932 6.8333 12.8679 6.6667 12.7046 6.6667 12.5 6.6667 12.2954 6.8333 12.1321 7.0363 12.1068Z" stroke="currentColor" stroke-linecap="round" stroke-linejoin="round" stroke-width="2"/>
</svg>
