<svg xmlns="http://www.w3.org/2000/svg" width="20" height="20" viewBox="0 0 20 20" fill="none">
  <path d="M2.0833 13.75C2.0833 14.5244 2.0833 14.9117 2.1474 15.2337 2.4104 16.5559 3.4441 17.5896 4.7664 17.8526 5.0884 17.9167 5.4756 17.9167 6.25 17.9167M17.9167 13.75C17.9167 14.5244 17.9167 14.9117 17.8526 15.2337 17.5896 16.5559 16.5559 17.5896 15.2337 17.8526 14.9117 17.9167 14.5244 17.9167 13.75 17.9167M17.9167 6.25C17.9167 5.4756 17.9167 5.0884 17.8526 4.7664 17.5896 3.4441 16.5559 2.4104 15.2337 2.1474 14.9117 2.0833 14.5244 2.0833 13.75 2.0833M2.0833 6.25C2.0833 5.4756 2.0833 5.0884 2.1474 4.7664 2.4104 3.4441 3.4441 2.4104 4.7664 2.1474 5.0884 2.0833 5.4756 2.0833 6.25 2.0833" stroke="currentColor" stroke-linecap="round" stroke-linejoin="round" stroke-width="2"/>
  <path d="M10 7.0833V5.4167M8.3333 9.5833V10M11.6667 9.5833V10M9.1667 7.0833H10.8333C12.4047 7.0833 13.1903 7.0833 13.6785 7.5715 14.1667 8.0596 14.1667 8.8453 14.1667 10.4167 14.1667 11.988 14.1667 12.7737 13.6785 13.2618 13.1903 13.75 12.4047 13.75 10.8333 13.75H9.1667C7.5953 13.75 6.8096 13.75 6.3215 13.2618 5.8333 12.7737 5.8333 11.988 5.8333 10.4167 5.8333 8.8453 5.8333 8.0596 6.3215 7.5715 6.8096 7.0833 7.5953 7.0833 9.1667 7.0833Z" stroke="currentColor" stroke-linecap="round" stroke-linejoin="round" stroke-width="2"/>
</svg>
