<svg xmlns="http://www.w3.org/2000/svg" width="20" height="20" viewBox="0 0 20 20" fill="none">
  <path d="M9.7308 7.2279C9.8562 7.0308 10.1438 7.0308 10.2693 7.2279L10.6322 7.7981C11.0334 8.4286 11.5682 8.9633 12.1987 9.3646L12.7688 9.7274C12.9659 9.8529 12.9659 10.1406 12.7688 10.266L12.1987 10.6289C11.5682 11.0302 11.0334 11.5649 10.6322 12.1954L10.2693 12.7656C10.1438 12.9627 9.8562 12.9627 9.7308 12.7656L9.3678 12.1954C8.9666 11.5649 8.4318 11.0302 7.8013 10.6289L7.2311 10.266C7.0341 10.1406 7.0341 9.8529 7.2311 9.7274L7.8013 9.3646C8.4318 8.9633 8.9666 8.4286 9.3678 7.7981L9.7308 7.2279Z" stroke="currentColor" stroke-linejoin="round" stroke-width="2"/>
  <path d="M3.2557 4.4032C5.7262 4.582 7.3193 2.0809 10.0218 2.0809 12.684 2.0278 13.9867 4.4366 16.7158 4.4366 18.1789 11.8838 15.1352 16.5619 10.0442 17.9134 5.3249 16.7917 1.779 12.0657 3.2557 4.4032Z" stroke="currentColor" stroke-linejoin="round" stroke-width="2"/>
</svg>
