<svg xmlns="http://www.w3.org/2000/svg" width="20" height="20" viewBox="0 0 20 20" fill="none">
  <path d="M12.9167 9.5833C12.9167 11.1942 11.6108 12.5 10 12.5 8.3892 12.5 7.0833 11.1942 7.0833 9.5833 7.0833 7.9725 8.3892 6.6667 10 6.6667 11.6108 6.6667 12.9167 7.9725 12.9167 9.5833Z" stroke="currentColor" stroke-width="2"/>
  <path d="M17.5 11.3329C17.7629 11.2612 18.0419 11.2224 18.3333 11.2224V7.9444C15.9527 7.9444 14.4047 5.3587 15.61 3.3058L12.7233 1.6668C11.5032 3.745 8.4982 3.745 7.278 1.6667L4.3913 3.3057C5.5966 5.3586 4.0473 7.9444 1.6667 7.9444V11.2224C4.0472 11.2224 5.5952 13.8081 4.39 15.861L7.2767 17.5C7.887 16.4606 8.9434 15.9408 10 15.9405" stroke="currentColor" stroke-linecap="round" stroke-linejoin="round" stroke-width="2"/>
  <path d="M15.4167 12.5L15.6316 13.0808C15.9134 13.8425 16.0543 14.2233 16.3322 14.5012 16.61 14.779 16.9908 14.9199 17.7525 15.2018L18.3333 15.4167 17.7525 15.6316C16.9908 15.9134 16.61 16.0543 16.3322 16.3322 16.0543 16.61 15.9134 16.9908 15.6316 17.7525L15.4167 18.3333 15.2018 17.7525C14.9199 16.9908 14.779 16.61 14.5012 16.3322 14.2233 16.0543 13.8425 15.9134 13.0808 15.6316L12.5 15.4167 13.0808 15.2018C13.8425 14.9199 14.2233 14.779 14.5012 14.5012 14.779 14.2233 14.9199 13.8425 15.2018 13.0808L15.4167 12.5Z" stroke="currentColor" stroke-linejoin="round" stroke-width="2"/>
</svg>
