<svg xmlns="http://www.w3.org/2000/svg" width="20" height="20" viewBox="0 0 20 20" fill="none">
  <path d="M12.0442 10.7457C11.918 11.2679 11.3214 11.637 10.1283 12.3752 8.9748 13.0887 8.3981 13.4455 7.9333 13.3021 7.7411 13.2427 7.566 13.1302 7.4249 12.975 7.0833 12.5998 7.0833 11.8721 7.0833 10.4167 7.0833 8.9613 7.0833 8.2335 7.4249 7.8583 7.566 7.7032 7.7411 7.5906 7.9333 7.5313 8.3981 7.3879 8.9748 7.7446 10.1283 8.4582 11.3214 9.1963 11.918 9.5654 12.0442 10.0877 12.0963 10.3033 12.0963 10.5301 12.0442 10.7457Z" stroke="currentColor" stroke-linejoin="round" stroke-width="2"/>
  <path d="M17.4981 9.1667C17.5 9.5584 17.5 9.9744 17.5 10.4167 17.5 14.1486 17.5 16.0146 16.3407 17.174 15.1813 18.3333 13.3153 18.3333 9.5833 18.3333 5.8514 18.3333 3.9854 18.3333 2.826 17.174 1.6667 16.0146 1.6667 14.1486 1.6667 10.4167 1.6667 6.6847 1.6667 4.8187 2.826 3.6594 3.9854 2.5 5.8514 2.5 9.5833 2.5 10.0256 2.5 10.4416 2.5 10.8333 2.5019" stroke="currentColor" stroke-linecap="round" stroke-width="2"/>
  <path d="M15.4167 1.6667L15.6316 2.2475C15.9134 3.0092 16.0543 3.39 16.3322 3.6678 16.61 3.9456 16.9908 4.0866 17.7525 4.3684L18.3333 4.5833 17.7525 4.7983C16.9908 5.0801 16.61 5.221 16.3322 5.4988 16.0543 5.7767 15.9134 6.1575 15.6316 6.9191L15.4167 7.5 15.2018 6.9191C14.9199 6.1575 14.779 5.7767 14.5012 5.4988 14.2233 5.221 13.8425 5.0801 13.0808 4.7983L12.5 4.5833 13.0808 4.3684C13.8425 4.0866 14.2233 3.9456 14.5012 3.6678 14.779 3.39 14.9199 3.0092 15.2018 2.2475L15.4167 1.6667Z" stroke="currentColor" stroke-linejoin="round" stroke-width="2"/>
</svg>
