<svg xmlns="http://www.w3.org/2000/svg" width="20" height="20" viewBox="0 0 20 20" fill="none">
  <path d="M3.9583 2.2917L5.8333 4.1667 5.8333 6.6667M3.9583 2.9167C4.3035 2.9167 4.5833 2.6368 4.5833 2.2917 4.5833 1.9465 4.3035 1.6667 3.9583 1.6667 3.6132 1.6667 3.3333 1.9465 3.3333 2.2917 3.3333 2.6368 3.6132 2.9167 3.9583 2.9167Z" stroke="currentColor" stroke-linecap="round" stroke-linejoin="round" stroke-width="2"/>
  <path d="M16.0417 2.2917L14.1667 4.1667 14.1667 6.6667M16.0417 2.9167C15.6965 2.9167 15.4167 2.6368 15.4167 2.2917 15.4167 1.9465 15.6965 1.6667 16.0417 1.6667 16.3868 1.6667 16.6667 1.9465 16.6667 2.2917 16.6667 2.6368 16.3868 2.9167 16.0417 2.9167Z" stroke="currentColor" stroke-linecap="round" stroke-linejoin="round" stroke-width="2"/>
  <path d="M10 2.2917L10 5.8333M10 2.9167C10.3452 2.9167 10.625 2.6368 10.625 2.2917 10.625 1.9465 10.3452 1.6667 10 1.6667 9.6548 1.6667 9.375 1.9465 9.375 2.2917 9.375 2.6368 9.6548 2.9167 10 2.9167Z" stroke="currentColor" stroke-linecap="round" stroke-linejoin="round" stroke-width="2"/>
  <path d="M12.5 13.3333C12.5 11.9526 11.3808 10.8333 10 10.8333 8.6193 10.8333 7.5 11.9526 7.5 13.3333 7.5 14.7141 8.6193 15.8333 10 15.8333 11.3808 15.8333 12.5 14.7141 12.5 13.3333Z" stroke="currentColor" stroke-width="2"/>
  <path d="M10 8.3333C15 8.3333 18.3333 13.3333 18.3333 13.3333 18.3333 13.3333 15 18.3333 10 18.3333 5 18.3333 1.6667 13.3333 1.6667 13.3333 1.6667 13.3333 5 8.3333 10 8.3333Z" stroke="currentColor" stroke-linejoin="round" stroke-width="2"/>
</svg>
