<svg xmlns="http://www.w3.org/2000/svg" width="20" height="20" viewBox="0 0 20 20" fill="none">
  <path d="M18.3333 10C18.3333 10 15.8333 15.8333 10 15.8333 4.1667 15.8333 1.6667 10 1.6667 10 1.6667 10 4.1667 4.1667 10 4.1667 15.4167 4.1667 18.3333 10 18.3333 10Z" stroke="currentColor" stroke-linejoin="round" stroke-width="2"/>
  <path d="M9.7308 7.2311C9.8562 7.0341 10.1438 7.0341 10.2693 7.2311L10.6322 7.8013C11.0334 8.4318 11.5682 8.9666 12.1987 9.3678L12.7688 9.7308C12.9659 9.8562 12.9659 10.1438 12.7688 10.2693L12.1987 10.6322C11.5682 11.0334 11.0334 11.5682 10.6322 12.1987L10.2693 12.7688C10.1438 12.9659 9.8562 12.9659 9.7308 12.7688L9.3678 12.1987C8.9666 11.5682 8.4318 11.0334 7.8013 10.6322L7.2311 10.2693C7.0341 10.1438 7.0341 9.8562 7.2311 9.7308L7.8013 9.3678C8.4318 8.9666 8.9666 8.4318 9.3678 7.8013L9.7308 7.2311Z" stroke="currentColor" stroke-linejoin="round" stroke-width="2"/>
</svg>
