<svg xmlns="http://www.w3.org/2000/svg" width="20" height="20" viewBox="0 0 20 20" fill="none">
  <path d="M7.5 9.1667V11.6667" stroke="currentColor" stroke-linecap="round" stroke-linejoin="round" stroke-width="2"/>
  <path d="M9.5833 2.5C6.0586 2.5 4.2962 2.5 3.1273 3.4983 2.9613 3.6401 2.8067 3.7947 2.665 3.9606 1.6667 5.1295 1.6667 6.8919 1.6667 10.4167 1.6667 13.9414 1.6667 15.7038 2.665 16.8727 2.8067 17.0387 2.9613 17.1933 3.1273 17.335 4.2962 18.3333 6.0586 18.3333 9.5833 18.3333 13.1081 18.3333 14.8705 18.3333 16.0393 17.335 16.2053 17.1933 16.3599 17.0387 16.5017 16.8727 17.5 15.7038 17.5 13.9414 17.5 10.4167" stroke="currentColor" stroke-linecap="round" stroke-linejoin="round" stroke-width="2"/>
  <path d="M10 6.6667V14.1667" stroke="currentColor" stroke-linecap="round" stroke-linejoin="round" stroke-width="2"/>
  <path d="M12.5 8.3333V12.5" stroke="currentColor" stroke-linecap="round" stroke-linejoin="round" stroke-width="2"/>
  <path d="M5 10V10.8333" stroke="currentColor" stroke-linecap="round" stroke-linejoin="round" stroke-width="2"/>
  <path d="M12.8234 4.2393C13.9967 4.0933 14.9266 3.1633 15.0726 1.9901 15.0948 1.8125 15.2377 1.6667 15.4167 1.6667 15.5957 1.6667 15.7386 1.8125 15.7608 1.9901 15.9068 3.1633 16.8367 4.0933 18.0099 4.2393 18.1875 4.2614 18.3333 4.4043 18.3333 4.5833 18.3333 4.7623 18.1875 4.9053 18.0099 4.9274 16.8367 5.0734 15.9068 6.0033 15.7608 7.1766 15.7386 7.3542 15.5957 7.5 15.4167 7.5 15.2377 7.5 15.0948 7.3542 15.0726 7.1766 14.9266 6.0033 13.9967 5.0734 12.8234 4.9274 12.6458 4.9053 12.5 4.7623 12.5 4.5833 12.5 4.4043 12.6458 4.2614 12.8234 4.2393Z" stroke="currentColor" stroke-linecap="round" stroke-linejoin="round" stroke-width="2"/>
</svg>
