<svg xmlns="http://www.w3.org/2000/svg" width="20" height="20" viewBox="0 0 20 20" fill="none">
  <path d="M3.3333 6.6667H16.6667C17.0542 6.6667 17.2479 6.6667 17.4068 6.6241 17.8382 6.5085 18.1752 6.1716 18.2907 5.7402 18.3333 5.5812 18.3333 5.3875 18.3333 5 18.3333 4.6125 18.3333 4.4188 18.2907 4.2598 18.1752 3.8284 17.8382 3.4915 17.4068 3.3759 17.2479 3.3333 17.0542 3.3333 16.6667 3.3333H3.3333C2.9458 3.3333 2.7521 3.3333 2.5931 3.3759 2.1618 3.4915 1.8248 3.8284 1.7093 4.2598 1.6667 4.4188 1.6667 4.6125 1.6667 5 1.6667 5.3875 1.6667 5.5812 1.7093 5.7402 1.8248 6.1716 2.1618 6.5085 2.5931 6.6241 2.7521 6.6667 2.9458 6.6667 3.3333 6.6667Z" stroke="currentColor" stroke-linecap="round" stroke-linejoin="round" stroke-width="2"/>
  <path d="M4.1667 6.6667L4.4514 7.2361C5.1238 8.5808 5.46 9.2532 6.0641 9.6267 6.6682 10 7.42 10 8.9235 10H11.0765C12.58 10 13.3318 10 13.9359 9.6267 14.54 9.2532 14.8763 8.5808 15.5487 7.2361L15.8333 6.6667H4.1667Z" stroke="currentColor" stroke-linecap="round" stroke-linejoin="round" stroke-width="2"/>
  <path d="M10 13.3333V16.6667" stroke="currentColor" stroke-linecap="round" stroke-linejoin="round" stroke-width="2"/>
  <path d="M13.3333 13.3333V16.6667" stroke="currentColor" stroke-linecap="round" stroke-linejoin="round" stroke-width="2"/>
  <path d="M6.6667 13.3333V16.6667" stroke="currentColor" stroke-linecap="round" stroke-linejoin="round" stroke-width="2"/>
</svg>
