<svg xmlns="http://www.w3.org/2000/svg" width="20" height="20" viewBox="0 0 20 20" fill="none">
  <path d="M10 17.5H10 10C13.5355 17.5 15.3033 17.5 16.4017 16.4017 17.5 15.3033 17.5 13.5355 17.5 10V10 10C17.5 6.4645 17.5 4.6967 16.4017 3.5983 15.3033 2.5 13.5355 2.5 10 2.5 6.4645 2.5 4.6967 2.5 3.5983 3.5983 2.5 4.6967 2.5 6.4645 2.5 10 2.5 13.5355 2.5 15.3033 3.5983 16.4017 4.6967 17.5 6.4645 17.5 10 17.5Z" stroke="currentColor" stroke-linecap="round" stroke-linejoin="round" stroke-width="2"/>
  <path d="M9.1667 2.5V6.4484C9.1667 8.1162 9.1667 8.95 9.5696 9.1348 9.9724 9.3194 10.4319 8.6962 11.3509 7.4497 11.5077 7.237 11.8257 7.2369 11.9824 7.4496 12.9014 8.6961 13.3609 9.3194 13.7638 9.1347 14.1667 8.95 14.1667 8.1161 14.1667 6.4483V2.9167" stroke="currentColor" stroke-linecap="round" stroke-linejoin="round" stroke-width="2"/>
</svg>
