<svg xmlns="http://www.w3.org/2000/svg" width="20" height="20" viewBox="0 0 20 20" fill="none">
  <path d="M1.6667 9.2548C2.2403 9.1963 2.8203 9.1674 3.4012 9.1684 5.8589 9.1319 8.2563 9.6696 10.1658 10.6853 10.7194 10.9799 11.2216 11.3091 11.6667 11.6667" stroke="currentColor" stroke-linejoin="round" stroke-width="2"/>
  <path d="M17.3508 17.3508C16.3682 18.3333 14.7868 18.3333 11.6241 18.3333 8.4613 18.3333 6.88 18.3333 5.8974 17.3508 5.3496 16.803 5.1073 16.0691 5 14.9787M14.9787 5C16.0691 5.1073 16.803 5.3496 17.3508 5.8974 18.3333 6.88 18.3333 8.4613 18.3333 11.6241 18.3333 12.8183 18.3333 13.7872 18.2804 14.5833" stroke="currentColor" stroke-linecap="round" stroke-width="2"/>
  <path d="M14.0237 14.0237C13.0474 15 11.476 15 8.3333 15 5.1906 15 3.6193 15 2.643 14.0237 1.6667 13.0474 1.6667 11.476 1.6667 8.3333 1.6667 5.1906 1.6667 3.6193 2.643 2.643M5.4167 1.7177C6.2033 1.6667 7.1585 1.6667 8.3333 1.6667 11.476 1.6667 13.0474 1.6667 14.0237 2.643 15 3.6193 15 5.1906 15 8.3333 15 9.5082 15 10.4633 14.949 11.25" stroke="currentColor" stroke-linecap="round" stroke-width="2"/>
  <path d="M1.6667 1.6667L18.3333 18.3333" stroke="currentColor" stroke-linecap="round" stroke-linejoin="round" stroke-width="2"/>
  <path d="M10.9375 5.8333H10.8333M11.0417 5.8333C11.0417 5.9484 10.9484 6.0417 10.8333 6.0417 10.7183 6.0417 10.625 5.9484 10.625 5.8333 10.625 5.7183 10.7183 5.625 10.8333 5.625 10.9484 5.625 11.0417 5.7183 11.0417 5.8333Z" stroke="currentColor" stroke-linecap="round" stroke-width="2"/>
</svg>
