<svg xmlns="http://www.w3.org/2000/svg" width="20" height="20" viewBox="0 0 20 20" fill="none">
  <path d="M5 14.9787C5.1073 16.0691 5.3496 16.803 5.8974 17.3508 6.88 18.3333 8.4613 18.3333 11.6241 18.3333 14.7868 18.3333 16.3682 18.3333 17.3508 17.3508 18.3333 16.3682 18.3333 14.7868 18.3333 11.6241 18.3333 8.4613 18.3333 6.88 17.3508 5.8974 16.803 5.3496 16.0691 5.1073 14.9787 5" stroke="currentColor" stroke-width="2"/>
  <path d="M1.6667 8.3333C1.6667 5.1906 1.6667 3.6193 2.643 2.643 3.6193 1.6667 5.1906 1.6667 8.3333 1.6667 11.476 1.6667 13.0474 1.6667 14.0237 2.643 15 3.6193 15 5.1906 15 8.3333 15 11.476 15 13.0474 14.0237 14.0237 13.0474 15 11.476 15 8.3333 15 5.1906 15 3.6193 15 2.643 14.0237 1.6667 13.0474 1.6667 11.476 1.6667 8.3333Z" stroke="currentColor" stroke-width="2"/>
  <path d="M1.6667 9.2654C2.1825 9.1998 2.704 9.1675 3.2264 9.1686 5.4364 9.1278 7.5922 9.7302 9.3093 10.8687 10.9017 11.9245 12.0206 13.3775 12.5 15" stroke="currentColor" stroke-linejoin="round" stroke-width="2"/>
  <path d="M10.9375 5.8333H10.8333M11.0417 5.8333C11.0417 5.9484 10.9484 6.0417 10.8333 6.0417 10.7183 6.0417 10.625 5.9484 10.625 5.8333 10.625 5.7183 10.7183 5.625 10.8333 5.625 10.9484 5.625 11.0417 5.7183 11.0417 5.8333Z" stroke="currentColor" stroke-linecap="round" stroke-width="2"/>
</svg>
