<svg xmlns="http://www.w3.org/2000/svg" width="20" height="20" viewBox="0 0 20 20" fill="none">
  <path d="M4.9341 4.9341C6.7986 3.0695 7.7309 2.1372 8.8214 1.8297 9.5921 1.6123 10.4079 1.6123 11.1786 1.8297 12.2691 2.1372 13.2013 3.0695 15.0659 4.9341 16.9305 6.7986 17.8628 7.7309 18.1703 8.8214 18.3877 9.5921 18.3877 10.4079 18.1703 11.1786 17.8628 12.2691 16.9305 13.2013 15.0659 15.0659 13.2013 16.9305 12.2691 17.8628 11.1786 18.1703 10.4079 18.3877 9.5921 18.3877 8.8214 18.1703 7.7309 17.8628 6.7986 16.9305 4.9341 15.0659 3.0695 13.2013 2.1372 12.2691 1.8297 11.1786 1.6123 10.4079 1.6123 9.5921 1.8297 8.8214 2.1372 7.7309 3.0695 6.7986 4.9341 4.9341Z" stroke="currentColor" stroke-linecap="round" stroke-linejoin="round" stroke-width="2"/>
  <path d="M10 6.6667V10" stroke="currentColor" stroke-linecap="round" stroke-linejoin="round" stroke-width="2"/>
  <path d="M10.1042 13.125H10M10.2083 13.125C10.2083 13.2401 10.1151 13.3333 10 13.3333 9.8849 13.3333 9.7917 13.2401 9.7917 13.125 9.7917 13.0099 9.8849 12.9167 10 12.9167 10.1151 12.9167 10.2083 13.0099 10.2083 13.125Z" stroke="currentColor" stroke-linecap="round" stroke-linejoin="round" stroke-width="2"/>
</svg>
