<svg xmlns="http://www.w3.org/2000/svg" width="20" height="20" viewBox="0 0 20 20" fill="none">
  <path d="M6.1111 8.3333H5.4167C5.1866 8.3333 5 8.5199 5 8.75V9.4444C5 10.6718 5.9949 11.6667 7.2222 11.6667H7.9167C8.1468 11.6667 8.3333 11.4801 8.3333 11.25V10.5556C8.3333 9.3283 7.3384 8.3333 6.1111 8.3333Z" stroke="currentColor" stroke-linejoin="round" stroke-width="2"/>
  <path d="M13.8889 8.3333H14.1667C14.5595 8.3333 14.7559 8.3333 14.878 8.4553 15 8.5774 15 8.7738 15 9.1667V9.4444C15 10.6718 14.0051 11.6667 12.7777 11.6667H12.5C12.1072 11.6667 11.9108 11.6667 11.7887 11.5447 11.6667 11.4226 11.6667 11.2262 11.6667 10.8333V10.5556C11.6667 9.3283 12.6616 8.3333 13.8889 8.3333Z" stroke="currentColor" stroke-linejoin="round" stroke-width="2"/>
  <path d="M9.1667 15H10.8333" stroke="currentColor" stroke-linecap="round" stroke-linejoin="round" stroke-width="2"/>
  <path d="M17.5 9.1667C17.5 13.769 12.5 18.3333 10 18.3333 7.5 18.3333 2.5 13.769 2.5 9.1667 2.5 4.5643 5.8579 1.6667 10 1.6667 14.1422 1.6667 17.5 4.5643 17.5 9.1667Z" stroke="currentColor" stroke-linecap="round" stroke-linejoin="round" stroke-width="2"/>
</svg>
