<svg xmlns="http://www.w3.org/2000/svg" width="20" height="20" viewBox="0 0 20 20" fill="none">
  <path d="M12.5012 8.324C12.5012 9.7025 11.383 10.82 10.0036 10.82 8.6242 10.82 7.506 9.7025 7.506 8.324 7.506 6.9455 8.6242 5.828 10.0036 5.828 11.383 5.828 12.5012 6.9455 12.5012 8.324Z" stroke="currentColor" stroke-linecap="round" stroke-width="2"/>
  <path d="M17.0804 1.668C16.9416 2.4168 16.2478 3.9643 14.5828 4.164" stroke="currentColor" stroke-linecap="round" stroke-width="2"/>
  <path d="M2.9276 1.668C3.0663 2.4168 3.7601 3.9643 5.4251 4.164" stroke="currentColor" stroke-linecap="round" stroke-width="2"/>
  <path d="M7.3668 3.078C4.6553 4.2851 3.7034 7.1868 3.7674 8.7216 2.8316 8.6577 1.6856 8.7625 1.668 9.9593 1.6504 11.1559 2.8876 11.3675 3.7674 11.2236V16.5634C3.7822 17.0053 3.8219 17.5836 4.2794 17.7864 5.3432 18.2581 6.239 16.8272 7.2124 16.8928 7.9691 16.9438 9.0645 18.4091 10.0277 18.3288 11.1433 18.2359 12.0018 16.8974 12.8548 16.8974 13.8664 16.8974 14.0436 17.7312 15.2617 17.8641 16.1702 17.9631 16.2625 17.0968 16.2625 16.6305V11.2337C17.8369 11.4288 18.4609 10.7314 18.3104 9.7489 18.1329 8.5896 16.7716 8.6724 16.2297 8.7465 16.314 7.8844 15.9253 6.7964 15.7575 6.3699 15.5102 5.6107 14.4937 3.816 12.3101 2.9262 10.1263 2.0363 8.0947 2.6944 7.3668 3.078Z" stroke="currentColor" stroke-linecap="round" stroke-linejoin="round" stroke-width="2"/>
  <path d="M10.1037 14.168H9.9995M10.2078 14.168C10.2078 14.2831 10.1146 14.3763 9.9995 14.3763 9.8844 14.3763 9.7912 14.2831 9.7912 14.168 9.7912 14.0529 9.8844 13.9597 9.9995 13.9597 10.1146 13.9597 10.2078 14.0529 10.2078 14.168Z" stroke="currentColor" stroke-linecap="round" stroke-linejoin="round" stroke-width="2"/>
</svg>
