<svg xmlns="http://www.w3.org/2000/svg" width="20" height="20" viewBox="0 0 20 20" fill="none">
  <path d="M7.5 4.1667L15.8333 4.1667C16.7538 4.1667 17.5 4.9129 17.5 5.8333V6.6667C17.5 7.5871 16.7538 8.3333 15.8333 8.3333H7.5C6.5795 8.3333 5.8333 7.5871 5.8333 6.6667V5.8333C5.8333 4.9129 6.5795 4.1667 7.5 4.1667Z" stroke="currentColor" stroke-linecap="round" stroke-linejoin="round" stroke-width="2"/>
  <path d="M7.5 11.6667L10.8333 11.6667C11.7538 11.6667 12.5 12.4128 12.5 13.3333V14.1667C12.5 15.0872 11.7538 15.8333 10.8333 15.8333H7.5C6.5795 15.8333 5.8333 15.0872 5.8333 14.1667V13.3333C5.8333 12.4128 6.5795 11.6667 7.5 11.6667Z" stroke="currentColor" stroke-linecap="round" stroke-linejoin="round" stroke-width="2"/>
  <path d="M2.5 2.5V17.5" stroke="currentColor" stroke-linecap="round" stroke-linejoin="round" stroke-width="2"/>
</svg>
