<svg xmlns="http://www.w3.org/2000/svg" width="20" height="20" viewBox="0 0 20 20" fill="none">
  <path d="M13.7517 6.6666C14.4548 6.6666 15.2665 6.5971 15.6675 7.2916 15.835 7.5816 15.835 7.9711 15.835 8.7499V9.5833C15.835 10.3621 15.835 10.7515 15.6675 11.0416 15.2665 11.736 14.4548 11.6666 13.7517 11.6666 13.0484 11.6666 12.2368 11.736 11.8358 11.0416 11.6683 10.7515 11.6683 10.3621 11.6683 9.5833L11.6683 8.7499C11.6683 7.9711 11.6683 7.5816 11.8358 7.2916 12.2368 6.5971 13.0484 6.6666 13.7517 6.6666Z" stroke="currentColor" stroke-linecap="round" stroke-linejoin="round" stroke-width="2"/>
  <path d="M6.2516 6.6666C6.9549 6.6666 7.7665 6.5971 8.1675 7.2916 8.335 7.5816 8.335 7.9711 8.335 8.7499L8.335 14.5833C8.335 15.3621 8.335 15.7515 8.1675 16.0416 7.7665 16.736 6.9549 16.6666 6.2516 16.6666 5.5484 16.6666 4.7367 16.736 4.3358 16.0416 4.1683 15.7515 4.1683 15.3621 4.1683 14.5833L4.1683 8.7499C4.1683 7.9711 4.1683 7.5816 4.3358 7.2916 4.7367 6.5971 5.5484 6.6666 6.2516 6.6666Z" stroke="currentColor" stroke-linecap="round" stroke-linejoin="round" stroke-width="2"/>
  <path d="M18.3333 3.3333L1.6667 3.3333" stroke="currentColor" stroke-linecap="round" stroke-linejoin="round" stroke-width="2"/>
</svg>
