<svg xmlns="http://www.w3.org/2000/svg" width="20" height="20" viewBox="0 0 20 20" fill="none">
  <path d="M13.7517 8.3353C14.4548 8.3353 15.2665 8.2658 15.6675 8.9603 15.835 9.2503 15.835 9.6398 15.835 10.4186V11.2519C15.835 12.0307 15.835 12.4202 15.6675 12.7103 15.2665 13.4047 14.4548 13.3353 13.7517 13.3353 13.0484 13.3353 12.2368 13.4047 11.8358 12.7103 11.6683 12.4202 11.6683 12.0307 11.6683 11.2519L11.6683 10.4186C11.6683 9.6398 11.6683 9.2503 11.8358 8.9603 12.2368 8.2658 13.0484 8.3353 13.7517 8.3353Z" stroke="currentColor" stroke-linecap="round" stroke-linejoin="round" stroke-width="2"/>
  <path d="M6.2516 3.3353C6.9549 3.3353 7.7665 3.2658 8.1675 3.9603 8.335 4.2503 8.335 4.6398 8.335 5.4186L8.335 11.2519C8.335 12.0307 8.335 12.4202 8.1675 12.7103 7.7665 13.4047 6.9549 13.3353 6.2516 13.3353 5.5484 13.3353 4.7367 13.4047 4.3358 12.7103 4.1683 12.4202 4.1683 12.0307 4.1683 11.2519L4.1683 5.4186C4.1683 4.6398 4.1683 4.2503 4.3358 3.9603 4.7367 3.2658 5.5484 3.3353 6.2516 3.3353Z" stroke="currentColor" stroke-linecap="round" stroke-linejoin="round" stroke-width="2"/>
  <path d="M18.3333 16.6667L1.6667 16.6667" stroke="currentColor" stroke-linecap="round" stroke-linejoin="round" stroke-width="2"/>
</svg>
