<svg xmlns="http://www.w3.org/2000/svg" width="20" height="20" viewBox="0 0 20 20" fill="none">
  <path d="M15.8333 1.6667V18.3333" stroke="currentColor" stroke-linecap="round" stroke-linejoin="round" stroke-width="2"/>
  <path d="M4.1667 1.6667V18.3333" stroke="currentColor" stroke-linecap="round" stroke-linejoin="round" stroke-width="2"/>
  <path d="M7.9167 7.9167V12.0808C7.9167 12.4681 7.9167 12.6617 7.9487 12.8227 8.0802 13.4838 8.597 14.0007 9.2582 14.1322 9.4192 14.1642 9.6128 14.1642 10 14.1642 10.3873 14.1642 10.5808 14.1642 10.7418 14.1322 11.403 14.0007 11.9198 13.4838 12.0513 12.8227 12.0833 12.6617 12.0833 12.4681 12.0833 12.0808V7.9167C12.0833 7.5294 12.0833 7.3359 12.0513 7.1748 11.9198 6.5137 11.403 5.9969 10.7418 5.8654 10.5808 5.8333 10.3873 5.8333 10 5.8333 9.6128 5.8333 9.4192 5.8333 9.2582 5.8654 8.597 5.9969 8.0802 6.5137 7.9487 7.1748 7.9167 7.3359 7.9167 7.5294 7.9167 7.9167Z" stroke="currentColor" stroke-linecap="round" stroke-linejoin="round" stroke-width="2"/>
</svg>
