<svg xmlns="http://www.w3.org/2000/svg" width="20" height="20" viewBox="0 0 20 20" fill="none">
  <path d="M10 15.8333L10 18.3333" stroke="currentColor" stroke-linecap="round" stroke-linejoin="round" stroke-width="2"/>
  <path d="M10 8.3333L10 11.6667" stroke="currentColor" stroke-linecap="round" stroke-linejoin="round" stroke-width="2"/>
  <path d="M10 1.6667L10 4.1667" stroke="currentColor" stroke-linecap="round" stroke-linejoin="round" stroke-width="2"/>
  <path d="M6.667 6.25C6.667 5.5468 6.5975 4.7351 7.292 4.3341 7.582 4.1667 7.9715 4.1667 8.7503 4.1667H11.2503C12.0292 4.1667 12.4186 4.1667 12.7087 4.3341 13.4031 4.7351 13.3337 5.5468 13.3337 6.25 13.3337 6.9532 13.4031 7.7649 12.7087 8.1659 12.4186 8.3333 12.0292 8.3333 11.2503 8.3333H8.7503C7.9715 8.3333 7.582 8.3333 7.292 8.1659 6.5975 7.7649 6.667 6.9532 6.667 6.25Z" stroke="currentColor" stroke-linecap="round" stroke-linejoin="round" stroke-width="2"/>
  <path d="M3.3336 13.75C3.3336 13.0468 3.2642 12.2351 3.9586 11.8342 4.2487 11.6667 4.6381 11.6667 5.417 11.6667H14.5837C15.3625 11.6667 15.7519 11.6667 16.042 11.8342 16.7364 12.2351 16.667 13.0468 16.667 13.75 16.667 14.4533 16.7364 15.2649 16.042 15.6658 15.7519 15.8333 15.3625 15.8333 14.5837 15.8333H5.417C4.6381 15.8333 4.2487 15.8333 3.9586 15.6658 3.2642 15.2649 3.3336 14.4533 3.3336 13.75Z" stroke="currentColor" stroke-linecap="round" stroke-linejoin="round" stroke-width="2"/>
</svg>
