<svg xmlns="http://www.w3.org/2000/svg" width="20" height="20" viewBox="0 0 20 20" fill="none">
  <path d="M2.5 9.1667C2.5 6.0419 2.5 4.4795 3.2958 3.3842 3.5528 3.0305 3.8638 2.7194 4.2176 2.4624 5.3128 1.6667 6.8752 1.6667 10 1.6667 13.1248 1.6667 14.6872 1.6667 15.7824 2.4624 16.1362 2.7194 16.4473 3.0305 16.7043 3.3842 17.5 4.4795 17.5 6.0419 17.5 9.1667V10.8333C17.5 13.9581 17.5 15.5205 16.7043 16.6158 16.4473 16.9695 16.1362 17.2806 15.7824 17.5376 14.6872 18.3333 13.1248 18.3333 10 18.3333 6.8752 18.3333 5.3128 18.3333 4.2176 17.5376 3.8638 17.2806 3.5528 16.9695 3.2958 16.6158 2.5 15.5205 2.5 13.9581 2.5 10.8333V9.1667Z" stroke="currentColor" stroke-linecap="round" stroke-linejoin="round" stroke-width="2"/>
  <path d="M12.5 5.8333L5.8333 5.8333M8.3333 10H5.8333" stroke="currentColor" stroke-linecap="round" stroke-linejoin="round" stroke-width="2"/>
</svg>
