<svg xmlns="http://www.w3.org/2000/svg" width="20" height="20" viewBox="0 0 20 20" fill="none">
  <path d="M4.1667 7.5L4.1667 15.8333C4.1667 16.7538 4.9129 17.5 5.8333 17.5H6.6667C7.5871 17.5 8.3333 16.7538 8.3333 15.8333L8.3333 7.5C8.3333 6.5795 7.5871 5.8333 6.6667 5.8333H5.8333C4.9129 5.8333 4.1667 6.5795 4.1667 7.5Z" stroke="currentColor" stroke-linecap="round" stroke-linejoin="round" stroke-width="2"/>
  <path d="M11.6667 7.5L11.6667 10.8333C11.6667 11.7538 12.4128 12.5 13.3333 12.5H14.1667C15.0872 12.5 15.8333 11.7538 15.8333 10.8333V7.5C15.8333 6.5795 15.0872 5.8333 14.1667 5.8333H13.3333C12.4128 5.8333 11.6667 6.5795 11.6667 7.5Z" stroke="currentColor" stroke-linecap="round" stroke-linejoin="round" stroke-width="2"/>
  <path d="M2.5 2.5H17.5" stroke="currentColor" stroke-linecap="round" stroke-linejoin="round" stroke-width="2"/>
</svg>
