<svg xmlns="http://www.w3.org/2000/svg" width="20" height="20" viewBox="0 0 20 20" fill="none">
  <path d="M13.75 6.6667V2.5M13.75 13.75V17.5" stroke="currentColor" stroke-linecap="round" stroke-linejoin="round" stroke-width="2"/>
  <path d="M6.25 5V2.5M6.25 15.4167V17.5" stroke="currentColor" stroke-linecap="round" stroke-linejoin="round" stroke-width="2"/>
  <path d="M6.25 5.0003C6.9532 5.0003 7.7649 4.9308 8.1659 5.6253 8.3333 5.9154 8.3333 6.3048 8.3333 7.0836L8.3333 12.917C8.3333 13.6958 8.3333 14.0853 8.1659 14.3753 7.7649 15.0698 6.9532 15.0003 6.25 15.0003 5.5468 15.0003 4.7351 15.0698 4.3341 14.3753 4.1667 14.0853 4.1667 13.6958 4.1667 12.917L4.1667 7.0836C4.1667 6.3048 4.1667 5.9154 4.3341 5.6253 4.7351 4.9308 5.5468 5.0003 6.25 5.0003Z" stroke="currentColor" stroke-linecap="round" stroke-linejoin="round" stroke-width="2"/>
  <path d="M13.75 6.667C14.4533 6.667 15.2649 6.5975 15.6658 7.292 15.8333 7.582 15.8333 7.9715 15.8333 8.7503L15.8333 11.2503C15.8333 12.0292 15.8333 12.4186 15.6658 12.7087 15.2649 13.4031 14.4533 13.3337 13.75 13.3337 13.0468 13.3337 12.2351 13.4031 11.8342 12.7087 11.6667 12.4186 11.6667 12.0292 11.6667 11.2503L11.6667 8.7503C11.6667 7.9715 11.6667 7.582 11.8342 7.292 12.2351 6.5975 13.0468 6.667 13.75 6.667Z" stroke="currentColor" stroke-linecap="round" stroke-linejoin="round" stroke-width="2"/>
</svg>
