<svg xmlns="http://www.w3.org/2000/svg" width="20" height="20" viewBox="0 0 20 20" fill="none">
  <path d="M16.6667 4.9914V9.9809M15 3.3283H5M8.3333 16.6337H5M3.3333 14.9705V4.9914" stroke="currentColor" stroke-linecap="round" stroke-linejoin="round" stroke-width="2"/>
  <path d="M18.3333 3.3282C18.3333 4.2468 17.5872 4.9914 16.6667 4.9914 15.7462 4.9914 15 4.2468 15 3.3282 15 2.4097 15.7462 1.665 16.6667 1.665 17.5872 1.665 18.3333 2.4097 18.3333 3.3282Z" stroke="currentColor" stroke-width="2"/>
  <path d="M5 3.3282C5 4.2468 4.2538 4.9914 3.3333 4.9914 2.4129 4.9914 1.6667 4.2468 1.6667 3.3282 1.6667 2.4097 2.4129 1.665 3.3333 1.665 4.2538 1.665 5 2.4097 5 3.3282Z" stroke="currentColor" stroke-width="2"/>
  <path d="M5 16.6337C5 17.5523 4.2538 18.2968 3.3333 18.2968 2.4129 18.2968 1.6667 17.5523 1.6667 16.6337 1.6667 15.7151 2.4129 14.9705 3.3333 14.9705 4.2538 14.9705 5 15.7151 5 16.6337Z" stroke="currentColor" stroke-width="2"/>
  <path d="M12.9482 16.1766L14.9999 13.9969M14.9999 13.9969L16.2381 12.6729C16.39 12.5522 16.7181 12.3482 17.1612 12.7541 17.5618 13.121 18.0873 13.6919 18.3236 13.9587M14.9999 13.9969L16.2533 15.3606M13.3318 17.0719C13.3318 17.7692 12.7702 18.3345 12.0777 18.3345 11.3851 18.3345 10.8236 17.7692 10.8236 17.0719 10.8236 16.3746 11.3851 15.8093 12.0777 15.8093 12.7702 15.8093 13.3318 16.3746 13.3318 17.0719Z" stroke="currentColor" stroke-linecap="round" stroke-width="2"/>
</svg>
