<svg xmlns="http://www.w3.org/2000/svg" width="20" height="20" viewBox="0 0 20 20" fill="none">
  <path d="M11.6667 1.6667V18.3333" stroke="currentColor" stroke-linecap="round" stroke-linejoin="round" stroke-width="2"/>
  <path d="M4.1667 1.6667V18.3333" stroke="currentColor" stroke-linecap="round" stroke-linejoin="round" stroke-width="2"/>
  <path d="M4.1667 6.25V13.7475C4.1667 14.1348 4.1667 14.3283 4.1987 14.4893 4.3302 15.1505 4.847 15.6673 5.5082 15.7988 5.6692 15.8308 5.8628 15.8308 6.25 15.8308 6.6372 15.8308 6.8308 15.8308 6.9918 15.7988 7.653 15.6673 8.1698 15.1505 8.3013 14.4893 8.3333 14.3283 8.3333 14.1348 8.3333 13.7475V6.25C8.3333 5.8628 8.3333 5.6692 8.3013 5.5082 8.1698 4.847 7.653 4.3302 6.9918 4.1987 6.8308 4.1667 6.6372 4.1667 6.25 4.1667 5.8628 4.1667 5.6692 4.1667 5.5082 4.1987 4.847 4.3302 4.3302 4.847 4.1987 5.5082 4.1667 5.6692 4.1667 5.8628 4.1667 6.25Z" stroke="currentColor" stroke-linecap="round" stroke-linejoin="round" stroke-width="2"/>
  <path d="M11.6667 8.75V11.2475C11.6667 11.6348 11.6667 11.8283 11.6987 11.9893 11.8302 12.6505 12.347 13.1673 13.0082 13.2988 13.1692 13.3308 13.3628 13.3308 13.75 13.3308 14.1373 13.3308 14.3308 13.3308 14.4918 13.2988 15.153 13.1673 15.6698 12.6505 15.8013 11.9893 15.8333 11.8283 15.8333 11.6348 15.8333 11.2475V8.75C15.8333 8.3628 15.8333 8.1692 15.8013 8.0082 15.6698 7.347 15.153 6.8302 14.4918 6.6987 14.3308 6.6667 14.1373 6.6667 13.75 6.6667 13.3628 6.6667 13.1692 6.6667 13.0082 6.6987 12.347 6.8302 11.8302 7.347 11.6987 8.0082 11.6667 8.1692 11.6667 8.3628 11.6667 8.75Z" stroke="currentColor" stroke-linecap="round" stroke-linejoin="round" stroke-width="2"/>
</svg>
