<svg xmlns="http://www.w3.org/2000/svg" width="20" height="20" viewBox="0 0 20 20" fill="none">
  <path d="M17.5 1.6667V18.3333" stroke="currentColor" stroke-linecap="round" stroke-linejoin="round" stroke-width="2"/>
  <path d="M14.1667 6.25V13.7475C14.1667 14.1348 14.1667 14.3283 14.1347 14.4893 14.0032 15.1505 13.4863 15.6673 12.8252 15.7988 12.6642 15.8308 12.4706 15.8308 12.0833 15.8308 11.6961 15.8308 11.5025 15.8308 11.3415 15.7988 10.6803 15.6673 10.1635 15.1505 10.032 14.4893 10 14.3283 10 14.1348 10 13.7475V6.25C10 5.8628 10 5.6692 10.032 5.5082 10.1635 4.847 10.6803 4.3302 11.3415 4.1987 11.5025 4.1667 11.6961 4.1667 12.0833 4.1667 12.4706 4.1667 12.6642 4.1667 12.8252 4.1987 13.4863 4.3302 14.0032 4.847 14.1347 5.5082 14.1667 5.6692 14.1667 5.8628 14.1667 6.25Z" stroke="currentColor" stroke-linecap="round" stroke-linejoin="round" stroke-width="2"/>
  <path d="M6.6667 8.75V11.2475C6.6667 11.6348 6.6667 11.8283 6.6346 11.9893 6.5031 12.6505 5.9863 13.1673 5.3251 13.2988 5.1642 13.3308 4.9706 13.3308 4.5833 13.3308 4.1961 13.3308 4.0025 13.3308 3.8415 13.2988 3.1804 13.1673 2.6635 12.6505 2.532 11.9893 2.5 11.8283 2.5 11.6348 2.5 11.2475V8.75C2.5 8.3628 2.5 8.1692 2.532 8.0082 2.6635 7.347 3.1804 6.8302 3.8415 6.6987 4.0025 6.6667 4.1961 6.6667 4.5833 6.6667 4.9706 6.6667 5.1642 6.6667 5.3251 6.6987 5.9863 6.8302 6.5031 7.347 6.6346 8.0082 6.6667 8.1692 6.6667 8.3628 6.6667 8.75Z" stroke="currentColor" stroke-linecap="round" stroke-linejoin="round" stroke-width="2"/>
</svg>
