<svg xmlns="http://www.w3.org/2000/svg" width="20" height="20" viewBox="0 0 20 20" fill="none">
  <path d="M10 17.5V2.5" stroke="currentColor" stroke-linecap="round" stroke-linejoin="round" stroke-width="2"/>
  <path d="M15.4167 6.6686C16.1199 6.6686 16.9316 6.5991 17.3325 7.2936 17.5 7.5837 17.5 7.9731 17.5 8.7519L17.5 11.2519C17.5 12.0307 17.5 12.4202 17.3325 12.7103 16.9316 13.4047 16.1199 13.3353 15.4167 13.3353 14.7134 13.3353 13.9017 13.4047 13.5008 12.7103 13.3333 12.4202 13.3333 12.0307 13.3333 11.2519L13.3333 8.7519C13.3333 7.9731 13.3333 7.5837 13.5008 7.2936 13.9017 6.5991 14.7134 6.6686 15.4167 6.6686Z" stroke="currentColor" stroke-linecap="round" stroke-linejoin="round" stroke-width="2"/>
  <path d="M4.5833 5.0019C5.2866 5.0019 6.0982 4.9325 6.4992 5.6269 6.6667 5.917 6.6667 6.3064 6.6667 7.0853L6.6667 12.9186C6.6667 13.6974 6.6667 14.0868 6.4992 14.3769 6.0982 15.0714 5.2866 15.0019 4.5833 15.0019 3.8801 15.0019 3.0684 15.0714 2.6675 14.3769 2.5 14.0868 2.5 13.6974 2.5 12.9186L2.5 7.0853C2.5 6.3064 2.5 5.917 2.6675 5.6269 3.0684 4.9325 3.8801 5.0019 4.5833 5.0019Z" stroke="currentColor" stroke-linecap="round" stroke-linejoin="round" stroke-width="2"/>
</svg>
