<svg xmlns="http://www.w3.org/2000/svg" width="20" height="20" viewBox="0 0 20 20" fill="none">
  <path d="M16.6667 5V15M15 3.3333H5M15 16.6667H5M3.3333 15V5" stroke="currentColor" stroke-linecap="round" stroke-linejoin="round" stroke-width="2"/>
  <path d="M18.3333 3.3333C18.3333 4.2538 17.5872 5 16.6667 5 15.7462 5 15 4.2538 15 3.3333 15 2.4129 15.7462 1.6667 16.6667 1.6667 17.5872 1.6667 18.3333 2.4129 18.3333 3.3333Z" stroke="currentColor" stroke-width="2"/>
  <path d="M5 3.3333C5 4.2538 4.2538 5 3.3333 5 2.4129 5 1.6667 4.2538 1.6667 3.3333 1.6667 2.4129 2.4129 1.6667 3.3333 1.6667 4.2538 1.6667 5 2.4129 5 3.3333Z" stroke="currentColor" stroke-width="2"/>
  <path d="M18.3333 16.6667C18.3333 17.5872 17.5872 18.3333 16.6667 18.3333 15.7462 18.3333 15 17.5872 15 16.6667 15 15.7462 15.7462 15 16.6667 15 17.5872 15 18.3333 15.7462 18.3333 16.6667Z" stroke="currentColor" stroke-width="2"/>
  <path d="M5 16.6667C5 17.5872 4.2538 18.3333 3.3333 18.3333 2.4129 18.3333 1.6667 17.5872 1.6667 16.6667 1.6667 15.7462 2.4129 15 3.3333 15 4.2538 15 5 15.7462 5 16.6667Z" stroke="currentColor" stroke-width="2"/>
</svg>
