<svg xmlns="http://www.w3.org/2000/svg" width="20" height="20" viewBox="0 0 20 20" fill="none">
  <path d="M17.5 17.5L2.5 17.5" stroke="currentColor" stroke-linecap="round" stroke-linejoin="round" stroke-width="2"/>
  <path d="M5.0019 12.0833C5.0019 11.3801 4.9325 10.5684 5.6269 10.1675 5.917 10 6.3064 10 7.0853 10L12.9186 10C13.6974 10 14.0868 10 14.3769 10.1675 15.0714 10.5684 15.0019 11.3801 15.0019 12.0833 15.0019 12.7866 15.0714 13.5983 14.3769 13.9992 14.0868 14.1667 13.6974 14.1667 12.9186 14.1667H7.0853C6.3064 14.1667 5.917 14.1667 5.6269 13.9992 4.9325 13.5983 5.0019 12.7866 5.0019 12.0833Z" stroke="currentColor" stroke-linecap="round" stroke-linejoin="round" stroke-width="2"/>
  <path d="M6.6686 4.5833C6.6686 3.8801 6.5991 3.0684 7.2936 2.6675 7.5837 2.5 7.9731 2.5 8.7519 2.5H11.2519C12.0307 2.5 12.4202 2.5 12.7103 2.6675 13.4047 3.0684 13.3353 3.8801 13.3353 4.5833 13.3353 5.2866 13.4047 6.0982 12.7103 6.4992 12.4202 6.6667 12.0307 6.6667 11.2519 6.6667H8.7519C7.9731 6.6667 7.5837 6.6667 7.2936 6.4992 6.5991 6.0982 6.6686 5.2866 6.6686 4.5833Z" stroke="currentColor" stroke-linecap="round" stroke-linejoin="round" stroke-width="2"/>
</svg>
