<svg xmlns="http://www.w3.org/2000/svg" width="20" height="20" viewBox="0 0 20 20" fill="none">
  <path d="M8.3337 6.25C8.3337 5.5468 8.2642 4.7351 8.9587 4.3341 9.2487 4.1667 9.6381 4.1667 10.417 4.1667H11.2503C12.0292 4.1667 12.4186 4.1667 12.7087 4.3341 13.4031 4.7351 13.3337 5.5468 13.3337 6.25 13.3337 6.9532 13.4031 7.7649 12.7087 8.1659 12.4186 8.3333 12.0292 8.3333 11.2503 8.3333H10.417C9.6381 8.3333 9.2487 8.3333 8.9587 8.1659 8.2642 7.7649 8.3337 6.9532 8.3337 6.25Z" stroke="currentColor" stroke-linecap="round" stroke-linejoin="round" stroke-width="2"/>
  <path d="M3.3336 13.75C3.3336 13.0468 3.2642 12.2351 3.9586 11.8342 4.2487 11.6667 4.6381 11.6667 5.417 11.6667H11.2503C12.0292 11.6667 12.4186 11.6667 12.7087 11.8342 13.4031 12.2351 13.3337 13.0468 13.3337 13.75 13.3337 14.4533 13.4031 15.2649 12.7087 15.6658 12.4186 15.8333 12.0292 15.8333 11.2503 15.8333H5.417C4.6381 15.8333 4.2487 15.8333 3.9586 15.6658 3.2642 15.2649 3.3336 14.4533 3.3336 13.75Z" stroke="currentColor" stroke-linecap="round" stroke-linejoin="round" stroke-width="2"/>
  <path d="M16.6667 1.6667V18.3333" stroke="currentColor" stroke-linecap="round" stroke-linejoin="round" stroke-width="2"/>
</svg>
