<svg xmlns="http://www.w3.org/2000/svg" width="20" height="20" viewBox="0 0 20 20" fill="none">
  <path d="M6.6686 6.25C6.6686 5.5468 6.5991 4.7351 7.2936 4.3341 7.5837 4.1667 7.9731 4.1667 8.7519 4.1667H9.5853C10.3641 4.1667 10.7535 4.1667 11.0436 4.3341 11.7381 4.7351 11.6686 5.5468 11.6686 6.25 11.6686 6.9532 11.7381 7.7649 11.0436 8.1659 10.7535 8.3333 10.3641 8.3333 9.5853 8.3333H8.7519C7.9731 8.3333 7.5837 8.3333 7.2936 8.1659 6.5991 7.7649 6.6686 6.9532 6.6686 6.25Z" stroke="currentColor" stroke-linecap="round" stroke-linejoin="round" stroke-width="2"/>
  <path d="M6.6686 13.75C6.6686 13.0468 6.5991 12.2351 7.2936 11.8342 7.5837 11.6667 7.9731 11.6667 8.7519 11.6667H14.5853C15.3641 11.6667 15.7535 11.6667 16.0436 11.8342 16.7381 12.2351 16.6686 13.0468 16.6686 13.75 16.6686 14.4533 16.7381 15.2649 16.0436 15.6658 15.7535 15.8333 15.3641 15.8333 14.5853 15.8333H8.7519C7.9731 15.8333 7.5837 15.8333 7.2936 15.6658 6.5991 15.2649 6.6686 14.4533 6.6686 13.75Z" stroke="currentColor" stroke-linecap="round" stroke-linejoin="round" stroke-width="2"/>
  <path d="M3.3333 1.6667V18.3333" stroke="currentColor" stroke-linecap="round" stroke-linejoin="round" stroke-width="2"/>
</svg>
