<svg xmlns="http://www.w3.org/2000/svg" width="20" height="20" viewBox="0 0 20 20" fill="none">
  <path d="M17.5 10L2.5 10" stroke="currentColor" stroke-linecap="round" stroke-linejoin="round" stroke-width="2"/>
  <path d="M6.6686 4.5833C6.6686 3.8801 6.5991 3.0684 7.2936 2.6675 7.5837 2.5 7.9731 2.5 8.7519 2.5H11.2519C12.0307 2.5 12.4202 2.5 12.7103 2.6675 13.4047 3.0684 13.3353 3.8801 13.3353 4.5833 13.3353 5.2866 13.4047 6.0982 12.7103 6.4992 12.4202 6.6667 12.0307 6.6667 11.2519 6.6667H8.7519C7.9731 6.6667 7.5837 6.6667 7.2936 6.4992 6.5991 6.0982 6.6686 5.2866 6.6686 4.5833Z" stroke="currentColor" stroke-linecap="round" stroke-linejoin="round" stroke-width="2"/>
  <path d="M5.0019 15.4167C5.0019 14.7134 4.9325 13.9017 5.6269 13.5008 5.917 13.3333 6.3064 13.3333 7.0853 13.3333L12.9186 13.3333C13.6974 13.3333 14.0868 13.3333 14.3769 13.5008 15.0714 13.9017 15.0019 14.7134 15.0019 15.4167 15.0019 16.1199 15.0714 16.9316 14.3769 17.3325 14.0868 17.5 13.6974 17.5 12.9186 17.5H7.0853C6.3064 17.5 5.917 17.5 5.6269 17.3325 4.9325 16.9316 5.0019 16.1199 5.0019 15.4167Z" stroke="currentColor" stroke-linecap="round" stroke-linejoin="round" stroke-width="2"/>
</svg>
