<svg xmlns="http://www.w3.org/2000/svg" width="20" height="20" viewBox="0 0 20 20" fill="none">
  <path d="M18.3333 6.25L13.3333 6.25M6.6667 6.25L1.6667 6.25" stroke="currentColor" stroke-linecap="round" stroke-linejoin="round" stroke-width="2"/>
  <path d="M18.3333 13.75L15.8333 13.75M4.1667 13.75L1.6667 13.75" stroke="currentColor" stroke-linecap="round" stroke-linejoin="round" stroke-width="2"/>
  <path d="M6.25 15.8333L13.7475 15.8333C14.1348 15.8333 14.3283 15.8333 14.4893 15.8013 15.1505 15.6698 15.6673 15.153 15.7988 14.4918 15.8308 14.3308 15.8308 14.1373 15.8308 13.75 15.8308 13.3628 15.8308 13.1692 15.7988 13.0082 15.6673 12.347 15.1505 11.8302 14.4893 11.6987 14.3283 11.6667 14.1348 11.6667 13.7475 11.6667L6.25 11.6667C5.8628 11.6667 5.6692 11.6667 5.5082 11.6987 4.847 11.8302 4.3302 12.347 4.1987 13.0082 4.1667 13.1692 4.1667 13.3628 4.1667 13.75 4.1667 14.1373 4.1667 14.3308 4.1987 14.4918 4.3302 15.153 4.847 15.6698 5.5082 15.8013 5.6692 15.8333 5.8628 15.8333 6.25 15.8333Z" stroke="currentColor" stroke-linecap="round" stroke-linejoin="round" stroke-width="2"/>
  <path d="M8.75 8.3333H11.2475C11.6348 8.3333 11.8283 8.3333 11.9893 8.3013 12.6505 8.1698 13.1673 7.653 13.2988 6.9918 13.3308 6.8308 13.3308 6.6372 13.3308 6.25 13.3308 5.8628 13.3308 5.6692 13.2988 5.5082 13.1673 4.847 12.6505 4.3302 11.9893 4.1987 11.8283 4.1667 11.6348 4.1667 11.2475 4.1667L8.75 4.1667C8.3628 4.1667 8.1692 4.1667 8.0082 4.1987 7.347 4.3302 6.8302 4.847 6.6987 5.5082 6.6667 5.6692 6.6667 5.8628 6.6667 6.25 6.6667 6.6372 6.6667 6.8308 6.6987 6.9918 6.8302 7.653 7.347 8.1698 8.0082 8.3013 8.1692 8.3333 8.3628 8.3333 8.75 8.3333Z" stroke="currentColor" stroke-linecap="round" stroke-linejoin="round" stroke-width="2"/>
</svg>
