<svg xmlns="http://www.w3.org/2000/svg" width="20" height="20" viewBox="0 0 20 20" fill="none">
  <path d="M8.1492 2.7934C8.619 2.2908 8.8538 2.0395 9.1048 1.8995 9.6613 1.5891 10.3387 1.5891 10.8952 1.8995 11.1462 2.0395 11.381 2.2908 11.8508 2.7934 12.0624 3.0199 12.1683 3.1331 12.2859 3.224 12.5443 3.4235 12.8512 3.5507 13.1749 3.5922 13.3225 3.6112 13.4773 3.606 13.7871 3.5955 14.4747 3.5722 14.8185 3.5606 15.0949 3.6391 15.7079 3.813 16.187 4.2921 16.3609 4.9051 16.4393 5.1815 16.4277 5.5253 16.4045 6.2129 16.394 6.5227 16.3888 6.6775 16.4078 6.8251 16.4493 7.1488 16.5764 7.4557 16.776 7.7141 16.8669 7.8318 16.9801 7.9376 17.2066 8.1492 17.7092 8.619 17.9605 8.8538 18.1005 9.1048 18.4109 9.6613 18.4109 10.3387 18.1005 10.8952 17.9605 11.1462 17.7092 11.381 17.2066 11.8508 16.9801 12.0624 16.8669 12.1683 16.776 12.2859 16.5764 12.5443 16.4493 12.8512 16.4078 13.1749 16.3888 13.3225 16.394 13.4773 16.4045 13.7871 16.4277 14.4747 16.4393 14.8185 16.3609 15.0949 16.187 15.7079 15.7079 16.187 15.0949 16.3609 14.8185 16.4393 14.4747 16.4277 13.7871 16.4045 13.4773 16.394 13.3225 16.3888 13.1749 16.4078 12.8512 16.4493 12.5443 16.5764 12.2859 16.776 12.1683 16.8669 12.0624 16.9801 11.8508 17.2066 11.381 17.7092 11.1462 17.9605 10.8952 18.1005 10.3387 18.4109 9.6613 18.4109 9.1048 18.1005 8.8538 17.9605 8.619 17.7092 8.1492 17.2066 7.9376 16.9801 7.8318 16.8669 7.7141 16.776 7.4557 16.5764 7.1488 16.4493 6.8251 16.4078 6.6775 16.3888 6.5227 16.394 6.2129 16.4045 5.5253 16.4277 5.1815 16.4393 4.9051 16.3609 4.2921 16.187 3.813 15.7079 3.6391 15.0949 3.5606 14.8185 3.5722 14.4747 3.5955 13.7871 3.606 13.4773 3.6112 13.3225 3.5922 13.1749 3.5507 12.8512 3.4235 12.5443 3.224 12.2859 3.1331 12.1683 3.0199 12.0624 2.7934 11.8508 2.2908 11.381 2.0395 11.1462 1.8995 10.8952 1.5891 10.3387 1.5891 9.6613 1.8995 9.1048 2.0395 8.8538 2.2908 8.619 2.7934 8.1492 3.0199 7.9376 3.1331 7.8318 3.224 7.7141 3.4235 7.4557 3.5507 7.1488 3.5922 6.8251 3.6112 6.6775 3.606 6.5227 3.5955 6.2129 3.5722 5.5253 3.5606 5.1815 3.6391 4.9051 3.813 4.2921 4.2921 3.813 4.9051 3.6391 5.1815 3.5606 5.5253 3.5722 6.2129 3.5955 6.5227 3.606 6.6775 3.6112 6.8251 3.5922 7.1488 3.5507 7.4557 3.4235 7.7141 3.224 7.8318 3.1331 7.9376 3.0199 8.1492 2.7934Z" stroke="currentColor" stroke-width="2"/>
  <path d="M14.1667 8.3333V13.3333M12.0833 8.3333V12.0833C12.0833 12.7737 11.5237 13.3333 10.8333 13.3333 10.143 13.3333 9.5833 12.7737 9.5833 12.0833M9.5833 6.6667V12.0833M9.5833 12.0833V8.3333M9.5833 12.0833C9.5833 12.7737 9.0237 13.3333 8.3333 13.3333 7.643 13.3333 7.0833 12.7737 7.0833 12.0833V8.3333C7.0833 8.3333 5 8.75 5 10.8333" stroke="currentColor" stroke-linecap="round" stroke-linejoin="round" stroke-width="2"/>
</svg>
