<svg xmlns="http://www.w3.org/2000/svg" width="20" height="20" viewBox="0 0 20 20" fill="none">
  <path d="M2.5 14.984V10.5896C2.5 7.5618 2.5 6.0479 3.4153 5.1073 4.3306 4.1667 5.8037 4.1667 8.75 4.1667 11.6963 4.1667 13.1694 4.1667 14.0848 5.1073 15 6.0479 15 7.5618 15 10.5896V14.984C15 16.9056 15 17.8663 14.3963 18.2103 13.227 18.8762 11.0338 16.6543 9.9922 15.9853 9.3881 15.5973 9.0861 15.4033 8.75 15.4033 8.4139 15.4033 8.1119 15.5973 7.5078 15.9853 6.4663 16.6543 4.273 18.8762 3.1038 18.2103 2.5 17.8663 2.5 16.9056 2.5 14.984Z" stroke="currentColor" stroke-linecap="round" stroke-linejoin="round" stroke-width="2"/>
  <path d="M7.5 1.6667H9.1667C13.095 1.6667 15.0593 1.6667 16.2796 2.8871 17.5 4.1074 17.5 6.0716 17.5 10V15" stroke="currentColor" stroke-linecap="round" stroke-linejoin="round" stroke-width="2"/>
</svg>
