<svg xmlns="http://www.w3.org/2000/svg" width="20" height="20" viewBox="0 0 20 20" fill="none">
  <path d="M11.2216 3.3521C13.3084 3.3521 15 5.0289 15 7.0973 15 9.1658 13.3084 10.8426 11.2216 10.8426 9.3699 10.8426 7.8294 9.5224 7.5057 7.7799" stroke="currentColor" stroke-linecap="round" stroke-width="2"/>
  <path d="M18.3314 11.6748H16.3373C16.0922 11.6748 15.8507 11.73 15.6316 11.8359L13.9313 12.6583C13.7122 12.7642 13.4707 12.8193 13.2257 12.8193H12.3575C11.5178 12.8193 10.8371 13.4777 10.8371 14.2898 10.8371 14.3226 10.8596 14.3515 10.8922 14.3605L13.008 14.9453C13.3876 15.0501 13.794 15.0136 14.1471 14.8428L15.9647 13.9638M10.8371 13.7555L7.0126 12.5811C6.3347 12.3699 5.6018 12.6203 5.1771 13.2081 4.87 13.6331 4.995 14.2417 5.4424 14.4998L11.7007 18.1088C12.0987 18.3383 12.5683 18.3942 13.0061 18.2644L18.3314 16.685" stroke="currentColor" stroke-linecap="round" stroke-linejoin="round" stroke-width="2"/>
  <path d="M1.6683 3.7662C2.9411 3.2683 4.7521 2.0532 5.742 1.8041 7.9359 1.3636 9.0868 2.0123 11.6848 3.3528 10.5914 3.3759 9.1215 4.0016 8.3981 5.4313M8.3981 5.4313H6.9113M8.3981 5.4313H9.4888C9.8169 5.4551 10.5238 5.6527 10.7963 6.2868 10.9056 6.5413 10.9367 6.8437 10.7221 6.9965 10.4327 7.2951 10.0173 7.2834 9.6487 7.3487M9.6487 7.3487C9.2258 7.4237 8.8184 7.5069 8.3925 7.5898M9.6487 7.3487L8.3925 7.5898M8.3925 7.5898C8.2985 7.6081 8.2036 7.6263 8.1074 7.6445M8.3925 7.5898L8.1074 7.6445M8.1074 7.6445C7.4435 7.7186 5.825 8.4929 5.0368 8.7097 4.7685 8.8378 2.6177 9.2548 1.6801 9.1816" stroke="currentColor" stroke-linecap="round" stroke-linejoin="round" stroke-width="2"/>
</svg>
