<svg xmlns="http://www.w3.org/2000/svg" width="20" height="20" viewBox="0 0 20 20" fill="none">
  <path d="M5 17.5V11.6667C5 11.1425 5.206 10.6771 5.6181 10.2067 6.0247 9.7258 6.8784 9.3923 7.5 9.206 7.5399 9.1941 7.5437 9.1215 7.5052 9.1048 6.9626 8.8682 5.8881 8.5474 5.4728 7.999 5.4617 7.9843 5.4562 7.977 5.4553 7.9758 5.4543 7.9746 5.4198 7.9303 5.3507 7.8418 5 7.3923 5 6.5071 5 6.5071 5 4.9477 6.0609 3.6999 7.2958 3.0796 8.0464 2.6932 8.9367 2.5 9.9669 2.5 10.8646 2.5 11.6961 2.668 12.4613 3.004 14.1213 3.6965 15 5.3634 15 7.2631V17.5" stroke="currentColor" stroke-linecap="round" stroke-linejoin="round" stroke-width="2"/>
</svg>
