<svg xmlns="http://www.w3.org/2000/svg" width="20" height="20" viewBox="0 0 20 20" fill="none">
  <path d="M12.2828 10.6499C13.1442 10.6246 14.8754 11.7651 14.997 16.5273M8.2773 8.9709C8.2099 8.3866 8.2299 7.1258 9.3567 6.5049 10.8296 5.6934 12.3443 7.054 12.5172 8.5606 12.6019 9.2988 12.3043 11.66 11.0466 13.0743 10.5772 13.6023 10.1541 14.0639 9.3567 14.1457 8.617 14.2216 8.0102 14.0236 7.307 13.5595 6.1833 12.8178 5.0085 11.5675 4.0122 9.8402 2.9479 7.995 2.3726 6.7336 1.6683 4.1886" stroke="currentColor" stroke-linecap="round" stroke-linejoin="round" stroke-width="2"/>
  <path d="M5.8301 5.3063C6.5616 4.51 10.8252 1.4079 13.8289 5.1147 14.1928 5.5637 14.3748 5.7883 14.6858 6.666 14.9967 7.5438 14.9967 8.1541 14.9967 9.3748V16.6667" stroke="currentColor" stroke-linecap="round" stroke-linejoin="round" stroke-width="2"/>
  <path d="M14.9967 8.3333C14.9967 6.4393 15.9968 3.8548 18.3301 4.1975" stroke="currentColor" stroke-linecap="round" stroke-linejoin="round" stroke-width="2"/>
</svg>
