<svg xmlns="http://www.w3.org/2000/svg" width="20" height="20" viewBox="0 0 20 20" fill="none">
  <path d="M5.8529 11.6667H15.0195" stroke="currentColor" stroke-linecap="round" stroke-linejoin="round" stroke-width="2"/>
  <path d="M7.1029 7.5H12.2989C12.6848 7.5 12.8778 7.5 12.9258 7.6338 13.0806 8.0651 11.4624 9.5114 11.2139 9.7981 10.8068 10.2678 10.6033 10.5026 10.4962 10.8012 10.3889 11.0998 10.3889 11.432 10.3889 12.0962V15.0625C10.3889 16.4481 9.5952 17.5 8.2765 17.5" stroke="currentColor" stroke-linecap="round" stroke-linejoin="round" stroke-width="2"/>
  <path d="M4.1798 6.6666C4.117 6.0499 4.2209 4.8862 5.8409 5H14.5619C15.0931 5.0308 15.9969 5.3835 15.8078 6.6666M9.1632 2.5C9.664 2.7611 10.5583 3.7622 10.8243 5" stroke="currentColor" stroke-linecap="round" stroke-linejoin="round" stroke-width="2"/>
</svg>
