<svg xmlns="http://www.w3.org/2000/svg" width="20" height="20" viewBox="0 0 20 20" fill="none">
  <path d="M1.6667 15.8333C1.6862 16.4806 1.7584 16.8667 2.0259 17.1339 2.3923 17.5 2.9821 17.5 4.1616 17.5H6.6375C7.2855 17.5 7.6094 17.5 7.6463 17.3836 7.6831 17.2672 7.4059 17.0723 6.8517 16.6827 4.8907 15.304 3.3276 12.9243 3.3276 10.2197 3.3276 5.9562 6.3149 2.5 10 2.5 13.6851 2.5 16.6724 5.9562 16.6724 10.2197 16.6724 12.9243 15.1093 15.304 13.1483 16.6827 12.5941 17.0723 12.3169 17.2672 12.3538 17.3836 12.3906 17.5 12.7145 17.5 13.3625 17.5H15.8384C17.0179 17.5 17.6077 17.5 17.9741 17.1339 18.2416 16.8667 18.3138 16.4806 18.3333 15.8333" stroke="currentColor" stroke-linecap="round" stroke-linejoin="round" stroke-width="2"/>
</svg>
