<svg xmlns="http://www.w3.org/2000/svg" width="20" height="20" viewBox="0 0 20 20" fill="none">
  <path d="M12.5009 6.6667C12.5898 7.3868 12.5009 8.5269 12.1677 9.857 11.879 10.8072 10.9684 13.5474 8.603 13.3174 6.5596 13.0474 5.7045 11.0472 5.8489 9.737 5.9044 8.6369 6.7262 6.6967 8.9139 6.6667 10.8795 6.8367 11.3792 8.5068 11.6569 9.917 11.9568 11.2172 11.9234 11.8573 12.4232 12.7473 12.723 13.2374 13.2893 13.4174 13.7447 13.2974 14.1112 13.1474 14.1667 12.8273 14.1667 12.5873" stroke="currentColor" stroke-linecap="round" stroke-width="2"/>
  <path d="M2.0833 10C2.0833 6.268 2.0833 4.4021 3.2427 3.2427 4.4021 2.0833 6.268 2.0833 10 2.0833 13.7319 2.0833 15.5979 2.0833 16.7573 3.2427 17.9167 4.4021 17.9167 6.268 17.9167 10 17.9167 13.7319 17.9167 15.5979 16.7573 16.7573 15.5979 17.9167 13.7319 17.9167 10 17.9167 6.268 17.9167 4.4021 17.9167 3.2427 16.7573 2.0833 15.5979 2.0833 13.7319 2.0833 10Z" stroke="currentColor" stroke-linejoin="round" stroke-width="2"/>
</svg>
