<svg xmlns="http://www.w3.org/2000/svg" width="20" height="20" viewBox="0 0 20 20" fill="none">
  <path d="M2.5 7.0833C2.5 8.1914 2.8932 9.2076 3.5476 10 2.8932 10.7924 2.5 11.8087 2.5 12.9167 2.5 15.448 4.552 17.5 7.0833 17.5 8.1914 17.5 9.2076 17.1068 10 16.4523 10.7924 17.1068 11.8087 17.5 12.9167 17.5 15.448 17.5 17.5 15.448 17.5 12.9167 17.5 11.8087 17.1068 10.7924 16.4523 10 17.1068 9.2076 17.5 8.1914 17.5 7.0833 17.5 4.552 15.448 2.5 12.9167 2.5 11.8087 2.5 10.7924 2.8932 10 3.5476 9.2076 2.8932 8.1914 2.5 7.0833 2.5 4.552 2.5 2.5 4.552 2.5 7.0833Z" stroke="currentColor" stroke-linejoin="round" stroke-width="2"/>
  <path d="M8.75 7.9167C8.75 7.2263 9.3097 6.6667 10 6.6667 10.6903 6.6667 11.25 7.2263 11.25 7.9167V12.0833C11.25 12.7737 10.6903 13.3333 10 13.3333 9.3097 13.3333 8.75 12.7737 8.75 12.0833V7.9167Z" stroke="currentColor" stroke-linejoin="round" stroke-width="2"/>
</svg>
