<svg xmlns="http://www.w3.org/2000/svg" width="20" height="20" viewBox="0 0 20 20" fill="none">
  <path d="M7.9167 6.6667C7.9167 4.1667 6.6667 1.6667 6.6667 1.6667 6.6667 1.6667 5.4167 4.1667 5.4167 6.6667H7.9167Z" stroke="currentColor" stroke-linecap="round" stroke-linejoin="round" stroke-width="2"/>
  <path d="M8.3333 8.75L7.9167 6.6667H5.4167L5 8.75H8.3333Z" stroke="currentColor" stroke-linecap="round" stroke-linejoin="round" stroke-width="2"/>
  <path d="M8.3333 8.75H5V15C5 15.4603 5.3731 15.8333 5.8333 15.8333H7.5C7.9602 15.8333 8.3333 15.4603 8.3333 15V8.75Z" stroke="currentColor" stroke-linecap="round" stroke-linejoin="round" stroke-width="2"/>
  <path d="M8.3333 18.3333H5V16.6667C5 16.2064 5.3731 15.8333 5.8333 15.8333H7.5C7.9602 15.8333 8.3333 16.2064 8.3333 16.6667V18.3333Z" stroke="currentColor" stroke-linecap="round" stroke-linejoin="round" stroke-width="2"/>
  <path d="M14.5833 6.6667C14.5833 4.1667 13.3333 1.6667 13.3333 1.6667 13.3333 1.6667 12.0833 4.1667 12.0833 6.6667H14.5833Z" stroke="currentColor" stroke-linecap="round" stroke-linejoin="round" stroke-width="2"/>
  <path d="M15 8.75L14.5833 6.6667H12.0833L11.6667 8.75H15Z" stroke="currentColor" stroke-linecap="round" stroke-linejoin="round" stroke-width="2"/>
  <path d="M15 8.75H11.6667V15C11.6667 15.4603 12.0397 15.8333 12.5 15.8333H14.1667C14.6269 15.8333 15 15.4603 15 15V8.75Z" stroke="currentColor" stroke-linecap="round" stroke-linejoin="round" stroke-width="2"/>
  <path d="M15 18.3333H11.6667V16.6667C11.6667 16.2064 12.0397 15.8333 12.5 15.8333H14.1667C14.6269 15.8333 15 16.2064 15 16.6667V18.3333Z" stroke="currentColor" stroke-linecap="round" stroke-linejoin="round" stroke-width="2"/>
</svg>
