<svg xmlns="http://www.w3.org/2000/svg" width="20" height="20" viewBox="0 0 20 20" fill="none">
  <path d="M6.9535 14.6227C7.2053 14.8588 7.6008 14.8459 7.8369 14.5942 8.073 14.3423 8.0602 13.9468 7.8084 13.7107L7.3809 14.1667 6.9535 14.6227ZM8.3333 10.625C8.6785 10.625 8.9583 10.3452 8.9583 10 8.9583 9.6548 8.6785 9.375 8.3333 9.375V10 10.625ZM7.2838 10.9458L6.6716 10.8198 7.2838 10.9458ZM7.3619 10.5864L7.9588 10.7716 7.3619 10.5864ZM8.0765 10.004L8.1375 10.626 8.0765 10.004ZM7.3809 14.1667C7.8084 13.7107 7.8084 13.7108 7.8085 13.7108 7.8084 13.7108 7.8084 13.7108 7.8084 13.7107 7.8083 13.7106 7.8081 13.7104 7.8079 13.7103 7.8074 13.7097 7.8067 13.7091 7.8056 13.7081 7.8035 13.7061 7.8002 13.7029 7.7957 13.6988 7.7868 13.6903 7.7733 13.6776 7.7556 13.6607 7.7202 13.627 7.6677 13.5768 7.6006 13.5119 7.4665 13.3823 7.2742 13.1939 7.0432 12.9612 6.5805 12.4953 5.9653 11.8545 5.3518 11.1515 4.7361 10.446 4.1336 9.6911 3.6886 8.9958 3.4662 8.6483 3.2908 8.3274 3.1726 8.0442 3.0518 7.7549 3.0059 7.5406 3.0059 7.3958H2.3809 1.7559C1.7559 7.7719 1.8663 8.1598 2.019 8.5257 2.1742 8.8975 2.3894 9.2847 2.6358 9.6696 3.1283 10.4392 3.7758 11.2468 4.4101 11.9735 5.0466 12.7028 5.6814 13.364 6.1562 13.8421 6.3939 14.0815 6.5923 14.2757 6.7316 14.4104 6.8013 14.4778 6.8562 14.5303 6.894 14.5663 6.9129 14.5843 6.9275 14.5982 6.9375 14.6076 6.9425 14.6123 6.9464 14.6159 6.9491 14.6185 6.9504 14.6198 6.9514 14.6207 6.9522 14.6214 6.9525 14.6218 6.9528 14.622 6.9531 14.6223 6.9532 14.6223 6.9533 14.6224 6.9533 14.6225 6.9534 14.6226 6.9535 14.6227 7.3809 14.1667ZM2.3809 7.3958H3.0059C3.0059 6.8242 3.4173 6.4583 3.8095 6.4583V5.8333 5.2083C2.6238 5.2083 1.7559 6.2416 1.7559 7.3958H2.3809ZM3.8095 5.8333V6.4583C4.2018 6.4583 4.6131 6.8242 4.6131 7.3958H5.2381 5.8631C5.8631 6.2416 4.9952 5.2083 3.8095 5.2083V5.8333ZM5.2381 7.3958H4.6131C4.6131 7.6108 4.4625 7.8389 4.1556 8.0627 4.0152 8.1651 3.8708 8.2445 3.7595 8.2986 3.7047 8.3252 3.66 8.3448 3.6305 8.357 3.6159 8.3631 3.6051 8.3673 3.599 8.3697 3.596 8.3709 3.5941 8.3716 3.5935 8.3718 3.5932 8.372 3.5932 8.372 3.5935 8.3718 3.5937 8.3718 3.5939 8.3718 3.5942 8.3716 3.5944 8.3715 3.5946 8.3715 3.5948 8.3714 3.5949 8.3713 3.595 8.3713 3.5951 8.3713 3.5953 8.3712 3.5954 8.3712 3.8095 8.9583 4.0236 9.5455 4.0238 9.5454 4.024 9.5454 4.0241 9.5453 4.0243 9.5453 4.0244 9.5453 4.0247 9.5451 4.025 9.545 4.0254 9.5449 4.026 9.5447 4.0268 9.5443 4.0276 9.5441 4.0293 9.5434 4.0314 9.5427 4.0338 9.5418 4.0385 9.5399 4.0447 9.5376 4.0521 9.5348 4.0669 9.529 4.0869 9.521 4.1113 9.5108 4.16 9.4906 4.2269 9.4613 4.306 9.4228 4.4626 9.3467 4.6753 9.2308 4.892 9.0728 5.2994 8.7757 5.8631 8.2225 5.8631 7.3958H5.2381ZM7.2838 10.9458L6.6716 10.8198C6.3544 12.3598 5.2327 13.5417 3.8095 13.5417V14.1667 14.7917C6.0184 14.7917 7.5027 12.9809 7.8959 11.0719L7.2838 10.9458ZM3.8095 14.1667V13.5417C3.0228 13.5417 2.2917 12.8261 2.2917 11.8229H1.6667 1.0417C1.0417 13.4086 2.2293 14.7917 3.8095 14.7917V14.1667ZM1.6667 11.8229H2.2917C2.2917 11.0229 2.6953 10.4663 3.1431 10.0854 3.3676 9.8945 3.5946 9.7562 3.7659 9.666 3.8509 9.6212 3.9203 9.5892 3.9663 9.5693 3.9892 9.5593 4.0061 9.5524 4.0161 9.5485 4.021 9.5466 4.0242 9.5453 4.0255 9.5448 4.0262 9.5446 4.0263 9.5445 4.026 9.5447 4.0259 9.5447 4.0256 9.5448 4.0252 9.5449 4.025 9.545 4.0248 9.5451 4.0245 9.5452 4.0244 9.5453 4.0241 9.5453 4.0241 9.5453 4.0238 9.5454 4.0236 9.5455 3.8095 8.9583 3.5954 8.3712 3.5952 8.3713 3.5949 8.3713 3.5948 8.3713 3.5946 8.3715 3.5944 8.3715 3.594 8.3717 3.5935 8.3718 3.5931 8.372 3.5922 8.3723 3.5911 8.3727 3.5899 8.3732 3.5875 8.3741 3.5846 8.3752 3.5812 8.3764 3.5744 8.379 3.5656 8.3824 3.5549 8.3868 3.5334 8.3952 3.5043 8.4072 3.4686 8.4227 3.3974 8.4536 3.2994 8.4989 3.1835 8.5599 2.953 8.6813 2.6444 8.8686 2.3331 9.1333 1.7095 9.6638 1.0417 10.5396 1.0417 11.8229H1.6667ZM7.2838 10.9458L7.8959 11.0719C7.9182 10.9639 7.9341 10.8869 7.9459 10.8318 7.9518 10.8043 7.956 10.7854 7.959 10.7727 7.9627 10.7573 7.9624 10.7602 7.9588 10.7716L7.3619 10.5864 6.765 10.4012C6.741 10.4784 6.7101 10.6329 6.6716 10.8198L7.2838 10.9458ZM8.3333 10V9.375C8.211 9.375 8.0954 9.3742 8.0156 9.3819L8.0765 10.004 8.1375 10.626C8.1287 10.6268 8.1334 10.6259 8.1736 10.6254 8.21 10.625 8.2596 10.625 8.3333 10.625V10ZM7.3619 10.5864L7.9588 10.7716C7.9926 10.6626 8.0201 10.6482 8.0122 10.6547 8.0042 10.6611 8.0239 10.6371 8.1375 10.626L8.0765 10.004 8.0156 9.3819C7.7422 9.4087 7.4621 9.4903 7.2225 9.6857 6.9828 9.881 6.8464 10.1389 6.765 10.4012L7.3619 10.5864Z" fill="currentColor"/>
  <path d="M16.9535 14.6227C17.2053 14.8588 17.6008 14.8459 17.8369 14.5942 18.073 14.3423 18.0602 13.9468 17.8084 13.7107L17.3809 14.1667 16.9535 14.6227ZM18.3333 10.625C18.6785 10.625 18.9583 10.3452 18.9583 10 18.9583 9.6548 18.6785 9.375 18.3333 9.375V10 10.625ZM17.2838 10.9458L16.6717 10.8198 17.2838 10.9458ZM17.3619 10.5864L17.9588 10.7716 17.3619 10.5864ZM18.0765 10.004L18.1375 10.626 18.0765 10.004ZM17.3809 14.1667C17.8084 13.7107 17.8084 13.7108 17.8084 13.7108 17.8084 13.7108 17.8084 13.7108 17.8084 13.7107 17.8083 13.7106 17.8082 13.7104 17.8079 13.7103 17.8074 13.7097 17.8067 13.7091 17.8056 13.7081 17.8035 13.7061 17.8002 13.7029 17.7957 13.6988 17.7868 13.6903 17.7733 13.6776 17.7556 13.6607 17.7202 13.627 17.6677 13.5768 17.6007 13.5119 17.4665 13.3823 17.2742 13.1939 17.0432 12.9612 16.5805 12.4953 15.9653 11.8545 15.3518 11.1515 14.7361 10.446 14.1336 9.6911 13.6886 8.9958 13.4663 8.6483 13.2908 8.3274 13.1726 8.0442 13.0518 7.7549 13.0059 7.5406 13.0059 7.3958H12.3809 11.7559C11.7559 7.7719 11.8663 8.1598 12.019 8.5257 12.1743 8.8975 12.3894 9.2847 12.6358 9.6696 13.1283 10.4392 13.7758 11.2468 14.4101 11.9735 15.0466 12.7028 15.6814 13.364 16.1563 13.8421 16.3939 14.0815 16.5922 14.2757 16.7316 14.4104 16.8012 14.4778 16.8562 14.5303 16.894 14.5663 16.9129 14.5843 16.9275 14.5982 16.9375 14.6076 16.9425 14.6123 16.9464 14.6159 16.9491 14.6185 16.9504 14.6198 16.9514 14.6207 16.9522 14.6214 16.9526 14.6218 16.9528 14.622 16.9531 14.6223 16.9532 14.6223 16.9533 14.6224 16.9533 14.6225 16.9534 14.6226 16.9535 14.6227 17.3809 14.1667ZM12.3809 7.3958H13.0059C13.0059 6.8242 13.4173 6.4583 13.8095 6.4583V5.8333 5.2083C12.6238 5.2083 11.7559 6.2416 11.7559 7.3958H12.3809ZM13.8095 5.8333V6.4583C14.2018 6.4583 14.6131 6.8242 14.6131 7.3958H15.2381 15.8631C15.8631 6.2416 14.9953 5.2083 13.8095 5.2083V5.8333ZM15.2381 7.3958H14.6131C14.6131 7.6108 14.4625 7.8389 14.1556 8.0627 14.0152 8.1651 13.8708 8.2445 13.7595 8.2986 13.7047 8.3252 13.6599 8.3448 13.6305 8.357 13.6158 8.3631 13.6052 8.3673 13.599 8.3697 13.596 8.3709 13.5941 8.3716 13.5935 8.3718 13.5932 8.372 13.5932 8.372 13.5935 8.3718 13.5937 8.3718 13.5939 8.3718 13.5942 8.3716 13.5944 8.3715 13.5946 8.3715 13.5948 8.3714 13.5948 8.3713 13.595 8.3713 13.5951 8.3713 13.5953 8.3712 13.5954 8.3712 13.8095 8.9583 14.0236 9.5455 14.0238 9.5454 14.024 9.5454 14.0241 9.5453 14.0243 9.5453 14.0244 9.5453 14.0247 9.5451 14.025 9.545 14.0253 9.5449 14.026 9.5447 14.0268 9.5443 14.0277 9.5441 14.0293 9.5434 14.0314 9.5427 14.0337 9.5418 14.0385 9.5399 14.0447 9.5376 14.0521 9.5348 14.0669 9.529 14.0869 9.521 14.1113 9.5108 14.16 9.4906 14.2268 9.4613 14.306 9.4228 14.4626 9.3467 14.6753 9.2308 14.8921 9.0728 15.2994 8.7757 15.8631 8.2225 15.8631 7.3958H15.2381ZM17.2838 10.9458L16.6717 10.8198C16.3544 12.3598 15.2327 13.5417 13.8095 13.5417V14.1667 14.7917C16.0184 14.7917 17.5027 12.9809 17.8959 11.0719L17.2838 10.9458ZM13.8095 14.1667V13.5417C13.0228 13.5417 12.2917 12.8261 12.2917 11.8229H11.6667 11.0417C11.0417 13.4086 12.2293 14.7917 13.8095 14.7917V14.1667ZM11.6667 11.8229H12.2917C12.2917 11.0229 12.6953 10.4663 13.1431 10.0854 13.3676 9.8945 13.5946 9.7562 13.7659 9.666 13.8509 9.6212 13.9203 9.5892 13.9663 9.5693 13.9893 9.5593 14.0062 9.5524 14.0161 9.5485 14.021 9.5466 14.0243 9.5453 14.0255 9.5448 14.0262 9.5446 14.0263 9.5445 14.026 9.5447 14.0259 9.5447 14.0256 9.5448 14.0252 9.5449 14.025 9.545 14.0247 9.5451 14.0245 9.5452 14.0243 9.5453 14.0242 9.5453 14.0241 9.5453 14.0238 9.5454 14.0236 9.5455 13.8095 8.9583 13.5954 8.3712 13.5952 8.3713 13.5949 8.3713 13.5948 8.3713 13.5946 8.3715 13.5943 8.3715 13.594 8.3717 13.5935 8.3718 13.5931 8.372 13.5922 8.3723 13.5911 8.3727 13.5899 8.3732 13.5875 8.3741 13.5847 8.3752 13.5813 8.3764 13.5744 8.379 13.5656 8.3824 13.5548 8.3868 13.5334 8.3952 13.5043 8.4072 13.4686 8.4227 13.3974 8.4536 13.2994 8.4989 13.1835 8.5599 12.9531 8.6813 12.6443 8.8686 12.3331 9.1333 11.7095 9.6638 11.0417 10.5396 11.0417 11.8229H11.6667ZM17.2838 10.9458L17.8959 11.0719C17.9182 10.9639 17.9341 10.8869 17.9459 10.8318 17.9518 10.8043 17.956 10.7854 17.959 10.7727 17.9627 10.7573 17.9623 10.7602 17.9588 10.7716L17.3619 10.5864 16.765 10.4012C16.741 10.4784 16.7102 10.6329 16.6717 10.8198L17.2838 10.9458ZM18.3333 10V9.375C18.211 9.375 18.0954 9.3742 18.0156 9.3819L18.0765 10.004 18.1375 10.626C18.1288 10.6268 18.1334 10.6259 18.1736 10.6254 18.21 10.625 18.2596 10.625 18.3333 10.625V10ZM17.3619 10.5864L17.9588 10.7716C17.9927 10.6626 18.0201 10.6482 18.0122 10.6547 18.0043 10.6611 18.0239 10.6371 18.1375 10.626L18.0765 10.004 18.0156 9.3819C17.7422 9.4087 17.4622 9.4903 17.2224 9.6857 16.9828 9.881 16.8463 10.1389 16.765 10.4012L17.3619 10.5864Z" fill="currentColor"/>
</svg>
