<svg xmlns="http://www.w3.org/2000/svg" width="20" height="20" viewBox="0 0 20 20" fill="none">
  <path d="M12.0833 7.5C12.0833 4.5833 13.75 3.1944 13.75 2.5 13.75 2.0398 13.3769 1.6667 12.9167 1.6667H7.0833C6.6231 1.6667 6.25 2.0398 6.25 2.5 6.25 3.1944 7.9167 4.5833 7.9167 7.5 7.9167 10.4167 5 10.8333 5 13.3333 5 13.9672 5.1607 14.6613 5.3904 15.3469 5.8472 16.7102 6.0756 17.3918 6.7299 17.8626 7.3841 18.3333 8.228 18.3333 9.916 18.3333H10.084C11.7719 18.3333 12.6159 18.3333 13.2702 17.8626 13.9243 17.3918 14.1528 16.7102 14.6096 15.3469 14.8393 14.6613 15 13.9672 15 13.3333 15 10.8333 12.0833 10.4167 12.0833 7.5Z" stroke="currentColor" stroke-linecap="round" stroke-linejoin="round" stroke-width="2"/>
  <path d="M7.5 5H12.5" stroke="currentColor" stroke-linecap="round" stroke-linejoin="round" stroke-width="2"/>
  <path d="M13.75 3.3333H14.6839C15.3188 3.3333 15.8333 3.8479 15.8333 4.4827 15.8333 4.5497 15.8274 4.6165 15.8158 4.6824L14.5833 11.6667" stroke="currentColor" stroke-linecap="round" stroke-linejoin="round" stroke-width="2"/>
  <path d="M6.2501 3.3333H5.316C4.6813 3.3333 4.1667 3.8479 4.1667 4.4827 4.1667 4.5497 4.1725 4.6165 4.1842 4.6824L5.4167 11.6667" stroke="currentColor" stroke-linecap="round" stroke-linejoin="round" stroke-width="2"/>
</svg>
