<svg xmlns="http://www.w3.org/2000/svg" width="20" height="20" viewBox="0 0 20 20" fill="none">
  <path d="M4.5381 2.4992C4.2749 4.8992 2.9833 5.8905 4.1146 8.0043 4.1871 8.1398 4.2233 8.2075 4.2367 8.2382 4.3914 8.593 4.3258 8.9128 4.0439 9.1781 4.0195 9.201 3.9783 9.234 3.8958 9.3 3.7543 9.4132 3.6835 9.4698 3.6189 9.5273 2.9521 10.1199 2.5507 10.9551 2.5045 11.846 2.5 11.9323 2.5 12.0229 2.5 12.2042V15.4167C2.5 16.5871 2.5 17.1723 2.7809 17.5926 2.9025 17.7746 3.0587 17.9308 3.2407 18.0524 3.6611 18.3333 4.2463 18.3333 5.4167 18.3333 6.5871 18.3333 7.1722 18.3333 7.5926 18.0524 7.7746 17.9308 7.9309 17.7746 8.0525 17.5926 8.3333 17.1723 8.3333 16.5871 8.3333 15.4167V12.2042C8.3333 12.0229 8.3333 11.9323 8.3288 11.846 8.2826 10.9551 7.8812 10.1199 7.2144 9.5273 7.1498 9.4698 7.079 9.4132 6.9375 9.3 6.855 9.234 6.8138 9.201 6.7894 9.1781 6.5075 8.9128 6.4419 8.593 6.5966 8.2382 6.61 8.2075 6.6462 8.1398 6.7187 8.0043 7.85 5.8905 6.5582 4.8992 6.2947 2.4991 6.2445 2.0417 5.8767 1.6667 5.4164 1.6667 4.9562 1.6667 4.5883 2.0417 4.5381 2.4992Z" stroke="currentColor" stroke-linecap="round" stroke-linejoin="round" stroke-width="2"/>
  <path d="M8.3333 13.3333H2.5" stroke="currentColor" stroke-linecap="round" stroke-linejoin="round" stroke-width="2"/>
  <path d="M13.7047 2.4992C13.4415 4.8992 12.1499 5.8905 13.2813 8.0043 13.3537 8.1398 13.39 8.2075 13.4034 8.2382 13.5581 8.593 13.4924 8.9128 13.2106 9.1781 13.1862 9.201 13.145 9.234 13.0625 9.3 12.9209 9.4132 12.8502 9.4698 12.7856 9.5273 12.1188 10.1199 11.7174 10.9551 11.6712 11.846 11.6667 11.9323 11.6667 12.0229 11.6667 12.2042V15.4167C11.6667 16.5871 11.6667 17.1723 11.9476 17.5926 12.0692 17.7746 12.2254 17.9308 12.4074 18.0524 12.8277 18.3333 13.4129 18.3333 14.5833 18.3333 15.7538 18.3333 16.3389 18.3333 16.7593 18.0524 16.9413 17.9308 17.0975 17.7746 17.2191 17.5926 17.5 17.1723 17.5 16.5871 17.5 15.4167V12.2042C17.5 12.0229 17.5 11.9323 17.4955 11.846 17.4492 10.9551 17.0478 10.1199 16.3811 9.5273 16.3165 9.4698 16.2458 9.4132 16.1042 9.3 16.0217 9.234 15.9804 9.201 15.9561 9.1781 15.6743 8.9128 15.6086 8.593 15.7633 8.2382 15.7767 8.2075 15.8129 8.1398 15.8854 8.0043 17.0167 5.8905 15.7248 4.8992 15.4614 2.4991 15.4112 2.0417 15.0433 1.6667 14.5831 1.6667 14.1228 1.6667 13.7549 2.0417 13.7047 2.4992Z" stroke="currentColor" stroke-linecap="round" stroke-linejoin="round" stroke-width="2"/>
  <path d="M17.5 13.3333H11.6667" stroke="currentColor" stroke-linecap="round" stroke-linejoin="round" stroke-width="2"/>
</svg>
