<svg xmlns="http://www.w3.org/2000/svg" width="20" height="20" viewBox="0 0 20 20" fill="none">
  <path d="M5.4167 14.5833L5.4167 12.0833M9.5833 14.5833L9.5833 7.0833M13.75 14.5833V11.25" stroke="currentColor" stroke-linecap="round" stroke-width="2"/>
  <path d="M17.9167 4.5833C17.9167 5.964 16.7974 7.0833 15.4167 7.0833 14.0359 7.0833 12.9167 5.964 12.9167 4.5833 12.9167 3.2026 14.0359 2.0833 15.4167 2.0833 16.7974 2.0833 17.9167 3.2026 17.9167 4.5833Z" stroke="currentColor" stroke-width="2"/>
  <path d="M17.9129 9.1667C17.9129 9.1667 17.9167 9.4496 17.9167 10 17.9167 13.732 17.9167 15.5979 16.7573 16.7573 15.5979 17.9167 13.7319 17.9167 10 17.9167 6.268 17.9167 4.4021 17.9167 3.2427 16.7573 2.0833 15.5979 2.0833 13.732 2.0833 10 2.0833 6.2681 2.0833 4.4021 3.2427 3.2427 4.4021 2.0834 6.268 2.0834 10 2.0834L10.8333 2.0833" stroke="currentColor" stroke-linecap="round" stroke-linejoin="round" stroke-width="2"/>
</svg>
