<svg xmlns="http://www.w3.org/2000/svg" width="20" height="20" viewBox="0 0 20 20" fill="none">
  <path d="M15.8333 10C15.8333 9.3097 16.393 8.75 17.0833 8.75 17.7737 8.75 18.3333 9.3097 18.3333 10 18.3333 10.6903 17.7737 11.25 17.0833 11.25 16.393 11.25 15.8333 10.6903 15.8333 10Z" stroke="currentColor" stroke-width="2"/>
  <path d="M1.6667 10C1.6667 9.3097 2.2263 8.75 2.9167 8.75 3.607 8.75 4.1667 9.3097 4.1667 10 4.1667 10.6903 3.607 11.25 2.9167 11.25 2.2263 11.25 1.6667 10.6903 1.6667 10Z" stroke="currentColor" stroke-width="2"/>
  <path d="M11.4226 8.5774C11.1785 8.3333 10.7857 8.3333 10 8.3333 9.2143 8.3333 8.8215 8.3333 8.5774 8.5774M11.4226 8.5774C11.6667 8.8215 11.6667 9.2143 11.6667 10 11.6667 10.7857 11.6667 11.1785 11.4226 11.4226M11.4226 8.5774C11.4226 8.5774 11.4226 8.5774 11.4226 8.5774ZM8.5774 8.5774C8.3333 8.8215 8.3333 9.2143 8.3333 10 8.3333 10.7857 8.3333 11.1785 8.5774 11.4226M8.5774 8.5774C8.5774 8.5774 8.5774 8.5774 8.5774 8.5774ZM8.5774 11.4226C8.8215 11.6667 9.2143 11.6667 10 11.6667 10.7857 11.6667 11.1785 11.6667 11.4226 11.4226M8.5774 11.4226C8.5774 11.4226 8.5774 11.4226 8.5774 11.4226ZM11.4226 11.4226C11.4226 11.4226 11.4226 11.4226 11.4226 11.4226Z" stroke="currentColor" stroke-linecap="round" stroke-linejoin="round" stroke-width="2"/>
  <path d="M17.2559 1.9107C17.0118 1.6667 16.619 1.6667 15.8333 1.6667 15.0477 1.6667 14.6548 1.6667 14.4108 1.9107M17.2559 1.9107C17.5 2.1548 17.5 2.5477 17.5 3.3333 17.5 4.119 17.5 4.5118 17.2559 4.7559M17.2559 1.9107C17.2559 1.9107 17.2559 1.9107 17.2559 1.9107ZM14.4108 1.9107C14.1667 2.1548 14.1667 2.5477 14.1667 3.3333 14.1667 4.119 14.1667 4.5118 14.4108 4.7559M14.4108 1.9107C14.4108 1.9107 14.4108 1.9107 14.4108 1.9107ZM14.4108 4.7559C14.6548 5 15.0477 5 15.8333 5 16.619 5 17.0118 5 17.2559 4.7559M14.4108 4.7559C14.4108 4.7559 14.4108 4.7559 14.4108 4.7559ZM17.2559 4.7559C17.2559 4.7559 17.2559 4.7559 17.2559 4.7559Z" stroke="currentColor" stroke-linecap="round" stroke-linejoin="round" stroke-width="2"/>
  <path d="M5.5893 15.2441C5.3452 15 4.9523 15 4.1667 15 3.381 15 2.9882 15 2.7441 15.2441M5.5893 15.2441C5.8333 15.4882 5.8333 15.881 5.8333 16.6667 5.8333 17.4523 5.8333 17.8452 5.5893 18.0892M5.5893 15.2441C5.5893 15.2441 5.5893 15.2441 5.5893 15.2441ZM2.7441 15.2441C2.5 15.4882 2.5 15.881 2.5 16.6667 2.5 17.4523 2.5 17.8452 2.7441 18.0892M2.7441 15.2441C2.7441 15.2441 2.7441 15.2441 2.7441 15.2441ZM2.7441 18.0892C2.9882 18.3333 3.381 18.3333 4.1667 18.3333 4.9523 18.3333 5.3452 18.3333 5.5893 18.0892M2.7441 18.0892C2.7441 18.0892 2.7441 18.0892 2.7441 18.0892ZM5.5893 18.0892C5.5893 18.0892 5.5893 18.0892 5.5893 18.0892Z" stroke="currentColor" stroke-linecap="round" stroke-linejoin="round" stroke-width="2"/>
  <path d="M4.1667 10H8.3333" stroke="currentColor" stroke-linecap="round" stroke-linejoin="round" stroke-width="2"/>
  <path d="M11.6667 10H15.8333" stroke="currentColor" stroke-linecap="round" stroke-linejoin="round" stroke-width="2"/>
  <path d="M10 8.3333C10 6.6667 10.6944 3.3333 14.1667 3.3333" stroke="currentColor" stroke-linecap="round" stroke-linejoin="round" stroke-width="2"/>
  <path d="M10 11.6667C10 13.3333 9.3056 16.6667 5.8333 16.6667" stroke="currentColor" stroke-linecap="round" stroke-linejoin="round" stroke-width="2"/>
</svg>
