<svg xmlns="http://www.w3.org/2000/svg" width="20" height="20" viewBox="0 0 20 20" fill="none">
  <path d="M5.4167 7.9167C5.4167 5.3854 7.4687 3.3333 10 3.3333 12.5313 3.3333 14.5833 5.3854 14.5833 7.9167V13.3333C14.5833 14.5118 14.5833 15.1011 14.2173 15.4673 13.8511 15.8333 13.2618 15.8333 12.0833 15.8333H7.9167C6.7382 15.8333 6.1489 15.8333 5.7828 15.4673 5.4167 15.1011 5.4167 14.5118 5.4167 13.3333V7.9167Z" stroke="currentColor" stroke-width="2"/>
  <path d="M16.6667 9.1667V14.1667" stroke="currentColor" stroke-linecap="round" stroke-linejoin="round" stroke-width="2"/>
  <path d="M12.5 15.8333V18.3333" stroke="currentColor" stroke-linecap="round" stroke-linejoin="round" stroke-width="2"/>
  <path d="M7.5 15.8333V18.3333" stroke="currentColor" stroke-linecap="round" stroke-linejoin="round" stroke-width="2"/>
  <path d="M3.3333 9.1667V14.1667" stroke="currentColor" stroke-linecap="round" stroke-linejoin="round" stroke-width="2"/>
  <path d="M8.3333 3.3333L7.0833 1.6667M11.6667 3.3333L12.9167 1.6667" stroke="currentColor" stroke-linecap="round" stroke-linejoin="round" stroke-width="2"/>
  <path d="M5.4167 8.3333H14.5833" stroke="currentColor" stroke-linecap="round" stroke-linejoin="round" stroke-width="2"/>
</svg>
