<svg xmlns="http://www.w3.org/2000/svg" width="20" height="20" viewBox="0 0 20 20" fill="none">
  <path d="M5.8333 12.4999C4.4526 12.4999 3.3333 13.6192 3.3333 14.9999 3.3333 16.3806 4.4526 17.4999 5.8333 17.4999 7.214 17.4999 8.3333 16.3806 8.3333 14.9999 8.3333 13.6192 7.214 12.4999 5.8333 12.4999Z" stroke="currentColor" stroke-linecap="round" stroke-linejoin="round" stroke-width="2"/>
  <path d="M14.1667 12.4999C12.7859 12.4999 11.6667 13.6192 11.6667 14.9999 11.6667 16.3806 12.7859 17.4999 14.1667 17.4999 15.5474 17.4999 16.6667 16.3806 16.6667 14.9999 16.6667 13.6192 15.5474 12.4999 14.1667 12.4999Z" stroke="currentColor" stroke-linecap="round" stroke-linejoin="round" stroke-width="2"/>
  <path d="M11.6667 14.1667H8.3333" stroke="currentColor" stroke-linecap="round" stroke-linejoin="round" stroke-width="2"/>
  <path d="M18.3333 10.8333C16.2862 9.8103 13.3112 9.1666 10 9.1666 6.6888 9.1666 3.7138 9.8103 1.6667 10.8333" stroke="currentColor" stroke-linecap="round" stroke-linejoin="round" stroke-width="2"/>
  <path d="M15.8333 9.5833L14.9521 3.9269C14.7723 2.7734 13.5193 2.1483 12.5077 2.7076L11.9953 2.9909C10.7516 3.6783 9.2484 3.6783 8.0048 2.9909L7.4923 2.7076C6.4806 2.1483 5.2277 2.7734 5.0479 3.9269L4.1667 9.5833" stroke="currentColor" stroke-linecap="round" stroke-linejoin="round" stroke-width="2"/>
</svg>
