<svg xmlns="http://www.w3.org/2000/svg" width="20" height="20" viewBox="0 0 20 20" fill="none">
  <path d="M2.0833 10C2.0833 6.268 2.0833 4.4021 3.2427 3.2427 4.4021 2.0833 6.268 2.0833 10 2.0833 13.7319 2.0833 15.5979 2.0833 16.7573 3.2427 17.9167 4.4021 17.9167 6.268 17.9167 10 17.9167 13.7319 17.9167 15.5979 16.7573 16.7573 15.5979 17.9167 13.7319 17.9167 10 17.9167 6.268 17.9167 4.4021 17.9167 3.2427 16.7573 2.0833 15.5979 2.0833 13.7319 2.0833 10Z" stroke="currentColor" stroke-width="2"/>
  <path d="M5 11.25L6.25 7.5 7.8125 11.25M5 11.25L4.5833 12.5M5 11.25H7.8125M7.8125 11.25L8.3333 12.5" stroke="currentColor" stroke-linecap="round" stroke-linejoin="round" stroke-width="2"/>
  <path d="M10.4167 10V8.0833C10.4167 7.9282 10.4167 7.8507 10.4371 7.7879 10.4783 7.6611 10.5778 7.5616 10.7046 7.5204 10.7673 7.5 10.8449 7.5 11 7.5H12.0833C12.7737 7.5 13.3333 8.0596 13.3333 8.75 13.3333 9.4403 12.7737 10 12.0833 10H10.4167ZM10.4167 10V12.5" stroke="currentColor" stroke-linecap="round" stroke-linejoin="round" stroke-width="2"/>
  <path d="M15.4167 7.5V12.5" stroke="currentColor" stroke-linecap="round" stroke-linejoin="round" stroke-width="2"/>
</svg>
