<svg xmlns="http://www.w3.org/2000/svg" width="20" height="20" viewBox="0 0 20 20" fill="none">
  <path d="M15 14.1667L15 5.8333 5 5.8333 5 14.1667 15 14.1667Z" stroke="currentColor" stroke-linecap="round" stroke-linejoin="round" stroke-width="2"/>
  <path d="M18.3333 14.9413L18.3333 5.0586C18.3333 4.622 18.3333 4.4037 18.2347 4.2194 18.1361 4.0352 17.9545 3.9141 17.5912 3.6719L15.9945 2.6074C15.8894 2.5374 15.7659 2.5 15.6397 2.5 15.2864 2.5 15 2.7864 15 3.1397L15 16.8603C15 17.2136 15.2864 17.5 15.6397 17.5 15.7659 17.5 15.8894 17.4626 15.9945 17.3926L17.5912 16.3281C17.9545 16.0859 18.1361 15.9648 18.2347 15.7806 18.3333 15.5963 18.3333 15.378 18.3333 14.9413Z" stroke="currentColor" stroke-linecap="round" stroke-linejoin="round" stroke-width="2"/>
  <path d="M2.4088 16.3281C2.0455 16.0859 1.8639 15.9648 1.7653 15.7806 1.6667 15.5963 1.6667 15.378 1.6667 14.9413L1.6667 5.0586C1.6667 4.622 1.6667 4.4037 1.7653 4.2194 1.8639 4.0352 2.0455 3.9141 2.4088 3.6719L4.0055 2.6074C4.1106 2.5374 4.2341 2.5 4.3603 2.5 4.7136 2.5 5 2.7864 5 3.1397L5 16.8603C5 17.2136 4.7136 17.5 4.3603 17.5 4.2341 17.5 4.1106 17.4626 4.0055 17.3926L2.4088 16.3281Z" stroke="currentColor" stroke-linecap="round" stroke-linejoin="round" stroke-width="2"/>
  <path d="M11.2501 8.3337L12.2722 9.2147C12.7019 9.585 12.9168 9.7702 12.9168 10.0003 12.9168 10.2304 12.7019 10.4156 12.2722 10.786L11.2501 11.667" stroke="currentColor" stroke-linecap="round" stroke-linejoin="round" stroke-width="2"/>
  <path d="M8.75 8.3333L7.7279 9.2143C7.2982 9.5847 7.0833 9.7699 7.0833 10 7.0833 10.2301 7.2982 10.4153 7.7279 10.7857L8.75 11.6667" stroke="currentColor" stroke-linecap="round" stroke-linejoin="round" stroke-width="2"/>
</svg>
