<svg xmlns="http://www.w3.org/2000/svg" width="20" height="20" viewBox="0 0 20 20" fill="none">
  <path d="M13.75 5.8333C15.5093 6.7485 16.8168 8.2879 17.2982 10.1147 17.9167 10.1147 18.3333 10.9704 18.3333 11.6755 18.3333 13.6187 15.4715 13.9504 15 12.0971 14.5807 13.7454 12.086 13.7454 11.6667 12.0971 11.2473 13.7454 8.7527 13.7454 8.3333 12.0971 7.914 13.7454 5.4194 13.7454 5 12.0971 4.5285 13.9504 1.6667 13.6187 1.6667 11.6755 1.6667 10.9704 2.0833 10.1147 2.7019 10.1147 3.1832 8.2879 4.4907 6.7485 6.25 5.8333" stroke="currentColor" stroke-linecap="round" stroke-linejoin="round" stroke-width="2"/>
  <path d="M10 3.3333C10.9205 3.3333 11.6667 4.0795 11.6667 5 11.6667 5.9205 10.9205 6.6667 10 6.6667 9.0795 6.6667 8.3333 5.9205 8.3333 5 8.3333 4.0795 9.0795 3.3333 10 3.3333ZM10 3.3333C10 2.9167 10.3333 2 11.6667 1.6667" stroke="currentColor" stroke-linecap="round" stroke-linejoin="round" stroke-width="2"/>
  <path d="M12.0833 8.75L12.5 9.5833" stroke="currentColor" stroke-linecap="round" stroke-linejoin="round" stroke-width="2"/>
  <path d="M7.9167 8.75L7.5 9.5833" stroke="currentColor" stroke-linecap="round" stroke-linejoin="round" stroke-width="2"/>
  <path d="M2.9167 13.3333L3.4437 14.9145C3.9937 16.5645 4.2687 17.3896 4.9235 17.8614 5.5782 18.3333 6.4478 18.3333 8.1871 18.3333H11.8128C13.5522 18.3333 14.4218 18.3333 15.0766 17.8614 15.7313 17.3896 16.0063 16.5645 16.5563 14.9145L17.0833 13.3333" stroke="currentColor" stroke-linecap="round" stroke-linejoin="round" stroke-width="2"/>
</svg>
