<svg xmlns="http://www.w3.org/2000/svg" width="20" height="20" viewBox="0 0 20 20" fill="none">
  <path d="M6.6667 4.1667C4.3655 4.1667 2.5 6.6783 2.5 9.1898 2.5 12.12 2.9167 14.213 4.5833 16.7246 5.8504 18.4218 7.5419 18.8473 9.3449 17.6586 9.7298 17.4049 10.2702 17.4049 10.6551 17.6586 12.4581 18.8473 14.1497 18.4218 15.4167 16.7246 17.0833 14.213 17.5 12.12 17.5 9.1898 17.5 6.6783 15.6345 4.1667 13.3333 4.1667 12.1455 4.1667 11.0738 4.8208 10.3148 5.5271 10.1383 5.6912 9.8617 5.6912 9.6852 5.5271 8.9262 4.8208 7.8545 4.1667 6.6667 4.1667Z" stroke="currentColor" stroke-linejoin="round" stroke-width="2"/>
  <path d="M5 10C5 8.6387 5.6856 7.2775 6.6667 6.6667" stroke="currentColor" stroke-linecap="round" stroke-linejoin="round" stroke-width="2"/>
  <path d="M10 5C10 3.8889 10.5 1.6667 12.5 1.6667" stroke="currentColor" stroke-linecap="round" stroke-linejoin="round" stroke-width="2"/>
</svg>
