<svg xmlns="http://www.w3.org/2000/svg" width="20" height="20" viewBox="0 0 20 20" fill="none">
  <path d="M2.0833 10C2.0833 6.268 2.0833 4.4021 3.2427 3.2427 4.4021 2.0833 6.268 2.0833 10 2.0833 13.7319 2.0833 15.5979 2.0833 16.7573 3.2427 17.9167 4.4021 17.9167 6.268 17.9167 10 17.9167 13.7319 17.9167 15.5979 16.7573 16.7573 15.5979 17.9167 13.7319 17.9167 10 17.9167 6.268 17.9167 4.4021 17.9167 3.2427 16.7573 2.0833 15.5979 2.0833 13.7319 2.0833 10Z" stroke="currentColor" stroke-linejoin="round" stroke-width="2"/>
  <path d="M2.0833 12.0833H2.5323C2.9259 12.0833 3.1227 12.0833 3.2938 12.0011 3.4649 11.9188 3.5879 11.7652 3.8337 11.4578L5 10 6.25 12.0833 7.5 9.1667 9.5833 13.3333 12.5 7.5 14.1667 10.4167 15.4167 9.1667 16.6211 10.9733C16.8311 11.2883 16.9361 11.4458 17.0895 11.5412 17.12 11.5601 17.1517 11.5771 17.1843 11.5919 17.3488 11.6667 17.5381 11.6667 17.9167 11.6667" stroke="currentColor" stroke-linejoin="round" stroke-width="2"/>
  <path d="M12.5 2.0833V4.5833M12.5 17.9167V12.0833" stroke="currentColor" stroke-linecap="round" stroke-linejoin="round" stroke-width="2"/>
  <circle cx="12.5" cy="7.5" r="0.8333333333333334" stroke="currentColor" stroke-linejoin="round" stroke-width="2"/>
</svg>
