<svg xmlns="http://www.w3.org/2000/svg" width="20" height="20" viewBox="0 0 20 20" fill="none">
  <path d="M2.0833 10C2.0833 6.268 2.0833 4.4021 3.2427 3.2427 4.4021 2.0833 6.268 2.0833 10 2.0833 13.7319 2.0833 15.5979 2.0833 16.7573 3.2427 17.9167 4.4021 17.9167 6.268 17.9167 10 17.9167 13.7319 17.9167 15.5979 16.7573 16.7573 15.5979 17.9167 13.7319 17.9167 10 17.9167 6.268 17.9167 4.4021 17.9167 3.2427 16.7573 2.0833 15.5979 2.0833 13.7319 2.0833 10Z" stroke="currentColor" stroke-linejoin="round" stroke-width="2"/>
  <path d="M5.8333 6.6667V8.3333" stroke="currentColor" stroke-linecap="round" stroke-linejoin="round" stroke-width="2"/>
  <path d="M14.1667 6.6667V8.3333" stroke="currentColor" stroke-linecap="round" stroke-linejoin="round" stroke-width="2"/>
  <path d="M5.8333 13.75C8.75 15.4167 11.25 15.4167 14.1667 13.75" stroke="currentColor" stroke-linecap="round" stroke-linejoin="round" stroke-width="2"/>
  <path d="M10.8247 2.0833C10.1032 3.1544 8.7636 6.4279 8.3948 9.6498 8.3175 10.3249 8.2788 10.6625 8.4921 10.9313 8.5126 10.9572 8.5395 10.9869 8.5631 11.01 8.809 11.25 9.1791 11.25 9.9192 11.25 10.3241 11.25 10.5264 11.25 10.6472 11.3595 10.6602 11.3714 10.6709 11.3823 10.6825 11.3957 10.789 11.5188 10.7819 11.7267 10.7677 12.1424 10.7237 13.4297 10.7834 15.877 11.6667 17.9167" stroke="currentColor" stroke-linecap="round" stroke-linejoin="round" stroke-width="2"/>
</svg>
