<svg xmlns="http://www.w3.org/2000/svg" width="20" height="20" viewBox="0 0 20 20" fill="none">
  <path d="M2.5 10C2.5 6.4645 2.5 4.6967 3.5983 3.5983 4.6967 2.5 6.4645 2.5 10 2.5 13.5355 2.5 15.3033 2.5 16.4017 3.5983 17.5 4.6967 17.5 6.4645 17.5 10 17.5 13.5355 17.5 15.3033 16.4017 16.4017 15.3033 17.5 13.5355 17.5 10 17.5 6.4645 17.5 4.6967 17.5 3.5983 16.4017 2.5 15.3033 2.5 13.5355 2.5 10Z" stroke="currentColor" stroke-linecap="round" stroke-linejoin="round" stroke-width="2"/>
  <path d="M6.1462 6.6665H6.042M6.1457 9.9999H6.0415M6.1458 13.3333H6.0416M6.2504 6.6665C6.2504 6.7815 6.1571 6.8748 6.042 6.8748 5.927 6.8748 5.8337 6.7815 5.8337 6.6665 5.8337 6.5514 5.927 6.4581 6.042 6.4581 6.1571 6.4581 6.2504 6.5514 6.2504 6.6665ZM6.2499 9.9999C6.2499 10.115 6.1566 10.2083 6.0415 10.2083 5.9265 10.2083 5.8332 10.115 5.8332 9.9999 5.8332 9.8848 5.9265 9.7916 6.0415 9.7916 6.1566 9.7916 6.2499 9.8848 6.2499 9.9999ZM6.25 13.3333C6.25 13.4483 6.1567 13.5416 6.0416 13.5416 5.9266 13.5416 5.8333 13.4483 5.8333 13.3333 5.8333 13.2182 5.9266 13.1249 6.0416 13.1249 6.1567 13.1249 6.25 13.2182 6.25 13.3333Z" stroke="currentColor" stroke-linecap="round" stroke-linejoin="round" stroke-width="2"/>
  <path d="M9.1667 6.6667H14.1667M9.1667 10H14.1667M9.1667 13.3333H14.1667" stroke="currentColor" stroke-linecap="round" stroke-linejoin="round" stroke-width="2"/>
</svg>
