<svg xmlns="http://www.w3.org/2000/svg" width="20" height="20" viewBox="0 0 20 20" fill="none">
  <path d="M2.0833 16.3818V12.5054C2.0833 11.9144 2.0833 11.6188 2.1928 11.5861 2.3022 11.5533 2.4697 11.8078 2.8049 12.3166 3.9651 14.0781 5.9218 16.0348 7.6833 17.195 8.1922 17.5302 8.4467 17.6978 8.4138 17.8072 8.3811 17.9166 8.0855 17.9166 7.4945 17.9166H3.6181C2.8946 17.9166 2.5329 17.9166 2.3081 17.6918 2.0833 17.4671 2.0833 17.1053 2.0833 16.3818Z" stroke="currentColor" stroke-linejoin="round" stroke-width="2"/>
  <path d="M17.917 3.6181V7.4945C17.917 8.0855 17.917 8.3811 17.8076 8.4138 17.6982 8.4467 17.5306 8.1922 17.1954 7.6833 16.0352 5.9218 14.0785 3.9651 12.317 2.8049 11.8081 2.4697 11.5537 2.3022 11.5865 2.1928 11.6192 2.0833 11.9148 2.0833 12.5058 2.0833H16.3822C17.1057 2.0833 17.4674 2.0833 17.6923 2.3081 17.917 2.5329 17.917 2.8946 17.917 3.6181Z" stroke="currentColor" stroke-linejoin="round" stroke-width="2"/>
  <path d="M2.0833 3.6667V5.5217C2.0833 6.1688 2.0833 6.4924 2.2039 6.7834 2.3244 7.0744 2.5532 7.3032 3.0108 7.7608L12.2392 16.9892C12.6968 17.4468 12.9256 17.6756 13.2166 17.7962 13.5076 17.9167 13.8312 17.9167 14.4783 17.9167H16.3333C17.0798 17.9167 17.4529 17.9167 17.6848 17.6848 17.9167 17.4529 17.9167 17.0798 17.9167 16.3333V14.4783C17.9167 13.8312 17.9167 13.5076 17.7962 13.2166 17.6756 12.9256 17.4468 12.6968 16.9892 12.2392L7.7608 3.0108C7.3032 2.5532 7.0744 2.3244 6.7834 2.2039 6.4924 2.0833 6.1688 2.0833 5.5217 2.0833H3.6667C2.9203 2.0833 2.5471 2.0833 2.3152 2.3152 2.0833 2.5471 2.0833 2.9203 2.0833 3.6667Z" stroke="currentColor" stroke-linejoin="round" stroke-width="2"/>
</svg>
