<svg xmlns="http://www.w3.org/2000/svg" width="20" height="20" viewBox="0 0 20 20" fill="none">
  <path d="M3.544 16.9183C4.7128 17.9167 6.4752 17.9167 10 17.9167 13.5248 17.9167 15.2872 17.9167 16.456 16.9183 16.622 16.7766 16.7766 16.622 16.9183 16.456 17.9167 15.2872 17.9167 13.5248 17.9167 10 17.9167 6.4752 17.9167 4.7128 16.9183 3.544 16.7766 3.378 16.622 3.2234 16.456 3.0816 15.2872 2.0833 13.5248 2.0833 10 2.0833 6.4752 2.0833 4.7128 2.0833 3.544 3.0816 3.378 3.2234 3.2234 3.378 3.0816 3.544 2.0833 4.7128 2.0833 6.4752 2.0833 10 2.0833 13.5248 2.0833 15.2872 3.0816 16.456 3.2234 16.622 3.378 16.7766 3.544 16.9183Z" stroke="currentColor" stroke-linecap="round" stroke-linejoin="round" stroke-width="2"/>
  <path d="M7.5432 13.3769L6.2059 13.883C5.9817 13.9679 5.8333 14.1828 5.8333 14.4226 5.8333 14.8307 6.2453 15.1098 6.6241 14.9582L7.3928 14.6505C7.7092 14.5239 7.9167 14.2173 7.9167 13.8764V7.9167M12.9598 12.1264L11.6226 12.6325C11.3983 12.7173 11.25 12.9322 11.25 13.172 11.25 13.5801 11.662 13.8592 12.0408 13.7076L12.8095 13.4C13.1258 13.2733 13.3333 12.9668 13.3333 12.6259V6.8344M7.9167 7.9167L13.3333 6.8344M7.9167 7.9167V7.2156M13.3333 6.8344V6.1255M13.3333 6.1255V5.4167L7.9167 6.5145V7.2156M13.3333 6.1255L7.9167 7.2156" stroke="currentColor" stroke-linecap="round" stroke-linejoin="round" stroke-width="2"/>
</svg>
