<svg xmlns="http://www.w3.org/2000/svg" width="20" height="20" viewBox="0 0 20 20" fill="none">
  <path d="M14.4752 13.5594L17.0542 12.7313C17.9862 12.432 18.221 11.244 17.4706 10.6242L15.4512 8.956M14.4752 13.5594L13.0205 14.0266C12.3778 14.233 11.7706 14.5342 11.22 14.9198L10.1024 15.7027M14.4752 13.5594L14.5271 12.314C14.5559 11.6211 14.6967 10.9371 14.9441 10.2875L15.4512 8.956M14.4752 13.5594L14.3668 16.1618C14.3275 17.1045 13.2653 17.6534 12.4517 17.1516L10.1024 15.7027M10.1024 15.7027L7.8645 17.2702C7.0836 17.8171 5.9921 17.3331 5.8939 16.3962L5.6181 13.7673M10.1024 15.7027L8.7995 14.899C8.2269 14.5458 7.6029 14.2802 6.9489 14.1113L5.6181 13.7673M5.6181 13.7673L3.0166 13.0951C2.0689 12.8502 1.7631 11.6791 2.4738 11.0167L4.4065 9.2153M5.6181 13.7673L5.3612 11.3193 4.4065 9.2153M4.4065 9.2153L3.3392 6.8632C2.9436 5.9913 3.6679 5.0289 4.633 5.1443L7.3767 5.4723M4.4065 9.2153L5.4905 8.205C5.9938 7.7359 6.4194 7.1927 6.752 6.5949L7.3767 5.4723M7.3767 5.4723L8.6749 3.1393C9.1329 2.3163 10.3235 2.2806 10.8317 3.0748L12.2921 5.3569M7.3767 5.4723L8.9284 5.6578C9.5938 5.7374 10.2678 5.718 10.9273 5.6004L12.2921 5.3569M12.2921 5.3569L14.9857 4.8764C15.9407 4.706 16.7208 5.6222 16.3808 6.5149L15.4512 8.956M12.2921 5.3569L13.0801 6.5884C13.4481 7.1634 13.9048 7.6787 14.4341 8.1159L15.4512 8.956" stroke="currentColor" stroke-linejoin="round" stroke-width="2"/>
</svg>
