<svg xmlns="http://www.w3.org/2000/svg" width="20" height="20" viewBox="0 0 20 20" fill="none">
  <path d="M12.5 3.3333H7.5C4.7501 3.3333 3.3752 3.3333 2.5209 4.1876 1.6667 5.0419 1.6667 6.4168 1.6667 9.1667V10.8333C1.6667 13.5832 1.6667 14.9581 2.5209 15.8124 3.3752 16.6667 4.7501 16.6667 7.5 16.6667H12.5C15.2498 16.6667 16.6248 16.6667 17.4791 15.8124 18.3333 14.9581 18.3333 13.5832 18.3333 10.8333V9.1667C18.3333 6.4168 18.3333 5.0419 17.4791 4.1876 16.6248 3.3333 15.2498 3.3333 12.5 3.3333Z" stroke="currentColor" stroke-linecap="round" stroke-linejoin="round" stroke-width="2"/>
  <path d="M2.0833 6.6667H17.9167" stroke="currentColor" stroke-linecap="round" stroke-linejoin="round" stroke-width="2"/>
  <path d="M5.8333 3.75V6.6667" stroke="currentColor" stroke-linecap="round" stroke-linejoin="round" stroke-width="2"/>
</svg>
