<svg xmlns="http://www.w3.org/2000/svg" width="20" height="20" viewBox="0 0 20 20" fill="none">
  <path d="M15.8333 9.1667V13.3333C15.8333 15.6903 15.8333 16.8688 15.1011 17.6011 14.3688 18.3333 13.1903 18.3333 10.8333 18.3333H9.1667C6.8096 18.3333 5.6311 18.3333 4.8989 17.6011 4.1667 16.8688 4.1667 15.6903 4.1667 13.3333V9.1667M6.6667 6.6667H13.3333" stroke="currentColor" stroke-width="2"/>
  <path d="M10.4167 10.8333H9.5833C8.7977 10.8333 8.4048 10.8333 8.1607 11.0774 7.9167 11.3215 7.9167 11.7143 7.9167 12.5V13.3333C7.9167 14.119 7.9167 14.5118 8.1607 14.7559 8.4048 15 8.7977 15 9.5833 15H10.4167C11.2023 15 11.5952 15 11.8393 14.7559 12.0833 14.5118 12.0833 14.119 12.0833 13.3333V12.5C12.0833 11.7143 12.0833 11.3215 11.8393 11.0774 11.5952 10.8333 11.2023 10.8333 10.4167 10.8333Z" stroke="currentColor" stroke-linecap="round" stroke-linejoin="round" stroke-width="2"/>
  <path d="M16.6918 5.4167C18.2414 6.5766 17.4202 9.1667 15.4369 9.1667 13.0933 9.1667 13.3458 6.6122 13.3458 5 13.3458 3.1591 11.8478 1.6667 10 1.6667 8.1522 1.6667 6.6542 3.1591 6.6542 5 6.6542 6.6122 6.9067 9.1667 4.5631 9.1667 2.5796 9.1667 1.7586 6.5763 3.3084 5.4165" stroke="currentColor" stroke-linecap="round" stroke-width="2"/>
</svg>
