<svg xmlns="http://www.w3.org/2000/svg" width="20" height="20" viewBox="0 0 20 20" fill="none">
  <path d="M11.2551 11.3348C10.7542 11.49 10.2212 11.5738 9.6683 11.5738 7.6003 11.5738 5.8071 10.4035 4.9421 8.6925 4.5716 7.9597 3.6667 7.6607 2.9208 8.0246 2.1749 8.3886 1.8706 9.2777 2.2411 10.0105 3.5955 12.6898 6.4109 14.5367 9.6683 14.5367 10.7063 14.5367 11.6995 14.3493 12.615 14.007" stroke="currentColor" stroke-linecap="round" stroke-width="2"/>
  <path d="M15.1987 12.4584C16.6775 11.1554 17.6773 9.3377 17.9074 7.2919 17.9989 6.4786 17.402 5.7465 16.5742 5.6567 15.7465 5.5668 15.0013 6.1533 14.9099 6.9665 14.7963 7.9768 14.387 8.8995 13.7691 9.6494" stroke="currentColor" stroke-linecap="round" stroke-width="2"/>
  <path d="M9.6227 3.3331C10.1939 3.3331 10.716 3.6502 10.9715 4.1521L16.2491 14.5225C16.6215 15.2543 16.3196 16.1442 15.5747 16.5101 14.8298 16.876 13.9241 16.5794 13.5517 15.8476L9.6227 8.1273 8.0031 11.3099C7.0085 10.9849 6.1448 10.3763 5.5115 9.5803L8.2741 4.1521C8.5295 3.6502 9.0516 3.3331 9.6227 3.3331Z" stroke="currentColor" stroke-linecap="round" stroke-linejoin="round" stroke-width="2"/>
  <path d="M5.6938 15.8476C5.3214 16.5794 4.4157 16.876 3.6708 16.5101 2.9259 16.1442 2.624 15.2543 2.9964 14.5225L4.0754 12.4023C4.8198 13.0717 5.6892 13.6094 6.6454 13.9778L5.6938 15.8476Z" stroke="currentColor" stroke-linecap="round" stroke-linejoin="round" stroke-width="2"/>
</svg>
