<svg xmlns="http://www.w3.org/2000/svg" width="20" height="20" viewBox="0 0 20 20" fill="none">
  <path d="M7.5 12.5C7.5 12.5 9.3413 10 10 10 10.6588 10 12.5 12.5 12.5 12.5M10 10.8333V17.5" stroke="currentColor" stroke-linecap="round" stroke-linejoin="round" stroke-width="2"/>
  <path d="M16.6667 6.6667V12.5077C16.6667 14.8679 16.6667 16.048 15.9344 16.7813 15.4 17.3164 14.6278 17.4609 13.3333 17.5M3.3333 6.6667V12.5077C3.3333 14.8679 3.3333 16.048 4.0656 16.7813 4.6 17.3164 5.3721 17.4609 6.6667 17.5" stroke="currentColor" stroke-linecap="round" stroke-linejoin="round" stroke-width="2"/>
  <path d="M16.25 2.5H3.75C2.9712 2.5 2.5817 2.5 2.2917 2.6675 2.1016 2.7772 1.9438 2.935 1.8341 3.125 1.6667 3.4151 1.6667 3.8045 1.6667 4.5833 1.6667 5.3622 1.6667 5.7516 1.8341 6.0417 1.9438 6.2317 2.1016 6.3895 2.2917 6.4992 2.5817 6.6667 2.9712 6.6667 3.75 6.6667H16.25C17.0288 6.6667 17.4183 6.6667 17.7083 6.4992 17.8983 6.3895 18.0562 6.2317 18.1658 6.0417 18.3333 5.7516 18.3333 5.3622 18.3333 4.5833 18.3333 3.8045 18.3333 3.4151 18.1658 3.125 18.0562 2.935 17.8983 2.7772 17.7083 2.6675 17.4183 2.5 17.0288 2.5 16.25 2.5Z" stroke="currentColor" stroke-linecap="round" stroke-linejoin="round" stroke-width="2"/>
</svg>
