<svg xmlns="http://www.w3.org/2000/svg" width="20" height="20" viewBox="0 0 20 20" fill="none">
  <path d="M11.6148 2.5H8.3852C6.7456 2.5 5.9259 2.5 5.291 2.9298 4.6561 3.3597 4.3517 4.1208 3.7428 5.643L2.0243 9.9393C1.846 10.3849 1.7569 10.6078 1.7118 10.842 1.6667 11.0762 1.6667 11.3163 1.6667 11.7963V12.5C1.6667 14.857 1.6667 16.0355 2.3989 16.7678 3.1311 17.5 4.3096 17.5 6.6667 17.5H13.3333C15.6903 17.5 16.8688 17.5 17.6011 16.7678 18.3333 16.0355 18.3333 14.857 18.3333 12.5V11.7963C18.3333 11.3163 18.3333 11.0762 18.2883 10.842 18.2431 10.6078 18.154 10.3849 17.9758 9.9392L16.2573 5.643C15.6483 4.1208 15.3438 3.3597 14.709 2.9298 14.0741 2.5 13.2543 2.5 11.6148 2.5Z" stroke="currentColor" stroke-width="2"/>
  <path d="M2.0833 10.8333H4.6548C5.1355 10.8333 5.3759 10.8333 5.5999 10.8972 5.7229 10.9323 5.8415 10.9813 5.9533 11.0436 6.1568 11.1568 6.3268 11.3268 6.6667 11.6667 7.0066 12.0066 7.1765 12.1765 7.38 12.2897 7.4919 12.352 7.6104 12.4011 7.7335 12.4362 7.9575 12.5 8.1978 12.5 8.6785 12.5H11.3215C11.8022 12.5 12.0426 12.5 12.2665 12.4362 12.3896 12.4011 12.5082 12.352 12.6199 12.2897 12.8235 12.1765 12.9934 12.0066 13.3333 11.6667 13.6733 11.3268 13.8432 11.1568 14.0468 11.0436 14.1585 10.9813 14.2771 10.9323 14.4002 10.8972 14.6241 10.8333 14.8645 10.8333 15.3452 10.8333H17.9167" stroke="currentColor" stroke-linecap="round" stroke-linejoin="round" stroke-width="2"/>
</svg>
