<svg xmlns="http://www.w3.org/2000/svg" width="20" height="20" viewBox="0 0 20 20" fill="none">
  <path d="M5.8333 17.5H14.1666C16.1307 17.5 17.1128 17.5 17.7231 16.8898 18.3332 16.2796 18.3332 15.2975 18.3332 13.3333 18.3332 11.3692 18.3332 10.3871 17.7231 9.7768 17.1128 9.1667 16.1307 9.1667 14.1666 9.1667H5.8333C3.8692 9.1667 2.8871 9.1667 2.2769 9.7768 1.6667 10.387 1.6667 11.3691 1.6667 13.3333 1.6666 15.2975 1.6666 16.2796 2.2768 16.8898 2.887 17.5 3.8691 17.5 5.8333 17.5Z" stroke="currentColor" stroke-linecap="round" stroke-linejoin="round" stroke-width="2"/>
  <path d="M3.3333 9.1667C3.3334 7.9998 3.3334 7.4164 3.5605 6.9707 3.7603 6.5788 4.0789 6.2602 4.4708 6.0604 4.9165 5.8333 5.4999 5.8333 6.6668 5.8333H13.3333C14.5001 5.8333 15.0835 5.8333 15.5292 6.0604 15.9212 6.2601 16.2398 6.5789 16.4396 6.9708 16.6667 7.4165 16.6667 7.9999 16.6667 9.1667" stroke="currentColor" stroke-linecap="round" stroke-linejoin="round" stroke-width="2"/>
  <path d="M5 5.8333C5 4.6665 5.0001 4.0831 5.2272 3.6374 5.4269 3.2455 5.7456 2.9268 6.1375 2.7271 6.5832 2.5 7.1666 2.5 8.3334 2.5H11.6667C12.8334 2.5 13.4168 2.5 13.8625 2.7271 14.2545 2.9268 14.5732 3.2455 14.7729 3.6375 15 4.0832 15 4.6666 15 5.8333" stroke="currentColor" stroke-linecap="round" stroke-linejoin="round" stroke-width="2"/>
  <path d="M13.3333 12.5L13.0833 12.8333C12.5926 13.4876 12.3473 13.8148 11.9953 13.9908 11.6434 14.1667 11.2345 14.1667 10.4167 14.1667H9.5833C8.7655 14.1667 8.3566 14.1667 8.0046 13.9908 7.6527 13.8148 7.4074 13.4876 6.9167 12.8333L6.6667 12.5" stroke="currentColor" stroke-linecap="round" stroke-linejoin="round" stroke-width="2"/>
</svg>
