<svg xmlns="http://www.w3.org/2000/svg" width="20" height="20" viewBox="0 0 20 20" fill="none">
  <path d="M8.3334 14.1667V5.8333C8.3334 4.262 8.3334 3.4763 7.8452 2.9882 7.3571 2.5 6.5714 2.5 5 2.5 3.4287 2.5 2.643 2.5 2.1549 2.9882 1.6667 3.4763 1.6667 4.262 1.6667 5.8333L1.6667 14.1667C1.6667 15.738 1.6667 16.5237 2.1548 17.0118 2.643 17.5 3.4286 17.5 5 17.5 6.5714 17.5 7.3571 17.5 7.8452 17.0118 8.3334 16.5237 8.3334 15.738 8.3334 14.1667Z" stroke="currentColor" stroke-linecap="round" stroke-linejoin="round" stroke-width="2"/>
  <path d="M17.8798 13.0909L15.8727 5.9935C15.4767 4.593 15.2786 3.8928 14.7365 3.5514 14.6927 3.5238 14.6477 3.4983 14.6015 3.4749 14.0298 3.185 13.3231 3.3724 11.9097 3.7473 10.4607 4.1315 9.7363 4.3237 9.386 4.8728 9.3578 4.9171 9.3317 4.9627 9.3078 5.0095 9.0112 5.589 9.2142 6.3068 9.6202 7.7424L11.6273 14.8398C12.0233 16.2403 12.2214 16.9406 12.7635 17.2819 12.8073 17.3095 12.8523 17.335 12.8985 17.3584 13.4702 17.6483 14.1769 17.4609 15.5903 17.0861 17.0392 16.7018 17.7637 16.5097 18.114 15.9605 18.1423 15.9162 18.1683 15.8707 18.1923 15.8239 18.4888 15.2443 18.2858 14.5265 17.8798 13.0909Z" stroke="currentColor" stroke-linecap="round" stroke-linejoin="round" stroke-width="2"/>
  <path d="M1.6667 5.8333H8.3333" stroke="currentColor" stroke-linecap="round" stroke-linejoin="round" stroke-width="2"/>
  <path d="M10 7.5002L15.8333 5.8333" stroke="currentColor" stroke-linecap="round" stroke-linejoin="round" stroke-width="2"/>
  <path d="M5.1042 14.1667H5M5.2083 14.1667C5.2083 14.2818 5.1151 14.375 5 14.375 4.8849 14.375 4.7917 14.2818 4.7917 14.1667 4.7917 14.0516 4.8849 13.9583 5 13.9583 5.1151 13.9583 5.2083 14.0516 5.2083 14.1667Z" stroke="currentColor" stroke-linecap="round" stroke-linejoin="round" stroke-width="2"/>
  <path d="M14.7756 13.9583H14.6714M14.8797 13.9583C14.8797 14.0734 14.7864 14.1667 14.6714 14.1667 14.5563 14.1667 14.4631 14.0734 14.4631 13.9583 14.4631 13.8432 14.5563 13.75 14.6714 13.75 14.7864 13.75 14.8797 13.8432 14.8797 13.9583Z" stroke="currentColor" stroke-linecap="round" stroke-linejoin="round" stroke-width="2"/>
</svg>
