<svg xmlns="http://www.w3.org/2000/svg" width="20" height="20" viewBox="0 0 20 20" fill="none">
  <path d="M1.6667 1.6667L18.3333 18.3333" stroke="currentColor" stroke-linecap="round" stroke-linejoin="round" stroke-width="2"/>
  <path d="M16.6667 7.5V13.3333M3.3333 7.5V13.3333C3.3333 15.6903 3.3333 16.8688 4.0656 17.6011 4.7978 18.3333 5.9763 18.3333 8.3333 18.3333H11.6667C14.0237 18.3333 15.2022 18.3333 15.9344 17.6011 16.2195 17.3161 16.3936 16.9634 16.4999 16.4999" stroke="currentColor" stroke-linecap="round" stroke-linejoin="round" stroke-width="2"/>
  <path d="M6.6667 3.3333H16.25C17.0288 3.3333 17.4183 3.3333 17.7083 3.5008 17.8983 3.6105 18.0562 3.7683 18.1658 3.9583 18.3333 4.2484 18.3333 4.6378 18.3333 5.4167 18.3333 6.1955 18.3333 6.5849 18.1658 6.875 18.0562 7.065 17.8983 7.2228 17.7083 7.3325 17.4183 7.5 17.0288 7.5 16.25 7.5H10.8333M7.5 7.5H3.75C2.9712 7.5 2.5817 7.5 2.2917 7.3325 2.1016 7.2228 1.9438 7.065 1.8341 6.875 1.6667 6.5849 1.6667 6.1955 1.6667 5.4167 1.6667 4.6378 1.6667 4.2484 1.8341 3.9583 1.9438 3.7683 2.1016 3.6105 2.2917 3.5008 2.5247 3.3663 2.8218 3.3398 3.3333 3.3346" stroke="currentColor" stroke-linecap="round" stroke-linejoin="round" stroke-width="2"/>
</svg>
