<svg xmlns="http://www.w3.org/2000/svg" width="20" height="20" viewBox="0 0 20 20" fill="none">
  <path d="M10.8333 1.6667H9.1667C6.024 1.6667 4.4526 1.6667 3.4763 2.643 2.5 3.6193 2.5 5.1906 2.5 8.3333V11.6667C2.5 14.8093 2.5 16.3808 3.4763 17.357 4.4526 18.3333 6.024 18.3333 9.1667 18.3333H10.8333C13.976 18.3333 15.5474 18.3333 16.5237 17.357 17.5 16.3808 17.5 14.8093 17.5 11.6667V8.3333C17.5 5.1906 17.5 3.6193 16.5237 2.643 15.5474 1.6667 13.976 1.6667 10.8333 1.6667Z" stroke="currentColor" stroke-linecap="round" stroke-width="2"/>
  <path d="M17.5 10H2.5" stroke="currentColor" stroke-linecap="round" stroke-width="2"/>
  <path d="M12.5 5.8333H7.5" stroke="currentColor" stroke-linecap="round" stroke-width="2"/>
  <path d="M12.5 14.1667H7.5" stroke="currentColor" stroke-linecap="round" stroke-width="2"/>
</svg>
