<svg xmlns="http://www.w3.org/2000/svg" width="20" height="20" viewBox="0 0 20 20" fill="none">
  <path d="M5.8333 10V9.5833C5.8333 8.4328 4.9006 7.5 3.75 7.5 2.5994 7.5 1.6667 8.4328 1.6667 9.5833 1.6667 10.2649 1.994 10.8701 2.5 11.2502V11.6667C2.5 13.238 2.5 14.0237 2.9882 14.5118 3.4763 15 4.262 15 5.8333 15H14.1667C15.738 15 16.5237 15 17.0118 14.5118 17.5 14.0237 17.5 13.238 17.5 11.6667V11.2502C18.006 10.8701 18.3333 10.2649 18.3333 9.5833 18.3333 8.4328 17.4006 7.5 16.25 7.5 15.0994 7.5 14.1667 8.4328 14.1667 9.5833V10C14.1667 10.7857 14.1667 11.1785 13.9226 11.4226 13.6785 11.6667 13.2857 11.6667 12.5 11.6667H7.5C6.7143 11.6667 6.3215 11.6667 6.0774 11.4226 5.8333 11.1785 5.8333 10.7857 5.8333 10Z" stroke="currentColor" stroke-linecap="round" stroke-linejoin="round" stroke-width="2"/>
  <path d="M3.75 7.5C3.75 5.9423 3.75 5.1635 4.0849 4.5833 4.3044 4.2033 4.62 3.8877 5 3.6683 5.5801 3.3333 6.359 3.3333 7.9167 3.3333H12.0833C13.641 3.3333 14.4198 3.3333 15 3.6683 15.3801 3.8877 15.6957 4.2033 15.9151 4.5833 16.25 5.1635 16.25 5.9423 16.25 7.5" stroke="currentColor" stroke-linecap="round" stroke-linejoin="round" stroke-width="2"/>
  <path d="M15.8333 15V16.6667M4.1667 15V16.6667" stroke="currentColor" stroke-linecap="round" stroke-linejoin="round" stroke-width="2"/>
</svg>
