<svg xmlns="http://www.w3.org/2000/svg" width="20" height="20" viewBox="0 0 20 20" fill="none">
  <path d="M16.5524 18.3333H7.5453C5.1669 18.3333 3.9777 18.3333 3.2389 17.5992 2.5 16.865 2.5 15.6833 2.5 13.32V5.9304C2.5 5.4409 2.5 5.1962 2.6326 4.8831 2.7652 4.57 2.8831 4.4559 3.1189 4.2278 4.0412 3.3355 5.7727 2.2547 8.4182 1.8187 9.4907 1.6419 10.027 1.5535 10.4679 1.9289 10.9089 2.3043 10.9089 2.9126 10.9089 4.129V8.8491C10.9089 10.0142 10.9089 10.5967 11.1359 11.0918 11.5722 12.0433 12.5658 12.4173 13.4623 12.833 14.096 13.1268 14.7595 13.3884 15.3689 13.7312 16.4426 14.3352 17.1951 15.3773 17.4271 16.5813 17.5838 17.3947 17.5678 18.3333 16.5524 18.3333Z" stroke="currentColor" stroke-linecap="round" stroke-linejoin="round" stroke-width="2"/>
  <path d="M2.5 14.1667C2.5 14.1667 4.1725 13.3333 4.9588 13.5783 5.899 13.8712 6.6358 14.686 7.5 13.5594 8.443 12.4539 9.9929 11.6667 11.6667 11.6667" stroke="currentColor" stroke-linejoin="round" stroke-width="2"/>
  <path d="M15.8822 14.1667C15.0488 14.4444 13.3822 15.6667 13.3822 18.3333" stroke="currentColor" stroke-linecap="round" stroke-linejoin="round" stroke-width="2"/>
  <path d="M2.5488 7.0833H5.0488" stroke="currentColor" stroke-linecap="round" stroke-linejoin="round" stroke-width="2"/>
  <path d="M2.5 10H4.1667" stroke="currentColor" stroke-linecap="round" stroke-linejoin="round" stroke-width="2"/>
  <path d="M8.4375 8.3333H8.3333M8.5417 8.3333C8.5417 8.4484 8.4484 8.5417 8.3333 8.5417 8.2183 8.5417 8.125 8.4484 8.125 8.3333 8.125 8.2183 8.2183 8.125 8.3333 8.125 8.4484 8.125 8.5417 8.2183 8.5417 8.3333Z" stroke="currentColor" stroke-linecap="round" stroke-width="2"/>
  <path d="M8.4375 5H8.3333M8.5417 5C8.5417 5.1151 8.4484 5.2083 8.3333 5.2083 8.2183 5.2083 8.125 5.1151 8.125 5 8.125 4.8849 8.2183 4.7917 8.3333 4.7917 8.4484 4.7917 8.5417 4.8849 8.5417 5Z" stroke="currentColor" stroke-linecap="round" stroke-width="2"/>
</svg>
