<svg xmlns="http://www.w3.org/2000/svg" width="20" height="20" viewBox="0 0 20 20" fill="none">
  <path d="M2.5 3.75C2.5 3.0596 3.0596 2.5 3.75 2.5H5.4167C6.107 2.5 6.6667 3.0596 6.6667 3.75V5.4167C6.6667 6.107 6.107 6.6667 5.4167 6.6667H3.75C3.0596 6.6667 2.5 6.107 2.5 5.4167V3.75Z" stroke="currentColor" stroke-width="2"/>
  <path d="M2.5 14.5833C2.5 13.893 3.0596 13.3333 3.75 13.3333H5.4167C6.107 13.3333 6.6667 13.893 6.6667 14.5833V16.25C6.6667 16.9403 6.107 17.5 5.4167 17.5H3.75C3.0596 17.5 2.5 16.9403 2.5 16.25V14.5833Z" stroke="currentColor" stroke-width="2"/>
  <path d="M6.6667 15.4167H17.5M13.3333 4.5833H6.6667M13.6029 6.3971L6.3739 13.6261" stroke="currentColor" stroke-linecap="round" stroke-linejoin="round" stroke-width="2"/>
  <path d="M13.3333 3.75C13.3333 3.0596 13.893 2.5 14.5833 2.5H16.25C16.9403 2.5 17.5 3.0596 17.5 3.75V5.4167C17.5 6.107 16.9403 6.6667 16.25 6.6667H14.5833C13.893 6.6667 13.3333 6.107 13.3333 5.4167V3.75Z" stroke="currentColor" stroke-width="2"/>
  <path d="M15 17.5L16.1569 16.7114C17.0523 16.1011 17.5 15.7959 17.5 15.4167 17.5 15.0374 17.0523 14.7323 16.1569 14.1219L15 13.3333" stroke="currentColor" stroke-linecap="round" stroke-linejoin="round" stroke-width="2"/>
</svg>
