<svg xmlns="http://www.w3.org/2000/svg" width="20" height="20" viewBox="0 0 20 20" fill="none">
  <path d="M5.8332 17.5003V12.4576C5.8332 11.9788 5.8332 11.7394 5.6412 11.6798 5.2191 11.5489 4.5832 12.5 4.5832 12.5M5.8332 17.5003H4.5832M5.8332 17.5003H7.0832" stroke="currentColor" stroke-linecap="round" stroke-linejoin="round" stroke-width="2"/>
  <path d="M7.4999 5.4175V3.9592C7.4999 3.2717 7.4999 2.928 7.2558 2.7144 7.0117 2.5008 6.6189 2.5008 5.8332 2.5008 5.0476 2.5008 4.6547 2.5008 4.4106 2.7144 4.1666 2.928 4.1666 3.2717 4.1666 3.9592 4.1666 4.6466 4.1666 4.9903 4.4106 5.2039 4.6547 5.4175 5.0476 5.4175 5.8332 5.4175H7.4999ZM7.4999 5.4175V6.1467C7.4999 7.1778 7.4999 7.6934 7.1338 8.0138 6.7677 8.3342 6.1784 8.3342 4.9999 8.3342H4.1666" stroke="currentColor" stroke-linecap="round" stroke-linejoin="round" stroke-width="2"/>
  <path d="M13.7499 16.6667V3.3333M13.7499 16.6667C13.1664 16.6667 12.0762 15.0048 11.6666 14.5833M13.7499 16.6667C14.3335 16.6667 15.4237 15.0048 15.8333 14.5833" stroke="currentColor" stroke-linecap="round" stroke-linejoin="round" stroke-width="2"/>
</svg>
