<svg xmlns="http://www.w3.org/2000/svg" width="20" height="20" viewBox="0 0 20 20" fill="none">
  <path d="M3.3333 2.5H7.0176C7.7927 2.5 8.1802 2.5 8.2834 2.7334 8.3867 2.9669 8.123 3.2469 7.5956 3.807L4.5641 7.0263C4.0367 7.5864 3.773 7.8665 3.8762 8.0999 3.9794 8.3333 4.367 8.3333 5.1421 8.3333H8.3333" stroke="currentColor" stroke-linecap="round" stroke-linejoin="round" stroke-width="2"/>
  <path d="M3.3333 17.5L5.088 13.5877C5.4132 12.8626 5.5758 12.5 5.8333 12.5 6.0909 12.5 6.2535 12.8626 6.5787 13.5877L8.3333 17.5" stroke="currentColor" stroke-linecap="round" stroke-linejoin="round" stroke-width="2"/>
  <path d="M14.5833 16.6667V3.3333M14.5833 16.6667C13.9998 16.6667 12.9096 15.0048 12.5 14.5833M14.5833 16.6667C15.1668 16.6667 16.2571 15.0048 16.6667 14.5833" stroke="currentColor" stroke-linecap="round" stroke-linejoin="round" stroke-width="2"/>
</svg>
