<svg xmlns="http://www.w3.org/2000/svg" width="20" height="20" viewBox="0 0 20 20" fill="none">
  <path d="M15 16.6667V12.9065C15 12.1773 15 11.8127 14.7697 11.6973 14.5393 11.5817 14.2484 11.8005 13.6667 12.238L13.3333 12.4887" stroke="currentColor" stroke-linecap="round" stroke-linejoin="round" stroke-width="2"/>
  <path d="M13.3333 16.6667H16.6667" stroke="currentColor" stroke-linecap="round" stroke-linejoin="round" stroke-width="2"/>
  <path d="M16.6667 6.6667V5C16.6667 4.0795 15.9205 3.3333 15 3.3333 14.0795 3.3333 13.3333 4.0795 13.3333 5V6.6667C13.3333 7.5871 14.0795 8.3333 15 8.3333 15.9205 8.3333 16.6667 7.5871 16.6667 6.6667Z" stroke="currentColor" stroke-linecap="round" stroke-linejoin="round" stroke-width="2"/>
  <path d="M3.3333 6.6666C3.3333 6.6666 5.7883 3.3333 6.6667 3.3333 7.5451 3.3333 10 6.6667 10 6.6667" stroke="currentColor" stroke-linecap="round" stroke-linejoin="round" stroke-width="2"/>
  <path d="M6.6667 4.1667V16.6667" stroke="currentColor" stroke-linecap="round" stroke-linejoin="round" stroke-width="2"/>
</svg>
