<svg xmlns="http://www.w3.org/2000/svg" width="20" height="20" viewBox="0 0 20 20" fill="none">
  <path d="M16.6666 5L16.6665 15.0006" stroke="currentColor" stroke-linecap="round" stroke-linejoin="round" stroke-width="2"/>
  <path d="M9.5857 10.0094V10.3183C9.5518 12.7942 9.6643 13.6543 10.7064 13.255L10.9632 13.1034 11.1703 12.9594 11.6163 12.6152 12.45 11.8908 13.3024 11.171 13.7191 10.7934 13.9046 10.6046 14.1231 10.2888 14.1679 10.0085 14.1231 9.7302 13.9046 9.4143 13.7191 9.2255 13.3024 8.8479 12.45 8.1281 11.6163 7.4037 11.1703 7.0595 10.9632 6.9155 10.7064 6.7639C9.6643 6.3646 9.5518 7.2248 9.5857 9.7007V10.0094ZM9.5857 10.0094H3.3332" stroke="currentColor" stroke-linecap="round" stroke-linejoin="round" stroke-width="2"/>
</svg>
