<svg xmlns="http://www.w3.org/2000/svg" width="20" height="20" viewBox="0 0 20 20" fill="none">
  <path d="M6.4583 4.1667V16.6667" stroke="currentColor" stroke-linecap="round" stroke-linejoin="round" stroke-width="2"/>
  <path d="M9.7917 6.6666C9.7917 6.6666 7.3367 3.3333 6.4583 3.3333 5.5799 3.3333 3.125 6.6667 3.125 6.6667" stroke="currentColor" stroke-linecap="round" stroke-linejoin="round" stroke-width="2"/>
  <path d="M13.125 3.3333H15.0958C15.8655 3.3333 16.2503 3.3333 16.3628 3.5733 16.4751 3.8132 16.2288 4.1089 15.736 4.7001L13.8473 6.9665C13.3546 7.5578 13.1083 7.8535 13.2206 8.0934 13.333 8.3333 13.7178 8.3333 14.4875 8.3333H16.4583" stroke="currentColor" stroke-linecap="round" stroke-linejoin="round" stroke-width="2"/>
  <path d="M13.5417 14.375C13.1965 14.375 12.9167 14.6548 12.9167 15 12.9167 15.3452 13.1965 15.625 13.5417 15.625V15 14.375ZM16.0417 15.625C16.3868 15.625 16.6667 15.3452 16.6667 15 16.6667 14.6548 16.3868 14.375 16.0417 14.375V15 15.625ZM13.2008 15.0906L12.6043 14.9042H12.6043L13.2008 15.0906ZM12.1118 16.4803C12.0088 16.8098 12.1924 17.1603 12.5219 17.2633 12.8514 17.3662 13.2019 17.1826 13.3049 16.8531L12.7083 16.6667 12.1118 16.4803ZM16.2784 16.8531C16.3814 17.1826 16.7319 17.3662 17.0614 17.2633 17.3909 17.1603 17.5745 16.8098 17.4716 16.4803L16.875 16.6667 16.2784 16.8531ZM16.3825 15.0906L16.979 14.9042V14.9042L16.3825 15.0906ZM13.5417 15V15.625H16.0417V15 14.375H13.5417V15ZM13.2008 15.0906L12.6043 14.9042 12.1118 16.4803 12.7083 16.6667 13.3049 16.8531 13.7974 15.277 13.2008 15.0906ZM16.875 16.6667L17.4716 16.4803 16.979 14.9042 16.3825 15.0906 15.7859 15.277 16.2784 16.8531 16.875 16.6667ZM13.2008 15.0906L13.7974 15.277C14.1323 14.2052 14.3637 13.3938 14.5908 12.8295 14.7043 12.5477 14.7955 12.3844 14.8636 12.2997 14.9263 12.2216 14.9005 12.2917 14.7917 12.2917V11.6667 11.0417C14.3765 11.0417 14.0802 11.2789 13.8891 11.5168 13.7033 11.7479 13.5574 12.0494 13.4313 12.3627 13.1792 12.9887 12.9215 13.8893 12.6043 14.9042L13.2008 15.0906ZM16.3825 15.0906L16.979 14.9042C16.6618 13.8893 16.4041 12.9887 16.1521 12.3627 16.0259 12.0494 15.88 11.7479 15.6943 11.5168 15.5032 11.2789 15.2068 11.0417 14.7917 11.0417V11.6667 12.2917C14.6828 12.2917 14.657 12.2216 14.7197 12.2997 14.7878 12.3844 14.879 12.5477 14.9925 12.8295 15.2197 13.3938 15.451 14.2052 15.7859 15.277L16.3825 15.0906Z" fill="currentColor"/>
</svg>
