<svg xmlns="http://www.w3.org/2000/svg" width="20" height="20" viewBox="0 0 20 20" fill="none">
  <path d="M17.5 7.5L17.5 12.5" stroke="currentColor" stroke-linecap="round" stroke-linejoin="round" stroke-width="2"/>
  <path d="M4.397 12.4459L6.6628 14.494C8.4534 16.1125 9.3487 16.9218 10.091 16.5953 10.8333 16.2688 10.8333 15.0657 10.8333 12.6596V12.5H11.6667C12.8452 12.5 13.4344 12.5 13.8006 12.1339 14.1667 11.7677 14.1667 11.1785 14.1667 10 14.1667 8.8215 14.1667 8.2322 13.8006 7.8661 13.4344 7.5 12.8452 7.5 11.6667 7.5H10.8333V7.3404C10.8333 4.9343 10.8333 3.7312 10.091 3.4047 9.3487 3.0782 8.4534 3.8875 6.6628 5.506L4.397 7.5541C3.1323 8.6973 2.5 9.2688 2.5 10 2.5 10.7312 3.1323 11.3027 4.397 12.4459Z" stroke="currentColor" stroke-linecap="round" stroke-linejoin="round" stroke-width="2"/>
</svg>
