<svg xmlns="http://www.w3.org/2000/svg" width="20" height="20" viewBox="0 0 20 20" fill="none">
  <path d="M5.0009 3.3439L14.9988 3.3439" stroke="currentColor" stroke-linecap="round" stroke-linejoin="round" stroke-width="2"/>
  <path d="M9.9964 10.4254L10.3053 10.4234C12.7819 10.4408 13.6415 10.3226 13.2352 9.2832L13.0818 9.0275 12.9364 8.8213 12.5893 8.3776 11.8591 7.5488 11.1335 6.7013 10.7531 6.2871 10.563 6.1029 10.2457 5.8865 9.9651 5.8435 9.6869 5.8902 9.3724 6.1108 9.1848 6.2976 8.8099 6.7167 8.0957 7.5738 7.3766 8.4123 7.0354 8.8605 6.8928 9.0687 6.7428 9.3263C6.3503 10.3711 7.2115 10.4778 9.6877 10.4275L9.9964 10.4254ZM9.9964 10.4254L10.038 16.6775" stroke="currentColor" stroke-linecap="round" stroke-linejoin="round" stroke-width="2"/>
</svg>
