<svg xmlns="http://www.w3.org/2000/svg" width="20" height="20" viewBox="0 0 20 20" fill="none">
  <path d="M6.4583 15.8333V3.3333" stroke="currentColor" stroke-linecap="round" stroke-linejoin="round" stroke-width="2"/>
  <path d="M3.125 13.3333C3.125 13.3333 5.58 16.6667 6.4584 16.6667 7.3368 16.6667 9.7917 13.3333 9.7917 13.3333" stroke="currentColor" stroke-linecap="round" stroke-linejoin="round" stroke-width="2"/>
  <path d="M13.5417 14.3749C13.1965 14.3749 12.9167 14.6547 12.9167 14.9999 12.9167 15.3451 13.1965 15.6249 13.5417 15.6249V14.9999 14.3749ZM16.0417 15.6249C16.3868 15.6249 16.6667 15.3451 16.6667 14.9999 16.6667 14.6547 16.3868 14.3749 16.0417 14.3749V14.9999 15.6249ZM13.2008 15.0905L12.6043 14.9041H12.6043L13.2008 15.0905ZM12.1118 16.4802C12.0088 16.8097 12.1924 17.1602 12.5219 17.2632 12.8514 17.3661 13.2019 17.1825 13.3049 16.853L12.7083 16.6666 12.1118 16.4802ZM16.2784 16.853C16.3814 17.1825 16.7319 17.3661 17.0614 17.2632 17.3909 17.1602 17.5745 16.8097 17.4716 16.4802L16.875 16.6666 16.2784 16.853ZM16.3825 15.0905L16.979 14.9041V14.9041L16.3825 15.0905ZM13.5417 14.9999V15.6249H16.0417V14.9999 14.3749H13.5417V14.9999ZM13.2008 15.0905L12.6043 14.9041 12.1118 16.4802 12.7083 16.6666 13.3049 16.853 13.7974 15.2769 13.2008 15.0905ZM16.875 16.6666L17.4716 16.4802 16.979 14.9041 16.3825 15.0905 15.7859 15.2769 16.2784 16.853 16.875 16.6666ZM13.2008 15.0905L13.7974 15.2769C14.1293 14.2149 14.3603 13.48 14.579 13.0038 14.6881 12.7663 14.7712 12.6466 14.8243 12.5919 14.8619 12.5533 14.8441 12.5854 14.7917 12.5854V11.9604 11.3354C14.4329 11.3354 14.1446 11.4981 13.9284 11.7202 13.7277 11.9264 13.5737 12.1979 13.4431 12.4821 13.1826 13.0493 12.9245 13.8794 12.6043 14.9041L13.2008 15.0905ZM16.3825 15.0905L16.979 14.9041C16.6588 13.8794 16.4008 13.0493 16.1403 12.4821 16.0097 12.1979 15.8556 11.9264 15.6549 11.7202 15.4387 11.4981 15.1504 11.3354 14.7917 11.3354V11.9604 12.5854C14.7393 12.5854 14.7214 12.5533 14.7591 12.5919 14.8122 12.6466 14.8953 12.7663 15.0043 13.0038 15.223 13.48 15.454 14.2149 15.7859 15.2769L16.3825 15.0905Z" fill="currentColor"/>
  <path d="M13.125 3.3333H15.0958C15.8655 3.3333 16.2503 3.3333 16.3628 3.5733 16.4751 3.8132 16.2288 4.1089 15.736 4.7001L13.8473 6.9665C13.3546 7.5578 13.1083 7.8535 13.2206 8.0934 13.333 8.3333 13.7178 8.3333 14.4875 8.3333H16.4583" stroke="currentColor" stroke-linecap="round" stroke-linejoin="round" stroke-width="2"/>
</svg>
