<svg xmlns="http://www.w3.org/2000/svg" width="20" height="20" viewBox="0 0 20 20" fill="none">
  <path d="M11.8581 14.9956C11.8493 14.3706 11.42 12.301 11.8588 11.8623 12.2976 11.4236 14.3665 11.8539 14.9913 11.8629M17.4996 17.4984L12.1789 12.1788" stroke="currentColor" stroke-linecap="round" stroke-linejoin="round" stroke-width="2"/>
  <path d="M8.1413 14.9953C8.1501 14.3704 8.5794 12.3008 8.1407 11.862 7.7019 11.4233 5.633 11.8538 5.0082 11.8627M2.4998 17.4982L7.8205 12.1787" stroke="currentColor" stroke-linecap="round" stroke-linejoin="round" stroke-width="2"/>
  <path d="M5.0062 8.1344C5.631 8.1424 7.7006 8.5693 8.1387 8.1299 8.5768 7.6904 8.1439 5.6215 8.1341 4.9966M7.8141 7.8062L2.5015 2.502" stroke="currentColor" stroke-linecap="round" stroke-linejoin="round" stroke-width="2"/>
  <path d="M14.993 8.1344C14.3683 8.1424 12.2987 8.5693 11.8605 8.1299 11.4225 7.6904 11.8553 5.6215 11.8651 4.9966M12.1851 7.8062L17.4977 2.502" stroke="currentColor" stroke-linecap="round" stroke-linejoin="round" stroke-width="2"/>
</svg>
