<svg xmlns="http://www.w3.org/2000/svg" width="20" height="20" viewBox="0 0 20 20" fill="none">
  <path d="M12.9533 9.5833H12.5V14.5833C12.5 15.3599 12.5 15.7482 12.3732 16.0545 12.204 16.4628 11.8795 16.7873 11.4712 16.9565 11.1648 17.0833 10.7766 17.0833 10 17.0833 9.2234 17.0833 8.8352 17.0833 8.5288 16.9565 8.1205 16.7873 7.796 16.4628 7.6269 16.0545 7.5 15.7482 7.5 15.3599 7.5 14.5833V9.5833H7.0466C5.311 9.5833 4.4432 9.5833 4.2148 9.0831 3.9864 8.5828 4.5812 7.9848 5.7707 6.7887L8.7241 3.819C9.3223 3.2174 9.6215 2.9167 10 2.9167 10.3785 2.9167 10.6777 3.2174 11.2759 3.819L14.2293 6.7887C15.4188 7.9848 16.0136 8.5828 15.7852 9.0831 15.5567 9.5833 14.689 9.5833 12.9533 9.5833Z" stroke="currentColor" stroke-linecap="round" stroke-linejoin="round" stroke-width="2"/>
</svg>
