<svg xmlns="http://www.w3.org/2000/svg" width="20" height="20" viewBox="0 0 20 20" fill="none">
  <path d="M10.4167 7.0466V7.5L5.4167 7.5C4.6401 7.5 4.2518 7.5 3.9455 7.6269 3.5372 7.796 3.2127 8.1205 3.0435 8.5288 2.9167 8.8352 2.9167 9.2234 2.9167 10 2.9167 10.7766 2.9167 11.1648 3.0435 11.4712 3.2127 11.8795 3.5372 12.204 3.9455 12.3732 4.2518 12.5 4.6401 12.5 5.4167 12.5H10.4167V12.9533C10.4167 14.689 10.4167 15.5567 10.9169 15.7852 11.4172 16.0136 12.0152 15.4188 13.2113 14.2293L16.181 11.2759C16.7826 10.6777 17.0833 10.3785 17.0833 10 17.0833 9.6215 16.7826 9.3223 16.181 8.7241L13.2113 5.7707C12.0152 4.5812 11.4172 3.9864 10.9169 4.2148 10.4167 4.4432 10.4167 5.311 10.4167 7.0466Z" stroke="currentColor" stroke-linecap="round" stroke-linejoin="round" stroke-width="2"/>
</svg>
