<svg xmlns="http://www.w3.org/2000/svg" width="20" height="20" viewBox="0 0 20 20" fill="none">
  <path d="M9.5833 7.0466V7.5L14.5833 7.5C15.3599 7.5 15.7482 7.5 16.0545 7.6269 16.4628 7.796 16.7873 8.1205 16.9565 8.5288 17.0833 8.8352 17.0833 9.2234 17.0833 10 17.0833 10.7766 17.0833 11.1648 16.9565 11.4712 16.7873 11.8795 16.4628 12.204 16.0545 12.3732 15.7482 12.5 15.3599 12.5 14.5833 12.5H9.5833V12.9533C9.5833 14.689 9.5833 15.5567 9.0831 15.7852 8.5828 16.0136 7.9848 15.4188 6.7887 14.2293L3.819 11.2759C3.2174 10.6777 2.9167 10.3785 2.9167 10 2.9167 9.6215 3.2174 9.3223 3.819 8.7241L6.7887 5.7707C7.9848 4.5812 8.5828 3.9864 9.0831 4.2148 9.5833 4.4432 9.5833 5.311 9.5833 7.0466Z" stroke="currentColor" stroke-linecap="round" stroke-linejoin="round" stroke-width="2"/>
</svg>
