<svg xmlns="http://www.w3.org/2000/svg" width="20" height="20" viewBox="0 0 20 20" fill="none">
  <path d="M6.4583 15.8333V3.3333" stroke="currentColor" stroke-linecap="round" stroke-linejoin="round" stroke-width="2"/>
  <path d="M3.125 13.3333C3.125 13.3333 5.58 16.6667 6.4584 16.6667 7.3368 16.6667 9.7917 13.3333 9.7917 13.3333" stroke="currentColor" stroke-linecap="round" stroke-linejoin="round" stroke-width="2"/>
  <path d="M13.125 11.6667H15.0958C15.8655 11.6667 16.2503 11.6667 16.3628 11.9066 16.4751 12.1465 16.2288 12.4422 15.736 13.0335L13.8473 15.2998C13.3546 15.8912 13.1083 16.1868 13.2206 16.4268 13.333 16.6667 13.7178 16.6667 14.4875 16.6667H16.4583" stroke="currentColor" stroke-linecap="round" stroke-linejoin="round" stroke-width="2"/>
  <path d="M13.5417 6.0417C13.1965 6.0417 12.9167 6.3215 12.9167 6.6667 12.9167 7.0118 13.1965 7.2917 13.5417 7.2917V6.6667 6.0417ZM16.0417 7.2917C16.3868 7.2917 16.6667 7.0118 16.6667 6.6667 16.6667 6.3215 16.3868 6.0417 16.0417 6.0417V6.6667 7.2917ZM13.2008 6.7572L12.6043 6.5708H12.6043L13.2008 6.7572ZM12.1118 8.1469C12.0088 8.4763 12.1924 8.8269 12.5219 8.9298 12.8514 9.0328 13.2019 8.8492 13.3049 8.5198L12.7083 8.3333 12.1118 8.1469ZM16.2784 8.5198C16.3814 8.8492 16.7319 9.0328 17.0614 8.9298 17.3909 8.8269 17.5745 8.4763 17.4716 8.1469L16.875 8.3333 16.2784 8.5198ZM16.3825 6.7572L16.979 6.5708V6.5708L16.3825 6.7572ZM13.5417 6.6667V7.2917H16.0417V6.6667 6.0417H13.5417V6.6667ZM13.2008 6.7572L12.6043 6.5708 12.1118 8.1469 12.7083 8.3333 13.3049 8.5198 13.7974 6.9436 13.2008 6.7572ZM16.875 8.3333L17.4716 8.1469 16.979 6.5708 16.3825 6.7572 15.7859 6.9436 16.2784 8.5198 16.875 8.3333ZM13.2008 6.7572L13.7974 6.9436C14.1293 5.8816 14.3603 5.1467 14.579 4.6705 14.6881 4.4331 14.7712 4.3133 14.8243 4.2587 14.8619 4.2199 14.8441 4.2522 14.7917 4.2522V3.6272 3.0022C14.4329 3.0022 14.1446 3.1648 13.9284 3.3869 13.7277 3.5932 13.5737 3.8646 13.4431 4.1488 13.1826 4.716 12.9245 5.5461 12.6043 6.5708L13.2008 6.7572ZM16.3825 6.7572L16.979 6.5708C16.6588 5.5461 16.4008 4.716 16.1403 4.1488 16.0097 3.8646 15.8556 3.5932 15.6549 3.3869 15.4387 3.1648 15.1504 3.0022 14.7917 3.0022V3.6272 4.2522C14.7393 4.2522 14.7214 4.2199 14.7591 4.2587 14.8122 4.3133 14.8953 4.4331 15.0043 4.6705 15.223 5.1467 15.454 5.8816 15.7859 6.9436L16.3825 6.7572Z" fill="currentColor"/>
</svg>
