<svg xmlns="http://www.w3.org/2000/svg" width="20" height="20" viewBox="0 0 20 20" fill="none">
  <path d="M17.5 5V15" stroke="currentColor" stroke-linecap="round" stroke-width="2"/>
  <path d="M13.3333 10.625C13.6785 10.625 13.9583 10.3452 13.9583 10 13.9583 9.6548 13.6785 9.375 13.3333 9.375V10 10.625ZM2.5 9.375C2.1548 9.375 1.875 9.6548 1.875 10 1.875 10.3452 2.1548 10.625 2.5 10.625V10 9.375ZM14.1667 10L13.5417 10V10L14.1667 10ZM10.3707 5.3301C10.0928 5.1254 9.7015 5.1848 9.4968 5.4627 9.2921 5.7406 9.3515 6.1319 9.6294 6.3366L10 5.8333 10.3707 5.3301ZM9.6293 13.6634C9.3514 13.8681 9.2921 14.2593 9.4968 14.5373 9.7014 14.8153 10.0927 14.8746 10.3707 14.6699L10 14.1667 9.6293 13.6634ZM13.3333 10V9.375H2.5V10 10.625H13.3333V10ZM14.1667 10L14.7917 10C14.7917 9.6888 14.6536 9.3999 14.5229 9.1831 14.3818 8.9491 14.1921 8.7075 13.984 8.4719 13.5665 7.9994 13.0217 7.492 12.4931 7.033 11.9613 6.5713 11.4314 6.1462 11.0356 5.8373 10.8373 5.6825 10.6719 5.5564 10.5557 5.4686 10.4977 5.4247 10.4518 5.3904 10.4203 5.3669 10.4046 5.3552 10.3923 5.3461 10.384 5.3399 10.3798 5.3369 10.3766 5.3345 10.3743 5.3328 10.3733 5.332 10.3724 5.3314 10.3718 5.3309 10.3714 5.3307 10.3712 5.3305 10.371 5.3304 10.3709 5.3303 10.3708 5.3302 10.3708 5.3302 10.3708 5.3301 10.3707 5.3301 10 5.8333 9.6294 6.3366 9.6293 6.3366 9.6293 6.3365 9.6294 6.3366 9.6294 6.3366 9.6294 6.3366 9.6295 6.3366 9.6296 6.3367 9.6298 6.3369 9.6303 6.3372 9.6308 6.3377 9.6318 6.3383 9.6335 6.3396 9.6363 6.3417 9.64 6.3444 9.6474 6.3499 9.6586 6.3582 9.6733 6.3692 9.7028 6.3912 9.7466 6.4239 9.8023 6.4661 9.9141 6.5504 10.0742 6.6726 10.2666 6.8227 10.6519 7.1235 11.1637 7.5341 11.6736 7.9769 12.1866 8.4223 12.6835 8.8879 13.0473 9.2996 13.2298 9.5062 13.3656 9.6844 13.4523 9.8284 13.5495 9.9896 13.5417 10.0368 13.5417 10L14.1667 10ZM10 14.1667C10.3707 14.6699 10.3707 14.6698 10.3708 14.6698 10.3708 14.6698 10.3709 14.6698 10.371 14.6697 10.3712 14.6695 10.3714 14.6693 10.3718 14.6691 10.3723 14.6687 10.3733 14.668 10.3743 14.6672 10.3766 14.6655 10.3798 14.6632 10.384 14.6601 10.3923 14.6538 10.4045 14.6448 10.4203 14.6331 10.4518 14.6096 10.4976 14.5753 10.5557 14.5314 10.6719 14.4437 10.8373 14.3175 11.0356 14.1628 11.4314 13.8538 11.9613 13.4288 12.4931 12.967 13.0217 12.5081 13.5665 12.0007 13.984 11.5281 14.1921 11.2926 14.3818 11.051 14.5229 10.817 14.6536 10.6002 14.7917 10.3113 14.7917 10L14.1667 10 13.5417 10C13.5417 9.9633 13.5495 10.0105 13.4523 10.1717 13.3656 10.3156 13.2298 10.4939 13.0473 10.7004 12.6835 11.1121 12.1866 11.5777 11.6736 12.0232 11.1637 12.4659 10.6519 12.8766 10.2665 13.1773 10.0742 13.3274 9.9141 13.4496 9.8023 13.5339 9.7465 13.5761 9.7028 13.6088 9.6733 13.6308 9.6586 13.6418 9.6473 13.6501 9.6399 13.6556 9.6363 13.6583 9.6335 13.6604 9.6318 13.6617 9.6308 13.6623 9.6302 13.6628 9.6298 13.6631 9.6296 13.6633 9.6295 13.6633 9.6294 13.6634 9.6293 13.6634 9.6293 13.6634 9.6293 13.6634 9.6293 13.6634 9.6293 13.6634 10 14.1667Z" fill="currentColor"/>
</svg>
