<svg xmlns="http://www.w3.org/2000/svg" width="20" height="20" viewBox="0 0 20 20" fill="none">
  <path d="M6.6667 15.8333V3.3333" stroke="currentColor" stroke-linecap="round" stroke-linejoin="round" stroke-width="2"/>
  <path d="M13.3333 8.3333H16.6667" stroke="currentColor" stroke-linecap="round" stroke-linejoin="round" stroke-width="2"/>
  <path d="M16.6667 15V13.3333C16.6667 12.4128 15.9205 11.6667 15 11.6667 14.0795 11.6667 13.3333 12.4128 13.3333 13.3333V15C13.3333 15.9205 14.0795 16.6667 15 16.6667 15.9205 16.6667 16.6667 15.9205 16.6667 15Z" stroke="currentColor" stroke-linecap="round" stroke-linejoin="round" stroke-width="2"/>
  <path d="M15 8.3333V4.5732C15 3.844 15 3.4794 14.7697 3.3639 14.5393 3.2484 14.2484 3.4672 13.6667 3.9047L13.3333 4.1554" stroke="currentColor" stroke-linecap="round" stroke-linejoin="round" stroke-width="2"/>
  <path d="M3.3333 13.3333C3.3333 13.3333 5.7883 16.6667 6.6667 16.6667 7.5451 16.6667 10 13.3333 10 13.3333" stroke="currentColor" stroke-linecap="round" stroke-linejoin="round" stroke-width="2"/>
</svg>
