<svg xmlns="http://www.w3.org/2000/svg" width="20" height="20" viewBox="0 0 20 20" fill="none">
  <path d="M12.4459 15.603L14.494 13.3372C16.1125 11.5466 16.9218 10.6513 16.5953 9.909 16.2688 9.1667 15.0657 9.1667 12.6596 9.1667H12.5V8.3333C12.5 7.1548 12.5 6.5656 12.1339 6.1994 11.7677 5.8333 11.1785 5.8333 10 5.8333 8.8215 5.8333 8.2322 5.8333 7.8661 6.1994 7.5 6.5656 7.5 7.1548 7.5 8.3333V9.1667H7.3404C4.9343 9.1667 3.7312 9.1667 3.4047 9.909 3.0782 10.6513 3.8875 11.5466 5.506 13.3372L7.5541 15.603C8.6973 16.8677 9.2688 17.5 10 17.5 10.7312 17.5 11.3027 16.8677 12.4459 15.603Z" stroke="currentColor" stroke-linecap="round" stroke-linejoin="round" stroke-width="2"/>
  <path d="M7.5 2.5H12.5" stroke="currentColor" stroke-linecap="round" stroke-linejoin="round" stroke-width="2"/>
</svg>
