<svg xmlns="http://www.w3.org/2000/svg" width="20" height="20" viewBox="0 0 20 20" fill="none">
  <path d="M9.9918 7.4883V2.7629" stroke="currentColor" stroke-linecap="round" stroke-linejoin="round" stroke-width="2"/>
  <path d="M9.9918 17.2254V12.5" stroke="currentColor" stroke-linecap="round" stroke-linejoin="round" stroke-width="2"/>
  <path d="M17.2252 10.0001L12.4999 9.9568" stroke="currentColor" stroke-linecap="round" stroke-linejoin="round" stroke-width="2"/>
  <path d="M7.5003 10.0001L2.775 9.9568" stroke="currentColor" stroke-linecap="round" stroke-linejoin="round" stroke-width="2"/>
  <path d="M12.4999 5C12.4999 5 10.6587 2.5 9.9999 2.5 9.3411 2.5 7.5 5 7.5 5" stroke="currentColor" stroke-linecap="round" stroke-linejoin="round" stroke-width="2"/>
  <path d="M4.9999 12.5C4.9999 12.5 2.5 10.6587 2.5 10 2.5 9.3412 5 7.5 5 7.5" stroke="currentColor" stroke-linecap="round" stroke-linejoin="round" stroke-width="2"/>
  <path d="M14.9999 7.5C14.9999 7.5 17.4999 9.3413 17.4999 10 17.4999 10.6588 14.9999 12.5 14.9999 12.5" stroke="currentColor" stroke-linecap="round" stroke-linejoin="round" stroke-width="2"/>
  <path d="M7.5 15C7.5 15 9.3412 17.5 9.9999 17.5 10.6587 17.5 12.4999 15 12.4999 15" stroke="currentColor" stroke-linecap="round" stroke-linejoin="round" stroke-width="2"/>
</svg>
