<svg xmlns="http://www.w3.org/2000/svg" width="20" height="20" viewBox="0 0 20 20" fill="none">
  <path d="M3.3334 4.9996L3.3334 15.0002" stroke="currentColor" stroke-linecap="round" stroke-linejoin="round" stroke-width="2"/>
  <path d="M10.414 10.0091V10.3178C10.4478 12.7937 10.3353 13.6539 9.2933 13.2546L9.0365 13.103 8.8293 12.959 8.3833 12.6148 7.5497 11.8904 6.6973 11.1706 6.2806 10.793 6.095 10.6043 5.8766 10.2883 5.8317 10.0081 5.8766 9.7298 6.095 9.4139 6.2806 9.2251 6.6973 8.8475 7.5497 8.1277 8.3833 7.4033 8.8293 7.0591 9.0365 6.9151 9.2933 6.7635C10.3353 6.3642 10.4478 7.2243 10.414 9.7003V10.0091ZM10.414 10.0091H16.6665" stroke="currentColor" stroke-linecap="round" stroke-linejoin="round" stroke-width="2"/>
</svg>
