<svg xmlns="http://www.w3.org/2000/svg" width="20" height="20" viewBox="0 0 20 20" fill="none">
  <path d="M6.6667 3.75V2.5M13.3333 3.75V2.5" stroke="currentColor" stroke-linecap="round" stroke-linejoin="round" stroke-width="2"/>
  <path d="M16.25 6.6667L17.5 6.6667M16.25 13.3333H17.5" stroke="currentColor" stroke-linecap="round" stroke-linejoin="round" stroke-width="2"/>
  <path d="M6.6667 17.5V16.25M13.3333 17.5V16.25" stroke="currentColor" stroke-linecap="round" stroke-linejoin="round" stroke-width="2"/>
  <path d="M2.5 6.6667L3.75 6.6667M2.5 13.3333H3.75" stroke="currentColor" stroke-linecap="round" stroke-linejoin="round" stroke-width="2"/>
  <path d="M6.6667 9.1667C6.6667 7.9882 6.6667 7.3989 7.0328 7.0328 7.3989 6.6667 7.9882 6.6667 9.1667 6.6667H10.8333C12.0118 6.6667 12.6011 6.6667 12.9673 7.0328 13.3333 7.3989 13.3333 7.9882 13.3333 9.1667V10.8333C13.3333 12.0118 13.3333 12.6011 12.9673 12.9673 12.6011 13.3333 12.0118 13.3333 10.8333 13.3333H9.1667C7.9882 13.3333 7.3989 13.3333 7.0328 12.9673 6.6667 12.6011 6.6667 12.0118 6.6667 10.8333V9.1667Z" stroke="currentColor" stroke-width="2"/>
</svg>
