<svg xmlns="http://www.w3.org/2000/svg" width="20" height="20" viewBox="0 0 20 20" fill="none">
  <path d="M13.3333 18.3329V17.9163C13.3333 16.9958 14.1101 16.25 14.9352 15.8422 15.7372 15.4458 16.4119 14.7922 16.4971 14.0257L16.6667 12.4996 18.3333 11.6662 16.25 8.5412C16.25 4.955 13.5041 2.0101 10 1.6943M5.4167 14.1631V18.3329M5.4167 14.1631C4.5555 13.5557 3.8401 12.7553 3.3333 11.8248M5.4167 14.1631C6.0422 14.6044 6.7447 14.9438 7.5 15.1575" stroke="currentColor" stroke-linecap="round" stroke-linejoin="round" stroke-width="2"/>
  <path d="M6.6667 3.3333H5C4.2143 3.3333 3.8215 3.3333 3.5774 3.5774 3.3333 3.8215 3.3333 4.2143 3.3333 5V6.6667C3.3333 7.4523 3.3333 7.8452 3.5774 8.0893 3.8215 8.3333 4.2143 8.3333 5 8.3333H6.6667C7.4523 8.3333 7.8452 8.3333 8.0893 8.0893 8.3333 7.8452 8.3333 7.4523 8.3333 6.6667V5C8.3333 4.2143 8.3333 3.8215 8.0893 3.5774 7.8452 3.3333 7.4523 3.3333 6.6667 3.3333Z" stroke="currentColor" stroke-linecap="round" stroke-linejoin="round" stroke-width="2"/>
  <path d="M4.5833 8.3333V10M7.0833 8.3333V10M4.5833 1.6666V3.3333M7.0833 1.6666V3.3333M3.3333 4.5833H1.6667M3.3333 7.0833H1.6667M10 4.5833H8.3333M10 7.0833H8.3333" stroke="currentColor" stroke-linecap="round" stroke-linejoin="round" stroke-width="2"/>
</svg>
