<svg xmlns="http://www.w3.org/2000/svg" width="20" height="20" viewBox="0 0 20 20" fill="none">
  <path d="M6.25 12.0833L7.7849 7.4786C7.8636 7.2426 8.0845 7.0833 8.3333 7.0833 8.5822 7.0833 8.8031 7.2426 8.8818 7.4786L10.4167 12.0833M12.9167 7.0833V12.0833M7.0833 10.4167H9.5833" stroke="currentColor" stroke-linecap="round" stroke-linejoin="round" stroke-width="2"/>
  <path d="M17.5092 11.7471C17.9441 11.6298 18.1616 11.5712 18.2474 11.459 18.3333 11.3469 18.3333 11.1665 18.3333 10.8058V9.1943C18.3333 8.8336 18.3333 8.6532 18.2474 8.5411 18.1615 8.4289 17.9441 8.3703 17.5092 8.253 15.8838 7.8147 14.8666 6.1154 15.2861 4.5007 15.4014 4.0567 15.4591 3.8346 15.404 3.7044 15.3489 3.5742 15.1909 3.4844 14.8747 3.305L13.4375 2.4889C13.1273 2.3128 12.9723 2.2248 12.8331 2.2435 12.6938 2.2623 12.5368 2.4189 12.2227 2.7323 11.0067 3.9454 8.9947 3.9454 7.7786 2.7322 7.4645 2.4189 7.3075 2.2622 7.1683 2.2434 7.0291 2.2247 6.874 2.3127 6.5638 2.4889L5.1265 3.3049C4.8104 3.4844 4.6524 3.5741 4.5973 3.7043 4.5422 3.8345 4.5999 4.0566 4.7152 4.5007 5.1345 6.1154 4.1164 7.8147 2.4909 8.253 2.0559 8.3703 1.8385 8.4289 1.7526 8.541 1.6667 8.6532 1.6667 8.8336 1.6667 9.1943V10.8058C1.6667 11.1665 1.6667 11.3469 1.7526 11.459 1.8385 11.5712 2.0559 11.6298 2.4909 11.7471 4.1162 12.1854 5.1334 13.8847 4.7139 15.4993 4.5986 15.9434 4.5409 16.1654 4.596 16.2957 4.6511 16.4259 4.8091 16.5157 5.1252 16.6951L6.5625 17.5112C6.8727 17.6872 7.0278 17.7753 7.167 17.7566 7.3062 17.7378 7.4632 17.5811 7.7773 17.2677 8.9939 16.0537 11.0073 16.0536 12.2241 17.2677 12.5381 17.5811 12.6951 17.7378 12.8343 17.7565 12.9735 17.7753 13.1287 17.6872 13.4388 17.5111L14.8761 16.695C15.1922 16.5156 15.3503 16.4258 15.4053 16.2956 15.4604 16.1653 15.4028 15.9433 15.2873 15.4992 14.8677 13.8847 15.8841 12.1855 17.5092 11.7471Z" stroke="currentColor" stroke-linecap="round" stroke-width="2"/>
</svg>
