<svg xmlns="http://www.w3.org/2000/svg" width="20" height="20" viewBox="0 0 20 20" fill="none">
  <path d="M10.8314 1.6666C10.2341 1.6666 9.5098 1.6667 9.2849 1.8241 9.0601 1.9815 8.9657 2.2566 8.7767 2.8068 8.5619 3.4286 8.409 4.0741 7.8115 4.445L7.5217 4.607C6.7861 4.9733 6.037 4.6619 5.3034 4.4617 4.9217 4.3567 4.5536 4.3253 4.328 4.3165 4.1878 4.3111 4.0598 4.3869 3.9874 4.5072L2.6169 6.7837C2.5449 6.9033 2.5374 7.0509 2.6072 7.1718 2.7121 7.3536 2.8924 7.6343 3.1353 7.896 3.7138 8.5228 4.3929 9.0784 4.3929 10.0031 4.3929 10.928 3.7139 11.4835 3.1353 12.1103 2.8924 12.3721 2.7121 12.6528 2.6072 12.8346 2.5374 12.9555 2.5449 13.1032 2.6169 13.2228L3.9874 15.4992C4.0598 15.6195 4.1878 15.6952 4.328 15.6898 4.5537 15.6812 4.9217 15.6497 5.3034 15.5447 6.037 15.3444 6.7862 15.0331 7.5219 15.3994L7.8116 15.5615C8.4091 15.9325 8.5619 16.5778 8.7767 17.1997 8.9657 17.7499 9.0601 18.025 9.2849 18.1823 9.5098 18.3398 10.2341 18.3332 10.8314 18.3332" stroke="currentColor" stroke-linecap="round" stroke-width="2"/>
  <path d="M10.8317 12.9167C9.2208 12.9167 7.915 11.6108 7.915 10 7.915 8.3892 9.2208 7.0833 10.8317 7.0833" stroke="currentColor" stroke-linecap="round" stroke-width="2"/>
  <path d="M16.8733 3.9583L14.9983 5.8333H13.3317M16.2483 3.9583C16.2483 4.3035 16.5282 4.5833 16.8733 4.5833 17.2185 4.5833 17.4983 4.3035 17.4983 3.9583 17.4983 3.6131 17.2185 3.3333 16.8733 3.3333 16.5282 3.3333 16.2483 3.6131 16.2483 3.9583Z" stroke="currentColor" stroke-linecap="round" stroke-linejoin="round" stroke-width="2"/>
  <path d="M16.8733 16.0417L14.9983 14.1667H13.3317M16.2483 16.0417C16.2483 15.6965 16.5282 15.4167 16.8733 15.4167 17.2185 15.4167 17.4983 15.6965 17.4983 16.0417 17.4983 16.3868 17.2185 16.6667 16.8733 16.6667 16.5282 16.6667 16.2483 16.3868 16.2483 16.0417Z" stroke="currentColor" stroke-linecap="round" stroke-linejoin="round" stroke-width="2"/>
  <path d="M16.8733 10H13.3317M16.2483 10C16.2483 10.3452 16.5282 10.625 16.8733 10.625 17.2185 10.625 17.4983 10.3452 17.4983 10 17.4983 9.6548 17.2185 9.375 16.8733 9.375 16.5282 9.375 16.2483 9.6548 16.2483 10Z" stroke="currentColor" stroke-linecap="round" stroke-linejoin="round" stroke-width="2"/>
</svg>
