<svg xmlns="http://www.w3.org/2000/svg" width="20" height="20" viewBox="0 0 20 20" fill="none">
  <path d="M13.3333 18.3333V17.9167C13.3333 16.9962 14.1101 16.2504 14.9352 15.8425 15.7372 15.4462 16.4119 14.7926 16.4971 14.0261L16.6667 12.5 18.3333 11.6667 16.25 8.5417C16.25 4.7447 13.1719 1.6667 9.375 1.6667 8.4133 1.6667 7.4978 1.8641 6.6667 2.2207M5.4167 14.1635V18.3333M5.4167 14.1635C4.2827 13.3637 3.4016 12.2293 2.9167 10.9042M5.4167 14.1635C6.0422 14.6048 6.7447 14.9443 7.5 15.1579" stroke="currentColor" stroke-linecap="round" stroke-linejoin="round" stroke-width="2"/>
  <path d="M2.2917 2.7083L5 4.5833H8.3333M2.9167 2.7083C2.9167 3.0535 2.6368 3.3333 2.2917 3.3333 1.9465 3.3333 1.6667 3.0535 1.6667 2.7083 1.6667 2.3632 1.9465 2.0833 2.2917 2.0833 2.6368 2.0833 2.9167 2.3632 2.9167 2.7083Z" stroke="currentColor" stroke-linecap="round" stroke-linejoin="round" stroke-width="2"/>
  <path d="M2.2917 7.2917H8.3333M2.9167 7.2917C2.9167 7.6368 2.6368 7.9167 2.2917 7.9167 1.9465 7.9167 1.6667 7.6368 1.6667 7.2917 1.6667 6.9465 1.9465 6.6667 2.2917 6.6667 2.6368 6.6667 2.9167 6.9465 2.9167 7.2917Z" stroke="currentColor" stroke-linecap="round" stroke-linejoin="round" stroke-width="2"/>
</svg>
