<svg xmlns="http://www.w3.org/2000/svg" width="20" height="20" viewBox="0 0 20 20" fill="none">
  <path d="M8.0005 5.0934C8.2687 4.4133 9.2313 4.4133 9.4995 5.0934L10.2586 7.018C10.7499 8.2639 11.7361 9.2501 12.982 9.7414L14.9066 10.5005C15.5867 10.7688 15.5867 11.7313 14.9066 11.9995L12.982 12.7586C11.7361 13.2499 10.7499 14.2361 10.2586 15.482L9.4995 17.4066C9.2313 18.0867 8.2687 18.0867 8.0005 17.4066L7.2415 15.482C6.7501 14.2361 5.7639 13.2499 4.518 12.7586L2.5934 11.9995C1.9133 11.7313 1.9133 10.7688 2.5934 10.5005L4.518 9.7414C5.7639 9.2501 6.7501 8.2639 7.2415 7.018L8.0005 5.0934Z" stroke="currentColor" stroke-width="2"/>
  <path d="M15.1356 2.2746C15.2362 2.0196 15.5972 2.0196 15.6977 2.2746L15.9823 2.9963C16.1667 3.4635 16.5365 3.8334 17.0037 4.0176L17.7254 4.3023C17.9804 4.4029 17.9804 4.7638 17.7254 4.8644L17.0037 5.149C16.5365 5.3333 16.1667 5.7031 15.9823 6.1703L15.6977 6.8921C15.5972 7.1471 15.2362 7.1471 15.1356 6.8921L14.851 6.1703C14.6667 5.7031 14.2968 5.3333 13.8297 5.149L13.1079 4.8644C12.8529 4.7638 12.8529 4.4029 13.1079 4.3023L13.8297 4.0176C14.2968 3.8334 14.6667 3.4635 14.851 2.9963L15.1356 2.2746Z" stroke="currentColor" stroke-width="2"/>
</svg>
