<svg xmlns="http://www.w3.org/2000/svg" width="20" height="20" viewBox="0 0 20 20" fill="none">
  <path d="M3.3333 10C3.3333 6.8573 3.3333 5.286 4.3096 4.3096 5.286 3.3333 6.8573 3.3333 10 3.3333 13.1427 3.3333 14.7141 3.3333 15.6903 4.3096 16.6667 5.286 16.6667 6.8573 16.6667 10 16.6667 13.1427 16.6667 14.7141 15.6903 15.6903 14.7141 16.6667 13.1427 16.6667 10 16.6667 6.8573 16.6667 5.286 16.6667 4.3096 15.6903 3.3333 14.7141 3.3333 13.1427 3.3333 10Z" stroke="currentColor" stroke-linejoin="round" stroke-width="2"/>
  <path d="M6.25 12.5L7.7849 7.8953C7.8636 7.6592 8.0845 7.5 8.3333 7.5 8.5822 7.5 8.8031 7.6592 8.8818 7.8953L10.4167 12.5M7.0833 10.8333H9.5833" stroke="currentColor" stroke-linecap="round" stroke-linejoin="round" stroke-width="2"/>
  <path d="M12.9167 7.5V12.5" stroke="currentColor" stroke-linecap="round" stroke-linejoin="round" stroke-width="2"/>
  <path d="M6.6667 1.6667V3.3333M13.3333 1.6667V3.3333M10 1.6667V3.3333M6.6667 16.6667V18.3333M10 16.6667V18.3333M13.3333 16.6667V18.3333M18.3333 13.3333H16.6667M3.3333 6.6667H1.6667M3.3333 13.3333H1.6667M3.3333 10H1.6667M18.3333 6.6667H16.6667M18.3333 10H16.6667" stroke="currentColor" stroke-linecap="round" stroke-linejoin="round" stroke-width="2"/>
</svg>
