<svg xmlns="http://www.w3.org/2000/svg" width="20" height="20" viewBox="0 0 20 20" fill="none">
  <path d="M1.6667 10C1.6667 6.4645 1.6667 4.6967 2.643 3.5983 3.6193 2.5 5.1906 2.5 8.3333 2.5H11.6667C14.8093 2.5 16.3808 2.5 17.357 3.5983 18.3333 4.6967 18.3333 6.4645 18.3333 10 18.3333 13.5355 18.3333 15.3033 17.357 16.4017 16.3808 17.5 14.8093 17.5 11.6667 17.5H8.3333C5.1906 17.5 3.6193 17.5 2.643 16.4017 1.6667 15.3033 1.6667 13.5355 1.6667 10Z" stroke="currentColor" stroke-width="2"/>
  <path d="M1.6667 7.5H8.3333C10.6903 7.5 11.8688 7.5 12.6011 8.2322 13.3333 8.9645 13.3333 10.143 13.3333 12.5V17.5" stroke="currentColor" stroke-width="2"/>
  <path d="M8.3333 17.5L8.3333 7.5" stroke="currentColor" stroke-width="2"/>
</svg>
