<svg xmlns="http://www.w3.org/2000/svg" width="20" height="20" viewBox="0 0 20 20" fill="none">
  <path d="M3.3333 2.5H2.5C2.0398 2.5 1.6667 2.8731 1.6667 3.3333V15L2.9167 17.5 4.1667 15V3.3333C4.1667 2.8731 3.7936 2.5 3.3333 2.5Z" stroke="currentColor" stroke-linejoin="round" stroke-width="2"/>
  <path d="M17.5 10.0011V6.6673C17.5 4.7028 17.5 3.7206 16.8898 3.1103 16.2796 2.5 15.2975 2.5 13.3333 2.5H10.8333C8.8692 2.5 7.8871 2.5 7.2769 3.1103 6.6667 3.7206 6.6667 4.7028 6.6667 6.6673V13.3349C6.6667 15.2993 6.6667 16.2816 7.2769 16.8919 7.7939 17.409 8.5778 17.4879 10 17.5" stroke="currentColor" stroke-linecap="round" stroke-linejoin="round" stroke-width="2"/>
  <path d="M10 5.8333H14.1667" stroke="currentColor" stroke-linecap="round" stroke-linejoin="round" stroke-width="2"/>
  <path d="M10 9.1667H14.1667" stroke="currentColor" stroke-linecap="round" stroke-linejoin="round" stroke-width="2"/>
  <path d="M11.6667 15.8333C11.6667 15.8333 12.9167 16.25 13.75 17.5 13.75 17.5 15 14.1667 18.3333 12.5" stroke="currentColor" stroke-linecap="round" stroke-linejoin="round" stroke-width="2"/>
  <path d="M1.6667 5.8333H4.1667" stroke="currentColor" stroke-linecap="round" stroke-linejoin="round" stroke-width="2"/>
</svg>
