<svg xmlns="http://www.w3.org/2000/svg" width="20" height="20" viewBox="0 0 20 20" fill="none">
  <path d="M1.8145 10.8161L2.9121 7.1505C3.1804 6.2547 3.7937 5.5108 4.6096 5.0916L5.9394 4.4084C6.9794 3.8741 8.2444 4.2526 8.8426 5.2771L10.0869 7.408C10.394 7.934 10.5476 8.1969 10.7446 8.3323 11.0218 8.5227 11.3697 8.5669 11.6833 8.4517 11.9063 8.3697 12.117 8.1532 12.5386 7.72 13.5315 6.6998 15.1846 6.868 15.9635 8.0685L16.9394 9.5727C17.4826 10.4098 17.6406 11.4498 17.3716 12.4173L17.0864 13.4428C16.8293 14.3673 16.2066 15.1383 15.3697 15.5682L10.6924 17.9713C9.5867 18.5393 8.2658 18.4329 7.2598 17.6945L3.0646 14.6155C1.8955 13.7574 1.392 12.227 1.8145 10.8161Z" stroke="currentColor" stroke-linecap="round" stroke-linejoin="round" stroke-width="2"/>
  <path d="M9.1667 12.9167L7.9167 14.1667" stroke="currentColor" stroke-linecap="round" stroke-width="2"/>
  <path d="M7.5 8.9608C6.7143 8.471 6.3215 8.226 5.9554 8.3782 5.5893 8.5304 5.3928 9.0202 5 10" stroke="currentColor" stroke-linecap="round" stroke-width="2"/>
  <path d="M16.6299 1.6667H15.1948C14.969 1.6667 14.8561 1.6667 14.751 1.6831 14.5003 1.7224 14.2702 1.8302 14.0938 1.9912 14.0199 2.0587 13.9573 2.141 13.832 2.3055 13.5626 2.6595 13.4278 2.8365 13.3764 3.0006 13.252 3.3974 13.4023 3.8214 13.7615 4.0867 13.9101 4.1964 14.1356 4.2754 14.5865 4.4334L15.4321 4.7296C15.971 4.9185 16.2405 5.0129 16.5099 4.9986 16.6239 4.9926 16.7364 4.9723 16.844 4.9385 17.0981 4.8587 17.3033 4.6789 17.7137 4.3195L17.8344 4.2137C17.9781 4.0879 18.05 4.0249 18.1073 3.9551 18.2154 3.8231 18.2874 3.6709 18.3174 3.5106 18.3333 3.4257 18.3333 3.3367 18.3333 3.1587 18.3333 2.7519 18.3333 2.5486 18.2702 2.3845 18.1499 2.0723 17.8702 1.8273 17.5138 1.722 17.3265 1.6667 17.0943 1.6667 16.6299 1.6667Z" stroke="currentColor" stroke-linecap="round" stroke-width="2"/>
  <path d="M13.4375 11.6667H13.3333M13.5417 11.6667C13.5417 11.7818 13.4484 11.875 13.3333 11.875 13.2183 11.875 13.125 11.7818 13.125 11.6667 13.125 11.5516 13.2183 11.4583 13.3333 11.4583 13.4484 11.4583 13.5417 11.5516 13.5417 11.6667Z" stroke="currentColor" stroke-linecap="round" stroke-linejoin="round" stroke-width="2"/>
</svg>
