<svg xmlns="http://www.w3.org/2000/svg" width="20" height="20" viewBox="0 0 20 20" fill="none">
  <circle cx="10" cy="8.333333333333334" r="5.833333333333334" stroke="currentColor" stroke-linecap="round" stroke-linejoin="round" stroke-width="2"/>
  <ellipse cx="10" cy="8.333333333333334" rx="3.3333333333333335" ry="2.5" stroke="currentColor" stroke-linecap="round" stroke-linejoin="round" stroke-width="2"/>
  <path d="M4.1667 10.8333C2.786 10.8333 1.6667 9.7141 1.6667 8.3333 1.6667 6.9526 1.6667 5.8333 4.1667 5.8333" stroke="currentColor" stroke-linecap="round" stroke-linejoin="round" stroke-width="2"/>
  <path d="M15.8333 10.8333C17.2141 10.8333 18.3333 9.7141 18.3333 8.3333 18.3333 6.9526 18.3333 5.8333 15.8333 5.8333" stroke="currentColor" stroke-linecap="round" stroke-linejoin="round" stroke-width="2"/>
  <path d="M17.0833 5.8333V2.5" stroke="currentColor" stroke-linecap="round" stroke-width="2"/>
  <path d="M15 17.5C15.4603 17.5 15.8333 17.1269 15.8333 16.6667 15.8333 15.2859 14.7141 14.1667 13.3333 14.1667H6.6667C5.286 14.1667 4.1667 15.2859 4.1667 16.6667 4.1667 17.1269 4.5398 17.5 5 17.5H15Z" stroke="currentColor" stroke-linecap="round" stroke-linejoin="round" stroke-width="2"/>
</svg>
