<svg xmlns="http://www.w3.org/2000/svg" width="20" height="20" viewBox="0 0 20 20" fill="none">
  <path d="M15 9.1667C16.1668 9.1667 16.7502 9.1667 17.1958 8.9396 17.5878 8.7398 17.9065 8.4212 18.1062 8.0292 18.3333 7.5835 18.3333 7.0001 18.3333 5.8333 18.3333 4.6666 18.3333 4.0832 18.1062 3.6375 17.9065 3.2455 17.5878 2.9268 17.1958 2.7271 16.7502 2.5 16.1668 2.5 15 2.5H5C3.8332 2.5 3.2498 2.5 2.8042 2.7271 2.4122 2.9268 2.0935 3.2455 1.8937 3.6375 1.6667 4.0832 1.6667 4.6666 1.6667 5.8333 1.6667 7.0001 1.6667 7.5835 1.8937 8.0292 2.0935 8.4212 2.4122 8.7398 2.8042 8.9396 3.2498 9.1667 3.8332 9.1667 5 9.1667" stroke="currentColor" stroke-linecap="round" stroke-linejoin="round" stroke-width="2"/>
  <path d="M4.1667 5.8333H15.8333" stroke="currentColor" stroke-linecap="round" stroke-linejoin="round" stroke-width="2"/>
  <path d="M15 5.8333H5V12.5C5 14.857 5 16.0355 5.7322 16.7678 6.4645 17.5 7.643 17.5 10 17.5 12.357 17.5 13.5355 17.5 14.2678 16.7678 15 16.0355 15 14.857 15 12.5V5.8333Z" stroke="currentColor" stroke-linecap="round" stroke-linejoin="round" stroke-width="2"/>
  <path d="M8.3333 17.5V5.8333" stroke="currentColor" stroke-linecap="round" stroke-linejoin="round" stroke-width="2"/>
</svg>
