<svg xmlns="http://www.w3.org/2000/svg" width="20" height="20" viewBox="0 0 20 20" fill="none">
  <path d="M17.2192 7.375C17.7102 5.6752 17.5723 4.1996 16.6863 3.3136 14.812 1.4393 10.2989 2.9134 6.6061 6.6061 6.2116 7.0006 5.8425 7.4045 5.5 7.8135M14.5 12.1865C14.1575 12.5955 13.7883 12.9994 13.3938 13.3938 9.7011 17.0867 5.188 18.5608 3.3136 16.6863 2.3631 15.7358 2.2737 14.1067 2.8981 12.25" stroke="currentColor" stroke-linecap="round" stroke-linejoin="round" stroke-width="2"/>
  <path d="M10.5628 7.75L9.1036 9.4753C8.9254 9.7063 8.8364 9.8218 8.8916 9.9109 8.9468 10 9.1073 10 9.4284 10H10.5723C10.8933 10 11.0539 10 11.1091 10.0892 11.1643 10.1783 11.0752 10.2937 10.8971 10.5248L9.4284 12.25" stroke="currentColor" stroke-linecap="round" stroke-linejoin="round" stroke-width="2"/>
  <path d="M8.125 14.7549C7.6095 14.3428 7.1005 13.8883 6.6061 13.3938 2.9134 9.7011 1.4393 5.188 3.3136 3.3136 4.2642 2.3631 5.8934 2.2737 7.75 2.8981M11.875 16.9673C13.8859 17.7344 15.6723 17.7004 16.6863 16.6863 18.5608 14.812 17.0867 10.2989 13.3938 6.6061 12.8995 6.1118 12.3905 5.6572 11.875 5.2451" stroke="currentColor" stroke-linecap="round" stroke-linejoin="round" stroke-width="2"/>
</svg>
