<svg xmlns="http://www.w3.org/2000/svg" width="20" height="20" viewBox="0 0 20 20" fill="none">
  <path d="M16.9617 3.0383C15.4238 1.5003 11.0602 3.3705 7.2153 7.2153 3.3705 11.0602 1.5003 15.4238 3.0383 16.9617 4.5762 18.4997 8.9398 16.6296 12.7847 12.7847 16.6296 8.9398 18.4997 4.5762 16.9617 3.0383Z" stroke="currentColor" fill-rule="evenodd" clip-rule="evenodd" stroke-linecap="round" stroke-linejoin="round" stroke-width="2"/>
  <path d="M3.0383 3.0383C1.5003 4.5762 3.3705 8.9398 7.2153 12.7847 11.0602 16.6296 15.4238 18.4997 16.9617 16.9617 18.4997 15.4238 16.6296 11.0602 12.7847 7.2153 8.9398 3.3705 4.5762 1.5003 3.0383 3.0383Z" stroke="currentColor" fill-rule="evenodd" clip-rule="evenodd" stroke-linecap="round" stroke-linejoin="round" stroke-width="2"/>
  <path d="M10.2158 10H10.0075M10.4242 10C10.4242 10.2301 10.2376 10.4167 10.0075 10.4167 9.7773 10.4167 9.5908 10.2301 9.5908 10 9.5908 9.7699 9.7773 9.5833 10.0075 9.5833 10.2376 9.5833 10.4242 9.7699 10.4242 10Z" stroke="currentColor" stroke-linecap="round" stroke-linejoin="round" stroke-width="2"/>
</svg>
