<svg xmlns="http://www.w3.org/2000/svg" width="20" height="20" viewBox="0 0 20 20" fill="none">
  <circle cx="10" cy="10" r="3.3333333333333335" stroke="currentColor" stroke-linecap="round" stroke-linejoin="round" stroke-width="2"/>
  <path d="M6.4815 17.0833C4.0416 15.899 2.3817 13.5532 2.0833 10.868M13.5185 17.0833C15.9583 15.899 17.6183 13.5532 17.9167 10.868M4.8981 3.8648C7.8147 1.4895 12.0094 1.4895 14.9259 3.8648" stroke="currentColor" stroke-linecap="round" stroke-linejoin="round" stroke-width="2"/>
  <path d="M10.1042 17.7083H10M2.6042 7.0833H2.5M17.6042 7.0833H17.5M10.2083 17.7083C10.2083 17.8234 10.1151 17.9167 10 17.9167 9.8849 17.9167 9.7917 17.8234 9.7917 17.7083 9.7917 17.5933 9.8849 17.5 10 17.5 10.1151 17.5 10.2083 17.5933 10.2083 17.7083ZM2.7083 7.0833C2.7083 7.1984 2.6151 7.2917 2.5 7.2917 2.3849 7.2917 2.2917 7.1984 2.2917 7.0833 2.2917 6.9683 2.3849 6.875 2.5 6.875 2.6151 6.875 2.7083 6.9683 2.7083 7.0833ZM17.7083 7.0833C17.7083 7.1984 17.6151 7.2917 17.5 7.2917 17.3849 7.2917 17.2917 7.1984 17.2917 7.0833 17.2917 6.9683 17.3849 6.875 17.5 6.875 17.6151 6.875 17.7083 6.9683 17.7083 7.0833Z" stroke="currentColor" stroke-linecap="round" stroke-linejoin="round" stroke-width="2"/>
</svg>
