<svg xmlns="http://www.w3.org/2000/svg" width="20" height="20" viewBox="0 0 20 20" fill="none">
  <path d="M2.0833 10C2.0833 6.268 2.0833 4.4021 3.2427 3.2427 4.4021 2.0833 6.268 2.0833 10 2.0833 13.7319 2.0833 15.5979 2.0833 16.7573 3.2427 17.9167 4.4021 17.9167 6.268 17.9167 10 17.9167 13.7319 17.9167 15.5979 16.7573 16.7573 15.5979 17.9167 13.7319 17.9167 10 17.9167 6.268 17.9167 4.4021 17.9167 3.2427 16.7573 2.0833 15.5979 2.0833 13.7319 2.0833 10Z" stroke="currentColor" stroke-width="2"/>
  <path d="M7.1405 10L6.4256 9.2851C5.6359 8.4955 5.6359 7.2152 6.4256 6.4256 7.2152 5.6359 8.4955 5.6359 9.2851 6.4256L13.5744 10.7149C14.3641 11.5045 14.3641 12.7848 13.5744 13.5744 12.7848 14.3641 11.5045 14.3641 10.7149 13.5744L9.1064 11.9659C7.9307 10.7903 9.6219 9.2053 10.8333 10.4167L11.6667 11.25" stroke="currentColor" stroke-linecap="round" stroke-linejoin="round" stroke-width="2"/>
</svg>
