<svg xmlns="http://www.w3.org/2000/svg" width="20" height="20" viewBox="0 0 20 20" fill="none">
  <path d="M2.5 11.6667V7.9167C2.5 7.2263 3.0596 6.6667 3.75 6.6667 4.4404 6.6667 5 7.2263 5 7.9167V13.75C5 14.4403 5.5596 15 6.25 15 6.9404 15 7.5 14.4403 7.5 13.75V3.75C7.5 3.0596 8.0596 2.5 8.75 2.5 9.4403 2.5 10 3.0596 10 3.75V16.25C10 16.9403 10.5597 17.5 11.25 17.5 11.9403 17.5 12.5 16.9403 12.5 16.25V7.0833C12.5 6.393 13.0597 5.8333 13.75 5.8333 14.4403 5.8333 15 6.393 15 7.0833V12.9167C15 13.607 15.5597 14.1667 16.25 14.1667 16.9403 14.1667 17.5 13.607 17.5 12.9167V10" stroke="currentColor" stroke-linecap="round" stroke-linejoin="round" stroke-width="2"/>
</svg>
