<svg xmlns="http://www.w3.org/2000/svg" width="20" height="20" viewBox="0 0 20 20" fill="none">
  <path d="M15.8333 8.75V8.3333C15.8333 5.1906 15.8333 3.6193 14.857 2.643 13.8808 1.6667 12.3093 1.6667 9.1667 1.6667 6.024 1.6667 4.4526 1.6667 3.4763 2.643 2.5 3.6193 2.5 5.1906 2.5 8.3333V13.3333C2.5 14.8865 2.5 15.663 2.7537 16.2756 3.092 17.0923 3.741 17.7413 4.5577 18.0796 5.1703 18.3333 5.9469 18.3333 7.5 18.3333" stroke="currentColor" stroke-linecap="round" stroke-linejoin="round" stroke-width="2"/>
  <path d="M5.8333 5.8333H12.5M5.8333 9.1667H9.1667" stroke="currentColor" stroke-linecap="round" stroke-width="2"/>
  <path d="M12.7354 15.837C12.6862 15.0964 12.5983 14.3048 12.2348 13.4098 11.9246 12.6463 12.011 10.8504 13.75 10.8504 15.489 10.8504 15.5553 12.6463 15.2452 13.4098 14.8815 14.3048 14.8137 15.0964 14.7646 15.837M17.5 18.3333H10V17.2953C10 16.9232 10.222 16.5962 10.544 16.494L12.423 15.8975C12.557 15.8549 12.6957 15.8333 12.8351 15.8333H14.6649C14.8043 15.8333 14.943 15.8549 15.077 15.8975L16.956 16.494C17.278 16.5962 17.5 16.9232 17.5 17.2953V18.3333Z" stroke="currentColor" stroke-linecap="round" stroke-linejoin="round" stroke-width="2"/>
</svg>
