<svg xmlns="http://www.w3.org/2000/svg" width="20" height="20" viewBox="0 0 20 20" fill="none">
  <path d="M16.6667 18.3333H5C4.0795 18.3333 3.3333 17.5872 3.3333 16.6667M3.3333 16.6667C3.3333 15.7462 4.0795 15 5 15H16.6667V5C16.6667 3.4286 16.6667 2.643 16.1785 2.1548 15.6903 1.6667 14.9047 1.6667 13.3333 1.6667H8.3333C5.9763 1.6667 4.7978 1.6667 4.0656 2.3989 3.3333 3.1311 3.3333 4.3096 3.3333 6.6667V16.6667Z" stroke="currentColor" stroke-linecap="round" stroke-linejoin="round" stroke-width="2"/>
  <path d="M16.25 15C16.25 15 15.4167 15.6357 15.4167 16.6667 15.4167 17.6977 16.25 18.3333 16.25 18.3333" stroke="currentColor" stroke-linecap="round" stroke-linejoin="round" stroke-width="2"/>
  <path d="M9.5833 7.1257H8.75C8.3618 7.1257 8.1676 7.1257 8.0144 7.1891 7.8102 7.2737 7.648 7.4359 7.5634 7.6401 7.5 7.7932 7.5 7.9874 7.5 8.3757 7.5 8.7639 7.5 8.9581 7.5634 9.1113 7.648 9.3154 7.8102 9.4777 8.0144 9.5623 8.1676 9.6257 8.3618 9.6257 8.75 9.6257H9.5833L12.5 11.6667V5L9.5833 7.1257Z" stroke="currentColor" stroke-linejoin="round" stroke-width="2"/>
</svg>
