<svg xmlns="http://www.w3.org/2000/svg" width="20" height="20" viewBox="0 0 20 20" fill="none">
  <path d="M16.6667 18.3333H5C4.0795 18.3333 3.3333 17.5872 3.3333 16.6667M3.3333 16.6667C3.3333 15.7462 4.0795 15 5 15H16.6667V5C16.6667 3.4286 16.6667 2.643 16.1785 2.1548 15.6903 1.6667 14.9047 1.6667 13.3333 1.6667H8.3333C5.9763 1.6667 4.7978 1.6667 4.0656 2.3989 3.3333 3.1311 3.3333 4.3096 3.3333 6.6667V16.6667Z" stroke="currentColor" stroke-linecap="round" stroke-linejoin="round" stroke-width="2"/>
  <path d="M16.25 15C16.25 15 15.4167 15.6357 15.4167 16.6667 15.4167 17.6977 16.25 18.3333 16.25 18.3333" stroke="currentColor" stroke-linecap="round" stroke-linejoin="round" stroke-width="2"/>
  <path d="M6.25 9.1667H7.5C7.9602 9.1667 8.3333 9.5397 8.3333 10V10.8333C8.3333 11.2936 7.9602 11.6667 7.5 11.6667H7.0833C6.6231 11.6667 6.25 11.2936 6.25 10.8333V9.1667ZM6.25 9.1667V8.75C6.25 6.6789 7.9289 5 10 5 12.0711 5 13.75 6.6789 13.75 8.75V9.1667M13.75 9.1667H12.5C12.0397 9.1667 11.6667 9.5397 11.6667 10V10.8333C11.6667 11.2936 12.0397 11.6667 12.5 11.6667H12.9167C13.3769 11.6667 13.75 11.2936 13.75 10.8333V9.1667Z" stroke="currentColor" stroke-linecap="round" stroke-linejoin="round" stroke-width="2"/>
</svg>
