<svg xmlns="http://www.w3.org/2000/svg" width="20" height="20" viewBox="0 0 20 20" fill="none">
  <path d="M18.3333 10.7953H17.8163C17.0663 10.7953 16.6913 10.7953 16.3758 10.6623 16.1523 10.5678 15.9525 10.4266 15.7905 10.2483 15.5621 9.9969 15.4435 9.6478 15.2062 8.9498 14.7458 7.5947 14.5157 6.9171 14.1783 6.7709 13.9471 6.6707 13.6821 6.6789 13.4578 6.7932 13.1304 6.9599 12.9442 7.6503 12.5716 9.0313L11.8008 11.8879C11.0881 14.5294 10.7317 15.8502 10.073 15.8332 9.4142 15.8163 9.1289 14.479 8.5583 11.8045L7.8121 8.3069C7.2342 5.598 6.9453 4.2436 6.3528 4.1727 6.2855 4.1646 6.2175 4.1647 6.1502 4.1728 5.5578 4.2442 5.2656 5.6205 4.6811 8.373 4.4552 9.4367 4.3422 9.9685 3.9939 10.3126 3.9108 10.3947 3.819 10.4678 3.7202 10.5309 3.3058 10.7953 2.7594 10.7953 1.6667 10.7953" stroke="currentColor" stroke-linecap="round" stroke-linejoin="round" stroke-width="2"/>
</svg>
