<svg xmlns="http://www.w3.org/2000/svg" width="20" height="20" viewBox="0 0 20 20" fill="none">
  <path d="M13.3333 4.5833H6.6667C4.3096 4.5833 3.1311 4.5833 2.3989 5.3156 1.6667 6.0478 1.6667 7.2263 1.6667 9.5833V12.5C1.6667 14.857 1.6667 16.0355 2.3989 16.7678 3.1311 17.5 4.3096 17.5 6.6667 17.5H13.3333C15.6903 17.5 16.8688 17.5 17.6011 16.7678 18.3333 16.0355 18.3333 14.857 18.3333 12.5V9.5833C18.3333 7.2263 18.3333 6.0478 17.6011 5.3156 16.8688 4.5833 15.6903 4.5833 13.3333 4.5833Z" stroke="currentColor" stroke-width="2"/>
  <path d="M14.1667 7.0833V10.4167M15.8333 8.75H12.5" stroke="currentColor" stroke-linecap="round" stroke-linejoin="round" stroke-width="2"/>
  <path d="M7.5 8.75H4.1667" stroke="currentColor" stroke-linecap="round" stroke-linejoin="round" stroke-width="2"/>
  <path d="M7.5 4.5833V3.9583C7.5 3.3731 7.5 3.0805 7.3596 2.8704 7.2988 2.7794 7.2206 2.7012 7.1296 2.6404 6.9195 2.5 6.6269 2.5 6.0417 2.5 5.4565 2.5 5.1639 2.5 4.9537 2.6404 4.8627 2.7012 4.7846 2.7794 4.7238 2.8704 4.5833 3.0805 4.5833 3.3731 4.5833 3.9583V4.5833" stroke="currentColor" stroke-linecap="round" stroke-linejoin="round" stroke-width="2"/>
  <path d="M15.4167 4.5833V3.9583C15.4167 3.3731 15.4167 3.0805 15.2762 2.8704 15.2154 2.7794 15.1373 2.7012 15.0463 2.6404 14.8361 2.5 14.5435 2.5 13.9583 2.5 13.3732 2.5 13.0806 2.5 12.8703 2.6404 12.7793 2.7012 12.7012 2.7794 12.6404 2.8704 12.5 3.0805 12.5 3.3731 12.5 3.9583V4.5833" stroke="currentColor" stroke-linecap="round" stroke-linejoin="round" stroke-width="2"/>
</svg>
