<svg xmlns="http://www.w3.org/2000/svg" width="20" height="20" viewBox="0 0 20 20" fill="none">
  <path d="M1.6667 17.5H9.7123C11.8129 17.5 12.8633 17.5 13.2259 16.8088 13.5886 16.1177 13.0089 15.2207 11.8497 13.4267L5.7797 4.033C5.116 3.0061 4.7842 2.4926 4.3165 2.5001 3.2942 2.5165 2.0833 5 1.6667 5.8333" stroke="currentColor" stroke-linecap="round" stroke-linejoin="round" stroke-width="2"/>
  <path d="M8.3333 4.1667C8.8353 5.1785 9.2921 5.8456 10 6.6667" stroke="currentColor" stroke-linecap="round" stroke-width="2"/>
  <path d="M1.6667 5.8333C1.8329 6.3245 1.9392 7.0856 2.2963 7.4721 2.5054 7.6985 2.825 7.7915 3.1254 7.7133 3.5776 7.5957 3.8459 7.113 4.2722 6.944 4.4719 6.8649 4.6948 6.8649 4.8944 6.944 5.4295 7.1561 5.773 7.8307 6.3664 7.9093 6.9366 7.9849 7.2219 7.4757 7.5 7.0647" stroke="currentColor" stroke-linecap="round" stroke-linejoin="round" stroke-width="2"/>
  <path d="M15.6056 12.5377C15.5748 12.855 15.4927 13.1585 15.3668 13.4409M15.6056 12.5377C15.78 10.7348 14.2014 9.1667 12.3017 9.1667 11.7109 9.1667 10.671 9.3128 10 9.8025M15.6056 12.5377C17.1074 12.5309 18.3333 13.6654 18.3333 15.0659 18.3333 16.2245 17.4967 17.201 16.3556 17.5" stroke="currentColor" stroke-linecap="round" stroke-linejoin="round" stroke-width="2"/>
</svg>
