<svg xmlns="http://www.w3.org/2000/svg" width="20" height="20" viewBox="0 0 20 20" fill="none">
  <path d="M10 4.1667C10 3.3333 10.3333 1.6667 11.6667 1.6667" stroke="currentColor" stroke-linecap="round" stroke-linejoin="round" stroke-width="2"/>
  <path d="M10 15.0343V11.6323C10 10.9725 10.1824 10.6945 10.9604 10.8998 13.5687 11.5878 13.5687 15.0789 10.9604 15.7669 10.1824 15.9722 10 15.6942 10 15.0343Z" stroke="currentColor" stroke-linecap="round" stroke-linejoin="round" stroke-width="2"/>
  <path d="M9.9999 4.1667C8.0055 4.1667 6.3888 5.6591 6.3888 7.5 6.3888 8.5199 6.1574 9.6653 5.5318 10.5059 4.9334 11.3102 4.5832 12.284 4.5832 13.3333 4.5832 16.0948 7.0084 18.3333 9.9999 18.3333 12.9914 18.3333 15.4166 16.0948 15.4166 13.3333 15.4166 12.284 15.0664 11.3102 14.468 10.5059 13.8424 9.6653 13.611 8.5199 13.611 7.5 13.611 5.6591 11.9943 4.1667 9.9999 4.1667Z" stroke="currentColor" stroke-width="2"/>
</svg>
