<svg xmlns="http://www.w3.org/2000/svg" width="20" height="20" viewBox="0 0 20 20" fill="none">
  <path d="M6.4001 10.8222C5.8479 8.0227 5.5718 6.623 6.1692 5.4842 6.7666 4.3453 8.0506 3.8237 10.6184 2.7806L11.1417 2.568C13.0817 1.7799 14.0517 1.3859 14.6372 1.8948 15.2226 2.4037 15.0163 3.4617 14.6039 5.5776L12.7672 15H7.2242L6.4001 10.8222Z" stroke="currentColor" stroke-linecap="round" stroke-linejoin="round" stroke-width="2"/>
  <path d="M5 17.5C5 16.3215 5 15.7322 5.3661 15.3661 5.7322 15 6.3215 15 7.5 15H12.5C13.6785 15 14.2678 15 14.6339 15.3661 15 15.7322 15 16.3215 15 17.5V18.3333H5V17.5Z" stroke="currentColor" stroke-linecap="round" stroke-linejoin="round" stroke-width="2"/>
  <path d="M3.3333 18.3333L16.6667 18.3333" stroke="currentColor" stroke-linecap="round" stroke-linejoin="round" stroke-width="2"/>
</svg>
