<svg xmlns="http://www.w3.org/2000/svg" width="20" height="20" viewBox="0 0 20 20" fill="none">
  <path d="M6.6667 17.5C6.6667 16.3215 6.6667 15.7322 7.0328 15.3661 7.3989 15 7.9882 15 9.1667 15H10.8333C12.0118 15 12.6011 15 12.9673 15.3661 13.3333 15.7322 13.3333 16.3215 13.3333 17.5V18.3333H6.6667V17.5Z" stroke="currentColor" stroke-linecap="round" stroke-linejoin="round" stroke-width="2"/>
  <path d="M10 10.8333L10 15" stroke="currentColor" stroke-linecap="round" stroke-linejoin="round" stroke-width="2"/>
  <path d="M5 18.3333H15" stroke="currentColor" stroke-linecap="round" stroke-linejoin="round" stroke-width="2"/>
  <path d="M10.8638 2.3888L11.7438 4.1631C11.8637 4.4101 12.1837 4.647 12.4537 4.6924L14.0485 4.9595C15.0683 5.1309 15.3083 5.877 14.5734 6.6129L13.3336 7.863C13.1236 8.0747 13.0086 8.483 13.0736 8.7754L13.4285 10.3229C13.7085 11.5478 13.0636 12.0217 11.9887 11.3815L10.4938 10.4893C10.2239 10.3279 9.7789 10.3279 9.504 10.4893L8.0091 11.3815C6.9393 12.0217 6.2893 11.5427 6.5693 10.3229L6.9243 8.7754C6.9893 8.483 6.8743 8.0747 6.6643 7.863L5.4244 6.6129C4.6945 5.877 4.9295 5.1309 5.9494 4.9595L7.5442 4.6924C7.8092 4.647 8.1291 4.4101 8.2491 4.1631L9.129 2.3888C9.6089 1.426 10.3888 1.426 10.8638 2.3888Z" stroke="currentColor" stroke-linecap="round" stroke-linejoin="round" stroke-width="2"/>
</svg>
