<svg xmlns="http://www.w3.org/2000/svg" width="20" height="20" viewBox="0 0 20 20" fill="none">
  <path d="M7.8551 2.5522C8.903 1.9619 9.427 1.6667 10 1.6667 10.573 1.6667 11.097 1.9619 12.1449 2.5522L13.6032 3.3738C14.691 3.9867 15.2349 4.2931 15.5341 4.8055 15.8333 5.318 15.8333 5.943 15.8333 7.193V8.6403C15.8333 9.8903 15.8333 10.5153 15.5341 11.0278 15.2349 11.5403 14.691 11.8467 13.6032 12.4595L12.1449 13.2811C11.097 13.8715 10.573 14.1667 10 14.1667 9.427 14.1667 8.903 13.8715 7.8551 13.2811L6.3968 12.4595C5.309 11.8467 4.7651 11.5403 4.4659 11.0278 4.1667 10.5153 4.1667 9.8903 4.1667 8.6403V7.193C4.1667 5.943 4.1667 5.318 4.4659 4.8055 4.7651 4.2931 5.309 3.9867 6.3968 3.3738L7.8551 2.5522Z" stroke="currentColor" stroke-linejoin="round" stroke-width="2"/>
  <path d="M7.5 8.4723C7.5 8.4723 8.125 8.4723 8.75 9.5833 8.75 9.5833 10.7353 6.8056 12.5 6.25" stroke="currentColor" stroke-linecap="round" stroke-linejoin="round" stroke-width="2"/>
  <path d="M14.0688 12.5L14.6273 15.1749C14.9861 16.8936 15.1655 17.7529 14.7969 18.1603 14.4284 18.5675 13.7883 18.2172 12.5083 17.5165L10.6137 16.4794C10.3112 16.3138 10.1599 16.2311 10 16.2311 9.8401 16.2311 9.6888 16.3138 9.3863 16.4794L7.4917 17.5165C6.2116 18.2172 5.5716 18.5675 5.203 18.1603 4.8345 17.7529 5.0139 16.8936 5.3728 15.1749L5.9313 12.5" stroke="currentColor" stroke-linecap="round" stroke-linejoin="round" stroke-width="2"/>
</svg>
