<svg xmlns="http://www.w3.org/2000/svg" width="20" height="20" viewBox="0 0 20 20" fill="none">
  <path d="M7.5 5.8333H6.6667C5.881 5.8333 5.4882 5.8333 5.2441 5.5893 5 5.3452 5 4.9523 5 4.1667 5 3.381 5 2.9882 5.2441 2.7441 5.4882 2.5 5.881 2.5 6.6667 2.5H7.9399C8.9423 2.5 9.4434 2.5 9.8462 2.7489 10.2489 2.9978 10.4731 3.4461 10.9213 4.3426L15.8333 14.1667C16.619 14.1667 17.0118 14.1667 17.2559 14.4108 17.5 14.6548 17.5 15.0477 17.5 15.8333 17.5 16.619 17.5 17.0118 17.2559 17.2559 17.0118 17.5 16.619 17.5 15.8333 17.5H15.3934C14.3911 17.5 13.8899 17.5 13.4872 17.2511 13.0844 17.0022 12.8603 16.5539 12.412 15.6574L7.5 5.8333Z" stroke="currentColor" stroke-linecap="round" stroke-linejoin="round" stroke-width="2"/>
  <path d="M5.683 17.5H3.1618C2.7963 17.5 2.5 17.2037 2.5 16.8382 2.5 16.7257 2.5287 16.6151 2.5833 16.5168L6.6667 9.1667 8.75 13.3333 7.1066 16.6202C6.9029 17.0275 6.8011 17.2311 6.6246 17.3528 6.6017 17.3685 6.5781 17.3832 6.5538 17.3965 6.3661 17.5 6.1384 17.5 5.683 17.5Z" stroke="currentColor" stroke-linecap="round" stroke-linejoin="round" stroke-width="2"/>
</svg>
