<svg xmlns="http://www.w3.org/2000/svg" width="20" height="20" viewBox="0 0 20 20" fill="none">
  <path d="M8.5017 7.7546L11.0905 10.3432C11.2904 10.5432 11.3903 10.6431 11.4514 10.7677 11.5124 10.8923 11.5302 11.0326 11.5655 11.3131L11.7577 12.8359C11.8385 13.4757 11.8789 13.7957 12.1807 14.0131 12.4825 14.2306 12.7297 14.1814 13.2239 14.0831 14.3027 13.8684 15.4566 13.2478 16.4355 12.2689 17.4145 11.29 18.0352 10.1362 18.2498 9.0573 18.3481 8.5632 18.3972 8.3161 18.1798 8.0143 17.9624 7.7126 17.6426 7.6721 17.0028 7.5913L15.4799 7.3987C15.1996 7.3633 15.0593 7.3455 14.9348 7.2845 14.8103 7.2235 14.7103 7.1236 14.5105 6.9238L11.9216 4.3349C11.4553 3.8688 11.2223 3.6357 10.9708 3.5111 10.4924 3.2741 9.9307 3.2741 9.4523 3.5111 9.2009 3.6357 8.9678 3.8688 8.5017 4.3349 8.0355 4.8011 7.8024 5.0341 7.6778 5.2856 7.4407 5.7639 7.4407 6.3256 7.6778 6.804 7.8024 7.0554 8.0355 7.2885 8.5017 7.7546Z" stroke="currentColor" stroke-linecap="round" stroke-linejoin="round" stroke-width="2"/>
  <path d="M10.4167 10L4.1815 16.2352C3.9052 16.5115 3.5305 16.6667 3.1398 16.6667 2.3262 16.6667 1.6667 16.0071 1.6667 15.1935 1.6667 14.8028 1.8219 14.4282 2.0981 14.1518L8.3333 7.9167" stroke="currentColor" stroke-linecap="round" stroke-linejoin="round" stroke-width="2"/>
</svg>
