<svg xmlns="http://www.w3.org/2000/svg" width="20" height="20" viewBox="0 0 20 20" fill="none">
  <path d="M8.3333 13.3333C8.7134 13.8393 9.3185 14.1667 10 14.1667 10.6815 14.1667 11.2866 13.8393 11.6667 13.3333" stroke="currentColor" stroke-linecap="round" stroke-linejoin="round" stroke-width="2"/>
  <path d="M13.0208 9.3817V9.6758M6.9792 9.3817V9.6758M7.2917 9.5833C7.2917 9.3533 7.1518 9.1667 6.9792 9.1667 6.8066 9.1667 6.6667 9.3533 6.6667 9.5833 6.6667 9.8134 6.8066 10 6.9792 10 7.1518 10 7.2917 9.8134 7.2917 9.5833ZM13.3333 9.5833C13.3333 9.3533 13.1934 9.1667 13.0208 9.1667 12.8483 9.1667 12.7083 9.3533 12.7083 9.5833 12.7083 9.8134 12.8483 10 13.0208 10 13.1934 10 13.3333 9.8134 13.3333 9.5833Z" stroke="currentColor" stroke-linecap="round" stroke-linejoin="round" stroke-width="2"/>
  <path d="M2.6547 8.4773C2.0725 8.7372 1.6667 9.3212 1.6667 10 1.6667 10.6788 2.0725 11.2628 2.6547 11.5227 3.3583 14.9348 6.3796 17.5 10 17.5 13.6204 17.5 16.6417 14.9348 17.3453 11.5227 17.9276 11.2628 18.3333 10.6788 18.3333 10 18.3333 9.3212 17.9276 8.7372 17.3453 8.4773 16.6417 5.0653 13.6204 2.5 10 2.5 6.3796 2.5 3.3583 5.0653 2.6547 8.4773Z" stroke="currentColor" stroke-linecap="round" stroke-linejoin="round" stroke-width="2"/>
  <path d="M10 2.5C11.6667 2.5 12.9167 3.5579 12.9167 4.7598 12.9167 5.5375 12.5235 6.6667 11.25 6.6667 10.5674 6.6667 10.1315 6.1621 10 5.8333" stroke="currentColor" stroke-linecap="round" stroke-linejoin="round" stroke-width="2"/>
</svg>
