<svg xmlns="http://www.w3.org/2000/svg" width="20" height="20" viewBox="0 0 20 20" fill="none">
  <circle cx="10" cy="6.666666666666667" r="5" stroke="currentColor" stroke-linecap="round" stroke-linejoin="round" stroke-width="2"/>
  <path d="M14.0617 10C14.6522 10.8642 15 11.9244 15 13.0702 15 13.7514 14.877 14.4024 14.6532 15M5.9384 10C5.3478 10.8642 5 11.9244 5 13.0702 5 15.9769 7.2386 18.3333 10 18.3333 12.1143 18.3333 13.922 16.952 14.6532 15M14.6532 15C12.3758 14 10.0466 12.3611 9.1667 11.6667" stroke="currentColor" stroke-linecap="round" stroke-linejoin="round" stroke-width="2"/>
  <path d="M9.9993 1.6667C9.1709 1.6667 8.4993 2.3196 8.4993 3.125 8.4993 3.9304 9.1709 4.5833 9.9993 4.5833 10.3835 4.5833 10.734 4.4429 10.9993 4.212" stroke="currentColor" stroke-linecap="round" stroke-linejoin="round" stroke-width="2"/>
  <path d="M8.0417 7.0827H8M12.041 7.082H11.9993M8.0833 7.0827C8.0833 7.1288 8.046 7.1661 8 7.1661 7.954 7.1661 7.9167 7.1288 7.9167 7.0827 7.9167 7.0367 7.954 6.9994 8 6.9994 8.046 6.9994 8.0833 7.0367 8.0833 7.0827ZM12.0827 7.082C12.0827 7.1281 12.0453 7.1654 11.9993 7.1654 11.9533 7.1654 11.916 7.1281 11.916 7.082 11.916 7.036 11.9533 6.9987 11.9993 6.9987 12.0453 6.9987 12.0827 7.036 12.0827 7.082Z" stroke="currentColor" stroke-linecap="round" stroke-linejoin="round" stroke-width="2"/>
</svg>
