<svg xmlns="http://www.w3.org/2000/svg" width="20" height="20" viewBox="0 0 20 20" fill="none">
  <path d="M14.1667 8.7499C14.1667 8.7499 15 10.8333 15 13.5416 15 14.5176 14.8918 15.4123 14.7533 16.1578 14.5793 17.0947 14.4923 17.5631 14.0292 17.9482 13.566 18.3332 13.014 18.3332 11.9099 18.3332H8.0901C6.986 18.3332 6.434 18.3332 5.9708 17.9482 5.5077 17.5631 5.4207 17.0947 5.2467 16.1578 5.1082 15.4123 5 14.5176 5 13.5416 5 10.8333 5.8333 8.7499 5.8333 8.7499" stroke="currentColor" stroke-linecap="round" stroke-linejoin="round" stroke-width="2"/>
  <path d="M5.8334 8.7591H14.1668C14.29 8.0792 14.1011 6.7684 12.4672 6.2499 12.0795 6.1269 11.625 5.8968 11.4204 5.5097 11.2393 5.167 11.1546 4.7029 11.426 4.1878 11.9278 3.2354 11.4436 2.067 10.4018 1.7393 10.2717 1.6983 10.136 1.6681 10.0001 1.6667 9.855 1.6653 9.7097 1.6955 9.5708 1.7393 8.529 2.067 8.0448 3.2354 8.5466 4.1878 8.818 4.7029 8.7333 5.167 8.5522 5.5097 8.3539 5.8849 7.9223 6.218 7.5198 6.3457 6.3921 6.7035 5.6155 7.5565 5.8334 8.7591Z" stroke="currentColor" stroke-linecap="round" stroke-linejoin="round" stroke-width="2"/>
  <path d="M12.5 11.6666H14.5833M12.5 14.9999H14.5833" stroke="currentColor" stroke-linecap="round" stroke-linejoin="round" stroke-width="2"/>
</svg>
