<svg xmlns="http://www.w3.org/2000/svg" width="20" height="20" viewBox="0 0 20 20" fill="none">
  <path d="M6.8432 7.5L3.5657 13.7294C2.0484 16.6133 8.3985 17.5 10 17.5 11.6015 17.5 17.9517 16.6133 16.4343 13.7294L13.1568 7.5" stroke="currentColor" stroke-linecap="round" stroke-linejoin="round" stroke-width="2"/>
  <path d="M8.4453 10.1841C9.004 9.8795 9.4916 10.0023 9.7845 10.1977 9.9046 10.2779 9.9647 10.3181 10 10.3181 10.0353 10.3181 10.0954 10.2779 10.2155 10.1977 10.5084 10.0023 10.996 9.8795 11.5547 10.1841 12.2879 10.5839 12.4538 11.9028 10.7626 13.0154 10.4405 13.2273 10.2794 13.3333 10 13.3333 9.7206 13.3333 9.5595 13.2273 9.2374 13.0154 7.5462 11.9028 7.7121 10.5839 8.4453 10.1841Z" stroke="currentColor" stroke-linecap="round" stroke-width="2"/>
  <path d="M5.8331 9.012C4.1667 9.826 1.2281 7.1929 1.7219 6.561L4.6413 2.8252C4.8006 2.6213 5.0602 2.5 5.337 2.5H7.089C7.2962 2.5 7.4701 2.6356 7.5337 2.8131 7.8522 3.7021 8.9683 4.7691 10 4.7692 11.0317 4.7692 12.1478 3.7021 12.4663 2.8131 12.5299 2.6356 12.7038 2.5 12.911 2.5H14.663C14.9399 2.5 15.1994 2.6213 15.3587 2.8252L18.2782 6.561C18.7719 7.1929 15.8333 9.826 14.1681 9.012" stroke="currentColor" stroke-linecap="round" stroke-linejoin="round" stroke-width="2"/>
</svg>
