<svg xmlns="http://www.w3.org/2000/svg" width="20" height="20" viewBox="0 0 20 20" fill="none">
  <path d="M4.956 7.5025C4.956 7.5025 3.0689 9.3767 2.5138 9.1472 1.7307 8.8235 1.3921 5.6837 1.9246 5.2043L3.9723 3.3607C4.9179 2.5095 4.9424 2.5 6.1988 2.5H7.4642C7.6529 3.6327 8.7463 4.9934 10 4.9934 11.2537 4.9934 12.3471 3.6327 12.5358 2.5H13.8012C15.0577 2.5 15.0822 2.5095 16.0277 3.3607L18.0754 5.2043C18.6079 5.6837 18.2693 8.8235 17.4863 9.1472 16.9311 9.3767 15.0408 7.5025 15.0408 7.5025" stroke="currentColor" stroke-linecap="round" stroke-linejoin="round" stroke-width="2"/>
  <path d="M5 6.6667V15.4389C5 16.0269 5.0999 16.341 5.6291 16.6247 7.8063 17.7918 12.1937 17.7918 14.3709 16.6247 14.9002 16.341 15 16.0269 15 15.4389L15 6.6667" stroke="currentColor" stroke-linecap="round" stroke-linejoin="round" stroke-width="2"/>
  <path d="M5 8.3333C6.6667 10.5556 13.3333 10.5556 15 8.3333" stroke="currentColor" stroke-linecap="round" stroke-linejoin="round" stroke-width="2"/>
</svg>
