<svg xmlns="http://www.w3.org/2000/svg" width="20" height="20" viewBox="0 0 20 20" fill="none">
  <path d="M4.1667 6.3889C4.1667 5.8722 4.1667 5.6139 4.2235 5.402 4.3776 4.8268 4.8268 4.3776 5.402 4.2235 5.6139 4.1667 5.8722 4.1667 6.3889 4.1667H13.6111C14.1277 4.1667 14.3861 4.1667 14.598 4.2235 15.1732 4.3776 15.6224 4.8268 15.7766 5.402 15.8333 5.6139 15.8333 5.8722 15.8333 6.3889 15.8333 7.4222 15.8333 7.9388 15.7198 8.3628 15.4115 9.513 14.513 10.4115 13.3628 10.7197 12.9388 10.8333 12.4222 10.8333 11.3889 10.8333H8.6111C7.5778 10.8333 7.0612 10.8333 6.6373 10.7197 5.487 10.4115 4.5885 9.513 4.2803 8.3628 4.1667 7.9388 4.1667 7.4222 4.1667 6.3889Z" stroke="currentColor" stroke-width="2"/>
  <path d="M15 9.1667C15.3097 9.6532 15.4645 9.8966 15.5742 10.1581 15.6718 10.3912 15.7428 10.6346 15.7854 10.8837 15.8333 11.1632 15.8333 11.4516 15.8333 12.0284V13.3333C15.8333 15.6903 15.8333 16.8688 15.1011 17.6011 14.3688 18.3333 13.1903 18.3333 10.8333 18.3333H9.1667C6.8096 18.3333 5.6311 18.3333 4.8989 17.6011 4.1667 16.8688 4.1667 15.6903 4.1667 13.3333V12.0284C4.1667 11.4516 4.1667 11.1632 4.2146 10.8837 4.2573 10.6346 4.3282 10.3912 4.4259 10.1581 4.5355 9.8966 4.6904 9.6532 5 9.1667" stroke="currentColor" stroke-width="2"/>
  <path d="M4.1667 16.6667C3.6029 16.6667 3.3211 16.6667 3.0852 16.6017 2.5691 16.4593 2.1506 16.0968 1.9513 15.6194 1.8602 15.4013 1.8322 15.1328 1.7761 14.5958L1.7224 14.0822C1.6583 13.4682 1.6262 13.1613 1.7574 12.9341 2.0506 12.4263 2.7094 12.5043 3.2142 12.5043H4.1667" stroke="currentColor" stroke-width="2"/>
  <path d="M15.8333 16.6667C16.3971 16.6667 16.6789 16.6667 16.9148 16.6016 17.4309 16.4592 17.8494 16.0963 18.0487 15.6183 18.1398 15.3999 18.1678 15.1312 18.2239 14.5937L18.2776 14.0795C18.3296 13.5813 18.4608 12.9688 17.9758 12.6478 17.7526 12.5 17.4303 12.5 16.7858 12.5H15.8333" stroke="currentColor" stroke-width="2"/>
  <path d="M7.5 12.0833L7.5 11.25" stroke="currentColor" stroke-linecap="round" stroke-linejoin="round" stroke-width="2"/>
  <path d="M12.5 12.0833L12.5 11.25" stroke="currentColor" stroke-linecap="round" stroke-linejoin="round" stroke-width="2"/>
  <path d="M12.5 4.1667C12.5 2.786 11.3808 1.6667 10 1.6667 8.6193 1.6667 7.5 2.786 7.5 4.1667" stroke="currentColor" stroke-width="2"/>
</svg>
