<svg xmlns="http://www.w3.org/2000/svg" width="20" height="20" viewBox="0 0 20 20" fill="none">
  <path d="M1.8024 10.7648C2.0377 11.407 2.7488 11.9206 4.171 12.9477 6.1103 14.3483 7.0799 15.0486 7.8907 14.9974 8.5098 14.9582 9.0853 14.6673 9.4814 14.1929 10 13.5719 10 12.3812 10 10 10 7.6187 10 6.4281 9.4814 5.8071 9.0853 5.3328 8.5098 5.0417 7.8907 5.0026 7.0799 4.9514 6.1103 5.6517 4.171 7.0523 2.7488 8.0794 2.0377 8.593 1.8024 9.2352 1.6214 9.7292 1.6214 10.2708 1.8024 10.7648Z" stroke="currentColor" stroke-linejoin="round" stroke-width="2"/>
  <path d="M10.1358 10.7648C10.3711 11.407 11.0822 11.9206 12.5043 12.9477 14.4436 14.3483 15.4132 15.0486 16.224 14.9974 16.8432 14.9582 17.4187 14.6673 17.8148 14.1929 18.3333 13.5719 18.3333 12.3812 18.3333 10 18.3333 7.6187 18.3333 6.4281 17.8148 5.8071 17.4187 5.3328 16.8432 5.0417 16.224 5.0026 15.4132 4.9514 14.4436 5.6517 12.5043 7.0523 11.0822 8.0794 10.3711 8.593 10.1358 9.2352 9.9548 9.7292 9.9548 10.2708 10.1358 10.7648Z" stroke="currentColor" stroke-linejoin="round" stroke-width="2"/>
</svg>
