<svg xmlns="http://www.w3.org/2000/svg" width="20" height="20" viewBox="0 0 20 20" fill="none">
  <path d="M3.3874 10.5215C3.5994 11.5312 4.7275 12.2564 6.9835 13.7068 9.4373 15.2843 10.6642 16.073 11.6579 15.7691 11.9945 15.6662 12.3045 15.4853 12.5648 15.2397 13.3333 14.5148 13.3333 13.0098 13.3333 10 13.3333 6.9901 13.3333 5.4852 12.5648 4.7603 12.3045 4.5148 11.9945 4.3338 11.6579 4.2309 10.6642 3.927 9.4373 4.7157 6.9835 6.2932 4.7275 7.7436 3.5994 8.4688 3.3874 9.4785 3.3153 9.8221 3.3153 10.1779 3.3874 10.5215Z" stroke="currentColor" stroke-linejoin="round" stroke-width="2"/>
  <path d="M16.6667 4.1667V15.8333" stroke="currentColor" stroke-linecap="round" stroke-width="2"/>
</svg>
