<svg xmlns="http://www.w3.org/2000/svg" width="20" height="20" viewBox="0 0 20 20" fill="none">
  <path d="M4.1667 10C4.1667 6.7783 6.7783 4.1667 10 4.1667 13.2217 4.1667 15.8333 6.7783 15.8333 10V13.6111C15.8333 14.9039 15.8333 15.5503 15.6564 16.0715 15.3233 17.0527 14.5528 17.8233 13.5715 18.1564 13.0503 18.3333 12.4039 18.3333 11.1111 18.3333H8.8889C7.5961 18.3333 6.9497 18.3333 6.4285 18.1564 5.4472 17.8233 4.6767 17.0527 4.3436 16.0715 4.1667 15.5503 4.1667 14.9039 4.1667 13.6111V10Z" stroke="currentColor" stroke-linejoin="round" stroke-width="2"/>
  <path d="M4.1667 14.1667C5.5416 12.6417 7.6439 11.6667 10 11.6667 12.3561 11.6667 14.4583 12.6417 15.8333 14.1667" stroke="currentColor" stroke-linejoin="round" stroke-width="2"/>
  <path d="M9.1667 8.3333H10.8333" stroke="currentColor" stroke-linecap="round" stroke-width="2"/>
  <path d="M7.5 5V4.1667C7.5 3.3901 7.5 3.0018 7.6269 2.6955 7.796 2.2872 8.1205 1.9627 8.5288 1.7935 8.8352 1.6667 9.2234 1.6667 10 1.6667 10.7766 1.6667 11.1648 1.6667 11.4712 1.7935 11.8795 1.9627 12.204 2.2872 12.3732 2.6955 12.5 3.0018 12.5 3.3901 12.5 4.1667V5" stroke="currentColor" stroke-width="2"/>
  <path d="M4.1667 15.8333H3.0952C2.3063 15.8333 1.6667 15.1938 1.6667 14.4047L1.6667 13.3333C1.6667 11.9526 2.786 10.8333 4.1667 10.8333" stroke="currentColor" stroke-width="2"/>
  <path d="M15.8333 15.8333H16.9047C17.6938 15.8333 18.3333 15.1938 18.3333 14.4047L18.3333 13.3333C18.3333 11.9526 17.2141 10.8333 15.8333 10.8333" stroke="currentColor" stroke-width="2"/>
</svg>
