<svg xmlns="http://www.w3.org/2000/svg" width="20" height="20" viewBox="0 0 20 20" fill="none">
  <path d="M3.544 16.9183C4.7128 17.9167 6.4752 17.9167 10 17.9167 13.5248 17.9167 15.2872 17.9167 16.456 16.9183 16.622 16.7766 16.7766 16.622 16.9183 16.456 17.9167 15.2872 17.9167 13.5248 17.9167 10 17.9167 6.4752 17.9167 4.7128 16.9183 3.544 16.7766 3.378 16.622 3.2234 16.456 3.0816 15.2872 2.0833 13.5248 2.0833 10 2.0833 6.4752 2.0833 4.7128 2.0833 3.544 3.0816 3.378 3.2234 3.2234 3.378 3.0816 3.544 2.0833 4.7128 2.0833 6.4752 2.0833 10 2.0833 13.5248 2.0833 15.2872 3.0816 16.456 3.2234 16.622 3.378 16.7766 3.544 16.9183Z" stroke="currentColor" stroke-linecap="round" stroke-linejoin="round" stroke-width="2"/>
  <path d="M3.3333 16.6667L16.6667 3.3333" stroke="currentColor" stroke-linecap="round" stroke-linejoin="round" stroke-width="2"/>
  <path d="M2.2484 13.1684L13.1715 2.2453" stroke="currentColor" stroke-linecap="round" stroke-linejoin="round" stroke-width="2"/>
  <path d="M17.7548 6.8286L6.8317 17.7518" stroke="currentColor" stroke-linecap="round" stroke-linejoin="round" stroke-width="2"/>
  <path d="M11.25 17.9167L17.9167 11.25" stroke="currentColor" stroke-linecap="round" stroke-linejoin="round" stroke-width="2"/>
  <path d="M2.0833 8.75L8.75 2.0833" stroke="currentColor" stroke-linecap="round" stroke-linejoin="round" stroke-width="2"/>
</svg>
