<svg xmlns="http://www.w3.org/2000/svg" width="20" height="20" viewBox="0 0 20 20" fill="none">
  <path d="M3.2727 3.6495C4.1776 3.1742 5.3784 2.9405 6.5793 3.5185 8.2897 1.0494 11.7103 1.0494 13.4207 3.5185 14.6215 2.9406 15.8223 3.1742 16.7273 3.6495 17.1458 3.8694 17.3552 3.9794 17.4621 4.2937 17.5689 4.608 17.4415 4.8741 17.1867 5.4063L13.5139 13.0787C13.3403 13.4412 13.2536 13.6225 13.2132 13.7908 13.1728 13.959 13.1617 14.4243 13.1395 15.3551 13.1013 16.9604 12.0662 18.3333 10 18.3333 7.9338 18.3333 6.8988 16.9604 6.8605 15.3551 6.8383 14.4243 6.8272 13.959 6.7868 13.7908 6.7464 13.6225 6.6596 13.4412 6.4861 13.0787L2.8132 5.4063C2.5585 4.8741 2.4311 4.608 2.5379 4.2937 2.6448 3.9794 2.8541 3.8694 3.2727 3.6495Z" stroke="currentColor" stroke-linecap="round" stroke-linejoin="round" stroke-width="2"/>
  <path d="M6.6667 14.1667H13.3333" stroke="currentColor" stroke-linejoin="round" stroke-width="2"/>
  <path d="M6.6667 3.3333L9.1667 14.1667M13.3333 3.3333L10.8333 14.1667" stroke="currentColor" stroke-linejoin="round" stroke-width="2"/>
  <path d="M5 10C6 11.1111 7.3333 11.1112 8.3333 10 9.3333 11.1111 10.6667 11.1112 11.6667 10 12.6667 11.1111 14 11.1112 15 10" stroke="currentColor" stroke-linejoin="round" stroke-width="2"/>
</svg>
