<svg xmlns="http://www.w3.org/2000/svg" width="20" height="20" viewBox="0 0 20 20" fill="none">
  <path d="M1.9926 18.0323C1.5117 17.568 1.5712 16.7832 2.1165 16.396L5.1429 14.2475C5.3194 14.1221 5.5616 14.1448 5.7117 14.3006 5.8564 14.4508 5.874 14.6819 5.7538 14.8522L3.6156 17.8798C3.2365 18.4166 2.4657 18.4889 1.9926 18.0323Z" stroke="currentColor" stroke-linecap="round" stroke-linejoin="round" stroke-width="2"/>
  <path d="M9.5833 10.4167L5.8333 14.1667" stroke="currentColor" stroke-linecap="round" stroke-linejoin="round" stroke-width="2"/>
  <path d="M16.1909 10.4812C14.6117 12.0604 11.5575 12.1274 9.7151 10.2849 7.8726 8.4425 7.9396 5.3883 9.5188 3.8091 11.5933 1.7345 15.4979 0.8172 17.3403 2.6597 19.1828 4.5021 18.2655 8.4067 16.1909 10.4812Z" stroke="currentColor" stroke-linecap="round" stroke-linejoin="round" stroke-width="2"/>
</svg>
