<svg xmlns="http://www.w3.org/2000/svg" width="20" height="20" viewBox="0 0 20 20" fill="none">
  <path d="M2.5 18.3333H17.5" stroke="currentColor" stroke-linecap="round" stroke-linejoin="round" stroke-width="2"/>
  <path d="M12.5 5H7.5C5.143 5 3.9645 5 3.2322 5.7322 2.5 6.4645 2.5 7.643 2.5 10 2.5 12.357 2.5 13.5355 3.2322 14.2678 3.9645 15 5.143 15 7.5 15H12.5C14.857 15 16.0355 15 16.7678 14.2678 17.5 13.5355 17.5 12.357 17.5 10 17.5 7.643 17.5 6.4645 16.7678 5.7322 16.0355 5 14.857 5 12.5 5Z" stroke="currentColor" stroke-linecap="round" stroke-linejoin="round" stroke-width="2"/>
  <path d="M14.1667 5V15" stroke="currentColor" stroke-linecap="round" stroke-linejoin="round" stroke-width="2"/>
  <path d="M5.8333 5V15" stroke="currentColor" stroke-linecap="round" stroke-linejoin="round" stroke-width="2"/>
  <path d="M7.5 5V4.1667C7.5 3.3901 7.5 3.0018 7.6269 2.6955 7.796 2.2872 8.1205 1.9627 8.5288 1.7935 8.8352 1.6667 9.2234 1.6667 10 1.6667 10.7766 1.6667 11.1648 1.6667 11.4712 1.7935 11.8795 1.9627 12.204 2.2872 12.3732 2.6955 12.5 3.0018 12.5 3.3901 12.5 4.1667V5" stroke="currentColor" stroke-linecap="round" stroke-linejoin="round" stroke-width="2"/>
</svg>
