<svg xmlns="http://www.w3.org/2000/svg" width="20" height="20" viewBox="0 0 20 20" fill="none">
  <path d="M10.4167 14.1667C12.0833 14.1667 15.4167 10.4167 15.4167 6.6667 15.4167 3.9052 13.1781 1.6667 10.4167 1.6667 7.6552 1.6667 5.4167 3.9052 5.4167 6.6667 5.4167 10.4167 8.75 14.1667 10.4167 14.1667Z" stroke="currentColor" stroke-linecap="round" stroke-linejoin="round" stroke-width="2"/>
  <path d="M12.0833 6.6667C12.0833 5.7462 11.3372 5 10.4167 5" stroke="currentColor" stroke-linecap="round" stroke-linejoin="round" stroke-width="2"/>
  <path d="M4.5833 18.3333C4.5833 17.4128 5.3295 16.6667 6.25 16.6667H7.9167C8.6933 16.6667 9.0815 16.6667 9.3878 16.5398 9.7962 16.3707 10.1207 16.0462 10.2898 15.6378 10.4167 15.3315 10.4167 14.9432 10.4167 14.1667" stroke="currentColor" stroke-linecap="round" stroke-linejoin="round" stroke-width="2"/>
</svg>
