<svg xmlns="http://www.w3.org/2000/svg" width="20" height="20" viewBox="0 0 20 20" fill="none">
  <path d="M11.6667 9.9309C13.3333 9.0906 15.3983 9.7941 16.3148 11.8215 17.6902 14.8641 14.8016 18.2355 11.6731 18.3313 11.5831 18.334 11.4883 18.3187 11.4051 18.2841 9.1159 17.3314 14.5599 13.9509 12.7766 12.1234" stroke="currentColor" stroke-linecap="round" stroke-width="2"/>
  <path d="M10.2159 10.8333C10.6275 9.2819 9.9754 7.7154 8.3293 8.1033 7.3325 8.3382 7.097 9.0693 6.4942 9.1305 6.0259 9.1781 5.737 8.6433 5.8629 8.1964 6.7576 5.0185 12.9167 5.026 12.9167 8.3394" stroke="currentColor" stroke-linecap="round" stroke-width="2"/>
  <path d="M11.6674 15.757C9.8392 16.6662 5.939 17.1784 4.1822 15.8998 3.7007 15.5493 3.0821 15.6554 2.5198 15.6554 1.1569 15.6554 1.5416 12.9994 2.8646 13.5112 3.3325 13.6922 4.1834 13.9272 4.818 13.5675 8.9026 11.2528 13.3289 10.8533 14.7887 4.7616 15.4384 2.0502 15.6255 1.6667 16.7108 1.6667 17.7961 1.6667 19.0994 4.1676 17.7721 8.2987 17.4214 9.3898 17.0068 10.481 16.4138 11.4992" stroke="currentColor" stroke-linecap="round" stroke-width="2"/>
</svg>
