<svg xmlns="http://www.w3.org/2000/svg" width="20" height="20" viewBox="0 0 20 20" fill="none">
  <path d="M9.1876 16.4994L16.4994 9.1874C17.5459 8.1409 18.0691 7.6177 18.2417 7.0057 18.3638 6.5729 18.3638 6.1149 18.2417 5.6821 18.0691 5.0701 17.5458 4.5469 16.4993 3.5005 15.4529 2.4541 14.9297 1.9309 14.3178 1.7582 13.885 1.6361 13.4269 1.6361 12.9942 1.7582 12.3822 1.9309 11.859 2.4541 10.8126 3.5005L3.5006 10.8125C2.4541 11.8589 1.9309 12.3822 1.7582 12.9942 1.6361 13.4269 1.6361 13.885 1.7582 14.3177 1.9309 14.9297 2.4541 15.4529 3.5006 16.4994 4.5471 17.5459 5.0703 18.0692 5.6823 18.2417 6.1151 18.3638 6.5731 18.3638 7.0058 18.2417 7.6179 18.0691 8.1411 17.5458 9.1876 16.4994Z" stroke="currentColor" stroke-linecap="round" stroke-linejoin="round" stroke-width="2"/>
  <path d="M10.8333 4.1667L15.8333 9.1667M4.1667 10.8333L9.1667 15.8333" stroke="currentColor" stroke-linecap="round" stroke-linejoin="round" stroke-width="2"/>
  <path d="M12.0833 9.8958V10M11.875 10C11.875 10.1151 11.9683 10.2083 12.0833 10.2083 12.1984 10.2083 12.2917 10.1151 12.2917 10 12.2917 9.8849 12.1984 9.7917 12.0833 9.7917 11.9683 9.7917 11.875 9.8849 11.875 10Z" stroke="currentColor" stroke-linecap="round" stroke-linejoin="round" stroke-width="2"/>
  <path d="M10 7.8125V7.9167M9.7917 7.9167C9.7917 8.0317 9.8849 8.125 10 8.125 10.1151 8.125 10.2083 8.0317 10.2083 7.9167 10.2083 7.8016 10.1151 7.7083 10 7.7083 9.8849 7.7083 9.7917 7.8016 9.7917 7.9167Z" stroke="currentColor" stroke-linecap="round" stroke-linejoin="round" stroke-width="2"/>
  <path d="M7.9167 9.8958V10M7.7083 10C7.7083 10.1151 7.8016 10.2083 7.9167 10.2083 8.0317 10.2083 8.125 10.1151 8.125 10 8.125 9.8849 8.0317 9.7917 7.9167 9.7917 7.8016 9.7917 7.7083 9.8849 7.7083 10Z" stroke="currentColor" stroke-linecap="round" stroke-linejoin="round" stroke-width="2"/>
  <path d="M10 11.9792V12.0833M9.7917 12.0833C9.7917 12.1984 9.8849 12.2917 10 12.2917 10.1151 12.2917 10.2083 12.1984 10.2083 12.0833 10.2083 11.9683 10.1151 11.875 10 11.875 9.8849 11.875 9.7917 11.9683 9.7917 12.0833Z" stroke="currentColor" stroke-linecap="round" stroke-linejoin="round" stroke-width="2"/>
</svg>
