<svg xmlns="http://www.w3.org/2000/svg" width="20" height="20" viewBox="0 0 20 20" fill="none">
  <path d="M1.25 10.4167V9.5833C1.25 7.2263 1.25 6.0478 1.9822 5.3156 2.7145 4.5833 3.893 4.5833 6.25 4.5833H13.75C16.107 4.5833 17.2855 4.5833 18.0178 5.3156 18.75 6.0478 18.75 7.2263 18.75 9.5833V10.4167C18.75 12.7737 18.75 13.9522 18.0178 14.6844 17.2855 15.4167 16.107 15.4167 13.75 15.4167H6.25C3.893 15.4167 2.7145 15.4167 1.9822 14.6844 1.25 13.9522 1.25 12.7737 1.25 10.4167Z" stroke="currentColor" stroke-width="2"/>
  <path d="M12.0833 10C12.0833 11.1506 11.1506 12.0833 10 12.0833 8.8494 12.0833 7.9167 11.1506 7.9167 10 7.9167 8.8494 8.8494 7.9167 10 7.9167 11.1506 7.9167 12.0833 8.8494 12.0833 10Z" stroke="currentColor" stroke-linecap="round" stroke-linejoin="round" stroke-width="2"/>
  <path d="M4.1667 10H5" stroke="currentColor" stroke-linecap="round" stroke-linejoin="round" stroke-width="2"/>
  <path d="M15 10H15.8333" stroke="currentColor" stroke-linecap="round" stroke-linejoin="round" stroke-width="2"/>
</svg>
