<svg xmlns="http://www.w3.org/2000/svg" width="20" height="20" viewBox="0 0 20 20" fill="none">
  <path d="M3.3333 15.4167V4.5833C3.3333 4.3532 3.1468 4.1667 2.9167 4.1667 2.6866 4.1667 2.5 4.3532 2.5 4.5833V15.4167C2.5 15.6468 2.6866 15.8333 2.9167 15.8333 3.1468 15.8333 3.3333 15.6468 3.3333 15.4167Z" stroke="currentColor" stroke-linecap="round" stroke-linejoin="round" stroke-width="2"/>
  <path d="M14.1667 15.4167V4.5833C14.1667 4.3532 13.9801 4.1667 13.75 4.1667 13.5199 4.1667 13.3333 4.3532 13.3333 4.5833V15.4167C13.3333 15.6468 13.5199 15.8333 13.75 15.8333 13.9801 15.8333 14.1667 15.6468 14.1667 15.4167Z" stroke="currentColor" stroke-linecap="round" stroke-linejoin="round" stroke-width="2"/>
  <path d="M6.6667 4.1667V15.8333" stroke="currentColor" stroke-linecap="round" stroke-linejoin="round" stroke-width="2"/>
  <path d="M10 4.1667V15.8333" stroke="currentColor" stroke-linecap="round" stroke-linejoin="round" stroke-width="2"/>
  <path d="M17.5 4.1667V15.8333" stroke="currentColor" stroke-linecap="round" stroke-linejoin="round" stroke-width="2"/>
</svg>
