<svg xmlns="http://www.w3.org/2000/svg" width="20" height="20" viewBox="0 0 20 20" fill="none">
  <path d="M11.6667 15V5C11.6667 4.6125 11.6667 4.4188 11.6241 4.2598 11.5085 3.8284 11.1716 3.4915 10.7402 3.3759 10.5813 3.3333 10.3875 3.3333 10 3.3333 9.6125 3.3333 9.4188 3.3333 9.2598 3.3759 8.8284 3.4915 8.4915 3.8284 8.3759 4.2598 8.3333 4.4188 8.3333 4.6125 8.3333 5V15C8.3333 15.3875 8.3333 15.5813 8.3759 15.7402 8.4915 16.1716 8.8284 16.5085 9.2598 16.6241 9.4188 16.6667 9.6125 16.6667 10 16.6667 10.3875 16.6667 10.5813 16.6667 10.7402 16.6241 11.1716 16.5085 11.5085 16.1716 11.6241 15.7402 11.6667 15.5813 11.6667 15.3875 11.6667 15Z" stroke="currentColor" stroke-linecap="round" stroke-linejoin="round" stroke-width="2"/>
  <path d="M17.5 6.6667V5C17.5 4.6125 17.5 4.4188 17.4574 4.2598 17.3418 3.8284 17.0049 3.4915 16.5735 3.3759 16.4146 3.3333 16.2208 3.3333 15.8333 3.3333 15.4458 3.3333 15.2521 3.3333 15.0932 3.3759 14.6618 3.4915 14.3248 3.8284 14.2093 4.2598 14.1667 4.4188 14.1667 4.6125 14.1667 5V6.6667C14.1667 7.0542 14.1667 7.2479 14.2093 7.4069 14.3248 7.8382 14.6618 8.1752 15.0932 8.2907 15.2521 8.3333 15.4458 8.3333 15.8333 8.3333 16.2208 8.3333 16.4146 8.3333 16.5735 8.2907 17.0049 8.1752 17.3418 7.8382 17.4574 7.4069 17.5 7.2479 17.5 7.0542 17.5 6.6667Z" stroke="currentColor" stroke-linecap="round" stroke-linejoin="round" stroke-width="2"/>
  <path d="M5.8333 10V5C5.8333 4.6125 5.8333 4.4188 5.7907 4.2598 5.6752 3.8284 5.3382 3.4915 4.9069 3.3759 4.7479 3.3333 4.5542 3.3333 4.1667 3.3333 3.7792 3.3333 3.5854 3.3333 3.4265 3.3759 2.9951 3.4915 2.6582 3.8284 2.5426 4.2598 2.5 4.4188 2.5 4.6125 2.5 5V10C2.5 10.3875 2.5 10.5813 2.5426 10.7402 2.6582 11.1716 2.9951 11.5085 3.4265 11.6241 3.5854 11.6667 3.7792 11.6667 4.1667 11.6667 4.5542 11.6667 4.7479 11.6667 4.9069 11.6241 5.3382 11.5085 5.6752 11.1716 5.7907 10.7402 5.8333 10.5813 5.8333 10.3875 5.8333 10Z" stroke="currentColor" stroke-linecap="round" stroke-linejoin="round" stroke-width="2"/>
</svg>
