<svg xmlns="http://www.w3.org/2000/svg" width="20" height="20" viewBox="0 0 20 20" fill="none">
  <path d="M1.6667 3.3333V16.6667" stroke="currentColor" stroke-linecap="round" stroke-linejoin="round" stroke-width="2"/>
  <path d="M4.1667 3.3333V16.6667" stroke="currentColor" stroke-linecap="round" stroke-linejoin="round" stroke-width="2"/>
  <path d="M12.5 3.3333V16.6667" stroke="currentColor" stroke-linecap="round" stroke-linejoin="round" stroke-width="2"/>
  <path d="M6.6667 15V5C6.6667 4.2143 6.6667 3.8215 6.9107 3.5774 7.1548 3.3333 7.5477 3.3333 8.3333 3.3333 9.119 3.3333 9.5118 3.3333 9.7559 3.5774 10 3.8215 10 4.2143 10 5V15C10 15.7857 10 16.1785 9.7559 16.4226 9.5118 16.6667 9.119 16.6667 8.3333 16.6667 7.5477 16.6667 7.1548 16.6667 6.9107 16.4226 6.6667 16.1785 6.6667 15.7857 6.6667 15Z" stroke="currentColor" stroke-linecap="round" stroke-linejoin="round" stroke-width="2"/>
  <path d="M15 15V5C15 4.2143 15 3.8215 15.2441 3.5774 15.4882 3.3333 15.881 3.3333 16.6667 3.3333 17.4523 3.3333 17.8452 3.3333 18.0892 3.5774 18.3333 3.8215 18.3333 4.2143 18.3333 5V15C18.3333 15.7857 18.3333 16.1785 18.0892 16.4226 17.8452 16.6667 17.4523 16.6667 16.6667 16.6667 15.881 16.6667 15.4882 16.6667 15.2441 16.4226 15 16.1785 15 15.7857 15 15Z" stroke="currentColor" stroke-linecap="round" stroke-linejoin="round" stroke-width="2"/>
</svg>
