<svg xmlns="http://www.w3.org/2000/svg" width="20" height="20" viewBox="0 0 20 20" fill="none">
  <path d="M6.6667 17.9168V12.9168C6.6667 12.1312 6.6667 11.7383 6.9107 11.4943 7.1548 11.2502 7.5477 11.2502 8.3333 11.2502H11.6667C12.4523 11.2502 12.8452 11.2502 13.0893 11.4943 13.3333 11.7383 13.3333 12.1312 13.3333 12.9168V17.9168" stroke="currentColor" stroke-linecap="round" stroke-linejoin="round" stroke-width="2"/>
  <path d="M7.0833 11.6668L13.3333 17.9168M12.9167 11.6668L6.6667 17.9168" stroke="currentColor" stroke-linecap="round" stroke-linejoin="round" stroke-width="2"/>
  <path d="M8.75 7.0834H11.25" stroke="currentColor" stroke-linecap="round" stroke-linejoin="round" stroke-width="2"/>
  <path d="M3.657 5.7303L2.7873 7.687C2.6442 8.009 2.5726 8.17 2.5363 8.3412 2.5 8.5123 2.5 8.6884 2.5 9.0408V14.5834C2.5 16.1547 2.5 16.9404 2.9882 17.4286 3.4763 17.9168 4.262 17.9168 5.8333 17.9168H14.1667C15.738 17.9168 16.5237 17.9168 17.0118 17.4286 17.5 16.9404 17.5 16.1547 17.5 14.5834V8.7037C17.5 8.312 17.5 8.1162 17.4554 7.9273 17.4108 7.7384 17.3233 7.5633 17.1481 7.213L16.3563 5.6293C16.0973 5.1114 15.9678 4.8525 15.764 4.6549 15.5602 4.4574 15.2974 4.3361 14.7717 4.0934L10.795 2.258C10.5457 2.143 10.2745 2.0834 10 2.0834 9.7255 2.0834 9.4543 2.143 9.205 2.258L5.3061 4.0575C4.7427 4.3176 4.461 4.4476 4.248 4.6636 4.035 4.8796 3.909 5.1632 3.657 5.7303Z" stroke="currentColor" stroke-linecap="round" stroke-linejoin="round" stroke-width="2"/>
</svg>
