<svg xmlns="http://www.w3.org/2000/svg" width="20" height="20" viewBox="0 0 20 20" fill="none">
  <path d="M16.25 7.0833C15 4.1667 12.4937 2.5 9.5038 2.5 5.1755 2.5 1.6667 6.0346 1.6667 10.3948 1.6667 13.2427 3.1636 15.7383 5.4081 17.1269 5.8911 17.4257 6.2889 17.5 6.8555 17.5H12.3025C13.4772 17.5 14.4296 16.5673 14.4296 15.4167 14.4296 14.2661 13.4772 13.3333 12.3025 13.3333 11.9739 13.3333 11.3593 13.4571 11.1278 13.1889 11.0032 13.0444 11.0299 12.8638 11.0833 12.5026 11.449 10.0303 13.5313 9.5833 16.2137 9.5833 16.8473 9.5833 17.481 8.8792 17.9363 8.2182 18.2543 7.7564 18.4133 7.5254 18.2933 7.3044 18.1733 7.0833 17.8703 7.0833 17.2643 7.0833H16.25ZM16.25 7.0833H12.5578" stroke="currentColor" stroke-linecap="round" stroke-linejoin="round" stroke-width="2"/>
  <path d="M12.5065 15.4167L12.499 15.4167" stroke="currentColor" stroke-linecap="round" stroke-linejoin="round" stroke-width="2"/>
</svg>
