<svg xmlns="http://www.w3.org/2000/svg" width="20" height="20" viewBox="0 0 20 20" fill="none">
  <path d="M18.3333 10C18.3333 14.6023 14.6023 18.3333 10 18.3333 5.3976 18.3333 1.6667 14.6023 1.6667 10 1.6667 5.3976 5.3976 1.6667 10 1.6667 14.6023 1.6667 18.3333 5.3976 18.3333 10Z" stroke="currentColor" stroke-width="2"/>
  <path d="M10 18.3333C10 18.178 9.9957 18.0237 9.9873 17.8705M1.6667 10C1.8385 10 2.0091 10.0052 2.1784 10.0154M4.4502 10.4763C4.7289 10.575 5.0008 10.6881 5.2649 10.8148M7.2381 12.1362C7.4547 12.331 7.661 12.5371 7.8561 12.7533M9.2014 14.7689C9.3175 15.014 9.4221 15.2657 9.5143 15.5232" stroke="currentColor" stroke-linecap="round" stroke-linejoin="round" stroke-width="2"/>
  <path d="M10 1.6667C10 1.822 10.0043 1.9763 10.0127 2.1295M18.3333 10C18.1615 10 17.9909 9.9948 17.8216 9.9846M15.5498 9.5237C15.2711 9.425 14.9992 9.3119 14.7351 9.1852M12.7619 7.8638C12.5453 7.669 12.339 7.4629 12.1438 7.2466M10.7986 5.2311C10.6825 4.986 10.5779 4.7344 10.4857 4.4768" stroke="currentColor" stroke-linecap="round" stroke-linejoin="round" stroke-width="2"/>
</svg>
