<svg xmlns="http://www.w3.org/2000/svg" width="20" height="20" viewBox="0 0 20 20" fill="none">
  <path d="M4.4292 13.0788C4.2886 13.3941 4.4302 13.7636 4.7455 13.9042 5.0608 14.0448 5.4303 13.9031 5.5708 13.5878L5 13.3333 4.4292 13.0788ZM8.477 5.5347L7.9061 5.2802V5.2802L8.477 5.5347ZM11.523 5.5347L10.9522 5.7892V5.7892L11.523 5.5347ZM14.4292 13.5878C14.5697 13.9031 14.9392 14.0448 15.2545 13.9042 15.5698 13.7636 15.7114 13.3941 15.5708 13.0788L15 13.3333 14.4292 13.5878ZM6.6667 9.375C6.3215 9.375 6.0417 9.6548 6.0417 10 6.0417 10.3452 6.3215 10.625 6.6667 10.625V10 9.375ZM13.3333 10.625C13.6785 10.625 13.9583 10.3452 13.9583 10 13.9583 9.6548 13.6785 9.375 13.3333 9.375V10 10.625ZM5 13.3333L5.5708 13.5878 9.0478 5.7892 8.477 5.5347 7.9061 5.2802 4.4292 13.0788 5 13.3333ZM11.523 5.5347L10.9522 5.7892 14.4292 13.5878 15 13.3333 15.5708 13.0788 12.0938 5.2802 11.523 5.5347ZM8.477 5.5347L9.0478 5.7892C9.3836 5.0361 9.6081 4.5365 9.8095 4.217 10.0192 3.8842 10.0738 3.9583 10 3.9583V3.3333 2.7083C9.3847 2.7083 9.0048 3.1493 8.7521 3.5504 8.4909 3.9646 8.2247 4.5657 7.9061 5.2802L8.477 5.5347ZM11.523 5.5347L12.0938 5.2802C11.7753 4.5657 11.5091 3.9646 11.2479 3.5504 10.9952 3.1493 10.6153 2.7083 10 2.7083V3.3333 3.9583C9.9263 3.9583 9.9808 3.8842 10.1905 4.217 10.3919 4.5365 10.6164 5.0361 10.9522 5.7892L11.523 5.5347ZM6.6667 10V10.625H13.3333V10 9.375H6.6667V10Z" fill="currentColor"/>
  <path d="M3.3333 16.6667H16.6667" stroke="currentColor" stroke-linecap="round" stroke-linejoin="round" stroke-width="2"/>
</svg>
