<svg xmlns="http://www.w3.org/2000/svg" width="20" height="20" viewBox="0 0 20 20" fill="none">
  <path d="M4.1667 14.1667C3.6432 14.0543 3.2325 13.874 2.8854 13.5848 2.7166 13.4443 2.5618 13.2872 2.4233 13.1159 1.6667 12.1803 1.6667 10.7901 1.6667 8.0097 1.6667 5.2294 1.6667 3.8392 2.4233 2.9035 2.5618 2.7322 2.7166 2.5751 2.8854 2.4346 3.8073 1.6667 5.1771 1.6667 7.9167 1.6667H12.0833C14.8229 1.6667 16.1927 1.6667 17.1147 2.4346 17.2834 2.5751 17.4382 2.7322 17.5767 2.9035 18.3333 3.8392 18.3333 5.2294 18.3333 8.0097 18.3333 10.7901 18.3333 12.1803 17.5767 13.1159 17.4382 13.2872 17.2834 13.4443 17.1147 13.5848 16.7674 13.874 16.3568 14.0543 15.8333 14.1667" stroke="currentColor" stroke-linecap="round" stroke-width="2"/>
  <path d="M5 10.8333H6.1111M6.1111 10.8333L7.0833 18.3333M6.1111 10.8333H10M15 10.8333H13.8889M13.8889 10.8333L12.9167 18.3333M13.8889 10.8333H10M10 10.8333V18.3333" stroke="currentColor" stroke-linecap="round" stroke-linejoin="round" stroke-width="2"/>
  <path d="M6.6667 8.3333C6.7158 6.7069 7.7182 6.6667 9.1648 6.6667H10.8352C12.2818 6.6667 13.2843 6.7069 13.3333 8.3333" stroke="currentColor" stroke-linecap="round" stroke-linejoin="round" stroke-width="2"/>
  <path d="M6.6667 13.75H13.3333M7.037 16.6667H12.963" stroke="currentColor" stroke-linejoin="round" stroke-width="2"/>
</svg>
