<svg xmlns="http://www.w3.org/2000/svg" width="20" height="20" viewBox="0 0 20 20" fill="none">
  <path d="M18.3333 10H12.5C11.9591 10 11.4328 9.8246 11 9.5L9 8C8.5672 7.6754 8.0409 7.5 7.5 7.5H1.6667" stroke="currentColor" stroke-linecap="round" stroke-linejoin="round" stroke-width="2"/>
  <path d="M2.5 7.5V9.1667C2.5 12.3093 2.5 13.8808 3.4763 14.857 4.4526 15.8333 6.024 15.8333 9.1667 15.8333H11.6667C14.0074 15.8333 15.1778 15.8333 16.0186 15.2716 16.3825 15.0283 16.695 14.7158 16.9383 14.3519 17.5 13.5112 17.5 12.3407 17.5 10" stroke="currentColor" stroke-linecap="round" stroke-linejoin="round" stroke-width="2"/>
  <path d="M15 15.8333V17.5M5 15.8333V17.5" stroke="currentColor" stroke-linecap="round" stroke-linejoin="round" stroke-width="2"/>
  <path d="M4.1667 7.5V3.75C4.1667 3.0596 4.7263 2.5 5.4167 2.5 6.107 2.5 6.6667 3.0596 6.6667 3.75V4.1667" stroke="currentColor" stroke-linecap="round" stroke-linejoin="round" stroke-width="2"/>
</svg>
