<svg xmlns="http://www.w3.org/2000/svg" width="20" height="20" viewBox="0 0 20 20" fill="none">
  <path d="M5 16.6667L4.1667 17.5M15 16.6667L15.8333 17.5" stroke="currentColor" stroke-linecap="round" stroke-width="2"/>
  <path d="M2.5 10V10.8333C2.5 13.5832 2.5 14.9581 3.3543 15.8124 4.2085 16.6667 5.5835 16.6667 8.3333 16.6667H11.6667C14.4165 16.6667 15.7914 16.6667 16.6458 15.8124 17.5 14.9581 17.5 13.5832 17.5 10.8333V10" stroke="currentColor" stroke-linecap="round" stroke-linejoin="round" stroke-width="2"/>
  <path d="M1.6667 10H18.3333" stroke="currentColor" stroke-linecap="round" stroke-width="2"/>
  <path d="M3.3333 10V4.6028C3.3333 3.4415 4.2748 2.5 5.4362 2.5 6.3681 2.5 7.1888 3.1133 7.4528 4.007L7.5 4.1667" stroke="currentColor" stroke-linecap="round" stroke-width="2"/>
  <path d="M6.6667 5L8.75 3.3333" stroke="currentColor" stroke-linecap="round" stroke-width="2"/>
</svg>
