<svg xmlns="http://www.w3.org/2000/svg" width="20" height="20" viewBox="0 0 20 20" fill="none">
  <path d="M6.6667 5C4.3096 5 3.1311 5 2.3989 5.7322 1.6667 6.4645 1.6667 7.643 1.6667 10 1.6667 12.357 1.6667 13.5355 2.3989 14.2678 2.8733 14.7422 3.5351 14.9093 4.5833 14.968M10 14.9856L10.8333 15C13.1903 15 14.3688 15 15.1011 14.2678 15.8333 13.5355 15.8333 12.357 15.8333 10 15.8333 7.643 15.8333 6.4645 15.1011 5.7322 14.5117 5.1428 13.6331 5.0278 12.0833 5.0054" stroke="currentColor" stroke-linecap="round" stroke-width="2"/>
  <path d="M9.6353 5L7.1597 8.6973C6.7764 9.2698 6.5847 9.5561 6.6999 9.778 6.8151 10 7.1554 10 7.8359 10H8.8308C9.5113 10 9.8516 10 9.9668 10.222 10.082 10.4439 9.8902 10.7303 9.5069 11.3027L7.0314 15" stroke="currentColor" stroke-linecap="round" stroke-width="2"/>
  <path d="M15.8333 7.9167L16.6893 8.0593C17.2571 8.154 17.5409 8.2013 17.7563 8.3389 17.9682 8.4743 18.1343 8.6703 18.233 8.9016 18.3333 9.1367 18.3333 9.4244 18.3333 10 18.3333 10.5756 18.3333 10.8633 18.233 11.0984 18.1343 11.3297 17.9682 11.5258 17.7563 11.6611 17.5409 11.7988 17.2571 11.8461 16.6893 11.9407L15.8333 12.0833" stroke="currentColor" stroke-linecap="round" stroke-width="2"/>
</svg>
