<svg xmlns="http://www.w3.org/2000/svg" width="20" height="20" viewBox="0 0 20 20" fill="none">
  <path d="M11.6667 5H6.6667C4.3096 5 3.1311 5 2.3989 5.7322 1.6667 6.4645 1.6667 7.643 1.6667 10 1.6667 12.357 1.6667 13.5355 2.3989 14.2678 3.1311 15 4.3096 15 6.6667 15H11.6667C14.0237 15 15.2022 15 15.9344 14.2678 16.6667 13.5355 16.6667 12.357 16.6667 10 16.6667 7.643 16.6667 6.4645 15.9344 5.7322 15.2022 5 14.0237 5 11.6667 5Z" stroke="currentColor" stroke-linecap="round" stroke-linejoin="round" stroke-width="2"/>
  <path d="M16.6667 8.3333H17.5C17.9602 8.3333 18.3333 8.7064 18.3333 9.1667V10.8333C18.3333 11.2936 17.9602 11.6667 17.5 11.6667H16.6667M17.5 8.75V11.25" stroke="currentColor" stroke-linecap="round" stroke-linejoin="round" stroke-width="2"/>
</svg>
