<svg xmlns="http://www.w3.org/2000/svg" width="20" height="20" viewBox="0 0 20 20" fill="none">
  <path d="M5.8333 5.0014C4.0208 5.0115 3.0392 5.0919 2.3989 5.7322 1.6667 6.4644 1.6667 7.643 1.6667 10 1.6667 12.357 1.6667 13.5355 2.3989 14.2678 3.0392 14.9081 4.0208 14.9884 5.8333 14.9985M11.6667 14.9985C13.4792 14.9884 14.4608 14.9081 15.1011 14.2678 15.8333 13.5355 15.8333 12.357 15.8333 10 15.8333 7.643 15.8333 6.4644 15.1011 5.7322 14.4608 5.0919 13.4792 5.0115 11.6667 5.0014" stroke="currentColor" stroke-linecap="round" stroke-linejoin="round" stroke-width="2"/>
  <path d="M15.8333 7.9165L16.6893 8.0591C17.2571 8.1538 17.5409 8.2011 17.7563 8.3387 17.9682 8.474 18.1343 8.6702 18.233 8.9013 18.3333 9.1364 18.3333 9.4243 18.3333 9.9998 18.3333 10.5753 18.3333 10.8632 18.233 11.0983 18.1343 11.3294 17.9682 11.5256 17.7563 11.6609 17.5409 11.7985 17.2571 11.8458 16.6893 11.9405L15.8333 12.0832" stroke="currentColor" stroke-linecap="round" stroke-linejoin="round" stroke-width="2"/>
  <path d="M8.75 7.4998V12.4998M11.2542 9.9955L6.2541 9.9955" stroke="currentColor" stroke-linecap="round" stroke-linejoin="round" stroke-width="2"/>
</svg>
