<svg xmlns="http://www.w3.org/2000/svg" width="20" height="20" viewBox="0 0 20 20" fill="none">
  <path d="M10.4167 1.6667L8.3333 5H11.6667L9.5833 8.3333" stroke="currentColor" stroke-linecap="round" stroke-linejoin="round" stroke-width="2"/>
  <path d="M14.1667 5C14.9523 5 15.3452 5 15.5893 5.2441 15.8333 5.4882 15.8333 5.881 15.8333 6.6667V8.75M5.8333 5C5.0477 5 4.6548 5 4.4107 5.2441 4.1667 5.4882 4.1667 5.881 4.1667 6.6667L4.1667 8.75" stroke="currentColor" stroke-linecap="round" stroke-linejoin="round" stroke-width="2"/>
  <path d="M16.6667 10.8333H15C14.2143 10.8333 13.8215 10.8333 13.5774 11.0774 13.3333 11.3215 13.3333 11.7143 13.3333 12.5V16.6667C13.3333 17.4523 13.3333 17.8452 13.5774 18.0892 13.8215 18.3333 14.2143 18.3333 15 18.3333H16.6667C17.4523 18.3333 17.8452 18.3333 18.0892 18.0892 18.3333 17.8452 18.3333 17.4523 18.3333 16.6667V12.5C18.3333 11.7143 18.3333 11.3215 18.0892 11.0774 17.8452 10.8333 17.4523 10.8333 16.6667 10.8333Z" stroke="currentColor" stroke-linecap="round" stroke-linejoin="round" stroke-width="2"/>
  <path d="M13.3333 15.8333H18.3333" stroke="currentColor" stroke-linecap="round" stroke-linejoin="round" stroke-width="2"/>
  <path d="M13.3333 13.3333L18.3333 13.3333" stroke="currentColor" stroke-linecap="round" stroke-linejoin="round" stroke-width="2"/>
  <path d="M5 10.8333H3.3333C2.5477 10.8333 2.1548 10.8333 1.9107 11.0774 1.6667 11.3215 1.6667 11.7143 1.6667 12.5V16.6667C1.6667 17.4523 1.6667 17.8452 1.9107 18.0892 2.1548 18.3333 2.5477 18.3333 3.3333 18.3333H5C5.7857 18.3333 6.1785 18.3333 6.4226 18.0892 6.6667 17.8452 6.6667 17.4523 6.6667 16.6667V12.5C6.6667 11.7143 6.6667 11.3215 6.4226 11.0774 6.1785 10.8333 5.7857 10.8333 5 10.8333Z" stroke="currentColor" stroke-linecap="round" stroke-linejoin="round" stroke-width="2"/>
  <path d="M1.6667 15.8333H6.6667" stroke="currentColor" stroke-linecap="round" stroke-linejoin="round" stroke-width="2"/>
  <path d="M1.6667 13.3333L6.6667 13.3333" stroke="currentColor" stroke-linecap="round" stroke-linejoin="round" stroke-width="2"/>
</svg>
