<svg xmlns="http://www.w3.org/2000/svg" width="20" height="20" viewBox="0 0 20 20" fill="none">
  <path d="M7.5 12.5L5 18.3333" stroke="currentColor" stroke-linecap="round" stroke-width="2"/>
  <path d="M12.5 12.5L15 18.3333" stroke="currentColor" stroke-linecap="round" stroke-width="2"/>
  <path d="M10 12.5L10 18.3333" stroke="currentColor" stroke-linecap="round" stroke-width="2"/>
  <path d="M12.963 5C13.4567 4.5398 13.4567 3.7936 12.963 3.3333 12.4692 2.8731 12.4692 2.1269 12.963 1.6667M10 5C10.4938 4.5398 10.4938 3.7936 10 3.3333 9.5062 2.8731 9.5062 2.1269 10 1.6667M7.037 5C7.5309 4.5398 7.5309 3.7936 7.037 3.3333 6.5432 2.8731 6.5432 2.1269 7.037 1.6667" stroke="currentColor" stroke-linecap="round" stroke-width="2"/>
  <path d="M6.25 15.8333H13.75" stroke="currentColor" stroke-linecap="round" stroke-width="2"/>
  <path d="M10 12.5C12.9476 12.5 15.386 10.3257 15.7904 7.4975 15.8422 7.1351 15.8682 6.9539 15.7432 6.8103 15.6183 6.6667 15.4168 6.6667 15.0137 6.6667H4.9863C4.5833 6.6667 4.3817 6.6667 4.2568 6.8103 4.1319 6.9539 4.1578 7.1351 4.2096 7.4975 4.614 10.3257 7.0524 12.5 10 12.5Z" stroke="currentColor" stroke-linecap="round" stroke-linejoin="round" stroke-width="2"/>
  <path d="M15.8333 8.3333H16.6667M4.1667 8.3333H3.3333" stroke="currentColor" stroke-linecap="round" stroke-width="2"/>
</svg>
