<svg xmlns="http://www.w3.org/2000/svg" width="20" height="20" viewBox="0 0 20 20" fill="none">
  <path d="M8.7607 7.085L6.2451 12.917" stroke="currentColor" stroke-linecap="round" stroke-linejoin="round" stroke-width="2"/>
  <path d="M10.753 2.4805C8.7678 1.6261 6.5407 2.1977 5.1749 3.7404 4.7396 4.232 4.5219 4.4779 4.6139 4.8974 4.7058 5.317 5.0745 5.4756 5.8117 5.7929L11.8521 8.3926C12.5915 8.7108 12.9612 8.8699 13.3227 8.644 13.6843 8.4182 13.7058 8.0873 13.749 7.4256 13.8842 5.3558 12.7368 3.3343 10.753 2.4805Z" stroke="currentColor" stroke-linecap="round" stroke-linejoin="round" stroke-width="2"/>
  <path d="M2.5 13.75C2.5 13.75 3.8465 12.9167 6.25 12.9167 10 12.9167 12.5 15 17.5 15" stroke="currentColor" stroke-linecap="round" stroke-linejoin="round" stroke-width="2"/>
  <path d="M2.5 17.0833H17.5" stroke="currentColor" stroke-linecap="round" stroke-linejoin="round" stroke-width="2"/>
</svg>
