<svg xmlns="http://www.w3.org/2000/svg" width="20" height="20" viewBox="0 0 20 20" fill="none">
  <path d="M3.7499 12.5V5.8333C3.7499 4.262 3.7499 3.4763 4.2381 2.9882 4.7263 2.5 5.5119 2.5 7.0833 2.5H14.3452C15.2118 2.5 15.6452 2.5 15.8417 2.6166 16.198 2.8279 16.345 3.2689 16.1867 3.6517 16.0994 3.8629 15.7528 4.1229 15.0595 4.6429 14.9199 4.7475 14.8502 4.7998 14.7948 4.8618 14.6963 4.9723 14.6289 5.107 14.5997 5.2522 14.5833 5.3336 14.5833 5.4208 14.5833 5.5952V12.5C14.5833 14.857 14.5833 16.0355 13.8511 16.7678 13.1188 17.5 11.9403 17.5 9.5833 17.5H8.7499C6.3929 17.5 5.2144 17.5 4.4822 16.7678 3.7499 16.0355 3.7499 14.857 3.7499 12.5Z" stroke="currentColor" stroke-linecap="round" stroke-linejoin="round" stroke-width="2"/>
  <path d="M3.7499 11.6667H14.5833" stroke="currentColor" stroke-linecap="round" stroke-linejoin="round" stroke-width="2"/>
</svg>
