<svg xmlns="http://www.w3.org/2000/svg" width="20" height="20" viewBox="0 0 20 20" fill="none">
  <path d="M7.7496 7.7496C7.3312 8.168 6.7898 8.4635 6.1875 8.5742 3.7433 9.0231 2.1259 11.3684 2.5748 13.8126 3.0238 16.2567 5.3691 17.8741 7.8132 17.4252 10.253 16.977 12.4319 15.7939 14.1129 14.1129M9.0356 4.8689C9.9357 3.1941 11.842 2.2129 13.8126 2.5748 16.2567 3.0238 17.8741 5.3691 17.4252 7.8132 17.1637 9.2368 16.652 10.5716 15.9371 11.7704" stroke="currentColor" stroke-linecap="round" stroke-linejoin="round" stroke-width="2"/>
  <path d="M9.3112 4.7005C9.9613 5.1221 10.4553 5.7641 10.6873 6.5206M4.7012 9.3105C5.2952 10.2266 6.3268 10.8327 7.5 10.8327 8.4203 10.8327 9.2535 10.4597 9.8567 9.8567" stroke="currentColor" stroke-linecap="round" stroke-linejoin="round" stroke-width="2"/>
  <path d="M2.5 2.5L17.5 17.5" stroke="currentColor" stroke-linecap="round" stroke-linejoin="round" stroke-width="2"/>
</svg>
