<svg xmlns="http://www.w3.org/2000/svg" width="20" height="20" viewBox="0 0 20 20" fill="none">
  <path d="M13.8126 2.5748C11.3684 2.1259 9.0231 3.7433 8.5742 6.1875 8.3528 7.3922 7.3922 8.3528 6.1875 8.5742 3.7433 9.0231 2.1259 11.3684 2.5748 13.8126 3.0238 16.2567 5.3691 17.8741 7.8132 17.4252 12.6927 16.5289 16.5289 12.6927 17.4252 7.8132 17.8741 5.3691 16.2567 3.0238 13.8126 2.5748Z" stroke="currentColor" stroke-linecap="round" stroke-linejoin="round" stroke-width="2"/>
  <path d="M9.3112 4.7005C10.2273 5.2946 10.8333 6.3262 10.8333 7.4993 10.8333 9.3402 9.3409 10.8327 7.5 10.8327 6.3268 10.8327 5.2952 10.2266 4.7012 9.3105" stroke="currentColor" stroke-linecap="round" stroke-linejoin="round" stroke-width="2"/>
</svg>
