<svg xmlns="http://www.w3.org/2000/svg" width="20" height="20" viewBox="0 0 20 20" fill="none">
  <path d="M18.3333 14.5833H1.6667" stroke="currentColor" stroke-linecap="round" stroke-linejoin="round" stroke-width="2"/>
  <path d="M18.3333 17.5V13.3333C18.3333 11.762 18.3333 10.9763 17.8452 10.4882 17.357 10 16.5713 10 15 10H5C3.4286 10 2.643 10 2.1548 10.4882 1.6667 10.9763 1.6667 11.762 1.6667 13.3333V17.5" stroke="currentColor" stroke-linecap="round" stroke-linejoin="round" stroke-width="2"/>
  <path d="M9.1667 10V8.5112C9.1667 8.1939 9.119 8.0878 8.8748 7.9628 8.3663 7.7024 7.7489 7.5 7.0833 7.5 6.4178 7.5 5.8005 7.7024 5.2919 7.9628 5.0477 8.0878 5 8.1939 5 8.5112L5 10" stroke="currentColor" stroke-linecap="round" stroke-width="2"/>
  <path d="M15 10V8.5112C15 8.1939 14.9523 8.0878 14.7081 7.9628 14.1996 7.7024 13.5823 7.5 12.9167 7.5 12.2511 7.5 11.6338 7.7024 11.1253 7.9628 10.881 8.0878 10.8333 8.1939 10.8333 8.5112L10.8333 10" stroke="currentColor" stroke-linecap="round" stroke-width="2"/>
  <path d="M17.5 10V6.1338C17.5 5.5574 17.5 5.2693 17.3399 4.9971 17.1798 4.725 16.9517 4.5841 16.4953 4.3024 14.6558 3.1665 12.4161 2.5 10 2.5 7.5839 2.5 5.3443 3.1665 3.5047 4.3024 3.0484 4.5841 2.8202 4.725 2.6601 4.9971 2.5 5.2693 2.5 5.5574 2.5 6.1338V10" stroke="currentColor" stroke-linecap="round" stroke-width="2"/>
</svg>
