<svg xmlns="http://www.w3.org/2000/svg" width="20" height="20" viewBox="0 0 20 20" fill="none">
  <circle cx="6.666716666666667" cy="8.333333333333334" r="1.6666666666666667" stroke="currentColor" stroke-linecap="round" stroke-linejoin="round" stroke-width="2"/>
  <path d="M1.6667 8.3333C1.6667 11.0948 3.9052 13.3333 6.6667 13.3333 7.5488 13.3333 8.3777 13.1048 9.0972 12.7039 10.9911 11.6484 11.6668 10.8333 15 10 16.8598 9.535 18.3333 8.5076 18.3333 6.6667 18.3333 4.8257 16.8409 3.3333 15 3.3333H6.6667C3.9052 3.3333 1.6667 5.5719 1.6667 8.3333Z" stroke="currentColor" stroke-linecap="round" stroke-linejoin="round" stroke-width="2"/>
  <path d="M1.6668 8.3333L1.6667 11.6667C1.6667 14.4281 3.9052 16.6667 6.6667 16.6667 7.5488 16.6667 8.3777 16.4382 9.0972 16.0373 10.9911 14.9818 11.6668 14.1667 15 13.3333 16.8598 12.8683 18.3333 11.8409 18.3333 10V6.6667" stroke="currentColor" stroke-linecap="round" stroke-linejoin="round" stroke-width="2"/>
</svg>
