<svg xmlns="http://www.w3.org/2000/svg" width="20" height="20" viewBox="0 0 20 20" fill="none">
  <path d="M11.6667 5.8333H12.3591C13.2683 5.8333 13.7228 5.8333 14.0719 6.0059 14.3998 6.168 14.6653 6.4335 14.8274 6.7614 15 7.1106 15 7.5651 15 8.4743 15 9.035 15 9.3154 14.9691 9.592 14.9398 9.854 14.8899 10.1133 14.8198 10.3673 14.7801 10.5112 14.7318 10.6528 14.6633 10.8333" stroke="currentColor" stroke-linecap="round" stroke-linejoin="round" stroke-width="2"/>
  <path d="M5.9281 6.0059C5.6002 6.168 5.3347 6.4335 5.1726 6.7614 5 7.1105 5 7.5651 5 8.4742 5 9.035 5 9.3153 5.0309 9.5919 5.0601 9.8539 5.1101 10.1132 5.1802 10.3673 5.2543 10.6356 5.3584 10.8959 5.5667 11.4166L5.9076 12.2688C6.07 12.6749 6.1512 12.878 6.2212 13.0833 6.4692 13.8112 6.6154 14.5699 6.6554 15.3378 6.6667 15.5545 6.6667 15.7732 6.6667 16.2106 6.6667 16.6344 6.6667 16.8464 6.705 17.022 6.844 17.6587 7.3413 18.156 7.9779 18.2949 8.1536 18.3332 8.3655 18.3332 8.7893 18.3332H11.2107C11.6345 18.3332 11.8464 18.3332 12.0221 18.2949 12.6588 18.156 13.156 17.6587 13.295 17.022 13.3333 16.8464 13.3333 16.6344 13.3333 16.2106 13.3333 15.7732 13.3333 15.5545 13.3446 15.3378 13.3652 14.9441 13.4136 14.5527 13.4893 14.1666" stroke="currentColor" stroke-linecap="round" stroke-linejoin="round" stroke-width="2"/>
  <path d="M11.678 5.8333H14.5948C14.8564 5.4851 15.0113 5.0523 15.0113 4.5833 15.0113 3.4327 14.0787 2.5 12.928 2.5 12.6089 2.5 12.3065 2.5718 12.0362 2.7 11.5818 2.0739 10.8442 1.6667 10.0113 1.6667 9.1786 1.6667 8.4409 2.0739 7.9866 2.7 7.7162 2.5718 7.4138 2.5 7.0947 2.5 6.948 2.5 6.8048 2.5152 6.6666 2.544" stroke="currentColor" stroke-linecap="round" stroke-linejoin="round" stroke-width="2"/>
  <path d="M11.678 5.8333L11.678 7.5" stroke="currentColor" stroke-linecap="round" stroke-linejoin="round" stroke-width="2"/>
  <path d="M1.6667 1.6667L18.3333 18.3333" stroke="currentColor" stroke-linecap="round" stroke-linejoin="round" stroke-width="2"/>
</svg>
