<svg xmlns="http://www.w3.org/2000/svg" width="20" height="20" viewBox="0 0 20 20" fill="none">
  <path d="M2.0833 10C2.0833 6.268 2.0833 4.4021 3.2427 3.2427 4.4021 2.0833 6.268 2.0833 10 2.0833 13.7319 2.0833 15.5979 2.0833 16.7573 3.2427 17.9167 4.4021 17.9167 6.268 17.9167 10 17.9167 13.7319 17.9167 15.5979 16.7573 16.7573 15.5979 17.9167 13.7319 17.9167 10 17.9167 6.268 17.9167 4.4021 17.9167 3.2427 16.7573 2.0833 15.5979 2.0833 13.7319 2.0833 10Z" stroke="currentColor" stroke-linejoin="round" stroke-width="2"/>
  <path d="M5.6257 9.9875V7.5041C5.6257 7.269 5.8187 7.0785 6.0567 7.0785H7.7049C8.0714 7.0785 8.4482 7.1415 8.7213 7.3829 9.0136 7.6411 9.297 8.0411 9.2829 8.5758 9.2666 9.1992 8.8113 9.9362 8.1443 9.9875 7.4773 10.0388 6.8505 9.9875 5.6257 9.9875ZM5.6257 9.9875V12.4729C5.6257 12.708 5.8187 12.8983 6.0567 12.9007 7.0073 12.9098 7.5603 12.9435 8.1443 12.8986 8.8113 12.8472 9.2666 12.1103 9.2829 11.4868 9.297 10.9522 9.0136 10.5522 8.7213 10.2939 8.4482 10.0525 8.0714 9.9894 7.7049 9.9894L5.6257 9.9875ZM13.9962 12.4713C13.631 12.8251 11.8522 13.5244 11.2114 11.6837 11.1448 11.5 11.0918 11.1037 11.1228 10.7975M11.1228 10.7975C11.1755 10.2762 11.4056 9.5449 12.2596 9.2465 13.4826 8.8192 14.2517 10.0054 14.4508 10.7975H11.1228ZM12.1573 7.5008H13.2908" stroke="currentColor" stroke-linecap="round" stroke-linejoin="round" stroke-width="2"/>
</svg>
