<svg xmlns="http://www.w3.org/2000/svg" width="20" height="20" viewBox="0 0 20 20" fill="none">
  <path d="M13.3333 15C13.3333 16.8409 11.8409 18.3333 10 18.3333 8.1591 18.3333 6.6667 16.8409 6.6667 15" stroke="currentColor" stroke-linecap="round" stroke-linejoin="round" stroke-width="2"/>
  <path d="M12.1015 1.9519C11.6747 1.8024 11.2213 1.708 10.75 1.6774 10.5853 1.6667 10.3902 1.6667 10 1.6667 9.6098 1.6667 9.4147 1.6667 9.25 1.6774 6.7248 1.8415 4.7133 3.8359 4.5478 6.3396 4.537 6.503 4.537 6.6964 4.537 7.0833V8.1713C4.537 8.7794 4.537 9.0835 4.5067 9.3783 4.4125 10.295 4.1007 11.1766 3.5967 11.9507 3.4346 12.1997 3.243 12.4372 2.8599 12.912L2.7172 13.0888C2.3351 13.5624 2.1441 13.7992 2.1023 13.9908 2.0213 14.3633 2.2052 14.7427 2.5491 14.9126 2.7261 15 3.032 15 3.6436 15H16.3564C16.968 15 17.2738 15 17.4508 14.9126 17.7948 14.7427 17.9788 14.3633 17.8977 13.9908 17.8559 13.7992 17.6649 13.5624 17.2828 13.0888L17.1402 12.912C16.8248 12.5213 16.6393 12.2912 16.4932 12.0833" stroke="currentColor" stroke-linecap="round" stroke-linejoin="round" stroke-width="2"/>
  <path d="M12.5 6.6666H17.5M14.9958 9.1707L14.9958 4.1707" stroke="currentColor" stroke-linecap="round" stroke-linejoin="round" stroke-width="2"/>
</svg>
