<svg xmlns="http://www.w3.org/2000/svg" width="20" height="20" viewBox="0 0 20 20" fill="none">
  <path d="M13.3333 15C13.3333 16.8409 11.8409 18.3333 10 18.3333 8.1591 18.3333 6.6667 16.8409 6.6667 15" stroke="currentColor" stroke-linecap="round" stroke-linejoin="round" stroke-width="2"/>
  <path d="M6.6667 2.6049C7.4041 2.0748 8.2923 1.7405 9.2559 1.6774 9.4193 1.6667 9.6128 1.6667 9.9996 1.6667 10.3865 1.6667 10.58 1.6667 10.7433 1.6774 13.2471 1.8415 15.2415 3.8359 15.4056 6.3396 15.4163 6.503 15.4163 6.6964 15.4163 7.0833V8.1713C15.4163 8.7794 15.4163 9.0835 15.4463 9.3783 15.5398 10.295 15.8489 11.1766 16.3487 11.9507 16.5094 12.1997 16.6993 12.4372 17.0793 12.912L17.2207 13.0888C17.2923 13.1783 17.3572 13.2594 17.4155 13.3333" stroke="currentColor" stroke-linecap="round" stroke-width="2"/>
  <path d="M15 15H3.6971C3.0907 15 2.7874 15 2.6119 14.9126 2.2709 14.7427 2.0885 14.3633 2.1689 13.9908 2.2103 13.7992 2.3997 13.5624 2.7786 13.0888L2.92 12.912C3.2999 12.4372 3.4898 12.1997 3.6506 11.9507 4.1503 11.1766 4.4595 10.295 4.5529 9.3783 4.583 9.0835 4.583 8.7794 4.583 8.1713V7.0833C4.583 6.6964 4.583 6.503 4.5937 6.3396 4.6243 5.8725 4.7186 5.4231 4.8681 5" stroke="currentColor" stroke-linecap="round" stroke-width="2"/>
  <path d="M1.6667 1.6667L18.3333 18.3333" stroke="currentColor" stroke-linecap="round" stroke-linejoin="round" stroke-width="2"/>
</svg>
