<svg xmlns="http://www.w3.org/2000/svg" width="20" height="20" viewBox="0 0 20 20" fill="none">
  <path d="M15.8333 9.1667V10.6298C15.8333 11.2928 16.0968 11.9288 16.5656 12.3976L17.0682 12.9002C17.3447 13.1768 17.5 13.5517 17.5 13.9426 17.5 14.7567 16.84 15.4167 16.0259 15.4167H3.9741C3.16 15.4167 2.5 14.7567 2.5 13.9426 2.5 13.5517 2.6553 13.1768 2.9317 12.9002L3.4344 12.3976C3.9033 11.9288 4.1667 11.2928 4.1667 10.6298V8.3333C4.1667 5.1117 6.7783 2.5 10 2.5" stroke="currentColor" stroke-linecap="round" stroke-linejoin="round" stroke-width="2"/>
  <path d="M12.9167 15.4167C12.9167 17.0275 11.6108 18.3333 10 18.3333 8.3892 18.3333 7.0833 17.0275 7.0833 15.4167" stroke="currentColor" stroke-linecap="round" stroke-linejoin="round" stroke-width="2"/>
  <path d="M17.5 4.1667C17.5 2.786 16.3807 1.6667 15 1.6667 13.6193 1.6667 12.5 2.786 12.5 4.1667 12.5 5.5474 13.6193 6.6667 15 6.6667 16.3807 6.6667 17.5 5.5474 17.5 4.1667Z" stroke="currentColor" stroke-linecap="round" stroke-linejoin="round" stroke-width="2"/>
</svg>
