<svg xmlns="http://www.w3.org/2000/svg" width="20" height="20" viewBox="0 0 20 20" fill="none">
  <path d="M13.3333 6.6667H18.3333M13.3333 13.3333L18.3333 13.3333" stroke="currentColor" stroke-linecap="round" stroke-linejoin="round" stroke-width="2"/>
  <path d="M5 13.3333C5 14.1099 5 14.4982 5.1269 14.8045 5.296 15.2128 5.6205 15.5373 6.0289 15.7065 6.3351 15.8333 6.7234 15.8333 7.5 15.8333H7.7778C9.8547 15.8333 10.8932 15.8333 11.6667 15.3867 12.1734 15.0942 12.5942 14.6734 12.8868 14.1667 13.3333 13.3932 13.3333 12.3547 13.3333 10.2777V9.7223C13.3333 7.6453 13.3333 6.6068 12.8868 5.8333 12.5942 5.3266 12.1734 4.9058 11.6667 4.6132 10.8932 4.1667 9.8547 4.1667 7.7778 4.1667H7.5C6.7234 4.1667 6.3351 4.1667 6.0289 4.2935 5.6205 4.4627 5.296 4.7872 5.1269 5.1955 5 5.5018 5 5.8901 5 6.6667" stroke="currentColor" stroke-linecap="round" stroke-linejoin="round" stroke-width="2"/>
  <path d="M1.6667 13.3333H7.5C8.6785 13.3333 9.2677 13.3333 9.6339 12.9673 10 12.6011 10 12.0118 10 10.8333V9.1667C10 7.9882 10 7.3989 9.6339 7.0328 9.2677 6.6667 8.6785 6.6667 7.5 6.6667H1.6667" stroke="currentColor" stroke-linecap="round" stroke-linejoin="round" stroke-width="2"/>
  <path d="M7.5 10H11.25" stroke="currentColor" stroke-linecap="round" stroke-linejoin="round" stroke-width="2"/>
  <path d="M16.7725 10H16.6683M16.8767 10C16.8767 10.1151 16.7833 10.2083 16.6683 10.2083 16.5533 10.2083 16.46 10.1151 16.46 10 16.46 9.8849 16.5533 9.7917 16.6683 9.7917 16.7833 9.7917 16.8767 9.8849 16.8767 10Z" stroke="currentColor" stroke-linecap="round" stroke-linejoin="round" stroke-width="2"/>
  <path d="M3.4391 10H3.335M3.5433 10C3.5433 10.1151 3.45 10.2083 3.335 10.2083 3.2199 10.2083 3.1266 10.1151 3.1266 10 3.1266 9.8849 3.2199 9.7917 3.335 9.7917 3.45 9.7917 3.5433 9.8849 3.5433 10Z" stroke="currentColor" stroke-linecap="round" stroke-linejoin="round" stroke-width="2"/>
</svg>
