<svg xmlns="http://www.w3.org/2000/svg" width="20" height="20" viewBox="0 0 20 20" fill="none">
  <path d="M1.6667 4.4167H7.5M12.5 4.4167H18.3333M18.3333 8.0833H13.6997C12.7591 8.0833 12.2888 8.0833 12.0388 7.7478 11.7887 7.4123 11.8809 6.905 12.0653 5.8905L12.1013 5.6929C12.2858 4.6783 12.378 4.171 12.1279 3.8355 11.8779 3.5 11.4076 3.5 10.467 3.5H9.533C8.5924 3.5 8.1221 3.5 7.8721 3.8355 7.622 4.171 7.7142 4.6783 7.8987 5.6929L7.9346 5.8905C8.1191 6.905 8.2113 7.4123 7.9613 7.7478 7.7112 8.0833 7.2409 8.0833 6.3003 8.0833H1.6667M11.25 3.5C11.25 3.0417 11.4167 2.0333 12.0833 1.6667M8.75 3.5C8.75 3.0417 8.5833 2.0333 7.9167 1.6667M2.5 4.4167V18.3333M17.5 4.4167V18.3333M15 8.0833V18.3333M12.5 18.3333V8.0833H7.5V18.3333M5 8.0833V18.3333M1.6667 18.3333H18.3333" stroke="currentColor" stroke-linecap="round" stroke-linejoin="round" stroke-width="2"/>
</svg>
