<svg xmlns="http://www.w3.org/2000/svg" width="20" height="20" viewBox="0 0 20 20" fill="none">
  <path d="M12.5 16.6667H7.5C6.7234 16.6667 6.3351 16.6667 6.0289 16.5398 5.6205 16.3707 5.296 16.0462 5.1269 15.6378 5 15.3315 5 14.9432 5 14.1667 5 13.3901 5 13.0018 5.1269 12.6955 5.296 12.2872 5.6205 11.9627 6.0289 11.7935 6.3351 11.6667 6.7234 11.6667 7.5 11.6667H12.5C13.2766 11.6667 13.6648 11.6667 13.9712 11.7935 14.3795 11.9627 14.704 12.2872 14.8732 12.6955 15 13.0018 15 13.3901 15 14.1667 15 14.9432 15 15.3315 14.8732 15.6378 14.704 16.0462 14.3795 16.3707 13.9712 16.5398 13.6648 16.6667 13.2766 16.6667 12.5 16.6667Z" stroke="currentColor" stroke-linecap="round" stroke-linejoin="round" stroke-width="2"/>
  <path d="M12.5 8.3333H7.5C6.7234 8.3333 6.3351 8.3333 6.0289 8.2065 5.6205 8.0373 5.296 7.7129 5.1269 7.3045 5 6.9982 5 6.6099 5 5.8333 5 5.0568 5 4.6685 5.1269 4.3622 5.296 3.9538 5.6205 3.6294 6.0289 3.4602 6.3351 3.3333 6.7234 3.3333 7.5 3.3333H12.5C13.2766 3.3333 13.6648 3.3333 13.9712 3.4602 14.3795 3.6294 14.704 3.9538 14.8732 4.3622 15 4.6685 15 5.0568 15 5.8333 15 6.6099 15 6.9982 14.8732 7.3045 14.704 7.7129 14.3795 8.0373 13.9712 8.2065 13.6648 8.3333 13.2766 8.3333 12.5 8.3333Z" stroke="currentColor" stroke-linecap="round" stroke-linejoin="round" stroke-width="2"/>
  <path d="M18.3333 11.6667C18.3333 11.6667 16.6667 10.4392 16.6667 10 16.6667 9.5608 18.3333 8.3333 18.3333 8.3333" stroke="currentColor" stroke-linecap="round" stroke-linejoin="round" stroke-width="2"/>
  <path d="M1.6667 11.6667C1.6667 11.6667 3.3333 10.4392 3.3333 10 3.3333 9.5608 1.6667 8.3333 1.6667 8.3333" stroke="currentColor" stroke-linecap="round" stroke-linejoin="round" stroke-width="2"/>
</svg>
