<svg xmlns="http://www.w3.org/2000/svg" width="20" height="20" viewBox="0 0 20 20" fill="none">
  <path d="M15.4167 2.5H9.5833C8.8078 2.5 8.42 2.5 8.1062 2.602 7.472 2.808 6.9747 3.3053 6.7686 3.9396 6.6667 4.2534 6.6667 4.6411 6.6667 5.4167 6.6667 6.1922 6.6667 6.58 6.7686 6.8938 6.9747 7.528 7.472 8.0253 8.1062 8.2314 8.42 8.3333 8.8078 8.3333 9.5833 8.3333H15.4167C16.1922 8.3333 16.58 8.3333 16.8938 8.2314 17.528 8.0253 18.0252 7.528 18.2313 6.8938 18.3333 6.58 18.3333 6.1922 18.3333 5.4167 18.3333 4.6411 18.3333 4.2534 18.2313 3.9396 18.0252 3.3053 17.528 2.808 16.8938 2.602 16.58 2.5 16.1922 2.5 15.4167 2.5Z" stroke="currentColor" stroke-linecap="round" stroke-linejoin="round" stroke-width="2"/>
  <path d="M15.4167 11.6667H9.5833C8.8078 11.6667 8.42 11.6667 8.1062 11.7687 7.472 11.9748 6.9747 12.472 6.7686 13.1062 6.6667 13.42 6.6667 13.8078 6.6667 14.5833 6.6667 15.3588 6.6667 15.7467 6.7686 16.0604 6.9747 16.6947 7.472 17.1919 8.1062 17.398 8.42 17.5 8.8078 17.5 9.5833 17.5H15.4167C16.1922 17.5 16.58 17.5 16.8938 17.398 17.528 17.1919 18.0252 16.6947 18.2313 16.0604 18.3333 15.7467 18.3333 15.3588 18.3333 14.5833 18.3333 13.8078 18.3333 13.42 18.2313 13.1062 18.0252 12.472 17.528 11.9748 16.8938 11.7687 16.58 11.6667 16.1922 11.6667 15.4167 11.6667Z" stroke="currentColor" stroke-linecap="round" stroke-linejoin="round" stroke-width="2"/>
  <path d="M1.6667 12.5C1.6667 12.5 4.1667 10.6587 4.1667 10 4.1667 9.3412 1.6667 7.5 1.6667 7.5" stroke="currentColor" stroke-linecap="round" stroke-linejoin="round" stroke-width="2"/>
</svg>
