<svg xmlns="http://www.w3.org/2000/svg" width="20" height="20" viewBox="0 0 20 20" fill="none">
  <path d="M6.3305 12.7827C7.9406 11.0576 9.8851 11.0832 11.2033 11.4326 11.8438 11.6023 12.1641 11.6873 12.3079 11.6752 12.4518 11.6631 12.8415 11.4857 13.621 11.1311 14.0412 10.9398 14.5082 10.8333 15 10.8333 16.8409 10.8333 18.3333 12.3258 18.3333 14.1667 18.3333 15.8333 16.6667 17.5 13.75 17.5 12.1788 17.5 8.1298 17.5 4.1276 16.4638 2.7974 16.1194 1.6667 15.124 1.6667 13.75 1.6667 12.2408 3.5317 8.6593 5.0438 5.7988 5.6356 4.6792 5.9315 4.1195 6.3611 3.7278 6.4818 3.6178 6.6001 3.5245 6.7353 3.4327 7.2164 3.1064 7.8193 2.9519 9.0252 2.643L9.3742 2.5536C9.5131 2.518 9.6558 2.5 9.7993 2.5 10.6364 2.5 11.3508 3.1053 11.4885 3.931L11.651 4.9058C11.6614 4.9685 11.6667 5.032 11.6667 5.0955 11.6667 5.7331 11.1498 6.25 10.5122 6.25H10.4167L9.3291 6.0687C8.6448 5.9547 8.3025 5.8976 8.0265 6.0851 7.7504 6.2726 7.6826 6.5871 7.547 7.2161 7.1932 8.8562 7.093 10.5398 7.093 11.6223" stroke="currentColor" stroke-linecap="round" stroke-linejoin="round" stroke-width="2"/>
</svg>
