<svg xmlns="http://www.w3.org/2000/svg" width="20" height="20" viewBox="0 0 20 20" fill="none">
  <path d="M1.6667 5C1.6667 4.2143 1.6667 3.8215 1.9107 3.5774 2.1548 3.3333 2.5477 3.3333 3.3333 3.3333 4.119 3.3333 4.5118 3.3333 4.7559 3.5774 5 3.8215 5 4.2143 5 5V6.6667C5 7.4523 5 7.8452 4.7559 8.0893 4.5118 8.3333 4.119 8.3333 3.3333 8.3333 2.5477 8.3333 2.1548 8.3333 1.9107 8.0893 1.6667 7.8452 1.6667 7.4523 1.6667 6.6667V5Z" stroke="currentColor" stroke-width="2"/>
  <path d="M5.4167 13.3333C5.4167 12.5477 5.4167 12.1548 5.6607 11.9108 5.9048 11.6667 6.2977 11.6667 7.0833 11.6667 7.869 11.6667 8.2618 11.6667 8.5059 11.9108 8.75 12.1548 8.75 12.5477 8.75 13.3333V15C8.75 15.7857 8.75 16.1785 8.5059 16.4226 8.2618 16.6667 7.869 16.6667 7.0833 16.6667 6.2977 16.6667 5.9048 16.6667 5.6607 16.4226 5.4167 16.1785 5.4167 15.7857 5.4167 15V13.3333Z" stroke="currentColor" stroke-width="2"/>
  <path d="M11.25 5C11.25 4.2143 11.25 3.8215 11.4941 3.5774 11.7382 3.3333 12.131 3.3333 12.9167 3.3333 13.7023 3.3333 14.0952 3.3333 14.3393 3.5774 14.5833 3.8215 14.5833 4.2143 14.5833 5V6.6667C14.5833 7.4523 14.5833 7.8452 14.3393 8.0893 14.0952 8.3333 13.7023 8.3333 12.9167 8.3333 12.131 8.3333 11.7382 8.3333 11.4941 8.0893 11.25 7.8452 11.25 7.4523 11.25 6.6667V5Z" stroke="currentColor" stroke-width="2"/>
  <path d="M11.25 13.3333C11.25 12.5477 11.25 12.1548 11.4941 11.9108 11.7382 11.6667 12.131 11.6667 12.9167 11.6667 13.7023 11.6667 14.0952 11.6667 14.3393 11.9108 14.5833 12.1548 14.5833 12.5477 14.5833 13.3333V15C14.5833 15.7857 14.5833 16.1785 14.3393 16.4226 14.0952 16.6667 13.7023 16.6667 12.9167 16.6667 12.131 16.6667 11.7382 16.6667 11.4941 16.4226 11.25 16.1785 11.25 15.7857 11.25 15V13.3333Z" stroke="currentColor" stroke-width="2"/>
  <path d="M7.5 4.1667L8.75 3.3333V8.3333" stroke="currentColor" stroke-linecap="round" stroke-linejoin="round" stroke-width="2"/>
  <path d="M1.6667 12.5L2.9167 11.6667V16.6667" stroke="currentColor" stroke-linecap="round" stroke-linejoin="round" stroke-width="2"/>
  <path d="M17.0833 4.1667L18.3333 3.3333V8.3333" stroke="currentColor" stroke-linecap="round" stroke-linejoin="round" stroke-width="2"/>
  <path d="M17.0833 12.5L18.3333 11.6667V16.6667" stroke="currentColor" stroke-linecap="round" stroke-linejoin="round" stroke-width="2"/>
</svg>
