<svg xmlns="http://www.w3.org/2000/svg" width="20" height="20" viewBox="0 0 20 20" fill="none">
  <path d="M3.3333 15.3921V2.7679C3.3333 2.1482 3.3333 1.8383 3.5309 1.7131 3.7286 1.5879 3.9988 1.7264 4.5393 2.0036L6.206 2.8581C6.4301 2.973 6.5422 3.0305 6.6044 3.1337 6.6667 3.2369 6.6667 3.3654 6.6667 3.6224V12.7305C6.6667 13.3854 6.6667 13.7128 6.8742 13.8363 7.0817 13.9598 7.359 13.7973 7.9135 13.4725L11.8527 11.1643C12.131 11.0012 12.2702 10.9196 12.2595 10.8093 12.2488 10.6991 12.0968 10.6472 11.7928 10.5432L10.434 10.0788C10.2218 10.0063 10.1157 9.9699 10.043 9.8896 9.9704 9.8092 9.9433 9.6979 9.8891 9.4753L9.5137 7.9356C9.3592 7.3023 9.2821 6.9857 9.4536 6.8143 9.6252 6.6429 9.9318 6.7303 10.5452 6.905L15.4461 8.301C16.0332 8.4682 16.3269 8.5518 16.4967 8.7811 16.6667 9.0103 16.6667 9.3228 16.6667 9.9477V11.5687C16.6667 12.0502 16.6667 12.2909 16.555 12.4893 16.4434 12.6875 16.24 12.8079 15.8333 13.0487L7.534 17.9622C7.1115 18.2123 6.9002 18.3374 6.6691 18.3332 6.438 18.3291 6.2311 18.1965 5.8174 17.9313L4.1167 16.8413C3.7337 16.5959 3.5423 16.4733 3.4378 16.2799 3.3333 16.0867 3.3333 15.8552 3.3333 15.3921Z" stroke="currentColor" stroke-linecap="round" stroke-linejoin="round" stroke-width="2"/>
</svg>
