<svg xmlns="http://www.w3.org/2000/svg" width="20" height="20" viewBox="0 0 20 20" fill="none">
  <path d="M18.2126 12.9167L15.7748 4.6722C15.5404 3.8788 14.8038 3.3333 13.9668 3.3333 12.8958 3.3333 12.0404 4.2138 12.085 5.2703L12.5 13.3333M18.3333 13.75C18.3333 15.3608 17.0275 16.6667 15.4167 16.6667 13.8058 16.6667 12.5 15.3608 12.5 13.75 12.5 12.1392 13.8058 10.8333 15.4167 10.8333 17.0275 10.8333 18.3333 12.1392 18.3333 13.75Z" stroke="currentColor" stroke-linecap="round" stroke-linejoin="round" stroke-width="2"/>
  <path d="M8.3333 6.6667H11.6667M7.5 13.3333H12.5" stroke="currentColor" stroke-linecap="round" stroke-linejoin="round" stroke-width="2"/>
  <path d="M1.7875 12.9167L4.2256 4.6722C4.4599 3.8788 5.1966 3.3333 6.0336 3.3333 7.1045 3.3333 7.96 4.2138 7.9154 5.2703L7.5004 13.3333M7.5 13.75C7.5 15.3608 6.1942 16.6667 4.5833 16.6667 2.9725 16.6667 1.6667 15.3608 1.6667 13.75 1.6667 12.1392 2.9725 10.8333 4.5833 10.8333 6.1942 10.8333 7.5 12.1392 7.5 13.75Z" stroke="currentColor" stroke-linecap="round" stroke-linejoin="round" stroke-width="2"/>
</svg>
