<svg xmlns="http://www.w3.org/2000/svg" width="20" height="20" viewBox="0 0 20 20" fill="none">
  <path d="M6.2641 10H3.2478C2.8906 10 2.7119 10 2.6015 10.1143 2.4911 10.2285 2.4954 10.4048 2.5039 10.7576 2.5125 11.1167 2.5331 11.4743 2.5819 11.8313 2.6021 11.9787 2.6122 12.0523 2.6606 12.0902 2.709 12.128 2.7967 12.1178 2.9723 12.0973 3.9453 11.9834 4.8847 12.7772 4.8847 13.8199 4.8847 14.3395 4.6606 14.8058 4.3053 15.1241 4.1754 15.2404 4.1104 15.2987 4.1058 15.3598 4.1012 15.4208 4.148 15.4779 4.2418 15.5922 4.5818 16.0063 4.9641 16.3831 5.3819 16.7158 5.481 16.7948 5.5305 16.8343 5.585 16.8327 5.6394 16.8311 5.695 16.7813 5.8062 16.6819 6.1064 16.4135 6.4999 16.2508 6.9308 16.2508 7.8549 16.2508 8.5947 17.0244 8.6338 17.9212 8.6403 18.07 8.6436 18.1443 8.6797 18.1848 8.7157 18.2253 8.7775 18.2344 8.901 18.2529 9.6184 18.3602 10.3816 18.3602 11.099 18.2529 11.2225 18.2344 11.2843 18.2253 11.3203 18.1848 11.3564 18.1443 11.3597 18.07 11.3662 17.9212 11.4053 17.0244 12.1451 16.2508 13.0692 16.2508 13.5001 16.2508 13.8937 16.4135 14.1938 16.6819 14.305 16.7813 14.3606 16.8311 14.415 16.8327 14.4695 16.8343 14.519 16.7948 14.6181 16.7158 15.0359 16.3831 15.4182 16.0063 15.7582 15.5922 15.852 15.4779 15.8988 15.4208 15.8943 15.3598 15.8896 15.2987 15.8246 15.2404 15.6947 15.1241 15.3394 14.8058 15.1153 14.3395 15.1153 13.8199 15.1153 12.7772 16.0547 11.9834 17.0278 12.0973 17.2033 12.1178 17.2911 12.128 17.3394 12.0902 17.3878 12.0523 17.3979 11.9787 17.4181 11.8313 17.4669 11.4743 17.4875 11.1167 17.4962 10.7576 17.5047 10.4048 17.5089 10.2285 17.3985 10.1143 17.2881 10 17.1094 10 16.7522 10H13.7359C13.5636 11.9469 11.9568 13.4726 10 13.4726 8.0432 13.4726 6.4364 11.9469 6.2641 10Z" stroke="currentColor" stroke-linecap="round" stroke-linejoin="round" stroke-width="2"/>
  <path d="M5.8333 10H14.1667" stroke="currentColor" stroke-linecap="round" stroke-linejoin="round" stroke-width="2"/>
  <path d="M10 10L10 5" stroke="currentColor" stroke-linecap="round" stroke-linejoin="round" stroke-width="2"/>
  <path d="M9.7843 6.451C10.2416 5.1694 9.9727 3.7023 8.9685 2.6982 7.9643 1.694 6.4972 1.425 5.2157 1.8823 4.7584 3.1639 5.0274 4.631 6.0315 5.6352 7.0357 6.6393 8.5028 6.9083 9.7843 6.451Z" stroke="currentColor" stroke-linecap="round" stroke-linejoin="round" stroke-width="2"/>
  <path d="M10.1798 8.1536C9.7987 7.0856 10.0228 5.863 10.8596 5.0263 11.6963 4.1895 12.919 3.9653 13.9869 4.3464 14.368 5.4144 14.1438 6.637 13.3071 7.4738 12.4703 8.3105 11.2477 8.5347 10.1798 8.1536Z" stroke="currentColor" stroke-linecap="round" stroke-linejoin="round" stroke-width="2"/>
</svg>
