<svg xmlns="http://www.w3.org/2000/svg" width="20" height="20" viewBox="0 0 20 20" fill="none">
  <path d="M11.5551 10.1058C11.5551 11.0263 10.8089 11.7725 9.8884 11.7725 8.9679 11.7725 8.2218 11.0263 8.2218 10.1058 8.2218 9.1853 8.9679 8.4392 9.8884 8.4392 10.8089 8.4392 11.5551 9.1853 11.5551 10.1058Z" stroke="currentColor" stroke-linecap="round" stroke-linejoin="round" stroke-width="2"/>
  <path d="M1.7955 11.9902C2.2548 10.1883 3.8884 8.8558 5.8334 8.8558 6.7494 8.8558 7.5964 9.1514 8.2842 9.6524M4.8464 17.0716C5.1628 17.1484 5.4933 17.1892 5.8334 17.1892 8.1345 17.1892 10 15.3237 10 13.0225 10 12.5863 9.933 12.1658 9.8087 11.7706" stroke="currentColor" stroke-linecap="round" stroke-linejoin="round" stroke-width="2"/>
  <path d="M18.2045 11.9902C17.7453 10.1883 16.1116 8.8558 14.1667 8.8558 13.1648 8.8558 12.2456 9.2094 11.5268 9.7986M15.1537 17.0716C14.8373 17.1484 14.5068 17.1892 14.1667 17.1892 11.8655 17.1892 10 15.3237 10 13.0225 10 12.5762 10.0702 12.1464 10.2 11.7434" stroke="currentColor" stroke-linecap="round" stroke-linejoin="round" stroke-width="2"/>
  <path d="M13.1634 2.8109C13.7888 3.5397 14.1667 4.4871 14.1667 5.5228 14.1667 7.3262 13.0209 8.8621 11.4176 9.4422M6.8366 2.8109C6.2112 3.5397 5.8334 4.4871 5.8334 5.5228 5.8334 7.2546 6.8899 8.7396 8.3935 9.3685" stroke="currentColor" stroke-linecap="round" stroke-linejoin="round" stroke-width="2"/>
  <path d="M14.8428 12.5351C14.6047 13.0088 14.2992 13.4427 13.9388 13.8242M6.0614 13.8242C5.701 13.4427 5.3955 13.0088 5.1574 12.5351M9.1691 4.7525C9.44 4.7108 9.7175 4.6891 10.0001 4.6891 10.2827 4.6891 10.5602 4.7108 10.8311 4.7525" stroke="currentColor" stroke-linecap="round" stroke-linejoin="round" stroke-width="2"/>
</svg>
