<svg xmlns="http://www.w3.org/2000/svg" width="20" height="20" viewBox="0 0 20 20" fill="none">
  <path d="M3.5565 15.7039C3.7439 17.0958 4.8968 18.1863 6.2997 18.2508 7.4802 18.305 8.6794 18.3333 10 18.3333 11.3206 18.3333 12.5198 18.305 13.7003 18.2508 15.1032 18.1863 16.2561 17.0958 16.4435 15.7039 16.5658 14.7956 16.6667 13.8647 16.6667 12.9167 16.6667 11.9687 16.5658 11.0378 16.4435 10.1294 16.2561 8.7375 15.1032 7.6471 13.7003 7.5826 12.5198 7.5283 11.3206 7.5 10 7.5 8.6794 7.5 7.4802 7.5283 6.2997 7.5826 4.8968 7.6471 3.7439 8.7375 3.5565 10.1294 3.4342 11.0378 3.3333 11.9687 3.3333 12.9167 3.3333 13.8647 3.4342 14.7956 3.5565 15.7039Z" stroke="currentColor" stroke-width="2"/>
  <path d="M6.25 7.5V5.4167C6.25 3.3456 7.9289 1.6667 10 1.6667 12.0711 1.6667 13.75 3.3456 13.75 5.4167V7.5" stroke="currentColor" stroke-linecap="round" stroke-linejoin="round" stroke-width="2"/>
  <path d="M6.6667 14.5833V13.3333C6.6667 11.4924 8.1591 10 10 10 11.8409 10 13.3333 11.4924 13.3333 13.3333V14.5833" stroke="currentColor" stroke-linecap="round" stroke-width="2"/>
  <path d="M8.75 15.8333V13.3333C8.75 12.643 9.3097 12.0833 10 12.0833 10.6903 12.0833 11.25 12.643 11.25 13.3333M11.25 15.8333V15" stroke="currentColor" stroke-linecap="round" stroke-width="2"/>
</svg>
