<svg xmlns="http://www.w3.org/2000/svg" width="20" height="20" viewBox="0 0 20 20" fill="none">
  <path d="M16.6667 12.0822C16.6667 15.5346 13.6819 18.3333 10 18.3333 6.3181 18.3333 3.3333 15.5346 3.3333 12.0822L3.3333 11.8995C3.3333 11.2876 3.3333 10.9817 3.5447 10.8694 4.0028 10.6263 5 11.6667 5 11.6667" stroke="currentColor" stroke-linecap="round" stroke-linejoin="round" stroke-width="2"/>
  <path d="M3.3333 7.9178C3.3333 4.4654 6.3181 1.6667 10 1.6667 13.6819 1.6667 16.6667 4.4654 16.6667 7.9178V8.1005C16.6667 8.7124 16.6667 9.0183 16.4553 9.1306 15.9972 9.3738 15 8.3333 15 8.3333" stroke="currentColor" stroke-linecap="round" stroke-linejoin="round" stroke-width="2"/>
  <path d="M9.983 9.3004C9.3834 10.4868 8.9455 12.4107 9.6352 14.5833M9.2859 12.5236C5.7477 10.0066 8.1783 7.1115 10.4666 5.6501 10.7427 5.4738 10.8808 5.3856 11.0416 5.4266 11.2023 5.4676 11.2796 5.6117 11.4341 5.9 12.7186 8.2975 13.6389 12.0744 9.2859 12.5236Z" stroke="currentColor" stroke-linecap="round" stroke-linejoin="round" stroke-width="2"/>
</svg>
