<svg xmlns="http://www.w3.org/2000/svg" width="20" height="20" viewBox="0 0 20 20" fill="none">
  <path d="M11.25 3.75C11.25 4.4404 10.6903 5 10 5 9.3097 5 8.75 4.4404 8.75 3.75 8.75 3.0596 10 1.6667 10 1.6667 10 1.6667 11.25 3.0596 11.25 3.75Z" stroke="currentColor" stroke-linejoin="round" stroke-width="2"/>
  <path d="M10 5V7.5" stroke="currentColor" stroke-linecap="round" stroke-linejoin="round" stroke-width="2"/>
  <path d="M14.7222 11.6667C16.0263 11.6667 17.0833 10.7339 17.0833 9.5833 17.0833 8.4328 16.0263 7.5 14.7222 7.5H5.2778C3.9738 7.5 2.9167 8.4328 2.9167 9.5833 2.9167 10.7339 3.9738 11.6667 5.2778 11.6667 6.4201 11.6667 7.4201 10.9509 7.6389 10 7.8577 10.9509 8.8578 11.6667 10 11.6667 11.1423 11.6667 12.1423 10.9509 12.3611 10 12.5799 10.9509 13.5799 11.6667 14.7222 11.6667Z" stroke="currentColor" stroke-linejoin="round" stroke-width="2"/>
  <path d="M4.1667 11.6667L4.6007 13.8163C5.0378 15.9807 5.2563 17.0628 5.9967 17.6981 6.7372 18.3333 7.7801 18.3333 9.8658 18.3333H10.1342C12.2199 18.3333 13.2628 18.3333 14.0032 17.6981 14.7438 17.0628 14.9622 15.9807 15.3993 13.8163L15.8333 11.6667" stroke="currentColor" stroke-linecap="round" stroke-linejoin="round" stroke-width="2"/>
</svg>
