<svg xmlns="http://www.w3.org/2000/svg" width="20" height="20" viewBox="0 0 20 20" fill="none">
  <path d="M13.3333 10.8333C13.3333 11.5237 13.893 12.0833 14.5833 12.0833 15.2737 12.0833 15.8333 11.5237 15.8333 10.8333 15.8333 10.143 15.2737 9.5833 14.5833 9.5833 13.893 9.5833 13.3333 10.143 13.3333 10.8333Z" stroke="currentColor" stroke-width="2"/>
  <path d="M9.1667 15.8333H13.3333C15.6903 15.8333 16.8688 15.8333 17.6011 15.1011 18.3333 14.3688 18.3333 13.1903 18.3333 10.8333V10C18.3333 7.643 18.3333 6.4645 17.6011 5.7322 17.0667 5.1978 16.2945 5.0534 15 5.0144M8.3333 5H13.3333C13.9701 5 14.5208 5 15 5.0144M1.6667 8.3333C1.6667 5.1906 1.6667 4.4526 2.643 3.4763 3.6193 2.5 5.1906 2.5 8.3333 2.5H12.4856C13.2757 2.5 13.6708 2.5 13.9816 2.6312 14.3816 2.8001 14.6999 3.1184 14.8688 3.5184 15 3.8293 15 4.2243 15 5.0144" stroke="currentColor" stroke-linecap="round" stroke-width="2"/>
  <path d="M2.6042 16.25L2.6042 11.25M4.1667 11.25V10M4.1667 17.5V16.25M2.6042 13.75H5.7292M5.7292 13.75C6.2469 13.75 6.6667 14.1697 6.6667 14.6875V15.3125C6.6667 15.8303 6.2469 16.25 5.7292 16.25H1.6667M5.7292 13.75C6.2469 13.75 6.6667 13.3302 6.6667 12.8125V12.1875C6.6667 11.6698 6.2469 11.25 5.7292 11.25H1.6667" stroke="currentColor" stroke-linecap="round" stroke-linejoin="round" stroke-width="2"/>
</svg>
