<svg xmlns="http://www.w3.org/2000/svg" width="20" height="20" viewBox="0 0 20 20" fill="none">
  <path d="M6.6667 1.6667C4.3655 1.6667 2.5 3.5322 2.5 5.8333 2.5 7.5419 3.5284 9.0103 5 9.6533V16.1458C5 16.3866 5 16.507 5.0328 16.6204 5.039 16.6419 5.0461 16.6631 5.054 16.684 5.0958 16.7944 5.168 16.8908 5.3125 17.0833L6 18C6.1574 18.2098 6.4044 18.3333 6.6667 18.3333 6.929 18.3333 7.176 18.2098 7.3333 18L8.0208 17.0833C8.1653 16.8908 8.2375 16.7944 8.2793 16.684 8.2873 16.6631 8.2943 16.6419 8.3005 16.6204 8.3333 16.507 8.3333 16.3866 8.3333 16.1458V15.8637C8.3333 15.5231 8.3333 15.3528 8.2699 15.1997 8.2065 15.0465 8.086 14.9261 7.8452 14.6852L7.3267 14.1667 7.8452 13.6482C8.086 13.4072 8.2065 13.2868 8.2699 13.1337 8.3333 12.9806 8.3333 12.8102 8.3333 12.4697V9.6533C9.8049 9.0103 10.8333 7.5419 10.8333 5.8333 10.8333 3.5322 8.9678 1.6667 6.6667 1.6667Z" stroke="currentColor" stroke-linecap="round" stroke-linejoin="round" stroke-width="2"/>
  <path d="M13.3333 10.4167H15.8333C16.5237 10.4167 17.0833 10.9763 17.0833 11.6667V12.0833C17.0833 12.7737 16.5237 13.3333 15.8333 13.3333H13.3333M13.3333 10.4167V13.3333M13.3333 10.4167H12.5M13.3333 13.3333H16.25C16.9403 13.3333 17.5 13.893 17.5 14.5833V15C17.5 15.6903 16.9403 16.25 16.25 16.25H13.3333M13.3333 13.3333V16.25M15 10.4167V9.1667M15 16.25V17.5M13.3333 16.25H12.5" stroke="currentColor" stroke-linecap="round" stroke-linejoin="round" stroke-width="2"/>
  <path d="M6.875 5.8333H6.6667M7.0833 5.8333C7.0833 6.0635 6.8968 6.25 6.6667 6.25 6.4366 6.25 6.25 6.0635 6.25 5.8333 6.25 5.6032 6.4366 5.4167 6.6667 5.4167 6.8968 5.4167 7.0833 5.6032 7.0833 5.8333Z" stroke="currentColor" stroke-linecap="round" stroke-linejoin="round" stroke-width="2"/>
</svg>
