<svg xmlns="http://www.w3.org/2000/svg" width="20" height="20" viewBox="0 0 20 20" fill="none">
  <path d="M18.1835 9.5837C18.2817 9.9873 18.3333 10.4052 18.3333 10.833 18.3333 12.5485 17.5039 14.1026 16.1611 15.2319 15.9598 15.4013 15.8333 15.6465 15.8333 15.9096V17.4997C15.8333 17.7298 15.6468 17.9163 15.4167 17.9163H14.3834C14.2476 17.9163 14.1202 17.8501 14.0423 17.7388L13.5052 16.9725C13.4025 16.826 13.218 16.7623 13.0448 16.8069 11.604 17.1773 10.0627 17.1773 8.6219 16.8069 8.4487 16.7623 8.2642 16.826 8.1615 16.9725L7.6244 17.7388C7.5464 17.8501 7.4191 17.9163 7.2832 17.9163H6.25C6.0199 17.9163 5.8333 17.7298 5.8333 17.4997V15.9292C5.8333 15.6552 5.6986 15.3987 5.473 15.2432 4.5774 14.6256 1.6667 13.4175 1.6667 12.1315V10.833C1.6667 10.3399 2.0398 9.9402 2.5 9.9402 3.0055 9.9402 3.4182 9.7438 3.585 9.2214 4.2042 7.2826 5.9137 5.7143 8.1331 5.0003" stroke="currentColor" stroke-linecap="round" stroke-linejoin="round" stroke-width="2"/>
  <path d="M11.6667 3.3337H14.1667C14.857 3.3337 15.4167 3.8933 15.4167 4.5837V5.0003C15.4167 5.6907 14.857 6.2503 14.1667 6.2503H11.6667M11.6667 3.3337V6.2503M11.6667 3.3337H10.8333M11.6667 6.2503H14.5833C15.2737 6.2503 15.8333 6.81 15.8333 7.5003V7.917C15.8333 8.6073 15.2737 9.167 14.5833 9.167H11.6667M11.6667 6.2503V9.167M13.3333 3.3337V2.0837M13.3333 9.167V10.417M11.6667 9.167H10.8333" stroke="currentColor" stroke-linecap="round" stroke-linejoin="round" stroke-width="2"/>
  <path d="M6.7708 9.5837H6.6667M6.875 9.5837C6.875 9.6988 6.7817 9.792 6.6667 9.792 6.5516 9.792 6.4583 9.6988 6.4583 9.5837 6.4583 9.4686 6.5516 9.3753 6.6667 9.3753 6.7817 9.3753 6.875 9.4686 6.875 9.5837Z" stroke="currentColor" stroke-linecap="round" stroke-linejoin="round" stroke-width="2"/>
</svg>
