<svg xmlns="http://www.w3.org/2000/svg" width="20" height="20" viewBox="0 0 20 20" fill="none">
  <path d="M12.9167 18.3333V17.9167C12.9167 16.9962 13.6934 16.2504 14.5186 15.8425 15.3205 15.4462 15.9952 14.7926 16.0804 14.0261L16.25 12.5 17.9167 11.6667 15.8333 8.5417C15.8333 4.7447 12.7553 1.6667 8.9583 1.6667 5.1614 1.6667 2.0833 4.7447 2.0833 8.5417 2.0833 10.8649 3.2357 12.919 5 14.1635M5 14.1635V18.3333M5 14.1635C5.6255 14.6048 6.328 14.9443 7.0833 15.1579" stroke="currentColor" stroke-linecap="round" stroke-linejoin="round" stroke-width="2"/>
  <path d="M7.4479 10.5556L7.4479 6.1111M8.75 6.1111V5M8.75 11.6667V10.5556M7.4479 8.3333H10.0521M10.0521 8.3333C10.4836 8.3333 10.8333 8.7064 10.8333 9.1667V9.7223C10.8333 10.1825 10.4836 10.5556 10.0521 10.5556H6.6667M10.0521 8.3333C10.4836 8.3333 10.8333 7.9602 10.8333 7.5V6.9444C10.8333 6.4842 10.4836 6.1111 10.0521 6.1111H6.6667" stroke="currentColor" stroke-linecap="round" stroke-linejoin="round" stroke-width="2"/>
</svg>
