<svg xmlns="http://www.w3.org/2000/svg" width="20" height="20" viewBox="0 0 20 20" fill="none">
  <path d="M18.3333 10C18.3333 14.6023 14.6023 18.3333 10 18.3333 5.3976 18.3333 1.6667 14.6023 1.6667 10 1.6667 5.3976 5.3976 1.6667 10 1.6667 14.6023 1.6667 18.3333 5.3976 18.3333 10Z" stroke="currentColor" stroke-width="2"/>
  <path d="M7.5 10H11M7.5 10V7.7469C7.5 7.3541 7.5 7.1577 7.622 7.0356 7.7441 6.9136 7.9405 6.9136 8.3333 6.9136H11C11.8284 6.9136 12.5 7.6045 12.5 8.4567 12.5 9.3091 11.8284 10 11 10M7.5 10V12.2531C7.5 12.6459 7.5 12.8423 7.622 12.9643 7.7441 13.0864 7.9405 13.0864 8.3333 13.0864H11C11.8284 13.0864 12.5 12.3955 12.5 11.5432 12.5 10.6909 11.8284 10 11 10M8.7448 6.9136V5.8333M8.7448 14.1667V13.0864M10.7485 6.9136V5.8333M10.7485 14.1667V13.0864" stroke="currentColor" stroke-linecap="round" stroke-width="2"/>
</svg>
