<svg xmlns="http://www.w3.org/2000/svg" width="20" height="20" viewBox="0 0 20 20" fill="none">
  <path d="M14.5833 14.5833C16.6544 14.5833 18.3333 12.9044 18.3333 10.8333 18.3333 8.7622 16.6544 7.0833 14.5833 7.0833 14.5771 7.0833 14.5708 7.0833 14.5647 7.0834M14.5647 7.0834C14.577 6.9461 14.5833 6.8071 14.5833 6.6667 14.5833 4.1354 12.5313 2.0833 10 2.0833 7.6027 2.0833 5.6353 3.9238 5.4337 6.2689M14.5647 7.0834C14.4794 8.0288 14.1072 8.8913 13.5357 9.5833M5.4337 6.2689C3.32 6.4701 1.6667 8.2503 1.6667 10.4167 1.6667 12.5831 3.32 14.3633 5.4337 14.5644M5.4337 6.2689C5.5652 6.2564 5.6985 6.25 5.8333 6.25 6.7715 6.25 7.6373 6.5601 8.3338 7.0833" stroke="currentColor" stroke-linecap="round" stroke-linejoin="round" stroke-width="2"/>
  <path d="M8.4375 16.6667L8.4375 11.6667M10 11.6667V10.4167M10 17.9167V16.6667M8.4375 14.1667H11.5625M11.5625 14.1667C12.0802 14.1667 12.5 14.5864 12.5 15.1042V15.7292C12.5 16.2469 12.0802 16.6667 11.5625 16.6667H7.5M11.5625 14.1667C12.0802 14.1667 12.5 13.7469 12.5 13.2292V12.6042C12.5 12.0864 12.0802 11.6667 11.5625 11.6667H7.5" stroke="currentColor" stroke-linecap="round" stroke-linejoin="round" stroke-width="2"/>
</svg>
