<svg xmlns="http://www.w3.org/2000/svg" width="20" height="20" viewBox="0 0 20 20" fill="none">
  <path d="M2.0833 10C2.0833 6.268 2.0833 4.4021 3.2427 3.2427 4.4021 2.0833 6.268 2.0833 10 2.0833 13.7319 2.0833 15.5979 2.0833 16.7573 3.2427 17.9167 4.4021 17.9167 6.268 17.9167 10 17.9167 13.7319 17.9167 15.5979 16.7573 16.7573 15.5979 17.9167 13.7319 17.9167 10 17.9167 6.268 17.9167 4.4021 17.9167 3.2427 16.7573 2.0833 15.5979 2.0833 13.7319 2.0833 10Z" stroke="currentColor" stroke-linejoin="round" stroke-width="2"/>
  <path d="M7.9167 13.3333L7.9167 6.6667" stroke="currentColor" stroke-linecap="round" stroke-width="2"/>
  <path d="M9.1667 6.6667V5M11.25 6.6667V5" stroke="currentColor" stroke-linecap="round" stroke-width="2"/>
  <path d="M9.1667 15V13.3333M11.25 15V13.3333" stroke="currentColor" stroke-linecap="round" stroke-width="2"/>
  <path d="M7.9167 10L12.0833 10C12.7737 10 13.3333 10.5597 13.3333 11.25V12.0833C13.3333 12.7737 12.7737 13.3333 12.0833 13.3333H6.6667" stroke="currentColor" stroke-linecap="round" stroke-linejoin="round" stroke-width="2"/>
  <path d="M6.6667 6.6667L12.0833 6.6667C12.7737 6.6667 13.3333 7.2263 13.3333 7.9167V8.75C13.3333 9.4403 12.7737 10 12.0833 10H7.9167" stroke="currentColor" stroke-linecap="round" stroke-linejoin="round" stroke-width="2"/>
</svg>
