<svg xmlns="http://www.w3.org/2000/svg" width="20" height="20" viewBox="0 0 20 20" fill="none">
  <path d="M14.1473 16.25C16.1681 14.9063 17.5 12.6088 17.5 10 17.5 5.8579 14.1422 2.5 10 2.5 9.4272 2.5 8.8693 2.5642 8.3333 2.6859M14.1473 16.25V13.3333M14.1473 16.25H17.0833M5.8333 3.763C3.8234 5.1084 2.5 7.3997 2.5 10 2.5 14.1422 5.8579 17.5 10 17.5 10.5728 17.5 11.1307 17.4357 11.6667 17.3142M5.8333 3.763V6.6667M5.8333 3.763H2.9167" stroke="currentColor" stroke-linecap="round" stroke-linejoin="round" stroke-width="2"/>
  <path d="M8.6979 12.2223L8.6979 7.7778M10 7.7778V6.6667M10 13.3333V12.2223M8.6979 10H11.3021M11.3021 10C11.7336 10 12.0833 10.3731 12.0833 10.8333V11.3889C12.0833 11.8492 11.7336 12.2223 11.3021 12.2223H7.9167M11.3021 10C11.7336 10 12.0833 9.6269 12.0833 9.1667V8.6111C12.0833 8.1509 11.7336 7.7778 11.3021 7.7778H7.9167" stroke="currentColor" stroke-linecap="round" stroke-linejoin="round" stroke-width="2"/>
</svg>
