<svg xmlns="http://www.w3.org/2000/svg" width="20" height="20" viewBox="0 0 20 20" fill="none">
  <path d="M1.6667 4H7.5C8.8808 4 10 5.3431 10 7 10 8.6568 8.8808 10 7.5 10M7.5 10C8.8808 10 10 11.3432 10 13 10 14.6568 8.8808 16 7.5 16H1.6667M7.5 10H2.5M2.3611 4V16M3.75 2.5V4M7.2222 2.5V4M3.75 16V17.5M7.2222 16V17.5" stroke="currentColor" stroke-linecap="round" stroke-width="2"/>
  <path d="M18.3333 10H12.0833M18.3333 10C18.3333 10.5835 16.6714 11.6738 16.25 12.0833M18.3333 10C18.3333 9.4165 16.6714 8.3263 16.25 7.9167" stroke="currentColor" stroke-linecap="round" stroke-linejoin="round" stroke-width="2"/>
</svg>
