<svg xmlns="http://www.w3.org/2000/svg" width="20" height="20" viewBox="0 0 20 20" fill="none">
  <ellipse cx="10" cy="4.166666666666667" rx="6.666666666666667" ry="2.5" stroke="currentColor" stroke-width="2"/>
  <path d="M10 12.5C6.3181 12.5 3.3333 11.3808 3.3333 10" stroke="currentColor" stroke-linecap="round" stroke-width="2"/>
  <path d="M13.2813 17.2222L13.2813 12.7777M14.5833 12.7777V11.6667M14.5833 18.3333V17.2222M13.2813 15H15.8854M15.8854 15C16.3169 15 16.6667 15.3731 16.6667 15.8333V16.3889C16.6667 16.8492 16.3169 17.2222 15.8854 17.2222H12.5M15.8854 15C16.3169 15 16.6667 14.6269 16.6667 14.1667V13.6111C16.6667 13.1508 16.3169 12.7777 15.8854 12.7777H12.5" stroke="currentColor" stroke-linecap="round" stroke-linejoin="round" stroke-width="2"/>
  <path d="M16.6667 10V4.1667M10 18.3333C6.3181 18.3333 3.3333 17.2141 3.3333 15.8333V4.1667" stroke="currentColor" stroke-linecap="round" stroke-linejoin="round" stroke-width="2"/>
</svg>
