<svg xmlns="http://www.w3.org/2000/svg" width="20" height="20" viewBox="0 0 20 20" fill="none">
  <path d="M11.6206 15.1389V10.6944M12.9227 10.6944V9.5833M12.9227 16.25V15.1389M11.6206 12.9167H14.2248M14.2248 12.9167C14.6563 12.9167 15.006 13.2897 15.006 13.75V14.3056C15.006 14.7658 14.6563 15.1389 14.2248 15.1389H10.8393M14.2248 12.9167C14.6563 12.9167 15.006 12.5436 15.006 12.0833V11.5277C15.006 11.0675 14.6563 10.6944 14.2248 10.6944H10.8393" stroke="currentColor" stroke-linecap="round" stroke-linejoin="round" stroke-width="2"/>
  <path d="M12.9187 7.5C9.9283 7.5 7.504 9.9251 7.504 12.9167 7.504 15.9082 9.9283 18.3333 12.9187 18.3333 15.9091 18.3333 18.3334 15.9083 18.3334 12.9167 18.3334 9.9251 15.9091 7.5 12.9187 7.5Z" stroke="currentColor" stroke-linecap="round" stroke-linejoin="round" stroke-width="2"/>
  <path d="M6.6709 5C9.4313 5 11.6691 4.2538 11.6691 3.3333 11.6691 2.4129 9.4313 1.6667 6.6709 1.6667 3.9104 1.6667 1.6727 2.4129 1.6727 3.3333 1.6727 4.2538 3.9104 5 6.6709 5Z" stroke="currentColor" stroke-linecap="round" stroke-width="2"/>
  <path d="M1.6666 3.3333V6.6848 10.0362C1.6666 10.6227 2.6491 11.3607 5.1101 11.6667M1.756 7.1231C2.7602 8.008 4.5506 8.3835 6.4641 8.3835M11.6629 3.4345V5.1133" stroke="currentColor" stroke-linecap="round" stroke-linejoin="round" stroke-width="2"/>
</svg>
