<svg xmlns="http://www.w3.org/2000/svg" width="20" height="20" viewBox="0 0 20 20" fill="none">
  <path d="M5.1953 5.8333C3.8367 5.8333 3.1574 5.8333 2.7733 6.2459 2.3892 6.6584 2.4734 7.2974 2.6419 8.5755 2.6911 8.9488 2.773 9.1607 3.0228 9.4502 3.8297 10.3856 5.3075 12.0493 7.3812 13.562 7.5707 13.7002 7.6951 13.9261 7.7161 14.176 7.7856 15.0045 7.8533 15.7549 7.9173 16.425 8.021 17.5132 8.0729 18.0573 8.4694 18.2633 8.8658 18.4692 9.3611 18.2056 10.3516 17.6784L11.2403 17.2054C11.6073 17.0102 11.7907 16.9125 11.9043 16.7478 12.018 16.5832 12.0412 16.3846 12.0876 15.9876 12.1475 15.4749 12.2108 14.8753 12.2756 14.176 12.2986 13.9283 12.4225 13.705 12.6105 13.568 14.6884 12.0535 16.1692 10.3868 16.9772 9.4502 17.227 9.1607 17.3088 8.9488 17.3581 8.5755 17.5266 7.2974 17.6108 6.6584 17.2267 6.2459 16.8426 5.8333 16.1633 5.8333 14.8048 5.8333" stroke="currentColor" stroke-linecap="round" stroke-linejoin="round" stroke-width="2"/>
  <path d="M8.0208 7.9167L8.0208 2.9167M9.5833 2.9167V1.6667M9.5833 9.1667V7.9167M8.0208 5.4167H11.1458M11.1458 5.4167C11.6636 5.4167 12.0833 5.8364 12.0833 6.3542V6.9792C12.0833 7.4969 11.6636 7.9167 11.1458 7.9167H7.0833M11.1458 5.4167C11.6636 5.4167 12.0833 4.9969 12.0833 4.4792V3.8542C12.0833 3.3364 11.6636 2.9167 11.1458 2.9167H7.0833" stroke="currentColor" stroke-linecap="round" stroke-linejoin="round" stroke-width="2"/>
</svg>
