<svg xmlns="http://www.w3.org/2000/svg" width="20" height="20" viewBox="0 0 20 20" fill="none">
  <path d="M8.4375 12.0834L8.4375 7.0834M10 7.0834V5.8334M10 13.3334V12.0834M8.4375 9.5834H11.5625M11.5625 9.5834C12.0802 9.5834 12.5 10.0032 12.5 10.5209V11.1459C12.5 11.6637 12.0802 12.0834 11.5625 12.0834H7.5M11.5625 9.5834C12.0802 9.5834 12.5 9.1637 12.5 8.6459V8.0209C12.5 7.5032 12.0802 7.0834 11.5625 7.0834H7.5" stroke="currentColor" stroke-linecap="round" stroke-linejoin="round" stroke-width="2"/>
  <path d="M17.5 9.3196V6.9004C17.5 5.5337 17.5 4.8504 17.1633 4.4046 16.8265 3.9587 16.0651 3.7423 14.5423 3.3094 13.5018 3.0137 12.5847 2.6573 11.8519 2.3321 10.8528 1.8886 10.3533 1.6668 10 1.6668 9.6467 1.6668 9.1472 1.8886 8.1481 2.3321 7.4153 2.6573 6.4982 3.0137 5.4578 3.3094 3.9349 3.7423 3.1735 3.9587 2.8368 4.4046 2.5 4.8504 2.5 5.5337 2.5 6.9004V9.3196C2.5 14.0073 6.719 16.8198 8.8283 17.933 9.3343 18.2 9.5872 18.3335 10 18.3335 10.4128 18.3335 10.6658 18.2 11.1717 17.933 13.281 16.8198 17.5 14.0073 17.5 9.3196Z" stroke="currentColor" stroke-linecap="round" stroke-width="2"/>
</svg>
