<svg xmlns="http://www.w3.org/2000/svg" width="20" height="20" viewBox="0 0 20 20" fill="none">
  <path d="M18.3333 9.1667C18.3333 6.2188 18.3333 4.7448 17.456 3.7608 17.3157 3.6034 17.161 3.4578 16.9937 3.3257 15.9482 2.5 14.3822 2.5 11.25 2.5H8.75C5.6178 2.5 4.0518 2.5 3.0062 3.3257 2.839 3.4578 2.6843 3.6034 2.544 3.7608 1.6667 4.7448 1.6667 6.2188 1.6667 9.1667 1.6667 12.1146 1.6667 13.5885 2.544 14.5726 2.6843 14.73 2.839 14.8755 3.0062 15.0076 4.0518 15.8333 5.6178 15.8333 8.75 15.8333H10" stroke="currentColor" stroke-linecap="round" stroke-linejoin="round" stroke-width="2"/>
  <path d="M1.6667 6.6667H18.3333" stroke="currentColor" stroke-linejoin="round" stroke-width="2"/>
  <path d="M13.4375 16.25L13.4375 11.25M15 11.25V10M15 17.5V16.25M13.4375 13.75H16.5625M16.5625 13.75C17.0803 13.75 17.5 14.1697 17.5 14.6875V15.3125C17.5 15.8303 17.0803 16.25 16.5625 16.25H12.5M16.5625 13.75C17.0803 13.75 17.5 13.3302 17.5 12.8125V12.1875C17.5 11.6698 17.0803 11.25 16.5625 11.25H12.5" stroke="currentColor" stroke-linecap="round" stroke-linejoin="round" stroke-width="2"/>
</svg>
