<svg xmlns="http://www.w3.org/2000/svg" width="20" height="20" viewBox="0 0 20 20" fill="none">
  <path d="M5.2214 1.6667H14.7786C15.3291 1.6667 16.2419 1.7481 16.5521 2.6269 16.7367 3.1501 16.6638 3.7371 16.8648 4.2542 17.076 4.7972 17.4073 5.3221 17.7286 5.795 18.047 6.2637 18.4137 6.7695 18.3178 7.3282 18.2097 7.9582 17.7048 8.5512 17.0374 8.8663 15.6712 9.5112 13.6507 9.1223 13.3294 6.788 13.0596 7.5335 12.2332 9.1223 9.9672 9.1223 7.7012 9.1223 6.9404 7.5335 6.6706 6.788 6.3493 9.1223 4.3287 9.5112 2.9626 8.8663 2.2953 8.5512 1.7903 7.9582 1.6822 7.3282 1.5863 6.7695 1.953 6.2637 2.2714 5.795 2.5927 5.3221 2.924 4.7972 3.1352 4.2542 3.3363 3.7371 3.2633 3.1501 3.4479 2.6269 3.7581 1.7481 4.6709 1.6667 5.2214 1.6667Z" stroke="currentColor" stroke-linecap="round" stroke-linejoin="round" stroke-width="2"/>
  <path d="M14.1357 17.2205V12.7689M15.4383 12.7689V11.6561M15.4383 18.3333V17.2205M14.1357 14.9948H16.7408M16.7408 14.9948C17.1725 14.9948 17.5223 15.3684 17.5223 15.8294V16.3858C17.5223 16.8468 17.1725 17.2205 16.7408 17.2205H13.3541M16.7408 14.9948C17.1725 14.9948 17.5223 14.621 17.5223 14.1601V13.6036C17.5223 13.1426 17.1725 12.7689 16.7408 12.7689H13.3541" stroke="currentColor" stroke-linecap="round" stroke-linejoin="round" stroke-width="2"/>
  <path d="M2.5167 8.7345V12.4905C2.5167 14.8513 2.5167 16.0316 3.2492 16.765 3.9817 17.4984 5.1607 17.4984 7.5186 17.4984H10.8532" stroke="currentColor" stroke-linecap="round" stroke-width="2"/>
</svg>
