<svg xmlns="http://www.w3.org/2000/svg" width="20" height="20" viewBox="0 0 20 20" fill="none">
  <path d="M8.7573 18.3333C7.9815 18.3333 7.5936 18.3333 7.2711 18.2693 5.9465 18.0063 4.911 16.9726 4.6475 15.6503 4.5833 15.3283 4.5833 14.9411 4.5833 14.1667V9.5833C4.5833 8.012 4.5833 7.2263 5.0723 6.7382 5.5614 6.25 6.3484 6.25 7.9225 6.25H9.5921C11.1662 6.25 11.9533 6.25 12.4422 6.7382 12.7796 7.0749 12.8842 7.5532 12.9167 8.3333" stroke="currentColor" stroke-linecap="round" stroke-linejoin="round" stroke-width="2"/>
  <path d="M11.3542 17.0833L11.3542 12.0833M12.9167 12.0833V10.8333M12.9167 18.3333V17.0833M11.3542 14.5833H14.4792M14.4792 14.5833C14.9969 14.5833 15.4167 15.0031 15.4167 15.5208V16.1458C15.4167 16.6636 14.9969 17.0833 14.4792 17.0833H10.4167M14.4792 14.5833C14.9969 14.5833 15.4167 14.1636 15.4167 13.6458V13.0208C15.4167 12.5031 14.9969 12.0833 14.4792 12.0833H10.4167" stroke="currentColor" stroke-linecap="round" stroke-linejoin="round" stroke-width="2"/>
  <path d="M11.6667 6.25V4.5833C11.6667 3.4129 11.6667 2.8278 11.3858 2.4074 11.2642 2.2254 11.1079 2.0692 10.9259 1.9476 10.5056 1.6667 9.9204 1.6667 8.75 1.6667 7.5796 1.6667 6.9944 1.6667 6.5741 1.9476 6.3921 2.0692 6.2358 2.2254 6.1142 2.4074 5.8333 2.8278 5.8333 3.4129 5.8333 4.5833V6.25" stroke="currentColor" stroke-linecap="round" stroke-linejoin="round" stroke-width="2"/>
  <path d="M8.3333 3.75H9.1667" stroke="currentColor" stroke-linecap="round" stroke-linejoin="round" stroke-width="2"/>
</svg>
