<svg xmlns="http://www.w3.org/2000/svg" width="20" height="20" viewBox="0 0 20 20" fill="none">
  <path d="M2.0833 10C2.0833 6.268 2.0833 4.4021 3.2427 3.2427 4.4021 2.0833 6.268 2.0833 10 2.0833 13.7319 2.0833 15.5979 2.0833 16.7573 3.2427 17.9167 4.4021 17.9167 6.268 17.9167 10 17.9167 13.7319 17.9167 15.5979 16.7573 16.7573 15.5979 17.9167 13.7319 17.9167 10 17.9167 6.268 17.9167 4.4021 17.9167 3.2427 16.7573 2.0833 15.5979 2.0833 13.7319 2.0833 10Z" stroke="currentColor" stroke-width="2"/>
  <path d="M7.5 10H11M7.5 10V7.7469C7.5 7.3541 7.5 7.1577 7.622 7.0356 7.7441 6.9136 7.9405 6.9136 8.3333 6.9136H11C11.8284 6.9136 12.5 7.6045 12.5 8.4567 12.5 9.3091 11.8284 10 11 10M7.5 10V12.2531C7.5 12.6459 7.5 12.8423 7.622 12.9644 7.7441 13.0864 7.9405 13.0864 8.3333 13.0864H11C11.8284 13.0864 12.5 12.3955 12.5 11.5433 12.5 10.6909 11.8284 10 11 10M8.7448 6.9136V5.8333M8.7448 14.1667V13.0864M10.7485 6.9136V5.8333M10.7485 14.1667V13.0864" stroke="currentColor" stroke-linecap="round" stroke-width="2"/>
</svg>
