<svg xmlns="http://www.w3.org/2000/svg" width="20" height="20" viewBox="0 0 20 20" fill="none">
  <path d="M3.9583 2.2917L5.8333 4.1667 5.8333 5.8333M16.0417 2.2917L14.1667 4.1667 14.1667 5.8333M10 2.2917L10 5M3.9583 2.9167C4.3035 2.9167 4.5833 2.6368 4.5833 2.2917 4.5833 1.9465 4.3035 1.6667 3.9583 1.6667 3.6132 1.6667 3.3333 1.9465 3.3333 2.2917 3.3333 2.6368 3.6132 2.9167 3.9583 2.9167ZM16.0417 2.9167C15.6965 2.9167 15.4167 2.6368 15.4167 2.2917 15.4167 1.9465 15.6965 1.6667 16.0417 1.6667 16.3868 1.6667 16.6667 1.9465 16.6667 2.2917 16.6667 2.6368 16.3868 2.9167 16.0417 2.9167ZM10 2.9167C10.3452 2.9167 10.625 2.6368 10.625 2.2917 10.625 1.9465 10.3452 1.6667 10 1.6667 9.6548 1.6667 9.375 1.9465 9.375 2.2917 9.375 2.6368 9.6548 2.9167 10 2.9167Z" stroke="currentColor" stroke-linecap="round" stroke-linejoin="round" stroke-width="2"/>
  <path d="M8.6979 15.1389L8.6979 10.6944M10 10.6944V9.5833M10 16.25V15.1389M8.6979 12.9167H11.3021M11.3021 12.9167C11.7336 12.9167 12.0833 13.2897 12.0833 13.75V14.3056C12.0833 14.7658 11.7336 15.1389 11.3021 15.1389H7.9167M11.3021 12.9167C11.7336 12.9167 12.0833 12.5436 12.0833 12.0833V11.5277C12.0833 11.0675 11.7336 10.6944 11.3021 10.6944H7.9167" stroke="currentColor" stroke-linecap="round" stroke-linejoin="round" stroke-width="2"/>
  <path d="M10 7.5C15 7.5 18.3333 12.9167 18.3333 12.9167 18.3333 12.9167 15 18.3333 10 18.3333 5 18.3333 1.6667 12.9167 1.6667 12.9167 1.6667 12.9167 5 7.5 10 7.5Z" stroke="currentColor" stroke-linejoin="round" stroke-width="2"/>
</svg>
