<svg xmlns="http://www.w3.org/2000/svg" width="20" height="20" viewBox="0 0 20 20" fill="none">
  <path d="M14.5833 14.5833L18.3333 18.3333" stroke="currentColor" stroke-linecap="round" stroke-linejoin="round" stroke-width="2"/>
  <path d="M16.6667 9.1667C16.6667 5.0245 13.3088 1.6667 9.1667 1.6667 5.0245 1.6667 1.6667 5.0245 1.6667 9.1667 1.6667 13.3088 5.0245 16.6667 9.1667 16.6667 13.3088 16.6667 16.6667 13.3088 16.6667 9.1667Z" stroke="currentColor" stroke-linejoin="round" stroke-width="2"/>
  <path d="M7.6042 11.6667L7.6042 6.6667M9.1667 6.6667V5.4167M9.1667 12.9167V11.6667M7.6042 9.1667H10.7292M10.7292 9.1667C11.2469 9.1667 11.6667 9.5864 11.6667 10.1042V10.7292C11.6667 11.2469 11.2469 11.6667 10.7292 11.6667H6.6667M10.7292 9.1667C11.2469 9.1667 11.6667 8.7469 11.6667 8.2292V7.6042C11.6667 7.0864 11.2469 6.6667 10.7292 6.6667H6.6667" stroke="currentColor" stroke-linecap="round" stroke-linejoin="round" stroke-width="2"/>
</svg>
