<svg xmlns="http://www.w3.org/2000/svg" width="20" height="20" viewBox="0 0 20 20" fill="none">
  <path d="M3.5839 14.326L2.6337 8.5493C2.49 7.6759 2.4182 7.2392 2.6482 6.9529 2.8782 6.6667 3.301 6.6667 4.1466 6.6667H15.8534C16.699 6.6667 17.1217 6.6667 17.3517 6.9529 17.5818 7.2392 17.51 7.6759 17.3663 8.5493L16.4162 14.326C16.1012 16.2407 15.9438 17.198 15.3008 17.7657 14.6578 18.3333 13.7311 18.3333 11.8775 18.3333H8.1225C6.2689 18.3333 5.3421 18.3333 4.6992 17.7657 4.0563 17.198 3.8988 16.2407 3.5839 14.326Z" stroke="currentColor" stroke-width="2"/>
  <path d="M8.6979 14.7222L8.6979 10.2777M10 10.2777V9.1667M10 15.8333V14.7222M8.6979 12.5H11.3021M11.3021 12.5C11.7336 12.5 12.0833 12.8731 12.0833 13.3333V13.8889C12.0833 14.3492 11.7336 14.7222 11.3021 14.7222H7.9167M11.3021 12.5C11.7336 12.5 12.0833 12.1269 12.0833 11.6667V11.1111C12.0833 10.6508 11.7336 10.2777 11.3021 10.2777H7.9167" stroke="currentColor" stroke-linecap="round" stroke-linejoin="round" stroke-width="2"/>
  <path d="M14.1667 6.6667C14.1667 3.9052 12.9167 1.6667 10 1.6667 7.0833 1.6667 5.8333 3.9052 5.8333 6.6667" stroke="currentColor" stroke-width="2"/>
</svg>
