<svg xmlns="http://www.w3.org/2000/svg" width="20" height="20" viewBox="0 0 20 20" fill="none">
  <path d="M8.6979 12.2223L8.6979 7.7778M10 7.7778V6.6667M10 13.3333V12.2223M8.6979 10H11.3021M11.3021 10C11.7336 10 12.0833 10.3731 12.0833 10.8333V11.3889C12.0833 11.8492 11.7336 12.2223 11.3021 12.2223H7.9167M11.3021 10C11.7336 10 12.0833 9.6269 12.0833 9.1667V8.6111C12.0833 8.1509 11.7336 7.7778 11.3021 7.7778H7.9167" stroke="currentColor" stroke-linecap="round" stroke-linejoin="round" stroke-width="2"/>
  <path d="M15.8333 9.285C15.5624 9.2458 15.2842 9.2159 15 9.196M5 10.8048C4.7158 10.785 4.4376 10.7551 4.1667 10.7158" stroke="currentColor" stroke-linecap="round" stroke-linejoin="round" stroke-width="2"/>
  <path d="M10 16.25C8.8896 16.7687 7.4309 17.0833 5.8333 17.0833 4.9451 17.0833 4.0997 16.9861 3.3333 16.8105 2.083 16.5241 1.6667 15.772 1.6667 14.4883V5.5116C1.6667 4.6909 2.5334 4.1273 3.3333 4.3105 4.0997 4.486 4.9451 4.5833 5.8333 4.5833 7.4309 4.5833 8.8896 4.2686 10 3.75 11.1104 3.2314 12.5691 2.9167 14.1667 2.9167 15.0549 2.9167 15.9003 3.014 16.6667 3.1895 17.9848 3.4914 18.3333 4.267 18.3333 5.5116V14.4883C18.3333 15.3091 17.4667 15.8727 16.6667 15.6895 15.9003 15.5139 15.0549 15.4167 14.1667 15.4167 12.5691 15.4167 11.1104 15.7313 10 16.25Z" stroke="currentColor" stroke-width="2"/>
</svg>
