<svg xmlns="http://www.w3.org/2000/svg" width="20" height="20" viewBox="0 0 20 20" fill="none">
  <path d="M9.9999 7.4999C7.0084 7.4999 4.5833 9.925 4.5833 12.9165 4.5833 15.9081 7.0084 18.3332 9.9999 18.3332 12.9915 18.3332 15.4166 15.9081 15.4166 12.9165 15.4166 9.925 12.9915 7.4999 9.9999 7.4999Z" stroke="currentColor" stroke-linecap="round" stroke-linejoin="round" stroke-width="2"/>
  <path d="M16.6667 1.6667L13.3531 4.679C12.7561 5.2218 12.4575 5.4932 12.1058 5.4713 11.7543 5.4494 11.4917 5.1431 10.9666 4.5304L10.5444 4.038C10.0869 3.5042 9.8582 3.2373 9.5451 3.1941 9.2319 3.1509 8.9395 3.3459 8.3545 3.7359L3.3333 7.0833M16.6667 1.6667H13.75M16.6667 1.6667V4.1667" stroke="currentColor" stroke-linecap="round" stroke-linejoin="round" stroke-width="2"/>
  <path d="M8.6978 15.1387L8.6978 10.6943M9.9999 10.6943V9.5832M9.9999 16.2498V15.1387M8.6978 12.9165H11.302M11.302 12.9165C11.7335 12.9165 12.0833 13.2897 12.0833 13.7498V14.3054C12.0833 14.7657 11.7335 15.1387 11.302 15.1387H7.9166M11.302 12.9165C11.7335 12.9165 12.0833 12.5434 12.0833 12.0832V11.5277C12.0833 11.0674 11.7335 10.6943 11.302 10.6943H7.9166" stroke="currentColor" stroke-linecap="round" stroke-linejoin="round" stroke-width="2"/>
</svg>
