<svg xmlns="http://www.w3.org/2000/svg" width="20" height="20" viewBox="0 0 20 20" fill="none">
  <path d="M4.1667 7.5C4.1667 4.7501 4.1667 3.3752 5.0209 2.5209 5.8752 1.6667 7.2501 1.6667 10 1.6667 12.7498 1.6667 14.1248 1.6667 14.9791 2.5209 15.8333 3.3752 15.8333 4.7501 15.8333 7.5V12.5C15.8333 15.2498 15.8333 16.6248 14.9791 17.4791 14.1248 18.3333 12.7498 18.3333 10 18.3333 7.2501 18.3333 5.8752 18.3333 5.0209 17.4791 4.1667 16.6248 4.1667 15.2498 4.1667 12.5V7.5Z" stroke="currentColor" stroke-linecap="round" stroke-width="2"/>
  <path d="M8.3333 5.4167H10.8333C11.5237 5.4167 12.0833 5.9763 12.0833 6.6667V7.0833C12.0833 7.7737 11.5237 8.3333 10.8333 8.3333H8.3333M8.3333 5.4167V8.3333M8.3333 5.4167H7.5M8.3333 8.3333H11.25C11.9403 8.3333 12.5 8.893 12.5 9.5833V10C12.5 10.6903 11.9403 11.25 11.25 11.25H8.3333M8.3333 8.3333V11.25M10 5.4167V4.1667M10 11.25V12.5M8.3333 11.25H7.5" stroke="currentColor" stroke-linecap="round" stroke-linejoin="round" stroke-width="2"/>
  <path d="M10.1042 15.8333H10M10.2083 15.8333C10.2083 15.9484 10.1151 16.0417 10 16.0417 9.8849 16.0417 9.7917 15.9484 9.7917 15.8333 9.7917 15.7182 9.8849 15.625 10 15.625 10.1151 15.625 10.2083 15.7182 10.2083 15.8333Z" stroke="currentColor" stroke-linecap="round" stroke-linejoin="round" stroke-width="2"/>
</svg>
