<svg xmlns="http://www.w3.org/2000/svg" width="20" height="20" viewBox="0 0 20 20" fill="none">
  <path d="M10 6.6665C6.7783 6.6665 4.1667 9.2782 4.1667 12.4998 4.1667 15.7214 6.7783 18.3332 10 18.3332 13.2217 18.3332 15.8333 15.7214 15.8333 12.4998 15.8333 9.2782 13.2217 6.6665 10 6.6665Z" stroke="currentColor" stroke-linecap="round" stroke-linejoin="round" stroke-width="2"/>
  <path d="M10 2.2916V4.5832M9.375 2.2916C9.375 2.6367 9.6548 2.9166 10 2.9166 10.3452 2.9166 10.625 2.6367 10.625 2.2916 10.625 1.9464 10.3452 1.6666 10 1.6666 9.6548 1.6666 9.375 1.9464 9.375 2.2916Z" stroke="currentColor" stroke-linecap="round" stroke-linejoin="round" stroke-width="2"/>
  <path d="M4.7917 2.2916V4.5832L5.8333 5.4166M4.1667 2.2916C4.1667 2.6367 4.4465 2.9166 4.7917 2.9166 5.1368 2.9166 5.4167 2.6367 5.4167 2.2916 5.4167 1.9464 5.1368 1.6666 4.7917 1.6666 4.4465 1.6666 4.1667 1.9464 4.1667 2.2916Z" stroke="currentColor" stroke-linecap="round" stroke-linejoin="round" stroke-width="2"/>
  <path d="M15.2083 2.2916V4.5832L14.1667 5.4166M15.8333 2.2916C15.8333 2.6367 15.5535 2.9166 15.2083 2.9166 14.8632 2.9166 14.5833 2.6367 14.5833 2.2916 14.5833 1.9464 14.8632 1.6666 15.2083 1.6666 15.5535 1.6666 15.8333 1.9464 15.8333 2.2916Z" stroke="currentColor" stroke-linecap="round" stroke-linejoin="round" stroke-width="2"/>
  <path d="M8.6979 14.7222L8.6979 10.2777M10 10.2777V9.1667M10 15.8333V14.7222M8.6979 12.5H11.3021M11.3021 12.5C11.7336 12.5 12.0833 12.8731 12.0833 13.3333V13.8889C12.0833 14.3492 11.7336 14.7222 11.3021 14.7222H7.9167M11.3021 12.5C11.7336 12.5 12.0833 12.1269 12.0833 11.6667V11.1111C12.0833 10.6508 11.7336 10.2777 11.3021 10.2777H7.9167" stroke="currentColor" stroke-linecap="round" stroke-linejoin="round" stroke-width="2"/>
</svg>
