<svg xmlns="http://www.w3.org/2000/svg" width="20" height="20" viewBox="0 0 20 20" fill="none">
  <path d="M9.1666 7.4999C6.1751 7.4999 3.7499 9.925 3.7499 12.9165 3.7499 15.9081 6.1751 18.3332 9.1666 18.3332 12.1582 18.3332 14.5833 15.9081 14.5833 12.9165 14.5833 9.925 12.1582 7.4999 9.1666 7.4999Z" stroke="currentColor" stroke-linecap="round" stroke-linejoin="round" stroke-width="2"/>
  <path d="M16.6667 7.0833L12.843 3.5783C12.2864 3.0681 12.0082 2.813 11.6737 2.8203 11.3391 2.8276 11.0722 3.0945 10.5382 3.6284L9.7336 4.4331C9.2633 4.9033 9.0282 5.1385 8.7273 5.1656 8.4265 5.1927 8.1531 5.0035 7.6064 4.6249L3.3333 1.6667M16.6667 7.0833H13.75M16.6667 7.0833V4.5833" stroke="currentColor" stroke-linecap="round" stroke-linejoin="round" stroke-width="2"/>
  <path d="M7.8645 15.1387L7.8645 10.6943M9.1666 10.6943V9.5832M9.1666 16.2498V15.1387M7.8645 12.9165H10.4687M10.4687 12.9165C10.9002 12.9165 11.2499 13.2897 11.2499 13.7498V14.3054C11.2499 14.7657 10.9002 15.1387 10.4687 15.1387H7.0833M10.4687 12.9165C10.9002 12.9165 11.2499 12.5434 11.2499 12.0832V11.5277C11.2499 11.0674 10.9002 10.6943 10.4687 10.6943H7.0833" stroke="currentColor" stroke-linecap="round" stroke-linejoin="round" stroke-width="2"/>
</svg>
