<svg xmlns="http://www.w3.org/2000/svg" width="20" height="20" viewBox="0 0 20 20" fill="none">
  <path d="M9.2708 15.8333H9.1667M9.375 15.8333C9.375 15.9484 9.2818 16.0417 9.1667 16.0417 9.0516 16.0417 8.9583 15.9484 8.9583 15.8333 8.9583 15.7182 9.0516 15.625 9.1667 15.625 9.2818 15.625 9.375 15.7182 9.375 15.8333Z" stroke="currentColor" stroke-linecap="round" stroke-linejoin="round" stroke-width="2"/>
  <path d="M15 12.5C15 15.2498 15 16.6248 14.1458 17.4791 13.2914 18.3333 11.9165 18.3333 9.1667 18.3333 6.4168 18.3333 5.0419 18.3333 4.1876 17.4791 3.3333 16.6248 3.3333 15.2498 3.3333 12.5V7.5C3.3333 4.7501 3.3333 3.3752 4.1876 2.5209 5.0419 1.6667 6.4168 1.6667 9.1667 1.6667" stroke="currentColor" stroke-linecap="round" stroke-width="2"/>
  <path d="M12.5 2.9167H15C15.6903 2.9167 16.25 3.4763 16.25 4.1667V4.5833C16.25 5.2737 15.6903 5.8333 15 5.8333H12.5M12.5 2.9167V5.8333M12.5 2.9167H11.6667M12.5 5.8333H15.4167C16.107 5.8333 16.6667 6.393 16.6667 7.0833V7.5C16.6667 8.1904 16.107 8.75 15.4167 8.75H12.5M12.5 5.8333V8.75M14.1667 2.9167V1.6667M14.1667 8.75V10M12.5 8.75H11.6667" stroke="currentColor" stroke-linecap="round" stroke-linejoin="round" stroke-width="2"/>
</svg>
