<svg xmlns="http://www.w3.org/2000/svg" width="20" height="20" viewBox="0 0 20 20" fill="none">
  <path d="M8.4375 12.5L8.4375 7.5M10 7.5V6.25M10 13.75V12.5M8.4375 10H11.5625M11.5625 10C12.0802 10 12.5 10.4198 12.5 10.9375V11.5625C12.5 12.0802 12.0802 12.5 11.5625 12.5H7.5M11.5625 10C12.0802 10 12.5 9.5802 12.5 9.0625V8.4375C12.5 7.9197 12.0802 7.5 11.5625 7.5H7.5" stroke="currentColor" stroke-linecap="round" stroke-linejoin="round" stroke-width="2"/>
  <path d="M17.5092 11.7473C17.9441 11.6301 18.1616 11.5714 18.2474 11.4592 18.3333 11.3472 18.3333 11.1668 18.3333 10.806V9.1946C18.3333 8.8338 18.3333 8.6534 18.2474 8.5413 18.1615 8.4292 17.9441 8.3705 17.5092 8.2532 15.8838 7.8149 14.8666 6.1157 15.2861 4.501 15.4014 4.0569 15.4591 3.8349 15.404 3.7047 15.3489 3.5744 15.1909 3.4847 14.8747 3.3052L13.4375 2.4892C13.1273 2.3131 12.9723 2.225 12.8331 2.2438 12.6938 2.2625 12.5368 2.4192 12.2227 2.7325 11.0067 3.9457 8.9947 3.9456 7.7786 2.7325 7.4645 2.4191 7.3075 2.2624 7.1683 2.2437 7.0291 2.2249 6.874 2.313 6.5638 2.4891L5.1265 3.3051C4.8104 3.4846 4.6524 3.5744 4.5973 3.7045 4.5422 3.8348 4.5999 4.0568 4.7152 4.5009 5.1345 6.1157 4.1164 7.815 2.4909 8.2533 2.0559 8.3705 1.8385 8.4292 1.7526 8.5412 1.6667 8.6534 1.6667 8.8338 1.6667 9.1946V10.806C1.6667 11.1668 1.6667 11.3472 1.7526 11.4592 1.8385 11.5714 2.0559 11.6301 2.4909 11.7473 4.1162 12.1857 5.1334 13.8849 4.7139 15.4996 4.5986 15.9437 4.5409 16.1657 4.596 16.2959 4.6511 16.4262 4.8091 16.5159 5.1252 16.6953L6.5625 17.5114C6.8727 17.6875 7.0278 17.7756 7.167 17.7568 7.3062 17.7381 7.4632 17.5814 7.7773 17.268 8.9939 16.0539 11.0073 16.0538 12.2241 17.2679 12.5381 17.5813 12.6951 17.738 12.8343 17.7568 12.9735 17.7755 13.1287 17.6874 13.4388 17.5113L14.8761 16.6953C15.1922 16.5158 15.3503 16.4261 15.4053 16.2958 15.4604 16.1656 15.4028 15.9436 15.2873 15.4996 14.8677 13.8849 15.8841 12.1858 17.5092 11.7473Z" stroke="currentColor" stroke-linecap="round" stroke-width="2"/>
</svg>
