<svg xmlns="http://www.w3.org/2000/svg" width="20" height="20" viewBox="0 0 20 20" fill="none">
  <path d="M15 15.2232C16.0373 15.5532 16.6667 15.9867 16.6667 16.4614 16.6667 17.4952 13.6819 18.3333 10 18.3333 6.3181 18.3333 3.3333 17.4952 3.3333 16.4614 3.3333 15.9867 3.9627 15.5532 5 15.2232" stroke="currentColor" stroke-linecap="round" stroke-width="2"/>
  <path d="M8.6979 9.7223L8.6979 5.2778M10 5.2778V4.1667M10 10.8333V9.7223M8.6979 7.5H11.3021M11.3021 7.5C11.7336 7.5 12.0833 7.8731 12.0833 8.3333V8.8889C12.0833 9.3492 11.7336 9.7223 11.3021 9.7223H7.9167M11.3021 7.5C11.7336 7.5 12.0833 7.1269 12.0833 6.6667V6.1111C12.0833 5.6509 11.7336 5.2778 11.3021 5.2778H7.9167" stroke="currentColor" stroke-linecap="round" stroke-linejoin="round" stroke-width="2"/>
  <path d="M11.1226 15.3849C10.8215 15.6726 10.419 15.8333 10.0001 15.8333 9.5812 15.8333 9.1787 15.6726 8.8775 15.3849 6.1199 12.7351 2.4242 9.7749 4.2265 5.4773 5.2009 3.1536 7.5401 1.6667 10.0001 1.6667 12.4601 1.6667 14.7993 3.1536 15.7737 5.4773 17.5737 9.7695 13.8871 12.7442 11.1226 15.3849Z" stroke="currentColor" stroke-width="2"/>
</svg>
