<svg xmlns="http://www.w3.org/2000/svg" width="20" height="20" viewBox="0 0 20 20" fill="none">
  <path d="M3.3333 10C3.3333 6.8573 3.3333 5.286 4.3096 4.3096 5.286 3.3333 6.8573 3.3333 10 3.3333 13.1427 3.3333 14.7141 3.3333 15.6903 4.3096 16.6667 5.286 16.6667 6.8573 16.6667 10 16.6667 13.1427 16.6667 14.7141 15.6903 15.6903 14.7141 16.6667 13.1427 16.6667 10 16.6667 6.8573 16.6667 5.286 16.6667 4.3096 15.6903 3.3333 14.7141 3.3333 13.1427 3.3333 10Z" stroke="currentColor" stroke-linejoin="round" stroke-width="2"/>
  <path d="M8.4375 12.5L8.4375 7.5M10 7.5V6.25M10 13.75V12.5M8.4375 10H11.5625M11.5625 10C12.0802 10 12.5 10.4198 12.5 10.9375V11.5625C12.5 12.0802 12.0802 12.5 11.5625 12.5H7.5M11.5625 10C12.0802 10 12.5 9.5802 12.5 9.0625V8.4375C12.5 7.9197 12.0802 7.5 11.5625 7.5H7.5" stroke="currentColor" stroke-linecap="round" stroke-linejoin="round" stroke-width="2"/>
  <path d="M6.6667 1.6667V3.3333M13.3333 1.6667V3.3333M10 1.6667V3.3333M6.6667 16.6667V18.3333M10 16.6667V18.3333M13.3333 16.6667V18.3333M18.3333 13.3333H16.6667M3.3333 6.6667H1.6667M3.3333 13.3333H1.6667M3.3333 10H1.6667M18.3333 6.6667H16.6667M18.3333 10H16.6667" stroke="currentColor" stroke-linecap="round" stroke-linejoin="round" stroke-width="2"/>
</svg>
