<svg xmlns="http://www.w3.org/2000/svg" width="20" height="20" viewBox="0 0 20 20" fill="none">
  <path d="M10 1.6667C7.0085 1.6667 4.5833 4.0918 4.5833 7.0833 4.5833 10.0748 7.0085 12.5 10 12.5 12.9915 12.5 15.4167 10.0749 15.4167 7.0833 15.4167 4.0918 12.9915 1.6667 10 1.6667Z" stroke="currentColor" stroke-linecap="round" stroke-linejoin="round" stroke-width="2"/>
  <path d="M7.9167 16.25C8.3263 16.6714 9.4165 18.3333 10 18.3333M12.0833 16.25C11.6738 16.6714 10.5835 18.3333 10 18.3333M10 18.3333V14.5833" stroke="currentColor" stroke-linecap="round" stroke-linejoin="round" stroke-width="2"/>
  <path d="M8.6979 9.3056L8.6979 4.8611M10 4.8611V3.75M10 10.4167V9.3056M8.6979 7.0833H11.3021M11.3021 7.0833C11.7336 7.0833 12.0833 7.4564 12.0833 7.9167V8.4723C12.0833 8.9325 11.7336 9.3056 11.3021 9.3056H7.9167M11.3021 7.0833C11.7336 7.0833 12.0833 6.7102 12.0833 6.25V5.6944C12.0833 5.2342 11.7336 4.8611 11.3021 4.8611H7.9167" stroke="currentColor" stroke-linecap="round" stroke-linejoin="round" stroke-width="2"/>
</svg>
