<svg xmlns="http://www.w3.org/2000/svg" width="20" height="20" viewBox="0 0 20 20" fill="none">
  <path d="M14.5833 4.1667C15.2737 4.1667 15.8333 4.7263 15.8333 5.4167 15.8333 6.107 15.2737 6.6667 14.5833 6.6667 13.893 6.6667 13.3333 6.107 13.3333 5.4167 13.3333 4.7263 13.893 4.1667 14.5833 4.1667Z" stroke="currentColor" stroke-linecap="round" stroke-linejoin="round" stroke-width="2"/>
  <path d="M2.3119 9.2866C1.4759 10.2203 1.4579 11.6288 2.2251 12.6198 3.7476 14.5861 5.4139 16.2524 7.3803 17.7748 8.3712 18.5421 9.7797 18.5241 10.7134 17.6882 13.2483 15.4185 15.5696 13.0466 17.8099 10.4399 18.0314 10.1822 18.1699 9.8664 18.201 9.528 18.3385 8.0317 18.621 3.7206 17.4503 2.5498 16.2794 1.379 11.9683 1.6615 10.472 1.799 10.1336 1.8301 9.8178 1.9686 9.56 2.1901 6.9534 4.4304 4.5815 6.7518 2.3119 9.2866Z" stroke="currentColor" stroke-width="2"/>
  <path d="M6.5796 11.2065L9.7637 8.0224M10.6965 8.9552L11.4925 8.1592M6.7164 12.9353L7.5124 12.1393M8.1716 9.6144L10.0373 11.4801M10.0373 11.4801C10.3464 11.7893 10.3298 12.3071 10 12.6368L9.602 13.0348C9.2722 13.3646 8.7544 13.3813 8.4452 13.0722L6.0199 10.6468M10.0373 11.4801C10.3464 11.7893 10.8643 11.7725 11.194 11.4428L11.5921 11.0448C11.9218 10.715 11.9385 10.1972 11.6293 9.888L9.204 7.4627" stroke="currentColor" stroke-linecap="round" stroke-linejoin="round" stroke-width="2"/>
</svg>
