<svg xmlns="http://www.w3.org/2000/svg" width="20" height="20" viewBox="0 0 20 20" fill="none">
  <path d="M10 7.4999C7.0084 7.4999 4.5833 9.925 4.5833 12.9166 4.5833 15.9081 7.0084 18.3332 10 18.3332 12.9915 18.3332 15.4167 15.9081 15.4167 12.9166 15.4167 9.925 12.9915 7.4999 10 7.4999Z" stroke="currentColor" stroke-linecap="round" stroke-linejoin="round" stroke-width="2"/>
  <path d="M12.0833 3.7499C11.6738 3.3285 10.5835 1.6666 10 1.6666M7.9167 3.7499C8.3263 3.3285 9.4165 1.6666 10 1.6666M10 1.6666L10 5.4166" stroke="currentColor" stroke-linecap="round" stroke-linejoin="round" stroke-width="2"/>
  <path d="M8.6979 15.1389L8.6979 10.6944M10 10.6944V9.5833M10 16.25V15.1389M8.6979 12.9167H11.3021M11.3021 12.9167C11.7336 12.9167 12.0833 13.2897 12.0833 13.75V14.3056C12.0833 14.7658 11.7336 15.1389 11.3021 15.1389H7.9167M11.3021 12.9167C11.7336 12.9167 12.0833 12.5436 12.0833 12.0833V11.5277C12.0833 11.0675 11.7336 10.6944 11.3021 10.6944H7.9167" stroke="currentColor" stroke-linecap="round" stroke-linejoin="round" stroke-width="2"/>
</svg>
