<svg xmlns="http://www.w3.org/2000/svg" width="20" height="20" viewBox="0 0 20 20" fill="none">
  <path d="M17.0833 4.1667C17.7737 4.1667 18.3333 3.607 18.3333 2.9167 18.3333 2.2263 17.7737 1.6667 17.0833 1.6667 16.393 1.6667 15.8333 2.2263 15.8333 2.9167 15.8333 3.607 16.393 4.1667 17.0833 4.1667Z" stroke="currentColor" stroke-linecap="round" stroke-linejoin="round" stroke-width="2"/>
  <path d="M2.9167 18.3333C3.607 18.3333 4.1667 17.7737 4.1667 17.0833 4.1667 16.393 3.607 15.8333 2.9167 15.8333 2.2263 15.8333 1.6667 16.393 1.6667 17.0833 1.6667 17.7737 2.2263 18.3333 2.9167 18.3333Z" stroke="currentColor" stroke-linecap="round" stroke-linejoin="round" stroke-width="2"/>
  <path d="M17.5321 10.8853C18.0063 10.7723 18.3333 10.4111 18.3333 10 18.3333 9.5889 18.0063 9.2277 17.5321 9.1148L13.7677 8.2185C13.0998 6.8085 11.6638 5.8333 10 5.8333 8.3362 5.8333 6.9002 6.8085 6.2323 8.2185L2.4679 9.1148C1.9937 9.2277 1.6667 9.5889 1.6667 10 1.6667 10.4111 1.9937 10.7723 2.4679 10.8853L6.2323 11.7815C6.9002 13.1915 8.3362 14.1667 10 14.1667 11.6638 14.1667 13.0998 13.1915 13.7677 11.7815L17.5321 10.8853Z" stroke="currentColor" stroke-linecap="round" stroke-linejoin="round" stroke-width="2"/>
  <path d="M10 11.6667C10.9205 11.6667 11.6667 10.9205 11.6667 10 11.6667 9.0795 10.9205 8.3333 10 8.3333 9.0795 8.3333 8.3333 9.0795 8.3333 10 8.3333 10.9205 9.0795 11.6667 10 11.6667Z" stroke="currentColor" stroke-linecap="round" stroke-linejoin="round" stroke-width="2"/>
  <path d="M12.5006 2.0482C11.7114 1.8003 10.8716 1.6667 10.0006 1.6667 7.2743 1.6667 4.8537 2.9759 3.3333 5M7.5006 17.9518C8.2898 18.1997 9.1296 18.3333 10.0006 18.3333 12.7266 18.3333 15.1469 17.0244 16.6672 15.0008" stroke="currentColor" stroke-linecap="round" stroke-linejoin="round" stroke-width="2"/>
</svg>
