<svg xmlns="http://www.w3.org/2000/svg" width="20" height="20" viewBox="0 0 20 20" fill="none">
  <path d="M15.3855 3.3333H6.8444M15.3855 3.3333L14.5314 14.1667H7.5L7.2715 9.1667M15.3855 3.3333H16.6667M6.8444 3.3333H5.2968C4.2455 3.3333 3.7198 3.3333 3.4636 3.6692 3.2075 4.0051 3.3586 4.4964 3.6607 5.4789L3.8899 6.2244C4.0836 6.8543 4.1804 7.1693 4.3849 7.4203 4.5893 7.6713 4.882 7.8344 5.4672 8.1607L7.2715 9.1667M6.8444 3.3333L7.2715 9.1667" stroke="currentColor" stroke-linecap="round" stroke-linejoin="round" stroke-width="2"/>
  <path d="M12.5 1.6667H10" stroke="currentColor" stroke-linecap="round" stroke-linejoin="round" stroke-width="2"/>
  <path d="M14.5557 14.1667H7.544C7.3001 14.9996 6.2137 17.2563 6.8797 18.0283 7.1428 18.3333 7.6377 18.3333 8.6275 18.3333H13.7771C14.8566 18.3333 15.3963 18.3333 15.6593 17.9974 16.3195 17.1543 14.9144 14.9711 14.5557 14.1667Z" stroke="currentColor" stroke-linecap="round" stroke-linejoin="round" stroke-width="2"/>
  <path d="M15 6.6667H12.9167M14.5833 9.1667H12.9167M14.5833 11.6667H12.9167" stroke="currentColor" stroke-linecap="round" stroke-linejoin="round" stroke-width="2"/>
</svg>
