<svg xmlns="http://www.w3.org/2000/svg" width="20" height="20" viewBox="0 0 20 20" fill="none">
  <path d="M2.8661 7.1339C3.2322 7.5 3.8215 7.5 5 7.5 6.1785 7.5 6.7678 7.5 7.1339 7.1339 7.5 6.7678 7.5 6.1785 7.5 5 7.5 3.8215 7.5 3.2322 7.1339 2.8661 6.7678 2.5 6.1785 2.5 5 2.5 3.8215 2.5 3.2322 2.5 2.8661 2.8661 2.5 3.2322 2.5 3.8215 2.5 5 2.5 6.1785 2.5 6.7678 2.8661 7.1339Z" stroke="currentColor" stroke-linecap="round" stroke-linejoin="round" stroke-width="2"/>
  <path d="M12.8661 7.1339C13.2323 7.5 13.8215 7.5 15 7.5 16.1785 7.5 16.7678 7.5 17.1339 7.1339 17.5 6.7678 17.5 6.1785 17.5 5 17.5 3.8215 17.5 3.2322 17.1339 2.8661 16.7678 2.5 16.1785 2.5 15 2.5 13.8215 2.5 13.2323 2.5 12.8661 2.8661 12.5 3.2322 12.5 3.8215 12.5 5 12.5 6.1785 12.5 6.7678 12.8661 7.1339Z" stroke="currentColor" stroke-linecap="round" stroke-linejoin="round" stroke-width="2"/>
  <path d="M12.8661 17.1339C13.2323 17.5 13.8215 17.5 15 17.5 16.1785 17.5 16.7678 17.5 17.1339 17.1339 17.5 16.7678 17.5 16.1785 17.5 15 17.5 13.8215 17.5 13.2323 17.1339 12.8661 16.7678 12.5 16.1785 12.5 15 12.5 13.8215 12.5 13.2323 12.5 12.8661 12.8661 12.5 13.2323 12.5 13.8215 12.5 15 12.5 16.1785 12.5 16.7678 12.8661 17.1339Z" stroke="currentColor" stroke-linecap="round" stroke-linejoin="round" stroke-width="2"/>
  <path d="M2.8661 17.1339C3.2322 17.5 3.8215 17.5 5 17.5 6.1785 17.5 6.7678 17.5 7.1339 17.1339 7.5 16.7678 7.5 16.1785 7.5 15 7.5 13.8215 7.5 13.2323 7.1339 12.8661 6.7678 12.5 6.1785 12.5 5 12.5 3.8215 12.5 3.2322 12.5 2.8661 12.8661 2.5 13.2323 2.5 13.8215 2.5 15 2.5 16.1785 2.5 16.7678 2.8661 17.1339Z" stroke="currentColor" stroke-linecap="round" stroke-linejoin="round" stroke-width="2"/>
  <path d="M10 5H7.5" stroke="currentColor" stroke-linecap="round" stroke-linejoin="round" stroke-width="2"/>
  <path d="M12.5 15H10" stroke="currentColor" stroke-linecap="round" stroke-linejoin="round" stroke-width="2"/>
  <path d="M15 10L15 7.5" stroke="currentColor" stroke-linecap="round" stroke-linejoin="round" stroke-width="2"/>
  <path d="M5 12.5L5 10" stroke="currentColor" stroke-linecap="round" stroke-linejoin="round" stroke-width="2"/>
</svg>
