<svg xmlns="http://www.w3.org/2000/svg" width="20" height="20" viewBox="0 0 20 20" fill="none">
  <path d="M10 17.5C10.2327 17.5 10.449 17.394 10.8816 17.182L14.3587 15.4781C15.8973 14.724 16.6667 14.347 16.6667 13.75V6.25M10 17.5C9.7673 17.5 9.551 17.394 9.1184 17.182L5.6413 15.4781C4.1027 14.724 3.3333 14.347 3.3333 13.75V6.25M10 17.5V10" stroke="currentColor" stroke-linecap="round" stroke-linejoin="round" stroke-width="2"/>
  <path d="M9.1184 2.818C9.551 2.606 9.7673 2.5 10 2.5 10.2327 2.5 10.449 2.606 10.8816 2.818L14.3587 4.522C15.8973 5.276 16.6667 5.653 16.6667 6.25 16.6667 6.847 15.8973 7.224 14.3587 7.978L10.8816 9.682C10.449 9.894 10.2327 10 10 10 9.7673 10 9.551 9.894 9.1184 9.682L5.6413 7.978C4.1027 7.224 3.3333 6.847 3.3333 6.25 3.3333 5.653 4.1027 5.276 5.6413 4.522L9.1184 2.818Z" stroke="currentColor" stroke-linejoin="round" stroke-width="2"/>
</svg>
