<svg xmlns="http://www.w3.org/2000/svg" width="20" height="20" viewBox="0 0 20 20" fill="none">
  <path d="M4.5833 8.75C4.6851 8.75 4.7797 8.7029 4.969 8.6087L6.4902 7.8514C7.1634 7.5162 7.4999 7.3487 7.4999 7.0833V3.75M4.5833 8.75C4.4815 8.75 4.3868 8.7029 4.1976 8.6087L2.6763 7.8514C2.0032 7.5162 1.6666 7.3487 1.6666 7.0833V3.75M4.5833 8.75V5.4167M1.6666 3.75C1.6666 4.0153 2.0032 4.1829 2.6763 4.518L4.1976 5.2753C4.3868 5.3696 4.4815 5.4167 4.5833 5.4167 4.6851 5.4167 4.7797 5.3696 4.969 5.2753L6.4902 4.518C7.1634 4.1829 7.4999 4.0153 7.4999 3.75 7.4999 3.4847 7.1634 3.3171 6.4902 2.982L4.969 2.2247C4.7797 2.1304 4.6851 2.0833 4.5833 2.0833 4.4815 2.0833 4.3868 2.1304 4.1976 2.2247L2.6763 2.982C2.0032 3.3171 1.6666 3.4847 1.6666 3.75Z" stroke="currentColor" stroke-linejoin="round" stroke-width="2"/>
  <path d="M15.4166 8.75C15.5184 8.75 15.613 8.7029 15.8023 8.6087L17.3235 7.8514C17.9967 7.5162 18.3332 7.3487 18.3332 7.0833V3.75M15.4166 8.75C15.3148 8.75 15.2202 8.7029 15.0309 8.6087L13.5097 7.8514C12.8365 7.5162 12.4999 7.3487 12.4999 7.0833V3.75M15.4166 8.75V5.4167M12.4999 3.75C12.4999 4.0153 12.8365 4.1829 13.5097 4.518L15.0309 5.2753C15.2202 5.3696 15.3148 5.4167 15.4166 5.4167 15.5184 5.4167 15.613 5.3696 15.8023 5.2753L17.3235 4.518C17.9967 4.1829 18.3332 4.0153 18.3332 3.75 18.3332 3.4847 17.9967 3.3171 17.3235 2.982L15.8023 2.2247C15.613 2.1304 15.5184 2.0833 15.4166 2.0833 15.3148 2.0833 15.2202 2.1304 15.0309 2.2247L13.5097 2.982C12.8365 3.3171 12.4999 3.4847 12.4999 3.75Z" stroke="currentColor" stroke-linejoin="round" stroke-width="2"/>
  <path d="M9.5833 5.4167H10.4166" stroke="currentColor" stroke-linecap="round" stroke-width="2"/>
  <path d="M1.6666 10.4167V13.3333C1.6666 14.5038 1.6666 15.0889 1.9475 15.5093 2.0691 15.6913 2.2253 15.8475 2.4073 15.9691 2.8277 16.25 3.4129 16.25 4.5833 16.25" stroke="currentColor" stroke-linecap="round" stroke-width="2"/>
  <path d="M18.3334 10.4167V13.3333C18.3334 14.5038 18.3334 15.0889 18.0525 15.5093 17.9309 15.6913 17.7747 15.8475 17.5927 15.9691 17.1723 16.25 16.587 16.25 15.4166 16.25" stroke="currentColor" stroke-linecap="round" stroke-width="2"/>
  <path d="M11.4583 14.1093C12.0609 14.1177 12.4026 14.1616 12.6318 14.3861 12.9166 14.665 12.9166 15.114 12.9166 16.0119 12.9166 16.9098 12.9166 17.3588 12.6318 17.6378 12.3471 17.9167 11.8888 17.9167 10.9722 17.9167H9.0277C8.1111 17.9167 7.6528 17.9167 7.368 17.6378 7.0833 17.3588 7.0833 16.9098 7.0833 16.0119 7.0833 15.114 7.0833 14.665 7.368 14.3861 7.5972 14.1616 7.9389 14.1177 8.5416 14.1093 8.6876 14.1072 8.8489 14.1072 9.0277 14.1072H10.9722C11.1509 14.1072 11.3123 14.1072 11.4583 14.1093ZM8.5416 14.1093V12.6786C8.5416 11.8896 9.1945 11.25 9.9999 11.25 10.8053 11.25 11.4583 11.8896 11.4583 12.6786V14.1093" stroke="currentColor" stroke-linecap="round" stroke-width="2"/>
</svg>
