<svg xmlns="http://www.w3.org/2000/svg" width="20" height="20" viewBox="0 0 20 20" fill="none">
  <path d="M4.5833 8.3333C4.6851 8.3333 4.7798 8.2862 4.969 8.192L6.4903 7.4347C7.1634 7.0996 7.5 6.932 7.5 6.6667V3.3333M4.5833 8.3333C4.4815 8.3333 4.3869 8.2862 4.1977 8.192L2.6764 7.4347C2.0033 7.0996 1.6667 6.932 1.6667 6.6667V3.3333M4.5833 8.3333V5M1.6667 3.3333C1.6667 3.5987 2.0032 3.7662 2.6764 4.1014L4.1977 4.8587C4.3869 4.9529 4.4815 5 4.5833 5 4.6851 5 4.7798 4.9529 4.969 4.8587L6.4903 4.1014C7.1634 3.7662 7.5 3.5987 7.5 3.3333 7.5 3.068 7.1634 2.9004 6.4903 2.5653L4.969 1.808C4.7798 1.7138 4.6851 1.6667 4.5833 1.6667 4.4815 1.6667 4.3869 1.7138 4.1977 1.808L2.6764 2.5653C2.0032 2.9004 1.6667 3.068 1.6667 3.3333Z" stroke="currentColor" stroke-linejoin="round" stroke-width="2"/>
  <path d="M15.4167 8.3333C15.5185 8.3333 15.6131 8.2862 15.8023 8.192L17.3236 7.4347C17.9968 7.0996 18.3333 6.932 18.3333 6.6667V3.3333M15.4167 8.3333C15.3148 8.3333 15.2203 8.2862 15.031 8.192L13.5098 7.4347C12.8366 7.0996 12.5 6.932 12.5 6.6667V3.3333M15.4167 8.3333V5M12.5 3.3333C12.5 3.5987 12.8366 3.7662 13.5098 4.1014L15.031 4.8587C15.2203 4.9529 15.3148 5 15.4167 5 15.5185 5 15.6131 4.9529 15.8023 4.8587L17.3236 4.1014C17.9968 3.7662 18.3333 3.5987 18.3333 3.3333 18.3333 3.068 17.9968 2.9004 17.3236 2.5653L15.8023 1.808C15.6131 1.7138 15.5185 1.6667 15.4167 1.6667 15.3148 1.6667 15.2203 1.7138 15.031 1.808L13.5098 2.5653C12.8366 2.9004 12.5 3.068 12.5 3.3333Z" stroke="currentColor" stroke-linejoin="round" stroke-width="2"/>
  <path d="M9.5833 5H10.4167" stroke="currentColor" stroke-linecap="round" stroke-width="2"/>
  <path d="M1.6667 10V12.9167C1.6667 14.0871 1.6667 14.6723 1.9476 15.0926 2.0692 15.2746 2.2254 15.4308 2.4074 15.5524 2.8278 15.8333 3.4129 15.8333 4.5833 15.8333" stroke="currentColor" stroke-linecap="round" stroke-width="2"/>
  <path d="M18.3333 10V12.9167C18.3333 14.0871 18.3333 14.6723 18.0524 15.0926 17.9308 15.2746 17.7746 15.4308 17.5926 15.5524 17.1723 15.8333 16.5871 15.8333 15.4167 15.8333" stroke="currentColor" stroke-linecap="round" stroke-width="2"/>
  <path d="M10 18.3333C10.1018 18.3333 10.1964 18.2863 10.3857 18.192L11.9069 17.4347C12.5801 17.0996 12.9167 16.932 12.9167 16.6667V13.3333M10 18.3333C9.8982 18.3333 9.8036 18.2863 9.6143 18.192L8.0931 17.4347C7.4199 17.0996 7.0833 16.932 7.0833 16.6667V13.3333M10 18.3333V15M7.0833 13.3333C7.0833 13.5987 7.4199 13.7663 8.0931 14.1013L9.6143 14.8587C9.8036 14.9529 9.8982 15 10 15 10.1018 15 10.1964 14.9529 10.3857 14.8587L11.9069 14.1013C12.5801 13.7663 12.9167 13.5987 12.9167 13.3333 12.9167 13.068 12.5801 12.9004 11.9069 12.5653L10.3857 11.808C10.1964 11.7138 10.1018 11.6667 10 11.6667 9.8982 11.6667 9.8036 11.7138 9.6143 11.808L8.0931 12.5653C7.4199 12.9004 7.0833 13.068 7.0833 13.3333Z" stroke="currentColor" stroke-linejoin="round" stroke-width="2"/>
</svg>
