<svg xmlns="http://www.w3.org/2000/svg" width="20" height="20" viewBox="0 0 20 20" fill="none">
  <path d="M10 18.3333C10.2036 18.3333 10.3928 18.2391 10.7713 18.0507L13.8138 16.536C15.1602 15.8658 15.8333 15.5307 15.8333 15V8.3333M10 18.3333C9.7964 18.3333 9.6072 18.2391 9.2287 18.0507L6.1861 16.536C4.8398 15.8658 4.1667 15.5307 4.1667 15V8.3333M10 18.3333V11.6667M15.8333 8.3333C15.8333 7.8026 15.1602 7.4675 13.8138 6.7973L10.7713 5.2827C10.3928 5.0942 10.2036 5 10 5 9.7964 5 9.6072 5.0942 9.2287 5.2827L6.1861 6.7973C4.8398 7.4675 4.1667 7.8026 4.1667 8.3333M15.8333 8.3333C15.8333 8.864 15.1602 9.1992 13.8138 9.8693L10.7713 11.384C10.3928 11.5724 10.2036 11.6667 10 11.6667M4.1667 8.3333C4.1667 8.864 4.8398 9.1992 6.1861 9.8693L9.2287 11.384C9.6072 11.5724 9.7964 11.6667 10 11.6667" stroke="currentColor" stroke-linejoin="round" stroke-width="2"/>
  <path d="M18.3333 17.5L15.8333 15.4167" stroke="currentColor" stroke-linecap="round" stroke-linejoin="round" stroke-width="2"/>
  <path d="M10 1.6667V5" stroke="currentColor" stroke-linecap="round" stroke-linejoin="round" stroke-width="2"/>
  <path d="M1.6667 17.5L4.1667 15.4167" stroke="currentColor" stroke-linecap="round" stroke-linejoin="round" stroke-width="2"/>
</svg>
