<svg xmlns="http://www.w3.org/2000/svg" width="20" height="20" viewBox="0 0 20 20" fill="none">
  <path d="M18.3333 15C18.3333 16.1668 18.3333 16.7502 18.1062 17.1958 17.9065 17.5878 17.5878 17.9065 17.1958 18.1062 16.7502 18.3333 16.1668 18.3333 15 18.3333 13.8333 18.3333 13.2498 18.3333 12.8042 18.1062 12.4122 17.9065 12.0935 17.5878 11.8938 17.1958 11.6667 16.7502 11.6667 16.1668 11.6667 15 11.6667 13.8333 11.6667 13.2498 11.8938 12.8042 12.0935 12.4122 12.4122 12.0935 12.8042 11.8938 13.2498 11.6667 13.8333 11.6667 15 11.6667 16.1668 11.6667 16.7502 11.6667 17.1958 11.8938 17.5878 12.0935 17.9065 12.4122 18.1062 12.8042 18.3333 13.2498 18.3333 13.8333 18.3333 15Z" stroke="currentColor" stroke-width="2"/>
  <path d="M18.3333 8.3333C18.3333 9.5001 18.3333 10.0835 18.1062 10.5292 17.9065 10.9212 17.5878 11.2398 17.1958 11.4396 16.7502 11.6667 16.1668 11.6667 15 11.6667 13.8333 11.6667 13.2498 11.6667 12.8042 11.4396 12.4122 11.2398 12.0935 10.9212 11.8938 10.5292 11.6667 10.0835 11.6667 9.5001 11.6667 8.3333 11.6667 7.1666 11.6667 6.5832 11.8938 6.1375 12.0935 5.7455 12.4122 5.4268 12.8042 5.2271 13.2498 5 13.8333 5 15 5 16.1668 5 16.7502 5 17.1958 5.2271 17.5878 5.4268 17.9065 5.7455 18.1062 6.1375 18.3333 6.5832 18.3333 7.1666 18.3333 8.3333Z" stroke="currentColor" stroke-width="2"/>
  <path d="M11.6667 15C11.6667 16.1668 11.6667 16.7502 11.4396 17.1958 11.2398 17.5878 10.9212 17.9065 10.5292 18.1062 10.0835 18.3333 9.5001 18.3333 8.3333 18.3333 7.1666 18.3333 6.5832 18.3333 6.1375 18.1062 5.7455 17.9065 5.4268 17.5878 5.2271 17.1958 5 16.7502 5 16.1668 5 15 5 13.8333 5 13.2498 5.2271 12.8042 5.4268 12.4122 5.7455 12.0935 6.1375 11.8938 6.5832 11.6667 7.1666 11.6667 8.3333 11.6667 9.5001 11.6667 10.0835 11.6667 10.5292 11.8938 10.9212 12.0935 11.2398 12.4122 11.4396 12.8042 11.6667 13.2498 11.6667 13.8333 11.6667 15Z" stroke="currentColor" stroke-width="2"/>
  <path d="M8.3333 5C8.3333 6.1668 8.3333 6.7502 8.1063 7.1958 7.9065 7.5878 7.5878 7.9065 7.1958 8.1063 6.7502 8.3333 6.1668 8.3333 5 8.3333 3.8332 8.3333 3.2498 8.3333 2.8042 8.1063 2.4122 7.9065 2.0935 7.5878 1.8937 7.1958 1.6667 6.7502 1.6667 6.1668 1.6667 5 1.6667 3.8332 1.6667 3.2498 1.8937 2.8042 2.0935 2.4122 2.4122 2.0935 2.8042 1.8937 3.2498 1.6667 3.8332 1.6667 5 1.6667 6.1668 1.6667 6.7502 1.6667 7.1958 1.8937 7.5878 2.0935 7.9065 2.4122 8.1063 2.8042 8.3333 3.2498 8.3333 3.8332 8.3333 5Z" stroke="currentColor" stroke-width="2"/>
</svg>
