<svg xmlns="http://www.w3.org/2000/svg" width="20" height="20" viewBox="0 0 20 20" fill="none">
  <path d="M12.8042 8.1063C13.2498 8.3333 13.8333 8.3333 15 8.3333 16.1668 8.3333 16.7502 8.3333 17.1958 8.1063 17.5878 7.9065 17.9065 7.5878 18.1062 7.1958 18.3333 6.7502 18.3333 6.1668 18.3333 5 18.3333 3.8332 18.3333 3.2498 18.1062 2.8042 17.9065 2.4122 17.5878 2.0935 17.1958 1.8937 16.7502 1.6667 16.1668 1.6667 15 1.6667 13.8333 1.6667 13.2498 1.6667 12.8042 1.8937 12.4122 2.0935 12.0935 2.4122 11.8938 2.8042 11.6667 3.2498 11.6667 3.8332 11.6667 5 11.6667 6.1668 11.6667 6.7502 11.8938 7.1958 12.0935 7.5878 12.4122 7.9065 12.8042 8.1063Z" stroke="currentColor" stroke-linecap="round" stroke-linejoin="round" stroke-width="2"/>
  <path d="M8.3333 11.6667V8.3333C8.3333 7.1666 8.3333 6.5832 8.1063 6.1375 7.9065 5.7455 7.5878 5.4268 7.1958 5.2271 6.7502 5 6.1668 5 5 5 3.8332 5 3.2498 5 2.8042 5.2271 2.4122 5.4268 2.0935 5.7455 1.8937 6.1375 1.6667 6.5832 1.6667 7.1666 1.6667 8.3333V11.6667H8.3333Z" stroke="currentColor" stroke-linecap="round" stroke-linejoin="round" stroke-width="2"/>
  <path d="M8.3333 11.6667H1.6667V14.1667C1.6667 16.1308 1.6667 17.1129 2.2769 17.7232 2.8871 18.3333 3.8691 18.3333 5.8333 18.3333H8.3333V11.6667Z" stroke="currentColor" stroke-linecap="round" stroke-linejoin="round" stroke-width="2"/>
  <path d="M11.6667 11.6667H8.3333V18.3333H11.6667C12.8334 18.3333 13.4168 18.3333 13.8625 18.1062 14.2545 17.9065 14.5732 17.5878 14.7729 17.1958 15 16.7502 15 16.1668 15 15 15 13.8333 15 13.2498 14.7729 12.8042 14.5732 12.4122 14.2545 12.0935 13.8625 11.8938 13.4168 11.6667 12.8334 11.6667 11.6667 11.6667Z" stroke="currentColor" stroke-linecap="round" stroke-linejoin="round" stroke-width="2"/>
</svg>
