<svg xmlns="http://www.w3.org/2000/svg" width="20" height="20" viewBox="0 0 20 20" fill="none">
  <path d="M2.0833 10C2.0833 6.268 2.0833 4.4021 3.2427 3.2427 4.4021 2.0833 6.268 2.0833 10 2.0833 13.7319 2.0833 15.5979 2.0833 16.7573 3.2427 17.9167 4.4021 17.9167 6.268 17.9167 10 17.9167 13.7319 17.9167 15.5979 16.7573 16.7573 15.5979 17.9167 13.7319 17.9167 10 17.9167 6.268 17.9167 4.4021 17.9167 3.2427 16.7573 2.0833 15.5979 2.0833 13.7319 2.0833 10Z" stroke="currentColor" stroke-linejoin="round" stroke-width="2"/>
  <path d="M8.3333 8.3333H9.1667" stroke="currentColor" stroke-linecap="round" stroke-linejoin="round" stroke-width="2"/>
  <path d="M8.3333 12.5H11.6667" stroke="currentColor" stroke-linecap="round" stroke-linejoin="round" stroke-width="2"/>
  <path d="M12.4648 9.5518V8.7573C12.4648 7.1968 12.4648 6.4165 12.0687 5.8695 11.3184 4.8331 9.8608 5.0117 8.7323 5.0117 7.6039 5.0117 6.1463 4.8331 5.396 5.8695 5 6.4165 5 7.1968 5 8.7573V10.8383C5 12.8001 5 13.7811 5.6073 14.3905 6.2147 15 7.1921 15 9.1471 15H12.2385C14.4042 15 15.2699 13.4771 14.9275 11.3072 14.7237 10.0163 13.6096 9.5518 12.4648 9.5518Z" stroke="currentColor" stroke-linejoin="round" stroke-width="2"/>
</svg>
