<svg xmlns="http://www.w3.org/2000/svg" width="20" height="20" viewBox="0 0 20 20" fill="none">
  <path d="M2.9167 11.3983C2.9167 7.9116 5.9007 4.4659 7.9951 2.4769 9.1326 1.3966 10.8674 1.3966 12.0049 2.4769 14.0993 4.4659 17.0833 7.9116 17.0833 11.3983 17.0833 14.817 14.401 18.3333 10 18.3333 5.599 18.3333 2.9167 14.817 2.9167 11.3983Z" stroke="currentColor" stroke-width="2"/>
  <path d="M7.5 12.5C7.5 12.5 7.804 11.8847 8.2 11.0857M12.5 12.5C12.5 12.5 12.196 11.8847 11.8 11.0857M8.2 11.0857C8.9328 9.6073 9.9807 7.5 10 7.5 10.0193 7.5 11.0672 9.6073 11.8 11.0857M8.2 11.0857H11.8" stroke="currentColor" stroke-linecap="round" stroke-width="2"/>
</svg>
