<svg xmlns="http://www.w3.org/2000/svg" width="20" height="20" viewBox="0 0 20 20" fill="none">
  <path d="M4.1667 6.1435C10.8333 2.7023 9.5833 8.3372 15.8333 6.1436" stroke="currentColor" stroke-linecap="round" stroke-width="2"/>
  <path d="M4.1667 7.5C4.1667 5.1592 4.1667 3.9888 4.7284 3.1481 4.9716 2.7841 5.2841 2.4716 5.6481 2.2284 6.4888 1.6667 7.6592 1.6667 10 1.6667 12.3407 1.6667 13.5112 1.6667 14.3519 2.2284 14.7158 2.4716 15.0283 2.7841 15.2716 3.1481 15.8333 3.9888 15.8333 5.1592 15.8333 7.5V9.1667C15.8333 11.5074 15.8333 12.6778 15.2716 13.5186 15.0283 13.8825 14.7158 14.195 14.3519 14.4383 13.5112 15 12.3407 15 10 15 7.6592 15 6.4888 15 5.6481 14.4383 5.2841 14.195 4.9716 13.8825 4.7284 13.5186 4.1667 12.6778 4.1667 11.5074 4.1667 9.1667V7.5Z" stroke="currentColor" stroke-linejoin="round" stroke-width="2"/>
  <path d="M10.0118 8.3333L8.8113 9.573C8.1666 10.2503 8.1778 11.3407 8.8225 12.0064 9.4783 12.6722 10.5343 12.6607 11.179 11.9949 11.8348 11.3177 11.8237 10.2273 11.179 9.5615L10.0118 8.3333Z" stroke="currentColor" stroke-linejoin="round" stroke-width="2"/>
  <path d="M6.6667 18.3333C8.5076 18.3333 10 16.8409 10 15" stroke="currentColor" stroke-linecap="round" stroke-linejoin="round" stroke-width="2"/>
</svg>
