<svg xmlns="http://www.w3.org/2000/svg" width="20" height="20" viewBox="0 0 20 20" fill="none">
  <path d="M4.5833 12.9167C2.74 12.1805 1.6667 10.3607 1.6667 8.4788 1.6667 6.0381 3.5975 3.6261 4.9527 2.2338 5.6887 1.4776 6.8113 1.4776 7.5473 2.2338 7.9573 2.655 8.304 3.1696 8.75 3.75" stroke="currentColor" stroke-linecap="round" stroke-width="2"/>
  <path d="M6.6667 12.4386C6.6667 9.4748 9.1241 6.546 10.8489 4.8553 11.7857 3.9371 13.2143 3.9371 14.1511 4.8553 15.8759 6.546 18.3333 9.4748 18.3333 12.4386 18.3333 15.3445 16.1243 18.3333 12.5 18.3333 8.8757 18.3333 6.6667 15.3445 6.6667 12.4386Z" stroke="currentColor" stroke-width="2"/>
  <path d="M15.4167 12.9167C15.4167 14.7576 14.1667 15.4167 12.9167 15.4167" stroke="currentColor" stroke-linecap="round" stroke-linejoin="round" stroke-width="2"/>
</svg>
