<svg xmlns="http://www.w3.org/2000/svg" width="20" height="20" viewBox="0 0 20 20" fill="none">
  <path d="M8.3313 9.9991L11.1803 7.1501C11.7947 6.5357 12.1019 6.2285 12.0813 5.8566 12.0608 5.4847 11.7211 5.2129 11.0418 4.6692 9.8646 3.7273 9.276 3.2563 8.8037 3.4833 8.3313 3.7103 8.3313 4.4631 8.3313 5.9686V9.9991ZM8.3313 9.9991L8.3301 10.0002M8.3313 9.9991V10.0014M8.3301 10.0002L4.1634 14.1669M8.3301 10.0002L8.3313 10.0014M8.3301 10.0002L4.1634 5.8336M8.3313 10.0014V14.032C8.3313 15.5375 8.3313 16.2903 8.8037 16.5173 9.276 16.7443 9.8646 16.2733 11.0418 15.3313 11.7211 14.7877 12.0608 14.5158 12.0813 14.144 12.1019 13.7721 11.7947 13.4648 11.1803 12.8504L8.3313 10.0014Z" stroke="currentColor" stroke-linecap="round" stroke-linejoin="round" stroke-width="2"/>
  <path d="M15.1095 7.9083C15.5817 8.5005 15.8381 9.2358 15.8366 9.9932 15.8351 10.7505 15.5757 11.4848 15.1012 12.075M12.4968 9.9917L12.4968 10" stroke="currentColor" stroke-linecap="round" stroke-linejoin="round" stroke-width="2"/>
</svg>
