<svg xmlns="http://www.w3.org/2000/svg" width="20" height="20" viewBox="0 0 20 20" fill="none">
  <path d="M7.3112 9.5833C7.3958 5.906 7.0743 3.1556 7.6267 2.6558 7.6795 2.608 7.7411 2.5694 7.8057 2.5398 8.5308 2.2078 10.5733 4.0274 11.9102 5.1846 12.1298 5.3747 12.1452 5.7112 11.9293 5.9056 10.9745 6.7656 9.0265 8.2981 7.3112 9.5833ZM7.3112 9.5833L2.0921 13.5752M7.3112 9.5833C7.3958 13.2606 7.0743 16.0111 7.6267 16.5109 7.6795 16.5587 7.7412 16.5973 7.8057 16.6269 8.124 16.7725 8.6958 16.5038 9.3504 16.0587M2.0833 5.6047L9.5122 11.294" stroke="currentColor" stroke-linecap="round" stroke-linejoin="round" stroke-width="2"/>
  <path d="M16.3602 15.9657L17.9167 17.5M17.2562 13.8303C17.2562 15.4855 15.9117 16.8273 14.2531 16.8273 12.5945 16.8273 11.25 15.4855 11.25 13.8303 11.25 12.1752 12.5945 10.8333 14.2531 10.8333 15.9117 10.8333 17.2562 12.1752 17.2562 13.8303Z" stroke="currentColor" stroke-linecap="round" stroke-width="2"/>
</svg>
