<svg xmlns="http://www.w3.org/2000/svg" width="20" height="20" viewBox="0 0 20 20" fill="none">
  <path d="M10.3952 10L13.5357 7.5461C14.4324 6.8454 14.8808 6.4951 14.9763 6.0405 15.012 5.871 15.0128 5.6958 14.979 5.5258 14.8881 5.0703 14.4433 4.7153 13.5538 4.0052 12.2127 2.9346 11.5421 2.3994 10.9782 2.5156 10.7723 2.5581 10.5802 2.6529 10.42 2.7912 9.9816 3.1697 9.9816 4.036 9.9816 5.7685V9.6768M10.3952 10L9.9816 10.3231M10.3952 10L13.5357 12.4538C14.4325 13.1546 14.8808 13.5049 14.9763 13.9594 15.012 14.129 15.0129 14.3042 14.979 14.4742 14.8882 14.9297 14.4433 15.2848 13.5538 15.9948 12.2127 17.0653 11.5421 17.6007 10.9782 17.4843 10.7722 17.4418 10.5802 17.3471 10.42 17.2088 9.9816 16.8303 9.9816 15.964 9.9816 14.2315V10.3231M10.3952 10L9.9816 9.6768M9.9816 10.3231L5.0038 14.2125M9.9816 10.3231V9.6768M9.9816 9.6768L5.0038 5.7874" stroke="currentColor" stroke-linecap="round" stroke-linejoin="round" stroke-width="2"/>
  <path d="M4.4829 10H4.3788M15.7329 10H15.6288M4.5871 10C4.5871 10.1151 4.4938 10.2083 4.3788 10.2083 4.2637 10.2083 4.1704 10.1151 4.1704 10 4.1704 9.8849 4.2637 9.7917 4.3788 9.7917 4.4938 9.7917 4.5871 9.8849 4.5871 10ZM15.8371 10C15.8371 10.1151 15.7438 10.2083 15.6288 10.2083 15.5137 10.2083 15.4204 10.1151 15.4204 10 15.4204 9.8849 15.5137 9.7917 15.6288 9.7917 15.7438 9.7917 15.8371 9.8849 15.8371 10Z" stroke="currentColor" stroke-linecap="round" stroke-linejoin="round" stroke-width="2"/>
</svg>
