<svg xmlns="http://www.w3.org/2000/svg" width="20" height="20" viewBox="0 0 20 20" fill="none">
  <path d="M10.2083 9.9997L13.2167 7.1345C13.8538 6.5279 14.1722 6.2246 14.1581 5.849 14.144 5.4734 13.8036 5.1949 13.1229 4.6378L12.7234 4.3109C11.5439 3.3456 10.9543 2.863 10.4777 3.0888 10.0012 3.3146 10.0012 4.0766 10.0012 5.6007V9.8024M10.2083 9.9997L10.0012 10.197M10.2083 9.9997L13.2167 12.8649C13.8538 13.4715 14.1722 13.7748 14.1581 14.1504 14.144 14.5259 13.8036 14.8045 13.1229 15.3616L12.7234 15.6885C11.5439 16.6538 10.9543 17.1364 10.4777 16.9107 10.0012 16.6848 10.0012 15.9228 10.0012 14.3988V10.197M10.2083 9.9997L10.0012 9.8024M10.0012 10.197L5.8333 14.1663M10.0012 10.197V9.8024M10.0012 9.8024L5.8333 5.833" stroke="currentColor" stroke-linecap="round" stroke-linejoin="round" stroke-width="2"/>
  <path d="M14.1667 10H15" stroke="currentColor" stroke-linecap="round" stroke-linejoin="round" stroke-width="2"/>
  <path d="M5.8333 10H5" stroke="currentColor" stroke-linecap="round" stroke-linejoin="round" stroke-width="2"/>
</svg>
