<svg xmlns="http://www.w3.org/2000/svg" width="20" height="20" viewBox="0 0 20 20" fill="none">
  <path d="M10 10.8333L12.5 12.5M10 10.8333C6.2671 13.1215 4.0681 12.3173 2.5 11.5423 2.5 13.2748 3.0677 14.7243 3.9134 15.8333M12.5 12.5L14.6648 8.3333 17.3967 3.0752C17.6379 2.5945 17.4423 2.0099 16.9599 1.7696 16.4948 1.5378 15.9289 1.71 15.673 2.1612L12.5 7.0116 10 10.8333M12.5 12.5C12.3175 14.1977 11.1889 17.6543 8.463 18.3333 6.9505 18.3333 5.1397 17.4413 3.9134 15.8333M14.6648 8.3333L12.5 7.0116M3.9134 15.8333C4.7787 15.9722 6.9001 16 8.463 15" stroke="currentColor" stroke-linecap="round" stroke-linejoin="round" stroke-width="2"/>
  <path d="M5 3.3333L5.1842 3.8312C5.4258 4.4841 5.5466 4.8105 5.7847 5.0486 6.0228 5.2867 6.3493 5.4075 7.0021 5.6491L7.5 5.8333 7.0021 6.0176C6.3493 6.2591 6.0228 6.3799 5.7847 6.6181 5.5466 6.8562 5.4258 7.1826 5.1842 7.8355L5 8.3333 4.8158 7.8355C4.5742 7.1826 4.4534 6.8562 4.2153 6.6181 3.9772 6.3799 3.6507 6.2591 2.9979 6.0176L2.5 5.8333 2.9979 5.6491C3.6507 5.4075 3.9772 5.2867 4.2153 5.0486 4.4534 4.8105 4.5742 4.4841 4.8158 3.8312L5 3.3333Z" stroke="currentColor" stroke-linejoin="round" stroke-width="2"/>
</svg>
