<svg xmlns="http://www.w3.org/2000/svg" width="20" height="20" viewBox="0 0 20 20" fill="none">
  <path d="M6.7209 9.1935L2.403 10.6862C0.3633 11.4484 3.1125 14.9645 4.0249 15.8722 4.9372 16.7799 8.6098 19.6527 9.3759 17.6234L10.8285 13.2801M2.6951 13.7417L4.9465 12.5935M6.3659 17.0813L7.411 15.0454" stroke="currentColor" stroke-linecap="round" stroke-linejoin="round" stroke-width="2"/>
  <path d="M10.522 6.8744L11.3572 6.0435C11.6858 5.7166 12.2591 5.7779 12.5877 6.1048L13.8912 7.4016C14.2197 7.7285 14.2197 8.2584 13.8912 8.5853L13.0559 9.4162C12.8097 9.6612 12.6459 9.9762 12.5872 10.3177L12.1751 12.7149C12.06 13.3843 11.2337 13.6459 10.7509 13.1657L6.9692 9.1762C6.4865 8.6959 6.5741 7.9265 7.247 7.812L9.6565 7.402C9.9998 7.3436 10.2758 7.1194 10.522 6.8744Z" stroke="currentColor" stroke-linecap="round" stroke-linejoin="round" stroke-width="2"/>
  <path d="M14.1205 7.5018L17.9393 3.5502C19.0701 2.4252 17.5155 0.9667 16.4327 2.0441L12.4378 5.8278" stroke="currentColor" stroke-linecap="round" stroke-linejoin="round" stroke-width="2"/>
</svg>
