<svg xmlns="http://www.w3.org/2000/svg" width="20" height="20" viewBox="0 0 20 20" fill="none">
  <path d="M2.5 8.3333C2.5 5.1906 2.5 3.6193 3.4763 2.643 4.4526 1.6667 6.024 1.6667 9.1667 1.6667H10.8333C13.976 1.6667 15.5474 1.6667 16.5237 2.643 17.5 3.6193 17.5 5.1906 17.5 8.3333V13.3333H2.5V8.3333Z" stroke="currentColor" stroke-linejoin="round" stroke-width="2"/>
  <path d="M1.6667 13.3333H18.3333" stroke="currentColor" stroke-linecap="round" stroke-width="2"/>
  <path d="M3.3333 18.3333L5.8333 13.3333" stroke="currentColor" stroke-linecap="round" stroke-width="2"/>
  <path d="M16.6667 18.3333L14.1667 13.3333" stroke="currentColor" stroke-linecap="round" stroke-width="2"/>
  <path d="M10.8333 7.5H9.1667" stroke="currentColor" stroke-linecap="round" stroke-linejoin="round" stroke-width="2"/>
  <path d="M6.6667 9.1667L6.6667 5.8333 5.8333 6.6667" stroke="currentColor" stroke-linecap="round" stroke-linejoin="round" stroke-width="2"/>
  <path d="M14.1667 9.1667L14.1667 5.8333 13.3333 6.6667" stroke="currentColor" stroke-linecap="round" stroke-linejoin="round" stroke-width="2"/>
  <path d="M10 16.6667L10 13.3333" stroke="currentColor" stroke-linecap="round" stroke-linejoin="round" stroke-width="2"/>
</svg>
