<svg xmlns="http://www.w3.org/2000/svg" width="20" height="20" viewBox="0 0 20 20" fill="none">
  <path d="M4.1682 1.6667C6.411 1.928 11.5828 3.2464 13.869 6.4546 14.1488 6.847 14.4433 7.1248 14.9261 7.247 15.5301 7.397 16.0299 7.802 16.2114 8.4134 16.4047 9.0787 16.7615 9.7803 16.6482 10.4917 16.6047 10.7641 16.4714 11.015 16.2048 11.5167L12.5823 18.3333" stroke="currentColor" stroke-linecap="round" stroke-linejoin="round" stroke-width="2"/>
  <path d="M3.3349 10C4.1682 11.4387 6.8052 12.1633 10.0015 11.4387 9.513 11.7231 8.6788 12.2363 7.7643 13.2926 7.2984 13.8307 7.0997 14.5795 7.0672 15.3355 7.0239 16.3458 6.874 17.4448 6.3557 18.3333" stroke="currentColor" stroke-linecap="round" stroke-linejoin="round" stroke-width="2"/>
  <path d="M4.1682 5.8333C4.1682 5.8333 5.8007 6.0743 7.0849 7.0833 7.9182 7.7381 9.5154 8.1746 10.0015 8.3333" stroke="currentColor" stroke-linecap="round" stroke-linejoin="round" stroke-width="2"/>
</svg>
