<svg xmlns="http://www.w3.org/2000/svg" width="20" height="20" viewBox="0 0 20 20" fill="none">
  <path d="M1.6816 16.9209C2.6221 18.2663 6.7162 19.3226 8.6498 16.8038 10.7412 17.8041 14.1908 17.494 16.9992 15.9278 17.3898 15.7101 17.7593 15.4352 17.9856 15.0494 18.4964 14.1786 18.5085 12.9703 17.5766 11.1876 16.0228 7.3089 13.2283 3.9043 12.1001 2.5351 11.8684 2.3239 10.3906 2.0239 9.4893 1.7357 9.0913 1.6123 8.35 1.5305 7.4634 2.6989 7.0431 3.2527 5.1338 4.6131 7.5564 5.5279 7.9317 5.6234 8.2076 5.7995 9.9198 5.4867 10.1428 5.448 10.6996 5.4867 11.0919 6.1753L11.9113 7.3472C11.9876 7.4563 12.0371 7.5818 12.0523 7.714 12.1958 8.9631 12.1912 10.5269 12.8876 11.3188 11.8119 10.541 9.0009 9.6172 6.8829 12.2459M1.6682 10.7833C2.6751 9.8258 5.5933 8.3133 8.6816 10.4347" stroke="currentColor" stroke-linecap="round" stroke-linejoin="round" stroke-width="2"/>
</svg>
