<svg xmlns="http://www.w3.org/2000/svg" width="20" height="20" viewBox="0 0 20 20" fill="none">
  <path d="M11.2535 2.198L11.0436 2.3711C10.5432 2.7835 10.293 2.9897 10 2.9897 9.707 2.9897 9.4568 2.7835 8.9564 2.3711L8.7465 2.198C8.3411 1.8639 8.1384 1.6968 7.8954 1.6703 7.6524 1.6438 7.4203 1.7634 6.9559 2.0026L6.7031 2.1328C6.4722 2.2518 6.3567 2.3113 6.294 2.4324 6.2314 2.5534 6.2458 2.6693 6.2747 2.901 6.5053 4.7524 7.9095 6.4978 9.6754 7.022 9.8132 7.0629 9.8821 7.0833 10 7.0833 10.1179 7.0833 10.1868 7.0629 10.3246 7.022 12.0905 6.4978 13.4947 4.7524 13.7253 2.901 13.7542 2.6693 13.7687 2.5534 13.706 2.4324 13.6433 2.3113 13.5278 2.2518 13.2969 2.1328L13.0441 2.0026C12.5798 1.7634 12.3476 1.6438 12.1046 1.6703 11.8616 1.6968 11.6589 1.8639 11.2535 2.198Z" stroke="currentColor" stroke-linecap="round" stroke-linejoin="round" stroke-width="2"/>
  <path d="M6.232 3.3333C4.4932 3.6723 3.3299 4.2917 2.2659 5.1916 1.955 5.4546 1.7995 5.586 1.7262 5.795 1.4849 6.4832 2.0126 8.8513 2.6641 9.1241 3.0698 9.294 3.6378 8.9457 4.7737 8.2491 5.8045 7.6169 7.0689 6.9621 8.3333 6.61" stroke="currentColor" stroke-linecap="round" stroke-linejoin="round" stroke-width="2"/>
  <path d="M13.7679 3.3333C15.5068 3.6723 16.6701 4.2917 17.7341 5.1916 18.045 5.4546 18.2005 5.586 18.2737 5.795 18.5151 6.4832 17.9874 8.8513 17.3359 9.1241 16.9302 9.294 16.3622 8.9457 15.2263 8.2491 14.1954 7.6169 12.9311 6.9621 11.6667 6.61" stroke="currentColor" stroke-linecap="round" stroke-linejoin="round" stroke-width="2"/>
  <path d="M15 8.3333L14.4962 12.8681C14.3394 14.2786 14.2611 14.9838 13.7865 15.4086 13.3118 15.8333 12.6023 15.8333 11.1832 15.8333H8.8168C7.3977 15.8333 6.6881 15.8333 6.2135 15.4086 5.7389 14.9838 5.6606 14.2786 5.5039 12.8681L5 8.3333" stroke="currentColor" stroke-linecap="round" stroke-linejoin="round" stroke-width="2"/>
  <path d="M12.8209 15.8333H7.1791C6.967 15.8333 6.861 15.8333 6.7603 15.8451 6.397 15.8875 6.0572 16.0431 5.7913 16.2888 5.7176 16.3568 5.6497 16.4365 5.514 16.5957 5.2469 16.909 5.1134 17.0657 5.0635 17.1852 4.8754 17.6357 5.1205 18.1471 5.5949 18.2943 5.7207 18.3333 5.9294 18.3333 6.3465 18.3333H13.6535C14.0707 18.3333 14.2793 18.3333 14.4051 18.2943 14.8795 18.1471 15.1246 17.6357 14.9365 17.1852 14.8867 17.0657 14.7531 16.909 14.486 16.5957 14.3503 16.4365 14.2824 16.3568 14.2087 16.2888 13.9428 16.0431 13.603 15.8875 13.2397 15.8451 13.139 15.8333 13.033 15.8333 12.8209 15.8333Z" stroke="currentColor" stroke-linecap="round" stroke-linejoin="round" stroke-width="2"/>
</svg>
