<svg xmlns="http://www.w3.org/2000/svg" width="20" height="20" viewBox="0 0 20 20" fill="none">
  <path d="M18.3333 3.3333V3.8215C18.3333 3.962 18.3333 4.0323 18.3297 4.1 18.2988 4.6687 18.0747 5.2098 17.6943 5.6338 17.649 5.6843 17.5993 5.734 17.5 5.8333 17.4007 5.9327 17.351 5.9824 17.3005 6.0276 16.8765 6.408 16.3353 6.6321 15.7666 6.663 15.6989 6.6667 15.6287 6.6667 15.4882 6.6667H13.6785C13.538 6.6667 13.4678 6.6667 13.4001 6.663 12.8313 6.6321 12.2902 6.408 11.8662 6.0276 11.8157 5.9824 11.766 5.9327 11.6667 5.8333" stroke="currentColor" stroke-linecap="round" stroke-linejoin="round" stroke-width="2"/>
  <path d="M17.0833 6.25L16.6667 8.3333 16.0898 10.3523C15.9197 10.9478 15.8333 11.5643 15.8333 12.1837V12.4429C15.8333 12.7583 15.8558 13.0734 15.9003 13.3857L16.25 16.6667" stroke="currentColor" stroke-linecap="round" stroke-linejoin="round" stroke-width="2"/>
  <path d="M2.9167 6.25L3.3333 8.3333 3.9102 10.3523C4.0803 10.9478 4.1667 11.5643 4.1667 12.1837V12.4429C4.1667 12.7583 4.1443 13.0734 4.0997 13.3857L3.75 16.6667" stroke="currentColor" stroke-linecap="round" stroke-linejoin="round" stroke-width="2"/>
  <path d="M1.6667 3.3333V3.8215C1.6667 3.962 1.6667 4.0323 1.6703 4.1 1.7012 4.6687 1.9254 5.2098 2.3057 5.6338 2.351 5.6843 2.4006 5.734 2.5 5.8333 2.5994 5.9327 2.649 5.9824 2.6995 6.0276 3.1235 6.408 3.6646 6.6321 4.2334 6.663 4.3011 6.6667 4.3713 6.6667 4.5118 6.6667H6.3215C6.462 6.6667 6.5323 6.6667 6.6 6.663 7.1687 6.6321 7.7098 6.408 8.1338 6.0276 8.1843 5.9824 8.234 5.9327 8.3333 5.8333" stroke="currentColor" stroke-linecap="round" stroke-linejoin="round" stroke-width="2"/>
  <path d="M12.5 10.8333H11.6667C10.7462 10.8333 10 10.0872 10 9.1667 10 10.0872 9.2538 10.8333 8.3333 10.8333H7.5" stroke="currentColor" stroke-linecap="round" stroke-linejoin="round" stroke-width="2"/>
  <path d="M12.5 15H11.6667C10.7462 15 10 14.2538 10 13.3333 10 14.2538 9.2538 15 8.3333 15H7.5" stroke="currentColor" stroke-linecap="round" stroke-linejoin="round" stroke-width="2"/>
</svg>
