<svg xmlns="http://www.w3.org/2000/svg" width="20" height="20" viewBox="0 0 20 20" fill="none">
  <path d="M10.8333 3.3333H8.3333C6.762 3.3333 5.9763 3.3333 5.4882 3.8215 5 4.3096 5 5.0953 5 6.6667V10H10.8333C12.6743 10 14.1667 8.5076 14.1667 6.6667 14.1667 4.8257 12.6743 3.3333 10.8333 3.3333Z" stroke="currentColor" stroke-linecap="round" stroke-linejoin="round" stroke-width="2"/>
  <path d="M11.6667 10H5V13.3333C5 14.9047 5 15.6903 5.4882 16.1785 5.9763 16.6667 6.762 16.6667 8.3333 16.6667H11.6667C13.5076 16.6667 15 15.1743 15 13.3333 15 11.4924 13.5076 10 11.6667 10Z" stroke="currentColor" stroke-linecap="round" stroke-linejoin="round" stroke-width="2"/>
</svg>
