<svg xmlns="http://www.w3.org/2000/svg" width="20" height="20" viewBox="0 0 20 20" fill="none">
  <path d="M17.5 11.6303V8.3697C17.5 6.9449 17.5 6.2324 17.1547 5.6495 16.8093 5.0666 16.1823 4.7206 14.9283 4.0286L12.4283 2.6491C11.2413 1.9941 10.6478 1.6667 10 1.6667 9.3522 1.6667 8.7588 1.9941 7.5718 2.6491L5.0718 4.0286C3.8177 4.7206 3.1906 5.0666 2.8453 5.6495 2.5 6.2324 2.5 6.9449 2.5 8.3697V11.6303C2.5 13.0552 2.5 13.7676 2.8453 14.3505 3.1906 14.9334 3.8177 15.2794 5.0718 15.9714L7.5718 17.3509C8.7588 18.0058 9.3522 18.3333 10 18.3333 10.6478 18.3333 11.2413 18.0058 12.4283 17.3509L14.9283 15.9714C16.1823 15.2794 16.8093 14.9334 17.1547 14.3505 17.5 13.7676 17.5 13.0552 17.5 11.6303Z" stroke="currentColor" stroke-linecap="round" stroke-linejoin="round" stroke-width="2"/>
  <path d="M10 13.3333C11.8409 13.3333 13.3333 11.8409 13.3333 10 13.3333 8.1591 11.8409 6.6667 10 6.6667 8.1591 6.6667 6.6667 8.1591 6.6667 10 6.6667 11.8409 8.1591 13.3333 10 13.3333Z" stroke="currentColor" stroke-linecap="round" stroke-linejoin="round" stroke-width="2"/>
</svg>
