<svg xmlns="http://www.w3.org/2000/svg" width="20" height="20" viewBox="0 0 20 20" fill="none">
  <path d="M13.3333 12.5C13.3333 15.7217 10.7217 18.3333 7.5 18.3333 4.2783 18.3333 1.6667 15.7217 1.6667 12.5 1.6667 9.2783 4.2783 6.6667 7.5 6.6667 10.7217 6.6667 13.3333 9.2783 13.3333 12.5Z" stroke="currentColor" stroke-width="2"/>
  <path d="M10 7.0833L9.5571 5.9761C9.4245 5.6446 9.3583 5.4789 9.2689 5.3415 9.0239 4.9647 8.6371 4.7028 8.1962 4.6152 8.0355 4.5833 7.857 4.5833 7.5 4.5833 7.143 4.5833 6.9645 4.5833 6.8038 4.6152 6.3629 4.7028 5.9761 4.9647 5.7311 5.3415 5.6418 5.4789 5.5755 5.6446 5.4429 5.9761L5 7.0833" stroke="currentColor" stroke-linecap="round" stroke-linejoin="round" stroke-width="2"/>
  <path d="M18.3333 6.25L17.0833 5M17.0833 5L15.8333 3.75M17.0833 5L15.8333 6.25M17.0833 5L18.3333 3.75" stroke="currentColor" stroke-linecap="round" stroke-width="2"/>
  <path d="M14.1667 4.9999C11.6667 4.9999 12.0079 2.8665 9.8832 1.8894 8.0165 1.0309 7.309 2.8396 7.5433 4.1667" stroke="currentColor" stroke-linecap="round" stroke-linejoin="round" stroke-width="2"/>
</svg>
