<svg xmlns="http://www.w3.org/2000/svg" width="20" height="20" viewBox="0 0 20 20" fill="none">
  <path d="M7.3831 12.0453C7.7049 11.7234 8.1082 11.5328 8.5266 11.4734M8.5266 11.4734C9.1343 11.3872 9.7739 11.5777 10.2413 12.0453 11.0307 12.8345 11.0307 14.1142 10.2413 14.9034 9.6142 15.5307 8.6772 15.6594 7.9229 15.2898 7.5922 15.1278 7.1721 15.1145 6.9117 15.3748L3.9533 18.3333M8.5266 11.4734C8.5266 11.4733 8.5266 11.4735 8.5266 11.4734ZM8.5266 11.4734C8.6128 10.8657 8.4223 10.2261 7.9548 9.7587 7.1655 8.9693 5.8858 8.9693 5.0965 9.7587 4.4693 10.3858 4.3406 11.3228 4.7102 12.0771 4.8722 12.4078 4.8855 12.8279 4.6251 13.0883L1.6667 16.0467" stroke="currentColor" stroke-linecap="round" stroke-linejoin="round" stroke-width="2"/>
  <path d="M12.6168 7.9548C12.2951 8.2766 11.8918 8.4672 11.4734 8.5266M11.4734 8.5266C10.8657 8.6128 10.2261 8.4223 9.7587 7.9548 8.9693 7.1655 8.9693 5.8858 9.7587 5.0965 10.3858 4.4693 11.3228 4.3406 12.0771 4.7102 12.4078 4.8722 12.8279 4.8855 13.0883 4.6251L16.0467 1.6667M11.4734 8.5266C11.3872 9.1343 11.5777 9.7739 12.0453 10.2413 12.8345 11.0307 14.1142 11.0307 14.9034 10.2413 15.5307 9.6142 15.6594 8.6772 15.2898 7.9229 15.1278 7.5922 15.1145 7.1721 15.3748 6.9117L18.3333 3.9533" stroke="currentColor" stroke-linecap="round" stroke-linejoin="round" stroke-width="2"/>
  <path d="M13.3333 15V16.6667M15 13.3333H16.6667" stroke="currentColor" stroke-linecap="round" stroke-linejoin="round" stroke-width="2"/>
  <path d="M6.6667 5V3.3333M5 6.6667H3.3333" stroke="currentColor" stroke-linecap="round" stroke-linejoin="round" stroke-width="2"/>
</svg>
