<svg xmlns="http://www.w3.org/2000/svg" width="20" height="20" viewBox="0 0 20 20" fill="none">
  <path d="M14.4998 4.8651C14.8573 4.5075 15.3054 4.2957 15.7702 4.2297M15.7702 4.2297C16.4456 4.1338 17.1562 4.3456 17.6756 4.8651 18.5526 5.742 18.5526 7.1639 17.6756 8.0409 16.969 8.7475 15.9087 8.8848 15.0646 8.4527 14.7196 8.2761 14.2776 8.263 14.0036 8.5371L8.5371 14.0036C8.263 14.2776 8.2761 14.7196 8.4527 15.0646 8.8848 15.9087 8.7475 16.969 8.0409 17.6756 7.1639 18.5526 5.742 18.5526 4.8651 17.6756 4.3456 17.1562 4.1338 16.4456 4.2297 15.7702M15.7702 4.2297C15.8662 3.5544 15.6544 2.8438 15.1349 2.3244 14.258 1.4474 12.8361 1.4474 11.9592 2.3244 11.2525 3.031 11.1153 4.0913 11.5473 4.9354 11.7239 5.2804 11.737 5.7224 11.4629 5.9964L5.9964 11.4629C5.7224 11.737 5.2804 11.7239 4.9354 11.5473 4.0913 11.1153 3.031 11.2525 2.3244 11.9592 1.4474 12.8361 1.4474 14.258 2.3244 15.1349 2.8438 15.6544 3.5544 15.8662 4.2297 15.7702M5.5002 15.1349C5.1427 15.4925 4.6946 15.7043 4.2297 15.7702" stroke="currentColor" stroke-linecap="round" stroke-linejoin="round" stroke-width="2"/>
</svg>
