<svg xmlns="http://www.w3.org/2000/svg" width="20" height="20" viewBox="0 0 20 20" fill="none">
  <path d="M16.6667 18.3333H5C4.0795 18.3333 3.3333 17.5872 3.3333 16.6667M3.3333 16.6667C3.3333 15.7462 4.0795 15 5 15H16.6667V7.5M3.3333 16.6667V6.6667C3.3333 4.3096 3.3333 3.1311 4.0656 2.3989 4.7978 1.6667 5.9763 1.6667 8.3333 1.6667H11.6667" stroke="currentColor" stroke-linecap="round" stroke-linejoin="round" stroke-width="2"/>
  <path d="M16.25 15C16.25 15 15.4167 15.6357 15.4167 16.6667 15.4167 17.6977 16.25 18.3333 16.25 18.3333" stroke="currentColor" stroke-linecap="round" stroke-linejoin="round" stroke-width="2"/>
  <path d="M12.9167 5.4167L16.6667 1.6667M15.8333 2.9167L16.6667 3.75M13.3333 6.6667C13.3333 7.5871 12.5872 8.3333 11.6667 8.3333 10.7462 8.3333 10 7.5871 10 6.6667 10 5.7462 10.7462 5 11.6667 5 12.5872 5 13.3333 5.7462 13.3333 6.6667Z" stroke="currentColor" stroke-linecap="round" stroke-linejoin="round" stroke-width="2"/>
</svg>
