<svg xmlns="http://www.w3.org/2000/svg" width="20" height="20" viewBox="0 0 20 20" fill="none">
  <path d="M10 18.3335C6.4645 18.3335 4.6967 18.3335 3.5983 17.1132 2.5 15.8928 2.5 13.9286 2.5 10.0002 2.5 6.0718 2.5 4.1076 3.5983 2.8872 4.6967 1.6669 6.4645 1.6669 10 1.6669 13.5355 1.6669 15.3033 1.6669 16.4017 2.8872 17.5 4.1076 17.5 6.0718 17.5 10.0002 17.5 13.9286 17.5 15.8928 16.4017 17.1132 15.3033 18.3335 13.5355 18.3335 10 18.3335Z" stroke="currentColor" stroke-linecap="round" stroke-linejoin="round" stroke-width="2"/>
  <path d="M6.6667 2.0833V8.1885C6.6667 9.2278 6.6667 9.7474 6.9887 9.9334 7.6123 10.2936 8.782 9.0919 9.3375 8.7301 9.6597 8.5203 9.8208 8.4153 10 8.4153 10.1792 8.4153 10.3403 8.5203 10.6625 8.7301 11.218 9.0919 12.3878 10.2936 13.0113 9.9334 13.3333 9.7474 13.3333 9.2278 13.3333 8.1885V2.0833" stroke="currentColor" stroke-linecap="round" stroke-linejoin="round" stroke-width="2"/>
</svg>
