<svg xmlns="http://www.w3.org/2000/svg" width="20" height="20" viewBox="0 0 20 20" fill="none">
  <path d="M4.4444 2.5C6.4948 2.4971 8.4738 3.2392 10 4.5833V17.5C8.4738 16.1559 6.4948 15.4138 4.4444 15.4167 3.1428 15.4167 2.4919 15.4167 2.2044 15.2327 2.0318 15.1222 1.9612 15.0516 1.8507 14.8789 1.6667 14.5914 1.6667 14.0784 1.6667 13.0524V5.336C1.6667 4.1462 1.6667 3.5513 2.124 3.069 2.5812 2.5868 3.0494 2.5619 3.9856 2.5122 4.1375 2.5041 4.2905 2.5 4.4444 2.5Z" stroke="currentColor" stroke-linecap="round" stroke-linejoin="round" stroke-width="2"/>
  <path d="M10 17.5V4.5833C11.5263 3.2392 13.5052 2.4971 15.5556 2.5 15.7095 2.5 15.8625 2.5041 16.0144 2.5122 16.9507 2.5619 17.4187 2.5868 17.8761 3.069 18.3333 3.5513 18.3333 4.1462 18.3333 5.336V10" stroke="currentColor" stroke-linecap="round" stroke-linejoin="round" stroke-width="2"/>
  <path d="M13.3333 15.5556C13.3333 15.5556 13.9583 15.5556 14.5833 16.6667 14.5833 16.6667 16.5687 13.8889 18.3333 13.3333" stroke="currentColor" stroke-linecap="round" stroke-linejoin="round" stroke-width="2"/>
</svg>
