<svg xmlns="http://www.w3.org/2000/svg" width="20" height="20" viewBox="0 0 20 20" fill="none">
  <path d="M16.6667 18.3333H5C4.0795 18.3333 3.3333 17.5872 3.3333 16.6667M3.3333 16.6667C3.3333 15.7462 4.0795 15 5 15H16.6667V5C16.6667 3.4286 16.6667 2.643 16.1785 2.1548 15.6903 1.6667 14.9047 1.6667 13.3333 1.6667H8.3333C5.9763 1.6667 4.7978 1.6667 4.0656 2.3989 3.3333 3.1311 3.3333 4.3096 3.3333 6.6667V16.6667Z" stroke="currentColor" stroke-linecap="round" stroke-linejoin="round" stroke-width="2"/>
  <path d="M16.25 15C16.25 15 15.4167 15.6357 15.4167 16.6667 15.4167 17.6977 16.25 18.3333 16.25 18.3333" stroke="currentColor" stroke-linecap="round" stroke-linejoin="round" stroke-width="2"/>
  <path d="M7.9167 7.5C8.607 7.5 9.1667 6.9404 9.1667 6.25 9.1667 5.5596 8.607 5 7.9167 5 7.2263 5 6.6667 5.5596 6.6667 6.25 6.6667 6.9404 7.2263 7.5 7.9167 7.5Z" stroke="currentColor" stroke-linecap="round" stroke-linejoin="round" stroke-width="2"/>
  <path d="M5.8333 15L11.5266 8.9272C11.8818 8.5483 12.378 8.3333 12.8973 8.3333 13.4392 8.3333 13.9547 8.5672 14.3115 8.975L16.6667 11.6667" stroke="currentColor" stroke-linecap="round" stroke-linejoin="round" stroke-width="2"/>
</svg>
