<svg xmlns="http://www.w3.org/2000/svg" width="20" height="20" viewBox="0 0 20 20" fill="none">
  <path d="M14.5879 1.6823C10.6908 2.3621 10 6.25 10 6.25V18.3333C10 18.3333 10.7389 14.2727 15.0003 13.799 15.4577 13.7482 15.8333 13.3813 15.8333 12.9215V2.8276C15.8333 2.1378 15.268 1.5636 14.5879 1.6823Z" stroke="currentColor" stroke-linecap="round" stroke-linejoin="round" stroke-width="2"/>
  <path d="M4.4444 4.1667C6.4948 4.1638 8.4738 4.9059 10 6.25V18.3333C8.4738 16.9893 6.4948 16.2472 4.4444 16.25 3.1428 16.25 2.4919 16.25 2.2044 16.066 2.0318 15.9555 1.9612 15.8849 1.8507 15.7123 1.6667 15.4247 1.6667 14.9118 1.6667 13.8858V7.0027C1.6667 5.8129 1.6667 5.218 2.124 4.7357 2.5812 4.2535 3.0494 4.2286 3.9856 4.1788 4.1375 4.1708 4.2905 4.1667 4.4444 4.1667Z" stroke="currentColor" stroke-linecap="round" stroke-linejoin="round" stroke-width="2"/>
  <path d="M10 18.3342C11.5263 16.9901 13.5052 16.248 15.5556 16.2508 16.8573 16.2508 17.5081 16.2508 17.7956 16.0668 17.9683 15.9563 18.0388 15.8857 18.1493 15.7132 18.3333 15.4256 18.3333 14.9126 18.3333 13.8866V7.0035C18.3333 5.8137 18.3333 5.2188 17.8761 4.7366 17.4187 4.2543 16.7696 4.2164 15.8333 4.1667" stroke="currentColor" stroke-linecap="round" stroke-linejoin="round" stroke-width="2"/>
</svg>
