<svg xmlns="http://www.w3.org/2000/svg" width="20" height="20" viewBox="0 0 20 20" fill="none">
  <path d="M17.5 13.3333H9.1667C8.2462 13.3333 7.5 12.5872 7.5 11.6667M7.5 11.6667C7.5 10.7462 8.2462 10 9.1667 10H17.5V4.1667C17.5 2.9882 17.5 2.3989 17.1339 2.0328 16.7678 1.6667 16.1785 1.6667 15 1.6667H9.1667C8.2462 1.6667 7.5 2.4129 7.5 3.3333V11.6667Z" stroke="currentColor" stroke-linecap="round" stroke-linejoin="round" stroke-width="2"/>
  <path d="M17.0833 10C17.0833 10 16.25 10.6357 16.25 11.6667 16.25 12.6977 17.0833 13.3333 17.0833 13.3333" stroke="currentColor" stroke-linecap="round" stroke-linejoin="round" stroke-width="2"/>
  <path d="M11.25 16.6667C11.25 17.6977 12.0833 18.3333 12.0833 18.3333" stroke="currentColor" stroke-linecap="round" stroke-linejoin="round" stroke-width="2"/>
  <path d="M12.5 18.3333H4.1667C3.2462 18.3333 2.5 17.5872 2.5 16.6667M5.8333 15H4.1667C3.2462 15 2.5 15.7462 2.5 16.6667M2.5 16.6667V8.3333C2.5 7.4129 3.2462 6.6667 4.1667 6.6667" stroke="currentColor" stroke-linecap="round" stroke-linejoin="round" stroke-width="2"/>
</svg>
