<svg xmlns="http://www.w3.org/2000/svg" width="20" height="20" viewBox="0 0 20 20" fill="none">
  <path d="M9.1667 6.6667V5.4167C9.1667 3.3456 10.8456 1.6667 12.9167 1.6667 14.9878 1.6667 16.6667 3.3456 16.6667 5.4167V6.6667" stroke="currentColor" stroke-linecap="round" stroke-linejoin="round" stroke-width="2"/>
  <path d="M9.1667 6.25V7.9167C9.1667 8.1468 9.3533 8.3333 9.5833 8.3333H10C10.2301 8.3333 10.4167 8.1468 10.4167 7.9167V6.6667C10.4167 6.4366 10.2301 6.25 10 6.25H9.1667Z" stroke="currentColor" stroke-linecap="round" stroke-linejoin="round" stroke-width="2"/>
  <path d="M16.6667 6.25V7.9167C16.6667 8.1468 16.4801 8.3333 16.25 8.3333H15.8333C15.6033 8.3333 15.4167 8.1468 15.4167 7.9167V6.6667C15.4167 6.4366 15.6033 6.25 15.8333 6.25H16.6667Z" stroke="currentColor" stroke-linecap="round" stroke-linejoin="round" stroke-width="2"/>
  <path d="M6.6667 1.6813C5.3721 1.7203 4.6 1.8647 4.0656 2.3991 3.3333 3.1313 3.3333 4.3099 3.3333 6.6669V16.6669M16.6667 18.3336H5C4.0795 18.3336 3.3333 17.5873 3.3333 16.6669M3.3333 16.6669C3.3333 15.7464 4.0795 15.0002 5 15.0002H16.6667V11.6671" stroke="currentColor" stroke-linecap="round" stroke-linejoin="round" stroke-width="2"/>
  <path d="M16.25 15C16.25 15 15.4167 15.6357 15.4167 16.6667 15.4167 17.6977 16.25 18.3333 16.25 18.3333" stroke="currentColor" stroke-linecap="round" stroke-linejoin="round" stroke-width="2"/>
</svg>
