<svg xmlns="http://www.w3.org/2000/svg" width="20" height="20" viewBox="0 0 20 20" fill="none">
  <path d="M11.8056 6.5278L15.6944 2.6389M16.6667 4.5833C16.6667 6.1942 15.3608 7.5 13.75 7.5 12.1392 7.5 10.8333 6.1942 10.8333 4.5833 10.8333 2.9725 12.1392 1.6667 13.75 1.6667 15.3608 1.6667 16.6667 2.9725 16.6667 4.5833Z" stroke="currentColor" stroke-linejoin="round" stroke-width="2"/>
  <path d="M15.8333 9.5833V14.984C15.8333 16.9056 15.8333 17.8663 15.1893 18.2103 13.9421 18.8762 11.6027 16.6543 10.4917 15.9853 9.8473 15.5973 9.5252 15.4033 9.1667 15.4033 8.8082 15.4033 8.486 15.5973 7.8417 15.9853 6.7307 16.6543 4.3912 18.8762 3.144 18.2103 2.5 17.8663 2.5 16.9056 2.5 14.984V8.0896C2.5 5.0618 2.5 3.5479 3.4763 2.6073 4.4085 1.7092 5.8831 1.6686 8.75 1.6668" stroke="currentColor" stroke-linecap="round" stroke-linejoin="round" stroke-width="2"/>
  <path d="M2.9167 5.8333H8.3333" stroke="currentColor" stroke-linecap="round" stroke-width="2"/>
</svg>
