<svg xmlns="http://www.w3.org/2000/svg" width="20" height="20" viewBox="0 0 20 20" fill="none">
  <path d="M16.2858 1.6667H5.4167C4.2661 1.6667 3.3333 2.5994 3.3333 3.75 3.3333 3.7878 3.3343 3.8254 3.3363 3.8628M5.4167 3.75H13.3333C14.119 3.75 14.5118 3.75 14.7559 3.9941 15 4.2382 15 4.631 15 5.4167M3.3363 3.8628C3.3949 4.9609 4.3039 5.8333 5.4167 5.8333H13.3333C14.9047 5.8333 15.6903 5.8333 16.1785 6.3215 16.6667 6.8096 16.6667 7.5953 16.6667 9.1667L16.6667 15C16.6667 16.5713 16.6667 17.357 16.1785 17.8452 15.6903 18.3333 14.9047 18.3333 13.3333 18.3333H8.3363C5.9793 18.3333 4.8008 18.3333 4.0686 17.6011 3.3363 16.8688 3.3363 15.6903 3.3363 13.3333V3.8628ZM3.3363 3.8628V3.7511" stroke="currentColor" stroke-linecap="round" stroke-linejoin="round" stroke-width="2"/>
  <path d="M12.9167 10.4167H7.0833M10.4167 13.75H7.0833" stroke="currentColor" stroke-linecap="round" stroke-linejoin="round" stroke-width="2"/>
</svg>
