<svg xmlns="http://www.w3.org/2000/svg" width="20" height="20" viewBox="0 0 20 20" fill="none">
  <path d="M11.6667 5L14.1667 7.5 16.6667 5M14.1667 7.0833V1.6667" stroke="currentColor" stroke-linecap="round" stroke-linejoin="round" stroke-width="2"/>
  <path d="M16.6667 10V15H5C4.0795 15 3.3333 15.7462 3.3333 16.6667M10 1.6667H8.3333C5.9763 1.6667 4.7978 1.6667 4.0656 2.3989 3.3333 3.1311 3.3333 4.3096 3.3333 6.6667V16.6667M3.3333 16.6667C3.3333 17.5872 4.0795 18.3333 5 18.3333H16.6667" stroke="currentColor" stroke-linecap="round" stroke-linejoin="round" stroke-width="2"/>
  <path d="M16.25 15C16.25 15 15.4167 15.6357 15.4167 16.6667 15.4167 17.6977 16.25 18.3333 16.25 18.3333" stroke="currentColor" stroke-linecap="round" stroke-linejoin="round" stroke-width="2"/>
</svg>
