<svg xmlns="http://www.w3.org/2000/svg" width="20" height="20" viewBox="0 0 20 20" fill="none">
  <path d="M15.4167 14.5833L17.5 16.6667M15.8333 12.5C15.8333 13.8808 14.7141 15 13.3333 15 11.9526 15 10.8333 13.8808 10.8333 12.5 10.8333 11.1193 11.9526 10 13.3333 10 14.7141 10 15.8333 11.1193 15.8333 12.5Z" stroke="currentColor" stroke-linecap="round" stroke-linejoin="round" stroke-width="2"/>
  <path d="M14.1667 18.3333H4.1667C3.2462 18.3333 2.5 17.5872 2.5 16.6667M8.3333 15H4.1667C3.2462 15 2.5 15.7462 2.5 16.6667M2.5 16.6667V6.6667C2.5 4.3096 2.5 3.1311 3.2322 2.3989 3.9645 1.6667 5.143 1.6667 7.5 1.6667H12.5C14.0713 1.6667 14.857 1.6667 15.3452 2.1548 15.8333 2.643 15.8333 3.4286 15.8333 5V7.5" stroke="currentColor" stroke-linecap="round" stroke-linejoin="round" stroke-width="2"/>
</svg>
