<svg xmlns="http://www.w3.org/2000/svg" width="20" height="20" viewBox="0 0 20 20" fill="none">
  <path d="M16.6667 18.3333H14.1667M3.3333 16.6667C3.3333 15.7462 4.0795 15 5 15H5.8333M3.3333 16.6667C3.3333 17.5872 4.0795 18.3333 5 18.3333H5.8333M3.3333 16.6667V12.5M14.1667 1.6703C15.1998 1.6852 15.7856 1.7619 16.1785 2.1548 16.5715 2.5478 16.6481 3.1335 16.6631 4.1667M3.3968 4.1667C3.4767 3.3541 3.6573 2.8071 4.0656 2.3989 4.4738 1.9907 5.0208 1.81 5.8333 1.7301M9.1667 1.6667H10.8333M16.6667 7.5V9.1667M3.3333 7.5V9.1667M16.6667 12.5V15H14.1667M10.8333 18.3333H9.1667M10.8333 15H9.1667" stroke="currentColor" stroke-linecap="round" stroke-linejoin="round" stroke-width="2"/>
  <path d="M16.25 15C16.25 15 15.4167 15.6357 15.4167 16.6667 15.4167 17.6977 16.25 18.3333 16.25 18.3333" stroke="currentColor" stroke-linecap="round" stroke-linejoin="round" stroke-width="2"/>
</svg>
