<svg xmlns="http://www.w3.org/2000/svg" width="20" height="20" viewBox="0 0 20 20" fill="none">
  <path d="M1.6667 12.5H12.5C13.2766 12.5 13.6648 12.5 13.9712 12.6268 14.3795 12.796 14.704 13.1205 14.8732 13.5288 15 13.8352 15 14.2234 15 15 15 15.7766 15 16.1648 14.8732 16.4712 14.704 16.8795 14.3795 17.204 13.9712 17.3732 13.6648 17.5 13.2766 17.5 12.5 17.5H1.6667" stroke="currentColor" stroke-linecap="round" stroke-linejoin="round" stroke-width="2"/>
  <path d="M1.6667 2.5H12.5C13.2766 2.5 13.6648 2.5 13.9712 2.6269 14.3795 2.796 14.704 3.1205 14.8732 3.5289 15 3.8352 15 4.2234 15 5 15 5.7766 15 6.1649 14.8732 6.4711 14.704 6.8795 14.3795 7.204 13.9712 7.3731 13.6648 7.5 13.2766 7.5 12.5 7.5H1.6667" stroke="currentColor" stroke-linecap="round" stroke-linejoin="round" stroke-width="2"/>
  <path d="M18.3333 7.5H7.5C6.7234 7.5 6.3351 7.5 6.0289 7.6269 5.6205 7.796 5.296 8.1205 5.1269 8.5288 5 8.8352 5 9.2234 5 10 5 10.7766 5 11.1648 5.1269 11.4712 5.296 11.8795 5.6205 12.204 6.0289 12.3732 6.3351 12.5 6.7234 12.5 7.5 12.5H18.3333" stroke="currentColor" stroke-linecap="round" stroke-linejoin="round" stroke-width="2"/>
  <path d="M17.5 12.5C16.5795 12.5 15.8333 11.3808 15.8333 10 15.8333 8.6193 16.5795 7.5 17.5 7.5" stroke="currentColor" stroke-linecap="round" stroke-width="2"/>
  <path d="M2.5 2.5C3.4205 2.5 4.1667 3.6193 4.1667 5 4.1667 6.3807 3.4205 7.5 2.5 7.5" stroke="currentColor" stroke-linecap="round" stroke-width="2"/>
  <path d="M2.5 12.5C3.4205 12.5 4.1667 13.6193 4.1667 15 4.1667 16.3808 3.4205 17.5 2.5 17.5" stroke="currentColor" stroke-linecap="round" stroke-width="2"/>
</svg>
