<svg xmlns="http://www.w3.org/2000/svg" width="20" height="20" viewBox="0 0 20 20" fill="none">
  <path d="M10.8333 2.0833H9.1667C6.8096 2.0833 5.6311 2.0833 4.8989 2.8207 4.1667 3.5581 4.1667 4.745 4.1667 7.1186V14.1073C4.1667 16.3592 4.1667 17.4852 4.8702 17.8295 5.5738 18.1739 6.453 17.4783 8.2112 16.087L8.4554 15.8938C9.1969 15.3071 9.5677 15.0137 10 15.0137 10.4323 15.0137 10.8031 15.3071 11.5446 15.8938L11.7888 16.087C13.5471 17.4783 14.4262 18.1739 15.1297 17.8295 15.8333 17.4852 15.8333 16.3592 15.8333 14.1073V7.1186C15.8333 4.745 15.8333 3.5581 15.1011 2.8207 14.3688 2.0833 13.1903 2.0833 10.8333 2.0833Z" stroke="currentColor" stroke-linecap="round" stroke-linejoin="round" stroke-width="2"/>
  <path d="M10.0008 5.4167V10.4167M12.5049 7.9125L7.5049 7.9125" stroke="currentColor" stroke-linecap="round" stroke-linejoin="round" stroke-width="2"/>
</svg>
