<svg xmlns="http://www.w3.org/2000/svg" width="20" height="20" viewBox="0 0 20 20" fill="none">
  <path d="M4.4444 2.5C6.4948 2.4971 8.4738 3.2392 10 4.5833V17.5C8.4738 16.1559 6.4948 15.4138 4.4444 15.4167 3.1428 15.4167 2.4919 15.4167 2.2044 15.2327 2.0318 15.1222 1.9612 15.0516 1.8507 14.8789 1.6667 14.5914 1.6667 14.0784 1.6667 13.0524V5.336C1.6667 4.1462 1.6667 3.5513 2.124 3.069 2.5812 2.5868 3.0494 2.5619 3.9856 2.5122 4.1375 2.5041 4.2905 2.5 4.4444 2.5Z" stroke="currentColor" stroke-linecap="round" stroke-linejoin="round" stroke-width="2"/>
  <path d="M15.5556 2.5C13.5052 2.4971 11.5263 3.2392 10 4.5833V17.5C11.5263 16.1559 13.5052 15.4138 15.5556 15.4167 16.8573 15.4167 17.5081 15.4167 17.7956 15.2327 17.9683 15.1222 18.0388 15.0516 18.1493 14.8789 18.3333 14.5914 18.3333 14.0784 18.3333 13.0524V5.336C18.3333 4.1462 18.3333 3.5513 17.8761 3.069 17.4187 2.5868 16.9507 2.5619 16.0144 2.5122 15.8625 2.5041 15.7095 2.5 15.5556 2.5Z" stroke="currentColor" stroke-linecap="round" stroke-linejoin="round" stroke-width="2"/>
  <path d="M15.8333 6.1047C15.7411 6.1018 15.6485 6.1003 15.5556 6.1003 15.0873 6.0996 14.6229 6.1378 14.1667 6.2131M15.8333 9.1723C15.7411 9.1693 15.6485 9.1678 15.5556 9.1678 14.5008 9.1663 13.465 9.362 12.5 9.7353M15.8333 12.0842C15.7411 12.0813 15.6485 12.0798 15.5556 12.0798 14.5008 12.0783 13.465 12.2739 12.5 12.6473" stroke="currentColor" stroke-linecap="round" stroke-linejoin="round" stroke-width="2"/>
  <path d="M4.1667 6.1047C4.2589 6.1018 4.3515 6.1003 4.4444 6.1003 4.9127 6.0996 5.3771 6.1378 5.8333 6.2131M4.1667 9.1723C4.2589 9.1693 4.3515 9.1678 4.4444 9.1678 5.4992 9.1663 6.535 9.362 7.5 9.7353M4.1667 12.0842C4.2589 12.0813 4.3515 12.0798 4.4444 12.0798 5.4992 12.0783 6.535 12.2739 7.5 12.6473" stroke="currentColor" stroke-linecap="round" stroke-linejoin="round" stroke-width="2"/>
</svg>
