<svg xmlns="http://www.w3.org/2000/svg" width="20" height="20" viewBox="0 0 20 20" fill="none">
  <path d="M16.25 18.3333H4.5833C3.6629 18.3333 2.9167 17.5872 2.9167 16.6667M2.9167 16.6667C2.9167 15.7462 3.6629 15 4.5833 15H16.25V11.6667M2.9167 16.6667V6.6667C2.9167 4.3096 2.9167 3.1311 3.6489 2.3989 4.3811 1.6667 5.5596 1.6667 7.9167 1.6667H9.5833" stroke="currentColor" stroke-linecap="round" stroke-linejoin="round" stroke-width="2"/>
  <path d="M15.8333 15C15.8333 15 15 15.6357 15 16.6667 15 17.6977 15.8333 18.3333 15.8333 18.3333" stroke="currentColor" stroke-linecap="round" stroke-linejoin="round" stroke-width="2"/>
  <path d="M15.8333 4.5833V3.3333C15.8333 2.4129 15.0872 1.6667 14.1667 1.6667 13.2462 1.6667 12.5 2.4129 12.5 3.3333V4.5833M15.8333 4.5833H12.5M15.8333 4.5833C16.5237 4.5833 17.0833 5.143 17.0833 5.8333V6.4583C17.0833 7.0408 17.0833 7.332 16.9882 7.5617 16.8613 7.868 16.618 8.1113 16.3117 8.2382 16.082 8.3333 15.7907 8.3333 15.2083 8.3333H13.125C12.5426 8.3333 12.2513 8.3333 12.0217 8.2382 11.7153 8.1113 11.472 7.868 11.3452 7.5617 11.25 7.332 11.25 7.0408 11.25 6.4583V5.8333C11.25 5.143 11.8097 4.5833 12.5 4.5833" stroke="currentColor" stroke-linecap="round" stroke-linejoin="round" stroke-width="2"/>
</svg>
