<svg xmlns="http://www.w3.org/2000/svg" width="20" height="20" viewBox="0 0 20 20" fill="none">
  <path d="M16.6667 11.6667V15H5C4.0795 15 3.3333 15.7462 3.3333 16.6667M8.3333 1.6667C5.9763 1.6667 4.7978 1.6667 4.0656 2.3989 3.3333 3.1311 3.3333 4.3096 3.3333 6.6667V16.6667M3.3333 16.6667C3.3333 17.5872 4.0795 18.3333 5 18.3333H16.6667" stroke="currentColor" stroke-linecap="round" stroke-linejoin="round" stroke-width="2"/>
  <path d="M11.6667 7.0447V4.1566C11.6667 2.9829 11.6667 2.396 12.0328 2.0313 12.3989 1.6667 12.9882 1.6667 14.1667 1.6667 15.3452 1.6667 15.9344 1.6667 16.3006 2.0313 16.6667 2.396 16.6667 2.9829 16.6667 4.1566V7.0447C16.6667 7.8114 16.6667 8.1947 16.4268 8.3066 16.1868 8.4185 15.8912 8.1731 15.2998 7.6824L14.7002 7.1846C14.4451 6.9729 14.3175 6.867 14.1667 6.867 14.0158 6.867 13.8883 6.9729 13.6332 7.1846L13.0335 7.6824C12.4422 8.1731 12.1465 8.4185 11.9066 8.3066 11.6667 8.1947 11.6667 7.8114 11.6667 7.0447Z" stroke="currentColor" stroke-linecap="round" stroke-linejoin="round" stroke-width="2"/>
  <path d="M16.25 15C16.25 15 15.4167 15.6357 15.4167 16.6667 15.4167 17.6977 16.25 18.3333 16.25 18.3333" stroke="currentColor" stroke-linecap="round" stroke-linejoin="round" stroke-width="2"/>
</svg>
