<svg xmlns="http://www.w3.org/2000/svg" width="20" height="20" viewBox="0 0 20 20" fill="none">
  <path d="M16.6667 18.3333H5C4.0795 18.3333 3.3333 17.5872 3.3333 16.6667M3.3333 16.6667C3.3333 15.7462 4.0795 15 5 15H16.6667V5C16.6667 3.4287 16.6667 2.643 16.1785 2.1549 15.9063 1.8827 15.5417 1.7623 15 1.709M3.3333 16.6667V6.6667C3.3333 4.3097 3.3333 3.1312 4.0656 2.3989 4.4738 1.9907 5.0208 1.8101 5.8333 1.7301" stroke="currentColor" stroke-linecap="round" stroke-linejoin="round" stroke-width="2"/>
  <path d="M16.25 15C16.25 15 15.4167 15.6357 15.4167 16.6667 15.4167 17.6977 16.25 18.3333 16.25 18.3333" stroke="currentColor" stroke-linecap="round" stroke-linejoin="round" stroke-width="2"/>
  <path d="M7.5 4.1666C7.5 4.1666 9.3413 1.6667 10 1.6667 10.6588 1.6667 12.5 4.1667 12.5 4.1667" stroke="currentColor" stroke-linecap="round" stroke-linejoin="round" stroke-width="2"/>
  <path d="M7.5 8.3333C7.5 8.3333 9.3413 5.8333 10 5.8333 10.6588 5.8333 12.5 8.3333 12.5 8.3333M10 6.6667V10.8333" stroke="currentColor" stroke-linecap="round" stroke-linejoin="round" stroke-width="2"/>
</svg>
