<svg xmlns="http://www.w3.org/2000/svg" width="20" height="20" viewBox="0 0 20 20" fill="none">
  <path d="M2.5 7.5H15C15.7766 7.5 16.1648 7.5 16.4712 7.6269 16.8795 7.796 17.204 8.1205 17.3732 8.5288 17.5 8.8352 17.5 9.2234 17.5 10 17.5 10.7766 17.5 11.1648 17.3732 11.4712 17.204 11.8795 16.8795 12.204 16.4712 12.3732 16.1648 12.5 15.7766 12.5 15 12.5H10.8333" stroke="currentColor" stroke-linecap="round" stroke-linejoin="round" stroke-width="2"/>
  <path d="M5 12.5H2.5" stroke="currentColor" stroke-linecap="round" stroke-linejoin="round" stroke-width="2"/>
  <path d="M10.8333 12.5H12.5C13.2766 12.5 13.6648 12.5 13.9712 12.6268 14.3795 12.796 14.704 13.1205 14.8732 13.5288 15 13.8352 15 14.2234 15 15 15 15.7766 15 16.1648 14.8732 16.4712 14.704 16.8795 14.3795 17.204 13.9712 17.3732 13.6648 17.5 13.2766 17.5 12.5 17.5H2.5" stroke="currentColor" stroke-linecap="round" stroke-linejoin="round" stroke-width="2"/>
  <path d="M2.5 2.5H11.6667C12.4433 2.5 12.8315 2.5 13.1378 2.6269 13.5462 2.796 13.8707 3.1205 14.0398 3.5289 14.1667 3.8352 14.1667 4.2234 14.1667 5 14.1667 5.7766 14.1667 6.1649 14.0398 6.4711 13.8707 6.8795 13.5462 7.204 13.1378 7.3731 12.8315 7.5 12.4433 7.5 11.6667 7.5H2.5" stroke="currentColor" stroke-linecap="round" stroke-linejoin="round" stroke-width="2"/>
  <path d="M10.8333 7.5L10.8333 12.6588C10.8333 13.5871 10.8333 14.0513 10.5613 14.1502 10.2891 14.2492 9.9818 13.8968 9.3673 13.1919L8.9661 12.7317C8.672 12.3944 8.525 12.2257 8.3333 12.2257 8.1417 12.2257 7.9947 12.3944 7.7006 12.7317L7.2994 13.1919C6.6848 13.8968 6.3775 14.2492 6.1054 14.1502 5.8333 14.0513 5.8333 13.5871 5.8333 12.6588L5.8333 7.5" stroke="currentColor" stroke-linecap="round" stroke-linejoin="round" stroke-width="2"/>
</svg>
