<svg xmlns="http://www.w3.org/2000/svg" width="20" height="20" viewBox="0 0 20 20" fill="none">
  <path d="M16.6667 18.3333H5C4.0795 18.3333 3.3333 17.5872 3.3333 16.6667M3.3333 16.6667C3.3333 15.7462 4.0795 15 5 15H16.6667V5C16.6667 3.4286 16.6667 2.643 16.1785 2.1548 15.6903 1.6667 14.9047 1.6667 13.3333 1.6667H8.3333C5.9763 1.6667 4.7978 1.6667 4.0656 2.3989 3.3333 3.1311 3.3333 4.3096 3.3333 6.6667V16.6667Z" stroke="currentColor" stroke-linecap="round" stroke-linejoin="round" stroke-width="2"/>
  <path d="M16.25 15C16.25 15 15.4167 15.6357 15.4167 16.6667 15.4167 17.6977 16.25 18.3333 16.25 18.3333" stroke="currentColor" stroke-linecap="round" stroke-linejoin="round" stroke-width="2"/>
  <path d="M10 5V8.3333" stroke="currentColor" stroke-linecap="round" stroke-linejoin="round" stroke-width="2"/>
  <path d="M10.1042 11.4583H10M10.2083 11.4583C10.2083 11.5734 10.1151 11.6667 10 11.6667 9.8849 11.6667 9.7917 11.5734 9.7917 11.4583 9.7917 11.3433 9.8849 11.25 10 11.25 10.1151 11.25 10.2083 11.3433 10.2083 11.4583Z" stroke="currentColor" stroke-linecap="round" stroke-linejoin="round" stroke-width="2"/>
</svg>
