<svg xmlns="http://www.w3.org/2000/svg" width="20" height="20" viewBox="0 0 20 20" fill="none">
  <circle cx="13.333333333333334" cy="12.5" r="1.6666666666666667" stroke="currentColor" stroke-linecap="round" stroke-linejoin="round" stroke-width="2"/>
  <circle cx="6.666666666666667" cy="12.5" r="1.6666666666666667" stroke="currentColor" stroke-linecap="round" stroke-linejoin="round" stroke-width="2"/>
  <path d="M6.6667 17.5H13.3333C15.6903 17.5 16.8688 17.5 17.6011 16.7678 18.3333 16.0355 18.3333 14.857 18.3333 12.5 18.3333 10.143 18.3333 8.9645 17.6011 8.2322 16.8688 7.5 15.6903 7.5 13.3333 7.5H6.6667C4.3096 7.5 3.1311 7.5 2.3989 8.2322 1.6667 8.9645 1.6667 10.143 1.6667 12.5 1.6667 14.857 1.6667 16.0355 2.3989 16.7678 3.1311 17.5 4.3096 17.5 6.6667 17.5Z" stroke="currentColor" stroke-linecap="round" stroke-linejoin="round" stroke-width="2"/>
  <path d="M11.6667 2.5H8.3333C5.9763 2.5 4.7978 2.5 4.0656 3.2322 3.3333 3.9645 3.3333 5.143 3.3333 7.5H16.6667C16.6667 5.143 16.6667 3.9645 15.9344 3.2322 15.2022 2.5 14.0237 2.5 11.6667 2.5Z" stroke="currentColor" stroke-linecap="round" stroke-linejoin="round" stroke-width="2"/>
</svg>
