<svg xmlns="http://www.w3.org/2000/svg" width="20" height="20" viewBox="0 0 20 20" fill="none">
  <path d="M10.7353 10C11.7099 10 12.5 10.7462 12.5 11.6667 12.5 12.5872 11.7099 13.3333 10.7353 13.3333H8.8333C8.2048 13.3333 7.8905 13.3333 7.6953 13.1381 7.5 12.9428 7.5 12.6285 7.5 12V10M10.7353 10C11.7099 10 12.5 9.2538 12.5 8.3333 12.5 7.4129 11.7099 6.6667 10.7353 6.6667H8.8333C8.2048 6.6667 7.8905 6.6667 7.6953 6.8619 7.5 7.0572 7.5 7.3715 7.5 8V10M10.7353 10H7.5" stroke="currentColor" stroke-linecap="round" stroke-linejoin="round" stroke-width="2"/>
  <path d="M18.3333 10C17.4128 10 16.6667 9.2538 16.6667 8.3333V6.6667C16.6667 3.9089 16.0911 3.3333 13.3333 3.3333H6.6667C3.9089 3.3333 3.3333 3.9089 3.3333 6.6667V8.3333C3.3333 9.2538 2.5871 10 1.6667 10" stroke="currentColor" stroke-linecap="round" stroke-linejoin="round" stroke-width="2"/>
  <path d="M1.6667 10C2.5871 10 3.3333 10.7462 3.3333 11.6667L3.3333 13.3333C3.3333 16.0911 3.9089 16.6667 6.6667 16.6667H13.3333C16.0911 16.6667 16.6667 16.0911 16.6667 13.3333V11.6667C16.6667 10.7462 17.4128 10 18.3333 10" stroke="currentColor" stroke-linecap="round" stroke-linejoin="round" stroke-width="2"/>
</svg>
