<svg xmlns="http://www.w3.org/2000/svg" width="20" height="20" viewBox="0 0 20 20" fill="none">
  <path d="M2.2943 14.722C2.4554 15.5957 2.7402 16.2386 3.2441 16.7469 3.748 17.2553 4.3854 17.5426 5.2514 17.7051M2.0889 8.3331C2.0848 8.8244 2.0848 9.3554 2.0848 9.9303 2.0848 10.5053 2.0848 11.0363 2.0889 11.5276M8.4181 17.9123C8.9051 17.9165 9.4315 17.9165 10.0014 17.9165 10.5713 17.9165 11.0977 17.9165 11.5848 17.9123M14.7514 17.7051C15.6174 17.5426 16.2548 17.2553 16.7587 16.7469 17.2626 16.2386 17.5475 15.5957 17.7086 14.722M17.914 8.3331C17.9181 8.8243 17.9181 9.3557 17.9181 9.9303 17.9181 10.5053 17.9181 11.0362 17.914 11.5274" stroke="currentColor" stroke-linecap="round" stroke-linejoin="round" stroke-width="2"/>
  <path d="M2.0831 5.4166C2.2486 4.505 2.5412 3.834 3.0588 3.3036 4.2497 2.0832 6.1664 2.0832 9.9998 2.0832 13.8332 2.0832 15.7499 2.0832 16.9408 3.3036 17.4584 3.834 17.751 4.505 17.9165 5.4166" stroke="currentColor" stroke-linecap="round" stroke-linejoin="round" stroke-width="2"/>
</svg>
