<svg xmlns="http://www.w3.org/2000/svg" width="20" height="20" viewBox="0 0 20 20" fill="none">
  <path d="M5.4167 2.0833C4.5051 2.2488 3.8341 2.5414 3.3037 3.059 2.0833 4.2499 2.0833 6.1666 2.0833 10 2.0833 13.8334 2.0833 15.7501 3.3037 16.941 3.8341 17.4586 4.5051 17.7513 5.4167 17.9167" stroke="currentColor" stroke-linecap="round" stroke-linejoin="round" stroke-width="2"/>
  <path d="M14.7413 2.2929C15.6098 2.4539 16.2488 2.7388 16.7542 3.2427 17.2594 3.7466 17.5451 4.384 17.7066 5.25M8.3333 2.0875C8.8217 2.0833 9.4069 2.0833 9.9784 2.0833 10.5499 2.0833 11.1874 2.0833 11.6758 2.0875M17.9125 8.4167C17.9167 8.9037 17.9167 9.4301 17.9167 10 17.9167 10.5699 17.9167 11.0963 17.9125 11.5834M17.7066 14.75C17.5451 15.616 17.2594 16.2534 16.7542 16.7573 16.2488 17.2612 15.6098 17.5461 14.7413 17.7072M8.3333 17.9125C8.8217 17.9167 9.4069 17.9167 9.9784 17.9167 10.5498 17.9167 11.1874 17.9167 11.6758 17.9125" stroke="currentColor" stroke-linecap="round" stroke-linejoin="round" stroke-width="2"/>
  <path d="M10 2.0833V3.3333M10 16.6667V17.9167M7.5 10H12.5M16.276 10H17.5M10 7.5L10 12.5" stroke="currentColor" stroke-linecap="round" stroke-linejoin="round" stroke-width="2"/>
</svg>
