<svg xmlns="http://www.w3.org/2000/svg" width="20" height="20" viewBox="0 0 20 20" fill="none">
  <path d="M5.25 2.2929C4.384 2.4539 3.7466 2.7388 3.2427 3.2427 2.7388 3.7466 2.4539 4.384 2.2929 5.25M14.75 2.2929C15.616 2.4539 16.2534 2.7388 16.7573 3.2427 17.2612 3.7466 17.5461 4.384 17.7072 5.25M11.5833 2.0875C11.0963 2.0833 10.5699 2.0833 10 2.0833 9.4301 2.0833 8.9037 2.0833 8.4167 2.0875M17.9125 8.4167C17.9167 8.9037 17.9167 9.4301 17.9167 10 17.9167 10.5699 17.9167 11.0963 17.9125 11.5834M2.0875 8.4167C2.0833 8.9037 2.0833 9.4301 2.0833 10 2.0833 10.5699 2.0833 11.0963 2.0875 11.5834M2.2929 14.75C2.4539 15.616 2.7388 16.2534 3.2427 16.7573 3.7466 17.2612 4.384 17.5461 5.25 17.7072M17.7072 14.75C17.5461 15.616 17.2612 16.2534 16.7573 16.7573 16.2534 17.2612 15.616 17.5461 14.75 17.7072M11.5833 17.9125C11.0963 17.9167 10.5699 17.9167 10 17.9167 9.4302 17.9167 8.9038 17.9167 8.4168 17.9125" stroke="currentColor" stroke-linecap="round" stroke-linejoin="round" stroke-width="2"/>
  <path d="M2.0833 10H17.9167" stroke="currentColor" stroke-linecap="round" stroke-linejoin="round" stroke-width="2"/>
  <path d="M10 2.0833L10 3.6667M10 16.3333L10 17.9167M10 7.625L10 12.375" stroke="currentColor" stroke-linecap="round" stroke-linejoin="round" stroke-width="2"/>
</svg>
