<svg xmlns="http://www.w3.org/2000/svg" width="20" height="20" viewBox="0 0 20 20" fill="none">
  <path d="M14.7223 17.7068C15.5959 17.5458 16.2389 17.2608 16.7473 16.757 17.2555 16.2531 17.5429 15.6157 17.7054 14.7497M8.3334 17.9122C8.8248 17.9163 9.3558 17.9163 9.9307 17.9163 10.5056 17.9163 11.0366 17.9163 11.5279 17.9122M17.9126 11.583C17.9168 11.096 17.9168 10.5696 17.9168 9.9997 17.9168 9.4298 17.9168 8.9033 17.9126 8.4163M17.7054 5.2497C17.5429 4.3836 17.2555 3.7463 16.7473 3.2424 16.2389 2.7385 15.5959 2.4536 14.7223 2.2925M8.3334 2.0871C8.8245 2.083 9.356 2.083 9.9307 2.083 10.5055 2.083 11.0365 2.083 11.5277 2.0871" stroke="currentColor" stroke-linecap="round" stroke-linejoin="round" stroke-width="2"/>
  <path d="M5.4168 17.9163C4.5052 17.7509 3.8342 17.4582 3.3038 16.9407 2.0834 15.7498 2.0834 13.8331 2.0834 9.9997 2.0834 6.1663 2.0834 4.2496 3.3038 3.0587 3.8342 2.5411 4.5052 2.2485 5.4168 2.083" stroke="currentColor" stroke-linecap="round" stroke-linejoin="round" stroke-width="2"/>
</svg>
