<svg xmlns="http://www.w3.org/2000/svg" width="20" height="20" viewBox="0 0 20 20" fill="none">
  <path d="M14.5833 2.0833C15.4949 2.2488 16.1658 2.5414 16.6962 3.059 17.9167 4.2499 17.9167 6.1666 17.9167 10 17.9167 13.8334 17.9167 15.7501 16.6962 16.941 16.1658 17.4586 15.4949 17.7513 14.5833 17.9167" stroke="currentColor" stroke-linecap="round" stroke-linejoin="round" stroke-width="2"/>
  <path d="M5.2586 2.2929C4.3902 2.4539 3.7511 2.7388 3.2459 3.2427 2.7406 3.7466 2.4549 4.384 2.2934 5.25M11.6667 2.0875C11.1783 2.0833 10.5931 2.0833 10.0216 2.0833 9.4501 2.0833 8.8126 2.0833 8.3243 2.0875M2.0875 8.4167C2.0833 8.9037 2.0833 9.4301 2.0833 10 2.0833 10.5699 2.0833 11.0963 2.0875 11.5834M2.2934 14.75C2.4549 15.616 2.7406 16.2534 3.2459 16.7573 3.7511 17.2612 4.3902 17.5461 5.2586 17.7072M11.6667 17.9125C11.1783 17.9167 10.5931 17.9167 10.0216 17.9167 9.4502 17.9167 8.8126 17.9167 8.3243 17.9125" stroke="currentColor" stroke-linecap="round" stroke-linejoin="round" stroke-width="2"/>
  <path d="M10 2.0833V3.3333M10 16.6667V17.9167M12.5 10H7.5M3.724 10H2.5M10 7.5L10 12.5" stroke="currentColor" stroke-linecap="round" stroke-linejoin="round" stroke-width="2"/>
</svg>
