<svg xmlns="http://www.w3.org/2000/svg" width="20" height="20" viewBox="0 0 20 20" fill="none">
  <path d="M17.9168 5.4167C17.7513 4.5051 17.4587 3.8342 16.9411 3.3038 15.7502 2.0834 13.8334 2.0834 10.0001 2.0834 6.1666 2.0834 4.2499 2.0834 3.0591 3.3038 2.5415 3.8342 2.2488 4.5051 2.0834 5.4167" stroke="currentColor" stroke-linecap="round" stroke-linejoin="round" stroke-width="2"/>
  <path d="M17.7072 14.7414C17.5462 15.6098 17.2613 16.2489 16.7573 16.7542 16.2534 17.2594 15.6161 17.5451 14.7501 17.7067M17.9126 8.3334C17.9168 8.8217 17.9168 9.407 17.9168 9.9785 17.9168 10.5499 17.9168 11.1874 17.9126 11.6758M11.5834 17.9126C11.0963 17.9168 10.57 17.9168 10.0001 17.9168 9.4301 17.9168 8.9037 17.9168 8.4167 17.9126M5.2501 17.7066C4.384 17.5451 3.7467 17.2594 3.2428 16.7542 2.7389 16.2489 2.454 15.6098 2.2929 14.7414M2.0875 8.3334C2.0834 8.8217 2.0834 9.407 2.0834 9.9785 2.0834 10.5499 2.0834 11.1875 2.0875 11.6758" stroke="currentColor" stroke-linecap="round" stroke-linejoin="round" stroke-width="2"/>
  <path d="M17.9168 10.0001L16.6668 10.0001M3.3334 10.0001L2.0834 10.0001M10.0001 7.5L10.0001 12.5001M10.0001 16.2761L10.0001 17.5001M12.5001 10.0001L7.5 10.0001" stroke="currentColor" stroke-linecap="round" stroke-linejoin="round" stroke-width="2"/>
</svg>
