<svg xmlns="http://www.w3.org/2000/svg" width="20" height="20" viewBox="0 0 20 20" fill="none">
  <path d="M2.0833 14.5833C2.2488 15.495 2.5414 16.1659 3.059 16.6963 4.2499 17.9167 6.1666 17.9167 10 17.9167 13.8334 17.9167 15.7501 17.9167 16.941 16.6963 17.4586 16.1659 17.7513 15.495 17.9167 14.5833" stroke="currentColor" stroke-linecap="round" stroke-linejoin="round" stroke-width="2"/>
  <path d="M2.2929 5.2587C2.4539 4.3903 2.7388 3.7512 3.2427 3.2459 3.7466 2.7406 4.384 2.455 5.25 2.2934M2.0875 11.6667C2.0833 11.1783 2.0833 10.5931 2.0833 10.0216 2.0833 9.4501 2.0833 8.8126 2.0875 8.3243M8.4167 2.0875C8.9037 2.0834 9.4301 2.0834 10 2.0834 10.5699 2.0834 11.0963 2.0834 11.5834 2.0875M14.75 2.2934C15.616 2.455 16.2534 2.7406 16.7573 3.2459 17.2612 3.7512 17.5461 4.3903 17.7072 5.2587M17.9125 11.6667C17.9167 11.1783 17.9167 10.5931 17.9167 10.0216 17.9167 9.4502 17.9167 8.8126 17.9125 8.3243" stroke="currentColor" stroke-linecap="round" stroke-linejoin="round" stroke-width="2"/>
  <path d="M2.0833 10L3.3333 10M16.6667 10L17.9167 10M10 12.5L10 7.5M10 3.724L10 2.5M7.5 10L12.5 10" stroke="currentColor" stroke-linecap="round" stroke-linejoin="round" stroke-width="2"/>
</svg>
