<svg xmlns="http://www.w3.org/2000/svg" width="20" height="20" viewBox="0 0 20 20" fill="none">
  <path d="M16.6667 15.8333H3.3333C2.4129 15.8333 1.6667 16.5795 1.6667 17.5 1.6667 17.9602 2.0398 18.3333 2.5 18.3333H17.5C17.9602 18.3333 18.3333 17.9602 18.3333 17.5 18.3333 16.5795 17.5872 15.8333 16.6667 15.8333Z" stroke="currentColor" stroke-linecap="round" stroke-linejoin="round" stroke-width="2"/>
  <path d="M11.6667 5.8333L10.9968 2.4838C10.9018 2.0087 10.4846 1.6667 10 1.6667 9.5154 1.6667 9.0983 2.0087 9.0033 2.4838L8.3333 5.8333" stroke="currentColor" stroke-linecap="round" stroke-linejoin="round" stroke-width="2"/>
  <path d="M16.6667 15.8333L15.1135 9.6207C14.6587 7.8018 14.4314 6.8923 13.7533 6.3628 13.0751 5.8333 12.1377 5.8333 10.2628 5.8333H9.7372C7.8623 5.8333 6.9249 5.8333 6.2467 6.3628 5.5686 6.8923 5.3412 7.8018 4.8865 9.6207L3.3333 15.8333" stroke="currentColor" stroke-linecap="round" stroke-linejoin="round" stroke-width="2"/>
  <path d="M10 8.75V9.5833M12.5 11.6667V12.5M7.5 11.6667V12.5" stroke="currentColor" stroke-linecap="round" stroke-linejoin="round" stroke-width="2"/>
</svg>
