<svg xmlns="http://www.w3.org/2000/svg" width="20" height="20" viewBox="0 0 20 20" fill="none">
  <path d="M12.5 9.7917V11.4583" stroke="currentColor" stroke-linecap="round" stroke-linejoin="round" stroke-width="2"/>
  <path d="M16.6667 11.0217V10.5953C16.6667 8.2523 16.6667 7.0808 15.9344 6.3529 15.2022 5.625 14.0237 5.625 11.6667 5.625H8.3333C5.9763 5.625 4.7978 5.625 4.0656 6.3529 3.3333 7.0808 3.3333 8.2523 3.3333 10.5953V12.4592C3.3333 13.0366 3.3333 13.3253 3.3814 13.5653 3.5786 14.5512 4.3539 15.3217 5.3456 15.5179 5.5871 15.5657 5.8775 15.5657 6.4583 15.5657H6.5237C6.6565 15.5657 6.7229 15.5657 6.7786 15.5732 7.15 15.6232 7.4421 15.9136 7.4924 16.2828 7.5 16.3382 7.5 16.4042 7.5 16.5362 7.5 16.8209 7.5 16.9632 7.517 17.0456 7.6354 17.6199 8.3 17.8936 8.7923 17.5707 8.8628 17.5244 8.9641 17.4238 9.1667 17.2224L9.9817 16.4122C10.3398 16.0563 10.5187 15.8784 10.7348 15.7629 10.8332 15.7105 10.9365 15.6679 11.0433 15.6359 11.2783 15.5657 11.5354 15.5657 12.0497 15.5657 14.0232 15.5657 15.0099 15.5657 15.6809 15.0579 15.8599 14.9225 16.0197 14.7637 16.1559 14.5858 16.6667 13.9188 16.6667 12.9531 16.6667 11.0217Z" stroke="currentColor" stroke-linejoin="round" stroke-width="2"/>
  <path d="M7.5 9.7917V11.4583" stroke="currentColor" stroke-linecap="round" stroke-linejoin="round" stroke-width="2"/>
  <path d="M5.8333 2.2917H6.6667C7.4416 2.2917 7.8291 2.2917 8.1471 2.3769 9.0098 2.608 9.6837 3.2819 9.9148 4.1446 10 4.4625 10 4.85 10 5.625" stroke="currentColor" stroke-linecap="round" stroke-width="2"/>
  <path d="M1.6667 10.625H3.3333" stroke="currentColor" stroke-linecap="round" stroke-width="2"/>
  <path d="M16.6667 10.625H18.3333" stroke="currentColor" stroke-linecap="round" stroke-width="2"/>
</svg>
