<svg xmlns="http://www.w3.org/2000/svg" width="20" height="20" viewBox="0 0 20 20" fill="none">
  <path d="M11.6667 5.4041V3.3333C11.6667 2.5477 11.6667 2.1548 11.4226 1.9107 11.1785 1.6667 10.7857 1.6667 10 1.6667 9.2143 1.6667 8.8215 1.6667 8.5774 1.9107 8.3333 2.1548 8.3333 2.5477 8.3333 3.3333V5.4041C8.3333 5.6723 8.1993 5.9227 7.9762 6.0714 6.6375 6.9639 5.8333 8.4664 5.8333 10.0754V14.1667C5.8333 15.7243 5.8333 16.5032 6.1683 17.0833 6.3877 17.4634 6.7033 17.779 7.0833 17.9984 7.6635 18.3333 8.4423 18.3333 10 18.3333 11.5577 18.3333 12.3365 18.3333 12.9167 17.9984 13.2967 17.779 13.6123 17.4634 13.8317 17.0833 14.1667 16.5032 14.1667 15.7243 14.1667 14.1667V10.0754C14.1667 8.4664 13.3626 6.9639 12.0238 6.0714 11.8007 5.9227 11.6667 5.6723 11.6667 5.4041Z" stroke="currentColor" stroke-linecap="round" stroke-linejoin="round" stroke-width="2"/>
  <path d="M14.1667 10.8333H12.0833C11.3045 10.8333 10.9151 10.8333 10.625 11.0008 10.435 11.1105 10.2772 11.2683 10.1675 11.4583 10 11.7484 10 12.1378 10 12.9167 10 13.6955 10 14.0849 10.1675 14.375 10.2772 14.565 10.435 14.7228 10.625 14.8325 10.9151 15 11.3045 15 12.0833 15H14.1667" stroke="currentColor" stroke-linecap="round" stroke-linejoin="round" stroke-width="2"/>
</svg>
