<svg xmlns="http://www.w3.org/2000/svg" width="20" height="20" viewBox="0 0 20 20" fill="none">
  <path d="M8.8032 5.4672L8.4852 3.7095C8.294 2.6527 9.0252 1.6667 10 1.6667 10.9748 1.6667 11.706 2.6527 11.5148 3.7095L11.1968 5.4672C10.7187 8.1108 12.0205 9.6964 12.9259 11.892 13.3203 12.8485 13.432 13.9181 13.2451 14.9488 13.085 15.8317 12.833 17.2238 12.3003 17.9024 11.9437 18.3567 11.4373 18.3331 10.9335 18.3331H9.0665C8.5627 18.3331 8.0564 18.3567 7.6997 17.9024 7.167 17.2238 6.915 15.8317 6.7549 14.9488 6.568 13.9181 6.6797 12.8485 7.0741 11.892 7.9795 9.6964 9.2813 8.1108 8.8032 5.4672Z" stroke="currentColor" stroke-linecap="round" stroke-linejoin="round" stroke-width="2"/>
  <path d="M9.1667 6.6667H10.8333" stroke="currentColor" stroke-linejoin="round" stroke-width="2"/>
  <path d="M15 16.6665H16.0787C16.5521 16.6665 17.0278 16.6854 17.3628 16.3219 17.8628 15.7795 18.0997 14.6673 18.2501 13.9609L18.2504 13.959C18.426 13.1345 18.3211 12.2788 17.9506 11.5137 17.1 9.7571 15.8769 8.4886 16.3262 6.3737L16.6249 4.9676C16.8045 4.1221 16.1177 3.3333 15.2018 3.3333 14.286 3.3333 13.5991 4.1221 13.7787 4.9676L14.0774 6.3737C14.2493 7.1832 14.1763 7.8686 13.973 8.5049M14.1398 7.7778H16.2647" stroke="currentColor" stroke-linecap="round" stroke-linejoin="round" stroke-width="2"/>
  <path d="M5 16.6665H3.9212C3.4479 16.6665 2.9722 16.6854 2.6372 16.3219 2.1372 15.7795 1.9004 14.6673 1.75 13.9609L1.7495 13.959C1.574 13.1345 1.6789 12.2788 2.0495 11.5137 2.9 9.7571 4.1231 8.4886 3.6738 6.3737L3.3751 4.9676C3.1955 4.1221 3.8824 3.3333 4.7982 3.3333 5.714 3.3333 6.4009 4.1221 6.2213 4.9676L5.9226 6.3737C5.7507 7.1832 5.8237 7.8686 6.027 8.5049M5.8602 7.7778H3.7354" stroke="currentColor" stroke-linecap="round" stroke-linejoin="round" stroke-width="2"/>
</svg>
