<svg xmlns="http://www.w3.org/2000/svg" width="20" height="20" viewBox="0 0 20 20" fill="none">
  <circle cx="10" cy="10" r="8.333333333333334" stroke="currentColor" stroke-width="2"/>
  <path d="M15.1042 7.5H15M15.2083 7.5C15.2083 7.6151 15.1151 7.7083 15 7.7083 14.8849 7.7083 14.7917 7.6151 14.7917 7.5 14.7917 7.3849 14.8849 7.2917 15 7.2917 15.1151 7.2917 15.2083 7.3849 15.2083 7.5Z" stroke="currentColor" stroke-linecap="round" stroke-width="2"/>
  <path d="M12.6042 5H12.5M12.7083 5C12.7083 5.1151 12.6151 5.2083 12.5 5.2083 12.3849 5.2083 12.2917 5.1151 12.2917 5 12.2917 4.8849 12.3849 4.7917 12.5 4.7917 12.6151 4.7917 12.7083 4.8849 12.7083 5Z" stroke="currentColor" stroke-linecap="round" stroke-width="2"/>
  <path d="M11.7708 8.3333H11.6667M11.875 8.3333C11.875 8.4484 11.7818 8.5417 11.6667 8.5417 11.5516 8.5417 11.4583 8.4484 11.4583 8.3333 11.4583 8.2183 11.5516 8.125 11.6667 8.125 11.7818 8.125 11.875 8.2183 11.875 8.3333Z" stroke="currentColor" stroke-linecap="round" stroke-width="2"/>
</svg>
