<svg xmlns="http://www.w3.org/2000/svg" width="20" height="20" viewBox="0 0 20 20" fill="none">
  <path d="M10.4167 8.7867C11.0509 8.4956 11.7565 8.3333 12.5 8.3333 15.2614 8.3333 17.5 10.5719 17.5 13.3333 17.5 16.0948 15.2614 18.3333 12.5 18.3333 12.0684 18.3333 11.6495 18.2787 11.25 18.1758" stroke="currentColor" stroke-linecap="round" stroke-linejoin="round" stroke-width="2"/>
  <path d="M14.9925 12.5H15M12.5 12.5H12.5075M13.7462 10.8333L13.7538 10.8333" stroke="currentColor" stroke-linecap="round" stroke-linejoin="round" stroke-width="2"/>
  <path d="M4.9035 5.4672L4.5458 3.7095C4.3307 2.6527 5.1533 1.6667 6.25 1.6667 7.3467 1.6667 8.1693 2.6527 7.9542 3.7095L7.5965 5.4672C7.0585 8.1108 8.5231 9.6964 9.5416 11.892 9.9853 12.8485 10.111 13.9181 9.9008 14.9488 9.7207 15.8317 9.4371 17.2238 8.8377 17.9024 8.4366 18.3567 7.8669 18.3331 7.3002 18.3331H5.1998C4.6331 18.3331 4.0634 18.3567 3.6622 17.9024 3.0629 17.2238 2.7793 15.8317 2.5992 14.9488 2.389 13.9181 2.5147 12.8485 2.9584 11.892 3.9769 9.6964 5.4415 8.1108 4.9035 5.4672Z" stroke="currentColor" stroke-linecap="round" stroke-linejoin="round" stroke-width="2"/>
  <path d="M5 7.5H7.5" stroke="currentColor" stroke-linejoin="round" stroke-width="2"/>
</svg>
