<svg xmlns="http://www.w3.org/2000/svg" width="20" height="20" viewBox="0 0 20 20" fill="none">
  <path d="M8.75 17.9984C8.1699 18.3333 7.391 18.3333 5.8333 18.3333 4.2756 18.3333 3.4968 18.3333 2.9167 17.9984 2.5366 17.779 2.221 17.4634 2.0016 17.0833 1.6667 16.5032 1.6667 15.7243 1.6667 14.1667 1.6667 12.609 1.6667 11.8302 2.0016 11.25 2.221 10.8699 2.5366 10.5543 2.9167 10.3349 3.4968 10 4.2756 10 5.8333 10 7.391 10 8.1699 10 8.75 10.3349 9.1301 10.5543 9.4457 10.8699 9.6651 11.25 10 11.8302 10 12.609 10 14.1667 10 15.7243 10 16.5032 9.6651 17.0833 9.4457 17.4634 9.1301 17.779 8.75 17.9984Z" stroke="currentColor" stroke-linecap="round" stroke-linejoin="round" stroke-width="2"/>
  <path d="M17.0833 17.9984C16.5032 18.3333 15.7243 18.3333 14.1667 18.3333 12.609 18.3333 11.8302 18.3333 11.25 17.9984 10.8699 17.779 10.5543 17.4634 10.3349 17.0833 10 16.5032 10 15.7243 10 14.1667 10 12.609 10 11.8302 10.3349 11.25 10.5543 10.8699 10.8699 10.5543 11.25 10.3349 11.8302 10 12.609 10 14.1667 10 15.7243 10 16.5032 10 17.0833 10.3349 17.4634 10.5543 17.779 10.8699 17.9984 11.25 18.3333 11.8302 18.3333 12.609 18.3333 14.1667 18.3333 15.7243 18.3333 16.5032 17.9984 17.0833 17.779 17.4634 17.4634 17.779 17.0833 17.9984Z" stroke="currentColor" stroke-linecap="round" stroke-linejoin="round" stroke-width="2"/>
  <path d="M12.9167 9.6651C12.3365 10 11.5577 10 10 10 8.4423 10 7.6635 10 7.0833 9.6651 6.7033 9.4457 6.3877 9.1301 6.1683 8.75 5.8333 8.1699 5.8333 7.391 5.8333 5.8333 5.8333 4.2756 5.8333 3.4968 6.1683 2.9167 6.3877 2.5366 6.7033 2.221 7.0833 2.0016 7.6635 1.6667 8.4423 1.6667 10 1.6667 11.5577 1.6667 12.3365 1.6667 12.9167 2.0016 13.2967 2.221 13.6123 2.5366 13.8317 2.9167 14.1667 3.4968 14.1667 4.2756 14.1667 5.8333 14.1667 7.391 14.1667 8.1699 13.8317 8.75 13.6123 9.1301 13.2967 9.4457 12.9167 9.6651Z" stroke="currentColor" stroke-linecap="round" stroke-linejoin="round" stroke-width="2"/>
  <path d="M10 1.6667V4.1667" stroke="currentColor" stroke-linecap="round" stroke-linejoin="round" stroke-width="2"/>
  <path d="M5.8333 10V12.5" stroke="currentColor" stroke-linecap="round" stroke-linejoin="round" stroke-width="2"/>
  <path d="M14.1667 10V12.5" stroke="currentColor" stroke-linecap="round" stroke-linejoin="round" stroke-width="2"/>
</svg>
