<svg xmlns="http://www.w3.org/2000/svg" width="20" height="20" viewBox="0 0 20 20" fill="none">
  <path d="M4.9846 9.3711C4.912 11.6398 7.5855 14.4362 10.0921 15.3153M4.9846 9.3711C4.7308 9.8067 2.1384 11.8848 2.0931 12.7652 1.8735 14.5133 4.8435 17.7975 7.1335 17.9096 7.9887 18.0309 9.1749 16.5918 10.3773 15.5227 11.0396 14.9338 11.994 14.7976 15.8143 13.8495 17.2007 13.6086 18.8662 11.2172 16.3972 9.1903M4.9846 9.3711C5.7581 7.5368 7.0953 3.9907 9.7178 2.5904 10.7828 1.9852 13.549 1.4281 16.2595 4.0049 17.192 4.7892 18.8084 6.5071 17.3039 8.4863 16.3008 9.6553 14.7842 9.3169 14.6368 11.3387" stroke="currentColor" stroke-linecap="round" stroke-linejoin="round" stroke-width="2"/>
</svg>
