<svg xmlns="http://www.w3.org/2000/svg" width="20" height="20" viewBox="0 0 20 20" fill="none">
  <path d="M15 14.5833C11.6667 15.6944 8.3333 15.6944 5 14.5833M15 8.75C11.6667 7.6389 8.3333 7.6389 5 8.75" stroke="currentColor" stroke-linecap="round" stroke-linejoin="round" stroke-width="2"/>
  <path d="M13.3333 5.4167L11.2457 3.0681C10.6648 2.4145 10.3742 2.0877 10 2.0877 9.6258 2.0877 9.3353 2.4145 8.7543 3.0681L6.6667 5.4167" stroke="currentColor" stroke-linecap="round" stroke-linejoin="round" stroke-width="2"/>
  <path d="M15 1.6667L5 1.6667" stroke="currentColor" stroke-linecap="round" stroke-linejoin="round" stroke-width="2"/>
  <path d="M7.5928 18.1402C9.1976 18.3978 10.8024 18.3978 12.4072 18.1402 14.5975 17.7887 15 17.0565 15 15.2432V8.0901C15 6.2769 14.5975 5.5446 12.4072 5.1932 10.8024 4.9356 9.1976 4.9356 7.5928 5.1932 5.4025 5.5446 5 6.2769 5 8.0901V15.2432C5 17.0565 5.4025 17.7887 7.5928 18.1402Z" stroke="currentColor" stroke-linecap="round" stroke-linejoin="round" stroke-width="2"/>
</svg>
