<svg xmlns="http://www.w3.org/2000/svg" width="20" height="20" viewBox="0 0 20 20" fill="none">
  <path d="M13.8201 5.0478C15.7656 5.0478 16.2884 7.7037 15.4519 9.4518 15.0777 10.2338 14.4304 10.9209 13.9122 11.6131 13.4152 12.2768 13.1667 12.6087 12.84 12.8409 12.1116 13.3587 11.2683 13.3333 10.4081 13.3333H9.5486C7.4327 13.3333 6.3748 13.3333 5.6758 12.742 4.9768 12.1508 4.8057 11.133 4.4634 9.0975 4.2752 7.9783 4.1428 6.8602 4.1703 5.7761 4.2207 3.7909 5.7407 2.1189 7.7937 1.7906 8.7717 1.6342 9.9759 1.6188 10.9545 1.7849 12.7018 2.0815 13.9339 3.5868 13.8118 5.2759 13.7373 6.306 13.3193 7.3665 13.0583 8.362" stroke="currentColor" stroke-linecap="round" stroke-width="2"/>
  <path d="M5.8366 12.9167V15C5.8366 16.5713 5.8366 17.357 6.3247 17.8452 6.8129 18.3333 7.5986 18.3333 9.1699 18.3333H10.0032C11.5746 18.3333 12.3603 18.3333 12.8484 17.8452 13.3366 17.357 13.3366 16.5713 13.3366 15V12.5" stroke="currentColor" stroke-linecap="round" stroke-width="2"/>
  <path d="M5.8366 15.8333H8.3366" stroke="currentColor" stroke-linecap="round" stroke-width="2"/>
</svg>
