<svg xmlns="http://www.w3.org/2000/svg" width="20" height="20" viewBox="0 0 20 20" fill="none">
  <path d="M13.3333 17.5C14.1083 17.5 14.4958 17.5 14.8137 17.4148 15.6764 17.1837 16.3503 16.5098 16.5815 15.6471 16.6667 15.3292 16.6667 14.9417 16.6667 14.1667V5.8333C16.6667 5.0584 16.6667 4.6709 16.5815 4.3529 16.3503 3.4902 15.6764 2.8164 14.8137 2.5852 14.4958 2.5 14.1083 2.5 13.3333 2.5" stroke="currentColor" stroke-linecap="round" stroke-width="2"/>
  <path d="M6.6667 17.5C5.8917 17.5 5.5042 17.5 5.1863 17.4148 4.3236 17.1837 3.6497 16.5098 3.4185 15.6471 3.3333 15.3292 3.3333 14.9417 3.3333 14.1667V5.8333C3.3333 5.0584 3.3333 4.6709 3.4185 4.3529 3.6497 3.4902 4.3236 2.8164 5.1863 2.5852 5.5042 2.5 5.8917 2.5 6.6667 2.5" stroke="currentColor" stroke-linecap="round" stroke-width="2"/>
</svg>
