<svg xmlns="http://www.w3.org/2000/svg" width="20" height="20" viewBox="0 0 20 20" fill="none">
  <path d="M3.5185 18.329V15.3709C3.5185 14.3114 3.2411 13.7607 2.6957 12.8398 2.0419 11.7361 1.6667 10.4479 1.6667 9.0722 1.6667 4.9822 4.9831 1.6667 9.0741 1.6667 13.1651 1.6667 16.4815 4.9822 16.4815 9.0722 16.4815 9.5553 16.4815 9.7968 16.5017 9.9322 16.5498 10.256 16.7009 10.5345 16.8495 10.8227L18.3333 13.7006 17.1672 14.2835C16.8292 14.4524 16.6603 14.5369 16.5425 14.6928 16.4248 14.8487 16.3917 15.0247 16.3253 15.3766L16.3188 15.4109C16.167 16.2172 15.9994 17.1072 15.5274 17.6687 15.3608 17.8669 15.1544 18.028 14.9216 18.1416 14.5373 18.329 14.0648 18.329 13.1198 18.329 12.6825 18.329 12.244 18.3391 11.8068 18.3285 10.7706 18.3032 10 17.432 10 16.4203" stroke="currentColor" stroke-linecap="round" stroke-linejoin="round" stroke-width="2"/>
  <path d="M11.99 8.7762C11.6348 8.7762 11.3108 8.6418 11.0653 8.4207M11.99 8.7762C11.99 9.7312 11.4367 10.6382 10.3718 10.6382 9.3068 10.6382 8.7536 11.5451 8.7536 12.5M11.99 8.7762C13.7811 8.7762 13.7811 5.9835 11.99 5.9835 11.8273 5.9835 11.6711 6.0117 11.526 6.0635 11.6135 3.9818 8.6124 3.4167 7.9327 5.3668M8.7536 6.9144C8.7536 6.2694 8.4278 5.7009 7.9327 5.3668M7.9327 5.3668C6.3895 4.3253 4.3324 6.1943 5.311 7.8606 3.6686 8.1069 3.8442 10.6382 5.5171 10.6382 5.9862 10.6382 6.4009 10.4037 6.652 10.0448" stroke="currentColor" stroke-linecap="round" stroke-linejoin="round" stroke-width="2"/>
</svg>
