<svg xmlns="http://www.w3.org/2000/svg" width="20" height="20" viewBox="0 0 20 20" fill="none">
  <path d="M8.5185 18.3333C8.7605 18.3333 8.9977 18.3022 9.2283 18.2475 9.8193 18.1075 10.1148 18.0374 10.474 17.583 10.8333 17.1286 10.8333 16.6591 10.8333 15.72V4.0039C10.8333 3.0977 10.8333 2.6447 10.3473 2.1569L10.3431 2.1528C9.8553 1.6667 9.564 1.6667 8.9815 1.6667 7.4531 1.6667 6.141 2.5924 5.5752 3.9138 5.4583 4.1867 5.3999 4.3232 5.3303 4.3851 5.2608 4.4469 5.1142 4.4902 4.8211 4.5768 3.4792 4.9732 2.5 6.2148 2.5 7.6852 2.5 8.2867 2.6639 8.8499 2.9494 9.3327 3.1676 9.7016 3.2767 9.886 3.2767 10 3.2767 10.114 3.1676 10.2984 2.9494 10.6673 2.6639 11.1501 2.5 11.7133 2.5 12.3148 2.5 13.526 3.1644 14.5819 4.1486 15.1382 4.3384 15.2454 4.4333 15.2991 4.4803 15.353 4.5273 15.407 4.5655 15.5037 4.6419 15.6971 5.2519 17.2411 6.7577 18.3333 8.5185 18.3333Z" stroke="currentColor" stroke-linecap="round" stroke-linejoin="round" stroke-width="2"/>
  <path d="M10.8333 7.5C10.8333 9.3409 9.3409 10.8333 7.5 10.8333" stroke="currentColor" stroke-linecap="round" stroke-linejoin="round" stroke-width="2"/>
  <path d="M10.8333 10H17.0833" stroke="currentColor" stroke-linecap="round" stroke-linejoin="round" stroke-width="2"/>
  <path d="M15.4167 2.7083V2.9167M15.8333 2.9167C15.8333 3.1468 15.6468 3.3333 15.4167 3.3333 15.1866 3.3333 15 3.1468 15 2.9167 15 2.6866 15.1866 2.5 15.4167 2.5 15.6468 2.5 15.8333 2.6866 15.8333 2.9167Z" stroke="currentColor" stroke-linecap="round" stroke-linejoin="round" stroke-width="2"/>
  <path d="M10.8333 6.6667H11.6667C12.8315 6.6667 13.4139 6.6667 13.8734 6.4764 14.4859 6.2226 14.9727 5.7359 15.2263 5.1234 15.4167 4.6639 15.4167 4.0815 15.4167 2.9167" stroke="currentColor" stroke-linecap="round" stroke-linejoin="round" stroke-width="2"/>
  <path d="M10.8333 13.3333H11.6667C12.8315 13.3333 13.4139 13.3333 13.8734 13.5237 14.4859 13.7773 14.9727 14.2641 15.2263 14.8766 15.4167 15.3361 15.4167 15.9185 15.4167 17.0833" stroke="currentColor" stroke-linecap="round" stroke-linejoin="round" stroke-width="2"/>
  <path d="M15.4167 17.2917V17.0833M15.8333 17.0833C15.8333 16.8533 15.6468 16.6667 15.4167 16.6667 15.1866 16.6667 15 16.8533 15 17.0833 15 17.3134 15.1866 17.5 15.4167 17.5 15.6468 17.5 15.8333 17.3134 15.8333 17.0833Z" stroke="currentColor" stroke-linecap="round" stroke-linejoin="round" stroke-width="2"/>
  <path d="M17.0833 9.7917V10M17.5 10C17.5 10.2301 17.3134 10.4167 17.0833 10.4167 16.8533 10.4167 16.6667 10.2301 16.6667 10 16.6667 9.7699 16.8533 9.5833 17.0833 9.5833 17.3134 9.5833 17.5 9.7699 17.5 10Z" stroke="currentColor" stroke-linecap="round" stroke-linejoin="round" stroke-width="2"/>
</svg>
