<svg xmlns="http://www.w3.org/2000/svg" width="20" height="20" viewBox="0 0 20 20" fill="none">
  <path d="M10 15.8333V4.1667C10 2.786 8.8808 1.6667 7.5 1.6667 6.1193 1.6667 5 2.786 5 4.1667 5 4.6269 4.6269 5 4.1667 5 2.786 5 1.6667 6.1193 1.6667 7.5 1.6667 8.8808 2.786 10 4.1667 10 2.786 10 1.6667 11.1193 1.6667 12.5 1.6667 13.8808 2.786 15 4.1667 15 4.6269 15 5 15.3731 5 15.8333 5 17.2141 6.1193 18.3333 7.5 18.3333 8.8808 18.3333 10 17.2141 10 15.8333Z" stroke="currentColor" stroke-linejoin="round" stroke-width="2"/>
  <path d="M10 15.8333V4.1667C10 2.786 11.1193 1.6667 12.5 1.6667 13.8808 1.6667 15 2.786 15 4.1667 15 4.6269 15.3731 5 15.8333 5 17.2141 5 18.3333 6.1193 18.3333 7.5 18.3333 8.8808 17.2141 10 15.8333 10 17.2141 10 18.3333 11.1193 18.3333 12.5 18.3333 13.8808 17.2141 15 15.8333 15 15.3731 15 15 15.3731 15 15.8333 15 17.2141 13.8808 18.3333 12.5 18.3333 11.1193 18.3333 10 17.2141 10 15.8333Z" stroke="currentColor" stroke-linejoin="round" stroke-width="2"/>
</svg>
