<svg xmlns="http://www.w3.org/2000/svg" width="20" height="20" viewBox="0 0 20 20" fill="none">
  <path d="M14.165 5.9388C14.4318 5.8699 14.7117 5.8333 15 5.8333 16.8409 5.8333 18.3333 7.3257 18.3333 9.1667 18.3333 11.0076 16.8409 12.5 15 12.5 14.7043 12.5 14.4174 12.4615 14.1444 12.3892M14.165 5.9388C14.1661 5.9038 14.1667 5.8686 14.1667 5.8333 14.1667 3.9924 12.6743 2.5 10.8333 2.5 9.2353 2.5 7.8999 3.6245 7.5753 5.1254M14.165 5.9388C14.1474 6.5064 13.9878 7.0382 13.7208 7.5M14.1444 12.3892C14.1591 12.2893 14.1667 12.1873 14.1667 12.0833 14.1667 11.0754 13.4509 10.2347 12.5 10.0417M14.1444 12.3892C13.9964 13.3948 13.13 14.1667 12.0833 14.1667H11.6667C9.8258 14.1667 8.3333 15.6591 8.3333 17.5M7.5753 5.1254C7.2865 5.0437 6.9817 5 6.6667 5 4.8257 5 3.3333 6.4924 3.3333 8.3333 3.3333 8.6572 3.3795 8.9703 3.4657 9.2663M7.5753 5.1254C8.4179 5.3635 9.1248 5.9247 9.5541 6.6667M3.4657 9.2663C2.4262 9.5693 1.6667 10.5293 1.6667 11.6667 1.6667 13.0474 2.786 14.1667 4.1667 14.1667 5.2552 14.1667 6.1812 13.471 6.5244 12.5M3.4657 9.2663C3.541 9.5253 3.6469 9.7713 3.7793 10" stroke="currentColor" stroke-linecap="round" stroke-linejoin="round" stroke-width="2"/>
  <path d="M9.8634 9.7862C9.4381 10.1961 8.7108 10.2668 8.0893 9.9173 7.4677 9.5678 7.1503 8.9098 7.2795 8.3333" stroke="currentColor" stroke-linecap="round" stroke-width="2"/>
</svg>
