<svg xmlns="http://www.w3.org/2000/svg" width="20" height="20" viewBox="0 0 20 20" fill="none">
  <path d="M12.6208 4.3397C12.0859 3.7232 11.2968 3.3333 10.4167 3.3333 9.1694 3.3333 8.105 4.1163 7.688 5.2175 7.3762 5.0777 7.0305 5 6.6667 5 5.286 5 4.1667 6.1193 4.1667 7.5 4.1667 7.5139 4.1668 7.5279 4.167 7.5417M12.6208 4.3397C12.9771 4.2273 13.3565 4.1667 13.75 4.1667 15.8211 4.1667 17.5 5.8456 17.5 7.9167 17.5 8.4413 17.3923 8.9408 17.1977 9.3942M12.6208 4.3397C11.4984 4.6937 10.6041 5.5612 10.2134 6.6667 10.1196 6.932 10.0548 7.2111 10.0229 7.5M7.5417 11.6667C7.7347 12.6176 8.5754 13.3333 9.5833 13.3333 9.7957 13.3333 9.9019 13.3333 9.9998 13.345 10.4879 13.4029 10.9256 13.6734 11.1957 14.0841 11.2499 14.1664 11.2974 14.2614 11.3923 14.4513L12.5 16.6667M7.5417 11.6667C7.5144 11.532 7.5 11.3927 7.5 11.25 7.5 10.5685 7.8272 9.9634 8.3331 9.5833M7.5417 11.6667H3.75C2.5994 11.6667 1.6667 10.7339 1.6667 9.5833 1.6667 8.4328 2.5994 7.5 3.75 7.5 3.8928 7.5 4.0323 7.5144 4.167 7.5417M17.1977 9.3942C16.9134 9.2487 16.5913 9.1667 16.25 9.1667 15.2421 9.1667 14.4013 9.8824 14.2083 10.8333M17.1977 9.3942C17.8718 9.7392 18.3333 10.4407 18.3333 11.25 18.3333 12.4006 17.4006 13.3333 16.25 13.3333 15.242 13.3333 14.5442 14.3402 14.8982 15.284L15.4167 16.6667M4.167 7.5417C4.1772 8.1657 4.416 8.734 4.8032 9.1667" stroke="currentColor" stroke-linecap="round" stroke-linejoin="round" stroke-width="2"/>
</svg>
