<svg xmlns="http://www.w3.org/2000/svg" width="20" height="20" viewBox="0 0 20 20" fill="none">
  <path d="M12.5 9.1667C12.5 6.8655 10.9176 5 8.9657 5 7.6051 5 6.25 5.8333 5.8333 6.6667" stroke="currentColor" stroke-linecap="round" stroke-width="2"/>
  <path d="M15.8333 9.1667C15.8333 7.3257 14.5682 5.8333 13.0075 5.8333 12.5222 5.8333 12.0656 5.9776 11.6667 6.2317" stroke="currentColor" stroke-linecap="round" stroke-width="2"/>
  <path d="M18.3333 10C18.3333 12.7614 14.6023 15 10 15 5.3976 15 1.6667 12.7614 1.6667 10" stroke="currentColor" stroke-linecap="round" stroke-width="2"/>
  <path d="M7.4081 9.1667C7.0843 7.729 5.9424 6.6667 4.5833 6.6667 2.9725 6.6667 1.6667 8.1591 1.6667 10 1.6667 11.3808 5.3976 12.5 10 12.5 14.6023 12.5 18.3333 11.3808 18.3333 10 18.3333 9.1712 17.0416 7.518 15.4428 7.5002" stroke="currentColor" stroke-linecap="round" stroke-width="2"/>
</svg>
