<svg xmlns="http://www.w3.org/2000/svg" width="20" height="20" viewBox="0 0 20 20" fill="none">
  <path d="M7.0833 3.3333C4.2026 3.3333 1.6667 4.661 1.6667 6.2988 1.6667 7.4358 3.0356 8.2821 2.8612 9.3505L2.6577 13.1482C2.5692 14.7987 2.525 15.6239 2.9999 16.1453 3.4748 16.6667 4.2707 16.6667 5.8626 16.6667H8.3041C9.8959 16.6667 10.6919 16.6667 11.1668 16.1453 11.6417 15.6239 11.5974 14.7987 11.509 13.1482L11.3055 9.3505C11.1311 8.2821 12.5 7.4358 12.5 6.2988 12.5 4.661 9.9641 3.3333 7.0833 3.3333Z" stroke="currentColor" stroke-width="2"/>
  <path d="M9.1667 16.6667H14.3198C15.8425 16.6667 16.6038 16.6667 17.0581 16.1453 17.5123 15.6239 17.47 14.7987 17.3854 13.1482L17.1908 9.3505C17.0239 8.2821 18.3333 7.4358 18.3333 6.2988 18.3333 4.661 15.9077 3.3333 13.1522 3.3333H6.6667" stroke="currentColor" stroke-width="2"/>
</svg>
