<svg xmlns="http://www.w3.org/2000/svg" width="20" height="20" viewBox="0 0 20 20" fill="none">
  <path d="M9.3453 18.3333H11.4881C12.8293 18.3333 13.4998 18.3333 13.9558 17.9698 14.0534 17.8919 14.1419 17.8034 14.2198 17.7058 14.5833 17.2498 14.5833 16.5793 14.5833 15.2381V11.6667C14.5833 9.3655 12.7178 7.5 10.4167 7.5 8.1155 7.5 6.25 9.3655 6.25 11.6667V15.2381C6.25 16.5793 6.25 17.2498 6.6136 17.7058 6.6914 17.8034 6.78 17.8919 6.8775 17.9698 7.3335 18.3333 8.0041 18.3333 9.3453 18.3333Z" stroke="currentColor" stroke-linecap="round" stroke-linejoin="round" stroke-width="2"/>
  <path d="M12.5 11.6667H14.5833M12.5 15H14.5833" stroke="currentColor" stroke-linecap="round" stroke-linejoin="round" stroke-width="2"/>
  <path d="M10.4167 7.5V5" stroke="currentColor" stroke-linecap="round" stroke-linejoin="round" stroke-width="2"/>
  <path d="M12.5 5H7.5C7.0933 5 6.8899 5 6.6978 5.0224 5.9224 5.1127 5.2033 5.4722 4.6659 6.0384 4.5327 6.1786 4.4107 6.3413 4.1667 6.6667" stroke="currentColor" stroke-linecap="round" stroke-linejoin="round" stroke-width="2"/>
  <circle cx="3.75" cy="7.916666666666667" r="1.25" stroke="currentColor" stroke-width="2"/>
  <path d="M12.5 4.9996C13.3496 4.5759 14.6665 3.4804 15.2835 2.7418 15.7244 2.2139 16.25 1.6667 17.5 1.6667V8.3333C16.25 8.3333 15.7244 7.7857 15.2835 7.2579 14.6665 6.5192 13.3496 5.4234 12.5 4.9996Z" stroke="currentColor" stroke-linecap="round" stroke-linejoin="round" stroke-width="2"/>
</svg>
