<svg xmlns="http://www.w3.org/2000/svg" width="20" height="20" viewBox="0 0 20 20" fill="none">
  <path d="M10 11.6667C10 14.1667 8.1345 14.1667 5.8333 14.1667 3.5322 14.1667 1.6667 14.1667 1.6667 11.6667 1.6667 9.1667 3.5322 5.8333 5.8333 5.8333 8.1345 5.8333 10 9.1667 10 11.6667Z" stroke="currentColor" stroke-width="2"/>
  <path d="M5.8333 5.8333H14.1667C16.4678 5.8333 18.3333 9.1667 18.3333 11.6667 18.3333 14.1667 16.4678 14.1667 14.1667 14.1667H5.8333" stroke="currentColor" stroke-width="2"/>
  <path d="M4.8835 14.1667C6.1969 14.1667 7.5 13.4167 7.5 11.6667 7.5 9.9167 6.7853 8.3333 5.5376 8.3333 4.2899 8.3333 3.5986 11.6417 4.7643 12.0833 5.8641 12.5 5.8712 10.8333 5.8712 10.8333" stroke="currentColor" stroke-linecap="round" stroke-width="2"/>
</svg>
