<svg xmlns="http://www.w3.org/2000/svg" width="20" height="20" viewBox="0 0 20 20" fill="none">
  <path d="M13.1547 7.0833C13.8494 7.7208 15.1387 10.6138 13.75 12.5 15 12.9167 16.25 12.0833 16.6667 10.9069 17.322 11.5826 17.9167 13.1169 17.9167 14.0931 17.9167 16.205 16.0512 17.9167 13.75 17.9167 11.4488 17.9167 9.5833 16.205 9.5833 14.0931 9.5833 12.7851 10.1208 11.7098 10.972 10.9069 11.8244 10.1047 13.1547 9.0191 13.1547 7.0833Z" stroke="currentColor" stroke-linecap="round" stroke-linejoin="round" stroke-width="2"/>
  <path d="M17.0826 7.9167C17.075 5.3214 16.9929 3.9456 16.107 3.0596 15.1308 2.0833 13.5593 2.0833 10.4167 2.0833H8.75C5.6073 2.0833 4.036 2.0833 3.0596 3.0596 2.0833 4.036 2.0833 5.6073 2.0833 8.75V10.4167C2.0833 13.5593 2.0833 15.1308 3.0596 16.107 3.8455 16.8929 5.017 17.0462 7.0833 17.0761" stroke="currentColor" stroke-linecap="round" stroke-linejoin="round" stroke-width="2"/>
  <path d="M9.5833 7.0833H2.0833 5.8333V2.5M7.0833 12.0833H2.0833 5.8333V16.6667M13.3333 2.5V4.5833" stroke="currentColor" stroke-linecap="round" stroke-linejoin="round" stroke-width="2"/>
</svg>
