<svg xmlns="http://www.w3.org/2000/svg" width="20" height="20" viewBox="0 0 20 20" fill="none">
  <path d="M2.5 10.8333V9.1667C2.5 6.024 2.5 4.4526 3.4763 3.4763 4.4526 2.5 6.024 2.5 9.1667 2.5H10.8333C13.976 2.5 15.5474 2.5 16.5237 3.4763 17.5 4.4526 17.5 6.024 17.5 9.1667V10.8333C17.5 13.976 17.5 15.5474 16.5237 16.5237 15.5474 17.5 13.976 17.5 10.8333 17.5H9.1667C6.024 17.5 4.4526 17.5 3.4763 16.5237 2.5 15.5474 2.5 13.976 2.5 10.8333Z" stroke="currentColor" stroke-linecap="round" stroke-linejoin="round" stroke-width="2"/>
  <path d="M10 7.5H2.5 6.25M10 7.5V12.5M10 7.5H17.5 13.75M10 12.5H2.5 6.25M10 12.5H17.5 13.75M6.25 2.9167V7.5M6.25 7.5H13.75M13.75 2.9167V7.5M6.25 12.5V17.0833M6.25 12.5H13.75M13.75 12.5V17.0833" stroke="currentColor" stroke-linecap="round" stroke-linejoin="round" stroke-width="2"/>
</svg>
