<svg xmlns="http://www.w3.org/2000/svg" width="20" height="20" viewBox="0 0 20 20" fill="none">
  <path d="M1.6677 7.0833L1.6659 11.6642C1.6648 14.4149 1.6643 15.7903 2.5186 16.645 3.3729 17.4997 4.7483 17.4997 7.4991 17.4998L12.5 17.4998C15.2495 17.4999 16.6242 17.5 17.4784 16.6459 18.3327 15.7918 18.333 14.4171 18.3335 11.6677L18.3344 7.0833" stroke="currentColor" stroke-linecap="round" stroke-linejoin="round" stroke-width="2"/>
  <path d="M7.0821 5.4167C7.0821 4.2463 7.0821 3.6611 7.363 3.2407 7.4846 3.0587 7.6409 2.9025 7.8229 2.7809 8.2432 2.5 8.8284 2.5 9.9988 2.5 11.1692 2.5 11.7544 2.5 12.1748 2.7809 12.3567 2.9025 12.513 3.0587 12.6346 3.2407 12.9155 3.6611 12.9155 4.2463 12.9155 5.4167" stroke="currentColor" stroke-linecap="round" stroke-linejoin="round" stroke-width="2"/>
  <path d="M16.665 5.4168L3.3324 5.4167C2.412 5.4167 1.6656 6.1631 1.6656 7.0834 1.6656 8.9243 3.1584 10.417 4.9992 10.4172H14.9982C16.839 10.4171 18.3317 8.9244 18.3318 7.0836 18.3317 6.1632 17.5853 5.4169 16.665 5.4168Z" stroke="currentColor" stroke-linecap="round" stroke-linejoin="round" stroke-width="2"/>
  <path d="M8.3321 10.4167V11.25C8.3321 11.6375 8.3321 11.8313 8.3748 11.9902 8.4903 12.4216 8.8273 12.7585 9.2586 12.8741 9.4176 12.9167 9.6113 12.9167 9.9988 12.9167 10.3863 12.9167 10.58 12.9167 10.739 12.8741 11.1703 12.7585 11.5073 12.4216 11.6229 11.9902 11.6655 11.8313 11.6655 11.6375 11.6655 11.25V10.4167" stroke="currentColor" stroke-linecap="round" stroke-linejoin="round" stroke-width="2"/>
</svg>
