<svg xmlns="http://www.w3.org/2000/svg" width="20" height="20" viewBox="0 0 20 20" fill="none">
  <path d="M7.0833 5.8333V5.4167C7.0833 4.2463 7.0833 3.6611 7.3642 3.2407 7.4858 3.0587 7.6421 2.9025 7.824 2.7809 8.2444 2.5 8.8296 2.5 10 2.5 11.1704 2.5 11.7556 2.5 12.1759 2.7809 12.3579 2.9025 12.5142 3.0587 12.6358 3.2407 12.9167 3.6611 12.9167 4.2463 12.9167 5.4167V5.8333" stroke="currentColor" stroke-linecap="round" stroke-linejoin="round" stroke-width="2"/>
  <path d="M18.3333 12.5008V10.8342C18.3333 8.4771 18.3333 7.2986 17.6011 6.5664 16.8688 5.8342 15.6903 5.8342 13.3333 5.8342H6.6667C4.3096 5.8342 3.1311 5.8342 2.3989 6.5664 1.6667 7.2986 1.6667 8.4771 1.6667 10.8342V12.5008C1.6667 14.8578 1.6667 16.0363 2.3989 16.7685 3.1311 17.5008 4.3096 17.5008 6.6667 17.5008H13.3333C15.6903 17.5008 16.8688 17.5008 17.6011 16.7685 18.3333 16.0363 18.3333 14.8578 18.3333 12.5008Z" stroke="currentColor" stroke-linecap="round" stroke-linejoin="round" stroke-width="2"/>
  <path d="M9.9938 9.1667V14.1667M12.5 11.6604L7.5 11.6604" stroke="currentColor" stroke-linecap="round" stroke-linejoin="round" stroke-width="2"/>
</svg>
