<svg xmlns="http://www.w3.org/2000/svg" width="20" height="20" viewBox="0 0 20 20" fill="none">
  <path d="M7.0833 5.4167C7.0833 4.2463 7.0833 3.6611 7.3642 3.2407 7.4858 3.0587 7.6421 2.9025 7.824 2.7809 8.2444 2.5 8.8296 2.5 10 2.5 11.1704 2.5 11.7556 2.5 12.1759 2.7809 12.3579 2.9025 12.5142 3.0587 12.6358 3.2407 12.9167 3.6611 12.9167 4.2463 12.9167 5.4167" stroke="currentColor" stroke-linecap="round" stroke-linejoin="round" stroke-width="2"/>
  <path d="M18.3333 11.6667V11.25C18.3333 8.5002 18.3333 7.1252 17.4791 6.2709 16.6248 5.4167 15.2498 5.4167 12.5 5.4167H7.5C4.7501 5.4167 3.3752 5.4167 2.5209 6.2709 1.6667 7.1252 1.6667 8.5002 1.6667 11.25V11.6667C1.6667 14.4165 1.6667 15.7914 2.5209 16.6458 3.3752 17.5 4.7501 17.5 7.5 17.5H12.5C15.2498 17.5 16.6248 17.5 17.4791 16.6458 18.3333 15.7914 18.3333 14.4165 18.3333 11.6667Z" stroke="currentColor" stroke-linecap="round" stroke-linejoin="round" stroke-width="2"/>
  <path d="M11.25 11.6667C16.3113 11.2578 18.125 8.3333 18.125 8.3333M1.875 8.3333C1.875 8.3333 3.6888 11.2578 8.75 11.6667" stroke="currentColor" stroke-linecap="round" stroke-linejoin="round" stroke-width="2"/>
  <path d="M8.75 11.6667V10.8333C8.75 10.6033 8.9366 10.4167 9.1667 10.4167H10.8333C11.0634 10.4167 11.25 10.6033 11.25 10.8333V11.6667C11.25 12.357 10.6903 12.9167 10 12.9167 9.3097 12.9167 8.75 12.357 8.75 11.6667Z" stroke="currentColor" stroke-linecap="round" stroke-linejoin="round" stroke-width="2"/>
</svg>
