<svg xmlns="http://www.w3.org/2000/svg" width="20" height="20" viewBox="0 0 20 20" fill="none">
  <path d="M10 5C11.6947 5 13.2869 5.0759 14.6698 5.2092 16.2463 5.3611 17.0346 5.4371 17.6839 6.152 18.3333 6.867 18.3333 7.7631 18.3333 9.5553V9.7777C18.3333 10.7193 18.3333 11.1901 18.0162 11.6278 17.6989 12.0653 17.3348 12.1846 16.6066 12.4231 14.8833 12.9873 12.5583 13.3333 10 13.3333 7.4418 13.3333 5.1168 12.9873 3.3934 12.4231 2.6652 12.1846 2.301 12.0653 1.9839 11.6278 1.6667 11.1901 1.6667 10.7193 1.6667 9.7777V9.5553C1.6667 7.7631 1.6667 6.867 2.3161 6.152 2.9654 5.4371 3.7537 5.3611 5.3302 5.2092 6.7131 5.0759 8.3054 5 10 5Z" stroke="currentColor" stroke-linecap="round" stroke-linejoin="round" stroke-width="2"/>
  <path d="M7.0833 5L7.0833 4.5833C7.0833 3.4129 7.0833 2.8277 7.3642 2.4074 7.4858 2.2254 7.6421 2.0691 7.8241 1.9476 8.2444 1.6667 8.8297 1.6667 10 1.6667 11.1704 1.6667 11.7556 1.6667 12.1759 1.9476 12.3579 2.0692 12.5142 2.2254 12.6358 2.4074 12.9167 2.8278 12.9167 3.4129 12.9167 4.5833V5" stroke="currentColor" stroke-linecap="round" stroke-linejoin="round" stroke-width="2"/>
  <path d="M10 10.5208V10.625M10.2083 10.625C10.2083 10.7401 10.1151 10.8333 10 10.8333 9.8849 10.8333 9.7917 10.7401 9.7917 10.625 9.7917 10.5099 9.8849 10.4167 10 10.4167 10.1151 10.4167 10.2083 10.5099 10.2083 10.625Z" stroke="currentColor" stroke-linecap="round" stroke-linejoin="round" stroke-width="2"/>
  <path d="M17.5 12.5V13.8943C17.5 15.6298 17.5 16.4977 16.8529 17.2121 16.2059 17.9264 15.4573 18.0007 13.9603 18.1492 12.7734 18.2669 11.427 18.3333 10 18.3333 8.573 18.3333 7.2266 18.2669 6.0398 18.1492 4.5427 18.0007 3.7941 17.9264 3.1471 17.2121 2.5 16.4977 2.5 15.6298 2.5 13.8943V12.5" stroke="currentColor" stroke-linecap="round" stroke-linejoin="round" stroke-width="2"/>
</svg>
