<svg xmlns="http://www.w3.org/2000/svg" width="20" height="20" viewBox="0 0 20 20" fill="none">
  <path d="M1.6667 11.6667C1.6667 8.7445 1.6667 7.2834 2.4233 6.2999 2.5618 6.1199 2.7166 5.9548 2.8854 5.8071 3.8073 5 5.1771 5 7.9167 5H12.0833C14.8229 5 16.1927 5 17.1147 5.8071 17.2834 5.9548 17.4382 6.1199 17.5767 6.2999 18.3333 7.2834 18.3333 8.7445 18.3333 11.6667 18.3333 14.5888 18.3333 16.05 17.5767 17.0334 17.4382 17.2134 17.2834 17.3785 17.1147 17.5263 16.1927 18.3333 14.8229 18.3333 12.0833 18.3333H7.9167C5.1771 18.3333 3.8073 18.3333 2.8854 17.5263 2.7166 17.3785 2.5618 17.2134 2.4233 17.0334 1.6667 16.05 1.6667 14.5888 1.6667 11.6667Z" stroke="currentColor" stroke-width="2"/>
  <path d="M13.3333 5C13.3333 3.4286 13.3333 2.643 12.8452 2.1548 12.357 1.6667 11.5713 1.6667 10 1.6667 8.4287 1.6667 7.643 1.6667 7.1548 2.1548 6.6667 2.643 6.6667 3.4286 6.6667 5" stroke="currentColor" stroke-linecap="round" stroke-linejoin="round" stroke-width="2"/>
  <path d="M10 9.1667C9.0795 9.1667 8.3333 9.7263 8.3333 10.4167 8.3333 11.107 9.0795 11.6667 10 11.6667 10.9205 11.6667 11.6667 12.2263 11.6667 12.9167 11.6667 13.607 10.9205 14.1667 10 14.1667M10 9.1667C10.7257 9.1667 11.343 9.5145 11.5718 10M10 9.1667V8.3333M10 14.1667C9.2743 14.1667 8.657 13.8188 8.4282 13.3333M10 14.1667V15" stroke="currentColor" stroke-linecap="round" stroke-width="2"/>
  <path d="M5 10H1.6667" stroke="currentColor" stroke-linecap="round" stroke-width="2"/>
  <path d="M18.3333 10L15 10" stroke="currentColor" stroke-linecap="round" stroke-width="2"/>
</svg>
