<svg xmlns="http://www.w3.org/2000/svg" width="20" height="20" viewBox="0 0 20 20" fill="none">
  <path d="M7.0833 5.4167C7.0833 4.2463 7.0833 3.6611 7.3642 3.2407 7.4858 3.0587 7.6421 2.9025 7.824 2.7809 8.2444 2.5 8.8296 2.5 10 2.5 11.1704 2.5 11.7556 2.5 12.1759 2.7809 12.3579 2.9025 12.5142 3.0587 12.6358 3.2407 12.9167 3.6611 12.9167 4.2463 12.9167 5.4167" stroke="currentColor" stroke-linecap="round" stroke-linejoin="round" stroke-width="2"/>
  <path d="M18.3333 11.6667V11.25C18.3333 8.5002 18.3333 7.1252 17.4791 6.2709 16.6248 5.4167 15.2498 5.4167 12.5 5.4167H7.5C4.7501 5.4167 3.3752 5.4167 2.5209 6.2709 1.6667 7.1252 1.6667 8.5002 1.6667 11.25V11.6667C1.6667 14.4165 1.6667 15.7914 2.5209 16.6458 3.3752 17.5 4.7501 17.5 7.5 17.5H12.5C15.2498 17.5 16.6248 17.5 17.4791 16.6458 18.3333 15.7914 18.3333 14.4165 18.3333 11.6667Z" stroke="currentColor" stroke-linecap="round" stroke-linejoin="round" stroke-width="2"/>
  <path d="M1.6667 10.4167H18.3333" stroke="currentColor" stroke-linecap="round" stroke-linejoin="round" stroke-width="2"/>
  <path d="M8.3333 10.4167V11.25C8.3333 11.6375 8.3333 11.8313 8.3759 11.9902 8.4915 12.4216 8.8284 12.7585 9.2598 12.8741 9.4188 12.9167 9.6125 12.9167 10 12.9167 10.3875 12.9167 10.5813 12.9167 10.7402 12.8741 11.1716 12.7585 11.5085 12.4216 11.6241 11.9902 11.6667 11.8313 11.6667 11.6375 11.6667 11.25V10.4167" stroke="currentColor" stroke-linecap="round" stroke-linejoin="round" stroke-width="2"/>
</svg>
