<svg xmlns="http://www.w3.org/2000/svg" width="20" height="20" viewBox="0 0 20 20" fill="none">
  <path d="M1.6661 11.6667L1.6661 11.2499C1.6661 8.5 1.6661 7.1251 2.5204 6.2708 3.3747 5.4166 4.7496 5.4166 7.4995 5.4166H12.5004C15.2499 5.4166 16.6246 5.4166 17.4788 6.2707 18.3331 7.1248 18.3333 8.4995 18.3337 11.2489L18.3338 11.6658C18.3343 14.4162 18.3346 15.7913 17.4802 16.6458 16.6259 17.5003 15.2508 17.5002 12.5004 17.5002L7.4993 17.5C4.7495 17.5 3.3746 17.4999 2.5204 16.6457 1.6661 15.7914 1.6661 14.4165 1.6661 11.6667Z" stroke="currentColor" stroke-linecap="round" stroke-linejoin="round" stroke-width="2"/>
  <path d="M7.0828 5.4166C7.0828 4.2462 7.0828 3.661 7.3637 3.2406 7.4853 3.0586 7.6415 2.9024 7.8235 2.7808 8.2439 2.4999 8.8291 2.4999 9.9994 2.4999 11.1698 2.4999 11.755 2.4999 12.1754 2.7808 12.3574 2.9024 12.5137 3.0586 12.6353 3.2406 12.9161 3.661 12.9161 4.2462 12.9161 5.4166" stroke="currentColor" stroke-linecap="round" stroke-linejoin="round" stroke-width="2"/>
  <path d="M4.9994 8.7499H14.9993" stroke="currentColor" stroke-linecap="round" stroke-linejoin="round" stroke-width="2"/>
</svg>
