<svg xmlns="http://www.w3.org/2000/svg" width="20" height="20" viewBox="0 0 20 20" fill="none">
  <path d="M7.0822 5.4168C7.0822 4.2464 7.0822 3.6612 7.3631 3.2408 7.4847 3.0588 7.641 2.9026 7.823 2.781 8.2433 2.5001 8.8285 2.5001 9.9989 2.5001 11.1693 2.5001 11.7545 2.5001 12.1748 2.781 12.3568 2.9026 12.5131 3.0588 12.6347 3.2408 12.9156 3.6612 12.9156 4.2464 12.9156 5.4168" stroke="currentColor" stroke-linecap="round" stroke-linejoin="round" stroke-width="2"/>
  <path d="M16.6651 5.4169L3.3325 5.4168C2.4121 5.4168 1.6658 6.1632 1.6657 7.0835 1.6658 8.9243 3.1585 10.4171 4.9993 10.4173H14.9983C16.8391 10.4172 18.3318 8.9245 18.3318 7.0837 18.3318 6.1633 17.5855 5.417 16.6651 5.4169Z" stroke="currentColor" stroke-linecap="round" stroke-linejoin="round" stroke-width="2"/>
  <path d="M6.2489 9.1668V11.6668M13.7489 11.6668V9.1668" stroke="currentColor" stroke-linecap="round" stroke-linejoin="round" stroke-width="2"/>
  <path d="M1.6676 7.0834L1.6658 11.6643C1.6648 14.415 1.6642 15.7904 2.5185 16.6451 3.3728 17.4998 4.7482 17.4998 7.499 17.4998L12.4999 17.5C15.2493 17.5 16.6241 17.5001 17.4783 16.646 18.3326 15.7919 18.3328 14.4172 18.3334 11.6678L18.3343 7.0834" stroke="currentColor" stroke-linecap="round" stroke-linejoin="round" stroke-width="2"/>
</svg>
