<svg xmlns="http://www.w3.org/2000/svg" width="20" height="20" viewBox="0 0 20 20" fill="none">
  <path d="M13.8317 7.0833C14.1667 7.6635 14.1667 8.4423 14.1667 10 14.1667 11.5577 14.1667 12.3365 13.8317 12.9167 13.6123 13.2967 13.2967 13.6123 12.9167 13.8317 12.3365 14.1667 11.5577 14.1667 10 14.1667 8.4423 14.1667 7.6635 14.1667 7.0833 13.8317 6.7033 13.6123 6.3877 13.2967 6.1683 12.9167 5.8333 12.3365 5.8333 11.5577 5.8333 10 5.8333 8.4423 5.8333 7.6635 6.1683 7.0833 6.3877 6.7033 6.7033 6.3877 7.0833 6.1683 7.6635 5.8333 8.4423 5.8333 10 5.8333 11.5577 5.8333 12.3365 5.8333 12.9167 6.1683 13.2967 6.3877 13.6123 6.7033 13.8317 7.0833Z" stroke="currentColor" stroke-linecap="round" stroke-linejoin="round" stroke-width="2"/>
  <path d="M6.6667 3.3363C6.6503 2.9179 6.6043 2.6431 6.4743 2.418 6.3424 2.1896 6.1527 1.9999 5.9243 1.868 5.5756 1.6667 5.1074 1.6667 4.1711 1.6667 3.2349 1.6667 2.7667 1.6667 2.418 1.868 2.1896 1.9999 1.9999 2.1896 1.868 2.418 1.6667 2.7667 1.6667 3.2349 1.6667 4.1711 1.6667 5.1074 1.6667 5.5756 1.868 5.9243 1.9999 6.1527 2.1896 6.3424 2.418 6.4743 2.6431 6.6043 2.9179 6.6503 3.3363 6.6667" stroke="currentColor" stroke-linecap="round" stroke-linejoin="round" stroke-width="2"/>
  <path d="M13.3333 16.6637C13.3497 17.0821 13.3957 17.3569 13.5257 17.582 13.6576 17.8104 13.8473 18.0001 14.0757 18.132 14.4244 18.3333 14.8926 18.3333 15.8288 18.3333 16.7652 18.3333 17.2333 18.3333 17.582 18.132 17.8104 18.0001 18.0001 17.8104 18.132 17.582 18.3333 17.2333 18.3333 16.7652 18.3333 15.8288 18.3333 14.8926 18.3333 14.4244 18.132 14.0757 18.0001 13.8473 17.8104 13.6576 17.582 13.5257 17.3569 13.3957 17.0821 13.3497 16.6637 13.3333" stroke="currentColor" stroke-linecap="round" stroke-linejoin="round" stroke-width="2"/>
</svg>
