<svg xmlns="http://www.w3.org/2000/svg" width="20" height="20" viewBox="0 0 20 20" fill="none">
  <path d="M3.3767 7.0513C1.5639 8.7255 2.715 11.6667 5.4297 11.6667 6.7888 11.6667 7.9368 10.8488 8.3056 9.7273M4.9479 8.5898C1.936 7.4091 3.5386 3.6344 6.6267 3.9989 6.6267 2.7244 7.7542 1.6667 9.145 1.6667 10.5358 1.6667 11.6633 2.5182 11.6633 3.7927 12.1088 3.4273 12.6972 3.2051 13.3422 3.2051 14.7329 3.2051 15.8604 4.2383 15.8604 5.5128 15.8604 6.7873 14.7329 7.8205 13.3422 7.8205M15.7171 6.282C18.6253 7.3404 17.779 11.6667 14.6013 11.6667 12.9787 11.6667 11.6633 10.4201 11.6633 8.8823 10.8238 10.1282 9.5648 10.5128 8.3056 9.7436" stroke="currentColor" stroke-linecap="round" stroke-linejoin="round" stroke-width="2"/>
  <path d="M5.8333 11.6667C6.5719 12.0346 7.8441 13.7804 7.9167 17.5 7.9274 18.05 9.4038 18.3333 10 18.3333 10.5963 18.3333 12.0726 18.05 12.0833 17.5 12.1559 13.7804 13.4281 12.0346 14.1667 11.6667" stroke="currentColor" stroke-linecap="round" stroke-width="2"/>
</svg>
