<svg xmlns="http://www.w3.org/2000/svg" width="20" height="20" viewBox="0 0 20 20" fill="none">
  <path d="M15.4167 14.1667V5.8333C15.4167 4.262 15.4167 3.4763 14.9285 2.9882 14.4403 2.5 13.6547 2.5 12.0833 2.5H7.9167C6.3453 2.5 5.5596 2.5 5.0715 2.9882 4.5833 3.4763 4.5833 4.262 4.5833 5.8333V14.1667C4.5833 15.738 4.5833 16.5237 5.0715 17.0118 5.5596 17.5 6.3453 17.5 7.9167 17.5H12.0833C13.6547 17.5 14.4403 17.5 14.9285 17.0118 15.4167 16.5237 15.4167 15.738 15.4167 14.1667Z" stroke="currentColor" stroke-width="2"/>
  <path d="M15.4167 5H15.8333C17.0118 5 17.6011 5 17.9672 5.3661 18.3333 5.7322 18.3333 6.3215 18.3333 7.5V13.3333C18.3333 14.5118 18.3333 15.1011 17.9672 15.4673 17.6011 15.8333 17.0118 15.8333 15.8333 15.8333H15.4167" stroke="currentColor" stroke-linecap="round" stroke-width="2"/>
  <path d="M4.5833 5H4.1667C2.9882 5 2.3989 5 2.0328 5.3661 1.6667 5.7322 1.6667 6.3215 1.6667 7.5V13.3333C1.6667 14.5118 1.6667 15.1011 2.0328 15.4673 2.3989 15.8333 2.9882 15.8333 4.1667 15.8333H4.5833" stroke="currentColor" stroke-linecap="round" stroke-width="2"/>
  <path d="M12.0833 6.6667L7.9167 6.6667M12.0833 10L7.9167 10M12.0833 13.3333H7.9167" stroke="currentColor" stroke-linecap="round" stroke-width="2"/>
</svg>
