<svg xmlns="http://www.w3.org/2000/svg" width="20" height="20" viewBox="0 0 20 20" fill="none">
  <path d="M5.2356 16.0275C5.0993 16.4412 4.8446 16.7773 4.5258 17.0073M4.5258 17.0073C4.0626 17.3416 3.4643 17.452 2.8974 17.2512 1.9404 16.9123 1.4356 15.815 1.7699 14.8003 2.0267 14.0207 2.7039 13.5168 3.4379 13.4785 3.8113 13.4591 4.2043 13.2843 4.3213 12.9291L5.5608 9.1667 6.6667 10.8333 8.3334 10 7.0767 13.9429C6.9674 14.2859 7.1628 14.6458 7.4373 14.8787 8.0177 15.3709 8.2697 16.2154 8.0082 17.0093 7.6739 18.0241 6.627 18.5719 5.67 18.2331 5.1032 18.0323 4.695 17.5655 4.5258 17.0073Z" stroke="currentColor" stroke-linecap="round" stroke-linejoin="round" stroke-width="2"/>
  <path d="M15.453 4.4368C15.8316 4.2278 16.2517 4.1518 16.6518 4.1941M16.6518 4.1941C17.2333 4.2556 17.7732 4.5664 18.0837 5.0809 18.6078 5.9494 18.28 7.0692 17.3514 7.5821 16.6265 7.9824 15.7498 7.8945 15.1506 7.4235 14.8658 7.1996 14.4697 7.082 14.1553 7.2623L10.8334 9.1667V7.5L9.1668 6.6505 12.5957 4.7568C12.9268 4.5739 13.0234 4.1484 12.9697 3.774 12.8668 3.057 13.2256 2.3121 13.9343 1.9206 14.8629 1.4078 16.0407 1.6961 16.5649 2.5647 16.8754 3.0791 16.887 3.6817 16.6518 4.1941Z" stroke="currentColor" stroke-linecap="round" stroke-linejoin="round" stroke-width="2"/>
  <path d="M5.8334 6.6667L4.1667 6.6667M7.5 5L7.5 3.3333" stroke="currentColor" stroke-linecap="round" stroke-linejoin="round" stroke-width="2"/>
  <path d="M10.8334 13.3333L10.8334 15M12.5001 11.6667L14.1668 11.6667" stroke="currentColor" stroke-linecap="round" stroke-linejoin="round" stroke-width="2"/>
</svg>
