<svg xmlns="http://www.w3.org/2000/svg" width="20" height="20" viewBox="0 0 20 20" fill="none">
  <path d="M11.8367 13.0266L12.1899 15.8527C12.3546 17.1698 11.3275 18.3333 10 18.3333 8.6725 18.3333 7.6454 17.1698 7.8101 15.8527L8.1633 13.0266C8.212 12.6376 8.2363 12.4431 8.195 12.2869 8.1278 12.0328 7.9446 11.8253 7.7007 11.727 7.5509 11.6667 7.3549 11.6667 6.9629 11.6667H6.6667C5.8917 11.6667 5.5042 11.6667 5.1863 11.5815 4.3236 11.3503 3.6497 10.6764 3.4185 9.8138 3.3333 9.4958 3.3333 9.1083 3.3333 8.3333H16.6667C16.6667 9.1083 16.6667 9.4958 16.5815 9.8138 16.3503 10.6764 15.6764 11.3503 14.8137 11.5815 14.4958 11.6667 14.1083 11.6667 13.3333 11.6667H13.0372C12.6452 11.6667 12.4491 11.6667 12.2993 11.727 12.0554 11.8253 11.8723 12.0328 11.805 12.2869 11.7637 12.4431 11.788 12.6376 11.8367 13.0266Z" stroke="currentColor" stroke-linecap="round" stroke-linejoin="round" stroke-width="2"/>
  <path d="M3.3333 8.3333V4.5956C3.3333 4.1972 3.3333 3.998 3.356 3.8308 3.5071 2.7166 4.3833 1.8404 5.4975 1.6893 5.6646 1.6667 5.8639 1.6667 6.2623 1.6667 6.3205 1.6667 6.3496 1.6667 6.3776 1.6686 6.5595 1.6808 6.7324 1.7524 6.8697 1.8724 6.8909 1.8909 6.9115 1.9115 6.9526 1.9526L7.1548 2.1548C7.7104 2.7104 7.9882 2.9882 8.3333 2.9882 8.6785 2.9882 8.9563 2.7104 9.5118 2.1548 9.7527 1.914 9.8732 1.7935 10.0262 1.7301 10.1794 1.6667 10.3498 1.6667 10.6903 1.6667H11.6667C14.0237 1.6667 15.2022 1.6667 15.9344 2.3989 16.6667 3.1311 16.6667 4.3096 16.6667 6.6667V8.3333" stroke="currentColor" stroke-linecap="round" stroke-linejoin="round" stroke-width="2"/>
</svg>
