<svg xmlns="http://www.w3.org/2000/svg" width="20" height="20" viewBox="0 0 20 20" fill="none">
  <path d="M17.9167 10C17.9167 14.3723 14.3723 17.9167 10 17.9167 8.6433 17.9167 7.3662 17.5753 6.25 16.9739 4.6931 16.135 3.6455 16.9149 2.7216 17.0548 2.5815 17.0761 2.4419 17.0252 2.3416 16.925 2.1895 16.7728 2.1606 16.5376 2.2446 16.3395 2.6072 15.4848 2.9402 13.8652 2.4862 12.5 2.2248 11.7142 2.0833 10.8736 2.0833 10 2.0833 5.6277 5.6277 2.0833 10 2.0833 14.3723 2.0833 17.9167 5.6277 17.9167 10Z" stroke="currentColor" stroke-linecap="round" stroke-linejoin="round" stroke-width="2"/>
  <path d="M12.1742 7.1651C11.5609 6.8513 10.8105 6.6667 10 6.6667 9.1895 6.6667 8.4391 6.8513 7.8258 7.1651 7.5251 7.319 7.3747 7.396 7.229 7.6379 7.0833 7.8799 7.0833 8.1142 7.0833 8.5828V9.7457C7.0833 11.6402 8.5554 12.6934 9.4079 13.1446 9.6457 13.2704 9.7646 13.3333 10 13.3333 10.2354 13.3333 10.3543 13.2704 10.5921 13.1446 11.4446 12.6934 12.9167 11.6402 12.9167 9.7457L12.9167 8.5828C12.9167 8.1142 12.9167 7.8799 12.771 7.6379 12.6252 7.396 12.4749 7.319 12.1742 7.1651Z" stroke="currentColor" stroke-linecap="round" stroke-linejoin="round" stroke-width="2"/>
</svg>
