<svg xmlns="http://www.w3.org/2000/svg" width="20" height="20" viewBox="0 0 20 20" fill="none">
  <path d="M15 7.5L13.7682 15.3447C13.5607 16.666 13.4569 17.3268 12.9887 17.7203 11.9887 18.5608 7.9558 18.5142 7.0113 17.7203 6.5431 17.3268 6.4393 16.666 6.2318 15.3447L5 7.5" stroke="currentColor" stroke-linecap="round" stroke-width="2"/>
  <path d="M5 7.5L5.4287 6.4283C6.1764 4.559 7.9868 3.3333 10 3.3333 12.0133 3.3333 13.8236 4.559 14.5713 6.4283L15 7.5" stroke="currentColor" stroke-width="2"/>
  <path d="M4.1667 7.5H15.8333" stroke="currentColor" stroke-linecap="round" stroke-width="2"/>
  <path d="M10.8333 7.5L13.3333 1.6667" stroke="currentColor" stroke-linecap="round" stroke-width="2"/>
  <path d="M10.9375 10.8333H10.8333M11.0417 10.8333C11.0417 10.9484 10.9484 11.0417 10.8333 11.0417 10.7183 11.0417 10.625 10.9484 10.625 10.8333 10.625 10.7183 10.7183 10.625 10.8333 10.625 10.9484 10.625 11.0417 10.7183 11.0417 10.8333Z" stroke="currentColor" stroke-linecap="round" stroke-linejoin="round" stroke-width="2"/>
  <path d="M11.3542 15H11.25M11.4583 15C11.4583 15.1151 11.3651 15.2083 11.25 15.2083 11.1349 15.2083 11.0417 15.1151 11.0417 15 11.0417 14.8849 11.1349 14.7917 11.25 14.7917 11.3651 14.7917 11.4583 14.8849 11.4583 15Z" stroke="currentColor" stroke-linecap="round" stroke-linejoin="round" stroke-width="2"/>
  <path d="M8.4375 12.9167H8.3333M8.5417 12.9167C8.5417 13.0318 8.4484 13.125 8.3333 13.125 8.2183 13.125 8.125 13.0318 8.125 12.9167 8.125 12.8016 8.2183 12.7083 8.3333 12.7083 8.4484 12.7083 8.5417 12.8016 8.5417 12.9167Z" stroke="currentColor" stroke-linecap="round" stroke-linejoin="round" stroke-width="2"/>
</svg>
