<svg xmlns="http://www.w3.org/2000/svg" width="20" height="20" viewBox="0 0 20 20" fill="none">
  <path d="M17.9167 10C17.9167 14.3723 14.3723 17.9167 10 17.9167 8.6433 17.9167 7.3662 17.5753 6.25 16.9739 4.6931 16.135 3.6455 16.9149 2.7216 17.0548 2.5815 17.0761 2.4419 17.0252 2.3416 16.925 2.1895 16.7728 2.1606 16.5376 2.2446 16.3395 2.6072 15.4848 2.9402 13.8652 2.4862 12.5 2.2248 11.7142 2.0833 10.8736 2.0833 10 2.0833 5.6277 5.6277 2.0833 10 2.0833 14.3723 2.0833 17.9167 5.6277 17.9167 10Z" stroke="currentColor" stroke-linecap="round" stroke-linejoin="round" stroke-width="2"/>
  <path d="M10.1048 10H10.0006M6.7708 10H6.6667M13.4375 10H13.3333M10.2089 10C10.2089 10.1151 10.1157 10.2083 10.0006 10.2083 9.8856 10.2083 9.7923 10.1151 9.7923 10 9.7923 9.8849 9.8856 9.7917 10.0006 9.7917 10.1157 9.7917 10.2089 9.8849 10.2089 10ZM6.875 10C6.875 10.1151 6.7817 10.2083 6.6667 10.2083 6.5516 10.2083 6.4583 10.1151 6.4583 10 6.4583 9.8849 6.5516 9.7917 6.6667 9.7917 6.7817 9.7917 6.875 9.8849 6.875 10ZM13.5417 10C13.5417 10.1151 13.4484 10.2083 13.3333 10.2083 13.2183 10.2083 13.125 10.1151 13.125 10 13.125 9.8849 13.2183 9.7917 13.3333 9.7917 13.4484 9.7917 13.5417 9.8849 13.5417 10Z" stroke="currentColor" stroke-linecap="round" stroke-linejoin="round" stroke-width="2"/>
</svg>
