<svg xmlns="http://www.w3.org/2000/svg" width="20" height="20" viewBox="0 0 20 20" fill="none">
  <path d="M17.9167 10C17.9167 14.3723 14.3723 17.9167 10 17.9167 8.6433 17.9167 7.3662 17.5753 6.25 16.9739 4.6931 16.135 3.6455 16.9149 2.7216 17.0548 2.5815 17.0761 2.4419 17.0252 2.3416 16.925 2.1895 16.7728 2.1606 16.5376 2.2446 16.3395 2.6072 15.4848 2.9402 13.8652 2.4862 12.5 2.2248 11.7142 2.0833 10.8736 2.0833 10 2.0833 5.6277 5.6277 2.0833 10 2.0833 14.3723 2.0833 17.9167 5.6277 17.9167 10Z" stroke="currentColor" stroke-linecap="round" stroke-linejoin="round" stroke-width="2"/>
  <path d="M9.9999 13.333C9.9999 13.333 6.6666 11.2742 6.6666 9.2821 6.6666 8.2977 7.3684 7.4997 8.3333 7.4997 8.8332 7.4997 9.3332 7.6713 9.9999 8.3575 10.6666 7.6713 11.1666 7.4997 11.6666 7.4997 12.6315 7.4997 13.3333 8.2977 13.3333 9.2821 13.3333 11.2742 9.9999 13.333 9.9999 13.333Z" stroke="currentColor" stroke-linecap="round" stroke-linejoin="round" stroke-width="2"/>
</svg>
