<svg xmlns="http://www.w3.org/2000/svg" width="20" height="20" viewBox="0 0 20 20" fill="none">
  <path d="M15 7.5L13.7682 15.3447C13.5607 16.666 13.4569 17.3268 12.9887 17.7203 11.9887 18.5608 7.9558 18.5142 7.0113 17.7203 6.5431 17.3268 6.4393 16.666 6.2318 15.3447L5 7.5" stroke="currentColor" stroke-linecap="round" stroke-width="2"/>
  <path d="M5 7.5L5.7454 6.0093C6.1936 5.1128 6.4177 4.6645 6.8205 4.4156 7.2233 4.1667 7.7244 4.1667 8.7267 4.1667L11.2733 4.1667C12.2756 4.1667 12.7768 4.1667 13.1795 4.4156 13.5823 4.6645 13.8064 5.1128 14.2547 6.0093L15 7.5" stroke="currentColor" stroke-width="2"/>
  <path d="M4.1667 7.5H15.8333" stroke="currentColor" stroke-linecap="round" stroke-width="2"/>
  <path d="M10 7.5V1.6667" stroke="currentColor" stroke-linecap="round" stroke-width="2"/>
  <path d="M5.4167 10.8427C5.6462 10.4306 7.1763 9.7584 8.2782 10.0881 9.6557 10.5002 12.5173 12.9032 14.5833 10.8428" stroke="currentColor" stroke-width="2"/>
  <path d="M10.9375 15.4167H10.8333M11.0417 15.4167C11.0417 15.5318 10.9484 15.625 10.8333 15.625 10.7183 15.625 10.625 15.5318 10.625 15.4167 10.625 15.3016 10.7183 15.2083 10.8333 15.2083 10.9484 15.2083 11.0417 15.3016 11.0417 15.4167Z" stroke="currentColor" stroke-linecap="round" stroke-linejoin="round" stroke-width="2"/>
  <path d="M8.8542 13.3334H8.75M8.9583 13.3334C8.9583 13.4485 8.8651 13.5418 8.75 13.5418 8.6349 13.5418 8.5417 13.4485 8.5417 13.3334 8.5417 13.2183 8.6349 13.1251 8.75 13.1251 8.8651 13.1251 8.9583 13.2183 8.9583 13.3334Z" stroke="currentColor" stroke-linecap="round" stroke-linejoin="round" stroke-width="2"/>
</svg>
