<svg xmlns="http://www.w3.org/2000/svg" width="20" height="20" viewBox="0 0 20 20" fill="none">
  <path d="M17.9167 10C17.9167 14.3723 14.3723 17.9167 10 17.9167 8.6433 17.9167 7.3662 17.5753 6.25 16.9739 4.6931 16.135 3.6455 16.9149 2.7216 17.0548 2.5815 17.0761 2.4419 17.0252 2.3416 16.925 2.1895 16.7728 2.1606 16.5376 2.2446 16.3395 2.6072 15.4848 2.9402 13.8652 2.4862 12.5 2.2248 11.7142 2.0833 10.8736 2.0833 10 2.0833 5.6277 5.6277 2.0833 10 2.0833 14.3723 2.0833 17.9167 5.6277 17.9167 10Z" stroke="currentColor" stroke-linecap="round" stroke-linejoin="round" stroke-width="2"/>
  <path d="M9.9708 6.6905C9.9772 6.6587 10.0228 6.6587 10.0293 6.6905 10.3668 8.3423 11.6577 9.6332 13.3095 9.9708 13.3413 9.9772 13.3413 10.0228 13.3095 10.0293 11.6577 10.3668 10.3668 11.6577 10.0293 13.3095 10.0228 13.3413 9.9772 13.3413 9.9708 13.3095 9.6332 11.6577 8.3423 10.3668 6.6905 10.0293 6.6587 10.0228 6.6587 9.9772 6.6905 9.9708 8.3423 9.6332 9.6332 8.3423 9.9708 6.6905Z" stroke="currentColor" stroke-linejoin="round" stroke-width="2"/>
</svg>
