<svg xmlns="http://www.w3.org/2000/svg" width="20" height="20" viewBox="0 0 20 20" fill="none">
  <path d="M17.9167 10C17.9167 14.3723 14.3723 17.9167 10 17.9167 8.6433 17.9167 7.3662 17.5753 6.25 16.9739 4.6931 16.135 3.6455 16.9149 2.7216 17.0548 2.5815 17.0761 2.4419 17.0252 2.3416 16.925 2.1895 16.7728 2.1606 16.5376 2.2446 16.3395 2.6072 15.4848 2.9402 13.8652 2.4862 12.5 2.2248 11.7142 2.0833 10.8736 2.0833 10 2.0833 5.6277 5.6277 2.0833 10 2.0833 14.3723 2.0833 17.9167 5.6277 17.9167 10Z" stroke="currentColor" stroke-linecap="round" stroke-linejoin="round" stroke-width="2"/>
  <path d="M10 7.5V6.25M6.6667 7.5H13.3333M7.5 13.75C9.7597 12.2436 11.5376 10.2289 12.0833 7.5M11.25 12.5C9.9068 11.4255 9.1951 10.2788 8.8968 9.5833" stroke="currentColor" stroke-linecap="round" stroke-linejoin="round" stroke-width="2"/>
</svg>
