<svg xmlns="http://www.w3.org/2000/svg" width="20" height="20" viewBox="0 0 20 20" fill="none">
  <path d="M6.2534 16.9739C4.6965 16.135 3.6489 16.9149 2.725 17.0548 2.5848 17.0761 2.4452 17.0252 2.345 16.925 2.1929 16.7728 2.1639 16.5376 2.2479 16.3395 2.468 15.821 2.6771 15.0207 2.7061 14.1667M11.2533 2.1815C10.8462 2.1169 10.4287 2.0833 10.0033 2.0833 9.578 2.0833 9.1605 2.1169 8.7533 2.1815M14.6459 3.5868C15.3244 4.0788 15.9218 4.6759 16.4142 5.3541M17.8219 8.75C17.8865 9.1572 17.92 9.5747 17.92 10 17.92 10.4253 17.8865 10.8428 17.8219 11.25M16.4142 14.6458C15.9218 15.3241 15.3245 15.9211 14.646 16.4132M11.2533 17.8185C10.8462 17.8831 10.4287 17.9167 10.0033 17.9167 9.578 17.9167 9.1605 17.8831 8.7533 17.8185M2.1848 11.25C2.1202 10.8428 2.0867 10.4253 2.0867 10 2.0867 9.5747 2.1202 9.1572 2.1848 8.75M3.5902 5.3574C4.0822 4.6789 4.6793 4.0815 5.3575 3.5892" stroke="currentColor" stroke-linecap="round" stroke-linejoin="round" stroke-width="2"/>
</svg>
