<svg xmlns="http://www.w3.org/2000/svg" width="20" height="20" viewBox="0 0 20 20" fill="none">
  <path d="M18.3333 4.1667C18.3333 5.3173 17.4006 6.25 16.25 6.25 15.0994 6.25 14.1667 5.3173 14.1667 4.1667 14.1667 3.0161 15.0994 2.0833 16.25 2.0833 17.4006 2.0833 18.3333 3.0161 18.3333 4.1667Z" stroke="currentColor" stroke-linecap="round" stroke-linejoin="round" stroke-width="2"/>
  <path d="M18.158 8.3353C18.2728 8.872 18.3333 9.4289 18.3333 10 18.3333 14.3723 14.7889 17.9167 10.4167 17.9167 9.0599 17.9167 7.7828 17.5753 6.6667 16.9739 5.1098 16.135 4.0622 16.9149 3.1383 17.0548 2.9981 17.0761 2.8585 17.0252 2.7583 16.925 2.6062 16.7728 2.5772 16.5376 2.6612 16.3395 3.0239 15.4848 3.3568 13.8652 2.9028 12.5 2.6415 11.7142 2.5 10.8736 2.5 10 2.5 5.6277 6.0444 2.0833 10.4167 2.0833 10.9878 2.0833 11.5447 2.1438 12.0815 2.2587" stroke="currentColor" stroke-linecap="round" stroke-linejoin="round" stroke-width="2"/>
  <path d="M10.5214 10H10.4173M7.1875 10H7.0833M13.8542 10H13.75M10.6256 10C10.6256 10.1151 10.5323 10.2083 10.4173 10.2083 10.3023 10.2083 10.2089 10.1151 10.2089 10 10.2089 9.8849 10.3023 9.7917 10.4173 9.7917 10.5323 9.7917 10.6256 9.8849 10.6256 10ZM7.2917 10C7.2917 10.1151 7.1984 10.2083 7.0833 10.2083 6.9683 10.2083 6.875 10.1151 6.875 10 6.875 9.8849 6.9683 9.7917 7.0833 9.7917 7.1984 9.7917 7.2917 9.8849 7.2917 10ZM13.9583 10C13.9583 10.1151 13.8651 10.2083 13.75 10.2083 13.6349 10.2083 13.5417 10.1151 13.5417 10 13.5417 9.8849 13.6349 9.7917 13.75 9.7917 13.8651 9.7917 13.9583 9.8849 13.9583 10Z" stroke="currentColor" stroke-linecap="round" stroke-linejoin="round" stroke-width="2"/>
</svg>
