<svg xmlns="http://www.w3.org/2000/svg" width="20" height="20" viewBox="0 0 20 20" fill="none">
  <path d="M1.6667 1.6667L18.3333 18.3333" stroke="currentColor" stroke-linecap="round" stroke-linejoin="round" stroke-width="2"/>
  <path d="M6.3214 2.9881C7.4205 2.4103 8.6721 2.0833 10 2.0833 14.3723 2.0833 17.9167 5.6277 17.9167 10 17.9167 11.3279 17.5898 12.5795 17.0119 13.6786M4.4021 4.4021C2.9694 5.8347 2.0833 7.8139 2.0833 10 2.0833 10.8736 2.2248 11.7142 2.4862 12.5 2.9402 13.8652 2.6072 15.4848 2.2446 16.3395 2.1606 16.5376 2.1895 16.7728 2.3416 16.925 2.4419 17.0252 2.5815 17.0761 2.7216 17.0548 3.6455 16.9149 4.6931 16.135 6.25 16.9739 7.3662 17.5753 8.6433 17.9167 10 17.9167 12.1862 17.9167 14.1653 17.0306 15.5979 15.5979" stroke="currentColor" stroke-linecap="round" stroke-linejoin="round" stroke-width="2"/>
</svg>
