<svg xmlns="http://www.w3.org/2000/svg" width="20" height="20" viewBox="0 0 20 20" fill="none">
  <path d="M17.9167 10C17.9167 14.3723 14.3723 17.9167 10 17.9167 8.6433 17.9167 7.3662 17.5753 6.25 16.9739 4.6931 16.135 3.6455 16.9149 2.7216 17.0548 2.5815 17.0761 2.4419 17.0252 2.3416 16.925 2.1895 16.7728 2.1606 16.5376 2.2446 16.3395 2.6072 15.4848 2.9402 13.8652 2.4862 12.5 2.2248 11.7142 2.0833 10.8736 2.0833 10 2.0833 5.6277 5.6277 2.0833 10 2.0833 14.3723 2.0833 17.9167 5.6277 17.9167 10Z" stroke="currentColor" stroke-linecap="round" stroke-linejoin="round" stroke-width="2"/>
  <path d="M7.9167 7.9167C7.9167 6.7661 8.8494 5.8333 10 5.8333 11.1506 5.8333 12.0833 6.7661 12.0833 7.9167 12.0833 8.6308 11.7241 9.2609 11.1764 9.6363 10.6069 10.0266 10 10.5597 10 11.25" stroke="currentColor" stroke-linecap="round" stroke-linejoin="round" stroke-width="2"/>
  <path d="M10.1042 13.9583H10M10.2083 13.9583C10.2083 14.0734 10.1151 14.1667 10 14.1667 9.8849 14.1667 9.7917 14.0734 9.7917 13.9583 9.7917 13.8432 9.8849 13.75 10 13.75 10.1151 13.75 10.2083 13.8432 10.2083 13.9583Z" stroke="currentColor" stroke-linecap="round" stroke-linejoin="round" stroke-width="2"/>
</svg>
