<svg xmlns="http://www.w3.org/2000/svg" width="20" height="20" viewBox="0 0 20 20" fill="none">
  <path d="M9.1667 7.5C12.8486 7.5 15.8333 6.3807 15.8333 5 15.8333 3.6193 12.8486 2.5 9.1667 2.5 5.4848 2.5 2.5 3.6193 2.5 5 2.5 6.3807 5.4848 7.5 9.1667 7.5Z" stroke="currentColor" stroke-linecap="round" stroke-linejoin="round" stroke-width="2"/>
  <path d="M15.8333 5L14.2915 15.7931C14.2134 16.3395 13.8718 16.8211 13.3434 16.9808 12.2839 17.3012 10.8041 17.5 9.1667 17.5 7.5293 17.5 6.0494 17.3012 4.9899 16.9808 4.4615 16.8211 4.1199 16.3395 4.0419 15.7931L2.5 5" stroke="currentColor" stroke-linecap="round" stroke-linejoin="round" stroke-width="2"/>
  <path d="M9.1667 11.6667C9.6269 11.6667 10 11.2936 10 10.8333 10 10.3731 9.6269 10 9.1667 10 8.7064 10 8.3333 10.3731 8.3333 10.8333 8.3333 11.2936 8.7064 11.6667 9.1667 11.6667Z" stroke="currentColor" stroke-linecap="round" stroke-linejoin="round" stroke-width="2"/>
  <path d="M9.1667 10.9767C9.4125 11.1331 9.6664 11.2865 9.9277 11.436 13.3007 13.3656 16.6269 13.9138 17.3572 12.6606 17.8499 11.8149 17.0349 10.3652 15.4167 8.9189" stroke="currentColor" stroke-linecap="round" stroke-linejoin="round" stroke-width="2"/>
</svg>
