<svg xmlns="http://www.w3.org/2000/svg" width="20" height="20" viewBox="0 0 20 20" fill="none">
  <path d="M2.5101 5.4979C2.4101 6.3806 3.0487 8.4959 4.8974 8.5458" stroke="currentColor" stroke-linecap="round" stroke-width="2"/>
  <path d="M15.2409 8.4958C16.1403 8.5458 17.4894 7.4965 17.4894 5.4978" stroke="currentColor" stroke-linecap="round" stroke-width="2"/>
  <path d="M16.7397 17.4899C16.7897 16.3407 16.0402 14.5618 14.5911 14.5118" stroke="currentColor" stroke-linecap="round" stroke-width="2"/>
  <path d="M3.2511 17.4901C3.2001 16.3332 3.9662 14.5424 5.4473 14.4921" stroke="currentColor" stroke-linecap="round" stroke-width="2"/>
  <path d="M2.5102 11.4938H4.348" stroke="currentColor" stroke-linecap="round" stroke-width="2"/>
  <path d="M17.5 11.4938L15.6902 11.4938" stroke="currentColor" stroke-linecap="round" stroke-width="2"/>
  <path d="M9.9943 11.4938V9.0455M13.7418 2.4999L12.2428 3.9989M6.2468 2.4999L7.7458 3.9989" stroke="currentColor" stroke-linecap="round" stroke-width="2"/>
  <path d="M5.7968 7.1767C7.1459 8.1461 10.4937 9.5452 14.1413 7.2367" stroke="currentColor" stroke-linecap="round" stroke-width="2"/>
  <path d="M14.0217 6.3973C11.0436 2.25 7.2461 4.2487 5.897 6.5172 5.0174 7.9962 3.6485 11.5738 6.2468 15.4713 9.0449 18.8889 12.3428 17.34 13.6918 15.5412 14.991 13.9922 16.2702 9.9948 14.0217 6.3973Z" stroke="currentColor" stroke-linecap="round" stroke-width="2"/>
</svg>
