<svg xmlns="http://www.w3.org/2000/svg" width="20" height="20" viewBox="0 0 20 20" fill="none">
  <path d="M4.2857 11.6667C3.6811 10.6735 3.3333 9.5098 3.3333 8.2657 3.3333 4.6212 6.3181 1.6667 10 1.6667 13.6819 1.6667 16.6667 4.6212 16.6667 8.2657 16.6667 9.5098 16.3189 10.6735 15.7142 11.6667" stroke="currentColor" stroke-linecap="round" stroke-width="2"/>
  <path d="M6.1524 14.2485C6.0758 14.018 6.0376 13.9027 6.042 13.8094 6.0514 13.6119 6.176 13.4385 6.3596 13.3671 6.4465 13.3333 6.5675 13.3333 6.8096 13.3333H13.1903C13.4325 13.3333 13.5535 13.3333 13.6403 13.3671 13.8241 13.4385 13.9486 13.6119 13.958 13.8094 13.9624 13.9027 13.9242 14.018 13.8476 14.2485 13.7061 14.6745 13.6353 14.8876 13.5263 15.06 13.2977 15.4213 12.9393 15.6806 12.5255 15.784 12.3279 15.8333 12.1042 15.8333 11.6568 15.8333H8.3433C7.8958 15.8333 7.6721 15.8333 7.4745 15.784 7.0607 15.6806 6.7023 15.4213 6.4738 15.06 6.3646 14.8876 6.2939 14.6745 6.1524 14.2485Z" stroke="currentColor" stroke-width="2"/>
  <path d="M12.5 15.8333L12.3923 16.3722C12.2744 16.9614 12.2155 17.256 12.0834 17.4888 11.8793 17.8488 11.5485 18.1199 11.1555 18.2495 10.9013 18.3333 10.6009 18.3333 10 18.3333 9.3991 18.3333 9.0987 18.3333 8.8445 18.2495 8.4515 18.1199 8.1207 17.8488 7.9166 17.4888 7.7845 17.256 7.7256 16.9614 7.6078 16.3722L7.5 15.8333" stroke="currentColor" stroke-width="2"/>
  <path d="M10.4601 5.4167L9.1921 6.8288C9.0178 7.0229 9.1238 7.3328 9.3805 7.3795L10.6211 7.605C10.8943 7.6547 10.9905 7.9971 10.7832 8.1819L9.2101 9.5833" stroke="currentColor" stroke-linecap="round" stroke-linejoin="round" stroke-width="2"/>
</svg>
