<svg xmlns="http://www.w3.org/2000/svg" width="20" height="20" viewBox="0 0 20 20" fill="none">
  <path d="M12.5 13.75C12.5 15.7047 12.5 16.682 11.9364 17.3553 11.7913 17.5286 11.6221 17.6838 11.433 17.8167 10.6985 18.3333 9.6323 18.3333 7.5 18.3333 5.3677 18.3333 4.3015 18.3333 3.567 17.8167 3.3779 17.6838 3.2087 17.5286 3.0636 17.3553 2.5 16.682 2.5 15.7047 2.5 13.75L2.5 6.25C2.5 4.2954 2.5 3.318 3.0636 2.6448 3.2087 2.4714 3.3779 2.3163 3.567 2.1833 4.3015 1.6667 5.3677 1.6667 7.5 1.6667 9.6323 1.6667 10.6985 1.6667 11.433 2.1833 11.6221 2.3163 11.7913 2.4714 11.9364 2.6448 12.5 3.318 12.5 4.2954 12.5 6.25L12.5 13.75Z" stroke="currentColor" stroke-width="2"/>
  <path d="M10 11.25L10 8.75" stroke="currentColor" stroke-linecap="round" stroke-width="2"/>
  <path d="M12.5 12.5C13.8808 12.5 15 11.3808 15 10 15 8.6193 13.8808 7.5 12.5 7.5" stroke="currentColor" stroke-width="2"/>
  <path d="M12.5 15.8333C15.7217 15.8333 18.3333 13.2217 18.3333 10 18.3333 6.7783 15.7217 4.1667 12.5 4.1667" stroke="currentColor" stroke-linecap="round" stroke-width="2"/>
</svg>
