<svg xmlns="http://www.w3.org/2000/svg" width="20" height="20" viewBox="0 0 20 20" fill="none">
  <path d="M5.0033 8.3333V4.1667M9.1699 8.3333V4.1667M13.3366 8.3333V4.5833" stroke="currentColor" stroke-linecap="round" stroke-linejoin="round" stroke-width="2"/>
  <path d="M4.1801 14.1667C2.9968 14.1667 2.4051 14.1667 2.0375 13.8006 1.6699 13.4344 1.6699 12.8452 1.6699 11.6667V6.6667C1.6699 5.4882 1.6699 4.8989 2.0375 4.5328 2.4051 4.1667 2.9968 4.1667 4.1801 4.1667H10.0838C12.9785 4.1667 14.4258 4.1667 15.5335 4.7552 16.3492 5.1886 17.0288 5.8379 17.4976 6.6316 18.1341 7.7093 18.1943 9.1495 18.3149 12.03 18.3473 12.8065 18.3636 13.1948 18.2118 13.4885 18.1003 13.7045 17.9279 13.8834 17.7159 14.0034 17.4275 14.1667 17.0374 14.1667 16.2571 14.1667H15.8366M7.5033 14.1667H12.5032" stroke="currentColor" stroke-linecap="round" stroke-linejoin="round" stroke-width="2"/>
  <path d="M5.8366 15.8333C6.7571 15.8333 7.5033 15.0872 7.5033 14.1667 7.5033 13.2462 6.7571 12.5 5.8366 12.5 4.9161 12.5 4.1699 13.2462 4.1699 14.1667 4.1699 15.0872 4.9161 15.8333 5.8366 15.8333Z" stroke="currentColor" stroke-width="2"/>
  <path d="M14.1699 15.8333C15.0904 15.8333 15.8366 15.0872 15.8366 14.1667 15.8366 13.2462 15.0904 12.5 14.1699 12.5 13.2494 12.5 12.5032 13.2462 12.5032 14.1667 12.5032 15.0872 13.2494 15.8333 14.1699 15.8333Z" stroke="currentColor" stroke-width="2"/>
  <path d="M1.6634 8.3341H12.8034C13.3259 8.3341 13.5034 8.6401 13.9034 9.1201 14.3634 9.5701 14.6744 9.8857 15.1034 9.9501 15.7034 10.0401 17.9234 9.9951 17.9234 9.9951" stroke="currentColor" stroke-linecap="round" stroke-width="2"/>
</svg>
