<svg xmlns="http://www.w3.org/2000/svg" width="20" height="20" viewBox="0 0 20 20" fill="none">
  <path d="M14.1667 17.0833V18.3333" stroke="currentColor" stroke-linecap="round" stroke-linejoin="round" stroke-width="2"/>
  <path d="M5.8333 17.0833V18.3333" stroke="currentColor" stroke-linecap="round" stroke-linejoin="round" stroke-width="2"/>
  <path d="M3.3333 5.6516C3.3333 5.1188 3.3333 4.8524 3.4782 4.528 3.6231 4.2036 3.7702 4.0717 4.0645 3.808 5.0286 2.944 6.9669 1.6667 10 1.6667 13.0331 1.6667 14.9713 2.944 15.9355 3.808 16.2297 4.0717 16.3769 4.2036 16.5218 4.528 16.6667 4.8524 16.6667 5.1188 16.6667 5.6516V11.6667C16.6667 14.0237 16.6667 15.2022 15.9344 15.9344 15.2022 16.6667 14.0237 16.6667 11.6667 16.6667H8.3333C5.9763 16.6667 4.7978 16.6667 4.0656 15.9344 3.3333 15.2022 3.3333 14.0237 3.3333 11.6667V5.6516Z" stroke="currentColor" stroke-linejoin="round" stroke-width="2"/>
  <path d="M3.3333 11.6667C3.3333 11.6667 6.4444 12.5 10 12.5 13.5556 12.5 16.6667 11.6667 16.6667 11.6667" stroke="currentColor" stroke-linecap="round" stroke-linejoin="round" stroke-width="2"/>
  <path d="M3.75 14.5833H5" stroke="currentColor" stroke-linecap="round" stroke-linejoin="round" stroke-width="2"/>
  <path d="M15 14.5833H16.25" stroke="currentColor" stroke-linecap="round" stroke-linejoin="round" stroke-width="2"/>
  <path d="M9.1667 14.5833L10.8333 14.5833" stroke="currentColor" stroke-linecap="round" stroke-linejoin="round" stroke-width="2"/>
  <path d="M3.3333 5H16.6667" stroke="currentColor" stroke-linejoin="round" stroke-width="2"/>
  <path d="M1.6667 7.5L1.6667 8.3333" stroke="currentColor" stroke-linecap="round" stroke-linejoin="round" stroke-width="2"/>
  <path d="M18.3333 7.5L18.3333 8.3333" stroke="currentColor" stroke-linecap="round" stroke-linejoin="round" stroke-width="2"/>
</svg>
