<svg xmlns="http://www.w3.org/2000/svg" width="20" height="20" viewBox="0 0 20 20" fill="none">
  <path d="M11.6667 2.5H8.3333C5.9763 2.5 4.7978 2.5 4.0656 3.2322 3.3333 3.9645 3.3333 5.143 3.3333 7.5V16.0417C3.3333 16.6268 3.3333 16.9194 3.4738 17.1297 3.5346 17.2207 3.6127 17.2988 3.7037 17.3596 3.9139 17.5 4.2065 17.5 4.7917 17.5 5.3769 17.5 5.6695 17.5 5.8796 17.3596 5.9706 17.2988 6.0488 17.2207 6.1096 17.1297 6.25 16.9194 6.25 16.6268 6.25 16.0417V15.8333H13.75V16.0417C13.75 16.6268 13.75 16.9194 13.8904 17.1297 13.9512 17.2207 14.0293 17.2988 14.1203 17.3596 14.3306 17.5 14.6232 17.5 15.2083 17.5 15.7935 17.5 16.0861 17.5 16.2963 17.3596 16.3873 17.2988 16.4654 17.2207 16.5263 17.1297 16.6667 16.9194 16.6667 16.6268 16.6667 16.0417V7.5C16.6667 5.143 16.6667 3.9645 15.9344 3.2322 15.2022 2.5 14.0237 2.5 11.6667 2.5Z" stroke="currentColor" stroke-linecap="round" stroke-linejoin="round" stroke-width="2"/>
  <path d="M8.3333 5H11.6667" stroke="currentColor" stroke-linecap="round" stroke-linejoin="round" stroke-width="2"/>
  <path d="M3.3333 5.8333L1.6667 6.6667" stroke="currentColor" stroke-linecap="round" stroke-linejoin="round" stroke-width="2"/>
  <path d="M16.6667 5.8333L18.3333 6.6667" stroke="currentColor" stroke-linecap="round" stroke-linejoin="round" stroke-width="2"/>
  <path d="M3.3333 10.8333H16.6667" stroke="currentColor" stroke-linecap="round" stroke-linejoin="round" stroke-width="2"/>
  <path d="M5.8333 13.3333H6.6667" stroke="currentColor" stroke-linecap="round" stroke-linejoin="round" stroke-width="2"/>
  <path d="M13.3333 13.3333H14.1667" stroke="currentColor" stroke-linecap="round" stroke-linejoin="round" stroke-width="2"/>
</svg>
