<svg xmlns="http://www.w3.org/2000/svg" width="20" height="20" viewBox="0 0 20 20" fill="none">
  <path d="M2.0833 10C2.0833 6.268 2.0833 4.4021 3.2427 3.2427 4.4021 2.0833 6.268 2.0833 10 2.0833 13.7319 2.0833 15.5979 2.0833 16.7573 3.2427 17.9167 4.4021 17.9167 6.268 17.9167 10 17.9167 13.7319 17.9167 15.5979 16.7573 16.7573 15.5979 17.9167 13.7319 17.9167 10 17.9167 6.268 17.9167 4.4021 17.9167 3.2427 16.7573 2.0833 15.5979 2.0833 13.7319 2.0833 10Z" stroke="currentColor" stroke-width="2"/>
  <path d="M7.277 8.3333C6.9889 7.8352 6.4502 7.5 5.8333 7.5 4.9129 7.5 4.1667 8.2462 4.1667 9.1667V10.8333C4.1667 11.7538 4.9129 12.5 5.8333 12.5 6.4502 12.5 6.9889 12.1648 7.277 11.6667" stroke="currentColor" stroke-linecap="round" stroke-width="2"/>
  <path d="M10 8.75V11.25M8.75 10H11.25" stroke="currentColor" stroke-linecap="round" stroke-linejoin="round" stroke-width="2"/>
  <path d="M14.5833 8.75V11.25M13.3333 10H15.8333" stroke="currentColor" stroke-linecap="round" stroke-linejoin="round" stroke-width="2"/>
</svg>
