<svg xmlns="http://www.w3.org/2000/svg" width="20" height="20" viewBox="0 0 20 20" fill="none">
  <path d="M5 15L4.1667 17.5M15 15L15.8333 17.5" stroke="currentColor" stroke-linecap="round" stroke-linejoin="round" stroke-width="2"/>
  <path d="M13.3333 15H6.6667C4.3096 15 3.1311 15 2.3989 14.2155 1.6667 13.4309 1.6667 12.1683 1.6667 9.6428V7.8571C1.6667 5.3318 1.6667 4.0691 2.3989 3.2845 3.1311 2.5 4.3096 2.5 6.6667 2.5H13.3333C15.6903 2.5 16.8688 2.5 17.6011 3.2845 18.3333 4.0691 18.3333 5.3318 18.3333 7.8571V9.6428C18.3333 12.1683 18.3333 13.4309 17.6011 14.2155 16.8688 15 15.6903 15 13.3333 15Z" stroke="currentColor" stroke-linecap="round" stroke-linejoin="round" stroke-width="2"/>
  <path d="M2.0833 11.6667H17.9167" stroke="currentColor" stroke-linecap="round" stroke-linejoin="round" stroke-width="2"/>
  <path d="M10 2.5L10 11.6667" stroke="currentColor" stroke-linecap="round" stroke-linejoin="round" stroke-width="2"/>
  <path d="M7.5 7.5L7.5 6.6667" stroke="currentColor" stroke-linecap="round" stroke-linejoin="round" stroke-width="2"/>
  <path d="M12.5 7.5L12.5 6.6667" stroke="currentColor" stroke-linecap="round" stroke-linejoin="round" stroke-width="2"/>
</svg>
