<svg xmlns="http://www.w3.org/2000/svg" width="20" height="20" viewBox="0 0 20 20" fill="none">
  <path d="M3.6772 9.6866C3.452 10.7108 3.3333 11.7741 3.3333 12.8646 3.3333 13.6146 3.3894 14.3516 3.4978 15.0719 3.7033 16.4391 3.8061 17.1226 4.5093 17.728 5.2125 18.3333 6.0644 18.3333 7.7683 18.3333H12.2317C13.9356 18.3333 14.7875 18.3333 15.4908 17.728 16.1939 17.1226 16.2967 16.4391 16.5023 15.0719 16.6106 14.3516 16.6667 13.6146 16.6667 12.8646 16.6667 11.7741 16.548 10.7108 16.3227 9.6866 16.0418 8.4088 15.9012 7.7699 15.2151 7.2183 14.529 6.6667 13.7228 6.6667 12.1104 6.6667H7.8896C6.2772 6.6667 5.471 6.6667 4.7849 7.2183 4.0988 7.7699 3.9583 8.4088 3.6772 9.6866Z" stroke="currentColor" stroke-width="2"/>
  <path d="M3.3333 1.6667H11.6667M16.6667 1.6667H11.6667M11.6667 1.6667L10 4.5833M7.5 4.5833H12.5" stroke="currentColor" stroke-linecap="round" stroke-linejoin="round" stroke-width="2"/>
  <path d="M3.75 13.3333H16.25" stroke="currentColor" stroke-linecap="round" stroke-width="2"/>
  <path d="M10 7.5V13.3333" stroke="currentColor" stroke-linecap="round" stroke-width="2"/>
</svg>
