<svg xmlns="http://www.w3.org/2000/svg" width="20" height="20" viewBox="0 0 20 20" fill="none">
  <path d="M6.6667 14.2708V14.1667C6.6667 13.7796 6.6667 13.586 6.641 13.4241 6.4998 12.5327 5.8007 11.8335 4.9092 11.6923 4.7473 11.6667 4.5537 11.6667 4.1667 11.6667 3.7796 11.6667 3.586 11.6667 3.4241 11.6923 2.5327 11.8335 1.8335 12.5327 1.6923 13.4241 1.6667 13.586 1.6667 13.7796 1.6667 14.1667V14.2708C1.6667 14.5613 1.6667 14.7064 1.6907 14.8272 1.7893 15.3231 2.1769 15.7107 2.6728 15.8093 2.7935 15.8333 2.9388 15.8333 3.2292 15.8333H5.1042C5.3946 15.8333 5.5398 15.8333 5.6605 15.8093 6.1564 15.7107 6.544 15.3231 6.6427 14.8272 6.6667 14.7064 6.6667 14.5613 6.6667 14.2708Z" stroke="currentColor" stroke-linecap="round" stroke-linejoin="round" stroke-width="2"/>
  <path d="M4.1667 11.6667V5.4167C4.1667 3.8058 5.4725 2.5 7.0833 2.5 8.6942 2.5 10 3.8058 10 5.4167V14.5833C10 16.1942 11.3058 17.5 12.9167 17.5 14.5275 17.5 15.8333 16.1942 15.8333 14.5833V8.3333" stroke="currentColor" stroke-linecap="round" stroke-linejoin="round" stroke-width="2"/>
  <path d="M16.7708 4.1667H14.8958C14.6054 4.1667 14.4603 4.1667 14.3395 4.1907 13.8436 4.2893 13.456 4.6769 13.3573 5.1728 13.3333 5.2936 13.3333 5.4388 13.3333 5.7292V5.8333C13.3333 6.2204 13.3333 6.414 13.359 6.5759 13.5002 7.4674 14.1993 8.1665 15.0907 8.3077 15.2527 8.3333 15.4462 8.3333 15.8333 8.3333 16.2204 8.3333 16.414 8.3333 16.5759 8.3077 17.4673 8.1665 18.1665 7.4674 18.3077 6.5759 18.3333 6.414 18.3333 6.2204 18.3333 5.8333V5.7292C18.3333 5.4388 18.3333 5.2936 18.3093 5.1728 18.2107 4.6769 17.8231 4.2893 17.3272 4.1907 17.2064 4.1667 17.0613 4.1667 16.7708 4.1667Z" stroke="currentColor" stroke-linecap="round" stroke-linejoin="round" stroke-width="2"/>
  <path d="M14.1667 4.1667V2.5M17.5 2.5V4.1667" stroke="currentColor" stroke-linecap="round" stroke-linejoin="round" stroke-width="2"/>
  <path d="M2.5 17.5V15.8333M5.8333 15.8333V17.5" stroke="currentColor" stroke-linecap="round" stroke-linejoin="round" stroke-width="2"/>
</svg>
