<svg xmlns="http://www.w3.org/2000/svg" width="20" height="20" viewBox="0 0 20 20" fill="none">
  <path d="M10.9591 12.5H9.0409C7.3306 12.5 6.4755 12.5 6.0534 12.9973 5.6314 13.4945 5.8663 14.2253 6.3362 15.6868L6.4142 15.9295C6.7839 17.0796 6.9688 17.6546 7.4612 17.9898L7.4833 18.0046C7.9813 18.3333 8.6542 18.3333 10 18.3333 11.3458 18.3333 12.0188 18.3333 12.5167 18.0046L12.5388 17.9898C13.0313 17.6546 13.2161 17.0796 13.5858 15.9295L13.6638 15.6868C14.1337 14.2253 14.3686 13.4945 13.9466 12.9973 13.5245 12.5 12.6694 12.5 10.9591 12.5Z" stroke="currentColor" stroke-linecap="round" stroke-linejoin="round" stroke-width="2"/>
  <path d="M8.2531 12.5L7.1312 6.6129C6.8058 4.9053 8.1808 3.3333 10 3.3333 11.8192 3.3333 13.1943 4.9052 12.8688 6.6129L11.7469 12.5" stroke="currentColor" stroke-linecap="round" stroke-linejoin="round" stroke-width="2"/>
  <path d="M10 12.5L10 10" stroke="currentColor" stroke-linecap="round" stroke-linejoin="round" stroke-width="2"/>
  <path d="M12.9167 5L14.1667 4.1667M7.0833 5L5.8333 4.1667M10 3.3333V1.6667M12.9167 8.3333L14.1667 9.1667M7.0833 8.3333L5.8333 9.1667" stroke="currentColor" stroke-linecap="round" stroke-linejoin="round" stroke-width="2"/>
</svg>
