<svg xmlns="http://www.w3.org/2000/svg" width="20" height="20" viewBox="0 0 20 20" fill="none">
  <path d="M11.25 2.9167C11.25 3.607 10.6903 4.1667 10 4.1667 9.3097 4.1667 8.75 3.607 8.75 2.9167 8.75 2.2263 9.3097 1.6667 10 1.6667 10.6903 1.6667 11.25 2.2263 11.25 2.9167Z" stroke="currentColor" stroke-width="2"/>
  <path d="M13.3333 14.5833C13.3333 13.893 11.8409 13.3333 10 13.3333 8.1591 13.3333 6.6667 13.893 6.6667 14.5833 6.6667 15.2737 8.1591 15.8333 10 15.8333 11.3808 15.8333 12.5 16.393 12.5 17.0833 12.5 17.7737 11.3808 18.3333 10 18.3333 8.9292 18.3333 8.0158 17.9968 7.6595 17.5237" stroke="currentColor" stroke-linecap="round" stroke-width="2"/>
  <path d="M10 4.1667V13.3333" stroke="currentColor" stroke-linecap="round" stroke-width="2"/>
  <path d="M5.6634 9.9575C3.9838 11.3785 2.3616 8.9516 1.6667 7.2718 2.4025 7.2718 3.9338 6.8103 5.3575 5.1889 5.9792 4.4808 6.29 4.1268 6.4652 4.1702 6.6404 4.2137 6.8809 4.7434 7.362 5.8029 8.1058 7.4409 9.2227 8.3016 10 8.6147 8 11.8375 6.2756 10.8528 5.6634 9.9575ZM5.6634 9.9575C5.9093 9.7495 6.1564 9.4591 6.4019 9.0718" stroke="currentColor" stroke-linecap="round" stroke-linejoin="round" stroke-width="2"/>
  <path d="M14.3366 9.9575C16.0162 11.3785 17.6384 8.9516 18.3333 7.2718 17.5976 7.2718 16.0663 6.8103 14.6425 5.1889 14.0208 4.4808 13.71 4.1268 13.5348 4.1702 13.3596 4.2137 13.1191 4.7434 12.638 5.8029 11.8942 7.4409 10.7773 8.3016 10 8.6147 12 11.8375 13.7244 10.8528 14.3366 9.9575ZM14.3366 9.9575C14.0907 9.7495 13.8437 9.4591 13.5981 9.0718" stroke="currentColor" stroke-linecap="round" stroke-linejoin="round" stroke-width="2"/>
</svg>
