<svg xmlns="http://www.w3.org/2000/svg" width="20" height="20" viewBox="0 0 20 20" fill="none">
  <path d="M15 6.4933C15.7358 6.1718 16.25 5.4376 16.25 4.5833L15 2.5H5L3.75 4.5833C3.75 5.4376 4.2642 6.1718 5 6.4933M15 6.4933C14.7448 6.6048 14.463 6.6667 14.1667 6.6667 13.0161 6.6667 12.0833 5.7339 12.0833 4.5833 12.0833 5.7339 11.1506 6.6667 10 6.6667 8.8494 6.6667 7.9167 5.7339 7.9167 4.5833 7.9167 5.7339 6.9839 6.6667 5.8333 6.6667 5.537 6.6667 5.2552 6.6048 5 6.4933M15 6.4933V9.1667M5 6.4933V9.1667" stroke="currentColor" stroke-linecap="round" stroke-linejoin="round" stroke-width="2"/>
  <path d="M2.5 10V14.1667M2.5 14.1667H4.1667C5.3452 14.1667 5.9344 14.1667 6.3006 14.5328 6.6667 14.8989 6.6667 15.4882 6.6667 16.6667V17.5M2.5 14.1667V17.5" stroke="currentColor" stroke-linecap="round" stroke-linejoin="round" stroke-width="2"/>
  <path d="M17.5 10V14.1667M17.5 14.1667H15.8333C14.6548 14.1667 14.0656 14.1667 13.6994 14.5328 13.3333 14.8989 13.3333 15.4882 13.3333 16.6667V17.5M17.5 14.1667V17.5" stroke="currentColor" stroke-linecap="round" stroke-linejoin="round" stroke-width="2"/>
  <path d="M5.8333 11.6667H10M14.1667 11.6667H10M10 11.6667V17.5M10 17.5H9.1667M10 17.5H10.8333" stroke="currentColor" stroke-linecap="round" stroke-linejoin="round" stroke-width="2"/>
</svg>
