<svg xmlns="http://www.w3.org/2000/svg" width="20" height="20" viewBox="0 0 20 20" fill="none">
  <path d="M3.3333 11.9564C4.5833 11.9564 5.4167 12.7897 6.6667 12.7897 7.9167 12.7897 8.75 11.9564 10 11.9564 11.25 11.9564 12.0833 12.7897 13.3333 12.7897 14.5833 12.7897 15.4167 11.9564 16.6667 11.9564" stroke="currentColor" stroke-linecap="round" stroke-linejoin="round" stroke-width="2"/>
  <path d="M3.3333 13.6231V17.7898H16.6667V13.6231C16.6667 11.266 16.6667 10.0875 15.9344 9.3552 15.2022 8.6231 14.0237 8.6231 11.6667 8.6231H8.3333C5.9763 8.6231 4.7978 8.6231 4.0656 9.3552 3.3333 10.0875 3.3333 11.266 3.3333 13.6231Z" stroke="currentColor" stroke-linecap="round" stroke-linejoin="round" stroke-width="2"/>
  <path d="M1.6667 17.7898H18.3333" stroke="currentColor" stroke-linecap="round" stroke-linejoin="round" stroke-width="2"/>
  <path d="M10 8.6231V6.1231" stroke="currentColor" stroke-linecap="round" stroke-linejoin="round" stroke-width="2"/>
  <path d="M10 6.1229C10.9205 6.1229 11.6667 5.3767 11.6667 4.4562 11.6667 3.8661 11.2952 3.276 10.9031 2.8174 10.5569 2.4127 10.3838 2.2103 10 2.2103 9.6162 2.2103 9.4431 2.4127 9.0969 2.8174 8.7048 3.276 8.3333 3.8661 8.3333 4.4562 8.3333 5.3767 9.0795 6.1229 10 6.1229Z" stroke="currentColor" stroke-linecap="round" stroke-linejoin="round" stroke-width="2"/>
</svg>
