<svg xmlns="http://www.w3.org/2000/svg" width="20" height="20" viewBox="0 0 20 20" fill="none">
  <circle cx="6.666666666666667" cy="5.833333333333334" r="1.6666666666666667" stroke="currentColor" stroke-linecap="round" stroke-linejoin="round" stroke-width="2"/>
  <path d="M7.5 2.5C7.2222 2.7778 6.6667 3.5 6.6667 4.1667" stroke="currentColor" stroke-linecap="round" stroke-linejoin="round" stroke-width="2"/>
  <path d="M8.0426 4.7002C9.0176 3.967 9.9549 3.2995 10.7316 2.8119 11.0674 2.6011 11.4586 2.5 11.8551 2.5 12.2768 2.5 12.693 2.613 13.0378 2.8557 14.8737 4.1481 17.5 6.7487 17.5 9.1667V12.5C17.5 14.857 17.5 16.0355 16.7678 16.7678 16.0355 17.5 14.857 17.5 12.5 17.5H7.5C5.143 17.5 3.9645 17.5 3.2322 16.7678 2.5 16.0355 2.5 14.857 2.5 12.5V11.4663C2.5 10.3283 2.5 9.7593 2.7393 9.2525 2.9786 8.7457 3.4065 8.3935 4.2622 7.6893 4.5877 7.4214 4.9313 7.1412 5.2861 6.8549" stroke="currentColor" stroke-linecap="round" stroke-linejoin="round" stroke-width="2"/>
  <path d="M2.5 14.1667C2.95 14.375 3.4 14.5833 4.375 14.5833 6.25 14.5833 6.25 13.75 8.125 13.75 10.075 13.75 9.925 14.5833 11.875 14.5833 13.75 14.5833 13.75 13.75 15.625 13.75 16.6 13.75 17.05 13.9583 17.5 14.1667" stroke="currentColor" stroke-linecap="round" stroke-linejoin="round" stroke-width="2"/>
  <path d="M2.5 10.8333H17.5" stroke="currentColor" stroke-linecap="round" stroke-linejoin="round" stroke-width="2"/>
</svg>
