<svg xmlns="http://www.w3.org/2000/svg" width="20" height="20" viewBox="0 0 20 20" fill="none">
  <path d="M2.5 8.3333H17.5" stroke="currentColor" stroke-linejoin="round" stroke-width="2"/>
  <path d="M12.5 5L14.1667 5" stroke="currentColor" stroke-linecap="round" stroke-linejoin="round" stroke-width="2"/>
  <path d="M17.5 10.8333V9.1667C17.5 5.6311 17.5 3.8634 16.4017 2.765 15.3033 1.6667 13.5355 1.6667 10 1.6667 6.4645 1.6667 4.6967 1.6667 3.5983 2.765 2.5 3.8634 2.5 5.6311 2.5 9.1667V10.8333C2.5 14.3688 2.5 16.1367 3.5983 17.235 4.6967 18.3333 6.4645 18.3333 10 18.3333 13.5355 18.3333 15.3033 18.3333 16.4017 17.235 17.5 16.1367 17.5 14.3688 17.5 10.8333Z" stroke="currentColor" stroke-width="2"/>
  <path d="M5.8333 11.6667H6.2719M9.7807 11.6667H10.2193M13.7281 11.6667H14.1667" stroke="currentColor" stroke-linecap="round" stroke-linejoin="round" stroke-width="2"/>
  <path d="M5.8333 15H6.2719M9.7807 15H10.2193M13.7281 15H14.1667" stroke="currentColor" stroke-linecap="round" stroke-linejoin="round" stroke-width="2"/>
</svg>
