<svg xmlns="http://www.w3.org/2000/svg" width="20" height="20" viewBox="0 0 20 20" fill="none">
  <path d="M17.9167 10.7917V9.2083C17.9167 5.8496 17.9167 4.1702 16.7573 3.1268 15.5979 2.0833 13.7319 2.0833 10 2.0833 6.268 2.0833 4.4021 2.0833 3.2427 3.1268 2.0833 4.1702 2.0833 5.8496 2.0833 9.2083V10.7917C2.0833 14.1504 2.0833 15.8298 3.2427 16.8733 4.4021 17.9167 6.268 17.9167 10 17.9167 13.7319 17.9167 15.5979 17.9167 16.7573 16.8733 17.9167 15.8298 17.9167 14.1504 17.9167 10.7917Z" stroke="currentColor" stroke-width="2"/>
  <path d="M15 6.6667H11.6667M13.3333 5L13.3333 8.3333" stroke="currentColor" stroke-linecap="round" stroke-linejoin="round" stroke-width="2"/>
  <path d="M15 14.5833H11.6667" stroke="currentColor" stroke-linecap="round" stroke-linejoin="round" stroke-width="2"/>
  <path d="M15 12.0833H11.6667" stroke="currentColor" stroke-linecap="round" stroke-linejoin="round" stroke-width="2"/>
  <path d="M8.3333 14.5833L6.875 13.125M6.875 13.125L5.4167 11.6667M6.875 13.125L8.3333 11.6667M6.875 13.125L5.4167 14.5833" stroke="currentColor" stroke-linecap="round" stroke-linejoin="round" stroke-width="2"/>
  <path d="M8.3333 6.6667H5" stroke="currentColor" stroke-linecap="round" stroke-linejoin="round" stroke-width="2"/>
</svg>
