<svg xmlns="http://www.w3.org/2000/svg" width="20" height="20" viewBox="0 0 20 20" fill="none">
  <path d="M13.3333 1.6667V5M6.6667 1.6667V5" stroke="currentColor" stroke-linecap="round" stroke-linejoin="round" stroke-width="2"/>
  <path d="M10.8333 3.3333H9.1667C6.024 3.3333 4.4526 3.3333 3.4763 4.3096 2.5 5.286 2.5 6.8573 2.5 10V11.6667C2.5 14.8093 2.5 16.3808 3.4763 17.357 4.4526 18.3333 6.024 18.3333 9.1667 18.3333H10.8333C13.976 18.3333 15.5474 18.3333 16.5237 17.357 17.5 16.3808 17.5 14.8093 17.5 11.6667V10C17.5 6.8573 17.5 5.286 16.5237 4.3096 15.5474 3.3333 13.976 3.3333 10.8333 3.3333Z" stroke="currentColor" stroke-linecap="round" stroke-linejoin="round" stroke-width="2"/>
  <path d="M2.5 8.3333H17.5" stroke="currentColor" stroke-linecap="round" stroke-linejoin="round" stroke-width="2"/>
  <path d="M10.1048 11.6667H10.0007M10.1048 15H10.0007M6.3542 11.6667H6.25M6.3542 15H6.25M13.8542 11.6667H13.75M10.209 11.6667C10.209 11.7818 10.1158 11.875 10.0007 11.875 9.8857 11.875 9.7923 11.7818 9.7923 11.6667 9.7923 11.5516 9.8857 11.4583 10.0007 11.4583 10.1158 11.4583 10.209 11.5516 10.209 11.6667ZM10.209 15C10.209 15.1151 10.1158 15.2083 10.0007 15.2083 9.8857 15.2083 9.7923 15.1151 9.7923 15 9.7923 14.8849 9.8857 14.7917 10.0007 14.7917 10.1158 14.7917 10.209 14.8849 10.209 15ZM6.4583 11.6667C6.4583 11.7818 6.3651 11.875 6.25 11.875 6.1349 11.875 6.0417 11.7818 6.0417 11.6667 6.0417 11.5516 6.1349 11.4583 6.25 11.4583 6.3651 11.4583 6.4583 11.5516 6.4583 11.6667ZM6.4583 15C6.4583 15.1151 6.3651 15.2083 6.25 15.2083 6.1349 15.2083 6.0417 15.1151 6.0417 15 6.0417 14.8849 6.1349 14.7917 6.25 14.7917 6.3651 14.7917 6.4583 14.8849 6.4583 15ZM13.9583 11.6667C13.9583 11.7818 13.8651 11.875 13.75 11.875 13.6349 11.875 13.5417 11.7818 13.5417 11.6667 13.5417 11.5516 13.6349 11.4583 13.75 11.4583 13.8651 11.4583 13.9583 11.5516 13.9583 11.6667Z" stroke="currentColor" stroke-linecap="round" stroke-linejoin="round" stroke-width="2"/>
</svg>
