<svg xmlns="http://www.w3.org/2000/svg" width="20" height="20" viewBox="0 0 20 20" fill="none">
  <path d="M13.75 14.1667L15.8333 16.25M15.8333 16.25L17.9167 18.3333M15.8333 16.25L13.75 18.3333M15.8333 16.25L17.9167 14.1667" stroke="currentColor" stroke-linecap="round" stroke-linejoin="round" stroke-width="2"/>
  <path d="M12.9167 1.6667V5M6.25 1.6667V5" stroke="currentColor" stroke-linecap="round" stroke-linejoin="round" stroke-width="2"/>
  <path d="M2.0833 8.3333H17.0833" stroke="currentColor" stroke-linecap="round" stroke-linejoin="round" stroke-width="2"/>
  <path d="M10.4167 18.3333H8.75C5.6073 18.3333 4.036 18.3333 3.0596 17.357 2.0833 16.3808 2.0833 14.8093 2.0833 11.6667V10C2.0833 6.8573 2.0833 5.286 3.0596 4.3096 4.036 3.3333 5.6073 3.3333 8.75 3.3333H10.4167C13.5593 3.3333 15.1308 3.3333 16.107 4.3096 17.0833 5.286 17.0833 6.8573 17.0833 10V10.8333" stroke="currentColor" stroke-linecap="round" stroke-linejoin="round" stroke-width="2"/>
</svg>
