<svg xmlns="http://www.w3.org/2000/svg" width="20" height="20" viewBox="0 0 20 20" fill="none">
  <path d="M13.3333 1.6667V5M6.6667 1.6667V5" stroke="currentColor" stroke-linecap="round" stroke-linejoin="round" stroke-width="2"/>
  <path d="M17.5 11.6667V10C17.5 6.8573 17.5 5.286 16.5237 4.3096 15.5474 3.3333 13.976 3.3333 10.8333 3.3333H9.1667C6.024 3.3333 4.4526 3.3333 3.4763 4.3096 2.5 5.286 2.5 6.8573 2.5 10V11.6667C2.5 14.8093 2.5 16.3808 3.4763 17.357 4.4526 18.3333 6.024 18.3333 9.1667 18.3333H10" stroke="currentColor" stroke-linecap="round" stroke-linejoin="round" stroke-width="2"/>
  <path d="M2.5 8.3333H17.5" stroke="currentColor" stroke-linecap="round" stroke-linejoin="round" stroke-width="2"/>
  <path d="M15.0873 12.9213L15.6005 13.9562C15.6705 14.1003 15.8572 14.2385 16.0146 14.265L16.9449 14.4208C17.5398 14.5208 17.6798 14.956 17.2512 15.3853L16.5279 16.1145C16.4054 16.238 16.3383 16.4763 16.3762 16.6468L16.5833 17.5495C16.7467 18.264 16.3704 18.5404 15.7434 18.167L14.8714 17.6465C14.7139 17.5524 14.4544 17.5524 14.294 17.6465L13.422 18.167C12.7979 18.5404 12.4188 18.2611 12.5821 17.5495L12.7892 16.6468C12.8271 16.4763 12.76 16.238 12.6375 16.1145L11.9143 15.3853C11.4884 14.956 11.6255 14.5208 12.2205 14.4208L13.1508 14.265C13.3053 14.2385 13.492 14.1003 13.562 13.9562L14.0753 12.9213C14.3552 12.3596 14.8102 12.3596 15.0873 12.9213Z" stroke="currentColor" stroke-linecap="round" stroke-linejoin="round" stroke-width="2"/>
</svg>
