<svg xmlns="http://www.w3.org/2000/svg" width="20" height="20" viewBox="0 0 20 20" fill="none">
  <path d="M13.3333 1.6667V5M6.6667 1.6667V5" stroke="currentColor" stroke-linecap="round" stroke-linejoin="round" stroke-width="2"/>
  <path d="M10.8333 3.3333H9.1667C6.024 3.3333 4.4526 3.3333 3.4763 4.3096 2.5 5.286 2.5 6.8573 2.5 10V11.6667C2.5 14.8093 2.5 16.3808 3.4763 17.357 4.4526 18.3333 6.024 18.3333 9.1667 18.3333H10.8333C13.976 18.3333 15.5474 18.3333 16.5237 17.357 17.5 16.3808 17.5 14.8093 17.5 11.6667V10C17.5 6.8573 17.5 5.286 16.5237 4.3096 15.5474 3.3333 13.976 3.3333 10.8333 3.3333Z" stroke="currentColor" stroke-linecap="round" stroke-linejoin="round" stroke-width="2"/>
  <path d="M2.5 8.3333H17.5" stroke="currentColor" stroke-linecap="round" stroke-linejoin="round" stroke-width="2"/>
  <path d="M10.4319 11.1944L10.8718 12.0816C10.9318 12.2051 11.0918 12.3235 11.2268 12.3462L12.0243 12.4798C12.5342 12.5655 12.6542 12.9385 12.2867 13.3064L11.6668 13.9315C11.5617 14.0373 11.5043 14.2415 11.5367 14.3877L11.7142 15.1614C11.8543 15.7739 11.5318 16.0108 10.9943 15.6908L10.2469 15.2447C10.1119 15.164 9.8895 15.164 9.752 15.2447L9.0046 15.6908C8.4697 16.0108 8.1447 15.7714 8.2847 15.1614L8.4622 14.3877C8.4946 14.2415 8.4372 14.0373 8.3321 13.9315L7.7122 13.3064C7.3473 12.9385 7.4647 12.5655 7.9747 12.4798L8.7721 12.3462C8.9046 12.3235 9.0646 12.2051 9.1246 12.0816L9.5645 11.1944C9.8045 10.713 10.1944 10.713 10.4319 11.1944Z" stroke="currentColor" stroke-linecap="round" stroke-linejoin="round" stroke-width="2"/>
</svg>
