<svg xmlns="http://www.w3.org/2000/svg" width="20" height="20" viewBox="0 0 20 20" fill="none">
  <path d="M13.3333 1.6667V5M6.6667 1.6667V5" stroke="currentColor" stroke-linecap="round" stroke-linejoin="round" stroke-width="2"/>
  <path d="M10 18.3333H9.1667C6.024 18.3333 4.4526 18.3333 3.4763 17.357 2.5 16.3808 2.5 14.8093 2.5 11.6667V10C2.5 6.8573 2.5 5.286 3.4763 4.3096 4.4526 3.3333 6.024 3.3333 9.1667 3.3333H10.8333C13.976 3.3333 15.5474 3.3333 16.5237 4.3096 17.4096 5.1956 17.4917 6.5714 17.4992 9.1667" stroke="currentColor" stroke-linecap="round" stroke-linejoin="round" stroke-width="2"/>
  <path d="M2.5 8.3333H17.5" stroke="currentColor" stroke-linecap="round" stroke-linejoin="round" stroke-width="2"/>
  <path d="M11.9875 13.1546C12.5226 12.0285 13.6703 11.25 15 11.25 16.2338 11.25 17.3111 11.9203 17.8874 12.9167M11.9875 13.1546C12.2361 13.3333 12.6252 13.3333 13.3333 13.3333H14.1667M11.9875 13.1546C11.9603 13.135 11.9348 13.1133 11.9108 13.0893 11.6667 12.8452 11.6667 12.4523 11.6667 11.6667V10.8333M18.0125 16.0121C17.4774 17.1382 16.3297 17.9167 15 17.9167 13.7662 17.9167 12.6889 17.2463 12.1126 16.25M18.0125 16.0121C17.7638 15.8333 17.3748 15.8333 16.6667 15.8333H15.8333M18.0125 16.0121C18.0397 16.0317 18.0652 16.0533 18.0892 16.0774 18.3333 16.3215 18.3333 16.7143 18.3333 17.5V18.3333" stroke="currentColor" stroke-linecap="round" stroke-linejoin="round" stroke-width="2"/>
</svg>
