<svg xmlns="http://www.w3.org/2000/svg" width="20" height="20" viewBox="0 0 20 20" fill="none">
  <path d="M6.6667 9.5835V7.9169C6.6667 5.5599 6.6667 4.3813 7.3989 3.6491 8.1311 2.9169 9.3097 2.9169 11.6667 2.9169H13.3333C15.6903 2.9169 16.8688 2.9169 17.6011 3.6491 18.3333 4.3813 18.3333 5.5599 18.3333 7.9169V9.5835C18.3333 11.9406 18.3333 13.1191 17.6011 13.8513 16.8688 14.5835 15.6903 14.5835 13.3333 14.5835H11.6667C9.3097 14.5835 8.1311 14.5835 7.3989 13.8513 6.6667 13.1191 6.6667 11.9406 6.6667 9.5835Z" stroke="currentColor" stroke-linecap="round" stroke-linejoin="round" stroke-width="2"/>
  <path d="M3.75 6.7845C3.1603 6.8832 2.7331 7.0649 2.3989 7.3991 1.6667 8.1313 1.6667 9.3098 1.6667 11.6668V13.3335C1.6667 15.6905 1.6667 16.8691 2.3989 17.6013 3.1311 18.3335 4.3096 18.3335 6.6667 18.3335H8.3333C10.6903 18.3335 11.8688 18.3335 12.6011 17.6013 12.6339 17.5685 12.6652 17.5348 12.6951 17.5002" stroke="currentColor" stroke-linecap="round" stroke-linejoin="round" stroke-width="2"/>
  <path d="M6.6667 7.5002H18.3333" stroke="currentColor" stroke-linecap="round" stroke-linejoin="round" stroke-width="2"/>
  <path d="M10 1.6669V4.1669M15 1.6669V4.1669" stroke="currentColor" stroke-linecap="round" stroke-linejoin="round" stroke-width="2"/>
  <path d="M1.6667 11.2502H3.75" stroke="currentColor" stroke-linecap="round" stroke-linejoin="round" stroke-width="2"/>
</svg>
