<svg xmlns="http://www.w3.org/2000/svg" width="20" height="20" viewBox="0 0 20 20" fill="none">
  <path d="M12.9167 1.6667V5M6.25 1.6667V5" stroke="currentColor" stroke-linecap="round" stroke-linejoin="round" stroke-width="2"/>
  <path d="M16.9988 6.6667C16.8922 5.5832 16.6513 4.854 16.107 4.3096 15.1308 3.3333 13.5593 3.3333 10.4167 3.3333H8.75C5.6073 3.3333 4.036 3.3333 3.0596 4.3096 2.0833 5.286 2.0833 6.8573 2.0833 10V11.6667C2.0833 14.8093 2.0833 16.3808 3.0596 17.357 3.7331 18.0305 4.6898 18.2394 6.25 18.3042" stroke="currentColor" stroke-linecap="round" stroke-linejoin="round" stroke-width="2"/>
  <path d="M2.0833 8.3333H6.25" stroke="currentColor" stroke-linecap="round" stroke-linejoin="round" stroke-width="2"/>
  <path d="M12.9167 18.3333C15.6781 18.3333 17.9167 16.0948 17.9167 13.3333 17.9167 10.5719 15.6781 8.3333 12.9167 8.3333 10.1553 8.3333 7.9167 10.5719 7.9167 13.3333 7.9167 16.0948 10.1553 18.3333 12.9167 18.3333Z" stroke="currentColor" stroke-linecap="round" stroke-linejoin="round" stroke-width="2"/>
  <path d="M12.9167 10.8333V13.3333L14.5833 14.1667" stroke="currentColor" stroke-linecap="round" stroke-linejoin="round" stroke-width="2"/>
</svg>
