<svg xmlns="http://www.w3.org/2000/svg" width="20" height="20" viewBox="0 0 20 20" fill="none">
  <path d="M13.3333 1.6667V5" stroke="currentColor" stroke-linecap="round" stroke-linejoin="round" stroke-width="2"/>
  <path d="M7.5071 3.3405C8.0059 3.3333 8.5567 3.3333 9.1667 3.3333H10.8333C13.976 3.3333 15.5474 3.3333 16.5237 4.3096 17.5 5.286 17.5 6.8573 17.5 10V11.6667C17.5 12.2767 17.5 12.8275 17.4928 13.3262M3.9428 3.9428C3.7727 4.0464 3.6182 4.1677 3.4763 4.3096 2.5 5.286 2.5 6.8573 2.5 10V11.6667C2.5 14.8093 2.5 16.3808 3.4763 17.357 4.4526 18.3333 6.024 18.3333 9.1667 18.3333H10.8333C13.976 18.3333 15.5474 18.3333 16.5237 17.357 16.6656 17.2151 16.7869 17.0606 16.8906 16.8906" stroke="currentColor" stroke-linecap="round" stroke-linejoin="round" stroke-width="2"/>
  <path d="M2.5 8.3333H8.3333M17.5 8.3333H12.5" stroke="currentColor" stroke-linecap="round" stroke-linejoin="round" stroke-width="2"/>
  <path d="M1.6667 1.6667L18.3333 18.3333" stroke="currentColor" stroke-linecap="round" stroke-linejoin="round" stroke-width="2"/>
</svg>
