<svg xmlns="http://www.w3.org/2000/svg" width="20" height="20" viewBox="0 0 20 20" fill="none">
  <path d="M13.3333 1.6667V5M6.6667 1.6667V5" stroke="currentColor" stroke-linecap="round" stroke-linejoin="round" stroke-width="2"/>
  <path d="M10.8333 3.3333H9.1667C6.024 3.3333 4.4526 3.3333 3.4763 4.3096 2.5 5.286 2.5 6.8573 2.5 10V11.6667C2.5 14.8093 2.5 16.3808 3.4763 17.357 4.4526 18.3333 6.024 18.3333 9.1667 18.3333H10.8333C13.976 18.3333 15.5474 18.3333 16.5237 17.357 17.5 16.3808 17.5 14.8093 17.5 11.6667V10C17.5 6.8573 17.5 5.286 16.5237 4.3096 15.5474 3.3333 13.976 3.3333 10.8333 3.3333Z" stroke="currentColor" stroke-linecap="round" stroke-linejoin="round" stroke-width="2"/>
  <path d="M2.5 8.3333H17.5" stroke="currentColor" stroke-linecap="round" stroke-linejoin="round" stroke-width="2"/>
  <path d="M8.7367 12.5V11.6728C8.7367 10.979 9.299 10.4167 9.9927 10.4167 10.6863 10.4167 11.2488 10.979 11.2488 11.6727V12.5M8.7938 12.9156L11.2063 12.9147C11.9207 12.9147 12.5 13.4741 12.5 14.1642V14.9986C12.5 15.6887 11.9207 16.248 11.2063 16.248L8.7938 16.2488C8.0792 16.2488 7.5 15.6894 7.5 14.9994V14.1649C7.5 13.4749 8.0792 12.9156 8.7938 12.9156Z" stroke="currentColor" stroke-linecap="round" stroke-linejoin="round" stroke-width="2"/>
</svg>
