<svg xmlns="http://www.w3.org/2000/svg" width="20" height="20" viewBox="0 0 20 20" fill="none">
  <path d="M13.3333 1.6667V5M6.6667 1.6667V5" stroke="currentColor" stroke-linecap="round" stroke-linejoin="round" stroke-width="2"/>
  <path d="M10.8333 3.3333H9.1667C6.024 3.3333 4.4526 3.3333 3.4763 4.3096 2.5 5.286 2.5 6.8573 2.5 10V11.6667C2.5 14.8093 2.5 16.3808 3.4763 17.357 4.4526 18.3333 6.024 18.3333 9.1667 18.3333H10.8333C13.976 18.3333 15.5474 18.3333 16.5237 17.357 17.5 16.3808 17.5 14.8093 17.5 11.6667V10C17.5 6.8573 17.5 5.286 16.5237 4.3096 15.5474 3.3333 13.976 3.3333 10.8333 3.3333Z" stroke="currentColor" stroke-linecap="round" stroke-linejoin="round" stroke-width="2"/>
  <path d="M2.5 8.3333H17.5" stroke="currentColor" stroke-linecap="round" stroke-linejoin="round" stroke-width="2"/>
  <path d="M10 15L10 16.25M10 15C10.6142 15 11.1508 14.6677 11.4398 14.1732M10 15C9.3858 15 8.8492 14.6677 8.5602 14.1732M10 11.6667L10 10.4167M10 11.6667C10.6142 11.6667 11.1508 11.9989 11.4398 12.4934M10 11.6667C9.3858 11.6667 8.8492 11.9989 8.5602 12.4934M12.5 11.875L11.4398 12.4934M7.5 14.7917L8.5602 14.1732M12.5 14.7917L11.4398 14.1732M7.5 11.875L8.5602 12.4934M11.4398 14.1732C11.5841 13.9266 11.6667 13.6397 11.6667 13.3333 11.6667 13.027 11.5841 12.74 11.4398 12.4934M8.5602 12.4934C8.416 12.74 8.3333 13.027 8.3333 13.3333 8.3333 13.6397 8.4159 13.9267 8.5602 14.1732" stroke="currentColor" stroke-linecap="round" stroke-linejoin="round" stroke-width="2"/>
</svg>
