<svg xmlns="http://www.w3.org/2000/svg" width="20" height="20" viewBox="0 0 20 20" fill="none">
  <path d="M14.5513 16.6667C15.4718 16.6667 16.218 15.9205 16.218 15 16.218 14.0795 15.4718 13.3333 14.5513 13.3333M14.5513 16.6667C13.6308 16.6667 12.8847 15.9205 12.8847 15 12.8847 14.0795 13.6308 13.3333 14.5513 13.3333M14.5513 16.6667V18.3333M14.5513 13.3333V11.6667M15.9968 14.163L17.4402 13.3297M13.1101 15.8297L11.6667 16.663M16.001 15.8297L17.4443 16.663M13.1143 14.163L11.6708 13.3297" stroke="currentColor" stroke-linecap="round" stroke-linejoin="round" stroke-width="2"/>
  <path d="M13.3333 1.6667V5M6.6667 1.6667V5" stroke="currentColor" stroke-linecap="round" stroke-linejoin="round" stroke-width="2"/>
  <path d="M2.5 8.3333H17.5" stroke="currentColor" stroke-linecap="round" stroke-linejoin="round" stroke-width="2"/>
  <path d="M17.5 10C17.5 6.8573 17.5 5.286 16.5237 4.3096 15.5474 3.3333 13.976 3.3333 10.8333 3.3333H9.1667C6.024 3.3333 4.4526 3.3333 3.4763 4.3096 2.5 5.286 2.5 6.8573 2.5 10V11.6667C2.5 14.8093 2.5 16.3808 3.4763 17.357 4.4526 18.3333 6.024 18.3333 9.1667 18.3333" stroke="currentColor" stroke-linecap="round" stroke-linejoin="round" stroke-width="2"/>
</svg>
