<svg xmlns="http://www.w3.org/2000/svg" width="20" height="20" viewBox="0 0 20 20" fill="none">
  <path d="M13.3333 1.6667V5M6.6667 1.6667V5" stroke="currentColor" stroke-linecap="round" stroke-linejoin="round" stroke-width="2"/>
  <path d="M17.5 10.4167V10C17.5 6.8573 17.5 5.286 16.5237 4.3096 15.5474 3.3333 13.976 3.3333 10.8333 3.3333H9.1667C6.024 3.3333 4.4526 3.3333 3.4763 4.3096 2.5 5.286 2.5 6.8573 2.5 10V11.6667C2.5 14.8093 2.5 16.3808 3.4763 17.357 4.4526 18.3333 6.024 18.3333 9.1667 18.3333" stroke="currentColor" stroke-linecap="round" stroke-linejoin="round" stroke-width="2"/>
  <path d="M2.5 8.3333H17.5" stroke="currentColor" stroke-linecap="round" stroke-linejoin="round" stroke-width="2"/>
  <path d="M16.3924 13.9661C16.5669 14.2708 16.6667 14.6238 16.6667 15 16.6667 15.3762 16.567 15.7291 16.3925 16.0337 16.0335 16.6608 15.3578 17.0833 14.5833 17.0833M12.7743 13.9661C12.5998 14.2708 12.5 14.6238 12.5 15 12.5 15.3762 12.5997 15.7291 12.7742 16.0337 13.1332 16.6608 13.8089 17.0833 14.5833 17.0833M14.5833 17.0833L14.5833 18.3333M14.5833 12.9167C15.3577 12.9167 16.0333 13.3391 16.3924 13.9661M14.5833 12.9167C13.809 12.9167 13.1333 13.3391 12.7743 13.9661M14.5833 12.9167L14.5833 11.6667M17.5 13.3332L16.3924 13.9661M11.6667 16.6665L12.7742 16.0337M17.5 16.6665L16.3925 16.0337M11.6667 13.3332L12.7743 13.9661" stroke="currentColor" stroke-linecap="round" stroke-linejoin="round" stroke-width="2"/>
</svg>
