<svg xmlns="http://www.w3.org/2000/svg" width="20" height="20" viewBox="0 0 20 20" fill="none">
  <path d="M16.6667 17.0833L17.9167 18.3333M17.0833 15C17.0833 16.3808 15.9641 17.5 14.5833 17.5 13.2026 17.5 12.0833 16.3808 12.0833 15 12.0833 13.6193 13.2026 12.5 14.5833 12.5 15.9641 12.5 17.0833 13.6193 17.0833 15Z" stroke="currentColor" stroke-linecap="round" stroke-linejoin="round" stroke-width="2"/>
  <path d="M12.9167 1.6667V5M6.25 1.6667V5" stroke="currentColor" stroke-linecap="round" stroke-linejoin="round" stroke-width="2"/>
  <path d="M2.0833 8.3333H17.0833" stroke="currentColor" stroke-linecap="round" stroke-linejoin="round" stroke-width="2"/>
  <path d="M17.0833 10C17.0833 6.8573 17.0833 5.286 16.107 4.3096 15.1308 3.3333 13.5593 3.3333 10.4167 3.3333H8.75C5.6073 3.3333 4.036 3.3333 3.0596 4.3096 2.0833 5.286 2.0833 6.8573 2.0833 10V11.6667C2.0833 14.8093 2.0833 16.3808 3.0596 17.357 4.036 18.3333 5.6073 18.3333 8.75 18.3333H9.5833" stroke="currentColor" stroke-linecap="round" stroke-linejoin="round" stroke-width="2"/>
</svg>
