<svg xmlns="http://www.w3.org/2000/svg" width="20" height="20" viewBox="0 0 20 20" fill="none">
  <path d="M12.9167 1.6667V5M6.25 1.6667V5" stroke="currentColor" stroke-linecap="round" stroke-linejoin="round" stroke-width="2"/>
  <path d="M2.0833 8.3333H17.0833" stroke="currentColor" stroke-linecap="round" stroke-linejoin="round" stroke-width="2"/>
  <path d="M17.0833 10C17.0833 6.8573 17.0833 5.286 16.107 4.3096 15.1308 3.3333 13.5593 3.3333 10.4167 3.3333H8.75C5.6073 3.3333 4.036 3.3333 3.0596 4.3096 2.0833 5.286 2.0833 6.8573 2.0833 10V11.6667C2.0833 14.8093 2.0833 16.3808 3.0596 17.357 4.036 18.3333 5.6073 18.3333 8.75 18.3333" stroke="currentColor" stroke-linecap="round" stroke-linejoin="round" stroke-width="2"/>
  <path d="M12.0958 12.8222C12.9897 12.2891 13.7698 12.5039 14.2386 12.8461 14.4308 12.9864 14.5268 13.0566 14.5833 13.0566 14.6398 13.0566 14.7359 12.9864 14.9281 12.8461 15.3968 12.5039 16.177 12.2891 17.0708 12.8222 18.244 13.5217 18.5094 15.8298 15.8035 17.777 15.2881 18.1479 15.0304 18.3333 14.5833 18.3333 14.1363 18.3333 13.8786 18.1479 13.3632 17.777 10.6573 15.8298 10.9227 13.5217 12.0958 12.8222Z" stroke="currentColor" stroke-linecap="round" stroke-width="2"/>
</svg>
