<svg xmlns="http://www.w3.org/2000/svg" width="20" height="20" viewBox="0 0 20 20" fill="none">
  <path d="M4.0932 8.7844L6.2936 6.5841C6.7424 6.1352 6.8977 5.472 6.7162 4.8638 6.5743 4.3881 6.4143 3.8164 6.308 3.3274 6.2097 2.8752 5.8129 2.5 5.3501 2.5H4.0932C3.1677 2.5 2.4076 3.2532 2.5091 4.1732 3.2809 11.1663 8.8337 16.7191 15.8268 17.4909 16.7468 17.5924 17.5 16.8323 17.5 15.9068V14.6499C17.5 14.1872 17.1232 13.8075 16.6679 13.7247 16.1657 13.6333 15.6342 13.4837 15.1897 13.3419 14.5509 13.1383 13.8409 13.2814 13.3669 13.7554L11.2156 15.9068" stroke="currentColor" stroke-linecap="round" stroke-linejoin="round" stroke-width="2"/>
  <path d="M12.0833 5.4167V4.1667C12.0833 3.2462 12.8295 2.5 13.75 2.5 14.2103 2.5 14.6269 2.6866 14.9285 2.9882" stroke="currentColor" stroke-linecap="round" stroke-linejoin="round" stroke-width="2"/>
  <path d="M15.4167 5.4167H12.0833C11.393 5.4167 10.8333 5.9763 10.8333 6.6667V7.9167C10.8333 8.607 11.393 9.1667 12.0833 9.1667H15.4167C16.107 9.1667 16.6667 8.607 16.6667 7.9167V6.6667C16.6667 5.9763 16.107 5.4167 15.4167 5.4167Z" stroke="currentColor" stroke-linecap="round" stroke-linejoin="round" stroke-width="2"/>
</svg>
