<svg xmlns="http://www.w3.org/2000/svg" width="20" height="20" viewBox="0 0 20 20" fill="none">
  <path d="M14.2116 11.691V13.994C14.2116 14.4638 14.5119 14.8921 14.9789 15.1154 15.3442 15.2901 15.7768 15.5056 16.1288 15.7058 16.4543 15.891 16.9108 15.8798 17.1845 15.6375L17.9278 14.9798C18.475 14.4954 18.4791 13.7035 17.8751 13.2752 13.2835 10.0194 6.7165 10.0194 2.1249 13.2752 1.5209 13.7035 1.525 14.4954 2.0723 14.9798L2.8155 15.6375C3.0891 15.8798 3.5364 15.8812 3.8546 15.6862 4.2057 15.4713 4.6084 15.2715 4.9551 15.113 5.4532 14.8853 5.7884 14.4388 5.7884 13.9427V11.691" stroke="currentColor" stroke-linecap="round" stroke-linejoin="round" stroke-width="2"/>
  <path d="M10 4.1667V6.6667M15 6.6667L13.3333 8.3333M5 6.6667L6.6667 8.3333" stroke="currentColor" stroke-linecap="round" stroke-linejoin="round" stroke-width="2"/>
</svg>
