<svg xmlns="http://www.w3.org/2000/svg" width="20" height="20" viewBox="0 0 20 20" fill="none">
  <path d="M14.2116 5.0243V7.3273C14.2116 7.7971 14.5119 8.2255 14.9789 8.4488 15.3442 8.6234 15.7768 8.8389 16.1288 9.0392 16.4543 9.2243 16.9108 9.2131 17.1845 8.9708L17.9278 8.3131C18.475 7.8288 18.4791 7.0368 17.8751 6.6085 13.2835 3.3527 6.7165 3.3527 2.1249 6.6085 1.5209 7.0368 1.525 7.8288 2.0723 8.3131L2.8155 8.9708C3.0891 9.2131 3.5364 9.2145 3.8546 9.0196 4.2057 8.8046 4.6084 8.6048 4.9551 8.4463 5.4532 8.2186 5.7884 7.7722 5.7884 7.276V5.0243" stroke="currentColor" stroke-linecap="round" stroke-linejoin="round" stroke-width="2"/>
  <path d="M7.0833 12.9167C7.6568 13.5067 9.1831 15.8333 10 15.8333 10.8169 15.8333 12.3432 13.5067 12.9167 12.9167M10 15.4167V9.1667" stroke="currentColor" stroke-linecap="round" stroke-linejoin="round" stroke-width="2"/>
</svg>
