<svg xmlns="http://www.w3.org/2000/svg" width="20" height="20" viewBox="0 0 20 20" fill="none">
  <path d="M4.0932 8.7844L6.2936 6.5841C6.7424 6.1352 6.8977 5.472 6.7162 4.8638 6.5743 4.3881 6.4143 3.8164 6.308 3.3274 6.2097 2.8752 5.8129 2.5 5.3501 2.5H4.0932C3.1677 2.5 2.4076 3.2532 2.5091 4.1732 3.2809 11.1663 8.8337 16.7191 15.8268 17.4909 16.7468 17.5924 17.5 16.8323 17.5 15.9068V14.6499C17.5 14.1872 17.1232 13.8075 16.6679 13.7247 16.1657 13.6333 15.6342 13.4837 15.1897 13.3419 14.5509 13.1383 13.8409 13.2814 13.3669 13.7554L11.2156 15.9068" stroke="currentColor" stroke-linecap="round" stroke-linejoin="round" stroke-width="2"/>
  <path d="M11.6667 3.3333V8.3333M15 3.3333V8.3333" stroke="currentColor" stroke-linecap="round" stroke-linejoin="round" stroke-width="2"/>
</svg>
