<svg xmlns="http://www.w3.org/2000/svg" width="20" height="20" viewBox="0 0 20 20" fill="none">
  <path d="M13.2677 7.7036L13.2758 7.752C13.3713 8.3172 13.4191 8.5998 13.5674 8.8282 13.6116 8.8961 13.6619 8.9598 13.7178 9.0184 13.9055 9.2155 14.1691 9.3269 14.6963 9.5498 15.4886 9.8848 15.8847 10.0523 16.2647 9.9856 16.3762 9.966 16.4848 9.932 16.5877 9.8844 16.938 9.7224 17.1708 9.3549 17.6364 8.62 18.1221 7.8536 18.3648 7.4703 18.3301 7.033 18.3223 6.935 18.2967 6.8107 18.2653 6.7175 18.1253 6.3018 17.7961 6.0761 17.1378 5.6248 12.6807 2.5695 7.3193 2.5695 2.8623 5.6248 2.2039 6.0761 1.8747 6.3018 1.7346 6.7175 1.7032 6.8107 1.6778 6.935 1.67 7.033 1.6351 7.4703 1.878 7.8536 2.3636 8.62 2.8292 9.3549 3.062 9.7224 3.4123 9.8844 3.5151 9.932 3.6237 9.966 3.7353 9.9856 4.1153 10.0523 4.5114 9.8848 5.3037 9.5498 5.8309 9.3269 6.0945 9.2155 6.2823 9.0184 6.3381 8.9598 6.3884 8.8961 6.4326 8.8282 6.5809 8.5998 6.6287 8.3172 6.7242 7.752L6.7324 7.7036C6.8309 7.1202 6.8802 6.8285 7.0964 6.561 7.1266 6.5235 7.1817 6.4641 7.2167 6.4311 7.4668 6.1952 7.6876 6.1405 8.1291 6.0312 9.3183 5.7369 10.6817 5.7369 11.8709 6.0312 12.3124 6.1405 12.5332 6.1952 12.7833 6.4311 12.8183 6.4641 12.8733 6.5235 12.9036 6.561 13.1198 6.8285 13.1691 7.1202 13.2677 7.7036Z" stroke="currentColor" stroke-linecap="square" stroke-linejoin="round" stroke-width="2"/>
  <path d="M7.9165 14.5833L9.9998 16.6667 12.0832 14.5833M9.9998 10.4167V16.1593" stroke="currentColor" stroke-linecap="round" stroke-linejoin="round" stroke-width="2"/>
</svg>
