<svg xmlns="http://www.w3.org/2000/svg" width="20" height="20" viewBox="0 0 20 20" fill="none">
  <path d="M4.0932 8.7844L6.2936 6.5841C6.7424 6.1352 6.8977 5.472 6.7162 4.8638 6.5743 4.3881 6.4143 3.8164 6.308 3.3274 6.2097 2.8752 5.8129 2.5 5.3501 2.5H4.0932C3.1677 2.5 2.4076 3.2532 2.5091 4.1732 3.2809 11.1663 8.8337 16.7191 15.8268 17.4909 16.7468 17.5924 17.5 16.8323 17.5 15.9068V14.6499C17.5 14.1872 17.1232 13.8075 16.6679 13.7247 16.1657 13.6333 15.6342 13.4837 15.1897 13.3419 14.5509 13.1383 13.8409 13.2814 13.3669 13.7554L11.2156 15.9068" stroke="currentColor" stroke-linecap="round" stroke-linejoin="round" stroke-width="2"/>
  <path d="M14.5578 2.5209C14.5634 2.493 14.6033 2.493 14.6089 2.5209 14.9043 3.9662 16.0338 5.0957 17.4791 5.3911 17.507 5.3968 17.507 5.4366 17.4791 5.4423 16.0338 5.7377 14.9043 6.8671 14.6089 8.3125 14.6033 8.3403 14.5634 8.3403 14.5578 8.3125 14.2623 6.8671 13.1328 5.7377 11.6876 5.4423 11.6597 5.4366 11.6597 5.3968 11.6876 5.3911 13.1328 5.0957 14.2623 3.9662 14.5578 2.5209Z" stroke="currentColor" stroke-linejoin="round" stroke-width="2"/>
</svg>
