<svg xmlns="http://www.w3.org/2000/svg" width="20" height="20" viewBox="0 0 20 20" fill="none">
  <path d="M4.0932 8.7844L6.2936 6.5841C6.7424 6.1352 6.8977 5.472 6.7162 4.8638 6.5743 4.3881 6.4143 3.8164 6.308 3.3274 6.2097 2.8752 5.8129 2.5 5.3501 2.5H4.0932C3.1677 2.5 2.4076 3.2532 2.5091 4.1732 3.2809 11.1663 8.8337 16.7191 15.8268 17.4909 16.7468 17.5924 17.5 16.8323 17.5 15.9068V14.6499C17.5 14.1872 17.1232 13.8075 16.6679 13.7247 16.1657 13.6333 15.6342 13.4837 15.1897 13.3419 14.5509 13.1383 13.8409 13.2814 13.3669 13.7554L11.2156 15.9068" stroke="currentColor" stroke-linecap="round" stroke-linejoin="round" stroke-width="2"/>
  <path d="M11.6876 8.3124C12.2154 8.8402 12.9446 9.1667 13.75 9.1667 15.3608 9.1667 16.6667 7.8608 16.6667 6.25 16.6667 5.4446 16.3403 4.7154 15.8124 4.1876M11.6876 8.3124C11.1598 7.7846 10.8333 7.0554 10.8333 6.25 10.8333 4.6392 12.1392 3.3333 13.75 3.3333 14.5554 3.3333 15.2846 3.6598 15.8124 4.1876M11.6876 8.3124L15.8124 4.1876" stroke="currentColor" stroke-linecap="round" stroke-linejoin="round" stroke-width="2"/>
</svg>
