<svg xmlns="http://www.w3.org/2000/svg" width="20" height="20" viewBox="0 0 20 20" fill="none">
  <path d="M7.6321 4.7601L7.2965 4.0052C7.0771 3.5115 6.9674 3.2647 6.8034 3.0758 6.5978 2.8391 6.3298 2.6649 6.0299 2.5732 5.7907 2.5 5.5206 2.5 4.9804 2.5 4.1901 2.5 3.795 2.5 3.4633 2.6519 3.0726 2.8308 2.7197 3.2194 2.5791 3.6254 2.4598 3.9702 2.494 4.3245 2.5623 5.033 3.2901 12.5751 7.425 16.71 14.9671 17.4378 15.6757 17.5062 16.03 17.5403 16.3747 17.421 16.7808 17.2804 17.1693 16.9276 17.3483 16.5368 17.5002 16.2052 17.5002 15.81 17.5002 15.0198 17.5002 14.4796 17.5002 14.2095 17.427 13.9703 17.3352 13.6704 17.1611 13.4024 16.9243 13.1967 16.7355 13.0328 16.4887 12.923 15.995 12.7036L15.24 12.3681C14.7054 12.1305 14.4381 12.0117 14.1665 11.9858 13.9065 11.9611 13.6444 11.9976 13.4011 12.0923 13.1468 12.1913 12.9222 12.3786 12.4727 12.7532 12.0253 13.1259 11.8017 13.3123 11.5283 13.4122 11.286 13.5008 10.9657 13.5335 10.7105 13.4959 10.4226 13.4535 10.2022 13.3357 9.7613 13.1001 8.3896 12.367 7.6331 11.6106 6.9001 10.2389 6.6645 9.798 6.5467 9.5776 6.5043 9.2897 6.4666 9.0345 6.4994 8.7142 6.588 8.4718 6.6878 8.1985 6.8742 7.9748 7.247 7.5274 7.6216 7.078 7.8088 6.8533 7.9078 6.599 8.0026 6.3557 8.0391 6.0936 8.0143 5.8337 7.9885 5.5621 7.8697 5.2948 7.6321 4.7601Z" stroke="currentColor" stroke-linecap="round" stroke-width="2"/>
</svg>
