<svg xmlns="http://www.w3.org/2000/svg" width="20" height="20" viewBox="0 0 20 20" fill="none">
  <path d="M14.5833 2.5V8.3333M17.5 5.4167H11.6667" stroke="currentColor" stroke-linecap="round" stroke-linejoin="round" stroke-width="2"/>
  <path d="M7.6319 4.7602L7.2963 4.0052C7.0769 3.5116 6.9672 3.2647 6.8032 3.0758 6.5976 2.8391 6.3296 2.665 6.0297 2.5732 5.7905 2.5 5.5204 2.5 4.9802 2.5 4.1899 2.5 3.7948 2.5 3.4631 2.6519 3.0724 2.8308 2.7195 3.2194 2.5789 3.6255 2.4596 3.9702 2.4938 4.3245 2.5622 5.0331 3.2899 12.5752 7.4248 16.7101 14.9669 17.4378 15.6755 17.5063 16.0298 17.5404 16.3745 17.4211 16.7806 17.2805 17.1692 16.9276 17.3481 16.5369 17.5 16.2052 17.5 15.8101 17.5 15.0198 17.5 14.4796 17.5 14.2095 17.4268 13.9703 17.3351 13.6704 17.1609 13.4024 16.9242 13.1968 16.7353 13.0328 16.4884 12.9231 15.9947 12.7037L15.2398 12.3681C14.7052 12.1305 14.4379 12.0117 14.1663 11.9859 13.9063 11.9612 13.6443 11.9977 13.4009 12.0924 13.1467 12.1914 12.9219 12.3787 12.4725 12.7532 12.0251 13.126 11.8014 13.3124 11.5281 13.4123 11.2858 13.5008 10.9655 13.5336 10.7103 13.4959 10.4224 13.4535 10.2019 13.3358 9.7611 13.1001 8.3893 12.3671 7.6329 11.6107 6.8999 10.2389 6.6643 9.7981 6.5465 9.5776 6.5041 9.2898 6.4665 9.0345 6.4992 8.7142 6.5878 8.4719 6.6876 8.1986 6.874 7.9749 7.2468 7.5275 7.6213 7.0781 7.8086 6.8533 7.9076 6.5991 8.0024 6.3558 8.0388 6.0937 8.0141 5.8337 7.9883 5.5621 7.8695 5.2948 7.6319 4.7602Z" stroke="currentColor" stroke-linecap="round" stroke-width="2"/>
</svg>
