<svg xmlns="http://www.w3.org/2000/svg" width="20" height="20" viewBox="0 0 20 20" fill="none">
  <path d="M7.6321 4.7602L7.2965 4.0052C7.0771 3.5116 6.9674 3.2647 6.8034 3.0758 6.5978 2.8391 6.3298 2.665 6.0299 2.5732 5.7907 2.5 5.5206 2.5 4.9804 2.5 4.1901 2.5 3.795 2.5 3.4633 2.6519 3.0726 2.8308 2.7197 3.2194 2.5791 3.6255 2.4598 3.9702 2.494 4.3245 2.5623 5.0331 3.2901 12.5752 7.425 16.7101 14.9671 17.4378 15.6757 17.5063 16.03 17.5404 16.3747 17.4211 16.7808 17.2805 17.1693 16.9276 17.3483 16.5369 17.5002 16.2052 17.5002 15.8101 17.5002 15.0198 17.5002 14.4796 17.5002 14.2095 17.427 13.9703 17.3352 13.6704 17.1611 13.4024 16.9243 13.1968 16.7355 13.0328 16.4887 12.9231 15.995 12.7037L15.24 12.3681C14.7054 12.1305 14.4381 12.0117 14.1665 11.9859 13.9065 11.9612 13.6444 11.9977 13.4011 12.0924 13.1468 12.1914 12.9222 12.3787 12.4727 12.7532 12.0253 13.126 11.8017 13.3124 11.5283 13.4123 11.286 13.5008 10.9657 13.5336 10.7105 13.4959 10.4226 13.4535 10.2022 13.3358 9.7613 13.1001 8.3896 12.3671 7.6331 11.6107 6.9001 10.2389 6.6645 9.7981 6.5467 9.5776 6.5043 9.2898 6.4666 9.0345 6.4994 8.7142 6.588 8.4719 6.6878 8.1986 6.8742 7.9749 7.247 7.5275 7.6216 7.0781 7.8088 6.8533 7.9078 6.5991 8.0026 6.3558 8.0391 6.0937 8.0143 5.8337 7.9885 5.5621 7.8697 5.2948 7.6321 4.7602Z" stroke="currentColor" stroke-linecap="round" stroke-width="2"/>
  <path d="M14.5579 2.5209C14.5637 2.493 14.6034 2.493 14.6091 2.5209 14.9045 3.9662 16.034 5.0957 17.4793 5.3911 17.5072 5.3968 17.5072 5.4366 17.4793 5.4423 16.034 5.7377 14.9045 6.8671 14.6091 8.3125 14.6034 8.3403 14.5637 8.3403 14.5579 8.3125 14.2626 6.8671 13.1331 5.7377 11.6877 5.4423 11.6599 5.4366 11.6599 5.3968 11.6877 5.3911 13.1331 5.0957 14.2626 3.9662 14.5579 2.5209Z" stroke="currentColor" stroke-linejoin="round" stroke-width="2"/>
</svg>
