<svg xmlns="http://www.w3.org/2000/svg" width="20" height="20" viewBox="0 0 20 20" fill="none">
  <path d="M10 11.434C9.425 11.0918 9.1667 10.688 9.1667 10.4167M10 11.434V16.6667H7.0833L8.3333 15 7.5 11.25C5 11.25 3.75 8.3333 3.75 6.6667H2.5C2.0398 6.6667 1.6667 6.2936 1.6667 5.8333 1.6667 4.9129 2.4129 4.1667 3.3333 4.1667H4.5833L4.8068 3.8315C5.138 3.3347 5.8186 3.2181 6.2962 3.5763 6.7378 3.9075 6.8438 4.526 6.5376 4.9853L6.25 5.4167C6.1111 5.9722 6.0833 7.1667 7.0833 7.5 7.6389 7.6389 8.8333 7.5 9.1667 5.8333 9.5833 4.5833 10.4167 2.5 12.0833 2.5 13.4297 2.5 13.6884 4.4033 15.2757 5.7938 16.0279 6.4528 16.6667 7.3151 16.6667 8.3152V16.6667H14.1667L15 15 14.5833 11.8571C13.1612 12.2962 11.2856 12.1991 10 11.434ZM16.0822 6.6667C16.0822 6.6667 18.3333 7.0834 18.3333 10" stroke="currentColor" stroke-linecap="round" stroke-linejoin="round" stroke-width="2"/>
</svg>
