<svg xmlns="http://www.w3.org/2000/svg" width="20" height="20" viewBox="0 0 20 20" fill="none">
  <path d="M10.5812 2.9166H9.4192C8.8237 2.9166 8.5259 2.9166 8.2589 3.01 8.0958 3.067 7.9426 3.149 7.8047 3.253 7.5789 3.4234 7.4138 3.6712 7.0835 4.1666L7.0835 4.1666C6.9143 4.4204 6.665 4.7945 6.5656 4.8989 6.3193 5.1577 5.9964 5.3305 5.6444 5.3919 5.5024 5.4166 5.3499 5.4166 5.0449 5.4166 4.2282 5.4166 3.8198 5.4166 3.4859 5.5112 2.6506 5.7476 1.9978 6.4004 1.7613 7.2357 1.6668 7.5696 1.6668 7.978 1.6668 8.7948V12.0833C1.6668 14.4403 1.6668 15.6188 2.399 16.3511 3.1313 17.0833 4.3098 17.0833 6.6668 17.0833H13.3335C15.6905 17.0833 16.869 17.0833 17.6013 16.3511 18.3335 15.6188 18.3335 14.4403 18.3335 12.0833V8.7948C18.3335 7.978 18.3335 7.5696 18.239 7.2357 18.0025 6.4004 17.3497 5.7476 16.5144 5.5112 16.1805 5.4166 15.7722 5.4166 14.9554 5.4166 14.6504 5.4166 14.4979 5.4166 14.3559 5.3919 14.0039 5.3305 13.681 5.1577 13.4348 4.8989 13.3353 4.7944 13.086 4.4204 12.9168 4.1666 12.5865 3.6712 12.4213 3.4234 12.1956 3.253 12.0577 3.149 11.9045 3.067 11.7414 3.01 11.4744 2.9166 11.1767 2.9166 10.5812 2.9166Z" stroke="currentColor" stroke-linecap="round" stroke-linejoin="round" stroke-width="2"/>
  <path d="M15.8335 7.9166V7.925" stroke="currentColor" stroke-linecap="round" stroke-linejoin="round" stroke-width="2"/>
  <path d="M10.0002 13.3333C11.1637 13.3333 12.5001 12.5 12.9168 11.6667M10.0002 13.3333C8.8367 13.3333 7.5003 12.5 7.0836 11.6667M10.0002 13.3333L10.0002 14.5833M10.0002 11.25C9.3098 11.25 8.7502 10.6903 8.7502 10L8.7502 8.3333C8.7502 7.643 9.3098 7.0833 10.0002 7.0833 10.6905 7.0833 11.2502 7.643 11.2502 8.3333V10C11.2502 10.6903 10.6905 11.25 10.0002 11.25Z" stroke="currentColor" stroke-linecap="round" stroke-linejoin="round" stroke-width="2"/>
</svg>
