<svg xmlns="http://www.w3.org/2000/svg" width="20" height="20" viewBox="0 0 20 20" fill="none">
  <path d="M3.75 17.9167L7.0833 14.5833M8.75 14.5833L12.0833 17.9167M7.9167 14.5833L7.9167 18.75" stroke="currentColor" stroke-linecap="round" stroke-linejoin="round" stroke-width="2"/>
  <path d="M1.6667 9.8958C1.6667 8.1772 1.6667 7.3178 2.5209 6.7839 3.3752 6.25 4.7501 6.25 7.5 6.25H8.3333C11.0832 6.25 12.4581 6.25 13.3124 6.7839 14.1667 7.3178 14.1667 8.1772 14.1667 9.8958V10.9375C14.1667 12.6562 14.1667 13.5155 13.3124 14.0494 12.4581 14.5833 11.0832 14.5833 8.3333 14.5833H7.5C4.7501 14.5833 3.3752 14.5833 2.5209 14.0494 1.6667 13.5155 1.6667 12.6562 1.6667 10.9375V9.8958Z" stroke="currentColor" stroke-width="2"/>
  <path d="M14.1667 8.5412L14.2716 8.4783C16.0348 7.4203 16.9163 6.8913 17.6248 7.1467 18.3333 7.4021 18.3333 8.249 18.3333 9.9427V10.8904C18.3333 12.5841 18.3333 13.4309 17.6248 13.6863 16.9163 13.9418 16.0348 13.4128 14.2716 12.3547L14.1667 12.2918" stroke="currentColor" stroke-linecap="round" stroke-width="2"/>
  <circle cx="10.416666666666668" cy="4.166666666666667" r="2.0833333333333335" stroke="currentColor" stroke-width="2"/>
  <circle cx="5.833333333333334" cy="3.75" r="2.5" stroke="currentColor" stroke-width="2"/>
</svg>
