<svg xmlns="http://www.w3.org/2000/svg" width="20" height="20" viewBox="0 0 20 20" fill="none">
  <path d="M6.9271 3.9843L6.4071 3.6376V3.6376L6.9271 3.9843ZM6.25 5V5.625C6.459 5.625 6.6541 5.5206 6.77 5.3467L6.25 5ZM1.8102 7.3657L1.2121 7.1843V7.1843L1.8102 7.3657ZM4.0324 5.1435L3.851 4.5454H3.851L4.0324 5.1435ZM2.8854 16.7433L3.2818 16.2602 3.2818 16.2602 2.8854 16.7433ZM2.4233 16.2813L2.9064 15.8848 2.9064 15.8848 2.4233 16.2813ZM17.5767 16.2813L17.0936 15.8848 17.0936 15.8848 17.5767 16.2813ZM17.1147 16.7433L16.7182 16.2602 16.7182 16.2602 17.1147 16.7433ZM11.6829 3.2483C11.9873 3.4111 12.366 3.2965 12.5288 2.9921 12.6918 2.6878 12.577 2.309 12.2727 2.1462L11.6829 3.2483ZM18.7879 7.1843C18.6877 6.854 18.3387 6.6674 18.0083 6.7676 17.6781 6.8678 17.4915 7.2168 17.5918 7.5472L18.7879 7.1843ZM17.7083 9.5833V11.25H18.9583V9.5833H17.7083ZM12.0833 16.875H7.9167V18.125H12.0833V16.875ZM2.2917 11.25V9.5833H1.0417V11.25H2.2917ZM10.2994 1.875H9.7006V3.125H10.2994V1.875ZM6.4071 3.6376L5.73 4.6533 6.77 5.3467 7.4471 4.331 6.4071 3.6376ZM9.7006 1.875C9.2754 1.875 8.9141 1.8744 8.6141 1.9024 8.3012 1.9315 8.0103 1.9947 7.7273 2.1462L8.3171 3.2483C8.4026 3.2025 8.5143 3.1671 8.7302 3.1469 8.9588 3.1256 9.2526 3.125 9.7006 3.125V1.875ZM7.4471 4.331C7.6957 3.9582 7.8591 3.7142 8.0037 3.5357 8.1402 3.3673 8.2316 3.294 8.3171 3.2483L7.7273 2.1462C7.4443 2.2976 7.2304 2.5046 7.0325 2.7488 6.8428 2.9829 6.6429 3.2839 6.4071 3.6376L7.4471 4.331ZM2.2917 9.5833C2.2917 8.3749 2.2985 7.9092 2.4083 7.5471L1.2121 7.1843C1.0349 7.7685 1.0417 8.4658 1.0417 9.5833H2.2917ZM6.25 4.375C5.1325 4.375 4.4352 4.3682 3.851 4.5454L4.2138 5.7416C4.5759 5.6318 5.0416 5.625 6.25 5.625V4.375ZM2.4083 7.5471C2.6709 6.6816 3.3482 6.0042 4.2138 5.7416L3.851 4.5454C2.5859 4.9292 1.5959 5.9192 1.2121 7.1843L2.4083 7.5471ZM7.9167 16.875C6.5316 16.875 5.5477 16.874 4.7928 16.7848 4.0516 16.6972 3.613 16.532 3.2818 16.2602L2.4889 17.2265C3.0796 17.7113 3.7869 17.9246 4.646 18.0261 5.4914 18.126 6.5622 18.125 7.9167 18.125V16.875ZM1.0417 11.25C1.0417 12.6045 1.0406 13.6753 1.1406 14.5207 1.2421 15.3798 1.4553 16.087 1.9402 16.6778L2.9064 15.8848C2.6347 15.5537 2.4695 15.115 2.3819 14.3739 2.2927 13.619 2.2917 12.6351 2.2917 11.25H1.0417ZM3.2818 16.2602C3.1447 16.1477 3.019 16.0219 2.9064 15.8848L1.9402 16.6778C2.1047 16.8783 2.2884 17.062 2.4889 17.2265L3.2818 16.2602ZM17.7083 11.25C17.7083 12.6351 17.7073 13.619 17.6181 14.3739 17.5305 15.115 17.3653 15.5537 17.0936 15.8848L18.0598 16.6778C18.5447 16.087 18.7579 15.3798 18.8594 14.5207 18.9593 13.6753 18.9583 12.6045 18.9583 11.25H17.7083ZM12.0833 18.125C13.4378 18.125 14.5086 18.126 15.354 18.0261 16.2131 17.9246 16.9203 17.7113 17.5112 17.2265L16.7182 16.2602C16.387 16.532 15.9483 16.6972 15.2073 16.7848 14.4523 16.874 13.4684 16.875 12.0833 16.875V18.125ZM17.0936 15.8848C16.981 16.0219 16.8552 16.1477 16.7182 16.2602L17.5112 17.2265C17.7116 17.062 17.8953 16.8783 18.0598 16.6778L17.0936 15.8848ZM10.2994 3.125C10.7474 3.125 11.0412 3.1256 11.2698 3.1469 11.4857 3.1671 11.5974 3.2025 11.6829 3.2483L12.2727 2.1462C11.9898 1.9947 11.6988 1.9315 11.3859 1.9024 11.0859 1.8744 10.7246 1.875 10.2994 1.875V3.125ZM18.9583 9.5833C18.9583 8.4658 18.9651 7.7685 18.7879 7.1843L17.5918 7.5472C17.7016 7.9092 17.7083 8.3749 17.7083 9.5833H18.9583Z" fill="currentColor"/>
  <path d="M13.3333 10.8333C13.3333 12.6743 11.8409 14.1667 10 14.1667 8.1591 14.1667 6.6667 12.6743 6.6667 10.8333 6.6667 8.9924 8.1591 7.5 10 7.5 11.8409 7.5 13.3333 8.9924 13.3333 10.8333Z" stroke="currentColor" stroke-linecap="round" stroke-linejoin="round" stroke-width="2"/>
  <path d="M14.9781 2.5179C14.9829 2.494 15.0171 2.494 15.0219 2.5179 15.2752 3.7567 16.2433 4.7249 17.4821 4.9781 17.506 4.983 17.506 5.0171 17.4821 5.0219 16.2433 5.2751 15.2752 6.2433 15.0219 7.4821 15.0171 7.506 14.9829 7.506 14.9781 7.4821 14.7248 6.2433 13.7568 5.2751 12.5179 5.0219 12.494 5.0171 12.494 4.983 12.5179 4.9781 13.7568 4.7249 14.7248 3.7567 14.9781 2.5179Z" stroke="currentColor" stroke-linecap="round" stroke-linejoin="round" stroke-width="2"/>
</svg>
