<svg xmlns="http://www.w3.org/2000/svg" width="20" height="20" viewBox="0 0 20 20" fill="none">
  <path d="M4.1667 7.5H5" stroke="currentColor" stroke-linecap="round" stroke-linejoin="round" stroke-width="2"/>
  <path d="M1.6667 1.6667L18.3333 18.3333" stroke="currentColor" stroke-linecap="round" stroke-linejoin="round" stroke-width="2"/>
  <path d="M13.7408 13.7408C13.2585 14.012 12.7019 14.1667 12.1092 14.1667 10.2683 14.1667 8.7758 12.6743 8.7758 10.8333 8.7758 10.2406 8.9306 9.684 9.2018 9.2018M11.0166 7.6832C11.3588 7.5645 11.7265 7.5 12.1092 7.5 13.9501 7.5 15.4425 8.9924 15.4425 10.8333 15.4425 11.216 15.378 11.5837 15.2593 11.9259" stroke="currentColor" stroke-linecap="round" stroke-linejoin="round" stroke-width="2"/>
  <path d="M17.0833 17.0819H6.6667C4.3096 17.0819 3.1311 17.0819 2.3989 16.3497 1.6667 15.6174 1.6667 14.4389 1.6667 12.0819V9.9986C1.6667 7.6416 1.6667 6.463 2.3989 5.7308 2.9333 5.1964 3.7055 5.052 5 5.013" stroke="currentColor" stroke-linecap="round" stroke-linejoin="round" stroke-width="2"/>
  <path d="M18.3333 15V6.6885C18.3333 5.756 17.5774 5 16.6448 5 16.1319 5 15.6468 4.7668 15.3264 4.3663L14.8333 3.75C14.6708 3.5468 14.5894 3.4451 14.4983 3.3607 14.2526 3.1331 13.944 2.9848 13.6128 2.9351 13.4899 2.9167 13.3598 2.9167 13.0995 2.9167H11.6021C10.8149 2.9167 10.4213 2.9167 10.0791 3.0812 9.7368 3.2457 9.4909 3.553 8.9992 4.1677L8.3333 5" stroke="currentColor" stroke-linecap="round" stroke-linejoin="round" stroke-width="2"/>
</svg>
