<svg xmlns="http://www.w3.org/2000/svg" width="20" height="20" viewBox="0 0 20 20" fill="none">
  <path d="M8.0966 8.0957C7.2322 8.698 6.6667 9.6992 6.6667 10.8325 6.6667 12.6734 8.1591 14.1658 10 14.1658 11.1333 14.1658 12.1345 13.6003 12.7368 12.7359" stroke="currentColor" stroke-linecap="round" stroke-linejoin="round" stroke-width="2"/>
  <path d="M1.6667 1.6667L18.3333 18.3333" stroke="currentColor" stroke-linecap="round" stroke-linejoin="round" stroke-width="2"/>
  <path d="M5.4133 5.4133C5.3179 5.4167 5.2014 5.4167 5.0447 5.4167 4.228 5.4167 3.8196 5.4167 3.4857 5.5112 2.6505 5.7476 1.9976 6.4005 1.7612 7.2357 1.6667 7.5696 1.6667 7.978 1.6667 8.7948V12.0833C1.6667 14.4403 1.6667 15.6188 2.3989 16.3511 3.1311 17.0833 4.3096 17.0833 6.6667 17.0833H13.3333C15 17.0833 16.0774 17.0833 16.8244 16.8244M18.2317 14.8983C18.3333 14.2082 18.3333 13.3037 18.3333 12.0833V8.7948C18.3333 7.978 18.3333 7.5696 18.2388 7.2357 18.0023 6.4005 17.3495 5.7476 16.5143 5.5112 16.1803 5.4167 15.772 5.4167 14.9553 5.4167 14.6503 5.4167 14.4978 5.4167 14.3558 5.3919 14.0038 5.3305 13.6808 5.1577 13.4346 4.8989 13.3352 4.7945 13.0858 4.4204 12.9167 4.1667 12.5863 3.6712 12.4212 3.4235 12.1954 3.2531 12.0576 3.149 11.9043 3.067 11.7412 3.01 11.4742 2.9167 11.1765 2.9167 10.581 2.9167H9.419C8.8235 2.9167 8.5258 2.9167 8.2587 3.01 8.0957 3.067 7.9425 3.149 7.8046 3.2531 7.6204 3.3921 7.4765 3.5826 7.2504 3.9171" stroke="currentColor" stroke-linecap="round" stroke-linejoin="round" stroke-width="2"/>
  <path d="M15.9375 7.9167H15.8333M16.0417 7.9167C16.0417 8.0317 15.9484 8.125 15.8333 8.125 15.7182 8.125 15.625 8.0317 15.625 7.9167 15.625 7.8016 15.7182 7.7083 15.8333 7.7083 15.9484 7.7083 16.0417 7.8016 16.0417 7.9167Z" stroke="currentColor" stroke-linecap="round" stroke-width="2"/>
</svg>
