<svg xmlns="http://www.w3.org/2000/svg" width="20" height="20" viewBox="0 0 20 20" fill="none">
  <path d="M10.5813 2.9167H9.4192C8.8238 2.9167 8.526 2.9167 8.2589 3.01 8.0959 3.067 7.9427 3.149 7.8048 3.2531 7.579 3.4235 7.4139 3.6712 7.0835 4.1667L7.0835 4.1667C6.9144 4.4204 6.665 4.7945 6.5656 4.8989 6.3193 5.1577 5.9964 5.3305 5.6445 5.3919 5.5024 5.4167 5.3499 5.4167 5.0449 5.4167 4.2282 5.4167 3.8199 5.4167 3.4859 5.5112 2.6507 5.7476 1.9978 6.4005 1.7614 7.2357 1.6669 7.5696 1.6669 7.978 1.6669 8.7948V12.0833C1.6669 14.4403 1.6669 15.6188 2.3991 16.3511 3.1313 17.0833 4.3099 17.0833 6.6669 17.0833H13.3335C15.6906 17.0833 16.8691 17.0833 17.6013 16.3511 18.3335 15.6188 18.3335 14.4403 18.3335 12.0833V8.7948C18.3335 7.978 18.3335 7.5696 18.239 7.2357 18.0026 6.4005 17.3498 5.7476 16.5145 5.5112 16.1806 5.4167 15.7722 5.4167 14.9555 5.4167 14.6505 5.4167 14.498 5.4167 14.3559 5.3919 14.004 5.3305 13.6811 5.1577 13.4348 4.8989 13.3354 4.7945 13.0861 4.4204 12.9168 4.1667 12.5866 3.6712 12.4214 3.4235 12.1957 3.2531 12.0578 3.149 11.9045 3.067 11.7415 3.01 11.4744 2.9167 11.1767 2.9167 10.5813 2.9167Z" stroke="currentColor" stroke-linecap="round" stroke-linejoin="round" stroke-width="2"/>
  <path d="M11.2502 10.4167L13.3335 10.8333 14.5835 8.75M12.2051 13.3333C11.6174 13.852 10.8456 14.1667 10.0002 14.1667 8.1593 14.1667 6.6669 12.6743 6.6669 10.8333 6.6669 8.9924 8.1593 7.5 10.0002 7.5 11.7001 7.5 13.1027 8.7723 13.3078 10.4167" stroke="currentColor" stroke-linecap="round" stroke-linejoin="round" stroke-width="2"/>
</svg>
