<svg xmlns="http://www.w3.org/2000/svg" width="20" height="20" viewBox="0 0 20 20" fill="none">
  <path d="M18.3333 12.0833V6.8933C18.3333 5.8477 17.4857 5 16.44 5 16.0566 5 15.6939 4.8257 15.4543 4.5263L15 3.9583C14.6738 3.5506 14.5108 3.3468 14.3039 3.2059 14.1659 3.1119 14.0147 3.0392 13.8551 2.9902 13.6159 2.9167 13.3548 2.9167 12.8327 2.9167H11.334C10.8118 2.9167 10.5508 2.9167 10.3116 2.9902 10.152 3.0392 10.0008 3.1119 9.8628 3.2059 9.6559 3.3468 9.4928 3.5506 9.1667 3.9583 8.8405 4.3661 8.6774 4.5699 8.4706 4.7108 8.3326 4.8048 8.1813 4.8775 8.0218 4.9265 7.7826 5 7.5215 5 6.9993 5H6.6667C4.3096 5 3.1311 5 2.3989 5.7322 1.6667 6.4645 1.6667 7.643 1.6667 10V12.0833C1.6667 14.4403 1.6667 15.6188 2.3989 16.3511 3.1311 17.0833 4.3096 17.0833 6.6667 17.0833H13.3333C15.6903 17.0833 16.8688 17.0833 17.6011 16.3511 18.3333 15.6188 18.3333 14.4403 18.3333 12.0833Z" stroke="currentColor" stroke-linecap="round" stroke-linejoin="round" stroke-width="2"/>
  <path d="M4.1667 7.5H5.8333" stroke="currentColor" stroke-linecap="round" stroke-linejoin="round" stroke-width="2"/>
  <path d="M15.4424 10.8333C15.4424 12.6743 13.95 14.1667 12.1091 14.1667 10.2681 14.1667 8.7758 12.6743 8.7758 10.8333 8.7758 8.9924 10.2681 7.5 12.1091 7.5 13.95 7.5 15.4424 8.9924 15.4424 10.8333Z" stroke="currentColor" stroke-linecap="round" stroke-linejoin="round" stroke-width="2"/>
</svg>
