<svg xmlns="http://www.w3.org/2000/svg" width="20" height="20" viewBox="0 0 20 20" fill="none">
  <path d="M1.6667 8.3333C1.6667 5.4111 1.6667 3.95 2.4233 2.9666 2.5618 2.7866 2.7166 2.6215 2.8854 2.4737 3.8073 1.6667 5.1771 1.6667 7.9167 1.6667H12.0833C14.8229 1.6667 16.1927 1.6667 17.1147 2.4737 17.2834 2.6215 17.4382 2.7866 17.5767 2.9666 18.3333 3.95 18.3333 5.4111 18.3333 8.3333 18.3333 11.2555 18.3333 12.7167 17.5767 13.7001 17.4382 13.8801 17.2834 14.0452 17.1147 14.1929 16.1927 15 14.8229 15 12.0833 15H7.9167C5.1771 15 3.8073 15 2.8854 14.1929 2.7166 14.0452 2.5618 13.8801 2.4233 13.7001 1.6667 12.7167 1.6667 11.2555 1.6667 8.3333Z" stroke="currentColor" stroke-width="2"/>
  <path d="M14.1667 18.3333L10.6944 15M5.8333 18.3333L9.3056 15" stroke="currentColor" stroke-linecap="round" stroke-linejoin="round" stroke-width="2"/>
  <path d="M10 15L10 19.1667" stroke="currentColor" stroke-linecap="round" stroke-linejoin="round" stroke-width="2"/>
  <circle cx="10" cy="7.916666666666667" r="2.5" stroke="currentColor" stroke-width="2"/>
</svg>
