<svg xmlns="http://www.w3.org/2000/svg" width="20" height="20" viewBox="0 0 20 20" fill="none">
  <path d="M18.3335 7.5V12.5C18.3335 14.857 18.3335 16.0355 17.6013 16.7678 16.869 17.5 15.6905 17.5 13.3335 17.5H6.6668C4.3098 17.5 3.1313 17.5 2.399 16.7678 1.6668 16.0355 1.6668 14.857 1.6668 12.5V9.2114C1.6668 8.3947 1.6668 7.9863 1.7613 7.6524 1.9978 6.8171 2.6506 6.1643 3.4859 5.9278 3.8198 5.8333 4.2282 5.8333 5.0449 5.8333 5.3499 5.8333 5.5024 5.8333 5.6444 5.8086 5.9964 5.7472 6.3193 5.5744 6.5656 5.3156 6.665 5.2111 6.9143 4.8371 7.0835 4.5833 7.4138 4.0879 7.5789 3.8401 7.8047 3.6697 7.9426 3.5656 8.0958 3.4837 8.2589 3.4266 8.5259 3.3333 8.8237 3.3333 9.4192 3.3333H10.8335" stroke="currentColor" stroke-linecap="round" stroke-linejoin="round" stroke-width="2"/>
  <path d="M13.3335 11.25C13.3335 13.0909 11.8411 14.5833 10.0002 14.5833 8.1592 14.5833 6.6668 13.0909 6.6668 11.25 6.6668 9.409 8.1592 7.9167 10.0002 7.9167 11.8411 7.9167 13.3335 9.409 13.3335 11.25Z" stroke="currentColor" stroke-linecap="round" stroke-linejoin="round" stroke-width="2"/>
  <path d="M13.3335 4.5833H17.5002M15.4168 6.6666V2.5" stroke="currentColor" stroke-linecap="round" stroke-linejoin="round" stroke-width="2"/>
</svg>
