<svg xmlns="http://www.w3.org/2000/svg" width="20" height="20" viewBox="0 0 20 20" fill="none">
  <circle cx="14.166666666666668" cy="15.833333333333334" r="1.6666666666666667" stroke="currentColor" stroke-width="2"/>
  <circle cx="5.833333333333334" cy="15.833333333333334" r="1.6666666666666667" stroke="currentColor" stroke-width="2"/>
  <path d="M13.3333 5.8333H17.4486C17.8603 5.8333 18.0662 5.8333 18.1836 5.7378 18.2552 5.6795 18.3053 5.5997 18.3262 5.5106 18.3606 5.3645 18.2685 5.1832 18.0844 4.8207 17.6224 3.9113 17.3914 3.4565 17.0317 3.1389 16.8073 2.9408 16.5489 2.7836 16.2686 2.6747 15.8191 2.5 15.3026 2.5 14.2696 2.5H6.7463C4.3517 2.5 3.1545 2.5 2.4106 3.2322 1.6667 3.9645 1.6667 5.143 1.6667 7.5V11.6667" stroke="currentColor" stroke-linecap="round" stroke-linejoin="round" stroke-width="2"/>
  <path d="M7.5 15.8333H12.5M15.8333 15.8333C17.2141 15.8333 18.3333 14.7141 18.3333 13.3333V10.8333H3.3333C2.5477 10.8333 2.1548 10.8333 1.9107 11.0774 1.6667 11.3215 1.6667 11.7143 1.6667 12.5V13.3333C1.6667 14.5118 1.6667 15.1011 2.0328 15.4673 2.3989 15.8333 2.9882 15.8333 4.1667 15.8333" stroke="currentColor" stroke-linecap="round" stroke-linejoin="round" stroke-width="2"/>
  <path d="M5 5.8333L6.6667 5.8333" stroke="currentColor" stroke-linecap="round" stroke-linejoin="round" stroke-width="2"/>
  <path d="M11.6667 10.8333V7.4714C11.6667 6.8754 11.6667 6.5774 11.7692 6.3529 11.8455 6.1856 11.9602 6.048 12.0997 5.9563 12.2867 5.8333 12.5351 5.8333 13.0318 5.8333 13.7828 5.8333 14.1582 5.8333 14.5034 5.9551 14.7633 6.0467 15.009 6.1885 15.231 6.3747 15.5258 6.6221 15.7604 6.974 16.2296 7.6777L18.3333 10.8333" stroke="currentColor" stroke-linecap="round" stroke-linejoin="round" stroke-width="2"/>
</svg>
