<svg xmlns="http://www.w3.org/2000/svg" width="20" height="20" viewBox="0 0 20 20" fill="none">
  <path d="M10 17.9167H10 10C13.7319 17.9167 15.5979 17.9167 16.7573 16.7573 17.9167 15.5979 17.9167 13.7319 17.9167 10V10 10C17.9167 6.268 17.9167 4.4021 16.7573 3.2427 15.5979 2.0833 13.7319 2.0833 10 2.0833 6.268 2.0833 4.4021 2.0833 3.2427 3.2427 2.0833 4.4021 2.0833 6.268 2.0833 10 2.0833 13.7319 2.0833 15.5979 3.2427 16.7573 4.4021 17.9167 6.268 17.9167 10 17.9167Z" stroke="currentColor" stroke-linecap="round" stroke-linejoin="round" stroke-width="2"/>
  <path d="M12.5 7.5L7.5 12.4997M12.5 12.5L7.5 7.5003" stroke="currentColor" stroke-linecap="round" stroke-linejoin="round" stroke-width="2"/>
</svg>
