<svg xmlns="http://www.w3.org/2000/svg" width="20" height="20" viewBox="0 0 20 20" fill="none">
  <path d="M4.3351 12.0718L5.526 16.4286M6.7753 7.9287L7.9662 12.2854M9.3644 4.3302L10.4064 8.1424M12.4001 2.3655L13.1444 5.0885M11.6266 6.0708L5.1193 17.1191C4.67 17.8818 3.6751 18.1431 2.897 17.7028 2.1189 17.2624 1.8523 16.2871 2.3016 15.5244L8.8088 4.4762C10.1565 2.188 13.1413 1.404 15.4757 2.7251 17.8099 4.0461 18.6097 6.972 17.262 9.2602 16.8128 10.0229 15.8178 10.2843 15.0397 9.8438 14.2617 9.4035 13.995 8.4283 14.4443 7.6655 14.8935 6.9028 14.6269 5.9275 13.8488 5.4871 13.0708 5.0468 12.0758 5.3081 11.6266 6.0708Z" stroke="currentColor" stroke-linecap="round" stroke-linejoin="round" stroke-width="2"/>
</svg>
