<svg xmlns="http://www.w3.org/2000/svg" width="20" height="20" viewBox="0 0 20 20" fill="none">
  <path d="M6.2081 7.9585L7.9585 6.2081C8.7321 5.4346 9.7813 5 10.8753 5 13.1532 5 15 6.8467 15 9.1248 15 10.2188 14.5654 11.2679 13.7919 12.0414L12.0414 13.7919C11.2679 14.5654 10.2188 15 9.1248 15 6.8467 15 5 13.1532 5 10.8753 5 9.7813 5.4346 8.7321 6.2081 7.9585Z" stroke="currentColor" stroke-linecap="round" stroke-linejoin="round" stroke-width="2"/>
  <path d="M11.6667 5.4167V13.75M8.3333 6.25V14.5833" stroke="currentColor" stroke-linecap="round" stroke-linejoin="round" stroke-width="2"/>
  <path d="M14.5833 7.0833L17.9263 6.7119C18.158 6.6861 18.3333 6.4903 18.3333 6.2571 18.3333 6.018 18.1457 5.8354 17.9142 5.7754 17.7282 5.7272 17.5388 5.634 17.3413 5.4365 16.6191 4.7143 17.2698 4.1746 16.5476 3.4524 15.8532 2.7579 15.2579 3.3532 14.5635 2.6587 14.3626 2.4578 14.2679 2.271 14.2204 2.0904 14.1593 1.8582 13.9788 1.6667 13.7387 1.6667 13.5079 1.6667 13.3141 1.8402 13.2886 2.0695L12.9167 5.4167" stroke="currentColor" stroke-linecap="round" stroke-linejoin="round" stroke-width="2"/>
  <path d="M5.4167 12.9167L2.0737 13.2881C1.842 13.3138 1.6667 13.5098 1.6667 13.7429 1.6667 13.982 1.8544 14.1646 2.0858 14.2246 2.2718 14.2728 2.4613 14.366 2.6587 14.5635 3.381 15.2858 2.7302 15.8254 3.4524 16.5476 4.1468 17.2421 4.7421 16.6468 5.4365 17.3413 5.6375 17.5422 5.7321 17.729 5.7796 17.9096 5.8407 18.1418 6.0211 18.3333 6.2613 18.3333 6.4921 18.3333 6.686 18.1598 6.7114 17.9304L7.0833 14.5833" stroke="currentColor" stroke-linecap="round" stroke-linejoin="round" stroke-width="2"/>
</svg>
