<svg xmlns="http://www.w3.org/2000/svg" width="20" height="20" viewBox="0 0 20 20" fill="none">
  <path d="M13.4483 15.7911C12.0639 15.3774 10.9145 14.369 10 13.4402 9.0855 14.369 7.9361 15.3774 6.5517 15.7911 5.8561 15.999 5.2406 15.4068 5.423 14.7265 5.6542 13.8637 6.1327 12.9712 6.9235 12.1679 6.9235 12.1679 5.384 12.4341 3.1816 11.7313 2.5468 11.5288 2.2642 10.8462 2.734 10.3872 3.6282 9.5136 5.1635 8.7753 6.0445 8.7753 5.1413 8.1636 3.8305 6.7113 3.2561 5.3437 2.9825 4.6926 3.5633 4.1021 4.2781 4.236 5.8273 4.526 7.3158 5.29 8.242 6.2307 8.242 4.8353 8.5177 3.4936 9.0839 2.2657 9.4522 1.467 10.5478 1.467 10.9161 2.2657 11.4823 3.4936 11.758 4.8353 11.758 6.2307 12.6842 5.29 14.1727 4.526 15.7218 4.236 16.4367 4.1021 17.0175 4.6926 16.7439 5.3437 16.1695 6.7113 14.8588 8.1636 13.9555 8.7753 14.8365 8.7753 16.3718 9.5136 17.266 10.3872 17.7358 10.8462 17.4532 11.5288 16.8184 11.7313 14.616 12.4341 13.0765 12.1679 13.0765 12.1679 13.8673 12.9712 14.3458 13.8637 14.5771 14.7265 14.7593 15.4068 14.1439 15.999 13.4483 15.7911Z" stroke="currentColor" stroke-linecap="round" stroke-linejoin="round" stroke-width="2"/>
  <path d="M10 13.75V18.3333" stroke="currentColor" stroke-linecap="round" stroke-linejoin="round" stroke-width="2"/>
</svg>
