<svg xmlns="http://www.w3.org/2000/svg" width="20" height="20" viewBox="0 0 20 20" fill="none">
  <path d="M8.4338 4.2671C8.5733 3.5748 8.7893 2.9049 9.0839 2.2657 9.4523 1.467 10.5478 1.467 10.9161 2.2657 11.4823 3.4936 11.758 4.8353 11.758 6.2307 12.6843 5.29 14.1727 4.526 15.7219 4.236 16.4367 4.1021 17.0175 4.6926 16.744 5.3437 16.1695 6.7113 14.8588 8.1636 13.9555 8.7753 14.8366 8.7753 16.3718 9.5136 17.266 10.3872 17.7358 10.8462 17.4533 11.5288 16.8184 11.7313 16.5703 11.8105 16.3305 11.8774 16.1004 11.9337M4.2277 4.2277C3.5363 4.1301 2.989 4.708 3.2561 5.3437 3.8306 6.7113 5.1413 8.1636 6.0446 8.7753 5.1635 8.7753 3.6282 9.5136 2.7341 10.3872 2.2642 10.8462 2.5468 11.5288 3.1816 11.7313 5.384 12.4341 6.9236 12.1679 6.9236 12.1679 6.1327 12.9712 5.6542 13.8637 5.423 14.7265 5.2407 15.4068 5.8561 15.999 6.5517 15.7911 7.9361 15.3774 9.0855 14.369 10 13.4402 10.9145 14.369 12.064 15.3774 13.4483 15.7911 14.1439 15.999 14.7594 15.4068 14.5771 14.7265 14.5583 14.6564 14.5379 14.5862 14.5158 14.5158" stroke="currentColor" stroke-linecap="round" stroke-linejoin="round" stroke-width="2"/>
  <path d="M10 13.75V18.3333" stroke="currentColor" stroke-linecap="round" stroke-linejoin="round" stroke-width="2"/>
  <path d="M1.6667 1.6667L18.3333 18.3333" stroke="currentColor" stroke-linecap="round" stroke-linejoin="round" stroke-width="2"/>
</svg>
