<svg xmlns="http://www.w3.org/2000/svg" width="20" height="20" viewBox="0 0 20 20" fill="none">
  <path d="M3.3333 6.6667C3.3333 4.3096 3.3333 3.1311 4.1702 2.3989 5.007 1.6667 6.3539 1.6667 9.0476 1.6667H10.9524C13.6461 1.6667 14.993 1.6667 15.8298 2.3989 16.6667 3.1311 16.6667 4.3096 16.6667 6.6667V14.1667H3.3333V6.6667Z" stroke="currentColor" stroke-linejoin="round" stroke-width="2"/>
  <path d="M2.5 14.1667H17.5" stroke="currentColor" stroke-linecap="round" stroke-width="2"/>
  <path d="M8.9156 4.6382C9.9408 4.4913 11.6395 4.5501 10.2336 5.9606 8.4763 7.7236 5.8403 11.6908 8.9156 10.3684 11.9909 9.0462 13.3091 9.9277 11.9911 11.25" stroke="currentColor" stroke-linecap="round" stroke-linejoin="round" stroke-width="2"/>
  <path d="M10 14.1667V17.5" stroke="currentColor" stroke-linecap="round" stroke-width="2"/>
  <path d="M4.1667 18.3333L6.6667 14.1667" stroke="currentColor" stroke-linecap="round" stroke-width="2"/>
  <path d="M15.8333 18.3333L13.3333 14.1667" stroke="currentColor" stroke-linecap="round" stroke-width="2"/>
</svg>
