<svg xmlns="http://www.w3.org/2000/svg" width="20" height="20" viewBox="0 0 20 20" fill="none">
  <path d="M2.0833 14.1666L1.715 12.1051C1.1873 7.197 5.0469 2.9166 10 2.9166 14.9532 2.9166 18.8127 7.197 18.285 12.1051L17.9167 14.1666" stroke="currentColor" stroke-linecap="round" stroke-linejoin="round" stroke-width="2"/>
  <path d="M6.6798 8.7499C6.5108 6.0792 7.9984 2.9166 10 2.9166" stroke="currentColor" stroke-linecap="round" stroke-linejoin="round" stroke-width="2"/>
  <path d="M13.3333 8.7499C13.5023 6.0792 12.0147 2.9166 10.0131 2.9166" stroke="currentColor" stroke-linecap="round" stroke-linejoin="round" stroke-width="2"/>
  <path d="M10 2.5V1.6666" stroke="currentColor" stroke-linecap="round" stroke-linejoin="round" stroke-width="2"/>
  <path d="M2.0833 14.1744C8.75 11.7856 11.25 12.1036 17.9167 14.1744 17.6863 15.109 17.561 17.7496 16.5425 18.2472 16.0542 18.4857 15.3539 18.1657 14.8508 18.0455 12.4377 17.4691 11.2311 17.1808 10 17.1808 8.7689 17.1808 7.5624 17.4691 5.1492 18.0455 4.6461 18.1657 3.9458 18.4857 3.4575 18.2472 2.439 17.7496 2.3137 15.109 2.0833 14.1744Z" stroke="currentColor" stroke-linecap="round" stroke-linejoin="round" stroke-width="2"/>
</svg>
