<svg xmlns="http://www.w3.org/2000/svg" width="20" height="20" viewBox="0 0 20 20" fill="none">
  <path d="M9 9.9999L5 12.0833C5 13.0653 5 13.1397 5.293 13.4448 5.5859 13.7499 6.0574 13.7499 7.0004 13.7499H11.0013C11.9443 13.7499 12.4158 13.7499 12.7088 13.4448 13.0018 13.1397 13.0018 13.0653 13.0018 12.0833M9 9.9999L15 6.8749M9 9.9999L5 7.9166C5 6.9345 5 6.8601 5.293 6.555 5.5859 6.2499 6.0574 6.2499 7.0004 6.2499H11.0013C11.9443 6.2499 12.4158 6.2499 12.7088 6.555 13.0018 6.8601 13.0018 6.9345 13.0018 7.9166M9 9.9999L15 13.1249" stroke="currentColor" stroke-linecap="round" stroke-linejoin="round" stroke-width="2"/>
  <path d="M2.0815 9.9999C2.0815 6.2679 2.0815 4.402 3.2409 3.2426 4.4002 2.0832 6.2662 2.0832 9.9982 2.0832 13.7301 2.0832 15.5961 2.0832 16.7555 3.2426 17.9148 4.402 17.9148 6.2679 17.9148 9.9999 17.9148 13.7318 17.9148 15.5978 16.7555 16.7572 15.5961 17.9166 13.7301 17.9166 9.9982 17.9166 6.2662 17.9166 4.4002 17.9166 3.2409 16.7572 2.0815 15.5978 2.0815 13.7318 2.0815 9.9999Z" stroke="currentColor" stroke-linecap="round" stroke-linejoin="round" stroke-width="2"/>
</svg>
