<svg xmlns="http://www.w3.org/2000/svg" width="20" height="20" viewBox="0 0 20 20" fill="none">
  <path d="M8.3319 10L1.6667 13.3333C1.6667 14.9047 1.6667 15.2737 2.1548 15.7618 2.643 16.25 3.4286 16.25 5 16.25H11.6667C13.238 16.25 14.0237 16.25 14.5118 15.7618 15 15.2737 15 14.9047 15 13.3333M8.3319 10L18.3298 5M8.3319 10L1.6667 6.6667C1.6667 5.512 1.6667 4.7263 2.1548 4.2382 2.643 3.75 3.4286 3.75 5 3.75H11.6667C13.238 3.75 14.0237 3.75 14.5118 4.2382 15 4.7263 15 5.512 15 6.6667M8.3319 10L18.3298 15" stroke="currentColor" stroke-linecap="round" stroke-linejoin="round" stroke-width="2"/>
</svg>
