<svg xmlns="http://www.w3.org/2000/svg" width="20" height="20" viewBox="0 0 20 20" fill="none">
  <path d="M17.5 4.1667L8.3333 4.1667C5.9926 4.1667 4.8222 4.1667 3.9814 4.7284 3.6175 4.9716 3.305 5.2841 3.0618 5.6481 2.5 6.4888 2.5 7.6592 2.5 10 2.5 12.3407 2.5 13.5112 3.0618 14.3519 3.305 14.7158 3.6175 15.0283 3.9814 15.2716 4.8222 15.8333 5.9926 15.8333 8.3333 15.8333L17.5 15.8333" stroke="currentColor" stroke-linecap="round" stroke-linejoin="round" stroke-width="2"/>
  <path d="M10.8333 10C10.8333 11.1506 9.9006 12.0833 8.75 12.0833 7.5994 12.0833 6.6667 11.1506 6.6667 10 6.6667 8.8494 7.5994 7.9167 8.75 7.9167 9.9006 7.9167 10.8333 8.8494 10.8333 10Z" stroke="currentColor" stroke-width="2"/>
  <path d="M10.8333 10L17.5 10" stroke="currentColor" stroke-linecap="round" stroke-width="2"/>
</svg>
