<svg xmlns="http://www.w3.org/2000/svg" width="20" height="20" viewBox="0 0 20 20" fill="none">
  <path d="M17.5 4.1667L9.4188 4.1667C7.1369 4.1667 5.9959 4.1667 5.287 4.8989 4.7163 5.4883 4.605 6.3669 4.5833 7.9167M17.5 15.8333L9.4188 15.8333C7.1369 15.8333 5.9959 15.8333 5.287 15.1011 4.7163 14.5117 4.605 13.6331 4.5833 12.0833" stroke="currentColor" stroke-linecap="round" stroke-linejoin="round" stroke-width="2"/>
  <path d="M6.6667 10C6.6667 11.1506 5.7339 12.0833 4.5833 12.0833 3.4327 12.0833 2.5 11.1506 2.5 10 2.5 8.8494 3.4327 7.9167 4.5833 7.9167 5.7339 7.9167 6.6667 8.8494 6.6667 10Z" stroke="currentColor" stroke-width="2"/>
  <path d="M6.6667 10H17.5" stroke="currentColor" stroke-linecap="round" stroke-width="2"/>
</svg>
