<svg xmlns="http://www.w3.org/2000/svg" width="20" height="20" viewBox="0 0 20 20" fill="none">
  <path d="M3.75 9.7561C3.1935 10.0528 2.7845 10.5311 2.4838 11.074 1.8827 12.1592 1.7146 13.5023 1.6677 14.1684 1.6515 14.3979 1.8362 14.5833 2.0666 14.5833H3.3181M2.4838 11.074C2.4838 8.4533 3.2466 5.2909 4.7723 3.926 4.9068 3.8057 5.0844 3.75 5.2649 3.75H9.2598C9.7426 3.75 10.2245 3.8476 10.6294 4.1102 11.6283 4.7579 13.1377 6.0664 14.4198 8.0745 14.5259 8.2405 14.6842 8.3665 14.8696 8.4337 15.6077 8.7012 16.4294 9.0725 16.9552 9.3199 17.3103 9.487 17.593 9.7784 17.7275 10.1467 18.0978 11.1608 18.3068 12.2923 18.3333 14.1662 18.3365 14.3963 18.1494 14.5833 17.919 14.5833H16.6675M13.3302 14.5833H6.6555" stroke="currentColor" stroke-linecap="round" stroke-linejoin="round" stroke-width="2"/>
  <path d="M6.6667 14.5833C6.6667 15.5038 5.9205 16.25 5 16.25 4.0795 16.25 3.3333 15.5038 3.3333 14.5833 3.3333 13.6628 4.0795 12.9167 5 12.9167 5.9205 12.9167 6.6667 13.6628 6.6667 14.5833Z" stroke="currentColor" stroke-width="2"/>
  <path d="M16.6667 14.5833C16.6667 15.5038 15.9205 16.25 15 16.25 14.0795 16.25 13.3333 15.5038 13.3333 14.5833 13.3333 13.6628 14.0795 12.9167 15 12.9167 15.9205 12.9167 16.6667 13.6628 16.6667 14.5833Z" stroke="currentColor" stroke-width="2"/>
  <path d="M14.5833 8.3333C12.0833 7.5 9.1667 7.0833 5.8333 7.5 5.8333 5.8333 6.6667 4.1667 7.0833 3.75" stroke="currentColor" stroke-linecap="round" stroke-linejoin="round" stroke-width="2"/>
  <path d="M6.6667 9.1667H7.5" stroke="currentColor" stroke-linecap="round" stroke-linejoin="round" stroke-width="2"/>
</svg>
