<svg xmlns="http://www.w3.org/2000/svg" width="20" height="20" viewBox="0 0 20 20" fill="none">
  <path d="M18.3333 12.8518V15.4167C18.3333 15.8049 18.3333 15.9991 18.2699 16.1523 18.1853 16.3564 18.0231 16.5187 17.8189 16.6032 17.6657 16.6667 17.4716 16.6667 17.0833 16.6667 16.6951 16.6667 16.5009 16.6667 16.3478 16.6032 16.1436 16.5187 15.9813 16.3564 15.8968 16.1523 15.8333 15.9991 15.8333 15.8049 15.8333 15.4167 15.8333 15.0284 15.8333 14.8343 15.7699 14.6811 15.6853 14.4769 15.5231 14.3147 15.3189 14.2301 15.1657 14.1667 14.9716 14.1667 14.5833 14.1667H5.4167C5.0284 14.1667 4.8342 14.1667 4.6811 14.2301 4.4769 14.3147 4.3147 14.4769 4.2301 14.6811 4.1667 14.8343 4.1667 15.0284 4.1667 15.4167 4.1667 15.8049 4.1667 15.9991 4.1032 16.1523 4.0187 16.3564 3.8564 16.5187 3.6522 16.6032 3.4991 16.6667 3.3049 16.6667 2.9167 16.6667 2.5284 16.6667 2.3342 16.6667 2.1811 16.6032 1.9769 16.5187 1.8147 16.3564 1.7301 16.1523 1.6667 15.9991 1.6667 15.8049 1.6667 15.4167V12.8518C1.6667 11.85 1.6667 11.349 1.8097 10.8767 1.9527 10.4042 2.2306 9.9874 2.7863 9.1538L3.3333 8.3333 4.1346 6.4103C4.7561 4.9188 5.0668 4.1731 5.6966 3.7532 6.3264 3.3333 7.1343 3.3333 8.75 3.3333H11.25C12.8658 3.3333 13.6736 3.3333 14.3034 3.7532 14.9332 4.1731 15.2439 4.9188 15.8654 6.4103L16.6667 8.3333 17.2137 9.1538C17.7694 9.9874 18.0473 10.4042 18.1903 10.8767 18.3333 11.349 18.3333 11.85 18.3333 12.8518Z" stroke="currentColor" stroke-linecap="round" stroke-linejoin="round" stroke-width="2"/>
  <path d="M5.1042 11.6667H5M5.2083 11.6667C5.2083 11.7818 5.1151 11.875 5 11.875 4.8849 11.875 4.7917 11.7818 4.7917 11.6667 4.7917 11.5516 4.8849 11.4583 5 11.4583 5.1151 11.4583 5.2083 11.5516 5.2083 11.6667Z" stroke="currentColor" stroke-linecap="round" stroke-linejoin="round" stroke-width="2"/>
  <path d="M15.1042 11.6667H15M15.2083 11.6667C15.2083 11.7818 15.1151 11.875 15 11.875 14.8849 11.875 14.7917 11.7818 14.7917 11.6667 14.7917 11.5516 14.8849 11.4583 15 11.4583 15.1151 11.4583 15.2083 11.5516 15.2083 11.6667Z" stroke="currentColor" stroke-linecap="round" stroke-linejoin="round" stroke-width="2"/>
  <path d="M1.6667 7.0833L3.3333 8.3333 5 8.75H15L16.6667 8.3333 18.3333 7.0833" stroke="currentColor" stroke-linecap="round" stroke-linejoin="round" stroke-width="2"/>
</svg>
