<svg xmlns="http://www.w3.org/2000/svg" width="20" height="20" viewBox="0 0 20 20" fill="none">
  <path d="M7.506 14.1667C7.506 15.0872 6.7598 15.8333 5.8393 15.8333 4.9189 15.8333 4.1727 15.0872 4.1727 14.1667 4.1727 13.2462 4.9189 12.5 5.8393 12.5 6.7598 12.5 7.506 13.2462 7.506 14.1667Z" stroke="currentColor" stroke-width="2"/>
  <path d="M15.8393 14.1667C15.8393 15.0872 15.0932 15.8333 14.1727 15.8333 13.2522 15.8333 12.506 15.0872 12.506 14.1667 12.506 13.2462 13.2522 12.5 14.1727 12.5 15.0932 12.5 15.8393 13.2462 15.8393 14.1667Z" stroke="currentColor" stroke-width="2"/>
  <path d="M1.6727 8.3333H15.006M3.035 4.5167C2.6353 5.1667 1.8525 6.8833 1.6727 8.3333 1.6727 8.9833 1.656 10.8667 1.676 12.7167 1.706 13.3167 1.8059 13.8167 4.1741 14.1667M7.506 8.3333V4.1667M12.4977 14.1667H7.5016M1.686 4.1667H10.1995C10.1995 4.1667 10.6492 4.1667 11.0488 4.2067 11.7983 4.2767 12.4278 4.6167 13.0573 5.4667 13.7239 6.3667 14.2364 7.5067 14.9159 8.1167 16.0451 9.1303 18.1934 8.8167 18.3133 10.9667 18.3433 12.0667 18.3433 13.2667 18.2933 13.4667 18.2131 14.0556 17.759 14.1517 17.1942 14.1667 16.704 14.1797 16.1131 14.1434 15.8253 14.1667" stroke="currentColor" stroke-linecap="round" stroke-width="2"/>
</svg>
