<svg xmlns="http://www.w3.org/2000/svg" width="20" height="20" viewBox="0 0 20 20" fill="none">
  <path d="M1.7214 9.9276C1.8176 9.4028 2.2408 8.8663 2.9236 8.4032 4.1531 7.5694 5.5574 7.5728 6.963 7.5208 7.4295 7.5035 8.682 7.4978 10 7.5008 11.318 7.4978 12.5706 7.5035 13.037 7.5208 14.4426 7.5728 15.8468 7.5694 17.0764 8.4032 17.7593 8.8663 18.1824 9.4028 18.2786 9.9276 18.3612 10.378 18.3484 11.9237 18.2532 13.0144 18.2029 13.5894 18.1518 13.8693 18.0755 13.987 17.8453 14.3419 17.1805 14.6404 16.2027 14.8278 15.285 15.0038 15.4214 15 10 15 4.5785 15 4.715 15.0038 3.7974 14.8278 2.8195 14.6404 2.1548 14.3419 1.9245 13.987 1.8482 13.8693 1.7971 13.5894 1.7468 13.0144 1.6516 11.9237 1.6388 10.378 1.7214 9.9276Z" stroke="currentColor" stroke-linecap="round" stroke-linejoin="round" stroke-width="2"/>
  <path d="M3.75 7.5L4.8444 3.7418C4.9449 3.4917 5.1403 3.2829 5.4156 3.1893 8.1181 2.2702 11.8819 2.2702 14.5844 3.1893 14.8598 3.2829 15.0551 3.4917 15.1557 3.7418L16.25 7.5" stroke="currentColor" stroke-linecap="round" stroke-linejoin="round" stroke-width="2"/>
  <path d="M2.0833 10L3.3333 10.4167" stroke="currentColor" stroke-linecap="round" stroke-linejoin="round" stroke-width="2"/>
  <path d="M17.9167 10L16.6667 10.4167" stroke="currentColor" stroke-linecap="round" stroke-linejoin="round" stroke-width="2"/>
  <path d="M6.6667 14.5833L6.8714 14.0715C7.1758 13.3104 7.3281 12.9298 7.6455 12.7149 7.9629 12.5 8.3728 12.5 9.1926 12.5H10.8074C11.6272 12.5 12.0371 12.5 12.3545 12.7149 12.6719 12.9298 12.8242 13.3104 13.1286 14.0715L13.3333 14.5833" stroke="currentColor" stroke-linecap="round" stroke-linejoin="round" stroke-width="2"/>
  <path d="M5.8347 15.4686V16.137C5.8347 16.8657 5.8028 17.0022 5.5829 17.2149 5.5185 17.2771 5.3877 17.3667 5.2922 17.4141 5.125 17.4968 5.0689 17.5 3.7731 17.5 2.4481 17.5 2.4244 17.4986 2.2202 17.4063 2.1062 17.3548 1.9623 17.2518 1.9005 17.1773 1.6823 16.9148 1.672 16.8374 1.6699 15.4549L1.6705 12.5" stroke="currentColor" stroke-linecap="round" stroke-width="2"/>
  <path d="M14.1653 15.4686V16.137C14.1653 16.8657 14.1972 17.0022 14.4172 17.2149 14.4815 17.2771 14.6123 17.3667 14.7078 17.4141 14.875 17.4968 14.9311 17.5 16.2269 17.5 17.5519 17.5 17.5756 17.4986 17.7797 17.4063 17.8938 17.3548 18.0377 17.2518 18.0995 17.1773 18.3177 16.9148 18.328 16.8374 18.3301 15.4549L18.3295 12.5" stroke="currentColor" stroke-linecap="round" stroke-width="2"/>
  <path d="M16.6667 7.5L17.9167 7.0833" stroke="currentColor" stroke-linecap="round" stroke-linejoin="round" stroke-width="2"/>
  <path d="M3.3333 7.5L2.0833 7.0833" stroke="currentColor" stroke-linecap="round" stroke-linejoin="round" stroke-width="2"/>
</svg>
