<svg xmlns="http://www.w3.org/2000/svg" width="20" height="20" viewBox="0 0 20 20" fill="none">
  <path d="M3.3333 10L2.7863 10.8205C2.2306 11.6541 1.9527 12.0709 1.8097 12.5433 1.6667 13.0157 1.6667 13.5167 1.6667 14.5185V17.0833C1.6667 17.4716 1.6667 17.6657 1.7301 17.8189 1.8147 18.0231 1.9769 18.1853 2.1811 18.2699 2.3342 18.3333 2.5284 18.3333 2.9167 18.3333 3.3049 18.3333 3.4991 18.3333 3.6522 18.2699 3.8564 18.1853 4.0187 18.0231 4.1032 17.8189 4.1667 17.6657 4.1667 17.4716 4.1667 17.0833 4.1667 16.6951 4.1667 16.5009 4.2301 16.3478 4.3147 16.1436 4.4769 15.9813 4.6811 15.8968 4.8342 15.8333 5.0284 15.8333 5.4167 15.8333H14.5833C14.9716 15.8333 15.1657 15.8333 15.3189 15.8968 15.5231 15.9813 15.6853 16.1436 15.7699 16.3478 15.8333 16.5009 15.8333 16.6951 15.8333 17.0833 15.8333 17.4716 15.8333 17.6657 15.8968 17.8189 15.9813 18.0231 16.1436 18.1853 16.3478 18.2699 16.5009 18.3333 16.6951 18.3333 17.0833 18.3333 17.4716 18.3333 17.6657 18.3333 17.8189 18.2699 18.0231 18.1853 18.1853 18.0231 18.2699 17.8189 18.3333 17.6657 18.3333 17.4716 18.3333 17.0833V14.5185C18.3333 13.5167 18.3333 13.0157 18.1903 12.5433 18.0473 12.0709 17.7694 11.6541 17.2137 10.8205L16.6667 10 15.3981 10.3172C15.1993 10.3668 15.0999 10.3917 14.9985 10.4042 14.897 10.4167 14.7946 10.4167 14.5897 10.4167H5.4104C5.2054 10.4167 5.103 10.4167 5.0015 10.4042 4.9001 10.3917 4.8007 10.3668 4.6019 10.3172L3.3333 10ZM3.3333 10L4.1346 8.0769C4.7561 6.5855 5.0668 5.8398 5.6966 5.4199 6.3264 5 7.1343 5 8.75 5M3.3333 10L1.6667 8.75" stroke="currentColor" stroke-linecap="round" stroke-linejoin="round" stroke-width="2"/>
  <circle cx="14.166666666666668" cy="5" r="3.3333333333333335" stroke="currentColor" stroke-linecap="round" stroke-linejoin="round" stroke-width="2"/>
  <path d="M14.1667 3.3333V5" stroke="currentColor" stroke-linecap="round" stroke-linejoin="round" stroke-width="2"/>
  <path d="M5.1042 13.3333H5M5.2083 13.3333C5.2083 13.4484 5.1151 13.5417 5 13.5417 4.8849 13.5417 4.7917 13.4484 4.7917 13.3333 4.7917 13.2183 4.8849 13.125 5 13.125 5.1151 13.125 5.2083 13.2183 5.2083 13.3333Z" stroke="currentColor" stroke-linecap="round" stroke-linejoin="round" stroke-width="2"/>
  <path d="M15.1042 13.3333H15M15.2083 13.3333C15.2083 13.4484 15.1151 13.5417 15 13.5417 14.8849 13.5417 14.7917 13.4484 14.7917 13.3333 14.7917 13.2183 14.8849 13.125 15 13.125 15.1151 13.125 15.2083 13.2183 15.2083 13.3333Z" stroke="currentColor" stroke-linecap="round" stroke-linejoin="round" stroke-width="2"/>
  <path d="M14.209 6.5854H14.1673M14.2507 6.5854C14.2507 6.6314 14.2133 6.6687 14.1673 6.6687 14.1212 6.6687 14.084 6.6314 14.084 6.5854 14.084 6.5394 14.1212 6.5021 14.1673 6.5021 14.2133 6.5021 14.2507 6.5394 14.2507 6.5854Z" stroke="currentColor" stroke-linecap="round" stroke-linejoin="round" stroke-width="2"/>
</svg>
