<svg xmlns="http://www.w3.org/2000/svg" width="20" height="20" viewBox="0 0 20 20" fill="none">
  <path d="M15.9167 15H17.0833C17.4716 15 17.6657 15 17.8189 14.9366 18.0231 14.852 18.1853 14.6898 18.2699 14.4856 18.3333 14.3324 18.3333 14.1383 18.3333 13.75M15.9167 15V9.4962C15.9167 7.77 15.6177 6.8825 14.4819 5.5924 12.9546 3.8574 11.9761 3.3333 9.6416 3.3333H5.1852C3.5265 3.3333 2.6972 3.3333 2.1819 3.9028 1.6667 4.4724 1.6667 5.389 1.6667 7.2222V11.1111C1.6667 12.9443 1.6667 13.861 2.1819 14.4305 2.6972 15 3.5265 15 5.1852 15H5.8333M15.9167 15H9.1667" stroke="currentColor" stroke-linecap="round" stroke-linejoin="round" stroke-width="2"/>
  <circle cx="7.5" cy="15" r="1.6666666666666667" stroke="currentColor" stroke-width="2"/>
  <path d="M4.1667 7.9167C4.1667 6.9346 4.1667 6.4435 4.4514 6.1384 4.7362 5.8333 5.1945 5.8333 6.1111 5.8333H8.0556C8.9722 5.8333 9.4305 5.8333 9.7153 6.1384 10 6.4435 10 6.9346 10 7.9167 10 8.8987 10 9.3898 9.7153 9.6949 9.4305 10 8.9722 10 8.0556 10H6.1111C5.1945 10 4.7362 10 4.4514 9.6949 4.1667 9.3898 4.1667 8.8987 4.1667 7.9167Z" stroke="currentColor" stroke-linejoin="round" stroke-width="2"/>
</svg>
