<svg xmlns="http://www.w3.org/2000/svg" width="20" height="20" viewBox="0 0 20 20" fill="none">
  <path d="M2.5 9.1667C2.5 6.8096 2.5 5.6311 3.2322 4.8989 3.9645 4.1667 5.143 4.1667 7.5 4.1667H9.1667C11.5237 4.1667 12.7022 4.1667 13.4344 4.8989 14.1667 5.6311 14.1667 6.8096 14.1667 9.1667V13.3333C14.1667 15.6903 14.1667 16.8688 13.4344 17.6011 12.7022 18.3333 11.5237 18.3333 9.1667 18.3333H7.5C5.143 18.3333 3.9645 18.3333 3.2322 17.6011 2.5 16.8688 2.5 15.6903 2.5 13.3333V9.1667Z" stroke="currentColor" stroke-width="2"/>
  <path d="M6.7036 9.8017L7.0229 9.4207C7.6302 8.6958 7.9338 8.3333 8.3333 8.3333 8.7328 8.3333 9.0365 8.6958 9.6438 9.4207L9.963 9.8017C10.5433 10.4942 10.8333 10.8405 10.8333 11.25 10.8333 11.6595 10.5433 12.0058 9.963 12.6983L9.6438 13.0793C9.0365 13.8043 8.7328 14.1667 8.3333 14.1667 7.9338 14.1667 7.6302 13.8043 7.0229 13.0793L6.7036 12.6983C6.1234 12.0058 5.8333 11.6595 5.8333 11.25 5.8333 10.8405 6.1234 10.4942 6.7036 9.8017Z" stroke="currentColor" stroke-width="2"/>
  <path d="M14.1037 15.8333C15.0168 15.3228 15.3274 14.2005 15.9486 11.9558L16.8271 8.7813C17.4483 6.5365 17.7589 5.4141 17.2317 4.5299 16.7044 3.6457 15.5452 3.345 13.227 2.7435L11.5877 2.3182C9.2693 1.7167 8.1102 1.416 7.197 1.9265 6.5469 2.2899 6.2022 2.9636 5.8333 4.1316" stroke="currentColor" stroke-width="2"/>
</svg>
