<svg xmlns="http://www.w3.org/2000/svg" width="20" height="20" viewBox="0 0 20 20" fill="none">
  <path d="M18.3333 11.6714C18.3333 14.4338 16.0976 16.6681 13.3333 16.6681L14.0476 15.2405" stroke="currentColor" stroke-linecap="round" stroke-linejoin="round" stroke-width="2"/>
  <path d="M1.6667 8.3405C1.6667 5.578 3.9024 3.3438 6.6667 3.3438L5.9524 4.7714" stroke="currentColor" stroke-linecap="round" stroke-linejoin="round" stroke-width="2"/>
  <path d="M9.1382 4.6034H18.1436M11.2215 9.1619H16.2499C17.4005 9.1619 18.3332 8.2298 18.3332 7.08V3.7473C18.3332 2.5975 17.4005 1.6653 16.2499 1.6653H11.2215C10.0709 1.6653 9.1382 2.5975 9.1382 3.7473V7.08C9.1382 8.2298 10.0709 9.1619 11.2215 9.1619Z" stroke="currentColor" stroke-linecap="round" stroke-linejoin="round" stroke-width="2"/>
  <path d="M1.6667 13.7762H10.6721M3.75 18.3347H8.7784C9.929 18.3347 10.8618 17.4026 10.8618 16.2527V12.9201C10.8618 11.7703 9.929 10.8381 8.7784 10.8381H3.75C2.5994 10.8381 1.6667 11.7703 1.6667 12.9201V16.2527C1.6667 17.4026 2.5994 18.3347 3.75 18.3347Z" stroke="currentColor" stroke-linecap="round" stroke-linejoin="round" stroke-width="2"/>
</svg>
