<svg xmlns="http://www.w3.org/2000/svg" width="20" height="20" viewBox="0 0 20 20" fill="none">
  <path d="M5.4167 13.3333L4.1667 17.5H1.6667L2.4047 6.4292C2.4637 5.5439 2.9876 4.7562 3.7811 4.3594L7.5 2.5C8.6813 3.8289 11.3187 3.8289 12.5 2.5L16.2188 4.3594C17.0124 4.7562 17.5363 5.5439 17.5953 6.4292L18.3333 17.5H15.8333L14.5833 13.3333" stroke="currentColor" stroke-linecap="round" stroke-linejoin="round" stroke-width="2"/>
  <path d="M5 7.5L5.8333 15.8333 6.6667 17.5H13.3333L14.1667 15.8333 15 7.5" stroke="currentColor" stroke-linecap="round" stroke-linejoin="round" stroke-width="2"/>
  <path d="M7.0833 2.9167C7.0833 2.9167 7.0833 6.1444 9.4124 7.2762 9.747 7.4388 10 7.7565 10 8.1286V17.5" stroke="currentColor" stroke-linecap="round" stroke-linejoin="round" stroke-width="2"/>
  <path d="M12.9167 2.9167C12.9167 2.9167 12.9167 6.6667 10 7.5" stroke="currentColor" stroke-linecap="round" stroke-linejoin="round" stroke-width="2"/>
</svg>
