<svg xmlns="http://www.w3.org/2000/svg" width="20" height="20" viewBox="0 0 20 20" fill="none">
  <path d="M3.5439 16.9183C4.7128 17.9167 6.4752 17.9167 10 17.9167 13.5248 17.9167 15.2872 17.9167 16.456 16.9183 16.622 16.7766 16.7766 16.622 16.9183 16.456 17.9167 15.2872 17.9167 13.5248 17.9167 10 17.9167 6.4752 17.9167 4.7128 16.9183 3.544 16.7766 3.378 16.622 3.2234 16.456 3.0816 15.2872 2.0833 13.5248 2.0833 10 2.0833 6.4752 2.0833 4.7128 2.0833 3.5439 3.0816 3.378 3.2234 3.2234 3.378 3.0816 3.544 2.0833 4.7128 2.0833 6.4752 2.0833 10 2.0833 13.5248 2.0833 15.2872 3.0816 16.456 3.2234 16.622 3.378 16.7766 3.5439 16.9183Z" stroke="currentColor" stroke-linecap="round" stroke-linejoin="round" stroke-width="2"/>
  <path d="M2.5 12.9167H17.5" stroke="currentColor" stroke-linecap="round" stroke-linejoin="round" stroke-width="2"/>
  <path d="M5.9375 15.4167H5.8333M6.0417 15.4167C6.0417 15.5318 5.9484 15.625 5.8333 15.625 5.7183 15.625 5.625 15.5318 5.625 15.4167 5.625 15.3016 5.7183 15.2083 5.8333 15.2083 5.9484 15.2083 6.0417 15.3016 6.0417 15.4167Z" stroke="currentColor" stroke-linecap="round" stroke-linejoin="round" stroke-width="2"/>
  <path d="M9.2708 15.4167H9.1667M9.375 15.4167C9.375 15.5318 9.2818 15.625 9.1667 15.625 9.0516 15.625 8.9583 15.5318 8.9583 15.4167 8.9583 15.3016 9.0516 15.2083 9.1667 15.2083 9.2818 15.2083 9.375 15.3016 9.375 15.4167Z" stroke="currentColor" stroke-linecap="round" stroke-linejoin="round" stroke-width="2"/>
  <path d="M14.1667 7.5L12.9167 7.5 11.25 5.4167 8.75 9.5833 7.0833 7.5H5.8333" stroke="currentColor" stroke-linecap="round" stroke-linejoin="round" stroke-width="2"/>
</svg>
