<svg xmlns="http://www.w3.org/2000/svg" width="20" height="20" viewBox="0 0 20 20" fill="none">
  <path d="M2.5 9.1667C2.5 6.8096 2.5 5.6311 3.2322 4.8989 3.9645 4.1667 5.143 4.1667 7.5 4.1667H9.1667C11.5237 4.1667 12.7022 4.1667 13.4344 4.8989 14.1667 5.6311 14.1667 6.8096 14.1667 9.1667V13.3333C14.1667 15.6903 14.1667 16.8688 13.4344 17.6011 12.7022 18.3333 11.5237 18.3333 9.1667 18.3333H7.5C5.143 18.3333 3.9645 18.3333 3.2322 17.6011 2.5 16.8688 2.5 15.6903 2.5 13.3333V9.1667Z" stroke="currentColor" stroke-width="2"/>
  <path d="M14.1037 15.8333C15.0168 15.3228 15.3274 14.2005 15.9486 11.9558L16.8271 8.7813C17.4483 6.5365 17.7589 5.4141 17.2317 4.5299 16.7044 3.6457 15.5452 3.345 13.227 2.7435L11.5877 2.3182C9.2693 1.7167 8.1102 1.416 7.197 1.9265 6.5469 2.2899 6.2022 2.9636 5.8333 4.1316" stroke="currentColor" stroke-width="2"/>
  <path d="M6.4677 9.3968C7.1381 9.016 7.7232 9.1695 8.0747 9.4139 8.2189 9.5141 8.2909 9.5643 8.3333 9.5643 8.3758 9.5643 8.4478 9.5141 8.5919 9.4139 8.9434 9.1695 9.5286 9.016 10.199 9.3968 11.0788 9.8965 11.2779 11.5451 9.2484 12.936 8.8619 13.2009 8.6687 13.3333 8.3333 13.3333 7.998 13.3333 7.8048 13.2009 7.4182 12.936 5.3888 11.5451 5.5879 9.8965 6.4677 9.3968Z" stroke="currentColor" stroke-linecap="round" stroke-width="2"/>
</svg>
