<svg xmlns="http://www.w3.org/2000/svg" width="20" height="20" viewBox="0 0 20 20" fill="none">
  <path d="M1.6667 13.3333C1.6667 15.1757 1.6667 16.097 2.2516 16.712 2.3451 16.8104 2.4482 16.9014 2.5597 16.9839 3.2567 17.5 4.3008 17.5 6.3889 17.5H6.9444C9.0326 17.5 10.0766 17.5 10.7737 16.9839 10.8851 16.9014 10.9883 16.8104 11.0817 16.712 11.6667 16.097 11.6667 15.1757 11.6667 13.3333 11.6667 11.4909 11.6667 10.5697 11.0817 9.9547 10.9883 9.8563 10.8851 9.7652 10.7737 9.6828 10.0766 9.1667 9.0326 9.1667 6.9444 9.1667H6.3889C4.3008 9.1667 3.2567 9.1667 2.5597 9.6828 2.4482 9.7652 2.3451 9.8563 2.2516 9.9547 1.6667 10.5697 1.6667 11.4909 1.6667 13.3333Z" stroke="currentColor" stroke-linecap="round" stroke-linejoin="round" stroke-width="2"/>
  <path d="M8.3333 6.6667C8.3333 4.8242 8.3333 3.903 8.9183 3.288 9.0118 3.1896 9.1149 3.0986 9.2263 3.0161 9.9234 2.5 10.9674 2.5 13.0556 2.5H13.6111C15.6992 2.5 16.7432 2.5 17.4403 3.0161 17.5518 3.0986 17.6549 3.1896 17.7484 3.288 18.3333 3.903 18.3333 4.8242 18.3333 6.6667 18.3333 8.5091 18.3333 9.4303 17.7484 10.0453 17.6549 10.1438 17.5518 10.2348 17.4403 10.3172 16.808 10.7854 15.8903 10.8289 14.1667 10.8329" stroke="currentColor" stroke-linecap="round" stroke-linejoin="round" stroke-width="2"/>
  <path d="M1.6667 12.5L11.6667 12.5" stroke="currentColor" stroke-linecap="round" stroke-width="2"/>
  <path d="M8.3333 5.8333L18.3333 5.8333" stroke="currentColor" stroke-linecap="round" stroke-width="2"/>
  <path d="M1.6667 7.5C1.6667 4.7357 3.9024 2.5 6.6667 2.5L5.9524 3.9286" stroke="currentColor" stroke-linecap="round" stroke-linejoin="round" stroke-width="2"/>
  <path d="M18.3333 12.5C18.3333 15.2643 16.0976 17.5 13.3333 17.5L14.0476 16.0714" stroke="currentColor" stroke-linecap="round" stroke-linejoin="round" stroke-width="2"/>
</svg>
