<svg xmlns="http://www.w3.org/2000/svg" width="20" height="20" viewBox="0 0 20 20" fill="none">
  <path d="M14.7141 3.8807L14.3985 3.5651C13.4889 2.6556 13.0341 2.2008 12.4617 1.9489 12.4173 1.9294 12.3727 1.9109 12.3275 1.8934 11.7447 1.6667 11.1015 1.6667 9.8152 1.6667 6.8519 1.6667 5.3703 1.6667 4.4145 2.5426 4.3431 2.608 4.2747 2.6765 4.2092 2.7478 3.3333 3.7036 3.3333 5.1852 3.3333 8.1485V11.6667C3.3333 14.8093 3.3333 16.3808 4.3096 17.357 5.286 18.3333 6.8573 18.3333 10 18.3333 13.1427 18.3333 14.7141 18.3333 15.6903 17.357 16.6667 16.3808 16.6667 14.8093 16.6667 11.6667V8.5948C16.6667 7.2323 16.6667 6.551 16.4129 5.9384 16.1592 5.3259 15.6775 4.8441 14.7141 3.8807Z" stroke="currentColor" stroke-linecap="round" stroke-linejoin="round" stroke-width="2"/>
  <path d="M7.1548 14.5118C7.643 15 8.4287 15 10 15 11.5713 15 12.357 15 12.8452 14.5118 13.3333 14.0237 13.3333 13.238 13.3333 11.6667 13.3333 10.0953 13.3333 9.3097 12.8452 8.8215 12.357 8.3333 11.5713 8.3333 10 8.3333 8.4287 8.3333 7.643 8.3333 7.1548 8.8215 6.6667 9.3097 6.6667 10.0953 6.6667 11.6667 6.6667 13.238 6.6667 14.0237 7.1548 14.5118Z" stroke="currentColor" stroke-linecap="round" stroke-linejoin="round" stroke-width="2"/>
  <path d="M10 8.3333V15" stroke="currentColor" stroke-linecap="round" stroke-linejoin="round" stroke-width="2"/>
  <path d="M10 11.6667H13.3333" stroke="currentColor" stroke-linecap="round" stroke-linejoin="round" stroke-width="2"/>
</svg>
