<svg xmlns="http://www.w3.org/2000/svg" width="20" height="20" viewBox="0 0 20 20" fill="none">
  <path d="M2.5 14.1667V10.7404C2.5 9.9571 2.5 9.5654 2.5892 9.1877 2.6783 8.81 2.8535 8.4597 3.2038 7.759L4.0787 6.0093C4.527 5.1128 4.7511 4.6645 5.1538 4.4156 5.5566 4.1667 6.0578 4.1667 7.0601 4.1667H12.9399C13.9422 4.1667 14.4434 4.1667 14.8462 4.4156 15.2489 4.6645 15.4731 5.1128 15.9213 6.0093L16.7962 7.759C17.1465 8.4597 17.3217 8.81 17.4108 9.1877 17.5 9.5654 17.5 9.9571 17.5 10.7404V14.1667C17.5 14.9523 17.5 15.3452 17.2559 15.5893 17.0118 15.8333 16.619 15.8333 15.8333 15.8333 15.0477 15.8333 14.6548 15.8333 14.4108 15.5893 14.1667 15.3452 14.1667 14.9523 14.1667 14.1667H5.8333C5.8333 14.9523 5.8333 15.3452 5.5893 15.5893 5.3452 15.8333 4.9523 15.8333 4.1667 15.8333 3.381 15.8333 2.9882 15.8333 2.7441 15.5893 2.5 15.3452 2.5 14.9523 2.5 14.1667Z" stroke="currentColor" stroke-linecap="round" stroke-linejoin="round" stroke-width="2"/>
  <path d="M17.5 9.1667L19.1667 8.3333" stroke="currentColor" stroke-linecap="round" stroke-linejoin="round" stroke-width="2"/>
  <path d="M2.5 9.1667L0.8333 8.3333" stroke="currentColor" stroke-linecap="round" stroke-linejoin="round" stroke-width="2"/>
  <path d="M2.5 9.1667H17.5" stroke="currentColor" stroke-linecap="round" stroke-linejoin="round" stroke-width="2"/>
  <path d="M5 11.6667H5.8333" stroke="currentColor" stroke-linecap="round" stroke-linejoin="round" stroke-width="2"/>
  <path d="M14.1667 11.6667H15" stroke="currentColor" stroke-linecap="round" stroke-linejoin="round" stroke-width="2"/>
</svg>
