<svg xmlns="http://www.w3.org/2000/svg" width="20" height="20" viewBox="0 0 20 20" fill="none">
  <path d="M1.6667 17.9117C2.7454 17.9916 3.6531 17.0833 4.4444 17.0833 5.2358 17.0833 6.5206 17.9211 7.2222 17.9117 8.0642 17.9188 9.0503 17.0833 10 17.0833 10.9497 17.0833 11.9358 17.9188 12.7777 17.9117 13.8565 17.9916 14.7642 17.0833 15.5556 17.0833 16.3469 17.0833 17.6318 17.9211 18.3333 17.9117" stroke="currentColor" stroke-linecap="round" stroke-linejoin="round" stroke-width="2"/>
  <path d="M5 17.0833C3.8184 15.6113 2.9857 13.7273 2.6311 12.729 2.5187 12.4124 2.4625 12.2542 2.5277 12.1028 2.593 11.9516 2.7531 11.8807 3.0734 11.7388L9.3143 8.9743C9.652 8.8248 9.8208 8.75 10 8.75 10.1792 8.75 10.348 8.8248 10.6857 8.9743L16.9267 11.7388C17.2468 11.8807 17.407 11.9516 17.4722 12.1028 17.5376 12.2542 17.4813 12.4124 17.3689 12.729 17.0143 13.7273 16.1816 15.6113 15 17.0833" stroke="currentColor" stroke-linecap="round" stroke-linejoin="round" stroke-width="2"/>
  <path d="M5 10.8333L5.1799 8.4943C5.2922 7.0343 5.3484 6.3043 5.8276 5.8605 6.3069 5.4167 7.0391 5.4167 8.5034 5.4167H11.4966C12.9609 5.4167 13.6931 5.4167 14.1723 5.8605 14.6516 6.3043 14.7078 7.0343 14.8201 8.4943L15 10.8333" stroke="currentColor" stroke-linecap="round" stroke-linejoin="round" stroke-width="2"/>
  <path d="M7.0833 5.4167L7.2263 4.2733C7.3566 3.2305 7.4218 2.7091 7.7762 2.3962 8.1307 2.0833 8.6561 2.0833 9.7069 2.0833H10.2931C11.3439 2.0833 11.8693 2.0833 12.2238 2.3962 12.5783 2.7091 12.6434 3.2305 12.7737 4.2733L12.9167 5.4167" stroke="currentColor" stroke-linecap="round" stroke-linejoin="round" stroke-width="2"/>
</svg>
