<svg xmlns="http://www.w3.org/2000/svg" width="20" height="20" viewBox="0 0 20 20" fill="none">
  <path d="M13.3333 5.8333C15.2975 5.8333 16.2796 5.8333 16.8898 6.4435 17.5 7.0537 17.5 8.0358 17.5 10 17.5 11.9642 17.5 12.9463 16.8898 13.5565 16.2796 14.1667 15.2975 14.1667 13.3333 14.1667H6.6667C4.7025 14.1667 3.7204 14.1667 3.1102 13.5565 2.5 12.9463 2.5 11.9642 2.5 10 2.5 8.0358 2.5 7.0537 3.1102 6.4435 3.7204 5.8333 4.7025 5.8333 6.6667 5.8333L13.3333 5.8333Z" stroke="currentColor" stroke-linecap="round" stroke-linejoin="round" stroke-width="2"/>
  <path d="M14.1667 1.6667C14.0796 2.1225 13.9256 2.4579 13.6532 2.7231 13.0263 3.3333 12.0176 3.3333 10 3.3333 7.9824 3.3333 6.9736 3.3333 6.3468 2.7231 6.0744 2.4579 5.9204 2.1225 5.8333 1.6667" stroke="currentColor" stroke-linecap="round" stroke-linejoin="round" stroke-width="2"/>
  <path d="M14.1667 18.3333C14.0796 17.8775 13.9256 17.5421 13.6532 17.2768 13.0263 16.6667 12.0176 16.6667 10 16.6667 7.9824 16.6667 6.9736 16.6667 6.3468 17.2768 6.0744 17.5421 5.9204 17.8775 5.8333 18.3333" stroke="currentColor" stroke-linecap="round" stroke-linejoin="round" stroke-width="2"/>
</svg>
