<svg xmlns="http://www.w3.org/2000/svg" width="20" height="20" viewBox="0 0 20 20" fill="none">
  <path d="M5.8333 6.6667C5.8333 4.7025 5.8333 3.7204 6.4435 3.1102 7.0537 2.5 8.0358 2.5 10 2.5 11.9642 2.5 12.9463 2.5 13.5565 3.1102 14.1667 3.7204 14.1667 4.7025 14.1667 6.6667V13.3333C14.1667 15.2975 14.1667 16.2796 13.5565 16.8898 12.9463 17.5 11.9642 17.5 10 17.5 8.0358 17.5 7.0537 17.5 6.4435 16.8898 5.8333 16.2796 5.8333 15.2975 5.8333 13.3333V6.6667Z" stroke="currentColor" stroke-linecap="round" stroke-linejoin="round" stroke-width="2"/>
  <path d="M1.6667 5.8333C2.1225 5.9204 2.4579 6.0744 2.7231 6.3468 3.3333 6.9736 3.3333 7.9824 3.3333 10 3.3333 12.0176 3.3333 13.0263 2.7231 13.6532 2.4579 13.9256 2.1225 14.0796 1.6667 14.1667" stroke="currentColor" stroke-linecap="round" stroke-linejoin="round" stroke-width="2"/>
  <path d="M18.3333 5.8333C17.8775 5.9204 17.5421 6.0744 17.2768 6.3468 16.6667 6.9736 16.6667 7.9824 16.6667 10 16.6667 12.0176 16.6667 13.0263 17.2768 13.6532 17.5421 13.9256 17.8775 14.0796 18.3333 14.1667" stroke="currentColor" stroke-linecap="round" stroke-linejoin="round" stroke-width="2"/>
</svg>
