<svg xmlns="http://www.w3.org/2000/svg" width="20" height="20" viewBox="0 0 20 20" fill="none">
  <path d="M6.8336 7.5628C5.0824 9.314 0.5295 16.6687 1.9304 18.0696 3.3313 19.4705 10.686 14.9176 12.4372 13.1664 14.1883 11.4153 15.239 10.3647 12.4372 7.5628 9.6353 4.761 8.5847 5.8117 6.8336 7.5628Z" stroke="currentColor" stroke-width="2"/>
  <path d="M12.0833 12.9167L10.8333 11.6667" stroke="currentColor" stroke-linecap="round" stroke-linejoin="round" stroke-width="2"/>
  <path d="M5.8333 9.1667L7.0833 10.4167" stroke="currentColor" stroke-linecap="round" stroke-linejoin="round" stroke-width="2"/>
  <path d="M7.5 15.8333L6.6667 15" stroke="currentColor" stroke-linecap="round" stroke-linejoin="round" stroke-width="2"/>
  <path d="M12.5 1.6667C12.9321 2.0988 13.2129 3.0278 12.5001 4.2592M18.3333 7.5C17.9013 7.0679 16.9723 6.787 15.741 7.5M16.0652 3.9349L14.4449 5.5553" stroke="currentColor" stroke-linecap="round" stroke-linejoin="round" stroke-width="2"/>
</svg>
