<svg xmlns="http://www.w3.org/2000/svg" width="20" height="20" viewBox="0 0 20 20" fill="none">
  <path d="M17.5 14.9352V17.0833C17.5 17.4716 17.5 17.6657 17.4366 17.8189 17.352 18.0231 17.1898 18.1853 16.9856 18.2699 16.8324 18.3333 16.6383 18.3333 16.25 18.3333 15.8617 18.3333 15.6676 18.3333 15.5144 18.2699 15.3102 18.1853 15.148 18.0231 15.0634 17.8189 15 17.6657 15 17.4716 15 17.0833 15 16.6951 15 16.5009 14.9366 16.3478 14.852 16.1436 14.6898 15.9813 14.4856 15.8968 14.3324 15.8333 14.1383 15.8333 13.75 15.8333H5.4167C5.0284 15.8333 4.8342 15.8333 4.6811 15.8968 4.4769 15.9813 4.3147 16.1436 4.2301 16.3478 4.1667 16.5009 4.1667 16.6951 4.1667 17.0833 4.1667 17.4716 4.1667 17.6657 4.1032 17.8189 4.0187 18.0231 3.8564 18.1853 3.6522 18.2699 3.4991 18.3333 3.3049 18.3333 2.9167 18.3333 2.5284 18.3333 2.3342 18.3333 2.1811 18.2699 1.9769 18.1853 1.8147 18.0231 1.7301 17.8189 1.6667 17.6657 1.6667 17.4716 1.6667 17.0833V14.9352C1.6667 13.9333 1.6667 13.4323 1.8097 12.96 1.9527 12.4876 2.2306 12.0708 2.7863 11.2372L3.3333 10.4167 4.0844 8.7643C4.7313 7.3411 5.0548 6.6295 5.673 6.2314 6.2912 5.8333 7.0729 5.8333 8.6363 5.8333H10.5304C12.0938 5.8333 12.8755 5.8333 13.4937 6.2314 14.1119 6.6295 14.4353 7.3411 15.0823 8.7643L15.8333 10.4167 16.3803 11.2372C16.9361 12.0708 17.2139 12.4876 17.357 12.96 17.5 13.4323 17.5 13.9333 17.5 14.9352Z" stroke="currentColor" stroke-linecap="round" stroke-linejoin="round" stroke-width="2"/>
  <path d="M1.6667 9.1667L3.3333 10.4167 4.801 10.7836C4.9332 10.8166 5.0689 10.8333 5.2052 10.8333H13.9615C14.0978 10.8333 14.2335 10.8166 14.3658 10.7836L15.8333 10.4167 17.5 9.1667" stroke="currentColor" stroke-linecap="round" stroke-linejoin="round" stroke-width="2"/>
  <path d="M15.8333 5.8333C15.8333 4.9129 15.0872 4.1667 14.1667 4.1667" stroke="currentColor" stroke-linecap="round" stroke-linejoin="round" stroke-width="2"/>
  <path d="M18.3333 5.8333C18.3333 3.5322 16.4678 1.6667 14.1667 1.6667" stroke="currentColor" stroke-linecap="round" stroke-linejoin="round" stroke-width="2"/>
  <path d="M5.1042 13.3333H5M5.2083 13.3333C5.2083 13.4484 5.1151 13.5417 5 13.5417 4.8849 13.5417 4.7917 13.4484 4.7917 13.3333 4.7917 13.2183 4.8849 13.125 5 13.125 5.1151 13.125 5.2083 13.2183 5.2083 13.3333Z" stroke="currentColor" stroke-linecap="round" stroke-linejoin="round" stroke-width="2"/>
  <path d="M14.2708 13.3333H14.1667M14.375 13.3333C14.375 13.4484 14.2818 13.5417 14.1667 13.5417 14.0516 13.5417 13.9583 13.4484 13.9583 13.3333 13.9583 13.2183 14.0516 13.125 14.1667 13.125 14.2818 13.125 14.375 13.2183 14.375 13.3333Z" stroke="currentColor" stroke-linecap="round" stroke-linejoin="round" stroke-width="2"/>
</svg>
