<svg xmlns="http://www.w3.org/2000/svg" width="20" height="20" viewBox="0 0 20 20" fill="none">
  <path d="M5.4167 14.1667C7.0275 14.1667 8.3333 12.8608 8.3333 11.25 8.3333 9.6392 7.0275 8.3333 5.4167 8.3333 3.8058 8.3333 2.5 9.6392 2.5 11.25 2.5 12.8608 3.8058 14.1667 5.4167 14.1667Z" stroke="currentColor" stroke-linecap="round" stroke-linejoin="round" stroke-width="2"/>
  <path d="M14.5833 14.1667C16.1942 14.1667 17.5 12.8608 17.5 11.25 17.5 9.6392 16.1942 8.3333 14.5833 8.3333 12.9725 8.3333 11.6667 9.6392 11.6667 11.25 11.6667 12.8608 12.9725 14.1667 14.5833 14.1667Z" stroke="currentColor" stroke-linecap="round" stroke-linejoin="round" stroke-width="2"/>
  <path d="M8.3333 8.3333V14.1667" stroke="currentColor" stroke-linecap="round" stroke-linejoin="round" stroke-width="2"/>
  <path d="M11.6667 5.8333V14.1667" stroke="currentColor" stroke-linecap="round" stroke-linejoin="round" stroke-width="2"/>
</svg>
