<svg xmlns="http://www.w3.org/2000/svg" width="20" height="20" viewBox="0 0 20 20" fill="none">
  <path d="M17.9167 8.3333V14.1667M17.9167 11.25C17.9167 12.8608 16.6108 14.1667 15 14.1667 13.3892 14.1667 12.0833 12.8608 12.0833 11.25 12.0833 9.6392 13.3892 8.3333 15 8.3333 16.6108 8.3333 17.9167 9.6392 17.9167 11.25Z" stroke="currentColor" stroke-linecap="round" stroke-linejoin="round" stroke-width="2"/>
  <path d="M4.2728 8.4156L4.8569 8.6379V8.6379L4.2728 8.4156ZM1.4992 13.9443C1.3764 14.2669 1.5384 14.628 1.861 14.7508 2.1836 14.8736 2.5446 14.7117 2.6674 14.389L2.0833 14.1667 1.4992 13.9443ZM8.9992 14.389C9.122 14.7117 9.4831 14.8736 9.8057 14.7508 10.1283 14.628 10.2903 14.2669 10.1674 13.9443L9.5833 14.1667 8.9992 14.389ZM7.3939 8.4156L6.8098 8.6379V8.6379L7.3939 8.4156ZM3.3333 11.0417C2.9882 11.0417 2.7083 11.3215 2.7083 11.6667 2.7083 12.0118 2.9882 12.2917 3.3333 12.2917V11.6667 11.0417ZM8.3333 12.2917C8.6785 12.2917 8.9583 12.0118 8.9583 11.6667 8.9583 11.3215 8.6785 11.0417 8.3333 11.0417V11.6667 12.2917ZM4.2728 8.4156L3.6887 8.1932 1.4992 13.9443 2.0833 14.1667 2.6674 14.389 4.8569 8.6379 4.2728 8.4156ZM9.5833 14.1667L10.1674 13.9443 7.978 8.1932 7.3939 8.4156 6.8098 8.6379 8.9992 14.389 9.5833 14.1667ZM4.2728 8.4156L4.8569 8.6379C5.192 7.7578 5.4202 7.1624 5.6303 6.7794 5.8571 6.3658 5.9246 6.4583 5.8333 6.4583V5.8333 5.2083C5.1646 5.2083 4.7795 5.7313 4.5343 6.1784 4.2723 6.6561 4.009 7.3518 3.6887 8.1932L4.2728 8.4156ZM7.3939 8.4156L7.978 8.1932C7.6577 7.3518 7.3944 6.6561 7.1324 6.1784 6.8872 5.7313 6.5021 5.2083 5.8333 5.2083V5.8333 6.4583C5.7421 6.4583 5.8096 6.3658 6.0364 6.7794 6.2465 7.1624 6.4747 7.7578 6.8098 8.6379L7.3939 8.4156ZM3.3333 11.6667V12.2917H8.3333V11.6667 11.0417H3.3333V11.6667Z" fill="currentColor"/>
</svg>
