<svg xmlns="http://www.w3.org/2000/svg" width="20" height="20" viewBox="0 0 20 20" fill="none">
  <path d="M15.4167 5.8333H13.75C13.3617 5.8333 13.1676 5.8333 13.0144 5.8968 12.8102 5.9813 12.648 6.1436 12.5634 6.3478 12.5 6.5009 12.5 6.6951 12.5 7.0833V10H15.4167C16.5673 10 17.5 9.0672 17.5 7.9167 17.5 6.7661 16.5673 5.8333 15.4167 5.8333Z" stroke="currentColor" stroke-linecap="round" stroke-linejoin="round" stroke-width="2"/>
  <path d="M16.25 10H12.5V13C12.5 13.3103 12.5 13.4653 12.5408 13.5908 12.6233 13.8446 12.8221 14.0434 13.0758 14.1259 13.2013 14.1667 13.3564 14.1667 13.6667 14.1667H16.25C17.4006 14.1667 18.3333 13.2339 18.3333 12.0833 18.3333 10.9328 17.4006 10 16.25 10Z" stroke="currentColor" stroke-linecap="round" stroke-linejoin="round" stroke-width="2"/>
  <path d="M3.8561 8.4156L4.4402 8.6379V8.6379L3.8561 8.4156ZM1.0826 13.9443C0.9597 14.2669 1.1217 14.628 1.4443 14.7508 1.7669 14.8736 2.128 14.7117 2.2508 14.389L1.6667 14.1667 1.0826 13.9443ZM8.5826 14.389C8.7053 14.7117 9.0664 14.8736 9.389 14.7508 9.7117 14.628 9.8736 14.2669 9.7508 13.9443L9.1667 14.1667 8.5826 14.389ZM6.9772 8.4156L6.3931 8.6379V8.6379L6.9772 8.4156ZM2.9167 11.0417C2.5715 11.0417 2.2917 11.3215 2.2917 11.6667 2.2917 12.0118 2.5715 12.2917 2.9167 12.2917V11.6667 11.0417ZM7.9167 12.2917C8.2618 12.2917 8.5417 12.0118 8.5417 11.6667 8.5417 11.3215 8.2618 11.0417 7.9167 11.0417V11.6667 12.2917ZM3.8561 8.4156L3.272 8.1932 1.0826 13.9443 1.6667 14.1667 2.2508 14.389 4.4402 8.6379 3.8561 8.4156ZM9.1667 14.1667L9.7508 13.9443 7.5613 8.1932 6.9772 8.4156 6.3931 8.6379 8.5826 14.389 9.1667 14.1667ZM3.8561 8.4156L4.4402 8.6379C4.7753 7.7578 5.0035 7.1624 5.2136 6.7794 5.4405 6.3658 5.5079 6.4583 5.4167 6.4583V5.8333 5.2083C4.7479 5.2083 4.3628 5.7313 4.1176 6.1784 3.8556 6.6561 3.5923 7.3518 3.272 8.1932L3.8561 8.4156ZM6.9772 8.4156L7.5613 8.1932C7.241 7.3518 6.9777 6.6561 6.7157 6.1784 6.4705 5.7313 6.0854 5.2083 5.4167 5.2083V5.8333 6.4583C5.3254 6.4583 5.3929 6.3658 5.6197 6.7794 5.8298 7.1624 6.0581 7.7578 6.3931 8.6379L6.9772 8.4156ZM2.9167 11.6667V12.2917H7.9167V11.6667 11.0417H2.9167V11.6667Z" fill="currentColor"/>
</svg>
