<svg xmlns="http://www.w3.org/2000/svg" width="20" height="20" viewBox="0 0 20 20" fill="none">
  <path d="M13.8889 11.6667L6.1111 11.6667C4.2893 11.6667 3.3784 11.6667 2.7327 12.1188 2.4938 12.2861 2.2861 12.4938 2.1188 12.7327 1.6667 13.3784 1.6667 14.2893 1.6667 16.1111 1.6667 17.022 1.6667 17.4774 1.8927 17.8003 1.9764 17.9198 2.0803 18.0237 2.1997 18.1073 2.5225 18.3333 2.978 18.3333 3.8889 18.3333L16.1111 18.3333C17.022 18.3333 17.4774 18.3333 17.8003 18.1073 17.9198 18.0237 18.0237 17.9198 18.1073 17.8003 18.3333 17.4774 18.3333 17.022 18.3333 16.1111 18.3333 14.2893 18.3333 13.3784 17.8813 12.7327 17.7139 12.4938 17.5062 12.2861 17.2673 12.1188 16.6216 11.6667 15.7107 11.6667 13.8889 11.6667Z" stroke="currentColor" stroke-linecap="round" stroke-width="2"/>
  <path d="M16.6667 11.6667L16.3275 8.6145C16.0925 6.4989 15.9749 5.441 15.263 4.8038 14.5512 4.1667 13.4868 4.1667 11.3581 4.1667L8.6419 4.1667C6.5132 4.1667 5.4489 4.1667 4.737 4.8038 4.0251 5.441 3.9075 6.4989 3.6725 8.6145L3.3333 11.6667" stroke="currentColor" stroke-linecap="round" stroke-width="2"/>
  <path d="M9.5833 1.6667H11.6667M13.75 1.6667H11.6667M11.6667 1.6667V4.1667" stroke="currentColor" stroke-linecap="round" stroke-width="2"/>
  <path d="M7.5 14.5833L8.3301 15.1368C8.6039 15.3193 8.9256 15.4167 9.2547 15.4167H10.7453C11.0744 15.4167 11.3961 15.3193 11.6698 15.1368L12.5 14.5833" stroke="currentColor" stroke-linecap="round" stroke-width="2"/>
  <path d="M6.6667 6.6667H8.3333" stroke="currentColor" stroke-linecap="round" stroke-width="2"/>
</svg>
