<svg xmlns="http://www.w3.org/2000/svg" width="20" height="20" viewBox="0 0 20 20" fill="none">
  <path d="M1.6667 10C1.6667 14.6023 5.3976 18.3333 10 18.3333 14.6023 18.3333 18.3333 14.6023 18.3333 10 18.3333 5.3976 14.6023 1.6667 10 1.6667 6.5828 1.6667 3.646 3.7235 2.3601 6.6667M1.6667 3.75L2.0833 7.0833 5.4167 6.25" stroke="currentColor" stroke-linecap="round" stroke-linejoin="round" stroke-width="2"/>
  <path d="M10.4167 10C9.2661 10 8.3333 9.0672 8.3333 7.9167 8.3333 6.7661 9.2661 5.8333 10.4167 5.8333 11.5672 5.8333 12.5 6.7661 12.5 7.9167M10.4167 10C9.5833 12.0833 7.5 13.3333 7.5 13.3333H11.3215C12.0761 13.3333 12.7998 13.0336 13.3333 12.5M10.4167 10H7.5M10.4167 10H11.6667" stroke="currentColor" stroke-linecap="round" stroke-linejoin="round" stroke-width="2"/>
</svg>
