<svg xmlns="http://www.w3.org/2000/svg" width="20" height="20" viewBox="0 0 20 20" fill="none">
  <path d="M12.0832 8.7499C12.0832 9.9005 11.1504 10.8333 9.9998 10.8333 8.8492 10.8333 7.9165 9.9005 7.9165 8.7499 7.9165 7.5993 8.8492 6.6666 9.9998 6.6666 11.1504 6.6666 12.0832 7.5993 12.0832 8.7499Z" stroke="currentColor" stroke-linecap="round" stroke-linejoin="round" stroke-width="2"/>
  <path d="M13.3333 2.9167C15.3995 2.9167 16.8253 3.2368 17.6107 3.4803 18.063 3.6204 18.3333 4.0491 18.3333 4.5225V12.6519C18.3333 13.5812 17.3099 14.2803 16.3968 14.1079 15.6134 13.96 14.5922 13.8412 13.3333 13.8412 9.3742 13.8412 8.4247 15.3459 2.6207 14.066 2.0605 13.9425 1.6667 13.4388 1.6667 12.8652V4.5176C1.6667 3.7044 2.434 3.1114 3.2317 3.2697 8.4973 4.3146 9.5174 2.9167 13.3333 2.9167Z" stroke="currentColor" stroke-linecap="round" stroke-linejoin="round" stroke-width="2"/>
  <path d="M1.6667 6.25C3.2928 6.25 4.754 4.9209 4.9408 3.5451M15.4171 3.3333C15.4171 5.033 16.8879 6.6408 18.3333 6.6408M18.3333 11.25C16.7508 11.25 15.2168 12.3418 15.085 13.8319M5.0004 14.1634C5.0004 12.3225 3.508 10.8301 1.6671 10.8301" stroke="currentColor" stroke-linecap="round" stroke-linejoin="round" stroke-width="2"/>
  <path d="M15.8333 16.4441C15.1431 16.3304 14.3098 16.25 13.3338 16.25 9.7551 16.25 8.6353 17.6332 4.1667 16.8356" stroke="currentColor" stroke-linecap="round" stroke-linejoin="round" stroke-width="2"/>
</svg>
