<svg xmlns="http://www.w3.org/2000/svg" width="20" height="20" viewBox="0 0 20 20" fill="none">
  <path d="M1.6809 11.25C3.5139 11.25 4.9998 12.7359 4.9998 14.5689" stroke="currentColor" stroke-linecap="round" stroke-linejoin="round" stroke-width="2"/>
  <path d="M15 14.5689V14.4923C15 12.7017 16.4517 11.25 18.2423 11.25" stroke="currentColor" stroke-linecap="round" stroke-linejoin="round" stroke-width="2"/>
  <path d="M4.9998 2.9297C4.9998 4.7627 3.5139 6.2486 1.6809 6.2486" stroke="currentColor" stroke-linecap="round" stroke-linejoin="round" stroke-width="2"/>
  <path d="M15 2.9297C15 4.7466 16.4742 6.2225 18.2853 6.2482" stroke="currentColor" stroke-linecap="round" stroke-linejoin="round" stroke-width="2"/>
  <path d="M13.3333 2.9167H6.6667C4.3096 2.9167 3.1311 2.9167 2.3989 3.6489 1.6667 4.3811 1.6667 5.5596 1.6667 7.9167V9.5833C1.6667 11.9403 1.6667 13.1188 2.3989 13.8511 3.1311 14.5833 4.3096 14.5833 6.6667 14.5833H13.3333C15.6903 14.5833 16.8688 14.5833 17.6011 13.8511 18.3333 13.1188 18.3333 11.9403 18.3333 9.5833V7.9167C18.3333 5.5596 18.3333 4.3811 17.6011 3.6489 16.8688 2.9167 15.6903 2.9167 13.3333 2.9167Z" stroke="currentColor" stroke-linecap="round" stroke-linejoin="round" stroke-width="2"/>
  <path d="M4.1667 17.0833H15.8333" stroke="currentColor" stroke-linecap="round" stroke-linejoin="round" stroke-width="2"/>
  <path d="M12.5 8.75C12.5 10.1308 11.3808 11.25 10 11.25 8.6193 11.25 7.5 10.1308 7.5 8.75 7.5 7.3693 8.6193 6.25 10 6.25 11.3808 6.25 12.5 7.3693 12.5 8.75Z" stroke="currentColor" stroke-linecap="round" stroke-linejoin="round" stroke-width="2"/>
</svg>
