<svg xmlns="http://www.w3.org/2000/svg" width="20" height="20" viewBox="0 0 20 20" fill="none">
  <path d="M2.0833 14.5833C2.0833 16.1547 2.0833 16.9403 2.5715 17.4285 3.0596 17.9167 3.8453 17.9167 5.4167 17.9167H14.5833C16.1547 17.9167 16.9403 17.9167 17.4285 17.4285 17.9167 16.9403 17.9167 16.1547 17.9167 14.5833" stroke="currentColor" stroke-linejoin="round" stroke-width="2"/>
  <path d="M8.3333 16.25H11.6667" stroke="currentColor" stroke-linecap="round" stroke-linejoin="round" stroke-width="2"/>
  <path d="M13.75 4.5833V7.0833M12.5 4.5833H15C15.3883 4.5833 15.5824 4.5833 15.7356 4.5199 15.9398 4.4353 16.102 4.2731 16.1866 4.0689 16.25 3.9158 16.25 3.7216 16.25 3.3333 16.25 2.9451 16.25 2.7509 16.1866 2.5978 16.102 2.3936 15.9398 2.2313 15.7356 2.1468 15.5824 2.0833 15.3883 2.0833 15 2.0833H12.5C12.1118 2.0833 11.9176 2.0833 11.7644 2.1468 11.5602 2.2313 11.398 2.3936 11.3134 2.5978 11.25 2.7509 11.25 2.9451 11.25 3.3333 11.25 3.7216 11.25 3.9158 11.3134 4.0689 11.398 4.2731 11.5602 4.4353 11.7644 4.5199 11.9176 4.5833 12.1118 4.5833 12.5 4.5833Z" stroke="currentColor" stroke-linecap="round" stroke-linejoin="round" stroke-width="2"/>
  <path d="M17.9167 14.5833H2.0833L3.17 9.6936C3.448 8.4422 3.5871 7.8165 4.0441 7.4499 4.5011 7.0833 5.142 7.0833 6.4239 7.0833H13.5761C14.858 7.0833 15.4989 7.0833 15.9559 7.4499 16.4129 7.8165 16.552 8.4422 16.8301 9.6936L17.9167 14.5833Z" stroke="currentColor" stroke-linejoin="round" stroke-width="2"/>
  <path d="M6.25 9.5833H6.6667M9.7917 9.5833H10.2083M13.3333 9.5833H13.75" stroke="currentColor" stroke-linecap="round" stroke-linejoin="round" stroke-width="2"/>
  <path d="M6.25 12.0833H6.6667M9.7917 12.0833H10.2083M13.3333 12.0833H13.75" stroke="currentColor" stroke-linecap="round" stroke-linejoin="round" stroke-width="2"/>
</svg>
