<svg xmlns="http://www.w3.org/2000/svg" width="20" height="20" viewBox="0 0 20 20" fill="none">
  <path d="M1.6667 10C1.6667 14.6023 5.3976 18.3333 10 18.3333 14.6023 18.3333 18.3333 14.6023 18.3333 10 18.3333 5.3976 14.6023 1.6667 10 1.6667 6.5828 1.6667 3.646 3.7235 2.3601 6.6667M1.6667 3.75L2.0833 7.0833 5.4167 6.25" stroke="currentColor" stroke-linecap="round" stroke-linejoin="round" stroke-width="2"/>
  <path d="M13.3333 6.8815C12.7375 6.4826 12.0209 6.25 11.25 6.25 9.1789 6.25 7.5 7.9289 7.5 10 7.5 12.0711 9.1789 13.75 11.25 13.75 12.0209 13.75 12.7375 13.5174 13.3333 13.1185M6.25 8.75H10.4167M10.4167 11.25H6.25" stroke="currentColor" stroke-linecap="round" stroke-linejoin="round" stroke-width="2"/>
</svg>
