<svg xmlns="http://www.w3.org/2000/svg" width="20" height="20" viewBox="0 0 20 20" fill="none">
  <path d="M1.6667 10C1.6667 14.6023 5.3976 18.3333 10 18.3333 14.6023 18.3333 18.3333 14.6023 18.3333 10 18.3333 5.3976 14.6023 1.6667 10 1.6667 6.5828 1.6667 3.646 3.7235 2.3601 6.6667M1.6667 3.75L2.0833 7.0833 5.4167 6.25" stroke="currentColor" stroke-linecap="round" stroke-linejoin="round" stroke-width="2"/>
  <path d="M8.75 10H11.875C12.6804 10 13.3333 10.6529 13.3333 11.4583 13.3333 12.2637 12.6804 12.9167 11.875 12.9167H8.75M8.75 10V12.9167M8.75 10H11.4583C12.2637 10 12.9167 9.3471 12.9167 8.5417 12.9167 7.7363 12.2637 7.0833 11.4583 7.0833H8.75M8.75 10V7.0833M8.75 12.9167H7.5M8.75 12.9167V14.1667M8.75 7.0833H7.5M8.75 7.0833V5.8333M11.25 7.0833V5.8333M11.25 12.9167V14.1667" stroke="currentColor" stroke-linecap="round" stroke-linejoin="round" stroke-width="2"/>
</svg>
