<svg xmlns="http://www.w3.org/2000/svg" width="20" height="20" viewBox="0 0 20 20" fill="none">
  <path d="M1.6667 10C1.6667 14.6023 5.3976 18.3333 10 18.3333 14.6023 18.3333 18.3333 14.6023 18.3333 10 18.3333 5.3976 14.6023 1.6667 10 1.6667 6.5828 1.6667 3.646 3.7235 2.3601 6.6667M1.6667 3.75L2.0833 7.0833 5.4167 6.25" stroke="currentColor" stroke-linecap="round" stroke-linejoin="round" stroke-width="2"/>
  <path d="M12.2714 8.3836C12.189 7.748 11.4607 6.7212 10.151 6.7212 8.6293 6.7211 7.9889 7.5656 7.859 7.9878 7.6563 8.5525 7.6968 9.7136 9.4805 9.8402 11.7102 9.9985 12.6033 10.2622 12.4898 11.6293 12.3761 12.9964 11.1333 13.2918 10.151 13.2601 9.1687 13.2285 7.5617 12.7764 7.4993 11.5604M9.9951 5.416V6.7242M9.9951 13.2519V14.5827" stroke="currentColor" stroke-linecap="round" stroke-width="2"/>
</svg>
