<svg xmlns="http://www.w3.org/2000/svg" width="20" height="20" viewBox="0 0 20 20" fill="none">
  <path d="M15.9546 18.3333L14.4938 8.3166C14.3758 7.507 14.3168 7.1021 14.4437 6.7289 14.7088 5.9499 15.5403 5.6532 15.9267 4.9845 15.9837 4.886 16.0121 4.7747 16.0688 4.5521L16.5409 2.7021C16.6626 2.2255 16.7234 1.9872 16.5957 1.8269 16.468 1.6667 16.2172 1.6667 15.7157 1.6667H14.8292C14.2713 1.6667 14.2465 1.6831 14.0393 2.1905L13.6165 3.2262C13.4093 3.7336 13.3846 3.75 12.8267 3.75H12.3987C11.8253 3.75 11.6796 3.6438 11.5645 3.0801L11.4128 2.3366C11.2977 1.7729 11.1519 1.6667 10.5786 1.6667H9.4214C8.8481 1.6667 8.7023 1.7729 8.5873 2.3366L8.4355 3.0801C8.3204 3.6438 8.1746 3.75 7.6013 3.75H7.1733C6.6155 3.75 6.5907 3.7336 6.3835 3.2262L5.9606 2.1905C5.7535 1.6831 5.7287 1.6667 5.1708 1.6667H4.2843C3.7828 1.6667 3.532 1.6667 3.4043 1.8269 3.2766 1.9872 3.3374 2.2255 3.459 2.7021L3.9312 4.5521C3.988 4.7747 4.0164 4.886 4.0733 4.9845 4.4598 5.6532 5.2912 5.9499 5.5563 6.7289 5.6833 7.1021 5.6242 7.507 5.5061 8.3166L4.0455 18.3333" stroke="currentColor" stroke-linecap="round" stroke-linejoin="round" stroke-width="2"/>
  <path d="M7.5 18.3333L8.0065 15.8009C8.1261 15.2028 8.1859 14.9038 8.3462 14.6827 8.7446 14.1335 9.3843 14.1667 10 14.1667 10.6157 14.1667 11.2554 14.1335 11.6538 14.6827 11.8141 14.9038 11.8739 15.2028 11.9935 15.8009L12.5 18.3333" stroke="currentColor" stroke-linecap="round" stroke-linejoin="round" stroke-width="2"/>
  <path d="M2.5 18.3333H17.5" stroke="currentColor" stroke-linecap="round" stroke-linejoin="round" stroke-width="2"/>
  <path d="M5.8333 6.6667H14.1667" stroke="currentColor" stroke-linecap="round" stroke-linejoin="round" stroke-width="2"/>
  <path d="M12.5 9.1667L14.1667 9.1667" stroke="currentColor" stroke-linecap="round" stroke-linejoin="round" stroke-width="2"/>
  <path d="M5.8333 10.8333H7.5" stroke="currentColor" stroke-linecap="round" stroke-linejoin="round" stroke-width="2"/>
</svg>
