<svg xmlns="http://www.w3.org/2000/svg" width="20" height="20" viewBox="0 0 20 20" fill="none">
  <path d="M15.4394 4.6197L10.7758 1.8779C10.5407 1.7396 10.2728 1.6667 10 1.6667 9.7272 1.6667 9.4593 1.7396 9.2242 1.8779L4.5606 4.6197C3.758 5.0916 3.3567 5.3276 3.1367 5.7121 2.9167 6.0967 2.9167 6.5622 2.9167 7.4932V12.5068C2.9167 13.4378 2.9167 13.9033 3.1367 14.2879 3.3567 14.6724 3.758 14.9084 4.5606 15.3803L9.2242 18.1222C9.4593 18.2604 9.7272 18.3333 10 18.3333 10.2728 18.3333 10.5407 18.2604 10.7758 18.1222L15.4394 15.3803C16.242 14.9084 16.6433 14.6724 16.8633 14.2879 17.0833 13.9033 17.0833 13.4378 17.0833 12.5068V7.4932C17.0833 6.5622 17.0833 6.0967 16.8633 5.7121 16.6433 5.3276 16.242 5.0916 15.4394 4.6197Z" stroke="currentColor" stroke-linecap="round" stroke-linejoin="round" stroke-width="2"/>
  <path d="M14.1667 10.4167V11.25M12.5 9.5833V11.6667M10.8333 12.0833V8.3333M9.1667 7.9167V11.6667M7.5 8.75V12.9167M5.8333 9.5833V11.25M7.9167 10H8.75M9.5833 10.4167H10.4167M6.25 10.4167H7.0833" stroke="currentColor" stroke-linecap="round" stroke-linejoin="round" stroke-width="2"/>
</svg>
