<svg xmlns="http://www.w3.org/2000/svg" width="20" height="20" viewBox="0 0 20 20" fill="none">
  <path d="M6.6667 17.5C6.6667 15.1988 4.8012 13.3333 2.5 13.3333" stroke="currentColor" stroke-linecap="round" stroke-linejoin="round" stroke-width="2"/>
  <path d="M10 17.5C10 13.3578 6.6421 10 2.5 10" stroke="currentColor" stroke-linecap="round" stroke-linejoin="round" stroke-width="2"/>
  <path d="M2.7083 17.1875V17.2917M2.9167 17.2917C2.9167 17.4068 2.8234 17.5 2.7083 17.5 2.5933 17.5 2.5 17.4068 2.5 17.2917 2.5 17.1766 2.5933 17.0833 2.7083 17.0833 2.8234 17.0833 2.9167 17.1766 2.9167 17.2917Z" stroke="currentColor" stroke-linecap="round" stroke-linejoin="round" stroke-width="2"/>
  <path d="M13.3333 17.5C14.1078 17.5 14.495 17.5 14.817 17.4359 16.1393 17.1729 17.1729 16.1393 17.4359 14.817 17.5 14.495 17.5 14.1078 17.5 13.3333V9.1667C17.5 6.024 17.5 4.4526 16.5237 3.4763 15.5474 2.5 13.976 2.5 10.8333 2.5H6.6667C5.8922 2.5 5.505 2.5 5.183 2.564 3.8607 2.8271 2.8271 3.8607 2.564 5.183 2.5 5.505 2.5 5.8922 2.5 6.6667" stroke="currentColor" stroke-linecap="round" stroke-linejoin="round" stroke-width="2"/>
</svg>
