<svg xmlns="http://www.w3.org/2000/svg" width="20" height="20" viewBox="0 0 20 20" fill="none">
  <path d="M6.0699 8.0915L5.7171 7.406C5.5764 7.1327 5.5061 6.9961 5.4008 6.8973 5.3142 6.816 5.211 6.7537 5.0982 6.7144 4.9609 6.6667 4.8051 6.6667 4.4935 6.6667 4.0355 6.6667 3.8065 6.6667 3.6278 6.7543 3.4816 6.826 3.3596 6.9376 3.2764 7.0758 3.1747 7.2448 3.1584 7.4693 3.1258 7.9183L2.5635 15.6553C2.4723 16.9097 2.4268 17.537 2.804 17.9352 3.1812 18.3333 3.8211 18.3333 5.1007 18.3333H14.8993C16.1789 18.3333 16.8188 18.3333 17.196 17.9352 17.5733 17.537 17.5277 16.9097 17.4365 15.6553L16.8742 7.9183C16.8416 7.4693 16.8253 7.2448 16.7236 7.0758 16.6404 6.9376 16.5184 6.826 16.3723 6.7543 16.1935 6.6667 15.9645 6.6667 15.5065 6.6667 15.1949 6.6667 15.0391 6.6667 14.9018 6.7144 14.789 6.7537 14.6858 6.816 14.5993 6.8973 14.4939 6.9961 14.4236 7.1327 14.2829 7.406L13.9301 8.0915C13.8298 8.2862 13.7797 8.3835 13.7122 8.4606 13.5975 8.5914 13.4443 8.6841 13.2737 8.7256 13.1733 8.75 13.0623 8.75 12.8403 8.75 12.5922 8.75 12.4682 8.75 12.3585 8.7206 12.1719 8.6705 12.0084 8.5593 11.8951 8.4053 11.8284 8.3148 11.7847 8.2008 11.6973 7.9726L11.5961 7.7083C11.4102 7.2234 11.3174 6.9809 11.1218 6.8355 11.1028 6.8213 11.0831 6.8079 11.0628 6.7953 10.8554 6.6667 10.5918 6.6667 10.0645 6.6667H9.9355C9.4082 6.6667 9.1446 6.6667 8.9373 6.7953 8.9169 6.8079 8.8973 6.8213 8.8782 6.8355 8.6826 6.9809 8.5898 7.2234 8.4039 7.7083L8.3027 7.9726C8.2153 8.2008 8.1716 8.3148 8.1049 8.4053 7.9916 8.5593 7.828 8.6705 7.6415 8.7206 7.5318 8.75 7.4078 8.75 7.1597 8.75 6.9377 8.75 6.8267 8.75 6.7264 8.7256 6.5557 8.6841 6.4025 8.5914 6.2877 8.4606 6.2203 8.3835 6.1702 8.2862 6.0699 8.0915Z" stroke="currentColor" stroke-linecap="round" stroke-linejoin="round" stroke-width="2"/>
  <path d="M10 4.1667C11.2425 4.7363 13.3333 3.75 13.3333 1.6667 11.9648 2.1857 11.2588 2.1785 10 1.6667V4.1667ZM10 4.1667V6.6667" stroke="currentColor" stroke-linecap="round" stroke-linejoin="round" stroke-width="2"/>
  <path d="M7.5 18.3333L8.0065 15.8009C8.1261 15.2028 8.1859 14.9038 8.3462 14.6827 8.7446 14.1335 9.3843 14.1667 10 14.1667 10.6157 14.1667 11.2554 14.1335 11.6538 14.6827 11.8141 14.9038 11.8739 15.2028 11.9935 15.8009L12.5 18.3333" stroke="currentColor" stroke-linecap="round" stroke-linejoin="round" stroke-width="2"/>
  <path d="M9.1667 11.6667H10.8333" stroke="currentColor" stroke-linecap="round" stroke-linejoin="round" stroke-width="2"/>
</svg>
