<svg xmlns="http://www.w3.org/2000/svg" width="20" height="20" viewBox="0 0 20 20" fill="none">
  <path d="M13.125 3.3333H6.875C6.2898 3.3333 5.9972 3.3333 5.787 3.4738 5.696 3.5346 5.6179 3.6127 5.5571 3.7037 5.4167 3.9139 5.4167 4.2065 5.4167 4.7917 5.4167 5.3769 5.4167 5.6695 5.5571 5.8796 5.6179 5.9706 5.696 6.0488 5.787 6.1096 5.9972 6.25 6.2898 6.25 6.875 6.25H13.125C13.7102 6.25 14.0028 6.25 14.213 6.1096 14.304 6.0488 14.3821 5.9706 14.4429 5.8796 14.5833 5.6695 14.5833 5.3769 14.5833 4.7917 14.5833 4.2065 14.5833 3.9139 14.4429 3.7037 14.3821 3.6127 14.304 3.5346 14.213 3.4738 14.0028 3.3333 13.7102 3.3333 13.125 3.3333Z" stroke="currentColor" stroke-linecap="round" stroke-width="2"/>
  <path d="M12.5 18.3333L11.9407 14.9773C11.8461 14.4096 11.7988 14.1258 11.6611 13.9103 11.5258 13.6985 11.3297 13.5323 11.0984 13.4337 10.8633 13.3333 10.5756 13.3333 10 13.3333 9.4244 13.3333 9.1367 13.3333 8.9016 13.4337 8.6703 13.5323 8.4743 13.6985 8.3389 13.9103 8.2013 14.1258 8.154 14.4096 8.0593 14.9773L7.5 18.3333" stroke="currentColor" stroke-linecap="round" stroke-width="2"/>
  <path d="M13.3333 6.25H6.6667L5 18.3333H15L13.3333 6.25Z" stroke="currentColor" stroke-linecap="round" stroke-width="2"/>
  <path d="M14.8279 18.3333C16.6009 18.3333 17.4874 18.3333 17.9854 17.7645 18.4833 17.1958 18.3662 16.317 18.1318 14.5594L17.9097 12.8927C17.5547 10.2303 16.7438 10 14.1667 10" stroke="currentColor" stroke-linecap="round" stroke-width="2"/>
  <path d="M5.1723 18.3333C3.3992 18.3333 2.5126 18.3333 2.0146 17.7645 1.5167 17.1958 1.6338 16.317 1.8682 14.5594L2.0904 12.8927C2.4444 10.2378 3.2478 10 5.8333 10" stroke="currentColor" stroke-linecap="round" stroke-width="2"/>
  <path d="M6.6667 3.3333V1.6667" stroke="currentColor" stroke-linecap="round" stroke-width="2"/>
  <path d="M10 3.3333V1.6667" stroke="currentColor" stroke-linecap="round" stroke-width="2"/>
  <path d="M13.3333 3.3333V1.6667" stroke="currentColor" stroke-linecap="round" stroke-width="2"/>
</svg>
