<svg xmlns="http://www.w3.org/2000/svg" width="20" height="20" viewBox="0 0 20 20" fill="none">
  <path d="M6.6667 9.1716V9.5883" stroke="currentColor" stroke-linecap="round" stroke-linejoin="round" stroke-width="2"/>
  <path d="M13.3333 9.1716V9.5883" stroke="currentColor" stroke-linecap="round" stroke-linejoin="round" stroke-width="2"/>
  <path d="M9.1667 12.5032H10.8333L10 13.3366 9.1667 12.5032Z" stroke="currentColor" stroke-linecap="round" stroke-linejoin="round" stroke-width="2"/>
  <path d="M10 17.5C5.8579 17.5 2.5 14.517 2.5 10.8373 2.5 10.0443 2.656 9.2835 2.9422 8.578 3.114 8.1546 3.1999 7.9429 3.2095 7.8124 3.2191 7.6818 3.1595 7.4366 3.0402 6.9462L3.0402 6.9462C2.9053 6.3913 2.853 5.7823 2.8502 5.1817 2.8435 3.709 2.8401 2.9726 3.5086 2.6188 4.1771 2.265 4.852 2.7279 6.2017 3.6536 6.316 3.7321 6.4267 3.8083 6.5321 3.8814L6.5322 3.8814C7.0101 4.2128 7.2491 4.3784 7.4065 4.4143 7.5639 4.4501 7.9276 4.3919 8.6551 4.2754L8.6551 4.2754C9.0179 4.2174 9.4663 4.1746 10 4.1746 10.5337 4.1746 10.9821 4.2174 11.3449 4.2754L11.3449 4.2754C12.0724 4.3919 12.4362 4.4501 12.5935 4.4143 12.7509 4.3784 12.9898 4.2128 13.4678 3.8814L13.4678 3.8814C13.5733 3.8083 13.6839 3.7321 13.7983 3.6536 15.148 2.7279 15.8228 2.265 16.4914 2.6188 17.1599 2.9726 17.1565 3.709 17.1498 5.1817 17.147 5.7823 17.0947 6.3913 16.9598 6.9462 16.8406 7.4366 16.7809 7.6818 16.7905 7.8124 16.8002 7.9429 16.886 8.1546 17.0578 8.578 17.344 9.2835 17.5 10.0443 17.5 10.8373 17.5 14.517 14.1422 17.5 10 17.5Z" stroke="currentColor" stroke-linecap="round" stroke-linejoin="round" stroke-width="2"/>
</svg>
