<svg xmlns="http://www.w3.org/2000/svg" width="20" height="20" viewBox="0 0 20 20" fill="none">
  <path d="M6.7389 11.25V12.5C6.7389 14.0713 6.7389 14.857 6.2423 15.3452 5.7457 15.8333 4.9464 15.8333 3.3478 15.8333H2.5" stroke="currentColor" stroke-linecap="round" stroke-linejoin="round" stroke-width="2"/>
  <path d="M2.5 14.1667V17.5" stroke="currentColor" stroke-linecap="round" stroke-linejoin="round" stroke-width="2"/>
  <path d="M12.3472 10.9734C11.6133 11.637 11.2464 11.9688 10.7847 12.0592 10.323 12.1496 9.8558 11.9811 8.9216 11.6441L5.1483 10.2831C3.6595 9.746 2.9151 9.4775 2.6208 8.8535 2.3265 8.2294 2.5971 7.4931 3.1383 6.0205L3.4674 5.1252C4.0099 3.649 4.2812 2.9108 4.9137 2.6194 5.5461 2.3279 6.2924 2.5971 7.7849 3.1354L14.6367 5.6069C15.802 6.0272 16.3847 6.2374 16.4767 6.6968 16.5688 7.1562 16.1111 7.57 15.1957 8.3977L12.3472 10.9734Z" stroke="currentColor" fill-rule="evenodd" clip-rule="evenodd" stroke-linecap="round" stroke-linejoin="round" stroke-width="2"/>
  <path d="M17.1395 10.223C17.4755 10.6163 17.5989 11.1851 17.4142 11.7152L17.1797 12.3884C17.0291 12.8207 16.9537 13.0368 16.8518 13.2003 16.5127 13.7442 15.9068 14.039 15.2901 13.9604 15.1047 13.9367 14.8978 13.858 14.4842 13.7003L13.75 13.4205" stroke="currentColor" stroke-linecap="round" stroke-linejoin="round" stroke-width="2"/>
</svg>
