<svg xmlns="http://www.w3.org/2000/svg" width="20" height="20" viewBox="0 0 20 20" fill="none">
  <path d="M6.6667 11.6667L6.3693 13.1538C6.1127 14.4364 5.9844 15.0778 5.5236 15.4556 5.0628 15.8333 4.4088 15.8333 3.1006 15.8333H1.6667" stroke="currentColor" stroke-linecap="round" stroke-linejoin="round" stroke-width="2"/>
  <path d="M1.6667 14.1667V17.5" stroke="currentColor" stroke-linecap="round" stroke-linejoin="round" stroke-width="2"/>
  <path d="M14.1258 9.5903L17.6688 9.6176C17.7727 9.6183 17.875 9.6437 17.9676 9.6915 18.2971 9.8618 18.4281 10.2706 18.2602 10.6048L16.2381 14.6292C16.0703 14.9633 15.6671 15.0961 15.3376 14.9258 15.245 14.878 15.1646 14.8089 15.1029 14.7242L12.9987 11.8336M10.8475 8.7206L10.8005 8.814M12.6229 12.5813L14.5015 8.8425C14.9165 8.0166 14.5927 7.0058 13.7782 6.585L6.4043 2.775C5.1825 2.1437 3.6875 2.6363 3.065 3.8752L1.9378 6.1185C1.3153 7.3574 1.8011 8.8735 3.0228 9.5048L10.3967 13.3148C11.2112 13.7357 12.2079 13.4072 12.6229 12.5813ZM10.8944 8.6271C10.9962 8.6797 11.0367 8.806 10.9848 8.9093 10.933 9.0125 10.8084 9.0536 10.7066 9.001 10.6048 8.9483 10.5643 8.822 10.6162 8.7188 10.6681 8.6155 10.7927 8.5745 10.8944 8.6271Z" stroke="currentColor" stroke-linecap="round" stroke-linejoin="round" stroke-width="2"/>
</svg>
