<svg xmlns="http://www.w3.org/2000/svg" width="20" height="20" viewBox="0 0 20 20" fill="none">
  <path d="M6.7389 11.25V12.5C6.7389 14.0713 6.7389 14.857 6.2423 15.3452 5.7457 15.8333 4.9464 15.8333 3.3478 15.8333H2.5" stroke="currentColor" stroke-linecap="round" stroke-linejoin="round" stroke-width="2"/>
  <path d="M2.5 14.1667V17.5" stroke="currentColor" stroke-linecap="round" stroke-linejoin="round" stroke-width="2"/>
  <path d="M6.6667 2.5C6.8945 2.5824 7.142 2.675 7.4126 2.7762L14.6979 5.5019C15.9369 5.9654 16.5565 6.1972 16.6543 6.7039 16.7522 7.2105 16.2656 7.6669 15.2923 8.5797L13.7779 10" stroke="currentColor" stroke-linecap="round" stroke-linejoin="round" stroke-width="2"/>
  <path d="M3.8463 4.1667C3.7348 4.4591 3.6163 4.794 3.4811 5.1756L3.1474 6.1181C2.5985 7.6682 2.3241 8.4433 2.6225 9.1002 2.921 9.7571 3.6759 10.0397 5.1859 10.605L9.0127 12.0376C9.9602 12.3923 10.434 12.5697 10.9022 12.4746 11.1601 12.4222 11.3888 12.2927 11.6667 12.0702" stroke="currentColor" stroke-linecap="round" stroke-linejoin="round" stroke-width="2"/>
  <path d="M17.1549 10.2083C17.4767 10.603 17.5948 11.1737 17.418 11.7055L17.1934 12.381C17.1514 12.5071 17.1156 12.6148 17.0835 12.7083" stroke="currentColor" stroke-linecap="round" stroke-linejoin="round" stroke-width="2"/>
  <path d="M2.5 2.5L17.5 17.5" stroke="currentColor" stroke-linecap="round" stroke-linejoin="round" stroke-width="2"/>
</svg>
