<svg xmlns="http://www.w3.org/2000/svg" width="20" height="20" viewBox="0 0 20 20" fill="none">
  <path d="M10 9.1667L10 16.6667" stroke="currentColor" stroke-linecap="round" stroke-width="2"/>
  <path d="M11.6667 7.5C11.6667 8.4205 10.9205 9.1667 10 9.1667 9.0795 9.1667 8.3333 8.4205 8.3333 7.5 8.3333 6.5795 9.0795 5.8333 10 5.8333 10.9205 5.8333 11.6667 6.5795 11.6667 7.5Z" stroke="currentColor" stroke-width="2"/>
  <path d="M14.1323 5C14.6822 5.7247 15 6.5817 15 7.5 15 8.4183 14.6822 9.2753 14.1323 10M5.8676 5C5.3179 5.7247 5 6.5817 5 7.5 5 8.4183 5.3179 9.2753 5.8676 10" stroke="currentColor" stroke-linecap="round" stroke-linejoin="round" stroke-width="2"/>
  <path d="M16.9299 3.3333C17.8163 4.5251 18.3333 5.9582 18.3333 7.5 18.3333 9.0418 17.8163 10.4749 16.9299 11.6667M3.0701 3.3333C2.1836 4.5251 1.6667 5.9582 1.6667 7.5 1.6667 9.0418 2.1836 10.4749 3.0701 11.6667" stroke="currentColor" stroke-linecap="round" stroke-linejoin="round" stroke-width="2"/>
</svg>
