<svg xmlns="http://www.w3.org/2000/svg" width="20" height="20" viewBox="0 0 20 20" fill="none">
  <path d="M9.2562 4.6469C9.4743 5.0226 9.5833 5.2104 9.5833 5.4167 9.5833 5.6229 9.4743 5.8108 9.2562 6.1865L8.215 7.9802C7.997 8.3559 7.8879 8.5437 7.7083 8.6468 7.5287 8.75 7.3107 8.75 6.8745 8.75H4.7921C4.356 8.75 4.1379 8.75 3.9583 8.6468 3.7787 8.5437 3.6697 8.3559 3.4516 7.9802L2.4104 6.1865C2.1924 5.8108 2.0833 5.6229 2.0833 5.4167 2.0833 5.2104 2.1924 5.0226 2.4104 4.6469L3.4516 2.8531C3.6697 2.4774 3.7787 2.2896 3.9583 2.1865 4.1379 2.0833 4.356 2.0833 4.7921 2.0833L6.8745 2.0833C7.3107 2.0833 7.5287 2.0833 7.7083 2.1865 7.8879 2.2896 7.997 2.4774 8.215 2.8531L9.2562 4.6469Z" stroke="currentColor" stroke-linecap="round" stroke-linejoin="round" stroke-width="2"/>
  <path d="M17.5896 9.6468C17.8077 10.0226 17.9167 10.2104 17.9167 10.4167 17.9167 10.6229 17.8077 10.8108 17.5896 11.1865L16.5483 12.9802C16.3303 13.3559 16.2213 13.5438 16.0417 13.6468 15.8621 13.75 15.644 13.75 15.2078 13.75H13.1255C12.6893 13.75 12.4713 13.75 12.2917 13.6468 12.1121 13.5438 12.003 13.3559 11.785 12.9802L10.7438 11.1865C10.5257 10.8108 10.4167 10.6229 10.4167 10.4167 10.4167 10.2104 10.5257 10.0226 10.7438 9.6468L11.785 7.8531C12.003 7.4774 12.1121 7.2896 12.2917 7.1865 12.4713 7.0833 12.6893 7.0833 13.1255 7.0833L15.2078 7.0833C15.644 7.0833 15.8621 7.0833 16.0417 7.1865 16.2213 7.2896 16.3303 7.4774 16.5483 7.8531L17.5896 9.6468Z" stroke="currentColor" stroke-linecap="round" stroke-linejoin="round" stroke-width="2"/>
  <path d="M9.2562 13.8135C9.4743 14.1893 9.5833 14.3771 9.5833 14.5833 9.5833 14.7896 9.4743 14.9774 9.2562 15.3532L8.215 17.1468C7.997 17.5226 7.8879 17.7104 7.7083 17.8135 7.5287 17.9167 7.3107 17.9167 6.8745 17.9167H4.7921C4.356 17.9167 4.1379 17.9167 3.9583 17.8135 3.7787 17.7104 3.6697 17.5226 3.4516 17.1468L2.4104 15.3532C2.1924 14.9774 2.0833 14.7896 2.0833 14.5833 2.0833 14.3771 2.1924 14.1893 2.4104 13.8135L3.4516 12.0198C3.6697 11.6441 3.7787 11.4563 3.9583 11.3532 4.1379 11.25 4.356 11.25 4.7921 11.25L6.8745 11.25C7.3107 11.25 7.5287 11.25 7.7083 11.3532 7.8879 11.4563 7.997 11.6441 8.215 12.0198L9.2562 13.8135Z" stroke="currentColor" stroke-linecap="round" stroke-linejoin="round" stroke-width="2"/>
</svg>
