<svg xmlns="http://www.w3.org/2000/svg" width="20" height="20" viewBox="0 0 20 20" fill="none">
  <circle cx="4.166666666666667" cy="5" r="1.6666666666666667" stroke="currentColor" stroke-linecap="round" stroke-linejoin="round" stroke-width="2"/>
  <path d="M17.5 5.8333C17.4631 5.2891 17.3801 4.9056 17.1934 4.5833 16.9733 4.2033 16.6565 3.8877 16.2751 3.6683 15.6929 3.3333 14.9113 3.3333 13.3481 3.3333 11.7849 3.3333 11.0033 3.3333 10.4211 3.6683 10.0397 3.8877 9.723 4.2033 9.5028 4.5833 9.1667 5.1635 9.1667 5.9423 9.1667 7.5V12.5C9.1667 14.0577 9.1667 14.8365 9.5028 15.4167 9.723 15.7967 10.0397 16.1123 10.4211 16.3317 11.0033 16.6667 11.7849 16.6667 13.3481 16.6667 14.9113 16.6667 15.6929 16.6667 16.2751 16.3317 16.6565 16.1123 16.9733 15.7967 17.1934 15.4167 17.3801 15.0944 17.4631 14.7109 17.5 14.1667" stroke="currentColor" stroke-linecap="round" stroke-linejoin="round" stroke-width="2"/>
</svg>
