<svg xmlns="http://www.w3.org/2000/svg" width="20" height="20" viewBox="0 0 20 20" fill="none">
  <path d="M9.9998 5.8333C7.6986 5.8333 5.8331 7.6988 5.8331 10 5.8331 12.3012 7.6986 14.1667 9.9998 14.1667 12.301 14.1667 14.1665 12.3012 14.1665 10 14.1665 7.6988 12.301 5.8333 9.9998 5.8333Z" stroke="currentColor" stroke-linecap="round" stroke-linejoin="round" stroke-width="2"/>
  <path d="M14.7803 5.2195L17.9165 2.0833M14.7803 5.2195C14.414 4.8531 14.6526 3.3512 14.747 2.5M14.7803 5.2195C15.1467 5.5858 16.6486 5.3472 17.4998 5.2528" stroke="currentColor" stroke-linecap="round" stroke-linejoin="round" stroke-width="2"/>
  <path d="M5.2193 14.7805L2.0831 17.9167M5.2193 14.7805C4.8529 14.4142 3.351 14.6528 2.4998 14.7472M5.2193 14.7805C5.5856 15.1468 5.347 16.6487 5.2526 17.5" stroke="currentColor" stroke-linecap="round" stroke-linejoin="round" stroke-width="2"/>
  <path d="M14.7803 14.7805L17.9165 17.9167M14.7803 14.7805C15.1467 14.4142 16.6486 14.6528 17.4998 14.7472M14.7803 14.7805C14.414 15.1468 14.6526 16.6487 14.747 17.5" stroke="currentColor" stroke-linecap="round" stroke-linejoin="round" stroke-width="2"/>
  <path d="M5.2193 5.2195L2.0831 2.0833M5.2193 5.2195C5.5856 4.8531 5.347 3.3512 5.2526 2.5M5.2193 5.2195C4.8529 5.5858 3.351 5.3472 2.4998 5.2528" stroke="currentColor" stroke-linecap="round" stroke-linejoin="round" stroke-width="2"/>
</svg>
