<svg xmlns="http://www.w3.org/2000/svg" width="20" height="20" viewBox="0 0 20 20" fill="none">
  <path d="M9.5833 18.3333C6.2442 18.3333 4.5747 18.3333 3.5373 17.1129 2.5 15.8926 2.5 13.9283 2.5 10 2.5 6.0716 2.5 4.1074 3.5373 2.8871 4.5747 1.6667 6.2442 1.6667 9.5833 1.6667 12.9224 1.6667 14.592 1.6667 15.6293 2.8871 16.4643 3.8694 16.6273 5.3338 16.659 7.9167" stroke="currentColor" stroke-linecap="round" stroke-linejoin="round" stroke-width="2"/>
  <path d="M6.6667 6.6667H12.5M6.6667 10.8333H9.1667" stroke="currentColor" stroke-linecap="round" stroke-linejoin="round" stroke-width="2"/>
  <path d="M16.341 15.0878C17.0434 14.5765 17.5 13.7478 17.5 12.8125 17.5 11.2592 16.2408 10 14.6875 10H14.4792C12.9258 10 11.6667 11.2592 11.6667 12.8125 11.6667 13.7478 12.1233 14.5765 12.8257 15.0878M16.341 15.0878C15.8769 15.4257 15.3055 15.625 14.6875 15.625H14.4792C13.8612 15.625 13.2897 15.4257 12.8257 15.0878M16.341 15.0878L16.8267 16.617C17.0119 17.2003 17.1046 17.4919 17.0793 17.6735 17.0265 18.0514 16.7183 18.332 16.3543 18.3333 16.1795 18.334 15.9175 18.1965 15.3936 17.9216 15.1689 17.8037 15.0566 17.7447 14.9417 17.71 14.7075 17.6394 14.4592 17.6394 14.225 17.71 14.1101 17.7447 13.9977 17.8037 13.7731 17.9216 13.2492 18.1965 12.9872 18.334 12.8123 18.3333 12.4484 18.332 12.1402 18.0514 12.0874 17.6735 12.0621 17.4919 12.1547 17.2003 12.34 16.617L12.8257 15.0878" stroke="currentColor" stroke-width="2"/>
</svg>
