<svg xmlns="http://www.w3.org/2000/svg" width="20" height="20" viewBox="0 0 20 20" fill="none">
  <path d="M6.6667 14.1667L5.8333 18.3333M13.3333 14.1667L14.1667 18.3333" stroke="currentColor" stroke-linecap="round" stroke-linejoin="round" stroke-width="2"/>
  <path d="M10 10.8333C8.7319 10.8333 7.3911 11.0771 6.34 11.4032 5.5486 11.6487 4.912 12.7683 5.01 13.6773 5.0463 14.0141 5.3073 14.1667 5.5817 14.1667H14.4183C14.6927 14.1667 14.9537 14.0141 14.99 13.6773 15.0881 12.7683 14.4514 11.6487 13.66 11.4032 12.6089 11.0771 11.2681 10.8333 10 10.8333Z" stroke="currentColor" stroke-linecap="round" stroke-width="2"/>
  <path d="M13.1444 11.6667C14.177 10.3601 15 8.6397 15 6.9627 15 3.5878 12.7614 1.6667 10 1.6667 7.2386 1.6667 5 3.5878 5 6.9627 5 8.6397 5.823 10.3601 6.8556 11.6667" stroke="currentColor" stroke-width="2"/>
  <path d="M11.3915 1.6667C11.5654 2.6105 11.6667 3.8066 11.6667 5.2283 11.6667 7.2442 11.3635 9.315 10.9947 10.8333M8.6085 1.6667C8.4346 2.6105 8.3333 3.8066 8.3333 5.2283 8.3333 7.2442 8.6365 9.315 9.0053 10.8333" stroke="currentColor" stroke-width="2"/>
</svg>
