<svg xmlns="http://www.w3.org/2000/svg" width="20" height="20" viewBox="0 0 20 20" fill="none">
  <path d="M5.8333 12.5V18.3333M14.1667 12.5V18.3333" stroke="currentColor" stroke-linecap="round" stroke-linejoin="round" stroke-width="2"/>
  <path d="M10 9.1667C8.7319 9.1667 7.3911 9.4104 6.34 9.7365 5.5486 9.982 4.912 11.1017 5.01 12.0107 5.0463 12.3474 5.3073 12.5 5.5817 12.5H14.4183C14.6927 12.5 14.9537 12.3474 14.99 12.0107 15.0881 11.1017 14.4514 9.982 13.66 9.7365 12.6089 9.4104 11.2681 9.1667 10 9.1667Z" stroke="currentColor" stroke-linecap="round" stroke-width="2"/>
  <path d="M5.903 10L5.5983 6.9062C5.386 4.7503 5.2798 3.6724 5.7391 2.8995 6.6035 1.4449 8.5338 1.6808 10 1.6808 11.4663 1.6808 13.3965 1.4449 14.2609 2.8995 14.7202 3.6724 14.614 4.7503 14.4017 6.9062L14.097 10" stroke="currentColor" stroke-linejoin="round" stroke-width="2"/>
  <path d="M5.8333 15L14.1667 15" stroke="currentColor" stroke-linecap="round" stroke-linejoin="round" stroke-width="2"/>
</svg>
