<svg xmlns="http://www.w3.org/2000/svg" width="20" height="20" viewBox="0 0 20 20" fill="none">
  <path d="M10 14.1667C8.6053 14.1667 7.3914 15.2208 6.7647 16.776 6.4654 17.5188 6.8949 18.3333 7.4656 18.3333H12.5343C13.1051 18.3333 13.5346 17.5188 13.2353 16.776 12.6086 15.2208 11.3947 14.1667 10 14.1667Z" stroke="currentColor" stroke-linecap="round" stroke-width="2"/>
  <path d="M15.4167 4.1667H16.4185C17.4192 4.1667 17.9196 4.1667 18.1807 4.4811 18.4417 4.7956 18.3332 5.2676 18.1161 6.2116L17.7904 7.6276C17.3008 9.7572 15.5091 11.3407 13.3333 11.6667" stroke="currentColor" stroke-linecap="round" stroke-linejoin="round" stroke-width="2"/>
  <path d="M4.5833 4.1667H3.5815C2.5808 4.1667 2.0804 4.1667 1.8194 4.4811 1.5583 4.7956 1.6669 5.2676 1.884 6.2116L2.2096 7.6276C2.6993 9.7572 4.4909 11.3407 6.6667 11.6667" stroke="currentColor" stroke-linecap="round" stroke-linejoin="round" stroke-width="2"/>
  <path d="M10 14.1667C12.5173 14.1667 14.6375 10.2816 15.2747 4.9924 15.451 3.5296 15.5392 2.7983 15.0723 2.2325 14.6056 1.6667 13.8519 1.6667 12.3445 1.6667H7.6555C6.1481 1.6667 5.3944 1.6667 4.9276 2.2325 4.4608 2.7983 4.549 3.5296 4.7252 4.9924 5.3625 10.2816 7.4827 14.1667 10 14.1667Z" stroke="currentColor" stroke-linecap="round" stroke-width="2"/>
</svg>
