<svg xmlns="http://www.w3.org/2000/svg" width="20" height="20" viewBox="0 0 20 20" fill="none">
  <path d="M2.5 3.3333V11.6667C2.5 14.0237 2.5 15.2022 3.2322 15.9344 3.9645 16.6667 5.143 16.6667 7.5 16.6667H17.5" stroke="currentColor" stroke-linecap="round" stroke-linejoin="round" stroke-width="2"/>
  <path d="M5 11.6667L7.7083 8.9583C8.245 8.4216 8.5134 8.1533 8.8273 8.0647 9.0493 8.0021 9.2841 8.0021 9.5061 8.0647 9.8199 8.1533 10.0883 8.4216 10.625 8.9583 11.1617 9.4951 11.4301 9.7634 11.7439 9.8519 11.9659 9.9146 12.2008 9.9146 12.4228 9.8519 12.7366 9.7634 13.0049 9.4951 13.5417 8.9583L16.6667 5.8333" stroke="currentColor" stroke-linecap="round" stroke-linejoin="round" stroke-width="2"/>
</svg>
