<svg xmlns="http://www.w3.org/2000/svg" width="20" height="20" viewBox="0 0 20 20" fill="none">
  <path d="M17.0833 8.75V16.25C17.0833 16.6383 17.0833 16.8324 17.0199 16.9856 16.9353 17.1898 16.7731 17.352 16.5689 17.4366 16.4157 17.5 16.2216 17.5 15.8333 17.5 15.4451 17.5 15.2509 17.5 15.0978 17.4366 14.8936 17.352 14.7313 17.1898 14.6468 16.9856 14.5833 16.8324 14.5833 16.6383 14.5833 16.25V8.75C14.5833 8.3618 14.5833 8.1676 14.6468 8.0144 14.7313 7.8102 14.8936 7.648 15.0978 7.5634 15.2509 7.5 15.4451 7.5 15.8333 7.5 16.2216 7.5 16.4157 7.5 16.5689 7.5634 16.7731 7.648 16.9353 7.8102 17.0199 8.0144 17.0833 8.1676 17.0833 8.3618 17.0833 8.75Z" stroke="currentColor" stroke-linejoin="round" stroke-width="2"/>
  <path d="M13.75 2.5H16.25V5" stroke="currentColor" stroke-linecap="round" stroke-linejoin="round" stroke-width="2"/>
  <path d="M15.8333 2.9167C15.8333 2.9167 12.5 7.0833 3.75 10" stroke="currentColor" stroke-linecap="round" stroke-linejoin="round" stroke-width="2"/>
  <path d="M11.25 11.6667V16.25C11.25 16.6383 11.25 16.8324 11.1866 16.9856 11.102 17.1898 10.9398 17.352 10.7356 17.4366 10.5824 17.5 10.3882 17.5 10 17.5 9.6118 17.5 9.4176 17.5 9.2644 17.4366 9.0602 17.352 8.898 17.1898 8.8134 16.9856 8.75 16.8324 8.75 16.6383 8.75 16.25V11.6667C8.75 11.2784 8.75 11.0843 8.8134 10.9311 8.898 10.7269 9.0602 10.5647 9.2644 10.4801 9.4176 10.4167 9.6118 10.4167 10 10.4167 10.3882 10.4167 10.5824 10.4167 10.7356 10.4801 10.9398 10.5647 11.102 10.7269 11.1866 10.9311 11.25 11.0843 11.25 11.2784 11.25 11.6667Z" stroke="currentColor" stroke-linejoin="round" stroke-width="2"/>
  <path d="M5.4167 13.75V16.25C5.4167 16.6383 5.4167 16.8324 5.3532 16.9856 5.2687 17.1898 5.1064 17.352 4.9022 17.4366 4.7491 17.5 4.5549 17.5 4.1667 17.5 3.7784 17.5 3.5842 17.5 3.4311 17.4366 3.2269 17.352 3.0647 17.1898 2.9801 16.9856 2.9167 16.8324 2.9167 16.6383 2.9167 16.25V13.75C2.9167 13.3617 2.9167 13.1676 2.9801 13.0144 3.0647 12.8102 3.2269 12.648 3.4311 12.5634 3.5842 12.5 3.7784 12.5 4.1667 12.5 4.5549 12.5 4.7491 12.5 4.9022 12.5634 5.1064 12.648 5.2687 12.8102 5.3532 13.0144 5.4167 13.1676 5.4167 13.3617 5.4167 13.75Z" stroke="currentColor" stroke-linejoin="round" stroke-width="2"/>
</svg>
