<svg xmlns="http://www.w3.org/2000/svg" width="20" height="20" viewBox="0 0 20 20" fill="none">
  <path d="M2.9167 8.75V16.25C2.9167 16.6383 2.9167 16.8324 2.9801 16.9856 3.0647 17.1898 3.2269 17.352 3.4311 17.4366 3.5842 17.5 3.7784 17.5 4.1667 17.5 4.5549 17.5 4.7491 17.5 4.9022 17.4366 5.1064 17.352 5.2687 17.1898 5.3532 16.9856 5.4167 16.8324 5.4167 16.6383 5.4167 16.25V8.75C5.4167 8.3618 5.4167 8.1676 5.3532 8.0144 5.2687 7.8102 5.1064 7.648 4.9022 7.5634 4.7491 7.5 4.5549 7.5 4.1667 7.5 3.7784 7.5 3.5842 7.5 3.4311 7.5634 3.2269 7.648 3.0647 7.8102 2.9801 8.0144 2.9167 8.1676 2.9167 8.3618 2.9167 8.75Z" stroke="currentColor" stroke-linejoin="round" stroke-width="2"/>
  <path d="M14.5833 6.6666L16.25 8.7499 14.1667 10.4166" stroke="currentColor" stroke-linecap="round" stroke-linejoin="round" stroke-width="2"/>
  <path d="M15.8334 8.7517C15.8334 8.7517 9.5834 8.7517 3.3334 2.5016" stroke="currentColor" stroke-linecap="round" stroke-linejoin="round" stroke-width="2"/>
  <path d="M8.75 11.6667V16.25C8.75 16.6383 8.75 16.8324 8.8134 16.9856 8.898 17.1898 9.0602 17.352 9.2644 17.4366 9.4176 17.5 9.6118 17.5 10 17.5 10.3882 17.5 10.5824 17.5 10.7356 17.4366 10.9398 17.352 11.102 17.1898 11.1866 16.9856 11.25 16.8324 11.25 16.6383 11.25 16.25V11.6667C11.25 11.2784 11.25 11.0843 11.1866 10.9311 11.102 10.7269 10.9398 10.5647 10.7356 10.4801 10.5824 10.4167 10.3882 10.4167 10 10.4167 9.6118 10.4167 9.4176 10.4167 9.2644 10.4801 9.0602 10.5647 8.898 10.7269 8.8134 10.9311 8.75 11.0843 8.75 11.2784 8.75 11.6667Z" stroke="currentColor" stroke-linejoin="round" stroke-width="2"/>
  <path d="M14.5833 13.75V16.25C14.5833 16.6383 14.5833 16.8324 14.6468 16.9856 14.7313 17.1898 14.8936 17.352 15.0978 17.4366 15.2509 17.5 15.4451 17.5 15.8333 17.5 16.2216 17.5 16.4157 17.5 16.5689 17.4366 16.7731 17.352 16.9353 17.1898 17.0199 16.9856 17.0833 16.8324 17.0833 16.6383 17.0833 16.25V13.75C17.0833 13.3617 17.0833 13.1676 17.0199 13.0144 16.9353 12.8102 16.7731 12.648 16.5689 12.5634 16.4157 12.5 16.2216 12.5 15.8333 12.5 15.4451 12.5 15.2509 12.5 15.0978 12.5634 14.8936 12.648 14.7313 12.8102 14.6468 13.0144 14.5833 13.1676 14.5833 13.3617 14.5833 13.75Z" stroke="currentColor" stroke-linejoin="round" stroke-width="2"/>
</svg>
