<svg xmlns="http://www.w3.org/2000/svg" width="20" height="20" viewBox="0 0 20 20" fill="none">
  <path d="M2.9167 10.4167V16.25C2.9167 16.6383 2.9167 16.8324 2.9801 16.9856 3.0647 17.1898 3.2269 17.352 3.4311 17.4366 3.5842 17.5 3.7784 17.5 4.1667 17.5 4.5549 17.5 4.7491 17.5 4.9022 17.4366 5.1064 17.352 5.2687 17.1898 5.3532 16.9856 5.4167 16.8324 5.4167 16.6383 5.4167 16.25V10.4167C5.4167 10.0284 5.4167 9.8343 5.3532 9.6811 5.2687 9.4769 5.1064 9.3147 4.9022 9.2301 4.7491 9.1667 4.5549 9.1667 4.1667 9.1667 3.7784 9.1667 3.5842 9.1667 3.4311 9.2301 3.2269 9.3147 3.0647 9.4769 2.9801 9.6811 2.9167 9.8343 2.9167 10.0284 2.9167 10.4167Z" stroke="currentColor" stroke-linecap="square" stroke-linejoin="round" stroke-width="2"/>
  <path d="M8.75 12.0833V16.2496C8.75 16.6378 8.75 16.832 8.8134 16.9852 8.898 17.1893 9.0602 17.3516 9.2644 17.4362 9.4176 17.4996 9.6118 17.4996 10 17.4996 10.3882 17.4996 10.5824 17.4996 10.7356 17.4362 10.9398 17.3516 11.102 17.1893 11.1866 16.9852 11.25 16.832 11.25 16.6378 11.25 16.2496V12.0833C11.25 11.6951 11.25 11.5009 11.1866 11.3478 11.102 11.1436 10.9398 10.9813 10.7356 10.8968 10.5824 10.8333 10.3882 10.8333 10 10.8333 9.6118 10.8333 9.4176 10.8333 9.2644 10.8968 9.0602 10.9813 8.898 11.1436 8.8134 11.3478 8.75 11.5009 8.75 11.6951 8.75 12.0833Z" stroke="currentColor" stroke-linecap="square" stroke-linejoin="round" stroke-width="2"/>
  <path d="M14.5833 8.75V16.25C14.5833 16.6383 14.5833 16.8324 14.6468 16.9856 14.7313 17.1898 14.8936 17.352 15.0978 17.4366 15.2509 17.5 15.4451 17.5 15.8333 17.5 16.2216 17.5 16.4157 17.5 16.5689 17.4366 16.7731 17.352 16.9353 17.1898 17.0199 16.9856 17.0833 16.8324 17.0833 16.6383 17.0833 16.25V8.75C17.0833 8.3618 17.0833 8.1676 17.0199 8.0144 16.9353 7.8102 16.7731 7.648 16.5689 7.5634 16.4157 7.5 16.2216 7.5 15.8333 7.5 15.4451 7.5 15.2509 7.5 15.0978 7.5634 14.8936 7.648 14.7313 7.8102 14.6468 8.0144 14.5833 8.1676 14.5833 8.3618 14.5833 8.75Z" stroke="currentColor" stroke-linecap="square" stroke-linejoin="round" stroke-width="2"/>
  <path d="M5.4167 5.4167C5.4167 6.107 4.857 6.6667 4.1667 6.6667 3.4763 6.6667 2.9167 6.107 2.9167 5.4167 2.9167 4.7263 3.4763 4.1667 4.1667 4.1667 4.857 4.1667 5.4167 4.7263 5.4167 5.4167Z" stroke="currentColor" stroke-width="2"/>
  <path d="M17.0833 3.75C17.0833 4.4404 16.5237 5 15.8333 5 15.143 5 14.5833 4.4404 14.5833 3.75 14.5833 3.0596 15.143 2.5 15.8333 2.5 16.5237 2.5 17.0833 3.0596 17.0833 3.75Z" stroke="currentColor" stroke-width="2"/>
  <path d="M11.25 7.0833C11.25 7.7737 10.6903 8.3333 10 8.3333 9.3097 8.3333 8.75 7.7737 8.75 7.0833 8.75 6.393 9.3097 5.8333 10 5.8333 10.6903 5.8333 11.25 6.393 11.25 7.0833Z" stroke="currentColor" stroke-width="2"/>
  <path d="M5.3695 5.76L8.7983 6.7397M11.0861 6.4629L14.7484 4.3701" stroke="currentColor" stroke-width="2"/>
</svg>
