<svg xmlns="http://www.w3.org/2000/svg" width="20" height="20" viewBox="0 0 20 20" fill="none">
  <path d="M10.625 8.75H10.4167M10.8333 8.75C10.8333 8.9801 10.6468 9.1667 10.4167 9.1667 10.1866 9.1667 10 8.9801 10 8.75 10 8.5199 10.1866 8.3333 10.4167 8.3333 10.6468 8.3333 10.8333 8.5199 10.8333 8.75Z" stroke="currentColor" stroke-linecap="round" stroke-linejoin="round" stroke-width="2"/>
  <path d="M12.2917 3.75H12.0833M12.5 3.75C12.5 3.9801 12.3134 4.1667 12.0833 4.1667 11.8533 4.1667 11.6667 3.9801 11.6667 3.75 11.6667 3.5199 11.8533 3.3333 12.0833 3.3333 12.3134 3.3333 12.5 3.5199 12.5 3.75Z" stroke="currentColor" stroke-linecap="round" stroke-linejoin="round" stroke-width="2"/>
  <path d="M15.625 9.5833H15.4167M15.8333 9.5833C15.8333 9.8134 15.6468 10 15.4167 10 15.1866 10 15 9.8134 15 9.5833 15 9.3533 15.1866 9.1667 15.4167 9.1667 15.6468 9.1667 15.8333 9.3533 15.8333 9.5833Z" stroke="currentColor" stroke-linecap="round" stroke-linejoin="round" stroke-width="2"/>
  <path d="M8.125 13.75H7.9167M8.3333 13.75C8.3333 13.9801 8.1468 14.1667 7.9167 14.1667 7.6866 14.1667 7.5 13.9801 7.5 13.75 7.5 13.5199 7.6866 13.3333 7.9167 13.3333 8.1468 13.3333 8.3333 13.5199 8.3333 13.75Z" stroke="currentColor" stroke-linecap="round" stroke-linejoin="round" stroke-width="2"/>
  <path d="M6.4583 7.0833H6.25M6.6667 7.0833C6.6667 7.3135 6.4801 7.5 6.25 7.5 6.0199 7.5 5.8333 7.3135 5.8333 7.0833 5.8333 6.8532 6.0199 6.6667 6.25 6.6667 6.4801 6.6667 6.6667 6.8532 6.6667 7.0833Z" stroke="currentColor" stroke-linecap="round" stroke-linejoin="round" stroke-width="2"/>
  <path d="M17.5 17.5H8.3333C5.5835 17.5 4.2085 17.5 3.3543 16.6458 2.5 15.7914 2.5 14.4165 2.5 11.6667V2.5" stroke="currentColor" stroke-linecap="round" stroke-linejoin="round" stroke-width="2"/>
</svg>
