<svg xmlns="http://www.w3.org/2000/svg" width="20" height="20" viewBox="0 0 20 20" fill="none">
  <path d="M6.2318 3.7106C8.044 2.348 8.9502 1.6667 10 1.6667 11.0498 1.6667 11.9559 2.348 13.7682 3.7106L15.4268 4.9578C17.0905 6.2087 17.9223 6.8342 18.2193 7.7488 18.5163 8.6634 18.2073 9.6478 17.5892 11.6167L16.8322 14.0275C16.1807 16.1028 15.8549 17.1404 15.0334 17.7369 14.2119 18.3333 13.1085 18.3333 10.9017 18.3333H9.0983C6.8915 18.3333 5.7881 18.3333 4.9666 17.7369 4.1451 17.1404 3.8193 16.1028 3.1677 14.0275L2.4108 11.6167C1.7927 9.6478 1.4836 8.6634 1.7806 7.7488 2.0776 6.8342 2.9095 6.2087 4.5732 4.9578L6.2318 3.7106Z" stroke="currentColor" stroke-width="2"/>
  <path d="M8.4304 8.1894C9.1924 7.7176 9.5735 7.4817 9.9922 7.5011 10.4108 7.5206 10.7678 7.7908 11.4819 8.3312L12.0552 8.765C12.7933 9.3236 13.1623 9.6029 13.2883 10.0115 13.4143 10.4201 13.2658 10.856 12.9688 11.7278L12.7953 12.2369C12.5267 13.0252 12.3924 13.4195 12.0835 13.6633 11.7746 13.9071 11.3567 13.9487 10.5211 14.032L10.0435 14.0796C8.9688 14.1867 8.4315 14.2402 8.0271 13.9663 7.6228 13.6923 7.4783 13.1768 7.1892 12.1459L6.964 11.3431C6.7056 10.4215 6.5764 9.9608 6.7379 9.549 6.8994 9.1373 7.3087 8.8839 8.1275 8.377L8.4304 8.1894Z" stroke="currentColor" stroke-linecap="round" stroke-linejoin="round" stroke-width="2"/>
  <path d="M2.0833 7.9167L6.6667 9.5833" stroke="currentColor" stroke-linecap="round" stroke-linejoin="round" stroke-width="2"/>
  <path d="M12.0833 13.75L15 17.5" stroke="currentColor" stroke-linecap="round" stroke-linejoin="round" stroke-width="2"/>
  <path d="M13.3333 10L17.9167 7.9167" stroke="currentColor" stroke-linecap="round" stroke-linejoin="round" stroke-width="2"/>
  <path d="M5.4167 17.5L7.5 13.75" stroke="currentColor" stroke-linecap="round" stroke-linejoin="round" stroke-width="2"/>
  <path d="M10 7.5V1.6667" stroke="currentColor" stroke-linecap="round" stroke-linejoin="round" stroke-width="2"/>
</svg>
