<svg xmlns="http://www.w3.org/2000/svg" width="20" height="20" viewBox="0 0 20 20" fill="none">
  <path d="M12.5 17.5V5C12.5 4.2234 12.5 3.8352 12.3732 3.5289 12.204 3.1205 11.8795 2.796 11.4712 2.6269 11.1648 2.5 10.7766 2.5 10 2.5 9.2234 2.5 8.8352 2.5 8.5288 2.6269 8.1205 2.796 7.796 3.1205 7.6269 3.5289 7.5 3.8352 7.5 4.2234 7.5 5V17.5H12.5Z" stroke="currentColor" stroke-linecap="round" stroke-linejoin="round" stroke-width="2"/>
  <path d="M14.1667 6.6667H12.5V17.5H14.1667C15.738 17.5 16.5237 17.5 17.0118 17.0118 17.5 16.5237 17.5 15.738 17.5 14.1667V10C17.5 8.4287 17.5 7.643 17.0118 7.1548 16.5237 6.6667 15.738 6.6667 14.1667 6.6667Z" stroke="currentColor" stroke-linecap="round" stroke-linejoin="round" stroke-width="2"/>
  <path d="M7.5 10.8333H5.8333C4.262 10.8333 3.4763 10.8333 2.9882 11.3215 2.5 11.8097 2.5 12.5953 2.5 14.1667 2.5 15.738 2.5 16.5237 2.9882 17.0118 3.4763 17.5 4.262 17.5 5.8333 17.5H7.5V10.8333Z" stroke="currentColor" stroke-linecap="round" stroke-linejoin="round" stroke-width="2"/>
</svg>
