<svg xmlns="http://www.w3.org/2000/svg" width="20" height="20" viewBox="0 0 20 20" fill="none">
  <path d="M5.8333 12.5V13.3333C5.8333 13.7936 6.2064 14.1667 6.6667 14.1667H11.6667C12.1269 14.1667 12.5 13.7936 12.5 13.3333V12.5C12.5 12.0397 12.1269 11.6667 11.6667 11.6667H6.6667C6.2064 11.6667 5.8333 12.0397 5.8333 12.5Z" stroke="currentColor" stroke-linecap="round" stroke-linejoin="round" stroke-width="2"/>
  <path d="M5.8333 6.6667V7.5C5.8333 7.9602 6.2064 8.3333 6.6667 8.3333H15C15.4603 8.3333 15.8333 7.9602 15.8333 7.5V6.6667C15.8333 6.2064 15.4603 5.8333 15 5.8333H6.6667C6.2064 5.8333 5.8333 6.2064 5.8333 6.6667Z" stroke="currentColor" stroke-linecap="round" stroke-linejoin="round" stroke-width="2"/>
  <path d="M2.5 2.5V10.8333C2.5 13.976 2.5 15.5474 3.4763 16.5237 4.4526 17.5 6.024 17.5 9.1667 17.5H17.5" stroke="currentColor" stroke-linecap="round" stroke-linejoin="round" stroke-width="2"/>
</svg>
