<svg xmlns="http://www.w3.org/2000/svg" width="20" height="20" viewBox="0 0 20 20" fill="none">
  <path d="M18.1887 13.2617C17.9558 14.7252 16.8021 15.8729 15.3312 16.1048 15.0639 16.1468 14.7446 16.1468 14.1058 16.1468 13.4671 16.1468 13.1477 16.1468 12.8805 16.1048 11.4094 15.8729 10.2558 14.7252 10.0228 13.2617 9.9805 12.9958 9.9805 12.6781 9.9805 12.0426V9.3065M9.9805 9.3065V7.9384C9.9805 7.303 9.9805 6.9852 10.0228 6.7194 10.2558 5.2559 11.4094 4.1081 12.8805 3.8763 13.1477 3.8342 13.4671 3.8342 14.1058 3.8342 14.7446 3.8342 15.0639 3.8342 15.3312 3.8763 16.8021 4.1081 17.9558 5.2559 18.1887 6.7194 18.3538 7.756 18.4363 8.2744 18.1125 8.7283 18.0682 8.7904 18.0033 8.8656 17.9483 8.9187 17.5465 9.3065 16.9034 9.3065 15.6172 9.3065H9.9805Z" stroke="currentColor" stroke-linecap="round" stroke-linejoin="round" stroke-width="2"/>
  <path d="M1.9273 5.848C2.2806 5.2218 3.2529 4.104 4.4924 3.8851 5.732 3.6662 7.8664 3.5568 8.9232 4.856 9.98 6.1552 9.98 7.5355 9.98 9.3305M9.98 9.3305C9.98 10.3648 9.9507 10.6959 9.8559 11.3778 9.7437 12.1856 9.6812 13.6618 8.7039 14.7239 8.3295 15.1308 7.8732 15.4657 7.3829 15.7214 6.774 16.0391 5.8963 16.3222 4.9714 16.2323 3.2331 16.0634 1.9273 15.0655 1.6941 13.2985 1.542 12.146 2.0876 10.9569 2.6693 10.3648 3.2509 9.7725 3.9717 9.2649 5.2132 9.3305 6.3654 9.3914 8.8716 9.3446 9.98 9.3305Z" stroke="currentColor" stroke-linecap="round" stroke-linejoin="round" stroke-width="2"/>
</svg>
