<svg xmlns="http://www.w3.org/2000/svg" width="20" height="20" viewBox="0 0 20 20" fill="none">
  <path d="M17.4898 17.5H8.3231C5.5732 17.5 4.1983 17.5 3.344 16.6458 2.4897 15.7914 2.4897 14.4165 2.4897 11.6667V2.5" stroke="currentColor" stroke-linecap="round" stroke-width="2"/>
  <path d="M5.8231 5.8333C6.3469 4.8987 7.0575 4.1667 8.1508 4.1667 12.7733 4.1667 10.1751 14.1667 15.1423 14.1667 16.2434 14.1667 16.9498 13.4298 17.4898 12.5" stroke="currentColor" stroke-linecap="round" stroke-width="2"/>
  <path d="M9.1665 9.1672H9.1561M9.1769 9.1672C9.1769 9.1787 9.1676 9.188 9.1561 9.188 9.1446 9.188 9.1353 9.1787 9.1353 9.1672 9.1353 9.1557 9.1446 9.1463 9.1561 9.1463 9.1676 9.1463 9.1769 9.1557 9.1769 9.1672Z" stroke="currentColor" stroke-linecap="round" stroke-linejoin="round" stroke-width="2"/>
  <path d="M5.8332 9.1672H5.8228M5.8436 9.1672C5.8436 9.1787 5.8343 9.188 5.8228 9.188 5.8113 9.188 5.8019 9.1787 5.8019 9.1672 5.8019 9.1557 5.8113 9.1463 5.8228 9.1463 5.8343 9.1463 5.8436 9.1557 5.8436 9.1672Z" stroke="currentColor" stroke-linecap="round" stroke-linejoin="round" stroke-width="2"/>
  <path d="M17.4998 9.1672H17.4894M17.5102 9.1672C17.5102 9.1787 17.5009 9.188 17.4894 9.188 17.4779 9.188 17.4686 9.1787 17.4686 9.1672 17.4686 9.1557 17.4779 9.1463 17.4894 9.1463 17.5009 9.1463 17.5102 9.1557 17.5102 9.1672Z" stroke="currentColor" stroke-linecap="round" stroke-linejoin="round" stroke-width="2"/>
  <path d="M14.1665 9.1672H14.1561M14.1769 9.1672C14.1769 9.1787 14.1676 9.188 14.1561 9.188 14.1446 9.188 14.1352 9.1787 14.1352 9.1672 14.1352 9.1557 14.1446 9.1463 14.1561 9.1463 14.1676 9.1463 14.1769 9.1557 14.1769 9.1672Z" stroke="currentColor" stroke-linecap="round" stroke-linejoin="round" stroke-width="2"/>
</svg>
