<svg xmlns="http://www.w3.org/2000/svg" width="20" height="20" viewBox="0 0 20 20" fill="none">
  <path d="M5.8333 15.8333H14.1667" stroke="currentColor" stroke-linecap="round" stroke-linejoin="round" stroke-width="2"/>
  <path d="M15.8333 13.3333C16.4806 13.3528 16.8667 13.4252 17.1339 13.6928 17.5 14.0594 17.5 14.6495 17.5 15.8298 17.5 17.0099 17.5 17.6 17.1339 17.9667 16.7678 18.3333 16.1785 18.3333 15 18.3333H5C3.8215 18.3333 3.2322 18.3333 2.8661 17.9667 2.5 17.6 2.5 17.0099 2.5 15.8298 2.5 14.6495 2.5 14.0594 2.8661 13.6928 3.1333 13.4252 3.5194 13.3528 4.1667 13.3333" stroke="currentColor" stroke-linecap="round" stroke-linejoin="round" stroke-width="2"/>
  <path d="M11.9292 15.8333C12.5348 15.3098 12.9167 14.5438 12.9167 13.6905 12.9167 12.1125 11.6108 10.8333 10 10.8333 8.3892 10.8333 7.0833 12.1125 7.0833 13.6905 7.0833 14.5438 7.4652 15.3098 8.0708 15.8333" stroke="currentColor" stroke-linecap="round" stroke-width="2"/>
  <path d="M16.6667 8.3333L14.671 8.3333C14.4258 8.3333 14.1841 8.2781 13.9648 8.172L12.2632 7.3487C12.044 7.2426 11.8022 7.1874 11.5571 7.1874L10.6883 7.1874C9.8479 7.1874 9.1667 6.5282 9.1667 5.715 9.1667 5.6821 9.1892 5.6532 9.2218 5.6442L11.3393 5.0588C11.7191 4.9538 12.1258 4.9904 12.4792 5.1613L14.2983 6.0415M9.1667 6.25L5.3394 7.4259C4.6609 7.6373 3.9274 7.3866 3.5024 6.7981 3.1951 6.3726 3.3202 5.7632 3.7679 5.5049L10.0309 1.8912C10.4293 1.6614 10.8993 1.6053 11.3373 1.7353L16.6667 3.3167" stroke="currentColor" stroke-linecap="round" stroke-linejoin="round" stroke-width="2"/>
</svg>
