<svg xmlns="http://www.w3.org/2000/svg" width="20" height="20" viewBox="0 0 20 20" fill="none">
  <path d="M2.5 2.5V10.8333C2.5 13.976 2.5 15.5474 3.4763 16.5237 4.4526 17.5 6.024 17.5 9.1667 17.5H17.5" stroke="currentColor" stroke-linecap="round" stroke-linejoin="round" stroke-width="2"/>
  <path d="M12.5 14.1667H8.1904C7.5478 14.1667 7.2265 14.1667 6.9673 14.0798 6.4742 13.9146 6.0871 13.5301 5.9207 13.0403 5.8333 12.7828 5.8333 12.4636 5.8333 11.8253 5.8333 11.546 5.8333 11.4063 5.8553 11.2732 5.8969 11.0215 5.9965 10.7828 6.1462 10.5756 6.2254 10.466 6.3248 10.3673 6.5237 10.1697L7.2571 9.4412C7.7682 8.9334 8.0238 8.6796 8.3468 8.665 8.6697 8.6505 8.9473 8.8803 9.5026 9.34L9.6641 9.4737C10.2194 9.9333 10.497 10.1632 10.8199 10.1487 11.1429 10.1341 11.3984 9.8803 11.9096 9.3725L12.9882 8.3011C14.199 7.0982 14.8045 6.4968 15.3189 6.7085 15.8333 6.9201 15.8333 7.7707 15.8333 9.4718V10.8555C15.8333 12.4164 15.8333 13.1968 15.3452 13.6817 14.857 14.1667 14.0713 14.1667 12.5 14.1667Z" stroke="currentColor" stroke-linecap="round" stroke-linejoin="round" stroke-width="2"/>
</svg>
