<svg xmlns="http://www.w3.org/2000/svg" width="20" height="20" viewBox="0 0 20 20" fill="none">
  <path d="M11.25 16.25V3.75C11.25 3.3617 11.25 3.1676 11.1866 3.0144 11.102 2.8102 10.9398 2.648 10.7356 2.5634 10.5824 2.5 10.3882 2.5 10 2.5 9.6118 2.5 9.4176 2.5 9.2644 2.5634 9.0602 2.648 8.898 2.8102 8.8134 3.0144 8.75 3.1676 8.75 3.3617 8.75 3.75V16.25C8.75 16.6383 8.75 16.8324 8.8134 16.9856 8.898 17.1898 9.0602 17.352 9.2644 17.4366 9.4176 17.5 9.6118 17.5 10 17.5 10.3882 17.5 10.5824 17.5 10.7356 17.4366 10.9398 17.352 11.102 17.1898 11.1866 16.9856 11.25 16.8324 11.25 16.6383 11.25 16.25Z" stroke="currentColor" stroke-linecap="round" stroke-linejoin="round" stroke-width="2"/>
  <path d="M5.8333 16.25V12.9167C5.8333 12.5284 5.8333 12.3343 5.7699 12.1811 5.6853 11.9769 5.5231 11.8147 5.3189 11.7301 5.1658 11.6667 4.9716 11.6667 4.5833 11.6667 4.1951 11.6667 4.0009 11.6667 3.8478 11.7301 3.6436 11.8147 3.4813 11.9769 3.3968 12.1811 3.3333 12.3343 3.3333 12.5284 3.3333 12.9167V16.25C3.3333 16.6383 3.3333 16.8324 3.3968 16.9856 3.4813 17.1898 3.6436 17.352 3.8478 17.4366 4.0009 17.5 4.1951 17.5 4.5833 17.5 4.9716 17.5 5.1658 17.5 5.3189 17.4366 5.5231 17.352 5.6853 17.1898 5.7699 16.9856 5.8333 16.8324 5.8333 16.6383 5.8333 16.25Z" stroke="currentColor" stroke-linecap="round" stroke-linejoin="round" stroke-width="2"/>
  <path d="M16.6667 16.25V8.75C16.6667 8.3618 16.6667 8.1676 16.6032 8.0144 16.5187 7.8102 16.3564 7.648 16.1523 7.5634 15.9991 7.5 15.8049 7.5 15.4167 7.5 15.0284 7.5 14.8343 7.5 14.6811 7.5634 14.4769 7.648 14.3147 7.8102 14.2301 8.0144 14.1667 8.1676 14.1667 8.3618 14.1667 8.75V16.25C14.1667 16.6383 14.1667 16.8324 14.2301 16.9856 14.3147 17.1898 14.4769 17.352 14.6811 17.4366 14.8343 17.5 15.0284 17.5 15.4167 17.5 15.8049 17.5 15.9991 17.5 16.1523 17.4366 16.3564 17.352 16.5187 17.1898 16.6032 16.9856 16.6667 16.8324 16.6667 16.6383 16.6667 16.25Z" stroke="currentColor" stroke-linecap="round" stroke-linejoin="round" stroke-width="2"/>
</svg>
