<svg xmlns="http://www.w3.org/2000/svg" width="20" height="20" viewBox="0 0 20 20" fill="none">
  <path d="M13.3333 2.8205V1.6667M16.3588 3.6364L17.1734 2.8205M17.1813 6.6667H18.3333" stroke="currentColor" stroke-linecap="round" stroke-linejoin="round" stroke-width="2"/>
  <path d="M18.3333 10C18.3333 13.9283 18.3333 15.8926 17.1129 17.1129 15.8926 18.3333 13.9283 18.3333 10 18.3333 6.0716 18.3333 4.1074 18.3333 2.8871 17.1129 1.6667 15.8926 1.6667 13.9283 1.6667 10 1.6667 6.0716 1.6667 4.1074 2.8871 2.8871 4.1074 1.6667 6.0716 1.6667 10 1.6667" stroke="currentColor" stroke-linecap="round" stroke-linejoin="round" stroke-width="2"/>
  <path d="M9.8764 6.6724H12.5615C12.8773 6.6724 13.1332 6.9348 13.1332 7.2585V10.0295M2.2998 11.6319C4.1942 11.8534 8.9477 11.2614 12.4095 7.408" stroke="currentColor" stroke-linecap="round" stroke-linejoin="round" stroke-width="2"/>
</svg>
