<svg xmlns="http://www.w3.org/2000/svg" width="20" height="20" viewBox="0 0 20 20" fill="none">
  <path d="M8.3333 14.1667H7.5C7.0398 14.1667 6.6667 13.7936 6.6667 13.3333L6.6667 8.3333C6.6667 7.8731 7.0398 7.5 7.5 7.5L8.3333 7.5C8.7936 7.5 9.1667 7.8731 9.1667 8.3333L9.1667 13.3333C9.1667 13.7936 8.7936 14.1667 8.3333 14.1667Z" stroke="currentColor" stroke-linecap="round" stroke-linejoin="round" stroke-width="2"/>
  <path d="M14.1667 14.1667H13.3333C12.8731 14.1667 12.5 13.7936 12.5 13.3333L12.5 5C12.5 4.5398 12.8731 4.1667 13.3333 4.1667L14.1667 4.1667C14.6269 4.1667 15 4.5398 15 5L15 13.3333C15 13.7936 14.6269 14.1667 14.1667 14.1667Z" stroke="currentColor" stroke-linecap="round" stroke-linejoin="round" stroke-width="2"/>
  <path d="M2.5 2.5V10.8333C2.5 13.976 2.5 15.5474 3.4763 16.5237 4.4526 17.5 6.024 17.5 9.1667 17.5H17.5" stroke="currentColor" stroke-linecap="round" stroke-linejoin="round" stroke-width="2"/>
</svg>
