<svg xmlns="http://www.w3.org/2000/svg" width="20" height="20" viewBox="0 0 20 20" fill="none">
  <path d="M5.8333 12.7051L8.2282 9.6099C8.4368 9.3402 8.5412 9.2053 8.6552 9.1128 8.9979 8.8347 9.4559 8.7613 9.864 8.9188 9.9998 8.9712 10.1387 9.067 10.4167 9.2586 10.6947 9.4502 10.8336 9.546 10.9693 9.5983 11.3774 9.7559 11.8354 9.6824 12.1782 9.4043 12.2921 9.3118 12.3964 9.177 12.6052 8.9073L13.2551 8.0672C14.0694 7.0148 14.4766 6.4885 15.0345 6.4566 15.5924 6.4246 16.0533 6.9012 16.9751 7.8542L17.5 8.397" stroke="currentColor" stroke-linecap="round" stroke-linejoin="round" stroke-width="2"/>
  <path d="M17.5 17.5H8.3333C5.5835 17.5 4.2085 17.5 3.3543 16.6458 2.5 15.7914 2.5 14.4165 2.5 11.6667V2.5" stroke="currentColor" stroke-linecap="round" stroke-width="2"/>
</svg>
