<svg xmlns="http://www.w3.org/2000/svg" width="20" height="20" viewBox="0 0 20 20" fill="none">
  <path d="M8.3333 7.5V12.5C8.3333 13.2766 8.3333 13.6648 8.2065 13.9712 8.0373 14.3795 7.7129 14.704 7.3045 14.8732 6.9982 15 6.6099 15 5.8333 15 5.0568 15 4.6685 15 4.3622 14.8732 3.9538 14.704 3.6294 14.3795 3.4602 13.9712 3.3333 13.6648 3.3333 13.2766 3.3333 12.5V7.5C3.3333 6.7234 3.3333 6.3351 3.4602 6.0289 3.6294 5.6205 3.9538 5.296 4.3622 5.1269 4.6685 5 5.0568 5 5.8333 5 6.6099 5 6.9982 5 7.3045 5.1269 7.7129 5.296 8.0373 5.6205 8.2065 6.0289 8.3333 6.3351 8.3333 6.7234 8.3333 7.5Z" stroke="currentColor" stroke-linecap="round" stroke-linejoin="round" stroke-width="2"/>
  <path d="M16.6667 11.6667V12.5C16.6667 13.2766 16.6667 13.6648 16.5398 13.9712 16.3707 14.3795 16.0462 14.704 15.6378 14.8732 15.3315 15 14.9432 15 14.1667 15 13.3901 15 13.0018 15 12.6955 14.8732 12.2872 14.704 11.9627 14.3795 11.7935 13.9712 11.6667 13.6648 11.6667 13.2766 11.6667 12.5V11.6667C11.6667 10.8901 11.6667 10.5018 11.7935 10.1955 11.9627 9.7872 12.2872 9.4627 12.6955 9.2935 13.0018 9.1667 13.3901 9.1667 14.1667 9.1667 14.9432 9.1667 15.3315 9.1667 15.6378 9.2935 16.0462 9.4627 16.3707 9.7872 16.5398 10.1955 16.6667 10.5018 16.6667 10.8901 16.6667 11.6667Z" stroke="currentColor" stroke-linecap="round" stroke-linejoin="round" stroke-width="2"/>
  <path d="M14.1667 9.1667V2.5M14.1667 15V17.5" stroke="currentColor" stroke-linecap="round" stroke-linejoin="round" stroke-width="2"/>
  <path d="M5.8333 5V2.5M5.8333 15V17.5" stroke="currentColor" stroke-linecap="round" stroke-linejoin="round" stroke-width="2"/>
</svg>
