<svg xmlns="http://www.w3.org/2000/svg" width="20" height="20" viewBox="0 0 20 20" fill="none">
  <path d="M2.9167 7.9167V15.4167C2.9167 15.8049 2.9167 15.9991 2.9801 16.1523 3.0647 16.3564 3.2269 16.5187 3.4311 16.6032 3.5842 16.6667 3.7784 16.6667 4.1667 16.6667 4.5549 16.6667 4.7491 16.6667 4.9022 16.6032 5.1064 16.5187 5.2687 16.3564 5.3532 16.1523 5.4167 15.9991 5.4167 15.8049 5.4167 15.4167V7.9167C5.4167 7.5284 5.4167 7.3342 5.3532 7.1811 5.2687 6.9769 5.1064 6.8147 4.9022 6.7301 4.7491 6.6667 4.5549 6.6667 4.1667 6.6667 3.7784 6.6667 3.5842 6.6667 3.4311 6.7301 3.2269 6.8147 3.0647 6.9769 2.9801 7.1811 2.9167 7.3342 2.9167 7.5284 2.9167 7.9167Z" stroke="currentColor" stroke-linecap="square" stroke-linejoin="round" stroke-width="2"/>
  <path d="M8.75 4.5833V15.4163C8.75 15.8045 8.75 15.9987 8.8134 16.1518 8.898 16.356 9.0602 16.5183 9.2644 16.6028 9.4176 16.6663 9.6118 16.6663 10 16.6663 10.3882 16.6663 10.5824 16.6663 10.7356 16.6028 10.9398 16.5183 11.102 16.356 11.1866 16.1518 11.25 15.9987 11.25 15.8045 11.25 15.4163V4.5833C11.25 4.1951 11.25 4.0009 11.1866 3.8478 11.102 3.6436 10.9398 3.4813 10.7356 3.3968 10.5824 3.3333 10.3882 3.3333 10 3.3333 9.6118 3.3333 9.4176 3.3333 9.2644 3.3968 9.0602 3.4813 8.898 3.6436 8.8134 3.8478 8.75 4.0009 8.75 4.1951 8.75 4.5833Z" stroke="currentColor" stroke-linecap="square" stroke-linejoin="round" stroke-width="2"/>
  <path d="M14.5833 10.4167V15.4167C14.5833 15.8049 14.5833 15.9991 14.6468 16.1523 14.7313 16.3564 14.8936 16.5187 15.0978 16.6032 15.2509 16.6667 15.4451 16.6667 15.8333 16.6667 16.2216 16.6667 16.4157 16.6667 16.5689 16.6032 16.7731 16.5187 16.9353 16.3564 17.0199 16.1523 17.0833 15.9991 17.0833 15.8049 17.0833 15.4167V10.4167C17.0833 10.0284 17.0833 9.8343 17.0199 9.6811 16.9353 9.4769 16.7731 9.3147 16.5689 9.2301 16.4157 9.1667 16.2216 9.1667 15.8333 9.1667 15.4451 9.1667 15.2509 9.1667 15.0978 9.2301 14.8936 9.3147 14.7313 9.4769 14.6468 9.6811 14.5833 9.8343 14.5833 10.0284 14.5833 10.4167Z" stroke="currentColor" stroke-linecap="square" stroke-linejoin="round" stroke-width="2"/>
</svg>
