<svg xmlns="http://www.w3.org/2000/svg" width="20" height="20" viewBox="0 0 20 20" fill="none">
  <path d="M16.6667 7.5C16.004 4.1788 12.9273 1.6667 9.2328 1.6667 5.0546 1.6667 1.6667 4.8793 1.6667 8.8417 1.6667 10.7455 2.4485 12.4753 3.7238 13.759 4.0046 14.0417 4.192 14.4278 4.1164 14.8252 3.9915 15.4751 3.7086 16.0813 3.2942 16.5864 4.3844 16.7874 5.5179 16.6064 6.49 16.0939 6.8337 15.9128 7.0055 15.8223 7.1267 15.8038 7.2116 15.791 7.3222 15.803 7.5 15.8335" stroke="currentColor" stroke-linecap="round" stroke-linejoin="round" stroke-width="2"/>
  <path d="M9.1667 13.5514C9.1667 15.9728 11.219 17.9362 13.75 17.9362 14.0476 17.9365 14.3443 17.909 14.6367 17.8542 14.8471 17.8146 14.9523 17.7948 15.0258 17.8061 15.0992 17.8173 15.2033 17.8727 15.4115 17.9833 16.0003 18.2965 16.687 18.4071 17.3474 18.2843 17.0964 17.9756 16.925 17.6052 16.8493 17.208 16.8035 16.9652 16.9171 16.7292 17.0872 16.5564 17.8598 15.7719 18.3333 14.7148 18.3333 13.5514 18.3333 11.13 16.281 9.1667 13.75 9.1667 11.219 9.1667 9.1667 11.13 9.1667 13.5514Z" stroke="currentColor" stroke-linejoin="round" stroke-width="2"/>
</svg>
