<svg xmlns="http://www.w3.org/2000/svg" width="20" height="20" viewBox="0 0 20 20" fill="none">
  <path d="M1.6665 1.6667L18.3332 18.3333" stroke="currentColor" stroke-linecap="round" stroke-linejoin="round" stroke-width="2"/>
  <path d="M5.5337 2.2001C5.8182 2.1844 6.127 2.1712 6.4637 2.1568 7.5795 2.1091 8.7676 2.0833 10.0002 2.0833 11.2328 2.0833 12.4209 2.1091 13.5367 2.1568 15.5704 2.2438 16.5873 2.2873 17.3918 3.0979 18.1962 3.9084 18.2312 4.8974 18.3009 6.8752 18.3223 7.4807 18.3335 8.1077 18.3335 8.75 18.3335 9.3923 18.3223 10.0193 18.3009 10.6248 18.2363 12.4587 18.2015 13.4424 17.5555 14.222" stroke="currentColor" stroke-linecap="round" stroke-linejoin="round" stroke-width="2"/>
  <path d="M2.6082 3.099C1.8037 3.9095 1.7688 4.8984 1.699 6.8763 1.6777 7.4817 1.6665 8.1088 1.6665 8.7511 1.6665 9.3934 1.6777 10.0204 1.699 10.6258 1.7688 12.6037 1.8037 13.5927 2.6082 14.4032 3.4127 15.2137 4.4295 15.2573 6.4633 15.3443 6.5308 15.3472 6.5985 15.3499 6.6665 15.3527V17.3095C6.6665 17.6454 6.9388 17.9178 7.2747 17.9178 7.42 17.9178 7.5604 17.8658 7.6707 17.7713L9.4869 16.2138C9.9435 15.8223 10.1718 15.6266 10.4431 15.5233 10.7144 15.4199 11.0233 15.414 11.6409 15.4023 12.2913 15.39 12.9247 15.3704 13.5363 15.3443 14.2259 15.3148 14.7988 15.2902 15.2859 15.2392" stroke="currentColor" stroke-linecap="round" stroke-linejoin="round" stroke-width="2"/>
  <path d="M5.9373 8.75H5.8331M14.2707 8.75H14.1665M6.0415 8.75C6.0415 8.8651 5.9482 8.9583 5.8331 8.9583 5.7181 8.9583 5.6248 8.8651 5.6248 8.75 5.6248 8.6349 5.7181 8.5417 5.8331 8.5417 5.9482 8.5417 6.0415 8.6349 6.0415 8.75ZM14.3748 8.75C14.3748 8.8651 14.2815 8.9583 14.1665 8.9583 14.0514 8.9583 13.9582 8.8651 13.9582 8.75 13.9582 8.6349 14.0514 8.5417 14.1665 8.5417 14.2815 8.5417 14.3748 8.6349 14.3748 8.75Z" stroke="currentColor" stroke-linecap="round" stroke-linejoin="round" stroke-width="2"/>
</svg>
