<svg xmlns="http://www.w3.org/2000/svg" width="20" height="20" viewBox="0 0 20 20" fill="none">
  <path d="M6.25 7.5H13.75M6.25 10.8333H10.8333" stroke="currentColor" stroke-linecap="round" stroke-linejoin="round" stroke-width="2"/>
  <path d="M18.3333 3.75C18.3333 4.9006 17.4006 5.8333 16.25 5.8333 15.0994 5.8333 14.1667 4.9006 14.1667 3.75 14.1667 2.5994 15.0994 1.6667 16.25 1.6667 17.4006 1.6667 18.3333 2.5994 18.3333 3.75Z" stroke="currentColor" stroke-linecap="round" stroke-linejoin="round" stroke-width="2"/>
  <path d="M11.6411 2.5154C11.1048 2.5053 10.557 2.5 10 2.5 8.7674 2.5 7.5793 2.5257 6.4635 2.5735 4.4298 2.6605 3.4129 2.704 2.6084 3.5145 1.8039 4.3251 1.769 5.314 1.6992 7.2919 1.6779 7.8973 1.6667 8.5243 1.6667 9.1667 1.6667 9.809 1.6779 10.436 1.6992 11.0414 1.769 13.0193 1.8039 14.0083 2.6084 14.8187 3.4129 15.6293 4.4297 15.6728 6.4635 15.7598 6.531 15.7627 6.5987 15.7655 6.6667 15.7683V17.7251C6.6667 18.061 6.939 18.3333 7.2749 18.3333 7.4202 18.3333 7.5606 18.2813 7.6709 18.1868L9.4871 16.6294C9.9437 16.2379 10.172 16.0422 10.4433 15.9388 10.7147 15.8355 11.0235 15.8296 11.6411 15.8179 12.2915 15.8056 12.9248 15.786 13.5364 15.7598 15.5703 15.6728 16.5872 15.6293 17.3916 14.8188 18.1961 14.0083 18.231 13.0193 18.3008 11.0414 18.3221 10.436 18.3333 9.809 18.3333 9.1667 18.3333 8.7428 18.3284 8.3255 18.319 7.9167" stroke="currentColor" stroke-linecap="round" stroke-linejoin="round" stroke-width="2"/>
</svg>
