<svg xmlns="http://www.w3.org/2000/svg" width="20" height="20" viewBox="0 0 20 20" fill="none">
  <path d="M6.25 7.0833H13.75M6.25 10.4167H10.8333" stroke="currentColor" stroke-linecap="round" stroke-linejoin="round" stroke-width="2"/>
  <path d="M18.3333 8.75C18.3333 8.1077 18.3221 7.4807 18.3008 6.8752 18.231 4.8974 18.1961 3.9084 17.3916 3.0979 16.5872 2.2873 15.5703 2.2438 13.5365 2.1568 12.4207 2.1091 11.2326 2.0833 10 2.0833 8.7674 2.0833 7.5793 2.1091 6.4635 2.1568 4.4298 2.2438 3.4129 2.2873 2.6084 3.0979 1.8039 3.9084 1.769 4.8974 1.6992 6.8752 1.6779 7.4807 1.6667 8.1077 1.6667 8.75 1.6667 9.3923 1.6779 10.0193 1.6992 10.6248 1.769 12.6027 1.8039 13.5916 2.6084 14.4022 3.4129 15.2127 4.4298 15.2562 6.4636 15.3432 7.0752 15.3693 7.7085 15.3889 8.3589 15.4013 8.9765 15.4129 9.2853 15.4188 9.5567 15.5222 9.828 15.6255 10.0563 15.8212 10.5129 16.2128L12.3292 17.7702C12.4394 17.8647 12.5798 17.9167 12.7251 17.9167 13.061 17.9167 13.3333 17.6443 13.3333 17.3084V15.3516C13.4013 15.3488 13.4691 15.3461 13.5365 15.3432 15.5703 15.2562 16.5872 15.2127 17.3916 14.4021 18.1961 13.5916 18.231 12.6027 18.3008 10.6248 18.3221 10.0193 18.3333 9.3923 18.3333 8.75Z" stroke="currentColor" stroke-linecap="round" stroke-linejoin="round" stroke-width="2"/>
</svg>
