<svg xmlns="http://www.w3.org/2000/svg" width="20" height="20" viewBox="0 0 20 20" fill="none">
  <path d="M10 2.5C8.7674 2.5 7.5793 2.5257 6.4635 2.5735 4.4298 2.6605 3.4129 2.704 2.6084 3.5145 1.8039 4.3251 1.769 5.314 1.6992 7.2919 1.6779 7.8973 1.6667 8.5243 1.6667 9.1667 1.6667 9.809 1.6779 10.436 1.6992 11.0414 1.769 13.0193 1.8039 14.0083 2.6084 14.8187 3.4129 15.6293 4.4297 15.6728 6.4635 15.7598 6.531 15.7627 6.5987 15.7655 6.6667 15.7683V17.7251C6.6667 18.061 6.939 18.3333 7.2749 18.3333 7.4202 18.3333 7.5606 18.2813 7.6709 18.1868L9.4871 16.6294C9.9437 16.2379 10.172 16.0422 10.4433 15.9388 10.7147 15.8355 11.0235 15.8296 11.6411 15.8179 12.2915 15.8056 12.9248 15.786 13.5364 15.7598 15.5703 15.6728 16.5872 15.6293 17.3916 14.8188 18.1961 14.0083 18.231 13.0193 18.3008 11.0414 18.3175 10.5676 18.328 10.0806 18.3318 9.5833" stroke="currentColor" stroke-linecap="round" stroke-linejoin="round" stroke-width="2"/>
  <path d="M17.5908 2.1651C16.9776 1.8513 16.2272 1.6667 15.4167 1.6667 14.6062 1.6667 13.8558 1.8513 13.2425 2.1651 12.9417 2.319 12.7914 2.396 12.6457 2.6379 12.5 2.8799 12.5 3.1142 12.5 3.5827V4.7457C12.5 6.6402 13.9721 7.6934 14.8246 8.1446 15.0623 8.2704 15.1813 8.3333 15.4167 8.3333 15.6521 8.3333 15.771 8.2704 16.0087 8.1446 16.8613 7.6934 18.3333 6.6402 18.3333 4.7457L18.3333 3.5827C18.3333 3.1142 18.3333 2.8799 18.1877 2.6379 18.0419 2.396 17.8916 2.319 17.5908 2.1651Z" stroke="currentColor" stroke-linecap="round" stroke-linejoin="round" stroke-width="2"/>
  <path d="M10.1048 9.1667H10.0006M6.7708 9.1667H6.6667M10.2089 9.1667C10.2089 9.2818 10.1157 9.375 10.0006 9.375 9.8856 9.375 9.7923 9.2818 9.7923 9.1667 9.7923 9.0516 9.8856 8.9583 10.0006 8.9583 10.1157 8.9583 10.2089 9.0516 10.2089 9.1667ZM6.875 9.1667C6.875 9.2818 6.7817 9.375 6.6667 9.375 6.5516 9.375 6.4583 9.2818 6.4583 9.1667 6.4583 9.0516 6.5516 8.9583 6.6667 8.9583 6.7817 8.9583 6.875 9.0516 6.875 9.1667Z" stroke="currentColor" stroke-linecap="round" stroke-linejoin="round" stroke-width="2"/>
</svg>
