<svg xmlns="http://www.w3.org/2000/svg" width="20" height="20" viewBox="0 0 20 20" fill="none">
  <path d="M11.6411 2.4998C11.2304 2.4939 10.4223 2.4984 10 2.4984 8.7674 2.4984 7.5793 2.5241 6.4635 2.5719 4.4298 2.6589 3.4129 2.7024 2.6084 3.5129 1.8039 4.3235 1.769 5.3124 1.6992 7.2903 1.6779 7.8957 1.6667 8.5228 1.6667 9.165 1.6667 9.8073 1.6779 10.4344 1.6992 11.0397 1.769 13.0177 1.8039 14.0067 2.6084 14.8172 3.4129 15.6277 4.4297 15.6712 6.4635 15.7583 6.531 15.7611 6.5987 15.7639 6.6667 15.7667V17.7234C6.6667 18.0594 6.939 18.3317 7.2749 18.3317 7.4202 18.3317 7.5606 18.2797 7.6709 18.1852L9.4871 16.6278C9.9437 16.2363 10.172 16.0405 10.4433 15.9372 10.7147 15.8338 11.0235 15.828 11.6411 15.8163 12.2915 15.8039 12.9248 15.7844 13.5364 15.7583 15.5703 15.6712 16.5872 15.6277 17.3916 14.8172 18.1961 14.0067 18.231 13.0177 18.3008 11.0397 18.3221 10.4344 18.3333 9.8073 18.3333 9.165 18.3333 8.8503 18.3307 8.5891 18.3253 8.3333" stroke="currentColor" stroke-linecap="round" stroke-linejoin="round" stroke-width="2"/>
  <path d="M18.3333 5.8333L14.1667 1.6667M18.3333 1.6667L14.1667 5.8333" stroke="currentColor" stroke-linecap="round" stroke-linejoin="round" stroke-width="2"/>
  <path d="M10.1048 9.1667H10.0006M6.7708 9.1667H6.6667M10.2089 9.1667C10.2089 9.2818 10.1157 9.375 10.0006 9.375 9.8856 9.375 9.7923 9.2818 9.7923 9.1667 9.7923 9.0516 9.8856 8.9583 10.0006 8.9583 10.1157 8.9583 10.2089 9.0516 10.2089 9.1667ZM6.875 9.1667C6.875 9.2818 6.7817 9.375 6.6667 9.375 6.5516 9.375 6.4583 9.2818 6.4583 9.1667 6.4583 9.0516 6.5516 8.9583 6.6667 8.9583 6.7817 8.9583 6.875 9.0516 6.875 9.1667Z" stroke="currentColor" stroke-linecap="round" stroke-linejoin="round" stroke-width="2"/>
</svg>
