<svg xmlns="http://www.w3.org/2000/svg" width="20" height="20" viewBox="0 0 20 20" fill="none">
  <path d="M18.3008 7.5C18.3221 8.1054 18.3333 8.5243 18.3333 9.1667 18.3333 9.809 18.3221 10.436 18.3008 11.0414 18.231 13.0193 18.1961 14.0083 17.3916 14.8188 16.5872 15.6293 15.5703 15.6728 13.5364 15.7598 12.9248 15.786 12.2915 15.8056 11.6411 15.8179 11.0235 15.8296 10.7147 15.8355 10.4433 15.9388 10.172 16.0422 9.9437 16.2379 9.4871 16.6294L7.6709 18.1868C7.5606 18.2813 7.4202 18.3333 7.2749 18.3333 6.939 18.3333 6.6667 18.061 6.6667 17.7251V15.7683C6.5987 15.7655 6.531 15.7627 6.4635 15.7598 4.4297 15.6728 3.4129 15.6293 2.6084 14.8187 1.8039 14.0083 1.769 13.0193 1.6992 11.0414 1.6779 10.436 1.6667 9.809 1.6667 9.1667 1.6667 8.5243 1.6779 7.8973 1.6992 7.2919 1.769 5.314 1.8039 4.3251 2.6084 3.5145 3.4129 2.704 4.4298 2.6605 6.4635 2.5735 7.5793 2.5257 8.7674 2.5 10 2.5 10.4223 2.5 10.8393 2.503 11.25 2.5089" stroke="currentColor" stroke-linecap="round" stroke-linejoin="round" stroke-width="2"/>
  <path d="M18.3333 4.1667H13.3333M15.8333 1.6667V6.6667" stroke="currentColor" stroke-linecap="round" stroke-linejoin="round" stroke-width="2"/>
  <path d="M10.1048 9.1667H10.0006M6.7708 9.1667H6.6667M10.2089 9.1667C10.2089 9.2818 10.1157 9.375 10.0006 9.375 9.8856 9.375 9.7923 9.2818 9.7923 9.1667 9.7923 9.0516 9.8856 8.9583 10.0006 8.9583 10.1157 8.9583 10.2089 9.0516 10.2089 9.1667ZM6.875 9.1667C6.875 9.2818 6.7817 9.375 6.6667 9.375 6.5516 9.375 6.4583 9.2818 6.4583 9.1667 6.4583 9.0516 6.5516 8.9583 6.6667 8.9583 6.7817 8.9583 6.875 9.0516 6.875 9.1667Z" stroke="currentColor" stroke-linecap="round" stroke-linejoin="round" stroke-width="2"/>
</svg>
