<svg xmlns="http://www.w3.org/2000/svg" width="20" height="20" viewBox="0 0 20 20" fill="none">
  <path d="M18.327 8.3326C18.3312 8.6072 18.3333 8.8851 18.3333 9.166 18.3333 9.8083 18.3221 10.4353 18.3008 11.0408 18.231 13.0186 18.1961 14.0076 17.3916 14.8181 16.5872 15.6287 15.5703 15.6722 13.5364 15.7592 12.9248 15.7853 12.2915 15.8049 11.6411 15.8172 11.0235 15.8289 10.7147 15.8347 10.4433 15.9381 10.172 16.0414 9.9437 16.2372 9.4871 16.6288L7.6709 18.1862C7.5606 18.2807 7.4202 18.3327 7.2749 18.3327 6.939 18.3327 6.6667 18.0603 6.6667 17.7244V15.7676C6.5987 15.7648 6.531 15.762 6.4635 15.7592 4.4297 15.6722 3.4129 15.6287 2.6084 14.8181 1.8039 14.0076 1.769 13.0186 1.6992 11.0408 1.6779 10.4353 1.6667 9.8083 1.6667 9.166 1.6667 8.5237 1.6779 7.8966 1.6992 7.2912 1.769 5.3133 1.8039 4.3244 2.6084 3.5139 3.4129 2.7033 4.4298 2.6598 6.4635 2.5728 7.3257 2.5359 8.231 2.5122 9.1667 2.5033" stroke="currentColor" stroke-linecap="round" stroke-linejoin="round" stroke-width="2"/>
  <path d="M15 7.5C15 7.5 11.6667 5.4412 11.6667 3.4491 11.6667 2.4647 12.3684 1.6667 13.3333 1.6667 13.8333 1.6667 14.3333 1.8382 15 2.5245 15.6667 1.8382 16.1667 1.6667 16.6667 1.6667 17.6316 1.6667 18.3333 2.4647 18.3333 3.4491 18.3333 5.4412 15 7.5 15 7.5Z" stroke="currentColor" stroke-linecap="round" stroke-linejoin="round" stroke-width="2"/>
  <path d="M10.1048 9.1667H10.0006M6.7708 9.1667H6.6667M10.2089 9.1667C10.2089 9.2818 10.1157 9.375 10.0006 9.375 9.8856 9.375 9.7923 9.2818 9.7923 9.1667 9.7923 9.0516 9.8856 8.9583 10.0006 8.9583 10.1157 8.9583 10.2089 9.0516 10.2089 9.1667ZM6.875 9.1667C6.875 9.2818 6.7817 9.375 6.6667 9.375 6.5516 9.375 6.4583 9.2818 6.4583 9.1667 6.4583 9.0516 6.5516 8.9583 6.6667 8.9583 6.7817 8.9583 6.875 9.0516 6.875 9.1667Z" stroke="currentColor" stroke-linecap="round" stroke-linejoin="round" stroke-width="2"/>
</svg>
