<svg xmlns="http://www.w3.org/2000/svg" width="20" height="20" viewBox="0 0 20 20" fill="none">
  <path d="M11.6411 2.0988C11.1048 2.0886 10.557 2.0833 10 2.0833 8.7674 2.0833 7.5793 2.1091 6.4635 2.1568 4.4298 2.2438 3.4129 2.2873 2.6084 3.0979 1.8039 3.9084 1.769 4.8974 1.6992 6.8752 1.6779 7.4807 1.6667 8.1077 1.6667 8.75 1.6667 9.3923 1.6779 10.0193 1.6992 10.6248 1.769 12.6027 1.8039 13.5916 2.6084 14.4021 3.4129 15.2127 4.4297 15.2562 6.4635 15.3432 6.531 15.3461 6.5987 15.3488 6.6667 15.3516V17.3084C6.6667 17.6443 6.939 17.9167 7.2749 17.9167 7.4202 17.9167 7.5606 17.8647 7.6709 17.7702L9.4871 16.2128C9.9437 15.8212 10.172 15.6255 10.4433 15.5222 10.7147 15.4188 11.0235 15.4129 11.6411 15.4013 12.2915 15.3889 12.9248 15.3693 13.5364 15.3432 15.5703 15.2562 16.5872 15.2127 17.3916 14.4022 18.1961 13.5916 18.231 12.6027 18.3008 10.6248 18.3221 10.0193 18.3333 9.3923 18.3333 8.75 18.3333 8.6103 18.3328 8.4714 18.3318 8.3333" stroke="currentColor" stroke-linecap="round" stroke-linejoin="round" stroke-width="2"/>
  <path d="M18.3334 4.1667C18.3334 5.3173 17.4007 6.25 16.2501 6.25 15.0994 6.25 14.1668 5.3173 14.1668 4.1667 14.1668 3.0161 15.0994 2.0833 16.2501 2.0833 17.4007 2.0833 18.3334 3.0161 18.3334 4.1667Z" stroke="currentColor" stroke-linecap="round" stroke-linejoin="round" stroke-width="2"/>
  <path d="M10.1048 8.75H10.0006M6.7708 8.75H6.6667M13.4375 8.75H13.3333M10.2089 8.75C10.2089 8.8651 10.1157 8.9583 10.0006 8.9583 9.8856 8.9583 9.7923 8.8651 9.7923 8.75 9.7923 8.6349 9.8856 8.5417 10.0006 8.5417 10.1157 8.5417 10.2089 8.6349 10.2089 8.75ZM6.875 8.75C6.875 8.8651 6.7817 8.9583 6.6667 8.9583 6.5516 8.9583 6.4583 8.8651 6.4583 8.75 6.4583 8.6349 6.5516 8.5417 6.6667 8.5417 6.7817 8.5417 6.875 8.6349 6.875 8.75ZM13.5417 8.75C13.5417 8.8651 13.4484 8.9583 13.3333 8.9583 13.2183 8.9583 13.125 8.8651 13.125 8.75 13.125 8.6349 13.2183 8.5417 13.3333 8.5417 13.4484 8.5417 13.5417 8.6349 13.5417 8.75Z" stroke="currentColor" stroke-linecap="round" stroke-linejoin="round" stroke-width="2"/>
</svg>
