<svg xmlns="http://www.w3.org/2000/svg" width="20" height="20" viewBox="0 0 20 20" fill="none">
  <path d="M1.6667 1.6667L18.3333 18.3333" stroke="currentColor" stroke-linecap="round" stroke-linejoin="round" stroke-width="2"/>
  <path d="M5.5335 2.2001C5.818 2.1844 6.1268 2.1712 6.4635 2.1568 7.5793 2.1091 8.7674 2.0833 10 2.0833 11.2326 2.0833 12.4207 2.1091 13.5365 2.1568 15.5703 2.2438 16.5871 2.2873 17.3916 3.0979 18.1961 3.9084 18.231 4.8974 18.3008 6.8752 18.3221 7.4807 18.3333 8.1077 18.3333 8.75 18.3333 9.3923 18.3221 10.0193 18.3008 10.6248 18.236 12.4587 18.2013 13.4424 17.5553 14.222" stroke="currentColor" stroke-linecap="round" stroke-linejoin="round" stroke-width="2"/>
  <path d="M2.6084 3.099C1.8039 3.9095 1.769 4.8984 1.6992 6.8763 1.6779 7.4817 1.6667 8.1088 1.6667 8.7511 1.6667 9.3934 1.6779 10.0204 1.6992 10.6258 1.769 12.6037 1.8039 13.5927 2.6084 14.4032 3.4129 15.2137 4.4297 15.2573 6.4635 15.3443 6.531 15.3472 6.5987 15.3499 6.6667 15.3527V17.3095C6.6667 17.6454 6.939 17.9178 7.2749 17.9178 7.4202 17.9178 7.5606 17.8658 7.6709 17.7713L9.4871 16.2138C9.9437 15.8223 10.172 15.6266 10.4433 15.5233 10.7147 15.4199 11.0235 15.414 11.6411 15.4023 12.2915 15.39 12.9248 15.3704 13.5364 15.3443 14.2262 15.3148 14.7989 15.2902 15.2861 15.2392" stroke="currentColor" stroke-linecap="round" stroke-linejoin="round" stroke-width="2"/>
</svg>
