<svg xmlns="http://www.w3.org/2000/svg" width="20" height="20" viewBox="0 0 20 20" fill="none">
  <path d="M2.0833 10C2.0833 6.268 2.0833 4.4021 3.2427 3.2427 4.4021 2.0833 6.268 2.0833 10 2.0833 13.7319 2.0833 15.5979 2.0833 16.7573 3.2427 17.9167 4.4021 17.9167 6.268 17.9167 10 17.9167 13.7319 17.9167 15.5979 16.7573 16.7573 15.5979 17.9167 13.7319 17.9167 10 17.9167 6.268 17.9167 4.4021 17.9167 3.2427 16.7573 2.0833 15.5979 2.0833 13.7319 2.0833 10Z" stroke="currentColor" stroke-width="2"/>
  <path d="M6.6667 11.4583C6.6667 11.4583 8 12.2188 8.6667 13.3333 8.6667 13.3333 10.6667 8.9583 13.3333 7.5" stroke="currentColor" stroke-linecap="round" stroke-linejoin="round" stroke-width="2"/>
</svg>
