<svg xmlns="http://www.w3.org/2000/svg" width="20" height="20" viewBox="0 0 20 20" fill="none">
  <path d="M17.8731 6.8333C17.9167 7.7085 17.9167 8.7495 17.9167 10 17.9167 13.7319 17.9167 15.5979 16.7573 16.7573 15.5979 17.9167 13.7319 17.9167 10 17.9167 6.268 17.9167 4.4021 17.9167 3.2427 16.7573 2.0833 15.5979 2.0833 13.7319 2.0833 10 2.0833 6.268 2.0833 4.4021 3.2427 3.2427 4.4021 2.0833 6.268 2.0833 10 2.0833 10.8933 2.0833 11.6797 2.0833 12.375 2.0992" stroke="currentColor" stroke-linecap="round" stroke-width="2"/>
  <path d="M6.6667 9.5833C6.6667 9.5833 7.9167 9.5833 9.5833 12.5 9.5833 12.5 13.799 4.8611 17.9167 3.3333" stroke="currentColor" stroke-linecap="round" stroke-linejoin="round" stroke-width="2"/>
</svg>
