<svg xmlns="http://www.w3.org/2000/svg" width="20" height="20" viewBox="0 0 20 20" fill="none">
  <path d="M18.3333 8.3333V11.4261C18.3333 13.6616 18.3333 14.7793 17.687 15.5218 17.1092 16.1854 16.1932 16.3448 14.4772 16.53 14.2701 16.5523 14.0833 16.4143 13.9935 16.2263 13.7208 15.6557 13.1544 15.2637 12.5 15.2637 11.726 15.2637 11.0752 15.8122 10.8877 16.5557 10.8373 16.7553 10.6841 16.9251 10.4793 16.9464L7.1642 17.291C4.5958 17.558 3.3116 17.6915 2.4891 16.9178 1.6667 16.1439 1.6667 14.8023 1.6667 12.1191V9.1996" stroke="currentColor" stroke-linecap="round" stroke-linejoin="round" stroke-width="2"/>
  <path d="M5.7748 9.9313L15.3908 9.5285C17.6754 9.4328 19.0579 8.7628 17.9363 6.3829 17.1568 4.7291 15.7553 3.4052 14.0192 2.6883 12.8952 2.2242 12.0101 2.6975 11.0802 3.2467 10.7622 3.4344 10.899 3.7983 10.899 4.092 10.899 5.0243 10.1466 5.78 9.2184 5.78 8.8098 5.78 8.4352 5.6336 8.1439 5.3901 7.3502 4.7265 1.3938 8.6018 1.6764 9.4944 1.8665 10.0948 3.1693 10.0403 5.7748 9.9313Z" stroke="currentColor" stroke-linejoin="round" stroke-width="2"/>
  <path d="M5.8333 13.5091C5.8333 14.1995 6.393 14.7591 7.0833 14.7591 7.7737 14.7591 8.3333 14.1995 8.3333 13.5091 8.3333 12.8188 7.7737 12.2591 7.0833 12.2591 6.393 12.2591 5.8333 12.8188 5.8333 13.5091Z" stroke="currentColor" stroke-width="2"/>
  <path d="M13.4375 6.6667H13.3333M13.5417 6.6667C13.5417 6.7817 13.4484 6.875 13.3333 6.875 13.2183 6.875 13.125 6.7817 13.125 6.6667 13.125 6.5516 13.2183 6.4583 13.3333 6.4583 13.4484 6.4583 13.5417 6.5516 13.5417 6.6667Z" stroke="currentColor" stroke-linecap="round" stroke-linejoin="round" stroke-width="2"/>
  <path d="M14.2708 12.5H14.1667M14.375 12.5C14.375 12.6151 14.2818 12.7083 14.1667 12.7083 14.0516 12.7083 13.9583 12.6151 13.9583 12.5 13.9583 12.3849 14.0516 12.2917 14.1667 12.2917 14.2818 12.2917 14.375 12.3849 14.375 12.5Z" stroke="currentColor" stroke-linecap="round" stroke-linejoin="round" stroke-width="2"/>
</svg>
