<svg xmlns="http://www.w3.org/2000/svg" width="20" height="20" viewBox="0 0 20 20" fill="none">
  <path d="M13.75 5.8333C14.5279 6.187 15 6.6516 15 7.1604 15 8.2684 12.7614 9.1667 10 9.1667 7.2386 9.1667 5 8.2684 5 7.1604 5 6.6516 5.472 6.187 6.25 5.8333" stroke="currentColor" stroke-linecap="round" stroke-width="2"/>
  <path d="M5 10.8333C5 11.7538 7.2386 12.5 10 12.5 12.7614 12.5 15 11.7538 15 10.8333" stroke="currentColor" stroke-width="2"/>
  <path d="M15 7.5V14.1667C15 15.0872 12.7614 15.8333 10 15.8333 7.2386 15.8333 5 15.0872 5 14.1667V7.5" stroke="currentColor" stroke-linecap="round" stroke-width="2"/>
  <path d="M17.0833 13.3333C17.8758 13.8344 18.3333 14.4258 18.3333 15.059 18.3333 16.8674 14.6023 18.3333 10 18.3333 5.3976 18.3333 1.6667 16.8674 1.6667 15.059 1.6667 14.4258 2.1243 13.8344 2.9167 13.3333" stroke="currentColor" stroke-linecap="round" stroke-width="2"/>
  <path d="M10 3.3333C10.9205 3.3333 11.6667 4.0795 11.6667 5 11.6667 5.9205 10.9205 6.6667 10 6.6667 9.0795 6.6667 8.3333 5.9205 8.3333 5 8.3333 4.0795 9.0795 3.3333 10 3.3333ZM10 3.3333C10 2.9167 10.3333 2 11.6667 1.6667" stroke="currentColor" stroke-linecap="round" stroke-linejoin="round" stroke-width="2"/>
</svg>
