<svg xmlns="http://www.w3.org/2000/svg" width="20" height="20" viewBox="0 0 20 20" fill="none">
  <path d="M2.9488 14.1667H9.2088" stroke="currentColor" stroke-linecap="round" stroke-linejoin="round" stroke-width="2"/>
  <path d="M15.4688 14.1667H17.5554" stroke="currentColor" stroke-linecap="round" stroke-linejoin="round" stroke-width="2"/>
  <path d="M10.4458 4.1667C11.5962 4.1667 12.5289 5.0994 12.5289 6.25 12.5289 7.4006 11.5962 8.3333 10.4458 8.3333 9.2952 8.3333 8.3627 7.4006 8.3627 6.25 8.3627 5.0994 9.2952 4.1667 10.4458 4.1667ZM10.4458 4.1667C10.5847 3.75 11.1957 2.8333 12.5289 2.5" stroke="currentColor" stroke-linecap="round" stroke-linejoin="round" stroke-width="2"/>
  <path d="M8.3509 6.6793C3.3932 8.5531 1.3937 9.418 1.6968 10.0387 3.3461 10.8179 6.3759 10.6173 9.4761 10.5011 10.3292 10.4691 11.1714 10.8918 11.3648 11.7314 11.5015 12.3243 11.5376 12.8413 11.8071 13.1698 11.9616 13.3581 12.2243 13.422 12.4588 13.3607 13.0924 13.1949 13.3544 12.4868 13.6672 11.2445 13.7283 11.0019 13.8148 10.7415 14.0493 10.6602 15.0995 10.2957 18.3321 11.0996 18.3321 9.6188 18.2799 8.0769 17.7186 7.1163 15.9163 5.6878 15.3365 5.2282 14.6041 5.0001 13.8693 5.0591 13.0983 5.1209 12.7391 5.2213 12.5098 5.4195" stroke="currentColor" stroke-linecap="round" stroke-linejoin="round" stroke-width="2"/>
  <path d="M1.6777 9.9941L2.4904 13.5819C2.9067 15.4603 3.1148 16.3993 3.8004 16.9497 4.486 17.5 5.4478 17.5 7.3715 17.5H14.5193C15.9547 17.5 16.6724 17.5 17.1487 17.0683 17.625 16.6367 17.6953 15.9224 17.8363 14.4938L18.3283 9.6947" stroke="currentColor" stroke-linecap="round" stroke-width="2"/>
</svg>
