<svg xmlns="http://www.w3.org/2000/svg" width="20" height="20" viewBox="0 0 20 20" fill="none">
  <path d="M12.8316 3.6746C13.3086 3.3545 13.8825 3.1678 14.5 3.1678 16.1568 3.1678 17.5 4.512 17.5 6.1701 17.5 7.7652 16.257 9.0698 14.6875 9.1667H14.1667M12.8316 3.6746C12.4215 2.5052 11.3086 1.6667 10 1.6667 8.6914 1.6667 7.5785 2.5052 7.1685 3.6746M12.8316 3.6746C12.9407 3.9858 13 4.3205 13 4.669 13 4.9282 12.9672 5.1797 12.9055 5.4196M8.0987 4.669C7.8684 4.2706 7.5493 3.9301 7.1685 3.6746M7.1685 3.6746C6.6914 3.3545 6.1175 3.1678 5.5 3.1678 3.8431 3.1678 2.5 4.512 2.5 6.1701 2.5 7.7652 3.743 9.0698 5.3125 9.1667H5.8333" stroke="currentColor" stroke-linecap="round" stroke-linejoin="round" stroke-width="2"/>
  <path d="M14.1667 11.6667V8.3333M5.8333 11.6667V8.3333" stroke="currentColor" stroke-linecap="round" stroke-width="2"/>
  <path d="M15 12.0833C13.6675 11.5647 11.9171 11.25 10 11.25 8.0829 11.25 6.3325 11.5647 5 12.0833" stroke="currentColor" stroke-linecap="round" stroke-width="2"/>
  <path d="M14.1667 14.1667C14.1667 16.4678 12.3012 18.3333 10 18.3333 7.6988 18.3333 5.8333 16.4678 5.8333 14.1667" stroke="currentColor" stroke-linecap="round" stroke-width="2"/>
</svg>
