<svg xmlns="http://www.w3.org/2000/svg" width="20" height="20" viewBox="0 0 20 20" fill="none">
  <path d="M15 10.8333C16.8409 10.8333 18.3333 9.3409 18.3333 7.5 18.3333 5.6591 16.8409 4.1667 15 4.1667 14.3139 4.1667 13.6763 4.3739 13.1462 4.7293M5 10.8333C3.1591 10.8333 1.6667 9.3409 1.6667 7.5 1.6667 5.6591 3.1591 4.1667 5 4.1667 5.6861 4.1667 6.3238 4.3739 6.8538 4.7293M13.1462 4.7293C12.6906 3.431 11.454 2.5 10 2.5 8.546 2.5 7.3094 3.431 6.8538 4.7293M13.1462 4.7293C13.2674 5.0748 13.3333 5.4464 13.3333 5.8333 13.3333 6.1211 13.2968 6.4003 13.2283 6.6667M7.8874 5.8333C7.6315 5.391 7.277 5.013 6.8538 4.7293" stroke="currentColor" stroke-linecap="round" stroke-linejoin="round" stroke-width="2"/>
  <path d="M5 14.5833C6.3325 14.0647 8.0829 13.75 10 13.75 11.9171 13.75 13.6675 14.0647 15 14.5833" stroke="currentColor" stroke-linecap="round" stroke-width="2"/>
  <path d="M4.1667 17.5C5.7213 16.9813 7.7634 16.6667 10 16.6667 12.2366 16.6667 14.2787 16.9813 15.8333 17.5" stroke="currentColor" stroke-linecap="round" stroke-width="2"/>
  <path d="M15 10V16.6667M5 10V16.6667" stroke="currentColor" stroke-linecap="round" stroke-width="2"/>
</svg>
