<svg xmlns="http://www.w3.org/2000/svg" width="20" height="20" viewBox="0 0 20 20" fill="none">
  <path d="M18.3333 13.75C18.3333 16.2813 16.2813 18.3333 13.75 18.3333 11.2187 18.3333 9.1667 16.2813 9.1667 13.75 9.1667 11.2187 11.2187 9.1667 13.75 9.1667 16.2813 9.1667 18.3333 11.2187 18.3333 13.75Z" stroke="currentColor" stroke-width="2"/>
  <path d="M8.75 9.1667C8.0185 8.6417 7.1264 8.3333 6.1637 8.3333 3.6801 8.3333 1.6667 10.3853 1.6667 12.9167 1.6667 15.448 3.6801 17.5 6.1637 17.5 6.7406 17.5 7.2922 17.3893 7.799 17.1876" stroke="currentColor" stroke-linecap="round" stroke-width="2"/>
  <path d="M13.3333 10.8333C11.8026 9.2529 9.7743 5.9474 11.4955 3.3333M13.3333 1.6667C12.4873 2.1659 11.8919 2.7313 11.4955 3.3333M11.4955 3.3333C9.5005 3.75 5.0762 5.4167 5.9451 10" stroke="currentColor" stroke-linecap="round" stroke-linejoin="round" stroke-width="2"/>
</svg>
