<svg xmlns="http://www.w3.org/2000/svg" width="20" height="20" viewBox="0 0 20 20" fill="none">
  <path d="M14.1591 18.3333H5.8409C4.7868 18.3333 4.8746 16.8688 5.2885 16.2468 5.9955 15.1844 7.3603 13.8562 7.5605 12.5523L8.3363 7.5H11.6637L12.4395 12.5523C12.6398 13.8562 14.0045 15.1844 14.7115 16.2468 15.1253 16.8688 15.2133 18.3333 14.1591 18.3333Z" stroke="currentColor" stroke-linecap="round" stroke-linejoin="round" stroke-width="2"/>
  <path d="M6.25 4.2927V1.8392C6.25 1.6932 6.4148 1.6134 6.5234 1.7069L8.5183 3.4249C8.668 3.5539 8.8567 3.6245 9.0518 3.6245H10.9482C11.1433 3.6245 11.332 3.5539 11.4817 3.4249L13.4767 1.7069C13.5852 1.6134 13.75 1.6932 13.75 1.8392V4.2927C13.75 4.6957 13.6133 5.0859 13.3637 5.3954L11.9165 7.1901C11.7583 7.3865 11.5237 7.5 11.2763 7.5H8.7237C8.4763 7.5 8.2418 7.3865 8.0835 7.1901L6.6363 5.3954C6.3867 5.0859 6.25 4.6957 6.25 4.2927Z" stroke="currentColor" stroke-linecap="round" stroke-linejoin="round" stroke-width="2"/>
  <path d="M5 15H15" stroke="currentColor" stroke-linecap="round" stroke-linejoin="round" stroke-width="2"/>
</svg>
