<svg xmlns="http://www.w3.org/2000/svg" width="20" height="20" viewBox="0 0 20 20" fill="none">
  <path d="M13.8943 15H6.6721C6.1554 15 5.8971 15 5.6852 15.0568 5.11 15.2109 4.6608 15.6602 4.5067 16.2353 4.4499 16.4473 4.4499 16.7056 4.4499 17.2222 4.4499 17.4806 4.4499 17.6097 4.4783 17.7157 4.5553 18.0033 4.7799 18.2279 5.0675 18.3049 5.1735 18.3333 5.3027 18.3333 5.561 18.3333H15.0054C15.2638 18.3333 15.3929 18.3333 15.4989 18.3049 15.7865 18.2279 16.0111 18.0033 16.0882 17.7157 16.1165 17.6097 16.1165 17.4806 16.1165 17.2222 16.1165 16.7056 16.1165 16.4473 16.0598 16.2353 15.9057 15.6602 15.4564 15.2109 14.8813 15.0568 14.6693 15 14.411 15 13.8943 15Z" stroke="currentColor" stroke-linecap="round" stroke-linejoin="round" stroke-width="2"/>
  <path d="M11.9492 7.5C11.8102 8.1944 11.1158 9.6667 9.4492 10M9.4492 10C8.8982 9.4491 7.3092 8.5157 5.3323 9.1504 5.2994 9.1609 5.267 9.1744 5.2361 9.1898 4.8272 9.3943 4.3331 9.177 4.2075 8.7374L3.9425 7.8101C3.7503 7.1374 4.0387 6.42 4.643 6.0675L8.6158 3.75V3.3333C8.6158 2.5477 8.6158 2.1548 8.8599 1.9107 9.104 1.6667 9.4968 1.6667 10.2825 1.6667 13.5042 1.6667 16.1158 4.2783 16.1158 7.5 16.1158 10.4167 15.2825 12.5 14.4492 15H6.1158L9.4492 10Z" stroke="currentColor" stroke-linecap="round" stroke-linejoin="round" stroke-width="2"/>
</svg>
