<svg xmlns="http://www.w3.org/2000/svg" width="20" height="20" viewBox="0 0 20 20" fill="none">
  <path d="M13.6111 15H6.3889C5.8722 15 5.6139 15 5.402 15.0568 4.8268 15.2109 4.3776 15.6602 4.2235 16.2353 4.1667 16.4473 4.1667 16.7056 4.1667 17.2222 4.1667 17.4806 4.1667 17.6097 4.1951 17.7157 4.2721 18.0033 4.4967 18.2279 4.7843 18.3049 4.8903 18.3333 5.0194 18.3333 5.2778 18.3333H14.7222C14.9806 18.3333 15.1098 18.3333 15.2157 18.3049 15.5032 18.2279 15.7279 18.0033 15.8049 17.7157 15.8333 17.6097 15.8333 17.4806 15.8333 17.2222 15.8333 16.7056 15.8333 16.4473 15.7766 16.2353 15.6224 15.6602 15.1732 15.2109 14.598 15.0568 14.3861 15 14.1277 15 13.6111 15Z" stroke="currentColor" stroke-linecap="round" stroke-linejoin="round" stroke-width="2"/>
  <path d="M15 4.1667V3.0706C15 2.5371 15 2.2704 14.8824 2.0732 14.8116 1.9544 14.7122 1.8551 14.5935 1.7843 14.3963 1.6667 14.1296 1.6667 13.5961 1.6667H13.359C13.1609 1.6667 13.0618 1.6667 12.9751 1.6854 12.7261 1.739 12.5153 1.9036 12.4029 2.1321 12.3637 2.2118 12.3397 2.3078 12.2917 2.5 12.2437 2.6922 12.2196 2.7882 12.1804 2.8679 12.068 3.0964 11.8573 3.261 11.6082 3.3146 11.5215 3.3333 11.4224 3.3333 11.2243 3.3333H8.7757C8.5776 3.3333 8.4785 3.3333 8.3918 3.3146 8.1428 3.261 7.932 3.0964 7.8196 2.8679 7.7804 2.7882 7.7564 2.6922 7.7083 2.5 7.6603 2.3078 7.6363 2.2118 7.5971 2.1321 7.4846 1.9036 7.2739 1.739 7.0249 1.6854 6.9381 1.6667 6.8391 1.6667 6.641 1.6667H6.4039C5.8704 1.6667 5.6037 1.6667 5.4065 1.7843 5.2877 1.8551 5.1884 1.9544 5.1176 2.0732 5 2.2704 5 2.5371 5 3.0706V4.1667C5 5.738 5 6.5237 5.4882 7.0118 5.9763 7.5 6.762 7.5 8.3333 7.5H11.6667C13.238 7.5 14.0237 7.5 14.5118 7.0118 15 6.5237 15 5.738 15 4.1667Z" stroke="currentColor" stroke-linecap="round" stroke-linejoin="round" stroke-width="2"/>
  <path d="M14.1667 15H5.8333L6.6667 7.5H13.3333L14.1667 15Z" stroke="currentColor" stroke-linecap="round" stroke-linejoin="round" stroke-width="2"/>
</svg>
