<svg xmlns="http://www.w3.org/2000/svg" width="20" height="20" viewBox="0 0 20 20" fill="none">
  <path d="M14.1667 18.3333H5.8333C5.4458 18.3333 5.2521 18.3333 5.0931 18.2907 4.6618 18.1752 4.3248 17.8382 4.2093 17.4068 4.1667 17.2479 4.1667 17.0542 4.1667 16.6667 4.1667 15.7462 4.9129 15 5.8333 15H14.1667C15.0872 15 15.8333 15.7462 15.8333 16.6667 15.8333 17.0542 15.8333 17.2479 15.7907 17.4068 15.6752 17.8382 15.3383 18.1752 14.9068 18.2907 14.7479 18.3333 14.5542 18.3333 14.1667 18.3333Z" stroke="currentColor" stroke-linecap="round" stroke-linejoin="round" stroke-width="2"/>
  <circle cx="10" cy="3.3333333333333335" r="1.6666666666666667" stroke="currentColor" stroke-linecap="round" stroke-linejoin="round" stroke-width="2"/>
  <path d="M12.5 15C13.75 14.5516 15 13.2055 15 11.4103 15 8.9075 13.1484 6.4051 11.342 4.5833M7.5 15C6.25 14.5516 5 13.2055 5 11.4103 5 8.908 6.8516 6.4053 8.658 4.5833" stroke="currentColor" stroke-linecap="round" stroke-linejoin="round" stroke-width="2"/>
  <path d="M13.3333 7.5L11.6667 9.1667" stroke="currentColor" stroke-linecap="round" stroke-linejoin="round" stroke-width="2"/>
</svg>
