<svg xmlns="http://www.w3.org/2000/svg" width="20" height="20" viewBox="0 0 20 20" fill="none">
  <path d="M9.9384 9.1424C9.9383 9.8094 10.3658 10.8882 11.2792 11.6424 12.652 12.776 13.3384 13.3428 13.4754 13.5521 13.6322 13.7916 13.5997 13.7212 13.6822 13.9984 13.7542 14.2407 13.7542 14.5877 13.7542 15.282V15.3483C13.7542 15.5121 13.7542 15.594 13.7685 15.6718 13.7892 15.7848 13.8319 15.892 13.8942 15.9868 13.9369 16.052 13.9926 16.1096 14.1039 16.2248 14.6532 16.7932 14.9278 17.0773 14.9797 17.3132 15.0553 17.6575 14.9153 18.0144 14.6303 18.2037 14.4352 18.3333 14.0491 18.3333 13.2768 18.3333H7.1202C6.319 18.3333 5.9184 18.3333 5.7189 18.1954 5.4448 18.0059 5.31 17.6596 5.3796 17.3235 5.4302 17.0789 5.7168 16.7858 6.2898 16.1994 6.406 16.0806 6.464 16.0212 6.5084 15.9534 6.5691 15.8605 6.6113 15.7556 6.6323 15.6452 6.6476 15.5646 6.6476 15.4796 6.6476 15.3096V13.0966C6.6476 12.5034 6.6641 12.5306 6.2607 11.9818 3.9167 8.7924 5.1442 5.6951 7.4703 4.4973 7.4703 3.043 8.2608 2.2607 9.02 1.871 9.3715 1.6905 9.5473 1.6003 9.7428 1.7232 10.2012 2.0112 10.173 3.3333 9.9384 4.1667 10.945 4.1667 11.7647 5 11.7647 5.8333L13.3238 7.4074C13.6109 7.7491 13.8948 8.1075 13.6775 8.584 13.5373 8.8913 13.2026 9.1615 12.9597 9.3867 12.6458 9.6777 12.1665 9.6777 11.8527 9.3867 11.5678 9.1226 11.3572 8.902 10.945 8.9823 10.6094 9.0476 10.2837 9.1617 9.9384 9.1424ZM9.9384 9.1424C9.4763 9.1166 8.9305 8.9024 8.3509 8.3333" stroke="currentColor" stroke-linecap="round" stroke-linejoin="round" stroke-width="2"/>
  <path d="M6.6667 15.8333L13.3333 15.8333" stroke="currentColor" stroke-linecap="round" stroke-width="2"/>
</svg>
