<svg xmlns="http://www.w3.org/2000/svg" width="20" height="20" viewBox="0 0 20 20" fill="none">
  <path d="M10 5.4167C10.9205 5.4167 11.6667 4.6705 11.6667 3.75 11.6667 2.8295 10.9205 2.0833 10 2.0833 9.0795 2.0833 8.3333 2.8295 8.3333 3.75 8.3333 4.6705 9.0795 5.4167 10 5.4167Z" stroke="currentColor" stroke-linecap="round" stroke-linejoin="round" stroke-width="2"/>
  <path d="M3.3333 7.9167C4.2538 7.9167 5 7.1705 5 6.25 5 5.3295 4.2538 4.5833 3.3333 4.5833 2.4129 4.5833 1.6667 5.3295 1.6667 6.25 1.6667 7.1705 2.4129 7.9167 3.3333 7.9167Z" stroke="currentColor" stroke-linecap="round" stroke-linejoin="round" stroke-width="2"/>
  <path d="M16.6667 7.9167C17.5872 7.9167 18.3333 7.1705 18.3333 6.25 18.3333 5.3295 17.5872 4.5833 16.6667 4.5833 15.7462 4.5833 15 5.3295 15 6.25 15 7.1705 15.7462 7.9167 16.6667 7.9167Z" stroke="currentColor" stroke-linecap="round" stroke-linejoin="round" stroke-width="2"/>
  <path d="M5.8333 14.5833L3.3333 7.9167M9.1667 5.4167L8.6108 7.4546C8.299 8.598 8.1431 9.1697 7.7045 9.3043 7.2659 9.439 6.8155 9.053 5.9148 8.2809 5.4729 7.9021 5.1042 7.5868 5 7.5M14.1667 14.5833L16.6667 7.9167M10.8333 5.4167L11.385 7.4395C11.6981 8.5873 11.8546 9.1612 12.2926 9.2962 12.7307 9.4311 13.1849 9.043 14.0936 8.2669 14.4261 7.983 14.7449 7.7126 15 7.5" stroke="currentColor" stroke-linecap="round" stroke-linejoin="round" stroke-width="2"/>
  <path d="M13.6111 14.5833H6.3889C5.8722 14.5833 5.6139 14.5833 5.402 14.6401 4.8268 14.7942 4.3776 15.2435 4.2235 15.8187 4.1667 16.0306 4.1667 16.2889 4.1667 16.8056 4.1667 17.0639 4.1667 17.1931 4.1951 17.299 4.2721 17.5866 4.4967 17.8113 4.7843 17.8883 4.8903 17.9167 5.0194 17.9167 5.2778 17.9167H14.7222C14.9806 17.9167 15.1098 17.9167 15.2157 17.8883 15.5032 17.8113 15.7279 17.5866 15.8049 17.299 15.8333 17.1931 15.8333 17.0639 15.8333 16.8056 15.8333 16.2889 15.8333 16.0306 15.7766 15.8187 15.6224 15.2435 15.1732 14.7942 14.598 14.6401 14.3861 14.5833 14.1277 14.5833 13.6111 14.5833Z" stroke="currentColor" stroke-linecap="round" stroke-linejoin="round" stroke-width="2"/>
</svg>
