<svg xmlns="http://www.w3.org/2000/svg" width="20" height="20" viewBox="0 0 20 20" fill="none">
  <path d="M14.1667 18.3333H5.8333C5.4458 18.3333 5.2521 18.3333 5.0931 18.2907 4.6618 18.1752 4.3248 17.8382 4.2093 17.4068 4.1667 17.2479 4.1667 17.0542 4.1667 16.6667 4.1667 15.7462 4.9129 15 5.8333 15H14.1667C15.0872 15 15.8333 15.7462 15.8333 16.6667 15.8333 17.0542 15.8333 17.2479 15.7907 17.4068 15.6752 17.8382 15.3383 18.1752 14.9068 18.2907 14.7479 18.3333 14.5542 18.3333 14.1667 18.3333Z" stroke="currentColor" stroke-linecap="round" stroke-linejoin="round" stroke-width="2"/>
  <path d="M3.3333 9.6527C3.3333 7.5434 4.7368 5.8333 6.6667 5.8333 7.6667 5.8333 8.6667 6.201 10 7.6716 11.3333 6.201 12.3333 5.8333 13.3333 5.8333 15.2632 5.8333 16.6667 7.5434 16.6667 9.6527 16.6667 11.5381 15.3663 13.4513 13.9142 15H6.0858C4.6337 13.4513 3.3333 11.5381 3.3333 9.6527Z" stroke="currentColor" stroke-linecap="round" stroke-linejoin="round" stroke-width="2"/>
  <path d="M10 1.6667V6.6667" stroke="currentColor" stroke-linecap="round" stroke-linejoin="round" stroke-width="2"/>
  <path d="M8.3333 3.3333H11.6667" stroke="currentColor" stroke-linecap="round" stroke-linejoin="round" stroke-width="2"/>
</svg>
