<svg xmlns="http://www.w3.org/2000/svg" width="20" height="20" viewBox="0 0 20 20" fill="none">
  <path d="M12.0833 9.8958V10M12.2917 10C12.2917 10.1151 12.1984 10.2083 12.0833 10.2083 11.9683 10.2083 11.875 10.1151 11.875 10 11.875 9.8849 11.9683 9.7917 12.0833 9.7917 12.1984 9.7917 12.2917 9.8849 12.2917 10Z" stroke="currentColor" stroke-linecap="round" stroke-linejoin="round" stroke-width="2"/>
  <path d="M7.9167 9.8958V10M8.125 10C8.125 10.1151 8.0317 10.2083 7.9167 10.2083 7.8016 10.2083 7.7083 10.1151 7.7083 10 7.7083 9.8849 7.8016 9.7917 7.9167 9.7917 8.0317 9.7917 8.125 9.8849 8.125 10Z" stroke="currentColor" stroke-linecap="round" stroke-linejoin="round" stroke-width="2"/>
  <path d="M5.8333 14.1667C5.8333 14.1667 1.6667 11.098 1.6667 10 1.6667 8.902 5.8333 5.8333 5.8333 5.8333" stroke="currentColor" stroke-linecap="round" stroke-linejoin="round" stroke-width="2"/>
  <path d="M14.1667 14.1667C14.1667 14.1667 18.3333 11.098 18.3333 10 18.3333 8.902 14.1667 5.8333 14.1667 5.8333" stroke="currentColor" stroke-linecap="round" stroke-linejoin="round" stroke-width="2"/>
</svg>
