<svg xmlns="http://www.w3.org/2000/svg" width="20" height="20" viewBox="0 0 20 20" fill="none">
  <path d="M8.3333 13.2038L5.5715 15.9657C6.2146 16.4241 6.3013 17.3879 5.7379 17.9513 5.2286 18.4607 4.4027 18.4607 3.8933 17.9513 3.4917 17.5497 3.3543 16.8989 3.5859 16.4141 3.101 16.6458 2.4503 16.5083 2.0487 16.1067 1.5393 15.5973 1.5393 14.7714 2.0487 14.2621 2.6121 13.6988 3.5759 13.7853 4.0343 14.4285L6.7961 11.6667" stroke="currentColor" stroke-linejoin="round" stroke-width="2"/>
  <path d="M10.4473 3.0682C12.3927 1.1229 15.1412 1.2776 16.9318 3.0682 18.3608 4.4973 18.7479 6.5364 17.8571 8.2905 16.3778 6.3295 13.0482 7.8319 13.6713 10.2966 12.2977 9.7248 11.1188 11.4905 12.065 12.5527 10.0818 13.3598 8.1087 13.6984 7.2051 12.7948 5.4145 11.0043 8.502 5.0136 10.4473 3.0682Z" stroke="currentColor" stroke-linejoin="round" stroke-width="2"/>
</svg>
