<svg xmlns="http://www.w3.org/2000/svg" width="20" height="20" viewBox="0 0 20 20" fill="none">
  <path d="M3.3333 10C3.3333 6.8573 3.3333 5.286 4.3096 4.3096 5.286 3.3333 6.8573 3.3333 10 3.3333 13.1427 3.3333 14.7141 3.3333 15.6903 4.3096 16.6667 5.286 16.6667 6.8573 16.6667 10 16.6667 13.1427 16.6667 14.7141 15.6903 15.6903 14.7141 16.6667 13.1427 16.6667 10 16.6667 6.8573 16.6667 5.286 16.6667 4.3096 15.6903 3.3333 14.7141 3.3333 13.1427 3.3333 10Z" stroke="currentColor" stroke-linejoin="round" stroke-width="2"/>
  <path d="M6.4435 13.5565C7.0537 14.1667 8.0358 14.1667 10 14.1667 10.6582 14.1667 11.2061 14.1667 11.6667 14.1437L14.1437 11.6667C14.1667 11.2061 14.1667 10.6582 14.1667 10 14.1667 8.0358 14.1667 7.0537 13.5565 6.4435 12.9463 5.8333 11.9642 5.8333 10 5.8333 8.0358 5.8333 7.0537 5.8333 6.4435 6.4435 5.8333 7.0537 5.8333 8.0358 5.8333 10 5.8333 11.9642 5.8333 12.9463 6.4435 13.5565Z" stroke="currentColor" stroke-linejoin="round" stroke-width="2"/>
  <path d="M6.6667 1.6667V3.3333M13.3333 1.6667V3.3333M10 1.6667V3.3333M6.6667 16.6667V18.3333M10 16.6667V18.3333M13.3333 16.6667V18.3333M18.3333 13.3333H16.6667M3.3333 6.6667H1.6667M3.3333 13.3333H1.6667M3.3333 10H1.6667M18.3333 6.6667H16.6667M18.3333 10H16.6667" stroke="currentColor" stroke-linecap="round" stroke-linejoin="round" stroke-width="2"/>
</svg>
