<svg xmlns="http://www.w3.org/2000/svg" width="20" height="20" viewBox="0 0 20 20" fill="none">
  <path d="M13.5005 12.2405L7.7595 6.4995C7.3743 6.1143 7.1817 5.9217 6.9439 5.8611 6.8565 5.8388 6.7663 5.8298 6.6762 5.8346 6.4312 5.8474 6.2046 5.9985 5.7513 6.3007L5.6351 6.3781C4.7162 6.9907 4.2567 7.2971 4.1841 7.6601 4.145 7.8551 4.1721 8.0576 4.2611 8.2355 4.4267 8.5667 4.9506 8.7413 5.9983 9.0905 6.3351 9.2027 6.5034 9.2588 6.6323 9.3656 6.7039 9.4249 6.7659 9.4952 6.8159 9.5736 6.9058 9.7147 6.9406 9.8887 7.0103 10.2368L7.2353 11.362C7.3486 11.9286 7.4053 12.2119 7.5967 12.4033 7.7881 12.5947 8.0714 12.6514 8.638 12.7647L9.7632 12.9898C10.1113 13.0593 10.2853 13.0942 10.4264 13.1841 10.5048 13.2341 10.5751 13.2961 10.6344 13.3678 10.7412 13.4966 10.7973 13.6649 10.9095 14.0017 11.2588 15.0494 11.4333 15.5732 11.7645 15.7389 11.9424 15.8278 12.1448 15.855 12.3399 15.8159 12.7029 15.7432 13.0093 15.2838 13.6218 14.3649L13.6993 14.2487C14.0015 13.7954 14.1526 13.5687 14.1654 13.3238 14.1702 13.2338 14.1613 13.1435 14.1389 13.0561 14.0783 12.8183 13.8857 12.6258 13.5005 12.2405Z" stroke="currentColor" stroke-width="2"/>
  <path d="M11.25 15L9.7713 16.5464C8.5801 17.7377 7.9844 18.3333 7.2442 18.3333 6.5041 18.3333 5.9084 17.7377 4.7171 16.5464L3.4536 15.2828C2.2623 14.0916 1.6667 13.4959 1.6667 12.7558 1.6667 12.0156 2.2623 11.4199 3.4536 10.2287L5 8.75" stroke="currentColor" stroke-width="2"/>
  <path d="M7.5 6.4236L10.5382 3.3853C11.684 2.2396 12.2569 1.6667 12.9688 1.6667 13.6807 1.6667 14.2536 2.2396 15.3993 3.3853L16.6147 4.6006C17.7604 5.7464 18.3333 6.3193 18.3333 7.0312 18.3333 7.7431 17.7604 8.316 16.6147 9.4618L13.5764 12.5" stroke="currentColor" stroke-width="2"/>
  <path d="M16.3336 3.6666L10.3336 9.6667M10 3.3333L16.6667 10" stroke="currentColor" stroke-linejoin="round" stroke-width="2"/>
</svg>
