<svg xmlns="http://www.w3.org/2000/svg" width="20" height="20" viewBox="0 0 20 20" fill="none">
  <path d="M13.7123 8.1408L15.131 9.5594M11.4426 6.7043L10.0239 5.2857M17.1269 5.8808L17.6746 6.4286C18.0048 6.7587 17.996 7.2933 17.6554 7.6009L6.9218 17.2954C6.6044 17.5821 6.1137 17.5656 5.8061 17.2579L5.7779 17.2298C5.4591 16.911 5.4547 16.3984 5.7681 16.0851L15.9822 5.871C16.2955 5.5576 16.8081 5.562 17.1269 5.8808ZM13.7025 3.2898L13.1547 2.742C12.8246 2.4119 12.29 2.4206 11.9824 2.7612L2.2879 13.4949C2.0013 13.8123 2.0177 14.303 2.3254 14.6106L2.3535 14.6388C2.6724 14.9576 3.1849 14.962 3.4983 14.6486L13.7123 4.4345C14.0258 4.1211 14.0213 3.6086 13.7025 3.2898Z" stroke="currentColor" stroke-linecap="round" stroke-linejoin="round" stroke-width="2"/>
</svg>
