<svg xmlns="http://www.w3.org/2000/svg" width="20" height="20" viewBox="0 0 20 20" fill="none">
  <path d="M18.3333 7.5C18.3333 10.2614 14.6023 12.5 10 12.5 5.3976 12.5 1.6667 10.2614 1.6667 7.5 1.6667 4.7386 5.3976 2.5 10 2.5 14.6023 2.5 18.3333 4.7386 18.3333 7.5Z" stroke="currentColor" stroke-width="2"/>
  <path d="M10 5.712C12.5 4.5341 14.1667 6.4311 14.1667 7.3181 14.1667 9.9595 5.8333 9.8228 5.8333 6.5682 5.8333 4.5813 7.5 2.5 10 2.5" stroke="currentColor" stroke-linecap="round" stroke-width="2"/>
  <path d="M18.3333 7.5V12.5C18.3333 15.2614 14.6023 17.5 10 17.5 5.3976 17.5 1.6667 15.2614 1.6667 12.5V7.5" stroke="currentColor" stroke-width="2"/>
</svg>
