<svg xmlns="http://www.w3.org/2000/svg" width="20" height="20" viewBox="0 0 20 20" fill="none">
  <path d="M10 18.3333C14.6023 18.3333 18.3333 14.6023 18.3333 10 18.3333 5.3976 14.6023 1.6667 10 1.6667 5.3976 1.6667 1.6667 5.3976 1.6667 10 1.6667 14.6023 5.3976 18.3333 10 18.3333Z" stroke="currentColor" stroke-linecap="round" stroke-linejoin="round" stroke-width="2"/>
  <path d="M7.6237 12.4992C7.9509 13.3054 8.8912 13.8878 10.0002 13.8878 11.3808 13.8878 12.5002 13.3117 12.5002 11.8713 12.5002 10.431 11.6668 9.8549 10.0002 9.8549 8.3335 9.8549 7.7085 9.2402 7.7085 8.1265 7.7085 7.0128 8.7345 6.11 10.0002 6.11 11.0169 6.11 11.879 6.6927 12.1788 7.4992" stroke="currentColor" stroke-linecap="round" stroke-width="2"/>
  <path d="M10 5L10 15" stroke="currentColor" stroke-linecap="round" stroke-linejoin="round" stroke-width="2"/>
</svg>
