<svg xmlns="http://www.w3.org/2000/svg" width="20" height="20" viewBox="0 0 20 20" fill="none">
  <path d="M6.5698 2.4031C7.6159 1.93 8.7773 1.6667 10 1.6667 14.6023 1.6667 18.3333 5.3976 18.3333 10 18.3333 11.2227 18.07 12.3841 17.5968 13.4302M4.1074 4.1074C2.5994 5.6155 1.6667 7.6988 1.6667 10 1.6667 14.6023 5.3976 18.3333 10 18.3333 12.3012 18.3333 14.3845 17.4006 15.8926 15.8926" stroke="currentColor" stroke-linecap="round" stroke-linejoin="round" stroke-width="2"/>
  <path d="M7.5 10.8333V15M7.5 10.8333H10.8333M7.5 10.8333V7.5M10 5.8333H10.8333C12.2141 5.8333 13.3333 6.9526 13.3333 8.3333 13.3333 8.5859 13.2959 8.8298 13.2263 9.0596" stroke="currentColor" stroke-linecap="round" stroke-linejoin="round" stroke-width="2"/>
  <path d="M1.6667 1.6667L18.3333 18.3333" stroke="currentColor" stroke-linecap="round" stroke-linejoin="round" stroke-width="2"/>
</svg>
