<svg xmlns="http://www.w3.org/2000/svg" width="20" height="20" viewBox="0 0 20 20" fill="none">
  <path d="M10 7.0833V13.3333" stroke="currentColor" stroke-linecap="round" stroke-linejoin="round" stroke-width="2"/>
  <path d="M6.6667 10C6.6667 10 9.1217 6.6667 10 6.6667 10.8784 6.6667 13.3333 10 13.3333 10" stroke="currentColor" stroke-linecap="round" stroke-linejoin="round" stroke-width="2"/>
  <path d="M1.6667 10C1.6667 9.0887 1.813 8.2115 2.0833 7.3907M4.5833 3.667C4.2868 3.9209 4.0083 4.1952 3.75 4.4879M2.3601 13.3333C2.8507 14.4563 3.5816 15.4502 4.4879 16.25M7.0833 17.8087C7.9911 18.1479 8.9739 18.3333 10 18.3333 11.3038 18.3333 12.5378 18.0339 13.6368 17.5M16.25 15.5122C17.5466 14.0431 18.3333 12.1134 18.3333 10 18.3333 5.3976 14.6023 1.6667 10 1.6667 9.129 1.6667 8.2892 1.8003 7.5 2.0482" stroke="currentColor" stroke-linecap="round" stroke-linejoin="round" stroke-width="2"/>
</svg>
