<svg xmlns="http://www.w3.org/2000/svg" width="20" height="20" viewBox="0 0 20 20" fill="none">
  <path d="M9.1363 18.3187C8.9993 18.3284 8.8611 18.3333 8.7217 18.3333 5.5156 18.3333 2.9167 15.7217 2.9167 12.5 2.9167 9.2783 5.5156 6.6667 8.7217 6.6667 10.6943 6.6667 12.5 7.5 13.3333 9.1667" stroke="currentColor" stroke-linecap="round" stroke-width="2"/>
  <path d="M12.5 7.9167V5.4167C12.5 3.3456 10.8211 1.6667 8.75 1.6667 6.6789 1.6667 5 3.3456 5 5.4167V7.9167" stroke="currentColor" stroke-linecap="round" stroke-width="2"/>
  <circle cx="13.75" cy="15" r="3.3333333333333335" stroke="currentColor" stroke-width="2"/>
  <path d="M12.64 15.3697C12.89 15.4897 13.2 15.7997 13.35 16.0497 13.4 16.3997 13.65 15.0497 14.87 14.2497" stroke="currentColor" stroke-linecap="round" stroke-width="2"/>
</svg>
