<svg xmlns="http://www.w3.org/2000/svg" width="20" height="20" viewBox="0 0 20 20" fill="none">
  <path d="M10.0002 18.3334C14.6025 18.3334 18.3335 14.6024 18.3335 10.0001 18.3335 5.3977 14.6025 1.6667 10.0002 1.6667 5.3978 1.6667 1.6668 5.3977 1.6668 10.0001 1.6668 14.6024 5.3978 18.3334 10.0002 18.3334Z" stroke="currentColor" stroke-linecap="round" stroke-linejoin="round" stroke-width="2"/>
  <path d="M10.0002 9.8959V10.0001M10.2085 10.0001C10.2085 10.1151 10.1152 10.2084 10.0002 10.2084 9.8851 10.2084 9.7918 10.1151 9.7918 10.0001 9.7918 9.885 9.8851 9.7918 10.0002 9.7918 10.1152 9.7918 10.2085 9.885 10.2085 10.0001Z" stroke="currentColor" stroke-linecap="round" stroke-linejoin="round" stroke-width="2"/>
  <path d="M14.1668 9.8959V10.0001M14.3752 10.0001C14.3752 10.1151 14.2819 10.2084 14.1668 10.2084 14.0518 10.2084 13.9585 10.1151 13.9585 10.0001 13.9585 9.885 14.0518 9.7918 14.1668 9.7918 14.2819 9.7918 14.3752 9.885 14.3752 10.0001Z" stroke="currentColor" stroke-linecap="round" stroke-linejoin="round" stroke-width="2"/>
  <path d="M5.8335 9.8959V10.0001M6.0418 10.0001C6.0418 10.1151 5.9485 10.2084 5.8335 10.2084 5.7184 10.2084 5.6252 10.1151 5.6252 10.0001 5.6252 9.885 5.7184 9.7918 5.8335 9.7918 5.9485 9.7918 6.0418 9.885 6.0418 10.0001Z" stroke="currentColor" stroke-linecap="round" stroke-linejoin="round" stroke-width="2"/>
</svg>
