<svg xmlns="http://www.w3.org/2000/svg" width="20" height="20" viewBox="0 0 20 20" fill="none">
  <path d="M4.5319 16.2913C5.4574 17.0968 6.5761 17.7093 7.8414 18.048 8.5626 18.2411 9.2872 18.3333 10 18.3333M13.7812 17.4217C14.7472 16.9288 15.6158 16.2493 16.3294 15.4167M18.0467 12.1539C18.2793 11.2868 18.3663 10.4148 18.3223 9.5643M17.4253 6.2171C17.2492 5.8716 17.0493 5.5385 16.827 5.2205M13.7248 2.5438C13.2332 2.299 12.7097 2.0995 12.1587 1.952 7.7145 0.7624 3.1454 3.4013 1.9533 7.8461 1.4861 9.5876 1.6067 11.348 2.1936 12.9167" stroke="currentColor" stroke-linecap="round" stroke-linejoin="round" stroke-width="2"/>
  <path d="M10.0008 6.6667V13.3333M13.3383 9.9958L6.6716 9.9958" stroke="currentColor" stroke-linecap="round" stroke-linejoin="round" stroke-width="2"/>
</svg>
