<svg xmlns="http://www.w3.org/2000/svg" width="20" height="20" viewBox="0 0 20 20" fill="none">
  <path d="M4.1667 12.5C4.1667 9.2783 6.7783 6.6667 10 6.6667 13.2217 6.6667 15.8333 9.2783 15.8333 12.5 15.8333 15.7217 13.2217 18.3333 10 18.3333 6.7783 18.3333 4.1667 15.7217 4.1667 12.5Z" stroke="currentColor" stroke-width="2"/>
  <path d="M13.75 7.9167V5.4167C13.75 3.3456 12.0711 1.6667 10 1.6667 7.9289 1.6667 6.25 3.3456 6.25 5.4167V7.9167" stroke="currentColor" stroke-linecap="round" stroke-width="2"/>
  <path d="M8.4375 12.5H8.3333M8.5417 12.5C8.5417 12.6151 8.4484 12.7083 8.3333 12.7083 8.2183 12.7083 8.125 12.6151 8.125 12.5 8.125 12.3849 8.2183 12.2917 8.3333 12.2917 8.4484 12.2917 8.5417 12.3849 8.5417 12.5Z" stroke="currentColor" stroke-linecap="round" stroke-width="2"/>
  <path d="M11.7708 12.5H11.6667M11.875 12.5C11.875 12.6151 11.7818 12.7083 11.6667 12.7083 11.5516 12.7083 11.4583 12.6151 11.4583 12.5 11.4583 12.3849 11.5516 12.2917 11.6667 12.2917 11.7818 12.2917 11.875 12.3849 11.875 12.5Z" stroke="currentColor" stroke-linecap="round" stroke-width="2"/>
</svg>
