<svg xmlns="http://www.w3.org/2000/svg" width="20" height="20" viewBox="0 0 20 20" fill="none">
  <path d="M12.5 7.5V5.4167C12.5 3.3456 10.8211 1.6667 8.75 1.6667 6.6789 1.6667 5 3.3456 5 5.4167V7.9167" stroke="currentColor" stroke-linecap="round" stroke-width="2"/>
  <path d="M13.75 13.8889V15M13.75 15V16.1111M13.75 15H14.8611M13.75 15H12.6389M17.0833 15C17.0833 16.8409 15.5909 18.3333 13.75 18.3333 11.9091 18.3333 10.4167 16.8409 10.4167 15 10.4167 13.1591 11.9091 11.6667 13.75 11.6667 15.5909 11.6667 17.0833 13.1591 17.0833 15Z" stroke="currentColor" stroke-linecap="round" stroke-width="2"/>
  <path d="M9.1363 18.3187C8.9993 18.3284 8.8611 18.3333 8.7217 18.3333 5.5156 18.3333 2.9167 15.7217 2.9167 12.5 2.9167 9.2783 5.5156 6.6667 8.7217 6.6667 10.6943 6.6667 12.5 7.5 13.3333 9.1667" stroke="currentColor" stroke-linecap="round" stroke-width="2"/>
</svg>
