<svg xmlns="http://www.w3.org/2000/svg" width="20" height="20" viewBox="0 0 20 20" fill="none">
  <path d="M10 18.3333C14.6023 18.3333 18.3333 14.6023 18.3333 10 18.3333 5.3976 14.6023 1.6667 10 1.6667 5.3976 1.6667 1.6667 5.3976 1.6667 10 1.6667 14.6023 5.3976 18.3333 10 18.3333Z" stroke="currentColor" stroke-width="2"/>
  <path d="M7.9267 9.6983C7.4849 9.1885 6.5918 8.4661 6.6829 8.1663M6.6829 8.1663C6.6829 7.8171 7.5588 7.1512 7.9267 6.663M6.6829 8.1663C8.282 8.268 10.3429 7.9554 11.1825 8.6216 12.0663 9.3608 11.7438 11.4629 11.8323 13.3235M11.8323 13.3235C11.3864 13.3625 10.8106 12.5025 10.3037 12.0572M11.8323 13.3235C12.1286 13.4048 12.8862 12.4838 13.3302 12.0592" stroke="currentColor" stroke-linecap="round" stroke-linejoin="round" stroke-width="2"/>
</svg>
