<svg xmlns="http://www.w3.org/2000/svg" width="20" height="20" viewBox="0 0 20 20" fill="none">
  <path d="M12.4924 8.1096C12.4566 7.6246 12.1832 6.4494 11.1327 6.0152 9.8197 5.4725 8.0906 6.1555 7.9289 7.9147 7.8529 8.7401 8.2786 9.6056 8.8972 10.0332 9.3872 10.3719 10.0958 10.4038 10.7977 10.4062M10.7977 10.4062C10.9098 10.4065 11.0218 10.4062 11.1327 10.4062H10.7977ZM10.7977 10.4062H9.3645M9.3645 10.4062H6.6667M9.3645 10.4062C9.3181 10.5831 9.1316 10.8618 8.8572 11.1833 7.9092 12.2935 7.4353 12.8487 7.547 13.0908 7.6587 13.3331 8.3211 13.3329 9.6458 13.3327L11.8763 13.3323C12.0628 13.3323 12.5887 13.3778 13.3333 12.8761" stroke="currentColor" stroke-linecap="round" stroke-linejoin="round" stroke-width="2"/>
  <circle cx="10" cy="10" r="8.333333333333334" stroke="currentColor" stroke-linecap="round" stroke-linejoin="round" stroke-width="2"/>
</svg>
