<svg xmlns="http://www.w3.org/2000/svg" width="20" height="20" viewBox="0 0 20 20" fill="none">
  <path d="M10 18.3333C14.6023 18.3333 18.3333 14.6023 18.3333 10 18.3333 5.3976 14.6023 1.6667 10 1.6667 5.3976 1.6667 1.6667 5.3976 1.6667 10 1.6667 14.6023 5.3976 18.3333 10 18.3333Z" stroke="currentColor" stroke-width="2"/>
  <path d="M12.0768 9.7027C12.5186 9.1928 13.4116 8.4703 13.3206 8.1706M13.3206 8.1706C13.3206 7.8214 12.4447 7.1555 12.0768 6.6673M13.3206 8.1706C11.7215 8.2722 9.6605 7.9597 8.821 8.6258 7.9372 9.3651 8.2597 11.4672 8.1711 13.3277M8.1711 13.3277C8.6171 13.3668 9.1929 12.5068 9.6998 12.0615M8.1711 13.3277C7.8749 13.4091 7.1173 12.488 6.6732 12.0635" stroke="currentColor" stroke-linecap="round" stroke-linejoin="round" stroke-width="2"/>
</svg>
