<svg xmlns="http://www.w3.org/2000/svg" width="20" height="20" viewBox="0 0 20 20" fill="none">
  <path d="M4.1667 12.5C4.1667 9.2783 6.7783 6.6667 10 6.6667 13.2217 6.6667 15.8333 9.2783 15.8333 12.5 15.8333 15.7217 13.2217 18.3333 10 18.3333 6.7783 18.3333 4.1667 15.7217 4.1667 12.5Z" stroke="currentColor" stroke-width="2"/>
  <path d="M6.25 7.9167V5.4167C6.25 3.3456 7.9289 1.6667 10 1.6667 11.3002 1.6667 12.4458 2.3283 13.1185 3.3333" stroke="currentColor" stroke-linecap="round" stroke-width="2"/>
  <path d="M10.1042 12.5H10M10.2083 12.5C10.2083 12.6151 10.1151 12.7083 10 12.7083 9.8849 12.7083 9.7917 12.6151 9.7917 12.5 9.7917 12.3849 9.8849 12.2917 10 12.2917 10.1151 12.2917 10.2083 12.3849 10.2083 12.5Z" stroke="currentColor" stroke-linecap="round" stroke-linejoin="round" stroke-width="2"/>
</svg>
