<svg xmlns="http://www.w3.org/2000/svg" width="20" height="20" viewBox="0 0 20 20" fill="none">
  <path d="M7.4477 4.305C5.2643 6.5897 5.2957 10.212 7.5419 12.4582 9.7881 14.7044 13.4104 14.7358 15.6951 12.5524" stroke="currentColor" stroke-linecap="round" stroke-linejoin="round" stroke-width="2"/>
  <path d="M11.6667 8.3333L7.9167 12.0833" stroke="currentColor" stroke-linecap="round" stroke-linejoin="round" stroke-width="2"/>
  <path d="M11.6667 14.1667V8.3333H5.8333" stroke="currentColor" stroke-linecap="round" stroke-linejoin="round" stroke-width="2"/>
  <path d="M5.2214 14.7786C7.953 17.5102 11.9623 18.1854 15.3256 16.8042 16.6234 16.2713 17.2724 16.0048 17.4657 15.0405 17.659 14.0762 17.0274 13.4446 15.7641 12.1813L7.8187 4.2359C6.5554 2.9726 5.9238 2.341 4.9595 2.5343 3.9953 2.7276 3.7288 3.3766 3.1958 4.6744 1.8146 8.0377 2.4898 12.047 5.2214 14.7786Z" stroke="currentColor" stroke-linecap="round" stroke-linejoin="round" stroke-width="2"/>
</svg>
