<svg xmlns="http://www.w3.org/2000/svg" width="20" height="20" viewBox="0 0 20 20" fill="none">
  <path d="M1.6667 18.3333H18.3333" stroke="currentColor" stroke-linecap="round" stroke-linejoin="round" stroke-width="2"/>
  <path d="M11.6667 3.3333H8.3333C6.9544 3.3333 6.6667 3.6211 6.6667 5V18.3333H13.3333V5C13.3333 3.6211 13.0456 3.3333 11.6667 3.3333Z" stroke="currentColor" stroke-linejoin="round" stroke-width="2"/>
  <path d="M6.6667 10.8333H5C3.6211 10.8333 3.3333 11.1211 3.3333 12.5V18.3333H6.6667V10.8333Z" stroke="currentColor" stroke-linejoin="round" stroke-width="2"/>
  <path d="M15 10.8333H13.3333V18.3333H16.6667V12.5C16.6667 11.1211 16.3789 10.8333 15 10.8333Z" stroke="currentColor" stroke-linejoin="round" stroke-width="2"/>
  <path d="M10 3.3333L10 1.6667" stroke="currentColor" stroke-linecap="round" stroke-linejoin="round" stroke-width="2"/>
  <path d="M10 18.3333L10 15" stroke="currentColor" stroke-linecap="round" stroke-linejoin="round" stroke-width="2"/>
  <path d="M9.1667 12.5H10.8333M9.1667 9.5833H10.8333M9.1667 6.6667L10.8333 6.6667" stroke="currentColor" stroke-linecap="round" stroke-linejoin="round" stroke-width="2"/>
</svg>
