<svg xmlns="http://www.w3.org/2000/svg" width="20" height="20" viewBox="0 0 20 20" fill="none">
  <path d="M10.8333 13.9194C10.8333 13.1545 10.8333 12.7721 11.0028 12.441 11.1723 12.1099 11.4883 11.8751 12.1202 11.4055L12.5368 11.0958C13.5199 10.3652 14.0115 10 14.5833 10 15.1552 10 15.6468 10.3652 16.6298 11.0958L17.0465 11.4055C17.6784 11.8751 17.9944 12.1099 18.1638 12.441 18.3333 12.7721 18.3333 13.1545 18.3333 13.9194V15.1485C18.3333 16.6498 18.3333 17.4005 17.8452 17.8669 17.357 18.3333 16.5713 18.3333 15 18.3333H10.8333V13.9194Z" stroke="currentColor" stroke-linejoin="round" stroke-width="2"/>
  <path d="M15 10.0002V4.1667C15 2.0983 14.5683 1.6667 12.5 1.6667H9.1667C7.0983 1.6667 6.6667 2.0983 6.6667 4.1667V18.3333" stroke="currentColor" stroke-linecap="round" stroke-linejoin="round" stroke-width="2"/>
  <ellipse cx="2.916666666666667" cy="11.666666666666668" rx="1.25" ry="1.6666666666666667" stroke="currentColor" stroke-width="2"/>
  <path d="M2.9167 13.3333V18.3333" stroke="currentColor" stroke-linecap="round" stroke-width="2"/>
  <path d="M1.6667 18.3333H16.6667" stroke="currentColor" stroke-linecap="round" stroke-width="2"/>
  <path d="M10 5H11.6667M10 7.5H11.6667" stroke="currentColor" stroke-linecap="round" stroke-width="2"/>
  <path d="M14.5833 18.3333L14.5833 16.6667" stroke="currentColor" stroke-linecap="round" stroke-linejoin="round" stroke-width="2"/>
</svg>
