<svg xmlns="http://www.w3.org/2000/svg" width="20" height="20" viewBox="0 0 20 20" fill="none">
  <path d="M16.9122 13.8308L14.7036 16.146C13.675 17.2242 13.1607 17.7633 12.5946 18.0282 11.7288 18.4334 10.741 18.4351 9.8765 18.0328 9.3112 17.7697 8.7984 17.2323 7.7731 16.1574 7.2353 15.5937 6.9665 15.3118 6.7714 14.9917 6.4738 14.5033 6.2969 13.9446 6.2566 13.3659 6.2302 12.9866 6.2846 12.5913 6.3935 11.8007L6.8734 8.3171C6.9471 7.7818 7.3568 7.3655 7.8695 7.3049 8.5395 7.2258 9.1245 7.7745 9.1234 8.481L9.121 10.0923 12.8898 6.1416C13.2819 5.7306 13.9176 5.7306 14.3097 6.1416 14.7018 6.5526 14.7018 7.2189 14.3097 7.6299M14.3097 7.6299L15.2563 6.6377C15.6483 6.2267 16.284 6.2267 16.6761 6.6377 17.0682 7.0487 17.0682 7.715 16.6761 8.126L15.7295 9.1183M14.3097 7.6299L12.1799 9.8624M15.7295 9.1183C16.1216 8.7073 16.7572 8.7073 17.1493 9.1183 17.5414 9.5293 17.5414 10.1956 17.1493 10.6066L16.2028 11.5988M15.7295 9.1183L13.5998 11.3508M16.4394 14.3274L17.6226 13.0872C18.0147 12.6762 18.0147 12.0098 17.6226 11.5988 17.2305 11.1878 16.5948 11.1878 16.2028 11.5988M16.2028 11.5988L15.0196 12.8391" stroke="currentColor" stroke-linecap="round" stroke-linejoin="round" stroke-width="2"/>
  <path d="M10.2282 3.4948C10.6243 3.0766 10.6243 2.3985 10.2282 1.9803 9.8319 1.5621 9.1895 1.5621 8.7933 1.9803L4.9847 6.0005 4.9871 4.3609C4.9882 3.6419 4.397 3.0836 3.7199 3.1641 3.2019 3.2257 2.7878 3.6493 2.7133 4.194L2.2284 7.7389C2.1183 8.5434 2.0633 8.9457 2.09 9.3317 2.1308 9.9205 2.3095 10.489 2.6103 10.986 2.8074 11.3117 3.0791 11.5986 3.6225 12.1722 3.7317 12.2874 3.8351 12.3966 3.9335 12.5M10.2282 3.4948L11.1847 2.4852C11.5809 2.0669 12.2233 2.0669 12.6195 2.4852 13.0158 2.9034 13.0158 3.5814 12.6195 3.9997M10.2282 3.4948L8.7595 5.045" stroke="currentColor" stroke-linecap="round" stroke-linejoin="round" stroke-width="2"/>
</svg>
