<svg xmlns="http://www.w3.org/2000/svg" width="20" height="20" viewBox="0 0 20 20" fill="none">
  <path d="M16.1634 9.0557C16.5524 8.6808 17.1831 8.6808 17.5721 9.0557 17.961 9.4307 17.961 10.0386 17.5721 10.4134L16.6329 11.3186M16.1634 9.0557L17.1025 8.1507C17.4915 7.7757 17.4915 7.1679 17.1025 6.793 16.7135 6.4181 16.0828 6.4181 15.6938 6.793L14.9897 7.4719M16.1634 9.0557L13.5809 11.5448M14.9897 7.4719C15.3783 7.097 15.3783 6.4893 14.9893 6.1145 14.6003 5.7396 13.9697 5.7396 13.5808 6.1145L9.6074 9.9439 9.6098 8.475C9.6108 7.8305 9.0304 7.33 8.3658 7.4022 7.8571 7.4574 7.4507 7.8372 7.3775 8.3255L6.9086 12.0355C6.8189 12.7453 6.3579 13.5284 5.8333 14.034M14.9897 7.4719L12.6419 9.7348M10.294 18.3333L10.8408 17.8063C11.0905 17.5657 11.4297 17.4332 11.782 17.4108 12.1893 17.3848 12.7278 17.3244 13.0536 17.1842 13.6153 16.9425 14.1255 16.4507 15.146 15.4671L18.0416 12.6762C18.4306 12.3013 18.4306 11.6935 18.0416 11.3186 17.6526 10.9437 17.0219 10.9437 16.6329 11.3186M14.52 13.3551L16.6329 11.3186" stroke="currentColor" stroke-linecap="round" stroke-linejoin="round" stroke-width="2"/>
  <path d="M11.2369 3.4145C11.6431 3.0145 11.643 2.3664 11.2366 1.9666 10.83 1.5667 10.1709 1.5667 9.7643 1.9666L5.6111 6.0539 5.6143 4.4845C5.6154 3.797 5.0088 3.2631 4.314 3.3401 3.7825 3.399 3.3577 3.8041 3.2812 4.325L2.7905 8.2849C2.6968 9.0421 2.215 9.8773 1.6667 10.4167M11.2369 3.4145L11.9729 2.6903C12.3794 2.2904 13.0386 2.2904 13.4451 2.6903 13.6484 2.8903 13.75 3.1524 13.75 3.4145M11.2369 3.4145L9.1667 5.4509" stroke="currentColor" stroke-linecap="round" stroke-linejoin="round" stroke-width="2"/>
</svg>
