<svg xmlns="http://www.w3.org/2000/svg" width="20" height="20" viewBox="0 0 20 20" fill="none">
  <path d="M9.1667 7.5H16.6623C17.0756 7.5 17.2823 7.5 17.4036 7.6336 17.5249 7.7671 17.509 7.9772 17.4773 8.3973L16.9598 15.2557C16.8497 16.7157 16.7946 17.4458 16.3244 17.8895 15.8543 18.3333 15.1361 18.3333 13.6997 18.3333H9.9462C8.5097 18.3333 7.7914 18.3333 7.3213 17.8895 6.6218 17.2292 6.7339 15.8911 6.6667 15" stroke="currentColor" stroke-linecap="round" stroke-linejoin="round" stroke-width="2"/>
  <path d="M9.1667 7.4242V11.9697C9.1667 13.3982 9.1667 14.1124 8.6785 14.5563 8.1904 15 7.4047 15 5.8333 15 4.262 15 3.4763 15 2.9882 14.5563 2.5 14.1124 2.5 13.3982 2.5 11.9697V11.2121C2.5 9.0693 2.5 7.998 3.2322 7.3323 3.9645 6.6667 5.143 6.6667 7.5 6.6667H8.3333C8.7262 6.6667 8.9226 6.6667 9.0447 6.7776 9.1667 6.8886 9.1667 7.0671 9.1667 7.4242Z" stroke="currentColor" stroke-linecap="round" stroke-linejoin="round" stroke-width="2"/>
  <path d="M15.8333 7.5C15.8333 4.2783 13.9583 1.6667 11.6455 1.6667 9.5357 1.6667 7.7903 3.8398 7.5 6.6667" stroke="currentColor" stroke-linecap="round" stroke-linejoin="round" stroke-width="2"/>
  <path d="M2.5 11.6667H9.1667" stroke="currentColor" stroke-linecap="round" stroke-linejoin="round" stroke-width="2"/>
  <path d="M9.1667 10.8333H16.6667" stroke="currentColor" stroke-linecap="round" stroke-linejoin="round" stroke-width="2"/>
</svg>
