<svg xmlns="http://www.w3.org/2000/svg" width="20" height="20" viewBox="0 0 20 20" fill="none">
  <path d="M17.5 2.5L10.8333 9.5833" stroke="currentColor" stroke-linecap="round" stroke-linejoin="round" stroke-width="2"/>
  <path d="M7.8714 9.2378C5.8045 10.0307 4.1522 9.8947 2.5 9.2404 2.9172 14.6092 5.4201 16.6741 8.7574 17.5 8.7574 17.5 11.2718 15.722 11.6342 11.5062 11.6734 11.0496 11.6931 10.8213 11.5982 10.5641 11.5032 10.3068 11.3168 10.1223 10.9441 9.7533 10.3311 9.1464 10.0246 8.843 9.6608 8.767 9.297 8.6911 8.8218 8.8733 7.8714 9.2378Z" stroke="currentColor" stroke-linecap="round" stroke-linejoin="round" stroke-width="2"/>
  <path d="M3.75 13.7053C3.75 13.7053 5.8333 14.1072 7.9167 12.5" stroke="currentColor" stroke-linecap="round" stroke-linejoin="round" stroke-width="2"/>
  <path d="M7.0833 6.0417C7.0833 6.617 6.617 7.0833 6.0417 7.0833 5.4664 7.0833 5 6.617 5 6.0417 5 5.4664 5.4664 5 6.0417 5 6.617 5 7.0833 5.4664 7.0833 6.0417Z" stroke="currentColor" stroke-width="2"/>
  <path d="M9.2708 3.3333H9.1667M9.375 3.3333C9.375 3.4484 9.2818 3.5417 9.1667 3.5417 9.0516 3.5417 8.9583 3.4484 8.9583 3.3333 8.9583 3.2183 9.0516 3.125 9.1667 3.125 9.2818 3.125 9.375 3.2183 9.375 3.3333Z" stroke="currentColor" stroke-linecap="round" stroke-linejoin="round" stroke-width="2"/>
</svg>
