<svg xmlns="http://www.w3.org/2000/svg" width="20" height="20" viewBox="0 0 20 20" fill="none">
  <path d="M1.9595 11.0113C1.6653 9.0968 1.5182 8.1397 1.8801 7.2912 2.2421 6.4426 3.045 5.862 4.651 4.7009L5.8508 3.8333C7.8486 2.3889 8.8474 1.6667 10 1.6667 11.1526 1.6667 12.1514 2.3889 14.1492 3.8333L15.3491 4.7009C16.955 5.862 17.7579 6.4426 18.1198 7.2912 18.4818 8.1397 18.3347 9.0968 18.0405 11.0113L17.7897 12.6437C17.3726 15.3574 17.1641 16.7143 16.1908 17.5238 15.2176 18.3333 13.7948 18.3333 10.949 18.3333H9.051C6.2053 18.3333 4.7824 18.3333 3.8092 17.5238 2.8359 16.7143 2.6274 15.3574 2.2104 12.6437L1.9595 11.0113Z" stroke="currentColor" stroke-linejoin="round" stroke-width="2"/>
  <path d="M10 8.3333V13.3333M7.5 10.8333L12.5 10.8333" stroke="currentColor" stroke-linecap="round" stroke-width="2"/>
</svg>
