<svg xmlns="http://www.w3.org/2000/svg" width="20" height="20" viewBox="0 0 20 20" fill="none">
  <path d="M16.2517 10.8338H8.7517" stroke="currentColor" stroke-linecap="round" stroke-linejoin="round" stroke-width="2"/>
  <path d="M14.585 8.3338C14.585 8.3338 17.0849 10.175 17.085 10.8338 17.085 11.4926 14.585 13.3338 14.585 13.3338" stroke="currentColor" stroke-linecap="round" stroke-linejoin="round" stroke-width="2"/>
  <path d="M11.665 1.6671H7.4984C6.808 1.6671 6.2484 2.2267 6.2484 2.9171 6.2484 3.6074 6.808 4.1671 7.4984 4.1671H11.665C12.3554 4.1671 12.915 3.6074 12.915 2.9171 12.915 2.2267 12.3554 1.6671 11.665 1.6671Z" stroke="currentColor" stroke-linecap="round" stroke-linejoin="round" stroke-width="2"/>
  <path d="M12.9151 2.9171C14.2096 2.9561 14.9818 3.1005 15.5162 3.6349 15.9927 4.1115 16.1592 4.7771 16.2172 5.8337M6.2483 2.9171C4.9538 2.9561 4.1817 3.1005 3.6473 3.6349 2.915 4.3671 2.915 5.5456 2.9151 7.9027L2.915 13.3333C2.915 15.6903 2.9151 16.8688 3.6473 17.6011 4.3795 18.3333 5.558 18.3333 7.915 18.3333L11.2483 18.3333C13.6054 18.3333 14.7839 18.3333 15.5162 17.6011 15.9243 17.1929 16.1049 16.6461 16.1849 15.8338" stroke="currentColor" stroke-linecap="round" stroke-linejoin="round" stroke-width="2"/>
</svg>
