<svg xmlns="http://www.w3.org/2000/svg" width="20" height="20" viewBox="0 0 20 20" fill="none">
  <path d="M14.1862 2.528L13.3908 2.316C11.1408 1.7166 10.0158 1.4168 9.1296 1.9256 8.2433 2.4344 7.9419 3.5531 7.339 5.7903L6.4864 8.9543C5.8835 11.1916 5.5821 12.3102 6.0938 13.1915 6.6054 14.0728 7.7304 14.3725 9.9804 14.972L10.7759 15.184C13.0258 15.7834 14.1508 16.0832 15.0371 15.5744 15.9233 15.0656 16.2248 13.9469 16.8277 11.7097L17.6803 8.5457C18.2832 6.3084 18.5846 5.1897 18.0729 4.3085 17.5613 3.4272 16.4363 3.1275 14.1862 2.528Z" stroke="currentColor" stroke-width="2"/>
  <path d="M14.0448 6.1942C14.0448 6.8726 13.4918 7.4226 12.8095 7.4226 12.1273 7.4226 11.5742 6.8726 11.5742 6.1942 11.5742 5.5158 12.1273 4.9659 12.8095 4.9659 13.4918 4.9659 14.0448 5.5158 14.0448 6.1942Z" stroke="currentColor" stroke-width="2"/>
  <path d="M10 17.4553L9.2064 17.6713C6.9617 18.2826 5.8394 18.5883 4.9552 18.0694 4.071 17.5507 3.7702 16.4101 3.1688 14.1289L2.3182 10.9028C1.7167 8.6217 1.416 7.4811 1.9265 6.5825 2.3681 5.8053 3.3333 5.8336 4.5833 5.8335" stroke="currentColor" stroke-linecap="round" stroke-width="2"/>
</svg>
