<svg xmlns="http://www.w3.org/2000/svg" width="20" height="20" viewBox="0 0 20 20" fill="none">
  <path d="M12.0833 1.6667H7.9167C7.2263 1.6667 6.6667 2.2263 6.6667 2.9167 6.6667 3.607 7.2263 4.1667 7.9167 4.1667H12.0833C12.7737 4.1667 13.3333 3.607 13.3333 2.9167 13.3333 2.2263 12.7737 1.6667 12.0833 1.6667Z" stroke="currentColor" stroke-linecap="round" stroke-linejoin="round" stroke-width="2"/>
  <path d="M13.3333 2.9167C14.6279 2.9557 15.4 3.1001 15.9344 3.6345 16.6667 4.3667 16.6667 5.5452 16.6667 7.9022L16.6667 13.3329C16.6667 15.6899 16.6667 16.8684 15.9344 17.6007 15.2022 18.3329 14.0237 18.3329 11.6667 18.3329L8.3333 18.3329C5.9763 18.3329 4.7978 18.3329 4.0656 17.6007 3.3333 16.8684 3.3333 15.6899 3.3333 13.3329L3.3333 7.9022C3.3333 5.5452 3.3333 4.3667 4.0656 3.6345 4.6 3.1001 5.3721 2.9557 6.6666 2.9167" stroke="currentColor" stroke-linecap="round" stroke-linejoin="round" stroke-width="2"/>
  <path d="M10.6257 8.3333C10.6257 7.9882 10.3459 7.7083 10.0007 7.7083 9.6555 7.7083 9.3757 7.9882 9.3757 8.3333H10.0007 10.6257ZM9.3757 13.3333C9.3757 13.6785 9.6555 13.9583 10.0007 13.9583 10.3459 13.9583 10.6257 13.6785 10.6257 13.3333H10.0007 9.3757ZM8.334 12.7083C7.9889 12.7083 7.709 12.9882 7.709 13.3333 7.709 13.6785 7.9889 13.9583 8.334 13.9583V13.3333 12.7083ZM11.6673 13.9583C12.0126 13.9583 12.2923 13.6785 12.2923 13.3333 12.2923 12.9882 12.0126 12.7083 11.6673 12.7083V13.3333 13.9583ZM11.875 9.1662C11.8747 9.5113 12.1543 9.7913 12.4995 9.7917 12.8447 9.792 13.1247 9.5124 13.125 9.1672L12.5 9.1667 11.875 9.1662ZM6.875 9.1667C6.875 9.5118 7.1548 9.7917 7.5 9.7917 7.8452 9.7917 8.125 9.5118 8.125 9.1667H7.5 6.875ZM10.0007 8.3333H9.3757V13.3333H10.0007 10.6257V8.3333H10.0007ZM8.334 13.3333V13.9583H11.6673V13.3333 12.7083H8.334V13.3333ZM8.3333 8.3333V8.9583H11.6674V8.3333 7.7083H8.3333V8.3333ZM11.6674 8.3333V8.9583C11.7821 8.9583 11.8751 9.0514 11.875 9.1662L12.5 9.1667 13.125 9.1672C13.1257 8.3617 12.4729 7.7083 11.6674 7.7083V8.3333ZM8.3333 8.3333V7.7083C7.5279 7.7083 6.875 8.3613 6.875 9.1667H7.5 8.125C8.125 9.0516 8.2183 8.9583 8.3333 8.9583V8.3333Z" fill="currentColor"/>
</svg>
