<svg xmlns="http://www.w3.org/2000/svg" width="20" height="20" viewBox="0 0 20 20" fill="none">
  <path d="M9.5833 18.3333V17.0781C9.5833 16.5098 9.8091 15.9647 10.211 15.5628L14.5617 11.2122C14.8043 10.9696 15.1332 10.8333 15.4762 10.8333 15.8192 10.8333 16.1482 10.9696 16.3908 11.2122L16.7045 11.5259C16.9471 11.7685 17.0833 12.0975 17.0833 12.4405 17.0833 12.7835 16.9471 13.1124 16.7045 13.355L12.3538 17.7057C11.9519 18.1076 11.4069 18.3333 10.8386 18.3333H9.5833Z" stroke="currentColor" stroke-linecap="round" stroke-linejoin="round" stroke-width="2"/>
  <path d="M11.6667 1.6667H7.5C6.8096 1.6667 6.25 2.2263 6.25 2.9167 6.25 3.607 6.8096 4.1667 7.5 4.1667H11.6667C12.357 4.1667 12.9167 3.607 12.9167 2.9167 12.9167 2.2263 12.357 1.6667 11.6667 1.6667Z" stroke="currentColor" stroke-linecap="round" stroke-linejoin="round" stroke-width="2"/>
  <path d="M6.2499 18.3184C4.9554 18.2794 4.1833 18.1351 3.6489 17.6007 2.9167 16.8684 2.9167 15.6899 2.9167 13.3329L2.9167 7.9022C2.9167 5.5452 2.9167 4.3667 3.6489 3.6345 4.1833 3.1001 4.9554 2.9557 6.2499 2.9167" stroke="currentColor" stroke-linecap="round" stroke-linejoin="round" stroke-width="2"/>
  <path d="M16.2498 7.5C16.2475 5.4087 16.2071 4.3238 15.5178 3.6345 14.9833 3.1001 14.2112 2.9557 12.9167 2.9167" stroke="currentColor" stroke-linecap="round" stroke-linejoin="round" stroke-width="2"/>
</svg>
