<svg xmlns="http://www.w3.org/2000/svg" width="20" height="20" viewBox="0 0 20 20" fill="none">
  <path d="M12.0833 1.6669H7.9167C7.2263 1.6669 6.6667 2.2265 6.6667 2.9169 6.6667 3.6072 7.2263 4.1669 7.9167 4.1669H12.0833C12.7737 4.1669 13.3333 3.6072 13.3333 2.9169 13.3333 2.2265 12.7737 1.6669 12.0833 1.6669Z" stroke="currentColor" stroke-linecap="round" stroke-linejoin="round" stroke-width="2"/>
  <path d="M13.3333 2.9169C14.6279 2.9559 15.4 3.1003 15.9344 3.6347 16.6667 4.3669 16.6667 5.5454 16.6667 7.9024L16.6667 13.3331C16.6667 15.6901 16.6667 16.8686 15.9344 17.6008 15.2022 18.3331 14.0237 18.3331 11.6667 18.3331L8.3333 18.3331C5.9763 18.3331 4.7978 18.3331 4.0656 17.6008 3.3333 16.8687 3.3333 15.6902 3.3333 13.3331L3.3333 7.9024C3.3333 5.5454 3.3333 4.3669 4.0656 3.6347 4.6 3.1003 5.3721 2.9559 6.6666 2.9169" stroke="currentColor" stroke-linecap="round" stroke-linejoin="round" stroke-width="2"/>
  <path d="M7.5033 10.8335H12.5032" stroke="currentColor" stroke-linecap="round" stroke-linejoin="round" stroke-width="2"/>
</svg>
