<svg xmlns="http://www.w3.org/2000/svg" width="20" height="20" viewBox="0 0 20 20" fill="none">
  <path d="M10.0118 18.3333C14.1517 18.3333 17.5875 15.3188 18.2439 11.3652 18.3358 10.812 18.3817 10.5354 18.2583 10.1508 18.1348 9.7661 17.883 9.5142 17.3793 9.0105L10.9895 2.6207C10.4858 2.117 10.2339 1.8652 9.8493 1.7418 9.4646 1.6183 9.188 1.6643 8.6348 1.7561 4.6812 2.4125 1.6667 5.8483 1.6667 9.9882 1.6667 14.5971 5.4029 18.3333 10.0118 18.3333Z" stroke="currentColor" stroke-linecap="round" stroke-linejoin="round" stroke-width="2"/>
  <path d="M10 2.0833C10 6.0117 10 7.5592 11.2204 8.7796 12.4408 10 13.9883 10 17.9167 10" stroke="currentColor" stroke-linecap="round" stroke-linejoin="round" stroke-width="2"/>
</svg>
