<svg xmlns="http://www.w3.org/2000/svg" width="20" height="20" viewBox="0 0 20 20" fill="none">
  <path d="M3.3333 18.3333H5.9537C6.2628 18.3333 6.3888 18.056 6.4472 17.7643 6.5755 17.1226 7.082 16.6667 7.6667 16.6667 8.2513 16.6667 8.7578 17.1226 8.8862 17.7643 8.9445 18.056 9.0706 18.3333 9.3797 18.3333H10.6203C10.9294 18.3333 11.0555 18.056 11.1138 17.7643 11.2422 17.1226 11.7487 16.6667 12.3333 16.6667 12.918 16.6667 13.4245 17.1226 13.5528 17.7643 13.6112 18.056 13.7373 18.3333 14.0463 18.3333H16.6667" stroke="currentColor" stroke-linecap="round" stroke-linejoin="round" stroke-width="2"/>
  <path d="M7.3103 16.6666C7.3103 16.6666 8.0189 9.8493 8.2809 7.8992 8.5067 6.2189 5.3616 3.9326 7.3019 2.5781 9.0429 1.3626 10.9569 1.3628 12.698 2.5782 14.6384 3.9327 11.4939 6.219 11.7197 7.8992 11.9817 9.8493 12.6903 16.6666 12.6903 16.6666" stroke="currentColor" stroke-linejoin="round" stroke-width="2"/>
  <path d="M4.1667 18.3333L3.0646 14.3027C2.5118 11.9359 2.2354 10.7525 2.8461 9.9596 3.4568 9.1667 4.6447 9.1667 7.0204 9.1667H12.9796C15.3553 9.1667 16.5432 9.1667 17.1539 9.9596 17.7646 10.7525 17.4882 11.9359 16.9354 14.3027L15.8333 18.3333" stroke="currentColor" stroke-linejoin="round" stroke-width="2"/>
</svg>
