<svg xmlns="http://www.w3.org/2000/svg" width="20" height="20" viewBox="0 0 20 20" fill="none">
  <path d="M18.25 8.3333C17.4778 4.5296 14.1149 1.6667 10.0833 1.6667 5.481 1.6667 1.75 5.3976 1.75 10 1.75 14.6023 5.481 18.3333 10.0833 18.3333 10.9543 18.3333 11.7942 18.1997 12.5833 17.9518" stroke="currentColor" stroke-linecap="round" stroke-linejoin="round" stroke-width="2"/>
  <path d="M10.0833 6.6667V10L11.75 11.6667" stroke="currentColor" stroke-linecap="round" stroke-linejoin="round" stroke-width="2"/>
  <path d="M16.75 15V11.6667" stroke="currentColor" stroke-linecap="round" stroke-linejoin="round" stroke-width="2"/>
  <path d="M16.8542 18.125H16.75M16.9583 18.125C16.9583 18.2401 16.8651 18.3333 16.75 18.3333 16.635 18.3333 16.5417 18.2401 16.5417 18.125 16.5417 18.0099 16.635 17.9167 16.75 17.9167 16.8651 17.9167 16.9583 18.0099 16.9583 18.125Z" stroke="currentColor" stroke-linecap="round" stroke-linejoin="round" stroke-width="2"/>
</svg>
