<svg xmlns="http://www.w3.org/2000/svg" width="20" height="20" viewBox="0 0 20 20" fill="none">
  <path d="M10 18.3333C5.3976 18.3333 1.6667 14.6023 1.6667 10 1.6667 5.3976 5.3976 1.6667 10 1.6667 13.7314 1.6667 16.8547 4.1191 17.9167 7.5H15.8333" stroke="currentColor" stroke-linecap="round" stroke-linejoin="round" stroke-width="2"/>
  <path d="M10 6.6667V10L11.6667 11.6667" stroke="currentColor" stroke-linecap="round" stroke-linejoin="round" stroke-width="2"/>
  <path d="M18.2959 10.8333C18.3207 10.5591 18.3333 10.2811 18.3333 10M12.5 18.3333C12.7847 18.2397 13.0628 18.1303 13.3333 18.0065M17.3255 14.1667C17.4863 13.857 17.6296 13.5361 17.7542 13.2052M15.1604 16.8577C15.4474 16.6201 15.7193 16.3632 15.974 16.0888" stroke="currentColor" stroke-linecap="round" stroke-linejoin="round" stroke-width="2"/>
</svg>
