<svg xmlns="http://www.w3.org/2000/svg" width="20" height="20" viewBox="0 0 20 20" fill="none">
  <path d="M10 18.3333C14.6023 18.3333 18.3333 14.6023 18.3333 10 18.3333 5.3976 14.6023 1.6667 10 1.6667 6.2686 1.6667 3.1452 4.1191 2.0833 7.5H4.1667" stroke="currentColor" stroke-linecap="round" stroke-linejoin="round" stroke-width="2"/>
  <path d="M10 6.6667V10L11.6667 11.6667" stroke="currentColor" stroke-linecap="round" stroke-linejoin="round" stroke-width="2"/>
  <path d="M1.6667 10C1.6667 10.2811 1.6793 10.5591 1.7041 10.8333M7.5 18.3333C7.2153 18.2397 6.9373 18.1303 6.6667 18.0065M2.6745 14.1667C2.5138 13.857 2.3704 13.5361 2.2458 13.2052M4.026 16.0888C4.2808 16.3632 4.5526 16.6201 4.8396 16.8577" stroke="currentColor" stroke-linecap="round" stroke-linejoin="round" stroke-width="2"/>
</svg>
