<svg xmlns="http://www.w3.org/2000/svg" width="20" height="20" viewBox="0 0 20 20" fill="none">
  <path d="M1.6667 10C1.6667 6.6836 1.6667 5.0254 2.544 3.9183 2.6843 3.7413 2.839 3.5775 3.0062 3.4289 4.0518 2.5 5.6178 2.5 8.75 2.5H11.25C14.3822 2.5 15.9482 2.5 16.9937 3.4289 17.161 3.5775 17.3157 3.7413 17.456 3.9183 18.3333 5.0254 18.3333 6.6836 18.3333 10 18.3333 13.3164 18.3333 14.9746 17.456 16.0817 17.3157 16.2588 17.161 16.4225 16.9937 16.5711 15.9482 17.5 14.3822 17.5 11.25 17.5H8.75C5.6178 17.5 4.0518 17.5 3.0062 16.5711 2.839 16.4225 2.6843 16.2588 2.544 16.0817 1.6667 14.9746 1.6667 13.3164 1.6667 10Z" stroke="currentColor" stroke-linecap="round" stroke-width="2"/>
  <path d="M8.75 7.5H8.3333C7.5568 7.5 7.1685 7.5 6.8622 7.6269 6.4538 7.796 6.1294 8.1205 5.9602 8.5288 5.8333 8.8352 5.8333 9.2234 5.8333 10 5.8333 10.7766 5.8333 11.1648 5.9602 11.4712 6.1294 11.8795 6.4538 12.204 6.8622 12.3732 7.1685 12.5 7.5568 12.5 8.3333 12.5H8.75M14.1667 7.5H13.75C12.9734 7.5 12.5852 7.5 12.2788 7.6269 11.8705 7.796 11.546 8.1205 11.3768 8.5288 11.25 8.8352 11.25 9.2234 11.25 10 11.25 10.7766 11.25 11.1648 11.3768 11.4712 11.546 11.8795 11.8705 12.204 12.2788 12.3732 12.5852 12.5 12.9734 12.5 13.75 12.5H14.1667" stroke="currentColor" stroke-linecap="round" stroke-width="2"/>
</svg>
