<svg xmlns="http://www.w3.org/2000/svg" width="20" height="20" viewBox="0 0 20 20" fill="none">
  <path d="M14.5647 8.3334C14.5708 8.3333 14.5771 8.3333 14.5833 8.3333 16.6544 8.3333 18.3333 10.0122 18.3333 12.0833 18.3333 14.1544 16.6544 15.8333 14.5833 15.8333H5.8333C3.5322 15.8333 1.6667 13.9678 1.6667 11.6667 1.6667 9.5002 3.32 7.7201 5.4337 7.5189M14.5647 8.3334C14.577 8.1961 14.5833 8.0571 14.5833 7.9167 14.5833 5.3854 12.5313 3.3333 10 3.3333 7.6027 3.3333 5.6353 5.1738 5.4337 7.5189M14.5647 8.3334C14.4794 9.2788 14.1072 10.1413 13.5357 10.8333M5.4337 7.5189C5.5652 7.5064 5.6985 7.5 5.8333 7.5 6.7715 7.5 7.6373 7.8101 8.3338 8.3333" stroke="currentColor" stroke-linecap="round" stroke-linejoin="round" stroke-width="2"/>
</svg>
