<svg xmlns="http://www.w3.org/2000/svg" width="20" height="20" viewBox="0 0 20 20" fill="none">
  <path d="M14.5647 7.0834C14.5708 7.0833 14.5771 7.0833 14.5833 7.0833 16.6544 7.0833 18.3333 8.7622 18.3333 10.8333 18.3333 12.2846 17.509 13.5433 16.303 14.1667M14.0836 8.75C14.3433 8.242 14.5109 7.6791 14.5647 7.0834 14.577 6.9461 14.5833 6.8071 14.5833 6.6667 14.5833 4.1354 12.5313 2.0833 10 2.0833 7.6027 2.0833 5.6353 3.9238 5.4337 6.2689M5.4337 6.2689C3.32 6.4701 1.6667 8.2503 1.6667 10.4167 1.6667 12.0659 2.6249 13.4913 4.015 14.1667M5.4337 6.2689C5.5652 6.2564 5.6985 6.25 5.8333 6.25 6.4259 6.25 6.9896 6.3737 7.5 6.5967" stroke="currentColor" stroke-linecap="round" stroke-linejoin="round" stroke-width="2"/>
  <path d="M6.5243 13.0538C6.37 13.3626 6.4951 13.738 6.8038 13.8923 7.1126 14.0468 7.488 13.9216 7.6424 13.6128L7.0833 13.3333 6.5243 13.0538ZM7.9686 16.3746C7.7402 16.1158 7.3452 16.0912 7.0864 16.3196 6.8276 16.548 6.803 16.943 7.0314 17.2018L7.5 16.7882 7.9686 16.3746ZM7.4459 10.9271C7.4977 10.5858 7.263 10.2672 6.9218 10.2154 6.5805 10.1636 6.2619 10.3983 6.2101 10.7396L6.828 10.8333 7.4459 10.9271ZM9.6771 14.2066C10.0184 14.1548 10.2531 13.8362 10.2012 13.4948 10.1495 13.1536 9.8308 12.9189 9.4896 12.9708L9.5833 13.5887 9.6771 14.2066ZM13.3333 14.5833H13.9583C13.9583 12.3972 12.1862 10.625 10 10.625V11.25 11.875C11.4958 11.875 12.7083 13.0876 12.7083 14.5833H13.3333ZM10 17.9167V18.5417C12.1862 18.5417 13.9583 16.7695 13.9583 14.5833H13.3333 12.7083C12.7083 16.0791 11.4958 17.2917 10 17.2917V17.9167ZM10 11.25V10.625C7.9516 10.625 6.9608 12.1808 6.5243 13.0538L7.0833 13.3333 7.6424 13.6128C8.0392 12.8192 8.7151 11.875 10 11.875V11.25ZM7.5 16.7882L7.0314 17.2018C7.7558 18.0225 8.8177 18.5417 10 18.5417V17.9167 17.2917C9.1912 17.2917 8.4657 16.9379 7.9686 16.3746L7.5 16.7882ZM6.828 13.5887L7.27 13.1468C7.3477 13.2244 7.3474 13.2843 7.3304 13.2157 7.3183 13.1666 7.306 13.0848 7.2987 12.9664 7.2842 12.7316 7.2934 12.4303 7.3153 12.1188 7.337 11.8115 7.3697 11.5127 7.3972 11.2893 7.411 11.178 7.4233 11.0865 7.4321 11.0231 7.4365 10.9915 7.4401 10.9669 7.4425 10.9506 7.4437 10.9423 7.4446 10.9363 7.4451 10.9323 7.4455 10.9303 7.4457 10.9288 7.4458 10.928 7.4459 10.9276 7.4459 10.9273 7.4459 10.9271 7.4459 10.9271 7.4459 10.927 7.4459 10.927 7.4459 10.927 7.4459 10.927 7.4459 10.927 7.4459 10.9271 7.4459 10.9271 6.828 10.8333 6.2101 10.7396 6.2101 10.7397 6.2101 10.7397 6.2101 10.7398 6.21 10.7398 6.21 10.7399 6.21 10.74 6.21 10.7402 6.2099 10.7404 6.2099 10.7408 6.2098 10.7414 6.2097 10.7422 6.2095 10.7436 6.2092 10.7456 6.2088 10.7482 6.208 10.7533 6.2069 10.7606 6.2056 10.77 6.2028 10.7889 6.1989 10.8161 6.1941 10.8506 6.1845 10.9194 6.1713 11.0176 6.1566 11.1363 6.1275 11.3728 6.0921 11.6948 6.0684 12.0309 6.045 12.3629 6.0315 12.7277 6.0511 13.0435 6.0608 13.2005 6.0797 13.3652 6.1171 13.5163 6.1498 13.6481 6.2176 13.8622 6.3861 14.0306L6.828 13.5887ZM9.5833 13.5887C9.4896 12.9708 9.4896 12.9708 9.4897 12.9707 9.4897 12.9707 9.4897 12.9707 9.4897 12.9707 9.4897 12.9707 9.4896 12.9707 9.4895 12.9708 9.4894 12.9708 9.4891 12.9708 9.4887 12.9708 9.4878 12.971 9.4863 12.9712 9.4844 12.9715 9.4804 12.9721 9.4743 12.973 9.4661 12.9742 9.4498 12.9766 9.4252 12.9801 9.3935 12.9845 9.3302 12.9933 9.2386 13.0057 9.1273 13.0194 8.904 13.0469 8.6052 13.0797 8.2978 13.1013 7.9864 13.1233 7.6851 13.1325 7.4503 13.118 7.3319 13.1107 7.2501 13.0984 7.201 13.0862 7.1324 13.0693 7.1923 13.069 7.27 13.1468L6.828 13.5887 6.3861 14.0306C6.5545 14.1991 6.7686 14.2669 6.9003 14.2995 7.0515 14.337 7.2162 14.3559 7.3731 14.3656 7.689 14.3852 8.0537 14.3717 8.3858 14.3483 8.7219 14.3245 9.0438 14.2892 9.2804 14.26 9.3991 14.2453 9.4972 14.2322 9.5662 14.2226 9.6006 14.2178 9.6278 14.2138 9.6467 14.2111 9.6561 14.2097 9.6634 14.2086 9.6685 14.2078 9.6711 14.2075 9.6731 14.2072 9.6745 14.2069 9.6753 14.2068 9.6758 14.2068 9.6762 14.2067 9.6765 14.2067 9.6767 14.2067 9.6768 14.2066 9.6768 14.2066 9.6769 14.2066 9.677 14.2066 9.6771 14.2066 9.6771 14.2066 9.5833 13.5887Z" fill="currentColor"/>
</svg>
