<svg xmlns="http://www.w3.org/2000/svg" width="20" height="20" viewBox="0 0 20 20" fill="none">
  <path d="M5.8333 14.5833C3.5322 14.5833 1.6667 12.78 1.6667 10.5556 1.6667 8.4614 3.32 6.7405 5.4337 6.5461M14.5833 14.5833C16.6544 14.5833 18.3333 12.9603 18.3333 10.9583 18.3333 8.9563 16.6544 7.3333 14.5833 7.3333 14.5771 7.3333 14.5708 7.3334 14.5647 7.3334M14.5647 7.3334C14.577 7.2007 14.5833 7.0663 14.5833 6.9306 14.5833 4.4836 12.5313 2.5 10 2.5 7.6027 2.5 5.6353 4.2792 5.4337 6.5461M14.5647 7.3334C14.4794 8.2472 14.1072 9.0811 13.5357 9.75M5.4337 6.5461C5.5652 6.534 5.6985 6.5278 5.8333 6.5278 6.7715 6.5278 7.6373 6.8275 8.3338 7.3333" stroke="currentColor" stroke-linecap="round" stroke-linejoin="round" stroke-width="2"/>
  <path d="M10.482 11.6667L9.0036 13.9032C8.8057 14.2026 8.7068 14.3522 8.7681 14.4678 8.8293 14.5833 9.0078 14.5833 9.3646 14.5833H10.6354C10.9923 14.5833 11.1707 14.5833 11.2319 14.6988 11.2933 14.8144 11.1943 14.9641 10.9964 15.2635L9.518 17.5" stroke="currentColor" stroke-linecap="round" stroke-linejoin="round" stroke-width="2"/>
</svg>
