<svg xmlns="http://www.w3.org/2000/svg" width="20" height="20" viewBox="0 0 20 20" fill="none">
  <path d="M14.5647 7.5092C14.5708 7.5092 14.5771 7.5092 14.5833 7.5092 16.6544 7.5092 18.3333 9.1912 18.3333 11.2661 18.3333 13.1998 16.875 14.7923 15 15M14.5647 7.5092C14.577 7.3717 14.5833 7.2325 14.5833 7.0917 14.5833 4.5558 12.5313 2.5 10 2.5 7.6027 2.5 5.6353 4.3439 5.4337 6.6933M14.5647 7.5092C14.4794 8.4563 14.1072 9.3205 13.5357 10.0138M5.4337 6.6933C3.32 6.8948 1.6667 8.6783 1.6667 10.8486 1.6667 12.8681 3.0981 14.5527 5 14.9394M5.4337 6.6933C5.5652 6.6807 5.6985 6.6743 5.8333 6.6743 6.7715 6.6743 7.6373 6.985 8.3338 7.5092" stroke="currentColor" stroke-linecap="round" stroke-linejoin="round" stroke-width="2"/>
  <path d="M10 10.8333L10 17.5M10 10.8333C9.4165 10.8333 8.3263 12.4953 7.9167 12.9167M10 10.8333C10.5835 10.8333 11.6738 12.4953 12.0833 12.9167" stroke="currentColor" stroke-linecap="round" stroke-linejoin="round" stroke-width="2"/>
</svg>
