<svg xmlns="http://www.w3.org/2000/svg" width="20" height="20" viewBox="0 0 20 20" fill="none">
  <path d="M11.9851 10.6667C11.99 10.6667 11.995 10.6667 12 10.6667 13.6568 10.6667 15 12.0098 15 13.6667 15 15.3235 13.6568 16.6667 12 16.6667H5C3.1591 16.6667 1.6667 15.1743 1.6667 13.3333 1.6667 11.6002 2.9893 10.1761 4.6803 10.0152M11.5563 12.0833C11.7891 11.6555 11.9392 11.1761 11.9851 10.6667 11.9949 10.5569 12 10.4458 12 10.3333 12 8.3083 10.3584 6.6667 8.3333 6.6667 6.4155 6.6667 4.8415 8.1391 4.6803 10.0152M4.6803 10.0152C4.7855 10.0051 4.8922 10 5 10 5.6071 10 6.1764 10.1623 6.6667 10.4459" stroke="currentColor" stroke-linecap="round" stroke-linejoin="round" stroke-width="2"/>
  <path d="M15.3191 7.3334C15.3241 7.3333 15.3291 7.3333 15.334 7.3333 16.9909 7.3333 18.334 8.6765 18.334 10.3333 18.334 11.1384 18.0169 11.8695 17.5008 12.4083M15.3191 7.3334C15.329 7.2236 15.334 7.1124 15.334 7 15.334 4.975 13.6924 3.3333 11.6673 3.3333 9.7495 3.3333 8.1756 4.8057 8.0143 6.6818M15.3191 7.3334C15.2876 7.6832 15.2069 8.0188 15.0841 8.3333" stroke="currentColor" stroke-linecap="round" stroke-linejoin="round" stroke-width="2"/>
</svg>
