<svg xmlns="http://www.w3.org/2000/svg" width="20" height="20" viewBox="0 0 20 20" fill="none">
  <path d="M14.5647 7.3169L14.5833 7.3169C16.6544 7.3169 18.3333 8.9343 18.3333 10.9295 18.3333 12.348 17.4848 13.5755 16.25 14.1667M14.5647 7.3169C14.577 7.1847 14.5833 7.0508 14.5833 6.9155 14.5833 4.4769 12.5313 2.5 10 2.5 7.6027 2.5 5.6353 4.2731 5.4337 6.5323M14.5647 7.3169C14.4794 8.2277 14.1072 9.0587 13.5357 9.7253M5.4337 6.5323C3.32 6.7261 1.6667 8.4411 1.6667 10.5282 1.6667 12.1383 2.6509 13.5272 4.0713 14.1667M5.4337 6.5323C5.5652 6.5202 5.6985 6.5141 5.8333 6.5141 6.7715 6.5141 7.6373 6.8128 8.3338 7.3169" stroke="currentColor" stroke-linecap="round" stroke-linejoin="round" stroke-width="2"/>
  <path d="M10.0362 10L9.0892 10.8633C8.633 11.33 8.633 12.0767 9.1132 12.5433 9.3533 12.7767 9.7001 12.9167 10.0362 12.9167 10.3723 12.9167 10.6498 12.8 10.8898 12.59 11.3701 12.1233 11.3701 11.3533 10.8898 10.8867L10.0362 10Z" stroke="currentColor" stroke-linejoin="round" stroke-width="2"/>
  <path d="M7.1195 14.5833L6.1725 15.4467C5.7163 15.9133 5.7164 16.66 6.1965 17.1267 6.4366 17.36 6.7834 17.5 7.1195 17.5 7.4557 17.5 7.7331 17.3833 7.9732 17.1733 8.4534 16.7067 8.4534 15.9367 7.9732 15.47L7.1195 14.5833Z" stroke="currentColor" stroke-linejoin="round" stroke-width="2"/>
  <path d="M12.9528 14.5833L12.0058 15.4467C11.5497 15.9133 11.5497 16.66 12.0298 17.1267 12.27 17.36 12.6168 17.5 12.9528 17.5 13.289 17.5 13.5664 17.3833 13.8065 17.1733 14.2868 16.7067 14.2868 15.9367 13.8065 15.47L12.9528 14.5833Z" stroke="currentColor" stroke-linejoin="round" stroke-width="2"/>
</svg>
