<svg xmlns="http://www.w3.org/2000/svg" width="20" height="20" viewBox="0 0 20 20" fill="none">
  <path d="M14.5647 7.3169L14.5833 7.3169C16.6544 7.3169 18.3333 8.9343 18.3333 10.9295 18.3333 12.348 17.4848 13.5755 16.25 14.1667M14.5647 7.3169C14.577 7.1847 14.5833 7.0508 14.5833 6.9155 14.5833 4.4769 12.5313 2.5 10 2.5 7.6027 2.5 5.6353 4.2731 5.4337 6.5323M14.5647 7.3169C14.4794 8.2277 14.1072 9.0587 13.5357 9.7253M5.4337 6.5323C3.32 6.7261 1.6667 8.4411 1.6667 10.5282 1.6667 12.1383 2.6509 13.5272 4.0713 14.1667M5.4337 6.5323C5.5652 6.5202 5.6985 6.5141 5.8333 6.5141 6.7715 6.5141 7.6373 6.8128 8.3338 7.3169" stroke="currentColor" stroke-linecap="round" stroke-linejoin="round" stroke-width="2"/>
  <path d="M6.7708 12.2917H6.6667M10.1042 13.9583H10M13.4375 12.2917H13.3333M13.4375 15.625H13.3333M10.1042 17.2917H10M6.7708 15.625H6.6667M6.875 12.2917C6.875 12.4068 6.7817 12.5 6.6667 12.5 6.5516 12.5 6.4583 12.4068 6.4583 12.2917 6.4583 12.1766 6.5516 12.0833 6.6667 12.0833 6.7817 12.0833 6.875 12.1766 6.875 12.2917ZM10.2083 13.9583C10.2083 14.0734 10.1151 14.1667 10 14.1667 9.8849 14.1667 9.7917 14.0734 9.7917 13.9583 9.7917 13.8432 9.8849 13.75 10 13.75 10.1151 13.75 10.2083 13.8432 10.2083 13.9583ZM13.5417 12.2917C13.5417 12.4068 13.4484 12.5 13.3333 12.5 13.2183 12.5 13.125 12.4068 13.125 12.2917 13.125 12.1766 13.2183 12.0833 13.3333 12.0833 13.4484 12.0833 13.5417 12.1766 13.5417 12.2917ZM13.5417 15.625C13.5417 15.7401 13.4484 15.8333 13.3333 15.8333 13.2183 15.8333 13.125 15.7401 13.125 15.625 13.125 15.5099 13.2183 15.4167 13.3333 15.4167 13.4484 15.4167 13.5417 15.5099 13.5417 15.625ZM10.2083 17.2917C10.2083 17.4068 10.1151 17.5 10 17.5 9.8849 17.5 9.7917 17.4068 9.7917 17.2917 9.7917 17.1766 9.8849 17.0833 10 17.0833 10.1151 17.0833 10.2083 17.1766 10.2083 17.2917ZM6.875 15.625C6.875 15.7401 6.7817 15.8333 6.6667 15.8333 6.5516 15.8333 6.4583 15.7401 6.4583 15.625 6.4583 15.5099 6.5516 15.4167 6.6667 15.4167 6.7817 15.4167 6.875 15.5099 6.875 15.625Z" stroke="currentColor" stroke-linecap="round" stroke-linejoin="round" stroke-width="2"/>
</svg>
