<svg xmlns="http://www.w3.org/2000/svg" width="20" height="20" viewBox="0 0 20 20" fill="none">
  <path d="M11.6667 17.3282C12.6424 16.9636 13.3333 16.0586 13.3333 15 13.3333 13.6193 12.1581 12.5 10.7083 12.5 10.704 12.5 10.6996 12.5 10.6953 12.5 10.7039 12.4085 10.7083 12.3158 10.7083 12.2223 10.7083 10.5347 9.2719 9.1667 7.5 9.1667 5.8219 9.1667 4.4447 10.3937 4.3036 11.9571 2.824 12.0912 1.6667 13.278 1.6667 14.7222 1.6667 15.8303 2.3479 16.7868 3.3333 17.2327" stroke="currentColor" stroke-linecap="round" stroke-linejoin="round" stroke-width="2"/>
  <path d="M14.4738 10.8333C14.5424 10.567 14.5788 10.2878 14.5788 10 14.5788 8.1591 13.0865 6.6667 11.2455 6.6667 10.6596 6.6667 10.109 6.8178 9.6305 7.0833" stroke="currentColor" stroke-linecap="round" stroke-linejoin="round" stroke-width="2"/>
  <path d="M11.245 2.5V3.3333M18.3325 9.5792H17.4992M16.2549 4.5718L15.6657 5.1611M6.8327 5.1612L6.2435 4.5719" stroke="currentColor" stroke-linecap="round" stroke-linejoin="round" stroke-width="2"/>
  <path d="M9.1667 15.8333V17.5" stroke="currentColor" stroke-linecap="round" stroke-linejoin="round" stroke-width="2"/>
  <path d="M5.8333 15V16.6667" stroke="currentColor" stroke-linecap="round" stroke-linejoin="round" stroke-width="2"/>
</svg>
