<svg xmlns="http://www.w3.org/2000/svg" width="20" height="20" viewBox="0 0 20 20" fill="none">
  <path d="M14.5647 7.5C14.5708 7.5 14.5771 7.5 14.5833 7.5 16.6544 7.5 18.3333 9.1789 18.3333 11.25 18.3333 12.5502 17.6717 13.6958 16.6667 14.3685M14.5647 7.5C14.577 7.3628 14.5833 7.2238 14.5833 7.0833 14.5833 4.552 12.5313 2.5 10 2.5 7.6027 2.5 5.6353 4.3405 5.4337 6.6856M14.5647 7.5C14.5388 7.7862 14.4868 8.0648 14.4108 8.3333M5.4337 6.6856C3.32 6.8867 1.6667 8.6669 1.6667 10.8333 1.6667 12.3242 2.4497 13.6322 3.6269 14.3685M5.4337 6.6856C5.5652 6.6731 5.6985 6.6667 5.8333 6.6667 6.4259 6.6667 6.9896 6.7904 7.5 7.0134" stroke="currentColor" stroke-linecap="round" stroke-linejoin="round" stroke-width="2"/>
  <path d="M12.8869 12.0833C12.3106 11.087 11.2333 10.4167 9.9995 10.4167 8.7267 10.4167 7.6204 11.1301 7.0589 12.1789M7.1121 15.4167C7.6885 16.413 8.7658 17.0833 9.9995 17.0833 11.2684 17.0833 12.3718 16.3743 12.9349 15.3308" stroke="currentColor" stroke-linecap="round" stroke-linejoin="round" stroke-width="2"/>
  <path d="M7.4229 10.0938C7.4747 9.7525 7.24 9.4338 6.8987 9.3821 6.5575 9.3303 6.2388 9.565 6.187 9.9063L6.805 10 7.4229 10.0938ZM9.2604 12.9796C9.6018 12.9278 9.8364 12.6092 9.7846 12.2679 9.7328 11.9267 9.4142 11.692 9.0729 11.7438L9.1667 12.3617 9.2604 12.9796ZM6.805 12.3617L7.2469 11.9198C7.3311 12.0039 7.3357 12.0748 7.3223 12.0206 7.3136 11.9857 7.3036 11.9215 7.2975 11.8228 7.2854 11.6273 7.293 11.3736 7.3117 11.1081 7.3301 10.8468 7.358 10.5922 7.3815 10.4018 7.3932 10.3069 7.4037 10.2289 7.4112 10.175 7.415 10.1481 7.418 10.1273 7.42 10.1133 7.421 10.1064 7.4218 10.1013 7.4223 10.098 7.4225 10.0963 7.4227 10.0951 7.4228 10.0944 7.4228 10.0941 7.4229 10.0938 7.4229 10.0938 7.4229 10.0937 7.4229 10.0937 7.4229 10.0937 7.4229 10.0937 7.4229 10.0937 7.4229 10.0937 7.4229 10.0938 7.4229 10.0938 6.805 10 6.187 9.9063 6.187 9.9063 6.187 9.9063 6.187 9.9064 6.187 9.9065 6.187 9.9065 6.187 9.9067 6.1869 9.9068 6.1869 9.907 6.1869 9.9074 6.1868 9.9079 6.1867 9.9086 6.1865 9.9098 6.1862 9.9116 6.1859 9.9138 6.1852 9.9183 6.1843 9.9247 6.1831 9.9328 6.1807 9.9492 6.1773 9.9727 6.1732 10.0024 6.1649 10.0619 6.1535 10.1465 6.1409 10.2488 6.1158 10.4524 6.0853 10.73 6.0648 11.0202 6.0447 11.3063 6.0328 11.6234 6.0499 11.9 6.0584 12.0373 6.0751 12.1843 6.109 12.3212 6.1381 12.4386 6.2011 12.6417 6.363 12.8037L6.805 12.3617ZM9.1667 12.3617C9.0729 11.7438 9.0729 11.7438 9.073 11.7438 9.073 11.7438 9.073 11.7438 9.073 11.7438 9.073 11.7438 9.073 11.7438 9.0729 11.7438 9.0728 11.7438 9.0726 11.7438 9.0723 11.7438 9.0715 11.744 9.0703 11.7442 9.0687 11.7444 9.0654 11.7449 9.0602 11.7457 9.0533 11.7467 9.0394 11.7487 9.0186 11.7517 8.9917 11.7554 8.9378 11.7629 8.8598 11.7734 8.7649 11.7852 8.5744 11.8087 8.3199 11.8365 8.0585 11.8549 7.7931 11.8737 7.5393 11.8813 7.3438 11.8692 7.2451 11.8631 7.1809 11.853 7.1461 11.8444 7.0918 11.8309 7.1627 11.8356 7.2469 11.9198L6.805 12.3617 6.363 12.8037C6.525 12.9656 6.7281 13.0286 6.8455 13.0577 6.9823 13.0916 7.1294 13.1083 7.2667 13.1167 7.5432 13.1339 7.8604 13.122 8.1465 13.1018 8.4367 13.0813 8.7143 13.0509 8.9179 13.0258 9.0202 13.0132 9.1048 13.0018 9.1643 12.9935 9.194 12.9893 9.2175 12.9859 9.2338 12.9836 9.242 12.9823 9.2484 12.9814 9.2528 12.9808 9.2551 12.9804 9.2568 12.9802 9.2581 12.98 9.2588 12.9798 9.2593 12.9798 9.2597 12.9797 9.2598 12.9797 9.26 12.9797 9.2602 12.9797 9.2602 12.9797 9.2602 12.9797 9.2603 12.9797 9.2604 12.9797 9.2604 12.9796 9.1667 12.3617Z" fill="currentColor"/>
  <path d="M12.5771 17.4063C12.5253 17.7475 12.76 18.0662 13.1013 18.1179 13.4426 18.1698 13.7612 17.935 13.813 17.5938L13.1951 17.5 12.5771 17.4063ZM10.7396 14.5204C10.3983 14.5722 10.1636 14.8908 10.2154 15.2321 10.2672 15.5733 10.5858 15.808 10.9271 15.7562L10.8333 15.1383 10.7396 14.5204ZM13.195 15.1383L12.7531 15.5803C12.6689 15.4961 12.6643 15.4252 12.6778 15.4794 12.6863 15.5143 12.6964 15.5785 12.7025 15.6772 12.7146 15.8727 12.707 16.1264 12.6883 16.3919 12.6698 16.6532 12.642 16.9078 12.6185 17.0983 12.6068 17.1931 12.5963 17.2711 12.5888 17.325 12.585 17.3519 12.582 17.3727 12.58 17.3867 12.579 17.3936 12.5783 17.3987 12.5777 17.402 12.5775 17.4037 12.5773 17.4049 12.5773 17.4056 12.5772 17.4059 12.5772 17.4062 12.5771 17.4063 12.5771 17.4063 12.5771 17.4063 12.5771 17.4063 12.5771 17.4063 12.5771 17.4063 12.5771 17.4063 12.5771 17.4063 12.5771 17.4063 13.1951 17.5 13.813 17.5938 13.813 17.5937 13.813 17.5937 13.813 17.5936 13.813 17.5935 13.813 17.5935 13.813 17.5933 13.8131 17.5932 13.8131 17.593 13.8132 17.5926 13.8133 17.5921 13.8133 17.5914 13.8135 17.5902 13.8138 17.5884 13.8141 17.5862 13.8148 17.5817 13.8158 17.5753 13.8169 17.5672 13.8193 17.5508 13.8227 17.5273 13.8268 17.4976 13.8351 17.4381 13.8465 17.3535 13.8591 17.2512 13.8843 17.0476 13.9148 16.77 13.9352 16.4798 13.9553 16.1938 13.9672 15.8766 13.9501 15.6 13.9417 15.4627 13.9249 15.3157 13.891 15.1788 13.8619 15.0614 13.7989 14.8583 13.637 14.6963L13.195 15.1383ZM10.8333 15.1383C10.9271 15.7562 10.9271 15.7562 10.927 15.7562 10.927 15.7562 10.927 15.7562 10.927 15.7562 10.927 15.7562 10.927 15.7562 10.9271 15.7562 10.9272 15.7562 10.9274 15.7562 10.9278 15.7562 10.9285 15.756 10.9297 15.7558 10.9313 15.7556 10.9346 15.7551 10.9398 15.7543 10.9468 15.7533 10.9606 15.7513 10.9814 15.7483 11.0083 15.7446 11.0623 15.7371 11.1402 15.7266 11.2351 15.7148 11.4256 15.6913 11.6801 15.6635 11.9415 15.6451 12.2069 15.6263 12.4607 15.6188 12.6562 15.6308 12.7548 15.6369 12.8191 15.647 12.8539 15.6556 12.9082 15.6691 12.8373 15.6644 12.7531 15.5803L13.195 15.1383 13.637 14.6963C13.475 14.5344 13.2719 14.4714 13.1545 14.4423 13.0177 14.4084 12.8706 14.3917 12.7333 14.3832 12.4568 14.3661 12.1396 14.378 11.8535 14.3982 11.5633 14.4187 11.2858 14.4491 11.0821 14.4742 10.9798 14.4868 10.8952 14.4983 10.8358 14.5065 10.806 14.5107 10.7825 14.5141 10.7662 14.5164 10.758 14.5177 10.7516 14.5186 10.7472 14.5193 10.7449 14.5196 10.7432 14.5198 10.7419 14.52 10.7413 14.5202 10.7408 14.5202 10.7403 14.5202 10.7402 14.5203 10.74 14.5203 10.7398 14.5203 10.7398 14.5203 10.7398 14.5203 10.7397 14.5203 10.7396 14.5203 10.7396 14.5204 10.8333 15.1383Z" fill="currentColor"/>
</svg>
