<svg xmlns="http://www.w3.org/2000/svg" width="20" height="20" viewBox="0 0 20 20" fill="none">
  <path d="M14.5647 7.3169L14.5833 7.3169C16.6544 7.3169 18.3333 8.9343 18.3333 10.9295 18.3333 12.348 17.4848 13.5755 16.25 14.1667M14.5647 7.3169C14.577 7.1847 14.5833 7.0508 14.5833 6.9155 14.5833 4.4769 12.5313 2.5 10 2.5 7.6027 2.5 5.6353 4.2731 5.4337 6.5323M14.5647 7.3169C14.4794 8.2277 14.1072 9.0587 13.5357 9.7253M5.4337 6.5323C3.32 6.7261 1.6667 8.4411 1.6667 10.5282 1.6667 12.1383 2.6509 13.5272 4.0713 14.1667M5.4337 6.5323C5.5652 6.5202 5.6985 6.5141 5.8333 6.5141 6.7715 6.5141 7.6373 6.8128 8.3338 7.3169" stroke="currentColor" stroke-linecap="round" stroke-linejoin="round" stroke-width="2"/>
  <path d="M9.1667 11.6667L10 12.5M10 12.5L10.8333 13.3333M10 12.5L10.8333 11.6667M10 12.5L9.1667 13.3333M12.5 15.8333L13.3333 16.6667M13.3333 16.6667L14.1667 17.5M13.3333 16.6667L14.1667 15.8333M13.3333 16.6667L12.5 17.5M5.8333 15.8333L6.6667 16.6667M6.6667 16.6667L7.5 17.5M6.6667 16.6667L7.5 15.8333M6.6667 16.6667L5.8333 17.5" stroke="currentColor" stroke-linecap="round" stroke-linejoin="round" stroke-width="2"/>
</svg>
