<svg xmlns="http://www.w3.org/2000/svg" width="20" height="20" viewBox="0 0 20 20" fill="none">
  <path d="M6.6667 13.8816L6.9389 13.6667C7.502 13.2223 8.1647 13.2223 8.7278 13.6667L8.9389 13.8333C9.502 14.2777 10.1647 14.2777 10.7278 13.8333L10.9389 13.6667C11.502 13.2223 12.1647 13.2223 12.7278 13.6667L12.9389 13.8333C13.066 13.9337 13.1982 14.0113 13.3332 14.0663M11.6667 17.1667L11.8911 17C12.4896 16.5556 13.194 16.5556 13.7924 17L14.0168 17.1667C14.6153 17.6111 15.3198 17.6111 15.9182 17.1667L16.1427 17C16.7411 16.5556 17.4455 16.5556 18.044 17L18.3333 17.2149M8.3333 17.1667L8.1089 17C7.5104 16.5556 6.806 16.5556 6.2076 17L5.9831 17.1667C5.3847 17.6111 4.6803 17.6111 4.0818 17.1667L3.8574 17C3.2589 16.5556 2.5545 16.5556 1.956 17L1.6667 17.2149" stroke="currentColor" stroke-linecap="round" stroke-linejoin="round" stroke-width="2"/>
  <path d="M14.5647 7.415L14.5833 7.415C16.6544 7.415 18.3333 9.0653 18.3333 11.1012 18.3333 12.3793 17.6717 13.5054 16.6667 14.1667M14.5647 7.415C14.577 7.2801 14.5833 7.1435 14.5833 7.0054 14.5833 4.5171 12.5313 2.5 10 2.5 7.6027 2.5 5.6353 4.3092 5.4337 6.6144M14.5647 7.415C14.4794 8.3443 14.1072 9.1922 13.5357 9.8724M5.4337 6.6144C3.32 6.8121 1.6667 8.5621 1.6667 10.6916 1.6667 12.0315 2.3214 13.221 3.3333 13.9683M5.4337 6.6144C5.5652 6.6021 5.6985 6.5958 5.8333 6.5958 6.7715 6.5958 7.6373 6.9006 8.3338 7.415" stroke="currentColor" stroke-linecap="round" stroke-linejoin="round" stroke-width="2"/>
</svg>
