<svg xmlns="http://www.w3.org/2000/svg" width="20" height="20" viewBox="0 0 20 20" fill="none">
  <path d="M5.8333 15C3.5322 15 1.6667 13.1345 1.6667 10.8333 1.6667 8.6669 3.32 6.8867 5.4337 6.6856M14.5833 15C16.6544 15 18.3333 13.3211 18.3333 11.25 18.3333 9.1789 16.6544 7.5 14.5833 7.5 14.5771 7.5 14.5708 7.5 14.5647 7.5M14.0836 9.1667C14.3433 8.6587 14.5109 8.0958 14.5647 7.5 14.577 7.3628 14.5833 7.2238 14.5833 7.0833 14.5833 4.552 12.5313 2.5 10 2.5 7.6027 2.5 5.6353 4.3405 5.4337 6.6856M5.4337 6.6856C5.5652 6.6731 5.6985 6.6667 5.8333 6.6667 6.4259 6.6667 6.9896 6.7904 7.5 7.0134" stroke="currentColor" stroke-linecap="round" stroke-linejoin="round" stroke-width="2"/>
  <path d="M10.8328 10.8333L9.3328 12.8333C8.8965 13.4151 8.6783 13.706 8.7935 13.9363 8.9087 14.1667 9.2722 14.1667 9.9995 14.1667 10.7268 14.1667 11.0903 14.1667 11.2055 14.397 11.3207 14.6273 11.1025 14.9183 10.6662 15.5L9.1662 17.5" stroke="currentColor" stroke-linecap="round" stroke-linejoin="round" stroke-width="2"/>
</svg>
