<svg xmlns="http://www.w3.org/2000/svg" width="20" height="20" viewBox="0 0 20 20" fill="none">
  <path d="M10.0009 11.25V12.5M7.5 13.75V15M12.5 13.75V15M5.4167 16.25V17.5M14.5833 16.25V17.5M10 16.25V17.5" stroke="currentColor" stroke-linecap="round" stroke-width="2"/>
  <path d="M14.5647 7.415L14.5833 7.415C16.6544 7.415 18.3333 9.0653 18.3333 11.1012 18.3333 12.3793 17.6717 13.5054 16.6667 14.1667M14.5647 7.415C14.577 7.2801 14.5833 7.1435 14.5833 7.0054 14.5833 4.5171 12.5313 2.5 10 2.5 7.6027 2.5 5.6353 4.3092 5.4337 6.6144M14.5647 7.415C14.4794 8.3443 14.1072 9.1922 13.5357 9.8724M5.4337 6.6144C3.32 6.8121 1.6667 8.5621 1.6667 10.6916 1.6667 12.0315 2.3214 13.221 3.3333 13.9683M5.4337 6.6144C5.5652 6.6021 5.6985 6.5958 5.8333 6.5958 6.7715 6.5958 7.6373 6.9006 8.3338 7.415" stroke="currentColor" stroke-linecap="round" stroke-linejoin="round" stroke-width="2"/>
</svg>
