<svg xmlns="http://www.w3.org/2000/svg" width="20" height="20" viewBox="0 0 20 20" fill="none">
  <path d="M14.5647 7.3422C14.5708 7.3422 14.5771 7.3422 14.5833 7.3422 16.6544 7.3422 18.3333 8.9682 18.3333 10.9738 18.3333 12.8432 16.875 14.3826 15 14.5833M14.5647 7.3422C14.577 7.2093 14.5833 7.0747 14.5833 6.9387 14.5833 4.4873 12.5313 2.5 10 2.5 7.6027 2.5 5.6353 4.2824 5.4337 6.5535M14.5647 7.3422C14.4794 8.2578 14.1072 9.0932 13.5357 9.7633M5.4337 6.5535C3.32 6.7483 1.6667 8.4723 1.6667 10.5703 1.6667 12.5225 3.0981 14.2095 5 14.5833M5.4337 6.5535C5.5652 6.5414 5.6985 6.5352 5.8333 6.5352 6.7715 6.5352 7.6373 6.8355 8.3338 7.3422" stroke="currentColor" stroke-linecap="round" stroke-linejoin="round" stroke-width="2"/>
  <path d="M10 12.5V17.5M12.0833 13.75L7.9168 16.25M7.9167 13.75L12.0833 16.25" stroke="currentColor" stroke-linecap="round" stroke-linejoin="round" stroke-width="2"/>
</svg>
