<svg xmlns="http://www.w3.org/2000/svg" width="20" height="20" viewBox="0 0 20 20" fill="none">
  <path d="M14.5647 7.9167C14.5708 7.9167 14.5771 7.9167 14.5833 7.9167 16.6544 7.9167 18.3333 9.5956 18.3333 11.6667 18.3333 13.2994 17.2898 14.6885 15.8333 15.2033M14.2709 9.1667C14.4244 8.7735 14.5252 8.354 14.5647 7.9167 14.577 7.7795 14.5833 7.6405 14.5833 7.5 14.5833 4.9687 12.5313 2.9167 10 2.9167 7.6027 2.9167 5.6353 4.7572 5.4337 7.1023M5.4337 7.1023C3.32 7.3034 1.6667 9.0836 1.6667 11.25 1.6667 12.9586 2.6951 14.427 4.1667 15.07M5.4337 7.1023C5.5652 7.0897 5.6985 7.0833 5.8333 7.0833 6.4259 7.0833 6.9896 7.207 7.5 7.43" stroke="currentColor" stroke-linecap="round" stroke-linejoin="round" stroke-width="2"/>
  <path d="M7.9167 15.4167L9.5833 17.0833 13.75 12.9167" stroke="currentColor" stroke-linecap="round" stroke-linejoin="round" stroke-width="2"/>
</svg>
