<svg xmlns="http://www.w3.org/2000/svg" width="20" height="20" viewBox="0 0 20 20" fill="none">
  <path d="M14.5647 7.5C14.5708 7.5 14.5771 7.5 14.5833 7.5 16.6544 7.5 18.3333 9.1789 18.3333 11.25 18.3333 12.5502 17.6717 13.6958 16.6667 14.3685M14.5647 7.5C14.577 7.3628 14.5833 7.2238 14.5833 7.0833 14.5833 4.552 12.5313 2.5 10 2.5 7.6027 2.5 5.6353 4.3405 5.4337 6.6856M14.5647 7.5C14.5388 7.7862 14.4868 8.0648 14.4108 8.3333M5.4337 6.6856C3.32 6.8867 1.6667 8.6669 1.6667 10.8333 1.6667 12.1965 2.3213 13.4068 3.3333 14.167M5.4337 6.6856C5.5652 6.6731 5.6985 6.6667 5.8333 6.6667 6.4259 6.6667 6.9896 6.7904 7.5 7.0134" stroke="currentColor" stroke-linecap="round" stroke-linejoin="round" stroke-width="2"/>
  <path d="M6.6667 15V15.8333" stroke="currentColor" stroke-linecap="round" stroke-linejoin="round" stroke-width="2"/>
  <path d="M6.6667 10.8333V11.6667" stroke="currentColor" stroke-linecap="round" stroke-linejoin="round" stroke-width="2"/>
  <path d="M13.3333 15V15.8333" stroke="currentColor" stroke-linecap="round" stroke-linejoin="round" stroke-width="2"/>
  <path d="M13.3333 10.8333V11.6667" stroke="currentColor" stroke-linecap="round" stroke-linejoin="round" stroke-width="2"/>
  <path d="M10 16.6667V17.5" stroke="currentColor" stroke-linecap="round" stroke-linejoin="round" stroke-width="2"/>
  <path d="M10 12.5V13.3333" stroke="currentColor" stroke-linecap="round" stroke-linejoin="round" stroke-width="2"/>
</svg>
