<svg xmlns="http://www.w3.org/2000/svg" width="20" height="20" viewBox="0 0 20 20" fill="none">
  <path d="M8.8803 14.0655C8.5687 13.9169 8.1956 14.049 8.047 14.3605 7.8984 14.6721 8.0305 15.0451 8.342 15.1938L8.8803 14.0655ZM9.537 15.5556L8.9986 15.8728C9.1158 16.0718 9.3332 16.1899 9.5638 16.18 9.7945 16.1701 10.001 16.0338 10.1008 15.8255L9.537 15.5556ZM11.6852 13.7911C11.9891 13.6274 12.1028 13.2484 11.9392 12.9445 11.7756 12.6406 11.3966 12.5268 11.0927 12.6904L11.6852 13.7911ZM13.5417 14.1667C13.5417 16.1227 11.956 17.7083 10 17.7083V18.9583C12.6463 18.9583 14.7917 16.813 14.7917 14.1667H13.5417ZM10 17.7083C8.044 17.7083 6.4583 16.1227 6.4583 14.1667H5.2083C5.2083 16.813 7.3536 18.9583 10 18.9583V17.7083ZM6.4583 14.1667C6.4583 12.2107 8.044 10.625 10 10.625V9.375C7.3536 9.375 5.2083 11.5203 5.2083 14.1667H6.4583ZM10 10.625C11.956 10.625 13.5417 12.2107 13.5417 14.1667H14.7917C14.7917 11.5203 12.6463 9.375 10 9.375V10.625ZM8.6111 14.6297C8.342 15.1938 8.3418 15.1937 8.3416 15.1935 8.3415 15.1935 8.3413 15.1934 8.3412 15.1933 8.3409 15.1933 8.3407 15.1931 8.3404 15.193 8.34 15.1928 8.3395 15.1925 8.3391 15.1923 8.3383 15.1919 8.3375 15.1916 8.3369 15.1913 8.3357 15.1907 8.3349 15.1903 8.3346 15.1901 8.334 15.1898 8.3352 15.1904 8.338 15.1919 8.3438 15.195 8.3559 15.2018 8.3735 15.2125 8.4087 15.2341 8.4645 15.2712 8.5319 15.3257 8.6669 15.4351 8.8447 15.6118 8.9986 15.8728L10.0755 15.2383C9.8325 14.8258 9.5473 14.5396 9.3186 14.3543 9.2042 14.2616 9.1029 14.1935 9.0265 14.1467 8.9883 14.1233 8.956 14.105 8.9312 14.0917 8.9188 14.085 8.9083 14.0795 8.8997 14.0752 8.8954 14.073 8.8917 14.0711 8.8884 14.0695 8.8867 14.0687 8.8853 14.068 8.8839 14.0673 8.8833 14.067 8.8826 14.0667 8.882 14.0663 8.8817 14.0663 8.8813 14.0661 8.8811 14.0659 8.8809 14.0658 8.8808 14.0658 8.8807 14.0658 8.8804 14.0657 8.8803 14.0655 8.6111 14.6297ZM9.537 15.5556C10.1008 15.8255 10.1007 15.8256 10.1007 15.8257 10.1007 15.8258 10.1006 15.8258 10.1006 15.8258 10.1006 15.8259 10.1005 15.8259 10.1005 15.826 10.1005 15.826 10.1005 15.8259 10.1006 15.8258 10.1008 15.8254 10.1012 15.8247 10.1018 15.8235 10.1028 15.8212 10.1048 15.8172 10.1075 15.8117 10.1128 15.8007 10.1213 15.7838 10.1327 15.7613 10.1555 15.7165 10.1898 15.6505 10.2343 15.5689 10.3236 15.4052 10.4521 15.1822 10.6089 14.9448 10.9413 14.4418 11.3322 13.9811 11.6852 13.7911L11.0927 12.6904C10.4443 13.0394 9.9093 13.7362 9.566 14.2558 9.385 14.5298 9.2383 14.7844 9.1368 14.9704 9.086 15.0638 9.046 15.1407 9.0183 15.195 9.0045 15.2223 8.9938 15.2439 8.9862 15.2592 8.9824 15.2669 8.9794 15.273 8.9773 15.2774 8.9763 15.2796 8.9753 15.2814 8.9747 15.2828 8.9743 15.2834 8.9741 15.284 8.9738 15.2845 8.9738 15.2848 8.9737 15.2849 8.9736 15.2851 8.9735 15.2853 8.9735 15.2853 8.9734 15.2853 8.9734 15.2855 8.9733 15.2856 9.537 15.5556Z" fill="currentColor"/>
  <path d="M14.5833 6.6667V6.0417L14.5818 6.0417 14.5833 6.6667ZM5.4337 5.8523L5.4929 6.4744H5.4929L5.4337 5.8523ZM7.9583 7.1664C8.2343 7.3737 8.6261 7.3181 8.8334 7.0421 9.0408 6.7661 8.9852 6.3743 8.7092 6.167L7.9583 7.1664ZM16.2958 13.0312C16.0073 13.2207 15.9269 13.6081 16.1164 13.8967 16.3058 14.1852 16.6933 14.2655 16.9819 14.0761L16.2958 13.0312ZM3.0123 13.8736C3.2912 14.077 3.6822 14.0158 3.8856 13.7369 4.089 13.4581 4.0278 13.0671 3.7489 12.8637L3.0123 13.8736ZM13.5271 8.0489C13.3699 8.3562 13.4918 8.7328 13.7991 8.8898 14.1064 9.0469 14.483 8.9252 14.6401 8.6178L13.5271 8.0489ZM10 2.2917C12.1862 2.2917 13.9583 4.0639 13.9583 6.25H15.2083C15.2083 3.3735 12.8765 1.0417 10 1.0417V2.2917ZM14.5833 7.2917C16.3093 7.2917 17.7083 8.6908 17.7083 10.4167H18.9583C18.9583 8.0004 16.9996 6.0417 14.5833 6.0417V7.2917ZM14.5662 7.2917L14.5848 7.2917 14.5818 6.0417 14.5631 6.0417 14.5662 7.2917ZM13.9583 6.25C13.9583 6.3717 13.9528 6.492 13.9422 6.6106L15.1871 6.7228C15.2012 6.5669 15.2083 6.4092 15.2083 6.25H13.9583ZM2.2917 10C2.2917 8.1589 3.6969 6.6454 5.4929 6.4744L5.3745 5.2301C2.943 5.4614 1.0417 7.5083 1.0417 10H2.2917ZM5.4929 6.4744C5.6048 6.4638 5.7183 6.4583 5.8333 6.4583V5.2083C5.6787 5.2083 5.5257 5.2157 5.3745 5.2301L5.4929 6.4744ZM6.0564 5.9058C6.2304 3.8811 7.9299 2.2917 10 2.2917V1.0417C7.2755 1.0417 5.0401 3.1332 4.811 5.7987L6.0564 5.9058ZM5.8333 6.4583C6.6315 6.4583 7.3664 6.7216 7.9583 7.1664L8.7092 6.167C7.9082 5.5652 6.9115 5.2083 5.8333 5.2083V6.4583ZM17.7083 10.4167C17.7083 11.5095 17.1479 12.4718 16.2958 13.0312L16.9819 14.0761C18.171 13.2953 18.9583 11.9481 18.9583 10.4167H17.7083ZM3.7489 12.8637C2.8644 12.2186 2.2917 11.1762 2.2917 10H1.0417C1.0417 11.5924 1.8191 13.0032 3.0123 13.8736L3.7489 12.8637ZM13.9422 6.6106C13.8958 7.1251 13.7511 7.6106 13.5271 8.0489L14.6401 8.6178C14.9354 8.0401 15.1261 7.3998 15.1871 6.7228L13.9422 6.6106Z" fill="currentColor"/>
</svg>
