<svg xmlns="http://www.w3.org/2000/svg" width="20" height="20" viewBox="0 0 20 20" fill="none">
  <path d="M9.1667 15.8333V17.5" stroke="currentColor" stroke-linecap="round" stroke-linejoin="round" stroke-width="2"/>
  <path d="M15.8662 10.8333C16.4752 10.5617 17.0144 10.1466 17.4408 9.6213 17.867 9.0959 18.1686 8.4748 18.3213 7.8077 18.4263 7.3494 17.8538 7.0965 17.436 7.2842 16.914 7.5176 16.3362 7.5834 15.7775 7.4732 15.2188 7.363 14.705 7.0818 14.3029 6.6661 13.9008 6.2504 13.6288 5.7194 13.5223 5.1419 13.4157 4.5645 13.4795 3.9673 13.7054 3.4279 13.8863 2.996 13.6416 2.4051 13.1975 2.5129 12.3222 2.7278 11.5352 3.2239 10.9497 3.93 10.6809 4.2541 10.4609 4.6149 10.2946 5" stroke="currentColor" stroke-linecap="round" stroke-linejoin="round" stroke-width="2"/>
  <path d="M11.6667 15.6615C12.6424 15.2969 13.3333 14.3919 13.3333 13.3333 13.3333 11.9526 12.1581 10.8333 10.7083 10.8333 10.704 10.8333 10.6996 10.8333 10.6953 10.8333 10.7039 10.7418 10.7083 10.6492 10.7083 10.5556 10.7083 8.868 9.2719 7.5 7.5 7.5 5.8219 7.5 4.4447 8.727 4.3036 10.2904 2.824 10.4245 1.6667 11.6113 1.6667 13.0556 1.6667 14.1637 2.3479 15.1202 3.3333 15.566" stroke="currentColor" stroke-linecap="round" stroke-linejoin="round" stroke-width="2"/>
  <path d="M5.8333 15V16.6667" stroke="currentColor" stroke-linecap="round" stroke-linejoin="round" stroke-width="2"/>
</svg>
