<svg xmlns="http://www.w3.org/2000/svg" width="20" height="20" viewBox="0 0 20 20" fill="none">
  <path d="M10 8.75L6.583 5.333M6.583 5.333C5.7443 4.4943 5.7443 3.1344 6.583 2.2957 7.4218 1.457 8.7816 1.457 9.6203 2.2957L10 2.6754 10.3797 2.2957C11.2184 1.457 12.5783 1.457 13.417 2.2957 14.2557 3.1344 14.2557 4.4943 13.417 5.333L10 8.75M10 8.75L6.583 12.167M10 8.75L13.417 12.167M6.583 5.333C5.7443 4.4943 4.3844 4.4943 3.5457 5.333 2.707 6.1718 2.707 7.5316 3.5457 8.3703L3.9254 8.75 3.5457 9.1297C2.707 9.9684 2.707 11.3283 3.5457 12.167 4.3844 13.0057 5.7443 13.0057 6.583 12.167M13.417 5.333C14.2557 4.4943 15.6156 4.4943 16.4543 5.333 17.293 6.1718 17.293 7.5316 16.4543 8.3703L16.0746 8.75 16.4543 9.1297C17.293 9.9684 17.293 11.3283 16.4543 12.167 15.6156 13.0057 14.2557 13.0057 13.417 12.167M6.583 12.167C5.7443 13.0057 5.7443 14.3656 6.583 15.2043 7.4218 16.043 8.7816 16.043 9.6203 15.2043L10 14.8246 10.3797 15.2043C11.2184 16.043 12.5783 16.043 13.417 15.2043 14.2557 14.3656 14.2557 13.0057 13.417 12.167" stroke="currentColor" stroke-linecap="round" stroke-linejoin="round" stroke-width="2"/>
  <path d="M6.25 12.5L4.6844 14.0656C3.5526 15.1974 2.9167 16.7326 2.9167 18.3333" stroke="currentColor" stroke-linecap="round" stroke-linejoin="round" stroke-width="2"/>
</svg>
