<svg xmlns="http://www.w3.org/2000/svg" width="20" height="20" viewBox="0 0 20 20" fill="none">
  <path d="M13.2967 3.2967C13.6808 3.8029 13.9405 4.3904 14.055 5.0129 14.114 5.3332 14.1262 5.6375 14.1153 5.9043 14.0948 6.3997 14.0847 6.6475 14.1567 6.7587 14.2288 6.8699 14.4598 6.9623 14.9219 7.1469 15.2424 7.275 15.5465 7.4428 15.8266 7.6473 16.3768 8.049 16.8172 8.5795 17.1082 9.1912 17.3992 9.8028 17.5317 10.4764 17.4937 11.1513 17.4556 11.8261 17.2483 12.481 16.8904 13.057 16.5325 13.633 16.0353 14.112 15.4433 14.4508 14.8515 14.7897 14.1836 14.9777 13.4998 14.9982 13.4142 15.0007 13.3286 15.0006 13.2432 14.9979 12.4025 14.9712 11.9822 14.9579 11.8523 15.1077 11.8434 15.1179 11.8397 15.1226 11.8316 15.1335 11.7141 15.2931 11.8003 15.6267 11.9728 16.2942 12.2096 17.2098 12.3279 17.6678 12.1022 17.9841 12.0896 18.0018 12.0762 18.0189 12.0623 18.0356 11.8125 18.3333 11.3396 18.3333 10.3938 18.3333H9.6107C8.6581 18.3333 8.1817 18.3333 7.9318 18.0313 7.9207 18.0178 7.91 18.0042 7.8998 17.9901 7.6692 17.6729 7.7875 17.2115 8.024 16.2887 8.1956 15.6189 8.2814 15.2841 8.1616 15.1243 8.155 15.1155 8.1521 15.1118 8.145 15.1036 8.0153 14.9517 7.5937 14.9644 6.7505 14.9898 6.6652 14.9924 6.5796 14.9924 6.494 14.9898 5.811 14.9683 5.144 14.7797 4.5531 14.4406 3.9621 14.1014 3.4657 13.6226 3.1085 13.047 2.7512 12.4714 2.5443 11.8171 2.5064 11.1429 2.4684 10.4688 2.6006 9.7958 2.891 9.1847 3.1815 8.5734 3.621 8.0431 4.1703 7.6414 4.4595 7.4298 4.7744 7.2573 5.1065 7.1274 5.5457 6.9557 5.7652 6.8698 5.8382 6.7573 5.9111 6.6448 5.8998 6.4078 5.8772 5.9338 5.8625 5.6265 5.8831 5.3176 5.9391 5.0129 6.0537 4.3904 6.3133 3.8029 6.6975 3.2967 7.0817 2.7906 7.5799 2.3798 8.1526 2.0969 8.7253 1.814 9.3567 1.6667 9.9971 1.6667 10.6374 1.6667 11.2689 1.814 11.8416 2.0969 12.4143 2.3798 12.9125 2.7906 13.2967 3.2967Z" stroke="currentColor" stroke-linecap="round" stroke-linejoin="round" stroke-width="2"/>
</svg>
