<svg xmlns="http://www.w3.org/2000/svg" width="20" height="20" viewBox="0 0 20 20" fill="none">
  <path d="M11.6667 10.8333L10 8.3333 8.3333 10.8333" stroke="currentColor" stroke-linecap="round" stroke-linejoin="round" stroke-width="2"/>
  <path d="M12.0833 4.5833C12.0833 6.6667 10 8.3333 10 8.3333 10 8.3333 7.9167 6.6667 7.9167 4.5833 7.9167 2.5 8.8494 1.6667 10 1.6667 11.1506 1.6667 12.0833 2.5 12.0833 4.5833Z" stroke="currentColor" stroke-linejoin="round" stroke-width="2"/>
  <path d="M15.4167 12.9167C13.3333 12.9167 11.6667 10.8333 11.6667 10.8333 11.6667 10.8333 13.3333 8.75 15.4167 8.75 17.5 8.75 18.3333 9.6828 18.3333 10.8333 18.3333 11.9839 17.5 12.9167 15.4167 12.9167Z" stroke="currentColor" stroke-linejoin="round" stroke-width="2"/>
  <path d="M4.5833 12.9167C6.6667 12.9167 8.3333 10.8333 8.3333 10.8333 8.3333 10.8333 6.6667 8.75 4.5833 8.75 2.5 8.75 1.6667 9.6828 1.6667 10.8333 1.6667 11.9839 2.5 12.9167 4.5833 12.9167Z" stroke="currentColor" stroke-linejoin="round" stroke-width="2"/>
  <path d="M13.3333 18.3333C13.3333 18.3333 10.8333 13.3333 8.3333 10.8333" stroke="currentColor" stroke-linecap="round" stroke-linejoin="round" stroke-width="2"/>
  <path d="M6.6667 18.3333C6.6667 18.3333 9.1667 13.3333 11.6667 10.8333" stroke="currentColor" stroke-linecap="round" stroke-linejoin="round" stroke-width="2"/>
</svg>
