<svg xmlns="http://www.w3.org/2000/svg" width="20" height="20" viewBox="0 0 20 20" fill="none">
  <path d="M10 1.6667C8.1591 1.6667 6.6667 3.2107 6.6667 5.1155 6.6667 5.7436 6.829 6.3326 7.1126 6.8399 4.9651 6.268 2.5 7.926 2.5 10.2887 2.5 12.959 5.1162 14.1868 7.3418 13.6057 8.0614 13.4177 8.4213 13.3238 8.5233 13.4342 8.9133 13.8566 7.7884 15.9648 7.5856 16.3815 7.2035 17.1663 7.0126 17.5586 7.1606 17.8035 7.5122 18.3854 12.3434 18.6244 12.8394 17.8035 12.9874 17.5586 12.7964 17.1663 12.4144 16.3815 12.2116 15.9648 11.0867 13.8566 11.4768 13.4342 11.5788 13.3238 11.9386 13.4177 12.6583 13.6057 14.874 14.1842 17.5 12.9323 17.5 10.2887 17.5 7.9426 15.0278 6.2699 12.8874 6.8399 13.171 6.3326 13.3333 5.7436 13.3333 5.1155 13.3333 3.2107 11.8409 1.6667 10 1.6667Z" stroke="currentColor" stroke-linecap="round" stroke-linejoin="round" stroke-width="2"/>
</svg>
