<svg xmlns="http://www.w3.org/2000/svg" width="20" height="20" viewBox="0 0 20 20" fill="none">
  <path d="M9.0378 2.0648C9.5073 1.7994 9.7422 1.6667 10 1.6667 10.2578 1.6667 10.4927 1.7994 10.9623 2.0648L16.5378 5.2165C17.0073 5.482 17.2422 5.6147 17.3711 5.8333 17.5 6.052 17.5 6.3174 17.5 6.8483V13.1517C17.5 13.6826 17.5 13.9481 17.3711 14.1667 17.2422 14.3853 17.0073 14.518 16.5378 14.7835L10.9623 17.9352C10.4927 18.2006 10.2578 18.3333 10 18.3333 9.7422 18.3333 9.5073 18.2006 9.0378 17.9352L3.4623 14.7835C2.9926 14.518 2.7578 14.3853 2.6289 14.1667 2.5 13.9481 2.5 13.6826 2.5 13.1517V6.8483C2.5 6.3174 2.5 6.052 2.6289 5.8333 2.7578 5.6147 2.9926 5.482 3.4623 5.2165L9.0378 2.0648Z" stroke="currentColor" stroke-linecap="round" stroke-linejoin="round" stroke-width="2"/>
  <path d="M12.9167 3.5588L10.945 4.6255C10.4836 4.8752 10.2529 5 10 5 9.7471 5 9.5164 4.8752 9.055 4.6255L7.0833 3.5588" stroke="currentColor" stroke-linecap="round" stroke-linejoin="round" stroke-width="2"/>
  <path d="M10 9.6795V18.3333M10 9.6795L17.0833 5.8333M10 9.6795L2.9167 5.8333" stroke="currentColor" stroke-linecap="round" stroke-linejoin="round" stroke-width="2"/>
  <path d="M2.5 10L4.912 11.2988C5.3603 11.5402 5.5844 11.6608 5.7089 11.8777 5.8333 12.0946 5.8333 12.3644 5.8333 12.9042V15.8333" stroke="currentColor" stroke-linecap="round" stroke-linejoin="round" stroke-width="2"/>
  <path d="M17.5 10L15.088 11.2988C14.6397 11.5402 14.4156 11.6608 14.2911 11.8777 14.1667 12.0946 14.1667 12.3644 14.1667 12.9042V15.8333" stroke="currentColor" stroke-linecap="round" stroke-linejoin="round" stroke-width="2"/>
</svg>
