<svg xmlns="http://www.w3.org/2000/svg" width="20" height="20" viewBox="0 0 20 20" fill="none">
  <path d="M14.1667 9.1667H15C15.7766 9.1667 16.1648 9.1667 16.4712 9.2935 16.8795 9.4627 17.204 9.7872 17.3732 10.1955 17.5 10.5018 17.5 10.8901 17.5 11.6667 17.5 12.4433 17.5 12.8315 17.3732 13.1378 17.204 13.5462 16.8795 13.8707 16.4712 14.0398 16.1648 14.1667 15.7766 14.1667 15 14.1667H14.1667" stroke="currentColor" stroke-linecap="round" stroke-linejoin="round" stroke-width="2"/>
  <path d="M12.5 7.5H4.1667C3.381 7.5 2.9882 7.5 2.7441 7.7441 2.5 7.9882 2.5 8.381 2.5 9.1667V11.6667C2.5 14.0074 2.5 15.1778 3.0618 16.0186 3.305 16.3825 3.6175 16.695 3.9814 16.9383 4.8222 17.5 5.9926 17.5 8.3333 17.5 10.6741 17.5 11.8445 17.5 12.6853 16.9383 13.0492 16.695 13.3617 16.3825 13.6049 16.0186 14.1667 15.1778 14.1667 14.0074 14.1667 11.6667V9.1667C14.1667 8.381 14.1667 7.9882 13.9226 7.7441 13.6785 7.5 13.2857 7.5 12.5 7.5Z" stroke="currentColor" stroke-linecap="round" stroke-linejoin="round" stroke-width="2"/>
  <path d="M8.3333 2.5V4.1667" stroke="currentColor" stroke-linecap="round" stroke-linejoin="round" stroke-width="2"/>
  <path d="M11.6667 2.5V4.1667" stroke="currentColor" stroke-linecap="round" stroke-linejoin="round" stroke-width="2"/>
  <path d="M5 2.5V4.1667" stroke="currentColor" stroke-linecap="round" stroke-linejoin="round" stroke-width="2"/>
</svg>
