<svg xmlns="http://www.w3.org/2000/svg" width="20" height="20" viewBox="0 0 20 20" fill="none">
  <path d="M10.8333 4.7072C8.465 2.3389 5.1737 1.7903 3.482 3.482M3.482 3.482C1.7903 5.1737 2.3389 8.465 4.7072 10.8333M3.482 3.482C3.6862 4.503 4.7687 6.7286 7.4642 7.4637" stroke="currentColor" stroke-linecap="round" stroke-linejoin="round" stroke-width="2"/>
  <path d="M7.676 16.4908C9.4146 18.2294 12.7973 17.6656 15.2315 15.2315 17.6656 12.7973 18.2294 9.4146 16.4908 7.676M7.676 16.4908C5.9373 14.7521 6.5011 11.3693 8.9352 8.9352 11.3693 6.5011 14.7521 5.9373 16.4908 7.676M7.676 16.4908C8.9352 16.071 11.3191 15.7264 12.3984 11.7688 13.1539 8.9984 15.4413 7.8858 16.4908 7.676" stroke="currentColor" stroke-linecap="round" stroke-linejoin="round" stroke-width="2"/>
</svg>
