<svg xmlns="http://www.w3.org/2000/svg" width="20" height="20" viewBox="0 0 20 20" fill="none">
  <path d="M14.1667 7.5H3.6111C3.3528 7.5 3.2236 7.5 3.1177 7.5284 2.8301 7.6055 2.6054 7.8301 2.5284 8.1177 2.5 8.2236 2.5 8.3528 2.5 8.6111V11.6667C2.5 14.8883 5.1117 17.5 8.3333 17.5 11.555 17.5 14.1667 14.8883 14.1667 11.6667V7.5Z" stroke="currentColor" stroke-linecap="round" stroke-linejoin="round" stroke-width="2"/>
  <path d="M14.1667 7.5H15C16.3808 7.5 17.5 8.6193 17.5 10 17.5 11.3808 16.3808 12.5 15 12.5H14.1667" stroke="currentColor" stroke-linecap="round" stroke-linejoin="round" stroke-width="2"/>
  <path d="M8.3333 2.5V4.1667" stroke="currentColor" stroke-linecap="round" stroke-linejoin="round" stroke-width="2"/>
  <path d="M11.6667 2.5V4.1667" stroke="currentColor" stroke-linecap="round" stroke-linejoin="round" stroke-width="2"/>
  <path d="M5 2.5V4.1667" stroke="currentColor" stroke-linecap="round" stroke-linejoin="round" stroke-width="2"/>
</svg>
