<svg xmlns="http://www.w3.org/2000/svg" width="20" height="20" viewBox="0 0 20 20" fill="none">
  <path d="M16.6625 10C16.6625 6.3181 13.6777 3.3333 9.9958 3.3333 6.3139 3.3333 3.3292 6.3181 3.3292 10 3.3292 13.6818 6.3139 16.6667 9.9958 16.6667 13.6777 16.6667 16.6625 13.6818 16.6625 10Z" stroke="currentColor" stroke-linecap="round" stroke-linejoin="round" stroke-width="2"/>
  <path d="M11.6625 10C11.6625 9.0795 10.9163 8.3333 9.9958 8.3333 9.0753 8.3333 8.3292 9.0795 8.3292 10 8.3292 10.9205 9.0753 11.6667 9.9958 11.6667 10.9163 11.6667 11.6625 10.9205 11.6625 10Z" stroke="currentColor" stroke-linecap="round" stroke-linejoin="round" stroke-width="2"/>
  <path d="M9.9958 3.3333V1.6667M9.9958 16.6667V18.3333M13.3298 4.2244L14.1631 2.781M5.8297 17.2148L9.1639 11.4373M15.7714 6.663L17.2147 5.8297M4.2244 13.3297L2.781 14.163M18.3333 9.9957L11.6625 9.9957M3.3334 9.9957H1.6667M15.7756 13.3296L17.219 14.1629M4.2286 6.663L2.7852 5.8296M13.337 15.7713L14.1703 17.2147M5.837 2.781L9.1065 8.4529" stroke="currentColor" stroke-linecap="round" stroke-linejoin="round" stroke-width="2"/>
</svg>
