<svg xmlns="http://www.w3.org/2000/svg" width="20" height="20" viewBox="0 0 20 20" fill="none">
  <path d="M11.6667 15C15.3486 15 18.3333 12.0152 18.3333 8.3333 18.3333 4.6514 15.3486 1.6667 11.6667 1.6667 7.9848 1.6667 5 4.6514 5 8.3333 5 12.0152 7.9848 15 11.6667 15Z" stroke="currentColor" stroke-linecap="round" stroke-width="2"/>
  <path d="M2.6305 9.1667C2.021 10.098 1.6667 11.2112 1.6667 12.4073 1.6667 15.6802 4.3198 18.3333 7.5926 18.3333 8.7888 18.3333 9.902 17.979 10.8333 17.3695" stroke="currentColor" stroke-linecap="round" stroke-width="2"/>
  <path d="M9.5833 5.4167C9.7223 6.0108 10.3333 7.3611 11.6667 8.0093M11.6667 8.0093C13 7.3611 13.6111 6.0108 13.75 5.4167M11.6667 8.0093V11.25M13.4028 9.3056H9.9306" stroke="currentColor" stroke-linecap="round" stroke-linejoin="round" stroke-width="2"/>
</svg>
