<svg xmlns="http://www.w3.org/2000/svg" width="20" height="20" viewBox="0 0 20 20" fill="none">
  <path d="M11.6667 15C15.3486 15 18.3333 12.0152 18.3333 8.3333 18.3333 4.6514 15.3486 1.6667 11.6667 1.6667 7.9848 1.6667 5 4.6514 5 8.3333 5 12.0152 7.9848 15 11.6667 15Z" stroke="currentColor" stroke-linecap="round" stroke-width="2"/>
  <path d="M2.6305 9.1667C2.021 10.098 1.6667 11.2112 1.6667 12.4073 1.6667 15.6802 4.3198 18.3333 7.5926 18.3333 8.7888 18.3333 9.902 17.979 10.8333 17.3695" stroke="currentColor" stroke-linecap="round" stroke-width="2"/>
  <path d="M13.1427 6.8377C12.9625 6.0776 12.0455 5.3917 10.9447 5.9048 9.844 6.418 9.6692 8.0689 11.3342 8.2443 12.0868 8.3236 12.5773 8.1523 13.0266 8.6368 13.4757 9.1212 13.5593 10.4683 12.4109 10.8314 11.2626 11.1945 10.1255 10.6272 10.0017 9.8217M11.6552 5.0035V5.7277M11.6552 10.9432V11.6702" stroke="currentColor" stroke-linecap="round" stroke-linejoin="round" stroke-width="2"/>
</svg>
