<svg xmlns="http://www.w3.org/2000/svg" width="20" height="20" viewBox="0 0 20 20" fill="none">
  <path d="M11.6667 15C15.3486 15 18.3333 12.0152 18.3333 8.3333 18.3333 4.6514 15.3486 1.6667 11.6667 1.6667 7.9848 1.6667 5 4.6514 5 8.3333 5 12.0152 7.9848 15 11.6667 15Z" stroke="currentColor" stroke-linecap="round" stroke-width="2"/>
  <path d="M2.5837 9.1667C2.0028 10.0888 1.6667 11.1807 1.6667 12.351 1.6667 15.6549 4.3451 18.3333 7.6492 18.3333 8.8195 18.3333 9.9113 17.9973 10.8333 17.4165" stroke="currentColor" stroke-linecap="round" stroke-width="2"/>
  <path d="M10 8.3333H12.9167M10 8.3333V5.4167H11.6667M10 8.3333V11.25H11.6667M12.9167 8.3333C13.607 8.3333 14.1667 7.6804 14.1667 6.875 14.1667 6.0696 13.607 5.4167 12.9167 5.4167H11.6667M12.9167 8.3333C13.607 8.3333 14.1667 8.9863 14.1667 9.7917 14.1667 10.5971 13.607 11.25 12.9167 11.25H11.6667M11.6667 11.25V12.0833M11.6667 5.4167V4.5833" stroke="currentColor" stroke-linecap="round" stroke-width="2"/>
</svg>
