<svg xmlns="http://www.w3.org/2000/svg" width="20" height="20" viewBox="0 0 20 20" fill="none">
  <path d="M8.3333 5.8557C8.7358 3.4777 10.8054 1.6667 13.2979 1.6667 16.0789 1.6667 18.3333 3.9211 18.3333 6.7021 18.3333 9.1946 16.5223 11.2642 14.1443 11.6667" stroke="currentColor" stroke-linecap="round" stroke-linejoin="round" stroke-width="2"/>
  <path d="M6.6667 18.3333C9.4281 18.3333 11.6667 16.0948 11.6667 13.3333 11.6667 10.5719 9.4281 8.3333 6.6667 8.3333 3.9052 8.3333 1.6667 10.5719 1.6667 13.3333 1.6667 16.0948 3.9052 18.3333 6.6667 18.3333Z" stroke="currentColor" stroke-linecap="round" stroke-linejoin="round" stroke-width="2"/>
  <path d="M1.6667 7.5C1.6667 4.7357 3.9024 2.5 6.6667 2.5L5.9524 3.9286" stroke="currentColor" stroke-linecap="round" stroke-linejoin="round" stroke-width="2"/>
  <path d="M18.3333 12.5C18.3333 15.2643 16.0976 17.5 13.3333 17.5L14.0476 16.0714" stroke="currentColor" stroke-linecap="round" stroke-linejoin="round" stroke-width="2"/>
</svg>
