<svg xmlns="http://www.w3.org/2000/svg" width="20" height="20" viewBox="0 0 20 20" fill="none">
  <path d="M14.0848 5.1073C15 6.0479 15 7.5618 15 10.5896V11.9104C15 14.9382 15 16.4521 14.0848 17.3928 13.1694 18.3333 11.6963 18.3333 8.75 18.3333 5.8037 18.3333 4.3306 18.3333 3.4153 17.3928 2.5 16.4521 2.5 14.9382 2.5 11.9104V10.5896C2.5 7.5618 2.5 6.0479 3.4153 5.1073 4.3306 4.1667 5.8037 4.1667 8.75 4.1667 11.6963 4.1667 13.1694 4.1667 14.0848 5.1073Z" stroke="currentColor" stroke-linecap="round" stroke-linejoin="round" stroke-width="2"/>
  <path d="M6.25 4.5833V8.6411C6.25 9.4205 6.25 9.8102 6.4915 9.9497 6.9592 10.2198 7.8365 9.3186 8.2531 9.0473 8.4947 8.8898 8.6156 8.8112 8.75 8.8112 8.8844 8.8112 9.0053 8.8898 9.2468 9.0473 9.6635 9.3186 10.5407 10.2198 11.0085 9.9497 11.25 9.8102 11.25 9.4205 11.25 8.6411V4.5833" stroke="currentColor" stroke-linecap="round" stroke-linejoin="round" stroke-width="2"/>
  <path d="M7.5 1.6667H9.1667C13.095 1.6667 15.0593 1.6667 16.2796 2.8871 17.5 4.1074 17.5 6.0716 17.5 10V15" stroke="currentColor" stroke-linecap="round" stroke-linejoin="round" stroke-width="2"/>
</svg>
