<svg xmlns="http://www.w3.org/2000/svg" width="20" height="20" viewBox="0 0 20 20" fill="none">
  <path d="M9.9112 17.3878L10.0172 15.8555M6.597 17.4364L6.703 15.8555M5.0459 12.9358V11.2673M8.3601 7.2963L6.7776 3.4727C6.578 2.9409 5.7341 1.953 4.3676 2.8839 3.6449 3.3763 2.9837 3.8271 2.5212 4.1426 2.1002 4.4297 1.8326 4.8936 1.8059 5.4048 1.6388 8.6052 1.6151 14.0425 1.7731 15.8378 1.7762 16.442 2.0217 17.5475 3.9048 17.4931 3.9048 17.4931 15.7606 17.4463 16.2963 17.4931 16.8319 17.5398 18.2718 17.3891 18.2718 15.8378 18.3422 14.6333 18.3557 12.8521 18.294 11.6858 18.2691 11.2145 18.081 10.7678 17.721 10.4656 17.0424 9.8958 15.8418 9.105 14.1542 8.3539L14.103 10.0476 11.1801 9.9751M1.6698 10.7119C2.9039 9.198 6.9708 7.1499 9.5145 7.2007 9.8075 7.2065 10.0546 7.4039 10.1674 7.6762L12.2319 12.659M12.2319 12.659L14.1401 17.4733M12.2319 12.659C7.3765 12.1668 3.4158 13.3513 1.6957 14.2197M12.2319 12.659C14.117 12.8501 15.9168 13.1581 18.3283 14.1604M8.3601 12.5187V10.8503" stroke="currentColor" stroke-linecap="round" stroke-linejoin="round" stroke-width="2"/>
</svg>
