<svg xmlns="http://www.w3.org/2000/svg" width="20" height="20" viewBox="0 0 20 20" fill="none">
  <path d="M14.6498 8.0918C14.2304 7.9776 13.789 7.9167 13.3333 7.9167 11.2223 7.9167 9.4168 9.2249 8.6835 11.0748M14.6498 8.0918C16.7726 8.6697 18.3333 10.6109 18.3333 12.9167 18.3333 15.6781 16.0948 17.9167 13.3333 17.9167 12.0528 17.9167 10.8846 17.4352 10 16.6435M14.6498 8.0918C14.8758 7.5218 15 6.9004 15 6.25 15 3.4886 12.7614 1.25 10 1.25 7.2386 1.25 5 3.4886 5 6.25 5 6.9004 5.1242 7.5218 5.3502 8.0918M8.6835 11.0748C8.4575 11.6448 8.3333 12.2663 8.3333 12.9167 8.3333 14.3975 8.9771 15.728 10 16.6435M8.6835 11.0748C7.1596 10.66 5.9252 9.5425 5.3502 8.0918M5.3502 8.0918C3.2275 8.6697 1.6667 10.6109 1.6667 12.9167 1.6667 15.6781 3.9052 17.9167 6.6667 17.9167 7.9473 17.9167 9.1154 17.4352 10 16.6435" stroke="currentColor" stroke-linecap="round" stroke-width="2"/>
</svg>
