<svg xmlns="http://www.w3.org/2000/svg" width="20" height="20" viewBox="0 0 20 20" fill="none">
  <path d="M11.1958 5.8333L5.966 11.0633M5.966 11.0633L4.0227 13.0064C3.2714 13.7577 2.8957 14.1334 2.6979 14.6112 2.5 15.0888 2.5 15.6201 2.5 16.6827V17.5H3.3174C4.3799 17.5 4.9112 17.5 5.3889 17.3022 5.8666 17.1043 6.2422 16.7286 6.9936 15.9772L11.9076 11.0633M5.966 11.0633H11.9076M11.9076 11.0633L14.1667 8.8042" stroke="currentColor" stroke-linecap="round" stroke-linejoin="round" stroke-width="2"/>
  <path d="M16.0073 6.9906L17.35 8.3333M16.0073 6.9906L16.7254 6.2724C16.9692 6.0286 17.0911 5.9067 17.1758 5.7877 17.6081 5.1806 17.6081 4.3663 17.1758 3.7592 17.0911 3.6402 16.9692 3.5183 16.7254 3.2746 16.4817 3.0308 16.3598 2.9089 16.2408 2.8242 15.6338 2.3919 14.8193 2.3919 14.2123 2.8242 14.0933 2.9089 13.9714 3.0308 13.7277 3.2746L13.0094 3.9928M16.0073 6.9906L13.0094 3.9928M11.6667 2.65L13.0094 3.9928" stroke="currentColor" stroke-linecap="round" stroke-linejoin="round" stroke-width="2"/>
</svg>
