<svg xmlns="http://www.w3.org/2000/svg" width="20" height="20" viewBox="0 0 20 20" fill="none">
  <path d="M4.5833 2.5C5.7537 2.5 6.3389 2.5 6.7593 2.816 6.9413 2.9528 7.0975 3.1286 7.2191 3.3333 7.5 3.8062 7.5 4.4646 7.5 5.7813L7.5 14.2188C7.5 15.5354 7.5 16.1938 7.2191 16.6667 7.0975 16.8714 6.9413 17.0472 6.7593 17.184 6.3389 17.5 5.7537 17.5 4.5833 17.5 3.4129 17.5 2.8278 17.5 2.4074 17.184 2.2254 17.0472 2.0692 16.8714 1.9476 16.6667 1.6667 16.1938 1.6667 15.5354 1.6667 14.2188L1.6667 5.7813C1.6667 4.4646 1.6667 3.8062 1.9476 3.3333 2.0692 3.1286 2.2254 2.9528 2.4074 2.816 2.8278 2.5 3.4129 2.5 4.5833 2.5Z" stroke="currentColor" stroke-width="2"/>
  <path d="M16.6667 9.9479L16.6667 14.2188C16.6667 15.5354 16.6667 16.1938 16.3858 16.6667 16.2642 16.8714 16.1079 17.0472 15.9259 17.184 15.5056 17.5 14.9204 17.5 13.75 17.5 12.5796 17.5 11.9944 17.5 11.5741 17.184 11.3921 17.0472 11.2358 16.8714 11.1143 16.6667 10.8333 16.1938 10.8333 15.5354 10.8333 14.2188L10.8333 5.7813C10.8333 4.4646 10.8333 3.8062 11.1143 3.3333" stroke="currentColor" stroke-linecap="round" stroke-width="2"/>
  <path d="M18.3333 7.4995L13.3333 2.5M18.3333 2.5005L13.3333 7.5" stroke="currentColor" stroke-linecap="round" stroke-linejoin="round" stroke-width="2"/>
</svg>
