<svg xmlns="http://www.w3.org/2000/svg" width="20" height="20" viewBox="0 0 20 20" fill="none">
  <path d="M14.5833 5.8333C15.7538 5.8333 16.3389 5.8333 16.7593 6.1142 16.9413 6.2358 17.0975 6.3921 17.2191 6.5741 17.5 6.9944 17.5 7.5796 17.5 8.75L17.5 15.4167C17.5 16.5871 17.5 17.1723 17.2191 17.5926 17.0975 17.7746 16.9413 17.9308 16.7593 18.0524 16.3389 18.3333 15.7538 18.3333 14.5833 18.3333 13.4129 18.3333 12.8277 18.3333 12.4074 18.0524 12.2254 17.9308 12.0692 17.7746 11.9476 17.5926 11.6667 17.1723 11.6667 16.5871 11.6667 15.4167L11.6667 8.75C11.6667 7.5796 11.6667 6.9944 11.9476 6.5741 12.0692 6.3921 12.2254 6.2358 12.4074 6.1142 12.8277 5.8333 13.4129 5.8333 14.5833 5.8333Z" stroke="currentColor" stroke-width="2"/>
  <path d="M5.4167 5.8333C6.5871 5.8333 7.1722 5.8333 7.5926 6.1142 7.7746 6.2358 7.9309 6.3921 8.0525 6.5741 8.3333 6.9944 8.3333 7.5796 8.3333 8.75L8.3333 15.4167C8.3333 16.5871 8.3333 17.1723 8.0525 17.5926 7.9309 17.7746 7.7746 17.9308 7.5926 18.0524 7.1722 18.3333 6.5871 18.3333 5.4167 18.3333 4.2463 18.3333 3.6611 18.3333 3.2407 18.0524 3.0587 17.9308 2.9025 17.7746 2.7809 17.5926 2.5 17.1723 2.5 16.5871 2.5 15.4167L2.5 8.75C2.5 7.5796 2.5 6.9944 2.7809 6.5741 2.9025 6.3921 3.0587 6.2358 3.2407 6.1142 3.6611 5.8333 4.2463 5.8333 5.4167 5.8333Z" stroke="currentColor" stroke-width="2"/>
  <path d="M12.5 1.6667L11.1785 2.9443C10.6229 3.4814 10.3452 3.75 10 3.75 9.6548 3.75 9.3771 3.4814 8.8215 2.9443L7.5 1.6667" stroke="currentColor" stroke-linecap="round" stroke-linejoin="round" stroke-width="2"/>
</svg>
