<svg xmlns="http://www.w3.org/2000/svg" width="20" height="20" viewBox="0 0 20 20" fill="none">
  <path d="M7.3731 3.5289C7.5 3.8352 7.5 4.2234 7.5 5 7.5 5.7766 7.5 6.1649 7.3731 6.4711 7.204 6.8795 6.8795 7.204 6.4711 7.3731 6.1649 7.5 5.7766 7.5 5 7.5 4.2234 7.5 3.8352 7.5 3.5289 7.3731 3.1205 7.204 2.796 6.8795 2.6269 6.4711 2.5 6.1649 2.5 5.7766 2.5 5 2.5 4.2234 2.5 3.8352 2.6269 3.5289 2.796 3.1205 3.1205 2.796 3.5289 2.6269 3.8352 2.5 4.2234 2.5 5 2.5 5.7766 2.5 6.1649 2.5 6.4711 2.6269 6.8795 2.796 7.204 3.1205 7.3731 3.5289Z" stroke="currentColor" stroke-linecap="round" stroke-linejoin="round" stroke-width="2"/>
  <path d="M10.4167 2.5016C10.9266 2.5056 11.2253 2.5257 11.4712 2.6275 11.8795 2.7967 12.204 3.1211 12.3732 3.5295 12.5 3.8358 12.5 4.2241 12.5 5.0007 12.5 5.7772 12.5 6.1655 12.3732 6.4718 12.204 6.8802 11.8795 7.2046 11.4712 7.3738 11.2253 7.4756 10.9266 7.4957 10.4167 7.4997" stroke="currentColor" stroke-linecap="round" stroke-linejoin="round" stroke-width="2"/>
  <path d="M15.4167 2.5C15.9266 2.504 16.2253 2.5241 16.4712 2.6259 16.8795 2.7951 17.204 3.1195 17.3732 3.5279 17.5 3.8342 17.5 4.2225 17.5 4.999 17.5 5.7756 17.5 6.1639 17.3732 6.4702 17.204 6.8785 16.8795 7.203 16.4712 7.3722 16.2253 7.474 15.9266 7.4941 15.4167 7.4981" stroke="currentColor" stroke-linecap="round" stroke-linejoin="round" stroke-width="2"/>
  <path d="M17.2729 11.9708C17.5 12.4165 17.5 12.9999 17.5 14.1667 17.5 15.3334 17.5 15.9168 17.2729 16.3625 17.0732 16.7545 16.7545 17.0732 16.3625 17.2729 15.9168 17.5 15.3334 17.5 14.1667 17.5 12.9999 17.5 12.4165 17.5 11.9708 17.2729 11.5788 17.0732 11.2602 16.7545 11.0604 16.3625 10.8333 15.9168 10.8333 15.3334 10.8333 14.1667 10.8333 12.9999 10.8333 12.4165 11.0604 11.9708 11.2602 11.5788 11.5788 11.2602 11.9708 11.0604 12.4165 10.8333 12.9999 10.8333 14.1667 10.8333 15.3334 10.8333 15.9168 10.8333 16.3625 11.0604 16.7545 11.2602 17.0732 11.5788 17.2729 11.9708Z" stroke="currentColor" stroke-linecap="round" stroke-linejoin="round" stroke-width="2"/>
  <path d="M5.8333 12.5L7.5 14.1667 5.8333 15.8333M7.0833 14.1667H5.8333C4.6666 14.1667 4.0832 14.1667 3.6375 13.9396 3.2455 13.7398 2.9268 13.4212 2.7271 13.0292 2.5 12.5835 2.5 12.0001 2.5 10.8333" stroke="currentColor" stroke-linecap="round" stroke-linejoin="round" stroke-width="2"/>
</svg>
