<svg xmlns="http://www.w3.org/2000/svg" width="20" height="20" viewBox="0 0 20 20" fill="none">
  <path d="M3.3752 8.3748C1.0972 10.6529 1.0972 14.3463 3.3752 16.6244 5.6533 18.9025 9.3468 18.9025 11.6248 16.6244L14.9158 13.3333M10.0834 1.6667L5.4167 6.3334M18.3333 9.9158L16.6667 11.5825" stroke="currentColor" stroke-linecap="round" stroke-width="2"/>
  <path d="M9.2677 10.7323C10.2441 11.7086 10.2441 13.2914 9.2677 14.2678 8.2915 15.2441 6.7085 15.2441 5.7322 14.2678 4.7559 13.2914 4.7559 11.7086 5.7322 10.7323 6.7085 9.7559 8.2915 9.7559 9.2677 10.7323Z" stroke="currentColor" stroke-linecap="round" stroke-width="2"/>
  <path d="M5.7322 10.7329L11.6665 4.7982M14.7978 1.6667L13.3332 3.1314M18.3332 5.2028L12.8031 10.7329" stroke="currentColor" stroke-linecap="round" stroke-width="2"/>
</svg>
