<svg xmlns="http://www.w3.org/2000/svg" width="20" height="20" viewBox="0 0 20 20" fill="none">
  <path d="M12.5 1.6667L11.6658 2.5008M7.5 6.6667L10 4.1667" stroke="currentColor" stroke-linecap="round" stroke-width="2"/>
  <path d="M17.8452 8.8215C18.4961 9.4723 18.4961 10.5277 17.8452 11.1785 17.1943 11.8294 16.139 11.8294 15.4882 11.1785 14.8373 10.5277 14.8373 9.4723 15.4882 8.8215 16.139 8.1706 17.1943 8.1706 17.8452 8.8215Z" stroke="currentColor" stroke-linecap="round" stroke-width="2"/>
  <path d="M1.7678 13.4693L2.5188 11.0974C2.7024 10.5177 3.122 10.0364 3.6802 9.7652L4.5901 9.3231C5.3017 8.9773 6.1672 9.2223 6.5765 9.8852L7.4279 11.264C7.638 11.6043 7.7431 11.7745 7.8779 11.8621 8.0675 11.9853 8.3055 12.0139 8.5201 11.9393 8.6727 11.8863 8.8169 11.7462 9.1053 11.4659 9.7848 10.8058 10.9158 10.9146 11.4487 11.6913L12.1164 12.6647C12.4881 13.2063 12.5962 13.8793 12.4121 14.5053L12.217 15.1689C12.0412 15.767 11.615 16.2659 11.0425 16.5442L7.8422 18.0991C7.0856 18.4667 6.1819 18.3978 5.4935 17.92L2.6232 15.9277C1.8233 15.3725 1.4787 14.3822 1.7678 13.4693Z" stroke="currentColor" stroke-linecap="round" stroke-linejoin="round" stroke-width="2"/>
  <path d="M18.3333 1.6667L11.6667 8.3333" stroke="currentColor" stroke-linecap="round" stroke-width="2"/>
</svg>
