<svg xmlns="http://www.w3.org/2000/svg" width="20" height="20" viewBox="0 0 20 20" fill="none">
  <path d="M4.1667 13.3333H2.5C2.0398 13.3333 1.6667 13.7064 1.6667 14.1667V14.5833C1.6667 15.0436 2.0398 15.4167 2.5 15.4167H3.3333C3.7936 15.4167 4.1667 15.7898 4.1667 16.25V16.6667C4.1667 17.1269 3.7936 17.5 3.3333 17.5H1.6667" stroke="currentColor" stroke-linecap="round" stroke-linejoin="round" stroke-width="2"/>
  <path d="M7.0833 13.3333H7.9167C8.3769 13.3333 8.75 13.7064 8.75 14.1667V16.6667C8.75 17.1269 8.3769 17.5 7.9167 17.5H7.0833C6.6231 17.5 6.25 17.1269 6.25 16.6667V14.1667C6.25 13.7064 6.6231 13.3333 7.0833 13.3333Z" stroke="currentColor" stroke-linecap="round" stroke-linejoin="round" stroke-width="2"/>
  <path d="M11.6667 13.3333H12.5C12.9603 13.3333 13.3333 13.7064 13.3333 14.1667V16.6667C13.3333 17.1269 12.9603 17.5 12.5 17.5H11.6667C11.2064 17.5 10.8333 17.1269 10.8333 16.6667V14.1667C10.8333 13.7064 11.2064 13.3333 11.6667 13.3333Z" stroke="currentColor" stroke-linecap="round" stroke-linejoin="round" stroke-width="2"/>
  <path d="M18.3333 13.3333V17.5L15.4167 13.3333V17.5" stroke="currentColor" stroke-linecap="round" stroke-linejoin="round" stroke-width="2"/>
  <path d="M14.1667 6.6667C14.1667 4.3655 12.3012 2.5 10 2.5 7.6988 2.5 5.8333 4.3655 5.8333 6.6667 5.8333 8.9678 7.6988 10.8333 10 10.8333 12.3012 10.8333 14.1667 8.9678 14.1667 6.6667Z" stroke="currentColor" stroke-linecap="round" stroke-width="2"/>
  <path d="M11.25 7.0833L10 6.6667V4.5833" stroke="currentColor" stroke-linecap="round" stroke-linejoin="round" stroke-width="2"/>
</svg>
