<svg xmlns="http://www.w3.org/2000/svg" width="20" height="20" viewBox="0 0 20 20" fill="none">
  <path d="M5.0823 16.25C3.9989 16.1434 3.1873 15.818 2.643 15.2737 1.6667 14.2974 1.6667 12.726 1.6667 9.5833V9.1667C1.6667 6.024 1.6667 4.4526 2.643 3.4763 3.6193 2.5 5.1906 2.5 8.3333 2.5H9.5833M5.4167 15C5.2454 15.8349 4.4814 17.6388 5.2631 18.2209 5.6717 18.5182 6.3227 18.2007 7.6249 17.5658 8.5388 17.1201 9.4635 16.6091 10.4622 16.3792 10.8276 16.2959 11.1996 16.2604 11.6667 16.25 14.8093 16.25 16.3808 16.25 17.357 15.2737 18.2892 14.3415 18.3313 12.8669 18.3332 10" stroke="currentColor" stroke-linecap="round" stroke-width="2"/>
  <path d="M12.6667 2.6667L17.3333 7.3333M18.3333 5C18.3333 3.1591 16.8409 1.6667 15 1.6667 13.1591 1.6667 11.6667 3.1591 11.6667 5 11.6667 6.841 13.1591 8.3333 15 8.3333 16.8409 8.3333 18.3333 6.841 18.3333 5Z" stroke="currentColor" stroke-linecap="round" stroke-width="2"/>
</svg>
