<svg xmlns="http://www.w3.org/2000/svg" width="20" height="20" viewBox="0 0 20 20" fill="none">
  <path d="M5.0823 15.8333C3.9989 15.7268 3.1873 15.4013 2.643 14.857 1.6667 13.8808 1.6667 12.3093 1.6667 9.1667V8.75C1.6667 5.6073 1.6667 4.036 2.643 3.0596 3.6193 2.0833 5.1906 2.0833 8.3333 2.0833H11.6667C14.8093 2.0833 16.3808 2.0833 17.357 3.0596 18.3333 4.036 18.3333 5.6073 18.3333 8.75V9.1667C18.3333 12.3093 18.3333 13.8808 17.357 14.857 16.3808 15.8333 14.8093 15.8333 11.6667 15.8333 11.1996 15.8438 10.8276 15.8793 10.4622 15.9625 9.4635 16.1924 8.5388 16.7034 7.6249 17.1491 6.3227 17.784 5.6717 18.1015 5.2631 17.8043 4.4814 17.2221 5.2454 15.4183 5.4167 14.5833" stroke="currentColor" stroke-linecap="round" stroke-width="2"/>
</svg>
