<svg xmlns="http://www.w3.org/2000/svg" width="20" height="20" viewBox="0 0 20 20" fill="none">
  <path d="M12.5 7.5V12.5H7.5V7.5H12.5Z" stroke="currentColor" stroke-linejoin="round" stroke-width="2"/>
  <path d="M12.5 12.5H15C16.3808 12.5 17.5 13.6193 17.5 15 17.5 16.3808 16.3808 17.5 15 17.5 13.6193 17.5 12.5 16.3808 12.5 15V12.5Z" stroke="currentColor" stroke-linejoin="round" stroke-width="2"/>
  <path d="M7.5 12.5017H5C3.6193 12.5017 2.5 13.6209 2.5 15.0017 2.5 16.3823 3.6193 17.5017 5 17.5017 6.3807 17.5017 7.5 16.3823 7.5 15.0017V12.5017Z" stroke="currentColor" stroke-linejoin="round" stroke-width="2"/>
  <path d="M12.5 7.5L12.5 5C12.5 3.6193 13.6193 2.5 15 2.5 16.3808 2.5 17.5 3.6193 17.5 5 17.5 6.3807 16.3808 7.5 15 7.5H12.5Z" stroke="currentColor" stroke-linejoin="round" stroke-width="2"/>
  <path d="M7.5 7.5V5C7.5 3.6193 6.3807 2.5 5 2.5 3.6193 2.5 2.5 3.6193 2.5 5 2.5 6.3807 3.6193 7.5 5 7.5H7.5Z" stroke="currentColor" stroke-linejoin="round" stroke-width="2"/>
</svg>
