<svg xmlns="http://www.w3.org/2000/svg" width="20" height="20" viewBox="0 0 20 20" fill="none">
  <path d="M11.6667 17.5H13.3333M8.3333 17.5C9.0237 17.5 9.5833 16.9403 9.5833 16.25V14.1667L10 14.1667 10.4167 14.1667V16.25C10.4167 16.9403 10.9763 17.5 11.6667 17.5M11.6667 17.5H8.3333M8.3333 17.5H6.6667M10 14.1667V17.5" stroke="currentColor" stroke-linecap="round" stroke-linejoin="round" stroke-width="2"/>
  <path d="M11.6667 2.5H6.6667C4.3096 2.5 3.1311 2.5 2.3989 3.2322 1.6667 3.9645 1.6667 5.143 1.6667 7.5V9.1667C1.6667 11.5237 1.6667 12.7022 2.3989 13.4344 3.1311 14.1667 4.3096 14.1667 6.6667 14.1667H13.75" stroke="currentColor" stroke-linecap="round" stroke-linejoin="round" stroke-width="2"/>
  <path d="M15.8333 8.3333H16.6667C17.5872 8.3333 18.3333 7.5871 18.3333 6.6667V4.5833H14.1667V6.6667C14.1667 7.5871 14.9128 8.3333 15.8333 8.3333Z" stroke="currentColor" stroke-linecap="round" stroke-linejoin="round" stroke-width="2"/>
  <path d="M16.25 8.3333V17.5" stroke="currentColor" stroke-linecap="round" stroke-linejoin="round" stroke-width="2"/>
  <path d="M14.1667 4.5833H18.3333V2.9167C18.3333 2.6866 18.1468 2.5 17.9167 2.5H14.5833C14.3533 2.5 14.1667 2.6866 14.1667 2.9167V4.5833Z" stroke="currentColor" stroke-linecap="round" stroke-linejoin="round" stroke-width="2"/>
</svg>
