<svg xmlns="http://www.w3.org/2000/svg" width="20" height="20" viewBox="0 0 20 20" fill="none">
  <path d="M10 14.1667H6.6667C4.3096 14.1667 3.1311 14.1667 2.3989 13.4344 1.6667 12.7022 1.6667 11.5237 1.6667 9.1667V7.5C1.6667 5.143 1.6667 3.9645 2.3989 3.2322 3.1311 2.5 4.3096 2.5 6.6667 2.5H13.3333C15.6903 2.5 16.8688 2.5 17.6011 3.2322 18.2888 3.92 18.3307 5.0014 18.3332 7.0833" stroke="currentColor" stroke-linecap="round" stroke-linejoin="round" stroke-width="2"/>
  <path d="M13.3333 11.6667V15C13.3333 16.1785 13.3333 16.7678 13.6994 17.1339 14.0656 17.5 14.6548 17.5 15.8333 17.5 17.0118 17.5 17.6011 17.5 17.9672 17.1339 18.3333 16.7678 18.3333 16.1785 18.3333 15V11.6667C18.3333 10.4882 18.3333 9.8989 17.9672 9.5328 17.6011 9.1667 17.0118 9.1667 15.8333 9.1667 14.6548 9.1667 14.0656 9.1667 13.6994 9.5328 13.3333 9.8989 13.3333 10.4882 13.3333 11.6667Z" stroke="currentColor" stroke-linecap="round" stroke-linejoin="round" stroke-width="2"/>
  <path d="M8.3333 17.5H6.6667M8.3333 17.5C9.0237 17.5 9.5833 16.9403 9.5833 16.25V14.1667L10 14.1667M8.3333 17.5H10.4167V14.1667L10 14.1667M10 14.1667V17.5" stroke="currentColor" stroke-linecap="round" stroke-linejoin="round" stroke-width="2"/>
</svg>
