<svg xmlns="http://www.w3.org/2000/svg" width="20" height="20" viewBox="0 0 20 20" fill="none">
  <path d="M11.6667 1.6667H8.3333C5.6006 1.6667 4.2343 1.6667 3.2658 2.3449 2.9074 2.5958 2.5958 2.9074 2.3449 3.2658 1.6667 4.2343 1.6667 5.6006 1.6667 8.3333 1.6667 11.066 1.6667 12.4323 2.3449 13.4009 2.5958 13.7592 2.9074 14.0709 3.2658 14.3218 4.2343 15 5.6006 15 8.3333 15H11.6667C14.3993 15 15.7657 15 16.7342 14.3218 17.0926 14.0709 17.4043 13.7592 17.6552 13.4009 18.3333 12.4323 18.3333 11.066 18.3333 8.3333 18.3333 5.6006 18.3333 4.2343 17.6552 3.2658 17.4043 2.9074 17.0926 2.5958 16.7342 2.3449 15.7657 1.6667 14.3993 1.6667 11.6667 1.6667Z" stroke="currentColor" stroke-linecap="round" stroke-width="2"/>
  <path d="M12.0833 18.3333L11.8204 17.9842C11.2278 17.1974 11.0808 15.9953 11.4557 15M7.9167 18.3333L8.1796 17.9842C8.7722 17.1974 8.9192 15.9953 8.5443 15" stroke="currentColor" stroke-linecap="round" stroke-width="2"/>
  <path d="M5.8333 18.3333H14.1667" stroke="currentColor" stroke-linecap="round" stroke-width="2"/>
  <path d="M6.6667 11.6667C8.1987 9.5038 11.7657 9.3858 13.3333 11.6667M11.6667 6.6667C11.6667 7.5871 10.9205 8.3333 10 8.3333 9.0795 8.3333 8.3333 7.5871 8.3333 6.6667 8.3333 5.7462 9.0795 5 10 5 10.9205 5 11.6667 5.7462 11.6667 6.6667Z" stroke="currentColor" stroke-linecap="round" stroke-width="2"/>
</svg>
