<svg xmlns="http://www.w3.org/2000/svg" width="20" height="20" viewBox="0 0 20 20" fill="none">
  <path d="M11.6667 18.3333H13.3333M11.6667 18.3333C10.9763 18.3333 10.4167 17.7737 10.4167 17.0833V15L10 15M11.6667 18.3333H8.3333M8.3333 18.3333H6.6667M8.3333 18.3333C9.0237 18.3333 9.5833 17.7737 9.5833 17.0833V15L10 15M10 15V18.3333" stroke="currentColor" stroke-linecap="round" stroke-linejoin="round" stroke-width="2"/>
  <path d="M9.1667 3.3333H6.6667C4.3096 3.3333 3.1311 3.3333 2.3989 4.0656 1.6667 4.7978 1.6667 5.9763 1.6667 8.3333V10C1.6667 12.357 1.6667 13.5355 2.3989 14.2678 3.1311 15 4.3096 15 6.6667 15H13.3333C15.6903 15 16.8688 15 17.6011 14.2678 18.2414 13.6274 18.3218 12.6458 18.3319 10.8333" stroke="currentColor" stroke-linecap="round" stroke-linejoin="round" stroke-width="2"/>
  <path d="M18.3333 4.6837V3.0411C18.3333 2.7828 18.1436 2.5683 17.8975 2.5243 16.9058 2.347 16.0825 1.9526 15.6808 1.7339 15.5164 1.6443 15.3169 1.6443 15.1525 1.7339 14.7508 1.9526 13.9276 2.347 12.9358 2.5243 12.6898 2.5683 12.5 2.7828 12.5 3.0411V4.6837C12.5 6.8265 14.6187 7.9953 15.2446 8.2938 15.355 8.3465 15.4783 8.3465 15.5887 8.2938 16.2147 7.9953 18.3333 6.8265 18.3333 4.6837Z" stroke="currentColor" stroke-linecap="round" stroke-linejoin="round" stroke-width="2"/>
</svg>
