<svg xmlns="http://www.w3.org/2000/svg" width="20" height="20" viewBox="0 0 20 20" fill="none">
  <path d="M7.6639 5.7C7.7788 5.9318 7.9937 6.1467 8.4235 6.5765 8.8533 7.0063 9.0682 7.2212 9.3 7.3361 9.7411 7.5546 10.2589 7.5546 10.7 7.3361 10.9318 7.2212 11.1467 7.0063 11.5765 6.5765 12.0063 6.1467 12.2212 5.9318 12.3361 5.7 12.5547 5.2589 12.5547 4.7411 12.3361 4.3 12.2212 4.0682 12.0063 3.8533 11.5765 3.4235 11.1467 2.9937 10.9318 2.7788 10.7 2.6639 10.2589 2.4454 9.7411 2.4454 9.3 2.6639 9.0682 2.7788 8.8533 2.9937 8.4235 3.4235 7.9937 3.8533 7.7788 4.0682 7.6639 4.3 7.4454 4.7411 7.4454 5.2589 7.6639 5.7Z" stroke="currentColor" stroke-linejoin="round" stroke-width="2"/>
  <path d="M2.6639 10.7C2.7788 10.9318 2.9937 11.1467 3.4235 11.5765 3.8533 12.0063 4.0682 12.2212 4.3 12.3361 4.7411 12.5547 5.2589 12.5547 5.7 12.3361 5.9318 12.2212 6.1467 12.0063 6.5765 11.5765 7.0063 11.1467 7.2212 10.9318 7.3361 10.7 7.5546 10.2589 7.5546 9.7411 7.3361 9.3 7.2212 9.0682 7.0063 8.8533 6.5765 8.4235 6.1467 7.9937 5.9318 7.7788 5.7 7.6639 5.2589 7.4454 4.7411 7.4454 4.3 7.6639 4.0682 7.7788 3.8533 7.9937 3.4235 8.4235 2.9937 8.8533 2.7788 9.0682 2.6639 9.3 2.4454 9.7411 2.4454 10.2589 2.6639 10.7Z" stroke="currentColor" stroke-linejoin="round" stroke-width="2"/>
  <path d="M12.6639 10.7C12.7788 10.9318 12.9937 11.1467 13.4235 11.5765 13.8532 12.0063 14.0682 12.2212 14.3 12.3361 14.7411 12.5547 15.2589 12.5547 15.7 12.3361 15.9318 12.2212 16.1468 12.0063 16.5765 11.5765 17.0063 11.1467 17.2212 10.9318 17.3361 10.7 17.5547 10.2589 17.5547 9.7411 17.3361 9.3 17.2212 9.0682 17.0063 8.8533 16.5765 8.4235 16.1468 7.9937 15.9318 7.7788 15.7 7.6639 15.2589 7.4454 14.7411 7.4454 14.3 7.6639 14.0682 7.7788 13.8532 7.9937 13.4235 8.4235 12.9937 8.8533 12.7788 9.0682 12.6639 9.3 12.4453 9.7411 12.4453 10.2589 12.6639 10.7Z" stroke="currentColor" stroke-linejoin="round" stroke-width="2"/>
  <path d="M7.6639 15.7C7.7788 15.9318 7.9937 16.1468 8.4235 16.5765 8.8533 17.0063 9.0682 17.2212 9.3 17.3361 9.7411 17.5547 10.2589 17.5547 10.7 17.3361 10.9318 17.2212 11.1467 17.0063 11.5765 16.5765 12.0063 16.1468 12.2212 15.9318 12.3361 15.7 12.5547 15.2589 12.5547 14.7411 12.3361 14.3 12.2212 14.0682 12.0063 13.8532 11.5765 13.4235 11.1467 12.9937 10.9318 12.7788 10.7 12.6639 10.2589 12.4453 9.7411 12.4453 9.3 12.6639 9.0682 12.7788 8.8533 12.9937 8.4235 13.4235 7.9937 13.8532 7.7788 14.0682 7.6639 14.3 7.4454 14.7411 7.4454 15.2589 7.6639 15.7Z" stroke="currentColor" stroke-linejoin="round" stroke-width="2"/>
</svg>
