<svg xmlns="http://www.w3.org/2000/svg" width="20" height="20" viewBox="0 0 20 20" fill="none">
  <path d="M18.3333 10H1.6667" stroke="currentColor" stroke-linecap="round" stroke-linejoin="round" stroke-width="2"/>
  <path d="M16.4705 10L16.9788 8.6052C17.3625 7.5527 17.5543 7.0264 17.4866 6.5578 17.4373 6.2167 17.2957 5.8997 17.0801 5.6481 16.7839 5.3025 16.2873 5.1467 15.2941 4.8353M15.2941 4.8353C15.2941 5.1026 15.2941 5.2363 15.2627 5.3544 15.2168 5.5273 15.1226 5.68 14.9934 5.791 14.9052 5.8668 14.7921 5.9165 14.5659 6.0158L14.3562 6.1078C13.9186 6.2999 13.6997 6.396 13.5376 6.2989 13.5157 6.2858 13.4949 6.2704 13.4757 6.2529 13.3333 6.1238 13.3333 5.8651 13.3333 5.3477V4.3229C13.3333 3.8055 13.3333 3.5468 13.4757 3.4177 13.4949 3.4002 13.5157 3.3848 13.5376 3.3717 13.6997 3.2745 13.9186 3.3706 14.3562 3.5628L14.5659 3.6548C14.7921 3.7541 14.9052 3.8037 14.9934 3.8796 15.1226 3.9906 15.2168 4.1433 15.2627 4.3162 15.2941 4.4343 15.2941 4.5679 15.2941 4.8353Z" stroke="currentColor" stroke-width="2"/>
  <path d="M16.6667 14.1667H13.3333C11.762 14.1667 10.9763 14.1667 10.4882 13.6785 10 13.1903 10 12.4047 10 10.8333V10" stroke="currentColor" stroke-linecap="round" stroke-linejoin="round" stroke-width="2"/>
  <path d="M3.3333 10V18.3333M16.6667 10V18.3333" stroke="currentColor" stroke-linecap="round" stroke-linejoin="round" stroke-width="2"/>
  <path d="M2.5 5V4.1667C2.5 2.9882 2.5 2.3989 2.8661 2.0328 3.2322 1.6667 3.8215 1.6667 5 1.6667H8.3333C9.5118 1.6667 10.1011 1.6667 10.4673 2.0328 10.8333 2.3989 10.8333 2.9882 10.8333 4.1667V5C10.8333 6.1785 10.8333 6.7678 10.4673 7.1339 10.1011 7.5 9.5118 7.5 8.3333 7.5H5C3.8215 7.5 3.2322 7.5 2.8661 7.1339 2.5 6.7678 2.5 6.1785 2.5 5Z" stroke="currentColor" stroke-linecap="round" stroke-linejoin="round" stroke-width="2"/>
  <path d="M7.9167 7.5L8.3333 10M5.4167 7.5L5 10" stroke="currentColor" stroke-linecap="round" stroke-linejoin="round" stroke-width="2"/>
</svg>
