<svg xmlns="http://www.w3.org/2000/svg" width="20" height="20" viewBox="0 0 20 20" fill="none">
  <path d="M6.25 6.25L7.2721 7.131C7.7018 7.5014 7.9167 7.6866 7.9167 7.9167 7.9167 8.1468 7.7018 8.332 7.2721 8.7023L6.25 9.5833" stroke="currentColor" stroke-linecap="round" stroke-linejoin="round" stroke-width="2"/>
  <path d="M9.5833 10.4167H12.9167" stroke="currentColor" stroke-linecap="round" stroke-linejoin="round" stroke-width="2"/>
  <path d="M10 17.5C13.1248 17.5 14.6872 17.5 15.7824 16.7043 16.1362 16.4473 16.4473 16.1362 16.7043 15.7824 17.5 14.6872 17.5 13.1248 17.5 10 17.5 6.8752 17.5 5.3128 16.7043 4.2176 16.4473 3.8638 16.1362 3.5528 15.7824 3.2958 14.6872 2.5 13.1248 2.5 10 2.5 6.8752 2.5 5.3128 2.5 4.2176 3.2958 3.8638 3.5528 3.5528 3.8638 3.2958 4.2176 2.5 5.3128 2.5 6.8752 2.5 10 2.5 13.1248 2.5 14.6872 3.2958 15.7824 3.5528 16.1362 3.8638 16.4473 4.2176 16.7043 5.3128 17.5 6.8752 17.5 10 17.5Z" stroke="currentColor" stroke-linecap="round" stroke-linejoin="round" stroke-width="2"/>
</svg>
