<svg xmlns="http://www.w3.org/2000/svg" width="20" height="20" viewBox="0 0 20 20" fill="none">
  <path d="M18.3333 10H1.6667" stroke="currentColor" stroke-linecap="round" stroke-linejoin="round" stroke-width="2"/>
  <path d="M14.1667 10V6.6667C14.1667 5.9772 14.3106 5.8333 15 5.8333H15.8333C16.5228 5.8333 16.6667 5.9772 16.6667 6.6667V10" stroke="currentColor" stroke-linejoin="round" stroke-width="2"/>
  <path d="M16.6667 14.1667H13.3333C11.762 14.1667 10.9763 14.1667 10.4882 13.6785 10 13.1903 10 12.4047 10 10.8333V10" stroke="currentColor" stroke-linecap="round" stroke-linejoin="round" stroke-width="2"/>
  <path d="M3.3333 10V18.3333M16.6667 10V18.3333" stroke="currentColor" stroke-linecap="round" stroke-linejoin="round" stroke-width="2"/>
  <path d="M2.5 5V4.1667C2.5 2.9882 2.5 2.3989 2.8661 2.0328 3.2322 1.6667 3.8215 1.6667 5 1.6667H8.3333C9.5118 1.6667 10.1011 1.6667 10.4673 2.0328 10.8333 2.3989 10.8333 2.9882 10.8333 4.1667V5C10.8333 6.1785 10.8333 6.7678 10.4673 7.1339 10.1011 7.5 9.5118 7.5 8.3333 7.5H5C3.8215 7.5 3.2322 7.5 2.8661 7.1339 2.5 6.7678 2.5 6.1785 2.5 5Z" stroke="currentColor" stroke-linecap="round" stroke-linejoin="round" stroke-width="2"/>
  <path d="M7.9167 7.5L8.3333 10M5.4167 7.5L5 10" stroke="currentColor" stroke-linecap="round" stroke-linejoin="round" stroke-width="2"/>
</svg>
