<svg xmlns="http://www.w3.org/2000/svg" width="20" height="20" viewBox="0 0 20 20" fill="none">
  <path d="M10 15.8333H12.5M12.5 15.8333C12.5 15.1935 12.2559 14.5538 11.7677 14.0656 10.7914 13.0893 9.2086 13.0893 8.2322 14.0656 7.2559 15.0419 7.2559 16.6248 8.2322 17.6011 9.2086 18.5774 10.7914 18.5774 11.7677 17.6011 12.2559 17.1129 12.5 16.4732 12.5 15.8333Z" stroke="currentColor" stroke-linecap="round" stroke-width="2"/>
  <path d="M10 2.5L10 5" stroke="currentColor" stroke-linecap="round" stroke-linejoin="round" stroke-width="2"/>
  <path d="M2.4572 9.5803C4.1019 11.8463 6.8667 13.3333 10 13.3333 13.1333 13.3333 15.8981 11.8463 17.5428 9.5803 18.1333 8.7669 18.4284 8.3602 18.306 7.6519 18.1836 6.9437 17.6531 6.577 16.592 5.8436L11.9988 2.6686C11.0325 2.0006 10.5493 1.6667 10 1.6667 9.4507 1.6667 8.9675 2.0006 8.0012 2.6686L3.408 5.8436C2.347 6.577 1.8164 6.9437 1.694 7.6519 1.5715 8.3602 1.8668 8.7669 2.4572 9.5803Z" stroke="currentColor" stroke-width="2"/>
  <path d="M10.1042 7.5H10M10.2083 7.5C10.2083 7.6151 10.1151 7.7083 10 7.7083 9.8849 7.7083 9.7917 7.6151 9.7917 7.5 9.7917 7.3849 9.8849 7.2917 10 7.2917 10.1151 7.2917 10.2083 7.3849 10.2083 7.5Z" stroke="currentColor" stroke-linecap="round" stroke-linejoin="round" stroke-width="2"/>
  <path d="M10.1042 10H10M10.2083 10C10.2083 10.1151 10.1151 10.2083 10 10.2083 9.8849 10.2083 9.7917 10.1151 9.7917 10 9.7917 9.8849 9.8849 9.7917 10 9.7917 10.1151 9.7917 10.2083 9.8849 10.2083 10Z" stroke="currentColor" stroke-linecap="round" stroke-linejoin="round" stroke-width="2"/>
</svg>
