<svg xmlns="http://www.w3.org/2000/svg" width="20" height="20" viewBox="0 0 20 20" fill="none">
  <path d="M7.2754 17.9158C8.3522 16.0633 10.8183 15.8449 12.2227 17.2605 12.5368 17.577 12.6937 17.7353 12.833 17.7542 12.9723 17.7732 13.846 17.2721 14.1562 17.0943 14.4723 16.913 15.3489 16.4102 15.404 16.2787 15.4591 16.1471 15.4014 15.9228 15.2861 15.4743 14.8666 13.8434 15.8838 12.127 17.5092 11.6843 17.9441 11.5658 18.1615 11.5066 18.2474 11.3933 18.3333 11.2801 18.3333 10.2841 18.3333 9.9197 18.3333 9.5553 18.3333 8.5593 18.2474 8.446 18.1615 8.3328 17.9441 8.2735 17.5092 8.1551 15.8836 7.7123 14.8655 5.996 15.2848 4.365 15.4001 3.9164 15.4577 3.6921 15.4027 3.5606 15.3476 3.4291 14.471 2.9263 14.1549 2.745 13.8447 2.5672 12.9709 2.0661 12.8317 2.085 12.6925 2.104 12.5355 2.2622 12.2214 2.5787 11.0053 3.8041 8.9933 3.8041 7.7773 2.5788 7.4632 2.2623 7.3062 2.1041 7.167 2.0851 7.0277 2.0662 6.154 2.5673 5.8438 2.7452 5.5277 2.9264 4.6511 3.4292 4.596 3.5607 4.5409 3.6922 4.5986 3.9165 4.7139 4.365 5.1334 5.996 4.1162 7.7123 2.4909 8.155 2.0559 8.2735 1.8385 8.3328 1.7526 8.4461 1.6667 8.5593 1.6667 9.5553 1.6667 9.9197 1.6667 10.2841 1.6667 11.2801 1.7526 11.3934 1.8385 11.5067 2.0558 11.5658 2.4905 11.6843 2.4956 11.6857 2.5007 11.6871 2.5058 11.6884" stroke="currentColor" stroke-linecap="round" stroke-width="2"/>
  <path d="M2.0741 15.1523C2.9741 14.2528 6.0341 11.224 6.3341 10.8741 6.6512 10.5043 6.3941 10.0045 6.5471 8.4551 6.6211 7.7054 6.7825 7.1438 7.2441 6.7258 7.7941 6.2061 8.2441 6.2061 9.7941 6.1711 11.1441 6.2061 11.3041 6.0561 11.4441 6.406 11.5441 6.6559 11.2441 6.8058 10.8841 7.2056 10.0841 8.0053 9.6141 8.4052 9.5691 8.6551 9.2441 9.7546 10.5241 10.4043 11.2241 9.7046 11.4888 9.44 12.7141 8.2052 12.8341 8.1053 12.9241 8.0253 13.1395 8.0292 13.2441 8.1552 13.3341 8.2436 13.3441 8.2552 13.3341 8.655 13.3248 9.0252 13.329 9.5565 13.3301 10.1044 13.3316 10.8144 13.2941 11.6038 12.9941 12.0037 12.3941 12.9032 11.3941 12.9533 10.4941 12.9933 9.6441 13.0433 8.9441 12.9533 8.7241 13.1132 8.5441 13.2032 7.5941 14.2027 6.4441 15.3522L4.3941 17.4014C2.6941 18.7509 0.8241 16.6517 2.0741 15.1523Z" stroke="currentColor" stroke-linecap="round" stroke-width="2"/>
</svg>
