<svg xmlns="http://www.w3.org/2000/svg" width="20" height="20" viewBox="0 0 20 20" fill="none">
  <path d="M15.8333 12.5V7.5C15.8333 5.143 15.8333 3.9645 15.1011 3.2322 14.3688 2.5 13.1903 2.5 10.8333 2.5H9.1667C6.8096 2.5 5.6311 2.5 4.8989 3.2322 4.1667 3.9645 4.1667 5.143 4.1667 7.5V12.5C4.1667 14.857 4.1667 16.0355 4.8989 16.7678 5.6311 17.5 6.8096 17.5 9.1667 17.5H10.8333C13.1903 17.5 14.3688 17.5 15.1011 16.7678 15.8333 16.0355 15.8333 14.857 15.8333 12.5Z" stroke="currentColor" stroke-width="2"/>
  <path d="M18.3333 5.8333V14.1667" stroke="currentColor" stroke-linecap="round" stroke-width="2"/>
  <path d="M1.6667 5.8333V14.1667" stroke="currentColor" stroke-linecap="round" stroke-width="2"/>
  <path d="M11.6662 7.0906C11.6662 8.0111 10.9201 8.7572 9.9996 8.7572 9.0792 8.7572 8.333 8.0111 8.333 7.0906 8.333 6.1702 9.0792 5.424 9.9996 5.424 10.9201 5.424 11.6662 6.1702 11.6662 7.0906Z" stroke="currentColor" stroke-linecap="round" stroke-linejoin="round" stroke-width="2"/>
  <path d="M6.7037 13.1102C7.5856 11.7524 8.9863 11.2436 9.9996 11.2446 11.013 11.2457 12.3725 11.7524 13.2545 13.1102 13.3115 13.198 13.3272 13.3061 13.2758 13.3973 13.0695 13.7631 12.4291 14.4888 11.9665 14.5381 11.4351 14.5946 10.0448 14.6025 10.0007 14.6028 9.9565 14.6025 8.5233 14.5946 7.9916 14.5381 7.5291 14.4888 6.8887 13.7631 6.6824 13.3973 6.631 13.3061 6.6467 13.198 6.7037 13.1102Z" stroke="currentColor" stroke-linecap="round" stroke-linejoin="round" stroke-width="2"/>
</svg>
