<svg xmlns="http://www.w3.org/2000/svg" width="20" height="20" viewBox="0 0 20 20" fill="none">
  <path d="M1.8801 13.0268C1.9084 12.7575 2.1035 12.5404 2.4939 12.1063L3.3531 11.1458C3.5631 10.8798 3.7122 10.4167 3.7122 9.9998 3.7122 9.5833 3.5631 9.12 3.3531 8.8542L2.4939 7.8936C2.1035 7.4595 1.9084 7.2424 1.8801 6.9731 1.8518 6.7037 1.9976 6.4507 2.2892 5.9447L2.7005 5.2308C3.0116 4.691 3.1671 4.421 3.4317 4.3134 3.6964 4.2058 3.9957 4.2907 4.5943 4.4606L5.6112 4.747C5.9933 4.8351 6.3943 4.7851 6.7433 4.6058L7.024 4.4438C7.3232 4.2522 7.5534 3.9696 7.6808 3.6374L7.9591 2.8063C8.1421 2.2563 8.2336 1.9813 8.4513 1.824 8.6692 1.6667 8.9585 1.6667 9.5371 1.6667H10.4661C11.0448 1.6667 11.3341 1.6667 11.5518 1.824 11.7697 1.9813 11.8612 2.2563 12.0442 2.8063L12.3224 3.6374C12.4498 3.9696 12.68 4.2522 12.9793 4.4438L13.26 4.6058C13.6089 4.7851 14.0099 4.8351 14.3921 4.747L15.4089 4.4606C16.0075 4.2907 16.3068 4.2058 16.5715 4.3134 16.8362 4.421 16.9917 4.691 17.3028 5.2308L17.7141 5.9447C18.0057 6.4507 18.1514 6.7037 18.1232 6.9731 18.0948 7.2424 17.8997 7.4595 17.5093 7.8936L16.6501 8.8542C16.4402 9.12 16.291 9.5833 16.291 9.9998 16.291 10.4167 16.4401 10.8798 16.6501 11.1458L17.5093 12.1063C17.8997 12.5404 18.0948 12.7575 18.1232 13.0268 18.1514 13.2963 18.0057 13.5493 17.7141 14.0552L17.3028 14.7691C16.9917 15.3089 16.8362 15.5789 16.5715 15.6865 16.3068 15.7942 16.0075 15.7092 15.4089 15.5393L14.3921 15.2529C14.0098 15.1648 13.6088 15.2148 13.2598 15.3942L12.9792 15.5562C12.6799 15.7478 12.4498 16.0303 12.3225 16.3625L12.0442 17.1938C11.8612 17.7438 11.7697 18.0188 11.5518 18.176 11.3341 18.3333 11.0448 18.3333 10.4661 18.3333H9.5371C8.9585 18.3333 8.6692 18.3333 8.4513 18.176 8.2336 18.0188 8.1421 17.7438 7.9591 17.1938" stroke="currentColor" stroke-linecap="round" stroke-width="2"/>
  <path d="M2.2808 15.6498C3.1808 14.7498 6.2408 11.7198 6.5408 11.3698 6.8579 10.9998 6.6008 10.4998 6.7538 8.9498 6.8278 8.1998 6.9892 7.638 7.4508 7.2198 8.0008 6.6998 8.4508 6.6998 10.0008 6.6648 11.3508 6.6998 11.5108 6.5498 11.6508 6.8998 11.7508 7.1498 11.4508 7.2998 11.0908 7.6998 10.2908 8.4998 9.8208 8.8998 9.7758 9.1498 9.4508 10.2498 10.7308 10.8998 11.4308 10.1998 11.6955 9.9351 12.9208 8.6998 13.0408 8.5998 13.1308 8.5198 13.3462 8.5237 13.4508 8.6498 13.5408 8.7383 13.5508 8.7498 13.5408 9.1498 13.5316 9.5201 13.5357 10.0517 13.5368 10.5998 13.5382 11.3101 13.5008 12.0998 13.2008 12.4998 12.6008 13.3998 11.6008 13.4498 10.7008 13.4898 9.8508 13.5398 9.1508 13.4498 8.9308 13.6098 8.7508 13.6998 7.8008 14.6998 6.6508 15.8498L4.6008 17.8998C2.9008 19.2498 1.0308 17.1498 2.2808 15.6498Z" stroke="currentColor" stroke-linecap="round" stroke-width="2"/>
</svg>
