<svg xmlns="http://www.w3.org/2000/svg" width="20" height="20" viewBox="0 0 20 20" fill="none">
  <path d="M3.7605 16.2388C5.8542 18.2328 8.3467 17.4352 9.3437 16.6277 9.8595 16.2098 10.0914 15.9398 10.2908 15.7403 10.9887 15.0923 10.9438 14.4443 10.4902 13.9258 10.3087 13.7183 9.1443 12.5998 8.0276 11.4533 7.4494 10.8749 7.0506 10.4663 6.7096 10.1372 6.253 9.6821 5.8542 9.1602 5.256 9.1751 4.7076 9.1751 4.3088 9.6587 3.8103 10.1572 3.2369 10.7306 2.8133 11.4533 2.6638 12.1013 2.2151 13.9956 2.913 15.3415 3.7605 16.2388ZM3.7605 16.2388L1.6668 18.3325" stroke="currentColor" stroke-linecap="round" stroke-width="2"/>
  <path d="M16.2389 3.7623C14.1447 1.7673 11.6608 2.5799 10.6635 3.3879 10.1475 3.8059 9.9156 4.0762 9.7161 4.2756 9.018 4.924 9.0629 5.5724 9.5167 6.0911 9.5819 6.1657 9.7743 6.3581 10.0458 6.6273M16.2389 3.7623C17.0867 4.66 17.794 6.0212 17.3452 7.9164 17.1956 8.5648 16.772 9.2878 16.1983 9.8615 15.6998 10.3603 15.3008 10.844 14.7523 10.844 14.1539 10.859 13.8434 10.4262 13.3867 9.9709M16.2389 3.7623L18.3332 1.6676M13.3867 9.9709C13.0456 9.6418 12.5583 9.1434 11.9799 8.5648 11.2646 7.8301 10.5296 7.1069 10.0458 6.6273M13.3867 9.9709L12.0853 11.2413M8.7595 7.9217L10.0458 6.6273" stroke="currentColor" stroke-linecap="round" stroke-width="2"/>
</svg>
