<svg xmlns="http://www.w3.org/2000/svg" width="20" height="20" viewBox="0 0 20 20" fill="none">
  <path d="M10 11.6667C10.9205 11.6667 11.6667 10.9205 11.6667 10 11.6667 9.0795 10.9205 8.3333 10 8.3333 9.0795 8.3333 8.3333 9.0795 8.3333 10 8.3333 10.9205 9.0795 11.6667 10 11.6667Z" stroke="currentColor" stroke-linecap="round" stroke-linejoin="round" stroke-width="2"/>
  <path d="M16.6667 15C17.5872 15 18.3333 14.2538 18.3333 13.3333 18.3333 12.4128 17.5872 11.6667 16.6667 11.6667 15.7462 11.6667 15 12.4128 15 13.3333 15 14.2538 15.7462 15 16.6667 15Z" stroke="currentColor" stroke-linecap="round" stroke-linejoin="round" stroke-width="2"/>
  <path d="M9.1667 18.3333C10.0872 18.3333 10.8333 17.5872 10.8333 16.6667 10.8333 15.7462 10.0872 15 9.1667 15 8.2462 15 7.5 15.7462 7.5 16.6667 7.5 17.5872 8.2462 18.3333 9.1667 18.3333Z" stroke="currentColor" stroke-linecap="round" stroke-linejoin="round" stroke-width="2"/>
  <path d="M12.5 5C13.4205 5 14.1667 4.2538 14.1667 3.3333 14.1667 2.4129 13.4205 1.6667 12.5 1.6667 11.5795 1.6667 10.8333 2.4129 10.8333 3.3333 10.8333 4.2538 11.5795 5 12.5 5Z" stroke="currentColor" stroke-linecap="round" stroke-linejoin="round" stroke-width="2"/>
  <path d="M3.3333 8.3333C4.2538 8.3333 5 7.5871 5 6.6667 5 5.7462 4.2538 5 3.3333 5 2.4129 5 1.6667 5.7462 1.6667 6.6667 1.6667 7.5871 2.4129 8.3333 3.3333 8.3333Z" stroke="currentColor" stroke-linecap="round" stroke-linejoin="round" stroke-width="2"/>
  <path d="M11.9153 4.8942L10.586 8.439M10.9339 3.903L4.9007 6.0969M9.7939 11.6539L9.3741 15.0127M11.4917 10.7454L15.1763 12.5877M15.1439 14.0103L10.6907 15.9895" stroke="currentColor" stroke-linecap="round" stroke-linejoin="round" stroke-width="2"/>
</svg>
