<svg xmlns="http://www.w3.org/2000/svg" width="20" height="20" viewBox="0 0 20 20" fill="none">
  <path d="M15 5H5C3.8332 5 3.2498 5 2.8042 5.2271 2.4122 5.4268 2.0935 5.7455 1.8937 6.1375 1.6667 6.5832 1.6667 7.1666 1.6667 8.3333 1.6667 9.5001 1.6667 10.0835 1.8937 10.5292 2.0935 10.9212 2.4122 11.2398 2.8042 11.4396 3.2498 11.6667 3.8332 11.6667 5 11.6667H15C16.1668 11.6667 16.7502 11.6667 17.1958 11.4396 17.5878 11.2398 17.9065 10.9212 18.1062 10.5292 18.3333 10.0835 18.3333 9.5001 18.3333 8.3333 18.3333 7.1666 18.3333 6.5832 18.1062 6.1375 17.9065 5.7455 17.5878 5.4268 17.1958 5.2271 16.7502 5 16.1668 5 15 5Z" stroke="currentColor" stroke-linecap="round" stroke-linejoin="round" stroke-width="2"/>
  <path d="M11.6667 5L17.5 10.8333" stroke="currentColor" stroke-linecap="round" stroke-linejoin="round" stroke-width="2"/>
  <path d="M6.6667 5L13.3333 11.6667" stroke="currentColor" stroke-linecap="round" stroke-linejoin="round" stroke-width="2"/>
  <path d="M2.5 5.8333L8.3333 11.6667" stroke="currentColor" stroke-linecap="round" stroke-linejoin="round" stroke-width="2"/>
  <path d="M5 2.5V5M5 11.6667V17.5" stroke="currentColor" stroke-linecap="round" stroke-linejoin="round" stroke-width="2"/>
  <path d="M15 2.5V5M15 11.6667V17.5" stroke="currentColor" stroke-linecap="round" stroke-linejoin="round" stroke-width="2"/>
</svg>
