<svg xmlns="http://www.w3.org/2000/svg" width="20" height="20" viewBox="0 0 20 20" fill="none">
  <path d="M15 5C14.9609 3.7055 14.8164 2.9333 14.2814 2.3989 13.5484 1.6667 12.3686 1.6667 10.009 1.6667H6.6721C4.3125 1.6667 3.1327 1.6667 2.3997 2.3989 1.6667 3.1311 1.6667 4.3096 1.6667 6.6667V13.3333C1.6667 15.6903 1.6667 16.8688 2.3997 17.6011 3.1327 18.3333 4.3125 18.3333 6.6721 18.3333H10.009C12.3686 18.3333 13.5484 18.3333 14.2814 17.6011 14.8164 17.0667 14.9609 16.2946 15 15" stroke="currentColor" stroke-linecap="round" stroke-linejoin="round" stroke-width="2"/>
  <path d="M16.8683 9.7849L17.8492 8.804C18.0745 8.5787 18.1872 8.466 18.2474 8.3445 18.362 8.1132 18.362 7.8417 18.2474 7.6104 18.1872 7.4889 18.0745 7.3762 17.8492 7.1509 17.6238 6.9255 17.5111 6.8129 17.3896 6.7526 17.1583 6.638 16.8868 6.638 16.6555 6.7526 16.534 6.8129 16.4213 6.9255 16.196 7.1509L15.2151 8.1318M16.8683 9.7849L12.4798 14.1734 10 15 10.8266 12.5203 15.2151 8.1318M16.8683 9.7849L15.2151 8.1318" stroke="currentColor" stroke-linecap="round" stroke-linejoin="round" stroke-width="2"/>
  <path d="M4.1667 15.8333H5L6.0417 13.75 7.0833 15.8333H7.9167" stroke="currentColor" stroke-linecap="round" stroke-linejoin="round" stroke-width="2"/>
  <path d="M5 5H11.6667" stroke="currentColor" stroke-linecap="round" stroke-linejoin="round" stroke-width="2"/>
  <path d="M5 8.3333H10" stroke="currentColor" stroke-linecap="round" stroke-linejoin="round" stroke-width="2"/>
</svg>
