<svg xmlns="http://www.w3.org/2000/svg" width="20" height="20" viewBox="0 0 20 20" fill="none">
  <path d="M12.5 1.8766H7.5C5.143 1.8766 3.9645 1.8766 3.2322 2.6089 2.5 3.3411 2.5 4.5196 2.5 6.8766V11.3581C2.5 13.4106 2.5 14.4368 3.0663 15.1279 3.1709 15.2555 3.2878 15.3724 3.4154 15.477 4.1065 16.0433 5.1327 16.0433 7.1852 16.0433 7.5203 16.0433 7.6879 16.0433 7.8377 16.1037 7.8661 16.1151 7.8939 16.1281 7.9209 16.1426 8.0631 16.2191 8.1704 16.3478 8.3849 16.6053L8.7197 17.0068C9.313 17.7189 9.6097 18.1267 10 18.1267 10.3903 18.1267 10.687 17.7189 11.2803 17.0068L11.6151 16.6053C11.8296 16.3478 11.9368 16.2191 12.0791 16.1426 12.1061 16.1281 12.1339 16.1151 12.1623 16.1037 12.3122 16.0433 12.4797 16.0433 12.8148 16.0433 14.8672 16.0433 15.8935 16.0433 16.5846 15.477 16.7122 15.3724 16.8291 15.2555 16.9337 15.1279 17.5 14.4368 17.5 13.4106 17.5 11.3581V6.8766C17.5 4.5196 17.5 3.3411 16.7678 2.6089 16.0355 1.8766 14.857 1.8766 12.5 1.8766Z" stroke="currentColor" stroke-linecap="round" stroke-linejoin="round" stroke-width="2"/>
  <path d="M12.0833 7.2933C12.0833 8.4439 11.1506 9.3767 10 9.3767 8.8494 9.3767 7.9167 8.4439 7.9167 7.2933 7.9167 6.1427 8.8494 5.21 10 5.21 11.1506 5.21 12.0833 6.1427 12.0833 7.2933Z" stroke="currentColor" stroke-linecap="round" stroke-linejoin="round" stroke-width="2"/>
  <path d="M13.3333 12.71C13.3333 10.869 11.8409 9.3767 10 9.3767 8.1591 9.3767 6.6667 10.869 6.6667 12.71" stroke="currentColor" stroke-linecap="round" stroke-linejoin="round" stroke-width="2"/>
</svg>
