<svg xmlns="http://www.w3.org/2000/svg" width="20" height="20" viewBox="0 0 20 20" fill="none">
  <rect x="3.3333333333333335" y="1.6666666666666667" width="14.583333333333334" height="16.666666666666668" rx="3.3333333333333335" stroke="currentColor" stroke-width="2"/>
  <path d="M8.825 11.4507C8.301 11.8017 6.9272 12.5184 7.7639 13.4152 8.1727 13.8533 8.628 14.1667 9.2003 14.1667H12.4663C13.0387 14.1667 13.494 13.8533 13.9027 13.4152 14.7395 12.5184 13.3657 11.8017 12.8417 11.4507 11.6129 10.6276 10.0538 10.6276 8.825 11.4507Z" stroke="currentColor" stroke-width="2"/>
  <path d="M12.5 7.5C12.5 8.4205 11.7538 9.1667 10.8333 9.1667 9.9128 9.1667 9.1667 8.4205 9.1667 7.5 9.1667 6.5795 9.9128 5.8333 10.8333 5.8333 11.7538 5.8333 12.5 6.5795 12.5 7.5Z" stroke="currentColor" stroke-width="2"/>
  <path d="M4.1667 5L2.0833 5M4.1667 10L2.0833 10M4.1667 15H2.0833" stroke="currentColor" stroke-linecap="round" stroke-linejoin="round" stroke-width="2"/>
</svg>
