<svg xmlns="http://www.w3.org/2000/svg" width="20" height="20" viewBox="0 0 20 20" fill="none">
  <path d="M10 18.3333C6.6609 18.3333 4.9913 18.3333 3.954 17.235 2.9167 16.1367 2.9167 14.3688 2.9167 10.8333 2.9167 7.2978 2.9167 5.53 3.954 4.4317 4.9913 3.3333 6.6609 3.3333 10 3.3333 13.3391 3.3333 15.0087 3.3333 16.046 4.4317 17.0833 5.53 17.0833 7.2978 17.0833 10.8333 17.0833 14.3688 17.0833 16.1367 16.046 17.235 15.0087 18.3333 13.3391 18.3333 10 18.3333Z" stroke="currentColor" stroke-linecap="round" stroke-linejoin="round" stroke-width="2"/>
  <path d="M6.6667 3.3333V1.6667" stroke="currentColor" stroke-linecap="round" stroke-width="2"/>
  <path d="M13.3333 3.3333V1.6667" stroke="currentColor" stroke-linecap="round" stroke-width="2"/>
  <path d="M11.6817 7.9105C11.6817 8.831 10.9355 9.5772 10.0151 9.5772 9.0946 9.5772 8.3484 8.831 8.3484 7.9105 8.3484 6.9901 9.0946 6.2439 10.0151 6.2439 10.9355 6.2439 11.6817 6.9901 11.6817 7.9105Z" stroke="currentColor" stroke-linecap="round" stroke-linejoin="round" stroke-width="2"/>
  <path d="M6.7191 13.9301C7.6011 12.5723 9.0017 12.0635 10.0151 12.0645 11.0284 12.0656 12.388 12.5723 13.2699 13.9301 13.3269 14.0179 13.3427 14.126 13.2912 14.2173 13.0849 14.583 12.4445 15.3087 11.982 15.358 11.4505 15.4145 10.0602 15.4224 10.0162 15.4227 9.972 15.4224 8.5388 15.4145 8.0071 15.358 7.5445 15.3087 6.9041 14.583 6.6979 14.2173 6.6464 14.126 6.6621 14.0179 6.7191 13.9301Z" stroke="currentColor" stroke-linecap="round" stroke-linejoin="round" stroke-width="2"/>
</svg>
