<svg xmlns="http://www.w3.org/2000/svg" width="20" height="20" viewBox="0 0 20 20" fill="none">
  <path d="M8.3333 7.5V9.1667" stroke="currentColor" stroke-linecap="round" stroke-width="2"/>
  <circle cx="14.166666666666668" cy="15" r="1.6666666666666667" stroke="currentColor" stroke-width="2"/>
  <circle cx="5.833333333333334" cy="15" r="1.6666666666666667" stroke="currentColor" stroke-width="2"/>
  <path d="M4.1667 14.977C3.2527 14.9315 2.6826 14.7955 2.2769 14.3898 1.6667 13.7796 1.6667 12.7975 1.6667 10.8333V7.5C1.6667 5.5358 1.6667 4.5537 2.2769 3.9435 2.8871 3.3333 3.8691 3.3333 5.8333 3.3333H8.5833C9.514 3.3333 9.9793 3.3333 10.3559 3.4557 11.117 3.703 11.7137 4.2997 11.961 5.0608 12.0833 5.4374 12.0833 5.9027 12.0833 6.8333 12.0833 7.4538 12.0833 7.764 12.1649 8.015 12.3298 8.5224 12.7276 8.9203 13.235 9.0851 13.486 9.1667 13.7962 9.1667 14.4167 9.1667H18.3333V10.8333C18.3333 12.7975 18.3333 13.7796 17.7232 14.3898 17.3174 14.7955 16.7473 14.9315 15.8333 14.977M7.5 15H12.5" stroke="currentColor" stroke-linecap="round" stroke-linejoin="round" stroke-width="2"/>
  <path d="M12.0833 5H13.601C14.8138 5 15.4202 5 15.9137 5.2948 16.4072 5.5895 16.6947 6.1234 17.2697 7.1913L18.3333 9.1667" stroke="currentColor" stroke-linecap="round" stroke-linejoin="round" stroke-width="2"/>
  <path d="M5 7.5V9.1667" stroke="currentColor" stroke-linecap="round" stroke-width="2"/>
</svg>
