<svg xmlns="http://www.w3.org/2000/svg" width="20" height="20" viewBox="0 0 20 20" fill="none">
  <path d="M3.3333 8.3333C3.3333 5.1906 3.3333 3.6193 4.3096 2.643 5.286 1.6667 6.8573 1.6667 10 1.6667H11.25C14.3927 1.6667 15.9641 1.6667 16.9403 2.643 17.9167 3.6193 17.9167 5.1906 17.9167 8.3333V11.6667C17.9167 14.8093 17.9167 16.3808 16.9403 17.357 15.9641 18.3333 14.3927 18.3333 11.25 18.3333H10C6.8573 18.3333 5.286 18.3333 4.3096 17.357 3.3333 16.3808 3.3333 14.8093 3.3333 11.6667V8.3333Z" stroke="currentColor" stroke-width="2"/>
  <path d="M8.1666 9.9784C7.8111 9.3585 7.6394 8.8523 7.5359 8.3392 7.3829 7.5803 7.7332 6.8391 8.3135 6.3661 8.5588 6.1661 8.84 6.2344 8.985 6.4947L9.3124 7.0821C9.572 7.5477 9.7018 7.7805 9.676 8.0274 9.6502 8.2742 9.4753 8.4752 9.1253 8.8773L8.1666 9.9784ZM8.1666 9.9784C8.8862 11.2331 10.0154 12.363 11.2716 13.0834M11.2716 13.0834C11.8915 13.4389 12.3977 13.6106 12.9108 13.7141 13.6697 13.8672 14.4109 13.5168 14.8839 12.9365 15.0838 12.6912 15.0156 12.41 14.7553 12.265L14.1679 11.9376C13.7022 11.678 13.4695 11.5483 13.2227 11.574 12.9758 11.5998 12.7748 11.7748 12.3728 12.1248L11.2716 13.0834Z" stroke="currentColor" stroke-linejoin="round" stroke-width="2"/>
  <path d="M4.1667 5L2.0833 5M4.1667 10L2.0833 10M4.1667 15H2.0833" stroke="currentColor" stroke-linecap="round" stroke-linejoin="round" stroke-width="2"/>
</svg>
