<svg xmlns="http://www.w3.org/2000/svg" width="20" height="20" viewBox="0 0 20 20" fill="none">
  <path d="M12.0718 18.3333H10.8338V17.0952C10.8338 16.7022 10.9898 16.3254 11.2676 16.0476L15.3233 11.9921C15.7573 11.5582 16.4607 11.5582 16.8945 11.9921L17.175 12.2726C17.6088 12.7065 17.6088 13.41 17.175 13.8439L13.1193 17.8994C12.8415 18.1773 12.4647 18.3333 12.0718 18.3333Z" stroke="currentColor" stroke-linecap="round" stroke-linejoin="round" stroke-width="2"/>
  <path d="M15.8338 8.3333V7.5C15.8338 4.7501 15.8338 3.3752 14.9795 2.5209 14.1252 1.6667 12.7503 1.6667 10.0004 1.6667H8.3338C5.5839 1.6667 4.209 1.6667 3.3547 2.5209 2.5004 3.3752 2.5004 4.7501 2.5004 7.5V13.3333C2.5004 15.2824 2.5004 16.2569 2.9475 16.9684 3.1806 17.3394 3.4943 17.6532 3.8653 17.8863 4.5768 18.3333 5.5513 18.3333 7.5004 18.3333" stroke="currentColor" stroke-linecap="round" stroke-linejoin="round" stroke-width="2"/>
  <path d="M9.1671 5H12.5004" stroke="currentColor" stroke-linecap="round" stroke-linejoin="round" stroke-width="2"/>
  <path d="M5.8337 8.3333H12.5004" stroke="currentColor" stroke-linecap="round" stroke-linejoin="round" stroke-width="2"/>
  <path d="M5.8337 11.6667H10.8338" stroke="currentColor" stroke-linecap="round" stroke-linejoin="round" stroke-width="2"/>
</svg>
