<svg xmlns="http://www.w3.org/2000/svg" width="20" height="20" viewBox="0 0 20 20" fill="none">
  <path d="M12.5 4.1667H7.5C5.0786 4.1667 3.8679 4.1667 3.017 4.7797 2.7331 4.9842 2.4842 5.2331 2.2797 5.517 1.6667 6.3679 1.6667 7.5786 1.6667 10 1.6667 12.4214 1.6667 13.6321 2.2797 14.483 2.4842 14.7668 2.7331 15.0158 3.017 15.2203 3.8679 15.8333 5.0786 15.8333 7.5 15.8333H12.5C14.9214 15.8333 16.1321 15.8333 16.983 15.2203 17.2668 15.0158 17.5158 14.7668 17.7203 14.483 18.3333 13.6321 18.3333 12.4214 18.3333 10 18.3333 7.5786 18.3333 6.3679 17.7203 5.517 17.5158 5.2331 17.2668 4.9842 16.983 4.7797 16.1321 4.1667 14.9214 4.1667 12.5 4.1667Z" stroke="currentColor" stroke-linecap="round" stroke-linejoin="round" stroke-width="2"/>
  <path d="M15 7.5V12.5" stroke="currentColor" stroke-linecap="round" stroke-linejoin="round" stroke-width="2"/>
  <path d="M11.6667 7.5V12.5" stroke="currentColor" stroke-linecap="round" stroke-linejoin="round" stroke-width="2"/>
  <path d="M8.3333 7.5V12.5" stroke="currentColor" stroke-linecap="round" stroke-linejoin="round" stroke-width="2"/>
  <path d="M5 7.5V12.5" stroke="currentColor" stroke-linecap="round" stroke-linejoin="round" stroke-width="2"/>
</svg>
