<svg xmlns="http://www.w3.org/2000/svg" width="20" height="20" viewBox="0 0 20 20" fill="none">
  <path d="M17.5 14.1072V8.3333C17.5 5.1906 17.5 3.6193 16.5237 2.643 15.5474 1.6667 13.976 1.6667 10.8333 1.6667H10C6.8573 1.6667 5.286 1.6667 4.3096 2.643 3.3333 3.6193 3.3333 5.1906 3.3333 8.3333V16.25" stroke="currentColor" stroke-linecap="round" stroke-width="2"/>
  <path d="M17.5 14.1667H5.4167C4.2661 14.1667 3.3333 15.0994 3.3333 16.25 3.3333 17.4006 4.2661 18.3333 5.4167 18.3333H17.5" stroke="currentColor" stroke-linecap="round" stroke-width="2"/>
  <path d="M17.5 18.3333C16.3494 18.3333 15.4167 17.4006 15.4167 16.25 15.4167 15.0994 16.3494 14.1667 17.5 14.1667" stroke="currentColor" stroke-linecap="round" stroke-width="2"/>
  <path d="M11.9898 5.7078C12.2548 5.5285 12.5736 5.424 12.9167 5.424 13.8372 5.424 14.5833 6.1767 14.5833 7.1053 14.5833 8.0189 13.8298 8.7833 12.9167 8.7833V9.5833C12.9167 10.369 12.9167 10.7618 12.6726 11.0059 12.4285 11.25 12.0357 11.25 11.25 11.25H9.5833C8.7977 11.25 8.4048 11.25 8.1607 11.0059 7.9167 10.7618 7.9167 10.369 7.9167 9.5833V8.8875C6.9435 8.8875 6.25 8.1626 6.25 7.1053 6.25 6.1767 6.9962 5.424 7.9167 5.424 8.2597 5.424 8.5786 5.5285 8.8436 5.7078 9.0714 5.0529 9.6897 4.5833 10.4167 4.5833 11.1437 4.5833 11.7619 5.0529 11.9898 5.7078ZM11.9898 5.7078C12.0503 5.8821 12.0833 6.0695 12.0833 6.2646" stroke="currentColor" stroke-linecap="round" stroke-linejoin="round" stroke-width="2"/>
</svg>
