<svg xmlns="http://www.w3.org/2000/svg" width="20" height="20" viewBox="0 0 20 20" fill="none">
  <path d="M15 9.1276H5C4.2143 9.1276 3.8215 9.1276 3.5774 9.3717 3.3333 9.6158 3.3333 10.0086 3.3333 10.7942V13.2942C3.3333 15.6513 3.3333 16.8298 4.0656 17.562 4.7978 18.2943 5.9763 18.2943 8.3333 18.2943H11.6667C14.0237 18.2943 15.2022 18.2943 15.9344 17.562 16.6667 16.8298 16.6667 15.6513 16.6667 13.2942V10.7942C16.6667 10.0086 16.6667 9.6158 16.4226 9.3717 16.1785 9.1276 15.7857 9.1276 15 9.1276Z" stroke="currentColor" stroke-linecap="round" stroke-linejoin="round" stroke-width="2"/>
  <path d="M16.6667 10.7942H18.3333" stroke="currentColor" stroke-linecap="round" stroke-linejoin="round" stroke-width="2"/>
  <path d="M1.6667 10.7942H3.3333" stroke="currentColor" stroke-linecap="round" stroke-linejoin="round" stroke-width="2"/>
  <path d="M3.3333 6.6276L17.0173 2.961" stroke="currentColor" stroke-linecap="round" stroke-width="2"/>
  <path d="M7.7604 5.4415L7.6526 5.039C7.4516 4.2889 7.3511 3.9138 7.3944 3.5851 7.4521 3.1469 7.6815 2.7495 8.0322 2.4804 8.2952 2.2786 8.6702 2.1781 9.4203 1.9771 10.1704 1.7761 10.5455 1.6756 10.8742 1.7189 11.3124 1.7766 11.7098 2.006 11.9789 2.3567 12.1807 2.6197 12.2813 2.9948 12.4822 3.7449L12.5901 4.1474" stroke="currentColor" stroke-linecap="round" stroke-width="2"/>
</svg>
