<svg xmlns="http://www.w3.org/2000/svg" width="20" height="20" viewBox="0 0 20 20" fill="none">
  <path d="M2.9915 15.1475C2.8671 15.0618 2.7514 14.9654 2.643 14.857 1.6667 13.8808 1.6667 12.3093 1.6667 9.1667 1.6667 6.024 1.6667 4.4526 2.643 3.4763 3.6193 2.5 5.1906 2.5 8.3333 2.5H11.6667C14.8093 2.5 16.3808 2.5 17.357 3.4763 18.3333 4.4526 18.3333 6.024 18.3333 9.1667 18.3333 12.3093 18.3333 13.8808 17.357 14.857 17.2486 14.9654 17.1329 15.0618 17.0085 15.1475" stroke="currentColor" stroke-linecap="round" stroke-width="2"/>
  <path d="M7.2386 14.105C6.5181 14.5438 4.629 15.4397 5.7796 16.5608 6.3416 17.1083 6.9676 17.5 7.7546 17.5H12.2454C13.0324 17.5 13.6583 17.1083 14.2204 16.5608 15.371 15.4397 13.4819 14.5438 12.7614 14.105 11.0719 13.0761 8.9281 13.0761 7.2386 14.105Z" stroke="currentColor" stroke-linecap="round" stroke-linejoin="round" stroke-width="2"/>
  <path d="M12.0833 9.1667C12.0833 10.3172 11.1506 11.25 10 11.25 8.8494 11.25 7.9167 10.3172 7.9167 9.1667 7.9167 8.0161 8.8494 7.0833 10 7.0833 11.1506 7.0833 12.0833 8.0161 12.0833 9.1667Z" stroke="currentColor" stroke-width="2"/>
</svg>
