<svg xmlns="http://www.w3.org/2000/svg" width="20" height="20" viewBox="0 0 20 20" fill="none">
  <path d="M10.8333 1.6683C8.4763 1.6683 7.2978 1.6683 6.5656 2.4005 5.8333 3.1328 5.8333 4.3113 5.8333 6.6683V10.0017C5.8333 12.3587 5.8333 13.5372 6.5656 14.2694 7.2978 15.0017 8.4763 15.0017 10.8333 15.0017H12.5C14.857 15.0017 16.0355 15.0017 16.7678 14.2694 17.5 13.5372 17.5 12.3587 17.5 10.0017V6.6683C17.5 4.3113 17.5 3.1328 16.7678 2.4005 16.0355 1.6683 14.857 1.6683 12.5 1.6683H10.8333Z" stroke="currentColor" fill-rule="evenodd" clip-rule="evenodd" stroke-linecap="round" stroke-width="2"/>
  <path d="M9.5833 6.2516L13.75 10.4183M13.75 6.2516L9.5833 10.4183" stroke="currentColor" stroke-linecap="round" stroke-width="2"/>
  <path d="M14.1667 18.335H7.5C5.143 18.335 3.9645 18.335 3.2322 17.6028 2.5 16.8705 2.5 15.692 2.5 13.335V5.0016" stroke="currentColor" stroke-linecap="round" stroke-width="2"/>
</svg>
