<svg xmlns="http://www.w3.org/2000/svg" width="20" height="20" viewBox="0 0 20 20" fill="none">
  <path d="M12.1303 11.0152C11.2617 11.8838 9.8534 11.8838 8.9848 11.0152 8.1162 10.1466 8.1162 8.7383 8.9848 7.8697L10.9508 5.9038C11.7797 5.0747 13.1005 5.0369 13.9743 5.7906M13.7031 3.1515C14.5717 2.2829 15.9799 2.2829 16.8486 3.1515 17.7172 4.0201 17.7172 5.4284 16.8486 6.297L14.8826 8.2629C14.0536 9.092 12.7328 9.1298 11.859 8.3761" stroke="currentColor" stroke-linecap="round" stroke-linejoin="round" stroke-width="2"/>
  <path d="M8.7499 2.5C6.0105 2.5 4.6407 2.5 3.7188 3.2566 3.55 3.3951 3.3952 3.5499 3.2567 3.7187 2.5001 4.6407 2.5 6.0104 2.5 8.7498L2.5 10.8333C2.5 13.976 2.5 15.5473 3.4763 16.5237 4.4526 17.5 6.0239 17.5 9.1667 17.5H11.2499C13.9895 17.5 15.3593 17.5 16.2813 16.7433 16.45 16.6048 16.6047 16.4501 16.7433 16.2813 17.4999 15.3593 17.4999 13.9896 17.4999 11.25" stroke="currentColor" stroke-linecap="round" stroke-linejoin="round" stroke-width="2"/>
</svg>
