<svg xmlns="http://www.w3.org/2000/svg" width="20" height="20" viewBox="0 0 20 20" fill="none">
  <path d="M9.1667 10.8333L14.1667 5.8333" stroke="currentColor" stroke-linecap="round" stroke-linejoin="round" stroke-width="2"/>
  <path d="M5.8333 9.1667V7.5C5.8333 4.7501 5.8333 3.3752 6.6876 2.5209 7.5419 1.6667 8.9168 1.6667 11.6667 1.6667 14.4165 1.6667 15.7914 1.6667 16.6458 2.5209 17.5 3.3752 17.5 4.7501 17.5 7.5V9.1667C17.5 11.9165 17.5 13.2914 16.6458 14.1458 15.7914 15 14.4165 15 11.6667 15 8.9168 15 7.5419 15 6.6876 14.1458 5.8333 13.2914 5.8333 11.9165 5.8333 9.1667Z" stroke="currentColor" stroke-linecap="round" stroke-linejoin="round" stroke-width="2"/>
  <path d="M2.5 5V12.5C2.5 15.2498 2.5 16.6248 3.3543 17.4791 4.2085 18.3333 5.5835 18.3333 8.3333 18.3333H14.1667" stroke="currentColor" stroke-linecap="round" stroke-linejoin="round" stroke-width="2"/>
</svg>
