<svg xmlns="http://www.w3.org/2000/svg" width="20" height="20" viewBox="0 0 20 20" fill="none">
  <path d="M14.1364 7.4851C14.1344 5.0266 14.0972 3.7532 13.3815 2.8813 13.2433 2.7129 13.0889 2.5585 12.9206 2.4203 12.0007 1.6655 10.6341 1.6655 7.9007 1.6655 5.1674 1.6655 3.8008 1.6655 2.8809 2.4203 2.7125 2.5585 2.5581 2.7129 2.4199 2.8813 1.665 3.8011 1.665 5.1676 1.665 7.9008 1.665 10.6339 1.665 12.0004 2.4199 12.9203 2.5581 13.0886 2.7125 13.243 2.8809 13.3812 3.7529 14.0968 5.0264 14.134 7.485 14.136" stroke="currentColor" stroke-linecap="round" stroke-linejoin="round" stroke-width="2"/>
  <path d="M11.6903 7.5205L14.1617 7.4849M11.6786 18.3344L14.1499 18.2988M18.3097 11.6851L18.2863 14.1515M7.5086 11.6964L7.4853 14.1628M9.5727 7.5205C8.8788 7.6448 7.7648 7.7726 7.5086 9.2073M16.2455 18.2988C16.9413 18.1852 18.0571 18.0745 18.3354 16.6438M16.2455 7.5205C16.9395 7.6448 18.0534 7.7726 18.3097 9.2073M9.5833 18.2978C8.8893 18.1738 7.7753 18.0466 7.5183 16.612" stroke="currentColor" stroke-linecap="round" stroke-linejoin="round" stroke-width="2"/>
</svg>
