<svg xmlns="http://www.w3.org/2000/svg" width="20" height="20" viewBox="0 0 20 20" fill="none">
  <path d="M18.3333 10C18.3333 14.6023 14.6023 18.3333 10 18.3333 5.3976 18.3333 1.6667 14.6023 1.6667 10 1.6667 5.3976 5.3976 1.6667 10 1.6667 14.6023 1.6667 18.3333 5.3976 18.3333 10Z" stroke="currentColor" stroke-width="2"/>
  <path d="M12.5 11.6667C12.5 12.5872 11.7538 13.3333 10.8333 13.3333H10C9.2234 13.3333 8.8352 13.3333 8.5288 13.2065 8.1205 13.0373 7.796 12.7128 7.6269 12.3045 7.5 11.9982 7.5 11.6099 7.5 10.8333V9.1667C7.5 8.3901 7.5 8.0018 7.6269 7.6955 7.796 7.2871 8.1205 6.9627 8.5288 6.7935 8.8352 6.6667 9.2234 6.6667 10 6.6667H10.8333C11.7538 6.6667 12.5 7.4129 12.5 8.3333" stroke="currentColor" stroke-linecap="round" stroke-width="2"/>
</svg>
