<svg xmlns="http://www.w3.org/2000/svg" width="20" height="20" viewBox="0 0 20 20" fill="none">
  <path d="M3.2373 16.7768C4.99 18.508 8.2192 18.1253 10.4499 15.9218 12.999 13.4039 14.3186 12.649 15.2442 12.1326 15.4312 12.0283 15.4778 11.7691 15.326 11.6191 12.3187 8.6486 7.2982 10.8719 6.7559 14.7917M3.2373 16.7768L2.0833 17.9167M3.2373 16.7768C1.4847 15.0455 1.8726 11.8564 4.1033 9.653 4.8093 9.13 6.1629 7.6473 6.3813 5.6452 6.4034 5.4425 6.6609 5.3399 6.8069 5.4841 7.8939 6.5578 8.4367 7.9654 8.4356 9.3727" stroke="currentColor" stroke-linecap="round" stroke-linejoin="round" stroke-width="2"/>
  <path d="M14.6598 10.8333C16.6182 7.8131 18.7767 3.9369 17.5659 2.538 16.1234 0.8714 11.6737 4.1154 8.3333 6.9472" stroke="currentColor" stroke-linecap="round" stroke-linejoin="round" stroke-width="2"/>
</svg>
