<svg xmlns="http://www.w3.org/2000/svg" width="20" height="20" viewBox="0 0 20 20" fill="none">
  <path d="M10 18.3333V5C10 3.4286 10 2.643 9.5118 2.1548 9.0237 1.6667 8.238 1.6667 6.6667 1.6667H5C3.4286 1.6667 2.643 1.6667 2.1548 2.1548 1.6667 2.643 1.6667 3.4286 1.6667 5V15C1.6667 16.5713 1.6667 17.357 2.1548 17.8452 2.643 18.3333 3.4286 18.3333 5 18.3333H10Z" stroke="currentColor" stroke-width="2"/>
  <path d="M10 18.3333H15C16.5713 18.3333 17.357 18.3333 17.8452 17.8452 18.3333 17.357 18.3333 16.5713 18.3333 15V10C18.3333 8.4287 18.3333 7.643 17.8452 7.1548 17.357 6.6667 16.5713 6.6667 15 6.6667H10" stroke="currentColor" stroke-width="2"/>
  <path d="M15.4167 13.3333H12.9167M15.4167 10L12.9167 10" stroke="currentColor" stroke-linecap="round" stroke-width="2"/>
  <path d="M7.0833 11.6667H4.5833M7.0833 8.3333H4.5833M7.0833 5H4.5833" stroke="currentColor" stroke-linecap="round" stroke-width="2"/>
</svg>
