<svg xmlns="http://www.w3.org/2000/svg" width="20" height="20" viewBox="0 0 20 20" fill="none">
  <path d="M7.9167 7.9167C7.9167 6.7661 8.8494 5.8333 10 5.8333 11.1506 5.8333 12.0833 6.7661 12.0833 7.9167V12.0833C12.0833 13.2339 11.1506 14.1667 10 14.1667 8.8494 14.1667 7.9167 13.2339 7.9167 12.0833V7.9167Z" stroke="currentColor" stroke-width="2"/>
  <path d="M18.0747 7.1797C17.7198 6.377 17.0357 5.8333 16.25 5.8333H15.8333C14.9128 5.8333 14.1667 6.7661 14.1667 7.9167 14.1667 9.0672 14.9128 10 15.8333 10H16.6667C17.5872 10 18.3333 10.9328 18.3333 12.0833 18.3333 13.2339 17.5872 14.1667 16.6667 14.1667H16.25C15.3957 14.1667 14.6615 13.5239 14.34 12.6042" stroke="currentColor" stroke-linecap="round" stroke-width="2"/>
  <path d="M5.8333 6.9286C5.459 6.2765 4.7257 5.8333 3.8823 5.8333 2.6586 5.8333 1.6667 6.7661 1.6667 7.9167V12.0833C1.6667 13.2339 2.6586 14.1667 3.8823 14.1667 4.7257 14.1667 5.459 13.7236 5.8333 13.0714" stroke="currentColor" stroke-linecap="round" stroke-width="2"/>
</svg>
