<svg xmlns="http://www.w3.org/2000/svg" width="20" height="20" viewBox="0 0 20 20" fill="none">
  <path d="M13.5947 3.291C13.4772 2.9588 13.2855 2.6469 13.0198 2.3811 12.0672 1.4285 10.5228 1.4285 9.5703 2.3811 9.3682 2.5832 9.2089 2.8121 9.0926 3.0562 8.8339 3.5989 8.1853 4.092 7.5866 4.1464 6.9469 4.2045 6.3232 4.4784 5.8335 4.9681 4.7222 6.0794 4.7222 7.8811 5.8335 8.9924 6.1466 9.3055 6.5144 9.5304 6.9063 9.6671M13.5947 3.291C13.8981 4.1494 13.7064 5.1438 13.0198 5.8305M13.6928 9.7567C13.809 10 13.9679 10.2281 14.1695 10.4297 14.5905 10.8507 15.1271 11.0856 15.677 11.1344 16.3715 11.1962 17.0874 10.9612 17.6189 10.4297 18.5715 9.4772 18.5715 7.9328 17.6189 6.9803 17.3632 6.7245 17.3632 6.0863 17.6189 5.8305 18.5715 4.8779 18.5715 3.3336 17.6189 2.3811 16.6664 1.4285 15.1221 1.4285 14.1695 2.3811 13.9038 2.6469 13.7121 2.9588 13.5947 3.291M10.1453 9.8547C9.26 8.9696 7.8637 8.907 6.9063 9.6671 6.8334 9.7249 6.7631 9.7874 6.6958 9.8547 5.7433 10.8073 5.7433 12.3517 6.6958 13.3042 7.6483 14.2568 9.1927 14.2568 10.1453 13.3042 10.2317 13.2177 10.3873 13.2441 10.439 13.3551 10.5757 13.6488 10.7652 13.9242 11.0076 14.1665 12.1188 15.2778 13.9206 15.2778 15.0319 14.1665 15.8517 13.3468 16.0667 12.1513 15.677 11.1344" stroke="currentColor" stroke-linecap="round" stroke-linejoin="round" stroke-width="2"/>
  <path d="M1.6667 18.3333L6.6667 13.3333" stroke="currentColor" stroke-linecap="round" stroke-width="2"/>
</svg>
