<svg xmlns="http://www.w3.org/2000/svg" width="20" height="20" viewBox="0 0 20 20" fill="none">
  <path d="M12.5 6.665L7.5 11.665" stroke="currentColor" stroke-linecap="round" stroke-linejoin="round" stroke-width="2"/>
  <path d="M11.6667 1.665H8.3333C5.9763 1.665 4.7978 1.665 4.0656 2.3973 3.3333 3.1295 3.3333 4.308 3.3333 6.665V16.3118C3.3333 17.0231 3.3333 17.3788 3.4694 17.5867 3.62 17.8167 3.8743 17.9576 4.1492 17.9634 4.3976 17.9686 4.6992 17.7801 5.3025 17.4031 5.7674 17.1125 5.9999 16.9672 6.2471 16.9029 6.5222 16.8313 6.8111 16.8313 7.0863 16.9029 7.3334 16.9672 7.5659 17.1125 8.0309 17.4031L8.3333 17.5921C9.0938 18.0674 9.4741 18.3051 9.8947 18.3317 9.9648 18.3362 10.0352 18.3362 10.1053 18.3317 10.5259 18.3051 10.9062 18.0674 11.6667 17.5921L11.9691 17.4031C12.4341 17.1125 12.6666 16.9672 12.9138 16.9029 13.1889 16.8313 13.4778 16.8313 13.7529 16.9029 14.0001 16.9672 14.2326 17.1125 14.6976 17.4031 15.3008 17.7801 15.6024 17.9686 15.8508 17.9634 16.1257 17.9576 16.38 17.8167 16.5306 17.5867 16.6667 17.3788 16.6667 17.0231 16.6667 16.3118V6.665C16.6667 4.308 16.6667 3.1295 15.9344 2.3973 15.2022 1.665 14.0237 1.665 11.6667 1.665Z" stroke="currentColor" stroke-linecap="round" stroke-linejoin="round" stroke-width="2"/>
  <path d="M7.8125 6.8734H7.7083M7.9167 6.8734C7.9167 6.9884 7.8234 7.0817 7.7083 7.0817 7.5933 7.0817 7.5 6.9884 7.5 6.8734 7.5 6.7583 7.5933 6.665 7.7083 6.665 7.8234 6.665 7.9167 6.7583 7.9167 6.8734Z" stroke="currentColor" stroke-linecap="round" stroke-linejoin="round" stroke-width="2"/>
  <path d="M12.3958 11.4567H12.2917M12.5 11.4567C12.5 11.5718 12.4068 11.665 12.2917 11.665 12.1766 11.665 12.0833 11.5718 12.0833 11.4567 12.0833 11.3417 12.1766 11.2483 12.2917 11.2483 12.4068 11.2483 12.5 11.3417 12.5 11.4567Z" stroke="currentColor" stroke-linecap="round" stroke-linejoin="round" stroke-width="2"/>
</svg>
