<svg xmlns="http://www.w3.org/2000/svg" width="20" height="20" viewBox="0 0 20 20" fill="none">
  <path d="M16.6668 12.5C16.6668 14.0532 16.6668 14.8297 16.4131 15.4422 16.0748 16.259 15.4258 16.9079 14.6091 17.2462 13.9965 17.5 13.2199 17.5 11.6668 17.5H9.1668C6.0242 17.5 4.4528 17.5 3.4765 16.5237 2.5002 15.5473 2.5002 13.976 2.5002 10.8333L2.5003 5.8332C2.5003 3.9923 3.9926 2.5 5.8335 2.5" stroke="currentColor" stroke-linecap="round" stroke-linejoin="round" stroke-width="2"/>
  <path d="M8.3335 7.0833L8.6949 10.3908C8.7294 10.6673 8.8993 10.9083 9.1553 11.0183 9.727 11.2638 10.7977 11.6667 11.6668 11.6667 12.5361 11.6667 13.6067 11.2638 14.1784 11.0183 14.4344 10.9083 14.6043 10.6673 14.6388 10.3908L15.0002 7.0833M17.0835 6.25V9.391M11.6668 3.3333L5.8335 5.8333 11.6668 8.3333 17.5002 5.8333 11.6668 3.3333Z" stroke="currentColor" stroke-linecap="round" stroke-linejoin="round" stroke-width="2"/>
</svg>
