<svg xmlns="http://www.w3.org/2000/svg" width="20" height="20" viewBox="0 0 20 20" fill="none">
  <path d="M17.5 17.5H8.3333C5.5835 17.5 4.2085 17.5 3.3543 16.6458 2.5 15.7914 2.5 14.4165 2.5 11.6667V2.5" stroke="currentColor" stroke-linecap="round" stroke-width="2"/>
  <path d="M5.8333 14.1667L16.6667 3.3333" stroke="currentColor" stroke-linecap="round" stroke-linejoin="round" stroke-width="2"/>
  <path d="M6.1458 8.5417H6.0417M6.25 8.5417C6.25 8.6568 6.1567 8.75 6.0417 8.75 5.9266 8.75 5.8333 8.6568 5.8333 8.5417 5.8333 8.4266 5.9266 8.3333 6.0417 8.3333 6.1567 8.3333 6.25 8.4266 6.25 8.5417Z" stroke="currentColor" stroke-linecap="round" stroke-linejoin="round" stroke-width="2"/>
  <path d="M10.3125 5.2083H10.2083M10.4167 5.2083C10.4167 5.3234 10.3234 5.4167 10.2083 5.4167 10.0933 5.4167 10 5.3234 10 5.2083 10 5.0933 10.0933 5 10.2083 5 10.3234 5 10.4167 5.0933 10.4167 5.2083Z" stroke="currentColor" stroke-linecap="round" stroke-linejoin="round" stroke-width="2"/>
  <path d="M11.9792 12.7083H11.875M12.0833 12.7083C12.0833 12.8234 11.9901 12.9167 11.875 12.9167 11.7599 12.9167 11.6667 12.8234 11.6667 12.7083 11.6667 12.5933 11.7599 12.5 11.875 12.5 11.9901 12.5 12.0833 12.5933 12.0833 12.7083Z" stroke="currentColor" stroke-linecap="round" stroke-linejoin="round" stroke-width="2"/>
  <path d="M16.1458 9.375H16.0417M16.25 9.375C16.25 9.4901 16.1568 9.5833 16.0417 9.5833 15.9266 9.5833 15.8333 9.4901 15.8333 9.375 15.8333 9.2599 15.9266 9.1667 16.0417 9.1667 16.1568 9.1667 16.25 9.2599 16.25 9.375Z" stroke="currentColor" stroke-linecap="round" stroke-linejoin="round" stroke-width="2"/>
</svg>
