<svg xmlns="http://www.w3.org/2000/svg" width="20" height="20" viewBox="0 0 20 20" fill="none">
  <path d="M7.9167 1.6667V3.3333" stroke="currentColor" stroke-linecap="round" stroke-linejoin="round" stroke-width="2"/>
  <path d="M12.0833 1.6667V3.3333" stroke="currentColor" stroke-linecap="round" stroke-linejoin="round" stroke-width="2"/>
  <path d="M7.9167 16.6667V18.3333" stroke="currentColor" stroke-linecap="round" stroke-linejoin="round" stroke-width="2"/>
  <path d="M12.0833 16.6667V18.3333" stroke="currentColor" stroke-linecap="round" stroke-linejoin="round" stroke-width="2"/>
  <path d="M18.3333 12.0833L16.6667 12.0833" stroke="currentColor" stroke-linecap="round" stroke-linejoin="round" stroke-width="2"/>
  <path d="M3.3333 7.9167L1.6667 7.9167" stroke="currentColor" stroke-linecap="round" stroke-linejoin="round" stroke-width="2"/>
  <path d="M3.3333 12.0833L1.6667 12.0833" stroke="currentColor" stroke-linecap="round" stroke-linejoin="round" stroke-width="2"/>
  <path d="M18.3333 7.9167L16.6667 7.9167" stroke="currentColor" stroke-linecap="round" stroke-linejoin="round" stroke-width="2"/>
  <path d="M10.5783 7.0833L8.8358 9.1978C8.649 9.4243 8.7828 9.7504 9.0873 9.8108L10.9127 10.1723C11.2373 10.2367 11.3612 10.5976 11.1342 10.8179L8.9722 12.9167" stroke="currentColor" stroke-linecap="round" stroke-linejoin="round" stroke-width="2"/>
  <path d="M3.3333 10C3.3333 6.8573 3.3333 5.286 4.3096 4.3096 5.286 3.3333 6.8573 3.3333 10 3.3333 13.1427 3.3333 14.7141 3.3333 15.6903 4.3096 16.6667 5.286 16.6667 6.8573 16.6667 10 16.6667 13.1427 16.6667 14.7141 15.6903 15.6903 14.7141 16.6667 13.1427 16.6667 10 16.6667 6.8573 16.6667 5.286 16.6667 4.3096 15.6903 3.3333 14.7141 3.3333 13.1427 3.3333 10Z" stroke="currentColor" stroke-linejoin="round" stroke-width="2"/>
</svg>
