<svg xmlns="http://www.w3.org/2000/svg" width="20" height="20" viewBox="0 0 20 20" fill="none">
  <path d="M16.6667 8.3333C16.6367 6.267 16.4834 5.0956 15.6971 4.3096 14.7203 3.3333 13.148 3.3333 10.0036 3.3333 6.8592 3.3333 5.287 3.3333 4.3102 4.3096 3.3333 5.286 3.3333 6.8573 3.3333 10 3.3333 13.1427 3.3333 14.7141 4.3102 15.6903 5.1962 16.5759 6.572 16.6582 9.1667 16.6659" stroke="currentColor" stroke-linecap="round" stroke-linejoin="round" stroke-width="2"/>
  <path d="M15 16.4286V17.5M15 16.4286C14.036 16.4286 13.1867 15.9551 12.6886 15.2361M15 16.4286C15.964 16.4286 16.8133 15.9551 17.3114 15.2361M15 11.0714C15.9641 11.0714 16.8134 11.545 17.3115 12.2641M15 11.0714C14.0359 11.0714 13.1866 11.545 12.6885 12.2641M15 11.0714V10M18.3333 11.6072L17.3115 12.2641M11.667 15.8928L12.6886 15.2361M11.6667 11.6072L12.6885 12.2641M18.333 15.8928L17.3114 15.2361M17.3115 12.2641C17.6061 12.6893 17.7778 13.2003 17.7778 13.75 17.7778 14.2998 17.606 14.8108 17.3114 15.2361M12.6885 12.2641C12.3939 12.6893 12.2223 13.2003 12.2223 13.75 12.2223 14.2998 12.394 14.8108 12.6886 15.2361" stroke="currentColor" stroke-linecap="round" stroke-width="2"/>
  <path d="M7.9167 1.6667V3.3333" stroke="currentColor" stroke-linecap="round" stroke-linejoin="round" stroke-width="2"/>
  <path d="M12.0833 1.6667V3.3333" stroke="currentColor" stroke-linecap="round" stroke-linejoin="round" stroke-width="2"/>
  <path d="M7.9167 16.6667V18.3333" stroke="currentColor" stroke-linecap="round" stroke-linejoin="round" stroke-width="2"/>
  <path d="M3.3333 7.9167L1.6667 7.9167" stroke="currentColor" stroke-linecap="round" stroke-linejoin="round" stroke-width="2"/>
  <path d="M3.3333 12.0833L1.6667 12.0833" stroke="currentColor" stroke-linecap="round" stroke-linejoin="round" stroke-width="2"/>
  <path d="M18.3333 7.9167L16.6667 7.9167" stroke="currentColor" stroke-linecap="round" stroke-linejoin="round" stroke-width="2"/>
  <path d="M10 6.6667H6.6667" stroke="currentColor" stroke-linecap="round" stroke-linejoin="round" stroke-width="2"/>
</svg>
