<svg xmlns="http://www.w3.org/2000/svg" width="20" height="20" viewBox="0 0 20 20" fill="none">
  <path d="M14.1667 2.5C16.0723 2.5 19.2467 2.5 18.0839 6.6424M18.0839 6.6424C16.9723 6.7807 15.4367 7.0833 15.0133 5M18.0839 6.6424L18.1601 7.2506C18.3085 8.4358 17.8014 9.6085 16.8308 10.325L15.0133 11.6667" stroke="currentColor" stroke-linecap="round" stroke-linejoin="round" stroke-width="2"/>
  <path d="M5.8333 2.5C3.9278 2.5 0.7533 2.5 1.9161 6.6424M1.9161 6.6424C3.0277 6.7807 4.5633 7.0833 4.9867 5M1.9161 6.6424L1.8399 7.2506C1.6915 8.4358 2.1986 9.6085 3.1692 10.325L4.9867 11.6667" stroke="currentColor" stroke-linecap="round" stroke-linejoin="round" stroke-width="2"/>
  <path d="M15 12.6579C15 14.5592 12.7998 16.2216 11.3183 17.1254 10.4998 17.6248 9.5002 17.6248 8.6817 17.1254 7.2003 16.2216 5 14.5592 5 12.6579 5 9.7918 7.2386 8.3333 10 8.3333 12.7614 8.3333 15 9.7918 15 12.6579Z" stroke="currentColor" stroke-width="2"/>
  <path d="M6.6667 15.8333C5.4545 15.8333 4.2424 15.8333 3.3333 17.5M13.3333 15.8333C14.5454 15.8333 15.7576 15.8333 16.6667 17.5" stroke="currentColor" stroke-linecap="round" stroke-linejoin="round" stroke-width="2"/>
  <path d="M5 13.75C4.1667 13.75 2.5 13.3333 1.6667 12.0833M15 13.75C15.8333 13.75 17.5 13.3333 18.3333 12.0833" stroke="currentColor" stroke-linecap="round" stroke-linejoin="round" stroke-width="2"/>
  <path d="M11.6667 8.3333L12.0833 7.0833M8.3333 8.3333L7.9167 7.0833" stroke="currentColor" stroke-linecap="round" stroke-linejoin="round" stroke-width="2"/>
</svg>
