<svg xmlns="http://www.w3.org/2000/svg" width="20" height="20" viewBox="0 0 20 20" fill="none">
  <path d="M12.5031 13.3333H4.1674C2.7863 13.3333 1.6667 14.4526 1.6667 15.8333 1.6667 17.2141 2.7863 18.3333 4.1674 18.3333H12.5031C13.8842 18.3333 15.0038 17.2141 15.0038 15.8333 15.0038 14.4526 13.8842 13.3333 12.5031 13.3333Z" stroke="currentColor" stroke-linecap="round" stroke-linejoin="round" stroke-width="2"/>
  <path d="M4.1667 6.6683C4.1667 5.097 4.1667 4.3113 4.655 3.8232 5.1433 3.335 5.9291 3.335 7.5009 3.335L7.4977 3.335C8.1435 3.335 8.8296 3.335 9.123 3.45 9.4164 3.565 9.6532 3.7844 10.1269 4.2231L11.5183 5.5118C11.9611 5.9219 12.1825 6.127 12.3166 6.3864 12.4158 6.6611 12.5023 7.1609 12.5023 7.7643 12.5023 9.0819 12.5023 9.7408 12.1506 10.1923 12.066 10.301 11.9682 10.3988 11.8595 10.4833 11.4078 10.835 10.7488 10.835 9.4308 10.835H7.5009C5.9291 10.835 5.1433 10.835 4.655 10.3468 4.1667 9.8587 4.1667 9.073 4.1667 7.5017V6.6683Z" stroke="currentColor" stroke-linecap="round" stroke-linejoin="round" stroke-width="2"/>
  <path d="M15 10C15 10.9205 15.7462 11.6667 16.6667 11.6667 17.5872 11.6667 18.3333 10.9205 18.3333 10 18.3333 9.0795 17.5872 8.3333 16.6667 8.3333V2.8742C16.6667 2.2073 16.126 1.6667 15.4591 1.6667 15.1633 1.6667 14.8779 1.7752 14.6568 1.9717L11.25 5" stroke="currentColor" stroke-linecap="round" stroke-linejoin="round" stroke-width="2"/>
  <path d="M8.4375 15.8333H8.3333M8.5417 15.8333C8.5417 15.9484 8.4484 16.0417 8.3333 16.0417 8.2183 16.0417 8.125 15.9484 8.125 15.8333 8.125 15.7182 8.2183 15.625 8.3333 15.625 8.4484 15.625 8.5417 15.7182 8.5417 15.8333Z" stroke="currentColor" stroke-linecap="round" stroke-linejoin="round" stroke-width="2"/>
  <path d="M4.6875 15.8333H4.5833M4.7917 15.8333C4.7917 15.9484 4.6984 16.0417 4.5833 16.0417 4.4683 16.0417 4.375 15.9484 4.375 15.8333 4.375 15.7182 4.4683 15.625 4.5833 15.625 4.6984 15.625 4.7917 15.7182 4.7917 15.8333Z" stroke="currentColor" stroke-linecap="round" stroke-linejoin="round" stroke-width="2"/>
  <path d="M12.1875 15.8349H12.0833M12.2917 15.8349C12.2917 15.95 12.1984 16.0433 12.0833 16.0433 11.9683 16.0433 11.875 15.95 11.875 15.8349 11.875 15.7198 11.9683 15.6266 12.0833 15.6266 12.1984 15.6266 12.2917 15.7198 12.2917 15.8349Z" stroke="currentColor" stroke-linecap="round" stroke-linejoin="round" stroke-width="2"/>
</svg>
