<svg xmlns="http://www.w3.org/2000/svg" width="20" height="20" viewBox="0 0 20 20" fill="none">
  <path d="M8.9968 2.4278C9.5157 1.909 10.2297 1.6337 10.9626 1.6698L15.6323 1.9003C16.9668 1.9662 18.0338 3.0333 18.0997 4.3678L18.3302 9.0374C18.3663 9.7703 18.091 10.4842 17.5722 11.0031L11.2568 17.3185C9.9037 18.6716 7.7098 18.6716 6.3567 17.3185L2.6815 13.6433C1.3284 12.2902 1.3284 10.0963 2.6815 8.7432L8.9968 2.4278Z" stroke="currentColor" stroke-width="2"/>
  <path d="M11.6517 9.3387L9.167 10.8333M9.167 10.8333L6.6822 12.328M9.167 10.8333L9.1823 13.75M9.167 10.8333L9.1517 7.9167M9.167 10.8333L11.6667 12.2553M9.167 10.8333L6.6667 9.4113" stroke="currentColor" stroke-linecap="round" stroke-linejoin="round" stroke-width="2"/>
  <path d="M14.8958 5.2083H14.7917M15 5.2083C15 5.3234 14.9068 5.4167 14.7917 5.4167 14.6766 5.4167 14.5833 5.3234 14.5833 5.2083 14.5833 5.0933 14.6766 5 14.7917 5 14.9068 5 15 5.0933 15 5.2083Z" stroke="currentColor" stroke-linecap="round" stroke-linejoin="round" stroke-width="2"/>
</svg>
