<svg xmlns="http://www.w3.org/2000/svg" width="20" height="20" viewBox="0 0 20 20" fill="none">
  <path d="M8.3333 7.6423C8.0727 7.5501 7.7922 7.5 7.5 7.5 6.1193 7.5 5 8.6193 5 10 5 11.3808 6.1193 12.5 7.5 12.5 7.7922 12.5 8.0727 12.4498 8.3333 12.3578" stroke="currentColor" stroke-linecap="round" stroke-linejoin="round" stroke-width="2"/>
  <path d="M14.1667 7.6423C13.906 7.5501 13.6255 7.5 13.3333 7.5 11.9526 7.5 10.8333 8.6193 10.8333 10 10.8333 11.3808 11.9526 12.5 13.3333 12.5 13.6255 12.5 13.906 12.4498 14.1667 12.3578" stroke="currentColor" stroke-linecap="round" stroke-linejoin="round" stroke-width="2"/>
  <path d="M1.6667 10C1.6667 14.6023 5.3976 18.3333 10 18.3333 14.6023 18.3333 18.3333 14.6023 18.3333 10 18.3333 5.3976 14.6023 1.6667 10 1.6667 5.3976 1.6667 1.6667 5.3976 1.6667 10Z" stroke="currentColor" stroke-linecap="round" stroke-linejoin="round" stroke-width="2"/>
</svg>
