<svg xmlns="http://www.w3.org/2000/svg" width="20" height="20" viewBox="0 0 20 20" fill="none">
  <path d="M18.3333 7.9167C18.3029 6.0398 18.1577 4.9555 17.4637 4.1774 17.3233 4.02 17.1685 3.8745 17.0012 3.7424 15.9551 2.9167 14.3882 2.9167 11.2547 2.9167H8.7534C5.6198 2.9167 4.0529 2.9167 3.0069 3.7424 2.8396 3.8745 2.6848 4.02 2.5444 4.1774 1.6667 5.1615 1.6667 6.6354 1.6667 9.5833 1.6667 12.5313 1.6667 14.0052 2.5444 14.9893 2.6848 15.1467 2.8396 15.2922 3.0069 15.4243 4.0529 16.25 5.6198 16.25 8.7534 16.25H9.1667" stroke="currentColor" stroke-linecap="round" stroke-linejoin="round" stroke-width="2"/>
  <path d="M1.6667 7.0833H18.3333" stroke="currentColor" stroke-linejoin="round" stroke-width="2"/>
  <path d="M16.1111 10.4167L16.7971 11.0482C16.9464 11.195 17.0211 11.2684 16.9948 11.3308 16.9685 11.3931 16.8629 11.3931 16.6517 11.3931H14.0648C12.7403 11.3931 11.6667 12.4483 11.6667 13.75 11.6667 14.0434 11.7213 14.3243 11.8208 14.5833M13.8889 17.0833L13.2029 16.4518C13.0536 16.305 12.9789 16.2316 13.0052 16.1692 13.0315 16.1069 13.1371 16.1069 13.3483 16.1069H15.9352C17.2597 16.1069 18.3333 15.0517 18.3333 13.75 18.3333 13.4566 18.2788 13.1758 18.1792 12.9167" stroke="currentColor" stroke-linecap="round" stroke-linejoin="round" stroke-width="2"/>
</svg>
