<svg xmlns="http://www.w3.org/2000/svg" width="20" height="20" viewBox="0 0 20 20" fill="none">
  <path d="M3.7194 3.75C3.4542 3.8567 3.2194 3.9907 3.0062 4.1591 2.839 4.2911 2.6843 4.4367 2.544 4.5941 1.6667 5.5781 1.6667 7.0521 1.6667 10 1.6667 12.9479 1.6667 14.4218 2.544 15.4059 2.6843 15.5633 2.839 15.7088 3.0062 15.8409 4.0518 16.6667 5.6178 16.6667 8.75 16.6667H11.25C13.7436 16.6667 15.214 16.6667 16.25 16.25" stroke="currentColor" stroke-linecap="round" stroke-linejoin="round" stroke-width="2"/>
  <path d="M6.6667 3.3465C7.2731 3.3333 7.962 3.3333 8.75 3.3333H11.25C14.3822 3.3333 15.9482 3.3333 16.9937 4.1591 17.161 4.2911 17.3157 4.4367 17.456 4.5941 18.3333 5.5781 18.3333 7.0521 18.3333 10 18.3333 11.9272 18.3333 13.2244 18.0882 14.1667" stroke="currentColor" stroke-linecap="round" stroke-linejoin="round" stroke-width="2"/>
  <path d="M1.6667 1.6667L18.3333 18.3333" stroke="currentColor" stroke-linecap="round" stroke-width="2"/>
  <path d="M2.0833 7.5H7.5" stroke="currentColor" stroke-linecap="round" stroke-linejoin="round" stroke-width="2"/>
  <path d="M17.9167 7.5L11.25 7.5" stroke="currentColor" stroke-linecap="round" stroke-linejoin="round" stroke-width="2"/>
</svg>
