<svg xmlns="http://www.w3.org/2000/svg" width="20" height="20" viewBox="0 0 20 20" fill="none">
  <path d="M12.5 6.25C12.5 6.25 12.9167 6.25 13.3333 7.0833 13.3333 7.0833 14.6568 5 15.8333 4.5833" stroke="currentColor" stroke-linecap="round" stroke-linejoin="round" stroke-width="2"/>
  <path d="M18.3333 5.8333C18.3333 8.1345 16.4678 10 14.1667 10 11.8655 10 10 8.1345 10 5.8333 10 3.5322 11.8655 1.6667 14.1667 1.6667 16.4678 1.6667 18.3333 3.5322 18.3333 5.8333Z" stroke="currentColor" stroke-linecap="round" stroke-width="2"/>
  <path d="M3.0062 17.5079L3.3936 17.0174 3.0062 17.5079ZM2.544 17.0729L3.0105 16.657 2.544 17.0729ZM17.456 17.0729L16.9895 16.657 17.456 17.0729ZM16.9937 17.5079L16.6064 17.0174 16.9937 17.5079ZM3.0062 5.8261L2.6189 5.3356 3.0062 5.8261ZM2.544 6.2611L3.0105 6.677 2.544 6.2611ZM18.9583 11.0371C18.9578 10.6918 18.6774 10.4125 18.3323 10.4132 17.9871 10.4138 17.7078 10.6941 17.7083 11.0393L18.9583 11.0371ZM7.5549 5.6274C7.9 5.6255 8.1783 5.3441 8.1763 4.9989 8.1744 4.6537 7.8929 4.3755 7.5478 4.3774L7.5549 5.6274ZM11.25 17.7087H8.75V18.9587H11.25V17.7087ZM8.75 17.7087C7.1693 17.7087 6.0363 17.7078 5.1658 17.6094 4.3068 17.5123 3.7863 17.3276 3.3936 17.0174L2.6189 17.9984C3.2717 18.514 4.057 18.7421 5.0255 18.8515 5.9825 18.9596 7.1986 18.9587 8.75 18.9587V17.7087ZM1.0417 11.667C1.0417 13.1244 1.0405 14.2768 1.1564 15.1855 1.2744 16.1114 1.5223 16.8662 2.0775 17.4888L3.0105 16.657C2.6883 16.2956 2.4976 15.8213 2.3963 15.0273 2.2929 14.2161 2.2917 13.1575 2.2917 11.667H1.0417ZM3.3936 17.0174C3.2545 16.9077 3.1264 16.787 3.0105 16.657L2.0775 17.4888C2.2422 17.6737 2.4234 17.8441 2.6189 17.9984L3.3936 17.0174ZM17.7083 11.667C17.7083 13.1575 17.7072 14.2161 17.6037 15.0273 17.5024 15.8213 17.3117 16.2956 16.9895 16.657L17.9225 17.4888C18.4777 16.8662 18.7256 16.1114 18.8437 15.1855 18.9595 14.2768 18.9583 13.1244 18.9583 11.667H17.7083ZM11.25 18.9587C12.8014 18.9587 14.0175 18.9596 14.9745 18.8515 15.943 18.7421 16.7283 18.514 17.3812 17.9984L16.6064 17.0174C16.2137 17.3276 15.6932 17.5123 14.8342 17.6094 13.9637 17.7078 12.8308 17.7087 11.25 17.7087V18.9587ZM16.9895 16.657C16.8736 16.787 16.7455 16.9077 16.6064 17.0174L17.3812 17.9984C17.5766 17.8441 17.7578 17.6737 17.9225 17.4888L16.9895 16.657ZM2.2917 11.667C2.2917 10.1765 2.2929 9.1179 2.3963 8.3067 2.4976 7.5127 2.6883 7.0384 3.0105 6.677L2.0775 5.8452C1.5223 6.4678 1.2744 7.2226 1.1564 8.1485 1.0405 9.0573 1.0417 10.2096 1.0417 11.667H2.2917ZM2.6189 5.3356C2.4234 5.4899 2.2422 5.6604 2.0775 5.8452L3.0105 6.677C3.1264 6.547 3.2545 6.4263 3.3936 6.3166L2.6189 5.3356ZM18.9583 11.667C18.9583 11.451 18.9587 11.2396 18.9583 11.0371L17.7083 11.0393C17.7087 11.2404 17.7083 11.448 17.7083 11.667H18.9583ZM7.5478 4.3774C6.3748 4.3841 5.4201 4.4111 4.638 4.5345 3.8442 4.6598 3.1822 4.8907 2.6189 5.3356L3.3936 6.3166C3.733 6.0485 4.1677 5.8742 4.8328 5.7693 5.5097 5.6624 6.3762 5.6341 7.5549 5.6274L7.5478 4.3774Z" fill="currentColor"/>
  <path d="M8.3333 15H9.5833" stroke="currentColor" stroke-linecap="round" stroke-linejoin="round" stroke-width="2"/>
  <path d="M12.0833 15L15 15" stroke="currentColor" stroke-linecap="round" stroke-linejoin="round" stroke-width="2"/>
  <path d="M2.0833 9.1667H8.3333" stroke="currentColor" stroke-linecap="round" stroke-linejoin="round" stroke-width="2"/>
</svg>
