<svg xmlns="http://www.w3.org/2000/svg" width="20" height="20" viewBox="0 0 20 20" fill="none">
  <path d="M1.6667 10C1.6667 7.0521 1.6667 5.5781 2.544 4.5941 2.6843 4.4367 2.839 4.2911 3.0062 4.1591 4.0518 3.3333 5.6178 3.3333 8.75 3.3333H11.25C14.3822 3.3333 15.9482 3.3333 16.9937 4.1591 17.161 4.2911 17.3157 4.4367 17.456 4.5941 18.3333 5.5781 18.3333 7.0521 18.3333 10 18.3333 12.9479 18.3333 14.4218 17.456 15.4059 17.3157 15.5633 17.161 15.7088 16.9937 15.8409 15.9482 16.6667 14.3822 16.6667 11.25 16.6667H8.75C5.6178 16.6667 4.0518 16.6667 3.0062 15.8409 2.839 15.7088 2.6843 15.5633 2.544 15.4059 1.6667 14.4218 1.6667 12.9479 1.6667 10Z" stroke="currentColor" stroke-linecap="round" stroke-linejoin="round" stroke-width="2"/>
  <path d="M8.3333 13.3333H9.5833" stroke="currentColor" stroke-linecap="round" stroke-linejoin="round" stroke-width="2"/>
  <path d="M12.0833 13.3333L15 13.3333" stroke="currentColor" stroke-linecap="round" stroke-linejoin="round" stroke-width="2"/>
  <path d="M1.6667 7.5H18.3333" stroke="currentColor" stroke-linejoin="round" stroke-width="2"/>
</svg>
