<svg xmlns="http://www.w3.org/2000/svg" width="20" height="20" viewBox="0 0 20 20" fill="none">
  <path d="M5.8333 12.0611C5.8333 12.4448 5.8333 12.6367 5.9048 12.8093 5.9763 12.9818 6.112 13.1175 6.3833 13.3888L6.6111 13.6167C6.8825 13.8881 7.0182 14.0237 7.1907 14.0952 7.3633 14.1667 7.5551 14.1667 7.9389 14.1667H8.65C9.2257 14.1667 9.5135 14.1667 9.7722 14.0595 10.0311 13.9522 10.2346 13.7488 10.6417 13.3417L17.1195 6.8639C17.7382 6.2452 18.0475 5.9359 18.1904 5.5908 18.381 5.1307 18.381 4.6137 18.1904 4.1536 18.0475 3.8085 17.7382 3.4992 17.1195 2.8805 16.5008 2.2619 16.1914 1.9525 15.8464 1.8096 15.3863 1.619 14.8693 1.619 14.4092 1.8096 14.0641 1.9525 13.7548 2.2619 13.1361 2.8805L6.6583 9.3583C6.2513 9.7654 6.0477 9.9689 5.9405 10.2278 5.8333 10.4865 5.8333 10.7743 5.8333 11.35V12.0611Z" stroke="currentColor" stroke-width="2"/>
  <path d="M5.771 12.5L2.0248 16.2462C1.5473 16.7237 1.5473 17.4977 2.0248 17.9752 2.5022 18.4527 3.2763 18.4527 3.7538 17.9752L7.5 14.229" stroke="currentColor" stroke-linejoin="round" stroke-width="2"/>
  <path d="M5.4167 16.6667L3.3333 14.5833" stroke="currentColor" stroke-linejoin="round" stroke-width="2"/>
  <circle cx="2.0833333333333335" cy="2.0833333333333335" r="2.0833333333333335" transform="matrix(-1 0 0 1 21 16)" stroke="currentColor" stroke-linejoin="round" stroke-width="2"/>
</svg>
