<svg xmlns="http://www.w3.org/2000/svg" width="20" height="20" viewBox="0 0 20 20" fill="none">
  <path d="M2.9197 8.7472C2.54 9.1315 2.2712 9.8565 1.8113 11.5227 1.714 11.8751 1.6427 12.2395 1.676 12.6034 1.7255 13.1435 1.9094 13.4777 2.2766 13.7541 2.6661 14.0473 3.1734 14.1202 3.6629 14.1202H4.9288C5.802 14.1202 6.7178 13.9473 7.3021 13.3053 7.9674 12.5743 8.1399 11.7627 7.9322 11.2271M8.3499 2.9609L11.1413 1.856C11.9952 1.5181 13.0213 1.6162 13.6435 2.2861 13.9454 2.6112 14.1383 2.9418 14.1978 3.3742V5.0932C14.1978 6.0967 13.7639 7.0877 12.8946 7.6046 12.3959 7.9012 11.9137 8.1092 11.2739 8.3339M3.3375 6.6807C4.3428 4.8892 5.0671 4.1553 6.6791 3.3742 7.0472 3.1759 7.3543 3.0622 7.6448 3.0423 8.8054 2.9629 9.4294 4.3308 9.9019 5.3827L10.7416 7.2521C10.8178 7.4217 10.8767 7.5989 10.9054 7.7823 11.0358 8.6142 10.9076 9.0313 10.4385 9.5738L9.6743 10.33C9.3494 10.6514 9.0026 10.9748 8.564 11.1099 8.4402 11.1481 8.3216 11.1692 8.2039 11.1738 7.423 11.2044 6.6898 10.7838 5.9526 10.5269 5.0088 10.1979 4.3109 9.6679 3.3375 8.7472 2.8191 7.9268 2.8439 7.4734 3.3375 6.6807Z" stroke="currentColor" stroke-linecap="round" stroke-linejoin="round" stroke-width="2"/>
  <path d="M14.1979 6.2872C15.179 6.4579 15.7298 6.5564 16.7042 6.7023 17.0858 6.7581 17.3712 6.7067 17.6913 6.4919 18.187 6.1592 18.4625 5.5248 18.2694 4.9621 18.0797 4.4093 17.6187 3.9694 16.7042 3.3814 15.7434 2.714 15.1947 2.4361 14.1979 2.1361M2.0844 14.1743C2.1626 15.3305 2.5662 16.0679 3.7552 17.4952 4.2935 18.0461 4.6861 18.2728 5.2068 18.3274 5.6152 18.3702 6.0124 18.1718 6.2684 17.8527 6.583 17.4604 6.7109 17.1385 6.6792 16.665L6.2615 14.1743" stroke="currentColor" stroke-linecap="round" stroke-linejoin="round" stroke-width="2"/>
</svg>
