<svg xmlns="http://www.w3.org/2000/svg" width="20" height="20" viewBox="0 0 20 20" fill="none">
  <path d="M11.2501 6.2516V4.585C11.2501 4.1978 11.2501 4.0041 11.2181 3.8431 11.0866 3.182 10.5698 2.6652 9.9086 2.5337 9.7476 2.5016 9.554 2.5016 9.1668 2.5016 8.7796 2.5016 8.5859 2.5016 8.4249 2.5337 7.7638 2.6652 7.247 3.182 7.1155 3.8431 7.0834 4.0041 7.0834 4.1978 7.0834 4.585V6.2516C7.0834 7.0373 7.0834 7.4301 6.8394 7.6742 6.5953 7.9183 6.2024 7.9183 5.4168 7.9183H3.7501C3.3629 7.9183 3.1693 7.9183 3.0083 7.9503 2.3471 8.0818 1.8303 8.5987 1.6988 9.2598 1.6668 9.4208 1.6668 9.6144 1.6668 10.0017 1.6668 10.3888 1.6668 10.5824 1.6988 10.7434 1.8303 11.4046 2.3471 11.9214 3.0083 12.0529 3.1693 12.085 3.3629 12.085 3.7501 12.085H5.4168C6.2024 12.085 6.5953 12.085 6.8393 12.3291 7.0834 12.5731 7.0834 12.966 7.0834 13.7517L7.0834 15.4183C7.0834 15.8055 7.0834 15.9991 7.1154 16.1601 7.2469 16.8213 7.7637 17.3381 8.4249 17.4696 8.5859 17.5017 8.7795 17.5017 9.1668 17.5017 9.554 17.5017 9.7476 17.5017 9.9086 17.4696 10.5698 17.3381 11.0866 16.8213 11.2181 16.1602 11.2501 15.9991 11.2501 15.8055 11.2501 15.4183V13.7517C11.2501 12.9659 11.2501 12.5731 11.4942 12.329 11.7383 12.085 12.1311 12.085 12.9168 12.085H14.5834C14.9707 12.085 15.1642 12.085 15.3253 12.0529 15.9864 11.9214 16.5033 11.4046 16.6348 10.7434 16.6668 10.5824 16.6668 10.3888 16.6668 10.0017 16.6668 9.6144 16.6668 9.4208 16.6348 9.2598 16.5033 8.5987 15.9864 8.0818 15.3253 7.9503 15.1642 7.9183 14.9707 7.9183 14.5834 7.9183H12.9168C12.1311 7.9183 11.7383 7.9183 11.4942 7.6742 11.2501 7.4301 11.2501 7.0373 11.2501 6.2516Z" stroke="currentColor" stroke-linecap="round" stroke-linejoin="round" stroke-width="2"/>
</svg>
