<svg xmlns="http://www.w3.org/2000/svg" width="20" height="20" viewBox="0 0 20 20" fill="none">
  <path d="M15.4167 1.6667V5.8333M17.5 3.75L13.3333 3.75" stroke="currentColor" stroke-linecap="round" stroke-linejoin="round" stroke-width="2"/>
  <path d="M4.1667 18.3333H15.8333" stroke="currentColor" stroke-linecap="round" stroke-linejoin="round" stroke-width="2"/>
  <path d="M14.0598 15.8333H5.9403C5.0835 15.8333 4.6551 15.8333 4.3302 15.6028 4.0053 15.3723 3.8637 14.968 3.5807 14.1593L1.7094 8.8139C1.6098 8.5194 1.6875 8.1947 1.9102 7.9751 2.1905 7.6989 2.6295 7.656 2.9593 7.8727L3.9862 8.5477C5.0228 9.2289 5.5411 9.5696 6.0651 9.4458 6.5891 9.3219 6.9002 8.7853 7.5222 7.7122L9.3677 4.5284C9.4973 4.3047 9.7387 4.1667 10 4.1667 10.2613 4.1667 10.5027 4.3047 10.6323 4.5284L12.4778 7.7122C13.0998 8.7853 13.4108 9.3219 13.9348 9.4458 14.4589 9.5696 14.9772 9.2289 16.0138 8.5477L17.0407 7.8727C17.3704 7.656 17.8096 7.6989 18.0898 7.9751 18.3125 8.1947 18.3903 8.5194 18.2907 8.8139L16.4193 14.1593C16.1363 14.968 15.9947 15.3723 15.6698 15.6028 15.3449 15.8333 14.9165 15.8333 14.0598 15.8333Z" stroke="currentColor" stroke-linecap="round" stroke-linejoin="round" stroke-width="2"/>
</svg>
