<svg xmlns="http://www.w3.org/2000/svg" width="20" height="20" viewBox="0 0 20 20" fill="none">
  <path d="M17.9167 2.5L13.75 2.5" stroke="currentColor" stroke-linecap="round" stroke-linejoin="round" stroke-width="2"/>
  <path d="M4.1667 17.5H15.8333" stroke="currentColor" stroke-linecap="round" stroke-linejoin="round" stroke-width="2"/>
  <path d="M14.0598 15H5.9403C5.0835 15 4.6551 15 4.3302 14.7695 4.0053 14.539 3.8637 14.1347 3.5807 13.326L1.7094 7.9806C1.6098 7.686 1.6875 7.3613 1.9102 7.1418 2.1905 6.8655 2.6295 6.8227 2.9593 7.0394L3.9862 7.7143C5.0228 8.3956 5.5411 8.7363 6.0651 8.6124 6.5891 8.4886 6.9002 7.952 7.5222 6.8788L9.3677 3.6951C9.4973 3.4714 9.7387 3.3333 10 3.3333 10.2613 3.3333 10.5027 3.4714 10.6323 3.6951L12.4778 6.8788C13.0998 7.952 13.4108 8.4886 13.9348 8.6124 14.4589 8.7363 14.9772 8.3956 16.0138 7.7143L17.0407 7.0394C17.3704 6.8227 17.8096 6.8655 18.0898 7.1418 18.3125 7.3613 18.3903 7.686 18.2907 7.9806L16.4193 13.326C16.1363 14.1347 15.9947 14.539 15.6698 14.7695 15.3449 15 14.9165 15 14.0598 15Z" stroke="currentColor" stroke-linecap="round" stroke-linejoin="round" stroke-width="2"/>
</svg>
