<svg xmlns="http://www.w3.org/2000/svg" width="20" height="20" viewBox="0 0 20 20" fill="none">
  <path d="M4.1667 16.6667H15.8333" stroke="currentColor" stroke-linecap="round" stroke-linejoin="round" stroke-width="2"/>
  <path d="M6.6666 10C5.7462 10 5 9.2538 5 8.3333 5 8.1574 5.0272 7.9879 5.0777 7.8287L2.9497 6.0193C2.6432 5.7587 2.1813 5.7737 1.8933 6.0535 1.6892 6.2518 1.6157 6.544 1.7026 6.8115L3.7857 13.0294C4.0133 13.7088 4.6496 14.1667 5.366 14.1667H14.634C15.3504 14.1667 15.9868 13.7088 16.2143 13.0294L18.2974 6.8115C18.3843 6.544 18.3108 6.2518 18.1068 6.0535 17.8188 5.7737 17.3568 5.7587 17.0503 6.0193L14.9223 7.8288C14.9728 7.9879 15 8.1575 15 8.3333 15 9.2538 14.2538 10 13.3333 10 12.4128 10 11.6667 9.2538 11.6667 8.3333 11.6667 7.8024 11.9149 7.3294 12.3018 7.0242L10.5769 2.8846C10.4798 2.6517 10.2523 2.5 10 2.5 9.7477 2.5 9.5201 2.6517 9.4231 2.8846L7.6982 7.0242C8.085 7.3294 8.3333 7.8024 8.3333 8.3333 8.3333 9.2538 7.5871 10 6.6666 10Z" stroke="currentColor" stroke-linecap="round" stroke-linejoin="round" stroke-width="2"/>
</svg>
