<svg xmlns="http://www.w3.org/2000/svg" width="20" height="20" viewBox="0 0 20 20" fill="none">
  <path d="M4.1667 17.0833H15.8333" stroke="currentColor" stroke-linecap="round" stroke-linejoin="round" stroke-width="2"/>
  <path d="M14.0598 14.5833H5.9403C5.0835 14.5833 4.6551 14.5833 4.3302 14.3528 4.0053 14.1223 3.8637 13.718 3.5807 12.9093L1.7094 7.5639C1.6098 7.2694 1.6875 6.9447 1.9102 6.7251 2.1905 6.4489 2.6295 6.406 2.9593 6.6227L3.9862 7.2976C5.0228 7.9789 5.5411 8.3195 6.0651 8.1957 6.5891 8.0719 6.9002 7.5353 7.5222 6.4622L9.3677 3.2784C9.4973 3.0547 9.7387 2.9167 10 2.9167 10.2613 2.9167 10.5027 3.0547 10.6323 3.2784L12.4778 6.4622C13.0998 7.5353 13.4108 8.0719 13.9348 8.1957 14.4589 8.3195 14.9772 7.9789 16.0138 7.2976L17.0407 6.6227C17.3704 6.406 17.8096 6.4489 18.0898 6.7251 18.3125 6.9447 18.3903 7.2694 18.2907 7.5639L16.4193 12.9093C16.1363 13.718 15.9947 14.1223 15.6698 14.3528 15.3449 14.5833 14.9165 14.5833 14.0598 14.5833Z" stroke="currentColor" stroke-linecap="round" stroke-linejoin="round" stroke-width="2"/>
</svg>
