<svg xmlns="http://www.w3.org/2000/svg" width="20" height="20" viewBox="0 0 20 20" fill="none">
  <path d="M12.9167 17.8087C12.0089 18.1479 11.0261 18.3333 10 18.3333 8.9739 18.3333 7.9911 18.1479 7.0833 17.8087M2.7815 14.1667C2.0725 12.9409 1.6667 11.5178 1.6667 10 1.6667 5.3976 5.3976 1.6667 10 1.6667 14.6023 1.6667 18.3333 5.3976 18.3333 10 18.3333 11.5178 17.9275 12.9409 17.2185 14.1667" stroke="currentColor" stroke-linecap="round" stroke-linejoin="round" stroke-width="2"/>
  <path d="M7.5 13.3332C8.1964 12.81 9.062 12.5 10 12.5 10.938 12.5 11.8037 12.81 12.5 13.3332" stroke="currentColor" stroke-linecap="round" stroke-linejoin="round" stroke-width="2"/>
  <path d="M7.9167 7.9167H6.8393C6.462 7.9167 6.1001 8.0665 5.8333 8.3333M12.0833 7.9167H13.1608C13.538 7.9167 13.8999 8.0665 14.1667 8.3333" stroke="currentColor" stroke-linecap="round" stroke-linejoin="round" stroke-width="2"/>
  <path d="M5 10.8333L5 18.3333M15 10.8333V18.3333" stroke="currentColor" stroke-linecap="round" stroke-linejoin="round" stroke-width="2"/>
</svg>
