<svg xmlns="http://www.w3.org/2000/svg" width="20" height="20" viewBox="0 0 20 20" fill="none">
  <path d="M16.6667 10.8333V8.8808C16.6667 8.1995 16.6667 7.8588 16.5398 7.5526 16.4129 7.2463 16.1721 7.0054 15.6903 6.5237L11.7433 2.5766C11.3275 2.1608 11.1197 1.953 10.8621 1.8298 10.8085 1.8042 10.7537 1.7814 10.6977 1.7617 10.4284 1.6667 10.1345 1.6667 9.5465 1.6667 6.8424 1.6667 5.4903 1.6667 4.5744 2.4051 4.3894 2.5542 4.2209 2.7228 4.0717 2.9078 3.3333 3.8236 3.3333 5.1757 3.3333 7.8799V10.8333M10.8333 2.0833V2.5C10.8333 4.857 10.8333 6.0355 11.5656 6.7678 12.2978 7.5 13.4763 7.5 15.8333 7.5H16.25" stroke="currentColor" stroke-linecap="round" stroke-linejoin="round" stroke-width="2"/>
  <path d="M11.6668 13.3333H9.1667C8.7064 13.3333 8.3333 13.7064 8.3333 14.1667V15C8.3333 15.4603 8.7064 15.8333 9.1667 15.8333H10.8335C11.2938 15.8333 11.6668 16.2064 11.6668 16.6667V17.5C11.6668 17.9602 11.2938 18.3333 10.8335 18.3333H8.3333" stroke="currentColor" stroke-linecap="round" stroke-linejoin="round" stroke-width="2"/>
  <path d="M5.8333 14.3497C5.7872 13.3577 5.1013 13.3333 4.1709 13.3333 2.7376 13.3333 2.5 13.6717 2.5 15V16.6667C2.5 17.995 2.7376 18.3333 4.1709 18.3333 5.1013 18.3333 5.7872 18.309 5.8333 17.317" stroke="currentColor" stroke-linecap="round" stroke-linejoin="round" stroke-width="2"/>
  <path d="M17.5002 13.3333H15C14.5398 13.3333 14.1667 13.7064 14.1667 14.1667V15C14.1667 15.4603 14.5398 15.8333 15 15.8333H16.6668C17.1271 15.8333 17.5002 16.2064 17.5002 16.6667V17.5C17.5002 17.9602 17.1271 18.3333 16.6668 18.3333H14.1667" stroke="currentColor" stroke-linecap="round" stroke-linejoin="round" stroke-width="2"/>
</svg>
