<svg xmlns="http://www.w3.org/2000/svg" width="20" height="20" viewBox="0 0 20 20" fill="none">
  <path d="M16.4583 2.0835H3.9583C3.4981 2.0835 3.125 2.4566 3.125 2.9169L4.6729 14.9134C4.7468 15.4855 5.1111 15.9787 5.6362 16.2174L8.9665 17.7312C9.2358 17.8536 9.528 17.9168 9.8237 17.9168 10.0779 17.9168 10.33 17.8701 10.5673 17.7788L14.6975 16.1903C15.2689 15.9705 15.6738 15.4552 15.7522 14.848L17.2917 2.9169C17.2917 2.4566 16.9186 2.0835 16.4583 2.0835Z" stroke="currentColor" stroke-linecap="round" stroke-linejoin="round" stroke-width="2"/>
  <path d="M6.25 5.4167H13.75L6.6667 9.1667H13.3333L12.9167 13.3333 10 14.1667 7.0833 13.3333 6.9167 11.6667" stroke="currentColor" stroke-linecap="round" stroke-linejoin="round" stroke-width="2"/>
</svg>
