<svg xmlns="http://www.w3.org/2000/svg" width="20" height="20" viewBox="0 0 20 20" fill="none">
  <path d="M6.25 14.3497C6.2038 13.3577 5.518 13.3333 4.5875 13.3333 3.1543 13.3333 2.9167 13.6717 2.9167 15V16.6667C2.9167 17.995 3.1543 18.3333 4.5875 18.3333 5.518 18.3333 6.2038 18.309 6.25 17.317M17.0833 13.3333L15.6024 17.2456C15.3279 17.9708 15.1907 18.3333 14.9733 18.3333 14.7559 18.3333 14.6187 17.9708 14.3442 17.2456L12.8633 13.3333M10.73 13.3333H9.7459C9.3526 13.3333 9.156 13.3333 9.0009 13.3968 8.4727 13.6128 8.4798 14.1207 8.4798 14.5833 8.4798 15.0461 8.4727 15.5539 9.0009 15.7699 9.156 15.8333 9.3527 15.8333 9.7459 15.8333 10.1392 15.8333 10.3358 15.8333 10.4909 15.8968 11.0191 16.1128 11.0119 16.6206 11.0119 17.0833 11.0119 17.5461 11.0191 18.0539 10.4909 18.2699 10.3358 18.3333 10.1392 18.3333 9.7459 18.3333H8.6741" stroke="currentColor" stroke-linecap="round" stroke-width="2"/>
  <path d="M16.6667 10.8333V8.8808C16.6667 8.1995 16.6667 7.8588 16.5398 7.5526 16.4129 7.2463 16.1721 7.0054 15.6903 6.5237L11.7433 2.5766C11.3275 2.1608 11.1197 1.953 10.8621 1.8298 10.8085 1.8042 10.7537 1.7814 10.6977 1.7617 10.4284 1.6667 10.1345 1.6667 9.5465 1.6667 6.8424 1.6667 5.4903 1.6667 4.5744 2.4051 4.3894 2.5542 4.2209 2.7228 4.0717 2.9078 3.3333 3.8236 3.3333 5.1757 3.3333 7.8799V10.8333M10.8333 2.0833V2.5C10.8333 4.857 10.8333 6.0355 11.5656 6.7678 12.2978 7.5 13.4763 7.5 15.8333 7.5H16.25" stroke="currentColor" stroke-linecap="round" stroke-linejoin="round" stroke-width="2"/>
</svg>
