<svg xmlns="http://www.w3.org/2000/svg" width="20" height="20" viewBox="0 0 20 20" fill="none">
  <path d="M2.3274 17.6726C2.5715 17.9167 2.9643 17.9167 3.75 17.9167H12.0833C12.869 17.9167 13.2618 17.9167 13.5059 17.6726M2.3274 17.6726C2.0833 17.4285 2.0833 17.0357 2.0833 16.25V7.9167C2.0833 7.131 2.0833 6.7382 2.3274 6.4941M2.3274 17.6726L7.3274 12.6726M13.5059 17.6726C13.75 17.4285 13.75 17.0357 13.75 16.25V7.9167C13.75 7.131 13.75 6.7382 13.5059 6.4941M13.5059 17.6726L17.6726 13.5059C17.9167 13.2618 17.9167 12.869 17.9167 12.0833V3.75C17.9167 2.9643 17.9167 2.5715 17.6726 2.3274M13.5059 6.4941C13.2618 6.25 12.869 6.25 12.0833 6.25H3.75C2.9643 6.25 2.5715 6.25 2.3274 6.4941M13.5059 6.4941L17.6726 2.3274M2.3274 6.4941L6.4941 2.3274C6.7382 2.0833 7.131 2.0833 7.9167 2.0833H16.25C17.0357 2.0833 17.4285 2.0833 17.6726 2.3274M7.3274 12.6726C7.5715 12.9167 7.9643 12.9167 8.75 12.9167H11.6667M7.3274 12.6726C7.0833 12.4285 7.0833 12.0357 7.0833 11.25V8.75" stroke="currentColor" stroke-linecap="round" stroke-linejoin="round" stroke-width="2"/>
</svg>
