<svg xmlns="http://www.w3.org/2000/svg" width="20" height="20" viewBox="0 0 20 20" fill="none">
  <path d="M10 3.3333C10.9205 3.3333 11.6667 4.0795 11.6667 5 11.6667 5.9205 10.9205 6.6667 10 6.6667 9.0795 6.6667 8.3333 5.9205 8.3333 5 8.3333 4.0795 9.0795 3.3333 10 3.3333ZM10 3.3333C10 2.9167 10.3333 2 11.6667 1.6667" stroke="currentColor" stroke-linecap="round" stroke-linejoin="round" stroke-width="2"/>
  <path d="M8.3333 5C6.4929 5 4.9183 7.0773 6.0411 8.4009 4.6859 8.1163 3.3333 9.1214 3.3333 10.4451 3.3333 12.9049 7.218 13.2563 7.7333 10.8639 8.2032 13.0453 11.7968 13.0453 12.2667 10.8639 12.782 13.2563 16.6667 12.9049 16.6667 10.4451 16.6667 9.1214 15.3141 8.1163 13.9589 8.4009 15.0817 7.0773 13.5071 5 11.6667 5" stroke="currentColor" stroke-linejoin="round" stroke-width="2"/>
  <path d="M5 12.5L5.9759 15.9158C6.3084 17.0793 6.4746 17.6612 6.9202 17.9973 7.3657 18.3333 7.9708 18.3333 9.181 18.3333H10.819C12.0292 18.3333 12.6342 18.3333 13.0798 17.9973 13.5254 17.6612 13.6916 17.0793 14.0241 15.9158L15 12.5" stroke="currentColor" stroke-linecap="round" stroke-linejoin="round" stroke-width="2"/>
</svg>
