<svg xmlns="http://www.w3.org/2000/svg" width="20" height="20" viewBox="0 0 20 20" fill="none">
  <path d="M6.5705 7.6465C5.1476 8.0531 4.1667 9.3536 4.1667 10.8333M12.3556 5.0062C12.9188 3.4257 11.7058 1.6667 10 1.6667 10 5 6.5705 4.1667 6.5705 7.6465 8.2125 7.1774 11.6893 6.8755 12.3556 5.0062ZM12.9167 8.4325C13.301 8.2104 13.6758 7.921 13.9038 7.5654 14.6202 6.4487 13.7117 4.8898 12.3556 5.0062M13.9038 7.5654C15.5348 7.9461 15.8333 9.4114 15.8333 10.8333" stroke="currentColor" stroke-linecap="round" stroke-linejoin="round" stroke-width="2"/>
  <path d="M13.3333 12.4573C13.3333 10.292 16.6667 10.292 16.6667 12.4573 16.6667 13.5926 16.0372 14.5649 15.5487 15.5492 14.8763 16.9038 14.54 17.5811 13.9359 17.9573 13.3318 18.3333 12.58 18.3333 11.0765 18.3333H8.9235C7.42 18.3333 6.6682 18.3333 6.0641 17.9573 5.46 17.5811 5.1238 16.9038 4.4514 15.5492 3.9628 14.5649 3.3333 13.5926 3.3333 12.4573 3.3333 10.292 6.6667 10.292 6.6667 12.4573 6.6667 10.292 10 10.292 10 12.4573 10 10.292 13.3333 10.292 13.3333 12.4573Z" stroke="currentColor" stroke-linejoin="round" stroke-width="2"/>
</svg>
