<svg xmlns="http://www.w3.org/2000/svg" width="20" height="20" viewBox="0 0 20 20" fill="none">
  <path d="M13.3333 5.0016H5C4.0795 5.0016 3.3333 5.7478 3.3333 6.6683 3.3333 7.1285 3.7064 7.5016 4.1667 7.5016H14.1667C14.6269 7.5016 15 7.1285 15 6.6683 15 5.7478 14.2538 5.0016 13.3333 5.0016Z" stroke="currentColor" stroke-linecap="round" stroke-linejoin="round" stroke-width="2"/>
  <path d="M14.1667 7.5016L13.6529 14.1806C13.5188 15.9231 13.4518 16.7943 12.9713 17.3957 12.8153 17.5907 12.6311 17.7614 12.4246 17.9019 11.7881 18.335 10.9143 18.335 9.1667 18.335 7.419 18.335 6.5452 18.335 5.9087 17.9019 5.7023 17.7614 5.518 17.5907 5.3621 17.3957 4.8815 16.7943 4.8145 15.9231 4.6804 14.1806L4.1667 7.5016H14.1667Z" stroke="currentColor" stroke-linecap="round" stroke-linejoin="round" stroke-width="2"/>
  <path d="M10 5.0016L10.227 4.0937C10.5058 2.9786 10.6452 2.4211 11.0418 2.0767 11.0856 2.0386 11.1314 2.0028 11.179 1.9695 11.6093 1.6683 12.184 1.6683 13.3333 1.6683" stroke="currentColor" stroke-linecap="round" stroke-linejoin="round" stroke-width="2"/>
</svg>
