<svg xmlns="http://www.w3.org/2000/svg" width="20" height="20" viewBox="0 0 20 20" fill="none">
  <path d="M1.6667 12.5H10" stroke="currentColor" stroke-linecap="round" stroke-linejoin="round" stroke-width="2"/>
  <path d="M5.8353 16.6667H14.1647C15.7218 16.6667 16.5002 16.6667 17.0801 16.3317 18.4683 15.5298 18.3295 13.9065 18.3295 12.5 18.3295 11.0935 18.4683 9.4702 17.0801 8.6683 16.8593 8.5408 16.6098 8.4618 16.2995 8.4129 16.0517 8.3738 15.9277 8.3543 15.8468 8.2956 15.7658 8.2368 15.7156 8.1386 15.6152 7.9421L14.6732 6.0973C13.4908 3.8118 12.6898 3.3333 10.0459 3.3333H6.3453C5.8537 3.3333 5.3373 3.3352 5.1176 3.8478 4.9631 4.2083 4.9631 4.9584 5.1176 5.3189 5.3373 5.8314 5.8537 5.8333 6.3453 5.8333H9.765C11.1643 5.8333 11.4287 6.51 11.4783 7.4998V7.4998C11.4975 7.8828 11.5071 8.0743 11.3838 8.2038 11.2607 8.3333 11.0592 8.3333 10.6562 8.3333H5.8353C4.2783 8.3333 3.4998 8.3333 2.92 8.6683 1.5316 9.4702 1.6705 11.0935 1.6705 12.5 1.6705 13.9065 1.5316 15.5298 2.92 16.3317 3.4998 16.6667 4.2783 16.6667 5.8353 16.6667Z" stroke="currentColor" stroke-linecap="round" stroke-linejoin="round" stroke-width="2"/>
</svg>
