<svg xmlns="http://www.w3.org/2000/svg" width="20" height="20" viewBox="0 0 20 20" fill="none">
  <path d="M18.3333 2.5L1.6667 2.5" stroke="currentColor" stroke-linecap="round" stroke-linejoin="round" stroke-width="2"/>
  <path d="M4.1667 11.6667C4.6654 11.0771 5.6393 9.4948 5.8333 7.5" stroke="currentColor" stroke-linecap="round" stroke-linejoin="round" stroke-width="2"/>
  <path d="M15.8333 11.6667C15.3346 11.0771 14.3607 9.4948 14.1667 7.5" stroke="currentColor" stroke-linecap="round" stroke-linejoin="round" stroke-width="2"/>
  <path d="M2.5 2.5V12.1875M2.5 12.1875V13.9583C2.5 15.6279 2.5 16.4627 2.9882 16.9813 3.4763 17.5 4.262 17.5 5.8333 17.5H6.6667C6.6667 16.2759 6.3333 13.3982 5 11.6795M2.5 12.1875C3.4566 12.1235 4.2842 11.9453 5 11.6795M5 11.6795C8.234 10.4791 10.0001 6.0121 10 2.5" stroke="currentColor" stroke-linecap="round" stroke-linejoin="round" stroke-width="2"/>
  <path d="M17.5 2.5V12.1875M17.5 12.1875V13.9583C17.5 15.6279 17.5 16.4627 17.0118 16.9813 16.5237 17.5 15.738 17.5 14.1667 17.5H13.3333C13.3333 16.2759 13.6667 13.3982 15 11.6795M17.5 12.1875C16.5434 12.1235 15.7158 11.9453 15 11.6795M15 11.6795C11.766 10.4791 9.9999 6.0121 10 2.5" stroke="currentColor" stroke-linecap="round" stroke-linejoin="round" stroke-width="2"/>
</svg>
