<svg xmlns="http://www.w3.org/2000/svg" width="20" height="20" viewBox="0 0 20 20" fill="none">
  <path d="M10.8446 16.6635C10.8446 16.6635 9.6201 18.3313 9.181 18.3321 8.7418 18.3328 7.5118 16.6692 7.5118 16.6692M12.4886 3.3296C12.4886 3.3296 11.2584 1.6667 10.8193 1.6675 10.3802 1.6682 9.1558 3.3353 9.1558 3.3353M10.7092 1.8549C10.9527 3.0303 11.0503 5.2339 9.0077 6.3289 8.2889 6.7827 7.084 6.6999 5.7128 6.7022 5.154 6.7313 4.138 7.209 4.1656 8.4018 4.1931 9.5946 5.1738 9.9846 5.6606 10.0305L14.0848 10.0161C14.7944 10.0028 15.8328 10.4122 15.835 11.6752 15.8371 12.9082 14.7447 13.3928 13.9249 13.2878 11.7048 13.0035 9.3793 13.6807 9.1808 16.5963L9.1838 18.3321" stroke="currentColor" stroke-linecap="round" stroke-linejoin="round" stroke-width="2"/>
</svg>
