<svg xmlns="http://www.w3.org/2000/svg" width="20" height="20" viewBox="0 0 20 20" fill="none">
  <path d="M3.3309 12.5001C3.3309 12.5001 1.665 11.2726 1.665 10.8334 1.665 10.3942 3.3309 9.1668 3.3309 9.1668M1.8524 10.7229C3.0288 10.9645 5.2338 11.0583 6.3259 9.0136 6.7787 8.2939 6.6938 7.0889 6.6938 5.7176 6.7219 5.1585 7.1982 4.1416 8.3916 4.1671 9.5851 4.1927 9.9769 5.1728 10.0237 5.6597V14.0852C10.0115 14.7949 10.423 15.8328 11.6866 15.8328 12.9203 15.8328 13.4032 14.7393 13.2968 13.9197 13.0087 11.6997 13.6823 9.3727 16.5991 9.1692H18.3358" stroke="currentColor" stroke-linecap="round" stroke-linejoin="round" stroke-width="2"/>
</svg>
