<svg xmlns="http://www.w3.org/2000/svg" width="20" height="20" viewBox="0 0 20 20" fill="none">
  <path d="M16.6691 12.5003C16.6691 12.5003 18.3349 11.2728 18.3349 10.8337 18.3349 10.3944 16.6691 9.167 16.6691 9.167M18.1476 10.7231C16.9712 10.9648 14.7662 11.0585 13.6741 9.0137 13.2213 8.2941 13.3063 7.0891 13.3063 5.7178 13.278 5.1587 12.8018 4.1418 11.6083 4.1673 10.4149 4.1929 10.0231 5.173 9.9763 5.6599V14.0853C9.9884 14.7951 9.577 15.8329 8.3134 15.8329 7.0796 15.8329 6.5967 14.7396 6.7031 13.9199 6.9913 11.6998 6.3178 9.3729 3.4009 9.1694H1.6642" stroke="currentColor" stroke-linecap="round" stroke-linejoin="round" stroke-width="2"/>
</svg>
