<svg xmlns="http://www.w3.org/2000/svg" width="20" height="20" viewBox="0 0 20 20" fill="none">
  <path d="M3.3317 10.833C3.3317 10.833 1.665 9.6055 1.665 9.1663 1.665 8.7271 3.3317 7.4997 3.3317 7.4997M16.6699 12.5001C16.6699 12.5001 18.3358 11.2726 18.3358 10.8334 18.3358 10.3942 16.6699 9.1668 16.6699 9.1668M18.1484 10.7229C16.972 10.9645 14.767 11.0583 13.6749 9.0136 13.2222 8.2939 13.307 7.0889 13.307 5.7176 13.2788 5.1585 12.8027 4.1416 11.6092 4.1671 10.4158 4.1927 10.0238 5.1728 9.9771 5.6597V14.0852C9.9893 14.7949 9.5778 15.8328 8.3142 15.8328 7.0804 15.8328 6.5975 14.7393 6.7039 13.9197 6.9921 11.6997 6.3186 9.3727 3.4017 9.1692H1.665" stroke="currentColor" stroke-linecap="round" stroke-linejoin="round" stroke-width="2"/>
</svg>
