<svg xmlns="http://www.w3.org/2000/svg" width="20" height="20" viewBox="0 0 20 20" fill="none">
  <path d="M14.1667 11.5038C14.1667 11.2157 14.1667 11.0717 14.21 10.9433 14.336 10.5703 14.6682 10.4257 15.0009 10.2741 15.375 10.1037 15.562 10.0185 15.7473 10.0035 15.9578 9.9865 16.1685 10.0318 16.3483 10.1327 16.5868 10.2665 16.753 10.5208 16.9232 10.7275 17.7093 11.6823 18.1024 12.1598 18.2462 12.6863 18.3623 13.1112 18.3623 13.5555 18.2462 13.9803 18.0365 14.7483 17.3738 15.392 16.8832 15.9878 16.6323 16.2926 16.5068 16.445 16.3483 16.5339 16.1685 16.6348 15.9578 16.6802 15.7473 16.6632 15.562 16.6482 15.375 16.563 15.0009 16.3926 14.6682 16.241 14.336 16.0963 14.21 15.7233 14.1667 15.595 14.1667 15.451 14.1667 15.1629V11.5038Z" stroke="currentColor" stroke-width="2"/>
  <path d="M7.9167 17.5C9.0672 18.6111 10.9328 18.6111 12.0833 17.5" stroke="currentColor" stroke-linecap="round" stroke-linejoin="round" stroke-width="2"/>
  <path d="M5.8333 11.5038C5.8333 11.1411 5.8232 10.8152 5.5299 10.5602 5.4233 10.4674 5.2819 10.403 4.9991 10.2742 4.625 10.1038 4.438 10.0187 4.2526 10.0037 3.6966 9.9587 3.3974 10.3382 3.0768 10.7276 2.2906 11.6824 1.8976 12.1598 1.7537 12.6863 1.6377 13.1112 1.6377 13.5555 1.7537 13.9803 1.9635 14.7483 2.6263 15.3918 3.1168 15.9877 3.4261 16.3633 3.7215 16.706 4.2526 16.663 4.438 16.648 4.625 16.5628 4.9991 16.3924 5.2819 16.2637 5.4233 16.1992 5.5299 16.1065 5.8232 15.8515 5.8333 15.5256 5.8333 15.1628V11.5038Z" stroke="currentColor" stroke-width="2"/>
  <path d="M1.6667 13.3333V10C1.6667 5.3976 5.3976 1.6667 10 1.6667 14.6023 1.6667 18.3333 5.3976 18.3333 10L18.3334 13.3333" stroke="currentColor" stroke-linecap="round" stroke-linejoin="round" stroke-width="2"/>
</svg>
