<svg xmlns="http://www.w3.org/2000/svg" width="20" height="20" viewBox="0 0 20 20" fill="none">
  <path d="M14.1667 9.0038C14.1667 8.7157 14.1667 8.5717 14.21 8.4433 14.336 8.0704 14.6682 7.9256 15.0009 7.7741 15.375 7.6037 15.562 7.5185 15.7473 7.5035 15.9578 7.4865 16.1685 7.5318 16.3483 7.6327 16.5868 7.7665 16.753 8.0208 16.9232 8.2275 17.7094 9.1823 18.1024 9.6598 18.2462 10.1863 18.3623 10.6112 18.3623 11.0555 18.2462 11.4803 18.0365 12.2483 17.3738 12.892 16.8832 13.4878 16.6323 13.7926 16.5068 13.945 16.3483 14.0339 16.1685 14.1348 15.9578 14.1802 15.7473 14.1632 15.562 14.1482 15.375 14.063 15.0009 13.8926 14.6682 13.741 14.336 13.5963 14.21 13.2233 14.1667 13.095 14.1667 12.951 14.1667 12.6629V9.0038Z" stroke="currentColor" stroke-width="2"/>
  <path d="M5.8333 9.0038C5.8333 8.6412 5.8232 8.3152 5.5299 8.0602 5.4233 7.9674 5.2819 7.903 4.9991 7.7742 4.625 7.6038 4.438 7.5186 4.2526 7.5036 3.6966 7.4587 3.3974 7.8382 3.0768 8.2277 2.2906 9.1825 1.8976 9.6599 1.7537 10.1864 1.6377 10.6113 1.6377 11.0557 1.7537 11.4805 1.9635 12.2484 2.6263 12.8921 3.1168 13.488 3.4261 13.8636 3.7215 14.2063 4.2526 14.1633 4.438 14.1483 4.625 14.0631 4.9991 13.8927 5.2819 13.7639 5.4233 13.6995 5.5299 13.6067 5.8232 13.3517 5.8333 13.0258 5.8333 12.6631V9.0038Z" stroke="currentColor" stroke-width="2"/>
  <path d="M4.1667 7.5C4.1667 4.7386 6.7783 2.5 10 2.5 13.2217 2.5 15.8333 4.7386 15.8333 7.5" stroke="currentColor" stroke-linecap="square" stroke-linejoin="round" stroke-width="2"/>
  <path d="M15.8333 14.1667V14.8333C15.8333 16.3061 14.3409 17.5 12.5 17.5H10.8333" stroke="currentColor" stroke-linecap="round" stroke-linejoin="round" stroke-width="2"/>
</svg>
