<svg xmlns="http://www.w3.org/2000/svg" width="20" height="20" viewBox="0 0 20 20" fill="none">
  <path d="M1.6667 10C1.6667 7.6592 1.6667 6.4888 2.2284 5.6481 2.4716 5.2841 2.7841 4.9716 3.1481 4.7284 3.9888 4.1667 5.1592 4.1667 7.5 4.1667H12.5C14.8408 4.1667 16.0112 4.1667 16.8519 4.7284 17.2158 4.9716 17.5283 5.2841 17.7716 5.6481 18.3333 6.4888 18.3333 7.6592 18.3333 10 18.3333 12.3407 18.3333 13.5112 17.7716 14.3519 17.5283 14.7158 17.2158 15.0283 16.8519 15.2716 16.0112 15.8333 14.8408 15.8333 12.5 15.8333H7.5C5.1592 15.8333 3.9888 15.8333 3.1481 15.2716 2.7841 15.0283 2.4716 14.7158 2.2284 14.3519 1.6667 13.5112 1.6667 12.3407 1.6667 10Z" stroke="currentColor" stroke-linecap="round" stroke-linejoin="round" stroke-width="2"/>
  <path d="M11.6667 8.7848L12.1548 8.3102C12.7104 7.7701 12.9882 7.5 13.3333 7.5 13.6785 7.5 13.9562 7.7701 14.5118 8.3102L15 8.7848M11.6667 11.2152L12.1548 11.6898C12.7104 12.2299 12.9882 12.5 13.3333 12.5 13.6785 12.5 13.9562 12.2299 14.5118 11.6898L15 11.2152" stroke="currentColor" stroke-linecap="round" stroke-linejoin="round" stroke-width="2"/>
  <path d="M5 10L8.3333 10" stroke="currentColor" stroke-linecap="round" stroke-linejoin="round" stroke-width="2"/>
</svg>
