<svg xmlns="http://www.w3.org/2000/svg" width="20" height="20" viewBox="0 0 20 20" fill="none">
  <path d="M3.148 9.952C2.358 8.5744 1.9765 7.4496 1.7465 6.3093 1.4063 4.623 2.1848 2.9757 3.4745 1.9246 4.0195 1.4803 4.6444 1.6321 4.9667 2.2103L5.6943 3.5158C6.2711 4.5505 6.5595 5.0678 6.5023 5.6163 6.4451 6.1648 6.0561 6.6116 5.2783 7.505L3.148 9.952ZM3.148 9.952C4.7471 12.7402 7.2565 15.2511 10.048 16.852M10.048 16.852C11.4256 17.642 12.5504 18.0235 13.6907 18.2535 15.377 18.5937 17.0243 17.8152 18.0754 16.5255 18.5197 15.9805 18.3679 15.3557 17.7897 15.0333L16.4842 14.3057C15.4495 13.7289 14.9322 13.4406 14.3837 13.4977 13.8352 13.5549 13.3884 13.9438 12.495 14.7217L10.048 16.852Z" stroke="currentColor" stroke-linejoin="round" stroke-width="2"/>
  <path d="M10 5.8333H10.7143C11.051 5.8333 11.2193 5.8333 11.324 5.935 11.4286 6.0367 11.4286 6.2004 11.4286 6.5278 11.4286 7.1825 11.4286 7.5099 11.2193 7.7133 11.0602 7.868 10.8274 7.905 10.4288 7.9139 10.2243 7.9184 10.1221 7.9207 10.061 7.9814 10 8.0421 10 8.1392 10 8.3333V9.3056C10 9.6329 10 9.7966 10.1046 9.8983 10.2092 10 10.3776 10 10.7143 10H11.4286M15 5.8333V7.9167M15 7.9167H13.7858C13.5163 7.9167 13.3817 7.9167 13.298 7.8353 13.2143 7.754 13.2143 7.623 13.2143 7.3611V5.8333M15 7.9167V10" stroke="currentColor" stroke-linecap="round" stroke-linejoin="round" stroke-width="2"/>
  <path d="M8.3333 3.5877C8.4075 3.5043 8.4846 3.4226 8.5645 3.3427 10.7993 1.108 14.4225 1.108 16.6573 3.3427 18.892 5.5775 18.892 9.2008 16.6573 11.4355 16.5773 11.5154 16.4957 11.5925 16.4123 11.6667" stroke="currentColor" stroke-linecap="round" stroke-width="2"/>
</svg>
