<svg xmlns="http://www.w3.org/2000/svg" width="20" height="20" viewBox="0 0 20 20" fill="none">
  <path d="M17.5 14.5833C17.5 16.1942 16.1942 17.5 14.5833 17.5 12.9725 17.5 11.6667 16.1942 11.6667 14.5833 11.6667 12.9725 12.9725 11.6667 14.5833 11.6667 16.1942 11.6667 17.5 12.9725 17.5 14.5833Z" stroke="currentColor" stroke-width="2"/>
  <path d="M14.5833 11.6667H5.4167C3.8058 11.6667 2.5 12.9725 2.5 14.5833 2.5 16.1942 3.8058 17.5 5.4167 17.5H14.5833C16.1942 17.5 17.5 16.1942 17.5 14.5833 17.5 12.9725 16.1942 11.6667 14.5833 11.6667Z" stroke="currentColor" stroke-width="2"/>
  <path d="M2.5 5.4167C2.5 7.0275 3.8058 8.3333 5.4167 8.3333 7.0275 8.3333 8.3333 7.0275 8.3333 5.4167 8.3333 3.8058 7.0275 2.5 5.4167 2.5 3.8058 2.5 2.5 3.8058 2.5 5.4167Z" stroke="currentColor" stroke-width="2"/>
  <path d="M5.4167 2.5H14.5833C16.1942 2.5 17.5 3.8058 17.5 5.4167 17.5 7.0275 16.1942 8.3333 14.5833 8.3333H5.4167C3.8058 8.3333 2.5 7.0275 2.5 5.4167 2.5 3.8058 3.8058 2.5 5.4167 2.5Z" stroke="currentColor" stroke-width="2"/>
</svg>
