<svg xmlns="http://www.w3.org/2000/svg" width="20" height="20" viewBox="0 0 20 20" fill="none">
  <path d="M14.1667 9.8371C14.1667 9.549 14.1667 9.405 14.21 9.2767 14.336 8.9037 14.6682 8.759 15.0009 8.6074 15.375 8.437 15.562 8.3518 15.7473 8.3368 15.9578 8.3198 16.1685 8.3652 16.3483 8.4661 16.5868 8.5998 16.753 8.8541 16.9232 9.0608 17.7094 10.0157 18.1024 10.4932 18.2462 11.0197 18.3623 11.4445 18.3623 11.8888 18.2462 12.3137 18.0365 13.0816 17.3738 13.7253 16.8832 14.3212 16.6323 14.6259 16.5068 14.7783 16.3483 14.8672 16.1685 14.9682 15.9578 15.0135 15.7473 14.9965 15.562 14.9815 15.375 14.8963 15.0009 14.7259 14.6682 14.5743 14.336 14.4297 14.21 14.0567 14.1667 13.9283 14.1667 13.7843 14.1667 13.4962V9.8371Z" stroke="currentColor" stroke-width="2"/>
  <path d="M5.8333 9.8372C5.8333 9.4745 5.8232 9.1485 5.5299 8.8935 5.4233 8.8008 5.2819 8.7363 4.9991 8.6075 4.625 8.4372 4.438 8.352 4.2526 8.337 3.6966 8.292 3.3974 8.6715 3.0768 9.061 2.2906 10.0158 1.8976 10.4933 1.7537 11.0198 1.6377 11.4447 1.6377 11.889 1.7537 12.3138 1.9635 13.0818 2.6263 13.7254 3.1168 14.3213 3.4261 14.6969 3.7215 15.0396 4.2526 14.9967 4.438 14.9817 4.625 14.8964 4.9991 14.7261 5.2819 14.5973 5.4233 14.5328 5.5299 14.4401 5.8232 14.1851 5.8333 13.8592 5.8333 13.4964V9.8372Z" stroke="currentColor" stroke-width="2"/>
  <path d="M16.6667 8.75V7.5C16.6667 4.2783 13.6819 1.6667 10 1.6667 6.3181 1.6667 3.3333 4.2783 3.3333 7.5V8.75" stroke="currentColor" stroke-linecap="round" stroke-linejoin="round" stroke-width="2"/>
  <path d="M16.6667 14.5833C16.6667 18.3333 13.3333 18.3333 10 18.3333" stroke="currentColor" stroke-linecap="round" stroke-linejoin="round" stroke-width="2"/>
</svg>
