<svg xmlns="http://www.w3.org/2000/svg" width="20" height="20" viewBox="0 0 20 20" fill="none">
  <path d="M14.1667 3.3333C14.1667 4.2538 12.3012 5 10 5 7.6988 5 5.8333 4.2538 5.8333 3.3333 5.8333 2.4129 7.6988 1.6667 10 1.6667 12.3012 1.6667 14.1667 2.4129 14.1667 3.3333Z" stroke="currentColor" stroke-width="2"/>
  <path d="M17.5 15C17.5 16.8409 14.1422 18.3333 10 18.3333 5.8579 18.3333 2.5 16.8409 2.5 15 2.5 13.1591 5.8579 11.6667 10 11.6667 14.1422 11.6667 17.5 13.1591 17.5 15Z" stroke="currentColor" stroke-width="2"/>
  <path d="M2.9167 13.75L5.8333 3.3333M17.0833 13.75L14.1667 3.3333" stroke="currentColor" stroke-linecap="round" stroke-width="2"/>
</svg>
