<svg xmlns="http://www.w3.org/2000/svg" width="20" height="20" viewBox="0 0 20 20" fill="none">
  <path d="M10 15.8333L8.2322 17.6011M8.2322 17.6011C8.6847 18.0535 9.3097 18.3333 10 18.3333 11.3808 18.3333 12.5 17.2141 12.5 15.8333 12.5 14.4526 11.3808 13.3333 10 13.3333 8.6193 13.3333 7.5 14.4526 7.5 15.8333 7.5 16.5237 7.7798 17.1487 8.2322 17.6011Z" stroke="currentColor" stroke-linecap="round" stroke-width="2"/>
  <path d="M8.3333 13.3333H11.6667C14.0074 13.3333 15.1778 13.3333 16.0186 12.7716 16.3825 12.5283 16.695 12.2158 16.9383 11.8519 17.5 11.0112 17.5 9.8407 17.5 7.5 17.5 5.1592 17.5 3.9888 16.9383 3.1481 16.695 2.7841 16.3825 2.4716 16.0186 2.2284 15.1778 1.6667 14.0074 1.6667 11.6667 1.6667H8.3333C5.9926 1.6667 4.8222 1.6667 3.9814 2.2284 3.6175 2.4716 3.305 2.7841 3.0618 3.1481 2.5 3.9888 2.5 5.1592 2.5 7.5 2.5 9.8407 2.5 11.0112 3.0618 11.8519 3.305 12.2158 3.6175 12.5283 3.9814 12.7716 4.8222 13.3333 5.9926 13.3333 8.3333 13.3333Z" stroke="currentColor" stroke-linecap="round" stroke-width="2"/>
</svg>
