<svg xmlns="http://www.w3.org/2000/svg" width="20" height="20" viewBox="0 0 20 20" fill="none">
  <path d="M18.3333 15.8333C18.3333 17.2141 14.6023 18.3333 10 18.3333 5.3976 18.3333 1.6667 17.2141 1.6667 15.8333 1.6667 14.4526 5.3976 13.3333 10 13.3333 14.6023 13.3333 18.3333 14.4526 18.3333 15.8333Z" stroke="currentColor" stroke-width="2"/>
  <path d="M18.3333 4.1667C18.3333 5.5474 14.6023 6.6667 10 6.6667 5.3976 6.6667 1.6667 5.5474 1.6667 4.1667 1.6667 2.786 5.3976 1.6667 10 1.6667 14.6023 1.6667 18.3333 2.786 18.3333 4.1667Z" stroke="currentColor" stroke-width="2"/>
  <path d="M18.3333 4.1667V15.8333M1.6667 4.1667V15.8333" stroke="currentColor" stroke-linecap="round" stroke-width="2"/>
</svg>
