<svg xmlns="http://www.w3.org/2000/svg" width="20" height="20" viewBox="0 0 20 20" fill="none">
  <path d="M16.6667 4.5833C16.6667 6.1942 13.6819 7.5 10 7.5 6.3181 7.5 3.3333 6.1942 3.3333 4.5833 3.3333 2.9725 6.3181 1.6667 10 1.6667 13.6819 1.6667 16.6667 2.9725 16.6667 4.5833Z" stroke="currentColor" stroke-width="2"/>
  <path d="M16.6667 15.4167C16.6667 17.0275 13.6819 18.3333 10 18.3333 6.3181 18.3333 3.3333 17.0275 3.3333 15.4167 3.3333 13.8058 6.3181 12.5 10 12.5 13.6819 12.5 16.6667 13.8058 16.6667 15.4167Z" stroke="currentColor" stroke-width="2"/>
  <path d="M16.6667 15.4167V4.5833M3.3333 15.4167V4.5833" stroke="currentColor" stroke-width="2"/>
</svg>
