<svg xmlns="http://www.w3.org/2000/svg" width="20" height="20" viewBox="0 0 20 20" fill="none">
  <path d="M8.75 9.375C8.75 8.5696 8.0971 7.9167 7.2917 7.9167 6.4863 7.9167 5.8333 8.5696 5.8333 9.375 5.8333 10.1804 6.4863 10.8333 7.2917 10.8333 8.0971 10.8333 8.75 10.1804 8.75 9.375Z" stroke="currentColor" stroke-width="2"/>
  <path d="M14.1667 9.375C14.1667 8.5696 13.5137 7.9167 12.7083 7.9167 11.9029 7.9167 11.25 8.5696 11.25 9.375 11.25 10.1804 11.9029 10.8333 12.7083 10.8333 13.5137 10.8333 14.1667 10.1804 14.1667 9.375Z" stroke="currentColor" stroke-width="2"/>
  <path d="M9.1667 13.3333L9.4108 13.0255C9.6885 12.6752 9.8274 12.5 10 12.5 10.1726 12.5 10.3115 12.6752 10.5893 13.0255L10.8333 13.3333" stroke="currentColor" stroke-linecap="round" stroke-linejoin="round" stroke-width="2"/>
  <path d="M10 1.6667C6.088 1.6667 2.9167 4.8054 2.9167 8.6772 2.9167 10.1387 3.3686 11.4958 4.1416 12.619 3.9305 12.8518 3.8021 13.1595 3.8021 13.4968 3.8021 14.2228 4.3967 14.8113 5.1302 14.8113V15.8274C5.1302 16.3685 5.3885 16.8849 5.8554 17.1584 8.5292 18.725 11.4708 18.725 14.1446 17.1584 14.6115 16.8849 14.8698 16.3685 14.8698 15.8274V14.8113C15.6033 14.8113 16.1979 14.2228 16.1979 13.4968 16.1979 13.1595 16.0695 12.8518 15.8583 12.619 16.6314 11.4958 17.0833 10.1387 17.0833 8.6772 17.0833 4.8054 13.912 1.6667 10 1.6667Z" stroke="currentColor" stroke-linecap="round" stroke-linejoin="round" stroke-width="2"/>
  <path d="M11.6667 17.9167V16.6667" stroke="currentColor" stroke-linecap="round" stroke-linejoin="round" stroke-width="2"/>
  <path d="M8.3333 17.9167V16.6667" stroke="currentColor" stroke-linecap="round" stroke-linejoin="round" stroke-width="2"/>
</svg>
