<svg xmlns="http://www.w3.org/2000/svg" width="20" height="20" viewBox="0 0 20 20" fill="none">
  <path d="M16.25 3.75L18.3333 1.6667" stroke="currentColor" stroke-linecap="round" stroke-linejoin="round" stroke-width="2"/>
  <path d="M1.7225 16.1726C1.6641 15.8222 1.6349 15.6469 1.7194 15.5112 1.8039 15.3755 1.9741 15.3244 2.3144 15.2223L5.8333 14.1667 4.7776 17.6857C4.6756 18.0259 4.6245 18.1961 4.4888 18.2806 4.3531 18.3652 4.1779 18.3359 3.8274 18.2775L2.6197 18.0763C2.3317 18.0282 2.1876 18.0043 2.0917 17.9083 1.9958 17.8123 1.9718 17.6683 1.9238 17.3803L1.7225 16.1726Z" stroke="currentColor" stroke-linecap="round" stroke-linejoin="round" stroke-width="2"/>
  <path d="M12.5 5L15 7.5" stroke="currentColor" stroke-linecap="round" stroke-linejoin="round" stroke-width="2"/>
  <path d="M7.3502 13.2753L15.5536 7.8726C16.8618 7.011 17.0498 5.1656 15.9422 4.0579 14.8346 2.9502 12.9894 3.1382 12.1279 4.4465L6.7257 12.6508C6.4925 13.0048 7.0024 13.5044 7.3502 13.2753Z" stroke="currentColor" stroke-linecap="round" stroke-linejoin="round" stroke-width="2"/>
  <path d="M5.8333 14.1667L6.6667 13.3333" stroke="currentColor" stroke-linecap="round" stroke-linejoin="round" stroke-width="2"/>
</svg>
