<svg xmlns="http://www.w3.org/2000/svg" width="20" height="20" viewBox="0 0 20 20" fill="none">
  <path d="M11.6667 1.8334C11.1282 1.7241 10.5708 1.6667 10 1.6667 9.4292 1.6667 8.8718 1.7241 8.3333 1.8334M18.1667 8.3333C18.2759 8.8718 18.3333 9.4292 18.3333 10 18.3333 10.5708 18.2759 11.1282 18.1667 11.6667M11.6667 18.1667C11.1282 18.2759 10.5708 18.3333 10 18.3333 9.4292 18.3333 8.8718 18.2759 8.3333 18.1667M1.8334 11.6667C1.7241 11.1282 1.6667 10.5708 1.6667 10 1.6667 9.4292 1.7241 8.8718 1.8334 8.3333M14.5833 3.0392C15.5277 3.6622 16.3377 4.4723 16.9608 5.4167M16.9608 14.5833C16.3377 15.5277 15.5277 16.3377 14.5833 16.9608M5.4167 16.9608C4.4723 16.3377 3.6622 15.5277 3.0392 14.5833M3.0392 5.4167C3.6622 4.4723 4.4723 3.6622 5.4167 3.0392" stroke="currentColor" stroke-linecap="round" stroke-linejoin="round" stroke-width="2"/>
</svg>
