<svg xmlns="http://www.w3.org/2000/svg" width="20" height="20" viewBox="0 0 20 20" fill="none">
  <path d="M8.75 5.625C8.75 3.8991 7.3509 2.5 5.625 2.5 3.8991 2.5 2.5 3.8991 2.5 5.625 2.5 7.3509 3.8991 8.75 5.625 8.75 7.3509 8.75 8.75 7.3509 8.75 5.625Z" stroke="currentColor" stroke-linecap="round" stroke-linejoin="round" stroke-width="2"/>
  <path d="M17.5 14.375C17.5 12.6491 16.1009 11.25 14.375 11.25 12.6491 11.25 11.25 12.6491 11.25 14.375 11.25 16.1009 12.6491 17.5 14.375 17.5 16.1009 17.5 17.5 16.1009 17.5 14.375Z" stroke="currentColor" stroke-linecap="round" stroke-linejoin="round" stroke-width="2"/>
  <path d="M8.75 14.375C8.75 12.6491 7.3509 11.25 5.625 11.25 3.8991 11.25 2.5 12.6491 2.5 14.375 2.5 16.1009 3.8991 17.5 5.625 17.5 7.3509 17.5 8.75 16.1009 8.75 14.375Z" stroke="currentColor" stroke-linecap="round" stroke-linejoin="round" stroke-width="2"/>
  <path d="M14.375 2.5V3.6163M14.375 3.6163C14.9297 3.6163 15.4318 3.8411 15.7954 4.2046M12.3661 5.6252C12.3661 5.0704 12.591 4.5681 12.9546 4.2046 13.3182 3.8411 13.8203 3.6163 14.375 3.6163M14.375 7.6342V8.75M14.375 7.6342C14.9298 7.6342 15.4321 7.4093 15.7957 7.0456M12.3661 5.6252C12.3661 6.1799 12.5909 6.6821 12.9543 7.0456 13.3179 7.4093 13.8202 7.6342 14.375 7.6342M17.5 5.625L16.3839 5.6252M16.3839 5.6252C16.3839 6.1799 16.1591 6.6821 15.7957 7.0456M16.3839 5.6252C16.3839 5.0704 16.159 4.5681 15.7954 4.2046M12.3661 5.6252L11.25 5.625M16.5848 3.4153L15.7954 4.2046M12.1653 7.8347L12.9543 7.0456M16.5848 7.8347L15.7957 7.0456M12.1653 3.4153L12.9546 4.2046" stroke="currentColor" stroke-linecap="round" stroke-linejoin="round" stroke-width="2"/>
</svg>
