<svg xmlns="http://www.w3.org/2000/svg" width="20" height="20" viewBox="0 0 20 20" fill="none">
  <path d="M8.125 2.5H4.7917C4.2102 2.5 3.9194 2.5 3.6829 2.5718 3.1502 2.7334 2.7334 3.1502 2.5718 3.6829 2.5 3.9194 2.5 4.2102 2.5 4.7917 2.5 5.3731 2.5 5.6639 2.5718 5.9005 2.7334 6.4331 3.1502 6.85 3.6829 7.0116 3.9194 7.0833 4.2102 7.0833 4.7917 7.0833H8.125C8.7065 7.0833 8.9972 7.0833 9.2338 7.0116 9.7665 6.85 10.1833 6.4331 10.3449 5.9005 10.4167 5.6639 10.4167 5.3731 10.4167 4.7917 10.4167 4.2102 10.4167 3.9194 10.3449 3.6829 10.1833 3.1502 9.7665 2.7334 9.2338 2.5718 8.9972 2.5 8.7065 2.5 8.125 2.5Z" stroke="currentColor" stroke-linejoin="round" stroke-width="2"/>
  <path d="M17.5 8.125V4.7917C17.5 4.2102 17.5 3.9194 17.4283 3.6829 17.2667 3.1502 16.8498 2.7334 16.3172 2.5718 16.0806 2.5 15.7898 2.5 15.2083 2.5 14.6268 2.5 14.3361 2.5 14.0995 2.5718 13.5668 2.7334 13.15 3.1502 12.9884 3.6829 12.9167 3.9194 12.9167 4.2102 12.9167 4.7917V8.125C12.9167 8.7065 12.9167 8.9972 12.9884 9.2338 13.15 9.7665 13.5668 10.1833 14.0995 10.3449 14.3361 10.4167 14.6268 10.4167 15.2083 10.4167 15.7898 10.4167 16.0806 10.4167 16.3172 10.3449 16.8498 10.1833 17.2667 9.7665 17.4283 9.2338 17.5 8.9972 17.5 8.7065 17.5 8.125Z" stroke="currentColor" stroke-linejoin="round" stroke-width="2"/>
  <path d="M14.0995 17.4283C14.3361 17.5 14.6268 17.5 15.2083 17.5 15.7898 17.5 16.0806 17.5 16.3172 17.4283 16.8498 17.2667 17.2667 16.8498 17.4283 16.3172 17.5 16.0806 17.5 15.7898 17.5 15.2083 17.5 14.6268 17.5 14.3361 17.4283 14.0995 17.2667 13.5668 16.8498 13.15 16.3172 12.9884 16.0806 12.9167 15.7898 12.9167 15.2083 12.9167 14.6268 12.9167 14.3361 12.9167 14.0995 12.9884 13.5668 13.15 13.15 13.5668 12.9884 14.0995 12.9167 14.3361 12.9167 14.6268 12.9167 15.2083 12.9167 15.7898 12.9167 16.0806 12.9884 16.3172 13.15 16.8498 13.5668 17.2667 14.0995 17.4283Z" stroke="currentColor" stroke-linejoin="round" stroke-width="2"/>
  <path d="M7.0833 9.5833H5.8333C4.262 9.5833 3.4763 9.5833 2.9882 10.0715 2.5 10.5597 2.5 11.3453 2.5 12.9167V14.1667C2.5 15.738 2.5 16.5237 2.9882 17.0118 3.4763 17.5 4.262 17.5 5.8333 17.5H7.0833C8.6547 17.5 9.4403 17.5 9.9285 17.0118 10.4167 16.5237 10.4167 15.738 10.4167 14.1667V12.9167C10.4167 11.3453 10.4167 10.5597 9.9285 10.0715 9.4403 9.5833 8.6547 9.5833 7.0833 9.5833Z" stroke="currentColor" stroke-linejoin="round" stroke-width="2"/>
</svg>
