<svg xmlns="http://www.w3.org/2000/svg" width="20" height="20" viewBox="0 0 20 20" fill="none">
  <path d="M11.25 10.8333L14.1667 7.5M11.6667 12.5C11.6667 13.4205 10.9205 14.1667 10 14.1667 9.0795 14.1667 8.3333 13.4205 8.3333 12.5 8.3333 11.5795 9.0795 10.8333 10 10.8333 10.9205 10.8333 11.6667 11.5795 11.6667 12.5Z" stroke="currentColor" stroke-linecap="round" stroke-width="2"/>
  <path d="M5 10C5 7.2386 7.2386 5 10 5 10.9108 5 11.7646 5.2435 12.5 5.6689" stroke="currentColor" stroke-linecap="round" stroke-width="2"/>
  <path d="M2.0834 10.0001C2.0834 6.2681 2.0834 4.4021 3.2428 3.2428 4.4021 2.0834 6.2681 2.0834 10.0001 2.0834 13.732 2.0834 15.598 2.0834 16.7573 3.2428 17.9168 4.4021 17.9168 6.2681 17.9168 10.0001 17.9168 13.732 17.9168 15.598 16.7573 16.7573 15.598 17.9168 13.732 17.9168 10.0001 17.9168 6.2681 17.9168 4.4021 17.9168 3.2428 16.7573 2.0834 15.598 2.0834 13.732 2.0834 10.0001Z" stroke="currentColor" stroke-width="2"/>
</svg>
