<svg xmlns="http://www.w3.org/2000/svg" width="20" height="20" viewBox="0 0 20 20" fill="none">
  <path d="M14.375 2.5V3.6163M14.375 3.6163C14.9297 3.6163 15.4318 3.8411 15.7954 4.2046M14.375 3.6163C13.8203 3.6163 13.3182 3.8411 12.9546 4.2046M14.375 7.6342V8.75M14.375 7.6342C14.9298 7.6342 15.4321 7.4093 15.7957 7.0456M14.375 7.6342C13.8202 7.6342 13.3179 7.4093 12.9543 7.0456M17.5 5.625L16.3839 5.6252M16.3839 5.6252C16.3839 6.1799 16.1591 6.6821 15.7957 7.0456M16.3839 5.6252C16.3839 5.0704 16.159 4.5681 15.7954 4.2046M12.3661 5.6252L11.25 5.625M12.3661 5.6252C12.3661 5.0704 12.591 4.5681 12.9546 4.2046M12.3661 5.6252C12.3661 6.1799 12.5909 6.6821 12.9543 7.0456M16.5848 3.4153L15.7954 4.2046M12.1653 7.8347L12.9543 7.0456M16.5848 7.8347L15.7957 7.0456M12.1653 3.4153L12.9546 4.2046" stroke="currentColor" stroke-linecap="round" stroke-linejoin="round" stroke-width="2"/>
  <path d="M11.4086 16.2139C11.25 15.8311 11.25 15.3458 11.25 14.375 11.25 13.4043 11.25 12.9189 11.4086 12.5361 11.62 12.0256 12.0256 11.62 12.5361 11.4086 12.9189 11.25 13.4043 11.25 14.375 11.25 15.3458 11.25 15.8311 11.25 16.2139 11.4086 16.7244 11.62 17.13 12.0256 17.3414 12.5361 17.5 12.9189 17.5 13.4043 17.5 14.375 17.5 15.3458 17.5 15.8311 17.3414 16.2139 17.13 16.7244 16.7244 17.13 16.2139 17.3414 15.8311 17.5 15.3458 17.5 14.375 17.5 13.4043 17.5 12.9189 17.5 12.5361 17.3414 12.0256 17.13 11.62 16.7244 11.4086 16.2139Z" stroke="currentColor" stroke-linecap="round" stroke-linejoin="round" stroke-width="2"/>
  <path d="M2.6586 16.2139C2.5 15.8311 2.5 15.3458 2.5 14.375 2.5 13.4043 2.5 12.9189 2.6586 12.5361 2.87 12.0256 3.2756 11.62 3.7861 11.4086 4.1689 11.25 4.6543 11.25 5.625 11.25 6.5957 11.25 7.0811 11.25 7.4639 11.4086 7.9744 11.62 8.38 12.0256 8.5914 12.5361 8.75 12.9189 8.75 13.4043 8.75 14.375 8.75 15.3458 8.75 15.8311 8.5914 16.2139 8.38 16.7244 7.9744 17.13 7.4639 17.3414 7.0811 17.5 6.5957 17.5 5.625 17.5 4.6543 17.5 4.1689 17.5 3.7861 17.3414 3.2756 17.13 2.87 16.7244 2.6586 16.2139Z" stroke="currentColor" stroke-linecap="round" stroke-linejoin="round" stroke-width="2"/>
  <path d="M2.6586 7.4639C2.5 7.0811 2.5 6.5957 2.5 5.625 2.5 4.6543 2.5 4.1689 2.6586 3.7861 2.87 3.2756 3.2756 2.87 3.7861 2.6586 4.1689 2.5 4.6543 2.5 5.625 2.5 6.5957 2.5 7.0811 2.5 7.4639 2.6586 7.9744 2.87 8.38 3.2756 8.5914 3.7861 8.75 4.1689 8.75 4.6543 8.75 5.625 8.75 6.5957 8.75 7.0811 8.5914 7.4639 8.38 7.9744 7.9744 8.38 7.4639 8.5914 7.0811 8.75 6.5957 8.75 5.625 8.75 4.6543 8.75 4.1689 8.75 3.7861 8.5914 3.2756 8.38 2.87 7.9744 2.6586 7.4639Z" stroke="currentColor" stroke-linecap="round" stroke-linejoin="round" stroke-width="2"/>
</svg>
