<svg xmlns="http://www.w3.org/2000/svg" width="20" height="20" viewBox="0 0 20 20" fill="none">
  <path d="M8.75 5.625C8.75 3.8991 7.3509 2.5 5.625 2.5 3.8991 2.5 2.5 3.8991 2.5 5.625 2.5 7.3509 3.8991 8.75 5.625 8.75 7.3509 8.75 8.75 7.3509 8.75 5.625Z" stroke="currentColor" stroke-width="2"/>
  <path d="M17.5 14.375C17.5 12.6491 16.1009 11.25 14.375 11.25 12.6491 11.25 11.25 12.6491 11.25 14.375 11.25 16.1009 12.6491 17.5 14.375 17.5 16.1009 17.5 17.5 16.1009 17.5 14.375Z" stroke="currentColor" stroke-width="2"/>
  <path d="M8.75 14.375C8.75 12.6491 7.3509 11.25 5.625 11.25 3.8991 11.25 2.5 12.6491 2.5 14.375 2.5 16.1009 3.8991 17.5 5.625 17.5 7.3509 17.5 8.75 16.1009 8.75 14.375Z" stroke="currentColor" stroke-width="2"/>
  <path d="M17.2406 3.2783L16.7218 2.7594C16.3758 2.4135 15.815 2.4135 15.4691 2.7594L12.6784 5.5501C12.3075 5.921 12.0547 6.3935 11.9518 6.9079L11.6667 8.3333 13.0921 8.0482C13.6065 7.9454 14.079 7.6925 14.4499 7.3216L17.2406 4.5309C17.5865 4.185 17.5865 3.6242 17.2406 3.2783Z" stroke="currentColor" stroke-linejoin="round" stroke-width="2"/>
</svg>
