<svg xmlns="http://www.w3.org/2000/svg" width="20" height="20" viewBox="0 0 20 20" fill="none">
  <ellipse cx="9.166666666666668" cy="4.166666666666667" rx="6.666666666666667" ry="2.5" stroke="currentColor" stroke-width="2"/>
  <path d="M5 9.0348C5.5013 9.1855 6.0619 9.3097 6.6667 9.4014" stroke="currentColor" stroke-linecap="round" stroke-width="2"/>
  <path d="M2.5 10C2.5 11.2749 5.0447 12.3269 8.3333 12.4807" stroke="currentColor" stroke-linecap="round" stroke-width="2"/>
  <path d="M5 14.8682C5.5013 15.0188 6.0619 15.143 6.6667 15.2348" stroke="currentColor" stroke-linecap="round" stroke-width="2"/>
  <path d="M9.1667 18.3333C5.4848 18.3333 2.5 17.2141 2.5 15.8333V4.1667M15.8333 4.1667V9.1667" stroke="currentColor" stroke-linecap="round" stroke-linejoin="round" stroke-width="2"/>
  <path d="M14.1667 17.2619V18.3333M14.1667 17.2619C13.2027 17.2619 12.3534 16.7884 11.8552 16.0694M16.4782 13.0974C16.7728 13.5226 16.9444 14.0336 16.9444 14.5833 16.9444 15.1331 16.7727 15.6442 16.4781 16.0694 15.9799 16.7884 15.1307 17.2619 14.1667 17.2619M14.1667 11.9047C15.1308 11.9047 15.9801 12.3783 16.4782 13.0974M14.1667 11.9047C13.2026 11.9047 12.3533 12.3783 11.8552 13.0974M14.1667 11.9047V10.8333M17.5 12.4405L16.4782 13.0974M10.8337 16.7262L11.8552 16.0694M10.8333 12.4405L11.8552 13.0974M17.4997 16.7262L16.4781 16.0694M11.8552 13.0974C11.5606 13.5226 11.3889 14.0336 11.3889 14.5833 11.3889 15.1331 11.5607 15.6442 11.8552 16.0694" stroke="currentColor" stroke-linecap="round" stroke-width="2"/>
</svg>
