<svg xmlns="http://www.w3.org/2000/svg" width="20" height="20" viewBox="0 0 20 20" fill="none">
  <path d="M10 8.3333C11.8409 8.3333 13.3333 7.5871 13.3333 6.6667 13.3333 5.7462 11.8409 5 10 5 8.1591 5 6.6667 5.7462 6.6667 6.6667 6.6667 7.5871 8.1591 8.3333 10 8.3333Z" stroke="currentColor" stroke-linecap="round" stroke-linejoin="round" stroke-width="2"/>
  <path d="M13.3333 10C13.3333 10.9205 11.8409 11.6667 10 11.6667 8.1591 11.6667 6.6667 10.9205 6.6667 10" stroke="currentColor" stroke-linecap="round" stroke-linejoin="round" stroke-width="2"/>
  <path d="M13.3333 6.6667V13.3333C13.3333 14.2538 11.8409 15 10 15 8.1591 15 6.6667 14.2538 6.6667 13.3333V6.6667" stroke="currentColor" stroke-linecap="round" stroke-linejoin="round" stroke-width="2"/>
  <path d="M15 1.6667H16.6667C17.4523 1.6667 17.8452 1.6667 18.0892 1.9107 18.3333 2.1548 18.3333 2.5477 18.3333 3.3333V5M17.9167 2.0833L15 5" stroke="currentColor" stroke-linecap="round" stroke-linejoin="round" stroke-width="2"/>
  <path d="M5 1.6667H3.3333C2.5477 1.6667 2.1548 1.6667 1.9107 1.9107 1.6667 2.1548 1.6667 2.5477 1.6667 3.3333V5M2.0833 2.0833L5 5" stroke="currentColor" stroke-linecap="round" stroke-linejoin="round" stroke-width="2"/>
  <path d="M15 18.3333H16.6667C17.4523 18.3333 17.8452 18.3333 18.0892 18.0892 18.3333 17.8452 18.3333 17.4523 18.3333 16.6667V15M17.9167 17.9167L15 15" stroke="currentColor" stroke-linecap="round" stroke-linejoin="round" stroke-width="2"/>
  <path d="M5 18.3333H3.3333C2.5477 18.3333 2.1548 18.3333 1.9107 18.0892 1.6667 17.8452 1.6667 17.4523 1.6667 16.6667V15M2.0833 17.9167L5 15" stroke="currentColor" stroke-linecap="round" stroke-linejoin="round" stroke-width="2"/>
</svg>
