<svg xmlns="http://www.w3.org/2000/svg" width="20" height="20" viewBox="0 0 20 20" fill="none">
  <ellipse cx="8.333333333333334" cy="4.168291666666667" rx="6.666666666666667" ry="2.5" stroke="currentColor" stroke-linecap="round" stroke-linejoin="round" stroke-width="2"/>
  <path d="M1.6667 10.0017C1.6667 11.1665 3.7913 12.1453 6.6667 12.4228" stroke="currentColor" stroke-linecap="round" stroke-linejoin="round" stroke-width="2"/>
  <path d="M10.4167 13.335C10.8333 12.5017 11.6667 11.2517 13.3333 11.2517 15.1743 11.2517 16.6667 12.744 16.6667 14.585 16.6667 16.4259 15.1743 17.9183 13.3333 17.9183 12.3378 17.9183 11.4441 17.4818 10.8333 16.7898" stroke="currentColor" stroke-linecap="round" stroke-linejoin="round" stroke-width="2"/>
  <path d="M8.3333 18.335C4.6514 18.335 1.6667 17.2157 1.6667 15.835V4.1683M15 4.1683V8.335" stroke="currentColor" stroke-linecap="round" stroke-linejoin="round" stroke-width="2"/>
  <path d="M12.5753 14.2663C12.918 14.2248 13.162 13.9133 13.1204 13.5706 13.0788 13.2279 12.7673 12.9838 12.4247 13.0254L12.5 13.6458 12.5753 14.2663ZM10.1613 13.5902L9.7194 14.0322H9.7194L10.1613 13.5902ZM10.7793 10.9288C10.8311 10.5874 10.5963 10.2688 10.2551 10.217 9.9138 10.1653 9.5952 10.3999 9.5434 10.7412L10.1613 10.835 10.7793 10.9288ZM12.5 13.6458L12.4247 13.0254C12.0804 13.0672 11.5873 13.1172 11.1557 13.1254 10.9379 13.1297 10.7567 13.1227 10.6263 13.1047 10.5611 13.0957 10.5252 13.0861 10.5116 13.0814 10.4903 13.0742 10.541 13.086 10.6033 13.1483L10.1613 13.5902 9.7194 14.0322C9.8486 14.1614 10.0006 14.2278 10.1081 14.2645 10.2232 14.3038 10.3438 14.3275 10.4554 14.3429 10.6789 14.3738 10.9339 14.3799 11.1797 14.3752 11.6748 14.3658 12.2173 14.3098 12.5753 14.2663L12.5 13.6458ZM10.1613 13.5902L10.6033 13.1483C10.681 13.226 10.6808 13.2859 10.6638 13.2173 10.6516 13.1682 10.6393 13.0864 10.632 12.968 10.6175 12.7332 10.6267 12.4318 10.6487 12.1204 10.6703 11.8132 10.703 11.5143 10.7306 11.2909 10.7443 11.1797 10.7567 11.0881 10.7655 11.0247 10.7698 10.9931 10.7734 10.9686 10.7758 10.9522 10.777 10.944 10.7779 10.9378 10.7785 10.9339 10.7788 10.9319 10.779 10.9305 10.7791 10.9297 10.7792 10.9292 10.7793 10.9289 10.7793 10.9288 10.7793 10.9287 10.7793 10.9287 10.7793 10.9287 10.7793 10.9287 10.7793 10.9287 10.7793 10.9287 10.7793 10.9287 10.7793 10.9288 10.1613 10.835 9.5434 10.7412 9.5434 10.7413 9.5434 10.7413 9.5434 10.7413 9.5433 10.7414 9.5433 10.7415 9.5433 10.7417 9.5433 10.7418 9.5433 10.7421 9.5433 10.7425 9.5432 10.7431 9.543 10.7438 9.5428 10.7452 9.5425 10.7472 9.5421 10.7498 9.5413 10.7549 9.5403 10.7622 9.5389 10.7717 9.5362 10.7905 9.5323 10.8177 9.5274 10.8522 9.5178 10.9211 9.5046 11.0193 9.49 11.1379 9.4608 11.3745 9.4254 11.6963 9.4017 12.0325 9.3783 12.3646 9.3648 12.7293 9.3844 13.0452 9.3941 13.2022 9.413 13.3668 9.4505 13.518 9.4831 13.6497 9.5509 13.8638 9.7194 14.0322L10.1613 13.5902Z" fill="currentColor"/>
</svg>
