<svg xmlns="http://www.w3.org/2000/svg" width="20" height="20" viewBox="0 0 20 20" fill="none">
  <ellipse cx="8.333333333333334" cy="4.166516666666666" rx="6.666666666666667" ry="2.5" stroke="currentColor" stroke-width="2"/>
  <path d="M4.1667 9.0349C4.668 9.1856 5.2286 9.3097 5.8333 9.4015" stroke="currentColor" stroke-linecap="round" stroke-width="2"/>
  <path d="M4.1667 14.8682C4.668 15.0189 5.2286 15.143 5.8333 15.2348" stroke="currentColor" stroke-linecap="round" stroke-width="2"/>
  <path d="M10 12.9163L10.9469 14.1375C11.4233 12.3597 13.2512 11.3047 15.0293 11.7811 15.9396 12.0249 16.6604 12.6227 17.0833 13.3867M18.3333 17.082L17.3864 15.8625C16.9099 17.6403 15.0822 18.6953 13.3039 18.2189 12.4148 17.9808 11.7064 17.4048 11.2799 16.6663" stroke="currentColor" stroke-linecap="round" stroke-linejoin="round" stroke-width="2"/>
  <path d="M15 4.1665V9.1733M1.6667 4.1665V15.8492C1.6667 17.1258 4.2114 18.1792 7.5 18.3332" stroke="currentColor" stroke-linecap="round" stroke-linejoin="round" stroke-width="2"/>
  <path d="M1.6667 9.9998C1.6667 11.2847 4.2114 12.3448 7.5 12.4998" stroke="currentColor" stroke-linecap="round" stroke-width="2"/>
</svg>
