<svg xmlns="http://www.w3.org/2000/svg" width="20" height="20" viewBox="0 0 20 20" fill="none">
  <path d="M9.1667 12.5C5.4848 12.5 2.5 11.3808 2.5 10" stroke="currentColor" stroke-linecap="round" stroke-width="2"/>
  <path d="M15.8333 4.1667V9.5833M2.5 4.1667V15.8333C2.5 17.2141 5.4848 18.3333 9.1667 18.3333 9.3066 18.3333 9.4455 18.3318 9.5833 18.3285" stroke="currentColor" stroke-linecap="round" stroke-width="2"/>
  <ellipse cx="9.166666666666668" cy="4.166666666666667" rx="6.666666666666667" ry="2.5" stroke="currentColor" stroke-width="2"/>
  <path d="M5.8333 6.6667V8.3333" stroke="currentColor" stroke-linecap="round" stroke-width="2"/>
  <path d="M5.8333 12.5V14.1667" stroke="currentColor" stroke-linecap="round" stroke-width="2"/>
  <path d="M14.1667 13.8889V15M14.1667 15V16.1111M14.1667 15H15.2778M14.1667 15H13.0556M17.5 15C17.5 16.8409 16.0076 18.3333 14.1667 18.3333 12.3258 18.3333 10.8333 16.8409 10.8333 15 10.8333 13.1591 12.3258 11.6667 14.1667 11.6667 16.0076 11.6667 17.5 13.1591 17.5 15Z" stroke="currentColor" stroke-linecap="round" stroke-width="2"/>
</svg>
