<svg xmlns="http://www.w3.org/2000/svg" width="20" height="20" viewBox="0 0 20 20" fill="none">
  <path d="M9.1654 6.6661C12.8473 6.6661 15.8321 5.5468 15.8321 4.1661 15.8321 2.7853 12.8473 1.6661 9.1654 1.6661 5.4836 1.6661 2.4988 2.7853 2.4988 4.1661 2.4988 5.5468 5.4836 6.6661 9.1654 6.6661Z" stroke="currentColor" stroke-width="2"/>
  <path d="M4.9988 9.0343C5.5001 9.1849 6.0607 9.3091 6.6655 9.4008" stroke="currentColor" stroke-linecap="round" stroke-width="2"/>
  <path d="M9.1654 12.4994C5.4835 12.4994 2.4988 11.3802 2.4988 9.9994" stroke="currentColor" stroke-linecap="round" stroke-width="2"/>
  <path d="M4.9988 14.8676C5.5001 15.0183 6.0607 15.1424 6.6655 15.2342" stroke="currentColor" stroke-linecap="round" stroke-width="2"/>
  <path d="M9.1654 18.3328C5.4835 18.3328 2.4988 17.2135 2.4988 15.8328V4.1661M15.8321 4.1661V8.7494" stroke="currentColor" stroke-linecap="round" stroke-linejoin="round" stroke-width="2"/>
  <path d="M13.1187 13.6482C13.1187 13.5982 13.1256 12.9607 13.1267 12.5987 13.1278 12.2678 13.0987 11.9489 13.2567 11.6571 13.8487 10.4796 15.5487 10.5995 15.9687 11.799 16.0415 11.9965 16.0458 12.3095 16.0437 12.5987 16.041 12.9681 16.0487 13.6482 16.0487 13.6482M13.1187 13.6482C12.2188 13.6482 11.8488 14.2979 11.7488 14.6978 11.6488 15.0976 11.6488 16.5469 11.7088 17.1467 11.9087 17.8963 12.4087 18.2063 12.8986 18.3062 13.3485 18.3462 15.2482 18.3312 15.7981 18.3312 16.5979 18.3462 17.1978 18.0463 17.4478 17.1467 17.4977 16.8468 17.5478 15.1975 17.4228 14.6978 17.1578 13.8981 16.5486 13.6482 16.0487 13.6482M13.1187 13.6482H16.0487" stroke="currentColor" stroke-linecap="round" stroke-width="2"/>
</svg>
