<svg xmlns="http://www.w3.org/2000/svg" width="20" height="20" viewBox="0 0 20 20" fill="none">
  <path d="M2.5 10C2.5 11.3808 5.4848 12.5 9.1667 12.5 9.4489 12.5 9.727 12.4934 10 12.4807" stroke="currentColor" stroke-linecap="round" stroke-width="2"/>
  <path d="M15.8333 4.1667V9.5833M2.5 4.1667V15.8333C2.5 17.2141 5.4848 18.3333 9.1667 18.3333 9.4489 18.3333 9.727 18.3268 10 18.314" stroke="currentColor" stroke-linecap="round" stroke-width="2"/>
  <ellipse cx="9.166666666666668" cy="4.166666666666667" rx="6.666666666666667" ry="2.5" stroke="currentColor" stroke-width="2"/>
  <path d="M5.8333 6.6667V8.3333" stroke="currentColor" stroke-linecap="round" stroke-width="2"/>
  <path d="M5.8333 12.5V14.1667" stroke="currentColor" stroke-linecap="round" stroke-width="2"/>
  <path d="M16.6557 11.6667L17.0718 13.4037 16.3805 12.9718C15.8881 12.5978 15.2761 12.376 14.6128 12.376 12.9857 12.376 11.6667 13.7096 11.6667 15.3547 11.6667 16.9997 12.9857 18.3333 14.6128 18.3333 16.0381 18.3333 17.227 17.31 17.5 15.9504" stroke="currentColor" stroke-linecap="round" stroke-linejoin="round" stroke-width="2"/>
</svg>
