<svg xmlns="http://www.w3.org/2000/svg" width="20" height="20" viewBox="0 0 20 20" fill="none">
  <ellipse cx="9.166666666666668" cy="4.166666666666667" rx="6.666666666666667" ry="2.5" stroke="currentColor" stroke-width="2"/>
  <path d="M5 9.0348C5.5013 9.1855 6.0619 9.3097 6.6667 9.4014" stroke="currentColor" stroke-linecap="round" stroke-width="2"/>
  <path d="M9.1667 12.5C5.4848 12.5 2.5 11.3808 2.5 10" stroke="currentColor" stroke-linecap="round" stroke-width="2"/>
  <path d="M5 14.8682C5.5013 15.0188 6.0619 15.143 6.6667 15.2348" stroke="currentColor" stroke-linecap="round" stroke-width="2"/>
  <path d="M9.1667 18.3333C5.4848 18.3333 2.5 17.2141 2.5 15.8333V4.1667M15.8333 4.1667V10" stroke="currentColor" stroke-linecap="round" stroke-linejoin="round" stroke-width="2"/>
  <path d="M15.8333 13.8946L14.8548 12.6557C14.334 11.9963 14.0736 11.6667 13.75 11.6667 13.4264 11.6667 13.166 11.9963 12.6452 12.6557L11.6667 13.8946M13.75 11.7393V18.3333" stroke="currentColor" stroke-linecap="round" stroke-linejoin="round" stroke-width="2"/>
</svg>
