<svg xmlns="http://www.w3.org/2000/svg" width="20" height="20" viewBox="0 0 20 20" fill="none">
  <path d="M9.1362 4.9963C9.4471 6.5323 8.4392 8.7482 5.7965 8.2595M6.5278 5.8893C7.2719 5.0153 9.0782 4.6556 11.2222 5.3899 12.1495 5.644 14.1509 6.6351 15.0696 7.3671 16.1908 8.1129 17.7874 9.6953 18.2042 11.3405 18.6593 12.8557 17.954 15.1404 15.7399 16.6388 13.6225 18.0716 10.6558 18.1088 7.7761 13.6417 7.6701 13.6417 4.3583 8.2538 6.5278 5.8893Z" stroke="currentColor" stroke-linecap="round" stroke-linejoin="round" stroke-width="2"/>
  <path d="M1.6663 11.7345C3.382 11.3893 5.333 12.4378 4.9983 14.9965M14.1145 6.5055C14.1145 6.3476 13.772 5.5494 13.4338 5.1332 11.9105 2.9402 9.6511 2.1508 8.0641 2.6413 6.4177 3.0533 4.842 4.5874 4.0931 5.7064 3.2076 6.7827 2.3269 8.6283 2.0701 9.5549 1.3297 11.6969 1.6751 13.5491 2.5469 14.2958 3.1177 14.8276 4.9337 15.5722 7.6315 14.2958" stroke="currentColor" stroke-linecap="round" stroke-linejoin="round" stroke-width="2"/>
  <path d="M9.1682 10.851C9.1682 10.851 9.1676 11.8709 10.1826 11.8705 11.1977 11.8701 11.1972 12.8898 11.1972 12.8898M11.6763 8.3312C11.6763 8.3312 11.6758 9.3511 12.6907 9.3507 13.7058 9.3503 13.7053 10.3699 13.7053 10.3699M12.9725 12.1258C12.9725 12.1258 12.9719 13.1456 13.9869 13.1452 15.002 13.1448 15.0015 14.1645 15.0015 14.1645" stroke="currentColor" stroke-linecap="round" stroke-linejoin="round" stroke-width="2"/>
</svg>
