<svg xmlns="http://www.w3.org/2000/svg" width="20" height="20" viewBox="0 0 20 20" fill="none">
  <path d="M17.2709 5.1383C16.3312 5.1383 15.7948 5.7934 15.7948 5.7934 15.6153 4.9405 15.0792 4.6898 14.4673 4.4058 14.0804 4.2261 13.9183 3.8257 13.8656 3.5364 13.8455 3.4262 13.7546 3.3359 13.6426 3.3359 13.5308 3.3359 13.4244 3.3827 13.3704 3.4805 13.2549 3.6896 13.0759 4.1468 13.06 4.9893 13.0363 6.2414 14.0688 7.2071 14.588 7.5335 14.5346 7.8421 14.3467 8.3187 14.2593 8.5184 13.9968 8.4247 13.2813 8.1228 12.7002 7.4897 11.9028 6.6211 11.2523 6.0057 10.4045 5.4037 9.5568 4.8018 10.1236 4.0846 10.4797 3.9141 10.8358 3.7435 10.565 3.5683 9.6771 3.5984 8.9668 3.6225 7.9551 4.0401 7.538 4.2458 7.1127 4.1108 6.2287 4.0839 5.8398 4.0873 2.0211 4.0873 0.8338 7.4835 0.8338 9.1672 0.8338 14.239 4.8948 16.6672 7.8115 16.6672 11.1103 16.6672 12.2661 15.3221 12.2661 15.3221 12.4022 15.4068 12.8989 15.586 13.7978 15.6242 14.9215 15.6718 15.3402 15.3538 15.372 15.1101 15.4038 14.8663 15.2236 14.7762 15.0646 14.7019 14.9056 14.6278 14.6565 14.4847 14.1847 14.3309 13.8074 14.208 13.6377 14.0742 13.5999 14.0227 15.8751 11.9627 16.2919 9.0768 16.2275 7.8502 17.9873 7.7819 18.6803 6.6101 18.9083 6.0174 19.1413 5.4115 19.2868 4.5868 19.0451 4.3998 18.8517 4.2503 18.6901 4.4304 18.6334 4.5392 18.3238 4.8695 18.0966 5.1383 17.2709 5.1383Z" stroke="currentColor" stroke-linecap="round" stroke-linejoin="round" stroke-width="2"/>
  <path d="M9.9998 8.807C9.9998 8.807 10.7298 8.5818 11.3705 9.0192 12.2384 9.6115 12.4998 10.4157 12.4998 10.4157" stroke="currentColor" stroke-linecap="round" stroke-linejoin="round" stroke-width="2"/>
  <path d="M11.25 13.7489C11.25 13.7489 10.3823 13.3265 9.0798 11.6337 7.5147 9.5996 6.0406 7.4046 2.9412 8.1223 2.9412 8.1223 2.9168 12.4983 7.0833 13.7489" stroke="currentColor" stroke-linecap="round" stroke-linejoin="round" stroke-width="2"/>
</svg>
