<svg xmlns="http://www.w3.org/2000/svg" width="20" height="20" viewBox="0 0 20 20" fill="none">
  <path d="M16.25 4.5833L15.7336 12.9376C15.6016 15.072 15.5357 16.1393 15.0007 16.9066 14.7361 17.2859 14.3956 17.6061 14.0006 17.8467 13.2018 18.3333 12.1325 18.3333 9.9939 18.3333 7.8526 18.3333 6.7819 18.3333 5.9825 17.8457 5.5873 17.6047 5.2467 17.284 4.9822 16.904 4.4474 16.1355 4.3829 15.0668 4.2538 12.9293L3.75 4.5833" stroke="currentColor" stroke-linecap="round" stroke-width="2"/>
  <path d="M2.5 4.5833H17.5M13.3798 4.5833L12.8109 3.4098C12.433 2.6302 12.244 2.2404 11.9181 1.9973 11.8458 1.9434 11.7693 1.8955 11.6892 1.8539 11.3283 1.6667 10.8951 1.6667 10.0288 1.6667 9.1407 1.6667 8.6967 1.6667 8.3297 1.8618 8.2484 1.905 8.1708 1.9549 8.0977 2.011 7.768 2.2639 7.5839 2.668 7.2155 3.4761L6.7108 4.5833" stroke="currentColor" stroke-linecap="round" stroke-width="2"/>
</svg>
