<svg xmlns="http://www.w3.org/2000/svg" width="20" height="20" viewBox="0 0 20 20" fill="none">
  <path d="M3.7288 5.0835L4.4295 15.1473C4.5074 16.1138 5.2348 17.9613 7.0991 18.1685 8.9633 18.3756 12.7086 18.3293 13.3916 18.3293 14.0746 18.3293 15.844 17.8447 15.844 15.8383 15.844 13.813 14.1528 13.2849 13.0898 13.3029H10.0462M10.0462 13.3029C10.0506 13.1245 10.1263 12.9477 10.2732 12.819L12.0725 11.2437M10.0462 13.3029C10.0414 13.4933 10.1177 13.6853 10.275 13.822L12.0725 15.3841M16.2251 4.8535L15.8353 11.2327" stroke="currentColor" stroke-linecap="round" stroke-linejoin="round" stroke-width="2"/>
  <path d="M2.5 4.5797H17.5M13.3796 4.5797L12.8108 3.4076C12.4328 2.629 12.2438 2.2397 11.9179 1.9969 11.8457 1.9431 11.7691 1.8952 11.689 1.8537 11.3281 1.6667 10.8949 1.6667 10.0286 1.6667 9.1405 1.6667 8.6965 1.6667 8.3296 1.8615 8.2483 1.9047 8.1707 1.9546 8.0976 2.0105 7.7679 2.2632 7.5837 2.6667 7.2153 3.4738L6.7106 4.5797" stroke="currentColor" stroke-linecap="round" stroke-linejoin="round" stroke-width="2"/>
</svg>
