<svg xmlns="http://www.w3.org/2000/svg" width="20" height="20" viewBox="0 0 20 20" fill="none">
  <path d="M16.25 4.5833L15.9152 10.0052M3.75 4.5833L4.2538 12.9373C4.3829 15.0768 4.4474 16.1466 4.9822 16.9158 5.2467 17.2962 5.5873 17.6172 5.9825 17.8585 6.542 18.2 7.2342 18.3026 8.3333 18.3333" stroke="currentColor" stroke-linecap="round" stroke-width="2"/>
  <path d="M16.6667 12.5L10.8333 18.3329M16.6667 18.3333L10.8333 12.5004" stroke="currentColor" stroke-linecap="round" stroke-linejoin="round" stroke-width="2"/>
  <path d="M2.5 4.5833H17.5M13.3798 4.5833L12.8109 3.4098C12.433 2.6302 12.244 2.2404 11.9181 1.9973 11.8458 1.9434 11.7693 1.8955 11.6892 1.8539 11.3283 1.6667 10.8951 1.6667 10.0288 1.6667 9.1407 1.6667 8.6967 1.6667 8.3297 1.8618 8.2484 1.905 8.1708 1.9549 8.0977 2.011 7.768 2.2639 7.5839 2.668 7.2155 3.4761L6.7108 4.5833" stroke="currentColor" stroke-linecap="round" stroke-width="2"/>
</svg>
