<svg xmlns="http://www.w3.org/2000/svg" width="20" height="20" viewBox="0 0 20 20" fill="none">
  <path d="M16.25 14.5833C16.25 15.7339 15.3173 16.6667 14.1667 16.6667 13.0161 16.6667 12.0833 15.7339 12.0833 14.5833 12.0833 13.4328 13.0161 12.5 14.1667 12.5 15.3173 12.5 16.25 13.4328 16.25 14.5833Z" stroke="currentColor" stroke-width="2"/>
  <path d="M7.9167 14.5833C7.9167 15.7339 6.9839 16.6667 5.8333 16.6667 4.6827 16.6667 3.75 15.7339 3.75 14.5833 3.75 13.4328 4.6827 12.5 5.8333 12.5 6.9839 12.5 7.9167 13.4328 7.9167 14.5833Z" stroke="currentColor" stroke-width="2"/>
  <path d="M12.0833 14.5833H7.9167M1.6667 3.3333H10C11.1785 3.3333 11.7677 3.3333 12.1339 3.6994 12.5 4.0656 12.5 4.6548 12.5 5.8333V12.9167M12.9167 5.4167H14.4178C15.1093 5.4167 15.4549 5.4167 15.7415 5.5789 16.028 5.7412 16.2059 6.0376 16.5616 6.6304L17.9771 8.9896C18.1541 9.2846 18.2426 9.4322 18.288 9.5959 18.3333 9.7597 18.3333 9.9317 18.3333 10.2758V12.5C18.3333 13.2788 18.3333 13.6683 18.1658 13.9583 18.0562 14.1483 17.8983 14.3062 17.7083 14.4158 17.4183 14.5833 17.0288 14.5833 16.25 14.5833M1.6667 10.8333V12.5C1.6667 13.2788 1.6667 13.6683 1.8341 13.9583 1.9438 14.1483 2.1016 14.3062 2.2917 14.4158 2.5817 14.5833 2.9712 14.5833 3.75 14.5833" stroke="currentColor" stroke-linecap="round" stroke-linejoin="round" stroke-width="2"/>
  <path d="M1.6667 5.8333H6.6667M1.6667 8.3333H5" stroke="currentColor" stroke-linecap="round" stroke-linejoin="round" stroke-width="2"/>
</svg>
