<svg xmlns="http://www.w3.org/2000/svg" width="20" height="20" viewBox="0 0 20 20" fill="none">
  <path d="M12.9167 17.9167H8.75C5.6073 17.9167 4.036 17.9167 3.0596 16.9403 2.0833 15.9641 2.0833 14.3927 2.0833 11.25V5.4167H17.9167V11.25" stroke="currentColor" stroke-linecap="round" stroke-linejoin="round" stroke-width="2"/>
  <path d="M2.0833 5.4167L2.5833 4.75C3.5648 3.4414 4.0555 2.7872 4.7593 2.4352 5.4631 2.0833 6.281 2.0833 7.9167 2.0833H12.0833C13.719 2.0833 14.5369 2.0833 15.2408 2.4352 15.9445 2.7872 16.4352 3.4414 17.4167 4.75L17.9167 5.4167" stroke="currentColor" stroke-linecap="round" stroke-linejoin="round" stroke-width="2"/>
  <path d="M13.3333 11.249C13.3333 11.249 11.25 12.7833 11.25 13.3323 11.25 13.8813 13.3333 15.4157 13.3333 15.4157M11.6667 13.3323L15.6252 13.3329C16.8908 13.3332 17.9167 14.3593 17.9167 15.6249 17.9167 16.8905 16.8907 17.9167 15.625 17.9167" stroke="currentColor" stroke-linecap="round" stroke-linejoin="round" stroke-width="2"/>
</svg>
