<svg xmlns="http://www.w3.org/2000/svg" width="20" height="20" viewBox="0 0 20 20" fill="none">
  <path d="M2.0833 6.25V11.25C2.0833 14.3927 2.0833 15.9641 3.0596 16.9403 4.036 17.9167 5.6073 17.9167 8.75 17.9167H11.6667M17.9167 9.1667V6.25" stroke="currentColor" stroke-linecap="round" stroke-linejoin="round" stroke-width="2"/>
  <path d="M3.2242 4.4288L2.0833 6.25H17.9167L16.8732 4.5109C16.1618 3.3252 15.8061 2.7323 15.2329 2.4078 14.6598 2.0833 13.9684 2.0833 12.5858 2.0833H7.4614C6.1083 2.0833 5.4318 2.0833 4.8668 2.3961 4.3018 2.7088 3.9426 3.2822 3.2242 4.4288Z" stroke="currentColor" stroke-linecap="round" stroke-linejoin="round" stroke-width="2"/>
  <path d="M10 6.25V2.0833" stroke="currentColor" stroke-linecap="round" stroke-linejoin="round" stroke-width="2"/>
  <path d="M8.3333 8.75H11.6667" stroke="currentColor" stroke-linecap="round" stroke-linejoin="round" stroke-width="2"/>
  <path d="M15 10.8333C13.3892 10.8333 12.0833 12.1147 12.0833 13.6953 12.0833 14.599 12.4479 15.3018 13.1771 15.9294 13.691 16.3718 14.6262 17.321 15 17.9167 15.3927 17.3328 16.309 16.3718 16.8229 15.9294 17.5521 15.3018 17.9167 14.599 17.9167 13.6953 17.9167 12.1147 16.6108 10.8333 15 10.8333Z" stroke="currentColor" stroke-linecap="round" stroke-linejoin="round" stroke-width="2"/>
  <path d="M15.1123 13.75H15.0082M15.2165 13.75C15.2165 13.8651 15.1232 13.9583 15.0082 13.9583 14.8931 13.9583 14.7998 13.8651 14.7998 13.75 14.7998 13.6349 14.8931 13.5417 15.0082 13.5417 15.1232 13.5417 15.2165 13.6349 15.2165 13.75Z" stroke="currentColor" stroke-linecap="round" stroke-linejoin="round" stroke-width="2"/>
</svg>
