<svg xmlns="http://www.w3.org/2000/svg" width="20" height="20" viewBox="0 0 20 20" fill="none">
  <circle cx="14.166666666666668" cy="15.833416666666666" r="1.6666666666666667" stroke="currentColor" stroke-width="2"/>
  <circle cx="5.833333333333334" cy="15.833416666666666" r="1.6666666666666667" stroke="currentColor" stroke-width="2"/>
  <path d="M1.6667 7.5001V11.6226C1.6667 13.6076 1.6667 14.6001 2.2769 15.2168 2.6826 15.6268 3.2527 15.7642 4.1667 15.8103M10.3559 4.1668C11.117 4.4167 11.7137 5.0197 11.961 5.7889 12.0833 6.1695 12.0833 6.6397 12.0833 7.5802 12.0833 8.2072 12.0833 8.5207 12.1649 8.7744 12.3298 9.2872 12.7276 9.6893 13.235 9.8558 13.486 9.9383 13.7962 9.9383 14.4167 9.9383H18.3333V11.6226C18.3333 13.6076 18.3333 14.6001 17.7232 15.2168 17.3174 15.6268 16.7473 15.7642 15.8333 15.8103M7.5 15.8334H12.5" stroke="currentColor" stroke-linecap="round" stroke-linejoin="round" stroke-width="2"/>
  <path d="M12.0833 5.8334H13.601C14.8138 5.8334 15.4202 5.8334 15.9137 6.1282 16.4072 6.423 16.6947 6.9569 17.2697 8.0247L18.3333 10.0001" stroke="currentColor" stroke-linecap="round" stroke-linejoin="round" stroke-width="2"/>
  <path d="M6.1054 6.6668L7.3442 5.6883C8.0036 5.1675 8.3333 4.907 8.3333 4.5834M6.1054 2.5001L7.3442 3.4786C8.0036 3.9994 8.3333 4.2598 8.3333 4.5834M8.3333 4.5834L1.6667 4.5834" stroke="currentColor" stroke-linecap="round" stroke-linejoin="round" stroke-width="2"/>
</svg>
