<svg xmlns="http://www.w3.org/2000/svg" width="20" height="20" viewBox="0 0 20 20" fill="none">
  <path d="M16.25 16.25C16.25 17.4006 15.3173 18.3333 14.1667 18.3333 13.0161 18.3333 12.0833 17.4006 12.0833 16.25 12.0833 15.0994 13.0161 14.1667 14.1667 14.1667 15.3173 14.1667 16.25 15.0994 16.25 16.25Z" stroke="currentColor" stroke-width="2"/>
  <path d="M7.9167 16.25C7.9167 17.4006 6.9839 18.3333 5.8333 18.3333 4.6827 18.3333 3.75 17.4006 3.75 16.25 3.75 15.0994 4.6827 14.1667 5.8333 14.1667 6.9839 14.1667 7.9167 15.0994 7.9167 16.25Z" stroke="currentColor" stroke-width="2"/>
  <path d="M12.0833 16.25H7.9167M16.25 16.25H16.886C17.0693 16.25 17.1609 16.25 17.2379 16.2404 17.8058 16.1697 18.253 15.7224 18.3238 15.1546 18.3333 15.0776 18.3333 14.9859 18.3333 14.8027V12.5C18.3333 9.5084 15.9083 7.0833 12.9167 7.0833M9.1667 5H10C11.1785 5 11.7677 5 12.1339 5.3661 12.5 5.7322 12.5 6.3215 12.5 7.5V14.5833M1.6667 10V14.1667C1.6667 14.9455 1.6667 15.3349 1.8341 15.625 1.9438 15.815 2.1016 15.9728 2.2917 16.0825 2.5817 16.25 2.9712 16.25 3.75 16.25" stroke="currentColor" stroke-linecap="round" stroke-linejoin="round" stroke-width="2"/>
  <path d="M6.5417 6.5417L5.4167 5.7917V3.9167M1.6667 5.4167C1.6667 7.4877 3.3456 9.1667 5.4167 9.1667 7.4877 9.1667 9.1667 7.4877 9.1667 5.4167 9.1667 3.3456 7.4877 1.6667 5.4167 1.6667 3.3456 1.6667 1.6667 3.3456 1.6667 5.4167Z" stroke="currentColor" stroke-linecap="round" stroke-linejoin="round" stroke-width="2"/>
</svg>
