<svg xmlns="http://www.w3.org/2000/svg" width="20" height="20" viewBox="0 0 20 20" fill="none">
  <path d="M8.75 17.9167C5.6073 17.9167 4.036 17.9167 3.0596 16.9403 2.0833 15.9641 2.0833 14.3927 2.0833 11.25V5.4167H17.9167V12.0833" stroke="currentColor" stroke-linecap="round" stroke-linejoin="round" stroke-width="2"/>
  <path d="M2.0833 5.4167L2.5833 4.75C3.5648 3.4414 4.0555 2.7872 4.7593 2.4352 5.4631 2.0833 6.281 2.0833 7.9167 2.0833H12.0833C13.719 2.0833 14.5369 2.0833 15.2408 2.4352 15.9445 2.7872 16.4352 3.4414 17.4167 4.75L17.9167 5.4167" stroke="currentColor" stroke-linecap="round" stroke-linejoin="round" stroke-width="2"/>
  <path d="M17.9167 15.4167C17.9167 15.4167 16.215 17.9167 13.75 17.9167 11.285 17.9167 9.5833 15.4167 9.5833 15.4167 9.5833 15.4167 11.25 12.9167 13.75 12.9167 16.25 12.9167 17.9167 15.4167 17.9167 15.4167Z" stroke="currentColor" stroke-linecap="round" stroke-linejoin="round" stroke-width="2"/>
  <path d="M13.8542 15.4167H13.75M13.9583 15.4167C13.9583 15.5318 13.8651 15.625 13.75 15.625 13.6349 15.625 13.5417 15.5318 13.5417 15.4167 13.5417 15.3016 13.6349 15.2083 13.75 15.2083 13.8651 15.2083 13.9583 15.3016 13.9583 15.4167Z" stroke="currentColor" stroke-linecap="round" stroke-linejoin="round" stroke-width="2"/>
</svg>
