<svg xmlns="http://www.w3.org/2000/svg" width="20" height="20" viewBox="0 0 20 20" fill="none">
  <path d="M9.9805 4.3136C10.1645 4.1613 10.3557 3.9882 10.5533 3.7919 12.4696 1.888 15.0796 2.2608 16.3024 3.7919 19.3068 7.5536 15.9421 13.4535 14.0183 16.8663 13.7992 17.2548 13.3629 17.5 12.8929 17.5 12.1433 17.5 11.5573 16.9001 11.5329 16.1999 11.4824 14.7504 11.1458 12.9956 10 12.9167 8.8543 12.9956 8.4786 14.7504 8.4282 16.1999 8.4038 16.9001 7.8178 17.5 7.0681 17.5 6.5982 17.5 6.1619 17.2548 5.9428 16.8663 3.2032 12.0064 2.462 8.9573 2.5015 7 4.1667 7.0833 4.9935 6.25 4.9935 4.75 6.6667 5 7.5 4.0239 7.5 2.5 8.3333 2.5 8.8121 3.2001 9.4078 3.7919 9.6053 3.9882 9.7965 4.1613 9.9805 4.3136ZM9.9805 4.3136C11.2245 5.3436 12.0833 5.4167 12.5 5" stroke="currentColor" stroke-linecap="round" stroke-linejoin="round" stroke-width="2"/>
</svg>
