<svg xmlns="http://www.w3.org/2000/svg" width="20" height="20" viewBox="0 0 20 20" fill="none">
  <path d="M7.5 5C7.9167 5.4167 8.7528 5.3436 10 4.3136M10 4.3136C9.8155 4.1613 9.6238 3.9882 9.4258 3.7919 7.5044 1.888 4.8877 2.2608 3.6617 3.7919 2.8149 4.8495 0.6479 7.4821 5.9518 16.8663 6.1714 17.2548 6.6088 17.5 7.08 17.5 7.8317 17.5 8.4192 16.9001 8.4436 16.1999 8.4954 14.7149 8.7831 13.0029 10 13.0029 11.2169 13.0029 11.5046 14.7149 11.5564 16.1999 11.5808 16.9001 12.1683 17.5 12.92 17.5 13.3912 17.5 13.8286 17.2548 14.0482 16.8663 19.3521 7.4821 17.1852 4.8495 16.3383 3.7919 15.1123 2.2608 12.4956 1.888 10.5742 3.7919 10.3762 3.9882 10.1845 4.1613 10 4.3136Z" stroke="currentColor" stroke-linecap="round" stroke-linejoin="round" stroke-width="2"/>
  <path d="M8.6558 7.8225C8.2258 8.2526 8.2258 10.0808 8.6558 10.5108 9.0859 10.9408 10.9141 10.9408 11.3442 10.5108 11.7742 10.0808 11.7742 8.2526 11.3442 7.8225 10.9141 7.3925 9.0859 7.3925 8.6558 7.8225Z" stroke="currentColor" stroke-width="2"/>
  <path d="M8.3333 9.1667H3.3333" stroke="currentColor" stroke-linecap="round" stroke-width="2"/>
  <path d="M16.6667 9.1667H11.6667" stroke="currentColor" stroke-linecap="round" stroke-width="2"/>
</svg>
