<svg xmlns="http://www.w3.org/2000/svg" width="20" height="20" viewBox="0 0 20 20" fill="none">
  <path d="M11.6667 4.1667C11.25 4.5833 10.4139 4.5102 9.1667 3.4803M9.1667 3.4803C9.3512 3.3279 9.5428 3.1549 9.7408 2.9586 11.6623 1.0547 14.279 1.4274 15.505 2.9586 16.0267 3.6101 17.0493 4.8594 16.5178 7.9167M9.1667 3.4803C8.9822 3.3279 8.7905 3.1549 8.5925 2.9586 6.6711 1.0547 4.0543 1.4274 2.8283 2.9586 1.9815 4.0162-0.1854 6.6488 5.1185 16.033 5.338 16.4215 5.7755 16.6667 6.2467 16.6667 6.9983 16.6667 7.5858 16.0668 7.6102 15.3666 7.6482 14.2804 7.8582 13.0711 8.4445 12.5" stroke="currentColor" stroke-linecap="round" stroke-linejoin="round" stroke-width="2"/>
  <path d="M13.3333 14.1667L13.9033 14.7367C14.0262 14.8596 14.0877 14.921 14.1621 14.9169 14.2364 14.9127 14.2908 14.8449 14.3993 14.7092L15.833 12.9167M10.8333 12.8786V13.2003C10.8333 14.2018 10.8333 14.7026 10.957 15.1609 11.1097 15.7269 11.3993 16.2488 11.8013 16.6831 12.1268 17.0347 12.5565 17.3084 13.4157 17.8559 13.8003 18.101 13.9927 18.2236 14.1971 18.2806 14.4496 18.3509 14.7171 18.3509 14.9696 18.2806 15.174 18.2236 15.3663 18.101 15.751 17.8559 16.6102 17.3084 17.0398 17.0347 17.3653 16.6831 17.7674 16.2488 18.057 15.7269 18.2097 15.1609 18.3333 14.7026 18.3333 14.2018 18.3333 13.2003V12.8786C18.3333 12.2549 18.3333 11.9431 18.2152 11.6798 18.1423 11.5173 18.0378 11.3703 17.9077 11.2467 17.6966 11.0463 17.3975 10.9367 16.7992 10.7178L15.5708 10.2682C15.0825 10.0894 14.8383 10 14.5833 10 14.3283 10 14.0842 10.0894 13.5958 10.2682L12.3675 10.7178C11.7692 10.9367 11.4701 11.0463 11.259 11.2467 11.1288 11.3703 11.0244 11.5173 10.9515 11.6798 10.8333 11.9431 10.8333 12.2549 10.8333 12.8786Z" stroke="currentColor" stroke-linecap="round" stroke-linejoin="round" stroke-width="2"/>
</svg>
