<svg xmlns="http://www.w3.org/2000/svg" width="20" height="20" viewBox="0 0 20 20" fill="none">
  <path d="M17.5 11.5691L17.4999 7.6068C17.4994 6.6607 17.4992 6.1877 17.2692 5.7911 17.0392 5.3945 16.6287 5.1629 15.8077 4.6996L11.62 2.3368C10.8282 1.8901 10.4323 1.6667 10 1.6667 9.5678 1.6667 9.1718 1.8901 8.38 2.3368L4.1923 4.6996C3.3714 5.1629 2.9609 5.3945 2.7308 5.7911 2.5008 6.1877 2.5006 6.6607 2.5001 7.6068L2.5 11.5691C2.5 14.7578 2.5 16.3522 3.4763 17.3427 4.4526 18.3333 6.024 18.3333 9.1667 18.3333H10.8333C13.976 18.3333 15.5474 18.3333 16.5237 17.3427 17.5 16.3522 17.5 14.7578 17.5 11.5691Z" stroke="currentColor" stroke-linecap="round" stroke-width="2"/>
  <path d="M8.3333 10.8333H6.6667M13.3333 10.8333H11.6667M8.3333 7.5H6.6667M8.3333 14.1667H6.6667M13.3333 7.5H11.6667M13.3333 14.1667H11.6667" stroke="currentColor" stroke-linecap="round" stroke-width="2"/>
</svg>
