<svg xmlns="http://www.w3.org/2000/svg" width="20" height="20" viewBox="0 0 20 20" fill="none">
  <path d="M2.5 6.6667H17.5V10C17.5 11.9642 17.5 12.9463 16.8898 13.5565 16.2796 14.1667 15.2975 14.1667 13.3333 14.1667H6.6667C4.7025 14.1667 3.7204 14.1667 3.1102 13.5565 2.5 12.9463 2.5 11.9642 2.5 10V6.6667Z" stroke="currentColor" stroke-linecap="round" stroke-width="2"/>
  <path d="M5.8333 5C5.8333 3.4286 5.8333 2.643 6.3215 2.1548 6.8096 1.6667 7.5953 1.6667 9.1667 1.6667H10.8333C12.4047 1.6667 13.1903 1.6667 13.6785 2.1548 14.1667 2.643 14.1667 3.4286 14.1667 5V6.6667H5.8333V5Z" stroke="currentColor" stroke-linecap="round" stroke-width="2"/>
  <path d="M4.1667 14.1667V18.3333M15.8333 14.1667V18.3333" stroke="currentColor" stroke-linecap="round" stroke-width="2"/>
  <path d="M6.6667 14.1667V16.6667M13.3333 14.1667V16.6667" stroke="currentColor" stroke-linecap="round" stroke-width="2"/>
  <path d="M1.6667 6.6667L3.1818 6.6667M16.8182 6.6667L18.3333 6.6667" stroke="currentColor" stroke-linecap="round" stroke-width="2"/>
</svg>
