<svg xmlns="http://www.w3.org/2000/svg" width="20" height="20" viewBox="0 0 20 20" fill="none">
  <circle cx="9.166666666666668" cy="5.001625" r="1.6666666666666667" stroke="currentColor" stroke-linecap="round" stroke-linejoin="round" stroke-width="2"/>
  <path d="M9.1667 15.0017C5.0245 15.0017 1.6667 13.5092 1.6667 11.6683 1.6667 11.0612 2.0319 10.4919 2.67 10.0017M14.1276 14.1683C13.4147 14.4479 12.5814 14.6683 11.6667 14.8119" stroke="currentColor" stroke-linecap="round" stroke-linejoin="round" stroke-width="2"/>
  <path d="M16.6087 14.585C16.6469 14.7215 16.6667 14.8605 16.6667 15.0017 16.6667 16.8426 13.3088 18.335 9.1667 18.335 5.0245 18.335 1.6667 16.8426 1.6667 15.0017 1.6667 14.3945 2.0319 13.8253 2.67 13.335" stroke="currentColor" stroke-linecap="round" stroke-linejoin="round" stroke-width="2"/>
  <path d="M10.8333 5.0846C14.1733 5.4215 16.6667 7.5024 16.6667 10.0024V13.752C16.6667 14.4424 16.107 15.002 15.4167 15.002 14.7263 15.002 14.1667 14.4424 14.1667 13.752V12.502C14.1667 11.8117 13.607 11.252 12.9167 11.252 12.2263 11.252 11.6667 11.8117 11.6667 12.502V14.5853C11.6667 15.2758 11.107 15.8353 10.4167 15.8353 9.7263 15.8353 9.1667 15.2758 9.1667 14.5853V13.752C9.1667 13.3315 9.1667 13.1212 9.1396 12.9728 9.0187 12.3097 8.6472 11.8878 8.0048 11.6836 7.8611 11.6379 7.6034 11.6049 7.088 11.539 3.957 11.1384 1.6667 9.8558 1.6667 8.3353 1.6667 6.749 4.16 5.4215 7.5 5.0846" stroke="currentColor" stroke-linecap="round" stroke-linejoin="round" stroke-width="2"/>
  <path d="M10 1.6683C9.7223 1.8072 9.1667 2.335 9.1667 3.335" stroke="currentColor" stroke-linecap="round" stroke-linejoin="round" stroke-width="2"/>
</svg>
