<svg xmlns="http://www.w3.org/2000/svg" width="20" height="20" viewBox="0 0 20 20" fill="none">
  <path d="M10.4167 3.75H7.0833V3.3333C7.0833 2.5477 7.0833 2.1548 7.3274 1.9107 7.5715 1.6667 7.9643 1.6667 8.75 1.6667 9.5357 1.6667 9.9285 1.6667 10.1726 1.9107 10.4167 2.1548 10.4167 2.5477 10.4167 3.3333V3.75Z" stroke="currentColor" stroke-linejoin="round" stroke-width="2"/>
  <path d="M15 15V8.7689C15 6.1624 13.0124 3.986 10.4167 3.75H7.0833C7.0833 3.8045 7.0833 3.8318 7.083 3.8586 7.0734 4.603 6.8645 5.3314 6.4781 5.9677 6.4642 5.9906 6.4497 6.0137 6.4208 6.06L6.1364 6.5152C5.7631 7.1124 5.5765 7.411 5.4352 7.7272 5.2431 8.157 5.1127 8.6118 5.0477 9.078 5 9.421 5 9.7732 5 10.4774V15C5 16.5713 5 17.357 5.4882 17.8452 5.9763 18.3333 6.762 18.3333 8.3333 18.3333H11.6667C13.238 18.3333 14.0237 18.3333 14.5118 17.8452 15 17.357 15 16.5713 15 15Z" stroke="currentColor" stroke-linejoin="round" stroke-width="2"/>
  <path d="M12.5092 7.0948C13.0677 8.073 13.0498 9.1407 12.4695 9.4796 11.8892 9.8184 10.9659 9.3002 10.4075 8.3219 9.849 7.3437 9.8668 6.276 10.4472 5.9371 11.0275 5.5982 11.9507 6.1165 12.5092 7.0948Z" stroke="currentColor" stroke-linejoin="round" stroke-width="2"/>
</svg>
