<svg xmlns="http://www.w3.org/2000/svg" width="20" height="20" viewBox="0 0 20 20" fill="none">
  <path d="M12.6462 18.3333V17.5098L12.6462 17.4923C12.6504 17.0381 13.0228 16.6709 13.4834 16.6667L13.5459 16.6666C14.7389 16.6571 15.7638 15.8285 16.0073 14.6767L16.0161 14.6334 16.4488 12.5 17.2332 12.1133C17.653 11.9063 17.8628 11.8027 17.9082 11.613 17.9537 11.4233 17.8129 11.2381 17.5313 10.8678L15.9417 8.7778C15.7836 8.5698 15.7045 8.4657 15.6621 8.3558 15.6198 8.2457 15.6067 8.0898 15.5807 7.7779 15.2944 4.3559 12.3874 1.6667 8.8436 1.6667 5.11 1.6667 2.0833 4.6514 2.0833 8.3333 2.0833 10.6248 3.2556 12.6461 5.0409 13.8461M5.0409 13.8461V18.3333M5.0409 13.8461C5.5575 14.1933 6.1253 14.4717 6.731 14.668" stroke="currentColor" stroke-linecap="round" stroke-linejoin="round" stroke-width="2"/>
  <path d="M11.6667 7.5L12.4333 8.1607C12.7555 8.4385 12.9167 8.5774 12.9167 8.75 12.9167 8.9226 12.7555 9.0615 12.4333 9.3393L11.6667 10" stroke="currentColor" stroke-linecap="round" stroke-linejoin="round" stroke-width="2"/>
  <path d="M5.8333 7.5L5.0667 8.1607C4.7445 8.4385 4.5833 8.5774 4.5833 8.75 4.5833 8.9226 4.7445 9.0615 5.0667 9.3393L5.8333 10" stroke="currentColor" stroke-linecap="round" stroke-linejoin="round" stroke-width="2"/>
  <path d="M9.5833 6.6667L7.9167 10.8333" stroke="currentColor" stroke-linecap="round" stroke-linejoin="round" stroke-width="2"/>
</svg>
