<svg xmlns="http://www.w3.org/2000/svg" width="20" height="20" viewBox="0 0 20 20" fill="none">
  <path d="M15 1.6667C15.6894 1.6667 15.8333 1.8106 15.8333 2.5V5.1155C15.8333 5.3685 15.8323 5.3719 15.6908 5.5817L12.9607 9.6264C12.5748 10.1979 12.382 10.4837 12.4995 10.7048 12.617 10.9259 12.9618 10.9259 13.6513 10.9259H15C15.6894 10.9259 15.8333 11.0698 15.8333 11.7593V13.7963C15.8333 14.4857 15.6894 14.6297 15 14.6297H10.4688C9.6013 14.6297 9.5727 14.6448 9.0873 15.3639L7.3311 17.9662C7.0885 18.3257 7.0742 18.3333 6.6404 18.3333H5C4.3106 18.3333 4.1667 18.1894 4.1667 17.5V14.8846C4.1667 14.6315 4.1677 14.6281 4.3093 14.4183L7.0394 10.3736C7.4252 9.8021 7.618 9.5163 7.5005 9.2952 7.383 9.0741 7.0382 9.0741 6.3487 9.0741H5C4.3106 9.0741 4.1667 8.9302 4.1667 8.2407V6.2037C4.1667 5.5143 4.3106 5.3704 5 5.3704H9.5312C10.3988 5.3704 10.4273 5.3552 10.9127 4.6361L12.6689 2.0338C12.9115 1.6743 12.9258 1.6667 13.3596 1.6667H15Z" stroke="currentColor" fill-rule="evenodd" clip-rule="evenodd" stroke-linecap="round" stroke-linejoin="round" stroke-width="2"/>
</svg>
