<svg xmlns="http://www.w3.org/2000/svg" width="20" height="20" viewBox="0 0 20 20" fill="none">
  <path d="M14.0505 4.1667C13.9379 3.4425 13.7248 2.9238 13.3216 2.5209 12.4666 1.6667 11.0905 1.6667 8.3383 1.6667 5.5861 1.6667 4.21 1.6667 3.355 2.5209 2.5 3.3752 2.5 4.7501 2.5 7.5V12.5C2.5 15.2498 2.5 16.6248 3.355 17.4791 4.21 18.3333 5.5861 18.3333 8.3383 18.3333 11.0905 18.3333 12.4666 18.3333 13.3216 17.4791 13.983 16.8182 14.1327 15.8459 14.1667 14.1667" stroke="currentColor" stroke-linecap="round" stroke-linejoin="round" stroke-width="2"/>
  <path d="M15 11.6667C16.3808 11.6667 17.5 10.5474 17.5 9.1667 17.5 7.786 16.3808 6.6667 15 6.6667 14.0747 6.6667 13.2668 7.1694 12.8344 7.9167H6.6667L5.8333 9.1667 7.5 11.25 8.75 10.4167 10 11.25 11.25 10.4167H12.8344C13.2668 11.1639 14.0747 11.6667 15 11.6667Z" stroke="currentColor" stroke-linecap="round" stroke-linejoin="round" stroke-width="2"/>
  <path d="M8.4375 15.8333H8.3333M8.5417 15.8333C8.5417 15.9484 8.4484 16.0417 8.3333 16.0417 8.2183 16.0417 8.125 15.9484 8.125 15.8333 8.125 15.7182 8.2183 15.625 8.3333 15.625 8.4484 15.625 8.5417 15.7182 8.5417 15.8333Z" stroke="currentColor" stroke-linecap="round" stroke-linejoin="round" stroke-width="2"/>
  <path d="M15.1042 9.1667H15M15.2083 9.1667C15.2083 9.2818 15.1151 9.375 15 9.375 14.8849 9.375 14.7917 9.2818 14.7917 9.1667 14.7917 9.0516 14.8849 8.9583 15 8.9583 15.1151 8.9583 15.2083 9.0516 15.2083 9.1667Z" stroke="currentColor" stroke-linecap="round" stroke-linejoin="round" stroke-width="2"/>
</svg>
