<svg xmlns="http://www.w3.org/2000/svg" width="20" height="20" viewBox="0 0 20 20" fill="none">
  <path d="M1.6667 3.3333C1.6667 4.2538 2.4129 5 3.3333 5 4.2538 5 5 4.2538 5 3.3333 5 2.4129 4.2538 1.6667 3.3333 1.6667 2.4129 1.6667 1.6667 2.4129 1.6667 3.3333Z" stroke="currentColor" stroke-width="2"/>
  <path d="M1.6667 10C1.6667 10.9205 2.4129 11.6667 3.3333 11.6667 4.2538 11.6667 5 10.9205 5 10 5 9.0795 4.2538 8.3333 3.3333 8.3333 2.4129 8.3333 1.6667 9.0795 1.6667 10Z" stroke="currentColor" stroke-width="2"/>
  <path d="M8.3333 3.3333C8.3333 4.2538 9.0795 5 10 5 10.9205 5 11.6667 4.2538 11.6667 3.3333 11.6667 2.4129 10.9205 1.6667 10 1.6667 9.0795 1.6667 8.3333 2.4129 8.3333 3.3333Z" stroke="currentColor" stroke-width="2"/>
  <path d="M8.3333 10C8.3333 10.9205 9.0795 11.6667 10 11.6667 10.9205 11.6667 11.6667 10.9205 11.6667 10 11.6667 9.0795 10.9205 8.3333 10 8.3333 9.0795 8.3333 8.3333 9.0795 8.3333 10Z" stroke="currentColor" stroke-width="2"/>
  <path d="M8.3333 16.6667C8.3333 17.5872 9.0795 18.3333 10 18.3333 10.9205 18.3333 11.6667 17.5872 11.6667 16.6667 11.6667 15.7462 10.9205 15 10 15 9.0795 15 8.3333 15.7462 8.3333 16.6667Z" stroke="currentColor" stroke-width="2"/>
  <path d="M15 3.3333C15 4.2538 15.7462 5 16.6667 5 17.5872 5 18.3333 4.2538 18.3333 3.3333 18.3333 2.4129 17.5872 1.6667 16.6667 1.6667 15.7462 1.6667 15 2.4129 15 3.3333Z" stroke="currentColor" stroke-width="2"/>
  <path d="M15 10C15 10.9205 15.7462 11.6667 16.6667 11.6667 17.5872 11.6667 18.3333 10.9205 18.3333 10 18.3333 9.0795 17.5872 8.3333 16.6667 8.3333 15.7462 8.3333 15 9.0795 15 10Z" stroke="currentColor" stroke-width="2"/>
</svg>
