<svg xmlns="http://www.w3.org/2000/svg" width="20" height="20" viewBox="0 0 20 20" fill="none">
  <path d="M1.6667 3.3333C1.6667 4.119 1.6667 4.5118 1.9107 4.7559 2.1548 5 2.5477 5 3.3333 5 4.119 5 4.5118 5 4.7559 4.7559 5 4.5118 5 4.119 5 3.3333 5 2.5477 5 2.1548 4.7559 1.9107 4.5118 1.6667 4.119 1.6667 3.3333 1.6667 2.5477 1.6667 2.1548 1.6667 1.9107 1.9107 1.6667 2.1548 1.6667 2.5477 1.6667 3.3333Z" stroke="currentColor" stroke-width="2"/>
  <path d="M1.6667 10C1.6667 10.7857 1.6667 11.1785 1.9107 11.4226 2.1548 11.6667 2.5477 11.6667 3.3333 11.6667 4.119 11.6667 4.5118 11.6667 4.7559 11.4226 5 11.1785 5 10.7857 5 10 5 9.2143 5 8.8215 4.7559 8.5774 4.5118 8.3333 4.119 8.3333 3.3333 8.3333 2.5477 8.3333 2.1548 8.3333 1.9107 8.5774 1.6667 8.8215 1.6667 9.2143 1.6667 10Z" stroke="currentColor" stroke-width="2"/>
  <path d="M1.6667 16.6667C1.6667 17.4523 1.6667 17.8452 1.9107 18.0892 2.1548 18.3333 2.5477 18.3333 3.3333 18.3333 4.119 18.3333 4.5118 18.3333 4.7559 18.0892 5 17.8452 5 17.4523 5 16.6667 5 15.881 5 15.4882 4.7559 15.2441 4.5118 15 4.119 15 3.3333 15 2.5477 15 2.1548 15 1.9107 15.2441 1.6667 15.4882 1.6667 15.881 1.6667 16.6667Z" stroke="currentColor" stroke-width="2"/>
  <path d="M8.3333 3.3333C8.3333 4.119 8.3333 4.5118 8.5774 4.7559 8.8215 5 9.2143 5 10 5 10.7857 5 11.1785 5 11.4226 4.7559 11.6667 4.5118 11.6667 4.119 11.6667 3.3333 11.6667 2.5477 11.6667 2.1548 11.4226 1.9107 11.1785 1.6667 10.7857 1.6667 10 1.6667 9.2143 1.6667 8.8215 1.6667 8.5774 1.9107 8.3333 2.1548 8.3333 2.5477 8.3333 3.3333Z" stroke="currentColor" stroke-width="2"/>
  <path d="M8.3333 10C8.3333 10.7857 8.3333 11.1785 8.5774 11.4226 8.8215 11.6667 9.2143 11.6667 10 11.6667 10.7857 11.6667 11.1785 11.6667 11.4226 11.4226 11.6667 11.1785 11.6667 10.7857 11.6667 10 11.6667 9.2143 11.6667 8.8215 11.4226 8.5774 11.1785 8.3333 10.7857 8.3333 10 8.3333 9.2143 8.3333 8.8215 8.3333 8.5774 8.5774 8.3333 8.8215 8.3333 9.2143 8.3333 10Z" stroke="currentColor" stroke-width="2"/>
  <path d="M8.3333 16.6667C8.3333 17.4523 8.3333 17.8452 8.5774 18.0892 8.8215 18.3333 9.2143 18.3333 10 18.3333 10.7857 18.3333 11.1785 18.3333 11.4226 18.0892 11.6667 17.8452 11.6667 17.4523 11.6667 16.6667 11.6667 15.881 11.6667 15.4882 11.4226 15.2441 11.1785 15 10.7857 15 10 15 9.2143 15 8.8215 15 8.5774 15.2441 8.3333 15.4882 8.3333 15.881 8.3333 16.6667Z" stroke="currentColor" stroke-width="2"/>
  <path d="M15 3.3333C15 4.119 15 4.5118 15.2441 4.7559 15.4882 5 15.881 5 16.6667 5 17.4523 5 17.8452 5 18.0892 4.7559 18.3333 4.5118 18.3333 4.119 18.3333 3.3333 18.3333 2.5477 18.3333 2.1548 18.0892 1.9107 17.8452 1.6667 17.4523 1.6667 16.6667 1.6667 15.881 1.6667 15.4882 1.6667 15.2441 1.9107 15 2.1548 15 2.5477 15 3.3333Z" stroke="currentColor" stroke-width="2"/>
  <path d="M15 10C15 10.7857 15 11.1785 15.2441 11.4226 15.4882 11.6667 15.881 11.6667 16.6667 11.6667 17.4523 11.6667 17.8452 11.6667 18.0892 11.4226 18.3333 11.1785 18.3333 10.7857 18.3333 10 18.3333 9.2143 18.3333 8.8215 18.0892 8.5774 17.8452 8.3333 17.4523 8.3333 16.6667 8.3333 15.881 8.3333 15.4882 8.3333 15.2441 8.5774 15 8.8215 15 9.2143 15 10Z" stroke="currentColor" stroke-width="2"/>
  <path d="M15 16.6667C15 17.4523 15 17.8452 15.2441 18.0892 15.4882 18.3333 15.881 18.3333 16.6667 18.3333 17.4523 18.3333 17.8452 18.3333 18.0892 18.0892 18.3333 17.8452 18.3333 17.4523 18.3333 16.6667 18.3333 15.881 18.3333 15.4882 18.0892 15.2441 17.8452 15 17.4523 15 16.6667 15 15.881 15 15.4882 15 15.2441 15.2441 15 15.4882 15 15.881 15 16.6667Z" stroke="currentColor" stroke-width="2"/>
</svg>
