<svg xmlns="http://www.w3.org/2000/svg" width="20" height="20" viewBox="0 0 20 20" fill="none">
  <path d="M1.6701 10.1553C1.7305 11.5416 2.8518 12.6629 5.0944 14.9056 7.3371 17.1482 8.4584 18.2695 9.8447 18.3299 9.9482 18.3345 10.0518 18.3345 10.1553 18.3299 11.5416 18.2695 12.6629 17.1482 14.9056 14.9056 17.1482 12.6629 18.2695 11.5416 18.3299 10.1553 18.3345 10.0518 18.3345 9.9482 18.3299 9.8447 18.2695 8.4584 17.1482 7.3371 14.9056 5.0944 12.6629 2.8518 11.5416 1.7305 10.1553 1.6701 10.0518 1.6655 9.9482 1.6655 9.8447 1.6701 8.4584 1.7305 7.3371 2.8518 5.0944 5.0944 2.8518 7.3371 1.7305 8.4584 1.6701 9.8447 1.6655 9.9482 1.6655 10.0518 1.6701 10.1553Z" stroke="currentColor" stroke-linecap="round" stroke-linejoin="round" stroke-width="2"/>
  <path d="M6.6667 10H13.3333" stroke="currentColor" stroke-linecap="round" stroke-linejoin="round" stroke-width="2"/>
</svg>
