<svg xmlns="http://www.w3.org/2000/svg" width="20" height="20" viewBox="0 0 20 20" fill="none">
  <path d="M1.6667 6.4103C1.6667 5.8742 1.6667 5.6062 1.7076 5.3827 1.8949 4.361 2.6943 3.5615 3.716 3.3743 3.9395 3.3333 4.2075 3.3333 4.7436 3.3333H15.2564C15.7925 3.3333 16.0605 3.3333 16.284 3.3743 17.3057 3.5615 18.1052 4.361 18.2924 5.3827 18.3333 5.6062 18.3333 5.8742 18.3333 6.4103V8.3333C18.3333 12.9357 14.6023 16.6667 10 16.6667 5.3976 16.6667 1.6667 12.9357 1.6667 8.3333V6.4103Z" stroke="currentColor" stroke-linejoin="round" stroke-width="2"/>
  <path d="M15 6.6667H18.3333" stroke="currentColor" stroke-linecap="round" stroke-linejoin="round" stroke-width="2"/>
  <path d="M1.6667 6.6667H5" stroke="currentColor" stroke-linecap="round" stroke-linejoin="round" stroke-width="2"/>
  <path d="M12.0833 16.25V15.4167C12.0833 12.195 14.695 9.5833 17.9167 9.5833" stroke="currentColor" stroke-linecap="round" stroke-linejoin="round" stroke-width="2"/>
  <path d="M7.9167 16.25V15.4167C7.9167 12.195 5.305 9.5833 2.0833 9.5833" stroke="currentColor" stroke-linecap="round" stroke-linejoin="round" stroke-width="2"/>
</svg>
