<svg xmlns="http://www.w3.org/2000/svg" width="20" height="20" viewBox="0 0 20 20" fill="none">
  <path d="M10 17.5C13.1248 17.5 14.6872 17.5 15.7824 16.7043 16.1362 16.4473 16.4473 16.1362 16.7043 15.7824 17.5 14.6872 17.5 13.1248 17.5 10 17.5 6.8752 17.5 5.3128 16.7043 4.2176 16.4473 3.8638 16.1362 3.5528 15.7824 3.2958 14.6872 2.5 13.1248 2.5 10 2.5 6.8752 2.5 5.3128 2.5 4.2176 3.2958 3.8638 3.5528 3.5528 3.8638 3.2958 4.2176 2.5 5.3128 2.5 6.8752 2.5 10 2.5 13.1248 2.5 14.6872 3.2958 15.7824 3.5528 16.1362 3.8638 16.4473 4.2176 16.7043 5.3128 17.5 6.8752 17.5 10 17.5Z" stroke="currentColor" stroke-linecap="round" stroke-linejoin="round" stroke-width="2"/>
  <path d="M10.2083 10H10M10.4167 10C10.4167 10.2301 10.2301 10.4167 10 10.4167 9.7699 10.4167 9.5833 10.2301 9.5833 10 9.5833 9.7699 9.7699 9.5833 10 9.5833 10.2301 9.5833 10.4167 9.7699 10.4167 10Z" stroke="currentColor" stroke-linecap="round" stroke-width="2"/>
</svg>
