<svg xmlns="http://www.w3.org/2000/svg" width="20" height="20" viewBox="0 0 20 20" fill="none">
  <path d="M1.8118 16.6452C1.25 15.8044 1.25 14.6341 1.25 12.2933 1.25 9.9525 1.25 8.7822 1.8118 7.9414 2.055 7.5774 2.3675 7.2649 2.7314 7.0217 3.5722 6.46 4.7426 6.46 7.0833 6.46 9.4241 6.46 10.5945 6.46 11.4353 7.0217 11.7992 7.2649 12.1117 7.5774 12.3549 7.9414 12.9167 8.7822 12.9167 9.9525 12.9167 12.2933 12.9167 14.6341 12.9167 15.8044 12.3549 16.6452 12.1117 17.0092 11.7992 17.3217 11.4353 17.5648 10.5945 18.1267 9.4241 18.1267 7.0833 18.1267 4.7426 18.1267 3.5722 18.1267 2.7314 17.5648 2.3675 17.3217 2.055 17.0092 1.8118 16.6452Z" stroke="currentColor" stroke-linecap="round" stroke-linejoin="round" stroke-width="2"/>
  <path d="M15.624 11.46C16.4404 10.5947 16.8834 9.9877 17.0201 9.3008 17.1044 8.8769 17.1044 8.4406 17.0201 8.0166 16.8253 7.0374 16.0078 6.2203 14.373 4.586 12.7382 2.9518 11.9207 2.1346 10.9412 1.9399 10.5171 1.8556 10.0806 1.8556 9.6565 1.9399 8.9703 2.0763 8.3638 2.5181 7.5 3.3323" stroke="currentColor" stroke-linecap="round" stroke-linejoin="round" stroke-width="2"/>
  <path d="M5 10.0017V10.21M5.4167 10.21C5.4167 10.4401 5.2301 10.6267 5 10.6267 4.7699 10.6267 4.5833 10.4401 4.5833 10.21 4.5833 9.9798 4.7699 9.7933 5 9.7933 5.2301 9.7933 5.4167 9.9798 5.4167 10.21Z" stroke="currentColor" stroke-linecap="round" stroke-linejoin="round" stroke-width="2"/>
  <path d="M9.1667 14.1683V14.3767M9.5833 14.3767C9.5833 14.6067 9.3968 14.7933 9.1667 14.7933 8.9366 14.7933 8.75 14.6067 8.75 14.3767 8.75 14.1465 8.9366 13.96 9.1667 13.96 9.3968 13.96 9.5833 14.1465 9.5833 14.3767Z" stroke="currentColor" stroke-linecap="round" stroke-linejoin="round" stroke-width="2"/>
</svg>
