<svg xmlns="http://www.w3.org/2000/svg" width="20" height="20" viewBox="0 0 20 20" fill="none">
  <path d="M10 17.5C13.1248 17.5 14.6872 17.5 15.7824 16.7043 16.1362 16.4473 16.4473 16.1362 16.7043 15.7824 17.5 14.6872 17.5 13.1248 17.5 10 17.5 6.8752 17.5 5.3128 16.7043 4.2176 16.4473 3.8638 16.1362 3.5528 15.7824 3.2958 14.6872 2.5 13.1248 2.5 10 2.5 6.8752 2.5 5.3128 2.5 4.2176 3.2958 3.8638 3.5528 3.5528 3.8638 3.2958 4.2176 2.5 5.3128 2.5 6.8752 2.5 10 2.5 13.1248 2.5 14.6872 3.2958 15.7824 3.5528 16.1362 3.8638 16.4473 4.2176 16.7043 5.3128 17.5 6.8752 17.5 10 17.5Z" stroke="currentColor" stroke-linecap="round" stroke-linejoin="round" stroke-width="2"/>
  <path d="M6.875 6.6667H6.6667M7.0833 6.6667C7.0833 6.8968 6.8968 7.0833 6.6667 7.0833 6.4366 7.0833 6.25 6.8968 6.25 6.6667 6.25 6.4366 6.4366 6.25 6.6667 6.25 6.8968 6.25 7.0833 6.4366 7.0833 6.6667Z" stroke="currentColor" stroke-linecap="round" stroke-width="2"/>
  <path d="M13.5417 13.3333H13.3333M13.75 13.3333C13.75 13.5634 13.5634 13.75 13.3333 13.75 13.1033 13.75 12.9167 13.5634 12.9167 13.3333 12.9167 13.1033 13.1033 12.9167 13.3333 12.9167 13.5634 12.9167 13.75 13.1033 13.75 13.3333Z" stroke="currentColor" stroke-linecap="round" stroke-width="2"/>
</svg>
