<svg xmlns="http://www.w3.org/2000/svg" width="20" height="20" viewBox="0 0 20 20" fill="none">
  <path d="M7.8452 11.3215C7.357 10.8333 6.5714 10.8333 5 10.8333 3.4286 10.8333 2.643 10.8333 2.1548 11.3215M7.8452 11.3215C8.3333 11.8097 8.3333 12.5953 8.3333 14.1667 8.3333 15.738 8.3333 16.5237 7.8452 17.0118M7.8452 11.3215V11.3215ZM2.1548 11.3215C1.6667 11.8097 1.6667 12.5953 1.6667 14.1667 1.6667 15.738 1.6667 16.5237 2.1548 17.0118M2.1548 11.3215V11.3215ZM2.1548 17.0118C2.643 17.5 3.4286 17.5 5 17.5 6.5714 17.5 7.357 17.5 7.8452 17.0118M2.1548 17.0118V17.0118ZM7.8452 17.0118V17.0118Z" stroke="currentColor" stroke-width="2"/>
  <path d="M12.6848 4.3985C13.9505 5.6641 14.5833 6.297 14.5833 7.0833 14.5833 7.8697 13.9505 8.5025 12.6848 9.7682 11.4192 11.0338 10.7863 11.6667 10 11.6667 9.2136 11.6667 8.5808 11.0338 7.3151 9.7682 6.0495 8.5025 5.4167 7.8697 5.4167 7.0833 5.4167 6.297 6.0495 5.6641 7.3151 4.3985 8.5808 3.1328 9.2136 2.5 10 2.5 10.7864 2.5 11.4192 3.1328 12.6848 4.3985Z" stroke="currentColor" stroke-width="2"/>
  <path d="M17.8452 11.3215C17.357 10.8333 16.5713 10.8333 15 10.8333 13.4287 10.8333 12.643 10.8333 12.1548 11.3215M17.8452 11.3215C18.3333 11.8097 18.3333 12.5953 18.3333 14.1667 18.3333 15.738 18.3333 16.5237 17.8452 17.0118M17.8452 11.3215V11.3215ZM12.1548 11.3215C11.6667 11.8097 11.6667 12.5953 11.6667 14.1667 11.6667 15.738 11.6667 16.5237 12.1548 17.0118M12.1548 11.3215V11.3215ZM12.1548 17.0118C12.643 17.5 13.4287 17.5 15 17.5 16.5713 17.5 17.357 17.5 17.8452 17.0118M12.1548 17.0118V17.0118ZM17.8452 17.0118V17.0118Z" stroke="currentColor" stroke-width="2"/>
  <path d="M10.1042 7.0833H10M10.2083 7.0833C10.2083 7.1984 10.1151 7.2917 10 7.2917 9.8849 7.2917 9.7917 7.1984 9.7917 7.0833 9.7917 6.9683 9.8849 6.875 10 6.875 10.1151 6.875 10.2083 6.9683 10.2083 7.0833Z" stroke="currentColor" stroke-linecap="round" stroke-width="2"/>
</svg>
