<svg xmlns="http://www.w3.org/2000/svg" width="20" height="20" viewBox="0 0 20 20" fill="none">
  <path d="M10 17.5C13.1248 17.5 14.6872 17.5 15.7824 16.7043 16.1362 16.4473 16.4473 16.1362 16.7043 15.7824 17.5 14.6872 17.5 13.1248 17.5 10 17.5 6.8752 17.5 5.3128 16.7043 4.2176 16.4473 3.8638 16.1362 3.5528 15.7824 3.2958 14.6872 2.5 13.1248 2.5 10 2.5 6.8752 2.5 5.3128 2.5 4.2176 3.2958 3.8638 3.5528 3.5528 3.8638 3.2958 4.2176 2.5 5.3128 2.5 6.8752 2.5 10 2.5 13.1248 2.5 14.6872 3.2958 15.7824 3.5528 16.1362 3.8638 16.4473 4.2176 16.7043 5.3128 17.5 6.8752 17.5 10 17.5Z" stroke="currentColor" stroke-linecap="round" stroke-linejoin="round" stroke-width="2"/>
  <path d="M7.7083 5.8333H7.5M7.9167 5.8333C7.9167 6.0635 7.7301 6.25 7.5 6.25 7.2699 6.25 7.0833 6.0635 7.0833 5.8333 7.0833 5.6032 7.2699 5.4167 7.5 5.4167 7.7301 5.4167 7.9167 5.6032 7.9167 5.8333Z" stroke="currentColor" stroke-linecap="round" stroke-width="2"/>
  <path d="M7.7083 14.1667H7.5M7.9167 14.1667C7.9167 14.3968 7.7301 14.5833 7.5 14.5833 7.2699 14.5833 7.0833 14.3968 7.0833 14.1667 7.0833 13.9366 7.2699 13.75 7.5 13.75 7.7301 13.75 7.9167 13.9366 7.9167 14.1667Z" stroke="currentColor" stroke-linecap="round" stroke-width="2"/>
  <path d="M12.7083 14.1667H12.5M12.9167 14.1667C12.9167 14.3968 12.7301 14.5833 12.5 14.5833 12.2699 14.5833 12.0833 14.3968 12.0833 14.1667 12.0833 13.9366 12.2699 13.75 12.5 13.75 12.7301 13.75 12.9167 13.9366 12.9167 14.1667Z" stroke="currentColor" stroke-linecap="round" stroke-width="2"/>
  <path d="M12.7083 10H12.5M12.9167 10C12.9167 10.2301 12.7301 10.4167 12.5 10.4167 12.2699 10.4167 12.0833 10.2301 12.0833 10 12.0833 9.7699 12.2699 9.5833 12.5 9.5833 12.7301 9.5833 12.9167 9.7699 12.9167 10Z" stroke="currentColor" stroke-linecap="round" stroke-width="2"/>
  <path d="M7.7083 10H7.5M7.9167 10C7.9167 10.2301 7.7301 10.4167 7.5 10.4167 7.2699 10.4167 7.0833 10.2301 7.0833 10 7.0833 9.7699 7.2699 9.5833 7.5 9.5833 7.7301 9.5833 7.9167 9.7699 7.9167 10Z" stroke="currentColor" stroke-linecap="round" stroke-width="2"/>
  <path d="M12.7083 5.8333H12.5M12.9167 5.8333C12.9167 6.0635 12.7301 6.25 12.5 6.25 12.2699 6.25 12.0833 6.0635 12.0833 5.8333 12.0833 5.6032 12.2699 5.4167 12.5 5.4167 12.7301 5.4167 12.9167 5.6032 12.9167 5.8333Z" stroke="currentColor" stroke-linecap="round" stroke-width="2"/>
</svg>
