<svg xmlns="http://www.w3.org/2000/svg" width="20" height="20" viewBox="0 0 20 20" fill="none">
  <path d="M4.1667 15.8334V17.5001M15.8333 15.8334V17.5001" stroke="currentColor" stroke-linecap="round" stroke-linejoin="round" stroke-width="2"/>
  <path d="M13.3333 5H6.6667C4.3096 5 3.1311 5 2.3989 5.7322 1.6667 6.4645 1.6667 7.643 1.6667 10V10.8333C1.6667 13.1903 1.6667 14.3688 2.3989 15.1011 3.1311 15.8333 4.3096 15.8333 6.6667 15.8333H13.3333C15.6903 15.8333 16.8688 15.8333 17.6011 15.1011 18.3333 14.3688 18.3333 13.1903 18.3333 10.8333V10C18.3333 7.643 18.3333 6.4645 17.6011 5.7322 16.8688 5 15.6903 5 13.3333 5Z" stroke="currentColor" stroke-linecap="round" stroke-linejoin="round" stroke-width="2"/>
  <path d="M5.8333 5L5.9069 4.7792C6.2736 3.6792 6.4569 3.1292 6.8934 2.8146 7.3299 2.5 7.9097 2.5 9.0692 2.5H10.9308C12.0903 2.5 12.6701 2.5 13.1066 2.8146 13.5431 3.1292 13.7264 3.6792 14.0931 4.7792L14.1667 5" stroke="currentColor" stroke-linecap="round" stroke-linejoin="round" stroke-width="2"/>
  <path d="M15.8333 11.4583V9.375C15.8333 8.7997 15.367 8.3333 14.7917 8.3333 14.2163 8.3333 13.75 8.7997 13.75 9.375V11.4583C13.75 12.0337 14.2163 12.5 14.7917 12.5 15.367 12.5 15.8333 12.0337 15.8333 11.4583Z" stroke="currentColor" stroke-linecap="round" stroke-linejoin="round" stroke-width="2"/>
  <path d="M11.25 11.4583V9.375C11.25 8.7997 10.7837 8.3333 10.2083 8.3333 9.633 8.3333 9.1667 8.7997 9.1667 9.375V11.4583C9.1667 12.0337 9.633 12.5 10.2083 12.5 10.7837 12.5 11.25 12.0336 11.25 11.4583Z" stroke="currentColor" stroke-linecap="round" stroke-linejoin="round" stroke-width="2"/>
  <path d="M4.1667 12.5V8.3333" stroke="currentColor" stroke-linecap="round" stroke-linejoin="round" stroke-width="2"/>
  <path d="M6.7087 9.167H6.667M6.709 11.667H6.6673M6.7503 9.167C6.7503 9.213 6.713 9.2503 6.667 9.2503 6.621 9.2503 6.5837 9.213 6.5837 9.167 6.5837 9.121 6.621 9.0837 6.667 9.0837 6.713 9.0837 6.7503 9.121 6.7503 9.167ZM6.7507 11.667C6.7507 11.713 6.7133 11.7503 6.6673 11.7503 6.6213 11.7503 6.584 11.713 6.584 11.667 6.584 11.621 6.6213 11.5837 6.6673 11.5837 6.7133 11.5837 6.7507 11.621 6.7507 11.667Z" stroke="currentColor" stroke-linecap="round" stroke-linejoin="round" stroke-width="2"/>
</svg>
