<svg xmlns="http://www.w3.org/2000/svg" width="20" height="20" viewBox="0 0 20 20" fill="none">
  <path d="M11.25 7.0833L18.3333 2.5" stroke="currentColor" stroke-linecap="round" stroke-linejoin="round" stroke-width="2"/>
  <path d="M6.6667 14.1667L18.3333 7.5" stroke="currentColor" stroke-linecap="round" stroke-linejoin="round" stroke-width="2"/>
  <path d="M12.9604 10.5813C12.7489 10.0573 12.4577 9.5508 12.1012 9.0857 10.4836 7.1456 10.0172 5.6686 10.0143 5 9.9652 6.3394 8.3322 7.0645 7.51 5.8333 6.6878 7.0645 5.0548 6.3394 5.0057 5 5.0028 5.6686 4.5364 7.1456 2.9188 9.0857 2.1346 10.1087 1.6667 11.3321 1.6667 12.5 1.6667 15.2614 4.2828 17.5 7.51 17.5 10.5732 17.5 13.0859 15.4832 13.3333 12.9167" stroke="currentColor" stroke-linecap="round" stroke-linejoin="round" stroke-width="2"/>
  <path d="M6.25 8.75L5.8333 9.5833M8.75 8.75L9.1667 9.5833" stroke="currentColor" stroke-linecap="round" stroke-linejoin="round" stroke-width="2"/>
</svg>
