<svg xmlns="http://www.w3.org/2000/svg" width="20" height="20" viewBox="0 0 20 20" fill="none">
  <path d="M6.25 9.5833L5.8333 10.4167M8.75 9.5833L9.1667 10.4167" stroke="currentColor" stroke-linecap="round" stroke-linejoin="round" stroke-width="2"/>
  <path d="M13.75 5.4167L14.1667 6.25" stroke="currentColor" stroke-linecap="round" stroke-linejoin="round" stroke-width="2"/>
  <path d="M7.5 18.3333C10.7217 18.3333 13.3333 16.0948 13.3333 13.3333 13.3333 12.1654 12.8662 10.942 12.0833 9.919 10.4685 7.979 10.0029 6.502 10 5.8333 9.951 7.1727 8.3208 7.8978 7.5 6.6667 6.6793 7.8978 5.049 7.1727 5 5.8333 4.9971 6.502 4.5315 7.979 2.9167 9.919 2.1338 10.942 1.6667 12.1654 1.6667 13.3333 1.6667 16.0948 4.2783 18.3333 7.5 18.3333Z" stroke="currentColor" stroke-linejoin="round" stroke-width="2"/>
  <path d="M9.1667 4.1802C9.862 3.0193 10.0917 2.1408 10.0937 1.6667 10.1422 3.0133 11.7541 3.7423 12.5656 2.5045 13.3771 3.7423 14.989 3.0133 15.0375 1.6667 15.0403 2.3389 15.5008 3.8239 17.0974 5.7744 17.8714 6.803 18.3333 8.0331 18.3333 9.2073 18.3333 10.9156 17.3557 12.4249 15.8614 13.3333" stroke="currentColor" stroke-linecap="round" stroke-linejoin="round" stroke-width="2"/>
</svg>
