<svg xmlns="http://www.w3.org/2000/svg" width="20" height="20" viewBox="0 0 20 20" fill="none">
  <path d="M15.4167 14.865C16.2754 14.7389 16.8856 14.4951 17.357 14.0237 18.3333 13.0474 18.3333 11.476 18.3333 8.3333 18.3333 5.1906 18.3333 3.6193 17.357 2.643 16.3808 1.6667 14.8093 1.6667 11.6667 1.6667H8.3333C5.1906 1.6667 3.6193 1.6667 2.643 2.643 1.6667 3.6193 1.6667 5.1906 1.6667 8.3333 1.6667 11.476 1.6667 13.0474 2.643 14.0237 3.3165 14.6972 4.2731 14.9061 5.8333 14.9708" stroke="currentColor" stroke-linecap="round" stroke-width="2"/>
  <path d="M14.1667 5.8333L5.8333 5.8333" stroke="currentColor" stroke-linecap="round" stroke-linejoin="round" stroke-width="2"/>
  <path d="M12.0833 12.0833C12.0833 13.2339 11.1506 14.1667 10 14.1667 8.8494 14.1667 7.9167 13.2339 7.9167 12.0833 7.9167 10.9328 8.8494 10 10 10 11.1506 10 12.0833 10.9328 12.0833 12.0833Z" stroke="currentColor" stroke-width="2"/>
  <path d="M7.9167 12.0833C7.9167 15.4716 9.3518 17.3922 10 18.3333L11.25 15.8333 12.7083 16.6667 14.1667 17.5C13.5544 16.9073 12.9215 15.0393 12.9215 15.0393" stroke="currentColor" stroke-linecap="round" stroke-linejoin="round" stroke-width="2"/>
</svg>
