<svg xmlns="http://www.w3.org/2000/svg" width="20" height="20" viewBox="0 0 20 20" fill="none">
  <path d="M5.8834 4.7326C6.405 4.0445 6.6658 3.7005 7.0223 3.5169 7.3788 3.3333 7.7861 3.3333 8.6009 3.3333H13.3333C14.119 3.3333 14.5118 3.3333 14.7559 3.5774 15 3.8215 15 4.2143 15 5V7.5C15 8.2857 15 8.6785 14.7559 8.9226 14.5118 9.1667 14.119 9.1667 13.3333 9.1667H8.6009C7.7861 9.1667 7.3788 9.1667 7.0223 8.9831 6.6658 8.7995 6.405 8.4555 5.8834 7.7674L5.6768 7.4948C5.2256 6.8996 5 6.602 5 6.25 5 5.898 5.2256 5.6004 5.6768 5.0052L5.8834 4.7326Z" stroke="currentColor" stroke-linecap="round" stroke-linejoin="round" stroke-width="2"/>
  <path d="M5.8834 4.7326C6.405 4.0445 6.6658 3.7005 7.0223 3.5169 7.3788 3.3333 7.7861 3.3333 8.6009 3.3333H13.3333C14.119 3.3333 14.5118 3.3333 14.7559 3.5774 15 3.8215 15 4.2143 15 5V7.5C15 8.2857 15 8.6785 14.7559 8.9226 14.5118 9.1667 14.119 9.1667 13.3333 9.1667H8.6009C7.7861 9.1667 7.3788 9.1667 7.0223 8.9831 6.6658 8.7995 6.405 8.4555 5.8834 7.7674L5.6768 7.4948C5.2256 6.8996 5 6.602 5 6.25 5 5.898 5.2256 5.6004 5.6768 5.0052L5.8834 4.7326Z" stroke="currentColor" stroke-linecap="round" stroke-linejoin="round" stroke-width="2"/>
  <path d="M11.6667 17.5L11.6667 9.1667" stroke="currentColor" stroke-linecap="round" stroke-linejoin="round" stroke-width="2"/>
  <path d="M11.6667 3.3333L11.6667 2.5" stroke="currentColor" stroke-linecap="round" stroke-linejoin="round" stroke-width="2"/>
  <path d="M8.3333 17.5H15" stroke="currentColor" stroke-linecap="round" stroke-linejoin="round" stroke-width="2"/>
</svg>
