<svg xmlns="http://www.w3.org/2000/svg" width="20" height="20" viewBox="0 0 20 20" fill="none">
  <path d="M14.043 4.7326C13.478 4.0445 13.1954 3.7005 12.8093 3.5169 12.423 3.3333 11.9817 3.3333 11.0991 3.3333H6.6667C5.881 3.3333 5.4882 3.3333 5.2441 3.5774 5 3.8215 5 4.2143 5 5V7.5C5 8.2857 5 8.6785 5.2441 8.9226 5.4882 9.1667 5.881 9.1667 6.6667 9.1667H11.0991C11.9817 9.1667 12.423 9.1667 12.8093 8.9831 13.1954 8.7995 13.478 8.4555 14.043 7.7674L14.2668 7.4948C14.7556 6.8996 15 6.602 15 6.25 15 5.898 14.7556 5.6004 14.2668 5.0052L14.043 4.7326Z" stroke="currentColor" stroke-linecap="round" stroke-linejoin="round" stroke-width="2"/>
  <path d="M8.3333 9.1667L8.3333 17.5" stroke="currentColor" stroke-linecap="round" stroke-linejoin="round" stroke-width="2"/>
  <path d="M8.3333 2.5L8.3333 3.3333" stroke="currentColor" stroke-linecap="round" stroke-linejoin="round" stroke-width="2"/>
  <path d="M5 17.5H11.6667" stroke="currentColor" stroke-linecap="round" stroke-linejoin="round" stroke-width="2"/>
</svg>
