<svg xmlns="http://www.w3.org/2000/svg" width="20" height="20" viewBox="0 0 20 20" fill="none">
  <path d="M15.1634 2.6662C14.7679 2.1747 14.5702 1.9289 14.2998 1.7978 14.0294 1.6667 13.7205 1.6667 13.1027 1.6667H11.3413C10.709 1.6667 10.3928 1.6667 10.1964 1.8701 10 2.0735 10 2.4008 10 3.0556V5.8333H13.1027C13.7205 5.8333 14.0294 5.8333 14.2998 5.7022 14.5702 5.5711 14.7679 5.3253 15.1634 4.8338L15.3201 4.6391C15.6623 4.214 15.8333 4.0014 15.8333 3.75 15.8333 3.4986 15.6623 3.286 15.3201 2.8609L15.1634 2.6662Z" stroke="currentColor" stroke-linecap="round" stroke-linejoin="round" stroke-width="2"/>
  <path d="M15.1634 10.1662C14.7679 9.6747 14.5702 9.4289 14.2998 9.2978 14.0294 9.1667 13.7205 9.1667 13.1027 9.1667H10V13.3333H13.1027C13.7205 13.3333 14.0294 13.3333 14.2998 13.2022 14.5702 13.0711 14.7679 12.8253 15.1634 12.3338L15.3201 12.1392C15.6623 11.714 15.8333 11.5014 15.8333 11.25 15.8333 10.9986 15.6623 10.786 15.3201 10.3608L15.1634 10.1662Z" stroke="currentColor" stroke-linecap="round" stroke-linejoin="round" stroke-width="2"/>
  <path d="M4.8366 6.8328C5.2321 6.3413 5.4299 6.0956 5.7002 5.9645 5.9706 5.8333 6.2795 5.8333 6.8973 5.8333H10V10H6.8973C6.2795 10 5.9706 10 5.7002 9.8688 5.4299 9.7378 5.2321 9.492 4.8366 9.0005L4.6799 8.8058C4.3377 8.3807 4.1667 8.1681 4.1667 7.9167 4.1667 7.6652 4.3377 7.4527 4.6799 7.0275L4.8366 6.8328Z" stroke="currentColor" stroke-linecap="round" stroke-linejoin="round" stroke-width="2"/>
  <path d="M10 18.3333L10 2.5" stroke="currentColor" stroke-linecap="round" stroke-linejoin="round" stroke-width="2"/>
  <path d="M7.5 18.3333H12.5" stroke="currentColor" stroke-linecap="round" stroke-linejoin="round" stroke-width="2"/>
</svg>
