<svg xmlns="http://www.w3.org/2000/svg" width="20" height="20" viewBox="0 0 20 20" fill="none">
  <path d="M4.0989 3.6994C4.551 3.1096 4.777 2.8147 5.086 2.6574 5.3949 2.5 5.748 2.5 6.4541 2.5H8.4672C9.1898 2.5 9.551 2.5 9.7755 2.7441 10 2.9882 10 3.381 10 4.1667V7.5H6.4541C5.748 7.5 5.3949 7.5 5.086 7.3427 4.777 7.1853 4.551 6.8904 4.0989 6.3006L3.9199 6.067C3.5288 5.5568 3.3333 5.3017 3.3333 5 3.3333 4.6983 3.5288 4.4432 3.9199 3.933L4.0989 3.6994Z" stroke="currentColor" stroke-linecap="round" stroke-linejoin="round" stroke-width="2"/>
  <path d="M15.9011 7.8661C15.449 7.2763 15.223 6.9814 14.914 6.824 14.6051 6.6667 14.252 6.6667 13.5459 6.6667H10V11.6667H13.5459C14.252 11.6667 14.6051 11.6667 14.914 11.5093 15.223 11.352 15.449 11.0571 15.9011 10.4673L16.0802 10.2337C16.4712 9.7235 16.6667 9.4683 16.6667 9.1667 16.6667 8.865 16.4712 8.6098 16.0802 8.0997L15.9011 7.8661Z" stroke="currentColor" stroke-linecap="round" stroke-linejoin="round" stroke-width="2"/>
  <path d="M10 17.5L10 3.3333" stroke="currentColor" stroke-linecap="round" stroke-linejoin="round" stroke-width="2"/>
  <path d="M7.5 17.5H12.5" stroke="currentColor" stroke-linecap="round" stroke-linejoin="round" stroke-width="2"/>
</svg>
