<svg xmlns="http://www.w3.org/2000/svg" width="20" height="20" viewBox="0 0 20 20" fill="none">
  <path d="M18.3333 10.0008C18.3333 14.603 14.6024 18.3342 10 18.3342 5.3976 18.3342 1.6667 14.603 1.6667 10.0008 1.6667 5.3984 5.3976 1.6675 10 1.6675 14.6024 1.6675 18.3333 5.3984 18.3333 10.0008Z" stroke="currentColor" stroke-linecap="round" stroke-linejoin="round" stroke-width="2"/>
  <path d="M13.0753 7.5008L14.3008 8.92C14.9568 9.6796 14.3976 10.8333 13.3733 10.8338L12.5 10.8342" stroke="currentColor" stroke-linecap="round" stroke-linejoin="round" stroke-width="2"/>
  <path d="M7.5 6.6675V10.8325" stroke="currentColor" stroke-linecap="round" stroke-linejoin="round" stroke-width="2"/>
  <path d="M7.9167 14.5839H9.1667M7.9167 14.5839H6.6667M7.9167 14.5839C7.6389 14.3061 7.2499 13.5838 7.9167 12.9173 8.444 12.3901 9.1667 12.9179 9.1667 12.9179" stroke="currentColor" stroke-linecap="round" stroke-linejoin="round" stroke-width="2"/>
  <path d="M10.1042 10.8342H10M10.2083 10.8342C10.2083 10.9492 10.1151 11.0425 10 11.0425 9.8849 11.0425 9.7917 10.9492 9.7917 10.8342 9.7917 10.7191 9.8849 10.6258 10 10.6258 10.1151 10.6258 10.2083 10.7191 10.2083 10.8342Z" stroke="currentColor" stroke-linecap="round" stroke-width="2"/>
</svg>
