<svg xmlns="http://www.w3.org/2000/svg" width="20" height="20" viewBox="0 0 20 20" fill="none">
  <path d="M16.25 15H15.1475C14.8742 15 14.7377 15 14.6318 14.9283 14.526 14.8567 14.4753 14.7298 14.3738 14.4762L13.9595 13.4405C13.8581 13.1868 13.8073 13.0599 13.7015 12.9883 13.5957 12.9167 13.4591 12.9167 13.1858 12.9167H11.25C10.8572 12.9167 10.6608 12.9167 10.5387 12.7947 10.4167 12.6726 10.4167 12.4762 10.4167 12.0833V8.75M10.4167 6.6667V8.75M10.4167 8.75H13.6574" stroke="currentColor" stroke-linecap="round" stroke-linejoin="round" stroke-width="2"/>
  <path d="M10.4167 5C9.4962 5 8.75 4.2538 8.75 3.3333 8.75 2.4129 9.4962 1.6667 10.4167 1.6667 11.3372 1.6667 12.0833 2.4129 12.0833 3.3333 12.0833 4.2538 11.3372 5 10.4167 5Z" stroke="currentColor" stroke-linecap="round" stroke-linejoin="round" stroke-width="2"/>
  <path d="M7.965 8.3333C5.5728 8.7328 3.75 10.8037 3.75 13.2985 3.75 16.0792 6.0145 18.3333 8.808 18.3333 10.5003 18.3333 11.9985 17.506 12.9167 16.2355" stroke="currentColor" stroke-linecap="round" stroke-linejoin="round" stroke-width="2"/>
</svg>
