<svg xmlns="http://www.w3.org/2000/svg" width="20" height="20" viewBox="0 0 20 20" fill="none">
  <path d="M9.5833 8.3333L7.9167 7.5 5.8333 10" stroke="currentColor" stroke-linecap="round" stroke-linejoin="round" stroke-width="2"/>
  <path d="M11.6667 5C10.7462 5 10 4.2538 10 3.3333 10 2.4129 10.7462 1.6667 11.6667 1.6667 12.5872 1.6667 13.3333 2.4129 13.3333 3.3333 13.3333 4.2538 12.5872 5 11.6667 5Z" stroke="currentColor" stroke-linecap="round" stroke-linejoin="round" stroke-width="2"/>
  <path d="M12.9167 16.2355C11.9985 17.506 10.5003 18.3333 8.808 18.3333 6.0145 18.3333 3.75 16.0792 3.75 13.2985 3.75 12.5691 3.8863 11.8758 4.1667 11.25" stroke="currentColor" stroke-linecap="round" stroke-linejoin="round" stroke-width="2"/>
  <path d="M10.5411 6.6667L9.9138 8.2051C9.2753 9.7707 8.9562 10.5534 9.3193 11.1101 9.6825 11.6667 10.5124 11.6667 12.1723 11.6667 12.7512 11.6667 13.3095 11.516 13.6316 12.0801L16.25 16.6667" stroke="currentColor" stroke-linecap="round" stroke-linejoin="round" stroke-width="2"/>
</svg>
