<svg xmlns="http://www.w3.org/2000/svg" width="20" height="20" viewBox="0 0 20 20" fill="none">
  <path d="M14.3688 5.2022L11.4226 2.2559C11.0453 1.8786 10.5336 1.6667 10 1.6667 9.4664 1.6667 8.9547 1.8786 8.5774 2.2559L5.6311 5.2022C4.9086 5.9248 4.5473 6.2861 4.357 6.7455 4.1667 7.2049 4.1667 7.7159 4.1667 8.7378V13.3333C4.1667 15.6903 4.1667 16.8688 4.8989 17.6011 5.6311 18.3333 6.8096 18.3333 9.1667 18.3333H10.8333C13.1903 18.3333 14.3688 18.3333 15.1011 17.6011 15.8333 16.8688 15.8333 15.6903 15.8333 13.3333V8.7378C15.8333 7.7159 15.8333 7.2049 15.643 6.7455 15.4527 6.2861 15.0914 5.9248 14.3688 5.2022Z" stroke="currentColor" stroke-linecap="round" stroke-linejoin="round" stroke-width="2"/>
  <path d="M10.2083 5.8333H10M10.4167 5.8333C10.4167 6.0635 10.2301 6.25 10 6.25 9.7699 6.25 9.5833 6.0635 9.5833 5.8333 9.5833 5.6032 9.7699 5.4167 10 5.4167 10.2301 5.4167 10.4167 5.6032 10.4167 5.8333Z" stroke="currentColor" stroke-linecap="round" stroke-linejoin="round" stroke-width="2"/>
  <path d="M12.0833 10.8333L7.9167 15" stroke="currentColor" stroke-linecap="round" stroke-linejoin="round" stroke-width="2"/>
  <path d="M8.2292 11.0417H8.125M8.3333 11.0417C8.3333 11.1568 8.2401 11.25 8.125 11.25 8.0099 11.25 7.9167 11.1568 7.9167 11.0417 7.9167 10.9266 8.0099 10.8333 8.125 10.8333 8.2401 10.8333 8.3333 10.9266 8.3333 11.0417Z" stroke="currentColor" stroke-linecap="round" stroke-linejoin="round" stroke-width="2"/>
  <path d="M11.9792 14.7917H11.875M12.0833 14.7917C12.0833 14.9068 11.9901 15 11.875 15 11.7599 15 11.6667 14.9068 11.6667 14.7917 11.6667 14.6766 11.7599 14.5833 11.875 14.5833 11.9901 14.5833 12.0833 14.6766 12.0833 14.7917Z" stroke="currentColor" stroke-linecap="round" stroke-linejoin="round" stroke-width="2"/>
</svg>
