<svg xmlns="http://www.w3.org/2000/svg" width="20" height="20" viewBox="0 0 20 20" fill="none">
  <path d="M10.8333 13.75L10.8333 7.9167" stroke="currentColor" stroke-linecap="round" stroke-linejoin="round" stroke-width="2"/>
  <path d="M7.8494 1.6667H4.9577C3.4063 1.6667 2.6306 1.6667 2.1486 2.1486 1.6667 2.6306 1.6667 3.4063 1.6667 4.9577V7.8494C1.6667 8.8582 1.6667 9.3628 1.8546 9.8163 2.0424 10.2699 2.3991 10.6266 3.1125 11.34L7.6376 15.8651C9.2832 17.5106 10.1058 18.3333 11.1282 18.3333 12.1507 18.3333 12.9733 17.5106 14.6188 15.8651L15.8651 14.6188C17.5106 12.9733 18.3333 12.1507 18.3333 11.1282 18.3333 10.1058 17.5106 9.2832 15.8651 7.6376L11.34 3.1125C10.6266 2.3991 10.2699 2.0424 9.8163 1.8546 9.3628 1.6667 8.8582 1.6667 7.8494 1.6667Z" stroke="currentColor" stroke-linejoin="round" stroke-width="2"/>
  <path d="M14.0625 10.4167H13.9583M14.1667 10.4167C14.1667 10.5318 14.0734 10.625 13.9583 10.625 13.8432 10.625 13.75 10.5318 13.75 10.4167 13.75 10.3016 13.8432 10.2083 13.9583 10.2083 14.0734 10.2083 14.1667 10.3016 14.1667 10.4167Z" stroke="currentColor" stroke-linecap="round" stroke-linejoin="round" stroke-width="2"/>
  <path d="M7.8125 10.4167H7.7083M7.9167 10.4167C7.9167 10.5318 7.8234 10.625 7.7083 10.625 7.5933 10.625 7.5 10.5318 7.5 10.4167 7.5 10.3016 7.5933 10.2083 7.7083 10.2083 7.8234 10.2083 7.9167 10.3016 7.9167 10.4167Z" stroke="currentColor" stroke-linecap="round" stroke-linejoin="round" stroke-width="2"/>
  <path d="M5.625 5.4167H5.4167M5.8333 5.4167C5.8333 5.6468 5.6468 5.8333 5.4167 5.8333 5.1866 5.8333 5 5.6468 5 5.4167 5 5.1866 5.1866 5 5.4167 5 5.6468 5 5.8333 5.1866 5.8333 5.4167Z" stroke="currentColor" stroke-linecap="round" stroke-linejoin="round" stroke-width="2"/>
</svg>
