<svg xmlns="http://www.w3.org/2000/svg" width="20" height="20" viewBox="0 0 20 20" fill="none">
  <path d="M12.8117 3.2113C12.2199 2.283 11.1824 1.6667 10 1.6667 8.8174 1.6667 7.7792 2.2828 7.1875 3.2113 6.113 2.9737 4.944 3.2715 4.1081 4.1073 3.2721 4.9432 2.9735 6.1128 3.2113 7.1875 2.2828 7.7792 1.6667 8.8174 1.6667 10 1.6667 11.1824 2.283 12.2199 3.2113 12.8117 2.9731 13.8866 3.2719 15.0565 4.1081 15.8928 4.944 16.7286 6.113 17.0264 7.1875 16.7888 7.7792 17.7172 8.8174 18.3333 10 18.3333 11.1824 18.3333 12.2199 17.717 12.8117 16.7888 13.8864 17.0267 15.0558 16.7288 15.8919 15.8928 16.7282 15.0565 17.0261 13.8867 16.7879 12.8117 17.7165 12.22 18.3333 11.1827 18.3333 10 18.3333 8.8172 17.7167 7.7792 16.7879 7.1875 17.0258 6.1128 16.7279 4.9433 15.8919 4.1073 15.0558 3.2713 13.8864 2.9733 12.8117 3.2113Z" stroke="currentColor" stroke-linecap="round" stroke-linejoin="round" stroke-width="2"/>
  <path d="M7.5 12.5L12.5 7.5" stroke="currentColor" stroke-linecap="round" stroke-linejoin="round" stroke-width="2"/>
  <path d="M7.8125 7.7083H7.7083M7.9167 7.7083C7.9167 7.8234 7.8234 7.9167 7.7083 7.9167 7.5933 7.9167 7.5 7.8234 7.5 7.7083 7.5 7.5933 7.5933 7.5 7.7083 7.5 7.8234 7.5 7.9167 7.5933 7.9167 7.7083Z" stroke="currentColor" stroke-linecap="round" stroke-linejoin="round" stroke-width="2"/>
  <path d="M12.3958 12.2917H12.2917M12.5 12.2917C12.5 12.4068 12.4068 12.5 12.2917 12.5 12.1766 12.5 12.0833 12.4068 12.0833 12.2917 12.0833 12.1766 12.1766 12.0833 12.2917 12.0833 12.4068 12.0833 12.5 12.1766 12.5 12.2917Z" stroke="currentColor" stroke-linecap="round" stroke-linejoin="round" stroke-width="2"/>
</svg>
