<svg xmlns="http://www.w3.org/2000/svg" width="20" height="20" viewBox="0 0 20 20" fill="none">
  <path d="M12.9167 14.5833C13.75 15.8333 14.4444 16.3889 15 16.6667 16.1111 16.3889 18.3333 15.1667 18.3333 12.5 18.3333 9.8333 17.2222 6.1111 16.6667 4.5833 15 3.5833 13.1944 3.3333 12.5 3.3333L11.8317 4.6699C11.1779 4.4059 10.3382 4.3787 10 4.398 9.6618 4.3787 8.8221 4.4059 8.1683 4.6699L7.5 3.3333C6.8056 3.3333 5 3.5833 3.3333 4.5833 2.7778 6.1111 1.6667 9.8333 1.6667 12.5 1.6667 15.1667 3.8889 16.3889 5 16.6667 5.5556 16.3889 6.25 15.8333 7.0833 14.5833" stroke="currentColor" stroke-linecap="round" stroke-linejoin="round" stroke-width="2"/>
  <path d="M14.471 9.5833C14.471 10.5038 13.8181 11.25 13.0127 11.25 12.2073 11.25 11.5543 10.5038 11.5543 9.5833 11.5543 8.6628 12.2073 7.9167 13.0127 7.9167 13.8181 7.9167 14.471 8.6628 14.471 9.5833Z" stroke="currentColor" stroke-linecap="round" stroke-linejoin="round" stroke-width="2"/>
  <path d="M8.3333 9.5833C8.3333 10.5038 7.6804 11.25 6.875 11.25 6.0696 11.25 5.4167 10.5038 5.4167 9.5833 5.4167 8.6628 6.0696 7.9167 6.875 7.9167 7.6804 7.9167 8.3333 8.6628 8.3333 9.5833Z" stroke="currentColor" stroke-linecap="round" stroke-linejoin="round" stroke-width="2"/>
  <path d="M14.5833 13.75C13.6685 14.4972 11.9585 15 10 15 8.0415 15 6.3315 14.4972 5.4167 13.75" stroke="currentColor" stroke-linecap="round" stroke-linejoin="round" stroke-width="2"/>
</svg>
