<svg xmlns="http://www.w3.org/2000/svg" width="20" height="20" viewBox="0 0 20 20" fill="none">
  <path d="M12.902 3.361C12.3297 2.3497 11.245 1.6667 10 1.6667 8.7549 1.6667 7.6695 2.3495 7.0972 3.361 6.9562 3.3428 6.8126 3.3333 6.6667 3.3333 4.8257 3.3333 3.3333 4.8257 3.3333 6.6667 3.3333 6.8126 3.3428 6.9562 3.361 7.0972 2.3495 7.6695 1.6667 8.7549 1.6667 10 1.6667 11.245 2.3497 12.3297 3.361 12.902 3.3428 13.0433 3.3333 13.1872 3.3333 13.3333 3.3333 15.1743 4.8257 16.6667 6.6667 16.6667 6.8126 16.6667 6.9562 16.6563 7.0972 16.6382 7.6694 17.65 8.7546 18.3333 10 18.3333 11.2453 18.3333 12.3298 17.6498 12.902 16.6382 13.0433 16.6564 13.1872 16.6667 13.3333 16.6667 15.1743 16.6667 16.6667 15.1743 16.6667 13.3333 16.6667 13.1872 16.6564 13.0433 16.6382 12.902 17.6498 12.3298 18.3333 11.2453 18.3333 10 18.3333 8.7546 17.65 7.6694 16.6382 7.0972 16.6563 6.9562 16.6667 6.8126 16.6667 6.6667 16.6667 4.8257 15.1743 3.3333 13.3333 3.3333 13.1872 3.3333 13.0433 3.3428 12.902 3.361Z" stroke="currentColor" stroke-linecap="round" stroke-linejoin="round" stroke-width="2"/>
  <path d="M12.5 7.5L7.5 12.5" stroke="currentColor" stroke-linecap="round" stroke-linejoin="round" stroke-width="2"/>
  <path d="M7.8125 7.7083H7.7083M7.9167 7.7083C7.9167 7.8234 7.8234 7.9167 7.7083 7.9167 7.5933 7.9167 7.5 7.8234 7.5 7.7083 7.5 7.5933 7.5933 7.5 7.7083 7.5 7.8234 7.5 7.9167 7.5933 7.9167 7.7083Z" stroke="currentColor" stroke-linecap="round" stroke-linejoin="round" stroke-width="2"/>
  <path d="M12.3958 12.2917H12.2917M12.5 12.2917C12.5 12.4068 12.4068 12.5 12.2917 12.5 12.1766 12.5 12.0833 12.4068 12.0833 12.2917 12.0833 12.1766 12.1766 12.0833 12.2917 12.0833 12.4068 12.0833 12.5 12.1766 12.5 12.2917Z" stroke="currentColor" stroke-linecap="round" stroke-linejoin="round" stroke-width="2"/>
</svg>
