<svg xmlns="http://www.w3.org/2000/svg" width="20" height="20" viewBox="0 0 20 20" fill="none">
  <path d="M18.3333 10C18.3333 5.3976 14.6023 1.6667 10 1.6667 5.3976 1.6667 1.6667 5.3976 1.6667 10 1.6667 14.6023 5.3976 18.3333 10 18.3333 14.6023 18.3333 18.3333 14.6023 18.3333 10Z" stroke="currentColor" stroke-linecap="round" stroke-linejoin="round" stroke-width="2"/>
  <path d="M10.3345 6.915L12.7678 6.1039C13.5062 5.8577 13.8756 5.7346 14.0705 5.9295 14.2654 6.1245 14.1423 6.4937 13.8961 7.2323L13.085 9.6655C12.6655 10.924 12.4558 11.5533 12.0045 12.0045 11.5533 12.4558 10.924 12.6655 9.6655 13.085L7.2323 13.8961C6.4937 14.1423 6.1245 14.2654 5.9295 14.0705 5.7346 13.8756 5.8577 13.5062 6.1039 12.7678L6.915 10.3345C7.3345 9.076 7.5442 8.4468 7.9955 7.9955 8.4468 7.5442 9.076 7.3345 10.3345 6.915Z" stroke="currentColor" stroke-linecap="round" stroke-linejoin="round" stroke-width="2"/>
  <path d="M10.1042 10H10M10.2083 10C10.2083 10.1151 10.1151 10.2083 10 10.2083 9.8849 10.2083 9.7917 10.1151 9.7917 10 9.7917 9.8849 9.8849 9.7917 10 9.7917 10.1151 9.7917 10.2083 9.8849 10.2083 10Z" stroke="currentColor" stroke-linecap="round" stroke-linejoin="round" stroke-width="2"/>
</svg>
