<svg xmlns="http://www.w3.org/2000/svg" width="20" height="20" viewBox="0 0 20 20" fill="none">
  <path d="M1.6666 1.6667L18.3332 1.6667" stroke="currentColor" stroke-linecap="round" stroke-linejoin="round" stroke-width="2"/>
  <path d="M1.6666 11.6667L18.3332 11.6667" stroke="currentColor" stroke-linecap="round" stroke-linejoin="round" stroke-width="2"/>
  <path d="M6.6685 6.25C6.6685 5.5468 6.599 4.7351 7.2935 4.3341 7.5836 4.1667 7.973 4.1667 8.7518 4.1667H11.2518C12.0307 4.1667 12.4201 4.1667 12.7102 4.3341 13.4047 4.7351 13.3352 5.5468 13.3352 6.25 13.3352 6.9532 13.4047 7.7649 12.7102 8.1659 12.4201 8.3333 12.0307 8.3333 11.2518 8.3333L8.7518 8.3333C7.973 8.3333 7.5836 8.3333 7.2935 8.1659 6.599 7.7649 6.6685 6.9532 6.6685 6.25Z" stroke="currentColor" stroke-linecap="round" stroke-linejoin="round" stroke-width="2"/>
  <path d="M4.1685 16.25C4.1685 15.5467 4.099 14.7351 4.7935 14.3342 5.0836 14.1667 5.473 14.1667 6.2518 14.1667L13.7518 14.1667C14.5307 14.1667 14.9201 14.1667 15.2102 14.3342 15.9047 14.7351 15.8352 15.5467 15.8352 16.25 15.8352 16.9533 15.9047 17.7649 15.2102 18.1658 14.9201 18.3333 14.5307 18.3333 13.7518 18.3333L6.2518 18.3333C5.473 18.3333 5.0836 18.3333 4.7935 18.1658 4.099 17.7649 4.1685 16.9533 4.1685 16.25Z" stroke="currentColor" stroke-linecap="round" stroke-linejoin="round" stroke-width="2"/>
</svg>
