<svg xmlns="http://www.w3.org/2000/svg" width="20" height="20" viewBox="0 0 20 20" fill="none">
  <path d="M5.8333 4.1667L5.8333 1.6667M5.8333 15.8333L5.8333 18.3333" stroke="currentColor" stroke-linecap="round" stroke-linejoin="round" stroke-width="2"/>
  <path d="M14.1667 6.6686C14.8699 6.6686 15.6816 6.5991 16.0825 7.2936 16.25 7.5837 16.25 7.9731 16.25 8.7519V11.2519C16.25 12.0307 16.25 12.4202 16.0825 12.7103 15.6816 13.4047 14.8699 13.3353 14.1667 13.3353 13.4634 13.3353 12.6517 13.4047 12.2508 12.7103 12.0833 12.4202 12.0833 12.0307 12.0833 11.2519L12.0833 8.7519C12.0833 7.9731 12.0833 7.5837 12.2508 7.2936 12.6517 6.5991 13.4634 6.6686 14.1667 6.6686Z" stroke="currentColor" stroke-linecap="round" stroke-linejoin="round" stroke-width="2"/>
  <path d="M5.8333 4.1686C6.5366 4.1686 7.3482 4.0991 7.7492 4.7936 7.9167 5.0837 7.9167 5.4731 7.9167 6.2519L7.9167 13.7519C7.9167 14.5308 7.9167 14.9202 7.7492 15.2103 7.3482 15.9047 6.5366 15.8353 5.8333 15.8353 5.1301 15.8353 4.3184 15.9047 3.9175 15.2103 3.75 14.9202 3.75 14.5308 3.75 13.7519L3.75 6.2519C3.75 5.4731 3.75 5.0837 3.9175 4.7936 4.3184 4.0991 5.1301 4.1686 5.8333 4.1686Z" stroke="currentColor" stroke-linecap="round" stroke-linejoin="round" stroke-width="2"/>
  <path d="M14.1667 6.6667V1.6667M14.1667 13.3333V18.3333" stroke="currentColor" stroke-linecap="round" stroke-linejoin="round" stroke-width="2"/>
</svg>
