<svg xmlns="http://www.w3.org/2000/svg" width="20" height="20" viewBox="0 0 20 20" fill="none">
  <path d="M1.6667 1.6667V18.3333" stroke="currentColor" stroke-linecap="round" stroke-linejoin="round" stroke-width="2"/>
  <path d="M11.6667 1.6667V18.3333" stroke="currentColor" stroke-linecap="round" stroke-linejoin="round" stroke-width="2"/>
  <path d="M16.25 6.6686C15.5467 6.6686 14.7351 6.5991 14.3342 7.2936 14.1667 7.5837 14.1667 7.9731 14.1667 8.7519V11.2519C14.1667 12.0307 14.1667 12.4202 14.3342 12.7103 14.7351 13.4047 15.5467 13.3353 16.25 13.3353 16.9533 13.3353 17.7649 13.4047 18.1658 12.7103 18.3333 12.4202 18.3333 12.0307 18.3333 11.2519V8.7519C18.3333 7.9731 18.3333 7.5837 18.1658 7.2936 17.7649 6.5991 16.9533 6.6686 16.25 6.6686Z" stroke="currentColor" stroke-linecap="round" stroke-linejoin="round" stroke-width="2"/>
  <path d="M6.2484 4.1686C5.5451 4.1686 4.7335 4.0991 4.3325 4.7936 4.165 5.0837 4.165 5.4731 4.165 6.2519L4.165 13.7519C4.165 14.5308 4.165 14.9202 4.3325 15.2103 4.7335 15.9047 5.5451 15.8353 6.2484 15.8353 6.9516 15.8353 7.7633 15.9047 8.1642 15.2103 8.3317 14.9202 8.3317 14.5308 8.3317 13.7519L8.3317 6.2519C8.3317 5.4731 8.3317 5.0837 8.1642 4.7936 7.7633 4.0991 6.9516 4.1686 6.2484 4.1686Z" stroke="currentColor" stroke-linecap="round" stroke-linejoin="round" stroke-width="2"/>
</svg>
