<svg xmlns="http://www.w3.org/2000/svg" width="20" height="20" viewBox="0 0 20 20" fill="none">
  <path d="M4.1667 14.1667L1.6667 14.1667M15.8333 14.1667L18.3333 14.1667" stroke="currentColor" stroke-linecap="round" stroke-linejoin="round" stroke-width="2"/>
  <path d="M6.6686 5.8333C6.6686 5.1301 6.5991 4.3184 7.2936 3.9175 7.5837 3.75 7.9731 3.75 8.7519 3.75L11.2519 3.75C12.0307 3.75 12.4202 3.75 12.7103 3.9175 13.4047 4.3184 13.3353 5.1301 13.3353 5.8333 13.3353 6.5366 13.4047 7.3482 12.7103 7.7492 12.4202 7.9167 12.0307 7.9167 11.2519 7.9167H8.7519C7.9731 7.9167 7.5837 7.9167 7.2936 7.7492 6.5991 7.3482 6.6686 6.5366 6.6686 5.8333Z" stroke="currentColor" stroke-linecap="round" stroke-linejoin="round" stroke-width="2"/>
  <path d="M4.1686 14.1667C4.1686 13.4634 4.0991 12.6517 4.7936 12.2508 5.0837 12.0833 5.4731 12.0833 6.2519 12.0833L13.7519 12.0833C14.5308 12.0833 14.9202 12.0833 15.2103 12.2508 15.9047 12.6517 15.8353 13.4634 15.8353 14.1667 15.8353 14.8699 15.9047 15.6816 15.2103 16.0825 14.9202 16.25 14.5308 16.25 13.7519 16.25H6.2519C5.4731 16.25 5.0837 16.25 4.7936 16.0825 4.0991 15.6816 4.1686 14.8699 4.1686 14.1667Z" stroke="currentColor" stroke-linecap="round" stroke-linejoin="round" stroke-width="2"/>
  <path d="M6.6667 5.8333L1.6667 5.8333M13.3333 5.8333L18.3333 5.8333" stroke="currentColor" stroke-linecap="round" stroke-linejoin="round" stroke-width="2"/>
</svg>
