<svg xmlns="http://www.w3.org/2000/svg" width="20" height="20" viewBox="0 0 20 20" fill="none">
  <path d="M18.3333 1.6667V18.3333" stroke="currentColor" stroke-linecap="round" stroke-linejoin="round" stroke-width="2"/>
  <path d="M8.3333 1.6667V18.3333" stroke="currentColor" stroke-linecap="round" stroke-linejoin="round" stroke-width="2"/>
  <path d="M13.75 6.6686C14.4533 6.6686 15.2649 6.5991 15.6658 7.2936 15.8333 7.5837 15.8333 7.9731 15.8333 8.7519V11.2519C15.8333 12.0307 15.8333 12.4202 15.6658 12.7103 15.2649 13.4047 14.4533 13.3353 13.75 13.3353 13.0468 13.3353 12.2351 13.4047 11.8342 12.7103 11.6667 12.4202 11.6667 12.0307 11.6667 11.2519L11.6667 8.7519C11.6667 7.9731 11.6667 7.5837 11.8342 7.2936 12.2351 6.5991 13.0468 6.6686 13.75 6.6686Z" stroke="currentColor" stroke-linecap="round" stroke-linejoin="round" stroke-width="2"/>
  <path d="M3.75 4.1686C4.4532 4.1686 5.2649 4.0991 5.6659 4.7936 5.8333 5.0837 5.8333 5.4731 5.8333 6.2519L5.8333 13.7519C5.8333 14.5308 5.8333 14.9202 5.6659 15.2103 5.2649 15.9047 4.4532 15.8353 3.75 15.8353 3.0468 15.8353 2.2351 15.9047 1.8341 15.2103 1.6667 14.9202 1.6667 14.5308 1.6667 13.7519L1.6667 6.2519C1.6667 5.4731 1.6667 5.0837 1.8341 4.7936 2.2351 4.0991 3.0468 4.1686 3.75 4.1686Z" stroke="currentColor" stroke-linecap="round" stroke-linejoin="round" stroke-width="2"/>
</svg>
