<svg xmlns="http://www.w3.org/2000/svg" width="20" height="20" viewBox="0 0 20 20" fill="none">
  <path d="M1.6666 18.3333L18.3332 18.3333" stroke="currentColor" stroke-linecap="round" stroke-linejoin="round" stroke-width="2"/>
  <path d="M1.6666 8.3333L18.3332 8.3333" stroke="currentColor" stroke-linecap="round" stroke-linejoin="round" stroke-width="2"/>
  <path d="M6.6686 3.75C6.6686 4.4532 6.5991 5.2649 7.2936 5.6659 7.5837 5.8333 7.9731 5.8333 8.7519 5.8333H11.2519C12.0307 5.8333 12.4202 5.8333 12.7103 5.6659 13.4047 5.2649 13.3353 4.4532 13.3353 3.75 13.3353 3.0468 13.4047 2.2351 12.7103 1.8341 12.4202 1.6667 12.0307 1.6667 11.2519 1.6667L8.7519 1.6667C7.9731 1.6667 7.5837 1.6667 7.2936 1.8341 6.5991 2.2351 6.6686 3.0468 6.6686 3.75Z" stroke="currentColor" stroke-linecap="round" stroke-linejoin="round" stroke-width="2"/>
  <path d="M4.1686 13.75C4.1686 14.4533 4.0991 15.2649 4.7936 15.6658 5.0837 15.8333 5.4731 15.8333 6.2519 15.8333L13.7519 15.8333C14.5308 15.8333 14.9202 15.8333 15.2103 15.6658 15.9047 15.2649 15.8353 14.4533 15.8353 13.75 15.8353 13.0468 15.9047 12.2351 15.2103 11.8342 14.9202 11.6667 14.5308 11.6667 13.7519 11.6667L6.2519 11.6667C5.4731 11.6667 5.0837 11.6667 4.7936 11.8342 4.0991 12.2351 4.1686 13.0468 4.1686 13.75Z" stroke="currentColor" stroke-linecap="round" stroke-linejoin="round" stroke-width="2"/>
</svg>
