<svg xmlns="http://www.w3.org/2000/svg" width="20" height="20" viewBox="0 0 20 20" fill="none">
  <path d="M5.8333 10H14.1667M10.8333 6.6667C10.8333 7.1269 10.4603 7.5 10 7.5 9.5397 7.5 9.1667 7.1269 9.1667 6.6667 9.1667 6.2064 9.5397 5.8333 10 5.8333 10.4603 5.8333 10.8333 6.2064 10.8333 6.6667ZM10.8333 13.3333C10.8333 13.7936 10.4603 14.1667 10 14.1667 9.5397 14.1667 9.1667 13.7936 9.1667 13.3333 9.1667 12.8731 9.5397 12.5 10 12.5 10.4603 12.5 10.8333 12.8731 10.8333 13.3333Z" stroke="currentColor" stroke-linecap="round" stroke-width="2"/>
  <path d="M2.0833 10C2.0833 6.268 2.0833 4.4021 3.2427 3.2427 4.4021 2.0833 6.268 2.0833 10 2.0833 13.7319 2.0833 15.5979 2.0833 16.7573 3.2427 17.9167 4.4021 17.9167 6.268 17.9167 10 17.9167 13.7319 17.9167 15.5979 16.7573 16.7573 15.5979 17.9167 13.7319 17.9167 10 17.9167 6.268 17.9167 4.4021 17.9167 3.2427 16.7573 2.0833 15.5979 2.0833 13.7319 2.0833 10Z" stroke="currentColor" stroke-linejoin="round" stroke-width="2"/>
</svg>
