<svg xmlns="http://www.w3.org/2000/svg" width="20" height="20" viewBox="0 0 20 20" fill="none">
  <path d="M5.8333 10H14.1667M10.8333 6.6667C10.8333 7.1269 10.4603 7.5 10 7.5 9.5397 7.5 9.1667 7.1269 9.1667 6.6667 9.1667 6.2064 9.5397 5.8333 10 5.8333 10.4603 5.8333 10.8333 6.2064 10.8333 6.6667ZM10.8333 13.3333C10.8333 13.7936 10.4603 14.1667 10 14.1667 9.5397 14.1667 9.1667 13.7936 9.1667 13.3333 9.1667 12.8731 9.5397 12.5 10 12.5 10.4603 12.5 10.8333 12.8731 10.8333 13.3333Z" stroke="currentColor" stroke-linecap="round" stroke-width="2"/>
  <circle cx="10" cy="10" r="8.333333333333334" stroke="currentColor" stroke-width="2"/>
</svg>
