<svg xmlns="http://www.w3.org/2000/svg" width="20" height="20" viewBox="0 0 20 20" fill="none">
  <path d="M17.5 12.5136C17.462 11.687 16.8972 11.6667 16.1309 11.6667 14.9506 11.6667 14.7549 11.9487 14.7549 13.0556V14.4444C14.7549 15.5513 14.9506 15.8333 16.1309 15.8333 16.8972 15.8333 17.462 15.813 17.5 14.9864M8.5791 13.75C8.5791 14.9006 7.6573 15.8333 6.5202 15.8333 6.2637 15.8333 6.1354 15.8333 6.0399 15.7775 5.8111 15.6438 5.834 15.3733 5.834 15.1389V12.3611C5.834 12.1267 5.8111 11.8562 6.0399 11.7225 6.1354 11.6667 6.2637 11.6667 6.5202 11.6667 7.6573 11.6667 8.5791 12.5994 8.5791 13.75ZM11.6667 15.8333C11.0197 15.8333 10.6962 15.8333 10.4951 15.6299 10.2941 15.4265 10.2941 15.0992 10.2941 14.4444V13.0556C10.2941 12.4008 10.2941 12.0735 10.4951 11.8701 10.6962 11.6667 11.0197 11.6667 11.6667 11.6667 12.3137 11.6667 12.6372 11.6667 12.8383 11.8701 13.0393 12.0735 13.0393 12.4008 13.0393 13.0556V14.4444C13.0393 15.0992 13.0393 15.4265 12.8383 15.6299 12.6372 15.8333 12.3137 15.8333 11.6667 15.8333Z" stroke="currentColor" stroke-linecap="round" stroke-width="2"/>
  <path d="M15.8333 9.1667C15.8333 8.3333 15.8333 7.8588 15.7065 7.5526 15.5796 7.2463 15.3388 7.0054 14.857 6.5237L10.9099 2.5766C10.4942 2.1608 10.2863 1.953 10.0288 1.8298 9.9752 1.8042 9.9203 1.7814 9.8643 1.7617 9.5951 1.6667 9.3012 1.6667 8.7132 1.6667 6.009 1.6667 4.6569 1.6667 3.7411 2.4051 3.5561 2.5542 3.3876 2.7228 3.2384 2.9078 2.5 3.8236 2.5 5.1757 2.5 7.8799V11.6667C2.5 14.8093 2.5 16.3808 3.4763 17.357 4.4526 18.3333 6.024 18.3333 9.1667 18.3333H15.8333M10 2.0833V2.5C10 4.857 10 6.0355 10.7323 6.7678 11.4645 7.5 12.643 7.5 15 7.5H15.4167" stroke="currentColor" stroke-linecap="round" stroke-linejoin="round" stroke-width="2"/>
</svg>
