<svg xmlns="http://www.w3.org/2000/svg" width="20" height="20" viewBox="0 0 20 20" fill="none">
  <path d="M16.6667 10.8333V8.8808C16.6667 8.1995 16.6667 7.8588 16.5398 7.5526 16.4129 7.2463 16.1721 7.0054 15.6903 6.5237L11.7433 2.5766C11.3275 2.1608 11.1197 1.953 10.8621 1.8298 10.8085 1.8042 10.7537 1.7814 10.6977 1.7617 10.4284 1.6667 10.1345 1.6667 9.5465 1.6667 6.8424 1.6667 5.4903 1.6667 4.5744 2.4051 4.3894 2.5542 4.2209 2.7228 4.0717 2.9078 3.3333 3.8236 3.3333 5.1757 3.3333 7.8799V10.8333M10.8333 2.0833V2.5C10.8333 4.857 10.8333 6.0355 11.5656 6.7678 12.2978 7.5 13.4763 7.5 15.8333 7.5H16.25" stroke="currentColor" stroke-linecap="round" stroke-linejoin="round" stroke-width="2"/>
  <path d="M17.0839 14.3497C17.0405 13.3577 16.395 13.3333 15.5193 13.3333 14.1703 13.3333 13.9467 13.6717 13.9467 15V16.6667C13.9467 17.995 14.1703 18.3333 15.5193 18.3333 16.395 18.3333 17.0405 18.309 17.0839 17.317M6.0547 15.8333C6.0547 17.2141 5.0013 18.3333 3.7018 18.3333 3.4086 18.3333 3.262 18.3333 3.1528 18.2663 2.8913 18.106 2.9175 17.7813 2.9175 17.5V14.1667C2.9175 13.8853 2.8913 13.5607 3.1528 13.4003 3.262 13.3333 3.4086 13.3333 3.7018 13.3333 5.0013 13.3333 6.0547 14.4526 6.0547 15.8333ZM10.0006 18.3333C9.2612 18.3333 8.8914 18.3333 8.6617 18.0892 8.432 17.8452 8.432 17.4523 8.432 16.6667V15C8.432 14.2143 8.432 13.8215 8.6617 13.5774 8.8914 13.3333 9.2612 13.3333 10.0006 13.3333 10.7401 13.3333 11.1098 13.3333 11.3395 13.5774 11.5693 13.8215 11.5693 14.2143 11.5693 15V16.6667C11.5693 17.4523 11.5693 17.8452 11.3395 18.0892 11.1098 18.3333 10.7401 18.3333 10.0006 18.3333Z" stroke="currentColor" stroke-linecap="round" stroke-width="2"/>
</svg>
