<svg xmlns="http://www.w3.org/2000/svg" width="20" height="20" viewBox="0 0 20 20" fill="none">
  <path d="M3.3333 18.3335V17.5002C3.3333 15.9425 3.3333 15.1637 3.6683 14.5835 3.8877 14.2035 4.2033 13.8879 4.5833 13.6685 5.1635 13.3335 5.9423 13.3335 7.5 13.3335L10 16.6668 12.5 13.3335C14.0577 13.3335 14.8365 13.3335 15.4167 13.6685 15.7967 13.8879 16.1123 14.2035 16.3317 14.5835 16.6667 15.1637 16.6667 15.9425 16.6667 17.5002V18.3335" stroke="currentColor" stroke-linecap="round" stroke-linejoin="round" stroke-width="2"/>
  <path d="M13.2812 6.6665L14.1293 3.2201C14.3235 2.4311 13.7361 1.6669 12.9357 1.6669H7.0644C6.2639 1.6669 5.6765 2.4311 5.8707 3.2201L6.7189 6.6665M13.2812 6.6665V8.3331C13.2812 10.1741 11.8121 11.6665 10 11.6665 8.1879 11.6665 6.7189 10.1741 6.7189 8.3331V6.6665M13.2812 6.6665H6.7189" stroke="currentColor" stroke-linecap="round" stroke-linejoin="round" stroke-width="2"/>
  <path d="M9.9998 3.3335V4.9998M10.8329 4.1667L9.1667 4.1667" stroke="currentColor" stroke-linecap="round" stroke-linejoin="round" stroke-width="2"/>
</svg>
