<svg xmlns="http://www.w3.org/2000/svg" width="20" height="20" viewBox="0 0 20 20" fill="none">
  <path d="M16.6667 18.3333V15.8333C16.6667 13.4763 16.6667 12.2978 15.9344 11.5656 15.2022 10.8333 14.0237 10.8333 11.6667 10.8333L10 12.5 8.3333 10.8333C5.9763 10.8333 4.7978 10.8333 4.0656 11.5656 3.3333 12.2978 3.3333 13.4763 3.3333 15.8333V18.3333" stroke="currentColor" stroke-linecap="round" stroke-linejoin="round" stroke-width="2"/>
  <path d="M13.3333 10.8333V15.4167" stroke="currentColor" stroke-linecap="round" stroke-linejoin="round" stroke-width="2"/>
  <path d="M7.0833 10.8333V14.1667M7.0833 14.1667C8.0038 14.1667 8.75 14.9128 8.75 15.8333V16.6667M7.0833 14.1667C6.1629 14.1667 5.4167 14.9128 5.4167 15.8333V16.6667" stroke="currentColor" stroke-linecap="round" stroke-linejoin="round" stroke-width="2"/>
  <path d="M12.9167 5.4167V4.5833C12.9167 2.9725 11.6108 1.6667 10 1.6667 8.3892 1.6667 7.0833 2.9725 7.0833 4.5833V5.4167C7.0833 7.0275 8.3892 8.3333 10 8.3333 11.6108 8.3333 12.9167 7.0275 12.9167 5.4167Z" stroke="currentColor" stroke-linecap="round" stroke-linejoin="round" stroke-width="2"/>
  <path d="M13.9583 16.0417C13.9583 16.3868 13.6785 16.6667 13.3333 16.6667 12.9882 16.6667 12.7083 16.3868 12.7083 16.0417 12.7083 15.6965 12.9882 15.4167 13.3333 15.4167 13.6785 15.4167 13.9583 15.6965 13.9583 16.0417Z" stroke="currentColor" stroke-width="2"/>
</svg>
