<svg xmlns="http://www.w3.org/2000/svg" width="20" height="20" viewBox="0 0 20 20" fill="none">
  <path d="M16.6667 18.3335V15.8335C16.6667 13.4765 16.6667 12.298 15.9344 11.5657 15.2022 10.8335 14.0237 10.8335 11.6667 10.8335L10 12.5002 8.3333 10.8335C5.9763 10.8335 4.7978 10.8335 4.0656 11.5657 3.3333 12.298 3.3333 13.4765 3.3333 15.8335V18.3335" stroke="currentColor" stroke-linecap="round" stroke-linejoin="round" stroke-width="2"/>
  <path d="M12.9167 5.4168V4.5834C12.9167 2.9726 11.6108 1.6668 10 1.6668 8.3892 1.6668 7.0833 2.9726 7.0833 4.5834V5.4168C7.0833 7.0276 8.3892 8.3334 10 8.3334 11.6108 8.3334 12.9167 7.0276 12.9167 5.4168Z" stroke="currentColor" stroke-linecap="round" stroke-linejoin="round" stroke-width="2"/>
  <path d="M13.3333 13.3334V15.8334M14.5833 14.5834L12.0833 14.5834" stroke="currentColor" stroke-linecap="round" stroke-linejoin="round" stroke-width="2"/>
</svg>
