<svg xmlns="http://www.w3.org/2000/svg" width="20" height="20" viewBox="0 0 20 20" fill="none">
  <path d="M15 13.3333L16.5332 14.6548C17.1777 15.2104 17.5 15.4882 17.5 15.8333 17.5 16.1785 17.1777 16.4563 16.5332 17.0118L15 18.3333" stroke="currentColor" stroke-linecap="round" stroke-linejoin="round" stroke-width="2"/>
  <path d="M11.6667 13.3333L10.1335 14.6548C9.4889 15.2104 9.1667 15.4882 9.1667 15.8333 9.1667 16.1785 9.4889 16.4563 10.1335 17.0118L11.6667 18.3333" stroke="currentColor" stroke-linecap="round" stroke-linejoin="round" stroke-width="2"/>
  <path d="M16.6667 10.836L16.6667 6.5166C16.6667 5.1051 16.6667 4.3994 16.4433 3.8358 16.0844 2.9296 15.3252 2.2149 14.3627 1.8769 13.764 1.6667 13.0144 1.6667 11.5152 1.6667 8.8915 1.6667 7.5797 1.6667 6.532 2.0346 4.8476 2.626 3.519 3.8768 2.8908 5.4626 2.5 6.449 2.5 7.684 2.5 10.154L2.5 12.2758C2.5 14.8344 2.5 16.1137 3.2064 17.0021 3.4088 17.2567 3.6488 17.4827 3.9192 17.6732 4.6792 18.2088 5.7085 18.3131 7.5 18.3333" stroke="currentColor" stroke-linecap="round" stroke-linejoin="round" stroke-width="2"/>
  <path d="M2.5 10C2.5 8.4658 3.7437 7.2222 5.2778 7.2222 5.8326 7.2222 6.4867 7.3194 7.0261 7.1749 7.5054 7.0465 7.8798 6.6721 8.0082 6.1928 8.1528 5.6534 8.0556 4.9993 8.0556 4.4444 8.0556 2.9103 9.2993 1.6667 10.8333 1.6667" stroke="currentColor" stroke-linecap="round" stroke-linejoin="round" stroke-width="2"/>
</svg>
