<svg xmlns="http://www.w3.org/2000/svg" width="20" height="20" viewBox="0 0 20 20" fill="none">
  <path d="M12.4838 5.8463C12.4838 5.8463 12.9004 6.263 13.3171 7.0963 13.3171 7.0963 14.6406 5.013 15.8171 4.5963" stroke="currentColor" stroke-linecap="round" stroke-linejoin="round" stroke-width="2"/>
  <path d="M8.3291 1.6845C6.247 1.5963 4.6385 1.8362 4.6385 1.8362 3.6228 1.9088 1.6763 2.4782 1.6763 5.8038 1.6763 9.1011 1.6548 13.1661 1.6763 14.7866 1.6763 15.7767 2.2893 18.0861 4.4111 18.2098 6.9901 18.3603 11.6357 18.3923 13.7671 18.2098 14.3377 18.1777 16.2372 17.7298 16.4777 15.663 16.7267 13.5219 16.6772 12.0339 16.6772 11.6798" stroke="currentColor" stroke-linecap="round" stroke-linejoin="round" stroke-width="2"/>
  <path d="M18.3332 5.8463C18.3332 8.1475 16.466 10.013 14.1626 10.013 11.8592 10.013 9.9919 8.1475 9.9919 5.8463 9.9919 3.5451 11.8592 1.6796 14.1626 1.6796 16.466 1.6796 18.3332 3.5451 18.3332 5.8463Z" stroke="currentColor" stroke-linecap="round" stroke-width="2"/>
  <path d="M5.8171 10.8463H9.1504" stroke="currentColor" stroke-linecap="round" stroke-width="2"/>
  <path d="M5.8171 14.1797H12.4838" stroke="currentColor" stroke-linecap="round" stroke-width="2"/>
</svg>
