<svg xmlns="http://www.w3.org/2000/svg" width="20" height="20" viewBox="0 0 20 20" fill="none">
  <path d="M8.8542 7.1914C8.8542 5.5209 7.3151 4.1667 5.4167 4.1667 3.5182 4.1667 1.9792 5.5209 1.9792 7.1914 1.9792 8.8618 2.9167 9.7839 5.4167 9.7839 7.9167 9.7839 9.1667 10.6482 9.1667 12.8087 9.1667 14.9692 7.4877 15.8333 5.4167 15.8333 3.3456 15.8333 1.6667 14.4792 1.6667 12.8087" stroke="currentColor" stroke-linecap="round" stroke-width="2"/>
  <path d="M5.4167 2.5L5.4167 17.5" stroke="currentColor" stroke-linecap="round" stroke-linejoin="round" stroke-width="2"/>
  <path d="M18.3333 10H12.0833M18.3333 10C18.3333 10.5835 16.6714 11.6738 16.25 12.0833M18.3333 10C18.3333 9.4165 16.6714 8.3263 16.25 7.9167" stroke="currentColor" stroke-linecap="round" stroke-linejoin="round" stroke-width="2"/>
</svg>
