<svg xmlns="http://www.w3.org/2000/svg" width="20" height="20" viewBox="0 0 20 20" fill="none">
  <path d="M18.3333 10C18.3333 14.6023 14.6023 18.3333 10 18.3333 5.3976 18.3333 1.6667 14.6023 1.6667 10 1.6667 5.3976 5.3976 1.6667 10 1.6667 14.6023 1.6667 18.3333 5.3976 18.3333 10Z" stroke="currentColor" stroke-width="2"/>
  <path d="M12.2585 8.3842C12.1759 7.7487 11.4462 6.7218 10.134 6.7218 8.6093 6.7218 7.9678 7.5662 7.8376 7.9884 7.6345 8.5532 7.6752 9.7142 9.4622 9.8408 11.6962 9.9992 12.5911 10.2628 12.4772 11.63 12.3633 12.9971 11.1181 13.2925 10.134 13.2608 9.1498 13.2292 7.5397 12.7771 7.4772 11.5611M9.9778 5.8317V6.7248M9.9778 13.2526V14.165" stroke="currentColor" stroke-linecap="round" stroke-width="2"/>
</svg>
