<svg xmlns="http://www.w3.org/2000/svg" width="20" height="20" viewBox="0 0 20 20" fill="none">
  <path d="M5.7136 18.3333C5.2606 16.6783 5 14.7394 5 12.6667 5 6.5915 7.2386 1.6667 10 1.6667 12.7614 1.6667 15 6.5915 15 12.6667 15 14.7394 14.7394 16.6783 14.2863 18.3333" stroke="currentColor" stroke-linecap="round" stroke-linejoin="round" stroke-width="2"/>
  <path d="M2.5 18.3333H17.5" stroke="currentColor" stroke-linecap="round" stroke-linejoin="round" stroke-width="2"/>
  <path d="M12.9597 4.1667C12.168 7.6712 7.5999 6.445 5.6224 9.3302 5.3476 9.7312 5.3464 10.2702 5.629 10.6654 7.6965 13.5562 12.9992 12.327 14.5833 15.8333" stroke="currentColor" stroke-linecap="round" stroke-linejoin="round" stroke-width="2"/>
  <path d="M7.0403 4.1667C7.832 7.6712 12.4001 6.445 14.3776 9.3302 14.6524 9.7312 14.6536 10.2702 14.371 10.6654 12.3035 13.5562 7.0008 12.327 5.4167 15.8333" stroke="currentColor" stroke-linecap="round" stroke-linejoin="round" stroke-width="2"/>
</svg>
