<svg xmlns="http://www.w3.org/2000/svg" width="20" height="20" viewBox="0 0 20 20" fill="none">
  <path d="M15.8333 13.3333C15.8333 15.6903 15.8333 16.8688 14.9791 17.6011 14.1248 18.3333 12.7498 18.3333 10 18.3333 7.2501 18.3333 5.8752 18.3333 5.0209 17.6011 4.1667 16.8688 4.1667 15.6903 4.1667 13.3333L4.1667 6.6667C4.1667 4.3096 4.1667 3.1311 5.0209 2.3989 5.8752 1.6667 7.2501 1.6667 10 1.6667 12.7498 1.6667 14.1248 1.6667 14.9791 2.3989 15.8333 3.1311 15.8333 4.3096 15.8333 6.6667L15.8333 13.3333Z" stroke="currentColor" stroke-width="2"/>
  <path d="M15.8333 10L4.1667 10" stroke="currentColor" stroke-linecap="round" stroke-linejoin="round" stroke-width="2"/>
  <path d="M10.1042 5.8333H10M10.2083 5.8333C10.2083 5.9484 10.1151 6.0417 10 6.0417 9.8849 6.0417 9.7917 5.9484 9.7917 5.8333 9.7917 5.7183 9.8849 5.625 10 5.625 10.1151 5.625 10.2083 5.7183 10.2083 5.8333Z" stroke="currentColor" stroke-linecap="round" stroke-width="2"/>
  <path d="M8.0208 13.3333H7.9167M8.125 13.3333C8.125 13.4484 8.0317 13.5417 7.9167 13.5417 7.8016 13.5417 7.7083 13.4484 7.7083 13.3333 7.7083 13.2183 7.8016 13.125 7.9167 13.125 8.0317 13.125 8.125 13.2183 8.125 13.3333Z" stroke="currentColor" stroke-linecap="round" stroke-width="2"/>
  <path d="M12.1875 15H12.0833M12.2917 15C12.2917 15.1151 12.1984 15.2083 12.0833 15.2083 11.9683 15.2083 11.875 15.1151 11.875 15 11.875 14.8849 11.9683 14.7917 12.0833 14.7917 12.1984 14.7917 12.2917 14.8849 12.2917 15Z" stroke="currentColor" stroke-linecap="round" stroke-width="2"/>
</svg>
