<svg xmlns="http://www.w3.org/2000/svg" width="20" height="20" viewBox="0 0 20 20" fill="none">
  <path d="M14.5833 18.3336V17.3631C14.5833 16.5942 14.9989 15.9887 15.4167 15.4167M6.6667 18.3336C6.6667 17.4025 6.3548 16.2725 5.7809 15.5393L2.7812 11.7075C2.3965 11.193 2.4076 10.4827 2.808 9.9805 3.3314 9.3242 4.3073 9.27 4.8998 9.8643L6.25 11.2188V6.25" stroke="currentColor" stroke-linecap="round" stroke-linejoin="round" stroke-width="2"/>
  <path d="M11.2515 4.5833C11.2515 3.893 11.8111 3.3333 12.5015 3.3333 13.1918 3.3333 13.7515 3.893 13.7515 4.5833V6.25M8.7517 5.417V4.1667L8.7515 2.9167C8.7515 2.2263 9.3111 1.6667 10.0015 1.6667 10.6918 1.6667 11.2515 2.2263 11.2515 2.9167V4.5833M11.2515 4.5833V7.9169M8.7517 4.1667C8.7513 3.4766 8.1918 2.9176 7.5016 2.9172 6.8115 2.9168 6.6667 3.3333 6.6667 3.3333M13.7515 10V6.25M13.7515 6.25C13.7515 5.5596 14.3111 5 15.0015 5 15.6918 5 16.2515 5.5596 16.2515 6.25V11.389C16.2515 11.9843 16.2515 12.4914 16.2417 12.9167" stroke="currentColor" stroke-linecap="round" stroke-linejoin="round" stroke-width="2"/>
  <path d="M1.6667 1.6667L18.3333 18.3333" stroke="currentColor" stroke-linecap="round" stroke-width="2"/>
</svg>
