<svg xmlns="http://www.w3.org/2000/svg" width="20" height="20" viewBox="0 0 20 20" fill="none">
  <path d="M15.8333 15.4167C15.3594 16.1551 14.8325 16.9033 14.0016 17.2233 13.2829 17.5 12.3802 17.5 10.5747 17.5 9.6278 17.5 9.1544 17.5 8.7138 17.4028 8.0416 17.2547 7.4167 16.9412 6.8952 16.4907 6.5533 16.1953 6.2693 15.8154 5.7011 15.0556L3.1978 11.7073C2.8132 11.1928 2.8242 10.4824 3.2247 9.9802 3.7481 9.324 4.724 9.2698 5.3164 9.8641L6.6676 11.2195V6.25" stroke="currentColor" stroke-linecap="round" stroke-linejoin="round" stroke-width="2"/>
  <path d="M9.167 4.5833C9.167 3.893 8.6073 3.3333 7.917 3.3333 7.7708 3.3333 7.6304 3.3584 7.5 3.4046M9.167 4.5833V2.9167C9.167 2.2263 9.7266 1.6667 10.417 1.6667 11.1073 1.6667 11.667 2.2263 11.667 2.9167V4.5833M9.167 4.5833V5.4176M11.667 4.5833C11.667 3.893 12.2266 3.3333 12.917 3.3333 13.6073 3.3333 14.167 3.893 14.167 4.5833V6.25M11.667 4.5833V7.9176M14.167 6.25C14.167 5.5596 14.7266 5 15.417 5 16.1073 5 16.667 5.5596 16.667 6.25 16.6653 8.4722 16.6796 10.6946 16.6563 12.9167M14.167 6.25V8.3333" stroke="currentColor" stroke-linecap="round" stroke-linejoin="round" stroke-width="2"/>
  <path d="M2.0833 1.6667L18.75 18.3333" stroke="currentColor" stroke-linecap="round" stroke-width="2"/>
</svg>
