<svg xmlns="http://www.w3.org/2000/svg" width="20" height="20" viewBox="0 0 20 20" fill="none">
  <circle cx="10" cy="10.001666666666667" r="2.5" stroke="currentColor" stroke-linecap="round" stroke-linejoin="round" stroke-width="2"/>
  <path d="M10 1.6683C14.6023 1.6683 18.3333 5.3993 18.3333 10.0017 18.3333 14.604 14.6023 18.335 10 18.335 5.3976 18.335 1.6667 14.604 1.6667 10.0017 1.6667 9.4507 1.7204 8.9124 1.8226 8.3915 1.8611 8.1958 1.8803 8.0979 1.9092 8.0255 2.0432 7.6906 2.1739 7.583 2.5283 7.5161 2.605 7.5016 2.8478 7.5016 3.3333 7.5016 4.4275 7.5016 5.3575 6.7987 5.6964 5.8199 5.8412 5.4016 5.9136 5.1924 5.9928 5.1208 6.072 5.0491 6.2679 5.0024 6.6598 4.9091 7.6344 4.677 8.3333 4.0094 8.3333 2.9183 8.3333 2.6241 8.3333 2.477 8.3444 2.4098 8.4035 2.0509 8.6103 1.8261 8.9629 1.7371 9.029 1.7205 9.1199 1.7128 9.3018 1.6976 9.532 1.6782 9.7648 1.6683 10 1.6683Z" stroke="currentColor" stroke-linecap="round" stroke-linejoin="round" stroke-width="2"/>
</svg>
