<svg xmlns="http://www.w3.org/2000/svg" width="20" height="20" viewBox="0 0 20 20" fill="none">
  <path d="M4.1667 18.3333V6.6667C4.1667 4.3096 4.1667 3.1311 4.8989 2.3989 5.6311 1.6667 6.8096 1.6667 9.1667 1.6667H10.8333C13.1903 1.6667 14.3688 1.6667 15.1011 2.3989 15.8333 3.1311 15.8333 4.3096 15.8333 6.6667V18.3333" stroke="currentColor" stroke-linecap="round" stroke-linejoin="round" stroke-width="2"/>
  <path d="M2.5 18.3333H17.5" stroke="currentColor" stroke-linecap="round" stroke-linejoin="round" stroke-width="2"/>
  <path d="M12.6042 10H12.5M12.7083 10C12.7083 10.1151 12.6151 10.2083 12.5 10.2083 12.3849 10.2083 12.2917 10.1151 12.2917 10 12.2917 9.8849 12.3849 9.7917 12.5 9.7917 12.6151 9.7917 12.7083 9.8849 12.7083 10Z" stroke="currentColor" stroke-linecap="round" stroke-width="2"/>
</svg>
