<svg xmlns="http://www.w3.org/2000/svg" width="20" height="20" viewBox="0 0 20 20" fill="none">
  <path d="M15 16.6667C15.9205 16.6667 16.6667 15.9205 16.6667 15V5C16.6667 4.0795 15.9205 3.3333 15 3.3333" stroke="currentColor" stroke-linecap="round" stroke-linejoin="round" stroke-width="2"/>
  <path d="M3.3333 5.7064V14.2936C3.3333 15.6212 3.3333 16.285 3.7204 16.748 4.1075 17.2109 4.7618 17.3297 6.0704 17.5672L8.5704 18.0209C10.3918 18.3514 11.3025 18.5167 11.9012 18.0179 12.5 17.5192 12.5 16.5952 12.5 14.7473V5.2527C12.5 3.4048 12.5 2.4809 11.9012 1.9821 11.3025 1.4833 10.3918 1.6486 8.5704 1.9791L6.0704 2.4328C4.7618 2.6703 4.1075 2.7891 3.7204 3.252 3.3333 3.715 3.3333 4.3788 3.3333 5.7064Z" stroke="currentColor" stroke-linecap="round" stroke-linejoin="round" stroke-width="2"/>
  <path d="M9.6875 10H9.5833M9.7917 10C9.7917 10.1151 9.6984 10.2083 9.5833 10.2083 9.4683 10.2083 9.375 10.1151 9.375 10 9.375 9.8849 9.4683 9.7917 9.5833 9.7917 9.6984 9.7917 9.7917 9.8849 9.7917 10Z" stroke="currentColor" stroke-linecap="round" stroke-width="2"/>
</svg>
