<svg xmlns="http://www.w3.org/2000/svg" width="20" height="20" viewBox="0 0 20 20" fill="none">
  <path d="M3.3334 13.4649L3.3334 6.5341C3.3334 4.9951 3.3334 4.2255 3.7647 3.6642 4.196 3.1028 4.9396 2.9046 6.4267 2.5081L9.3503 1.7287C9.505 1.6875 9.6645 1.6666 9.8247 1.6666 10.842 1.6666 11.6668 2.4913 11.6668 3.5086V16.4908C11.6668 17.5081 10.8421 18.3328 9.8247 18.3328 9.6645 18.3328 9.505 18.3118 9.3502 18.2706L6.4264 17.4909C4.9394 17.0943 4.1959 16.8961 3.7646 16.3348 3.3333 15.7734 3.3333 15.0039 3.3334 13.4649Z" stroke="currentColor" stroke-linecap="round" stroke-linejoin="round" stroke-width="2"/>
  <path d="M9.1667 9.1661V10.8328" stroke="currentColor" stroke-linecap="round" stroke-linejoin="round" stroke-width="2"/>
  <path d="M14.5834 16.6661C14.9706 16.6661 15.1642 16.6661 15.3251 16.634 15.9863 16.5025 16.5032 15.9857 16.6347 15.3245 16.6667 15.1635 16.6667 14.9699 16.6667 14.5828V5.416C16.6667 5.0288 16.6667 4.8353 16.6347 4.6743 16.5032 4.0131 15.9863 3.4962 15.3251 3.3647 15.1642 3.3327 14.9706 3.3327 14.5834 3.3327" stroke="currentColor" stroke-linecap="round" stroke-linejoin="round" stroke-width="2"/>
</svg>
