<svg xmlns="http://www.w3.org/2000/svg" width="20" height="20" viewBox="0 0 20 20" fill="none">
  <path d="M4.1667 18.3333V6.6667C4.1667 4.3096 4.1667 3.1311 4.8989 2.3989 5.6311 1.6667 6.8096 1.6667 9.1667 1.6667H10.8333C13.1903 1.6667 14.3688 1.6667 15.1011 2.3989 15.8333 3.1311 15.8333 4.3096 15.8333 6.6667V18.3333H4.1667Z" stroke="currentColor" stroke-linecap="round" stroke-linejoin="round" stroke-width="2"/>
  <path d="M6.6667 9.1667V5.8333C6.6667 4.4544 6.9544 4.1667 8.3333 4.1667H11.6667C13.0456 4.1667 13.3333 4.4544 13.3333 5.8333V9.1667C13.3333 10.5456 13.0456 10.8333 11.6667 10.8333H8.3333C6.9544 10.8333 6.6667 10.5456 6.6667 9.1667Z" stroke="currentColor" stroke-linecap="round" stroke-linejoin="round" stroke-width="2"/>
  <path d="M2.5 18.3333H17.5" stroke="currentColor" stroke-linecap="round" stroke-linejoin="round" stroke-width="2"/>
  <path d="M10 4.1667V10.8333M13.3333 7.5L6.6667 7.5" stroke="currentColor" stroke-linecap="round" stroke-linejoin="round" stroke-width="2"/>
  <path d="M6.7708 14.1667H6.6667M6.875 14.1667C6.875 14.2818 6.7817 14.375 6.6667 14.375 6.5516 14.375 6.4583 14.2818 6.4583 14.1667 6.4583 14.0516 6.5516 13.9583 6.6667 13.9583 6.7817 13.9583 6.875 14.0516 6.875 14.1667Z" stroke="currentColor" stroke-linecap="round" stroke-width="2"/>
</svg>
