<svg xmlns="http://www.w3.org/2000/svg" width="20" height="20" viewBox="0 0 20 20" fill="none">
  <path d="M13.3333 10C13.3333 11.8409 11.8409 13.3333 10 13.3333 8.1591 13.3333 6.6667 11.8409 6.6667 10 6.6667 8.1591 8.1591 6.6667 10 6.6667 11.8409 6.6667 13.3333 8.1591 13.3333 10Z" stroke="currentColor" stroke-width="2"/>
  <path d="M18.3333 9.7684L17.9668 10.2582C17.3607 11.0681 16.5476 11.0183 15.9699 10.1361L15.7917 9.8639C15.2351 9.0139 14.457 8.9336 13.8558 9.6641L13.3333 10.2988" stroke="currentColor" stroke-linecap="round" stroke-linejoin="round" stroke-width="2"/>
  <path d="M6.6667 9.7684L6.3002 10.2582C5.6941 11.0681 4.8809 11.0183 4.3033 10.1361L4.125 9.8639C3.5685 9.0139 2.7904 8.9336 2.1891 9.6641L1.6667 10.2988" stroke="currentColor" stroke-linecap="round" stroke-linejoin="round" stroke-width="2"/>
  <path d="M10 18.3333C14.6023 18.3333 18.3333 14.6023 18.3333 10 18.3333 9.008 18.1826 8.0399 17.8762 7.149 17.6265 6.423 17.3348 6.5108 16.6018 6.6048 15.5225 6.7433 14.4142 5.9797 14.2031 4.92 14.056 4.1812 14.0343 4.201 13.2799 4.1471 12.5526 4.0951 11.8793 3.5518 11.7077 2.837 11.4353 1.7024 11.1743 1.6667 10 1.6667 5.3976 1.6667 1.6667 5.3976 1.6667 10 1.6667 14.6023 5.3976 18.3333 10 18.3333Z" stroke="currentColor" stroke-linejoin="round" stroke-width="2"/>
</svg>
