<svg xmlns="http://www.w3.org/2000/svg" width="20" height="20" viewBox="0 0 20 20" fill="none">
  <path d="M14.1253 10.1514C14.3318 10.6783 13.7563 11.3105 12.6056 12.5749 11.3918 13.9085 10.7668 14.5753 10 14.5833 9.2332 14.5753 8.6082 13.9085 7.3944 12.5749 6.2437 11.3105 5.6683 10.6783 5.8747 10.1514 5.8822 10.1322 5.8904 10.1133 5.8993 10.0946 6.1244 9.6183 6.8706 9.5858 8.3333 9.5835V4.1666C8.3333 3.7792 8.3333 3.5854 8.3759 3.4265 8.4915 2.9951 8.8284 2.6582 9.2598 2.5426 9.4188 2.5 9.6125 2.5 10 2.5 10.3874 2.5 10.5812 2.5 10.7402 2.5426 11.1715 2.6582 11.5085 2.9951 11.6241 3.4265 11.6667 3.5854 11.6667 3.7792 11.6667 4.1666V9.5835C13.1293 9.5858 13.8756 9.6183 14.1007 10.0946 14.1096 10.1133 14.1177 10.1322 14.1253 10.1514Z" stroke="currentColor" stroke-linecap="round" stroke-linejoin="round" stroke-width="2"/>
  <path d="M4.1667 17.5H15.8334" stroke="currentColor" stroke-linecap="round" stroke-linejoin="round" stroke-width="2"/>
</svg>
