<svg xmlns="http://www.w3.org/2000/svg" width="20" height="20" viewBox="0 0 20 20" fill="none">
  <path d="M13.3334 10C13.3334 10 10.8785 13.3333 10.0001 13.3333 9.1217 13.3333 6.6668 10 6.6668 10M10.0001 12.9167L10.0001 2.5" stroke="currentColor" stroke-linecap="round" stroke-linejoin="round" stroke-width="2"/>
  <path d="M14.1668 6.6667C16.0078 6.6667 17.5001 8.1591 17.5001 10V12.0833C17.5001 14.0288 17.5001 15.0016 17.1065 15.738 16.7958 16.3194 16.3195 16.7956 15.7381 17.1064 15.0017 17.5 14.029 17.5 12.0834 17.5H7.9171C5.9713 17.5 4.9983 17.5 4.2619 17.1062 3.6806 16.7955 3.2046 16.3195 2.8938 15.7383 2.5001 15.0017 2.5001 14.0288 2.5001 12.083V9.9992C2.5006 8.1593 3.9917 6.6677 5.8315 6.6667H5.8334" stroke="currentColor" stroke-linecap="round" stroke-linejoin="round" stroke-width="2"/>
</svg>
