<svg xmlns="http://www.w3.org/2000/svg" width="20" height="20" viewBox="0 0 20 20" fill="none">
  <path d="M10.085 7.0162L10.2611 9.2544 15.8928 3.7476C16.4511 3.2017 17.3563 3.2017 17.9144 3.7476 18.4728 4.2935 18.4728 5.1786 17.9144 5.7244L14.882 8.6897 16.332 10.6469C17.2788 11.8996 17.7523 12.5259 17.9096 13.1394 18.1695 14.1527 18.0558 15.1819 17.2048 16.0143 16.6118 16.5938 16.0675 16.8396 14.6427 17.5362 13.7386 17.9782 13.2865 18.1992 12.8338 18.2814 12.0886 18.4168 11.3182 18.2946 10.655 17.9357 10.2522 17.7177 9.8948 17.3683 9.18 16.6693L8.5742 16.0769C7.6239 15.1478 7.1487 14.6832 6.9001 14.0991 6.8555 13.9943 6.8167 13.8873 6.7837 13.7785 6.6 13.1719 6.6691 12.5183 6.8074 11.2112L7.2551 6.9798C7.3239 6.3295 7.847 5.8141 8.5114 5.7419 9.3101 5.6552 10.0233 6.2327 10.085 7.0162Z" stroke="currentColor" stroke-linecap="round" stroke-linejoin="round" stroke-width="2"/>
  <path d="M7.5575 2.9385C7.5575 3.6418 8.1067 4.2119 8.7843 4.2119 9.4618 4.2119 10.011 3.6418 10.011 2.9385 10.011 2.2352 9.4618 1.665 8.7843 1.665 8.1067 1.665 7.5575 2.2352 7.5575 2.9385ZM7.5575 2.9385H7.0146L6.3649 2.9992M2.9252 7.5051C3.6309 7.4935 4.1681 8.0449 4.1793 8.7275 4.1905 9.4102 3.6653 9.9977 2.9596 10.0093 2.254 10.0208 1.6788 9.4448 1.6676 8.7621 1.6565 8.0794 2.2195 7.5166 2.9252 7.5051ZM2.9252 7.5051L3.0008 6.3836M4.4301 3.8949L4.1537 4.153 3.9095 4.4161" stroke="currentColor" stroke-linecap="round" stroke-linejoin="round" stroke-width="2"/>
</svg>
