<svg xmlns="http://www.w3.org/2000/svg" width="20" height="20" viewBox="0 0 20 20" fill="none">
  <path d="M7.2227 7.0725C6.3731 6.5631 5.8049 5.6363 5.8049 4.5775 5.8049 2.9699 7.1147 1.6667 8.7305 1.6667 10.3462 1.6667 11.6562 2.9699 11.6562 4.5775 11.6562 5.6363 11.0879 6.5631 10.2383 7.0725" stroke="currentColor" stroke-width="2"/>
  <path d="M15.0098 2.4919L16.4657 3.6925C16.6787 3.9191 16.7142 4.09 16.6093 4.3411 16.5712 4.4321 16.5065 4.5089 16.4326 4.5743L15.0098 5.8326M12.0117 4.146H15.6918" stroke="currentColor" stroke-linecap="round" stroke-linejoin="round" stroke-width="2"/>
  <path d="M7.1332 18.2768L7.1544 17.7522C7.1752 17.2393 7.0399 16.7289 6.7536 16.3 5.6269 14.6127 4.7659 13.6517 3.5859 12.0058 3.4924 11.8754 3.405 11.7374 3.3682 11.5817 3.0836 10.3789 4.5539 8.8136 5.9158 10.6164L7.2452 11.9753 7.2452 5.2818C7.4215 3.9103 9.5877 3.6382 9.9529 5.2818L9.9529 8.3968C11.3041 8.2743 16.7653 9.211 15.7346 12.946 15.6862 13.121 15.6401 13.2997 15.5924 13.475 15.4188 14.1132 14.9942 15.0449 14.5854 15.8392 14.1308 16.7223 14.2504 17.9698 14.1734 18.332" stroke="currentColor" stroke-linecap="round" stroke-linejoin="round" stroke-width="2"/>
</svg>
