<svg xmlns="http://www.w3.org/2000/svg" width="20" height="20" viewBox="0 0 20 20" fill="none">
  <path d="M15.8317 10.8772V11.022M15.8317 11.022C15.8317 10.2931 15.2962 9.6709 14.5656 9.5511L13.5589 9.386V10.1316M15.8317 11.022V12.8655C15.8317 14.486 15.8317 15.2963 15.5808 15.9413 15.1973 16.9277 14.4079 17.7071 13.4088 18.0858 12.7555 18.3333 11.9348 18.3333 10.2935 18.3333 9.4328 18.3333 9.0023 18.3333 8.6018 18.2464 7.9908 18.1138 7.4226 17.8333 6.9485 17.4303 6.6378 17.166 6.3795 16.8261 5.8631 16.1462L3.5873 13.1504C3.2376 12.6901 3.2477 12.0545 3.6118 11.6052 4.0876 11.0179 4.9747 10.9694 5.5133 11.5012L6.665 12.7131V5.4167C6.665 4.7263 7.2247 4.1667 7.915 4.1667 8.6053 4.1667 9.165 4.7263 9.165 5.4167V7.8947M13.5589 10.1316C13.5589 9.308 12.8806 8.6403 12.0438 8.6403H11.2863V9.386M13.5589 10.1316V10.8772M9.165 7.8947H9.7711C10.6078 7.8947 11.2863 8.5624 11.2863 9.386M9.165 7.8947V10.1316M11.2863 9.386V10.1316" stroke="currentColor" stroke-linecap="round" stroke-linejoin="round" stroke-width="2"/>
  <path d="M9.53 7.9167C10.5548 7.348 11.2483 6.255 11.2483 5 11.2483 3.1591 9.7559 1.6667 7.915 1.6667 6.0741 1.6667 4.5817 3.1591 4.5817 5 4.5817 6.255 5.2753 7.348 6.3 7.9167" stroke="currentColor" stroke-linecap="round" stroke-width="2"/>
  <path d="M15.0161 3.3301L16.4689 4.5307C16.6815 4.7573 16.717 4.9282 16.6122 5.1793 16.5742 5.2703 16.5098 5.3471 16.436 5.4125L15.0161 6.6708M11.543 4.9842H15.6967" stroke="currentColor" stroke-linecap="round" stroke-linejoin="round" stroke-width="2"/>
</svg>
