<svg xmlns="http://www.w3.org/2000/svg" width="20" height="20" viewBox="0 0 20 20" fill="none">
  <path d="M17.9149 10.8772V11.022M17.9149 11.022C17.9149 10.2931 17.3788 9.6709 16.6473 9.5511L15.6394 9.386V10.1316M17.9149 11.022V12.8655C17.9149 14.486 17.9149 15.2963 17.6638 15.9413 17.2798 16.9277 16.4894 17.7071 15.4892 18.0858 14.835 18.3333 14.0133 18.3333 12.37 18.3333 11.5082 18.3333 11.0773 18.3333 10.6763 18.2464 10.0644 18.1138 9.4956 17.8333 9.0209 17.4303 8.7098 17.166 8.4512 16.8261 7.9341 16.1462L5.6555 13.1504C5.3054 12.6901 5.3155 12.0545 5.68 11.6052 6.1564 11.0179 7.0447 10.9694 7.5839 11.5012L8.7371 12.7131V5.4167C8.7371 4.7263 9.2974 4.1667 9.9886 4.1667 10.6798 4.1667 11.2401 4.7263 11.2401 5.4167V7.8947M15.6394 10.1316C15.6394 9.308 14.9603 8.6403 14.1224 8.6403H13.364V9.386M15.6394 10.1316V10.8772M11.2401 7.8947H11.8469C12.6848 7.8947 13.364 8.5624 13.364 9.386M11.2401 7.8947V10.1316M13.364 9.386V10.1316" stroke="currentColor" stroke-linecap="round" stroke-linejoin="round" stroke-width="2"/>
  <path d="M8.7374 7.9167C7.7114 7.348 7.0687 6.255 7.0687 5 7.0687 3.1591 8.563 1.6667 10.4062 1.6667 12.2493 1.6667 13.7436 3.1591 13.7436 5 13.7436 6.255 13.0492 7.348 12.0232 7.9167" stroke="currentColor" stroke-linecap="round" stroke-width="2"/>
  <path d="M6.5687 5.0191H2.085M2.085 5.0191C2.085 5.4175 2.5141 5.5977 2.7826 5.843L3.7672 6.6752M2.085 5.0191C2.085 4.5932 2.5208 4.4157 2.7826 4.168L3.7672 3.3252" stroke="currentColor" stroke-linecap="round" stroke-linejoin="round" stroke-width="2"/>
</svg>
