<svg xmlns="http://www.w3.org/2000/svg" width="20" height="20" viewBox="0 0 20 20" fill="none">
  <path d="M7.0767 13.9757L7.2831 13.7733C7.7509 13.3149 8.0174 12.6885 8.0238 12.0323L8.0653 7.7458C8.071 7.1647 8.2584 6.5507 8.7857 6.3096 9.583 5.9449 10.5685 6.1508 10.746 7.8556L11.0194 9.2963 15.6689 3.7125C16.6418 2.7945 18.3688 3.955 17.6157 5.3929L14.8813 8.6844C15.9482 9.4012 19.8848 13.4766 16.6968 15.5509 16.2371 15.9515 15.1481 16.5325 14.1982 16.8347 13.2925 17.1228 12.7241 18.1091 12.4454 18.3336" stroke="currentColor" stroke-linecap="round" stroke-linejoin="round" stroke-width="2"/>
  <path d="M7.9031 2.9283C7.9031 3.6251 8.4459 4.1899 9.1155 4.1899 9.7852 4.1899 10.328 3.6251 10.328 2.9283 10.328 2.2316 9.7852 1.6668 9.1155 1.6668 8.4459 1.6668 7.9031 2.2316 7.9031 2.9283ZM7.9031 2.9283H7.3665L6.7243 2.9885M3.3246 7.4524C4.0221 7.4409 4.5531 7.9871 4.5641 8.6634 4.5752 9.3398 4.0561 9.9218 3.3587 9.9332 2.6612 9.9447 2.0928 9.3739 2.0817 8.6977 2.0707 8.0213 2.6271 7.4638 3.3246 7.4524ZM3.3246 7.4524L3.3993 6.3414M4.812 3.8758L4.5388 4.1316 4.2974 4.3922" stroke="currentColor" stroke-linecap="round" stroke-linejoin="round" stroke-width="2"/>
</svg>
