<svg xmlns="http://www.w3.org/2000/svg" width="20" height="20" viewBox="0 0 20 20" fill="none">
  <path d="M5.8611 11.3774L7.4999 12.8102V5.4173C7.4999 4.7266 8.0598 4.1667 8.7504 4.1667 9.4407 4.1667 10.0004 4.7259 10.001 5.4162L10.0037 9.3859 12.2007 9.742C13.6188 9.9577 14.3278 10.0656 14.8273 10.369 15.6522 10.8702 16.2499 11.6668 16.2499 12.7215 16.2499 13.4868 16.0634 14.0003 15.6099 15.3798 15.3222 16.255 15.1783 16.6927 14.9438 17.0392 14.5575 17.6095 13.9877 18.026 13.3319 18.2172 12.9336 18.3333 12.4787 18.3333 11.5688 18.3333H10.7975C9.5877 18.3333 8.9829 18.3333 8.4445 18.1083 8.3479 18.0679 8.2535 18.0223 8.1618 17.9718 7.6499 17.6899 7.2685 17.2139 6.5057 16.2619L4.0362 13.1799C3.6567 12.7063 3.6542 12.0285 4.0301 11.5519 4.482 10.9793 5.3119 10.9001 5.8611 11.3774Z" stroke="currentColor" stroke-linecap="round" stroke-linejoin="round" stroke-width="2"/>
  <path d="M10.3649 7.9167C11.3897 7.3481 12.0833 6.2551 12.0833 5.0001 12.0833 3.1591 10.5908 1.6667 8.7499 1.6667 6.9089 1.6667 5.4166 3.1591 5.4166 5.0001 5.4166 6.2551 6.1101 7.3481 7.1349 7.9167" stroke="currentColor" stroke-linecap="round" stroke-width="2"/>
  <path d="M14.5971 3.3301L16.0499 4.5307C16.2625 4.7574 16.298 4.9283 16.1932 5.1794 16.1552 5.2703 16.0907 5.3472 16.0169 5.4125L14.5971 6.6708M12.1638 4.9842H15.2777" stroke="currentColor" stroke-linecap="round" stroke-linejoin="round" stroke-width="2"/>
</svg>
