<svg xmlns="http://www.w3.org/2000/svg" width="20" height="20" viewBox="0 0 20 20" fill="none">
  <path d="M8.9017 7.0744C8.0559 6.5648 7.4902 5.6377 7.4902 4.5785 7.4902 2.9703 8.7942 1.6667 10.4028 1.6667 12.0113 1.6667 13.3153 2.9703 13.3153 4.5785 13.3153 5.6377 12.7495 6.5648 11.9038 7.0744" stroke="currentColor" stroke-width="2"/>
  <path d="M8.7942 18.279L8.8153 17.7537C8.836 17.2403 8.7012 16.7293 8.4155 16.3 7.2917 14.6108 6.4329 13.6488 5.256 12.0012 5.1628 11.8707 5.0756 11.7324 5.0388 11.5766 4.755 10.3726 6.2215 8.8055 7.5799 10.6103L8.9059 11.9705 8.9059 5.2699C9.0817 3.8969 11.2423 3.6246 11.6067 5.2699L11.6067 8.3882C12.9543 8.2656 18.4016 9.2033 17.3735 12.9423 17.3253 13.1176 17.2793 13.2965 17.2317 13.4719 17.0585 14.1108 16.635 15.0436 16.2273 15.8387 15.7738 16.7228 15.8932 17.9717 15.8163 18.3342" stroke="currentColor" stroke-linecap="round" stroke-linejoin="round" stroke-width="2"/>
  <path d="M7.2655 4.1571H2.4984M2.4984 4.1571C2.6143 4.5199 2.9297 4.7398 3.1995 4.9869L4.1893 5.825M2.4984 4.1571C2.5927 3.7881 2.9364 3.5494 3.1995 3.3L4.1893 2.4512" stroke="currentColor" stroke-linecap="round" stroke-linejoin="round" stroke-width="2"/>
</svg>
