<svg xmlns="http://www.w3.org/2000/svg" width="20" height="20" viewBox="0 0 20 20" fill="none">
  <path d="M17.47 3.3333H14.1433M17.47 3.3333C17.47 3.8001 16.2273 4.6723 15.8066 5M17.47 3.3333C17.47 2.8665 16.2273 1.9944 15.8066 1.6667" stroke="currentColor" stroke-linecap="round" stroke-linejoin="round" stroke-width="2"/>
  <path d="M2.4993 3.3333H5.8261M2.4993 3.3333C2.4993 2.8665 3.7421 1.9944 4.1627 1.6667M2.4993 3.3333C2.4993 3.8001 3.7421 4.6723 4.1627 5" stroke="currentColor" stroke-linecap="round" stroke-linejoin="round" stroke-width="2"/>
  <path d="M8.1792 18.3338V17.5496C8.1792 17.0097 8.0044 16.4842 7.6809 16.0518L4.4953 11.7945C4.2306 11.4407 4.0332 11.0118 4.1547 10.5869 4.4549 9.5378 5.6399 8.6051 6.9658 10.2478L8.2993 11.6707V2.9948C8.3811 1.4705 10.9438 0.989 11.2087 2.9948V7.9392C12.4442 7.7801 18.2635 8.6483 17.4169 12.3264 17.3764 12.5022 17.336 12.6806 17.2964 12.8566 17.1244 13.6217 16.6173 14.9833 16.058 15.7796 15.4754 16.6091 15.7475 17.9461 15.681 18.3349" stroke="currentColor" stroke-linecap="round" stroke-linejoin="round" stroke-width="2"/>
</svg>
