<svg xmlns="http://www.w3.org/2000/svg" width="20" height="20" viewBox="0 0 20 20" fill="none">
  <path d="M9.4131 8.1018H10.1958C11.0605 8.1018 11.7615 8.8066 11.7615 9.6759M11.7615 9.6759V10.4629M11.7615 9.6759C11.7615 9.2412 12.1119 8.8888 12.5443 8.8888 13.4089 8.8888 14.1099 9.5936 14.1099 10.4629M14.1099 10.4629V11.2499M14.1099 10.4629C14.1099 10.0509 14.4778 9.7375 14.8821 9.8052L15.1501 9.8502C15.905 9.9767 16.4583 10.6333 16.4583 11.4028L16.458 11.7748C16.458 13.4853 16.458 14.3405 16.1988 15.0214 16.0485 15.4163 15.6519 15.9201 15.3348 16.2841 15.0605 16.5989 14.8924 16.9983 14.8924 17.4168V18.3333M9.4129 9.6759V5.3472C9.4129 4.6952 8.8872 4.1667 8.2387 4.1667 7.5902 4.1667 7.0645 4.6952 7.0645 5.3472L7.0643 11.6139 5.7959 10.3347C5.2394 9.7733 4.3227 9.8246 3.831 10.4444 3.4548 10.9187 3.4444 11.5896 3.8058 12.0755L6.6236 15.6944C7.1628 16.3868 7.4558 17.454 7.4558 18.3333" stroke="currentColor" stroke-linecap="round" stroke-linejoin="round" stroke-width="2"/>
  <path d="M9.74 7.9167C10.7648 7.348 11.4583 6.255 11.4583 5 11.4583 3.1591 9.9659 1.6667 8.125 1.6667 6.2841 1.6667 4.7917 3.1591 4.7917 5 4.7917 6.255 5.4852 7.348 6.51 7.9167" stroke="currentColor" stroke-linecap="round" stroke-width="2"/>
  <path d="M13.9322 3.3301L15.3852 4.5307C15.5977 4.7573 15.6332 4.9282 15.5284 5.1793 15.4904 5.2703 15.4259 5.3471 15.3522 5.4125L13.9322 6.6708M11.499 4.9842H14.6129" stroke="currentColor" stroke-linecap="round" stroke-linejoin="round" stroke-width="2"/>
</svg>
