<svg xmlns="http://www.w3.org/2000/svg" width="20" height="20" viewBox="0 0 20 20" fill="none">
  <path d="M18.3333 11.6537C18.3333 14.3314 16.2155 16.0233 14.3623 17.1832 13.7423 17.6078 12.9243 17.6078 12.3044 17.1832 10.4512 16.0233 8.3333 14.3314 8.3333 11.6537V9.751C8.3333 8.2792 8.3333 7.5432 8.9737 6.8323 9.6141 6.1214 10.1839 6.0604 11.3237 5.9385 11.9495 5.8715 12.6266 5.835 13.3333 5.835 14.0401 5.835 14.7172 5.8715 15.343 5.9385 16.4827 6.0604 17.0526 6.1214 17.693 6.8323 18.3333 7.5432 18.3333 8.2792 18.3333 9.751V11.6537Z" stroke="currentColor" stroke-linejoin="round" stroke-width="2"/>
  <path d="M15 12.9002C14.6673 13.3971 14.0455 13.7314 13.3333 13.7314 12.6212 13.7314 11.9993 13.3971 11.6667 12.9002" stroke="currentColor" stroke-linecap="round" stroke-linejoin="round" stroke-width="2"/>
  <path d="M15 9.5752H15.8333" stroke="currentColor" stroke-linecap="round" stroke-linejoin="round" stroke-width="2"/>
  <path d="M10.8333 9.5752H11.6667" stroke="currentColor" stroke-linecap="round" stroke-linejoin="round" stroke-width="2"/>
  <path d="M8.5393 14.1575C8.2759 14.1864 8.004 14.1578 7.7433 14.0663 5.6778 13.4365 3.2234 12.3691 2.5371 9.8306L2.0494 8.0268C1.6722 6.6315 1.4835 5.9338 1.9123 5.0976 2.3411 4.2614 2.8692 4.0592 3.9254 3.6548 4.5054 3.4328 5.1421 3.2265 5.8164 3.0474 6.4908 2.8684 7.1462 2.7315 7.7605 2.6364 8.8792 2.4632 9.4386 2.3766 10.2318 2.8883 11.025 3.4 11.2137 4.0977 11.5909 5.493L11.6667 5.7732" stroke="currentColor" stroke-linecap="round" stroke-linejoin="round" stroke-width="2"/>
  <path d="M6.2783 10.9098C6.4729 10.3225 6.9927 9.8208 7.6885 9.6299 7.8713 9.5798 8.0541 9.5544 8.2324 9.5518M4.4824 7.3831L5.2966 7.1598" stroke="currentColor" stroke-linecap="round" stroke-linejoin="round" stroke-width="2"/>
</svg>
