<svg xmlns="http://www.w3.org/2000/svg" width="20" height="20" viewBox="0 0 20 20" fill="none">
  <path d="M13.3333 7.5C13.3333 4.2783 10.7217 1.6667 7.5 1.6667 4.2783 1.6667 1.6667 4.2783 1.6667 7.5 1.6667 10.7217 4.2783 13.3333 7.5 13.3333" stroke="currentColor" stroke-width="2"/>
  <path d="M13.3333 7.5H12.5C10.143 7.5 8.9645 7.5 8.2322 8.2322 7.5 8.9645 7.5 10.143 7.5 12.5V13.3333C7.5 15.6903 7.5 16.8688 8.2322 17.6011 8.9645 18.3333 10.143 18.3333 12.5 18.3333H13.3333C15.6903 18.3333 16.8688 18.3333 17.6011 17.6011 18.3333 16.8688 18.3333 15.6903 18.3333 13.3333V12.5C18.3333 10.143 18.3333 8.9645 17.6011 8.2322 16.8688 7.5 15.6903 7.5 13.3333 7.5Z" stroke="currentColor" stroke-width="2"/>
</svg>
