<svg xmlns="http://www.w3.org/2000/svg" width="20" height="20" viewBox="0 0 20 20" fill="none">
  <path d="M5.2239 6.6383C4.6258 7.2149 4.3268 7.5032 3.9625 7.5 3.1101 7.4925 1.6054 5.8368 1.6686 4.9883 1.6942 4.6449 1.9994 4.3875 2.6098 3.8725L4.441 2.3279C4.9825 1.8712 5.7277 1.8529 6.4044 1.7225 6.6743 1.6704 6.8093 1.6444 6.9293 1.6908 7.3162 1.8403 7.6352 2.544 7.8659 2.8618 8.8367 4.1986 9.322 4.8671 10.0002 4.8671 10.6784 4.8671 11.1638 4.1986 12.1346 2.8618 12.3653 2.544 12.6843 1.8403 13.0712 1.6908 13.1912 1.6444 13.3261 1.6704 13.5961 1.7225 14.2992 1.858 14.9937 1.8507 15.5595 2.3279L17.3906 3.8725C18.0011 4.3875 18.3063 4.6449 18.3318 4.9883 18.3951 5.8368 16.8904 7.4925 16.038 7.5 15.6737 7.5032 15.3747 7.2149 14.7766 6.6383" stroke="currentColor" stroke-linecap="round" stroke-linejoin="round" stroke-width="2"/>
  <path d="M5 5.8333C6.25 7.5 5.7966 9.3179 5.4984 11.0148 5.1834 12.8068 4.6525 13.8968 4.3497 15.3677 4.1418 16.3776 4.0379 16.8826 4.4447 17.3097 5.5932 18.5153 14.1118 18.8251 15.5553 17.3097 15.9622 16.8826 15.8582 16.3776 15.6503 15.3677 15.3476 13.8968 14.8167 12.8068 14.5017 11.0148 14.2034 9.3179 13.75 7.5 15 5.8333" stroke="currentColor" stroke-linecap="round" stroke-linejoin="round" stroke-width="2"/>
</svg>
