<svg xmlns="http://www.w3.org/2000/svg" width="20" height="20" viewBox="0 0 20 20" fill="none">
  <path d="M15.8333 13.3333C16.25 13.6111 16.9167 14.5 16.25 15.8333 15.5833 17.1667 16.25 18.0556 16.6667 18.3333M15.8333 13.3333H4.1667M15.8333 13.3333V10.8333M4.1667 13.3333C3.75 13.6111 3.0833 14.5 3.75 15.8333 4.4167 17.1667 3.75 18.0556 3.3333 18.3333M4.1667 13.3333V10.8333M16.6667 10.8333H15.8333M3.3333 10.8333H4.1667M15.8333 10.8333H4.1667" stroke="currentColor" stroke-linecap="round" stroke-linejoin="round" stroke-width="2"/>
  <path d="M5.8333 6.25C5.8333 8.7813 7.6988 10.8333 10 10.8333 12.3012 10.8333 14.1667 8.7813 14.1667 6.25 14.1667 3.7187 12.3012 1.6667 10 1.6667 7.6988 1.6667 5.8333 3.7187 5.8333 6.25Z" stroke="currentColor" stroke-width="2"/>
  <path d="M9.1667 5.8333L10.4167 4.5833" stroke="currentColor" stroke-linecap="round" stroke-linejoin="round" stroke-width="2"/>
  <path d="M9.5833 7.9167L10.8333 6.6667" stroke="currentColor" stroke-linecap="round" stroke-linejoin="round" stroke-width="2"/>
</svg>
