<svg xmlns="http://www.w3.org/2000/svg" width="20" height="20" viewBox="0 0 20 20" fill="none">
  <path d="M8.3333 9.1667H5C4.225 9.1667 3.8375 9.1667 3.5196 9.0815 2.6569 8.8503 1.983 8.1764 1.7519 7.3137 1.6667 6.9958 1.6667 6.6083 1.6667 5.8333 1.6667 5.0584 1.6667 4.6709 1.7519 4.3529 1.983 3.4902 2.6569 2.8164 3.5196 2.5852 3.8375 2.5 4.225 2.5 5 2.5H8.3333C9.9047 2.5 10.6903 2.5 11.1785 2.9882 11.6667 3.4763 11.6667 4.262 11.6667 5.8333 11.6667 7.4047 11.6667 8.1904 11.1785 8.6785 10.6903 9.1667 9.9047 9.1667 8.3333 9.1667Z" stroke="currentColor" stroke-linecap="round" stroke-linejoin="round" stroke-width="2"/>
  <path d="M1.6667 16.6667V15.8333C1.6667 15.3731 2.0398 15 2.5 15H7.5C8.4205 15 9.1667 15.7462 9.1667 16.6667 9.1667 17.1269 8.7936 17.5 8.3333 17.5H2.5C2.0398 17.5 1.6667 17.1269 1.6667 16.6667Z" stroke="currentColor" stroke-linecap="round" stroke-linejoin="round" stroke-width="2"/>
  <path d="M9.1667 9.1667V10C9.1667 10.9205 9.9128 11.6667 10.8333 11.6667" stroke="currentColor" stroke-linecap="round" stroke-linejoin="round" stroke-width="2"/>
  <path d="M2.5 15L4.1667 9.1667H7.5L5.8333 15H2.5Z" stroke="currentColor" stroke-linecap="round" stroke-linejoin="round" stroke-width="2"/>
  <path d="M15 5.8333H18.3333" stroke="currentColor" stroke-linecap="round" stroke-linejoin="round" stroke-width="2"/>
  <path d="M11.6667 7.5H13.3333C13.7208 7.5 13.9146 7.5 14.0735 7.4574 14.5049 7.3418 14.8418 7.0049 14.9574 6.5735 15 6.4146 15 6.2208 15 5.8333 15 5.4458 15 5.2521 14.9574 5.0931 14.8418 4.6618 14.5049 4.3248 14.0735 4.2093 13.9146 4.1667 13.7208 4.1667 13.3333 4.1667H11.6667V7.5Z" stroke="currentColor" stroke-linecap="round" stroke-linejoin="round" stroke-width="2"/>
</svg>
