<svg xmlns="http://www.w3.org/2000/svg" width="20" height="20" viewBox="0 0 20 20" fill="none">
  <path d="M16.6667 15.8333V8.3333C16.6667 5.1906 16.6667 3.6193 15.7478 2.643 14.8289 1.6667 13.35 1.6667 10.3922 1.6667L9.6078 1.6667C6.65 1.6667 5.1711 1.6667 4.2522 2.643 3.3333 3.6193 3.3333 5.1906 3.3333 8.3333L3.3333 15.8333" stroke="currentColor" stroke-linecap="round" stroke-linejoin="round" stroke-width="2"/>
  <path d="M14.1667 13.3333H5.8333C4.4526 13.3333 3.3333 14.4526 3.3333 15.8333 3.3333 17.2141 4.4526 18.3333 5.8333 18.3333H14.1667C15.5474 18.3333 16.6667 17.2141 16.6667 15.8333 16.6667 14.4526 15.5474 13.3333 14.1667 13.3333Z" stroke="currentColor" stroke-linecap="round" stroke-linejoin="round" stroke-width="2"/>
  <path d="M8.75 9.1667H11.25M10 5.625V5.8333M9.5833 8.3333H10.4167C11.3372 8.3333 12.0833 9.0795 12.0833 10H7.9167C7.9167 9.0795 8.6628 8.3333 9.5833 8.3333ZM10.625 5.625C10.625 5.9702 10.3452 6.25 10 6.25 9.6548 6.25 9.375 5.9702 9.375 5.625 9.375 5.2798 9.6548 5 10 5 10.3452 5 10.625 5.2798 10.625 5.625Z" stroke="currentColor" stroke-linecap="round" stroke-linejoin="round" stroke-width="2"/>
  <path d="M6.1458 15.8333H6.0417M6.25 15.8333C6.25 15.9484 6.1567 16.0417 6.0417 16.0417 5.9266 16.0417 5.8333 15.9484 5.8333 15.8333 5.8333 15.7182 5.9266 15.625 6.0417 15.625 6.1567 15.625 6.25 15.7182 6.25 15.8333Z" stroke="currentColor" stroke-linecap="round" stroke-linejoin="round" stroke-width="2"/>
  <path d="M9.0625 15.8333H8.9583M9.1667 15.8333C9.1667 15.9484 9.0734 16.0417 8.9583 16.0417 8.8433 16.0417 8.75 15.9484 8.75 15.8333 8.75 15.7182 8.8433 15.625 8.9583 15.625 9.0734 15.625 9.1667 15.7182 9.1667 15.8333Z" stroke="currentColor" stroke-linecap="round" stroke-linejoin="round" stroke-width="2"/>
</svg>
