<svg xmlns="http://www.w3.org/2000/svg" width="20" height="20" viewBox="0 0 20 20" fill="none">
  <path d="M11.6667 5.0127C11.8698 3.5921 13.0917 2.5 14.5685 2.5 16.1875 2.5 17.5 3.8125 17.5 5.4315 17.5 6.9084 16.4079 8.1301 14.9873 8.3333" stroke="currentColor" stroke-linecap="round" stroke-linejoin="round" stroke-width="2"/>
  <path d="M8.3333 5.0127C8.1301 3.5921 6.9084 2.5 5.4315 2.5 3.8125 2.5 2.5 3.8125 2.5 5.4315 2.5 6.9084 3.5921 8.1301 5.0127 8.3333" stroke="currentColor" stroke-linecap="round" stroke-linejoin="round" stroke-width="2"/>
  <path d="M11.6667 14.9873C11.8698 16.4079 13.0917 17.5 14.5685 17.5 16.1875 17.5 17.5 16.1875 17.5 14.5685 17.5 13.0917 16.4079 11.8698 14.9873 11.6667" stroke="currentColor" stroke-linecap="round" stroke-linejoin="round" stroke-width="2"/>
  <path d="M8.3333 14.9873C8.1301 16.4079 6.9084 17.5 5.4315 17.5 3.8125 17.5 2.5 16.1875 2.5 14.5685 2.5 13.0917 3.5921 11.8698 5.0127 11.6667" stroke="currentColor" stroke-linecap="round" stroke-linejoin="round" stroke-width="2"/>
  <path d="M8.5288 12.3732C8.8352 12.5 9.2234 12.5 10 12.5 10.7766 12.5 11.1648 12.5 11.4712 12.3732 11.8795 12.204 12.204 11.8795 12.3732 11.4712 12.5 11.1648 12.5 10.7766 12.5 10 12.5 9.2234 12.5 8.8352 12.3732 8.5288 12.204 8.1205 11.8795 7.796 11.4712 7.6269 11.1648 7.5 10.7766 7.5 10 7.5 9.2234 7.5 8.8352 7.5 8.5288 7.6269 8.1205 7.796 7.796 8.1205 7.6269 8.5288 7.5 8.8352 7.5 9.2234 7.5 10 7.5 10.7766 7.5 11.1648 7.6269 11.4712 7.796 11.8795 8.1205 12.204 8.5288 12.3732Z" stroke="currentColor" stroke-linecap="round" stroke-linejoin="round" stroke-width="2"/>
  <path d="M12.0833 12.0833L14.1667 14.1667M7.9167 12.0833L5.8333 14.1667M12.0833 7.9167L14.1667 5.8333M7.9167 7.9167L5.8333 5.8333" stroke="currentColor" stroke-linecap="round" stroke-linejoin="round" stroke-width="2"/>
</svg>
