<svg xmlns="http://www.w3.org/2000/svg" width="20" height="20" viewBox="0 0 20 20" fill="none">
  <path d="M8.3333 7.0833H7.2559C6.8786 7.0833 6.5168 7.2332 6.25 7.5M11.6667 7.0833H12.7441C13.1213 7.0833 13.4832 7.2332 13.75 7.5" stroke="currentColor" stroke-linecap="round" stroke-linejoin="round" stroke-width="2"/>
  <path d="M13.3333 17.6399C12.3126 18.0859 11.1852 18.3333 10 18.3333 5.3976 18.3333 1.6667 14.6023 1.6667 10 1.6667 5.3976 5.3976 1.6667 10 1.6667 14.6023 1.6667 18.3333 5.3976 18.3333 10 18.3333 12.0243 17.6115 13.8802 16.4112 15.324" stroke="currentColor" stroke-linecap="round" stroke-linejoin="round" stroke-width="2"/>
  <path d="M6.6667 12.5C7.4268 13.512 8.6369 14.1667 10 14.1667 11.3631 14.1667 12.5732 13.512 13.3333 12.5" stroke="currentColor" stroke-linecap="round" stroke-linejoin="round" stroke-width="2"/>
  <path d="M12.5 13.3333C14.1203 13.7318 17.1447 14.5671 16.6024 17.1153 16.3227 18.3754 14.8578 18.6083 14.0625 18.0413 12.1477 16.6763 14.0625 15.3333 12.5 13.3333Z" stroke="currentColor" stroke-linejoin="round" stroke-width="2"/>
</svg>
