<svg xmlns="http://www.w3.org/2000/svg" width="20" height="20" viewBox="0 0 20 20" fill="none">
  <path d="M10 5.4167L14.5833 7.9167 10 10.4167 5.4167 7.9167 10 5.4167Z" stroke="currentColor" stroke-linecap="round" stroke-linejoin="round" stroke-width="2"/>
  <path d="M5 12.5V13.9994C5 14.8602 5.1535 15.1284 5.9213 15.5201L9.2547 17.2202C9.9862 17.5933 10.0138 17.5933 10.7453 17.2202L14.0787 15.5201C14.8465 15.1284 15 14.8602 15 13.9994V12.5" stroke="currentColor" stroke-linecap="round" stroke-linejoin="round" stroke-width="2"/>
  <path d="M11.9472 3.467L10 5.2276 8.0528 3.467C7.3663 2.8463 7.0231 2.5359 6.6032 2.5029 6.1833 2.4698 5.7985 2.7228 5.0289 3.2289L3.6351 4.1455C2.8877 4.6369 2.5139 4.8827 2.5004 5.2478 2.4868 5.613 2.8412 5.8876 3.5499 6.4369L5.3623 7.8415 3.5499 9.2462C2.8412 9.7954 2.4868 10.0701 2.5004 10.4352 2.5139 10.8003 2.8877 11.0461 3.6351 11.5376L5.7748 12.9446C6.1852 13.2145 6.3904 13.3494 6.6144 13.3318 6.8383 13.3142 7.0214 13.1487 7.3875 12.8176L10 10.4555 11.9472 12.2161C12.6337 12.8368 12.9769 13.1471 13.3968 13.1802 13.8167 13.2133 14.2015 12.9602 14.9711 12.4542L14.9711 12.4542 16.3649 11.5376C17.1123 11.0461 17.4861 10.8003 17.4997 10.4352 17.5132 10.0701 17.1588 9.7954 16.4501 9.2462L14.6377 7.8415 16.4501 6.4369C17.1588 5.8876 17.5132 5.613 17.4997 5.2478 17.4861 4.8827 17.1123 4.6369 16.3649 4.1455L14.9711 3.2289C14.2015 2.7228 13.8167 2.4698 13.3968 2.5029 12.9769 2.5359 12.6337 2.8463 11.9472 3.467Z" stroke="currentColor" stroke-linecap="round" stroke-linejoin="round" stroke-width="2"/>
</svg>
