<svg xmlns="http://www.w3.org/2000/svg" width="20" height="20" viewBox="0 0 20 20" fill="none">
  <path d="M13.3333 15.2813C12.2652 16.6335 10.6092 17.5017 8.75 17.5017 5.5283 17.5017 2.9167 14.8948 2.9167 11.6792 2.9167 8.9873 5.3606 5.5984 7.0847 3.5426 7.4994 3.0481 7.7067 2.8009 8.0373 2.6448 8.4415 2.4539 9.0587 2.4539 9.4628 2.6448 9.7934 2.8009 10.0012 3.0487 10.4167 3.5442" stroke="currentColor" stroke-linecap="round" stroke-linejoin="round" stroke-width="2"/>
  <path d="M14.1667 12.5289C15.7775 12.5289 17.0833 11.1544 17.0833 9.4588 17.0833 8.6909 16.7258 7.8156 16.2611 7.0021 15.5097 5.6869 15.134 5.0293 14.1667 5.0293 13.1993 5.0293 12.8237 5.6869 12.0723 7.0021 11.6076 7.8156 11.25 8.6909 11.25 9.4588 11.25 11.1544 12.5558 12.5289 14.1667 12.5289Z" stroke="currentColor" stroke-linejoin="round" stroke-width="2"/>
  <path d="M8.75 14.196C7.3693 14.196 6.25 13.0767 6.25 11.696" stroke="currentColor" stroke-linecap="round" stroke-linejoin="round" stroke-width="2"/>
</svg>
