<svg xmlns="http://www.w3.org/2000/svg" width="20" height="20" viewBox="0 0 20 20" fill="none">
  <path d="M15 3.3333H5C3.8332 3.3333 3.2498 3.3333 2.8042 3.5604 2.4122 3.7601 2.0935 4.0789 1.8937 4.4709 1.6667 4.9165 1.6667 5.4999 1.6667 6.6667 1.6667 7.8334 1.6667 8.4168 1.8937 8.8625 2.0935 9.2545 2.4122 9.5732 2.8042 9.7729 3.2498 10 3.8332 10 5 10H15C16.1668 10 16.7502 10 17.1958 9.7729 17.5878 9.5732 17.9065 9.2545 18.1062 8.8625 18.3333 8.4168 18.3333 7.8334 18.3333 6.6667 18.3333 5.4999 18.3333 4.9165 18.1062 4.4709 17.9065 4.0789 17.5878 3.7601 17.1958 3.5604 16.7502 3.3333 16.1668 3.3333 15 3.3333Z" stroke="currentColor" stroke-linecap="round" stroke-linejoin="round" stroke-width="2"/>
  <path d="M15 5.8334C15 5.8334 13.7725 7.5 13.3333 7.5 12.8941 7.5 11.6667 5.8333 11.6667 5.8333" stroke="currentColor" stroke-linecap="round" stroke-linejoin="round" stroke-width="2"/>
  <path d="M1.6667 13.3333H11.6667" stroke="currentColor" stroke-linecap="round" stroke-linejoin="round" stroke-width="2"/>
  <path d="M1.6667 16.6667H11.6667" stroke="currentColor" stroke-linecap="round" stroke-linejoin="round" stroke-width="2"/>
</svg>
