<svg xmlns="http://www.w3.org/2000/svg" width="20" height="20" viewBox="0 0 20 20" fill="none">
  <path d="M10.0008 14.9995C11.3523 14.9995 12.5161 14.195 13.0393 13.0388" stroke="currentColor" stroke-linecap="round" stroke-linejoin="round" stroke-width="2"/>
  <path d="M1.6667 1.6667L18.3333 18.3333" stroke="currentColor" stroke-linecap="round" stroke-linejoin="round" stroke-width="2"/>
  <path d="M7.3138 3.1472C7.548 2.9089 7.7768 2.6849 7.9958 2.4769 9.1333 1.3966 10.8681 1.3966 12.0056 2.4769 14.1001 4.4659 17.0841 7.9116 17.0841 11.3983 17.0841 11.8582 17.0355 12.3197 16.9408 12.7742M5.3759 5.3759C4.0314 7.1528 2.9174 9.2679 2.9174 11.3983 2.9174 14.817 5.5997 18.3333 10.0008 18.3333 12.4805 18.3333 14.4146 17.2169 15.6308 15.6308" stroke="currentColor" stroke-linecap="round" stroke-linejoin="round" stroke-width="2"/>
</svg>
