<svg xmlns="http://www.w3.org/2000/svg" width="20" height="20" viewBox="0 0 20 20" fill="none">
  <path d="M9.406 6.6668L3.9014 12.1714C3.3774 12.6954 3.1066 13.3768 3.089 14.0635 3.0653 14.9884 3.0535 15.4509 2.9833 15.6144 2.9131 15.778 2.753 15.9381 2.4329 16.2582L1.9378 16.7533C1.5763 17.1148 1.5763 17.7008 1.9378 18.0623 2.2993 18.4238 2.8854 18.4238 3.2469 18.0623L3.742 17.5673C4.0621 17.2472 4.2222 17.0871 4.3857 17.0169 4.5492 16.9467 5.0117 16.9348 5.9366 16.9112 6.6233 16.8936 7.3047 16.6227 7.8288 16.0987L9.4356 14.4919M12.0243 11.9032L13.3333 10.5942M12.0243 11.9032L10.7152 10.5942M12.0243 11.9032L9.4356 14.4919M9.4356 14.4919L8.1265 13.1828" stroke="currentColor" stroke-linecap="round" stroke-linejoin="round" stroke-width="2"/>
  <path d="M17.5567 6.1934L16.2502 7.4999C15.5598 8.1903 15.5598 9.3096 16.2502 10L10 3.7498C10.6904 4.4402 11.8097 4.4402 12.5001 3.7498L13.8066 2.4433C14.8421 1.4078 16.5211 1.4078 17.5567 2.4433 18.5922 3.4789 18.5922 5.1579 17.5567 6.1934Z" stroke="currentColor" stroke-linecap="round" stroke-linejoin="round" stroke-width="2"/>
</svg>
