<svg xmlns="http://www.w3.org/2000/svg" width="20" height="20" viewBox="0 0 20 20" fill="none">
  <path d="M6.9535 11.2517L5.1539 13.0513C4.9309 13.2743 4.8194 13.3857 4.7072 13.4143 4.595 13.4428 4.3439 13.3687 3.8416 13.2203 3.2657 13.0503 2.6172 13.1925 2.1628 13.647 1.5013 14.3084 1.5013 15.3809 2.1628 16.0423 2.2793 16.1589 2.4086 16.2547 2.5462 16.3299 2.9945 16.5749 3.2186 16.6975 3.2614 16.7402 3.3042 16.783 3.4267 17.0072 3.6717 17.4554 3.7469 17.593 3.8427 17.7223 3.9593 17.8388 4.6207 18.5003 5.6932 18.5003 6.3546 17.8388 6.8091 17.3844 6.9513 16.7358 6.7813 16.16 6.633 15.6578 6.5588 15.4066 6.5873 15.2944 6.6159 15.1822 6.7274 15.0708 6.9504 14.8477L8.75 13.0482" stroke="currentColor" stroke-linecap="round" stroke-linejoin="round" stroke-width="2"/>
  <path d="M17.2582 9.8697C18.8981 8.2298 18.6322 5.3051 16.6643 3.3373 14.6965 1.3694 11.7718 1.1036 10.132 2.7434 9.9597 2.9157 9.8084 3.1022 9.678 3.3003 8.617 4.9111 8.6306 7.0658 7.7454 8.7795L7.3397 9.565C6.8806 10.4538 7.0492 11.5376 7.7566 12.245 8.464 12.9524 9.5478 13.121 10.4367 12.6619L11.2221 12.2562C12.9358 11.3711 15.0905 11.3847 16.7013 10.3237 16.8994 10.1932 17.0859 10.0419 17.2582 9.8697Z" stroke="currentColor" stroke-linecap="round" stroke-linejoin="round" stroke-width="2"/>
</svg>
