<svg xmlns="http://www.w3.org/2000/svg" width="20" height="20" viewBox="0 0 20 20" fill="none">
  <path d="M4.1714 15.0053C4.3014 12.9258 4.6843 11.404 5.0086 10.5201 5.1724 10.0738 5.5247 9.7415 5.9758 9.6302 8.4788 9.0122 11.5212 9.0122 14.0242 9.6302 14.4753 9.7415 14.8276 10.0738 14.9913 10.5201 15.3158 11.404 15.6986 12.9258 15.8286 15.0053 15.9057 16.2379 15.0366 16.929 14.0501 17.4361 13.7599 17.5853 13.407 17.4643 13.2619 17.166L12.5769 15.7574C12.4381 15.4718 12.1463 15.2903 11.8261 15.2903H8.1739C7.8538 15.2903 7.5619 15.4718 7.4231 15.7574L6.7381 17.166C6.593 17.4643 6.2401 17.5853 5.9499 17.4361 4.9634 16.929 4.0944 16.2379 4.1714 15.0053Z" stroke="currentColor" stroke-linecap="round" stroke-linejoin="round" stroke-width="2"/>
  <path d="M18.3333 12.5V9.1667C18.3333 6.024 18.3333 4.4526 17.357 3.4763 16.3808 2.5 14.8093 2.5 11.6667 2.5H8.3333C5.1906 2.5 3.6193 2.5 2.643 3.4763 1.6667 4.4526 1.6667 6.024 1.6667 9.1667V12.5" stroke="currentColor" stroke-linecap="round" stroke-linejoin="round" stroke-width="2"/>
  <path d="M8.75 5.8333H11.25" stroke="currentColor" stroke-linecap="round" stroke-linejoin="round" stroke-width="2"/>
  <path d="M7.6042 12.5H7.5M7.7083 12.5C7.7083 12.6151 7.6151 12.7083 7.5 12.7083 7.3849 12.7083 7.2917 12.6151 7.2917 12.5 7.2917 12.3849 7.3849 12.2917 7.5 12.2917 7.6151 12.2917 7.7083 12.3849 7.7083 12.5Z" stroke="currentColor" stroke-linecap="round" stroke-width="2"/>
  <path d="M12.6042 12.5H12.5M12.7083 12.5C12.7083 12.6151 12.6151 12.7083 12.5 12.7083 12.3849 12.7083 12.2917 12.6151 12.2917 12.5 12.2917 12.3849 12.3849 12.2917 12.5 12.2917 12.6151 12.2917 12.7083 12.3849 12.7083 12.5Z" stroke="currentColor" stroke-linecap="round" stroke-width="2"/>
</svg>
