<svg xmlns="http://www.w3.org/2000/svg" width="20" height="20" viewBox="0 0 20 20" fill="none">
  <path d="M15.8333 10.8333L15.2848 10.2848C14.658 9.658 13.6502 9.6315 12.9913 10.2245L10.8276 12.1718C10.3008 12.6459 10 13.3213 10 14.0301V17.5H12.2388C12.9365 17.5 13.6025 17.2084 14.0757 16.6957L17.6703 12.8016C18.0966 12.3398 18.3333 11.7343 18.3333 11.1058V5H17.5C16.5795 5 15.8333 5.7462 15.8333 6.6667V10.8333ZM15.8333 10.8333L13.3333 13.3333" stroke="currentColor" stroke-linecap="round" stroke-linejoin="round" stroke-width="2"/>
  <path d="M4.1667 10.8333L4.7152 10.2848C5.342 9.658 6.3498 9.6315 7.0087 10.2245L9.1724 12.1718C9.6992 12.6459 10 13.3213 10 14.0301V17.5H7.7612C7.0635 17.5 6.3975 17.2084 5.9242 16.6957L2.3297 12.8016C1.9034 12.3398 1.6667 11.7343 1.6667 11.1058V5H2.5C3.4205 5 4.1667 5.7462 4.1667 6.6667V10.8333ZM4.1667 10.8333L6.6667 13.3333" stroke="currentColor" stroke-linecap="round" stroke-linejoin="round" stroke-width="2"/>
  <path d="M12.5 6.1952C12.0289 6.9771 11.1717 7.5 10.1923 7.5 8.7054 7.5 7.5 6.2946 7.5 4.8077 7.5 3.8283 8.0229 2.9711 8.8048 2.5" stroke="currentColor" stroke-linecap="round" stroke-width="2"/>
  <path d="M11.7708 3.3333H11.6667M11.875 3.3333C11.875 3.4484 11.7818 3.5417 11.6667 3.5417 11.5516 3.5417 11.4583 3.4484 11.4583 3.3333 11.4583 3.2183 11.5516 3.125 11.6667 3.125 11.7818 3.125 11.875 3.2183 11.875 3.3333Z" stroke="currentColor" stroke-linecap="round" stroke-width="2"/>
</svg>
