<svg xmlns="http://www.w3.org/2000/svg" width="20" height="20" viewBox="0 0 20 20" fill="none">
  <path d="M13.3333 6.6667C13.1302 7.2761 12.7122 7.744 12.1205 8.0063 10.2202 8.8487 8.8487 10.2202 8.0063 12.1205 7.744 12.7122 7.2761 13.1302 6.6667 13.3333" stroke="currentColor" stroke-linejoin="round" stroke-width="2"/>
  <path d="M2.6667 17.3333L1.6667 18.3333M17.3333 2.6667L18.3333 1.6667" stroke="currentColor" stroke-linecap="round" stroke-linejoin="round" stroke-width="2"/>
  <path d="M14.8235 2.0183L13.5633 3.2293 16.7638 6.4597 17.9952 5.2641C18.3648 4.8288 18.4779 4.5008 18.0178 3.8968L17.0963 2.9277 16.1622 2.0062C15.565 1.4706 15.0947 1.7588 14.8235 2.0183Z" stroke="currentColor" stroke-linecap="round" stroke-linejoin="round" stroke-width="2"/>
  <path d="M11.6762 3.1313C12.6018 2.1532 13.2356 2.8493 13.5611 3.237L16.7342 6.4228C17.1291 6.7394 17.8516 7.3469 16.8967 8.2928 16.7426 8.4454 16.5915 8.6052 16.4241 8.743 15.8058 9.2516 15.2125 8.83 14.8981 8.4426L11.6683 5.2129C11.3283 4.9074 10.7407 4.3539 11.2369 3.6141 11.3707 3.4434 11.5272 3.2889 11.6762 3.1313Z" stroke="currentColor" stroke-linecap="round" stroke-linejoin="round" stroke-width="2"/>
  <path d="M3.8229 18.0168L2.8717 17.0768 1.9684 16.125C1.4324 15.589 1.7417 15.0529 2.0064 14.7868L3.2414 13.5503 6.4553 16.778 5.1903 18.0206C4.7479 18.3817 4.4446 18.4923 3.8496 18.0206M5.1861 11.6037C4.8606 11.216 4.2267 10.5198 3.3012 11.498 3.1522 11.6555 2.9957 11.81 2.8619 11.9808 2.3657 12.7206 2.9532 13.2741 3.2933 13.5795L6.5231 16.8092C6.8375 17.1967 7.4308 17.6182 8.049 17.1097 8.2165 16.9719 8.3676 16.8121 8.5217 16.6594 9.4766 15.7136 8.7541 15.1061 8.3592 14.7895L5.1861 11.6037Z" stroke="currentColor" stroke-linecap="round" stroke-linejoin="round" stroke-width="2"/>
</svg>
