<svg xmlns="http://www.w3.org/2000/svg" width="20" height="20" viewBox="0 0 20 20" fill="none">
  <path d="M6.4453 11.4436C6.4453 11.4436 7.1999 10.4252 7.6953 10.1933 9.191 9.4929 9.4953 9.1886 10.1953 7.6924 10.4273 7.1968 11.4453 6.442 11.4453 6.442M8.5287 13.5276C8.5287 13.5276 9.5467 12.7728 9.7787 12.2772 10.4788 10.7811 10.783 10.4768 12.2787 9.7764 12.7741 9.5444 13.5287 8.526 13.5287 8.526" stroke="currentColor" stroke-linecap="round" stroke-linejoin="round" stroke-width="2"/>
  <path d="M12.0259 2.4101C12.4483 1.9862 13.1343 1.9851 13.558 2.4076L17.5678 6.4061C17.9916 6.8286 17.9927 7.5147 17.5703 7.9386L16.2964 9.2169C15.874 9.6408 15.1881 9.6418 14.7643 9.2193L10.7545 5.2209C10.3308 4.7984 10.3298 4.1122 10.7521 3.6883L12.0259 2.4101Z" stroke="currentColor" stroke-width="2"/>
  <path d="M3.6781 10.7518C4.1005 10.328 4.7865 10.3269 5.2102 10.7494L9.2201 14.7478C9.6438 15.1704 9.6448 15.8565 9.2225 16.2804L7.9486 17.5587C7.5262 17.9826 6.8403 17.9837 6.4166 17.5611L2.4067 13.5627C1.983 13.1402 1.9819 12.454 2.4043 12.0302L3.6781 10.7518Z" stroke="currentColor" stroke-width="2"/>
  <path d="M14.9481 2.8771C16.5168 0.8212 19.2833 3.2001 17.1193 5.0239M2.8151 14.9811C0.8321 16.6406 3.3315 19.2988 5.0562 17.0547" stroke="currentColor" stroke-linecap="round" stroke-linejoin="round" stroke-width="2"/>
</svg>
