<svg xmlns="http://www.w3.org/2000/svg" width="20" height="20" viewBox="0 0 20 20" fill="none">
  <path d="M15.4167 5L10.7633 1.8978C10.5373 1.7471 10.2717 1.6667 10 1.6667 9.7283 1.6667 9.4627 1.7471 9.2367 1.8978L4.5833 5" stroke="currentColor" stroke-linecap="round" stroke-linejoin="round" stroke-width="2"/>
  <path d="M16.6667 11.6667L10.7633 7.7311C10.5373 7.5804 10.2717 7.5 10 7.5 9.7283 7.5 9.4627 7.5804 9.2367 7.7311L3.3333 11.6667" stroke="currentColor" stroke-linecap="round" stroke-linejoin="round" stroke-width="2"/>
  <path d="M15.4167 11.25V15C15.4167 16.5713 15.4167 17.357 14.9285 17.8452 14.4403 18.3333 13.6547 18.3333 12.0833 18.3333H7.9167C6.3453 18.3333 5.5596 18.3333 5.0715 17.8452 4.5833 17.357 4.5833 16.5713 4.5833 15V11.25" stroke="currentColor" stroke-linecap="round" stroke-linejoin="round" stroke-width="2"/>
  <path d="M14.1667 4.1667V10M5.8333 4.1667V10" stroke="currentColor" stroke-linecap="round" stroke-linejoin="round" stroke-width="2"/>
  <path d="M11.6667 18.3333V15C11.6667 14.0795 10.9205 13.3333 10 13.3333 9.0795 13.3333 8.3333 14.0795 8.3333 15V18.3333" stroke="currentColor" stroke-linecap="round" stroke-linejoin="round" stroke-width="2"/>
</svg>
