<svg xmlns="http://www.w3.org/2000/svg" width="20" height="20" viewBox="0 0 20 20" fill="none">
  <path d="M5.0641 15C5.0641 16.8409 6.0217 18.3333 7.7564 18.3333 9.4912 18.3333 10.8974 17.0833 11.3462 15 11.5613 14.0011 12.0022 13.3972 12.6923 12.9167 14.4872 11.6667 15.8333 9.7436 15.8333 7.5 15.8333 4.2783 13.2217 1.6667 10 1.6667 6.7783 1.6667 4.1667 4.2783 4.1667 7.5" stroke="currentColor" stroke-linecap="round" stroke-linejoin="round" stroke-width="2"/>
  <path d="M7.5 12.5C8.6542 12.5 9.5898 11.6605 9.5898 10.625 9.5898 9.5895 8.6542 8.75 7.5 8.75 7.5 7.0693 7.8865 5 10.0078 5 11.4998 5 12.3747 6.1451 12.5 7.625" stroke="currentColor" stroke-linecap="round" stroke-linejoin="round" stroke-width="2"/>
</svg>
