<svg xmlns="http://www.w3.org/2000/svg" width="20" height="20" viewBox="0 0 20 20" fill="none">
  <path d="M5.0641 15C5.0641 16.8409 6.0217 18.3333 7.7564 18.3333 9.4912 18.3333 10.8974 17.0833 11.3462 15 11.5613 14.0011 12.0022 13.3972 12.6923 12.9167 12.7363 12.886 12.7801 12.855 12.8235 12.8235M4.1667 7.5C4.1667 6.5331 4.4019 5.6212 4.8183 4.8183M6.7931 2.6265C7.7133 2.0198 8.8154 1.6667 10 1.6667 13.2217 1.6667 15.8333 4.2783 15.8333 7.5 15.8333 8.6692 15.4677 9.7515 14.8634 10.6967" stroke="currentColor" stroke-linecap="round" stroke-linejoin="round" stroke-width="2"/>
  <path d="M7.5 12.5C8.6542 12.5 9.5898 11.6605 9.5898 10.625 9.5898 9.5895 8.6542 8.75 7.5 8.75 7.5 8.3688 7.5199 7.9678 7.5754 7.5754M12.5 7.5C12.3747 6.0201 11.4998 5 10.0078 5 9.7323 5 9.486 5.0349 9.266 5.0994" stroke="currentColor" stroke-linecap="round" stroke-linejoin="round" stroke-width="2"/>
  <path d="M1.6667 1.6667L18.3333 18.3333" stroke="currentColor" stroke-linecap="round" stroke-linejoin="round" stroke-width="2"/>
</svg>
