<svg xmlns="http://www.w3.org/2000/svg" width="20" height="20" viewBox="0 0 20 20" fill="none">
  <path d="M9.5833 8.75C9.4015 8.3934 9.1438 8.1065 8.8348 7.9142 7.7341 7.2288 6.7733 7.505 6.1961 7.945 5.9595 8.1254 5.8412 8.2156 5.7716 8.2156 5.7019 8.2156 5.5836 8.1254 5.347 7.945 4.7698 7.505 3.809 7.2288 2.7083 7.9142 1.2636 8.8138 0.9367 11.7812 4.269 14.2848 4.9037 14.7616 5.221 15 5.7716 15 6.3221 15 6.6394 14.7616 7.2741 14.2848 7.4699 14.1377 7.653 13.989 7.824 13.8392" stroke="currentColor" stroke-linecap="round" stroke-width="2"/>
  <path d="M11.0573 10.4143C12.1746 9.7288 13.1498 10.0051 13.7357 10.445 13.9759 10.6254 14.096 10.7156 14.1667 10.7156 14.2373 10.7156 14.3574 10.6254 14.5977 10.445 15.1835 10.0051 16.1588 9.7288 17.2761 10.4143 18.7425 11.3138 19.0742 14.2812 15.6918 16.7848 15.0476 17.2616 14.7255 17.5 14.1667 17.5 13.6078 17.5 13.2858 17.2616 12.6415 16.7848 9.2591 14.2812 9.5908 11.3138 11.0573 10.4143Z" stroke="currentColor" stroke-linecap="round" stroke-width="2"/>
  <path d="M12.9167 6.25C12.9167 5.5596 13.4763 5 14.1667 5 14.857 5 15.4167 5.5596 15.4167 6.25 15.4167 7.2067 14.1667 7.2156 14.1667 7.9167V10.4167" stroke="currentColor" stroke-linecap="round" stroke-width="2"/>
  <path d="M4.5833 3.75C4.5833 3.0596 5.143 2.5 5.8333 2.5 6.5237 2.5 7.0833 3.0596 7.0833 3.75 7.0833 4.7067 5.8333 4.7156 5.8333 5.4167V7.9167" stroke="currentColor" stroke-linecap="round" stroke-width="2"/>
</svg>
