<svg xmlns="http://www.w3.org/2000/svg" width="20" height="20" viewBox="0 0 20 20" fill="none">
  <path d="M3.3333 11.6713C6.3333 11.6713 5.3333 15.0047 8.3333 15.0047" stroke="currentColor" stroke-width="2"/>
  <path d="M11.6667 11.6713C14.6667 11.6713 13.6667 15.0047 16.6667 15.0047" stroke="currentColor" stroke-width="2"/>
  <path d="M5.8333 17.4998C7.214 17.4998 8.3333 15.4485 8.3333 12.918 8.3333 10.3876 7.214 8.3363 5.8333 8.3363 4.4526 8.3363 3.3333 10.3876 3.3333 12.918 3.3333 15.4485 4.4526 17.4998 5.8333 17.4998Z" stroke="currentColor" stroke-linecap="round" stroke-width="2"/>
  <path d="M14.1667 17.4999C15.5474 17.4999 16.6667 15.4486 16.6667 12.9182 16.6667 10.3878 15.5474 8.3364 14.1667 8.3364 12.7859 8.3364 11.6667 10.3878 11.6667 12.9182 11.6667 15.4486 12.7859 17.4999 14.1667 17.4999Z" stroke="currentColor" stroke-linecap="round" stroke-width="2"/>
  <path d="M8.2959 6.0287C8.0038 5.8608 7.5505 5.5942 7.4441 3.99 7.3498 2.5675 6.0574 2.4247 5.5634 2.5251 5.0992 2.6194 4.2297 3.1094 4.1731 4.1287 4.1351 4.8118 4.5587 5.4671 5.5607 5.8658 5.7295 5.933 5.8486 6.0916 5.8486 6.2733V8.1352" stroke="currentColor" stroke-linecap="round" stroke-linejoin="round" stroke-width="2"/>
  <path d="M16.6142 6.0287C16.3221 5.8608 15.8688 5.5942 15.7624 3.99 15.6681 2.5675 14.3757 2.4247 13.8817 2.5251 13.4175 2.6194 12.548 3.1094 12.4913 4.1287 12.4533 4.8118 12.877 5.4671 13.8789 5.8658 14.0477 5.933 14.1668 6.0916 14.1668 6.2733V8.1352" stroke="currentColor" stroke-linecap="round" stroke-linejoin="round" stroke-width="2"/>
</svg>
