<svg xmlns="http://www.w3.org/2000/svg" width="20" height="20" viewBox="0 0 20 20" fill="none">
  <path d="M10 1.6667C5.3976 1.6667 1.6667 5.3976 1.6667 10 1.6667 14.6023 5.3976 18.3333 10 18.3333 14.0316 18.3333 17.3945 15.4704 18.1667 11.6667" stroke="currentColor" stroke-linecap="round" stroke-linejoin="round" stroke-width="2"/>
  <path d="M9.5833 5L8.9941 4.4107C8.8378 4.2545 8.75 4.0425 8.75 3.8215V2.0833" stroke="currentColor" stroke-linecap="round" stroke-linejoin="round" stroke-width="2"/>
  <path d="M17.5 13.3333H14.9285C14.7075 13.3333 14.4955 13.4212 14.3393 13.5774L13.575 14.3417C13.2238 14.6928 12.6453 14.6608 12.3351 14.273L11.5002 13.2294C11.3421 13.0318 11.1027 12.9167 10.8495 12.9167H10.669C10.5045 12.9167 10.3436 12.9653 10.2068 13.0566L8.2878 14.3359C8.0559 14.4905 7.9167 14.7507 7.9167 15.0293V15.2199C7.9167 15.3493 7.9468 15.4769 8.0046 15.5926L9.1667 17.9167" stroke="currentColor" stroke-linecap="round" stroke-linejoin="round" stroke-width="2"/>
  <path d="M4.1667 4.1667L4.6455 6.0822C4.7577 6.5307 4.8137 6.755 4.9268 6.9295 5.0791 7.1647 5.3061 7.3419 5.5712 7.4326 5.768 7.5 5.9991 7.5 6.4615 7.5H6.8602C7.0675 7.5 7.1711 7.5 7.258 7.5123 7.8097 7.5901 8.2432 8.0237 8.3211 8.5753 8.3333 8.6623 8.3333 8.7658 8.3333 8.9732 8.3333 9.064 8.3333 9.1094 8.3303 9.1531 8.3113 9.4237 8.2048 9.6807 8.027 9.8853 7.9982 9.9184 7.9661 9.9506 7.9019 10.0148L7.3094 10.6073C7.0369 10.8797 6.9007 11.016 6.7358 11.1037 6.6651 11.1413 6.5909 11.172 6.5143 11.1954 6.3357 11.25 6.143 11.25 5.7577 11.25 5.2643 11.25 5.0176 11.25 4.7988 11.3352 4.7054 11.3715 4.6167 11.419 4.5347 11.4766 4.3425 11.6113 4.2056 11.8166 3.9319 12.2272L2.9167 13.75" stroke="currentColor" stroke-linecap="round" stroke-linejoin="round" stroke-width="2"/>
  <path d="M17.0833 4.5833V3.3333C17.0833 2.4129 16.3372 1.6667 15.4167 1.6667 14.4962 1.6667 13.75 2.4129 13.75 3.3333V4.5833M17.0833 4.5833H13.75M17.0833 4.5833C17.7737 4.5833 18.3333 5.143 18.3333 5.8333V6.4583C18.3333 7.0408 18.3333 7.332 18.2382 7.5617 18.1113 7.868 17.868 8.1113 17.5617 8.2382 17.332 8.3333 17.0407 8.3333 16.4583 8.3333H14.375C13.7926 8.3333 13.5013 8.3333 13.2717 8.2382 12.9653 8.1113 12.722 7.868 12.5952 7.5617 12.5 7.332 12.5 7.0408 12.5 6.4583V5.8333C12.5 5.143 13.0597 4.5833 13.75 4.5833" stroke="currentColor" stroke-linecap="round" stroke-linejoin="round" stroke-width="2"/>
</svg>
