<svg xmlns="http://www.w3.org/2000/svg" width="20" height="20" viewBox="0 0 20 20" fill="none">
  <path d="M10 18.3333C5.3976 18.3333 1.6667 14.6023 1.6667 10 1.6667 7.6729 2.6205 5.5686 4.1586 4.0567M10 18.3333C9.1975 17.7387 9.3256 17.0463 9.7282 16.3539 10.3472 15.2895 10.3472 15.2895 10.3472 13.8703 10.3472 12.4512 11.1905 11.7858 14.1667 12.3809 15.5039 12.6484 16.4784 10.8008 18.2144 11.4108M10 18.3333C14.1215 18.3333 17.5442 15.3413 18.2144 11.4108M18.2144 11.4108C18.2926 10.9522 18.3333 10.4809 18.3333 10 18.3333 5.9321 15.4187 2.545 11.5638 1.8132M11.5638 1.8132C11.9893 2.5967 11.818 3.5296 10.9189 3.8858 9.4524 4.4669 10.5024 5.5362 9.2529 6.1963 8.4198 6.6364 7.1703 6.5263 5.9208 5.206 5.2626 4.5105 4.8664 4.1314 4.1586 4.0567M11.5638 1.8132C11.0573 1.717 10.5345 1.6667 10 1.6667 7.7247 1.6667 5.6625 2.5785 4.1586 4.0567" stroke="currentColor" stroke-linejoin="round" stroke-width="2"/>
</svg>
