<svg xmlns="http://www.w3.org/2000/svg" width="20" height="20" viewBox="0 0 20 20" fill="none">
  <path d="M17.5 3.3333C13.3333 3.3333 11.6493 6.7013 10 10 8.3507 13.2987 6.6667 16.6667 2.5 16.6667" stroke="currentColor" stroke-linecap="round" stroke-linejoin="round" stroke-width="2"/>
  <path d="M17.5 16.6667C17.5 17.5872 16.7538 18.3333 15.8333 18.3333 14.9128 18.3333 14.1667 17.5872 14.1667 16.6667 14.1667 15.7462 14.9128 15 15.8333 15 16.7538 15 17.5 15.7462 17.5 16.6667Z" fill="currentColor"/>
  <path d="M8.3333 16.6667H10M12.5 16.6667L14.1667 16.6667M14.1667 16.6667C14.1667 17.5872 14.9128 18.3333 15.8333 18.3333 16.7538 18.3333 17.5 17.5872 17.5 16.6667 17.5 15.7462 16.7538 15 15.8333 15 14.9128 15 14.1667 15.7462 14.1667 16.6667Z" stroke="currentColor" stroke-linecap="round" stroke-linejoin="round" stroke-width="2"/>
  <path d="M5.8333 3.3333C5.8333 4.2538 5.0871 5 4.1667 5 3.2462 5 2.5 4.2538 2.5 3.3333 2.5 2.4129 3.2462 1.6667 4.1667 1.6667 5.0871 1.6667 5.8333 2.4129 5.8333 3.3333Z" fill="currentColor"/>
  <path d="M10 3.3333H11.6667M5.8333 3.3333L7.5 3.3333M5.8333 3.3333C5.8333 4.2538 5.0871 5 4.1667 5 3.2462 5 2.5 4.2538 2.5 3.3333 2.5 2.4129 3.2462 1.6667 4.1667 1.6667 5.0871 1.6667 5.8333 2.4129 5.8333 3.3333Z" stroke="currentColor" stroke-linecap="round" stroke-linejoin="round" stroke-width="2"/>
</svg>
