<svg xmlns="http://www.w3.org/2000/svg" width="20" height="20" viewBox="0 0 20 20" fill="none">
  <path d="M1.6667 8.3333C2.3164 5.1534 4.7243 2.6078 7.8385 1.7415 8.0999 1.6688 8.2306 1.6324 8.301 1.7103 8.3714 1.7882 8.3195 1.917 8.2158 2.1746L7.5 3.75M11.6667 1.6667C14.8466 2.3164 17.3923 4.7243 18.2585 7.8385 18.3313 8.0999 18.3676 8.2306 18.2897 8.301 18.2118 8.3714 18.083 8.3195 17.8253 8.2158L16.25 7.5M18.3333 11.6667C17.6836 14.8466 15.2757 17.3923 12.1615 18.2585 11.9001 18.3313 11.7694 18.3676 11.699 18.2897 11.6286 18.2118 11.6805 18.083 11.7842 17.8253L12.5 16.25M8.3333 18.3333C5.1534 17.6836 2.6078 15.2757 1.7415 12.1615 1.6688 11.9001 1.6324 11.7694 1.7103 11.699 1.7882 11.6286 1.917 11.6805 2.1746 11.7842L3.75 12.5" stroke="currentColor" stroke-linecap="round" stroke-width="2"/>
  <path d="M9.9999 9.2491C8.9062 9.9992 7.5822 11.4829 7.0833 13.75M7.8125 11.7529C6.0859 7.7579 9.5688 6.4106 12.2198 6.2608 12.5398 6.2427 12.6997 6.2336 12.8146 6.3502 12.9295 6.4668 12.9228 6.6329 12.9096 6.9652 12.7996 9.7285 11.698 13.5303 7.8125 11.7529Z" stroke="currentColor" stroke-linecap="round" stroke-linejoin="round" stroke-width="2"/>
</svg>
