<svg xmlns="http://www.w3.org/2000/svg" width="20" height="20" viewBox="0 0 20 20" fill="none">
  <path d="M10 4.1667V7.5" stroke="currentColor" stroke-linecap="round" stroke-linejoin="round" stroke-width="2"/>
  <path d="M6.6667 1.6667H8.3333C9.2538 1.6667 10 2.4129 10 3.3333V4.1667H8.3333C7.4129 4.1667 6.6667 3.4205 6.6667 2.5V1.6667Z" stroke="currentColor" stroke-linecap="round" stroke-linejoin="round" stroke-width="2"/>
  <path d="M8.75 7.5H11.25V10.1907C12.9405 10.7216 14.1667 12.3009 14.1667 14.1666 14.1667 16.4677 12.3012 18.3332 10 18.3332 7.6988 18.3332 5.8333 16.4677 5.8333 14.1666 5.8333 12.3009 7.0595 10.7216 8.75 10.1907V7.5Z" stroke="currentColor" stroke-linecap="round" stroke-linejoin="round" stroke-width="2"/>
  <path d="M7.9167 7.5H12.0833" stroke="currentColor" stroke-linecap="round" stroke-linejoin="round" stroke-width="2"/>
  <path d="M13.3333 2.5H11.6667C10.7462 2.5 10 3.2462 10 4.1667V5H11.6667C12.5872 5 13.3333 4.2538 13.3333 3.3333V2.5Z" stroke="currentColor" stroke-linecap="round" stroke-linejoin="round" stroke-width="2"/>
</svg>
