<svg xmlns="http://www.w3.org/2000/svg" width="20" height="20" viewBox="0 0 20 20" fill="none">
  <path d="M10 4.1667V7.5" stroke="currentColor" stroke-linecap="round" stroke-linejoin="round" stroke-width="2"/>
  <path d="M6.6667 1.6667H8.3333C9.2538 1.6667 10 2.4129 10 3.3333V4.1667H8.3333C7.4129 4.1667 6.6667 3.4205 6.6667 2.5V1.6667Z" stroke="currentColor" stroke-linecap="round" stroke-linejoin="round" stroke-width="2"/>
  <path d="M14.0123 18.3333H5.9877C5.4422 18.3333 5 17.8911 5 17.3457 5 17.1738 5.0449 17.0048 5.1301 16.8556L8.3333 11.25V7.5H11.6667V11.25L14.8698 16.8556C14.9552 17.0048 15 17.1738 15 17.3457 15 17.8911 14.5578 18.3333 14.0123 18.3333Z" stroke="currentColor" stroke-linecap="round" stroke-linejoin="round" stroke-width="2"/>
  <path d="M7.5 7.5H12.5" stroke="currentColor" stroke-linecap="round" stroke-linejoin="round" stroke-width="2"/>
  <path d="M13.3333 2.5H11.6667C10.7462 2.5 10 3.2462 10 4.1667V5H11.6667C12.5872 5 13.3333 4.2538 13.3333 3.3333V2.5Z" stroke="currentColor" stroke-linecap="round" stroke-linejoin="round" stroke-width="2"/>
</svg>
