<svg xmlns="http://www.w3.org/2000/svg" width="20" height="20" viewBox="0 0 20 20" fill="none">
  <path d="M7.5 16.6667C4.3575 15.9432 2.5 13.0643 2.5 10.4252 2.5 7.2871 5.3085 4.186 7.2797 2.3958 8.3503 1.4236 9.9831 1.4236 11.0536 2.3958 12.3093 3.5362 13.8124 5.2084 14.7926 7.0833" stroke="currentColor" stroke-linecap="round" stroke-width="2"/>
  <path d="M14.1667 12.9167C12.9167 13.75 10.8333 15.4167 9.1667 18.3333M10.8333 15.8333C8.6135 10.9506 13.1956 9.3629 16.6041 9.1798 17.0154 9.1578 17.2211 9.1467 17.3688 9.2892 17.5165 9.4316 17.5079 9.6347 17.4909 10.0408 17.3495 13.4181 15.8289 18.0057 10.8333 15.8333Z" stroke="currentColor" stroke-linecap="round" stroke-linejoin="round" stroke-width="2"/>
</svg>
