<svg xmlns="http://www.w3.org/2000/svg" width="20" height="20" viewBox="0 0 20 20" fill="none">
  <path d="M11.7281 3.2379C12.3491 2.5651 12.6596 2.2287 12.9895 2.0324 13.7856 1.559 14.7659 1.5442 15.5753 1.9936 15.9108 2.1798 16.2308 2.5068 16.8708 3.1606 17.5109 3.8145 17.831 4.1414 18.0132 4.4841 18.4532 5.3109 18.4388 6.3123 17.9752 7.1256 17.7832 7.4626 17.4538 7.7798 16.7952 8.4142L8.9588 15.9619C7.7107 17.1641 7.0867 17.7652 6.3067 18.0698 5.5268 18.3744 4.6693 18.352 2.9545 18.3072L2.7212 18.3011C2.1991 18.2874 1.9381 18.2806 1.7863 18.1083 1.6346 17.9362 1.6553 17.6702 1.6967 17.1385L1.7192 16.8498C1.8358 15.3529 1.8941 14.6046 2.1864 13.9318 2.4787 13.2591 2.9829 12.7129 3.9912 11.6204L11.7281 3.2379Z" stroke="currentColor" stroke-linejoin="round" stroke-width="2"/>
  <path d="M10.8333 3.3333L16.6667 9.1667" stroke="currentColor" stroke-linejoin="round" stroke-width="2"/>
  <path d="M11.6667 18.3333L18.3333 18.3333" stroke="currentColor" stroke-linecap="round" stroke-linejoin="round" stroke-width="2"/>
</svg>
