<svg xmlns="http://www.w3.org/2000/svg" width="20" height="20" viewBox="0 0 20 20" fill="none">
  <path d="M11.6667 7.0833C11.6667 4.7821 9.8012 2.9167 7.5 2.9167 5.1988 2.9167 3.3333 4.7821 3.3333 7.0833 3.3333 9.3845 5.1988 11.25 7.5 11.25 9.8012 11.25 11.6667 9.3845 11.6667 7.0833Z" stroke="currentColor" stroke-linecap="round" stroke-linejoin="round" stroke-width="2"/>
  <path d="M13.3333 17.0833C13.3333 13.8617 10.7217 11.25 7.5 11.25 4.2783 11.25 1.6667 13.8617 1.6667 17.0833" stroke="currentColor" stroke-linecap="round" stroke-linejoin="round" stroke-width="2"/>
  <path d="M18.0739 6.6116L17.5551 6.0928C17.2092 5.7469 16.6483 5.7469 16.3024 6.0928L13.6843 8.8033C13.4592 9.0364 13.3333 9.3477 13.3333 9.6717V10.8333H14.4949C14.8189 10.8333 15.1303 10.7075 15.3633 10.4824L18.0739 7.8643C18.4198 7.5183 18.4198 6.9575 18.0739 6.6116Z" stroke="currentColor" stroke-linecap="round" stroke-linejoin="round" stroke-width="2"/>
</svg>
