<svg xmlns="http://www.w3.org/2000/svg" width="20" height="20" viewBox="0 0 20 20" fill="none">
  <path d="M14.1216 2.6442C14.611 2.1548 14.8557 1.9101 15.1268 1.7931 15.5173 1.6245 15.9601 1.6245 16.3507 1.7931 16.6217 1.9101 16.8664 2.1548 17.3558 2.6442 17.8452 3.1336 18.0899 3.3783 18.2069 3.6494 18.3755 4.0399 18.3755 4.4827 18.2069 4.8732 18.0899 5.1443 17.8452 5.389 17.3558 5.8784L13.1712 10.0631C12.1402 11.0941 11.6247 11.6096 10.979 11.915 10.3333 12.2204 9.6078 12.292 8.1569 12.4352L7.5 12.5 7.5648 11.8432C7.708 10.3922 7.7796 9.6667 8.085 9.021 8.3904 8.3753 8.9059 7.8599 9.9369 6.8289L14.1216 2.6442Z" stroke="currentColor" stroke-linejoin="round" stroke-width="2"/>
  <path d="M5 12.5H3.125C2.3196 12.5 1.6667 13.1529 1.6667 13.9583 1.6667 14.7637 2.3196 15.4167 3.125 15.4167H11.0417C11.8471 15.4167 12.5 16.0696 12.5 16.875 12.5 17.6804 11.8471 18.3333 11.0417 18.3333H9.1667" stroke="currentColor" stroke-linecap="round" stroke-linejoin="round" stroke-width="2"/>
</svg>
