<svg xmlns="http://www.w3.org/2000/svg" width="20" height="20" viewBox="0 0 20 20" fill="none">
  <path d="M10 17.9167C6.268 17.9167 4.4021 17.9167 3.2427 16.7573 2.0833 15.5979 2.0833 13.7319 2.0833 10 2.0833 6.268 2.0833 4.4021 3.2427 3.2427 4.4021 2.0833 6.268 2.0833 10 2.0833 13.7319 2.0833 15.5979 2.0833 16.7573 3.2427 17.9167 4.4021 17.9167 6.268 17.9167 10" stroke="currentColor" stroke-linecap="round" stroke-linejoin="round" stroke-width="2"/>
  <path d="M2.0833 7.5L17.9167 7.5" stroke="currentColor" stroke-width="2"/>
  <path d="M2.0833 10.8333L13.75 10.8333" stroke="currentColor" stroke-linecap="round" stroke-width="2"/>
  <path d="M2.0833 14.1667H10" stroke="currentColor" stroke-width="2"/>
  <path d="M10 17.9167L10 7.5" stroke="currentColor" stroke-linecap="round" stroke-width="2"/>
  <path d="M15.5012 16.4027L17.359 14.5448C17.6186 14.2853 17.7483 14.1556 17.8177 14.0156 17.9497 13.7492 17.9497 13.4366 17.8177 13.1702 17.7483 13.0303 17.6186 12.9005 17.359 12.641 17.0995 12.3814 16.9698 12.2517 16.8298 12.1823 16.5634 12.0503 16.2508 12.0503 15.9844 12.1823 15.8444 12.2517 15.7147 12.3814 15.4552 12.641L13.4296 14.6666C12.8357 15.2605 12.5387 15.5574 12.3552 15.9213 12.2985 16.0337 12.2503 16.1502 12.2109 16.2698 12.0833 16.6567 12.0833 17.0768 12.0833 17.9167L12.6292 17.8387C13.4595 17.7201 13.8747 17.6608 14.2431 17.4765 14.6116 17.2923 14.9081 16.9958 15.5012 16.4027Z" stroke="currentColor" stroke-linecap="square" stroke-linejoin="round" stroke-width="2"/>
</svg>
