<svg xmlns="http://www.w3.org/2000/svg" width="20" height="20" viewBox="0 0 20 20" fill="none">
  <circle cx="8.333333333333334" cy="11.666666666666668" r="2.5" stroke="currentColor" stroke-linecap="round" stroke-linejoin="round" stroke-width="2"/>
  <path d="M15.8333 6.6667C15.8333 4.3655 13.9678 2.5 11.6666 2.5 10.2736 2.5 9.0405 3.1837 8.2842 4.2337 7.6528 5.1103 6.8202 5.9297 5.8434 6.3913 3.8672 7.325 2.5 9.3358 2.5 11.6667 2.5 14.8883 5.1116 17.5 8.3333 17.5 10.028 17.5 11.5528 16.7766 12.6182 15.6223 13.0075 15.2005 13.5926 15 14.1666 15 16.0076 15 17.4999 13.5076 17.4999 11.6667 17.4999 10.9574 17.2783 10.3003 16.9006 9.7602 16.2973 8.8975 15.8333 7.7194 15.8333 6.6667Z" stroke="currentColor" stroke-linecap="round" stroke-linejoin="round" stroke-width="2"/>
</svg>
