<svg xmlns="http://www.w3.org/2000/svg" width="20" height="20" viewBox="0 0 20 20" fill="none">
  <path d="M2.0833 9.8374C2.0833 14.2995 5.7005 17.9167 10.1626 17.9167 13.8342 17.9167 16.9337 15.4676 17.9167 12.1139 16.7326 12.9743 15.2755 13.4816 13.7 13.4816 9.7337 13.4816 6.5184 10.2663 6.5184 6.3 6.5184 4.7245 7.0258 3.2674 7.8861 2.0833 4.5324 3.0663 2.0833 6.1659 2.0833 9.8374Z" stroke="currentColor" stroke-linejoin="round" stroke-width="2"/>
  <path d="M11.0419 7.0833C9.0219 4.5833 12.4677 3.3333 13.3333 2.0833 14.199 3.3333 17.6448 4.5833 15.6248 7.0833M11.0419 7.0833H15.6248M11.0419 7.0833V12.9167M15.6248 7.0833V12.9167" stroke="currentColor" stroke-linecap="round" stroke-linejoin="round" stroke-width="2"/>
</svg>
