<svg xmlns="http://www.w3.org/2000/svg" width="20" height="20" viewBox="0 0 20 20" fill="none">
  <path d="M10.4167 10H9.5833M10.4167 10C11.5672 10 12.5 9.0672 12.5 7.9167 12.5 6.7661 11.5672 5.8333 10.4167 5.8333H9.5833C8.4328 5.8333 7.5 6.7661 7.5 7.9167 7.5 9.0672 8.4328 10 9.5833 10M10.4167 10C11.5672 10 12.5 10.9328 12.5 12.0833 12.5 13.2339 11.5672 14.1667 10.4167 14.1667H9.5833C8.4328 14.1667 7.5 13.2339 7.5 12.0833 7.5 10.9328 8.4328 10 9.5833 10" stroke="currentColor" stroke-linecap="round" stroke-linejoin="round" stroke-width="2"/>
  <path d="M18.3333 10C18.3333 14.6023 14.6023 18.3333 10 18.3333 5.3976 18.3333 1.6667 14.6023 1.6667 10 1.6667 5.3976 5.3976 1.6667 10 1.6667 14.6023 1.6667 18.3333 5.3976 18.3333 10Z" stroke="currentColor" stroke-linecap="round" stroke-linejoin="round" stroke-width="2"/>
</svg>
