<svg xmlns="http://www.w3.org/2000/svg" width="20" height="20" viewBox="0 0 20 20" fill="none">
  <path d="M2.0492 7.5C3.1137 4.1191 6.2801 1.6667 10.0207 1.6667 14.3525 1.6667 17.9142 4.9556 18.3333 9.1667L16.6667 8.8274" stroke="currentColor" stroke-linecap="round" stroke-linejoin="round" stroke-width="2"/>
  <path d="M17.9508 12.5C16.8863 15.8809 13.7199 18.3333 9.9793 18.3333 5.6476 18.3333 2.0858 15.0444 1.6667 10.8333L3.3334 11.1726" stroke="currentColor" stroke-linecap="round" stroke-linejoin="round" stroke-width="2"/>
  <path d="M7.5016 11.2733V12.9331C7.5016 13.2053 7.6315 13.4644 7.8617 13.6084 8.5647 14.0482 9.0994 14.1771 10.0045 14.205 10.8384 14.2274 11.3613 14.0963 12.1399 13.6097 12.3734 13.4637 12.5074 13.2023 12.5074 12.9261V11.2733M14.176 9.1791V11.692M5.8744 9.0363C6.1757 8.3997 8.0447 7.2913 9.7508 6.7438 9.9153 6.6909 10.0922 6.6962 10.2544 6.7556 11.7628 7.3079 13.4407 8.1431 14.0498 8.8211 14.3678 9.175 14.0568 9.6267 13.6723 9.9062 12.892 10.4735 12.0303 10.9148 10.2909 11.583 10.1068 11.6537 9.9023 11.6561 9.7173 11.5874 7.9334 10.9251 6.2659 10.0702 5.8882 9.3181 5.8437 9.2293 5.8319 9.126 5.8744 9.0363Z" stroke="currentColor" stroke-linecap="round" stroke-linejoin="round" stroke-width="2"/>
</svg>
