<svg xmlns="http://www.w3.org/2000/svg" width="20" height="20" viewBox="0 0 20 20" fill="none">
  <path d="M10.8333 2.5H12.5C14.857 2.5 16.0355 2.5 16.7678 3.2322 17.5 3.9645 17.5 5.143 17.5 7.5V9.1667C17.5 11.5237 17.5 12.7022 16.7678 13.4344 16.0355 14.1667 14.857 14.1667 12.5 14.1667H10.8333C8.4763 14.1667 7.2978 14.1667 6.5656 13.4344 5.8333 12.7022 5.8333 11.5237 5.8333 9.1667V7.5C5.8333 5.143 5.8333 3.9645 6.5656 3.2322 7.2978 2.5 8.4763 2.5 10.8333 2.5Z" stroke="currentColor" stroke-linecap="round" stroke-linejoin="round" stroke-width="2"/>
  <path d="M13.3333 16.7678C12.6011 17.5 11.4226 17.5 9.0656 17.5H7.5C5.143 17.5 3.9645 17.5 3.2322 16.7678 2.5 16.0355 2.5 14.857 2.5 12.5V10.9344C2.5 8.5774 2.5 7.3989 3.2322 6.6667" stroke="currentColor" stroke-linecap="round" stroke-linejoin="round" stroke-width="2"/>
  <path d="M11.6667 5.8333L10.6817 6.9665C10.1677 7.5578 9.9108 7.8535 10.028 8.0934 10.1453 8.3333 10.5467 8.3333 11.3494 8.3333H11.9839C12.7867 8.3333 13.1881 8.3333 13.3053 8.5733 13.4226 8.8132 13.1656 9.1088 12.6516 9.7002L11.6667 10.8333" stroke="currentColor" stroke-linecap="round" stroke-linejoin="round" stroke-width="2"/>
</svg>
