<svg xmlns="http://www.w3.org/2000/svg" width="20" height="20" viewBox="0 0 20 20" fill="none">
  <path d="M10 17.5V7.5H8.3333C7.5477 7.5 7.1548 7.5 6.9107 7.7441 6.6667 7.9882 6.6667 8.381 6.6667 9.1667V17.5" stroke="currentColor" stroke-linecap="round" stroke-linejoin="round" stroke-width="2"/>
  <path d="M13.3333 17.5V9.1667C13.3333 8.381 13.3333 7.9882 13.0893 7.7441 12.8452 7.5 12.4523 7.5 11.6667 7.5H10V17.5" stroke="currentColor" stroke-linecap="round" stroke-linejoin="round" stroke-width="2"/>
  <path d="M16.6667 4.1667V7.5M18.3333 5.8333H15" stroke="currentColor" stroke-linecap="round" stroke-linejoin="round" stroke-width="2"/>
  <path d="M5 5.8333H1.6667" stroke="currentColor" stroke-linecap="round" stroke-linejoin="round" stroke-width="2"/>
  <path d="M8.3333 7.5V4.9999C8.3333 4.2234 8.3333 3.8352 8.2065 3.5289 8.0373 3.1205 7.7129 2.796 7.3045 2.6269 6.9982 2.5 6.6099 2.5 5.8333 2.5" stroke="currentColor" stroke-linecap="round" stroke-linejoin="round" stroke-width="2"/>
  <path d="M11.6667 7.5V4.9999C11.6667 4.2234 11.6667 3.8352 11.7935 3.5289 11.9627 3.1205 12.2872 2.796 12.6955 2.6269 13.0018 2.5 13.3901 2.5 14.1667 2.5" stroke="currentColor" stroke-linecap="round" stroke-linejoin="round" stroke-width="2"/>
</svg>
