<svg xmlns="http://www.w3.org/2000/svg" width="20" height="20" viewBox="0 0 20 20" fill="none">
  <path d="M11.6724 8.3362V10.4183M8.3527 10.4183V8.3362M7.1115 11.1523C7.079 10.7566 7.419 10.4191 7.8502 10.4191H12.1782C12.6093 10.4191 12.9493 10.7566 12.9168 11.1523L12.8277 12.2332C12.7637 13.0103 12.4838 13.7592 12.0146 14.4079L11.7237 14.8102C11.4491 15.1899 10.9862 15.4181 10.4904 15.4181H9.5379C9.0422 15.4181 8.5793 15.1899 8.3046 14.8102L8.0137 14.4079C7.5445 13.7592 7.2645 13.0103 7.2005 12.2332L7.1115 11.1523Z" stroke="currentColor" stroke-linecap="round" stroke-width="2"/>
  <path d="M12.5026 18.3342C13.9873 18.3182 14.6237 18.2398 15.4074 17.9176 16.0683 17.6472 16.4832 17.2686 16.8431 16.5966 17.3833 15.588 17.5634 14.4313 17.7247 13.2977L18.3122 9.1693C18.3551 8.508 18.334 8.015 18.1799 7.5309 17.8856 6.6065 17.0916 5.954 16.3179 5.3723 12.7183 2.6661 11.0265 1.5847 10.0128 1.6708 9.0517 1.5948 7.7427 2.3717 3.5889 5.4698 2.8956 5.9869 2.2011 6.5518 1.8854 7.3588 1.4434 8.4884 1.783 9.7673 1.9691 10.9666 2.1879 12.3764 2.4478 14.0966 2.9147 16.0688 2.9434 16.1899 2.984 16.3086 3.0387 16.4203 3.4528 17.2681 3.8165 17.6214 4.6182 17.9176 5.4506 18.2251 8.0615 18.4932 9.3711 18.1986 9.8127 18.0992 10.0128 17.6607 10.0128 17.2063V15.4181" stroke="currentColor" stroke-linecap="round" stroke-linejoin="round" stroke-width="2"/>
</svg>
