<svg xmlns="http://www.w3.org/2000/svg" width="20" height="20" viewBox="0 0 20 20" fill="none">
  <path d="M10 10.0017V9.585M10 4.1683V3.7516M10 15.835V15.4183M10.8333 10.0017C10.8333 9.5414 10.4603 9.1683 10 9.1683 9.5397 9.1683 9.1667 9.5414 9.1667 10.0017 9.1667 10.4618 9.5397 10.835 10 10.835 10.4603 10.835 10.8333 10.4618 10.8333 10.0017ZM10.8333 4.1683C10.8333 3.7081 10.4603 3.335 10 3.335 9.5397 3.335 9.1667 3.7081 9.1667 4.1683 9.1667 4.6285 9.5397 5.0016 10 5.0016 10.4603 5.0016 10.8333 4.6285 10.8333 4.1683ZM10.8333 15.835C10.8333 15.3748 10.4603 15.0017 10 15.0017 9.5397 15.0017 9.1667 15.3748 9.1667 15.835 9.1667 16.2952 9.5397 16.6683 10 16.6683 10.4603 16.6683 10.8333 16.2952 10.8333 15.835Z" stroke="currentColor" stroke-linecap="round" stroke-linejoin="round" stroke-width="2"/>
</svg>
