<svg xmlns="http://www.w3.org/2000/svg" width="20" height="20" viewBox="0 0 20 20" fill="none">
  <path d="M10 10.0017H10.4167M15.8333 10.0017H16.25M4.1667 10.0017H4.5833M10 10.835C10.4603 10.835 10.8333 10.4618 10.8333 10.0017 10.8333 9.5414 10.4603 9.1683 10 9.1683 9.5397 9.1683 9.1667 9.5414 9.1667 10.0017 9.1667 10.4618 9.5397 10.835 10 10.835ZM15.8333 10.835C16.2936 10.835 16.6667 10.4618 16.6667 10.0017 16.6667 9.5414 16.2936 9.1683 15.8333 9.1683 15.3731 9.1683 15 9.5414 15 10.0017 15 10.4618 15.3731 10.835 15.8333 10.835ZM4.1667 10.835C4.6269 10.835 5 10.4618 5 10.0017 5 9.5414 4.6269 9.1683 4.1667 9.1683 3.7064 9.1683 3.3333 9.5414 3.3333 10.0017 3.3333 10.4618 3.7064 10.835 4.1667 10.835Z" stroke="currentColor" stroke-linecap="round" stroke-linejoin="round" stroke-width="2"/>
</svg>
