<svg xmlns="http://www.w3.org/2000/svg" width="20" height="20" viewBox="0 0 20 20" fill="none">
  <path d="M11.6666 3.5433C14.0092 4.1463 15.8536 5.9906 16.4566 8.3333M8.3333 3.5433C5.9906 4.1463 4.1463 5.9906 3.5433 8.3333M3.5433 11.6666C4.1463 14.0092 5.9906 15.8536 8.3333 16.4566M11.6666 16.4566C14.0092 15.8536 15.8536 14.0092 16.4566 11.6666" stroke="currentColor" stroke-linecap="round" stroke-width="2"/>
  <path d="M8.5774 4.7559C8.8215 5 9.2143 5 10 5 10.7857 5 11.1785 5 11.4226 4.7559M8.5774 4.7559C8.3333 4.5118 8.3333 4.119 8.3333 3.3333 8.3333 2.5477 8.3333 2.1548 8.5774 1.9107M8.5774 4.7559C8.5774 4.7559 8.5774 4.7559 8.5774 4.7559ZM11.4226 4.7559C11.6667 4.5118 11.6667 4.119 11.6667 3.3333 11.6667 2.5477 11.6667 2.1548 11.4226 1.9107M11.4226 4.7559C11.4226 4.7559 11.4226 4.7559 11.4226 4.7559ZM11.4226 1.9107C11.1785 1.6667 10.7857 1.6667 10 1.6667 9.2143 1.6667 8.8215 1.6667 8.5774 1.9107M11.4226 1.9107C11.4226 1.9107 11.4226 1.9107 11.4226 1.9107ZM8.5774 1.9107C8.5774 1.9107 8.5774 1.9107 8.5774 1.9107Z" stroke="currentColor" stroke-linecap="round" stroke-linejoin="round" stroke-width="2"/>
  <path d="M8.5774 18.0892C8.8215 18.3333 9.2143 18.3333 10 18.3333 10.7857 18.3333 11.1785 18.3333 11.4226 18.0892M8.5774 18.0892C8.3333 17.8452 8.3333 17.4523 8.3333 16.6667 8.3333 15.881 8.3333 15.4882 8.5774 15.2441M8.5774 18.0892C8.5774 18.0892 8.5774 18.0892 8.5774 18.0892ZM11.4226 18.0892C11.6667 17.8452 11.6667 17.4523 11.6667 16.6667 11.6667 15.881 11.6667 15.4882 11.4226 15.2441M11.4226 18.0892C11.4226 18.0892 11.4226 18.0892 11.4226 18.0892ZM11.4226 15.2441C11.1785 15 10.7857 15 10 15 9.2143 15 8.8215 15 8.5774 15.2441M11.4226 15.2441C11.4226 15.2441 11.4226 15.2441 11.4226 15.2441ZM8.5774 15.2441C8.5774 15.2441 8.5774 15.2441 8.5774 15.2441Z" stroke="currentColor" stroke-linecap="round" stroke-linejoin="round" stroke-width="2"/>
  <path d="M15.2441 8.5774C15 8.8215 15 9.2143 15 10 15 10.7857 15 11.1785 15.2441 11.4226M15.2441 8.5774C15.4882 8.3333 15.881 8.3333 16.6667 8.3333 17.4523 8.3333 17.8452 8.3333 18.0892 8.5774M15.2441 8.5774C15.2441 8.5774 15.2441 8.5774 15.2441 8.5774ZM15.2441 11.4226C15.4882 11.6667 15.881 11.6667 16.6667 11.6667 17.4523 11.6667 17.8452 11.6667 18.0892 11.4226M15.2441 11.4226C15.2441 11.4226 15.2441 11.4226 15.2441 11.4226ZM18.0892 11.4226C18.3333 11.1785 18.3333 10.7857 18.3333 10 18.3333 9.2143 18.3333 8.8215 18.0892 8.5774M18.0892 11.4226C18.0892 11.4226 18.0892 11.4226 18.0892 11.4226ZM18.0892 8.5774C18.0892 8.5774 18.0892 8.5774 18.0892 8.5774Z" stroke="currentColor" stroke-linecap="round" stroke-linejoin="round" stroke-width="2"/>
  <path d="M1.9107 8.5774C1.6667 8.8215 1.6667 9.2143 1.6667 10 1.6667 10.7857 1.6667 11.1785 1.9107 11.4226M1.9107 8.5774C2.1548 8.3333 2.5477 8.3333 3.3333 8.3333 4.119 8.3333 4.5118 8.3333 4.7559 8.5774M1.9107 8.5774C1.9107 8.5774 1.9107 8.5774 1.9107 8.5774ZM1.9107 11.4226C2.1548 11.6667 2.5477 11.6667 3.3333 11.6667 4.119 11.6667 4.5118 11.6667 4.7559 11.4226M1.9107 11.4226C1.9107 11.4226 1.9107 11.4226 1.9107 11.4226ZM4.7559 11.4226C5 11.1785 5 10.7857 5 10 5 9.2143 5 8.8215 4.7559 8.5774M4.7559 11.4226C4.7559 11.4226 4.7559 11.4226 4.7559 11.4226ZM4.7559 8.5774C4.7559 8.5774 4.7559 8.5774 4.7559 8.5774Z" stroke="currentColor" stroke-linecap="round" stroke-linejoin="round" stroke-width="2"/>
</svg>
