<svg xmlns="http://www.w3.org/2000/svg" width="20" height="20" viewBox="0 0 20 20" fill="none">
  <path d="M3.3333 2.9167V7.0833" stroke="currentColor" stroke-linecap="round" stroke-linejoin="round" stroke-width="2"/>
  <path d="M6.6667 5.4167V4.5833C6.6667 3.6629 7.4129 2.9167 8.3333 2.9167 9.2538 2.9167 10 3.6629 10 4.5833V5.4167C10 6.3371 9.2538 7.0833 8.3333 7.0833 7.4129 7.0833 6.6667 6.3371 6.6667 5.4167Z" stroke="currentColor" stroke-linecap="round" stroke-linejoin="round" stroke-width="2"/>
  <path d="M13.3333 2.9167V7.0833" stroke="currentColor" stroke-linecap="round" stroke-linejoin="round" stroke-width="2"/>
  <path d="M16.6667 2.9167V7.0833" stroke="currentColor" stroke-linecap="round" stroke-linejoin="round" stroke-width="2"/>
  <path d="M1.6667 13.75C1.6667 15.5909 3.1591 17.0833 5 17.0833 6.2338 17.0833 7.311 16.413 7.8874 15.4167H11.1449C11.3413 15.4167 11.4394 15.4167 11.5333 15.4387 11.5677 15.4468 11.6014 15.457 11.6344 15.4693 11.7248 15.5031 11.8065 15.5575 11.9698 15.6664L12.0038 15.689C12.3411 15.9139 12.5098 16.0264 12.6943 16.0538 12.7909 16.0683 12.8893 16.0655 12.9849 16.0458 13.1677 16.0082 13.3298 15.8865 13.6543 15.6433L13.7389 15.5797C13.9998 15.3841 14.1302 15.2862 14.2718 15.2437 14.4283 15.1966 14.5953 15.1966 14.752 15.2437 14.8936 15.2862 15.0239 15.3841 15.2848 15.5797 15.5829 15.8033 15.732 15.9151 15.8913 15.9563 16.0673 16.002 16.2535 15.9887 16.4213 15.9187 16.5732 15.8553 16.705 15.7235 16.9685 15.46L17.5 14.9285C18.0556 14.3729 18.3333 14.0952 18.3333 13.75 18.3333 13.4048 18.0556 13.1271 17.5 12.5715 17.2592 12.3307 17.1388 12.2102 16.9856 12.1468 16.8324 12.0833 16.6621 12.0833 16.3215 12.0833H7.8874C7.311 11.087 6.2338 10.4167 5 10.4167 3.1591 10.4167 1.6667 11.9091 1.6667 13.75Z" stroke="currentColor" stroke-linecap="round" stroke-linejoin="round" stroke-width="2"/>
  <path d="M5.1042 13.75H5M5.2083 13.75C5.2083 13.8651 5.1151 13.9583 5 13.9583 4.8849 13.9583 4.7917 13.8651 4.7917 13.75 4.7917 13.6349 4.8849 13.5417 5 13.5417 5.1151 13.5417 5.2083 13.6349 5.2083 13.75Z" stroke="currentColor" stroke-linecap="round" stroke-linejoin="round" stroke-width="2"/>
</svg>
