<svg xmlns="http://www.w3.org/2000/svg" width="20" height="20" viewBox="0 0 20 20" fill="none">
  <path d="M2.0833 10C2.0833 6.4752 2.0833 4.7128 3.0816 3.544 3.2234 3.378 3.378 3.2234 3.544 3.0816 4.7128 2.0833 6.4752 2.0833 10 2.0833 13.5248 2.0833 15.2872 2.0833 16.456 3.0816 16.622 3.2234 16.7766 3.378 16.9183 3.544 17.9167 4.7128 17.9167 6.4752 17.9167 10 17.9167 13.5248 17.9167 15.2872 16.9183 16.456 16.7766 16.622 16.622 16.7766 16.456 16.9183 15.2872 17.9167 13.5248 17.9167 10 17.9167 6.4752 17.9167 4.7128 17.9167 3.544 16.9183 3.378 16.7766 3.2234 16.622 3.0816 16.456 2.0833 15.2872 2.0833 13.5248 2.0833 10Z" stroke="currentColor" stroke-width="2"/>
  <path d="M6.7742 9.6647L10.1067 5.1733C10.3673 4.822 10.8558 5.0406 10.8558 5.5085V8.985C10.8558 9.2652 11.0474 9.4925 11.2837 9.4925H12.9046C13.2728 9.4925 13.4691 10.0074 13.2258 10.3353L9.8933 14.8268C9.6327 15.178 9.1442 14.9594 9.1442 14.4915V11.015C9.1442 10.7348 8.9526 10.5075 8.7163 10.5075H7.0954C6.7272 10.5075 6.5309 9.9926 6.7742 9.6647Z" stroke="currentColor" stroke-linecap="round" stroke-linejoin="round" stroke-width="2"/>
</svg>
