<svg xmlns="http://www.w3.org/2000/svg" width="20" height="20" viewBox="0 0 20 20" fill="none">
  <path d="M1.6667 7.5V12.5" stroke="currentColor" stroke-linecap="round" stroke-linejoin="round" stroke-width="2"/>
  <path d="M8.75 6.6667H10.8333C11.6099 6.6667 11.9982 6.6667 12.3045 6.7935 12.7128 6.9627 13.0373 7.2871 13.2065 7.6955 13.3333 8.0018 13.3333 8.3901 13.3333 9.1667H15.8333V7.9167C15.8333 7.5284 15.8333 7.3342 15.8968 7.1811 15.9813 6.9769 16.1436 6.8147 16.3478 6.7301 16.5009 6.6667 16.6951 6.6667 17.0833 6.6667 17.4716 6.6667 17.6657 6.6667 17.8189 6.7301 18.0231 6.8147 18.1853 6.9769 18.2699 7.1811 18.3333 7.3342 18.3333 7.5284 18.3333 7.9167V13.75C18.3333 14.1383 18.3333 14.3324 18.2699 14.4856 18.1853 14.6898 18.0231 14.852 17.8189 14.9366 17.7328 14.9723 17.6338 14.9878 17.4947 14.9947M14.1667 11.6667H15.8333V13.3333M5.872 6.7053C5.3089 6.7566 4.9334 6.8762 4.6548 7.1548 4.1667 7.643 4.1667 8.4287 4.1667 10V11.5494C4.1667 12.4227 4.1667 12.8593 4.3639 13.2278 4.5611 13.5963 4.9244 13.8385 5.651 14.3229L5.8269 14.4402C6.2437 14.718 6.4521 14.857 6.6883 14.9285 6.9245 15 7.175 15 7.6759 15H10C11.5713 15 12.357 15 12.8452 14.5118 12.9882 14.3688 13.0893 14.2003 13.1608 13.9941" stroke="currentColor" stroke-linecap="round" stroke-linejoin="round" stroke-width="2"/>
  <path d="M4.1667 10H1.6667" stroke="currentColor" stroke-linecap="round" stroke-linejoin="round" stroke-width="2"/>
  <path d="M8.75 6.6667V4.1667" stroke="currentColor" stroke-linecap="round" stroke-linejoin="round" stroke-width="2"/>
  <path d="M6.6667 4.1667H11.6667" stroke="currentColor" stroke-linecap="round" stroke-linejoin="round" stroke-width="2"/>
  <path d="M1.6667 2.5L18.3333 19.1667" stroke="currentColor" stroke-linecap="round" stroke-linejoin="round" stroke-width="2"/>
</svg>
