<svg xmlns="http://www.w3.org/2000/svg" width="20" height="20" viewBox="0 0 20 20" fill="none">
  <path d="M3.3333 8.3333C3.3333 4.6514 6.3181 1.6667 10 1.6667 13.6819 1.6667 16.6667 4.6514 16.6667 8.3333V15.5556C16.6667 16.594 16.6667 17.1133 16.4434 17.5 16.2971 17.7533 16.0867 17.9638 15.8333 18.11 15.4466 18.3333 14.9273 18.3333 13.8889 18.3333H6.1111C5.0727 18.3333 4.5534 18.3333 4.1667 18.11 3.9133 17.9638 3.7029 17.7533 3.5566 17.5 3.3333 17.1133 3.3333 16.594 3.3333 15.5556V8.3333Z" stroke="currentColor" stroke-linecap="round" stroke-linejoin="round" stroke-width="2"/>
  <path d="M16.6667 15H7.5C6.7143 15 6.3215 15 6.0774 15.2441 5.8333 15.4882 5.8333 15.881 5.8333 16.6667V18.3333" stroke="currentColor" stroke-linecap="round" stroke-linejoin="round" stroke-width="2"/>
  <path d="M16.6667 11.6667H10.8333C10.0477 11.6667 9.6548 11.6667 9.4108 11.9108 9.1667 12.1548 9.1667 12.5477 9.1667 13.3333V15" stroke="currentColor" stroke-linecap="round" stroke-linejoin="round" stroke-width="2"/>
  <path d="M16.6667 8.3333H14.1667C13.381 8.3333 12.9882 8.3333 12.7441 8.5774 12.5 8.8215 12.5 9.2143 12.5 10V11.6667" stroke="currentColor" stroke-linecap="round" stroke-linejoin="round" stroke-width="2"/>
</svg>
