<svg xmlns="http://www.w3.org/2000/svg" width="20" height="20" viewBox="0 0 20 20" fill="none">
  <path d="M4.684 8.0989C4.6478 9.2076 4.7844 10.435 5.2497 11.4707 5.4838 11.9918 5.6009 12.2524 5.8094 12.2164 6.018 12.1804 6.0394 11.8542 6.0823 11.2015 6.3638 6.9203 10.0514 2.3507 14.3621 1.7221 14.7971 1.6587 15.0146 1.627 15.2706 1.7542 15.5265 1.8814 15.6373 2.0884 15.8588 2.5025 19.5648 9.4301 16.782 18.3333 9.6508 18.3333 4.0401 18.3333 0.6914 11.8269 3.5304 7.5696 3.9829 6.8911 4.2091 6.5518 4.4692 6.6318 4.7293 6.7117 4.7142 7.1741 4.684 8.0989Z" stroke="currentColor" stroke-linejoin="round" stroke-width="2"/>
</svg>
