<svg xmlns="http://www.w3.org/2000/svg" width="20" height="20" viewBox="0 0 20 20" fill="none">
  <path d="M8.7738 6.6667H11.2262C11.6922 6.6667 12.1818 6.6686 12.3902 7.1811 12.5366 7.5416 12.5366 8.2917 12.3902 8.6523 12.1818 9.1647 11.6922 9.1667 11.2262 9.1667H8.7738C8.3077 9.1667 7.8181 9.1647 7.6099 8.6523 7.4634 8.2917 7.4634 7.5416 7.6099 7.1811 7.8181 6.6686 8.3077 6.6667 8.7738 6.6667Z" stroke="currentColor" stroke-linecap="round" stroke-linejoin="round" stroke-width="2"/>
  <path d="M8.7738 9.1667H11.2262C11.6922 9.1667 12.1818 9.1686 12.3902 9.6811 12.5366 10.0417 12.5366 10.7917 12.3902 11.1523 12.1818 11.6647 11.6922 11.6667 11.2262 11.6667H8.7738C8.3077 11.6667 7.8181 11.6647 7.6099 11.1523 7.4634 10.7917 7.4634 10.0417 7.6099 9.6811 7.8181 9.1686 8.3077 9.1667 8.7738 9.1667Z" stroke="currentColor" stroke-linecap="round" stroke-linejoin="round" stroke-width="2"/>
  <path d="M6.25 15.8333C6.2852 15.7278 6.3027 15.6751 6.3216 15.6283 6.5617 15.0309 7.1245 14.6253 7.7672 14.5864 7.8175 14.5833 7.8731 14.5833 7.9843 14.5833H12.0158C12.1269 14.5833 12.1825 14.5833 12.2328 14.5864 12.8755 14.6253 13.4383 15.0309 13.6784 15.6283 13.6972 15.6751 13.7148 15.7278 13.75 15.8333" stroke="currentColor" stroke-linecap="round" stroke-linejoin="round" stroke-width="2"/>
  <path d="M10 14.5833V18.3333M10 18.3333H15.8333M10 18.3333H4.1667" stroke="currentColor" stroke-linecap="round" stroke-linejoin="round" stroke-width="2"/>
  <path d="M17.5 7.0833L16.4966 5.9127C15.7602 5.0536 15.3921 4.6241 14.8948 4.3954 14.3975 4.1667 13.8317 4.1667 12.7003 4.1667H7.2997C6.1682 4.1667 5.6025 4.1667 5.1052 4.3954 4.6079 4.6241 4.2397 5.0536 3.5034 5.9127L2.5 7.0833" stroke="currentColor" stroke-linecap="round" stroke-linejoin="round" stroke-width="2"/>
  <path d="M10 6.6667L10 1.6667" stroke="currentColor" stroke-linecap="round" stroke-linejoin="round" stroke-width="2"/>
</svg>
