<svg xmlns="http://www.w3.org/2000/svg" width="20" height="20" viewBox="0 0 20 20" fill="none">
  <path d="M15 2.5V6.6667M5 2.5V6.6667" stroke="currentColor" stroke-linecap="round" stroke-linejoin="round" stroke-width="2"/>
  <path d="M17.0833 3.3333V4.5833M17.0833 4.5833V5.8333M17.0833 4.5833H18.3333M2.9167 3.3333V4.5833M2.9167 4.5833V5.8333M2.9167 4.5833H1.6667" stroke="currentColor" stroke-linecap="round" stroke-linejoin="round" stroke-width="2"/>
  <path d="M15 4.5833L5 4.5833" stroke="currentColor" stroke-linecap="round" stroke-linejoin="round" stroke-width="2"/>
  <path d="M8.3333 4.5833V8.3333M11.6667 4.5833V8.3333" stroke="currentColor" stroke-linecap="round" stroke-linejoin="round" stroke-width="2"/>
  <path d="M15.7931 13.3333H4.2187M11.8797 8.3333H8.5055C7.6659 8.3333 7.3548 8.4536 6.8931 9.1603L4.3821 13.0036C4.2278 13.2398 4.1667 13.4282 4.1667 13.7151 4.1667 15.5095 4.8943 15.8333 6.5391 15.8333H13.4141C15.1112 15.8333 15.8333 15.5137 15.8333 13.6733 15.8333 13.4182 15.786 13.2488 15.6631 13.0292L13.5493 9.2547C13.1042 8.4598 12.7841 8.3333 11.8797 8.3333Z" stroke="currentColor" stroke-linecap="round" stroke-linejoin="round" stroke-width="2"/>
  <path d="M13.3333 15.8333V17.5M6.6667 15.8333V17.5" stroke="currentColor" stroke-linecap="round" stroke-linejoin="round" stroke-width="2"/>
</svg>
