<svg xmlns="http://www.w3.org/2000/svg" width="20" height="20" viewBox="0 0 20 20" fill="none">
  <path d="M15 2.5V6.6667M5 2.5V6.6667" stroke="currentColor" stroke-linecap="round" stroke-linejoin="round" stroke-width="2"/>
  <path d="M17.0833 3.3333V4.5833M17.0833 4.5833V5.8333M17.0833 4.5833H18.3333M2.9167 3.3333V4.5833M2.9167 4.5833V5.8333M2.9167 4.5833H1.6667" stroke="currentColor" stroke-linecap="round" stroke-linejoin="round" stroke-width="2"/>
  <path d="M15 4.5833L5 4.5833" stroke="currentColor" stroke-linecap="round" stroke-linejoin="round" stroke-width="2"/>
  <path d="M6.0638 15.8333H13.9363C14.9675 15.8333 15.4831 15.8333 15.6963 15.5812 16.1803 15.0089 15.2532 14.2526 14.9149 13.8713 14.5338 13.4418 14.2549 13.3333 13.6916 13.3333H6.3084C5.7451 13.3333 5.4663 13.4418 5.0851 13.8713 4.7468 14.2526 3.8198 15.0089 4.3037 15.5812 4.5169 15.8333 5.0325 15.8333 6.0638 15.8333Z" stroke="currentColor" stroke-linecap="round" stroke-linejoin="round" stroke-width="2"/>
  <path d="M7.5 6.6667V13.3333M12.5 6.6667V13.3333" stroke="currentColor" stroke-linecap="round" stroke-linejoin="round" stroke-width="2"/>
  <path d="M13.3333 15.8333V17.5M6.6667 15.8333V17.5" stroke="currentColor" stroke-linecap="round" stroke-linejoin="round" stroke-width="2"/>
</svg>
