<svg xmlns="http://www.w3.org/2000/svg" width="20" height="20" viewBox="0 0 20 20" fill="none">
  <path d="M7.2816 6.4835L4.0391 9.7978C3.0644 10.7942 2.577 11.2923 2.5105 11.9002 2.4965 12.0286 2.4965 12.1583 2.5105 12.2867 2.577 12.8944 3.0644 13.3926 4.0391 14.389L4.1633 14.5159C4.6837 15.0479 4.944 15.3138 5.2553 15.4926 5.4363 15.5964 5.629 15.6778 5.8292 15.735 6.1736 15.8333 6.5429 15.8333 7.2816 15.8333 8.0203 15.8333 8.3897 15.8333 8.734 15.735 8.9342 15.6778 9.1268 15.5964 9.3079 15.4926 9.6193 15.3138 9.8795 15.0479 10.3998 14.5159L12.7699 12.0934M7.2816 6.4835L10.2666 3.4359C11.4221 2.2563 11.9998 1.6665 12.7189 1.6667 13.438 1.6669 14.0154 2.2571 15.1702 3.4374L15.7894 4.0704C16.9299 5.2362 17.5002 5.8191 17.5 6.5417 17.4998 7.2644 16.9292 7.8469 15.788 9.012L12.7699 12.0934M7.2816 6.4835L12.7699 12.0934" stroke="currentColor" stroke-linecap="round" stroke-linejoin="round" stroke-width="2"/>
  <path d="M8.3333 18.3333L17.5 18.3333" stroke="currentColor" stroke-linecap="round" stroke-linejoin="round" stroke-width="2"/>
</svg>
