<svg xmlns="http://www.w3.org/2000/svg" width="20" height="20" viewBox="0 0 20 20" fill="none">
  <path d="M1.6667 10C1.6667 6.8573 1.6667 5.286 2.643 4.3096 3.6193 3.3333 5.1906 3.3333 8.3333 3.3333H10.8333C12.469 3.3333 13.2869 3.3333 13.9908 3.6852 14.6945 4.0371 15.1853 4.6914 16.1667 6 17.6111 7.9259 18.3333 8.8889 18.3333 10 18.3333 11.1111 17.6111 12.0741 16.1667 14 15.1853 15.3086 14.6945 15.9628 13.9908 16.3148 13.2869 16.6667 12.469 16.6667 10.8333 16.6667H8.3333C5.1906 16.6667 3.6193 16.6667 2.643 15.6903 1.6667 14.7141 1.6667 13.1427 1.6667 10Z" stroke="currentColor" stroke-width="2"/>
  <path d="M11.6667 7.5L6.6667 12.4997M11.6667 12.5L6.6667 7.5003" stroke="currentColor" stroke-linecap="round" stroke-linejoin="round" stroke-width="2"/>
</svg>
