<svg xmlns="http://www.w3.org/2000/svg" width="20" height="20" viewBox="0 0 20 20" fill="none">
  <path d="M13.3333 3.3333H6.6667C4.3096 3.3333 3.1311 3.3333 2.3989 4.0656 1.6667 4.7978 1.6667 5.9763 1.6667 8.3333V10.4167C1.6667 11.5815 1.6667 12.1639 1.857 12.6234 2.1107 13.2359 2.5974 13.7227 3.21 13.9763 3.6694 14.1667 4.2518 14.1667 5.4167 14.1667L6.0008 14.8676C6.738 15.7523 7.1066 16.1946 7.6105 16.4307 8.1145 16.6667 8.6903 16.6667 9.8418 16.6667H10.1582C11.3098 16.6667 11.8855 16.6667 12.3894 16.4307 12.8934 16.1946 13.262 15.7523 13.9992 14.8676L14.5833 14.1667C15.7482 14.1667 16.3306 14.1667 16.7901 13.9763 17.4026 13.7227 17.8893 13.2359 18.143 12.6234 18.3333 12.1639 18.3333 11.5815 18.3333 10.4167V8.3333C18.3333 5.9763 18.3333 4.7978 17.6011 4.0656 16.8688 3.3333 15.6903 3.3333 13.3333 3.3333Z" stroke="currentColor" stroke-linecap="round" stroke-linejoin="round" stroke-width="2"/>
  <path d="M5 6.6667V9.1667" stroke="currentColor" stroke-linecap="round" stroke-linejoin="round" stroke-width="2"/>
  <path d="M8.3333 6.6667V9.1667" stroke="currentColor" stroke-linecap="round" stroke-linejoin="round" stroke-width="2"/>
  <path d="M11.6667 6.6667V9.1667" stroke="currentColor" stroke-linecap="round" stroke-linejoin="round" stroke-width="2"/>
  <path d="M15 6.6667V9.1667" stroke="currentColor" stroke-linecap="round" stroke-linejoin="round" stroke-width="2"/>
</svg>
