<svg xmlns="http://www.w3.org/2000/svg" width="20" height="20" viewBox="0 0 20 20" fill="none">
  <path d="M15.8333 9.9999L11.0336 12.1487C10.524 12.3828 10.2693 12.4999 9.9999 12.4999 9.7307 12.4999 9.4758 12.3828 8.9663 12.1487L4.1666 9.9999M15.8333 9.9999C15.8333 9.5564 15.5787 9.1664 15.0694 8.3863L12.1497 3.9134C11.1719 2.4155 10.6831 1.6666 9.9999 1.6666 9.3168 1.6666 8.8279 2.4155 7.8502 3.9134L4.9305 8.3863C4.4212 9.1664 4.1666 9.5564 4.1666 9.9999M15.8333 9.9999C15.8333 10.4435 15.5787 10.8335 15.0694 11.6137L12.1497 16.0865C11.1719 17.5843 10.6831 18.3332 9.9999 18.3332 9.3168 18.3332 8.8279 17.5843 7.8502 16.0865L4.9305 11.6137C4.4212 10.8335 4.1666 10.4435 4.1666 9.9999" stroke="currentColor" stroke-linecap="round" stroke-linejoin="round" stroke-width="2"/>
</svg>
