<svg xmlns="http://www.w3.org/2000/svg" width="20" height="20" viewBox="0 0 20 20" fill="none">
  <path d="M2.0833 10C2.0833 6.4752 2.0833 4.7128 3.0816 3.544 3.2234 3.378 3.378 3.2234 3.544 3.0816 4.7128 2.0833 6.4752 2.0833 10 2.0833 13.5248 2.0833 15.2872 2.0833 16.456 3.0816 16.622 3.2234 16.7766 3.378 16.9183 3.544 17.9167 4.7128 17.9167 6.4752 17.9167 10 17.9167 13.5248 17.9167 15.2872 16.9183 16.456 16.7766 16.622 16.622 16.7766 16.456 16.9183 15.2872 17.9167 13.5248 17.9167 10 17.9167 6.4752 17.9167 4.7128 17.9167 3.544 16.9183 3.378 16.7766 3.2234 16.622 3.0816 16.456 2.0833 15.2872 2.0833 13.5248 2.0833 10Z" stroke="currentColor" stroke-width="2"/>
  <path d="M12.5 12.0769C12.1013 12.8298 11.376 13.3333 10.5473 13.3333 9.2892 13.3333 8.2692 12.1726 8.2692 10.7408V9.2593C8.2692 7.8274 9.2892 6.6667 10.5473 6.6667 11.376 6.6667 12.1013 7.1702 12.5 7.9231M7.5 10H10.7692" stroke="currentColor" stroke-linecap="round" stroke-width="2"/>
</svg>
