<svg xmlns="http://www.w3.org/2000/svg" width="20" height="20" viewBox="0 0 20 20" fill="none">
  <path d="M1.6667 17.5H12.5" stroke="currentColor" stroke-linecap="round" stroke-linejoin="round" stroke-width="2"/>
  <path d="M11.6667 17.5V7.0833C11.6667 5.1287 11.6667 4.1514 11.1501 3.4781 11.0171 3.3048 10.8619 3.1496 10.6886 3.0166 10.0153 2.5 9.038 2.5 7.0833 2.5 5.1287 2.5 4.1514 2.5 3.4781 3.0166 3.3048 3.1496 3.1496 3.3048 3.0166 3.4781 2.5 4.1514 2.5 5.1287 2.5 7.0833V17.5" stroke="currentColor" stroke-linecap="round" stroke-linejoin="round" stroke-width="2"/>
  <path d="M7.0841 5.8333L6.3931 7.2153C6.1638 7.6739 6.0492 7.9032 6.1254 8.0809 6.1416 8.1189 6.1635 8.1542 6.1901 8.1857 6.315 8.3333 6.5713 8.3333 7.0841 8.3333 7.5969 8.3333 7.8532 8.3333 7.9781 8.4809 8.0047 8.5125 8.0266 8.5478 8.0429 8.5857 8.1191 8.7634 8.0044 8.9928 7.7751 9.4513L7.0841 10.8333" stroke="currentColor" stroke-linecap="round" stroke-linejoin="round" stroke-width="2"/>
  <path d="M11.6667 10.8333H12.5C13.2766 10.8333 13.6648 10.8333 13.9712 10.9602 14.3795 11.1293 14.704 11.4538 14.8732 11.8622 15 12.1685 15 12.5567 15 13.3333V14.1667C15 15.0872 15.7462 15.8333 16.6667 15.8333 17.5872 15.8333 18.3333 15.0872 18.3333 14.1667V8.0474C18.3333 7.3661 18.3333 7.0255 18.2065 6.7192 18.0796 6.4129 17.8388 6.1721 17.357 5.6904L15.8333 4.1667M17.0833 5.8333V7.1548C17.0833 7.6355 17.0833 7.8759 17.1472 8.0998 17.1822 8.2229 17.2313 8.3415 17.2936 8.4533 17.4068 8.6568 17.5768 8.8268 17.9167 9.1667" stroke="currentColor" stroke-linecap="round" stroke-linejoin="round" stroke-width="2"/>
</svg>
