<svg xmlns="http://www.w3.org/2000/svg" width="20" height="20" viewBox="0 0 20 20" fill="none">
  <path d="M2.5 18.3333V5.8333C2.5 3.8691 2.5 2.8871 3.1102 2.2769 3.7204 1.6667 4.7025 1.6667 6.6667 1.6667H9.1667C11.1308 1.6667 12.1129 1.6667 12.7232 2.2769 13.3333 2.8871 13.3333 3.8691 13.3333 5.8333V18.3333" stroke="currentColor" stroke-width="2"/>
  <path d="M1.6667 18.3333H14.1667" stroke="currentColor" stroke-linecap="round" stroke-width="2"/>
  <path d="M2.5 9.1667H13.3333" stroke="currentColor" stroke-linecap="round" stroke-width="2"/>
  <path d="M17.5 7.1055L17.8727 6.9212C18.0968 6.8103 18.2089 6.7549 18.2711 6.6552 18.3333 6.5556 18.3333 6.4317 18.3333 6.1837V5.6053C18.3333 5.0688 18.3333 4.8006 18.1879 4.6772 18.1418 4.6382 18.0878 4.6095 18.0294 4.5933 17.845 4.542 17.6194 4.6908 17.1682 4.9884 16.5893 5.3702 16.2998 5.5611 16.1154 5.8334 16.0542 5.9239 16.0021 6.0201 15.96 6.1207 15.8333 6.4235 15.8333 6.7677 15.8333 7.4561V8.8164C15.8333 9.0098 15.9918 9.1667 16.1873 9.1667 16.4768 9.1667 16.7372 8.9923 16.8447 8.7263L17.5 7.1055Z" stroke="currentColor" stroke-linejoin="round" stroke-width="2"/>
  <path d="M16.2315 9.1667C16.3991 10.3219 16.7877 11.6415 16.6296 12.8166 16.4865 13.8808 15.6438 14.7397 14.5354 14.951 14.2786 15 13.9635 15 13.3333 15" stroke="currentColor" stroke-linejoin="round" stroke-width="2"/>
  <path d="M8.5417 11.6667L6.9203 13.2642C6.7224 13.478 6.6234 13.5849 6.6847 13.6675 6.746 13.75 6.9244 13.75 7.2812 13.75H8.5521C8.9089 13.75 9.0873 13.75 9.1486 13.8325 9.2099 13.9151 9.111 14.022 8.9131 14.2358L7.2812 15.8333" stroke="currentColor" stroke-linecap="round" stroke-linejoin="round" stroke-width="2"/>
</svg>
