<svg xmlns="http://www.w3.org/2000/svg" width="20" height="20" viewBox="0 0 20 20" fill="none">
  <path d="M5 6.6667V5.8333C5 4.6548 5 4.0656 4.6339 3.6994 4.2678 3.3333 3.6785 3.3333 2.5 3.3333H1.6667" stroke="currentColor" stroke-linecap="round" stroke-linejoin="round" stroke-width="2"/>
  <path d="M15 13.3333V14.1667C15 15.3452 15 15.9344 15.3661 16.3006 15.7322 16.6667 16.3215 16.6667 17.5 16.6667H18.3333" stroke="currentColor" stroke-linecap="round" stroke-linejoin="round" stroke-width="2"/>
  <path d="M8.3333 1.8334C8.8718 1.7241 9.4292 1.6667 10 1.6667 14.6023 1.6667 18.3333 5.3976 18.3333 10 18.3333 12.2713 17.4248 14.3302 15.9512 15.8333M11.6667 18.1667C11.1282 18.2759 10.5708 18.3333 10 18.3333 5.3976 18.3333 1.6667 14.6023 1.6667 10 1.6667 7.6688 2.6239 5.5612 4.1667 4.0488" stroke="currentColor" stroke-linecap="round" stroke-linejoin="round" stroke-width="2"/>
  <path d="M10.8333 10H8.75V6.6667H10.8333C11.7538 6.6667 12.5 7.4129 12.5 8.3333 12.5 9.2538 11.7538 10 10.8333 10Z" stroke="currentColor" stroke-linecap="round" stroke-linejoin="round" stroke-width="2"/>
  <path d="M11.25 13.3333H8.75V10H11.25C12.1705 10 12.9167 10.7462 12.9167 11.6667 12.9167 12.5872 12.1705 13.3333 11.25 13.3333Z" stroke="currentColor" stroke-linecap="round" stroke-linejoin="round" stroke-width="2"/>
  <path d="M10 5.4167V6.6667M10 14.5833V13.3333" stroke="currentColor" stroke-linecap="round" stroke-linejoin="round" stroke-width="2"/>
  <path d="M8.75 6.6667H7.5M8.75 13.3333H7.5" stroke="currentColor" stroke-linecap="round" stroke-linejoin="round" stroke-width="2"/>
</svg>
