<svg xmlns="http://www.w3.org/2000/svg" width="20" height="20" viewBox="0 0 20 20" fill="none">
  <path d="M3.4375 7.9167L3.4375 2.9167M5 2.9167V1.6667M5 9.1667V7.9167M3.4375 5.4167H6.5625M6.5625 5.4167C7.0803 5.4167 7.5 5.8364 7.5 6.3542V6.9792C7.5 7.4969 7.0803 7.9167 6.5625 7.9167H2.5M6.5625 5.4167C7.0803 5.4167 7.5 4.9969 7.5 4.4792V3.8542C7.5 3.3364 7.0803 2.9167 6.5625 2.9167H2.5" stroke="currentColor" stroke-linecap="round" stroke-linejoin="round" stroke-width="2"/>
  <path d="M12.5 14.5833L15 10.8333 17.5 14.5833M12.5 14.5833L15 18.3333 17.5 14.5833M12.5 14.5833L15 15.5208 17.5 14.5833" stroke="currentColor" stroke-linecap="round" stroke-linejoin="round" stroke-width="2"/>
  <path d="M10 4.1667C12.357 4.1667 14.3688 4.1667 15.1011 4.8323 15.8333 5.498 15.8333 6.1906 15.8333 8.3333L14.1667 7.5" stroke="currentColor" stroke-linecap="round" stroke-linejoin="round" stroke-width="2"/>
  <path d="M10 15.8333C7.643 15.8333 5.6311 15.8333 4.8989 15.1677 4.1667 14.502 4.1667 13.8094 4.1667 11.6667L5.8333 12.5" stroke="currentColor" stroke-linecap="round" stroke-linejoin="round" stroke-width="2"/>
</svg>
