<svg xmlns="http://www.w3.org/2000/svg" width="20" height="20" viewBox="0 0 20 20" fill="none">
  <path d="M12.5 6.6667H9.1667C8.2462 6.6667 7.5 7.4129 7.5 8.3333 7.5 9.2538 8.2462 10 9.1667 10H10.8333C11.7538 10 12.5 10.7462 12.5 11.6667 12.5 12.5872 11.7538 13.3333 10.8333 13.3333H7.5" stroke="currentColor" stroke-linecap="round" stroke-linejoin="round" stroke-width="2"/>
  <path d="M10 5L10 15" stroke="currentColor" stroke-linecap="round" stroke-linejoin="round" stroke-width="2"/>
  <path d="M5 6.6667V5.8333C5 4.6548 5 4.0656 4.6339 3.6994 4.2678 3.3333 3.6785 3.3333 2.5 3.3333H1.6667" stroke="currentColor" stroke-linecap="round" stroke-linejoin="round" stroke-width="2"/>
  <path d="M15 13.3333V14.1667C15 15.3452 15 15.9344 15.3661 16.3006 15.7322 16.6667 16.3215 16.6667 17.5 16.6667H18.3333" stroke="currentColor" stroke-linecap="round" stroke-linejoin="round" stroke-width="2"/>
  <path d="M8.3333 1.8334C8.8718 1.7241 9.4292 1.6667 10 1.6667 14.6023 1.6667 18.3333 5.3976 18.3333 10 18.3333 12.2713 17.4248 14.3302 15.9512 15.8333M11.6667 18.1667C11.1282 18.2759 10.5708 18.3333 10 18.3333 5.3976 18.3333 1.6667 14.6023 1.6667 10 1.6667 7.6688 2.6239 5.5612 4.1667 4.0488" stroke="currentColor" stroke-linecap="round" stroke-linejoin="round" stroke-width="2"/>
</svg>
