<svg xmlns="http://www.w3.org/2000/svg" width="20" height="20" viewBox="0 0 20 20" fill="none">
  <path d="M13.4375 17.0833L13.4375 12.0833M15 12.0833V10.8333M15 18.3333V17.0833M13.4375 14.5833H16.5625M16.5625 14.5833C17.0803 14.5833 17.5 15.0031 17.5 15.5208V16.1458C17.5 16.6636 17.0803 17.0833 16.5625 17.0833H12.5M16.5625 14.5833C17.0803 14.5833 17.5 14.1636 17.5 13.6458V13.0208C17.5 12.5031 17.0803 12.0833 16.5625 12.0833H12.5" stroke="currentColor" stroke-linecap="round" stroke-linejoin="round" stroke-width="2"/>
  <path d="M9.1667 4.1667C11.5237 4.1667 13.5355 4.1667 14.2678 4.8323 15 5.498 15 6.1906 15 8.3333L13.3333 7.5" stroke="currentColor" stroke-linecap="round" stroke-linejoin="round" stroke-width="2"/>
  <path d="M10 16.6667C7.643 16.6667 5.6311 16.6667 4.8989 16.001 4.1667 15.3353 4.1667 14.6428 4.1667 12.5L5.8333 13.3333" stroke="currentColor" stroke-linecap="round" stroke-linejoin="round" stroke-width="2"/>
  <path d="M4.5833 2.7083C3.4327 2.7083 2.5 3.4079 2.5 4.2708 2.5 5.1338 3.4327 5.8333 4.5833 5.8333 5.7339 5.8333 6.6667 6.5329 6.6667 7.3958 6.6667 8.2588 5.7339 8.9583 4.5833 8.9583M4.5833 2.7083C5.4904 2.7083 6.2621 3.1431 6.5481 3.75M4.5833 2.7083V1.6667M4.5833 8.9583C3.6762 8.9583 2.9045 8.5235 2.6185 7.9167M4.5833 8.9583V10" stroke="currentColor" stroke-linecap="round" stroke-width="2"/>
</svg>
