<svg xmlns="http://www.w3.org/2000/svg" width="20" height="20" viewBox="0 0 20 20" fill="none">
  <path d="M9.4491 13.7477C9.6633 13.5677 9.9086 13.4265 10.1692 13.3397 11.8558 12.8105 10.9198 11.5454 12.4495 11.0464 13.63 10.6613 13.2679 10.0117 13.7277 9.4633M8.3795 11.6055C8.5443 11.4748 8.7413 11.3818 8.9586 11.3386 9.8533 11.1678 9.7175 9.7999 10.6676 9.6174 11.3213 9.485 11.2483 8.8223 11.5883 8.3922M6.2402 10.5344C6.3275 10.1795 6.6997 10.2132 6.9604 10.1264 8.5801 9.5303 7.6441 8.1244 9.2406 7.8331 10.4519 7.6558 9.9839 6.7186 10.5188 6.25" stroke="currentColor" stroke-linecap="round" stroke-width="2"/>
  <path d="M1.6667 12.7782L7.2153 18.3344M2.3644 13.1621L2.9297 12.6318C3.275 12.3079 3.6405 11.9376 4.1124 11.9038 4.5473 11.8727 5.1367 12.1048 6.7552 12.6748 7.2923 12.864 7.9572 14.5553 8.0567 15.6735 8.1048 16.2129 7.7815 16.6732 7.4062 17.0637L6.9523 17.536" stroke="currentColor" stroke-linecap="round" stroke-linejoin="round" stroke-width="2"/>
  <path d="M12.7851 1.671L18.3062 7.2547M13.165 2.3716L12.6327 2.935C12.3076 3.2792 11.9359 3.6434 11.8998 4.1158 11.8666 4.5511 12.0955 5.1424 12.6568 6.766 12.8429 7.3045 14.5268 7.9782 15.643 8.084 16.1827 8.1351 16.6447 7.8133 17.0368 7.4391L17.5102 6.9874" stroke="currentColor" stroke-linecap="round" stroke-linejoin="round" stroke-width="2"/>
</svg>
