<svg xmlns="http://www.w3.org/2000/svg" width="20" height="20" viewBox="0 0 20 20" fill="none">
  <path d="M12.5 2.5H15C16.1785 2.5 16.7678 2.5 17.1339 2.8661 17.5 3.2322 17.5 3.8215 17.5 5V7.5M16.6667 3.3333L9.1667 10.8333" stroke="currentColor" stroke-linecap="round" stroke-linejoin="round" stroke-width="2"/>
  <path d="M16.6667 10.8333C16.6667 13.976 16.6667 15.5474 15.6903 16.5237 14.7141 17.5 13.1427 17.5 10 17.5H9.1667C6.024 17.5 4.4526 17.5 3.4763 16.5237 2.5 15.5474 2.5 13.976 2.5 10.8333V10C2.5 6.8573 2.5 5.286 3.4763 4.3096 4.4526 3.3333 6.024 3.3333 9.1667 3.3333" stroke="currentColor" stroke-linecap="round" stroke-width="2"/>
</svg>
