<svg xmlns="http://www.w3.org/2000/svg" width="20" height="20" viewBox="0 0 20 20" fill="none">
  <path d="M16.6667 15.4167V8.3333C16.6667 5.1906 16.6667 3.6193 15.7478 2.643 14.8289 1.6667 13.35 1.6667 10.3922 1.6667L9.6078 1.6667C6.65 1.6667 5.1711 1.6667 4.2522 2.643 3.3333 3.6193 3.3333 5.1906 3.3333 8.3333L3.3333 15.4167" stroke="currentColor" stroke-linecap="round" stroke-linejoin="round" stroke-width="2"/>
  <path d="M13.75 12.5H6.25C4.6392 12.5 3.3333 13.8058 3.3333 15.4167 3.3333 17.0275 4.6392 18.3333 6.25 18.3333H13.75C15.3608 18.3333 16.6667 17.0275 16.6667 15.4167 16.6667 13.8058 15.3608 12.5 13.75 12.5Z" stroke="currentColor" stroke-linecap="round" stroke-linejoin="round" stroke-width="2"/>
  <path d="M6.6667 5L8.3333 5" stroke="currentColor" stroke-linecap="round" stroke-linejoin="round" stroke-width="2"/>
  <path d="M6.6667 8.3333L8.3333 8.3333" stroke="currentColor" stroke-linecap="round" stroke-linejoin="round" stroke-width="2"/>
  <path d="M13.4375 15.4167H13.3333M13.5417 15.4167C13.5417 15.5318 13.4484 15.625 13.3333 15.625 13.2183 15.625 13.125 15.5318 13.125 15.4167 13.125 15.3016 13.2183 15.2083 13.3333 15.2083 13.4484 15.2083 13.5417 15.3016 13.5417 15.4167Z" stroke="currentColor" stroke-linecap="round" stroke-linejoin="round" stroke-width="2"/>
</svg>
