<svg xmlns="http://www.w3.org/2000/svg" width="20" height="20" viewBox="0 0 20 20" fill="none">
  <path d="M1.6667 6.6667C1.6667 6.6667 5.3976 2.5 10 2.5 14.6023 2.5 18.3333 6.6667 18.3333 6.6667" stroke="currentColor" stroke-linecap="round" stroke-width="2"/>
  <path d="M17.9533 10.8708C18.2067 11.2261 18.3333 11.4038 18.3333 11.6667 18.3333 11.9296 18.2067 12.1073 17.9533 12.4625 16.8149 14.0588 13.9077 17.5 10 17.5 6.0923 17.5 3.1851 14.0588 2.0467 12.4625 1.7933 12.1073 1.6667 11.9296 1.6667 11.6667 1.6667 11.4038 1.7933 11.2261 2.0467 10.8708 3.1851 9.2745 6.0923 5.8333 10 5.8333 13.9077 5.8333 16.8149 9.2745 17.9533 10.8708Z" stroke="currentColor" stroke-width="2"/>
  <path d="M12.5 11.6667C12.5 10.2859 11.3808 9.1667 10 9.1667 8.6193 9.1667 7.5 10.2859 7.5 11.6667 7.5 13.0474 8.6193 14.1667 10 14.1667 11.3808 14.1667 12.5 13.0474 12.5 11.6667Z" stroke="currentColor" stroke-width="2"/>
</svg>
