<svg xmlns="http://www.w3.org/2000/svg" width="20" height="20" viewBox="0 0 20 20" fill="none">
  <path d="M5.3615 5.4329C3.5167 6.5754 2.444 8.2205 1.9322 9.1949 1.7552 9.5318 1.6667 9.7003 1.6667 10.0068 1.6666 10.3134 1.7549 10.4814 1.9313 10.8175 2.7738 12.4222 5.1392 15.8496 9.9724 15.8496 11.8712 15.8496 13.3891 15.3207 14.5833 14.581" stroke="currentColor" stroke-linecap="round" stroke-linejoin="round" stroke-width="2"/>
  <path d="M8.2322 8.2322C7.7798 8.6847 7.5 9.3097 7.5 10 7.5 11.3808 8.6193 12.5 10 12.5 10.6903 12.5 11.3153 12.2202 11.7677 11.7677" stroke="currentColor" stroke-linecap="round" stroke-width="2"/>
  <path d="M1.6667 1.6667L18.3333 18.3333" stroke="currentColor" stroke-linecap="round" stroke-linejoin="round" stroke-width="2"/>
  <path d="M8.3333 4.2904C8.8278 4.2105 9.3533 4.1667 9.9113 4.1667 14.8123 4.1667 17.2107 7.5449 18.0649 9.1264 18.2439 9.4577 18.3333 9.6233 18.3333 9.9255 18.3333 10.2278 18.2434 10.3939 18.0638 10.7264 17.8065 11.2023 17.4097 11.8404 16.8472 12.5" stroke="currentColor" stroke-linecap="round" stroke-linejoin="round" stroke-width="2"/>
</svg>
