<svg xmlns="http://www.w3.org/2000/svg" width="20" height="20" viewBox="0 0 20 20" fill="none">
  <path d="M5.1515 8.6111C4.3367 8.6111 4.1667 8.771 4.1667 9.537V10.9259C4.1667 11.692 4.3367 11.8518 5.1515 11.8518H7.1212V17.4074C7.1212 18.1734 7.2913 18.3333 8.1061 18.3333H10.0757C10.8906 18.3333 11.0606 18.1734 11.0606 17.4074V11.8518H13.2723C13.8902 11.8518 14.0495 11.7389 14.2192 11.1803L14.6413 9.7914C14.9321 8.8345 14.7529 8.6111 13.6943 8.6111H11.0606V6.2963C11.0606 5.7849 11.5015 5.3704 12.0454 5.3704H14.8485C15.6632 5.3704 15.8333 5.2105 15.8333 4.4444V2.5926C15.8333 1.8265 15.6632 1.6667 14.8485 1.6667H12.0454C9.3258 1.6667 7.1212 3.7394 7.1212 6.2963V8.6111H5.1515Z" stroke="currentColor" fill-rule="evenodd" clip-rule="evenodd" stroke-linejoin="round" stroke-width="2"/>
</svg>
