<svg xmlns="http://www.w3.org/2000/svg" width="20" height="20" viewBox="0 0 20 20" fill="none">
  <path d="M2.0833 6.8223C2.1701 5.0725 2.4295 3.9816 3.2055 3.2055 3.9816 2.4295 5.0725 2.1701 6.8223 2.0833M17.9167 6.8223C17.8299 5.0725 17.5705 3.9816 16.7945 3.2055 16.0184 2.4295 14.9274 2.1701 13.1777 2.0833M13.1777 17.9167C14.9274 17.8299 16.0184 17.5705 16.7945 16.7945 17.5705 16.0184 17.8299 14.9274 17.9167 13.1777M6.8223 17.9167C5.0725 17.8299 3.9816 17.5705 3.2055 16.7945 2.4295 16.0184 2.1701 14.9274 2.0833 13.1777" stroke="currentColor" stroke-linecap="round" stroke-linejoin="round" stroke-width="2"/>
  <path d="M14.5833 14.1667L14.4148 13.4593C14.2756 12.8748 13.8324 12.4104 13.2551 12.2441L11.25 11.6662 11.2498 10.4432C11.997 9.9388 12.4998 8.9963 12.4998 7.9167 12.4998 6.3058 11.3804 5 9.9998 5 8.619 5 7.4997 6.3058 7.4997 7.9167 7.4997 8.9963 8.0025 9.9388 8.7498 10.4432L8.75 11.6662 6.7574 12.2495C6.1979 12.4133 5.7646 12.8575 5.6149 13.4209L5.4167 14.1667" stroke="currentColor" stroke-linecap="round" stroke-linejoin="round" stroke-width="2"/>
</svg>
