<svg xmlns="http://www.w3.org/2000/svg" width="20" height="20" viewBox="0 0 20 20" fill="none">
  <path d="M7.5 11.25V7.5C7.5 6.7143 7.5 6.3215 7.2559 6.0774 7.0118 5.8333 6.619 5.8333 5.8333 5.8333H4.1667C3.381 5.8333 2.9882 5.8333 2.7441 6.0774 2.5 6.3215 2.5 6.7143 2.5 7.5V15C2.5 16.5713 2.5 17.357 2.9882 17.8452 3.4763 18.3333 4.262 18.3333 5.8333 18.3333H7.5M7.5 11.25L10.2639 9.868C11.1812 9.4094 11.6398 9.1801 11.9952 9.3325 12.0711 9.3651 12.1417 9.4087 12.2048 9.4621 12.5 9.7118 12.5 10.2245 12.5 11.25L15.088 9.956C16.169 9.4155 16.7096 9.1453 17.1048 9.3895 17.5 9.6337 17.5 10.2381 17.5 11.4468V15C17.5 16.5713 17.5 17.357 17.0118 17.8452 16.5237 18.3333 15.738 18.3333 14.1667 18.3333H7.5M7.5 11.25V18.3333" stroke="currentColor" stroke-linecap="round" stroke-linejoin="round" stroke-width="2"/>
  <path d="M2.5 8.3333H7.5" stroke="currentColor" stroke-linecap="round" stroke-linejoin="round" stroke-width="2"/>
  <path d="M10.8333 1.6667H6.6667C5.881 1.6667 5.4882 1.6667 5.2441 1.9107 5 2.1548 5 2.5477 5 3.3333" stroke="currentColor" stroke-linecap="round" stroke-linejoin="round" stroke-width="2"/>
  <path d="M13.3333 1.6667H14.1667" stroke="currentColor" stroke-linecap="round" stroke-linejoin="round" stroke-width="2"/>
  <path d="M9.1667 4.1667L14.1667 4.1667" stroke="currentColor" stroke-linecap="round" stroke-linejoin="round" stroke-width="2"/>
</svg>
