<svg xmlns="http://www.w3.org/2000/svg" width="20" height="20" viewBox="0 0 20 20" fill="none">
  <path d="M1.7142 16.5617L3.3374 3.9172C3.4857 2.7616 3.7788 2.5 4.9635 2.5 6.1483 2.5 6.4413 2.7616 6.5897 3.9172L8.3333 17.5H2.5499C2.1043 17.5 1.8816 17.5 1.7558 17.3588 1.63 17.2176 1.6581 16.9989 1.7142 16.5617Z" stroke="currentColor" stroke-linecap="round" stroke-linejoin="round" stroke-width="2"/>
  <path d="M8.4614 17.5H17.5C17.8928 17.5 18.0892 17.5 18.2113 17.378 18.3333 17.2559 18.3333 17.0595 18.3333 16.6667V5.8333L14.7002 8.861C14.1088 9.3538 13.8132 9.6001 13.5733 9.4878 13.3333 9.3753 13.3333 8.9905 13.3333 8.2208V5.8333L9.6267 8.5291C9.192 8.8453 8.9747 9.0033 8.7234 9.085 8.4722 9.1667 8.2035 9.1667 7.6661 9.1667H7.5" stroke="currentColor" stroke-linecap="round" stroke-linejoin="round" stroke-width="2"/>
  <path d="M3.3333 5H6.6667" stroke="currentColor" stroke-linecap="round" stroke-linejoin="round" stroke-width="2"/>
  <path d="M10 12.5L11.6667 12.5" stroke="currentColor" stroke-linecap="round" stroke-linejoin="round" stroke-width="2"/>
  <path d="M14.1667 12.5H15.8333" stroke="currentColor" stroke-linecap="round" stroke-linejoin="round" stroke-width="2"/>
</svg>
