<svg xmlns="http://www.w3.org/2000/svg" width="20" height="20" viewBox="0 0 20 20" fill="none">
  <path d="M7.5305 9.0554L8.4104 10.8298C8.5303 11.0768 8.8503 11.3137 9.1203 11.3591L10.7152 11.6263C11.735 11.7976 11.975 12.5437 11.2401 13.2796L10.0002 14.5297C9.7903 14.7414 9.6753 15.1497 9.7402 15.4421L10.0952 16.9896C10.3752 18.2145 9.7302 18.6883 8.6553 18.0482L7.1605 17.1559C6.8906 16.9946 6.4456 16.9946 6.1706 17.1559L4.6758 18.0482C3.6059 18.6883 2.956 18.2094 3.236 16.9896L3.5909 15.4421C3.6559 15.1497 3.5409 14.7414 3.331 14.5297L2.0911 13.2796C1.3612 12.5437 1.5961 11.7976 2.616 11.6263L4.2109 11.3591C4.4758 11.3137 4.7958 11.0768 4.9158 10.8298L5.7957 9.0554C6.2756 8.0926 7.0555 8.0926 7.5305 9.0554Z" stroke="currentColor" stroke-linecap="round" stroke-linejoin="round" stroke-width="2"/>
  <path d="M18.3333 1.6667L11.6667 8.3333M13.3333 1.6667L9.1667 5.8333M16.6667 8.3333L14.1667 10.8333" stroke="currentColor" stroke-linecap="round" stroke-width="2"/>
</svg>
