<svg xmlns="http://www.w3.org/2000/svg" width="20" height="20" viewBox="0 0 20 20" fill="none">
  <path d="M7.9832 10.5241C6.7012 11.2405 5.8333 12.6188 5.8333 14.2015 5.8333 15.9415 6.8822 17.4344 8.3771 18.0725 8.9617 18.322 9.2539 18.4468 9.627 18.1975 10 17.9483 10 17.5397 10 16.7225V12.0833C9.0304 12.0833 8.2156 11.421 7.9832 10.5241Z" stroke="currentColor" stroke-linejoin="round" stroke-width="2"/>
  <path d="M7.9167 10H3.2775C2.4603 10 2.0517 10 1.8025 9.627 1.5532 9.2539 1.678 8.9617 1.9275 8.3771 2.5656 6.8822 4.0585 5.8333 5.7984 5.8333 7.3811 5.8333 8.7594 6.7012 9.4758 7.9832 8.579 8.2156 7.9167 9.0304 7.9167 10Z" stroke="currentColor" stroke-linejoin="round" stroke-width="2"/>
  <path d="M10 7.9167V3.2775C10 2.4603 10 2.0517 10.373 1.8025 10.7461 1.5532 11.0383 1.678 11.6229 1.9275 13.1178 2.5656 14.1667 4.0585 14.1667 5.7984 14.1667 7.3811 13.2988 8.7594 12.0168 9.4758 11.7844 8.579 10.9696 7.9167 10 7.9167Z" stroke="currentColor" stroke-linejoin="round" stroke-width="2"/>
  <path d="M10.5242 12.0168C11.421 11.7844 12.0833 10.9696 12.0833 10H16.7225C17.5397 10 17.9483 10 18.1975 10.373 18.4468 10.7461 18.322 11.0383 18.0725 11.6229 17.4344 13.1178 15.9415 14.1667 14.2016 14.1667 12.6189 14.1667 11.2406 13.2988 10.5242 12.0168Z" stroke="currentColor" stroke-linejoin="round" stroke-width="2"/>
  <path d="M12.0832 9.9994C12.0832 11.15 11.1504 12.0828 9.9998 12.0828 8.8492 12.0828 7.9165 11.15 7.9165 9.9994 7.9165 8.8488 8.8492 7.9161 9.9998 7.9161 11.1504 7.9161 12.0832 8.8488 12.0832 9.9994Z" stroke="currentColor" stroke-width="2"/>
</svg>
