<svg xmlns="http://www.w3.org/2000/svg" width="20" height="20" viewBox="0 0 20 20" fill="none">
  <path d="M1.6667 4.9512C4.5833 7.8109 8.8129 6.5853 9.777 4.9512 9.9188 4.7108 10 4.4318 10 4.1341 10 3.2316 9.2538 2.5 8.3333 2.5 7.4129 2.5 6.6667 3.2316 6.6667 4.1341" stroke="currentColor" stroke-linecap="round" stroke-width="2"/>
  <path d="M14.1667 7.4401C14.1667 6.0925 15.0994 5 16.25 5 17.4006 5 18.3333 6.0925 18.3333 7.4401 18.3333 8.0377 18.1499 8.5851 17.8455 9.0092 16.1219 11.8262 7.7303 10.7637 3.3333 9.8803" stroke="currentColor" stroke-linecap="round" stroke-width="2"/>
  <path d="M10.9045 16.5727C11.0761 17.113 11.5391 17.5 12.0833 17.5 12.7737 17.5 13.3333 16.8773 13.3333 16.1092 13.3333 15.848 13.2687 15.6037 13.1561 15.3948 12.0833 13.3271 6.6666 11.9366 1.6667 15.6455" stroke="currentColor" stroke-linecap="round" stroke-width="2"/>
  <path d="M15.8333 12.9167H17.5" stroke="currentColor" stroke-linecap="round" stroke-linejoin="round" stroke-width="2"/>
</svg>
