<svg xmlns="http://www.w3.org/2000/svg" width="20" height="20" viewBox="0 0 20 20" fill="none">
  <path d="M10 13.3626V6.6374C10 5.0314 10 4.2284 10.4932 4.0075 10.9864 3.7865 11.5836 4.3219 12.778 5.3928L16.5285 8.7554C17.1763 9.3362 17.5003 9.6267 17.5003 10 17.5003 10.3733 17.1763 10.6638 16.5285 11.2446L12.778 14.6072C11.5836 15.6781 10.9864 16.2135 10.4932 15.9926 10 15.7716 10 14.9686 10 13.3626Z" stroke="currentColor" stroke-linecap="round" stroke-linejoin="round" stroke-width="2"/>
  <path d="M2.5 13.3626V6.6374C2.5 5.0314 2.5 4.2284 2.9932 4.0075 3.4864 3.7865 4.0836 4.3219 5.278 5.3928L9.0285 8.7554C9.6763 9.3362 10.0002 9.6267 10.0002 10 10.0002 10.3733 9.6763 10.6638 9.0285 11.2446L5.278 14.6072C4.0836 15.6781 3.4864 16.2135 2.9932 15.9926 2.5 15.7716 2.5 14.9686 2.5 13.3626Z" stroke="currentColor" stroke-linecap="round" stroke-linejoin="round" stroke-width="2"/>
</svg>
