<svg xmlns="http://www.w3.org/2000/svg" width="20" height="20" viewBox="0 0 20 20" fill="none">
  <path d="M18.3333 10C18.3333 5.3976 14.6023 1.6667 10 1.6667 5.3976 1.6667 1.6667 5.3976 1.6667 10 1.6667 14.6023 5.3976 18.3333 10 18.3333 14.6023 18.3333 18.3333 14.6023 18.3333 10Z" stroke="currentColor" stroke-linejoin="round" stroke-width="2"/>
  <path d="M10 14.1667C10 14.1667 5.8333 11.5196 5.8333 8.9583 5.8333 7.6927 6.7105 6.6667 7.9167 6.6667 8.5417 6.6667 9.1667 6.8873 10 7.7696 10.8333 6.8873 11.4583 6.6667 12.0833 6.6667 13.2895 6.6667 14.1667 7.6927 14.1667 8.9583 14.1667 11.5196 10 14.1667 10 14.1667Z" stroke="currentColor" stroke-linejoin="round" stroke-width="2"/>
</svg>
