<svg xmlns="http://www.w3.org/2000/svg" width="20" height="20" viewBox="0 0 20 20" fill="none">
  <path d="M1.6667 10C1.6667 6.4645 1.6667 4.6967 2.765 3.5983 3.8634 2.5 5.6311 2.5 9.1667 2.5 12.7022 2.5 14.47 2.5 15.5683 3.5983 16.6667 4.6967 16.6667 6.4645 16.6667 10 16.6667 13.5355 16.6667 15.3033 15.5683 16.4017 14.47 17.5 12.7022 17.5 9.1667 17.5 5.6311 17.5 3.8634 17.5 2.765 16.4017 1.6667 15.3033 1.6667 13.5355 1.6667 10Z" stroke="currentColor" stroke-linejoin="round" stroke-width="2"/>
  <path d="M9.1667 13.75C9.1667 13.75 5 11.1029 5 8.5417 5 7.276 5.8772 6.25 7.0833 6.25 7.7083 6.25 8.3333 6.4706 9.1667 7.3529 10 6.4706 10.625 6.25 11.25 6.25 12.4562 6.25 13.3333 7.276 13.3333 8.5417 13.3333 11.1029 9.1667 13.75 9.1667 13.75Z" stroke="currentColor" stroke-linejoin="round" stroke-width="2"/>
</svg>
