<svg xmlns="http://www.w3.org/2000/svg" width="20" height="20" viewBox="0 0 20 20" fill="none">
  <path d="M12.0833 13.75L15.18 14.6814C16.3362 15.0353 17.1951 15.9628 17.4802 17.0916 17.5929 17.538 17.2074 17.9167 16.7447 17.9167H3.2553C2.7926 17.9167 2.407 17.538 2.5198 17.0916 2.8049 15.9628 3.6638 15.0353 4.82 14.6814L7.9167 13.75V11.9542C6.846 11.8185 5.8587 11.5808 5 11.2634 5.4167 10.4435 5.8333 9.2136 5.8333 6.3439 5.8333 1.4243 10.4167 1.4243 11.6667 3.0639 14.1667 2.6542 14.1667 4.704 14.1667 7.1638 14.1667 9.1316 14.7222 10.7168 15 11.2634 14.1413 11.5808 13.154 11.8185 12.0833 11.9542V13.75Z" stroke="currentColor" stroke-linejoin="round" stroke-width="2"/>
</svg>
