<svg xmlns="http://www.w3.org/2000/svg" width="20" height="20" viewBox="0 0 20 20" fill="none">
  <path d="M9.9997 16.6667C12.9168 16.6667 16.6667 11.912 16.6667 8.2009 16.6667 3.87 13.8091 1.6524 9.9997 1.6667 6.1904 1.6809 3.3333 3.87 3.3333 8.2009 3.3333 11.912 7.0826 16.6667 9.9997 16.6667Z" stroke="currentColor" stroke-linejoin="round" stroke-width="2"/>
  <path d="M10 1.6667L10 16.6667" stroke="currentColor" stroke-linecap="round" stroke-linejoin="round" stroke-width="2"/>
  <path d="M3.75 6.6667C6.6667 8.3333 13.3333 8.3333 16.25 6.6667" stroke="currentColor" stroke-linejoin="round" stroke-width="2"/>
  <path d="M3.75 10.8333C6.6667 12.5 13.3333 12.5 16.25 10.8333" stroke="currentColor" stroke-linejoin="round" stroke-width="2"/>
  <path d="M5 13.3333C5 15.3333 4.1667 17.3333 2.5 18.3333" stroke="currentColor" stroke-linecap="round" stroke-linejoin="round" stroke-width="2"/>
  <path d="M15 13.3333C15 15.3333 15.8333 17.3333 17.5 18.3333" stroke="currentColor" stroke-linecap="round" stroke-linejoin="round" stroke-width="2"/>
</svg>
