<svg xmlns="http://www.w3.org/2000/svg" width="20" height="20" viewBox="0 0 20 20" fill="none">
  <path d="M17.8333 3.5L17.3333 2.8333C17.1759 2.6235 16.929 2.5 16.6667 2.5 16.4043 2.5 16.1574 2.6235 16 2.8333L15.5 3.5C15.2522 3.8304 15.1283 3.9956 15.0642 4.1881 15 4.3805 15 4.587 15 5V15.8333C15 16.2208 15 16.4146 15.0426 16.5735 15.1582 17.0049 15.4951 17.3418 15.9265 17.4574 16.0854 17.5 16.2792 17.5 16.6667 17.5 17.0542 17.5 17.2479 17.5 17.4068 17.4574 17.8382 17.3418 18.1752 17.0049 18.2907 16.5735 18.3333 16.4146 18.3333 16.2208 18.3333 15.8333V5C18.3333 4.587 18.3333 4.3805 18.2692 4.1881 18.205 3.9956 18.0812 3.8304 17.8333 3.5Z" stroke="currentColor" stroke-linecap="square" stroke-linejoin="round" stroke-width="2"/>
  <path d="M11.1667 3.5L10.6667 2.8333C10.5093 2.6235 10.2623 2.5 10 2.5 9.7377 2.5 9.4908 2.6235 9.3333 2.8333L8.8333 3.5C8.5855 3.8304 8.4617 3.9956 8.3975 4.1881 8.3333 4.3805 8.3333 4.587 8.3333 5V15.8333C8.3333 16.2208 8.3333 16.4146 8.3759 16.5735 8.4915 17.0049 8.8284 17.3418 9.2598 17.4574 9.4188 17.5 9.6125 17.5 10 17.5 10.3875 17.5 10.5813 17.5 10.7402 17.4574 11.1716 17.3418 11.5085 17.0049 11.6241 16.5735 11.6667 16.4146 11.6667 16.2208 11.6667 15.8333V5C11.6667 4.587 11.6667 4.3805 11.6025 4.1881 11.5383 3.9956 11.4145 3.8304 11.1667 3.5Z" stroke="currentColor" stroke-linecap="square" stroke-linejoin="round" stroke-width="2"/>
  <path d="M4.5 3.5L4 2.8333C3.8426 2.6235 3.5956 2.5 3.3333 2.5 3.071 2.5 2.824 2.6235 2.6667 2.8333L2.1667 3.5C1.9189 3.8304 1.795 3.9956 1.7308 4.1881 1.6667 4.3805 1.6667 4.587 1.6667 5V15.8333C1.6667 16.2208 1.6667 16.4146 1.7093 16.5735 1.8248 17.0049 2.1618 17.3418 2.5931 17.4574 2.7521 17.5 2.9458 17.5 3.3333 17.5 3.7208 17.5 3.9146 17.5 4.0735 17.4574 4.5049 17.3418 4.8418 17.0049 4.9574 16.5735 5 16.4146 5 16.2208 5 15.8333V5C5 4.587 5 4.3805 4.9359 4.1881 4.8717 3.9956 4.7478 3.8304 4.5 3.5Z" stroke="currentColor" stroke-linecap="square" stroke-linejoin="round" stroke-width="2"/>
  <path d="M8.3333 6.6667H5V15H8.3333V6.6667Z" stroke="currentColor" stroke-linecap="round" stroke-linejoin="round" stroke-width="2"/>
  <path d="M15 6.6667H11.6667V15H15V6.6667Z" stroke="currentColor" stroke-linecap="round" stroke-linejoin="round" stroke-width="2"/>
</svg>
