<svg xmlns="http://www.w3.org/2000/svg" width="20" height="20" viewBox="0 0 20 20" fill="none">
  <path d="M5.7389 13.0008L2.2692 15.4922C2.1406 15.5834 2.0239 15.6904 1.9218 15.8107 1.1118 16.7649 2.4057 18.0551 3.3583 17.2437 3.4763 17.1433 3.5815 17.0287 3.6715 16.9025L6.1537 13.4162M7.5101 11.6717C5.8798 10.0387 4.1193 11.3785 4.1193 11.3785 4.1193 11.3785 4.9439 12.2044 5.9611 13.2233 6.9783 14.2422 7.7628 15.0279 7.7628 15.0279 7.7628 15.0279 9.1405 13.3048 7.5101 11.6717ZM7.5101 11.6717L16.6667 2.5" stroke="currentColor" stroke-linecap="round" stroke-linejoin="round" stroke-width="2"/>
  <path d="M14.2611 13.0008L17.7308 15.4922C17.8594 15.5834 17.9761 15.6904 18.0782 15.8107 18.8882 16.7649 17.5943 18.055 16.6417 17.2437 16.5237 17.1433 16.4186 17.0287 16.3285 16.9025L13.8463 13.4162M12.4898 11.6717C14.1202 10.0387 15.8807 11.3785 15.8807 11.3785 15.8807 11.3785 15.0561 12.2044 14.0389 13.2233 13.0217 14.2422 12.2372 15.0279 12.2372 15.0279 12.2372 15.0279 10.8595 13.3048 12.4898 11.6717ZM12.4898 11.6717L3.3333 2.5" stroke="currentColor" stroke-linecap="round" stroke-linejoin="round" stroke-width="2"/>
</svg>
