<svg xmlns="http://www.w3.org/2000/svg" width="20" height="20" viewBox="0 0 20 20" fill="none">
  <path d="M15.8502 11.9194L14.8416 14.1667M15.8502 11.9194H13.3333M15.8502 11.9194C16.4873 10.4999 16.8059 9.7903 16.6086 9.1447 16.5899 9.0833 16.5678 9.0232 16.5427 8.9644 16.2778 8.3467 15.5907 8.049 14.2165 7.4536L11.8342 6.4216C10.9289 6.0294 10.4763 5.8333 10 5.8333 9.5237 5.8333 9.0711 6.0294 8.1658 6.4216L5.7835 7.4536C4.4093 8.049 3.7222 8.3467 3.4573 8.9644 3.4321 9.0232 3.4101 9.0833 3.3914 9.1447 3.1941 9.7903 3.5127 10.4999 4.1498 11.9194M5.1584 14.1667L4.1498 11.9194M4.1498 11.9194H6.6667" stroke="currentColor" stroke-linecap="round" stroke-linejoin="round" stroke-width="2"/>
  <path d="M15 7.5V6.6667C15 5.0953 15 4.3096 14.5118 3.8215 14.0237 3.3333 13.238 3.3333 11.6667 3.3333H8.3333C6.762 3.3333 5.9763 3.3333 5.4882 3.8215 5 4.3096 5 5.0953 5 6.6667V7.5" stroke="currentColor" stroke-linecap="round" stroke-linejoin="round" stroke-width="2"/>
  <path d="M10 3.3333V1.6667" stroke="currentColor" stroke-linecap="round" stroke-linejoin="round" stroke-width="2"/>
  <path d="M1.6667 17.661C2.2377 18.5369 2.9759 18.5369 3.5608 17.661 5.4415 14.784 7.2329 19.7303 8.5608 17.6934 10.5858 14.6412 12.0423 19.9348 13.5608 17.661 15.541 14.6318 16.7746 19.648 18.3333 17.9868" stroke="currentColor" stroke-linecap="round" stroke-width="2"/>
</svg>
