<svg xmlns="http://www.w3.org/2000/svg" width="20" height="20" viewBox="0 0 20 20" fill="none">
  <circle cx="10" cy="10" r="5" stroke="currentColor" stroke-width="2"/>
  <path d="M6.6667 18.3333L8.9036 11.9598C9.3622 10.6532 9.5914 10 10 10 10.4086 10 10.6378 10.6532 11.0964 11.9598L13.3333 18.3333" stroke="currentColor" stroke-linecap="round" stroke-linejoin="round" stroke-width="2"/>
  <path d="M11.6667 3.3333C11.6667 4.2538 10.9205 5 10 5 9.0795 5 8.3333 4.2538 8.3333 3.3333 8.3333 2.4129 9.0795 1.6667 10 1.6667 10.9205 1.6667 11.6667 2.4129 11.6667 3.3333Z" stroke="currentColor" stroke-width="2"/>
  <path d="M15.8333 8.3333C14.9128 8.3333 14.1667 7.5871 14.1667 6.6667 14.1667 5.7462 14.9128 5 15.8333 5 16.7538 5 17.5 5.7462 17.5 6.6667 17.5 7.5871 16.7538 8.3333 15.8333 8.3333Z" stroke="currentColor" stroke-width="2"/>
  <path d="M5.8333 13.3333C5.8333 14.2538 5.0871 15 4.1667 15 3.2462 15 2.5 14.2538 2.5 13.3333 2.5 12.4128 3.2462 11.6667 4.1667 11.6667 5.0871 11.6667 5.8333 12.4128 5.8333 13.3333Z" stroke="currentColor" stroke-width="2"/>
  <path d="M5.8333 6.4583C5.8333 7.3788 5.0871 8.125 4.1667 8.125 3.2462 8.125 2.5 7.3788 2.5 6.4583 2.5 5.5379 3.2462 4.7917 4.1667 4.7917 5.0871 4.7917 5.8333 5.5379 5.8333 6.4583Z" stroke="currentColor" stroke-width="2"/>
  <path d="M17.5 13.3333C17.5 14.2538 16.7538 15 15.8333 15 14.9128 15 14.1667 14.2538 14.1667 13.3333 14.1667 12.4128 14.9128 11.6667 15.8333 11.6667 16.7538 11.6667 17.5 12.4128 17.5 13.3333Z" stroke="currentColor" stroke-width="2"/>
</svg>
