<svg xmlns="http://www.w3.org/2000/svg" width="20" height="20" viewBox="0 0 20 20" fill="none">
  <circle cx="12.5" cy="10" r="2.5" stroke="currentColor" stroke-linejoin="round" stroke-width="2"/>
  <path d="M7.5 17.5C8.8808 17.5 10 16.3808 10 15V12.5H7.5C6.1193 12.5 5 13.6193 5 15 5 16.3808 6.1193 17.5 7.5 17.5Z" stroke="currentColor" stroke-linejoin="round" stroke-width="2"/>
  <path d="M10 7.5V12.5H7.5C6.1193 12.5 5 11.3808 5 10 5 8.6193 6.1193 7.5 7.5 7.5H10Z" stroke="currentColor" stroke-linecap="round" stroke-linejoin="round" stroke-width="2"/>
  <path d="M10 2.5V7.5H7.5C6.1193 7.5 5 6.3807 5 5 5 3.6193 6.1193 2.5 7.5 2.5H10Z" stroke="currentColor" stroke-linecap="round" stroke-linejoin="round" stroke-width="2"/>
  <path d="M10 2.5V7.5H12.5C13.8808 7.5 15 6.3807 15 5 15 3.6193 13.8808 2.5 12.5 2.5H10Z" stroke="currentColor" stroke-linecap="round" stroke-linejoin="round" stroke-width="2"/>
</svg>
