<svg xmlns="http://www.w3.org/2000/svg" width="20" height="20" viewBox="0 0 20 20" fill="none">
  <path d="M3.75 11.6667V7.8799C3.75 5.1757 3.75 3.8236 4.4884 2.9078 4.6376 2.7228 4.8061 2.5542 4.9911 2.4051 5.9069 1.6667 7.259 1.6667 9.9632 1.6667 10.5512 1.6667 10.8451 1.6667 11.1143 1.7617 11.1703 1.7814 11.2252 1.8042 11.2788 1.8298 11.5363 1.953 11.7442 2.1608 12.1599 2.5766L16.107 6.5237C16.5888 7.0054 16.8296 7.2463 16.9565 7.5526 17.0833 7.8588 17.0833 8.1995 17.0833 8.8808V11.6667C17.0833 14.8093 17.0833 16.3808 16.107 17.357 15.1308 18.3333 13.5593 18.3333 10.4167 18.3333M11.25 2.0833V2.5C11.25 4.857 11.25 6.0355 11.9823 6.7678 12.7145 7.5 13.893 7.5 16.25 7.5H16.6667" stroke="currentColor" stroke-linecap="round" stroke-linejoin="round" stroke-width="2"/>
  <path d="M5.8333 15.4167L9.5833 11.6667M8.75 12.9167L9.5833 13.75M6.25 16.6667C6.25 17.5872 5.5038 18.3333 4.5833 18.3333 3.6629 18.3333 2.9167 17.5872 2.9167 16.6667 2.9167 15.7462 3.6629 15 4.5833 15 5.5038 15 6.25 15.7462 6.25 16.6667Z" stroke="currentColor" stroke-linecap="round" stroke-linejoin="round" stroke-width="2"/>
</svg>
