<svg xmlns="http://www.w3.org/2000/svg" width="20" height="20" viewBox="0 0 20 20" fill="none">
  <path d="M18.3333 10.8325H1.6667" stroke="currentColor" stroke-linecap="round" stroke-linejoin="round" stroke-width="2"/>
  <path d="M16.6667 10.8342V8.8815C16.6667 8.2003 16.6667 7.8597 16.5398 7.5534 16.4129 7.2471 16.1721 7.0062 15.6903 6.5245L11.7433 2.5774C11.3275 2.1616 11.1197 1.9538 10.8621 1.8306 10.8085 1.805 10.7537 1.7823 10.6977 1.7625 10.4284 1.6675 10.1345 1.6675 9.5465 1.6675 6.8424 1.6675 5.4903 1.6675 4.5744 2.4059 4.3894 2.5551 4.2209 2.7236 4.0717 2.9086 3.3333 3.8244 3.3333 5.1765 3.3333 7.8807V10.8342M10.8333 2.0842V2.5008C10.8333 4.8578 10.8333 6.0364 11.5656 6.7686 12.2978 7.5008 13.4763 7.5008 15.8333 7.5008H16.25" stroke="currentColor" stroke-linecap="round" stroke-linejoin="round" stroke-width="2"/>
  <path d="M5 13.3325V14.1658M8.3333 13.3325V18.3325M11.6667 13.3325V14.9992M15 13.3325V16.6658" stroke="currentColor" stroke-linecap="round" stroke-linejoin="round" stroke-width="2"/>
</svg>
