<svg xmlns="http://www.w3.org/2000/svg" width="20" height="20" viewBox="0 0 20 20" fill="none">
  <path d="M3.3333 9.167L3.3333 12.1205C3.3333 14.8247 3.3333 16.1767 4.0717 17.0926 4.2209 17.2776 4.3894 17.4462 4.5744 17.5953 5.4903 18.3337 6.8424 18.3337 9.5465 18.3337 10.1345 18.3337 10.4284 18.3337 10.6977 18.2387 10.7537 18.2189 10.8085 18.1962 10.8621 18.1706 11.1197 18.0474 11.3275 17.8395 11.7433 17.4238L15.6903 13.4767C16.1721 12.9949 16.4129 12.7541 16.5398 12.4478 16.6667 12.1415 16.6667 11.8009 16.6667 11.1197V8.3337C16.6667 5.191 16.6667 3.6197 15.6903 2.6433 14.8078 1.7607 13.4388 1.676 10.8621 1.6679M10.8333 17.917V17.5003C10.8333 15.1433 10.8333 13.9648 11.5656 13.2326 12.2978 12.5003 13.4763 12.5003 15.8333 12.5003H16.25" stroke="currentColor" stroke-linecap="round" stroke-linejoin="round" stroke-width="2"/>
  <path d="M8.3124 6.6453C8.8402 6.1175 9.1667 5.3883 9.1667 4.5829 9.1667 2.9721 7.8608 1.6663 6.25 1.6663 5.4446 1.6663 4.7154 1.9927 4.1876 2.5205M8.3124 6.6453C7.7846 7.1731 7.0554 7.4996 6.25 7.4996 4.6392 7.4996 3.3333 6.1938 3.3333 4.5829 3.3333 3.7775 3.6598 3.0483 4.1876 2.5205M8.3124 6.6453L4.1876 2.5205" stroke="currentColor" stroke-linecap="round" stroke-linejoin="round" stroke-width="2"/>
</svg>
