<svg xmlns="http://www.w3.org/2000/svg" width="20" height="20" viewBox="0 0 20 20" fill="none">
  <path d="M5.8013 16.6667C6.7218 16.6667 7.468 15.9205 7.468 15 7.468 14.0795 6.7218 13.3333 5.8013 13.3333M5.8013 16.6667C4.8809 16.6667 4.1347 15.9205 4.1347 15 4.1347 14.0795 4.8809 13.3333 5.8013 13.3333M5.8013 16.6667V18.3333M5.8013 13.3333V11.6667M7.2468 14.163L8.6902 13.3297M4.3601 15.8297L2.9167 16.663M7.251 15.8297L8.6943 16.663M4.3642 14.163L2.9209 13.3297" stroke="currentColor" stroke-linecap="round" stroke-linejoin="round" stroke-width="2"/>
  <path d="M11.25 2.0833V2.5C11.25 4.857 11.25 6.0355 11.9823 6.7678 12.7145 7.5 13.893 7.5 16.25 7.5H16.6667" stroke="currentColor" stroke-linecap="round" stroke-linejoin="round" stroke-width="2"/>
  <path d="M11.25 18.3326C13.8453 18.325 15.2211 18.2429 16.107 17.357 17.0833 16.3808 17.0833 14.8093 17.0833 11.6667V8.8808C17.0833 8.1995 17.0833 7.8588 16.9565 7.5526 16.8296 7.2463 16.5888 7.0054 16.107 6.5237L12.1599 2.5766C11.7442 2.1608 11.5363 1.953 11.2788 1.8298 11.2252 1.8042 11.1703 1.7814 11.1143 1.7617 10.8451 1.6667 10.5512 1.6667 9.9632 1.6667 7.259 1.6667 5.9069 1.6667 4.9911 2.4051 4.8061 2.5542 4.6376 2.7228 4.4884 2.9078 3.75 3.8236 3.75 5.1757 3.75 7.8799V9.1667" stroke="currentColor" stroke-linecap="round" stroke-linejoin="round" stroke-width="2"/>
</svg>
