<svg xmlns="http://www.w3.org/2000/svg" width="20" height="20" viewBox="0 0 20 20" fill="none">
  <path d="M17.5 12.0833V17.0833C17.5 17.7737 16.0076 18.3333 14.1667 18.3333 12.3258 18.3333 10.8333 17.7737 10.8333 17.0833V12.0833" stroke="currentColor" stroke-linecap="round" stroke-linejoin="round" stroke-width="2"/>
  <path d="M10 2.0833V2.5C10 4.857 10 6.0355 10.7323 6.7678 11.4645 7.5 12.643 7.5 15 7.5H15.4167M15.8333 8.75C15.8328 8.1546 15.8249 7.8386 15.7065 7.5526 15.5796 7.2463 15.3388 7.0054 14.857 6.5237L10.9099 2.5766C10.4942 2.1608 10.2863 1.953 10.0288 1.8298 9.9752 1.8042 9.9203 1.7814 9.8643 1.7617 9.5951 1.6667 9.3012 1.6667 8.7132 1.6667 6.009 1.6667 4.6569 1.6667 3.7411 2.4051 3.5561 2.5542 3.3876 2.7228 3.2384 2.9078 2.5 3.8236 2.5 5.1757 2.5 7.8799V11.6667C2.5 14.8093 2.5 16.3808 3.4763 17.357 4.3622 18.2429 5.7381 18.325 8.3333 18.3326" stroke="currentColor" stroke-linecap="round" stroke-linejoin="round" stroke-width="2"/>
  <path d="M14.1667 13.3333C16.0076 13.3333 17.5 12.7737 17.5 12.0833 17.5 11.393 16.0076 10.8333 14.1667 10.8333 12.3258 10.8333 10.8333 11.393 10.8333 12.0833 10.8333 12.7737 12.3258 13.3333 14.1667 13.3333Z" stroke="currentColor" stroke-linecap="round" stroke-linejoin="round" stroke-width="2"/>
  <path d="M17.5 14.5833C17.5 15.2737 16.0076 15.8333 14.1667 15.8333 12.3258 15.8333 10.8333 15.2737 10.8333 14.5833" stroke="currentColor" stroke-linecap="round" stroke-linejoin="round" stroke-width="2"/>
</svg>
