<svg xmlns="http://www.w3.org/2000/svg" width="20" height="20" viewBox="0 0 20 20" fill="none">
  <path d="M10.8333 2.0835V2.5004C10.8333 4.8584 10.8333 6.0374 11.5656 6.77 12.2978 7.5025 13.4763 7.5025 15.8333 7.5025H16.25M11.6667 18.3333C13.733 18.3034 14.9044 18.1501 15.6903 17.3638 16.6667 16.3871 16.6667 14.8151 16.6667 11.671V8.8838C16.6667 8.2023 16.6667 7.8615 16.5398 7.5551 16.4129 7.2487 16.1721 7.0077 15.6903 6.5258L11.7433 2.577C11.3275 2.161 11.1197 1.9531 10.8621 1.8299 10.8085 1.8042 10.7537 1.7815 10.6977 1.7617 10.4284 1.6667 10.1345 1.6667 9.5465 1.6667 6.8424 1.6667 5.4903 1.6667 4.5744 2.4054 4.3894 2.5546 4.2209 2.7232 4.0717 2.9083 3.3333 3.8245 3.3333 5.1772 3.3333 7.8826V11.671C3.3333 12.6463 3.3333 13.4703 3.3625 14.1721" stroke="currentColor" stroke-linecap="round" stroke-linejoin="round" stroke-width="2"/>
  <path d="M8.75 17.0833C8.75 17.7737 8.1904 18.3333 7.5 18.3333 6.8096 18.3333 6.25 17.7737 6.25 17.0833 6.25 16.393 6.8096 15.8333 7.5 15.8333 8.1904 15.8333 8.75 16.393 8.75 17.0833Z" stroke="currentColor" stroke-linecap="round" stroke-linejoin="round" stroke-width="2"/>
  <path d="M7.5 15.8333V14.1667M7.5 10.8333V9.1667M7.5 5.8333V4.1667" stroke="currentColor" stroke-linecap="round" stroke-linejoin="round" stroke-width="2"/>
</svg>
