<svg xmlns="http://www.w3.org/2000/svg" width="20" height="20" viewBox="0 0 20 20" fill="none">
  <path d="M3.3333 8.3333L3.3333 12.1202C3.3333 14.8243 3.3333 16.1764 4.0717 17.0922 4.2208 17.2773 4.3894 17.4458 4.5744 17.5949 5.4902 18.3333 6.8423 18.3333 9.5465 18.3333 10.1344 18.3333 10.4284 18.3333 10.6976 18.2383 10.7536 18.2186 10.8085 18.1958 10.8621 18.1703 11.1196 18.047 11.3274 17.8392 11.7432 17.4234L15.6903 13.4763C16.172 12.9946 16.4129 12.7538 16.5398 12.4474 16.6666 12.1412 16.6666 11.8005 16.6666 11.1193V8.3333C16.6666 5.1906 16.6666 3.6193 15.6903 2.643 14.714 1.6667 13.1427 1.6667 9.9999 1.6667M10.8333 17.9167V17.5C10.8333 15.143 10.8333 13.9645 11.5655 13.2323 12.2978 12.5 13.4763 12.5 15.8333 12.5H16.2499" stroke="currentColor" stroke-linecap="round" stroke-linejoin="round" stroke-width="2"/>
  <path d="M5.8333 6.6667C5.3276 6.1751 3.3333 4.8669 3.3333 4.1667 3.3333 3.4664 5.3276 2.1582 5.8333 1.6667M3.7499 4.1667H5.8333C7.391 4.1667 8.1698 4.1667 8.7499 4.5016 9.13 4.721 9.4456 5.0366 9.665 5.4167 9.9999 5.9968 9.9999 6.7756 9.9999 8.3333" stroke="currentColor" stroke-linecap="round" stroke-linejoin="round" stroke-width="2"/>
</svg>
