<svg xmlns="http://www.w3.org/2000/svg" width="20" height="20" viewBox="0 0 20 20" fill="none">
  <path d="M3.3333 9.9957L3.3333 12.117C3.3333 14.8226 3.3333 16.1753 4.0717 17.0916 4.2209 17.2767 4.3894 17.4453 4.5744 17.5946 5.4903 18.3333 6.8424 18.3333 9.5465 18.3333 10.1345 18.3333 10.4284 18.3333 10.6977 18.2383 10.7537 18.2185 10.8085 18.1958 10.8621 18.1702 11.1197 18.0469 11.3275 17.8389 11.7433 17.423L15.6903 13.4738C16.1721 12.9919 16.4129 12.7509 16.5398 12.4445 16.6667 12.138 16.6667 11.7973 16.6667 11.1157V8.3283C16.6667 5.184 16.6667 3.6119 15.6903 2.6351 14.9142 1.8585 13.762 1.6993 11.7433 1.6667M10.8333 17.9164V17.4996C10.8333 15.1413 10.8333 13.9623 11.5656 13.2297 12.2978 12.4971 13.4763 12.4971 15.8333 12.4971H16.25" stroke="currentColor" stroke-linecap="round" stroke-linejoin="round" stroke-width="2"/>
  <path d="M9.1667 7.5L3.3333 1.6667M9.1667 1.6667L3.3333 7.5" stroke="currentColor" stroke-linecap="round" stroke-linejoin="round" stroke-width="2"/>
</svg>
