<svg xmlns="http://www.w3.org/2000/svg" width="20" height="20" viewBox="0 0 20 20" fill="none">
  <path d="M16.6663 9.1699C16.6663 9.1699 16.6663 7.8615 16.5394 7.5551 16.4125 7.2487 16.1717 7.0077 15.6899 6.5258L11.7428 2.577C11.3271 2.161 11.1193 1.9531 10.8617 1.8299 10.8082 1.8042 10.7533 1.7815 10.6973 1.7617 10.4281 1.6667 10.1341 1.6667 9.5462 1.6667 6.8419 1.6667 5.4898 1.6667 4.574 2.4054 4.389 2.5546 4.2205 2.7232 4.0713 2.9083 3.3329 3.8245 3.3329 5.1772 3.3329 7.8826V11.671C3.3329 14.8151 3.3329 16.3871 4.3092 17.3638 5.0951 18.1501 6.2666 18.3034 8.3329 18.3333M10.8329 2.0835V2.5004C10.8329 4.8584 10.8329 6.0374 11.5652 6.77 12.2974 7.5025 13.4759 7.5025 15.8329 7.5025H16.2496" stroke="currentColor" stroke-linecap="round" stroke-linejoin="round" stroke-width="2"/>
  <path d="M14.4972 16.4538C14.4972 17.4904 13.6769 18.3308 12.665 18.3308 11.6532 18.3308 10.8329 17.4904 10.8329 16.4538 10.8329 15.4172 11.6532 14.5769 12.665 14.5769 13.6769 14.5769 14.4972 15.4172 14.4972 16.4538ZM14.4972 16.4538V11.6667C14.6806 12.0802 15.5863 13.9166 16.6671 13.9166" stroke="currentColor" stroke-linecap="round" stroke-linejoin="round" stroke-width="2"/>
</svg>
