<svg xmlns="http://www.w3.org/2000/svg" width="20" height="20" viewBox="0 0 20 20" fill="none">
  <path d="M3.3333 10L3.3333 12.1202C3.3333 14.8243 3.3333 16.1764 4.0717 17.0922 4.2209 17.2773 4.3894 17.4458 4.5744 17.5949 5.4903 18.3333 6.8424 18.3333 9.5465 18.3333 10.1345 18.3333 10.4284 18.3333 10.6977 18.2383 10.7537 18.2186 10.8085 18.1958 10.8621 18.1703 11.1197 18.047 11.3275 17.8392 11.7433 17.4234L15.6903 13.4763C16.1721 12.9946 16.4129 12.7538 16.5398 12.4474 16.6667 12.1412 16.6667 11.8005 16.6667 11.1193V8.3333C16.6667 5.1906 16.6667 3.6193 15.6903 2.643 14.7141 1.6667 13.1427 1.6667 10 1.6667M10.8333 17.9167V17.5C10.8333 15.143 10.8333 13.9645 11.5656 13.2323 12.2978 12.5 13.4763 12.5 15.8333 12.5H16.25" stroke="currentColor" stroke-linecap="round" stroke-linejoin="round" stroke-width="2"/>
  <path d="M8.3333 4.1667C7.8418 3.661 6.5336 1.6667 5.8333 1.6667 5.1331 1.6667 3.8249 3.661 3.3333 4.1667M5.8333 2.5L5.8333 8.3333" stroke="currentColor" stroke-linecap="round" stroke-linejoin="round" stroke-width="2"/>
</svg>
