<svg xmlns="http://www.w3.org/2000/svg" width="20" height="20" viewBox="0 0 20 20" fill="none">
  <path d="M8.1061 1.6667C5.3884 1.6667 4.0296 1.6667 3.0859 2.3315 2.8155 2.522 2.5755 2.7479 2.3731 3.0024 1.6667 3.8906 1.6667 5.1695 1.6667 7.7273V9.8485C1.6667 12.3178 1.6667 13.5524 2.0575 14.5385 2.6857 16.1238 4.0143 17.3742 5.6986 17.9655 6.7464 18.3333 8.0582 18.3333 10.6818 18.3333 12.1811 18.3333 12.9307 18.3333 13.5293 18.1232 14.4918 17.7853 15.251 17.0708 15.61 16.1649 15.8333 15.6014 15.8333 14.8959 15.8333 13.4848V12.9167" stroke="currentColor" stroke-linecap="round" stroke-linejoin="round" stroke-width="2"/>
  <path d="M12.5 6.25C12.5 6.25 12.9167 6.25 13.3333 7.0833 13.3333 7.0833 14.6568 5 15.8333 4.5833" stroke="currentColor" stroke-linecap="round" stroke-linejoin="round" stroke-width="2"/>
  <path d="M18.3333 5.8333C18.3333 8.1345 16.4678 10 14.1667 10 11.8655 10 10 8.1345 10 5.8333 10 3.5322 11.8655 1.6667 14.1667 1.6667 16.4678 1.6667 18.3333 3.5322 18.3333 5.8333Z" stroke="currentColor" stroke-linecap="round" stroke-width="2"/>
  <path d="M1.6667 10C1.6667 11.5341 2.9103 12.7777 4.4444 12.7777 4.9993 12.7777 5.6534 12.6806 6.1928 12.8251 6.6721 12.9535 7.0465 13.3279 7.1749 13.8072 7.3194 14.3467 7.2222 15.0008 7.2222 15.5556 7.2222 17.0897 8.4659 18.3333 10 18.3333" stroke="currentColor" stroke-linecap="round" stroke-linejoin="round" stroke-width="2"/>
</svg>
