<svg xmlns="http://www.w3.org/2000/svg" width="20" height="20" viewBox="0 0 20 20" fill="none">
  <path d="M16.6667 9.9992V8.8799C16.6667 8.1987 16.6667 7.858 16.5398 7.5517 16.4129 7.2454 16.1721 7.0046 15.6903 6.5229L11.7433 2.5758C11.3275 2.16 11.1197 1.9522 10.8621 1.829 10.8085 1.8034 10.7537 1.7806 10.6977 1.7609 10.4284 1.6659 10.1345 1.6659 9.5465 1.6659 6.8424 1.6659 5.4903 1.6659 4.5744 2.4043 4.3894 2.5534 4.2209 2.722 4.0717 2.907 3.3333 3.8228 3.3333 5.1749 3.3333 7.8791V11.6658C3.3333 14.8086 3.3333 16.3799 4.3096 17.3562 5.286 18.3325 6.8573 18.3325 10 18.3325M10.8333 2.0825V2.4992C10.8333 4.8562 10.8333 6.0347 11.5656 6.767 12.2978 7.4992 13.4763 7.4992 15.8333 7.4992H16.25" stroke="currentColor" stroke-linecap="round" stroke-linejoin="round" stroke-width="2"/>
  <path d="M16.6667 14.6845V13.0419C16.6667 12.7836 16.4769 12.5692 16.2308 12.5252 15.2391 12.3478 14.4158 11.9534 14.0142 11.7347 13.8498 11.6451 13.6502 11.6451 13.4858 11.7347 13.0842 11.9534 12.2609 12.3478 11.2692 12.5252 11.0231 12.5692 10.8333 12.7836 10.8333 13.0419V14.6845C10.8333 16.8273 12.952 17.9961 13.5779 18.2947 13.6883 18.3473 13.8117 18.3473 13.9221 18.2947 14.548 17.9961 16.6667 16.8273 16.6667 14.6845Z" stroke="currentColor" stroke-linecap="round" stroke-width="2"/>
</svg>
