<svg xmlns="http://www.w3.org/2000/svg" width="20" height="20" viewBox="0 0 20 20" fill="none">
  <path d="M12.0833 13.2637C10.9103 12.0195 9.2899 11.25 7.5 11.25 5.7101 11.25 4.0896 12.0195 2.9167 13.2637M5.2083 15.6944C5.7948 15.0723 6.6051 14.6876 7.5 14.6876 8.3949 14.6876 9.2052 15.0723 9.7917 15.6944M7.6048 18.125H7.5007M7.709 18.125C7.709 18.2401 7.6157 18.3333 7.5007 18.3333 7.3856 18.3333 7.2923 18.2401 7.2923 18.125 7.2923 18.0099 7.3856 17.9167 7.5007 17.9167 7.6157 17.9167 7.709 18.0099 7.709 18.125Z" stroke="currentColor" stroke-linecap="round" stroke-linejoin="round" stroke-width="2"/>
  <path d="M3.75 8.3363V7.8826C3.75 5.1772 3.75 3.8245 4.4884 2.9083 4.6376 2.7232 4.8061 2.5546 4.9911 2.4054 5.9069 1.6667 7.259 1.6667 9.9632 1.6667 10.5512 1.6667 10.8451 1.6667 11.1143 1.7617 11.1703 1.7815 11.2252 1.8042 11.2788 1.8299 11.5363 1.9531 11.7442 2.161 12.1599 2.577L16.107 6.5258C16.5888 7.0077 16.8296 7.2487 16.9565 7.5551 17.0833 7.8615 17.0833 8.2023 17.0833 8.8838V11.671C17.0833 14.8151 17.0833 16.3871 16.107 17.3638 15.3211 18.1501 14.1497 18.3034 12.0833 18.3333M11.25 2.0835V2.5004C11.25 4.8584 11.25 6.0374 11.9823 6.77 12.7145 7.5025 13.893 7.5025 16.25 7.5025H16.6667" stroke="currentColor" stroke-linecap="round" stroke-linejoin="round" stroke-width="2"/>
</svg>
