<svg xmlns="http://www.w3.org/2000/svg" width="20" height="20" viewBox="0 0 20 20" fill="none">
  <path d="M3.3333 18.3333V7.8799C3.3333 5.1757 3.3333 3.8236 4.0717 2.9078 4.2209 2.7228 4.3894 2.5542 4.5744 2.4051 5.4903 1.6667 6.8424 1.6667 9.5465 1.6667 10.1345 1.6667 10.4284 1.6667 10.6977 1.7617 10.7537 1.7814 10.8085 1.8042 10.8621 1.8298 11.1197 1.953 11.3275 2.1608 11.7433 2.5766L15.6903 6.5237C16.1721 7.0054 16.4129 7.2463 16.5398 7.5526 16.6667 7.8588 16.6667 8.1995 16.6667 8.8808V11.6667C16.6667 14.8093 16.6667 16.3808 15.6903 17.357 14.9142 18.1332 13.762 18.2923 11.7433 18.3249M10.8333 2.0833V2.5C10.8333 4.857 10.8333 6.0355 11.5656 6.7678 12.2978 7.5 13.4763 7.5 15.8333 7.5H16.25" stroke="currentColor" stroke-linecap="round" stroke-linejoin="round" stroke-width="2"/>
  <path d="M6.25 4.5833H5.8333M8.3333 6.25H7.9167M6.25 7.9167H5.8333M8.3333 9.6022H7.9167M6.25 11.25H5.8333" stroke="currentColor" stroke-linecap="round" stroke-linejoin="round" stroke-width="2"/>
  <path d="M9.1667 18.3334V15.8333C9.1667 14.9128 8.4205 14.1667 7.5 14.1667 6.5795 14.1667 5.8333 14.9128 5.8333 15.8333V18.3334H9.1667Z" stroke="currentColor" stroke-linecap="round" stroke-linejoin="round" stroke-width="2"/>
</svg>
