<svg xmlns="http://www.w3.org/2000/svg" width="20" height="20" viewBox="0 0 20 20" fill="none">
  <path d="M5.7202 18.1507C4.7798 17.4267 2.9167 15.7718 2.9167 14.2824 2.9167 13.298 3.6184 12.5 4.5833 12.5 5.0833 12.5 5.5833 12.6716 6.25 13.3578 6.9167 12.6716 7.4167 12.5 7.9167 12.5 8.8816 12.5 9.5833 13.298 9.5833 14.2824 9.5833 15.7718 7.7202 17.4267 6.7798 18.1507 6.4633 18.3942 6.0367 18.3942 5.7202 18.1507Z" stroke="currentColor" stroke-linecap="round" stroke-linejoin="round" stroke-width="2"/>
  <path d="M3.75 10V7.8799C3.75 5.1757 3.75 3.8236 4.4884 2.9078 4.6376 2.7228 4.8061 2.5542 4.9911 2.4051 5.9069 1.6667 7.259 1.6667 9.9632 1.6667 10.5512 1.6667 10.8451 1.6667 11.1143 1.7617 11.1703 1.7814 11.2252 1.8042 11.2788 1.8298 11.5363 1.953 11.7442 2.1608 12.1599 2.5766L16.107 6.5237C16.5888 7.0054 16.8296 7.2463 16.9565 7.5526 17.0833 7.8588 17.0833 8.1995 17.0833 8.8808V11.6667C17.0833 14.8093 17.0833 16.3808 16.107 17.357 15.1308 18.3333 13.5593 18.3333 10.4167 18.3333M11.25 2.0833V2.5C11.25 4.857 11.25 6.0355 11.9823 6.7678 12.7145 7.5 13.893 7.5 16.25 7.5H16.6667" stroke="currentColor" stroke-linecap="round" stroke-linejoin="round" stroke-width="2"/>
</svg>
