<svg xmlns="http://www.w3.org/2000/svg" width="20" height="20" viewBox="0 0 20 20" fill="none">
  <path d="M12.0832 15.8333H10.4165C8.0595 15.8333 6.881 15.8333 6.1487 15.1011 5.4165 14.3688 5.4165 13.1903 5.4165 10.8333V6.6667C5.4165 4.3096 5.4165 3.1311 6.1487 2.3989 6.881 1.6667 8.0595 1.6667 10.4165 1.6667H11.5358C12.2171 1.6667 12.5577 1.6667 12.864 1.7935 13.1702 1.9204 13.4111 2.1613 13.8928 2.643L16.1068 4.857C16.5886 5.3387 16.8294 5.5796 16.9563 5.8859 17.0832 6.1922 17.0832 6.5328 17.0832 7.214V10.8333C17.0832 13.1903 17.0832 14.3688 16.3509 15.1011 15.6188 15.8333 14.4402 15.8333 12.0832 15.8333Z" stroke="currentColor" stroke-linecap="round" stroke-linejoin="round" stroke-width="2"/>
  <path d="M12.4998 2.0833V2.9167C12.4998 4.488 12.4998 5.2737 12.988 5.7618 13.4762 6.25 14.2618 6.25 15.8332 6.25H16.6665" stroke="currentColor" stroke-linecap="round" stroke-linejoin="round" stroke-width="2"/>
  <path d="M5.4162 4.1667C4.0355 4.1667 2.9162 5.286 2.9162 6.6667V13.3333C2.9162 15.6904 2.9162 16.8689 3.6484 17.6011 4.3807 18.3333 5.5592 18.3333 7.9162 18.3333H12.0832C13.4638 18.3333 14.5832 17.214 14.5832 15.8333" stroke="currentColor" stroke-linecap="round" stroke-linejoin="round" stroke-width="2"/>
  <path d="M8.3333 9.1667H11.6667M8.3333 12.5H14.1667" stroke="currentColor" stroke-linecap="round" stroke-linejoin="round" stroke-width="2"/>
</svg>
