<svg xmlns="http://www.w3.org/2000/svg" width="20" height="20" viewBox="0 0 20 20" fill="none">
  <path d="M17.2106 3.0439L16.6962 2.5296C16.3996 2.2329 16.2513 2.0846 16.0809 1.9743 15.8854 1.8478 15.6685 1.7579 15.4408 1.7092 15.2423 1.6667 15.0326 1.6667 14.6129 1.6667 13.6529 1.6667 13.1729 1.6667 12.7984 1.8347 12.37 2.0271 12.0271 2.37 11.8348 2.7985 11.6667 3.1729 11.6667 3.6529 11.6667 4.6129V6.6667C11.6667 7.9928 11.6667 8.6558 11.9807 9.1345 12.1248 9.3543 12.3124 9.5419 12.5322 9.686 13.0108 10 13.6739 10 15 10 16.3261 10 16.9892 10 17.4678 9.686 17.6876 9.5419 17.8753 9.3543 18.0193 9.1345 18.3333 8.6558 18.3333 7.9928 18.3333 6.6667V5.7545C18.3333 4.971 18.3333 4.5793 18.1874 4.2271 18.0415 3.8749 17.7646 3.5979 17.2106 3.0439Z" stroke="currentColor" stroke-linecap="round" stroke-linejoin="round" stroke-width="2"/>
  <path d="M13.3333 13.2976C13.1821 13.5182 12.9852 13.7067 12.7546 13.8513 12.2523 14.1667 11.5564 14.1667 10.1647 14.1667 8.7731 14.1667 8.0773 14.1667 7.5749 13.8513 7.3444 13.7067 7.1474 13.5182 6.9962 13.2976 6.6667 12.8168 6.6667 12.151 6.6667 10.8193V8.7568C6.6667 7.7928 6.6667 7.3107 6.8431 6.9347 7.0449 6.5044 7.4048 6.1601 7.8544 5.9669 8.0143 5.8982 8.1926 5.8575 8.4158 5.8333" stroke="currentColor" stroke-linecap="round" stroke-linejoin="round" stroke-width="2"/>
  <path d="M8.3333 17.4642C8.1821 17.6848 7.9851 17.8733 7.7546 18.018 7.2522 18.3333 6.5564 18.3333 5.1648 18.3333 3.7731 18.3333 3.0773 18.3333 2.5749 18.018 2.3444 17.8733 2.1474 17.6848 1.9962 17.4642 1.6667 16.9835 1.6667 16.3177 1.6667 14.9859V12.9235C1.6667 11.9594 1.6667 11.4774 1.8431 11.1013 2.0449 10.6711 2.4048 10.3268 2.8544 10.1336 3.0143 10.0649 3.1926 10.0242 3.4157 10" stroke="currentColor" stroke-linecap="round" stroke-linejoin="round" stroke-width="2"/>
</svg>
