<svg xmlns="http://www.w3.org/2000/svg" width="20" height="20" viewBox="0 0 20 20" fill="none">
  <path d="M12.0833 4.1667L10.4167 4.1667C8.0596 4.1667 6.8811 4.1667 6.1489 4.8989 5.4167 5.6311 5.4167 6.8096 5.4167 9.1667L5.4167 13.3333C5.4167 15.6903 5.4167 16.8688 6.1489 17.6011 6.8811 18.3333 8.0596 18.3333 10.4167 18.3333H11.5359C12.2172 18.3333 12.5578 18.3333 12.8641 18.2065 13.1704 18.0796 13.4112 17.8388 13.893 17.357L16.107 15.143C16.5888 14.6612 16.8296 14.4204 16.9565 14.1141 17.0833 13.8078 17.0833 13.4672 17.0833 12.7859V9.1667C17.0833 6.8096 17.0833 5.6311 16.3511 4.8989 15.6188 4.1667 14.4403 4.1667 12.0833 4.1667Z" stroke="currentColor" stroke-linecap="round" stroke-linejoin="round" stroke-width="2"/>
  <path d="M12.5 17.9167L12.5 17.0833C12.5 15.512 12.5 14.7263 12.9882 14.2382 13.4763 13.75 14.262 13.75 15.8333 13.75L16.6667 13.75" stroke="currentColor" stroke-linecap="round" stroke-linejoin="round" stroke-width="2"/>
  <path d="M5.4167 15.8333C4.036 15.8333 2.9167 14.7141 2.9167 13.3333L2.9167 6.6667C2.9167 4.3096 2.9167 3.1311 3.6489 2.3989 4.3811 1.6667 5.5596 1.6667 7.9167 1.6667L12.0837 1.6667C13.4643 1.6667 14.5837 2.786 14.5837 4.1667" stroke="currentColor" stroke-linecap="round" stroke-linejoin="round" stroke-width="2"/>
  <path d="M8.3342 10.8333L11.6675 10.8333M8.3342 7.5L14.1675 7.5" stroke="currentColor" stroke-linecap="round" stroke-linejoin="round" stroke-width="2"/>
</svg>
