<svg xmlns="http://www.w3.org/2000/svg" width="20" height="20" viewBox="0 0 20 20" fill="none">
  <path d="M10 16.6667C10 16.6667 10.8333 16.6667 11.6667 18.3333 11.6667 18.3333 14.3138 14.1667 16.6667 13.3333" stroke="currentColor" stroke-linecap="round" stroke-linejoin="round" stroke-width="2"/>
  <path d="M16.6667 10.8373V8.8838C16.6667 8.2023 16.6667 7.8615 16.5398 7.5551 16.4129 7.2487 16.1721 7.0077 15.6903 6.5258L11.7433 2.577C11.3275 2.161 11.1197 1.9531 10.8621 1.8299 10.8085 1.8042 10.7537 1.7815 10.6977 1.7617 10.4284 1.6667 10.1345 1.6667 9.5465 1.6667 6.8424 1.6667 5.4903 1.6667 4.5744 2.4054 4.3894 2.5546 4.2209 2.7232 4.0717 2.9083 3.3333 3.8245 3.3333 5.1772 3.3333 7.8826V11.671C3.3333 14.8151 3.3333 16.3871 4.3096 17.3638 5.0956 18.1501 6.267 18.3034 8.3333 18.3333M10.8333 2.0835V2.5004C10.8333 4.8584 10.8333 6.0374 11.5656 6.77 12.2978 7.5025 13.4763 7.5025 15.8333 7.5025H16.25" stroke="currentColor" stroke-linecap="round" stroke-linejoin="round" stroke-width="2"/>
</svg>
