<svg xmlns="http://www.w3.org/2000/svg" width="20" height="20" viewBox="0 0 20 20" fill="none">
  <path d="M12.2917 13.75V12.2917C12.2917 11.4863 12.9446 10.8333 13.75 10.8333 14.2317 10.8333 14.6589 11.0669 14.9245 11.427M16.6667 16.0417C16.6667 15.0643 16.6667 14.5757 16.4083 14.2391 16.3418 14.1524 16.2643 14.0748 16.1776 14.0083 15.841 13.75 15.3523 13.75 14.375 13.75H13.125C12.1477 13.75 11.659 13.75 11.3224 14.0083 11.2358 14.0748 11.1582 14.1524 11.0917 14.2391 10.8333 14.5757 10.8333 15.0643 10.8333 16.0417 10.8333 17.019 10.8333 17.5077 11.0917 17.8443 11.1582 17.9309 11.2358 18.0085 11.3224 18.075 11.659 18.3333 12.1477 18.3333 13.125 18.3333H14.375C15.3523 18.3333 15.841 18.3333 16.1776 18.075 16.2643 18.0085 16.3418 17.9309 16.4083 17.8443 16.6667 17.5077 16.6667 17.019 16.6667 16.0417Z" stroke="currentColor" stroke-linecap="round" stroke-linejoin="round" stroke-width="2"/>
  <path d="M16.6667 10.0036V8.8838C16.6667 8.2023 16.6667 7.8615 16.5398 7.5551 16.4129 7.2487 16.1721 7.0077 15.6903 6.5258L11.7433 2.577C11.3275 2.161 11.1197 1.9531 10.8621 1.8299 10.8085 1.8042 10.7537 1.7815 10.6977 1.7617 10.4284 1.6667 10.1345 1.6667 9.5465 1.6667 6.8424 1.6667 5.4903 1.6667 4.5744 2.4054 4.3894 2.5546 4.2209 2.7232 4.0717 2.9083 3.3333 3.8245 3.3333 5.1772 3.3333 7.8826V11.671C3.3333 14.8151 3.3333 16.3871 4.3096 17.3638 5.0956 18.1501 6.267 18.3034 8.3333 18.3333M10.8333 2.0835V2.5004C10.8333 4.8584 10.8333 6.0374 11.5656 6.77 12.2978 7.5025 13.4763 7.5025 15.8333 7.5025H16.25" stroke="currentColor" stroke-linecap="round" stroke-linejoin="round" stroke-width="2"/>
</svg>
