<svg xmlns="http://www.w3.org/2000/svg" width="20" height="20" viewBox="0 0 20 20" fill="none">
  <path d="M11.25 2.0841V2.5015C11.25 4.8626 11.25 6.0432 11.9823 6.7767 12.7145 7.5102 13.893 7.5102 16.25 7.5102H16.6667M12.9167 18.3333C14.4769 18.2684 15.4336 18.0592 16.107 17.3845 17.0833 16.4065 17.0833 14.8324 17.0833 11.6842V8.8933C17.0833 8.2109 17.0833 7.8697 16.9565 7.5629 16.8296 7.256 16.5888 7.0148 16.107 6.5322L12.1599 2.5782C11.7442 2.1617 11.5363 1.9535 11.2788 1.8301 11.2252 1.8044 11.1703 1.7816 11.1143 1.7618 10.8451 1.6667 10.5512 1.6667 9.9632 1.6667 7.259 1.6667 5.9069 1.6667 4.9911 2.4064 4.8061 2.5558 4.6376 2.7246 4.4884 2.91 3.7864 3.7821 3.7517 5.0494 3.75 7.5" stroke="currentColor" stroke-linecap="round" stroke-linejoin="round" stroke-width="2"/>
  <path d="M10 12.5L6.6667 14.1667M6.6667 14.1667L3.3333 12.5M6.6667 14.1667V18.3333" stroke="currentColor" stroke-linecap="round" stroke-linejoin="round" stroke-width="2"/>
  <path d="M8.9323 11.1518L8.5157 10.8793C7.6194 10.2931 7.1713 10 6.6667 10 6.162 10 5.7139 10.2931 4.8177 10.8793L4.401 11.1518C3.6744 11.6271 3.3111 11.8648 3.1139 12.2263 2.9167 12.5877 2.9167 13.0162 2.9167 13.8729V14.4604C2.9167 15.3172 2.9167 15.7456 3.1139 16.1071 3.3111 16.4686 3.6744 16.7063 4.401 17.1815L4.8177 17.454C5.7139 18.0403 6.162 18.3333 6.6667 18.3333 7.1713 18.3333 7.6194 18.0403 8.5157 17.454L8.9323 17.1815C9.6589 16.7063 10.0222 16.4686 10.2194 16.1071 10.4167 15.7456 10.4167 15.3172 10.4167 14.4604V13.8729C10.4167 13.0162 10.4167 12.5877 10.2194 12.2263 10.0222 11.8648 9.6589 11.6271 8.9323 11.1518Z" stroke="currentColor" stroke-linecap="round" stroke-linejoin="round" stroke-width="2"/>
</svg>
