<svg xmlns="http://www.w3.org/2000/svg" width="20" height="20" viewBox="0 0 20 20" fill="none">
  <path d="M10.8333 17.3557V18.3333H11.8112C12.1523 18.3333 12.3228 18.3333 12.4763 18.2698 12.6296 18.2063 12.7503 18.0857 12.9914 17.8445L17.0111 13.8245C17.2387 13.597 17.3524 13.4832 17.4133 13.3606 17.5289 13.1271 17.5289 12.853 17.4133 12.6195 17.3524 12.4968 17.2387 12.383 17.0111 12.1555 16.7836 11.928 16.6698 11.8142 16.5471 11.7534 16.3136 11.6378 16.0394 11.6378 15.8059 11.7534 15.6832 11.8142 15.5694 11.928 15.3419 12.1555L15.3419 12.1555 11.3223 16.1755C11.081 16.4167 10.9604 16.5373 10.8968 16.6906 10.8333 16.844 10.8333 17.0145 10.8333 17.3557Z" stroke="currentColor" stroke-linejoin="round" stroke-width="2"/>
  <path d="M15.8333 9.1667C15.8333 9.1667 15.8333 7.8588 15.7065 7.5526 15.5796 7.2463 15.3388 7.0054 14.857 6.5237L10.9099 2.5766C10.4942 2.1608 10.2863 1.953 10.0288 1.8298 9.9752 1.8042 9.9203 1.7814 9.8643 1.7617 9.5951 1.6667 9.3012 1.6667 8.7132 1.6667 6.009 1.6667 4.6569 1.6667 3.7411 2.4051 3.5561 2.5542 3.3876 2.7228 3.2384 2.9078 2.5 3.8236 2.5 5.1757 2.5 7.8799V11.6667C2.5 14.8093 2.5 16.3808 3.4763 17.357 4.3622 18.2429 5.7381 18.325 8.3333 18.3326M10 2.0833V2.5C10 4.857 10 6.0355 10.7323 6.7678 11.4645 7.5 12.643 7.5 15 7.5H15.4167" stroke="currentColor" stroke-linecap="round" stroke-linejoin="round" stroke-width="2"/>
</svg>
