<svg xmlns="http://www.w3.org/2000/svg" width="20" height="20" viewBox="0 0 20 20" fill="none">
  <path d="M16.6667 9.1667C16.6667 9.1667 16.6667 7.8588 16.5398 7.5526 16.4129 7.2463 16.1721 7.0054 15.6903 6.5237L11.7433 2.5766C11.3275 2.1608 11.1197 1.953 10.8621 1.8298 10.8085 1.8042 10.7537 1.7814 10.6977 1.7617 10.4284 1.6667 10.1345 1.6667 9.5465 1.6667 6.8424 1.6667 5.4903 1.6667 4.5744 2.4051 4.3894 2.5542 4.2209 2.7228 4.0717 2.9078 3.3333 3.8236 3.3333 5.1757 3.3333 7.8799V11.6667C3.3333 14.8093 3.3333 16.3808 4.3096 17.357 5.286 18.3333 6.8573 18.3333 10 18.3333M10.8333 2.0833V2.5C10.8333 4.857 10.8333 6.0355 11.5656 6.7678 12.2978 7.5 13.4763 7.5 15.8333 7.5H16.25" stroke="currentColor" stroke-linecap="round" stroke-linejoin="round" stroke-width="2"/>
  <path d="M14.1667 15.8333H12.9795C12.2261 15.8333 11.8493 15.8333 11.7112 15.6219 11.5729 15.4106 11.7668 15.1308 12.1544 14.5712L12.532 14.0262C12.6266 13.8898 12.6738 13.8215 12.6892 13.7448 12.7045 13.6683 12.6865 13.5902 12.6504 13.4341L12.4724 12.6634C12.3659 12.2022 12.3127 11.9717 12.4571 11.8192 12.6014 11.6667 12.8729 11.6667 13.416 11.6667H14.9173C15.4604 11.6667 15.7319 11.6667 15.8763 11.8192 16.0207 11.9717 15.9674 12.2022 15.8609 12.6634L15.6829 13.4341C15.6468 13.5902 15.6288 13.6683 15.6442 13.7448 15.6595 13.8215 15.7067 13.8898 15.8013 14.0262L16.1789 14.5712C16.5666 15.1308 16.7604 15.4106 16.6222 15.6219 16.484 15.8333 16.1073 15.8333 15.3538 15.8333H14.1667ZM14.1667 15.8333V18.3333" stroke="currentColor" stroke-linecap="round" stroke-linejoin="round" stroke-width="2"/>
</svg>
