<svg xmlns="http://www.w3.org/2000/svg" width="20" height="20" viewBox="0 0 20 20" fill="none">
  <path d="M15.8333 11.671V8.8838C15.8333 8.2023 15.8333 7.8615 15.7065 7.5551 15.5796 7.2487 15.3388 7.0077 14.857 6.5258L10.9099 2.577C10.4942 2.161 10.2863 1.9531 10.0288 1.8299 9.9752 1.8042 9.9203 1.7815 9.8643 1.7617 9.5951 1.6667 9.3012 1.6667 8.7132 1.6667 6.009 1.6667 4.6569 1.6667 3.7411 2.4054 3.5561 2.5546 3.3876 2.7232 3.2384 2.9083 2.5 3.8245 2.5 5.1772 2.5 7.8826V11.671C2.5 14.8151 2.5 16.3871 3.4763 17.3638 4.2622 18.1501 5.4337 18.3034 7.5 18.3333M10 2.0835V2.5004C10 4.8584 10 6.0374 10.7323 6.77 11.4645 7.5025 12.643 7.5025 15 7.5025H15.4167" stroke="currentColor" stroke-linecap="round" stroke-linejoin="round" stroke-width="2"/>
  <path d="M15 16.25L16.2044 17.0529C16.7748 17.4332 17.0599 17.6233 17.2799 17.5055 17.5 17.3878 17.5 17.045 17.5 16.3596V15.3071C17.5 14.6217 17.5 14.2789 17.2799 14.1612 17.0599 14.0434 16.7748 14.2335 16.2044 14.6138L15 15.4167M15 16.25V15.4167M15 16.25C15 17.0288 15 17.4183 14.8325 17.7083 14.7228 17.8983 14.565 18.0562 14.375 18.1658 14.0849 18.3333 13.6955 18.3333 12.9167 18.3333H12.5C11.3215 18.3333 10.7323 18.3333 10.3661 17.9672 10 17.6011 10 17.0118 10 15.8333 10 14.6548 10 14.0656 10.3661 13.6994 10.7323 13.3333 11.3215 13.3333 12.5 13.3333H12.9167C13.6955 13.3333 14.0849 13.3333 14.375 13.5008 14.565 13.6105 14.7228 13.7683 14.8325 13.9583 15 14.2484 15 14.6378 15 15.4167" stroke="currentColor" stroke-linejoin="round" stroke-width="2"/>
</svg>
