<svg xmlns="http://www.w3.org/2000/svg" width="20" height="20" viewBox="0 0 20 20" fill="none">
  <path d="M11.6667 18.9583C12.0118 18.9583 12.2917 18.6785 12.2917 18.3333 12.2917 17.9882 12.0118 17.7083 11.6667 17.7083V18.3333 18.9583ZM3.3332 13.3333L3.9582 13.3333 3.3332 13.3333ZM3.9583 10C3.9583 9.6548 3.6785 9.375 3.3333 9.375 2.9882 9.375 2.7083 9.6548 2.7083 10L3.3333 10 3.9583 10ZM3.7247 17.0581C3.4806 17.3022 3.4806 17.6978 3.7247 17.9419 3.9688 18.186 4.3645 18.186 4.6086 17.9419L4.1666 17.5 3.7247 17.0581ZM8.7753 13.7753C9.0193 13.5312 9.0193 13.1355 8.7753 12.8914 8.5312 12.6473 8.1355 12.6473 7.8914 12.8914L8.3333 13.3333 8.7753 13.7753ZM11.6667 18.3333V17.7083H8.3332V18.3333 18.9583H11.6667V18.3333ZM3.3332 13.3333L3.9582 13.3333 3.9583 10 3.3333 10 2.7083 10 2.7082 13.3332 3.3332 13.3333ZM8.3332 18.3333V17.7083C7.137 17.7083 6.3028 17.707 5.6733 17.6223 5.0618 17.5402 4.738 17.3897 4.5073 17.1592L4.0654 17.6011 3.6234 18.043C4.125 18.5447 4.7566 18.7604 5.5067 18.8613 6.2388 18.9597 7.1724 18.9583 8.3332 18.9583V18.3333ZM3.3332 13.3333L2.7082 13.3332C2.7082 14.4941 2.7069 15.4276 2.8053 16.1598 2.9061 16.9098 3.1218 17.5414 3.6234 18.043L4.0654 17.6011 4.5073 17.1592C4.2767 16.9285 4.1263 16.6047 4.0441 15.9932 3.9595 15.3637 3.9582 14.5294 3.9582 13.3333L3.3332 13.3333ZM4.1666 17.5L4.6086 17.9419 8.7753 13.7753 8.3333 13.3333 7.8914 12.8914 3.7247 17.0581 4.1666 17.5Z" fill="currentColor"/>
  <path d="M10.8333 2.0833V2.5C10.8333 4.857 10.8333 6.0355 11.5656 6.7678 12.2978 7.5 13.4763 7.5 15.8333 7.5H16.25" stroke="currentColor" stroke-linecap="round" stroke-linejoin="round" stroke-width="2"/>
  <path d="M15 17.8459C15.2613 17.7189 15.4885 17.5588 15.6903 17.357 16.6667 16.3808 16.6667 14.8093 16.6667 11.6667V8.8808C16.6667 8.1995 16.6667 7.8588 16.5398 7.5526 16.4129 7.2463 16.1721 7.0054 15.6903 6.5237L11.7433 2.5766C11.3275 2.1608 11.1197 1.953 10.8621 1.8298 10.8085 1.8042 10.7537 1.7814 10.6977 1.7617 10.4284 1.6667 10.1345 1.6667 9.5465 1.6667 6.8424 1.6667 5.4903 1.6667 4.5744 2.4051 4.3894 2.5542 4.2209 2.7228 4.0717 2.9078 3.4531 3.675 3.3528 4.7485 3.3365 6.6667" stroke="currentColor" stroke-linecap="round" stroke-linejoin="round" stroke-width="2"/>
</svg>
