<svg xmlns="http://www.w3.org/2000/svg" width="20" height="20" viewBox="0 0 20 20" fill="none">
  <path d="M16.6672 8.2576V6.5151C16.6672 5.1041 16.6672 4.3986 16.4439 3.8351 16.0849 2.9292 15.3257 2.2147 14.3633 1.8768 13.7645 1.6667 13.0149 1.6667 11.5157 1.6667 8.8921 1.6667 7.5802 1.6667 6.5325 2.0344 4.8481 2.6257 3.5195 3.8762 2.8913 5.4614 2.5005 6.4475 2.5005 7.6822 2.5005 10.1515V12.2728C2.5005 14.8305 2.5005 16.1094 3.2069 16.9976 3.4093 17.2521 3.6494 17.478 3.9197 17.6685 4.8634 18.3333 6.2222 18.3333 8.9399 18.3333H9.5839C10.0294 18.3333 10.862 18.3333 11.2506 18.331M2.5005 10C2.5005 8.4658 3.7442 7.2222 5.2783 7.2222 5.8331 7.2222 6.4872 7.3194 7.0266 7.1749 7.5059 7.0465 7.8803 6.6721 8.0087 6.1928 8.1533 5.6534 8.0561 4.9993 8.0561 4.4444 8.0561 2.9103 9.2998 1.6667 10.8339 1.6667" stroke="currentColor" stroke-linecap="round" stroke-linejoin="round" stroke-width="2"/>
  <path d="M17.2939 13.1759C17.3813 12.1222 15.7691 11.2617 14.5369 11.839 12.9978 12.5602 13.132 14.3828 15.0329 14.4792 15.8788 14.5221 16.6187 14.4308 17.1216 14.9757 17.6244 15.5207 17.8423 16.9084 16.3602 17.3793 14.8779 17.8503 13.333 17.0104 13.333 15.9859M15.3923 10.8333V11.648M15.3923 17.6837V18.3333" stroke="currentColor" stroke-linecap="round" stroke-linejoin="round" stroke-width="2"/>
</svg>
