<svg xmlns="http://www.w3.org/2000/svg" width="20" height="20" viewBox="0 0 20 20" fill="none">
  <path d="M2.9167 12.0833C2.9167 10.9328 3.8494 10 5 10 6.1506 10 7.0833 10.9328 7.0833 12.0833 7.0833 12.7974 6.7241 13.4276 6.1764 13.803 5.6069 14.1933 5 14.7263 5 15.4167" stroke="currentColor" stroke-linecap="round" stroke-linejoin="round" stroke-width="2"/>
  <path d="M5.1042 18.125H5M5.2083 18.125C5.2083 18.2401 5.1151 18.3333 5 18.3333 4.8849 18.3333 4.7917 18.2401 4.7917 18.125 4.7917 18.0099 4.8849 17.9167 5 17.9167 5.1151 17.9167 5.2083 18.0099 5.2083 18.125Z" stroke="currentColor" stroke-linecap="round" stroke-linejoin="round" stroke-width="2"/>
  <path d="M11.25 2.0833V2.5C11.25 4.857 11.25 6.0355 11.9823 6.7678 12.7145 7.5 13.893 7.5 16.25 7.5H16.6667M3.7533 6.651C3.77 4.7426 3.8715 3.6729 4.4884 2.9078 4.6376 2.7228 4.8061 2.5542 4.9911 2.4051 5.9069 1.6667 7.259 1.6667 9.9632 1.6667 10.5512 1.6667 10.8451 1.6667 11.1143 1.7617 11.1703 1.7814 11.2252 1.8042 11.2788 1.8298 11.5363 1.953 11.7442 2.1608 12.1599 2.5766L16.107 6.5237C16.5888 7.0054 16.8296 7.2463 16.9565 7.5526 17.0833 7.8588 17.0833 8.1995 17.0833 8.8808V11.6667C17.0833 14.8093 17.0833 16.3808 16.107 17.357 15.1307 18.3333 13.5593 18.3333 10.4167 18.3333 9.8038 18.3333 9.2506 18.3333 8.75 18.3261" stroke="currentColor" stroke-linecap="round" stroke-linejoin="round" stroke-width="2"/>
</svg>
