<svg xmlns="http://www.w3.org/2000/svg" width="20" height="20" viewBox="0 0 20 20" fill="none">
  <circle cx="6.666666666666667" cy="14.166666666666668" r="4.166666666666667" stroke="currentColor" stroke-linecap="round" stroke-linejoin="round" stroke-width="2"/>
  <path d="M6.6667 12.5V14.1667L7.9167 14.5833" stroke="currentColor" stroke-linecap="round" stroke-linejoin="round" stroke-width="2"/>
  <path d="M11.6667 2.0835V2.5004C11.6667 4.8584 11.6667 6.0374 12.3988 6.77 13.1311 7.5025 14.3096 7.5025 16.6667 7.5025H17.0833M4.1667 7.5025C4.1683 5.0485 4.202 3.7806 4.905 2.9083 5.0542 2.7232 5.2227 2.5546 5.4077 2.4054 6.3235 1.6667 7.6756 1.6667 10.3798 1.6667 10.9678 1.6667 11.2617 1.6667 11.5309 1.7617 11.5869 1.7815 11.6418 1.8042 11.6954 1.8299 11.9529 1.9531 12.1608 2.161 12.5765 2.577L16.5237 6.5258C17.0054 7.0077 17.2462 7.2487 17.3732 7.5551 17.5 7.8615 17.5 8.2023 17.5 8.8838V11.671C17.5 14.8151 17.5 16.3871 16.5237 17.3638 15.7378 18.1501 14.5663 18.3034 12.5 18.3333" stroke="currentColor" stroke-linecap="round" stroke-linejoin="round" stroke-width="2"/>
</svg>
