<svg xmlns="http://www.w3.org/2000/svg" width="20" height="20" viewBox="0 0 20 20" fill="none">
  <path d="M13.335 14.5833H16.2517M13.335 14.5833V12.5C13.335 12.1072 13.335 11.9108 13.457 11.7887 13.579 11.6667 13.7754 11.6667 14.1683 11.6667H15.0017M13.335 14.5833V16.6667C13.335 17.0595 13.335 17.2559 13.457 17.378 13.579 17.5 13.7754 17.5 14.1683 17.5H15.0017M16.2517 14.5833C16.942 14.5833 17.5017 13.9304 17.5017 13.125 17.5017 12.3196 16.942 11.6667 16.2517 11.6667H15.0017M16.2517 14.5833C16.942 14.5833 17.5017 15.2363 17.5017 16.0417 17.5017 16.8471 16.942 17.5 16.2517 17.5H15.0017M15.0017 17.5V18.3333M15.0017 11.6667V10.8333" stroke="currentColor" stroke-linecap="round" stroke-width="2"/>
  <path d="M10.8333 18.3333L8.9394 18.3333C6.2217 18.3333 4.8629 18.3333 3.9192 17.6685 3.6488 17.478 3.4088 17.2521 3.2064 16.9976 2.5 16.1094 2.5 14.8305 2.5 12.2728L2.5 10.1515C2.5 7.6822 2.5 6.4475 2.8908 5.4615 3.519 3.8762 4.8476 2.6257 6.532 2.0345 7.5797 1.6667 8.8915 1.6667 11.5152 1.6667 13.0144 1.6667 13.764 1.6667 14.3627 1.8768 15.3252 2.2147 16.0844 2.9293 16.4433 3.8351 16.6667 4.3986 16.6667 5.1041 16.6667 6.5152L16.6667 8.3333" stroke="currentColor" stroke-linecap="round" stroke-linejoin="round" stroke-width="2"/>
  <path d="M2.5 10C2.5 8.4658 3.7437 7.2222 5.2778 7.2222 5.8326 7.2222 6.4867 7.3194 7.0261 7.1749 7.5054 7.0465 7.8798 6.6721 8.0082 6.1928 8.1528 5.6534 8.0556 4.9993 8.0556 4.4444 8.0556 2.9103 9.2993 1.6667 10.8333 1.6667" stroke="currentColor" stroke-linecap="round" stroke-linejoin="round" stroke-width="2"/>
</svg>
