<svg xmlns="http://www.w3.org/2000/svg" width="20" height="20" viewBox="0 0 20 20" fill="none">
  <path d="M16.6667 9.1667C16.6667 9.1667 16.6667 7.8588 16.5398 7.5526 16.4129 7.2463 16.1721 7.0054 15.6903 6.5237L11.7433 2.5766C11.3275 2.1608 11.1197 1.953 10.8621 1.8298 10.8085 1.8042 10.7537 1.7814 10.6977 1.7617 10.4284 1.6667 10.1345 1.6667 9.5465 1.6667 6.8424 1.6667 5.4903 1.6667 4.5744 2.4051 4.3894 2.5542 4.2209 2.7228 4.0717 2.9078 3.3333 3.8236 3.3333 5.1757 3.3333 7.8799V11.6667C3.3333 14.8093 3.3333 16.3808 4.3096 17.357 5.286 18.3333 6.8573 18.3333 10 18.3333M10.8333 2.0833V2.5C10.8333 4.857 10.8333 6.0355 11.5656 6.7678 12.2978 7.5 13.4763 7.5 15.8333 7.5H16.25" stroke="currentColor" stroke-linecap="round" stroke-linejoin="round" stroke-width="2"/>
  <path d="M16.6665 16.1723V13.8277C16.6665 12.5172 16.6665 11.8619 16.2167 11.6988 15.7668 11.5358 15.2373 11.9992 14.1784 12.9258L13.75 13.3333H12.5032C11.7176 13.3333 11.3248 13.3333 11.0807 13.5774 10.8366 13.8215 10.8366 14.2143 10.8366 15 10.8366 15.7857 10.8366 16.1785 11.0807 16.4226 11.3248 16.6667 11.7176 16.6667 12.5032 16.6667H13.75L14.1784 17.0742C15.2373 18.0008 15.7668 18.4642 16.2167 18.3012 16.6665 18.1381 16.6665 17.4828 16.6665 16.1723Z" stroke="currentColor" stroke-linecap="round" stroke-linejoin="round" stroke-width="2"/>
</svg>
