<svg xmlns="http://www.w3.org/2000/svg" width="20" height="20" viewBox="0 0 20 20" fill="none">
  <path d="M3.75 9.1699V7.8826C3.75 5.1772 3.75 3.8245 4.4884 2.9083 4.6376 2.7232 4.8061 2.5546 4.9911 2.4054 5.9069 1.6667 7.259 1.6667 9.9632 1.6667 10.5512 1.6667 10.8451 1.6667 11.1143 1.7617 11.1703 1.7815 11.2252 1.8042 11.2788 1.8299 11.5363 1.9531 11.7442 2.161 12.1599 2.577L16.107 6.5258C16.5888 7.0077 16.8296 7.2487 16.9565 7.5551 17.0833 7.8615 17.0833 8.2023 17.0833 8.8838V11.671C17.0833 14.8151 17.0833 16.3871 16.107 17.3638 15.3211 18.1501 14.1497 18.3034 12.0833 18.3333M11.25 2.0835V2.5004C11.25 4.8584 11.25 6.0374 11.9823 6.77 12.7145 7.5025 13.893 7.5025 16.25 7.5025H16.6667" stroke="currentColor" stroke-linecap="round" stroke-linejoin="round" stroke-width="2"/>
  <path d="M7.5 14.5833V13.3333C7.5 12.4128 6.7538 11.6667 5.8333 11.6667 4.9129 11.6667 4.1667 12.4128 4.1667 13.3333V14.5833M7.5 14.5833H4.1667M7.5 14.5833C8.1904 14.5833 8.75 15.143 8.75 15.8333V16.4583C8.75 17.0407 8.75 17.332 8.6548 17.5617 8.528 17.868 8.2846 18.1113 7.9784 18.2382 7.7486 18.3333 7.4574 18.3333 6.875 18.3333H4.7917C4.2092 18.3333 3.918 18.3333 3.6883 18.2382 3.382 18.1113 3.1387 17.868 3.0118 17.5617 2.9167 17.332 2.9167 17.0407 2.9167 16.4583V15.8333C2.9167 15.143 3.4763 14.5833 4.1667 14.5833" stroke="currentColor" stroke-linecap="round" stroke-linejoin="round" stroke-width="2"/>
</svg>
