<svg xmlns="http://www.w3.org/2000/svg" width="20" height="20" viewBox="0 0 20 20" fill="none">
  <path d="M10.4167 12.9167C10.9576 13.5177 11.25 14.2488 11.25 15 11.25 15.7512 10.9576 16.4823 10.4167 17.0833" stroke="currentColor" stroke-linecap="round" stroke-linejoin="round" stroke-width="2"/>
  <path d="M5.7165 12.334L4.9237 13.0087C4.7038 13.1958 4.4266 13.2983 4.1403 13.2983 3.4645 13.2983 2.9167 13.8576 2.9167 14.5477V15.4523C2.9167 16.1424 3.4645 16.7018 4.1403 16.7018 4.4266 16.7018 4.7038 16.8042 4.9237 16.9913L5.7165 17.666C6.3078 18.1691 6.6035 18.4207 6.8434 18.3059 7.0833 18.1912 7.0833 17.7983 7.0833 17.0123V12.9877C7.0833 12.2018 7.0833 11.8088 6.8434 11.6941 6.6035 11.5793 6.3078 11.8309 5.7165 12.334Z" stroke="currentColor" stroke-linecap="round" stroke-linejoin="round" stroke-width="2"/>
  <path d="M3.75 9.1667V7.8799C3.75 5.1757 3.75 3.8236 4.4884 2.9078 4.6376 2.7228 4.8061 2.5542 4.9911 2.4051 5.9069 1.6667 7.259 1.6667 9.9632 1.6667 10.5512 1.6667 10.8451 1.6667 11.1143 1.7617 11.1703 1.7814 11.2252 1.8042 11.2788 1.8298 11.5363 1.953 11.7442 2.1608 12.1599 2.5766L16.107 6.5237C16.5888 7.0054 16.8296 7.2463 16.9565 7.5526 17.0833 7.8588 17.0833 8.1995 17.0833 8.8808V11.7513C17.0833 14.8939 17.0833 16.4653 16.107 17.4416 15.5627 17.9859 14.8334 18.2267 13.75 18.3333M11.25 2.0833V2.5C11.25 4.857 11.25 6.0355 11.9823 6.7678 12.7145 7.5 13.893 7.5 16.25 7.5H16.6667" stroke="currentColor" stroke-linecap="round" stroke-linejoin="round" stroke-width="2"/>
</svg>
