<svg xmlns="http://www.w3.org/2000/svg" width="20" height="20" viewBox="0 0 20 20" fill="none">
  <path d="M15.8333 10.8377V8.8838C15.8333 8.2023 15.8333 7.8615 15.7065 7.5551 15.5796 7.2487 15.3388 7.0077 14.857 6.5258L10.9099 2.577C10.4942 2.161 10.2863 1.9531 10.0288 1.8299 9.9752 1.8042 9.9203 1.7815 9.8643 1.7617 9.5951 1.6667 9.3012 1.6667 8.7132 1.6667 6.009 1.6667 4.6569 1.6667 3.7411 2.4054 3.5561 2.5546 3.3876 2.7232 3.2384 2.9083 2.5 3.8245 2.5 5.1772 2.5 7.8826V11.671C2.5 14.8151 2.5 16.3871 3.4763 17.3638 4.2622 18.1501 5.4337 18.3034 7.5 18.3333M10 2.0835V2.5004C10 4.8584 10 6.0374 10.7323 6.77 11.4645 7.5025 12.643 7.5025 15 7.5025H15.4167" stroke="currentColor" stroke-linecap="round" stroke-linejoin="round" stroke-width="2"/>
  <path d="M13.3333 18.3333C15.6345 18.3333 17.5 15.8333 17.5 15.8333 17.5 15.8333 15.6345 13.3333 13.3333 13.3333 11.0322 13.3333 9.1667 15.8333 9.1667 15.8333 9.1667 15.8333 11.0322 18.3333 13.3333 18.3333Z" stroke="currentColor" stroke-linejoin="round" stroke-width="2"/>
  <path d="M13.3252 15.8333H13.3327" stroke="currentColor" stroke-linecap="round" stroke-linejoin="round" stroke-width="2"/>
</svg>
