<svg xmlns="http://www.w3.org/2000/svg" width="20" height="20" viewBox="0 0 20 20" fill="none">
  <path d="M17.5 12.974C17.3698 12.1858 16.5719 11.4434 15.4938 11.7292 14.3653 12.0282 13.8534 13.5456 14.3653 14.4937 14.8958 15.4762 15.1496 16.4286 14.4578 17.776 14.323 18.0384 14.2556 18.1697 14.2927 18.2515 14.3299 18.3333 14.4488 18.3333 14.6867 18.3333H17.5M13.3333 15.1588H16.9792" stroke="currentColor" stroke-linecap="round" stroke-linejoin="round" stroke-width="2"/>
  <path d="M11.25 18.3333L8.9394 18.3333C6.2217 18.3333 4.8629 18.3333 3.9192 17.6685 3.6488 17.478 3.4088 17.2521 3.2064 16.9976 2.5 16.1094 2.5 14.8305 2.5 12.2728L2.5 10.1515C2.5 7.6822 2.5 6.4475 2.8908 5.4615 3.519 3.8762 4.8476 2.6257 6.532 2.0345 7.5797 1.6667 8.8915 1.6667 11.5152 1.6667 13.0144 1.6667 13.764 1.6667 14.3627 1.8768 15.3252 2.2147 16.0844 2.9293 16.4433 3.8351 16.6667 4.3986 16.6667 5.1041 16.6667 6.5152L16.6667 8.75" stroke="currentColor" stroke-linecap="round" stroke-linejoin="round" stroke-width="2"/>
  <path d="M2.5 10C2.5 8.4658 3.7437 7.2222 5.2778 7.2222 5.8326 7.2222 6.4867 7.3194 7.0261 7.1749 7.5054 7.0465 7.8798 6.6721 8.0082 6.1928 8.1528 5.6534 8.0556 4.9993 8.0556 4.4444 8.0556 2.9103 9.2993 1.6667 10.8333 1.6667" stroke="currentColor" stroke-linecap="round" stroke-linejoin="round" stroke-width="2"/>
</svg>
