<svg xmlns="http://www.w3.org/2000/svg" width="20" height="20" viewBox="0 0 20 20" fill="none">
  <path d="M6.6667 13.3333H9.1667M13.3333 13.3333H11.6667" stroke="currentColor" stroke-linecap="round" stroke-linejoin="round" stroke-width="2"/>
  <path d="M11.6667 11.6667V15" stroke="currentColor" stroke-linecap="round" stroke-linejoin="round" stroke-width="2"/>
  <path d="M10.8333 2.0833V2.5C10.8333 4.857 10.8333 6.0355 11.5656 6.7678 12.2978 7.5 13.4763 7.5 15.8333 7.5H16.25M16.6667 8.8808V11.6667C16.6667 14.8093 16.6667 16.3808 15.6903 17.357 14.7141 18.3333 13.1427 18.3333 10 18.3333 6.8573 18.3333 5.286 18.3333 4.3096 17.357 3.3333 16.3808 3.3333 14.8093 3.3333 11.6667V7.8799C3.3333 5.1757 3.3333 3.8236 4.0717 2.9078 4.2209 2.7228 4.3894 2.5542 4.5744 2.4051 5.4903 1.6667 6.8424 1.6667 9.5465 1.6667 10.1345 1.6667 10.4284 1.6667 10.6977 1.7617 10.7537 1.7814 10.8085 1.8042 10.8621 1.8298 11.1197 1.953 11.3275 2.1608 11.7433 2.5766L15.6903 6.5237C16.1721 7.0054 16.4129 7.2463 16.5398 7.5526 16.6667 7.8588 16.6667 8.1995 16.6667 8.8808Z" stroke="currentColor" stroke-linecap="round" stroke-linejoin="round" stroke-width="2"/>
</svg>
