<svg xmlns="http://www.w3.org/2000/svg" width="20" height="20" viewBox="0 0 20 20" fill="none">
  <path d="M5.8333 13.3333H5.4167C4.6401 13.3333 4.2518 13.3333 3.9455 13.4602 3.5372 13.6293 3.2127 13.9538 3.0435 14.3622 2.9167 14.6685 2.9167 15.0568 2.9167 15.8333 2.9167 16.6099 2.9167 16.9982 3.0435 17.3045 3.2127 17.7128 3.5372 18.0373 3.9455 18.2065 4.2518 18.3333 4.6401 18.3333 5.4167 18.3333H5.8333C6.6099 18.3333 6.9982 18.3333 7.3045 18.2065 7.7129 18.0373 8.0373 17.7128 8.2065 17.3045 8.3333 16.9982 8.3333 16.6099 8.3333 15.8333 8.3333 15.0568 8.3333 14.6685 8.2065 14.3622 8.0373 13.9538 7.7129 13.6293 7.3045 13.4602 6.9982 13.3333 6.6099 13.3333 5.8333 13.3333Z" stroke="currentColor" stroke-linecap="round" stroke-linejoin="round" stroke-width="2"/>
  <path d="M8.3333 15.0379L10.0032 14.1272C10.5577 13.8248 10.8349 13.6735 11.0425 13.7885 11.25 13.9034 11.25 14.2082 11.25 14.8178V16.8489C11.25 17.4585 11.25 17.7632 11.0425 17.8782 10.8349 17.9932 10.5577 17.8419 10.0032 17.5395L8.3333 16.6288" stroke="currentColor" stroke-linecap="round" stroke-linejoin="round" stroke-width="2"/>
  <path d="M3.75 10V7.8799C3.75 5.1757 3.75 3.8236 4.4884 2.9078 4.6376 2.7228 4.8061 2.5542 4.9911 2.4051 5.9069 1.6667 7.259 1.6667 9.9632 1.6667 10.5512 1.6667 10.8451 1.6667 11.1143 1.7617 11.1703 1.7814 11.2252 1.8042 11.2788 1.8298 11.5363 1.953 11.7442 2.1608 12.1599 2.5766L16.107 6.5237C16.5888 7.0054 16.8296 7.2463 16.9565 7.5526 17.0833 7.8588 17.0833 8.1995 17.0833 8.8808V11.8767C17.0833 15.0193 17.0833 16.5907 16.107 17.567 15.7157 17.9583 15.2287 18.1928 14.5833 18.3333M11.25 2.0833V2.5C11.25 4.857 11.25 6.0355 11.9823 6.7678 12.7145 7.5 13.893 7.5 16.25 7.5H16.6667" stroke="currentColor" stroke-linecap="round" stroke-linejoin="round" stroke-width="2"/>
</svg>
