<svg xmlns="http://www.w3.org/2000/svg" width="20" height="20" viewBox="0 0 20 20" fill="none">
  <path d="M9.1667 15.625C9.5118 15.625 9.7917 15.3452 9.7917 15 9.7917 14.6548 9.5118 14.375 9.1667 14.375V15 15.625ZM7.5 11.0417C7.1548 11.0417 6.875 11.3215 6.875 11.6667 6.875 12.0118 7.1548 12.2917 7.5 12.2917V11.6667 11.0417ZM7.5 17.7083C7.1548 17.7083 6.875 17.9882 6.875 18.3333 6.875 18.6785 7.1548 18.9583 7.5 18.9583V18.3333 17.7083ZM2.5 14.375C2.1548 14.375 1.875 14.6548 1.875 15 1.875 15.3452 2.1548 15.625 2.5 15.625V15 14.375ZM4.1667 18.9583C4.5118 18.9583 4.7917 18.6785 4.7917 18.3333 4.7917 17.9882 4.5118 17.7083 4.1667 17.7083V18.3333 18.9583ZM4.1667 12.2917C4.5118 12.2917 4.7917 12.0118 4.7917 11.6667 4.7917 11.3215 4.5118 11.0417 4.1667 11.0417V11.6667 12.2917ZM8.3333 12.5H7.7083V14.1667H8.3333 8.9583V12.5H8.3333ZM8.3333 14.1667H7.7083C7.7083 14.9721 8.3613 15.625 9.1667 15.625V15 14.375C9.0516 14.375 8.9583 14.2818 8.9583 14.1667H8.3333ZM7.5 11.6667V12.2917C7.6151 12.2917 7.7083 12.3849 7.7083 12.5H8.3333 8.9583C8.9583 11.6946 8.3054 11.0417 7.5 11.0417V11.6667ZM8.3333 17.5H8.9583V15.8333H8.3333 7.7083V17.5H8.3333ZM8.3333 15.8333H8.9583C8.9583 15.7182 9.0516 15.625 9.1667 15.625V15 14.375C8.3613 14.375 7.7083 15.0279 7.7083 15.8333H8.3333ZM7.5 18.3333V18.9583C8.3054 18.9583 8.9583 18.3054 8.9583 17.5H8.3333 7.7083C7.7083 17.6151 7.6151 17.7083 7.5 17.7083V18.3333ZM3.3333 14.1667H2.7083C2.7083 14.2818 2.6151 14.375 2.5 14.375V15 15.625C3.3054 15.625 3.9583 14.9721 3.9583 14.1667H3.3333ZM3.3333 15.8333H3.9583C3.9583 15.0279 3.3054 14.375 2.5 14.375V15 15.625C2.6151 15.625 2.7083 15.7182 2.7083 15.8333H3.3333ZM3.3333 17.5H3.9583V15.8333H3.3333 2.7083V17.5H3.3333ZM3.3333 12.5H2.7083V14.1667H3.3333 3.9583V12.5H3.3333ZM4.1667 18.3333V17.7083C4.0516 17.7083 3.9583 17.6151 3.9583 17.5H3.3333 2.7083C2.7083 18.3054 3.3613 18.9583 4.1667 18.9583V18.3333ZM4.1667 11.6667V11.0417C3.3613 11.0417 2.7083 11.6946 2.7083 12.5H3.3333 3.9583C3.9583 12.3849 4.0516 12.2917 4.1667 12.2917V11.6667Z" fill="currentColor"/>
  <path d="M11.6667 2.0833V2.5C11.6667 4.857 11.6667 6.0355 12.3989 6.7678 13.1312 7.5 14.3097 7.5 16.6667 7.5H17.0833" stroke="currentColor" stroke-linecap="round" stroke-linejoin="round" stroke-width="2"/>
  <path d="M11.6667 18.3326C14.2619 18.325 15.6378 18.2429 16.5237 17.357 17.5 16.3808 17.5 14.8093 17.5 11.6667V8.8808C17.5 8.1995 17.5 7.8588 17.3732 7.5526 17.2462 7.2463 17.0054 7.0054 16.5237 6.5237L12.5766 2.5766C12.1608 2.1608 11.953 1.953 11.6954 1.8298 11.6418 1.8042 11.587 1.7814 11.531 1.7617 11.2617 1.6667 10.9678 1.6667 10.3798 1.6667 7.6757 1.6667 6.3236 1.6667 5.4078 2.4051 5.2228 2.5542 5.0542 2.7228 4.9051 2.9078 4.1667 3.8236 4.1667 5.1757 4.1667 7.8799V8.3333" stroke="currentColor" stroke-linecap="round" stroke-linejoin="round" stroke-width="2"/>
</svg>
