<svg xmlns="http://www.w3.org/2000/svg" width="20" height="20" viewBox="0 0 20 20" fill="none">
  <path d="M10.4167 2.0833V2.5C10.4167 4.857 10.4167 6.0355 11.1489 6.7678 11.8812 7.5 13.0597 7.5 15.4167 7.5H15.8333" stroke="currentColor" stroke-linecap="round" stroke-linejoin="round" stroke-width="2"/>
  <path d="M7.9167 18.3261C5.8504 18.2962 4.6789 18.1429 3.893 17.357 2.9167 16.3808 2.9167 14.8093 2.9167 11.6667V7.8799C2.9167 5.1757 2.9167 3.8236 3.6551 2.9078 3.8042 2.7228 3.9728 2.5542 4.1578 2.4051 5.0736 1.6667 6.4257 1.6667 9.1298 1.6667 9.7178 1.6667 10.0117 1.6667 10.281 1.7617 10.337 1.7814 10.3918 1.8042 10.4454 1.8298 10.703 1.953 10.9108 2.1608 11.3266 2.5766L15.2737 6.5237C15.7554 7.0054 15.9962 7.2463 16.1232 7.5526 16.25 7.8588 16.25 8.1995 16.25 8.8808V10.8333" stroke="currentColor" stroke-linecap="round" stroke-linejoin="round" stroke-width="2"/>
  <path d="M11.25 16.6667C11.25 16.6667 12.0833 17.0833 12.7083 18.3333 12.7083 18.3333 15.0245 14.8611 17.0833 14.1667" stroke="currentColor" stroke-linecap="round" stroke-linejoin="round" stroke-width="2"/>
</svg>
