<svg xmlns="http://www.w3.org/2000/svg" width="20" height="20" viewBox="0 0 20 20" fill="none">
  <path d="M16.6667 11.671V8.8838C16.6667 8.2023 16.6667 7.8615 16.5398 7.5551 16.4129 7.2487 16.1721 7.0077 15.6903 6.5258L11.7433 2.577C11.3275 2.161 11.1197 1.9531 10.8621 1.8299 10.8085 1.8042 10.7537 1.7815 10.6977 1.7617 10.4284 1.6667 10.1345 1.6667 9.5465 1.6667 6.8424 1.6667 5.4903 1.6667 4.5744 2.4054 4.3894 2.5546 4.2209 2.7232 4.0717 2.9083 3.3333 3.8245 3.3333 5.1772 3.3333 7.8826V11.671C3.3333 14.8151 3.3333 16.3871 4.3096 17.3638 5.0956 18.1501 6.267 18.3034 8.3333 18.3333M10.8333 2.0835V2.5004C10.8333 4.8584 10.8333 6.0374 11.5656 6.77 12.2978 7.5025 13.4763 7.5025 15.8333 7.5025H16.25" stroke="currentColor" stroke-linecap="round" stroke-linejoin="round" stroke-width="2"/>
  <path d="M12.924 12.3513C13.0761 11.994 13.5906 11.994 13.7427 12.3513L14.4441 13.999 16.2575 14.141C16.6518 14.1719 16.8111 14.6566 16.5098 14.9087L15.1305 16.0632 15.5529 17.7934C15.6451 18.1708 15.2286 18.4699 14.8913 18.2687L13.3333 17.3389 11.7753 18.2687C11.4381 18.4699 11.0216 18.1708 11.1137 17.7934L11.5362 16.0632 10.1568 14.9087C9.8556 14.6566 10.0148 14.1719 10.4092 14.141L12.2226 13.999 12.924 12.3513Z" stroke="currentColor" stroke-linecap="round" stroke-linejoin="round" stroke-width="2"/>
</svg>
