<svg xmlns="http://www.w3.org/2000/svg" width="20" height="20" viewBox="0 0 20 20" fill="none">
  <path d="M5 18.3333C5 18.3333 2.5 16.4921 2.5 15.8333 2.5 15.1745 5 13.3333 5 13.3333" stroke="currentColor" stroke-linecap="round" stroke-linejoin="round" stroke-width="2"/>
  <path d="M8.3333 18.3333C8.3333 18.3333 10.8333 16.4921 10.8333 15.8333 10.8333 15.1745 8.3333 13.3333 8.3333 13.3333" stroke="currentColor" stroke-linecap="round" stroke-linejoin="round" stroke-width="2"/>
  <path d="M4.1667 10V7.8799C4.1667 5.1757 4.1667 3.8236 4.9051 2.9078 5.0542 2.7228 5.2228 2.5542 5.4078 2.4051 6.3236 1.6667 7.6757 1.6667 10.3798 1.6667 10.9678 1.6667 11.2617 1.6667 11.531 1.7617 11.587 1.7814 11.6418 1.8042 11.6954 1.8298 11.953 1.953 12.1608 2.1608 12.5766 2.5766L16.5237 6.5237C17.0054 7.0054 17.2462 7.2463 17.3732 7.5526 17.5 7.8588 17.5 8.1995 17.5 8.8808V11.6667C17.5 14.8093 17.5 16.3808 16.5237 17.357 15.7378 18.1429 14.5663 18.2962 12.5 18.3261M11.6667 2.0833V2.5C11.6667 4.857 11.6667 6.0355 12.3989 6.7678 13.1312 7.5 14.3097 7.5 16.6667 7.5H17.0833" stroke="currentColor" stroke-linecap="round" stroke-linejoin="round" stroke-width="2"/>
</svg>
