<svg xmlns="http://www.w3.org/2000/svg" width="20" height="20" viewBox="0 0 20 20" fill="none">
  <path d="M5 15.8333C5 15.3731 4.6269 15 4.1667 15H2.5V17.5C2.5 17.9602 2.8731 18.3333 3.3333 18.3333H4.1667C4.6269 18.3333 5 17.9602 5 17.5V15.8333Z" stroke="currentColor" stroke-linecap="round" stroke-linejoin="round" stroke-width="2"/>
  <path d="M10.8333 15H9.1667C8.7064 15 8.3333 15.3731 8.3333 15.8333V17.5C8.3333 17.9602 8.7064 18.3333 9.1667 18.3333H10C10.4603 18.3333 10.8333 17.9602 10.8333 17.5V15Z" stroke="currentColor" stroke-linecap="round" stroke-linejoin="round" stroke-width="2"/>
  <path d="M2.5 15V14.1667C2.5 11.8655 4.3655 10 6.6667 10 8.9678 10 10.8333 11.8655 10.8333 14.1667V15" stroke="currentColor" stroke-linecap="round" stroke-linejoin="round" stroke-width="2"/>
  <path d="M11.6667 2.0841V2.5015C11.6667 4.8626 11.6667 6.0432 12.3989 6.7767 13.1312 7.5102 14.3097 7.5102 16.6668 7.5102H17.0834M4.1667 7.5102C4.1684 5.0529 4.2021 3.7834 4.9051 2.91 5.0542 2.7246 5.2228 2.5558 5.4078 2.4064 6.3236 1.6667 7.6757 1.6667 10.3799 1.6667 10.9678 1.6667 11.2618 1.6667 11.531 1.7618 11.587 1.7816 11.6419 1.8044 11.6955 1.8301 11.953 1.9535 12.1608 2.1617 12.5766 2.5782L16.5237 6.5322C17.0055 7.0148 17.2463 7.256 17.3732 7.5629 17.5001 7.8697 17.5001 8.2109 17.5001 8.8933V11.6842C17.5001 14.8324 17.5001 16.4065 16.5237 17.3845 15.8502 18.0592 14.8937 18.2684 13.3334 18.3333" stroke="currentColor" stroke-linecap="round" stroke-linejoin="round" stroke-width="2"/>
</svg>
