<svg xmlns="http://www.w3.org/2000/svg" width="20" height="20" viewBox="0 0 20 20" fill="none">
  <path d="M10 17.9167C6.268 17.9167 4.4021 17.9167 3.2427 16.7573 2.0833 15.5979 2.0833 13.7319 2.0833 10 2.0833 6.268 2.0833 4.4021 3.2427 3.2427 4.4021 2.0833 6.268 2.0833 10 2.0833 13.7319 2.0833 15.5979 2.0833 16.7573 3.2427 17.9167 4.4021 17.9167 6.268 17.9167 10 17.9167 13.7319 17.9167 15.5979 16.7573 16.7573 15.5979 17.9167 13.7319 17.9167 10 17.9167Z" stroke="currentColor" stroke-width="2"/>
  <path d="M5.8333 17.9167L5.8333 2.0833" stroke="currentColor" stroke-linejoin="round" stroke-width="2"/>
  <path d="M14.1667 17.9167L14.1667 2.0833" stroke="currentColor" stroke-linejoin="round" stroke-width="2"/>
  <path d="M14.1667 10L5.8333 10" stroke="currentColor" stroke-linecap="round" stroke-linejoin="round" stroke-width="2"/>
  <path d="M5.8333 13.3333L2.5 13.3333M5.8333 6.6667L2.5 6.6667" stroke="currentColor" stroke-linecap="round" stroke-linejoin="round" stroke-width="2"/>
  <path d="M17.5 13.3333L14.1667 13.3333M17.5 6.6667L14.1667 6.6667" stroke="currentColor" stroke-linecap="round" stroke-linejoin="round" stroke-width="2"/>
</svg>
