<svg xmlns="http://www.w3.org/2000/svg" width="20" height="20" viewBox="0 0 20 20" fill="none">
  <path d="M17.4869 4.1667C17.5287 3.5744 17.4777 3.1991 17.2267 2.9228 16.8426 2.5 16.1633 2.5 14.8048 2.5H5.1953C3.8367 2.5 3.1574 2.5 2.7733 2.9228 2.3892 3.3457 2.4734 4.0007 2.6419 5.3107 2.6911 5.6932 2.773 5.9104 3.0228 6.2072 3.8297 7.166 5.3075 8.8713 7.3812 10.4218 7.5707 10.5634 7.6951 10.7949 7.7161 11.0512 7.9497 13.9053 8.1637 15.8551 8.2773 16.8148 8.3369 17.3183 8.8951 17.7055 9.355 17.3803 10.1277 16.8338 11.5711 16.2214 11.7618 15.2035 11.8322 14.8278 11.928 14.2336 12.0375 13.3333" stroke="currentColor" stroke-linecap="round" stroke-linejoin="round" stroke-width="2"/>
  <path d="M12.511 5L12.0949 6.737 12.7862 6.3051C13.2786 5.9311 13.8906 5.7093 14.5538 5.7093 16.181 5.7093 17.5 7.0429 17.5 8.688 17.5 10.3331 16.181 11.6667 14.5538 11.6667 13.1286 11.6667 11.9397 10.6433 11.6667 9.2837" stroke="currentColor" stroke-linecap="round" stroke-linejoin="round" stroke-width="2"/>
</svg>
