<svg xmlns="http://www.w3.org/2000/svg" width="20" height="20" viewBox="0 0 20 20" fill="none">
  <path d="M2.5 5.8333H5" stroke="currentColor" stroke-linecap="round" stroke-linejoin="round" stroke-width="2"/>
  <path d="M2.5 14.1667H7.5" stroke="currentColor" stroke-linecap="round" stroke-linejoin="round" stroke-width="2"/>
  <path d="M15 14.1667L17.5 14.1667" stroke="currentColor" stroke-linecap="round" stroke-linejoin="round" stroke-width="2"/>
  <path d="M12.5 5.8333L17.5 5.8333" stroke="currentColor" stroke-linecap="round" stroke-linejoin="round" stroke-width="2"/>
  <path d="M5 5.8333C5 5.0568 5 4.6685 5.1269 4.3622 5.296 3.9538 5.6205 3.6294 6.0289 3.4602 6.3351 3.3333 6.7234 3.3333 7.5 3.3333 8.2766 3.3333 8.6648 3.3333 8.9712 3.4602 9.3795 3.6294 9.704 3.9538 9.8732 4.3622 10 4.6685 10 5.0568 10 5.8333 10 6.6099 10 6.9982 9.8732 7.3045 9.704 7.7129 9.3795 8.0373 8.9712 8.2065 8.6648 8.3333 8.2766 8.3333 7.5 8.3333 6.7234 8.3333 6.3351 8.3333 6.0289 8.2065 5.6205 8.0373 5.296 7.7129 5.1269 7.3045 5 6.9982 5 6.6099 5 5.8333Z" stroke="currentColor" stroke-width="2"/>
  <path d="M10 14.1667C10 13.3901 10 13.0018 10.1268 12.6955 10.296 12.2872 10.6205 11.9627 11.0288 11.7935 11.3352 11.6667 11.7234 11.6667 12.5 11.6667 13.2766 11.6667 13.6648 11.6667 13.9712 11.7935 14.3795 11.9627 14.704 12.2872 14.8732 12.6955 15 13.0018 15 13.3901 15 14.1667 15 14.9432 15 15.3315 14.8732 15.6378 14.704 16.0462 14.3795 16.3707 13.9712 16.5398 13.6648 16.6667 13.2766 16.6667 12.5 16.6667 11.7234 16.6667 11.3352 16.6667 11.0288 16.5398 10.6205 16.3707 10.296 16.0462 10.1268 15.6378 10 15.3315 10 14.9432 10 14.1667Z" stroke="currentColor" stroke-width="2"/>
</svg>
