<svg xmlns="http://www.w3.org/2000/svg" width="20" height="20" viewBox="0 0 20 20" fill="none">
  <path d="M11.0355 14.5833C10.9962 14.8361 10.9609 15.0404 10.9303 15.2035 10.7397 16.2214 9.2963 16.8338 8.5236 17.3803 8.0637 17.7055 7.5055 17.3183 7.4459 16.8148 7.3323 15.8551 7.1183 13.9053 6.8847 11.0512 6.8637 10.7949 6.7393 10.5634 6.5498 10.4218 4.4761 8.8713 2.9983 7.166 2.1914 6.2072 1.9416 5.9105 1.8598 5.6933 1.8105 5.3107 1.642 4.0007 1.5578 3.3457 1.9419 2.9229 2.326 2.5 3.0053 2.5 4.3639 2.5H13.9733C15.3319 2.5 16.0112 2.5 16.3953 2.9229 16.5816 3.1279 16.6577 3.3876 16.6675 3.75" stroke="currentColor" stroke-linecap="round" stroke-linejoin="round" stroke-width="2"/>
  <path d="M17.3857 6.1993L17.9642 6.7763C18.4538 7.2645 18.4538 8.0559 17.9642 8.5441L14.933 11.6238C14.6946 11.8616 14.3896 12.0219 14.0581 12.0836L12.1794 12.4903C11.8827 12.5546 11.6187 12.2919 11.6822 11.9959L12.0821 10.1332C12.144 9.8026 12.3048 9.4984 12.5432 9.2607L15.613 6.1993C16.1025 5.7112 16.8962 5.7112 17.3857 6.1993Z" stroke="currentColor" stroke-linecap="round" stroke-linejoin="round" stroke-width="2"/>
</svg>
