<svg xmlns="http://www.w3.org/2000/svg" width="20" height="20" viewBox="0 0 20 20" fill="none">
  <path d="M7.3812 10.4218C5.3075 8.8713 3.8297 7.166 3.0228 6.2072 2.773 5.9104 2.6911 5.6932 2.6419 5.3107 2.4734 4.0007 2.3892 3.3457 2.7733 2.9228 3.1574 2.5 3.8367 2.5 5.1953 2.5H14.8048C16.1633 2.5 16.8426 2.5 17.2267 2.9228 17.6108 3.3457 17.5266 4.0007 17.3581 5.3107 17.3088 5.6933 17.227 5.9104 16.9772 6.2072 16.1692 7.1672 14.6884 8.8756 12.6105 10.4279 12.4225 10.5684 12.2986 10.7973 12.2756 11.0512 12.0698 13.3267 11.8799 14.573 11.7618 15.2035 11.5711 16.2214 10.1277 16.8338 9.355 17.3803 8.8951 17.7055 8.3369 17.3183 8.2773 16.8148 8.1637 15.8551 7.9497 13.9053 7.7161 11.0512 7.6951 10.7949 7.5707 10.5634 7.3812 10.4218Z" stroke="currentColor" stroke-linecap="round" stroke-linejoin="round" stroke-width="2"/>
</svg>
