<svg xmlns="http://www.w3.org/2000/svg" width="20" height="20" viewBox="0 0 20 20" fill="none">
  <path d="M5.8333 17.5L5.8333 15" stroke="currentColor" stroke-linecap="round" stroke-linejoin="round" stroke-width="2"/>
  <path d="M14.1667 17.5L14.1667 12.5" stroke="currentColor" stroke-linecap="round" stroke-linejoin="round" stroke-width="2"/>
  <path d="M14.1667 5L14.1667 2.5" stroke="currentColor" stroke-linecap="round" stroke-linejoin="round" stroke-width="2"/>
  <path d="M5.8333 7.5L5.8333 2.5" stroke="currentColor" stroke-linecap="round" stroke-linejoin="round" stroke-width="2"/>
  <path d="M5.8333 15C5.0568 15 4.6685 15 4.3622 14.8732 3.9538 14.704 3.6294 14.3795 3.4602 13.9712 3.3333 13.6648 3.3333 13.2766 3.3333 12.5 3.3333 11.7234 3.3333 11.3352 3.4602 11.0288 3.6294 10.6205 3.9538 10.296 4.3622 10.1268 4.6685 10 5.0568 10 5.8333 10 6.6099 10 6.9982 10 7.3045 10.1268 7.7129 10.296 8.0373 10.6205 8.2065 11.0288 8.3333 11.3352 8.3333 11.7234 8.3333 12.5 8.3333 13.2766 8.3333 13.6648 8.2065 13.9712 8.0373 14.3795 7.7129 14.704 7.3045 14.8732 6.9982 15 6.6099 15 5.8333 15Z" stroke="currentColor" stroke-width="2"/>
  <path d="M14.1667 10C13.3901 10 13.0018 10 12.6955 9.8732 12.2872 9.704 11.9627 9.3795 11.7935 8.9712 11.6667 8.6648 11.6667 8.2766 11.6667 7.5 11.6667 6.7234 11.6667 6.3351 11.7935 6.0289 11.9627 5.6205 12.2872 5.296 12.6955 5.1269 13.0018 5 13.3901 5 14.1667 5 14.9432 5 15.3315 5 15.6378 5.1269 16.0462 5.296 16.3707 5.6205 16.5398 6.0289 16.6667 6.3351 16.6667 6.7234 16.6667 7.5 16.6667 8.2766 16.6667 8.6648 16.5398 8.9712 16.3707 9.3795 16.0462 9.704 15.6378 9.8732 15.3315 10 14.9432 10 14.1667 10Z" stroke="currentColor" stroke-width="2"/>
</svg>
