<svg xmlns="http://www.w3.org/2000/svg" width="20" height="20" viewBox="0 0 20 20" fill="none">
  <path d="M1.6667 9.5833C1.6667 5.8514 1.6667 3.9854 2.826 2.826 3.9854 1.6667 5.8514 1.6667 9.5833 1.6667 13.3153 1.6667 15.1813 1.6667 16.3407 2.826 17.5 3.9854 17.5 5.8514 17.5 9.5833 17.5 13.3153 17.5 15.1813 16.3407 16.3407 15.1813 17.5 13.3153 17.5 9.5833 17.5 5.8514 17.5 3.9854 17.5 2.826 16.3407 1.6667 15.1813 1.6667 13.3153 1.6667 9.5833Z" stroke="currentColor" stroke-width="2"/>
  <path d="M7.0833 9.5833L12.0834 9.5833" stroke="currentColor" stroke-linecap="round" stroke-linejoin="round" stroke-width="2"/>
  <path d="M7.9167 12.5H11.25" stroke="currentColor" stroke-linecap="round" stroke-linejoin="round" stroke-width="2"/>
  <path d="M6.25 6.6667H12.9167" stroke="currentColor" stroke-linecap="round" stroke-linejoin="round" stroke-width="2"/>
</svg>
