<svg xmlns="http://www.w3.org/2000/svg" width="20" height="20" viewBox="0 0 20 20" fill="none">
  <path d="M2.5 12.5L2.9167 8.3333C3.0442 7.0582 3.4059 5.9391 3.9539 5M17.0833 15C17.5 12.0833 17.5 10.4167 17.5 9.1667 17.5 5.0245 14.1422 1.6667 10 1.6667 8.7819 1.6667 7.6518 1.9304 6.6667 2.4294" stroke="currentColor" stroke-linecap="round" stroke-linejoin="round" stroke-width="2"/>
  <path d="M5 16.6667C5.2546 16.0301 5.4704 15.5102 5.6472 15M6.1725 12.5C6.2242 11.922 6.25 11.2469 6.25 10.4167 6.25 7.5 7.6988 5.8333 10 5.8333 12.3012 5.8333 13.75 7.5 13.75 10 13.75 10.273 13.745 10.5509 13.7346 10.8333M12.0833 18.3333C12.6853 16.9289 13.0939 15.5246 13.3559 14.1667" stroke="currentColor" stroke-linecap="round" stroke-linejoin="round" stroke-width="2"/>
  <path d="M8.3333 18.3333C9.1667 16.25 10 12.5 10 9.1667" stroke="currentColor" stroke-linecap="round" stroke-linejoin="round" stroke-width="2"/>
</svg>
