<svg xmlns="http://www.w3.org/2000/svg" width="20" height="20" viewBox="0 0 20 20" fill="none">
  <path d="M6.1905 2.8017C9.4997 0.5534 14.28 1.7703 16.0251 5.3484M9.0476 18.2697C12.9866 18.8185 16.6667 15.746 16.6667 11.8419V8.6111M6.1905 17.1715C4.4634 15.9981 3.3333 14.0486 3.3333 11.8419V8.1313C3.3333 7.144 3.5595 6.2082 3.9642 5.3704" stroke="currentColor" stroke-linecap="round" stroke-linejoin="round" stroke-width="2"/>
  <path d="M13.3333 11.5C13.3333 13.433 11.8409 15 10 15 8.1591 15 6.6667 13.433 6.6667 11.5V8.5C6.6667 7.9632 6.7818 7.4546 6.9874 7M10 5C11.8409 5 13.3333 6.567 13.3333 8.5" stroke="currentColor" stroke-linecap="round" stroke-linejoin="round" stroke-width="2"/>
  <path d="M10 8.75L10 11.25" stroke="currentColor" stroke-linecap="round" stroke-linejoin="round" stroke-width="2"/>
</svg>
