<svg xmlns="http://www.w3.org/2000/svg" width="20" height="20" viewBox="0 0 20 20" fill="none">
  <path d="M1.6667 6.6551C1.758 4.8132 2.031 3.6648 2.8479 2.8479 3.6648 2.031 4.8132 1.758 6.6551 1.6667M18.3333 6.6551C18.2421 4.8132 17.969 3.6648 17.1521 2.8479 16.3352 2.031 15.1868 1.758 13.3449 1.6667M13.3449 18.3333C15.1868 18.2421 16.3352 17.969 17.1521 17.1521 17.969 16.3352 18.2421 15.1868 18.3333 13.3449M6.6551 18.3333C4.8132 18.2421 3.6648 17.969 2.8479 17.1521 2.031 16.3352 1.758 15.1868 1.6667 13.3449" stroke="currentColor" stroke-linecap="round" stroke-linejoin="round" stroke-width="2"/>
  <path d="M13.7622 7.452C14.0264 7.9316 14.1667 8.4597 14.1667 8.9992V11.4005C14.1667 12.3459 13.7201 13.2773 12.9463 13.9458 12.1724 14.6143 11.0943 15 10 15M5.8333 9.3986V11.4008C5.8329 12.4494 6.3781 13.4808 7.3342 14.1683M12.0833 5.4822C11.1263 5.0049 9.9891 4.8756 8.9217 5.1227 7.8543 5.3697 6.9442 5.9729 6.3917 6.7997M11.3887 9.5652V8.826C11.3971 8.2955 10.9444 7.818 10.3293 7.6923M8.6113 9.8806V11.1504C8.6067 11.3842 8.6888 11.6136 8.8463 11.8078 9.338 12.4142 10.4382 12.4835 11.0333 11.9355" stroke="currentColor" stroke-linecap="round" stroke-linejoin="round" stroke-width="2"/>
</svg>
