<svg xmlns="http://www.w3.org/2000/svg" width="20" height="20" viewBox="0 0 20 20" fill="none">
  <path d="M14.5833 13.8889V15M14.5833 15V16.1111M14.5833 15H15.6944M14.5833 15H13.4722M17.9167 15C17.9167 16.8409 16.4243 18.3333 14.5833 18.3333 12.7424 18.3333 11.25 16.8409 11.25 15 11.25 13.1591 12.7424 11.6667 14.5833 11.6667 16.4243 11.6667 17.9167 13.1591 17.9167 15Z" stroke="currentColor" stroke-linecap="round" stroke-width="2"/>
  <path d="M4.9405 17.1715C3.2134 15.9981 2.0833 14.0486 2.0833 11.8419V8.1313C2.0833 7.144 2.3095 6.2082 2.7142 5.3704M7.7976 18.2697C8.5491 18.3744 9.2912 18.3473 10 18.2078M14.7751 5.3484C13.03 1.7703 8.2496 0.5534 4.9405 2.8017M15.4167 8.6111V9.5833M8.75 5C10.5909 5 12.0833 6.567 12.0833 8.5M5.7374 7C5.5318 7.4546 5.4167 7.9632 5.4167 8.5V11.5C5.4167 13.433 6.9091 15 8.75 15 8.8911 15 9.0302 14.9908 9.1667 14.9729M8.75 8.75V11.25" stroke="currentColor" stroke-linecap="round" stroke-linejoin="round" stroke-width="2"/>
</svg>
