<svg xmlns="http://www.w3.org/2000/svg" width="20" height="20" viewBox="0 0 20 20" fill="none">
  <path d="M7.0593 16.6362C9.0709 13.1963 9.576 6.127 8.8559 3.079L7.5 3.75C7.5 3.75 6.4749 2.5 5.4163 2.5 4.3576 2.5 3.3333 3.75 3.3333 3.75L1.9773 3.079C1.2572 6.1271 1.7624 13.1965 3.7745 16.6362 4.4483 17.7879 6.3857 17.788 7.0593 16.6362Z" stroke="currentColor" stroke-linecap="round" stroke-linejoin="round" stroke-width="2"/>
  <path d="M12.9408 3.3638C10.9291 6.8037 10.424 13.873 11.1441 16.921L12.5 16.25C12.5 16.25 13.5251 17.5 14.5838 17.5 15.6424 17.5 16.6667 16.25 16.6667 16.25L18.0228 16.921C18.7428 13.8729 18.2377 6.8035 16.2255 3.3638 15.5518 2.2121 13.6143 2.212 12.9408 3.3638Z" stroke="currentColor" stroke-linecap="round" stroke-linejoin="round" stroke-width="2"/>
  <path d="M5.4167 14.1667V13.3333" stroke="currentColor" stroke-linecap="round" stroke-linejoin="round" stroke-width="2"/>
  <path d="M14.5833 6.6667V5.8333" stroke="currentColor" stroke-linecap="round" stroke-linejoin="round" stroke-width="2"/>
</svg>
