<svg xmlns="http://www.w3.org/2000/svg" width="20" height="20" viewBox="0 0 20 20" fill="none">
  <path d="M15.8333 11.6667H4.1667C2.9882 11.6667 2.3989 11.6667 2.0328 12.0328 1.6667 12.3989 1.6667 12.9882 1.6667 14.1667V15.8333C1.6667 17.0118 1.6667 17.6011 2.0328 17.9672 2.3989 18.3333 2.9882 18.3333 4.1667 18.3333H15.8333C17.0118 18.3333 17.6011 18.3333 17.9672 17.9672 18.3333 17.6011 18.3333 17.0118 18.3333 15.8333V14.1667C18.3333 12.9882 18.3333 12.3989 17.9672 12.0328 17.6011 11.6667 17.0118 11.6667 15.8333 11.6667Z" stroke="currentColor" stroke-linecap="round" stroke-linejoin="round" stroke-width="2"/>
  <path d="M1.6667 15H18.3333" stroke="currentColor" stroke-linecap="round" stroke-linejoin="round" stroke-width="2"/>
  <path d="M10 15L10 11.6667" stroke="currentColor" stroke-linecap="round" stroke-linejoin="round" stroke-width="2"/>
  <path d="M5.8333 18.3333L5.8333 15" stroke="currentColor" stroke-linecap="round" stroke-linejoin="round" stroke-width="2"/>
  <path d="M14.1667 18.3333L14.1667 15" stroke="currentColor" stroke-linecap="round" stroke-linejoin="round" stroke-width="2"/>
  <path d="M15.701 9.1667C15.4616 8.1716 14.8635 7.1994 13.6456 6.3333 10.3643 4 9.9998 1.6667 9.9998 1.6667 9.9998 1.6667 6.615 4.6667 8.5414 8.3333 6.7914 8.6 5.9769 6.6667 5.7884 5.6667 4.9802 6.7417 4.3384 7.9464 4.196 9.1667" stroke="currentColor" stroke-linecap="round" stroke-linejoin="round" stroke-width="2"/>
</svg>
