<svg xmlns="http://www.w3.org/2000/svg" width="20" height="20" viewBox="0 0 20 20" fill="none">
  <path d="M10 18.3333C13.4518 18.3333 16.25 15.5351 16.25 12.0833 16.25 11.25 16.25 9.5833 14.5833 7.5 14.5833 7.5 14.5003 9.878 12.8552 9.534 10.1943 8.9777 13.6293 3.7525 8.75 1.6667 8.75 5.8333 3.75 7.0833 3.75 12.0833 3.75 15.5351 6.5482 18.3333 10 18.3333Z" stroke="currentColor" stroke-linejoin="round" stroke-width="2"/>
  <path d="M10 15.8343C11.6108 15.8343 12.9167 14.1553 12.9167 12.0842 10.25 13.0843 9.3056 10.7816 9.1667 9.1667 7.9619 9.6277 7.0833 11.5213 7.0833 12.5 7.0833 14.5711 8.3892 15.8343 10 15.8343Z" stroke="currentColor" stroke-linejoin="round" stroke-width="2"/>
</svg>
