<svg xmlns="http://www.w3.org/2000/svg" width="20" height="20" viewBox="0 0 20 20" fill="none">
  <path d="M10 17.9173C13.6819 17.9173 16.6667 14.9326 16.6667 11.2507 16.6667 8.7831 15.326 5.5057 13.3333 3.6123L11.6667 5.8326 8.75 2.0826C5.8333 4.166 3.3333 7.9961 3.3333 11.2507 3.3333 14.9326 6.3181 17.9173 10 17.9173Z" stroke="currentColor" stroke-linejoin="round" stroke-width="2"/>
  <path d="M10 15.4159C11.8409 15.4159 13.3333 13.737 13.3333 11.6659 13.3333 11.0068 13.1822 10.3873 12.9167 9.8491L11.25 11.2492 8.75 7.9151C7.9167 8.7484 6.6667 10.0922 6.6667 11.6659 6.6667 13.737 8.1591 15.4159 10 15.4159Z" stroke="currentColor" stroke-linejoin="round" stroke-width="2"/>
</svg>
