<svg xmlns="http://www.w3.org/2000/svg" width="20" height="20" viewBox="0 0 20 20" fill="none">
  <path d="M7.0832 1.6667C13.3335 2.0833 12.4999 9.1667 12.4999 9.1667 12.4999 9.1667 14.5291 8.75 14.9999 7.0833 15.4875 7.8025 15.8136 9.0679 15.8336 10.4167 15.8716 12.975 14.6248 15.8333 10.0002 15.8333 6.301 15.8333 4.1668 12.9167 4.1668 10.8333 4.1668 9.1667 4.5997 8.1259 5.5613 7.0833 8.2515 4.1666 7.0832 1.6667 7.0832 1.6667Z" stroke="currentColor" stroke-linecap="round" stroke-linejoin="round" stroke-width="2"/>
  <path d="M7.9988 12.5C6.3828 10 9.2107 7.5 9.2107 7.5 8.9413 8.4723 8.7258 10.5833 10.0186 11.25 10.8265 11.6667 12.0384 10.8333 12.0384 10.8333 12.0384 10.8333 12.4424 12.9167 10.8265 13.3333" stroke="currentColor" stroke-linecap="round" stroke-linejoin="round" stroke-width="2"/>
  <path d="M5.8333 17.0833C5.8333 17.7737 5.2737 18.3333 4.5833 18.3333 3.893 18.3333 3.3333 17.7737 3.3333 17.0833 3.3333 16.393 3.893 15.8333 4.5833 15.8333 5.2737 15.8333 5.8333 16.393 5.8333 17.0833Z" stroke="currentColor" stroke-linecap="round" stroke-linejoin="round" stroke-width="2"/>
  <path d="M4.5833 15.8333H15.4167C16.107 15.8333 16.6667 16.393 16.6667 17.0833 16.6667 17.7737 16.107 18.3333 15.4167 18.3333H4.5833" stroke="currentColor" stroke-linecap="round" stroke-linejoin="round" stroke-width="2"/>
</svg>
