<svg xmlns="http://www.w3.org/2000/svg" width="20" height="20" viewBox="0 0 20 20" fill="none">
  <path d="M9.1208 18.3333C5.4642 18.3333 2.5 15.3486 2.5 11.6667 2.5 9.9302 3.2986 8.1937 4.341 6.6667 4.5549 7.9167 5.4794 10.3333 7.4656 10 5.2791 5.4167 9.1208 1.6667 9.1208 1.6667 9.1208 1.6667 9.5347 4.5833 13.2589 7.5 13.6038 7.7701 13.9048 8.0484 14.1667 8.3333" stroke="currentColor" stroke-linecap="round" stroke-linejoin="round" stroke-width="2"/>
  <path d="M12.9462 13.5019C12.9462 12.9232 12.8564 12.1216 13.1967 11.6006 13.9481 10.4497 15.5011 10.6499 16.0521 11.7507 16.3026 12.301 16.2097 12.9483 16.2224 13.4943M12.9462 13.5019C12.2386 13.5752 11.9335 14.0352 11.814 14.4024 11.6938 14.8528 11.5936 15.9535 11.7538 17.1543 11.8941 17.9048 12.4222 18.2533 12.8937 18.2951 13.3445 18.3351 15.2482 18.3251 15.7993 18.3251 16.6532 18.3251 17.1543 18.1049 17.4047 17.2043 17.5249 16.5038 17.555 15.203 17.3546 14.4024 17.1331 13.7344 16.6037 13.5403 16.2224 13.4943M12.9462 13.5019C14.0138 13.3913 15.1541 13.3654 16.2224 13.4943" stroke="currentColor" stroke-linecap="round" stroke-width="2"/>
</svg>
