<svg xmlns="http://www.w3.org/2000/svg" width="20" height="20" viewBox="0 0 20 20" fill="none">
  <path d="M15.8333 15C14.5833 10.4167 10 9.1667 10 9.1667 10 9.1667 6.6667 12.0833 6.6667 17.5" stroke="currentColor" stroke-linecap="round" stroke-linejoin="round" stroke-width="2"/>
  <path d="M1.6667 8.3541C2.7778 7.5123 6 6.502 10 9.196 10.9723 7.7919 14 5.3209 18.3333 6.669" stroke="currentColor" stroke-linecap="round" stroke-linejoin="round" stroke-width="2"/>
  <path d="M12.5 4.1667C11.6667 4.7222 10 6.5 10 9.1667 9.7223 7.7778 8.3333 4.6667 5 3.3333" stroke="currentColor" stroke-linecap="round" stroke-linejoin="round" stroke-width="2"/>
  <path d="M5 11.6667C5.8222 10.8333 7.9599 9.1667 9.9332 9.1667 10.7553 10.1389 11.5058 11.6667 11.1664 15" stroke="currentColor" stroke-linecap="round" stroke-linejoin="round" stroke-width="2"/>
  <path d="M2.625 2.5833H2.5833M2.6667 2.5833C2.6667 2.6294 2.6294 2.6667 2.5833 2.6667 2.5373 2.6667 2.5 2.6294 2.5 2.5833 2.5 2.5373 2.5373 2.5 2.5833 2.5 2.6294 2.5 2.6667 2.5373 2.6667 2.5833Z" stroke="currentColor" stroke-linecap="round" stroke-linejoin="round" stroke-width="2"/>
  <path d="M14.1257 2.5833H14.084M14.1673 2.5833C14.1673 2.6294 14.13 2.6667 14.084 2.6667 14.038 2.6667 14.0007 2.6294 14.0007 2.5833 14.0007 2.5373 14.038 2.5 14.084 2.5 14.13 2.5 14.1673 2.5373 14.1673 2.5833Z" stroke="currentColor" stroke-linecap="round" stroke-linejoin="round" stroke-width="2"/>
  <path d="M17.1253 10.4178H17.0837M17.167 10.4178C17.167 10.4638 17.1297 10.5012 17.0837 10.5012 17.0377 10.5012 17.0003 10.4638 17.0003 10.4178 17.0003 10.3718 17.0377 10.3345 17.0837 10.3345 17.1297 10.3345 17.167 10.3718 17.167 10.4178Z" stroke="currentColor" stroke-linecap="round" stroke-linejoin="round" stroke-width="2"/>
  <path d="M10.8621 17.4167H10.8204M10.9038 17.4167C10.9038 17.4627 10.8665 17.5 10.8204 17.5 10.7744 17.5 10.7371 17.4627 10.7371 17.4167 10.7371 17.3707 10.7744 17.3333 10.8204 17.3333 10.8665 17.3333 10.9038 17.3707 10.9038 17.4167Z" stroke="currentColor" stroke-linecap="round" stroke-linejoin="round" stroke-width="2"/>
  <path d="M3.4583 13.25H3.4167M3.5 13.25C3.5 13.296 3.4627 13.3333 3.4167 13.3333 3.3706 13.3333 3.3333 13.296 3.3333 13.25 3.3333 13.204 3.3706 13.1667 3.4167 13.1667 3.4627 13.1667 3.5 13.204 3.5 13.25Z" stroke="currentColor" stroke-linecap="round" stroke-linejoin="round" stroke-width="2"/>
  <path d="M14.959 9.25H14.9173M15.0007 9.25C15.0007 9.296 14.9633 9.3333 14.9173 9.3333 14.8713 9.3333 14.834 9.296 14.834 9.25 14.834 9.204 14.8713 9.1667 14.9173 9.1667 14.9633 9.1667 15.0007 9.204 15.0007 9.25Z" stroke="currentColor" stroke-linecap="round" stroke-linejoin="round" stroke-width="2"/>
  <path d="M9.2087 3.4167H9.167M9.2503 3.4167C9.2503 3.4627 9.213 3.5 9.167 3.5 9.121 3.5 9.0837 3.4627 9.0837 3.4167 9.0837 3.3706 9.121 3.3333 9.167 3.3333 9.213 3.3333 9.2503 3.3706 9.2503 3.4167Z" stroke="currentColor" stroke-linecap="round" stroke-linejoin="round" stroke-width="2"/>
</svg>
