<svg xmlns="http://www.w3.org/2000/svg" width="20" height="20" viewBox="0 0 20 20" fill="none">
  <path d="M1.6667 10.4688C1.6667 7.8908 1.6667 6.6018 2.5209 5.8009 3.3752 5 4.7501 5 7.5 5H12.5C15.2498 5 16.6248 5 17.4791 5.8009 18.3333 6.6018 18.3333 7.8908 18.3333 10.4688V12.0313C18.3333 14.6092 18.3333 15.8983 17.4791 16.6991 16.6248 17.5 15.2498 17.5 12.5 17.5H7.5C4.7501 17.5 3.3752 17.5 2.5209 16.6991 1.6667 15.8983 1.6667 14.6092 1.6667 12.0313V10.4688Z" stroke="currentColor" stroke-linecap="round" stroke-linejoin="round" stroke-width="2"/>
  <path d="M7.5 11.25H12.5M10 8.75L10 13.75" stroke="currentColor" stroke-linecap="round" stroke-linejoin="round" stroke-width="2"/>
  <path d="M14.1667 5C14.1667 2.9317 13.735 2.5 11.6667 2.5H8.3333C6.265 2.5 5.8333 2.9317 5.8333 5" stroke="currentColor" stroke-linecap="round" stroke-linejoin="round" stroke-width="2"/>
</svg>
