<svg xmlns="http://www.w3.org/2000/svg" width="20" height="20" viewBox="0 0 20 20" fill="none">
  <path d="M2.5 13.3713C3.414 13.554 4.6962 13.7652 6.1183 13.8817M6.1183 13.8817C9.2852 14.1412 13.1461 13.9318 15.1813 11.8967 17.1943 9.8836 17.5584 7.3209 17.493 5.2403 17.4564 4.0768 17.4381 3.4951 16.9715 3.0285 16.5049 2.5619 15.9232 2.5436 14.7597 2.507 12.6791 2.4416 10.1164 2.8057 8.1033 4.8188 6.0682 6.8539 5.8588 10.7148 6.1183 13.8817ZM6.1183 13.8817C6.2349 15.3038 6.446 16.586 6.6288 17.5M9.283 4.2289C9.3064 5.685 10.0208 7.3261 11.3474 8.6526 12.6739 9.9792 14.315 10.6936 15.7711 10.717" stroke="currentColor" stroke-linecap="round" stroke-linejoin="round" stroke-width="2"/>
  <path d="M12.9167 5.4167V5.3125M13.125 5.4167C13.125 5.5317 13.0318 5.625 12.9167 5.625 12.8016 5.625 12.7083 5.5317 12.7083 5.4167 12.7083 5.3016 12.8016 5.2083 12.9167 5.2083 13.0318 5.2083 13.125 5.3016 13.125 5.4167Z" stroke="currentColor" stroke-linecap="round" stroke-linejoin="round" stroke-width="2"/>
</svg>
