<svg xmlns="http://www.w3.org/2000/svg" width="20" height="20" viewBox="0 0 20 20" fill="none">
  <path d="M18.2128 3.8027C18.1131 3.0944 18.0633 2.7403 17.661 2.3384 17.2587 1.9365 16.9043 1.8867 16.1954 1.787 14.3012 1.5208 11.1424 1.5179 8.6491 3.7067 8.4341 3.8954 8.3266 3.9898 8.2258 4.0395 8.1251 4.0891 8.0051 4.1128 7.765 4.1603L6.4595 4.4184C5.7016 4.5682 5.3226 4.6432 5.1373 4.8354 4.95 5.0296 4.8662 5.3012 4.9114 5.5671 4.9562 5.8302 5.2271 6.1053 5.7689 6.6557 5.9659 6.8559 6.0645 6.9559 6.1219 7.0624 6.1859 7.1812 6.2141 7.28 6.2221 7.4147 6.2294 7.5354 6.1934 7.6936 6.1216 8.0101 5.9506 8.7627 5.883 9.4998 5.8769 10.1797 5.8707 10.861 5.8676 11.2017 5.7146 11.4184 5.5617 11.6351 5.274 11.7404 4.6988 11.9512L3.974 12.2166C2.4222 12.7848 1.6463 13.069 1.6671 13.535 1.6878 14.001 2.4859 14.2152 4.082 14.6436L4.1381 14.6587C4.6 14.7827 4.831 14.8447 4.9919 15.0053 5.1527 15.166 5.2149 15.3967 5.3391 15.8582L5.3526 15.9082C5.7842 17.5115 6.0001 18.3132 6.4674 18.333 6.9348 18.3528 7.2176 17.5722 7.7834 16.0109L8.0426 15.2958C8.252 14.718 8.3567 14.4291 8.5739 14.2753 8.7912 14.1215 9.1334 14.1183 9.818 14.1118 10.4958 14.1053 11.2301 14.0379 11.9798 13.8683 12.2968 13.7967 12.4553 13.7607 12.576 13.768 12.7131 13.7763 12.8138 13.8052 12.9343 13.8713 13.0403 13.9295 13.1397 14.0287 13.3387 14.2272 13.8861 14.7732 14.1598 15.0462 14.4216 15.0933 14.6913 15.1418 14.9678 15.0576 15.1645 14.8668 15.3554 14.6817 15.4299 14.3026 15.579 13.5442L15.8379 12.2268C15.8852 11.9863 15.9088 11.8661 15.9586 11.7651 16.0083 11.6642 16.103 11.5565 16.2923 11.3411 18.4822 8.8502 18.4793 5.6949 18.2128 3.8027Z" stroke="currentColor" fill-rule="evenodd" clip-rule="evenodd" stroke-linecap="round" stroke-linejoin="round" stroke-width="2"/>
  <path d="M13.75 5.2083V5.4167M14.1667 5.4167C14.1667 5.6468 13.9801 5.8333 13.75 5.8333 13.5199 5.8333 13.3333 5.6468 13.3333 5.4167 13.3333 5.1866 13.5199 5 13.75 5 13.9801 5 14.1667 5.1866 14.1667 5.4167Z" stroke="currentColor" stroke-linecap="round" stroke-linejoin="round" stroke-width="2"/>
</svg>
