<svg xmlns="http://www.w3.org/2000/svg" width="20" height="20" viewBox="0 0 20 20" fill="none">
  <path d="M9.1667 13.3682C9.5529 13.4956 9.923 13.6423 10.2583 13.8771M10.2583 13.8771C11.1256 14.4843 11.6667 15.4803 11.6667 16.5704 11.6667 16.6237 11.6221 16.6669 11.5683 16.6667 9.1373 16.6559 8.0487 16.2443 7.5912 15.5652L6.6667 14.0473C4.5904 13.6281 2.6819 12.3021 1.6667 10.0694 4.1667 4.5716 12.0833 4.5716 14.5833 10.0694M10.2583 13.8771C12.0668 13.3268 13.6792 12.0577 14.5833 10.0694M10.2583 6.2618C11.1256 5.6547 11.6667 4.6585 11.6667 3.5685 11.6667 2.8797 8.0764 3.8534 7.5912 4.5737L6.6667 6.0915M14.5833 10.0694C14.8611 9.5197 16.3333 7.5954 18.3333 7.5954 17.6389 8.2826 16.5 10.8941 17.5 12.5435 16.5 12.5435 15 10.6193 14.5833 10.0694Z" stroke="currentColor" stroke-linecap="round" stroke-linejoin="round" stroke-width="2"/>
  <path d="M5.1042 10H5M5.2083 10C5.2083 10.1151 5.1151 10.2083 5 10.2083 4.8849 10.2083 4.7917 10.1151 4.7917 10 4.7917 9.8849 4.8849 9.7917 5 9.7917 5.1151 9.7917 5.2083 9.8849 5.2083 10Z" stroke="currentColor" stroke-linecap="round" stroke-width="2"/>
</svg>
