<svg xmlns="http://www.w3.org/2000/svg" width="20" height="20" viewBox="0 0 20 20" fill="none">
  <path d="M5 10V9.8958M5.2083 10C5.2083 10.1151 5.1151 10.2083 5 10.2083 4.8849 10.2083 4.7917 10.1151 4.7917 10 4.7917 9.8849 4.8849 9.7917 5 9.7917 5.1151 9.7917 5.2083 9.8849 5.2083 10Z" stroke="currentColor" stroke-linecap="round" stroke-linejoin="round" stroke-width="2"/>
  <path d="M9.0519 13.3474C9.443 13.4768 9.8178 13.6259 10.1573 13.8643 10.5858 14.1652 10.9358 14.5836 11.1818 15.0618 11.4711 15.6242 11.6158 15.9055 11.3271 16.3235 11.0385 16.7415 10.6559 16.6964 9.8908 16.6063 8.5399 16.4473 7.798 16.0867 7.4567 15.5786L6.5207 14.0372C4.8671 13.7022 3.3186 12.7976 2.2327 11.3232 1.8553 10.8109 1.6667 10.5548 1.6667 9.9974 1.6667 9.44 1.8553 9.1838 2.2327 8.6715 3.2148 7.3381 4.5753 6.4707 6.0497 6.0693M10.1573 13.8643C11.0177 13.6017 11.8345 13.1777 12.5535 12.5927M14.5364 9.9974C14.8177 9.4391 16.3083 7.4849 18.3333 7.4849 17.6302 8.1828 16.4771 10.8349 17.4896 12.5099 16.4771 12.5099 14.9582 10.5557 14.5364 9.9974ZM14.5364 9.9974C13.6638 8.0726 12.1393 6.8113 10.4124 6.2136 10.7964 5.944 11.0684 5.5373 11.253 5.0724 11.5412 4.3465 11.6852 3.9836 11.3524 3.595 11.0196 3.2064 10.5692 3.3111 9.6683 3.5204 9.1381 3.6435 8.5928 3.7938 8.17 3.9645" stroke="currentColor" stroke-linecap="round" stroke-linejoin="round" stroke-width="2"/>
  <path d="M1.6667 1.6667L18.3333 18.3333" stroke="currentColor" stroke-linecap="round" stroke-linejoin="round" stroke-width="2"/>
</svg>
