<svg xmlns="http://www.w3.org/2000/svg" width="20" height="20" viewBox="0 0 20 20" fill="none">
  <path d="M12.7931 2.5C12.7931 2.1072 12.7931 1.9107 12.671 1.7887 12.549 1.6667 12.3526 1.6667 11.9597 1.6667H9.6811C7.413 1.6667 5.4348 3.7577 5.5672 7.0833H4.1667C3.7738 7.0833 3.5774 7.0833 3.4554 7.2054 3.3333 7.3274 3.3333 7.5238 3.3333 7.9167V9.1667C3.3333 9.5595 3.3333 9.7559 3.4554 9.878 3.5774 10 3.7738 10 4.1667 10H5.8333V17.5C5.8333 17.8928 5.8333 18.0892 5.9554 18.2113 6.0774 18.3333 6.2738 18.3333 6.6667 18.3333H8.3333C8.7262 18.3333 8.9226 18.3333 9.0447 18.2113 9.1667 18.0892 9.1667 17.8928 9.1667 17.5V10H12.9422V17.5C12.9422 17.8928 12.9422 18.0892 13.0642 18.2113 13.1862 18.3333 13.3827 18.3333 13.7755 18.3333H15.8333C16.2262 18.3333 16.4226 18.3333 16.5447 18.2113 16.6667 18.0892 16.6667 17.8928 16.6667 17.5V8.75C16.6667 7.9643 16.6667 7.5715 16.4226 7.3274 16.1785 7.0833 15.7857 7.0833 15 7.0833H9.1667V6.0244C9.1667 5.4167 9.5833 4.5833 10.6642 4.5833H11.9597C12.3526 4.5833 12.549 4.5833 12.671 4.4613 12.7931 4.3393 12.7931 4.1428 12.7931 3.75V2.5Z" stroke="currentColor" stroke-linecap="round" stroke-linejoin="round" stroke-width="2"/>
</svg>
