<svg xmlns="http://www.w3.org/2000/svg" width="20" height="20" viewBox="0 0 20 20" fill="none">
  <path d="M3.3333 10L3.3333 17.5" stroke="currentColor" stroke-linecap="round" stroke-linejoin="round" stroke-width="2"/>
  <path d="M6.674 2.5073C7.6369 2.4602 8.7077 2.6353 9.798 3.1991 11.2124 3.9305 12.7059 4.201 14.1842 4.0361 15.4689 3.8927 16.1113 3.821 16.3889 4.0694 16.6667 4.3179 16.6667 4.8549 16.6667 5.9289V11.0748C16.6667 11.1742 16.6667 11.2238 16.6579 11.2837 16.6253 11.5073 16.4525 11.765 16.258 11.8802 16.2059 11.9111 16.1756 11.9235 16.1151 11.9484M3.5349 3.5349C3.4628 3.5848 3.3955 3.6345 3.3333 3.6835V10.1276C3.3333 11.0015 3.3333 11.4384 3.5082 11.5631 3.683 11.6877 4.1852 11.5143 5.1895 11.1677 6.359 10.764 7.9458 10.7004 9.798 11.6581 10.7086 12.1289 11.612 12.3698 12.4588 12.4588" stroke="currentColor" stroke-linecap="round" stroke-linejoin="round" stroke-width="2"/>
  <path d="M2.5 2.5L17.5 17.5" stroke="currentColor" stroke-linecap="round" stroke-linejoin="round" stroke-width="2"/>
</svg>
