<svg xmlns="http://www.w3.org/2000/svg" width="20" height="20" viewBox="0 0 20 20" fill="none">
  <path d="M4.1667 18.3333C4.1667 18.6785 4.4465 18.9583 4.7917 18.9583 5.1368 18.9583 5.4167 18.6785 5.4167 18.3333H4.7917 4.1667ZM8.3373 2.6052L8.6115 2.0436V2.0436L8.3373 2.6052ZM12.2839 4.5327L12.0097 5.0943V5.0943L12.2839 4.5327ZM12.3449 9.0047L12.0552 8.4508 12.0552 8.4508 12.3449 9.0047ZM4.7917 12.957H4.1667V13.9894L5.0814 13.5108 4.7917 12.957ZM5.3704 1.8064L5.7054 2.334 5.7054 2.334 5.3704 1.8064ZM8.3373 2.6052L8.063 3.1668 12.0097 5.0943 12.2839 4.5327 12.5583 3.9711 8.6115 2.0436 8.3373 2.6052ZM12.3449 9.0047L12.0552 8.4508 4.5019 12.4032 4.7917 12.957 5.0814 13.5108 12.6347 9.5584 12.3449 9.0047ZM4.7917 12.957H5.4167V4.8566H4.7917 4.1667V12.957H4.7917ZM12.2839 4.5327L12.0097 5.0943C13.0001 5.578 13.6775 5.9107 14.1173 6.2121 14.5593 6.515 14.5823 6.6668 14.5833 6.7368L15.2083 6.7283 15.8332 6.7198C15.8236 6.0172 15.3558 5.5456 14.8239 5.181 14.2898 4.8149 13.5102 4.4361 12.5583 3.9711L12.2839 4.5327ZM12.3449 9.0047L12.6347 9.5584C13.5738 9.067 14.3425 8.6666 14.8665 8.2858 15.3882 7.9066 15.8427 7.4222 15.8332 6.7198L15.2083 6.7283 14.5833 6.7368C14.5843 6.8069 14.5652 6.9595 14.1315 7.2747 13.7002 7.5882 13.032 7.9397 12.0552 8.4508L12.3449 9.0047ZM8.3373 2.6052L8.6115 2.0436C7.8344 1.6641 7.1875 1.3463 6.6619 1.1804 6.1265 1.0114 5.5573 0.9473 5.0354 1.2788L5.3704 1.8064 5.7054 2.334C5.7622 2.298 5.8804 2.2445 6.2857 2.3725 6.7008 2.5035 7.248 2.7688 8.063 3.1668L8.3373 2.6052ZM4.7917 4.8566H5.4167C5.4167 3.9417 5.4183 3.3262 5.4824 2.8894 5.5453 2.4609 5.6463 2.3716 5.7054 2.334L5.3704 1.8064 5.0354 1.2788C4.5158 1.6087 4.3274 2.1503 4.2456 2.7079 4.165 3.2571 4.1667 3.983 4.1667 4.8566H4.7917ZM4.7917 18.3333H5.4167V7.5H4.7917 4.1667V18.3333H4.7917Z" fill="currentColor"/>
</svg>
