<svg xmlns="http://www.w3.org/2000/svg" width="20" height="20" viewBox="0 0 20 20" fill="none">
  <path d="M13.2321 2.5L8.5689 2.5C6.1008 2.5 4.8668 2.5 4.1001 3.2322 3.3333 3.9645 3.3333 5.143 3.3333 7.5L3.4218 12.5 13.2321 12.5C15.0847 12.5 16.0109 12.5 16.4039 12.0213 16.5127 11.8888 16.5923 11.7368 16.638 11.5742 16.8033 10.9867 16.2475 10.279 15.1359 8.8637L15.1359 8.8637C14.6736 8.2749 14.4424 7.9805 14.4012 7.6459 14.3893 7.549 14.3893 7.451 14.4012 7.3541 14.4424 7.0195 14.6736 6.7251 15.1359 6.1364L15.1359 6.1364C16.2475 4.721 16.8033 4.0133 16.638 3.4258 16.5923 3.2633 16.5127 3.1112 16.4039 2.9787 16.0109 2.5 15.0847 2.5 13.2321 2.5L13.2321 2.5Z" stroke="currentColor" stroke-linecap="round" stroke-linejoin="round" stroke-width="2"/>
  <path d="M3.3333 17.5L3.3333 6.6667" stroke="currentColor" stroke-linecap="round" stroke-width="2"/>
</svg>
