<svg xmlns="http://www.w3.org/2000/svg" width="20" height="20" viewBox="0 0 20 20" fill="none">
  <path d="M10 17.7083C13.4518 17.7083 16.25 14.8993 16.25 11.4343 16.25 10.6584 16.25 9.8826 15.9546 8.8102 15.7408 8.034 15.6338 7.6459 15.3838 7.5213 15.3189 7.4889 15.2782 7.4758 15.2067 7.464 14.9312 7.4188 14.4897 7.7757 13.6066 8.4896 13.3748 8.6769 13.259 8.7706 12.9578 8.6953 12.9098 8.6833 12.8119 8.6408 12.7703 8.6138 12.5093 8.4451 12.492 8.2179 12.4573 7.7635 12.2818 5.4615 11.5883 4.0309 10.8332 3.128 10.3566 2.5582 10.1182 2.2734 9.7065 2.2926 9.2947 2.3118 8.9625 2.7935 8.2982 3.7568 6.7015 6.0721 3.75 7.4064 3.75 11.4343 3.75 14.8993 6.5482 17.7083 10 17.7083Z" stroke="currentColor" stroke-linecap="round" stroke-linejoin="round" stroke-width="2"/>
</svg>
