<svg xmlns="http://www.w3.org/2000/svg" width="20" height="20" viewBox="0 0 20 20" fill="none">
  <path d="M4.5833 11.1039C5.2163 10.9399 5.8971 10.8333 6.6667 10.8333 9.1667 10.8333 11.6667 13.3333 14.1667 13.3333 14.6462 13.3333 15.0594 13.2892 15.4167 13.2131" stroke="currentColor" stroke-linecap="round" stroke-linejoin="round" stroke-width="2"/>
  <path d="M6.6667 1.6667H13.3333" stroke="currentColor" stroke-linecap="round" stroke-linejoin="round" stroke-width="2"/>
  <path d="M7.9167 1.6667V5.3293C7.9167 6.0488 7.9167 6.4086 7.7895 6.6686 7.6623 6.9285 7.2493 7.2495 6.4233 7.8915 5.0502 8.9588 4.1667 10.6263 4.1667 12.5 4.1667 15.7217 6.7783 18.3333 10 18.3333 13.2217 18.3333 15.8333 15.7217 15.8333 12.5 15.8333 10.6262 14.9498 8.9588 13.5767 7.8915 12.7508 7.2495 12.3378 6.9285 12.2105 6.6686 12.0833 6.4086 12.0833 6.0488 12.0833 5.3293V1.6667" stroke="currentColor" stroke-linecap="round" stroke-linejoin="round" stroke-width="2"/>
</svg>
