<svg xmlns="http://www.w3.org/2000/svg" width="20" height="20" viewBox="0 0 20 20" fill="none">
  <path d="M17.2917 17.4797C16.815 18.3333 15.4959 18.3333 12.8577 18.3333H7.2925C4.6543 18.3333 3.3352 18.3333 2.8585 17.4797 2.3819 16.626 3.0733 15.5017 4.4559 13.253L7.4993 8.3035C7.5944 8.149 7.671 8.0243 7.7329 7.9167" stroke="currentColor" stroke-linecap="round" stroke-linejoin="round" stroke-width="2"/>
  <path d="M12.4771 7.9167C12.3204 7.7463 12.2228 7.6186 12.1612 7.4822 12.0604 7.2596 12.0604 7.0252 12.0604 6.5565V1.6667" stroke="currentColor" stroke-linecap="round" stroke-linejoin="round" stroke-width="2"/>
  <path d="M7.9396 3.75V1.6667" stroke="currentColor" stroke-linecap="round" stroke-linejoin="round" stroke-width="2"/>
  <path d="M6.6667 1.6667H13.3333" stroke="currentColor" stroke-linecap="round" stroke-linejoin="round" stroke-width="2"/>
  <path d="M14.1667 14.1667C11.6667 14.1667 9.1667 11.6667 6.6667 11.6667 6.377 11.6667 6.1 11.6818 5.8333 11.7093" stroke="currentColor" stroke-linecap="round" stroke-linejoin="round" stroke-width="2"/>
  <path d="M1.6667 1.6667L18.3333 18.3333" stroke="currentColor" stroke-linecap="round" stroke-linejoin="round" stroke-width="2"/>
</svg>
