<svg xmlns="http://www.w3.org/2000/svg" width="20" height="20" viewBox="0 0 20 20" fill="none">
  <path d="M3.6862 8.5418L8.0128 15.8997 8.0128 15.8997C8.4186 16.5899 8.6215 16.935 8.8378 17.124 9.4133 17.6269 10.1973 17.6252 10.7713 17.1198 10.987 16.9298 11.1888 16.5838 11.5925 15.8919L8.5278 10.7958 10.0749 8.125H6.9217L5.5593 5.8597 11.3872 5.8597 13.3333 2.5 6.3361 2.5C3.6104 2.5 2.2476 2.5 1.7944 3.5334 1.3412 4.5667 2.1229 5.8917 3.6862 8.5418Z" stroke="currentColor" stroke-linecap="round" stroke-linejoin="round" stroke-width="2"/>
  <path d="M18.1958 3.5168C18.6841 4.5864 17.8418 5.9579 16.1569 8.701L12.8108 14.1667 10.8333 11.0084 15.9647 2.5C17.1842 2.5911 17.8865 2.8395 18.1958 3.5168Z" stroke="currentColor" stroke-linecap="round" stroke-linejoin="round" stroke-width="2"/>
</svg>
