<svg xmlns="http://www.w3.org/2000/svg" width="20" height="20" viewBox="0 0 20 20" fill="none">
  <path d="M2.9167 8.75H14.9265C16.1397 8.75 16.7463 8.75 17.1231 9.1161 17.5 9.4823 17.5 10.0715 17.5 11.25V12.5C17.5 15.2498 17.5 16.6248 16.6206 17.4791 15.7412 18.3333 14.3258 18.3333 11.4951 18.3333H8.9216C6.0908 18.3333 4.6755 18.3333 3.7961 17.4791 2.9167 16.6248 2.9167 15.2498 2.9167 12.5V8.75Z" stroke="currentColor" stroke-width="2"/>
  <path d="M2.9152 8.75C2.6176 7.6184 2.4689 7.0526 2.5055 6.5551 2.571 5.664 3.0312 4.8518 3.7558 4.3485 4.1603 4.0674 4.7156 3.9158 5.8262 3.6126L12.2768 1.8514C12.5639 1.773 12.7076 1.7338 12.8314 1.7115 14.2087 1.4641 15.5614 2.2599 16.0397 3.599 16.0828 3.7194 16.1213 3.8657 16.1982 4.1584 16.2202 4.242 16.2312 4.2838 16.2374 4.3199 16.3068 4.7208 16.0837 5.1146 15.7082 5.2539 15.6744 5.2664 15.6334 5.2776 15.5513 5.3L2.9152 8.75Z" stroke="currentColor" stroke-width="2"/>
  <path d="M5.8333 8.3333L7.5 3.3333" stroke="currentColor" stroke-width="2"/>
  <path d="M11.6667 6.6667L13.3333 1.6667" stroke="currentColor" stroke-width="2"/>
  <path d="M6.6667 15H9.1667" stroke="currentColor" stroke-linecap="round" stroke-width="2"/>
</svg>
