<svg xmlns="http://www.w3.org/2000/svg" width="20" height="20" viewBox="0 0 20 20" fill="none">
  <path d="M8.0556 18.3333L11.9445 18.3333M2.5126 13.75C2.4983 13.3337 2.4975 12.9168 2.4988 12.5M17.4874 13.75C17.5018 13.3337 17.5025 12.9168 17.5013 12.5M2.9476 16.0456C3.351 16.8442 4.0021 17.4928 4.8025 17.8932M15.1498 17.9167C15.9721 17.5184 16.641 16.86 17.0524 16.0456" stroke="currentColor" stroke-linecap="round" stroke-width="2"/>
  <path d="M4.5875 10C3.0368 10 2.5058 9.5497 2.5058 7.9167 2.5058 5.8069 2.2975 3.3719 4.3793 2.1691 5.2489 1.6667 6.4162 1.6667 8.751 1.6667L11.249 1.6667C13.5838 1.6667 14.7512 1.6667 15.6207 2.1691 17.7025 3.3719 17.4943 5.8069 17.4943 7.9167 17.4943 9.4685 17.0442 10 15.4125 10L4.5875 10Z" stroke="currentColor" stroke-width="2"/>
</svg>
