<svg xmlns="http://www.w3.org/2000/svg" width="20" height="20" viewBox="0 0 20 20" fill="none">
  <path d="M11.9443 1.6666L8.0555 1.6666M17.4874 6.25C17.5018 6.6663 17.5024 7.0832 17.5012 7.5M2.5126 6.25C2.4983 6.6663 2.4975 7.0832 2.4988 7.5M17.0524 3.9544C16.649 3.1558 15.9979 2.5072 15.1974 2.1068M4.8502 2.0833C4.0279 2.4816 3.359 3.14 2.9476 3.9544" stroke="currentColor" stroke-linecap="round" stroke-width="2"/>
  <path d="M15.4125 10C17.0442 10 17.4942 10.5314 17.4942 12.0833 17.4942 14.1931 17.7025 16.628 15.6207 17.8309 14.7511 18.3333 13.5838 18.3333 11.249 18.3333L8.7509 18.3333C6.4162 18.3333 5.2488 18.3333 4.3793 17.8309 2.2975 16.628 2.5058 14.193 2.5058 12.0833 2.5058 10.4503 3.0368 10 4.5875 10L15.4125 10Z" stroke="currentColor" stroke-width="2"/>
</svg>
