<svg xmlns="http://www.w3.org/2000/svg" width="20" height="20" viewBox="0 0 20 20" fill="none">
  <path d="M18.3333 8.0556V11.9445M13.75 2.5126C13.3337 2.4983 12.9168 2.4975 12.5 2.4988M13.75 17.4874C13.3337 17.5018 12.9168 17.5025 12.5 17.5013M16.0456 2.9476C16.8442 3.351 17.4928 4.0021 17.8932 4.8025M17.9167 15.1498C17.5184 15.9721 16.86 16.641 16.0456 17.0524" stroke="currentColor" stroke-linecap="round" stroke-width="2"/>
  <path d="M10 4.5874C10 2.9557 9.4685 2.5057 7.9167 2.5057 5.8069 2.5057 3.3719 2.2974 2.1691 4.3792 1.6667 5.2488 1.6667 6.4161 1.6667 8.7508V11.2489C1.6667 13.5837 1.6667 14.751 2.1691 15.6206 3.3719 17.7024 5.8069 17.4941 7.9167 17.4941 9.4685 17.4941 10 17.0441 10 15.4124V4.5874Z" stroke="currentColor" stroke-width="2"/>
</svg>
