<svg xmlns="http://www.w3.org/2000/svg" width="20" height="20" viewBox="0 0 20 20" fill="none">
  <path d="M9.5968 2.5L10.4032 2.5C12.0376 2.5 12.8548 2.5 13.0765 2.9949 13.2983 3.4898 12.7486 4.0866 11.6493 5.2803L11.246 5.7182C10.6637 6.3505 10.3725 6.6667 10 6.6667 9.6275 6.6667 9.3363 6.3505 8.754 5.7182L8.3507 5.2803C7.2514 4.0866 6.7017 3.4898 6.9235 2.9949 7.1453 2.5 7.9625 2.5 9.5968 2.5Z" stroke="currentColor" stroke-width="2"/>
  <path d="M9.5968 17.5H10.4032C12.0376 17.5 12.8548 17.5 13.0765 17.0051 13.2983 16.5103 12.7486 15.9134 11.6493 14.7197L11.246 14.2818C10.6637 13.6495 10.3725 13.3333 10 13.3333 9.6275 13.3333 9.3363 13.6495 8.754 14.2818L8.3507 14.7197C7.2514 15.9134 6.7017 16.5103 6.9235 17.0051 7.1453 17.5 7.9625 17.5 9.5968 17.5Z" stroke="currentColor" stroke-width="2"/>
  <path d="M18.3333 10L16.6667 10M13.3333 10L11.6667 10M8.3333 10L6.6667 10M3.3333 10L1.6667 10" stroke="currentColor" stroke-linecap="round" stroke-linejoin="round" stroke-width="2"/>
</svg>
