<svg xmlns="http://www.w3.org/2000/svg" width="20" height="20" viewBox="0 0 20 20" fill="none">
  <path d="M5.246 12.017C6.378 11.2223 6.9441 10.825 7.0544 10.2863 7.093 10.0977 7.093 9.9023 7.0544 9.7136 6.9441 9.175 6.378 8.7777 5.246 7.983 3.875 7.0206 3.1895 6.5395 2.6277 6.6957 2.4328 6.7499 2.2527 6.8514 2.1018 6.992 1.6667 7.3976 1.6667 8.2651 1.6667 10 1.6667 11.7349 1.6667 12.6024 2.1018 13.008 2.2527 13.1487 2.4328 13.2502 2.6277 13.3043 3.1895 13.4606 3.875 12.9793 5.246 12.017Z" stroke="currentColor" stroke-linecap="round" stroke-linejoin="round" stroke-width="2"/>
  <path d="M14.754 7.983C13.622 8.7777 13.0559 9.175 12.9457 9.7137 12.907 9.9023 12.907 10.0977 12.9457 10.2863 13.0559 10.825 13.622 11.2223 14.754 12.017 16.125 12.9793 16.8104 13.4606 17.3723 13.3043 17.5672 13.2502 17.7473 13.1487 17.8983 13.008 18.3333 12.6024 18.3333 11.7349 18.3333 10 18.3333 8.2651 18.3333 7.3976 17.8983 6.992 17.7473 6.8514 17.5672 6.7499 17.3723 6.6957 16.8104 6.5395 16.125 7.0206 14.754 7.983Z" stroke="currentColor" stroke-linecap="round" stroke-linejoin="round" stroke-width="2"/>
  <path d="M10 11.6667V8.3333M10 5.4167V2.5M10 17.5V14.5833" stroke="currentColor" stroke-linecap="round" stroke-width="2"/>
</svg>
