<svg xmlns="http://www.w3.org/2000/svg" width="20" height="20" viewBox="0 0 20 20" fill="none">
  <path d="M12.0833 3.3333H4.5833V12.9167C4.5833 15.9083 7.0085 18.3333 10 18.3333 12.9916 18.3333 15.4167 15.9083 15.4167 12.9167V6.6667C15.4167 5.0953 15.4167 4.3096 14.9285 3.8215 14.4403 3.3333 13.6547 3.3333 12.0833 3.3333Z" stroke="currentColor" stroke-linejoin="round" stroke-width="2"/>
  <path d="M9.1667 15H10.8333" stroke="currentColor" stroke-linecap="round" stroke-linejoin="round" stroke-width="2"/>
  <path d="M7.0833 7.0238C7.0833 6.6913 7.0833 6.5251 7.1301 6.3914 7.2139 6.1521 7.4021 5.9639 7.6414 5.8801 7.7751 5.8333 7.9413 5.8333 8.2738 5.8333H11.7262C12.0587 5.8333 12.2249 5.8333 12.3586 5.8801 12.5979 5.9639 12.7862 6.1521 12.8699 6.3914 12.9167 6.5251 12.9167 6.6913 12.9167 7.0238V7.5C12.9167 7.8871 12.9167 8.0806 12.891 8.2426 12.7498 9.134 12.0507 9.8332 11.1593 9.9743 10.9973 10 10.3871 10 10 10 9.6129 10 9.0027 10 8.8407 9.9743 7.9493 9.8332 7.2502 9.134 7.109 8.2426 7.0833 8.0806 7.0833 7.8871 7.0833 7.5V7.0238Z" stroke="currentColor" stroke-linejoin="round" stroke-width="2"/>
  <path d="M4.5833 3.3333L4.5833 1.6667" stroke="currentColor" stroke-linecap="round" stroke-linejoin="round" stroke-width="2"/>
</svg>
