<svg xmlns="http://www.w3.org/2000/svg" width="20" height="20" viewBox="0 0 20 20" fill="none">
  <path d="M2.0833 7.9167H11.25" stroke="currentColor" stroke-linecap="round" stroke-linejoin="round" stroke-width="2"/>
  <path d="M14.5833 7.9167H17.9167" stroke="currentColor" stroke-linecap="round" stroke-linejoin="round" stroke-width="2"/>
  <path d="M7.9167 17.9167L7.9167 7.9167" stroke="currentColor" stroke-width="2"/>
  <path d="M7.9167 5.4167V2.0833" stroke="currentColor" stroke-linecap="round" stroke-linejoin="round" stroke-width="2"/>
  <path d="M14.1667 14.1667C12.5 14.1667 10.8333 15.5186 10.8333 17.9167H8.75C5.6073 17.9167 4.036 17.9167 3.0596 16.9403 2.0833 15.9641 2.0833 14.3927 2.0833 11.25V8.75C2.0833 5.6073 2.0833 4.036 3.0596 3.0596 4.036 2.0833 5.6073 2.0833 8.75 2.0833H11.25C14.3927 2.0833 15.9641 2.0833 16.9403 3.0596 17.9167 4.036 17.9167 5.6073 17.9167 8.75V14.8693C17.9167 16.5523 16.5523 17.9167 14.8693 17.9167" stroke="currentColor" stroke-linecap="round" stroke-linejoin="round" stroke-width="2"/>
</svg>
