<svg xmlns="http://www.w3.org/2000/svg" width="20" height="20" viewBox="0 0 20 20" fill="none">
  <path d="M10 1.6667C11.0366 1.6667 11.9067 2.4266 12.152 3.4022 12.1818 3.5208 12.1967 3.58 12.1984 3.5861 12.269 3.8343 12.3287 3.8808 12.5865 3.8887 12.5929 3.8889 12.6545 3.8889 12.7777 3.8889 14.0051 3.8889 15 4.8838 15 6.1111 15 6.6339 14.8195 7.1145 14.5174 7.494 14.1954 7.8985 14.0344 8.1008 14.0125 8.1883 13.9905 8.2757 14.0372 8.5315 14.1305 9.043 14.1542 9.1732 14.1667 9.3073 14.1667 9.4444 14.1667 10.6718 13.1718 11.6667 11.9444 11.6667 11.6457 11.6667 11.3608 11.6077 11.1007 11.5009 10.4218 11.222 10.0823 11.0826 10 11.0826 9.9178 11.0826 9.5783 11.222 8.8993 11.5009 8.6392 11.6077 8.3543 11.6667 8.0556 11.6667 6.8283 11.6667 5.8333 10.6718 5.8333 9.4444 5.8333 9.3073 5.8457 9.1732 5.8695 9.043 5.9628 8.5315 6.0095 8.2757 5.9875 8.1883 5.9656 8.1008 5.8046 7.8985 5.4826 7.494 5.1805 7.1145 5 6.6339 5 6.1111 5 4.8838 5.9949 3.8889 7.2222 3.8889 7.3455 3.8889 7.4071 3.8889 7.4135 3.8887 7.6714 3.8808 7.731 3.8343 7.8016 3.5861 7.8033 3.58 7.8182 3.5208 7.848 3.4022 8.0933 2.4266 8.9634 1.6667 10 1.6667Z" stroke="currentColor" stroke-linejoin="round" stroke-width="2"/>
  <path d="M10 8.3333C10.6903 8.3333 11.25 7.7737 11.25 7.0833 11.25 6.393 10.6903 5.8333 10 5.8333 9.3097 5.8333 8.75 6.393 8.75 7.0833 8.75 7.7737 9.3097 8.3333 10 8.3333Z" stroke="currentColor" stroke-linecap="round" stroke-linejoin="round" stroke-width="2"/>
  <path d="M10 11.6667V18.3333" stroke="currentColor" stroke-linecap="round" stroke-linejoin="round" stroke-width="2"/>
  <path d="M15.5106 15.7898C14.9191 17.1204 13.5464 17.9291 11.6615 18.2157 10.9036 18.3308 10.5246 18.3884 10.2251 17.9958 9.9256 17.6032 10.0578 17.3057 10.3223 16.7107 10.9138 15.38 12.2863 14.5713 14.1713 14.2848 14.9292 14.1696 15.3082 14.112 15.6077 14.5047 15.9072 14.8973 15.775 15.1948 15.5106 15.7898Z" stroke="currentColor" stroke-linecap="round" stroke-linejoin="round" stroke-width="2"/>
  <path d="M4.4889 15.7898C5.0804 17.1204 6.453 17.9291 8.338 18.2157 9.0959 18.3308 9.4748 18.3884 9.7744 17.9958 10.0739 17.6032 9.9417 17.3057 9.6773 16.7107 9.0858 15.38 7.7131 14.5713 5.8282 14.2848 5.0702 14.1696 4.6913 14.112 4.3918 14.5047 4.0922 14.8973 4.2245 15.1948 4.4889 15.7898Z" stroke="currentColor" stroke-linecap="round" stroke-linejoin="round" stroke-width="2"/>
</svg>
