<svg xmlns="http://www.w3.org/2000/svg" width="20" height="20" viewBox="0 0 20 20" fill="none">
  <path d="M10 7.5C10 3.75 11.6667 3.3333 13.3333 3.3333 13.3333 5.8333 12.0833 7.5 10 7.5ZM10 7.5C10 3.75 8.3333 3.3333 6.6667 3.3333 6.6667 5.8333 7.9167 7.5 10 7.5Z" stroke="currentColor" stroke-linecap="round" stroke-linejoin="round" stroke-width="2"/>
  <path d="M8.3333 3.3333C8.3333 3.3333 8.75 2.0833 10 1.6667 11.25 2.0833 11.6667 3.3333 11.6667 3.3333" stroke="currentColor" stroke-linecap="round" stroke-linejoin="round" stroke-width="2"/>
  <path d="M10 7.5V12.5" stroke="currentColor" stroke-linecap="round" stroke-linejoin="round" stroke-width="2"/>
  <path d="M10 10.8333C10.2083 10.2777 11 9.1667 12.5 9.1667" stroke="currentColor" stroke-linecap="round" stroke-linejoin="round" stroke-width="2"/>
  <path d="M10.9591 12.5H9.0409C7.3306 12.5 6.4755 12.5 6.0534 12.9973 5.6314 13.4945 5.8663 14.2253 6.3362 15.6868L6.4142 15.9295C6.7839 17.0796 6.9688 17.6546 7.4612 17.9898L7.4833 18.0046C7.9813 18.3333 8.6542 18.3333 10 18.3333 11.3458 18.3333 12.0188 18.3333 12.5167 18.0046L12.5388 17.9898C13.0313 17.6546 13.2161 17.0796 13.5858 15.9295L13.6638 15.6868C14.1337 14.2253 14.3686 13.4945 13.9466 12.9973 13.5245 12.5 12.6694 12.5 10.9591 12.5Z" stroke="currentColor" stroke-linecap="round" stroke-linejoin="round" stroke-width="2"/>
</svg>
