<svg xmlns="http://www.w3.org/2000/svg" width="20" height="20" viewBox="0 0 20 20" fill="none">
  <path d="M10.4167 3.75C10.4167 2.7679 10.4167 2.2769 10.7218 1.9718 11.0268 1.6667 11.5179 1.6667 12.5 1.6667 13.4821 1.6667 13.9732 1.6667 14.2783 1.9718 14.5833 2.2769 14.5833 2.7679 14.5833 3.75 14.5833 4.7321 14.5833 5.2231 14.2783 5.5282 13.9732 5.8333 13.4821 5.8333 12.5 5.8333 11.5179 5.8333 11.0268 5.8333 10.7218 5.5282 10.4167 5.2231 10.4167 4.7321 10.4167 3.75Z" stroke="currentColor" stroke-width="2"/>
  <path d="M10.4167 16.25C10.4167 15.2679 10.4167 14.7768 10.7218 14.4718 11.0268 14.1667 11.5179 14.1667 12.5 14.1667 13.4821 14.1667 13.9732 14.1667 14.2783 14.4718 14.5833 14.7768 14.5833 15.2679 14.5833 16.25 14.5833 17.2321 14.5833 17.7232 14.2783 18.0282 13.9732 18.3333 13.4821 18.3333 12.5 18.3333 11.5179 18.3333 11.0268 18.3333 10.7218 18.0282 10.4167 17.7232 10.4167 17.2321 10.4167 16.25Z" stroke="currentColor" stroke-width="2"/>
  <path d="M1.6667 10C1.6667 8.8215 1.6667 8.2322 2.0938 7.8661 2.5209 7.5 3.2084 7.5 4.5833 7.5 5.9583 7.5 6.6457 7.5 7.0729 7.8661 7.5 8.2322 7.5 8.8215 7.5 10 7.5 11.1785 7.5 11.7677 7.0729 12.1339 6.6457 12.5 5.9583 12.5 4.5833 12.5 3.2084 12.5 2.5209 12.5 2.0938 12.1339 1.6667 11.7677 1.6667 11.1785 1.6667 10Z" stroke="currentColor" stroke-width="2"/>
  <path d="M18.3328 3.7501H14.5833M4.5833 7.5002V6.6667C4.5833 5.4963 4.5833 4.9111 4.8642 4.4907 4.9858 4.3087 5.1421 4.1525 5.3241 4.0309 5.7444 3.75 6.3296 3.75 7.5 3.75H10.4167M18.3328 16.2503H14.5833M4.5833 12.5002V13.3338C4.5833 14.5042 4.5833 15.0893 4.8642 15.5097 4.9858 15.6917 5.1421 15.8479 5.3241 15.9695 5.7444 16.2504 6.3296 16.2504 7.5 16.2504H10.4167" stroke="currentColor" stroke-linecap="round" stroke-linejoin="round" stroke-width="2"/>
</svg>
