<svg xmlns="http://www.w3.org/2000/svg" width="20" height="20" viewBox="0 0 20 20" fill="none">
  <path d="M11.6898 11.1458C12.2299 10.6057 12.5 10.3356 12.5 10 12.5 9.6644 12.2299 9.3943 11.6898 8.8543L11.1458 8.3102C10.6057 7.7701 10.3356 7.5 10 7.5 9.6644 7.5 9.3943 7.7701 8.8543 8.3102L8.3102 8.8543C7.7701 9.3943 7.5 9.6644 7.5 10 7.5 10.3356 7.7701 10.6057 8.3102 11.1458L8.8543 11.6898C9.3943 12.2299 9.6644 12.5 10 12.5 10.3356 12.5 10.6057 12.2299 11.1458 11.6898L11.6898 11.1458Z" stroke="currentColor" stroke-width="2"/>
  <path d="M6.6667 3.3333C6.6667 1.9544 6.9544 1.6667 8.3333 1.6667H11.6667C13.0456 1.6667 13.3333 1.9544 13.3333 3.3333 13.3333 4.7122 13.0456 5 11.6667 5H8.3333C6.9544 5 6.6667 4.7122 6.6667 3.3333Z" stroke="currentColor" stroke-width="2"/>
  <path d="M6.6667 16.6667C6.6667 15.2878 6.9544 15 8.3333 15H11.6667C13.0456 15 13.3333 15.2878 13.3333 16.6667 13.3333 18.0456 13.0456 18.3333 11.6667 18.3333H8.3333C6.9544 18.3333 6.6667 18.0456 6.6667 16.6667Z" stroke="currentColor" stroke-width="2"/>
  <path d="M7.0833 10H6.6667C5.0953 10 4.3096 10 3.8215 9.5118 3.3333 9.0237 3.3333 8.238 3.3333 6.6667 3.3333 5.0953 3.3333 4.3096 3.8215 3.8215 4.3096 3.3333 5.0953 3.3333 6.6667 3.3333" stroke="currentColor" stroke-linecap="round" stroke-linejoin="round" stroke-width="2"/>
  <path d="M12.9167 10H13.3333C14.9047 10 15.6903 10 16.1785 10.4882 16.6667 10.9763 16.6667 11.762 16.6667 13.3333 16.6667 14.9047 16.6667 15.6903 16.1785 16.1785 15.6903 16.6667 14.9047 16.6667 13.3333 16.6667" stroke="currentColor" stroke-linecap="round" stroke-linejoin="round" stroke-width="2"/>
  <path d="M10 7.0833V5M10 12.9167V15" stroke="currentColor" stroke-linecap="round" stroke-linejoin="round" stroke-width="2"/>
</svg>
