<svg xmlns="http://www.w3.org/2000/svg" width="20" height="20" viewBox="0 0 20 20" fill="none">
  <path d="M12.0833 10.4167C12.0833 11.5672 11.1506 12.5 9.9999 12.5 8.8493 12.5 7.9166 11.5672 7.9166 10.4167 7.9166 9.2661 8.8493 8.3333 9.9999 8.3333 11.1506 8.3333 12.0833 9.2661 12.0833 10.4167Z" stroke="currentColor" stroke-linejoin="round" stroke-width="2"/>
  <path d="M9.9999 2.5C11.8409 2.5 13.3317 4.0978 13.3317 5.9388 13.5985 5.8699 13.8783 5.8333 14.1666 5.8333 16.0076 5.8333 17.4999 7.3257 17.4999 9.1667 17.4999 10.497 16.7206 11.6454 15.5935 12.18 16.0059 12.7348 16.2499 13.4223 16.2499 14.1667 16.2499 16.0076 14.7576 17.5 12.9166 17.5 11.6616 17.5 10.5686 16.8064 9.9999 15.7817 9.4313 16.8064 8.3383 17.5 7.0833 17.5 5.2423 17.5 3.7499 16.0076 3.7499 14.1667 3.7499 13.4223 3.994 12.7348 4.4064 12.18 3.2793 11.6454 2.5 10.497 2.5 9.1667 2.5 7.3257 3.9923 5.8333 5.8333 5.8333 6.1216 5.8333 6.4014 5.8699 6.6682 5.9388 6.6682 4.0978 8.159 2.5 9.9999 2.5Z" stroke="currentColor" stroke-linejoin="round" stroke-width="2"/>
</svg>
