<svg xmlns="http://www.w3.org/2000/svg" width="20" height="20" viewBox="0 0 20 20" fill="none">
  <path d="M15 3.75C15 4.9006 14.0673 5.8333 12.9167 5.8333 11.7661 5.8333 10.8333 4.9006 10.8333 3.75 10.8333 2.5994 11.7661 1.6667 12.9167 1.6667 14.0673 1.6667 15 2.5994 15 3.75Z" stroke="currentColor" stroke-width="2"/>
  <path d="M15 16.25C15 17.4006 14.0673 18.3333 12.9167 18.3333 11.7661 18.3333 10.8333 17.4006 10.8333 16.25 10.8333 15.0994 11.7661 14.1667 12.9167 14.1667 14.0673 14.1667 15 15.0994 15 16.25Z" stroke="currentColor" stroke-width="2"/>
  <path d="M8.3333 10C8.3333 11.8409 6.841 13.3333 5 13.3333 3.1591 13.3333 1.6667 11.8409 1.6667 10 1.6667 8.1591 3.1591 6.6667 5 6.6667 6.841 6.6667 8.3333 8.1591 8.3333 10Z" stroke="currentColor" stroke-width="2"/>
  <path d="M18.3333 3.7501L15 3.75M5 6.6666C5 5.4962 5 4.911 5.2809 4.4906 5.4025 4.3086 5.5587 4.1524 5.7407 4.0308 6.1611 3.7499 6.7463 3.7499 7.9167 3.7499H10.8333M18.3333 16.2502L15 16.2501M5 13.3335C5 14.5038 5 15.0891 5.2809 15.5094 5.4025 15.6914 5.5587 15.8477 5.7407 15.9693 6.1611 16.2502 6.7463 16.2502 7.9167 16.2502H10.8333" stroke="currentColor" stroke-linecap="round" stroke-linejoin="round" stroke-width="2"/>
</svg>
