<svg xmlns="http://www.w3.org/2000/svg" width="20" height="20" viewBox="0 0 20 20" fill="none">
  <path d="M5 16.6667C5 17.5872 4.2538 18.3333 3.3333 18.3333 2.4129 18.3333 1.6667 17.5872 1.6667 16.6667 1.6667 15.7462 2.4129 15 3.3333 15 4.2538 15 5 15.7462 5 16.6667Z" stroke="currentColor" stroke-width="2"/>
  <path d="M11.6667 5V8.3333M8.3333 10H6.6667C5.0953 10 4.3096 10 3.8215 10.4882 3.3333 10.9763 3.3333 11.762 3.3333 13.3333V15M5 16.6667H8.3333" stroke="currentColor" stroke-linecap="round" stroke-linejoin="round" stroke-width="2"/>
  <path d="M8.3333 3.3333C8.3333 1.9544 8.6211 1.6667 10 1.6667H13.3333C14.7122 1.6667 15 1.9544 15 3.3333 15 4.7122 14.7122 5 13.3333 5H10C8.6211 5 8.3333 4.7122 8.3333 3.3333Z" stroke="currentColor" stroke-width="2"/>
  <path d="M8.3333 10C8.3333 8.6211 8.6211 8.3333 10 8.3333H13.3333C14.7122 8.3333 15 8.6211 15 10 15 11.3789 14.7122 11.6667 13.3333 11.6667H10C8.6211 11.6667 8.3333 11.3789 8.3333 10Z" stroke="currentColor" stroke-width="2"/>
  <path d="M8.3333 16.6667C8.3333 15.2878 8.6211 15 10 15H13.3333C14.7122 15 15 15.2878 15 16.6667 15 18.0456 14.7122 18.3333 13.3333 18.3333H10C8.6211 18.3333 8.3333 18.0456 8.3333 16.6667Z" stroke="currentColor" stroke-width="2"/>
  <path d="M15 10C16.5713 10 17.357 10 17.8452 9.5118 18.3333 9.0237 18.3333 8.238 18.3333 6.6667 18.3333 5.0953 18.3333 4.3096 17.8452 3.8215 17.357 3.3333 16.5713 3.3333 15 3.3333" stroke="currentColor" stroke-linecap="round" stroke-linejoin="round" stroke-width="2"/>
</svg>
