<svg xmlns="http://www.w3.org/2000/svg" width="20" height="20" viewBox="0 0 20 20" fill="none">
  <path d="M17.5 5.4167C17.5 7.0275 16.1942 8.3333 14.5833 8.3333 12.9725 8.3333 11.6667 7.0275 11.6667 5.4167 11.6667 3.8058 12.9725 2.5 14.5833 2.5 16.1942 2.5 17.5 3.8058 17.5 5.4167Z" stroke="currentColor" stroke-width="2"/>
  <path d="M2.5 5.4167C2.5 4.0417 2.5 3.3543 2.9271 2.9271 3.3543 2.5 4.0417 2.5 5.4167 2.5 6.7916 2.5 7.4791 2.5 7.9062 2.9271 8.3333 3.3543 8.3333 4.0417 8.3333 5.4167 8.3333 6.7916 8.3333 7.4791 7.9062 7.9062 7.4791 8.3333 6.7916 8.3333 5.4167 8.3333 4.0417 8.3333 3.3543 8.3333 2.9271 7.9062 2.5 7.4791 2.5 6.7916 2.5 5.4167Z" stroke="currentColor" stroke-width="2"/>
  <path d="M2.5 14.5833C2.5 13.2084 2.5 12.5209 2.9271 12.0938 3.3543 11.6667 4.0417 11.6667 5.4167 11.6667 6.7916 11.6667 7.4791 11.6667 7.9062 12.0938 8.3333 12.5209 8.3333 13.2084 8.3333 14.5833 8.3333 15.9582 8.3333 16.6458 7.9062 17.0728 7.4791 17.5 6.7916 17.5 5.4167 17.5 4.0417 17.5 3.3543 17.5 2.9271 17.0728 2.5 16.6458 2.5 15.9582 2.5 14.5833Z" stroke="currentColor" stroke-width="2"/>
  <path d="M11.6667 14.5833C11.6667 13.2084 11.6667 12.5209 12.0938 12.0938 12.5209 11.6667 13.2084 11.6667 14.5833 11.6667 15.9582 11.6667 16.6458 11.6667 17.0728 12.0938 17.5 12.5209 17.5 13.2084 17.5 14.5833 17.5 15.9582 17.5 16.6458 17.0728 17.0728 16.6458 17.5 15.9582 17.5 14.5833 17.5 13.2084 17.5 12.5209 17.5 12.0938 17.0728 11.6667 16.6458 11.6667 15.9582 11.6667 14.5833Z" stroke="currentColor" stroke-width="2"/>
  <path d="M14.5833 8.3333V11.6667M11.6667 14.5833H8.3333M8.3333 5.4167H11.6667" stroke="currentColor" stroke-linecap="round" stroke-linejoin="round" stroke-width="2"/>
</svg>
