<svg xmlns="http://www.w3.org/2000/svg" width="20" height="20" viewBox="0 0 20 20" fill="none">
  <path d="M7.612 2.0833C5.3901 2.134 4.0923 2.3455 3.2056 3.2291 2.4295 4.0025 2.1701 5.0896 2.0834 6.8333M12.3881 2.0833C14.61 2.134 15.9078 2.3455 16.7945 3.2291 17.5706 4.0025 17.83 5.0896 17.9167 6.8333M12.3881 17.9167C14.61 17.866 15.9078 17.6545 16.7945 16.7709 17.5706 15.9975 17.83 14.9103 17.9167 13.1667M7.612 17.9167C5.3901 17.866 4.0923 17.6545 3.2056 16.7709 2.4295 15.9975 2.1701 14.9103 2.0834 13.1667" stroke="currentColor" stroke-linecap="round" stroke-linejoin="round" stroke-width="2"/>
  <path d="M9.5833 5.8333L10.4167 5.8333M9.5833 10H10.4167M9.5833 14.1667H10.4167M4.1667 10H5M15 10H15.8333" stroke="currentColor" stroke-linecap="round" stroke-width="2"/>
</svg>
