<svg xmlns="http://www.w3.org/2000/svg" width="20" height="20" viewBox="0 0 20 20" fill="none">
  <circle cx="10" cy="10" r="2.5" stroke="currentColor" stroke-linecap="round" stroke-linejoin="round" stroke-width="2"/>
  <path d="M17.5 6.4478C17.4277 4.9904 17.2117 4.0817 16.5652 3.4354 15.9188 2.789 15.0101 2.5729 13.5527 2.5007M2.5 6.4471C2.5722 4.9897 2.7883 4.0811 3.4347 3.4347 4.0812 2.7883 4.9899 2.5722 6.4474 2.5M17.5 13.5522C17.4277 15.0096 17.2117 15.9183 16.5652 16.5647 15.9188 17.2111 15.0101 17.4271 13.5527 17.4993M2.5 13.5528C2.5722 15.0103 2.7883 15.9189 3.4347 16.5653 4.0812 17.2117 4.9899 17.4277 6.4474 17.5" stroke="currentColor" stroke-linecap="round" stroke-linejoin="round" stroke-width="2"/>
</svg>
