<svg xmlns="http://www.w3.org/2000/svg" width="20" height="20" viewBox="0 0 20 20" fill="none">
  <circle cx="14.166666666666668" cy="13.75" r="4.166666666666667" stroke="currentColor" stroke-linecap="round" stroke-linejoin="round" stroke-width="2"/>
  <path d="M14.1667 12.0833V13.75L15.4167 14.1667" stroke="currentColor" stroke-linecap="round" stroke-linejoin="round" stroke-width="2"/>
  <path d="M6.6778 5.4204H13.9856C15.7451 5.4204 16.6248 5.4204 17.2568 5.8422 17.5303 6.0248 17.7653 6.2594 17.9481 6.5327 18.1827 6.8836 18.287 7.3109 18.3333 7.9232M10.0185 5.4204L9.4895 4.3635C9.0512 3.4879 8.6507 2.6065 7.6794 2.2427 7.254 2.0833 6.768 2.0833 5.796 2.0833 4.279 2.0833 3.5204 2.0833 2.9512 2.4006 2.5455 2.6268 2.2107 2.9612 1.9843 3.3665 1.6667 3.935 1.6667 4.6927 1.6667 6.2082V8.7574C1.6667 12.6902 1.6667 14.6566 2.8898 15.8783 3.8201 16.8077 5.1817 17.0301 7.513 17.0833" stroke="currentColor" stroke-linecap="round" stroke-linejoin="round" stroke-width="2"/>
</svg>
