<svg xmlns="http://www.w3.org/2000/svg" width="20" height="20" viewBox="0 0 20 20" fill="none">
  <path d="M6.6667 5.4167H13.9583C15.7139 5.4167 16.5917 5.4167 17.2222 5.838 17.4952 6.0204 17.7296 6.2548 17.912 6.5277 18.2801 7.0786 18.3266 7.8181 18.3325 9.1667M10 5.4167L9.4722 4.3609C9.0348 3.4863 8.6352 2.6059 7.6661 2.2425 7.2416 2.0833 6.7567 2.0833 5.7869 2.0833 4.2732 2.0833 3.5163 2.0833 2.9484 2.4003 2.5436 2.6262 2.2095 2.9602 1.9836 3.3651 1.6667 3.933 1.6667 4.6898 1.6667 6.2036V8.75C1.6667 12.6783 1.6667 14.6426 2.8871 15.8629 4.0179 16.9938 5.7874 17.0768 9.1667 17.0828" stroke="currentColor" stroke-linecap="round" stroke-linejoin="round" stroke-width="2"/>
  <path d="M17.0833 14.5833C17.0833 15.7339 16.1506 16.6667 15 16.6667M17.0833 14.5833C17.0833 13.4328 16.1506 12.5 15 12.5M17.0833 14.5833H18.3333M15 16.6667C13.8494 16.6667 12.9167 15.7339 12.9167 14.5833M15 16.6667V17.9167M12.9167 14.5833C12.9167 13.4328 13.8494 12.5 15 12.5M12.9167 14.5833H11.6667M15 12.5V11.25M16.4732 13.1102L17.357 12.2263M13.5268 16.0565L12.643 16.9403M16.4732 16.0565L17.357 16.9403M13.5268 13.1102L12.643 12.2263" stroke="currentColor" stroke-linecap="round" stroke-linejoin="round" stroke-width="2"/>
</svg>
