<svg xmlns="http://www.w3.org/2000/svg" width="20" height="20" viewBox="0 0 20 20" fill="none">
  <path d="M11.6667 17.5H10.0185C6.0814 17.5 4.1129 17.5 2.8898 16.2796 1.6667 15.0593 1.6667 13.095 1.6667 9.1667V6.6202C1.6667 5.1065 1.6667 4.3496 1.9843 3.7817 2.2107 3.3769 2.5455 3.0429 2.9512 2.8169 3.5204 2.5 4.279 2.5 5.796 2.5 6.768 2.5 7.254 2.5 7.6794 2.6592 8.6507 3.0226 9.0512 3.903 9.4895 4.7776L10.0185 5.8333M6.6778 5.8333H13.9856C15.7451 5.8333 16.6248 5.8333 17.2568 6.2547 17.5303 6.4371 17.7653 6.6714 17.9481 6.9444 18.1827 7.2949 18.287 7.7218 18.3333 8.3333" stroke="currentColor" stroke-linecap="round" stroke-width="2"/>
  <path d="M18.3299 15.339V12.9943C18.3299 11.6838 18.3299 11.0286 17.8801 10.8655 17.4302 10.7025 16.9007 11.1658 15.8418 12.0925L15.4134 12.5H14.1667C13.381 12.5 12.9882 12.5 12.7441 12.7441 12.5 12.9882 12.5 13.381 12.5 14.1667 12.5 14.9523 12.5 15.3452 12.7441 15.5893 12.9882 15.8333 13.381 15.8333 14.1667 15.8333H15.4134L15.8418 16.2408C16.9007 17.1675 17.4302 17.6308 17.8801 17.4678 18.3299 17.3047 18.3299 16.6495 18.3299 15.339Z" stroke="currentColor" stroke-linecap="round" stroke-linejoin="round" stroke-width="2"/>
</svg>
