<svg xmlns="http://www.w3.org/2000/svg" width="20" height="20" viewBox="0 0 20 20" fill="none">
  <path d="M11.6667 17.5H10C6.0716 17.5 4.1074 17.5 2.8871 16.2796 1.6667 15.0593 1.6667 13.095 1.6667 9.1667V6.6202C1.6667 5.1065 1.6667 4.3496 1.9836 3.7817 2.2095 3.3769 2.5436 3.0429 2.9484 2.8169 3.5163 2.5 4.2732 2.5 5.7869 2.5 6.7567 2.5 7.2416 2.5 7.6661 2.6592 8.6352 3.0226 9.0348 3.903 9.4722 4.7776L10 5.8333M6.6667 5.8333H13.9583C15.7139 5.8333 16.5917 5.8333 17.2222 6.2547 17.4952 6.4371 17.7296 6.6714 17.912 6.9444 18.3333 7.575 18.3333 8.4527 18.3333 10.2083 18.3333 10.7408 18.3333 11.2248 18.3291 11.6667" stroke="currentColor" stroke-linecap="round" stroke-width="2"/>
  <path d="M14.7386 17.0263C15.3703 17.6579 16.3945 17.6579 17.0263 17.0263 17.6579 16.3945 17.6579 15.3703 17.0263 14.7386L15.5964 13.3087C14.9935 12.7058 14.033 12.6784 13.3975 13.2264M13.5948 11.3071C12.963 10.6754 11.9388 10.6754 11.3071 11.3071 10.6754 11.9388 10.6754 12.9631 11.3071 13.5948L12.7369 15.0245C13.3398 15.6275 14.3003 15.6549 14.9359 15.1068" stroke="currentColor" stroke-linecap="round" stroke-width="2"/>
</svg>
