<svg xmlns="http://www.w3.org/2000/svg" width="20" height="20" viewBox="0 0 20 20" fill="none">
  <path d="M10.0023 17.5C6.0728 17.5 4.1081 17.5 2.8874 16.2796 1.6667 15.0593 1.6667 13.095 1.6667 9.1667V6.6202C1.6667 5.1065 1.6667 4.3496 1.9837 3.7817 2.2097 3.3769 2.5438 3.0429 2.9487 2.8169 3.5168 2.5 4.2739 2.5 5.788 2.5 6.7581 2.5 7.2431 2.5 7.6677 2.6592 8.6371 3.0226 9.0368 3.903 9.4742 4.7776L10.0023 5.8333M6.668 5.8333H13.9617C15.7178 5.8333 16.5957 5.8333 17.2265 6.2547 17.4996 6.4371 17.734 6.6714 17.9164 6.9444 18.2447 7.4357 18.3173 8.077 18.3333 9.1667" stroke="currentColor" stroke-linecap="round" stroke-width="2"/>
  <path d="M13.9583 12.9167V11.4583C13.9583 10.6529 14.6113 10 15.4167 10 16.2221 10 16.875 10.6529 16.875 11.4583V12.9167M18.3333 15.2083C18.3333 14.231 18.3333 13.7423 18.075 13.4058 18.0085 13.3191 17.9309 13.2415 17.8443 13.175 17.5077 12.9167 17.019 12.9167 16.0417 12.9167H14.7917C13.8143 12.9167 13.3257 12.9167 12.9891 13.175 12.9024 13.2415 12.8248 13.3191 12.7583 13.4058 12.5 13.7423 12.5 14.231 12.5 15.2083 12.5 16.1857 12.5 16.6743 12.7583 17.0109 12.8248 17.0976 12.9024 17.1752 12.9891 17.2417 13.3257 17.5 13.8143 17.5 14.7917 17.5H16.0417C17.019 17.5 17.5077 17.5 17.8443 17.2417 17.9309 17.1752 18.0085 17.0976 18.075 17.0109 18.3333 16.6743 18.3333 16.1857 18.3333 15.2083Z" stroke="currentColor" stroke-linejoin="round" stroke-width="2"/>
</svg>
