<svg xmlns="http://www.w3.org/2000/svg" width="20" height="20" viewBox="0 0 20 20" fill="none">
  <path d="M10.0023 17.5C6.0728 17.5 4.1081 17.5 2.8874 16.2796 1.6667 15.0593 1.6667 13.095 1.6667 9.1667V6.6202C1.6667 5.1065 1.6667 4.3496 1.9837 3.7817 2.2097 3.3769 2.5438 3.0429 2.9487 2.8169 3.5168 2.5 4.2739 2.5 5.788 2.5 6.7581 2.5 7.2431 2.5 7.6677 2.6592 8.6371 3.0226 9.0368 3.903 9.4742 4.7776L10.0023 5.8333M6.668 5.8333H13.9617C15.7178 5.8333 16.5957 5.8333 17.2265 6.2547 17.4996 6.4371 17.734 6.6714 17.9164 6.9444 18.2447 7.4357 18.3173 8.077 18.3333 9.1667" stroke="currentColor" stroke-linecap="round" stroke-linejoin="round" stroke-width="2"/>
  <path d="M18.3333 15V13.9522C18.3333 13.4413 18.3333 13.1858 18.2382 12.9561 18.143 12.7263 17.9624 12.5457 17.6011 12.1844L16.9823 11.5656C16.6209 11.2043 16.4403 11.0237 16.2106 10.9285 15.9808 10.8333 15.7254 10.8333 15.2145 10.8333 14.0359 10.8333 13.2323 10.8333 12.8661 11.1994 12.5 11.5656 12.5 12.1548 12.5 13.3333V15C12.5 16.1785 12.5 16.7678 12.8661 17.1339 13.2323 17.5 13.8215 17.5 15 17.5H15.8333C17.0118 17.5 17.6011 17.5 17.9672 17.1339 18.3333 16.7678 18.3333 16.1785 18.3333 15Z" stroke="currentColor" stroke-linecap="round" stroke-linejoin="round" stroke-width="2"/>
</svg>
