<svg xmlns="http://www.w3.org/2000/svg" width="20" height="20" viewBox="0 0 20 20" fill="none">
  <path d="M11.6694 17.5H10.0023C6.0728 17.5 4.1081 17.5 2.8874 16.2796 1.6667 15.0593 1.6667 13.095 1.6667 9.1667V6.6202C1.6667 5.1065 1.6667 4.3496 1.9837 3.7817 2.2097 3.3769 2.5438 3.0429 2.9487 2.8169 3.5168 2.5 4.2739 2.5 5.788 2.5 6.7581 2.5 7.2431 2.5 7.6677 2.6592 8.6371 3.0226 9.0368 3.903 9.4742 4.7776L10.0023 5.8333M6.668 5.8333H13.9617C15.7178 5.8333 16.5957 5.8333 17.2265 6.2547 17.4996 6.4371 17.734 6.6714 17.9164 6.9444 18.2447 7.4357 18.3173 8.077 18.3333 9.1667" stroke="currentColor" stroke-linecap="round" stroke-width="2"/>
  <path d="M18.3333 13.8503V12.2078C18.3333 11.9494 18.1436 11.735 17.8975 11.691 16.9058 11.5137 16.0825 11.1193 15.6808 10.9005 15.5164 10.8109 15.3169 10.8109 15.1525 10.9005 14.7508 11.1193 13.9276 11.5137 12.9358 11.691 12.6898 11.735 12.5 11.9494 12.5 12.2078V13.8503C12.5 15.9932 14.6187 17.162 15.2446 17.4605 15.355 17.5132 15.4783 17.5132 15.5887 17.4605 16.2147 17.162 18.3333 15.9932 18.3333 13.8503Z" stroke="currentColor" stroke-linecap="round" stroke-width="2"/>
</svg>
