<svg xmlns="http://www.w3.org/2000/svg" width="20" height="20" viewBox="0 0 20 20" fill="none">
  <path d="M16.6667 16.6668C16.6062 16.7121 16.5445 16.7557 16.4816 16.7978 15.4306 17.5001 13.9677 17.5001 11.0417 17.5001H10C6.0716 17.5001 4.1074 17.5001 2.8871 16.2797 1.6667 15.0593 1.6667 13.0951 1.6667 9.1668V6.6203C1.6667 5.1065 1.6667 4.3497 1.9836 3.7818 2.1783 3.4328 2.4534 3.1365 2.7848 2.9167" stroke="currentColor" stroke-linecap="round" stroke-width="2"/>
  <path d="M9.1667 5.8325H13.9583C15.7139 5.8325 16.5917 5.8325 17.2222 6.2538 17.4952 6.4362 17.7296 6.6706 17.912 6.9436 18.3333 7.5741 18.3333 8.4519 18.3333 10.2075 18.3333 11.9913 18.3333 13.2314 18.1743 14.1658M10 5.8325L9.4722 4.7768C9.0348 3.9021 8.6352 3.0218 7.6661 2.6583 7.3152 2.5268 6.9231 2.504 6.25 2.5H5.8333" stroke="currentColor" stroke-linecap="round" stroke-width="2"/>
  <path d="M1.6667 1.6667L18.3333 18.3333" stroke="currentColor" stroke-linecap="round" stroke-width="2"/>
</svg>
