<svg xmlns="http://www.w3.org/2000/svg" width="20" height="20" viewBox="0 0 20 20" fill="none">
  <path d="M6.6667 5.8333H13.9583C15.7139 5.8333 16.5917 5.8333 17.2222 6.2547 17.4952 6.4371 17.7296 6.6714 17.912 6.9444 18.3333 7.575 18.3333 8.4527 18.3333 10.2083 18.3333 13.1343 18.3333 14.5973 17.6311 15.6482 17.3272 16.1032 16.9365 16.4938 16.4816 16.7978 15.4306 17.5 13.9677 17.5 11.0417 17.5H10C6.0716 17.5 4.1074 17.5 2.8871 16.2796 1.6667 15.0593 1.6667 13.095 1.6667 9.1667V6.6202C1.6667 5.1065 1.6667 4.3496 1.9836 3.7817 2.2095 3.3769 2.5436 3.0429 2.9484 2.8169 3.5163 2.5 4.2732 2.5 5.7869 2.5 6.7567 2.5 7.2416 2.5 7.6661 2.6592 8.6352 3.0226 9.0348 3.903 9.4722 4.7776L10 5.8333" stroke="currentColor" stroke-linecap="round" stroke-linejoin="round" stroke-width="2"/>
  <path d="M11.6667 12.9167L12.9167 14.1667M12.0833 11.25C12.0833 12.4006 11.1506 13.3333 10 13.3333 8.8494 13.3333 7.9167 12.4006 7.9167 11.25 7.9167 10.0994 8.8494 9.1667 10 9.1667 11.1506 9.1667 12.0833 10.0994 12.0833 11.25Z" stroke="currentColor" stroke-linecap="round" stroke-linejoin="round" stroke-width="2"/>
</svg>
