<svg xmlns="http://www.w3.org/2000/svg" width="20" height="20" viewBox="0 0 20 20" fill="none">
  <path d="M6.25 7.5464H13.5625C15.1425 7.5464 15.9325 7.5464 16.5 7.9209 16.7458 8.083 16.9567 8.2914 17.1208 8.534 17.5 9.0945 17.5 9.8748 17.5 11.4353 17.5 14.0362 17.5 15.3366 16.868 16.2707 16.5944 16.6752 16.2428 17.0223 15.8334 17.2926 14.8876 17.9168 13.5708 17.9168 10.9375 17.9168H10C6.4645 17.9168 4.6967 17.9168 3.5983 16.832 2.5 15.7472 2.5 14.0013 2.5 10.5093V8.2459C2.5 6.9003 2.5 6.2276 2.7852 5.7227 2.9886 5.3629 3.2892 5.066 3.6536 4.8652 4.1647 4.5834 4.8458 4.5834 6.2082 4.5834 7.081 4.5834 7.5174 4.5834 7.8994 4.7249 8.7717 5.048 9.1313 5.8305 9.5249 6.608L10 7.5464" stroke="currentColor" stroke-linecap="round" stroke-width="2"/>
  <path d="M2.5 2.0834H7.0833C7.8917 2.0834 8.6818 2.0598 9.3656 2.5461 10.2417 3.1692 10.5917 4.331 11.4678 4.9541 12.1515 5.4403 12.9416 5.4168 13.75 5.4168H17.5" stroke="currentColor" stroke-linecap="round" stroke-width="2"/>
</svg>
