<svg xmlns="http://www.w3.org/2000/svg" width="20" height="20" viewBox="0 0 20 20" fill="none">
  <path d="M6.6667 5.8333H13.9583C15.7139 5.8333 16.5917 5.8333 17.2222 6.2547 17.4952 6.4371 17.7296 6.6714 17.912 6.9444 18.3333 7.575 18.3333 8.4527 18.3333 10.2083 18.3333 13.1343 18.3333 14.5973 17.6311 15.6482 17.3272 16.1032 16.9365 16.4938 16.4816 16.7978 15.4306 17.5 13.9677 17.5 11.0417 17.5H10C7.2112 17.5 5.4123 17.5 4.1667 17.0633M10 5.8333L9.4722 4.7776C9.0348 3.903 8.6352 3.0226 7.6661 2.6592 7.2416 2.5 6.7567 2.5 5.7869 2.5 4.2732 2.5 3.5163 2.5 2.9484 2.8169 2.5436 3.0429 2.2095 3.3769 1.9836 3.7817 1.6667 4.3496 1.6667 5.1065 1.6667 6.6202" stroke="currentColor" stroke-linecap="round" stroke-linejoin="round" stroke-width="2"/>
  <path d="M4.1666 14.1667C4.1666 14.1667 1.6667 12.3254 1.6667 11.6667 1.6667 11.0078 4.1667 9.1667 4.1667 9.1667M2.5 11.6667L10 11.6667" stroke="currentColor" stroke-linecap="round" stroke-linejoin="round" stroke-width="2"/>
</svg>
