<svg xmlns="http://www.w3.org/2000/svg" width="20" height="20" viewBox="0 0 20 20" fill="none">
  <path d="M6.6667 5.8343H13.9583C15.7139 5.8343 16.5918 5.8343 17.2222 6.2557 17.4952 6.4382 17.7297 6.6726 17.912 6.9457 18.3163 7.551 18.3327 8.384 18.3333 10.0022V10.8358M10 5.8343L9.4722 4.7783C9.0348 3.9034 8.6352 3.0228 7.6661 2.6592 7.2416 2.5 6.7567 2.5 5.7869 2.5 4.2732 2.5 3.5163 2.5 2.9484 2.817 2.5436 3.043 2.2095 3.3771 1.9836 3.7821 1.6667 4.3502 1.6667 5.1073 1.6667 6.6214V9.1686C1.6667 13.0981 1.6667 15.0628 2.8871 16.2836 3.9211 17.3179 5.4891 17.4759 8.3333 17.5" stroke="currentColor" stroke-linecap="round" stroke-width="2"/>
  <path d="M15.8333 15.4167L17.0377 16.2196C17.6081 16.5998 17.8933 16.7899 18.1133 16.6722 18.3333 16.5544 18.3333 16.2117 18.3333 15.5262V14.4738C18.3333 13.7883 18.3333 13.4456 18.1133 13.3278 17.8933 13.2101 17.6081 13.4002 17.0377 13.7804L15.8333 14.5833M15.8333 15.4167V14.5833M15.8333 15.4167C15.8333 16.1955 15.8333 16.5849 15.6658 16.875 15.5562 17.065 15.3983 17.2228 15.2083 17.3325 14.9183 17.5 14.5288 17.5 13.75 17.5H13.3333C12.1548 17.5 11.5656 17.5 11.1994 17.1339 10.8333 16.7678 10.8333 16.1785 10.8333 15 10.8333 13.8215 10.8333 13.2323 11.1994 12.8661 11.5656 12.5 12.1548 12.5 13.3333 12.5H13.75C14.5288 12.5 14.9183 12.5 15.2083 12.6675 15.3983 12.7772 15.5562 12.935 15.6658 13.125 15.8333 13.4151 15.8333 13.8045 15.8333 14.5833" stroke="currentColor" stroke-linejoin="round" stroke-width="2"/>
</svg>
