<svg xmlns="http://www.w3.org/2000/svg" width="20" height="20" viewBox="0 0 20 20" fill="none">
  <path d="M10.0023 17.5C6.0728 17.5 4.1081 17.5 2.8874 16.2796 1.6667 15.0593 1.6667 13.095 1.6667 9.1667V6.6202C1.6667 5.1065 1.6667 4.3496 1.9837 3.7817 2.2097 3.3769 2.5438 3.0429 2.9487 2.8169 3.5168 2.5 4.2739 2.5 5.788 2.5 6.7581 2.5 7.2431 2.5 7.6677 2.6592 8.6371 3.0226 9.0368 3.903 9.4742 4.7776L10.0023 5.8333M6.668 5.8333H13.9617C15.7178 5.8333 16.5957 5.8333 17.2265 6.2547 17.4996 6.4371 17.734 6.6714 17.9164 6.9444 18.2447 7.4357 18.3173 8.077 18.3333 9.1667" stroke="currentColor" stroke-linecap="round" stroke-width="2"/>
  <path d="M15 16.4773C16.4728 16.4773 17.6667 15.2563 17.6667 13.75 17.6667 12.2438 16.4728 11.0228 15 11.0228M15 16.4773C13.5273 16.4773 12.3333 15.2563 12.3333 13.75 12.3333 12.2438 13.5273 11.0228 15 11.0228M15 16.4773V17.5M15 11.0228V10M12.5761 12.2624L11.667 11.7046M18.3333 15.7954L17.4243 15.2376M17.4239 12.2624L18.333 11.7046M11.6667 15.7954L12.5757 15.2376" stroke="currentColor" stroke-linecap="round" stroke-width="2"/>
</svg>
