<svg xmlns="http://www.w3.org/2000/svg" width="20" height="20" viewBox="0 0 20 20" fill="none">
  <path d="M10.8333 17.5H10C6.0716 17.5 4.1074 17.5 2.8871 16.2796 1.6667 15.0593 1.6667 13.095 1.6667 9.1667V6.6202C1.6667 5.1065 1.6667 4.3496 1.9836 3.7817 2.2095 3.3769 2.5436 3.0429 2.9484 2.8169 3.5163 2.5 4.2732 2.5 5.7869 2.5 6.7567 2.5 7.2416 2.5 7.6661 2.6592 8.6352 3.0226 9.0348 3.903 9.4722 4.7776L10 5.8333M6.6667 5.8333H13.9583C15.7139 5.8333 16.5917 5.8333 17.2222 6.2547 17.4952 6.4371 17.7296 6.6714 17.912 6.9444 18.3163 7.5495 18.3327 8.3823 18.3333 10" stroke="currentColor" stroke-linecap="round" stroke-width="2"/>
  <path d="M17.5 12.8846V14.9359C17.5 16.352 16.3808 17.5 15 17.5 13.6193 17.5 12.5 16.352 12.5 14.9359V12.1154C12.5 11.4073 13.0597 10.8333 13.75 10.8333 14.4403 10.8333 15 11.4073 15 12.1154V14.9359" stroke="currentColor" stroke-linecap="round" stroke-linejoin="round" stroke-width="2"/>
</svg>
