<svg xmlns="http://www.w3.org/2000/svg" width="20" height="20" viewBox="0 0 20 20" fill="none">
  <path d="M10.0053 15V18.3205M17.0833 18.3333H2.9167" stroke="currentColor" stroke-linecap="round" stroke-linejoin="round" stroke-width="2"/>
  <path d="M6.6667 4.5833H10.0149M10.0149 4.5833H13.3333C15.6903 4.5833 16.8688 4.5833 17.6011 5.3156 18.3333 6.0478 18.3333 7.2263 18.3333 9.5833V10C18.3333 12.357 18.3333 13.5355 17.6011 14.2678 16.8688 15 15.6903 15 13.3333 15H6.6667C4.3096 15 3.1311 15 2.3989 14.2678 1.6667 13.5355 1.6667 12.357 1.6667 10V5.7989C1.6667 4.2738 1.6667 3.5112 1.9882 2.9401 2.2125 2.5418 2.5418 2.2125 2.9401 1.9882 3.5112 1.6667 4.2738 1.6667 5.7989 1.6667 6.6164 1.6667 7.0251 1.6667 7.3962 1.7852 7.6578 1.8688 7.9038 1.9949 8.1243 2.1584 8.4373 2.3904 8.676 2.7222 9.1534 3.3858L10.0149 4.5833Z" stroke="currentColor" stroke-linecap="round" stroke-linejoin="round" stroke-width="2"/>
</svg>
