<svg xmlns="http://www.w3.org/2000/svg" width="20" height="20" viewBox="0 0 20 20" fill="none">
  <path d="M6.6667 5.8343H13.9583C15.7139 5.8343 16.5918 5.8343 17.2222 6.2557 17.4952 6.4382 17.7297 6.6726 17.912 6.9457 18.3163 7.551 18.3327 8.384 18.3333 10.0022V10.8358M10 5.8343L9.4722 4.7783C9.0348 3.9034 8.6352 3.0228 7.6661 2.6592 7.2416 2.5 6.7567 2.5 5.7869 2.5 4.2732 2.5 3.5163 2.5 2.9484 2.817 2.5436 3.043 2.2095 3.3771 1.9836 3.7821 1.6667 4.3502 1.6667 5.1073 1.6667 6.6214V9.1686C1.6667 13.0981 1.6667 15.0628 2.8871 16.2836 3.9211 17.3179 5.4891 17.4759 8.3333 17.5" stroke="currentColor" stroke-linecap="round" stroke-width="2"/>
  <path d="M10.8333 15.5556C10.8333 16.6294 11.6728 17.5 12.7083 17.5H16.6458C17.5778 17.5 18.3333 16.7165 18.3333 15.75 18.3333 14.7835 17.5694 14 16.6374 14 16.7414 12.8036 15.8166 11.6667 14.5833 11.6667 13.5046 11.6667 12.6193 12.5256 12.5285 13.6199 11.5773 13.7138 10.8333 14.5446 10.8333 15.5556Z" stroke="currentColor" stroke-linecap="round" stroke-linejoin="round" stroke-width="2"/>
</svg>
