<svg xmlns="http://www.w3.org/2000/svg" width="20" height="20" viewBox="0 0 20 20" fill="none">
  <path d="M10.8329 17.5H9.9996C6.0712 17.5 4.107 17.5 2.8866 16.2796 1.6663 15.0593 1.6663 13.095 1.6663 9.1667V6.6202C1.6663 5.1065 1.6663 4.3496 1.9832 3.7817 2.2091 3.3769 2.5432 3.0429 2.948 2.8169 3.5159 2.5 4.2728 2.5 5.7865 2.5 6.7563 2.5 7.2412 2.5 7.6656 2.6592 8.6348 3.0226 9.0344 3.903 9.4718 4.7776L9.9996 5.8333M6.6663 5.8333H13.9579C15.7135 5.8333 16.5913 5.8333 17.2218 6.2547 17.4948 6.4371 17.7292 6.6714 17.9116 6.9444 18.3159 7.5495 18.3323 8.3823 18.3329 10" stroke="currentColor" stroke-linecap="round" stroke-width="2"/>
  <path d="M16.1638 15.6205C16.1638 16.6571 15.3436 17.4974 14.3317 17.4974 13.3198 17.4974 12.4996 16.6571 12.4996 15.6205 12.4996 14.5839 13.3198 13.7436 14.3317 13.7436 15.3436 13.7436 16.1638 14.5839 16.1638 15.6205ZM16.1638 15.6205V10.8333C16.1638 10.8333 17.253 13.0832 18.3337 13.0832" stroke="currentColor" stroke-linecap="round" stroke-linejoin="round" stroke-width="2"/>
</svg>
