<svg xmlns="http://www.w3.org/2000/svg" width="20" height="20" viewBox="0 0 20 20" fill="none">
  <path d="M13.5522 8.75H6.4477C4.2964 8.75 3.2208 8.75 2.7262 9.4605 2.2316 10.171 2.5992 11.1882 3.3344 13.2225L4.2379 15.7225C4.6212 16.7832 4.8129 17.3136 5.2408 17.6151 5.6686 17.9167 6.2295 17.9167 7.3512 17.9167H12.6488C13.7705 17.9167 14.3313 17.9167 14.7592 17.6151 15.1871 17.3136 15.3788 16.7832 15.7622 15.7225L16.6656 13.2225C17.4008 11.1882 17.7684 10.171 17.2738 9.4605 16.7793 8.75 15.7036 8.75 13.5522 8.75Z" stroke="currentColor" stroke-linecap="square" stroke-width="2"/>
  <path d="M15.8333 6.6667C15.8333 6.2784 15.8333 6.0842 15.7699 5.9311 15.6853 5.7269 15.5231 5.5647 15.3189 5.4801 15.1657 5.4167 14.9716 5.4167 14.5833 5.4167H5.4167C5.0284 5.4167 4.8342 5.4167 4.6811 5.4801 4.4769 5.5647 4.3147 5.7269 4.2301 5.9311 4.1667 6.0842 4.1667 6.2784 4.1667 6.6667" stroke="currentColor" stroke-linecap="round" stroke-linejoin="round" stroke-width="2"/>
  <path d="M13.75 3.3333C13.75 2.9451 13.75 2.7509 13.6866 2.5978 13.602 2.3936 13.4398 2.2313 13.2356 2.1468 13.0824 2.0833 12.8882 2.0833 12.5 2.0833H7.5C7.1117 2.0833 6.9176 2.0833 6.7644 2.1468 6.5602 2.2313 6.398 2.3936 6.3134 2.5978 6.25 2.7509 6.25 2.9451 6.25 3.3333" stroke="currentColor" stroke-linecap="round" stroke-linejoin="round" stroke-width="2"/>
</svg>
