<svg xmlns="http://www.w3.org/2000/svg" width="20" height="20" viewBox="0 0 20 20" fill="none">
  <path d="M1.9672 12.649C1.6542 11.0797 1.4977 10.295 1.9424 9.7632 1.972 9.7278 2.0034 9.6936 2.0363 9.6606 2.5307 9.1667 3.4056 9.1667 5.1554 9.1667H14.8446C16.5944 9.1667 17.4693 9.1667 17.9637 9.6606 17.9966 9.6936 18.028 9.7278 18.0577 9.7632 18.5023 10.295 18.3458 11.0797 18.0328 12.649 17.5828 14.9054 17.3577 16.0337 16.5091 16.7267 16.4512 16.774 16.3915 16.8194 16.3301 16.8628 15.4303 17.5 14.1723 17.5 11.6563 17.5H8.3437C5.8277 17.5 4.5697 17.5 3.6699 16.8628 3.6085 16.8194 3.5488 16.774 3.491 16.7267 2.6423 16.0337 2.4173 14.9054 1.9672 12.649Z" stroke="currentColor" stroke-width="2"/>
  <path d="M3.3333 9.1667V4.5833C3.3333 3.4327 4.2661 2.5 5.4167 2.5H7.4414C7.9986 2.5 8.519 2.7785 8.8281 3.2422L10 5M10 5H7.0833M10 5H14.5833C15.7339 5 16.6667 5.9327 16.6667 7.0833V9.1667" stroke="currentColor" stroke-linecap="round" stroke-linejoin="round" stroke-width="2"/>
</svg>
