<svg xmlns="http://www.w3.org/2000/svg" width="20" height="20" viewBox="0 0 20 20" fill="none">
  <path d="M1.6667 10L3.3333 10" stroke="currentColor" stroke-linecap="round" stroke-linejoin="round" stroke-width="2"/>
  <path d="M6.6667 10L8.3333 10" stroke="currentColor" stroke-linecap="round" stroke-linejoin="round" stroke-width="2"/>
  <path d="M11.6667 10L13.3333 10" stroke="currentColor" stroke-linecap="round" stroke-linejoin="round" stroke-width="2"/>
  <path d="M16.6667 10L18.3333 10" stroke="currentColor" stroke-linecap="round" stroke-linejoin="round" stroke-width="2"/>
  <path d="M10.625 14.1667C10.625 13.8215 10.3452 13.5417 10 13.5417 9.6548 13.5417 9.375 13.8215 9.375 14.1667H10 10.625ZM9.375 18.3333C9.375 18.6785 9.6548 18.9583 10 18.9583 10.3452 18.9583 10.625 18.6785 10.625 18.3333H10 9.375ZM10 13.3333L10 12.7083 10 13.3333ZM11.9968 16.2039C12.2014 16.4819 12.5927 16.5413 12.8707 16.3366 13.1486 16.1318 13.2079 15.7406 13.0032 15.4627L12.5 15.8333 11.9968 16.2039ZM6.9968 15.4627C6.7921 15.7407 6.8514 16.1319 7.1294 16.3366 7.4073 16.5413 7.7986 16.4819 8.0032 16.204L7.5 15.8333 6.9968 15.4627ZM10 14.1667H9.375L9.375 18.3333H10 10.625L10.625 14.1667H10ZM10 13.3333L10 13.9583C9.9083 13.9583 9.8883 13.9244 9.9738 13.976 10.0423 14.0172 10.1366 14.0879 10.2547 14.1923 10.4896 14.3998 10.7606 14.6884 11.0251 14.9931 11.2869 15.2947 11.5305 15.5981 11.7093 15.8272 11.7984 15.9414 11.8709 16.0365 11.9208 16.1026 11.9458 16.1357 11.9652 16.1614 11.978 16.1788 11.9845 16.1873 11.9893 16.1939 11.9925 16.1982 11.9941 16.2003 11.9952 16.2018 11.9959 16.2028 11.9962 16.2033 11.9965 16.2037 11.9967 16.2038 11.9968 16.2039 11.9968 16.204 11.9968 16.204 11.9968 16.204 11.9968 16.204 11.9968 16.204 11.9968 16.204 11.9968 16.2039 12.5 15.8333 13.0032 15.4627 13.0032 15.4627 13.0032 15.4626 13.0032 15.4625 13.0031 15.4625 13.003 15.4624 13.0029 15.4623 13.0028 15.4621 13.0027 15.4619 13.0023 15.4615 13.0019 15.4609 13.0014 15.4602 13.0003 15.4588 12.9988 15.4568 12.9969 15.4541 12.9931 15.4489 12.9875 15.4414 12.9803 15.4318 12.9659 15.4124 12.945 15.3845 12.9183 15.3492 12.865 15.2786 12.7885 15.1783 12.6948 15.0582 12.5077 14.8186 12.2498 14.497 11.969 14.1736 11.6908 13.8532 11.3781 13.5168 11.0823 13.2556 10.9352 13.1256 10.7777 13.001 10.6193 12.9055 10.478 12.8203 10.2564 12.7083 10 12.7083L10 13.3333ZM7.5 15.8333C8.0032 16.204 8.0032 16.204 8.0032 16.204 8.0032 16.204 8.0032 16.204 8.0032 16.204 8.0032 16.204 8.0033 16.2039 8.0033 16.2038 8.0035 16.2037 8.0037 16.2033 8.0041 16.2028 8.0048 16.2018 8.006 16.2003 8.0075 16.1982 8.0107 16.1939 8.0155 16.1874 8.022 16.1788 8.0349 16.1614 8.0542 16.1357 8.0791 16.1026 8.1291 16.0365 8.2016 15.9415 8.2907 15.8272 8.4695 15.5981 8.713 15.2947 8.9749 14.9931 9.2394 14.6884 9.5104 14.3998 9.7453 14.1923 9.8634 14.0879 9.9577 14.0172 10.0261 13.976 10.1116 13.9244 10.0917 13.9583 10 13.9583L10 13.3333 10 12.7083C9.7436 12.7083 9.522 12.8203 9.3808 12.9055 9.2223 13.001 9.0648 13.1256 8.9176 13.2556 8.6219 13.5168 8.3091 13.8532 8.031 14.1736 7.7502 14.497 7.4923 14.8186 7.3053 15.0582 7.2115 15.1783 7.135 15.2786 7.0817 15.3493 7.055 15.3845 7.0341 15.4125 7.0197 15.4318 7.0125 15.4414 7.0069 15.4489 7.0031 15.4542 7.0011 15.4568 6.9997 15.4588 6.9986 15.4603 6.9981 15.4609 6.9976 15.4615 6.9973 15.4619 6.9972 15.4621 6.9971 15.4623 6.997 15.4624 6.9969 15.4625 6.9969 15.4626 6.9968 15.4626 6.9968 15.4627 6.9968 15.4627 7.5 15.8333Z" fill="currentColor"/>
  <path d="M9.375 5.8333C9.375 6.1785 9.6548 6.4583 10 6.4583 10.3452 6.4583 10.625 6.1785 10.625 5.8333H10 9.375ZM10.625 1.6667C10.625 1.3215 10.3452 1.0417 10 1.0417 9.6548 1.0417 9.375 1.3215 9.375 1.6667L10 1.6667 10.625 1.6667ZM10 6.6667L10 7.2917 10 6.6667ZM13.0032 4.5373C13.2079 4.2594 13.1486 3.8681 12.8707 3.6634 12.5927 3.4588 12.2014 3.5181 11.9968 3.796L12.5 4.1667 13.0032 4.5373ZM8.0032 3.796C7.7986 3.5181 7.4073 3.4587 7.1294 3.6634 6.8514 3.8681 6.7921 4.2594 6.9968 4.5373L7.5 4.1667 8.0032 3.796ZM10 5.8333H10.625L10.625 1.6667 10 1.6667 9.375 1.6667 9.375 5.8333H10ZM10 6.6667L10 7.2917C10.2564 7.2917 10.478 7.1797 10.6193 7.0945 10.7777 6.999 10.9352 6.8744 11.0823 6.7444 11.3781 6.4832 11.6908 6.1467 11.969 5.8264 12.2498 5.503 12.5077 5.1814 12.6948 4.9418 12.7885 4.8217 12.865 4.7214 12.9183 4.6508 12.945 4.6155 12.9659 4.5876 12.9803 4.5683 12.9875 4.5586 12.9931 4.5511 12.9969 4.5459 12.9988 4.5433 13.0003 4.5412 13.0014 4.5398 13.0019 4.5391 13.0023 4.5385 13.0027 4.5381 13.0028 4.5379 13.0029 4.5377 13.003 4.5376 13.0031 4.5375 13.0032 4.5375 13.0032 4.5374 13.0032 4.5374 13.0032 4.5373 12.5 4.1667 11.9968 3.796 11.9968 3.796 11.9968 3.796 11.9968 3.796 11.9968 3.796 11.9968 3.796 11.9968 3.796 11.9968 3.7961 11.9967 3.7962 11.9965 3.7964 11.9962 3.7967 11.9959 3.7972 11.9952 3.7982 11.9941 3.7997 11.9925 3.8018 11.9893 3.8061 11.9845 3.8126 11.978 3.8213 11.9652 3.8386 11.9458 3.8644 11.9208 3.8974 11.8709 3.9635 11.7984 4.0586 11.7093 4.1728 11.5305 4.4019 11.2869 4.7053 11.0251 5.0069 10.7606 5.3116 10.4896 5.6002 10.2547 5.8077 10.1366 5.9121 10.0423 5.9828 9.9738 6.024 9.8883 6.0755 9.9083 6.0417 10 6.0417L10 6.6667ZM7.5 4.1667C6.9968 4.5373 6.9968 4.5373 6.9968 4.5374 6.9969 4.5374 6.9969 4.5375 6.997 4.5376 6.9971 4.5377 6.9972 4.5379 6.9973 4.5381 6.9976 4.5385 6.9981 4.5391 6.9986 4.5398 6.9997 4.5412 7.0011 4.5433 7.0031 4.5459 7.0069 4.5511 7.0125 4.5586 7.0197 4.5682 7.0341 4.5875 7.055 4.6155 7.0817 4.6508 7.135 4.7214 7.2115 4.8217 7.3053 4.9418 7.4923 5.1814 7.7502 5.503 8.031 5.8264 8.3091 6.1467 8.6219 6.4832 8.9176 6.7444 9.0648 6.8744 9.2223 6.999 9.3808 7.0945 9.522 7.1797 9.7436 7.2917 10 7.2917L10 6.6667 10 6.0417C10.0917 6.0417 10.1117 6.0755 10.0261 6.024 9.9577 5.9828 9.8634 5.9121 9.7453 5.8077 9.5104 5.6002 9.2394 5.3116 8.9749 5.0069 8.713 4.7053 8.4695 4.4019 8.2907 4.1728 8.2016 4.0585 8.1291 3.9635 8.0791 3.8974 8.0542 3.8644 8.0349 3.8386 8.022 3.8213 8.0155 3.8126 8.0107 3.8061 8.0075 3.8018 8.006 3.7997 8.0048 3.7981 8.0041 3.7972 8.0037 3.7967 8.0035 3.7963 8.0033 3.7962 8.0033 3.7961 8.0032 3.796 8.0032 3.796 8.0032 3.796 8.0032 3.796 8.0032 3.796 8.0032 3.796 8.0032 3.796 7.5 4.1667Z" fill="currentColor"/>
</svg>
