<svg xmlns="http://www.w3.org/2000/svg" width="20" height="20" viewBox="0 0 20 20" fill="none">
  <path d="M10.0023 17.5C6.0728 17.5 4.1081 17.5 2.8874 16.2796 1.6667 15.0593 1.6667 13.095 1.6667 9.1667V6.6202C1.6667 5.1065 1.6667 4.3496 1.9837 3.7817 2.2097 3.3769 2.5438 3.0429 2.9487 2.8169 3.5168 2.5 4.2739 2.5 5.788 2.5 6.7581 2.5 7.2431 2.5 7.6677 2.6592 8.6371 3.0226 9.0368 3.903 9.4742 4.7776L10.0023 5.8333M6.668 5.8333H13.9617C15.7178 5.8333 16.5957 5.8333 17.2265 6.2547 17.4996 6.4371 17.734 6.6714 17.9164 6.9444 18.2447 7.4357 18.3173 8.077 18.3333 9.1667" stroke="currentColor" stroke-linecap="round" stroke-width="2"/>
  <path d="M17.155 11.1092C15.6582 10.3163 14.5833 11.4851 14.5833 11.4851 14.5833 11.4851 13.5085 10.3163 12.0116 11.1092 10.1986 12.0695 10.0684 15.8303 14.5833 17.5 19.0983 15.8303 18.968 12.0695 17.155 11.1092Z" stroke="currentColor" stroke-linecap="round" stroke-linejoin="round" stroke-width="2"/>
</svg>
