<svg xmlns="http://www.w3.org/2000/svg" width="20" height="20" viewBox="0 0 20 20" fill="none">
  <path d="M12.5203 17.5H10.0185C6.0814 17.5 4.1129 17.5 2.8898 16.2796 1.6667 15.0593 1.6667 13.095 1.6667 9.1667V6.6202C1.6667 5.1065 1.6667 4.3496 1.9843 3.7817 2.2107 3.3769 2.5455 3.0429 2.9512 2.8169 3.5204 2.5 4.279 2.5 5.796 2.5 6.768 2.5 7.254 2.5 7.6794 2.6592 8.6507 3.0226 9.0512 3.903 9.4895 4.7776L10.0185 5.8333M6.6778 5.8333H13.9856C15.7451 5.8333 16.6248 5.8333 17.2568 6.2547 17.5303 6.4371 17.7653 6.6714 17.9481 6.9444 18.1827 7.2949 18.287 7.7218 18.3333 8.3333" stroke="currentColor" stroke-linecap="round" stroke-width="2"/>
  <path d="M13.3301 11.6667C13.3301 10.5161 14.2633 9.5833 15.4144 9.5833 16.5655 9.5833 17.4987 10.5161 17.4987 11.6667 17.4987 12.3809 17.139 13.0113 16.5909 13.3866 16.0216 13.7764 15.4154 14.31 15.4167 15M15.5208 17.2917H15.4167M15.625 17.2917C15.625 17.4068 15.5318 17.5 15.4167 17.5 15.3016 17.5 15.2083 17.4068 15.2083 17.2917 15.2083 17.1766 15.3016 17.0833 15.4167 17.0833 15.5318 17.0833 15.625 17.1766 15.625 17.2917Z" stroke="currentColor" stroke-linecap="round" stroke-linejoin="round" stroke-width="2"/>
</svg>
