<svg xmlns="http://www.w3.org/2000/svg" width="20" height="20" viewBox="0 0 20 20" fill="none">
  <path d="M6.6667 5.8333H13.9583C15.7139 5.8333 16.5917 5.8333 17.2222 6.2547 17.4952 6.4371 17.7296 6.6714 17.912 6.9444 18.3163 7.5495 18.3327 8.3823 18.3333 10M1.6667 17.5V6.6202C1.6667 5.1065 1.6667 4.3496 1.9836 3.7817 2.2095 3.3769 2.5436 3.0429 2.9484 2.8169 3.5163 2.5 4.2732 2.5 5.7869 2.5 6.7567 2.5 7.2416 2.5 7.6661 2.6592 8.6352 3.0226 9.0348 3.903 9.4722 4.7776L10 5.8333" stroke="currentColor" stroke-linecap="round" stroke-width="2"/>
  <path d="M18.3333 12.5H12.5M18.3333 15H12.5M14.5833 17.5H12.5" stroke="currentColor" stroke-linecap="round" stroke-linejoin="round" stroke-width="2"/>
  <path d="M8.9225 16.6667C8.9225 16.6667 9.4718 13.2935 8.9225 12.7442 8.3732 12.1948 5 12.7442 5 12.7442M4.1667 17.5L8.3333 13.3333" stroke="currentColor" stroke-linecap="round" stroke-linejoin="round" stroke-width="2"/>
</svg>
