<svg xmlns="http://www.w3.org/2000/svg" width="20" height="20" viewBox="0 0 20 20" fill="none">
  <path d="M10 17.0833C6.0716 17.0833 4.1074 17.0833 2.8871 15.8629 1.6667 14.6426 1.6667 12.6783 1.6667 8.75V6.2036C1.6667 4.6898 1.6667 3.933 1.9836 3.3651 2.2095 2.9602 2.5436 2.6262 2.9484 2.4003 3.5163 2.0833 4.2732 2.0833 5.7869 2.0833 6.7567 2.0833 7.2416 2.0833 7.6661 2.2425 8.6352 2.6059 9.0348 3.4863 9.4722 4.3609L10 5.4167M6.6667 5.4167H13.9583C15.7139 5.4167 16.5917 5.4167 17.2222 5.838 17.4952 6.0204 17.7296 6.2548 17.912 6.5277 18.3163 7.1328 18.3327 7.9656 18.3333 9.5833" stroke="currentColor" stroke-linecap="round" stroke-linejoin="round" stroke-width="2"/>
  <path d="M14.4703 17.734C13.5298 17.0101 11.6667 15.3551 11.6667 13.8658 11.6667 12.8813 12.3684 12.0833 13.3333 12.0833 13.8333 12.0833 14.3333 12.2549 15 12.9412 15.6667 12.2549 16.1667 12.0833 16.6667 12.0833 17.6316 12.0833 18.3333 12.8813 18.3333 13.8658 18.3333 15.3551 16.4702 17.0101 15.5297 17.734 15.2133 17.9776 14.7867 17.9776 14.4703 17.734Z" stroke="currentColor" stroke-linecap="round" stroke-linejoin="round" stroke-width="2"/>
</svg>
