<svg xmlns="http://www.w3.org/2000/svg" width="20" height="20" viewBox="0 0 20 20" fill="none">
  <path d="M1.6667 15.8333V6.2908C1.6667 5.0876 1.6667 4.486 1.8694 4.0137 2.1223 3.4249 2.5915 2.9556 3.1804 2.7028 3.6527 2.5 4.2484 2.5 5.4575 2.5H5.8693C6.3735 2.5 6.8506 2.7283 7.167 3.1209L8.6813 5M8.6813 5H13.3333C14.5001 5 15.0835 5 15.5292 5.2271 15.9212 5.4268 16.2398 5.7455 16.4396 6.1375 16.6667 6.5832 16.6667 7.1666 16.6667 8.3333V9.1667M8.6813 5H5.8333" stroke="currentColor" stroke-linecap="round" stroke-linejoin="round" stroke-width="2"/>
  <path d="M2.6317 12.9287L2.8804 12.3097C3.4919 10.7874 3.7977 10.0263 4.4353 9.5965 5.073 9.1667 5.8963 9.1667 7.543 9.1667H14.2599C16.5003 9.1667 17.6205 9.1667 18.1185 9.8989 18.6164 10.6313 18.2004 11.6668 17.3683 13.738L17.1197 14.3569C16.5081 15.8793 16.2023 16.6403 15.5647 17.0702 14.927 17.5 14.1037 17.5 12.457 17.5H5.7401C3.4997 17.5 2.3795 17.5 1.8815 16.7678 1.3836 16.0354 1.7996 14.9998 2.6317 12.9287Z" stroke="currentColor" stroke-linejoin="round" stroke-width="2"/>
</svg>
