<svg xmlns="http://www.w3.org/2000/svg" width="20" height="20" viewBox="0 0 20 20" fill="none">
  <path d="M6.668 5.8334H13.9617C15.7178 5.8334 16.5957 5.8334 17.2265 6.2548 17.4996 6.4372 17.734 6.6716 17.9164 6.9446 18.2447 7.4358 18.3173 8.0772 18.3333 9.1669M10.0023 5.8334L9.4742 4.7777C9.0368 3.903 8.6371 3.0226 7.6677 2.6592 7.2431 2.5 6.7581 2.5 5.788 2.5 4.2739 2.5 3.5168 2.5 2.9487 2.8169 2.5438 3.0429 2.2097 3.3769 1.9837 3.7818 1.6667 4.3497 1.6667 5.1066 1.6667 6.6204V9.1669C1.6667 13.0954 1.6667 15.0597 2.8874 16.2801 4.0186 17.4109 5.7886 17.4939 9.1687 17.5" stroke="currentColor" stroke-linecap="round" stroke-width="2"/>
  <path d="M11.6667 16.5223V17.5H12.6445C12.9856 17.5 13.1562 17.5 13.3096 17.4365 13.4629 17.3729 13.5836 17.2523 13.8248 17.0112L17.8444 12.9912C18.072 12.7637 18.1858 12.6499 18.2466 12.5273 18.3623 12.2937 18.3623 12.0197 18.2466 11.7862 18.1858 11.6634 18.072 11.5497 17.8444 11.3222 17.6169 11.0947 17.5032 10.9809 17.3804 10.9201 17.1469 10.8044 16.8727 10.8044 16.6393 10.9201 16.5165 10.9809 16.4028 11.0947 16.1753 11.3222L16.1753 11.3222 12.1556 15.3422C11.9143 15.5833 11.7938 15.7039 11.7302 15.8573 11.6667 16.0107 11.6667 16.1812 11.6667 16.5223Z" stroke="currentColor" stroke-linejoin="round" stroke-width="2"/>
</svg>
