<svg xmlns="http://www.w3.org/2000/svg" width="20" height="20" viewBox="0 0 20 20" fill="none">
  <path d="M12.9167 2.9164C16.4167 2.9164 17.9167 4.9164 17.9167 7.9164L16.25 7.0831" stroke="currentColor" stroke-linecap="round" stroke-linejoin="round" stroke-width="2"/>
  <path d="M7.0833 17.0831C3.5833 17.0831 2.0833 15.0831 2.0833 12.0831L3.75 12.9164" stroke="currentColor" stroke-linecap="round" stroke-linejoin="round" stroke-width="2"/>
  <path d="M6.2496 3.76L5.9843 3.225C5.7686 2.79 5.6607 2.5725 5.495 2.4177 5.3748 2.3054 5.2337 2.218 5.0797 2.1603 4.8673 2.0808 4.6245 2.0811 4.1389 2.0816 3.3851 2.0823 3.0082 2.0827 2.7252 2.2402 2.5216 2.3536 2.3538 2.5216 2.2406 2.7253 2.0833 3.0084 2.0833 3.3853 2.0833 4.1391V6.2502C2.0833 7.8216 2.0833 8.6073 2.5715 9.0954 3.0596 9.5836 3.8453 9.5836 5.4167 9.5836H7.5031C8.6702 9.5836 9.2538 9.5836 9.6734 9.3042 9.8571 9.1818 10.0147 9.0243 10.1369 8.8406 10.4163 8.421 10.4163 7.8374 10.4163 6.6703 10.4163 5.5007 10.4163 4.9159 10.1362 4.4959 10.0135 4.312 9.8555 4.1544 9.6713 4.0322 9.2507 3.753 8.6658 3.7543 7.4963 3.7571L6.2496 3.76Z" stroke="currentColor" stroke-linecap="round" stroke-linejoin="round" stroke-width="2"/>
  <path d="M13.7501 12.0949L14.0153 11.5599C14.2311 11.1249 14.3389 10.9074 14.5047 10.7526 14.6248 10.6403 14.766 10.5528 14.92 10.4953 15.1324 10.4158 15.3752 10.416 15.8608 10.4164 16.6146 10.4172 16.9915 10.4176 17.2745 10.5751 17.478 10.6885 17.6459 10.8565 17.759 11.0602 17.9163 11.3433 17.9163 11.7203 17.9163 12.474V14.5851C17.9163 16.1565 17.9163 16.9422 17.4282 17.4303 16.94 17.9184 16.1543 17.9184 14.583 17.9184H12.4966C11.3294 17.9184 10.7459 17.9184 10.3263 17.6391 10.1426 17.5168 9.985 17.3592 9.8628 17.1755 9.5833 16.7559 9.5833 16.1723 9.5833 15.0052 9.5833 13.8356 9.5833 13.2508 9.8635 12.8308 9.9862 12.6469 10.1442 12.4893 10.3283 12.3671 10.749 12.0878 11.3338 12.0892 12.5034 12.0919L13.7501 12.0949Z" stroke="currentColor" stroke-linecap="round" stroke-linejoin="round" stroke-width="2"/>
</svg>
