<svg xmlns="http://www.w3.org/2000/svg" width="20" height="20" viewBox="0 0 20 20" fill="none">
  <path d="M6.6667 5.8333H13.9583C15.7139 5.8333 16.5917 5.8333 17.2222 6.2547 17.4952 6.4371 17.7296 6.6714 17.912 6.9444 18.3333 7.575 18.3333 8.4527 18.3333 10.2083 18.3333 13.1343 18.3333 14.5973 17.6311 15.6482 17.3272 16.1032 16.9365 16.4938 16.4816 16.7978 15.4306 17.5 13.9677 17.5 11.0417 17.5H10C9.4001 17.5 8.846 17.5 8.3333 17.4957M10 5.8333L9.4722 4.7776C9.0348 3.903 8.6352 3.0226 7.6661 2.6592 7.2416 2.5 6.7567 2.5 5.7869 2.5 4.2732 2.5 3.5163 2.5 2.9484 2.8169 2.5436 3.0429 2.2095 3.3769 1.9836 3.7817 1.6667 4.3496 1.6667 5.1065 1.6667 6.6202V9.1667C1.6667 9.7666 1.6667 10.3207 1.671 10.8333" stroke="currentColor" stroke-linecap="round" stroke-linejoin="round" stroke-width="2"/>
  <path d="M1.6667 17.0833V16.3843C1.6667 15.879 1.8673 15.3946 2.2246 15.0373L6.0918 11.1701C6.3075 10.9544 6.5999 10.8333 6.9048 10.8333 7.2097 10.8333 7.5021 10.9544 7.7177 11.1701L7.9966 11.449C8.2122 11.6646 8.3333 11.957 8.3333 12.2619 8.3333 12.5668 8.2122 12.8593 7.9966 13.0748L4.1293 16.9421C3.7721 17.2993 3.2876 17.5 2.7825 17.5H2.0833C1.8532 17.5 1.6667 17.3134 1.6667 17.0833Z" stroke="currentColor" stroke-linecap="round" stroke-linejoin="round" stroke-width="2"/>
</svg>
