<svg xmlns="http://www.w3.org/2000/svg" width="20" height="20" viewBox="0 0 20 20" fill="none">
  <path d="M6.668 5.4168H13.9617C15.7178 5.4168 16.5957 5.4168 17.2265 5.8381 17.4996 6.0205 17.734 6.2549 17.9164 6.5279 18.2447 7.0192 18.3173 7.6605 18.3333 8.7502M10.0023 5.4168L9.4742 4.361C9.0368 3.4864 8.6371 2.6059 7.6677 2.2425 7.2431 2.0833 6.7581 2.0833 5.788 2.0833 4.2739 2.0833 3.5168 2.0833 2.9487 2.4003 2.5438 2.6262 2.2097 2.9602 1.9837 3.3651 1.6667 3.933 1.6667 4.6899 1.6667 6.2037V8.7502C1.6667 12.6787 1.6667 14.643 2.8874 15.8634 4.0186 16.9943 5.7886 17.0772 9.1687 17.0833" stroke="currentColor" stroke-linecap="round" stroke-linejoin="round" stroke-width="2"/>
  <path d="M17.8874 12.5C17.3111 11.5037 16.2338 10.8333 15 10.8333 13.7272 10.8333 12.6209 11.5467 12.0594 12.5956M12.1126 15.8333C12.6889 16.8297 13.7662 17.5 15 17.5 16.2689 17.5 17.3723 16.791 17.9353 15.7475M14.1667 12.9167H13.3333C12.5477 12.9167 12.1548 12.9167 11.9108 12.6726 11.6667 12.4285 11.6667 12.0357 11.6667 11.25V10.4167M15.8333 15.4167H16.6667C17.4523 15.4167 17.8452 15.4167 18.0892 15.6608 18.3333 15.9048 18.3333 16.2977 18.3333 17.0833V17.9167" stroke="currentColor" stroke-linecap="round" stroke-linejoin="round" stroke-width="2"/>
</svg>
