<svg xmlns="http://www.w3.org/2000/svg" width="20" height="20" viewBox="0 0 20 20" fill="none">
  <path d="M10.8333 17.5H10C6.0716 17.5 4.1074 17.5 2.8871 16.2796 1.6667 15.0593 1.6667 13.095 1.6667 9.1667V6.6202C1.6667 5.1065 1.6667 4.3496 1.9836 3.7817 2.2095 3.3769 2.5436 3.0429 2.9484 2.8169 3.5163 2.5 4.2732 2.5 5.7869 2.5 6.7567 2.5 7.2416 2.5 7.6661 2.6592 8.6352 3.0226 9.0348 3.903 9.4722 4.7776L10 5.8333M6.6667 5.8333H13.9583C15.7139 5.8333 16.5917 5.8333 17.2222 6.2547 17.4952 6.4371 17.7296 6.6714 17.912 6.9444 18.3163 7.5495 18.3327 8.3823 18.3333 10" stroke="currentColor" stroke-linecap="round" stroke-width="2"/>
  <path d="M17.4791 16.6458C18.0068 16.1179 18.3333 15.3887 18.3333 14.5833 18.3333 12.9725 17.0275 11.6667 15.4167 11.6667 14.6113 11.6667 13.8821 11.9932 13.3542 12.5209M17.4791 16.6458C16.9513 17.1735 16.2221 17.5 15.4167 17.5 13.8058 17.5 12.5 16.1942 12.5 14.5833 12.5 13.7779 12.8265 13.0488 13.3542 12.5209M17.4791 16.6458L13.3542 12.5209" stroke="currentColor" stroke-width="2"/>
</svg>
