<svg xmlns="http://www.w3.org/2000/svg" width="20" height="20" viewBox="0 0 20 20" fill="none">
  <path d="M11.687 17.5H10.0185C6.0814 17.5 4.1129 17.5 2.8898 16.2796 1.6667 15.0593 1.6667 13.095 1.6667 9.1667V6.6202C1.6667 5.1065 1.6667 4.3496 1.9843 3.7817 2.2107 3.3769 2.5455 3.0429 2.9512 2.8169 3.5204 2.5 4.279 2.5 5.796 2.5 6.768 2.5 7.254 2.5 7.6794 2.6592 8.6507 3.0226 9.0512 3.903 9.4895 4.7776L10.0185 5.8333M6.6778 5.8333H13.9856C15.7451 5.8333 16.6248 5.8333 17.2568 6.2547 17.5303 6.4371 17.7653 6.6714 17.9481 6.9444 18.1827 7.2949 18.287 7.7218 18.3333 8.3333" stroke="currentColor" stroke-linecap="round" stroke-width="2"/>
  <path d="M15.8333 15H14.6462C13.8927 15 13.516 15 13.3778 14.7886 13.2396 14.5772 13.4334 14.2975 13.8211 13.7379L14.1987 13.1929C14.2933 13.0564 14.3405 12.9882 14.3558 12.9115 14.3712 12.8349 14.3532 12.7569 14.3171 12.6008L14.1391 11.8301C14.0326 11.3689 13.9794 11.1383 14.1237 10.9858 14.2681 10.8333 14.5396 10.8333 15.0827 10.8333H16.584C17.1271 10.8333 17.3986 10.8333 17.5429 10.9858 17.6873 11.1383 17.6341 11.3689 17.5276 11.8301L17.3496 12.6008C17.3135 12.7569 17.2955 12.8349 17.3108 12.9115 17.3262 12.9882 17.3734 13.0564 17.468 13.1929L17.8456 13.7379C18.2333 14.2975 18.4271 14.5772 18.2888 14.7886 18.1507 15 17.7739 15 17.0205 15H15.8333ZM15.8333 15V17.5" stroke="currentColor" stroke-linecap="round" stroke-linejoin="round" stroke-width="2"/>
</svg>
