<svg xmlns="http://www.w3.org/2000/svg" width="20" height="20" viewBox="0 0 20 20" fill="none">
  <path d="M6.6778 5.4176H13.9856C15.7451 5.4176 16.6248 5.4176 17.2568 5.8391 17.5303 6.0215 17.7653 6.256 17.9481 6.529 18.1827 6.8796 18.287 7.3066 18.3333 7.9184M10.0185 5.4176L9.4895 4.3616C9.0512 3.4867 8.6507 2.6061 7.6794 2.2426 7.254 2.0833 6.768 2.0833 5.796 2.0833 4.279 2.0833 3.5204 2.0833 2.9512 2.4004 2.5455 2.6263 2.2107 2.9605 1.9843 3.3654 1.6667 3.9335 1.6667 4.6906 1.6667 6.2048V8.7519C1.6667 12.6814 1.6667 14.6462 2.8898 15.8669 3.9261 16.9013 5.4976 17.0593 8.3482 17.0833" stroke="currentColor" stroke-linecap="round" stroke-linejoin="round" stroke-width="2"/>
  <path d="M14.5833 15L18.3333 11.25M17.5 12.5L18.3333 13.3333M15 16.25C15 17.1705 14.2538 17.9167 13.3333 17.9167 12.4128 17.9167 11.6667 17.1705 11.6667 16.25 11.6667 15.3295 12.4128 14.5833 13.3333 14.5833 14.2538 14.5833 15 15.3295 15 16.25Z" stroke="currentColor" stroke-linecap="round" stroke-linejoin="round" stroke-width="2"/>
</svg>
