<svg xmlns="http://www.w3.org/2000/svg" width="20" height="20" viewBox="0 0 20 20" fill="none">
  <path d="M12.5 12.4998H10.8333M12.5 12.4998H14.1667M12.5 12.4998V9.1641M12.5 5.8285V9.1641M12.5 9.1641H10.8333M12.5 9.1641H14.1667" stroke="currentColor" stroke-linecap="round" stroke-linejoin="round" stroke-width="2"/>
  <path d="M6.6667 5.8333H12.5M10 5.8333L9.4722 4.7776C9.0348 3.903 8.6352 3.0226 7.6661 2.6592 7.2416 2.5 6.7567 2.5 5.7869 2.5 4.2732 2.5 3.5163 2.5 2.9484 2.8169 2.5436 3.0429 2.2095 3.3769 1.9836 3.7817 1.6667 4.3496 1.6667 5.1065 1.6667 6.6202V9.1667C1.6667 13.095 1.6667 15.0593 2.8871 16.2796 4.1074 17.5 6.0716 17.5 10 17.5H11.0417C13.9677 17.5 15.4306 17.5 16.4816 16.7978 16.9365 16.4938 17.3272 16.1032 17.6311 15.6482 18.3333 14.5973 18.3333 13.1343 18.3333 10.2083 18.3333 8.4527 18.3333 7.575 17.912 6.9444 17.7296 6.6714 17.4952 6.4371 17.2222 6.2547 16.731 5.9264 16.0897 5.8539 15 5.8379" stroke="currentColor" stroke-linecap="round" stroke-width="2"/>
</svg>
