<svg xmlns="http://www.w3.org/2000/svg" width="20" height="20" viewBox="0 0 20 20" fill="none">
  <path d="M18.3333 10C18.3333 14.6023 14.6023 18.3333 10 18.3333 5.3976 18.3333 1.6667 14.6023 1.6667 10 1.6667 5.3976 5.3976 1.6667 10 1.6667 14.6023 1.6667 18.3333 5.3976 18.3333 10Z" stroke="currentColor" stroke-width="2"/>
  <path d="M9.7564 7.7908C9.9017 7.6809 10.0983 7.6809 10.2436 7.7908L12.1208 9.2117C12.2661 9.3216 12.3268 9.5164 12.2713 9.6943L11.5543 11.9934C11.4988 12.1713 11.3398 12.2917 11.1603 12.2917H8.8398C8.6603 12.2917 8.5012 12.1713 8.4457 11.9934L7.7286 9.6943C7.6732 9.5164 7.7339 9.3216 7.8792 9.2117L9.7564 7.7908Z" stroke="currentColor" stroke-width="2"/>
  <path d="M10 7.5V4.1667M12.5 9.1667L15.8333 7.9167M11.6667 12.5L13.3333 15M8.3333 12.0833L6.6667 14.1667M7.5 9.5833L4.1667 8.75" stroke="currentColor" stroke-linecap="round" stroke-linejoin="round" stroke-width="2"/>
  <path d="M7.5 2.0833L10.0138 3.852 12.5 2.0833M1.6667 10.6665L4.3305 8.699 2.9629 5.6004M16.2253 15.7109L13.0132 15.1296 11.8879 18.3333M16.6915 5.1632L15.6696 7.8248 18.3333 9.7923M6.6749 17.8382L6.7095 14.3054 3.3361 14.3417" stroke="currentColor" stroke-linejoin="round" stroke-width="2"/>
</svg>
