<svg xmlns="http://www.w3.org/2000/svg" width="20" height="20" viewBox="0 0 20 20" fill="none">
  <path d="M1.6667 7.1429C1.6667 5.347 1.6667 4.4491 2.1548 3.8912 2.643 3.3333 3.4286 3.3333 5 3.3333H15C16.5713 3.3333 17.357 3.3333 17.8452 3.8912 18.3333 4.4491 18.3333 5.347 18.3333 7.1429V12.8572C18.3333 14.653 18.3333 15.5509 17.8452 16.1088 17.357 16.6667 16.5713 16.6667 15 16.6667H5C3.4286 16.6667 2.643 16.6667 2.1548 16.1088 1.6667 15.5509 1.6667 14.653 1.6667 12.8572V7.1429Z" stroke="currentColor" stroke-linejoin="round" stroke-width="2"/>
  <circle cx="10" cy="10" r="1.6666666666666667" stroke="currentColor" stroke-linejoin="round" stroke-width="2"/>
  <path d="M10 8.3333V4.1667M10 11.6667V15.8333" stroke="currentColor" stroke-linecap="round" stroke-linejoin="round" stroke-width="2"/>
  <path d="M18.3333 7.5H16.25C15.7898 7.5 15.4167 7.8731 15.4167 8.3333V11.6667C15.4167 12.1269 15.7898 12.5 16.25 12.5H18.3333" stroke="currentColor" stroke-linecap="round" stroke-linejoin="round" stroke-width="2"/>
  <path d="M1.6667 7.5H3.75C4.2102 7.5 4.5833 7.8731 4.5833 8.3333V11.6667C4.5833 12.1269 4.2102 12.5 3.75 12.5H1.6667" stroke="currentColor" stroke-linecap="round" stroke-linejoin="round" stroke-width="2"/>
</svg>
