<svg xmlns="http://www.w3.org/2000/svg" width="20" height="20" viewBox="0 0 20 20" fill="none">
  <path d="M12.9167 14.1667H16.6667M14.1827 5C16.256 5 17.5 6.6667 17.5 9.1667 17.5 10.4185 17.2834 11.6268 17.0535 12.526 16.8435 13.3475 16.6968 14.1868 16.6375 15.0328 16.5309 16.5546 16.0809 18.3333 14.1827 18.3333 12.1923 18.3333 12.1093 15.8333 12.9387 13.75 13.4943 11.6667 11.6947 10.3333 11.6947 8.3333 11.5565 7.2222 11.8606 5 14.1827 5Z" stroke="currentColor" stroke-width="2"/>
  <path d="M7.0833 10.8333H3.3333M5.8173 1.6667C3.744 1.6667 2.5 3.3333 2.5 5.8333 2.5 7.0852 2.7166 8.2935 2.9465 9.1927 3.1565 10.0142 3.3032 10.8534 3.3625 11.6995 3.4691 13.2213 3.9191 15 5.8173 15 7.8077 15 7.8906 12.5 7.0613 10.4167 6.5057 8.3333 8.3053 7 8.3053 5 8.4435 3.8889 8.1394 1.6667 5.8173 1.6667Z" stroke="currentColor" stroke-width="2"/>
</svg>
