<svg xmlns="http://www.w3.org/2000/svg" width="20" height="20" viewBox="0 0 20 20" fill="none">
  <path d="M14.1667 7.9913C13.7709 7.7514 13.3151 7.605 12.8292 7.5826 11.653 7.5283 10.4582 7.5 9.1424 7.5 7.8266 7.5 6.6318 7.5283 5.4556 7.5826 4.0578 7.6471 2.9091 8.7375 2.7224 10.1294 2.6005 11.0378 2.5 11.9687 2.5 12.9167 2.5 13.8647 2.6005 14.7956 2.7224 15.7039 2.9091 17.0958 4.0578 18.1863 5.4556 18.2508 6.6318 18.305 7.8266 18.3333 9.1424 18.3333 10.3356 18.3333 11.4294 18.3101 12.5 18.2652" stroke="currentColor" stroke-linecap="round" stroke-linejoin="round" stroke-width="2"/>
  <path d="M5.4167 7.5V5.4167C5.4167 3.3456 7.0956 1.6667 9.1667 1.6667 11.2378 1.6667 12.9167 3.3456 12.9167 5.4167V7.5" stroke="currentColor" stroke-linecap="round" stroke-linejoin="round" stroke-width="2"/>
  <path d="M10.1042 12.9167H10M10.2083 12.9167C10.2083 13.0318 10.1151 13.125 10 13.125 9.8849 13.125 9.7917 13.0318 9.7917 12.9167 9.7917 12.8016 9.8849 12.7083 10 12.7083 10.1151 12.7083 10.2083 12.8016 10.2083 12.9167Z" stroke="currentColor" stroke-linecap="round" stroke-linejoin="round" stroke-width="2"/>
  <path d="M15.9375 18.125H15.8333M16.0417 18.125C16.0417 18.2401 15.9484 18.3333 15.8333 18.3333 15.7182 18.3333 15.625 18.2401 15.625 18.125 15.625 18.0099 15.7182 17.9167 15.8333 17.9167 15.9484 17.9167 16.0417 18.0099 16.0417 18.125Z" stroke="currentColor" stroke-linecap="round" stroke-linejoin="round" stroke-width="2"/>
  <path d="M6.7708 12.9167H6.6667M6.875 12.9167C6.875 13.0318 6.7817 13.125 6.6667 13.125 6.5516 13.125 6.4583 13.0318 6.4583 12.9167 6.4583 12.8016 6.5516 12.7083 6.6667 12.7083 6.7817 12.7083 6.875 12.8016 6.875 12.9167Z" stroke="currentColor" stroke-linecap="round" stroke-linejoin="round" stroke-width="2"/>
  <path d="M14.1667 12.5C14.1667 11.5795 14.9128 10.8333 15.8333 10.8333 16.7538 10.8333 17.5 11.5795 17.5 12.5 17.5 12.9815 17.2958 13.4152 16.9693 13.7195 16.4643 14.1902 15.8333 14.7263 15.8333 15.4167" stroke="currentColor" stroke-linecap="round" stroke-linejoin="round" stroke-width="2"/>
</svg>
