<svg xmlns="http://www.w3.org/2000/svg" width="20" height="20" viewBox="0 0 20 20" fill="none">
  <path d="M15.8333 4.1667L12.9167 7.0833M11.25 5.4167L14.5833 8.75" stroke="currentColor" stroke-linecap="round" stroke-linejoin="round" stroke-width="2"/>
  <path d="M18.3333 5.5727L14.8309 9.0748C14.1543 9.7513 13.2409 10.1381 12.2842 10.153L11.9985 10.1574C11.4958 10.1653 11.0177 10.3773 10.6744 10.7446L3.9765 17.9101C3.4611 18.4614 2.5913 18.4761 2.0576 17.9424 1.5239 17.4088 1.5385 16.5393 2.0898 16.0239L9.255 9.3251C9.6222 8.9817 9.8341 8.5039 9.8419 8.0012L9.8464 7.7155C9.8613 6.7587 10.248 5.8453 10.9247 5.1687L14.427 1.6667" stroke="currentColor" stroke-linecap="round" stroke-linejoin="round" stroke-width="2"/>
</svg>
