<svg xmlns="http://www.w3.org/2000/svg" width="20" height="20" viewBox="0 0 20 20" fill="none">
  <path d="M15 6.6667H5C4.6125 6.6667 4.4188 6.6667 4.2598 6.7093 3.8284 6.8248 3.4915 7.1618 3.3759 7.5931 3.3333 7.7521 3.3333 7.9458 3.3333 8.3333 3.3333 8.7208 3.3333 8.9146 3.3759 9.0735 3.4915 9.5049 3.8284 9.8418 4.2598 9.9574 4.4188 10 4.6125 10 5 10H15C15.3875 10 15.5813 10 15.7402 9.9574 16.1716 9.8418 16.5085 9.5049 16.6241 9.0735 16.6667 8.9146 16.6667 8.7208 16.6667 8.3333 16.6667 7.9458 16.6667 7.7521 16.6241 7.5931 16.5085 7.1618 16.1716 6.8248 15.7402 6.7093 15.5813 6.6667 15.3875 6.6667 15 6.6667Z" stroke="currentColor" stroke-linecap="round" stroke-linejoin="round" stroke-width="2"/>
  <path d="M3.3333 3.3333H11.6667" stroke="currentColor" stroke-linecap="round" stroke-linejoin="round" stroke-width="2"/>
  <path d="M3.3333 13.3333H8.3333" stroke="currentColor" stroke-linecap="round" stroke-linejoin="round" stroke-width="2"/>
  <path d="M3.3333 16.6667H16.6667" stroke="currentColor" stroke-linecap="round" stroke-linejoin="round" stroke-width="2"/>
</svg>
