<svg xmlns="http://www.w3.org/2000/svg" width="20" height="20" viewBox="0 0 20 20" fill="none">
  <path d="M2.5185 17.487V3.3326C2.5185 2.9402 2.5185 2.7439 2.6403 2.622 2.7621 2.5001 2.9582 2.5 3.3503 2.5L3.9224 2.5C4.1719 2.5 4.1847 2.51 4.2452 2.7523L4.5351 3.9129C4.5956 4.1552 4.6083 4.1652 4.8579 4.1652H6.002C6.2515 4.1652 6.2643 4.1552 6.3248 3.9129L6.6147 2.7523C6.6752 2.51 6.6879 2.5001 6.9375 2.5001H7.5095C7.9017 2.5001 8.0977 2.5001 8.2195 2.622 8.3413 2.7439 8.3413 2.9402 8.3413 3.3327V6.6631C8.3413 7.0556 8.3413 7.2519 8.4632 7.3738 8.585 7.4957 8.7811 7.4957 9.1732 7.4957H10.8369C11.229 7.4957 11.4251 7.4957 11.5469 7.3738 11.6687 7.2519 11.6687 7.0556 11.6687 6.6631V3.3327C11.6687 2.9402 11.6687 2.7439 11.7905 2.622 11.9124 2.5001 12.1084 2.5001 12.5006 2.5001H13.0727C13.3222 2.5001 13.3349 2.51 13.3954 2.7523L13.6853 3.9129C13.7458 4.1553 13.7586 4.1652 14.0081 4.1652H15.1523C15.4017 4.1652 15.4145 4.1552 15.475 3.9129L15.7649 2.7523C15.8254 2.51 15.8382 2.5 16.0877 2.5L16.6598 2.5C17.0519 2.5 17.248 2.5001 17.3698 2.622 17.4916 2.7439 17.4916 2.9402 17.4916 3.3326V17.487M5.8459 7.4957H5.014M10.421 9.9935H9.5892M14.9961 7.4957H14.1643M1.6667 17.5H7.5283V14.7457C7.5283 14.0529 8.1885 12.5043 10.0018 12.5043 11.8151 12.5043 12.4717 14.0529 12.4717 14.7457V17.5H18.3333" stroke="currentColor" stroke-linecap="round" stroke-linejoin="round" stroke-width="2"/>
</svg>
