<svg xmlns="http://www.w3.org/2000/svg" width="20" height="20" viewBox="0 0 20 20" fill="none">
  <path d="M18.1976 10.7648C17.9623 11.407 17.2512 11.9206 15.829 12.9477 13.8898 14.3483 12.9201 15.0486 12.1093 14.9974 11.4902 14.9582 10.9147 14.6673 10.5186 14.1929 10 13.5719 10 12.3812 10 10 10 7.6187 10 6.4281 10.5186 5.8071 10.9147 5.3328 11.4902 5.0417 12.1093 5.0026 12.9201 4.9514 13.8898 5.6517 15.829 7.0523 17.2512 8.0794 17.9623 8.593 18.1976 9.2352 18.3786 9.7292 18.3786 10.2708 18.1976 10.7648Z" stroke="currentColor" stroke-linejoin="round" stroke-width="2"/>
  <path d="M9.8643 10.7648C9.6289 11.407 8.9178 11.9206 7.4957 12.9477 5.5564 14.3483 4.5868 15.0486 3.776 14.9974 3.1568 14.9582 2.5813 14.6673 2.1853 14.1929 1.6667 13.5719 1.6667 12.3812 1.6667 10 1.6667 7.6187 1.6667 6.4281 2.1853 5.8071 2.5813 5.3328 3.1568 5.0417 3.776 5.0026 4.5868 4.9514 5.5564 5.6517 7.4957 7.0523 8.9178 8.0794 9.6289 8.593 9.8643 9.2352 10.0452 9.7292 10.0452 10.2708 9.8643 10.7648Z" stroke="currentColor" stroke-linejoin="round" stroke-width="2"/>
</svg>
