<svg xmlns="http://www.w3.org/2000/svg" width="20" height="20" viewBox="0 0 20 20" fill="none">
  <path d="M1.6667 10C1.6667 6.8752 1.6667 5.3128 2.4624 4.2176 2.7194 3.8638 3.0305 3.5528 3.3842 3.2958 4.4795 2.5 6.0419 2.5 9.1667 2.5H10.8333C13.9581 2.5 15.5205 2.5 16.6158 3.2958 16.9695 3.5528 17.2806 3.8638 17.5376 4.2176 18.3333 5.3128 18.3333 6.8752 18.3333 10 18.3333 13.1248 18.3333 14.6872 17.5376 15.7824 17.2806 16.1362 16.9695 16.4473 16.6158 16.7043 15.5205 17.5 13.9581 17.5 10.8333 17.5H9.1667C6.0419 17.5 4.4795 17.5 3.3842 16.7043 3.0305 16.4473 2.7194 16.1362 2.4624 15.7824 1.6667 14.6872 1.6667 13.1248 1.6667 10Z" stroke="currentColor" stroke-linecap="round" stroke-width="2"/>
  <path d="M8.8637 7.5V10M8.8637 10V12.5M8.8637 10H7.3485C6.6342 10 6.2771 10 6.0552 9.7559 5.8333 9.5118 5.8333 9.119 5.8333 8.3333V7.5M11.1363 12.5V10M11.1363 10V7.5M11.1363 10L14.1667 7.5M11.1363 10L14.1667 12.5" stroke="currentColor" stroke-linecap="round" stroke-width="2"/>
</svg>
