<svg xmlns="http://www.w3.org/2000/svg" width="20" height="20" viewBox="0 0 20 20" fill="none">
  <path d="M6.5767 7.7976L4.5617 9.9663C4.2931 10.2428 3.8136 10.9647 3.7558 11.6258 3.6949 12.3211 4.3214 13.3185 4.5617 13.7003 5.1884 14.6955 5.4407 15.2477 6.1737 16.1897 6.5718 16.7012 7.6471 17.7208 9.3977 17.8493 10.7044 17.9451 12.0052 17.9362 12.6216 17.8493 13.0448 17.7895 14.0723 17.6003 15.0395 16.6045 16.0068 15.6088 16.2485 13.9769 16.2485 13.2854V6.6471C16.2485 6.2323 16.0068 5.4025 15.0395 5.4025 14.0723 5.4025 13.8306 6.2323 13.8306 6.6471V9.5514M6.5767 11.6258V4.9876C6.5767 4.5727 6.8185 3.7429 7.7857 3.7429 8.7528 3.7429 8.9947 4.5727 8.9947 4.9876M8.9947 4.9876V8.7216M8.9947 4.9876V3.328C8.9947 2.9131 9.2364 2.0833 10.2037 2.0833 11.1708 2.0833 11.4126 2.9131 11.4126 3.328V4.9876M11.4126 4.9876V8.7216M11.4126 4.9876C11.4126 4.5727 11.6544 3.7429 12.6216 3.7429 13.5888 3.7429 13.8306 4.5727 13.8306 4.9876V7.062" stroke="currentColor" stroke-linecap="round" stroke-linejoin="round" stroke-width="2"/>
</svg>
