<svg xmlns="http://www.w3.org/2000/svg" width="20" height="20" viewBox="0 0 20 20" fill="none">
  <path d="M10.8333 1.6667H9.1667C8.7064 1.6667 8.3333 2.0398 8.3333 2.5V4.1667C8.3333 4.6269 8.7064 5 9.1667 5H10.8333C11.2936 5 11.6667 4.6269 11.6667 4.1667V2.5C11.6667 2.0398 11.2936 1.6667 10.8333 1.6667Z" stroke="currentColor" stroke-linecap="round" stroke-linejoin="round" stroke-width="2"/>
  <path d="M10.8333 15H9.1667C8.7064 15 8.3333 15.3731 8.3333 15.8333V17.5C8.3333 17.9602 8.7064 18.3333 9.1667 18.3333H10.8333C11.2936 18.3333 11.6667 17.9602 11.6667 17.5V15.8333C11.6667 15.3731 11.2936 15 10.8333 15Z" stroke="currentColor" stroke-linecap="round" stroke-linejoin="round" stroke-width="2"/>
  <path d="M11.6667 3.3333H13.3333C14.5118 3.3333 15.1011 3.3333 15.4673 3.6994 15.8333 4.0656 15.8333 4.6548 15.8333 5.8333" stroke="currentColor" stroke-linecap="round" stroke-linejoin="round" stroke-width="2"/>
  <path d="M8.3333 3.3333H6.6667C5.4882 3.3333 4.8989 3.3333 4.5328 3.6994 4.1667 4.0656 4.1667 4.6548 4.1667 5.8333" stroke="currentColor" stroke-linecap="round" stroke-linejoin="round" stroke-width="2"/>
  <path d="M8.3333 16.6667H6.6667C5.4882 16.6667 4.8989 16.6667 4.5328 16.3006 4.1667 15.9344 4.1667 15.3452 4.1667 14.1667" stroke="currentColor" stroke-linecap="round" stroke-linejoin="round" stroke-width="2"/>
  <path d="M11.6667 16.6667H13.3333C14.5118 16.6667 15.1011 16.6667 15.4673 16.3006 15.8333 15.9344 15.8333 15.3452 15.8333 14.1667" stroke="currentColor" stroke-linecap="round" stroke-linejoin="round" stroke-width="2"/>
  <path d="M8.3333 10H11.6667" stroke="currentColor" stroke-linecap="round" stroke-linejoin="round" stroke-width="2"/>
  <path d="M17.5 10.8333V9.1667C17.5 8.7064 17.1269 8.3333 16.6667 8.3333L15 8.3333C14.5398 8.3333 14.1667 8.7064 14.1667 9.1667L14.1667 10.8333C14.1667 11.2936 14.5398 11.6667 15 11.6667H16.6667C17.1269 11.6667 17.5 11.2936 17.5 10.8333Z" stroke="currentColor" stroke-linecap="round" stroke-linejoin="round" stroke-width="2"/>
  <path d="M5.8333 10.8333V9.1667C5.8333 8.7064 5.4602 8.3333 5 8.3333L3.3333 8.3333C2.8731 8.3333 2.5 8.7064 2.5 9.1667L2.5 10.8333C2.5 11.2936 2.8731 11.6667 3.3333 11.6667H5C5.4602 11.6667 5.8333 11.2936 5.8333 10.8333Z" stroke="currentColor" stroke-linecap="round" stroke-linejoin="round" stroke-width="2"/>
</svg>
