<svg xmlns="http://www.w3.org/2000/svg" width="20" height="20" viewBox="0 0 20 20" fill="none">
  <path d="M4.6378 8.3524C4.4061 6.5185 4.9917 6.4553 5.2813 6.6813 10.1683 9.5698 12.7914 9.4251 13.9095 9.7535 14.8039 10.0162 14.5643 10.7897 14.2735 11.0907L9.7152 16.4909C8.9599 17.3857 7.965 18.8207 6.9838 18.1817 6.564 17.9082 6.3273 17.3221 6.2483 16.8688 5.7871 14.7916 4.8695 10.1864 4.6378 8.3524Z" stroke="currentColor" stroke-linecap="round" stroke-linejoin="round" stroke-width="2"/>
  <path d="M13.3508 9.6414L15.3643 6.4089C15.5907 5.8533 15.0874 4.9694 13.3508 5.4997L11.2368 8.808M13.1598 5.5964V4.4372C13.1598 4.138 13.1007 3.829 12.9136 3.596 12.6218 3.2326 12.1296 3.0126 11.0488 3.9801M10.9071 8.6007V2.6844C10.6295 2.2276 9.9078 1.4008 9.2415 1.7485 8.5753 2.0961 8.642 2.6844 8.6419 2.9518V4.0013M8.6419 4.0013V5.8263M8.6419 4.0013C8.2945 3.6254 7.2895 2.9518 6.6888 3.4763 6.1797 3.9208 6.3981 5.8263 6.3981 6.9374" stroke="currentColor" stroke-linecap="round" stroke-linejoin="round" stroke-width="2"/>
  <path d="M6.2225 15.0247C7.3834 15.0247 8.3245 14.0804 8.3245 12.9155 8.3245 11.7506 7.3834 10.8063 6.2225 10.8063 5.8614 10.8063 5.5217 10.8976 5.2248 11.0585" stroke="currentColor" stroke-linecap="round" stroke-width="2"/>
</svg>
