<svg xmlns="http://www.w3.org/2000/svg" width="20" height="20" viewBox="0 0 20 20" fill="none">
  <path d="M3.3333 18.3333L5.8333 15.8333" stroke="currentColor" stroke-linecap="round" stroke-linejoin="round" stroke-width="2"/>
  <path d="M1.6667 16.6667L4.1667 14.1667" stroke="currentColor" stroke-linecap="round" stroke-linejoin="round" stroke-width="2"/>
  <path d="M16.4301 2.041C17.5278 3.1388 16.1294 6.3172 13.3066 9.14 10.4838 11.9629 7.3055 13.3614 6.2077 12.2636M16.4301 2.041C15.3323 0.9432 12.154 2.3417 9.3312 5.1646M16.4301 2.041L17.8498 3.4606C19.1044 4.7152 17.8332 8.0207 15.0103 10.8436 12.1875 13.6665 8.8821 14.9378 7.6275 13.6832L6.2077 12.2636M6.2077 12.2636C5.1099 11.1658 6.5084 7.9875 9.3312 5.1646M9.3312 5.1646C7.4493 7.0465 6.4323 9.0808 7.0596 9.7082 7.6869 10.3354 9.7209 9.3184 11.6028 7.4365 13.4848 5.5545 14.5018 3.5204 13.8745 2.8931 13.2472 2.2658 11.2131 3.2827 9.3312 5.1646Z" stroke="currentColor" stroke-linecap="round" stroke-linejoin="round" stroke-width="2"/>
</svg>
