<svg xmlns="http://www.w3.org/2000/svg" width="20" height="20" viewBox="0 0 20 20" fill="none">
  <path d="M18.3333 7.9167C18.3333 11.3684 15.5351 14.1667 12.0833 14.1667 8.6316 14.1667 5.8333 11.3684 5.8333 7.9167 5.8333 4.4649 8.6316 1.6667 12.0833 1.6667 15.5351 1.6667 18.3333 4.4649 18.3333 7.9167Z" stroke="currentColor" stroke-width="2"/>
  <path d="M15.8333 7.5C15.8333 9.3409 14.3409 10.8333 12.5 10.8333 10.6591 10.8333 9.1667 9.3409 9.1667 7.5 9.1667 5.6591 10.6591 4.1667 12.5 4.1667 14.3409 4.1667 15.8333 5.6591 15.8333 7.5Z" stroke="currentColor" stroke-width="2"/>
  <path d="M1.6667 18.3333L7.5 12.5" stroke="currentColor" stroke-linecap="round" stroke-linejoin="round" stroke-width="2"/>
  <path d="M12.6042 7.5H12.5M12.7083 7.5C12.7083 7.6151 12.6151 7.7083 12.5 7.7083 12.3849 7.7083 12.2917 7.6151 12.2917 7.5 12.2917 7.3849 12.3849 7.2917 12.5 7.2917 12.6151 7.2917 12.7083 7.3849 12.7083 7.5Z" stroke="currentColor" stroke-linecap="round" stroke-width="2"/>
</svg>
