<svg xmlns="http://www.w3.org/2000/svg" width="20" height="20" viewBox="0 0 20 20" fill="none">
  <path d="M8.4262 3.75H6.6667C5.0953 3.75 4.3096 3.75 3.8215 4.2382 3.3333 4.7263 3.3333 5.512 3.3333 7.0833V13.3333C3.3333 15.6903 3.3333 16.8688 4.0656 17.6011 4.7978 18.3333 5.9763 18.3333 8.3333 18.3333H11.6667C14.0237 18.3333 15.2022 18.3333 15.9344 17.6011 16.6667 16.8688 16.6667 15.6903 16.6667 13.3333V11.2036C16.6667 9.1988 16.6667 8.1965 16.1688 7.391 15.671 6.5855 14.7745 6.1372 12.9814 5.2407L11.4077 4.4538C10.707 4.1035 10.3567 3.9283 9.9789 3.8392 9.6013 3.75 9.2096 3.75 8.4262 3.75Z" stroke="currentColor" stroke-linecap="round" stroke-linejoin="round" stroke-width="2"/>
  <path d="M10 15C10.9205 15 11.6667 14.3004 11.6667 13.4375 11.6667 12.3958 10 10.8333 10 10.8333 10 10.8333 8.3333 12.3958 8.3333 13.4375 8.3333 14.3004 9.0795 15 10 15Z" stroke="currentColor" stroke-linecap="round" stroke-linejoin="round" stroke-width="2"/>
  <path d="M10.4167 6.6667L13.75 8.3333" stroke="currentColor" stroke-linecap="round" stroke-linejoin="round" stroke-width="2"/>
  <path d="M5 3.75V3.125C5 2.5398 5 2.2472 5.1404 2.037 5.2012 1.946 5.2794 1.8679 5.3704 1.8071 5.5805 1.6667 5.8731 1.6667 6.4583 1.6667 7.0435 1.6667 7.3361 1.6667 7.5463 1.8071 7.6373 1.8679 7.7154 1.946 7.7762 2.037 7.9167 2.2472 7.9167 2.5398 7.9167 3.125V3.75" stroke="currentColor" stroke-linecap="round" stroke-linejoin="round" stroke-width="2"/>
</svg>
