<svg xmlns="http://www.w3.org/2000/svg" width="20" height="20" viewBox="0 0 20 20" fill="none">
  <path d="M4.1667 5V4.5833C4.1667 3.7977 4.1667 3.4048 4.4107 3.1607 4.6548 2.9167 5.0477 2.9167 5.8333 2.9167 6.619 2.9167 7.0118 2.9167 7.2559 3.1607 7.5 3.4048 7.5 3.7977 7.5 4.5833V5" stroke="currentColor" stroke-width="2"/>
  <path d="M12.5 4.1667L15 4.1667" stroke="currentColor" stroke-linecap="round" stroke-width="2"/>
  <path d="M13.3333 1.6667H12.2223C10.661 1.6667 10 2.4448 10 3.8889 10 4.6109 9.6695 5 8.8889 5H5.8333C4.262 5 3.4763 5 2.9882 5.4882 2.5 5.9763 2.5 6.762 2.5 8.3333V12.5C2.5 15.2498 2.5 16.6248 3.3543 17.4791 4.2085 18.3333 5.5835 18.3333 8.3333 18.3333H11.6667C14.4165 18.3333 15.7914 18.3333 16.6458 17.4791 17.5 16.6248 17.5 15.2498 17.5 12.5V5.8333C17.5 3.8691 17.5 2.8871 16.8898 2.2769 16.2796 1.6667 15.2975 1.6667 13.3333 1.6667Z" stroke="currentColor" stroke-width="2"/>
  <path d="M7.5 12.1561C7.5 10.9358 8.5532 9.7298 9.2924 9.0336 9.6938 8.6555 10.3062 8.6555 10.7076 9.0336 11.4468 9.7298 12.5 10.9358 12.5 12.1561 12.5 13.3526 11.5533 14.5833 10 14.5833 8.4467 14.5833 7.5 13.3526 7.5 12.1561Z" stroke="currentColor" stroke-width="2"/>
</svg>
