<svg xmlns="http://www.w3.org/2000/svg" width="20" height="20" viewBox="0 0 20 20" fill="none">
  <path d="M8.7188 10.8333L7.5572 12.3437C7.4327 12.5055 7.5219 12.7384 7.7249 12.7815L8.9418 13.0398C9.1583 13.0857 9.2408 13.3435 9.0894 13.5009L7.6481 15" stroke="currentColor" stroke-linecap="round" stroke-linejoin="round" stroke-width="2"/>
  <path d="M3.3333 8.3333H13.3333" stroke="currentColor" stroke-linecap="round" stroke-linejoin="round" stroke-width="2"/>
  <path d="M3.3333 17.5L3.3333 7.5C3.3333 5.143 3.3333 3.9645 4.0656 3.2322 4.7978 2.5 5.9763 2.5 8.3333 2.5 10.6903 2.5 11.8688 2.5 12.6011 3.2322 13.3333 3.9645 13.3333 5.143 13.3333 7.5L13.3333 17.5H3.3333Z" stroke="currentColor" stroke-width="2"/>
  <path d="M1.6667 17.5H15" stroke="currentColor" stroke-linecap="round" stroke-linejoin="round" stroke-width="2"/>
  <path d="M13.3333 11.6667H14.7222C14.9806 11.6667 15.1098 11.6667 15.2157 11.6951 15.5032 11.7721 15.7279 11.9968 15.8049 12.2843 15.8333 12.3902 15.8333 12.5194 15.8333 12.7777V13.75C15.8333 14.4403 16.393 15 17.0833 15 17.7737 15 18.3333 14.4403 18.3333 13.75V8.5092C18.3333 8.0083 18.3333 7.7578 18.2618 7.5217 18.1903 7.2855 18.0513 7.0771 17.7735 6.6603L17.1289 5.6934C16.8402 5.2602 16.3539 5 15.8333 5" stroke="currentColor" stroke-linecap="round" stroke-linejoin="round" stroke-width="2"/>
</svg>
