<svg xmlns="http://www.w3.org/2000/svg" width="20" height="20" viewBox="0 0 20 20" fill="none">
  <path d="M12.9167 17.5C14.0797 17.5 14.6611 17.5 15.1343 17.3565 16.1996 17.0333 17.0333 16.1996 17.3565 15.1343 17.5 14.6611 17.5 14.0797 17.5 12.9167M17.5 7.0833C17.5 5.9204 17.5 5.3389 17.3565 4.8657 17.0333 3.8004 16.1996 2.9667 15.1343 2.6435 14.6611 2.5 14.0797 2.5 12.9167 2.5M7.0833 17.5C5.9204 17.5 5.3389 17.5 4.8657 17.3565 3.8004 17.0333 2.9667 16.1996 2.6435 15.1343 2.5 14.6611 2.5 14.0797 2.5 12.9167M2.5 7.0833C2.5 5.9204 2.5 5.3389 2.6435 4.8657 2.9667 3.8004 3.8004 2.9667 4.8657 2.6435 5.3389 2.5 5.9204 2.5 7.0833 2.5" stroke="currentColor" stroke-linecap="round" stroke-linejoin="round" stroke-width="2"/>
</svg>
