<svg xmlns="http://www.w3.org/2000/svg" width="20" height="20" viewBox="0 0 20 20" fill="none">
  <path d="M1.6667 15.1852C1.8239 15.8937 2.1409 16.6667 2.9686 16.6667 4.401 16.6667 4.7591 15.1852 5.8333 10 6.9076 4.8148 7.2657 3.3333 8.698 3.3333 9.5258 3.3333 9.8428 4.1064 10 4.8148M4.0972 8.1482H8.698" stroke="currentColor" stroke-linecap="round" stroke-linejoin="round" stroke-width="2"/>
  <path d="M17.5 10C18.6503 12.7108 18.5712 14.1507 17.5 16.6667" stroke="currentColor" stroke-linecap="round" stroke-linejoin="round" stroke-width="2"/>
  <path d="M10 10C8.8497 12.7108 8.9288 14.1507 10 16.6667" stroke="currentColor" stroke-linecap="round" stroke-linejoin="round" stroke-width="2"/>
  <path d="M11.9076 11.666C12.5775 11.641 12.9596 11.72 13.1856 12.1216 13.4596 12.68 14.1488 14.2233 14.3196 14.56 14.4228 14.7074 14.5596 14.92 14.9996 14.9896L15.5916 15" stroke="currentColor" stroke-linecap="round" stroke-width="2"/>
  <path d="M15.8354 11.6667C14.8994 11.6667 14.2394 12.74 13.7994 13.28 13.1594 14.12 12.4392 15.0417 11.6634 15" stroke="currentColor" stroke-linecap="round" stroke-width="2"/>
</svg>
