<svg xmlns="http://www.w3.org/2000/svg" width="20" height="20" viewBox="0 0 20 20" fill="none">
  <path d="M6.6667 13.2408C6.7924 13.6835 7.0461 14.1667 7.7082 14.1667 8.8541 14.1667 9.1406 13.2408 10 10 10.8594 6.7593 11.1459 5.8333 12.2918 5.8333 12.9539 5.8333 13.2076 6.3165 13.3333 6.7593M8.6111 8.8426H12.2918" stroke="currentColor" stroke-linecap="round" stroke-linejoin="round" stroke-width="2"/>
  <path d="M2.0833 10C2.0833 6.268 2.0833 4.4021 3.2427 3.2427 4.4021 2.0833 6.268 2.0833 10 2.0833 13.7319 2.0833 15.5979 2.0833 16.7573 3.2427 17.9167 4.4021 17.9167 6.268 17.9167 10 17.9167 13.7319 17.9167 15.5979 16.7573 16.7573 15.5979 17.9167 13.7319 17.9167 10 17.9167 6.268 17.9167 4.4021 17.9167 3.2427 16.7573 2.0833 15.5979 2.0833 13.7319 2.0833 10Z" stroke="currentColor" stroke-linejoin="round" stroke-width="2"/>
</svg>
