<svg xmlns="http://www.w3.org/2000/svg" width="20" height="20" viewBox="0 0 20 20" fill="none">
  <path d="M10.625 2.2917H5.8589C3.4692 2.2917 2.2744 2.2917 1.9473 3.0313 1.6202 3.771 2.4195 4.6653 4.0181 6.4539L7.304 10.1304C7.5135 10.3648 7.6182 10.482 7.673 10.6258 7.7278 10.7696 7.7278 10.9273 7.7278 11.2427V15.3087C7.7278 16.7094 7.7278 17.4098 8.1721 17.6427 8.6164 17.8756 9.1862 17.474 10.3258 16.6708L11.1513 16.0888C11.4963 15.8456 11.6689 15.724 11.7622 15.5435 11.8555 15.3631 11.8555 15.151 11.8555 14.7268V11.2427C11.8555 10.9273 11.8555 10.7696 11.9103 10.6258 11.9651 10.482 12.0698 10.3648 12.2793 10.1304L12.5821 9.7917" stroke="currentColor" stroke-linecap="round" stroke-linejoin="round" stroke-width="2"/>
  <path d="M15.6208 2.2917V7.2917M18.125 4.7875L13.125 4.7875" stroke="currentColor" stroke-linecap="round" stroke-linejoin="round" stroke-width="2"/>
</svg>
