<svg xmlns="http://www.w3.org/2000/svg" width="20" height="20" viewBox="0 0 20 20" fill="none">
  <path d="M12.4877 10.1304L15.7736 6.4539C17.3722 4.6653 18.1715 3.771 17.8444 3.0313 17.5173 2.2917 16.3224 2.2917 13.9328 2.2917H6.0672C3.6776 2.2917 2.4827 2.2917 2.1556 3.0313 1.8285 3.771 2.6278 4.6653 4.2264 6.4539L7.5123 10.1304C7.7218 10.3648 7.8266 10.482 7.8814 10.6258 7.9362 10.7696 7.9362 10.9273 7.9362 11.2427V15.3087C7.9362 16.7094 7.9362 17.4098 8.3805 17.6427 8.8248 17.8756 9.3945 17.474 10.5341 16.6708L11.3596 16.0888C11.7047 15.8456 11.8773 15.724 11.9705 15.5435 12.0638 15.3631 12.0638 15.151 12.0638 14.7268V11.2427C12.0638 10.9273 12.0638 10.7696 12.1187 10.6258 12.1734 10.482 12.2782 10.3648 12.4877 10.1304Z" stroke="currentColor" stroke-linecap="round" stroke-linejoin="round" stroke-width="2"/>
</svg>
