<svg xmlns="http://www.w3.org/2000/svg" width="20" height="20" viewBox="0 0 20 20" fill="none">
  <path d="M14.7784 14.7784C18.5485 11.0083 19.4654 5.8127 16.8263 3.1737 14.6892 1.0365 10.8755 1.2313 7.5 3.3849M3.1737 16.8263C5.2387 18.8914 8.8691 18.7792 12.157 16.8263M5.2216 5.2216C2.4833 7.9598 1.2502 11.4501 1.7915 14.1667" stroke="currentColor" stroke-linecap="round" stroke-width="2"/>
  <path d="M14.0958 5.9042C12.5123 4.3208 9.395 4.8709 7.1329 7.1329 4.8709 9.395 4.3208 12.5123 5.9042 14.0958 7.4876 15.6793 10.605 15.1291 12.8671 12.8671 14.2413 11.4929 14.9836 9.8032 14.9998 8.3333" stroke="currentColor" stroke-linecap="round" stroke-width="2"/>
  <path d="M11.3652 8.6348C11.8931 9.1626 11.7097 10.2017 10.9557 10.9557 10.2017 11.7097 9.1626 11.8931 8.6348 11.3652 8.1069 10.8374 8.2903 9.7983 9.0443 9.0443 9.7983 8.2903 10.8374 8.1069 11.3652 8.6348Z" stroke="currentColor" stroke-linecap="round" stroke-width="2"/>
</svg>
