<svg xmlns="http://www.w3.org/2000/svg" width="20" height="20" viewBox="0 0 20 20" fill="none">
  <path d="M2.5 7.0833V8.75C2.5 10.7142 2.5 11.6963 3.1102 12.3065 3.7204 12.9167 4.7025 12.9167 6.6667 12.9167H13.3333C15.2975 12.9167 16.2796 12.9167 16.8898 12.3065 17.5 11.6963 17.5 10.7142 17.5 8.75V7.0833C17.5 5.1192 17.5 4.1371 16.8898 3.5269 16.2796 2.9167 15.2975 2.9167 13.3333 2.9167H6.6667C4.7025 2.9167 3.7204 2.9167 3.1102 3.5269 2.5 4.1371 2.5 5.1192 2.5 7.0833Z" stroke="currentColor" stroke-linecap="round" stroke-linejoin="round" stroke-width="2"/>
  <path d="M3.75 16.4583V16.6667M4.1667 16.6667C4.1667 16.8968 3.9801 17.0833 3.75 17.0833 3.5199 17.0833 3.3333 16.8968 3.3333 16.6667 3.3333 16.4366 3.5199 16.25 3.75 16.25 3.9801 16.25 4.1667 16.4366 4.1667 16.6667Z" stroke="currentColor" stroke-linecap="round" stroke-linejoin="round" stroke-width="2"/>
  <path d="M7.9167 16.4583V16.6667M8.3333 16.6667C8.3333 16.8968 8.1468 17.0833 7.9167 17.0833 7.6866 17.0833 7.5 16.8968 7.5 16.6667 7.5 16.4366 7.6866 16.25 7.9167 16.25 8.1468 16.25 8.3333 16.4366 8.3333 16.6667Z" stroke="currentColor" stroke-linecap="round" stroke-linejoin="round" stroke-width="2"/>
  <path d="M12.0833 16.4583V16.6667M12.5 16.6667C12.5 16.8968 12.3134 17.0833 12.0833 17.0833 11.8533 17.0833 11.6667 16.8968 11.6667 16.6667 11.6667 16.4366 11.8533 16.25 12.0833 16.25 12.3134 16.25 12.5 16.4366 12.5 16.6667Z" stroke="currentColor" stroke-linecap="round" stroke-linejoin="round" stroke-width="2"/>
  <path d="M16.25 16.4583V16.6667M16.6667 16.6667C16.6667 16.8968 16.4801 17.0833 16.25 17.0833 16.0199 17.0833 15.8333 16.8968 15.8333 16.6667 15.8333 16.4366 16.0199 16.25 16.25 16.25 16.4801 16.25 16.6667 16.4366 16.6667 16.6667Z" stroke="currentColor" stroke-linecap="round" stroke-linejoin="round" stroke-width="2"/>
</svg>
