<svg xmlns="http://www.w3.org/2000/svg" width="20" height="20" viewBox="0 0 20 20" fill="none">
  <path d="M1.6667 5V15" stroke="currentColor" stroke-linecap="round" stroke-linejoin="round" stroke-width="2"/>
  <path d="M14.1667 2.5H12.5C10.5358 2.5 9.5537 2.5 8.9435 3.1102 8.3333 3.7204 8.3333 4.7025 8.3333 6.6667V13.3333C8.3333 15.2975 8.3333 16.2796 8.9435 16.8898 9.5537 17.5 10.5358 17.5 12.5 17.5H14.1667C16.1308 17.5 17.1129 17.5 17.7232 16.8898 18.3333 16.2796 18.3333 15.2975 18.3333 13.3333V6.6667C18.3333 4.7025 18.3333 3.7204 17.7232 3.1102 17.1129 2.5 16.1308 2.5 14.1667 2.5Z" stroke="currentColor" stroke-linecap="round" stroke-linejoin="round" stroke-width="2"/>
  <path d="M5 3.3333V16.6667" stroke="currentColor" stroke-linecap="round" stroke-linejoin="round" stroke-width="2"/>
</svg>
