<svg xmlns="http://www.w3.org/2000/svg" width="20" height="20" viewBox="0 0 20 20" fill="none">
  <path d="M5 1.6667L15 1.6667" stroke="currentColor" stroke-linecap="round" stroke-linejoin="round" stroke-width="2"/>
  <path d="M2.5 14.1667L2.5 12.5C2.5 10.5358 2.5 9.5537 3.1102 8.9435 3.7204 8.3333 4.7025 8.3333 6.6667 8.3333H13.3333C15.2975 8.3333 16.2796 8.3333 16.8898 8.9435 17.5 9.5537 17.5 10.5358 17.5 12.5V14.1667C17.5 16.1308 17.5 17.1129 16.8898 17.7232 16.2796 18.3333 15.2975 18.3333 13.3333 18.3333L6.6667 18.3333C4.7025 18.3333 3.7204 18.3333 3.1102 17.7232 2.5 17.1129 2.5 16.1308 2.5 14.1667Z" stroke="currentColor" stroke-linecap="round" stroke-linejoin="round" stroke-width="2"/>
  <path d="M3.3333 5L16.6667 5" stroke="currentColor" stroke-linecap="round" stroke-linejoin="round" stroke-width="2"/>
</svg>
