<svg xmlns="http://www.w3.org/2000/svg" width="20" height="20" viewBox="0 0 20 20" fill="none">
  <path d="M12.0833 5C12.7305 5 13.0541 5 13.3093 5.1057 13.6496 5.2467 13.92 5.5171 14.0609 5.8574 14.1667 6.1126 14.1667 6.4362 14.1667 7.0833 14.1667 7.7305 14.1667 8.054 14.0609 8.3093 13.92 8.6496 13.6496 8.92 13.3093 9.0609 13.0541 9.1667 12.7305 9.1667 12.0833 9.1667L7.9167 9.1667C7.2695 9.1667 6.946 9.1667 6.6907 9.0609 6.3504 8.92 6.08 8.6496 5.9391 8.3093 5.8333 8.054 5.8333 7.7305 5.8333 7.0833 5.8333 6.4362 5.8333 6.1126 5.9391 5.8574 6.08 5.5171 6.3504 5.2467 6.6907 5.1057 6.946 5 7.2695 5 7.9167 5L12.0833 5Z" stroke="currentColor" stroke-linecap="round" stroke-width="2"/>
  <path d="M9.1667 14.1667H7.5M7.5 14.1667L5.8333 14.1667M7.5 14.1667L7.5 15.8333M7.5 14.1667L7.5 12.5" stroke="currentColor" stroke-linecap="round" stroke-width="2"/>
  <path d="M14.1667 15V13.3333" stroke="currentColor" stroke-linecap="round" stroke-linejoin="round" stroke-width="2"/>
  <path d="M17.5 10.8333V9.1667C17.5 6.0419 17.5 4.4795 16.7043 3.3842 16.4473 3.0305 16.1362 2.7194 15.7824 2.4624 14.6872 1.6667 13.1248 1.6667 10 1.6667 6.8752 1.6667 5.3128 1.6667 4.2176 2.4624 3.8638 2.7194 3.5528 3.0305 3.2958 3.3842 2.5 4.4795 2.5 6.0419 2.5 9.1667V10.8333C2.5 13.9581 2.5 15.5205 3.2958 16.6158 3.5528 16.9695 3.8638 17.2806 4.2176 17.5376 5.3128 18.3333 6.8752 18.3333 10 18.3333 13.1248 18.3333 14.6872 18.3333 15.7824 17.5376 16.1362 17.2806 16.4473 16.9695 16.7043 16.6158 17.5 15.5205 17.5 13.9581 17.5 10.8333Z" stroke="currentColor" stroke-linecap="round" stroke-width="2"/>
</svg>
