<svg xmlns="http://www.w3.org/2000/svg" width="20" height="20" viewBox="0 0 20 20" fill="none">
  <path d="M7.9167 5.0715V4.5833C7.9167 3.8045 7.9167 3.4151 8.0841 3.125 8.1939 2.935 8.3517 2.7772 8.5417 2.6675 8.8318 2.5 9.2212 2.5 10 2.5 10.7788 2.5 11.1683 2.5 11.4583 2.6675 11.6483 2.7772 11.8062 2.935 11.9159 3.125 12.0833 3.4151 12.0833 3.8045 12.0833 4.5833V5.0715C12.0833 5.2925 11.9956 5.5045 11.8393 5.6607L10.7113 6.7887C10.5227 6.9774 10.2668 7.0833 10 7.0833 9.7332 7.0833 9.4773 6.9774 9.2888 6.7887L8.1608 5.6607C8.0045 5.5045 7.9167 5.2925 7.9167 5.0715Z" stroke="currentColor" stroke-linecap="round" stroke-linejoin="round" stroke-width="2"/>
  <path d="M7.9167 14.9288V15.4168C7.9167 16.1958 7.9167 16.5852 8.0841 16.8752 8.1939 17.0653 8.3517 17.223 8.5417 17.3328 8.8318 17.5002 9.2212 17.5002 10 17.5002 10.7788 17.5002 11.1683 17.5002 11.4583 17.3328 11.6483 17.223 11.8062 17.0653 11.9159 16.8752 12.0833 16.5852 12.0833 16.1958 12.0833 15.4168V14.9288C12.0833 14.7077 11.9956 14.4958 11.8393 14.3395L10.7113 13.2115C10.5227 13.0228 10.2668 12.9168 10 12.9168 9.7332 12.9168 9.4773 13.0228 9.2888 13.2115L8.1608 14.3395C8.0045 14.4958 7.9167 14.7077 7.9167 14.9288Z" stroke="currentColor" stroke-linecap="round" stroke-linejoin="round" stroke-width="2"/>
  <path d="M14.9285 7.9167L15.4167 7.9167C16.1955 7.9167 16.5849 7.9167 16.875 8.0841 17.065 8.1938 17.2228 8.3517 17.3326 8.5417 17.5 8.8318 17.5 9.2212 17.5 10 17.5 10.7788 17.5 11.1683 17.3326 11.4583 17.2228 11.6483 17.065 11.8062 16.875 11.9158 16.5849 12.0833 16.1955 12.0833 15.4167 12.0833H14.9285C14.7075 12.0833 14.4956 11.9955 14.3393 11.8393L13.2113 10.7113C13.0227 10.5227 12.9167 10.2668 12.9167 10 12.9167 9.7332 13.0227 9.4773 13.2113 9.2887L14.3393 8.1607C14.4956 8.0045 14.7075 7.9167 14.9285 7.9167Z" stroke="currentColor" stroke-linecap="round" stroke-linejoin="round" stroke-width="2"/>
  <path d="M5.0715 7.9167L4.5834 7.9167C3.8045 7.9167 3.4151 7.9167 3.125 8.0841 2.935 8.1938 2.7772 8.3517 2.6675 8.5417 2.5 8.8318 2.5 9.2212 2.5 10 2.5 10.7788 2.5 11.1683 2.6675 11.4583 2.7772 11.6483 2.935 11.8062 3.125 11.9158 3.4151 12.0833 3.8045 12.0833 4.5834 12.0833H5.0715C5.2925 12.0833 5.5045 11.9955 5.6608 11.8393L6.7887 10.7113C6.9774 10.5227 7.0833 10.2668 7.0833 10 7.0833 9.7332 6.9774 9.4773 6.7887 9.2887L5.6608 8.1607C5.5045 8.0045 5.2925 7.9167 5.0715 7.9167Z" stroke="currentColor" stroke-linecap="round" stroke-linejoin="round" stroke-width="2"/>
</svg>
