<svg xmlns="http://www.w3.org/2000/svg" width="20" height="20" viewBox="0 0 20 20" fill="none">
  <path d="M1.6667 9.1667C1.6667 7.2025 1.6667 6.2204 2.2769 5.6102 2.8871 5 3.8691 5 5.8333 5H14.1667C16.1308 5 17.1129 5 17.7232 5.6102 18.3333 6.2204 18.3333 7.2025 18.3333 9.1667V10.8333C18.3333 12.7975 18.3333 13.7796 17.7232 14.3898 17.1129 15 16.1308 15 14.1667 15H5.8333C3.8691 15 2.8871 15 2.2769 14.3898 1.6667 13.7796 1.6667 12.7975 1.6667 10.8333V9.1667Z" stroke="currentColor" stroke-width="2"/>
  <path d="M6.6625 8.3333V11.6667M8.3333 9.9958L5 9.9958" stroke="currentColor" stroke-linecap="round" stroke-linejoin="round" stroke-width="2"/>
  <path d="M14.7917 8.8477V8.9518M15 8.9518C15 9.0669 14.9068 9.1602 14.7917 9.1602 14.6766 9.1602 14.5833 9.0669 14.5833 8.9518 14.5833 8.8368 14.6766 8.7435 14.7917 8.7435 14.9068 8.7435 15 8.8368 15 8.9518Z" stroke="currentColor" stroke-linecap="round" stroke-linejoin="round" stroke-width="2"/>
  <path d="M12.7083 10.931V11.0352M12.9167 11.0352C12.9167 11.1502 12.8234 11.2435 12.7083 11.2435 12.5933 11.2435 12.5 11.1502 12.5 11.0352 12.5 10.9201 12.5933 10.8268 12.7083 10.8268 12.8234 10.8268 12.9167 10.9201 12.9167 11.0352Z" stroke="currentColor" stroke-linecap="round" stroke-linejoin="round" stroke-width="2"/>
</svg>
