<svg xmlns="http://www.w3.org/2000/svg" width="20" height="20" viewBox="0 0 20 20" fill="none">
  <path d="M1.6667 12.0833C1.6667 9.3438 1.6667 7.974 2.4233 7.052 2.5618 6.8832 2.7166 6.7285 2.8854 6.59 3.8073 5.8333 5.1771 5.8333 7.9167 5.8333H12.0833C14.8229 5.8333 16.1927 5.8333 17.1147 6.59 17.2834 6.7285 17.4382 6.8832 17.5767 7.052 18.3333 7.974 18.3333 9.3438 18.3333 12.0833 18.3333 14.8229 18.3333 16.1927 17.5767 17.1147 17.4382 17.2834 17.2834 17.4382 17.1147 17.5767 16.1927 18.3333 14.8229 18.3333 12.0833 18.3333H7.9167C5.1771 18.3333 3.8073 18.3333 2.8854 17.5767 2.7166 17.4382 2.5618 17.2834 2.4233 17.1147 1.6667 16.1927 1.6667 14.8229 1.6667 12.0833Z" stroke="currentColor" stroke-linecap="round" stroke-width="2"/>
  <path d="M10 5.8333V4.1667C10 3.7064 10.3731 3.3333 10.8333 3.3333 11.2936 3.3333 11.6667 2.9602 11.6667 2.5V1.6667" stroke="currentColor" stroke-linecap="round" stroke-linejoin="round" stroke-width="2"/>
  <path d="M8.3333 13.3333L7.0833 12.0833M7.0833 12.0833L5.8333 10.8333M7.0833 12.0833L5.8333 13.3333M7.0833 12.0833L8.3333 10.8333" stroke="currentColor" stroke-linecap="round" stroke-width="2"/>
  <path d="M14.1667 12.9167L14.1667 11.25" stroke="currentColor" stroke-linecap="round" stroke-linejoin="round" stroke-width="2"/>
</svg>
