<svg xmlns="http://www.w3.org/2000/svg" width="20" height="20" viewBox="0 0 20 20" fill="none">
  <path d="M8.151 2.5814L4.7265 4.9114C3.6366 5.653 3.0916 6.0238 2.7958 6.5879 2.5 7.152 2.5 7.8205 2.5 9.1573V14.9313C2.5 16.5351 2.5 17.3369 2.9882 17.8351 3.4763 18.3333 4.262 18.3333 5.8333 18.3333H14.1667C15.738 18.3333 16.5237 18.3333 17.0118 17.8351 17.5 17.3369 17.5 16.5351 17.5 14.9313V9.1573C17.5 7.8205 17.5 7.152 17.2042 6.5879 16.9083 6.0238 16.3634 5.653 15.2735 4.9114L11.849 2.5814C10.9527 1.9716 10.5047 1.6667 10 1.6667 9.4953 1.6667 9.0473 1.9716 8.151 2.5814Z" stroke="currentColor" stroke-linecap="round" stroke-linejoin="round" stroke-width="2"/>
  <path d="M5.8333 18.3333V14.1667C5.8333 12.5953 5.8333 11.8097 6.3215 11.3215 6.8096 10.8333 7.5953 10.8333 9.1667 10.8333H10.8333C12.4047 10.8333 13.1903 10.8333 13.6785 11.3215 14.1667 11.8097 14.1667 12.5953 14.1667 14.1667V18.3333" stroke="currentColor" stroke-linecap="round" stroke-linejoin="round" stroke-width="2"/>
  <path d="M5.8333 13.3333H14.1667" stroke="currentColor" stroke-linecap="round" stroke-linejoin="round" stroke-width="2"/>
  <path d="M5.8333 15.8333H14.1667" stroke="currentColor" stroke-linecap="round" stroke-linejoin="round" stroke-width="2"/>
  <path d="M10.1042 5.8333H10M10.2083 5.8333C10.2083 5.9484 10.1151 6.0417 10 6.0417 9.8849 6.0417 9.7917 5.9484 9.7917 5.8333 9.7917 5.7183 9.8849 5.625 10 5.625 10.1151 5.625 10.2083 5.7183 10.2083 5.8333Z" stroke="currentColor" stroke-linecap="round" stroke-width="2"/>
</svg>
