<svg xmlns="http://www.w3.org/2000/svg" width="20" height="20" viewBox="0 0 20 20" fill="none">
  <circle cx="10" cy="8.333333333333334" r="3.3333333333333335" stroke="currentColor" stroke-linecap="round" stroke-linejoin="round" stroke-width="2"/>
  <path d="M11.75 10.0833L12.9167 11.25M8.25 10.0833L7.0833 11.25M8.25 6.5833L7.0833 5.4167M11.75 6.5833L12.9167 5.4167" stroke="currentColor" stroke-linecap="round" stroke-width="2"/>
  <path d="M2.0833 10C2.0833 6.4752 2.0833 4.7128 3.0816 3.544 3.2234 3.378 3.378 3.2234 3.544 3.0816 4.7128 2.0833 6.4752 2.0833 10 2.0833 13.5248 2.0833 15.2872 2.0833 16.456 3.0816 16.622 3.2234 16.7766 3.378 16.9183 3.544 17.9167 4.7128 17.9167 6.4752 17.9167 10 17.9167 13.5248 17.9167 15.2872 16.9183 16.456 16.7766 16.622 16.622 16.7766 16.456 16.9183 15.2872 17.9167 13.5248 17.9167 10 17.9167 6.4752 17.9167 4.7128 17.9167 3.544 16.9183 3.378 16.7766 3.2234 16.622 3.0816 16.456 2.0833 15.2872 2.0833 13.5248 2.0833 10Z" stroke="currentColor" stroke-width="2"/>
  <path d="M10.1042 15H10M10.2083 15C10.2083 15.1151 10.1151 15.2083 10 15.2083 9.8849 15.2083 9.7917 15.1151 9.7917 15 9.7917 14.8849 9.8849 14.7917 10 14.7917 10.1151 14.7917 10.2083 14.8849 10.2083 15Z" stroke="currentColor" stroke-linecap="round" stroke-linejoin="round" stroke-width="2"/>
  <path d="M13.4375 15H13.3333M13.5417 15C13.5417 15.1151 13.4484 15.2083 13.3333 15.2083 13.2183 15.2083 13.125 15.1151 13.125 15 13.125 14.8849 13.2183 14.7917 13.3333 14.7917 13.4484 14.7917 13.5417 14.8849 13.5417 15Z" stroke="currentColor" stroke-linecap="round" stroke-linejoin="round" stroke-width="2"/>
  <path d="M6.7708 15H6.6667M6.875 15C6.875 15.1151 6.7817 15.2083 6.6667 15.2083 6.5516 15.2083 6.4583 15.1151 6.4583 15 6.4583 14.8849 6.5516 14.7917 6.6667 14.7917 6.7817 14.7917 6.875 14.8849 6.875 15Z" stroke="currentColor" stroke-linecap="round" stroke-linejoin="round" stroke-width="2"/>
</svg>
