<svg xmlns="http://www.w3.org/2000/svg" width="20" height="20" viewBox="0 0 20 20" fill="none">
  <path d="M9.5018 2.218L6.1894 5.5306C5.732 5.9879 5.732 6.7295 6.1894 7.1868 6.6467 7.6442 7.3882 7.6442 7.8456 7.1868L11.1579 3.8743C11.6152 3.4169 11.6152 2.6754 11.1579 2.218 10.7006 1.7607 9.9591 1.7607 9.5018 2.218Z" stroke="currentColor" stroke-linecap="round" stroke-linejoin="round" stroke-width="2"/>
  <path d="M14.4699 13.8112L17.7823 10.4987C18.2397 10.0412 18.2397 9.2998 17.7823 8.8423 17.3249 8.385 16.5834 8.385 16.1261 8.8423L12.8138 12.1549C12.3563 12.6123 12.3563 13.3538 12.8138 13.8112 13.2711 14.2686 14.0126 14.2686 14.4699 13.8112Z" stroke="currentColor" stroke-linecap="round" stroke-linejoin="round" stroke-width="2"/>
  <path d="M12.8136 12.1551L7.845 7.1863 11.1574 3.8737 16.126 8.8425 12.8136 12.1551Z" stroke="currentColor" stroke-linecap="round" stroke-linejoin="round" stroke-width="2"/>
  <path d="M9.5003 8.8412L2.5251 15.1192C2.3677 15.2608 2.289 15.3317 2.231 15.3983 1.7752 15.922 1.7549 16.6954 2.1825 17.2424 2.237 17.312 2.3118 17.3869 2.4615 17.5366 2.6112 17.6863 2.6861 17.7612 2.7557 17.8156 3.3026 18.2432 4.076 18.2229 4.5997 17.7671 4.6664 17.7091 4.7372 17.6304 4.8788 17.473L11.1565 10.4974" stroke="currentColor" stroke-linecap="round" stroke-linejoin="round" stroke-width="2"/>
</svg>
