<svg xmlns="http://www.w3.org/2000/svg" width="20" height="20" viewBox="0 0 20 20" fill="none">
  <path d="M12.1809 3.9721C13.0229 2.6382 13.4439 1.9713 13.9956 1.7704 14.3752 1.6321 14.7914 1.6321 15.1711 1.7704 15.7228 1.9713 16.1438 2.6382 16.9857 3.9721 17.9335 5.4735 18.4074 6.2242 18.3239 6.8437 18.2667 7.2685 18.0528 7.6567 17.7244 7.932 17.2456 8.3333 16.3582 8.3333 14.5833 8.3333 12.8085 8.3333 11.9211 8.3333 11.4423 7.932 11.1138 7.6567 10.9 7.2685 10.8428 6.8437 10.7592 6.2242 11.2332 5.4735 12.1809 3.9721Z" stroke="currentColor" stroke-linejoin="round" stroke-width="2"/>
  <path d="M1.6667 5C1.6667 3.6112 1.6667 2.9168 2.0203 2.43 2.1346 2.2728 2.2728 2.1346 2.43 2.0203 2.9168 1.6667 3.6112 1.6667 5 1.6667 6.3888 1.6667 7.0832 1.6667 7.57 2.0203 7.7272 2.1346 7.8654 2.2728 7.9797 2.43 8.3333 2.9168 8.3333 3.6112 8.3333 5 8.3333 6.3888 8.3333 7.0832 7.9797 7.57 7.8654 7.7272 7.7272 7.8654 7.57 7.9797 7.0832 8.3333 6.3888 8.3333 5 8.3333 3.6112 8.3333 2.9168 8.3333 2.43 7.9797 2.2728 7.8654 2.1346 7.7272 2.0203 7.57 1.6667 7.0832 1.6667 6.3888 1.6667 5Z" stroke="currentColor" stroke-linejoin="round" stroke-width="2"/>
  <circle cx="14.583333333333334" cy="15" r="3.3333333333333335" stroke="currentColor" stroke-linejoin="round" stroke-width="2"/>
  <path d="M7.9166 12.0833L2.0833 17.9167M2.0834 12.0833L7.9167 17.9167" stroke="currentColor" stroke-linecap="round" stroke-linejoin="round" stroke-width="2"/>
</svg>
