<svg xmlns="http://www.w3.org/2000/svg" width="20" height="20" viewBox="0 0 20 20" fill="none">
  <circle cx="5.416666666666667" cy="5.416666666666667" r="3.75" stroke="currentColor" stroke-width="2"/>
  <path d="M9.1667 5H15.2302C17.112 5 18.0529 5 18.2871 5.5653 18.5213 6.1306 17.8559 6.7959 16.5253 8.1265L8.1265 16.5253C6.7959 17.8559 6.1306 18.5213 5.5653 18.2871 5 18.0529 5 17.112 5 15.2302V9.1667" stroke="currentColor" stroke-width="2"/>
  <path d="M14.5833 10H15C16.5713 10 17.357 10 17.8452 10.4882 18.3333 10.9763 18.3333 11.762 18.3333 13.3333V14.1667C18.3333 15.738 18.3333 16.5237 17.8452 17.0118 17.357 17.5 16.5713 17.5 15 17.5H14.1667C12.5953 17.5 11.8097 17.5 11.3215 17.0118 10.8333 16.5237 10.8333 15.738 10.8333 14.1667V13.75" stroke="currentColor" stroke-width="2"/>
</svg>
