<svg xmlns="http://www.w3.org/2000/svg" width="20" height="20" viewBox="0 0 20 20" fill="none">
  <path d="M15.8333 9.1667C15.8333 8.4854 15.8333 7.8588 15.7065 7.5526 15.5796 7.2463 15.3388 7.0054 14.857 6.5237L10.9099 2.5766C10.4942 2.1608 10.2863 1.953 10.0288 1.8298 9.9752 1.8042 9.9203 1.7814 9.8643 1.7617 9.5951 1.6667 9.3012 1.6667 8.7132 1.6667 6.009 1.6667 4.6569 1.6667 3.7411 2.4051 3.5561 2.5542 3.3876 2.7228 3.2384 2.9078 2.5 3.8236 2.5 5.1757 2.5 7.8799V11.6667C2.5 14.8093 2.5 16.3808 3.4763 17.357 4.4526 18.3333 6.024 18.3333 9.1667 18.3333H15.8333M10 2.0833V2.5C10 4.857 10 6.0355 10.7323 6.7678 11.4645 7.5 12.643 7.5 15 7.5H15.4167" stroke="currentColor" stroke-linecap="round" stroke-linejoin="round" stroke-width="2"/>
  <path d="M17.5 11.6667H16.25C15.7898 11.6667 15.4167 12.0397 15.4167 12.5V13.75M15.4167 13.75V15.8333M15.4167 13.75H17.0833M10.8333 11.6667H12.0833M12.0833 11.6667H13.3333M12.0833 11.6667V15.8333M10.8333 15.8333H12.0833M12.0833 15.8333H13.3333M8.75 12.5C8.75 12.0397 8.3769 11.6667 7.9167 11.6667H6.6667C6.2064 11.6667 5.8333 12.0397 5.8333 12.5V15C5.8333 15.4603 6.2064 15.8333 6.6667 15.8333H7.9167C8.3769 15.8333 8.75 15.4603 8.75 15V14.1667H7.9167" stroke="currentColor" stroke-linecap="round" stroke-linejoin="round" stroke-width="2"/>
</svg>
