<svg xmlns="http://www.w3.org/2000/svg" width="20" height="20" viewBox="0 0 20 20" fill="none">
  <path d="M1.6667 8.3333C1.6667 5.9763 1.6667 4.7978 2.3989 4.0656 3.1311 3.3333 4.3096 3.3333 6.6667 3.3333H13.3333C15.6903 3.3333 16.8688 3.3333 17.6011 4.0656 18.3333 4.7978 18.3333 5.9763 18.3333 8.3333V11.6667C18.3333 14.0237 18.3333 15.2022 17.6011 15.9344 16.8688 16.6667 15.6903 16.6667 13.3333 16.6667H6.6667C4.3096 16.6667 3.1311 16.6667 2.3989 15.9344 1.6667 15.2022 1.6667 14.0237 1.6667 11.6667V8.3333Z" stroke="currentColor" stroke-linecap="round" stroke-linejoin="round" stroke-width="2"/>
  <path d="M5 8.2536C5 4.4666 10 8.3251 10 10.8333H7.0833C5.636 10.8333 5 9.5583 5 8.2536Z" stroke="currentColor" stroke-linecap="round" stroke-linejoin="round" stroke-width="2"/>
  <path d="M15 8.2536C15 4.4666 10 8.3251 10 10.8333H12.9167C14.364 10.8333 15 9.5583 15 8.2536Z" stroke="currentColor" stroke-linecap="round" stroke-linejoin="round" stroke-width="2"/>
  <path d="M10 3.3333V16.6667" stroke="currentColor" stroke-linecap="round" stroke-linejoin="round" stroke-width="2"/>
  <path d="M1.6667 10.8333H18.3333" stroke="currentColor" stroke-linecap="round" stroke-linejoin="round" stroke-width="2"/>
  <path d="M12.5 13.3333L10 10.8333 7.5 13.3333" stroke="currentColor" stroke-linecap="round" stroke-linejoin="round" stroke-width="2"/>
</svg>
