<svg xmlns="http://www.w3.org/2000/svg" width="20" height="20" viewBox="0 0 20 20" fill="none">
  <path d="M3.3333 9.1667V12.5C3.3333 15.2498 3.3333 16.6248 4.1876 17.4791 5.0419 18.3333 6.4168 18.3333 9.1667 18.3333H10.8333C13.5832 18.3333 14.9581 18.3333 15.8124 17.4791 16.6667 16.6248 16.6667 15.2498 16.6667 12.5V9.1667" stroke="currentColor" stroke-linecap="round" stroke-linejoin="round" stroke-width="2"/>
  <path d="M2.5 7.5C2.5 6.8769 2.5 6.5654 2.6675 6.3333 2.7772 6.1813 2.935 6.0551 3.125 5.9673 3.4151 5.8333 3.8045 5.8333 4.5833 5.8333H15.4167C16.1955 5.8333 16.5849 5.8333 16.875 5.9673 17.065 6.0551 17.2228 6.1813 17.3325 6.3333 17.5 6.5654 17.5 6.8769 17.5 7.5 17.5 8.1231 17.5 8.4346 17.3325 8.6667 17.2228 8.8187 17.065 8.9449 16.875 9.0327 16.5849 9.1667 16.1955 9.1667 15.4167 9.1667H4.5833C3.8045 9.1667 3.4151 9.1667 3.125 9.0327 2.935 8.9449 2.7772 8.8187 2.6675 8.6667 2.5 8.4346 2.5 8.1231 2.5 7.5Z" stroke="currentColor" stroke-linejoin="round" stroke-width="2"/>
  <path d="M5 3.1548C5 2.3329 5.6662 1.6667 6.4881 1.6667H6.7857C8.5609 1.6667 10 3.1058 10 4.881V5.8333H7.6786C6.1992 5.8333 5 4.6341 5 3.1548Z" stroke="currentColor" stroke-linejoin="round" stroke-width="2"/>
  <path d="M15 3.1548C15 2.3329 14.3338 1.6667 13.5119 1.6667H13.2143C11.4391 1.6667 10 3.1058 10 4.881V5.8333H12.3214C13.8008 5.8333 15 4.6341 15 3.1548Z" stroke="currentColor" stroke-linejoin="round" stroke-width="2"/>
  <path d="M10 9.1667L10 18.3333" stroke="currentColor" stroke-linecap="round" stroke-linejoin="round" stroke-width="2"/>
</svg>
