<svg xmlns="http://www.w3.org/2000/svg" width="20" height="20" viewBox="0 0 20 20" fill="none">
  <path d="M12.5 5C10.5109 5 8.6033 5.7902 7.1967 7.1967 5.7902 8.6033 5 10.5109 5 12.5V2.5" stroke="currentColor" stroke-linecap="round" stroke-linejoin="round" stroke-width="2"/>
  <path d="M17.5 15H12.5" stroke="currentColor" stroke-linecap="round" stroke-linejoin="round" stroke-width="2"/>
  <path d="M15 7.5C16.3808 7.5 17.5 6.3807 17.5 5 17.5 3.6193 16.3808 2.5 15 2.5 13.6193 2.5 12.5 3.6193 12.5 5 12.5 6.3807 13.6193 7.5 15 7.5Z" stroke="currentColor" stroke-linecap="round" stroke-linejoin="round" stroke-width="2"/>
  <path d="M5 17.5C6.3807 17.5 7.5 16.3808 7.5 15 7.5 13.6193 6.3807 12.5 5 12.5 3.6193 12.5 2.5 13.6193 2.5 15 2.5 16.3808 3.6193 17.5 5 17.5Z" stroke="currentColor" stroke-linecap="round" stroke-linejoin="round" stroke-width="2"/>
</svg>
