<svg xmlns="http://www.w3.org/2000/svg" width="20" height="20" viewBox="0 0 20 20" fill="none">
  <path d="M15.8333 14.1667L15.8333 9.1667C15.8333 6.8096 15.8333 5.6311 15.1011 4.8989 14.3688 4.1667 13.1903 4.1667 10.8333 4.1667H8.3333M8.3333 4.1667C8.3333 3.5831 9.9953 2.4929 10.4167 2.0833M8.3333 4.1667C8.3333 4.7502 9.9953 5.8404 10.4167 6.25" stroke="currentColor" stroke-linecap="round" stroke-linejoin="round" stroke-width="2"/>
  <path d="M4.1667 6.25L4.1667 11.25C4.1667 13.607 4.1667 14.7855 4.8989 15.5178 5.6311 16.25 6.8096 16.25 9.1667 16.25H11.6667M11.6667 16.25C11.6667 16.8335 10.0047 17.9238 9.5833 18.3333M11.6667 16.25C11.6667 15.6665 10.0047 14.5762 9.5833 14.1667" stroke="currentColor" stroke-linecap="round" stroke-linejoin="round" stroke-width="2"/>
  <circle cx="15.833333333333334" cy="15.833333333333334" r="1.6666666666666667" stroke="currentColor" stroke-width="2"/>
  <circle cx="4.166666666666667" cy="4.166666666666667" r="1.6666666666666667" stroke="currentColor" stroke-width="2"/>
</svg>
