<svg xmlns="http://www.w3.org/2000/svg" width="20" height="20" viewBox="0 0 20 20" fill="none">
  <path d="M5 6.6667C5.9205 6.6667 6.6667 5.9205 6.6667 5 6.6667 4.0795 5.9205 3.3333 5 3.3333 4.0795 3.3333 3.3333 4.0795 3.3333 5 3.3333 5.9205 4.0795 6.6667 5 6.6667Z" stroke="currentColor" stroke-width="2"/>
  <path d="M10 16.6667C10.9205 16.6667 11.6667 15.9205 11.6667 15 11.6667 14.0795 10.9205 13.3333 10 13.3333 9.0795 13.3333 8.3333 14.0795 8.3333 15 8.3333 15.9205 9.0795 16.6667 10 16.6667Z" stroke="currentColor" stroke-width="2"/>
  <path d="M15 6.6667C15.9205 6.6667 16.6667 5.9205 16.6667 5 16.6667 4.0795 15.9205 3.3333 15 3.3333 14.0795 3.3333 13.3333 4.0795 13.3333 5 13.3333 5.9205 14.0795 6.6667 15 6.6667Z" stroke="currentColor" stroke-width="2"/>
  <path d="M5.0145 7.2839C5.0145 8.6785 4.8128 10.1663 7.6838 9.9879H10.0044M14.9941 7.1468C15.1049 9.9879 14.0999 9.804 13.1551 9.9879H10.0044M10.0044 13.0834V9.9879" stroke="currentColor" stroke-linecap="round" stroke-linejoin="round" stroke-width="2"/>
</svg>
