<svg xmlns="http://www.w3.org/2000/svg" width="20" height="20" viewBox="0 0 20 20" fill="none">
  <path d="M4.1667 7.5C5.5474 7.5 6.6667 6.3807 6.6667 5 6.6667 3.6193 5.5474 2.5 4.1667 2.5 2.786 2.5 1.6667 3.6193 1.6667 5 1.6667 6.3807 2.786 7.5 4.1667 7.5Z" stroke="currentColor" stroke-linecap="round" stroke-linejoin="round" stroke-width="2"/>
  <path d="M4.1667 7.5V12.5" stroke="currentColor" stroke-linecap="round" stroke-linejoin="round" stroke-width="2"/>
  <path d="M4.1667 17.5C5.5474 17.5 6.6667 16.3808 6.6667 15 6.6667 13.6193 5.5474 12.5 4.1667 12.5 2.786 12.5 1.6667 13.6193 1.6667 15 1.6667 16.3808 2.786 17.5 4.1667 17.5Z" stroke="currentColor" stroke-linecap="round" stroke-linejoin="round" stroke-width="2"/>
  <path d="M10 2.5V17.5" stroke="currentColor" stroke-linecap="round" stroke-linejoin="round" stroke-width="2"/>
  <path d="M15.8333 7.5C17.2141 7.5 18.3333 6.3807 18.3333 5 18.3333 3.6193 17.2141 2.5 15.8333 2.5 14.4526 2.5 13.3333 3.6193 13.3333 5 13.3333 6.3807 14.4526 7.5 15.8333 7.5Z" stroke="currentColor" stroke-linecap="round" stroke-linejoin="round" stroke-width="2"/>
  <path d="M13.3333 13.0833C14.119 12.3806 14.7477 11.5202 15.1785 10.5582 15.6093 9.5961 15.8323 8.5541 15.8333 7.5" stroke="currentColor" stroke-linecap="round" stroke-linejoin="round" stroke-width="2"/>
</svg>
