<svg xmlns="http://www.w3.org/2000/svg" width="20" height="20" viewBox="0 0 20 20" fill="none">
  <path d="M5.4311 14.261C5.7598 14.7421 6.7574 15.769 8.1181 16.0278M8.2202 18.3333C7.3632 18.1922 1.6667 16.3381 1.6667 10.0772 1.6667 4.2194 6.6682 1.6667 10.0007 1.6667 13.333 1.6667 18.3333 4.2194 18.3333 10.0772 18.3333 16.3381 12.6368 18.1922 11.7797 18.3333 11.7797 18.3333 11.6056 15.4855 11.7073 14.9974 11.8088 14.5094 11.4627 13.724 11.4627 13.724 12.2718 13.4213 13.5036 12.9872 13.9168 11.8228 14.2373 10.9193 14.439 9.6073 13.5423 8.3741 13.5423 8.3741 13.7765 6.3817 13.333 6.3046 12.8896 6.2274 11.5832 7.0933 11.5832 7.0933 11.2027 6.9854 10.3536 6.779 10.0015 6.8162 9.6493 6.779 8.7973 6.9854 8.4168 7.0933 8.4168 7.0933 7.1104 6.2274 6.667 6.3046 6.2235 6.3817 6.4576 8.3741 6.4576 8.3741 5.561 9.6073 5.7626 10.9193 6.0833 11.8228 6.4965 12.9872 7.7282 13.4213 8.5373 13.724 8.5373 13.724 8.1912 14.5094 8.2928 14.9974 8.3944 15.4855 8.2202 18.3333 8.2202 18.3333Z" stroke="currentColor" stroke-linecap="round" stroke-linejoin="round" stroke-width="2"/>
</svg>
