<svg xmlns="http://www.w3.org/2000/svg" width="20" height="20" viewBox="0 0 20 20" fill="none">
  <path d="M8.3333 17.1396C5.4762 18.104 3.0952 17.1396 1.6667 14.1667" stroke="currentColor" stroke-linecap="round" stroke-linejoin="round" stroke-width="2"/>
  <path d="M8.3333 18.3333V15.6316C8.3333 15.133 8.4866 14.6997 8.7337 14.3082 8.9032 14.0397 8.7871 13.6587 8.4809 13.5745 5.945 12.8773 4.1667 11.7564 4.1667 8.0384 4.1667 7.0718 4.4834 6.163 5.0401 5.372 5.1786 5.1752 5.2479 5.0767 5.2646 4.9876 5.2812 4.8984 5.2523 4.7821 5.1944 4.5494 4.9587 3.6024 4.9739 2.5968 5.3277 1.6902 5.3277 1.6902 6.0587 1.452 7.7225 2.4914 8.1024 2.7287 8.2923 2.8474 8.4596 2.8739 8.6268 2.9005 8.8505 2.8449 9.2978 2.7337 9.9094 2.5816 10.5397 2.5 11.25 2.5 11.9603 2.5 12.5906 2.5816 13.2023 2.7337 13.6495 2.8449 13.8732 2.9005 14.0404 2.8739 14.2077 2.8474 14.3977 2.7287 14.7775 2.4914 16.4413 1.452 17.1723 1.6902 17.1723 1.6902 17.5261 2.5968 17.5413 3.6024 17.3057 4.5494 17.2477 4.7821 17.2188 4.8984 17.2354 4.9876 17.2521 5.0767 17.3213 5.1752 17.4599 5.372 18.0166 6.163 18.3333 7.0718 18.3333 8.0384 18.3333 11.7564 16.5551 12.8773 14.0191 13.5745 13.7129 13.6587 13.5968 14.0397 13.7663 14.3082 14.0134 14.6997 14.1667 15.133 14.1667 15.6316V18.3333" stroke="currentColor" stroke-linecap="round" stroke-linejoin="round" stroke-width="2"/>
</svg>
