<svg xmlns="http://www.w3.org/2000/svg" width="20" height="20" viewBox="0 0 20 20" fill="none">
  <path d="M18.1647 10.9032C18.3085 11.4298 18.3805 11.6931 18.2995 11.9357 18.2184 12.1783 18.0026 12.3458 17.5709 12.681L11.039 17.7521C10.5398 18.1396 10.2903 18.3333 10 18.3333 9.7097 18.3333 9.4602 18.1396 8.961 17.7521L2.4291 12.681C1.9974 12.3458 1.7816 12.1783 1.7005 11.9357 1.6195 11.6931 1.6915 11.4298 1.8354 10.9032L4.359 1.6667 6.7399 7.212C6.9531 7.7085 7.0597 7.9568 7.2717 8.0963 7.4836 8.2358 7.7542 8.2358 8.2954 8.2358H11.7046C12.2458 8.2358 12.5164 8.2358 12.7283 8.0963 12.9403 7.9568 13.0469 7.7085 13.2601 7.212L15.641 1.6667 18.1647 10.9032Z" stroke="currentColor" fill-rule="evenodd" clip-rule="evenodd" stroke-linecap="round" stroke-linejoin="round" stroke-width="2"/>
</svg>
