<svg xmlns="http://www.w3.org/2000/svg" width="20" height="20" viewBox="0 0 20 20" fill="none">
  <path d="M10 5H10.8333C12.391 5 13.1698 5 13.75 5.3349 14.1301 5.5544 14.4457 5.87 14.6651 6.25 15 6.8301 15 7.609 15 9.1667" stroke="currentColor" stroke-linecap="round" stroke-linejoin="round" stroke-width="2"/>
  <path d="M5 10V17.5" stroke="currentColor" stroke-linecap="round" stroke-linejoin="round" stroke-width="2"/>
  <path d="M7.5 2.5L2.5 7.5" stroke="currentColor" stroke-linecap="round" stroke-linejoin="round" stroke-width="2"/>
  <path d="M7.5 7.5L2.5 2.5" stroke="currentColor" stroke-linecap="round" stroke-linejoin="round" stroke-width="2"/>
  <path d="M15 17.5C16.3808 17.5 17.5 16.3808 17.5 15 17.5 13.6193 16.3808 12.5 15 12.5 13.6193 12.5 12.5 13.6193 12.5 15 12.5 16.3808 13.6193 17.5 15 17.5Z" stroke="currentColor" stroke-linecap="round" stroke-linejoin="round" stroke-width="2"/>
</svg>
