<svg xmlns="http://www.w3.org/2000/svg" width="20" height="20" viewBox="0 0 20 20" fill="none">
  <path d="M5.8333 16.6667C6.7538 16.6667 7.5 15.9205 7.5 15 7.5 14.0795 6.7538 13.3333 5.8333 13.3333 4.9129 13.3333 4.1667 14.0795 4.1667 15 4.1667 15.9205 4.9129 16.6667 5.8333 16.6667Z" stroke="currentColor" stroke-width="2"/>
  <path d="M5.8333 6.6667C6.7538 6.6667 7.5 5.9205 7.5 5 7.5 4.0795 6.7538 3.3333 5.8333 3.3333 4.9129 3.3333 4.1667 4.0795 4.1667 5 4.1667 5.9205 4.9129 6.6667 5.8333 6.6667Z" stroke="currentColor" stroke-width="2"/>
  <path d="M14.1667 11.6667C15.0872 11.6667 15.8333 10.9205 15.8333 10 15.8333 9.0795 15.0872 8.3333 14.1667 8.3333 13.2462 8.3333 12.5 9.0795 12.5 10 12.5 10.9205 13.2462 11.6667 14.1667 11.6667Z" stroke="currentColor" stroke-width="2"/>
  <path d="M5.851 6.8994V12.8394M12.0094 10.0039L8.3494 10.004C7.4347 10.004 5.7182 9.2712 5.8485 7.3167" stroke="currentColor" stroke-linecap="round" stroke-linejoin="round" stroke-width="2"/>
</svg>
