<svg xmlns="http://www.w3.org/2000/svg" width="20" height="20" viewBox="0 0 20 20" fill="none">
  <path d="M4.1667 7.5C5.5474 7.5 6.6667 6.3807 6.6667 5 6.6667 3.6193 5.5474 2.5 4.1667 2.5 2.786 2.5 1.6667 3.6193 1.6667 5 1.6667 6.3807 2.786 7.5 4.1667 7.5Z" stroke="currentColor" stroke-linecap="round" stroke-linejoin="round" stroke-width="2"/>
  <path d="M4.1667 10.8333V17.5" stroke="currentColor" stroke-linecap="round" stroke-linejoin="round" stroke-width="2"/>
  <path d="M10 5H11.6667C13.2243 5 14.0032 5 14.5833 5.3349 14.9634 5.5544 15.279 5.87 15.4984 6.25 15.8333 6.8301 15.8333 7.609 15.8333 9.1667M12.5 2.5C12.5 2.5 10 4.3412 10 5 10 5.6588 12.5 7.5 12.5 7.5" stroke="currentColor" stroke-linecap="round" stroke-linejoin="round" stroke-width="2"/>
  <path d="M15.8333 12.5V17.5M18.3333 15H13.3333" stroke="currentColor" stroke-linecap="round" stroke-linejoin="round" stroke-width="2"/>
</svg>
