<svg xmlns="http://www.w3.org/2000/svg" width="20" height="20" viewBox="0 0 20 20" fill="none">
  <path d="M7.5 6.2892C7.5 4.633 8.9043 2.9963 9.8898 2.0515 10.4252 1.5384 11.2415 1.5384 11.7768 2.0515 12.7624 2.9963 14.1667 4.633 14.1667 6.2892 14.1667 7.9131 12.9044 9.5833 10.8333 9.5833 8.7622 9.5833 7.5 7.9131 7.5 6.2892Z" stroke="currentColor" stroke-width="2"/>
  <path d="M3.3333 11.6667H5.329C5.5741 11.6667 5.8159 11.7219 6.0351 11.828L7.7368 12.6513C7.956 12.7574 8.1978 12.8126 8.4429 12.8126H9.3117C10.1521 12.8126 10.8333 13.4718 10.8333 14.285 10.8333 14.3178 10.8108 14.3468 10.7782 14.3558L8.6608 14.9413C8.2809 15.0462 7.8742 15.0097 7.5208 14.8387L5.7018 13.9586" stroke="currentColor" stroke-linecap="round" stroke-linejoin="round" stroke-width="2"/>
  <path d="M10.8333 13.75L14.6607 12.5741C15.3392 12.3627 16.0726 12.6133 16.4976 13.2019 16.8049 13.6274 16.6797 14.2368 16.2321 14.4952L9.9691 18.1088C9.5708 18.3386 9.1007 18.3947 8.6627 18.2647L3.3333 16.6833" stroke="currentColor" stroke-linecap="round" stroke-linejoin="round" stroke-width="2"/>
</svg>
