<svg xmlns="http://www.w3.org/2000/svg" width="20" height="20" viewBox="0 0 20 20" fill="none">
  <path d="M11.5143 1.6667H8.4858C6.3087 1.6667 5.2202 1.6667 4.6046 2.3712 3.9891 3.0758 4.1241 4.1673 4.3941 6.3501L5.365 14.1988C5.5935 16.0453 5.7077 16.9685 6.2785 17.5675 6.3712 17.6648 6.4716 17.7543 6.5787 17.8353 7.2377 18.3333 8.1585 18.3333 10 18.3333 11.8416 18.3333 12.7623 18.3333 13.4213 17.8353 13.5283 17.7543 13.6288 17.6648 13.7215 17.5675 14.2923 16.9685 14.4065 16.0453 14.6349 14.1988L15.6059 6.3501C15.8759 4.1673 16.0109 3.0758 15.3954 2.3712 14.7798 1.6667 13.6913 1.6667 11.5143 1.6667Z" stroke="currentColor" stroke-linecap="round" stroke-linejoin="round" stroke-width="2"/>
  <path d="M5 8.3333C5.7212 7.7924 6.5985 7.5 7.5 7.5 8.4016 7.5 9.2788 7.7924 10 8.3333 10.7213 8.8743 11.5984 9.1667 12.5 9.1667 13.4016 9.1667 14.2788 8.8743 15 8.3333" stroke="currentColor" stroke-linecap="round" stroke-linejoin="round" stroke-width="2"/>
</svg>
