<svg xmlns="http://www.w3.org/2000/svg" width="20" height="20" viewBox="0 0 20 20" fill="none">
  <path d="M6.25 16.6667H5.3785C4.2444 16.6667 3.6774 16.6667 3.2658 16.4023 3.0647 16.273 2.8937 16.102 2.7644 15.9008 2.5 15.4893 2.5 14.9223 2.5 13.7882 2.5 13.4244 2.5 13.2425 2.4621 13.0678 2.4431 12.9806 2.4173 12.8951 2.3846 12.812 2.3193 12.6456 2.2184 12.4943 2.0166 12.1915L1.6667 11.6667H6.25C7.0266 11.6667 7.4148 11.6667 7.7211 11.7935 8.1295 11.9627 8.454 12.2872 8.6232 12.6955 8.75 13.0018 8.75 13.3901 8.75 14.1667 8.75 14.9432 8.75 15.3315 8.6232 15.6378 8.454 16.0462 8.1295 16.3707 7.7211 16.5398 7.4148 16.6667 7.0266 16.6667 6.25 16.6667Z" stroke="currentColor" stroke-linecap="round" stroke-linejoin="round" stroke-width="2"/>
  <path d="M13.75 16.6667H14.6215C15.7556 16.6667 16.3226 16.6667 16.7342 16.4023 16.9353 16.273 17.1063 16.102 17.2356 15.9008 17.5 15.4893 17.5 14.9223 17.5 13.7882 17.5 13.4244 17.5 13.2425 17.5379 13.0678 17.5568 12.9806 17.5828 12.8951 17.6153 12.812 17.6807 12.6456 17.7817 12.4943 17.9834 12.1915L18.3333 11.6667H13.75C12.9734 11.6667 12.5852 11.6667 12.2788 11.7935 11.8705 11.9627 11.546 12.2872 11.3768 12.6955 11.25 13.0018 11.25 13.3901 11.25 14.1667 11.25 14.9432 11.25 15.3315 11.3768 15.6378 11.546 16.0462 11.8705 16.3707 12.2788 16.5398 12.5852 16.6667 12.9734 16.6667 13.75 16.6667Z" stroke="currentColor" stroke-linecap="round" stroke-linejoin="round" stroke-width="2"/>
  <path d="M18.3333 11.6667L15.4383 4.5535C15.1972 3.9612 15.0767 3.665 14.9102 3.5238 14.6642 3.3151 14.3338 3.2746 14.0524 3.4187 13.8621 3.5163 13.6858 3.7761 13.3333 4.2957" stroke="currentColor" stroke-linecap="round" stroke-linejoin="round" stroke-width="2"/>
  <path d="M1.6667 11.6667L4.5617 4.5535C4.8028 3.9612 4.9234 3.665 5.0898 3.5238 5.3358 3.3151 5.6662 3.2746 5.9475 3.4187 6.1379 3.5163 6.3142 3.7761 6.6667 4.2957" stroke="currentColor" stroke-linecap="round" stroke-linejoin="round" stroke-width="2"/>
  <path d="M8.75 13.3333C8.75 12.643 9.3097 12.0833 10 12.0833 10.6903 12.0833 11.25 12.643 11.25 13.3333" stroke="currentColor" stroke-width="2"/>
</svg>
