<svg xmlns="http://www.w3.org/2000/svg" width="20" height="20" viewBox="0 0 20 20" fill="none">
  <path d="M10 18.3333C5.3976 18.3333 1.6667 14.6023 1.6667 10 1.6667 5.3976 5.3976 1.6667 10 1.6667 14.0316 1.6667 17.3945 4.5296 18.1667 8.3333" stroke="currentColor" stroke-linecap="round" stroke-linejoin="round" stroke-width="2"/>
  <path d="M10 18.3333C8.1591 18.3333 6.6667 14.6023 6.6667 10 6.6667 5.3976 8.1591 1.6667 10 1.6667 11.6127 1.6667 12.9578 4.5296 13.2667 8.3333" stroke="currentColor" stroke-linecap="round" stroke-linejoin="round" stroke-width="2"/>
  <path d="M10 10H1.6667" stroke="currentColor" stroke-linecap="round" stroke-linejoin="round" stroke-width="2"/>
  <path d="M17.0833 13.75V12.5C17.0833 11.5795 16.3372 10.8333 15.4167 10.8333 14.4962 10.8333 13.75 11.5795 13.75 12.5V13.75M17.0833 13.75H13.75M17.0833 13.75C17.7737 13.75 18.3333 14.3097 18.3333 15V15.625C18.3333 16.2074 18.3333 16.4987 18.2382 16.7283 18.1113 17.0347 17.868 17.278 17.5617 17.4048 17.332 17.5 17.0407 17.5 16.4583 17.5H14.375C13.7926 17.5 13.5013 17.5 13.2717 17.4048 12.9653 17.278 12.722 17.0347 12.5952 16.7283 12.5 16.4987 12.5 16.2074 12.5 15.625V15C12.5 14.3097 13.0597 13.75 13.75 13.75" stroke="currentColor" stroke-linecap="round" stroke-linejoin="round" stroke-width="2"/>
</svg>
