<svg xmlns="http://www.w3.org/2000/svg" width="20" height="20" viewBox="0 0 20 20" fill="none">
  <path d="M8.3979 18.3334C4.557 17.5518 1.6667 14.1557 1.6667 10.0847 1.6667 5.4356 5.4361 1.6667 10.0859 1.6667 14.1532 1.6667 17.5468 4.5504 18.3333 8.3845" stroke="currentColor" stroke-linecap="round" stroke-width="2"/>
  <path d="M15.361 11.5404C15.6404 11.2377 15.7802 11.0862 15.9286 10.998 16.2868 10.7849 16.728 10.7783 17.0922 10.9805 17.2432 11.0643 17.3872 11.2114 17.6753 11.5057 17.9633 11.7999 18.1073 11.947 18.1893 12.1013 18.3872 12.4733 18.3807 12.9239 18.1722 13.2899 18.0858 13.4416 17.9376 13.5843 17.6412 13.8697L14.1148 17.2662C13.5532 17.8072 13.2723 18.0777 12.9213 18.2148 12.5704 18.3518 12.1845 18.3418 11.4128 18.3216L11.3078 18.3188C11.0729 18.3128 10.9555 18.3097 10.8872 18.2322 10.8189 18.1547 10.8283 18.035 10.8468 17.7957L10.857 17.6657C10.9095 16.9922 10.9357 16.6554 11.0672 16.3528 11.1988 16.05 11.4256 15.8042 11.8793 15.3126L15.361 11.5404Z" stroke="currentColor" stroke-linejoin="round" stroke-width="2"/>
  <path d="M16.6667 4.7492C15.8878 4.8054 14.8901 5.1069 14.1983 6.0024 12.9488 7.6197 11.6992 7.7547 10.8662 7.2156 9.6166 6.4069 10.6667 5.097 9.2001 4.3852 8.2443 3.9212 8.111 2.6588 8.643 1.6667" stroke="currentColor" stroke-linejoin="round" stroke-width="2"/>
  <path d="M1.6667 9.1668C2.3021 9.7185 3.1921 10.2236 4.2406 10.2236 6.407 10.2236 6.8403 10.6375 6.8403 12.2933 6.8403 13.9489 6.8403 13.9489 7.2736 15.1907 7.5554 15.9985 7.6539 16.8063 7.0922 17.5001" stroke="currentColor" stroke-linejoin="round" stroke-width="2"/>
</svg>
