<svg xmlns="http://www.w3.org/2000/svg" width="20" height="20" viewBox="0 0 20 20" fill="none">
  <path d="M16.4519 14.5762L17.1597 14.9512C17.6562 15.2142 17.9044 15.3457 18.135 15.1943 18.3655 15.0428 18.3478 14.8051 18.3122 14.3298 18.1082 11.5998 14.7273 9.7276 12.3893 11.5701M12.7132 14.5762L12.0054 14.2013C11.5093 13.9385 11.2613 13.8071 11.0304 13.9596 10.7996 14.1121 10.8185 14.3489 10.8563 14.8227 11.072 17.5299 14.4335 19.4278 16.7138 17.6262" stroke="currentColor" stroke-linecap="round" stroke-linejoin="round" stroke-width="2"/>
  <path d="M9.1756 18.3333C4.9595 17.9142 1.6667 14.3524 1.6667 10.0206 1.6667 5.4069 5.402 1.6667 10.0098 1.6667 14.4233 1.6667 18.0364 5.098 18.3333 9.4417" stroke="currentColor" stroke-linecap="round" stroke-width="2"/>
  <path d="M16.6667 4.7492C15.8878 4.8053 14.8901 5.1069 14.1983 6.0023 12.9488 7.6197 11.6992 7.7546 10.8662 7.2155 9.6166 6.4068 10.6667 5.097 9.2001 4.3851 8.2443 3.9212 8.111 2.6587 8.643 1.6667" stroke="currentColor" stroke-linejoin="round" stroke-width="2"/>
  <path d="M1.6667 9.1667C2.3021 9.7184 3.1921 10.2235 4.2406 10.2235 6.407 10.2235 6.8403 10.6374 6.8403 12.2932 6.8403 13.9489 6.8403 13.9489 7.2736 15.1907 7.5554 15.9984 7.6539 16.8062 7.0922 17.5" stroke="currentColor" stroke-linejoin="round" stroke-width="2"/>
</svg>
