<svg xmlns="http://www.w3.org/2000/svg" width="20" height="20" viewBox="0 0 20 20" fill="none">
  <path d="M18.3333 10C18.3333 5.3976 14.6023 1.6667 10 1.6667 5.3976 1.6667 1.6667 5.3976 1.6667 10 1.6667 14.6023 5.3976 18.3333 10 18.3333 14.6023 18.3333 18.3333 14.6023 18.3333 10Z" stroke="currentColor" stroke-width="2"/>
  <path d="M16.6667 4.7492C15.8878 4.8053 14.8901 5.1069 14.1983 6.0023 12.9488 7.6197 11.6992 7.7546 10.8662 7.2155 9.6166 6.4068 10.6667 5.097 9.2001 4.3851 8.2443 3.9212 8.111 2.6587 8.643 1.6667" stroke="currentColor" stroke-linejoin="round" stroke-width="2"/>
  <path d="M1.6667 9.1667C2.3021 9.7184 3.1921 10.2235 4.2406 10.2235 6.407 10.2235 6.8403 10.6374 6.8403 12.2932 6.8403 13.9489 6.8403 13.9489 7.2736 15.1907 7.5554 15.9984 7.6539 16.8062 7.0922 17.5" stroke="currentColor" stroke-linejoin="round" stroke-width="2"/>
  <path d="M18.3333 11.2103C17.5941 10.7843 16.6667 10.609 15.7278 11.2837 13.9314 12.5748 12.6928 11.505 12.1349 12.5741 11.3138 14.1479 14.2464 14.6426 11.6667 18.3333" stroke="currentColor" stroke-linejoin="round" stroke-width="2"/>
</svg>
