<svg xmlns="http://www.w3.org/2000/svg" width="20" height="20" viewBox="0 0 20 20" fill="none">
  <path d="M11.0684 17.5H10.1683C8.5546 17.5 7.7477 17.5 7.0533 17.1481 6.359 16.7962 5.8748 16.1419 4.9066 14.8333L2.8453 12.0476C2.3298 11.3508 2.3982 10.3759 3.0057 9.7601 3.7486 9.0071 4.9773 9.0956 5.6077 9.9476L6.8797 11.6667V7.8506C6.8797 7.5251 6.8797 7.3623 6.8872 7.2248 7.0256 4.6799 9.0304 2.6479 11.5411 2.5076 11.6768 2.5 11.8373 2.5 12.1584 2.5 12.5307 2.5 12.7168 2.5 12.8667 2.5093 15.6699 2.6824 17.7651 5.1894 17.4728 8.0205 17.4571 8.1719 17.4265 8.358 17.3653 8.7302L16.7214 12.646C16.3984 14.6106 16.2369 15.5928 15.6798 16.2811 15.4276 16.5926 15.1218 16.8552 14.7772 17.0561 14.0158 17.5 13.0333 17.5 11.0684 17.5Z" stroke="currentColor" stroke-linecap="round" stroke-linejoin="round" stroke-width="2"/>
  <path d="M15.8333 14.1667H10" stroke="currentColor" stroke-linecap="round" stroke-linejoin="round" stroke-width="2"/>
</svg>
