<svg xmlns="http://www.w3.org/2000/svg" width="20" height="20" viewBox="0 0 20 20" fill="none">
  <path d="M10 10C12.1523 10 14.086 10.3219 15.4167 10.8333 15.4167 10.0168 15.1853 9.2169 14.7492 8.5265L10.6392 2.019C10.5007 1.7997 10.2594 1.6667 10 1.6667 9.7406 1.6667 9.4993 1.7997 9.3608 2.019L5.2508 8.5265C4.8148 9.2169 4.5833 10.0168 4.5833 10.8333 5.914 10.3219 7.8477 10 10 10Z" stroke="currentColor" stroke-linecap="round" stroke-linejoin="round" stroke-width="2"/>
  <path d="M13.3333 10.4167C13.3333 10.4167 13.75 11.0833 13.75 12.0833 13.75 12.0833 13.75 13.75 12.5 13.75 11.25 13.75 11.25 12.5 10 12.5 8.75 12.5 8.75 13.75 7.5 13.75 6.25 13.75 6.25 12.0833 6.25 12.0833 6.25 11.0833 6.6667 10.4167 6.6667 10.4167" stroke="currentColor" stroke-linecap="round" stroke-linejoin="round" stroke-width="2"/>
  <path d="M15.4167 10.8333C15.4167 10.8333 15.8333 11.5833 15.8333 12.9167 15.8333 14.5833 14.7821 15.5257 13.3333 16.25 12.1579 16.8378 11.1898 17.6327 10.7211 18.0503 10.5219 18.2278 10.2668 18.3333 10 18.3333 9.7332 18.3333 9.4781 18.2278 9.2789 18.0503 8.8102 17.6327 7.8421 16.8378 6.6667 16.25 5.218 15.5257 4.1667 14.5833 4.1667 12.9167 4.1667 11.5833 4.5833 10.8333 4.5833 10.8333" stroke="currentColor" stroke-linecap="round" stroke-linejoin="round" stroke-width="2"/>
</svg>
