<svg xmlns="http://www.w3.org/2000/svg" width="20" height="20" viewBox="0 0 20 20" fill="none">
  <path d="M9.1667 5.918C7.2648 6.304 5.8333 7.9855 5.8333 10.0013 5.8333 12.3025 7.6988 14.1679 10 14.1679 12.0158 14.1679 13.6972 12.7365 14.0833 10.8346" stroke="currentColor" stroke-linecap="round" stroke-linejoin="round" stroke-width="2"/>
  <path d="M18.3333 10C18.3333 14.6023 14.6023 18.3333 10 18.3333 5.3976 18.3333 1.6667 14.6023 1.6667 10 1.6667 5.3976 5.3976 1.6667 10 1.6667" stroke="currentColor" stroke-linecap="round" stroke-linejoin="round" stroke-width="2"/>
  <path d="M12.0833 5.9294V7.9167H14.0706C14.764 7.9167 15.1107 7.9167 15.4223 7.7876 15.7341 7.6584 15.9793 7.4133 16.4695 6.923L16.7481 6.6445C17.5429 5.8496 17.9403 5.4522 17.9156 5.0691 17.9062 4.9232 17.8592 4.7822 17.7792 4.6599 17.5692 4.3386 17.0128 4.2591 15.8999 4.1001 15.7409 2.9873 15.6614 2.4308 15.3401 2.2208 15.2177 2.1409 15.0768 2.0939 14.9309 2.0844 14.5478 2.0596 14.1504 2.4571 13.3555 3.252L13.077 3.5305C12.5868 4.0208 12.3416 4.2659 12.2124 4.5776 12.0833 4.8894 12.0833 5.236 12.0833 5.9294Z" stroke="currentColor" stroke-linecap="round" stroke-linejoin="round" stroke-width="2"/>
  <path d="M12.0833 7.9167L10 10" stroke="currentColor" stroke-linecap="round" stroke-linejoin="round" stroke-width="2"/>
</svg>
