<svg xmlns="http://www.w3.org/2000/svg" width="20" height="20" viewBox="0 0 20 20" fill="none">
  <path d="M10 4.1667L9.0801 2.8788C8.7376 2.3993 8.5663 2.1595 8.6744 1.9368 8.7826 1.714 9.0574 1.7013 9.6072 1.6758 9.7373 1.6697 9.8683 1.6667 10 1.6667 14.6023 1.6667 18.3333 5.3976 18.3333 10 18.3333 14.6023 14.6023 18.3333 10 18.3333 5.3976 18.3333 1.6667 14.6023 1.6667 10 1.6667 7.2736 2.9759 4.8531 5 3.3327" stroke="currentColor" stroke-linecap="round" stroke-linejoin="round" stroke-width="2"/>
  <path d="M6.6667 9.1664C7.1067 8.8164 7.5067 8.2393 7.7567 8.3464 8.0067 8.4535 7.9267 8.8064 7.9267 9.3564 7.9267 9.9064 7.9267 12.2337 7.9267 13.3364" stroke="currentColor" stroke-linecap="round" stroke-width="2"/>
  <path d="M13.3333 8.3333H11.1329C10.9343 8.3333 10.7633 8.4735 10.7243 8.6683L10.42 10.42C10.95 10.2 11.2172 10.1191 11.8138 10.1191 12.6772 10.1191 13.42 10.65 13.335 11.75 13.35 13.05 12.3 13.35 11.8138 13.3333 11.3276 13.3167 10.55 13.5 10.4167 12.5" stroke="currentColor" stroke-linecap="round" stroke-linejoin="round" stroke-width="2"/>
</svg>
