<svg xmlns="http://www.w3.org/2000/svg" width="20" height="20" viewBox="0 0 20 20" fill="none">
  <path d="M10 4.1667L9.0801 2.8788C8.7376 2.3993 8.5663 2.1595 8.6744 1.9368 8.7826 1.714 9.0574 1.7013 9.6072 1.6758 9.7373 1.6697 9.8683 1.6667 10 1.6667 14.6023 1.6667 18.3333 5.3976 18.3333 10 18.3333 14.6023 14.6023 18.3333 10 18.3333 5.3976 18.3333 1.6667 14.6023 1.6667 10 1.6667 7.2736 2.9759 4.8531 5 3.3327" stroke="currentColor" stroke-linecap="round" stroke-linejoin="round" stroke-width="2"/>
  <path d="M11.6667 8.3333H9.0916C8.893 8.3333 8.722 8.4735 8.683 8.6683L8.3333 10.4167C8.9114 10.279 9.4629 10.1191 10.0595 10.1191 10.9471 10.1191 11.6667 10.8386 11.6667 11.7262 11.6667 12.6137 10.9471 13.3333 10.0595 13.3333 9.37 13.3333 8.5523 13.3477 8.3599 12.5" stroke="currentColor" stroke-linecap="round" stroke-linejoin="round" stroke-width="2"/>
</svg>
