<svg xmlns="http://www.w3.org/2000/svg" width="20" height="20" viewBox="0 0 20 20" fill="none">
  <path d="M10 4.1667L10.9199 2.8788C11.2624 2.3993 11.4337 2.1595 11.3256 1.9368 11.2174 1.714 10.9426 1.7013 10.3928 1.6758 10.2627 1.6697 10.1317 1.6667 10 1.6667 5.3977 1.6667 1.6667 5.3976 1.6667 10 1.6667 14.6023 5.3977 18.3333 10 18.3333 14.6024 18.3333 18.3333 14.6023 18.3333 10 18.3333 7.2736 17.0241 4.8531 15 3.3327" stroke="currentColor" stroke-linecap="round" stroke-linejoin="round" stroke-width="2"/>
  <path d="M6.6602 9.17C7.1002 8.82 7.5002 8.2429 7.7502 8.35 8.0002 8.4572 7.9202 8.81 7.9202 9.36 7.9202 9.91 7.9202 12.2372 7.9202 13.34" stroke="currentColor" stroke-linecap="round" stroke-width="2"/>
  <path d="M13.3352 10.5C13.3352 9.35 13.3902 9.04 13.1702 8.67 12.9502 8.3 12.4002 8.332 11.8502 8.332 11.3002 8.332 10.9002 8.3 10.6352 8.6 10.3102 8.95 10.4502 9.6 10.4102 10.5 10.5002 11.7 10.2552 12.65 10.6302 13.05 10.9002 13.38 11.3794 13.33 11.9502 13.34 12.5168 13.3331 12.8602 13.36 13.1402 13.04 13.4502 12.76 13.3002 11.65 13.3352 10.5Z" stroke="currentColor" stroke-linecap="round" stroke-width="2"/>
</svg>
