<svg xmlns="http://www.w3.org/2000/svg" width="20" height="20" viewBox="0 0 20 20" fill="none">
  <path d="M10 4.1667L10.9199 2.8788C11.2624 2.3993 11.4337 2.1595 11.3256 1.9368 11.2174 1.714 10.9426 1.7013 10.3928 1.6758 10.2627 1.6697 10.1317 1.6667 10 1.6667 5.3977 1.6667 1.6667 5.3976 1.6667 10 1.6667 14.6023 5.3977 18.3333 10 18.3333 14.6024 18.3333 18.3333 14.6023 18.3333 10 18.3333 7.2736 17.0241 4.8531 15 3.3327" stroke="currentColor" stroke-linecap="round" stroke-linejoin="round" stroke-width="2"/>
  <path d="M6.6667 9.1664C7.1067 8.8164 7.5067 8.2393 7.7567 8.3464 8.0067 8.4535 7.9267 8.8064 7.9267 9.3564 7.9267 9.9064 7.9267 12.2337 7.9267 13.3364" stroke="currentColor" stroke-linecap="round" stroke-width="2"/>
  <path d="M13.3333 8.3333H11.1329C10.9343 8.3333 10.7633 8.4735 10.7243 8.6683L10.42 10.42C10.95 10.2 11.2172 10.1191 11.8138 10.1191 12.6772 10.1191 13.42 10.65 13.335 11.75 13.35 13.05 12.3 13.35 11.8138 13.3333 11.3276 13.3167 10.55 13.5 10.4167 12.5" stroke="currentColor" stroke-linecap="round" stroke-linejoin="round" stroke-width="2"/>
</svg>
