<svg xmlns="http://www.w3.org/2000/svg" width="20" height="20" viewBox="0 0 20 20" fill="none">
  <path d="M10 4.1667L10.9199 2.8788C11.2624 2.3993 11.4337 2.1595 11.3256 1.9368 11.2174 1.714 10.9426 1.7013 10.3928 1.6758 10.2627 1.6697 10.1317 1.6667 10 1.6667 5.3977 1.6667 1.6667 5.3976 1.6667 10 1.6667 14.6023 5.3977 18.3333 10 18.3333 14.6024 18.3333 18.3333 14.6023 18.3333 10 18.3333 7.2736 17.0241 4.8531 15 3.3327" stroke="currentColor" stroke-linecap="round" stroke-linejoin="round" stroke-width="2"/>
  <path d="M13.9602 10.5C13.9602 9.35 14.0152 9.04 13.7952 8.67 13.5752 8.3 13.0252 8.332 12.4752 8.332 11.9252 8.332 11.5252 8.3 11.2602 8.6 10.9352 8.95 11.0752 9.6 11.0352 10.5 11.1252 11.7 10.8802 12.65 11.2552 13.05 11.5252 13.38 12.0044 13.33 12.5752 13.34 13.1418 13.3331 13.4852 13.36 13.7652 13.04 14.0752 12.76 13.9252 11.65 13.9602 10.5Z" stroke="currentColor" stroke-linecap="round" stroke-width="2"/>
  <path d="M6.04 9.27C6.15 8.4 6.85 8.3 7.55 8.335 8.1 8.31 8.95 8.35 8.96 9.6 8.95 10.9 7.92 10.8093 7.92 10.83 7.92 10.8507 9 10.8 8.96 12.1 8.95 13.25 8.2 13.37 7.5 13.33 6.8 13.38 6.15 13.2 6.04 12.4" stroke="currentColor" stroke-linecap="round" stroke-width="2"/>
</svg>
