<svg xmlns="http://www.w3.org/2000/svg" width="20" height="20" viewBox="0 0 20 20" fill="none">
  <path d="M10 4.1667L10.9199 2.8788C11.2624 2.3993 11.4337 2.1595 11.3256 1.9368 11.2174 1.714 10.9426 1.7013 10.3928 1.6758 10.2627 1.6697 10.1317 1.6667 10 1.6667 5.3977 1.6667 1.6667 5.3976 1.6667 10 1.6667 14.6023 5.3977 18.3333 10 18.3333 14.6024 18.3333 18.3333 14.6023 18.3333 10 18.3333 7.2736 17.0241 4.8531 15 3.3327" stroke="currentColor" stroke-linecap="round" stroke-linejoin="round" stroke-width="2"/>
  <path d="M13.7541 10.4949C13.7502 9.3498 13.8067 9.0375 13.5965 8.6682 13.3863 8.2988 12.861 8.3308 12.3357 8.3308 11.8103 8.3308 11.4502 8.3308 11.205 8.5883 10.9283 8.9157 11.0002 9.2498 10.9882 10.4849 11.0002 12.1997 10.9002 12.7998 11.2002 13.0498 11.5002 13.3997 11.886 13.3198 12.4312 13.3298 12.9724 13.3229 13.3004 13.3498 13.5678 13.0303 13.864 12.7508 13.7207 11.6428 13.7541 10.4949Z" stroke="currentColor" stroke-linecap="round" stroke-width="2"/>
  <path d="M8.9699 9.16C8.9499 8.55 8.6225 8.33 7.661 8.33 6.6221 8.3177 6.2599 8.35 6.2499 9.5 6.2499 10.5 6.2499 10.8 6.2499 12.3 6.2499 13.55 7.1999 13.305 7.6999 13.335 8.0999 13.305 8.9563 13.5313 9.0149 12.25 8.9499 11.05 8.4999 11.05 7.6999 11.05 6.5999 11.05 6.5499 11.05 6.2499 11.7242" stroke="currentColor" stroke-linecap="round" stroke-width="2"/>
</svg>
