<svg xmlns="http://www.w3.org/2000/svg" width="20" height="20" viewBox="0 0 20 20" fill="none">
  <path d="M16.6667 11.5396C17.2345 10.8456 17.5138 10.3051 17.4995 9.7008 17.4755 8.6933 16.6448 7.9022 14.9835 6.32L13.3529 4.7672C11.7658 3.2557 10.9723 2.5 10 2.5 9.0277 2.5 8.2341 3.2557 6.6471 4.7672L5.0165 6.32C3.3552 7.9022 2.5245 8.6933 2.5005 9.7008 2.4765 10.7081 3.2686 11.5378 4.8527 13.1973L6.4832 14.9055C8.1343 16.6352 8.9598 17.5 10 17.5 10.5895 17.5 11.1101 17.2222 11.7511 16.6667" stroke="currentColor" stroke-linecap="round" stroke-linejoin="round" stroke-width="2"/>
  <path d="M16.7513 11.6667C17.2504 11.0569 17.5 10.5588 17.5 10 17.5 8.9932 16.6898 8.1831 15.0695 6.5628L13.4373 4.9305C11.8169 3.3102 11.0068 2.5 10 2.5 8.9932 2.5 8.1831 3.3102 6.5628 4.9305L4.9305 6.5628C3.3102 8.1831 2.5 8.9932 2.5 10 2.5 11.0068 3.3102 11.8169 4.9305 13.4373L6.5628 15.0695C8.1831 16.6898 8.9932 17.5 10 17.5 10.5895 17.5 11.1116 17.2222 11.7684 16.6667" stroke="currentColor" stroke-linecap="round" stroke-linejoin="round" stroke-width="2"/>
  <path d="M15.8333 17.9167V14.1667M17.5 16.6667L17.1348 17.1474C16.5342 17.938 16.2338 18.3333 15.8333 18.3333 15.4328 18.3333 15.1325 17.938 14.5319 17.1474L14.1667 16.6667" stroke="currentColor" stroke-linecap="round" stroke-linejoin="round" stroke-width="2"/>
  <circle cx="10" cy="10" r="2.5" stroke="currentColor" stroke-linecap="round" stroke-linejoin="round" stroke-width="2"/>
</svg>
