<svg xmlns="http://www.w3.org/2000/svg" width="20" height="20" viewBox="0 0 20 20" fill="none">
  <path d="M15.8333 2.0833V5.8333M17.5 3.3333L17.1348 2.8526C16.5342 2.062 16.2338 1.6667 15.8333 1.6667 15.4328 1.6667 15.1325 2.062 14.5319 2.8526L14.1667 3.3333" stroke="currentColor" stroke-linecap="round" stroke-linejoin="round" stroke-width="2"/>
  <circle cx="10" cy="10" r="2.5" stroke="currentColor" stroke-linecap="round" stroke-linejoin="round" stroke-width="2"/>
  <path d="M16.6667 8.2316C17.2222 8.8884 17.5 9.4105 17.5 10 17.5 11.0068 16.6898 11.8169 15.0695 13.4373L13.4373 15.0695C11.8169 16.6898 11.0068 17.5 10 17.5 8.9932 17.5 8.1831 16.6898 6.5628 15.0695L4.9305 13.4373C3.3102 11.8169 2.5 11.0068 2.5 10 2.5 8.9932 3.3102 8.1831 4.9305 6.5628L6.5628 4.9305C8.1831 3.3102 8.9932 2.5 10 2.5 10.5895 2.5 11.1116 2.7778 11.7684 3.3333" stroke="currentColor" stroke-linecap="round" stroke-linejoin="round" stroke-width="2"/>
</svg>
