<svg xmlns="http://www.w3.org/2000/svg" width="20" height="20" viewBox="0 0 20 20" fill="none">
  <path d="M2.7245 12.57C3.3024 11.3555 3.5914 10.7482 4.095 10.3971 4.1356 10.3688 4.1772 10.3418 4.2195 10.3163 4.7436 10 5.3846 10 6.6667 10 7.9487 10 8.5898 10 9.1138 10.3163 9.1562 10.3418 9.1977 10.3688 9.2383 10.3971 9.7419 10.7482 10.0309 11.3555 10.6089 12.57 11.4707 14.381 11.9016 15.2865 11.5361 15.9521 11.5223 15.977 11.5079 16.0015 11.4928 16.0255 11.0898 16.6667 10.1344 16.6667 8.2239 16.6667H5.1094C3.1989 16.6667 2.2436 16.6667 1.8405 16.0255 1.8254 16.0015 1.811 15.977 1.7973 15.9521 1.4318 15.2865 1.8627 14.381 2.7245 12.57Z" stroke="currentColor" stroke-width="2"/>
  <path d="M12.1224 10.0173C12.4527 10 12.8465 10 13.3324 10 14.6145 10 15.2556 10 15.7797 10.3163 15.8219 10.3418 15.8635 10.3688 15.9042 10.3971 16.4078 10.7482 16.6967 11.3555 17.2747 12.57 18.1364 14.381 18.5673 15.2865 18.2018 15.9521 18.1882 15.977 18.1737 16.0015 18.1587 16.0255 17.7555 16.6667 16.8003 16.6667 14.8897 16.6667H13.9493" stroke="currentColor" stroke-linecap="round" stroke-width="2"/>
  <path d="M14.6727 7.5C14.4924 7.0596 14.2437 6.5369 13.9422 5.9034 13.3643 4.6888 13.0753 4.0815 12.5717 3.7304 12.531 3.7021 12.4895 3.6751 12.4472 3.6496 11.9231 3.3333 11.2821 3.3333 10 3.3333 8.7179 3.3333 8.0769 3.3333 7.5528 3.6496 7.5105 3.6751 7.469 3.7021 7.4283 3.7304 6.9247 4.0815 6.6357 4.6888 6.0578 5.9034 5.7563 6.5369 5.5076 7.0596 5.3272 7.5" stroke="currentColor" stroke-linecap="round" stroke-width="2"/>
</svg>
