<svg xmlns="http://www.w3.org/2000/svg" width="20" height="20" viewBox="0 0 20 20" fill="none">
  <path d="M11.887 15.3098C12.1505 14.5058 12.2822 14.1039 12.5513 13.8275 12.6792 13.6962 12.8277 13.5873 12.9906 13.5055 13.3336 13.3333 13.7502 13.3333 14.5835 13.3333 15.4168 13.3333 15.8334 13.3333 16.1763 13.5055 16.3393 13.5873 16.4878 13.6962 16.6157 13.8275 16.8848 14.1039 17.0165 14.5058 17.28 15.3098L17.552 16.1396C17.8801 17.1407 18.0442 17.6412 17.7989 17.9873 17.5536 18.3333 17.0348 18.3333 15.9972 18.3333H13.1698C12.1322 18.3333 11.6133 18.3333 11.3681 17.9873 11.1228 17.6412 11.2868 17.1407 11.615 16.1396L11.887 15.3098Z" stroke="currentColor" stroke-width="2"/>
  <path d="M7.3035 8.6431C7.567 7.8392 7.6988 7.4373 7.9679 7.1608 8.0957 7.0295 8.2442 6.9207 8.4071 6.8389 8.7501 6.6667 9.1668 6.6667 10 6.6667 10.8333 6.6667 11.2499 6.6667 11.5929 6.8389 11.7558 6.9207 11.9043 7.0295 12.0322 7.1608 12.3012 7.4373 12.433 7.8392 12.6965 8.6431L12.9685 9.4729C13.2967 10.474 13.4607 10.9745 13.2154 11.3206 12.9702 11.6667 12.4513 11.6667 11.4137 11.6667H8.5863C7.5487 11.6667 7.0299 11.6667 6.7846 11.3206 6.5393 10.9745 6.7034 10.474 7.0315 9.4729L7.3035 8.6431Z" stroke="currentColor" stroke-width="2"/>
  <path d="M2.7203 15.3098C2.9838 14.5058 3.1156 14.1039 3.3847 13.8275 3.5125 13.6962 3.661 13.5873 3.8239 13.5055 4.1669 13.3333 4.5836 13.3333 5.4168 13.3333 6.2501 13.3333 6.6667 13.3333 7.0097 13.5055 7.1727 13.5873 7.3211 13.6962 7.449 13.8275 7.7181 14.1039 7.8498 14.5058 8.1133 15.3098L8.3853 16.1396C8.7134 17.1407 8.8775 17.6412 8.6323 17.9873 8.3869 18.3333 7.8681 18.3333 6.8305 18.3333H4.0031C2.9655 18.3333 2.4467 18.3333 2.2014 17.9873 1.9561 17.6412 2.1202 17.1407 2.4483 16.1396L2.7203 15.3098Z" stroke="currentColor" stroke-width="2"/>
  <path d="M10 1.6667V3.3333M6.25 2.9167L7.5 4.1667M13.75 2.9167L12.5 4.1667" stroke="currentColor" stroke-linecap="round" stroke-width="2"/>
</svg>
