<svg xmlns="http://www.w3.org/2000/svg" width="20" height="20" viewBox="0 0 20 20" fill="none">
  <path d="M3.3318 15.8182C2.5607 15.8182 1.6667 16.0152 1.6667 14.9895V13.1991C1.6667 11.7656 1.6667 11.0489 2.0825 10.5793 2.7322 9.8453 3.99 10.0176 4.8632 10.0176 5.5375 10.0176 6.3676 9.9241 6.9385 10.3603 7.3164 10.649 7.4964 11.1267 7.8563 12.082 7.9939 12.447 8.0925 12.9518 8.4301 13.1847 8.6441 13.3322 8.9232 13.3322 9.4813 13.3322H11.2414C12.3445 13.3322 12.7178 12.4778 13.3229 11.6749H14.618C16.443 11.6749 18.1333 12.7383 18.3057 14.7006 18.3403 15.0933 18.4349 15.8182 17.8559 15.8182H16.6532M13.3229 15.8182H7.0785" stroke="currentColor" stroke-linecap="round" stroke-linejoin="round" stroke-width="2"/>
  <circle cx="5" cy="15.833333333333334" r="1.6666666666666667" stroke="currentColor" stroke-linecap="round" stroke-linejoin="round" stroke-width="2"/>
  <circle cx="15" cy="15.833333333333334" r="1.6666666666666667" stroke="currentColor" stroke-linecap="round" stroke-linejoin="round" stroke-width="2"/>
  <path d="M3.3333 10V2.5" stroke="currentColor" stroke-linecap="round" stroke-linejoin="round" stroke-width="2"/>
  <path d="M15.8333 11.6667L13.3333 2.5" stroke="currentColor" stroke-linecap="round" stroke-linejoin="round" stroke-width="2"/>
  <path d="M1.6667 2.5H15" stroke="currentColor" stroke-linecap="round" stroke-linejoin="round" stroke-width="2"/>
  <path d="M13.3333 11.6667L11.6667 9.1667M10.8333 10L12.5 8.3333" stroke="currentColor" stroke-linecap="round" stroke-linejoin="round" stroke-width="2"/>
  <path d="M5.4167 10C5.4167 8.3083 5.3171 6.6667 3.3333 6.6667" stroke="currentColor" stroke-linecap="round" stroke-linejoin="round" stroke-width="2"/>
</svg>
