<svg xmlns="http://www.w3.org/2000/svg" width="20" height="20" viewBox="0 0 20 20" fill="none">
  <path d="M10 10C12.3012 10 14.1667 8.1189 14.1667 5.7984 14.1667 4.0585 13.1178 2.5656 11.6229 1.9275 11.0383 1.678 10.7461 1.5532 10.373 1.8025 10 2.0517 10 2.4603 10 3.2775V10Z" stroke="currentColor" stroke-linejoin="round" stroke-width="2"/>
  <path d="M10 10C7.6988 10 5.8333 11.8811 5.8333 14.2016 5.8333 15.9415 6.8822 17.4344 8.3771 18.0725 8.9617 18.322 9.2539 18.4468 9.627 18.1975 10 17.9483 10 17.5397 10 16.7225V10Z" stroke="currentColor" stroke-linejoin="round" stroke-width="2"/>
  <path d="M10 10C10 12.3012 11.8811 14.1667 14.2016 14.1667 15.9415 14.1667 17.4344 13.1178 18.0725 11.6229 18.322 11.0383 18.4468 10.7461 18.1975 10.373 17.9483 10 17.5397 10 16.7225 10L10 10Z" stroke="currentColor" stroke-linejoin="round" stroke-width="2"/>
  <path d="M10 10C10 7.6988 8.1189 5.8333 5.7984 5.8333 4.0585 5.8333 2.5656 6.8822 1.9275 8.3771 1.678 8.9617 1.5532 9.2539 1.8025 9.627 2.0517 10 2.4603 10 3.2775 10H10Z" stroke="currentColor" stroke-linejoin="round" stroke-width="2"/>
</svg>
