<svg xmlns="http://www.w3.org/2000/svg" width="20" height="20" viewBox="0 0 20 20" fill="none">
  <path d="M18.3333 9.3919C18.3333 13.8699 14.6023 17.5 10 17.5 5.3976 17.5 1.6667 13.8699 1.6667 9.3919 1.6667 7.3055 2.4766 5.4031 3.8073 3.9662 4.1785 3.5654 4.3642 3.3649 4.9036 3.094 5.4431 2.823 5.8232 2.7822 6.5835 2.7004 7.5188 2.5998 8.7595 2.5 10 2.5 11.2405 2.5 12.4812 2.5998 13.4165 2.7004 14.1768 2.7822 14.5569 2.823 15.0964 3.094 15.6358 3.3649 15.8214 3.5654 16.1928 3.9662 17.5234 5.4031 18.3333 7.3055 18.3333 9.3919Z" stroke="currentColor" stroke-linecap="round" stroke-linejoin="round" stroke-width="2"/>
  <path d="M15 3.3333C15 4.2538 12.7614 5 10 5 7.2386 5 5 4.2538 5 3.3333" stroke="currentColor" stroke-linecap="round" stroke-linejoin="round" stroke-width="2"/>
</svg>
