<svg xmlns="http://www.w3.org/2000/svg" width="20" height="20" viewBox="0 0 20 20" fill="none">
  <path d="M12.5 2.0833V3.3333C12.5 4.5118 12.5 5.1011 12.8661 5.4672 13.2323 5.8333 13.8215 5.8333 15 5.8333H16.25" stroke="currentColor" stroke-linecap="round" stroke-linejoin="round" stroke-width="2"/>
  <path d="M3.3333 13.3333V6.6667C3.3333 4.3096 3.3333 3.1311 4.0656 2.3989 4.7978 1.6667 5.9763 1.6667 8.3333 1.6667H11.8097C12.1502 1.6667 12.3206 1.6667 12.4738 1.7301 12.6268 1.7935 12.7473 1.914 12.9882 2.1548L16.1785 5.3452C16.4193 5.586 16.5398 5.7065 16.6032 5.8596 16.6667 6.0128 16.6667 6.1831 16.6667 6.5237V13.3333C16.6667 15.6903 16.6667 16.8688 15.9344 17.6011 15.2022 18.3333 14.0237 18.3333 11.6667 18.3333H8.3333C5.9763 18.3333 4.7978 18.3333 4.0656 17.6011 3.3333 16.8688 3.3333 15.6903 3.3333 13.3333Z" stroke="currentColor" stroke-linecap="round" stroke-linejoin="round" stroke-width="2"/>
  <path d="M10 9.1667V11.6667M10 11.6667V14.1667M10 11.6667H6.25M10 11.6667H13.75M7.9167 14.1667H12.0833C12.869 14.1667 13.2618 14.1667 13.5059 13.9226 13.75 13.6785 13.75 13.2857 13.75 12.5V10.8333C13.75 10.0477 13.75 9.6548 13.5059 9.4108 13.2618 9.1667 12.869 9.1667 12.0833 9.1667H7.9167C7.131 9.1667 6.7382 9.1667 6.4941 9.4108 6.25 9.6548 6.25 10.0477 6.25 10.8333V12.5C6.25 13.2857 6.25 13.6785 6.4941 13.9226 6.7382 14.1667 7.131 14.1667 7.9167 14.1667Z" stroke="currentColor" stroke-linecap="round" stroke-linejoin="round" stroke-width="2"/>
</svg>
