<svg xmlns="http://www.w3.org/2000/svg" width="20" height="20" viewBox="0 0 20 20" fill="none">
  <path d="M12.5 2.0833V3.3333C12.5 4.5118 12.5 5.1011 12.8661 5.4672 13.2323 5.8333 13.8215 5.8333 15 5.8333H16.25" stroke="currentColor" stroke-linecap="round" stroke-linejoin="round" stroke-width="2"/>
  <path d="M3.3333 13.3333V6.6667C3.3333 4.3096 3.3333 3.1311 4.0656 2.3989 4.7978 1.6667 5.9763 1.6667 8.3333 1.6667H11.8097C12.1502 1.6667 12.3206 1.6667 12.4738 1.7301 12.6268 1.7935 12.7473 1.914 12.9882 2.1548L16.1785 5.3452C16.4193 5.586 16.5398 5.7065 16.6032 5.8596 16.6667 6.0128 16.6667 6.1831 16.6667 6.5237V13.3333C16.6667 15.6903 16.6667 16.8688 15.9344 17.6011 15.2022 18.3333 14.0237 18.3333 11.6667 18.3333H8.3333C5.9763 18.3333 4.7978 18.3333 4.0656 17.6011 3.3333 16.8688 3.3333 15.6903 3.3333 13.3333Z" stroke="currentColor" stroke-linecap="round" stroke-linejoin="round" stroke-width="2"/>
  <path d="M6.6667 9.1667H13.3333M6.6667 11.6667H13.3333M6.6667 14.1667H10.1423" stroke="currentColor" stroke-linecap="round" stroke-linejoin="round" stroke-width="2"/>
</svg>
