<svg xmlns="http://www.w3.org/2000/svg" width="20" height="20" viewBox="0 0 20 20" fill="none">
  <path d="M18.3332 6.6666L15.8333 4.1666M15.8333 4.1666L13.3333 1.6666M15.8333 4.1666L13.3333 6.6666M15.8333 4.1666L18.3332 1.6666" stroke="currentColor" stroke-linecap="round" stroke-width="2"/>
  <path d="M7.4999 8.3578C8.6438 7.214 10.4983 7.214 11.642 8.3578 12.7858 9.5017 12.7858 11.3562 11.642 12.5" stroke="currentColor" stroke-width="2"/>
  <path d="M4.044 15.9559C6.7071 18.6191 10.7605 19.0448 13.8681 17.2331 14.607 16.8023 14.9764 16.5869 14.999 16.1485 15.0216 15.7102 14.6063 15.4068 13.7757 14.8003 12.2357 13.6756 10.7196 12.3003 9.2096 10.7903 7.6996 9.2803 6.3243 7.7642 5.1996 6.2242 4.5931 5.3936 4.2898 4.9783 3.8514 5.0009 3.413 5.0235 3.1976 5.3929 2.7668 6.1318 0.9551 9.2394 1.3808 13.2927 4.044 15.9559Z" stroke="currentColor" stroke-linejoin="round" stroke-width="2"/>
</svg>
