<svg xmlns="http://www.w3.org/2000/svg" width="20" height="20" viewBox="0 0 20 20" fill="none">
  <path d="M7.5252 8.3332C8.6691 7.1894 10.5236 7.1894 11.6673 8.3332 12.8112 9.477 12.8112 11.3315 11.6673 12.4753" stroke="currentColor" stroke-linecap="round" stroke-linejoin="round" stroke-width="2"/>
  <path d="M4.0441 15.9559C6.7072 18.6191 10.7606 19.0448 13.8682 17.2331 14.6071 16.8023 14.9766 16.5869 14.9992 16.1485 15.0218 15.7102 14.6064 15.4068 13.7758 14.8003 12.2358 13.6756 10.7197 12.3003 9.2097 10.7903 7.6997 9.2803 6.3244 7.7642 5.1997 6.2242 4.5932 5.3936 4.2899 4.9783 3.8515 5.0009 3.4131 5.0235 3.1977 5.3929 2.7669 6.1318 0.9552 9.2394 1.3809 13.2927 4.0441 15.9559Z" stroke="currentColor" stroke-linecap="round" stroke-linejoin="round" stroke-width="2"/>
  <path d="M17.3958 2.7083H17.2917M17.5 2.7083C17.5 2.8234 17.4068 2.9167 17.2917 2.9167 17.1766 2.9167 17.0833 2.8234 17.0833 2.7083 17.0833 2.5933 17.1766 2.5 17.2917 2.5 17.4068 2.5 17.5 2.5933 17.5 2.7083Z" stroke="currentColor" stroke-linecap="round" stroke-linejoin="round" stroke-width="2"/>
  <path d="M14.4793 5.625H14.3752M14.5835 5.625C14.5835 5.7401 14.4903 5.8333 14.3752 5.8333 14.2601 5.8333 14.1668 5.7401 14.1668 5.625 14.1668 5.5099 14.2601 5.4167 14.3752 5.4167 14.4903 5.4167 14.5835 5.5099 14.5835 5.625Z" stroke="currentColor" stroke-linecap="round" stroke-linejoin="round" stroke-width="2"/>
</svg>
