<svg xmlns="http://www.w3.org/2000/svg" width="20" height="20" viewBox="0 0 20 20" fill="none">
  <path d="M7.5 8.3578C8.6438 7.214 10.4983 7.214 11.6422 8.3578 12.7859 9.5017 12.7859 11.3562 11.6422 12.5" stroke="currentColor" stroke-width="2"/>
  <path d="M4.0441 15.9559C6.7072 18.6191 10.7606 19.0448 13.8682 17.2331 14.6071 16.8023 14.9766 16.5869 14.9992 16.1485 15.0218 15.7102 14.6064 15.4068 13.7758 14.8003 12.2358 13.6756 10.7197 12.3003 9.2097 10.7903 7.6997 9.2803 6.3244 7.7642 5.1997 6.2242 4.5932 5.3936 4.2899 4.9783 3.8515 5.0009 3.4131 5.0235 3.1977 5.3929 2.7669 6.1318 0.9552 9.2394 1.3809 13.2927 4.0441 15.9559Z" stroke="currentColor" stroke-linejoin="round" stroke-width="2"/>
  <path d="M12.9645 1.6667C14.3643 1.8104 15.6509 2.3664 16.6411 3.3549 17.6343 4.3465 18.1916 5.6361 18.3333 7.0388M15.4181 7.5C15.2522 6.7855 14.9095 6.1345 14.3832 5.6091 13.8595 5.0863 13.2114 4.745 12.5 4.5784" stroke="currentColor" stroke-linecap="round" stroke-width="2"/>
</svg>
