<svg xmlns="http://www.w3.org/2000/svg" width="20" height="20" viewBox="0 0 20 20" fill="none">
  <path d="M15.8333 8.3333C14.1625 7.8068 12.1568 7.5 10 7.5 7.8432 7.5 5.8375 7.8068 4.1667 8.3333V11.25C5.8375 10.7235 7.8432 10.4167 10 10.4167 12.1568 10.4167 14.1625 10.7235 15.8333 11.25V8.3333Z" stroke="currentColor" stroke-linejoin="round" stroke-width="2"/>
  <path d="M15.8333 10.8333V12.5193C15.8333 14.2952 14.9733 15.9408 13.5677 16.8545L12.401 17.6128C10.9232 18.5735 9.0768 18.5735 7.599 17.6128L6.4324 16.8545C5.0267 15.9408 4.1667 14.2952 4.1667 12.5193V10.8333" stroke="currentColor" stroke-linecap="round" stroke-width="2"/>
  <path d="M15.8333 8.3333L16.7714 7.8392C17.824 7.149 18.3502 6.8038 18.3329 6.3107 18.3156 5.8175 17.7667 5.5175 16.6688 4.9175L12.7294 2.7646C11.3901 2.0327 10.7204 1.6667 10 1.6667 9.2796 1.6667 8.6099 2.0327 7.2706 2.7646L3.3313 4.9175C2.2334 5.5175 1.6844 5.8175 1.6671 6.3107 1.6498 6.8038 2.176 7.149 3.2286 7.8392L4.1667 8.3333" stroke="currentColor" stroke-linecap="round" stroke-width="2"/>
</svg>
