<svg xmlns="http://www.w3.org/2000/svg" width="20" height="20" viewBox="0 0 20 20" fill="none">
  <path d="M17.6341 8.2737C18.494 7.9513 18.5715 6.4108 17.8071 4.8329 17.0427 3.255 15.7259 2.2372 14.8659 2.5596M17.6341 8.2737C16.7741 8.5962 15.4573 7.5784 14.6929 6.0005 13.9285 4.4226 14.006 2.882 14.8659 2.5596M17.6341 8.2737L5.1341 15.7737C4.2741 16.0962 2.9573 15.0784 2.1929 13.5005 1.4285 11.9226 1.506 10.382 2.3659 10.0596L14.8659 2.5596" stroke="currentColor" stroke-width="2"/>
  <path d="M12.5 11.3393C11.3652 10.8618 9.1028 9.1258 9.1312 6.001M9.5833 13.0843C8.6111 12.6203 6.5833 10.8989 6.25 7.7247" stroke="currentColor" stroke-width="2"/>
  <path d="M12.8583 11.6667C13.3563 12.6085 13.8658 15.0937 12.1248 17.5L11.3027 16.32 9.1667 17.3419C9.1667 17.3419 10.6874 15.739 9.9607 13.3333" stroke="currentColor" stroke-linecap="round" stroke-linejoin="round" stroke-width="2"/>
</svg>
