<svg xmlns="http://www.w3.org/2000/svg" width="20" height="20" viewBox="0 0 20 20" fill="none">
  <path d="M3.3333 14.1667V4.1667H13.3333C15.6903 4.1667 16.8688 4.1667 17.6011 4.8989 18.3333 5.6311 18.3333 6.8096 18.3333 9.1667 18.3333 11.5237 18.3333 12.7022 17.6011 13.4344 16.8688 14.1667 15.6903 14.1667 13.3333 14.1667H3.3333Z" stroke="currentColor" stroke-linecap="round" stroke-linejoin="round" stroke-width="2"/>
  <path d="M6.6667 14.1667V15.4167C6.6667 15.8049 6.6667 15.9991 6.7301 16.1523 6.8147 16.3564 6.9769 16.5187 7.1811 16.6032 7.3342 16.6667 7.5284 16.6667 7.9167 16.6667 8.3049 16.6667 8.4991 16.6667 8.6523 16.6032 8.8564 16.5187 9.0187 16.3564 9.1033 16.1523 9.1667 15.9991 9.1667 15.8049 9.1667 15.4167V14.1667" stroke="currentColor" stroke-linecap="round" stroke-linejoin="round" stroke-width="2"/>
  <path d="M11.6667 14.1667V15C11.6667 15.7857 11.6667 16.1785 11.9108 16.4226 12.1548 16.6667 12.5477 16.6667 13.3333 16.6667H14.1667C14.9523 16.6667 15.3452 16.6667 15.5893 16.4226 15.8333 16.1785 15.8333 15.7857 15.8333 15V14.1667" stroke="currentColor" stroke-linecap="round" stroke-linejoin="round" stroke-width="2"/>
  <path d="M3.3333 17.5V4.1667C3.3333 3.2462 2.5871 2.5 1.6667 2.5" stroke="currentColor" stroke-linecap="round" stroke-linejoin="round" stroke-width="2"/>
  <path d="M6.6667 7.5V10.8333" stroke="currentColor" stroke-linecap="round" stroke-linejoin="round" stroke-width="2"/>
  <path d="M12.5 11.6667C13.8808 11.6667 15 10.5474 15 9.1667 15 7.786 13.8808 6.6667 12.5 6.6667 11.1193 6.6667 10 7.786 10 9.1667 10 10.5474 11.1193 11.6667 12.5 11.6667Z" stroke="currentColor" stroke-linecap="round" stroke-linejoin="round" stroke-width="2"/>
</svg>
