<svg xmlns="http://www.w3.org/2000/svg" width="20" height="20" viewBox="0 0 20 20" fill="none">
  <path d="M12.3578 15C12.4498 15.2607 12.5 15.5412 12.5 15.8333 12.5 17.2141 11.3808 18.3333 10 18.3333 8.6193 18.3333 7.5 17.2141 7.5 15.8333 7.5 15.5412 7.5501 15.2607 7.6423 15" stroke="currentColor" stroke-width="2"/>
  <path d="M9.3634 10.8333C9.7592 11.2757 10 11.8597 10 12.5 10 13.8808 8.8808 15 7.5 15 6.1193 15 5 13.8808 5 12.5 5 11.8597 5.2407 11.2757 5.6366 10.8333" stroke="currentColor" stroke-width="2"/>
  <path d="M14.3634 10.8333C14.7592 11.2757 15 11.8597 15 12.5 15 13.8808 13.8808 15 12.5 15 11.1193 15 10 13.8808 10 12.5 10 11.8597 10.2408 11.2757 10.6366 10.8333" stroke="currentColor" stroke-width="2"/>
  <path d="M12.5 8.3333C12.5 9.7141 13.6193 10.8333 15 10.8333 16.3808 10.8333 17.5 9.7141 17.5 8.3333 17.5 6.9526 16.3808 5.8333 15 5.8333 13.6193 5.8333 12.5 6.9526 12.5 8.3333Z" stroke="currentColor" stroke-width="2"/>
  <path d="M7.5 8.3333C7.5 9.7141 8.6193 10.8333 10 10.8333 11.3808 10.8333 12.5 9.7141 12.5 8.3333 12.5 6.9526 11.3808 5.8333 10 5.8333 8.6193 5.8333 7.5 6.9526 7.5 8.3333Z" stroke="currentColor" stroke-width="2"/>
  <path d="M2.5 8.3333C2.5 9.7141 3.6193 10.8333 5 10.8333 6.3807 10.8333 7.5 9.7141 7.5 8.3333 7.5 6.9526 6.3807 5.8333 5 5.8333 3.6193 5.8333 2.5 6.9526 2.5 8.3333Z" stroke="currentColor" stroke-width="2"/>
  <path d="M10 5.8333C10 4.4444 10.6667 1.6667 13.3333 1.6667" stroke="currentColor" stroke-linecap="round" stroke-linejoin="round" stroke-width="2"/>
</svg>
