<svg xmlns="http://www.w3.org/2000/svg" width="20" height="20" viewBox="0 0 20 20" fill="none">
  <path d="M12.9167 14.9349C12.9167 16.5458 11.6108 17.8516 10 17.8516 8.3892 17.8516 7.0833 16.5458 7.0833 14.9349 7.0833 13.3241 8.3892 12.0183 10 12.0183 11.6108 12.0183 12.9167 13.3241 12.9167 14.9349Z" stroke="currentColor" stroke-linecap="round" stroke-linejoin="round" stroke-width="2"/>
  <path d="M10 9.9349C10 11.5458 8.6942 12.8516 7.0833 12.8516 5.4725 12.8516 4.1667 11.5458 4.1667 9.9349 4.1667 8.3241 5.4725 7.0182 7.0833 7.0182 8.6942 7.0182 10 8.3241 10 9.9349Z" stroke="currentColor" stroke-linecap="round" stroke-linejoin="round" stroke-width="2"/>
  <path d="M15.8333 9.9349C15.8333 11.5458 14.5275 12.8516 12.9167 12.8516 11.3058 12.8516 10 11.5458 10 9.9349 10 8.3241 11.3058 7.0182 12.9167 7.0182 14.5275 7.0182 15.8333 8.3241 15.8333 9.9349Z" stroke="currentColor" stroke-linecap="round" stroke-linejoin="round" stroke-width="2"/>
  <path d="M10 7.8498C10 7.8498 10 5.6062 11.7948 3.8114 12.5872 3.0191 13.4668 2.5766 14.2024 2.3293 14.7926 2.131 15.0876 2.0318 15.4528 2.397 15.818 2.7622 15.7188 3.0573 15.5205 3.6474 15.2733 4.383 14.8308 5.2627 14.0385 6.055 13.6755 6.418 13.2941 6.7075 12.9167 6.9386" stroke="currentColor" stroke-linecap="round" stroke-linejoin="round" stroke-width="2"/>
  <path d="M10 8.6849V5.3516C10 4.9645 10 4.7709 9.9743 4.609 9.8332 3.7176 9.134 3.0184 8.2426 2.8772 8.0806 2.8516 7.8871 2.8516 7.5 2.8516" stroke="currentColor" stroke-linecap="round" stroke-linejoin="round" stroke-width="2"/>
</svg>
