<svg xmlns="http://www.w3.org/2000/svg" width="20" height="20" viewBox="0 0 20 20" fill="none">
  <path d="M17.9167 10C17.9167 6.268 17.9167 4.4021 16.7573 3.2427 15.5979 2.0833 13.7319 2.0833 10 2.0833 6.268 2.0833 4.4021 2.0833 3.2427 3.2427 2.0833 4.4021 2.0833 6.268 2.0833 10 2.0833 13.7319 2.0833 15.5979 3.2427 16.7573 4.4021 17.9167 6.268 17.9167 10 17.9167 13.7319 17.9167 15.5979 17.9167 16.7573 16.7573 17.9167 15.5979 17.9167 13.7319 17.9167 10Z" stroke="currentColor" stroke-linejoin="round" stroke-width="2"/>
  <path d="M8.3333 6.6667L11.1102 9.1836C11.8522 9.8561 11.8522 10.1439 11.1102 10.8164L8.3333 13.3333" stroke="currentColor" stroke-linecap="round" stroke-linejoin="round" stroke-width="2"/>
</svg>
