<svg xmlns="http://www.w3.org/2000/svg" width="20" height="20" viewBox="0 0 20 20" fill="none">
  <path d="M10.4592 11.3401C9.193 12.7006 4.3419 15.0089 5.8565 17.5229 6.4006 18.4259 7.9669 18.3333 9.051 18.3333H10.949C13.7948 18.3333 15.2176 18.3333 16.1908 17.5238 17.1641 16.7143 17.3726 15.3574 17.7897 12.6437L18.0405 11.0113C18.3347 9.0968 18.4818 8.1397 18.1198 7.2912 17.7579 6.4426 16.955 5.862 15.3491 4.7009L14.1492 3.8333C12.1514 2.3889 11.1526 1.6667 10 1.6667 8.8474 1.6667 7.8486 2.3889 5.8508 3.8333L4.651 4.7009C3.045 5.862 2.2421 6.4426 1.8801 7.2912 1.5182 8.1397 1.6653 9.0968 1.9595 11.0113L2.2104 12.6437C2.507 14.5742 2.6982 15.8181 3.1342 16.6667M10.1501 15.1049C12.1237 14.7228 13.4757 13.5082 14.1116 11.5458 14.8319 9.3234 13.8556 6.5698 11.396 5.9328 11.396 5.9328 12.1543 6.8368 11.6644 7.6299 10.72 9.3296 8.0204 8.7645 6.9378 10.9304 6.3003 12.1396 6.4935 13.5708 7.4115 14.4636 7.9883 15.0245 9.2023 15.2884 10.1501 15.1049Z" stroke="currentColor" stroke-linecap="round" stroke-linejoin="round" stroke-width="2"/>
</svg>
