<svg xmlns="http://www.w3.org/2000/svg" width="20" height="20" viewBox="0 0 20 20" fill="none">
  <path d="M7.5 11.6667C5.8333 11.6667 4.861 14.6913 4.9999 15.8333 3.4572 14.3319 2.5 12.2398 2.5 9.9257 2.5 5.6357 5.7893 2.1085 10.0008 1.694 10.3732 1.6573 10.5593 1.639 10.6962 1.7631 11.1123 2.1407 10.833 3.6345 10.833 4.1349 11.4824 3.5886 12.5095 2.2705 13.3966 2.142 13.6317 2.108 13.8167 2.1888 14.1866 2.3504 15.5053 2.9266 16.645 3.8322 17.5 4.9622 17.5 4.9622 14.5833 5.4068 14.1662 7.4439" stroke="currentColor" stroke-linejoin="round" stroke-width="2"/>
  <path d="M16.7972 10.5483C16.4908 8.0655 14.8133 6.6667 12.081 6.6667 8.2506 6.6667 6.5336 10.8714 8.0919 14.243 8.302 14.6976 8.1114 15.2984 7.9887 15.7558 7.5867 17.2554 7.3857 18.0053 7.5673 18.1813 7.7488 18.3574 8.4019 18.1663 9.7081 17.7841 10.883 17.4403 12.5519 16.5527 13.8024 16.6908 14.5775 16.7763 16.6958 18.7404 17.3616 18.2568 17.5854 18.0943 17.506 17.6995 17.3473 16.9099L16.9875 15.1202C16.8713 14.5427 16.7157 14.4738 16.1423 14.3542 15.1464 14.1464 14.4113 13.5368 14.0499 13.0866 13.8358 12.8198 13.878 12.5978 14.1054 12.3557 14.7363 11.684 15.3866 11.4866 15.9821 11.43 16.6647 11.3652 16.8841 11.2522 16.7972 10.5483Z" stroke="currentColor" stroke-width="2"/>
</svg>
