<svg xmlns="http://www.w3.org/2000/svg" width="20" height="20" viewBox="0 0 20 20" fill="none">
  <path d="M7.5003 2.9168V17.1092M12.5002 2.526V17.1092M17.0833 12.5L2.9167 12.5M17.0833 7.5L2.9167 7.5" stroke="currentColor" stroke-linecap="round" stroke-linejoin="round" stroke-width="2"/>
  <path d="M3.5983 16.4017C4.6967 17.5 6.4645 17.5 10 17.5 13.5355 17.5 15.3033 17.5 16.4017 16.4017 17.5 15.3033 17.5 13.5355 17.5 10 17.5 6.4645 17.5 4.6967 16.4017 3.5983 15.3033 2.5 13.5355 2.5 10 2.5 6.4645 2.5 4.6967 2.5 3.5983 3.5983 2.5 4.6967 2.5 6.4645 2.5 10 2.5 13.5355 2.5 15.3033 3.5983 16.4017Z" stroke="currentColor" stroke-linejoin="round" stroke-width="2"/>
</svg>
