<svg xmlns="http://www.w3.org/2000/svg" width="20" height="20" viewBox="0 0 20 20" fill="none">
  <path d="M9.5833 17.5C6.0478 17.5 4.28 17.5 3.1817 16.4017 2.0833 15.3033 2.0833 13.5355 2.0833 10 2.0833 6.4645 2.0833 4.6967 3.1817 3.5983 4.28 2.5 6.0478 2.5 9.5833 2.5 13.1188 2.5 14.8867 2.5 15.985 3.5983 17.0833 4.6967 17.0833 6.4645 17.0833 10" stroke="currentColor" stroke-linejoin="round" stroke-width="2"/>
  <path d="M9.5833 2.5V17.5" stroke="currentColor" stroke-linecap="round" stroke-linejoin="round" stroke-width="2"/>
  <path d="M17.0841 9.9935H2.0882" stroke="currentColor" stroke-linecap="round" stroke-linejoin="round" stroke-width="2"/>
  <path d="M12.9167 16.3889C12.9167 16.3889 13.5417 16.3889 14.1667 17.5 14.1667 17.5 16.152 14.7222 17.9167 14.1667" stroke="currentColor" stroke-linecap="round" stroke-linejoin="round" stroke-width="2"/>
</svg>
