<svg xmlns="http://www.w3.org/2000/svg" width="20" height="20" viewBox="0 0 20 20" fill="none">
  <path d="M3.2407 8.0525C3.6611 8.3333 4.2463 8.3333 5.4166 8.3333 6.587 8.3333 7.1722 8.3333 7.5926 8.0525 7.7746 7.9309 7.9308 7.7746 8.0524 7.5926 8.3333 7.1722 8.3333 6.5871 8.3333 5.4167 8.3333 4.2463 8.3333 3.6611 8.0524 3.2407 7.9308 3.0587 7.7746 2.9025 7.5926 2.7809 7.1722 2.5 6.587 2.5 5.4166 2.5 4.2463 2.5 3.6611 2.5 3.2407 2.7809 3.0587 2.9025 2.9025 3.0587 2.7809 3.2407 2.5 3.6611 2.5 4.2463 2.5 5.4167 2.5 6.5871 2.5 7.1722 2.7809 7.5926 2.9025 7.7746 3.0587 7.9309 3.2407 8.0525Z" stroke="currentColor" stroke-linejoin="round" stroke-width="2"/>
  <path d="M12.4073 8.0525C12.8277 8.3333 13.4129 8.3333 14.5833 8.3333 15.7537 8.3333 16.3389 8.3333 16.7593 8.0525 16.9413 7.9309 17.0975 7.7746 17.2191 7.5926 17.5 7.1722 17.5 6.5871 17.5 5.4167 17.5 4.2463 17.5 3.6611 17.2191 3.2407 17.0975 3.0587 16.9413 2.9025 16.7593 2.7809 16.3389 2.5 15.7537 2.5 14.5833 2.5 13.4129 2.5 12.8277 2.5 12.4073 2.7809 12.2254 2.9025 12.0692 3.0587 11.9475 3.2407 11.6667 3.6611 11.6667 4.2463 11.6667 5.4167 11.6667 6.5871 11.6667 7.1722 11.9475 7.5926 12.0692 7.7746 12.2254 7.9309 12.4073 8.0525Z" stroke="currentColor" stroke-linejoin="round" stroke-width="2"/>
  <path d="M3.2407 17.2191C3.6611 17.5 4.2463 17.5 5.4166 17.5 6.587 17.5 7.1722 17.5 7.5926 17.2191 7.7746 17.0975 7.9308 16.9413 8.0524 16.7593 8.3333 16.3389 8.3333 15.7538 8.3333 14.5833 8.3333 13.4129 8.3333 12.8277 8.0524 12.4074 7.9308 12.2254 7.7746 12.0692 7.5926 11.9476 7.1722 11.6667 6.587 11.6667 5.4166 11.6667 4.2463 11.6667 3.6611 11.6667 3.2407 11.9476 3.0587 12.0692 2.9025 12.2254 2.7809 12.4074 2.5 12.8277 2.5 13.4129 2.5 14.5833 2.5 15.7538 2.5 16.3389 2.7809 16.7593 2.9025 16.9413 3.0587 17.0975 3.2407 17.2191Z" stroke="currentColor" stroke-linejoin="round" stroke-width="2"/>
  <path d="M12.4073 17.2191C12.8277 17.5 13.4129 17.5 14.5833 17.5 15.7537 17.5 16.3389 17.5 16.7593 17.2191 16.9413 17.0975 17.0975 16.9413 17.2191 16.7593 17.5 16.3389 17.5 15.7538 17.5 14.5833 17.5 13.4129 17.5 12.8277 17.2191 12.4074 17.0975 12.2254 16.9413 12.0692 16.7593 11.9476 16.3389 11.6667 15.7537 11.6667 14.5833 11.6667 13.4129 11.6667 12.8277 11.6667 12.4073 11.9476 12.2254 12.0692 12.0692 12.2254 11.9475 12.4074 11.6667 12.8277 11.6667 13.4129 11.6667 14.5833 11.6667 15.7538 11.6667 16.3389 11.9475 16.7593 12.0692 16.9413 12.2254 17.0975 12.4073 17.2191Z" stroke="currentColor" stroke-linejoin="round" stroke-width="2"/>
</svg>
