<svg xmlns="http://www.w3.org/2000/svg" width="20" height="20" viewBox="0 0 20 20" fill="none">
  <path d="M17.7014 13.5417L15.625 15.6215M15.625 15.6215L13.5417 17.7083M15.625 15.6215L17.7083 17.7083M15.625 15.6215L13.5486 13.5417" stroke="currentColor" stroke-linecap="round" stroke-linejoin="round" stroke-width="2"/>
  <path d="M9.7917 17.2917C6.2561 17.2917 4.4884 17.2917 3.39 16.1933 2.2917 15.095 2.2917 13.3272 2.2917 9.7917 2.2917 6.2561 2.2917 4.4884 3.39 3.39 4.4884 2.2917 6.2561 2.2917 9.7917 2.2917 13.3272 2.2917 15.095 2.2917 16.1933 3.39 17.2917 4.4884 17.2917 6.2561 17.2917 9.7917" stroke="currentColor" stroke-linejoin="round" stroke-width="2"/>
  <path d="M9.7917 2.2917V17.2917" stroke="currentColor" stroke-linecap="round" stroke-linejoin="round" stroke-width="2"/>
  <path d="M17.2924 9.7852H2.2966" stroke="currentColor" stroke-linecap="round" stroke-linejoin="round" stroke-width="2"/>
</svg>
