<svg xmlns="http://www.w3.org/2000/svg" width="20" height="20" viewBox="0 0 20 20" fill="none">
  <path d="M18.1667 8.3333C18.2759 8.8718 18.3333 9.4292 18.3333 10 18.3333 14.6023 14.6023 18.3333 10 18.3333 5.3976 18.3333 1.6667 14.6023 1.6667 10 1.6667 5.3976 5.3976 1.6667 10 1.6667 11.0261 1.6667 12.0089 1.8521 12.9167 2.1913" stroke="currentColor" stroke-linecap="round" stroke-linejoin="round" stroke-width="2"/>
  <path d="M6.6667 12.5C7.4268 13.512 8.6369 14.1667 10 14.1667 11.3631 14.1667 12.5732 13.512 13.3333 12.5" stroke="currentColor" stroke-linecap="round" stroke-linejoin="round" stroke-width="2"/>
  <path d="M16.2647 1.6667L14.764 3.1543C13.9582 3.9669 13.9721 5.2755 14.7779 6.0743 15.5978 6.8732 16.9177 6.8595 17.7236 6.0606 18.5433 5.2479 18.5294 3.9394 17.7236 3.1405L16.2647 1.6667Z" stroke="currentColor" stroke-linejoin="round" stroke-width="2"/>
  <path d="M6.6667 7.5C7.0193 7.7645 7.6601 8.0915 7.7412 8.6177 7.7459 8.6482 7.7491 8.679 7.7507 8.7099 7.7699 9.0671 7.5119 9.3781 6.9959 10M13.3333 7.5C12.9807 7.7645 12.3399 8.0915 12.2588 8.6177 12.2541 8.6482 12.2509 8.679 12.2492 8.7099 12.2302 9.0671 12.4882 9.3781 13.0041 10" stroke="currentColor" stroke-linecap="round" stroke-linejoin="round" stroke-width="2"/>
</svg>
