<svg xmlns="http://www.w3.org/2000/svg" width="20" height="20" viewBox="0 0 20 20" fill="none">
  <path d="M4.1667 6.25V6.6667M5 6.6667C5 7.1269 4.6269 7.5 4.1667 7.5 3.7064 7.5 3.3333 7.1269 3.3333 6.6667 3.3333 6.2064 3.7064 5.8333 4.1667 5.8333 4.6269 5.8333 5 6.2064 5 6.6667Z" stroke="currentColor" stroke-linecap="round" stroke-linejoin="round" stroke-width="2"/>
  <path d="M4.1667 12.9167V13.3333M5 13.3333C5 13.7936 4.6269 14.1667 4.1667 14.1667 3.7064 14.1667 3.3333 13.7936 3.3333 13.3333 3.3333 12.8731 3.7064 12.5 4.1667 12.5 4.6269 12.5 5 12.8731 5 13.3333Z" stroke="currentColor" stroke-linecap="round" stroke-linejoin="round" stroke-width="2"/>
  <path d="M10 6.25V6.6667M10.8333 6.6667C10.8333 7.1269 10.4603 7.5 10 7.5 9.5397 7.5 9.1667 7.1269 9.1667 6.6667 9.1667 6.2064 9.5397 5.8333 10 5.8333 10.4603 5.8333 10.8333 6.2064 10.8333 6.6667Z" stroke="currentColor" stroke-linecap="round" stroke-linejoin="round" stroke-width="2"/>
  <path d="M10 12.9167V13.3333M10.8333 13.3333C10.8333 13.7936 10.4603 14.1667 10 14.1667 9.5397 14.1667 9.1667 13.7936 9.1667 13.3333 9.1667 12.8731 9.5397 12.5 10 12.5 10.4603 12.5 10.8333 12.8731 10.8333 13.3333Z" stroke="currentColor" stroke-linecap="round" stroke-linejoin="round" stroke-width="2"/>
  <path d="M15.8333 6.25V6.6667M16.6667 6.6667C16.6667 7.1269 16.2936 7.5 15.8333 7.5 15.3731 7.5 15 7.1269 15 6.6667 15 6.2064 15.3731 5.8333 15.8333 5.8333 16.2936 5.8333 16.6667 6.2064 16.6667 6.6667Z" stroke="currentColor" stroke-linecap="round" stroke-linejoin="round" stroke-width="2"/>
  <path d="M15.8333 12.9167V13.3333M16.6667 13.3333C16.6667 13.7936 16.2936 14.1667 15.8333 14.1667 15.3731 14.1667 15 13.7936 15 13.3333 15 12.8731 15.3731 12.5 15.8333 12.5 16.2936 12.5 16.6667 12.8731 16.6667 13.3333Z" stroke="currentColor" stroke-linecap="round" stroke-linejoin="round" stroke-width="2"/>
</svg>
