<svg xmlns="http://www.w3.org/2000/svg" width="20" height="20" viewBox="0 0 20 20" fill="none">
  <path d="M7.0833 16.25V16.6667M7.9167 16.6667C7.9167 17.1269 7.5436 17.5 7.0833 17.5 6.6231 17.5 6.25 17.1269 6.25 16.6667 6.25 16.2064 6.6231 15.8333 7.0833 15.8333 7.5436 15.8333 7.9167 16.2064 7.9167 16.6667Z" stroke="currentColor" stroke-linecap="round" stroke-linejoin="round" stroke-width="2"/>
  <path d="M12.9167 16.25V16.6667M13.75 16.6667C13.75 17.1269 13.3769 17.5 12.9167 17.5 12.4564 17.5 12.0833 17.1269 12.0833 16.6667 12.0833 16.2064 12.4564 15.8333 12.9167 15.8333 13.3769 15.8333 13.75 16.2064 13.75 16.6667Z" stroke="currentColor" stroke-linecap="round" stroke-linejoin="round" stroke-width="2"/>
  <path d="M7.0833 2.9167V3.3333M7.9167 3.3333C7.9167 3.7936 7.5436 4.1667 7.0833 4.1667 6.6231 4.1667 6.25 3.7936 6.25 3.3333 6.25 2.8731 6.6231 2.5 7.0833 2.5 7.5436 2.5 7.9167 2.8731 7.9167 3.3333Z" stroke="currentColor" stroke-linecap="round" stroke-linejoin="round" stroke-width="2"/>
  <path d="M7.0833 9.5833V10M7.9167 10C7.9167 10.4603 7.5436 10.8333 7.0833 10.8333 6.6231 10.8333 6.25 10.4603 6.25 10 6.25 9.5397 6.6231 9.1667 7.0833 9.1667 7.5436 9.1667 7.9167 9.5397 7.9167 10Z" stroke="currentColor" stroke-linecap="round" stroke-linejoin="round" stroke-width="2"/>
  <path d="M12.9167 2.9167V3.3333M13.75 3.3333C13.75 3.7936 13.3769 4.1667 12.9167 4.1667 12.4564 4.1667 12.0833 3.7936 12.0833 3.3333 12.0833 2.8731 12.4564 2.5 12.9167 2.5 13.3769 2.5 13.75 2.8731 13.75 3.3333Z" stroke="currentColor" stroke-linecap="round" stroke-linejoin="round" stroke-width="2"/>
  <path d="M12.9167 9.5833V10M13.75 10C13.75 10.4603 13.3769 10.8333 12.9167 10.8333 12.4564 10.8333 12.0833 10.4603 12.0833 10 12.0833 9.5397 12.4564 9.1667 12.9167 9.1667 13.3769 9.1667 13.75 9.5397 13.75 10Z" stroke="currentColor" stroke-linecap="round" stroke-linejoin="round" stroke-width="2"/>
</svg>
