<svg xmlns="http://www.w3.org/2000/svg" width="20" height="20" viewBox="0 0 20 20" fill="none">
  <path d="M4.1667 3.75V4.1667M5 4.1667C5 4.6269 4.6269 5 4.1667 5 3.7064 5 3.3333 4.6269 3.3333 4.1667 3.3333 3.7064 3.7064 3.3333 4.1667 3.3333 4.6269 3.3333 5 3.7064 5 4.1667Z" stroke="currentColor" stroke-linecap="round" stroke-linejoin="round" stroke-width="2"/>
  <path d="M4.1667 9.5833V10M5 10C5 10.4603 4.6269 10.8333 4.1667 10.8333 3.7064 10.8333 3.3333 10.4603 3.3333 10 3.3333 9.5397 3.7064 9.1667 4.1667 9.1667 4.6269 9.1667 5 9.5397 5 10Z" stroke="currentColor" stroke-linecap="round" stroke-linejoin="round" stroke-width="2"/>
  <path d="M4.1667 15.4167V15.8333M5 15.8333C5 16.2936 4.6269 16.6667 4.1667 16.6667 3.7064 16.6667 3.3333 16.2936 3.3333 15.8333 3.3333 15.3731 3.7064 15 4.1667 15 4.6269 15 5 15.3731 5 15.8333Z" stroke="currentColor" stroke-linecap="round" stroke-linejoin="round" stroke-width="2"/>
  <path d="M10 3.75V4.1667M10.8333 4.1667C10.8333 4.6269 10.4603 5 10 5 9.5397 5 9.1667 4.6269 9.1667 4.1667 9.1667 3.7064 9.5397 3.3333 10 3.3333 10.4603 3.3333 10.8333 3.7064 10.8333 4.1667Z" stroke="currentColor" stroke-linecap="round" stroke-linejoin="round" stroke-width="2"/>
  <path d="M10 9.5833V10M10.8333 10C10.8333 10.4603 10.4603 10.8333 10 10.8333 9.5397 10.8333 9.1667 10.4603 9.1667 10 9.1667 9.5397 9.5397 9.1667 10 9.1667 10.4603 9.1667 10.8333 9.5397 10.8333 10Z" stroke="currentColor" stroke-linecap="round" stroke-linejoin="round" stroke-width="2"/>
  <path d="M10 15.4167V15.8333M10.8333 15.8333C10.8333 16.2936 10.4603 16.6667 10 16.6667 9.5397 16.6667 9.1667 16.2936 9.1667 15.8333 9.1667 15.3731 9.5397 15 10 15 10.4603 15 10.8333 15.3731 10.8333 15.8333Z" stroke="currentColor" stroke-linecap="round" stroke-linejoin="round" stroke-width="2"/>
  <path d="M15.8333 3.75V4.1667M16.6667 4.1667C16.6667 4.6269 16.2936 5 15.8333 5 15.3731 5 15 4.6269 15 4.1667 15 3.7064 15.3731 3.3333 15.8333 3.3333 16.2936 3.3333 16.6667 3.7064 16.6667 4.1667Z" stroke="currentColor" stroke-linecap="round" stroke-linejoin="round" stroke-width="2"/>
  <path d="M15.8333 9.5833V10M16.6667 10C16.6667 10.4603 16.2936 10.8333 15.8333 10.8333 15.3731 10.8333 15 10.4603 15 10 15 9.5397 15.3731 9.1667 15.8333 9.1667 16.2936 9.1667 16.6667 9.5397 16.6667 10Z" stroke="currentColor" stroke-linecap="round" stroke-linejoin="round" stroke-width="2"/>
  <path d="M15.8333 15.4167V15.8333M16.6667 15.8333C16.6667 16.2936 16.2936 16.6667 15.8333 16.6667 15.3731 16.6667 15 16.2936 15 15.8333 15 15.3731 15.3731 15 15.8333 15 16.2936 15 16.6667 15.3731 16.6667 15.8333Z" stroke="currentColor" stroke-linecap="round" stroke-linejoin="round" stroke-width="2"/>
</svg>
