<svg xmlns="http://www.w3.org/2000/svg" width="20" height="20" viewBox="0 0 20 20" fill="none">
  <path d="M12.5 15H10.8333C10.0567 15 9.6685 15 9.3622 14.8732 8.9538 14.704 8.6293 14.3795 8.4602 13.9712 8.3333 13.6648 8.3333 13.2766 8.3333 12.5 8.3333 11.7234 8.3333 11.3352 8.4602 11.0288 8.6293 10.6205 8.9538 10.296 9.3622 10.1268 9.6685 10 10.0567 10 10.8333 10H12.5C13.2766 10 13.6648 10 13.9712 10.1268 14.3795 10.296 14.704 10.6205 14.8732 11.0288 15 11.3352 15 11.7234 15 12.5 15 13.2766 15 13.6648 14.8732 13.9712 14.704 14.3795 14.3795 14.704 13.9712 14.8732 13.6648 15 13.2766 15 12.5 15Z" stroke="currentColor" stroke-linecap="round" stroke-linejoin="round" stroke-width="2"/>
  <path d="M8.3333 10.8333C7.5568 10.8333 7.1685 10.8333 6.8622 10.7065 6.4538 10.5373 6.1294 10.2128 5.9602 9.8045 5.8333 9.4982 5.8333 9.1099 5.8333 8.3333 5.8333 7.5568 5.8333 7.1685 5.9602 6.8622 6.1294 6.4538 6.4538 6.1294 6.8622 5.9602 7.1685 5.8333 7.5568 5.8333 8.3333 5.8333H10C10.7766 5.8333 11.1648 5.8333 11.4712 5.9602 11.8795 6.1294 12.204 6.4538 12.3732 6.8622 12.5 7.1685 12.5 7.5568 12.5 8.3333 12.5 9.1099 12.5 9.4982 12.3732 9.8045" stroke="currentColor" stroke-linecap="round" stroke-linejoin="round" stroke-width="2"/>
  <path d="M13.75 17.9167C14.5244 17.9167 14.9117 17.9167 15.2337 17.8526 16.5559 17.5896 17.5896 16.5559 17.8526 15.2337 17.9167 14.9117 17.9167 14.5244 17.9167 13.75M6.25 2.0833C5.4756 2.0833 5.0884 2.0833 4.7664 2.1474 3.4441 2.4104 2.4104 3.4441 2.1474 4.7664 2.0833 5.0884 2.0833 5.4756 2.0833 6.25M6.25 17.9167C5.4756 17.9167 5.0884 17.9167 4.7664 17.8526 3.4441 17.5896 2.4104 16.5559 2.1474 15.2337 2.0833 14.9117 2.0833 14.5244 2.0833 13.75M13.75 2.0833C14.5244 2.0833 14.9117 2.0833 15.2337 2.1474 16.5559 2.4104 17.5896 3.4441 17.8526 4.7664 17.9167 5.0884 17.9167 5.4756 17.9167 6.25" stroke="currentColor" stroke-linecap="round" stroke-linejoin="round" stroke-width="2"/>
</svg>
