<svg xmlns="http://www.w3.org/2000/svg" width="20" height="20" viewBox="0 0 20 20" fill="none">
  <path d="M6.6667 4.1667L16.6667 4.1667" stroke="currentColor" stroke-linecap="round" stroke-width="2"/>
  <path d="M10.8333 10L16.6667 10" stroke="currentColor" stroke-linecap="round" stroke-width="2"/>
  <path d="M10.8333 15.8333L16.6667 15.8333" stroke="currentColor" stroke-linecap="round" stroke-width="2"/>
  <path d="M3.6458 4.1667H3.5417M3.75 4.1667C3.75 4.2817 3.6567 4.375 3.5417 4.375 3.4266 4.375 3.3333 4.2817 3.3333 4.1667 3.3333 4.0516 3.4266 3.9583 3.5417 3.9583 3.6567 3.9583 3.75 4.0516 3.75 4.1667Z" stroke="currentColor" stroke-linecap="round" stroke-linejoin="round" stroke-width="2"/>
  <path d="M6.9792 10H6.875M7.0833 10C7.0833 10.1151 6.9901 10.2083 6.875 10.2083 6.7599 10.2083 6.6667 10.1151 6.6667 10 6.6667 9.8849 6.7599 9.7917 6.875 9.7917 6.9901 9.7917 7.0833 9.8849 7.0833 10Z" stroke="currentColor" stroke-linecap="round" stroke-linejoin="round" stroke-width="2"/>
  <path d="M6.9792 15.8333H6.875M7.0833 15.8333C7.0833 15.9484 6.9901 16.0417 6.875 16.0417 6.7599 16.0417 6.6667 15.9484 6.6667 15.8333 6.6667 15.7182 6.7599 15.625 6.875 15.625 6.9901 15.625 7.0833 15.7182 7.0833 15.8333Z" stroke="currentColor" stroke-linecap="round" stroke-linejoin="round" stroke-width="2"/>
</svg>
