<svg xmlns="http://www.w3.org/2000/svg" width="20" height="20" viewBox="0 0 20 20" fill="none">
  <path d="M5 3.3333C5 4.2538 4.2538 5 3.3333 5 2.4129 5 1.6667 4.2538 1.6667 3.3333 1.6667 2.4129 2.4129 1.6667 3.3333 1.6667 4.2538 1.6667 5 2.4129 5 3.3333Z" stroke="currentColor" stroke-width="2"/>
  <path d="M18.3333 3.3333C18.3333 4.2538 17.5872 5 16.6667 5 15.7462 5 15 4.2538 15 3.3333 15 2.4129 15.7462 1.6667 16.6667 1.6667 17.5872 1.6667 18.3333 2.4129 18.3333 3.3333Z" stroke="currentColor" stroke-width="2"/>
  <path d="M18.3333 16.6667C18.3333 17.5872 17.5872 18.3333 16.6667 18.3333 15.7462 18.3333 15 17.5872 15 16.6667 15 15.7462 15.7462 15 16.6667 15 17.5872 15 18.3333 15.7462 18.3333 16.6667Z" stroke="currentColor" stroke-width="2"/>
  <path d="M5 16.6667C5 17.5872 4.2538 18.3333 3.3333 18.3333 2.4129 18.3333 1.6667 17.5872 1.6667 16.6667 1.6667 15.7462 2.4129 15 3.3333 15 4.2538 15 5 15.7462 5 16.6667Z" stroke="currentColor" stroke-width="2"/>
  <path d="M16.6667 5V15M15 16.6667H5M15 3.3333H5M3.3333 5V15" stroke="currentColor" stroke-linecap="round" stroke-linejoin="round" stroke-width="2"/>
  <path d="M13.75 7.5C13.75 7.1117 13.75 6.9176 13.6866 6.7644 13.602 6.5602 13.4398 6.398 13.2356 6.3134 13.0824 6.25 12.8882 6.25 12.5 6.25H7.5C7.1117 6.25 6.9176 6.25 6.7644 6.3134 6.5602 6.398 6.398 6.5602 6.3134 6.7644 6.25 6.9176 6.25 7.1117 6.25 7.5 6.25 7.8883 6.25 8.0824 6.3134 8.2356 6.398 8.4398 6.5602 8.602 6.7644 8.6866 6.9176 8.75 7.1117 8.75 7.5 8.75H12.5C12.8882 8.75 13.0824 8.75 13.2356 8.6866 13.4398 8.602 13.602 8.4398 13.6866 8.2356 13.75 8.0824 13.75 7.8883 13.75 7.5Z" stroke="currentColor" stroke-linecap="round" stroke-linejoin="round" stroke-width="2"/>
  <path d="M13.75 12.5C13.75 12.1118 13.75 11.9176 13.6866 11.7644 13.602 11.5602 13.4398 11.398 13.2356 11.3134 13.0824 11.25 12.8882 11.25 12.5 11.25H7.5C7.1117 11.25 6.9176 11.25 6.7644 11.3134 6.5602 11.398 6.398 11.5602 6.3134 11.7644 6.25 11.9176 6.25 12.1118 6.25 12.5 6.25 12.8882 6.25 13.0824 6.3134 13.2356 6.398 13.4398 6.5602 13.602 6.7644 13.6866 6.9176 13.75 7.1117 13.75 7.5 13.75H12.5C12.8882 13.75 13.0824 13.75 13.2356 13.6866 13.4398 13.602 13.602 13.4398 13.6866 13.2356 13.75 13.0824 13.75 12.8882 13.75 12.5Z" stroke="currentColor" stroke-linecap="round" stroke-linejoin="round" stroke-width="2"/>
</svg>
