<svg xmlns="http://www.w3.org/2000/svg" width="20" height="20" viewBox="0 0 20 20" fill="none">
  <path d="M18.3333 10C18.3333 14.6023 14.6023 18.3333 10 18.3333 5.3976 18.3333 1.6667 14.6023 1.6667 10 1.6667 5.3976 5.3976 1.6667 10 1.6667 14.6023 1.6667 18.3333 5.3976 18.3333 10Z" stroke="currentColor" stroke-width="2"/>
  <path d="M3.3333 14.1667L7.1548 10.3452C7.7104 9.7896 7.9882 9.5118 8.3333 9.5118 8.6785 9.5118 8.9563 9.7896 9.5118 10.3452L9.6548 10.4882C10.2104 11.0437 10.4882 11.3215 10.8333 11.3215 11.1785 11.3215 11.4563 11.0437 12.0118 10.4882L16.6667 5.8333" stroke="currentColor" stroke-linecap="round" stroke-linejoin="round" stroke-width="2"/>
</svg>
