<svg xmlns="http://www.w3.org/2000/svg" width="20" height="20" viewBox="0 0 20 20" fill="none">
  <path d="M3.3333 6.6667V13.3333C3.3333 15.2975 3.3333 16.2796 3.9435 16.8898 4.5537 17.5 5.5358 17.5 7.5 17.5H12.5C14.4642 17.5 15.4462 17.5 16.0565 16.8898 16.6667 16.2796 16.6667 15.2975 16.6667 13.3333V3.3333" stroke="currentColor" stroke-linecap="round" stroke-linejoin="round" stroke-width="2"/>
  <path d="M7.5 17.5V14.1667C7.5 12.7859 8.6193 11.6667 10 11.6667 11.3808 11.6667 12.5 12.7859 12.5 14.1667V17.5" stroke="currentColor" stroke-linecap="round" stroke-linejoin="round" stroke-width="2"/>
  <path d="M18.3333 7.5L12.7249 3.8065C11.4024 2.9355 10.7411 2.5 10 2.5 9.2589 2.5 8.5976 2.9355 7.2751 3.8065L1.6667 7.5" stroke="currentColor" stroke-linecap="round" stroke-linejoin="round" stroke-width="2"/>
  <path d="M10.1042 7.7083H10M10.2083 7.7083C10.2083 7.8234 10.1151 7.9167 10 7.9167 9.8849 7.9167 9.7917 7.8234 9.7917 7.7083 9.7917 7.5933 9.8849 7.5 10 7.5 10.1151 7.5 10.2083 7.5933 10.2083 7.7083Z" stroke="currentColor" stroke-linecap="round" stroke-linejoin="round" stroke-width="2"/>
</svg>
