<svg xmlns="http://www.w3.org/2000/svg" width="20" height="20" viewBox="0 0 20 20" fill="none">
  <path d="M9.6254 10.3725L9.3234 10.6745 15.3635 4.6354M5.6994 13.0899L6.9074 14.2978M9.9274 11.2784C9.5938 11.612 9.053 11.612 8.7194 11.2784 8.3858 10.9448 8.3858 10.4041 8.7194 10.0705 9.053 9.7369 9.5938 9.7369 9.9274 10.0705 10.261 10.4041 10.261 10.9448 9.9274 11.2784ZM12.3435 7.6553C14.7595 10.0711 14.5977 11.1172 14.1555 11.8829 13.9053 12.3164 13.4044 12.7412 12.598 13.0595 11.9243 13.3255 11.3944 13.8768 11.2429 14.5849 11.0556 15.4601 10.6944 16.5517 9.9274 17.3186 8.4174 18.8284 6.6054 18.8284 3.8874 16.1107 1.1693 13.3928 1.1693 11.581 2.6794 10.0711 3.4464 9.3042 4.538 8.943 5.4132 8.7558 6.1215 8.6043 6.6728 8.0744 6.9388 7.4008 7.2571 6.5945 7.6819 6.0936 8.1154 5.8434 8.8813 5.4013 9.9274 5.2394 12.3435 7.6553Z" stroke="currentColor" stroke-linecap="round" stroke-linejoin="round" stroke-width="2"/>
  <path d="M17.9328 3.7352L17.0994 4.5685C17.0096 4.6584 16.9647 4.7033 16.9229 4.7372 16.5403 5.0481 15.992 5.0481 15.6093 4.7372 15.5676 4.7033 15.5227 4.6584 15.4328 4.5685 15.3429 4.4787 15.298 4.4337 15.2641 4.392 14.9532 4.0093 14.9532 3.4611 15.2641 3.0784 15.298 3.0367 15.3429 2.9917 15.4328 2.9019L16.2661 2.0685C16.356 1.9787 16.4009 1.9337 16.4427 1.8998 16.8253 1.589 17.3736 1.589 17.7563 1.8998 17.798 1.9337 17.8429 1.9787 17.9328 2.0685 18.0227 2.1584 18.0676 2.2033 18.1015 2.2451 18.4123 2.6278 18.4123 3.176 18.1015 3.5587 18.0676 3.6004 18.0227 3.6453 17.9328 3.7352Z" stroke="currentColor" stroke-width="2"/>
</svg>
