<svg xmlns="http://www.w3.org/2000/svg" width="20" height="20" viewBox="0 0 20 20" fill="none">
  <path d="M12.0833 8.3333C11.8993 8.3815 11.7193 8.44 11.544 8.5083M14.5833 8.3333C16.7398 8.8973 18.3333 10.8863 18.3333 13.2533 18.3333 16.0589 16.0948 18.3333 13.3333 18.3333 12.7489 18.3333 12.188 18.2315 11.6667 18.0442M8.75 11.2198C8.482 11.8425 8.3333 12.5303 8.3333 13.2533 8.3333 14.027 8.5036 14.7603 8.8081 15.4167" stroke="currentColor" stroke-linecap="round" stroke-linejoin="round" stroke-width="2"/>
  <path d="M13.3314 5.8333C14.5127 5.8333 15.1689 8.7484 13.8737 9.1032 13.5648 9.1878 13.098 9.1878 12.7891 9.1032 11.4955 8.7488 12.1616 5.8333 13.3314 5.8333Z" stroke="currentColor" stroke-linecap="round" stroke-linejoin="round" stroke-width="2"/>
  <path d="M13.3333 5.8333V1.6667" stroke="currentColor" stroke-linecap="round" stroke-linejoin="round" stroke-width="2"/>
  <path d="M5.4167 8.3333C3.2601 8.8973 1.6667 10.8863 1.6667 13.2533 1.6667 16.0589 3.9052 18.3333 6.6667 18.3333 9.4281 18.3333 11.6667 16.0589 11.6667 13.2533 11.6667 10.8863 10.0732 8.8973 7.9167 8.3333" stroke="currentColor" stroke-linecap="round" stroke-linejoin="round" stroke-width="2"/>
  <path d="M6.6647 5.8333C7.8461 5.8333 8.5023 8.7484 7.207 9.1032 6.8981 9.1878 6.4314 9.1878 6.1225 9.1032 4.8288 8.7488 5.4949 5.8333 6.6647 5.8333Z" stroke="currentColor" stroke-linecap="round" stroke-linejoin="round" stroke-width="2"/>
  <path d="M6.6667 5.8333V1.6667" stroke="currentColor" stroke-linecap="round" stroke-linejoin="round" stroke-width="2"/>
</svg>
