<svg xmlns="http://www.w3.org/2000/svg" width="20" height="20" viewBox="0 0 20 20" fill="none">
  <path d="M15.9665 4.9867C15.0594 4.2704 13.3148 3.0909 10.8231 2.2721 10.4403 2.1462 10.2488 2.0833 10 2.0833 9.7512 2.0833 9.5598 2.1462 9.1769 2.2721 6.6852 3.0909 4.9406 4.2704 4.0335 4.9867 3.7151 5.2381 3.5559 5.3638 3.4024 5.6335 3.2488 5.9032 3.2186 6.1239 3.1581 6.5654 3.0474 7.3742 2.9167 8.6209 2.9167 10 2.9167 11.3791 3.0474 12.6258 3.1581 13.4346 3.2186 13.8761 3.2488 14.0968 3.4024 14.3665 3.5559 14.6363 3.7151 14.7619 4.0335 15.0133 4.9406 15.7297 6.6852 16.9091 9.1769 17.7279 9.5598 17.8537 9.7512 17.9167 10 17.9167 10.2488 17.9167 10.4403 17.8537 10.8231 17.7279 13.3148 16.9091 15.0594 15.7297 15.9665 15.0133 16.2849 14.7619 16.4441 14.6363 16.5977 14.3665 16.7512 14.0968 16.7814 13.8761 16.8419 13.4346 16.9527 12.6258 17.0833 11.3791 17.0833 10 17.0833 8.6209 16.9527 7.3742 16.8419 6.5654 16.7814 6.1239 16.7512 5.9032 16.5977 5.6335 16.4441 5.3638 16.2849 5.2381 15.9665 4.9867Z" stroke="currentColor" stroke-linecap="round" stroke-linejoin="round" stroke-width="2"/>
  <path d="M7.9167 6.6667V12.5" stroke="currentColor" stroke-linecap="round" stroke-linejoin="round" stroke-width="2"/>
  <path d="M7.9167 10H12.0833" stroke="currentColor" stroke-linecap="round" stroke-linejoin="round" stroke-width="2"/>
  <path d="M12.9167 13.3333H11.25L12.0833 14.1667 12.9167 13.3333Z" stroke="currentColor" stroke-linecap="round" stroke-linejoin="round" stroke-width="2"/>
  <path d="M7.0833 6.6667L8.75 6.6667 7.9167 5.8333 7.0833 6.6667Z" stroke="currentColor" stroke-linecap="round" stroke-linejoin="round" stroke-width="2"/>
  <path d="M12.0833 7.5V13.3333" stroke="currentColor" stroke-linecap="round" stroke-linejoin="round" stroke-width="2"/>
</svg>
