<svg xmlns="http://www.w3.org/2000/svg" width="20" height="20" viewBox="0 0 20 20" fill="none">
  <path d="M7.2427 1.7931C4.8337 1.1359 2.5 3.124 2.5 5.8333 2.5 8.5428 4.8337 10.5308 7.2427 9.8736 9.1649 9.3493 11.8369 7.9837 13.8537 8.1685 14.584 8.2354 15.105 8.872 15.7889 9.0589 16.7133 9.3116 17.0752 7.9167 17.2737 7.2941 17.5754 6.3481 17.5754 5.3186 17.2737 4.3725 17.0752 3.75 16.7133 2.3551 15.7889 2.6077 15.105 2.7947 14.584 3.4313 13.8537 3.4982 11.8369 3.6829 9.1649 2.3174 7.2427 1.7931Z" stroke="currentColor" stroke-linecap="round" stroke-linejoin="round" stroke-width="2"/>
  <path d="M4.5833 9.5833C5.7265 10.7579 5.6452 12.723 5.6823 14.48 5.6978 15.2098 6.2522 15.8333 6.9559 15.8333H7.9728C8.5312 15.8333 8.8664 14.5798 9.0388 14.1853 9.2679 13.6606 9.1701 13.0619 8.8964 12.5606 8.3186 11.5019 7.9167 10.8333 8.3333 9.5833" stroke="currentColor" stroke-linecap="round" stroke-linejoin="round" stroke-width="2"/>
  <path d="M13.75 3.75L14.0658 5.0162C14.2003 5.5556 14.2003 6.1111 14.0658 6.6505L13.75 7.9167" stroke="currentColor" stroke-linecap="round" stroke-linejoin="round" stroke-width="2"/>
  <path d="M7.5 15.8333C7.5 16.6099 7.5 16.9982 7.355 17.3045 7.1617 17.7128 6.7909 18.0373 6.3242 18.2065 5.9741 18.3333 5.0542 18.3333 4.1667 18.3333" stroke="currentColor" stroke-linecap="round" stroke-linejoin="round" stroke-width="2"/>
</svg>
