<svg xmlns="http://www.w3.org/2000/svg" width="20" height="20" viewBox="0 0 20 20" fill="none">
  <path d="M17.4408 10.3547C15.9031 11.8923 12.9115 11.3938 10.7588 9.2411 8.6061 7.0884 8.1075 4.0968 9.6452 2.5592M17.4408 10.3547C18.9784 8.8171 18.4797 5.8255 16.3271 3.6729 14.1744 1.5202 11.1828 1.0216 9.6452 2.5592M17.4408 10.3547C14.3782 13.4172 8.5315 14.8089 6.861 13.1385 5.1905 11.468 6.5826 5.6217 9.6452 2.5592M6.0258 12.3038L4.3553 13.9743C3.7402 13.3592 2.743 13.3592 2.128 13.9743 1.5129 14.5893 1.5129 15.5866 2.128 16.2016 2.4611 16.5347 2.9063 16.6856 3.3422 16.6578 3.3144 17.0938 3.4653 17.5389 3.7984 17.8721 4.4135 18.4871 5.4107 18.4871 6.0258 17.8721 6.6408 17.257 6.6408 16.2598 6.0258 15.6448L7.6963 13.9743M13.3333 6.25L13.75 6.6667M14.0998 7.0147C13.946 7.1685 13.5721 7.0438 13.2645 6.7363 12.957 6.4288 12.8323 6.0548 12.9861 5.9011 13.1399 5.7473 13.5138 5.872 13.8213 6.1795 14.1289 6.487 14.2535 6.8609 14.0998 7.0147Z" stroke="currentColor" stroke-linecap="round" stroke-linejoin="round" stroke-width="2"/>
</svg>
