<svg xmlns="http://www.w3.org/2000/svg" width="20" height="20" viewBox="0 0 20 20" fill="none">
  <path d="M12.3786 3.3333H7.6218C5.5421 3.3333 3.7741 4.97 3.1276 7.2503 2.9148 8.0011 2.8084 8.3764 3.0757 8.7716 3.3431 9.1667 3.7783 9.1667 4.6488 9.1667H15.3516C16.222 9.1667 16.6573 9.1667 16.9247 8.7716 17.192 8.3764 17.0856 8.0011 16.8727 7.2503 16.2263 4.97 14.4583 3.3333 12.3786 3.3333Z" stroke="currentColor" stroke-linecap="round" stroke-linejoin="round" stroke-width="2"/>
  <path d="M5 12.5H4.6486C3.7781 12.5 3.3429 12.5 3.0755 12.7822 2.8082 13.0644 2.9146 13.3326 3.1275 13.8688 3.7739 15.4976 5.5419 16.6667 7.6216 16.6667H12.3784C14.4581 16.6667 16.2261 15.4976 16.8726 13.8688 17.0854 13.3326 17.1918 13.0644 16.9244 12.7822 16.6571 12.5 16.2218 12.5 15.3514 12.5H11.6667" stroke="currentColor" stroke-linecap="round" stroke-linejoin="round" stroke-width="2"/>
  <path d="M15.8333 12.5H16.6667C17.5872 12.5 18.3333 11.7538 18.3333 10.8333 18.3333 9.9128 17.5872 9.1667 16.6667 9.1667H10M4.1667 12.5H3.3333C2.4129 12.5 1.6667 11.7538 1.6667 10.8333 1.6667 9.9128 2.4129 9.1667 3.3333 9.1667H5M5 9.1667L6.2346 10.607C6.8227 11.2931 7.1167 11.6362 7.5 11.6362 7.8833 11.6362 8.1773 11.2931 8.7654 10.607L10 9.1667M5 9.1667H10" stroke="currentColor" stroke-linecap="round" stroke-linejoin="round" stroke-width="2"/>
  <path d="M12.5 5.8333L11.6667 6.6667" stroke="currentColor" stroke-linecap="round" stroke-linejoin="round" stroke-width="2"/>
  <path d="M7.6042 6.6667H7.5M7.7083 6.6667C7.7083 6.7817 7.6151 6.875 7.5 6.875 7.3849 6.875 7.2917 6.7817 7.2917 6.6667 7.2917 6.5516 7.3849 6.4583 7.5 6.4583 7.6151 6.4583 7.7083 6.5516 7.7083 6.6667Z" stroke="currentColor" stroke-linecap="round" stroke-width="2"/>
</svg>
