<svg xmlns="http://www.w3.org/2000/svg" width="20" height="20" viewBox="0 0 20 20" fill="none">
  <path opacity="0.4" d="M12.3784 3.3333H7.6216C5.5419 3.3333 3.7739 4.7362 3.1275 6.6908 2.9146 7.3343 2.8082 7.656 3.0755 7.9947 3.3429 8.3333 3.7781 8.3333 4.6486 8.3333H15.3514C16.2218 8.3333 16.6571 8.3333 16.9244 7.9947 17.1918 7.656 17.0854 7.3343 16.8726 6.6908 16.2261 4.7362 14.4581 3.3333 12.3784 3.3333Z" stroke="currentColor" stroke-linecap="round" stroke-linejoin="round" stroke-width="2"/>
  <path d="M3.3333 13.3333H2.9167C2.2263 13.3333 1.6667 12.7737 1.6667 12.0833 1.6667 11.393 2.2263 10.8333 2.9167 10.8333H9.4953C9.8244 10.8333 10.1461 10.9307 10.4198 11.1133L12.0378 12.1918C12.3177 12.3784 12.6823 12.3784 12.9623 12.1918L14.5802 11.1133C14.8539 10.9307 15.1756 10.8333 15.5047 10.8333H17.0833C17.7737 10.8333 18.3333 11.393 18.3333 12.0833 18.3333 12.7737 17.7737 13.3333 17.0833 13.3333H16.6667M3.3333 13.3333L3.6932 14.773C3.9715 15.8859 4.9714 16.6667 6.1186 16.6667H13.8814C15.0286 16.6667 16.0285 15.8859 16.3068 14.773L16.6667 13.3333M3.3333 13.3333H9.1667M16.6667 13.3333H15.4167" stroke="currentColor" stroke-linecap="round" stroke-linejoin="round" stroke-width="2"/>
  <path opacity="0.4" d="M8.75 5.4167L7.9167 6.25" stroke="currentColor" stroke-linecap="round" stroke-linejoin="round" stroke-width="2"/>
  <path opacity="0.4" d="M12.6042 5.8333H12.5M12.7083 5.8333C12.7083 5.9484 12.6151 6.0417 12.5 6.0417 12.3849 6.0417 12.2917 5.9484 12.2917 5.8333 12.2917 5.7183 12.3849 5.625 12.5 5.625 12.6151 5.625 12.7083 5.7183 12.7083 5.8333Z" stroke="currentColor" stroke-linecap="round" stroke-width="2"/>
</svg>
