<svg xmlns="http://www.w3.org/2000/svg" width="20" height="20" viewBox="0 0 20 20" fill="none">
  <path d="M14.2328 5.4441L12.9128 4.1228C11.8747 3.0837 10.4668 2.5 8.9988 2.5 8.2942 2.5 7.9414 3.3526 8.4396 3.8512L8.7704 4.1824C9.9307 5.3438 9.9307 7.2268 8.7704 8.3882L10.8713 10.4912 12.1319 9.2295 13.3924 10.4912C12.9283 10.9558 12.9283 11.709 13.3924 12.1736L13.8127 12.5942C14.1563 12.9382 14.3282 13.1102 14.5135 13.2022 14.8662 13.3771 15.2803 13.3771 15.6329 13.2022 15.8183 13.1102 15.9901 12.9382 16.3338 12.5942L17.5943 11.3324C17.938 10.9884 18.1098 10.8164 18.2017 10.6309 18.3764 10.2779 18.3764 9.8634 18.2017 9.5104 18.1098 9.3248 17.938 9.1528 17.5943 8.8088L17.1741 8.3882C16.71 7.9237 15.9575 7.9237 15.4933 8.3882L14.2328 7.1265C14.6969 6.6619 14.6969 5.9087 14.2328 5.4441Z" stroke="currentColor" stroke-linecap="round" stroke-linejoin="round" stroke-width="2"/>
  <path d="M8.8395 8.3333L2.1036 14.9852C1.8238 15.2615 1.6667 15.6362 1.6667 16.0268 1.6667 16.8404 2.3346 17.5 3.1584 17.5 3.5541 17.5 3.9335 17.3448 4.2133 17.0685L11.3711 10" stroke="currentColor" stroke-linecap="round" stroke-linejoin="round" stroke-width="2"/>
</svg>
