<svg xmlns="http://www.w3.org/2000/svg" width="20" height="20" viewBox="0 0 20 20" fill="none">
  <path d="M6.0714 7.5H13.9286C15.3207 7.5 16.0168 7.5 16.5251 7.8193 16.7901 7.9858 17.0142 8.2099 17.1807 8.4749 17.5 8.9832 17.5 9.6792 17.5 11.0714 17.5 13.5774 17.5 14.8303 16.9253 15.7451 16.6255 16.2222 16.2222 16.6255 15.7451 16.9253 14.8303 17.5 13.5774 17.5 11.0714 17.5H8.9286C6.4226 17.5 5.1696 17.5 4.2549 16.9253 3.7779 16.6255 3.3745 16.2222 3.0748 15.7451 2.5 14.8303 2.5 13.5774 2.5 11.0714 2.5 9.6792 2.5 8.9832 2.8193 8.4749 2.9858 8.2099 3.2099 7.9858 3.4749 7.8193 3.9831 7.5 4.6792 7.5 6.0714 7.5Z" stroke="currentColor" stroke-linecap="round" stroke-linejoin="round" stroke-width="2"/>
  <path d="M6.6667 7.5V5.8333C6.6667 3.9924 8.1591 2.5 10 2.5 11.8409 2.5 13.3333 3.9924 13.3333 5.8333V7.5" stroke="currentColor" stroke-linecap="round" stroke-linejoin="round" stroke-width="2"/>
</svg>
