<svg xmlns="http://www.w3.org/2000/svg" width="20" height="20" viewBox="0 0 20 20" fill="none">
  <path d="M17.4528 7.0833V4.5833C17.4528 3.6629 16.7066 2.9167 15.7862 2.9167 14.8657 2.9167 14.1195 3.6629 14.1195 4.5833V7.0833C14.1195 8.0038 14.8657 8.75 15.7862 8.75 16.7066 8.75 17.4528 8.0038 17.4528 7.0833Z" stroke="currentColor" stroke-linecap="round" stroke-linejoin="round" stroke-width="2"/>
  <path d="M14.1195 7.0833V3.75C14.1195 2.8295 13.3732 2.0833 12.4528 2.0833 11.5323 2.0833 10.7862 2.8295 10.7862 3.75V7.0833C10.7862 8.0038 11.5323 8.75 12.4528 8.75 13.3732 8.75 14.1195 8.0038 14.1195 7.0833Z" stroke="currentColor" stroke-linecap="round" stroke-linejoin="round" stroke-width="2"/>
  <path d="M10.7862 7.0833V3.75C10.7862 2.8295 10.0399 2.0833 9.1195 2.0833 8.199 2.0833 7.4528 2.8295 7.4528 3.75V5.8333" stroke="currentColor" stroke-linecap="round" stroke-linejoin="round" stroke-width="2"/>
  <path d="M7.4528 5.8333V4.5833C7.4528 3.6629 6.7066 2.9167 5.7861 2.9167 4.8657 2.9167 4.1195 3.6629 4.1195 4.5833V7.0833C4.1195 7.2272 4.1377 7.3668 4.172 7.5" stroke="currentColor" stroke-linecap="round" stroke-linejoin="round" stroke-width="2"/>
  <path d="M17.4527 6.2489V10.5009C17.4527 11.9707 17.4527 12.7056 17.321 13.3149 16.8373 15.5524 15.0895 17.3002 12.852 17.7838 12.2427 17.9156 11.5078 17.9156 10.038 17.9156 8.8403 17.9156 8.2415 17.9156 7.7163 17.8186 5.7998 17.4647 4.1867 16.177 3.4168 14.3866 3.2058 13.8959 3.0706 13.301 2.8002 12.1113 2.6385 11.4 2.5577 11.0444 2.5473 10.7253 2.5116 9.6265 3.02 8.5808 3.9061 7.9302 4.1634 7.7412 4.4871 7.5879 5.1345 7.2812L9.1641 5.3724C9.6023 5.1649 10.1261 5.3457 10.3429 5.7794 10.8368 6.7673 10.5326 7.968 9.6277 8.6014L7.036 10.4156C8.0082 10.8323 9.9527 12.0823 9.9527 13.7489" stroke="currentColor" stroke-linecap="round" stroke-linejoin="round" stroke-width="2"/>
</svg>
