<svg xmlns="http://www.w3.org/2000/svg" width="20" height="20" viewBox="0 0 20 20" fill="none">
  <path d="M11.6667 10.8333V7.9167C11.6667 7.2263 12.2263 6.6667 12.9167 6.6667 13.607 6.6667 14.1667 7.2263 14.1667 7.9167V13.3333C14.1667 16.0948 11.9281 18.3333 9.1667 18.3333H8.5948C6.8266 18.3333 5.131 17.6309 3.8807 16.3808L2.0118 14.5118C1.7908 14.2908 1.6667 13.9911 1.6667 13.6785 1.6667 13.0277 2.1943 12.5 2.8452 12.5 3.1577 12.5 3.4575 12.6242 3.6785 12.8452L5 14.1667 2.0118 11.1785C1.7908 10.9575 1.6667 10.6578 1.6667 10.3452 1.6667 9.6943 2.1943 9.1667 2.8452 9.1667 3.1577 9.1667 3.4575 9.2908 3.6785 9.5118L6.6667 12.5 2.8452 8.6785C2.6242 8.4575 2.5 8.1577 2.5 7.8452 2.5 7.1943 3.0276 6.6667 3.6785 6.6667 3.9911 6.6667 4.2908 6.7908 4.5118 7.0118L8.3333 10.8333 5.3452 7.8452C5.1242 7.6242 5 7.3244 5 7.0118 5 6.361 5.5276 5.8333 6.1785 5.8333 6.4911 5.8333 6.7908 5.9575 7.0118 6.1785L11.6667 10.8333Z" stroke="currentColor" stroke-linecap="round" stroke-linejoin="round" stroke-width="2"/>
  <path d="M5.8333 1.6667V2.9167M2.5 4.1667H3.75" stroke="currentColor" stroke-linecap="round" stroke-linejoin="round" stroke-width="2"/>
  <path d="M13.3333 16.6667C16.0948 16.6667 18.3333 14.4281 18.3333 11.6667V6.25C18.3333 5.5596 17.7737 5 17.0833 5 16.5391 5 16.0761 5.3478 15.9045 5.8333" stroke="currentColor" stroke-linecap="round" stroke-linejoin="round" stroke-width="2"/>
  <path d="M11.6667 4.5833L10.8333 3.7501C10.6123 3.5291 10.3126 3.4049 10 3.4049 9.3492 3.4049 8.8215 3.9326 8.8215 4.5835" stroke="currentColor" stroke-linecap="round" stroke-linejoin="round" stroke-width="2"/>
</svg>
