<svg xmlns="http://www.w3.org/2000/svg" width="20" height="20" viewBox="0 0 20 20" fill="none">
  <path d="M11.6667 6.18L8.75 6.18M8.75 6.18L3.5417 6.18C2.7363 6.18 2.0833 6.8329 2.0833 7.6383 2.0833 8.4438 2.7363 9.0967 3.5417 9.0967L7.9167 9.0967 8.3147 11.6608C8.5557 13.268 8.6763 14.0717 9.0153 14.6377 9.5755 15.5727 10.4167 16.25 11.6447 16.25 12.5 16.25 13.0738 16.0386 14.6156 15.5247 15.5939 15.1986 16.083 15.0355 16.4703 14.7697 17.1077 14.3319 17.5732 13.6861 17.7868 12.9429 17.9167 12.4915 17.9167 11.9759 17.9167 10.9447L17.9167 9.7739C17.9167 8.2868 17.9167 7.5433 17.6376 6.9049 17.5114 6.6164 17.3451 6.3473 17.1435 6.1055 16.6973 5.5703 16.0323 5.2378 14.7022 4.5728 13.6236 4.0335 13.0843 3.7638 12.5252 3.7507 12.273 3.7448 12.0213 3.7771 11.7788 3.8464 11.2412 4.0003 10.7873 4.3973 9.8798 5.1914L8.75 6.18Z" stroke="currentColor" stroke-linecap="round" stroke-linejoin="round" stroke-width="2"/>
</svg>
