<svg xmlns="http://www.w3.org/2000/svg" width="20" height="20" viewBox="0 0 20 20" fill="none">
  <path d="M15.4167 9.5833V4.7917C15.4167 3.9863 16.0696 3.3333 16.875 3.3333 17.6804 3.3333 18.3333 3.9863 18.3333 4.7917V10.7338C18.3333 12.3758 18.3333 13.1968 18.1692 13.8742 17.6546 15.9971 15.9971 17.6546 13.8742 18.1692 13.1968 18.3333 12.3758 18.3333 10.7338 18.3333 9.8138 18.3333 9.3538 18.3333 8.9238 18.2689 7.5932 18.0694 6.3723 17.4161 5.4682 16.4195 5.1761 16.0975 4.9209 15.7148 4.4106 14.9493L1.9352 11.2362C1.7601 10.9735 1.6667 10.6648 1.6667 10.3492 1.6667 9.466 2.3826 8.75 3.2658 8.75H3.3791C3.879 8.75 4.3539 8.9684 4.6792 9.348L5.582 10.4013C5.8707 10.7381 6.0151 10.9065 6.1354 10.9409 6.3103 10.9909 6.4975 10.9217 6.5977 10.7699 6.6667 10.6654 6.6667 10.4437 6.6667 10" stroke="currentColor" stroke-linecap="round" stroke-linejoin="round" stroke-width="2"/>
  <path d="M15.4167 8.75V8.125C15.4167 7.3196 14.7637 6.6667 13.9583 6.6667 13.1529 6.6667 12.5 7.3196 12.5 8.125V8.75" stroke="currentColor" stroke-linecap="round" stroke-linejoin="round" stroke-width="2"/>
  <path d="M12.5 9.5833V7.2917C12.5 6.4863 11.8471 5.8333 11.0417 5.8333 10.2363 5.8333 9.5833 6.4863 9.5833 7.2917V9.1667" stroke="currentColor" stroke-linecap="round" stroke-linejoin="round" stroke-width="2"/>
  <path d="M9.5833 8.3333V3.125C9.5833 2.3196 8.9304 1.6667 8.125 1.6667 7.3196 1.6667 6.6667 2.3196 6.6667 3.125V10" stroke="currentColor" stroke-linecap="round" stroke-linejoin="round" stroke-width="2"/>
</svg>
