<svg xmlns="http://www.w3.org/2000/svg" width="20" height="20" viewBox="0 0 20 20" fill="none">
  <path d="M9.5837 13.3335H10.417C11.3375 13.3335 12.0837 12.5873 12.0837 11.6668M12.0837 11.6668V10.8335M12.0837 11.6668C12.0837 12.1271 12.4568 12.5002 12.917 12.5002 13.8375 12.5002 14.5837 11.754 14.5837 10.8335M14.5837 10.8335V10.0002M14.5837 10.8335C14.5837 11.2698 14.9754 11.6016 15.4057 11.5298L15.691 11.4823C16.4947 11.3483 17.0837 10.6531 17.0837 9.8383L17.0833 8.6112C17.0833 6.8001 17.0833 5.8945 16.8074 5.1735 16.6474 4.7553 16.2253 4.222 15.8877 3.8366 15.5957 3.5032 15.4167 3.0804 15.4167 2.6372V1.6667M9.5835 11.6668V17.0835C9.5835 17.7739 9.0238 18.3335 8.3335 18.3335 7.6432 18.3335 7.0835 17.7739 7.0835 17.0835L7.0833 8.7815 5.7331 10.136C5.1406 10.7303 4.1648 10.6761 3.6414 10.0198 3.2409 9.5176 3.2298 8.8072 3.6145 8.2928L6.6142 4.4609C7.1882 3.7278 7.5 2.5978 7.5 1.6667" stroke="currentColor" stroke-linecap="round" stroke-linejoin="round" stroke-width="2"/>
</svg>
