<svg xmlns="http://www.w3.org/2000/svg" width="20" height="20" viewBox="0 0 20 20" fill="none">
  <path d="M6.6667 9.5837L6.6667 10.417C6.6667 11.3375 7.4129 12.0837 8.3333 12.0837M8.3333 12.0837L9.1667 12.0837M8.3333 12.0837C7.8731 12.0837 7.5 12.4568 7.5 12.917 7.5 13.8375 8.2462 14.5837 9.1667 14.5837M9.1667 14.5837L10 14.5837M9.1667 14.5837C8.7304 14.5837 8.3986 14.9754 8.4703 15.4057L8.5179 15.691C8.6518 16.4947 9.3472 17.0837 10.1619 17.0837L11.389 17.0833C13.2002 17.0833 14.1058 17.0833 14.8267 16.8074 15.2449 16.6474 15.7783 16.2253 16.1637 15.8877 16.497 15.5957 16.9198 15.4167 17.363 15.4167L18.3335 15.4167M8.3333 9.5835L2.9167 9.5835C2.2263 9.5835 1.6667 9.0238 1.6667 8.3335 1.6667 7.6432 2.2263 7.0835 2.9167 7.0835L11.2187 7.0833 9.8642 5.7331C9.2699 5.1406 9.3241 4.1648 9.9804 3.6414 10.4826 3.2409 11.1929 3.2298 11.7074 3.6145L15.5392 6.6142C16.2724 7.1882 17.4024 7.5 18.3335 7.5" stroke="currentColor" stroke-linecap="round" stroke-linejoin="round" stroke-width="2"/>
</svg>
