<svg xmlns="http://www.w3.org/2000/svg" width="20" height="20" viewBox="0 0 20 20" fill="none">
  <path d="M15.4167 9.5833V7.2917C15.4167 6.4863 16.0696 5.8333 16.875 5.8333 17.6804 5.8333 18.3333 6.4863 18.3333 7.2917V12.3333C18.3333 15.6471 15.647 18.3333 12.3333 18.3333H10.049M6.6667 11.6667L4.6792 9.348C4.3539 8.9684 3.879 8.75 3.3791 8.75H3.2658C2.3826 8.75 1.6667 9.466 1.6667 10.3492 1.6667 10.6648 1.7601 10.9735 1.9352 11.2362L4.8177 15.5598C5.9728 17.2926 7.9175 18.3333 10 18.3333" stroke="currentColor" stroke-linecap="round" stroke-linejoin="round" stroke-width="2"/>
  <path d="M15.4167 7.0833V4.7917C15.4167 3.9863 14.7637 3.3333 13.9583 3.3333 13.1529 3.3333 12.5 3.9863 12.5 4.7917V8.75" stroke="currentColor" stroke-linecap="round" stroke-linejoin="round" stroke-width="2"/>
  <path d="M12.5 8.75V3.125C12.5 2.3196 11.8471 1.6667 11.0417 1.6667 10.2363 1.6667 9.5833 2.3196 9.5833 3.125V8.3333" stroke="currentColor" stroke-linecap="round" stroke-linejoin="round" stroke-width="2"/>
  <path d="M9.5833 8.3333V4.7917C9.5833 3.9863 8.9304 3.3333 8.125 3.3333 7.3196 3.3333 6.6667 3.9863 6.6667 4.7917V11.6667" stroke="currentColor" stroke-linecap="round" stroke-linejoin="round" stroke-width="2"/>
</svg>
