<svg xmlns="http://www.w3.org/2000/svg" width="20" height="20" viewBox="0 0 20 20" fill="none">
  <path d="M16.6611 8.75C17.3667 10.8148 19.265 14.5483 17.7849 16.567 15.878 19.168 3.7546 18.6627 2.2181 16.567 0.7381 14.5483 2.6277 10.8148 3.3333 8.75" stroke="currentColor" stroke-linecap="round" stroke-linejoin="round" stroke-width="2"/>
  <path d="M10 12.5C11.053 12.5 12.4987 14.6428 11.0663 14.9108 10.4252 15.0307 9.5647 15.0288 8.9337 14.9108 7.5013 14.6428 8.947 12.5 10 12.5Z" stroke="currentColor" stroke-linecap="round" stroke-width="2"/>
  <path d="M6.25 12.5C4.7684 11.5039 3.8428 10.0768 3.4772 8.3915 3.3221 7.6765 3.2445 7.319 3.496 6.9928 3.7476 6.6667 4.1563 6.6667 4.9737 6.6667H15.0263C15.8438 6.6667 16.2524 6.6667 16.504 6.9928 16.7555 7.319 16.6779 7.6765 16.5228 8.3915 16.1573 10.0768 15.2317 11.5039 13.75 12.5" stroke="currentColor" stroke-linecap="round" stroke-width="2"/>
  <path d="M10 12.5V6.6667" stroke="currentColor" stroke-linecap="round" stroke-width="2"/>
  <path d="M5.4167 6.6667C5.8916 3.3267 7.7633 0.8333 10 0.8333 12.2367 0.8333 14.1084 3.3267 14.5833 6.6667" stroke="currentColor" stroke-width="2"/>
</svg>
