<svg xmlns="http://www.w3.org/2000/svg" width="20" height="20" viewBox="0 0 20 20" fill="none">
  <path d="M12.0833 7.0715C11.3607 7.4328 9.2598 8.0447 7.1931 7.9837 6.65 7.9677 6.25 7.5013 6.25 6.9581 6.25 6.5213 6.5086 6.1248 6.9007 5.9325 7.7368 5.5224 9.0558 4.8369 10.2257 4.2042 10.9361 3.82 11.2912 3.6279 11.5605 3.537 12.2819 3.2934 12.8626 3.2841 13.5914 3.5044 13.8635 3.5866 14.1903 3.75 14.8437 4.0767L15.5973 4.4535C15.657 4.4834 15.6869 4.4983 15.7175 4.5107 15.7963 4.5426 15.8794 4.5622 15.9641 4.5689 15.997 4.5715 16.0304 4.5715 16.0973 4.5715 16.6268 4.5715 16.8916 4.5715 17.1085 4.6312 17.6752 4.787 18.1179 5.2297 18.2737 5.7963 18.3333 6.0132 18.3333 6.278 18.3333 6.8076V11.4168C18.3333 12.0085 17.8537 12.4882 17.2619 12.4882 17.146 12.4882 17.0332 12.5258 16.9405 12.5953L16.6667 12.8007C16.0888 13.2341 15.7999 13.4507 15.4687 13.5762 15.4059 13.5999 15.3423 13.6212 15.2779 13.6397 14.9376 13.7382 14.5764 13.7382 13.8542 13.7382H11.6667" stroke="currentColor" stroke-linecap="round" stroke-linejoin="round" stroke-width="2"/>
  <path d="M12.0833 7.0703L14.6428 9.969C15.076 10.4456 15.0586 11.1784 14.6032 11.6338 14.132 12.105 13.368 12.105 12.8968 11.6338 13.3571 12.0941 13.3769 12.8601 12.9167 13.3203 12.4564 13.7806 11.7103 13.7806 11.25 13.3203L10.8333 12.9037C11.2936 13.3639 11.2936 14.1101 10.8333 14.5703 10.3731 15.0306 9.6269 15.0306 9.1667 14.5703 9.6269 15.0306 9.6269 15.7767 9.1667 16.237L9.1161 16.2875C8.8817 16.5219 8.5638 16.6537 8.2322 16.6537H8.125C7.7248 16.6537 7.341 16.4947 7.0581 16.2117L3.6785 12.8322C3.4575 12.6112 3.1577 12.487 2.8452 12.487 2.1943 12.487 1.6667 11.9593 1.6667 11.3085V7.9036C1.6667 6.3323 1.6667 5.5466 2.1548 5.0585 2.643 4.5703 3.4286 4.5703 5 4.5703H9.1667" stroke="currentColor" stroke-linecap="round" stroke-linejoin="round" stroke-width="2"/>
</svg>
