<svg xmlns="http://www.w3.org/2000/svg" width="20" height="20" viewBox="0 0 20 20" fill="none">
  <path d="M7.8908 6.4598L3.3371 6.4598C2.6447 6.4598 2.0833 7.0201 2.0833 7.7113 2.0833 8.4025 2.6447 8.9627 3.3371 8.9627H6.259L8.7625 8.9627M6.259 8.9627L6.2814 9.8414C6.2965 10.4339 6.62 10.9478 7.0963 11.2313M7.8908 6.4598L11.6933 6.4598M7.8908 6.4598L10.1907 4.2986C11.747 2.9882 12.8815 3.6768 13.5118 4.1604L15.543 5.5061C17.2659 6.5268 17.9167 7.7079 17.9167 8.7015V12.7688C17.9167 14.6572 15.9314 16.418 14.1118 16.418L9.7786 16.4581C8.9367 16.4658 8.2208 15.8469 8.1083 15.0142L7.9506 13.7305M8.7873 11.4658H7.9506C7.6387 11.4658 7.3465 11.3803 7.0963 11.2313M7.0963 11.2313L7.1419 12.3443C7.1649 13.2481 7.9055 13.9687 8.8112 13.9687H9.6478" stroke="currentColor" stroke-linecap="round" stroke-linejoin="round" stroke-width="2"/>
</svg>
