<svg xmlns="http://www.w3.org/2000/svg" width="20" height="20" viewBox="0 0 20 20" fill="none">
  <path d="M15.9781 10.7713V10.1C15.9781 8.8743 15.9781 8.2615 15.6028 7.8808 15.2277 7.5 14.6238 7.5 13.416 7.5H6.584C5.3762 7.5 4.7724 7.5 4.3971 7.8808 4.022 8.2615 4.022 8.8743 4.022 10.1V10.7713C4.022 11.0848 4.022 11.2416 3.9945 11.3949 3.9671 11.5483 3.9129 11.6951 3.8045 11.9886L3.6234 12.4785C2.6406 15.1383 2.1491 16.4683 2.7859 17.4008 3.4228 18.3333 4.8224 18.3333 7.6216 18.3333H12.3784C15.1777 18.3333 16.5773 18.3333 17.2141 17.4008 17.8509 16.4683 17.3594 15.1383 16.3766 12.4785L16.1956 11.9886C16.0871 11.6951 16.0328 11.5483 16.0054 11.3949 15.9781 11.2416 15.9781 11.0848 15.9781 10.7713Z" stroke="currentColor" stroke-linecap="round" stroke-width="2"/>
  <path d="M13.3333 9.1667C13.3333 4.1667 11.5546 1.6667 10 1.6667 8.4454 1.6667 6.6667 4.1667 6.6667 9.1667" stroke="currentColor" stroke-linecap="round" stroke-width="2"/>
  <path d="M10 13.3333C11.042 13.3333 12.4533 15.5232 11.1289 15.7462 10.4357 15.8628 9.5593 15.862 8.8711 15.7462 7.5467 15.5232 8.958 13.3333 10 13.3333Z" stroke="currentColor" stroke-linecap="round" stroke-width="2"/>
  <path d="M11.6167 14.1707C12.6754 14.0608 14.5398 13.4389 15.8793 12.452" stroke="currentColor" stroke-linecap="round" stroke-linejoin="round" stroke-width="2"/>
  <path d="M8.4289 14.1928C7.3701 14.0828 5.5058 13.461 4.1663 12.4741" stroke="currentColor" stroke-linecap="round" stroke-linejoin="round" stroke-width="2"/>
</svg>
