<svg xmlns="http://www.w3.org/2000/svg" width="20" height="20" viewBox="0 0 20 20" fill="none">
  <path d="M1.6667 15V10C1.6667 9.6125 1.6667 9.4188 1.7093 9.2598 1.8248 8.8284 2.1618 8.4915 2.5931 8.3759 2.7521 8.3333 2.9458 8.3333 3.3333 8.3333 3.7208 8.3333 3.9146 8.3333 4.0735 8.3759 4.5049 8.4915 4.8418 8.8284 4.9574 9.2598 5 9.4188 5 9.6125 5 10V15C5 15.3875 5 15.5813 4.9574 15.7402 4.8418 16.1716 4.5049 16.5085 4.0735 16.6241 3.9146 16.6667 3.7208 16.6667 3.3333 16.6667 2.9458 16.6667 2.7521 16.6667 2.5931 16.6241 2.1618 16.5085 1.8248 16.1716 1.7093 15.7402 1.6667 15.5813 1.6667 15.3875 1.6667 15Z" stroke="currentColor" stroke-linecap="round" stroke-linejoin="round" stroke-width="2"/>
  <path d="M5 9.1667H6.4737C7.1508 9.1667 7.8209 9.3042 8.4433 9.5709L12.3812 11.2586C12.9588 11.5062 13.3333 12.0742 13.3333 12.7026 13.3333 13.2811 12.8644 13.75 12.2859 13.75H11.7488C11.1441 13.75 10.5448 13.6346 9.9833 13.41L8.75 12.9167" stroke="currentColor" stroke-linecap="round" stroke-linejoin="round" stroke-width="2"/>
  <path d="M11.6667 13.75H17.1457C17.8017 13.75 18.3333 14.2817 18.3333 14.9376 18.3333 15.4678 17.9818 15.9337 17.472 16.0794L13.1209 17.3226C12.709 17.4403 12.2827 17.5 11.8543 17.5 11.4531 17.5 11.0538 17.4477 10.6662 17.3443L5 15.8333" stroke="currentColor" stroke-linecap="round" stroke-linejoin="round" stroke-width="2"/>
  <circle cx="15" cy="5.833333333333334" r="3.3333333333333335" stroke="currentColor" stroke-linecap="round" stroke-linejoin="round" stroke-width="2"/>
</svg>
