<svg xmlns="http://www.w3.org/2000/svg" width="20" height="20" viewBox="0 0 20 20" fill="none">
  <path d="M1.6667 7.3618H2.4572C2.9952 7.3618 3.5188 7.1878 3.9505 6.8657L8.0362 3.817C8.5074 3.4654 9.092 3.1846 9.6318 3.4167 10.5054 3.7925 11.073 4.8527 9.7631 6.1504L8.3386 7.4817 17.0245 7.4817C18.7272 7.5286 18.8116 10.2693 17.0245 10.3864H12.0745C12.2338 11.6201 11.3643 17.4314 7.6807 16.5843 7.5057 16.5441 7.3281 16.5039 7.1529 16.4647 6.3872 16.2933 5.0227 15.7866 4.225 15.2279 3.3945 14.6463 2.5674 14.8515 1.6667 14.8515" stroke="currentColor" stroke-linecap="round" stroke-linejoin="round" stroke-width="2"/>
</svg>
