<svg xmlns="http://www.w3.org/2000/svg" width="20" height="20" viewBox="0 0 20 20" fill="none">
  <path d="M6.18 8.3333L6.18 11.25M6.18 11.25V16.4583C6.18 17.2638 6.8329 17.9167 7.6383 17.9167 8.4438 17.9167 9.0967 17.2638 9.0967 16.4583V12.0833L11.6608 11.6853C13.268 11.4443 14.0717 11.3238 14.6377 10.9847 15.5727 10.4245 16.25 9.5833 16.25 8.3553 16.25 7.5 16.0386 6.9262 15.5247 5.3844 15.1986 4.4061 15.0355 3.917 14.7697 3.5298 14.3319 2.8923 13.6861 2.4268 12.9429 2.2131 12.4915 2.0833 11.9759 2.0833 10.9447 2.0833H9.7739C8.2868 2.0833 7.5433 2.0833 6.9049 2.3625 6.6164 2.4886 6.3473 2.6549 6.1055 2.8565 5.5703 3.3027 5.2378 3.9678 4.5728 5.2978 4.0335 6.3764 3.7638 6.9157 3.7507 7.4749 3.7448 7.727 3.7771 7.9786 3.8464 8.2211 4.0003 8.7588 4.3973 9.2127 5.1914 10.1202L6.18 11.25Z" stroke="currentColor" stroke-linecap="round" stroke-linejoin="round" stroke-width="2"/>
</svg>
