<svg xmlns="http://www.w3.org/2000/svg" width="20" height="20" viewBox="0 0 20 20" fill="none">
  <path d="M18.3322 7.3618H17.5428C17.0048 7.3618 16.4812 7.1878 16.0496 6.8657L11.9638 3.817C11.4926 3.4654 10.908 3.1846 10.3683 3.4167 9.4946 3.7925 8.927 4.8527 10.2369 6.1504L11.6614 7.4817 2.9755 7.4817C1.2729 7.5286 1.1885 10.2693 2.9755 10.3864H7.9255C7.7662 11.6201 8.6357 17.4314 12.3193 16.5843 12.4943 16.5441 12.6719 16.5039 12.8471 16.4647 13.6128 16.2933 14.9772 15.7866 15.775 15.2279 16.6055 14.6463 17.9296 14.8515 18.3333 14.8515" stroke="currentColor" stroke-linecap="round" stroke-linejoin="round" stroke-width="2"/>
</svg>
