<svg xmlns="http://www.w3.org/2000/svg" width="20" height="20" viewBox="0 0 20 20" fill="none">
  <path d="M12.9167 12.5L11.6667 8.75C10.286 8.7499 10 9.8692 10 11.2499V12.5" stroke="currentColor" stroke-linecap="round" stroke-linejoin="round" stroke-width="2"/>
  <path d="M7.0833 12.5L8.3333 8.75C9.714 8.7499 10 9.8692 10 11.2499V12.5" stroke="currentColor" stroke-linecap="round" stroke-linejoin="round" stroke-width="2"/>
  <path d="M18.3149 18.3332C17.3569 17.7745 15.7432 16.5119 13.5739 16.6733 13.0243 16.7142 12.7492 16.7347 12.498 16.7153 12.2467 16.696 12.2396 16.6944 12.2255 16.6911 10.9492 16.3954 10 15.2797 10 13.9485V2.6639C10 2.1132 10.4464 1.6667 10.9972 1.6667 11.4021 1.6666 11.7668 1.9115 11.9202 2.2863L14.1853 7.8233C15.0733 9.9942 15.5174 11.0795 16.2914 11.6378 16.3391 11.6721 16.4273 11.7314 16.4772 11.7624 17.2869 12.2675 17.6357 12.2675 18.3333 12.2675" stroke="currentColor" stroke-linecap="round" stroke-linejoin="round" stroke-width="2"/>
  <path d="M1.6851 18.3333C2.6431 17.7746 4.2568 16.512 6.4261 16.6733 6.9757 16.7142 7.2508 16.7347 7.502 16.7153 7.7533 16.6961 7.7604 16.6944 7.7745 16.6912 9.0508 16.3955 10 15.2797 10 13.9485V2.6639C10 2.1131 9.5535 1.6667 9.0028 1.6667 8.5979 1.6667 8.2332 1.9115 8.0799 2.2863L5.8147 7.8234C4.9266 9.9942 4.4826 11.0796 3.7086 11.6378 3.661 11.6722 3.5726 11.7314 3.5228 11.7625 2.7131 12.2675 2.3643 12.2675 1.6667 12.2675" stroke="currentColor" stroke-linecap="round" stroke-linejoin="round" stroke-width="2"/>
</svg>
