<svg xmlns="http://www.w3.org/2000/svg" width="20" height="20" viewBox="0 0 20 20" fill="none">
  <path d="M10 15H11.9153C12.2938 15 12.661 14.8712 12.9565 14.6347L16.3287 11.9371C16.5475 11.762 16.822 11.6667 17.1022 11.6667 17.7779 11.6667 18.3333 12.2145 18.3333 12.8903 18.3333 13.1766 18.233 13.4538 18.0498 13.6737L15.416 16.8341C14.6244 17.7841 13.4517 18.3333 12.2151 18.3333H8.1762C7.7283 18.3333 7.2834 18.2612 6.8585 18.1195L5 17.5" stroke="currentColor" stroke-linecap="round" stroke-linejoin="round" stroke-width="2"/>
  <path d="M5 12.5L6.3454 12.0516C7.1101 11.7967 7.911 11.6667 8.7171 11.6667H9.0767C9.6899 11.6667 10.3008 11.7418 10.8957 11.8906L12.2699 12.2342C12.8949 12.3904 13.3333 12.9519 13.3333 13.5961 13.3333 14.3715 12.7048 15 11.9294 15H10" stroke="currentColor" stroke-linecap="round" stroke-linejoin="round" stroke-width="2"/>
  <path d="M10 2.5V1.6667" stroke="currentColor" stroke-linecap="round" stroke-linejoin="round" stroke-width="2"/>
  <path d="M3.3333 8.3333H16.6667" stroke="currentColor" stroke-linecap="round" stroke-linejoin="round" stroke-width="2"/>
  <path d="M4.1667 8.3333C4.1667 6.7862 4.7813 5.3025 5.8752 4.2085 6.9692 3.1146 8.4529 2.5 10 2.5 11.5471 2.5 13.0308 3.1146 14.1248 4.2085 15.2188 5.3025 15.8333 6.7862 15.8333 8.3333" stroke="currentColor" stroke-linecap="round" stroke-linejoin="round" stroke-width="2"/>
  <path d="M1.6667 16.6667V13.3333C1.6667 12.9458 1.6667 12.7521 1.7093 12.5932 1.8248 12.1617 2.1618 11.8248 2.5931 11.7093 2.7521 11.6667 2.9458 11.6667 3.3333 11.6667 3.7208 11.6667 3.9146 11.6667 4.0735 11.7093 4.5049 11.8248 4.8418 12.1617 4.9574 12.5932 5 12.7521 5 12.9458 5 13.3333V16.6667C5 17.0542 5 17.2479 4.9574 17.4068 4.8418 17.8382 4.5049 18.1752 4.0735 18.2907 3.9146 18.3333 3.7208 18.3333 3.3333 18.3333 2.9458 18.3333 2.7521 18.3333 2.5931 18.2907 2.1618 18.1752 1.8248 17.8382 1.7093 17.4068 1.6667 17.2479 1.6667 17.0542 1.6667 16.6667Z" stroke="currentColor" stroke-linecap="round" stroke-linejoin="round" stroke-width="2"/>
</svg>
