<svg xmlns="http://www.w3.org/2000/svg" width="20" height="20" viewBox="0 0 20 20" fill="none">
  <path d="M1.9517 16.513C3.3837 15.4802 4.1547 13.0165 4.5503 11.123 4.665 10.574 4.7138 9.4613 5.3445 9.2083 5.7051 9.0637 6.1782 9.3052 7.1244 9.7881 7.8515 10.1593 8.2151 10.3448 8.309 10.7364 8.5342 11.6751 7.0158 12.0372 7.3766 12.9952 7.7793 14.0646 7.5058 14.3771 6.7234 15.0783 6.125 15.6145 6.9032 16.2926 6.5568 16.8823 5.6946 18.3502 4.3324 18.7872 2.5301 17.8096 2.0526 17.5505 1.2287 17.0344 1.9517 16.513Z" stroke="currentColor" stroke-linejoin="round" stroke-width="2"/>
  <path d="M18.0483 16.513C16.6163 15.4802 15.8453 13.0165 15.4497 11.123 15.3351 10.574 15.2862 9.4613 14.6555 9.2083 14.2949 9.0637 13.8218 9.3052 12.8756 9.7881 12.1485 10.1593 11.7849 10.3448 11.691 10.7364 11.4668 11.6709 12.981 12.0455 12.6234 12.9952 12.2207 14.0646 12.4942 14.3771 13.2766 15.0783 13.875 15.6145 13.0968 16.2926 13.4433 16.8823 14.3054 18.3502 15.6676 18.7872 17.4699 17.8096 17.9474 17.5505 18.7713 17.0344 18.0483 16.513Z" stroke="currentColor" stroke-linejoin="round" stroke-width="2"/>
  <path d="M12.0833 3.75C12.0833 4.9006 11.1505 5.8333 9.9999 5.8333 8.8493 5.8333 7.9166 4.9006 7.9166 3.75 7.9166 2.5994 8.8493 1.6667 9.9999 1.6667 11.1505 1.6667 12.0833 2.5994 12.0833 3.75Z" stroke="currentColor" stroke-width="2"/>
  <path d="M7.0833 9.5833L7.7083 7.2917" stroke="currentColor" stroke-linecap="round" stroke-width="2"/>
  <path d="M11.6977 5.1774L12.9571 9.7008" stroke="currentColor" stroke-linecap="round" stroke-linejoin="round" stroke-width="2"/>
</svg>
