<svg xmlns="http://www.w3.org/2000/svg" width="20" height="20" viewBox="0 0 20 20" fill="none">
  <path d="M1.6667 12.0833V7.0833C1.6667 6.6958 1.6667 6.5021 1.7093 6.3431 1.8248 5.9118 2.1618 5.5748 2.5931 5.4593 2.7521 5.4167 2.9458 5.4167 3.3333 5.4167 3.7208 5.4167 3.9146 5.4167 4.0735 5.4593 4.5049 5.5748 4.8418 5.9118 4.9574 6.3431 5 6.5021 5 6.6958 5 7.0833V12.0833C5 12.4708 5 12.6646 4.9574 12.8235 4.8418 13.2549 4.5049 13.5918 4.0735 13.7074 3.9146 13.75 3.7208 13.75 3.3333 13.75 2.9458 13.75 2.7521 13.75 2.5931 13.7074 2.1618 13.5918 1.8248 13.2549 1.7093 12.8235 1.6667 12.6646 1.6667 12.4708 1.6667 12.0833Z" stroke="currentColor" stroke-linecap="round" stroke-linejoin="round" stroke-width="2"/>
  <path d="M5 6.25H6.4737C7.1508 6.25 7.8209 6.3875 8.4433 6.6543L12.3812 8.3419C12.9588 8.5895 13.3333 9.1575 13.3333 9.7859 13.3333 10.3644 12.8644 10.8333 12.2859 10.8333H11.7488C11.1441 10.8333 10.5448 10.7179 9.9833 10.4933L8.75 10" stroke="currentColor" stroke-linecap="round" stroke-linejoin="round" stroke-width="2"/>
  <path d="M11.6667 10.8333H17.1457C17.8017 10.8333 18.3333 11.365 18.3333 12.0209 18.3333 12.5511 17.9818 13.0171 17.472 13.1627L13.1209 14.4059C12.709 14.5236 12.2827 14.5833 11.8543 14.5833 11.4531 14.5833 11.0538 14.531 10.6662 14.4277L5 12.9167" stroke="currentColor" stroke-linecap="round" stroke-linejoin="round" stroke-width="2"/>
</svg>
