<svg xmlns="http://www.w3.org/2000/svg" width="20" height="20" viewBox="0 0 20 20" fill="none">
  <path d="M14.5833 7.9167V7.2917C14.5833 6.4863 15.2363 5.8333 16.0417 5.8333 16.8471 5.8333 17.5 6.4863 17.5 7.2917V10.6667C17.5 13.9804 14.8137 16.6667 11.5 16.6667H8.3823C5.1336 16.6667 2.5 14.0331 2.5 10.7843V10C2.5 9.0795 3.2462 8.3333 4.1667 8.3333 5.0871 8.3333 5.8333 9.0795 5.8333 10V10.7843" stroke="currentColor" stroke-linecap="round" stroke-linejoin="round" stroke-width="2"/>
  <path d="M14.5833 7.9167V5.625C14.5833 4.8196 13.9304 4.1667 13.125 4.1667 12.3196 4.1667 11.6667 4.8196 11.6667 5.625V7.0833" stroke="currentColor" stroke-linecap="round" stroke-linejoin="round" stroke-width="2"/>
  <path d="M11.6667 7.0833V4.7917C11.6667 3.9863 11.0137 3.3333 10.2083 3.3333 9.4029 3.3333 8.75 3.9863 8.75 4.7917V6.6667" stroke="currentColor" stroke-linecap="round" stroke-linejoin="round" stroke-width="2"/>
  <path d="M8.75 6.6667V5.625C8.75 4.8196 8.0971 4.1667 7.2917 4.1667 6.4863 4.1667 5.8333 4.8196 5.8333 5.625V10" stroke="currentColor" stroke-linecap="round" stroke-linejoin="round" stroke-width="2"/>
</svg>
