<svg xmlns="http://www.w3.org/2000/svg" width="20" height="20" viewBox="0 0 20 20" fill="none">
  <path d="M1.6667 11.8057C1.6667 14.4904 3.9052 16.6668 6.6667 16.6668 9.4281 16.6668 11.6667 14.4904 11.6667 11.8057 11.6667 10.1563 10.8217 8.6987 9.5295 7.8198 9.2717 7.6445 9.1667 7.4985 9.1667 7.1765 9.1667 6.5075 9.1667 6.173 9.0559 5.9085 8.679 5.0085 7.7832 5.0002 6.9281 5.0002H6.4052C5.5501 5.0002 4.6544 5.0085 4.2774 5.9085 4.1667 6.173 4.1667 6.5075 4.1667 7.1765 4.1667 7.483 4.07 7.6388 3.8038 7.8198 2.5117 8.6987 1.6667 10.1563 1.6667 11.8057Z" stroke="currentColor" stroke-linecap="round" stroke-linejoin="round" stroke-width="2"/>
  <path d="M12.0917 6.722C12.403 6.6679 12.7408 6.6667 13.0726 6.6667H13.5955C14.4506 6.6667 15.3463 6.675 15.7233 7.575 15.8341 7.8395 15.8341 8.174 15.8341 8.843 15.8341 9.165 15.9392 9.311 16.1969 9.4863 17.489 10.3652 18.3341 11.8228 18.3341 13.4722 18.3341 16.1569 16.0955 18.3333 13.3341 18.3333 12.5045 18.3333 11.7222 18.1369 11.0335 17.7893" stroke="currentColor" stroke-linecap="round" stroke-linejoin="round" stroke-width="2"/>
  <circle cx="6.666666666666667" cy="11.666833333333333" r="1.6666666666666667" stroke="currentColor" stroke-linecap="round" stroke-linejoin="round" stroke-width="2"/>
  <path d="M13.4293 14.9976C14.305 14.9477 14.9998 14.2218 14.9998 13.3336 14.9998 12.7165 14.6644 12.1778 14.166 11.8897" stroke="currentColor" stroke-linecap="round" stroke-linejoin="round" stroke-width="2"/>
  <path d="M13.3333 7.5V5.7778C13.3333 4.4014 13.3333 3.7133 12.9803 3.2155 12.6273 2.7176 12.0211 2.5507 10.8084 2.2169L10.7089 2.1895C8.8975 1.6909 7.9918 1.4416 7.3659 1.9329 7.3264 1.9639 7.2882 1.9967 7.2513 2.0314 6.6667 2.5809 6.6667 3.6088 6.6667 5.6648" stroke="currentColor" stroke-linecap="round" stroke-linejoin="round" stroke-width="2"/>
</svg>
