<svg xmlns="http://www.w3.org/2000/svg" width="20" height="20" viewBox="0 0 20 20" fill="none">
  <path d="M13.0471 13.4682L12.7599 11.6183C12.6743 11.0667 12.6315 10.791 12.5656 10.555 12.1098 8.9233 10.7031 7.7271 9.0065 7.5287 8.7611 7.5 8.4796 7.5 7.9167 7.5 7.3537 7.5 7.0722 7.5 6.8268 7.5287 5.1303 7.7271 3.7235 8.9233 3.2678 10.555 3.2018 10.791 3.159 11.0667 3.0734 11.6183L2.7863 13.4682C2.5026 15.2956 2.3608 16.2093 2.6904 16.901 2.8839 17.3071 3.1842 17.6539 3.5597 17.9053 4.1994 18.3333 5.1321 18.3333 6.9976 18.3333H8.8358C10.7012 18.3333 11.634 18.3333 12.2737 17.9053 12.6492 17.6539 12.9494 17.3071 13.1429 16.901 13.4726 16.2093 13.3308 15.2956 13.0471 13.4682Z" stroke="currentColor" stroke-linecap="round" stroke-linejoin="round" stroke-width="2"/>
  <path d="M7.9167 11.25V14.5833M9.5833 12.9167L6.25 12.9167" stroke="currentColor" stroke-linecap="round" stroke-width="2"/>
  <path d="M10.4167 7.9167V7.5C10.4167 6.3215 10.4167 5.7322 10.0506 5.3661 9.6844 5 9.0952 5 7.9167 5 6.7382 5 6.1489 5 5.7828 5.3661 5.4167 5.7322 5.4167 6.3215 5.4167 7.5V7.9167" stroke="currentColor" stroke-linecap="round" stroke-linejoin="round" stroke-width="2"/>
  <path d="M9.1667 5V2.9167C9.1667 2.2263 8.607 1.6667 7.9167 1.6667 7.2263 1.6667 6.6667 2.2263 6.6667 2.9167L6.6667 5" stroke="currentColor" stroke-linecap="round" stroke-linejoin="round" stroke-width="2"/>
  <path d="M9.1667 3.5157L11.4311 2.9127C12.6911 2.5772 13.321 2.4094 13.9051 2.5497 14.4891 2.6901 14.8609 3.0985 15.6046 3.9154L15.8333 4.1667" stroke="currentColor" stroke-linecap="round" stroke-linejoin="round" stroke-width="2"/>
  <path d="M17.5 8.75C17.5 9.6705 16.875 10 16.25 10 15.625 10 15 9.6705 15 8.75 15 7.8295 16.25 6.6667 16.25 6.6667 16.25 6.6667 17.5 7.8295 17.5 8.75Z" stroke="currentColor" stroke-linejoin="round" stroke-width="2"/>
</svg>
