<svg xmlns="http://www.w3.org/2000/svg" width="20" height="20" viewBox="0 0 20 20" fill="none">
  <path d="M3.4381 12.8057L8.4403 9.9919C8.9362 9.713 9.4377 9.5833 10 9.5833 10.5623 9.5833 11.0638 9.713 11.5597 9.9919L16.5619 12.8057C17.1414 13.1316 17.5 13.7448 17.5 14.4097 17.5 15.4261 16.6761 16.25 15.6597 16.25H4.3403C3.3239 16.25 2.5 15.4261 2.5 14.4097 2.5 13.7448 2.8586 13.1316 3.4381 12.8057Z" stroke="currentColor" stroke-linecap="round" stroke-linejoin="round" stroke-width="2"/>
  <path d="M8.3333 5.3373C8.3333 4.4607 9.0795 3.75 10 3.75 10.9205 3.75 11.6667 4.4607 11.6667 5.3373 11.6667 5.9371 11.3173 6.4592 10.8019 6.7292 10.3942 6.9427 10 7.2977 10 7.7579V9.5833" stroke="currentColor" stroke-linecap="round" stroke-width="2"/>
</svg>
