<svg xmlns="http://www.w3.org/2000/svg" width="20" height="20" viewBox="0 0 20 20" fill="none">
  <path d="M10 18.3333C13.3333 18.3333 17.5 13.3333 17.5 9.1667 17.5 5 14.1422 1.6667 10 1.6667 5.8579 1.6667 2.5 5 2.5 9.1667 2.5 13.3333 5.8579 16.6667 10 16.6667V18.3333Z" stroke="currentColor" stroke-linejoin="round" stroke-width="2"/>
  <path d="M8.75 9.5833V8.3333C8.75 7.5477 8.75 7.1548 8.5059 6.9107 8.2618 6.6667 7.869 6.6667 7.0833 6.6667 6.2977 6.6667 5.9048 6.6667 5.6607 6.9107 5.4167 7.1548 5.4167 7.5477 5.4167 8.3333V8.75C5.4167 9.1382 5.4167 9.3324 5.4801 9.4856 5.5647 9.6898 5.7269 9.852 5.9311 9.9366 6.0842 10 6.526 10 6.9143 10 7.0921 10.7547 6.6667 11.6667 6.6667 11.6667 7.8173 11.6667 8.75 10.7339 8.75 9.5833Z" stroke="currentColor" stroke-linecap="round" stroke-linejoin="round" stroke-width="2"/>
  <path d="M14.5833 9.5833V8.3333C14.5833 7.5477 14.5833 7.1548 14.3393 6.9107 14.0952 6.6667 13.7023 6.6667 12.9167 6.6667 12.131 6.6667 11.7382 6.6667 11.4941 6.9107 11.25 7.1548 11.25 7.5477 11.25 8.3333V8.75C11.25 9.1382 11.25 9.3324 11.3134 9.4856 11.398 9.6898 11.5602 9.852 11.7644 9.9366 11.9176 10 12.3593 10 12.7476 10 12.9255 10.7547 12.5 11.6667 12.5 11.6667 13.6506 11.6667 14.5833 10.7339 14.5833 9.5833Z" stroke="currentColor" stroke-linecap="round" stroke-linejoin="round" stroke-width="2"/>
</svg>
