<svg xmlns="http://www.w3.org/2000/svg" width="20" height="20" viewBox="0 0 20 20" fill="none">
  <path d="M17.2587 7.251L18.2655 10.6073C18.2982 10.716 18.3144 10.7703 18.3233 10.8262L18.3257 10.8432C18.3333 10.8992 18.3333 10.9558 18.3333 11.0693 18.3333 13.9831 18.3333 15.44 17.4843 16.3891 17.402 16.4812 17.3145 16.5687 17.2224 16.651 16.2733 17.5 14.8164 17.5 11.9026 17.5H8.0974C5.1836 17.5 3.7266 17.5 2.7776 16.651 2.6855 16.5687 2.598 16.4812 2.5156 16.3891 1.6667 15.44 1.6667 13.9831 1.6667 11.0693 1.6667 10.9558 1.6667 10.8992 1.6743 10.8432L1.6768 10.8262C1.6856 10.7703 1.7019 10.716 1.7345 10.6073L2.7414 7.251C3.428 4.9624 3.7713 3.8181 4.657 3.159 5.5427 2.5 6.7375 2.5 9.1268 2.5H10.8732C13.2626 2.5 14.4573 2.5 15.343 3.159 16.2288 3.8181 16.5721 4.9624 17.2587 7.251Z" stroke="currentColor" stroke-linecap="round" stroke-linejoin="round" stroke-width="2"/>
  <path d="M1.6667 10.8333H18.3333" stroke="currentColor" stroke-linecap="round" stroke-linejoin="round" stroke-width="2"/>
  <path d="M15.1042 14.1667H15M11.7708 14.1667H11.6667M15.2083 14.1667C15.2083 14.2818 15.1151 14.375 15 14.375 14.8849 14.375 14.7917 14.2818 14.7917 14.1667 14.7917 14.0516 14.8849 13.9583 15 13.9583 15.1151 13.9583 15.2083 14.0516 15.2083 14.1667ZM11.875 14.1667C11.875 14.2818 11.7818 14.375 11.6667 14.375 11.5516 14.375 11.4583 14.2818 11.4583 14.1667 11.4583 14.0516 11.5516 13.9583 11.6667 13.9583 11.7818 13.9583 11.875 14.0516 11.875 14.1667Z" stroke="currentColor" stroke-linecap="round" stroke-linejoin="round" stroke-width="2"/>
</svg>
