<svg xmlns="http://www.w3.org/2000/svg" width="20" height="20" viewBox="0 0 20 20" fill="none">
  <path d="M5.8333 15V14.8333M6.0417 15C6.0417 14.8849 5.9484 14.7917 5.8333 14.7917 5.7183 14.7917 5.625 14.8849 5.625 15 5.625 15.1151 5.7183 15.2083 5.8333 15.2083 5.9484 15.2083 6.0417 15.1151 6.0417 15Z" stroke="currentColor" stroke-linecap="round" stroke-linejoin="round" stroke-width="2"/>
  <path d="M9.1667 15V14.8333M9.375 15C9.375 14.8849 9.2818 14.7917 9.1667 14.7917 9.0516 14.7917 8.9583 14.8849 8.9583 15 8.9583 15.1151 9.0516 15.2083 9.1667 15.2083 9.2818 15.2083 9.375 15.1151 9.375 15Z" stroke="currentColor" stroke-linecap="round" stroke-linejoin="round" stroke-width="2"/>
  <path d="M6.6667 5C6.6667 5 9.1217 1.6667 10 1.6667 10.8784 1.6667 13.3333 5 13.3333 5M10 2.5V8.3333" stroke="currentColor" stroke-linecap="round" stroke-linejoin="round" stroke-width="2"/>
  <path d="M14.1667 11.6667H5.8333C4.6666 11.6667 4.0832 11.6667 3.6375 11.8938 3.2455 12.0935 2.9268 12.4122 2.7271 12.8042 2.5 13.2498 2.5 13.8333 2.5 15 2.5 16.1668 2.5 16.7502 2.7271 17.1958 2.9268 17.5878 3.2455 17.9065 3.6375 18.1062 4.0832 18.3333 4.6666 18.3333 5.8333 18.3333H14.1667C15.3334 18.3333 15.9168 18.3333 16.3625 18.1062 16.7545 17.9065 17.0732 17.5878 17.2729 17.1958 17.5 16.7502 17.5 16.1668 17.5 15 17.5 13.8333 17.5 13.2498 17.2729 12.8042 17.0732 12.4122 16.7545 12.0935 16.3625 11.8938 15.9168 11.6667 15.3334 11.6667 14.1667 11.6667Z" stroke="currentColor" stroke-linecap="round" stroke-linejoin="round" stroke-width="2"/>
</svg>
