<svg xmlns="http://www.w3.org/2000/svg" width="20" height="20" viewBox="0 0 20 20" fill="none">
  <path d="M16.1111 13.3333H3.8889C3.7599 13.3333 3.6955 13.3333 3.641 13.3362 2.5761 13.392 1.7253 14.2428 1.6695 15.3077 1.6667 15.3621 1.6667 15.4266 1.6667 15.5556 1.6667 15.62 1.6667 15.6522 1.6681 15.6795 1.696 16.2119 2.1214 16.6373 2.6538 16.6653 2.6811 16.6667 2.7133 16.6667 2.7778 16.6667H17.2222C17.2867 16.6667 17.3189 16.6667 17.3462 16.6653 17.8786 16.6373 18.304 16.2119 18.3319 15.6795 18.3333 15.6522 18.3333 15.62 18.3333 15.5556 18.3333 15.4266 18.3333 15.3621 18.3305 15.3077 18.2747 14.2428 17.4238 13.392 16.359 13.3362 16.3046 13.3333 16.2401 13.3333 16.1111 13.3333Z" stroke="currentColor" stroke-linecap="round" stroke-linejoin="round" stroke-width="2"/>
  <path d="M11.6667 10V5C11.6667 4.6125 11.6667 4.4188 11.6241 4.2598 11.5085 3.8284 11.1716 3.4915 10.7402 3.3759 10.5813 3.3333 10.3875 3.3333 10 3.3333 9.6125 3.3333 9.4188 3.3333 9.2598 3.3759 8.8284 3.4915 8.4915 3.8284 8.3759 4.2598 8.3333 4.4188 8.3333 4.6125 8.3333 5V10" stroke="currentColor" stroke-linecap="round" stroke-linejoin="round" stroke-width="2"/>
  <path d="M17.5 13.3333V11.6667C17.5 7.9848 14.5833 5 11.6667 5M8.3333 5C5.4167 5 2.5 7.9848 2.5 11.6667V13.3333" stroke="currentColor" stroke-linecap="round" stroke-linejoin="round" stroke-width="2"/>
</svg>
