<svg xmlns="http://www.w3.org/2000/svg" width="20" height="20" viewBox="0 0 20 20" fill="none">
  <path d="M1.6667 8.3333L1.7497 8.3748C2.7912 8.8956 3.9395 9.1667 5.1038 9.1667H14.8962C16.0605 9.1667 17.2088 8.8956 18.2503 8.3748L18.3333 8.3333" stroke="currentColor" stroke-linecap="round" stroke-linejoin="round" stroke-width="2"/>
  <path d="M3.75 8.75L5.1586 4.1434C5.4912 3.0558 6.7668 2.6182 7.6741 3.2805 8.3458 3.7709 9.2136 3.8837 9.9841 3.5808L11.0837 3.1486C12.4127 2.6263 13.0772 2.3651 13.6533 2.5698 13.775 2.613 13.8913 2.6705 14 2.7411 14.5148 3.0755 14.7272 3.77 15.1519 5.1589L16.25 8.75" stroke="currentColor" stroke-linecap="round" stroke-linejoin="round" stroke-width="2"/>
  <path d="M14.1667 17.5C15.5474 17.5 16.6667 16.3808 16.6667 15 16.6667 13.6193 15.5474 12.5 14.1667 12.5 12.7859 12.5 11.6667 13.6193 11.6667 15 11.6667 16.3808 12.7859 17.5 14.1667 17.5Z" stroke="currentColor" stroke-linecap="round" stroke-linejoin="round" stroke-width="2"/>
  <path d="M11.6667 15C11.6667 14.0795 10.9205 13.3333 10 13.3333 9.0795 13.3333 8.3333 14.0795 8.3333 15" stroke="currentColor" stroke-linecap="round" stroke-linejoin="round" stroke-width="2"/>
  <path d="M5.8333 17.5C7.214 17.5 8.3333 16.3808 8.3333 15 8.3333 13.6193 7.214 12.5 5.8333 12.5 4.4526 12.5 3.3333 13.6193 3.3333 15 3.3333 16.3808 4.4526 17.5 5.8333 17.5Z" stroke="currentColor" stroke-linecap="round" stroke-linejoin="round" stroke-width="2"/>
</svg>
