<svg xmlns="http://www.w3.org/2000/svg" width="20" height="20" viewBox="0 0 20 20" fill="none">
  <path d="M1.6664 9.1667C1.6664 6.8096 1.6664 5.6311 2.3986 4.8989 3.1308 4.1667 4.3093 4.1667 6.6664 4.1667H13.333C15.6901 4.1667 16.8686 4.1667 17.6008 4.8989 18.333 5.6311 18.333 6.8096 18.333 9.1667V10.8333C18.333 13.1903 18.333 14.3688 17.6008 15.1011 16.8686 15.8333 15.6901 15.8333 13.333 15.8333H6.6664C4.3093 15.8333 3.1308 15.8333 2.3986 15.1011 1.6664 14.3688 1.6664 13.1903 1.6664 10.8333V9.1667Z" stroke="currentColor" stroke-width="2"/>
  <path d="M8.333 7.5V12.5M4.9997 7.5V12.5M4.9997 10H8.333" stroke="currentColor" stroke-linecap="round" stroke-linejoin="round" stroke-width="2"/>
  <path d="M11.6663 12.5V7.5H12.4997C13.2763 7.5 13.6646 7.5 13.9708 7.6269 14.3792 7.796 14.7037 8.1205 14.8728 8.5288 14.9997 8.8352 14.9997 9.2234 14.9997 10 14.9997 10.7766 14.9997 11.1648 14.8728 11.4712 14.7037 11.8795 14.3792 12.204 13.9708 12.3732 13.6646 12.5 13.2763 12.5 12.4997 12.5H11.6663Z" stroke="currentColor" stroke-linecap="round" stroke-linejoin="round" stroke-width="2"/>
</svg>
