<svg xmlns="http://www.w3.org/2000/svg" width="20" height="20" viewBox="0 0 20 20" fill="none">
  <path d="M16.6667 11.6667V8.3333C16.6667 5.1906 16.6667 3.6193 15.7478 2.643 14.8289 1.6667 13.35 1.6667 10.3922 1.6667L9.6078 1.6667C6.65 1.6667 5.1711 1.6667 4.2522 2.643 3.3333 3.6193 3.3333 5.1906 3.3333 8.3333L3.3333 11.6667C3.3333 14.8093 3.3333 16.3808 4.2522 17.357 5.1711 18.3333 6.65 18.3333 9.6078 18.3333H10.3922C13.35 18.3333 14.8289 18.3333 15.7478 17.357 16.6667 16.3808 16.6667 14.8093 16.6667 11.6667Z" stroke="currentColor" stroke-linecap="round" stroke-width="2"/>
  <path d="M7.3338 10.5538C8.0136 11.2409 8.9571 11.6667 10 11.6667 12.0711 11.6667 13.75 9.9878 13.75 7.9167 13.75 5.8456 12.0711 4.1667 10 4.1667 7.9289 4.1667 6.25 5.8456 6.25 7.9167 6.25 8.9448 6.6638 9.8763 7.3338 10.5538ZM7.3338 10.5538L10 7.8875" stroke="currentColor" stroke-linecap="round" stroke-width="2"/>
  <path d="M8.3333 15.8333H11.6667" stroke="currentColor" stroke-linecap="round" stroke-linejoin="round" stroke-width="2"/>
</svg>
