<svg xmlns="http://www.w3.org/2000/svg" width="20" height="20" viewBox="0 0 20 20" fill="none">
  <path d="M3.3333 13.3333V15.8333M3.3333 18.3333V15.8333M6.25 13.3333V15.8333M6.25 18.3333V15.8333M6.25 15.8333H3.3333" stroke="currentColor" stroke-linecap="round" stroke-linejoin="round" stroke-width="2"/>
  <path d="M8.3333 18.3333V13.3333H9.5833C10.5038 13.3333 11.25 14.0795 11.25 15V16.6667C11.25 17.5872 10.5038 18.3333 9.5833 18.3333H8.3333Z" stroke="currentColor" stroke-linecap="round" stroke-linejoin="round" stroke-width="2"/>
  <path d="M13.3333 16.25V13.3333H15.2083C16.0138 13.3333 16.6667 13.9863 16.6667 14.7917 16.6667 15.5971 16.0138 16.25 15.2083 16.25M13.3333 16.25V18.3333M13.3333 16.25H15.2083M15.2083 16.25L16.6667 18.3333" stroke="currentColor" stroke-linecap="round" stroke-linejoin="round" stroke-width="2"/>
  <path d="M16.6667 10.8333V8.8808C16.6667 8.1995 16.6667 7.8588 16.5398 7.5526 16.4129 7.2463 16.1721 7.0054 15.6903 6.5237L11.7433 2.5766C11.3275 2.1608 11.1197 1.953 10.8621 1.8298 10.8085 1.8042 10.7537 1.7814 10.6977 1.7617 10.4284 1.6667 10.1345 1.6667 9.5465 1.6667 6.8424 1.6667 5.4903 1.6667 4.5744 2.4051 4.3894 2.5542 4.2209 2.7228 4.0717 2.9078 3.3333 3.8236 3.3333 5.1757 3.3333 7.8799V10.8333M10.8333 2.0833V2.5C10.8333 4.857 10.8333 6.0355 11.5656 6.7678 12.2978 7.5 13.4763 7.5 15.8333 7.5H16.25" stroke="currentColor" stroke-linecap="round" stroke-linejoin="round" stroke-width="2"/>
</svg>
