<svg xmlns="http://www.w3.org/2000/svg" width="20" height="20" viewBox="0 0 20 20" fill="none">
  <path d="M7.4804 16.3369L6.0321 12.1773C5.8778 11.7888 5.3848 11.5943 4.9791 11.6914 3.7203 12.1111 3.0385 13.4765 3.4562 14.7412L3.8212 15.8465C4.2389 17.1112 5.5979 17.7963 6.8567 17.3766 7.2408 17.213 7.5871 16.7414 7.4804 16.3369Z" stroke="currentColor" stroke-linecap="round" stroke-linejoin="round" stroke-width="2"/>
  <path d="M2.5 2.5L17.5 17.5" stroke="currentColor" stroke-linecap="round" stroke-linejoin="round" stroke-width="2"/>
  <path d="M13.5054 13.5058L12.5196 16.3373C12.4129 16.7418 12.7592 17.2134 13.1433 17.377 14.3203 17.7693 15.5848 17.196 16.0857 16.0861" stroke="currentColor" stroke-linecap="round" stroke-linejoin="round" stroke-width="2"/>
  <path d="M3.2626 14.1667C2.8459 12.9167 2.5 11.1973 2.5 10 2.5 7.9289 3.3395 6.0539 4.6967 4.6967M6.6309 3.2975C7.6439 2.7873 8.7883 2.5 10 2.5 14.1422 2.5 17.5 5.8579 17.5 10 17.5 11.02 17.2489 12.4188 16.917 13.5837" stroke="currentColor" stroke-linecap="round" stroke-linejoin="round" stroke-width="2"/>
</svg>
