<svg xmlns="http://www.w3.org/2000/svg" width="20" height="20" viewBox="0 0 20 20" fill="none">
  <path d="M12.5 10C12.5 9.0795 13.2462 8.3333 14.1667 8.3333 16.0076 8.3333 17.5 9.8258 17.5 11.6667 17.5 13.5076 16.0076 15 14.1667 15 13.2462 15 12.5 14.2538 12.5 13.3333V10Z" stroke="currentColor" stroke-width="2"/>
  <path d="M7.5 10C7.5 9.0795 6.7538 8.3333 5.8333 8.3333 3.9924 8.3333 2.5 9.8258 2.5 11.6667 2.5 13.5076 3.9924 15 5.8333 15 6.7538 15 7.5 14.2538 7.5 13.3333V10Z" stroke="currentColor" stroke-width="2"/>
  <path d="M2.5 11.6667V9.1667C2.5 5.0245 5.8579 1.6667 10 1.6667 14.1422 1.6667 17.5 5.0245 17.5 9.1667V13.2052C17.5 14.8788 17.5 15.7155 17.2063 16.3681 16.8721 17.1108 16.2774 17.7054 15.5348 18.0397 14.8822 18.3333 14.0454 18.3333 12.3718 18.3333H10" stroke="currentColor" stroke-linecap="round" stroke-linejoin="round" stroke-width="2"/>
</svg>
