<svg xmlns="http://www.w3.org/2000/svg" width="20" height="20" viewBox="0 0 20 20" fill="none">
  <path d="M2.9167 5V15M9.5833 5V15M2.9167 10H9.5833" stroke="currentColor" stroke-linecap="round" stroke-linejoin="round" stroke-width="2"/>
  <path d="M17.0833 8.3333H15.4167C15.0292 8.3333 14.8354 8.3333 14.6765 8.3759 14.2451 8.4915 13.9082 8.8284 13.7926 9.2598 13.75 9.4188 13.75 9.6125 13.75 10 13.75 10.3875 13.75 10.5813 13.7926 10.7402 13.9082 11.1716 14.2451 11.5085 14.6765 11.6241 14.8354 11.6667 15.0292 11.6667 15.4167 11.6667 15.8042 11.6667 15.9979 11.6667 16.1568 11.7093 16.5882 11.8248 16.9252 12.1617 17.0407 12.5932 17.0833 12.7521 17.0833 12.9458 17.0833 13.3333 17.0833 13.7208 17.0833 13.9146 17.0407 14.0735 16.9252 14.5049 16.5882 14.8418 16.1568 14.9574 15.9979 15 15.8042 15 15.4167 15H13.75" stroke="currentColor" stroke-linecap="round" stroke-linejoin="round" stroke-width="2"/>
</svg>
