<svg xmlns="http://www.w3.org/2000/svg" width="20" height="20" viewBox="0 0 20 20" fill="none">
  <path d="M10 2.5C5.8579 2.5 2.5 5.8579 2.5 10 2.5 11.1973 2.8459 12.9167 3.2626 14.1667M16.7374 14.1667C17.1541 12.9167 17.5 11.1973 17.5 10 17.5 9.1234 17.3496 8.282 17.0733 7.5" stroke="currentColor" stroke-linecap="round" stroke-linejoin="round" stroke-width="2"/>
  <path d="M7.4804 16.3369L6.0321 12.1773C5.8778 11.7888 5.3848 11.5943 4.9791 11.6914 3.7203 12.1111 3.0385 13.4765 3.4562 14.7412L3.8212 15.8465C4.2389 17.1112 5.5979 17.7963 6.8567 17.3766 7.2408 17.213 7.5871 16.7414 7.4804 16.3369Z" stroke="currentColor" stroke-linecap="round" stroke-linejoin="round" stroke-width="2"/>
  <path d="M12.5196 16.3369L13.9678 12.1773C14.1222 11.7888 14.6152 11.5943 15.0209 11.6914 16.2797 12.1111 16.9615 13.4765 16.5438 14.7412L16.1788 15.8465C15.7612 17.1112 14.4021 17.7963 13.1433 17.3766 12.7592 17.213 12.4129 16.7414 12.5196 16.3369Z" stroke="currentColor" stroke-linecap="round" stroke-linejoin="round" stroke-width="2"/>
  <path d="M10.8333 5.8333C11.4107 5.8333 12.1201 6.4732 12.5 7.5 12.5 7.5 15.1471 3.3333 17.5 2.5" stroke="currentColor" stroke-linecap="round" stroke-linejoin="round" stroke-width="2"/>
</svg>
