<svg xmlns="http://www.w3.org/2000/svg" width="20" height="20" viewBox="0 0 20 20" fill="none">
  <path d="M2.9167 5V15M9.5833 5V15M2.9167 10H9.5833" stroke="currentColor" stroke-linecap="round" stroke-linejoin="round" stroke-width="2"/>
  <path d="M13.75 13.3333V13C13.75 12.5333 13.75 12.2999 13.8408 12.1217 13.9207 11.9648 14.0482 11.8374 14.205 11.7575 14.3832 11.6667 14.6166 11.6667 15.0833 11.6667H15.4167C15.8042 11.6667 15.9979 11.6667 16.1568 11.7093 16.5882 11.8248 16.9252 12.1617 17.0407 12.5932 17.0833 12.7521 17.0833 12.9458 17.0833 13.3333 17.0833 13.7208 17.0833 13.9146 17.0407 14.0735 16.9252 14.5049 16.5882 14.8418 16.1568 14.9574 15.9979 15 15.8042 15 15.4167 15 15.0292 15 14.8354 15 14.6765 14.9574 14.2451 14.8418 13.9082 14.5049 13.7926 14.0735 13.75 13.9146 13.75 13.7208 13.75 13.3333ZM13.75 13.3333V10.8333C13.75 9.6548 13.75 9.0656 14.1161 8.6994 14.4822 8.3333 15.0715 8.3333 16.25 8.3333H17.0833" stroke="currentColor" stroke-linecap="round" stroke-linejoin="round" stroke-width="2"/>
</svg>
