<svg xmlns="http://www.w3.org/2000/svg" width="20" height="20" viewBox="0 0 20 20" fill="none">
  <path d="M1.6667 1.6698L18.3333 18.2991" stroke="currentColor" stroke-linecap="round" stroke-linejoin="round" stroke-width="2"/>
  <path d="M17.5 11.6474C17.5 9.8106 16.0076 8.3215 14.1667 8.3215 13.5443 8.3215 13.0017 8.6618 12.7154 9.1662M12.5 12.4788V13.3103C12.5 14.2288 13.2462 14.9733 14.1667 14.9733 14.4242 14.9733 14.6748 14.9441 14.9156 14.889" stroke="currentColor" stroke-linecap="round" stroke-linejoin="round" stroke-width="2"/>
  <path d="M4.9235 8.4472C3.5248 8.8422 2.5 10.1255 2.5 11.6477 2.5 13.4844 3.9924 14.9735 5.8333 14.9735 6.7538 14.9735 7.5 14.2289 7.5 13.3106V11.0179" stroke="currentColor" stroke-linecap="round" stroke-width="2"/>
  <path d="M2.4926 11.6589C2.4926 10.817 1.9636 6.8037 4.3057 4.2974M17.5115 13.9219V9.2518C17.5115 8.4269 17.4222 7.5989 17.1632 6.8155 16.9401 6.1409 16.6573 5.5157 16.112 4.7449 12.96 0.7543 8.6402 1.3238 6.2286 2.6854M16.9221 16.8911C16.6309 17.4086 16.1592 17.7775 15.5891 18.0139 15.0005 18.2579 14.5281 18.2853 13.8094 18.3251 12.4756 18.3251 11.0278 18.3411 10.0457 18.3251" stroke="currentColor" stroke-linecap="round" stroke-linejoin="round" stroke-width="2"/>
</svg>
