<svg xmlns="http://www.w3.org/2000/svg" width="20" height="20" viewBox="0 0 20 20" fill="none">
  <path d="M16.391 11.8078C17.5083 10.3858 18.3333 8.8072 18.3333 7.2454 18.3333 4.8547 16.5789 2.9167 14.1667 2.9167 12.9167 2.9167 11.6667 3.3334 10 5.0001 8.3333 3.3334 7.0833 2.9167 5.8333 2.9167 3.4211 2.9167 1.6667 4.8547 1.6667 7.2454 1.6667 11.4723 7.7095 15.8228 9.2363 16.8544 9.4618 17.0068 9.7278 17.0834 10 17.0834 10.2722 17.0834 10.5382 17.0068 10.7637 16.8544 10.8514 16.7952 10.9541 16.7249 11.0696 16.6444 11.8997 16.0658 11.9655 14.8822 11.25 14.1668" stroke="currentColor" stroke-linejoin="round" stroke-width="2"/>
  <path d="M15.4167 8.7501L16.2417 9.5751C16.8323 10.1658 16.9569 11.0792 16.4447 11.739 15.8232 12.5396 14.636 12.5527 13.9193 11.8361L13.75 11.6668" stroke="currentColor" stroke-linecap="round" stroke-linejoin="round" stroke-width="2"/>
  <path d="M13.75 11.6668L13.9118 11.8286C14.6409 12.5577 14.5917 13.8011 13.8194 14.4843 13.0994 15.1212 12.0804 14.9972 11.4007 14.3173L11.25 14.1668" stroke="currentColor" stroke-linecap="round" stroke-linejoin="round" stroke-width="2"/>
  <path d="M10 5.0001L7.7083 7.2917C7.133 7.867 7.133 8.7997 7.7083 9.3751 8.2836 9.9503 9.2164 9.9503 9.7917 9.3751L11.25 7.9167C11.7044 7.4623 11.9316 7.2352 12.1767 7.1137 12.6429 6.8826 13.1904 6.8826 13.6567 7.1137 13.9017 7.2352 14.129 7.4623 14.5833 7.9167L15.8333 9.1668" stroke="currentColor" stroke-linecap="round" stroke-linejoin="round" stroke-width="2"/>
</svg>
