<svg xmlns="http://www.w3.org/2000/svg" width="20" height="20" viewBox="0 0 20 20" fill="none">
  <path d="M8.6756 16.6398C6.3245 14.8817 1.6667 10.8624 1.6667 7.2454 1.6667 4.8547 3.4211 2.9167 5.8333 2.9167 7.0833 2.9167 8.3333 3.3334 10 5.0001 11.6667 3.3334 12.9167 2.9167 14.1667 2.9167 16.5789 2.9167 18.3333 4.8547 18.3333 7.2454 18.3333 10.8624 13.6755 14.8817 11.3244 16.6398 10.5333 17.2314 9.4667 17.2314 8.6756 16.6398Z" stroke="currentColor" stroke-linecap="round" stroke-linejoin="round" stroke-width="2"/>
  <path d="M16.6672 10.8332H13.357C13.1803 10.8332 13.0919 10.8332 13.0155 10.8029 12.9739 10.7865 12.9354 10.7637 12.9014 10.7356 12.839 10.6837 12.7995 10.6083 12.7204 10.4573 12.4931 10.0229 12.3794 9.8057 12.2161 9.7534 12.1303 9.726 12.0374 9.726 11.9515 9.7534 11.7882 9.8057 11.6745 10.0229 11.4472 10.4573L10.9307 11.4443C10.5365 12.1973 10.3395 12.5739 10.0585 12.5517 9.7776 12.5294 9.648 12.1271 9.3888 11.3223L9.0017 10.1203C8.722 9.2519 8.5822 8.8178 8.2917 8.803 8.0011 8.7882 7.8138 9.2058 7.4392 10.0408L7.3003 10.3506C7.1953 10.5847 7.1428 10.7017 7.0384 10.7674 6.9341 10.8332 6.8008 10.8332 6.5343 10.8332H3.3338" stroke="currentColor" stroke-linecap="round" stroke-linejoin="round" stroke-width="2"/>
</svg>
