<svg xmlns="http://www.w3.org/2000/svg" width="20" height="20" viewBox="0 0 20 20" fill="none">
  <path d="M10 5C9.415 5.66 9.0213 6.1083 8.8005 6.6667L10.7113 8.455C10.7895 8.5332 10.8333 8.6391 10.8333 8.7496 10.8333 8.8601 10.7895 8.966 10.7113 9.0442L8.872 10.9554C8.7939 11.0336 8.75 11.1395 8.75 11.25 8.75 11.3605 8.7939 11.4664 8.872 11.5446L9.7555 12.5" stroke="currentColor" stroke-linecap="round" stroke-linejoin="round" stroke-width="2"/>
  <path d="M8.6756 16.6398C6.3245 14.8817 1.6667 10.8623 1.6667 7.2454 1.6667 4.8547 3.4211 2.9167 5.8333 2.9167 7.0833 2.9167 8.3333 3.3333 10 5 11.6667 3.3333 12.9167 2.9167 14.1667 2.9167 16.5789 2.9167 18.3333 4.8547 18.3333 7.2454 18.3333 10.8623 13.6755 14.8817 11.3244 16.6398 10.5333 17.2313 9.4667 17.2313 8.6756 16.6398Z" stroke="currentColor" stroke-linecap="round" stroke-linejoin="round" stroke-width="2"/>
</svg>
