<svg xmlns="http://www.w3.org/2000/svg" width="20" height="20" viewBox="0 0 20 20" fill="none">
  <path d="M10.8333 16.9187C10.1271 17.2088 9.3122 17.1158 8.6756 16.6398 6.3245 14.8817 1.6667 10.8623 1.6667 7.2454 1.6667 4.8547 3.4211 2.9167 5.8333 2.9167 7.0833 2.9167 8.3333 3.3333 10 5 11.6667 3.3333 12.9167 2.9167 14.1667 2.9167 16.5789 2.9167 18.3333 4.8547 18.3333 7.2454 18.3333 7.6049 18.2873 7.9684 18.2021 8.3333" stroke="currentColor" stroke-linecap="round" stroke-linejoin="round" stroke-width="2"/>
  <path d="M11.6667 14.1667C11.6667 14.1667 12.5 14.1667 13.3333 15.8333 13.3333 15.8333 15.9804 11.6667 18.3333 10.8333" stroke="currentColor" stroke-linecap="round" stroke-linejoin="round" stroke-width="2"/>
</svg>
