<svg xmlns="http://www.w3.org/2000/svg" width="20" height="20" viewBox="0 0 20 20" fill="none">
  <path d="M11.3244 16.6398C10.5333 17.2313 9.4667 17.2313 8.6756 16.6398 6.3245 14.8817 1.6667 10.8623 1.6667 7.2454 1.6667 4.8547 3.4211 2.9167 5.8333 2.9167 7.0833 2.9167 8.3333 3.3333 10 5 11.6667 3.3333 12.9167 2.9167 14.1667 2.9167 16.5789 2.9167 18.3333 4.8547 18.3333 7.2454 18.3333 7.8782 18.1908 8.5234 17.9428 9.1667" stroke="currentColor" stroke-linecap="round" stroke-linejoin="round" stroke-width="2"/>
  <path d="M13.3333 11.25L15.4167 13.3333M15.4167 13.3333L17.5 15.4167M15.4167 13.3333L17.5 11.25M15.4167 13.3333L13.3333 15.4167" stroke="currentColor" stroke-linecap="round" stroke-linejoin="round" stroke-width="2"/>
</svg>
