<svg xmlns="http://www.w3.org/2000/svg" width="20" height="20" viewBox="0 0 20 20" fill="none">
  <path d="M11.6667 3.3333L11.6667 6.6667" stroke="currentColor" stroke-linecap="round" stroke-linejoin="round" stroke-width="2"/>
  <path d="M11.8198 6.5185L5.8764 6.7053C5.2804 6.724 4.9824 6.7334 4.7264 6.6198 4.2365 6.4025 4.0376 5.8849 3.8185 5.4303 3.5739 4.9228 3.1085 5.0049 2.6258 5.0049 2.1144 5.0049 1.8587 5.0049 1.7325 5.1785 1.6063 5.352 1.6765 5.6071 1.817 6.1172L1.8643 6.2887C2.1031 7.1557 2.2225 7.5892 2.5105 7.9012 2.7985 8.2133 3.2108 8.3558 4.0354 8.641L7.6398 9.8873C8.4029 10.1512 8.7928 10.4878 9.1827 11.2157 9.7838 12.3378 10.0843 12.899 10.5211 13.2975 10.8412 13.5894 11.2117 13.8156 11.6131 13.964 12.1611 14.1667 12.7799 14.1667 14.0174 14.1667H17.2797C18.0051 14.1667 18.3333 13.7366 18.3333 13.0737 18.3333 11.8104 18.3333 11.1788 18.2304 10.6583 17.8135 8.5495 16.1948 6.9204 14.1502 6.552 13.6457 6.4611 13.037 6.4802 11.8198 6.5185Z" stroke="currentColor" stroke-linejoin="round" stroke-width="2"/>
  <path d="M17.9167 11.25H15.8333C13.5322 11.25 11.6667 9.3845 11.6667 7.0833" stroke="currentColor" stroke-linecap="round" stroke-linejoin="round" stroke-width="2"/>
  <path d="M10 16.6667H11.6667M17.5 16.6667H15.8333M15.8333 16.6667L16.6667 14.1667M15.8333 16.6667H11.6667M11.6667 16.6667L12.5 14.1667" stroke="currentColor" stroke-linecap="round" stroke-linejoin="round" stroke-width="2"/>
  <path d="M9.1667 3.3333H14.1667" stroke="currentColor" stroke-linecap="round" stroke-width="2"/>
</svg>
