<svg xmlns="http://www.w3.org/2000/svg" width="20" height="20" viewBox="0 0 20 20" fill="none">
  <path d="M2.0833 10C2.0833 6.268 2.0833 4.4021 3.2427 3.2427 4.4021 2.0833 6.268 2.0833 10 2.0833 13.7319 2.0833 15.5979 2.0833 16.7573 3.2427 17.9167 4.4021 17.9167 6.268 17.9167 10 17.9167 13.7319 17.9167 15.5979 16.7573 16.7573 15.5979 17.9167 13.7319 17.9167 10 17.9167 6.268 17.9167 4.4021 17.9167 3.2427 16.7573 2.0833 15.5979 2.0833 13.7319 2.0833 10Z" stroke="currentColor" stroke-width="2"/>
  <path d="M7.9167 7.9167C7.9167 6.7661 8.8494 5.8333 10 5.8333 11.1506 5.8333 12.0833 6.7661 12.0833 7.9167 12.0833 8.6308 11.7241 9.2609 11.1764 9.6363 10.6069 10.0266 10 10.5597 10 11.25" stroke="currentColor" stroke-linecap="round" stroke-linejoin="round" stroke-width="2"/>
  <path d="M10.1042 13.9583H10M10.2083 13.9583C10.2083 14.0734 10.1151 14.1667 10 14.1667 9.8849 14.1667 9.7917 14.0734 9.7917 13.9583 9.7917 13.8432 9.8849 13.75 10 13.75 10.1151 13.75 10.2083 13.8432 10.2083 13.9583Z" stroke="currentColor" stroke-linecap="round" stroke-linejoin="round" stroke-width="2"/>
</svg>
