<svg xmlns="http://www.w3.org/2000/svg" width="20" height="20" viewBox="0 0 20 20" fill="none">
  <path d="M7.4019 2.7747C8.6698 2.036 9.3038 1.6667 10 1.6667 10.6962 1.6667 11.3302 2.036 12.5981 2.7747L14.9019 4.1169C16.1698 4.8556 16.8038 5.225 17.1519 5.8333 17.5 6.4417 17.5 7.1804 17.5 8.6578V11.3422C17.5 12.8196 17.5 13.5583 17.1519 14.1667 16.8038 14.775 16.1698 15.1444 14.9019 15.8831L12.5981 17.2253C11.3302 17.964 10.6962 18.3333 10 18.3333 9.3038 18.3333 8.6698 17.964 7.4019 17.2253L5.0981 15.8831C3.8301 15.1444 3.1961 14.775 2.8481 14.1667 2.5 13.5583 2.5 12.8196 2.5 11.3422V8.6578C2.5 7.1804 2.5 6.4417 2.8481 5.8333 3.1961 5.225 3.8301 4.8556 5.0981 4.1169L7.4019 2.7747Z" stroke="currentColor" stroke-width="2"/>
</svg>
