<svg xmlns="http://www.w3.org/2000/svg" width="20" height="20" viewBox="0 0 20 20" fill="none">
  <path d="M6.5359 3.1684C8.2265 2.1673 9.0718 1.6667 10 1.6667 10.9282 1.6667 11.7735 2.1673 13.4641 3.1684L14.0359 3.5071C15.7265 4.5082 16.5718 5.0088 17.0359 5.8333 17.5 6.6579 17.5 7.659 17.5 9.6614V10.3386C17.5 12.341 17.5 13.3422 17.0359 14.1667 16.5718 14.9912 15.7265 15.4917 14.0359 16.4929L13.4641 16.8316C11.7735 17.8328 10.9282 18.3333 10 18.3333 9.0718 18.3333 8.2265 17.8328 6.5359 16.8316L5.9641 16.4929C4.2735 15.4917 3.4282 14.9912 2.9641 14.1667 2.5 13.3422 2.5 12.341 2.5 10.3386V9.6614C2.5 7.659 2.5 6.6579 2.9641 5.8333 3.4282 5.0088 4.2735 4.5082 5.9641 3.5071L6.5359 3.1684Z" stroke="currentColor" stroke-width="2"/>
</svg>
