<svg xmlns="http://www.w3.org/2000/svg" width="20" height="20" viewBox="0 0 20 20" fill="none">
  <path d="M1.6667 16.25C1.6667 15.2679 1.6667 14.7768 2.0328 14.4718 2.3989 14.1667 2.9882 14.1667 4.1667 14.1667 5.3452 14.1667 5.9344 14.1667 6.3006 14.4718 6.6667 14.7768 6.6667 15.2679 6.6667 16.25 6.6667 17.2321 6.6667 17.7232 6.3006 18.0282 5.9344 18.3333 5.3452 18.3333 4.1667 18.3333 2.9882 18.3333 2.3989 18.3333 2.0328 18.0282 1.6667 17.7232 1.6667 17.2321 1.6667 16.25Z" stroke="currentColor" stroke-width="2"/>
  <path d="M13.3333 16.25C13.3333 15.2679 13.3333 14.7768 13.6994 14.4718 14.0656 14.1667 14.6548 14.1667 15.8333 14.1667 17.0118 14.1667 17.6011 14.1667 17.9672 14.4718 18.3333 14.7768 18.3333 15.2679 18.3333 16.25 18.3333 17.2321 18.3333 17.7232 17.9672 18.0282 17.6011 18.3333 17.0118 18.3333 15.8333 18.3333 14.6548 18.3333 14.0656 18.3333 13.6994 18.0282 13.3333 17.7232 13.3333 17.2321 13.3333 16.25Z" stroke="currentColor" stroke-width="2"/>
  <path d="M15.8333 14.1667C15.8333 12.0983 15.2135 11.6667 12.2436 11.6667H7.7564C4.7865 11.6667 4.1667 12.0983 4.1667 14.1667" stroke="currentColor" stroke-linecap="round" stroke-linejoin="round" stroke-width="2"/>
  <path d="M8.2427 6.7223C7.7842 7.0382 6.5821 7.6832 7.3143 8.4904 7.672 8.8847 8.0703 9.1667 8.5711 9.1667H11.4289C11.9297 9.1667 12.3281 8.8847 12.6858 8.4904 13.4179 7.6832 12.2157 7.0382 11.7573 6.7223 10.6821 5.9815 9.3179 5.9815 8.2427 6.7223Z" stroke="currentColor" stroke-width="2"/>
  <path d="M11.4583 3.1667C11.4583 3.9951 10.8054 4.6667 10 4.6667 9.1946 4.6667 8.5417 3.9951 8.5417 3.1667 8.5417 2.3382 9.1946 1.6667 10 1.6667 10.8054 1.6667 11.4583 2.3382 11.4583 3.1667Z" stroke="currentColor" stroke-width="2"/>
</svg>
