<svg xmlns="http://www.w3.org/2000/svg" width="20" height="20" viewBox="0 0 20 20" fill="none">
  <path d="M8.2427 6.2963C7.7842 6.5596 6.5821 7.0971 7.3143 7.7698 7.672 8.0983 8.0703 8.3333 8.5711 8.3333H11.4289C11.9297 8.3333 12.3281 8.0983 12.6858 7.7698 13.4179 7.0971 12.2157 6.5596 11.7573 6.2963 10.6821 5.679 9.3179 5.679 8.2427 6.2963Z" stroke="currentColor" stroke-linecap="round" stroke-linejoin="round" stroke-width="2"/>
  <path d="M11.25 2.9167C11.25 3.607 10.6903 4.1667 10 4.1667 9.3097 4.1667 8.75 3.607 8.75 2.9167 8.75 2.2263 9.3097 1.6667 10 1.6667 10.6903 1.6667 11.25 2.2263 11.25 2.9167Z" stroke="currentColor" stroke-width="2"/>
  <path d="M13.6594 16.2963C13.2009 16.5596 11.9988 17.0971 12.7309 17.7697 13.0886 18.0983 13.487 18.3333 13.9878 18.3333H16.8456C17.3463 18.3333 17.7448 18.0983 18.1024 17.7697 18.8346 17.0971 17.6324 16.5596 17.1739 16.2963 16.0988 15.679 14.7346 15.679 13.6594 16.2963Z" stroke="currentColor" stroke-linecap="round" stroke-linejoin="round" stroke-width="2"/>
  <path d="M16.6667 12.9167C16.6667 13.607 16.107 14.1667 15.4167 14.1667 14.7263 14.1667 14.1667 13.607 14.1667 12.9167 14.1667 12.2263 14.7263 11.6667 15.4167 11.6667 16.107 11.6667 16.6667 12.2263 16.6667 12.9167Z" stroke="currentColor" stroke-width="2"/>
  <path d="M2.8261 16.2963C2.3676 16.5596 1.1654 17.0971 1.8976 17.7697 2.2553 18.0983 2.6536 18.3333 3.1545 18.3333H6.0122C6.513 18.3333 6.9114 18.0983 7.269 17.7697 8.0012 17.0971 6.7991 16.5596 6.3406 16.2963 5.2654 15.679 3.9012 15.679 2.8261 16.2963Z" stroke="currentColor" stroke-linecap="round" stroke-linejoin="round" stroke-width="2"/>
  <path d="M5.8333 12.9167C5.8333 13.607 5.2737 14.1667 4.5833 14.1667 3.893 14.1667 3.3333 13.607 3.3333 12.9167 3.3333 12.2263 3.893 11.6667 4.5833 11.6667 5.2737 11.6667 5.8333 12.2263 5.8333 12.9167Z" stroke="currentColor" stroke-width="2"/>
  <path d="M10 10.8333V12.9167M10 12.9167L12.0833 14.1667M10 12.9167L7.9167 14.1667" stroke="currentColor" stroke-linecap="round" stroke-linejoin="round" stroke-width="2"/>
</svg>
