<svg xmlns="http://www.w3.org/2000/svg" width="20" height="20" viewBox="0 0 20 20" fill="none">
  <path d="M4.1667 18.3333C2.786 18.3333 1.6667 17.2141 1.6667 15.8333 1.6667 14.4526 2.786 13.3333 4.1667 13.3333 5.5474 13.3333 6.6667 14.4526 6.6667 15.8333 6.6667 17.2141 5.5474 18.3333 4.1667 18.3333Z" stroke="currentColor" stroke-width="2"/>
  <path d="M15.8333 18.3333C14.4526 18.3333 13.3333 17.2141 13.3333 15.8333 13.3333 14.4526 14.4526 13.3333 15.8333 13.3333 17.2141 13.3333 18.3333 14.4526 18.3333 15.8333 18.3333 17.2141 17.2141 18.3333 15.8333 18.3333Z" stroke="currentColor" stroke-width="2"/>
  <path d="M15.8333 13.3333C15.681 11.2892 14.8308 10.8333 11.956 10.8333L8.044 10.8333C5.1693 10.8333 4.319 11.2892 4.1667 13.3333" stroke="currentColor" stroke-linecap="round" stroke-linejoin="round" stroke-width="2"/>
  <path d="M10 8.3333C8.1591 8.3333 6.6667 6.841 6.6667 5 6.6667 3.1591 8.1591 1.6667 10 1.6667 11.8409 1.6667 13.3333 3.1591 13.3333 5 13.3333 6.841 11.8409 8.3333 10 8.3333Z" stroke="currentColor" stroke-width="2"/>
</svg>
