<svg xmlns="http://www.w3.org/2000/svg" width="20" height="20" viewBox="0 0 20 20" fill="none">
  <path d="M18.3333 15.8333C18.3333 17.2141 17.2141 18.3333 15.8333 18.3333 14.4526 18.3333 13.3333 17.2141 13.3333 15.8333 13.3333 14.4526 14.4526 13.3333 15.8333 13.3333 17.2141 13.3333 18.3333 14.4526 18.3333 15.8333Z" stroke="currentColor" stroke-width="2"/>
  <path d="M18.3333 4.1667C18.3333 5.5474 17.2141 6.6667 15.8333 6.6667 14.4526 6.6667 13.3333 5.5474 13.3333 4.1667 13.3333 2.786 14.4526 1.6667 15.8333 1.6667 17.2141 1.6667 18.3333 2.786 18.3333 4.1667Z" stroke="currentColor" stroke-width="2"/>
  <path d="M13.3333 4.1667C11.2892 4.319 10.8333 5.1693 10.8333 8.044V10M13.3333 15.8333C11.2892 15.681 10.8333 14.8308 10.8333 11.956L10.8333 10M10.8333 10H8.3333" stroke="currentColor" stroke-linecap="round" stroke-linejoin="round" stroke-width="2"/>
  <path d="M8.3333 10C8.3333 11.8409 6.841 13.3333 5 13.3333 3.1591 13.3333 1.6667 11.8409 1.6667 10 1.6667 8.1591 3.1591 6.6667 5 6.6667 6.841 6.6667 8.3333 8.1591 8.3333 10Z" stroke="currentColor" stroke-width="2"/>
</svg>
