<svg xmlns="http://www.w3.org/2000/svg" width="20" height="20" viewBox="0 0 20 20" fill="none">
  <path d="M8.3333 1.6667H11.6667C13.1793 1.6667 13.3333 2.4375 13.3333 3.75 13.3333 5.0625 13.1793 5.8333 11.6667 5.8333H8.3333C6.8207 5.8333 6.6667 5.0625 6.6667 3.75 6.6667 2.4375 6.8207 1.6667 8.3333 1.6667Z" stroke="currentColor" stroke-width="2"/>
  <path d="M1.6667 16.25C1.6667 15.2679 1.6667 14.7768 1.9718 14.4718 2.2769 14.1667 2.7679 14.1667 3.75 14.1667 4.7321 14.1667 5.2231 14.1667 5.5282 14.4718 5.8333 14.7768 5.8333 15.2679 5.8333 16.25 5.8333 17.2321 5.8333 17.7232 5.5282 18.0282 5.2231 18.3333 4.7321 18.3333 3.75 18.3333 2.7679 18.3333 2.2769 18.3333 1.9718 18.0282 1.6667 17.7232 1.6667 17.2321 1.6667 16.25Z" stroke="currentColor" stroke-width="2"/>
  <path d="M14.1667 16.25C14.1667 15.2679 14.1667 14.7768 14.4718 14.4718 14.7768 14.1667 15.2679 14.1667 16.25 14.1667 17.2321 14.1667 17.7232 14.1667 18.0282 14.4718 18.3333 14.7768 18.3333 15.2679 18.3333 16.25 18.3333 17.2321 18.3333 17.7232 18.0282 18.0282 17.7232 18.3333 17.2321 18.3333 16.25 18.3333 15.2679 18.3333 14.7768 18.3333 14.4718 18.0282 14.1667 17.7232 14.1667 17.2321 14.1667 16.25Z" stroke="currentColor" stroke-width="2"/>
  <path d="M12.0833 10.4167C12.0833 11.5672 11.1506 12.5 10 12.5 8.8494 12.5 7.9167 11.5672 7.9167 10.4167 7.9167 9.2661 8.8494 8.3333 10 8.3333 11.1506 8.3333 12.0833 9.2661 12.0833 10.4167Z" stroke="currentColor" stroke-width="2"/>
  <path d="M10 5.8333V8.3333M7.9167 10.8333L3.75 14.1667M12.0833 10.8333L16.25 14.1667" stroke="currentColor" stroke-linecap="round" stroke-linejoin="round" stroke-width="2"/>
</svg>
