<svg xmlns="http://www.w3.org/2000/svg" width="20" height="20" viewBox="0 0 20 20" fill="none">
  <path d="M12.5 10C12.5 11.1785 12.5 11.7677 12.9272 12.1339 13.3542 12.5 14.0418 12.5 15.4167 12.5 16.7916 12.5 17.4791 12.5 17.9062 12.1339 18.3333 11.7677 18.3333 11.1785 18.3333 10 18.3333 8.8215 18.3333 8.2322 17.9062 7.8661 17.4791 7.5 16.7916 7.5 15.4167 7.5 14.0418 7.5 13.3542 7.5 12.9272 7.8661 12.5 8.2322 12.5 8.8215 12.5 10Z" stroke="currentColor" stroke-width="2"/>
  <path d="M1.6667 15.8333C1.6667 17.0118 1.6667 17.6011 2.0084 17.9672 2.3501 18.3333 2.9001 18.3333 4 18.3333H5.1667C6.2666 18.3333 6.8166 18.3333 7.1583 17.9672 7.5 17.6011 7.5 17.0118 7.5 15.8333 7.5 14.6548 7.5 14.0656 7.1583 13.6994 6.8166 13.3333 6.2666 13.3333 5.1667 13.3333H4C2.9001 13.3333 2.3501 13.3333 2.0084 13.6994 1.6667 14.0656 1.6667 14.6548 1.6667 15.8333Z" stroke="currentColor" stroke-width="2"/>
  <path d="M1.6667 4.1667C1.6667 5.3452 1.6667 5.9344 2.0084 6.3006 2.3501 6.6667 2.9001 6.6667 4 6.6667L5.1667 6.6667C6.2666 6.6667 6.8166 6.6667 7.1583 6.3006 7.5 5.9344 7.5 5.3452 7.5 4.1667 7.5 2.9882 7.5 2.3989 7.1583 2.0328 6.8166 1.6667 6.2666 1.6667 5.1667 1.6667L4 1.6667C2.9001 1.6667 2.3501 1.6667 2.0084 2.0328 1.6667 2.3989 1.6667 2.9882 1.6667 4.1667Z" stroke="currentColor" stroke-width="2"/>
  <path d="M10 10.0008L10 6.6282C10 5.0666 9.2357 4.3654 7.5 4.1667M10 10.0008L10 13.3734C10 14.8463 9.3508 15.6179 7.5 15.8333M10 10.0008L12.5 10.0008" stroke="currentColor" stroke-linecap="round" stroke-linejoin="round" stroke-width="2"/>
</svg>
