<svg xmlns="http://www.w3.org/2000/svg" width="20" height="20" viewBox="0 0 20 20" fill="none">
  <path d="M7.5 10C7.5 8.8215 7.5 8.2322 7.0729 7.8661 6.6457 7.5 5.9583 7.5 4.5833 7.5 3.2084 7.5 2.5209 7.5 2.0938 7.8661 1.6667 8.2322 1.6667 8.8215 1.6667 10 1.6667 11.1785 1.6667 11.7677 2.0938 12.1339 2.5209 12.5 3.2084 12.5 4.5833 12.5 5.9583 12.5 6.6457 12.5 7.0729 12.1339 7.5 11.7677 7.5 11.1785 7.5 10Z" stroke="currentColor" stroke-width="2"/>
  <path d="M18.3333 4.1667C18.3333 2.9882 18.3333 2.3989 17.9916 2.0328 17.6499 1.6667 17.0999 1.6667 16 1.6667H14.8333C13.7334 1.6667 13.1834 1.6667 12.8418 2.0328 12.5 2.3989 12.5 2.9882 12.5 4.1667 12.5 5.3452 12.5 5.9344 12.8418 6.3006 13.1834 6.6667 13.7334 6.6667 14.8333 6.6667H16C17.0999 6.6667 17.6499 6.6667 17.9916 6.3006 18.3333 5.9344 18.3333 5.3452 18.3333 4.1667Z" stroke="currentColor" stroke-width="2"/>
  <path d="M18.3333 15.8333C18.3333 14.6548 18.3333 14.0656 17.9916 13.6994 17.6499 13.3333 17.0999 13.3333 16 13.3333H14.8333C13.7334 13.3333 13.1834 13.3333 12.8418 13.6994 12.5 14.0656 12.5 14.6548 12.5 15.8333 12.5 17.0118 12.5 17.6011 12.8418 17.9672 13.1834 18.3333 13.7334 18.3333 14.8333 18.3333H16C17.0999 18.3333 17.6499 18.3333 17.9916 17.9672 18.3333 17.6011 18.3333 17.0118 18.3333 15.8333Z" stroke="currentColor" stroke-width="2"/>
  <path d="M10 9.9992L10 13.3718C10 14.9334 10.7643 15.6346 12.5 15.8333M10 9.9992L10 6.6266C10 5.1538 10.6492 4.3821 12.5 4.1667M10 9.9992L7.5 9.9992" stroke="currentColor" stroke-linecap="round" stroke-linejoin="round" stroke-width="2"/>
</svg>
