<svg xmlns="http://www.w3.org/2000/svg" width="20" height="20" viewBox="0 0 20 20" fill="none">
  <path d="M1.6667 16.6667C1.6667 15.881 1.6667 15.4882 1.9107 15.2441 2.1548 15 2.5477 15 3.3333 15H4.1667C4.9523 15 5.3452 15 5.5893 15.2441 5.8333 15.4882 5.8333 15.881 5.8333 16.6667 5.8333 17.4523 5.8333 17.8452 5.5893 18.0892 5.3452 18.3333 4.9523 18.3333 4.1667 18.3333H3.3333C2.5477 18.3333 2.1548 18.3333 1.9107 18.0892 1.6667 17.8452 1.6667 17.4523 1.6667 16.6667Z" stroke="currentColor" stroke-width="2"/>
  <path d="M14.1667 16.6667C14.1667 15.881 14.1667 15.4882 14.4108 15.2441 14.6548 15 15.0477 15 15.8333 15H16.6667C17.4523 15 17.8452 15 18.0892 15.2441 18.3333 15.4882 18.3333 15.881 18.3333 16.6667 18.3333 17.4523 18.3333 17.8452 18.0892 18.0892 17.8452 18.3333 17.4523 18.3333 16.6667 18.3333H15.8333C15.0477 18.3333 14.6548 18.3333 14.4108 18.0892 14.1667 17.8452 14.1667 17.4523 14.1667 16.6667Z" stroke="currentColor" stroke-width="2"/>
  <path d="M16.25 14.5833C16.25 11.8256 15.7104 11.25 13.125 11.25H12.0833M3.75 14.5833C3.75 11.8256 4.2896 11.25 6.875 11.25H7.9167M10 5.8333V9.1667" stroke="currentColor" stroke-linecap="round" stroke-linejoin="round" stroke-width="2"/>
  <path d="M8.3333 1.6667H11.6667C13.1793 1.6667 13.3333 2.4375 13.3333 3.75 13.3333 5.0625 13.1793 5.8333 11.6667 5.8333H8.3333C6.8207 5.8333 6.6667 5.0625 6.6667 3.75 6.6667 2.4375 6.8207 1.6667 8.3333 1.6667Z" stroke="currentColor" stroke-width="2"/>
  <path d="M12.0833 11.25C12.0833 12.4006 11.1506 13.3333 10 13.3333 8.8494 13.3333 7.9167 12.4006 7.9167 11.25 7.9167 10.0994 8.8494 9.1667 10 9.1667 11.1506 9.1667 12.0833 10.0994 12.0833 11.25Z" stroke="currentColor" stroke-width="2"/>
</svg>
