<svg xmlns="http://www.w3.org/2000/svg" width="20" height="20" viewBox="0 0 20 20" fill="none">
  <path d="M11.6667 16.25H10.8333C8.4763 16.25 7.2978 16.25 6.5656 15.5178 5.8333 14.7855 5.8333 13.607 5.8333 11.25V9.5833M5.8333 6.6667V9.5833M5.8333 9.5833H11.6667" stroke="currentColor" stroke-linecap="round" stroke-linejoin="round" stroke-width="2"/>
  <path d="M11.6667 9.5833C11.6667 8.6013 11.6667 8.1102 11.9596 7.8051 12.2524 7.5 12.7238 7.5 13.6667 7.5H14.6667C15.6095 7.5 16.0809 7.5 16.3738 7.8051 16.6667 8.1102 16.6667 8.6013 16.6667 9.5833 16.6667 10.5654 16.6667 11.0565 16.3738 11.3616 16.0809 11.6667 15.6095 11.6667 14.6667 11.6667H13.6667C12.7238 11.6667 12.2524 11.6667 11.9596 11.3616 11.6667 11.0565 11.6667 10.5654 11.6667 9.5833Z" stroke="currentColor" stroke-width="2"/>
  <path d="M11.6667 16.25C11.6667 15.2679 11.6667 14.7768 11.9596 14.4718 12.2524 14.1667 12.7238 14.1667 13.6667 14.1667H14.6667C15.6095 14.1667 16.0809 14.1667 16.3738 14.4718 16.6667 14.7768 16.6667 15.2679 16.6667 16.25 16.6667 17.2321 16.6667 17.7232 16.3738 18.0282 16.0809 18.3333 15.6095 18.3333 14.6667 18.3333H13.6667C12.7238 18.3333 12.2524 18.3333 11.9596 18.0282 11.6667 17.7232 11.6667 17.2321 11.6667 16.25Z" stroke="currentColor" stroke-width="2"/>
  <path d="M4.4048 1.6667H7.2619C8.9907 1.6667 9.1667 2.5916 9.1667 4.1667 9.1667 5.7417 8.9907 6.6667 7.2619 6.6667H4.4048C2.676 6.6667 2.5 5.7417 2.5 4.1667 2.5 2.5916 2.676 1.6667 4.4048 1.6667Z" stroke="currentColor" stroke-width="2"/>
</svg>
