<svg xmlns="http://www.w3.org/2000/svg" width="20" height="20" viewBox="0 0 20 20" fill="none">
  <path d="M5.8333 3.3333C7.2396 4.3257 10.5333 5.2986 13.3333 4.914" stroke="currentColor" stroke-linejoin="round" stroke-width="2"/>
  <path d="M4.1667 5C4.7951 7.0833 7.4539 7.8707 6.4377 8.8981 6.0744 9.2653 5.4903 9.6327 4.5298 10" stroke="currentColor" stroke-linejoin="round" stroke-width="2"/>
  <path d="M15 15C14.1936 15.5556 13.0745 16.5556 13.3871 18.3333" stroke="currentColor" stroke-linejoin="round" stroke-width="2"/>
  <path d="M10.8333 18.3069C8.3333 18.3069 8.0828 12.2447 3.8653 9.6617 3.1962 9.252 2.3957 8.7122 2.5112 7.8112 2.6835 6.4675 3.9058 5.1172 5.1274 4.4849 6.0446 4.0101 6.432 2.7344 6.5794 2.0351 6.6173 1.8555 6.5938 1.725 6.659 1.682 6.6595 1.6816 6.6582 1.6825 6.699 1.6784 6.7398 1.6743 6.754 1.6799 6.7823 1.6913 10.8543 3.3269 12.9504 2.9436 12.9824 3.1082 13.0976 3.7007 13.2733 5.1806 12.7942 7.4093 11.9857 11.1692 12.6219 14.0045 14.4082 14.9292 15.2152 15.3469 18.4419 15.7647 17.2314 17.4357 16.4097 18.5702 10.8333 18.3069 10.8333 18.3069Z" stroke="currentColor" stroke-linecap="round" stroke-linejoin="round" stroke-width="2"/>
</svg>
