<svg xmlns="http://www.w3.org/2000/svg" width="20" height="20" viewBox="0 0 20 20" fill="none">
  <path d="M10 4.1667C8.6193 4.1667 7.5 5.286 7.5 6.6667V8.3333C7.5 9.7141 8.6193 10.8333 10 10.8333 11.3808 10.8333 12.5 9.7141 12.5 8.3333V6.6667C12.5 5.286 11.3808 4.1667 10 4.1667Z" stroke="currentColor" stroke-width="2"/>
  <path d="M12.5 8.3333C12.5 10.4167 12.2333 12 9.3889 13.3333 6.5444 14.6667 5.8333 16.5278 5.8333 17.5" stroke="currentColor" stroke-width="2"/>
  <path d="M7.5 6.6667H12.5" stroke="currentColor" stroke-linecap="round" stroke-width="2"/>
  <path d="M14.8352 6.2655C14.8352 3.7257 12.6704 1.6667 10 1.6667 7.3296 1.6667 5.1649 3.7257 5.1649 6.2655 5.1649 8.0138 4.5499 11.2242 2.5487 13.6958 1.9259 14.4648 1.6145 14.8494 1.6738 15.2033 1.7332 15.5573 2.0667 15.774 2.7337 16.2074 7.0964 19.042 12.9036 19.042 17.2662 16.2074 17.9333 15.774 18.2668 15.5573 18.3262 15.2033 18.3855 14.8494 18.0742 14.4648 17.4513 13.6958 15.4501 11.2242 14.8352 8.0138 14.8352 6.2655Z" stroke="currentColor" stroke-width="2"/>
</svg>
