<svg xmlns="http://www.w3.org/2000/svg" width="20" height="20" viewBox="0 0 20 20" fill="none">
  <path d="M9.8845 16.02L17.3734 3.1011C17.6408 2.6399 17.4712 2.0597 16.9921 1.7963 16.5216 1.5377 15.9206 1.6775 15.6283 2.1136L7.1769 14.7241C6.8629 15.1926 6.2174 15.3428 5.7119 15.0648 5.0416 14.6963 5.1419 14.0397 5.3715 13.4561 5.5907 12.8989 5.3548 12.2725 4.8137 11.975 4.0956 11.5803 3.3586 11.9407 2.9759 12.5717 1.877 14.3842 2.7945 16.9623 4.5697 17.9383 6.4591 18.977 8.8302 17.8388 9.8845 16.02Z" stroke="currentColor" stroke-linecap="round" stroke-linejoin="round" stroke-width="2"/>
  <circle cx="15.416666666666668" cy="16.25" r="2.0833333333333335" stroke="currentColor" stroke-linejoin="round" stroke-width="2"/>
  <path d="M13.3333 5.8333L15 7.0833" stroke="currentColor" stroke-linecap="round" stroke-linejoin="round" stroke-width="2"/>
</svg>
