<svg xmlns="http://www.w3.org/2000/svg" width="20" height="20" viewBox="0 0 20 20" fill="none">
  <path d="M11.25 4.5833C11.25 3.893 11.8097 3.3333 12.5 3.3333 13.1903 3.3333 13.75 3.893 13.75 4.5833V9.1667M8.7502 7.5V4.1667L8.75 2.9167C8.75 2.2263 9.3097 1.6667 10 1.6667 10.6903 1.6667 11.25 2.2263 11.25 2.9167V4.5833M11.25 4.5833V8.3333M8.7502 4.1667C8.7499 3.4766 8.1904 2.9172 7.5002 2.9172 6.8098 2.9172 6.2502 3.4768 6.2502 4.1672L6.25 11.2187 4.8998 9.8642C4.3073 9.2699 3.3314 9.3241 2.808 9.9804 2.4076 10.4826 2.3965 11.1929 2.7812 11.7074L5.7809 15.5392C6.3548 16.2724 6.6667 17.4024 6.6667 18.3335M16.25 9.1667V6.25C16.25 5.5596 15.6903 5 15 5 14.3097 5 13.75 5.5596 13.75 6.25" stroke="currentColor" stroke-linecap="round" stroke-linejoin="round" stroke-width="2"/>
  <path d="M12.5 16.25C12.5 15.4712 12.5 15.0817 12.6675 14.7917 12.7772 14.6017 12.935 14.4438 13.125 14.3342 13.4151 14.1667 13.8045 14.1667 14.5833 14.1667H15.4167C16.1955 14.1667 16.5849 14.1667 16.875 14.3342 17.065 14.4438 17.2228 14.6017 17.3325 14.7917 17.5 15.0817 17.5 15.4712 17.5 16.25 17.5 17.0288 17.5 17.4183 17.3325 17.7083 17.2228 17.8983 17.065 18.0562 16.875 18.1658 16.5849 18.3333 16.1955 18.3333 15.4167 18.3333H14.5833C13.8045 18.3333 13.4151 18.3333 13.125 18.1658 12.935 18.0562 12.7772 17.8983 12.6675 17.7083 12.5 17.4183 12.5 17.0288 12.5 16.25Z" stroke="currentColor" stroke-width="2"/>
  <path d="M13.75 12.9167C13.75 12.2263 14.3097 11.6667 15 11.6667 15.6903 11.6667 16.25 12.2263 16.25 12.9167V14.1667H13.75V12.9167Z" stroke="currentColor" stroke-width="2"/>
</svg>
