<svg xmlns="http://www.w3.org/2000/svg" width="20" height="20" viewBox="0 0 20 20" fill="none">
  <path d="M11.6667 4.5833C11.6667 3.893 12.2263 3.3333 12.9167 3.3333 13.607 3.3333 14.1667 3.893 14.1667 4.5833V10M9.1668 8.3333V4.1667L9.1667 2.9167C9.1667 2.2263 9.7263 1.6667 10.4167 1.6667 11.107 1.6667 11.6667 2.2263 11.6667 2.9167V4.5833M11.6667 4.5833V9.1667M9.1668 4.1667C9.1666 3.4766 8.607 2.9172 7.9168 2.9172 7.2265 2.9172 6.6668 3.4768 6.6668 4.1672L6.6667 11.2187 5.3164 9.8642C4.724 9.2699 3.7481 9.3241 3.2247 9.9804 2.8242 10.4826 2.8132 11.1929 3.1978 11.7074L6.1976 15.5392C6.7715 16.2724 7.0833 17.4024 7.0833 18.3335M15 18.3335V17.363C15 16.9198 15.179 16.497 15.471 16.1637 15.8086 15.7783 16.2308 15.2449 16.3908 14.8267 16.6667 14.1058 16.6667 13.2002 16.6667 11.389L16.667 10.1619 16.6667 6.25C16.6667 5.5596 16.107 5 15.4167 5 14.7263 5 14.1667 5.5596 14.1667 6.25" stroke="currentColor" stroke-linecap="round" stroke-linejoin="round" stroke-width="2"/>
</svg>
