<svg xmlns="http://www.w3.org/2000/svg" width="20" height="20" viewBox="0 0 20 20" fill="none">
  <path d="M6.4756 9.5827V4.9944C6.4756 4.3065 7.0316 3.7488 7.7175 3.7488 8.4034 3.7488 8.9594 4.3065 8.9594 4.9944V6.6448M6.4756 5.741L4.1656 8.1967C3.4016 9.0198 3.3314 10.2723 3.9984 11.1762L6.6083 14.7131C6.8377 15.0239 6.9523 15.405 6.9323 15.7913V16.6667M8.9554 4.8937L8.9574 4.5873C8.9574 3.8948 9.5171 3.3333 10.2076 3.3333 10.898 3.3333 11.4577 3.8948 11.4577 4.5873V6.9793M11.4578 5.4157C11.4578 4.7232 12.0174 4.1617 12.7078 4.1617 13.3983 4.1617 13.958 4.7232 13.958 5.4157V7.4962M13.958 6.2663C13.958 5.5737 14.5177 5.0123 15.2082 5.0123 15.8986 5.0123 16.4583 5.5737 16.4583 6.2663V11.2716C16.4583 12.0929 16.3275 13.4163 15.3655 14.5018 15.0194 14.8923 14.7579 15.3699 14.7579 15.8924V16.6667" stroke="currentColor" stroke-linecap="round" stroke-width="2"/>
</svg>
