<svg xmlns="http://www.w3.org/2000/svg" width="20" height="20" viewBox="0 0 20 20" fill="none">
  <path d="M16.4583 10.2789H17.0833 17.0833 16.4583ZM4.8477 12.8993L5.3648 12.5483 5.3648 12.5483 4.8477 12.8993ZM5.3174 13.5911L4.8003 13.9422 4.8003 13.9422 5.3174 13.5911ZM5.2369 7.3956L4.8059 6.943C4.7947 6.9537 4.7839 6.9647 4.7736 6.9762L5.2369 7.3956ZM6.8708 6.7026C7.1207 6.4645 7.1304 6.0689 6.8923 5.819 6.6542 5.569 6.2586 5.5594 6.0087 5.7974L6.8708 6.7026ZM3.546 10.3643L4.1699 10.3272 3.546 10.3643ZM3.5909 9.7297L2.9784 9.6052V9.6052L3.5909 9.7297ZM16.2153 13.4733L16.8033 13.6852V13.6852L16.2153 13.4733ZM13.6305 16.0113L13.4253 15.4209 13.6305 16.0113ZM8.4975 16.156L8.6273 15.5446H8.6273L8.4975 16.156ZM6.4397 15.0747L6.8707 14.622V14.622L6.4397 15.0747ZM5.8333 10C5.8333 10.3452 6.1132 10.625 6.4583 10.625 6.8035 10.625 7.0833 10.3452 7.0833 10H5.8333ZM10.8333 7.3956C10.8333 7.7408 11.1132 8.0206 11.4583 8.0206 11.8035 8.0206 12.0833 7.7408 12.0833 7.3956H10.8333ZM13.3333 7.9167C13.3333 8.2618 13.6132 8.5417 13.9583 8.5417 14.3035 8.5417 14.5833 8.2618 14.5833 7.9167H13.3333ZM16.4583 6.6667H15.8333V6.6667L16.4583 6.6667ZM8.3333 7.0833C8.3333 7.4285 8.6132 7.7083 8.9583 7.7083 9.3035 7.7083 9.5833 7.4285 9.5833 7.0833H8.3333ZM4.3307 13.2504L4.8003 13.9422 5.8345 13.24 5.3648 12.5483 4.3307 13.2504ZM5.668 7.8482L6.8708 6.7026 6.0087 5.7974 4.8059 6.943 5.668 7.8482ZM5.3648 12.5483C4.9375 11.9188 4.6425 11.4832 4.4451 11.1217 4.2534 10.7704 4.1825 10.5388 4.1699 10.3272L2.9221 10.4014C2.9497 10.8668 3.1092 11.2833 3.348 11.7207 3.5812 12.1478 3.917 12.6411 4.3307 13.2504L5.3648 12.5483ZM4.7736 6.9762C4.2781 7.5235 3.8762 7.9664 3.5853 8.3575 3.2875 8.7579 3.0712 9.1483 2.9784 9.6052L4.2034 9.8541C4.2456 9.6459 4.3487 9.4257 4.5883 9.1035 4.8349 8.772 5.1885 8.3803 5.7003 7.8151L4.7736 6.9762ZM4.1699 10.3272C4.1605 10.1688 4.1717 10.0098 4.2034 9.8541L2.9784 9.6052C2.9252 9.8671 2.9062 10.1347 2.9221 10.4014L4.1699 10.3272ZM15.8333 10.2789C15.8333 12.0126 15.824 12.7155 15.6273 13.2614L16.8033 13.6852C17.0927 12.8822 17.0833 11.9052 17.0833 10.2789H15.8333ZM10.3773 16.875C12.036 16.875 13.0239 16.8838 13.8356 16.6017L13.4253 15.4209C12.8632 15.6163 12.1402 15.625 10.3773 15.625V16.875ZM15.6273 13.2614C15.265 14.2668 14.4577 15.0623 13.4253 15.4209L13.8356 16.6017C15.2184 16.1213 16.3109 15.0513 16.8033 13.6852L15.6273 13.2614ZM10.3773 15.625C9.3921 15.625 8.9909 15.6217 8.6273 15.5446L8.3678 16.7674C8.8901 16.8783 9.4467 16.875 10.3773 16.875V15.625ZM4.8003 13.9422C5.3161 14.7018 5.6235 15.1605 6.0088 15.5273L6.8707 14.622C6.6052 14.3692 6.3813 14.0454 5.8345 13.24L4.8003 13.9422ZM8.6273 15.5446C7.9641 15.4039 7.3557 15.0838 6.8707 14.622L6.0088 15.5273C6.6628 16.15 7.4802 16.5791 8.3678 16.7674L8.6273 15.5446ZM7.0833 10V5.4167H5.8333V10H7.0833ZM7.7083 4.7917C8.0535 4.7917 8.3333 5.0715 8.3333 5.4167H9.5833C9.5833 4.3811 8.7438 3.5417 7.7083 3.5417V4.7917ZM7.0833 5.4167C7.0833 5.0715 7.3632 4.7917 7.7083 4.7917V3.5417C6.6728 3.5417 5.8333 4.3811 5.8333 5.4167H7.0833ZM10.8333 5.8333V7.3956H12.0833V5.8333H10.8333ZM13.3333 5.8333V6.6667H14.5833V5.8333H13.3333ZM13.3333 6.6667V7.9167H14.5833V6.6667H13.3333ZM12.7083 5.2083C13.0535 5.2083 13.3333 5.4882 13.3333 5.8333H14.5833C14.5833 4.7978 13.7438 3.9583 12.7083 3.9583V5.2083ZM12.0833 5.8333C12.0833 5.4882 12.3632 5.2083 12.7083 5.2083V3.9583C11.6728 3.9583 10.8333 4.7978 10.8333 5.8333H12.0833ZM15.2083 6.0417C15.5535 6.0417 15.8333 6.3215 15.8333 6.6667H17.0833C17.0833 5.6311 16.2438 4.7917 15.2083 4.7917V6.0417ZM14.5833 6.6667C14.5833 6.3215 14.8632 6.0417 15.2083 6.0417V4.7917C14.1728 4.7917 13.3333 5.6311 13.3333 6.6667H14.5833ZM8.3333 5.4167V7.0833H9.5833V5.4167H8.3333ZM10.8333 5V5.8333H12.0833V5H10.8333ZM8.3333 5V5.4167H9.5833V5H8.3333ZM10.2083 4.375C10.5535 4.375 10.8333 4.6548 10.8333 5H12.0833C12.0833 3.9645 11.2438 3.125 10.2083 3.125V4.375ZM10.2083 3.125C9.1728 3.125 8.3333 3.9645 8.3333 5H9.5833C9.5833 4.6548 9.8632 4.375 10.2083 4.375V3.125ZM15.8333 6.6667L15.8333 10.2789H17.0833V6.6667L15.8333 6.6667Z" fill="currentColor"/>
</svg>
