<svg xmlns="http://www.w3.org/2000/svg" width="20" height="20" viewBox="0 0 20 20" fill="none">
  <path d="M18.3333 8.75L10.7354 2.3517C10.5296 2.1784 10.2691 2.0833 10 2.0833 9.7309 2.0833 9.4704 2.1784 9.2646 2.3517L1.6667 8.75" stroke="currentColor" stroke-linecap="round" stroke-linejoin="round" stroke-width="2"/>
  <path d="M17.0833 7.9167V13.3333C17.0833 15.288 17.0833 16.2653 16.5667 16.9386 16.4338 17.1119 16.2786 17.2671 16.1053 17.4001 15.432 17.9167 14.4547 17.9167 12.5 17.9167V14.1667C12.5 12.9882 12.5 12.3989 12.1339 12.0328 11.7677 11.6667 11.1785 11.6667 10 11.6667 8.8215 11.6667 8.2322 11.6667 7.8661 12.0328 7.5 12.3989 7.5 12.9882 7.5 14.1667V17.9167C5.5454 17.9167 4.568 17.9167 3.8948 17.4001 3.7214 17.2671 3.5663 17.1119 3.4333 16.9386 2.9167 16.2653 2.9167 15.288 2.9167 13.3333V7.9167" stroke="currentColor" stroke-linecap="round" stroke-linejoin="round" stroke-width="2"/>
</svg>
