<svg xmlns="http://www.w3.org/2000/svg" width="20" height="20" viewBox="0 0 20 20" fill="none">
  <path d="M2.5 9.9913V12.0833C2.5 14.8332 2.5 16.2081 3.3543 17.0624 4.2085 17.9167 5.5835 17.9167 8.3333 17.9167H11.6667C14.4165 17.9167 15.7914 17.9167 16.6458 17.0624 17.5 16.2081 17.5 14.8332 17.5 12.0833V9.9913C17.5 8.5902 17.5 7.8898 17.2034 7.2834 16.9068 6.677 16.3539 6.2469 15.248 5.3868L13.5813 4.0905C11.8609 2.7524 11.0008 2.0833 10 2.0833 8.9992 2.0833 8.1391 2.7524 6.4187 4.0905L4.752 5.3868C3.6461 6.2469 3.0932 6.677 2.7966 7.2834 2.5 7.8898 2.5 8.5902 2.5 9.9913Z" stroke="currentColor" stroke-linecap="round" stroke-linejoin="round" stroke-width="2"/>
  <path d="M12.5002 14.1667C11.8339 14.6853 10.9587 15 10.0002 15 9.0416 15 8.1664 14.6853 7.5002 14.1667" stroke="currentColor" stroke-linecap="round" stroke-linejoin="round" stroke-width="2"/>
</svg>
