<svg xmlns="http://www.w3.org/2000/svg" width="20" height="20" viewBox="0 0 20 20" fill="none">
  <path d="M10.7437 2.3415L17.9063 7.9962C18.176 8.2091 18.3333 8.5338 18.3333 8.8773 18.3333 9.4974 17.8307 10 17.2107 10H16.6667V12.9167C16.6667 15.2737 16.6667 16.4522 15.9344 17.1844 15.2022 17.9167 14.0237 17.9167 11.6667 17.9167H8.3333C5.9763 17.9167 4.7978 17.9167 4.0656 17.1844 3.3333 16.4522 3.3333 15.2737 3.3333 12.9167V10H2.7893C2.1693 10 1.6667 9.4974 1.6667 8.8773 1.6667 8.5338 1.824 8.2091 2.0937 7.9962L9.2563 2.3415C9.4681 2.1743 9.7301 2.0833 10 2.0833 10.2699 2.0833 10.5319 2.1743 10.7437 2.3415Z" stroke="currentColor" stroke-linecap="round" stroke-linejoin="round" stroke-width="2"/>
  <path d="M12.0833 17.9167V14.1667C12.0833 13.3878 12.0833 12.9984 11.9158 12.7083 11.8062 12.5183 11.6483 12.3605 11.4583 12.2508 11.1683 12.0833 10.7788 12.0833 10 12.0833 9.2212 12.0833 8.8318 12.0833 8.5417 12.2508 8.3517 12.3605 8.1938 12.5183 8.0841 12.7083 7.9167 12.9984 7.9167 13.3878 7.9167 14.1667V17.9167" stroke="currentColor" stroke-linecap="round" stroke-linejoin="round" stroke-width="2"/>
</svg>
