<svg xmlns="http://www.w3.org/2000/svg" width="20" height="20" viewBox="0 0 20 20" fill="none">
  <path d="M7.451 5.2907L8.9624 7.4174C9.2703 7.8507 9.4243 8.0673 9.5038 8.3167 9.5833 8.5661 9.5833 8.8323 9.5833 9.3648V16.6667H4.5833C3.012 16.6667 2.2263 16.6667 1.7382 16.176 1.25 15.6854 1.25 14.8958 1.25 13.3164V9.3648C1.25 8.8323 1.25 8.5661 1.3295 8.3167 1.409 8.0673 1.563 7.8507 1.8709 7.4174L3.3823 5.2907C4.3097 3.9858 4.7734 3.3333 5.4167 3.3333 6.0599 3.3333 6.5236 3.9858 7.451 5.2907Z" stroke="currentColor" stroke-linecap="round" stroke-linejoin="round" stroke-width="2"/>
  <path d="M7.0833 16.6667V13.3333C7.0833 12.7103 7.0833 12.3988 6.9494 12.1667 6.8616 12.0147 6.7354 11.8884 6.5833 11.8007 6.3513 11.6667 6.0397 11.6667 5.4167 11.6667 4.7936 11.6667 4.4821 11.6667 4.25 11.8007 4.098 11.8884 3.9717 12.0147 3.884 12.1667 3.75 12.3988 3.75 12.7103 3.75 13.3333V16.6667" stroke="currentColor" stroke-linecap="round" stroke-linejoin="round" stroke-width="2"/>
  <path d="M7.0833 16.6667H15.4167C16.988 16.6667 17.7737 16.6667 18.2618 16.1785 18.75 15.6903 18.75 14.9047 18.75 13.3333V9.5402C18.75 8.9429 18.75 8.6443 18.6504 8.3693 18.5509 8.0944 18.3598 7.865 17.9774 7.4062L15.5828 4.5327C15.0913 3.9429 14.8456 3.648 14.5097 3.4907 14.1737 3.3333 13.7898 3.3333 13.0221 3.3333H5.4167" stroke="currentColor" stroke-linecap="round" stroke-linejoin="round" stroke-width="2"/>
  <path d="M18.3333 8.3333H9.5833" stroke="currentColor" stroke-linecap="round" stroke-linejoin="round" stroke-width="2"/>
</svg>
