<svg xmlns="http://www.w3.org/2000/svg" width="20" height="20" viewBox="0 0 20 20" fill="none">
  <path d="M18.3333 8.75L10.7354 2.3517C10.5296 2.1784 10.2691 2.0833 10 2.0833 9.7309 2.0833 9.4704 2.1784 9.2646 2.3517L1.6667 8.75" stroke="currentColor" stroke-linecap="round" stroke-linejoin="round" stroke-width="2"/>
  <path d="M17.0833 4.1667V12.9167C17.0833 15.2737 17.0833 16.4522 16.3511 17.1844 15.6188 17.9167 14.4403 17.9167 12.0833 17.9167H7.9167C5.5596 17.9167 4.3811 17.9167 3.6489 17.1844 2.9167 16.4522 2.9167 15.2737 2.9167 12.9167V7.9167" stroke="currentColor" stroke-linecap="round" stroke-linejoin="round" stroke-width="2"/>
  <path d="M12.5 17.9167V13.75C12.5 12.5715 12.5 11.9823 12.1339 11.6161 11.7677 11.25 11.1785 11.25 10 11.25 8.8215 11.25 8.2322 11.25 7.8661 11.6161 7.5 11.9823 7.5 12.5715 7.5 13.75V17.9167" stroke="currentColor" stroke-linecap="round" stroke-linejoin="round" stroke-width="2"/>
</svg>
