<svg xmlns="http://www.w3.org/2000/svg" width="20" height="20" viewBox="0 0 20 20" fill="none">
  <path d="M6.2069 2.9167H5M16.6667 2.9167H9.5833M9.5833 1.6667V4.1667M6.2069 1.6667V4.1667M7.9167 0.8333V5" stroke="currentColor" stroke-linecap="round" stroke-width="2"/>
  <path d="M3.3333 7.5H13.3333" stroke="currentColor" stroke-linecap="round" stroke-width="2"/>
  <path d="M11.3333 7.5L11.5803 7.8001C12.4483 8.855 12.8823 9.3825 13.1078 10.0074 13.3333 10.6324 13.3333 11.3079 13.3333 12.6588V15.2778C13.3333 17.111 13.3333 18.0277 12.7476 18.5972 12.1617 19.1667 11.2189 19.1667 9.3333 19.1667H7.3333C5.4477 19.1667 4.5049 19.1667 3.9191 18.5972 3.3333 18.0277 3.3333 17.111 3.3333 15.2778V12.6588C3.3333 11.3079 3.3333 10.6324 3.5588 10.0074 3.7843 9.3825 4.2183 8.855 5.0864 7.8001L5.3333 7.5" stroke="currentColor" stroke-linecap="round" stroke-width="2"/>
  <path d="M6.6667 12.5V15" stroke="currentColor" stroke-linecap="round" stroke-width="2"/>
  <path d="M3.3333 12.5H13.3333" stroke="currentColor" stroke-linecap="round" stroke-width="2"/>
</svg>
