<svg xmlns="http://www.w3.org/2000/svg" width="20" height="20" viewBox="0 0 20 20" fill="none">
  <path d="M13.75 4.1667H6.25C5.8617 4.1667 5.6676 4.1667 5.5144 4.1032 5.3102 4.0187 5.148 3.8564 5.0634 3.6522 5 3.4991 5 3.3049 5 2.9167 5 2.5284 5 2.3342 5.0634 2.1811 5.148 1.9769 5.3102 1.8147 5.5144 1.7301 5.6676 1.6667 5.8617 1.6667 6.25 1.6667H13.75C14.1383 1.6667 14.3324 1.6667 14.4856 1.7301 14.6898 1.8147 14.852 1.9769 14.9366 2.1811 15 2.3342 15 2.5284 15 2.9167 15 3.3049 15 3.4991 14.9366 3.6522 14.852 3.8564 14.6898 4.0187 14.4856 4.1032 14.3324 4.1667 14.1383 4.1667 13.75 4.1667Z" stroke="currentColor" stroke-linecap="round" stroke-width="2"/>
  <path d="M6.25 4.1667L6.0982 4.3489C5.1423 5.4959 4.6644 6.0694 4.4155 6.7568 4.1667 7.4442 4.1667 8.1907 4.1667 9.6837V13.3333C4.1667 15.6903 4.1667 16.8688 4.8989 17.6011 5.6311 18.3333 6.8096 18.3333 9.1667 18.3333H10.8333C13.1903 18.3333 14.3688 18.3333 15.1011 17.6011 15.8333 16.8688 15.8333 15.6903 15.8333 13.3333V9.6837C15.8333 8.1907 15.8333 7.4442 15.5845 6.7568 15.3356 6.0694 14.8577 5.4959 13.9018 4.3489L13.75 4.1667" stroke="currentColor" stroke-linecap="round" stroke-width="2"/>
  <path d="M8.3333 11.0784V9.5098L10 8.3333 11.6667 9.5098V11.0784M8.3333 11.0784L10 12.2549M8.3333 11.0784L6.6667 12.2549 6.6667 13.8235 8.3333 15 10 13.8235M11.6667 11.0784L10 12.2549M11.6667 11.0784L13.3333 12.2549V13.8235L11.6667 15 10 13.8235M10 12.2549V13.8235" stroke="currentColor" stroke-linecap="round" stroke-linejoin="round" stroke-width="2"/>
</svg>
