<svg xmlns="http://www.w3.org/2000/svg" width="20" height="20" viewBox="0 0 20 20" fill="none">
  <path d="M2.0833 2.5016H17.9167" stroke="currentColor" stroke-linecap="round" stroke-linejoin="round" stroke-width="2"/>
  <path d="M3.75 2.5016V11.6675C3.75 13.6082 4.1088 14.2419 5.7729 15.2404L8.285 16.7477C9.1206 17.2489 9.5383 17.4997 10 17.4997 10.4617 17.4997 10.8794 17.2489 11.715 16.7477L14.2271 15.2404C15.8912 14.2419 16.25 13.6082 16.25 11.6675V2.5016" stroke="currentColor" stroke-linecap="round" stroke-linejoin="round" stroke-width="2"/>
  <path d="M10.5038 6.6712L11.017 7.7063C11.087 7.8503 11.2737 7.9885 11.4311 8.015L12.3614 8.1708C12.9563 8.2708 13.0963 8.706 12.6677 9.1353L11.9444 9.8645C11.8219 9.988 11.7548 10.2263 11.7928 10.3968L11.9998 11.2995C12.1631 12.014 11.7869 12.2904 11.1599 11.917L10.2879 11.3965C10.1304 11.3024 9.8708 11.3024 9.7105 11.3965L8.8385 11.917C8.2144 12.2904 7.8353 12.0111 7.9986 11.2995L8.2056 10.3968C8.2436 10.2263 8.1765 9.988 8.054 9.8645L7.3307 9.1353C6.905 8.706 7.042 8.2708 7.6369 8.1708L8.5672 8.015C8.7218 7.9885 8.9085 7.8503 8.9785 7.7063L9.4918 6.6712C9.7718 6.1096 10.2267 6.1096 10.5038 6.6712Z" stroke="currentColor" stroke-linecap="round" stroke-linejoin="round" stroke-width="2"/>
</svg>
