<svg xmlns="http://www.w3.org/2000/svg" width="20" height="20" viewBox="0 0 20 20" fill="none">
  <path d="M14.7007 10C14.6167 10.621 14.6497 11.2505 14.7157 12.5095L15 16.2683C15 16.8574 14.9002 17.1721 14.3709 17.4563 12.1937 18.6257 7.8063 18.6257 5.6291 17.4563 5.0999 17.1721 5 16.8574 5 16.2683L5.2844 12.5095C5.3503 11.2505 5.3833 10.621 5.2993 10" stroke="currentColor" stroke-linecap="round" stroke-linejoin="round" stroke-width="2"/>
  <path d="M11.6667 14.1667C11.6667 14.8957 12.0158 15.3492 12.5 15.8333M8.3333 14.1667C8.3333 14.8957 7.9841 15.3492 7.5 15.8333" stroke="currentColor" stroke-linecap="round" stroke-width="2"/>
  <path d="M6.1666 5.7479L9.402 7.2893C9.6968 7.4298 9.8443 7.5 10 7.5 10.1557 7.5 10.3032 7.4298 10.598 7.2893L13.8334 5.7479C14.5495 5.4067 14.9076 5.2361 14.9851 4.7991 15.0626 4.3621 14.8355 4.1051 14.3813 3.5912 12.1136 1.0252 7.8864 1.0252 5.6187 3.5912 5.1645 4.1051 4.9375 4.3621 5.015 4.7991 5.0925 5.2361 5.4505 5.4067 6.1666 5.7479Z" stroke="currentColor" stroke-linecap="round" stroke-linejoin="round" stroke-width="2"/>
  <path d="M11.6667 5L10 7.5 8.3333 5" stroke="currentColor" stroke-linecap="round" stroke-linejoin="round" stroke-width="2"/>
  <path d="M5.3197 5.4167C4.1948 5.6388 3.1889 6.6831 2.4906 7.618 2.0433 8.2169 1.8197 8.5163 1.7089 9.0695 1.5981 9.6227 1.7149 10.084 1.9485 11.0066L3.0312 15.2824C3.2226 16.0384 4.1667 15.9258 5 15.085M14.6802 5.4167C15.8052 5.6388 16.8111 6.6831 17.5093 7.618 17.9567 8.2169 18.1803 8.5163 18.2912 9.0695 18.4019 9.6227 18.2851 10.084 18.0515 11.0066L16.9688 15.2824C16.7774 16.0384 15.8333 15.9188 15 15.5054" stroke="currentColor" stroke-linecap="round" stroke-linejoin="round" stroke-width="2"/>
</svg>
