<svg xmlns="http://www.w3.org/2000/svg" width="20" height="20" viewBox="0 0 20 20" fill="none">
  <path d="M8.3333 16.6667L8.3333 3.3333" stroke="currentColor" stroke-linecap="round" stroke-linejoin="round" stroke-width="2"/>
  <path d="M11.6667 16.6667L11.6667 3.3333" stroke="currentColor" stroke-linecap="round" stroke-linejoin="round" stroke-width="2"/>
  <path d="M8.3333 10L5 10" stroke="currentColor" stroke-linecap="round" stroke-linejoin="round" stroke-width="2"/>
  <path d="M1.6668 10.042C1.6413 9.1789 5.007 7.1495 5.324 7.5523 5.6835 8.0091 4.824 9.3664 4.6305 9.7987 4.5141 10.0586 4.5172 10.1713 4.6496 10.431 5.2473 11.6034 5.5461 12.1896 5.3633 12.4437L5.3616 12.446C5.0671 12.8498 1.6917 10.8842 1.6668 10.042Z" stroke="currentColor" stroke-width="2"/>
  <path d="M18.3332 9.958C18.3587 10.8211 14.993 12.8505 14.676 12.4478 14.3165 11.9909 15.1759 10.6335 15.3695 10.2013 15.4859 9.9414 15.4828 9.8287 15.3504 9.569 14.7527 8.3966 14.4538 7.8104 14.6367 7.5563L14.6383 7.554C14.9329 7.1503 18.3083 9.1158 18.3332 9.958Z" stroke="currentColor" stroke-width="2"/>
  <path d="M15 10L11.6667 10" stroke="currentColor" stroke-linecap="round" stroke-linejoin="round" stroke-width="2"/>
</svg>
