<svg xmlns="http://www.w3.org/2000/svg" width="20" height="20" viewBox="0 0 20 20" fill="none">
  <path d="M16.25 3.75L18.3333 7.0833C18.1049 7.5401 17.5941 7.9167 17.0833 7.9167L15.8333 6.6667C15.0868 6.6667 14.4028 6.1249 14.1667 5.4167" stroke="currentColor" stroke-linecap="round" stroke-linejoin="round" stroke-width="2"/>
  <path d="M15.4167 1.6667L14.5833 2.5C12.9167 2.9167 11.8233 4.1135 11.3883 5.4183L10.8333 7.0833C9.0401 8.3643 7.7652 8.0701 6.4071 7.6534 5.5461 7.3893 4.561 7.5224 3.9241 8.1592 3.5459 8.5375 3.3333 9.0506 3.3333 9.5855V17.5" stroke="currentColor" stroke-linecap="round" stroke-linejoin="round" stroke-width="2"/>
  <path d="M3.75 7.9167L3.1302 7.6068C2.9898 7.5366 2.8349 7.5 2.6779 7.5 2.1194 7.5 1.6667 7.9528 1.6667 8.5113V11.6667" stroke="currentColor" stroke-linecap="round" stroke-linejoin="round" stroke-width="2"/>
  <path d="M14.5833 6.25L14.5023 6.3716C14.0313 7.078 13.9383 7.9709 14.2537 8.7592 14.4688 9.297 14.5228 9.8857 14.4093 10.4537 14.2539 11.2304 13.5757 12.0607 12.9167 12.5V17.5" stroke="currentColor" stroke-linecap="round" stroke-linejoin="round" stroke-width="2"/>
  <path d="M10.8333 17.5V12.5" stroke="currentColor" stroke-linecap="round" stroke-width="2"/>
  <path d="M6.6667 13.3333C6.6667 13.3333 8.5898 14.2708 10.8333 13.3333" stroke="currentColor" stroke-linecap="round" stroke-linejoin="round" stroke-width="2"/>
  <path d="M7.0833 12.5C6.6667 13.75 5.4167 14.1667 5.4167 14.1667V17.5004" stroke="currentColor" stroke-linecap="round" stroke-linejoin="round" stroke-width="2"/>
  <path d="M5.4167 7.9167C5.4167 9.2974 6.536 10.4167 7.9167 10.4167 9.2974 10.4167 10.4167 9.2974 10.4167 7.9167V7.5" stroke="currentColor" stroke-linecap="round" stroke-linejoin="round" stroke-width="2"/>
</svg>
