<svg xmlns="http://www.w3.org/2000/svg" width="20" height="20" viewBox="0 0 20 20" fill="none">
  <path d="M11.6668 17.5C7.9167 13.3333 10.4167 10.8333 10.4167 10.8333 11.1865 12.8862 13.75 12.5 13.75 12.5L15.2285 13.6329C15.5589 13.8444 15.985 13.7628 16.2257 13.4417L17.3315 12.1065C17.5765 11.7798 17.5521 11.3087 17.2747 11.0129L16.207 9.8741C15.7163 9.3506 15.3911 8.6766 15.277 7.9464 15.1421 7.0831 14.5835 6.25 14.0725 5.7567L13.3335 5 14.1668 2.5C14.1668 2.5 12.02 2.5244 11.2502 4.1667 6.25 4.5833 2.5 7.9464 2.5 17.5" stroke="currentColor" stroke-linecap="round" stroke-linejoin="round" stroke-width="2"/>
</svg>
