<svg xmlns="http://www.w3.org/2000/svg" width="20" height="20" viewBox="0 0 20 20" fill="none">
  <path d="M5 7.5V17.5H15V7.5C15 5.143 15 3.9645 14.2678 3.2322 13.5355 2.5 12.357 2.5 10 2.5 7.643 2.5 6.4645 2.5 5.7322 3.2322 5 3.9645 5 5.143 5 7.5Z" stroke="currentColor" stroke-linecap="round" stroke-linejoin="round" stroke-width="2"/>
  <path d="M1.6667 10.8333V14.1667C1.6667 15.738 1.6667 16.5237 2.1548 17.0118 2.643 17.5 3.4286 17.5 5 17.5V7.5C3.4286 7.5 2.643 7.5 2.1548 7.9882 1.6667 8.4763 1.6667 9.262 1.6667 10.8333Z" stroke="currentColor" stroke-linecap="round" stroke-linejoin="round" stroke-width="2"/>
  <path d="M15 7.5V17.5C16.5713 17.5 17.357 17.5 17.8452 17.0118 18.3333 16.5237 18.3333 15.738 18.3333 14.1667V10.8333C18.3333 9.262 18.3333 8.4763 17.8452 7.9882 17.357 7.5 16.5713 7.5 15 7.5Z" stroke="currentColor" stroke-linecap="round" stroke-linejoin="round" stroke-width="2"/>
  <path d="M8.3333 15V17.5H11.6667V15C11.6667 14.0795 10.9205 13.3333 10 13.3333 9.0795 13.3333 8.3333 14.0795 8.3333 15Z" stroke="currentColor" stroke-linecap="round" stroke-linejoin="round" stroke-width="2"/>
  <path d="M10.0008 5.8333V9.1667M11.6716 7.4958L8.3383 7.4958" stroke="currentColor" stroke-linecap="round" stroke-linejoin="round" stroke-width="2"/>
</svg>
