<svg xmlns="http://www.w3.org/2000/svg" width="20" height="20" viewBox="0 0 20 20" fill="none">
  <path d="M16.3253 5L3.6748 5C3.4807 5 3.3837 5 3.2926 5.0138 2.8741 5.0772 2.4896 5.3556 2.2185 5.7915 2.1595 5.8864 2.1057 5.9956 1.998 6.214 1.8319 6.5511 1.7489 6.7196 1.7149 6.8484 1.5515 7.4668 1.8182 8.141 2.2892 8.3002 2.3872 8.3333 2.537 8.3333 2.8364 8.3333L17.1636 8.3333C17.4631 8.3333 17.6128 8.3333 17.7108 8.3002 18.1818 8.141 18.4485 7.4668 18.2852 6.8484 18.2512 6.7197 18.1681 6.5511 18.002 6.214 17.8943 5.9956 17.8405 5.8864 17.7815 5.7915 17.5104 5.3556 17.1258 5.0772 16.7073 5.0138 16.6163 5 16.5192 5 16.3253 5Z" stroke="currentColor" stroke-linecap="round" stroke-width="2"/>
  <path d="M5 11.6667L15 11.6667" stroke="currentColor" stroke-linecap="round" stroke-width="2"/>
  <path d="M3.3333 8.3333L4.377 9.6568C4.9597 10.3957 5.1474 11.3656 4.8817 12.2642L4.3191 14.1667" stroke="currentColor" stroke-linecap="round" stroke-width="2"/>
  <path d="M16.6667 8.3333L15.623 9.6568C15.0403 10.3957 14.8526 11.3656 15.1183 12.2642L15.6809 14.1667" stroke="currentColor" stroke-linecap="round" stroke-width="2"/>
  <path d="M5.8333 15.8333C5.8333 16.7538 5.0871 17.5 4.1667 17.5 3.2462 17.5 2.5 16.7538 2.5 15.8333 2.5 14.9128 3.2462 14.1667 4.1667 14.1667 5.0871 14.1667 5.8333 14.9128 5.8333 15.8333Z" stroke="currentColor" stroke-width="2"/>
  <path d="M17.5 15.8333C17.5 16.7538 16.7538 17.5 15.8333 17.5 14.9128 17.5 14.1667 16.7538 14.1667 15.8333 14.1667 14.9128 14.9128 14.1667 15.8333 14.1667 16.7538 14.1667 17.5 14.9128 17.5 15.8333Z" stroke="currentColor" stroke-width="2"/>
  <path d="M5 5V3.4197C5 2.8216 5.5095 2.3829 6.0354 2.5279L7.7021 2.9875C8.0731 3.0898 8.3333 3.4575 8.3333 3.8793V5" stroke="currentColor" stroke-linecap="round" stroke-width="2"/>
</svg>
