<svg xmlns="http://www.w3.org/2000/svg" width="20" height="20" viewBox="0 0 20 20" fill="none">
  <path d="M16.6667 7.4444C16.6667 11.6667 12.0512 15 10 15 7.9487 15 3.3333 11.6667 3.3333 7.4444 3.3333 4.2535 6.3181 1.6667 10 1.6667 13.6819 1.6667 16.6667 4.2535 16.6667 7.4444Z" stroke="currentColor" stroke-width="2"/>
  <path d="M12.5 7.4444C12.5 11.6667 10.7692 15 10 15 9.2308 15 7.5 11.6667 7.5 7.4444 7.5 4.2535 8.6193 1.6667 10 1.6667 11.3808 1.6667 12.5 4.2535 12.5 7.4444Z" stroke="currentColor" stroke-width="2"/>
  <path d="M7.5 16.6667C7.5 16.2792 7.5 16.0854 7.5426 15.9265 7.6582 15.4951 7.9951 15.1582 8.4265 15.0426 8.5854 15 8.7792 15 9.1667 15H10.8333C11.2208 15 11.4146 15 11.5735 15.0426 12.0049 15.1582 12.3418 15.4951 12.4574 15.9265 12.5 16.0854 12.5 16.2792 12.5 16.6667 12.5 17.0542 12.5 17.2479 12.4574 17.4068 12.3418 17.8382 12.0049 18.1752 11.5735 18.2907 11.4146 18.3333 11.2208 18.3333 10.8333 18.3333H9.1667C8.7792 18.3333 8.5854 18.3333 8.4265 18.2907 7.9951 18.1752 7.6582 17.8382 7.5426 17.4068 7.5 17.2479 7.5 17.0542 7.5 16.6667Z" stroke="currentColor" stroke-linejoin="round" stroke-width="2"/>
</svg>
