<svg xmlns="http://www.w3.org/2000/svg" width="20" height="20" viewBox="0 0 20 20" fill="none">
  <path d="M15.8333 9.1503C16.28 8.6633 17.0833 7.9983 17.8855 6.9559 18.4257 6.2539 18.4698 5.2624 18.0578 4.4754 17.2996 3.0278 15.3962 2.9236 14.3006 4.112 14.0362 4.3989 13.762 4.6819 13.4783 4.9606M5.7777 15.3536C5.1718 15.5366 4.5717 15.6873 3.9807 15.8057 3.1592 15.9705 2.3581 15.5169 1.946 14.73 1.1878 13.2824 2.0576 11.4131 3.5391 10.9613 3.8966 10.8523 4.256 10.7321 4.6168 10.6006" stroke="currentColor" stroke-linecap="round" stroke-linejoin="round" stroke-width="2"/>
  <path d="M14.1718 4.1842C14.0659 3.6849 13.6322 2.7851 12.7267 2.6033 11.4559 2.3484 10.9106 2.5089 9.3857 3.7839 8.1658 4.8039 5.5735 5.9726 4.4299 6.4295 3.3693 6.8532 2.163 7.9691 2.5668 9.2927 2.9731 10.6246 3.7283 10.6384 4.0236 10.7715" stroke="currentColor" stroke-linecap="round" stroke-linejoin="round" stroke-width="2"/>
  <path d="M16.0617 9.299C16.9672 9.4807 17.4008 10.3805 17.5068 10.8799 17.6407 11.8568 16.7389 12.7838 16.2713 13.1252 15.4989 13.6679 13.334 15.1834 11.2541 16.3102 9.1182 17.4672 7.8645 17.5735 7.3586 17.4672 7.0632 17.3341 6.3081 17.3203 5.9018 15.9883 5.498 14.6648 6.7042 13.5488 7.7649 13.1252 8.9085 12.6683 11.5008 11.4996 12.7207 10.4796 14.2455 9.2046 14.7909 9.044 16.0617 9.299Z" stroke="currentColor" stroke-linecap="round" stroke-linejoin="round" stroke-width="2"/>
  <path d="M6.9535 9.8245C7.1562 9.5872 7.3158 9.118 7.4378 8.5824 7.5389 8.1388 8.1108 8.2318 8.6652 8.4411 8.8612 8.5151 9.0858 8.4492 9.1963 8.2711L10.0801 6.8469C10.1707 6.7007 10.342 6.6265 10.5052 6.6811 10.911 6.817 11.4349 7.0452 11.7283 6.8981" stroke="currentColor" stroke-linecap="round" stroke-linejoin="round" stroke-width="2"/>
</svg>
