<svg xmlns="http://www.w3.org/2000/svg" width="20" height="20" viewBox="0 0 20 20" fill="none">
  <path d="M1.6667 17.0833H18.3333" stroke="currentColor" stroke-linecap="round" stroke-linejoin="round" stroke-width="2"/>
  <path d="M2.5436 12.3124C2.9322 12.0659 3.3279 11.7083 3.3847 11.2517 3.794 7.9623 6.5998 5.4167 10 5.4167 13.4003 5.4167 16.2059 7.9623 16.6153 11.2517 16.6722 11.7083 17.0678 12.0659 17.4564 12.3124 17.8009 12.5309 18.051 12.8894 18.1222 13.3163L18.3333 14.1667H1.6667L1.8778 13.3163C1.949 12.8894 2.1991 12.5309 2.5436 12.3124Z" stroke="currentColor" stroke-linecap="round" stroke-linejoin="round" stroke-width="2"/>
  <path d="M10 5.4167V2.9167M10 2.9167H7.9167M10 2.9167H12.0833" stroke="currentColor" stroke-linecap="round" stroke-linejoin="round" stroke-width="2"/>
  <path d="M15.8333 4.5833L15.4167 5.4167M17.9167 6.6667L17.0841 7.0833" stroke="currentColor" stroke-linecap="round" stroke-linejoin="round" stroke-width="2"/>
  <path d="M4.1667 4.5833L4.5833 5.4167M2.9159 7.0833L2.0833 6.6667" stroke="currentColor" stroke-linecap="round" stroke-linejoin="round" stroke-width="2"/>
</svg>
