<svg xmlns="http://www.w3.org/2000/svg" width="20" height="20" viewBox="0 0 20 20" fill="none">
  <path d="M2.5 5.8333V15C2.5 16.5713 2.5 17.357 2.9882 17.8452 3.4763 18.3333 4.262 18.3333 5.8333 18.3333H14.1667C15.738 18.3333 16.5237 18.3333 17.0118 17.8452 17.5 17.357 17.5 16.5713 17.5 15V5.8333" stroke="currentColor" stroke-linecap="round" stroke-linejoin="round" stroke-width="2"/>
  <path d="M14.1667 5.8333C14.1667 3.5322 12.3012 1.6667 10 1.6667 7.6988 1.6667 5.8333 3.5322 5.8333 5.8333" stroke="currentColor" stroke-linecap="round" stroke-linejoin="round" stroke-width="2"/>
  <path d="M11.6667 18.3334L11.6667 15C11.6667 14.0795 10.9205 13.3333 10 13.3333 9.0795 13.3333 8.3333 14.0795 8.3333 15V18.3334" stroke="currentColor" stroke-linecap="round" stroke-linejoin="round" stroke-width="2"/>
  <path d="M7.5 2.5H3.7268C3.468 2.5 3.2061 2.5684 2.9984 2.7742 2.3802 3.3866 2.0234 4.4064 1.6667 5.8333H5.8333M12.5 2.5H16.2733C16.532 2.5 16.7939 2.5684 17.0016 2.7742 17.6198 3.3866 17.9766 4.4064 18.3333 5.8333H14.1667" stroke="currentColor" stroke-linecap="round" stroke-linejoin="round" stroke-width="2"/>
  <path d="M5 9.1667H5.4167M5 12.0833H5.4167" stroke="currentColor" stroke-linecap="round" stroke-linejoin="round" stroke-width="2"/>
  <path d="M14.5833 9.1667H15M14.5833 12.0833H15" stroke="currentColor" stroke-linecap="round" stroke-linejoin="round" stroke-width="2"/>
  <path d="M8.75 6.6667V7.9167M8.75 9.1667V7.9167M11.25 6.6667V7.9167M11.25 9.1667V7.9167M8.75 7.9167H11.25" stroke="currentColor" stroke-linecap="round" stroke-linejoin="round" stroke-width="2"/>
</svg>
