<svg xmlns="http://www.w3.org/2000/svg" width="20" height="20" viewBox="0 0 20 20" fill="none">
  <path d="M10 18.3333C13.6819 18.3333 16.6667 15.3486 16.6667 11.6667 16.6667 6.6667 10 1.6667 10 1.6667 9.6764 3.7391 9.3596 4.8513 8.3333 6.6667 7.3326 6.2041 7.0833 5.8333 6.6667 4.7917 5 6.6667 3.3333 9.1667 3.3333 11.6667 3.3333 15.3486 6.3181 18.3333 10 18.3333Z" stroke="currentColor" stroke-linejoin="round" stroke-width="2"/>
  <path d="M12.0833 10.4167L7.9167 14.5833" stroke="currentColor" stroke-linecap="round" stroke-linejoin="round" stroke-width="2"/>
  <path d="M8.2292 10.625H8.125M8.3333 10.625C8.3333 10.7401 8.2401 10.8333 8.125 10.8333 8.0099 10.8333 7.9167 10.7401 7.9167 10.625 7.9167 10.5099 8.0099 10.4167 8.125 10.4167 8.2401 10.4167 8.3333 10.5099 8.3333 10.625Z" stroke="currentColor" stroke-linecap="round" stroke-linejoin="round" stroke-width="2"/>
  <path d="M11.9792 14.375H11.875M12.0833 14.375C12.0833 14.4901 11.9901 14.5833 11.875 14.5833 11.7599 14.5833 11.6667 14.4901 11.6667 14.375 11.6667 14.2599 11.7599 14.1667 11.875 14.1667 11.9901 14.1667 12.0833 14.2599 12.0833 14.375Z" stroke="currentColor" stroke-linecap="round" stroke-linejoin="round" stroke-width="2"/>
</svg>
