<svg xmlns="http://www.w3.org/2000/svg" width="20" height="20" viewBox="0 0 20 20" fill="none">
  <path d="M11.6667 11.6667C11.6667 12.5872 10.9205 13.3333 10 13.3333 9.0795 13.3333 8.3333 12.5872 8.3333 11.6667 8.3333 10.7462 9.0795 10 10 10" stroke="currentColor" stroke-linecap="round" stroke-width="2"/>
  <path d="M3.3333 16.6675C2.2868 15.2746 1.6667 13.543 1.6667 11.6667 1.6667 8.9407 2.9756 6.5204 4.9992 5" stroke="currentColor" stroke-linecap="round" stroke-width="2"/>
  <path d="M7.0833 3.858C7.9911 3.5188 8.9739 3.3333 10 3.3333 14.6023 3.3333 18.3333 7.0643 18.3333 11.6667 18.3333 12.6928 18.1479 13.6756 17.8087 14.5833" stroke="currentColor" stroke-linecap="round" stroke-width="2"/>
  <path d="M6.2507 15C5.4729 14.1154 5 12.9473 5 11.6667 5 9.9275 5.8723 8.3957 7.1958 7.5M13.5731 15C13.7978 14.7445 13.9969 14.4653 14.1667 14.1667" stroke="currentColor" stroke-linecap="round" stroke-width="2"/>
  <path d="M15 11.6667C15 8.9053 12.7614 6.6667 10 6.6667" stroke="currentColor" stroke-linecap="round" stroke-width="2"/>
  <path d="M1.6667 1.6667L18.3333 18.3333" stroke="currentColor" stroke-linecap="round" stroke-width="2"/>
</svg>
