<svg xmlns="http://www.w3.org/2000/svg" width="20" height="20" viewBox="0 0 20 20" fill="none">
  <path d="M3.0537 14.1553L2.5 10.8333H17.5L16.9463 14.1553C16.6137 16.1508 16.4475 17.1484 15.7481 17.7409 15.0488 18.3333 14.0373 18.3333 12.0143 18.3333H7.9856C5.9627 18.3333 4.9512 18.3333 4.2519 17.7409 3.5525 17.1484 3.3862 16.1508 3.0537 14.1553Z" stroke="currentColor" stroke-linecap="round" stroke-linejoin="round" stroke-width="2"/>
  <path d="M15.5 8.3333C15.9444 7.8731 15.9444 7.1269 15.5 6.6667 15.0556 6.2064 15.0556 5.4602 15.5 5M12.8333 8.3333C13.2777 7.8731 13.2777 7.1269 12.8333 6.6667 12.3889 6.2064 12.3889 5.4602 12.8333 5" stroke="currentColor" stroke-linecap="round" stroke-width="2"/>
  <path d="M2.5 10.8333H1.6667M17.5 10.8333H18.3333" stroke="currentColor" stroke-linecap="round" stroke-linejoin="round" stroke-width="2"/>
  <path d="M4.1667 10.8333V8.2094C4.1667 7.3574 4.8574 6.6667 5.7094 6.6667 6.8167 6.6667 7.839 7.26 8.3884 8.2213L10.8333 12.5M7.5 3.3333C7.5 4.2538 6.7538 5 5.8333 5 4.9129 5 4.1667 4.2538 4.1667 3.3333 4.1667 2.4129 4.9129 1.6667 5.8333 1.6667 6.7538 1.6667 7.5 2.4129 7.5 3.3333Z" stroke="currentColor" stroke-linecap="round" stroke-linejoin="round" stroke-width="2"/>
</svg>
