<svg xmlns="http://www.w3.org/2000/svg" width="20" height="20" viewBox="0 0 20 20" fill="none">
  <path d="M2.5 12.0833V14.1667C2.5 15.738 2.5 16.5237 2.9882 17.0118 3.4763 17.5 4.262 17.5 5.8333 17.5 7.4047 17.5 8.1904 17.5 8.6785 17.0118 9.1667 16.5237 9.1667 15.738 9.1667 14.1667V12.0833" stroke="currentColor" stroke-linecap="round" stroke-linejoin="round" stroke-width="2"/>
  <path d="M1.6667 12.5L3.6035 10.6696C4.6637 9.6677 5.1938 9.1667 5.8333 9.1667 6.4729 9.1667 7.003 9.6677 8.0632 10.6696L10 12.5" stroke="currentColor" stroke-linecap="round" stroke-linejoin="round" stroke-width="2"/>
  <path d="M5.8333 15V17.5" stroke="currentColor" stroke-linecap="round" stroke-linejoin="round" stroke-width="2"/>
  <path d="M17.5 6.25V14.1667C17.5 15.738 17.5 16.5237 17.0118 17.0118 16.5237 17.5 15.738 17.5 14.1667 17.5H12.5M9.1667 8.3333V6.25" stroke="currentColor" stroke-linecap="round" stroke-linejoin="round" stroke-width="2"/>
  <path d="M8.3333 6.6667L11.0809 4.0359C12.1503 3.012 12.685 2.5 13.3333 2.5 13.9817 2.5 14.5163 3.012 15.5858 4.0359L18.3333 6.6667" stroke="currentColor" stroke-linecap="round" stroke-linejoin="round" stroke-width="2"/>
  <path d="M13.3333 8.0208V8.6458M12.7083 7.7083H13.9583V8.9583H12.7083V7.7083Z" stroke="currentColor" stroke-linecap="round" stroke-linejoin="round" stroke-width="2"/>
  <path d="M16.6667 2.5V5" stroke="currentColor" stroke-linecap="round" stroke-linejoin="round" stroke-width="2"/>
</svg>
