<svg xmlns="http://www.w3.org/2000/svg" width="20" height="20" viewBox="0 0 20 20" fill="none">
  <path d="M1.25 8.335L5.8333 3.335M5.8333 3.335L9.4258 7.254C9.9139 7.7865 10.158 8.0528 10.4788 8.1939 10.7994 8.335 11.1607 8.335 11.883 8.335H18.75L15.1575 4.4159C14.6694 3.8834 14.4253 3.6171 14.1046 3.4761 13.7839 3.335 13.4227 3.335 12.7003 3.335H5.8333Z" stroke="currentColor" stroke-linecap="round" stroke-linejoin="round" stroke-width="2"/>
  <path d="M9.1667 7.0836V16.6664H5.8333C4.262 16.6664 3.4763 16.6664 2.9882 16.1783 2.5 15.6901 2.5 14.9044 2.5 13.3331V7.0833" stroke="currentColor" stroke-linecap="round" stroke-linejoin="round" stroke-width="2"/>
  <path d="M9.1667 16.6664H14.1667C15.738 16.6664 16.5237 16.6664 17.0118 16.1783 17.5 15.6901 17.5 14.9044 17.5 13.3331V8.3333" stroke="currentColor" stroke-linecap="round" stroke-linejoin="round" stroke-width="2"/>
  <path d="M3.3333 5.8333V3.3333" stroke="currentColor" stroke-linecap="round" stroke-linejoin="round" stroke-width="2"/>
  <path d="M5.9375 9.375H5.8333M6.0417 9.375C6.0417 9.4901 5.9484 9.5833 5.8333 9.5833 5.7183 9.5833 5.625 9.4901 5.625 9.375 5.625 9.2599 5.7183 9.1667 5.8333 9.1667 5.9484 9.1667 6.0417 9.2599 6.0417 9.375Z" stroke="currentColor" stroke-linecap="round" stroke-linejoin="round" stroke-width="2"/>
  <path d="M5.8333 16.6667V13.3333" stroke="currentColor" stroke-linecap="round" stroke-linejoin="round" stroke-width="2"/>
  <path d="M12.5 11.6667L14.1667 11.6667" stroke="currentColor" stroke-linecap="round" stroke-linejoin="round" stroke-width="2"/>
</svg>
