<svg xmlns="http://www.w3.org/2000/svg" width="20" height="20" viewBox="0 0 20 20" fill="none">
  <path d="M14.9958 12.9167V17.9167M17.5 15.4125L12.5 15.4125" stroke="currentColor" stroke-linecap="round" stroke-linejoin="round" stroke-width="2"/>
  <path d="M10.8333 17.9167H8.3333C5.5835 17.9167 4.2085 17.9167 3.3543 17.0624 2.5 16.2081 2.5 14.8332 2.5 12.0833L2.5 9.9913C2.5 8.5902 2.5 7.8898 2.7966 7.2834 3.0932 6.677 3.6461 6.2469 4.752 5.3868L6.4187 4.0905C8.1391 2.7524 8.9992 2.0833 10 2.0833 11.0008 2.0833 11.8609 2.7524 13.5813 4.0905L15.248 5.3868C16.3539 6.2469 16.9068 6.677 17.2034 7.2834 17.5 7.8898 17.5 8.5902 17.5 9.9913V11.25" stroke="currentColor" stroke-linecap="round" stroke-linejoin="round" stroke-width="2"/>
  <path d="M7.5 17.9167V13.75C7.5 12.5715 7.5 11.9823 7.8661 11.6161 8.2322 11.25 8.8215 11.25 10 11.25 10.3184 11.25 10.5938 11.25 10.8333 11.2572" stroke="currentColor" stroke-linecap="round" stroke-linejoin="round" stroke-width="2"/>
</svg>
