<svg xmlns="http://www.w3.org/2000/svg" width="20" height="20" viewBox="0 0 20 20" fill="none">
  <path d="M3.3333 9.1667H16.6667V18.3333H3.3333V9.1667Z" stroke="currentColor" stroke-linejoin="round" stroke-width="2"/>
  <path d="M12.0833 18.3333V15.8333C12.0833 15.0477 12.0833 14.6548 11.8393 14.4108 11.5952 14.1667 11.2023 14.1667 10.4167 14.1667H9.5833C8.7977 14.1667 8.4048 14.1667 8.1607 14.4108 7.9167 14.6548 7.9167 15.0477 7.9167 15.8333V18.3333" stroke="currentColor" stroke-linejoin="round" stroke-width="2"/>
  <path d="M1.6667 8.1021C1.6667 7.6208 1.8913 7.235 2.3477 7.0825L9.1085 4.8231C9.8244 4.5838 10 4.1879 10 3.4884 10 2.8574 9.8967 1.5978 10.8868 1.6686 11.1198 1.6852 11.4027 1.9058 11.9683 2.3468L17.8658 6.9455C18.1984 7.2048 18.3333 7.5143 18.3333 7.9457 18.3333 8.7317 18.003 9.1667 17.2373 9.1667H2.6223C2.0082 9.1667 1.6667 8.7128 1.6667 8.1021Z" stroke="currentColor" stroke-linejoin="round" stroke-width="2"/>
  <path d="M2.5 18.3333H17.5" stroke="currentColor" stroke-linecap="round" stroke-linejoin="round" stroke-width="2"/>
  <path d="M5.8333 12.5H6.6667" stroke="currentColor" stroke-linecap="round" stroke-width="2"/>
  <path d="M14.1667 12.5L13.3333 12.5" stroke="currentColor" stroke-linecap="round" stroke-width="2"/>
  <path d="M4.1667 6.25L4.1667 2.5" stroke="currentColor" stroke-linecap="round" stroke-linejoin="round" stroke-width="2"/>
</svg>
