<svg xmlns="http://www.w3.org/2000/svg" width="20" height="20" viewBox="0 0 20 20" fill="none">
  <path d="M8.3326 8.6246V10.2913" stroke="currentColor" stroke-linecap="round" stroke-linejoin="round" stroke-width="2"/>
  <path d="M11.6659 8.6246V10.2913" stroke="currentColor" stroke-linecap="round" stroke-linejoin="round" stroke-width="2"/>
  <path d="M11.5271 10.2913H8.4715C8.3425 10.2913 8.278 10.2913 8.2237 10.296 7.6194 10.3488 7.1403 10.828 7.0874 11.4323 7.0826 11.4867 7.0826 11.5512 7.0826 11.6802 7.0826 11.9381 7.0826 12.0671 7.0921 12.1758 7.1979 13.3844 8.1561 14.3427 9.3648 14.4484 9.4735 14.4579 9.6024 14.4579 9.8604 14.4579H10.1382C10.3962 14.4579 10.5251 14.4579 10.6338 14.4484 11.8425 14.3427 12.8007 13.3844 12.9064 12.1758 12.9159 12.0671 12.9159 11.9381 12.9159 11.6802 12.9159 11.5512 12.9159 11.4867 12.9112 11.4323 12.8583 10.828 12.3792 10.3488 11.7749 10.296 11.7205 10.2913 11.6561 10.2913 11.5271 10.2913Z" stroke="currentColor" stroke-linecap="round" stroke-linejoin="round" stroke-width="2"/>
  <path d="M9.9992 14.4579V17.7913" stroke="currentColor" stroke-linecap="round" stroke-linejoin="round" stroke-width="2"/>
  <path d="M13.3326 17.7913C14.8903 17.7913 15.6692 17.7913 16.2492 17.4563 16.6293 17.2369 16.9449 16.9213 17.1643 16.5413 17.4992 15.9611 17.4992 15.1822 17.4992 13.6246V9.82C17.4992 8.6191 17.4992 8.0187 17.2451 7.4989 16.9908 6.9791 16.5169 6.6105 15.569 5.8732L13.069 3.9288C11.5943 2.7819 10.8571 2.2084 9.9992 2.2084 9.1415 2.2084 8.4042 2.7819 6.9296 3.9288L4.4296 5.8732C3.4817 6.6105 3.0077 6.9791 2.7535 7.4989 2.4993 8.0187 2.4993 8.6191 2.4993 9.82V13.6246C2.4993 15.1822 2.4993 15.9611 2.8342 16.5413 3.0536 16.9213 3.3692 17.2369 3.7493 17.4563 4.3294 17.7913 5.1083 17.7913 6.666 17.7913" stroke="currentColor" stroke-linecap="round" stroke-linejoin="round" stroke-width="2"/>
</svg>
