<svg xmlns="http://www.w3.org/2000/svg" width="20" height="20" viewBox="0 0 20 20" fill="none">
  <path d="M16.25 11.6667V8.8808C16.25 8.1995 16.25 7.8588 16.1232 7.5526 15.9962 7.2463 15.7554 7.0054 15.2737 6.5237L11.3266 2.5766C10.9108 2.1608 10.703 1.953 10.4454 1.8298 10.3918 1.8042 10.337 1.7814 10.281 1.7617 10.0117 1.6667 9.7178 1.6667 9.1298 1.6667 6.4257 1.6667 5.0736 1.6667 4.1578 2.4051 3.9728 2.5542 3.8042 2.7228 3.6551 2.9078 2.9167 3.8236 2.9167 5.1757 2.9167 7.8799V11.6667M10.4167 2.0833V2.5C10.4167 4.857 10.4167 6.0355 11.1489 6.7678 11.8812 7.5 13.0597 7.5 15.4167 7.5H15.8333" stroke="currentColor" stroke-linecap="round" stroke-linejoin="round" stroke-width="2"/>
  <path d="M4.5833 14.1667V16.25M4.5833 16.25V18.3333M4.5833 16.25H2.0833M2.0833 14.1667V16.25M2.0833 16.25V18.3333M7.5 14.1667V18.3333M7.5 14.1667H6.25M7.5 14.1667H8.75M10.4167 18.3333V14.1667L12.0833 16.25 13.75 14.1667V18.3333M15.8333 14.1667V18.3333H17.9167" stroke="currentColor" stroke-linecap="round" stroke-linejoin="round" stroke-width="2"/>
</svg>
