<svg xmlns="http://www.w3.org/2000/svg" width="20" height="20" viewBox="0 0 20 20" fill="none">
  <path d="M13.9738 2.5H6.8596C5.0563 2.5 4.1547 2.5 3.6596 3.0907 3.1645 3.6815 3.3081 4.586 3.5952 6.395L4.7408 13.6126C4.9882 15.1713 5.3467 15.6384 6.8182 16.2136L9.2297 17.1561C9.8163 17.3853 10.1097 17.5 10.4167 17.5 10.7237 17.5 11.017 17.3853 11.6037 17.1561L14.0152 16.2136C15.4867 15.6384 15.8451 15.1713 16.0925 13.6126L17.2381 6.395C17.5252 4.586 17.6688 3.6815 17.1738 3.0907 16.6787 2.5 15.777 2.5 13.9738 2.5Z" stroke="currentColor" stroke-linecap="round" stroke-linejoin="round" stroke-width="2"/>
  <path d="M12.9167 6.6667H8.7724C8.0157 6.6667 7.8633 6.8242 7.9312 7.5773L8.082 9.2498C8.1393 9.885 8.2847 10.0117 8.9233 10.0117H11.5526C12.3233 10.0117 12.4766 10.173 12.3922 10.9387L12.2511 12.2187C12.1944 12.7336 12.1783 12.7534 11.6829 12.9198L10.6543 13.2656C10.3853 13.3559 10.3804 13.3559 10.1114 13.2656L8.9668 12.8809C8.6589 12.7774 8.5557 12.6515 8.5006 12.3431" stroke="currentColor" stroke-linecap="round" stroke-linejoin="round" stroke-width="2"/>
</svg>
