<svg xmlns="http://www.w3.org/2000/svg" width="20" height="20" viewBox="0 0 20 20" fill="none">
  <path d="M5 10H15L16.6667 18.3333H3.3333L5 10Z" stroke="currentColor" stroke-linejoin="round" stroke-width="2"/>
  <path d="M7.5 18.3333L8.0654 15.584C8.1936 14.9602 8.2578 14.6483 8.4882 14.4646 8.9686 14.0816 10.9961 14.0534 11.5118 14.4646 11.7423 14.6483 11.8063 14.9602 11.9347 15.584L12.5 18.3333" stroke="currentColor" stroke-linecap="round" stroke-linejoin="round" stroke-width="2"/>
  <path d="M10 2.6667L4.6204 7.0319C3.0979 8.2673 2.3366 8.885 2.5294 9.4425 2.7222 10 3.6971 10 5.6469 10H14.3532C16.3029 10 17.2778 10 17.4706 9.4425 17.6634 8.885 16.9022 8.2673 15.3796 7.0319L10 2.6667ZM10 2.6667L11.2324 1.6667M10 2.6667L8.7676 1.6667" stroke="currentColor" stroke-linecap="round" stroke-linejoin="round" stroke-width="2"/>
  <path d="M10 10L10 7.5" stroke="currentColor" stroke-linecap="round" stroke-linejoin="round" stroke-width="2"/>
  <path d="M6.6667 10L6.6667 8.75" stroke="currentColor" stroke-linecap="round" stroke-linejoin="round" stroke-width="2"/>
  <path d="M13.3333 10L13.3333 8.75" stroke="currentColor" stroke-linecap="round" stroke-linejoin="round" stroke-width="2"/>
  <path d="M1.6667 18.3333H18.3333" stroke="currentColor" stroke-linecap="round" stroke-linejoin="round" stroke-width="2"/>
</svg>
