<svg xmlns="http://www.w3.org/2000/svg" width="20" height="20" viewBox="0 0 20 20" fill="none">
  <path d="M7.0742 7.4999C5.3733 7.4999 4.4047 9.5077 5.4032 10.8333H15.4288C16.3322 9.6341 15.6444 7.8127 14.1408 7.5348 14.0166 7.5119 13.8887 7.4999 13.7578 7.4999 13.0746 7.4999 12.468 7.8271 12.0869 8.333M14.1408 7.5348C14.6351 4.3625 11.1379 5.1904 10.5642 3.2689 10.4105 2.7541 10.5359 2.1425 11.2515 1.6667 9.1452 1.6667 7.689 2.9638 7.9762 4.3123M7.9762 4.3123C8.0876 4.8359 8.4618 5.3671 9.1628 5.8332M7.9762 4.3123C6.0985 5.0543 6.3329 7.8877 8.3274 8.2915" stroke="currentColor" stroke-linecap="round" stroke-linejoin="round" stroke-width="2"/>
  <path d="M6.5033 15.7231L5.4167 10.8333H15.4167L14.3301 15.7231C14.052 16.9745 13.9129 17.6002 13.4559 17.9668 12.9989 18.3333 12.358 18.3333 11.0761 18.3333H9.7573C8.4753 18.3333 7.8344 18.3333 7.3774 17.9668 6.9204 17.6002 6.7814 16.9745 6.5033 15.7231Z" stroke="currentColor" stroke-linecap="round" stroke-linejoin="round" stroke-width="2"/>
</svg>
