<svg xmlns="http://www.w3.org/2000/svg" width="20" height="20" viewBox="0 0 20 20" fill="none">
  <path d="M2.5 14.583C2.5 13.4126 2.5 12.8274 2.7809 12.407 2.9025 12.2251 3.0587 12.0688 3.2407 11.9472 3.6611 11.6663 4.2463 11.6663 5.4167 11.6663 6.5871 11.6663 7.1722 11.6663 7.5926 11.9472 7.7746 12.0688 7.9309 12.2251 8.0525 12.407 8.3333 12.8274 8.3333 13.4126 8.3333 14.583 8.3333 15.7533 8.3333 16.3386 8.0525 16.7589 7.9309 16.9409 7.7746 17.0972 7.5926 17.2188 7.1722 17.4997 6.5871 17.4997 5.4167 17.4997 4.2463 17.4997 3.6611 17.4997 3.2407 17.2188 3.0587 17.0972 2.9025 16.9409 2.7809 16.7589 2.5 16.3386 2.5 15.7533 2.5 14.583Z" stroke="currentColor" stroke-linejoin="round" stroke-width="2"/>
  <path d="M11.8358 15.3988C10.9723 14.5353 10.5406 14.1036 10.4448 13.5843 10.4072 13.3807 10.4072 13.1719 10.4448 12.9683 10.5406 12.449 10.9723 12.0173 11.8358 11.1538 12.6993 10.2903 13.1311 9.8586 13.6503 9.7628 13.8539 9.7252 14.0627 9.7252 14.2663 9.7628 14.7856 9.8586 15.2173 10.2903 16.0808 11.1538 16.9443 12.0173 17.3761 12.449 17.4718 12.9683 17.5094 13.1719 17.5094 13.3807 17.4718 13.5843 17.3761 14.1036 16.9443 14.5353 16.0808 15.3988 15.2173 16.2623 14.7856 16.694 14.2663 16.7898 14.0627 16.8273 13.8539 16.8273 13.6503 16.7898 13.1311 16.694 12.6993 16.2623 11.8358 15.3988Z" stroke="currentColor" stroke-linejoin="round" stroke-width="2"/>
  <path d="M6.3615 4.8126C6.7729 3.6822 6.9787 3.1169 7.3992 2.8113 7.5759 2.6829 7.7756 2.5898 7.9876 2.537 8.492 2.4113 9.0572 2.617 10.1877 3.0284 11.3182 3.4399 11.8834 3.6456 12.189 4.0662 12.3173 4.2429 12.4105 4.4426 12.4633 4.6545 12.5891 5.1589 12.3833 5.7242 11.9718 6.8547 11.5604 7.9851 11.3547 8.5503 10.9342 8.8559 10.7574 8.9843 10.5577 9.0775 10.3458 9.1303 9.8413 9.256 9.2762 9.0503 8.1457 8.6388 7.0152 8.2274 6.45 8.0217 6.1444 7.6011 6.016 7.4244 5.9228 7.2247 5.87 7.0127 5.7443 6.5083 5.95 5.9431 6.3615 4.8126Z" stroke="currentColor" stroke-linejoin="round" stroke-width="2"/>
</svg>
