<svg xmlns="http://www.w3.org/2000/svg" width="20" height="20" viewBox="0 0 20 20" fill="none">
  <path d="M6.25 10L6.9391 12.2464C8.1839 16.3043 8.8063 18.3333 10 18.3333 11.1937 18.3333 11.8161 16.3043 13.0609 12.2464L13.75 10" stroke="currentColor" stroke-linecap="round" stroke-linejoin="round" stroke-width="2"/>
  <path d="M10 7.2222C10 7.7195 10.1372 8.1863 10.3776 8.5901M10.3776 8.5901C9.7644 9.4415 8.7354 10 7.5694 10 5.6901 10 4.1667 8.5491 4.1667 6.7593 4.1667 5.1898 5.3381 3.8809 6.8937 3.5824 7.4256 2.4532 8.6163 1.6667 10 1.6667 11.7266 1.6667 13.1528 2.8913 13.3732 4.4783M10.3776 8.5901C10.8787 9.4319 11.828 10 12.9167 10 14.5275 10 15.8333 8.7563 15.8333 7.2222 15.8333 5.836 14.7672 4.687 13.3732 4.4783M13.0753 6.2963C13.2852 5.8753 13.4028 5.4044 13.4028 4.9074 13.4028 4.7619 13.3928 4.6187 13.3732 4.4783" stroke="currentColor" stroke-linecap="round" stroke-linejoin="round" stroke-width="2"/>
</svg>
