<svg xmlns="http://www.w3.org/2000/svg" width="20" height="20" viewBox="0 0 20 20" fill="none">
  <path d="M10 10.1278C12.0223 10.1278 13.9245 9.8405 15.5828 9.335 16.1061 9.1755 16.3677 9.0958 16.5399 9.2485 16.7122 9.4012 16.6793 9.6446 16.6136 10.1314 16.1866 13.2918 13.368 15.8333 10 15.8333 6.632 15.8333 3.8134 13.2918 3.3865 10.1314 3.3207 9.6446 3.2878 9.4012 3.4601 9.2485 3.6323 9.0958 3.8939 9.1755 4.4171 9.335 6.0755 9.8405 7.9777 10.1278 10 10.1278Z" stroke="currentColor" stroke-linejoin="round" stroke-width="2"/>
  <path d="M11.25 2.9167C11.25 3.607 10.6903 4.1667 10 4.1667 9.3097 4.1667 8.75 3.607 8.75 2.9167 8.75 2.2263 9.3097 1.6667 10 1.6667 10.6903 1.6667 11.25 2.2263 11.25 2.9167Z" stroke="currentColor" stroke-width="2"/>
  <path d="M10 15.8333V18.3333H7.5 12.5" stroke="currentColor" stroke-linecap="round" stroke-linejoin="round" stroke-width="2"/>
  <path d="M5.9064 4.1667C5.5138 5.3847 6.7535 6.343 8.4139 6.0236 9.8512 5.7472 9.5078 6.2073 11.2885 6.5765 13.373 7.0087 14.1667 5.7907 14.1667 4.9787" stroke="currentColor" stroke-linecap="round" stroke-linejoin="round" stroke-width="2"/>
  <path d="M4.163 7.5244C4.4127 6.0616 5.6258 3.2432 8.7474 2.494" stroke="currentColor" stroke-linecap="round" stroke-linejoin="round" stroke-width="2"/>
  <path d="M15.8524 7.5008C15.5815 6.2508 14.3763 3.2304 11.2833 2.5099" stroke="currentColor" stroke-linecap="round" stroke-linejoin="round" stroke-width="2"/>
</svg>
