<svg xmlns="http://www.w3.org/2000/svg" width="20" height="20" viewBox="0 0 20 20" fill="none">
  <path d="M10 1.6667C7.5029 1.6667 5.2643 3.9574 5.9633 6.4861 6.1576 7.1892 5 7.4693 5 8.2275 5 10.4853 8.75 8.1976 8.75 10.6557 8.75 12.0037 10.8333 12.0037 10.8333 10.6557 10.8333 8.0226 15 10.687 15 8.2275 15 7.4693 13.8423 7.1892 14.0367 6.4861 14.7357 3.9574 12.4971 1.6667 10 1.6667Z" stroke="currentColor" stroke-linejoin="round" stroke-width="2"/>
  <path d="M6.25 9.1667L6.9391 11.6377C8.1839 16.1014 8.8063 18.3333 10 18.3333 11.1937 18.3333 11.8161 16.1014 13.0609 11.6377L13.75 9.1667" stroke="currentColor" stroke-linejoin="round" stroke-width="2"/>
</svg>
