<svg xmlns="http://www.w3.org/2000/svg" width="20" height="20" viewBox="0 0 20 20" fill="none">
  <path d="M12.1951 13.764L18.3333 2.5M14.6229 2.5L10.3115 10.6554C9.7826 11.6559 9.4547 11.7908 8.3623 11.4575 6.9674 11.0318 4.1785 9.5572 2.7896 10.2019 1.4004 10.8468 1.2834 15.1484 2.532 16.0301 3.9302 17.0173 8.0723 16.6614 9.8301 16.2586" stroke="currentColor" stroke-linecap="round" stroke-linejoin="round" stroke-width="2"/>
  <path d="M6.6667 10.8333L5 16.6667" stroke="currentColor" stroke-linejoin="round" stroke-width="2"/>
  <path d="M10 15.8333C10 14.4544 10.2878 14.1667 11.6667 14.1667H15C16.3789 14.1667 16.6667 14.4544 16.6667 15.8333 16.6667 17.2123 16.3789 17.5 15 17.5H11.6667C10.2878 17.5 10 17.2123 10 15.8333Z" stroke="currentColor" stroke-linecap="round" stroke-linejoin="round" stroke-width="2"/>
</svg>
