<svg xmlns="http://www.w3.org/2000/svg" width="20" height="20" viewBox="0 0 20 20" fill="none">
  <path d="M7.138 11.9407C6.741 12.1907 6.6048 12.6621 6.5755 13.1068 6.5389 13.6634 6.5205 13.9417 6.4004 14.0542 6.2802 14.1667 6.0533 14.1667 5.5994 14.1667H4.0838C3.7019 14.1667 3.511 14.1667 3.3886 14.0425 3.2662 13.9184 3.269 13.7236 3.2745 13.3339 3.2825 12.7713 3.237 12.1057 2.9123 11.25 2.8825 11.1712 2.8502 11.0908 2.8154 11.0088 2.0449 9.1921 2.8667 7.664 3.3632 6.8491 3.7605 6.1971 4 5.2222 3.8769 4.54 5.6437 2.4347 8.5685 2.3612 9.8127 2.5875 9.9497 3.9118 10.8399 7.2396 12.4664 8.6828 14.0929 10.1258 17.5 10.7667 17.5 12.0613 17.5 13.2453 16.9762 14.1667 15.6878 14.1667H11.7156C10.8658 14.1667 10.4408 14.1667 10.0465 14.0313 9.6521 13.896 9.3167 13.6352 8.6459 13.1134L7.1528 11.9522C7.1478 11.9482 7.1429 11.9444 7.138 11.9407 6.2583 11.2565 6.2331 11.25 5.1063 11.25H2.9123" stroke="currentColor" stroke-linecap="round" stroke-linejoin="round" stroke-width="2"/>
  <path d="M11.25 7.9167L10.8333 8.3333" stroke="currentColor" stroke-linecap="round" stroke-linejoin="round" stroke-width="2"/>
  <path d="M10.4167 5.8333L9.1667 6.25" stroke="currentColor" stroke-linecap="round" stroke-linejoin="round" stroke-width="2"/>
  <path d="M16.6911 14.1667L17.1918 14.8333C18.066 15.9969 18.503 16.5787 18.2723 17.0393 18.0416 17.5 17.3132 17.5 15.8563 17.5H1.6667" stroke="currentColor" stroke-linecap="round" stroke-width="2"/>
  <path d="M12.5 14.1667V17.5M5 14.1667V17.5" stroke="currentColor" stroke-width="2"/>
</svg>
