<svg xmlns="http://www.w3.org/2000/svg" width="20" height="20" viewBox="0 0 20 20" fill="none">
  <path d="M10 1.6667C5.3976 1.6667 1.6667 5.3976 1.6667 10 1.6667 14.6023 5.3976 18.3333 10 18.3333 14.6023 18.3333 18.3333 14.6023 18.3333 10 18.3333 5.3976 14.6023 1.6667 10 1.6667Z" stroke="currentColor" stroke-linecap="round" stroke-linejoin="round" stroke-width="2"/>
  <path d="M5 7.9165V12.0832M10.4167 11.2498C10.4167 11.71 10.0436 12.0831 9.5833 12.0831H7.9167C7.4564 12.0831 7.0833 11.71 7.0833 11.2498V8.7498C7.0833 8.2896 7.4564 7.9164 7.9167 7.9165L9.5834 7.9165C10.0436 7.9165 10.4167 8.2896 10.4167 8.7498M12.5 9.5832V10.4165C12.5 11.337 13.2462 12.0832 14.1667 12.0832 15.0872 12.0832 15.8333 11.337 15.8333 10.4165V9.5832C15.8333 8.6627 15.0872 7.9165 14.1667 7.9165 13.2462 7.9165 12.5 8.6627 12.5 9.5832Z" stroke="currentColor" stroke-linecap="round" stroke-linejoin="round" stroke-width="2"/>
</svg>
