<svg xmlns="http://www.w3.org/2000/svg" width="20" height="20" viewBox="0 0 20 20" fill="none">
  <path d="M3.4826 13.2766L4.3857 16.0901C4.7329 17.1718 4.9065 17.7125 5.3371 18.0229 5.7676 18.3334 6.3441 18.3334 7.4971 18.3334H12.5029C13.6559 18.3334 14.2323 18.3334 14.6629 18.0229 15.0935 17.7125 15.2671 17.1718 15.6143 16.0901L16.5174 13.2766C16.992 11.7981 16.3038 10.1996 14.8942 9.5063 15.5684 9.0917 15.9055 8.8844 16.0054 8.7264 16.2606 8.323 16.1055 7.791 15.6718 7.5819 15.5019 7.5 15.1044 7.5 14.3093 7.5 13.5142 7.5001 12.4279 7.7804 13.1588 10.1371 14.1327 13.2766 13.2587 14.2325 12.0188 14.374 10.779 14.5154 9.1561 13.3266 10.2808 11.2528 11.5648 8.8856 9.7954 7.5001 8.856 7.5001L5.6907 7.5C4.8956 7.5 4.4981 7.5 4.3282 7.5819 3.8945 7.791 3.7395 8.323 3.9946 8.7264 4.0945 8.8844 4.4316 9.0917 5.1058 9.5063 3.6962 10.1996 3.008 11.7981 3.4826 13.2766Z" stroke="currentColor" stroke-linecap="round" stroke-linejoin="round" stroke-width="2"/>
  <path d="M11.6656 2.5217C11.6656 1.8134 10.6899 1.6667 10 1.6667 9.3101 1.6667 8.3344 1.8134 8.3344 2.5217 8.3344 2.9351 8.6668 3.4484 9.0807 3.8042H6.6947C5.6731 3.8042 4.5461 4.8595 4.1667 5.8333H15.8333C15.4539 4.8595 14.3269 3.8042 13.3053 3.8042H10.9193C11.3332 3.4484 11.6656 2.9351 11.6656 2.5217Z" stroke="currentColor" stroke-linecap="round" stroke-linejoin="round" stroke-width="2"/>
</svg>
