<svg xmlns="http://www.w3.org/2000/svg" width="20" height="20" viewBox="0 0 20 20" fill="none">
  <path d="M12.5 3.3333C13.275 3.3333 13.6625 3.3333 13.9804 3.4185 14.8431 3.6497 15.517 4.3236 15.7482 5.1863 15.8333 5.5042 15.8333 5.8917 15.8333 6.6667V13.3333C15.8333 15.6903 15.8333 16.8688 15.1011 17.6011 14.3688 18.3333 13.1903 18.3333 10.8333 18.3333H9.1667C6.8096 18.3333 5.6311 18.3333 4.8989 17.6011 4.1667 16.8688 4.1667 15.6903 4.1667 13.3333V8.3333C4.1667 5.9763 4.1667 4.7978 4.8989 4.0656 5.6311 3.3333 6.8096 3.3333 9.1667 3.3333" stroke="currentColor" stroke-linecap="round" stroke-linejoin="round" stroke-width="2"/>
  <path d="M8.3333 6.6667H11.6667" stroke="currentColor" stroke-linecap="round" stroke-linejoin="round" stroke-width="2"/>
  <path d="M10 6.6667L13.3333 1.6667M7.7778 3.3333L6.6667 1.6667" stroke="currentColor" stroke-linecap="round" stroke-linejoin="round" stroke-width="2"/>
  <path d="M12.0833 12.0833C12.0833 10.9328 11.1506 10 10 10 8.8494 10 7.9167 10.9328 7.9167 12.0833 7.9167 13.2339 8.8494 14.1667 10 14.1667 11.1506 14.1667 12.0833 13.2339 12.0833 12.0833Z" stroke="currentColor" stroke-linecap="round" stroke-linejoin="round" stroke-width="2"/>
  <path d="M5.8539 17.9167C6.0629 15.8111 7.8394 14.1667 10 14.1667 12.1605 14.1667 13.937 15.8111 14.1461 17.9167" stroke="currentColor" stroke-linecap="round" stroke-linejoin="round" stroke-width="2"/>
</svg>
