<svg xmlns="http://www.w3.org/2000/svg" width="20" height="20" viewBox="0 0 20 20" fill="none">
  <path d="M5.0745 12.4993C4.7591 11.7905 4.5833 11.0019 4.5833 10.1709 4.5833 7.0846 7.0085 4.5827 10 4.5827 12.9916 4.5827 15.4167 7.0846 15.4167 10.1709 15.4167 11.0019 15.2408 11.7905 14.9255 12.4993" stroke="currentColor" stroke-linecap="round" stroke-width="2"/>
  <path d="M10 1.666V2.4993" stroke="currentColor" stroke-linecap="round" stroke-linejoin="round" stroke-width="2"/>
  <path d="M18.3333 9.9993H17.5" stroke="currentColor" stroke-linecap="round" stroke-linejoin="round" stroke-width="2"/>
  <path d="M2.5 9.9993H1.6667" stroke="currentColor" stroke-linecap="round" stroke-linejoin="round" stroke-width="2"/>
  <path d="M15.892 4.1066L15.3027 4.6959" stroke="currentColor" stroke-linecap="round" stroke-linejoin="round" stroke-width="2"/>
  <path d="M4.6973 4.6967L4.1081 4.1074" stroke="currentColor" stroke-linecap="round" stroke-linejoin="round" stroke-width="2"/>
  <path d="M12.0975 16.088C12.9395 15.8157 13.2772 15.045 13.3722 14.2698 13.4005 14.0383 13.21 13.8462 12.9767 13.8462L7.064 13.8463C6.8227 13.8463 6.6289 14.0512 6.6577 14.2908 6.7508 15.0644 6.9856 15.6296 7.8779 16.088M12.0975 16.088C12.0975 16.088 8.0248 16.088 7.8779 16.088M12.0975 16.088C11.9962 17.7088 11.5282 18.3508 10.0057 18.3328 8.3772 18.3628 8.0025 17.5694 7.8779 16.088" stroke="currentColor" stroke-linecap="round" stroke-linejoin="round" stroke-width="2"/>
</svg>
