<svg xmlns="http://www.w3.org/2000/svg" width="20" height="20" viewBox="0 0 20 20" fill="none">
  <path d="M13.75 14.1667L14.5824 15M14.5824 15L15.4167 15.8333M14.5824 15L15.4167 14.1667M14.5824 15L13.75 15.8333M17.9167 15C17.9167 16.8409 16.4243 18.3333 14.5833 18.3333 12.7424 18.3333 11.25 16.8409 11.25 15 11.25 13.1591 12.7424 11.6667 14.5833 11.6667 16.4243 11.6667 17.9167 13.1591 17.9167 15Z" stroke="currentColor" stroke-linecap="round" stroke-width="2"/>
  <path d="M5.7942 14.5723C5.558 14.824 5.5706 15.2196 5.8223 15.4558 6.074 15.692 6.4696 15.6794 6.7058 15.4277L5.7942 14.5723ZM8.8159 14.3715C9.1592 14.3351 9.4079 14.0273 9.3715 13.6841 9.3351 13.3408 9.0273 13.0921 8.6841 13.1285L8.8159 14.3715ZM2.9376 17.524L2.5078 17.9778 2.9376 17.524ZM15.3958 4.1426L14.9659 4.5964 15.3958 4.1426ZM2.9376 4.1426L3.3674 4.5964 2.9376 4.1426ZM7.0857 3.9593C7.4308 3.958 7.7096 3.6772 7.7083 3.332 7.707 2.9868 7.4262 2.708 7.081 2.7093L7.0857 3.9593ZM11.2523 2.7093C10.9072 2.708 10.6263 2.9868 10.625 3.332 10.6238 3.6772 10.9025 3.958 11.2477 3.9593L11.2523 2.7093ZM15.625 10C15.625 10.3452 15.9048 10.625 16.25 10.625 16.5952 10.625 16.875 10.3452 16.875 10H15.625ZM8.75 18.9583C9.0952 18.9583 9.375 18.6785 9.375 18.3333 9.375 17.9882 9.0952 17.7083 8.75 17.7083V18.9583ZM7.4742 4.8576L7.7986 4.3234 7.4742 4.8576ZM7.2407 3.3265L6.6318 3.1856V3.1856L7.2407 3.3265ZM7.135 4.4819L6.5658 4.7401 7.135 4.4819ZM11.0926 3.3265L11.7015 3.1856 11.0926 3.3265ZM11.1983 4.4819L11.7675 4.7401 11.1983 4.4819ZM10.8592 4.8576L11.1836 5.3918 10.8592 4.8576ZM9.9238 1.7056L9.7836 2.3147 9.9238 1.7056ZM11.0232 3.0264L10.4143 3.1672 11.0232 3.0264ZM10.8265 2.3667L10.2775 2.6654 10.8265 2.3667ZM8.4095 1.7056L8.5498 2.3147 8.4095 1.7056ZM7.3101 3.0264L7.9191 3.1672V3.1672L7.3101 3.0264ZM7.5068 2.3667L8.0559 2.6654 7.5068 2.3667ZM10.2083 10C10.2083 10.5847 9.7444 11.0417 9.1929 11.0417V12.2917C10.4534 12.2917 11.4583 11.2563 11.4583 10H10.2083ZM9.1929 11.0417C8.6415 11.0417 8.1776 10.5847 8.1776 10H6.9276C6.9276 11.2563 7.9325 12.2917 9.1929 12.2917V11.0417ZM8.1776 10C8.1776 9.4153 8.6415 8.9583 9.1929 8.9583V7.7083C7.9325 7.7083 6.9276 8.7438 6.9276 10H8.1776ZM9.1929 8.9583C9.7444 8.9583 10.2083 9.4153 10.2083 10H11.4583C11.4583 8.7438 10.4534 7.7083 9.1929 7.7083V8.9583ZM6.7058 15.4277C7.2708 14.8256 8.0193 14.456 8.8159 14.3715L8.6841 13.1285C7.5874 13.2448 6.5628 13.7533 5.7942 14.5723L6.7058 15.4277ZM2.7083 12.807V8.8597H1.4583V12.807H2.7083ZM7.9167 17.7083C6.525 17.7083 5.5408 17.7072 4.7953 17.6122 4.0644 17.5191 3.6581 17.3456 3.3674 17.0703L2.5078 17.9778C3.0714 18.5117 3.7797 18.7429 4.6373 18.8522 5.4803 18.9595 6.5585 18.9583 7.9167 18.9583V17.7083ZM1.4583 12.807C1.4583 14.0909 1.4569 15.1203 1.5713 15.9268 1.6888 16.7549 1.9393 17.4393 2.5078 17.9778L3.3674 17.0703C3.0816 16.7995 2.905 16.4279 2.8089 15.7511 2.7098 15.0528 2.7083 14.1282 2.7083 12.807H1.4583ZM16.875 8.8597C16.875 7.5757 16.8765 6.5464 16.762 5.7399 16.6445 4.9118 16.394 4.2274 15.8256 3.6889L14.9659 4.5964C15.2517 4.8672 15.4283 5.2388 15.5244 5.9155 15.6235 6.6139 15.625 7.5385 15.625 8.8597H16.875ZM2.7083 8.8597C2.7083 7.5385 2.7098 6.6139 2.8089 5.9155 2.905 5.2388 3.0816 4.8672 3.3674 4.5964L2.5078 3.6889C1.9393 4.2274 1.6888 4.9118 1.5713 5.7399 1.4569 6.5464 1.4583 7.5757 1.4583 8.8597H2.7083ZM7.081 2.7093C5.9858 2.7134 5.0908 2.7336 4.3678 2.8539 3.6294 2.9766 3.0108 3.2124 2.5078 3.6889L3.3674 4.5964C3.6277 4.3498 3.98 4.1855 4.5728 4.0869 5.181 3.9858 5.9772 3.9634 7.0857 3.9593L7.081 2.7093ZM11.2477 3.9593C12.3561 3.9634 13.1523 3.9858 13.7605 4.0869 14.3533 4.1855 14.7057 4.3498 14.9659 4.5964L15.8256 3.6889C15.3226 3.2124 14.7039 2.9766 13.9656 2.8539 13.2426 2.7336 12.3475 2.7134 11.2523 2.7093L11.2477 3.9593ZM15.625 8.8597V10H16.875V8.8597H15.625ZM8.75 17.7083H7.9167V18.9583H8.75V17.7083ZM10.4143 3.1672L10.4837 3.4673 11.7015 3.1856 11.6322 2.8855 10.4143 3.1672ZM9.5818 4.375H8.7516V5.625H9.5818V4.375ZM7.8496 3.4673L7.9191 3.1672 6.7012 2.8855 6.6318 3.1856 7.8496 3.4673ZM8.7516 4.375C8.3925 4.375 8.1641 4.3744 7.9946 4.3596 7.9143 4.3525 7.8645 4.3435 7.8333 4.3353 7.8185 4.3315 7.8095 4.3282 7.8046 4.3262 7.8021 4.3252 7.8006 4.3244 7.7997 4.324 7.7993 4.3238 7.799 4.3236 7.7989 4.3235 7.7987 4.3234 7.7986 4.3234 7.7986 4.3234L7.1497 5.3918C7.3874 5.5361 7.6449 5.5837 7.8855 5.6048 8.1223 5.6256 8.4153 5.625 8.7516 5.625V4.375ZM6.6318 3.1856C6.564 3.4785 6.5011 3.7468 6.4741 3.9707 6.446 4.2031 6.4441 4.4717 6.5658 4.7401L7.7041 4.2237C7.7189 4.2562 7.699 4.2537 7.715 4.1206 7.7321 3.979 7.7756 3.7875 7.8496 3.4673L6.6318 3.1856ZM7.7986 4.3234C7.7475 4.2923 7.7183 4.2549 7.7041 4.2237L6.5658 4.7401C6.6902 5.0143 6.8971 5.2384 7.1497 5.3918L7.7986 4.3234ZM10.4837 3.4673C10.5578 3.7875 10.6012 3.979 10.6183 4.1206 10.6343 4.2537 10.6144 4.2562 10.6292 4.2237L11.7675 4.7401C11.8893 4.4717 11.8873 4.2031 11.8592 3.9707 11.8323 3.7468 11.7693 3.4785 11.7015 3.1856L10.4837 3.4673ZM9.5818 5.625C9.918 5.625 10.211 5.6256 10.4478 5.6048 10.6884 5.5837 10.946 5.5361 11.1836 5.3918L10.5348 4.3234C10.5348 4.3234 10.5347 4.3234 10.5345 4.3235 10.5343 4.3236 10.534 4.3238 10.5336 4.324 10.5328 4.3244 10.5312 4.3252 10.5288 4.3262 10.5238 4.3282 10.5148 4.3315 10.5 4.3353 10.4688 4.3435 10.419 4.3525 10.3387 4.3596 10.1692 4.3744 9.9408 4.375 9.5818 4.375V5.625ZM10.6292 4.2237C10.615 4.2549 10.5858 4.2923 10.5348 4.3234L11.1836 5.3918C11.4362 5.2384 11.6432 5.0143 11.7675 4.7401L10.6292 4.2237ZM9.1667 2.2917C9.5914 2.2917 9.7008 2.2956 9.7836 2.3147L10.064 1.0965C9.8087 1.0378 9.526 1.0417 9.1667 1.0417V2.2917ZM11.6322 2.8855C11.5608 2.577 11.5029 2.3022 11.3755 2.068L10.2775 2.6654C10.3037 2.7135 10.3258 2.7843 10.4143 3.1672L11.6322 2.8855ZM9.7836 2.3147C10.0188 2.3688 10.1915 2.5074 10.2775 2.6654L11.3755 2.068C11.1038 1.5684 10.6167 1.2237 10.064 1.0965L9.7836 2.3147ZM9.1667 1.0417C8.8073 1.0417 8.5247 1.0378 8.2694 1.0965L8.5498 2.3147C8.6326 2.2956 8.7419 2.2917 9.1667 2.2917V1.0417ZM7.9191 3.1672C8.0076 2.7843 8.0297 2.7135 8.0559 2.6654L6.9578 2.068C6.8304 2.3022 6.7726 2.577 6.7012 2.8855L7.9191 3.1672ZM8.2694 1.0965C7.7167 1.2237 7.2296 1.5684 6.9578 2.068L8.0559 2.6654C8.1418 2.5074 8.3146 2.3688 8.5498 2.3147L8.2694 1.0965Z" fill="currentColor"/>
  <path d="M6.25 15C7.014 14.1858 8.1025 13.7596 9.1929 13.7502M10.8333 10C10.8333 10.9205 10.0989 11.6667 9.1929 11.6667 8.287 11.6667 7.5526 10.9205 7.5526 10 7.5526 9.0795 8.287 8.3333 9.1929 8.3333 10.0989 8.3333 10.8333 9.0795 10.8333 10Z" stroke="currentColor" stroke-linecap="round" stroke-width="2"/>
  <path d="M7.0833 3.335C4.8797 3.3432 3.7008 3.4202 2.9376 4.1433 2.0833 4.9526 2.0833 6.2552 2.0833 8.8603V12.8077C2.0833 15.4128 2.0833 16.7153 2.9376 17.5247 3.7919 18.334 5.1668 18.334 7.9167 18.334H9.5833M11.25 3.335C13.4537 3.3432 14.6325 3.4202 15.3958 4.1433 16.25 4.9526 16.25 6.2552 16.25 8.8603V9.584" stroke="currentColor" stroke-linecap="round" stroke-linejoin="round" stroke-width="2"/>
  <path d="M7.3101 3.0264C7.3901 2.6807 7.4301 2.5078 7.5068 2.3667 7.6857 2.0379 8.0157 1.7962 8.4095 1.7056 8.5786 1.6667 8.7747 1.6667 9.1667 1.6667 9.5587 1.6667 9.7548 1.6667 9.9238 1.7056 10.3177 1.7962 10.6476 2.0379 10.8265 2.3667 10.9032 2.5078 10.9433 2.6807 11.0232 3.0264L11.0926 3.3265C11.2344 3.9395 11.3053 4.2461 11.1983 4.4819 11.1291 4.6346 11.011 4.7654 10.8592 4.8576 10.6247 5 10.277 5 9.5818 5H8.7516C8.0563 5 7.7087 5 7.4742 4.8576 7.3223 4.7654 7.2043 4.6346 7.135 4.4819 7.028 4.2461 7.0989 3.9395 7.2407 3.3265L7.3101 3.0264Z" stroke="currentColor" stroke-width="2"/>
</svg>
