<svg xmlns="http://www.w3.org/2000/svg" width="20" height="20" viewBox="0 0 20 20" fill="none">
  <path d="M13.4808 15.3799C13.7313 15.5002 14.042 15.8108 14.1923 16.0614 14.2424 16.4121 14.493 15.0593 15.7155 14.2576M17.9167 15.0008C17.9167 16.8418 16.4243 18.3342 14.5833 18.3342 12.7424 18.3342 11.25 16.8418 11.25 15.0008 11.25 13.1598 12.7424 11.6675 14.5833 11.6675 16.4243 11.6675 17.9167 13.1598 17.9167 15.0008Z" stroke="currentColor" stroke-linecap="round" stroke-width="2"/>
  <circle cx="9.173166666666667" cy="10.000833333333333" r="1.6666666666666667" stroke="currentColor" stroke-width="2"/>
  <path d="M6.2564 15.0008C7.048 14.2508 7.7147 13.8342 9.1939 13.7508M16.2564 9.5842C16.2564 8.9175 16.2772 6.8758 16.1731 6.0425 16.1106 5.355 15.9231 4.4175 15.0689 3.8758 14.5481 3.605 14.0481 3.355 11.6523 3.3342M6.6314 3.3342C4.8397 3.3342 3.4439 3.48 2.7564 4.3342 2.1731 5.1314 2.2078 6.0425 2.1522 6.3342 2.0272 7.8967 2.1105 13.355 2.1105 14.2717 2.1105 15.23 2.048 17.1779 3.3605 17.8342 4.4855 18.3967 5.6522 18.3133 9.6106 18.3342" stroke="currentColor" stroke-linecap="round" stroke-width="2"/>
  <path d="M9.0481 1.6675C8.5481 1.6675 8.1314 1.6675 7.7147 2.105 7.3605 2.4384 7.4155 2.7327 7.2772 3.2509 7.0826 3.98 6.9853 4.3646 7.2564 4.6675 7.5049 4.9928 7.9225 4.9939 8.2913 4.9948L8.2981 4.9948C8.6523 5.0199 9.8427 5.0084 10.1939 4.9948 10.5712 4.9802 10.875 4.9592 11.1314 4.6259 11.3606 4.328 11.2247 3.8322 11.0898 3.3134 10.9566 2.8015 11.0064 2.5425 10.6523 2.105 10.1523 1.605 9.5481 1.6675 9.0481 1.6675Z" stroke="currentColor" stroke-linecap="round" stroke-width="2"/>
</svg>
