<svg xmlns="http://www.w3.org/2000/svg" width="20" height="20" viewBox="0 0 20 20" fill="none">
  <path d="M8.3333 5.8333H7C4.4858 5.8333 3.2288 5.8333 2.4477 6.5927 1.6667 7.352 1.6667 8.5742 1.6667 11.0185V12.3148C1.6667 14.7592 1.6667 15.9813 2.4477 16.7407 3.2288 17.5 4.4858 17.5 7 17.5H9.6667C12.1808 17.5 13.4379 17.5 14.2189 16.7407 15 15.9813 15 14.7592 15 12.3148V9.1667" stroke="currentColor" stroke-linecap="round" stroke-linejoin="round" stroke-width="2"/>
  <path d="M14.5833 14.4047L11.1939 11.0593C11.048 10.9153 10.842 10.8333 10.6261 10.8333 10.4218 10.8333 10.2258 10.9068 10.0814 11.0374L7.0175 13.8095 5.596 12.5234C5.4531 12.3941 5.2593 12.3214 5.0571 12.3214 4.8395 12.3214 4.6322 12.4057 4.4876 12.5528L2.0833 15" stroke="currentColor" stroke-linecap="round" stroke-linejoin="round" stroke-width="2"/>
  <path d="M10.8333 5.8333C11.5935 4.8213 12.8038 4.1667 14.167 4.1667 16.4682 4.1667 18.3337 6.0321 18.3337 8.3333 18.3337 9.2715 18.0236 10.1372 17.5003 10.8338M10.8333 5.8333L11.667 2.5M10.8333 5.8333L13.7503 6.6667" stroke="currentColor" stroke-linecap="round" stroke-linejoin="round" stroke-width="2"/>
  <path d="M6.3542 9.5833H6.25M6.4583 9.5833C6.4583 9.6984 6.3651 9.7917 6.25 9.7917 6.1349 9.7917 6.0417 9.6984 6.0417 9.5833 6.0417 9.4683 6.1349 9.375 6.25 9.375 6.3651 9.375 6.4583 9.4683 6.4583 9.5833Z" stroke="currentColor" stroke-linecap="round" stroke-width="2"/>
</svg>
