<svg xmlns="http://www.w3.org/2000/svg" width="20" height="20" viewBox="0 0 20 20" fill="none">
  <path d="M9.5833 2.5002C5.8514 2.5002 3.9854 2.5002 2.826 3.6596 1.6667 4.8189 1.6667 6.6849 1.6667 10.4168 1.6667 14.1488 1.6667 16.0148 2.826 17.1742 3.9854 18.3335 5.8514 18.3335 9.5833 18.3335 13.3153 18.3335 15.1813 18.3335 16.3406 17.1742 17.5 16.0148 17.5 14.1488 17.5 10.4168 17.5 9.2833 17.5 8.3219 17.4675 7.5002" stroke="currentColor" stroke-linecap="round" stroke-width="2"/>
  <path d="M3.75 17.9168C7.3937 13.5627 11.4783 7.8202 17.4979 11.7022" stroke="currentColor" stroke-width="2"/>
  <path d="M11.6667 5.0002C11.6667 5.0002 12.5 5.0002 13.3333 6.6669 13.3333 6.6669 15.9804 2.5002 18.3333 1.6669" stroke="currentColor" stroke-linecap="round" stroke-linejoin="round" stroke-width="2"/>
</svg>
