<svg xmlns="http://www.w3.org/2000/svg" width="20" height="20" viewBox="0 0 20 20" fill="none">
  <path d="M2.5 13.3333L6.2247 9.6086C6.5077 9.3257 6.8915 9.1667 7.2917 9.1667 7.6918 9.1667 8.0756 9.3257 8.3586 9.6086L11.6667 12.9167M12.9167 14.1667L11.6667 12.9167M17.5 13.3333L15.4419 11.2753C15.159 10.9923 14.7752 10.8333 14.375 10.8333 13.9748 10.8333 13.591 10.9923 13.3081 11.2753L11.6667 12.9167" stroke="currentColor" stroke-linecap="round" stroke-linejoin="round" stroke-width="2"/>
  <path d="M17.9167 7.5V10C17.9167 13.5248 17.9167 15.2872 16.9183 16.456 16.7766 16.622 16.622 16.7766 16.456 16.9183 15.2872 17.9167 13.5248 17.9167 10 17.9167 6.4752 17.9167 4.7128 17.9167 3.544 16.9183 3.378 16.7766 3.2234 16.622 3.0816 16.456 2.0833 15.2872 2.0833 13.5248 2.0833 10 2.0833 6.4752 2.0833 4.7128 3.0816 3.544 3.2234 3.378 3.378 3.2234 3.544 3.0816 4.7128 2.0833 6.4752 2.0833 10 2.0833H11.6667" stroke="currentColor" stroke-linecap="round" stroke-linejoin="round" stroke-width="2"/>
  <path d="M12.0833 5.0321C12.0833 5.0321 13.4252 5.271 14.1667 7.084 14.1667 7.084 15.5637 2.9173 17.9167 2.084" stroke="currentColor" stroke-linecap="round" stroke-linejoin="round" stroke-width="2"/>
</svg>
