<svg xmlns="http://www.w3.org/2000/svg" width="20" height="20" viewBox="0 0 20 20" fill="none">
  <path d="M11.2143 4.5058L7.9453 2.7774C6.267 1.8901 5.4278 1.4465 4.7972 1.7748 4.1667 2.103 4.1667 2.9835 4.1667 4.7445V6.4728C4.1667 7.5463 4.1667 8.083 4.5346 8.4165 4.9026 8.75 5.4948 8.75 6.6792 8.75H9.9483C13.6874 8.75 15.5569 8.75 15.8079 7.9085 16.0589 7.0671 14.4441 6.2133 11.2143 4.5058Z" stroke="currentColor" stroke-linejoin="round" stroke-width="2"/>
  <path d="M11.2143 15.4943L7.9453 17.2226C6.267 18.1098 5.4278 18.5535 4.7972 18.2253 4.1667 17.897 4.1667 17.0165 4.1667 15.2556V13.5273C4.1667 12.4537 4.1667 11.917 4.5346 11.5835 4.9026 11.25 5.4948 11.25 6.6792 11.25H9.9483C13.6874 11.25 15.5569 11.25 15.8079 12.0914 16.0589 12.9329 14.4441 13.7867 11.2143 15.4943Z" stroke="currentColor" stroke-linejoin="round" stroke-width="2"/>
</svg>
