<svg xmlns="http://www.w3.org/2000/svg" width="20" height="20" viewBox="0 0 20 20" fill="none">
  <path d="M11.6667 5.8333H13C15.5142 5.8333 16.7712 5.8333 17.5523 6.5927 18.3333 7.352 18.3333 8.5742 18.3333 11.0185V12.3148C18.3333 14.7592 18.3333 15.9813 17.5523 16.7407 16.7712 17.5 15.5142 17.5 13 17.5H10.3333C7.8192 17.5 6.5621 17.5 5.7811 16.7407 5 15.9813 5 14.7592 5 12.3148V9.1667" stroke="currentColor" stroke-linecap="round" stroke-linejoin="round" stroke-width="2"/>
  <path d="M17.9167 14.4047L14.5273 11.0593C14.3813 10.9153 14.1753 10.8333 13.9594 10.8333 13.7551 10.8333 13.5592 10.9068 13.4147 11.0374L10.3509 13.8095 8.9293 12.5234C8.7864 12.3941 8.5926 12.3214 8.3905 12.3214 8.1728 12.3214 7.9655 12.4057 7.8209 12.5528L5.4167 15" stroke="currentColor" stroke-linecap="round" stroke-linejoin="round" stroke-width="2"/>
  <path d="M9.167 5.8333C8.4068 4.8213 7.1965 4.1667 5.8333 4.1667 3.5322 4.1667 1.6667 6.0321 1.6667 8.3333 1.6667 9.2715 1.9767 10.1372 2.5 10.8338M9.167 5.8333L8.3333 2.5M9.167 5.8333L6.25 6.6667" stroke="currentColor" stroke-linecap="round" stroke-linejoin="round" stroke-width="2"/>
  <path d="M9.6875 9.5833H9.5833M9.7917 9.5833C9.7917 9.6984 9.6984 9.7917 9.5833 9.7917 9.4683 9.7917 9.375 9.6984 9.375 9.5833 9.375 9.4683 9.4683 9.375 9.5833 9.375 9.6984 9.375 9.7917 9.4683 9.7917 9.5833Z" stroke="currentColor" stroke-linecap="round" stroke-width="2"/>
</svg>
