<svg xmlns="http://www.w3.org/2000/svg" width="20" height="20" viewBox="0 0 20 20" fill="none">
  <path d="M12.9167 6.6671C13.1468 6.6671 13.3333 6.4805 13.3333 6.2504 13.3333 6.0203 13.1468 5.8337 12.9167 5.8337M12.9167 6.6671C12.6866 6.6671 12.5 6.4805 12.5 6.2504 12.5 6.0203 12.6866 5.8337 12.9167 5.8337M12.9167 6.6671V5.8337" stroke="currentColor" stroke-linecap="round" stroke-linejoin="round" stroke-width="2"/>
  <path d="M17.9167 10.0027C17.9167 6.4767 17.9167 4.7138 16.9183 3.5445 16.7766 3.3785 16.622 3.2239 16.456 3.0821 15.2872 2.0834 13.5248 2.0834 10 2.0834 6.4752 2.0834 4.7128 2.0834 3.544 3.0821 3.378 3.2239 3.2234 3.3785 3.0816 3.5445 2.0833 4.7138 2.0833 6.4767 2.0833 10.0027 2.0833 13.5285 2.0833 15.2915 3.0816 16.4608 3.2234 16.6268 3.378 16.7814 3.544 16.9232 4.512 17.7503 5.8871 17.8923 8.3333 17.9168" stroke="currentColor" stroke-linecap="round" stroke-linejoin="round" stroke-width="2"/>
  <path d="M2.5 13.3353L6.2247 9.6107C6.5077 9.3277 6.8915 9.1687 7.2917 9.1687 7.6918 9.1687 8.0756 9.3277 8.3586 9.6107L9.1667 10.4187" stroke="currentColor" stroke-linecap="round" stroke-linejoin="round" stroke-width="2"/>
  <path d="M12.9167 6.6687C13.1468 6.6687 13.3333 6.4821 13.3333 6.252 13.3333 6.0219 13.1468 5.8354 12.9167 5.8354M12.9167 6.6687C12.6866 6.6687 12.5 6.4821 12.5 6.252 12.5 6.0219 12.6866 5.8354 12.9167 5.8354M12.9167 6.6687V5.8354" stroke="currentColor" stroke-linecap="round" stroke-linejoin="round" stroke-width="2"/>
  <path d="M17.8711 14.9597C17.7238 15.5567 17.0278 15.9784 15.6357 16.822L15.6357 16.822C14.29 17.6375 13.6172 18.0452 13.0749 17.8813 12.8507 17.8136 12.6465 17.6848 12.4817 17.5076 12.0833 17.0788 12.0833 16.2471 12.0833 14.5838 12.0833 12.9203 12.0833 12.0887 12.4817 11.6599 12.6465 11.4826 12.8507 11.3539 13.0749 11.2862 13.6172 11.1223 14.29 11.53 15.6357 12.3455 17.0278 13.1891 17.7238 13.6108 17.8711 14.2077 17.9318 14.4542 17.9318 14.7133 17.8711 14.9597Z" stroke="currentColor" stroke-linecap="round" stroke-linejoin="round" stroke-width="2"/>
</svg>
