<svg xmlns="http://www.w3.org/2000/svg" width="20" height="20" viewBox="0 0 20 20" fill="none">
  <path d="M5.896 3.2367C8.5728 4.029 11.4272 4.029 14.104 3.2367 16.2642 2.5973 17.3442 2.2776 17.8388 2.6743 18.3333 3.0711 18.3333 4.0898 18.3333 6.1271V13.8728C18.3333 15.9103 18.3333 16.9289 17.8388 17.3257 17.3442 17.7224 16.2641 17.4027 14.104 16.7633 11.4272 15.971 8.5728 15.971 5.896 16.7633 3.7359 17.4027 2.6558 17.7224 2.1612 17.3257 1.6667 16.9289 1.6667 15.9103 1.6667 13.8728V6.1271C1.6667 4.0898 1.6667 3.0711 2.1612 2.6743 2.6558 2.2776 3.7359 2.5973 5.896 3.2367Z" stroke="currentColor" stroke-width="2"/>
  <path d="M5.8333 16.6667C9.1224 13.2022 12.8187 8.6076 18.3333 12.0536" stroke="currentColor" stroke-width="2"/>
  <path d="M7.5 7.0833C7.5 7.7737 6.9404 8.3333 6.25 8.3333 5.5596 8.3333 5 7.7737 5 7.0833 5 6.393 5.5596 5.8333 6.25 5.8333 6.9404 5.8333 7.5 6.393 7.5 7.0833Z" stroke="currentColor" stroke-linecap="round" stroke-linejoin="round" stroke-width="2"/>
</svg>
