<svg xmlns="http://www.w3.org/2000/svg" width="20" height="20" viewBox="0 0 20 20" fill="none">
  <path d="M11.6667 2.5H8.3333C5.1906 2.5 3.6193 2.5 2.643 3.4763 1.6667 4.4526 1.6667 6.024 1.6667 9.1667V10.8333C1.6667 13.976 1.6667 15.5474 2.643 16.5237 3.6193 17.5 5.1906 17.5 8.3333 17.5H11.6667C14.8093 17.5 16.3808 17.5 17.357 16.5237 18.3333 15.5474 18.3333 13.976 18.3333 10.8333V9.1667C18.3333 6.024 18.3333 4.4526 17.357 3.4763 16.3808 2.5 14.8093 2.5 11.6667 2.5Z" stroke="currentColor" stroke-linecap="round" stroke-linejoin="round" stroke-width="2"/>
  <circle cx="7.083333333333334" cy="7.083333333333334" r="1.25" stroke="currentColor" stroke-linecap="round" stroke-linejoin="round" stroke-width="2"/>
  <path d="M17.9167 14.1667L13.6233 9.4831C13.4386 9.2814 13.1776 9.1667 12.9042 9.1667 12.6453 9.1667 12.3972 9.2695 12.2142 9.4524L8.3333 13.3333 6.5327 11.5328C6.3517 11.3517 6.1062 11.25 5.8502 11.25 5.5744 11.25 5.3119 11.3679 5.1287 11.574L2.0833 15" stroke="currentColor" stroke-linecap="round" stroke-linejoin="round" stroke-width="2"/>
</svg>
