<svg xmlns="http://www.w3.org/2000/svg" width="20" height="20" viewBox="0 0 20 20" fill="none">
  <path d="M15.0432 3.3859C11.7413 2.2047 8.2587 2.2047 4.9569 3.386 3.5742 3.8806 2.8829 4.128 2.2748 4.9913 1.6667 5.8547 1.6667 6.7937 1.6667 8.6716V11.3284C1.6667 13.2063 1.6667 14.1453 2.2748 15.0087 2.8829 15.8721 3.5742 16.1194 4.9569 16.6141 8.2587 17.7953 11.7413 17.7953 15.0432 16.6141 16.4258 16.1194 17.1172 15.8721 17.7252 15.0087 18.3333 14.1453 18.3333 13.2063 18.3333 11.3285V8.6715C18.3333 6.7936 18.3333 5.8547 17.7252 4.9913 17.1172 4.1279 16.4258 3.8806 15.0432 3.3859Z" stroke="currentColor" stroke-width="2"/>
  <path d="M2.0833 12.9167L6.2247 8.7753C6.5077 8.4923 6.8915 8.3333 7.2917 8.3333 7.6918 8.3333 8.0756 8.4923 8.3586 8.7753L11.6667 12.0833M12.9167 13.3333L11.6667 12.0833M17.9167 12.9167L15.4419 10.4419C15.159 10.159 14.7752 10 14.375 10 13.9748 10 13.591 10.159 13.3081 10.4419L11.6667 12.0833" stroke="currentColor" stroke-linecap="round" stroke-linejoin="round" stroke-width="2"/>
  <path d="M12.0833 6.6667C12.3134 6.6667 12.5 6.4801 12.5 6.25 12.5 6.0199 12.3134 5.8333 12.0833 5.8333M12.0833 6.6667C11.8533 6.6667 11.6667 6.4801 11.6667 6.25 11.6667 6.0199 11.8533 5.8333 12.0833 5.8333M12.0833 6.6667V5.8333" stroke="currentColor" stroke-linecap="round" stroke-linejoin="round" stroke-width="2"/>
</svg>
