<svg xmlns="http://www.w3.org/2000/svg" width="20" height="20" viewBox="0 0 20 20" fill="none">
  <path d="M10.7487 10.8333C8.4011 12.4068 6.7562 15.0337 4.9154 17.5" stroke="currentColor" stroke-linecap="round" stroke-width="2"/>
  <path d="M3.1467 2.9167C2.0833 4.1119 2.0833 6.0272 2.0833 9.7878 2.0833 13.6198 2.0833 15.5358 3.2083 16.7263 4.3334 17.9167 6.144 17.9167 9.7654 17.9167 13.31 17.9167 15.1199 17.7733 16.25 16.6569" stroke="currentColor" stroke-width="2"/>
  <path d="M13.75 10.012C15.0333 9.9237 16.4136 10.2763 17.9142 11.3501M17.9142 11.3501C17.9167 10.9292 17.9167 10.4801 17.9167 10 17.9167 6.268 17.9167 4.4021 16.7573 3.2427 15.5979 2.0833 13.7319 2.0833 10 2.0833 7.9924 2.0833 6.5248 2.0833 5.4167 2.2638M17.9142 11.3501C17.9063 12.6889 17.8735 13.7402 17.7362 14.5833" stroke="currentColor" stroke-linecap="round" stroke-linejoin="round" stroke-width="2"/>
  <path d="M1.6667 1.6667L18.3333 18.3333" stroke="currentColor" stroke-linecap="round" stroke-linejoin="round" stroke-width="2"/>
</svg>
