<svg xmlns="http://www.w3.org/2000/svg" width="20" height="20" viewBox="0 0 20 20" fill="none">
  <path d="M12.9167 6.6667C13.1468 6.6667 13.3333 6.4801 13.3333 6.25 13.3333 6.0199 13.1468 5.8333 12.9167 5.8333M12.9167 6.6667C12.6866 6.6667 12.5 6.4801 12.5 6.25 12.5 6.0199 12.6866 5.8333 12.9167 5.8333M12.9167 6.6667V5.8333" stroke="currentColor" stroke-linecap="round" stroke-linejoin="round" stroke-width="2"/>
  <path d="M1.6667 1.6667L18.3333 18.3333" stroke="currentColor" stroke-linecap="round" stroke-linejoin="round" stroke-width="2"/>
  <path d="M14.4164 17.7498C13.3489 17.9167 11.9419 17.9167 10 17.9167 6.4752 17.9167 4.7128 17.9167 3.544 16.9183 3.378 16.7766 3.2234 16.622 3.0816 16.456 2.0833 15.2872 2.0833 13.5248 2.0833 10 2.0833 8.0581 2.0833 6.6511 2.2503 5.5836M16.6962 16.6962C16.7734 16.6192 16.8475 16.539 16.9183 16.456 17.9167 15.2872 17.9167 13.5248 17.9167 10 17.9167 6.4752 17.9167 4.7128 16.9183 3.544 16.7766 3.378 16.622 3.2234 16.456 3.0816 15.2872 2.0833 13.5248 2.0833 10 2.0833 6.4752 2.0833 4.7128 2.0833 3.544 3.0816 3.461 3.1525 3.3808 3.2266 3.3037 3.3037" stroke="currentColor" stroke-linecap="round" stroke-linejoin="round" stroke-width="2"/>
  <path d="M2.5 13.3333L6.2503 9.5837M17.5 13.3333L15.4419 11.2753C15.159 10.9923 14.7752 10.8333 14.375 10.8333 13.9748 10.8333 13.591 10.9923 13.3081 11.2753L12.2917 12.2917" stroke="currentColor" stroke-linecap="round" stroke-linejoin="round" stroke-width="2"/>
</svg>
