<svg xmlns="http://www.w3.org/2000/svg" width="20" height="20" viewBox="0 0 20 20" fill="none">
  <path d="M10 18.3333C14.6023 18.3333 18.3333 14.6023 18.3333 10 18.3333 5.3976 14.6023 1.6667 10 1.6667 5.3976 1.6667 1.6667 5.3976 1.6667 10 1.6667 11.5178 2.0725 12.9409 2.7815 14.1667L1.6667 18.3333 5.8333 17.2185C7.0591 17.9275 8.4822 18.3333 10 18.3333Z" stroke="currentColor" stroke-linejoin="round" stroke-width="2"/>
  <path d="M5.8405 7.5L5.8333 7.5M5.8343 9.1667V12.5M7.4275 12.5V10.2083C7.4275 9.633 7.8736 9.1667 8.4239 9.1667 8.9742 9.1667 9.4202 9.633 9.4202 10.2083M9.4202 10.2083V12.5M9.4202 10.2083C9.4202 9.633 9.8664 9.1667 10.4167 9.1667 10.9669 9.1667 11.4131 9.633 11.4131 10.2083V12.5M13.0073 10.2083V11.4583C13.0073 12.0337 13.4533 12.5 14.0036 12.5 14.5539 12.5 15 12.0337 15 11.4583V10.2083C15 9.633 14.5539 9.1667 14.0036 9.1667 13.4533 9.1667 13.0073 9.633 13.0073 10.2083Z" stroke="currentColor" stroke-linecap="round" stroke-linejoin="round" stroke-width="2"/>
</svg>
