<svg xmlns="http://www.w3.org/2000/svg" width="20" height="20" viewBox="0 0 20 20" fill="none">
  <path d="M17.4999 11.652H13.3952C12.6934 11.652 12.1421 12.2383 11.8328 12.858 11.4968 13.5313 10.824 14.152 9.5833 14.152 8.3425 14.152 7.6697 13.5313 7.3337 12.858 7.0244 12.2383 6.4731 11.652 5.7713 11.652H1.6666" stroke="currentColor" stroke-linejoin="round" stroke-width="2"/>
  <path d="M13.8834 4.9795C13.8834 4.9795 14.1976 5.0755 14.6339 5.7155 14.6339 5.7155 15.2739 4.3338 16.1611 3.8539" stroke="currentColor" stroke-linecap="round" stroke-linejoin="round" stroke-width="2"/>
  <path d="M17.5138 10.4097C17.5138 14.1449 17.5138 16.0125 16.3535 17.173 15.1931 18.3333 13.3254 18.3333 9.5903 18.3333 5.855 18.3333 3.9874 18.3333 2.827 17.173 1.6666 16.0125 1.6666 14.1449 1.6666 10.4097 1.6666 6.6745 1.6666 4.8068 2.827 3.6465 3.9874 2.4861 5.855 2.4861 9.5903 2.4861" stroke="currentColor" stroke-linecap="round" stroke-linejoin="round" stroke-width="2"/>
  <path d="M18.3334 4.986C18.3334 6.8193 16.8472 8.3054 15.0141 8.3054 13.1808 8.3054 11.6947 6.8193 11.6947 4.986 11.6947 3.1528 13.1808 1.6667 15.0141 1.6667 16.8472 1.6667 18.3334 3.1528 18.3334 4.986Z" stroke="currentColor" stroke-linecap="round" stroke-width="2"/>
</svg>
