<svg xmlns="http://www.w3.org/2000/svg" width="20" height="20" viewBox="0 0 20 20" fill="none">
  <path d="M17.5 10V10.4167C17.5 14.1486 17.5 16.0146 16.3407 17.174 15.1813 18.3333 13.3153 18.3333 9.5833 18.3333 5.8514 18.3333 3.9854 18.3333 2.826 17.174 1.6667 16.0146 1.6667 14.1486 1.6667 10.4167 1.6667 6.6847 1.6667 4.8187 2.826 3.6594 3.9854 2.5 5.8514 2.5 9.5833 2.5H10" stroke="currentColor" stroke-linecap="round" stroke-linejoin="round" stroke-width="2"/>
  <path d="M18.3333 4.5833C18.3333 6.1942 17.0275 7.5 15.4167 7.5 13.8058 7.5 12.5 6.1942 12.5 4.5833 12.5 2.9725 13.8058 1.6667 15.4167 1.6667 17.0275 1.6667 18.3333 2.9725 18.3333 4.5833Z" stroke="currentColor" stroke-width="2"/>
  <path d="M17.5 11.6667H13.3953C12.6935 11.6667 12.1422 12.253 11.8329 12.8727 11.4969 13.5459 10.8241 14.1667 9.5833 14.1667 8.3426 14.1667 7.6698 13.5459 7.3338 12.8727 7.0245 12.253 6.4731 11.6667 5.7714 11.6667H1.6667" stroke="currentColor" stroke-linejoin="round" stroke-width="2"/>
</svg>
