<svg xmlns="http://www.w3.org/2000/svg" width="20" height="20" viewBox="0 0 20 20" fill="none">
  <path d="M5.8333 2.0833C4.6606 2.2211 3.8536 2.5124 3.2427 3.128 2.0833 4.2965 2.0833 6.177 2.0833 9.9382 2.0833 13.6993 2.0833 15.5798 3.2427 16.7482 4.4021 17.9167 6.268 17.9167 10 17.9167 13.7319 17.9167 15.5979 17.9167 16.7573 16.7482 17.9167 15.5798 17.9167 13.6993 17.9167 9.9382 17.9167 6.177 17.9167 4.2965 16.7573 3.128 16.1464 2.5124 15.3394 2.2211 14.1667 2.0833" stroke="currentColor" stroke-linecap="round" stroke-linejoin="round" stroke-width="2"/>
  <path d="M7.9167 6.6667C8.3263 7.0881 9.4165 8.75 10 8.75M12.0833 6.6667C11.6738 7.0881 10.5835 8.75 10 8.75M10 8.75V2.0833" stroke="currentColor" stroke-linecap="round" stroke-linejoin="round" stroke-width="2"/>
  <path d="M17.9167 11.25H13.8119C13.1102 11.25 12.5588 11.8363 12.2496 12.456 11.9136 13.1293 11.2408 13.75 10 13.75 8.7593 13.75 8.0864 13.1293 7.7504 12.456 7.4412 11.8363 6.8898 11.25 6.188 11.25H2.0833" stroke="currentColor" stroke-linejoin="round" stroke-width="2"/>
</svg>
