<svg xmlns="http://www.w3.org/2000/svg" width="20" height="20" viewBox="0 0 20 20" fill="none">
  <path d="M5.4167 2.0833C4.4649 2.2401 3.7784 2.5316 3.2427 3.0735 2.0833 4.2462 2.0833 6.1337 2.0833 9.9087 2.0833 13.6837 2.0833 15.5712 3.2427 16.7439 4.4021 17.9167 6.268 17.9167 10 17.9167 13.7319 17.9167 15.5979 17.9167 16.7573 16.7439 17.9167 15.5712 17.9167 13.6837 17.9167 9.9087 17.9167 6.1337 17.9167 4.2462 16.7573 3.0735 16.2216 2.5316 15.5351 2.2401 14.5833 2.0833" stroke="currentColor" stroke-linecap="round" stroke-linejoin="round" stroke-width="2"/>
  <path d="M7.9167 4.1667C8.3263 3.7452 9.4165 2.0833 10 2.0833M12.0833 4.1667C11.6738 3.7452 10.5835 2.0833 10 2.0833M10 2.0833V8.75" stroke="currentColor" stroke-linecap="round" stroke-linejoin="round" stroke-width="2"/>
  <path d="M17.9167 11.25H13.8119C13.1102 11.25 12.5588 11.8363 12.2496 12.456 11.9136 13.1293 11.2408 13.75 10 13.75 8.7593 13.75 8.0864 13.1293 7.7504 12.456 7.4412 11.8363 6.8898 11.25 6.188 11.25H2.0833" stroke="currentColor" stroke-linejoin="round" stroke-width="2"/>
</svg>
