<svg xmlns="http://www.w3.org/2000/svg" width="20" height="20" viewBox="0 0 20 20" fill="none">
  <path d="M8.3333 15C8.3333 13.6193 7.214 12.5 5.8333 12.5 4.4526 12.5 3.3333 13.6193 3.3333 15 3.3333 16.3808 4.4526 17.5 5.8333 17.5 7.214 17.5 8.3333 16.3808 8.3333 15Z" stroke="currentColor" stroke-width="2"/>
  <path d="M16.6667 15C16.6667 13.6193 15.5474 12.5 14.1667 12.5 12.7859 12.5 11.6667 13.6193 11.6667 15 11.6667 16.3808 12.7859 17.5 14.1667 17.5 15.5474 17.5 16.6667 16.3808 16.6667 15Z" stroke="currentColor" stroke-width="2"/>
  <path d="M1.6667 10H18.3333" stroke="currentColor" stroke-linecap="round" stroke-width="2"/>
  <path d="M12.0833 13.6176C11.6354 12.944 10.8696 12.5 10 12.5 9.1304 12.5 8.3646 12.944 7.9167 13.6176" stroke="currentColor" stroke-linecap="round" stroke-width="2"/>
  <path d="M2.5 9.9999L3.8847 4.7523C3.9654 4.4464 4.0058 4.2934 4.0448 4.185 4.6129 2.6047 6.4693 2.0008 7.8107 2.96 7.9027 3.0258 8.0206 3.1273 8.2563 3.3303 8.3916 3.4469 8.4593 3.5052 8.522 3.5527 9.4018 4.2192 10.5982 4.2192 11.478 3.5527 11.5408 3.5052 11.6084 3.4469 11.7438 3.3303 11.9794 3.1273 12.0973 3.0258 12.1893 2.96 13.5307 2.0008 15.3871 2.6047 15.9553 4.185 15.9942 4.2934 16.0346 4.4464 16.1152 4.7523L17.5 9.9999H2.5Z" stroke="currentColor" stroke-linecap="round" stroke-width="2"/>
</svg>
