<svg xmlns="http://www.w3.org/2000/svg" width="20" height="20" viewBox="0 0 20 20" fill="none">
  <path d="M16.6253 9.0801C16.2541 12.4105 13.4294 15 10 15 6.5705 15 3.7459 12.4105 3.3747 9.0801 3.2329 9.136 3.0784 9.1667 2.9167 9.1667 2.2263 9.1667 1.6667 8.607 1.6667 7.9167 1.6667 7.2263 2.2263 6.6667 2.9167 6.6667 3.1302 6.6667 3.3313 6.7202 3.5071 6.8146 4.1944 3.8645 6.8406 1.6667 10 1.6667 13.1594 1.6667 15.8056 3.8645 16.4929 6.8146 16.6688 6.7202 16.8697 6.6667 17.0833 6.6667 17.7737 6.6667 18.3333 7.2263 18.3333 7.9167 18.3333 8.607 17.7737 9.1667 17.0833 9.1667 16.9217 9.1667 16.7672 9.136 16.6253 9.0801Z" stroke="currentColor" stroke-linejoin="round" stroke-width="2"/>
  <path d="M15 18.3333C15 16.84 14.3453 15.4995 13.3072 14.5833M5 18.3333C5 16.84 5.6547 15.4995 6.6927 14.5833" stroke="currentColor" stroke-linecap="round" stroke-width="2"/>
  <path d="M10 1.6667C10.8333 1.6667 11.6667 2.4129 11.6667 3.3333 11.6667 4.2538 10.8333 5 10 5 9.5833 5 9.1038 4.8472 8.75 4.5833" stroke="currentColor" stroke-linecap="round" stroke-width="2"/>
  <path d="M6.9792 8.3333H6.875M13.0208 8.3333H13.125M7.0833 8.3333C7.0833 8.4484 6.9901 8.5417 6.875 8.5417 6.7599 8.5417 6.6667 8.4484 6.6667 8.3333 6.6667 8.2183 6.7599 8.125 6.875 8.125 6.9901 8.125 7.0833 8.2183 7.0833 8.3333ZM12.9167 8.3333C12.9167 8.4484 13.0099 8.5417 13.125 8.5417 13.2401 8.5417 13.3333 8.4484 13.3333 8.3333 13.3333 8.2183 13.2401 8.125 13.125 8.125 13.0099 8.125 12.9167 8.2183 12.9167 8.3333Z" stroke="currentColor" stroke-linecap="round" stroke-linejoin="round" stroke-width="2"/>
  <path d="M10 12.5C10.4603 12.5 10.8333 12.1269 10.8333 11.6667H9.1667C9.1667 12.1269 9.5397 12.5 10 12.5Z" stroke="currentColor" stroke-linejoin="round" stroke-width="2"/>
</svg>
