<svg xmlns="http://www.w3.org/2000/svg" width="20" height="20" viewBox="0 0 20 20" fill="none">
  <path d="M10 10C10 10 8.6308 12.5 7.25 12.5 5.8693 12.5 5 11.3808 5 10 5 8.6193 5.8693 7.5 7.25 7.5 8.6308 7.5 10 10 10 10ZM10 10C10 10 11.3693 12.5 12.75 12.5 14.1308 12.5 15 11.3808 15 10 15 8.6193 14.1308 7.5 12.75 7.5 11.3693 7.5 10 10 10 10Z" stroke="currentColor" stroke-width="2"/>
  <path d="M14.7708 2.0833C15.9288 2.2115 16.7082 2.5012 17.2899 3.1559 18.3333 4.3301 18.3333 6.2201 18.3333 10 18.3333 13.7799 18.3333 15.6698 17.2899 16.8442 16.7082 17.4988 15.9288 17.7885 14.7708 17.9167M5.2292 17.9167C4.0713 17.7885 3.2918 17.4988 2.7101 16.8442 1.6667 15.6698 1.6667 13.7799 1.6667 10 1.6667 6.2201 1.6667 4.3301 2.7101 3.1559 3.2918 2.5012 4.0713 2.2115 5.2292 2.0833" stroke="currentColor" stroke-linecap="round" stroke-linejoin="round" stroke-width="2"/>
</svg>
