<svg xmlns="http://www.w3.org/2000/svg" width="20" height="20" viewBox="0 0 20 20" fill="none">
  <path d="M10 10C10 10 8.6308 12.0833 7.25 12.0833 5.8693 12.0833 5 11.1506 5 10 5 8.8494 5.8693 7.9167 7.25 7.9167 8.6308 7.9167 10 10 10 10ZM10 10C10 10 11.3693 12.0833 12.75 12.0833 14.1308 12.0833 15 11.1506 15 10 15 8.8494 14.1308 7.9167 12.75 7.9167 11.3693 7.9167 10 10 10 10Z" stroke="currentColor" stroke-width="2"/>
  <path d="M2.0833 10C2.0833 6.268 2.0833 4.4021 3.2427 3.2427 4.4021 2.0833 6.268 2.0833 10 2.0833 13.7319 2.0833 15.5979 2.0833 16.7573 3.2427 17.9167 4.4021 17.9167 6.268 17.9167 10 17.9167 13.7319 17.9167 15.5979 16.7573 16.7573 15.5979 17.9167 13.7319 17.9167 10 17.9167 6.268 17.9167 4.4021 17.9167 3.2427 16.7573 2.0833 15.5979 2.0833 13.7319 2.0833 10Z" stroke="currentColor" stroke-linejoin="round" stroke-width="2"/>
</svg>
