<svg xmlns="http://www.w3.org/2000/svg" width="20" height="20" viewBox="0 0 20 20" fill="none">
  <path d="M4.9341 4.9341C6.7986 3.0695 7.7309 2.1372 8.8214 1.8297 9.5921 1.6123 10.4079 1.6123 11.1786 1.8297 12.2691 2.1372 13.2013 3.0695 15.0659 4.9341 16.9305 6.7986 17.8628 7.7309 18.1703 8.8214 18.3877 9.5921 18.3877 10.4079 18.1703 11.1786 17.8628 12.2691 16.9305 13.2013 15.0659 15.0659 13.2013 16.9305 12.2691 17.8628 11.1786 18.1703 10.4079 18.3877 9.5921 18.3877 8.8214 18.1703 7.7309 17.8628 6.7986 16.9305 4.9341 15.0659 3.0695 13.2013 2.1372 12.2691 1.8297 11.1786 1.6123 10.4079 1.6123 9.5921 1.8297 8.8214 2.1372 7.7309 3.0695 6.7986 4.9341 4.9341Z" stroke="currentColor" stroke-linecap="round" stroke-linejoin="round" stroke-width="2"/>
  <path d="M10 13.3333V10" stroke="currentColor" stroke-linecap="round" stroke-linejoin="round" stroke-width="2"/>
  <path d="M10.1042 6.875H10M10.2083 6.875C10.2083 6.7599 10.1151 6.6667 10 6.6667 9.8849 6.6667 9.7917 6.7599 9.7917 6.875 9.7917 6.9901 9.8849 7.0833 10 7.0833 10.1151 7.0833 10.2083 6.9901 10.2083 6.875Z" stroke="currentColor" stroke-linecap="round" stroke-linejoin="round" stroke-width="2"/>
</svg>
