<svg xmlns="http://www.w3.org/2000/svg" width="20" height="20" viewBox="0 0 20 20" fill="none">
  <path d="M13.3333 5H6.6667C4.3096 5 3.1311 5 2.3989 5.7322 1.6667 6.4645 1.6667 7.643 1.6667 10 1.6667 12.357 1.6667 13.5355 2.3989 14.2678 3.1311 15 4.3096 15 6.6667 15H13.3333C15.6903 15 16.8688 15 17.6011 14.2678 18.3333 13.5355 18.3333 12.357 18.3333 10 18.3333 7.643 18.3333 6.4645 17.6011 5.7322 16.8688 5 15.6903 5 13.3333 5Z" stroke="currentColor" stroke-linecap="round" stroke-linejoin="round" stroke-width="2"/>
  <path d="M4.1667 12.5L5.4141 7.8221C5.4648 7.6322 5.6368 7.5 5.8333 7.5 6.0299 7.5 6.2019 7.6322 6.2526 7.8221L7.5 12.5M5 10.8333H6.6667" stroke="currentColor" stroke-linecap="round" stroke-linejoin="round" stroke-width="2"/>
  <path d="M11.25 7.5H10V10H11.25C11.9403 10 12.5 9.4403 12.5 8.75 12.5 8.0596 11.9403 7.5 11.25 7.5Z" stroke="currentColor" stroke-linecap="round" stroke-linejoin="round" stroke-width="2"/>
  <path d="M11.25 10H10V12.5H11.25C11.9403 12.5 12.5 11.9403 12.5 11.25 12.5 10.5597 11.9403 10 11.25 10Z" stroke="currentColor" stroke-linecap="round" stroke-linejoin="round" stroke-width="2"/>
</svg>
