<svg xmlns="http://www.w3.org/2000/svg" width="20" height="20" viewBox="0 0 20 20" fill="none">
  <path d="M13.3333 5H6.6667C4.3096 5 3.1311 5 2.3989 5.7322 1.6667 6.4645 1.6667 7.643 1.6667 10 1.6667 12.357 1.6667 13.5355 2.3989 14.2678 3.1311 15 4.3096 15 6.6667 15H13.3333C15.6903 15 16.8688 15 17.6011 14.2678 18.3333 13.5355 18.3333 12.357 18.3333 10 18.3333 7.643 18.3333 6.4645 17.6011 5.7322 16.8688 5 15.6903 5 13.3333 5Z" stroke="currentColor" stroke-linecap="round" stroke-linejoin="round" stroke-width="2"/>
  <path d="M5 7.5H5.8333V12.5M5 12.5H6.6667" stroke="currentColor" stroke-linecap="round" stroke-linejoin="round" stroke-width="2"/>
  <path d="M9.1667 7.5H10.8333C11.2936 7.5 11.6667 7.8731 11.6667 8.3333V9.1667C11.6667 9.6269 11.2936 10 10.8333 10H10C9.5397 10 9.1667 10.3731 9.1667 10.8333V11.6667C9.1667 12.1269 9.5397 12.5 10 12.5H11.6667" stroke="currentColor" stroke-linecap="round" stroke-linejoin="round" stroke-width="2"/>
</svg>
