<svg xmlns="http://www.w3.org/2000/svg" width="20" height="20" viewBox="0 0 20 20" fill="none">
  <path d="M17.6557 15C17.4877 15.7407 17.2114 16.3032 16.7573 16.7573 15.5979 17.9167 13.7319 17.9167 10 17.9167 6.268 17.9167 4.4021 17.9167 3.2427 16.7573 2.0833 15.5979 2.0833 13.7319 2.0833 10 2.0833 6.268 2.0833 4.4021 3.2427 3.2427 4.4021 2.0833 6.268 2.0833 10 2.0833 13.7319 2.0833 15.5979 2.0833 16.7573 3.2427 17.2114 3.6968 17.4877 4.2594 17.6557 5" stroke="currentColor" stroke-linecap="round" stroke-linejoin="round" stroke-width="2"/>
  <path d="M15.4167 7.5L17.9167 10 15.4167 12.5M17.0833 10L11.25 10" stroke="currentColor" stroke-linecap="round" stroke-linejoin="round" stroke-width="2"/>
  <path d="M7.5 2.0817V17.915" stroke="currentColor" stroke-width="2"/>
  <path d="M2.0817 7.0817H7.4984M2.0817 12.915H7.4984" stroke="currentColor" stroke-width="2"/>
</svg>
