<svg xmlns="http://www.w3.org/2000/svg" width="20" height="20" viewBox="0 0 20 20" fill="none">
  <path d="M2.5 2.5H15.8333" stroke="currentColor" stroke-linecap="round" stroke-linejoin="round" stroke-width="2"/>
  <path d="M2.5 5.8333H10" stroke="currentColor" stroke-linecap="round" stroke-linejoin="round" stroke-width="2"/>
  <path d="M2.5 13.3333C2.5 11.3692 2.5 10.3871 3.1102 9.7768 3.7204 9.1667 4.7025 9.1667 6.6667 9.1667H13.3333C15.2975 9.1667 16.2796 9.1667 16.8898 9.7768 17.5 10.3871 17.5 11.3692 17.5 13.3333 17.5 15.2975 17.5 16.2796 16.8898 16.8898 16.2796 17.5 15.2975 17.5 13.3333 17.5H6.6667C4.7025 17.5 3.7204 17.5 3.1102 16.8898 2.5 16.2796 2.5 15.2975 2.5 13.3333Z" stroke="currentColor" stroke-linecap="round" stroke-linejoin="round" stroke-width="2"/>
</svg>
