<svg xmlns="http://www.w3.org/2000/svg" width="20" height="20" viewBox="0 0 20 20" fill="none">
  <path d="M2.5 2.5H15.8333" stroke="currentColor" stroke-linecap="round" stroke-linejoin="round" stroke-width="2"/>
  <path d="M2.5 17.5H10" stroke="currentColor" stroke-linecap="round" stroke-linejoin="round" stroke-width="2"/>
  <path d="M2.5 10C2.5 8.0358 2.5 7.0537 3.1102 6.4435 3.7204 5.8333 4.7025 5.8333 6.6667 5.8333H13.3333C15.2975 5.8333 16.2796 5.8333 16.8898 6.4435 17.5 7.0537 17.5 8.0358 17.5 10 17.5 11.9642 17.5 12.9463 16.8898 13.5565 16.2796 14.1667 15.2975 14.1667 13.3333 14.1667H6.6667C4.7025 14.1667 3.7204 14.1667 3.1102 13.5565 2.5 12.9463 2.5 11.9642 2.5 10Z" stroke="currentColor" stroke-linecap="round" stroke-linejoin="round" stroke-width="2"/>
</svg>
