<svg xmlns="http://www.w3.org/2000/svg" width="20" height="20" viewBox="0 0 20 20" fill="none">
  <path d="M2.5 14.1667H15.8333" stroke="currentColor" stroke-linecap="round" stroke-linejoin="round" stroke-width="2"/>
  <path d="M2.5 17.5H10" stroke="currentColor" stroke-linecap="round" stroke-linejoin="round" stroke-width="2"/>
  <path d="M2.5 6.6667C2.5 4.7025 2.5 3.7204 3.1102 3.1102 3.7204 2.5 4.7025 2.5 6.6667 2.5H13.3333C15.2975 2.5 16.2796 2.5 16.8898 3.1102 17.5 3.7204 17.5 4.7025 17.5 6.6667 17.5 8.6308 17.5 9.6129 16.8898 10.2232 16.2796 10.8333 15.2975 10.8333 13.3333 10.8333H6.6667C4.7025 10.8333 3.7204 10.8333 3.1102 10.2232 2.5 9.6129 2.5 8.6308 2.5 6.6667Z" stroke="currentColor" stroke-linecap="round" stroke-linejoin="round" stroke-width="2"/>
</svg>
