<svg xmlns="http://www.w3.org/2000/svg" width="20" height="20" viewBox="0 0 20 20" fill="none">
  <path d="M14.5833 14.5833L18.3333 18.3333" stroke="currentColor" stroke-linecap="round" stroke-linejoin="round" stroke-width="2"/>
  <path d="M16.6667 9.1667C16.6667 5.0245 13.3088 1.6667 9.1667 1.6667 5.0245 1.6667 1.6667 5.0245 1.6667 9.1667 1.6667 13.3088 5.0245 16.6667 9.1667 16.6667 13.3088 16.6667 16.6667 13.3088 16.6667 9.1667Z" stroke="currentColor" stroke-linejoin="round" stroke-width="2"/>
  <path d="M12.0833 7.9167L12.8499 8.5774C13.1722 8.8552 13.3333 8.9941 13.3333 9.1667 13.3333 9.3393 13.1722 9.4782 12.8499 9.7559L12.0833 10.4167" stroke="currentColor" stroke-linecap="round" stroke-linejoin="round" stroke-width="2"/>
  <path d="M6.25 7.9167L5.4834 8.5774C5.1611 8.8552 5 8.9941 5 9.1667 5 9.3393 5.1611 9.4782 5.4834 9.7559L6.25 10.4167" stroke="currentColor" stroke-linecap="round" stroke-linejoin="round" stroke-width="2"/>
  <path d="M10 7.0833L8.3333 11.25" stroke="currentColor" stroke-linecap="round" stroke-linejoin="round" stroke-width="2"/>
</svg>
