<svg xmlns="http://www.w3.org/2000/svg" width="20" height="20" viewBox="0 0 20 20" fill="none">
  <path d="M2.5 10C2.5 6.4645 2.5 4.6967 3.5983 3.5983 4.6967 2.5 6.4645 2.5 10 2.5 13.5355 2.5 15.3033 2.5 16.4017 3.5983 17.5 4.6967 17.5 6.4645 17.5 10 17.5 13.5355 17.5 15.3033 16.4017 16.4017 15.3033 17.5 13.5355 17.5 10 17.5 6.4645 17.5 4.6967 17.5 3.5983 16.4017 2.5 15.3033 2.5 13.5355 2.5 10Z" stroke="currentColor" stroke-linecap="round" stroke-linejoin="round" stroke-width="2"/>
  <path d="M13.3333 10C13.3333 11.8409 11.8409 13.3333 10 13.3333 8.1591 13.3333 6.6667 11.8409 6.6667 10 6.6667 8.1591 8.1591 6.6667 10 6.6667 11.8409 6.6667 13.3333 8.1591 13.3333 10Z" stroke="currentColor" stroke-linecap="round" stroke-linejoin="round" stroke-width="2"/>
  <path d="M14.479 5.6252H14.3748M14.5832 5.6252C14.5832 5.7403 14.4898 5.8335 14.3748 5.8335 14.2598 5.8335 14.1665 5.7403 14.1665 5.6252 14.1665 5.5101 14.2598 5.4169 14.3748 5.4169 14.4898 5.4169 14.5832 5.5101 14.5832 5.6252Z" stroke="currentColor" stroke-linecap="round" stroke-linejoin="round" stroke-width="2"/>
</svg>
