<svg xmlns="http://www.w3.org/2000/svg" width="20" height="20" viewBox="0 0 20 20" fill="none">
  <path d="M12.5 8.9583C12.5 10.3391 11.3808 11.4583 10 11.4583 8.6193 11.4583 7.5 10.3391 7.5 8.9583 7.5 7.5776 8.6193 6.4583 10 6.4583 11.3808 6.4583 12.5 7.5776 12.5 8.9583Z" stroke="currentColor" stroke-width="2"/>
  <path d="M16.7237 5.4099L16.3651 4.7853C16.0939 4.3129 15.9582 4.0767 15.7276 3.9826 15.4968 3.8884 15.2359 3.9627 14.7141 4.1113L13.8276 4.3619C13.4944 4.439 13.1448 4.3953 12.8406 4.2384L12.5959 4.0967C12.335 3.929 12.1343 3.6817 12.0232 3.3911L11.7807 2.6638C11.6212 2.1826 11.5414 1.9419 11.3515 1.8043 11.1616 1.6667 10.9094 1.6667 10.4049 1.6667H9.5951C9.0906 1.6667 8.8384 1.6667 8.6485 1.8043 8.4586 1.9419 8.3788 2.1826 8.2193 2.6638L7.9767 3.3911C7.8656 3.6817 7.665 3.929 7.4041 4.0967L7.1594 4.2384C6.8552 4.3953 6.5056 4.439 6.1724 4.3619L5.2859 4.1113C4.7641 3.9627 4.5031 3.8884 4.2724 3.9826 4.0417 4.0767 3.9061 4.3129 3.6349 4.7853L3.2763 5.4099C3.0221 5.8527 2.895 6.0741 2.9197 6.3098 2.9444 6.5454 3.1145 6.7354 3.4548 7.1152L4.2039 7.9557C4.3869 8.1884 4.5169 8.5938 4.5169 8.9583 4.5169 9.3229 4.387 9.7282 4.2039 9.9608L3.4548 10.8014C3.1145 11.1813 2.9444 11.3712 2.9197 11.6068 2.895 11.8425 3.0221 12.0639 3.2763 12.5067L3.6349 13.1313C3.9061 13.6037 4.0417 13.8398 4.2724 13.9341 4.5032 14.0282 4.7641 13.9539 5.286 13.8052L6.1724 13.5547C6.5056 13.4775 6.8553 13.5213 7.1595 13.6783L7.4042 13.82C7.665 13.9877 7.8656 14.2349 7.9767 14.5255L8.2193 15.2528C8.3788 15.7341 8.4586 15.9748 8.6485 16.1123 8.8384 16.25 9.0906 16.25 9.5951 16.25H10.4049C10.9094 16.25 11.1616 16.25 11.3515 16.1123 11.5414 15.9748 11.6212 15.7341 11.7807 15.2528L12.0233 14.5255C12.1343 14.2349 12.335 13.9877 12.5958 13.82L12.8405 13.6783C13.1448 13.5213 13.4943 13.4775 13.8276 13.5547L14.7141 13.8052C15.2359 13.9539 15.4968 14.0282 15.7276 13.9341 15.9583 13.8398 16.0939 13.6037 16.3651 13.1313L16.7237 12.5067C16.9779 12.0639 17.105 11.8425 17.0803 11.6068 17.0557 11.3712 16.8855 11.1813 16.5452 10.8014L15.7961 9.9608C15.613 9.7282 15.4831 9.3229 15.4831 8.9583 15.4831 8.5938 15.6131 8.1884 15.7962 7.9557L16.5452 7.1152C16.8855 6.7354 17.0557 6.5454 17.0803 6.3098 17.105 6.0741 16.9779 5.8527 16.7237 5.4099Z" stroke="currentColor" stroke-linecap="round" stroke-width="2"/>
  <path d="M18.3333 15C18.3333 15.775 18.3333 16.1625 18.2482 16.4804 18.017 17.3431 17.3431 18.017 16.4804 18.2482 16.1625 18.3333 15.775 18.3333 15 18.3333H5C4.225 18.3333 3.8375 18.3333 3.5196 18.2482 2.6569 18.017 1.983 17.3431 1.7519 16.4804 1.6667 16.1625 1.6667 15.775 1.6667 15" stroke="currentColor" stroke-linecap="round" stroke-width="2"/>
</svg>
