<svg xmlns="http://www.w3.org/2000/svg" width="20" height="20" viewBox="0 0 20 20" fill="none">
  <path d="M12.5 8.75C12.5 10.1308 11.3808 11.25 10 11.25 8.6193 11.25 7.5 10.1308 7.5 8.75 7.5 7.3693 8.6193 6.25 10 6.25 11.3808 6.25 12.5 7.3693 12.5 8.75Z" stroke="currentColor" stroke-width="2"/>
  <path d="M16.6779 10.3361C17.1162 10.2043 17.3353 10.1384 17.4177 10.0278 17.5 9.9171 17.5 9.7391 17.5 9.3832V8.1169C17.5 7.761 17.5 7.583 17.4177 7.4723 17.3353 7.3616 17.1162 7.2957 16.6779 7.164 15.2922 6.7477 14.4243 5.3104 14.7356 3.9199 14.8383 3.4612 14.8896 3.2318 14.8337 3.1059 14.7777 2.9801 14.6214 2.8919 14.309 2.7155L13.1626 2.0684C12.8577 1.8963 12.7053 1.8103 12.5698 1.8266 12.4343 1.8428 12.2703 1.9963 11.9423 2.3033 10.8624 3.3141 9.1387 3.314 8.0588 2.3032 7.7309 1.9962 7.5669 1.8427 7.4314 1.8265 7.2959 1.8102 7.1434 1.8963 6.8386 2.0684L5.6922 2.7154C5.3798 2.8918 5.2235 2.98 5.1676 3.1058 5.1116 3.2317 5.1629 3.4611 5.2656 3.9198 5.5767 5.3104 4.7081 6.7477 3.3221 7.1641 2.8838 7.2957 2.6647 7.3616 2.5823 7.4723 2.5 7.583 2.5 7.7609 2.5 8.1169V9.3832C2.5 9.7391 2.5 9.9171 2.5823 10.0278 2.6646 10.1385 2.8838 10.2043 3.3221 10.336 4.7079 10.7524 5.5758 12.1897 5.2644 13.5802 5.1617 14.0389 5.1104 14.2683 5.1663 14.3942 5.2223 14.52 5.3785 14.6082 5.691 14.7846L6.8374 15.4317C7.1423 15.6037 7.2947 15.6898 7.4302 15.6735 7.5658 15.6572 7.7297 15.5038 8.0576 15.1968 9.1381 14.1851 10.8631 14.185 11.9436 15.1968 12.2715 15.5037 12.4354 15.6572 12.5709 15.6734 12.7065 15.6897 12.8589 15.6037 13.1638 15.4316L14.3102 14.7845C14.6227 14.6081 14.7789 14.5199 14.8348 14.394 14.8908 14.2682 14.8394 14.0388 14.7367 13.5802 14.4252 12.1897 15.2924 10.7524 16.6779 10.3361Z" stroke="currentColor" stroke-linecap="round" stroke-width="2"/>
  <path d="M18.3333 15C18.3333 15.775 18.3333 16.1625 18.2482 16.4804 18.017 17.3431 17.3431 18.017 16.4804 18.2482 16.1625 18.3333 15.775 18.3333 15 18.3333H5C4.225 18.3333 3.8375 18.3333 3.5196 18.2482 2.6569 18.017 1.983 17.3431 1.7519 16.4804 1.6667 16.1625 1.6667 15.775 1.6667 15" stroke="currentColor" stroke-linecap="round" stroke-width="2"/>
</svg>
