<svg xmlns="http://www.w3.org/2000/svg" width="20" height="20" viewBox="0 0 20 20" fill="none">
  <path d="M3.3333 15.0008C2.2868 13.6079 1.6667 11.8763 1.6667 10 1.6667 5.3976 5.3976 1.6667 10 1.6667 14.6023 1.6667 18.3333 5.3976 18.3333 10 18.3333 11.8763 17.7132 13.6079 16.6667 15.0008" stroke="currentColor" stroke-linecap="round" stroke-width="2"/>
  <path d="M6.2732 13.3333C5.4814 12.4488 5 11.2806 5 10 5 7.2386 7.2386 5 10 5 12.7614 5 15 7.2386 15 10 15 11.2806 14.5186 12.4488 13.7268 13.3333" stroke="currentColor" stroke-linecap="round" stroke-width="2"/>
  <path d="M10 10V18.3333M7.5 18.3333H12.5" stroke="currentColor" stroke-linecap="round" stroke-width="2"/>
</svg>
