<svg xmlns="http://www.w3.org/2000/svg" width="20" height="20" viewBox="0 0 20 20" fill="none">
  <circle cx="10" cy="10" r="1.6666666666666667" stroke="currentColor" stroke-linecap="round" stroke-width="2"/>
  <path d="M3.3333 15.0008C2.2868 13.6079 1.6667 11.8763 1.6667 10 1.6667 5.3976 5.3976 1.6667 10 1.6667 14.6023 1.6667 18.3333 5.3976 18.3333 10 18.3333 11.8763 17.7132 13.6079 16.6667 15.0008" stroke="currentColor" stroke-linecap="round" stroke-width="2"/>
  <path d="M6.2732 13.3333C5.4814 12.4488 5 11.2806 5 10 5 7.2386 7.2386 5 10 5 12.7614 5 15 7.2386 15 10 15 11.2806 14.5186 12.4488 13.7268 13.3333" stroke="currentColor" stroke-linecap="round" stroke-width="2"/>
  <path d="M10 11.6667L10 15.8333" stroke="currentColor" stroke-linecap="round" stroke-width="2"/>
  <path d="M11.0519 15.8333H8.9481C8.7223 15.8333 8.6093 15.8333 8.5016 15.8486 8.2834 15.8793 8.0764 15.9562 7.8978 16.0727 7.8096 16.1303 7.7298 16.2019 7.5701 16.345 7.0448 16.8159 6.7822 17.0513 6.7131 17.2403 6.57 17.6314 6.7669 18.0577 7.1766 18.2436 7.3746 18.3333 7.746 18.3333 8.4888 18.3333H11.5113C12.2541 18.3333 12.6254 18.3333 12.8233 18.2436 13.2331 18.0577 13.43 17.6314 13.2869 17.2403 13.2178 17.0513 12.9552 16.8159 12.4299 16.345 12.2703 16.2019 12.1903 16.1303 12.1022 16.0727 11.9236 15.9562 11.7167 15.8793 11.4984 15.8486 11.3907 15.8333 11.2778 15.8333 11.0519 15.8333Z" stroke="currentColor" stroke-linecap="round" stroke-width="2"/>
</svg>
