<svg xmlns="http://www.w3.org/2000/svg" width="20" height="20" viewBox="0 0 20 20" fill="none">
  <path d="M11.6667 6.6667C11.6667 7.5871 10.9205 8.3333 10 8.3333 9.0795 8.3333 8.3333 7.5871 8.3333 6.6667 8.3333 5.7462 9.0795 5 10 5 10.9205 5 11.6667 5.7462 11.6667 6.6667Z" stroke="currentColor" stroke-width="2"/>
  <path d="M14.1323 4.1667C14.6822 4.8913 15 5.7483 15 6.6667 15 7.585 14.6822 8.442 14.1323 9.1667M5.8676 4.1667C5.3179 4.8913 5 5.7483 5 6.6667 5 7.585 5.3179 8.442 5.8676 9.1667" stroke="currentColor" stroke-linecap="round" stroke-linejoin="round" stroke-width="2"/>
  <path d="M16.9299 2.5C17.8163 3.6917 18.3333 5.1249 18.3333 6.6667 18.3333 8.2085 17.8163 9.6416 16.9299 10.8333M3.0701 2.5C2.1836 3.6917 1.6667 5.1249 1.6667 6.6667 1.6667 8.2085 2.1836 9.6416 3.0701 10.8333" stroke="currentColor" stroke-linecap="round" stroke-linejoin="round" stroke-width="2"/>
  <path d="M9.1667 8.3333L5.8333 17.5" stroke="currentColor" stroke-linecap="round" stroke-width="2"/>
  <path d="M14.1667 17.5L10.8333 8.3333" stroke="currentColor" stroke-linecap="round" stroke-width="2"/>
  <path d="M7.0833 14.1667H12.9167" stroke="currentColor" stroke-linecap="round" stroke-linejoin="round" stroke-width="2"/>
</svg>
