<svg xmlns="http://www.w3.org/2000/svg" width="20" height="20" viewBox="0 0 20 20" fill="none">
  <path d="M15.8333 7.9167V6.9167C15.8267 4.5809 15.7543 3.3427 14.9725 2.5454 14.111 1.6667 12.7245 1.6667 9.9513 1.6667L8.3827 1.6667C5.6096 1.6667 4.223 1.6667 3.3615 2.5454 2.5 3.424 2.5 4.8382 2.5 7.6667L2.5 11.5C2.5 14.3284 2.5 15.7427 3.3615 16.6213 4.1263 17.4013 5.3049 17.4889 7.5 17.4988" stroke="currentColor" stroke-linecap="round" stroke-width="2"/>
  <path d="M15.5628 16.4072L17.5 18.3333M16.6667 13.75C16.6667 11.6789 14.9878 10 12.9167 10 10.8456 10 9.1667 11.6789 9.1667 13.75 9.1667 15.8211 10.8456 17.5 12.9167 17.5 14.9878 17.5 16.6667 15.8211 16.6667 13.75Z" stroke="currentColor" stroke-linecap="round" stroke-linejoin="round" stroke-width="2"/>
  <path d="M5.8333 5.8333H12.5" stroke="currentColor" stroke-linecap="round" stroke-width="2"/>
  <path d="M5.8333 9.1667H8.3333" stroke="currentColor" stroke-linecap="round" stroke-width="2"/>
</svg>
