<svg xmlns="http://www.w3.org/2000/svg" width="20" height="20" viewBox="0 0 20 20" fill="none">
  <path d="M13.7006 17.7898L14.1608 17.2147C14.5651 16.7093 15.4238 16.75 15.7653 17.2907 16.1762 17.9413 17.191 17.8119 17.4724 17.2135 17.4871 17.1824 17.4504 17.2602 17.4818 16.991 17.513 16.7218 17.5 16.6603 17.4739 16.5373L15.8713 8.9701C15.4686 7.0683 15.2672 6.1174 14.5744 5.5587 13.8818 5 12.904 5 10.9487 5H9.0513C7.096 5 6.1183 5 5.4256 5.5587 4.7328 6.1174 4.5314 7.0683 4.1287 8.9701L2.5261 16.5373C2.5 16.6603 2.487 16.7218 2.5183 16.991 2.5495 17.2602 2.513 17.1824 2.5276 17.2135 2.809 17.8119 3.8238 17.9413 4.2347 17.2907 4.5763 16.75 5.4349 16.7093 5.8392 17.2147L6.2995 17.7898C6.8793 18.5145 8.0902 18.5145 8.67 17.7898L8.7423 17.6993C9.3576 16.9304 10.6424 16.9304 11.2577 17.6993L11.33 17.7898C11.9098 18.5145 13.1207 18.5145 13.7006 17.7898Z" stroke="currentColor" stroke-linejoin="round" stroke-width="2"/>
  <path d="M2.0695 7.9167C1.5817 7.41 1.6735 6.7574 1.6735 5.1265 1.6735 3.4955 1.6735 2.68 2.1613 2.1733 2.649 1.6667 3.4341 1.6667 5.0041 1.6667L14.996 1.6667C16.566 1.6667 17.3511 1.6667 17.8388 2.1733 18.3266 2.68 18.3266 3.4955 18.3266 5.1265 18.3266 6.7574 18.4178 7.41 17.9301 7.9167" stroke="currentColor" stroke-linecap="round" stroke-width="2"/>
  <path d="M10 8.3333H7.5" stroke="currentColor" stroke-linecap="round" stroke-linejoin="round" stroke-width="2"/>
  <path d="M11.6667 11.6667L6.6667 11.6667" stroke="currentColor" stroke-linecap="round" stroke-linejoin="round" stroke-width="2"/>
</svg>
