<svg xmlns="http://www.w3.org/2000/svg" width="20" height="20" viewBox="0 0 20 20" fill="none">
  <path d="M16.68 1.6667C15.7522 1.6667 15 3.9052 15 6.6667H16.68C17.4897 6.6667 17.8945 6.6667 18.1451 6.3871 18.3957 6.1076 18.3521 5.7394 18.2648 5.0032 18.0345 3.0595 17.4119 1.6667 16.68 1.6667Z" stroke="currentColor" stroke-width="2"/>
  <path d="M15 6.7119V15.5382C15 16.7979 15 17.4277 14.615 17.6757 13.9859 18.0809 13.0134 17.2312 12.5243 16.9228 12.1201 16.6678 11.9181 16.5404 11.6938 16.5331 11.4514 16.5251 11.2457 16.6473 10.8091 16.9228L9.2167 17.927C8.7871 18.1978 8.5723 18.3333 8.3333 18.3333 8.0943 18.3333 7.8796 18.1978 7.45 17.927L5.8576 16.9228C5.4535 16.6678 5.2514 16.5404 5.0271 16.5331 4.7848 16.5251 4.5791 16.6473 4.1424 16.9228 3.6533 17.2312 2.6807 18.0809 2.0516 17.6757 1.6667 17.4277 1.6667 16.7979 1.6667 15.5382V6.7119C1.6667 4.3335 1.6667 3.1444 2.3989 2.4055 3.1311 1.6667 4.3096 1.6667 6.6667 1.6667H16.6667" stroke="currentColor" stroke-linecap="round" stroke-linejoin="round" stroke-width="2"/>
  <path d="M8.3333 6.6667C7.4129 6.6667 6.6667 7.2263 6.6667 7.9167 6.6667 8.607 7.4129 9.1667 8.3333 9.1667 9.2538 9.1667 10 9.7263 10 10.4167 10 11.107 9.2538 11.6667 8.3333 11.6667M8.3333 6.6667C9.059 6.6667 9.6763 7.0145 9.9052 7.5M8.3333 6.6667V5.8333M8.3333 11.6667C7.6077 11.6667 6.9903 11.3188 6.7615 10.8333M8.3333 11.6667V12.5" stroke="currentColor" stroke-linecap="round" stroke-width="2"/>
</svg>
