<svg xmlns="http://www.w3.org/2000/svg" width="20" height="20" viewBox="0 0 20 20" fill="none">
  <path d="M16.25 11.25V8.75C16.25 5.6178 16.25 4.0518 15.4759 3.0062 15.3521 2.839 15.2156 2.6843 15.0681 2.544 14.1455 1.6667 12.7637 1.6667 10 1.6667 7.2363 1.6667 5.8545 1.6667 4.9319 2.544 4.7844 2.6843 4.6479 2.839 4.5241 3.0062 3.75 4.0518 3.75 5.6178 3.75 8.75V11.25C3.75 14.3822 3.75 15.9482 4.5241 16.9937 4.6479 17.161 4.7844 17.3157 4.9319 17.456 5.8545 18.3333 7.2363 18.3333 10 18.3333 12.7637 18.3333 14.1455 18.3333 15.0681 17.456 15.2156 17.3157 15.3521 17.161 15.4759 16.9937 16.25 15.9482 16.25 14.3822 16.25 11.25Z" stroke="currentColor" stroke-linecap="round" stroke-width="2"/>
  <path d="M12.5 13.3333C12.5 14.7141 11.3808 15.8333 10 15.8333 8.6193 15.8333 7.5 14.7141 7.5 13.3333 7.5 11.9526 8.6193 10.8333 10 10.8333 11.3808 10.8333 12.5 11.9526 12.5 13.3333Z" stroke="currentColor" stroke-width="2"/>
  <path d="M3.75 8.3333H16.25" stroke="currentColor" stroke-linecap="round" stroke-width="2"/>
</svg>
