<svg xmlns="http://www.w3.org/2000/svg" width="20" height="20" viewBox="0 0 20 20" fill="none">
  <path d="M1.6667 18.307C2.4581 18.307 3.2405 18.3794 3.8987 17.8663 4.5436 17.3638 5.5692 17.3803 6.1888 17.9035 6.8644 18.474 8.1398 18.4578 8.8308 17.9193 9.5011 17.3969 10.5174 17.3367 11.1888 17.9035 11.9255 18.5255 13.1669 18.4367 13.8987 17.8663 14.5436 17.3638 15.5692 17.3803 16.1888 17.9035 16.7856 18.4074 17.5998 18.307 18.3333 18.307" stroke="currentColor" stroke-linecap="round" stroke-linejoin="round" stroke-width="2"/>
  <path d="M6.6667 15.8333C7.6647 13.8407 9.5302 12.5 11.6667 12.5 13.8032 12.5 15.6686 13.8407 16.6667 15.8333" stroke="currentColor" stroke-linecap="round" stroke-linejoin="round" stroke-width="2"/>
  <path d="M9.1667 12.5847C6.6667 12.1207 4.4977 13.6138 3.3333 15.8333" stroke="currentColor" stroke-linecap="round" stroke-linejoin="round" stroke-width="2"/>
  <path d="M10 12.5C10 10 10.6667 5.9667 13.3333 4.1667" stroke="currentColor" stroke-linecap="round" stroke-linejoin="round" stroke-width="2"/>
  <path d="M12.917 1.6667C13.6463 1.6667 14.4187 2.581 13.3333 4.1667M13.3333 4.1667C13.9884 4.3613 16.0067 5.2663 15.819 7.5M13.3333 4.1667C12.8457 3.5797 11.0938 2.8334 10 4.0001M13.3333 4.1667C13.8167 4.7577 14.1667 6.6667 13.3333 7.5" stroke="currentColor" stroke-linecap="round" stroke-linejoin="round" stroke-width="2"/>
</svg>
