<svg xmlns="http://www.w3.org/2000/svg" width="20" height="20" viewBox="0 0 20 20" fill="none">
  <path d="M5.8373 1.7301V13.3333C5.8373 15.6903 5.8373 16.8688 6.5707 17.6011 7.3041 18.3333 8.4844 18.3333 10.8452 18.3333 13.2059 18.3333 14.3863 18.3333 15.1197 17.6011 15.8531 16.8688 15.8531 15.6903 15.8531 13.3333V6.0417C15.8531 5.2461 16.005 4.7977 16.4791 4.1667 16.8486 3.6747 17.8481 2.7145 17.3756 2.0281 17.1269 1.6667 16.4936 1.6667 15.2271 1.6667H8.3413C5.9805 1.6667 4.8001 1.6667 4.0667 2.3989 3.3333 3.1311 3.3333 4.3096 3.3333 6.6667V8.3333" stroke="currentColor" stroke-linecap="round" stroke-linejoin="round" stroke-width="2"/>
  <path d="M15.8333 6.6667H13.3333M15.8333 9.4444H13.3333M15.8333 12.2223H13.3333M15.4167 15H13.3333" stroke="currentColor" stroke-linecap="round" stroke-linejoin="round" stroke-width="2"/>
</svg>
