<svg xmlns="http://www.w3.org/2000/svg" width="20" height="20" viewBox="0 0 20 20" fill="none">
  <path d="M5.1457 8.6111C4.1395 8.9507 3.5171 9.42 3.5171 9.9384 3.5171 10.6453 4.6741 11.2608 6.3834 11.5808M6.3834 11.5808C5.7486 11.902 5.3689 12.3096 5.3689 12.7532 5.3689 13.7895 7.4417 14.6297 9.9986 14.6297 10.657 14.6297 11.2833 14.5739 11.8504 14.4735M6.3834 11.5808C7.1802 11.73 8.0971 11.8149 9.0727 11.8149 10.4955 11.8149 11.7934 11.6342 12.7763 11.3371M13.7022 8.4369C12.5258 8.7845 10.8863 9.0002 9.0727 9.0002 5.493 9.0002 2.5911 8.16 2.5911 7.1237 2.5911 6.3234 4.3214 5.6402 6.7578 5.3704" stroke="currentColor" stroke-linecap="round" stroke-linejoin="round" stroke-width="2"/>
  <path d="M18.3333 15.8916C18.3333 17.2402 14.6023 18.3333 10 18.3333 5.3976 18.3333 1.6667 17.2402 1.6667 15.8916 1.6667 14.9329 3.0894 14.1033 5.8333 13.7037" stroke="currentColor" stroke-linecap="round" stroke-width="2"/>
  <path d="M15.6326 7.3233C19.1453 6.412 19.6471 11.8802 14.6289 13.7032" stroke="currentColor" stroke-linecap="round" stroke-linejoin="round" stroke-width="2"/>
  <path d="M14.6318 1.6667C14.0144 1.7696 12.8538 2.3457 13.1502 3.8272 13.4465 5.3086 13.0268 6.0905 12.7799 6.2963" stroke="currentColor" stroke-linecap="round" stroke-linejoin="round" stroke-width="2"/>
  <path d="M10.9273 1.6667C10.31 1.7901 9.1494 2.4815 9.4458 4.2593 9.7421 6.037 9.3224 6.5124 9.0755 6.7593" stroke="currentColor" stroke-linecap="round" stroke-linejoin="round" stroke-width="2"/>
</svg>
