<svg xmlns="http://www.w3.org/2000/svg" width="20" height="20" viewBox="0 0 20 20" fill="none">
  <path d="M2.0833 10C2.0833 6.268 2.0833 4.4021 3.2427 3.2427 4.4021 2.0833 6.268 2.0833 10 2.0833 13.7319 2.0833 15.5979 2.0833 16.7573 3.2427 17.9167 4.4021 17.9167 6.268 17.9167 10 17.9167 13.7319 17.9167 15.5979 16.7573 16.7573 15.5979 17.9167 13.7319 17.9167 10 17.9167 6.268 17.9167 4.4021 17.9167 3.2427 16.7573 2.0833 15.5979 2.0833 13.7319 2.0833 10Z" stroke="currentColor" stroke-width="2"/>
  <path d="M9.777 10V13.3333C9.777 14.2538 9.0308 15 8.1104 15 7.4935 15 6.9548 14.6648 6.6667 14.1667" stroke="currentColor" stroke-linecap="round" stroke-width="2"/>
  <path d="M15.389 10.8333C15.1008 10.3352 14.5622 10 13.9453 10H13.5287C12.8383 10 12.2787 10.5597 12.2787 11.25 12.2787 11.9403 12.8383 12.5 13.5287 12.5H14.362C15.0523 12.5 15.612 13.0597 15.612 13.75 15.612 14.4403 15.0523 15 14.362 15H13.9453C13.3284 15 12.7897 14.6648 12.5016 14.1667" stroke="currentColor" stroke-linecap="round" stroke-width="2"/>
</svg>
