<svg xmlns="http://www.w3.org/2000/svg" width="20" height="20" viewBox="0 0 20 20" fill="none">
  <path d="M9.1721 17.9167H8.0046C5.0168 17.9167 3.523 17.9167 2.5948 16.9708 1.6667 16.0251 1.6667 14.5028 1.6667 11.4583 1.6667 8.4138 1.6667 6.8916 2.5948 5.9458 3.523 5 5.0168 5 8.0046 5H11.1735C14.1612 5 15.6551 5 16.5832 5.9458 17.2973 6.6735 17.462 7.7424 17.5 9.5833V10.8333" stroke="currentColor" stroke-linecap="round" stroke-width="2"/>
  <path d="M15.8333 15.4167H13.3333M13.3333 17.9167C11.9526 17.9167 10.8333 16.7974 10.8333 15.4167 10.8333 14.0359 11.9526 12.9167 13.3333 12.9167M15.8333 17.9167C17.2141 17.9167 18.3333 16.7974 18.3333 15.4167 18.3333 14.0359 17.2141 12.9167 15.8333 12.9167" stroke="currentColor" stroke-linecap="round" stroke-width="2"/>
  <path d="M13.3332 5L13.2503 4.7425C12.8378 3.4591 12.6316 2.8174 12.1405 2.4504 11.6495 2.0833 10.9973 2.0833 9.6928 2.0833H9.4735C8.169 2.0833 7.5168 2.0833 7.0257 2.4504 6.5347 2.8174 6.3284 3.4591 5.9159 4.7425L5.8331 5" stroke="currentColor" stroke-width="2"/>
</svg>
