<svg xmlns="http://www.w3.org/2000/svg" width="20" height="20" viewBox="0 0 20 20" fill="none">
  <path d="M9.1721 17.5001H8.0046C5.0168 17.5001 3.523 17.5001 2.5948 16.5543 1.6667 15.6085 1.6667 14.0863 1.6667 11.0418 1.6667 7.9973 1.6667 6.475 2.5948 5.5292 3.523 4.5834 5.0168 4.5834 8.0046 4.5834H11.1735C14.1612 4.5834 15.6551 4.5834 16.5832 5.5292 17.2973 6.2569 17.462 7.3258 17.5 9.1668" stroke="currentColor" stroke-linecap="round" stroke-width="2"/>
  <path d="M16.6806 16.6861L18.3332 18.3333M17.544 14.6054C17.544 12.9824 16.2283 11.6667 14.6052 11.6667 12.9822 11.6667 11.6665 12.9824 11.6665 14.6054 11.6665 16.2285 12.9822 17.5443 14.6052 17.5443 16.2283 17.5443 17.544 16.2285 17.544 14.6054Z" stroke="currentColor" stroke-linecap="round" stroke-linejoin="round" stroke-width="2"/>
  <path d="M13.3332 4.5833L13.2503 4.3258C12.8378 3.0424 12.6316 2.4007 12.1405 2.0337 11.6495 1.6667 10.9973 1.6667 9.6928 1.6667H9.4735C8.169 1.6667 7.5168 1.6667 7.0257 2.0337 6.5347 2.4007 6.3284 3.0424 5.9159 4.3258L5.8331 4.5833" stroke="currentColor" stroke-width="2"/>
</svg>
