<svg xmlns="http://www.w3.org/2000/svg" width="20" height="20" viewBox="0 0 20 20" fill="none">
  <path d="M9.1721 17.5001H8.0046C5.0168 17.5001 3.523 17.5001 2.5948 16.5543 1.6667 15.6085 1.6667 14.0863 1.6667 11.0418 1.6667 7.9973 1.6667 6.475 2.5948 5.5292 3.523 4.5834 5.0168 4.5834 8.0046 4.5834H11.1735C14.1612 4.5834 15.6551 4.5834 16.5832 5.5292 17.0476 6.0024 17.2797 6.6199 17.3956 7.5001" stroke="currentColor" stroke-linecap="round" stroke-width="2"/>
  <path d="M15.9651 16.5242C15.8807 16.6924 15.8333 16.8823 15.8333 17.0833 15.8333 17.7737 16.393 18.3333 17.0833 18.3333 17.7737 18.3333 18.3333 17.7737 18.3333 17.0833 18.3333 16.393 17.7737 15.8333 17.0833 15.8333 16.594 15.8333 16.1702 16.1146 15.9651 16.5242ZM15.9651 16.5242L13.2016 15.1425M15.9651 12.6425C16.1702 13.0521 16.594 13.3333 17.0833 13.3333 17.7737 13.3333 18.3333 12.7737 18.3333 12.0833 18.3333 11.393 17.7737 10.8333 17.0833 10.8333 16.393 10.8333 15.8333 11.393 15.8333 12.0833 15.8333 12.2843 15.8807 12.4742 15.9651 12.6425ZM15.9651 12.6425L13.2016 14.0242M13.2016 14.0242C12.9964 13.6146 12.5727 13.3333 12.0833 13.3333 11.393 13.3333 10.8333 13.893 10.8333 14.5833 10.8333 15.2737 11.393 15.8333 12.0833 15.8333 12.5727 15.8333 12.9964 15.5521 13.2016 15.1425M13.2016 14.0242C13.2859 14.1924 13.3333 14.3823 13.3333 14.5833 13.3333 14.7843 13.2859 14.9743 13.2016 15.1425" stroke="currentColor" stroke-width="2"/>
  <path d="M13.3332 4.5833L13.2503 4.3258C12.8378 3.0424 12.6316 2.4007 12.1405 2.0337 11.6495 1.6667 10.9973 1.6667 9.6928 1.6667H9.4735C8.169 1.6667 7.5168 1.6667 7.0257 2.0337 6.5347 2.4007 6.3284 3.0424 5.9159 4.3258L5.8331 4.5833" stroke="currentColor" stroke-width="2"/>
</svg>
