<svg xmlns="http://www.w3.org/2000/svg" width="20" height="20" viewBox="0 0 20 20" fill="none">
  <path d="M6.6668 18.3335H15.0002C16.5715 18.3335 17.3572 18.3335 17.8453 17.8454 18.3335 17.3573 18.3335 16.5716 18.3335 15.0002V14.1668C18.3335 12.5955 18.3335 11.8098 17.8453 11.3217 17.3572 10.8335 16.5715 10.8335 15.0002 10.8335L12.5002 10.8335C10.9288 10.8335 10.1432 10.8335 9.655 10.3454 9.1668 9.8573 9.1668 9.0716 9.1668 7.5002V5.0002C9.1668 3.4289 9.1668 2.6432 8.6787 2.155 8.1905 1.6669 7.4048 1.6669 5.8335 1.6669L5.0002 1.6669C3.4288 1.6669 2.6431 1.6669 2.155 2.155 1.6668 2.6432 1.6668 3.4289 1.6668 5.0002L1.6668 13.3335C1.6668 15.6906 1.6668 16.8691 2.399 17.6013 3.1313 18.3335 4.3098 18.3335 6.6668 18.3335Z" stroke="currentColor" stroke-linecap="round" stroke-linejoin="round" stroke-width="2"/>
</svg>
