<svg xmlns="http://www.w3.org/2000/svg" width="20" height="20" viewBox="0 0 20 20" fill="none">
  <path d="M13.3331 18.3333H14.9998C16.5711 18.3333 17.3568 18.3333 17.8449 17.8452 18.3331 17.357 18.3331 16.5713 18.3331 15V14.1667C18.3331 12.5953 18.3331 11.8097 17.8449 11.3215 17.3568 10.8333 16.5711 10.8333 14.9998 10.8333L12.4998 10.8333C10.9283 10.8333 10.1427 10.8333 9.6546 10.3452 9.1664 9.857 9.1664 9.0713 9.1664 7.5V5C9.1664 3.4286 9.1664 2.643 8.6783 2.1548 8.1901 1.6667 7.4044 1.6667 5.8331 1.6667L4.9997 1.6667C3.4284 1.6667 2.6427 1.6667 2.1545 2.1548 1.6664 2.643 1.6664 3.4286 1.6664 5L1.6664 6.6667C1.6664 12.1664 1.6664 14.9162 3.3749 16.6248 5.0835 18.3333 7.8333 18.3333 13.3331 18.3333Z" stroke="currentColor" stroke-linecap="round" stroke-linejoin="round" stroke-width="2"/>
</svg>
