<svg xmlns="http://www.w3.org/2000/svg" width="20" height="20" viewBox="0 0 20 20" fill="none">
  <path d="M12.5 10.8333L15 10.8333C16.5713 10.8333 17.357 10.8333 17.8452 11.3215 18.3333 11.8097 18.3333 12.5953 18.3333 14.1667V15C18.3333 16.5713 18.3333 17.357 17.8452 17.8452 17.357 18.3333 16.5713 18.3333 15 18.3333H8.8808C8.1995 18.3333 7.8588 18.3333 7.5526 18.2065 7.2463 18.0796 7.0054 17.8388 6.5237 17.357L2.643 13.4763C2.1613 12.9946 1.9204 12.7538 1.7935 12.4474 1.6667 12.1412 1.6667 11.8005 1.6667 11.1193L1.6667 5C1.6667 3.4286 1.6667 2.643 2.1548 2.1548 2.643 1.6667 3.4286 1.6667 5 1.6667L5.8333 1.6667C7.4047 1.6667 8.1904 1.6667 8.6785 2.1548 9.1667 2.643 9.1667 3.4286 9.1667 5V7.5C9.1667 9.0713 9.1667 9.857 9.6548 10.3452 10.143 10.8333 10.9287 10.8333 12.5 10.8333Z" stroke="currentColor" stroke-linecap="round" stroke-linejoin="round" stroke-width="2"/>
</svg>
