<svg xmlns="http://www.w3.org/2000/svg" width="20" height="20" viewBox="0 0 20 20" fill="none">
  <path d="M12.8957 18.3333H7.1043C6.0949 18.3333 5.5901 18.3333 5.3193 18.126 5.1575 18.0021 5.0484 17.8343 5.0098 17.6496 4.945 17.3406 5.2047 16.9635 5.7241 16.2093 6.2795 15.4027 6.5573 14.9993 6.9543 14.7204 7.1981 14.5492 7.4725 14.4138 7.7664 14.3198 8.2452 14.1667 8.7851 14.1667 9.8648 14.1667H10.1353C11.2149 14.1667 11.7548 14.1667 12.2336 14.3198 12.5275 14.4138 12.8018 14.5492 13.0457 14.7204 13.4428 14.9993 13.7205 15.4027 14.2759 16.2093 14.7953 16.9635 15.055 17.3406 14.9902 17.6496 14.9516 17.8343 14.8425 18.0021 14.6807 18.126 14.4098 18.3333 13.9052 18.3333 12.8957 18.3333Z" stroke="currentColor" stroke-linecap="round" stroke-linejoin="round" stroke-width="2"/>
  <path d="M7.0833 10H12.9167" stroke="currentColor" stroke-linecap="round" stroke-linejoin="round" stroke-width="2"/>
  <path d="M10 10.8333L10 14.1667" stroke="currentColor" stroke-linecap="round" stroke-linejoin="round" stroke-width="2"/>
  <path d="M8.3387 10C8.3387 10 9.1987 5.1152 7.6419 2.849 7.1871 2.1871 7.9341 1.9168 8.3588 1.7972 9.9615 1.3456 10.9306 2.0895 11.2984 3.6596 11.3372 3.8253 11.3138 3.9991 11.2428 4.154L11.0288 4.6205C10.9193 4.8594 10.9294 5.1356 11.0563 5.3659L11.4632 6.1051C11.6059 6.3643 11.5998 6.6792 11.4472 6.9328L11.1349 7.4514C10.9646 7.7343 10.982 8.0896 11.1235 8.3878 11.4633 9.1033 11.6667 10 11.6667 10" stroke="currentColor" stroke-linecap="round" stroke-linejoin="round" stroke-width="2"/>
</svg>
