<svg xmlns="http://www.w3.org/2000/svg" width="20" height="20" viewBox="0 0 20 20" fill="none">
  <path d="M12.9167 4.5833C12.9167 6.1942 11.6108 7.5 10 7.5 8.3892 7.5 7.0833 6.1942 7.0833 4.5833 7.0833 2.9725 8.3892 1.6667 10 1.6667 11.6108 1.6667 12.9167 2.9725 12.9167 4.5833Z" stroke="currentColor" stroke-width="2"/>
  <path d="M10 7.5L10 11.6667" stroke="currentColor" stroke-linecap="round" stroke-linejoin="round" stroke-width="2"/>
  <path d="M13.3333 14.1667H6.6667L6.898 13.6462C7.325 12.6854 7.5385 12.205 7.9527 11.9358 8.3669 11.6667 8.8926 11.6667 9.944 11.6667H10.056C11.1074 11.6667 11.6331 11.6667 12.0473 11.9358 12.4615 12.205 12.675 12.6854 13.102 13.6462L13.3333 14.1667Z" stroke="currentColor" stroke-linecap="round" stroke-linejoin="round" stroke-width="2"/>
  <path d="M14.3242 18.3333H5.8293C5.0733 18.3333 4.6952 18.3333 4.4818 18.1227 4.3051 17.9483 4.1918 17.6858 4.1692 17.3981 4.1419 17.0505 4.3378 16.6284 4.7297 15.7842 5.0069 15.1869 5.1455 14.8883 5.3366 14.6729 5.4975 14.4916 5.6845 14.3541 5.8866 14.2684 6.1267 14.1667 6.3941 14.1667 6.929 14.1667H13.2042C13.7456 14.1667 14.0163 14.1667 14.2563 14.2683 14.5066 14.3742 14.7329 14.5593 14.9152 14.8072 15.0898 15.0448 15.2079 15.3628 15.4442 15.9991 15.7192 16.7397 15.8567 17.11 15.8301 17.4112 15.8025 17.7231 15.6686 18.0022 15.4657 18.1707 15.2698 18.3333 14.9546 18.3333 14.3242 18.3333Z" stroke="currentColor" stroke-linecap="round" stroke-linejoin="round" stroke-width="2"/>
</svg>
