<svg xmlns="http://www.w3.org/2000/svg" width="20" height="20" viewBox="0 0 20 20" fill="none">
  <path d="M9.1667 4.1667C9.1667 5.5474 8.0474 6.6667 6.6667 6.6667 5.286 6.6667 4.1667 5.5474 4.1667 4.1667 4.1667 2.786 5.286 1.6667 6.6667 1.6667 8.0474 1.6667 9.1667 2.786 9.1667 4.1667Z" stroke="currentColor" stroke-width="2"/>
  <path d="M6.6667 6.6667L6.6667 13.3333" stroke="currentColor" stroke-linecap="round" stroke-linejoin="round" stroke-width="2"/>
  <path d="M14.1667 10.8333L11.6667 10.8333" stroke="currentColor" stroke-linecap="round" stroke-linejoin="round" stroke-width="2"/>
  <path d="M15.7322 18.3333H4.2678C4.1739 18.3333 4.127 18.3333 4.0873 18.3314 3.2292 18.2905 2.5428 17.6041 2.5019 16.746 2.5 16.7064 2.5 16.6594 2.5 16.5656 2.5 16.5244 2.5 16.5038 2.5005 16.484 2.5104 16.0695 2.6743 15.6737 2.9604 15.3736 2.9741 15.3593 2.9887 15.3447 3.0178 15.3156L3.5355 14.7978C4.2581 14.0753 4.6194 13.7139 5.0788 13.5237 5.5383 13.3333 6.0492 13.3333 7.0711 13.3333H12.9289C13.9508 13.3333 14.4618 13.3333 14.9212 13.5237 15.3806 13.7139 15.7419 14.0753 16.4645 14.7978L16.9823 15.3156C17.0113 15.3447 17.0259 15.3593 17.0396 15.3736 17.3257 15.6737 17.4897 16.0695 17.4995 16.484 17.5 16.5038 17.5 16.5244 17.5 16.5656 17.5 16.6594 17.5 16.7064 17.4981 16.746 17.4572 17.6041 16.7707 18.2905 15.9127 18.3314 15.8731 18.3333 15.8261 18.3333 15.7322 18.3333Z" stroke="currentColor" stroke-linecap="round" stroke-linejoin="round" stroke-width="2"/>
</svg>
