<svg xmlns="http://www.w3.org/2000/svg" width="20" height="20" viewBox="0 0 20 20" fill="none">
  <path d="M12.9167 4.5833C12.9167 6.1942 11.6108 7.5 10 7.5 8.3892 7.5 7.0833 6.1942 7.0833 4.5833 7.0833 2.9725 8.3892 1.6667 10 1.6667 11.6108 1.6667 12.9167 2.9725 12.9167 4.5833Z" stroke="currentColor" stroke-width="2"/>
  <path d="M14.7862 18.3333H5.2139C5.0152 18.3333 4.916 18.3333 4.8323 18.3249 4.0445 18.2453 3.4215 17.6222 3.3418 16.8343 3.3333 16.7508 3.3333 16.6514 3.3333 16.4528 3.3333 16.3316 3.3333 16.2709 3.3361 16.2123 3.3613 15.6759 3.5585 15.162 3.8986 14.7465 3.9358 14.701 3.9763 14.6559 4.0575 14.5658L5.177 13.3218C5.9106 12.5068 6.2774 12.0992 6.763 11.8829 7.2485 11.6667 7.7969 11.6667 8.8935 11.6667H11.1065C12.2032 11.6667 12.7515 11.6667 13.237 11.8829 13.7226 12.0992 14.0894 12.5068 14.823 13.3218L15.9426 14.5658C16.0237 14.6559 16.0643 14.701 16.1014 14.7465 16.4414 15.162 16.6387 15.6759 16.6639 16.2123 16.6667 16.2709 16.6667 16.3316 16.6667 16.4528 16.6667 16.6514 16.6667 16.7508 16.6582 16.8343 16.5786 17.6222 15.9555 18.2453 15.1677 18.3249 15.0841 18.3333 14.9848 18.3333 14.7862 18.3333Z" stroke="currentColor" stroke-linecap="round" stroke-linejoin="round" stroke-width="2"/>
  <path d="M8.3333 15.8333H11.6667" stroke="currentColor" stroke-linecap="round" stroke-width="2"/>
  <path d="M10 7.5V13.3333" stroke="currentColor" stroke-linecap="round" stroke-width="2"/>
</svg>
