<svg xmlns="http://www.w3.org/2000/svg" width="20" height="20" viewBox="0 0 20 20" fill="none">
  <path d="M16.6667 10.8333V8.8806C16.6667 8.1994 16.6667 7.8587 16.5398 7.5524 16.4129 7.2462 16.1721 7.0053 15.6903 6.5236L11.7433 2.5765C11.3275 2.1607 11.1197 1.9529 10.8621 1.8297 10.8085 1.8041 10.7537 1.7813 10.6977 1.7616 10.4284 1.6666 10.1345 1.6666 9.5465 1.6666 6.8424 1.6666 5.4903 1.6666 4.5744 2.405 4.3894 2.5541 4.2209 2.7227 4.0717 2.9077 3.3333 3.8235 3.3333 5.1756 3.3333 7.8798V10.8333M10.8333 2.0832V2.4999C10.8333 4.8569 10.8333 6.0354 11.5656 6.7677 12.2978 7.4999 13.4763 7.4999 15.8333 7.4999H16.25" stroke="currentColor" stroke-linecap="round" stroke-linejoin="round" stroke-width="2"/>
  <path d="M16.6667 14.1666C16.6667 13.7063 16.2936 13.3333 15.8333 13.3333H14.1667C13.7064 13.3333 13.3333 13.7063 13.3333 14.1666V17.4999C13.3333 17.9602 13.7064 18.3332 14.1667 18.3332H15.8333C16.2936 18.3332 16.6667 17.9602 16.6667 17.4999V16.2499H15.5556M3.3333 16.6666V16.8749C3.3333 17.6803 3.9863 18.3332 4.7917 18.3332 5.5971 18.3332 6.25 17.6803 6.25 16.8749V13.3333M8.3333 18.3332V15.8333M8.3333 15.8333V14.1666C8.3333 13.7063 8.7064 13.3333 9.1667 13.3333H10C10.6903 13.3333 11.25 13.8929 11.25 14.5833 11.25 15.2736 10.6903 15.8333 10 15.8333H8.3333Z" stroke="currentColor" stroke-linecap="round" stroke-linejoin="round" stroke-width="2"/>
</svg>
