<svg xmlns="http://www.w3.org/2000/svg" width="20" height="20" viewBox="0 0 20 20" fill="none">
  <path d="M13.0515 11.6667H12.0763C11.6161 11.6667 11.243 12.0397 11.243 12.5V12.9167C11.243 13.3769 11.6161 13.75 12.0763 13.75H12.2182C12.6783 13.75 13.0515 14.1231 13.0515 14.5833V15C13.0515 15.4603 12.6783 15.8333 12.2182 15.8333H11.243M9.1667 11.6667V14.5833C9.1667 15.2737 8.607 15.8333 7.9167 15.8333 7.2263 15.8333 6.6667 15.2737 6.6667 14.5833V14.1667M17.5 15.8333L16.25 13.75M16.25 13.75L15 11.6667M16.25 13.75L17.5 11.6667M16.25 13.75L15 15.8333" stroke="currentColor" stroke-linecap="round" stroke-linejoin="round" stroke-width="2"/>
  <path d="M15.8333 9.1667C15.8333 8.4854 15.8333 7.8588 15.7065 7.5526 15.5796 7.2463 15.3388 7.0054 14.857 6.5237L10.9099 2.5766C10.4942 2.1608 10.2863 1.953 10.0288 1.8298 9.9752 1.8042 9.9203 1.7814 9.8643 1.7617 9.5951 1.6667 9.3012 1.6667 8.7132 1.6667 6.009 1.6667 4.6569 1.6667 3.7411 2.4051 3.5561 2.5542 3.3876 2.7228 3.2384 2.9078 2.5 3.8236 2.5 5.1757 2.5 7.8799V11.6667C2.5 14.8093 2.5 16.3808 3.4763 17.357 4.4526 18.3333 6.024 18.3333 9.1667 18.3333H15.8333M10 2.0833V2.5C10 4.857 10 6.0355 10.7323 6.7678 11.4645 7.5 12.643 7.5 15 7.5H15.4167" stroke="currentColor" stroke-linecap="round" stroke-linejoin="round" stroke-width="2"/>
</svg>
