<svg xmlns="http://www.w3.org/2000/svg" width="20" height="20" viewBox="0 0 20 20" fill="none">
  <path d="M6.6667 13.75C7.5871 13.75 8.3333 13.1903 8.3333 12.5 8.3333 11.8097 7.5871 11.25 6.6667 11.25 5.7462 11.25 5 11.8097 5 12.5 5 13.1903 5.7462 13.75 6.6667 13.75Z" stroke="currentColor" stroke-linecap="round" stroke-linejoin="round" stroke-width="2"/>
  <path d="M17.7268 13.1268C14.7204 13.1223 12.2578 13.6337 9.5833 15.4167 8.2642 16.2961 7.0041 16.8855 5.9235 17.2699M17.7268 13.1268C18.1179 12.1613 18.3333 11.1058 18.3333 10 18.3333 9.8033 18.3265 9.6082 18.3131 9.4148M17.7268 13.1268C16.4902 16.1798 13.4966 18.3333 10 18.3333 8.5193 18.3333 7.1287 17.9471 5.9235 17.2699M18.3131 9.4148C14.0857 11.873 11.9458 10.9267 7.5 8.3333 5.4689 7.1485 3.5668 7.1311 2.0226 7.5829M18.3131 9.4148C18.2607 8.6583 18.1072 7.9296 17.8662 7.2421M17.8662 7.2421C16.7278 3.9951 13.6358 1.6667 10 1.6667 7.8876 1.6667 5.9588 2.4526 4.4901 3.748M17.8662 7.2421C14.4823 7.2421 14.5833 3.9791 10 5 7 5.6683 5.2156 4.3049 4.4901 3.748M4.4901 3.748C3.3432 4.7596 2.4769 6.0817 2.0226 7.5829M2.0226 7.5829C1.7911 8.3479 1.6667 9.1594 1.6667 10 1.6667 13.1216 3.383 15.8423 5.9235 17.2699" stroke="currentColor" stroke-linecap="round" stroke-linejoin="round" stroke-width="2"/>
</svg>
