<svg xmlns="http://www.w3.org/2000/svg" width="20" height="20" viewBox="0 0 20 20" fill="none">
  <path d="M10 4.1667V18.3333M10 18.3333H7.5M10 18.3333H12.5" stroke="currentColor" stroke-linecap="round" stroke-linejoin="round" stroke-width="2"/>
  <path d="M17.5 10.8333L15.4167 6.6667 13.3333 10.8333" stroke="currentColor" stroke-linecap="round" stroke-linejoin="round" stroke-width="2"/>
  <path d="M6.6667 10.8333L4.5833 6.6667 2.5 10.8333" stroke="currentColor" stroke-linecap="round" stroke-linejoin="round" stroke-width="2"/>
  <path d="M3.3333 6.6667H4.2068C5.2597 6.6667 6.2813 6.2258 7.1034 5.4167 8.7968 3.75 11.2032 3.75 12.8966 5.4167 13.7188 6.2258 14.7403 6.6667 15.7932 6.6667H16.6667" stroke="currentColor" stroke-linecap="round" stroke-linejoin="round" stroke-width="2"/>
  <path d="M15.4167 14.1667C16.5456 14.1667 17.5287 13.4719 18.0394 12.4458 18.315 11.8918 18.4528 11.6149 18.2013 11.2242 17.9497 10.8333 17.5333 10.8333 16.7006 10.8333H14.1327C13.3 10.8333 12.8837 10.8333 12.6321 11.2242 12.3805 11.6149 12.5183 11.8918 12.7939 12.4458 13.3047 13.4719 14.2877 14.1667 15.4167 14.1667Z" stroke="currentColor" stroke-width="2"/>
  <path d="M4.5833 14.1667C5.7123 14.1667 6.6954 13.4719 7.206 12.4458 7.4817 11.8918 7.6195 11.6149 7.3679 11.2242 7.1163 10.8333 6.7 10.8333 5.8673 10.8333H3.2994C2.4667 10.8333 2.0503 10.8333 1.7987 11.2242 1.5472 11.6149 1.685 11.8918 1.9606 12.4458 2.4713 13.4719 3.4544 14.1667 4.5833 14.1667Z" stroke="currentColor" stroke-width="2"/>
  <path d="M11.25 2.9167C11.25 3.607 10.6903 4.1667 10 4.1667 9.3097 4.1667 8.75 3.607 8.75 2.9167 8.75 2.2263 9.3097 1.6667 10 1.6667 10.6903 1.6667 11.25 2.2263 11.25 2.9167Z" stroke="currentColor" stroke-width="2"/>
</svg>
