<svg xmlns="http://www.w3.org/2000/svg" width="20" height="20" viewBox="0 0 20 20" fill="none">
  <path d="M17.5 18.3333V4.1667C17.5 2.9882 17.5 2.3989 17.1339 2.0328 16.7678 1.6667 16.1785 1.6667 15 1.6667H5C3.8215 1.6667 3.2322 1.6667 2.8661 2.0328 2.5 2.3989 2.5 2.9882 2.5 4.1667V18.3333" stroke="currentColor" stroke-linecap="round" stroke-linejoin="round" stroke-width="2"/>
  <path d="M5.8333 14.1667C5.8333 13.381 5.8333 12.9882 6.0774 12.7441 6.3215 12.5 6.7143 12.5 7.5 12.5H8.3333C9.119 12.5 9.5118 12.5 9.7559 12.7441 10 12.9882 10 13.381 10 14.1667V18.3333H5.8333V14.1667Z" stroke="currentColor" stroke-linecap="round" stroke-linejoin="round" stroke-width="2"/>
  <path d="M1.6667 18.3333H18.3333" stroke="currentColor" stroke-linecap="round" stroke-linejoin="round" stroke-width="2"/>
  <path d="M2.5 5H17.5" stroke="currentColor" stroke-linecap="round" stroke-linejoin="round" stroke-width="2"/>
  <path d="M2.5 15.8333H5.8333" stroke="currentColor" stroke-linecap="round" stroke-linejoin="round" stroke-width="2"/>
  <path d="M10 15.8333L17.5 15.8333" stroke="currentColor" stroke-linecap="round" stroke-linejoin="round" stroke-width="2"/>
  <path d="M2.9167 7.5H4.5833M7.0833 7.5H8.75M11.25 7.5H12.9167M15.4167 7.5H17.0833" stroke="currentColor" stroke-linecap="round" stroke-linejoin="round" stroke-width="2"/>
</svg>
