<svg xmlns="http://www.w3.org/2000/svg" width="20" height="20" viewBox="0 0 20 20" fill="none">
  <path d="M17.3498 2.6505C9.1043 1.2496 1.726 9.6795 2.5272 17.4372 10.3038 18.2363 18.7542 10.876 17.3498 2.6505Z" stroke="currentColor" stroke-linecap="round" stroke-linejoin="round" stroke-width="2"/>
  <path d="M5.7992 14.1634H5.8066" stroke="currentColor" stroke-linecap="round" stroke-linejoin="round" stroke-width="2"/>
  <path d="M14.1325 5.8301H14.14" stroke="currentColor" stroke-linecap="round" stroke-linejoin="round" stroke-width="2"/>
  <path d="M7.9132 12.0651C7.3362 11.4896 7.3362 10.5565 7.9132 9.981L9.9708 7.9284C10.5477 7.3529 11.483 7.3529 12.0599 7.9284 12.6369 8.5039 12.6369 9.437 12.0599 10.0125L10.0023 12.0651C9.4254 12.6407 8.4901 12.6407 7.9132 12.0651Z" stroke="currentColor" stroke-linecap="round" stroke-linejoin="round" stroke-width="2"/>
  <path d="M4.7985 4.7367C4.9004 2.7438 4.352 1.9416 3.8364 1.7151 3.5385 1.5842 3.2144 1.75 2.9517 1.9417 2.4573 2.3025 2.1856 2.571 1.8634 3.0667 1.6991 3.3195 1.5941 3.6339 1.7246 3.9057 2.162 4.8171 3.9041 4.9498 4.7985 4.7367ZM4.7985 4.7367L15.2 15.2647M15.2 15.2647C15.0993 17.2576 15.6483 18.0595 16.164 18.2857 16.462 18.4163 16.786 18.2504 17.0486 18.0585 17.5428 17.6973 17.8143 17.4288 18.1362 16.9328 18.3003 16.6798 18.4051 16.3654 18.2745 16.0938 17.8364 15.1826 16.0942 15.051 15.2 15.2647Z" stroke="currentColor" stroke-linecap="round" stroke-linejoin="round" stroke-width="2"/>
</svg>
