<svg xmlns="http://www.w3.org/2000/svg" width="20" height="20" viewBox="0 0 20 20" fill="none">
  <path d="M5 4.1667H15" stroke="currentColor" stroke-linecap="round" stroke-width="2"/>
  <path d="M14.6833 6.5281C14.0555 3.6702 12.4944 1.6667 10 1.6667 7.5056 1.6667 5.9445 3.6702 5.3167 6.5281 4.8884 8.4778 3.9507 10.297 2.9595 12.0253 2.6836 12.5063 2.5 12.9962 2.5 13.443 2.5 14.3107 3.1652 15.1785 3.8093 16.1618 4.7162 17.5461 5.1696 18.2383 5.4741 18.3211 5.7785 18.4038 6.4547 18.0654 7.8069 17.3887 8.501 17.0413 9.2373 16.8077 10 16.8077 10.7627 16.8077 11.499 17.0413 12.1931 17.3887 13.5453 18.0654 14.2215 18.4038 14.5259 18.3211 14.8303 18.2383 15.2838 17.5461 16.1908 16.1618 16.8348 15.1785 17.5 14.3107 17.5 13.443 17.5 12.9962 17.3163 12.5063 17.0406 12.0253 16.0493 10.297 15.1116 8.4778 14.6833 6.5281Z" stroke="currentColor" stroke-linejoin="round" stroke-width="2"/>
  <path d="M5.4167 18.3333C5.8466 17.1633 6.3141 14.4701 5.8083 13.1885 5.4473 12.2738 5.8953 11.3592 6.4863 10.6511 6.8636 10.1991 7.1515 9.6729 7.3067 9.1021 7.7494 7.4738 8.6603 6.6667 10 6.6667 11.3398 6.6667 12.2507 7.4738 12.6933 9.1021 12.8485 9.6729 13.1364 10.1991 13.5137 10.6511 14.1047 11.3592 14.5527 12.2738 14.1917 13.1885 13.6859 14.4701 14.1534 17.1633 14.5833 18.3333" stroke="currentColor" stroke-width="2"/>
</svg>
