<svg xmlns="http://www.w3.org/2000/svg" width="20" height="20" viewBox="0 0 20 20" fill="none">
  <path d="M5.8333 5.8333L4.0317 6.2443C2.7779 6.5304 2.151 6.6734 1.8435 7.2075 1.536 7.7415 1.6699 8.4546 1.9378 9.8808L2.3094 11.8588C2.6624 13.7377 3.6202 14.3704 5 15" stroke="currentColor" stroke-linecap="round" stroke-width="2"/>
  <path d="M5.9505 6.4846L5.0934 15.4849C4.9664 16.8178 4.903 17.4841 5.3494 17.9088 5.7959 18.3333 6.5602 18.3333 8.0886 18.3333H13.5781C15.1065 18.3333 15.8707 18.3333 16.3173 17.9088 16.7637 17.4841 16.7003 16.8178 16.5733 15.4849L15.7162 6.4846C15.4512 3.7015 13.3995 2.5 10.8333 2.5 8.2672 2.5 6.2155 3.7015 5.9505 6.4846Z" stroke="currentColor" stroke-linecap="round" stroke-width="2"/>
  <path d="M6.6667 5.8333H17.4818C18.1979 5.8333 18.4464 6.0238 18.2871 6.8671 18.0174 8.2945 17.2018 9.4592 16.1298 10" stroke="currentColor" stroke-linecap="round" stroke-linejoin="round" stroke-width="2"/>
  <path d="M10 14.1667C10 11.6667 11.6667 12.5 11.6667 10" stroke="currentColor" stroke-linecap="round" stroke-width="2"/>
  <path d="M10.8333 2.5V1.6667" stroke="currentColor" stroke-linecap="round" stroke-width="2"/>
</svg>
