<svg xmlns="http://www.w3.org/2000/svg" width="20" height="20" viewBox="0 0 20 20" fill="none">
  <path d="M11.2498 11.25C12.6035 11.8302 13.2804 12.1203 13.9628 12.0293 14.0398 12.0189 14.1163 12.0051 14.1921 11.9877 14.8631 11.8336 15.3952 11.3245 16.4594 10.3063L16.5843 10.1868C17.3912 9.3799 17.7948 8.9764 17.8927 8.1529 17.9907 7.3293 17.7804 6.9851 17.3598 6.2969 16.9861 5.6854 16.4643 4.9883 15.7379 4.2619 15.0116 3.5356 14.3144 3.0138 13.7029 2.6401 13.0147 2.2194 12.6706 2.0091 11.847 2.1071 11.0234 2.2051 10.6199 2.6086 9.813 3.4155L9.6935 3.5404C8.6754 4.6046 8.1663 5.1368 8.0122 5.8078 7.9948 5.8835 7.981 5.9599 7.9707 6.0369 7.8797 6.7193 8.1698 7.3962 8.75 8.75" stroke="currentColor" stroke-linecap="round" stroke-linejoin="round" stroke-width="2"/>
  <path d="M8.7502 8.7492L2.0835 15.4164V17.9164H4.5835V16.2498H6.2502V14.5831H7.9168L11.2502 11.2498" stroke="currentColor" stroke-linecap="round" stroke-linejoin="round" stroke-width="2"/>
  <path d="M14.1668 5.8333L13.3335 6.6667" stroke="currentColor" stroke-linecap="round" stroke-linejoin="round" stroke-width="2"/>
</svg>
