<svg xmlns="http://www.w3.org/2000/svg" width="20" height="20" viewBox="0 0 20 20" fill="none">
  <path d="M4.1688 11.0909C3.6118 10.5874 3.3333 10.3358 3.3333 10 3.3333 9.6642 3.6118 9.4126 4.1688 8.9091L5.5386 7.671C6.2793 7.0014 6.6496 6.6667 7.0833 6.6667 7.5171 6.6667 7.8874 7.0014 8.6281 7.671L9.9979 8.9091C10.5548 9.4126 10.8333 9.6642 10.8333 10 10.8333 10.3358 10.5548 10.5874 9.9979 11.0909L8.6281 12.329C7.8874 12.9986 7.5171 13.3333 7.0833 13.3333 6.6496 13.3333 6.2793 12.9986 5.5386 12.329L4.1688 11.0909Z" stroke="currentColor" stroke-width="2"/>
  <path d="M13.3333 10H16.6667M16.6667 17.5L16.6667 2.5" stroke="currentColor" stroke-linecap="round" stroke-linejoin="round" stroke-width="2"/>
</svg>
