<svg xmlns="http://www.w3.org/2000/svg" width="20" height="20" viewBox="0 0 20 20" fill="none">
  <path d="M11.6685 3.75C11.9814 3.4722 12.2487 3.3333 12.5568 3.3333 13.1387 3.3333 13.5748 3.8284 14.4473 4.8186L16.5929 7.2537C17.7532 8.5706 18.3333 9.2289 18.3333 10 18.3333 10.7711 17.7532 11.4294 16.5929 12.7463L14.4473 15.1814C13.5748 16.1716 13.1387 16.6667 12.5568 16.6667 12.2487 16.6667 11.9814 16.5278 11.6685 16.25" stroke="currentColor" stroke-linecap="round" stroke-width="2"/>
  <path d="M5.8333 4.5332C6.5516 3.7333 6.9616 3.3333 7.4905 3.3333 8.079 3.3333 8.5203 3.8284 9.4027 4.8186L11.5729 7.2537C12.7466 8.5706 13.3333 9.2289 13.3333 10 13.3333 10.7711 12.7466 11.4294 11.573 12.7463L9.4027 15.1814C8.5203 16.1716 8.079 16.6667 7.4905 16.6667 6.9616 16.6667 6.5516 16.2668 5.8333 15.4668" stroke="currentColor" stroke-linecap="round" stroke-width="2"/>
  <path d="M4.5833 12.9167L4.5833 7.0833M1.6667 10H7.5" stroke="currentColor" stroke-linecap="round" stroke-width="2"/>
</svg>
