<svg xmlns="http://www.w3.org/2000/svg" width="20" height="20" viewBox="0 0 20 20" fill="none">
  <path d="M11.6685 3.75C11.9814 3.4722 12.2487 3.3333 12.5568 3.3333 13.1387 3.3333 13.5748 3.8284 14.4473 4.8186L16.5929 7.2537C17.7532 8.5706 18.3333 9.2289 18.3333 10 18.3333 10.7711 17.7532 11.4294 16.5929 12.7463L14.4473 15.1814C13.5748 16.1716 13.1387 16.6667 12.5568 16.6667 12.2487 16.6667 11.9814 16.5278 11.6685 16.25" stroke="currentColor" stroke-linecap="round" stroke-width="2"/>
  <path d="M5.591 4.8186C6.472 3.8284 6.9125 3.3333 7.5 3.3333 8.0875 3.3333 8.528 3.8284 9.4091 4.8186L11.5758 7.2537C12.7475 8.5706 13.3333 9.2289 13.3333 10 13.3333 10.7711 12.7475 11.4294 11.5758 12.7463L9.4091 15.1814C8.528 16.1716 8.0875 16.6667 7.5 16.6667 6.9125 16.6667 6.472 16.1716 5.591 15.1814L3.4242 12.7463C2.2525 11.4294 1.6667 10.7711 1.6667 10 1.6667 9.2289 2.2525 8.5706 3.4242 7.2537L5.591 4.8186Z" stroke="currentColor" stroke-width="2"/>
</svg>
