<svg xmlns="http://www.w3.org/2000/svg" width="20" height="20" viewBox="0 0 20 20" fill="none">
  <path d="M15.8312 8.9091C16.3882 9.4126 16.6667 9.6642 16.6667 10 16.6667 10.3358 16.3882 10.5874 15.8312 11.0909L14.4614 12.329C13.7208 12.9986 13.3504 13.3333 12.9167 13.3333 12.4829 13.3333 12.1126 12.9986 11.3719 12.329L10.0021 11.0909C9.4452 10.5874 9.1667 10.3358 9.1667 10 9.1667 9.6642 9.4452 9.4126 10.0021 8.9091L11.3719 7.671C12.1126 7.0014 12.4829 6.6667 12.9167 6.6667 13.3504 6.6667 13.7208 7.0014 14.4614 7.671L15.8312 8.9091Z" stroke="currentColor" stroke-width="2"/>
  <path d="M6.6667 10H3.3333M3.3333 2.5L3.3333 17.5" stroke="currentColor" stroke-linecap="round" stroke-linejoin="round" stroke-width="2"/>
</svg>
