<svg xmlns="http://www.w3.org/2000/svg" width="20" height="20" viewBox="0 0 20 20" fill="none">
  <path d="M7.8182 4.1709C8.8251 3.057 9.3286 2.5 10 2.5 10.6714 2.5 11.1749 3.057 12.1818 4.1709L14.6581 6.9105C15.9972 8.3918 16.6667 9.1326 16.6667 10 16.6667 10.8674 15.9972 11.6082 14.6581 13.0896L12.1818 15.8291C11.1749 16.943 10.6714 17.5 10 17.5 9.3286 17.5 8.8251 16.943 7.8182 15.8291L5.3419 13.0896C4.0029 11.6082 3.3333 10.8674 3.3333 10 3.3333 9.1326 4.0029 8.3918 5.3419 6.9105L7.8182 4.1709Z" stroke="currentColor" stroke-width="2"/>
</svg>
