<svg xmlns="http://www.w3.org/2000/svg" width="20" height="20" viewBox="0 0 20 20" fill="none">
  <path d="M10.3681 12.1275L8.4465 14.3776C7.6177 15.3481 7.2033 15.8333 6.6667 15.8333 6.1301 15.8333 5.7157 15.3481 4.8868 14.3776L2.9652 12.1275C2.0995 11.1138 1.6667 10.607 1.6667 10 1.6667 9.393 2.0995 8.8862 2.9652 7.8725L4.8868 5.6225C5.7157 4.6519 6.1301 4.1667 6.6667 4.1667 7.2033 4.1667 7.6177 4.6519 8.4465 5.6225L10.3681 7.8725C11.2338 8.8862 11.6667 9.393 11.6667 10 11.6667 10.607 11.2338 11.1138 10.3681 12.1275Z" stroke="currentColor" stroke-linecap="round" stroke-linejoin="round" stroke-width="2"/>
  <path d="M10.8333 15.8333L13.7598 12.1693C14.5866 11.1342 15 10.6165 15 10 15 9.3835 14.5866 8.8658 13.7598 7.8307L10.8333 4.1667" stroke="currentColor" stroke-linecap="round" stroke-linejoin="round" stroke-width="2"/>
  <path d="M14.1667 15.8333L17.0932 12.1693C17.9199 11.1342 18.3333 10.6165 18.3333 10 18.3333 9.3835 17.9199 8.8658 17.0932 7.8307L14.1667 4.1667" stroke="currentColor" stroke-linecap="round" stroke-linejoin="round" stroke-width="2"/>
</svg>
