<svg xmlns="http://www.w3.org/2000/svg" width="20" height="20" viewBox="0 0 20 20" fill="none">
  <path d="M5.591 6.4852C6.472 5.4951 6.9125 5 7.5 5 8.0875 5 8.528 5.4951 9.4091 6.4852L11.5758 8.9204C12.7475 10.2373 13.3333 10.8956 13.3333 11.6667 13.3333 12.4378 12.7475 13.0961 11.5758 14.4129L9.4091 16.8481C8.528 17.8382 8.0875 18.3333 7.5 18.3333 6.9125 18.3333 6.472 17.8382 5.591 16.8481L3.4242 14.4129C2.2525 13.0961 1.6667 12.4378 1.6667 11.6667 1.6667 10.8956 2.2525 10.2373 3.4242 8.9204L5.591 6.4852Z" stroke="currentColor" stroke-width="2"/>
  <path d="M15.4167 7.5L15.4167 1.6667M12.5 4.5833H18.3333" stroke="currentColor" stroke-linecap="round" stroke-width="2"/>
</svg>
