<svg xmlns="http://www.w3.org/2000/svg" width="20" height="20" viewBox="0 0 20 20" fill="none">
  <path d="M6.9807 8.3333H6.3526C5.1027 8.3333 4.4777 8.3333 4.0256 7.9803 3.5735 7.6274 3.4219 7.021 3.1188 5.8084L2.5443 3.5106C2.5149 3.3929 2.5 3.272 2.5 3.1507 2.5 2.3311 3.1644 1.6667 3.984 1.6667H9.3493C10.1689 1.6667 10.8333 2.3311 10.8333 3.1507 10.8333 3.272 10.8184 3.3929 10.789 3.5106L10.2146 5.8084C9.9114 7.021 9.7598 7.6274 9.3078 7.9803 8.8556 8.3333 8.2307 8.3333 6.9807 8.3333Z" stroke="currentColor" stroke-linecap="round" stroke-linejoin="round" stroke-width="2"/>
  <path d="M5.8333 5H7.5" stroke="currentColor" stroke-linecap="round" stroke-linejoin="round" stroke-width="2"/>
  <path d="M5 8.3333V16.3215C5 16.6621 5 16.8324 5.0634 16.9856 5.1269 17.1388 5.2473 17.2592 5.4882 17.5 6.0437 18.0556 6.3215 18.3333 6.6667 18.3333 7.0118 18.3333 7.2896 18.0556 7.8452 17.5 8.086 17.2592 8.2065 17.1388 8.2699 16.9856 8.3333 16.8324 8.3333 16.6621 8.3333 16.3215V15.8333L7.0833 14.5833 8.3333 13.3333V8.3333" stroke="currentColor" stroke-linecap="round" stroke-linejoin="round" stroke-width="2"/>
  <path d="M10.8333 4.1667C12.391 4.1667 13.1698 4.1667 13.75 4.5016 14.1301 4.721 14.4457 5.0366 14.6651 5.4167 15 5.9968 15 6.7756 15 8.3333" stroke="currentColor" stroke-linecap="round" stroke-linejoin="round" stroke-width="2"/>
  <path d="M17.5 15.8333V10.8333C17.5 9.8187 17.5 9.3113 17.2521 8.9494 17.1532 8.805 17.0283 8.6802 16.8839 8.5813 16.522 8.3333 16.0147 8.3333 15 8.3333 13.9853 8.3333 13.478 8.3333 13.1161 8.5813 12.9717 8.6802 12.8468 8.805 12.7479 8.9494 12.5 9.3113 12.5 9.8187 12.5 10.8333V15.8333C12.5 16.848 12.5 17.3553 12.7479 17.7172 12.8468 17.8617 12.9717 17.9865 13.1161 18.0854 13.478 18.3333 13.9853 18.3333 15 18.3333 16.0147 18.3333 16.522 18.3333 16.8839 18.0854 17.0283 17.9865 17.1532 17.8617 17.2521 17.7172 17.5 17.3553 17.5 16.848 17.5 15.8333Z" stroke="currentColor" stroke-linecap="round" stroke-linejoin="round" stroke-width="2"/>
  <path d="M12.5 13.3333H17.5" stroke="currentColor" stroke-linecap="round" stroke-linejoin="round" stroke-width="2"/>
</svg>
