<svg xmlns="http://www.w3.org/2000/svg" width="20" height="20" viewBox="0 0 20 20" fill="none">
  <path d="M5.8333 6.5V13.5C5.8333 14.3284 6.5329 15 7.3959 15 8.2589 15 8.9585 14.3284 8.9585 13.5L8.9588 11.1176 11.324 14.3602C11.819 15.0388 12.7933 15.2037 13.5002 14.7286 14.2072 14.2534 14.3789 13.3181 13.8839 12.6395L11.9587 10 13.8839 7.3605C14.3789 6.6819 14.2072 5.7466 13.5002 5.2714 12.7933 4.7962 11.819 4.9612 11.324 5.6398L8.9588 8.8824 8.9585 6.5C8.9585 5.6716 8.2589 5 7.3959 5 6.5329 5 5.8333 5.6716 5.8333 6.5Z" stroke="currentColor" stroke-linecap="round" stroke-linejoin="round" stroke-width="2"/>
  <path d="M2.0833 10C2.0833 6.268 2.0833 4.4021 3.2427 3.2427 4.4021 2.0833 6.268 2.0833 10 2.0833 13.7319 2.0833 15.5979 2.0833 16.7573 3.2427 17.9167 4.4021 17.9167 6.268 17.9167 10 17.9167 13.7319 17.9167 15.5979 16.7573 16.7573 15.5979 17.9167 13.7319 17.9167 10 17.9167 6.268 17.9167 4.4021 17.9167 3.2427 16.7573 2.0833 15.5979 2.0833 13.7319 2.0833 10Z" stroke="currentColor" stroke-linejoin="round" stroke-width="2"/>
</svg>
