<svg xmlns="http://www.w3.org/2000/svg" width="20" height="20" viewBox="0 0 20 20" fill="none">
  <circle cx="10" cy="10" r="8.333333333333334" stroke="currentColor" stroke-linecap="round" stroke-linejoin="round" stroke-width="2"/>
  <path d="M10 1.6667C11.6667 1.6667 12.9167 2.7246 12.9167 3.9265 12.9167 4.7042 12.5235 5.8333 11.25 5.8333 10.5674 5.8333 10.1315 5.3287 10 5" stroke="currentColor" stroke-linecap="round" stroke-linejoin="round" stroke-width="2"/>
  <path d="M13.0208 8.6558V9.0971M6.9792 8.6558V9.0971M7.2917 8.9583C7.2917 8.6132 7.1518 8.3333 6.9792 8.3333 6.8066 8.3333 6.6667 8.6132 6.6667 8.9583 6.6667 9.3035 6.8066 9.5833 6.9792 9.5833 7.1518 9.5833 7.2917 9.3035 7.2917 8.9583ZM13.3333 8.9583C13.3333 8.6132 13.1934 8.3333 13.0208 8.3333 12.8483 8.3333 12.7083 8.6132 12.7083 8.9583 12.7083 9.3035 12.8483 9.5833 13.0208 9.5833 13.1934 9.5833 13.3333 9.3035 13.3333 8.9583Z" stroke="currentColor" stroke-linecap="round" stroke-linejoin="round" stroke-width="2"/>
  <path d="M6.6667 13.3333C7.4268 14.3453 8.6369 15 10 15 11.3631 15 12.5732 14.3453 13.3333 13.3333" stroke="currentColor" stroke-linecap="round" stroke-linejoin="round" stroke-width="2"/>
</svg>
