<svg xmlns="http://www.w3.org/2000/svg" width="20" height="20" viewBox="0 0 20 20" fill="none">
  <path d="M8.3213 5C8.4523 3.8283 7.5037 2.5 5.4761 2.5 3.3722 2.5 1.6667 4.552 1.6667 7.0833 1.6667 9.6147 2.9491 11.6667 5.053 11.6667 6.4 11.6667 7.1129 10.6216 6.9631 9.7157" stroke="currentColor" stroke-linecap="round" stroke-width="2"/>
  <path d="M5.8333 6.6667C7.0834 6.6663 8.7499 7.0797 8.7499 9.7 8.7499 13.1667 7.0829 14.4667 8.3338 17.5M14.1667 6.6667C12.9166 6.6663 11.2501 7.0797 11.2501 9.7 11.2501 13.1667 12.9172 14.4667 11.6662 17.5" stroke="currentColor" stroke-linecap="round" stroke-width="2"/>
  <path d="M5.5086 5C5.6784 5.4762 5.967 6.619 5.7633 7.3809 5.6784 7.6984 5.4069 8.3333 5 8.3333" stroke="currentColor" stroke-linecap="round" stroke-width="2"/>
  <path d="M11.6787 5C11.5477 3.8283 12.4962 2.5 14.5239 2.5 16.6277 2.5 18.3333 4.552 18.3333 7.0833 18.3333 9.6147 17.0509 11.6667 14.947 11.6667 13.5338 11.6667 12.8185 10.5163 13.0653 9.5833" stroke="currentColor" stroke-linecap="round" stroke-width="2"/>
  <path d="M14.4914 5C14.3216 5.4762 14.033 6.619 14.2368 7.3809 14.3216 7.6984 14.5931 8.3333 15 8.3333" stroke="currentColor" stroke-linecap="round" stroke-width="2"/>
</svg>
