<svg xmlns="http://www.w3.org/2000/svg" width="20" height="20" viewBox="0 0 20 20" fill="none">
  <path d="M9.9859 11.6668V2.5M9.9859 11.6668C8.6039 11.6668 7.4837 12.8629 7.4837 13.8543 7.4837 15.3126 8.6039 17.5001 9.9859 17.5001 11.3678 17.5001 12.4881 15.3126 12.4881 13.8543 12.4881 12.8629 11.3678 11.6668 9.9859 11.6668Z" stroke="currentColor" stroke-linecap="round" stroke-width="2"/>
  <path d="M4.1487 8.3569L4.1487 17.5M3.0718 2.6079L2.4196 2.6729C1.9435 2.7204 1.605 3.1574 1.6782 3.6297L2.2357 7.226C2.3301 7.8352 2.855 8.3422 3.472 8.3422H4.8253C5.4424 8.3422 5.9673 7.8352 6.0617 7.226L6.6192 3.6297C6.6924 3.1574 6.3538 2.7204 5.8778 2.6729L5.2278 2.608C4.5109 2.5364 3.7887 2.5364 3.0718 2.6079Z" stroke="currentColor" stroke-linecap="round" stroke-width="2"/>
  <path d="M14.9967 11.5152L14.9967 2.5216C15.9621 2.7883 17.5679 3.7939 17.8338 6.2737L18.3114 10.0353C18.3953 10.6959 18.2272 11.3551 17.5705 11.468 17.0203 11.5626 16.1857 11.5935 14.9967 11.5152ZM14.9967 11.5152L14.9967 17.5001" stroke="currentColor" stroke-linecap="round" stroke-linejoin="round" stroke-width="2"/>
</svg>
