<svg xmlns="http://www.w3.org/2000/svg" width="20" height="20" viewBox="0 0 20 20" fill="none">
  <path d="M10 1.6667C6.4286 3.6728 3.3333 6.6667 1.6667 11.6667 4.1667 10 7.5 9.1667 10 11.6667 12.5 9.1667 15.8333 10 18.3333 11.6667 16.6667 6.6667 13.5714 3.6728 10 1.6667Z" stroke="currentColor" stroke-linecap="round" stroke-linejoin="round" stroke-width="2"/>
  <path d="M9.9999 11.6667C8.6593 12.2773 6.4136 13.1823 6.6861 15" stroke="currentColor" stroke-linecap="round" stroke-linejoin="round" stroke-width="2"/>
  <path d="M9.7263 11.6667C10.8924 14.3358 7.823 16.25 9.9211 18.3333" stroke="currentColor" stroke-linecap="round" stroke-linejoin="round" stroke-width="2"/>
  <path d="M10 11.6667C11.6667 11.6667 11.25 15.4167 12.5 15.8333" stroke="currentColor" stroke-linecap="round" stroke-linejoin="round" stroke-width="2"/>
  <path d="M10 11.6667V1.6667" stroke="currentColor" stroke-linecap="round" stroke-linejoin="round" stroke-width="2"/>
  <path d="M8.3333 5.8336C8.5761 5.613 8.8889 5.4362 9.1778 5.3031 9.4825 5.1629 9.6348 5.0928 10 5.0928 10.3652 5.0928 10.5175 5.1629 10.8222 5.3031 11.1111 5.4362 11.4239 5.613 11.6667 5.8336" stroke="currentColor" stroke-linecap="round" stroke-linejoin="round" stroke-width="2"/>
</svg>
