<svg xmlns="http://www.w3.org/2000/svg" width="20" height="20" viewBox="0 0 20 20" fill="none">
  <path d="M8.7007 13.2468C9.0724 13.6487 9.4662 14.2782 10.0757 14.1812 10.3692 14.1346 10.6109 13.8732 11.0945 13.3503L12.4791 11.8533 12.7958 10.1411 14.3792 9.7986 14.696 8.0864 16.2795 7.744 16.7646 6.0294 17.6284 5.8022C18.0158 5.7004 18.2095 5.6494 18.2957 5.468 18.3821 5.2867 18.3113 5.1094 18.1696 4.7548 17.9537 4.2147 17.6069 3.5551 17.1188 3.2399 15.8629 2.2534 14.1624 2.2534 12.9066 3.2399 12.6785 3.4191 12.4431 3.6736 11.9723 4.1826L2.0831 14.8753C1.5278 15.4758 1.5278 16.4493 2.0831 17.0497 2.7127 17.7303 3.7593 17.6252 4.2621 16.8307L6.3825 13.4798C6.6937 12.988 7.0382 12.2794 7.7025 12.4105 7.9774 12.4648 8.2185 12.7255 8.7007 13.2468Z" stroke="currentColor" stroke-linecap="round" stroke-linejoin="round" stroke-width="2"/>
</svg>
