<svg xmlns="http://www.w3.org/2000/svg" width="20" height="20" viewBox="0 0 20 20" fill="none">
  <path d="M12.5853 13.9538C14.9079 11.4315 16.5239 9.4403 17.5333 8.0841 18.0858 7.3417 18.3621 6.9706 18.331 6.4646 18.2661 5.408 15.6044 2.5 14.4337 2.5 13.8978 2.5 13.4667 2.9478 12.6043 3.8433L2.1249 14.7265C1.5139 15.3609 1.5139 16.3896 2.1249 17.0241 2.8175 17.7434 3.9691 17.6322 4.5222 16.7927L6.4304 13.8963C7.1955 12.735 7.7449 12.7284 8.6621 13.6809 9.2164 14.2567 9.9171 15.3292 10.7897 15.319 11.334 15.3127 11.7511 14.8598 12.5853 13.9538Z" stroke="currentColor" stroke-linecap="round" stroke-linejoin="round" stroke-width="2"/>
  <path d="M15.1042 6.6667H15M15.2083 6.6667C15.2083 6.7817 15.1151 6.875 15 6.875 14.8849 6.875 14.7917 6.7817 14.7917 6.6667 14.7917 6.5516 14.8849 6.4583 15 6.4583 15.1151 6.4583 15.2083 6.5516 15.2083 6.6667Z" stroke="currentColor" stroke-linecap="round" stroke-linejoin="round" stroke-width="2"/>
</svg>
