<svg xmlns="http://www.w3.org/2000/svg" width="20" height="20" viewBox="0 0 20 20" fill="none">
  <path d="M12.9167 8.3333L15.0854 6.1593C15.7216 6.2469 16.3911 6.0537 16.8804 5.5799 17.7065 4.78 17.7065 3.4831 16.8804 2.6832 16.0543 1.8834 14.715 1.8834 13.8889 2.6832L10 6.4489" stroke="currentColor" stroke-linecap="round" stroke-linejoin="round" stroke-width="2"/>
  <path d="M14.1667 10L15.3543 8.7873C16.0331 8.8858 16.7473 8.6686 17.2694 8.1355 18.1147 7.2724 18.1121 5.8827 17.3782 5" stroke="currentColor" stroke-linejoin="round" stroke-width="2"/>
  <path d="M11.3758 15.3858L13.0346 13.744C14.0671 12.7222 14.5833 12.2112 14.5833 11.5763 14.5833 10.9414 14.0671 10.4304 13.0346 9.4086L11.3919 7.7828C10.3594 6.7609 9.8432 6.25 9.2017 6.25 8.5602 6.25 8.0439 6.7609 7.0114 7.7828L2.9906 11.7622C2.5429 12.2053 2.3191 12.4268 2.2012 12.7085 2.0833 12.9902 2.0833 13.3034 2.0833 13.93V14.8508C2.0833 16.296 2.0833 17.0185 2.537 17.4675 2.9906 17.9164 3.7207 17.9164 5.1808 17.9164L10.5739 17.9167C12.0471 17.9167 12.7836 17.9167 13.2413 17.4685 13.6989 17.0203 13.6989 16.2991 13.6989 14.8564V13.0773" stroke="currentColor" stroke-linecap="round" stroke-linejoin="round" stroke-width="2"/>
</svg>
