<svg xmlns="http://www.w3.org/2000/svg" width="20" height="20" viewBox="0 0 20 20" fill="none">
  <path d="M14.1667 4.5833H3.3333C2.5477 4.5833 2.1548 4.5833 1.9107 4.8274 1.6667 5.0715 1.6667 5.4643 1.6667 6.25V12.0833C1.6667 13.6547 1.6667 14.4403 2.1548 14.9285 2.643 15.4167 3.4286 15.4167 5 15.4167H10.8333C11.6099 15.4167 11.9982 15.4167 12.3045 15.2898 12.7128 15.1207 13.0373 14.7962 13.2065 14.3878 13.3333 14.0815 13.3333 13.6932 13.3333 12.9167H14.1667C16.4678 12.9167 18.3333 11.0512 18.3333 8.75 18.3333 6.4488 16.4678 4.5833 14.1667 4.5833Z" stroke="currentColor" stroke-linejoin="round" stroke-width="2"/>
  <path d="M14.1667 10.8333H13.3333V6.6667H14.1667C15.3173 6.6667 16.25 7.5994 16.25 8.75 16.25 9.9006 15.3173 10.8333 14.1667 10.8333Z" stroke="currentColor" stroke-linejoin="round" stroke-width="2"/>
  <path d="M4.6548 7.5838C5.3057 6.9165 6.361 6.9165 7.0118 7.5838L7.5 8.0842 7.9882 7.5838C8.639 6.9165 9.6943 6.9165 10.3452 7.5838 10.9961 8.251 10.9961 9.3327 10.3452 10L7.5 12.9167 4.6548 10C4.0039 9.3327 4.0039 8.251 4.6548 7.5838Z" stroke="currentColor" fill-rule="evenodd" clip-rule="evenodd" stroke-linecap="round" stroke-linejoin="round" stroke-width="2"/>
</svg>
