<svg xmlns="http://www.w3.org/2000/svg" width="20" height="20" viewBox="0 0 20 20" fill="none">
  <path d="M14.624 12.5C14.6574 13.5339 14.6547 14.8118 14.6417 15.9077 14.6282 17.0437 14.6213 17.6116 14.2553 17.9725 13.8893 18.3333 13.3133 18.3333 12.1614 18.3333H7.8386C6.6867 18.3333 6.1107 18.3333 5.7447 17.9725 5.3786 17.6116 5.3719 17.0437 5.3583 15.9077 5.3452 14.8118 5.3426 13.5339 5.376 12.5M14.624 12.5C14.5375 9.8247 14.2963 6.9682 13.7583 5M14.624 12.5H16.1804C16.8173 12.5 17.1358 12.5 17.3337 12.2906 17.5314 12.0811 17.5133 11.7764 17.4771 11.1671 17.2775 7.811 16.3615 5.1322 15.6061 3.5682 15.3838 3.1081 15.2728 2.878 14.9998 2.6485 14.7269 2.419 14.4292 2.3341 13.8336 2.1643L12.088 1.6667C11.6703 2.5 10.8352 2.9167 10 2.9167 9.1648 2.9167 8.3296 2.5 7.912 1.6667L6.1664 2.1643C5.5709 2.3341 5.2731 2.419 5.0002 2.6485 4.7273 2.878 4.6162 3.1081 4.3939 3.5682 3.6385 5.1322 2.7225 7.811 2.5229 11.1671 2.4867 11.7764 2.4686 12.0811 2.6664 12.2906 2.8642 12.5 3.1827 12.5 3.8196 12.5H5.376M5.376 12.5C5.4625 9.8247 5.7037 6.9682 6.2417 5" stroke="currentColor" stroke-linecap="round" stroke-linejoin="round" stroke-width="2"/>
  <path d="M14.5833 10H17.0833M2.9167 10H5.4167" stroke="currentColor" stroke-linecap="round" stroke-linejoin="round" stroke-width="2"/>
  <path d="M10 3.3333L10 7.5" stroke="currentColor" stroke-linecap="round" stroke-linejoin="round" stroke-width="2"/>
</svg>
