<svg xmlns="http://www.w3.org/2000/svg" width="20" height="20" viewBox="0 0 20 20" fill="none">
  <path d="M16.6667 18.3333V15.8333C16.6667 14.262 16.6667 13.4763 16.1785 12.9882 15.6903 12.5 14.9047 12.5 13.3333 12.5H11.6667L10 14.1667 8.3333 12.5H6.6667C5.0953 12.5 4.3096 12.5 3.8215 12.9882 3.3333 13.4763 3.3333 14.262 3.3333 15.8333V18.3333" stroke="currentColor" stroke-linecap="round" stroke-linejoin="round" stroke-width="2"/>
  <path d="M13.3333 12.5V18.3333" stroke="currentColor" stroke-linecap="round" stroke-linejoin="round" stroke-width="2"/>
  <path d="M6.6667 12.5V18.3333" stroke="currentColor" stroke-linecap="round" stroke-linejoin="round" stroke-width="2"/>
  <path d="M12.9167 7.5V5.8333C12.9167 4.2225 11.6108 2.9167 10 2.9167 8.3892 2.9167 7.0833 4.2225 7.0833 5.8333V7.5C7.0833 9.1108 8.3892 10.4167 10 10.4167 11.6108 10.4167 12.9167 9.1108 12.9167 7.5Z" stroke="currentColor" stroke-linecap="round" stroke-linejoin="round" stroke-width="2"/>
  <path d="M6.25 6.25H13.75" stroke="currentColor" stroke-linecap="round" stroke-linejoin="round" stroke-width="2"/>
  <path d="M10 1.6667V2.9167" stroke="currentColor" stroke-linecap="round" stroke-linejoin="round" stroke-width="2"/>
</svg>
