<svg xmlns="http://www.w3.org/2000/svg" width="20" height="20" viewBox="0 0 20 20" fill="none">
  <path d="M1.6667 18.307C2.4581 18.307 3.2405 18.3794 3.8987 17.8663 4.5436 17.3638 5.5692 17.3803 6.1888 17.9035 6.8644 18.474 8.1398 18.4578 8.8308 17.9193 9.5011 17.3969 10.5174 17.3367 11.1888 17.9035 11.9255 18.5255 13.1669 18.4367 13.8987 17.8663 14.5436 17.3638 15.5692 17.3803 16.1888 17.9035 16.7856 18.4074 17.5998 18.307 18.3333 18.307" stroke="currentColor" stroke-linecap="round" stroke-linejoin="round" stroke-width="2"/>
  <path d="M1.6667 14.9737C2.4581 14.9737 3.2405 15.0461 3.8987 14.533 4.5436 14.0304 5.5692 14.047 6.1888 14.5702 6.8644 15.1407 8.1398 15.1245 8.8308 14.586 9.5011 14.0636 10.5174 14.0033 11.1888 14.5702 11.9255 15.1922 13.1669 15.1034 13.8987 14.533 14.5436 14.0304 15.5692 14.047 16.1888 14.5702 16.7856 15.0741 17.5998 14.9737 18.3333 14.9737" stroke="currentColor" stroke-linecap="round" stroke-linejoin="round" stroke-width="2"/>
  <path d="M1.6667 11.6667H18.3333" stroke="currentColor" stroke-linecap="round" stroke-linejoin="round" stroke-width="2"/>
  <path d="M5 11.6667V2.5M5 2.5C4.7917 3.0556 4 4.5833 2.5 4.5833M5 2.5C5.2083 3.0556 6 4.5833 7.5 4.5833M2.5 7.0833C4 7.0833 4.7917 5.5556 5 5 5.2083 5.5556 6 7.0833 7.5 7.0833" stroke="currentColor" stroke-linecap="round" stroke-linejoin="round" stroke-width="2"/>
  <circle cx="14.583333333333334" cy="3.75" r="2.0833333333333335" stroke="currentColor" stroke-linecap="round" stroke-linejoin="round" stroke-width="2"/>
</svg>
