<svg xmlns="http://www.w3.org/2000/svg" width="20" height="20" viewBox="0 0 20 20" fill="none">
  <path d="M10 1.6667C11.3623 1.6667 12.0435 1.6667 12.6373 1.908 12.9569 2.0378 13.2543 2.2173 13.5189 2.4399 14.0107 2.8535 14.333 3.459 14.9777 4.6699L15.6446 5.9226C16.8117 8.1147 17.3953 9.2107 16.9144 10.022 16.4336 10.8333 15.2005 10.8333 12.7343 10.8333H7.2657C4.7995 10.8333 3.5664 10.8333 3.0856 10.022 2.6048 9.2107 3.1883 8.1146 4.3554 5.9226L5.0223 4.6699C5.667 3.459 5.9894 2.8535 6.4811 2.4399 6.7457 2.2173 7.0431 2.0378 7.3627 1.908 7.9565 1.6667 8.6377 1.6667 10 1.6667Z" stroke="currentColor" stroke-linecap="round" stroke-width="2"/>
  <path d="M10 10.8333V15.8333" stroke="currentColor" stroke-linecap="round" stroke-width="2"/>
  <path d="M7.8799 16.9159C8.1042 16.5369 8.2164 16.3473 8.3807 16.2064 8.5473 16.0633 8.7523 15.9563 8.9782 15.8944 9.2009 15.8333 9.4518 15.8333 9.9533 15.8333H10.0468C10.5485 15.8333 10.7993 15.8333 11.0219 15.8944 11.248 15.9563 11.453 16.0634 11.6197 16.2066 11.7839 16.3475 11.8961 16.5371 12.1203 16.9162 12.388 17.3685 12.5218 17.5947 12.4971 17.7788 12.4722 17.9642 12.3505 18.1306 12.1653 18.2323 11.9814 18.3333 11.6822 18.3333 11.0836 18.3333H8.9166C8.3179 18.3333 8.0185 18.3333 7.8346 18.2323 7.6494 18.1305 7.5278 17.9642 7.5029 17.7788 7.4782 17.5946 7.6121 17.3684 7.8799 16.9159Z" stroke="currentColor" stroke-width="2"/>
</svg>
