<svg xmlns="http://www.w3.org/2000/svg" width="20" height="20" viewBox="0 0 20 20" fill="none">
  <path d="M12.4988 11.6667C11.6444 12.397 11.8303 13.7068 12.3095 14.5725 12.8094 15.4753 13.1025 16.4992 12.7844 17.4659 12.6152 17.9803 12.0879 18.3333 11.4893 18.3333H8.5207C7.9344 18.3333 7.4153 17.9938 7.237 17.4934 6.8875 16.5127 7.1773 15.4625 7.6792 14.5364 8.1384 13.6892 8.3296 12.4003 7.536 11.6667" stroke="currentColor" stroke-linecap="round" stroke-linejoin="round" stroke-width="2"/>
  <path d="M7.0835 11.6667H12.9168" stroke="currentColor" stroke-linecap="round" stroke-linejoin="round" stroke-width="2"/>
  <path d="M12.1613 8.3333H7.8386C6.2587 8.3333 5.4687 8.3333 5.1338 7.8763 4.7988 7.4193 5.123 6.7837 5.7714 5.5126L6.931 3.239C7.3204 2.4757 7.5151 2.094 7.8896 1.8803 8.2642 1.6667 8.7386 1.6667 9.6874 1.6667H10.3126C11.2614 1.6667 11.7358 1.6667 12.1103 1.8803 12.4849 2.094 12.6796 2.4757 13.069 3.239L14.2287 5.5126C14.877 6.7837 15.2012 7.4193 14.8663 7.8763 14.5313 8.3333 13.7413 8.3333 12.1613 8.3333Z" stroke="currentColor" stroke-linecap="round" stroke-linejoin="round" stroke-width="2"/>
  <path d="M10.0002 8.3333L10.0002 11.6667" stroke="currentColor" stroke-linecap="round" stroke-linejoin="round" stroke-width="2"/>
  <path d="M7.5002 15.8333H12.5002" stroke="currentColor" stroke-linecap="round" stroke-linejoin="round" stroke-width="2"/>
</svg>
