<svg xmlns="http://www.w3.org/2000/svg" width="20" height="20" viewBox="0 0 20 20" fill="none">
  <path d="M7.5 5.8333H15.8333" stroke="currentColor" stroke-linecap="round" stroke-linejoin="round" stroke-width="2"/>
  <path d="M7.2162 10H16.1172C16.8809 10 17.5 9.3809 17.5 8.6172 17.5 8.4299 17.462 8.2446 17.3882 8.0724L15.8658 4.5203C15.4459 3.5404 15.236 3.0505 14.8185 2.7753 14.4011 2.5 13.8681 2.5 12.802 2.5H10.5313C9.4653 2.5 8.9323 2.5 8.5148 2.7753 8.0974 3.0505 7.8875 3.5404 7.4675 4.5203L5.9452 8.0724C5.8714 8.2446 5.8334 8.4299 5.8334 8.6172 5.8334 9.3809 6.4525 10 7.2162 10Z" stroke="currentColor" stroke-linecap="round" stroke-linejoin="round" stroke-width="2"/>
  <path d="M2.5 16.3889V13.6111C2.5 13.3528 2.5 13.2236 2.5284 13.1177 2.6055 12.8301 2.8301 12.6054 3.1177 12.5284 3.2237 12.5 3.3528 12.5 3.6111 12.5 4.1278 12.5 4.3861 12.5 4.5981 12.5567 5.1732 12.7109 5.6225 13.1602 5.7766 13.7353 5.8334 13.9473 5.8334 14.2056 5.8334 14.7222V15.2778C5.8334 15.7944 5.8334 16.0528 5.7766 16.2647 5.6225 16.8398 5.1732 17.2891 4.5981 17.4432 4.3861 17.5 4.1278 17.5 3.6111 17.5 3.3528 17.5 3.2237 17.5 3.1177 17.4716 2.8301 17.3946 2.6055 17.1699 2.5284 16.8823 2.5 16.7764 2.5 16.6473 2.5 16.3889Z" stroke="currentColor" stroke-linecap="round" stroke-linejoin="round" stroke-width="2"/>
  <path d="M5.8334 15H6.6667C9.0237 15 10.2022 15 10.9345 14.2678 11.6667 13.5355 11.6667 12.357 11.6667 10" stroke="currentColor" stroke-linecap="round" stroke-linejoin="round" stroke-width="2"/>
</svg>
