<svg xmlns="http://www.w3.org/2000/svg" width="20" height="20" viewBox="0 0 20 20" fill="none">
  <path d="M7.2162 17.5H16.1172C16.8808 17.5 17.5 16.8809 17.5 16.1172 17.5 15.9299 17.4619 15.7446 17.3882 15.5724L15.8658 12.0203C15.4459 11.0404 15.2359 10.5505 14.8185 10.2752 14.401 10 13.868 10 12.802 10H10.5313C9.4653 10 8.9322 10 8.5148 10.2752 8.0974 10.5505 7.8874 11.0404 7.4675 12.0203L5.9451 15.5724C5.8714 15.7446 5.8333 15.9299 5.8333 16.1172 5.8333 16.8809 6.4524 17.5 7.2162 17.5Z" stroke="currentColor" stroke-linecap="round" stroke-linejoin="round" stroke-width="2"/>
  <path d="M7.5 13.3333H15.8333" stroke="currentColor" stroke-linecap="round" stroke-linejoin="round" stroke-width="2"/>
  <path d="M2.5 6.3889V3.6111C2.5 3.3528 2.5 3.2236 2.5284 3.1177 2.6054 2.8301 2.83 2.6054 3.1176 2.5284 3.2236 2.5 3.3527 2.5 3.6111 2.5 4.1277 2.5 4.3861 2.5 4.598 2.5568 5.1731 2.7109 5.6224 3.1602 5.7765 3.7353 5.8333 3.9472 5.8333 4.2056 5.8333 4.7222V5.2778C5.8333 5.7944 5.8333 6.0528 5.7765 6.2647 5.6224 6.8399 5.1731 7.2891 4.598 7.4432 4.3861 7.5 4.1277 7.5 3.6111 7.5 3.3527 7.5 3.2236 7.5 3.1176 7.4716 2.83 7.3945 2.6054 7.1699 2.5284 6.8824 2.5 6.7764 2.5 6.6472 2.5 6.3889Z" stroke="currentColor" stroke-linecap="round" stroke-linejoin="round" stroke-width="2"/>
  <path d="M5.8333 5H6.6666C9.0237 5 10.2022 5 10.9344 5.7322 11.6667 6.4645 11.6667 7.643 11.6667 10" stroke="currentColor" stroke-linecap="round" stroke-linejoin="round" stroke-width="2"/>
</svg>
