<svg xmlns="http://www.w3.org/2000/svg" width="20" height="20" viewBox="0 0 20 20" fill="none">
  <path d="M16.25 15.8333H3.75C3.5177 15.8333 3.4015 15.8333 3.3049 15.8526 2.9082 15.9314 2.5981 16.2416 2.5192 16.6383 2.5 16.7348 2.5 16.851 2.5 17.0833 2.5 17.3157 2.5 17.4318 2.5192 17.5284 2.5981 17.9251 2.9082 18.2353 3.3049 18.3141 3.4015 18.3333 3.5177 18.3333 3.75 18.3333H16.25C16.4823 18.3333 16.5985 18.3333 16.6951 18.3141 17.0918 18.2353 17.4019 17.9251 17.4808 17.5284 17.5 17.4318 17.5 17.3157 17.5 17.0833 17.5 16.851 17.5 16.7348 17.4808 16.6383 17.4019 16.2416 17.0918 15.9314 16.6951 15.8526 16.5985 15.8333 16.4823 15.8333 16.25 15.8333Z" stroke="currentColor" stroke-linecap="round" stroke-linejoin="round" stroke-width="2"/>
  <path d="M17.2387 5.6796L10.7758 1.8779C10.5407 1.7396 10.2728 1.6667 10 1.6667 9.7272 1.6667 9.4593 1.7396 9.2242 1.8779L2.7613 5.6796C2.5994 5.7749 2.5 5.9487 2.5 6.1365 2.5 6.4293 2.7374 6.6667 3.0301 6.6667H16.9698C17.2627 6.6667 17.5 6.4293 17.5 6.1365 17.5 5.9487 17.4006 5.7749 17.2387 5.6796Z" stroke="currentColor" stroke-linecap="round" stroke-linejoin="round" stroke-width="2"/>
  <path d="M15 9.1667V15.8333" stroke="currentColor" stroke-linecap="round" stroke-linejoin="round" stroke-width="2"/>
  <path d="M11.6667 9.1667V15.8333" stroke="currentColor" stroke-linecap="round" stroke-linejoin="round" stroke-width="2"/>
  <path d="M8.3333 9.1667V15.8333" stroke="currentColor" stroke-linecap="round" stroke-linejoin="round" stroke-width="2"/>
  <path d="M5 9.1667V15.8333" stroke="currentColor" stroke-linecap="round" stroke-linejoin="round" stroke-width="2"/>
</svg>
