<svg xmlns="http://www.w3.org/2000/svg" width="20" height="20" viewBox="0 0 20 20" fill="none">
  <path d="M12.9029 9.5833L15.7608 11.1764C17.4758 12.1326 18.3334 12.6106 18.3334 13.3334 18.3334 14.0563 17.4758 14.5343 15.7608 15.4905L12.4723 17.3237C11.2647 17.9968 10.6609 18.3334 10.0001 18.3334 9.3393 18.3334 8.7354 17.9968 7.5278 17.3237L4.2394 15.4905C2.5243 14.5343 1.6667 14.0563 1.6667 13.3334 1.6667 12.6106 2.5243 12.1326 4.2394 11.1764L7.0971 9.5833" stroke="currentColor" stroke-linecap="round" stroke-linejoin="round" stroke-width="2"/>
  <path d="M14.375 10.625L5.625 16.0417M5.625 10.625L14.375 16.0417" stroke="currentColor" stroke-linecap="round" stroke-linejoin="round" stroke-width="2"/>
  <path d="M10.0001 10V7.0503M10.0001 7.0503L10.0001 3.7976C10.0001 2.6071 10.0001 2.0118 10.3773 1.7634 10.7544 1.515 11.276 1.7667 12.3193 2.2702L12.9473 2.5732C14.3157 3.2337 15.0001 3.5639 15.0001 4.1006 15.0001 4.6374 14.3157 4.9676 12.9473 5.628L10.0001 7.0503Z" stroke="currentColor" stroke-linecap="round" stroke-linejoin="round" stroke-width="2"/>
</svg>
