<svg xmlns="http://www.w3.org/2000/svg" width="20" height="20" viewBox="0 0 20 20" fill="none">
  <path d="M5.8333 6.9828H9.5833M14.1667 6.9828H12.0833M9.5833 6.9828H12.0833M9.5833 6.9828V5.8333M12.0833 6.9828C11.6438 8.5547 10.7233 10.0406 9.6726 11.3465M6.9941 14.1667C7.8434 13.3857 8.8026 12.4278 9.6726 11.3465M9.6726 11.3465C9.1369 10.7184 8.3869 9.7022 8.1726 9.2424M9.6726 11.3465L11.2797 13.0173" stroke="currentColor" stroke-linecap="round" stroke-linejoin="round" stroke-width="2"/>
  <path d="M2.0833 10C2.0833 6.268 2.0833 4.4021 3.2427 3.2427 4.4021 2.0833 6.268 2.0833 10 2.0833 13.7319 2.0833 15.5979 2.0833 16.7573 3.2427 17.9167 4.4021 17.9167 6.268 17.9167 10 17.9167 13.7319 17.9167 15.5979 16.7573 16.7573 15.5979 17.9167 13.7319 17.9167 10 17.9167 6.268 17.9167 4.4021 17.9167 3.2427 16.7573 2.0833 15.5979 2.0833 13.7319 2.0833 10Z" stroke="currentColor" stroke-width="2"/>
</svg>
