<svg xmlns="http://www.w3.org/2000/svg" width="20" height="20" viewBox="0 0 20 20" fill="none">
  <path d="M1.6667 10C1.6667 10.8766 1.8171 11.718 2.0934 12.5M10.8448 7.5H17.9179M9.1667 12.5H2.0934M17.9179 7.5C16.8883 4.587 14.1103 2.5 10.8448 2.5 12.1788 2.5 13.2688 5.635 13.3409 9.5833M17.9179 7.5C18.1502 8.1572 18.2935 8.8565 18.3333 9.5833M2.0934 12.5C3.123 15.413 5.9011 17.5 9.1667 17.5 7.8798 17.5 6.8201 14.5833 6.6819 10.8333" stroke="currentColor" stroke-linecap="round" stroke-linejoin="round" stroke-width="2"/>
  <path d="M1.6667 4.4145C1.6667 3.4991 1.6667 3.0415 1.8228 2.6866 1.9884 2.3102 2.2738 2.0077 2.629 1.8322 2.9638 1.6667 3.3956 1.6667 4.2593 1.6667H5C6.5714 1.6667 7.357 1.6667 7.8452 2.184 8.3333 2.7014 8.3333 3.5341 8.3333 5.1995V7.0821C8.3333 7.8086 8.3333 8.1718 8.1133 8.2966 7.8932 8.4214 7.6081 8.2199 7.0377 7.817L6.9509 7.7556C6.5341 7.4611 6.3256 7.3138 6.0895 7.238 5.8533 7.1622 5.6028 7.1622 5.1019 7.1622H4.2593C3.3956 7.1622 2.9638 7.1622 2.629 6.9967 2.2738 6.8212 1.9884 6.5187 1.8228 6.1423 1.6667 5.7874 1.6667 5.3298 1.6667 4.4145Z" stroke="currentColor" stroke-width="2"/>
  <path d="M18.3333 14.4144C18.3333 13.4992 18.3333 13.0415 18.1772 12.6866 18.0116 12.3102 17.7262 12.0077 17.371 11.8322 17.0362 11.6667 16.6043 11.6667 15.7408 11.6667H15C13.4287 11.6667 12.643 11.6667 12.1548 12.1841 11.6667 12.7014 11.6667 13.5341 11.6667 15.1995V17.0821C11.6667 17.8086 11.6667 18.1718 11.8867 18.2966 12.1067 18.4214 12.3919 18.2199 12.9623 17.817L13.0492 17.7556C13.4659 17.4611 13.6743 17.3138 13.9105 17.238 14.1467 17.1623 14.3972 17.1623 14.8982 17.1623H15.7408C16.6043 17.1623 17.0362 17.1623 17.371 16.9968 17.7262 16.8213 18.0116 16.5188 18.1772 16.1423 18.3333 15.7874 18.3333 15.3298 18.3333 14.4144Z" stroke="currentColor" stroke-width="2"/>
</svg>
