<svg xmlns="http://www.w3.org/2000/svg" width="20" height="20" viewBox="0 0 20 20" fill="none">
  <path d="M16.6667 12.0833V5.4167C16.6667 3.8453 16.6667 3.0596 16.1785 2.5715 15.6903 2.0833 14.9047 2.0833 13.3333 2.0833H6.6667C5.0953 2.0833 4.3096 2.0833 3.8215 2.5715 3.3333 3.0596 3.3333 3.8453 3.3333 5.4167V12.0833" stroke="currentColor" stroke-linecap="round" stroke-linejoin="round" stroke-width="2"/>
  <path d="M2.9147 12.9295L3.3496 12.0833H16.6265L17.0853 12.9295C18.2877 15.1475 18.5872 16.2564 18.1301 17.0866 17.6731 17.9167 16.4613 17.9167 14.0378 17.9167L5.9622 17.9167C3.5387 17.9167 2.3269 17.9167 1.8699 17.0866 1.4129 16.2564 1.7123 15.1475 2.9147 12.9295Z" stroke="currentColor" stroke-linecap="round" stroke-linejoin="round" stroke-width="2"/>
  <path d="M12.9167 5.8333L13.6832 6.4941C14.0055 6.7719 14.1667 6.9107 14.1667 7.0833 14.1667 7.2559 14.0055 7.3948 13.6832 7.6726L12.9167 8.3333" stroke="currentColor" stroke-linecap="round" stroke-linejoin="round" stroke-width="2"/>
  <path d="M7.0833 5.8333L6.3167 6.4941C5.9945 6.7719 5.8333 6.9107 5.8333 7.0833 5.8333 7.2559 5.9945 7.3948 6.3167 7.6726L7.0833 8.3333" stroke="currentColor" stroke-linecap="round" stroke-linejoin="round" stroke-width="2"/>
  <path d="M10.8333 5L9.1667 9.1667" stroke="currentColor" stroke-linecap="round" stroke-linejoin="round" stroke-width="2"/>
</svg>
