<svg xmlns="http://www.w3.org/2000/svg" width="20" height="20" viewBox="0 0 20 20" fill="none">
  <path d="M13.3333 11.2501V14.5834C13.3333 15.7619 13.3333 16.3512 13.6993 16.7173 14.0655 17.0834 14.6547 17.0834 15.8333 17.0834 17.0118 17.0834 17.601 17.0834 17.9671 16.7173 18.3332 16.3512 18.3332 15.7619 18.3332 14.5834V11.2501C18.3332 10.0716 18.3332 9.4823 17.9671 9.1163 17.601 8.7501 17.0118 8.7501 15.8333 8.7501 14.6547 8.7501 14.0655 8.7501 13.6993 9.1163 13.3333 9.4823 13.3333 10.0716 13.3333 11.2501Z" stroke="currentColor" stroke-linecap="round" stroke-linejoin="round" stroke-width="2"/>
  <path d="M3.3332 13.7504V7.0837C3.3332 5.1196 3.3332 4.1375 3.9438 3.5273 4.5543 2.9171 5.537 2.9171 7.5024 2.9171H13.3392C15.3045 2.9171 16.2872 2.9171 16.8978 3.5273 17.3622 3.9914 17.4733 4.6707 17.4999 5.8337" stroke="currentColor" stroke-linecap="round" stroke-linejoin="round" stroke-width="2"/>
  <path d="M10.8333 17.0837H2.0964C1.7773 17.0837 1.5697 16.7578 1.7124 16.4808L3.3332 13.7504H10.8333" stroke="currentColor" stroke-linecap="round" stroke-linejoin="round" stroke-width="2"/>
</svg>
