<svg xmlns="http://www.w3.org/2000/svg" width="20" height="20" viewBox="0 0 20 20" fill="none">
  <path d="M4.5833 12.9167L2.1758 4.6587C1.7053 3.0503 1.47 2.246 1.8715 1.8464 2.2729 1.4468 3.0073 1.7542 4.4761 2.369L9.7433 4.5738C10.9868 5.0942 11.5303 5.0526 12.6928 4.3714L15.6644 2.6299C16.9243 1.8917 17.5542 1.5225 17.9918 1.8279 18.4296 2.1333 18.3663 2.8979 18.2398 4.4269L17.7779 10.0091C17.6021 12.1348 17.2188 12.7496 15.1401 13.2977L8.3333 15" stroke="currentColor" stroke-linecap="round" stroke-linejoin="round" stroke-width="2"/>
  <path d="M8.3225 14.1667C8.3225 15.0872 7.3922 15.8333 6.2446 15.8333 5.097 15.8333 4.1667 15.0872 4.1667 14.1667 4.1667 13.2462 5.097 12.5 6.2446 12.5 7.3922 12.5 8.3225 13.2462 8.3225 14.1667ZM8.3225 14.1667C8.3744 14.8103 8.3387 17.0833 5.8354 18.3333" stroke="currentColor" stroke-linecap="round" stroke-linejoin="round" stroke-width="2"/>
</svg>
