<svg xmlns="http://www.w3.org/2000/svg" width="20" height="20" viewBox="0 0 20 20" fill="none">
  <path d="M13.6678 10.6791L16.1818 11.6628C17.6318 12.2302 18.3568 12.5138 18.3328 12.9639 18.3088 13.4139 17.5521 13.6203 16.0388 14.0329L16.0388 14.0329C15.5883 14.1558 15.363 14.2173 15.2068 14.3735 15.0506 14.5297 14.9892 14.7549 14.8663 15.2055L14.8663 15.2055C14.4536 16.7188 14.2472 17.4754 13.7973 17.4994 13.3472 17.5235 13.0635 16.7985 12.4961 15.3485L11.5124 12.8345C10.9183 11.3164 10.6213 10.5573 11.006 10.1727 11.3907 9.788 12.1498 10.085 13.6678 10.6791Z" stroke="currentColor" stroke-linecap="round" stroke-linejoin="round" stroke-width="2"/>
  <path d="M4.1667 14.1667C3.2462 14.1667 2.5 13.4205 2.5 12.5 2.5 11.5795 3.2462 10.8333 4.1667 10.8333 5.0871 10.8333 5.8333 11.5795 5.8333 12.5 5.8333 13.4205 5.0871 14.1667 4.1667 14.1667ZM4.1667 14.1667C4.1667 15.5 5.2778 16.3889 5.8333 16.6667M18.2489 9.1667C18.3046 8.8945 18.3333 8.6162 18.3333 8.3333 18.3333 5.1117 14.6023 2.5 10 2.5 5.3976 2.5 1.6667 5.1117 1.6667 8.3333 1.6667 9.4333 2.1015 10.462 2.8575 11.3401M5.7053 13.3333C6.5038 13.6702 7.3896 13.9159 8.3333 14.05" stroke="currentColor" stroke-linecap="round" stroke-linejoin="round" stroke-width="2"/>
</svg>
