<svg xmlns="http://www.w3.org/2000/svg" width="20" height="20" viewBox="0 0 20 20" fill="none">
  <path d="M2.0833 10C2.0833 6.268 2.0833 4.4021 3.2427 3.2427 4.4021 2.0833 6.268 2.0833 10 2.0833 13.7319 2.0833 15.5979 2.0833 16.7573 3.2427 17.9167 4.4021 17.9167 6.268 17.9167 10 17.9167 13.7319 17.9167 15.5979 16.7573 16.7573 15.5979 17.9167 13.7319 17.9167 10 17.9167 6.268 17.9167 4.4021 17.9167 3.2427 16.7573 2.0833 15.5979 2.0833 13.7319 2.0833 10Z" stroke="currentColor" stroke-linejoin="round" stroke-width="2"/>
  <path d="M9.2262 12.5265C8.7709 12.7747 8.2424 12.9167 7.6786 12.9167 5.9691 12.9167 4.5833 11.6108 4.5833 10 4.5833 8.3892 5.9691 7.0833 7.6786 7.0833 9.5648 7.2211 10.1314 8.8841 10.4732 10 11.247 12.5265 13.0143 12.9167 13.8691 12.9167 14.7238 12.9167 15.4167 12.2637 15.4167 11.4583 15.4167 10.6529 14.7238 10 13.8691 10 13.0143 10 12.3214 9.3471 12.3214 8.5417 12.3214 7.7363 13.0143 7.0833 13.8691 7.0833 14.6466 7.0833 15.2902 7.6237 15.4001 8.3276" stroke="currentColor" stroke-linecap="round" stroke-width="2"/>
</svg>
