<svg xmlns="http://www.w3.org/2000/svg" width="20" height="20" viewBox="0 0 20 20" fill="none">
  <path d="M15.4334 5.1914C15.6767 6.5803 14.5836 7.5 14.5836 7.5 14.5836 7.5 13.2473 7.0308 13.0041 5.6419 12.7608 4.253 13.8539 3.3333 13.8539 3.3333 13.8539 3.3333 15.1902 3.8025 15.4334 5.1914Z" stroke="currentColor" stroke-linecap="round" stroke-linejoin="round" stroke-width="2"/>
  <path d="M17.4392 11.3239C16.3184 12.2648 14.9473 11.741 14.9473 11.741 14.9473 11.741 14.6971 10.2762 15.8178 9.3353 16.9385 8.3943 18.3096 8.9183 18.3096 8.9183 18.3096 8.9183 18.5598 10.383 17.4392 11.3239Z" stroke="currentColor" stroke-linecap="round" stroke-linejoin="round" stroke-width="2"/>
  <path d="M13.9446 16.5218C12.6946 16.0422 12.5 14.6972 12.5 14.6972 12.5 14.6972 13.5554 13.8318 14.8054 14.3115 16.0554 14.7912 16.25 16.1362 16.25 16.1362 16.25 16.1362 15.1946 17.0015 13.9446 16.5218Z" stroke="currentColor" stroke-linecap="round" stroke-linejoin="round" stroke-width="2"/>
  <path d="M12.5 14.6972C13.6709 13.6965 15.0005 11.7137 15.0005 9.7728 15.0005 8.969 14.8714 8.2018 14.637 7.5" stroke="currentColor" stroke-linecap="round" stroke-linejoin="round" stroke-width="2"/>
  <path d="M4.5666 5.1914C4.3233 6.5803 5.4164 7.5 5.4164 7.5 5.4164 7.5 6.7527 7.0308 6.9959 5.6419 7.2392 4.253 6.1461 3.3333 6.1461 3.3333 6.1461 3.3333 4.8098 3.8025 4.5666 5.1914Z" stroke="currentColor" stroke-linecap="round" stroke-linejoin="round" stroke-width="2"/>
  <path d="M2.5609 11.3239C3.6816 12.2648 5.0526 11.741 5.0526 11.741 5.0526 11.741 5.3029 10.2762 4.1822 9.3353 3.0615 8.3943 1.6904 8.9183 1.6904 8.9183 1.6904 8.9183 1.4401 10.383 2.5609 11.3239Z" stroke="currentColor" stroke-linecap="round" stroke-linejoin="round" stroke-width="2"/>
  <path d="M6.0554 16.5218C7.3054 16.0422 7.5 14.6972 7.5 14.6972 7.5 14.6972 6.4446 13.8318 5.1946 14.3115 3.9446 14.7912 3.75 16.1362 3.75 16.1362 3.75 16.1362 4.8054 17.0015 6.0554 16.5218Z" stroke="currentColor" stroke-linecap="round" stroke-linejoin="round" stroke-width="2"/>
  <path d="M7.5 14.6972C6.3291 13.6965 4.9995 11.7137 4.9995 9.7728 4.9995 8.969 5.1286 8.2018 5.363 7.5" stroke="currentColor" stroke-linecap="round" stroke-linejoin="round" stroke-width="2"/>
  <path d="M9.1667 8.3333L10 7.9167V12.0833M10.8333 12.0833H9.1667" stroke="currentColor" stroke-linecap="round" stroke-linejoin="round" stroke-width="2"/>
</svg>
