<svg xmlns="http://www.w3.org/2000/svg" width="20" height="20" viewBox="0 0 20 20" fill="none">
  <path d="M7.705 5.5092C7.5273 6.8778 8.625 8.1477 8.625 8.1477 8.625 8.1477 10.0108 7.1988 10.1885 5.8303 10.3663 4.4617 9.2686 3.1917 9.2686 3.1917 9.2686 3.1917 7.8827 4.1406 7.705 5.5092Z" stroke="currentColor" stroke-linejoin="round" stroke-width="2"/>
  <path d="M6.4025 10.1084C6.9826 11.3612 8.5895 11.8528 8.5895 11.8528 8.5895 11.8528 9.2559 10.3133 8.6759 9.0605 8.0959 7.8077 6.4889 7.3161 6.4889 7.3161 6.4889 7.3161 5.8225 8.8556 6.4025 10.1084Z" stroke="currentColor" stroke-linejoin="round" stroke-width="2"/>
  <path d="M9.8413 15.0113C9.8413 15.0113 8.1931 15.3403 7.0864 14.5126 5.9796 13.685 5.8333 12.0143 5.8333 12.0143 5.8333 12.0143 7.4815 11.6855 8.5883 12.5131 9.695 13.3408 9.8413 15.0113 9.8413 15.0113ZM9.8413 15.0113H12.5064C13.4238 15.0113 14.1674 15.755 14.1674 16.6723 14.1674 17.5897 13.4238 18.3333 12.5064 18.3333H10.8341" stroke="currentColor" stroke-linecap="round" stroke-linejoin="round" stroke-width="2"/>
  <path d="M11.4844 2.473C10.4757 3.4171 10.5145 5.0937 10.5145 5.0937 10.5145 5.0937 12.1889 5.2396 13.1977 4.2955 14.2064 3.3514 14.1675 1.6748 14.1675 1.6748 14.1675 1.6748 12.4932 1.5289 11.4844 2.473Z" stroke="currentColor" stroke-linejoin="round" stroke-width="2"/>
</svg>
