<svg xmlns="http://www.w3.org/2000/svg" width="20" height="20" viewBox="0 0 20 20" fill="none">
  <path d="M5.3635 6.6667C5.1291 7.3685 5 8.1357 5 8.9394 5 12.2866 7.2386 15 10 15 12.7614 15 15 12.2866 15 8.9394 15 8.1357 14.8709 7.3685 14.6366 6.6667" stroke="currentColor" stroke-linecap="round" stroke-linejoin="round" stroke-width="2"/>
  <path d="M12.0833 17.5C12.0833 17.5 11.515 15 10 15 8.485 15 7.9167 17.5 7.9167 17.5" stroke="currentColor" stroke-linecap="round" stroke-linejoin="round" stroke-width="2"/>
  <path d="M15.4335 4.3581C15.6768 5.747 14.5837 6.6667 14.5837 6.6667 14.5837 6.6667 13.2474 6.1975 13.0042 4.8086 12.7609 3.4197 13.854 2.5 13.854 2.5 13.854 2.5 15.1903 2.9692 15.4335 4.3581Z" stroke="currentColor" stroke-linecap="round" stroke-linejoin="round" stroke-width="2"/>
  <path d="M9.1667 7.5L10 7.0833V11.25M10.8333 11.25H9.1667" stroke="currentColor" stroke-linecap="round" stroke-linejoin="round" stroke-width="2"/>
  <path d="M17.5785 10.1161C16.5107 11.1718 15.0648 10.7502 15.0648 10.7502 15.0648 10.7502 14.6867 9.273 15.7546 8.2173 16.8223 7.1616 18.2683 7.5831 18.2683 7.5831 18.2683 7.5831 18.6463 9.0603 17.5785 10.1161Z" stroke="currentColor" stroke-linecap="round" stroke-linejoin="round" stroke-width="2"/>
  <path d="M15.1946 15.158C13.9446 14.6783 13.75 13.3333 13.75 13.3333 13.75 13.3333 14.8054 12.468 16.0554 12.9477 17.3054 13.4273 17.5 14.7723 17.5 14.7723 17.5 14.7723 16.4446 15.6377 15.1946 15.158Z" stroke="currentColor" stroke-linecap="round" stroke-linejoin="round" stroke-width="2"/>
  <path d="M4.8054 15.1579C6.0554 14.6783 6.25 13.3333 6.25 13.3333 6.25 13.3333 5.1946 12.4679 3.9446 12.9476 2.6946 13.4273 2.5 14.7723 2.5 14.7723 2.5 14.7723 3.5554 15.6376 4.8054 15.1579Z" stroke="currentColor" stroke-linecap="round" stroke-linejoin="round" stroke-width="2"/>
  <path d="M2.4213 10.1161C3.4891 11.1718 4.9349 10.7502 4.9349 10.7502 4.9349 10.7502 5.313 9.273 4.2452 8.2173 3.1774 7.1616 1.7315 7.5831 1.7315 7.5831 1.7315 7.5831 1.3535 9.0603 2.4213 10.1161Z" stroke="currentColor" stroke-linecap="round" stroke-linejoin="round" stroke-width="2"/>
  <path d="M4.5666 4.3581C4.3233 5.747 5.4164 6.6667 5.4164 6.6667 5.4164 6.6667 6.7527 6.1975 6.9959 4.8086 7.2392 3.4197 6.1461 2.5 6.1461 2.5 6.1461 2.5 4.8098 2.9692 4.5666 4.3581Z" stroke="currentColor" stroke-linecap="round" stroke-linejoin="round" stroke-width="2"/>
</svg>
