<svg xmlns="http://www.w3.org/2000/svg" width="20" height="20" viewBox="0 0 20 20" fill="none">
  <path d="M10.8426 5.4167C10.8426 5.4167 9.3158 5.3616 8.6152 4.1116 7.9146 2.8616 8.7408 1.6667 8.7408 1.6667 8.7408 1.6667 10.2675 1.7218 10.9682 2.9718 11.6687 4.2218 10.8426 5.4167 10.8426 5.4167Z" stroke="currentColor" stroke-linejoin="round" stroke-width="2"/>
  <path d="M10.6809 5.4167C11.9004 7.1658 13.4451 11.2292 9.8679 13.4896 5.3964 16.3151 4.9898 17.1224 4.5833 18.3333" stroke="currentColor" stroke-linecap="round" stroke-width="2"/>
  <path d="M6.6399 15.4167C6.6399 15.4167 9.6169 14.2803 7.9156 11.25 7.9156 11.25 4.5135 12.3863 6.6399 15.4167Z" stroke="currentColor" stroke-linecap="round" stroke-linejoin="round" stroke-width="2"/>
  <path d="M6.6667 15.8334C6.6667 15.8334 8.6395 13.271 11.25 15.9208 11.25 15.9208 9.1603 18.9015 6.6667 15.8334Z" stroke="currentColor" stroke-linecap="round" stroke-linejoin="round" stroke-width="2"/>
  <path d="M12.0912 10.7826C12.0912 10.7826 11.7603 7.3781 15.3918 7.5034 15.3918 7.5034 15.9218 11.3137 12.0912 10.7826Z" stroke="currentColor" stroke-linecap="round" stroke-linejoin="round" stroke-width="2"/>
  <path d="M12.0755 10.4168C12.0755 10.4168 12.4063 7.0123 8.7749 7.1376 8.7749 7.1376 8.2449 10.9478 12.0755 10.4168Z" stroke="currentColor" stroke-linecap="round" stroke-linejoin="round" stroke-width="2"/>
</svg>
