<svg xmlns="http://www.w3.org/2000/svg" width="20" height="20" viewBox="0 0 20 20" fill="none">
  <path d="M9.1574 5.4167C9.1574 5.4167 10.6842 5.3616 11.3848 4.1116 12.0854 2.8616 11.2593 1.6667 11.2593 1.6667 11.2593 1.6667 9.7324 1.7218 9.0318 2.9718 8.3313 4.2218 9.1574 5.4167 9.1574 5.4167Z" stroke="currentColor" stroke-linejoin="round" stroke-width="2"/>
  <path d="M9.3191 5.4167C8.0996 7.1658 6.5549 11.2292 10.1321 13.4896 14.6036 16.3151 15.0102 17.1224 15.4167 18.3333" stroke="currentColor" stroke-linecap="round" stroke-width="2"/>
  <path d="M13.3601 15.4167C13.3601 15.4167 10.3831 14.2803 12.0843 11.25 12.0843 11.25 15.4865 12.3863 13.3601 15.4167Z" stroke="currentColor" stroke-linecap="round" stroke-linejoin="round" stroke-width="2"/>
  <path d="M13.3333 15.8334C13.3333 15.8334 11.3605 13.271 8.75 15.9209 8.75 15.9209 10.8398 18.9015 13.3333 15.8334Z" stroke="currentColor" stroke-linecap="round" stroke-linejoin="round" stroke-width="2"/>
  <path d="M7.9088 10.7826C7.9088 10.7826 8.2397 7.3781 4.6082 7.5034 4.6082 7.5034 4.0783 11.3137 7.9088 10.7826Z" stroke="currentColor" stroke-linecap="round" stroke-linejoin="round" stroke-width="2"/>
  <path d="M7.9245 10.4168C7.9245 10.4168 7.5936 7.0124 11.2251 7.1376 11.2251 7.1376 11.7551 10.9478 7.9245 10.4168Z" stroke="currentColor" stroke-linecap="round" stroke-linejoin="round" stroke-width="2"/>
</svg>
