<svg xmlns="http://www.w3.org/2000/svg" width="20" height="20" viewBox="0 0 20 20" fill="none">
  <path d="M13.9629 5.5092C14.1407 6.8778 13.043 8.1477 13.043 8.1477 13.043 8.1477 11.6572 7.1988 11.4794 5.8303 11.3018 4.4617 12.3994 3.1917 12.3994 3.1917 12.3994 3.1917 13.7853 4.1406 13.9629 5.5092Z" stroke="currentColor" stroke-linejoin="round" stroke-width="2"/>
  <path d="M15.2644 10.1084C14.6844 11.3612 13.0775 11.8528 13.0775 11.8528 13.0775 11.8528 12.411 10.3133 12.9911 9.0605 13.5711 7.8077 15.178 7.3161 15.178 7.3161 15.178 7.3161 15.8445 8.8556 15.2644 10.1084Z" stroke="currentColor" stroke-linejoin="round" stroke-width="2"/>
  <path d="M11.8262 15.0113C11.8262 15.0113 13.4743 15.3403 14.5811 14.5126 15.6878 13.685 15.8341 12.0143 15.8341 12.0143 15.8341 12.0143 14.186 11.6855 13.0793 12.5131 11.9724 13.3408 11.8262 15.0113 11.8262 15.0113ZM11.8262 15.0113H9.161C8.2436 15.0113 7.5 15.755 7.5 16.6723 7.5 17.5897 8.2436 18.3333 9.161 18.3333H10.8333" stroke="currentColor" stroke-linecap="round" stroke-linejoin="round" stroke-width="2"/>
  <path d="M10.1833 2.473C11.1921 3.4171 11.1532 5.0937 11.1532 5.0937 11.1532 5.0937 9.4788 5.2396 8.4701 4.2955 7.4613 3.3514 7.5002 1.6748 7.5002 1.6748 7.5002 1.6748 9.1746 1.5289 10.1833 2.473Z" stroke="currentColor" stroke-linejoin="round" stroke-width="2"/>
</svg>
