<svg xmlns="http://www.w3.org/2000/svg" width="20" height="20" viewBox="0 0 20 20" fill="none">
  <rect x="9.166666666666668" y="1.6666666666666667" width="9.166666666666668" height="9.166666666666668" rx="2.0833333333333335" stroke="currentColor" stroke-linecap="round" stroke-linejoin="round" stroke-width="2"/>
  <path d="M9.1667 5.4171C7.4771 5.4201 6.5923 5.4616 6.0269 6.027 5.4167 6.6372 5.4167 7.6193 5.4167 9.5835V10.4168C5.4167 12.381 5.4167 13.3631 6.0269 13.9733 6.6371 14.5835 7.6192 14.5835 9.5833 14.5835H10.4167C12.3808 14.5835 13.3629 14.5835 13.9732 13.9733 14.5386 13.4079 14.5801 12.5231 14.5831 10.8335" stroke="currentColor" stroke-linecap="round" stroke-linejoin="round" stroke-width="2"/>
  <path d="M5.4167 9.1671C3.7271 9.1701 2.8423 9.2116 2.2769 9.777 1.6667 10.3873 1.6667 11.3693 1.6667 13.3335V14.1668C1.6667 16.131 1.6667 17.1131 2.2769 17.7233 2.8871 18.3335 3.8691 18.3335 5.8333 18.3335H6.6667C8.6308 18.3335 9.6129 18.3335 10.2232 17.7233 10.7886 17.1579 10.8301 16.2731 10.8331 14.5835" stroke="currentColor" stroke-linecap="round" stroke-linejoin="round" stroke-width="2"/>
</svg>
