<svg xmlns="http://www.w3.org/2000/svg" width="20" height="20" viewBox="0 0 20 20" fill="none">
  <path d="M7.2025 2.6213L5.7818 3.278C3.5939 4.2893 2.5 4.795 2.5 5.625 2.5 6.455 3.5939 6.9607 5.7818 7.972L7.2025 8.6287C8.5793 9.2651 9.2678 9.5833 10 9.5833 10.7322 9.5833 11.4207 9.2651 12.7975 8.6287L14.2182 7.972C16.4061 6.9607 17.5 6.455 17.5 5.625 17.5 4.795 16.4061 4.2893 14.2182 3.278L12.7975 2.6213C11.4207 1.9849 10.7322 1.6667 10 1.6667 9.2678 1.6667 8.5793 1.9849 7.2025 2.6213Z" stroke="currentColor" stroke-linecap="round" stroke-linejoin="round" stroke-width="2"/>
  <path d="M17.3233 9.2477C17.4411 9.4132 17.5 9.5859 17.5 9.7758 17.5 10.5939 16.4061 11.0924 14.2182 12.0893L12.7975 12.7367C11.4207 13.364 10.7322 13.6777 10 13.6777 9.2678 13.6777 8.5793 13.364 7.2025 12.7367L5.7818 12.0893C3.5939 11.0924 2.5 10.5939 2.5 9.7758 2.5 9.5859 2.5589 9.4132 2.6767 9.2477" stroke="currentColor" stroke-linecap="round" stroke-linejoin="round" stroke-width="2"/>
  <path d="M16.9806 13.5551C17.3268 13.8309 17.5 14.1058 17.5 14.4313 17.5 15.2496 16.4061 15.748 14.2182 16.7449L12.7975 17.3923C11.4207 18.0197 10.7322 18.3333 10 18.3333 9.2678 18.3333 8.5793 18.0197 7.2025 17.3923L5.7818 16.7449C3.5939 15.748 2.5 15.2496 2.5 14.4313 2.5 14.1058 2.6732 13.8309 3.0194 13.5551" stroke="currentColor" stroke-linecap="round" stroke-linejoin="round" stroke-width="2"/>
</svg>
