<svg xmlns="http://www.w3.org/2000/svg" width="20" height="20" viewBox="0 0 20 20" fill="none">
  <path d="M13.2416 10.4167L16.0727 9.1162C17.5798 8.4238 18.3333 8.0777 18.3333 7.5 18.3333 6.9223 17.5798 6.5761 16.0727 5.8839L11.9953 4.0108C11.012 3.5592 10.5204 3.3333 10 3.3333 9.4796 3.3333 8.988 3.5592 8.0048 4.0108L3.9272 5.8839C2.4202 6.5761 1.6667 6.9223 1.6667 7.5 1.6667 8.0777 2.4202 8.4238 3.9272 9.1162L6.7584 10.4167" stroke="currentColor" stroke-linecap="round" stroke-linejoin="round" stroke-width="2"/>
  <path d="M10 16.25V7.5M12.5 14.1667C12.0085 14.6723 10.7003 16.6667 10 16.6667 9.2998 16.6667 7.9915 14.6723 7.5 14.1667" stroke="currentColor" stroke-linecap="round" stroke-linejoin="round" stroke-width="2"/>
</svg>
