<svg xmlns="http://www.w3.org/2000/svg" width="20" height="20" viewBox="0 0 20 20" fill="none">
  <path d="M8.0048 4.0108C8.988 3.5592 9.4796 3.3333 10 3.3333 10.5204 3.3333 11.012 3.5592 11.9953 4.0108L16.0727 5.8839C17.5798 6.5761 18.3333 6.9223 18.3333 7.5 18.3333 8.0777 17.5798 8.4238 16.0727 9.1162L11.9953 10.9892C11.012 11.4408 10.5204 11.6667 10 11.6667 9.4796 11.6667 8.988 11.4408 8.0048 10.9892L3.9272 9.1162C2.4202 8.4238 1.6667 8.0777 1.6667 7.5 1.6667 6.9223 2.4202 6.5761 3.9272 5.8839L8.0048 4.0108Z" stroke="currentColor" stroke-linecap="round" stroke-linejoin="round" stroke-width="2"/>
  <path d="M16.8606 11.25C17.8424 11.7183 18.3333 12.0338 18.3333 12.5001 18.3333 13.0778 17.5798 13.4239 16.0727 14.1162L11.9953 15.9893C11.012 16.4409 10.5204 16.6668 10 16.6668 9.4796 16.6668 8.988 16.4409 8.0048 15.9893L3.9272 14.1162C2.4202 13.4239 1.6667 13.0778 1.6667 12.5001 1.6667 12.0338 2.1576 11.7183 3.1394 11.25" stroke="currentColor" stroke-linecap="round" stroke-linejoin="round" stroke-width="2"/>
</svg>
