<svg xmlns="http://www.w3.org/2000/svg" width="20" height="20" viewBox="0 0 20 20" fill="none">
  <path d="M14.1487 6.6667L16.0727 7.5505C17.5798 8.2428 18.3333 8.5889 18.3333 9.1667 18.3333 9.7444 17.5798 10.0905 16.0727 10.7828L11.9953 12.6558C11.012 13.1075 10.5204 13.3333 10 13.3333 9.4796 13.3333 8.988 13.1075 8.0048 12.6558L3.9272 10.7828C2.4202 10.0905 1.6667 9.7444 1.6667 9.1667 1.6667 8.5889 2.4202 8.2428 3.9272 7.5505L5.8514 6.6667" stroke="currentColor" stroke-linecap="round" stroke-linejoin="round" stroke-width="2"/>
  <path d="M10 2.0833V8.3333M12.5 4.1667C12.0085 3.661 10.7003 1.6667 10 1.6667 9.2998 1.6667 7.9915 3.661 7.5 4.1667" stroke="currentColor" stroke-linecap="round" stroke-linejoin="round" stroke-width="2"/>
  <path d="M16.8606 12.9167C17.8424 13.385 18.3333 13.7004 18.3333 14.1668 18.3333 14.7445 17.5798 15.0906 16.0727 15.7829L11.9953 17.6559C11.012 18.1076 10.5204 18.3334 10 18.3334 9.4796 18.3334 8.988 18.1076 8.0048 17.6559L3.9272 15.7829C2.4202 15.0906 1.6667 14.7445 1.6667 14.1668 1.6667 13.7004 2.1576 13.385 3.1394 12.9167" stroke="currentColor" stroke-linecap="round" stroke-linejoin="round" stroke-width="2"/>
</svg>
