<svg xmlns="http://www.w3.org/2000/svg" width="20" height="20" viewBox="0 0 20 20" fill="none">
  <path d="M8.2322 16.7678C8.9645 17.5001 10.143 17.5001 12.5 17.5001 14.857 17.5001 16.0355 17.5001 16.7678 16.7678 17.5 16.0357 17.5 14.8571 17.5 12.5001 17.5 10.1431 17.5 8.9646 16.7678 8.2323 16.0355 7.5001 14.857 7.5001 12.5 7.5001 10.143 7.5001 8.9645 7.5001 8.2322 8.2323 7.5 8.9646 7.5 10.1431 7.5 12.5001 7.5 14.8571 7.5 16.0357 8.2322 16.7678Z" stroke="currentColor" stroke-linecap="round" stroke-linejoin="round" stroke-width="2"/>
  <path d="M14.9366 7.5001C14.8567 6.6875 14.676 6.1406 14.2678 5.7323 13.5355 5.0001 12.357 5.0001 10 5.0001 7.643 5.0001 6.4645 5.0001 5.7322 5.7323 5 6.4646 5 7.6431 5 10.0001 5 12.3571 5 13.5357 5.7322 14.2678 6.1405 14.6761 6.6874 14.8567 7.5 14.9367" stroke="currentColor" stroke-linecap="round" stroke-linejoin="round" stroke-width="2"/>
  <path d="M12.4366 5.0001C12.3567 4.1875 12.176 3.6406 11.7677 3.2323 11.0355 2.5001 9.857 2.5001 7.5 2.5001 5.143 2.5001 3.9645 2.5001 3.2322 3.2323 2.5 3.9646 2.5 5.1431 2.5 7.5001 2.5 9.8571 2.5 11.0357 3.2322 11.7678 3.6405 12.1761 4.1874 12.3567 5 12.4367" stroke="currentColor" stroke-linecap="round" stroke-linejoin="round" stroke-width="2"/>
</svg>
