<svg xmlns="http://www.w3.org/2000/svg" width="20" height="20" viewBox="0 0 20 20" fill="none">
  <path d="M13.2416 9.5833L16.0727 10.8838C17.5798 11.5762 18.3333 11.9223 18.3333 12.5 18.3333 13.0778 17.5798 13.4238 16.0727 14.1162L11.9953 15.9892C11.012 16.4408 10.5204 16.6667 10 16.6667 9.4796 16.6667 8.988 16.4408 8.0048 15.9892L3.9272 14.1162C2.4202 13.4238 1.6667 13.0778 1.6667 12.5 1.6667 11.9223 2.4202 11.5762 3.9272 10.8838L6.7584 9.5833" stroke="currentColor" stroke-linecap="round" stroke-linejoin="round" stroke-width="2"/>
  <path d="M10 3.75V12.5M12.5 5.8333C12.0085 5.3276 10.7003 3.3333 10 3.3333 9.2998 3.3333 7.9915 5.3276 7.5 5.8333" stroke="currentColor" stroke-linecap="round" stroke-linejoin="round" stroke-width="2"/>
</svg>
