<svg xmlns="http://www.w3.org/2000/svg" width="20" height="20" viewBox="0 0 20 20" fill="none">
  <path d="M3.2909 16.7092L2.5 17.5M3.2909 16.7092C4.6013 15.3988 6.7258 15.3988 8.0362 16.7092 9.0553 17.7283 10.7078 17.7283 11.7269 16.7092 12.2099 16.2262 12.4633 15.6009 12.4885 14.9683 13.3951 15.2677 14.4329 15.0577 15.1541 14.3365 15.9753 13.5153 16.1346 12.2832 15.6324 11.3023 16.0363 11.1829 16.4172 10.9645 16.7358 10.6458 17.7551 9.6267 17.7545 7.9737 16.7353 6.9546 17.7361 5.934 17.7303 4.2959 16.7173 3.2829 15.7043 2.2699 14.0657 2.2637 13.0451 3.2644 12.0259 2.2452 10.3735 2.2452 9.3543 3.2644 9.0357 3.583 8.8167 3.9635 8.6973 4.3673 7.7165 3.8655 6.4846 4.0251 5.6635 4.8461 4.9425 5.5671 4.7322 6.6048 5.0312 7.5112 4.3988 7.5365 3.7738 7.7903 3.2909 8.2732 2.2717 9.2923 2.2717 10.9447 3.2909 11.9639 4.6013 13.2743 4.6013 15.3988 3.2909 16.7092Z" stroke="currentColor" stroke-linecap="round" stroke-linejoin="round" stroke-width="2"/>
  <path d="M4.1667 15.8333L12.5 7.5" stroke="currentColor" stroke-linecap="round" stroke-linejoin="round" stroke-width="2"/>
</svg>
