<svg xmlns="http://www.w3.org/2000/svg" width="20" height="20" viewBox="0 0 20 20" fill="none">
  <path d="M2.5 11.6667V8.3333C2.5 5.1906 2.5 3.6193 3.4763 2.643 4.4526 1.6667 6.024 1.6667 9.1667 1.6667H10.8333C13.976 1.6667 15.5474 1.6667 16.5237 2.643 17.5 3.6193 17.5 5.1906 17.5 8.3333V11.6667C17.5 14.8093 17.5 16.3808 16.5237 17.357 15.5474 18.3333 13.976 18.3333 10.8333 18.3333H9.1667C6.024 18.3333 4.4526 18.3333 3.4763 17.357 2.5 16.3808 2.5 14.8093 2.5 11.6667Z" stroke="currentColor" stroke-width="2"/>
  <path d="M9.4444 8.8889C10.3236 9.768 11.4815 10.6614 11.4815 10.6614L13.0687 9.0741C13.0687 9.0741 12.1754 7.9162 11.2963 7.037 10.4172 6.1579 9.2593 5.2645 9.2593 5.2645L7.672 6.8519C7.672 6.8519 8.5653 8.0098 9.4444 8.8889ZM9.4444 8.8889L6.6667 11.6667M13.3333 8.8095L11.2169 10.9259M9.5238 5L7.4074 7.1164" stroke="currentColor" stroke-linecap="round" stroke-linejoin="round" stroke-width="2"/>
  <path d="M6.6667 15H13.3333" stroke="currentColor" stroke-linecap="round" stroke-width="2"/>
</svg>
