<svg xmlns="http://www.w3.org/2000/svg" width="20" height="20" viewBox="0 0 20 20" fill="none">
  <path d="M9.8611 10.1389C10.7402 11.018 11.8982 11.9114 11.8982 11.9114L13.4854 10.3241C13.4854 10.3241 12.5921 9.1662 11.713 8.287 10.8338 7.4079 9.6759 6.5145 9.6759 6.5145L8.0886 8.1019C8.0886 8.1019 8.982 9.2598 9.8611 10.1389ZM9.8611 10.1389L7.0833 12.9167M13.75 10.0595L11.6336 12.1759M9.9405 6.25L7.8241 8.3664" stroke="currentColor" stroke-linecap="round" stroke-linejoin="round" stroke-width="2"/>
  <path d="M17.5 9.3194V6.9002C17.5 5.5336 17.5 4.8502 17.1633 4.4044 16.8265 3.9586 16.0651 3.7421 14.5423 3.3093 13.5018 3.0135 12.5847 2.6572 11.8519 2.3319 10.8528 1.8884 10.3533 1.6667 10 1.6667 9.6467 1.6667 9.1472 1.8884 8.1481 2.3319 7.4153 2.6572 6.4982 3.0135 5.4578 3.3093 3.9349 3.7421 3.1735 3.9586 2.8368 4.4044 2.5 4.8502 2.5 5.5336 2.5 6.9002V9.3194C2.5 14.0071 6.719 16.8196 8.8283 17.9328 9.3343 18.1998 9.5872 18.3333 10 18.3333 10.4128 18.3333 10.6658 18.1998 11.1717 17.9328 13.281 16.8196 17.5 14.0071 17.5 9.3194Z" stroke="currentColor" stroke-linecap="round" stroke-width="2"/>
</svg>
