<svg xmlns="http://www.w3.org/2000/svg" width="20" height="20" viewBox="0 0 20 20" fill="none">
  <path d="M2.5 11.6667V8.3333C2.5 5.1906 2.5 3.6193 3.4763 2.643 4.4526 1.6667 6.024 1.6667 9.1667 1.6667H10.8333C13.976 1.6667 15.5474 1.6667 16.5237 2.643 17.5 3.6193 17.5 5.1906 17.5 8.3333V11.6667C17.5 14.8093 17.5 16.3808 16.5237 17.357 15.5474 18.3333 13.976 18.3333 10.8333 18.3333H9.1667C6.024 18.3333 4.4526 18.3333 3.4763 17.357 2.5 16.3808 2.5 14.8093 2.5 11.6667Z" stroke="currentColor" stroke-width="2"/>
  <path d="M6.6667 15H13.3333" stroke="currentColor" stroke-linecap="round" stroke-width="2"/>
  <path d="M5.8745 5.8138H14.1308M10.0123 5.8138V11.6523M10.0123 11.6523H9.5681M10.0123 11.6523H10.4512M6.6796 6.6372C6.075 7.2586 5.0731 8.3303 5.5113 9.223 5.9006 10.0159 6.4542 10.0298 6.6793 10.0298 6.9044 10.0298 7.49 10.0159 7.8793 9.223 8.3176 8.3303 7.2842 7.2586 6.6796 6.6372ZM13.3187 6.6372C12.7141 7.2586 11.7121 8.3303 12.1503 9.223 12.5396 10.0159 13.0932 10.0298 13.3183 10.0298 13.5434 10.0298 14.1291 10.0159 14.5183 9.223 14.9566 8.3303 13.9232 7.2586 13.3187 6.6372Z" stroke="currentColor" stroke-linecap="round" stroke-linejoin="round" stroke-width="2"/>
</svg>
