<svg xmlns="http://www.w3.org/2000/svg" width="20" height="20" viewBox="0 0 20 20" fill="none">
  <path d="M6.25 14.5833V5.4167C6.25 4.6378 6.25 4.2484 6.0825 3.9583 5.9728 3.7683 5.815 3.6105 5.625 3.5008 5.3349 3.3333 4.9455 3.3333 4.1667 3.3333 3.3878 3.3333 2.9984 3.3333 2.7083 3.5008 2.5183 3.6105 2.3605 3.7683 2.2508 3.9583 2.0833 4.2484 2.0833 4.6378 2.0833 5.4167V14.5833C2.0833 15.3622 2.0833 15.7516 2.2508 16.0417 2.3605 16.2317 2.5183 16.3895 2.7083 16.4992 2.9984 16.6667 3.3878 16.6667 4.1667 16.6667 4.9455 16.6667 5.3349 16.6667 5.625 16.4992 5.815 16.3895 5.9728 16.2317 6.0825 16.0417 6.25 15.7516 6.25 15.3622 6.25 14.5833Z" stroke="currentColor" stroke-linecap="round" stroke-linejoin="round" stroke-width="2"/>
  <path d="M10.4167 14.5833V7.9167C10.4167 7.1378 10.4167 6.7484 10.2492 6.4583 10.1395 6.2683 9.9817 6.1105 9.7917 6.0008 9.5016 5.8333 9.1122 5.8333 8.3333 5.8333 7.5545 5.8333 7.1651 5.8333 6.875 6.0008 6.685 6.1105 6.5272 6.2683 6.4175 6.4583 6.25 6.7484 6.25 7.1378 6.25 7.9167V14.5833C6.25 15.3622 6.25 15.7516 6.4175 16.0417 6.5272 16.2317 6.685 16.3895 6.875 16.4992 7.1651 16.6667 7.5545 16.6667 8.3333 16.6667 9.1122 16.6667 9.5016 16.6667 9.7917 16.4992 9.9817 16.3895 10.1395 16.2317 10.2492 16.0417 10.4167 15.7516 10.4167 15.3622 10.4167 14.5833Z" stroke="currentColor" stroke-linecap="round" stroke-linejoin="round" stroke-width="2"/>
  <path d="M15.5663 8.1508C15.2999 7.4181 15.1667 7.0518 14.9099 6.8364 14.7418 6.6954 14.5397 6.6011 14.3236 6.563 13.9935 6.5047 13.6273 6.6382 12.8948 6.905 12.1633 7.1716 11.7975 7.3049 11.5823 7.5615 11.4414 7.7294 11.3472 7.9314 11.3091 8.1473 11.2508 8.4771 11.3838 8.843 11.6499 9.5747L13.6462 15.0651C13.9126 15.7978 14.0458 16.1641 14.3025 16.3795 14.4706 16.5205 14.6728 16.6148 14.8888 16.6529 15.2189 16.7112 15.5852 16.5778 16.3177 16.3108 17.0493 16.0443 17.415 15.911 17.6302 15.6544 17.771 15.4865 17.8653 15.2844 17.9033 15.0686 17.9616 14.7388 17.8286 14.3729 17.5625 13.6412L15.5663 8.1508Z" stroke="currentColor" stroke-linecap="round" stroke-linejoin="round" stroke-width="2"/>
</svg>
