<svg xmlns="http://www.w3.org/2000/svg" width="20" height="20" viewBox="0 0 20 20" fill="none">
  <path d="M16.4585 9.1667V8.3333C16.4585 5.1906 16.4585 3.6193 15.4822 2.643 14.5058 1.6667 12.9345 1.6667 9.7918 1.6667H8.9586C5.8159 1.6667 4.2446 1.6667 3.2683 2.643 2.2919 3.6193 2.2919 5.1906 2.2919 8.3333L2.2919 11.6667C2.2918 14.8093 2.2918 16.3807 3.2681 17.357 4.2444 18.3332 5.8158 18.3333 8.9585 18.3333" stroke="currentColor" stroke-linecap="round" stroke-linejoin="round" stroke-width="2"/>
  <path d="M6.0419 5.8333H12.7085M6.0419 10H12.7085" stroke="currentColor" stroke-linecap="round" stroke-width="2"/>
  <path d="M11.0418 17.3557V18.3333H12.0197C12.3608 18.3333 12.5314 18.3333 12.6848 18.2698 12.8382 18.2063 12.9588 18.0857 13.2 17.8445L17.2197 13.8245C17.4472 13.597 17.5609 13.4832 17.6218 13.3606 17.7375 13.1271 17.7375 12.853 17.6218 12.6195 17.5609 12.4968 17.4472 12.383 17.2197 12.1555 16.9921 11.928 16.8783 11.8142 16.7556 11.7534 16.5221 11.6378 16.2479 11.6378 16.0144 11.7534 15.8918 11.8142 15.7779 11.928 15.5504 12.1555L15.5504 12.1555 11.5308 16.1755C11.2896 16.4167 11.1689 16.5373 11.1054 16.6906 11.0418 16.844 11.0418 17.0145 11.0418 17.3557Z" stroke="currentColor" stroke-linejoin="round" stroke-width="2"/>
</svg>
