<svg xmlns="http://www.w3.org/2000/svg" width="20" height="20" viewBox="0 0 20 20" fill="none">
  <path d="M10 18.3333H8.75C5.6073 18.3333 4.0359 18.3333 3.0596 17.357 2.0833 16.3807 2.0833 14.8093 2.0833 11.6666L2.0834 8.3333C2.0834 5.1906 2.0834 3.6193 3.0597 2.643 4.036 1.6667 5.6074 1.6667 8.75 1.6667H9.5833C12.726 1.6667 14.2973 1.6667 15.2737 2.643 16.2499 3.6193 16.2499 5.1906 16.2499 8.3333V9.1667" stroke="currentColor" stroke-linecap="round" stroke-linejoin="round" stroke-width="2"/>
  <path d="M5.8333 5.8333H12.5M5.8333 10H9.5833" stroke="currentColor" stroke-linecap="round" stroke-linejoin="round" stroke-width="2"/>
  <path d="M14.5833 17.3106C16.0561 17.3106 17.25 16.0896 17.25 14.5833 17.25 13.0771 16.0561 11.8561 14.5833 11.8561M14.5833 17.3106C13.1106 17.3106 11.9167 16.0896 11.9167 14.5833 11.9167 13.0771 13.1106 11.8561 14.5833 11.8561M14.5833 17.3106V18.3333M14.5833 11.8561V10.8333M12.1594 13.0958L11.2503 12.5379M17.9167 16.6288L17.0077 16.0709M17.0072 13.0958L17.9163 12.5379M11.25 16.6288L12.159 16.0709" stroke="currentColor" stroke-linecap="round" stroke-width="2"/>
</svg>
