<svg xmlns="http://www.w3.org/2000/svg" width="20" height="20" viewBox="0 0 20 20" fill="none">
  <path d="M17.0832 11.6667V8.3333C17.0832 5.1906 17.0832 3.6193 16.107 2.643 15.1307 1.6667 13.5593 1.6667 10.4166 1.6667H9.5833C6.4407 1.6667 4.8694 1.6667 3.8931 2.643 2.9167 3.6193 2.9167 5.1906 2.9167 8.3333L2.9167 11.6666C2.9166 14.8093 2.9166 16.3807 3.8929 17.357 4.8693 18.3333 6.4406 18.3333 9.5833 18.3333H10.4166C13.5593 18.3333 15.1307 18.3333 16.107 17.357 17.0832 16.3808 17.0832 14.8093 17.0832 11.6667Z" stroke="currentColor" stroke-linecap="round" stroke-linejoin="round" stroke-width="2"/>
  <path d="M6.6667 5.8333H13.3333M6.6667 10H13.3333M6.6667 14.1667L10 14.1667" stroke="currentColor" stroke-linecap="round" stroke-linejoin="round" stroke-width="2"/>
</svg>
