<svg xmlns="http://www.w3.org/2000/svg" width="20" height="20" viewBox="0 0 20 20" fill="none">
  <path d="M16.2499 8.3333C16.2499 5.1906 16.2499 3.6193 15.2737 2.643 14.2973 1.6667 12.726 1.6667 9.5833 1.6667H8.75C5.6074 1.6667 4.036 1.6667 3.0597 2.643 2.0834 3.6193 2.0834 5.1906 2.0834 8.3333L2.0833 11.6666C2.0833 14.8093 2.0833 16.3807 3.0596 17.357 4.0359 18.3333 5.6073 18.3333 8.75 18.3333H10" stroke="currentColor" stroke-linecap="round" stroke-linejoin="round" stroke-width="2"/>
  <path d="M5.8333 5.8333H12.5M5.8333 10H11.25" stroke="currentColor" stroke-linecap="round" stroke-width="2"/>
  <path d="M13.2178 18.3333H16.7823C17.5198 18.3333 18.1436 17.8323 17.8366 17.2942 17.3446 16.4322 16.2595 15.8333 15 15.8333 13.7405 15.8333 12.6554 16.4322 12.1634 17.2942 11.8564 17.8323 12.4802 18.3333 13.2178 18.3333Z" stroke="currentColor" stroke-linejoin="round" stroke-width="2"/>
  <path d="M14.9974 13.75C15.8033 13.75 16.4564 13.0971 16.4564 12.2917 16.4564 11.4863 15.8033 10.8333 14.9974 10.8333 14.1917 10.8333 13.5384 11.4863 13.5384 12.2917 13.5384 13.0971 14.1917 13.75 14.9974 13.75Z" stroke="currentColor" stroke-width="2"/>
</svg>
