<svg xmlns="http://www.w3.org/2000/svg" width="20" height="20" viewBox="0 0 20 20" fill="none">
  <path d="M1.6667 1.6667L18.3333 18.3333" stroke="currentColor" stroke-linecap="round" stroke-linejoin="round" stroke-width="2"/>
  <path d="M7.0833 14.1667H13.75M7.0833 10H10" stroke="currentColor" stroke-linecap="round" stroke-linejoin="round" stroke-width="2"/>
  <path d="M3.3813 3.3813C2.9167 4.3839 2.9167 5.8797 2.9167 8.3333L2.9167 11.6666C2.9166 14.8093 2.9166 16.3807 3.8929 17.357 4.8693 18.3333 6.4406 18.3333 9.5833 18.3333H10.4166C13.5593 18.3333 15.1307 18.3333 16.107 17.357 16.3211 17.1429 16.4882 16.9002 16.6187 16.6187M17.0682 13.7349C17.0832 13.1327 17.0832 8.3333 17.0832 8.3333 17.0832 5.1906 17.0832 3.6193 16.107 2.643 15.1307 1.6667 13.5593 1.6667 10.4166 1.6667H9.5833C7.5892 1.6667 6.2277 1.6667 5.2495 1.9161" stroke="currentColor" stroke-linecap="round" stroke-linejoin="round" stroke-width="2"/>
</svg>
