<svg xmlns="http://www.w3.org/2000/svg" width="20" height="20" viewBox="0 0 20 20" fill="none">
  <path d="M17.5 10C17.5 14.1422 14.1422 17.5 10 17.5 5.8579 17.5 2.5 14.1422 2.5 10 2.5 5.8579 5.8579 2.5 10 2.5 14.1422 2.5 17.5 5.8579 17.5 10Z" stroke="currentColor" stroke-linecap="round" stroke-linejoin="round" stroke-width="2"/>
  <path d="M14.1667 10C14.1667 12.3012 12.3012 14.1667 10 14.1667 7.6988 14.1667 5.8333 12.3012 5.8333 10 5.8333 7.6988 7.6988 5.8333 10 5.8333 12.3012 5.8333 14.1667 7.6988 14.1667 10Z" stroke="currentColor" stroke-linecap="round" stroke-linejoin="round" stroke-width="2"/>
  <path d="M10 5.8333V2.5M10 14.1667V17.5M14.1667 10H17.5M5.8333 10H2.5" stroke="currentColor" stroke-linecap="round" stroke-linejoin="round" stroke-width="2"/>
  <path d="M12.4138 2.8969C13.025 2.1462 13.9565 1.6667 15 1.6667 16.8409 1.6667 18.3333 3.1591 18.3333 5 18.3333 6.0435 17.8538 6.975 17.1032 7.5863M17.1032 12.4138C17.8538 13.025 18.3333 13.9565 18.3333 15 18.3333 16.8409 16.8409 18.3333 15 18.3333 13.9565 18.3333 13.025 17.8538 12.4138 17.1032M7.5863 17.1032C6.975 17.8538 6.0435 18.3333 5 18.3333 3.1591 18.3333 1.6667 16.8409 1.6667 15 1.6667 13.9565 2.1462 13.025 2.8969 12.4138M2.8969 7.5863C2.1462 6.975 1.6667 6.0435 1.6667 5 1.6667 3.1591 3.1591 1.6667 5 1.6667 6.0435 1.6667 6.975 2.1462 7.5863 2.8969" stroke="currentColor" stroke-linecap="round" stroke-linejoin="round" stroke-width="2"/>
</svg>
