<svg xmlns="http://www.w3.org/2000/svg" width="20" height="20" viewBox="0 0 20 20" fill="none">
  <path d="M7.6195 8.9092L7.7919 8.7368C9.4408 7.0878 12.1143 7.0878 13.7632 8.7368 15.4123 10.3857 15.4123 13.0592 13.7632 14.7081L11.3748 17.0966C9.7258 18.7456 7.0523 18.7456 5.4034 17.0966 3.7544 15.4477 3.7544 12.7742 5.4034 11.1253L5.7903 10.7383" stroke="currentColor" stroke-linecap="round" stroke-width="2"/>
  <path d="M14.2097 9.2617L14.5966 8.8748C16.2456 7.2258 16.2456 4.5523 14.5966 2.9034 12.9477 1.2544 10.2742 1.2544 8.6253 2.9034L6.2367 5.2919C4.5878 6.9409 4.5878 9.6143 6.2367 11.2633 7.8857 12.9123 10.5592 12.9123 12.2081 11.2633L12.3805 11.0908" stroke="currentColor" stroke-linecap="round" stroke-width="2"/>
</svg>
