<svg xmlns="http://www.w3.org/2000/svg" width="20" height="20" viewBox="0 0 20 20" fill="none">
  <path d="M9.2492 2.5001C6.2084 2.5056 4.6161 2.5802 3.5985 3.598 2.5003 4.6964 2.5003 6.4642 2.5003 9.9998 2.5003 13.5353 2.5003 15.3032 3.5985 16.4015 4.6967 17.4999 6.4642 17.4999 9.9992 17.4999 13.5342 17.4999 15.3018 17.4999 16.3999 16.4015 17.4175 15.3838 17.4922 13.7911 17.4977 10.7498" stroke="currentColor" stroke-linecap="round" stroke-linejoin="round" stroke-width="2"/>
  <path d="M17.13 2.9134L9.2073 10.8822M17.13 2.9134C16.7183 2.5013 13.9453 2.5397 13.359 2.548M17.13 2.9134C17.5417 3.3256 17.5033 6.1023 17.4949 6.6893" stroke="currentColor" stroke-linecap="round" stroke-linejoin="round" stroke-width="2"/>
</svg>
