<svg xmlns="http://www.w3.org/2000/svg" width="20" height="20" viewBox="0 0 20 20" fill="none">
  <path d="M9.1667 7.0833H8.75V3.9136C8.75 3.5931 8.4902 3.3333 8.1697 3.3333 8.0084 3.3333 7.8543 3.4005 7.7445 3.5188L2.7835 8.8613C2.6013 9.0576 2.5 9.3155 2.5 9.5833 2.5 9.8512 2.6013 10.1091 2.7835 10.3053L7.7445 15.6479C7.8543 15.7662 8.0084 15.8333 8.1697 15.8333 8.4902 15.8333 8.75 15.5735 8.75 15.2531V12.0833C13.3787 12.0833 15.8776 15.4302 16.5067 16.4039 16.6105 16.5647 16.7858 16.6667 16.9771 16.6667 17.2659 16.6667 17.5 16.4326 17.5 16.1438V15.4167C17.5 10.8143 13.769 7.0833 9.1667 7.0833Z" stroke="currentColor" stroke-linejoin="round" stroke-width="2"/>
</svg>
