<svg xmlns="http://www.w3.org/2000/svg" width="20" height="20" viewBox="0 0 20 20" fill="none">
  <path d="M5.8333 8.3333V14.1667" stroke="currentColor" stroke-linecap="round" stroke-linejoin="round" stroke-width="2"/>
  <path d="M9.1667 10.8333V14.1667M9.1667 10.8333C9.1667 9.4526 10.2859 8.3333 11.6667 8.3333 13.0474 8.3333 14.1667 9.4526 14.1667 10.8333V14.1667M9.1667 10.8333V8.3333" stroke="currentColor" stroke-linecap="round" stroke-linejoin="round" stroke-width="2"/>
  <path d="M5.9375 5.625H5.8333M6.0417 5.625C6.0417 5.7401 5.9484 5.8333 5.8333 5.8333 5.7183 5.8333 5.625 5.7401 5.625 5.625 5.625 5.5099 5.7183 5.4167 5.8333 5.4167 5.9484 5.4167 6.0417 5.5099 6.0417 5.625Z" stroke="currentColor" stroke-linecap="round" stroke-linejoin="round" stroke-width="2"/>
  <path d="M2.5 10C2.5 6.4645 2.5 4.6967 3.5983 3.5983 4.6967 2.5 6.4645 2.5 10 2.5 13.5355 2.5 15.3033 2.5 16.4017 3.5983 17.5 4.6967 17.5 6.4645 17.5 10 17.5 13.5355 17.5 15.3033 16.4017 16.4017 15.3033 17.5 13.5355 17.5 10 17.5 6.4645 17.5 4.6967 17.5 3.5983 16.4017 2.5 15.3033 2.5 13.5355 2.5 10Z" stroke="currentColor" stroke-linecap="round" stroke-linejoin="round" stroke-width="2"/>
</svg>
