<svg xmlns="http://www.w3.org/2000/svg" width="20" height="20" viewBox="0 0 20 20" fill="none">
  <path d="M3.75 7.9167H3.3333C2.5477 7.9167 2.1548 7.9167 1.9107 8.1607 1.6667 8.4048 1.6667 8.7977 1.6667 9.5833V16.6667C1.6667 17.4523 1.6667 17.8452 1.9107 18.0892 2.1548 18.3333 2.5477 18.3333 3.3333 18.3333H3.75C4.5357 18.3333 4.9285 18.3333 5.1726 18.0892 5.4167 17.8452 5.4167 17.4523 5.4167 16.6667V9.5833C5.4167 8.7977 5.4167 8.4048 5.1726 8.1607 4.9285 7.9167 4.5357 7.9167 3.75 7.9167Z" stroke="currentColor" stroke-width="2"/>
  <path d="M5.4167 3.5417C5.4167 4.5772 4.5772 5.4167 3.5417 5.4167 2.5061 5.4167 1.6667 4.5772 1.6667 3.5417 1.6667 2.5061 2.5061 1.6667 3.5417 1.6667 4.5772 1.6667 5.4167 2.5061 5.4167 3.5417Z" stroke="currentColor" stroke-width="2"/>
  <path d="M10.2717 7.9167H9.5833C8.7977 7.9167 8.4048 7.9167 8.1607 8.1607 7.9167 8.4048 7.9167 8.7977 7.9167 9.5833V16.6667C7.9167 17.4523 7.9167 17.8452 8.1607 18.0892 8.4048 18.3333 8.7977 18.3333 9.5833 18.3333H10C10.7857 18.3333 11.1785 18.3333 11.4226 18.0892 11.6667 17.8452 11.6667 17.4523 11.6667 16.6667L11.6668 13.7501C11.6668 12.3694 12.1067 11.2501 13.4066 11.2501 14.0564 11.2501 14.5833 11.8097 14.5833 12.5001V16.2501C14.5833 17.0358 14.5833 17.4286 14.8274 17.6727 15.0714 17.9168 15.4643 17.9168 16.25 17.9168H16.6656C17.4511 17.9168 17.8438 17.9168 18.0879 17.6728 18.332 17.4288 18.3321 17.036 18.3323 16.2505L18.3334 11.6668C18.3334 9.5958 16.3637 7.9169 14.414 7.9169 13.3041 7.9169 12.3139 8.4609 11.6668 9.3117 11.6667 8.7866 11.6667 8.5241 11.5527 8.3292 11.4804 8.2057 11.3776 8.1029 11.2542 8.0307 11.0593 7.9167 10.7967 7.9167 10.2717 7.9167Z" stroke="currentColor" stroke-linejoin="round" stroke-width="2"/>
</svg>
