<svg xmlns="http://www.w3.org/2000/svg" width="20" height="20" viewBox="0 0 20 20" fill="none">
  <path d="M9.2503 2.5017C6.2096 2.5072 4.6173 2.5819 3.5997 3.5994 2.5015 4.6976 2.5015 6.465 2.5015 9.9998 2.5015 13.5346 2.5015 15.302 3.5997 16.4001 4.6978 17.4983 6.4653 17.4983 10.0002 17.4983 13.5351 17.4983 15.3026 17.4983 16.4008 16.4001 17.4183 15.3826 17.493 13.7903 17.4985 10.7497" stroke="currentColor" stroke-linecap="round" stroke-linejoin="round" stroke-width="2"/>
  <path d="M17.0669 2.9313L12.4425 7.5429M17.0669 2.9313C16.6553 2.5192 13.8823 2.5576 13.296 2.5659M17.0669 2.9313C17.4785 3.3434 17.4402 6.1194 17.4318 6.7063" stroke="currentColor" stroke-linecap="round" stroke-linejoin="round" stroke-width="2"/>
</svg>
