<svg xmlns="http://www.w3.org/2000/svg" width="20" height="20" viewBox="0 0 20 20" fill="none">
  <path d="M10.8333 7.0833H11.25V3.9136C11.25 3.5931 11.5098 3.3333 11.8303 3.3333 11.9917 3.3333 12.1457 3.4005 12.2555 3.5188L17.2165 8.8613C17.3987 9.0576 17.5 9.3155 17.5 9.5833 17.5 9.8512 17.3987 10.1091 17.2165 10.3053L12.2555 15.6479C12.1457 15.7662 11.9917 15.8333 11.8303 15.8333 11.5098 15.8333 11.25 15.5735 11.25 15.2531V12.0833C6.6213 12.0833 4.1224 15.4302 3.4933 16.4039 3.3895 16.5647 3.2143 16.6667 3.0229 16.6667 2.7341 16.6667 2.5 16.4326 2.5 16.1438V15.4167C2.5 10.8143 6.231 7.0833 10.8333 7.0833Z" stroke="currentColor" stroke-linejoin="round" stroke-width="2"/>
</svg>
