<svg xmlns="http://www.w3.org/2000/svg" width="20" height="20" viewBox="0 0 20 20" fill="none">
  <path d="M1.6667 9.5C1.6667 8.5348 1.8681 8.3333 2.8333 8.3333H17.1667C18.1319 8.3333 18.3333 8.5348 18.3333 9.5V10.5C18.3333 11.4653 18.1319 11.6667 17.1667 11.6667H2.8333C1.8681 11.6667 1.6667 11.4653 1.6667 10.5V9.5Z" stroke="currentColor" stroke-linecap="round" stroke-width="2"/>
  <path d="M1.6667 2.8333C1.6667 1.8681 1.8681 1.6667 2.8333 1.6667H17.1667C18.1319 1.6667 18.3333 1.8681 18.3333 2.8333V3.8333C18.3333 4.7986 18.1319 5 17.1667 5H2.8333C1.8681 5 1.6667 4.7986 1.6667 3.8333V2.8333Z" stroke="currentColor" stroke-linecap="round" stroke-width="2"/>
  <path d="M1.6667 16.1667C1.6667 15.2014 1.8681 15 2.8333 15H17.1667C18.1319 15 18.3333 15.2014 18.3333 16.1667V17.1667C18.3333 18.1319 18.1319 18.3333 17.1667 18.3333H2.8333C1.8681 18.3333 1.6667 18.1319 1.6667 17.1667V16.1667Z" stroke="currentColor" stroke-linecap="round" stroke-width="2"/>
</svg>
