<svg xmlns="http://www.w3.org/2000/svg" width="20" height="20" viewBox="0 0 20 20" fill="none">
  <path d="M2.5 4.1667H17.5" stroke="currentColor" stroke-linecap="round" stroke-linejoin="round" stroke-width="2"/>
  <path d="M2.5 10H7.5" stroke="currentColor" stroke-linecap="round" stroke-linejoin="round" stroke-width="2"/>
  <path d="M17.4544 12.876C17.3072 13.4729 16.6111 13.8947 15.2191 14.7383 13.8733 15.5538 13.2005 15.9615 12.6583 15.7976 12.4341 15.7298 12.2298 15.6012 12.0651 15.4238 11.6667 14.9951 11.6667 14.1634 11.6667 12.5 11.6667 10.8366 11.6667 10.0049 12.0651 9.5762 12.2298 9.3988 12.4341 9.2702 12.6583 9.2024 13.2005 9.0385 13.8733 9.4463 15.2191 10.2618 16.6111 11.1053 17.3072 11.5271 17.4544 12.124 17.5152 12.3704 17.5152 12.6296 17.4544 12.876Z" stroke="currentColor" stroke-linejoin="round" stroke-width="2"/>
  <path d="M2.5 15.8333H7.5" stroke="currentColor" stroke-linecap="round" stroke-linejoin="round" stroke-width="2"/>
</svg>
