<svg xmlns="http://www.w3.org/2000/svg" width="20" height="20" viewBox="0 0 20 20" fill="none">
  <path d="M13.75 16.5476V17.5M13.75 16.5476C12.9065 16.5476 12.1634 16.1268 11.7275 15.4877M13.75 16.5476C14.5935 16.5476 15.3366 16.1268 15.7725 15.4877M13.75 11.7858C14.5936 11.7858 15.3368 12.2067 15.7726 12.8458M13.75 11.7858C12.9064 11.7858 12.1633 12.2067 11.7274 12.8458M13.75 11.7858V10.8333M16.6667 12.2619L15.7726 12.8458M10.8337 16.0714L11.7275 15.4877M10.8333 12.2619L11.7274 12.8458M16.6663 16.0714L15.7725 15.4877M15.7726 12.8458C16.0303 13.2237 16.1806 13.678 16.1806 14.1667 16.1806 14.6553 16.0303 15.1097 15.7725 15.4877M11.7274 12.8458C11.4697 13.2237 11.3194 13.678 11.3194 14.1667 11.3194 14.6553 11.4698 15.1097 11.7275 15.4877" stroke="currentColor" stroke-linecap="round" stroke-width="2"/>
  <path d="M3.3333 2.5H16.6667" stroke="currentColor" stroke-linecap="round" stroke-width="2"/>
  <path d="M3.3333 7.5H16.6667" stroke="currentColor" stroke-linecap="round" stroke-width="2"/>
  <path d="M3.3333 12.5H7.5" stroke="currentColor" stroke-linecap="round" stroke-width="2"/>
</svg>
