<svg xmlns="http://www.w3.org/2000/svg" width="20" height="20" viewBox="0 0 20 20" fill="none">
  <path d="M14.1667 17.5C15.7243 17.5 16.5032 17.5 17.0833 17.1651 17.4634 16.9457 17.779 16.6301 17.9984 16.25 18.3333 15.6698 18.3333 14.891 18.3333 13.3333 18.3333 11.7757 18.3333 10.9968 17.9984 10.4167 17.779 10.0366 17.4634 9.721 17.0833 9.5016 16.5032 9.1667 15.7243 9.1667 14.1667 9.1667H5.8333C4.2756 9.1667 3.4968 9.1667 2.9167 9.5016 2.5366 9.721 2.221 10.0366 2.0016 10.4167 1.6667 10.9968 1.6667 11.7757 1.6667 13.3333 1.6667 14.891 1.6667 15.6698 2.0016 16.25 2.221 16.6301 2.5366 16.9457 2.9167 17.1651 3.4968 17.5 4.2756 17.5 5.8333 17.5H14.1667Z" stroke="currentColor" stroke-linecap="round" stroke-linejoin="round" stroke-width="2"/>
  <path d="M13.3333 5C12.5189 3.9779 11.3274 3.3333 10 3.3333 8.6726 3.3333 7.481 3.9779 6.6667 5" stroke="currentColor" stroke-linecap="round" stroke-linejoin="round" stroke-width="2"/>
  <path d="M11.6667 6.6667C11.2595 6.1556 10.6638 5.8333 10 5.8333 9.3362 5.8333 8.7405 6.1556 8.3333 6.6667" stroke="currentColor" stroke-linecap="round" stroke-linejoin="round" stroke-width="2"/>
  <path d="M4.1667 11.6667V15H5.4167M15.8333 15H14.1667V13.3333M14.1667 13.3333V11.6667H15.8333M14.1667 13.3333H15.4167M7.5 11.6667V15M9.5833 11.6667L10.8333 15 12.0833 11.6667" stroke="currentColor" stroke-linecap="round" stroke-linejoin="round" stroke-width="2"/>
</svg>
