<svg xmlns="http://www.w3.org/2000/svg" width="20" height="20" viewBox="0 0 20 20" fill="none">
  <path d="M12.948 15.4933C12.026 16.25 10.6563 16.25 7.9167 16.25 5.1771 16.25 3.8073 16.25 2.8854 15.4933 2.7166 15.3548 2.5618 15.2001 2.4233 15.0313 1.6667 14.1093 1.6667 12.7396 1.6667 10 1.6667 7.2604 1.6667 5.8907 2.4233 4.9687 2.5618 4.7999 2.7166 4.6452 2.8854 4.5066 3.8073 3.75 5.1771 3.75 7.9167 3.75 10.6563 3.75 12.026 3.75 12.948 4.5066 13.1167 4.6452 13.2715 4.7999 13.41 4.9687 14.1667 5.8907 14.1667 7.2604 14.1667 10 14.1667 12.7396 14.1667 14.1093 13.41 15.0313 13.2715 15.2001 13.1167 15.3548 12.948 15.4933Z" stroke="currentColor" stroke-linejoin="round" stroke-width="2"/>
  <path d="M14.1667 10.8333V9.1667L16.3333 6.2778C16.5432 5.998 16.8725 5.8333 17.2222 5.8333 17.8358 5.8333 18.3333 6.3308 18.3333 6.9444V13.0556C18.3333 13.6692 17.8358 14.1667 17.2222 14.1667 16.8725 14.1667 16.5432 14.002 16.3333 13.7223L14.1667 10.8333Z" stroke="currentColor" stroke-linejoin="round" stroke-width="2"/>
  <path d="M7.9167 11.25C8.607 11.25 9.1667 10.6903 9.1667 10 9.1667 9.3097 8.607 8.75 7.9167 8.75M7.9167 11.25C7.2263 11.25 6.6667 10.6903 6.6667 10 6.6667 9.3097 7.2263 8.75 7.9167 8.75M7.9167 11.25V8.75" stroke="currentColor" stroke-linejoin="round" stroke-width="2"/>
</svg>
