<svg xmlns="http://www.w3.org/2000/svg" width="20" height="20" viewBox="0 0 20 20" fill="none">
  <path d="M14.3345 1.6667H5.6656C4.4508 1.6667 3.385 2.4873 3.3363 3.6696 3.2751 5.1573 4.3214 6.1452 5.4203 7.0726 6.9405 8.3555 7.7006 8.997 7.7804 9.809 7.7928 9.9361 7.7928 10.0639 7.7804 10.191 7.7006 11.003 6.9405 11.6445 5.4203 12.9274 4.2911 13.8803 3.2719 14.7663 3.3363 16.3303 3.385 17.5128 4.4508 18.3333 5.6656 18.3333L14.3345 18.3333C15.5492 18.3333 16.6151 17.5128 16.6638 16.3303 16.7025 15.389 16.3537 14.4517 15.6127 13.8 15.2748 13.5028 14.9241 13.2179 14.5798 12.9274 13.0596 11.6445 12.2995 11.003 12.2198 10.191 12.2073 10.0639 12.2073 9.9361 12.2198 9.809 12.2995 8.997 13.0596 8.3555 14.5798 7.0726 15.6972 6.1296 16.7274 5.2151 16.6638 3.6696 16.6151 2.4873 15.5492 1.6667 14.3345 1.6667Z" stroke="currentColor" stroke-width="2"/>
  <path d="M7.5 18.0318C7.5 17.6635 7.5 17.4793 7.573 17.3184 7.5846 17.2928 7.5975 17.2678 7.6117 17.2436 7.7008 17.0908 7.8518 16.983 8.1536 16.7673 8.9921 16.1684 9.4113 15.8689 9.8877 15.8371 9.9625 15.8321 10.0375 15.8321 10.1123 15.8371 10.5888 15.8689 11.0079 16.1684 11.8464 16.7673 12.1483 16.983 12.2992 17.0908 12.3883 17.2436 12.4025 17.2678 12.4154 17.2928 12.427 17.3184 12.5 17.4793 12.5 17.6635 12.5 18.0318V18.3333H7.5V18.0318Z" stroke="currentColor" stroke-linecap="round" stroke-width="2"/>
</svg>
