<svg xmlns="http://www.w3.org/2000/svg" width="20" height="20" viewBox="0 0 20 20" fill="none">
  <circle cx="10" cy="10" r="7.5" stroke="currentColor" stroke-linecap="round" stroke-linejoin="round" stroke-width="2"/>
  <path d="M7.5 2.931C7.9849 2.8921 8.4781 2.9284 8.9577 3.0425 10.0417 3.3003 10.9672 3.9345 11.5308 4.8055 12.0944 5.6766 12.2498 6.7131 11.9629 7.6871 11.676 8.6612 10.9702 9.4928 10.0008 9.9992 9.0315 10.5058 8.3257 11.3374 8.0388 12.3114 7.7518 13.2854 7.9072 14.322 8.4708 15.1931 9.0344 16.0641 9.96 16.6983 11.0439 16.9561 11.523 17.0701 12.0157 17.1064 12.5 17.0677" stroke="currentColor" stroke-linecap="round" stroke-linejoin="round" stroke-width="2"/>
  <path d="M14.8713 4.3C15.1474 4.7005 15.3627 5.1458 15.5037 5.6182 15.8223 6.6858 15.7359 7.8045 15.2633 8.7281 14.7907 9.6518 13.9708 10.3046 12.9838 10.5431 11.9968 10.7817 10.9237 10.5862 10.0004 10 9.0772 9.4137 8.004 9.2183 7.017 9.4568 6.03 9.6953 5.21 10.3483 4.7375 11.2718 4.2649 12.1954 4.1785 13.3141 4.4972 14.3818 4.638 14.8536 4.8529 15.2984 5.1285 15.6985" stroke="currentColor" stroke-linecap="round" stroke-linejoin="round" stroke-width="2"/>
  <path d="M17.3716 11.3684C17.1628 11.8078 16.8848 12.2168 16.5462 12.5751 15.7809 13.3849 14.7689 13.8694 13.7327 13.922 12.6967 13.9745 11.7213 13.5908 11.0212 12.8553 10.3211 12.1198 9.9537 11.0928 9.9998 10.0001 10.0459 8.9073 9.6786 7.8803 8.9785 7.1448 8.2784 6.4093 7.303 6.0256 6.2669 6.0782 5.2308 6.1307 4.2187 6.6152 3.4535 7.425 3.1153 7.7829 2.8375 8.1914 2.6288 8.6302" stroke="currentColor" stroke-linecap="round" stroke-linejoin="round" stroke-width="2"/>
</svg>
