<svg xmlns="http://www.w3.org/2000/svg" width="20" height="20" viewBox="0 0 20 20" fill="none">
  <path d="M15.759 15C16.5206 16.14 16.8428 16.8358 16.5721 17.4166 16.5388 17.4878 16.4999 17.5566 16.4558 17.6223 15.977 18.3333 14.7396 18.3333 12.2648 18.3333H7.7352C5.2604 18.3333 4.023 18.3333 3.5443 17.6223 3.5 17.5566 3.4612 17.4878 3.428 17.4166 3.1572 16.8358 3.4794 16.14 4.241 15" stroke="currentColor" stroke-linecap="round" stroke-linejoin="round" stroke-width="2"/>
  <path d="M12.5 7.9167C12.5 9.2974 11.3808 10.4167 10 10.4167 8.6193 10.4167 7.5 9.2974 7.5 7.9167 7.5 6.536 8.6193 5.4167 10 5.4167 11.3808 5.4167 12.5 6.536 12.5 7.9167Z" stroke="currentColor" stroke-width="2"/>
  <path d="M10 1.6667C13.3823 1.6667 16.25 4.5234 16.25 7.9891 16.25 11.51 13.3357 13.9808 10.6438 15.661 10.4476 15.7739 10.2257 15.8333 10 15.8333 9.7743 15.8333 9.5524 15.7739 9.3562 15.661 6.6694 13.9644 3.75 11.5222 3.75 7.9891 3.75 4.5234 6.6177 1.6667 10 1.6667Z" stroke="currentColor" stroke-width="2"/>
</svg>
