<svg xmlns="http://www.w3.org/2000/svg" width="20" height="20" viewBox="0 0 20 20" fill="none">
  <path d="M14.5833 14.7051C13.5563 15.8023 12.3969 16.8237 11.3481 17.8058 10.9868 18.1442 10.5037 18.3333 10.0009 18.3333 9.4982 18.3333 9.0152 18.1442 8.6538 17.8058 5.3442 14.6883 0.909 11.2058 3.0719 6.1497 3.3506 5.4983 3.7222 4.6959 4.1667 4.1667" stroke="currentColor" stroke-linecap="round" stroke-width="2"/>
  <path d="M5.8333 2.9053C7.0576 2.1123 8.5108 1.6667 10.0009 1.6667 12.9533 1.6667 15.7605 3.416 16.93 6.1497 18.0503 8.7684 17.3997 10.9703 16.051 12.9167" stroke="currentColor" stroke-linecap="round" stroke-width="2"/>
  <path d="M7.5 7.5C7.221 7.9472 7.0833 8.6007 7.0833 9.1667 7.0833 10.7775 8.3892 12.0833 10 12.0833 10.5498 12.0833 11.2277 11.9312 11.6667 11.6667" stroke="currentColor" stroke-linecap="round" stroke-width="2"/>
  <path d="M9.5833 6.2795C9.7194 6.2601 9.8585 6.25 10 6.25 11.6108 6.25 12.9167 7.5558 12.9167 9.1667 12.9167 9.3082 12.9066 9.4473 12.8872 9.5833" stroke="currentColor" stroke-linecap="round" stroke-width="2"/>
  <path d="M1.6667 1.6667L18.3333 18.3333" stroke="currentColor" stroke-linecap="round" stroke-linejoin="round" stroke-width="2"/>
</svg>
