<svg xmlns="http://www.w3.org/2000/svg" width="20" height="20" viewBox="0 0 20 20" fill="none">
  <path d="M12.5 7.9167C12.5 9.2974 11.3808 10.4167 10 10.4167 8.6193 10.4167 7.5 9.2974 7.5 7.9167 7.5 6.536 8.6193 5.4167 10 5.4167 11.3808 5.4167 12.5 6.536 12.5 7.9167Z" stroke="currentColor" stroke-width="2"/>
  <path d="M10 1.6667C13.3823 1.6667 16.25 4.5234 16.25 7.9891 16.25 11.51 13.3357 13.9808 10.6438 15.661 10.4476 15.7739 10.2257 15.8333 10 15.8333 9.7743 15.8333 9.5524 15.7739 9.3562 15.661 6.6694 13.9644 3.75 11.5222 3.75 7.9891 3.75 4.5234 6.6177 1.6667 10 1.6667Z" stroke="currentColor" stroke-width="2"/>
  <path d="M15 16.6667C15 17.5872 12.7614 18.3333 10 18.3333 7.2386 18.3333 5 17.5872 5 16.6667" stroke="currentColor" stroke-linecap="round" stroke-width="2"/>
</svg>
