<svg xmlns="http://www.w3.org/2000/svg" width="20" height="20" viewBox="0 0 20 20" fill="none">
  <path d="M12.0833 7.5C12.0833 8.6506 11.1506 9.5833 10 9.5833 8.8494 9.5833 7.9167 8.6506 7.9167 7.5 7.9167 6.3494 8.8494 5.4167 10 5.4167 11.1506 5.4167 12.0833 6.3494 12.0833 7.5Z" stroke="currentColor" stroke-width="2"/>
  <path d="M11.0478 14.578C10.7668 14.8487 10.3911 15 10.0002 15 9.6092 15 9.2335 14.8487 8.9524 14.578 6.3786 12.084 2.9293 9.2979 4.6114 5.2531 5.5209 3.0661 7.7041 1.6667 10.0002 1.6667 12.2962 1.6667 14.4793 3.0661 15.3888 5.2531 17.0688 9.2928 13.628 12.0926 11.0478 14.578Z" stroke="currentColor" stroke-width="2"/>
  <path d="M15 16.6667C15 17.5872 12.7614 18.3333 10 18.3333 7.2386 18.3333 5 17.5872 5 16.6667" stroke="currentColor" stroke-linecap="round" stroke-width="2"/>
</svg>
