<svg xmlns="http://www.w3.org/2000/svg" width="20" height="20" viewBox="0 0 20 20" fill="none">
  <path d="M17.6397 5.8333C18.5645 7.9539 18.5645 10.3807 17.6397 12.5013M2.3602 12.5013C1.4355 10.3807 1.4355 7.9539 2.3602 5.8333" stroke="currentColor" stroke-linecap="round" stroke-linejoin="round" stroke-width="2"/>
  <path d="M11.1227 16.6349C10.8215 16.9226 10.419 17.0833 10.0002 17.0833 9.5813 17.0833 9.1788 16.9226 8.8776 16.6349 6.1199 13.9851 2.4243 11.0249 4.2265 6.7273 5.201 4.4036 7.5401 2.9167 10.0002 2.9167 12.4602 2.9167 14.7993 4.4036 15.7737 6.7273 17.5738 11.0195 13.8872 13.9942 11.1227 16.6349Z" stroke="currentColor" stroke-width="2"/>
  <path d="M12.5 9.1667C12.5 10.5474 11.3808 11.6667 10 11.6667 8.6193 11.6667 7.5 10.5474 7.5 9.1667 7.5 7.786 8.6193 6.6667 10 6.6667 11.3808 6.6667 12.5 7.786 12.5 9.1667Z" stroke="currentColor" stroke-width="2"/>
</svg>
