<svg xmlns="http://www.w3.org/2000/svg" width="20" height="20" viewBox="0 0 20 20" fill="none">
  <path d="M10 1.6667C14.0588 1.6667 17.5 5.0275 17.5 9.1048 17.5 13.2471 14.0028 16.1539 10.7725 18.1306 10.5371 18.2635 10.2708 18.3333 10 18.3333 9.7292 18.3333 9.4629 18.2635 9.2275 18.1306 6.0033 16.1347 2.5 13.2614 2.5 9.1048 2.5 5.0275 5.9412 1.6667 10 1.6667Z" stroke="currentColor" stroke-width="2"/>
  <path d="M7.5125 6.1555C8.4063 5.6224 9.1865 5.8373 9.6553 6.1795 9.8474 6.3198 9.9435 6.3899 10 6.3899 10.0565 6.3899 10.1526 6.3198 10.3448 6.1795 10.8135 5.8373 11.5937 5.6224 12.4875 6.1555 13.6607 6.8551 13.9261 9.1632 11.2202 11.1103 10.7048 11.4813 10.4471 11.6667 10 11.6667 9.5529 11.6667 9.2952 11.4813 8.7798 11.1103 6.0739 9.1632 6.3394 6.8551 7.5125 6.1555Z" stroke="currentColor" stroke-linecap="round" stroke-width="2"/>
</svg>
