<svg xmlns="http://www.w3.org/2000/svg" width="20" height="20" viewBox="0 0 20 20" fill="none">
  <path d="M10.8318 5.8333H9.1683C6.7766 5.8333 5.1642 8.3909 6.1063 10.69 6.2375 11.0103 6.5386 11.2179 6.8718 11.2179H7.4576C7.655 11.2179 7.8272 11.3585 7.8751 11.5588L8.6293 14.7139C8.7865 15.3718 9.3517 15.8333 10 15.8333 10.6483 15.8333 11.2135 15.3718 11.3708 14.7139L12.1249 11.5588C12.1728 11.3585 12.345 11.2179 12.5424 11.2179H13.1282C13.4614 11.2179 13.7625 11.0103 13.8938 10.69 14.8358 8.3909 13.2233 5.8333 10.8318 5.8333Z" stroke="currentColor" stroke-width="2"/>
  <path d="M12.0833 3.75C12.0833 4.9006 11.1506 5.8333 10 5.8333 8.8494 5.8333 7.9167 4.9006 7.9167 3.75 7.9167 2.5994 8.8494 1.6667 10 1.6667 11.1506 1.6667 12.0833 2.5994 12.0833 3.75Z" stroke="currentColor" stroke-width="2"/>
  <path d="M15.8333 15.8333C15.8333 17.2141 13.2217 18.3333 10 18.3333 6.7783 18.3333 4.1667 17.2141 4.1667 15.8333" stroke="currentColor" stroke-linecap="round" stroke-width="2"/>
</svg>
