<svg xmlns="http://www.w3.org/2000/svg" width="20" height="20" viewBox="0 0 20 20" fill="none">
  <path d="M11.3481 17.8058C10.9868 18.1442 10.5037 18.3333 10.0009 18.3333 9.4982 18.3333 9.0152 18.1442 8.6538 17.8058 5.3442 14.6883 0.909 11.2058 3.0719 6.1497 4.2414 3.416 7.0486 1.6667 10.0009 1.6667 12.9533 1.6667 15.7605 3.416 16.93 6.1497 19.0902 11.1994 14.6658 14.6991 11.3481 17.8058Z" stroke="currentColor" stroke-width="2"/>
  <path d="M7.8234 6.5262C8.6056 6.0692 9.2882 6.2534 9.6983 6.5467 9.8665 6.6669 9.9505 6.7271 10 6.7271 10.0495 6.7271 10.1335 6.6669 10.3017 6.5467 10.7118 6.2534 11.3944 6.0692 12.1766 6.5262 13.2031 7.1258 13.4353 9.1042 11.0677 10.7732 10.6167 11.0911 10.3912 11.25 10 11.25 9.6088 11.25 9.3833 11.0911 8.9323 10.7732 6.5647 9.1042 6.7969 7.1258 7.8234 6.5262Z" stroke="currentColor" stroke-linecap="round" stroke-width="2"/>
</svg>
