<svg xmlns="http://www.w3.org/2000/svg" width="20" height="20" viewBox="0 0 20 20" fill="none">
  <path d="M11.3481 17.8058C10.9868 18.1442 10.5037 18.3333 10.0009 18.3333 9.4982 18.3333 9.0152 18.1442 8.6538 17.8058 5.3442 14.6883 0.909 11.2058 3.0719 6.1497 4.2414 3.416 7.0486 1.6667 10.0009 1.6667 12.9533 1.6667 15.7605 3.416 16.93 6.1497 19.0902 11.1994 14.6658 14.6991 11.3481 17.8058Z" stroke="currentColor" stroke-width="2"/>
  <path d="M10.5039 6.6712L11.0172 7.7063C11.0872 7.8503 11.2738 7.9885 11.4313 8.015L12.3616 8.1708C12.9565 8.2708 13.0965 8.706 12.6678 9.1353L11.9446 9.8645C11.8221 9.988 11.755 10.2263 11.7929 10.3968L12 11.2995C12.1633 12.014 11.7871 12.2904 11.1601 11.917L10.2881 11.3965C10.1306 11.3024 9.8711 11.3024 9.7107 11.3965L8.8387 11.917C8.2146 12.2904 7.8354 12.0111 7.9988 11.2995L8.2058 10.3968C8.2437 10.2263 8.1767 9.988 8.0542 9.8645L7.3309 9.1353C6.9051 8.706 7.0422 8.2708 7.6371 8.1708L8.5674 8.015C8.722 7.9885 8.9087 7.8503 8.9787 7.7063L9.4919 6.6712C9.7719 6.1096 10.2268 6.1096 10.5039 6.6712Z" stroke="currentColor" stroke-linecap="round" stroke-linejoin="round" stroke-width="2"/>
</svg>
