<svg xmlns="http://www.w3.org/2000/svg" width="20" height="20" viewBox="0 0 20 20" fill="none">
  <path d="M16.6667 9.1667L18.3333 10C18.3333 5.3976 14.6023 1.6667 10 1.6667 6.5828 1.6667 3.646 3.7235 2.3601 6.6667M3.3333 10.8333L1.6667 10C1.6667 14.6023 5.3976 18.3333 10 18.3333 13.4172 18.3333 16.354 16.2765 17.6399 13.3333" stroke="currentColor" stroke-linecap="round" stroke-linejoin="round" stroke-width="2"/>
  <path d="M10.1042 9.1667H10M10.2083 9.1667C10.2083 9.2818 10.1151 9.375 10 9.375 9.8849 9.375 9.7917 9.2818 9.7917 9.1667 9.7917 9.0516 9.8849 8.9583 10 8.9583 10.1151 8.9583 10.2083 9.0516 10.2083 9.1667Z" stroke="currentColor" stroke-linecap="round" stroke-linejoin="round" stroke-width="2"/>
  <path d="M10 5.4168C7.9289 5.4168 6.25 7.075 6.25 9.1204 6.25 10.29 6.7188 11.1994 7.6563 12.0117 8.2587 12.5337 9.3112 13.6007 9.8566 14.3692 9.9267 14.4679 10.0768 14.4702 10.1486 14.3727 10.7089 13.6136 11.7412 12.5338 12.3438 12.0117 13.2813 11.1994 13.75 10.29 13.75 9.1204 13.75 7.075 12.0711 5.4168 10 5.4168Z" stroke="currentColor" stroke-linecap="round" stroke-linejoin="round" stroke-width="2"/>
</svg>
