<svg xmlns="http://www.w3.org/2000/svg" width="20" height="20" viewBox="0 0 20 20" fill="none">
  <path d="M11.6667 11.6667C11.2277 11.9312 10.5498 12.0833 10 12.0833 8.3892 12.0833 7.0833 10.7775 7.0833 9.1667 7.0833 8.6168 7.2355 7.939 7.5 7.5" stroke="currentColor" stroke-linecap="round" stroke-width="2"/>
  <path d="M9.5833 6.2795C9.7194 6.2601 9.8585 6.25 10 6.25 11.6108 6.25 12.9167 7.5558 12.9167 9.1667 12.9167 9.3082 12.9066 9.4473 12.8872 9.5833" stroke="currentColor" stroke-linecap="round" stroke-width="2"/>
  <path d="M15 15C13.804 16.2361 12.1768 17.2713 10.7725 18.1306 10.5371 18.2635 10.2708 18.3333 10 18.3333 9.7292 18.3333 9.4629 18.2635 9.2275 18.1306 6.0033 16.1347 2.5 13.2614 2.5 9.1048 2.5 7.3614 3.1291 5.858 4.1667 4.5833" stroke="currentColor" stroke-linecap="round" stroke-width="2"/>
  <path d="M6.25 2.69C7.3615 2.0405 8.6464 1.6667 10 1.6667 14.0588 1.6667 17.5 5.0275 17.5 9.1048 17.5 10.5145 17.095 11.7811 16.4333 12.9167" stroke="currentColor" stroke-linecap="round" stroke-width="2"/>
  <path d="M1.6667 1.6667L18.3333 18.3333" stroke="currentColor" stroke-linecap="round" stroke-linejoin="round" stroke-width="2"/>
</svg>
