<svg xmlns="http://www.w3.org/2000/svg" width="20" height="20" viewBox="0 0 20 20" fill="none">
  <path d="M10.9981 6.6667H9.0019C6.132 6.6667 4.197 9.6505 5.3275 12.3328 5.485 12.7064 5.8463 12.9488 6.2461 12.9488H6.9491C7.1861 12.9488 7.3926 13.1127 7.4501 13.3464L8.3551 17.0273C8.5437 17.7949 9.2219 18.3333 10 18.3333 10.7781 18.3333 11.4563 17.7949 11.6449 17.0273L12.5499 13.3464C12.6074 13.1127 12.8139 12.9488 13.0509 12.9488H13.7539C14.1537 12.9488 14.515 12.7064 14.6725 12.3328 15.803 9.6505 13.868 6.6667 10.9981 6.6667Z" stroke="currentColor" stroke-width="2"/>
  <circle cx="10" cy="4.166666666666667" r="2.5" stroke="currentColor" stroke-width="2"/>
</svg>
