<svg xmlns="http://www.w3.org/2000/svg" width="20" height="20" viewBox="0 0 20 20" fill="none">
  <path d="M17.6397 5.8333C18.5645 7.9535 18.5645 10.3798 17.6397 12.5M2.3602 12.5C1.4355 10.3798 1.4355 7.9535 2.3602 5.8333" stroke="currentColor" stroke-linecap="round" stroke-linejoin="round" stroke-width="2"/>
  <path d="M12.5 9.1667C12.5 10.5474 11.3808 11.6667 10 11.6667 8.6193 11.6667 7.5 10.5474 7.5 9.1667 7.5 7.786 8.6193 6.6667 10 6.6667 11.3808 6.6667 12.5 7.786 12.5 9.1667Z" stroke="currentColor" stroke-width="2"/>
  <path d="M10 2.9167C13.3823 2.9167 16.25 5.7734 16.25 9.2391 16.25 12.76 13.3357 15.2308 10.6438 16.911 10.4476 17.0239 10.2257 17.0833 10 17.0833 9.7743 17.0833 9.5524 17.0239 9.3562 16.911 6.6694 15.2144 3.75 12.7722 3.75 9.2391 3.75 5.7734 6.6177 2.9167 10 2.9167Z" stroke="currentColor" stroke-width="2"/>
</svg>
