<svg xmlns="http://www.w3.org/2000/svg" width="20" height="20" viewBox="0 0 20 20" fill="none">
  <path d="M16.2861 8.75L18.3333 9.1667C17.9142 4.9556 14.3524 1.6667 10.0206 1.6667 5.4069 1.6667 1.6667 5.3976 1.6667 10 1.6667 14.6023 5.4069 18.3333 10.0206 18.3333 13.4463 18.3333 16.3903 16.2765 17.6794 13.3333" stroke="currentColor" stroke-linecap="round" stroke-linejoin="round" stroke-width="2"/>
  <path d="M8.6143 9.0667C7.7143 9.0667 7.2643 9.7167 7.1643 10.1167 7.0643 10.5167 7.0643 11.9667 7.1243 12.5667 7.3243 13.3167 7.8243 13.6267 8.3143 13.7267 8.7643 13.7667 10.6643 13.7517 11.2143 13.7517 12.0143 13.7667 12.6143 13.4667 12.8643 12.5667 12.9143 12.2667 12.9642 10.6167 12.8392 10.1167 12.5743 9.3167 11.9143 9.0667 11.4143 9.0667H8.6143Z" stroke="currentColor" stroke-linecap="round" stroke-width="2"/>
  <path d="M8.5417 8.7154C8.5417 8.6654 8.5485 8.3776 8.5497 8.0154 8.5508 7.6845 8.5217 7.3655 8.6797 7.0735 9.2717 5.8955 10.9717 6.0155 11.3917 7.2155 11.4644 7.413 11.4688 7.7262 11.4667 8.0154 11.4639 8.385 11.4717 8.7154 11.4717 8.7154" stroke="currentColor" stroke-linecap="round" stroke-width="2"/>
</svg>
