<svg xmlns="http://www.w3.org/2000/svg" width="20" height="20" viewBox="0 0 20 20" fill="none">
  <path d="M15 9.1643C14.6732 8.4973 13.7901 7.5179 11.9753 7.5596 11.9753 7.5596 10.5359 7.4971 8.9088 7.4971 7.2818 7.4971 6.5201 7.5352 5.2167 7.5596 4.3823 7.5388 2.7969 7.7263 2.0668 9.456 1.587 10.9147 1.5662 13.978 1.8582 15.5201 1.9208 16.312 2.338 17.4165 3.6313 18 4.424 18.4168 5.6964 18.25 6.656 18.3334M4.9872 6.8303C4.9455 4.8505 4.862 3.2876 7.1566 1.9956 7.9284 1.683 9.0758 1.4121 10.4943 2.079 11.9753 2.975 12.1598 3.9234 12.2882 4.1629 12.6428 5.1006 12.4551 6.4343 12.4968 6.9761" stroke="currentColor" stroke-linecap="round" stroke-width="2"/>
  <path d="M12.9167 16.4459C12.9167 17.4827 12.0759 18.3047 11.046 18.3047 10.0162 18.3047 9.1667 17.4827 9.1667 16.4459 9.1667 15.4093 10.0162 14.5762 11.046 14.5762 12.0759 14.5762 12.9167 15.4093 12.9167 16.4459Z" stroke="currentColor" stroke-width="2"/>
  <path d="M18.3333 13.2068L16.9776 11.9241C16.3333 11.3077 15.7917 11.8458 15.522 12.0755L14.3463 13.2068 12.6875 14.8258M14.3463 13.2068L15.6875 14.4947" stroke="currentColor" stroke-linecap="round" stroke-width="2"/>
</svg>
