<svg xmlns="http://www.w3.org/2000/svg" width="20" height="20" viewBox="0 0 20 20" fill="none">
  <path d="M1.6667 9.1667C1.6667 5.6311 1.6667 3.8634 2.643 2.765 3.6193 1.6667 5.1906 1.6667 8.3333 1.6667H11.6667C14.8093 1.6667 16.3808 1.6667 17.357 2.765 18.3333 3.8634 18.3333 5.6311 18.3333 9.1667 18.3333 12.7022 18.3333 14.47 17.357 15.5683 16.3808 16.6667 14.8093 16.6667 11.6667 16.6667H8.3333C5.1906 16.6667 3.6193 16.6667 2.643 15.5683 1.6667 14.47 1.6667 12.7022 1.6667 9.1667Z" stroke="currentColor" stroke-linecap="round" stroke-width="2"/>
  <path d="M5 16.6667V18.3333M15 16.6667V18.3333" stroke="currentColor" stroke-linecap="round" stroke-width="2"/>
  <path d="M10 5.8333V16.6667" stroke="currentColor" stroke-linecap="round" stroke-width="2"/>
  <path d="M7.5 10.8333V11.6667" stroke="currentColor" stroke-linecap="round" stroke-width="2"/>
  <path d="M12.5 10.8333V11.6667" stroke="currentColor" stroke-linecap="round" stroke-width="2"/>
  <path d="M1.6667 5.8333H18.3333" stroke="currentColor" stroke-width="2"/>
</svg>
