<svg xmlns="http://www.w3.org/2000/svg" width="20" height="20" viewBox="0 0 20 20" fill="none">
  <path d="M10.8328 1.6667H8.3328C5.1901 1.6667 3.6188 1.6667 2.6424 2.643 1.6661 3.6193 1.6661 5.1906 1.6661 8.3333 1.6661 11.476 1.6661 13.0474 2.6424 14.0237 3.6188 15 5.1901 15 8.3328 15H11.6662C14.8088 15 16.3803 15 17.3565 14.0237 17.9008 13.4793 18.1417 12.7501 18.2483 11.6667" stroke="currentColor" stroke-linecap="round" stroke-width="2"/>
  <path d="M9.9995 15V18.3333" stroke="currentColor" stroke-width="2"/>
  <path d="M6.6661 18.3333H13.3328" stroke="currentColor" stroke-linecap="round" stroke-width="2"/>
  <path d="M9.1662 12.5H10.8328" stroke="currentColor" stroke-linecap="round" stroke-linejoin="round" stroke-width="2"/>
  <path d="M13.9584 4.48C13.9584 4.43 13.9573 3.7976 13.9584 3.4355 13.9595 3.1046 13.9304 2.7855 14.0884 2.4935 14.6804 1.3155 16.3804 1.4355 16.8004 2.6355 16.8732 2.833 16.8776 3.1462 16.8754 3.4355 16.8727 3.8051 16.8804 4.48 16.8804 4.48M13.9584 4.48C13.0584 4.48 12.6804 5.13 12.5804 5.53 12.4804 5.93 12.4804 7.38 12.5404 7.98 12.7404 8.73 13.2404 9.04 13.7304 9.14 14.1804 9.18 16.0804 9.165 16.6304 9.165 17.4304 9.18 18.0304 8.88 18.2804 7.98 18.3304 7.68 18.3804 6.03 18.2554 5.53 17.9904 4.73 17.3804 4.48 16.8804 4.48M13.9584 4.48H16.8804" stroke="currentColor" stroke-linecap="round" stroke-width="2"/>
</svg>
