<svg xmlns="http://www.w3.org/2000/svg" width="20" height="20" viewBox="0 0 20 20" fill="none">
  <path d="M16.6667 9.1667H18.3333C17.9142 4.9556 14.3524 1.6667 10.0206 1.6667 5.4069 1.6667 1.6667 5.3976 1.6667 10 1.6667 14.6023 5.4069 18.3333 10.0206 18.3333 13.4463 18.3333 16.3903 16.2765 17.6795 13.3333" stroke="currentColor" stroke-linecap="round" stroke-linejoin="round" stroke-width="2"/>
  <path d="M11.875 9.152V7.6588C11.875 6.6506 11.0355 5.8333 10 5.8333 8.9645 5.8333 8.125 6.6506 8.125 7.6588V9.152M10 14.1667C8.3892 14.1667 7.0833 12.8953 7.0833 11.3272 7.0833 9.7589 8.3892 8.4876 10 8.4876 11.6108 8.4876 12.9167 9.7589 12.9167 11.3272 12.9167 12.8953 11.6108 14.1667 10 14.1667Z" stroke="currentColor" stroke-linecap="round" stroke-width="2"/>
</svg>
