<svg xmlns="http://www.w3.org/2000/svg" width="20" height="20" viewBox="0 0 20 20" fill="none">
  <path d="M3.5565 15.7039C3.7439 17.0958 4.8968 18.1863 6.2997 18.2508 7.4802 18.305 8.6794 18.3333 10 18.3333 11.3206 18.3333 12.5198 18.305 13.7003 18.2508 15.1032 18.1863 16.2561 17.0958 16.4435 15.7039 16.5658 14.7956 16.6667 13.8647 16.6667 12.9167 16.6667 11.9687 16.5658 11.0378 16.4435 10.1294 16.2561 8.7375 15.1032 7.6471 13.7003 7.5826 12.5198 7.5283 11.3206 7.5 10 7.5 8.6794 7.5 7.4802 7.5283 6.2997 7.5826 4.8968 7.6471 3.7439 8.7375 3.5565 10.1294 3.4342 11.0378 3.3333 11.9687 3.3333 12.9167 3.3333 13.8647 3.4342 14.7956 3.5565 15.7039Z" stroke="currentColor" stroke-linecap="round" stroke-linejoin="round" stroke-width="2"/>
  <path d="M6.25 7.5V5.4167C6.25 3.3456 7.9289 1.6667 10 1.6667 12.0711 1.6667 13.75 3.3456 13.75 5.4167V7.5" stroke="currentColor" stroke-linecap="round" stroke-linejoin="round" stroke-width="2"/>
  <path d="M10.1042 12.9167H10M10.2083 12.9167C10.2083 13.0318 10.1151 13.125 10 13.125 9.8849 13.125 9.7917 13.0318 9.7917 12.9167 9.7917 12.8016 9.8849 12.7083 10 12.7083 10.1151 12.7083 10.2083 12.8016 10.2083 12.9167Z" stroke="currentColor" stroke-linecap="round" stroke-linejoin="round" stroke-width="2"/>
  <path d="M6.7708 12.9167H6.6667M6.875 12.9167C6.875 13.0318 6.7817 13.125 6.6667 13.125 6.5516 13.125 6.4583 13.0318 6.4583 12.9167 6.4583 12.8016 6.5516 12.7083 6.6667 12.7083 6.7817 12.7083 6.875 12.8016 6.875 12.9167Z" stroke="currentColor" stroke-linecap="round" stroke-linejoin="round" stroke-width="2"/>
  <path d="M13.4375 12.9167H13.3333M13.5417 12.9167C13.5417 13.0318 13.4484 13.125 13.3333 13.125 13.2183 13.125 13.125 13.0318 13.125 12.9167 13.125 12.8016 13.2183 12.7083 13.3333 12.7083 13.4484 12.7083 13.5417 12.8016 13.5417 12.9167Z" stroke="currentColor" stroke-linecap="round" stroke-linejoin="round" stroke-width="2"/>
</svg>
