<svg xmlns="http://www.w3.org/2000/svg" width="20" height="20" viewBox="0 0 20 20" fill="none">
  <path d="M17.1728 3.3341C17.5 3.8466 17.5 4.5097 17.5 5.8359V14.1642C17.5 15.4903 17.5 16.1533 17.1728 16.6659 17.1143 16.7575 17.0488 16.8443 16.9768 16.9257 16.5738 17.381 15.9361 17.5632 14.6608 17.9275 13.3822 18.2928 12.7428 18.4753 12.28 18.2014 12.1997 18.1539 12.125 18.0976 12.0572 18.0335 11.6667 17.6638 11.6667 16.999 11.6667 15.6695V4.3305C11.6667 3.001 11.6667 2.3363 12.0572 1.9665 12.125 1.9024 12.1997 1.8461 12.28 1.7986 12.7428 1.5246 13.3822 1.7073 14.6608 2.0725 15.9361 2.4368 16.5738 2.619 16.9768 3.0744 17.0488 3.1557 17.1143 3.2425 17.1728 3.3341Z" stroke="currentColor" stroke-linecap="round" stroke-linejoin="round" stroke-width="2"/>
  <path d="M11.6667 3.3333H9.9858C8.401 3.3333 7.6087 3.3333 7.1163 3.8215 6.8419 4.0937 6.7204 4.4583 6.6667 5M11.6667 16.6667H9.9858C8.401 16.6667 7.6087 16.6667 7.1163 16.1785 6.8419 15.9063 6.7204 15.5417 6.6667 15" stroke="currentColor" stroke-linecap="round" stroke-linejoin="round" stroke-width="2"/>
  <path d="M8.3333 10H2.5M7.0834 7.9166C7.0834 7.9166 9.1667 9.451 9.1667 10 9.1667 10.549 7.0834 12.0833 7.0834 12.0833" stroke="currentColor" stroke-linecap="round" stroke-linejoin="round" stroke-width="2"/>
</svg>
