<svg xmlns="http://www.w3.org/2000/svg" width="20" height="20" viewBox="0 0 20 20" fill="none">
  <path d="M7.5 5C7.5389 4.0888 7.6544 3.5082 7.9979 3.0615 8.1312 2.8881 8.2866 2.733 8.4603 2.5999 9.1349 2.0833 10.1142 2.0833 12.0727 2.0833H12.4902C14.8518 2.0833 16.0326 2.0833 16.7663 2.8156 17.5 3.5478 17.5 4.7263 17.5 7.0833L17.5 12.9167C17.5 15.2737 17.5 16.4522 16.7663 17.1844 16.0327 17.9167 14.8518 17.9167 12.4902 17.9167H12.0727C10.1142 17.9167 9.1349 17.9167 8.4603 17.4001 8.2866 17.2671 8.1312 17.1119 7.9979 16.9386 7.6544 16.4917 7.5389 15.9111 7.5 14.9997" stroke="currentColor" stroke-linecap="round" stroke-linejoin="round" stroke-width="2"/>
  <path d="M12.5 10H2.5M10.4167 12.9168C10.4167 12.9168 13.3333 10.7687 13.3333 10.0001 13.3333 9.2315 10.4167 7.0834 10.4167 7.0834" stroke="currentColor" stroke-linecap="round" stroke-linejoin="round" stroke-width="2"/>
</svg>
