<svg xmlns="http://www.w3.org/2000/svg" width="20" height="20" viewBox="0 0 20 20" fill="none">
  <path d="M5 15C5 15.387 5 15.5804 5.0183 15.7432 5.1707 17.0954 6.2379 18.1627 7.5901 18.315 7.7529 18.3333 7.9463 18.3333 8.3333 18.3333H10.8333C13.5832 18.3333 14.9581 18.3333 15.8124 17.4791 16.6667 16.6248 16.6667 15.2498 16.6667 12.5L16.6667 7.5C16.6667 4.7501 16.6667 3.3752 15.8123 2.5209 14.9581 1.6667 13.5832 1.6667 10.8333 1.6667H8.3333C7.9464 1.6667 7.7529 1.6667 7.5901 1.685 6.2379 1.8374 5.1707 2.9046 5.0183 4.2568 5 4.4196 5 4.613 5 5" stroke="currentColor" stroke-linecap="round" stroke-linejoin="round" stroke-width="2"/>
  <path d="M3.3968 9.2652C3.3333 9.4184 3.3333 9.6125 3.3333 10.0008 3.3333 10.3891 3.3333 10.5832 3.3968 10.7364 3.4813 10.9406 3.6436 11.1028 3.8478 11.1874 4.0009 11.2508 4.1951 11.2508 4.5833 11.2508H8.75C8.7502 12.7086 8.7592 13.4416 9.2186 13.6548 9.2358 13.6628 9.2531 13.6702 9.2708 13.677 9.7538 13.8628 10.3333 13.3449 11.4923 12.3093 12.7147 11.2168 13.326 10.6543 13.3333 9.9642 13.326 9.2741 12.7147 8.7115 11.4923 7.6192 10.3333 6.5835 9.7538 6.0656 9.2708 6.2514 9.2531 6.2582 9.2358 6.2656 9.2186 6.2735 8.7515 6.4904 8.75 7.2443 8.75 8.7508H4.5833C4.1951 8.7508 4.0009 8.7508 3.8478 8.8142 3.6436 8.8988 3.4813 9.0611 3.3968 9.2652Z" stroke="currentColor" stroke-linecap="round" stroke-linejoin="round" stroke-width="2"/>
</svg>
