<svg xmlns="http://www.w3.org/2000/svg" width="20" height="20" viewBox="0 0 20 20" fill="none">
  <path d="M11.25 5.8333H8.75C7.1787 5.8333 6.393 5.8333 5.9048 6.3215 5.4167 6.8096 5.4167 7.5953 5.4167 9.1667V9.5833C5.4167 11.1547 5.4167 11.9403 5.9048 12.4285 6.393 12.9167 7.1787 12.9167 8.75 12.9167H11.25C12.8213 12.9167 13.607 12.9167 14.0952 12.4285 14.5833 11.9403 14.5833 11.1547 14.5833 9.5833V9.1667C14.5833 7.5953 14.5833 6.8096 14.0952 6.3215 13.607 5.8333 12.8213 5.8333 11.25 5.8333Z" stroke="currentColor" stroke-linecap="round" stroke-linejoin="round" stroke-width="2"/>
  <path d="M7.5 5.8333V4.1667C7.5 2.786 8.6193 1.6667 10 1.6667 11.3808 1.6667 12.5 2.786 12.5 4.1667V5.8333" stroke="currentColor" stroke-linecap="round" stroke-linejoin="round" stroke-width="2"/>
  <path d="M11.25 15.8333L8.75 18.3333M8.75 15.8333L11.25 18.3333" stroke="currentColor" stroke-linecap="round" stroke-linejoin="round" stroke-width="2"/>
  <path d="M17.5 15.8333L15 18.3333M15 15.8333L17.5 18.3333" stroke="currentColor" stroke-linecap="round" stroke-linejoin="round" stroke-width="2"/>
  <path d="M5 15.8333L2.5 18.3333M2.5 15.8333L5 18.3333" stroke="currentColor" stroke-linecap="round" stroke-linejoin="round" stroke-width="2"/>
</svg>
