<svg xmlns="http://www.w3.org/2000/svg" width="20" height="20" viewBox="0 0 20 20" fill="none">
  <path d="M16.6666 5.8331C16.6025 4.6521 16.427 3.8868 15.9469 3.3018 15.8084 3.133 15.6537 2.9783 15.4848 2.8398 14.5629 2.0831 13.1932 2.0831 10.4536 2.0831L9.9999 2.0833C6.8573 2.0833 5.2859 2.0833 4.3096 3.0596 3.3333 4.0359 3.3333 5.6072 3.3333 8.7499V11.2499C3.3333 14.3926 3.3333 15.964 4.3096 16.9402 5.2859 17.9166 6.8573 17.9166 9.9999 17.9166L10.4536 17.9164C13.1932 17.9164 14.5629 17.9164 15.4848 17.1598 15.6537 17.0213 15.8084 16.8666 15.9469 16.6977 16.427 16.1128 16.6025 15.3475 16.6666 14.1664" stroke="currentColor" stroke-linecap="round" stroke-width="2"/>
  <path d="M13.3333 6.6666C13.3333 6.6666 16.6667 9.1216 16.6667 9.9999 16.6667 10.8783 13.3333 13.3333 13.3333 13.3333M16.25 9.9999H7.5" stroke="currentColor" stroke-linecap="round" stroke-linejoin="round" stroke-width="2"/>
</svg>
