<svg xmlns="http://www.w3.org/2000/svg" width="20" height="20" viewBox="0 0 20 20" fill="none">
  <path d="M3.6606 3.3341C3.3333 3.8466 3.3333 4.5097 3.3333 5.8359V14.1642C3.3333 15.4903 3.3333 16.1533 3.6606 16.6659 3.719 16.7575 3.7845 16.8443 3.8565 16.9257 4.2595 17.381 4.8972 17.5632 6.1726 17.9275 7.4512 18.2928 8.0905 18.4753 8.5533 18.2014 8.6337 18.1539 8.7083 18.0976 8.7761 18.0335 9.1667 17.6638 9.1667 16.999 9.1667 15.6695V4.3305C9.1667 3.001 9.1667 2.3363 8.7761 1.9665 8.7083 1.9024 8.6337 1.8461 8.5533 1.7986 8.0905 1.5246 7.4512 1.7073 6.1726 2.0725 4.8972 2.4368 4.2595 2.619 3.8565 3.0744 3.7845 3.1557 3.719 3.2425 3.6606 3.3341Z" stroke="currentColor" stroke-linecap="round" stroke-linejoin="round" stroke-width="2"/>
  <path d="M9.1667 3.3333H10.8476C12.4323 3.3333 13.2247 3.3333 13.717 3.8215 13.9915 4.0937 14.1129 4.4583 14.1667 5M9.1667 16.6667H10.8476C12.4323 16.6667 13.2247 16.6667 13.717 16.1785 13.9915 15.9063 14.1129 15.5417 14.1667 15" stroke="currentColor" stroke-linecap="round" stroke-linejoin="round" stroke-width="2"/>
  <path d="M17.5 10H11.6667M16.25 7.9166C16.25 7.9166 18.3333 9.451 18.3333 10 18.3333 10.549 16.25 12.0833 16.25 12.0833" stroke="currentColor" stroke-linecap="round" stroke-linejoin="round" stroke-width="2"/>
</svg>
