<svg xmlns="http://www.w3.org/2000/svg" width="20" height="20" viewBox="0 0 20 20" fill="none">
  <path d="M12.0833 5C12.0445 4.0888 11.9289 3.5082 11.5854 3.0615 11.4522 2.8881 11.2968 2.733 11.123 2.5999 10.4484 2.0833 9.4692 2.0833 7.5107 2.0833H7.0932C4.7316 2.0833 3.5507 2.0833 2.8171 2.8156 2.0834 3.5478 2.0834 4.7263 2.0834 7.0833L2.0834 12.9167C2.0833 15.2737 2.0833 16.4522 2.817 17.1844 3.5507 17.9167 4.7315 17.9167 7.0932 17.9167H7.5107C9.4692 17.9167 10.4484 17.9167 11.123 17.4001 11.2967 17.2671 11.4522 17.1119 11.5854 16.9386 11.9289 16.4917 12.0445 15.9111 12.0833 14.9997" stroke="currentColor" stroke-linecap="round" stroke-linejoin="round" stroke-width="2"/>
  <path d="M17.0833 9.9999H7.0833M15 12.9167C15 12.9167 17.9167 10.7686 17.9167 10 17.9167 9.2314 15 7.0833 15 7.0833" stroke="currentColor" stroke-linecap="round" stroke-linejoin="round" stroke-width="2"/>
</svg>
