<svg xmlns="http://www.w3.org/2000/svg" width="20" height="20" viewBox="0 0 20 20" fill="none">
  <path d="M15 15C15 15.387 15 15.5804 14.9817 15.7432 14.8293 17.0954 13.7621 18.1627 12.4099 18.315 12.2471 18.3333 12.0537 18.3333 11.6667 18.3333H9.1667C6.4168 18.3333 5.0419 18.3333 4.1876 17.4791 3.3333 16.6248 3.3333 15.2498 3.3333 12.5L3.3333 7.5C3.3333 4.7501 3.3334 3.3752 4.1876 2.5209 5.0419 1.6667 6.4168 1.6667 9.1667 1.6667H11.6667C12.0537 1.6667 12.2471 1.6667 12.4099 1.685 13.7621 1.8374 14.8293 2.9046 14.9817 4.2568 15 4.4196 15 4.613 15 5" stroke="currentColor" stroke-linecap="round" stroke-linejoin="round" stroke-width="2"/>
  <path d="M6.7301 9.2652C6.6667 9.4184 6.6667 9.6125 6.6667 10.0008 6.6667 10.3891 6.6667 10.5832 6.7301 10.7364 6.8147 10.9406 6.9769 11.1028 7.1811 11.1874 7.3342 11.2508 7.5284 11.2508 7.9167 11.2508H12.0833C12.0835 12.7086 12.0925 13.4416 12.5519 13.6548 12.5691 13.6628 12.5864 13.6702 12.6041 13.677 13.0871 13.8628 13.6666 13.3449 14.8256 12.3093 16.048 11.2168 16.6593 10.6543 16.6667 9.9642 16.6593 9.2741 16.048 8.7115 14.8256 7.6192 13.6666 6.5835 13.0871 6.0656 12.6041 6.2514 12.5864 6.2582 12.5691 6.2656 12.5519 6.2735 12.0848 6.4904 12.0833 7.2443 12.0833 8.7508H7.9167C7.5284 8.7508 7.3342 8.7508 7.1811 8.8142 6.9769 8.8988 6.8147 9.0611 6.7301 9.2652Z" stroke="currentColor" stroke-linecap="round" stroke-linejoin="round" stroke-width="2"/>
</svg>
