<svg xmlns="http://www.w3.org/2000/svg" width="20" height="20" viewBox="0 0 20 20" fill="none">
  <path d="M7.9167 14.1667C8.5196 14.6945 9.2341 15 10 15 10.7659 15 11.4804 14.6945 12.0833 14.1667" stroke="currentColor" stroke-linecap="round" stroke-linejoin="round" stroke-width="2"/>
  <path d="M13.0208 9.9058V10.3471M6.9792 9.9058V10.3471M7.2917 10.2083C7.2917 9.8632 7.1518 9.5833 6.9792 9.5833 6.8066 9.5833 6.6667 9.8632 6.6667 10.2083 6.6667 10.5535 6.8066 10.8333 6.9792 10.8333 7.1518 10.8333 7.2917 10.5535 7.2917 10.2083ZM13.3333 10.2083C13.3333 9.8632 13.1934 9.5833 13.0208 9.5833 12.8483 9.5833 12.7083 9.8632 12.7083 10.2083 12.7083 10.5535 12.8483 10.8333 13.0208 10.8333 13.1934 10.8333 13.3333 10.5535 13.3333 10.2083Z" stroke="currentColor" stroke-linecap="round" stroke-linejoin="round" stroke-width="2"/>
  <path d="M1.6667 10C1.6667 14.6023 5.3976 18.3333 10 18.3333 14.6023 18.3333 18.3333 14.6023 18.3333 10 18.3333 5.3976 14.6023 1.6667 10 1.6667 5.3976 1.6667 1.6667 5.3976 1.6667 10Z" stroke="currentColor" stroke-linecap="round" stroke-linejoin="round" stroke-width="2"/>
</svg>
