<svg xmlns="http://www.w3.org/2000/svg" width="20" height="20" viewBox="0 0 20 20" fill="none">
  <path d="M1.6667 10C1.6667 14.6023 5.3976 18.3333 10 18.3333 14.6023 18.3333 18.3333 14.6023 18.3333 10 18.3333 5.3976 14.6023 1.6667 10 1.6667 5.3976 1.6667 1.6667 5.3976 1.6667 10Z" stroke="currentColor" stroke-linecap="round" stroke-linejoin="round" stroke-width="2"/>
  <path d="M7.9167 10C8.5196 10.5278 9.2341 10.8333 10 10.8333 10.7659 10.8333 11.4804 10.5278 12.0833 10" stroke="currentColor" stroke-linecap="round" stroke-linejoin="round" stroke-width="2"/>
  <path d="M13.0208 5.7392V6.1804M6.9792 5.7392V6.1804M7.2917 6.0417C7.2917 5.6965 7.1518 5.4167 6.9792 5.4167 6.8066 5.4167 6.6667 5.6965 6.6667 6.0417 6.6667 6.3868 6.8066 6.6667 6.9792 6.6667 7.1518 6.6667 7.2917 6.3868 7.2917 6.0417ZM13.3333 6.0417C13.3333 5.6965 13.1934 5.4167 13.0208 5.4167 12.8483 5.4167 12.7083 5.6965 12.7083 6.0417 12.7083 6.3868 12.8483 6.6667 13.0208 6.6667 13.1934 6.6667 13.3333 6.3868 13.3333 6.0417Z" stroke="currentColor" stroke-linecap="round" stroke-linejoin="round" stroke-width="2"/>
</svg>
