<svg xmlns="http://www.w3.org/2000/svg" width="20" height="20" viewBox="0 0 20 20" fill="none">
  <path d="M7.5 10C7.5 8.6193 8.6193 7.5 10 7.5 11.3808 7.5 12.5 8.6193 12.5 10 12.5 11.3808 11.3808 12.5 10 12.5 8.6193 12.5 7.5 11.3808 7.5 10Z" stroke="currentColor" stroke-width="2"/>
  <path d="M10 7.5V3.3333M10 12.5V16.6667" stroke="currentColor" stroke-linecap="round" stroke-linejoin="round" stroke-width="2"/>
  <path d="M12.5 10L16.6667 10M7.5 10L3.3333 10" stroke="currentColor" stroke-linecap="round" stroke-linejoin="round" stroke-width="2"/>
  <path d="M12.1647 8.75L15.7731 6.6667M7.8345 11.25L4.2261 13.3333" stroke="currentColor" stroke-linecap="round" stroke-linejoin="round" stroke-width="2"/>
  <path d="M11.25 12.1647L13.3333 15.7731M8.75 7.8345L6.6667 4.2261" stroke="currentColor" stroke-linecap="round" stroke-linejoin="round" stroke-width="2"/>
  <path d="M11.25 7.8353L13.3333 4.2269M8.75 12.1654L6.6667 15.7739" stroke="currentColor" stroke-linecap="round" stroke-linejoin="round" stroke-width="2"/>
  <path d="M12.1647 11.25L15.7731 13.3333M7.8346 8.75L4.2261 6.6667" stroke="currentColor" stroke-linecap="round" stroke-linejoin="round" stroke-width="2"/>
</svg>
