<svg xmlns="http://www.w3.org/2000/svg" width="20" height="20" viewBox="0 0 20 20" fill="none">
  <path d="M8.8375 7.5231L5.1688 3.8467C4.675 3.3519 4.6795 2.5452 5.1788 2.0448 5.678 1.5445 6.4831 1.5401 6.9768 2.0349L13.4648 8.4726C15.6801 10.6925 16.957 13.6024 14.4843 16.6094L14.2205 16.8738C12.2785 18.8198 9.1298 18.8198 7.1878 16.8738L4.5305 14.2488C4.0367 13.754 4.0468 12.9417 4.553 12.4344 5.0329 11.9535 5.7864 11.9194 6.2841 12.3387M7.5834 9.9757L6.9769 9.3678C6.4831 8.873 6.495 8.0588 7.0034 7.5494 7.5118 7.0398 8.3438 7.0283 8.8375 7.5231L10.9284 9.6184M7.5834 9.9757L9.0698 11.4653M7.5834 9.9757C7.0896 9.4808 6.2981 9.5039 5.7896 10.0134 5.2812 10.5229 5.2693 11.3371 5.7631 11.8319L6.2841 12.3387M6.2841 12.3387L7.2261 13.2547M6.2841 12.3387C6.3114 12.3617 6.338 12.3861 6.3637 12.4118M10.1134 5.1472C10.2529 3.8665 11.7697 2.5389 13.6636 3.4487 13.8434 3.5351 13.9859 3.6985 13.9876 3.8984 13.9902 4.2203 13.8488 4.6178 13.3958 4.8814 12.7478 5.2584 11.6863 6.6989 13.1033 8.1188" stroke="currentColor" stroke-linecap="round" stroke-linejoin="round" stroke-width="2"/>
</svg>
