<svg xmlns="http://www.w3.org/2000/svg" width="20" height="20" viewBox="0 0 20 20" fill="none">
  <path d="M1.6667 10C1.6667 6.6609 1.6667 4.9913 2.643 3.954 3.6193 2.9167 5.1906 2.9167 8.3333 2.9167H11.6667C14.8093 2.9167 16.3808 2.9167 17.357 3.954 18.3333 4.9913 18.3333 6.6609 18.3333 10 18.3333 13.3391 18.3333 15.0087 17.357 16.046 16.3808 17.0833 14.8093 17.0833 11.6667 17.0833H8.3333C5.1906 17.0833 3.6193 17.0833 2.643 16.046 1.6667 15.0087 1.6667 13.3391 1.6667 10Z" stroke="currentColor" stroke-width="2"/>
  <path d="M5.7401 9.0262C6.5222 8.5693 7.2049 8.7533 7.615 9.0467 7.7831 9.1669 7.8672 9.2271 7.9167 9.2271 7.9661 9.2271 8.0502 9.1669 8.2183 9.0467 8.6284 8.7533 9.3111 8.5693 10.0933 9.0262 11.1197 9.6258 11.352 11.6042 8.9843 13.2732 8.5333 13.5911 8.3079 13.75 7.9167 13.75 7.5255 13.75 7.3 13.5911 6.849 13.2732 4.4813 11.6042 4.7136 9.6258 5.7401 9.0262Z" stroke="currentColor" stroke-linecap="round" stroke-width="2"/>
  <path d="M15 13.75H12.5" stroke="currentColor" stroke-linecap="round" stroke-linejoin="round" stroke-width="2"/>
</svg>
