<svg xmlns="http://www.w3.org/2000/svg" width="20" height="20" viewBox="0 0 20 20" fill="none">
  <path d="M12.5 5.4167H7.5C5.143 5.4167 3.9645 5.4167 3.2322 6.1489 2.5 6.8811 2.5 8.0596 2.5 10.4167V12.5C2.5 14.857 2.5 16.0355 3.2322 16.7678 3.9645 17.5 5.143 17.5 7.5 17.5H12.5C14.857 17.5 16.0355 17.5 16.7678 16.7678 17.5 16.0355 17.5 14.857 17.5 12.5V10.4167C17.5 8.0596 17.5 6.8811 16.7678 6.1489 16.0355 5.4167 14.857 5.4167 12.5 5.4167Z" stroke="currentColor" stroke-linecap="round" stroke-linejoin="round" stroke-width="2"/>
  <path d="M7.5 5.4167V5C7.5 3.8215 7.5 3.2322 7.8661 2.8661 8.2322 2.5 8.8215 2.5 10 2.5 11.1785 2.5 11.7677 2.5 12.1339 2.8661 12.5 3.2322 12.5 3.8215 12.5 5V5.4167" stroke="currentColor" stroke-linecap="round" stroke-linejoin="round" stroke-width="2"/>
  <path d="M5.8333 5.4167V17.5" stroke="currentColor" stroke-linecap="round" stroke-linejoin="round" stroke-width="2"/>
  <path d="M14.1667 5.4167V17.5" stroke="currentColor" stroke-linecap="round" stroke-linejoin="round" stroke-width="2"/>
</svg>
