<svg xmlns="http://www.w3.org/2000/svg" width="20" height="20" viewBox="0 0 20 20" fill="none">
  <path d="M6.6481 9.1667C6.9906 9.3386 7.2625 9.6346 7.4783 9.9962M7.4783 9.9962C8.3086 11.3875 8.3085 13.75 8.3085 13.75 8.3085 16.6667 6.8217 17.5 4.9876 17.5 4.1574 17.5 1.6667 17.0833 1.6667 13.3333 1.6667 7.9167 4.5725 4.1667 7.0632 4.1667 9.0557 4.1667 8.3098 8.3333 7.4783 9.9962Z" stroke="currentColor" stroke-linecap="round" stroke-linejoin="round" stroke-width="2"/>
  <path d="M13.3513 9.1667C13.0087 9.3386 12.7368 9.6346 12.5209 9.9962M12.5209 9.9962C11.6905 11.3875 11.6906 13.75 11.6906 13.75 11.6906 16.6667 13.1777 17.5 15.012 17.5 15.8423 17.5 18.3333 17.0833 18.3333 13.3333 18.3333 7.9167 15.4272 4.1667 12.9362 4.1667 10.9433 4.1667 11.6917 8.3333 12.5209 9.9962Z" stroke="currentColor" stroke-linecap="round" stroke-linejoin="round" stroke-width="2"/>
  <path d="M11.6667 5.8333L10 4.7222M10 4.7222L8.3333 5.8333M10 4.7222V2.5" stroke="currentColor" stroke-linecap="round" stroke-width="2"/>
</svg>
