<svg xmlns="http://www.w3.org/2000/svg" width="20" height="20" viewBox="0 0 20 20" fill="none">
  <path d="M14.1667 10.8333V6.6667C14.1667 4.3655 12.3012 2.5 10 2.5 7.6988 2.5 5.8333 4.3655 5.8333 6.6667V10.8333C5.8333 12.391 5.8333 13.1698 6.1683 13.75 6.3877 14.1301 6.7033 14.4457 7.0833 14.6651 7.6635 15 8.4423 15 10 15 11.5577 15 12.3365 15 12.9167 14.6651 13.2967 14.4457 13.6123 14.1301 13.8317 13.75 14.1667 13.1698 14.1667 12.391 14.1667 10.8333Z" stroke="currentColor" stroke-linejoin="round" stroke-width="2"/>
  <path d="M15 17.5C15 16.5795 15.7462 15.8333 16.6667 15.8333 17.5872 15.8333 18.3333 16.5795 18.3333 17.5" stroke="currentColor" stroke-linecap="round" stroke-linejoin="round" stroke-width="2"/>
  <path d="M1.6667 17.5C1.6667 16.5795 2.4129 15.8333 3.3333 15.8333 4.2538 15.8333 5 16.5795 5 17.5" stroke="currentColor" stroke-linecap="round" stroke-linejoin="round" stroke-width="2"/>
  <path d="M8.4375 6.0417H8.3333M8.5417 6.0417C8.5417 6.1567 8.4484 6.25 8.3333 6.25 8.2183 6.25 8.125 6.1567 8.125 6.0417 8.125 5.9266 8.2183 5.8333 8.3333 5.8333 8.4484 5.8333 8.5417 5.9266 8.5417 6.0417Z" stroke="currentColor" stroke-linecap="round" stroke-linejoin="round" stroke-width="2"/>
  <path d="M11.7708 6.0417H11.6667M11.875 6.0417C11.875 6.1567 11.7818 6.25 11.6667 6.25 11.5516 6.25 11.4583 6.1567 11.4583 6.0417 11.4583 5.9266 11.5516 5.8333 11.6667 5.8333 11.7818 5.8333 11.875 5.9266 11.875 6.0417Z" stroke="currentColor" stroke-linecap="round" stroke-linejoin="round" stroke-width="2"/>
  <path d="M16.6667 15.8333V12.5C16.6667 10.9287 16.6667 10.143 16.1785 9.6548 15.6903 9.1667 14.9047 9.1667 13.3333 9.1667H6.6667C5.0953 9.1667 4.3096 9.1667 3.8215 9.6548 3.3333 10.143 3.3333 10.9287 3.3333 12.5V15.8333" stroke="currentColor" stroke-linecap="round" stroke-linejoin="round" stroke-width="2"/>
</svg>
