<svg xmlns="http://www.w3.org/2000/svg" width="20" height="20" viewBox="0 0 20 20" fill="none">
  <path d="M9.1151 9.2312L2.8425 15.5038C2.3858 15.9604 2.3858 16.7008 2.8425 17.1575 3.2992 17.6142 4.0396 17.6142 4.4963 17.1575L10.7688 10.8849M9.1151 9.2312L10.7688 10.8849M9.1151 9.2312L9.7353 8.611M10.7688 10.8849L11.389 10.2648M9.7353 8.611L9.7707 8.5755C10.0937 8.2526 10.6172 8.2526 10.9401 8.5755L11.4245 9.0599C11.7474 9.3828 11.7474 9.9063 11.4245 10.2293L11.389 10.2648M9.7353 8.611L11.389 10.2648" stroke="currentColor" stroke-linejoin="round" stroke-width="2"/>
  <path d="M15.1981 2.6392C15.2847 2.4536 15.5487 2.4536 15.6353 2.6392L15.9618 3.3387C16.1055 3.6468 16.3532 3.8945 16.6613 4.0383L17.3607 4.3647C17.5464 4.4513 17.5464 4.7153 17.3607 4.802L16.6613 5.1284C16.3532 5.2722 16.1055 5.5198 15.9618 5.8279L15.6353 6.5274C15.5487 6.7131 15.2847 6.7131 15.1981 6.5274L14.8716 5.8279C14.7278 5.5198 14.4802 5.2722 14.1721 5.1284L13.4726 4.802C13.2869 4.7153 13.2869 4.4513 13.4726 4.3647L14.1721 4.0383C14.4802 3.8945 14.7278 3.6468 14.8716 3.3387L15.1981 2.6392Z" stroke="currentColor" stroke-linejoin="round" stroke-width="2"/>
  <path d="M15.1981 11.8059C15.2847 11.6203 15.5487 11.6203 15.6353 11.8059L15.9618 12.5054C16.1055 12.8135 16.3532 13.0612 16.6613 13.2049L17.3607 13.5314C17.5464 13.618 17.5464 13.882 17.3607 13.9686L16.6613 14.2951C16.3532 14.4388 16.1055 14.6865 15.9618 14.9946L15.6353 15.6941C15.5487 15.8798 15.2847 15.8798 15.1981 15.6941L14.8716 14.9946C14.7278 14.6865 14.4802 14.4388 14.1721 14.2951L13.4726 13.9686C13.2869 13.882 13.2869 13.618 13.4726 13.5314L14.1721 13.2049C14.4802 13.0612 14.7278 12.8135 14.8716 12.5054L15.1981 11.8059Z" stroke="currentColor" stroke-linejoin="round" stroke-width="2"/>
  <path d="M6.0314 2.6392C6.118 2.4536 6.382 2.4536 6.4686 2.6392L6.7951 3.3387C6.9389 3.6468 7.1865 3.8945 7.4946 4.0383L8.1941 4.3647C8.3797 4.4513 8.3797 4.7153 8.1941 4.802L7.4946 5.1284C7.1865 5.2722 6.9389 5.5198 6.7951 5.8279L6.4686 6.5274C6.382 6.7131 6.118 6.7131 6.0314 6.5274L5.7049 5.8279C5.5611 5.5198 5.3135 5.2722 5.0054 5.1284L4.3059 4.802C4.1203 4.7153 4.1203 4.4513 4.3059 4.3647L5.0054 4.0383C5.3135 3.8945 5.5611 3.6468 5.7049 3.3387L6.0314 2.6392Z" stroke="currentColor" stroke-linejoin="round" stroke-width="2"/>
</svg>
