<svg xmlns="http://www.w3.org/2000/svg" width="20" height="20" viewBox="0 0 20 20" fill="none">
  <path d="M14.5833 14.5833L17.9167 17.9167" stroke="currentColor" stroke-linecap="round" stroke-linejoin="round" stroke-width="2"/>
  <path d="M4.9765 3.1607L7.7649 4.1005C8.1504 4.2339 8.7354 4.1467 9.0667 3.9107L11.0228 2.5157C12.2742 1.6242 13.31 2.1559 13.3111 3.7014L13.3218 6.3176C13.3237 6.7607 13.6318 7.3105 14.0073 7.5494L16.0058 8.8024C17.5867 9.7953 17.407 10.9708 15.6052 11.4275L13.0977 12.0608C12.6446 12.1749 12.1772 12.6424 12.0578 13.1008L11.4247 15.6089C10.9733 17.4057 9.7874 17.5854 8.8001 16.0095L7.5473 14.0106C7.3084 13.6351 6.7587 13.3269 6.3157 13.3251L3.6999 13.3143C2.16 13.308 1.6231 12.2773 2.5145 11.0255L3.9092 9.0691C4.1399 8.7431 4.2272 8.1579 4.0937 7.7723L3.1541 4.9835C2.6469 3.4676 3.4662 2.6481 4.9765 3.1607Z" stroke="currentColor" stroke-linecap="round" stroke-linejoin="round" stroke-width="2"/>
</svg>
