<svg xmlns="http://www.w3.org/2000/svg" width="20" height="20" viewBox="0 0 20 20" fill="none">
  <path d="M3.2708 2.0833H7.625C7.625 2.0833 6.8333 6.4167 6.8333 8.4167 6.8333 10.9167 8.4167 12.9167 10 12.9167 11.5833 12.9167 13.1667 10.9167 13.1667 8.4167 13.1667 6.4167 12.375 2.0833 12.375 2.0833H16.7292C16.7292 2.0833 17.9167 5.9487 17.9167 9.5833 17.9167 14.1667 14.75 17.9167 10 17.9167 5.25 17.9167 2.0833 14.1667 2.0833 9.5833 2.0833 5.9487 3.2708 2.0833 3.2708 2.0833Z" stroke="currentColor" stroke-linejoin="round" stroke-width="2"/>
  <path d="M2.4772 6.0417H6.8314M13.1648 6.0417L17.5189 6.0417" stroke="currentColor" stroke-linecap="round" stroke-width="2"/>
</svg>
