<svg xmlns="http://www.w3.org/2000/svg" width="20" height="20" viewBox="0 0 20 20" fill="none">
  <path d="M13.3333 8.3333V7.5C13.3333 6.7143 13.3333 6.3215 13.5774 6.0774 13.8215 5.8333 14.2143 5.8333 15 5.8333 15.7857 5.8333 16.1785 5.8333 16.4226 6.0774 16.6667 6.3215 16.6667 6.7143 16.6667 7.5V8.3333M13.3333 8.3333V11.6667C13.3333 13.5076 11.8409 15 10 15 8.1591 15 6.6667 13.5076 6.6667 11.6667V8.3333M13.3333 8.3333H16.6667M16.6667 8.3333V11.6667C16.6667 15.3486 13.6819 18.3333 10 18.3333 6.3181 18.3333 3.3333 15.3486 3.3333 11.6667V8.3333M6.6667 8.3333V7.5C6.6667 6.7143 6.6667 6.3215 6.4226 6.0774 6.1785 5.8333 5.7857 5.8333 5 5.8333 4.2143 5.8333 3.8215 5.8333 3.5774 6.0774 3.3333 6.3215 3.3333 6.7143 3.3333 7.5V8.3333M6.6667 8.3333L3.3333 8.3333" stroke="currentColor" stroke-linecap="round" stroke-linejoin="round" stroke-width="2"/>
  <path d="M10.4167 1.6665L8.8542 4.1665H11.3542L9.7917 6.6665" stroke="currentColor" stroke-linecap="round" stroke-linejoin="round" stroke-width="2"/>
</svg>
