<svg xmlns="http://www.w3.org/2000/svg" width="20" height="20" viewBox="0 0 20 20" fill="none">
  <path d="M13.3333 10V9.1667C13.3333 8.381 13.3333 7.9882 13.5774 7.7441 13.8215 7.5 14.2143 7.5 15 7.5 15.7857 7.5 16.1785 7.5 16.4226 7.7441 16.6667 7.9882 16.6667 8.381 16.6667 9.1667V10M13.3333 10V11.6667C13.3333 13.5076 11.8409 15 10 15 8.1591 15 6.6667 13.5076 6.6667 11.6667V10M13.3333 10H16.6667M16.6667 10V11.6667C16.6667 15.3486 13.6819 18.3333 10 18.3333 6.3181 18.3333 3.3333 15.3486 3.3333 11.6667V10M6.6667 10V9.1667C6.6667 8.381 6.6667 7.9882 6.4226 7.7441 6.1785 7.5 5.7857 7.5 5 7.5 4.2143 7.5 3.8215 7.5 3.5774 7.7441 3.3333 7.9882 3.3333 8.381 3.3333 9.1667V10M6.6667 10L3.3333 10" stroke="currentColor" stroke-linecap="round" stroke-linejoin="round" stroke-width="2"/>
  <path d="M15 1.6667V5M16.6667 3.3333H13.3333" stroke="currentColor" stroke-linecap="round" stroke-linejoin="round" stroke-width="2"/>
  <path d="M6.6667 3.3333H3.3333" stroke="currentColor" stroke-linecap="round" stroke-linejoin="round" stroke-width="2"/>
</svg>
