<svg xmlns="http://www.w3.org/2000/svg" width="20" height="20" viewBox="0 0 20 20" fill="none">
  <path d="M18.3333 9.1667C18.3333 8.7572 18.3289 8.3477 18.3202 7.937 18.2658 5.3824 18.2385 4.1051 17.2959 3.1589 16.3532 2.2127 15.0414 2.1797 12.4177 2.1138 10.8006 2.0732 9.1994 2.0732 7.5823 2.1138 4.9586 2.1797 3.6467 2.2127 2.7041 3.1589 1.7615 4.105 1.7343 5.3824 1.6798 7.937 1.6623 8.7583 1.6623 9.5749 1.6798 10.3963 1.7343 12.9509 1.7615 14.2282 2.7041 15.1744 3.6467 16.1207 4.9586 16.1536 7.5824 16.2195 8.8094 16.2503 10.0273 16.2578 11.25 16.2418" stroke="currentColor" stroke-linecap="round" stroke-linejoin="round" stroke-width="2"/>
  <path d="M1.6667 4.1667L7.4275 7.4372C9.5323 8.6321 10.4678 8.6321 12.5725 7.4372L18.3333 4.1667" stroke="currentColor" stroke-linejoin="round" stroke-width="2"/>
  <path d="M14.1667 15.8333C14.5762 16.2548 15.6665 17.9167 16.25 17.9167M18.3333 15.8333C17.9238 16.2548 16.8335 17.9167 16.25 17.9167M16.25 17.9167V11.25" stroke="currentColor" stroke-linecap="round" stroke-linejoin="round" stroke-width="2"/>
</svg>
