<svg xmlns="http://www.w3.org/2000/svg" width="20" height="20" viewBox="0 0 20 20" fill="none">
  <path d="M1.6667 3.75L7.4275 7.0205C9.5323 8.2154 10.4678 8.2154 12.5725 7.0205L18.3333 3.75" stroke="currentColor" stroke-linejoin="round" stroke-width="2"/>
  <path d="M18.3318 8.3301C18.3298 8.0595 18.326 7.7887 18.3202 7.5175 18.2658 4.9641 18.2385 3.6874 17.2959 2.7417 16.3532 1.796 15.0414 1.763 12.4177 1.6971 10.8006 1.6565 9.1994 1.6565 7.5823 1.6971 4.9586 1.763 3.6467 1.7959 2.7041 2.7417 1.7615 3.6874 1.7343 4.9641 1.6798 7.5174 1.6623 8.3385 1.6623 9.1546 1.6798 9.9756 1.7343 12.529 1.7615 13.8057 2.7041 14.7514 3.6467 15.6971 4.9586 15.73 7.5824 15.7959 8.2513 15.8128 8.9176 15.8226 9.5833 15.8255" stroke="currentColor" stroke-linecap="round" stroke-linejoin="round" stroke-width="2"/>
  <path d="M12.0719 14.9741C12.5817 15.8379 13.6052 16.6462 15.0014 16.6462 16.3976 16.6462 17.4252 15.8379 17.9348 14.9741M15.0098 16.7791L15.0098 18.3333M14.9912 14.2659C14.1524 14.2659 13.4725 13.5863 13.4725 12.748V11.5151C13.4725 10.6768 14.1524 9.9972 14.9912 9.9972 15.8299 9.9972 16.5098 10.6768 16.5098 11.5151V12.748C16.5098 13.5863 15.8299 14.2659 14.9912 14.2659Z" stroke="currentColor" stroke-linecap="round" stroke-linejoin="round" stroke-width="2"/>
</svg>
