<svg xmlns="http://www.w3.org/2000/svg" width="20" height="20" viewBox="0 0 20 20" fill="none">
  <path d="M1.6667 4.1667L7.4275 7.4372C9.5323 8.6321 10.4678 8.6321 12.5725 7.4372L18.3333 4.1667" stroke="currentColor" stroke-linejoin="round" stroke-width="2"/>
  <path d="M18.3273 9.1667C18.3373 8.4786 18.3349 8.6262 18.3202 7.937 18.2658 5.3824 18.2385 4.1051 17.2959 3.1589 16.3532 2.2127 15.0414 2.1797 12.4177 2.1138 10.8006 2.0732 9.1994 2.0732 7.5823 2.1138 4.9586 2.1797 3.6467 2.2127 2.7041 3.1589 1.7615 4.1051 1.7343 5.3824 1.6798 7.937 1.6623 8.7584 1.6623 9.5749 1.6798 10.3963 1.7343 12.951 1.7615 14.2282 2.7041 15.1745 3.6467 16.1207 4.9586 16.1536 7.5824 16.2195 8.3909 16.2398 8.3621 16.25 9.1667 16.25" stroke="currentColor" stroke-linecap="round" stroke-linejoin="round" stroke-width="2"/>
  <path d="M11.6667 12.0833L14.5833 15M14.5833 15L17.5 17.9167M14.5833 15L11.6667 17.9167M14.5833 15L17.5 12.0833" stroke="currentColor" stroke-linecap="round" stroke-linejoin="round" stroke-width="2"/>
</svg>
