<svg xmlns="http://www.w3.org/2000/svg" width="20" height="20" viewBox="0 0 20 20" fill="none">
  <path d="M10.8333 2.5H13.3333C15.6903 2.5 16.8688 2.5 17.6011 3.2322 18.3333 3.9645 18.3333 5.143 18.3333 7.5 18.3333 9.857 18.3333 11.0355 17.6011 11.7677 16.8688 12.5 15.6903 12.5 13.3333 12.5H10.8333C8.4763 12.5 7.2978 12.5 6.5656 11.7677 5.8333 11.0355 5.8333 9.857 5.8333 7.5 5.8333 5.143 5.8333 3.9645 6.5656 3.2322 7.2978 2.5 8.4763 2.5 10.8333 2.5Z" stroke="currentColor" stroke-linecap="round" stroke-linejoin="round" stroke-width="2"/>
  <path d="M14.1667 14.9465C14.0863 15.7765 13.9048 16.3352 13.4944 16.7521 12.7585 17.5 11.574 17.5 9.2049 17.5H6.6922C4.3231 17.5 3.1386 17.5 2.4026 16.7521 1.6667 16.0043 1.6667 14.8005 1.6667 12.3931 1.6667 9.9857 1.6667 8.7819 2.4026 8.034 2.6537 7.7789 2.9571 7.6107 3.3418 7.5" stroke="currentColor" stroke-linecap="round" stroke-linejoin="round" stroke-width="2"/>
  <path d="M18.1321 5.1056L14.6558 6.93C13.4025 7.5877 12.7758 7.9166 12.0833 7.9166 11.3909 7.9166 10.7642 7.5877 9.5108 6.93L6.0346 5.1056" stroke="currentColor" stroke-linecap="round" stroke-linejoin="round" stroke-width="2"/>
</svg>
