<svg xmlns="http://www.w3.org/2000/svg" width="20" height="20" viewBox="0 0 20 20" fill="none">
  <path d="M4.167 5.8333L3.1513 6.5104C2.4232 6.9958 2.0591 7.2385 1.8619 7.6087 1.6646 7.9788 1.666 8.4138 1.6689 9.2838 1.6725 10.3313 1.6822 11.3985 1.7092 12.4784 1.7731 15.0406 1.8051 16.3217 2.7471 17.2637 3.6891 18.2058 4.9875 18.2382 7.5842 18.3031 9.1997 18.3434 10.8009 18.3434 12.4163 18.3031 15.0132 18.2382 16.3115 18.2058 17.2535 17.2637 18.1955 16.3217 18.2275 15.0406 18.2914 12.4784 18.3184 11.3985 18.3281 10.3313 18.3317 9.2838 18.3346 8.4138 18.336 7.9788 18.1388 7.6087 17.9414 7.2385 17.5774 6.9958 16.8493 6.5104L15.8336 5.8333" stroke="currentColor" stroke-linejoin="round" stroke-width="2"/>
  <path d="M1.6667 8.3333L7.4275 11.7898C8.6808 12.5418 9.3075 12.9178 10 12.9178 10.6925 12.9178 11.3192 12.5418 12.5725 11.7898L18.3333 8.3333" stroke="currentColor" stroke-linejoin="round" stroke-width="2"/>
  <path d="M4.1666 10V5C4.1666 3.4286 4.1666 2.643 4.6548 2.1548 5.143 1.6667 5.9286 1.6667 7.5 1.6667H12.5C14.0713 1.6667 14.857 1.6667 15.3452 2.1548 15.8333 2.643 15.8333 3.4286 15.8333 5V10" stroke="currentColor" stroke-width="2"/>
  <path d="M8.1343 5.2301C8.8048 4.8494 9.3899 5.0028 9.7414 5.2472 9.8855 5.3474 9.9576 5.3975 10 5.3975 10.0424 5.3975 10.1144 5.3474 10.2586 5.2472 10.6101 5.0028 11.1953 4.8494 11.8657 5.2301 12.7455 5.7298 12.9446 7.3784 10.9151 8.7693 10.5286 9.0343 10.3353 9.1667 10 9.1667 9.6647 9.1667 9.4714 9.0343 9.0848 8.7693 7.0554 7.3784 7.2545 5.7298 8.1343 5.2301Z" stroke="currentColor" stroke-linecap="round" stroke-width="2"/>
</svg>
