<svg xmlns="http://www.w3.org/2000/svg" width="20" height="20" viewBox="0 0 20 20" fill="none">
  <path d="M1.6667 4.5834L7.4275 7.8539C9.5323 9.0488 10.4678 9.0488 12.5725 7.8539L18.3333 4.5834" stroke="currentColor" stroke-linejoin="round" stroke-width="2"/>
  <path d="M9.5833 16.6633C9.1948 16.6582 7.9724 16.6731 7.5824 16.6633 4.9586 16.5972 3.6467 16.5642 2.7041 15.6162 1.7615 14.6682 1.7343 13.3884 1.6798 10.8289 1.6623 10.0059 1.6623 9.1878 1.6798 8.3648 1.7343 5.8054 1.7615 4.5256 2.7041 3.5776 3.6467 2.6296 4.9586 2.5966 7.5823 2.5305 9.1994 2.4898 10.8006 2.4898 12.4177 2.5305 15.0414 2.5966 16.3532 2.6296 17.2958 3.5776 18.2385 4.5256 18.2658 5.8054 18.3202 8.3648 18.3319 8.9144 18.3358 8.6285 18.3318 9.1767" stroke="currentColor" stroke-linecap="round" stroke-linejoin="round" stroke-width="2"/>
  <path d="M12.5125 11.9888C13.4063 11.4558 14.1865 11.6706 14.6553 12.0128 14.8474 12.1531 14.9435 12.2233 15 12.2233 15.0565 12.2233 15.1526 12.1531 15.3447 12.0128 15.8135 11.6706 16.5937 11.4558 17.4875 11.9888 18.6607 12.6884 18.9261 14.9965 16.2202 16.9437 15.7048 17.3146 15.4471 17.5 15 17.5 14.5529 17.5 14.2952 17.3146 13.7798 16.9437 11.0739 14.9965 11.3393 12.6884 12.5125 11.9888Z" stroke="currentColor" stroke-linecap="round" stroke-width="2"/>
</svg>
