<svg xmlns="http://www.w3.org/2000/svg" width="20" height="20" viewBox="0 0 20 20" fill="none">
  <path d="M18.3332 9.1883C18.3332 8.7776 18.3288 8.3669 18.3201 7.9549 18.2657 5.3925 18.2384 4.1113 17.2958 3.1622 16.3532 2.2131 15.0413 2.18 12.4176 2.1139 10.8005 2.0732 9.1993 2.0731 7.5823 2.1139 4.9585 2.18 3.6466 2.2131 2.704 3.1622 1.7614 4.1113 1.7342 5.3925 1.6797 7.9549 1.6622 8.7788 1.6622 9.5979 1.6797 10.4218 1.7342 12.9842 1.7614 14.2655 2.704 15.2146 3.5849 16.1015 4.7882 16.1884 7.0832 16.25" stroke="currentColor" stroke-linecap="round" stroke-linejoin="round" stroke-width="2"/>
  <path d="M5.8332 6.25L8.2849 7.6995C9.7142 8.5446 10.2856 8.5446 11.7149 7.6995L14.1666 6.25" stroke="currentColor" stroke-linecap="round" stroke-linejoin="round" stroke-width="2"/>
  <path d="M11.2499 15.4167C10.8285 15.0071 9.1666 13.9168 9.1666 13.3333 9.1666 12.7498 10.8285 11.6596 11.2499 11.25" stroke="currentColor" stroke-linecap="round" stroke-linejoin="round" stroke-width="2"/>
  <path d="M18.3334 17.9169C18.2367 15.8132 18.3224 15.0478 16.9532 14.0661 16.2802 13.5836 14.9263 13.2657 13.0981 13.4373M14.5432 11.3273L12.6293 13.122C12.4676 13.2838 12.4664 13.5468 12.6266 13.7101L14.5432 15.5334" stroke="currentColor" stroke-linecap="round" stroke-linejoin="round" stroke-width="2"/>
</svg>
