<svg xmlns="http://www.w3.org/2000/svg" width="20" height="20" viewBox="0 0 20 20" fill="none">
  <path d="M5.8333 6.25L8.285 7.6995C9.7143 8.5446 10.2857 8.5446 11.715 7.6995L14.1667 6.25" stroke="currentColor" stroke-linecap="round" stroke-linejoin="round" stroke-width="2"/>
  <path d="M9.5833 16.2466C9.1948 16.2415 7.9724 16.2564 7.5824 16.2466 4.9586 16.1805 3.6467 16.1475 2.7041 15.1995 1.7615 14.2515 1.7343 12.9718 1.6798 10.4123 1.6623 9.5892 1.6623 8.7712 1.6798 7.9482 1.7343 5.3887 1.7615 4.1089 2.7041 3.1609 3.6467 2.2129 4.9586 2.1799 7.5823 2.1139 9.1994 2.0732 10.8006 2.0732 12.4177 2.1139 15.0414 2.1799 16.3532 2.2129 17.2958 3.1609 18.2385 4.1089 18.2658 5.3887 18.3202 7.9482 18.3319 8.4977 18.3358 9.0452 18.3318 9.5933" stroke="currentColor" stroke-linecap="round" stroke-linejoin="round" stroke-width="2"/>
  <path d="M12.5125 12.4055C13.4063 11.8724 14.1865 12.0873 14.6553 12.4294 14.8474 12.5698 14.9435 12.6399 15 12.6399 15.0565 12.6399 15.1526 12.5698 15.3447 12.4294 15.8135 12.0873 16.5937 11.8724 17.4875 12.4055 18.6607 13.1051 18.9261 15.4132 16.2202 17.3603 15.7048 17.7312 15.4471 17.9167 15 17.9167 14.5529 17.9167 14.2952 17.7312 13.7798 17.3603 11.0739 15.4132 11.3393 13.1051 12.5125 12.4055Z" stroke="currentColor" stroke-linecap="round" stroke-width="2"/>
</svg>
