<svg xmlns="http://www.w3.org/2000/svg" width="20" height="20" viewBox="0 0 20 20" fill="none">
  <path d="M5.8353 6.4583L8.287 7.9079C9.7163 8.7529 10.2876 8.7529 11.7169 7.9079L14.1686 6.4583" stroke="currentColor" stroke-linecap="round" stroke-linejoin="round" stroke-width="2"/>
  <path d="M18.3314 8.9583V8.1487C18.2769 5.5926 18.2497 4.3146 17.3066 3.3678 16.3634 2.4211 15.0508 2.3881 12.4256 2.3222 10.8077 2.2815 9.2056 2.2815 7.5876 2.3222 4.9624 2.3881 3.6498 2.4211 2.7067 3.3678 1.7635 4.3146 1.7363 5.5926 1.6818 8.1487 1.6642 8.9706 1.6642 9.7876 1.6818 10.6095 1.7363 13.1656 1.7635 14.4436 2.7067 15.3903 3.6498 16.3371 4.9624 16.3701 7.5876 16.436 7.9778 16.4458 8.7798 16.4533 9.1687 16.4583" stroke="currentColor" stroke-linecap="round" stroke-linejoin="round" stroke-width="2"/>
  <path d="M17.3788 11.4078L17.9558 11.9848C18.4439 12.4729 18.4439 13.2643 17.9558 13.7525L14.933 16.8322C14.6952 17.07 14.391 17.2303 14.0604 17.2921L12.187 17.6988C11.8912 17.763 11.6278 17.5003 11.6912 17.2043L12.0899 15.3416C12.1517 15.011 12.3119 14.7068 12.5497 14.4691L15.6111 11.4078C16.0993 10.9197 16.8907 10.9197 17.3788 11.4078Z" stroke="currentColor" stroke-linecap="round" stroke-linejoin="round" stroke-width="2"/>
</svg>
