<svg xmlns="http://www.w3.org/2000/svg" width="20" height="20" viewBox="0 0 20 20" fill="none">
  <path d="M1.6667 3.75L7.4275 7.0141C9.5513 8.2175 10.4487 8.2175 12.5725 7.0141L18.3333 3.75" stroke="currentColor" stroke-linejoin="round" stroke-width="2"/>
  <path d="M12.5 14.5833C12.5 14.5833 12.9167 14.5833 13.3333 15.4167 13.3333 15.4167 14.6568 13.3333 15.8333 12.9167" stroke="currentColor" stroke-linecap="round" stroke-linejoin="round" stroke-width="2"/>
  <path d="M18.3333 14.1667C18.3333 16.4678 16.4678 18.3333 14.1667 18.3333 11.8655 18.3333 10 16.4678 10 14.1667 10 11.8655 11.8655 10 14.1667 10 16.4678 10 18.3333 11.8655 18.3333 14.1667Z" stroke="currentColor" stroke-linecap="round" stroke-width="2"/>
  <path d="M7.5854 1.6972L7.6011 2.322 7.5854 1.6972ZM1.6798 7.5329L2.3047 7.5462 1.6798 7.5329ZM12.4232 1.6972L12.4389 1.0724 12.4232 1.6972ZM18.3287 7.5329L18.9537 7.5196 18.3287 7.5329ZM7.5697 16.4582C7.9148 16.4668 8.2015 16.1942 8.2102 15.8491 8.2189 15.504 7.9462 15.2172 7.6011 15.2085L7.5697 16.4582ZM1.6798 9.9976L2.3047 9.9843 1.6798 9.9976ZM17.7038 8.7567C17.6991 9.1018 17.9751 9.3855 18.3202 9.3902 18.6653 9.3949 18.949 9.119 18.9537 8.7738L17.7038 8.7567ZM7.6011 2.322C9.2085 2.2816 10.8 2.2816 12.4074 2.322L12.4389 1.0724C10.8105 1.0314 9.1981 1.0314 7.5697 1.0724L7.6011 2.322ZM1.055 7.5196C1.0372 8.3517 1.0372 9.1788 1.055 10.0109L2.3047 9.9843C2.2873 9.17 2.2873 8.3606 2.3047 7.5462L1.055 7.5196ZM7.5697 1.0724C6.2758 1.105 5.2372 1.1295 4.4069 1.2743 3.5484 1.4241 2.8508 1.7113 2.2615 2.3038L3.1478 3.1853C3.5017 2.8295 3.9319 2.6261 4.6217 2.5057 5.3397 2.3805 6.2699 2.3555 7.6011 2.322L7.5697 1.0724ZM2.3047 7.5462C2.3323 6.2472 2.3532 5.3424 2.4748 4.641 2.5913 3.9694 2.7914 3.5436 3.1478 3.1853L2.2615 2.3038C1.6748 2.8937 1.3898 3.5821 1.2432 4.4275 1.1018 5.2433 1.0818 6.2585 1.055 7.5196L2.3047 7.5462ZM12.4074 2.322C13.7387 2.3555 14.6689 2.3805 15.3869 2.5058 16.0768 2.6261 16.5069 2.8295 16.8608 3.1853L17.7471 2.3038C17.1578 1.7113 16.4602 1.4241 15.6017 1.2744 14.7714 1.1295 13.7327 1.105 12.4389 1.0724L12.4074 2.322ZM18.9537 7.5196C18.9268 6.2585 18.9068 5.2433 18.7653 4.4275 18.6188 3.5821 18.3337 2.8937 17.7471 2.3038L16.8608 3.1853C17.2172 3.5436 17.4173 3.9694 17.5338 4.641 17.6553 5.3424 17.6763 6.2473 17.7039 7.5463L18.9537 7.5196ZM7.6011 15.2085C6.2699 15.175 5.3397 15.15 4.6217 15.0247 3.9319 14.9044 3.5017 14.7011 3.1478 14.3453L2.2615 15.2267C2.8508 15.8192 3.5484 16.1064 4.4069 16.2562 5.2372 16.401 6.2758 16.4256 7.5697 16.4582L7.6011 15.2085ZM1.055 10.0109C1.0818 11.272 1.1018 12.2873 1.2432 13.103 1.3898 13.9485 1.6748 14.6368 2.2615 15.2267L3.1478 14.3453C2.7914 13.9869 2.5913 13.5612 2.4748 12.8895 2.3532 12.1882 2.3323 11.2833 2.3047 9.9843L1.055 10.0109ZM18.3287 8.7652C18.9537 8.7738 18.9537 8.7738 18.9537 8.7738 18.9537 8.7738 18.9537 8.7737 18.9537 8.7737 18.9537 8.7737 18.9537 8.7737 18.9537 8.7737 18.9537 8.7735 18.9537 8.7733 18.9537 8.7732 18.9537 8.7728 18.9537 8.7722 18.9537 8.7714 18.9537 8.7699 18.9537 8.7678 18.9538 8.7648 18.9539 8.7591 18.954 8.7506 18.9542 8.7398 18.9544 8.7179 18.9548 8.6863 18.9552 8.647 18.956 8.5684 18.957 8.4585 18.9576 8.3333 18.9589 8.0845 18.9589 7.7696 18.9537 7.5196L17.7039 7.5463C17.7088 7.7789 17.7089 8.0801 17.7077 8.3268 17.707 8.4494 17.706 8.5571 17.7053 8.6342 17.7048 8.6726 17.7045 8.7034 17.7043 8.7245 17.7041 8.7351 17.704 8.7432 17.7039 8.7486 17.7039 8.7513 17.7038 8.7534 17.7038 8.7547 17.7038 8.7554 17.7038 8.7559 17.7038 8.7563 17.7038 8.7564 17.7038 8.7566 17.7038 8.7566 17.7038 8.7567 17.7038 8.7567 17.7038 8.7567 17.7038 8.7567 17.7038 8.7567 17.7038 8.7567 17.7038 8.7567 17.7038 8.7567 18.3287 8.7652Z" fill="currentColor"/>
</svg>
