<svg xmlns="http://www.w3.org/2000/svg" width="20" height="20" viewBox="0 0 20 20" fill="none">
  <path d="M9.5833 17.0824C8.9176 17.0795 8.2513 17.0697 7.5824 17.0528 4.9586 16.9869 3.6467 16.954 2.7041 16.0078 1.7615 15.0616 1.7343 13.7843 1.6798 11.2297 1.6623 10.4083 1.6623 9.5917 1.6798 8.7703 1.7343 6.2157 1.7615 4.9384 2.7041 3.9922 3.6467 3.046 4.9586 3.0131 7.5823 2.9471 9.1994 2.9065 10.8006 2.9065 12.4177 2.9471 15.0414 3.0131 16.3532 3.046 17.2959 3.9922 18.2385 4.9384 18.2658 6.2157 18.3202 8.7703 18.3349 9.4595 18.3373 10.1453 18.3273 10.8334" stroke="currentColor" stroke-linecap="round" stroke-linejoin="round" stroke-width="2"/>
  <path d="M5.8333 7.0833L8.285 8.5328C9.7143 9.3779 10.2857 9.3779 11.715 8.5328L14.1667 7.0833" stroke="currentColor" stroke-linecap="round" stroke-linejoin="round" stroke-width="2"/>
  <path d="M11.6667 14.5833H18.3333" stroke="currentColor" stroke-linecap="round" stroke-linejoin="round" stroke-width="2"/>
</svg>
