<svg xmlns="http://www.w3.org/2000/svg" width="20" height="20" viewBox="0 0 20 20" fill="none">
  <path d="M5.7601 5.6982L8.2118 7.1478C9.6411 7.9928 10.2124 7.9928 11.6418 7.1478L14.0934 5.6982" stroke="currentColor" stroke-linecap="round" stroke-linejoin="round" stroke-width="2"/>
  <path d="M12.4268 14.4483C12.4268 14.4483 12.8434 14.4483 13.2601 15.2816 13.2601 15.2816 14.5836 13.1982 15.7601 12.7816" stroke="currentColor" stroke-linecap="round" stroke-linejoin="round" stroke-width="2"/>
  <path d="M18.3333 8.5932L18.2991 5.3652C18.2898 4.1357 17.626 1.6766 15.0449 1.6766H5.0877C3.9474 1.5928 1.6667 1.956 1.6667 5.9519V11.8762C1.6667 12.8933 1.8936 14.2625 3.009 15.0879 3.7298 15.6213 4.676 15.6707 5.5701 15.715L7.4426 15.8077" stroke="currentColor" stroke-linecap="round" stroke-linejoin="round" stroke-width="2"/>
  <path d="M18.3174 14.1323C18.3174 16.4522 16.4455 18.3329 14.1363 18.3329 11.8272 18.3329 9.9553 16.4522 9.9553 14.1323 9.9553 11.8123 11.8272 9.9317 14.1363 9.9317 16.4455 9.9317 18.3174 11.8123 18.3174 14.1323Z" stroke="currentColor" stroke-linecap="round" stroke-width="2"/>
</svg>
