<svg xmlns="http://www.w3.org/2000/svg" width="20" height="20" viewBox="0 0 20 20" fill="none">
  <path d="M1.6667 4.1667L7.4275 7.4372C9.5323 8.6321 10.4678 8.6321 12.5725 7.4372L18.3333 4.1667" stroke="currentColor" stroke-linejoin="round" stroke-width="2"/>
  <path d="M18.33 8.752C18.3278 8.4464 18.3245 8.1418 18.3202 7.9388 18.2658 5.3834 18.2385 4.1057 17.2959 3.1592 16.3532 2.2127 15.0414 2.1798 12.4177 2.1138 10.8006 2.0732 9.1994 2.0732 7.5823 2.1138 4.9586 2.1797 3.6467 2.2127 2.7041 3.1592 1.7615 4.1057 1.7343 5.3834 1.6798 7.9387 1.6623 8.7604 1.6623 9.5772 1.6798 10.3988 1.7343 12.9543 1.7615 14.2319 2.7041 15.1784 3.6467 16.1248 4.9586 16.1578 7.5824 16.2237 8.089 16.2365 8.7464 16.2452 9.1667 16.25" stroke="currentColor" stroke-linecap="round" stroke-linejoin="round" stroke-width="2"/>
  <path d="M12.9883 15.5402C12.4643 15.8473 11.0905 16.4744 11.9273 17.2592 12.336 17.6425 12.7913 17.9167 13.3637 17.9167H16.6297C17.202 17.9167 17.6573 17.6425 18.066 17.2592 18.9028 16.4744 17.5289 15.8473 17.0049 15.5402 15.7762 14.8199 14.2171 14.8199 12.9883 15.5402Z" stroke="currentColor" stroke-width="2"/>
  <path d="M16.6633 11.6667C16.6633 12.5872 15.9171 13.3333 14.9967 13.3333 14.0762 13.3333 13.33 12.5872 13.33 11.6667 13.33 10.7462 14.0762 10 14.9967 10 15.9171 10 16.6633 10.7462 16.6633 11.6667Z" stroke="currentColor" stroke-width="2"/>
</svg>
