<svg xmlns="http://www.w3.org/2000/svg" width="20" height="20" viewBox="0 0 20 20" fill="none">
  <path d="M5.8333 6.25L8.285 7.6995C9.7143 8.5446 10.2857 8.5446 11.715 7.6995L14.1667 6.25" stroke="currentColor" stroke-linecap="round" stroke-linejoin="round" stroke-width="2"/>
  <path d="M18.3273 9.1667C18.3373 8.4786 18.3349 8.6262 18.3202 7.937 18.2658 5.3824 18.2385 4.1051 17.2959 3.1589 16.3532 2.2127 15.0414 2.1797 12.4177 2.1138 10.8006 2.0732 9.1994 2.0732 7.5823 2.1138 4.9586 2.1797 3.6467 2.2127 2.7041 3.1589 1.7615 4.1051 1.7343 5.3824 1.6798 7.937 1.6623 8.7584 1.6623 9.5749 1.6798 10.3963 1.7343 12.951 1.7615 14.2282 2.7041 15.1745 3.6467 16.1207 4.9586 16.1536 7.5824 16.2195 8.3909 16.2398 9.1954 16.25 10 16.25" stroke="currentColor" stroke-linecap="round" stroke-linejoin="round" stroke-width="2"/>
  <path d="M12.5 12.0833L15.4167 15M15.4167 15L18.3333 17.9167M15.4167 15L12.5 17.9167M15.4167 15L18.3333 12.0833" stroke="currentColor" stroke-linecap="round" stroke-linejoin="round" stroke-width="2"/>
</svg>
