<svg xmlns="http://www.w3.org/2000/svg" width="20" height="20" viewBox="0 0 20 20" fill="none">
  <path d="M1.6667 4.1667L7.4275 7.4308C9.5513 8.6342 10.4487 8.6342 12.5725 7.4308L18.3333 4.1667" stroke="currentColor" stroke-linejoin="round" stroke-width="2"/>
  <path d="M10 16.25C9.1954 16.25 8.3909 16.2398 7.5824 16.2195 4.9586 16.1536 3.6467 16.1207 2.7041 15.1745 1.7615 14.2282 1.7343 12.951 1.6798 10.3963 1.6623 9.5749 1.6623 8.7584 1.6798 7.937 1.7343 5.3824 1.7615 4.1051 2.7041 3.1589 3.6467 2.2127 4.9586 2.1797 7.5823 2.1138 9.1994 2.0732 10.8006 2.0732 12.4177 2.1138 15.0414 2.1797 16.3532 2.2127 17.2959 3.1589 18.2385 4.1051 18.2658 5.3824 18.3202 7.937 18.3289 8.3477 18.3333 8.3405 18.3333 8.75" stroke="currentColor" stroke-linecap="round" stroke-linejoin="round" stroke-width="2"/>
  <path d="M13.776 13.2167V12.0436C13.776 11.1451 14.5106 10.4167 15.4167 10.4167 15.8239 10.4167 16.1966 10.5638 16.4834 10.8075M14.8698 17.9167H15.9635C16.8148 17.9167 17.2403 17.9167 17.5624 17.7459 17.8168 17.6111 18.0252 17.4045 18.1612 17.1522 18.3333 16.8328 18.3333 16.4108 18.3333 15.5667 18.3333 14.7226 18.3333 14.3006 18.1612 13.9811 18.0252 13.7288 17.8168 13.5223 17.5624 13.3874 17.2403 13.2167 16.8148 13.2167 15.9635 13.2167H14.8698C14.0186 13.2167 13.593 13.2167 13.2709 13.3874 13.0165 13.5223 12.8082 13.7288 12.6722 13.9811 12.5 14.3006 12.5 14.7226 12.5 15.5667 12.5 16.4108 12.5 16.8328 12.6722 17.1522 12.8082 17.4045 13.0165 17.6111 13.2709 17.7459 13.593 17.9167 14.0186 17.9167 14.8698 17.9167Z" stroke="currentColor" stroke-linecap="round" stroke-width="2"/>
</svg>
