<svg xmlns="http://www.w3.org/2000/svg" width="20" height="20" viewBox="0 0 20 20" fill="none">
  <path d="M1.6667 4.5833L7.4275 7.8474C9.5513 9.0508 10.4487 9.0508 12.5725 7.8474L18.3333 4.5833" stroke="currentColor" stroke-linejoin="round" stroke-width="2"/>
  <path d="M18.3294 8.3569C18.2749 5.8009 18.2477 4.5229 17.3046 3.5761 16.3614 2.6294 15.0488 2.5964 12.4236 2.5304 10.8057 2.4898 9.2036 2.4898 7.5856 2.5304 4.9604 2.5964 3.6478 2.6294 2.7047 3.5761 1.7616 4.5229 1.7343 5.8009 1.6798 8.3569 1.6623 9.1788 1.6623 9.9958 1.6798 10.8178 1.7343 13.3738 1.7616 14.6518 2.7047 15.5986 3.6478 16.5453 4.9604 16.5783 7.5856 16.6442 7.9759 16.6541 8.3652 16.6615 8.7539 16.6666" stroke="currentColor" stroke-linecap="round" stroke-linejoin="round" stroke-width="2"/>
  <path d="M17.3768 11.1993L17.9538 11.7763C18.442 12.2643 18.442 13.0558 17.9538 13.544L14.931 16.6237C14.6933 16.8615 14.3891 17.0218 14.0585 17.0835L12.185 17.4902C11.8893 17.5544 11.6258 17.2918 11.6892 16.9958L12.088 15.1331C12.1497 14.8025 12.31 14.4983 12.5478 14.2605L15.6091 11.1993C16.0973 10.7111 16.8888 10.7111 17.3768 11.1993Z" stroke="currentColor" stroke-linecap="round" stroke-linejoin="round" stroke-width="2"/>
</svg>
