<svg xmlns="http://www.w3.org/2000/svg" width="20" height="20" viewBox="0 0 20 20" fill="none">
  <path d="M5.8333 6.25L8.285 7.6995C9.7143 8.5446 10.2857 8.5446 11.715 7.6995L14.1667 6.25" stroke="currentColor" stroke-linecap="round" stroke-linejoin="round" stroke-width="2"/>
  <path d="M10 16.25C9.1954 16.25 8.3909 16.2398 7.5824 16.2195 4.9586 16.1536 3.6467 16.1207 2.7041 15.1745 1.7615 14.2282 1.7343 12.951 1.6798 10.3963 1.6623 9.5749 1.6623 8.7584 1.6798 7.937 1.7343 5.3824 1.7615 4.1051 2.7041 3.1589 3.6467 2.2127 4.9586 2.1797 7.5823 2.1138 9.1994 2.0732 10.8006 2.0732 12.4177 2.1138 15.0414 2.1797 16.3532 2.2127 17.2959 3.1589 18.2385 4.1051 18.2658 5.3824 18.3202 7.937 18.3289 8.3477 18.3333 8.3405 18.3333 8.75" stroke="currentColor" stroke-linecap="round" stroke-linejoin="round" stroke-width="2"/>
  <path d="M13.9495 13.0642L13.9495 11.9057C13.9495 11.7345 13.9566 11.5613 14.018 11.4014 14.1812 10.976 14.6138 10.4187 15.4013 10.4187 16.1887 10.4187 16.6383 10.976 16.8015 11.4014 16.8628 11.5613 16.87 11.7345 16.87 11.9057L16.87 13.0642M14.0074 17.9167H16.8291C17.6598 17.9167 18.3332 17.2445 18.3332 16.4153V14.7476C18.3332 13.9184 17.6598 13.2462 16.8291 13.2462H14.0074C13.1767 13.2462 12.5032 13.9184 12.5032 14.7476V16.4153C12.5032 17.2445 13.1767 17.9167 14.0074 17.9167Z" stroke="currentColor" stroke-linecap="round" stroke-linejoin="round" stroke-width="2"/>
</svg>
