<svg xmlns="http://www.w3.org/2000/svg" width="20" height="20" viewBox="0 0 20 20" fill="none">
  <path d="M1.6667 4.1667L7.4275 7.4308C9.5513 8.6342 10.4487 8.6342 12.5725 7.4308L18.3333 4.1667" stroke="currentColor" stroke-linejoin="round" stroke-width="2"/>
  <path d="M9.9952 16.2462C9.191 16.2462 8.387 16.236 7.5789 16.2157 4.9567 16.1498 3.6456 16.1169 2.7035 15.171 1.7615 14.225 1.7342 12.9481 1.6798 10.3941 1.6623 9.5729 1.6623 8.7566 1.6798 7.9354 1.7342 5.3815 1.7615 4.1045 2.7035 3.1586 3.6456 2.2126 4.9567 2.1797 7.5789 2.1138 9.195 2.0732 10.7953 2.0732 12.4114 2.1138 15.0337 2.1797 16.3447 2.2127 17.2868 3.1586 18.2288 4.1045 18.2561 5.3815 18.3105 7.9354 18.3193 8.346 18.3237 8.3388 18.3237 8.7482" stroke="currentColor" stroke-linecap="round" stroke-linejoin="round" stroke-width="2"/>
  <path d="M13.9495 13.0647L13.9495 11.906C13.9495 11.7349 13.9566 11.5617 14.018 11.4018 14.1812 10.9764 14.6138 10.4191 15.4013 10.4191 16.1887 10.4191 16.6383 10.9764 16.8015 11.4018 16.8628 11.5617 16.87 11.7349 16.87 11.906L16.87 13.0647M14.0074 17.9171H16.8291C17.6598 17.9171 18.3332 17.2449 18.3332 16.4157V14.748C18.3332 13.9188 17.6598 13.2467 16.8291 13.2467H14.0074C13.1767 13.2467 12.5032 13.9188 12.5032 14.748V16.4157C12.5032 17.2449 13.1767 17.9171 14.0074 17.9171Z" stroke="currentColor" stroke-linecap="round" stroke-linejoin="round" stroke-width="2"/>
</svg>
