<svg xmlns="http://www.w3.org/2000/svg" width="20" height="20" viewBox="0 0 20 20" fill="none">
  <path d="M18.3332 9.1883C18.3332 8.7775 18.3288 8.3668 18.3201 7.9549 18.2657 5.3924 18.2384 4.1112 17.2958 3.1621 16.3532 2.213 15.0413 2.18 12.4176 2.1139 10.8005 2.0731 9.1993 2.0731 7.5823 2.1138 4.9585 2.18 3.6466 2.213 2.704 3.1621 1.7614 4.1112 1.7342 5.3924 1.6797 7.9549 1.6622 8.7788 1.6622 9.5978 1.6797 10.4218 1.7342 12.9842 1.7614 14.2654 2.704 15.2145 3.5849 16.1014 4.7882 16.1883 7.0832 16.2499" stroke="currentColor" stroke-linecap="round" stroke-linejoin="round" stroke-width="2"/>
  <path d="M1.6666 4.1666L7.4274 7.4371C9.5322 8.632 10.4677 8.632 12.5724 7.4371L18.3332 4.1666" stroke="currentColor" stroke-linejoin="round" stroke-width="2"/>
  <path d="M11.2499 15.4166C10.8285 15.007 9.1666 13.9168 9.1666 13.3333 9.1666 12.7498 10.8285 11.6595 11.2499 11.2499" stroke="currentColor" stroke-linecap="round" stroke-linejoin="round" stroke-width="2"/>
  <path d="M18.3334 17.9169C18.2367 15.8131 18.3224 15.0478 16.9532 14.066 16.2802 13.5835 14.9263 13.2657 13.0981 13.4373M14.5432 11.3273L12.6293 13.1219C12.4676 13.2838 12.4664 13.5467 12.6266 13.71L14.5432 15.5334" stroke="currentColor" stroke-linecap="round" stroke-linejoin="round" stroke-width="2"/>
</svg>
