<svg xmlns="http://www.w3.org/2000/svg" width="20" height="20" viewBox="0 0 20 20" fill="none">
  <path d="M18.3318 9.5833C18.3358 9.0348 18.3319 8.9037 18.3202 8.3537 18.2658 5.7991 18.2385 4.5217 17.2959 3.5756 16.3532 2.6294 15.0414 2.5964 12.4177 2.5305 10.8006 2.4898 9.1994 2.4898 7.5823 2.5305 4.9586 2.5964 3.6467 2.6293 2.7041 3.5755 1.7615 4.5217 1.7343 5.799 1.6798 8.3537 1.6623 9.1751 1.6623 9.9916 1.6798 10.813 1.7343 13.3677 1.7615 14.6449 2.7041 15.5912 3.6467 16.5373 4.9586 16.5703 7.5824 16.6362 8.67 16.6635 9.3338 16.6725 10.4167 16.6631" stroke="currentColor" stroke-linecap="round" stroke-linejoin="round" stroke-width="2"/>
  <path d="M5.8333 6.6667L8.285 8.1162C9.7143 8.9613 10.2857 8.9613 11.715 8.1162L14.1667 6.6667" stroke="currentColor" stroke-linecap="round" stroke-linejoin="round" stroke-width="2"/>
  <path d="M13.3754 12.5C12.8352 13.0294 12.5 13.7673 12.5 14.5833 12.5 16.1942 13.8058 17.5 15.4167 17.5 16.2327 17.5 16.9706 17.1648 17.5 16.6246M13.3754 12.5C13.9015 11.9845 14.6219 11.6667 15.4167 11.6667 17.0275 11.6667 18.3333 12.9725 18.3333 14.5833 18.3333 15.3781 18.0155 16.0985 17.5 16.6246M13.3754 12.5L17.5 16.6246" stroke="currentColor" stroke-width="2"/>
</svg>
