<svg xmlns="http://www.w3.org/2000/svg" width="20" height="20" viewBox="0 0 20 20" fill="none">
  <path d="M9.1667 16.2195C8.5009 16.2166 8.2513 16.2363 7.5824 16.2195 4.9586 16.1536 3.6467 16.1207 2.7041 15.1744 1.7615 14.2282 1.7343 12.9509 1.6798 10.3963 1.6623 9.5749 1.6623 8.7583 1.6798 7.937 1.7343 5.3824 1.7615 4.105 2.7041 3.1589 3.6467 2.2127 4.9586 2.1797 7.5823 2.1138 9.1994 2.0732 10.8006 2.0732 12.4177 2.1138 15.0414 2.1797 16.3532 2.2127 17.2959 3.1589 18.2385 4.1051 18.2658 5.3824 18.3202 7.937 18.3319 8.4858 18.3333 9.0345 18.3333 9.5833" stroke="currentColor" stroke-linecap="round" stroke-linejoin="round" stroke-width="2"/>
  <path d="M1.6667 4.1667L7.4275 7.4372C9.5323 8.6321 10.4678 8.6321 12.5725 7.4372L18.3333 4.1667" stroke="currentColor" stroke-linejoin="round" stroke-width="2"/>
  <path d="M16.6808 16.2694L18.3333 17.9167M17.5443 14.1887C17.5443 12.5658 16.2285 11.25 14.6054 11.25 12.9824 11.25 11.6667 12.5658 11.6667 14.1887 11.6667 15.8118 12.9824 17.1276 14.6054 17.1276 16.2285 17.1276 17.5443 15.8118 17.5443 14.1887Z" stroke="currentColor" stroke-linecap="round" stroke-linejoin="round" stroke-width="2"/>
</svg>
