<svg xmlns="http://www.w3.org/2000/svg" width="20" height="20" viewBox="0 0 20 20" fill="none">
  <path d="M1.6667 5L7.4275 8.2641C9.5513 9.4675 10.4487 9.4675 12.5725 8.2641L18.3333 5" stroke="currentColor" stroke-linejoin="round" stroke-width="2"/>
  <path d="M1.6798 11.2297C1.7343 13.7843 1.7615 15.0616 2.7041 16.0078 3.6467 16.954 4.9586 16.9869 7.5824 17.0528 9.1994 17.0935 10.8006 17.0935 12.4177 17.0528 15.0414 16.9869 16.3532 16.954 17.2959 16.0078 18.2385 15.0616 18.2658 13.7843 18.3202 11.2297 18.3377 10.4083 18.3377 9.5917 18.3202 8.7703 18.2658 6.2157 18.2385 4.9384 17.2959 3.9922 16.3532 3.046 15.0414 3.0131 12.4177 2.9471 10.8006 2.9065 9.1994 2.9065 7.5823 2.9471 4.9586 3.0131 3.6467 3.046 2.7041 3.9922 1.7615 4.9384 1.7343 6.2157 1.6798 8.7703 1.6623 9.5917 1.6623 10.4083 1.6798 11.2297Z" stroke="currentColor" stroke-linejoin="round" stroke-width="2"/>
</svg>
