<svg xmlns="http://www.w3.org/2000/svg" width="20" height="20" viewBox="0 0 20 20" fill="none">
  <path d="M5.8333 6.25L8.285 7.6995C9.7143 8.5446 10.2857 8.5446 11.715 7.6995L14.1667 6.25" stroke="currentColor" stroke-linecap="round" stroke-linejoin="round" stroke-width="2"/>
  <path d="M9.5833 16.25C9.5833 16.25 8.3909 16.2398 7.5824 16.2195 4.9586 16.1536 3.6467 16.1207 2.7041 15.1745 1.7615 14.2282 1.7343 12.951 1.6798 10.3963 1.6623 9.5749 1.6623 8.7584 1.6798 7.937 1.7343 5.3824 1.7615 4.1051 2.7041 3.1589 3.6467 2.2127 4.9586 2.1797 7.5823 2.1138 9.1994 2.0732 10.8006 2.0732 12.4177 2.1138 15.0414 2.1797 16.3532 2.2127 17.2959 3.1589 18.2385 4.1051 18.2658 5.3824 18.3202 7.937 18.3265 8.2344 18.3306 8.7496 18.3323 9.1667" stroke="currentColor" stroke-linecap="round" stroke-linejoin="round" stroke-width="2"/>
  <path d="M11.6667 14.5833H18.3333M15 17.9167L15 11.25" stroke="currentColor" stroke-linecap="round" stroke-linejoin="round" stroke-width="2"/>
</svg>
