<svg xmlns="http://www.w3.org/2000/svg" width="20" height="20" viewBox="0 0 20 20" fill="none">
  <path d="M5.8333 6.25L8.285 7.6995C9.7143 8.5446 10.2857 8.5446 11.715 7.6995L14.1667 6.25" stroke="currentColor" stroke-linecap="round" stroke-linejoin="round" stroke-width="2"/>
  <path d="M10.4167 16.25C10.4167 16.25 8.3909 16.2398 7.5824 16.2195 4.9586 16.1536 3.6467 16.1207 2.7041 15.1745 1.7615 14.2282 1.7343 12.951 1.6798 10.3963 1.6623 9.5749 1.6623 8.7584 1.6798 7.937 1.7343 5.3824 1.7615 4.1051 2.7041 3.1589 3.6467 2.2127 4.9586 2.1797 7.5823 2.1138 9.1994 2.0732 10.8006 2.0732 12.4177 2.1138 15.0414 2.1797 16.3532 2.2127 17.2959 3.1589 18.2385 4.1051 18.2658 5.3824 18.3202 7.937 18.3289 8.3477 18.3333 9.1738 18.3333 9.5833" stroke="currentColor" stroke-linecap="round" stroke-linejoin="round" stroke-width="2"/>
  <path d="M18.3333 14.1667V12.0833C16.6667 12.0833 15.4167 11.25 15.4167 11.25 15.4167 11.25 14.1667 12.0833 12.5 12.0833V14.1667C12.5 17.0833 15.4167 17.9167 15.4167 17.9167 15.4167 17.9167 18.3333 17.0833 18.3333 14.1667Z" stroke="currentColor" stroke-linecap="round" stroke-linejoin="round" stroke-width="2"/>
</svg>
