<svg xmlns="http://www.w3.org/2000/svg" width="20" height="20" viewBox="0 0 20 20" fill="none">
  <path d="M1.6666 4.1666L7.4274 7.4371C9.5322 8.632 10.4677 8.632 12.5724 7.4371L18.3332 4.1666" stroke="currentColor" stroke-linejoin="round" stroke-width="2"/>
  <path d="M18.2661 9.1944C18.2661 8.7833 18.2618 8.3722 18.253 7.9599 18.1988 5.3953 18.1717 4.113 17.2329 3.1631 16.294 2.2132 14.9875 2.1801 12.3742 2.1139 10.7637 2.0731 9.169 2.0731 7.5584 2.1139 4.9453 2.18 3.6387 2.2131 2.6999 3.163 1.761 4.1129 1.7339 5.3953 1.6797 7.9599 1.6622 8.7846 1.6622 9.6043 1.6797 10.4289 1.7339 12.9936 1.7611 14.2758 2.6999 15.2258 3.6387 16.1757 4.9453 16.2088 7.5584 16.2749 8.3638 16.2953 9.165 16.3055 9.9663 16.3055" stroke="currentColor" stroke-linecap="round" stroke-linejoin="round" stroke-width="2"/>
  <path d="M18.3334 17.9169C18.2367 15.8131 18.3224 15.0478 16.9532 14.066 16.2802 13.5835 14.9263 13.2657 13.0981 13.4373M14.5432 11.3273L12.6293 13.1219C12.4676 13.2838 12.4664 13.5467 12.6266 13.71L14.5432 15.5334" stroke="currentColor" stroke-linecap="round" stroke-linejoin="round" stroke-width="2"/>
</svg>
