<svg xmlns="http://www.w3.org/2000/svg" width="20" height="20" viewBox="0 0 20 20" fill="none">
  <path d="M1.6667 4.1667L7.4275 7.4372C9.5323 8.6321 10.4678 8.6321 12.5725 7.4372L18.3333 4.1667" stroke="currentColor" stroke-linejoin="round" stroke-width="2"/>
  <path d="M9.1671 16.241C9.1671 16.241 8.3913 16.2613 7.5827 16.241 4.9588 16.1749 3.6469 16.1419 2.7042 15.1943 1.7615 14.2467 1.7343 12.9674 1.6798 10.4089 1.6623 9.5863 1.6623 8.7685 1.6798 7.9459 1.7343 5.3874 1.7615 4.1081 2.7042 3.1605 3.6469 2.2129 4.9588 2.1799 7.5827 2.1139 9.1999 2.0732 10.8012 2.0732 12.4183 2.1139 15.0422 2.1799 16.3542 2.2129 17.2968 3.1605 18.2395 4.1081 18.2668 5.3874 18.3212 7.9459 18.3275 8.2437 18.3316 8.7597 18.3333 9.1774" stroke="currentColor" stroke-linecap="round" stroke-linejoin="round" stroke-width="2"/>
  <path d="M15 16.8453V17.9167M15 16.8453C14.036 16.8453 13.1867 16.3718 12.6886 15.6528M15 16.8453C15.964 16.8453 16.8133 16.3718 17.3114 15.6528M15 11.4881C15.9641 11.4881 16.8134 11.9617 17.3115 12.6808M15 11.4881C14.0359 11.4881 13.1866 11.9617 12.6885 12.6808M15 11.4881V10.4167M18.3333 12.0238L17.3115 12.6808M11.667 16.3095L12.6886 15.6528M11.6667 12.0238L12.6885 12.6808M18.333 16.3095L17.3114 15.6528M17.3115 12.6808C17.6061 13.1059 17.7778 13.6169 17.7778 14.1667 17.7778 14.7164 17.606 15.2275 17.3114 15.6528M12.6885 12.6808C12.3939 13.1059 12.2223 13.6169 12.2223 14.1667 12.2223 14.7164 12.394 15.2275 12.6886 15.6528" stroke="currentColor" stroke-linecap="round" stroke-width="2"/>
</svg>
