<svg xmlns="http://www.w3.org/2000/svg" width="20" height="20" viewBox="0 0 20 20" fill="none">
  <path d="M11.25 16.2418C10.0273 16.2578 8.8094 16.2503 7.5824 16.2195 4.9586 16.1536 3.6467 16.1207 2.7041 15.1744 1.7615 14.2282 1.7343 12.9509 1.6798 10.3963 1.6623 9.5749 1.6623 8.7583 1.6798 7.937 1.7343 5.3824 1.7615 4.105 2.7041 3.1589 3.6467 2.2127 4.9586 2.1797 7.5823 2.1138 9.1994 2.0732 10.8006 2.0732 12.4177 2.1138 15.0414 2.1797 16.3532 2.2127 17.2959 3.1589 18.2385 4.1051 18.2658 5.3824 18.3202 7.937 18.3289 8.3477 18.3333 8.7572 18.3333 9.1667" stroke="currentColor" stroke-linecap="round" stroke-linejoin="round" stroke-width="2"/>
  <path d="M1.6667 4.1667L7.4275 7.4372C9.5323 8.6321 10.4678 8.6321 12.5725 7.4372L18.3333 4.1667" stroke="currentColor" stroke-linejoin="round" stroke-width="2"/>
  <path d="M13.3333 13.3333C13.7429 12.9119 14.8332 11.25 15.4167 11.25M17.5 13.3333C17.0904 12.9119 16.0002 11.25 15.4167 11.25M15.4167 11.25V17.9167" stroke="currentColor" stroke-linecap="round" stroke-linejoin="round" stroke-width="2"/>
</svg>
