<svg xmlns="http://www.w3.org/2000/svg" width="20" height="20" viewBox="0 0 20 20" fill="none">
  <path d="M18.3326 8.3333C18.3306 8.0626 18.3268 7.7917 18.3209 7.5203 18.2665 4.9657 18.2393 3.6884 17.2967 2.7422 16.354 1.796 15.0422 1.7631 12.4184 1.6971 10.8013 1.6565 9.2002 1.6565 7.5831 1.6971 4.9594 1.7631 3.6475 1.796 2.7049 2.7422 1.7623 3.6884 1.735 4.9657 1.6805 7.5203 1.663 8.3417 1.663 9.1583 1.6806 9.9797 1.735 12.5343 1.7623 13.8116 2.7049 14.7578 3.6475 15.704 4.9594 15.7369 7.5831 15.8028 8.2521 15.8197 8.9183 15.8295 9.5841 15.8324" stroke="currentColor" stroke-linecap="round" stroke-linejoin="round" stroke-width="2"/>
  <path d="M5.8341 5.8333L8.2858 7.2829C9.7151 8.1279 10.2864 8.1279 11.7157 7.2829L14.1674 5.8333" stroke="currentColor" stroke-linecap="round" stroke-linejoin="round" stroke-width="2"/>
  <path d="M12.0727 14.9741C12.5798 15.8379 13.5983 16.6462 14.9874 16.6462 16.3765 16.6462 17.3989 15.8379 17.906 14.9741M14.9957 16.7791L14.9957 18.3333M14.9772 14.2659C14.1427 14.2659 13.4662 13.5863 13.4662 12.748V11.5151C13.4662 10.6768 14.1427 9.9972 14.9772 9.9972 15.8117 9.9972 16.4882 10.6768 16.4882 11.5151V12.748C16.4882 13.5863 15.8117 14.2659 14.9772 14.2659Z" stroke="currentColor" stroke-linecap="round" stroke-linejoin="round" stroke-width="2"/>
</svg>
