<svg xmlns="http://www.w3.org/2000/svg" width="20" height="20" viewBox="0 0 20 20" fill="none">
  <path d="M5.8333 6.25L8.285 7.6995C9.7143 8.5446 10.2857 8.5446 11.715 7.6995L14.1667 6.25" stroke="currentColor" stroke-linecap="round" stroke-linejoin="round" stroke-width="2"/>
  <path d="M9.1667 16.25C9.1667 16.25 8.3909 16.2398 7.5824 16.2195 4.9586 16.1536 3.6467 16.1207 2.7041 15.1745 1.7615 14.2282 1.7343 12.951 1.6798 10.3963 1.6623 9.5749 1.6623 8.7584 1.6798 7.937 1.7343 5.3824 1.7615 4.1051 2.7041 3.1589 3.6467 2.2127 4.9586 2.1797 7.5823 2.1138 9.1994 2.0732 10.8006 2.0732 12.4177 2.1138 15.0414 2.1797 16.3532 2.2127 17.2959 3.1589 18.2385 4.1051 18.2658 5.3824 18.3202 7.937 18.3265 8.2344 18.3306 8.7496 18.3323 9.1667" stroke="currentColor" stroke-linecap="round" stroke-linejoin="round" stroke-width="2"/>
  <path d="M15 16.8453V17.9167M15 16.8453C14.036 16.8453 13.1867 16.3718 12.6886 15.6528M15 16.8453C15.964 16.8453 16.8133 16.3718 17.3114 15.6528M15 11.4881C15.9641 11.4881 16.8134 11.9617 17.3115 12.6808M15 11.4881C14.0359 11.4881 13.1866 11.9617 12.6885 12.6808M15 11.4881V10.4167M18.3333 12.0238L17.3115 12.6808M11.667 16.3095L12.6886 15.6528M11.6667 12.0238L12.6885 12.6808M18.333 16.3095L17.3114 15.6528M17.3115 12.6808C17.6061 13.1059 17.7778 13.6169 17.7778 14.1667 17.7778 14.7164 17.606 15.2275 17.3114 15.6528M12.6885 12.6808C12.3939 13.1059 12.2223 13.6169 12.2223 14.1667 12.2223 14.7164 12.394 15.2275 12.6886 15.6528" stroke="currentColor" stroke-linecap="round" stroke-width="2"/>
</svg>
