<svg xmlns="http://www.w3.org/2000/svg" width="20" height="20" viewBox="0 0 20 20" fill="none">
  <path d="M2.0834 5L7.5562 8.2641C9.5738 9.4675 10.4262 9.4675 12.4439 8.2641L17.9168 5" stroke="currentColor" stroke-linecap="round" stroke-linejoin="round" stroke-width="2"/>
  <path d="M15 12.5C15 11.5795 15.7462 10.8333 16.6667 10.8333 17.5872 10.8333 18.3333 11.5795 18.3333 12.5 18.3333 13.1309 17.9827 13.6799 17.4658 13.9629 17.0621 14.1839 16.6667 14.5398 16.6667 15" stroke="currentColor" stroke-linecap="round" stroke-linejoin="round" stroke-width="2"/>
  <path d="M16.7708 17.2917H16.6667M16.875 17.2917C16.875 17.4068 16.7818 17.5 16.6667 17.5 16.5516 17.5 16.4583 17.4068 16.4583 17.2917 16.4583 17.1766 16.5516 17.0833 16.6667 17.0833 16.7818 17.0833 16.875 17.1766 16.875 17.2917Z" stroke="currentColor" stroke-linecap="round" stroke-linejoin="round" stroke-width="2"/>
  <path d="M12.5001 15.8326C12.2353 15.8333 11.9578 15.8333 11.6668 15.8333H8.3334C5.1907 15.8333 3.6193 15.8333 2.643 14.857 1.6667 13.8808 1.6667 12.3093 1.6667 9.1667 1.6667 6.024 1.6667 4.4526 2.643 3.4763 3.6193 2.5 5.1907 2.5 8.3334 2.5H11.6668C14.8094 2.5 16.3808 2.5 17.3571 3.4763 18.243 4.3622 18.325 5.7381 18.3326 8.3333" stroke="currentColor" stroke-linecap="round" stroke-linejoin="round" stroke-width="2"/>
</svg>
