<svg xmlns="http://www.w3.org/2000/svg" width="20" height="20" viewBox="0 0 20 20" fill="none">
  <path d="M1.6667 4.5833L7.4275 7.8539C9.5323 9.0488 10.4678 9.0488 12.5725 7.8539L18.3333 4.5833" stroke="currentColor" stroke-linejoin="round" stroke-width="2"/>
  <path d="M9.5833 16.6667C9.5833 16.6667 8.3909 16.6565 7.5824 16.6362 4.9586 16.5703 3.6467 16.5373 2.7041 15.5912 1.7615 14.6449 1.7343 13.3677 1.6798 10.813 1.6623 9.9916 1.6623 9.1751 1.6798 8.3537 1.7343 5.799 1.7615 4.5217 2.7041 3.5755 3.6467 2.6293 4.9586 2.5964 7.5823 2.5305 9.1994 2.4898 10.8006 2.4898 12.4177 2.5305 15.0414 2.5964 16.3532 2.6294 17.2959 3.5756 18.2385 4.5217 18.2658 5.7991 18.3202 8.3537 18.3265 8.651 18.3306 9.1662 18.3323 9.5833" stroke="currentColor" stroke-linecap="round" stroke-linejoin="round" stroke-width="2"/>
  <path d="M11.6667 14.1667H18.3333M15 17.5L15 10.8333" stroke="currentColor" stroke-linecap="round" stroke-linejoin="round" stroke-width="2"/>
</svg>
