<svg xmlns="http://www.w3.org/2000/svg" width="20" height="20" viewBox="0 0 20 20" fill="none">
  <path d="M5.4167 7.5H7.0833" stroke="currentColor" stroke-linecap="round" stroke-linejoin="round" stroke-width="2"/>
  <path d="M14.5833 6.6667V3.3333C14.5833 2.4129 15.3295 1.6667 16.25 1.6667" stroke="currentColor" stroke-linecap="round" stroke-linejoin="round" stroke-width="2"/>
  <path d="M10.4167 15L10.4167 18.3333" stroke="currentColor" stroke-linecap="round" stroke-width="2"/>
  <path d="M14.5833 4.2991C13.7793 4.1667 12.7159 4.1667 11.1458 4.1667H8.8542C6.4223 4.1667 5.2063 4.1667 4.2858 4.6587 3.5591 5.0471 2.9638 5.6424 2.5753 6.3692 2.0833 7.2896 2.0833 8.5056 2.0833 10.9375 2.0833 12.3967 2.0833 13.1263 2.3785 13.6785 2.6116 14.1146 2.9688 14.4718 3.4048 14.7048 3.9571 15 4.6867 15 6.1458 15H13.8542C15.3133 15 16.0429 15 16.5952 14.7048 17.0313 14.4718 17.3884 14.1146 17.6215 13.6785 17.9167 13.1263 17.9167 12.3967 17.9167 10.9375 17.9167 8.5056 17.9167 7.2896 17.4247 6.3692 17.2797 6.098 17.1059 5.845 16.9073 5.6144" stroke="currentColor" stroke-linecap="round" stroke-width="2"/>
  <path d="M10.4172 15V9.1667C10.4172 8.3925 10.4172 8.0054 10.3658 7.6815 10.0835 5.8986 8.6852 4.5003 6.9023 4.218 6.8341 4.2072 6.7631 4.1986 6.6862 4.1919" stroke="currentColor" stroke-linecap="round" stroke-width="2"/>
</svg>
