<svg xmlns="http://www.w3.org/2000/svg" width="20" height="20" viewBox="0 0 20 20" fill="none">
  <path d="M2.0837 5L7.5565 8.2641C9.5742 9.4675 10.4267 9.4675 12.4443 8.2641L17.9171 5" stroke="currentColor" stroke-linecap="round" stroke-linejoin="round" stroke-width="2"/>
  <path d="M13.3338 15.8261C12.8331 15.8333 12.28 15.8333 11.6671 15.8333H8.3338C5.191 15.8333 3.6197 15.8333 2.6434 14.857 1.6671 13.8808 1.6671 12.3093 1.6671 9.1667 1.6671 6.024 1.6671 4.4526 2.6434 3.4763 3.6197 2.5 5.191 2.5 8.3338 2.5H11.6671C14.8097 2.5 16.3811 2.5 17.3574 3.4763 18.2433 4.3622 18.3253 5.7381 18.333 8.3333" stroke="currentColor" stroke-linecap="round" stroke-linejoin="round" stroke-width="2"/>
  <path d="M16.6671 14.1667V10.8333" stroke="currentColor" stroke-linecap="round" stroke-linejoin="round" stroke-width="2"/>
  <path d="M16.7712 17.2917H16.6671M16.8754 17.2917C16.8754 17.4068 16.7822 17.5 16.6671 17.5 16.552 17.5 16.4587 17.4068 16.4587 17.2917 16.4587 17.1766 16.552 17.0833 16.6671 17.0833 16.7822 17.0833 16.8754 17.1766 16.8754 17.2917Z" stroke="currentColor" stroke-linecap="round" stroke-linejoin="round" stroke-width="2"/>
</svg>
