<svg xmlns="http://www.w3.org/2000/svg" width="20" height="20" viewBox="0 0 20 20" fill="none">
  <path d="M1.6799 12.1258C1.7349 14.6536 1.7624 15.9174 2.7051 16.8534 3.6478 17.7894 4.9599 17.8218 7.5839 17.8867 9.1994 17.9267 10.8006 17.9267 12.4161 17.8867 15.0402 17.8218 16.3522 17.7894 17.2949 16.8534 18.2377 15.9174 18.2651 14.6536 18.3201 12.1258 18.347 10.8874 18.3329 9.6612 18.2778 8.4101 18.2437 7.633 18.2266 7.2445 18.0295 6.8999 17.8324 6.5552 17.4928 6.3328 16.8133 5.8879L13.6793 3.8357C11.8952 2.6675 11.0032 2.0833 10 2.0833 8.9968 2.0833 8.1048 2.6675 6.3207 3.8357L3.1866 5.8879C2.5072 6.3328 2.1675 6.5552 1.9705 6.8999 1.7734 7.2445 1.7563 7.633 1.7221 8.4101 1.6671 9.6612 1.653 10.8874 1.6799 12.1258Z" stroke="currentColor" stroke-linejoin="round" stroke-width="2"/>
  <path d="M1.6667 7.9167L5.2211 10.4913C5.613 10.7752 5.9716 11.0349 6.3033 11.2706 7.2001 11.9076 7.8472 12.0833 8.9468 12.0833H11.0532C12.1528 12.0833 12.7999 11.9076 13.6967 11.2706 14.0284 11.0349 14.387 10.7752 14.7788 10.4913L18.3333 7.9167" stroke="currentColor" stroke-linejoin="round" stroke-width="2"/>
</svg>
