<svg xmlns="http://www.w3.org/2000/svg" width="20" height="20" viewBox="0 0 20 20" fill="none">
  <path d="M12.0833 13.7501L15.18 14.6815C16.3362 15.0353 17.1951 15.9628 17.4802 17.0917 17.5929 17.5381 17.2074 17.9168 16.7447 17.9168H3.2553C2.7926 17.9168 2.407 17.5381 2.5198 17.0917 2.8049 15.9628 3.6638 15.0353 4.82 14.6815L7.9167 13.7501V12.1353C6.4326 10.9738 5.4167 9.5833 5.4167 6.5973 5.4167 3.6057 7.0456 2.0833 9.5769 2.0833 11.3694 2.0833 12.1154 2.9166 12.1154 2.9166 14.2307 2.9166 14.5833 4.6643 14.5833 6.5973 14.5833 9.5833 13.5673 10.9738 12.0833 12.1353V13.7501Z" stroke="currentColor" stroke-linejoin="round" stroke-width="2"/>
</svg>
