<svg xmlns="http://www.w3.org/2000/svg" width="20" height="20" viewBox="0 0 20 20" fill="none">
  <path d="M11.6667 3.3333C11.6667 4.2538 10.9205 5 10 5 9.0795 5 8.3333 4.2538 8.3333 3.3333 8.3333 2.4129 9.0795 1.6667 10 1.6667 10.9205 1.6667 11.6667 2.4129 11.6667 3.3333Z" stroke="currentColor" stroke-linecap="round" stroke-linejoin="round" stroke-width="2"/>
  <path d="M13.3333 10.4167C13.3333 8.8453 13.3333 8.0596 12.8452 7.5715 12.357 7.0833 11.5713 7.0833 10 7.0833 8.4287 7.0833 7.643 7.0833 7.1548 7.5715 6.6667 8.0596 6.6667 8.8453 6.6667 10.4167V11.6667C6.6667 12.4523 6.6667 12.8452 6.9107 13.0893 7.1548 13.3333 7.5477 13.3333 8.3333 13.3333V16.6667C8.3333 17.4523 8.3333 17.8452 8.5774 18.0892 8.8215 18.3333 9.2143 18.3333 10 18.3333 10.7857 18.3333 11.1785 18.3333 11.4226 18.0892 11.6667 17.8452 11.6667 17.4523 11.6667 16.6667V13.3333C12.4523 13.3333 12.8452 13.3333 13.0893 13.0893 13.3333 12.8452 13.3333 12.4523 13.3333 11.6667V10.4167Z" stroke="currentColor" stroke-linejoin="round" stroke-width="2"/>
</svg>
