<svg xmlns="http://www.w3.org/2000/svg" width="20" height="20" viewBox="0 0 20 20" fill="none">
  <path d="M16.2496 16.6667V13.75C17.1547 13.75 17.6659 13.75 17.8488 13.3548 18.0318 12.9596 17.8294 12.419 17.4246 11.338L16.3897 8.5741C16.0476 7.6604 15.3483 7.0833 14.5833 7.0833 13.8184 7.0833 13.1191 7.6604 12.777 8.5741L11.7421 11.338C11.3372 12.419 11.1349 12.9596 11.3178 13.3548 11.5008 13.75 12.0111 13.75 12.9162 13.75V16.6667C12.9162 17.4523 12.9162 17.8452 13.1603 18.0892 13.4044 18.3333 13.7973 18.3333 14.5829 18.3333 15.3686 18.3333 15.7614 18.3333 16.0055 18.0892 16.2496 17.8452 16.2496 17.4523 16.2496 16.6667Z" stroke="currentColor" stroke-linejoin="round" stroke-width="2"/>
  <path d="M7.0833 3.3333C7.0833 4.2538 6.3371 5 5.4167 5 4.4962 5 3.75 4.2538 3.75 3.3333 3.75 2.4129 4.4962 1.6667 5.4167 1.6667 6.3371 1.6667 7.0833 2.4129 7.0833 3.3333Z" stroke="currentColor" stroke-linecap="round" stroke-linejoin="round" stroke-width="2"/>
  <path d="M16.25 3.3333C16.25 4.2538 15.5038 5 14.5833 5 13.6628 5 12.9167 4.2538 12.9167 3.3333 12.9167 2.4129 13.6628 1.6667 14.5833 1.6667 15.5038 1.6667 16.25 2.4129 16.25 3.3333Z" stroke="currentColor" stroke-linecap="round" stroke-linejoin="round" stroke-width="2"/>
  <path d="M8.75 10.4167C8.75 8.8453 8.75 8.0596 8.2618 7.5715 7.7737 7.0833 6.988 7.0833 5.4167 7.0833 3.8453 7.0833 3.0596 7.0833 2.5715 7.5715 2.0833 8.0596 2.0833 8.8453 2.0833 10.4167V12.0833C2.0833 12.869 2.0833 13.2618 2.3274 13.5059 2.5715 13.75 2.9643 13.75 3.75 13.75V16.6667C3.75 17.4523 3.75 17.8452 3.9941 18.0892 4.2382 18.3333 4.631 18.3333 5.4167 18.3333 6.2023 18.3333 6.5952 18.3333 6.8393 18.0892 7.0833 17.8452 7.0833 17.4523 7.0833 16.6667V13.75C7.869 13.75 8.2618 13.75 8.5059 13.5059 8.75 13.2618 8.75 12.869 8.75 12.0833V10.4167Z" stroke="currentColor" stroke-linejoin="round" stroke-width="2"/>
</svg>
