<svg xmlns="http://www.w3.org/2000/svg" width="20" height="20" viewBox="0 0 20 20" fill="none">
  <path d="M11.6667 8.75C11.6667 10.1308 10.5474 11.25 9.1667 11.25 7.786 11.25 6.6667 10.1308 6.6667 8.75 6.6667 7.3693 7.786 6.25 9.1667 6.25 10.5474 6.25 11.6667 7.3693 11.6667 8.75Z" stroke="currentColor" stroke-linecap="round" stroke-linejoin="round" stroke-width="2"/>
  <path d="M11.6667 17.0833V16.107C11.6667 15.665 11.8422 15.2411 12.1548 14.9285L15.5387 11.5447C15.7273 11.356 15.9832 11.25 16.25 11.25 16.5168 11.25 16.7727 11.356 16.9613 11.5447L17.2053 11.7887C17.394 11.9773 17.5 12.2332 17.5 12.5 17.5 12.7668 17.394 13.0227 17.2053 13.2113L13.8215 16.5952C13.5089 16.9078 13.085 17.0833 12.643 17.0833H11.6667Z" stroke="currentColor" stroke-linecap="round" stroke-linejoin="round" stroke-width="2"/>
  <path d="M15.8333 8.7793C15.8332 5.0812 12.8485 2.0833 9.1667 2.0833 5.4849 2.0833 2.5002 5.0812 2.5 8.7793 2.5 10.894 3.3333 12.5385 5 14.0072 5.8961 14.7968 7.3527 16.2761 8.3724 17.5521 8.5665 17.795 8.8664 17.9167 9.1667 17.9167" stroke="currentColor" stroke-linecap="round" stroke-linejoin="round" stroke-width="2"/>
</svg>
