<svg xmlns="http://www.w3.org/2000/svg" width="20" height="20" viewBox="0 0 20 20" fill="none">
  <path d="M10.8333 8.3333C10.8333 9.7141 9.7141 10.8333 8.3333 10.8333 6.9526 10.8333 5.8333 9.7141 5.8333 8.3333 5.8333 6.9526 6.9526 5.8333 8.3333 5.8333 9.7141 5.8333 10.8333 6.9526 10.8333 8.3333Z" stroke="currentColor" stroke-linecap="round" stroke-linejoin="round" stroke-width="2"/>
  <path d="M17.7956 13.7058L15.733 11.9378C15.5289 11.7628 15.2688 11.6667 15 11.6667 14.7312 11.6667 14.4711 11.7628 14.267 11.9378L12.2044 13.7058C11.8631 13.9982 11.6667 14.4254 11.6667 14.8749V15.4793C11.6667 16.5901 11.6667 17.1455 11.9208 17.5513 12.0546 17.7649 12.2351 17.9454 12.4487 18.0792 12.8545 18.3333 13.4099 18.3333 14.5207 18.3333H15.4793C16.5901 18.3333 17.1455 18.3333 17.5513 18.0792 17.7649 17.9454 17.9454 17.7649 18.0792 17.5513 18.3333 17.1455 18.3333 16.5901 18.3333 15.4793V14.8749C18.3333 14.4254 18.1369 13.9982 17.7956 13.7058Z" stroke="currentColor" stroke-linecap="round" stroke-linejoin="round" stroke-width="2"/>
  <path d="M15 15.8333V18.3333" stroke="currentColor" stroke-linecap="round" stroke-linejoin="round" stroke-width="2"/>
  <path d="M15 8.3629C15 4.6647 12.0152 1.6667 8.3333 1.6667 4.6514 1.6667 1.6667 4.6647 1.6667 8.3629 1.6667 10.4776 2.5 12.1218 4.1667 13.5905 5.0628 14.3802 6.5191 15.8597 7.5388 17.1357 7.7329 17.3786 8.0331 17.5 8.3333 17.5" stroke="currentColor" stroke-linecap="round" stroke-linejoin="round" stroke-width="2"/>
</svg>
