<svg xmlns="http://www.w3.org/2000/svg" width="20" height="20" viewBox="0 0 20 20" fill="none">
  <path d="M5.8333 7.5015C4.0208 7.5125 3.0392 7.5995 2.3989 8.2932 1.6667 9.0865 1.6667 10.3632 1.6667 12.9166 1.6667 15.4701 1.6667 16.7468 2.3989 17.54 3.1311 18.3332 4.3096 18.3332 6.6667 18.3332H13.3333C15.6903 18.3332 16.8688 18.3332 17.6011 17.54 18.3333 16.7468 18.3333 15.4701 18.3333 12.9166 18.3333 10.3632 18.3333 9.0865 17.6011 8.2932 16.9608 7.5995 15.9792 7.5125 14.1667 7.5015" stroke="currentColor" stroke-linecap="round" stroke-linejoin="round" stroke-width="2"/>
  <path d="M5 10L8.75 12.1875M15 15.8333L11.5 13.7917M11.5 13.7917L15 11.4583M11.5 13.7917L8.75 12.1875M8.75 12.1875L5 14.6667" stroke="currentColor" stroke-linecap="round" stroke-linejoin="round" stroke-width="2"/>
  <path d="M10 5.8333C11.1506 5.8333 12.0833 4.9006 12.0833 3.75 12.0833 2.5994 11.1506 1.6667 10 1.6667 8.8494 1.6667 7.9167 2.5994 7.9167 3.75 7.9167 4.9006 8.8494 5.8333 10 5.8333ZM10 5.8333V9.1667" stroke="currentColor" stroke-linecap="round" stroke-width="2"/>
</svg>
