<svg xmlns="http://www.w3.org/2000/svg" width="20" height="20" viewBox="0 0 20 20" fill="none">
  <path d="M14.5833 9.1667C12.5122 9.1667 10.8333 10.8248 10.8333 12.8703 10.8333 14.0399 11.3021 14.9493 12.2396 15.7617 12.842 16.2837 13.8945 17.3506 14.4399 18.1191 14.51 18.2178 14.6601 18.2201 14.7319 18.1227 15.2923 17.3635 16.3246 16.2837 16.9271 15.7617 17.8646 14.9493 18.3333 14.0399 18.3333 12.8703 18.3333 10.8248 16.6544 9.1667 14.5833 9.1667Z" stroke="currentColor" stroke-linecap="round" stroke-linejoin="round" stroke-width="2"/>
  <path d="M8.3627 11.25C6.7518 11.25 5.446 9.9442 5.446 8.3333 5.446 6.7225 6.7518 5.4167 8.3627 5.4167 9.6839 5.4167 10.7999 6.2952 11.1585 7.5" stroke="currentColor" stroke-linecap="round" stroke-linejoin="round" stroke-width="2"/>
  <path d="M14.7769 6.6667C14.0197 3.7879 11.4217 1.6667 8.3333 1.6667 4.6514 1.6667 1.6667 4.6815 1.6667 8.4006 1.6667 10.5271 2.5 12.1806 4.1667 13.6575 5.2812 14.6451 7.2621 16.7057 8.192 18.1113 8.2596 18.2134 8.4111 18.2151 8.481 18.1145 8.7819 17.682 9.1783 17.1812 9.6151 16.6667" stroke="currentColor" stroke-linecap="round" stroke-linejoin="round" stroke-width="2"/>
  <path d="M14.6875 12.9167H14.5833M14.7917 12.9167C14.7917 13.0318 14.6984 13.125 14.5833 13.125 14.4682 13.125 14.375 13.0318 14.375 12.9167 14.375 12.8016 14.4682 12.7083 14.5833 12.7083 14.6984 12.7083 14.7917 12.8016 14.7917 12.9167Z" stroke="currentColor" stroke-linecap="round" stroke-linejoin="round" stroke-width="2"/>
</svg>
