<svg xmlns="http://www.w3.org/2000/svg" width="20" height="20" viewBox="0 0 20 20" fill="none">
  <path d="M12.0833 8.75C12.0833 10.1308 10.9641 11.25 9.5833 11.25 8.2026 11.25 7.0833 10.1308 7.0833 8.75 7.0833 7.3693 8.2026 6.25 9.5833 6.25 10.9641 6.25 12.0833 7.3693 12.0833 8.75Z" stroke="currentColor" stroke-linecap="round" stroke-linejoin="round" stroke-width="2"/>
  <path d="M10.3779 17.5523C9.9898 18.0381 9.1769 18.0381 8.7888 17.5523 7.7691 16.2763 6.3128 14.7968 5.4167 14.0072 3.75 12.5385 2.9167 10.8943 2.9167 8.7796 2.9167 5.0814 5.9014 2.0833 9.5833 2.0833 13.2652 2.0833 16.25 5.0814 16.25 8.7796 16.25 9.2046 16.2163 9.6106 16.149 10" stroke="currentColor" stroke-linecap="round" stroke-linejoin="round" stroke-width="2"/>
  <path d="M12.0833 14.5833L13.75 16.25 17.0833 12.9167" stroke="currentColor" stroke-linecap="round" stroke-linejoin="round" stroke-width="2"/>
</svg>
