<svg xmlns="http://www.w3.org/2000/svg" width="20" height="20" viewBox="0 0 20 20" fill="none">
  <path d="M12.0833 8.3333C11.7248 7.1285 10.4879 6.25 9.1667 6.25 7.5558 6.25 6.25 7.5558 6.25 9.1667 6.25 10.636 7.3365 11.8812 8.75 12.0833" stroke="currentColor" stroke-linecap="round" stroke-width="2"/>
  <path d="M16.6253 8.3333C16.2248 4.612 12.9663 1.6667 9.1667 1.6667 5.1079 1.6667 1.6667 5.0275 1.6667 9.1048 1.6667 13.2614 5.1699 16.1347 8.3942 18.1306 8.6296 18.2635 8.8958 18.3333 9.1667 18.3333 9.4375 18.3333 9.7038 18.2635 9.9392 18.1306 10.1513 18.0008 10.3647 17.8669 10.5781 17.729" stroke="currentColor" stroke-linecap="round" stroke-width="2"/>
  <path d="M14.5833 10C16.6128 10 18.3333 11.6804 18.3333 13.7191 18.3333 15.7902 16.5848 17.2437 14.9696 18.2319 14.8519 18.2984 14.7188 18.3333 14.5833 18.3333 14.4479 18.3333 14.3148 18.2984 14.1971 18.2319 12.5849 17.234 10.8333 15.7973 10.8333 13.7191 10.8333 11.6804 12.5539 10 14.5833 10Z" stroke="currentColor" stroke-width="2"/>
  <path d="M14.6875 13.75H14.5833M14.7917 13.75C14.7917 13.8651 14.6984 13.9583 14.5833 13.9583 14.4682 13.9583 14.375 13.8651 14.375 13.75 14.375 13.6349 14.4682 13.5417 14.5833 13.5417 14.6984 13.5417 14.7917 13.6349 14.7917 13.75Z" stroke="currentColor" stroke-linecap="round" stroke-linejoin="round" stroke-width="2"/>
</svg>
