<svg xmlns="http://www.w3.org/2000/svg" width="20" height="20" viewBox="0 0 20 20" fill="none">
  <path d="M12.0833 8.75C12.0833 10.1308 10.9641 11.25 9.5833 11.25 8.2026 11.25 7.0833 10.1308 7.0833 8.75 7.0833 7.3693 8.2026 6.25 9.5833 6.25 10.9641 6.25 12.0833 7.3693 12.0833 8.75Z" stroke="currentColor" stroke-linecap="round" stroke-linejoin="round" stroke-width="2"/>
  <path d="M14.5792 12.0833V17.0833M17.0833 14.5792L12.0833 14.5792" stroke="currentColor" stroke-linecap="round" stroke-linejoin="round" stroke-width="2"/>
  <path d="M16.25 8.7793C16.2498 5.0812 13.2652 2.0833 9.5833 2.0833 5.9015 2.0833 2.9168 5.0812 2.9167 8.7793 2.9167 10.894 3.75 12.5385 5.4167 14.0072 6.3128 14.7968 7.7694 16.2761 8.7891 17.5521 8.9832 17.795 9.2831 17.9167 9.5833 17.9167 9.8836 17.9167 10.1835 17.795 10.3776 17.5521" stroke="currentColor" stroke-linecap="round" stroke-linejoin="round" stroke-width="2"/>
</svg>
