<svg xmlns="http://www.w3.org/2000/svg" width="20" height="20" viewBox="0 0 20 20" fill="none">
  <path d="M2.0833 10C2.0833 6.268 2.0833 4.4021 3.2427 3.2427 4.4021 2.0833 6.268 2.0833 10 2.0833 13.7319 2.0833 15.5979 2.0833 16.7573 3.2427 17.9167 4.4021 17.9167 6.268 17.9167 10 17.9167 13.7319 17.9167 15.5979 16.7573 16.7573 15.5979 17.9167 13.7319 17.9167 10 17.9167 6.268 17.9167 4.4021 17.9167 3.2427 16.7573 2.0833 15.5979 2.0833 13.7319 2.0833 10Z" stroke="currentColor" stroke-width="2"/>
  <path d="M13.3333 17.5L2.5 6.6667" stroke="currentColor" stroke-linecap="round" stroke-linejoin="round" stroke-width="2"/>
  <path d="M7.9167 12.0833L3.3333 16.6667" stroke="currentColor" stroke-linecap="round" stroke-linejoin="round" stroke-width="2"/>
  <path d="M12.0833 5C10.5876 5 9.375 6.206 9.375 7.6936 9.375 8.5442 9.7135 9.2056 10.3907 9.7963 10.8678 10.2127 11.7362 11.106 12.0833 11.6667 12.448 11.1172 13.2988 10.2127 13.776 9.7963 14.4532 9.2056 14.7917 8.5442 14.7917 7.6936 14.7917 6.206 13.5791 5 12.0833 5Z" stroke="currentColor" stroke-linecap="round" stroke-linejoin="round" stroke-width="2"/>
  <path d="M12.1875 7.7083H12.0833M12.2917 7.7083C12.2917 7.8234 12.1984 7.9167 12.0833 7.9167 11.9683 7.9167 11.875 7.8234 11.875 7.7083 11.875 7.5933 11.9683 7.5 12.0833 7.5 12.1984 7.5 12.2917 7.5933 12.2917 7.7083Z" stroke="currentColor" stroke-linecap="round" stroke-linejoin="round" stroke-width="2"/>
</svg>
