<svg xmlns="http://www.w3.org/2000/svg" width="20" height="20" viewBox="0 0 20 20" fill="none">
  <path d="M8.4007 1.6667C4.5585 2.4466 1.6667 5.8435 1.6667 9.9158 1.6667 14.5647 5.4353 18.3333 10.0842 18.3333 14.1565 18.3333 17.5534 15.4415 18.3333 11.5993" stroke="currentColor" stroke-linecap="round" stroke-width="2"/>
  <path d="M15.7813 15C16.1013 14.9305 16.3976 14.82 16.6667 14.6692M12.2396 14.4505C12.7359 14.6679 13.2147 14.829 13.6709 14.9348M9.0455 12.4564C9.3901 12.6983 9.7583 12.9884 10.1169 13.2387M2.5 11.5208C2.7686 11.3896 3.0586 11.239 3.3854 11.1101M5.3759 10.8333C5.8441 10.8853 6.3692 11.0188 6.9645 11.2693" stroke="currentColor" stroke-linecap="round" stroke-linejoin="round" stroke-width="2"/>
  <path d="M15.4167 5.8333C15.4167 5.143 14.857 4.5833 14.1667 4.5833 13.4763 4.5833 12.9167 5.143 12.9167 5.8333 12.9167 6.5237 13.4763 7.0833 14.1667 7.0833 14.857 7.0833 15.4167 6.5237 15.4167 5.8333Z" stroke="currentColor" stroke-width="2"/>
  <path d="M14.1667 1.6667C16.4216 1.6667 18.3333 3.5151 18.3333 5.7576 18.3333 8.0359 16.3904 9.6347 14.5958 10.7218 14.4651 10.7949 14.3172 10.8333 14.1667 10.8333 14.0162 10.8333 13.8682 10.7949 13.7375 10.7218 11.9463 9.6241 10 8.0438 10 5.7576 10 3.5151 11.9118 1.6667 14.1667 1.6667Z" stroke="currentColor" stroke-width="2"/>
</svg>
