<svg xmlns="http://www.w3.org/2000/svg" width="20" height="20" viewBox="0 0 20 20" fill="none">
  <path d="M18.3333 10C18.3333 14.6023 14.6023 18.3333 10 18.3333 5.3976 18.3333 1.6667 14.6023 1.6667 10 1.6667 5.3976 5.3976 1.6667 10 1.6667 14.6023 1.6667 18.3333 5.3976 18.3333 10Z" stroke="currentColor" stroke-width="2"/>
  <path d="M7.5 12.5L4.1667 15.8333M12.5 17.5L2.5 7.5" stroke="currentColor" stroke-linecap="round" stroke-width="2"/>
  <path d="M11.25 5C9.7543 5 8.5417 6.206 8.5417 7.6936 8.5417 8.5442 8.8802 9.2056 9.5573 9.7963 10.0345 10.2127 10.9028 11.106 11.25 11.6667 11.6147 11.1172 12.4655 10.2127 12.9427 9.7963 13.6198 9.2056 13.9583 8.5442 13.9583 7.6936 13.9583 6.206 12.7458 5 11.25 5Z" stroke="currentColor" stroke-linecap="round" stroke-linejoin="round" stroke-width="2"/>
  <path d="M11.3542 7.7083H11.25M11.4583 7.7083C11.4583 7.8234 11.3651 7.9167 11.25 7.9167 11.1349 7.9167 11.0417 7.8234 11.0417 7.7083 11.0417 7.5933 11.1349 7.5 11.25 7.5 11.3651 7.5 11.4583 7.5933 11.4583 7.7083Z" stroke="currentColor" stroke-linecap="round" stroke-linejoin="round" stroke-width="2"/>
</svg>
