<svg xmlns="http://www.w3.org/2000/svg" width="20" height="20" viewBox="0 0 20 20" fill="none">
  <path d="M8.4007 1.6667C4.5585 2.4466 1.6667 5.8435 1.6667 9.9158 1.6667 14.5647 5.4353 18.3333 10.0842 18.3333 14.1565 18.3333 17.5534 15.4415 18.3333 11.5993" stroke="currentColor" stroke-linecap="round" stroke-width="2"/>
  <path d="M15.7813 15C16.1013 14.9305 16.3976 14.82 16.6667 14.6692M12.2396 14.4505C12.7359 14.6679 13.2147 14.829 13.6709 14.9348M9.0455 12.4564C9.3901 12.6983 9.7583 12.9884 10.1169 13.2387M2.5 11.5208C2.7686 11.3896 3.0586 11.239 3.3854 11.1101M5.3759 10.8333C5.8441 10.8853 6.3692 11.0188 6.9645 11.2693" stroke="currentColor" stroke-linecap="round" stroke-linejoin="round" stroke-width="2"/>
  <path d="M15 6.25C15 5.5596 14.4403 5 13.75 5 13.0597 5 12.5 5.5596 12.5 6.25 12.5 6.9404 13.0597 7.5 13.75 7.5 14.4403 7.5 15 6.9404 15 6.25Z" stroke="currentColor" stroke-width="2"/>
  <path d="M14.5733 11.3502C14.3525 11.5532 14.0573 11.6667 13.7501 11.6667 13.4429 11.6667 13.1478 11.5532 12.9269 11.3502 10.9046 9.4797 8.1945 7.3901 9.5161 4.3565 10.2308 2.7162 11.9461 1.6667 13.7501 1.6667 15.5541 1.6667 17.2695 2.7162 17.9841 4.3565 19.3041 7.3863 16.6006 9.4861 14.5733 11.3502Z" stroke="currentColor" stroke-width="2"/>
</svg>
