<svg xmlns="http://www.w3.org/2000/svg" width="20" height="20" viewBox="0 0 20 20" fill="none">
  <path d="M11.7739 11.4557C11.6334 11.591 11.4456 11.6667 11.2501 11.6667 11.0546 11.6667 10.8668 11.591 10.7263 11.4557 9.4393 10.2087 7.7147 8.8157 8.5557 6.7932 9.0105 5.6997 10.1021 5 11.2501 5 12.3981 5 13.4897 5.6997 13.9444 6.7932 14.7844 8.8131 13.064 10.2129 11.7739 11.4557Z" stroke="currentColor" stroke-linecap="round" stroke-linejoin="round" stroke-width="2"/>
  <path d="M11.3542 7.9167H11.25M11.4583 7.9167C11.4583 8.0317 11.3651 8.125 11.25 8.125 11.1349 8.125 11.0417 8.0317 11.0417 7.9167 11.0417 7.8016 11.1349 7.7083 11.25 7.7083 11.3651 7.7083 11.4583 7.8016 11.4583 7.9167Z" stroke="currentColor" stroke-linecap="round" stroke-linejoin="round" stroke-width="2"/>
  <path d="M18.3333 10C18.3333 14.6023 14.6023 18.3333 10 18.3333 5.3976 18.3333 1.6667 14.6023 1.6667 10 1.6667 5.3976 5.3976 1.6667 10 1.6667 14.6023 1.6667 18.3333 5.3976 18.3333 10Z" stroke="currentColor" stroke-linecap="round" stroke-linejoin="round" stroke-width="2"/>
  <path d="M7.5 12.5L4.1667 15.8333M12.5 17.5L2.5 7.5" stroke="currentColor" stroke-linecap="round" stroke-linejoin="round" stroke-width="2"/>
</svg>
