<svg xmlns="http://www.w3.org/2000/svg" width="20" height="20" viewBox="0 0 20 20" fill="none">
  <path d="M12.6073 11.4557C12.4668 11.591 12.2789 11.6667 12.0834 11.6667 11.8879 11.6667 11.7001 11.591 11.5596 11.4557 10.2727 10.2087 8.548 8.8157 9.3891 6.7932 9.8438 5.6997 10.9354 5 12.0834 5 13.2314 5 14.323 5.6997 14.7778 6.7932 15.6177 8.8131 13.8973 10.2129 12.6073 11.4557Z" stroke="currentColor" stroke-width="2"/>
  <path d="M2.0833 10C2.0833 6.268 2.0833 4.4021 3.2427 3.2427 4.4021 2.0833 6.268 2.0833 10 2.0833 13.7319 2.0833 15.5979 2.0833 16.7573 3.2427 17.9167 4.4021 17.9167 6.268 17.9167 10 17.9167 13.7319 17.9167 15.5979 16.7573 16.7573 15.5979 17.9167 13.7319 17.9167 10 17.9167 6.268 17.9167 4.4021 17.9167 3.2427 16.7573 2.0833 15.5979 2.0833 13.7319 2.0833 10Z" stroke="currentColor" stroke-width="2"/>
  <path d="M13.3333 17.5L2.5 6.6667" stroke="currentColor" stroke-linecap="round" stroke-linejoin="round" stroke-width="2"/>
  <path d="M7.9167 12.0833L3.3333 16.6667" stroke="currentColor" stroke-linecap="round" stroke-linejoin="round" stroke-width="2"/>
  <path d="M12.1875 7.9167H12.0833M12.2917 7.9167C12.2917 8.0317 12.1984 8.125 12.0833 8.125 11.9683 8.125 11.875 8.0317 11.875 7.9167 11.875 7.8016 11.9683 7.7083 12.0833 7.7083 12.1984 7.7083 12.2917 7.8016 12.2917 7.9167Z" stroke="currentColor" stroke-linecap="round" stroke-linejoin="round" stroke-width="2"/>
</svg>
