<svg xmlns="http://www.w3.org/2000/svg" width="20" height="20" viewBox="0 0 20 20" fill="none">
  <path d="M18.3333 8.3333V7.6812C18.3333 6.0649 18.3333 5.2567 17.8452 4.7546 17.357 4.2525 16.5713 4.2525 15 4.2525H13.2678C12.5033 4.2525 12.497 4.251 11.8096 3.907L9.0333 2.5176C7.874 1.9375 7.2944 1.6475 6.677 1.6677 6.0595 1.6878 5.499 2.0151 4.3779 2.6696L3.3546 3.267C2.5312 3.7477 2.1194 3.9881 1.893 4.388 1.6667 4.7879 1.6667 5.2749 1.6667 6.2489V13.0964C1.6667 14.3762 1.6667 15.0161 1.9519 15.3723 2.1417 15.6092 2.4076 15.7685 2.7017 15.8213 3.1436 15.9007 3.6846 15.5848 4.7666 14.9531 5.5013 14.5242 6.2084 14.0787 7.0874 14.1995 7.8239 14.3007 8.5083 14.7654 9.1667 15.0948" stroke="currentColor" stroke-linecap="round" stroke-linejoin="round" stroke-width="2"/>
  <path d="M6.6667 1.6667L6.6667 14.1667" stroke="currentColor" stroke-linejoin="round" stroke-width="2"/>
  <path d="M12.5 4.1667V7.9167" stroke="currentColor" stroke-linecap="round" stroke-linejoin="round" stroke-width="2"/>
  <path d="M15.2569 18.0696C15.0762 18.2388 14.8348 18.3333 14.5834 18.3333 14.3321 18.3333 14.0906 18.2388 13.9099 18.0696 12.2553 16.5108 10.0379 14.7696 11.1193 12.2415 11.7039 10.8747 13.1074 10 14.5834 10 16.0594 10 17.4629 10.8747 18.0476 12.2415 19.1276 14.7663 16.9157 16.5162 15.2569 18.0696Z" stroke="currentColor" stroke-width="2"/>
  <path d="M14.6875 13.75H14.5833M14.7917 13.75C14.7917 13.8651 14.6984 13.9583 14.5833 13.9583 14.4682 13.9583 14.375 13.8651 14.375 13.75 14.375 13.6349 14.4682 13.5417 14.5833 13.5417 14.6984 13.5417 14.7917 13.6349 14.7917 13.75Z" stroke="currentColor" stroke-linecap="round" stroke-linejoin="round" stroke-width="2"/>
</svg>
