<svg xmlns="http://www.w3.org/2000/svg" width="20" height="20" viewBox="0 0 20 20" fill="none">
  <path d="M4.3779 3.4965L3.3546 4.0901C2.5312 4.5678 2.1194 4.8067 1.893 5.204 1.6667 5.6014 1.6667 6.0853 1.6667 7.0531V13.8569C1.6667 15.1285 1.6667 15.7643 1.9519 16.1182 2.1417 16.3537 2.4076 16.5119 2.7017 16.5644 3.1436 16.6433 3.6846 16.3294 4.7666 15.7017 5.5013 15.2755 6.2084 14.8328 7.0874 14.9529 7.4872 15.0075 7.8686 15.1972 8.6313 15.5764L11.8096 17.1567C12.497 17.4985 12.5033 17.5 13.2678 17.5H15C16.5713 17.5 17.357 17.5 17.8452 17.0011 18.3333 16.5022 18.3333 15.6991 18.3333 14.0931V8.4763C18.3333 6.8702 18.3333 6.0672 17.8452 5.5682 17.357 5.0693 16.5713 5.0693 15 5.0693H13.2678C12.5033 5.0693 12.497 5.0678 11.8096 4.726L9.0333 3.3455C7.874 2.7691 7.2944 2.4809 6.677 2.501 6.0595 2.521 5.499 2.8462 4.3779 3.4965Z" stroke="currentColor" stroke-linecap="round" stroke-linejoin="round" stroke-width="2"/>
  <path d="M6.6667 2.5L6.6667 14.5833" stroke="currentColor" stroke-linecap="round" stroke-linejoin="round" stroke-width="2"/>
  <path d="M12.5 5.4167L12.5 17.0833" stroke="currentColor" stroke-linecap="round" stroke-linejoin="round" stroke-width="2"/>
</svg>
