<svg xmlns="http://www.w3.org/2000/svg" width="20" height="20" viewBox="0 0 20 20" fill="none">
  <path d="M18.3333 10.0741V7.6965C18.3333 6.0765 18.3333 5.2665 17.8452 4.7632 17.357 4.2599 16.5713 4.2599 15 4.2599H13.2678C12.5033 4.2599 12.497 4.2584 11.8096 3.9137L9.0333 2.5212C7.874 1.9398 7.2944 1.6491 6.677 1.6693 6.0595 1.6895 5.499 2.0175 4.3779 2.6735L3.3546 3.2722C2.5312 3.7541 2.1194 3.995 1.893 4.3958 1.6667 4.7966 1.6667 5.2847 1.6667 6.2609V13.1239C1.6667 14.4066 1.6667 15.0479 1.9519 15.4049 2.1417 15.6423 2.4076 15.8021 2.7017 15.855 3.1436 15.9345 3.6846 15.618 4.7666 14.9848 5.5013 14.5549 6.2084 14.1084 7.0874 14.2295 7.8239 14.3309 8.5083 14.7967 9.1667 15.1268" stroke="currentColor" stroke-linecap="round" stroke-linejoin="round" stroke-width="2"/>
  <path d="M6.6667 1.6683V14.1966" stroke="currentColor" stroke-linejoin="round" stroke-width="2"/>
  <path d="M12.5 4.174V9.1853" stroke="currentColor" stroke-linecap="round" stroke-linejoin="round" stroke-width="2"/>
  <path d="M16.7557 16.8128L18.2934 18.332M17.6409 14.6984C17.6409 16.3373 16.3127 17.6659 14.6742 17.6659 13.0357 17.6659 11.7073 16.3373 11.7073 14.6984 11.7073 13.0595 13.0357 11.7309 14.6742 11.7309 16.3127 11.7309 17.6409 13.0595 17.6409 14.6984Z" stroke="currentColor" stroke-linecap="round" stroke-width="2"/>
</svg>
