<svg xmlns="http://www.w3.org/2000/svg" width="20" height="20" viewBox="0 0 20 20" fill="none">
  <path d="M18.3333 8.75V8.0979C18.3333 6.4816 18.3333 5.6734 17.8452 5.1712 17.357 4.6691 16.5713 4.6691 15 4.6691H13.2678C12.5033 4.6691 12.497 4.6676 11.8096 4.3236L9.0333 2.9343C7.874 2.3542 7.2944 2.0642 6.677 2.0843 6.0595 2.1045 5.499 2.4317 4.3779 3.0863L3.3546 3.6836C2.5312 4.1644 2.1194 4.4048 1.893 4.8047 1.6667 5.2046 1.6667 5.6916 1.6667 6.6656V13.5131C1.6667 14.7928 1.6667 15.4328 1.9519 15.7889 2.1417 16.0258 2.4076 16.1852 2.7017 16.238 3.1436 16.3173 3.6846 16.0015 4.7666 15.3697 5.5013 14.9408 6.2084 14.4953 7.0874 14.6162 7.8239 14.7173 8.5083 15.1821 9.1667 15.5115" stroke="currentColor" stroke-linecap="round" stroke-linejoin="round" stroke-width="2"/>
  <path d="M6.6667 2.0833L6.6667 14.5833" stroke="currentColor" stroke-linejoin="round" stroke-width="2"/>
  <path d="M12.5 4.5833V7.9167" stroke="currentColor" stroke-linecap="round" stroke-linejoin="round" stroke-width="2"/>
  <path d="M14.5833 10C16.6128 10 18.3333 11.6804 18.3333 13.7191 18.3333 15.7902 16.5848 17.2437 14.9696 18.2319 14.8519 18.2984 14.7188 18.3333 14.5833 18.3333 14.4479 18.3333 14.3148 18.2984 14.1971 18.2319 12.5849 17.234 10.8333 15.7973 10.8333 13.7191 10.8333 11.6804 12.5539 10 14.5833 10Z" stroke="currentColor" stroke-width="2"/>
  <path d="M14.6875 13.75H14.5833M14.7917 13.75C14.7917 13.8651 14.6984 13.9583 14.5833 13.9583 14.4682 13.9583 14.375 13.8651 14.375 13.75 14.375 13.6349 14.4682 13.5417 14.5833 13.5417 14.6984 13.5417 14.7917 13.6349 14.7917 13.75Z" stroke="currentColor" stroke-linecap="round" stroke-linejoin="round" stroke-width="2"/>
</svg>
