<svg xmlns="http://www.w3.org/2000/svg" width="20" height="20" viewBox="0 0 20 20" fill="none">
  <path d="M15.6913 11.8785C15.9397 11.6093 16.0638 11.4748 16.1958 11.3963 16.5143 11.2069 16.9063 11.201 17.2301 11.3808 17.3643 11.4552 17.4923 11.586 17.7483 11.8476 18.0044 12.1092 18.1324 12.2399 18.2053 12.377 18.3813 12.7077 18.3755 13.1083 18.1901 13.4336 18.1133 13.5684 17.9816 13.6953 17.7181 13.949L14.5836 16.9681C14.0843 17.4489 13.8347 17.6894 13.5227 17.8113 13.2107 17.9331 12.8678 17.9242 12.1818 17.9062L12.0885 17.9038C11.8797 17.8983 11.7752 17.8956 11.7145 17.8267 11.6538 17.7578 11.6621 17.6514 11.6787 17.4388L11.6877 17.3233C11.7343 16.7245 11.7577 16.4252 11.8746 16.1561 11.9915 15.887 12.1932 15.6685 12.5965 15.2315L15.6913 11.8785Z" stroke="currentColor" stroke-linejoin="round" stroke-width="2"/>
  <path d="M18.3333 8.75V8.0979C18.3333 6.4816 18.3333 5.6734 17.8452 5.1712 17.357 4.6691 16.5713 4.6691 15 4.6691H13.2678C12.5033 4.6691 12.497 4.6676 11.8096 4.3236L9.0333 2.9343C7.874 2.3542 7.2944 2.0642 6.677 2.0843 6.0595 2.1045 5.499 2.4317 4.3779 3.0863L3.3546 3.6836C2.5312 4.1644 2.1194 4.4048 1.893 4.8047 1.6667 5.2046 1.6667 5.6916 1.6667 6.6656V13.5131C1.6667 14.7928 1.6667 15.4328 1.9519 15.7889 2.1417 16.0258 2.4076 16.1852 2.7017 16.238 3.1436 16.3173 3.6846 16.0015 4.7666 15.3697 5.5013 14.9408 6.2084 14.4953 7.0874 14.6162 7.8239 14.7173 8.5083 15.1821 9.1667 15.5115" stroke="currentColor" stroke-linecap="round" stroke-linejoin="round" stroke-width="2"/>
  <path d="M6.6667 2.0833L6.6667 14.5833" stroke="currentColor" stroke-linejoin="round" stroke-width="2"/>
  <path d="M12.5 4.5833V11.25" stroke="currentColor" stroke-linecap="round" stroke-linejoin="round" stroke-width="2"/>
</svg>
