<svg xmlns="http://www.w3.org/2000/svg" width="20" height="20" viewBox="0 0 20 20" fill="none">
  <path d="M4.5375 11.8958C4.6736 11.6413 4.903 11.4552 5.1852 11.4043 5.4675 11.3533 5.7452 11.4479 5.9581 11.6395M9.363 14.3973C9.0908 14.9063 8.6321 15.2785 8.0676 15.3803 7.5031 15.4822 6.9476 15.293 6.5218 14.9099M8.7993 11.1269C8.9354 10.8724 9.1648 10.6862 9.4471 10.6353 9.7293 10.5844 10.0071 10.6791 10.22 10.8706M10.8914 5.9517C9.9326 6.8567 8.4758 7.5765 6.7756 7.8833 5.0754 8.19 3.4659 8.0234 2.2623 7.5085 2.1853 7.4755 2.1023 7.4643 2.0219 7.4788 1.7848 7.5216 1.6292 7.7692 1.6745 8.0319L2.4561 12.5671C3.0389 15.9492 5.8721 17.5734 7.1863 18.1545 7.6217 18.3471 8.1015 18.3717 8.5686 18.2874 9.0358 18.2031 9.4783 18.0121 9.8231 17.6788 10.8638 16.6728 12.9832 14.1553 12.4003 10.773L11.6188 6.2379C11.5735 5.9752 11.3446 5.7969 11.1074 5.8397 11.027 5.8542 10.9527 5.8938 10.8914 5.9517Z" stroke="currentColor" stroke-linecap="round" stroke-linejoin="round" stroke-width="2"/>
  <path d="M11.9298 14.1667C12.2327 14.1665 12.5325 14.1122 12.8137 13.9878 14.1279 13.4068 16.9611 11.7826 17.5439 8.4004L18.3255 3.8653C18.3708 3.6026 18.2153 3.3549 17.9781 3.3121 17.8977 3.2976 17.8147 3.3089 17.7377 3.3418 16.5341 3.8567 14.9247 4.0233 13.2244 3.7166 11.5242 3.4098 10.0674 2.6901 9.1086 1.785 9.0473 1.7271 8.973 1.6875 8.8926 1.673 8.6554 1.6302 8.4265 1.8085 8.3812 2.0712L7.5997 6.6064C7.5312 7.0039 7.5 7.3895 7.5 7.762" stroke="currentColor" stroke-linejoin="round" stroke-width="2"/>
</svg>
