<svg xmlns="http://www.w3.org/2000/svg" width="20" height="20" viewBox="0 0 20 20" fill="none">
  <path d="M10 3.75C12.5647 3.75 14.8772 3.1466 16.5081 2.1798 16.6124 2.118 16.731 2.0833 16.8523 2.0833 17.21 2.0833 17.5 2.3733 17.5 2.731V7.9167C17.5 13.75 13.75 17.9167 10 17.9167 6.25 17.9167 2.5 13.75 2.5 7.9167V2.731C2.5 2.3733 2.79 2.0833 3.1477 2.0833 3.269 2.0833 3.3876 2.118 3.4919 2.1798 5.1228 3.1466 7.4353 3.75 10 3.75Z" stroke="currentColor" stroke-linecap="round" stroke-linejoin="round" stroke-width="2"/>
  <path d="M5.4167 7.9167C5.7237 7.6609 6.17 7.5 6.6667 7.5 7.1633 7.5 7.6096 7.6609 7.9167 7.9167" stroke="currentColor" stroke-linecap="round" stroke-linejoin="round" stroke-width="2"/>
  <path d="M10 12.6667C10.9933 12.6667 11.8858 12.4413 12.5 12.0833 12.5 12.0833 12.0833 14.5833 10 14.5833 7.9167 14.5833 7.5 12.0833 7.5 12.0833 8.1142 12.4413 9.0067 12.6667 10 12.6667Z" stroke="currentColor" stroke-linecap="round" stroke-linejoin="round" stroke-width="2"/>
  <path d="M12.0833 7.9167C12.3904 7.6609 12.8367 7.5 13.3333 7.5 13.83 7.5 14.2762 7.6609 14.5833 7.9167" stroke="currentColor" stroke-linecap="round" stroke-linejoin="round" stroke-width="2"/>
</svg>
