<svg xmlns="http://www.w3.org/2000/svg" width="20" height="20" viewBox="0 0 20 20" fill="none">
  <path d="M14.1667 11.25V6.6667C14.1667 5.5161 13.2339 4.5833 12.0833 4.5833 10.9328 4.5833 10 5.5161 10 6.6667M10 6.6667V9.5833M10 6.6667C10 5.5161 9.0672 4.5833 7.9167 4.5833 6.7661 4.5833 5.8333 5.5161 5.8333 6.6667V11.25" stroke="currentColor" stroke-linecap="round" stroke-linejoin="round" stroke-width="2"/>
  <path d="M10.8333 14.1628C12.5083 14.1628 14.075 13.9063 15.4124 13.4604 16.7729 13.0068 17.5 11.626 17.5 10.1918V6.2696C17.5 4.4565 16.5248 2.7316 14.7734 2.2625 13.3549 1.8825 11.7287 1.6667 10 1.6667 8.2713 1.6667 6.6451 1.8825 5.2266 2.2625 3.4753 2.7316 2.5 4.4565 2.5 6.2696V12.0801C2.5 18.7447 9.1667 18.3282 9.1667 18.3282 11.25 18.3282 12.5 17.5 12.5 17.5V16.6667C12.5 16.6667 11.25 17.0786 9.1667 17.0786 4.7334 17.0786 5.8834 13.3298 5.8834 13.3298 7.2982 13.8558 9.001 14.1628 10.8333 14.1628Z" stroke="currentColor" stroke-linecap="round" stroke-linejoin="round" stroke-width="2"/>
</svg>
