<svg xmlns="http://www.w3.org/2000/svg" width="20" height="20" viewBox="0 0 20 20" fill="none">
  <path d="M1.6667 10C1.6667 7.0521 1.6667 5.5781 2.544 4.5941 2.6843 4.4367 2.839 4.2911 3.0062 4.1591 4.0518 3.3333 5.6178 3.3333 8.75 3.3333H11.25C14.3822 3.3333 15.9482 3.3333 16.9937 4.1591 17.161 4.2911 17.3157 4.4367 17.456 4.5941 18.3333 5.5781 18.3333 7.0521 18.3333 10 18.3333 12.9479 18.3333 14.4218 17.456 15.4059 17.3157 15.5633 17.161 15.7088 16.9937 15.8409 15.9482 16.6667 14.3822 16.6667 11.25 16.6667H8.75C5.6178 16.6667 4.0518 16.6667 3.0062 15.8409 2.839 15.7088 2.6843 15.5633 2.544 15.4059 1.6667 14.4218 1.6667 12.9479 1.6667 10Z" stroke="currentColor" stroke-linecap="round" stroke-linejoin="round" stroke-width="2"/>
  <path d="M10.8335 10C10.8335 11.3808 9.7142 12.5 8.3335 12.5 6.9528 12.5 5.8335 11.3808 5.8335 10 5.8335 8.6193 6.9528 7.5 8.3335 7.5 9.7142 7.5 10.8335 8.6193 10.8335 10Z" stroke="currentColor" stroke-width="2"/>
  <path d="M10 8.1366C10.4423 7.7407 11.0263 7.5 11.6667 7.5 13.0474 7.5 14.1667 8.6193 14.1667 10 14.1667 11.3808 13.0474 12.5 11.6667 12.5 11.0263 12.5 10.4423 12.2592 10 11.8634" stroke="currentColor" stroke-width="2"/>
</svg>
