<svg xmlns="http://www.w3.org/2000/svg" width="20" height="20" viewBox="0 0 20 20" fill="none">
  <path d="M14.8087 4.1617L11.9288 3.0523C10.9728 2.6841 10.4949 2.5 10.0001 2.5 9.5052 2.5 9.0273 2.6841 8.0713 3.0523L5.1912 4.1618C3.3971 4.8529 2.5 5.1985 2.5 5.8335 2.5 6.4685 3.3971 6.8141 5.1912 7.5051L8.0712 8.6144C9.027 8.9826 9.5048 9.1667 9.9997 9.1667 10.4945 9.1667 10.9723 8.9826 11.9282 8.6145L14.8087 7.5051C16.6029 6.814 17.5 6.4685 17.5 5.8335 17.5 5.1985 16.6029 4.8529 14.8087 4.1617Z" stroke="currentColor" stroke-linecap="round" stroke-linejoin="round" stroke-width="2"/>
  <path d="M13.75 7.9207L14.8087 8.3286C16.6029 9.0198 17.5 9.3653 17.5 10.0003 17.5 10.6353 16.6029 10.9809 14.8087 11.6719L11.9282 12.7813C10.9723 13.1494 10.4945 13.3335 9.9997 13.3335 9.5048 13.3335 9.027 13.1494 8.0712 12.7813L5.1912 11.672C3.3971 10.9809 2.5 10.6354 2.5 10.0003 2.5 9.3653 3.3971 9.0198 5.1912 8.3286L6.2501 7.9207" stroke="currentColor" stroke-linecap="round" stroke-linejoin="round" stroke-width="2"/>
  <path d="M15.8333 8.75L7.3007 12.4068M4.1667 11.25L8.75 9.1667" stroke="currentColor" stroke-linecap="round" stroke-linejoin="round" stroke-width="2"/>
  <path d="M13.8627 12.1305L14.8087 12.4949C16.6029 13.1861 17.5 13.5317 17.5 14.1668 17.5 14.8018 16.6029 15.1473 14.8087 15.8383L11.9282 16.9477C10.9723 17.3158 10.4945 17.4999 9.9997 17.4999 9.5048 17.4999 9.027 17.3158 8.0712 16.9477L5.1912 15.8383C3.3971 15.1473 2.5 14.8018 2.5 14.1668 2.5 13.5317 3.3971 13.1862 5.1912 12.495L6.1373 12.1306" stroke="currentColor" stroke-linecap="round" stroke-linejoin="round" stroke-width="2"/>
</svg>
