<svg xmlns="http://www.w3.org/2000/svg" width="20" height="20" viewBox="0 0 20 20" fill="none">
  <path d="M2.0833 10C2.0833 6.268 2.0833 4.4021 3.2427 3.2427 4.4021 2.0833 6.268 2.0833 10 2.0833 13.7319 2.0833 15.5979 2.0833 16.7573 3.2427 17.9167 4.4021 17.9167 6.268 17.9167 10 17.9167 13.7319 17.9167 15.5979 16.7573 16.7573 15.5979 17.9167 13.7319 17.9167 10 17.9167 6.268 17.9167 4.4021 17.9167 3.2427 16.7573 2.0833 15.5979 2.0833 13.7319 2.0833 10Z" stroke="currentColor" stroke-width="2"/>
  <path d="M4.5833 10.4167L4.9788 10.153C5.3737 9.8897 5.5712 9.7581 5.7608 9.8169 5.9503 9.8758 6.0385 10.0962 6.2148 10.5369L7.5 13.75 9.2403 8.5292C9.6069 7.4292 9.7903 6.8792 10.2268 6.5646 10.6632 6.25 11.243 6.25 12.4025 6.25H15.4167" stroke="currentColor" stroke-linecap="round" stroke-linejoin="round" stroke-width="2"/>
  <path d="M14.1667 10L12.9167 11.25M12.9167 11.25L11.6667 12.5M12.9167 11.25L14.1667 12.5M12.9167 11.25L11.6667 10" stroke="currentColor" stroke-linecap="round" stroke-linejoin="round" stroke-width="2"/>
</svg>
