<svg xmlns="http://www.w3.org/2000/svg" width="20" height="20" viewBox="0 0 20 20" fill="none">
  <path d="M14.7708 2.0833C15.9288 2.2115 16.7082 2.5012 17.2899 3.1559 18.3333 4.3301 18.3333 6.2201 18.3333 10 18.3333 13.7799 18.3333 15.6698 17.2899 16.8442 16.7082 17.4988 15.9288 17.7885 14.7708 17.9167M5.2292 17.9167C4.0713 17.7885 3.2918 17.4988 2.7101 16.8442 1.6667 15.6698 1.6667 13.7799 1.6667 10 1.6667 6.2201 1.6667 4.3301 2.7101 3.1559 3.2918 2.5012 4.0713 2.2115 5.2292 2.0833" stroke="currentColor" stroke-linecap="round" stroke-linejoin="round" stroke-width="2"/>
  <path d="M10.1042 6.6667H10M10.2083 6.6667C10.2083 6.7817 10.1151 6.875 10 6.875 9.8849 6.875 9.7917 6.7817 9.7917 6.6667 9.7917 6.5516 9.8849 6.4583 10 6.4583 10.1151 6.4583 10.2083 6.5516 10.2083 6.6667Z" stroke="currentColor" stroke-linecap="round" stroke-linejoin="round" stroke-width="2"/>
  <path d="M10.1042 10H10M10.2083 10C10.2083 10.1151 10.1151 10.2083 10 10.2083 9.8849 10.2083 9.7917 10.1151 9.7917 10 9.7917 9.8849 9.8849 9.7917 10 9.7917 10.1151 9.7917 10.2083 9.8849 10.2083 10Z" stroke="currentColor" stroke-linecap="round" stroke-linejoin="round" stroke-width="2"/>
  <path d="M10.1042 13.3333H10M10.2083 13.3333C10.2083 13.4484 10.1151 13.5417 10 13.5417 9.8849 13.5417 9.7917 13.4484 9.7917 13.3333 9.7917 13.2183 9.8849 13.125 10 13.125 10.1151 13.125 10.2083 13.2183 10.2083 13.3333Z" stroke="currentColor" stroke-linecap="round" stroke-linejoin="round" stroke-width="2"/>
  <path d="M5.9375 6.6667H5.8333M6.0417 6.6667C6.0417 6.7817 5.9484 6.875 5.8333 6.875 5.7183 6.875 5.625 6.7817 5.625 6.6667 5.625 6.5516 5.7183 6.4583 5.8333 6.4583 5.9484 6.4583 6.0417 6.5516 6.0417 6.6667Z" stroke="currentColor" stroke-linecap="round" stroke-linejoin="round" stroke-width="2"/>
  <path d="M5.9375 10H5.8333M6.0417 10C6.0417 10.1151 5.9484 10.2083 5.8333 10.2083 5.7183 10.2083 5.625 10.1151 5.625 10 5.625 9.8849 5.7183 9.7917 5.8333 9.7917 5.9484 9.7917 6.0417 9.8849 6.0417 10Z" stroke="currentColor" stroke-linecap="round" stroke-linejoin="round" stroke-width="2"/>
  <path d="M5.9375 13.3333H5.8333M6.0417 13.3333C6.0417 13.4484 5.9484 13.5417 5.8333 13.5417 5.7183 13.5417 5.625 13.4484 5.625 13.3333 5.625 13.2183 5.7183 13.125 5.8333 13.125 5.9484 13.125 6.0417 13.2183 6.0417 13.3333Z" stroke="currentColor" stroke-linecap="round" stroke-linejoin="round" stroke-width="2"/>
  <path d="M14.2708 6.6667H14.1667M14.375 6.6667C14.375 6.7817 14.2818 6.875 14.1667 6.875 14.0516 6.875 13.9583 6.7817 13.9583 6.6667 13.9583 6.5516 14.0516 6.4583 14.1667 6.4583 14.2818 6.4583 14.375 6.5516 14.375 6.6667Z" stroke="currentColor" stroke-linecap="round" stroke-linejoin="round" stroke-width="2"/>
  <path d="M14.2708 10H14.1667M14.375 10C14.375 10.1151 14.2818 10.2083 14.1667 10.2083 14.0516 10.2083 13.9583 10.1151 13.9583 10 13.9583 9.8849 14.0516 9.7917 14.1667 9.7917 14.2818 9.7917 14.375 9.8849 14.375 10Z" stroke="currentColor" stroke-linecap="round" stroke-linejoin="round" stroke-width="2"/>
  <path d="M14.2708 13.3333H14.1667M14.375 13.3333C14.375 13.4484 14.2818 13.5417 14.1667 13.5417 14.0516 13.5417 13.9583 13.4484 13.9583 13.3333 13.9583 13.2183 14.0516 13.125 14.1667 13.125 14.2818 13.125 14.375 13.2183 14.375 13.3333Z" stroke="currentColor" stroke-linecap="round" stroke-linejoin="round" stroke-width="2"/>
</svg>
