<svg xmlns="http://www.w3.org/2000/svg" width="20" height="20" viewBox="0 0 20 20" fill="none">
  <path d="M12.4364 6.4846L13.1785 6.6845C13.9981 6.9054 14.4846 7.7528 14.2649 8.5772M14.2649 8.5772L14.0661 9.3235M14.2649 8.5772C14.3748 8.165 14.796 7.9204 15.2058 8.0308 16.0255 8.2517 16.5119 9.0991 16.2923 9.9235M16.2923 9.9235L16.0934 10.6698M16.2923 9.9235C16.3964 9.5328 16.8243 9.3296 17.1904 9.4971L17.4332 9.6082C18.1168 9.921 18.4754 10.6851 18.2811 11.4147L17.9879 12.5138C17.5558 14.1358 17.3397 14.9468 16.922 15.5263 16.6797 15.8625 16.1765 16.2388 15.784 16.503 15.4444 16.7315 15.1842 17.0673 15.0784 17.4642L14.8468 18.3333M12.0385 7.9772L13.331 3.1259C13.4958 2.5077 13.1309 1.8721 12.5162 1.7065 11.9014 1.5408 11.2695 1.9077 11.1048 2.526L9.1237 9.9614 8.2446 8.4243C7.8588 7.7498 6.9769 7.5642 6.3542 8.0264 5.8778 8.38 5.6984 9.0136 5.9182 9.5667L7.6751 13.7184C8.0113 14.5127 8.0193 15.5996 7.7972 16.4335" stroke="currentColor" stroke-linecap="round" stroke-linejoin="round" stroke-width="2"/>
  <path d="M8.2294 3.8666C8.2294 3.8666 8.4342 2.016 8.2294 1.8143M8.2294 1.8143C7.9638 1.5526 6.1122 1.7729 6.1122 1.7729M8.2294 1.8143L5.7524 4.266M1.7577 6.1412C1.7577 6.1412 1.5529 7.9918 1.7577 8.1935M1.7577 8.1935C2.0233 8.4552 3.8749 8.2349 3.8749 8.2349M1.7577 8.1935L4.2347 5.7418" stroke="currentColor" stroke-linecap="round" stroke-linejoin="round" stroke-width="2"/>
</svg>
