<svg xmlns="http://www.w3.org/2000/svg" width="20" height="20" viewBox="0 0 20 20" fill="none">
  <path d="M10.4723 6.6117L12.7573 6.6951C13.0969 6.7075 13.3659 6.9864 13.3659 7.3263V9.5053M8.7826 11.1951L12.9857 7.013" stroke="currentColor" stroke-linecap="round" stroke-linejoin="round" stroke-width="2"/>
  <path d="M1.6667 14.1667C1.6667 12.5953 1.6667 11.8097 2.1548 11.3215 2.643 10.8333 3.4286 10.8333 5 10.8333H5.8333C7.4047 10.8333 8.1904 10.8333 8.6785 11.3215 9.1667 11.8097 9.1667 12.5953 9.1667 14.1667V15C9.1667 16.5713 9.1667 17.357 8.6785 17.8452 8.1904 18.3333 7.4047 18.3333 5.8333 18.3333H5C3.4286 18.3333 2.643 18.3333 2.1548 17.8452 1.6667 17.357 1.6667 16.5713 1.6667 15V14.1667Z" stroke="currentColor" stroke-linecap="round" stroke-linejoin="round" stroke-width="2"/>
  <path d="M1.6667 7.0833V8.75M11.6667 1.6667H8.3333M18.3333 11.6667V8.3333M11.25 18.3333H12.9167M1.7166 4.5833C1.8449 3.6954 2.0946 3.0659 2.5802 2.5802 3.0659 2.0946 3.6954 1.8449 4.5833 1.7166M15.4167 1.7166C16.3047 1.8449 16.9342 2.0946 17.4198 2.5802 17.9054 3.0659 18.1551 3.6954 18.2834 4.5833M18.2834 15.4167C18.1551 16.3047 17.9054 16.9342 17.4198 17.4198 16.9342 17.9054 16.3047 18.1551 15.4167 18.2834" stroke="currentColor" stroke-linecap="round" stroke-width="2"/>
</svg>
