<svg xmlns="http://www.w3.org/2000/svg" width="20" height="20" viewBox="0 0 20 20" fill="none">
  <path d="M6.5524 10.5512L8.3316 12.0772 10.5533 3.5545C10.7179 2.9228 11.288 2.4821 11.9403 2.4821 12.8649 2.4821 13.5477 3.3451 13.3355 4.2457L12.3342 8.4961 13.7408 8.7211C15.3488 8.9625 16.1529 9.0831 16.7192 9.4227 17.6547 9.9835 18.3323 10.8257 18.3323 12.0552 18.3323 12.9115 18.1208 13.4861 17.6067 15.0297 17.2804 16.0092 17.1173 16.499 16.8513 16.8866 16.4133 17.5249 15.7671 17.9908 15.0236 18.2049 14.5719 18.3347 14.0561 18.3347 13.0243 18.3347H12.1498C10.7781 18.3347 10.0922 18.3347 9.4817 18.0829 9.3723 18.0377 9.2652 17.9868 9.1612 17.9303 8.5808 17.6148 8.1483 17.0822 7.2834 16.0169L4.4832 12.568C4.0529 12.0382 4.05 11.2796 4.4763 10.7464 4.9887 10.1055 5.9297 10.017 6.5524 10.5512Z" stroke="currentColor" stroke-linecap="round" stroke-linejoin="round" stroke-width="2"/>
  <path d="M6.11 1.7533C6.11 1.7533 7.9603 1.5331 8.2258 1.7948 8.4304 1.9965 8.2258 3.8471 8.2258 3.8471M8.2258 1.7948L5.7505 4.2465M3.8742 8.2154C3.8742 8.2154 2.0239 8.4356 1.7584 8.174 1.5538 7.9722 1.7584 6.1217 1.7584 6.1217M1.7584 8.174L4.2338 5.7223" stroke="currentColor" stroke-linecap="round" stroke-linejoin="round" stroke-width="2"/>
</svg>
