<svg xmlns="http://www.w3.org/2000/svg" width="20" height="20" viewBox="0 0 20 20" fill="none">
  <path d="M11.7546 8.598L12.4235 4.7056C12.5343 4.0607 12.1147 3.4457 11.4862 3.332 10.8576 3.2183 10.2582 3.6489 10.1473 4.2938L8.8095 12.0786 8.6986 12.6819 7.201 11.09C6.6576 10.5263 5.7626 10.5777 5.2825 11.2002 4.9152 11.6766 4.9051 12.3503 5.2579 12.8384L7.5538 16.0145C8.0749 16.7353 8.3354 17.0958 8.6489 17.3758 9.1273 17.8032 9.7004 18.1006 10.3169 18.2412 10.721 18.3332 11.1553 18.3332 12.0237 18.3332H13.538C15.5309 18.3332 17.2448 16.9202 17.6273 14.9618L18.2487 11.7796 18.3156 11.3903C18.4264 10.7454 18.0068 10.1305 17.3782 10.0168 16.7496 9.903 16.1502 10.3337 16.0394 10.9786L15.9725 11.3678M11.7546 8.598L11.5539 9.7658M11.7546 8.598C11.8654 7.9531 12.4648 7.5225 13.0934 7.6362 13.7219 7.7499 14.1417 8.3649 14.0308 9.0098L13.897 9.7883M13.897 9.7883L13.8301 10.1775M13.897 9.7883C14.0078 9.1433 14.6073 8.7127 15.2358 8.8264 15.8643 8.9402 16.284 9.5552 16.1732 10.2001L16.1063 10.5893" stroke="currentColor" stroke-linecap="round" stroke-linejoin="round" stroke-width="2"/>
  <path d="M8.2286 3.8483C8.2286 3.8483 8.4333 1.9953 8.2286 1.7933M8.2286 1.7933C7.9629 1.5313 6.1114 1.7518 6.1114 1.7518M8.2286 1.7933L5.7516 4.2482M1.7569 6.1258C1.7569 6.1258 1.5521 7.9788 1.7569 8.1808M1.7569 8.1808C2.0225 8.4428 3.874 8.2223 3.874 8.2223M1.7569 8.1808L4.2339 5.7259" stroke="currentColor" stroke-linecap="round" stroke-linejoin="round" stroke-width="2"/>
</svg>
