<svg xmlns="http://www.w3.org/2000/svg" width="20" height="20" viewBox="0 0 20 20" fill="none">
  <path d="M16.6053 18.543V17.2425C16.6053 16.9067 16.7104 16.5805 16.8866 16.2943 18.1319 14.2704 18.5233 12.0997 18.2502 11.2542 17.3808 9.4515 14.4798 8.7423 13.1333 8.5732L13.9972 4.2691C14.1421 3.5866 13.6261 2.8995 12.8446 2.7345 12.0632 2.5695 11.3122 2.989 11.1673 3.6715L9.4552 11.7346 7.3122 10.3687C7.3122 10.3687 6.2331 9.505 5.367 10.3687 4.501 11.2323 5.367 12.3084 5.367 12.3084L8.624 16.4813C8.8336 16.7497 8.9557 17.0757 8.974 17.4153L9.0334 18.5148" stroke="currentColor" stroke-linecap="round" stroke-linejoin="round" stroke-width="2"/>
  <path d="M6.1078 1.5433C6.1078 1.5433 7.9572 1.3233 8.2225 1.5846 8.427 1.7861 8.2225 3.6345 8.2225 3.6345M8.2225 1.5846L5.7484 4.0334M3.8731 7.9975C3.8731 7.9975 2.0237 8.2174 1.7584 7.9561 1.5539 7.7546 1.7584 5.9063 1.7584 5.9063M1.7584 7.9561L4.2325 5.5074" stroke="currentColor" stroke-linecap="round" stroke-linejoin="round" stroke-width="2"/>
</svg>
