<svg xmlns="http://www.w3.org/2000/svg" width="20" height="20" viewBox="0 0 20 20" fill="none">
  <path d="M7.0833 14.1667H3.3333C1.9544 14.1667 1.6667 14.4544 1.6667 15.8333V16.6667C1.6667 18.0456 1.9544 18.3333 3.3333 18.3333H16.6667C18.0456 18.3333 18.3333 18.0456 18.3333 16.6667V15.8333C18.3333 14.4544 18.0456 14.1667 16.6667 14.1667H12.9167" stroke="currentColor" stroke-linecap="round" stroke-linejoin="round" stroke-width="2"/>
  <path d="M7.5 10H5C3.6211 10 3.3333 10.2878 3.3333 11.6667V14.1667M12.5 10H15C16.3789 10 16.6667 10.2878 16.6667 11.6667V14.1667" stroke="currentColor" stroke-linecap="round" stroke-linejoin="round" stroke-width="2"/>
  <path d="M5 10V7.5C5 6.1211 5.2878 5.8333 6.6667 5.8333H13.3333C14.7122 5.8333 15 6.1211 15 7.5V10" stroke="currentColor" stroke-linecap="round" stroke-linejoin="round" stroke-width="2"/>
  <path d="M7.5 5.8333V3.3333C7.5 1.9544 7.7878 1.6667 9.1667 1.6667H10.8333C12.2123 1.6667 12.5 1.9544 12.5 3.3333V5.8333" stroke="currentColor" stroke-linecap="round" stroke-linejoin="round" stroke-width="2"/>
  <path d="M11.25 5.8333L13.3333 18.3333M8.75 5.8333L6.6667 18.3333" stroke="currentColor" stroke-linecap="round" stroke-linejoin="round" stroke-width="2"/>
</svg>
