<svg xmlns="http://www.w3.org/2000/svg" width="20" height="20" viewBox="0 0 20 20" fill="none">
  <path d="M2.0833 6.8223C2.1701 5.0725 2.4295 3.9816 3.2055 3.2055 3.9816 2.4295 5.0725 2.1701 6.8223 2.0833M17.9167 6.8223C17.8299 5.0725 17.5705 3.9816 16.7945 3.2055 16.0184 2.4295 14.9274 2.1701 13.1777 2.0833M13.1777 17.9167C14.9274 17.8299 16.0184 17.5705 16.7945 16.7945 17.5705 16.0184 17.8299 14.9274 17.9167 13.1777M6.8223 17.9167C5.0725 17.8299 3.9816 17.5705 3.2055 16.7945 2.4295 16.0184 2.1701 14.9274 2.0833 13.1777" stroke="currentColor" stroke-linecap="round" stroke-linejoin="round" stroke-width="2"/>
  <path d="M11.852 7.0833C12.8705 7.0833 14.1668 7.9167 14.1668 9.4472 14.1668 10.8261 13.9353 11.811 13.0094 12.9929 12.3055 13.7917 11.3658 13.9919 10.3641 13.4325L10.0002 13.2469 9.6363 13.4325C8.6345 13.9919 7.6948 13.7917 6.9909 12.9929 6.065 11.811 5.8335 10.8261 5.8335 9.4472 5.8335 7.9167 7.1298 7.0833 8.1483 7.0833 9.1668 7.0833 9.5835 7.5 10.0002 7.9167 10.4168 7.5 10.8335 7.0833 11.852 7.0833Z" stroke="currentColor" stroke-linecap="round" stroke-linejoin="round" stroke-width="2"/>
  <path d="M10.8333 5.4167C10.4167 5.8333 10 6.6667 10 7.9167" stroke="currentColor" stroke-linecap="round" stroke-linejoin="round" stroke-width="2"/>
</svg>
