<svg xmlns="http://www.w3.org/2000/svg" width="20" height="20" viewBox="0 0 20 20" fill="none">
  <path d="M6.3543 2.9013C6.6153 2.3025 6.7458 2.0031 7.0052 1.8349 7.2647 1.6667 7.5959 1.6667 8.2585 1.6667H11.7415C12.4041 1.6667 12.7353 1.6667 12.9948 1.8349 13.2542 2.0031 13.3847 2.3025 13.6458 2.9013L15.3282 6.7614C15.7432 7.7136 15.9507 8.1896 15.7646 8.5973 15.5784 9.005 15.0787 9.1688 14.0792 9.4964L10 10.8333 5.9208 9.4964C4.9213 9.1688 4.4216 9.005 4.2354 8.5973 4.0492 8.1896 4.2567 7.7136 4.6717 6.7614L6.3543 2.9013Z" stroke="currentColor" fill-rule="evenodd" clip-rule="evenodd" stroke-linecap="round" stroke-linejoin="round" stroke-width="2"/>
  <path d="M10 10.8333L7.0833 2.0833M12.9167 9.5833L10 1.6667" stroke="currentColor" stroke-linecap="round" stroke-linejoin="round" stroke-width="2"/>
  <path d="M10.6478 11.3749L11.3078 12.7057C11.3978 12.8909 11.6378 13.0686 11.8402 13.1026L13.0363 13.303C13.8012 13.4315 13.9813 13.9911 13.4301 14.543L12.5002 15.4806C12.3427 15.6394 12.2564 15.9456 12.3052 16.1649L12.5714 17.3255C12.7814 18.2442 12.2977 18.5996 11.4915 18.1194L10.3704 17.4503C10.1679 17.3293 9.8342 17.3293 9.628 17.4503L8.5068 18.1194C7.7044 18.5996 7.217 18.2404 7.427 17.3255L7.6932 16.1649C7.7419 15.9456 7.6557 15.6394 7.4982 15.4806L6.5683 14.543C6.0209 13.9911 6.1971 13.4315 6.962 13.303L8.1581 13.1026C8.3568 13.0686 8.5968 12.8909 8.6868 12.7057L9.3468 11.3749C9.7067 10.6528 10.2917 10.6528 10.6478 11.3749Z" stroke="currentColor" stroke-linecap="round" stroke-linejoin="round" stroke-width="2"/>
</svg>
