<svg xmlns="http://www.w3.org/2000/svg" width="20" height="20" viewBox="0 0 20 20" fill="none">
  <circle cx="10" cy="13.75" r="4.583333333333334" stroke="currentColor" stroke-width="2"/>
  <path d="M9.1667 9.1667L5.1595 7.4493C4.3705 7.1111 3.9759 6.9421 3.7199 6.6349 3.6401 6.5392 3.5713 6.4349 3.5148 6.3239 3.3333 5.9676 3.3333 5.5383 3.3333 4.6798 3.3333 3.4173 3.3333 2.7861 3.6577 2.3454 3.7573 2.2101 3.8767 2.0906 4.012 1.9911 4.4528 1.6667 5.084 1.6667 6.3465 1.6667H13.6535C14.916 1.6667 15.5473 1.6667 15.988 1.9911 16.1232 2.0906 16.2427 2.2101 16.3423 2.3454 16.6667 2.7861 16.6667 3.4173 16.6667 4.6798 16.6667 5.5383 16.6667 5.9676 16.4853 6.3239 16.4287 6.4349 16.3599 6.5392 16.2802 6.6349 16.0241 6.9421 15.6296 7.1111 14.8404 7.4493L10.8333 9.1667" stroke="currentColor" stroke-linecap="round" stroke-linejoin="round" stroke-width="2"/>
  <path d="M10 9.1667V1.6667" stroke="currentColor" stroke-linecap="round" stroke-linejoin="round" stroke-width="2"/>
  <circle cx="10" cy="13.75" r="1.25" stroke="currentColor" stroke-width="2"/>
</svg>
