<svg xmlns="http://www.w3.org/2000/svg" width="20" height="20" viewBox="0 0 20 20" fill="none">
  <path d="M10.6478 11.3749L11.3078 12.7057C11.3978 12.8909 11.6378 13.0686 11.8402 13.1026L13.0363 13.303C13.8012 13.4315 13.9813 13.9911 13.4301 14.543L12.5002 15.4806C12.3427 15.6394 12.2564 15.9456 12.3052 16.1649L12.5714 17.3255C12.7814 18.2442 12.2977 18.5996 11.4915 18.1194L10.3704 17.4503C10.1679 17.3293 9.8342 17.3293 9.628 17.4503L8.5068 18.1194C7.7044 18.5996 7.217 18.2404 7.427 17.3255L7.6932 16.1649C7.7419 15.9456 7.6557 15.6394 7.4982 15.4806L6.5683 14.543C6.0209 13.9911 6.1971 13.4315 6.962 13.303L8.1581 13.1026C8.3568 13.0686 8.5968 12.8909 8.6868 12.7057L9.3468 11.3749C9.7067 10.6528 10.2917 10.6528 10.6478 11.3749Z" stroke="currentColor" stroke-linecap="round" stroke-linejoin="round" stroke-width="2"/>
  <path d="M14.3823 1.6764H5.6176C4.9429 1.6764 4.0496 1.5452 3.5881 2.2467 3.3333 2.634 3.3333 3.1945 3.3333 4.3154 3.3333 5.271 3.3333 5.7489 3.5051 6.1514 3.7986 6.839 4.4546 7.1377 5.017 7.4625L7.7639 9.0493C8.8612 9.6831 9.4098 10 10 10 10.5902 10 11.1388 9.6831 12.2361 9.0493L14.983 7.4625C15.5453 7.1377 16.2014 6.839 16.4948 6.1514 16.6667 5.7489 16.6667 5.271 16.6667 4.3154 16.6667 3.1945 16.6667 2.634 16.4118 2.2467 15.9504 1.5452 15.0572 1.6764 14.3823 1.6764Z" stroke="currentColor" stroke-width="2"/>
  <path d="M10 1.6667V5.8333" stroke="currentColor" stroke-linecap="round" stroke-width="2"/>
</svg>
