<svg xmlns="http://www.w3.org/2000/svg" width="20" height="20" viewBox="0 0 20 20" fill="none">
  <path d="M2.5 4.2608C2.5 3.8002 2.5 3.57 2.5357 3.3781 2.6942 2.5276 3.3547 1.8623 4.1991 1.7027 4.3895 1.6667 4.6182 1.6667 5.0754 1.6667H14.9246C15.3818 1.6667 15.6104 1.6667 15.8009 1.7027 16.6453 1.8623 17.3058 2.5276 17.4642 3.3781 17.5 3.57 17.5 3.8002 17.5 4.2608 17.5 4.7127 17.5 4.9386 17.4737 5.1481 17.3591 6.0628 16.876 6.8898 16.1378 7.4351 15.9688 7.5599 15.7727 7.6697 15.3805 7.8891L13.2376 9.0883C11.6551 9.9738 10.8638 10.4167 10 10.4167 9.1363 10.4167 8.3449 9.9738 6.7624 9.0883L4.6195 7.8891C4.2273 7.6697 4.0313 7.5599 3.8622 7.4351 3.124 6.8898 2.641 6.0628 2.5263 5.1481 2.5 4.9386 2.5 4.7127 2.5 4.2608Z" stroke="currentColor" stroke-linecap="round" stroke-width="2"/>
  <path d="M6.6667 4.1667V5M10 4.1667V6.6667M13.3333 4.1667V5" stroke="currentColor" stroke-linecap="round" stroke-width="2"/>
  <path d="M10.6478 11.3749L11.3078 12.7057C11.3978 12.8909 11.6378 13.0686 11.8402 13.1026L13.0363 13.303C13.8012 13.4315 13.9813 13.9911 13.4301 14.543L12.5002 15.4806C12.3427 15.6394 12.2564 15.9456 12.3052 16.1649L12.5714 17.3255C12.7814 18.2442 12.2977 18.5996 11.4915 18.1194L10.3704 17.4503C10.1679 17.3293 9.8342 17.3293 9.628 17.4503L8.5068 18.1194C7.7044 18.5996 7.217 18.2404 7.427 17.3255L7.6932 16.1649C7.7419 15.9456 7.6557 15.6394 7.4982 15.4806L6.5683 14.543C6.0209 13.9911 6.1971 13.4315 6.962 13.303L8.1581 13.1026C8.3568 13.0686 8.5968 12.8909 8.6868 12.7057L9.3468 11.3749C9.7067 10.6528 10.2917 10.6528 10.6478 11.3749Z" stroke="currentColor" stroke-linecap="round" stroke-linejoin="round" stroke-width="2"/>
</svg>
