<svg xmlns="http://www.w3.org/2000/svg" width="20" height="20" viewBox="0 0 20 20" fill="none">
  <path d="M8.7743 11.3647C9.3732 11.0104 9.6726 10.8333 10 10.8333 10.3274 10.8333 10.6268 11.0104 11.2257 11.3647L12.059 11.8577C12.6806 12.2253 12.9913 12.4092 13.1623 12.7167 13.3333 13.0241 13.3333 13.3991 13.3333 14.1492V15.0175C13.3333 15.7676 13.3333 16.1426 13.1623 16.45 12.9913 16.7575 12.6806 16.9413 12.059 17.309L11.2257 17.802C10.6268 18.1563 10.3274 18.3333 10 18.3333 9.6726 18.3333 9.3732 18.1563 8.7743 17.802L7.941 17.309C7.3194 16.9413 7.0086 16.7575 6.8377 16.45 6.6667 16.1426 6.6667 15.7676 6.6667 15.0175V14.1492C6.6667 13.3991 6.6667 13.0241 6.8377 12.7167 7.0086 12.4092 7.3194 12.2253 7.941 11.8577L8.7743 11.3647Z" stroke="currentColor" stroke-linejoin="round" stroke-width="2"/>
  <path d="M14.3823 1.6764H5.6176C4.9429 1.6764 4.0496 1.5452 3.5881 2.2467 3.3333 2.634 3.3333 3.1945 3.3333 4.3154 3.3333 5.271 3.3333 5.7489 3.5051 6.1514 3.7986 6.839 4.4546 7.1377 5.017 7.4625L7.7639 9.0493C8.8612 9.6831 9.4098 10 10 10 10.5902 10 11.1388 9.6831 12.2361 9.0493L14.983 7.4625C15.5453 7.1377 16.2014 6.839 16.4948 6.1514 16.6667 5.7489 16.6667 5.271 16.6667 4.3154 16.6667 3.1945 16.6667 2.634 16.4118 2.2467 15.9504 1.5452 15.0572 1.6764 14.3823 1.6764Z" stroke="currentColor" stroke-width="2"/>
  <path d="M10 1.6667V5.8333" stroke="currentColor" stroke-linecap="round" stroke-width="2"/>
</svg>
