<svg xmlns="http://www.w3.org/2000/svg" width="20" height="20" viewBox="0 0 20 20" fill="none">
  <path d="M15.8333 7.5V6.5152C15.8333 5.1041 15.8333 4.3986 15.6232 3.8351 15.2853 2.9293 14.5708 2.2147 13.6649 1.8768 13.1014 1.6667 12.3959 1.6667 10.9848 1.6667 8.5155 1.6667 7.2809 1.6667 6.2948 2.0345 4.7095 2.6257 3.4591 3.8762 2.8678 5.4615 2.5 6.4475 2.5 7.6822 2.5 10.1515L2.5 12.2728C2.5 14.8305 2.5 16.1094 3.1649 16.9976 3.3554 17.2521 3.5813 17.478 3.8357 17.6685 4.7239 18.3333 6.0028 18.3333 8.5606 18.3333H9.1667C10.1415 18.3333 12.0833 18.3333 12.0833 18.3333" stroke="currentColor" stroke-linecap="round" stroke-linejoin="round" stroke-width="2"/>
  <path d="M9.1667 11.9444H9.8669C10.4183 11.9444 10.6938 11.9444 10.9154 12.0897 11.1369 12.2348 11.2602 12.4963 11.5068 13.0193L12.8333 15.8333 14.6667 10 15.9933 12.814C16.2398 13.337 16.3631 13.5985 16.5846 13.7437 16.8062 13.8889 17.0818 13.8889 17.6331 13.8889H18.3333" stroke="currentColor" stroke-linecap="round" stroke-linejoin="round" stroke-width="2"/>
  <path d="M2.5 10C2.5 8.4659 3.7437 7.2222 5.2778 7.2222H6.2037C6.6343 7.2222 6.8495 7.2222 7.0261 7.1749 7.5054 7.0465 7.8798 6.6721 8.0082 6.1928 8.0556 6.0162 8.0556 5.8009 8.0556 5.3704V4.4444C8.0556 2.9103 9.2993 1.6667 10.8333 1.6667" stroke="currentColor" stroke-linecap="round" stroke-linejoin="round" stroke-width="2"/>
</svg>
