<svg xmlns="http://www.w3.org/2000/svg" width="20" height="20" viewBox="0 0 20 20" fill="none">
  <path d="M8.3333 18.3333C5.9305 18.3333 4.8263 18.3333 4.0798 17.6011 3.3333 16.8688 3.3333 15.6903 3.3333 13.3333L3.3333 11.7429C3.3333 11.1178 3.3333 10.8053 3.3901 10.5046 3.4474 10.2008 3.5474 9.9064 3.6874 9.6297 3.8259 9.3558 4.0171 9.1058 4.3994 8.6057L4.7422 8.1574C4.9301 7.9115 5.0241 7.7886 5.0976 7.6654 5.481 7.0228 5.5524 6.246 5.2924 5.5464 5.2426 5.4123 5.1725 5.2749 5.0324 5M11.8286 5C11.6885 5.2749 11.6184 5.4123 11.5686 5.5464 11.3086 6.246 11.38 7.0228 11.7634 7.6654 11.8368 7.7886 11.9308 7.9115 12.1188 8.1574 12.4892 8.6417 13.0448 9.0576 13.3333 9.5833" stroke="currentColor" stroke-linecap="round" stroke-linejoin="round" stroke-width="2"/>
  <path d="M5.8904 1.6667H10.7763C11.5441 1.6667 11.9279 1.6667 12.1664 1.9107 12.6112 2.3659 12.6112 4.3008 12.1664 4.7559 11.9279 5 11.5441 5 10.7763 5H5.8904C5.1226 5 4.7387 5 4.5002 4.7559 4.0555 4.3008 4.0555 2.3659 4.5002 1.9107 4.7387 1.6667 5.1226 1.6667 5.8904 1.6667Z" stroke="currentColor" stroke-width="2"/>
  <path d="M15.4473 12.4215C16.8713 13.5881 17.0801 15.6883 15.9135 17.1123 14.7469 18.5363 12.6468 18.7451 11.2227 17.5785M15.4473 12.4215C14.0232 11.2549 11.9231 11.4637 10.7565 12.8877 9.5898 14.3117 9.7986 16.4119 11.2227 17.5785M15.4473 12.4215L11.2227 17.5785" stroke="currentColor" stroke-width="2"/>
</svg>
