<svg xmlns="http://www.w3.org/2000/svg" width="20" height="20" viewBox="0 0 20 20" fill="none">
  <path d="M16.8277 10.8325C18.2084 13.224 17.3891 16.2819 14.9976 17.6627 12.6061 19.0434 9.5482 18.224 8.1675 15.8325M16.8277 10.8325C15.447 8.4411 12.3891 7.6217 9.9976 9.0024 7.6061 10.3832 6.7867 13.4411 8.1675 15.8325M16.8277 10.8325L8.1675 15.8325" stroke="currentColor" stroke-width="2"/>
  <path d="M8.369 4.6184L12.6065 2.1145C14.1667 1.1926 16.1617 1.7397 17.0624 3.3365 17.7861 4.6193 17.5833 6.1893 16.6667 7.2352M8.369 4.6184L4.1315 7.1222C2.5714 8.0441 2.0368 10.0859 2.9376 11.6827 3.4792 12.6428 4.4163 13.2233 5.4167 13.3333M8.369 4.6184L9.5833 6.6667" stroke="currentColor" stroke-linecap="round" stroke-linejoin="round" stroke-width="2"/>
</svg>
