<svg xmlns="http://www.w3.org/2000/svg" width="20" height="20" viewBox="0 0 20 20" fill="none">
  <path d="M14.1667 13.3333V6.6667C14.1667 4.7025 14.1667 3.7204 13.5565 3.1102 12.9463 2.5 11.9642 2.5 10 2.5H6.6667C4.7025 2.5 3.7204 2.5 3.1102 3.1102 2.5 3.7204 2.5 4.7025 2.5 6.6667V13.3333C2.5 15.2975 2.5 16.2796 3.1102 16.8898 3.7204 17.5 4.7025 17.5 6.6667 17.5H10C11.9642 17.5 12.9463 17.5 13.5565 16.8898 14.1667 16.2796 14.1667 15.2975 14.1667 13.3333Z" stroke="currentColor" stroke-width="2"/>
  <path d="M9.1667 17.5H14.1667C15.738 17.5 16.5237 17.5 17.0118 17.0118 17.5 16.5237 17.5 15.738 17.5 14.1667V8.3333C17.5 6.762 17.5 5.9763 17.0118 5.4882 16.5237 5 15.738 5 14.1667 5" stroke="currentColor" stroke-width="2"/>
  <path d="M10.8333 9.1667V10.8333" stroke="currentColor" stroke-linecap="round" stroke-width="2"/>
</svg>
