<svg xmlns="http://www.w3.org/2000/svg" width="20" height="20" viewBox="0 0 20 20" fill="none">
  <path d="M12.4386 2.4259L6.8946 5.0871C6.4679 5.2919 6.012 5.3432 5.5473 5.2391 5.2431 5.171 5.0911 5.1369 4.9686 5.1229 3.4479 4.9493 2.5 6.1528 2.5 7.5369V8.2964C2.5 9.6805 3.4479 10.8841 4.9686 10.7104 5.0911 10.6964 5.2431 10.6623 5.5473 10.5943 6.012 10.4901 6.4679 10.5414 6.8946 10.7462L12.4386 13.4075C13.7112 14.0184 14.3475 14.3238 15.057 14.0857 15.7664 13.8477 16.0099 13.3368 16.497 12.315 17.8343 9.5093 17.8343 6.324 16.497 3.5183 16.0099 2.4966 15.7664 1.9857 15.057 1.7476 14.3475 1.5095 13.7112 1.815 12.4386 2.4259Z" stroke="currentColor" stroke-linecap="round" stroke-linejoin="round" stroke-width="2"/>
  <path d="M9.5484 17.3091L8.3056 18.3333C5.5043 16.1116 5.8465 15.0521 5.8465 10.8333H6.7914C7.1748 13.2174 8.0793 14.3467 9.3273 15.1642 10.096 15.6677 10.2545 16.7271 9.5484 17.3091Z" stroke="currentColor" stroke-linecap="round" stroke-linejoin="round" stroke-width="2"/>
  <path d="M6.25 10.4167V5.4167" stroke="currentColor" stroke-linecap="round" stroke-linejoin="round" stroke-width="2"/>
</svg>
