<svg xmlns="http://www.w3.org/2000/svg" width="20" height="20" viewBox="0 0 20 20" fill="none">
  <path d="M12.4386 3.6759L6.8946 6.3371C6.4679 6.5419 6.012 6.5932 5.5473 6.4891 5.2431 6.421 5.0911 6.3869 4.9686 6.3729 3.4479 6.1993 2.5 7.4028 2.5 8.7869V9.5464C2.5 10.9305 3.4479 12.1341 4.9686 11.9604 5.0911 11.9464 5.2431 11.9123 5.5473 11.8443 6.012 11.7401 6.4679 11.7914 6.8946 11.9962L12.4386 14.6575C13.7112 15.2684 14.3475 15.5738 15.057 15.3357 15.7664 15.0977 16.0099 14.5868 16.497 13.565 17.8343 10.7593 17.8343 7.574 16.497 4.7683 16.0099 3.7466 15.7664 3.2357 15.057 2.9976 14.3475 2.7595 13.7112 3.065 12.4386 3.6759Z" stroke="currentColor" stroke-linecap="round" stroke-linejoin="round" stroke-width="2"/>
  <path d="M10.8333 14.1667V14.5833C10.8333 15.6534 10.8333 16.1884 10.6467 16.4905 10.3978 16.8932 9.9427 17.1208 9.4711 17.0783 9.1174 17.0464 8.6894 16.7253 7.8333 16.0833L6.8333 15.3333C6.0188 14.7224 5.8333 14.3515 5.8333 13.3333V12.0833" stroke="currentColor" stroke-linecap="round" stroke-linejoin="round" stroke-width="2"/>
  <path d="M6.25 11.6667V6.6667" stroke="currentColor" stroke-linecap="round" stroke-linejoin="round" stroke-width="2"/>
</svg>
