<svg xmlns="http://www.w3.org/2000/svg" width="20" height="20" viewBox="0 0 20 20" fill="none">
  <path d="M5.8333 7.5V12.5" stroke="currentColor" stroke-linecap="round" stroke-linejoin="round" stroke-width="2"/>
  <path d="M5.8333 7.5H5C4.2234 7.5 3.8352 7.5 3.5289 7.6269 3.1205 7.796 2.796 8.1205 2.6269 8.5288 2.5 8.8352 2.5 9.2234 2.5 10 2.5 10.7766 2.5 11.1648 2.6269 11.4712 2.796 11.8795 3.1205 12.204 3.5289 12.3732 3.8352 12.5 4.2234 12.5 5 12.5H5.8333L12.5663 14.5199C13.3576 14.7573 13.7533 14.876 14.1047 15.0845L14.1216 15.0946C14.4719 15.3052 14.7639 15.5973 15.3481 16.1814L15.4882 16.3215C15.5876 16.4209 15.6373 16.4706 15.6925 16.5103 15.7967 16.5851 15.9169 16.6349 16.0436 16.6557 16.1106 16.6667 16.1809 16.6667 16.3215 16.6667 16.6427 16.6667 16.8034 16.6667 16.933 16.6229 17.1796 16.5398 17.3731 16.3463 17.4563 16.0997 17.5 15.9701 17.5 15.8094 17.5 15.4882V4.5118C17.5 4.1906 17.5 4.0299 17.4563 3.9003 17.3731 3.6538 17.1796 3.4602 16.933 3.377 16.8034 3.3333 16.6427 3.3333 16.3215 3.3333 16.1809 3.3333 16.1106 3.3333 16.0436 3.3443 15.9169 3.3651 15.7967 3.4149 15.6925 3.4898 15.6373 3.5294 15.5876 3.5791 15.4882 3.6785L15.3481 3.8186C14.7639 4.4027 14.4719 4.6948 14.1216 4.9054L14.1047 4.9155C13.7533 5.124 13.3576 5.2427 12.5663 5.4801L5.8333 7.5Z" stroke="currentColor" stroke-linecap="round" stroke-linejoin="round" stroke-width="2"/>
  <path d="M6.6667 12.9167V15.0382C6.6667 15.9376 7.3958 16.6667 8.2951 16.6667 8.8396 16.6667 9.3481 16.3946 9.6501 15.9415L10.8333 14.1667" stroke="currentColor" stroke-linecap="round" stroke-linejoin="round" stroke-width="2"/>
</svg>
