<svg xmlns="http://www.w3.org/2000/svg" width="20" height="20" viewBox="0 0 20 20" fill="none">
  <path d="M12.9917 14.7838C12.4677 15.1348 11.0938 15.8515 11.9306 16.7483 12.3393 17.1864 12.7947 17.4998 13.367 17.4998H15 16.633C17.2053 17.4998 17.6607 17.1864 18.0694 16.7483 18.9062 15.8515 17.5323 15.1348 17.0083 14.7838 15.7796 13.9607 14.2204 13.9607 12.9917 14.7838Z" stroke="currentColor" stroke-width="2"/>
  <path d="M16.6667 10.4165C16.6667 11.337 15.9205 12.0832 15 12.0832 14.0795 12.0832 13.3333 11.337 13.3333 10.4165 13.3333 9.496 14.0795 8.7498 15 8.7498 15.9205 8.7498 16.6667 9.496 16.6667 10.4165Z" stroke="currentColor" stroke-width="2"/>
  <path d="M8.3333 4.9998H12.5M8.3333 2.4998H15" stroke="currentColor" stroke-linecap="round" stroke-linejoin="round" stroke-width="2"/>
  <path d="M5.8333 7.9165V11.6665C5.8333 12.4522 5.8333 12.845 5.5893 13.0891 5.3452 13.3332 4.9523 13.3332 4.1667 13.3332H3.3333C2.5477 13.3332 2.1548 13.3332 1.9107 13.0891 1.6667 12.845 1.6667 12.4522 1.6667 11.6665V9.5832C1.6667 8.7975 1.6667 8.4047 1.9107 8.1605 2.1548 7.9165 2.5477 7.9165 3.3333 7.9165H5.8333ZM5.8333 7.9165H10" stroke="currentColor" stroke-linecap="round" stroke-linejoin="round" stroke-width="2"/>
  <path d="M5.4167 4.1665C5.4167 5.0869 4.6705 5.8331 3.75 5.8331 2.8295 5.8331 2.0833 5.0869 2.0833 4.1665 2.0833 3.246 2.8295 2.4998 3.75 2.4998 4.6705 2.4998 5.4167 3.246 5.4167 4.1665Z" stroke="currentColor" stroke-width="2"/>
</svg>
