<svg xmlns="http://www.w3.org/2000/svg" width="20" height="20" viewBox="0 0 20 20" fill="none">
  <path d="M10 18.3333L8.3333 13.3333H1.6667L3.3333 18.3333H10ZM10 18.3333H13.3333" stroke="currentColor" stroke-linecap="round" stroke-linejoin="round" stroke-width="2"/>
  <path d="M10 10.8333V10.4167C10 8.8453 10 8.0596 9.5118 7.5715 9.0237 7.0833 8.238 7.0833 6.6667 7.0833 5.0953 7.0833 4.3096 7.0833 3.8215 7.5715 3.3333 8.0596 3.3333 8.8453 3.3333 10.4167V10.8333" stroke="currentColor" stroke-linecap="round" stroke-linejoin="round" stroke-width="2"/>
  <path d="M15.8333 10.8333C15.8333 11.7538 15.0872 12.5 14.1667 12.5 13.2462 12.5 12.5 11.7538 12.5 10.8333 12.5 9.9128 13.2462 9.1667 14.1667 9.1667 15.0872 9.1667 15.8333 9.9128 15.8333 10.8333Z" stroke="currentColor" stroke-width="2"/>
  <path d="M8.3333 3.3333C8.3333 4.2538 7.5871 5 6.6667 5 5.7462 5 5 4.2538 5 3.3333 5 2.4129 5.7462 1.6667 6.6667 1.6667 7.5871 1.6667 8.3333 2.4129 8.3333 3.3333Z" stroke="currentColor" stroke-width="2"/>
  <path d="M11.6667 14.5833H16.6667C17.5872 14.5833 18.3333 15.3295 18.3333 16.25V16.6667C18.3333 17.5872 17.5872 18.3333 16.6667 18.3333H15.8333" stroke="currentColor" stroke-linecap="round" stroke-width="2"/>
</svg>
