<svg xmlns="http://www.w3.org/2000/svg" width="20" height="20" viewBox="0 0 20 20" fill="none">
  <path d="M8.3333 5C8.3333 3.1591 6.841 1.6667 5 1.6667 3.1591 1.6667 1.6667 3.1591 1.6667 5 1.6667 6.841 3.1591 8.3333 5 8.3333 6.841 8.3333 8.3333 6.841 8.3333 5Z" stroke="currentColor" stroke-width="2"/>
  <path d="M8.3333 15C8.3333 13.1591 6.841 11.6667 5 11.6667 3.1591 11.6667 1.6667 13.1591 1.6667 15 1.6667 16.8409 3.1591 18.3333 5 18.3333 6.841 18.3333 8.3333 16.8409 8.3333 15Z" stroke="currentColor" stroke-width="2"/>
  <path d="M18.3333 5C18.3333 3.1591 16.8409 1.6667 15 1.6667 13.1591 1.6667 11.6667 3.1591 11.6667 5 11.6667 6.841 13.1591 8.3333 15 8.3333 16.8409 8.3333 18.3333 6.841 18.3333 5Z" stroke="currentColor" stroke-width="2"/>
  <path d="M18.3333 15C18.3333 13.1591 16.8409 11.6667 15 11.6667 13.1591 11.6667 11.6667 13.1591 11.6667 15 11.6667 16.8409 13.1591 18.3333 15 18.3333 16.8409 18.3333 18.3333 16.8409 18.3333 15Z" stroke="currentColor" stroke-width="2"/>
</svg>
