<svg xmlns="http://www.w3.org/2000/svg" width="20" height="20" viewBox="0 0 20 20" fill="none">
  <path d="M16.6667 14.9998V8.3331C16.6667 6.7618 16.6667 5.9761 16.1785 5.488 15.6903 4.9998 14.9047 4.9998 13.3333 4.9998H3.3333V14.9998C3.3333 16.5712 3.3333 17.3568 3.8215 17.845 4.3096 18.3332 5.0953 18.3332 6.6667 18.3332H13.3333C14.9047 18.3332 15.6903 18.3332 16.1785 17.845 16.6667 17.3568 16.6667 16.5712 16.6667 14.9998Z" stroke="currentColor" stroke-linecap="round" stroke-linejoin="round" stroke-width="2"/>
  <path d="M10 9.1665C11.3808 9.1665 12.5 10.2858 12.5 11.6665M10 9.1665C8.6193 9.1665 7.5 10.2858 7.5 11.6665M10 9.1665V8.3331M12.5 11.6665H7.5M12.5 11.6665H13.3333M7.5 11.6665H6.6667" stroke="currentColor" stroke-linecap="round" stroke-linejoin="round" stroke-width="2"/>
  <path d="M6.6667 14.9998H13.3333" stroke="currentColor" stroke-linecap="round" stroke-linejoin="round" stroke-width="2"/>
  <path d="M3.3333 4.9998L9.4872 2.4213C10.8614 1.8456 11.5485 1.5577 12.0958 1.7043 12.4507 1.7994 12.7644 2.0097 12.9883 2.3026 13.3333 2.7542 13.3333 3.5027 13.3333 4.9998" stroke="currentColor" stroke-linecap="round" stroke-linejoin="round" stroke-width="2"/>
</svg>
