<svg xmlns="http://www.w3.org/2000/svg" width="20" height="20" viewBox="0 0 20 20" fill="none">
  <path d="M1.6667 15C1.6667 13.7163 1.6667 13.0744 1.9556 12.6029 2.1173 12.3391 2.3391 12.1173 2.6029 11.9556 3.0745 11.6667 3.7163 11.6667 5 11.6667 6.2837 11.6667 6.9256 11.6667 7.3971 11.9556 7.6609 12.1173 7.8827 12.3391 8.0444 12.6029 8.3333 13.0744 8.3333 13.7163 8.3333 15 8.3333 16.2837 8.3333 16.9256 8.0444 17.3971 7.8827 17.6609 7.6609 17.8828 7.3971 18.0444 6.9256 18.3333 6.2837 18.3333 5 18.3333 3.7163 18.3333 3.0745 18.3333 2.6029 18.0444 2.3391 17.8828 2.1173 17.6609 1.9556 17.3971 1.6667 16.9256 1.6667 16.2837 1.6667 15Z" stroke="currentColor" stroke-width="2"/>
  <path d="M11.6667 15C11.6667 13.7163 11.6667 13.0744 11.9556 12.6029 12.1173 12.3391 12.3391 12.1173 12.6029 11.9556 13.0744 11.6667 13.7163 11.6667 15 11.6667 16.2837 11.6667 16.9256 11.6667 17.3971 11.9556 17.6609 12.1173 17.8828 12.3391 18.0444 12.6029 18.3333 13.0744 18.3333 13.7163 18.3333 15 18.3333 16.2837 18.3333 16.9256 18.0444 17.3971 17.8828 17.6609 17.6609 17.8828 17.3971 18.0444 16.9256 18.3333 16.2837 18.3333 15 18.3333 13.7163 18.3333 13.0744 18.3333 12.6029 18.0444 12.3391 17.8828 12.1173 17.6609 11.9556 17.3971 11.6667 16.9256 11.6667 16.2837 11.6667 15Z" stroke="currentColor" stroke-width="2"/>
  <path d="M1.6667 5C1.6667 3.7163 1.6667 3.0745 1.9556 2.6029 2.1173 2.3391 2.3391 2.1173 2.6029 1.9556 3.0745 1.6667 3.7163 1.6667 5 1.6667 6.2837 1.6667 6.9256 1.6667 7.3971 1.9556 7.6609 2.1173 7.8827 2.3391 8.0444 2.6029 8.3333 3.0745 8.3333 3.7163 8.3333 5 8.3333 6.2837 8.3333 6.9256 8.0444 7.3971 7.8827 7.6609 7.6609 7.8827 7.3971 8.0444 6.9256 8.3333 6.2837 8.3333 5 8.3333 3.7163 8.3333 3.0745 8.3333 2.6029 8.0444 2.3391 7.8827 2.1173 7.6609 1.9556 7.3971 1.6667 6.9256 1.6667 6.2837 1.6667 5Z" stroke="currentColor" stroke-width="2"/>
  <path d="M11.6667 5C11.6667 3.7163 11.6667 3.0745 11.9556 2.6029 12.1173 2.3391 12.3391 2.1173 12.6029 1.9556 13.0744 1.6667 13.7163 1.6667 15 1.6667 16.2837 1.6667 16.9256 1.6667 17.3971 1.9556 17.6609 2.1173 17.8828 2.3391 18.0444 2.6029 18.3333 3.0745 18.3333 3.7163 18.3333 5 18.3333 6.2837 18.3333 6.9256 18.0444 7.3971 17.8828 7.6609 17.6609 7.8827 17.3971 8.0444 16.9256 8.3333 16.2837 8.3333 15 8.3333 13.7163 8.3333 13.0744 8.3333 12.6029 8.0444 12.3391 7.8827 12.1173 7.6609 11.9556 7.3971 11.6667 6.9256 11.6667 6.2837 11.6667 5Z" stroke="currentColor" stroke-width="2"/>
</svg>
