<svg xmlns="http://www.w3.org/2000/svg" width="20" height="20" viewBox="0 0 20 20" fill="none">
  <path d="M1.6992 6.8669C1.6968 6.9358 1.6945 7.0051 1.6923 7.0746 1.6755 7.6153 1.6667 8.1725 1.6667 8.7416M18.3333 8.7416C18.3333 8.1726 18.3245 7.6156 18.3077 7.0749M6.6667 15.3432V17.3C6.6667 17.6359 6.939 17.9082 7.2749 17.9082 7.4202 17.9082 7.5606 17.8563 7.6709 17.7617L9.4871 16.2043C9.9437 15.8128 10.172 15.6171 10.4433 15.5137 10.7147 15.4104 11.0235 15.4046 11.6411 15.3928 12.2198 15.3819 12.785 15.3652 13.3333 15.3432M11.6667 2.0909C12.2365 2.1018 12.7931 2.1184 13.3333 2.14M16.6667 2.5796C16.9352 2.7032 17.1714 2.8676 17.3916 3.0895 17.5922 3.2916 17.7449 3.5048 17.8623 3.7416M18.2318 12.0749C18.1498 13.1391 17.9687 13.8123 17.3916 14.3938 17.1714 14.6156 16.9352 14.78 16.6667 14.9036M8.3333 2.0909C7.7635 2.1018 7.2069 2.1184 6.6667 2.14M3.3333 2.5796C3.0648 2.7032 2.8286 2.8676 2.6084 3.0895 2.4079 3.2915 2.2552 3.5046 2.1379 3.7412M1.7682 12.0746C1.8502 13.139 2.0313 13.8123 2.6084 14.3938 2.8286 14.6156 3.0648 14.78 3.3333 14.9036" stroke="currentColor" stroke-linecap="round" stroke-linejoin="round" stroke-width="2"/>
</svg>
