<svg xmlns="http://www.w3.org/2000/svg" width="20" height="20" viewBox="0 0 20 20" fill="none">
  <path d="M6.25 10H11.25M6.25 6.6667H8.75" stroke="currentColor" stroke-linecap="round" stroke-linejoin="round" stroke-width="2"/>
  <path d="M7.0833 16.6667C7.9587 17.3914 9.0121 17.8532 10.2196 17.9323 11.171 17.9947 12.1642 17.9947 13.1137 17.9323 13.4407 17.9109 13.7971 17.8339 14.104 17.7092 14.4454 17.5704 14.6163 17.501 14.7031 17.5115 14.7898 17.522 14.9158 17.6137 15.1676 17.7969 15.6116 18.12 16.1709 18.3521 17.0004 18.3322 17.4198 18.3221 17.6296 18.317 17.7234 18.1591 17.8173 18.0011 17.7004 17.7824 17.4665 17.3451 17.1422 16.7385 16.9367 16.0441 17.2481 15.4877 17.7844 14.6929 18.2399 13.7517 18.3065 12.7353 18.3422 12.1891 18.3422 11.6234 18.3065 11.0773 18.2622 10.3999 18.0978 9.7561 17.8343 9.1667" stroke="currentColor" stroke-linecap="round" stroke-linejoin="round" stroke-width="2"/>
  <path d="M10.2875 14.5723C13.2505 14.3772 15.6107 12.0058 15.8048 9.0287 15.8428 8.4461 15.8428 7.8428 15.8048 7.2602 15.6107 4.2831 13.2505 1.9117 10.2875 1.7165 9.2767 1.65 8.2213 1.6501 7.2125 1.7165 4.2495 1.9117 1.8894 4.2831 1.6952 7.2602 1.6572 7.8428 1.6572 8.4461 1.6952 9.0287 1.7659 10.113 2.2499 11.1169 2.8198 11.9647 3.1506 12.5581 2.9323 13.2988 2.5877 13.9458 2.3392 14.4123 2.2149 14.6456 2.3147 14.8141 2.4144 14.9826 2.6373 14.988 3.0829 14.9988 3.9643 15.02 4.5586 14.7724 5.0303 14.4278 5.2979 14.2323 5.4317 14.1346 5.5239 14.1234 5.6161 14.1122 5.7975 14.1862 6.1603 14.3343 6.4865 14.4673 6.8651 14.5494 7.2125 14.5723 8.2213 14.6388 9.2767 14.6388 10.2875 14.5723Z" stroke="currentColor" stroke-linejoin="round" stroke-width="2"/>
</svg>
