<svg xmlns="http://www.w3.org/2000/svg" width="20" height="20" viewBox="0 0 20 20" fill="none">
  <path d="M11.25 2.5281C10.2343 2.4821 9.1932 2.4926 8.1912 2.5592 4.7053 2.7909 1.9287 5.607 1.7002 9.1423 1.6555 9.8341 1.6555 10.5506 1.7002 11.2424 1.7834 12.53 2.3529 13.7222 3.0233 14.7288 3.4125 15.4336 3.1556 16.3132 2.7502 17.0815 2.4578 17.6355 2.3117 17.9125 2.429 18.1126 2.5464 18.3127 2.8086 18.3191 3.3329 18.3318 4.3697 18.3571 5.0689 18.0631 5.6239 17.6538 5.9387 17.4217 6.0961 17.3057 6.2045 17.2923 6.313 17.279 6.5265 17.3669 6.9533 17.5428 7.337 17.7007 7.7825 17.7983 8.1912 17.8254 9.378 17.9043 10.6196 17.9045 11.8088 17.8254 15.2947 17.5938 18.0713 14.7777 18.2998 11.2424 18.3174 10.97 18.3281 10.6937 18.3318 10.4167" stroke="currentColor" stroke-linecap="round" stroke-linejoin="round" stroke-width="2"/>
  <path d="M7.0833 12.5H12.9167M7.0833 8.3333H10" stroke="currentColor" stroke-linecap="round" stroke-linejoin="round" stroke-width="2"/>
  <path d="M14.1667 3.75C14.5762 3.3286 15.6665 1.6667 16.25 1.6667M18.3333 3.75C17.9238 3.3286 16.8335 1.6667 16.25 1.6667M16.25 1.6667V8.3333" stroke="currentColor" stroke-linecap="round" stroke-linejoin="round" stroke-width="2"/>
</svg>
