<svg xmlns="http://www.w3.org/2000/svg" width="20" height="20" viewBox="0 0 20 20" fill="none">
  <path d="M18.3333 10C18.3333 14.1422 15.944 17.5 10 17.5 8.7492 17.5 7.6724 17.3778 6.7487 17.1513 6.2557 17.0303 5.7354 17.1792 5.327 17.4805 4.7518 17.9048 3.8462 18.3333 2.5 18.3333 3.3271 17.7778 3.8607 16.25 2.8097 14.5833 1.9753 13.3159 1.6667 11.726 1.6667 10 1.6667 5.8579 3.444 2.5 10 2.5" stroke="currentColor" stroke-linecap="round" stroke-linejoin="round" stroke-width="2"/>
  <path d="M10.104 10H9.9998M6.7708 10H6.6667M10.2082 10C10.2082 10.1151 10.1149 10.2083 9.9998 10.2083 9.8848 10.2083 9.7915 10.1151 9.7915 10 9.7915 9.8849 9.8848 9.7917 9.9998 9.7917 10.1149 9.7917 10.2082 9.8849 10.2082 10ZM6.875 10C6.875 10.1151 6.7817 10.2083 6.6667 10.2083 6.5516 10.2083 6.4583 10.1151 6.4583 10 6.4583 9.8849 6.5516 9.7917 6.6667 9.7917 6.7817 9.7917 6.875 9.8849 6.875 10Z" stroke="currentColor" stroke-linecap="round" stroke-linejoin="round" stroke-width="2"/>
  <path d="M18.3333 4.6837V3.0411C18.3333 2.7828 18.1436 2.5683 17.8975 2.5243 16.9058 2.347 16.0825 1.9526 15.6808 1.7339 15.5164 1.6443 15.3169 1.6443 15.1525 1.7339 14.7508 1.9526 13.9276 2.347 12.9358 2.5243 12.6898 2.5683 12.5 2.7828 12.5 3.0411V4.6837C12.5 6.8265 14.6187 7.9953 15.2446 8.2938 15.355 8.3465 15.4783 8.3465 15.5887 8.2938 16.2147 7.9953 18.3333 6.8265 18.3333 4.6837Z" stroke="currentColor" stroke-linecap="round" stroke-linejoin="round" stroke-width="2"/>
</svg>
