<svg xmlns="http://www.w3.org/2000/svg" width="20" height="20" viewBox="0 0 20 20" fill="none">
  <path d="M18.2037 8.1144C18.2948 8.717 18.3333 9.349 18.3333 10.0004 18.3333 14.1425 15.944 17.5004 10 17.5004 8.7492 17.5004 7.6724 17.3782 6.7487 17.1516 6.2557 17.0307 5.7354 17.1796 5.327 17.4809 4.7518 17.9053 3.8462 18.3337 2.5 18.3337 3.3271 17.7782 3.8607 16.2504 2.8097 14.5838 1.9753 13.3163 1.6667 11.7264 1.6667 10.0004 1.6667 6.2336 3.1365 3.1153 8.3333 2.5812" stroke="currentColor" stroke-linecap="round" stroke-linejoin="round" stroke-width="2"/>
  <path d="M10.104 9.9998H9.9998M13.4375 9.9998H13.3333M6.7708 9.9998H6.6667M10.2082 9.9998C10.2082 10.1148 10.1149 10.2082 9.9998 10.2082 9.8848 10.2082 9.7915 10.1148 9.7915 9.9998 9.7915 9.8848 9.8848 9.7915 9.9998 9.7915 10.1149 9.7915 10.2082 9.8848 10.2082 9.9998ZM13.5417 9.9998C13.5417 10.1148 13.4484 10.2082 13.3333 10.2082 13.2183 10.2082 13.125 10.1148 13.125 9.9998 13.125 9.8848 13.2183 9.7915 13.3333 9.7915 13.4484 9.7915 13.5417 9.8848 13.5417 9.9998ZM6.875 9.9998C6.875 10.1148 6.7817 10.2082 6.6667 10.2082 6.5516 10.2082 6.4583 10.1148 6.4583 9.9998 6.4583 9.8848 6.5516 9.7915 6.6667 9.7915 6.7817 9.7915 6.875 9.8848 6.875 9.9998Z" stroke="currentColor" stroke-linecap="round" stroke-linejoin="round" stroke-width="2"/>
  <path d="M14.6875 4.1665H14.5833M14.7917 4.1665C14.7917 4.2815 14.6984 4.3748 14.5833 4.3748 14.4682 4.3748 14.375 4.2815 14.375 4.1665 14.375 4.0514 14.4682 3.9581 14.5833 3.9581 14.6984 3.9581 14.7917 4.0514 14.7917 4.1665Z" stroke="currentColor" stroke-linecap="round" stroke-linejoin="round" stroke-width="2"/>
  <path d="M18.1623 3.8254C18.2763 3.9776 18.3333 4.0538 18.3333 4.1665 18.3333 4.2792 18.2763 4.3553 18.1623 4.5075 17.6501 5.1917 16.3418 6.6665 14.5833 6.6665 12.8249 6.6665 11.5166 5.1917 11.0043 4.5075 10.8903 4.3553 10.8333 4.2792 10.8333 4.1665 10.8333 4.0538 10.8903 3.9776 11.0043 3.8254 11.5166 3.1413 12.8249 1.6665 14.5833 1.6665 16.3418 1.6665 17.6501 3.1413 18.1623 3.8254Z" stroke="currentColor" stroke-linecap="round" stroke-linejoin="round" stroke-width="2"/>
</svg>
