<svg xmlns="http://www.w3.org/2000/svg" width="20" height="20" viewBox="0 0 20 20" fill="none">
  <path d="M18.2638 8.7501C18.2793 8.8797 18.2913 9.0106 18.2998 9.1423 18.3445 9.8342 18.3445 10.5507 18.2998 11.2425 18.0713 14.7778 15.2947 17.5938 11.8088 17.8255 10.6196 17.9046 9.378 17.9044 8.1912 17.8255 7.7825 17.7983 7.337 17.7008 6.9533 17.5428 6.5265 17.367 6.313 17.2791 6.2045 17.2924 6.0961 17.3057 5.9387 17.4218 5.6239 17.6539 5.0689 18.0632 4.3697 18.3572 3.3329 18.3319 2.8086 18.3192 2.5464 18.3128 2.429 18.1127 2.3117 17.9126 2.4578 17.6356 2.7502 17.0816 3.1556 16.3133 3.4125 15.4337 3.0233 14.7289 2.3529 13.7223 1.7834 12.5301 1.7002 11.2425 1.6555 10.5507 1.6555 9.8342 1.7002 9.1423 1.9287 5.6071 4.7053 2.791 8.1912 2.5593 9.1932 2.4927 10.2343 2.4822 11.25 2.5282" stroke="currentColor" stroke-linecap="round" stroke-linejoin="round" stroke-width="2"/>
  <path d="M7.0833 12.5001H12.9167M7.0833 8.3334H9.1667" stroke="currentColor" stroke-linecap="round" stroke-linejoin="round" stroke-width="2"/>
  <path d="M17.3903 2.0329L17.9672 2.6099C18.4554 3.098 18.4554 3.8895 17.9672 4.3776L14.9444 7.4573C14.7067 7.6951 14.4025 7.8554 14.0719 7.9172L12.1984 8.3239C11.9027 8.3881 11.6393 8.1255 11.7026 7.8295L12.1014 5.9667C12.1632 5.6361 12.3234 5.332 12.5612 5.0942L15.6225 2.0329C16.1107 1.5447 16.9022 1.5447 17.3903 2.0329Z" stroke="currentColor" stroke-linecap="round" stroke-linejoin="round" stroke-width="2"/>
</svg>
