<svg xmlns="http://www.w3.org/2000/svg" width="20" height="20" viewBox="0 0 20 20" fill="none">
  <path d="M11.6667 2.576C11.1497 2.526 10.595 2.5001 10 2.5001 3.444 2.5001 1.6667 5.858 1.6667 10.0001 1.6667 11.7262 1.9753 13.316 2.8097 14.5834 3.8607 16.2501 3.3271 17.7779 2.5 18.3334 3.8462 18.3334 4.7518 17.9049 5.327 17.4806 5.7354 17.1793 6.2557 17.0304 6.7487 17.1513 7.6724 17.3779 8.7492 17.5001 10 17.5001 15.944 17.5001 18.3333 14.1423 18.3333 10.0001 18.3333 9.1235 18.2637 8.282 18.0895 7.5001" stroke="currentColor" stroke-linecap="round" stroke-linejoin="round" stroke-width="2"/>
  <path d="M10.104 10.0001H9.9998M6.7708 10.0001H6.6667M10.2082 10.0001C10.2082 10.1152 10.1149 10.2084 9.9998 10.2084 9.8848 10.2084 9.7915 10.1152 9.7915 10.0001 9.7915 9.8851 9.8848 9.7918 9.9998 9.7918 10.1149 9.7918 10.2082 9.8851 10.2082 10.0001ZM6.875 10.0001C6.875 10.1152 6.7817 10.2084 6.6667 10.2084 6.5516 10.2084 6.4583 10.1152 6.4583 10.0001 6.4583 9.8851 6.5516 9.7918 6.6667 9.7918 6.7817 9.7918 6.875 9.8851 6.875 10.0001Z" stroke="currentColor" stroke-linecap="round" stroke-linejoin="round" stroke-width="2"/>
  <path d="M13.1537 5.0706L16.2921 1.9413C16.6597 1.5752 17.2557 1.5752 17.6232 1.9413L18.0577 2.3741C18.4252 2.7402 18.4252 3.3337 18.0577 3.6999L14.9482 6.8429C14.7692 7.0212 14.5401 7.1415 14.2912 7.1878L12.8805 7.4928C12.6578 7.5409 12.4594 7.344 12.5072 7.122L12.8074 5.725C12.8539 5.477 12.9746 5.2489 13.1537 5.0706Z" stroke="currentColor" stroke-linecap="round" stroke-linejoin="round" stroke-width="2"/>
</svg>
