<svg xmlns="http://www.w3.org/2000/svg" width="20" height="20" viewBox="0 0 20 20" fill="none">
  <path d="M9.5833 2.503C9.1152 2.51 8.6491 2.5287 8.1912 2.5592 4.7053 2.7909 1.9287 5.6069 1.7002 9.1423 1.6555 9.8341 1.6555 10.5505 1.7002 11.2423 1.7834 12.5299 2.3529 13.7221 3.0233 14.7288 3.4125 15.4336 3.1556 16.3132 2.7502 17.0815 2.4578 17.6354 2.3117 17.9124 2.429 18.1125 2.5464 18.3127 2.8086 18.319 3.3329 18.3318 4.3697 18.357 5.0689 18.0631 5.6239 17.6538 5.9387 17.4217 6.0961 17.3057 6.2045 17.2923 6.313 17.2789 6.5265 17.3669 6.9533 17.5427 7.337 17.7007 7.7825 17.7983 8.1912 17.8254 9.378 17.9043 10.6196 17.9044 11.8088 17.8254 15.2947 17.5937 18.0713 14.7777 18.2998 11.2423 18.3262 10.8334 18.337 10.4159 18.3323 10" stroke="currentColor" stroke-linecap="round" stroke-linejoin="round" stroke-width="2"/>
  <path d="M7.0833 12.5H12.9167M7.0833 8.3333H9.1667" stroke="currentColor" stroke-linecap="round" stroke-linejoin="round" stroke-width="2"/>
  <path d="M18.3333 4.5833V2.5C16.6667 2.5 15.4167 1.6667 15.4167 1.6667 15.4167 1.6667 14.1667 2.5 12.5 2.5V4.5833C12.5 7.5 15.4167 8.3333 15.4167 8.3333 15.4167 8.3333 18.3333 7.5 18.3333 4.5833Z" stroke="currentColor" stroke-linecap="round" stroke-linejoin="round" stroke-width="2"/>
</svg>
