<svg xmlns="http://www.w3.org/2000/svg" width="20" height="20" viewBox="0 0 20 20" fill="none">
  <path d="M18.0568 7.0833C18.0568 7.0833 18.6791 2.9823 18.0568 2.3599 17.4344 1.7376 13.3333 2.3599 13.3333 2.3599M17.5 2.9167L13.3333 7.0833" stroke="currentColor" stroke-linecap="round" stroke-linejoin="round" stroke-width="2"/>
  <path d="M18.3008 10.6248C18.231 12.6027 18.1961 13.5916 17.3916 14.4022 16.5872 15.2127 15.5703 15.2562 13.5364 15.3432 12.9248 15.3693 12.2915 15.3889 11.6411 15.4013 11.0235 15.4129 10.7147 15.4188 10.4433 15.5222 10.172 15.6255 9.9437 15.8212 9.4871 16.2128L7.6709 17.7702C7.5606 17.8647 7.4202 17.9167 7.2749 17.9167 6.939 17.9167 6.6667 17.6443 6.6667 17.3084V15.3516C6.5987 15.3488 6.531 15.3461 6.4635 15.3432 4.4297 15.2562 3.4129 15.2127 2.6084 14.4021 1.8039 13.5916 1.769 12.6027 1.6992 10.6248 1.6779 10.0193 1.6667 9.3923 1.6667 8.75 1.6667 8.1077 1.6779 7.4807 1.6992 6.8752 1.769 4.8974 1.8039 3.9084 2.6084 3.0979 3.4129 2.2873 4.4298 2.2438 6.4635 2.1568 7.5793 2.1091 8.7674 2.0833 10 2.0833" stroke="currentColor" stroke-linecap="round" stroke-linejoin="round" stroke-width="2"/>
</svg>
