<svg xmlns="http://www.w3.org/2000/svg" width="20" height="20" viewBox="0 0 20 20" fill="none">
  <path d="M5.8333 11.6667L7.4962 9.6713C8.0263 9.0352 8.2913 8.7171 8.6111 8.7171 8.9309 8.7171 9.1959 9.0352 9.7261 9.6713L10.2739 10.3288C10.8041 10.9648 11.0691 11.2829 11.3889 11.2829 11.7087 11.2829 11.9737 10.9648 12.5038 10.3288L14.1667 8.3333" stroke="currentColor" stroke-linecap="round" stroke-linejoin="round" stroke-width="2"/>
  <path d="M10 18.3333C14.6023 18.3333 18.3333 14.6023 18.3333 10 18.3333 5.3976 14.6023 1.6667 10 1.6667 5.3976 1.6667 1.6667 5.3976 1.6667 10 1.6667 11.1491 1.8992 12.2438 2.3199 13.2398 2.5523 13.7901 2.6686 14.0653 2.6829 14.2733 2.6973 14.4813 2.6361 14.7101 2.5137 15.1677L1.6667 18.3333 4.8323 17.4863C5.2899 17.3639 5.5187 17.3027 5.7267 17.3171 5.9347 17.3314 6.2099 17.4477 6.7603 17.6802 7.7562 18.1008 8.8509 18.3333 10 18.3333Z" stroke="currentColor" stroke-linejoin="round" stroke-width="2"/>
</svg>
