<svg xmlns="http://www.w3.org/2000/svg" width="20" height="20" viewBox="0 0 20 20" fill="none">
  <path d="M7.0833 12.5H12.9167M7.0833 8.3333H10" stroke="currentColor" stroke-linecap="round" stroke-linejoin="round" stroke-width="2"/>
  <path d="M18.2998 9.1423C18.3093 9.2883 18.3167 9.4355 18.3222 9.5833 18.3425 10.1355 18.3351 10.6966 18.2998 11.2423 18.0713 14.7777 15.2947 17.5937 11.8088 17.8254 10.6196 17.9044 9.378 17.9043 8.1912 17.8254 7.7825 17.7983 7.337 17.7007 6.9533 17.5427 6.5265 17.3669 6.313 17.2789 6.2045 17.2923 6.0961 17.3057 5.9387 17.4217 5.6239 17.6538 5.0689 18.0631 4.3697 18.357 3.3329 18.3318 2.8086 18.319 2.5464 18.3127 2.429 18.1125 2.3117 17.9124 2.4578 17.6354 2.7502 17.0815 3.1556 16.3132 3.4125 15.4336 3.0233 14.7288 2.3529 13.7221 1.7834 12.5299 1.7002 11.2423 1.6555 10.5505 1.6555 9.8341 1.7002 9.1423 1.9287 5.6069 4.7053 2.7909 8.1912 2.5592 8.6491 2.5287 8.6986 2.51 9.1667 2.503" stroke="currentColor" stroke-linecap="round" stroke-linejoin="round" stroke-width="2"/>
  <path d="M12.5125 1.9888C13.4063 1.4558 14.1865 1.6706 14.6553 2.0128 14.8474 2.1531 14.9435 2.2232 15 2.2232 15.0565 2.2232 15.1526 2.1531 15.3447 2.0128 15.8135 1.6706 16.5937 1.4558 17.4875 1.9888 18.6607 2.6885 18.9261 4.9965 16.2202 6.9437 15.7048 7.3146 15.4471 7.5 15 7.5 14.5529 7.5 14.2952 7.3146 13.7798 6.9437 11.0739 4.9965 11.3393 2.6885 12.5125 1.9888Z" stroke="currentColor" stroke-linecap="round" stroke-width="2"/>
</svg>
