<svg xmlns="http://www.w3.org/2000/svg" width="20" height="20" viewBox="0 0 20 20" fill="none">
  <path d="M10 2.5C3.444 2.5 1.6667 5.8579 1.6667 10 1.6667 11.726 1.9753 13.3159 2.8097 14.5833 3.8607 16.25 3.3271 17.7778 2.5 18.3333 3.8462 18.3333 4.7518 17.9048 5.327 17.4805 5.7354 17.1792 6.2557 17.0303 6.7487 17.1513 7.6724 17.3778 8.7492 17.5 10 17.5 15.5398 17.5 18.0254 14.5833 18.3333 10.8333" stroke="currentColor" stroke-linecap="round" stroke-linejoin="round" stroke-width="2"/>
  <path d="M10.104 10H9.9998M6.7708 10H6.6667M10.2082 10C10.2082 10.1151 10.1149 10.2083 9.9998 10.2083 9.8848 10.2083 9.7915 10.1151 9.7915 10 9.7915 9.8849 9.8848 9.7917 9.9998 9.7917 10.1149 9.7917 10.2082 9.8849 10.2082 10ZM6.875 10C6.875 10.1151 6.7817 10.2083 6.6667 10.2083 6.5516 10.2083 6.4583 10.1151 6.4583 10 6.4583 9.8849 6.5516 9.7917 6.6667 9.7917 6.7817 9.7917 6.875 9.8849 6.875 10Z" stroke="currentColor" stroke-linecap="round" stroke-linejoin="round" stroke-width="2"/>
  <path d="M13.75 4.5833H17.0833M13.75 4.5833V3.3333C13.75 2.4129 14.4962 1.6667 15.4167 1.6667 16.3372 1.6667 17.0833 2.4129 17.0833 3.3333V4.5833M13.75 4.5833C13.0597 4.5833 12.5 5.143 12.5 5.8333V7.0833C12.5 7.7737 13.0597 8.3333 13.75 8.3333H17.0833C17.7737 8.3333 18.3333 7.7737 18.3333 7.0833V5.8333C18.3333 5.143 17.7737 4.5833 17.0833 4.5833" stroke="currentColor" stroke-linecap="round" stroke-linejoin="round" stroke-width="2"/>
</svg>
