<svg xmlns="http://www.w3.org/2000/svg" width="20" height="20" viewBox="0 0 20 20" fill="none">
  <path d="M18.2343 8.3336C18.3036 8.8697 18.3333 9.4274 18.3333 10.0002 18.3333 14.1424 15.944 17.5003 10 17.5003 8.7492 17.5003 7.6724 17.3781 6.7487 17.1515 6.2557 17.0306 5.7354 17.1795 5.327 17.4808 4.7518 17.9052 3.8462 18.3336 2.5 18.3336 3.3271 17.7781 3.8607 16.2503 2.8097 14.5836 1.9753 13.3162 1.6667 11.7263 1.6667 10.0002 1.6667 6.2335 3.1365 3.1152 8.3333 2.5811" stroke="currentColor" stroke-linecap="round" stroke-linejoin="round" stroke-width="2"/>
  <path d="M6.6667 11.6663H13.3333M6.6667 8.333H10" stroke="currentColor" stroke-linecap="round" stroke-linejoin="round" stroke-width="2"/>
  <path d="M18.1623 3.8253C18.2763 3.9775 18.3333 4.0537 18.3333 4.1664 18.3333 4.279 18.2763 4.3552 18.1623 4.5074 17.6501 5.1916 16.3418 6.6664 14.5833 6.6664 12.8249 6.6664 11.5166 5.1916 11.0043 4.5074 10.8903 4.3552 10.8333 4.279 10.8333 4.1664 10.8333 4.0537 10.8903 3.9775 11.0043 3.8253 11.5166 3.1412 12.8249 1.6664 14.5833 1.6664 16.3418 1.6664 17.6501 3.1412 18.1623 3.8253Z" stroke="currentColor" stroke-linecap="round" stroke-width="2"/>
  <path d="M14.6875 4.1664H14.5833M14.7917 4.1664C14.7917 4.2814 14.6984 4.3747 14.5833 4.3747 14.4682 4.3747 14.375 4.2814 14.375 4.1664 14.375 4.0513 14.4682 3.958 14.5833 3.958 14.6984 3.958 14.7917 4.0513 14.7917 4.1664Z" stroke="currentColor" stroke-linecap="round" stroke-linejoin="round" stroke-width="2"/>
</svg>
