<svg xmlns="http://www.w3.org/2000/svg" width="20" height="20" viewBox="0 0 20 20" fill="none">
  <path d="M18.3333 11.2424C18.1044 14.7777 15.3222 17.5938 11.8293 17.8254 10.6377 17.9045 9.3935 17.9043 8.2043 17.8254 7.7948 17.7983 7.3484 17.7007 6.964 17.5428 6.5363 17.3669 6.3224 17.279 6.2137 17.2923 6.105 17.3057 5.9473 17.4217 5.6319 17.6538 5.0758 18.0631 4.3752 18.3571 3.3362 18.3318 2.8108 18.3191 2.5482 18.3127 2.4306 18.1126 2.313 17.9125 2.4594 17.6355 2.7524 17.0815 3.1586 16.3132 3.416 15.4336 3.026 14.7288 2.3542 13.7222 1.7836 12.53 1.7003 11.2424 1.6555 10.5506 1.6555 9.8341 1.7003 9.1423 1.9292 5.607 4.7115 2.7909 8.2043 2.5592 8.9353 2.5107 9.6868 2.492 10.4343 2.5031" stroke="currentColor" stroke-linecap="round" stroke-linejoin="round" stroke-width="2"/>
  <path d="M13.776 4.4666V3.2936C13.776 2.3951 14.5106 1.6667 15.4167 1.6667 15.8239 1.6667 16.1966 1.8138 16.4834 2.0575M14.8697 9.1667H15.9636C16.8148 9.1667 17.2403 9.1667 17.5624 8.9959 17.8168 8.8611 18.0252 8.6545 18.1612 8.4023 18.3333 8.0827 18.3333 7.6607 18.3333 6.8167 18.3333 5.9726 18.3333 5.5506 18.1612 5.2311 18.0252 4.9788 17.8168 4.7722 17.5624 4.6374 17.2403 4.4666 16.8148 4.4666 15.9636 4.4666H14.8697C14.0186 4.4666 13.593 4.4666 13.2709 4.6374 13.0165 4.7722 12.8082 4.9788 12.6722 5.2311 12.5 5.5506 12.5 5.9726 12.5 6.8167 12.5 7.6607 12.5 8.0827 12.6722 8.4023 12.8082 8.6545 13.0165 8.8611 13.2709 8.9959 13.593 9.1667 14.0186 9.1667 14.8697 9.1667Z" stroke="currentColor" stroke-linecap="round" stroke-width="2"/>
  <path d="M7.0833 12.5H12.9167M7.0833 8.3333H10" stroke="currentColor" stroke-linecap="round" stroke-linejoin="round" stroke-width="2"/>
</svg>
