<svg xmlns="http://www.w3.org/2000/svg" width="20" height="20" viewBox="0 0 20 20" fill="none">
  <path d="M10 17.0833C15.944 17.0833 18.3333 13.7255 18.3333 9.5833 18.3333 5.4412 16.7773 2.0833 10 2.0833 3.444 2.0833 1.6667 5.4412 1.6667 9.5833 1.6667 11.3093 1.9753 12.8993 2.8097 14.1667 3.8607 15.8333 3.3271 17.3611 2.5 17.9167 3.8462 17.9167 4.7518 17.4882 5.327 17.0638 5.7354 16.7625 6.2557 16.6137 6.7487 16.7346 7.6724 16.9611 8.7492 17.0833 10 17.0833Z" stroke="currentColor" stroke-linecap="round" stroke-linejoin="round" stroke-width="2"/>
  <path d="M10.104 9.5833H9.9998M13.4375 9.5833H13.3333M6.7708 9.5833H6.6667M10.2082 9.5833C10.2082 9.6984 10.1149 9.7917 9.9998 9.7917 9.8848 9.7917 9.7915 9.6984 9.7915 9.5833 9.7915 9.4683 9.8848 9.375 9.9998 9.375 10.1149 9.375 10.2082 9.4683 10.2082 9.5833ZM13.5417 9.5833C13.5417 9.6984 13.4484 9.7917 13.3333 9.7917 13.2183 9.7917 13.125 9.6984 13.125 9.5833 13.125 9.4683 13.2183 9.375 13.3333 9.375 13.4484 9.375 13.5417 9.4683 13.5417 9.5833ZM6.875 9.5833C6.875 9.6984 6.7817 9.7917 6.6667 9.7917 6.5516 9.7917 6.4583 9.6984 6.4583 9.5833 6.4583 9.4683 6.5516 9.375 6.6667 9.375 6.7817 9.375 6.875 9.4683 6.875 9.5833Z" stroke="currentColor" stroke-linecap="round" stroke-linejoin="round" stroke-width="2"/>
</svg>
