<svg xmlns="http://www.w3.org/2000/svg" width="20" height="20" viewBox="0 0 20 20" fill="none">
  <path d="M11.284 1.6667H8.716C5.2629 1.6667 3.5363 1.6667 2.5114 2.742 1.4866 3.8173 1.5943 5.5158 1.8097 8.9129L1.9595 11.2757C2.009 12.0564 2.0337 12.4467 2.1214 12.7723 2.4598 14.0297 3.4944 14.9878 4.7887 15.2423 5.1239 15.3082 5.5206 15.3082 6.3142 15.3082 6.5241 15.3082 6.6291 15.3082 6.7162 15.3261 7.0534 15.3952 7.3168 15.6548 7.3869 15.9872 7.4051 16.0731 7.4051 16.1765 7.4051 16.3834V17.1255C7.4051 17.8268 7.4051 18.1774 7.6335 18.2978 7.8619 18.4183 8.1579 18.2238 8.7498 17.8348L12.2729 15.5198C12.3761 15.452 12.4277 15.4181 12.4825 15.3922 12.5625 15.3543 12.6479 15.3288 12.7357 15.3166 12.796 15.3082 12.858 15.3082 12.9819 15.3082 14.4369 15.3082 15.1644 15.3082 15.7539 15.0893 16.6156 14.7694 17.3122 14.1243 17.6899 13.2966 17.9483 12.7303 17.9937 12.0146 18.0844 10.5832L18.1903 8.9129C18.4058 5.5158 18.5134 3.8173 17.4886 2.742 16.4638 1.6667 14.7372 1.6667 11.284 1.6667Z" stroke="currentColor" stroke-linejoin="round" stroke-width="2"/>
  <path d="M13.3333 6.6667L14.3554 7.5477C14.7852 7.918 15 8.1032 15 8.3333 15 8.5634 14.7852 8.7487 14.3554 9.119L13.3333 10" stroke="currentColor" stroke-linecap="round" stroke-linejoin="round" stroke-width="2"/>
  <path d="M6.6667 6.6667L5.6446 7.5477C5.2149 7.918 5 8.1032 5 8.3333 5 8.5634 5.2149 8.7487 5.6446 9.119L6.6667 10" stroke="currentColor" stroke-linecap="round" stroke-linejoin="round" stroke-width="2"/>
  <path d="M10.8333 5.8333L9.1667 10.8333" stroke="currentColor" stroke-linecap="round" stroke-linejoin="round" stroke-width="2"/>
</svg>
