<svg xmlns="http://www.w3.org/2000/svg" width="20" height="20" viewBox="0 0 20 20" fill="none">
  <path d="M10.4343 2.5H9.5993C9.1303 2.507 8.6632 2.5257 8.2043 2.5561 4.7115 2.7879 1.9292 5.6045 1.7003 9.1405 1.6555 9.8324 1.6555 10.549 1.7003 11.241 1.7836 12.5288 2.3542 13.7212 3.026 14.7282 3.416 15.433 3.1586 16.3128 2.7524 17.0813 2.4594 17.6353 2.313 17.9124 2.4306 18.1125 2.5482 18.3127 2.8108 18.3191 3.3362 18.3318 4.3752 18.3571 5.0758 18.0631 5.6319 17.6538 5.9473 17.4216 6.105 17.3055 6.2137 17.2922 6.3224 17.2788 6.5363 17.3667 6.964 17.5426 7.3484 17.7007 7.7948 17.7982 8.2043 17.8253 9.3935 17.9043 10.6377 17.9044 11.8293 17.8253 15.1808 17.603 17.9183 15.0008 18.3333 11.6667" stroke="currentColor" stroke-linecap="round" stroke-linejoin="round" stroke-width="2"/>
  <path d="M12.9917 7.2068C12.4677 7.514 11.0938 8.1411 11.9306 8.9258 12.3393 9.3092 12.7947 9.5833 13.367 9.5833H16.633C17.2053 9.5833 17.6607 9.3092 18.0694 8.9258 18.9062 8.1411 17.5323 7.514 17.0083 7.2068 15.7796 6.4866 14.2204 6.4866 12.9917 7.2068Z" stroke="currentColor" stroke-width="2"/>
  <path d="M16.6667 3.3333C16.6667 4.2538 15.9205 5 15 5 14.0795 5 13.3333 4.2538 13.3333 3.3333 13.3333 2.4129 14.0795 1.6667 15 1.6667 15.9205 1.6667 16.6667 2.4129 16.6667 3.3333Z" stroke="currentColor" stroke-width="2"/>
  <path d="M7.0833 12.5H12.9167M7.0833 8.3333H8.75" stroke="currentColor" stroke-linecap="round" stroke-linejoin="round" stroke-width="2"/>
</svg>
