<svg xmlns="http://www.w3.org/2000/svg" width="20" height="20" viewBox="0 0 20 20" fill="none">
  <path d="M6.4925 15.8333C6.2205 15.7234 6.0703 15.6702 5.9863 15.6805 5.8831 15.6931 5.7332 15.8031 5.4336 16.0229 4.9053 16.4107 4.2397 16.6892 3.2527 16.6653 2.7536 16.6532 2.5041 16.6471 2.3924 16.4575 2.2807 16.268 2.4198 16.0056 2.6981 15.4807 3.084 14.7528 3.3286 13.9196 2.958 13.2519 2.3199 12.2982 1.7778 11.1688 1.6986 9.9489 1.656 9.2935 1.656 8.6148 1.6986 7.9593 1.9161 4.6101 4.5592 1.9423 7.8774 1.7228 9.0072 1.648 10.1891 1.6479 11.3212 1.7228 14.6253 1.9414 17.26 4.5875 17.4971 7.9167" stroke="currentColor" stroke-linecap="round" stroke-linejoin="round" stroke-width="2"/>
  <path d="M12.248 18.0392C10.1565 17.9052 8.4905 16.2748 8.3534 14.2281 8.3266 13.8275 8.3266 13.4128 8.3534 13.0122 8.4905 10.9654 10.1565 9.3351 12.248 9.2009 12.9616 9.1552 13.7066 9.1553 14.4187 9.2009 16.5102 9.3351 18.1762 10.9654 18.3133 13.0122 18.34 13.4128 18.34 13.8275 18.3133 14.2281 18.2633 14.9735 17.9216 15.6638 17.5194 16.2465 17.2858 16.6545 17.44 17.1638 17.6833 17.6086 17.8587 17.9293 17.9463 18.0897 17.8759 18.2055 17.8055 18.3214 17.6482 18.3251 17.3336 18.3325 16.7115 18.3471 16.292 18.1769 15.959 17.9399 15.7702 17.8056 15.6757 17.7384 15.6106 17.7307 15.5455 17.7229 15.4174 17.7738 15.1613 17.8756 14.9312 17.9671 14.6638 18.0236 14.4187 18.0392 13.7066 18.085 12.9616 18.0851 12.248 18.0392Z" stroke="currentColor" stroke-linejoin="round" stroke-width="2"/>
</svg>
