<svg xmlns="http://www.w3.org/2000/svg" width="20" height="20" viewBox="0 0 20 20" fill="none">
  <path d="M10 17.0833C15.944 17.0833 18.3333 13.7255 18.3333 9.5833 18.3333 5.4412 16.7773 2.0833 10 2.0833 3.444 2.0833 1.6667 5.4412 1.6667 9.5833 1.6667 11.3093 1.9753 12.8993 2.8097 14.1667 3.8607 15.8333 3.3271 17.3611 2.5 17.9167 3.8462 17.9167 4.7518 17.4882 5.327 17.0638 5.7354 16.7625 6.2557 16.6137 6.7487 16.7346 7.6724 16.9611 8.7492 17.0833 10 17.0833Z" stroke="currentColor" stroke-linecap="round" stroke-linejoin="round" stroke-width="2"/>
  <path d="M8.3333 7.5C8.3333 6.5795 9.0795 5.8333 10 5.8333 10.9205 5.8333 11.6667 6.5795 11.6667 7.5 11.6667 7.9815 11.4625 8.4153 11.136 8.7195 10.631 9.1902 10 9.7263 10 10.4167M10.1042 13.125H10M10.2083 13.125C10.2083 13.2401 10.1151 13.3333 10 13.3333 9.8849 13.3333 9.7917 13.2401 9.7917 13.125 9.7917 13.0099 9.8849 12.9167 10 12.9167 10.1151 12.9167 10.2083 13.0099 10.2083 13.125Z" stroke="currentColor" stroke-linecap="round" stroke-linejoin="round" stroke-width="2"/>
</svg>
