<svg xmlns="http://www.w3.org/2000/svg" width="20" height="20" viewBox="0 0 20 20" fill="none">
  <path d="M7.0833 12.5H12.9167M7.0833 8.3333H8.75" stroke="currentColor" stroke-linecap="round" stroke-linejoin="round" stroke-width="2"/>
  <path d="M10 2.5C9.3923 2.5 8.7848 2.5198 8.1912 2.5592 4.7053 2.7909 1.9287 5.607 1.7002 9.1423 1.6555 9.8341 1.6555 10.5506 1.7002 11.2424 1.7834 12.53 2.3529 13.7222 3.0233 14.7288 3.4125 15.4336 3.1556 16.3132 2.7502 17.0815 2.4578 17.6355 2.3117 17.9125 2.429 18.1126 2.5464 18.3127 2.8086 18.3191 3.3329 18.3318 4.3697 18.3571 5.0689 18.0631 5.6239 17.6538 5.9387 17.4217 6.0961 17.3057 6.2045 17.2923 6.313 17.279 6.5265 17.3669 6.9533 17.5428 7.337 17.7007 7.7825 17.7983 8.1912 17.8254 9.378 17.9043 10.6196 17.9045 11.8088 17.8254 15.2947 17.5938 18.0713 14.7777 18.2998 11.2424 18.3262 10.8335 18.337 10.4159 18.3323 10" stroke="currentColor" stroke-linecap="round" stroke-linejoin="round" stroke-width="2"/>
  <path d="M15 5L15.8333 4.1667M18.3333 5C18.3333 6.841 16.8409 8.3333 15 8.3333 13.1591 8.3333 11.6667 6.841 11.6667 5 11.6667 3.1591 13.1591 1.6667 15 1.6667 16.8409 1.6667 18.3333 3.1591 18.3333 5Z" stroke="currentColor" stroke-linecap="round" stroke-width="2"/>
</svg>
