<svg xmlns="http://www.w3.org/2000/svg" width="20" height="20" viewBox="0 0 20 20" fill="none">
  <path d="M15 16.3786C14.0615 16.9646 12.9748 17.3313 11.8088 17.4088 10.6196 17.4878 9.378 17.4877 8.1912 17.4088 7.7825 17.3816 7.337 17.2841 6.9533 17.1261 6.5265 16.9503 6.313 16.8623 6.2045 16.8757 6.0961 16.889 5.9387 17.0051 5.6239 17.2372 5.0689 17.6464 4.3697 17.9404 3.3329 17.9152 2.8086 17.9024 2.5464 17.896 2.429 17.6959 2.3117 17.4958 2.4578 17.2188 2.7502 16.6648 3.1556 15.8965 3.4125 15.0169 3.0233 14.3122 2.3529 13.3055 1.7834 12.1133 1.7002 10.8258 1.6555 10.1339 1.6555 9.4174 1.7002 8.7256 1.801 7.1655 2.3981 5.703 3.3333 4.5833" stroke="currentColor" stroke-linecap="round" stroke-linejoin="round" stroke-width="2"/>
  <path d="M5.4167 2.9323C6.2548 2.4866 7.1939 2.2088 8.1912 2.1426 9.378 2.0637 10.6196 2.0635 11.8088 2.1426 15.2947 2.3743 18.0713 5.1903 18.2998 8.7256 18.3445 9.4174 18.3445 10.1339 18.2998 10.8258 18.209 12.2309 17.7156 13.5225 16.9351 14.5833" stroke="currentColor" stroke-linecap="round" stroke-linejoin="round" stroke-width="2"/>
  <path d="M1.6667 2.5L18.3333 19.1667" stroke="currentColor" stroke-linecap="round" stroke-width="2"/>
</svg>
