<svg xmlns="http://www.w3.org/2000/svg" width="20" height="20" viewBox="0 0 20 20" fill="none">
  <path d="M18.3326 10C18.3326 14.1422 15.9433 17.5 9.9992 17.5 8.7485 17.5 7.6716 17.3778 6.7479 17.1513 6.255 17.0303 5.7347 17.1792 5.3262 17.4805 4.751 17.9048 3.8455 18.3333 2.4992 18.3333 3.3264 17.7778 3.8599 16.25 2.8089 14.5833 1.9745 13.3159 1.6659 11.726 1.6659 10 1.6659 5.8579 3.4432 2.5 9.9992 2.5 10.2863 2.5 10.564 2.506 10.8326 2.5179" stroke="currentColor" stroke-linecap="round" stroke-linejoin="round" stroke-width="2"/>
  <path d="M10.1033 10H9.9991M13.4367 10H13.3326M6.7701 10H6.6659M10.2074 10C10.2074 10.1151 10.1142 10.2083 9.9991 10.2083 9.8841 10.2083 9.7908 10.1151 9.7908 10 9.7908 9.8849 9.8841 9.7917 9.9991 9.7917 10.1142 9.7917 10.2074 9.8849 10.2074 10ZM13.5409 10C13.5409 10.1151 13.4477 10.2083 13.3326 10.2083 13.2175 10.2083 13.1242 10.1151 13.1242 10 13.1242 9.8849 13.2175 9.7917 13.3326 9.7917 13.4477 9.7917 13.5409 9.8849 13.5409 10ZM6.8742 10C6.8742 10.1151 6.781 10.2083 6.6659 10.2083 6.5508 10.2083 6.4576 10.1151 6.4576 10 6.4576 9.8849 6.5508 9.7917 6.6659 9.7917 6.781 9.7917 6.8742 9.8849 6.8742 10Z" stroke="currentColor" stroke-linecap="round" stroke-linejoin="round" stroke-width="2"/>
  <path d="M13.3326 5C13.8241 5.5057 15.1323 7.5 15.8326 7.5 16.5328 7.5 17.841 5.5057 18.3326 5M15.8326 7.0833V1.6667" stroke="currentColor" stroke-linecap="round" stroke-linejoin="round" stroke-width="2"/>
</svg>
