<svg xmlns="http://www.w3.org/2000/svg" width="20" height="20" viewBox="0 0 20 20" fill="none">
  <path d="M18.3333 10C18.3333 14.1422 15.944 17.5 10 17.5 8.7492 17.5 7.6724 17.3778 6.7487 17.1513 6.2557 17.0303 5.7354 17.1792 5.327 17.4805 4.7518 17.9048 3.8462 18.3333 2.5 18.3333 3.3271 17.7778 3.8607 16.25 2.8097 14.5833 1.9753 13.3159 1.6667 11.726 1.6667 10 1.6667 5.8579 3.444 2.5 10 2.5 10.2871 2.5 10.5648 2.506 10.8333 2.5179" stroke="currentColor" stroke-linecap="round" stroke-linejoin="round" stroke-width="2"/>
  <path d="M10.104 10H9.9998M13.4375 10H13.3333M6.7708 10H6.6667M10.2082 10C10.2082 10.1151 10.1149 10.2083 9.9998 10.2083 9.8848 10.2083 9.7915 10.1151 9.7915 10 9.7915 9.8849 9.8848 9.7917 9.9998 9.7917 10.1149 9.7917 10.2082 9.8849 10.2082 10ZM13.5417 10C13.5417 10.1151 13.4484 10.2083 13.3333 10.2083 13.2183 10.2083 13.125 10.1151 13.125 10 13.125 9.8849 13.2183 9.7917 13.3333 9.7917 13.4484 9.7917 13.5417 9.8849 13.5417 10ZM6.875 10C6.875 10.1151 6.7817 10.2083 6.6667 10.2083 6.5516 10.2083 6.4583 10.1151 6.4583 10 6.4583 9.8849 6.5516 9.7917 6.6667 9.7917 6.7817 9.7917 6.875 9.8849 6.875 10Z" stroke="currentColor" stroke-linecap="round" stroke-linejoin="round" stroke-width="2"/>
  <path d="M18.3333 4.1667C17.8418 3.661 16.5336 1.6667 15.8333 1.6667 15.1331 1.6667 13.8248 3.661 13.3333 4.1667M15.8333 2.0833V7.5" stroke="currentColor" stroke-linecap="round" stroke-linejoin="round" stroke-width="2"/>
</svg>
