<svg xmlns="http://www.w3.org/2000/svg" width="20" height="20" viewBox="0 0 20 20" fill="none">
  <path d="M10 2.4992C3.444 2.4992 1.6667 5.8571 1.6667 9.9992 1.6667 11.7253 1.9753 13.3151 2.8097 14.5825 3.8607 16.2492 3.3271 17.777 2.5 18.3325 3.8462 18.3325 4.7518 17.904 5.327 17.4797 5.7354 17.1784 6.2557 17.0295 6.7487 17.1504 7.6724 17.377 8.7492 17.4992 10 17.4992 15.944 17.4992 18.3333 14.1413 18.3333 9.9992 18.3333 9.4263 18.3036 8.8685 18.2343 8.3325" stroke="currentColor" stroke-linecap="round" stroke-linejoin="round" stroke-width="2"/>
  <path d="M10.104 9.9992H9.9998M13.4375 9.9992H13.3333M6.7708 9.9992H6.6667M10.2082 9.9992C10.2082 10.1143 10.1149 10.2075 9.9998 10.2075 9.8848 10.2075 9.7915 10.1143 9.7915 9.9992 9.7915 9.8842 9.8848 9.7908 9.9998 9.7908 10.1149 9.7908 10.2082 9.8842 10.2082 9.9992ZM13.5417 9.9992C13.5417 10.1143 13.4484 10.2075 13.3333 10.2075 13.2183 10.2075 13.125 10.1143 13.125 9.9992 13.125 9.8842 13.2183 9.7908 13.3333 9.7908 13.4484 9.7908 13.5417 9.8842 13.5417 9.9992ZM6.875 9.9992C6.875 10.1143 6.7817 10.2075 6.6667 10.2075 6.5516 10.2075 6.4583 10.1143 6.4583 9.9992 6.4583 9.8842 6.5516 9.7908 6.6667 9.7908 6.7817 9.7908 6.875 9.8842 6.875 9.9992Z" stroke="currentColor" stroke-linecap="round" stroke-linejoin="round" stroke-width="2"/>
  <path d="M15 1.6675C14.4943 2.159 12.5 3.4673 12.5 4.1675 12.5 4.8677 14.4943 6.176 15 6.6675M12.9167 4.1675L18.3333 4.1675" stroke="currentColor" stroke-linecap="round" stroke-linejoin="round" stroke-width="2"/>
</svg>
