<svg xmlns="http://www.w3.org/2000/svg" width="20" height="20" viewBox="0 0 20 20" fill="none">
  <path d="M5 15.8333L3.3333 17.5M15 15.8333L16.6667 17.5" stroke="currentColor" stroke-linecap="round" stroke-linejoin="round" stroke-width="2"/>
  <path d="M4.1667 7.5C7.5 10.8333 12.9167 10.8333 15.8333 7.5" stroke="currentColor" stroke-linecap="round" stroke-linejoin="round" stroke-width="2"/>
  <path d="M4.3944 6.5786C5.0787 3.0965 6.0254 2.5 9.5454 2.5H10.4546C13.9746 2.5 14.9213 3.0965 15.6057 6.5786L16.0668 8.925C16.6958 12.1253 17.0102 13.7254 16.0933 14.7793 15.1765 15.8333 13.451 15.8333 10 15.8333 6.549 15.8333 4.8235 15.8333 3.9066 14.7793 2.9898 13.7254 3.3043 12.1253 3.9332 8.925L4.3944 6.5786Z" stroke="currentColor" stroke-linecap="round" stroke-linejoin="round" stroke-width="2"/>
  <path d="M12.6042 12.5H12.5M12.7083 12.5C12.7083 12.6151 12.6151 12.7083 12.5 12.7083 12.3849 12.7083 12.2917 12.6151 12.2917 12.5 12.2917 12.3849 12.3849 12.2917 12.5 12.2917 12.6151 12.2917 12.7083 12.3849 12.7083 12.5Z" stroke="currentColor" stroke-linecap="round" stroke-linejoin="round" stroke-width="2"/>
  <path d="M7.6042 12.5H7.5M7.7083 12.5C7.7083 12.6151 7.6151 12.7083 7.5 12.7083 7.3849 12.7083 7.2917 12.6151 7.2917 12.5 7.2917 12.3849 7.3849 12.2917 7.5 12.2917 7.6151 12.2917 7.7083 12.3849 7.7083 12.5Z" stroke="currentColor" stroke-linecap="round" stroke-linejoin="round" stroke-width="2"/>
</svg>
