<svg xmlns="http://www.w3.org/2000/svg" width="20" height="20" viewBox="0 0 20 20" fill="none">
  <path d="M1.6667 1.6667L18.3333 18.3333" stroke="currentColor" stroke-linecap="round" stroke-width="2"/>
  <path d="M3.3333 9.1667C3.3333 12.8486 6.3181 15.8333 10 15.8333M10 15.8333C11.6288 15.8333 13.1212 15.2492 14.279 14.279M10 15.8333V18.3333M10 18.3333H12.5M10 18.3333H7.5M16.6667 9.1667C16.6667 10.5428 16.2497 11.8216 15.5352 12.8836" stroke="currentColor" stroke-linecap="round" stroke-width="2"/>
  <path d="M5.8333 5.8167V9.1667C5.8333 11.4678 7.6988 13.3333 10 13.3333 10.9462 13.3333 11.8039 13.008 12.5033 12.4767M13.6989 11.0367C13.9977 10.4621 14.1667 9.8591 14.1667 9.1667V5.8167C14.1667 3.5155 12.3012 1.6667 10 1.6667 8.4427 1.6667 7.1084 2.4711 6.3933 3.7367" stroke="currentColor" stroke-linecap="round" stroke-width="2"/>
</svg>
