<svg xmlns="http://www.w3.org/2000/svg" width="20" height="20" viewBox="0 0 20 20" fill="none">
  <path d="M1.6667 1.6667L18.3333 18.3333" stroke="currentColor" stroke-linecap="round" stroke-width="2"/>
  <path d="M3.3333 9.1667C3.3333 12.8486 6.3181 15.8333 10 15.8333M10 15.8333C11.6288 15.8333 13.1212 15.2492 14.279 14.279M10 15.8333V18.3333M10 18.3333H12.5M10 18.3333H7.5M16.6667 9.1667C16.6667 10.5428 16.2497 11.8216 15.5352 12.8836" stroke="currentColor" stroke-linecap="round" stroke-width="2"/>
  <path d="M14.1732 5.83C14.1732 3.5288 12.3077 1.68 10.0065 1.68 8.4492 1.68 7.1149 2.4844 6.3998 3.75M14.1732 5.83L11.6498 5.84M14.1732 5.83V9.17M5.8398 5.83V9.18C5.8398 11.4812 7.7053 13.3467 10.0065 13.3467 10.9527 13.3467 11.8104 13.0213 12.5098 12.49M13.7054 11.05C14.0043 10.4754 14.1732 9.8724 14.1732 9.18V9.17M11.8191 9.17H14.1732" stroke="currentColor" stroke-linecap="round" stroke-width="2"/>
</svg>
