<svg xmlns="http://www.w3.org/2000/svg" width="20" height="20" viewBox="0 0 20 20" fill="none">
  <path d="M13.3333 2.9167H6.6667C4.3096 2.9167 3.1311 2.9167 2.3989 3.6489 1.6667 4.3811 1.6667 5.5596 1.6667 7.9167V10.4167C1.6667 12.7737 1.6667 13.9522 2.3989 14.6844 3.1311 15.4167 4.3096 15.4167 6.6667 15.4167H13.3333C15.6903 15.4167 16.8688 15.4167 17.6011 14.6844 18.3333 13.9522 18.3333 12.7737 18.3333 10.4167V7.9167C18.3333 5.5596 18.3333 4.3811 17.6011 3.6489 16.8688 2.9167 15.6903 2.9167 13.3333 2.9167Z" stroke="currentColor" stroke-linecap="round" stroke-linejoin="round" stroke-width="2"/>
  <path d="M10.8333 5.4167H6.6667C5.4882 5.4167 4.8989 5.4167 4.5328 5.7828 4.1667 6.1489 4.1667 6.7382 4.1667 7.9167V10.4167C4.1667 11.5952 4.1667 12.1844 4.5328 12.5506 4.8989 12.9167 5.4882 12.9167 6.6667 12.9167H10.8333C12.0118 12.9167 12.6011 12.9167 12.9673 12.5506 13.3333 12.1844 13.3333 11.5952 13.3333 10.4167V7.9167C13.3333 6.7382 13.3333 6.1489 12.9673 5.7828 12.6011 5.4167 12.0118 5.4167 10.8333 5.4167Z" stroke="currentColor" stroke-linecap="round" stroke-linejoin="round" stroke-width="2"/>
  <path d="M4.1667 15.4167V17.0833M15.8333 15.4167V17.0833" stroke="currentColor" stroke-linecap="round" stroke-linejoin="round" stroke-width="2"/>
  <path d="M15.8753 6.252H15.8337M15.917 6.252C15.917 6.298 15.8797 6.3353 15.8337 6.3353 15.7877 6.3353 15.7503 6.298 15.7503 6.252 15.7503 6.2059 15.7877 6.1686 15.8337 6.1686 15.8797 6.1686 15.917 6.2059 15.917 6.252Z" stroke="currentColor" stroke-linecap="round" stroke-linejoin="round" stroke-width="2"/>
  <path d="M15.8753 9.5853H15.8337M15.917 9.5853C15.917 9.6313 15.8797 9.6686 15.8337 9.6686 15.7877 9.6686 15.7503 9.6313 15.7503 9.5853 15.7503 9.5393 15.7877 9.5019 15.8337 9.5019 15.8797 9.5019 15.917 9.5393 15.917 9.5853Z" stroke="currentColor" stroke-linecap="round" stroke-linejoin="round" stroke-width="2"/>
</svg>
