<svg xmlns="http://www.w3.org/2000/svg" width="20" height="20" viewBox="0 0 20 20" fill="none">
  <path d="M5 12.5V7.5C5 5.143 5 3.9645 5.7322 3.2322 6.4645 2.5 7.643 2.5 10 2.5 12.357 2.5 13.5355 2.5 14.2678 3.2322 15 3.9645 15 5.143 15 7.5V12.5C15 14.857 15 16.0355 14.2678 16.7678 13.5355 17.5 12.357 17.5 10 17.5 7.643 17.5 6.4645 17.5 5.7322 16.7678 5 16.0355 5 14.857 5 12.5Z" stroke="currentColor" stroke-linecap="round" stroke-linejoin="round" stroke-width="2"/>
  <path d="M15 10H16.6667M15 5H16.6667M15 15H16.6667" stroke="currentColor" stroke-linecap="round" stroke-linejoin="round" stroke-width="2"/>
  <path d="M3.3333 10H5M3.3333 5H5M3.3333 15H5" stroke="currentColor" stroke-linecap="round" stroke-linejoin="round" stroke-width="2"/>
  <path d="M8.3333 10H11.6667M8.3333 5.8333H11.6667M8.3333 14.1667H11.6667" stroke="currentColor" stroke-linecap="round" stroke-linejoin="round" stroke-width="2"/>
</svg>
