<svg xmlns="http://www.w3.org/2000/svg" width="20" height="20" viewBox="0 0 20 20" fill="none">
  <path d="M3.3333 17.9167H16.6667" stroke="currentColor" stroke-linecap="round" stroke-linejoin="round" stroke-width="2"/>
  <path d="M10.4167 7.9167C10.4167 8.607 9.857 9.1667 9.1667 9.1667 8.4763 9.1667 7.9167 8.607 7.9167 7.9167 7.9167 7.2263 8.4763 6.6667 9.1667 6.6667 9.857 6.6667 10.4167 7.2263 10.4167 7.9167Z" stroke="currentColor" stroke-linecap="round" stroke-linejoin="round" stroke-width="2"/>
  <path d="M15 15.4167H10.4167M7.9167 7.9167C5.8456 7.9167 4.1667 9.5956 4.1667 11.6667 4.1667 13.7378 5.8456 15.4167 7.9167 15.4167H8.3333" stroke="currentColor" stroke-linecap="round" stroke-linejoin="round" stroke-width="2"/>
  <path d="M11.25 17.9167L10.1899 14.7365C10.0765 14.3962 9.7581 14.1667 9.3993 14.1667H9.3507C8.9919 14.1667 8.6735 14.3962 8.5601 14.7365L7.5 17.9167" stroke="currentColor" stroke-linecap="round" stroke-linejoin="round" stroke-width="2"/>
  <path d="M13.1686 12.9167L15 11.8568M8.6549 6.7759L7.7837 5.2633C7.1997 4.2494 7.5463 2.953 8.5578 2.3677 9.5692 1.7823 10.8625 2.1297 11.4465 3.1436L13.9841 7.5494C14.3794 8.2357 14.5771 8.5788 14.5771 8.9196 14.5771 9.1428 14.5184 9.3622 14.4071 9.5555 14.2371 9.8507 13.8948 10.0488 13.2101 10.445 12.5254 10.8413 12.1831 11.0393 11.8431 11.0393 11.6204 11.0393 11.4016 10.9806 11.2087 10.8689 10.9142 10.6986 10.7166 10.3554 10.3213 9.6691L9.8965 8.9316" stroke="currentColor" stroke-linecap="round" stroke-linejoin="round" stroke-width="2"/>
</svg>
