<svg xmlns="http://www.w3.org/2000/svg" width="20" height="20" viewBox="0 0 20 20" fill="none">
  <path d="M11.25 12.9167C11.25 12.131 11.25 11.7382 11.4941 11.4941 11.7382 11.25 12.131 11.25 12.9167 11.25H16.6667C17.4523 11.25 17.8452 11.25 18.0892 11.4941 18.3333 11.7382 18.3333 12.131 18.3333 12.9167V16.6667C18.3333 17.4523 18.3333 17.8452 18.0892 18.0892 17.8452 18.3333 17.4523 18.3333 16.6667 18.3333H12.9167C12.131 18.3333 11.7382 18.3333 11.4941 18.0892 11.25 17.8452 11.25 17.4523 11.25 16.6667V12.9167Z" stroke="currentColor" stroke-linecap="round" stroke-linejoin="round" stroke-width="2"/>
  <path d="M1.6667 3.3333C1.6667 2.5477 1.6667 2.1548 1.9107 1.9107 2.1548 1.6667 2.5477 1.6667 3.3333 1.6667H7.0833C7.869 1.6667 8.2618 1.6667 8.5059 1.9107 8.75 2.1548 8.75 2.5477 8.75 3.3333V7.0833C8.75 7.869 8.75 8.2618 8.5059 8.5059 8.2618 8.75 7.869 8.75 7.0833 8.75H3.3333C2.5477 8.75 2.1548 8.75 1.9107 8.5059 1.6667 8.2618 1.6667 7.869 1.6667 7.0833V3.3333Z" stroke="currentColor" stroke-linecap="round" stroke-linejoin="round" stroke-width="2"/>
  <path d="M1.6667 12.9167C1.6667 12.131 1.6667 11.7382 1.9107 11.4941 2.1548 11.25 2.5477 11.25 3.3333 11.25H7.0833C7.869 11.25 8.2618 11.25 8.5059 11.4941 8.75 11.7382 8.75 12.131 8.75 12.9167V16.6667C8.75 17.4523 8.75 17.8452 8.5059 18.0892 8.2618 18.3333 7.869 18.3333 7.0833 18.3333H3.3333C2.5477 18.3333 2.1548 18.3333 1.9107 18.0892 1.6667 17.8452 1.6667 17.4523 1.6667 16.6667V12.9167Z" stroke="currentColor" stroke-linecap="round" stroke-linejoin="round" stroke-width="2"/>
  <path d="M11.25 3.3333C11.25 2.5477 11.25 2.1548 11.4941 1.9107 11.7382 1.6667 12.131 1.6667 12.9167 1.6667H16.6667C17.4523 1.6667 17.8452 1.6667 18.0892 1.9107 18.3333 2.1548 18.3333 2.5477 18.3333 3.3333V7.0833C18.3333 7.869 18.3333 8.2618 18.0892 8.5059 17.8452 8.75 17.4523 8.75 16.6667 8.75H12.9167C12.131 8.75 11.7382 8.75 11.4941 8.5059 11.25 8.2618 11.25 7.869 11.25 7.0833V3.3333Z" stroke="currentColor" stroke-linecap="round" stroke-linejoin="round" stroke-width="2"/>
</svg>
