<svg xmlns="http://www.w3.org/2000/svg" width="20" height="20" viewBox="0 0 20 20" fill="none">
  <path d="M11.4303 11.4294C10.2764 12.5828 10.8533 15.4663 12.5843 17.1964 14.3152 18.9265 15.9253 18.4704 17.2 17.1964 18.4746 15.9223 18.9308 14.3129 17.2 12.5828 15.469 10.8527 12.5843 10.276 11.4303 11.4294ZM17.2 17.1964L11.4303 11.4294" stroke="currentColor" stroke-width="2"/>
  <path d="M9.9516 18.3321H6.6676M4.1547 4.1216L2.1348 6.2145C1.8349 6.5252 1.6674 6.9401 1.6674 7.3719V16.6654C1.6674 17.5858 2.4136 18.3321 3.334 18.3321H6.6676M4.1547 4.1216L6.6676 6.6988M15.0219 8.7357V6.6988L13.1169 4.3459C12.9932 4.193 12.9274 4.0012 12.9314 3.8046L12.9489 2.9434C12.9631 2.2433 12.3994 1.6681 11.6992 1.6681H5.4047C4.7143 1.6681 4.1547 2.2277 4.1547 2.9181V4.1216M6.6676 6.6988V18.3321M6.6676 6.6988H15.0219" stroke="currentColor" stroke-linecap="round" stroke-linejoin="round" stroke-width="2"/>
</svg>
