<svg xmlns="http://www.w3.org/2000/svg" width="20" height="20" viewBox="0 0 20 20" fill="none">
  <path d="M12.2728 4.1667C13.0258 4.1667 13.6363 3.607 13.6363 2.9167 13.6363 2.2263 13.0258 1.6667 12.2728 1.6667H7.7273C6.9742 1.6667 6.3636 2.2263 6.3636 2.9167 6.3636 3.607 6.9742 4.1667 7.7273 4.1667M12.7049 4.1026C14.0553 6.5784 15 8.6478 15 11.4809V15C15 17.7578 14.3721 18.3333 11.3637 18.3333H8.6363C5.6279 18.3333 5 17.7578 5 15V11.4809C5 8.6478 5.9223 6.5714 7.2727 4.0955" stroke="currentColor" stroke-linecap="round" stroke-linejoin="round" stroke-width="2"/>
  <path d="M5 10C5.4762 10.4167 6.7434 10.3968 7.4869 10.2324 8.0054 10.1179 8.564 10.2523 8.9153 10.6366L9.6025 11.3882C9.9977 11.8205 10.5969 12.0258 11.1871 11.9311L12.0568 11.7916C12.5352 11.7148 13.011 11.9087 13.3367 12.2546 14.3522 13.3333 15 13.3333 15 13.3333" stroke="currentColor" stroke-linejoin="round" stroke-width="2"/>
</svg>
