<svg xmlns="http://www.w3.org/2000/svg" width="20" height="20" viewBox="0 0 20 20" fill="none">
  <path d="M9.1427 18.3321H6.675M15.0208 8.4013V6.6988L13.1163 4.3458C12.9925 4.193 12.9268 4.0013 12.9308 3.8046L12.9483 2.9434C12.9624 2.2433 12.3988 1.6681 11.6985 1.6681H5.4057C4.7154 1.6681 4.1557 2.2277 4.1557 2.9181V4.1216L2.1362 6.2145C1.8364 6.5252 1.6689 6.9401 1.6689 7.3718V16.6654C1.6689 17.5858 2.4151 18.3321 3.3356 18.3321H6.6682 6.675M15.0208 6.6988H6.5331M4.1882 4.1216L6.2077 6.2145C6.3451 6.3569 6.4547 6.5211 6.5331 6.6988M6.675 18.3321V7.3718C6.675 7.1379 6.6258 6.909 6.5331 6.6988" stroke="currentColor" stroke-linecap="round" stroke-linejoin="round" stroke-width="2"/>
  <path d="M11.0399 15.479C10.4949 14.9341 11.0472 13.4985 12.2735 12.2726 13.4998 11.0466 14.9357 10.4944 15.4808 11.0393M11.0399 15.479C11.0399 15.9722 11.3358 16.7614 11.7801 17.2055 13.2789 18.7039 15.7089 18.7039 17.2078 17.2055 18.7066 15.7071 18.7066 13.2777 17.2078 11.7792 16.7636 11.3352 15.9742 11.0393 15.4808 11.0393M11.0399 15.479C11.5096 15.9485 12.6408 15.6034 13.7293 14.7146M15.4808 11.0393C16.0257 11.5842 15.4736 13.0198 14.2472 14.2457 14.0776 14.4153 13.9041 14.5719 13.7293 14.7146M13.7293 14.7146C13.8197 15.2983 14.0005 15.9722 14.9873 16.4656" stroke="currentColor" stroke-linecap="round" stroke-width="2"/>
</svg>
