<svg xmlns="http://www.w3.org/2000/svg" width="20" height="20" viewBox="0 0 20 20" fill="none">
  <path d="M4.3096 5.6904L5.8333 4.1667 7.357 5.6904C7.8387 6.1721 8.0796 6.4129 8.2065 6.7192 8.3333 7.0255 8.3333 7.3661 8.3333 8.0474V18.3333H6.6667C5.0953 18.3333 4.3096 18.3333 3.8215 17.8452 3.3333 17.357 3.3333 16.5713 3.3333 15V8.0474C3.3333 7.3661 3.3333 7.0255 3.4602 6.7192 3.5871 6.4129 3.8279 6.1721 4.3096 5.6904Z" stroke="currentColor" stroke-width="2"/>
  <path d="M5.8333 4.1698V3.8369C5.8333 2.8168 5.8333 2.3068 6.1506 1.9899 6.4679 1.673 6.9786 1.673 8 1.673H12.6279C13.2166 1.673 13.9804 1.5791 14.3739 2.1156 14.7918 2.6854 14.4347 3.4684 14.6157 4.0982 14.6708 4.2897 14.8068 4.4376 14.932 4.5877L16.6667 6.6667" stroke="currentColor" stroke-linecap="round" stroke-width="2"/>
  <path d="M8.3333 6.6667H16.6667V15C16.6667 16.5713 16.6667 17.357 16.1785 17.8452 15.6903 18.3333 14.9047 18.3333 13.3333 18.3333H8.3333" stroke="currentColor" stroke-linejoin="round" stroke-width="2"/>
  <path d="M8.3333 10.8333C8.7302 11.25 9.7862 11.2301 10.4058 11.0658 10.8378 10.9513 11.3033 11.0856 11.5962 11.4699L12.1687 12.2215C12.4982 12.6538 12.9974 12.8591 13.4893 12.7644L14.2139 12.6249C14.6127 12.5482 15.0092 12.742 15.2806 13.0879 16.1268 14.1667 16.6667 14.1667 16.6667 14.1667" stroke="currentColor" stroke-linejoin="round" stroke-width="2"/>
</svg>
