<svg xmlns="http://www.w3.org/2000/svg" width="20" height="20" viewBox="0 0 20 20" fill="none">
  <path d="M14.1204 17.2222V12.7777M15.421 12.7777V11.6667M15.421 18.3333V17.2222M14.1204 15H16.7215M16.7215 15C17.1524 15 17.5018 15.3731 17.5018 15.8333V16.3889C17.5018 16.8492 17.1524 17.2222 16.7215 17.2222H13.3402M16.7215 15C17.1524 15 17.5018 14.6269 17.5018 14.1667V13.6111C17.5018 13.1508 17.1524 12.7777 16.7215 12.7777H13.3402" stroke="currentColor" stroke-linecap="round" stroke-linejoin="round" stroke-width="2"/>
  <path d="M12.2463 3.4884C11.0793 2.7621 8.0839 1.3679 5.3858 1.7238 7.0179 2.8655 7.8765 3.4795 10.1928 5.5741M15.4727 6.7654C15.7827 7.2792 16.3013 8.274 16.6645 9.3098M13.4192 8.8512C13.6207 9.081 13.8658 9.4265 14.0412 9.6303M8.6293 8.6819L2.8456 14.5564C2.3764 15.0329 2.3835 15.8126 2.8613 16.2979 3.3391 16.7833 4.1068 16.7904 4.5759 16.3139L10.3596 10.4395M9.8712 6.8547L12.1584 9.1778C12.4123 9.4358 12.8232 9.4367 13.076 9.1799L15.9096 6.3018C16.1624 6.045 16.1615 5.6278 15.9075 5.3698L13.6203 3.0467C13.3663 2.7887 12.9555 2.7878 12.7027 3.0446L9.8691 5.9227C9.6163 6.1795 9.6173 6.5967 9.8712 6.8547Z" stroke="currentColor" stroke-linecap="round" stroke-linejoin="round" stroke-width="2"/>
</svg>
