<svg xmlns="http://www.w3.org/2000/svg" width="20" height="20" viewBox="0 0 20 20" fill="none">
  <path d="M12.4012 4.3216C11.2158 3.5953 8.1734 2.2012 5.4329 2.557 7.0906 3.6987 7.9627 4.3127 10.3154 6.4074M15.6783 7.5987C16.4046 8.784 17.7988 11.8264 17.4429 14.5669 16.3012 12.9092 15.6872 12.0371 13.5925 9.6844M8.7272 9.5152L2.8527 15.3896C2.3762 15.8661 2.3834 16.6458 2.8687 17.1312 3.3541 17.6165 4.1338 17.6237 4.6103 17.1472L10.4848 11.2727M9.9887 7.6879L12.3118 10.011C12.5698 10.269 12.9871 10.2699 13.2439 10.0132L16.122 7.1351C16.3788 6.8783 16.3778 6.461 16.1199 6.203L13.7968 3.8799C13.5388 3.622 13.1215 3.621 12.8648 3.8778L9.9866 6.7559C9.7298 7.0127 9.7308 7.43 9.9887 7.6879Z" stroke="currentColor" stroke-linecap="round" stroke-linejoin="round" stroke-width="2"/>
</svg>
