<svg xmlns="http://www.w3.org/2000/svg" width="20" height="20" viewBox="0 0 20 20" fill="none">
  <path d="M16.6053 18.5418V17.2427C16.6053 16.9072 16.7104 16.5813 16.8866 16.2954 18.1319 14.2735 18.5233 12.1049 18.2502 11.2603 17.3808 9.4593 14.4798 8.7508 13.1333 8.5819L13.9972 4.2821C14.1421 3.6002 13.6261 2.9138 12.8446 2.749 12.0632 2.5841 11.3122 3.0032 11.1673 3.6851L9.4552 11.7402 7.3122 10.3757C7.3122 10.3757 6.2331 9.5128 5.367 10.3757 4.501 11.2384 5.367 12.3135 5.367 12.3135L8.624 16.4823C8.8336 16.7504 8.9557 17.076 8.974 17.4153L9.0334 18.5137" stroke="currentColor" stroke-linecap="round" stroke-linejoin="round" stroke-width="2"/>
  <path d="M5.7974 1.8652C5.7974 1.8652 5.5878 3.7578 5.7974 3.9641M5.7974 3.9641C6.0695 4.2317 7.9657 4.0065 7.9657 4.0065M5.7974 3.9641L8.3342 1.4567M4.2042 7.7083C4.2042 7.7083 4.4139 5.8157 4.2042 5.6094M4.2042 5.6094C3.9321 5.3418 2.036 5.567 2.036 5.567M4.2042 5.6094L1.6675 8.1168" stroke="currentColor" stroke-linecap="round" stroke-linejoin="round" stroke-width="2"/>
</svg>
