<svg xmlns="http://www.w3.org/2000/svg" width="20" height="20" viewBox="0 0 20 20" fill="none">
  <path d="M6.6666 14.1667C5.7461 14.1667 5 14.9128 5 15.8333 5 16.7538 5.7461 17.5 6.6666 17.5 7.5871 17.5 8.3333 16.7538 8.3333 15.8333 8.3333 14.9128 7.5871 14.1667 6.6666 14.1667Z" stroke="currentColor" stroke-linecap="round" stroke-linejoin="round" stroke-width="2"/>
  <path d="M10.7283 6.6667C10.7967 6.4003 10.8333 6.1211 10.8333 5.8333 10.8333 3.9924 9.3408 2.5 7.4999 2.5 5.659 2.5 4.1666 3.9924 4.1666 5.8333 4.1666 6.1211 4.203 6.4003 4.2716 6.6667" stroke="currentColor" stroke-linecap="round" stroke-linejoin="round" stroke-width="2"/>
  <path d="M12.2925 2.5064C12.3612 2.5021 12.4305 2.5 12.5002 2.5 14.3412 2.5 15.8336 3.9924 15.8336 5.8333 15.8336 6.1211 15.7972 6.4003 15.7286 6.6667" stroke="currentColor" stroke-linecap="round" stroke-linejoin="round" stroke-width="2"/>
  <path d="M13.3333 14.1667C12.4128 14.1667 11.6666 14.9128 11.6666 15.8333 11.6666 16.7538 12.4128 17.5 13.3333 17.5 14.2538 17.5 14.9999 16.7538 14.9999 15.8333 14.9999 14.9128 14.2538 14.1667 13.3333 14.1667Z" stroke="currentColor" stroke-linecap="round" stroke-linejoin="round" stroke-width="2"/>
  <path d="M11.6667 15.8333H8.3333M15 15.8333C15.2059 15.8333 15.3737 15.8395 15.4626 15.8333 16.6347 15.7518 17.5959 14.879 17.7843 13.7341 17.7986 13.6472 17.8079 13.546 17.8265 13.3436L18.274 8.4843C18.3523 7.6344 18.3914 7.2094 18.1403 6.938 17.8893 6.6667 17.4571 6.6667 16.5927 6.6667H3.4073C2.5429 6.6667 2.1107 6.6667 1.8596 6.938 1.6086 7.2094 1.6477 7.6344 1.726 8.4843L2.1735 13.3436C2.1921 13.546 2.2014 13.6472 2.2157 13.7341 2.4041 14.879 3.4302 15.7457 4.6023 15.8272 4.6911 15.8333 4.7941 15.8333 5 15.8333" stroke="currentColor" stroke-linecap="round" stroke-width="2"/>
</svg>
