<svg xmlns="http://www.w3.org/2000/svg" width="20" height="20" viewBox="0 0 20 20" fill="none">
  <path d="M11.7546 8.6107L12.4235 4.7234C12.5343 4.0793 12.1147 3.4651 11.4862 3.3515 10.8576 3.238 10.2582 3.668 10.1473 4.3121L8.8095 12.0868 8.6986 12.6893 7.201 11.0994C6.6576 10.5364 5.7626 10.5877 5.2825 11.2095 4.9152 11.6852 4.9051 12.3582 5.2579 12.8456L7.5538 16.0176C8.0749 16.7374 8.3354 17.0974 8.6489 17.3772 9.1273 17.8039 9.7004 18.1009 10.3169 18.2413 10.721 18.3333 11.1553 18.3333 12.0237 18.3333H13.538C15.5309 18.3333 17.2448 16.9221 17.6273 14.9662L18.2487 11.7882 18.3156 11.3994C18.4264 10.7553 18.0068 10.1412 17.3782 10.0276 16.7496 9.914 16.1502 10.3441 16.0394 10.9882L15.9725 11.3769M11.7546 8.6107L11.5539 9.7769M11.7546 8.6107C11.8654 7.9666 12.4648 7.5366 13.0934 7.6501 13.7219 7.7637 14.1417 8.3779 14.0308 9.022L13.897 9.7994M13.897 9.7994L13.8301 10.1882M13.897 9.7994C14.0078 9.1553 14.6073 8.7253 15.2358 8.8388 15.8643 8.9524 16.284 9.5666 16.1732 10.2107L16.1063 10.5994" stroke="currentColor" stroke-linecap="round" stroke-linejoin="round" stroke-width="2"/>
  <path d="M5.7966 2.0755C5.7966 2.0755 5.5869 3.97 5.7966 4.1766M5.7966 4.1766C6.0687 4.4444 7.9648 4.219 7.9648 4.219M5.7966 4.1766L8.3333 1.6667M4.2034 7.9245C4.2034 7.9245 4.4131 6.03 4.2034 5.8234M4.2034 5.8234C3.9313 5.5556 2.0352 5.7811 2.0352 5.7811M4.2034 5.8234L1.6667 8.3333" stroke="currentColor" stroke-linecap="round" stroke-linejoin="round" stroke-width="2"/>
</svg>
