<svg xmlns="http://www.w3.org/2000/svg" width="20" height="20" viewBox="0 0 20 20" fill="none">
  <path d="M9.5277 13.3882L7.2427 13.3048C6.903 13.2925 6.6341 13.0136 6.6341 12.6737L6.6341 10.4947M11.2174 8.8049L7.0143 12.9869" stroke="currentColor" stroke-linecap="round" stroke-linejoin="round" stroke-width="2"/>
  <path d="M18.3333 5.8333C18.3333 7.4047 18.3333 8.1903 17.8452 8.6785 17.357 9.1667 16.5713 9.1667 15 9.1667H14.1667C12.5953 9.1667 11.8097 9.1667 11.3215 8.6785 10.8333 8.1903 10.8333 7.4047 10.8333 5.8333L10.8333 5C10.8333 3.4287 10.8333 2.643 11.3215 2.1548 11.8097 1.6667 12.5953 1.6667 14.1667 1.6667L15 1.6667C16.5713 1.6667 17.357 1.6667 17.8452 2.1548 18.3333 2.643 18.3333 3.4287 18.3333 5V5.8333Z" stroke="currentColor" stroke-linecap="round" stroke-linejoin="round" stroke-width="2"/>
  <path d="M18.3333 12.9167V11.25M8.3333 18.3333H11.6667M1.6667 8.3333L1.6667 11.6667M8.75 1.6667L7.0833 1.6667M18.2834 15.4167C18.1551 16.3047 17.9054 16.9342 17.4198 17.4198 16.9342 17.9054 16.3047 18.1551 15.4167 18.2834M4.5833 18.2834C3.6953 18.1551 3.0658 17.9054 2.5802 17.4198 2.0946 16.9342 1.8449 16.3047 1.7166 15.4167M1.7166 4.5833C1.8449 3.6953 2.0946 3.0658 2.5802 2.5802 3.0658 2.0946 3.6953 1.8449 4.5833 1.7166" stroke="currentColor" stroke-linecap="round" stroke-width="2"/>
</svg>
