<svg xmlns="http://www.w3.org/2000/svg" width="20" height="20" viewBox="0 0 20 20" fill="none">
  <path d="M3.3333 17.5C3.3333 16.5795 2.5871 15.8333 1.6667 15.8333M6.6667 17.5C6.6667 14.7386 4.4281 12.5 1.6667 12.5M10 17.5C10 12.8977 6.269 9.1667 1.6667 9.1667" stroke="currentColor" stroke-linecap="round" stroke-width="2"/>
  <path d="M2.5 6.6669C2.5649 5.1066 2.7742 4.1499 3.4489 3.4764 4.427 2.5 6.0013 2.5 9.1497 2.5H11.6544C14.8028 2.5 16.3771 2.5 17.3553 3.4764 18.3333 4.4527 18.3333 6.0242 18.3333 9.167V10.0004C18.3333 13.1433 18.3333 14.7147 17.3553 15.6911 16.4677 16.577 15.0892 16.6591 12.4893 16.6667" stroke="currentColor" stroke-linecap="round" stroke-width="2"/>
</svg>
