<svg xmlns="http://www.w3.org/2000/svg" width="20" height="20" viewBox="0 0 20 20" fill="none">
  <path d="M5 7.0833H3.9583C2.981 7.0833 2.4924 7.0833 2.1557 6.825 2.0691 6.7585 1.9915 6.681 1.925 6.5943 1.6667 6.2576 1.6667 5.769 1.6667 4.7917 1.6667 3.8143 1.6667 3.3257 1.925 2.9891 1.9915 2.9024 2.0691 2.8248 2.1557 2.7583 2.4924 2.5 2.981 2.5 3.9583 2.5H14.1667C15.3452 2.5 15.9344 2.5 16.3006 2.8661 16.6667 3.2322 16.6667 3.8215 16.6667 5V6.9768C16.6667 7.8568 16.6667 8.2969 16.455 8.6127 16.3643 8.748 16.248 8.8643 16.1127 8.955 15.7968 9.1667 15.3568 9.1667 14.4768 9.1667H13.9959C13.6428 9.1667 13.4663 9.1667 13.3073 9.1354 12.8638 9.0484 12.4747 8.7849 12.2292 8.4054 12.1411 8.2694 12.0756 8.1055 11.9444 7.7778 11.8789 7.6139 11.8461 7.532 11.8021 7.4639 11.6793 7.2742 11.4848 7.1425 11.263 7.0989 11.1835 7.0833 11.0953 7.0833 10.9187 7.0833H10C9.2143 7.0833 8.8215 7.0833 8.5774 7.3274 8.3333 7.5715 8.3333 7.9643 8.3333 8.75V14.1667C8.3333 16.0076 9.8258 17.5 11.6667 17.5" stroke="currentColor" stroke-linecap="round" stroke-linejoin="round" stroke-width="2"/>
  <path d="M3.3333 7.0833V17.5" stroke="currentColor" stroke-linecap="round" stroke-linejoin="round" stroke-width="2"/>
  <path d="M1.6667 17.5H18.3333" stroke="currentColor" stroke-linecap="round" stroke-linejoin="round" stroke-width="2"/>
  <path d="M16.6511 12.5H12.5156C11.4552 12.5 11.6884 13.8862 11.6884 14.5833 11.6884 16.1942 12.9845 17.5 14.5833 17.5 16.1822 17.5 17.4783 16.1942 17.4783 14.5833 17.4783 13.8862 17.7114 12.5 16.6511 12.5Z" stroke="currentColor" stroke-linecap="round" stroke-linejoin="round" stroke-width="2"/>
  <path d="M14.5833 9.1667V12.5" stroke="currentColor" stroke-linecap="round" stroke-linejoin="round" stroke-width="2"/>
  <path d="M14.2708 5H14.1667M14.375 5C14.375 5.1151 14.2818 5.2083 14.1667 5.2083 14.0516 5.2083 13.9583 5.1151 13.9583 5 13.9583 4.8849 14.0516 4.7917 14.1667 4.7917 14.2818 4.7917 14.375 4.8849 14.375 5Z" stroke="currentColor" stroke-linecap="round" stroke-linejoin="round" stroke-width="2"/>
</svg>
