<svg xmlns="http://www.w3.org/2000/svg" width="20" height="20" viewBox="0 0 20 20" fill="none">
  <path d="M4.1667 7.5C4.1667 4.7501 4.1667 3.3752 5.0209 2.5209 5.8752 1.6667 7.2501 1.6667 10 1.6667 12.7498 1.6667 14.1248 1.6667 14.9791 2.5209 15.8333 3.3752 15.8333 4.7501 15.8333 7.5V12.5C15.8333 15.2498 15.8333 16.6248 14.9791 17.4791 14.1248 18.3333 12.7498 18.3333 10 18.3333 7.2501 18.3333 5.8752 18.3333 5.0209 17.4791 4.1667 16.6248 4.1667 15.2498 4.1667 12.5V7.5Z" stroke="currentColor" stroke-linecap="round" stroke-linejoin="round" stroke-width="2"/>
  <path d="M10.1042 15.8333H10M10.2083 15.8333C10.2083 15.9484 10.1151 16.0417 10 16.0417 9.8849 16.0417 9.7917 15.9484 9.7917 15.8333 9.7917 15.7182 9.8849 15.625 10 15.625 10.1151 15.625 10.2083 15.7182 10.2083 15.8333Z" stroke="currentColor" stroke-linecap="round" stroke-linejoin="round" stroke-width="2"/>
  <path d="M10 5.4167C8.5043 5.4167 7.2917 6.6226 7.2917 8.1102 7.2917 8.9608 7.6302 9.6222 8.3073 10.213 8.7845 10.6294 9.6528 11.5227 10 12.0833 10.3647 11.5338 11.2155 10.6294 11.6927 10.213 12.3698 9.6222 12.7083 8.9608 12.7083 8.1102 12.7083 6.6226 11.4958 5.4167 10 5.4167Z" stroke="currentColor" stroke-linecap="round" stroke-linejoin="round" stroke-width="2"/>
  <path d="M10.1042 8.125H10M10.2083 8.125C10.2083 8.2401 10.1151 8.3333 10 8.3333 9.8849 8.3333 9.7917 8.2401 9.7917 8.125 9.7917 8.0099 9.8849 7.9167 10 7.9167 10.1151 7.9167 10.2083 8.0099 10.2083 8.125Z" stroke="currentColor" stroke-linecap="round" stroke-linejoin="round" stroke-width="2"/>
</svg>
