<svg xmlns="http://www.w3.org/2000/svg" width="20" height="20" viewBox="0 0 20 20" fill="none">
  <path d="M4.1667 7.5C4.1667 4.7501 4.1667 3.3752 5.0209 2.5209 5.8752 1.6667 7.2501 1.6667 10 1.6667 12.7498 1.6667 14.1248 1.6667 14.9791 2.5209 15.8333 3.3752 15.8333 4.7501 15.8333 7.5V12.5C15.8333 15.2498 15.8333 16.6248 14.9791 17.4791 14.1248 18.3333 12.7498 18.3333 10 18.3333 7.2501 18.3333 5.8752 18.3333 5.0209 17.4791 4.1667 16.6248 4.1667 15.2498 4.1667 12.5V7.5Z" stroke="currentColor" stroke-linecap="round" stroke-linejoin="round" stroke-width="2"/>
  <path d="M10.5239 11.8723C10.3834 12.0077 10.1956 12.0833 10.0001 12.0833 9.8046 12.0833 9.6168 12.0077 9.4763 11.8723 8.1893 10.6253 6.4647 9.2323 7.3057 7.2099 7.7605 6.1164 8.8521 5.4167 10.0001 5.4167 11.1481 5.4167 12.2397 6.1164 12.6944 7.2099 13.5344 9.2297 11.814 10.6296 10.5239 11.8723Z" stroke="currentColor" stroke-linecap="round" stroke-linejoin="round" stroke-width="2"/>
  <path d="M10.1042 8.3333H10M10.2083 8.3333C10.2083 8.4484 10.1151 8.5417 10 8.5417 9.8849 8.5417 9.7917 8.4484 9.7917 8.3333 9.7917 8.2183 9.8849 8.125 10 8.125 10.1151 8.125 10.2083 8.2183 10.2083 8.3333Z" stroke="currentColor" stroke-linecap="round" stroke-linejoin="round" stroke-width="2"/>
  <path d="M10.1042 15.8333H10M10.2083 15.8333C10.2083 15.9484 10.1151 16.0417 10 16.0417 9.8849 16.0417 9.7917 15.9484 9.7917 15.8333 9.7917 15.7182 9.8849 15.625 10 15.625 10.1151 15.625 10.2083 15.7182 10.2083 15.8333Z" stroke="currentColor" stroke-linecap="round" stroke-linejoin="round" stroke-width="2"/>
</svg>
