<svg xmlns="http://www.w3.org/2000/svg" width="20" height="20" viewBox="0 0 20 20" fill="none">
  <path d="M4.1667 5C4.2393 3.8171 4.4386 3.0639 4.9854 2.5209 5.8458 1.6667 7.2305 1.6667 10 1.6667 12.7695 1.6667 14.1542 1.6667 15.0146 2.5209 15.5614 3.0639 15.7607 3.8171 15.8333 5M15.8333 15C15.7607 16.1828 15.5614 16.9361 15.0146 17.4791 14.1542 18.3333 12.7695 18.3333 10 18.3333 7.2305 18.3333 5.8458 18.3333 4.9854 17.4791 4.4386 16.9361 4.2393 16.1828 4.1667 15" stroke="currentColor" stroke-linecap="round" stroke-width="2"/>
  <path d="M9.1667 15.8333H10.8333" stroke="currentColor" stroke-linecap="round" stroke-linejoin="round" stroke-width="2"/>
  <path d="M14.5833 7.5L15.861 8.8215C16.3981 9.3771 16.6667 9.6548 16.6667 10 16.6667 10.3452 16.3981 10.6229 15.861 11.1785L14.5833 12.5" stroke="currentColor" stroke-linecap="round" stroke-linejoin="round" stroke-width="2"/>
  <path d="M5.4167 7.5L4.139 8.8215C3.6019 9.3771 3.3333 9.6548 3.3333 10 3.3333 10.3452 3.6019 10.6229 4.139 11.1785L5.4167 12.5" stroke="currentColor" stroke-linecap="round" stroke-linejoin="round" stroke-width="2"/>
</svg>
