<svg xmlns="http://www.w3.org/2000/svg" width="20" height="20" viewBox="0 0 20 20" fill="none">
  <path d="M15.8333 17.5C17.2928 16.9327 18.3333 15.8516 18.3333 13.9809 18.3333 10.849 15.4167 7.5 12.5 7.5 9.5833 7.5 6.6667 10.849 6.6667 13.9809 6.6667 15.8516 7.7072 16.9327 9.1667 17.5" stroke="currentColor" stroke-linecap="round" stroke-width="2"/>
  <path d="M13.3333 7.5078C12.8923 4.5488 10.212 1.6667 7.5316 1.6667 4.5991 1.6667 1.6667 5.1163 1.6667 8.3422 1.6667 11.3417 4.2017 12.3703 6.9147 12.5" stroke="currentColor" stroke-width="2"/>
  <path d="M6.25 4.1667L5.4167 5" stroke="currentColor" stroke-linecap="round" stroke-linejoin="round" stroke-width="2"/>
  <path d="M8.75 4.1667L9.5833 5" stroke="currentColor" stroke-linecap="round" stroke-linejoin="round" stroke-width="2"/>
  <path d="M12.5 10C14.1667 10 15.8333 11.855 15.8333 13.5898 15.8333 14.6301 15.1269 15.2295 14.2459 15.5427 13.8708 15.6761 13.5851 16.0087 13.5851 16.4068V17.265C13.5851 17.855 13.1067 18.3333 12.5168 18.3333 11.9267 18.3333 11.4484 17.855 11.4484 17.265V16.4068C11.4484 16.0087 11.1629 15.6758 10.7873 15.5438 9.8965 15.2309 9.1667 14.6313 9.1667 13.5898 9.1667 11.855 10.8333 10 12.5 10Z" stroke="currentColor" stroke-width="2"/>
</svg>
