<svg xmlns="http://www.w3.org/2000/svg" width="20" height="20" viewBox="0 0 20 20" fill="none">
  <path d="M5 15H1.6667V10C1.6667 7.2386 3.9052 5 6.6667 5 7.9473 5 9.1154 5.4814 10 6.2732 10.8846 5.4814 12.0528 5 13.3333 5 16.0948 5 18.3333 7.2386 18.3333 10V15H15V10C15 9.0795 14.2538 8.3333 13.3333 8.3333 12.4128 8.3333 11.6667 9.0795 11.6667 10V15H8.3333V10C8.3333 9.0795 7.5871 8.3333 6.6667 8.3333 5.7462 8.3333 5 9.0795 5 10V15Z" stroke="currentColor" stroke-linejoin="round" stroke-width="2"/>
</svg>
