<svg xmlns="http://www.w3.org/2000/svg" width="20" height="20" viewBox="0 0 20 20" fill="none">
  <path d="M10.8333 1.6667H9.1667C5.6311 1.6667 3.8634 1.6667 2.765 2.765 1.6667 3.8634 1.6667 5.6311 1.6667 9.1667 1.6667 12.7022 1.6667 14.47 2.765 15.5683 3.8634 16.6667 5.6311 16.6667 9.1667 16.6667H10.8333C14.3688 16.6667 16.1367 16.6667 17.235 15.5683 18.3333 14.47 18.3333 12.7022 18.3333 9.1667 18.3333 5.6311 18.3333 3.8634 17.235 2.765 16.1367 1.6667 14.3688 1.6667 10.8333 1.6667Z" stroke="currentColor" stroke-width="2"/>
  <path d="M14.1667 12.5C15 12.0577 15 11.3457 15 9.9218V8.4115C15 6.9876 15 6.2757 14.1667 5.8333" stroke="currentColor" stroke-linecap="round" stroke-width="2"/>
  <path d="M15 18.3333V16.6667" stroke="currentColor" stroke-linecap="round" stroke-width="2"/>
  <path d="M5 18.3333V16.6667" stroke="currentColor" stroke-linecap="round" stroke-width="2"/>
  <path d="M7.9165 10.8333C8.8465 10.8333 9.6004 10.0872 9.6004 9.1667 9.6004 8.2462 8.8465 7.5 7.9165 7.5M7.9165 10.8333C6.9865 10.8333 6.2326 10.0872 6.2326 9.1667 6.2326 8.2462 6.9865 7.5 7.9165 7.5M7.9165 10.8333V12.5M7.9165 7.5V5.8333M6.4582 10L4.9999 10.8333M10.8332 7.5L9.3748 8.3333M9.3749 10L10.8333 10.8333M5 7.5L6.4583 8.3333" stroke="currentColor" stroke-linecap="round" stroke-linejoin="round" stroke-width="2"/>
</svg>
