<svg xmlns="http://www.w3.org/2000/svg" width="20" height="20" viewBox="0 0 20 20" fill="none">
  <path d="M2.5 9.1667C2.5 6.8631 4.3631 5 6.6667 5L5.8333 7.0833" stroke="currentColor" stroke-linecap="round" stroke-linejoin="round" stroke-width="2"/>
  <path d="M17.5 10.8333C17.5 13.1369 15.6369 15 13.3333 15L14.1667 12.9167" stroke="currentColor" stroke-linecap="round" stroke-linejoin="round" stroke-width="2"/>
  <path d="M15.2778 8.3333H12.2223C10.7818 8.3333 10.0616 8.3333 9.6142 7.9062 9.1667 7.4791 9.1667 6.7916 9.1667 5.4167 9.1667 4.0417 9.1667 3.3543 9.6142 2.9271 10.0616 2.5 10.7818 2.5 12.2223 2.5H15.2778C16.7182 2.5 17.4384 2.5 17.8858 2.9271 18.3333 3.3543 18.3333 4.0417 18.3333 5.4167 18.3333 6.7916 18.3333 7.4791 17.8858 7.9062 17.4384 8.3333 16.7182 8.3333 15.2778 8.3333Z" stroke="currentColor" stroke-linecap="round" stroke-linejoin="round" stroke-width="2"/>
  <path d="M7.7778 17.5H4.7222C3.2818 17.5 2.5616 17.5 2.1141 17.0728 1.6667 16.6458 1.6667 15.9582 1.6667 14.5833 1.6667 13.2084 1.6667 12.5209 2.1141 12.0938 2.5616 11.6667 3.2818 11.6667 4.7222 11.6667H7.7778C9.2182 11.6667 9.9384 11.6667 10.3858 12.0938 10.8333 12.5209 10.8333 13.2084 10.8333 14.5833 10.8333 15.9582 10.8333 16.6458 10.3858 17.0728 9.9384 17.5 9.2182 17.5 7.7778 17.5Z" stroke="currentColor" stroke-linecap="round" stroke-linejoin="round" stroke-width="2"/>
  <path d="M6.4583 14.5833H6.25M6.6667 14.5833C6.6667 14.8134 6.4801 15 6.25 15 6.0199 15 5.8333 14.8134 5.8333 14.5833 5.8333 14.3533 6.0199 14.1667 6.25 14.1667 6.4801 14.1667 6.6667 14.3533 6.6667 14.5833Z" stroke="currentColor" stroke-linecap="round" stroke-linejoin="round" stroke-width="2"/>
  <path d="M13.9583 5.4167H13.75M14.1667 5.4167C14.1667 5.6468 13.9801 5.8333 13.75 5.8333 13.5199 5.8333 13.3333 5.6468 13.3333 5.4167 13.3333 5.1866 13.5199 5 13.75 5 13.9801 5 14.1667 5.1866 14.1667 5.4167Z" stroke="currentColor" stroke-linecap="round" stroke-linejoin="round" stroke-width="2"/>
</svg>
