<svg xmlns="http://www.w3.org/2000/svg" width="20" height="20" viewBox="0 0 20 20" fill="none">
  <path d="M2.5 2.5L17.5 17.5" stroke="currentColor" stroke-linecap="round" stroke-linejoin="round" stroke-width="2"/>
  <path d="M8.5268 8.5268C8.1497 8.9038 7.9165 9.4247 7.9165 10 7.9165 11.1506 8.8492 12.0833 9.9998 12.0833 10.5752 12.0833 11.096 11.8502 11.473 11.4731" stroke="currentColor" stroke-linecap="round" stroke-linejoin="round" stroke-width="2"/>
  <path d="M18.0473 14.7139C18.2249 14.4823 18.3333 14.2043 18.3333 13.9019V5.7725C18.3333 5.2991 18.063 4.8704 17.6107 4.7303 16.8253 4.4868 15.3995 4.1667 13.3333 4.1667 11.1279 4.1667 9.8563 4.6336 8.1593 4.826M15.1828 15.1828C14.6372 15.1266 14.0207 15.0912 13.3333 15.0912 9.3742 15.0912 8.4247 16.5959 2.6207 15.316 2.0605 15.1925 1.6667 14.6888 1.6667 14.1152V5.7676C1.6667 4.9544 2.434 4.3614 3.2317 4.5197 3.7911 4.6307 4.3026 4.7141 4.7746 4.7746" stroke="currentColor" stroke-linecap="round" stroke-linejoin="round" stroke-width="2"/>
  <path d="M1.6671 12.0801C3.508 12.0801 5.0004 13.5725 5.0004 15.4134M18.3333 7.8908C16.8879 7.8908 15.4171 6.283 15.4171 4.5833M1.6667 7.5C3.2434 7.5 4.6651 6.2504 4.9203 4.9203M16.4003 13.067C16.9603 12.7083 17.6422 12.5 18.3333 12.5" stroke="currentColor" stroke-linecap="round" stroke-linejoin="round" stroke-width="2"/>
</svg>
