<svg xmlns="http://www.w3.org/2000/svg" width="20" height="20" viewBox="0 0 20 20" fill="none">
  <path d="M17.4522 14.0295C16.9053 10.7388 15.2027 8.2884 13.7225 6.8492 13.2918 6.4304 13.0764 6.2209 12.6007 6.0271 12.1249 5.8333 11.716 5.8333 10.8982 5.8333H9.1018C8.284 5.8333 7.8751 5.8333 7.3994 6.0271 6.9236 6.2209 6.7083 6.4304 6.2775 6.8492 4.7974 8.2884 3.0947 10.7388 2.5477 14.0295 2.1408 16.4778 4.3994 18.3333 6.9236 18.3333H13.0764C15.6006 18.3333 17.8593 16.4778 17.4522 14.0295Z" stroke="currentColor" stroke-linecap="round" stroke-linejoin="round" stroke-width="2"/>
  <path d="M6.0472 3.7024C5.8753 3.4522 5.6261 3.1125 6.1408 3.035 6.6699 2.9554 7.2193 3.3176 7.7571 3.3102 8.2436 3.3034 8.4915 3.0877 8.7574 2.7796 9.0374 2.4551 9.471 1.6667 10 1.6667 10.529 1.6667 10.9626 2.4551 11.2426 2.7796 11.5085 3.0877 11.7563 3.3034 12.2428 3.3102 12.7807 3.3176 13.3301 2.9554 13.8592 3.035 14.3739 3.1125 14.1248 3.4522 13.9528 3.7024L13.1754 4.8339C12.8429 5.3179 12.6767 5.5599 12.3287 5.6966 11.9808 5.8333 11.5311 5.8333 10.6318 5.8333H9.3682C8.4689 5.8333 8.0193 5.8333 7.6713 5.6966 7.3233 5.5599 7.1571 5.3179 6.8245 4.8339L6.0472 3.7024Z" stroke="currentColor" stroke-linejoin="round" stroke-width="2"/>
  <path d="M11.3556 10.7655C11.1754 10.1004 10.2584 9.5002 9.1577 9.9493 8.0569 10.3982 7.8821 11.8428 9.5471 11.9962 10.2996 12.0656 10.7903 11.9158 11.2394 12.3397 11.6887 12.7635 11.7721 13.9423 10.6238 14.26 9.4754 14.5777 8.3383 14.0813 8.2145 13.3764M9.8681 9.1606V9.7942M9.8681 14.3577V14.9939" stroke="currentColor" stroke-linecap="round" stroke-linejoin="round" stroke-width="2"/>
</svg>
