<svg xmlns="http://www.w3.org/2000/svg" width="20" height="20" viewBox="0 0 20 20" fill="none">
  <path d="M12.0832 11.2508C12.0832 12.4014 11.1504 13.3342 9.9998 13.3342 8.8492 13.3342 7.9165 12.4014 7.9165 11.2508 7.9165 10.1003 8.8492 9.1675 9.9998 9.1675 11.1504 9.1675 12.0832 10.1003 12.0832 11.2508Z" stroke="currentColor" stroke-linecap="round" stroke-linejoin="round" stroke-width="2"/>
  <path d="M14.5833 5.4582C15.9859 5.5521 16.9951 5.7901 17.6107 5.9809 18.063 6.1211 18.3333 6.5497 18.3333 7.0232V15.1526C18.3333 16.0818 17.3099 16.781 16.3968 16.6086 15.6134 16.4607 14.5922 16.3418 13.3333 16.3418 9.3742 16.3418 8.4247 17.8465 2.6207 16.5667 2.0605 16.4432 1.6667 15.9394 1.6667 15.3658V7.0183C1.6667 6.2051 2.434 5.612 3.2317 5.7703 4.0548 5.9336 4.7741 6.0373 5.4167 6.0959" stroke="currentColor" stroke-linecap="round" stroke-linejoin="round" stroke-width="2"/>
  <path d="M1.6667 8.7508C3.2928 8.7508 4.754 7.4217 4.9408 6.046M15.4171 5.8342C15.4171 7.5339 16.8879 9.1417 18.3333 9.1417M18.3333 13.7508C16.7508 13.7508 15.2168 14.8427 15.085 16.3328M5.0004 16.6642C5.0004 14.8233 3.508 13.3309 1.6671 13.3309" stroke="currentColor" stroke-linecap="round" stroke-linejoin="round" stroke-width="2"/>
  <path d="M10 6.2508V2.9175M12.5 6.2508V4.5842M7.5 6.2508V4.5842" stroke="currentColor" stroke-linecap="round" stroke-linejoin="round" stroke-width="2"/>
</svg>
