<svg xmlns="http://www.w3.org/2000/svg" width="20" height="20" viewBox="0 0 20 20" fill="none">
  <path d="M1.6811 11.25C3.5141 11.25 5 12.7359 5 14.5689" stroke="currentColor" stroke-linecap="round" stroke-linejoin="round" stroke-width="2"/>
  <path d="M5 2.9311C5 4.7641 3.5141 6.25 1.6811 6.25" stroke="currentColor" stroke-linecap="round" stroke-linejoin="round" stroke-width="2"/>
  <path d="M15 2.9311C15 4.748 16.4742 6.224 18.2853 6.2497" stroke="currentColor" stroke-linecap="round" stroke-linejoin="round" stroke-width="2"/>
  <path d="M18.3333 8.3333V7.9167C18.3333 5.5596 18.3333 4.3811 17.6011 3.6489 16.8688 2.9167 15.6903 2.9167 13.3333 2.9167H6.6667C4.3096 2.9167 3.1311 2.9167 2.3989 3.6489 1.6667 4.3811 1.6667 5.5596 1.6667 7.9167V9.5833C1.6667 11.9403 1.6667 13.1188 2.3989 13.8511 3.1311 14.5833 4.3096 14.5833 6.6667 14.5833H10.8333" stroke="currentColor" stroke-linecap="round" stroke-linejoin="round" stroke-width="2"/>
  <path d="M12.5 8.75C12.5 10.1308 11.3808 11.25 10 11.25 8.6193 11.25 7.5 10.1308 7.5 8.75 7.5 7.3693 8.6193 6.25 10 6.25 11.3808 6.25 12.5 7.3693 12.5 8.75Z" stroke="currentColor" stroke-linecap="round" stroke-linejoin="round" stroke-width="2"/>
  <path d="M13.3333 12.9167C13.3333 12.4564 13.7064 12.0833 14.1667 12.0833H18.3333L17.0833 10.4167M18.3333 14.5833C18.3333 15.0436 17.9602 15.4167 17.5 15.4167H13.3333L14.5833 17.0833" stroke="currentColor" stroke-linecap="round" stroke-linejoin="round" stroke-width="2"/>
</svg>
