<svg xmlns="http://www.w3.org/2000/svg" width="20" height="20" viewBox="0 0 20 20" fill="none">
  <path d="M1.6809 14.1667C3.5139 14.1667 4.9998 15.6526 4.9998 17.4856" stroke="currentColor" stroke-linecap="round" stroke-linejoin="round" stroke-width="2"/>
  <path d="M15 17.4856V17.409C15 15.6183 16.4517 14.1667 18.2423 14.1667" stroke="currentColor" stroke-linecap="round" stroke-linejoin="round" stroke-width="2"/>
  <path d="M1.6809 9.1508C3.5139 9.1508 5 7.6663 5 5.8333 3.7055 5.8723 2.9333 6.0167 2.3989 6.5511 1.6667 7.2834 1.6667 8.4618 1.6667 10.8189V12.5C1.6667 14.857 1.6667 16.0355 2.3989 16.7678 3.1311 17.5 4.3096 17.5 6.6667 17.5H13.3333C15.6903 17.5 16.8688 17.5 17.6011 16.7678 18.3333 16.0355 18.3333 14.857 18.3333 12.5V10.8189C18.3333 8.4618 18.3333 7.2834 17.6011 6.5511 17.0667 6.0167 16.2945 5.8709 15 5.8319 15 7.6488 16.4742 9.1248 18.2853 9.1505" stroke="currentColor" stroke-linecap="round" stroke-linejoin="round" stroke-width="2"/>
  <path d="M10 5.8333V2.5" stroke="currentColor" stroke-linecap="round" stroke-linejoin="round" stroke-width="2"/>
  <path d="M12.5 5.8333V4.1667" stroke="currentColor" stroke-linecap="round" stroke-linejoin="round" stroke-width="2"/>
  <path d="M7.5 5.8333V4.1667" stroke="currentColor" stroke-linecap="round" stroke-linejoin="round" stroke-width="2"/>
  <path d="M12.5 11.6667C12.5 13.0474 11.3808 14.1667 10 14.1667 8.6193 14.1667 7.5 13.0474 7.5 11.6667 7.5 10.2859 8.6193 9.1667 10 9.1667 11.3808 9.1667 12.5 10.2859 12.5 11.6667Z" stroke="currentColor" stroke-linecap="round" stroke-linejoin="round" stroke-width="2"/>
</svg>
