<svg xmlns="http://www.w3.org/2000/svg" width="20" height="20" viewBox="0 0 20 20" fill="none">
  <path d="M10.0017 7.5059C9.0812 7.5059 8.335 8.0655 8.335 8.7559 8.335 9.4463 9.0812 10.0059 10.0017 10.0059 10.9221 10.0059 11.6683 10.5656 11.6683 11.2559 11.6683 11.9463 10.9221 12.5059 10.0017 12.5059M10.0017 7.5059C10.7273 7.5059 11.3447 7.8537 11.5734 8.3392M10.0017 7.5059V6.6726M10.0017 12.5059C9.2759 12.5059 8.6586 12.1581 8.4298 11.6726M10.0017 12.5059V13.3393" stroke="currentColor" stroke-linecap="round" stroke-width="2"/>
  <path d="M10.8333 2.0892C10.8333 2.0892 10.5699 2.0892 10 2.0892 6.268 2.0892 4.4021 2.0892 3.2427 3.2486 2.0833 4.408 2.0833 6.274 2.0833 10.0059 2.0833 13.7378 2.0833 15.6038 3.2427 16.7632 4.4021 17.9226 6.268 17.9226 10 17.9226 13.7319 17.9226 15.5979 17.9226 16.7573 16.7632 17.9167 15.6038 17.9167 13.7378 17.9167 10.0059 17.9167 9.436 17.9167 9.1726 17.9167 9.1726" stroke="currentColor" stroke-linecap="round" stroke-width="2"/>
  <path d="M17.9069 2.0774L14.4271 5.5593M13.7402 2.5122L13.8388 5.0885C13.8388 5.6957 14.2013 6.074 14.8618 6.1217L17.4651 6.2441" stroke="currentColor" stroke-linecap="round" stroke-linejoin="round" stroke-width="2"/>
</svg>
