<svg xmlns="http://www.w3.org/2000/svg" width="20" height="20" viewBox="0 0 20 20" fill="none">
  <path d="M12.0832 8.75C12.0832 9.9006 11.1504 10.8333 9.9998 10.8333 8.8492 10.8333 7.9165 9.9006 7.9165 8.75 7.9165 7.5994 8.8492 6.6667 9.9998 6.6667 11.1504 6.6667 12.0832 7.5994 12.0832 8.75Z" stroke="currentColor" stroke-linecap="round" stroke-linejoin="round" stroke-width="2"/>
  <path d="M18.3333 8.75V4.5225C18.3333 4.0491 18.063 3.6204 17.6107 3.4803 16.8253 3.2368 15.3995 2.9167 13.3333 2.9167 9.5174 2.9167 8.4973 4.3146 3.2317 3.2697 2.434 3.1114 1.6667 3.7044 1.6667 4.5176V12.8652C1.6667 13.4388 2.0605 13.9425 2.6207 14.066 7.26 15.0891 8.7977 14.3329 11.25 13.9883" stroke="currentColor" stroke-linecap="round" stroke-linejoin="round" stroke-width="2"/>
  <path d="M1.6667 6.25C3.2928 6.25 4.754 4.9209 4.9408 3.5451M15.4171 3.3333C15.4171 5.033 16.8879 6.6408 18.3333 6.6408M5.0004 14.1634C5.0004 12.3225 3.508 10.8301 1.6671 10.8301" stroke="currentColor" stroke-linecap="round" stroke-linejoin="round" stroke-width="2"/>
  <path d="M13.3333 12.9167C13.3333 12.4564 13.7064 12.0833 14.1667 12.0833H18.3333L17.0833 10.4167M18.3333 14.5833C18.3333 15.0436 17.9602 15.4167 17.5 15.4167H13.3333L14.5833 17.0833" stroke="currentColor" stroke-linecap="round" stroke-linejoin="round" stroke-width="2"/>
</svg>
