<svg xmlns="http://www.w3.org/2000/svg" width="20" height="20" viewBox="0 0 20 20" fill="none">
  <path d="M10.0017 7.5012C9.0812 7.5012 8.335 8.0609 8.335 8.7513 8.335 9.4416 9.0812 10.0013 10.0017 10.0013 10.9221 10.0013 11.6683 10.5609 11.6683 11.2513 11.6683 11.9416 10.9221 12.5013 10.0017 12.5013M10.0017 7.5012C10.7273 7.5012 11.3447 7.8491 11.5734 8.3346M10.0017 7.5012V6.6679M10.0017 12.5013C9.2759 12.5013 8.6586 12.1534 8.4298 11.6679M10.0017 12.5013V13.3346" stroke="currentColor" stroke-linecap="round" stroke-width="2"/>
  <path d="M11.25 2.0846C11.25 2.0846 10.5699 2.0846 10 2.0846 6.268 2.0846 4.4021 2.0846 3.2427 3.2439 2.0833 4.4033 2.0833 6.2693 2.0833 10.0013 2.0833 13.7332 2.0833 15.5992 3.2427 16.7586 4.4021 17.9179 6.268 17.9179 10 17.9179 13.7319 17.9179 15.5979 17.9179 16.7573 16.7586 17.9167 15.5992 17.9167 13.7332 17.9167 10.0013 17.9167 9.4313 17.9167 8.7513 17.9167 8.7513" stroke="currentColor" stroke-linecap="round" stroke-width="2"/>
  <path d="M13.75 6.2494L17.2298 2.7676M17.9167 5.8146L17.8182 3.2384C17.8182 2.6311 17.4556 2.2528 16.7952 2.2051L14.1918 2.0827" stroke="currentColor" stroke-linecap="round" stroke-linejoin="round" stroke-width="2"/>
</svg>
