<svg xmlns="http://www.w3.org/2000/svg" width="20" height="20" viewBox="0 0 20 20" fill="none">
  <path d="M12.0832 10.0008C12.0832 11.1514 11.1504 12.0842 9.9998 12.0842 8.8492 12.0842 7.9165 11.1514 7.9165 10.0008 7.9165 8.8503 8.8492 7.9175 9.9998 7.9175 11.1504 7.9175 12.0832 8.8503 12.0832 10.0008Z" stroke="currentColor" stroke-linecap="round" stroke-linejoin="round" stroke-width="2"/>
  <path d="M13.3333 4.1675C15.3995 4.1675 16.8253 4.4877 17.6107 4.7311 18.063 4.8712 18.3333 5.2999 18.3333 5.7734V13.9027C18.3333 14.832 17.3099 15.5312 16.3968 15.3587 15.6134 15.2108 14.5922 15.092 13.3333 15.092 9.3742 15.092 8.4247 16.5968 2.6207 15.3168 2.0605 15.1933 1.6667 14.6896 1.6667 14.116V5.7684C1.6667 4.9552 2.434 4.3622 3.2317 4.5205 8.4973 5.5654 9.5174 4.1675 13.3333 4.1675Z" stroke="currentColor" stroke-linecap="round" stroke-linejoin="round" stroke-width="2"/>
  <path d="M1.6667 7.5008C3.2928 7.5008 4.754 6.1717 4.9408 4.796M15.4171 4.5842C15.4171 6.2839 16.8879 7.8916 18.3333 7.8916M18.3333 12.5008C16.7508 12.5008 15.2168 13.5927 15.085 15.0828M5.0004 15.4143C5.0004 13.5733 3.508 12.0809 1.6671 12.0809" stroke="currentColor" stroke-linecap="round" stroke-linejoin="round" stroke-width="2"/>
</svg>
