<svg xmlns="http://www.w3.org/2000/svg" width="20" height="20" viewBox="0 0 20 20" fill="none">
  <path d="M11.6667 1.8515C11.1282 1.7423 10.5708 1.685 10 1.685 5.3976 1.685 1.6667 5.4118 1.6667 10.0092 1.6667 14.6064 5.3976 18.3333 10 18.3333 14.6023 18.3333 18.3333 14.6064 18.3333 10.0092 18.3333 9.4391 18.2759 8.8823 18.1667 8.3443" stroke="currentColor" stroke-linecap="round" stroke-width="2"/>
  <path d="M10 7.5119C9.0795 7.5119 8.3333 8.0709 8.3333 8.7605 8.3333 9.4501 9.0795 10.0092 10 10.0092 10.9205 10.0092 11.6667 10.5683 11.6667 11.2577 11.6667 11.9473 10.9205 12.5064 10 12.5064M10 7.5119C10.7257 7.5119 11.343 7.8594 11.5718 8.3443M10 7.5119V6.6795M10 12.5064C9.2743 12.5064 8.657 12.159 8.4282 11.674M10 12.5064V13.3388" stroke="currentColor" stroke-linecap="round" stroke-width="2"/>
  <path d="M18.3293 1.6667L14.8494 5.1447M14.1626 2.101L14.2611 4.6744C14.2611 5.2809 14.6237 5.6589 15.2841 5.7065L17.8875 5.8288" stroke="currentColor" stroke-linecap="round" stroke-linejoin="round" stroke-width="2"/>
</svg>
