<svg xmlns="http://www.w3.org/2000/svg" width="20" height="20" viewBox="0 0 20 20" fill="none">
  <path d="M11.6667 1.8334C11.1282 1.7241 10.5708 1.6667 10 1.6667 5.3976 1.6667 1.6667 5.3976 1.6667 10 1.6667 14.6023 5.3976 18.3333 10 18.3333 14.6023 18.3333 18.3333 14.6023 18.3333 10 18.3333 9.4292 18.2759 8.8718 18.1667 8.3333" stroke="currentColor" stroke-linecap="round" stroke-width="2"/>
  <path d="M10 7.5C9.0795 7.5 8.3333 8.0596 8.3333 8.75 8.3333 9.4403 9.0795 10 10 10 10.9205 10 11.6667 10.5597 11.6667 11.25 11.6667 11.9403 10.9205 12.5 10 12.5M10 7.5C10.7257 7.5 11.343 7.8478 11.5718 8.3333M10 7.5V6.6667M10 12.5C9.2743 12.5 8.657 12.1522 8.4282 11.6667M10 12.5V13.3333" stroke="currentColor" stroke-linecap="round" stroke-width="2"/>
  <path d="M14.165 5.835L17.6449 2.3531M18.3317 5.4002L18.2332 2.8239C18.2332 2.2167 17.8707 1.8384 17.2103 1.7907L14.6068 1.6683" stroke="currentColor" stroke-linecap="round" stroke-linejoin="round" stroke-width="2"/>
</svg>
