<svg xmlns="http://www.w3.org/2000/svg" width="20" height="20" viewBox="0 0 20 20" fill="none">
  <path d="M15.4167 9.5744V9.5828" stroke="currentColor" stroke-linecap="round" stroke-linejoin="round" stroke-width="2"/>
  <path d="M4.5833 10.4078V10.4161" stroke="currentColor" stroke-linecap="round" stroke-linejoin="round" stroke-width="2"/>
  <path d="M2.4999 2.5008L17.4999 17.5008" stroke="currentColor" stroke-linecap="round" stroke-linejoin="round" stroke-width="2"/>
  <path d="M8.5268 8.5262C8.1498 8.9032 7.9166 9.4241 7.9166 9.9994 7.9166 11.15 8.8493 12.0828 9.9999 12.0828 10.5753 12.0828 11.0961 11.8495 11.4731 11.4725" stroke="currentColor" stroke-linecap="round" stroke-linejoin="round" stroke-width="2"/>
  <path d="M18.0472 14.7147C18.2248 14.4832 18.3332 14.2052 18.3332 13.9027V5.7734C18.3332 5.2999 18.0629 4.8712 17.6107 4.7311 16.8252 4.4877 15.3994 4.1675 13.3333 4.1675 11.1278 4.1675 9.8563 4.6344 8.1593 4.8268M15.1828 15.1837C14.6371 15.1274 14.0206 15.092 13.3333 15.092 9.3742 15.092 8.4245 16.5968 2.6206 15.3168 2.0604 15.1933 1.6666 14.6896 1.6666 14.116V5.7684C1.6666 4.9552 2.4339 4.3622 3.2316 4.5205 3.791 4.6315 4.3025 4.7149 4.7745 4.7754" stroke="currentColor" stroke-linecap="round" stroke-linejoin="round" stroke-width="2"/>
</svg>
