<svg xmlns="http://www.w3.org/2000/svg" width="20" height="20" viewBox="0 0 20 20" fill="none">
  <path d="M12.0832 9.1667C12.0832 10.3172 11.1504 11.25 9.9998 11.25 8.8492 11.25 7.9165 10.3172 7.9165 9.1667 7.9165 8.0161 8.8492 7.0833 9.9998 7.0833 11.1504 7.0833 12.0832 8.0161 12.0832 9.1667Z" stroke="currentColor" stroke-linecap="round" stroke-linejoin="round" stroke-width="2"/>
  <path d="M18.3333 10.4167V4.9392C18.3333 4.4657 18.063 4.0371 17.6107 3.8969 16.8253 3.6535 15.3995 3.3333 13.3333 3.3333 9.5174 3.3333 8.4973 4.7312 3.2317 3.6863 2.434 3.5281 1.6667 4.1211 1.6667 4.9343V13.2818C1.6667 13.8554 2.0605 14.3592 2.6207 14.4827 7.9948 15.6678 9.2069 14.4654 12.5 14.2808" stroke="currentColor" stroke-linecap="round" stroke-linejoin="round" stroke-width="2"/>
  <path d="M1.6667 6.6667C3.2928 6.6667 4.754 5.3376 4.9408 3.9618M15.4171 3.75C15.4171 5.4497 16.8879 7.0575 18.3333 7.0575M5.0004 14.5801C5.0004 12.7392 3.508 11.2468 1.6671 11.2468" stroke="currentColor" stroke-linecap="round" stroke-linejoin="round" stroke-width="2"/>
  <path d="M18.3333 12.9167L16.4583 14.7917M16.4583 14.7917L14.5833 16.6667M16.4583 14.7917L14.5833 12.9167M16.4583 14.7917L18.3333 16.6667" stroke="currentColor" stroke-linecap="round" stroke-linejoin="round" stroke-width="2"/>
</svg>
