<svg xmlns="http://www.w3.org/2000/svg" width="20" height="20" viewBox="0 0 20 20" fill="none">
  <path d="M12.0833 10.0008C12.0833 11.1514 11.1506 12.0842 10 12.0842 8.8494 12.0842 7.9167 11.1514 7.9167 10.0008 7.9167 8.8503 8.8494 7.9175 10 7.9175 11.1506 7.9175 12.0833 8.8503 12.0833 10.0008Z" stroke="currentColor" stroke-linecap="round" stroke-linejoin="round" stroke-width="2"/>
  <path d="M4.6875 10.4167H4.5833M4.7917 10.4167C4.7917 10.5318 4.6984 10.625 4.5833 10.625 4.4683 10.625 4.375 10.5318 4.375 10.4167 4.375 10.3016 4.4683 10.2083 4.5833 10.2083 4.6984 10.2083 4.7917 10.3016 4.7917 10.4167Z" stroke="currentColor" stroke-linecap="round" stroke-linejoin="round" stroke-width="2"/>
  <path d="M15.5208 9.5833H15.4167M15.625 9.5833C15.625 9.6984 15.5318 9.7917 15.4167 9.7917 15.3016 9.7917 15.2083 9.6984 15.2083 9.5833 15.2083 9.4683 15.3016 9.375 15.4167 9.375 15.5318 9.375 15.625 9.4683 15.625 9.5833Z" stroke="currentColor" stroke-linecap="round" stroke-linejoin="round" stroke-width="2"/>
  <path d="M13.3333 4.1675C15.3995 4.1675 16.8253 4.4877 17.6107 4.7311 18.063 4.8712 18.3333 5.2999 18.3333 5.7734V13.9027C18.3333 14.832 17.3099 15.5312 16.3968 15.3587 15.6134 15.2108 14.5922 15.092 13.3333 15.092 9.3742 15.092 8.4247 16.5968 2.6207 15.3168 2.0605 15.1933 1.6667 14.6896 1.6667 14.116V5.7684C1.6667 4.9552 2.434 4.3622 3.2317 4.5205 8.4973 5.5654 9.5174 4.1675 13.3333 4.1675Z" stroke="currentColor" stroke-linecap="round" stroke-linejoin="round" stroke-width="2"/>
</svg>
