<svg xmlns="http://www.w3.org/2000/svg" width="20" height="20" viewBox="0 0 20 20" fill="none">
  <path d="M17.5 14.1667V13.3333C17.5 12.4128 16.7538 11.6667 15.8333 11.6667 14.9128 11.6667 14.1667 12.4128 14.1667 13.3333V14.1667" stroke="currentColor" stroke-linecap="round" stroke-linejoin="round" stroke-width="2"/>
  <path d="M16.6667 14.1667H15C14.2143 14.1667 13.8215 14.1667 13.5774 14.4108 13.3333 14.6548 13.3333 15.0477 13.3333 15.8333 13.3333 16.619 13.3333 17.0118 13.5774 17.2559 13.8215 17.5 14.2143 17.5 15 17.5H16.6667C17.4523 17.5 17.8452 17.5 18.0892 17.2559 18.3333 17.0118 18.3333 16.619 18.3333 15.8333 18.3333 15.0477 18.3333 14.6548 18.0892 14.4108 17.8452 14.1667 17.4523 14.1667 16.6667 14.1667Z" stroke="currentColor" stroke-linecap="round" stroke-linejoin="round" stroke-width="2"/>
  <path d="M1.6811 11.6667C3.5141 11.6667 5 13.1526 5 14.9856" stroke="currentColor" stroke-linecap="round" stroke-linejoin="round" stroke-width="2"/>
  <path d="M5 3.348C5 5.181 3.5141 6.6669 1.6811 6.6669" stroke="currentColor" stroke-linecap="round" stroke-linejoin="round" stroke-width="2"/>
  <path d="M15 3.348C15 5.1649 16.4742 6.6408 18.2853 6.6665" stroke="currentColor" stroke-linecap="round" stroke-linejoin="round" stroke-width="2"/>
  <path d="M18.3333 9.1667V8.3333C18.3333 5.9763 18.3333 4.7978 17.6011 4.0656 16.8688 3.3333 15.6903 3.3333 13.3333 3.3333H6.6667C4.3096 3.3333 3.1311 3.3333 2.3989 4.0656 1.6667 4.7978 1.6667 5.9763 1.6667 8.3333V10C1.6667 12.357 1.6667 13.5355 2.3989 14.2678 3.1311 15 4.3096 15 6.6667 15H10" stroke="currentColor" stroke-linecap="round" stroke-linejoin="round" stroke-width="2"/>
  <path d="M12.5 9.1667C12.5 10.5474 11.3808 11.6667 10 11.6667 8.6193 11.6667 7.5 10.5474 7.5 9.1667 7.5 7.786 8.6193 6.6667 10 6.6667 11.3808 6.6667 12.5 7.786 12.5 9.1667Z" stroke="currentColor" stroke-linecap="round" stroke-linejoin="round" stroke-width="2"/>
</svg>
