<svg xmlns="http://www.w3.org/2000/svg" width="20" height="20" viewBox="0 0 20 20" fill="none">
  <path d="M12.0832 11.6675C12.0832 12.8181 11.1504 13.7508 9.9998 13.7508 8.8492 13.7508 7.9165 12.8181 7.9165 11.6675 7.9165 10.5169 8.8492 9.5842 9.9998 9.5842 11.1504 9.5842 12.0832 10.5169 12.0832 11.6675Z" stroke="currentColor" stroke-linecap="round" stroke-linejoin="round" stroke-width="2"/>
  <path d="M14.1667 5.8358C15.7877 5.9064 16.9357 6.1723 17.6107 6.3815 18.063 6.5217 18.3333 6.9503 18.3333 7.4238V15.5694C18.3333 16.4987 17.3099 17.1979 16.3968 17.0254 15.6134 16.8775 14.5922 16.7587 13.3333 16.7587 9.3742 16.7587 8.4247 18.2634 2.6207 16.9835 2.0605 16.86 1.6667 16.3563 1.6667 15.7827V7.4351C1.6667 6.6219 2.434 6.0289 3.2317 6.1872 4.43 6.425 5.4084 6.5362 6.25 6.5663" stroke="currentColor" stroke-linecap="round" stroke-linejoin="round" stroke-width="2"/>
  <path d="M1.6667 9.1675C3.2928 9.1675 4.754 7.8384 4.9408 6.4626M15.4171 6.2508C15.4171 7.9505 16.8879 9.5583 18.3333 9.5583M18.3333 14.1675C16.7508 14.1675 15.2168 15.2593 15.085 16.7494M5.0004 17.0809C5.0004 15.2399 3.508 13.7476 1.6671 13.7476" stroke="currentColor" stroke-linecap="round" stroke-linejoin="round" stroke-width="2"/>
  <path d="M10 7.0842L10 2.5008M10 7.0842C10.5835 7.0842 12.0833 5.0008 12.0833 5.0008M10 7.0842C9.4165 7.0842 7.9167 5.0008 7.9167 5.0008" stroke="currentColor" stroke-linecap="round" stroke-linejoin="round" stroke-width="2"/>
</svg>
