<svg xmlns="http://www.w3.org/2000/svg" width="20" height="20" viewBox="0 0 20 20" fill="none">
  <path d="M8.2322 8.2322C7.7798 8.6847 7.5 9.3097 7.5 10 7.5 11.3807 8.6193 12.5 10 12.5 10.6903 12.5 11.3153 12.2202 11.7677 11.7677" stroke="currentColor" stroke-linecap="round" stroke-linejoin="round" stroke-width="2"/>
  <path d="M2.5 2.5L17.5 17.5" stroke="currentColor" stroke-linecap="round" stroke-linejoin="round" stroke-width="2"/>
  <path d="M17.9508 14.6175C18.3333 13.8655 18.3333 12.7317 18.3333 10.8333V9.1667C18.3333 6.8096 18.3333 5.6311 17.6011 4.8989 16.8688 4.1667 15.6903 4.1667 13.3333 4.1667H7.5M15.7754 15.7754C15.14 15.8333 14.3453 15.8333 13.3333 15.8333H6.6667C4.3096 15.8333 3.1311 15.8333 2.3989 15.1011 1.6667 14.3688 1.6667 13.1903 1.6667 10.8333V9.1667C1.6667 6.8096 1.6667 5.6311 2.3989 4.8989 2.8168 4.481 3.38 4.3016 4.2246 4.2246" stroke="currentColor" stroke-linecap="round" stroke-linejoin="round" stroke-width="2"/>
  <path d="M4.4792 10H4.375M4.5833 10C4.5833 10.1151 4.4901 10.2083 4.375 10.2083 4.2599 10.2083 4.1667 10.1151 4.1667 10 4.1667 9.8849 4.2599 9.7917 4.375 9.7917 4.4901 9.7917 4.5833 9.8849 4.5833 10Z" stroke="currentColor" stroke-linecap="round" stroke-linejoin="round" stroke-width="2"/>
  <path d="M15.7292 10H15.625M15.8333 10C15.8333 10.1151 15.7401 10.2083 15.625 10.2083 15.5099 10.2083 15.4167 10.1151 15.4167 10 15.4167 9.8849 15.5099 9.7917 15.625 9.7917 15.7401 9.7917 15.8333 9.8849 15.8333 10Z" stroke="currentColor" stroke-linecap="round" stroke-linejoin="round" stroke-width="2"/>
</svg>
