<svg xmlns="http://www.w3.org/2000/svg" width="20" height="20" viewBox="0 0 20 20" fill="none">
  <path d="M13.3333 4.1667H6.6667C4.3096 4.1667 3.1311 4.1667 2.3989 4.8989 1.6667 5.6311 1.6667 6.8096 1.6667 9.1667V10.8333C1.6667 13.1903 1.6667 14.3688 2.3989 15.1011 3.1311 15.8333 4.3096 15.8333 6.6667 15.8333H13.3333C15.6903 15.8333 16.8688 15.8333 17.6011 15.1011 18.3333 14.3688 18.3333 13.1903 18.3333 10.8333V9.1667C18.3333 6.8096 18.3333 5.6311 17.6011 4.8989 16.8688 4.1667 15.6903 4.1667 13.3333 4.1667Z" stroke="currentColor" stroke-linecap="round" stroke-linejoin="round" stroke-width="2"/>
  <path d="M4.4792 10H4.375M4.5833 10C4.5833 10.1151 4.4901 10.2083 4.375 10.2083 4.2599 10.2083 4.1667 10.1151 4.1667 10 4.1667 9.8849 4.2599 9.7917 4.375 9.7917 4.4901 9.7917 4.5833 9.8849 4.5833 10Z" stroke="currentColor" stroke-linecap="round" stroke-linejoin="round" stroke-width="2"/>
  <path d="M15.7292 10H15.625M15.8333 10C15.8333 10.1151 15.7401 10.2083 15.625 10.2083 15.5099 10.2083 15.4167 10.1151 15.4167 10 15.4167 9.8849 15.5099 9.7917 15.625 9.7917 15.7401 9.7917 15.8333 9.8849 15.8333 10Z" stroke="currentColor" stroke-linecap="round" stroke-linejoin="round" stroke-width="2"/>
  <path d="M12.5 10C12.5 11.3808 11.3808 12.5 10 12.5 8.6193 12.5 7.5 11.3808 7.5 10 7.5 8.6193 8.6193 7.5 10 7.5 11.3808 7.5 12.5 8.6193 12.5 10Z" stroke="currentColor" stroke-linecap="round" stroke-linejoin="round" stroke-width="2"/>
</svg>
