<svg xmlns="http://www.w3.org/2000/svg" width="20" height="20" viewBox="0 0 20 20" fill="none">
  <path d="M1.6811 12.5C3.5141 12.5 5 13.9859 5 15.8189" stroke="currentColor" stroke-linecap="round" stroke-linejoin="round" stroke-width="2"/>
  <path d="M1.6811 7.5C3.231 7.5 4.5327 6.4377 4.8979 5.0014" stroke="currentColor" stroke-linecap="round" stroke-linejoin="round" stroke-width="2"/>
  <path d="M15 4.1811C15 5.998 16.4742 7.474 18.2853 7.4997" stroke="currentColor" stroke-linecap="round" stroke-linejoin="round" stroke-width="2"/>
  <path d="M8.2322 8.2322C7.7798 8.6847 7.5 9.3097 7.5 10 7.5 11.3807 8.6193 12.5 10 12.5 10.6903 12.5 11.3153 12.2202 11.7677 11.7677" stroke="currentColor" stroke-linecap="round" stroke-linejoin="round" stroke-width="2"/>
  <path d="M2.5 2.5L17.5 17.5" stroke="currentColor" stroke-linecap="round" stroke-linejoin="round" stroke-width="2"/>
  <path d="M18.2422 12.5C17.5598 12.5 16.9267 12.7108 16.4043 13.0709" stroke="currentColor" stroke-linecap="round" stroke-linejoin="round" stroke-width="2"/>
  <path d="M17.9508 14.6175C18.3333 13.8655 18.3333 12.7317 18.3333 10.8333V9.1667C18.3333 6.8096 18.3333 5.6311 17.6011 4.8989 16.8688 4.1667 15.6903 4.1667 13.3333 4.1667H7.5M15.7754 15.7754C15.14 15.8333 14.3453 15.8333 13.3333 15.8333H6.6667C4.3096 15.8333 3.1311 15.8333 2.3989 15.1011 1.6667 14.3688 1.6667 13.1903 1.6667 10.8333V9.1667C1.6667 6.8096 1.6667 5.6311 2.3989 4.8989 2.8168 4.481 3.38 4.3016 4.2246 4.2246" stroke="currentColor" stroke-linecap="round" stroke-linejoin="round" stroke-width="2"/>
</svg>
