<svg xmlns="http://www.w3.org/2000/svg" width="20" height="20" viewBox="0 0 20 20" fill="none">
  <path d="M1.6809 5.8352C3.5139 5.8352 4.9998 4.3493 4.9998 2.5163" stroke="currentColor" stroke-linecap="round" stroke-linejoin="round" stroke-width="2"/>
  <path d="M15 2.5163V2.5929C15 4.3835 16.4517 5.8352 18.2423 5.8352" stroke="currentColor" stroke-linecap="round" stroke-linejoin="round" stroke-width="2"/>
  <path d="M1.6812 10.8492C3.514 10.8493 5 12.3338 5 14.1667 3.7055 14.1277 2.9333 13.9833 2.3989 13.4488 1.8647 12.9147 1.7202 12.1428 1.6812 10.8492ZM1.6812 10.8492C1.6811 10.8492 1.6812 10.8492 1.6812 10.8492ZM1.6812 10.8492C1.6667 10.3697 1.6667 9.8185 1.6667 9.1811V7.5C1.6667 5.143 1.6667 3.9645 2.3989 3.2322 3.1311 2.5 4.3096 2.5 6.6667 2.5H13.3333C15.6903 2.5 16.8688 2.5 17.6011 3.2322 18.3333 3.9645 18.3333 5.143 18.3333 7.5V9.1811C18.3333 11.5382 18.3333 12.7167 17.6011 13.4488 17.0667 13.9833 16.2945 14.1291 15 14.1681 15 12.3512 16.4742 10.8753 18.2853 10.8495" stroke="currentColor" stroke-linecap="round" stroke-linejoin="round" stroke-width="2"/>
  <path d="M10 14.1667V17.5" stroke="currentColor" stroke-linecap="round" stroke-linejoin="round" stroke-width="2"/>
  <path d="M12.5 14.1667V15.8333" stroke="currentColor" stroke-linecap="round" stroke-linejoin="round" stroke-width="2"/>
  <path d="M7.5 14.1667V15.8333" stroke="currentColor" stroke-linecap="round" stroke-linejoin="round" stroke-width="2"/>
  <path d="M12.5 8.3366C12.5 6.9559 11.3808 5.8366 10 5.8366 8.6193 5.8366 7.5 6.9559 7.5 8.3366 7.5 9.7173 8.6193 10.8366 10 10.8366 11.3808 10.8366 12.5 9.7173 12.5 8.3366Z" stroke="currentColor" stroke-linecap="round" stroke-linejoin="round" stroke-width="2"/>
</svg>
