<svg xmlns="http://www.w3.org/2000/svg" width="20" height="20" viewBox="0 0 20 20" fill="none">
  <path d="M13.3333 2.5H6.6667C4.3096 2.5 3.1311 2.5 2.3989 3.2322 1.6667 3.9645 1.6667 5.143 1.6667 7.5V9.1667C1.6667 11.5237 1.6667 12.7022 2.3989 13.4344 3.1311 14.1667 4.3096 14.1667 6.6667 14.1667H13.3333C15.6903 14.1667 16.8688 14.1667 17.6011 13.4344 18.3333 12.7022 18.3333 11.5237 18.3333 9.1667V7.5C18.3333 5.143 18.3333 3.9645 17.6011 3.2322 16.8688 2.5 15.6903 2.5 13.3333 2.5Z" stroke="currentColor" stroke-linecap="round" stroke-linejoin="round" stroke-width="2"/>
  <path d="M11.6667 17.5H13.3333M11.6667 17.5C10.9763 17.5 10.4167 16.9403 10.4167 16.25V14.1667L10 14.1667M11.6667 17.5H8.3333M8.3333 17.5H6.6667M8.3333 17.5C9.0237 17.5 9.5833 16.9403 9.5833 16.25V14.1667L10 14.1667M10 14.1667V17.5" stroke="currentColor" stroke-linecap="round" stroke-linejoin="round" stroke-width="2"/>
  <path d="M12.3732 9.8045C12.5 9.4982 12.5 9.1099 12.5 8.3333 12.5 7.5568 12.5 7.1685 12.3732 6.8622 12.204 6.4538 11.8795 6.1294 11.4712 5.9602 11.1648 5.8333 10.7766 5.8333 10 5.8333 9.2234 5.8333 8.8352 5.8333 8.5288 5.9602 8.1205 6.1294 7.796 6.4538 7.6269 6.8622 7.5 7.1685 7.5 7.5568 7.5 8.3333 7.5 9.1099 7.5 9.4982 7.6269 9.8045 7.796 10.2128 8.1205 10.5373 8.5288 10.7065 8.8352 10.8333 9.2234 10.8333 10 10.8333 10.7766 10.8333 11.1648 10.8333 11.4712 10.7065 11.8795 10.5373 12.204 10.2128 12.3732 9.8045Z" stroke="currentColor" stroke-linecap="round" stroke-linejoin="round" stroke-width="2"/>
</svg>
