<svg xmlns="http://www.w3.org/2000/svg" width="20" height="20" viewBox="0 0 20 20" fill="none">
  <path d="M15.4167 12.0833C15.4167 12.7737 14.857 13.3333 14.1667 13.3333 13.4763 13.3333 12.9167 12.7737 12.9167 12.0833 12.9167 11.393 13.4763 10.8333 14.1667 10.8333 14.857 10.8333 15.4167 11.393 15.4167 12.0833Z" stroke="currentColor" stroke-linecap="round" stroke-linejoin="round" stroke-width="2"/>
  <path d="M14.1667 6.7708V6.875M14.375 6.875C14.375 6.9901 14.2818 7.0833 14.1667 7.0833 14.0516 7.0833 13.9583 6.9901 13.9583 6.875 13.9583 6.7599 14.0516 6.6667 14.1667 6.6667 14.2818 6.6667 14.375 6.7599 14.375 6.875Z" stroke="currentColor" stroke-linecap="round" stroke-linejoin="round" stroke-width="2"/>
  <path d="M5 16.6667H3.3333M5 16.6667C5.6904 16.6667 6.25 16.107 6.25 15.4167V13.3333L6.6667 13.3333M5 16.6667H7.0833V13.3333L6.6667 13.3333M6.6667 13.3333V16.6667" stroke="currentColor" stroke-linecap="round" stroke-linejoin="round" stroke-width="2"/>
  <path d="M18.3333 12.5V7.5C18.3333 5.9423 18.3333 5.1635 17.9984 4.5833 17.779 4.2033 17.4634 3.8877 17.0833 3.6683 16.5032 3.3333 15.7243 3.3333 14.1667 3.3333 12.609 3.3333 11.8302 3.3333 11.25 3.6683 10.8699 3.8877 10.5543 4.2033 10.3349 4.5833 10 5.1635 10 5.9423 10 7.5V12.5C10 14.0577 10 14.8365 10.3349 15.4167 10.5543 15.7967 10.8699 16.1123 11.25 16.3317 11.8302 16.6667 12.609 16.6667 14.1667 16.6667 15.7243 16.6667 16.5032 16.6667 17.0833 16.3317 17.4634 16.1123 17.779 15.7967 17.9984 15.4167 18.3333 14.8365 18.3333 14.0577 18.3333 12.5Z" stroke="currentColor" stroke-linecap="round" stroke-linejoin="round" stroke-width="2"/>
  <path d="M6.6667 3.3333C4.3096 3.3333 3.1311 3.3333 2.3989 4.0656 1.6667 4.7978 1.6667 5.9763 1.6667 8.3333 1.6667 10.6903 1.6667 11.8688 2.3989 12.6011 3.1311 13.3333 4.3096 13.3333 6.6667 13.3333" stroke="currentColor" stroke-linecap="round" stroke-linejoin="round" stroke-width="2"/>
</svg>
