<svg xmlns="http://www.w3.org/2000/svg" width="20" height="20" viewBox="0 0 20 20" fill="none">
  <path d="M10.8333 2.5H6.6667C4.3096 2.5 3.1311 2.5 2.3989 3.2322 1.6667 3.9645 1.6667 5.143 1.6667 7.5V9.1667C1.6667 11.5237 1.6667 12.7022 2.3989 13.4344 3.1311 14.1667 4.3096 14.1667 6.6667 14.1667H13.3333C15.6903 14.1667 16.8688 14.1667 17.6011 13.4344 18.2414 12.7941 18.3218 11.8125 18.3319 10" stroke="currentColor" stroke-linecap="round" stroke-linejoin="round" stroke-width="2"/>
  <path d="M11.6667 17.5H13.3333M11.6667 17.5C10.9763 17.5 10.4167 16.9403 10.4167 16.25V14.1667L10 14.1667M11.6667 17.5H8.3333M8.3333 17.5H6.6667M8.3333 17.5C9.0237 17.5 9.5833 16.9403 9.5833 16.25V14.1667L10 14.1667M10 14.1667V17.5" stroke="currentColor" stroke-linecap="round" stroke-linejoin="round" stroke-width="2"/>
  <circle cx="15.833333333333334" cy="5" r="2.5" stroke="currentColor" stroke-linecap="round" stroke-linejoin="round" stroke-width="2"/>
  <path d="M11.6667 17.5H13.3333M11.6667 17.5C10.9763 17.5 10.4167 16.9403 10.4167 16.25V14.1667L10 14.1667M11.6667 17.5H8.3333M8.3333 17.5H6.6667M8.3333 17.5C9.0237 17.5 9.5833 16.9403 9.5833 16.25V14.1667L10 14.1667M10 14.1667V17.5" stroke="currentColor" stroke-linecap="round" stroke-linejoin="round" stroke-width="2"/>
</svg>
