<svg xmlns="http://www.w3.org/2000/svg" width="20" height="20" viewBox="0 0 20 20" fill="none">
  <path d="M18.1667 11.6667C18.2759 11.1282 18.3333 10.5708 18.3333 10 18.3333 5.3976 14.6023 1.6667 10 1.6667 5.3976 1.6667 1.6667 5.3976 1.6667 10 1.6667 14.6023 5.3976 18.3333 10 18.3333 11.0261 18.3333 12.0089 18.1479 12.9167 17.8087" stroke="currentColor" stroke-linecap="round" stroke-linejoin="round" stroke-width="2"/>
  <path d="M15.4167 8.75C15.4167 10.3608 14.1108 11.6667 12.5 11.6667 10.8892 11.6667 9.5833 10.3608 9.5833 8.75 9.5833 7.1392 10.8892 5.8333 12.5 5.8333 14.1108 5.8333 15.4167 7.1392 15.4167 8.75Z" stroke="currentColor" stroke-linecap="round" stroke-linejoin="round" stroke-width="2"/>
  <path d="M15.4167 8.75V15.8333C15.4167 16.6099 15.4167 16.9982 15.5435 17.3045 15.7127 17.7128 16.0372 18.0373 16.4455 18.2065 16.7518 18.3333 17.1401 18.3333 17.9167 18.3333" stroke="currentColor" stroke-linecap="round" stroke-linejoin="round" stroke-width="2"/>
  <path d="M5 8.3333H6.6667" stroke="currentColor" stroke-linecap="round" stroke-linejoin="round" stroke-width="2"/>
  <path d="M12.5 8.8268V8.6688M12.7083 8.75C12.7083 8.8651 12.6151 8.9583 12.5 8.9583 12.3849 8.9583 12.2917 8.8651 12.2917 8.75 12.2917 8.6349 12.3849 8.5417 12.5 8.5417 12.6151 8.5417 12.7083 8.6349 12.7083 8.75Z" stroke="currentColor" stroke-linecap="round" stroke-linejoin="round" stroke-width="2"/>
  <path d="M10 15C8.6369 15 7.4268 14.3453 6.6667 13.3333" stroke="currentColor" stroke-linecap="round" stroke-linejoin="round" stroke-width="2"/>
</svg>
