<svg xmlns="http://www.w3.org/2000/svg" width="20" height="20" viewBox="0 0 20 20" fill="none">
  <path d="M13.75 9.5833C13.75 11.1942 12.0711 12.5 10 12.5 7.9289 12.5 6.25 11.1942 6.25 9.5833 6.25 7.9725 7.9289 6.6667 10 6.6667 12.0711 6.6667 13.75 7.9725 13.75 9.5833Z" stroke="currentColor" stroke-linecap="round" stroke-width="2"/>
  <path d="M11.6667 15C11.2372 15.2578 10.6489 15.4167 10 15.4167 9.3511 15.4167 8.7628 15.2578 8.3333 15" stroke="currentColor" stroke-linecap="round" stroke-width="2"/>
  <path d="M10 3.3333C6.088 3.3333 2.9167 6.5046 2.9167 10.4167 2.9167 12.146 3.5364 13.7306 4.5658 14.9604 5.0581 15.5486 5.4167 16.2596 5.4167 17.0266 5.4167 17.7482 6.0017 18.3333 6.7234 18.3333H13.2766C13.9982 18.3333 14.5833 17.7482 14.5833 17.0266 14.5833 16.2596 14.9418 15.5486 15.4342 14.9604 16.4637 13.7306 17.0833 12.146 17.0833 10.4167 17.0833 6.5046 13.912 3.3333 10 3.3333Z" stroke="currentColor" stroke-linecap="round" stroke-width="2"/>
  <path d="M13.3333 4.1667C13.4722 3.4167 14.1667 1.8667 15.8333 1.6667" stroke="currentColor" stroke-linecap="round" stroke-width="2"/>
  <path d="M6.6667 4.1667C6.5278 3.4167 5.8333 1.8667 4.1667 1.6667" stroke="currentColor" stroke-linecap="round" stroke-width="2"/>
  <path d="M10.1042 9.5833H10M10.2083 9.5833C10.2083 9.6984 10.1151 9.7917 10 9.7917 9.8849 9.7917 9.7917 9.6984 9.7917 9.5833 9.7917 9.4683 9.8849 9.375 10 9.375 10.1151 9.375 10.2083 9.4683 10.2083 9.5833Z" stroke="currentColor" stroke-linecap="round" stroke-linejoin="round" stroke-width="2"/>
</svg>
