<svg xmlns="http://www.w3.org/2000/svg" width="20" height="20" viewBox="0 0 20 20" fill="none">
  <path d="M10 10C6.2212 10 3.0246 12.4702 1.9646 15.87 1.6637 16.8349 1.5133 17.3174 1.8914 17.8253 2.2695 18.3333 2.8843 18.3333 4.1138 18.3333H15.8862C17.1158 18.3333 17.7305 18.3333 18.1086 17.8253 18.4867 17.3174 18.3362 16.8349 18.0354 15.87 16.9754 12.4702 13.7788 10 10 10Z" stroke="currentColor" stroke-linecap="round" stroke-width="2"/>
  <path d="M10 18.3333C10 16.9526 8.8808 15.8333 7.5 15.8333 6.1193 15.8333 5 16.9526 5 18.3333" stroke="currentColor" stroke-linecap="round" stroke-width="2"/>
  <path d="M10 10V6.25M10 6.25V4.1667C10 2.9882 10 2.3989 10.3661 2.0328 10.7323 1.6667 11.3215 1.6667 12.5 1.6667H14.375C15.3523 1.6667 15.841 1.6667 16.1776 1.925 16.2643 1.9915 16.3418 2.0691 16.4083 2.1557 16.6667 2.4924 16.6667 2.981 16.6667 3.9583 16.6667 4.9357 16.6667 5.4243 16.4083 5.761 16.3418 5.8476 16.2643 5.9252 16.1776 5.9917 15.841 6.25 15.3523 6.25 14.375 6.25H10Z" stroke="currentColor" stroke-linecap="round" stroke-width="2"/>
  <path d="M12.6042 14.1667H12.5M12.7083 14.1667C12.7083 14.2818 12.6151 14.375 12.5 14.375 12.3849 14.375 12.2917 14.2818 12.2917 14.1667 12.2917 14.0516 12.3849 13.9583 12.5 13.9583 12.6151 13.9583 12.7083 14.0516 12.7083 14.1667Z" stroke="currentColor" stroke-linecap="round" stroke-linejoin="round" stroke-width="2"/>
</svg>
