<svg xmlns="http://www.w3.org/2000/svg" width="20" height="20" viewBox="0 0 20 20" fill="none">
  <path d="M10.482 12.4999L9.0036 14.7364C8.8057 15.0358 8.7068 15.1855 8.7681 15.301 8.8293 15.4166 9.0078 15.4166 9.3646 15.4166H10.6354C10.9923 15.4166 11.1707 15.4166 11.2319 15.5321 11.2933 15.6477 11.1943 15.7973 10.9964 16.0968L9.518 18.3332" stroke="currentColor" stroke-linecap="round" stroke-linejoin="round" stroke-width="2"/>
  <path d="M14.5647 9.1668C14.5708 9.1667 14.5771 9.1667 14.5833 9.1667 16.6544 9.1667 18.3333 10.8456 18.3333 12.9167 18.3333 14.8543 16.8853 16.4693 15 16.6667M14.5647 9.1668C14.577 9.0295 14.5833 8.8905 14.5833 8.75 14.5833 6.2187 12.5313 4.1667 10 4.1667 7.6027 4.1667 5.6353 6.0072 5.4337 8.3523M14.5647 9.1668C14.4794 10.1121 14.1072 10.9747 13.5357 11.6667M5.4337 8.3523C3.32 8.5534 1.6667 10.3336 1.6667 12.5 1.6667 14.5158 3.0981 16.26 5 16.6461M5.4337 8.3523C5.5652 8.3398 5.6985 8.3333 5.8333 8.3333 6.7715 8.3333 7.6373 8.6434 8.3338 9.1667" stroke="currentColor" stroke-linecap="round" stroke-linejoin="round" stroke-width="2"/>
  <path d="M8.3333 4.2819C8.2638 3.9237 8.1354 3.5709 7.9446 3.2371 7.4884 2.4392 6.76 1.8989 5.9463 1.6667 6.072 2.6886 5.5962 3.7346 4.6575 4.2819 3.7188 4.8292 2.5838 4.7223 1.7702 4.1014 1.5625 4.9291 1.6617 5.8363 2.1179 6.6342 2.9043 8.0096 4.4992 8.6197 5.9463 8.2055" stroke="currentColor" stroke-linejoin="round" stroke-width="2"/>
</svg>
