<svg xmlns="http://www.w3.org/2000/svg" width="20" height="20" viewBox="0 0 20 20" fill="none">
  <path d="M9.9977 12.0833V13.3333M7.4967 14.5833V15.8333M12.4968 14.5833V15.8333M5.4134 17.0833V18.3333M14.5801 17.0833V18.3333M9.9968 17.0833V18.3333" stroke="currentColor" stroke-linecap="round" stroke-width="2"/>
  <path d="M14.5647 9.2042C14.5708 9.2042 14.5771 9.2041 14.5833 9.2041 16.6544 9.2041 18.3333 10.8956 18.3333 12.9822 18.3333 14.2921 17.5 15.4167 16.6667 15.8333M14.5647 9.2042C14.577 9.0659 14.5833 8.9258 14.5833 8.7843 14.5833 6.2341 12.5313 4.1667 10 4.1667 7.6027 4.1667 5.6353 6.021 5.4337 8.3836M14.5647 9.2042C14.4794 10.1566 14.1072 11.0257 13.5357 11.7228M5.4337 8.3836C3.32 8.5862 1.6667 10.3798 1.6667 12.5624 1.6667 13.9358 2.3213 15.0675 3.3333 15.8333M5.4337 8.3836C5.5652 8.371 5.6985 8.3645 5.8333 8.3645 6.7715 8.3645 7.6373 8.6769 8.3338 9.2041" stroke="currentColor" stroke-linecap="round" stroke-linejoin="round" stroke-width="2"/>
  <path d="M8.3333 4.2819C8.2638 3.9237 8.1354 3.5709 7.9446 3.2371 7.4884 2.4392 6.76 1.8989 5.9463 1.6667 6.072 2.6886 5.5962 3.7346 4.6575 4.2819 3.7188 4.8292 2.5838 4.7223 1.7702 4.1014 1.5625 4.9291 1.6617 5.8363 2.1179 6.6342 2.9043 8.0096 4.4992 8.6197 5.9463 8.2055" stroke="currentColor" stroke-linejoin="round" stroke-width="2"/>
</svg>
