<svg xmlns="http://www.w3.org/2000/svg" width="20" height="20" viewBox="0 0 20 20" fill="none">
  <path d="M10 13.3333V18.3333M12.0833 14.5833L7.9168 17.0833M7.9167 14.5833L12.0833 17.0833" stroke="currentColor" stroke-linecap="round" stroke-linejoin="round" stroke-width="2"/>
  <path d="M14.5647 9.2043C14.5708 9.2043 14.5771 9.2043 14.5833 9.2043 16.6544 9.2043 18.3333 10.8957 18.3333 12.9823 18.3333 14.7803 17.0867 16.285 15.4167 16.6668M14.5647 9.2043C14.577 9.066 14.5833 8.9259 14.5833 8.7844 14.5833 6.2342 12.5313 4.1668 10 4.1668 7.6027 4.1668 5.6353 6.0211 5.4337 8.3837M14.5647 9.2043C14.4958 9.9739 14.1474 10.6361 13.75 11.2501M5.4337 8.3837C3.32 8.5863 1.6667 10.3799 1.6667 12.5625 1.6667 14.4422 2.8929 16.0332 4.5833 16.5682M5.4337 8.3837C5.5652 8.3711 5.6985 8.3647 5.8333 8.3647 6.7715 8.3647 7.6373 8.677 8.3338 9.2043" stroke="currentColor" stroke-linecap="round" stroke-linejoin="round" stroke-width="2"/>
  <path d="M8.3333 4.2819C8.2638 3.9237 8.1354 3.5709 7.9446 3.2371 7.4884 2.4392 6.76 1.8989 5.9463 1.6667 6.072 2.6886 5.5962 3.7346 4.6575 4.2819 3.7188 4.8292 2.5838 4.7223 1.7702 4.1014 1.5625 4.9291 1.6617 5.8363 2.1179 6.6342 2.9043 8.0096 4.4992 8.6197 5.9463 8.2055" stroke="currentColor" stroke-linejoin="round" stroke-width="2"/>
</svg>
