<svg xmlns="http://www.w3.org/2000/svg" width="20" height="20" viewBox="0 0 20 20" fill="none">
  <path d="M14.5647 9.1743C14.5708 9.1743 14.5771 9.1743 14.5833 9.1743 16.6544 9.1743 18.3333 10.8558 18.3333 12.9299 18.3333 14.3702 17.4381 15.2442 16.25 15.8333M14.5647 9.1743C14.577 9.0368 14.5833 8.8977 14.5833 8.7569 14.5833 6.2218 12.5313 4.1667 10 4.1667 7.6027 4.1667 5.6353 6.01 5.4337 8.3586M14.5647 9.1743C14.4962 9.9349 14.2425 10.642 13.8491 11.25M5.4337 8.3586C3.32 8.5601 1.6667 10.343 1.6667 12.5127 1.6667 14.0573 2.5046 15.1177 3.75 15.8333M5.4337 8.3586C5.5652 8.3461 5.6985 8.3397 5.8333 8.3397 6.5923 8.3397 7.3038 8.5428 7.9167 8.8979" stroke="currentColor" stroke-linecap="round" stroke-linejoin="round" stroke-width="2"/>
  <path d="M10.0362 10.8333L9.0892 11.6967C8.633 12.1633 8.633 12.91 9.1132 13.3767 9.3533 13.61 9.7001 13.75 10.0362 13.75 10.3723 13.75 10.6498 13.6333 10.8898 13.4233 11.3701 12.9567 11.3701 12.1867 10.8898 11.72L10.0362 10.8333Z" stroke="currentColor" stroke-linejoin="round" stroke-width="2"/>
  <path d="M7.1195 15.4167L6.1725 16.28C5.7163 16.7467 5.7164 17.4933 6.1965 17.96 6.4366 18.1933 6.7834 18.3333 7.1195 18.3333 7.4557 18.3333 7.7331 18.2167 7.9732 18.0067 8.4534 17.54 8.4534 16.77 7.9732 16.3033L7.1195 15.4167Z" stroke="currentColor" stroke-linejoin="round" stroke-width="2"/>
  <path d="M12.9528 15.4167L12.0058 16.28C11.5497 16.7467 11.5497 17.4933 12.0298 17.96 12.27 18.1933 12.6168 18.3333 12.9528 18.3333 13.289 18.3333 13.5664 18.2167 13.8065 18.0067 14.2868 17.54 14.2868 16.77 13.8065 16.3033L12.9528 15.4167Z" stroke="currentColor" stroke-linejoin="round" stroke-width="2"/>
  <path d="M8.3333 4.2819C8.2638 3.9237 8.1354 3.5709 7.9446 3.2371 7.4884 2.4392 6.76 1.8989 5.9463 1.6667 6.072 2.6886 5.5962 3.7346 4.6575 4.2819 3.7188 4.8292 2.5838 4.7223 1.7702 4.1014 1.5625 4.9291 1.6617 5.8363 2.1179 6.6342 2.9043 8.0096 4.4992 8.6197 5.9463 8.2055" stroke="currentColor" stroke-linejoin="round" stroke-width="2"/>
</svg>
