<svg xmlns="http://www.w3.org/2000/svg" width="20" height="20" viewBox="0 0 20 20" fill="none">
  <path d="M16.2903 14.1667C17.2897 13.3037 17.9849 12.1893 18.3333 10.9797 16.2894 11.2288 14.1974 10.286 13.1028 8.4261 12.0083 6.5661 12.222 4.3173 13.4639 2.7053 11.8084 2.2936 9.9941 2.4902 8.3983 3.3941 6.0893 4.702 4.8588 7.1386 5.0129 9.5833" stroke="currentColor" stroke-linecap="round" stroke-linejoin="round" stroke-width="2"/>
  <path d="M1.6667 12.5C4.5833 15.4167 9.6463 14.1667 10.6103 12.5 10.7522 12.2548 10.8333 11.9703 10.8333 11.6667 10.8333 10.7462 10.0872 10 9.1667 10 8.2462 10 7.5 10.7462 7.5 11.6667" stroke="currentColor" stroke-linecap="round" stroke-width="2"/>
  <path d="M11.6668 17.4288C11.7971 17.4749 11.9373 17.5 12.0834 17.5 12.7737 17.5 13.3334 16.9403 13.3334 16.25 13.3334 15.5597 12.7737 15 12.0834 15 11.8383 15 11.6098 15.0705 11.4168 15.1924 10.4588 15.8521 8.6841 16.6982 6.6667 16.9175M4.1667 16.828C3.6085 16.7196 3.0495 16.5451 2.5 16.2898" stroke="currentColor" stroke-linecap="round" stroke-width="2"/>
  <path d="M15.8333 16.6669C16.0484 16.6669 16.6298 16.567 17.5 16.2126" stroke="currentColor" stroke-linecap="round" stroke-width="2"/>
</svg>
