<svg xmlns="http://www.w3.org/2000/svg" width="20" height="20" viewBox="0 0 20 20" fill="none">
  <path d="M6.6667 14.7149L6.9389 14.5C7.502 14.0556 8.1647 14.0556 8.7278 14.5L8.9389 14.6667C9.502 15.1111 10.1647 15.1111 10.7278 14.6667L10.9389 14.5C11.502 14.0556 12.1647 14.0556 12.7278 14.5L12.9389 14.6667C13.066 14.767 13.1982 14.8447 13.3332 14.8997M11.6667 18L11.8911 17.8333C12.4896 17.3889 13.194 17.3889 13.7924 17.8333L14.0168 18C14.6153 18.4444 15.3198 18.4444 15.9182 18L16.1427 17.8333C16.7411 17.3889 17.4455 17.3889 18.044 17.8333L18.3333 18.0483M8.3333 18L8.1089 17.8333C7.5104 17.3889 6.806 17.3889 6.2076 17.8333L5.9831 18C5.3847 18.4444 4.6803 18.4444 4.0818 18L3.8574 17.8333C3.2589 17.3889 2.5545 17.3889 1.956 17.8333L1.6667 18.0483" stroke="currentColor" stroke-linecap="round" stroke-linejoin="round" stroke-width="2"/>
  <path d="M14.5647 9.084C14.5708 9.0839 14.5771 9.0839 14.5833 9.0839 16.6544 9.0839 18.3333 10.7351 18.3333 12.7719 18.3333 13.7447 17.9503 14.7577 17.3246 15.4167M14.5647 9.084C14.577 8.949 14.5833 8.8123 14.5833 8.6742 14.5833 6.1847 12.5313 4.1667 10 4.1667 7.6027 4.1667 5.6353 5.9767 5.4337 8.283M14.5647 9.084C14.4794 10.0138 14.1072 10.862 13.5357 11.5426M5.4337 8.283C3.32 8.4808 1.6667 10.2316 1.6667 12.3621 1.6667 13.5084 2.1453 14.673 2.9167 15.4167M5.4337 8.283C5.5652 8.2707 5.6985 8.2644 5.8333 8.2644 6.7715 8.2644 7.6373 8.5693 8.3338 9.0839" stroke="currentColor" stroke-linecap="round" stroke-linejoin="round" stroke-width="2"/>
  <path d="M8.3333 4.2819C8.2638 3.9237 8.1354 3.5709 7.9446 3.2371 7.4884 2.4392 6.76 1.8989 5.9463 1.6667 6.072 2.6886 5.5962 3.7346 4.6575 4.2819 3.7188 4.8292 2.5838 4.7223 1.7702 4.1014 1.5625 4.9291 1.6617 5.8363 2.1179 6.6342 2.9043 8.0096 4.4992 8.6197 5.9463 8.2055" stroke="currentColor" stroke-linejoin="round" stroke-width="2"/>
</svg>
