<svg xmlns="http://www.w3.org/2000/svg" width="20" height="20" viewBox="0 0 20 20" fill="none">
  <path d="M14.5647 9.1558C14.5708 9.1557 14.5771 9.1557 14.5833 9.1557 16.6544 9.1557 18.3333 10.8309 18.3333 12.8973 18.3333 14.3665 17.4848 15.6378 16.25 16.2501M14.5647 9.1558C14.577 9.0188 14.5833 8.8801 14.5833 8.7399 14.5833 6.2142 12.5313 4.1668 10 4.1668 7.6027 4.1668 5.6353 6.0032 5.4337 8.3431M14.5647 9.1558C14.4958 9.9179 14.1474 10.5738 13.75 11.1818M5.4337 8.3431C3.32 8.5437 1.6667 10.32 1.6667 12.4816 1.6667 14.0204 2.5046 15.364 3.75 16.0828M5.4337 8.3431C5.5652 8.3306 5.6985 8.3242 5.8333 8.3242 6.7715 8.3242 7.6373 8.6336 8.3338 9.1557" stroke="currentColor" stroke-linecap="round" stroke-linejoin="round" stroke-width="2"/>
  <path d="M8.3333 4.2819C8.2638 3.9237 8.1354 3.5709 7.9446 3.2371 7.4884 2.4392 6.76 1.8989 5.9463 1.6667 6.072 2.6886 5.5962 3.7346 4.6575 4.2819 3.7188 4.8292 2.5838 4.7223 1.7702 4.1014 1.5625 4.9291 1.6617 5.8363 2.1179 6.6342 2.9043 8.0096 4.4992 8.6197 5.9463 8.2055" stroke="currentColor" stroke-linejoin="round" stroke-width="2"/>
  <path d="M6.7708 13.125H6.6667M10.1042 14.7917H10M13.4375 13.125H13.3333M13.4375 16.4583H13.3333M10.1042 18.125H10M6.7708 16.4583H6.6667M6.875 13.125C6.875 13.2401 6.7817 13.3333 6.6667 13.3333 6.5516 13.3333 6.4583 13.2401 6.4583 13.125 6.4583 13.0099 6.5516 12.9167 6.6667 12.9167 6.7817 12.9167 6.875 13.0099 6.875 13.125ZM10.2083 14.7917C10.2083 14.9068 10.1151 15 10 15 9.8849 15 9.7917 14.9068 9.7917 14.7917 9.7917 14.6766 9.8849 14.5833 10 14.5833 10.1151 14.5833 10.2083 14.6766 10.2083 14.7917ZM13.5417 13.125C13.5417 13.2401 13.4484 13.3333 13.3333 13.3333 13.2183 13.3333 13.125 13.2401 13.125 13.125 13.125 13.0099 13.2183 12.9167 13.3333 12.9167 13.4484 12.9167 13.5417 13.0099 13.5417 13.125ZM13.5417 16.4583C13.5417 16.5734 13.4484 16.6667 13.3333 16.6667 13.2183 16.6667 13.125 16.5734 13.125 16.4583 13.125 16.3433 13.2183 16.25 13.3333 16.25 13.4484 16.25 13.5417 16.3433 13.5417 16.4583ZM10.2083 18.125C10.2083 18.2401 10.1151 18.3333 10 18.3333 9.8849 18.3333 9.7917 18.2401 9.7917 18.125 9.7917 18.0099 9.8849 17.9167 10 17.9167 10.1151 17.9167 10.2083 18.0099 10.2083 18.125ZM6.875 16.4583C6.875 16.5734 6.7817 16.6667 6.6667 16.6667 6.5516 16.6667 6.4583 16.5734 6.4583 16.4583 6.4583 16.3433 6.5516 16.25 6.6667 16.25 6.7817 16.25 6.875 16.3433 6.875 16.4583Z" stroke="currentColor" stroke-linecap="round" stroke-linejoin="round" stroke-width="2"/>
</svg>
