<svg xmlns="http://www.w3.org/2000/svg" width="20" height="20" viewBox="0 0 20 20" fill="none">
  <path d="M16.2903 15C17.2897 14.1371 17.9849 13.0227 18.3333 11.813 16.2894 12.0622 14.1974 11.1193 13.1028 9.2594 12.0083 7.3994 12.222 5.1506 13.4639 3.5386 11.8084 3.1269 9.9941 3.3235 8.3983 4.2275 6.0893 5.5353 4.8588 7.972 5.0129 10.4167" stroke="currentColor" stroke-linecap="round" stroke-linejoin="round" stroke-width="2"/>
  <path d="M1.6667 12.8116C2.6137 13.4887 3.8254 13.4887 4.7725 12.8116 5.3435 12.3962 6.0956 12.3962 6.6667 12.8116 7.6137 13.4887 8.8393 13.5041 9.7725 12.827M14.1667 16.3627C13.2196 15.6855 12.0079 15.6855 11.0608 16.3627 10.4898 16.7782 9.7238 16.7628 9.1528 16.3473 8.2057 15.6702 6.994 15.6702 6.0608 16.3473 5.4759 16.7628 4.7377 16.7628 4.1667 16.3473" stroke="currentColor" stroke-linecap="round" stroke-width="2"/>
</svg>
