<svg xmlns="http://www.w3.org/2000/svg" width="20" height="20" viewBox="0 0 20 20" fill="none">
  <path d="M14.5647 9.204C14.5708 9.204 14.5771 9.204 14.5833 9.204 16.6544 9.204 18.3333 10.8954 18.3333 12.982 18.3333 14.1008 17.9167 15 17.5 15.4167M14.5647 9.204C14.577 9.0657 14.5833 8.9258 14.5833 8.7842 14.5833 6.234 12.5313 4.1667 10 4.1667 7.6027 4.1667 5.6353 6.0209 5.4337 8.3835M14.5647 9.204C14.4794 10.1564 14.1072 11.0255 13.5357 11.7227M5.4337 8.3835C3.32 8.5862 1.6667 10.3797 1.6667 12.5622 1.6667 13.7365 2.1453 14.6808 2.9167 15.4167M5.4337 8.3835C5.5652 8.3709 5.6985 8.3644 5.8333 8.3644 6.7715 8.3644 7.6373 8.6768 8.3338 9.204" stroke="currentColor" stroke-linecap="round" stroke-linejoin="round" stroke-width="2"/>
  <path d="M8.3333 4.2819C8.2638 3.9237 8.1354 3.5709 7.9446 3.2371 7.4884 2.4392 6.76 1.8989 5.9463 1.6667 6.072 2.6886 5.5962 3.7346 4.6575 4.2819 3.7188 4.8292 2.5838 4.7223 1.7702 4.1014 1.5625 4.9291 1.6617 5.8363 2.1179 6.6342 2.9043 8.0096 4.4992 8.6197 5.9463 8.2055" stroke="currentColor" stroke-linejoin="round" stroke-width="2"/>
  <path d="M10.1042 12.2917H10M7.6042 14.7917H7.5M5.1042 17.2917H5M10.1042 18.125H10M15.1042 17.2917H15M12.6042 14.7917H12.5M10.2083 12.2917C10.2083 12.4068 10.1151 12.5 10 12.5 9.8849 12.5 9.7917 12.4068 9.7917 12.2917 9.7917 12.1766 9.8849 12.0833 10 12.0833 10.1151 12.0833 10.2083 12.1766 10.2083 12.2917ZM7.7083 14.7917C7.7083 14.9068 7.6151 15 7.5 15 7.3849 15 7.2917 14.9068 7.2917 14.7917 7.2917 14.6766 7.3849 14.5833 7.5 14.5833 7.6151 14.5833 7.7083 14.6766 7.7083 14.7917ZM5.2083 17.2917C5.2083 17.4068 5.1151 17.5 5 17.5 4.8849 17.5 4.7917 17.4068 4.7917 17.2917 4.7917 17.1766 4.8849 17.0833 5 17.0833 5.1151 17.0833 5.2083 17.1766 5.2083 17.2917ZM10.2083 18.125C10.2083 18.2401 10.1151 18.3333 10 18.3333 9.8849 18.3333 9.7917 18.2401 9.7917 18.125 9.7917 18.0099 9.8849 17.9167 10 17.9167 10.1151 17.9167 10.2083 18.0099 10.2083 18.125ZM15.2083 17.2917C15.2083 17.4068 15.1151 17.5 15 17.5 14.8849 17.5 14.7917 17.4068 14.7917 17.2917 14.7917 17.1766 14.8849 17.0833 15 17.0833 15.1151 17.0833 15.2083 17.1766 15.2083 17.2917ZM12.7083 14.7917C12.7083 14.9068 12.6151 15 12.5 15 12.3849 15 12.2917 14.9068 12.2917 14.7917 12.2917 14.6766 12.3849 14.5833 12.5 14.5833 12.6151 14.5833 12.7083 14.6766 12.7083 14.7917Z" stroke="currentColor" stroke-linecap="round" stroke-linejoin="round" stroke-width="2"/>
</svg>
