<svg xmlns="http://www.w3.org/2000/svg" width="20" height="20" viewBox="0 0 20 20" fill="none">
  <path d="M12.0015 18.2622C12.1218 18.3083 12.2513 18.3333 12.3861 18.3333 13.0233 18.3333 13.5399 17.7737 13.5399 17.0833 13.5399 16.393 13.0233 15.8333 12.3861 15.8333 12.1598 15.8333 11.9488 15.9038 11.7708 16.0257 10.8864 16.6854 9.2483 17.5315 7.386 17.7508M5.0784 17.6613C4.5632 17.5529 4.0471 17.3784 3.5399 17.1232" stroke="currentColor" stroke-linecap="round" stroke-width="2"/>
  <path d="M16.0399 17.5C16.255 17.5 16.8363 17.5 17.7066 17.5" stroke="currentColor" stroke-linecap="round" stroke-width="2"/>
  <path d="M3.9643 8.3333C3.2981 8.0468 2.7141 7.536 2.3262 6.8329 1.8683 6.0031 1.7687 5.0597 1.9772 4.1988 2.7938 4.8446 3.9329 4.9557 4.8751 4.3865 5.8172 3.8173 6.2948 2.7295 6.1686 1.6667 6.9854 1.9082 7.7164 2.4701 8.1743 3.3 8.3453 3.6098 8.4663 3.9354 8.5399 4.2667" stroke="currentColor" stroke-linejoin="round" stroke-width="2"/>
  <path d="M14.5381 7.92C14.5442 7.92 14.5505 7.92 14.5568 7.92 16.6278 7.92 18.1068 9.55 18.1268 11.3 18.1268 13.8 15.7568 14.9 14.5568 14.8M14.5381 7.92C14.5504 7.7897 14.5568 7.6577 14.5568 7.5243 14.5381 5.3 12.7068 3.335 10.2568 3.335 7.9568 3.335 6.0784 4.9412 5.8768 7.1679M14.5381 7.92C14.4528 8.8177 14.1568 9.5 13.5568 10.22M5.8768 7.1679C3.7631 7.3589 2.3568 9.05 2.3068 10.75 2.1568 12.7 3.6068 13.9 4.8107 14.43 7.7068 15.65 10.6568 14.75 11.6267 13.2 12.0568 12.35 11.5807 11.2809 10.5568 11.025 9.8567 10.85 8.6568 11.25 8.6218 12.51M5.8768 7.1679C6.0083 7.156 6.172 7.15 6.3068 7.15 7.3068 7.1679 8.0268 7.52 8.6268 7.92" stroke="currentColor" stroke-linecap="round" stroke-linejoin="round" stroke-width="2"/>
</svg>
