<svg xmlns="http://www.w3.org/2000/svg" width="20" height="20" viewBox="0 0 20 20" fill="none">
  <path d="M17.5821 6.5373C17.0483 7.1285 16.2759 7.5 15.4167 7.5 13.8058 7.5 12.5 6.1942 12.5 4.5833 12.5 3.7241 12.8715 2.9517 13.4627 2.4179M13.4627 2.4179C15.282 3.2502 16.7498 4.718 17.5821 6.5373 18.0645 7.5919 18.3333 8.7645 18.3333 10 18.3333 14.6023 14.6023 18.3333 10 18.3333 5.3976 18.3333 1.6667 14.6023 1.6667 10 1.6667 5.3976 5.3976 1.6667 10 1.6667 11.2355 1.6667 12.4082 1.9355 13.4627 2.4179Z" stroke="currentColor" stroke-width="2"/>
  <path d="M13.3333 13.3333C13.3333 14.2538 12.5872 15 11.6667 15 10.7462 15 10 14.2538 10 13.3333 10 12.4128 10.7462 11.6667 11.6667 11.6667 12.5872 11.6667 13.3333 12.4128 13.3333 13.3333Z" stroke="currentColor" stroke-width="2"/>
  <path d="M5.9424 11.6667H5.8382M6.0466 11.6667C6.0466 11.7818 5.9533 11.875 5.8382 11.875 5.7232 11.875 5.6299 11.7818 5.6299 11.6667 5.6299 11.5516 5.7232 11.4583 5.8382 11.4583 5.9533 11.4583 6.0466 11.5516 6.0466 11.6667Z" stroke="currentColor" stroke-linecap="round" stroke-linejoin="round" stroke-width="2"/>
  <path d="M8.4424 6.6667H8.3383M8.5466 6.6667C8.5466 6.7817 8.4533 6.875 8.3383 6.875 8.2232 6.875 8.1299 6.7817 8.1299 6.6667 8.1299 6.5516 8.2232 6.4583 8.3383 6.4583 8.4533 6.4583 8.5466 6.5516 8.5466 6.6667Z" stroke="currentColor" stroke-linecap="round" stroke-linejoin="round" stroke-width="2"/>
</svg>
