<svg xmlns="http://www.w3.org/2000/svg" width="20" height="20" viewBox="0 0 20 20" fill="none">
  <path d="M14.5647 9.1558C14.5708 9.1557 14.5771 9.1557 14.5833 9.1557 16.6544 9.1557 18.3333 10.8309 18.3333 12.8973 18.3333 14.3665 17.4848 15.6378 16.25 16.2501M14.5647 9.1558C14.577 9.0188 14.5833 8.8801 14.5833 8.7399 14.5833 6.2142 12.5313 4.1668 10 4.1668 7.6027 4.1668 5.6353 6.0032 5.4337 8.3431M14.5647 9.1558C14.4958 9.9179 14.1474 10.5738 13.75 11.1818M5.4337 8.3431C3.32 8.5437 1.6667 10.32 1.6667 12.4816 1.6667 14.0204 2.5046 15.364 3.75 16.0828M5.4337 8.3431C5.5652 8.3306 5.6985 8.3242 5.8333 8.3242 6.7715 8.3242 7.6373 8.6336 8.3338 9.1557" stroke="currentColor" stroke-linecap="round" stroke-linejoin="round" stroke-width="2"/>
  <path d="M9.1667 13.3333L10.8333 15M10.8333 13.3333L9.1667 15" stroke="currentColor" stroke-linecap="round" stroke-linejoin="round" stroke-width="2"/>
  <path d="M12.5 16.6667L14.1667 18.3333M14.1667 16.6667L12.5 18.3333" stroke="currentColor" stroke-linecap="round" stroke-linejoin="round" stroke-width="2"/>
  <path d="M5.8333 16.6667L7.5 18.3333M7.5 16.6667L5.8333 18.3333" stroke="currentColor" stroke-linecap="round" stroke-linejoin="round" stroke-width="2"/>
  <path d="M8.3333 4.2819C8.2638 3.9237 8.1354 3.5709 7.9446 3.2371 7.4884 2.4392 6.76 1.8989 5.9463 1.6667 6.072 2.6886 5.5962 3.7346 4.6575 4.2819 3.7188 4.8292 2.5838 4.7223 1.7702 4.1014 1.5625 4.9291 1.6617 5.8363 2.1179 6.6342 2.9043 8.0096 4.4992 8.6197 5.9463 8.2055" stroke="currentColor" stroke-linejoin="round" stroke-width="2"/>
</svg>
