<svg xmlns="http://www.w3.org/2000/svg" width="20" height="20" viewBox="0 0 20 20" fill="none">
  <path d="M10.4199 13.3333L9.5866 15M14.1699 13.3333L13.3366 15M11.2532 16.6667L10.4199 18.3333M6.6699 13.3333L5.8366 15M7.5033 16.6667L6.6699 18.3333" stroke="currentColor" stroke-linecap="round" stroke-linejoin="round" stroke-width="2"/>
  <path d="M14.5647 9.1464C14.5708 9.1463 14.5771 9.1463 14.5833 9.1463 16.6544 9.1463 18.3333 10.8184 18.3333 12.8811 18.3333 14.1829 17.6743 15.1588 16.6667 15.8333M14.5647 9.1464C14.577 9.0097 14.5833 8.8712 14.5833 8.7314 14.5833 6.2104 12.5313 4.1667 10 4.1667 7.6027 4.1667 5.6353 5.9997 5.4337 8.3353M14.5647 9.1464C14.5109 9.7398 14.3433 10.3003 14.0836 10.8063M5.4337 8.3353C3.32 8.5356 1.6667 10.3086 1.6667 12.4662 1.6667 13.8238 2.3213 15.0577 3.3333 15.8333M5.4337 8.3353C5.5652 8.3228 5.6985 8.3164 5.8333 8.3164 6.7715 8.3164 7.6373 8.6253 8.3338 9.1463" stroke="currentColor" stroke-linecap="round" stroke-linejoin="round" stroke-width="2"/>
  <path d="M8.3333 4.2819C8.2638 3.9237 8.1354 3.5709 7.9446 3.2371 7.4884 2.4392 6.76 1.8989 5.9463 1.6667 6.072 2.6886 5.5962 3.7346 4.6575 4.2819 3.7188 4.8292 2.5838 4.7223 1.7702 4.1014 1.5625 4.9291 1.6617 5.8363 2.1179 6.6342 2.9043 8.0096 4.4992 8.6197 5.9463 8.2055" stroke="currentColor" stroke-linejoin="round" stroke-width="2"/>
</svg>
