<svg xmlns="http://www.w3.org/2000/svg" width="20" height="20" viewBox="0 0 20 20" fill="none">
  <path d="M14.1667 5.4167C14.5762 5.8381 15.6665 7.5 16.25 7.5M18.3333 5.4167C17.9238 5.8381 16.8335 7.5 16.25 7.5M16.25 7.5V2.5" stroke="currentColor" stroke-linecap="round" stroke-linejoin="round" stroke-width="2"/>
  <path d="M13.9583 15C14.4362 14.3263 14.7872 13.5678 15 12.7683 13.0838 13.021 11.1226 12.0646 10.0964 10.1779 9.0702 8.2912 9.2706 6.01 10.4349 4.3749 8.8828 3.9573 7.182 4.1567 5.6858 5.0736 2.6393 6.9407 1.5955 11.0759 3.3544 14.3098 3.4861 14.5519 3.6297 14.7821 3.7841 15" stroke="currentColor" stroke-linecap="round" stroke-linejoin="round" stroke-width="2"/>
  <path d="M1.6667 17.5H18.3333" stroke="currentColor" stroke-linecap="round" stroke-width="2"/>
</svg>
