<svg xmlns="http://www.w3.org/2000/svg" width="20" height="20" viewBox="0 0 20 20" fill="none">
  <path d="M5.0037 5.4167V5M5.8371 5.4167C5.8371 4.9564 5.464 4.5833 5.0037 4.5833 4.5435 4.5833 4.1704 4.9564 4.1704 5.4167 4.1704 5.8769 4.5435 6.25 5.0037 6.25 5.464 6.25 5.8371 5.8769 5.8371 5.4167Z" stroke="currentColor" stroke-linecap="round" stroke-linejoin="round" stroke-width="2"/>
  <path d="M5.0037 10.4167V10M5.8371 10.4167C5.8371 9.9564 5.464 9.5833 5.0037 9.5833 4.5435 9.5833 4.1704 9.9564 4.1704 10.4167 4.1704 10.8769 4.5435 11.25 5.0037 11.25 5.464 11.25 5.8371 10.8769 5.8371 10.4167Z" stroke="currentColor" stroke-linecap="round" stroke-linejoin="round" stroke-width="2"/>
  <path d="M5.0037 15.4167V15M5.8371 15.4167C5.8371 14.9564 5.464 14.5833 5.0037 14.5833 4.5435 14.5833 4.1704 14.9564 4.1704 15.4167 4.1704 15.8769 4.5435 16.25 5.0037 16.25 5.464 16.25 5.8371 15.8769 5.8371 15.4167Z" stroke="currentColor" stroke-linecap="round" stroke-linejoin="round" stroke-width="2"/>
  <path d="M15.0038 5.4167V5M15.8371 5.4167C15.8371 4.9564 15.464 4.5833 15.0038 4.5833 14.5435 4.5833 14.1704 4.9564 14.1704 5.4167 14.1704 5.8769 14.5435 6.25 15.0038 6.25 15.464 6.25 15.8371 5.8769 15.8371 5.4167Z" stroke="currentColor" stroke-linecap="round" stroke-linejoin="round" stroke-width="2"/>
  <path d="M15.0038 10.4167V10M15.8371 10.4167C15.8371 9.9564 15.464 9.5833 15.0038 9.5833 14.5435 9.5833 14.1704 9.9564 14.1704 10.4167 14.1704 10.8769 14.5435 11.25 15.0038 11.25 15.464 11.25 15.8371 10.8769 15.8371 10.4167Z" stroke="currentColor" stroke-linecap="round" stroke-linejoin="round" stroke-width="2"/>
  <path d="M10.0038 10.4167V10M10.8371 10.4167C10.8371 9.9564 10.464 9.5833 10.0038 9.5833 9.5435 9.5833 9.1704 9.9564 9.1704 10.4167 9.1704 10.8769 9.5435 11.25 10.0038 11.25 10.464 11.25 10.8371 10.8769 10.8371 10.4167Z" stroke="currentColor" stroke-linecap="round" stroke-linejoin="round" stroke-width="2"/>
  <path d="M10.0038 5.4167V5M10.8371 5.4167C10.8371 4.9564 10.464 4.5833 10.0038 4.5833 9.5435 4.5833 9.1704 4.9564 9.1704 5.4167 9.1704 5.8769 9.5435 6.25 10.0038 6.25 10.464 6.25 10.8371 5.8769 10.8371 5.4167Z" stroke="currentColor" stroke-linecap="round" stroke-linejoin="round" stroke-width="2"/>
  <path d="M15.0038 15.4167V15M15.8371 15.4167C15.8371 14.9564 15.464 14.5833 15.0038 14.5833 14.5435 14.5833 14.1704 14.9564 14.1704 15.4167 14.1704 15.8769 14.5435 16.25 15.0038 16.25 15.464 16.25 15.8371 15.8769 15.8371 15.4167Z" stroke="currentColor" stroke-linecap="round" stroke-linejoin="round" stroke-width="2"/>
  <path d="M10.0038 15.4167V15M10.8371 15.4167C10.8371 14.9564 10.464 14.5833 10.0038 14.5833 9.5435 14.5833 9.1704 14.9564 9.1704 15.4167 9.1704 15.8769 9.5435 16.25 10.0038 16.25 10.464 16.25 10.8371 15.8769 10.8371 15.4167Z" stroke="currentColor" stroke-linecap="round" stroke-linejoin="round" stroke-width="2"/>
</svg>
