<svg xmlns="http://www.w3.org/2000/svg" width="20" height="20" viewBox="0 0 20 20" fill="none">
  <path d="M10 9.5833V10M15 10V9.5833M5 9.5833V10M10.4167 9.1667L9.5833 9.1667C9.3533 9.1667 9.1667 9.3533 9.1667 9.5833V10.4167C9.1667 10.6468 9.3533 10.8333 9.5833 10.8333H10.4167C10.6468 10.8333 10.8333 10.6468 10.8333 10.4167V9.5833C10.8333 9.3533 10.6468 9.1667 10.4167 9.1667ZM15.4167 9.1667L14.5833 9.1667C14.3533 9.1667 14.1667 9.3533 14.1667 9.5833V10.4167C14.1667 10.6468 14.3533 10.8333 14.5833 10.8333H15.4167C15.6468 10.8333 15.8333 10.6468 15.8333 10.4167V9.5833C15.8333 9.3533 15.6468 9.1667 15.4167 9.1667ZM5.4167 9.1667L4.5833 9.1667C4.3532 9.1667 4.1667 9.3533 4.1667 9.5833V10.4167C4.1667 10.6468 4.3532 10.8333 4.5833 10.8333H5.4167C5.6468 10.8333 5.8333 10.6468 5.8333 10.4167V9.5833C5.8333 9.3533 5.6468 9.1667 5.4167 9.1667Z" stroke="currentColor" stroke-linecap="round" stroke-linejoin="round" stroke-width="2"/>
</svg>
