<svg xmlns="http://www.w3.org/2000/svg" width="20" height="20" viewBox="0 0 20 20" fill="none">
  <path d="M2.0833 10C2.0833 6.268 2.0833 4.4021 3.2427 3.2427 4.4021 2.0833 6.268 2.0833 10 2.0833 13.7319 2.0833 15.5979 2.0833 16.7573 3.2427 17.9167 4.4021 17.9167 6.268 17.9167 10 17.9167 13.7319 17.9167 15.5979 16.7573 16.7573 15.5979 17.9167 13.7319 17.9167 10 17.9167 6.268 17.9167 4.4021 17.9167 3.2427 16.7573 2.0833 15.5979 2.0833 13.7319 2.0833 10Z" stroke="currentColor" stroke-linejoin="round" stroke-width="2"/>
  <path d="M5.8301 10H14.1701" stroke="currentColor" stroke-linecap="round" stroke-width="2"/>
  <path d="M14.1699 7.5H7.5C6.6779 7.5 5.9522 7.5087 5.85 7.23 5.7701 7.0125 6.2699 6.33 6.67 5.83" stroke="currentColor" stroke-linecap="round" stroke-width="2"/>
  <path d="M5.8414 12.5L12.5114 12.5C13.3335 12.5 14.0592 12.4913 14.1614 12.77 14.2413 12.9875 13.7414 13.67 13.3414 14.17" stroke="currentColor" stroke-linecap="round" stroke-width="2"/>
</svg>
