<svg xmlns="http://www.w3.org/2000/svg" width="20" height="20" viewBox="0 0 20 20" fill="none">
  <path d="M10 9.5833V10M10 4.5833V5M10 14.5833V15M10.4167 9.1667L9.5833 9.1667C9.3533 9.1667 9.1667 9.3533 9.1667 9.5833V10.4167C9.1667 10.6468 9.3533 10.8333 9.5833 10.8333H10.4167C10.6468 10.8333 10.8333 10.6468 10.8333 10.4167V9.5833C10.8333 9.3533 10.6468 9.1667 10.4167 9.1667ZM10.4167 4.1667L9.5833 4.1667C9.3533 4.1667 9.1667 4.3532 9.1667 4.5833V5.4167C9.1667 5.6468 9.3533 5.8333 9.5833 5.8333H10.4167C10.6468 5.8333 10.8333 5.6468 10.8333 5.4167V4.5833C10.8333 4.3532 10.6468 4.1667 10.4167 4.1667ZM10.4167 14.1667L9.5833 14.1667C9.3533 14.1667 9.1667 14.3533 9.1667 14.5833V15.4167C9.1667 15.6468 9.3533 15.8333 9.5833 15.8333H10.4167C10.6468 15.8333 10.8333 15.6468 10.8333 15.4167V14.5833C10.8333 14.3533 10.6468 14.1667 10.4167 14.1667Z" stroke="currentColor" stroke-linecap="round" stroke-linejoin="round" stroke-width="2"/>
</svg>
