<svg xmlns="http://www.w3.org/2000/svg" width="20" height="20" viewBox="0 0 20 20" fill="none">
  <path d="M9.9973 10.4167V10M9.9973 5.4167V5M9.9973 15.4167V15M10.8306 10.4167C10.8306 9.9564 10.4575 9.5833 9.9973 9.5833 9.537 9.5833 9.1639 9.9564 9.1639 10.4167 9.1639 10.8769 9.537 11.25 9.9973 11.25 10.4575 11.25 10.8306 10.8769 10.8306 10.4167ZM10.8306 5.4167C10.8306 4.9564 10.4575 4.5833 9.9973 4.5833 9.537 4.5833 9.1639 4.9564 9.1639 5.4167 9.1639 5.8769 9.537 6.25 9.9973 6.25 10.4575 6.25 10.8306 5.8769 10.8306 5.4167ZM10.8306 15.4167C10.8306 14.9564 10.4575 14.5833 9.9973 14.5833 9.537 14.5833 9.1639 14.9564 9.1639 15.4167 9.1639 15.8769 9.537 16.25 9.9973 16.25 10.4575 16.25 10.8306 15.8769 10.8306 15.4167Z" stroke="currentColor" stroke-linecap="round" stroke-linejoin="round" stroke-width="2"/>
</svg>
