<svg xmlns="http://www.w3.org/2000/svg" width="20" height="20" viewBox="0 0 20 20" fill="none">
  <path d="M12.9167 5.4167C12.9167 7.0275 11.6108 8.3333 10 8.3333 8.3892 8.3333 7.0833 7.0275 7.0833 5.4167 7.0833 3.8058 8.3892 2.5 10 2.5 11.6108 2.5 12.9167 3.8058 12.9167 5.4167Z" stroke="currentColor" stroke-width="2"/>
  <path d="M18.3333 14.5833C18.3333 16.1942 17.0275 17.5 15.4167 17.5 13.8058 17.5 12.5 16.1942 12.5 14.5833 12.5 12.9725 13.8058 11.6667 15.4167 11.6667 17.0275 11.6667 18.3333 12.9725 18.3333 14.5833Z" stroke="currentColor" stroke-width="2"/>
  <path d="M7.5 14.5833C7.5 16.1942 6.1942 17.5 4.5833 17.5 2.9725 17.5 1.6667 16.1942 1.6667 14.5833 1.6667 12.9725 2.9725 11.6667 4.5833 11.6667 6.1942 11.6667 7.5 12.9725 7.5 14.5833Z" stroke="currentColor" stroke-width="2"/>
</svg>
