<svg xmlns="http://www.w3.org/2000/svg" width="20" height="20" viewBox="0 0 20 20" fill="none">
  <path d="M18.3333 10C18.3333 5.3976 14.6023 1.6667 10 1.6667 5.3976 1.6667 1.6667 5.3976 1.6667 10 1.6667 14.6023 5.3976 18.3333 10 18.3333 14.6023 18.3333 18.3333 14.6023 18.3333 10Z" stroke="currentColor" stroke-linecap="round" stroke-linejoin="round" stroke-width="2"/>
  <path d="M10 10.2083V10M10 14.375V14.1667M10 6.0417V5.8333M10 10.4167C9.7699 10.4167 9.5833 10.2301 9.5833 10 9.5833 9.7699 9.7699 9.5833 10 9.5833 10.2301 9.5833 10.4167 9.7699 10.4167 10 10.4167 10.2301 10.2301 10.4167 10 10.4167ZM10 14.5833C9.7699 14.5833 9.5833 14.3968 9.5833 14.1667 9.5833 13.9366 9.7699 13.75 10 13.75 10.2301 13.75 10.4167 13.9366 10.4167 14.1667 10.4167 14.3968 10.2301 14.5833 10 14.5833ZM10 6.25C9.7699 6.25 9.5833 6.0635 9.5833 5.8333 9.5833 5.6032 9.7699 5.4167 10 5.4167 10.2301 5.4167 10.4167 5.6032 10.4167 5.8333 10.4167 6.0635 10.2301 6.25 10 6.25Z" stroke="currentColor" stroke-linecap="round" stroke-linejoin="round" stroke-width="2"/>
</svg>
