<svg xmlns="http://www.w3.org/2000/svg" width="20" height="20" viewBox="0 0 20 20" fill="none">
  <path d="M2.0833 10C2.0833 6.268 2.0833 4.4021 3.2427 3.2427 4.4021 2.0833 6.268 2.0833 10 2.0833 13.7319 2.0833 15.5979 2.0833 16.7573 3.2427 17.9167 4.4021 17.9167 6.268 17.9167 10 17.9167 13.7319 17.9167 15.5979 16.7573 16.7573 15.5979 17.9167 13.7319 17.9167 10 17.9167 6.268 17.9167 4.4021 17.9167 3.2427 16.7573 2.0833 15.5979 2.0833 13.7319 2.0833 10Z" stroke="currentColor" stroke-linecap="round" stroke-linejoin="round" stroke-width="2"/>
  <path d="M10.2083 10H10M10.4167 10C10.4167 10.2301 10.2301 10.4167 10 10.4167 9.7699 10.4167 9.5833 10.2301 9.5833 10 9.5833 9.7699 9.7699 9.5833 10 9.5833 10.2301 9.5833 10.4167 9.7699 10.4167 10Z" stroke="currentColor" stroke-linecap="round" stroke-linejoin="round" stroke-width="2"/>
  <path d="M14.375 10H14.1667M14.5833 10C14.5833 10.2301 14.3968 10.4167 14.1667 10.4167 13.9366 10.4167 13.75 10.2301 13.75 10 13.75 9.7699 13.9366 9.5833 14.1667 9.5833 14.3968 9.5833 14.5833 9.7699 14.5833 10Z" stroke="currentColor" stroke-linecap="round" stroke-linejoin="round" stroke-width="2"/>
  <path d="M6.0417 10H5.8333M6.25 10C6.25 10.2301 6.0635 10.4167 5.8333 10.4167 5.6032 10.4167 5.4167 10.2301 5.4167 10 5.4167 9.7699 5.6032 9.5833 5.8333 9.5833 6.0635 9.5833 6.25 9.7699 6.25 10Z" stroke="currentColor" stroke-linecap="round" stroke-linejoin="round" stroke-width="2"/>
</svg>
