<svg xmlns="http://www.w3.org/2000/svg" width="20" height="20" viewBox="0 0 20 20" fill="none">
  <path d="M17.5 16.25C17.5 15.5597 16.9403 15 16.25 15 15.5597 15 15 15.5597 15 16.25 15 16.9403 15.5597 17.5 16.25 17.5 16.9403 17.5 17.5 16.9403 17.5 16.25Z" stroke="currentColor" stroke-width="2"/>
  <path d="M11.25 16.25C11.25 15.5597 10.6903 15 10 15 9.3097 15 8.75 15.5597 8.75 16.25 8.75 16.9403 9.3097 17.5 10 17.5 10.6903 17.5 11.25 16.9403 11.25 16.25Z" stroke="currentColor" stroke-width="2"/>
  <path d="M5 16.25C5 15.5597 4.4404 15 3.75 15 3.0596 15 2.5 15.5597 2.5 16.25 2.5 16.9403 3.0596 17.5 3.75 17.5 4.4404 17.5 5 16.9403 5 16.25Z" stroke="currentColor" stroke-width="2"/>
  <path d="M17.5 10C17.5 9.3097 16.9403 8.75 16.25 8.75 15.5597 8.75 15 9.3097 15 10 15 10.6903 15.5597 11.25 16.25 11.25 16.9403 11.25 17.5 10.6903 17.5 10Z" stroke="currentColor" stroke-width="2"/>
  <path d="M17.5 3.75C17.5 3.0596 16.9403 2.5 16.25 2.5 15.5597 2.5 15 3.0596 15 3.75 15 4.4404 15.5597 5 16.25 5 16.9403 5 17.5 4.4404 17.5 3.75Z" stroke="currentColor" stroke-width="2"/>
  <path d="M11.25 10C11.25 9.3097 10.6903 8.75 10 8.75 9.3097 8.75 8.75 9.3097 8.75 10 8.75 10.6903 9.3097 11.25 10 11.25 10.6903 11.25 11.25 10.6903 11.25 10Z" stroke="currentColor" stroke-width="2"/>
  <path d="M11.25 3.75C11.25 3.0596 10.6903 2.5 10 2.5 9.3097 2.5 8.75 3.0596 8.75 3.75 8.75 4.4404 9.3097 5 10 5 10.6903 5 11.25 4.4404 11.25 3.75Z" stroke="currentColor" stroke-width="2"/>
  <path d="M5 10C5 9.3097 4.4404 8.75 3.75 8.75 3.0596 8.75 2.5 9.3097 2.5 10 2.5 10.6903 3.0596 11.25 3.75 11.25 4.4404 11.25 5 10.6903 5 10Z" stroke="currentColor" stroke-width="2"/>
  <path d="M5 3.75C5 3.0596 4.4404 2.5 3.75 2.5 3.0596 2.5 2.5 3.0596 2.5 3.75 2.5 4.4404 3.0596 5 3.75 5 4.4404 5 5 4.4404 5 3.75Z" stroke="currentColor" stroke-width="2"/>
</svg>
