<svg xmlns="http://www.w3.org/2000/svg" width="20" height="20" viewBox="0 0 20 20" fill="none">
  <path d="M1.6667 6.6667C1.6667 7.7848 8.4124 10.8333 9.9884 10.8333 11.5643 10.8333 18.3102 7.7848 18.3102 6.6667 18.3102 5.5485 11.5643 2.5 9.9884 2.5 8.4124 2.5 1.6667 5.5485 1.6667 6.6667Z" stroke="currentColor" stroke-linecap="round" stroke-linejoin="round" stroke-width="2"/>
  <path d="M4.9951 9.1667L5.1994 13.8582C5.2035 13.9522 5.2136 14.0463 5.2408 14.1363 5.325 14.4144 5.4801 14.6672 5.7167 14.837 7.5679 16.1654 12.4084 16.1654 14.2596 14.837 14.4963 14.6672 14.6513 14.4144 14.7355 14.1363 14.7627 14.0463 14.7728 13.9522 14.777 13.8582L14.9812 9.1667" stroke="currentColor" stroke-linecap="round" stroke-linejoin="round" stroke-width="2"/>
  <path d="M17.0612 7.9167V13.75M17.0612 13.75C16.4012 14.9553 16.1093 15.601 15.8129 16.6667 15.7486 17.0458 15.7997 17.2369 16.061 17.4066 16.1672 17.4755 16.2948 17.5 16.4213 17.5H17.6883C17.823 17.5 17.9589 17.4719 18.0698 17.3954 18.3128 17.2279 18.3753 17.0442 18.3094 16.6667 18.0496 15.6772 17.7186 15.0007 17.0612 13.75Z" stroke="currentColor" stroke-linecap="round" stroke-linejoin="round" stroke-width="2"/>
</svg>
