<svg xmlns="http://www.w3.org/2000/svg" width="20" height="20" viewBox="0 0 20 20" fill="none">
  <path d="M1.665 6.6661C1.665 7.7844 8.4119 10.8333 9.9881 10.8333 11.5643 10.8333 18.3112 7.7844 18.3112 6.6661 18.3112 5.5478 11.5643 2.4988 9.9881 2.4988 8.4119 2.4988 1.665 5.5478 1.665 6.6661Z" stroke="currentColor" stroke-linecap="round" stroke-linejoin="round" stroke-width="2"/>
  <path d="M4.9935 9.1667L6.0362 14.0002C6.1077 14.3313 6.2725 14.6406 6.5475 14.8378 8.3989 16.1665 11.5757 16.1665 13.4272 14.8378 13.7022 14.6406 13.867 14.3313 13.9384 14.0002L14.9812 9.1667" stroke="currentColor" stroke-linecap="round" stroke-linejoin="round" stroke-width="2"/>
  <path d="M17.0645 7.9163V13.7505M17.0645 13.7505C16.4053 14.9559 16.1138 15.6018 15.8178 16.6676 15.7535 17.0468 15.8045 17.2379 16.0655 17.4076 16.1716 17.4765 16.299 17.501 16.4253 17.501H17.6908C17.8253 17.501 17.9611 17.4729 18.0719 17.3964 18.3145 17.2289 18.3769 17.0451 18.3112 16.6676 18.0517 15.6779 17.7211 15.0013 17.0645 13.7505Z" stroke="currentColor" stroke-linecap="round" stroke-linejoin="round" stroke-width="2"/>
</svg>
