<svg xmlns="http://www.w3.org/2000/svg" width="20" height="20" viewBox="0 0 20 20" fill="none">
  <path d="M9.1719 6.2493C8.7917 5.7435 8.1862 5.4163 7.5043 5.4163 6.3531 5.4163 5.4199 6.3486 5.4199 7.4987 5.4199 8.5062 6.136 9.3466 7.0874 9.5396M7.4582 14.9956C7.2491 14.9956 7.0436 14.9397 6.8619 14.8335 4.3727 13.2373 1.6681 10.9397 1.6681 7.6159 1.6681 4.3554 4.3248 1.6679 7.4582 1.6679 9.0978 1.6679 10.6067 2.4036 11.673 3.5723" stroke="currentColor" stroke-linecap="round" stroke-width="2"/>
  <path d="M10.5163 12.9584C9.3827 11.5789 9.1893 10.1936 10.8112 8.5115 12.515 6.9911 13.4962 6.2721 13.7577 5.8394 14.019 6.2721 15.0162 6.9911 16.7201 8.5115 18.2643 9.8894 18.1671 11.5789 17.0335 12.9584M10.5163 12.9584H10.0811M10.5163 12.9584H17.0335M17.0335 12.9584H17.4169M9.1893 12.9584H10.0811M10.0811 12.9584V17.5773C10.1143 18.1336 10.0811 18.3932 11.0898 18.3203H13.7419M17.4169 12.9584H18.3323M17.4169 12.9584V17.6619C17.5142 18.4173 16.9128 18.2848 16.5282 18.3203H13.7419M13.7419 18.3203L13.7714 16.5421" stroke="currentColor" stroke-linecap="round" stroke-linejoin="round" stroke-width="2"/>
</svg>
