<svg xmlns="http://www.w3.org/2000/svg" width="20" height="20" viewBox="0 0 20 20" fill="none">
  <path d="M3.7609 10C3.4265 9.9513 3.1611 9.8703 2.9277 9.7355 2.5443 9.5142 2.2259 9.1958 2.0046 8.8123 1.6667 8.2271 1.6667 7.4414 1.6667 5.87 1.6667 4.2986 1.6667 3.5129 2.0046 2.9277 2.2259 2.5443 2.5443 2.2259 2.9277 2.0046 3.5129 1.6667 4.2986 1.6667 5.87 1.6667 7.4414 1.6667 8.2271 1.6667 8.8123 2.0046 9.1958 2.2259 9.5142 2.5443 9.7355 2.9277 9.8703 3.1611 9.9513 3.4265 10 3.7609" stroke="currentColor" stroke-linecap="round" stroke-width="2"/>
  <path d="M7.9347 14.1667C7.5969 14.1181 7.3293 14.0369 7.0942 13.9011 6.7108 13.6798 6.3925 13.3615 6.1712 12.9781 5.8333 12.3929 5.8333 11.6073 5.8333 10.0362 5.8333 8.4649 5.8333 7.6793 6.1712 7.0942 6.3925 6.7108 6.7108 6.3925 7.0942 6.1712 7.6793 5.8333 8.4649 5.8333 10.0362 5.8333 11.6073 5.8333 12.3929 5.8333 12.9781 6.1712 13.3615 6.3925 13.6798 6.7108 13.9011 7.0942 14.0369 7.3293 14.1181 7.5969 14.1667 7.9347" stroke="currentColor" stroke-linecap="round" stroke-width="2"/>
  <path d="M10 14.1667C10 12.609 10 11.8302 10.3349 11.25 10.5543 10.8699 10.8699 10.5543 11.25 10.3349 11.8302 10 12.609 10 14.1667 10 15.7243 10 16.5032 10 17.0833 10.3349 17.4634 10.5543 17.779 10.8699 17.9984 11.25 18.3333 11.8302 18.3333 12.609 18.3333 14.1667 18.3333 15.7243 18.3333 16.5032 17.9984 17.0833 17.779 17.4634 17.4634 17.779 17.0833 17.9984 16.5032 18.3333 15.7243 18.3333 14.1667 18.3333 12.609 18.3333 11.8302 18.3333 11.25 17.9984 10.8699 17.779 10.5543 17.4634 10.3349 17.0833 10 16.5032 10 15.7243 10 14.1667Z" stroke="currentColor" stroke-width="2"/>
</svg>
