<svg xmlns="http://www.w3.org/2000/svg" width="20" height="20" viewBox="0 0 20 20" fill="none">
  <circle cx="16.25" cy="13.75" r="2.0833333333333335" stroke="currentColor" stroke-width="2"/>
  <circle cx="3.75" cy="13.75" r="2.0833333333333335" stroke="currentColor" stroke-width="2"/>
  <path d="M16.8623 6.558C17.9303 7.8575 18.3013 9.0931 18.3328 9.7464 17.7745 9.4911 17.1476 9.3478 16.4851 9.3478 14.4474 9.3478 12.6182 10.7027 12.1814 12.5077 12.077 12.9392 12.0248 13.1549 11.9114 13.2441 11.7981 13.3333 11.6152 13.3333 11.2495 13.3333H8.8505C8.482 13.3333 8.2978 13.3333 8.184 13.2429 8.0701 13.1524 8.0203 12.9374 7.9205 12.5073 7.5074 10.7257 5.8306 9.177 4.085 9.3082 3.9091 9.3214 3.8211 9.328 3.7608 9.3146 3.7005 9.3011 3.6397 9.2668 3.5182 9.1982 3.1675 9.0001 2.8088 8.812 2.4649 8.6022 1.9858 8.31 1.686 7.7962 1.6671 7.2353 1.6564 6.9161 1.84 6.5989 2.2108 6.6861L7.5614 7.9453C7.9633 8.0399 8.1643 8.0872 8.337 8.055 8.5097 8.0228 8.7213 7.878 9.1448 7.5884 10.2183 6.8543 11.9198 6.1609 13.6158 6.7735 14.0801 6.9412 14.3123 7.0251 14.4445 7.0293 14.5768 7.0335 14.7706 6.9771 15.1583 6.8642 15.7859 6.6815 16.3768 6.5867 16.8623 6.558ZM16.8623 6.558C16.193 5.7434 15.2498 4.9038 13.9447 4.1667" stroke="currentColor" stroke-linecap="round" stroke-linejoin="round" stroke-width="2"/>
</svg>
