<svg xmlns="http://www.w3.org/2000/svg" width="20" height="20" viewBox="0 0 20 20" fill="none">
  <circle cx="16.25" cy="13.75" r="2.0833333333333335" stroke="currentColor" stroke-width="2"/>
  <path d="M12.0133 15C11.7903 14.4896 11.6667 13.9259 11.6667 13.3333 11.6667 11.0322 13.5322 9.1667 15.8333 9.1667 16.1188 9.1667 16.3974 9.1953 16.6667 9.25" stroke="currentColor" stroke-linecap="round" stroke-width="2"/>
  <circle cx="3.75" cy="13.75" r="2.0833333333333335" stroke="currentColor" stroke-width="2"/>
  <path d="M5.3585 8.0248H6.7972C7.1768 8.0248 7.545 7.8952 7.841 7.6575L9.3644 6.4337C9.5123 6.3148 9.6965 6.25 9.8863 6.25H12.5L10.2369 10.3991C10.0908 10.6668 9.8102 10.8333 9.5053 10.8333H7.9167M5.3585 8.0248H3.3333M5.3585 8.0248L7.9167 10.8333M7.9167 10.8333L5.8333 13.3333" stroke="currentColor" stroke-linecap="round" stroke-linejoin="round" stroke-width="2"/>
  <path d="M14.1667 9.1667L11.6603 4.7804C11.3228 4.1899 11.1541 3.8946 10.9029 3.6951 10.7761 3.5943 10.6352 3.5125 10.4848 3.4524 10.1869 3.3333 9.8468 3.3333 9.1667 3.3333" stroke="currentColor" stroke-linecap="round" stroke-linejoin="round" stroke-width="2"/>
</svg>
