<svg xmlns="http://www.w3.org/2000/svg" width="20" height="20" viewBox="0 0 20 20" fill="none">
  <path d="M8.75 5V1.6667" stroke="currentColor" stroke-linecap="round" stroke-linejoin="round" stroke-width="2"/>
  <path d="M8.75 18.3333C13.75 18.3333 15 14.575 15 10 15 5.425 13.75 1.6667 8.75 1.6667 3.7499 1.6667 2.5 5.425 2.5 10 2.5 14.575 3.7499 18.3333 8.75 18.3333Z" stroke="currentColor" stroke-width="2"/>
  <path d="M10 6.25C10 5.8617 10 5.6676 9.9366 5.5144 9.852 5.3102 9.6898 5.148 9.4856 5.0634 9.3324 5 9.1382 5 8.75 5 8.3618 5 8.1676 5 8.0144 5.0634 7.8102 5.148 7.648 5.3102 7.5634 5.5144 7.5 5.6676 7.5 5.8617 7.5 6.25V7.9167C7.5 8.3049 7.5 8.4991 7.5634 8.6523 7.648 8.8564 7.8102 9.0187 8.0144 9.1033 8.1676 9.1667 8.3618 9.1667 8.75 9.1667 9.1382 9.1667 9.3324 9.1667 9.4856 9.1033 9.6898 9.0187 9.852 8.8564 9.9366 8.6523 10 8.4991 10 8.3049 10 7.9167V6.25Z" stroke="currentColor" stroke-width="2"/>
  <path d="M15.8333 1.6667C16.7123 2.6097 17.3038 3.7509 17.5 5" stroke="currentColor" stroke-linecap="round" stroke-width="2"/>
</svg>
