<svg xmlns="http://www.w3.org/2000/svg" width="20" height="20" viewBox="0 0 20 20" fill="none">
  <path d="M10 18.3333C14.6667 18.3333 15.8333 15.1387 15.8333 11.25 15.8333 7.3612 14.6667 4.1667 10 4.1667 5.3333 4.1667 4.1667 7.3612 4.1667 11.25 4.1667 15.1387 5.3333 18.3333 10 18.3333Z" stroke="currentColor" stroke-width="2"/>
  <path d="M10 6.6667V1.6667" stroke="currentColor" stroke-linecap="round" stroke-linejoin="round" stroke-width="2"/>
  <path d="M8.75 7.9167C8.75 7.5284 8.75 7.3342 8.8134 7.1811 8.898 6.9769 9.0602 6.8147 9.2644 6.7301 9.4176 6.6667 9.6118 6.6667 10 6.6667 10.3882 6.6667 10.5824 6.6667 10.7356 6.7301 10.9398 6.8147 11.102 6.9769 11.1866 7.1811 11.25 7.3342 11.25 7.5284 11.25 7.9167V8.75C11.25 9.1382 11.25 9.3324 11.1866 9.4856 11.102 9.6898 10.9398 9.852 10.7356 9.9366 10.5824 10 10.3882 10 10 10 9.6118 10 9.4176 10 9.2644 9.9366 9.0602 9.852 8.898 9.6898 8.8134 9.4856 8.75 9.3324 8.75 9.1382 8.75 8.75V7.9167Z" stroke="currentColor" stroke-width="2"/>
</svg>
