<svg xmlns="http://www.w3.org/2000/svg" width="20" height="20" viewBox="0 0 20 20" fill="none">
  <path d="M10 5.8333V2.0833M10 10.8333V9.1667" stroke="currentColor" stroke-linecap="round" stroke-linejoin="round" stroke-width="2"/>
  <path d="M6.1079 3.7298C6.9894 3.526 7.8711 3.0862 8.7532 2.4105 9.4004 1.9146 9.7241 1.6666 10.001 1.6667 10.2778 1.6667 10.6016 1.915 11.249 2.4114 12.1296 3.0866 13.0105 3.5261 13.8915 3.7298 14.5393 3.8796 14.8632 3.9545 15.0266 4.108 15.19 4.2614 15.2646 4.5004 15.4137 4.9784 17.3024 11.0312 16.0796 16.2423 10.8484 18.1304 10.4735 18.2657 10.2861 18.3333 10.0015 18.3333 9.7169 18.3333 9.5295 18.2657 9.1546 18.1304 3.923 16.2423 2.6967 11.0311 4.5858 4.9782 4.735 4.5003 4.8095 4.2614 4.9729 4.1079 5.1363 3.9545 5.4602 3.8796 6.1079 3.7298Z" stroke="currentColor" stroke-linecap="round" stroke-linejoin="round" stroke-width="2"/>
  <path d="M8.75 7.0833C8.75 6.6951 8.75 6.5009 8.8134 6.3478 8.898 6.1436 9.0602 5.9813 9.2644 5.8968 9.4176 5.8333 9.6118 5.8333 10 5.8333 10.3882 5.8333 10.5824 5.8333 10.7356 5.8968 10.9398 5.9813 11.102 6.1436 11.1866 6.3478 11.25 6.5009 11.25 6.6951 11.25 7.0833V7.9167C11.25 8.3049 11.25 8.4991 11.1866 8.6523 11.102 8.8564 10.9398 9.0187 10.7356 9.1033 10.5824 9.1667 10.3882 9.1667 10 9.1667 9.6118 9.1667 9.4176 9.1667 9.2644 9.1033 9.0602 9.0187 8.898 8.8564 8.8134 8.6523 8.75 8.4991 8.75 8.3049 8.75 7.9167V7.0833Z" stroke="currentColor" stroke-width="2"/>
</svg>
