<svg xmlns="http://www.w3.org/2000/svg" width="20" height="20" viewBox="0 0 20 20" fill="none">
  <path d="M13.1182 6.0484L13.6136 6.2422C16.5136 7.377 17.9636 7.9444 17.9155 8.8444 17.8674 9.7445 16.3542 10.1572 13.3277 10.9826 12.4266 11.2283 11.976 11.3513 11.6636 11.6636 11.3513 11.976 11.2283 12.4266 10.9826 13.3277 10.1572 16.3542 9.7445 17.8674 8.8444 17.9155 7.9444 17.9636 7.377 16.5136 6.2422 13.6136L6.0484 13.1182M4.8765 10.1235L4.2748 8.5857C3.0867 5.5495 2.4927 4.0314 3.262 3.262 4.0314 2.4927 5.5495 3.0867 8.5857 4.2748L10.1235 4.8765" stroke="currentColor" stroke-linecap="round" stroke-linejoin="round" stroke-width="2"/>
  <path d="M17.0833 2.0833L2.0833 17.0833" stroke="currentColor" stroke-linecap="round" stroke-linejoin="round" stroke-width="2"/>
</svg>
