<svg xmlns="http://www.w3.org/2000/svg" width="20" height="20" viewBox="0 0 20 20" fill="none">
  <path d="M8.75 1.6667L8.75 5M8.75 8.3333L8.75 10" stroke="currentColor" stroke-linecap="round" stroke-linejoin="round" stroke-width="2"/>
  <path d="M2.7005 14.2407C2.8587 16.2336 4.4368 17.9258 6.4709 18.1765 7.2188 18.2686 7.9793 18.3333 8.75 18.3333 9.5206 18.3333 10.2811 18.2686 11.0291 18.1765 13.0632 17.9258 14.6412 16.2336 14.7994 14.2407 14.9091 12.8598 15 11.4433 15 10 15 8.5567 14.9091 7.1403 14.7994 5.7593 14.6412 3.7664 13.0632 2.0741 11.0291 1.8235 10.2811 1.7314 9.5206 1.6667 8.75 1.6667 7.9793 1.6667 7.2188 1.7314 6.4709 1.8235 4.4368 2.0741 2.8587 3.7664 2.7005 5.7593 2.5909 7.1403 2.5 8.5567 2.5 10 2.5 11.4433 2.5909 12.8598 2.7005 14.2407Z" stroke="currentColor" stroke-width="2"/>
  <path d="M15.8333 1.6667C16.7123 2.6097 17.3038 3.7509 17.5 5" stroke="currentColor" stroke-linecap="round" stroke-width="2"/>
  <path d="M10 6.25C10 5.8617 10 5.6676 9.9366 5.5144 9.852 5.3102 9.6898 5.148 9.4856 5.0634 9.3324 5 9.1382 5 8.75 5 8.3618 5 8.1676 5 8.0144 5.0634 7.8102 5.148 7.648 5.3102 7.5634 5.5144 7.5 5.6676 7.5 5.8617 7.5 6.25V7.0833C7.5 7.4716 7.5 7.6658 7.5634 7.8189 7.648 8.0231 7.8102 8.1853 8.0144 8.2699 8.1676 8.3333 8.3618 8.3333 8.75 8.3333 9.1382 8.3333 9.3324 8.3333 9.4856 8.2699 9.6898 8.1853 9.852 8.0231 9.9366 7.8189 10 7.6658 10 7.4716 10 7.0833V6.25Z" stroke="currentColor" stroke-width="2"/>
</svg>
