<svg xmlns="http://www.w3.org/2000/svg" width="20" height="20" viewBox="0 0 20 20" fill="none">
  <path d="M5.9937 15.0593C6.1203 16.6536 7.3828 18.0073 9.01 18.2079 9.6084 18.2816 10.2167 18.3333 10.8333 18.3333 11.4498 18.3333 12.0583 18.2816 12.6566 18.2079 14.2839 18.0073 15.5463 16.6536 15.6728 15.0593 15.7607 13.9544 15.8333 12.8213 15.8333 11.6667 15.8333 10.512 15.7607 9.3789 15.6728 8.2741 15.5463 6.6798 14.2839 5.326 12.6566 5.1255 12.0583 5.0517 11.4498 5 10.8333 5 10.2167 5 9.6084 5.0517 9.01 5.1255 7.3828 5.326 6.1203 6.6798 5.9937 8.2741 5.906 9.3789 5.8333 10.512 5.8333 11.6667 5.8333 12.8213 5.906 13.9544 5.9937 15.0593Z" stroke="currentColor" stroke-width="2"/>
  <path d="M10.8333 7.5V6.25C10.8333 4.6787 10.8333 3.893 10.3452 3.4048 9.857 2.9167 9.0713 2.9167 7.5 2.9167L5.4167 2.9167C4.7263 2.9167 4.1667 2.357 4.1667 1.6667" stroke="currentColor" stroke-linecap="round" stroke-linejoin="round" stroke-width="2"/>
  <path d="M9.5833 8.75C9.5833 8.3618 9.5833 8.1676 9.6468 8.0144 9.7313 7.8102 9.8936 7.648 10.0978 7.5634 10.2509 7.5 10.4451 7.5 10.8333 7.5 11.2216 7.5 11.4158 7.5 11.5689 7.5634 11.7731 7.648 11.9353 7.8102 12.0199 8.0144 12.0833 8.1676 12.0833 8.3618 12.0833 8.75V9.5833C12.0833 9.9716 12.0833 10.1658 12.0199 10.3189 11.9353 10.5231 11.7731 10.6853 11.5689 10.7699 11.4158 10.8333 11.2216 10.8333 10.8333 10.8333 10.4451 10.8333 10.2509 10.8333 10.0978 10.7699 9.8936 10.6853 9.7313 10.5231 9.6468 10.3189 9.5833 10.1658 9.5833 9.9716 9.5833 9.5833V8.75Z" stroke="currentColor" stroke-width="2"/>
</svg>
