<svg xmlns="http://www.w3.org/2000/svg" width="20" height="20" viewBox="0 0 20 20" fill="none">
  <path d="M9.1667 4.5833V1.6667M9.1667 10V7.5" stroke="currentColor" stroke-linecap="round" stroke-linejoin="round" stroke-width="2"/>
  <path d="M11.25 1.932C10.6412 1.7589 9.9499 1.6667 9.1667 1.6667 4.1667 1.6667 2.9167 5.425 2.9167 10 2.9167 14.575 4.1667 18.3333 9.1667 18.3333 14.1668 18.3333 15.4167 14.575 15.4167 10 15.4167 9.5755 15.4059 9.1581 15.3824 8.75" stroke="currentColor" stroke-linecap="round" stroke-width="2"/>
  <path d="M10.4167 5.8333C10.4167 5.4451 10.4167 5.2509 10.3533 5.0978 10.2687 4.8936 10.1064 4.7313 9.9023 4.6468 9.7491 4.5833 9.5549 4.5833 9.1667 4.5833 8.7784 4.5833 8.5843 4.5833 8.4311 4.6468 8.2269 4.7313 8.0647 4.8936 7.9801 5.0978 7.9167 5.2509 7.9167 5.4451 7.9167 5.8333V6.25C7.9167 6.6383 7.9167 6.8324 7.9801 6.9856 8.0647 7.1898 8.2269 7.352 8.4311 7.4366 8.5843 7.5 8.7784 7.5 9.1667 7.5 9.5549 7.5 9.7491 7.5 9.9023 7.4366 10.1064 7.352 10.2687 7.1898 10.3533 6.9856 10.4167 6.8324 10.4167 6.6383 10.4167 6.25V5.8333Z" stroke="currentColor" stroke-width="2"/>
  <path d="M3.3333 10H15" stroke="currentColor" stroke-linecap="round" stroke-linejoin="round" stroke-width="2"/>
  <circle cx="15" cy="4.583333333333334" r="2.0833333333333335" stroke="currentColor" stroke-width="2"/>
</svg>
