<svg xmlns="http://www.w3.org/2000/svg" width="20" height="20" viewBox="0 0 20 20" fill="none">
  <path d="M8.3333 1.932C8.9422 1.7589 9.6334 1.6667 10.4167 1.6667 15.4167 1.6667 16.6667 5.425 16.6667 10 16.6667 14.575 15.4167 18.3333 10.4167 18.3333 5.4166 18.3333 4.1667 14.575 4.1667 10 4.1667 9.5755 4.1774 9.1581 4.2009 8.75" stroke="currentColor" stroke-linecap="round" stroke-width="2"/>
  <path d="M11.6667 5.8333C11.6667 5.4451 11.6667 5.2509 11.6033 5.0978 11.5187 4.8936 11.3564 4.7313 11.1523 4.6468 10.9991 4.5833 10.8049 4.5833 10.4167 4.5833 10.0284 4.5833 9.8343 4.5833 9.6811 4.6468 9.4769 4.7313 9.3147 4.8936 9.2301 5.0978 9.1667 5.2509 9.1667 5.4451 9.1667 5.8333V6.25C9.1667 6.6383 9.1667 6.8324 9.2301 6.9856 9.3147 7.1898 9.4769 7.352 9.6811 7.4366 9.8343 7.5 10.0284 7.5 10.4167 7.5 10.8049 7.5 10.9991 7.5 11.1523 7.4366 11.3564 7.352 11.5187 7.1898 11.6033 6.9856 11.6667 6.8324 11.6667 6.6383 11.6667 6.25V5.8333Z" stroke="currentColor" stroke-width="2"/>
  <path d="M10.4167 4.5833V1.6667M10.4167 10V7.5" stroke="currentColor" stroke-linecap="round" stroke-linejoin="round" stroke-width="2"/>
  <path d="M4.5833 10H16.25" stroke="currentColor" stroke-linecap="round" stroke-linejoin="round" stroke-width="2"/>
  <circle cx="4.583333333333334" cy="4.583333333333334" r="2.0833333333333335" stroke="currentColor" stroke-width="2"/>
</svg>
