<svg xmlns="http://www.w3.org/2000/svg" width="20" height="20" viewBox="0 0 20 20" fill="none">
  <path d="M11.25 5V1.6667" stroke="currentColor" stroke-linecap="round" stroke-linejoin="round" stroke-width="2"/>
  <path d="M10 6.25C10 5.8617 10 5.6676 10.0634 5.5144 10.148 5.3102 10.3102 5.148 10.5144 5.0634 10.6676 5 10.8618 5 11.25 5 11.6382 5 11.8324 5 11.9856 5.0634 12.1898 5.148 12.352 5.3102 12.4366 5.5144 12.5 5.6676 12.5 5.8617 12.5 6.25V7.9167C12.5 8.3049 12.5 8.4991 12.4366 8.6523 12.352 8.8564 12.1898 9.0187 11.9856 9.1033 11.8324 9.1667 11.6382 9.1667 11.25 9.1667 10.8618 9.1667 10.6676 9.1667 10.5144 9.1033 10.3102 9.0187 10.148 8.8564 10.0634 8.6523 10 8.4991 10 8.3049 10 7.9167V6.25Z" stroke="currentColor" stroke-width="2"/>
  <path d="M11.25 18.3333C16.25 18.3333 17.5 14.575 17.5 10 17.5 5.425 16.25 1.6667 11.25 1.6667 6.2499 1.6667 5 5.425 5 10 5 14.575 6.2499 18.3333 11.25 18.3333Z" stroke="currentColor" stroke-width="2"/>
  <path d="M4.1667 1.6667C3.2878 2.6097 2.6962 3.7509 2.5 5" stroke="currentColor" stroke-linecap="round" stroke-width="2"/>
</svg>
