<svg xmlns="http://www.w3.org/2000/svg" width="20" height="20" viewBox="0 0 20 20" fill="none">
  <path d="M10 4.1667V1.6667M10 10V7.5" stroke="currentColor" stroke-linecap="round" stroke-linejoin="round" stroke-width="2"/>
  <path d="M7.3938 2.7772L8.6116 2.0497C9.4662 1.5391 10.5338 1.5391 11.3884 2.0497L12.6062 2.7772C15.7058 4.6291 16.7503 8.6084 14.9568 11.7335 14.9262 11.7868 14.9047 11.845 14.8933 11.9054L14.3616 14.7291C14.3117 14.9943 14.2868 15.1269 14.2578 15.2426 13.8255 16.9728 12.3136 18.2223 10.5259 18.3265 10.4064 18.3334 10.271 18.3334 10 18.3334 9.729 18.3334 9.5936 18.3334 9.4741 18.3265 7.6864 18.2223 6.1745 16.9728 5.7422 15.2426 5.7133 15.1269 5.6883 14.9943 5.6384 14.7291L5.1067 11.9054C5.0953 11.845 5.0738 11.7868 5.0432 11.7335 3.2497 8.6084 4.2941 4.6291 7.3938 2.7772Z" stroke="currentColor" stroke-linecap="round" stroke-linejoin="round" stroke-width="2"/>
  <path d="M15 12.5C13.8829 10.986 12.0596 10 10 10 7.9404 10 6.1171 10.986 5 12.5" stroke="currentColor" stroke-width="2"/>
  <path d="M8.75 5.4167C8.75 5.0284 8.75 4.8342 8.8134 4.6811 8.898 4.4769 9.0602 4.3147 9.2644 4.2301 9.4176 4.1667 9.6118 4.1667 10 4.1667 10.3882 4.1667 10.5824 4.1667 10.7356 4.2301 10.9398 4.3147 11.102 4.4769 11.1866 4.6811 11.25 4.8342 11.25 5.0284 11.25 5.4167V6.25C11.25 6.6383 11.25 6.8324 11.1866 6.9856 11.102 7.1898 10.9398 7.352 10.7356 7.4366 10.5824 7.5 10.3882 7.5 10 7.5 9.6118 7.5 9.4176 7.5 9.2644 7.4366 9.0602 7.352 8.898 7.1898 8.8134 6.9856 8.75 6.8324 8.75 6.6383 8.75 6.25V5.4167Z" stroke="currentColor" stroke-width="2"/>
</svg>
