<svg xmlns="http://www.w3.org/2000/svg" width="20" height="20" viewBox="0 0 20 20" fill="none">
  <path d="M10 5V2.0833M10 10V8.3333" stroke="currentColor" stroke-linecap="round" stroke-linejoin="round" stroke-width="2"/>
  <path d="M6.1079 3.7298C6.9894 3.526 7.8711 3.0862 8.7532 2.4105 9.4004 1.9146 9.7241 1.6666 10.001 1.6667 10.2778 1.6667 10.6016 1.915 11.249 2.4114 12.1296 3.0866 13.0105 3.5261 13.8915 3.7298 14.5393 3.8796 14.8632 3.9545 15.0266 4.108 15.19 4.2614 15.2646 4.5004 15.4137 4.9784 17.3024 11.0312 16.0796 16.2423 10.8484 18.1304 10.4735 18.2657 10.2861 18.3333 10.0015 18.3333 9.7169 18.3333 9.5295 18.2657 9.1546 18.1304 3.923 16.2423 2.6967 11.0311 4.5858 4.9782 4.735 4.5003 4.8095 4.2614 4.9729 4.1079 5.1363 3.9545 5.4602 3.8796 6.1079 3.7298Z" stroke="currentColor" stroke-linecap="round" stroke-linejoin="round" stroke-width="2"/>
  <path d="M8.75 6.25C8.75 5.8617 8.75 5.6676 8.8134 5.5144 8.898 5.3102 9.0602 5.148 9.2644 5.0634 9.4176 5 9.6118 5 10 5 10.3882 5 10.5824 5 10.7356 5.0634 10.9398 5.148 11.102 5.3102 11.1866 5.5144 11.25 5.6676 11.25 5.8617 11.25 6.25V7.0833C11.25 7.4716 11.25 7.6658 11.1866 7.8189 11.102 8.0231 10.9398 8.1853 10.7356 8.2699 10.5824 8.3333 10.3882 8.3333 10 8.3333 9.6118 8.3333 9.4176 8.3333 9.2644 8.2699 9.0602 8.1853 8.898 8.0231 8.8134 7.8189 8.75 7.6658 8.75 7.4716 8.75 7.0833V6.25Z" stroke="currentColor" stroke-width="2"/>
  <path d="M12.0833 14.1667C11.6772 14.7253 11.1896 15.186 10.611 15.5293 10.3561 15.6805 10.2286 15.7562 10 15.7562 9.7714 15.7562 9.6439 15.6805 9.389 15.5293 8.8104 15.186 8.3228 14.7253 7.9167 14.1667" stroke="currentColor" stroke-linecap="round" stroke-linejoin="round" stroke-width="2"/>
</svg>
