<svg xmlns="http://www.w3.org/2000/svg" width="20" height="20" viewBox="0 0 20 20" fill="none">
  <path d="M18.3333 5.1392C17.9978 5.803 17.2547 6.0304 16.6735 5.6472L14.9197 4.4907C13.5969 3.6184 12.9355 3.1823 12.2873 3.3806 11.8914 3.5018 11.5948 3.8307 11.25 4.4126" stroke="currentColor" stroke-linecap="round" stroke-linejoin="round" stroke-width="2"/>
  <path d="M1.9442 10.2676C1.3025 11.6487 1.799 13.4253 3.1712 14.4414 3.6759 14.815 4.1999 15.1757 4.7558 15.4981 5.3118 15.8205 5.8849 16.0958 6.4594 16.3479 8.0219 17.0333 9.802 16.5768 10.6721 15.3282 11.275 14.4629 11.8778 13.5664 12.4253 12.6142 12.9727 11.6619 13.4444 10.6894 13.8891 9.7324 14.5308 8.3513 14.0344 6.5748 12.6621 5.5586 12.1575 5.185 11.6334 4.8242 11.0775 4.5019 10.5216 4.1795 9.9484 3.9041 9.3739 3.6521 7.8116 2.9667 6.0313 3.4231 5.1612 4.6718 4.5583 5.5371 3.9555 6.4336 3.4081 7.3859 2.8607 8.3381 2.3889 9.3107 1.9442 10.2676Z" stroke="currentColor" stroke-width="2"/>
  <path d="M9.694 6.5853L8.8607 8.0287" stroke="currentColor" stroke-linecap="round" stroke-linejoin="round" stroke-width="2"/>
</svg>
