<svg xmlns="http://www.w3.org/2000/svg" width="20" height="20" viewBox="0 0 20 20" fill="none">
  <path d="M4.3209 15.8284C7.9 17.8593 10.2286 15.9263 11.9739 12.9553 13.7192 9.9842 14.2582 7.0359 10.6791 5.005 7.0999 2.974 4.7715 4.907 3.0261 7.8781 1.2808 10.8491 0.7418 13.7975 4.3209 15.8284Z" stroke="currentColor" stroke-width="2"/>
  <path d="M10 6.6667L10.5993 5.5879C11.3528 4.2319 11.7294 3.5538 12.3689 3.3758 13.0083 3.1977 13.6608 3.5892 14.9657 4.3721L16.6959 5.4101C17.2692 5.7541 18.0023 5.55 18.3333 4.9542" stroke="currentColor" stroke-linecap="round" stroke-linejoin="round" stroke-width="2"/>
  <path d="M10.2083 8.5825C10.4025 8.2463 10.4996 8.0781 10.5212 7.9138 10.55 7.6947 10.4907 7.4731 10.3561 7.2977 10.2552 7.1662 10.0871 7.0691 9.7508 6.875 9.4145 6.6809 9.2464 6.5838 9.0821 6.5621 8.8629 6.5333 8.6413 6.5927 8.466 6.7272 8.3345 6.8281 8.2374 6.9963 8.0433 7.3325L7.6266 8.0542C7.4325 8.3905 7.3354 8.5586 7.3138 8.7229 7.2849 8.9421 7.3443 9.1637 7.4788 9.339 7.5797 9.4705 7.7479 9.5676 8.0841 9.7618 8.4204 9.9559 8.5885 10.053 8.7528 10.0746 8.972 10.1034 9.1936 10.0441 9.3689 9.9095 9.5004 9.8086 9.5975 9.6405 9.7917 9.3043L10.2083 8.5825Z" stroke="currentColor" stroke-width="2"/>
</svg>
