<svg xmlns="http://www.w3.org/2000/svg" width="20" height="20" viewBox="0 0 20 20" fill="none">
  <path d="M10 18.3333C14.3333 18.3333 15.4167 15.3267 15.4167 11.6667 15.4167 8.0067 14.3333 5 10 5 5.6666 5 4.5833 8.0066 4.5833 11.6667 4.5833 15.3267 5.6666 18.3333 10 18.3333Z" stroke="currentColor" stroke-width="2"/>
  <path d="M5 1.6667C5 3.1685 6.4537 2.9167 7.5055 2.9167 9.2063 2.9167 9.9448 3.2306 10 5V7.5" stroke="currentColor" stroke-linecap="round" stroke-linejoin="round" stroke-width="2"/>
  <path d="M8.75 8.75C8.75 8.3618 8.75 8.1676 8.8134 8.0144 8.898 7.8102 9.0602 7.648 9.2644 7.5634 9.4176 7.5 9.6118 7.5 10 7.5 10.3882 7.5 10.5824 7.5 10.7356 7.5634 10.9398 7.648 11.102 7.8102 11.1866 8.0144 11.25 8.1676 11.25 8.3618 11.25 8.75V9.5833C11.25 9.9716 11.25 10.1658 11.1866 10.3189 11.102 10.5231 10.9398 10.6853 10.7356 10.7699 10.5824 10.8333 10.3882 10.8333 10 10.8333 9.6118 10.8333 9.4176 10.8333 9.2644 10.7699 9.0602 10.6853 8.898 10.5231 8.8134 10.3189 8.75 10.1658 8.75 9.9716 8.75 9.5833V8.75Z" stroke="currentColor" stroke-width="2"/>
</svg>
