<svg xmlns="http://www.w3.org/2000/svg" width="20" height="20" viewBox="0 0 20 20" fill="none">
  <path d="M4.3538 14.8546C4.5015 16.5486 5.9744 17.9869 7.8728 18.2001 8.5709 18.2783 9.2807 18.3333 10 18.3333 10.7193 18.3333 11.429 18.2783 12.1272 18.2001 14.0257 17.9869 15.4984 16.5486 15.6462 14.8546 15.7485 13.6807 15.8333 12.4768 15.8333 11.25 15.8333 10.0232 15.7485 8.8193 15.6462 7.6454 15.4984 5.9514 14.0257 4.513 12.1272 4.3 11.429 4.2216 10.7193 4.1667 10 4.1667 9.2807 4.1667 8.5709 4.2216 7.8728 4.3 5.9744 4.513 4.5015 5.9514 4.3538 7.6454 4.2515 8.8193 4.1667 10.0232 4.1667 11.25 4.1667 12.4768 4.2515 13.6807 4.3538 14.8546Z" stroke="currentColor" stroke-width="2"/>
  <path d="M10 1.6667L10 6.6667M10 10L10 11.6667" stroke="currentColor" stroke-linecap="round" stroke-linejoin="round" stroke-width="2"/>
  <path d="M8.75 7.9167C8.75 7.5284 8.75 7.3342 8.8134 7.1811 8.898 6.9769 9.0602 6.8147 9.2644 6.7301 9.4176 6.6667 9.6118 6.6667 10 6.6667 10.3882 6.6667 10.5824 6.6667 10.7356 6.7301 10.9398 6.8147 11.102 6.9769 11.1866 7.1811 11.25 7.3342 11.25 7.5284 11.25 7.9167V8.75C11.25 9.1382 11.25 9.3324 11.1866 9.4856 11.102 9.6898 10.9398 9.852 10.7356 9.9366 10.5824 10 10.3882 10 10 10 9.6118 10 9.4176 10 9.2644 9.9366 9.0602 9.852 8.898 9.6898 8.8134 9.4856 8.75 9.3324 8.75 9.1382 8.75 8.75V7.9167Z" stroke="currentColor" stroke-width="2"/>
</svg>
