<svg xmlns="http://www.w3.org/2000/svg" width="20" height="20" viewBox="0 0 20 20" fill="none">
  <path d="M10 18.3333C15 18.3333 16.25 14.575 16.25 10 16.25 5.425 15 1.6667 10 1.6667 4.9999 1.6667 3.75 5.425 3.75 10 3.75 14.575 4.9999 18.3333 10 18.3333Z" stroke="currentColor" stroke-width="2"/>
  <path d="M8.75 6.25C8.75 5.8617 8.75 5.6676 8.8134 5.5144 8.898 5.3102 9.0602 5.148 9.2644 5.0634 9.4176 5 9.6118 5 10 5 10.3882 5 10.5824 5 10.7356 5.0634 10.9398 5.148 11.102 5.3102 11.1866 5.5144 11.25 5.6676 11.25 5.8617 11.25 6.25V7.9167C11.25 8.3049 11.25 8.4991 11.1866 8.6523 11.102 8.8564 10.9398 9.0187 10.7356 9.1033 10.5824 9.1667 10.3882 9.1667 10 9.1667 9.6118 9.1667 9.4176 9.1667 9.2644 9.1033 9.0602 9.0187 8.898 8.8564 8.8134 8.6523 8.75 8.4991 8.75 8.3049 8.75 7.9167V6.25Z" stroke="currentColor" stroke-width="2"/>
  <path d="M10 5V1.6667" stroke="currentColor" stroke-linecap="round" stroke-linejoin="round" stroke-width="2"/>
</svg>
