<svg xmlns="http://www.w3.org/2000/svg" width="20" height="20" viewBox="0 0 20 20" fill="none">
  <path d="M1.9442 10.2676C1.3025 11.6487 1.799 13.4253 3.1712 14.4414 3.6759 14.815 4.1999 15.1757 4.7558 15.4981 5.3118 15.8205 5.8849 16.0958 6.4594 16.3479 8.0219 17.0333 9.802 16.5768 10.6721 15.3282 11.275 14.4629 11.8778 13.5664 12.4253 12.6142 12.9727 11.6619 13.4444 10.6894 13.8891 9.7324 14.5308 8.3513 14.0344 6.5748 12.6621 5.5586 12.1575 5.185 11.6334 4.8242 11.0775 4.5019 10.5216 4.1795 9.9484 3.9041 9.3739 3.6521 7.8116 2.9667 6.0313 3.4231 5.1612 4.6718 4.5583 5.5371 3.9555 6.4336 3.4081 7.3859 2.8607 8.3381 2.3889 9.3107 1.9442 10.2676Z" stroke="currentColor" stroke-width="2"/>
  <path d="M10 6.6667L10.5993 5.5879C11.3528 4.2319 11.7294 3.5538 12.3689 3.3758 13.0083 3.1977 13.6608 3.5892 14.9657 4.3721L16.6959 5.4101C17.2692 5.7541 18.0023 5.55 18.3333 4.9542" stroke="currentColor" stroke-linecap="round" stroke-linejoin="round" stroke-width="2"/>
  <path d="M10.2083 8.5825C10.4025 8.2463 10.4996 8.0781 10.5212 7.9138 10.55 7.6947 10.4907 7.4731 10.3561 7.2977 10.2552 7.1662 10.0871 7.0691 9.7508 6.875 9.4145 6.6809 9.2464 6.5838 9.0821 6.5621 8.8629 6.5333 8.6413 6.5927 8.466 6.7272 8.3345 6.8281 8.2374 6.9963 8.0433 7.3325L7.6266 8.0542C7.4325 8.3905 7.3354 8.5586 7.3138 8.7229 7.2849 8.9421 7.3443 9.1637 7.4788 9.339 7.5797 9.4705 7.7479 9.5676 8.0841 9.7618 8.4204 9.9559 8.5885 10.053 8.7528 10.0746 8.972 10.1034 9.1936 10.0441 9.3689 9.9095 9.5004 9.8086 9.5975 9.6405 9.7917 9.3043L10.2083 8.5825Z" stroke="currentColor" stroke-width="2"/>
</svg>
