<svg xmlns="http://www.w3.org/2000/svg" width="20" height="20" viewBox="0 0 20 20" fill="none">
  <path d="M11.25 1.6667L11.25 5M11.25 8.3333L11.25 10" stroke="currentColor" stroke-linecap="round" stroke-linejoin="round" stroke-width="2"/>
  <path d="M4.1667 1.6667C3.2878 2.6097 2.6962 3.7509 2.5 5" stroke="currentColor" stroke-linecap="round" stroke-width="2"/>
  <path d="M10 6.25C10 5.8617 10 5.6676 10.0634 5.5144 10.148 5.3102 10.3102 5.148 10.5144 5.0634 10.6676 5 10.8618 5 11.25 5 11.6382 5 11.8324 5 11.9856 5.0634 12.1898 5.148 12.352 5.3102 12.4366 5.5144 12.5 5.6676 12.5 5.8617 12.5 6.25V7.0833C12.5 7.4716 12.5 7.6658 12.4366 7.8189 12.352 8.0231 12.1898 8.1853 11.9856 8.2699 11.8324 8.3333 11.6382 8.3333 11.25 8.3333 10.8618 8.3333 10.6676 8.3333 10.5144 8.2699 10.3102 8.1853 10.148 8.0231 10.0634 7.8189 10 7.6658 10 7.4716 10 7.0833V6.25Z" stroke="currentColor" stroke-width="2"/>
  <path d="M5.2005 14.2407C5.3587 16.2336 6.9368 17.9258 8.9708 18.1765 9.7188 18.2686 10.4793 18.3333 11.25 18.3333 12.0206 18.3333 12.7811 18.2686 13.5291 18.1765 15.5632 17.9258 17.1412 16.2336 17.2994 14.2407 17.4091 12.8598 17.5 11.4433 17.5 10 17.5 8.5567 17.4091 7.1403 17.2994 5.7593 17.1412 3.7664 15.5632 2.0741 13.5291 1.8235 12.7811 1.7314 12.0206 1.6667 11.25 1.6667 10.4793 1.6667 9.7188 1.7314 8.9708 1.8235 6.9368 2.0741 5.3587 3.7664 5.2005 5.7593 5.0909 7.1403 5 8.5567 5 10 5 11.4433 5.0909 12.8598 5.2005 14.2407Z" stroke="currentColor" stroke-width="2"/>
</svg>
