<svg xmlns="http://www.w3.org/2000/svg" width="20" height="20" viewBox="0 0 20 20" fill="none">
  <path d="M4.1667 1.6667C4.1667 2.357 4.7263 2.9167 5.4167 2.9167L7.5 2.9167C9.0713 2.9167 9.857 2.9167 10.3452 3.4048 10.6819 3.7416 10.7863 4.2199 10.8187 5" stroke="currentColor" stroke-linecap="round" stroke-linejoin="round" stroke-width="2"/>
  <path d="M5.9937 15.0593C6.1203 16.6536 7.3828 18.0073 9.01 18.2079 9.6084 18.2816 10.2167 18.3333 10.8333 18.3333 11.4498 18.3333 12.0583 18.2816 12.6566 18.2079 14.2839 18.0073 15.5463 16.6536 15.6728 15.0593 15.7607 13.9544 15.8333 12.8213 15.8333 11.6667 15.8333 10.512 15.7607 9.3789 15.6728 8.2741 15.5463 6.6798 14.2839 5.326 12.6566 5.1255 12.0583 5.0517 11.4498 5 10.8333 5 10.2167 5 9.6084 5.0517 9.01 5.1255 7.3828 5.326 6.1203 6.6798 5.9937 8.2741 5.906 9.3789 5.8333 10.512 5.8333 11.6667 5.8333 12.8213 5.906 13.9544 5.9937 15.0593Z" stroke="currentColor" stroke-width="2"/>
  <path d="M10.8333 7.5V9.1667" stroke="currentColor" stroke-linecap="round" stroke-linejoin="round" stroke-width="2"/>
</svg>
