<svg xmlns="http://www.w3.org/2000/svg" width="20" height="20" viewBox="0 0 20 20" fill="none">
  <path d="M10 18.3333C15 18.3333 16.25 14.575 16.25 10 16.25 5.425 15 1.6667 10 1.6667 4.9999 1.6667 3.75 5.425 3.75 10 3.75 14.575 4.9999 18.3333 10 18.3333Z" stroke="currentColor" stroke-width="2"/>
  <path d="M9.9903 5.6988L9.9903 9.7988" stroke="currentColor" stroke-linecap="round" stroke-linejoin="round" stroke-width="2"/>
  <path d="M8.3301 6.5488C9.1501 5.6988 9.6501 4.9488 10.0301 5.0027 10.3501 5.0001 10.6501 5.4988 11.6701 6.5488" stroke="currentColor" stroke-linecap="round" stroke-linejoin="round" stroke-width="2"/>
  <path d="M11.6701 9.2838C10.8501 10.1338 10.3501 10.8838 9.9701 10.8299 9.6501 10.8326 9.3501 10.3338 8.3301 9.2838" stroke="currentColor" stroke-linecap="round" stroke-linejoin="round" stroke-width="2"/>
</svg>
