<svg xmlns="http://www.w3.org/2000/svg" width="20" height="20" viewBox="0 0 20 20" fill="none">
  <path d="M4.0624 10.965L5.8423 12.4911V4.3558C5.8423 3.5494 6.4958 2.8956 7.302 2.8956 8.1082 2.8956 8.7617 3.5494 8.7617 4.3558V8.7363L11.2539 9.1348C12.8626 9.3763 13.667 9.4968 14.2335 9.8364 15.1694 10.3972 15.8474 11.2395 15.8474 12.469 15.8474 13.3254 15.6357 13.9 15.1213 15.4437 14.795 16.4232 14.6318 16.913 14.3657 17.3008 13.9275 17.939 13.2811 18.405 12.5372 18.619 12.0853 18.749 11.5693 18.749 10.5371 18.749H9.6622C8.2899 18.749 7.6038 18.749 6.993 18.4971 6.8834 18.4519 6.7764 18.4009 6.6723 18.3444 6.0917 18.029 5.659 17.4963 4.7937 16.431L1.9923 12.9819C1.5618 12.4519 1.5589 11.6935 1.9854 11.1603 2.498 10.5193 3.4394 10.4308 4.0624 10.965Z" stroke="currentColor" stroke-linecap="round" stroke-linejoin="round" stroke-width="2"/>
  <path d="M14.0993 1.9736L14.7704 1.3423C14.8342 1.2823 14.9158 1.252 14.9976 1.2516M15.9219 1.9736L15.2238 1.3385C15.1596 1.2802 15.0785 1.2513 14.9976 1.2516M15.9219 7.176L15.2508 7.8073C15.1802 7.8737 15.0878 7.9037 14.9976 7.8971M14.0993 7.176L14.7974 7.8111C14.8547 7.8632 14.9255 7.8918 14.9976 7.8971M14.9976 1.2516V7.8971M17.6114 3.6629L18.2422 4.3344C18.3023 4.3983 18.3325 4.48 18.3329 4.5618M17.6114 5.4868L18.2461 4.7881C18.3044 4.7239 18.3332 4.6428 18.3329 4.5618M12.4126 5.4867L11.7818 4.8152C11.7153 4.7445 11.6854 4.6521 11.692 4.5618M12.4126 3.6628L11.7779 4.3615C11.7258 4.4188 11.6973 4.4896 11.692 4.5618M18.3329 4.5618L11.692 4.5618" stroke="currentColor" stroke-linecap="round" stroke-linejoin="round" stroke-width="2"/>
</svg>
