<svg xmlns="http://www.w3.org/2000/svg" width="20" height="20" viewBox="0 0 20 20" fill="none">
  <path d="M5.7005 18.5411V17.7494C5.7005 17.2108 5.5264 16.6865 5.204 16.2542L2.1523 12.1631C1.8003 11.6913 1.5192 11.1058 1.7516 10.5654 2.1278 9.6906 3.189 9.1223 4.4879 10.4339L5.8206 11.8603 5.8205 3.1629C5.8675 1.458 8.6108 1.3735 8.7281 3.1629V8.1194C9.9629 7.9599 15.7799 8.8307 14.9321 12.519 14.8918 12.6943 14.8516 12.8721 14.8123 13.0476 14.6407 13.8143 14.1336 15.1806 13.5743 15.9793 12.9921 16.8109 13.1975 17.6392 13.1975 18.5411" stroke="currentColor" stroke-linecap="round" stroke-linejoin="round" stroke-width="2"/>
  <path d="M14.1043 2.181L14.7748 1.5505C14.8386 1.4906 14.9202 1.4603 15.0018 1.46M15.9253 2.181L15.2278 1.5468C15.1637 1.4885 15.0827 1.4596 15.0018 1.46M15.9253 7.3769L15.2548 8.0073C15.1843 8.0737 15.092 8.1036 15.0018 8.097M14.1043 7.3769L14.8018 8.0111C14.8591 8.0632 14.9298 8.0918 15.0018 8.097M15.0018 1.46V8.097M17.6133 3.8681L18.2435 4.5389C18.3034 4.6027 18.3337 4.6842 18.334 4.7659M17.6133 5.6897L18.2473 4.992C18.3055 4.9279 18.3344 4.8468 18.334 4.7659M12.4192 5.6897L11.7889 5.019C11.7227 4.9484 11.6927 4.8561 11.6993 4.7659M12.4192 3.8681L11.7852 4.5659C11.7332 4.6231 11.7046 4.6939 11.6993 4.7659M18.334 4.7659L11.6993 4.7659" stroke="currentColor" stroke-linecap="round" stroke-linejoin="round" stroke-width="2"/>
</svg>
