<svg xmlns="http://www.w3.org/2000/svg" width="20" height="20" viewBox="0 0 20 20" fill="none">
  <path d="M16.6667 10.8325V8.8799C16.6667 8.1987 16.6667 7.858 16.5398 7.5517 16.4129 7.2454 16.1721 7.0046 15.6903 6.5229L11.7433 2.5758C11.3275 2.16 11.1197 1.9522 10.8621 1.829 10.8085 1.8034 10.7537 1.7806 10.6977 1.7609 10.4284 1.6659 10.1345 1.6659 9.5465 1.6659 6.8424 1.6659 5.4903 1.6659 4.5744 2.4043 4.3894 2.5534 4.2209 2.722 4.0717 2.907 3.3333 3.8228 3.3333 5.1749 3.3333 7.8791V10.8325M10.8333 2.0825V2.4992C10.8333 4.8562 10.8333 6.0347 11.5656 6.767 12.2978 7.4992 13.4763 7.4992 15.8333 7.4992H16.25" stroke="currentColor" stroke-linecap="round" stroke-linejoin="round" stroke-width="2"/>
  <path d="M3.3333 18.3342V13.3342L5 15.8342 6.6667 13.3342V18.3342M8.75 18.3342V16.2508M8.75 16.2508V13.3342H10.2083C11.0137 13.3342 11.6667 13.9871 11.6667 14.7925 11.6667 15.5979 11.0137 16.2508 10.2083 16.2508H8.75ZM13.75 13.3342V15.0008C13.75 15.4611 14.1231 15.8342 14.5833 15.8342H16.6667M16.6667 15.8342V13.3342M16.6667 15.8342V17.9175" stroke="currentColor" stroke-linecap="round" stroke-linejoin="round" stroke-width="2"/>
</svg>
