<svg xmlns="http://www.w3.org/2000/svg" width="20" height="20" viewBox="0 0 20 20" fill="none">
  <path d="M15.8333 9.1667C15.8333 8.4854 15.8333 7.8588 15.7065 7.5526 15.5796 7.2463 15.3388 7.0054 14.857 6.5237L10.9099 2.5766C10.4942 2.1608 10.2863 1.953 10.0288 1.8298 9.9752 1.8042 9.9203 1.7814 9.8643 1.7617 9.5951 1.6667 9.3012 1.6667 8.7132 1.6667 6.009 1.6667 4.6569 1.6667 3.7411 2.4051 3.5561 2.5542 3.3876 2.7228 3.2384 2.9078 2.5 3.8236 2.5 5.1757 2.5 7.8799V11.6667C2.5 14.8093 2.5 16.3808 3.4763 17.357 4.4526 18.3333 6.024 18.3333 9.1667 18.3333H15.8333M10 2.0833V2.5C10 4.857 10 6.0355 10.7323 6.7678 11.4645 7.5 12.643 7.5 15 7.5H15.4167" stroke="currentColor" stroke-linecap="round" stroke-linejoin="round" stroke-width="2"/>
  <path d="M16.2898 13.75H16.6667M16.6667 13.75C17.1269 13.75 17.5 13.3769 17.5 12.9167V12.5C17.5 12.0397 17.1269 11.6667 16.6667 11.6667H15.8333C15.3731 11.6667 15 12.0397 15 12.5M16.6667 13.75C17.1269 13.75 17.5 14.1231 17.5 14.5833V14.7917C17.5 15.367 17.0337 15.8333 16.4583 15.8333H15.8333C15.3731 15.8333 15 15.4603 15 15M5.8333 15.8333V11.6667L7.5 14.1667 9.1667 11.6667V15.8333M10.8333 15.8333V14.1667M10.8333 14.1667V11.6667H12.0833C12.7737 11.6667 13.3333 12.2263 13.3333 12.9167 13.3333 13.607 12.7737 14.1667 12.0833 14.1667H10.8333Z" stroke="currentColor" stroke-linecap="round" stroke-linejoin="round" stroke-width="2"/>
</svg>
