<svg xmlns="http://www.w3.org/2000/svg" width="20" height="20" viewBox="0 0 20 20" fill="none">
  <path d="M14.1667 12.5C16.1767 12.1735 17.5 11.6176 17.5 10.9866 17.5 9.9815 14.1422 9.1667 10 9.1667 5.8579 9.1667 2.5 9.9815 2.5 10.9866 2.5 11.6176 3.8234 12.1735 5.8333 12.5" stroke="currentColor" stroke-linecap="round" stroke-width="2"/>
  <path d="M17.5 10.8333C17.5 5.7707 14.1422 1.6667 10 1.6667 5.8579 1.6667 2.5 5.7707 2.5 10.8333" stroke="currentColor" stroke-width="2"/>
  <path d="M15 3.9709C14.6123 4.5865 13.8925 5 13.0686 5 11.8341 5 10.8333 4.0717 10.8333 2.9266 10.8333 2.4527 11.0048 2.0159 11.2932 1.6667" stroke="currentColor" stroke-width="2"/>
  <path d="M8.3333 9.5833C8.3294 12.4579 8.2504 16.8127 6.6667 18.3333M11.6667 9.5833C11.6706 12.4579 11.7497 16.8127 13.3333 18.3333" stroke="currentColor" stroke-linecap="round" stroke-linejoin="round" stroke-width="2"/>
  <path d="M7.6042 5.8333H7.5M7.7083 5.8333C7.7083 5.9484 7.6151 6.0417 7.5 6.0417 7.3849 6.0417 7.2917 5.9484 7.2917 5.8333 7.2917 5.7183 7.3849 5.625 7.5 5.625 7.6151 5.625 7.7083 5.7183 7.7083 5.8333Z" stroke="currentColor" stroke-linecap="round" stroke-width="2"/>
</svg>
