<svg xmlns="http://www.w3.org/2000/svg" width="20" height="20" viewBox="0 0 20 20" fill="none">
  <path d="M9.1667 5.9473V14.1667M9.1667 5.9473C10.744 7.3475 12.1422 8.3368 13.3386 8.9015 13.9114 9.1718 14.4304 9.2235 15.0165 8.9627 16.4793 8.3118 17.5 6.8386 17.5 5.1254 15.8929 6.2576 13.9063 5.643 12.2372 4.5879 10.8712 3.7243 10.1882 3.2925 9.8808 3.3364 9.6484 3.3695 9.5236 3.4368 9.37 3.6118 9.1667 3.8435 9.1667 4.5448 9.1667 5.9473Z" stroke="currentColor" stroke-linecap="round" stroke-linejoin="round" stroke-width="2"/>
  <path d="M9.1667 14.1667C9.1667 16.0076 7.6743 17.5 5.8333 17.5 3.9924 17.5 2.5 16.0076 2.5 14.1667 2.5 12.3258 3.9924 10.8333 5.8333 10.8333 7.6743 10.8333 9.1667 12.3258 9.1667 14.1667Z" stroke="currentColor" stroke-linecap="round" stroke-linejoin="round" stroke-width="2"/>
</svg>
