<svg xmlns="http://www.w3.org/2000/svg" width="20" height="20" viewBox="0 0 20 20" fill="none">
  <path d="M12.9171 7.5486L13.2675 5.7524C13.6799 3.6387 12.1028 1.6667 10 1.6667 7.8972 1.6667 6.3201 3.6387 6.7325 5.7524L7.0829 7.5486C7.361 8.974 8.5819 10 10 10 11.4181 10 12.639 8.974 12.9171 7.5486Z" stroke="currentColor" stroke-linecap="round" stroke-width="2"/>
  <path d="M8.9583 9.5833C8.9583 9.2382 8.6785 8.9583 8.3333 8.9583 7.9882 8.9583 7.7083 9.2382 7.7083 9.5833H8.9583ZM12.2917 9.5833C12.2917 9.2382 12.0118 8.9583 11.6667 8.9583 11.3215 8.9583 11.0417 9.2382 11.0417 9.5833H12.2917ZM10.0753 13.3319L10.051 12.7073H10.051L10.0753 13.3319ZM9.9248 13.3319L9.949 12.7073H9.949L9.9248 13.3319ZM10.9683 12.5984L11.4188 13.0317 10.9683 12.5984ZM7.7083 9.5833V10.6515H8.9583V9.5833H7.7083ZM11.0417 9.5833V10.6515H12.2917V9.5833H11.0417ZM10.051 12.7073C10.0341 12.708 10.0171 12.7083 10 12.7083V13.9583C10.0333 13.9583 10.0664 13.9577 10.0994 13.9564L10.051 12.7073ZM9.9006 13.9564C9.9336 13.9577 9.9668 13.9583 10 13.9583V12.7083C9.9829 12.7083 9.9659 12.708 9.949 12.7073L9.9006 13.9564ZM11.0417 10.6515C11.0417 11.0813 11.0367 11.2896 10.9802 11.4803 10.931 11.646 10.826 11.8449 10.5179 12.1651L11.4188 13.0317C11.8091 12.626 12.0532 12.2584 12.1786 11.8358 12.2966 11.4379 12.2917 11.0358 12.2917 10.6515H11.0417ZM10.0994 13.9564C10.1317 13.9552 10.2446 13.9536 10.377 13.9074 10.5004 13.8644 10.6028 13.7976 10.6894 13.7311 10.8523 13.606 11.0745 13.3897 11.4188 13.0317L10.5179 12.1651C10.164 12.5331 10.0045 12.6809 9.9279 12.7398 9.8947 12.7653 9.9128 12.7454 9.9657 12.727 10.0276 12.7055 10.0838 12.7061 10.051 12.7073L10.0994 13.9564ZM7.7083 10.6515C7.7083 11.0358 7.7034 11.4379 7.8214 11.8358 7.9468 12.2584 8.1909 12.626 8.5813 13.0317L9.4821 12.1651C9.174 11.8449 9.069 11.646 9.0198 11.4803 8.9633 11.2896 8.9583 11.0813 8.9583 10.6515H7.7083ZM9.949 12.7073C9.9162 12.7061 9.9724 12.7055 10.0343 12.727 10.0872 12.7454 10.1053 12.7653 10.0721 12.7398 9.9955 12.6809 9.836 12.5331 9.4821 12.1651L8.5813 13.0317C8.9255 13.3897 9.1478 13.606 9.3106 13.7311 9.3972 13.7976 9.4996 13.8644 9.623 13.9074 9.7554 13.9536 9.8683 13.9552 9.9006 13.9564L9.949 12.7073Z" fill="currentColor"/>
  <path d="M8.3333 11.6667C5.6303 12.4388 4.2788 12.8247 3.4551 13.8198 3.3753 13.9163 3.2998 14.0163 3.229 14.1194 2.5971 15.0404 2.5116 16.2156 2.5 18.3333M11.6667 11.6667C14.3697 12.4388 15.7212 12.8247 16.5449 13.8198 16.6248 13.9163 16.7002 14.0163 16.771 14.1194 17.4029 15.0404 17.4884 16.2156 17.5 18.3333" stroke="currentColor" stroke-linecap="round" stroke-width="2"/>
  <path d="M10 13.3333V16.6667" stroke="currentColor" stroke-linecap="round" stroke-width="2"/>
  <path d="M6.6667 5H13.3333" stroke="currentColor" stroke-linecap="round" stroke-linejoin="round" stroke-width="2"/>
</svg>
