<svg xmlns="http://www.w3.org/2000/svg" width="20" height="20" viewBox="0 0 20 20" fill="none">
  <path d="M16.2463 8.4217C17.5302 12.9398 15.7743 17.3093 12.3245 18.1809 8.8748 19.0526 5.0375 16.0965 3.7537 11.5783 2.4699 7.0601 4.2257 2.6908 7.6755 1.8191 11.1253 0.9474 14.9626 3.9035 16.2463 8.4217Z" stroke="currentColor" stroke-linejoin="round" stroke-width="2"/>
  <path d="M11.0989 13.2854L9.5833 5.8333 13.4586 12.3117C13.6797 12.6813 13.7903 12.8662 13.7367 13.0442 13.6831 13.2223 13.488 13.3181 13.098 13.5099L12.3403 13.8824C11.8727 14.1123 11.6389 14.2273 11.4458 14.1344 11.2528 14.0415 11.2014 13.7895 11.0989 13.2854Z" stroke="currentColor" stroke-linecap="round" stroke-linejoin="round" stroke-width="2"/>
  <circle cx="7.083333333333334" cy="9.166666666666668" r="0.8333333333333334" stroke="currentColor" stroke-linecap="round" stroke-linejoin="round" stroke-width="2"/>
</svg>
