<svg xmlns="http://www.w3.org/2000/svg" width="20" height="20" viewBox="0 0 20 20" fill="none">
  <path d="M14.2742 8.2788L12.9661 5.6168C11.6719 2.9831 11.0247 1.6662 10 1.6662 8.9753 1.6662 8.3281 2.9831 7.0339 5.6168L5.7258 8.2788C5.1892 9.3708 4.9209 9.9168 5.0205 10.4709 5.1201 11.0251 5.5609 11.4391 6.4426 12.2673L7.7507 13.4958C8.818 14.4983 9.3517 14.9996 10 14.9996 10.6483 14.9996 11.182 14.4983 12.2493 13.4958L13.5574 12.2673C14.4391 11.4391 14.8799 11.0251 14.9795 10.4709 15.0791 9.9168 14.8108 9.3708 14.2742 8.2788Z" stroke="currentColor" stroke-linecap="round" stroke-linejoin="round" stroke-width="2"/>
  <path d="M14.2742 11.6122C14.8108 12.7042 15.0791 13.2502 14.9795 13.8043 14.8799 14.3584 14.4391 14.7724 13.5574 15.6006L12.2493 16.8292C11.182 17.8317 10.6483 18.3329 10 18.3329 9.3517 18.3329 8.818 17.8317 7.7507 16.8292L6.4426 15.6006C5.5609 14.7724 5.1201 14.3584 5.0205 13.8043 4.9209 13.2502 5.1892 12.7042 5.7258 11.6122" stroke="currentColor" stroke-linecap="round" stroke-linejoin="round" stroke-width="2"/>
  <path d="M13.75 7.9167L10 11.6667 6.25 7.9167" stroke="currentColor" stroke-linecap="round" stroke-linejoin="round" stroke-width="2"/>
</svg>
