<svg xmlns="http://www.w3.org/2000/svg" width="20" height="20" viewBox="0 0 20 20" fill="none">
  <path d="M4.2155 9.7851C5.8143 9.9817 7.2759 8.7946 7.4802 7.1335 7.6845 5.4724 5.7824 3.8715 6.4733 1.6667 3.054 2.1621 1.8755 4.9176 1.6905 6.4214 1.4862 8.0825 2.6167 9.5885 4.2155 9.7851Z" stroke="currentColor" stroke-linejoin="round" stroke-width="2"/>
  <path d="M5.8333 16.6667C4.2295 12.7702 3.9749 9.3284 4.2773 6.6667" stroke="currentColor" stroke-linecap="round" stroke-linejoin="round" stroke-width="2"/>
  <path d="M7.9232 14.7234C8.9023 16.7168 11.2672 17.2666 13.2052 15.9513 15.1433 14.6359 15.4482 10.9915 18.3333 9.7209 15.2545 6.3104 11.4143 7.5416 9.6597 8.7324 7.7216 10.0478 6.9441 12.73 7.9232 14.7234Z" stroke="currentColor" stroke-linejoin="round" stroke-width="2"/>
  <path d="M5 18.3333C6.9815 14.9203 9.387 12.8583 11.6667 11.6667" stroke="currentColor" stroke-linecap="round" stroke-linejoin="round" stroke-width="2"/>
</svg>
