<svg xmlns="http://www.w3.org/2000/svg" width="20" height="20" viewBox="0 0 20 20" fill="none">
  <path d="M13.0898 6.9421C13.8756 7.7207 12.6185 14.0523 11.3285 14.1639 10.2464 14.2575 9.9092 12.1232 9.6813 11.4468 9.4563 10.7791 9.206 10.5388 8.5439 10.3197 6.8618 9.7632 6.0207 9.485 5.8542 9.0444 5.4133 7.8778 12.0863 5.9478 13.0898 6.9421Z" stroke="currentColor" stroke-width="2"/>
  <path d="M18.3333 10C18.3333 14.6023 14.6023 18.3333 10 18.3333 5.3976 18.3333 1.6667 14.6023 1.6667 10 1.6667 5.3976 5.3976 1.6667 10 1.6667 14.6023 1.6667 18.3333 5.3976 18.3333 10Z" stroke="currentColor" stroke-width="2"/>
</svg>
