<svg xmlns="http://www.w3.org/2000/svg" width="20" height="20" viewBox="0 0 20 20" fill="none">
  <path d="M2.5 2.5L17.5 17.5" stroke="currentColor" stroke-linecap="round" stroke-linejoin="round" stroke-width="2"/>
  <path d="M9.3134 5.1467L13.1961 3.5771C15.5087 2.6423 16.6649 2.1748 17.2451 2.755 17.8252 3.3351 17.3577 4.4914 16.4228 6.804L14.8532 10.6866M6.3465 6.3465C3.7915 7.3832 2.5131 7.9537 2.5002 8.7158 2.4984 8.8205 2.5099 8.9248 2.5343 9.0266 2.7262 9.8244 4.3009 10.0868 7.4504 10.6118 8.2099 10.7383 8.5897 10.8017 8.8563 11.0378 8.8938 11.071 8.9292 11.1064 8.9623 11.1438 9.1985 11.4104 9.2618 11.7902 9.3883 12.5497 9.9132 15.6991 10.1758 17.2738 10.9735 17.4657 11.0752 17.4901 11.1797 17.5016 11.2843 17.4998 12.0464 17.4869 12.6169 16.2085 13.6536 13.6536" stroke="currentColor" stroke-linecap="round" stroke-linejoin="round" stroke-width="2"/>
</svg>
