<svg xmlns="http://www.w3.org/2000/svg" width="20" height="20" viewBox="0 0 20 20" fill="none">
  <path d="M11.6667 10C11.6667 10.9205 10.9205 11.6667 10 11.6667 9.0795 11.6667 8.3333 10.9205 8.3333 10 8.3333 9.0795 9.0795 8.3333 10 8.3333 10.9205 8.3333 11.6667 9.0795 11.6667 10Z" stroke="currentColor" stroke-width="2"/>
  <path d="M1.6668 10.042C1.6385 9.1789 5.3787 7.1495 5.731 7.5523 6.1305 8.0091 5.1754 9.3664 4.9603 9.7987 4.8309 10.0586 4.8345 10.1713 4.9815 10.431 5.6477 11.6069 5.9782 12.1928 5.7728 12.446 5.4454 12.8498 1.6945 10.8842 1.6668 10.042Z" stroke="currentColor" stroke-width="2"/>
  <path d="M9.958 18.3331C10.8211 18.3614 12.8505 14.6212 12.4478 14.2689 11.9909 13.8694 10.6336 14.8245 10.2013 15.0397 9.9414 15.169 9.8287 15.1654 9.569 15.0183 8.3931 14.3522 7.8072 14.0218 7.554 14.2271 7.1503 14.5544 9.1158 18.3054 9.958 18.3331Z" stroke="currentColor" stroke-width="2"/>
  <path d="M18.3332 10.042C18.3615 9.1789 14.6213 7.1495 14.269 7.5523 13.8695 8.0091 14.8246 9.3664 15.0397 9.7987 15.1691 10.0586 15.1656 10.1713 15.0184 10.431 14.3522 11.6069 14.0218 12.1928 14.2272 12.446 14.5546 12.8498 18.3056 10.8842 18.3332 10.042Z" stroke="currentColor" stroke-width="2"/>
  <path d="M9.958 1.6667C10.8211 1.6384 12.8505 5.3786 12.4478 5.7309 11.9909 6.1304 10.6336 5.1753 10.2013 4.9602 9.9414 4.8308 9.8287 4.8343 9.569 4.9814 8.3931 5.6476 7.8072 5.9781 7.554 5.7727 7.1503 5.4453 9.1158 1.6944 9.958 1.6667Z" stroke="currentColor" stroke-width="2"/>
</svg>
