<svg xmlns="http://www.w3.org/2000/svg" width="20" height="20" viewBox="0 0 20 20" fill="none">
  <path d="M8.4066 4.2399C8.9662 3.0799 9.3961 2.5 10 2.5 10.8514 2.5 11.3569 3.6528 12.3678 5.9583L14.1194 9.9528M7.1219 7.1219L4.9035 12.1809C3.6094 15.1321 2.9624 16.6077 3.5542 17.2 3.6297 17.2755 3.7147 17.3415 3.8073 17.3963 4.5335 17.8265 5.8817 16.8948 8.578 15.0316 9.2282 14.5823 9.5533 14.3576 9.9223 14.3359 9.9741 14.3329 10.026 14.3329 10.0778 14.3359 10.4468 14.3576 10.7719 14.5823 11.4222 15.0316 14.1183 16.8948 15.4665 17.8264 16.1927 17.3962 16.2853 17.3414 16.3703 17.2754 16.4458 17.1999 16.5781 17.0675 16.6485 16.8909 16.6636 16.6636" stroke="currentColor" stroke-linecap="round" stroke-linejoin="round" stroke-width="2"/>
  <path d="M2.5 2.5L17.5 17.5" stroke="currentColor" stroke-linecap="round" stroke-linejoin="round" stroke-width="2"/>
</svg>
