<svg xmlns="http://www.w3.org/2000/svg" width="20" height="20" viewBox="0 0 20 20" fill="none">
  <path d="M18.3333 10C18.3333 14.6023 14.6023 18.3333 10 18.3333 5.3976 18.3333 1.6667 14.6023 1.6667 10 1.6667 5.3976 5.3976 1.6667 10 1.6667 14.6023 1.6667 18.3333 5.3976 18.3333 10Z" stroke="currentColor" stroke-linecap="round" stroke-linejoin="round" stroke-width="2"/>
  <path d="M11.4108 6.2305L9.1338 7.1681C8.4468 7.451 8.1034 7.5924 7.8479 7.8479 7.5924 8.1034 7.451 8.4468 7.1681 9.1338L6.2305 11.4108C5.5273 13.1187 5.1757 13.9726 5.6015 14.3985 6.0274 14.8243 6.8814 14.4728 8.5892 13.7695L10.8663 12.8318C11.5532 12.5491 11.8966 12.4077 12.1521 12.1521 12.4077 11.8966 12.5491 11.5532 12.8318 10.8663L13.7695 8.5892C14.4728 6.8814 14.8243 6.0274 14.3985 5.6015 13.9726 5.1757 13.1187 5.5273 11.4108 6.2305Z" stroke="currentColor" stroke-linecap="round" stroke-linejoin="round" stroke-width="2"/>
  <path d="M10 10V10.0083" stroke="currentColor" stroke-linecap="round" stroke-linejoin="round" stroke-width="2"/>
</svg>
