<svg xmlns="http://www.w3.org/2000/svg" width="20" height="20" viewBox="0 0 20 20" fill="none">
  <path d="M1.6668 9.958C1.6412 10.8211 5.0263 12.8505 5.3451 12.4478 5.9615 11.5802 6.0163 8.4232 5.383 7.554 5.0867 7.1503 1.6918 9.1158 1.6668 9.958Z" stroke="currentColor" stroke-width="2"/>
  <path d="M9.958 18.3331C10.8211 18.3587 12.8505 14.9736 12.4478 14.6547 11.5802 14.0384 8.4232 13.9836 7.554 14.6169 7.1503 14.9133 9.1158 18.3081 9.958 18.3331Z" stroke="currentColor" stroke-width="2"/>
  <path d="M18.3332 9.958C18.3588 10.8211 14.9737 12.8506 14.6548 12.4478 14.0385 11.5802 13.9838 8.4233 14.617 7.554 14.9133 7.1503 18.3082 9.1158 18.3332 9.958Z" stroke="currentColor" stroke-width="2"/>
  <path d="M9.958 1.6667C10.8211 1.6411 12.8505 5.0262 12.4478 5.345 11.5802 5.9614 8.4232 6.0162 7.554 5.3829 7.1503 5.0866 9.1158 1.6917 9.958 1.6667Z" stroke="currentColor" stroke-width="2"/>
  <circle cx="10" cy="10" r="1.6666666666666667" stroke="currentColor" stroke-width="2"/>
</svg>
