<svg xmlns="http://www.w3.org/2000/svg" width="20" height="20" viewBox="0 0 20 20" fill="none">
  <path d="M9.935 3.9917C13.9136 2.6354 15.9028 1.9572 16.9728 3.0272 18.0428 4.0971 17.3646 6.0864 16.0083 10.065L15.0847 12.7743C14.0431 15.8298 13.5223 17.3576 12.6637 17.484 12.4329 17.518 12.194 17.4976 11.9656 17.4243 11.1162 17.1516 10.6673 15.5408 9.7693 12.3192 9.5701 11.6046 9.4705 11.2473 9.2437 10.9743 9.1778 10.8952 9.1048 10.8222 9.0257 10.7563 8.7528 10.5295 8.3954 10.4299 7.6809 10.2308 4.4593 9.3327 2.8485 8.8838 2.5758 8.0344 2.5024 7.806 2.482 7.5671 2.516 7.3363 2.6424 6.4778 4.1702 5.9569 7.2257 4.9153L9.935 3.9917Z" stroke="currentColor" stroke-width="2"/>
</svg>
