<svg xmlns="http://www.w3.org/2000/svg" width="20" height="20" viewBox="0 0 20 20" fill="none">
  <path d="M13.1961 3.5771L6.9544 6.1004C3.9942 7.2971 2.5141 7.8954 2.5002 8.7158 2.4984 8.8205 2.5099 8.9248 2.5343 9.0266 2.7262 9.8244 4.3009 10.0868 7.4504 10.6118 8.2099 10.7383 8.5897 10.8017 8.8563 11.0378 8.8938 11.071 8.9292 11.1064 8.9623 11.1438 9.1985 11.4104 9.2618 11.7902 9.3883 12.5497 9.9132 15.6991 10.1758 17.2738 10.9735 17.4657 11.0752 17.4901 11.1797 17.5016 11.2843 17.4998 12.1047 17.4859 12.7029 16.0058 13.8996 13.0457L16.4228 6.804C17.3577 4.4914 17.8252 3.3351 17.2451 2.755 16.6649 2.1748 15.5087 2.6423 13.1961 3.5771Z" stroke="currentColor" stroke-linejoin="round" stroke-width="2"/>
</svg>
