<svg xmlns="http://www.w3.org/2000/svg" width="20" height="20" viewBox="0 0 20 20" fill="none">
  <path d="M8.785 10.0002L9.1104 7.3968C9.1863 6.7902 9.4621 6.6669 10.035 6.6669 10.6079 6.6669 10.8837 6.7902 10.9596 7.3968L11.285 10.0002" stroke="currentColor" stroke-linecap="round" stroke-width="2"/>
  <path d="M6.9037 10.5098C8.0163 9.8336 8.9875 10.1061 9.5708 10.5402 9.8101 10.7182 9.9297 10.8071 10 10.8071 10.0704 10.8071 10.19 10.7182 10.4293 10.5402 11.0126 10.1061 11.9838 9.8336 13.0964 10.5098 14.5567 11.3973 14.8871 14.3248 11.5188 16.7948 10.8773 17.2653 10.5565 17.5004 10 17.5004 9.4436 17.5004 9.1228 17.2653 8.4813 16.7948 5.113 14.3248 5.4434 11.3973 6.9037 10.5098Z" stroke="currentColor" stroke-linecap="round" stroke-width="2"/>
  <path d="M1.6716 2.5002C1.5905 3.8149 2.4807 6.7028 6.7112 8.0517M18.3284 2.5002C18.4095 3.8149 17.5192 6.7028 13.2888 8.0517" stroke="currentColor" stroke-linecap="round" stroke-linejoin="round" stroke-width="2"/>
</svg>
