<svg xmlns="http://www.w3.org/2000/svg" width="20" height="20" viewBox="0 0 20 20" fill="none">
  <circle cx="10" cy="10" r="8.333333333333334" stroke="currentColor" stroke-linecap="round" stroke-linejoin="round" stroke-width="2"/>
  <path d="M6.6667 12.5C7.4268 13.512 8.6369 14.1667 10 14.1667 11.3631 14.1667 12.5732 13.512 13.3333 12.5" stroke="currentColor" stroke-linecap="round" stroke-linejoin="round" stroke-width="2"/>
  <path d="M8.3333 7.5C8.3333 8.4205 7.5871 9.1667 6.6667 9.1667 5.7462 9.1667 5 8.4205 5 7.5 5 6.5795 5.7462 5.8333 6.6667 5.8333 7.5871 5.8333 8.3333 6.5795 8.3333 7.5ZM8.3333 7.5C8.8002 7.0332 9.3036 6.6667 10 6.6667 10.6964 6.6667 11.1998 7.0332 11.6667 7.5M17.5 6.6667H14.777M5.223 6.6667H2.5M11.6667 7.5C11.6667 8.4205 12.4128 9.1667 13.3333 9.1667 14.2538 9.1667 15 8.4205 15 7.5 15 6.5795 14.2538 5.8333 13.3333 5.8333 12.4128 5.8333 11.6667 6.5795 11.6667 7.5Z" stroke="currentColor" stroke-linecap="round" stroke-linejoin="round" stroke-width="2"/>
</svg>
