<svg xmlns="http://www.w3.org/2000/svg" width="20" height="20" viewBox="0 0 20 20" fill="none">
  <path d="M17.9167 10C17.9167 11.1506 16.9839 12.0833 15.8333 12.0833 14.6828 12.0833 13.75 11.1506 13.75 10 13.75 8.8494 14.6828 7.9167 15.8333 7.9167 16.9839 7.9167 17.9167 8.8494 17.9167 10Z" stroke="currentColor" stroke-width="2"/>
  <path d="M11.25 3.3333C11.25 4.0237 10.6903 4.5833 10 4.5833 9.3097 4.5833 8.75 4.0237 8.75 3.3333 8.75 2.643 9.3097 2.0833 10 2.0833 10.6903 2.0833 11.25 2.643 11.25 3.3333Z" stroke="currentColor" stroke-width="2"/>
  <path d="M10.4167 9.5833C10.4167 10.2737 9.857 10.8333 9.1667 10.8333 8.4763 10.8333 7.9167 10.2737 7.9167 9.5833 7.9167 8.893 8.4763 8.3333 9.1667 8.3333 9.857 8.3333 10.4167 8.893 10.4167 9.5833Z" stroke="currentColor" stroke-width="2"/>
  <path d="M5.4167 6.25C5.4167 7.1705 4.6705 7.9167 3.75 7.9167 2.8295 7.9167 2.0833 7.1705 2.0833 6.25 2.0833 5.3295 2.8295 4.5833 3.75 4.5833 4.6705 4.5833 5.4167 5.3295 5.4167 6.25Z" stroke="currentColor" stroke-width="2"/>
  <path d="M8.75 16.25C8.75 17.1705 8.0038 17.9167 7.0833 17.9167 6.1629 17.9167 5.4167 17.1705 5.4167 16.25 5.4167 15.3295 6.1629 14.5833 7.0833 14.5833 8.0038 14.5833 8.75 15.3295 8.75 16.25Z" stroke="currentColor" stroke-width="2"/>
  <path d="M11.25 4.1667L14.5833 8.3333M12.0833 12.9167L8.75 15.4167M6.6667 14.5833L4.1667 7.9167M5.2608 5.5453L8.75 3.75M10.4167 9.5833L13.7542 9.8703" stroke="currentColor" stroke-linecap="round" stroke-linejoin="round" stroke-width="2"/>
  <path d="M10 4.5833L9.1667 8.3333" stroke="currentColor" stroke-linecap="round" stroke-linejoin="round" stroke-width="2"/>
</svg>
