<svg xmlns="http://www.w3.org/2000/svg" width="20" height="20" viewBox="0 0 20 20" fill="none">
  <path d="M9.5953 1.7444C9.8554 1.6408 10.1446 1.6408 10.4047 1.7444 11.2434 2.0784 11.4073 3.3645 12.3968 3.4361 13.0937 3.4866 13.7775 2.9056 14.4768 3.0798 14.7588 3.15 15.0023 3.3298 15.155 3.5805 15.6227 4.3485 15.0191 5.4774 15.7819 6.1147 16.3119 6.5573 17.1876 6.5 17.6483 7.0426 17.8423 7.2711 17.9377 7.5692 17.9128 7.8697 17.839 8.7638 16.6991 9.323 16.9496 10.2866 17.1229 10.9536 17.8544 11.4225 17.9128 12.1303 17.9377 12.4308 17.8423 12.7289 17.6483 12.9574 17.0693 13.6391 15.8173 13.4146 15.4563 14.3385 15.2028 14.987 15.5283 15.8064 15.155 16.4195 15.0023 16.6702 14.7588 16.85 14.4768 16.9203 13.6085 17.1364 12.7273 16.2038 11.8918 16.7298 11.2952 17.1053 11.0815 17.9863 10.4047 18.2556 10.1446 18.3592 9.8554 18.3592 9.5953 18.2556 8.9185 17.9863 8.7048 17.1053 8.1082 16.7298 7.2831 16.2103 6.3768 17.1328 5.5233 16.9203 5.2412 16.85 4.9977 16.6702 4.845 16.4195 4.3774 15.6515 4.9809 14.5225 4.2181 13.8852 3.6882 13.4427 2.8125 13.5 2.3517 12.9574 2.1577 12.7289 2.0624 12.4308 2.0872 12.1303 2.1457 11.4225 2.877 10.9536 3.0504 10.2866 3.2984 9.3331 2.16 8.7508 2.0872 7.8697 2.0624 7.5692 2.1577 7.2711 2.3517 7.0426 2.9306 6.3607 4.1825 6.5854 4.5437 5.6615 4.7972 5.013 4.4717 4.1936 4.845 3.5805 4.9977 3.3298 5.2412 3.15 5.5233 3.0798 6.2225 2.9056 6.9063 3.4866 7.6032 3.4361 8.5928 3.3646 8.7566 2.0784 9.5953 1.7444Z" stroke="currentColor" stroke-linejoin="round" stroke-width="2"/>
  <path d="M7.5 11.1111C7.5 11.1111 8.2292 11.1111 8.9583 12.5 8.9583 12.5 11.2745 9.0277 13.3333 8.3333" stroke="currentColor" stroke-linecap="round" stroke-linejoin="round" stroke-width="2"/>
</svg>
