<svg xmlns="http://www.w3.org/2000/svg" width="20" height="20" viewBox="0 0 20 20" fill="none">
  <path d="M8.75 6.6667H15.4167M8.75 10H10.8333M15.4167 10H13.3333M8.75 13.3333H10.8333M15.4167 13.3333H13.3333" stroke="currentColor" stroke-linecap="round" stroke-linejoin="round" stroke-width="2"/>
  <path d="M5.8333 6.25H5C3.4286 6.25 2.643 6.25 2.1548 6.7382 1.6667 7.2263 1.6667 8.012 1.6667 9.5833V15C1.6667 16.1506 2.5994 17.0833 3.75 17.0833 4.9006 17.0833 5.8333 16.1506 5.8333 15V6.25Z" stroke="currentColor" stroke-linecap="round" stroke-linejoin="round" stroke-width="2"/>
  <path d="M13.3333 2.9167H9.1667C8.3917 2.9167 8.0042 2.9167 7.6863 3.0019 6.8236 3.233 6.1497 3.9069 5.9185 4.7696 5.8333 5.0875 5.8333 5.475 5.8333 6.25V15C5.8333 16.1506 4.9006 17.0833 3.75 17.0833H13.3333C15.6903 17.0833 16.8688 17.0833 17.6011 16.3511 18.3333 15.6188 18.3333 14.4403 18.3333 12.0833V7.9167C18.3333 5.5596 18.3333 4.3811 17.6011 3.6489 16.8688 2.9167 15.6903 2.9167 13.3333 2.9167Z" stroke="currentColor" stroke-linecap="round" stroke-linejoin="round" stroke-width="2"/>
</svg>
