<svg xmlns="http://www.w3.org/2000/svg" width="20" height="20" viewBox="0 0 20 20" fill="none">
  <path d="M2.0834 10C2.0834 6.268 2.0834 4.4021 3.2428 3.2427 4.4022 2.0833 6.2682 2.0833 10.0001 2.0833 13.7321 2.0833 15.598 2.0833 16.7574 3.2427 17.9168 4.4021 17.9168 6.268 17.9168 10 17.9168 13.7319 17.9168 15.5979 16.7574 16.7573 15.598 17.9167 13.7321 17.9167 10.0001 17.9167 6.2682 17.9167 4.4022 17.9167 3.2428 16.7573 2.0834 15.5979 2.0834 13.7319 2.0834 10Z" stroke="currentColor" stroke-linecap="round" stroke-linejoin="round" stroke-width="2"/>
  <path d="M5.8334 14.1667L9.3281 10.6721M14.1668 5.8333L10.6722 9.3279M10.6722 9.3279L8.1483 5.8333H5.8334L9.3281 10.6721M10.6722 9.3279L14.1668 14.1667H11.8519L9.3281 10.6721" stroke="currentColor" stroke-linecap="round" stroke-linejoin="round" stroke-width="2"/>
</svg>
