<svg xmlns="http://www.w3.org/2000/svg" width="20" height="20" viewBox="0 0 20 20" fill="none">
  <path d="M13.2793 10.5215C13.0672 11.5312 11.9392 12.2564 9.6832 13.7068 7.2294 15.2843 6.0025 16.073 5.0088 15.7691 4.6722 15.6662 4.3622 15.4853 4.1019 15.2397 3.3333 14.5148 3.3333 13.0098 3.3333 10 3.3333 6.9901 3.3333 5.4852 4.1019 4.7603 4.3622 4.5148 4.6722 4.3338 5.0088 4.2309 6.0025 3.927 7.2294 4.7157 9.6832 6.2932 11.9392 7.7436 13.0672 8.4688 13.2793 9.4785 13.3513 9.8221 13.3513 10.1779 13.2793 10.5215Z" stroke="currentColor" stroke-linejoin="round" stroke-width="2"/>
  <path d="M16.6667 4.1667V15.8333" stroke="currentColor" stroke-linecap="round" stroke-width="2"/>
</svg>
