<svg xmlns="http://www.w3.org/2000/svg" width="20" height="20" viewBox="0 0 20 20" fill="none">
  <path d="M13.3333 16.25H6.6667C4.3096 16.25 3.1311 16.25 2.3989 15.4655 1.6667 14.6809 1.6667 13.4183 1.6667 10.8928V9.1072C1.6667 6.5818 1.6667 5.3191 2.3989 4.5345 3.1311 3.75 4.3096 3.75 6.6667 3.75H13.3333C15.6903 3.75 16.8688 3.75 17.6011 4.5345 18.3333 5.3191 18.3333 6.5818 18.3333 9.1072V10.8928C18.3333 13.4183 18.3333 14.6809 17.6011 15.4655 16.8688 16.25 15.6903 16.25 13.3333 16.25Z" stroke="currentColor" stroke-linecap="round" stroke-linejoin="round" stroke-width="2"/>
  <path d="M14.1667 3.75V16.25" stroke="currentColor" stroke-linecap="round" stroke-width="2"/>
  <path d="M5.8333 3.75V16.25" stroke="currentColor" stroke-linecap="round" stroke-width="2"/>
  <path d="M3.8542 7.0833H3.75M3.9583 7.0833C3.9583 7.1984 3.8651 7.2917 3.75 7.2917 3.6349 7.2917 3.5417 7.1984 3.5417 7.0833 3.5417 6.9683 3.6349 6.875 3.75 6.875 3.8651 6.875 3.9583 6.9683 3.9583 7.0833Z" stroke="currentColor" stroke-linecap="round" stroke-width="2"/>
  <path d="M16.3542 12.9167H16.25M16.4583 12.9167C16.4583 13.0318 16.3651 13.125 16.25 13.125 16.1349 13.125 16.0417 13.0318 16.0417 12.9167 16.0417 12.8016 16.1349 12.7083 16.25 12.7083 16.3651 12.7083 16.4583 12.8016 16.4583 12.9167Z" stroke="currentColor" stroke-linecap="round" stroke-width="2"/>
</svg>
