<svg xmlns="http://www.w3.org/2000/svg" width="20" height="20" viewBox="0 0 20 20" fill="none">
  <path d="M4.5825 6.6601V10.4063M4.5825 10.4063V11.6551C4.5825 14.0097 4.5825 15.1871 5.3146 15.9186 6.0021 16.6057 7.0833 16.6475 9.1646 16.65M4.5825 10.4063H9.1646" stroke="currentColor" stroke-linecap="round" stroke-linejoin="round" stroke-width="2"/>
  <path d="M3.3329 1.665H5.8322C7.3444 1.665 7.4984 2.5891 7.4984 4.1626 7.4984 5.7361 7.3444 6.6601 5.8322 6.6601H3.3329C1.8206 6.6601 1.6667 5.7361 1.6667 4.1626 1.6667 2.5891 1.8206 1.665 3.3329 1.665Z" stroke="currentColor" stroke-width="2"/>
  <path d="M9.165 10.4069C9.165 9.622 9.165 9.2296 9.4091 8.9857 9.6531 8.7418 10.0457 8.7418 10.8313 8.7418 11.6167 8.7418 12.0094 8.7418 12.2534 8.9857 12.4974 9.2296 12.4974 9.622 12.4974 10.4069 12.4974 11.1918 12.4974 11.5843 12.2534 11.8281 12.0094 12.0719 11.6167 12.0719 10.8313 12.0719 10.0457 12.0719 9.6531 12.0719 9.4091 11.8281 9.165 11.5843 9.165 11.1918 9.165 10.4069Z" stroke="currentColor" stroke-width="2"/>
  <path d="M9.165 16.6503C9.165 15.8655 9.165 15.473 9.4091 15.2292 9.6531 14.9853 10.0457 14.9853 10.8313 14.9853 11.6167 14.9853 12.0094 14.9853 12.2534 15.2292 12.4974 15.473 12.4974 15.8655 12.4974 16.6503 12.4974 17.4352 12.4974 17.8277 12.2534 18.0715 12.0094 18.3154 11.6167 18.3154 10.8313 18.3154 10.0457 18.3154 9.6531 18.3154 9.4091 18.0715 9.165 17.8277 9.165 17.4352 9.165 16.6503Z" stroke="currentColor" stroke-width="2"/>
  <path d="M14.9902 16.7216L16.1592 18.0276C16.5213 18.3793 16.7403 18.4423 17.0317 18.1473L18.3338 16.7318M16.6729 18.3212V11.5533C16.6589 11.1033 16.3594 10.0829 15.0086 9.9805" stroke="currentColor" stroke-linecap="round" stroke-linejoin="round" stroke-width="2"/>
</svg>
