<svg xmlns="http://www.w3.org/2000/svg" width="20" height="20" viewBox="0 0 20 20" fill="none">
  <path d="M10.8333 16.25H10C7.643 16.25 6.4645 16.25 5.7322 15.5178 5 14.7855 5 13.607 5 11.25V9.5833M5 9.5833V6.6667M5 9.5833H9.5833" stroke="currentColor" stroke-linecap="round" stroke-linejoin="round" stroke-width="2"/>
  <path d="M10.8333 16.25C10.8333 15.2679 10.8333 14.7768 11.1263 14.4718 11.4191 14.1667 11.8905 14.1667 12.8333 14.1667H13.8333C14.7762 14.1667 15.2476 14.1667 15.5404 14.4718 15.8333 14.7768 15.8333 15.2679 15.8333 16.25 15.8333 17.2321 15.8333 17.7232 15.5404 18.0282 15.2476 18.3333 14.7762 18.3333 13.8333 18.3333H12.8333C11.8905 18.3333 11.4191 18.3333 11.1263 18.0282 10.8333 17.7232 10.8333 17.2321 10.8333 16.25Z" stroke="currentColor" stroke-width="2"/>
  <path d="M3.5714 1.6667H6.4286C8.1573 1.6667 8.3333 2.5916 8.3333 4.1667 8.3333 5.7417 8.1573 6.6667 6.4286 6.6667H3.5714C1.8427 6.6667 1.6667 5.7417 1.6667 4.1667 1.6667 2.5916 1.8427 1.6667 3.5714 1.6667Z" stroke="currentColor" stroke-width="2"/>
  <path d="M17.5048 4.487L18.0117 4.9918C18.4405 5.419 18.4405 6.1115 18.0118 6.5386L15.3562 9.2332C15.1473 9.4413 14.8801 9.5816 14.5898 9.6356L12.9439 9.9915C12.6841 10.0477 12.4527 9.8178 12.5083 9.5588L12.8587 7.929C12.9129 7.6398 13.0538 7.3736 13.2626 7.1656L15.9519 4.487C16.3808 4.0599 17.076 4.0599 17.5048 4.487Z" stroke="currentColor" stroke-linecap="round" stroke-linejoin="round" stroke-width="2"/>
</svg>
