<svg xmlns="http://www.w3.org/2000/svg" width="20" height="20" viewBox="0 0 20 20" fill="none">
  <path d="M11.25 16.25H10.4167C8.0596 16.25 6.8811 16.25 6.1489 15.5178 5.4167 14.7855 5.4167 13.607 5.4167 11.25V9.5833M5.4167 7.5V9.5833M5.4167 9.5833H11.25" stroke="currentColor" stroke-linecap="round" stroke-linejoin="round" stroke-width="2"/>
  <path d="M11.25 9.5833C11.25 8.6013 11.25 8.1102 11.5429 7.8051 11.8358 7.5 12.3072 7.5 13.25 7.5H14.25C15.1928 7.5 15.6643 7.5 15.9571 7.8051 16.25 8.1102 16.25 8.6013 16.25 9.5833 16.25 10.5654 16.25 11.0565 15.9571 11.3616 15.6643 11.6667 15.1928 11.6667 14.25 11.6667H13.25C12.3072 11.6667 11.8358 11.6667 11.5429 11.3616 11.25 11.0565 11.25 10.5654 11.25 9.5833Z" stroke="currentColor" stroke-width="2"/>
  <path d="M11.25 16.25C11.25 15.2679 11.25 14.7768 11.5429 14.4718 11.8358 14.1667 12.3072 14.1667 13.25 14.1667H14.25C15.1928 14.1667 15.6643 14.1667 15.9571 14.4718 16.25 14.7768 16.25 15.2679 16.25 16.25 16.25 17.2321 16.25 17.7232 15.9571 18.0282 15.6643 18.3333 15.1928 18.3333 14.25 18.3333H13.25C12.3072 18.3333 11.8358 18.3333 11.5429 18.0282 11.25 17.7232 11.25 17.2321 11.25 16.25Z" stroke="currentColor" stroke-width="2"/>
  <path d="M7.5 1.6667L5.4167 3.75M5.4167 3.75L3.3333 5.8333M5.4167 3.75L7.5 5.8333M5.4167 3.75L3.3333 1.6667" stroke="currentColor" stroke-linecap="round" stroke-linejoin="round" stroke-width="2"/>
</svg>
