<svg xmlns="http://www.w3.org/2000/svg" width="20" height="20" viewBox="0 0 20 20" fill="none">
  <path d="M4.5801 6.6667V10.4167M4.5801 10.4167V11.6667C4.5801 14.0237 4.5801 15.2022 5.3118 15.9344 5.999 16.6222 7.0796 16.664 9.16 16.6665M4.5801 10.4167H9.16" stroke="currentColor" stroke-linecap="round" stroke-linejoin="round" stroke-width="2"/>
  <path d="M9.1593 10.4167C9.1593 9.631 9.1593 9.2382 9.4032 8.9941 9.6472 8.75 10.0397 8.75 10.8247 8.75 11.6098 8.75 12.0023 8.75 12.2462 8.9941 12.4902 9.2382 12.4902 9.631 12.4902 10.4167 12.4902 11.2023 12.4902 11.5952 12.2462 11.8393 12.0023 12.0833 11.6098 12.0833 10.8247 12.0833 10.0397 12.0833 9.6472 12.0833 9.4032 11.8393 9.1593 11.5952 9.1593 11.2023 9.1593 10.4167Z" stroke="currentColor" stroke-width="2"/>
  <path d="M9.1593 16.6667C9.1593 15.881 9.1593 15.4882 9.4032 15.2441 9.6472 15 10.0397 15 10.8247 15 11.6098 15 12.0023 15 12.2462 15.2441 12.4902 15.4882 12.4902 15.881 12.4902 16.6667 12.4902 17.4523 12.4902 17.8452 12.2462 18.0892 12.0023 18.3333 11.6098 18.3333 10.8247 18.3333 10.0397 18.3333 9.6472 18.3333 9.4032 18.0892 9.1593 17.8452 9.1593 17.4523 9.1593 16.6667Z" stroke="currentColor" stroke-width="2"/>
  <path d="M3.3304 1.6667H5.8286C7.3401 1.6667 7.494 2.5916 7.494 4.1667 7.494 5.7417 7.3401 6.6667 5.8286 6.6667H3.3304C1.8189 6.6667 1.665 5.7417 1.665 4.1667 1.665 2.5916 1.8189 1.6667 3.3304 1.6667Z" stroke="currentColor" stroke-width="2"/>
  <path d="M14.9944 9.2408L16.2063 7.7637C16.4052 7.5417 16.5465 7.4996 16.67 7.5034M16.67 7.5034C16.7918 7.5071 16.9073 7.5559 17.0815 7.7637L18.336 9.2503M16.67 7.5034L16.6511 14.3853C16.7102 15.114 16.6099 16.5237 14.987 16.6738" stroke="currentColor" stroke-linecap="round" stroke-linejoin="round" stroke-width="2"/>
</svg>
