<svg xmlns="http://www.w3.org/2000/svg" width="20" height="20" viewBox="0 0 20 20" fill="none">
  <path d="M4.1667 4.1667C2.6239 5.6666 1.6667 7.7568 1.6667 10.0687 1.6667 14.6332 5.3976 18.3333 10 18.3333 12.2713 18.3333 14.3302 17.4323 15.8333 15.9708" stroke="currentColor" stroke-width="2"/>
  <path d="M12.9167 13.3333C12.4023 16.2765 11.3669 18.3333 10 18.3333 8.1591 18.3333 6.6667 14.6023 6.6667 10 6.6667 8.9739 6.7409 7.9911 6.8765 7.0833" stroke="currentColor" stroke-linecap="round" stroke-width="2"/>
  <path d="M1.6667 10H10" stroke="currentColor" stroke-linecap="round" stroke-linejoin="round" stroke-width="2"/>
  <path d="M5.9684 1.9981C5.6602 2.1537 5.5365 2.5296 5.6921 2.8377 5.8476 3.1459 6.2235 3.2696 6.5316 3.114L5.9684 1.9981ZM16.8856 13.4682C16.73 13.7764 16.8537 14.1523 17.1618 14.3079 17.4699 14.4635 17.8458 14.3398 18.0014 14.0318L16.8856 13.4682ZM13.3333 10H12.7083C12.7083 10.3452 12.9882 10.625 13.3333 10.625V10ZM6.9188 3.9385C6.7928 4.2599 6.9512 4.6225 7.2725 4.7485 7.5939 4.8745 7.9566 4.7162 8.0826 4.3948L6.9188 3.9385ZM10 2.2917C14.2572 2.2917 17.7083 5.7428 17.7083 10H18.9583C18.9583 5.0525 14.9476 1.0417 10 1.0417V2.2917ZM6.5316 3.114C7.5734 2.5882 8.7512 2.2917 10 2.2917V1.0417C8.5511 1.0417 7.1809 1.3861 5.9684 1.9981L6.5316 3.114ZM17.7083 10C17.7083 11.2488 17.4117 12.4265 16.8856 13.4682L18.0014 14.0318C18.6136 12.8193 18.9583 11.4491 18.9583 10H17.7083ZM10 2.2917C10.233 2.2917 10.5183 2.4072 10.8434 2.751 11.1698 3.0961 11.4926 3.6291 11.7767 4.3396 12.3437 5.757 12.7083 7.758 12.7083 10H13.9583C13.9583 7.6397 13.5768 5.474 12.9373 3.8753 12.6182 3.0777 12.2227 2.3903 11.7516 1.8921 11.2792 1.3925 10.6875 1.0417 10 1.0417V2.2917ZM8.0826 4.3948C8.3621 3.6821 8.7121 3.1371 9.0693 2.7803 9.4301 2.4199 9.7541 2.2917 10 2.2917V1.0417C9.3135 1.0417 8.6903 1.392 8.1859 1.8959 7.6777 2.4035 7.2444 3.1084 6.9188 3.9385L8.0826 4.3948ZM13.3333 10.625H18.3333V9.375H13.3333V10.625Z" fill="currentColor"/>
  <path d="M1.6667 1.6667L18.3337 18.3337" stroke="currentColor" stroke-linecap="round" stroke-linejoin="round" stroke-width="2"/>
</svg>
