<svg xmlns="http://www.w3.org/2000/svg" width="20" height="20" viewBox="0 0 20 20" fill="none">
  <path d="M1.6669 1.6667L18.3335 18.3333" stroke="currentColor" stroke-linecap="round" stroke-linejoin="round" stroke-width="2"/>
  <path d="M10.0004 17.5H6.6671C4.7029 17.5 3.7208 17.5 3.1106 16.8898 2.5004 16.2796 2.5004 15.2975 2.5004 13.3333V6.6667C2.5004 4.7025 2.5004 3.7204 3.1106 3.1102M10.0004 17.5C11.9646 17.5 12.9467 17.5 13.5569 16.8898 14.0742 16.3725 14.1529 15.588 14.1649 14.1645M10.0004 17.5H14.1671C15.7384 17.5 16.5241 17.5 17.0123 17.0118M17.5004 14.1645V8.3333C17.5004 6.762 17.5004 5.9763 17.0123 5.4882 16.5241 5 15.7384 5 14.1671 5M14.1671 10.9258V6.6667C14.1671 4.7025 14.1671 3.7204 13.5569 3.1102 12.9467 2.5 11.9646 2.5 10.0004 2.5H6.6671C6.3319 2.5 6.0253 2.5 5.7443 2.503" stroke="currentColor" stroke-linecap="round" stroke-linejoin="round" stroke-width="2"/>
</svg>
