<svg xmlns="http://www.w3.org/2000/svg" width="20" height="20" viewBox="0 0 20 20" fill="none">
  <path d="M10.8333 18.3337H9.1667M13.75 2.991C14.698 3.0843 15.3361 3.295 15.8124 3.7713 16.4165 4.3755 16.5934 5.24 16.6453 6.6671M6.25 2.991C5.302 3.0843 4.6639 3.295 4.1876 3.7713 3.5835 4.3755 3.4066 5.24 3.3548 6.6671M16.6667 10.0004V11.6671M3.3333 10.0004V11.6671M16.6253 15.0004C16.5532 16.1833 16.3553 16.9365 15.8124 17.4794 15.4095 17.8823 14.8908 18.0953 14.1667 18.2077M3.3747 15.0004C3.4468 16.1833 3.6447 16.9365 4.1876 17.4794 4.5905 17.8823 5.1092 18.0953 5.8333 18.2077" stroke="currentColor" stroke-linecap="round" stroke-linejoin="round" stroke-width="2"/>
  <path d="M13.75 1.667V4.1671M6.25 1.667V4.1671M10 1.667V4.1671" stroke="currentColor" stroke-linecap="round" stroke-linejoin="round" stroke-width="2"/>
  <path d="M6.6667 12.5004H10M6.6667 9.1671H13.3333" stroke="currentColor" stroke-linecap="round" stroke-linejoin="round" stroke-width="2"/>
</svg>
