<svg xmlns="http://www.w3.org/2000/svg" width="20" height="20" viewBox="0 0 20 20" fill="none">
  <path d="M18.3333 11.6667V8.3333C18.3333 5.1906 18.3333 3.6193 17.357 2.643 16.3808 1.6667 14.8093 1.6667 11.6667 1.6667H10C6.8573 1.6667 5.286 1.6667 4.3096 2.643 3.3333 3.6193 3.3333 5.1906 3.3333 8.3333V11.6667C3.3333 14.8093 3.3333 16.3808 4.3096 17.357 5.286 18.3333 6.8573 18.3333 10 18.3333H11.6667C14.8093 18.3333 16.3808 18.3333 17.357 17.357 18.3333 16.3808 18.3333 14.8093 18.3333 11.6667Z" stroke="currentColor" stroke-width="2"/>
  <path d="M9.8214 8.3333H12.6786C13.5765 8.3333 14.0254 8.3333 14.3044 8.0893 14.5833 7.8452 14.5833 7.4523 14.5833 6.6667 14.5833 5.881 14.5833 5.4882 14.3044 5.2441 14.0254 5 13.5765 5 12.6786 5H9.8214C8.9235 5 8.4746 5 8.1956 5.2441 7.9167 5.4882 7.9167 5.881 7.9167 6.6667 7.9167 7.4523 7.9167 7.8452 8.1956 8.0893 8.4746 8.3333 8.9235 8.3333 9.8214 8.3333Z" stroke="currentColor" stroke-width="2"/>
  <path d="M4.1667 5L1.6667 5M4.1667 10H1.6667M4.1667 15H1.6667" stroke="currentColor" stroke-linecap="round" stroke-linejoin="round" stroke-width="2"/>
</svg>
