<svg xmlns="http://www.w3.org/2000/svg" width="20" height="20" viewBox="0 0 20 20" fill="none">
  <path d="M16.2691 16.2691C15.3397 17.2301 12.8837 17.9167 10 17.9167 6.3181 17.9167 3.3333 16.7974 3.3333 15.4167 3.3333 14.0359 6.3181 12.9167 10 12.9167 11.1714 12.9167 12.2723 13.03 13.2289 13.2289" stroke="currentColor" stroke-linecap="round" stroke-linejoin="round" stroke-width="2"/>
  <path d="M10.8333 15.4167H9.1667" stroke="currentColor" stroke-linecap="round" stroke-linejoin="round" stroke-width="2"/>
  <path d="M1.6667 1.6667L18.3333 18.3333" stroke="currentColor" stroke-linecap="round" stroke-linejoin="round" stroke-width="2"/>
  <path d="M3.3333 15.4176L4.7092 6.6117C4.7897 6.0963 4.9421 5.6076 5.1552 5.1552M6.619 3.2856C7.5465 2.5304 8.7275 2.0833 10 2.0833 12.6383 2.0833 14.8836 4.005 15.2908 6.6117L16.2808 12.9474" stroke="currentColor" stroke-linecap="round" stroke-linejoin="round" stroke-width="2"/>
</svg>
