<svg xmlns="http://www.w3.org/2000/svg" width="20" height="20" viewBox="0 0 20 20" fill="none">
  <path d="M9.5833 2.9167H8.75C5.6073 2.9167 4.036 2.9167 3.0596 3.893 2.0833 4.8693 2.0833 6.4406 2.0833 9.5833V11.25C2.0833 14.3927 2.0833 15.9641 3.0596 16.9403 4.036 17.9167 5.6073 17.9167 8.75 17.9167L10.4167 17.9167C13.5593 17.9167 15.1308 17.9167 16.107 16.9403 17.0833 15.9641 17.0833 14.3927 17.0833 11.25V10.4167" stroke="currentColor" stroke-linecap="round" stroke-linejoin="round" stroke-width="2"/>
  <path d="M17.9167 5C17.9167 6.6108 16.6108 7.9167 15 7.9167 13.3892 7.9167 12.0833 6.6108 12.0833 5 12.0833 3.3892 13.3892 2.0833 15 2.0833 16.6108 2.0833 17.9167 3.3892 17.9167 5Z" stroke="currentColor" stroke-linecap="round" stroke-linejoin="round" stroke-width="2"/>
  <path d="M6.25 10.4167H9.5833" stroke="currentColor" stroke-linecap="round" stroke-linejoin="round" stroke-width="2"/>
  <path d="M6.25 13.75H12.9167" stroke="currentColor" stroke-linecap="round" stroke-linejoin="round" stroke-width="2"/>
</svg>
