<svg xmlns="http://www.w3.org/2000/svg" width="20" height="20" viewBox="0 0 20 20" fill="none">
  <path d="M2.0833 10C2.0833 6.268 2.0833 4.4021 3.2427 3.2427 4.4021 2.0833 6.268 2.0833 10 2.0833 13.7319 2.0833 15.5979 2.0833 16.7573 3.2427 17.9167 4.4021 17.9167 6.268 17.9167 10 17.9167 13.7319 17.9167 15.5979 16.7573 16.7573 15.5979 17.9167 13.7319 17.9167 10 17.9167 6.268 17.9167 4.4021 17.9167 3.2427 16.7573 2.0833 15.5979 2.0833 13.7319 2.0833 10Z" stroke="currentColor" stroke-linejoin="round" stroke-width="2"/>
  <path d="M7.0238 8.3333L11.2663 13.6637C11.43 13.8693 11.5835 14.0639 11.8466 14.1366 11.9555 14.1667 12.0735 14.1667 12.3095 14.1667 12.5429 14.1667 12.6596 14.1667 12.7487 14.1212 12.9912 13.9977 12.9762 13.7368 12.9762 13.5V11.1905M7.0238 8.3333V5.8333M7.0238 8.3333V14.1667M7.0238 5.8333H7.942C8.3389 5.8333 8.5373 5.8333 8.7095 5.9168 8.8818 6.0003 9.0047 6.1561 9.2505 6.4677L12.9762 11.1905M7.0238 5.8333H5.8333M7.0238 14.1667H5.8333M7.0238 14.1667H8.3333M12.9762 5.8333V11.1905M12.9762 5.8333H11.6667M12.9762 5.8333H14.1667" stroke="currentColor" stroke-linecap="round" stroke-linejoin="round" stroke-width="2"/>
</svg>
