<svg xmlns="http://www.w3.org/2000/svg" width="20" height="20" viewBox="0 0 20 20" fill="none">
  <path d="M18.3333 4.5833C18.3333 6.1942 17.0275 7.5 15.4167 7.5 13.8058 7.5 12.5 6.1942 12.5 4.5833 12.5 2.9725 13.8058 1.6667 15.4167 1.6667 17.0275 1.6667 18.3333 2.9725 18.3333 4.5833Z" stroke="currentColor" stroke-width="2"/>
  <path d="M18.2922 9.1667C18.3194 9.4408 18.3333 9.7188 18.3333 10 18.3333 14.6023 14.6023 18.3333 10 18.3333 5.3976 18.3333 1.6667 14.6023 1.6667 10 1.6667 5.3976 5.3976 1.6667 10 1.6667 10.2813 1.6667 10.5593 1.6806 10.8333 1.7078" stroke="currentColor" stroke-linecap="round" stroke-width="2"/>
  <path d="M6.6667 8.3333H10" stroke="currentColor" stroke-linecap="round" stroke-linejoin="round" stroke-width="2"/>
  <path d="M6.6667 12.5H13.3333" stroke="currentColor" stroke-linecap="round" stroke-linejoin="round" stroke-width="2"/>
</svg>
