<svg xmlns="http://www.w3.org/2000/svg" width="20" height="20" viewBox="0 0 20 20" fill="none">
  <path d="M12.9167 15.4167C12.9167 17.0275 11.6108 18.3333 10 18.3333 8.3892 18.3333 7.0833 17.0275 7.0833 15.4167" stroke="currentColor" stroke-linecap="round" stroke-linejoin="round" stroke-width="2"/>
  <path d="M15.8333 9.5833V10.6298C15.8333 11.2928 16.0968 11.9288 16.5656 12.3976L17.0682 12.9002C17.3447 13.1768 17.5 13.5517 17.5 13.9426 17.5 14.7567 16.84 15.4167 16.0259 15.4167H3.9741C3.16 15.4167 2.5 14.7567 2.5 13.9426 2.5 13.5517 2.6553 13.1768 2.9317 12.9002L3.4344 12.3976C3.9033 11.9288 4.1667 11.2928 4.1667 10.6298V8.3333C4.1667 5.1117 6.7783 2.5 10 2.5" stroke="currentColor" stroke-linecap="round" stroke-linejoin="round" stroke-width="2"/>
  <path d="M12.9167 2.9167L16.25 6.25M17.5 4.5833C17.5 2.9725 16.1942 1.6667 14.5833 1.6667 12.9725 1.6667 11.6667 2.9725 11.6667 4.5833 11.6667 6.1942 12.9725 7.5 14.5833 7.5 16.1942 7.5 17.5 6.1942 17.5 4.5833Z" stroke="currentColor" stroke-linecap="round" stroke-linejoin="round" stroke-width="2"/>
</svg>
