<svg xmlns="http://www.w3.org/2000/svg" width="20" height="20" viewBox="0 0 20 20" fill="none">
  <path d="M12.9167 15C12.9167 16.6108 11.6108 17.9167 10 17.9167 8.3892 17.9167 7.0833 16.6108 7.0833 15" stroke="currentColor" stroke-linecap="round" stroke-linejoin="round" stroke-width="2"/>
  <path d="M16.0259 15H3.9741C3.16 15 2.5 14.34 2.5 13.5259 2.5 13.135 2.6553 12.7601 2.9317 12.4836L3.4344 11.9809C3.9033 11.5121 4.1667 10.8762 4.1667 10.2132V7.9167C4.1667 4.695 6.7783 2.0833 10 2.0833 13.2217 2.0833 15.8333 4.695 15.8333 7.9167V10.2132C15.8333 10.8762 16.0968 11.5121 16.5656 11.9809L17.0682 12.4836C17.3447 12.7601 17.5 13.135 17.5 13.5259 17.5 14.34 16.84 15 16.0259 15Z" stroke="currentColor" stroke-linecap="round" stroke-linejoin="round" stroke-width="2"/>
</svg>
