<svg xmlns="http://www.w3.org/2000/svg" width="20" height="20" viewBox="0 0 20 20" fill="none">
  <path d="M16.6667 15.8343L15.6249 9.1667M3.3333 15.8343L4.7092 7.0284C5.1164 4.4217 7.3617 2.5 10 2.5" stroke="currentColor" stroke-linecap="round" stroke-linejoin="round" stroke-width="2"/>
  <path d="M16.6667 15.8333C16.6667 14.4526 13.6819 13.3333 10 13.3333 6.3181 13.3333 3.3333 14.4526 3.3333 15.8333 3.3333 17.2141 6.3181 18.3333 10 18.3333 13.6819 18.3333 16.6667 17.2141 16.6667 15.8333Z" stroke="currentColor" stroke-linecap="round" stroke-linejoin="round" stroke-width="2"/>
  <path d="M10.8333 15.8333H9.1667" stroke="currentColor" stroke-linecap="round" stroke-linejoin="round" stroke-width="2"/>
  <path d="M12.5133 1.6667H15.5737C16.2176 1.6667 16.5395 1.6667 16.6253 1.8668 16.711 2.0669 16.4919 2.3069 16.0538 2.787L13.2058 5.5464C12.7677 6.0264 12.4276 6.2665 12.5133 6.4666 12.5991 6.6667 13.042 6.6667 13.6858 6.6667H16.6667" stroke="currentColor" stroke-linecap="round" stroke-linejoin="round" stroke-width="2"/>
</svg>
