<svg xmlns="http://www.w3.org/2000/svg" width="20" height="20" viewBox="0 0 20 20" fill="none">
  <path d="M16.25 15.8343L15.2733 9.5833M2.9167 15.8343L4.2925 7.0284C4.6998 4.4217 6.945 2.5 9.5833 2.5" stroke="currentColor" stroke-linecap="round" stroke-linejoin="round" stroke-width="2"/>
  <path d="M16.25 15.8333C16.25 14.4526 13.2652 13.3333 9.5833 13.3333 5.9014 13.3333 2.9167 14.4526 2.9167 15.8333 2.9167 17.2141 5.9014 18.3333 9.5833 18.3333 13.2652 18.3333 16.25 17.2141 16.25 15.8333Z" stroke="currentColor" stroke-linecap="round" stroke-linejoin="round" stroke-width="2"/>
  <path d="M10.4167 15.8333H8.75" stroke="currentColor" stroke-linecap="round" stroke-linejoin="round" stroke-width="2"/>
  <path d="M12.5 2.9167L15.8333 6.25M17.0833 4.5833C17.0833 2.9725 15.7775 1.6667 14.1667 1.6667 12.5558 1.6667 11.25 2.9725 11.25 4.5833 11.25 6.1942 12.5558 7.5 14.1667 7.5 15.7775 7.5 17.0833 6.1942 17.0833 4.5833Z" stroke="currentColor" stroke-linecap="round" stroke-linejoin="round" stroke-width="2"/>
</svg>
