<svg xmlns="http://www.w3.org/2000/svg" width="20" height="20" viewBox="0 0 20 20" fill="none">
  <path d="M18.3333 5.8333H11.3448C10.3165 5.8333 9.9708 5.9498 9.7158 6.9699L7.7826 14.7013C7.3246 16.5332 7.0955 17.4491 6.4873 17.498 5.8791 17.547 5.4586 16.6833 4.6175 14.956L4.1418 13.979C3.7795 13.235 3.5984 12.863 3.2321 12.7622 2.6809 12.6106 2.0903 13.0586 1.6667 13.3333" stroke="currentColor" stroke-linecap="round" stroke-linejoin="round" stroke-width="2"/>
  <path d="M2.5 7.5V4.6429M2.5 4.6429C2.5 3.4594 3.4327 2.5 4.5833 2.5 5.7339 2.5 6.6667 3.4594 6.6667 4.6429V7.5M2.5 4.6429V2.5" stroke="currentColor" stroke-linecap="round" stroke-linejoin="round" stroke-width="2"/>
</svg>
