<svg xmlns="http://www.w3.org/2000/svg" width="20" height="20" viewBox="0 0 20 20" fill="none">
  <path d="M10 18.3333C14.6023 18.3333 18.3333 14.6023 18.3333 10 18.3333 5.3976 14.6023 1.6667 10 1.6667 5.3976 1.6667 1.6667 5.3976 1.6667 10 1.6667 14.6023 5.3976 18.3333 10 18.3333Z" stroke="currentColor" stroke-width="2"/>
  <path d="M14.5873 7.0713L10.2114 7.0713C9.5308 7.0713 9.5703 7.1993 9.4362 7.8861L8.3454 12.0946C8.0687 13.2013 7.7409 12.8927 7.7409 12.8927 7.441 12.7927 7.3949 12.6748 6.8868 11.6312L6.5451 10.8952C6.3262 10.4457 6.0518 10.4987 5.9016 10.5666 5.9016 10.5666 5.671 10.6505 5.415 10.8165M10.8308 9.5883C11.1808 9.5768 11.5536 9.5578 11.7413 9.9365 12.0274 10.5135 12.4578 11.5108 12.6261 11.8858 12.7103 12.0301 12.9735 12.0752 12.9735 12.0752 13.1979 12.104 13.4507 12.0946 13.4507 12.0946M13.6106 9.5883C12.9054 9.5883 12.4897 10.4012 12.0948 10.8952 11.5871 11.6508 11.2165 12.0752 10.6702 12.0946" stroke="currentColor" stroke-linecap="round" stroke-linejoin="round" stroke-width="2"/>
</svg>
