<svg xmlns="http://www.w3.org/2000/svg" width="20" height="20" viewBox="0 0 20 20" fill="none">
  <path d="M5.8333 8.7658V7.128M5.8333 7.128C5.8845 6.4421 6.3969 5.8333 7.092 5.8333 7.9119 5.8333 8.2825 6.6095 8.3383 7.128V8.7658M5.8333 7.128V5.8333" stroke="currentColor" stroke-linecap="round" stroke-linejoin="round" stroke-width="2"/>
  <path d="M5.8252 12.095C6.2116 11.8824 6.5502 11.8058 6.7175 11.95 6.8848 12.0942 7.241 12.7545 7.3867 13.0096 7.6098 13.4 7.8664 14.1807 8.3125 14.1807 8.6137 14.1807 8.8556 13.3653 9.2494 12.3962 9.8493 10.9198 10.5203 9.051 10.6213 8.8827 10.7887 8.6038 10.956 8.325 11.4021 8.325 11.9041 8.325 14.1906 8.325 14.1906 8.325" stroke="currentColor" stroke-linecap="round" stroke-width="2"/>
  <path d="M2.0833 10C2.0833 6.268 2.0833 4.4021 3.2427 3.2427 4.4021 2.0833 6.268 2.0833 10 2.0833 13.7319 2.0833 15.5979 2.0833 16.7573 3.2427 17.9167 4.4021 17.9167 6.268 17.9167 10 17.9167 13.7319 17.9167 15.5979 16.7573 16.7573 15.5979 17.9167 13.7319 17.9167 10 17.9167 6.268 17.9167 4.4021 17.9167 3.2427 16.7573 2.0833 15.5979 2.0833 13.7319 2.0833 10Z" stroke="currentColor" stroke-linejoin="round" stroke-width="2"/>
</svg>
