<svg xmlns="http://www.w3.org/2000/svg" width="20" height="20" viewBox="0 0 20 20" fill="none">
  <path d="M7.4144 5.0705C5.5357 5.6585 3.3049 7.1881 2.3864 8.8682 1.8619 9.6565 1.2409 11.48 2.0694 14.307 2.221 14.9607 2.5217 16.3774 2.3397 16.8218 2.7816 16.6388 4.19 16.9413 4.8397 17.0938 7.65 17.9273 9.4627 17.3026 10.2464 16.7749 11.9165 15.851 13.4371 13.6069 14.0217 11.717" stroke="currentColor" stroke-linecap="round" stroke-linejoin="round" stroke-width="2"/>
  <path d="M18.3342 4.0949C17.7953 3.7223 16.3001 3.2343 14.7499 4.4568M13.1707 3.407C10.9543 2.2179 9.1762 2.4049 8.201 2.8087 8.0432 2.874 7.8998 2.9747 7.7996 3.1136 7.0255 4.187 8.0088 5.8073 9.9129 8.129 10.2287 8.5142 10.581 8.8698 10.9633 9.1883 13.2169 11.0651 14.9675 12.1599 16.0457 11.3551 16.1634 11.2673 16.2523 11.1462 16.3139 11.0123 16.8474 9.8536 16.7494 7.9424 15.6636 5.9065 15.0987 4.8473 14.2253 3.9727 13.1707 3.407Z" stroke="currentColor" stroke-linecap="round" stroke-width="2"/>
</svg>
