<svg xmlns="http://www.w3.org/2000/svg" width="20" height="20" viewBox="0 0 20 20" fill="none">
  <path d="M5.843 5.8429C3.8314 6.9601 1.922 8.7457 1.7121 10.7929 1.399 13.8468 2.8275 15.2442 2.252 16.9146 3.9224 16.3391 5.3199 17.7677 8.3737 17.4545 10.4208 17.2446 12.2065 15.3352 13.3237 13.3236" stroke="currentColor" stroke-linecap="round" stroke-linejoin="round" stroke-width="2"/>
  <path d="M18.3333 3.7549C17.8232 3.3378 16.25 2.9167 14.3826 4.2805M7.6685 3.5018C7.7374 3.3821 7.8245 3.2703 7.9246 3.1703 7.9808 3.1141 8.0395 3.0614 8.1066 3.0188 9.0052 2.4487 11.8667 1.7546 14.6394 4.5273 17.4121 7.3 16.7179 10.1615 16.1479 11.0601 16.1053 11.1272 16.0526 11.1859 15.9963 11.2421 15.8963 11.3422 15.7846 11.4292 15.6648 11.4982" stroke="currentColor" stroke-linecap="round" stroke-linejoin="round" stroke-width="2"/>
  <path d="M1.6667 1.6667L18.3333 18.3333" stroke="currentColor" stroke-linecap="round" stroke-linejoin="round" stroke-width="2"/>
</svg>
