<svg xmlns="http://www.w3.org/2000/svg" width="20" height="20" viewBox="0 0 20 20" fill="none">
  <path d="M12.4999 7.5L7.5 12.5M7.5 7.5L12.4999 12.5" stroke="currentColor" stroke-linecap="round" stroke-linejoin="round" stroke-width="2"/>
  <path d="M10.5719 18.3333H9.4281C8.0656 18.3333 7.3843 18.3333 6.7718 18.0796 6.1592 17.8258 5.6775 17.3442 4.714 16.3808L3.6193 15.2859C2.6559 14.3225 2.1741 13.8408 1.9204 13.2283 1.6667 12.6157 1.6667 11.9344 1.6667 10.5719V9.4281C1.6667 8.0656 1.6667 7.3843 1.9204 6.7718 2.1741 6.1592 2.6559 5.6775 3.6193 4.714L4.714 3.6193C5.6775 2.6559 6.1592 2.1741 6.7718 1.9204 7.3843 1.6667 8.0656 1.6667 9.4281 1.6667H10.5719C11.9344 1.6667 12.6157 1.6667 13.2283 1.9204 13.8408 2.1741 14.3225 2.6559 15.2859 3.6193L16.3808 4.714C17.3442 5.6775 17.8258 6.1592 18.0796 6.7718 18.3333 7.3843 18.3333 8.0656 18.3333 9.4281V10.5719C18.3333 11.9344 18.3333 12.6157 18.0796 13.2283 17.8258 13.8408 17.3442 14.3225 16.3808 15.2859L15.2859 16.3808C14.3225 17.3442 13.8408 17.8258 13.2283 18.0796 12.6157 18.3333 11.9344 18.3333 10.5719 18.3333Z" stroke="currentColor" stroke-linecap="round" stroke-linejoin="round" stroke-width="2"/>
</svg>
