<svg xmlns="http://www.w3.org/2000/svg" width="20" height="20" viewBox="0 0 20 20" fill="none">
  <path d="M13.4104 10.8333C14.3591 10.0818 15 9.0411 15 7.8911 15 5.5993 12.4546 1.6667 10 1.6667 7.5454 1.6667 5 5.5993 5 7.8911 5 9.0411 5.6409 10.0818 6.5896 10.8333" stroke="currentColor" stroke-linecap="round" stroke-width="2"/>
  <path d="M11.25 11.6667C10.847 15 11.5831 16.4286 14.1667 18.3333M8.75 11.6667C9.153 15 8.4168 16.4286 5.8333 18.3333" stroke="currentColor" stroke-linecap="round" stroke-linejoin="round" stroke-width="2"/>
  <path d="M11.25 11.6667C12.0833 13.3333 14.2326 15.4167 15.8729 15.4167 17.5132 15.4167 18.3333 14.3907 18.3333 13.125 18.3333 11.8593 17.4153 10.8333 16.283 10.8333M8.75 11.6667C7.9167 13.3333 5.7674 15.4167 4.1271 15.4167 2.4868 15.4167 1.6667 14.3907 1.6667 13.125 1.6667 11.8593 2.5846 10.8333 3.717 10.8333" stroke="currentColor" stroke-linecap="round" stroke-linejoin="round" stroke-width="2"/>
  <path d="M8.4375 8.3333H8.3333M8.5417 8.3333C8.5417 8.4484 8.4484 8.5417 8.3333 8.5417 8.2183 8.5417 8.125 8.4484 8.125 8.3333 8.125 8.2183 8.2183 8.125 8.3333 8.125 8.4484 8.125 8.5417 8.2183 8.5417 8.3333Z" stroke="currentColor" stroke-linecap="round" stroke-width="2"/>
  <path d="M11.7708 8.3333H11.6667M11.875 8.3333C11.875 8.4484 11.7818 8.5417 11.6667 8.5417 11.5516 8.5417 11.4583 8.4484 11.4583 8.3333 11.4583 8.2183 11.5516 8.125 11.6667 8.125 11.7818 8.125 11.875 8.2183 11.875 8.3333Z" stroke="currentColor" stroke-linecap="round" stroke-width="2"/>
</svg>
