<svg xmlns="http://www.w3.org/2000/svg" width="20" height="20" viewBox="0 0 20 20" fill="none">
  <path d="M11.6667 18.3333V6.6667C11.6667 4.3096 11.6667 3.1311 10.9344 2.3989 10.2022 1.6667 9.0237 1.6667 6.6667 1.6667 4.3096 1.6667 3.1311 1.6667 2.3989 2.3989 1.6667 3.1311 1.6667 4.3096 1.6667 6.6667V13.3333C1.6667 15.6903 1.6667 16.8688 2.3989 17.6011 3.1311 18.3333 4.3096 18.3333 6.6667 18.3333H11.6667Z" stroke="currentColor" stroke-linecap="round" stroke-width="2"/>
  <path d="M5.4167 9.1667H4.5833M8.75 9.1667H7.9167M5.4167 5.8333H4.5833M5.4167 12.5H4.5833M8.75 5.8333H7.9167M8.75 12.5H7.9167" stroke="currentColor" stroke-linecap="round" stroke-width="2"/>
  <path d="M15.4167 12.5H14.5833M15.4167 9.1667H14.5833" stroke="currentColor" stroke-linecap="round" stroke-width="2"/>
  <path d="M15 6.6667H11.6667V18.3333H15C16.5713 18.3333 17.357 18.3333 17.8452 17.8452 18.3333 17.357 18.3333 16.5713 18.3333 15V10C18.3333 8.4287 18.3333 7.643 17.8452 7.1548 17.357 6.6667 16.5713 6.6667 15 6.6667Z" stroke="currentColor" stroke-linecap="round" stroke-width="2"/>
</svg>
