<svg xmlns="http://www.w3.org/2000/svg" width="20" height="20" viewBox="0 0 20 20" fill="none">
  <path d="M5.3125 18.3333V17.2638C5.3125 16.4014 5.1148 15.5508 4.7351 14.7793L4.4923 14.286C4.0041 13.2942 3.75 12.2005 3.75 11.0916V6.8254C3.75 6.1679 4.2747 5.6349 4.9219 5.6349 5.5691 5.6349 6.0938 6.1679 6.0938 6.8254M12.3438 18.3333C12.3438 17.9728 12.3431 17.6138 12.3438 17.2677 12.3455 16.3146 13.3402 15.8303 14.1537 15.3555 15.0832 14.8131 15.8286 13.9378 16.1723 12.884 16.3983 12.1911 15.7722 11.5881 15.0244 11.5881 14.2767 11.5881 13.6413 12.2419 13.0991 12.7425 13.0142 12.8209 12.9336 12.8822 12.8687 12.9237 11.8114 13.5975 10.4006 12.7866 10.4006 11.5881 10.4006 10.3897 11.8114 9.5788 12.8687 10.2526 13.132 10.3908 13.3492 10.5745 13.5228 10.7652 13.9165 11.1979 14.4362 11.5881 15.0303 11.5881 15.7918 11.5881 16.43 10.9745 16.2038 10.2677 15.6388 8.5028 13.9717 7.2239 12.0028 7.2239 11.1718 7.2239 10.7813 7.459 10.7813 7.459L12.5686 3.2893C12.8809 2.5152 12.3205 1.6667 11.497 1.6667 11.0583 1.6667 10.6573 1.9184 10.4612 2.317L8.4375 6.4286M8.4375 6.4286L8.0645 7.1864M8.4375 6.4286V3.6508C8.4375 2.9933 7.9128 2.4603 7.2656 2.4603 6.6184 2.4603 6.0938 2.9933 6.0938 3.6508V6.8254M6.0938 6.8254V9.6032" stroke="currentColor" stroke-linecap="round" stroke-linejoin="round" stroke-width="2"/>
</svg>
