<svg xmlns="http://www.w3.org/2000/svg" width="20" height="20" viewBox="0 0 20 20" fill="none">
  <path d="M8.3333 7.4554C8.3427 6.4333 8.7676 5.2672 9.7146 4.4774 12.0922 2.4946 17.7159 5.7967 17.3506 1.6667 20.4003 6.3679 15.398 6.5161 15.1793 8.1981 15.0553 9.1522 16.7993 9.6762 17.8072 8.8356 17.6038 9.5434 16.25 12.3381 12.5 11.5172" stroke="currentColor" stroke-linecap="round" stroke-linejoin="round" stroke-width="2"/>
  <path d="M7.462 10.023C6.5256 9.0866 6.6753 5.8333 6.6753 5.8333L14.1667 13.3247C14.1667 13.3247 10.9134 13.4732 9.977 12.5368" stroke="currentColor" stroke-linecap="round" stroke-linejoin="round" stroke-width="2"/>
  <path d="M6.7902 10L1.8731 16.6525C1.563 17.0722 1.6065 17.6556 1.9755 18.0246 2.3444 18.3935 2.9279 18.4371 3.3475 18.1269L10 13.2098" stroke="currentColor" stroke-linecap="round" stroke-linejoin="round" stroke-width="2"/>
  <path d="M5.8333 8.3333L11.6667 14.1667" stroke="currentColor" stroke-linecap="round" stroke-linejoin="round" stroke-width="2"/>
</svg>
