<svg xmlns="http://www.w3.org/2000/svg" width="20" height="20" viewBox="0 0 20 20" fill="none">
  <path d="M10.8333 4.1667H15M10.8333 6.6667H12.9167" stroke="currentColor" stroke-linecap="round" stroke-linejoin="round" stroke-width="2"/>
  <path d="M11.6667 13.3325V14.166C11.6667 16.1305 11.6667 17.1128 11.0565 17.723 10.4463 18.3333 9.4642 18.3333 7.5 18.3333H6.6667C4.7025 18.3333 3.7204 18.3333 3.1102 17.723 2.5 17.1128 2.5 16.1305 2.5 14.166V9.1652C2.5 7.2007 2.5 6.2184 3.1102 5.6081 3.6272 5.091 4.4112 5.0121 5.8333 5" stroke="currentColor" stroke-linecap="round" stroke-linejoin="round" stroke-width="2"/>
  <path d="M8.3333 5V5.8333C8.3333 7.4047 8.3333 8.1904 8.8215 8.6785 9.3097 9.1667 10.0953 9.1667 11.6667 9.1667V10.8333L14.1667 9.1667C15.738 9.1667 16.5237 9.1667 17.0118 8.6785 17.5 8.1904 17.5 7.4047 17.5 5.8333V5C17.5 3.4286 17.5 2.643 17.0118 2.1548 16.5237 1.6667 15.738 1.6667 14.1667 1.6667H11.6667C10.0953 1.6667 9.3097 1.6667 8.8215 2.1548 8.3333 2.643 8.3333 3.4286 8.3333 5Z" stroke="currentColor" stroke-linecap="round" stroke-linejoin="round" stroke-width="2"/>
  <path d="M7.1875 15.8333H7.0833M7.2917 15.8333C7.2917 15.9484 7.1984 16.0417 7.0833 16.0417 6.9683 16.0417 6.875 15.9484 6.875 15.8333 6.875 15.7182 6.9683 15.625 7.0833 15.625 7.1984 15.625 7.2917 15.7182 7.2917 15.8333Z" stroke="currentColor" stroke-linecap="round" stroke-linejoin="round" stroke-width="2"/>
</svg>
