<svg xmlns="http://www.w3.org/2000/svg" width="20" height="20" viewBox="0 0 20 20" fill="none">
  <path d="M5 5C4.0861 5.0456 3.5159 5.1818 3.1102 5.5883 2.5 6.1995 2.5 7.1833 2.5 9.1508V14.1595C2.5 16.1271 2.5 17.1108 3.1102 17.7221 3.7204 18.3333 4.7025 18.3333 6.6667 18.3333H7.5C9.4642 18.3333 10.4463 18.3333 11.0565 17.7221 11.6667 17.1108 11.6667 16.1271 11.6667 14.1595V12.5" stroke="currentColor" stroke-linecap="round" stroke-linejoin="round" stroke-width="2"/>
  <path d="M12.5 3.3333V9.5833M8.1469 1.7353C10.9817 1.3244 12.5 2.8922 12.5 2.8922 12.5 2.8922 14.0183 1.3244 16.8531 1.7353 17.2349 1.7907 17.5 2.1319 17.5 2.5177V7.9122C17.5 8.4506 16.9946 8.8434 16.4582 8.7977 13.8776 8.5775 12.5 10 12.5 10 12.5 10 11.1224 8.5775 8.5418 8.7977 8.0054 8.8434 7.5 8.4506 7.5 7.9122V2.5177C7.5 2.1319 7.7651 1.7907 8.1469 1.7353Z" stroke="currentColor" stroke-linecap="round" stroke-linejoin="round" stroke-width="2"/>
  <path d="M7.1875 15.8333H7.0833M7.2917 15.8333C7.2917 15.9484 7.1984 16.0417 7.0833 16.0417 6.9683 16.0417 6.875 15.9484 6.875 15.8333 6.875 15.7182 6.9683 15.625 7.0833 15.625 7.1984 15.625 7.2917 15.7182 7.2917 15.8333Z" stroke="currentColor" stroke-linecap="round" stroke-linejoin="round" stroke-width="2"/>
</svg>
