<svg xmlns="http://www.w3.org/2000/svg" width="20" height="20" viewBox="0 0 20 20" fill="none">
  <path d="M10 10V17.5C8.4738 16.1559 6.4948 15.4138 4.4444 15.4167 3.1428 15.4167 2.4919 15.4167 2.2044 15.2327 2.0318 15.1222 1.9612 15.0516 1.8507 14.8789 1.6667 14.5914 1.6667 14.0784 1.6667 13.0524V5.336C1.6667 4.1462 1.6667 3.5513 2.124 3.069 2.5812 2.5868 3.0494 2.5619 3.9856 2.5122 4.1375 2.5041 4.2905 2.5 4.4444 2.5" stroke="currentColor" stroke-linecap="round" stroke-linejoin="round" stroke-width="2"/>
  <path d="M10 10V17.5C11.5263 16.1559 13.5052 15.4138 15.5556 15.4167 16.8573 15.4167 17.5081 15.4167 17.7956 15.2327 17.9683 15.1222 18.0388 15.0516 18.1493 14.8789 18.3333 14.5914 18.3333 14.0784 18.3333 13.0524V5.336C18.3333 4.1462 18.3333 3.5513 17.8761 3.069 17.4187 2.5868 16.9507 2.5619 16.0144 2.5122 15.8625 2.5041 15.7095 2.5 15.5556 2.5" stroke="currentColor" stroke-linecap="round" stroke-linejoin="round" stroke-width="2"/>
  <path d="M6.6667 3.7047C6.6667 3.7047 7.9167 2.5 10.0038 2.5 12.0909 2.5 13.3333 3.7047 13.3333 3.7047M12.0833 5.8333C12.0833 5.8333 11.2576 4.9979 10.0038 4.9979 8.75 4.9979 7.9167 5.8333 7.9167 5.8333M10.0417 7.4167H10M10.0833 7.4167C10.0833 7.4627 10.046 7.5 10 7.5 9.954 7.5 9.9167 7.4627 9.9167 7.4167 9.9167 7.3707 9.954 7.3333 10 7.3333 10.046 7.3333 10.0833 7.3707 10.0833 7.4167Z" stroke="currentColor" stroke-linecap="round" stroke-linejoin="round" stroke-width="2"/>
</svg>
