<svg xmlns="http://www.w3.org/2000/svg" width="20" height="20" viewBox="0 0 20 20" fill="none">
  <path d="M1.6667 8.75C1.6667 5.9863 1.6667 4.6045 2.544 3.682 2.6843 3.5344 2.839 3.3979 3.0062 3.2741 4.0518 2.5 5.6178 2.5 8.75 2.5H11.25C14.3822 2.5 15.9482 2.5 16.9937 3.2741 17.161 3.3979 17.3157 3.5344 17.456 3.682 18.3333 4.6045 18.3333 5.9863 18.3333 8.75 18.3333 11.5137 18.3333 12.8955 17.456 13.8181 17.3157 13.9656 17.161 14.1021 16.9937 14.2259 15.9482 15 14.3822 15 11.25 15H8.75C5.6178 15 4.0518 15 3.0062 14.2259 2.839 14.1021 2.6843 13.9656 2.544 13.8181 1.6667 12.8955 1.6667 11.5137 1.6667 8.75Z" stroke="currentColor" stroke-linecap="round" stroke-width="2"/>
  <path d="M8.75 6.25H8.3333C7.5568 6.25 7.1685 6.25 6.8622 6.3769 6.4538 6.546 6.1294 6.8705 5.9602 7.2789 5.8333 7.5852 5.8333 7.9734 5.8333 8.75 5.8333 9.5266 5.8333 9.9148 5.9602 10.2212 6.1294 10.6295 6.4538 10.954 6.8622 11.1232 7.1685 11.25 7.5568 11.25 8.3333 11.25H8.75M14.1667 6.25H13.75C12.9734 6.25 12.5852 6.25 12.2788 6.3769 11.8705 6.546 11.546 6.8705 11.3768 7.2789 11.25 7.5852 11.25 7.9734 11.25 8.75 11.25 9.5266 11.25 9.9148 11.3768 10.2212 11.546 10.6295 11.8705 10.954 12.2788 11.1232 12.5852 11.25 12.9734 11.25 13.75 11.25H14.1667" stroke="currentColor" stroke-linecap="round" stroke-width="2"/>
  <path d="M1.6667 17.5H18.3333" stroke="currentColor" stroke-linecap="round" stroke-width="2"/>
</svg>
