<svg xmlns="http://www.w3.org/2000/svg" width="20" height="20" viewBox="0 0 20 20" fill="none">
  <path d="M11.6667 5.8333C11.6667 6.7538 10.9205 7.5 10 7.5 9.0795 7.5 8.3333 6.7538 8.3333 5.8333 8.3333 4.9129 9.0795 4.1667 10 4.1667 10.9205 4.1667 11.6667 4.9129 11.6667 5.8333Z" stroke="currentColor" stroke-linecap="round" stroke-width="2"/>
  <path d="M2.4699 13.5742C1.9549 12.491 1.6667 11.2792 1.6667 10 1.6667 5.3976 5.3976 1.6667 10 1.6667 14.6023 1.6667 18.3333 5.3976 18.3333 10 18.3333 14.6023 14.6023 18.3333 10 18.3333 8.8148 18.3333 7.6874 18.0859 6.6667 17.6399M2.4699 13.5742C1.9884 13.8663 1.6667 14.3956 1.6667 15 1.6667 15.9205 2.4129 16.6667 3.3333 16.6667 3.7685 16.6667 4.1648 16.4998 4.4616 16.2268 4.7926 15.9221 5 15.4853 5 15 5 14.0795 4.2538 13.3333 3.3333 13.3333 3.0172 13.3333 2.7217 13.4213 2.4699 13.5742Z" stroke="currentColor" stroke-linecap="round" stroke-width="2"/>
  <path d="M13.6069 12.0873C13.3126 11.8257 12.9248 11.6667 12.5 11.6667 11.5795 11.6667 10.8333 12.4128 10.8333 13.3333 10.8333 13.5889 10.8908 13.831 10.9937 14.0474M13.6069 12.0873C13.9503 12.3926 14.1667 12.8377 14.1667 13.3333 14.1667 14.2538 13.4205 15 12.5 15 11.8351 15 11.2611 14.6107 10.9937 14.0474M13.6069 12.0873C13.9629 11.4736 14.1667 10.7606 14.1667 10 14.1667 9.2411 13.9637 8.5295 13.6092 7.9167M10.9937 14.0474C10.6753 14.1253 10.3424 14.1667 10 14.1667 7.6988 14.1667 5.8333 12.3012 5.8333 10 5.8333 9.2411 6.0362 8.5295 6.3908 7.9167" stroke="currentColor" stroke-linecap="round" stroke-width="2"/>
</svg>
