<svg xmlns="http://www.w3.org/2000/svg" width="20" height="20" viewBox="0 0 20 20" fill="none">
  <path d="M14.1667 10C14.1667 12.3012 12.3012 14.1667 10 14.1667 7.6988 14.1667 5.8333 12.3012 5.8333 10 5.8333 7.6988 7.6988 5.8333 10 5.8333 12.3012 5.8333 14.1667 7.6988 14.1667 10Z" stroke="currentColor" stroke-linecap="round" stroke-width="2"/>
  <path d="M15.5384 3.7733C15.2074 4.0779 15 4.5147 15 5 15 5.9205 15.7462 6.6667 16.6667 6.6667 16.9828 6.6667 17.2782 6.5787 17.5301 6.4259 18.0116 6.1337 18.3333 5.6044 18.3333 5 18.3333 4.0795 17.5872 3.3333 16.6667 3.3333 16.2315 3.3333 15.8353 3.5001 15.5384 3.7733ZM15.5384 3.7733C14.0662 2.4628 12.1261 1.6667 10 1.6667 5.3976 1.6667 1.6667 5.3976 1.6667 10 1.6667 14.6023 5.3976 18.3333 10 18.3333 14.6023 18.3333 18.3333 14.6023 18.3333 10 18.3333 9.7188 18.3194 9.4408 18.2922 9.1667" stroke="currentColor" stroke-linecap="round" stroke-width="2"/>
</svg>
