<svg xmlns="http://www.w3.org/2000/svg" width="20" height="20" viewBox="0 0 20 20" fill="none">
  <path d="M8.3333 7.7127C6.3386 6.632 4.2338 4.7619 2.5 1.6667M9.6796 3.6825C7.9838 2.5696 5.9145 3.0347 5.0578 4.7214 4.2011 6.4081 4.8814 8.6776 6.5772 9.7905 8.1125 10.7981 11.4727 11.8399 14.1667 8.9542 11.6422 7.8791 11.3754 4.7954 9.6796 3.6825Z" stroke="currentColor" stroke-linecap="round" stroke-linejoin="round" stroke-width="2"/>
  <path d="M3.3333 9.1667C2.8008 9.5591 2.5 10.0045 2.5 10.4767 2.5 12.0543 5.8579 13.3333 10 13.3333 14.1422 13.3333 17.5 12.0543 17.5 10.4767 17.5 10.0045 17.1992 9.5591 16.6667 9.1667" stroke="currentColor" stroke-linecap="round" stroke-width="2"/>
  <path d="M17.5 10.8333C17.5 13.8138 15.4113 16.4289 13.1626 17.9018 12.7002 18.2048 12.1503 18.3333 11.5976 18.3333H8.4024C7.8497 18.3333 7.2998 18.2048 6.8374 17.9018 4.5887 16.4289 2.5 13.8138 2.5 10.8333" stroke="currentColor" stroke-linecap="round" stroke-width="2"/>
</svg>
