<svg xmlns="http://www.w3.org/2000/svg" width="20" height="20" viewBox="0 0 20 20" fill="none">
  <path d="M18.1568 16.4902L16.3973 14.7307C16.303 14.6363 16.1751 14.5833 16.0417 14.5833 15.9083 14.5833 15.7803 14.6363 15.686 14.7307L14.375 16.0417 12.5 14.1667" stroke="currentColor" stroke-linecap="round" stroke-linejoin="round" stroke-width="2"/>
  <path d="M1.6667 6.6667V10C1.6667 11.9642 1.6667 12.9463 2.2769 13.5565 2.8871 14.1667 3.8691 14.1667 5.8333 14.1667 7.7975 14.1667 8.7796 14.1667 9.3898 13.5565 10 12.9463 10 11.9642 10 10V6.6667C10 4.7025 10 3.7204 9.3898 3.1102 8.7796 2.5 7.7975 2.5 5.8333 2.5 3.8691 2.5 2.8871 2.5 2.2769 3.1102 1.6667 3.7204 1.6667 4.7025 1.6667 6.6667Z" stroke="currentColor" stroke-linecap="round" stroke-linejoin="round" stroke-width="2"/>
  <path d="M1.6667 10L3.872 7.7946C4.0607 7.606 4.3166 7.5 4.5833 7.5 4.8501 7.5 5.106 7.606 5.2946 7.7946L6.875 9.375 7.7693 8.4807C7.8637 8.3863 7.9916 8.3333 8.125 8.3333 8.2584 8.3333 8.3863 8.3863 8.4807 8.4807L10 10" stroke="currentColor" stroke-linecap="round" stroke-linejoin="round" stroke-width="2"/>
  <path d="M7.0833 5.4079V5.4163" stroke="currentColor" stroke-linecap="round" stroke-linejoin="round" stroke-width="2"/>
  <path d="M15 12.4918V12.5002" stroke="currentColor" stroke-linecap="round" stroke-linejoin="round" stroke-width="2"/>
  <path d="M12.5 10L14.1667 10C16.1308 10 17.1129 10 17.7232 10.6102 18.3333 11.2204 18.3333 12.2025 18.3333 14.1667 18.3333 16.1308 18.3333 17.1129 17.7232 17.7232 17.1129 18.3333 16.1308 18.3333 14.1667 18.3333H8.3333C7.4129 18.3333 6.6667 17.5872 6.6667 16.6667" stroke="currentColor" stroke-linecap="round" stroke-linejoin="round" stroke-width="2"/>
  <path d="M16.25 6.6667V6.25C16.25 4.6876 16.25 3.9064 15.8521 3.3588 15.7236 3.1819 15.5681 3.0264 15.3913 2.8979 14.8436 2.5 14.0624 2.5 12.5 2.5M18.3333 5.4167L16.25 7.5 14.1667 5.4167" stroke="currentColor" stroke-linecap="round" stroke-linejoin="round" stroke-width="2"/>
</svg>
