<svg xmlns="http://www.w3.org/2000/svg" width="20" height="20" viewBox="0 0 20 20" fill="none">
  <path d="M10 14.1667V7.5C10 5.5358 10 4.5537 9.3898 3.9435 8.7796 3.3333 7.7975 3.3333 5.8333 3.3333 3.8691 3.3333 2.8871 3.3333 2.2769 3.9435 1.6667 4.5537 1.6667 5.5358 1.6667 7.5V14.1667C1.6667 16.1308 1.6667 17.1129 2.2769 17.7232 2.8871 18.3333 3.8691 18.3333 5.8333 18.3333 7.7975 18.3333 8.7796 18.3333 9.3898 17.7232 10 17.1129 10 16.1308 10 14.1667Z" stroke="currentColor" stroke-linecap="round" stroke-linejoin="round" stroke-width="2"/>
  <path d="M12.5 18.3333C14.4642 18.3333 15.4462 18.3333 16.0565 17.7232 16.6667 17.1129 16.6667 16.1308 16.6667 14.1667 16.6667 12.2025 16.6667 11.2204 16.0565 10.6102 15.4462 10 14.4642 10 12.5 10" stroke="currentColor" stroke-linecap="round" stroke-linejoin="round" stroke-width="2"/>
  <path d="M18.3333 4.5833L16.25 6.6667 14.1667 4.5833M16.25 5.8333C16.25 3.8691 16.25 2.8871 15.6398 2.2769 15.0296 1.6667 14.0475 1.6667 12.0833 1.6667" stroke="currentColor" stroke-linecap="round" stroke-linejoin="round" stroke-width="2"/>
</svg>
