<svg xmlns="http://www.w3.org/2000/svg" width="20" height="20" viewBox="0 0 20 20" fill="none">
  <path d="M10 7.5C10 5.5358 10 4.5537 9.3898 3.9435 8.7796 3.3333 7.7975 3.3333 5.8333 3.3333 3.8691 3.3333 2.8871 3.3333 2.2769 3.9435 1.6667 4.5537 1.6667 5.5358 1.6667 7.5" stroke="currentColor" stroke-linecap="round" stroke-linejoin="round" stroke-width="2"/>
  <path d="M5.8333 18.3333H12.5C14.4642 18.3333 15.4462 18.3333 16.0565 17.7232 16.6667 17.1129 16.6667 16.1308 16.6667 14.1667 16.6667 12.2025 16.6667 11.2204 16.0565 10.6102 15.4462 10 14.4642 10 12.5 10L5.8333 10C3.8691 10 2.887 10 2.2769 10.6102 1.6667 11.2204 1.6667 12.2025 1.6667 14.1667 1.6667 16.1308 1.6667 17.1129 2.2769 17.7232 2.887 18.3333 3.8691 18.3333 5.8333 18.3333Z" stroke="currentColor" stroke-linecap="round" stroke-linejoin="round" stroke-width="2"/>
  <path d="M15.4167 1.6667L13.3333 3.75 15.4167 5.8333M14.1667 3.75C16.1308 3.75 17.1129 3.75 17.7232 4.3602 18.3333 4.9704 18.3333 5.9525 18.3333 7.9167" stroke="currentColor" stroke-linecap="round" stroke-linejoin="round" stroke-width="2"/>
</svg>
