<svg xmlns="http://www.w3.org/2000/svg" width="20" height="20" viewBox="0 0 20 20" fill="none">
  <path d="M10 7.5V6.6667C10 4.7025 10 3.7204 9.3898 3.1102 8.7796 2.5 7.7975 2.5 5.8333 2.5 3.8691 2.5 2.8871 2.5 2.2769 3.1102 1.6667 3.7204 1.6667 4.7025 1.6667 6.6667V11.6667C1.6667 12.0537 1.6667 12.2473 1.6923 12.4093 1.8335 13.3007 2.5327 13.9998 3.4241 14.141 3.586 14.1667 3.7796 14.1667 4.1667 14.1667" stroke="currentColor" stroke-linecap="round" stroke-linejoin="round" stroke-width="2"/>
  <path d="M1.6667 10L4.2887 7.378C4.4774 7.1893 4.7332 7.0833 5 7.0833 5.2668 7.0833 5.5227 7.1893 5.7113 7.378L6.25 7.9167" stroke="currentColor" stroke-linecap="round" stroke-linejoin="round" stroke-width="2"/>
  <path d="M7.0833 5.4079V5.4163" stroke="currentColor" stroke-linecap="round" stroke-linejoin="round" stroke-width="2"/>
  <path d="M15 12.4918V12.5002" stroke="currentColor" stroke-linecap="round" stroke-linejoin="round" stroke-width="2"/>
  <path d="M10.8333 18.3333H14.1667C16.1308 18.3333 17.1129 18.3333 17.7232 17.7232 18.3333 17.1129 18.3333 16.1308 18.3333 14.1667 18.3333 12.2025 18.3333 11.2204 17.7232 10.6102 17.1129 10 16.1308 10 14.1667 10L10.8333 10C8.8692 10 7.8871 10 7.2769 10.6102 6.6667 11.2204 6.6667 12.2025 6.6667 14.1667 6.6667 16.1308 6.6667 17.1129 7.2769 17.7232 7.8871 18.3333 8.8692 18.3333 10.8333 18.3333Z" stroke="currentColor" stroke-linecap="round" stroke-linejoin="round" stroke-width="2"/>
  <path d="M7.0833 16.25L10.122 13.2113C10.3107 13.0227 10.5666 12.9167 10.8333 12.9167 11.1001 12.9167 11.356 13.0227 11.5447 13.2113L14.375 16.0417 15.686 14.7307C15.7803 14.6363 15.9083 14.5833 16.0417 14.5833 16.1751 14.5833 16.303 14.6363 16.3973 14.7307L17.9167 16.25" stroke="currentColor" stroke-linecap="round" stroke-linejoin="round" stroke-width="2"/>
  <path d="M13.3333 3.75H13.75C15.3124 3.75 16.0936 3.75 16.6412 4.1479 16.8181 4.2764 16.9736 4.4319 17.1021 4.6088 17.5 5.1564 17.5 5.9376 17.5 7.5M14.5833 1.6667L12.5 3.75 14.5833 5.8333" stroke="currentColor" stroke-linecap="round" stroke-linejoin="round" stroke-width="2"/>
</svg>
