<svg xmlns="http://www.w3.org/2000/svg" width="20" height="20" viewBox="0 0 20 20" fill="none">
  <path d="M6.6667 5H8.1504C9.8307 5 10.6707 5 11.0947 5.2012 12.1166 5.6861 12.5649 6.8979 12.1046 7.9311 11.9136 8.3598 11.2758 8.9065 10 10 8.7242 11.0935 8.0864 11.6402 7.8954 12.0688 7.4351 13.1021 7.8834 14.3139 8.9053 14.7988 9.3293 15 10.1693 15 11.8496 15H13.3333" stroke="currentColor" stroke-linejoin="round" stroke-width="2"/>
  <path d="M1.6667 5C1.6667 6.3807 2.786 7.5 4.1667 7.5 5.5474 7.5 6.6667 6.3807 6.6667 5 6.6667 3.6193 5.5474 2.5 4.1667 2.5 2.786 2.5 1.6667 3.6193 1.6667 5Z" stroke="currentColor" stroke-width="2"/>
  <path d="M13.3333 15C13.3333 16.3808 14.4526 17.5 15.8333 17.5 17.2141 17.5 18.3333 16.3808 18.3333 15 18.3333 13.6193 17.2141 12.5 15.8333 12.5 14.4526 12.5 13.3333 13.6193 13.3333 15Z" stroke="currentColor" stroke-width="2"/>
</svg>
