<svg xmlns="http://www.w3.org/2000/svg" width="20" height="20" viewBox="0 0 20 20" fill="none">
  <path d="M2.5 13.3333V6.6667C2.5 4.3096 2.5 3.1311 3.2322 2.3989 3.9645 1.6667 5.143 1.6667 7.5 1.6667H12.5C14.857 1.6667 16.0355 1.6667 16.7678 2.3989 17.5 3.1311 17.5 4.3096 17.5 6.6667V13.3333C17.5 15.6903 17.5 16.8688 16.7678 17.6011 16.0355 18.3333 14.857 18.3333 12.5 18.3333H7.5C5.143 18.3333 3.9645 18.3333 3.2322 17.6011 2.5 16.8688 2.5 15.6903 2.5 13.3333Z" stroke="currentColor" stroke-linecap="round" stroke-linejoin="round" stroke-width="2"/>
  <path d="M5 13.3333V9.1667C5 7.9882 5 7.3989 5.3661 7.0328 5.7322 6.6667 6.3215 6.6667 7.5 6.6667H12.5C13.6785 6.6667 14.2678 6.6667 14.6339 7.0328 15 7.3989 15 7.9882 15 9.1667V13.3333C15 14.5118 15 15.1011 14.6339 15.4673 14.2678 15.8333 13.6785 15.8333 12.5 15.8333H7.5C6.3215 15.8333 5.7322 15.8333 5.3661 15.4673 5 15.1011 5 14.5118 5 13.3333Z" stroke="currentColor" stroke-linecap="round" stroke-linejoin="round" stroke-width="2"/>
  <path d="M7.5 9.1667H12.5" stroke="currentColor" stroke-linecap="round" stroke-linejoin="round" stroke-width="2"/>
  <path d="M10.042 4.1686H10.0003M10.0837 4.1686C10.0837 4.2146 10.0463 4.2519 10.0003 4.2519 9.9543 4.2519 9.917 4.2146 9.917 4.1686 9.917 4.1226 9.9543 4.0853 10.0003 4.0853 10.0463 4.0853 10.0837 4.1226 10.0837 4.1686Z" stroke="currentColor" stroke-linecap="round" stroke-linejoin="round" stroke-width="2"/>
  <path d="M13.3753 4.1686H13.3337M13.417 4.1686C13.417 4.2146 13.3797 4.2519 13.3337 4.2519 13.2877 4.2519 13.2503 4.2146 13.2503 4.1686 13.2503 4.1226 13.2877 4.0853 13.3337 4.0853 13.3797 4.0853 13.417 4.1226 13.417 4.1686Z" stroke="currentColor" stroke-linecap="round" stroke-linejoin="round" stroke-width="2"/>
  <path d="M6.7087 4.1686H6.667M6.7503 4.1686C6.7503 4.2146 6.713 4.2519 6.667 4.2519 6.621 4.2519 6.5837 4.2146 6.5837 4.1686 6.5837 4.1226 6.621 4.0853 6.667 4.0853 6.713 4.0853 6.7503 4.1226 6.7503 4.1686Z" stroke="currentColor" stroke-linecap="round" stroke-linejoin="round" stroke-width="2"/>
</svg>
