<svg xmlns="http://www.w3.org/2000/svg" width="20" height="20" viewBox="0 0 20 20" fill="none">
  <path d="M8.75 12.0833H6.25C5.4643 12.0833 5.0715 12.0833 4.8274 12.3274 4.5833 12.5715 4.5833 12.9643 4.5833 13.75V13.75C4.5833 14.5357 4.5833 14.9285 4.8274 15.1726 5.0715 15.4167 5.4643 15.4167 6.25 15.4167H8.75C9.5357 15.4167 9.9285 15.4167 10.1726 15.1726 10.4167 14.9285 10.4167 14.5357 10.4167 13.75V13.75C10.4167 12.9643 10.4167 12.5715 10.1726 12.3274 9.9285 12.0833 9.5357 12.0833 8.75 12.0833Z" stroke="currentColor" stroke-linecap="round" stroke-linejoin="round" stroke-width="2"/>
  <path d="M17.9167 11.25V7.0833C17.9167 6.2573 17.9167 5.8443 17.7884 5.4594 17.6601 5.0746 17.4123 4.7442 16.9167 4.0833 16.1806 3.1019 15.8126 2.6112 15.2847 2.3473 14.7568 2.0833 14.1434 2.0833 12.9167 2.0833H7.0833C5.8566 2.0833 5.2432 2.0833 4.7153 2.3473 4.1874 2.6112 3.8194 3.1019 3.0833 4.0833 2.5877 4.7442 2.3399 5.0746 2.2116 5.4594 2.0833 5.8443 2.0833 6.2573 2.0833 7.0833V11.25C2.0833 14.3927 2.0833 15.9641 3.0596 16.9403 4.036 17.9167 5.6073 17.9167 8.75 17.9167H11.25C14.3927 17.9167 15.9641 17.9167 16.9403 16.9403 17.9167 15.9641 17.9167 14.3927 17.9167 11.25Z" stroke="currentColor" stroke-linecap="round" stroke-linejoin="round" stroke-width="2"/>
  <path d="M2.5 5.4167H17.5" stroke="currentColor" stroke-linecap="round" stroke-linejoin="round" stroke-width="2"/>
  <path d="M12.0833 5.4167H7.9167L8.75 2.0833H11.25L12.0833 5.4167Z" stroke="currentColor" stroke-linecap="round" stroke-linejoin="round" stroke-width="2"/>
  <path d="M12.0833 5.4167V7.0833C12.0833 7.869 12.0833 8.2618 11.8393 8.5059 11.5952 8.75 11.2023 8.75 10.4167 8.75H9.5833C8.7977 8.75 8.4048 8.75 8.1607 8.5059 7.9167 8.2618 7.9167 7.869 7.9167 7.0833V5.4167" stroke="currentColor" stroke-linecap="round" stroke-linejoin="round" stroke-width="2"/>
</svg>
