<svg xmlns="http://www.w3.org/2000/svg" width="20" height="20" viewBox="0 0 20 20" fill="none">
  <path d="M9.1667 18.3333C8.4848 18.3333 7.8335 18.0582 6.5308 17.5079 3.288 16.1381 1.6667 15.4532 1.6667 14.3011 1.6667 13.9785 1.6667 8.3871 1.6667 5.8333M9.1667 18.3333L9.1667 9.4623M9.1667 18.3333C9.4503 18.3333 9.7053 18.2857 10 18.1904M16.6667 5.8333V9.5833" stroke="currentColor" stroke-linecap="round" stroke-linejoin="round" stroke-width="2"/>
  <path d="M15 15.0004L15.7547 14.2457M18.3333 15C18.3333 13.1591 16.8409 11.6667 15 11.6667 13.1591 11.6667 11.6667 13.1591 11.6667 15 11.6667 16.8409 13.1591 18.3333 15 18.3333 16.8409 18.3333 18.3333 16.8409 18.3333 15Z" stroke="currentColor" stroke-linecap="round" stroke-linejoin="round" stroke-width="2"/>
  <path d="M6.1049 8.0762L3.6706 6.8982C2.3346 6.2518 1.6667 5.9285 1.6667 5.4167 1.6667 4.9048 2.3346 4.5816 3.6706 3.9351L6.1049 2.7572C7.6074 2.0302 8.3586 1.6667 9.1667 1.6667 9.9748 1.6667 10.726 2.0302 12.2284 2.7572L14.6628 3.9351C15.9987 4.5816 16.6667 4.9048 16.6667 5.4167 16.6667 5.9285 15.9987 6.2518 14.6628 6.8982L12.2284 8.0762C10.726 8.8032 9.9748 9.1667 9.1667 9.1667 8.3586 9.1667 7.6074 8.8032 6.1049 8.0762Z" stroke="currentColor" stroke-linecap="round" stroke-linejoin="round" stroke-width="2"/>
  <path d="M4.1667 10L5.8333 10.8333" stroke="currentColor" stroke-linecap="round" stroke-linejoin="round" stroke-width="2"/>
  <path d="M13.3333 3.3333L5 7.5" stroke="currentColor" stroke-linecap="round" stroke-linejoin="round" stroke-width="2"/>
</svg>
