<svg xmlns="http://www.w3.org/2000/svg" width="20" height="20" viewBox="0 0 20 20" fill="none">
  <path d="M2.0833 6.25V11.25C2.0833 14.3927 2.0833 15.9641 3.0596 16.9403 4.036 17.9167 5.6073 17.9167 8.75 17.9167H11.6667M17.9167 11.6667V6.25" stroke="currentColor" stroke-linecap="round" stroke-linejoin="round" stroke-width="2"/>
  <path d="M3.2242 4.4288L2.0833 6.25H17.9167L16.8732 4.5109C16.1618 3.3252 15.8061 2.7323 15.2329 2.4078 14.6598 2.0833 13.9684 2.0833 12.5858 2.0833H7.4614C6.1083 2.0833 5.4318 2.0833 4.8668 2.3961 4.3018 2.7088 3.9426 3.2822 3.2242 4.4288Z" stroke="currentColor" stroke-linecap="round" stroke-linejoin="round" stroke-width="2"/>
  <path d="M10 6.25V2.0833" stroke="currentColor" stroke-linecap="round" stroke-linejoin="round" stroke-width="2"/>
  <path d="M8.3333 8.75H11.6667" stroke="currentColor" stroke-linecap="round" stroke-linejoin="round" stroke-width="2"/>
  <path d="M12.9167 15.4167H17.9167M15.4167 17.9167V12.9167" stroke="currentColor" stroke-linecap="round" stroke-linejoin="round" stroke-width="2"/>
</svg>
