<svg xmlns="http://www.w3.org/2000/svg" width="20" height="20" viewBox="0 0 20 20" fill="none">
  <path d="M10 18.3333C9.3182 18.3333 8.6668 18.0628 7.3641 17.5218 4.1214 16.1751 2.5 15.5018 2.5 14.3691V6.4539M10 18.3333C10.6818 18.3333 11.3332 18.0628 12.6359 17.5218 15.8787 16.1751 17.5 15.5018 17.5 14.3691V6.4539M10 18.3333V10.1406M2.5 6.4539C2.5 6.9571 3.168 7.2749 4.5039 7.9104L6.9383 9.0685C8.4407 9.7833 9.1919 10.1406 10 10.1406M2.5 6.4539C2.5 5.9506 3.168 5.6329 4.5039 4.9973L6.25 4.1667M17.5 6.4539C17.5 6.9571 16.832 7.2749 15.4961 7.9104L13.0617 9.0685C11.5593 9.7833 10.8081 10.1406 10 10.1406M17.5 6.4539C17.5 5.9506 16.832 5.6329 15.4961 4.9973L13.75 4.1667M5 10.9598L6.6667 11.7792" stroke="currentColor" stroke-linecap="round" stroke-linejoin="round" stroke-width="2"/>
  <path d="M10.0031 1.6667L10.0031 7.5M10.0031 7.5C10.2223 7.5029 10.4386 7.3498 10.5982 7.1628L11.6667 5.8848M10.0031 7.5C9.7916 7.4971 9.5774 7.3447 9.4081 7.1628L8.3333 5.8848" stroke="currentColor" stroke-linecap="round" stroke-width="2"/>
</svg>
