<svg xmlns="http://www.w3.org/2000/svg" width="20" height="20" viewBox="0 0 20 20" fill="none">
  <path d="M14.8369 3.3906L11.3412 2.0482C10.6789 1.7938 10.3477 1.6667 10 1.6667 9.6523 1.6667 9.3211 1.7938 8.6588 2.0482L5.1631 3.3906C3.3877 4.0723 2.5 4.4132 2.5 5 2.5 5.5868 3.3877 5.9277 5.1631 6.6094L8.6588 7.9518C9.3211 8.2062 9.6523 8.3333 10 8.3333 10.3477 8.3333 10.6789 8.2062 11.3412 7.9518L14.8369 6.6094C16.6123 5.9277 17.5 5.5868 17.5 5 17.5 4.4132 16.6123 4.0723 14.8369 3.3906Z" stroke="currentColor" stroke-linecap="round" stroke-linejoin="round" stroke-width="2"/>
  <path d="M17.5 5V15C17.5 15.5868 16.6123 15.9277 14.8369 16.6094L11.3412 17.9518C10.6789 18.2062 10.3477 18.3333 10 18.3333 9.6523 18.3333 9.3211 18.2062 8.6588 17.9518L5.1631 16.6094C3.3877 15.9277 2.5 15.5868 2.5 15V5" stroke="currentColor" stroke-linecap="round" stroke-linejoin="round" stroke-width="2"/>
  <path d="M10 8.3333V18.3333" stroke="currentColor" stroke-linecap="round" stroke-linejoin="round" stroke-width="2"/>
  <path d="M13.75 3.3333L5.8333 6.6667V8.75" stroke="currentColor" stroke-linecap="round" stroke-linejoin="round" stroke-width="2"/>
  <path d="M4.5833 13.41V12.7129C4.5833 12.1335 4.5833 11.8438 4.7706 11.7184 4.9579 11.593 5.2203 11.7072 5.7449 11.9354L6.9949 12.4792C7.2399 12.5858 7.3624 12.639 7.4312 12.745 7.5 12.8509 7.5 12.9862 7.5 13.2567V13.9537C7.5 14.5332 7.5 14.8229 7.3127 14.9482 7.1254 15.0737 6.8631 14.9595 6.3384 14.7312L5.0884 14.1875C4.8434 14.0809 4.721 14.0277 4.6522 13.9217 4.5833 13.8158 4.5833 13.6805 4.5833 13.41Z" stroke="currentColor" stroke-linecap="round" stroke-linejoin="round" stroke-width="2"/>
</svg>
