<svg xmlns="http://www.w3.org/2000/svg" width="20" height="20" viewBox="0 0 20 20" fill="none">
  <path d="M10 18.3333C9.3182 18.3333 8.6668 18.059 7.3641 17.5102 4.1214 16.1445 2.5 15.4616 2.5 14.3128V6.2853M10 18.3333C10.6818 18.3333 11.3332 18.059 12.6359 17.5102 15.8787 16.1445 17.5 15.4616 17.5 14.3128V6.2853M10 18.3333V10.0243M17.5 6.2853C17.5 6.7957 16.832 7.1179 15.4961 7.7625L13.0617 8.937C11.5593 9.6619 10.8081 10.0243 10 10.0243M17.5 6.2853C17.5 5.7749 16.832 5.4526 15.4961 4.8081L14.1667 4.1667M2.5 6.2853C2.5 6.7957 3.168 7.1179 4.5039 7.7625L6.9383 8.937C8.4407 9.6619 9.1919 10.0243 10 10.0243M2.5 6.2853C2.5 5.7749 3.168 5.4526 4.5039 4.8081L5.8333 4.1667M5 10.8553L6.6667 11.6862" stroke="currentColor" stroke-linecap="round" stroke-linejoin="round" stroke-width="2"/>
  <path d="M8.3333 1.6667L10 3.3333M10 3.3333L11.6667 5M10 3.3333L8.3333 5M10 3.3333L11.6667 1.6667" stroke="currentColor" stroke-linecap="round" stroke-width="2"/>
</svg>
