<svg xmlns="http://www.w3.org/2000/svg" width="20" height="20" viewBox="0 0 20 20" fill="none">
  <path d="M14.5833 18.3333C14.5833 18.3333 14.1667 16.6667 14.1667 14.1667 14.1667 9.5 15.2778 3.8889 15.8333 1.6667 16.3889 4.1667 17.5 10 17.5 13.3333 17.5 14.3501 17.3449 15.522 17.224 16.2813 17.1431 16.7892 16.8143 17.2178 16.3543 17.4479L14.5833 18.3333ZM14.5833 18.3333H4.218C3.4532 18.3333 2.7922 17.8105 2.6896 17.0526 2.592 16.3323 2.5 15.3415 2.5 14.1667 2.5 9.1667 4.1667 4.1667 4.1667 4.1667" stroke="currentColor" stroke-linecap="round" stroke-linejoin="round" stroke-width="2"/>
  <path d="M4.8173 1.6667H15.8333C15.7534 1.9863 15.662 2.3761 15.5641 2.8231 15.3935 3.6016 14.711 4.1667 13.914 4.1667H3.6193C3.7586 3.4553 3.8943 2.823 4.0151 2.2993 4.1011 1.9267 4.4349 1.6667 4.8173 1.6667Z" stroke="currentColor" stroke-linecap="round" stroke-linejoin="round" stroke-width="2"/>
  <path d="M5.0178 15.0616C5.0065 14.7773 5 14.4785 5 14.1667 5 12.7903 5.0966 11.3319 5.2472 9.9024 5.2914 9.4825 5.6477 9.1667 6.07 9.1667H11.0583C11.5574 9.1667 11.944 9.6024 11.8935 10.0989 11.7547 11.4653 11.6667 12.8533 11.6667 14.1667 11.6667 14.4331 11.6714 14.69 11.6798 14.9365 11.6965 15.421 11.3153 15.8333 10.8305 15.8333H5.8352C5.3992 15.8333 5.0352 15.4972 5.0178 15.0616Z" stroke="currentColor" stroke-linecap="round" stroke-linejoin="round" stroke-width="2"/>
</svg>
