<svg xmlns="http://www.w3.org/2000/svg" width="20" height="20" viewBox="0 0 20 20" fill="none">
  <path d="M10 18.3333C9.3182 18.3333 8.6668 18.0538 7.3641 17.4949 4.1214 16.1036 2.5 15.4079 2.5 14.2378L2.5 6.4562M10 18.3333C10.6818 18.3333 11.3332 18.0538 12.6359 17.4949 15.8787 16.1036 17.5 15.4079 17.5 14.2378V6.4562M10 18.3333L10 10.1423M17.5 6.4562C17.5 6.9594 16.832 7.2771 15.4961 7.9125L13.0617 9.0703C11.5593 9.7849 10.8081 10.1423 10 10.1423M17.5 6.4562C17.5 5.9531 16.832 5.6354 15.4961 5M2.5 6.4562C2.5 6.9594 3.168 7.2771 4.5039 7.9125L6.9383 9.0703C8.4407 9.7849 9.1919 10.1423 10 10.1423M2.5 6.4562C2.5 5.9531 3.168 5.6354 4.5039 5M5.2767 11.0925L6.9383 11.8828" stroke="currentColor" stroke-linecap="round" stroke-linejoin="round" stroke-width="2"/>
  <path d="M10 1.6667V3.3333M13.3333 2.5L12.0833 4.1667M6.6667 2.5L7.9167 4.1667" stroke="currentColor" stroke-linecap="round" stroke-width="2"/>
</svg>
