<svg xmlns="http://www.w3.org/2000/svg" width="20" height="20" viewBox="0 0 20 20" fill="none">
  <path d="M18.3333 10H18.3258M15.0075 10H15" stroke="currentColor" stroke-linecap="round" stroke-linejoin="round" stroke-width="2"/>
  <path d="M8.7599 6.25L8.7524 6.25" stroke="currentColor" stroke-linecap="round" stroke-linejoin="round" stroke-width="2"/>
  <path d="M1.6667 10C1.6667 14.1422 4.9523 17.5 9.0053 17.5 11.0611 17.5 12.9194 16.6362 14.2517 15.2442 14.7855 14.6865 15.0524 14.4077 14.9914 13.9515 14.9305 13.4954 14.544 13.2673 13.7708 12.8113L13.1393 12.4387C11.3031 11.3555 10.385 10.8139 10.385 10 10.385 9.1861 11.3031 8.6445 13.1393 7.5613L13.7708 7.1887C14.544 6.7327 14.9305 6.5046 14.9914 6.0485 15.0524 5.5923 14.7855 5.3135 14.2517 4.7558 12.9194 3.3639 11.0611 2.5 9.0053 2.5 4.9523 2.5 1.6667 5.8579 1.6667 10Z" stroke="currentColor" stroke-width="2"/>
</svg>
