<svg xmlns="http://www.w3.org/2000/svg" width="20" height="20" viewBox="0 0 20 20" fill="none">
  <path d="M16.6667 8.3333C16.6667 4.6514 13.6819 1.6667 10 1.6667 6.3181 1.6667 3.3333 4.6514 3.3333 8.3333V17C3.3333 17.7364 3.9303 18.3333 4.6667 18.3333 5.4031 18.3333 6 17.7364 6 17V16.3333C6 15.5969 6.597 15 7.3333 15 8.0697 15 8.6667 15.5969 8.6667 16.3333V17C8.6667 17.7364 9.2636 18.3333 10 18.3333 10.7364 18.3333 11.3333 17.7364 11.3333 17V16.3333C11.3333 15.5969 11.9303 15 12.6667 15 13.4031 15 14 15.5969 14 16.3333V17C14 17.7364 14.5969 18.3333 15.3333 18.3333 16.0697 18.3333 16.6667 17.7364 16.6667 17V8.3333Z" stroke="currentColor" stroke-width="2"/>
  <path d="M7.5075 8.3333H7.5M12.5 8.3333H12.4925" stroke="currentColor" stroke-linecap="round" stroke-linejoin="round" stroke-width="2"/>
</svg>
