<svg xmlns="http://www.w3.org/2000/svg" width="20" height="20" viewBox="0 0 20 20" fill="none">
  <path d="M3.2424 17.3939L2.5 17.5 2.6061 16.7576C2.7674 15.6283 2.848 15.0637 3.0986 14.5626 3.3492 14.0615 3.7525 13.6582 4.5591 12.8515L14.1523 3.2584C14.5052 2.9055 14.6817 2.729 14.872 2.6346 15.2342 2.4551 15.6595 2.4551 16.0218 2.6346 16.2122 2.729 16.3886 2.9055 16.7416 3.2584 17.0946 3.6114 17.271 3.7879 17.3654 3.9782 17.5449 4.3405 17.5449 4.7657 17.3654 5.128 17.271 5.3183 17.0946 5.4948 16.7416 5.8478L7.1485 15.4409C6.3418 16.2475 5.9385 16.6508 5.4374 16.9014 4.9363 17.1519 4.3717 17.2326 3.2424 17.3939Z" stroke="currentColor" stroke-linecap="round" stroke-linejoin="round" stroke-width="2"/>
  <path d="M5 12.5L7.5 15M7.0833 10.4167L9.5833 12.9167" stroke="currentColor" stroke-linecap="round" stroke-linejoin="round" stroke-width="2"/>
</svg>
