<svg xmlns="http://www.w3.org/2000/svg" width="20" height="20" viewBox="0 0 20 20" fill="none">
  <path d="M5 10C4.2752 10.6155 1.6226 12.1382 1.6671 13.251 1.6793 13.5551 1.9338 13.8095 2.4427 14.3185L3.2524 15.1282M10 15C9.3845 15.7248 7.8618 18.3774 6.749 18.3329 6.4449 18.3208 6.1905 18.0663 5.6815 17.5573L4.8718 16.7476M3.2524 15.1282L5.2455 13.135M3.2524 15.1282L4.8718 16.7476M4.8718 16.7476L5.8684 15.751" stroke="currentColor" stroke-linecap="round" stroke-linejoin="round" stroke-width="2"/>
  <path d="M11.6158 15.4008C11.3499 15.6869 11.217 15.83 11.0378 15.8333 10.8587 15.8366 10.7154 15.6933 10.4288 15.4068L4.5932 9.5708C4.3067 9.2843 4.1634 9.141 4.1667 8.9618 4.17 8.7827 4.313 8.6498 4.5991 8.3839 4.7926 8.2041 4.9494 8.0771 5.119 7.9725 6.5897 7.0656 8.4571 7.9244 9.9443 7.0824 11.6581 6.1121 13.1623 4.3216 14.5822 2.7165 15.1894 2.03 15.493 1.6868 15.9213 1.6672 16.6936 1.6319 18.3679 3.3111 18.3328 4.079 18.3132 4.5074 17.9698 4.811 17.2832 5.4182 15.6779 6.8378 13.8872 8.3417 12.9172 10.0553 12.0752 11.5427 12.9339 13.4102 12.0271 14.8809 11.9225 15.0506 11.7956 15.2073 11.6158 15.4008Z" stroke="currentColor" stroke-linecap="round" stroke-linejoin="round" stroke-width="2"/>
</svg>
