<svg xmlns="http://www.w3.org/2000/svg" width="20" height="20" viewBox="0 0 20 20" fill="none">
  <path d="M3.3333 4.1667C3.3333 3.5465 3.3333 3.2364 3.4076 2.9835 3.5834 2.3849 4.0515 1.9167 4.6502 1.7409 4.9031 1.6667 5.2132 1.6667 5.8333 1.6667H11.6667C12.2868 1.6667 12.5969 1.6667 12.8498 1.7409 13.4485 1.9167 13.9167 2.3849 14.0924 2.9835 14.1667 3.2364 14.1667 3.5465 14.1667 4.1667 14.1667 4.7868 14.1667 5.0969 14.0924 5.3498 13.9167 5.9485 13.4485 6.4166 12.8498 6.5924 12.5969 6.6667 12.2868 6.6667 11.6667 6.6667H5.8333C5.2132 6.6667 4.9031 6.6667 4.6502 6.5924 4.0515 6.4166 3.5834 5.9485 3.4076 5.3498 3.3333 5.0969 3.3333 4.7868 3.3333 4.1667Z" stroke="currentColor" stroke-linecap="round" stroke-width="2"/>
  <path d="M10 14.5833C10 14.1951 10 14.0009 10.0634 13.8478 10.148 13.6436 10.3102 13.4813 10.5144 13.3968 10.6676 13.3333 10.8618 13.3333 11.25 13.3333 11.6382 13.3333 11.8324 13.3333 11.9856 13.3968 12.1898 13.4813 12.352 13.6436 12.4366 13.8478 12.5 14.0009 12.5 14.1951 12.5 14.5833V17.0833C12.5 17.4716 12.5 17.6657 12.4366 17.8189 12.352 18.0231 12.1898 18.1853 11.9856 18.2699 11.8324 18.3333 11.6382 18.3333 11.25 18.3333 10.8618 18.3333 10.6676 18.3333 10.5144 18.2699 10.3102 18.1853 10.148 18.0231 10.0634 17.8189 10 17.6657 10 17.4716 10 17.0833V14.5833Z" stroke="currentColor" stroke-linecap="round" stroke-width="2"/>
  <path d="M14.3742 4.1667C15.0864 4.1667 15.4425 4.1667 15.7234 4.2935 16.6648 4.7187 16.6671 5.719 16.6671 6.6702 16.6671 7.4672 16.6671 7.8657 16.5584 8.2018 16.2094 9.2815 14.7823 9.8067 13.403 10.1977 12.4172 10.4772 11.9243 10.617 11.5871 11.063 11.25 11.5089 11.25 12.0324 11.25 13.0793V13.3333" stroke="currentColor" stroke-linecap="round" stroke-linejoin="round" stroke-width="2"/>
</svg>
