<svg xmlns="http://www.w3.org/2000/svg" width="20" height="20" viewBox="0 0 20 20" fill="none">
  <path d="M15.8333 10.1078L10.7823 15.1725C9.2964 16.6624 8.5534 17.4074 7.6416 17.4898 7.4909 17.5034 7.3392 17.5034 7.1885 17.4898 6.2766 17.4074 5.5337 16.6624 4.0477 15.1725L2.3641 13.4843C1.4342 12.5518 1.4342 11.0402 2.3641 10.1078M15.8333 10.1078L9.0987 3.3549M15.8333 10.1078H2.3641M9.0987 3.3549L2.3641 10.1078M9.0987 3.3549L7.415 1.6667" stroke="currentColor" stroke-linecap="round" stroke-linejoin="round" stroke-width="2"/>
  <path d="M18.3333 16.6667C18.3333 17.5872 17.5872 18.3333 16.6667 18.3333 15.7462 18.3333 15 17.5872 15 16.6667 15 15.7462 16.6667 14.1667 16.6667 14.1667 16.6667 14.1667 18.3333 15.7462 18.3333 16.6667Z" stroke="currentColor" stroke-linecap="round" stroke-linejoin="round" stroke-width="2"/>
</svg>
