<svg xmlns="http://www.w3.org/2000/svg" width="20" height="20" viewBox="0 0 20 20" fill="none">
  <path d="M18.3333 10C18.3333 5.3976 14.6023 1.6667 10 1.6667 5.3976 1.6667 1.6667 5.3976 1.6667 10 1.6667 14.6023 5.3976 18.3333 10 18.3333 10.7014 18.3333 11.6667 18.4303 11.6667 17.5 11.6667 16.9925 11.4027 16.601 11.1405 16.212 10.7568 15.6429 10.3769 15.0794 10.8333 14.1667 11.3889 13.0556 12.3148 13.0556 13.7346 13.0556 14.4445 13.0556 15.2778 13.0556 16.25 12.9167 18.0008 12.6666 18.3333 11.5903 18.3333 10Z" stroke="currentColor" stroke-width="2"/>
  <circle cx="7.916666666666667" cy="7.083333333333334" r="1.25" stroke="currentColor" stroke-width="2"/>
  <circle cx="13.75" cy="7.916666666666667" r="1.25" stroke="currentColor" stroke-width="2"/>
  <path d="M5.9375 12.5H5.8333M6.0417 12.5C6.0417 12.6151 5.9484 12.7083 5.8333 12.7083 5.7183 12.7083 5.625 12.6151 5.625 12.5 5.625 12.3849 5.7183 12.2917 5.8333 12.2917 5.9484 12.2917 6.0417 12.3849 6.0417 12.5Z" stroke="currentColor" stroke-linecap="round" stroke-linejoin="round" stroke-width="2"/>
</svg>
