<svg xmlns="http://www.w3.org/2000/svg" width="20" height="20" viewBox="0 0 20 20" fill="none">
  <path d="M10 16.6667L10 15.4167M13.3333 16.6667V15.4167M16.6667 16.6667V15.4167" stroke="currentColor" stroke-linecap="round" stroke-linejoin="round" stroke-width="2"/>
  <path d="M8.3333 16.6667L18.3333 16.6667" stroke="currentColor" stroke-linecap="round" stroke-linejoin="round" stroke-width="2"/>
  <path d="M17.963 9.1667H8.7037C8.4992 9.1667 8.3333 9.3739 8.3333 9.6297 8.3333 11.6752 9.6599 13.3333 11.2963 13.3333H15.3703C17.0068 13.3333 18.3333 11.6752 18.3333 9.6297 18.3333 9.3739 18.1675 9.1667 17.963 9.1667Z" stroke="currentColor" stroke-linecap="round" stroke-width="2"/>
  <path d="M10.8333 6.6667C12.21 5.8148 10.29 4.1852 11.6667 3.3333M13.3333 6.6667C14.71 5.8148 12.79 4.1852 14.1667 3.3333M15.8333 6.6667C17.21 5.8148 15.29 4.1852 16.6667 3.3333" stroke="currentColor" stroke-linecap="round" stroke-width="2"/>
  <path d="M8.3333 9.1667L6.6667 7.5" stroke="currentColor" stroke-linecap="round" stroke-linejoin="round" stroke-width="2"/>
  <path d="M2.8066 3.64C3.2155 3.2311 3.8784 3.2311 4.2872 3.64L6.36 5.7128C6.7689 6.1216 6.7689 6.7845 6.36 7.1934 5.9512 7.6022 5.2883 7.6022 4.8795 7.1934L2.8066 5.1206C2.3978 4.7117 2.3978 4.0488 2.8066 3.64Z" stroke="currentColor" stroke-linecap="round" stroke-width="2"/>
</svg>
