<svg xmlns="http://www.w3.org/2000/svg" width="20" height="20" viewBox="0 0 20 20" fill="none">
  <path d="M17.1297 10.8333H7.8704C7.6658 10.8333 7.5 11.0406 7.5 11.2963 7.5 13.3418 8.8266 15 10.463 15H14.537C16.1734 15 17.5 13.3418 17.5 11.2963 17.5 11.0406 17.3342 10.8333 17.1297 10.8333Z" stroke="currentColor" stroke-linecap="round" stroke-width="2"/>
  <path d="M7.5 10.8333L5.8333 9.1667" stroke="currentColor" stroke-linecap="round" stroke-linejoin="round" stroke-width="2"/>
  <path d="M1.9733 5.3066C2.3822 4.8978 3.045 4.8978 3.4539 5.3066L5.5267 7.3795C5.9356 7.7883 5.9356 8.4512 5.5267 8.86 5.1178 9.2689 4.455 9.2689 4.0461 8.86L1.9733 6.7872C1.5645 6.3784 1.5645 5.7155 1.9733 5.3066Z" stroke="currentColor" stroke-linecap="round" stroke-width="2"/>
</svg>
