<svg xmlns="http://www.w3.org/2000/svg" width="20" height="20" viewBox="0 0 20 20" fill="none">
  <path d="M17.5 9.1667C17.5 6.024 17.5 4.4526 16.5237 3.4763 15.5474 2.5 13.976 2.5 10.8333 2.5H9.1667C6.024 2.5 4.4526 2.5 3.4763 3.4763 2.5 4.4526 2.5 6.024 2.5 9.1667V10.8333C2.5 13.976 2.5 15.5474 3.4763 16.5237 4.4526 17.5 6.024 17.5 9.1667 17.5H10.8333C13.976 17.5 15.5474 17.5 16.5237 16.5237 17.5 15.5474 17.5 13.976 17.5 10.8333V9.1667Z" stroke="currentColor" stroke-linecap="round" stroke-linejoin="round" stroke-width="2"/>
  <path d="M7.5 2.5V17.5" stroke="currentColor" stroke-linecap="round" stroke-linejoin="round" stroke-width="2"/>
  <path d="M11.6667 7.5L12.5902 8.2322C13.6412 9.0656 14.1667 9.4823 14.1667 10 14.1667 10.5177 13.6412 10.9344 12.5902 11.7677L11.6667 12.5" stroke="currentColor" stroke-linecap="round" stroke-linejoin="round" stroke-width="2"/>
</svg>
