<svg xmlns="http://www.w3.org/2000/svg" width="20" height="20" viewBox="0 0 20 20" fill="none">
  <path d="M2.9167 7.5H4.1666M7.5 7.5H8.3333M11.6667 7.5H12.5M15.8333 7.5H17.0833M2.9167 12.5H4.1666M7.5 12.5H8.3333M11.6667 12.5H12.5M15.8333 12.5H17.0833" stroke="currentColor" stroke-linecap="round" stroke-linejoin="round" stroke-width="2"/>
  <path d="M10 17.5H10 10C13.5356 17.5 15.3033 17.5 16.4017 16.4017 17.5 15.3033 17.5 13.5355 17.5 10V10 10C17.5 6.4645 17.5 4.6967 16.4017 3.5983 15.3033 2.5 13.5356 2.5 10 2.5 6.4645 2.5 4.6967 2.5 3.5984 3.5983 2.5 4.6967 2.5 6.4645 2.5 10 2.5 13.5355 2.5 15.3033 3.5984 16.4017 4.6967 17.5 6.4645 17.5 10 17.5Z" stroke="currentColor" stroke-linecap="round" stroke-linejoin="round" stroke-width="2"/>
</svg>
