<svg xmlns="http://www.w3.org/2000/svg" width="20" height="20" viewBox="0 0 20 20" fill="none">
  <path d="M10.6322 9.3442C10.2271 9.1781 9.7729 9.1781 9.3678 9.3442L1.67 12.5C1.67 11.6921 1.6007 10.8628 2.0924 10.1655 3.797 7.7479 7.0022 4.3306 9.231 2.748 9.6967 2.4173 10.3033 2.4173 10.769 2.748 12.9978 4.3306 16.203 7.7479 17.9077 10.1655 18.3993 10.8628 18.33 11.6921 18.33 12.5L10.6322 9.3442Z" stroke="currentColor" stroke-linecap="round" stroke-linejoin="round" stroke-width="2"/>
  <path d="M8.3567 10C8.0082 10.9329 6.062 14.3193 6.855 15.2408 7.4573 15.9407 12.3916 16.1162 13.145 15.2408 13.938 14.3193 11.9918 10.9329 11.6433 10" stroke="currentColor" stroke-linecap="round" stroke-linejoin="round" stroke-width="2"/>
  <path d="M10 15.8333V17.5" stroke="currentColor" stroke-linecap="round" stroke-linejoin="round" stroke-width="2"/>
  <path d="M6.6667 14.1667L3.75 11.6667M13.3333 14.1667L16.25 11.6667" stroke="currentColor" stroke-linecap="round" stroke-linejoin="round" stroke-width="2"/>
</svg>
