<svg xmlns="http://www.w3.org/2000/svg" width="20" height="20" viewBox="0 0 20 20" fill="none">
  <path d="M2.9271 7.9062C3.3543 8.3333 4.0417 8.3333 5.4167 8.3333 6.7916 8.3333 7.4791 8.3333 7.9062 7.9062 8.3333 7.4791 8.3333 6.7916 8.3333 5.4167 8.3333 4.0417 8.3333 3.3543 7.9062 2.9271 7.4791 2.5 6.7916 2.5 5.4167 2.5 4.0417 2.5 3.3543 2.5 2.9271 2.9271 2.5 3.3543 2.5 4.0417 2.5 5.4167 2.5 6.7916 2.5 7.4791 2.9271 7.9062Z" stroke="currentColor" stroke-linecap="round" stroke-linejoin="round" stroke-width="2"/>
  <path d="M2.9271 17.0728C3.3543 17.5 4.0417 17.5 5.4167 17.5 6.7916 17.5 7.4791 17.5 7.9062 17.0728 8.3333 16.6458 8.3333 15.9582 8.3333 14.5833 8.3333 13.2084 8.3333 12.5209 7.9062 12.0938 7.4791 11.6667 6.7916 11.6667 5.4167 11.6667 4.0417 11.6667 3.3543 11.6667 2.9271 12.0938 2.5 12.5209 2.5 13.2084 2.5 14.5833 2.5 15.9582 2.5 16.6458 2.9271 17.0728Z" stroke="currentColor" stroke-linecap="round" stroke-linejoin="round" stroke-width="2"/>
  <path d="M12.5 3.3333H17.5" stroke="currentColor" stroke-linecap="round" stroke-linejoin="round" stroke-width="2"/>
  <path d="M12.5 12.5H17.5" stroke="currentColor" stroke-linecap="round" stroke-linejoin="round" stroke-width="2"/>
  <path d="M12.5 7.5H17.5" stroke="currentColor" stroke-linecap="round" stroke-linejoin="round" stroke-width="2"/>
  <path d="M12.5 16.6667H17.5" stroke="currentColor" stroke-linecap="round" stroke-linejoin="round" stroke-width="2"/>
</svg>
