<svg xmlns="http://www.w3.org/2000/svg" width="20" height="20" viewBox="0 0 20 20" fill="none">
  <path d="M2.0833 10C2.0833 6.4752 2.0833 4.7128 3.0816 3.544 3.2234 3.378 3.378 3.2234 3.544 3.0816 4.7128 2.0833 6.4752 2.0833 10 2.0833 13.5248 2.0833 15.2872 2.0833 16.456 3.0816 16.622 3.2234 16.7766 3.378 16.9183 3.544 17.9167 4.7128 17.9167 6.4752 17.9167 10 17.9167 13.5248 17.9167 15.2872 16.9183 16.456 16.7766 16.622 16.622 16.7766 16.456 16.9183 15.2872 17.9167 13.5248 17.9167 10 17.9167 6.4752 17.9167 4.7128 17.9167 3.544 16.9183 3.378 16.7766 3.2234 16.622 3.0816 16.456 2.0833 15.2872 2.0833 13.5248 2.0833 10Z" stroke="currentColor" stroke-width="2"/>
  <path d="M7.5 10.8333V7C7.5 6.6898 7.5 6.5347 7.5408 6.4092 7.6232 6.1555 7.8221 5.9566 8.0758 5.8741 8.2014 5.8333 8.3564 5.8333 8.6667 5.8333H10.8333C12.2141 5.8333 13.3333 6.9526 13.3333 8.3333 13.3333 9.7141 12.2141 10.8333 10.8333 10.8333H7.5ZM7.5 10.8333V15" stroke="currentColor" stroke-linecap="round" stroke-linejoin="round" stroke-width="2"/>
</svg>
