<svg xmlns="http://www.w3.org/2000/svg" width="20" height="20" viewBox="0 0 20 20" fill="none">
  <path d="M4.7149 9.1685L3.4896 11.9254C1.9437 15.4037 1.1707 17.1428 2.0143 17.9864 2.8579 18.83 4.5971 18.0571 8.0753 16.5112L10.8323 15.2858C12.9301 14.3535 13.979 13.8872 14.1459 12.9883 14.3128 12.0894 13.5012 11.2778 11.8779 9.6545L10.3462 8.1228C8.7229 6.4995 7.9113 5.6879 7.0124 5.8548 6.1134 6.0217 5.6472 7.0706 4.7149 9.1685Z" stroke="currentColor" stroke-linecap="round" stroke-linejoin="round" stroke-width="2"/>
  <path d="M5.4174 8.75L11.2508 14.5833M3.7507 12.9167L7.084 16.25" stroke="currentColor" stroke-linecap="round" stroke-linejoin="round" stroke-width="2"/>
  <path d="M13.3341 6.6667L15.8341 4.1667" stroke="currentColor" stroke-linecap="round" stroke-linejoin="round" stroke-width="2"/>
  <path d="M18.2299 5H18.1258M18.3341 5C18.3341 5.1151 18.2408 5.2083 18.1258 5.2083 18.0107 5.2083 17.9174 5.1151 17.9174 5 17.9174 4.8849 18.0107 4.7917 18.1258 4.7917 18.2408 4.7917 18.3341 4.8849 18.3341 5Z" stroke="currentColor" stroke-linecap="round" stroke-linejoin="round" stroke-width="2"/>
  <path d="M17.3966 11.0417H17.2924M17.5008 11.0417C17.5008 11.1568 17.4074 11.25 17.2924 11.25 17.1773 11.25 17.0841 11.1568 17.0841 11.0417 17.0841 10.9266 17.1773 10.8333 17.2924 10.8333 17.4074 10.8333 17.5008 10.9266 17.5008 11.0417Z" stroke="currentColor" stroke-linecap="round" stroke-linejoin="round" stroke-width="2"/>
  <path d="M15.1049 1.875H15.0008M15.2091 1.875C15.2091 1.9901 15.1158 2.0833 15.0008 2.0833 14.8857 2.0833 14.7924 1.9901 14.7924 1.875 14.7924 1.7599 14.8857 1.6667 15.0008 1.6667 15.1158 1.6667 15.2091 1.7599 15.2091 1.875Z" stroke="currentColor" stroke-linecap="round" stroke-linejoin="round" stroke-width="2"/>
  <path d="M9.2716 2.7083H9.1674M9.3758 2.7083C9.3758 2.8234 9.2824 2.9167 9.1674 2.9167 9.0523 2.9167 8.9591 2.8234 8.9591 2.7083 8.9591 2.5933 9.0523 2.5 9.1674 2.5 9.2824 2.5 9.3758 2.5933 9.3758 2.7083Z" stroke="currentColor" stroke-linecap="round" stroke-linejoin="round" stroke-width="2"/>
  <path d="M11.8318 1.6667C12.1643 2.2222 12.4304 3.6667 10.8341 5" stroke="currentColor" stroke-linecap="round" stroke-linejoin="round" stroke-width="2"/>
  <path d="M18.3341 8.169C17.7785 7.8364 16.3341 7.5703 15.0008 9.1667" stroke="currentColor" stroke-linecap="round" stroke-linejoin="round" stroke-width="2"/>
</svg>
