<svg xmlns="http://www.w3.org/2000/svg" width="20" height="20" viewBox="0 0 20 20" fill="none">
  <path d="M10.7919 18.3333C12.9958 18.3333 14.0978 18.3333 14.8889 17.7031 15.6801 17.0728 15.9324 15.9939 16.4372 13.8361L18.035 7.0058C18.3144 5.8114 18.4542 5.2141 18.2005 4.7816 17.7398 3.9961 16.5658 4.1667 15.7994 4.1667" stroke="currentColor" stroke-linecap="round" stroke-linejoin="round" stroke-width="2"/>
  <path d="M1.6667 7.5C1.6667 4.7501 1.6667 3.3752 2.5209 2.5209 3.3752 1.6667 4.7501 1.6667 7.5 1.6667H10C12.7498 1.6667 14.1248 1.6667 14.9791 2.5209 15.8333 3.3752 15.8333 4.7501 15.8333 7.5V12.5C15.8333 15.2498 15.8333 16.6248 14.9791 17.4791 14.1248 18.3333 12.7498 18.3333 10 18.3333H7.5C4.7501 18.3333 3.3752 18.3333 2.5209 17.4791 1.6667 16.6248 1.6667 15.2498 1.6667 12.5V7.5Z" stroke="currentColor" stroke-width="2"/>
  <path d="M8.75 5C10.5909 5 12.0833 6.4924 12.0833 8.3333 12.0833 10.1743 10.5909 11.6667 8.75 11.6667M8.75 5C6.9091 5 5.4167 6.4924 5.4167 8.3333 5.4167 10.1743 6.9091 11.6667 8.75 11.6667M8.75 5C8.0596 5 7.5 6.4924 7.5 8.3333 7.5 10.1743 8.0596 11.6667 8.75 11.6667M8.75 5C9.4403 5 10 6.4924 10 8.3333 10 10.1743 9.4403 11.6667 8.75 11.6667" stroke="currentColor" stroke-width="2"/>
  <path d="M5.8333 14.1667L11.6667 14.1667" stroke="currentColor" stroke-linecap="round" stroke-width="2"/>
</svg>
