<svg xmlns="http://www.w3.org/2000/svg" width="20" height="20" viewBox="0 0 20 20" fill="none">
  <path d="M10 2.9167C6.0716 2.9167 4.1074 2.9167 2.8871 4.015 1.6667 5.1134 1.6667 6.8811 1.6667 10.4167 1.6667 13.9522 1.6667 15.72 2.8871 16.8183 4.1074 17.9167 6.0716 17.9167 10 17.9167 13.9283 17.9167 15.8926 17.9167 17.1129 16.8183 18.3333 15.72 18.3333 13.9522 18.3333 10.4167 18.3333 9.4615 18.3333 7.0833 18.3333 7.0833" stroke="currentColor" stroke-linecap="round" stroke-linejoin="round" stroke-width="2"/>
  <path d="M4.1667 14.1667C5.1736 12.0158 8.9268 11.8742 10 14.1667M8.75 8.3333C8.75 9.2538 8.0038 10 7.0833 10 6.1629 10 5.4167 9.2538 5.4167 8.3333 5.4167 7.4129 6.1629 6.6667 7.0833 6.6667 8.0038 6.6667 8.75 7.4129 8.75 8.3333Z" stroke="currentColor" stroke-linecap="round" stroke-width="2"/>
  <path d="M11.6667 5.4167C11.6667 5.4167 12.5 5.4167 13.3333 7.0833 13.3333 7.0833 15.9804 2.9167 18.3333 2.0833" stroke="currentColor" stroke-linecap="round" stroke-linejoin="round" stroke-width="2"/>
</svg>
