<svg xmlns="http://www.w3.org/2000/svg" width="20" height="20" viewBox="0 0 20 20" fill="none">
  <path d="M1.6667 10C1.6667 6.4645 1.6667 4.6967 2.8871 3.5983 4.1074 2.5 6.0716 2.5 10 2.5 13.9283 2.5 15.8926 2.5 17.1129 3.5983 18.3333 4.6967 18.3333 6.4645 18.3333 10 18.3333 13.5355 18.3333 15.3033 17.1129 16.4017 15.8926 17.5 13.9283 17.5 10 17.5 6.0716 17.5 4.1074 17.5 2.8871 16.4017 1.6667 15.3033 1.6667 13.5355 1.6667 10Z" stroke="currentColor" stroke-linecap="round" stroke-linejoin="round" stroke-width="2"/>
  <path d="M4.1667 13.75C5.1736 11.5991 8.9268 11.4576 10 13.75M8.75 7.9167C8.75 8.8372 8.0038 9.5833 7.0833 9.5833 6.1629 9.5833 5.4167 8.8372 5.4167 7.9167 5.4167 6.9962 6.1629 6.25 7.0833 6.25 8.0038 6.25 8.75 6.9962 8.75 7.9167Z" stroke="currentColor" stroke-linecap="round" stroke-width="2"/>
  <path d="M12.5 8.3333H15.8333" stroke="currentColor" stroke-linecap="round" stroke-linejoin="round" stroke-width="2"/>
  <path d="M12.5 11.6667H15.8333" stroke="currentColor" stroke-linecap="round" stroke-linejoin="round" stroke-width="2"/>
</svg>
