<svg xmlns="http://www.w3.org/2000/svg" width="20" height="20" viewBox="0 0 20 20" fill="none">
  <path d="M18.3333 9.1667V10.8333C18.3333 14.3688 18.3333 16.1367 17.1129 17.235 15.8926 18.3333 13.9283 18.3333 10 18.3333 6.0716 18.3333 4.1074 18.3333 2.8871 17.235 1.6667 16.1367 1.6667 14.3688 1.6667 10.8333 1.6667 7.2978 1.6667 5.53 2.8871 4.4317 4.1074 3.3333 6.0716 3.3333 10 3.3333H10.8333" stroke="currentColor" stroke-linecap="round" stroke-linejoin="round" stroke-width="2"/>
  <path d="M4.1667 14.5833C5.1736 12.4324 8.9268 12.2909 10 14.5833M8.75 8.75C8.75 9.6705 8.0038 10.4167 7.0833 10.4167 6.1629 10.4167 5.4167 9.6705 5.4167 8.75 5.4167 7.8295 6.1629 7.0833 7.0833 7.0833 8.0038 7.0833 8.75 7.8295 8.75 8.75Z" stroke="currentColor" stroke-linecap="round" stroke-width="2"/>
  <path d="M13.3333 1.6667L15.8333 4.1667M15.8333 4.1667L18.3333 6.6667M15.8333 4.1667L13.3333 6.6667M15.8333 4.1667L18.3333 1.6667" stroke="currentColor" stroke-linecap="round" stroke-width="2"/>
</svg>
