<svg xmlns="http://www.w3.org/2000/svg" width="20" height="20" viewBox="0 0 20 20" fill="none">
  <path d="M8.2796 10.8329H5.8333C4.2756 10.8329 3.4968 10.8329 2.9167 10.498 2.5366 10.2786 2.221 9.963 2.0016 9.5829 1.6667 9.0028 1.6667 8.224 1.6667 6.6663 1.6667 5.1086 1.6667 4.3297 2.0016 3.7496 2.221 3.3695 2.5366 3.054 2.9167 2.8345 3.4968 2.4996 4.2756 2.4996 5.8333 2.4996H11.6667C14.0237 2.4996 15.2022 2.4996 15.9344 3.2318 16.6667 3.9641 16.6667 5.1426 16.6667 7.4996" stroke="currentColor" stroke-linecap="round" stroke-linejoin="round" stroke-width="2"/>
  <path d="M14.5833 17.4996C16.6544 17.4996 18.3333 15.8207 18.3333 13.7496 18.3333 11.6785 16.6544 9.9996 14.5833 9.9996 12.5122 9.9996 10.8333 11.6785 10.8333 13.7496 10.8333 15.8207 12.5122 17.4996 14.5833 17.4996Z" stroke="currentColor" stroke-linecap="round" stroke-linejoin="round" stroke-width="2"/>
  <path d="M9.2733 6.6663H9.1691M5.9393 6.6663H5.8351M12.606 6.6663H12.5018M9.3774 6.6663C9.3774 6.7813 9.2842 6.8746 9.1691 6.8746 9.054 6.8746 8.9608 6.7813 8.9608 6.6663 8.9608 6.5512 9.054 6.4579 9.1691 6.4579 9.2842 6.4579 9.3774 6.5512 9.3774 6.6663ZM6.0435 6.6663C6.0435 6.7813 5.9502 6.8746 5.8351 6.8746 5.7201 6.8746 5.6268 6.7813 5.6268 6.6663 5.6268 6.5512 5.7201 6.4579 5.8351 6.4579 5.9502 6.4579 6.0435 6.5512 6.0435 6.6663ZM12.7102 6.6663C12.7102 6.7813 12.6168 6.8746 12.5018 6.8746 12.3868 6.8746 12.2935 6.7813 12.2935 6.6663 12.2935 6.5512 12.3868 6.4579 12.5018 6.4579 12.6168 6.4579 12.7102 6.5512 12.7102 6.6663Z" stroke="currentColor" stroke-linecap="round" stroke-linejoin="round" stroke-width="2"/>
  <path d="M13.125 14.1663C13.125 14.1663 13.5417 14.1663 13.9583 14.9996 13.9583 14.9996 14.8652 13.3329 16.0417 12.9162" stroke="currentColor" stroke-linecap="round" stroke-linejoin="round" stroke-width="2"/>
</svg>
