<svg xmlns="http://www.w3.org/2000/svg" width="20" height="20" viewBox="0 0 20 20" fill="none">
  <path d="M12.5 7.5001C12.6347 7.5 12.7735 7.5 12.9167 7.5 15.2638 7.5 16.4372 7.5 17.2352 8.1363 17.4059 8.2725 17.5608 8.4274 17.697 8.5982 18.3333 9.3961 18.3333 10.5696 18.3333 12.9167 18.3333 15.2638 18.3333 16.4372 17.697 17.2352 17.5608 17.4059 17.4059 17.5608 17.2352 17.697 16.4372 18.3333 15.2638 18.3333 12.9167 18.3333 10.5696 18.3333 9.3961 18.3333 8.5982 17.697 8.4274 17.5608 8.2725 17.4059 8.1363 17.2352 7.5 16.4372 7.5 15.2638 7.5 12.9167 7.5 12.7735 7.5 12.6347 7.5001 12.5" stroke="currentColor" stroke-linecap="round" stroke-width="2"/>
  <path d="M12.5 7.4999C12.4977 9.5722 12.4613 10.6526 11.8638 11.4017 11.7277 11.5725 11.5728 11.7274 11.402 11.8636 10.6528 12.4611 9.5723 12.4976 7.5001 12.4998" stroke="currentColor" stroke-linecap="round" stroke-width="2"/>
  <path d="M1.6667 7.9167L1.6667 6.25M6.25 1.6667L7.9167 1.6667M1.6667 10C1.7212 10.7337 1.8515 11.2293 2.1627 11.6184 2.2773 11.7617 2.4076 11.8917 2.5513 12.0059 2.9402 12.3152 3.4351 12.4453 4.1667 12.5L4.5833 12.5M1.6667 4.1667C1.7214 3.4351 1.8515 2.9402 2.1608 2.5513 2.275 2.4076 2.405 2.2773 2.5483 2.1627 2.9374 1.8515 3.433 1.7212 4.1667 1.6667M10 1.6667C10.7315 1.7214 11.2265 1.8515 11.6154 2.1608 11.7591 2.275 11.8894 2.405 12.0039 2.5483 12.3152 2.9374 12.4454 3.433 12.5 4.1667L12.5 4.5833" stroke="currentColor" stroke-linecap="round" stroke-width="2"/>
</svg>
