<svg xmlns="http://www.w3.org/2000/svg" width="20" height="20" viewBox="0 0 20 20" fill="none">
  <path d="M2.7648 11.8637C3.5627 12.5 4.7363 12.5 7.0833 12.5 7.3135 12.5 7.5 12.6866 7.5 12.9167 7.5 15.2638 7.5 16.4372 8.1363 17.2352 8.2725 17.4059 8.4274 17.5608 8.5982 17.697 9.3961 18.3333 10.5696 18.3333 12.9167 18.3333 15.2638 18.3333 16.4372 18.3333 17.2352 17.697 17.4059 17.5608 17.5608 17.4059 17.697 17.2352 18.3333 16.4372 18.3333 15.2638 18.3333 12.9167 18.3333 10.5696 18.3333 9.3961 17.697 8.5982 17.5608 8.4274 17.4059 8.2725 17.2352 8.1363 16.4372 7.5 15.2638 7.5 12.9167 7.5 12.6866 7.5 12.5 7.3135 12.5 7.0833 12.5 4.7363 12.5 3.5627 11.8637 2.7648 11.7275 2.5941 11.5726 2.4392 11.4018 2.303 10.6039 1.6667 9.4304 1.6667 7.0833 1.6667 4.7363 1.6667 3.5627 1.6667 2.7648 2.303 2.5941 2.4392 2.4392 2.5941 2.303 2.7648 1.6667 3.5627 1.6667 4.7363 1.6667 7.0833 1.6667 9.4304 1.6667 10.6039 2.303 11.4018 2.4392 11.5726 2.5941 11.7275 2.7648 11.8637Z" stroke="currentColor" stroke-width="2"/>
</svg>
