<svg xmlns="http://www.w3.org/2000/svg" width="20" height="20" viewBox="0 0 20 20" fill="none">
  <path d="M8.134 8.5964C8.2704 8.4254 8.4254 8.2704 8.5964 8.134 9.2385 7.622 10.1235 7.5215 11.6662 7.5018 12.0601 7.4967 12.257 7.4942 12.3814 7.6186 12.5058 7.743 12.5032 7.9399 12.4983 8.3338 12.4786 9.8764 12.3782 10.7613 11.8661 11.4033 11.7297 11.5743 11.5747 11.7294 11.4038 11.8658 10.7617 12.3778 9.8766 12.4785 8.3338 12.4983 7.9399 12.5033 7.743 12.5058 7.6186 12.3814 7.4942 12.257 7.4967 12.0601 7.5018 11.6662 7.5215 10.1235 7.622 9.2385 8.134 8.5964Z" stroke="currentColor" stroke-linecap="round" stroke-linejoin="round" stroke-width="2"/>
  <path d="M18.3333 12.0833V13.75M13.75 18.3333H12.0833M18.3333 10C18.2788 9.2663 18.1485 8.7708 17.8373 8.3816 17.7228 8.2383 17.5924 8.1084 17.4488 7.9941 17.0598 7.6848 16.5648 7.5547 15.8333 7.5H15.4167M18.3333 15.8333C18.2786 16.5648 18.1485 17.0598 17.8392 17.4488 17.725 17.5924 17.595 17.7228 17.4518 17.8373 17.0626 18.1485 16.567 18.2788 15.8333 18.3333M10 18.3333C9.2685 18.2786 8.7735 18.1485 8.3846 17.8392 8.2409 17.725 8.1106 17.595 7.9961 17.4518 7.6848 17.0626 7.5546 16.567 7.5 15.8333L7.5 15.4167" stroke="currentColor" stroke-linecap="round" stroke-width="2"/>
  <path d="M1.6667 10C1.7212 10.7337 1.8515 11.2293 2.1627 11.6184 2.2773 11.7617 2.4076 11.8917 2.5513 12.0059 2.9402 12.3152 3.4351 12.4453 4.1667 12.5H4.5833M1.6667 4.1667C1.7214 3.4351 1.8515 2.9402 2.1608 2.5513 2.275 2.4076 2.405 2.2773 2.5483 2.1627 2.9374 1.8515 3.433 1.7212 4.1667 1.6667M10 1.6667C10.7315 1.7214 11.2265 1.8515 11.6154 2.1608 11.7591 2.275 11.8894 2.405 12.0039 2.5483 12.3152 2.9374 12.4454 3.433 12.5 4.1667V4.5833M1.6667 6.25L1.6667 7.9167M7.9167 1.6667L6.25 1.6667" stroke="currentColor" stroke-linecap="round" stroke-width="2"/>
</svg>
