<svg xmlns="http://www.w3.org/2000/svg" width="20" height="20" viewBox="0 0 20 20" fill="none">
  <path d="M7.5217 10.83C7.5731 9.7835 7.7185 9.1101 8.1302 8.5938 8.2664 8.423 8.4214 8.2681 8.5923 8.1318 9.1085 7.7201 9.7819 7.5747 10.8284 7.5233M14.1632 7.5C15.7063 7.5196 16.5912 7.6199 17.2331 8.1318 17.4039 8.2681 17.5588 8.423 17.6951 8.5938 18.3317 9.3922 18.3317 10.5662 18.3317 12.9143 18.3317 15.2623 18.3317 16.4364 17.6951 17.2347 17.5588 17.4055 17.4039 17.5605 17.2331 17.6968 16.4348 18.3333 15.2607 18.3333 12.9127 18.3333 10.5646 18.3333 9.3905 18.3333 8.5923 17.6968 8.4214 17.5605 8.2664 17.4055 8.1302 17.2347 7.6183 16.5928 7.518 15.7078 7.4984 14.1648" stroke="currentColor" stroke-linecap="round" stroke-width="2"/>
  <path d="M12.4767 9.17C12.4253 10.2165 12.2799 10.8899 11.8682 11.4062 11.7319 11.577 11.577 11.7319 11.4062 11.8682 10.8899 12.2799 10.2165 12.4253 9.17 12.4767M5.8352 12.5C4.2922 12.4803 3.4072 12.3801 2.7653 11.8682 2.5945 11.7319 2.4395 11.577 2.3033 11.4062 1.6667 10.6078 1.6667 9.4338 1.6667 7.0857 1.6667 4.7376 1.6667 3.5636 2.3033 2.7653 2.4395 2.5945 2.5945 2.4395 2.7653 2.3033 3.5636 1.6667 4.7376 1.6667 7.0857 1.6667 9.4338 1.6667 10.6078 1.6667 11.4062 2.3033 11.577 2.4395 11.7319 2.5945 11.8682 2.7653 12.3801 3.4072 12.4803 4.2922 12.5 5.8352" stroke="currentColor" stroke-linecap="round" stroke-width="2"/>
</svg>
