<svg xmlns="http://www.w3.org/2000/svg" width="20" height="20" viewBox="0 0 20 20" fill="none">
  <path d="M8.134 8.5964C8.2704 8.4254 8.4254 8.2704 8.5964 8.134 9.2385 7.622 10.1235 7.5215 11.6662 7.5018 12.0601 7.4967 12.257 7.4942 12.3814 7.6186 12.5058 7.743 12.5032 7.9399 12.4983 8.3338 12.4786 9.8764 12.3782 10.7613 11.8661 11.4033 11.7297 11.5743 11.5747 11.7294 11.4038 11.8658 10.7617 12.3778 9.8766 12.4785 8.3338 12.4983 7.9399 12.5033 7.743 12.5058 7.6186 12.3814 7.4942 12.257 7.4967 12.0601 7.5018 11.6662 7.5215 10.1235 7.622 9.2385 8.134 8.5964Z" stroke="currentColor" stroke-linecap="round" stroke-linejoin="round" stroke-width="2"/>
  <path d="M7.5 14.5789C7.5341 15.8698 7.6601 16.6517 8.1244 17.2339 8.2607 17.4048 8.4158 17.5599 8.5868 17.6962 9.3856 18.3333 10.5605 18.3333 12.9103 18.3333 15.2601 18.3333 16.435 18.3333 17.2339 17.6962 17.4048 17.5599 17.5599 17.4048 17.6962 17.2339 18.3333 16.435 18.3333 15.2601 18.3333 12.9103 18.3333 10.5605 18.3333 9.3856 17.6962 8.5868 17.5599 8.4158 17.4048 8.2607 17.2339 8.1244 16.6517 7.6601 15.8698 7.5341 14.5789 7.5" stroke="currentColor" stroke-linecap="round" stroke-width="2"/>
  <path d="M1.6667 10C1.7212 10.7337 1.8515 11.2293 2.1627 11.6184 2.2773 11.7617 2.4076 11.8917 2.5513 12.0059 2.9402 12.3152 3.4351 12.4453 4.1667 12.5H4.5833M1.6667 4.1667C1.7214 3.4351 1.8515 2.9402 2.1608 2.5513 2.275 2.4076 2.405 2.2773 2.5483 2.1627 2.9374 1.8515 3.433 1.7212 4.1667 1.6667M10 1.6667C10.7315 1.7214 11.2265 1.8515 11.6154 2.1608 11.7591 2.275 11.8894 2.405 12.0039 2.5483 12.3152 2.9374 12.4454 3.433 12.5 4.1667V4.5833M1.6667 6.25L1.6667 7.9167M7.9167 1.6667L6.25 1.6667" stroke="currentColor" stroke-linecap="round" stroke-width="2"/>
</svg>
