<svg xmlns="http://www.w3.org/2000/svg" width="20" height="20" viewBox="0 0 20 20" fill="none">
  <path d="M7.5 12.4998C7.3654 12.5 7.2265 12.5 7.0833 12.5 4.7363 12.5 3.5627 12.5 2.7648 11.8637 2.5941 11.7275 2.4392 11.5726 2.303 11.4018 1.6667 10.6039 1.6667 9.4304 1.6667 7.0833 1.6667 4.7363 1.6667 3.5627 2.303 2.7648 2.4392 2.5941 2.5941 2.4392 2.7648 2.303 3.5627 1.6667 4.7363 1.6667 7.0833 1.6667 9.4304 1.6667 10.6039 1.6667 11.4018 2.303 11.5726 2.4392 11.7275 2.5941 11.8637 2.7648 12.5 3.5627 12.5 4.7363 12.5 7.0833 12.5 7.2265 12.5 7.3654 12.4998 7.5" stroke="currentColor" stroke-linecap="round" stroke-width="2"/>
  <path d="M7.5 12.4998C7.5022 10.4277 7.5387 9.3473 8.1362 8.598 8.2723 8.4273 8.4273 8.2723 8.598 8.1362 9.3473 7.5387 10.4277 7.5022 12.4998 7.5" stroke="currentColor" stroke-linecap="round" stroke-width="2"/>
  <path d="M18.3333 12.0833V13.75M13.75 18.3333H12.0833M18.3333 10C18.2788 9.2663 18.1485 8.7708 17.8373 8.3816 17.7228 8.2383 17.5924 8.1084 17.4488 7.9941 17.0598 7.6848 16.5648 7.5547 15.8333 7.5H15.4167M18.3333 15.8333C18.2786 16.5648 18.1485 17.0598 17.8392 17.4488 17.725 17.5924 17.595 17.7228 17.4518 17.8373 17.0626 18.1485 16.567 18.2788 15.8333 18.3333M10 18.3333C9.2685 18.2786 8.7735 18.1485 8.3846 17.8392 8.2409 17.725 8.1106 17.595 7.9961 17.4518 7.6848 17.0626 7.5546 16.567 7.5 15.8333L7.5 15.4167" stroke="currentColor" stroke-linecap="round" stroke-width="2"/>
</svg>
