<svg xmlns="http://www.w3.org/2000/svg" width="20" height="20" viewBox="0 0 20 20" fill="none">
  <path d="M16.6667 18.3332V15.8333C16.6667 13.4763 16.6667 12.2977 15.9344 11.5655 15.2022 10.8333 14.0237 10.8333 11.6667 10.8333H8.3333C5.9763 10.8333 4.7978 10.8333 4.0656 11.5655 3.3333 12.2977 3.3333 13.4763 3.3333 15.8333 3.3333 16.6098 3.3333 16.9981 3.4602 17.3043 3.6294 17.7127 3.9538 18.0372 4.3622 18.2063 4.6685 18.3332 5.0568 18.3332 5.8333 18.3332" stroke="currentColor" stroke-linecap="round" stroke-linejoin="round" stroke-width="2"/>
  <path d="M7.9167 10.8333L10.4167 18.3332M5.8333 11.2499V18.3332" stroke="currentColor" stroke-linecap="round" stroke-linejoin="round" stroke-width="2"/>
  <path d="M10 15.8333H12.0833C12.7737 15.8333 13.3333 16.3929 13.3333 17.0832 13.3333 17.7736 12.7737 18.3332 12.0833 18.3332H10.4167" stroke="currentColor" stroke-linecap="round" stroke-linejoin="round" stroke-width="2"/>
  <path d="M12.9167 5.4166V4.5833C12.9167 2.9725 11.6108 1.6666 10 1.6666 8.3892 1.6666 7.0833 2.9725 7.0833 4.5833V5.4166C7.0833 7.0275 8.3892 8.3333 10 8.3333 11.6108 8.3333 12.9167 7.0275 12.9167 5.4166Z" stroke="currentColor" stroke-linecap="round" stroke-linejoin="round" stroke-width="2"/>
</svg>
