<svg xmlns="http://www.w3.org/2000/svg" width="20" height="20" viewBox="0 0 20 20" fill="none">
  <path d="M18.3333 13.3333C18.078 12.8226 17.556 12.5 16.985 12.5H3.015C2.444 12.5 1.922 12.8226 1.6667 13.3333" stroke="currentColor" stroke-linecap="round" stroke-width="2"/>
  <path d="M2.5 18.3333H17.5" stroke="currentColor" stroke-linecap="round" stroke-width="2"/>
  <path d="M4.1667 12.5V18.3333M7.9167 12.5V18.3333M12.0833 12.5V18.3333M15.8333 12.5V18.3333" stroke="currentColor" stroke-linecap="round" stroke-width="2"/>
  <path d="M10 5.8333L12.5 2.5M10 5.8333H5.4167M10 5.8333H14.5833M10 5.8333L7.5 2.5" stroke="currentColor" stroke-linecap="round" stroke-width="2"/>
  <path d="M5 6.6667C5 3.9052 7.2386 1.6667 10 1.6667 12.7614 1.6667 15 3.9052 15 6.6667V12.5H5V6.6667Z" stroke="currentColor" stroke-linecap="round" stroke-linejoin="round" stroke-width="2"/>
</svg>
