<svg xmlns="http://www.w3.org/2000/svg" width="20" height="20" viewBox="0 0 20 20" fill="none">
  <path d="M5 9.4448V17.9167M15 9.4467V17.9167M7.9167 17.9167L8.3388 15.3827C8.4384 14.7842 8.4883 14.4849 8.6219 14.2637 8.9538 13.7143 9.4869 13.7474 10 13.7474 10.5131 13.7474 11.0462 13.7143 11.3781 14.2637 11.5118 14.4849 11.5616 14.7842 11.6612 15.3827L12.0833 17.9167M2.5 17.9167H17.5M5.9337 9.5676C4.8464 9.5676 3.2582 9.0533 2.529 7.0921 4.4472 6.9819 8.5263 6.5258 10.0037 2.0833 11.5446 6.5953 15.56 6.9819 17.4783 7.0921 16.749 9.0533 15.1608 9.5676 14.0736 9.5676H5.9337Z" stroke="currentColor" stroke-linecap="round" stroke-linejoin="round" stroke-width="2"/>
</svg>
