<svg xmlns="http://www.w3.org/2000/svg" width="20" height="20" viewBox="0 0 20 20" fill="none">
  <path d="M5.8333 9.1667H5C2.2422 9.1667 1.6667 9.7423 1.6667 12.5V15C1.6667 17.7578 2.2422 18.3333 5 18.3333H15C17.7578 18.3333 18.3333 17.7578 18.3333 15V12.5C18.3333 10.6574 18.0764 9.789 17.0833 9.4156" stroke="currentColor" stroke-linecap="round" stroke-linejoin="round" stroke-width="2"/>
  <path d="M10 15L15 15" stroke="currentColor" stroke-linecap="round" stroke-linejoin="round" stroke-width="2"/>
  <path d="M14.3702 2.6108C14.7427 2.2065 14.9291 2.0044 15.127 1.8864 15.6047 1.6019 16.1929 1.5931 16.6785 1.8631 16.8798 1.975 17.0718 2.1715 17.4558 2.5643 17.8399 2.9572 18.0319 3.1537 18.1413 3.3596 18.4053 3.8564 18.3966 4.4581 18.1185 4.9468 18.0033 5.1493 17.8057 5.3399 17.4105 5.721L12.7087 10.2562C11.463 11.4578 10.6914 11.7069 8.966 11.6617 8.6528 11.6535 8.4962 11.6494 8.4052 11.5459 8.3141 11.4425 8.3265 11.2828 8.3513 10.9632 8.466 9.4901 8.7255 8.7353 9.7281 7.6476L14.3702 2.6108Z" stroke="currentColor" stroke-linejoin="round" stroke-width="2"/>
</svg>
