<svg xmlns="http://www.w3.org/2000/svg" width="20" height="20" viewBox="0 0 20 20" fill="none">
  <path d="M11.25 12.5H5C3.4286 12.5 2.643 12.5 2.1548 12.0118 1.6667 11.5237 1.6667 10.738 1.6667 9.1667V5.8333C1.6667 4.262 1.6667 3.4763 2.1548 2.9882 2.643 2.5 3.4286 2.5 5 2.5H15C16.5713 2.5 17.357 2.5 17.8452 2.9882 18.3333 3.4763 18.3333 4.262 18.3333 5.8333V10C18.3333 10.7766 18.3333 11.1648 18.2065 11.4712 18.0373 11.8795 17.7128 12.204 17.3045 12.3732 16.9982 12.5 16.6099 12.5 15.8333 12.5" stroke="currentColor" stroke-linecap="round" stroke-linejoin="round" stroke-width="2"/>
  <path d="M11.6667 7.5C11.6667 8.4204 10.9205 9.1667 10 9.1667 9.0795 9.1667 8.3333 8.4204 8.3333 7.5 8.3333 6.5795 9.0795 5.8333 10 5.8333 10.9205 5.8333 11.6667 6.5795 11.6667 7.5Z" stroke="currentColor" stroke-linecap="round" stroke-linejoin="round" stroke-width="2"/>
  <path d="M10.8333 14.1667C10.8333 12.7859 11.9526 11.6667 13.3333 11.6667V10C13.3333 8.6193 14.4526 7.5 15.8333 7.5V12.0833C15.8333 14.0288 15.8333 15.0016 15.4398 15.738 15.129 16.3194 14.6528 16.7957 14.0713 17.1064 13.3349 17.5 12.3622 17.5 10.4167 17.5H10C8.4468 17.5 7.6703 17.5 7.0577 17.2462 6.241 16.9079 5.5921 16.259 5.2537 15.4422 5 14.8297 5 14.0532 5 12.5" stroke="currentColor" stroke-linecap="round" stroke-linejoin="round" stroke-width="2"/>
</svg>
