<svg xmlns="http://www.w3.org/2000/svg" width="20" height="20" viewBox="0 0 20 20" fill="none">
  <path d="M5.2447 4.0292L3.4709 14.726C3.3216 15.6268 3.2469 16.0772 3.4952 16.372 3.7436 16.6667 4.1979 16.6667 5.1065 16.6667H5.4419C6.1276 16.6667 6.4704 16.6667 6.7042 16.4629 6.938 16.2591 6.9864 15.918 7.0834 15.2357L7.473 12.4945C7.5038 12.2778 7.5192 12.1694 7.5434 12.0767 7.717 11.4123 8.2783 10.9231 8.9571 10.8443 9.0518 10.8333 9.1608 10.8333 9.3786 10.8333H10.3469C12.9261 10.8333 15.1619 9.0394 15.7336 6.5115 16.2947 4.0298 14.418 1.6667 11.8859 1.6667H8.0193C7.0911 1.6667 6.627 1.6667 6.2615 1.8623 6.0525 1.9742 5.8698 2.1298 5.7256 2.3186 5.4735 2.6488 5.3972 3.1089 5.2447 4.0292Z" stroke="currentColor" stroke-width="2"/>
  <path d="M6.8693 16.2498L6.6788 17.3604C6.5915 17.8691 6.9878 18.3332 7.5094 18.3332H9.1682C9.5801 18.3332 9.9316 18.0387 9.9992 17.6368L10.6071 14.0295C10.6748 13.6278 11.0263 13.3332 11.4382 13.3332H12.9408C15.0917 13.3332 16.954 11.8556 17.4206 9.7788 17.7473 8.325 17.0364 6.9249 15.8333 6.2508" stroke="currentColor" stroke-width="2"/>
</svg>
