<svg xmlns="http://www.w3.org/2000/svg" width="20" height="20" viewBox="0 0 20 20" fill="none">
  <path d="M5 13.3333V6.6667C5 4.3096 5 3.1311 5.7322 2.3989 6.4645 1.6667 7.643 1.6667 10 1.6667 12.357 1.6667 13.5355 1.6667 14.2678 2.3989 15 3.1311 15 4.3096 15 6.6667V13.3333C15 15.6903 15 16.8688 14.2678 17.6011 13.5355 18.3333 12.357 18.3333 10 18.3333 7.643 18.3333 6.4645 18.3333 5.7322 17.6011 5 16.8688 5 15.6903 5 13.3333Z" stroke="currentColor" stroke-linecap="round" stroke-linejoin="round" stroke-width="2"/>
  <path d="M8.3333 5H11.6667" stroke="currentColor" stroke-linecap="round" stroke-linejoin="round" stroke-width="2"/>
  <path d="M8.3333 8.3333H11.6667" stroke="currentColor" stroke-linecap="round" stroke-linejoin="round" stroke-width="2"/>
  <path d="M10.1042 15H10M10.2083 15C10.2083 15.1151 10.1151 15.2083 10 15.2083 9.8849 15.2083 9.7917 15.1151 9.7917 15 9.7917 14.8849 9.8849 14.7917 10 14.7917 10.1151 14.7917 10.2083 14.8849 10.2083 15Z" stroke="currentColor" stroke-linecap="round" stroke-linejoin="round" stroke-width="2"/>
</svg>
