<svg xmlns="http://www.w3.org/2000/svg" width="20" height="20" viewBox="0 0 20 20" fill="none">
  <path d="M15.8333 9.1667C15.8333 8.4854 15.8333 7.8588 15.7065 7.5526 15.5796 7.2463 15.3388 7.0054 14.857 6.5237L10.9099 2.5766C10.4942 2.1608 10.2863 1.953 10.0288 1.8298 9.9752 1.8042 9.9203 1.7814 9.8643 1.7617 9.5951 1.6667 9.3012 1.6667 8.7132 1.6667 6.009 1.6667 4.6569 1.6667 3.7411 2.4051 3.5561 2.5542 3.3876 2.7228 3.2384 2.9078 2.5 3.8236 2.5 5.1757 2.5 7.8799V11.6667C2.5 14.8093 2.5 16.3808 3.4763 17.357 4.4526 18.3333 6.024 18.3333 9.1667 18.3333H15.8333M10 2.0833V2.5C10 4.857 10 6.0355 10.7323 6.7678 11.4645 7.5 12.643 7.5 15 7.5H15.4167" stroke="currentColor" stroke-linecap="round" stroke-linejoin="round" stroke-width="2"/>
  <path d="M17.5 11.6667H15.8333C15.3731 11.6667 15 12.0397 15 12.5V13.75M15 13.75V15.8333M15 13.75H17.0833M5.8333 15.8333V14.1667M5.8333 14.1667V11.6667H7.0833C7.7737 11.6667 8.3333 12.2263 8.3333 12.9167 8.3333 13.607 7.7737 14.1667 7.0833 14.1667H5.8333ZM10.4167 11.6667H11.4881C12.2771 11.6667 12.9167 12.2885 12.9167 13.0556V14.4444C12.9167 15.2115 12.2771 15.8333 11.4881 15.8333H10.4167V11.6667Z" stroke="currentColor" stroke-linecap="round" stroke-linejoin="round" stroke-width="2"/>
</svg>
