<svg xmlns="http://www.w3.org/2000/svg" width="20" height="20" viewBox="0 0 20 20" fill="none">
  <path d="M4.6 2.5C3.9135 2.5 3.3569 3.0598 3.3569 3.7504 3.3569 4.441 3.9135 5.0008 4.6 5.0008 5.2865 5.0008 5.8431 4.441 5.8431 3.7504 5.8431 3.0598 5.2865 2.5 4.6 2.5Z" stroke="currentColor" stroke-linecap="round" stroke-linejoin="round" stroke-width="2"/>
  <path d="M15.4017 17.5002H13.9198C13.7477 17.5002 13.5748 17.475 13.4168 17.4043 12.9022 17.1743 12.6411 16.8705 12.5194 16.6804 12.4502 16.5723 12.4601 16.4346 12.5352 16.3308 13.1313 15.5068 14.5137 15.009 15.4017 15.009M15.4043 17.5002H16.8863C17.0584 17.5002 17.2312 17.475 17.3893 17.4043 17.9039 17.1743 18.165 16.8705 18.2867 16.6804 18.3559 16.5723 18.3461 16.4346 18.2709 16.3308 17.6748 15.5068 16.2924 15.009 15.4043 15.009" stroke="currentColor" stroke-linecap="round" stroke-linejoin="round" stroke-width="2"/>
  <path d="M4.5957 9.577H3.1137C2.9416 9.577 2.7688 9.5518 2.6107 9.4812 2.0961 9.2511 1.835 8.9473 1.7134 8.7572 1.6441 8.6491 1.654 8.5113 1.7291 8.4076 2.3253 7.5836 3.7076 7.0858 4.5957 7.0858M4.5982 9.577H6.0802C6.2523 9.577 6.4252 9.5518 6.5832 9.4812 7.0978 9.2511 7.3589 8.9473 7.4806 8.7572 7.5498 8.6491 7.54 8.5113 7.4649 8.4076 6.8687 7.5836 5.4863 7.0858 4.5982 7.0858" stroke="currentColor" stroke-linecap="round" stroke-linejoin="round" stroke-width="2"/>
  <path d="M9.5723 3.3333C11.9162 3.3333 13.917 3.3333 14.6452 4.0658 15.3733 4.7983 15.3733 5.5604 15.3733 7.9181L13.7159 7.0845" stroke="currentColor" stroke-linecap="round" stroke-linejoin="round" stroke-width="2"/>
  <path d="M9.9868 16.6714C7.6428 16.6714 5.6421 16.6714 4.914 15.9389 4.1858 15.2064 4.1858 14.4443 4.1858 12.0866L5.8432 12.9202" stroke="currentColor" stroke-linecap="round" stroke-linejoin="round" stroke-width="2"/>
  <path d="M15.3731 10.4191C14.6866 10.4191 14.1301 10.979 14.1301 11.6695 14.1301 12.3601 14.6866 12.9199 15.3731 12.9199 16.0597 12.9199 16.6162 12.3601 16.6162 11.6695 16.6162 10.979 16.0597 10.4191 15.3731 10.4191Z" stroke="currentColor" stroke-linecap="round" stroke-linejoin="round" stroke-width="2"/>
</svg>
