<svg xmlns="http://www.w3.org/2000/svg" width="20" height="20" viewBox="0 0 20 20" fill="none">
  <path d="M5 6.6667H5.8333C7.0118 6.6667 7.6011 6.6667 7.9672 6.3006 8.3333 5.9344 8.3333 5.3452 8.3333 4.1667 8.3333 2.9882 8.3333 2.3989 7.9672 2.0328 7.6011 1.6667 7.0118 1.6667 5.8333 1.6667H4.1667C2.9882 1.6667 2.3989 1.6667 2.0328 2.0328 1.6667 2.3989 1.6667 2.9882 1.6667 4.1667 1.6667 5.3452 1.6667 5.9344 2.0328 6.3006 2.3989 6.6667 2.9882 6.6667 4.1667 6.6667H5ZM5 6.6667V8.75M5 8.75H6.25M5 8.75H3.75" stroke="currentColor" stroke-linecap="round" stroke-width="2"/>
  <path d="M10.8333 4.1667C13.1903 4.1667 14.3688 4.1667 15.1011 4.8989 15.8333 5.6311 15.8333 6.8096 15.8333 9.1667L14.1667 8.3333" stroke="currentColor" stroke-linecap="round" stroke-linejoin="round" stroke-width="2"/>
  <path d="M9.1667 15.8333C6.8096 15.8333 5.6311 15.8333 4.8989 15.1011 4.1667 14.3688 4.1667 13.1903 4.1667 10.8333L5.8333 11.6667" stroke="currentColor" stroke-linecap="round" stroke-linejoin="round" stroke-width="2"/>
  <path d="M15 16.25H15.8333C17.0118 16.25 17.6011 16.25 17.9672 15.8839 18.3333 15.5178 18.3333 14.9285 18.3333 13.75 18.3333 12.5715 18.3333 11.9823 17.9672 11.6161 17.6011 11.25 17.0118 11.25 15.8333 11.25H14.1667C12.9882 11.25 12.3989 11.25 12.0328 11.6161 11.6667 11.9823 11.6667 12.5715 11.6667 13.75 11.6667 14.9285 11.6667 15.5178 12.0328 15.8839 12.3989 16.25 12.9882 16.25 14.1667 16.25H15ZM15 16.25V18.3333M15 18.3333H16.25M15 18.3333H13.75" stroke="currentColor" stroke-linecap="round" stroke-width="2"/>
</svg>
