<svg xmlns="http://www.w3.org/2000/svg" width="20" height="20" viewBox="0 0 20 20" fill="none">
  <path d="M2.9165 15.8211V17.0833H4.1787C5.2006 17.0833 5.7116 17.0833 6.171 16.893 6.6304 16.7027 6.9917 16.3414 7.7143 15.6188L15.9342 7.3989C16.6698 6.6634 17.0374 6.2957 17.0781 5.8444 17.0848 5.7698 17.0848 5.6947 17.0781 5.6201 17.0374 5.1688 16.6698 4.801 15.9342 4.0656 15.1987 3.3301 14.831 2.9624 14.3798 2.9217 14.3051 2.915 14.2301 2.915 14.1554 2.9217 13.7041 2.9624 13.3364 3.3301 12.6009 4.0656L4.3809 12.2855C3.6584 13.0081 3.2971 13.3694 3.1068 13.8288 2.9165 14.2883 2.9165 14.7992 2.9165 15.8211Z" stroke="currentColor" stroke-linecap="round" stroke-linejoin="round" stroke-width="2"/>
  <path d="M11.25 5.4167L14.5833 8.75" stroke="currentColor" stroke-linecap="round" stroke-linejoin="round" stroke-width="2"/>
</svg>
