<svg xmlns="http://www.w3.org/2000/svg" width="20" height="20" viewBox="0 0 20 20" fill="none">
  <path d="M2.5 17.5L3.2147 14.9986C3.2925 14.7263 3.4384 14.4782 3.6387 14.2779L15.1718 2.7441C15.4972 2.4186 16.0249 2.4186 16.3503 2.7441L17.2552 3.6489C17.5806 3.9743 17.5806 4.502 17.2552 4.8274L5.7221 16.3613C5.5218 16.5616 5.2738 16.7075 5.0014 16.7853L2.5 17.5Z" stroke="currentColor" stroke-linecap="round" stroke-linejoin="round" stroke-width="2"/>
  <path d="M13.3333 4.5821L15.3155 6.5644C16.1488 7.3977 16.5655 7.8143 16.5655 8.3321 16.5655 8.8499 16.1488 9.2666 15.3155 10.0999L14.5833 10.8321" stroke="currentColor" stroke-linecap="round" stroke-linejoin="round" stroke-width="2"/>
  <path d="M7.0833 10.8321L9.1666 12.9154" stroke="currentColor" stroke-linecap="round" stroke-linejoin="round" stroke-width="2"/>
</svg>
