<svg xmlns="http://www.w3.org/2000/svg" width="20" height="20" viewBox="0 0 20 20" fill="none">
  <path d="M13.37 9.1667L16.0948 11.8915C16.9498 12.7465 17.3773 13.174 17.4721 13.6882 17.5093 13.8898 17.5093 14.0965 17.4721 14.2981 17.3773 14.8123 16.9498 15.2398 16.0948 16.0948 15.2398 16.9498 14.8123 17.3773 14.2981 17.4721 14.0965 17.5093 13.8898 17.5093 13.6882 17.4721 13.174 17.3773 12.7465 16.9498 11.8915 16.0948L9.1667 13.37M6.5359 10.7393L3.9052 8.1085C3.0502 7.2535 2.6227 6.826 2.5279 6.3118 2.4907 6.1102 2.4907 5.9035 2.5279 5.7019 2.6227 5.1877 3.0502 4.7602 3.9052 3.9052 4.7602 3.0502 5.1877 2.6227 5.7019 2.5279 5.9035 2.4907 6.1102 2.4907 6.3118 2.5279 6.826 2.6227 7.2535 3.0502 8.1085 3.9052L10.8333 6.63" stroke="currentColor" stroke-linecap="round" stroke-linejoin="round" stroke-width="2"/>
  <path d="M12.9167 4.5833L14.5581 2.9419C14.841 2.659 15.2248 2.5 15.625 2.5 16.0252 2.5 16.409 2.659 16.6919 2.9419L17.0581 3.3081C17.341 3.591 17.5 3.9748 17.5 4.375 17.5 4.7752 17.341 5.159 17.0581 5.4419L15.4167 7.0833" stroke="currentColor" stroke-linecap="round" stroke-linejoin="round" stroke-width="2"/>
  <path d="M6.1387 16.3609L15.4167 7.0833 12.9167 4.5833 3.6387 13.8609C3.4384 14.0613 3.2925 14.3093 3.2147 14.5816L2.5141 17.0338C2.5047 17.0664 2.5 17.1002 2.5 17.1342 2.5 17.336 2.6636 17.4997 2.8655 17.4997 2.8994 17.4997 2.9332 17.4949 2.9659 17.4856L5.4181 16.7849C5.6904 16.7072 5.9384 16.5613 6.1387 16.3609Z" stroke="currentColor" stroke-linecap="round" stroke-linejoin="round" stroke-width="2"/>
  <path d="M8.3333 4.1667L7.0833 5.4167M15.8333 11.6667L14.5833 12.9167" stroke="currentColor" stroke-linecap="round" stroke-linejoin="round" stroke-width="2"/>
</svg>
