<svg xmlns="http://www.w3.org/2000/svg" width="20" height="20" viewBox="0 0 20 20" fill="none">
  <path d="M4.4632 5.8762L6.7706 7.468C7.2561 7.803 7.4988 7.9704 7.5 8.1926 7.5012 8.4147 7.2603 8.5841 6.7784 8.9227L6.298 9.2602C5.5043 9.8179 5.1074 10.0968 4.7853 9.9696 4.4632 9.8424 4.4632 9.4068 4.4632 8.5356V5.8762ZM4.4632 5.8762L4.4011 5.8333M4.4632 5.8762V5.7905M4.4011 5.8333L1.6667 3.9469M4.4011 5.8333L4.4632 5.7905M4.4011 5.8333L1.6667 7.7198M4.4632 5.7905L6.7706 4.1986C7.2561 3.8637 7.4988 3.6963 7.5 3.4741 7.5012 3.2519 7.2603 3.0826 6.7784 2.744L6.298 2.4064C5.5043 1.8487 5.1074 1.5699 4.7853 1.6971 4.4632 1.8243 4.4632 2.2599 4.4632 3.1311V5.7905Z" stroke="currentColor" stroke-linecap="round" stroke-linejoin="round" stroke-width="2"/>
  <path d="M14.3451 6.652L15.5132 5.4839C16.1583 4.8387 17.2043 4.8387 17.8495 5.4839 18.4946 6.129 18.4946 7.175 17.8495 7.8201L16.6813 8.9883M14.3451 6.652L7.4835 13.5136C6.6124 14.3847 6.1769 14.8202 5.8803 15.3509 5.5837 15.8817 5.4411 16.4809 5.1557 17.6792L5 18.3333 5.6541 18.1776C6.8525 17.8923 7.4517 17.7496 7.9824 17.453 8.5132 17.1564 8.9487 16.7209 9.8198 15.8498L16.6813 8.9883M14.3451 6.652L16.6813 8.9883" stroke="currentColor" stroke-linecap="round" stroke-linejoin="round" stroke-width="2"/>
</svg>
