<svg xmlns="http://www.w3.org/2000/svg" width="20" height="20" viewBox="0 0 20 20" fill="none">
  <path d="M13.6874 3.8376L14.5124 3.0126C15.1959 2.3291 16.304 2.3291 16.9874 3.0126 17.6708 3.696 17.6708 4.8041 16.9874 5.4876L16.1624 6.3125M13.6874 3.8376L8.138 9.387C7.7151 9.81 7.415 10.3398 7.27 10.9201L6.6667 13.3333 9.0799 12.73C9.6602 12.585 10.19 12.2849 10.613 11.862L16.1624 6.3125M13.6874 3.8376L16.1624 6.3125" stroke="currentColor" stroke-linejoin="round" stroke-width="2"/>
  <path d="M15.8333 11.25C15.8333 13.9896 15.8333 15.3593 15.0767 16.2813 14.9382 16.4501 14.7834 16.6048 14.6146 16.7433 13.6927 17.5 12.3228 17.5 9.5833 17.5H9.1667C6.024 17.5 4.4526 17.5 3.4763 16.5237 2.5 15.5474 2.5 13.976 2.5 10.8333V10.4167C2.5 7.6771 2.5 6.3073 3.2566 5.3854 3.3951 5.2166 3.5499 5.0618 3.7187 4.9233 4.6407 4.1667 6.0104 4.1667 8.75 4.1667" stroke="currentColor" stroke-linecap="round" stroke-linejoin="round" stroke-width="2"/>
</svg>
