<svg xmlns="http://www.w3.org/2000/svg" width="20" height="20" viewBox="0 0 20 20" fill="none">
  <path d="M16.6813 8.9883L9.8198 15.8498C8.9487 16.7209 8.5132 17.1564 7.9824 17.453 7.4517 17.7496 6.8525 17.8923 5.6541 18.1776L5 18.3333 5.1557 17.6792C5.4411 16.4809 5.5837 15.8817 5.8803 15.3509 6.1769 14.8202 6.6124 14.3847 7.4835 13.5136L14.3451 6.652 15.5132 5.4839C16.1583 4.8387 17.2043 4.8387 17.8495 5.4839 18.4946 6.129 18.4946 7.175 17.8495 7.8201L16.6813 8.9883ZM14.3451 6.652L16.6813 8.9883" stroke="currentColor" stroke-linecap="round" stroke-linejoin="round" stroke-width="2"/>
  <path d="M1.6667 3.5417C1.3215 3.5417 1.0417 3.8215 1.0417 4.1667 1.0417 4.5118 1.3215 4.7917 1.6667 4.7917V3.5417ZM7.2596 4.3643C7.3687 4.0368 7.1918 3.6829 6.8643 3.5737 6.5368 3.4646 6.1829 3.6416 6.0737 3.969L7.2596 4.3643ZM6.2132 5.5271L6.8061 5.7247V5.7247L6.2132 5.5271ZM4.5833 6.0417C4.2382 6.0417 3.9583 6.3215 3.9583 6.6667 3.9583 7.0118 4.2382 7.2917 4.5833 7.2917V6.0417ZM5.72 6.5094L6.0854 7.0164V7.0164L5.72 6.5094ZM4.8237 4.3643C4.9329 4.6918 5.2868 4.8688 5.6143 4.7596 5.9418 4.6504 6.1188 4.2965 6.0096 3.969L4.8237 4.3643ZM4.9632 2.8063L5.5561 2.6086V2.6086L4.9632 2.8063ZM3.3333 1.0417C2.9882 1.0417 2.7083 1.3215 2.7083 1.6667 2.7083 2.0118 2.9882 2.2917 3.3333 2.2917V1.0417ZM4.47 1.824L4.1045 2.331 4.1045 2.331 4.47 1.824ZM8.3333 3.5417H1.6667V4.7917H8.3333V3.5417ZM6.0737 3.969L5.6203 5.3294 6.8061 5.7247 7.2596 4.3643 6.0737 3.969ZM4.6321 6.0417H4.5833V7.2917H4.6321V6.0417ZM5.6203 5.3294C5.5241 5.6181 5.4676 5.7845 5.413 5.9019 5.3884 5.9548 5.3714 5.981 5.3624 5.9931 5.3582 5.9988 5.3558 6.0012 5.3553 6.0017 5.3549 6.0021 5.3548 6.0021 5.3545 6.0023L6.0854 7.0164C6.3128 6.8525 6.448 6.6406 6.5464 6.4291 6.638 6.2321 6.719 5.986 6.8061 5.7247L5.6203 5.3294ZM4.6321 7.2917C4.9076 7.2917 5.1667 7.2926 5.3825 7.268 5.6143 7.2415 5.858 7.1803 6.0854 7.0164L5.3545 6.0023C5.3542 6.0026 5.3541 6.0026 5.3536 6.0029 5.353 6.0032 5.35 6.0047 5.3433 6.0069 5.3289 6.0116 5.2987 6.0194 5.2407 6.026 5.1121 6.0407 4.9364 6.0417 4.6321 6.0417V7.2917ZM6.0096 3.969L5.5561 2.6086 4.3703 3.0039 4.8237 4.3643 6.0096 3.969ZM3.3821 1.0417H3.3333V2.2917H3.3821V1.0417ZM5.5561 2.6086C5.469 2.3473 5.388 2.1012 5.2964 1.9042 5.198 1.6927 5.0628 1.4809 4.8354 1.3169L4.1045 2.331C4.1048 2.3312 4.1049 2.3313 4.1053 2.3317 4.1058 2.3322 4.1082 2.3346 4.1124 2.3402 4.1214 2.3523 4.1384 2.3785 4.163 2.4315 4.2176 2.5489 4.2741 2.7153 4.3703 3.0039L5.5561 2.6086ZM3.3821 2.2917C3.6864 2.2917 3.8621 2.2926 3.9907 2.3073 4.0487 2.3139 4.0789 2.3217 4.0933 2.3264 4.1 2.3287 4.103 2.3301 4.1036 2.3304 4.1041 2.3307 4.1042 2.3308 4.1045 2.331L4.8354 1.3169C4.608 1.153 4.3643 1.0918 4.1325 1.0654 3.9167 1.0407 3.6576 1.0417 3.3821 1.0417V2.2917ZM9.1667 3.9583C9.2818 3.9583 9.375 4.0516 9.375 4.1667H10.625C10.625 3.3613 9.9721 2.7083 9.1667 2.7083V3.9583ZM9.375 4.1667C9.375 4.2817 9.2818 4.375 9.1667 4.375V5.625C9.9721 5.625 10.625 4.9721 10.625 4.1667H9.375ZM9.1667 4.375C9.0516 4.375 8.9583 4.2817 8.9583 4.1667H7.7083C7.7083 4.9721 8.3613 5.625 9.1667 5.625V4.375ZM8.9583 4.1667C8.9583 4.0516 9.0516 3.9583 9.1667 3.9583V2.7083C8.3613 2.7083 7.7083 3.3613 7.7083 4.1667H8.9583Z" fill="currentColor"/>
</svg>
