<svg xmlns="http://www.w3.org/2000/svg" width="20" height="20" viewBox="0 0 20 20" fill="none">
  <path d="M7.0318 3.2769C8.4637 2.2034 9.1796 1.6667 10 1.6667 10.8204 1.6667 11.5363 2.2034 12.9682 3.2769L15.8367 5.4274C17.2685 6.5009 17.9845 7.0376 18.238 7.8427 18.4915 8.6478 18.218 9.5162 17.6711 11.2532L16.5754 14.7328C16.0285 16.4697 15.7551 17.3382 15.0913 17.8358 14.4277 18.3333 13.5427 18.3333 11.7728 18.3333H8.2272C6.4573 18.3333 5.5724 18.3333 4.9086 17.8358 4.2449 17.3382 3.9715 16.4697 3.4245 14.7328L2.3289 11.2532C1.782 9.5162 1.5085 8.6478 1.762 7.8427 2.0155 7.0376 2.7315 6.5009 4.1633 5.4274L7.0318 3.2769Z" stroke="currentColor" stroke-width="2"/>
</svg>
