<svg xmlns="http://www.w3.org/2000/svg" width="20" height="20" viewBox="0 0 20 20" fill="none">
  <path d="M11.071 16.1373L4.852 17.2922C3.6592 17.5137 3.0628 17.6244 2.7192 17.2808 2.3756 16.9372 2.4864 16.3407 2.7079 15.1478L3.8627 8.9286C4.0479 7.9314 4.1405 7.4327 4.4692 7.1314 4.7979 6.8301 5.3991 6.7713 6.6014 6.6537 7.7602 6.5404 8.8569 6.1431 10 5L15 10.0004C13.8569 11.1436 13.4594 12.2395 13.3459 13.3984 13.2282 14.6009 13.1693 15.2022 12.868 15.5308 12.5668 15.8595 12.0682 15.9521 11.071 16.1373Z" stroke="currentColor" stroke-linejoin="round" stroke-width="2"/>
  <path d="M9.1667 12.6754C8.7004 12.5998 8.2741 12.3969 7.9386 12.0614M7.9386 12.0614C7.6031 11.7259 7.4003 11.2996 7.3246 10.8333M7.9386 12.0614L3.3333 16.6667" stroke="currentColor" stroke-linecap="round" stroke-width="2"/>
  <path d="M10 5C10.5936 4.1242 11.3976 2.651 12.5888 2.5091 13.4018 2.4123 14.0755 3.0859 15.4227 4.4332L15.5668 4.5773C16.9141 5.9245 17.5877 6.5981 17.4908 7.4112 17.349 8.6024 15.8758 9.4064 15 10" stroke="currentColor" stroke-linejoin="round" stroke-width="2"/>
</svg>
