<svg xmlns="http://www.w3.org/2000/svg" width="20" height="20" viewBox="0 0 20 20" fill="none">
  <path d="M12.1663 15.8114L6.3619 16.8893C5.2486 17.0961 4.6919 17.1994 4.3712 16.8788 4.0506 16.5581 4.1539 16.0013 4.3607 14.888L5.4385 9.0834C5.6114 8.1526 5.6978 7.6872 6.0046 7.406 6.3114 7.1248 6.8725 7.0699 7.9947 6.9602 9.0763 6.8544 10.0998 6.4836 11.1667 5.4167L15.8333 10.0838C14.7664 11.1507 14.3955 12.1736 14.2895 13.2552 14.1796 14.3775 14.1246 14.9387 13.8434 15.2454 13.5623 15.5522 13.0969 15.6386 12.1663 15.8114Z" stroke="currentColor" stroke-linejoin="round" stroke-width="2"/>
  <path d="M10.8333 12.2588C10.3671 12.1831 9.9408 11.9803 9.6053 11.6448M9.6053 11.6448C9.2698 11.3093 9.0669 10.8829 8.9913 10.4167M9.6053 11.6448L5 16.25" stroke="currentColor" stroke-linecap="round" stroke-width="2"/>
  <path d="M11.25 5.4167C11.7777 4.6382 12.9089 3.0509 13.9677 2.9248 14.6906 2.8387 15.2893 3.4375 16.4868 4.635L16.615 4.7632C17.8125 5.9607 18.4112 6.5595 18.3252 7.2822 18.1991 8.341 16.6118 9.4723 15.8333 10" stroke="currentColor" stroke-linejoin="round" stroke-width="2"/>
  <path d="M1.6667 2.9167H6.6667" stroke="currentColor" stroke-linecap="round" stroke-width="2"/>
</svg>
