<svg xmlns="http://www.w3.org/2000/svg" width="20" height="20" viewBox="0 0 20 20" fill="none">
  <path d="M5.1736 4.5042C7.4817 2.6125 8.6357 1.6667 10 1.6667 11.3643 1.6667 12.5183 2.6125 14.8264 4.5042L15.0403 4.6796C16.945 6.2406 17.8973 7.0212 18.219 8.1177 18.5407 9.2143 18.1579 10.3753 17.3924 12.697L17.2403 13.1584C16.4228 15.6378 16.0141 16.8776 15.022 17.5878 13.6465 18.5727 11.5836 18.2982 10 18.2982 7.3546 18.2982 5.97 18.2982 4.978 17.5878 3.986 16.8776 3.5772 15.6378 2.7597 13.1584L2.6076 12.697C1.8421 10.3753 1.4593 9.2143 1.781 8.1177 2.1027 7.0212 3.055 6.2406 4.9596 4.6796L5.1736 4.5042Z" stroke="currentColor" stroke-width="2"/>
</svg>
