<svg xmlns="http://www.w3.org/2000/svg" width="20" height="20" viewBox="0 0 20 20" fill="none">
  <path d="M13.6846 5.8333C13.9023 4.8483 14.593 3.1703 13.7832 2.2767 13.2304 1.6667 12.1907 1.6667 10.1113 1.6667L9.8887 1.6667C7.8093 1.6667 6.7696 1.6667 6.2168 2.2767 5.407 3.1703 6.0977 4.8483 6.3155 5.8333" stroke="currentColor" stroke-linecap="round" stroke-linejoin="round" stroke-width="2"/>
  <path d="M15.0057 12.2105L11.489 16.9653C10.8145 17.8773 10.4772 18.3333 10 18.3333 9.5228 18.3333 9.1856 17.8773 8.511 16.9653L4.9944 12.2105C4.4305 11.4481 4.1485 11.0668 4.1676 10.6606 4.1866 10.2543 4.5633 9.8288 5.3166 8.9777 6.0426 8.1574 6.3155 7.3079 6.3155 5.8337L13.6846 5.8333C13.6846 7.3075 13.9578 8.1571 14.6836 8.9776 15.4368 9.8289 15.8134 10.2545 15.8324 10.6608 15.8514 11.0669 15.5695 11.4481 15.0057 12.2105Z" stroke="currentColor" stroke-linecap="round" stroke-linejoin="round" stroke-width="2"/>
  <path d="M11.25 11.6667C10.8823 11.9317 10.4553 12.0833 10 12.0833M10 12.0833C9.5447 12.0833 9.1178 11.9317 8.75 11.6667M10 12.0833L10 18.3333" stroke="currentColor" stroke-linecap="round" stroke-width="2"/>
</svg>
