<svg xmlns="http://www.w3.org/2000/svg" width="20" height="20" viewBox="0 0 20 20" fill="none">
  <path d="M2.0833 10C2.0833 6.268 2.0833 4.4021 3.2427 3.2427 4.4021 2.0833 6.268 2.0833 10 2.0833 13.7319 2.0833 15.5979 2.0833 16.7573 3.2427 17.9167 4.4021 17.9167 6.268 17.9167 10 17.9167 13.7319 17.9167 15.5979 16.7573 16.7573 15.5979 17.9167 13.7319 17.9167 10 17.9167 6.268 17.9167 4.4021 17.9167 3.2427 16.7573 2.0833 15.5979 2.0833 13.7319 2.0833 10Z" stroke="currentColor" stroke-linejoin="round" stroke-width="2"/>
  <path d="M6.6667 13.3333L13.3333 6.6667M8.3333 7.5C8.3333 7.9602 7.9602 8.3333 7.5 8.3333 7.0398 8.3333 6.6667 7.9602 6.6667 7.5 6.6667 7.0398 7.0398 6.6667 7.5 6.6667 7.9602 6.6667 8.3333 7.0398 8.3333 7.5ZM13.3333 12.357C13.3333 12.8172 12.9603 13.1903 12.5 13.1903 12.0397 13.1903 11.6667 12.8172 11.6667 12.357 11.6667 11.8968 12.0397 11.5237 12.5 11.5237 12.9603 11.5237 13.3333 11.8968 13.3333 12.357Z" stroke="currentColor" stroke-linecap="round" stroke-width="2"/>
</svg>
