<svg xmlns="http://www.w3.org/2000/svg" width="20" height="20" viewBox="0 0 20 20" fill="none">
  <path d="M6.6667 13.3333L13.3333 6.6667M8.3333 7.5C8.3333 7.9602 7.9602 8.3333 7.5 8.3333 7.0398 8.3333 6.6667 7.9602 6.6667 7.5 6.6667 7.0398 7.0398 6.6667 7.5 6.6667 7.9602 6.6667 8.3333 7.0398 8.3333 7.5ZM13.3333 12.357C13.3333 12.8172 12.9603 13.1903 12.5 13.1903 12.0397 13.1903 11.6667 12.8172 11.6667 12.357 11.6667 11.8968 12.0397 11.5237 12.5 11.5237 12.9603 11.5237 13.3333 11.8968 13.3333 12.357Z" stroke="currentColor" stroke-linecap="round" stroke-width="2"/>
  <circle cx="10" cy="10" r="8.333333333333334" stroke="currentColor" stroke-width="2"/>
</svg>
