<svg xmlns="http://www.w3.org/2000/svg" width="20" height="20" viewBox="0 0 20 20" fill="none">
  <path d="M1.6667 13.3611C1.6667 14.9974 2.3027 16.4861 3.3423 17.5959 3.9208 18.2135 4.4379 18.3333 5.2741 18.3333H10.5593C11.3954 18.3333 11.9125 18.2135 12.491 17.5959 13.5307 16.4861 14.1667 14.9974 14.1667 13.3611 14.1667 10.8554 12.6754 8.6962 10.5273 7.7128 10.1598 7.5446 9.8347 7.5 9.4313 7.5H6.402C5.9986 7.5 5.6735 7.5446 5.306 7.7128 3.1579 8.6962 1.6667 10.8554 1.6667 13.3611Z" stroke="currentColor" stroke-linecap="round" stroke-linejoin="round" stroke-width="2"/>
  <path d="M5.8333 7.5V6.6667C5.8333 5.2878 6.1211 5 7.5 5H8.3333C9.7123 5 10 5.2878 10 6.6667V7.5" stroke="currentColor" stroke-linejoin="round" stroke-width="2"/>
  <path d="M9.1667 5V3.75C9.1667 2.8755 8.8558 2.5 7.9167 2.5 6.9776 2.5 6.6667 2.8755 6.6667 3.75V5" stroke="currentColor" stroke-linejoin="round" stroke-width="2"/>
  <circle cx="15.833333333333334" cy="4.166666666666667" r="2.5" stroke="currentColor" stroke-linecap="round" stroke-linejoin="round" stroke-width="2"/>
  <path d="M5 3.3333H6.6667M9.1667 3.3333H13.3333" stroke="currentColor" stroke-linecap="round" stroke-linejoin="round" stroke-width="2"/>
</svg>
