<svg xmlns="http://www.w3.org/2000/svg" width="20" height="20" viewBox="0 0 20 20" fill="none">
  <path d="M10 1.6667C6.3181 1.6667 3.3333 4.6815 3.3333 8.4006 3.3333 10.5271 4.1667 12.1806 5.8333 13.6575 7.0081 14.6985 8.4313 16.4276 9.2858 17.8293 9.6955 18.5013 10.275 18.5013 10.7143 17.8293 11.612 16.4555 12.9919 14.6985 14.1667 13.6575 15.8333 12.1806 16.6667 10.5271 16.6667 8.4006 16.6667 4.6815 13.6819 1.6667 10 1.6667Z" stroke="currentColor" stroke-linejoin="round" stroke-width="2"/>
  <path d="M10 11.6667C11.8409 11.6667 13.3333 10.1743 13.3333 8.3333 13.3333 6.4924 11.8409 5 10 5 9.865 5 9.7318 5.008 9.601 5.0236 9.8519 5.3677 10 5.7915 10 6.25 10 7.4006 9.0672 8.3333 7.9167 8.3333 7.4582 8.3333 7.0344 8.1852 6.6903 7.9343 6.6747 8.0651 6.6667 8.1983 6.6667 8.3333 6.6667 10.1743 8.1591 11.6667 10 11.6667Z" stroke="currentColor" stroke-linejoin="round" stroke-width="2"/>
</svg>
