<svg xmlns="http://www.w3.org/2000/svg" width="20" height="20" viewBox="0 0 20 20" fill="none">
  <path d="M5.4167 7.5H4.5833M8.75 7.5H7.9167M5.4167 5H4.5833M8.75 5H7.9167" stroke="currentColor" stroke-linecap="round" stroke-width="2"/>
  <path d="M15.4167 12.5H14.5833M15.4167 9.1667H14.5833" stroke="currentColor" stroke-linecap="round" stroke-width="2"/>
  <path d="M11.6667 6.6667V18.3333H15C16.5713 18.3333 17.357 18.3333 17.8452 17.8452 18.3333 17.357 18.3333 16.5713 18.3333 15V10C18.3333 8.4287 18.3333 7.643 17.8452 7.1548 17.357 6.6667 16.5713 6.6667 15 6.6667H11.6667ZM11.6667 6.6667C11.6667 4.3096 11.6667 3.1311 10.9344 2.3989 10.2022 1.6667 9.0237 1.6667 6.6667 1.6667 4.3096 1.6667 3.1311 1.6667 2.3989 2.3989 1.6667 3.1311 1.6667 4.3096 1.6667 6.6667V8.3333" stroke="currentColor" stroke-linecap="round" stroke-linejoin="round" stroke-width="2"/>
  <path d="M6.6874 11.6288C6.6874 12.5486 5.9412 13.2942 5.0208 13.2942 4.1003 13.2942 3.3541 12.5486 3.3541 11.6288 3.3541 10.709 4.1003 9.9634 5.0208 9.9634 5.9412 9.9634 6.6874 10.709 6.6874 11.6288Z" stroke="currentColor" stroke-linecap="round" stroke-width="2"/>
  <path d="M1.7248 16.8418C2.6068 15.485 4.0074 14.9765 5.0208 14.9775 6.0341 14.9786 7.3937 15.485 8.2756 16.8418 8.3326 16.9295 8.3483 17.0375 8.2969 17.1287 8.0906 17.4942 7.4502 18.2194 6.9877 18.2686 6.4562 18.3251 5.0659 18.333 5.0218 18.3332 4.9777 18.333 3.5445 18.3251 3.0128 18.2686 2.5502 18.2194 1.9098 17.4942 1.7036 17.1287 1.6521 17.0375 1.6678 16.9295 1.7248 16.8418Z" stroke="currentColor" stroke-linecap="round" stroke-width="2"/>
</svg>
