<svg xmlns="http://www.w3.org/2000/svg" width="20" height="20" viewBox="0 0 20 20" fill="none">
  <path d="M5 13.3333C3.8215 13.3333 3.2322 13.3333 2.8661 12.9673 2.5 12.6011 2.5 12.0118 2.5 10.8333V9.1667C2.5 7.9882 2.5 7.3989 2.8661 7.0328 3.2322 6.6667 3.8215 6.6667 5 6.6667H15C16.1785 6.6667 16.7678 6.6667 17.1339 7.0328 17.5 7.3989 17.5 7.9882 17.5 9.1667V10.8333C17.5 12.0118 17.5 12.6011 17.1339 12.9673 16.7678 13.3333 16.1785 13.3333 15 13.3333" stroke="currentColor" stroke-linecap="round" stroke-linejoin="round" stroke-width="2"/>
  <path d="M10 1.6667V18.3333" stroke="currentColor" stroke-linecap="round" stroke-linejoin="round" stroke-width="2"/>
  <path d="M4.1667 6.6667V2.2559C4.1667 1.9305 4.4305 1.6667 4.7559 1.6667 4.9122 1.6667 5.0621 1.7288 5.1726 1.8393L10 6.6667" stroke="currentColor" stroke-linecap="round" stroke-linejoin="round" stroke-width="2"/>
  <path d="M15.8333 6.6667V2.2559C15.8333 1.9305 15.5695 1.6667 15.2441 1.6667 15.0878 1.6667 14.9379 1.7288 14.8274 1.8393L10 6.6667" stroke="currentColor" stroke-linecap="round" stroke-linejoin="round" stroke-width="2"/>
  <path d="M5.5405 10.7546L10 6.6667 14.4595 10.7546C14.8039 11.0702 15 11.516 15 11.9832V16.9223C15 17.2413 14.7413 17.5 14.4223 17.5 14.2595 17.5 14.1043 17.4313 13.9948 17.3109L10 12.9167 6.0053 17.3109C5.8958 17.4313 5.7405 17.5 5.5777 17.5 5.2587 17.5 5 17.2413 5 16.9223V11.9832C5 11.516 5.1961 11.0702 5.5405 10.7546Z" stroke="currentColor" stroke-linecap="round" stroke-linejoin="round" stroke-width="2"/>
</svg>
