<svg xmlns="http://www.w3.org/2000/svg" width="20" height="20" viewBox="0 0 20 20" fill="none">
  <path d="M3.75 9.9999C3.75 7.9269 3.75 6.8903 4.3101 6.1539 4.3712 6.0735 4.4367 5.9966 4.5064 5.9236 5.1437 5.2554 6.1523 5.1088 8.1694 4.8156L10.1353 4.5299C12.9803 4.1164 14.4028 3.9096 15.3264 4.7246 16.25 5.5395 16.25 7.0015 16.25 9.9255V10.0743C16.25 12.9983 16.25 14.4603 15.3264 15.2753 14.4028 16.0902 12.9803 15.8834 10.1353 15.4699L8.1694 15.1842C6.1523 14.891 5.1437 14.7444 4.5064 14.0762 4.4367 14.0032 4.3712 13.9263 4.3101 13.8459 3.75 13.1095 3.75 12.0729 3.75 9.9999Z" stroke="currentColor" stroke-width="2"/>
  <path d="M10 18.3333L10 1.6667M1.6667 10H18.3333" stroke="currentColor" stroke-linecap="round" stroke-width="2"/>
</svg>
