<svg xmlns="http://www.w3.org/2000/svg" width="20" height="20" viewBox="0 0 20 20" fill="none">
  <path d="M2.9167 17.9167V7.0833C2.9167 4.7263 2.9167 3.5478 3.6489 2.8156 4.3811 2.0833 5.5596 2.0833 7.9167 2.0833 10.2737 2.0833 11.4522 2.0833 12.1844 2.8156 12.9167 3.5478 12.9167 4.7263 12.9167 7.0833L12.9167 17.9167" stroke="currentColor" stroke-linecap="round" stroke-width="2"/>
  <path d="M2.9167 8.75H12.9167" stroke="currentColor" stroke-linecap="round" stroke-linejoin="round" stroke-width="2"/>
  <path d="M2.0833 17.9167H13.75" stroke="currentColor" stroke-linecap="round" stroke-linejoin="round" stroke-width="2"/>
  <path d="M12.9167 12.0833H13.75C14.6705 12.0833 15.4167 12.8295 15.4167 13.75V14.1667C15.4167 14.857 15.9763 15.4167 16.6667 15.4167 17.357 15.4167 17.9167 14.857 17.9167 14.1667V9.5833M17.0833 6.25L17.4285 6.5952C17.7411 6.9077 17.9167 7.3317 17.9167 7.7737V9.5833M17.0833 6.25L15.4167 4.5833M17.0833 6.25V8.0596C17.0833 8.5017 17.2589 8.9256 17.5715 9.2382L17.9167 9.5833" stroke="currentColor" stroke-linecap="round" stroke-linejoin="round" stroke-width="2"/>
</svg>
