<svg xmlns="http://www.w3.org/2000/svg" width="20" height="20" viewBox="0 0 20 20" fill="none">
  <path d="M10.4167 1.6667H7.0833L7.5 2.5H10L10.4167 1.6667Z" stroke="currentColor" stroke-linecap="round" stroke-linejoin="round" stroke-width="2"/>
  <path d="M12.9167 9.1667V8.3333C12.9167 7.643 13.4763 7.0833 14.1667 7.0833 14.857 7.0833 15.4167 7.643 15.4167 8.3333V9.1669M12.5 12.9167H15.8333C16.2936 12.9167 16.6667 12.5436 16.6667 12.0833V10.4167C16.6667 9.9564 16.2936 9.5833 15.8333 9.5833L12.5 9.5833C12.0397 9.5833 11.6667 9.9564 11.6667 10.4167V12.0833C11.6667 12.5436 12.0397 12.9167 12.5 12.9167Z" stroke="currentColor" stroke-linecap="round" stroke-linejoin="round" stroke-width="2"/>
  <path d="M14.1645 5C14.1524 3.5779 14.0735 2.7939 13.5565 2.2769 12.9463 1.6667 11.9642 1.6667 10 1.6667H7.5C5.5358 1.6667 4.5537 1.6667 3.9435 2.2769 3.3333 2.8871 3.3333 3.8691 3.3333 5.8333V14.1667C3.3333 16.1308 3.3333 17.1129 3.9435 17.7232 4.5537 18.3333 5.5358 18.3333 7.5 18.3333H10C11.9642 18.3333 12.9463 18.3333 13.5565 17.7232 14.0735 17.2062 14.1524 16.4222 14.1645 15.0001" stroke="currentColor" stroke-linecap="round" stroke-linejoin="round" stroke-width="2"/>
</svg>
