<svg xmlns="http://www.w3.org/2000/svg" width="20" height="20" viewBox="0 0 20 20" fill="none">
  <path d="M15.4167 5.8333C15.4167 3.8691 15.4167 2.8871 14.8065 2.2769 14.1962 1.6667 13.2142 1.6667 11.25 1.6667H8.75C6.7858 1.6667 5.8037 1.6667 5.1935 2.2769 4.5833 2.8871 4.5833 3.8691 4.5833 5.8333M15.4167 14.1667C15.4167 16.1308 15.4167 17.1129 14.8065 17.7232 14.1962 18.3333 13.2142 18.3333 11.25 18.3333H8.75C6.7858 18.3333 5.8037 18.3333 5.1935 17.7232 4.5833 17.1129 4.5833 16.1308 4.5833 14.1667" stroke="currentColor" stroke-linecap="round" stroke-linejoin="round" stroke-width="2"/>
  <path d="M11.6667 1.6667H8.3333L8.75 2.5H11.25L11.6667 1.6667Z" stroke="currentColor" stroke-linecap="round" stroke-linejoin="round" stroke-width="2"/>
  <path d="M12.9167 12.9167C12.9167 12.9167 15.8333 10.7686 15.8333 10 15.8333 9.2314 12.9166 7.0834 12.9166 7.0834" stroke="currentColor" stroke-linecap="round" stroke-linejoin="round" stroke-width="2"/>
  <path d="M7.0833 12.9167C7.0833 12.9167 4.1667 10.7686 4.1667 10 4.1667 9.2314 7.0834 7.0833 7.0834 7.0833" stroke="currentColor" stroke-linecap="round" stroke-linejoin="round" stroke-width="2"/>
</svg>
