<svg xmlns="http://www.w3.org/2000/svg" width="20" height="20" viewBox="0 0 20 20" fill="none">
  <path d="M2.0833 10C2.0833 6.268 2.0833 4.4021 3.2427 3.2427 4.4021 2.0833 6.268 2.0833 10 2.0833 13.7319 2.0833 15.5979 2.0833 16.7573 3.2427 17.9167 4.4021 17.9167 6.268 17.9167 10 17.9167 13.7319 17.9167 15.5979 16.7573 16.7573 15.5979 17.9167 13.7319 17.9167 10 17.9167 6.268 17.9167 4.4021 17.9167 3.2427 16.7573 2.0833 15.5979 2.0833 13.7319 2.0833 10Z" stroke="currentColor" stroke-width="2"/>
  <path d="M4.1667 10V8.3333C4.1667 8.1032 4.3532 7.9167 4.5833 7.9167H5.625C6.2003 7.9167 6.6667 8.383 6.6667 8.9583 6.6667 9.5337 6.2003 10 5.625 10H4.1667ZM4.1667 10V12.0833" stroke="currentColor" stroke-linecap="round" stroke-linejoin="round" stroke-width="2"/>
  <path d="M13.3333 10V8.3333C13.3333 8.1032 13.5199 7.9167 13.75 7.9167H14.7917C15.367 7.9167 15.8333 8.383 15.8333 8.9583 15.8333 9.5337 15.367 10 14.7917 10H13.3333ZM13.3333 10V12.0833" stroke="currentColor" stroke-linecap="round" stroke-linejoin="round" stroke-width="2"/>
  <path d="M8.75 7.9167V10M8.75 12.0833V10M11.25 7.9167V10M11.25 12.0833V10M8.75 10H11.25" stroke="currentColor" stroke-linecap="round" stroke-linejoin="round" stroke-width="2"/>
</svg>
