<svg xmlns="http://www.w3.org/2000/svg" width="20" height="20" viewBox="0 0 20 20" fill="none">
  <path d="M10 4.8276C10.9276 5.4991 11.8707 6.3014 12.7847 7.2153 13.6986 8.1292 14.5009 9.0724 15.1724 10.0001M15.1724 10.0001C17.326 7.0251 18.1341 4.2107 16.9617 3.0383 15.7893 1.8659 12.9749 2.674 10 4.8276 9.0724 5.4991 8.1292 6.3014 7.2154 7.2153 6.3015 8.1292 5.4991 9.0724 4.8276 10.0001M15.1724 10.0001C17.326 12.9749 18.134 15.7893 16.9617 16.9617 16.0924 17.8309 14.3207 17.6115 12.25 16.5623M15.1724 10.0001C14.5009 10.9277 13.6986 11.8708 12.7848 12.7847 11.8708 13.6986 10.9276 14.5009 10 15.1724M10 15.1724C9.0724 14.5009 8.1292 13.6986 7.2153 12.7847 6.3014 11.8708 5.4991 10.9277 4.8276 10.0001M10 15.1724C7.0251 17.326 4.2107 18.1341 3.0384 16.9617 1.866 15.7893 2.674 12.9749 4.8276 10.0001M4.8276 10.0001C2.674 7.0251 1.8659 4.2107 3.0383 3.0383 3.9075 2.1691 5.6793 2.3885 7.75 3.4378" stroke="currentColor" stroke-linecap="round" stroke-width="2"/>
  <circle cx="10" cy="10" r="1.6666666666666667" stroke="currentColor" stroke-width="2"/>
</svg>
