<svg xmlns="http://www.w3.org/2000/svg" width="20" height="20" viewBox="0 0 20 20" fill="none">
  <path d="M10.0022 14.5833L10.0023 3.75H10.5846C11.9282 3.75 12.6 3.75 13.1696 4.0907 13.7392 4.4315 14.119 5.0605 14.8787 6.3187 15.4113 7.2009 15.9703 7.8412 16.7564 8.4109 17.548 8.9845 17.9243 9.2648 18.1333 9.7148 18.3332 10.1458 18.3332 10.6563 18.3332 11.6771 18.3332 13.0229 18.3332 13.6958 17.9754 14.1235 17.96 14.1418 17.9443 14.1598 17.9281 14.1772 17.5514 14.5833 17.0196 14.5833 15.8339 14.5833M10.0023 3.75L10.9339 6.6498C11.3905 8.0706 11.6188 8.781 12.0948 9.1822 12.5708 9.5833 13.1855 9.5833 14.4147 9.5833H17.5M7.5029 14.5833H12.5016M18.3334 12.0833H17.5001M10.0022 9.5833H2.5043C2.5043 9.5833 2.2364 9.587 2.0044 9.5833 1.6198 9.5773 1.6712 9.5667 1.6712 9.6167L1.6712 10.4167C1.6712 10.4167 1.6545 13.1667 1.6845 13.4943 1.6845 13.7099 1.8545 13.8862 2.1544 14.0667 2.3505 14.1971 2.6589 14.4047 2.9042 14.5037 3.2041 14.6167 4.1705 14.5833 4.1705 14.5833" stroke="currentColor" stroke-linecap="round" stroke-linejoin="round" stroke-width="2"/>
  <path d="M14.1678 16.25C15.0879 16.25 15.8339 15.5038 15.8339 14.5833 15.8339 13.6628 15.0879 12.9167 14.1678 12.9167 13.2475 12.9167 12.5015 13.6628 12.5015 14.5833 12.5015 15.5038 13.2475 16.25 14.1678 16.25Z" stroke="currentColor" stroke-width="2"/>
  <path d="M5.8368 16.25C6.757 16.25 7.503 15.5038 7.503 14.5833 7.503 13.6628 6.757 12.9167 5.8368 12.9167 4.9166 12.9167 4.1706 13.6628 4.1706 14.5833 4.1706 15.5038 4.9166 16.25 5.8368 16.25Z" stroke="currentColor" stroke-width="2"/>
</svg>
