<svg xmlns="http://www.w3.org/2000/svg" width="20" height="20" viewBox="0 0 20 20" fill="none">
  <path d="M15.8331 14.5833C17.0199 14.5833 17.5523 14.5833 17.9294 14.1772 17.9456 14.1598 17.9613 14.1418 17.9767 14.1235 18.3349 13.6958 18.3349 13.0229 18.3349 11.6771 18.3349 10.6563 18.3349 10.1458 18.1347 9.7148 17.9257 9.2648 17.5488 8.9845 16.7565 8.4109 15.9695 7.8412 15.4099 7.2009 14.8768 6.3187 14.1164 5.0605 13.7362 4.4315 13.166 4.0907 12.5958 3.75 11.9233 3.75 10.5783 3.75H9.9954M7.4935 14.5833H12.4973" stroke="currentColor" stroke-linecap="round" stroke-linejoin="round" stroke-width="2"/>
  <path d="M11.6634 3.75L12.2853 6.6498C12.6433 8.3195 12.7015 9.5833 14.6083 9.5833H17.9181" stroke="currentColor" stroke-linecap="round" stroke-linejoin="round" stroke-width="2"/>
  <path d="M18.3343 12.0833H17.5008" stroke="currentColor" stroke-linecap="round" stroke-linejoin="round" stroke-width="2"/>
  <path d="M9.9952 3.75V14.5833" stroke="currentColor" stroke-linecap="round" stroke-linejoin="round" stroke-width="2"/>
  <path d="M14.1655 16.25C15.0867 16.25 15.8334 15.5038 15.8334 14.5833 15.8334 13.6628 15.0867 12.9167 14.1655 12.9167 13.2443 12.9167 12.4976 13.6628 12.4976 14.5833 12.4976 15.5038 13.2443 16.25 14.1655 16.25Z" stroke="currentColor" stroke-width="2"/>
  <path d="M5.8257 16.25C6.7468 16.25 7.4936 15.5038 7.4936 14.5833 7.4936 13.6628 6.7468 12.9167 5.8257 12.9167 4.9045 12.9167 4.1578 13.6628 4.1578 14.5833 4.1578 15.5038 4.9045 16.25 5.8257 16.25Z" stroke="currentColor" stroke-width="2"/>
  <path d="M9.991 9.5858H1.6647V13.5113C1.6647 13.8234 2.2418 14.1911 2.7602 14.4359 2.9411 14.5213 3.1395 14.5605 3.3395 14.5661L4.1571 14.5889" stroke="currentColor" stroke-linecap="round" stroke-linejoin="round" stroke-width="2"/>
</svg>
