<svg xmlns="http://www.w3.org/2000/svg" width="20" height="20" viewBox="0 0 20 20" fill="none">
  <path d="M9.5833 16.6667H8.3333C5.1906 16.6667 3.6193 16.6667 2.643 15.6903 1.6667 14.7141 1.6667 13.1427 1.6667 10 1.6667 6.8573 1.6667 5.286 2.643 4.3096 3.6193 3.3333 5.1906 3.3333 8.3333 3.3333H11.6667C14.8093 3.3333 16.3808 3.3333 17.357 4.3096 18.2892 5.2418 18.3313 6.7165 18.3332 9.5833" stroke="currentColor" stroke-linecap="round" stroke-linejoin="round" stroke-width="2"/>
  <path d="M17.0833 11.6667H12.9167C12.2263 11.6667 11.6667 12.2263 11.6667 12.9167V15.4167C11.6667 16.107 12.2263 16.6667 12.9167 16.6667H17.0833C17.7737 16.6667 18.3333 16.107 18.3333 15.4167V12.9167C18.3333 12.2263 17.7737 11.6667 17.0833 11.6667Z" stroke="currentColor" stroke-width="2"/>
  <path d="M5.0033 9.5842L5.0033 7.5008C4.9637 7.0221 5.3337 6.6476 5.8366 6.6675L7.9199 6.6675M9.1699 10.8342L5.8366 7.5008" stroke="currentColor" stroke-linecap="round" stroke-linejoin="round" stroke-width="2"/>
</svg>
