<svg xmlns="http://www.w3.org/2000/svg" width="20" height="20" viewBox="0 0 20 20" fill="none">
  <path d="M13.7964 3.849C13.124 3.3925 12.3937 3.0404 11.6293 2.8002 10.6651 2.4971 10.1829 2.3455 9.6748 2.7263 9.1667 3.107 9.1667 3.7254 9.1667 4.9623V8.7553C9.1667 9.8081 9.1667 10.3344 9.3618 10.8063 9.5569 11.2783 9.9268 11.6468 10.6667 12.3837L13.3325 15.0388C14.2018 15.9046 14.6364 16.3375 15.2597 16.2353 15.883 16.1331 16.1139 15.6771 16.5759 14.7652 16.9294 14.0675 17.1876 13.3196 17.3399 12.5416 17.6614 10.899 17.4964 9.1965 16.8657 7.6492 16.2349 6.1019 15.1668 4.7795 13.7964 3.849Z" stroke="currentColor" stroke-linecap="round" stroke-linejoin="round" stroke-width="2"/>
  <path d="M11.6667 17.0153C10.8947 17.3278 10.0508 17.4999 9.1667 17.4999 5.4848 17.4999 2.5 14.5152 2.5 10.8333 2.5 7.9691 4.3061 5.5268 6.8416 4.5832" stroke="currentColor" stroke-linecap="round" stroke-linejoin="round" stroke-width="2"/>
</svg>
