<svg xmlns="http://www.w3.org/2000/svg" width="20" height="20" viewBox="0 0 20 20" fill="none">
  <path d="M2.0833 10.0001C2.0833 6.4753 2.0833 4.7129 3.0816 3.5441 3.2234 3.3781 3.378 3.2235 3.544 3.0817 4.7128 2.0834 6.4752 2.0834 10 2.0834 13.5248 2.0834 15.2872 2.0834 16.456 3.0817 16.622 3.2235 16.7766 3.3781 16.9183 3.5441 17.9167 4.7129 17.9167 6.4753 17.9167 10.0001 17.9167 13.5249 17.9167 15.2873 16.9183 16.4562 16.7766 16.6221 16.622 16.7767 16.456 16.9185 15.2872 17.9168 13.5248 17.9168 10 17.9168 6.4752 17.9168 4.7128 17.9168 3.544 16.9185 3.378 16.7767 3.2234 16.6221 3.0816 16.4562 2.0833 15.2873 2.0833 13.5249 2.0833 10.0001Z" stroke="currentColor" stroke-width="2"/>
  <path d="M12.5886 10.1038C13.4081 10.1433 13.8178 10.1631 14.0498 10.5493 14.2816 10.9353 14.1421 11.2225 13.8631 11.7968 13.7481 12.0336 13.6103 12.2601 13.451 12.4732 12.9536 13.1383 12.2684 13.6422 11.4819 13.9214 10.6955 14.2006 9.8432 14.2425 9.0328 14.0417 8.2223 13.8409 7.4901 13.4066 6.9288 12.7936 6.3675 12.1805 6.0023 11.4163 5.8793 10.5977 5.7564 9.7789 5.8812 8.9425 6.2381 8.1941 6.5949 7.4457 7.1677 6.819 7.8841 6.3931 8.1136 6.2567 8.3546 6.1428 8.6035 6.0524 9.2075 5.8331 9.5096 5.7234 9.8749 5.9896 10.2402 6.2557 10.2203 6.6617 10.1804 7.4736L10.1393 8.3098C10.1006 9.0979 10.0813 9.492 10.3163 9.7487 10.5514 10.0056 10.9492 10.0248 11.7447 10.0631L12.5886 10.1038Z" stroke="currentColor" stroke-linejoin="round" stroke-width="2"/>
</svg>
