<svg xmlns="http://www.w3.org/2000/svg" width="20" height="20" viewBox="0 0 20 20" fill="none">
  <path d="M17.5 10.4183C17.5 14.7906 13.9556 18.335 9.5833 18.335 5.2111 18.335 1.6667 14.7906 1.6667 10.4183 1.6667 6.046 5.2111 2.5016 9.5833 2.5016" stroke="currentColor" stroke-linecap="round" stroke-width="2"/>
  <path d="M11.4205 6.1547L12.1504 3.9777C12.6051 2.6218 12.8324 1.9438 13.5412 1.7284 14.2499 1.513 14.7194 1.8752 15.6583 2.5996 16.311 3.1032 16.8968 3.689 17.4004 4.3417 18.1248 5.2806 18.487 5.7501 18.2716 6.4588 18.0562 7.1676 17.3783 7.3949 16.0223 7.8496L13.8453 8.5795C12.2544 9.113 11.459 9.3797 11.0396 8.9604 10.6203 8.541 10.887 7.7456 11.4205 6.1547Z" stroke="currentColor" stroke-linejoin="round" stroke-width="2"/>
</svg>
