<svg xmlns="http://www.w3.org/2000/svg" width="20" height="20" viewBox="0 0 20 20" fill="none">
  <path d="M9.1867 18.3333C12.7702 18.3333 15.7682 15.8268 16.5233 12.4714 16.6779 11.7842 16.7553 11.4405 16.5043 11.1269 16.2535 10.8133 15.8475 10.8133 15.0356 10.8133H9.1867M9.1867 18.3333C5.0335 18.3333 1.6667 14.9665 1.6667 10.8133 1.6667 7.2299 4.1732 4.2318 7.5286 3.4767 8.2158 3.3221 8.5595 3.2448 8.8731 3.4956 9.1867 3.7465 9.1867 4.1525 9.1867 4.9645V10.8133M9.1867 18.3333V10.8133" stroke="currentColor" stroke-linejoin="round" stroke-width="2"/>
  <path d="M17.9617 5.8554C17.2754 4.1132 15.8868 2.7246 14.1446 2.0383 13.2319 1.6787 12.7756 1.499 12.2211 1.8764 11.6667 2.2539 11.6667 2.8714 11.6667 4.1062V5.7971C11.6667 6.9927 11.6667 7.5905 12.0381 7.9619 12.4095 8.3333 13.0073 8.3333 14.2029 8.3333H15.8938C17.1287 8.3333 17.7461 8.3333 18.1236 7.7789 18.5011 7.2245 18.3212 6.7681 17.9617 5.8554Z" stroke="currentColor" stroke-linejoin="round" stroke-width="2"/>
</svg>
