<svg xmlns="http://www.w3.org/2000/svg" width="20" height="20" viewBox="0 0 20 20" fill="none">
  <path d="M12.0833 4.5833H8.75C5.7585 4.5833 3.3333 7.0085 3.3333 10 3.3333 11.9177 4.3299 13.6026 5.8333 14.5652L6.0729 16.0132C6.1313 16.3661 6.1605 16.5425 6.2421 16.6786 6.3364 16.8359 6.48 16.9577 6.6507 17.0251 6.7982 17.0833 6.977 17.0833 7.3347 17.0833 7.6662 17.0833 7.832 17.0833 7.972 17.0315 8.1339 16.9716 8.2733 16.8627 8.3708 16.7202 8.4549 16.5969 8.4952 16.4362 8.5755 16.1146L8.75 15.4167H11.25L11.4245 16.1146C11.5048 16.4362 11.5451 16.5969 11.6293 16.7202 11.7268 16.8627 11.8661 16.9716 12.0281 17.0315 12.168 17.0833 12.3338 17.0833 12.6653 17.0833 13.023 17.0833 13.2018 17.0833 13.3493 17.0251 13.52 16.9577 13.6636 16.8359 13.7579 16.6786 13.8395 16.5425 13.8687 16.3661 13.9271 16.0132L14.1667 14.5652C15.0913 13.9732 15.8243 13.1079 16.2515 12.0833L16.9937 11.9348C17.635 11.8064 17.9557 11.7423 18.1445 11.5118 18.3333 11.2815 18.3333 10.9545 18.3333 10.3005V10.0513C18.3333 9.4263 18.3333 9.1138 18.1568 8.8878 17.9803 8.6617 17.6772 8.586 17.0709 8.4344L16.6667 8.3333C16.6667 7.0833 15.6944 5.9722 15 5.4167V2.9167H14.7801C13.6381 2.9167 12.5941 3.5619 12.0833 4.5833Z" stroke="currentColor" stroke-linecap="round" stroke-linejoin="round" stroke-width="2"/>
  <path d="M13.2292 8.125H13.125M13.3333 8.125C13.3333 8.2401 13.2401 8.3333 13.125 8.3333 13.0099 8.3333 12.9167 8.2401 12.9167 8.125 12.9167 8.0099 13.0099 7.9167 13.125 7.9167 13.2401 7.9167 13.3333 8.0099 13.3333 8.125Z" stroke="currentColor" stroke-linecap="round" stroke-linejoin="round" stroke-width="2"/>
  <path d="M1.6667 6.6667V8.3333C1.6667 9.2538 2.4129 10 3.3333 10" stroke="currentColor" stroke-linecap="round" stroke-linejoin="round" stroke-width="2"/>
</svg>
