<svg xmlns="http://www.w3.org/2000/svg" width="20" height="20" viewBox="0 0 20 20" fill="none">
  <path d="M5.4167 1.6667H14.5833C15.3622 1.6667 15.7516 1.6667 16.0417 1.8341 16.2317 1.9438 16.3895 2.1016 16.4992 2.2917 16.6667 2.5817 16.6667 2.9712 16.6667 3.75 16.6667 4.5289 16.6667 4.9183 16.4992 5.2083 16.3895 5.3984 16.2317 5.5562 16.0417 5.6659 15.7516 5.8333 15.3622 5.8333 14.5833 5.8333H5.4167C4.6378 5.8333 4.2484 5.8333 3.9583 5.6659 3.7683 5.5562 3.6105 5.3984 3.5008 5.2083 3.3333 4.9183 3.3333 4.5289 3.3333 3.75 3.3333 2.9712 3.3333 2.5817 3.5008 2.2917 3.6105 2.1016 3.7683 1.9438 3.9583 1.8341 4.2484 1.6667 4.6378 1.6667 5.4167 1.6667Z" stroke="currentColor" stroke-linecap="round" stroke-linejoin="round" stroke-width="2"/>
  <path d="M15 13.3333V5.8333H5V13.3333C5 15.6903 5 16.8688 5.7322 17.6011 6.4645 18.3333 7.643 18.3333 10 18.3333 12.357 18.3333 13.5355 18.3333 14.2678 17.6011 15 16.8688 15 15.6903 15 13.3333Z" stroke="currentColor" stroke-linecap="round" stroke-linejoin="round" stroke-width="2"/>
  <path d="M5 9.1667H8.3333C9.119 9.1667 9.5118 9.1667 9.7559 9.4108 10 9.6548 10 10.0477 10 10.8333V12.5C10 13.2857 10 13.6785 9.7559 13.9226 9.5118 14.1667 9.119 14.1667 8.3333 14.1667H5" stroke="currentColor" stroke-linecap="round" stroke-linejoin="round" stroke-width="2"/>
</svg>
