<svg xmlns="http://www.w3.org/2000/svg" width="20" height="20" viewBox="0 0 20 20" fill="none">
  <path d="M16.6667 13.3333V6.6667C16.6667 4.3096 16.6667 3.1311 15.9344 2.3989 15.2022 1.6667 14.0237 1.6667 11.6667 1.6667H8.3333C5.9763 1.6667 4.7978 1.6667 4.0656 2.3989 3.3333 3.1311 3.3333 4.3096 3.3333 6.6667V13.3333C3.3333 15.6903 3.3333 16.8688 4.0656 17.6011 4.7978 18.3333 5.9763 18.3333 8.3333 18.3333H11.6667C14.0237 18.3333 15.2022 18.3333 15.9344 17.6011 16.6667 16.8688 16.6667 15.6903 16.6667 13.3333Z" stroke="currentColor" stroke-linecap="round" stroke-linejoin="round" stroke-width="2"/>
  <path d="M8.3333 5H11.6667C12.5872 5 13.3333 5.7462 13.3333 6.6667 13.3333 7.5871 12.5872 8.3333 11.6667 8.3333H8.3333C7.4129 8.3333 6.6667 7.5871 6.6667 6.6667 6.6667 5.7462 7.4129 5 8.3333 5Z" stroke="currentColor" stroke-linecap="round" stroke-linejoin="round" stroke-width="2"/>
  <path d="M8.3333 11.6667H11.6667C12.5872 11.6667 13.3333 12.4128 13.3333 13.3333 13.3333 14.2538 12.5872 15 11.6667 15H8.3333C7.4129 15 6.6667 14.2538 6.6667 13.3333 6.6667 12.4128 7.4129 11.6667 8.3333 11.6667Z" stroke="currentColor" stroke-linecap="round" stroke-linejoin="round" stroke-width="2"/>
  <path d="M10 5V8.3333" stroke="currentColor" stroke-linecap="round" stroke-linejoin="round" stroke-width="2"/>
  <path d="M10 11.6667V15" stroke="currentColor" stroke-linecap="round" stroke-linejoin="round" stroke-width="2"/>
</svg>
