<svg xmlns="http://www.w3.org/2000/svg" width="20" height="20" viewBox="0 0 20 20" fill="none">
  <path d="M2.5 17.5L6.6667 13.3333" stroke="currentColor" stroke-linecap="round" stroke-linejoin="round" stroke-width="2"/>
  <path d="M11.0488 15.7262C7.9293 15.0179 4.982 12.0707 4.2738 8.9512 4.1617 8.4574 4.1056 8.2106 4.268 7.81 4.4304 7.4094 4.6288 7.2855 5.0256 7.0376 5.9225 6.4772 6.8938 6.2991 7.9017 6.3882 9.3161 6.5133 10.0233 6.5759 10.376 6.3921 10.7288 6.2083 10.9685 5.7785 11.448 4.9189L12.0553 3.83C12.4554 3.1127 12.6555 2.7541 13.1261 2.585 13.5967 2.4159 13.8798 2.5183 14.4463 2.7231 15.7708 3.202 16.798 4.2292 17.2769 5.5537 17.4817 6.1201 17.5841 6.4033 17.415 6.8739 17.2459 7.3445 16.8873 7.5446 16.1699 7.9447L15.056 8.566C14.198 9.0445 13.7691 9.2838 13.5853 9.64 13.4016 9.9962 13.4683 10.688 13.6017 12.0716 13.6999 13.089 13.5307 14.0667 12.9629 14.9748 12.7148 15.3715 12.5907 15.5699 12.1903 15.7322 11.7898 15.8944 11.5427 15.8383 11.0488 15.7262Z" stroke="currentColor" stroke-linecap="round" stroke-linejoin="round" stroke-width="2"/>
</svg>
