<svg xmlns="http://www.w3.org/2000/svg" width="20" height="20" viewBox="0 0 20 20" fill="none">
  <path d="M10 13.3333V17.5" stroke="currentColor" stroke-linecap="round" stroke-linejoin="round" stroke-width="2"/>
  <path d="M6.6667 4.4098C6.6667 4.184 6.6667 4.0711 6.6776 3.9761 6.7662 3.2066 7.3732 2.5995 8.1428 2.5109 8.2377 2.5 8.3507 2.5 8.5765 2.5H11.4235C11.6493 2.5 11.7622 2.5 11.8573 2.5109 12.6268 2.5995 13.2338 3.2066 13.3224 3.9761 13.3333 4.0711 13.3333 4.184 13.3333 4.4098 13.3333 4.4824 13.3333 4.5186 13.3306 4.5522 13.309 4.819 13.1606 5.0592 12.9316 5.1978 12.9028 5.2153 12.8703 5.2315 12.8055 5.2639L12.5879 5.3727C12.2517 5.5408 12.0836 5.6249 11.9734 5.7547 11.8833 5.8607 11.8213 5.9876 11.7929 6.1237 11.7581 6.2904 11.7949 6.4747 11.8687 6.8433L12.5 10H12.7777C13.2944 10 13.5528 10 13.7647 10.0567 14.3398 10.2109 14.7891 10.6602 14.9432 11.2353 15 11.4473 15 11.7056 15 12.2223 15 12.4806 15 12.6098 14.9716 12.7157 14.8946 13.0032 14.6699 13.2279 14.3823 13.3049 14.2764 13.3333 14.1473 13.3333 13.8889 13.3333H6.1111C5.8528 13.3333 5.7236 13.3333 5.6177 13.3049 5.3301 13.2279 5.1055 13.0032 5.0284 12.7157 5 12.6098 5 12.4806 5 12.2223 5 11.7056 5 11.4473 5.0568 11.2353 5.2109 10.6602 5.6602 10.2109 6.2353 10.0567 6.4472 10 6.7056 10 7.2222 10H7.5L8.1313 6.8433C8.205 6.4747 8.2419 6.2904 8.2071 6.1237 8.1787 5.9876 8.1166 5.8607 8.0266 5.7547 7.9164 5.6249 7.7483 5.5408 7.4121 5.3727L7.1945 5.2639C7.1297 5.2315 7.0972 5.2153 7.0684 5.1978 6.8394 5.0592 6.691 4.819 6.6694 4.5522 6.6667 4.5186 6.6667 4.4824 6.6667 4.4098Z" stroke="currentColor" stroke-linecap="round" stroke-linejoin="round" stroke-width="2"/>
</svg>
