<svg xmlns="http://www.w3.org/2000/svg" width="20" height="20" viewBox="0 0 20 20" fill="none">
  <path d="M12.5 4.1667H9.4281C8.0656 4.1667 7.3843 4.1667 6.7718 4.4204 6.1592 4.6741 5.6775 5.1559 4.714 6.1193L2.2559 8.5774C1.8786 8.9547 1.6667 9.4664 1.6667 10 1.6667 10.5336 1.8786 11.0453 2.2559 11.4226L4.714 13.8808C5.6775 14.8442 6.1592 15.3258 6.7718 15.5796 7.3843 15.8333 8.0656 15.8333 9.4281 15.8333H12.5C14.8408 15.8333 16.0112 15.8333 16.8519 15.2716 17.2158 15.0283 17.5283 14.7158 17.7716 14.3519 18.3333 13.5112 18.3333 12.3407 18.3333 10 18.3333 7.6592 18.3333 6.4888 17.7716 5.6481 17.5283 5.2841 17.2158 4.9716 16.8519 4.7284 16.0112 4.1667 14.8408 4.1667 12.5 4.1667Z" stroke="currentColor" stroke-linecap="round" stroke-linejoin="round" stroke-width="2"/>
  <path d="M7.6042 10H7.5M7.7083 10C7.7083 10.1151 7.6151 10.2083 7.5 10.2083 7.3849 10.2083 7.2917 10.1151 7.2917 10 7.2917 9.8849 7.3849 9.7917 7.5 9.7917 7.6151 9.7917 7.7083 9.8849 7.7083 10Z" stroke="currentColor" stroke-linecap="round" stroke-linejoin="round" stroke-width="2"/>
  <path d="M10.9375 10H10.8333M11.0417 10C11.0417 10.1151 10.9484 10.2083 10.8333 10.2083 10.7183 10.2083 10.625 10.1151 10.625 10 10.625 9.8849 10.7183 9.7917 10.8333 9.7917 10.9484 9.7917 11.0417 9.8849 11.0417 10Z" stroke="currentColor" stroke-linecap="round" stroke-linejoin="round" stroke-width="2"/>
  <path d="M14.2708 10H14.1667M14.375 10C14.375 10.1151 14.2818 10.2083 14.1667 10.2083 14.0516 10.2083 13.9583 10.1151 13.9583 10 13.9583 9.8849 14.0516 9.7917 14.1667 9.7917 14.2818 9.7917 14.375 9.8849 14.375 10Z" stroke="currentColor" stroke-linecap="round" stroke-linejoin="round" stroke-width="2"/>
</svg>
