<svg xmlns="http://www.w3.org/2000/svg" width="20" height="20" viewBox="0 0 20 20" fill="none">
  <path d="M7.5002 15H6.7865C5.2343 15 4.4582 15 4.2246 14.5297 3.991 14.0594 4.4766 13.4746 5.4478 12.3049L6.9955 10.4411C6.0148 10.4411 5.5245 10.4411 5.2888 10.2577 5.0663 10.0846 4.9477 9.8158 4.9723 9.5408 4.9983 9.2496 5.3377 8.9077 6.0164 8.2239L7.9293 6.2967C7.1382 6.2967 6.7426 6.2967 6.5393 6.1792 6.2136 5.9911 6.0544 5.6187 6.148 5.2635 6.2064 5.0417 6.4867 4.7721 7.0475 4.2331L8.858 2.4927C9.4314 1.9415 9.7182 1.6658 10.0736 1.6667 10.429 1.6675 10.7143 1.9445 11.2849 2.4984L13.0613 4.2229C13.6285 4.7735 13.9121 5.0488 13.968 5.2761 14.0538 5.6249 13.8978 5.9874 13.5814 6.1746 13.3751 6.2967 12.9731 6.2967 12.1691 6.2967L13.7649 8.104C14.4948 8.9307 14.8598 9.344 14.8224 9.6967 14.803 9.8798 14.7209 10.0516 14.5893 10.1848 14.3358 10.4411 13.7733 10.4411 12.6486 10.4411L14.3293 12.2271C15.4497 13.4176 16.0099 14.0129 15.7839 14.5064 15.5579 15 14.7251 15 13.0595 15H12.6486" stroke="currentColor" stroke-linecap="round" stroke-linejoin="round" stroke-width="2"/>
  <path d="M10 11.6667V18.3333" stroke="currentColor" stroke-linecap="round" stroke-linejoin="round" stroke-width="2"/>
</svg>
