<svg xmlns="http://www.w3.org/2000/svg" width="20" height="20" viewBox="0 0 20 20" fill="none">
  <path d="M6.25 6.6667C5.7989 6.7734 5.4161 6.7853 4.9939 7.0491 4.2269 7.5282 4.0426 8.0973 4.2402 8.9677 4.9502 12.0949 7.905 15.0497 11.0323 15.7598 11.9028 15.9574 12.4718 15.7733 12.9513 15.0064 13.2009 14.6073 13.2263 14.1734 13.3333 13.75" stroke="currentColor" stroke-linecap="round" stroke-linejoin="round" stroke-width="2"/>
  <path d="M10 6.4993C10.148 6.4816 10.2652 6.4503 10.3579 6.402 11.1664 5.9807 11.6076 4.6113 12.0415 3.8334 12.4426 3.1143 12.6432 2.7547 13.1149 2.5852 13.5867 2.4157 13.8707 2.5184 14.4385 2.7237 15.7664 3.2038 16.7963 4.2336 17.2763 5.5615 17.4816 6.1293 17.5843 6.4133 17.4148 6.885 17.2452 7.3568 16.8857 7.5574 16.1666 7.9585 15.384 8.395 13.9962 8.8423 13.5754 9.6582 13.5288 9.7486 13.4982 9.8606 13.4808 10" stroke="currentColor" stroke-linecap="round" stroke-linejoin="round" stroke-width="2"/>
  <path d="M2.5 17.5L6.6667 13.3333" stroke="currentColor" stroke-linecap="round" stroke-linejoin="round" stroke-width="2"/>
  <path d="M2.5 2.5L17.5 17.5" stroke="currentColor" stroke-linecap="round" stroke-linejoin="round" stroke-width="2"/>
</svg>
