<svg xmlns="http://www.w3.org/2000/svg" width="20" height="20" viewBox="0 0 20 20" fill="none">
  <path d="M1.6667 17.5H18.3333" stroke="currentColor" stroke-linecap="round" stroke-width="2"/>
  <path d="M13.7159 13.6816L14.7903 9.4966M13.7159 13.6816L14.5178 13.9059M13.7159 13.6816L12.7357 17.5M13.7159 13.6816L6.4985 11.6631M14.7903 9.4966L15.8648 5.3115M14.7903 9.4966L15.5922 9.7208M14.7903 9.4966L7.5729 7.4781M15.8648 5.3115L14.2608 4.863M15.8648 5.3115L16.6667 5.5358M6.4985 11.6631L7.5729 7.4781M6.4985 11.6631L5.6965 11.4388M6.4985 11.6631L5 17.5M7.5729 7.4781L8.6472 3.293M7.5729 7.4781L6.7709 7.2538M8.6472 3.293L7.8453 3.0687M8.6472 3.293L10.2512 3.7416M10.2512 3.7416L14.2608 4.863M10.2512 3.7416L10.6215 2.2984C10.7385 1.8425 11.2015 1.5719 11.6499 1.6974L14.0529 2.3694C14.4918 2.4921 14.7521 2.9487 14.6376 3.3949L14.2608 4.863" stroke="currentColor" stroke-linecap="round" stroke-width="2"/>
  <path d="M8.75 17.5L9.2167 15.8333M11.6667 7.0833L11.2682 8.5067M10.0934 12.702L10.4713 11.3527" stroke="currentColor" stroke-linecap="round" stroke-linejoin="round" stroke-width="2"/>
</svg>
