<svg xmlns="http://www.w3.org/2000/svg" width="20" height="20" viewBox="0 0 20 20" fill="none">
  <path d="M17.9167 9.5833C17.9167 6.0586 17.9167 4.2962 16.9183 3.1273 16.7766 2.9613 16.622 2.8067 16.456 2.665 15.2872 1.6667 13.5248 1.6667 10 1.6667 6.4752 1.6667 4.7128 1.6667 3.544 2.665 3.378 2.8067 3.2234 2.9613 3.0816 3.1273 2.0833 4.2962 2.0833 6.0586 2.0833 9.5833 2.0833 13.1081 2.0833 14.8705 3.0816 16.0393 3.2234 16.2053 3.378 16.3599 3.544 16.5017 4.6169 17.418 6.1898 17.4933 9.1667 17.4994" stroke="currentColor" stroke-linecap="round" stroke-linejoin="round" stroke-width="2"/>
  <path d="M7.0833 2.0833L7.0833 17.0833" stroke="currentColor" stroke-linecap="round" stroke-linejoin="round" stroke-width="2"/>
  <path d="M17.5 6.6667L2.5 6.6667" stroke="currentColor" stroke-linecap="round" stroke-linejoin="round" stroke-width="2"/>
  <path d="M13.75 14.1667C13.3286 14.5762 11.6667 15.6665 11.6667 16.25 11.6667 16.8335 13.3286 17.9238 13.75 18.3333M12.0833 16.25H13.75C15.3077 16.25 16.0865 16.25 16.6667 15.9151 17.0467 15.6957 17.3623 15.3801 17.5817 15 17.9167 14.4198 17.9167 13.641 17.9167 12.0833" stroke="currentColor" stroke-linecap="round" stroke-linejoin="round" stroke-width="2"/>
</svg>
