<svg xmlns="http://www.w3.org/2000/svg" width="20" height="20" viewBox="0 0 20 20" fill="none">
  <path d="M9.6129 16.2796C7.9858 17.9068 5.3476 17.9068 3.7204 16.2796 2.0932 14.6524 2.0932 12.0143 3.7204 10.3871 5.3476 8.7598 7.9858 8.7598 9.6129 10.3871 11.2402 12.0143 11.2402 14.6524 9.6129 16.2796Z" stroke="currentColor" stroke-linecap="round" stroke-linejoin="round" stroke-width="2"/>
  <path d="M13.4473 11.1458C13.0854 10.1198 12.4943 9.1568 11.6736 8.3362 10.853 7.5155 9.8899 6.9243 8.8639 6.5625" stroke="currentColor" stroke-linecap="round" stroke-linejoin="round" stroke-width="2"/>
  <path d="M12.9167 9.5833L16.9823 5.5178C17.3137 5.1863 17.5 4.7366 17.5 4.2678 17.5 3.2915 16.7086 2.5 15.7322 2.5 15.2634 2.5 14.8137 2.6863 14.4822 3.0178L10.4167 7.0833" stroke="currentColor" stroke-linecap="round" stroke-linejoin="round" stroke-width="2"/>
  <path d="M13.3333 4.1667L15.8333 6.6667" stroke="currentColor" stroke-linecap="round" stroke-linejoin="round" stroke-width="2"/>
  <path d="M11.6667 8.3333L10 10" stroke="currentColor" stroke-linecap="round" stroke-linejoin="round" stroke-width="2"/>
  <path d="M6.7708 13.3333H6.6667M6.875 13.3333C6.875 13.4484 6.7817 13.5417 6.6667 13.5417 6.5516 13.5417 6.4583 13.4484 6.4583 13.3333 6.4583 13.2183 6.5516 13.125 6.6667 13.125 6.7817 13.125 6.875 13.2183 6.875 13.3333Z" stroke="currentColor" stroke-linecap="round" stroke-linejoin="round" stroke-width="2"/>
</svg>
