<svg xmlns="http://www.w3.org/2000/svg" width="20" height="20" viewBox="0 0 20 20" fill="none">
  <path d="M9.9999 10.0007L15.0527 12.9178 16.1366 13.5436C16.734 13.8886 17.508 13.6864 17.76 13.0442 18.1301 12.1014 18.3332 11.0748 18.3332 10.0008 18.3332 8.9266 18.1301 7.8999 17.7599 6.957 17.5078 6.3149 16.7339 6.1128 16.1365 6.4577L15.0525 7.0835M15.0525 7.0835C15.5491 7.9416 15.8333 8.938 15.8333 10.0008 15.8333 11.0634 15.5492 12.0598 15.0527 12.9178M15.0525 7.0835L9.9999 10.0007M9.9999 10.0007L4.9473 7.0835 3.8634 6.4577C3.266 6.1128 2.492 6.3149 2.2399 6.9571 1.8698 7.8999 1.6666 8.9266 1.6666 10.0008 1.6666 11.0748 1.8698 12.1014 2.2399 13.0442 2.4919 13.6864 3.2659 13.8885 3.8633 13.5436L4.9472 12.9178 9.9999 10.0007ZM4.9472 12.9178C4.4508 12.0598 4.1666 11.0634 4.1666 10.0008 4.1666 8.938 4.4508 7.9417 4.9473 7.0835" stroke="currentColor" stroke-linecap="round" stroke-linejoin="round" stroke-width="2"/>
  <path d="M10 4.1666V2.9167C10 2.2263 9.437 1.6568 8.7543 1.7591 6.6306 2.0774 4.7691 3.1971 3.4873 4.8005 3.056 5.3401 3.2672 6.1127 3.8655 6.4581L4.9474 7.0827M10 4.1666V9.9999M10 4.1666C7.8411 4.1666 5.9561 5.3395 4.9474 7.0827M10 9.9999V15.8333M10 9.9999L15.0527 12.9171M10 9.9999L4.9474 7.0827M10 15.8333V17.0833C10 17.7737 10.5629 18.3432 11.2457 18.2408 13.3694 17.9225 15.231 16.8028 16.5128 15.1993 16.9441 14.6598 16.7328 13.8871 16.1346 13.5417L15.0527 12.9171M10 15.8333C12.159 15.8333 14.044 14.6604 15.0527 12.9171" stroke="currentColor" stroke-linecap="round" stroke-linejoin="round" stroke-width="2"/>
  <path d="M10 4.1666V2.9167C10 2.2263 10.5629 1.6568 11.2457 1.7591 13.3693 2.0774 15.2308 3.1971 16.5126 4.8004 16.944 5.34 16.7327 6.1127 16.1344 6.4581L15.0526 7.0827M10 4.1666V9.9998M10 4.1666C12.1589 4.1666 14.0438 5.3395 15.0526 7.0827M10 9.9998V15.8333M10 9.9998L15.0526 7.0827M10 15.8333V17.0833C10 17.7737 9.437 18.3432 8.7543 18.2408 6.6305 17.9225 4.7689 16.8027 3.4872 15.1993 3.0558 14.6597 3.2671 13.8871 3.8654 13.5417L4.9473 12.917 10 9.9998M10 15.8333C7.841 15.8333 5.9559 14.6604 4.9473 12.917" stroke="currentColor" stroke-linecap="round" stroke-linejoin="round" stroke-width="2"/>
</svg>
