<svg xmlns="http://www.w3.org/2000/svg" width="20" height="20" viewBox="0 0 20 20" fill="none">
  <path d="M14.5215 2.3992C13.11 1.9251 11.5874 1.6667 10 1.6667 8.4126 1.6667 6.89 1.9251 5.4785 2.3992 4.348 2.7788 3.7827 2.9687 3.4714 3.5907 3.1602 4.2127 3.4063 4.8329 3.8985 6.0733L6.6717 13.0617C8.0663 16.5761 8.7637 18.3333 10 18.3333 11.2363 18.3333 11.9337 16.5761 13.3283 13.0617L16.1015 6.0733C16.5938 4.8329 16.8398 4.2127 16.5286 3.5907 16.2172 2.9687 15.652 2.7788 14.5215 2.3992Z" stroke="currentColor" stroke-width="2"/>
  <path d="M15.8333 6.6549C15.5565 6.4174 15.3242 6.1319 15.1508 5.81 14.4237 4.4602 12.7427 3.8581 11.2658 4.4185 10.5146 4.7035 9.6763 4.6958 8.9311 4.397 7.4657 3.8095 5.7729 4.3804 5.0186 5.7166 4.8071 6.0913 4.5153 6.4141 4.1667 6.6667" stroke="currentColor" stroke-linecap="round" stroke-width="2"/>
  <path d="M5 8.6071C5.325 8.4328 5.701 8.3333 6.1017 8.3333 7.3342 8.3333 8.3333 9.275 8.3333 10.4367 8.3333 11.458 7.5609 12.3093 6.5367 12.5" stroke="currentColor" stroke-linecap="round" stroke-width="2"/>
  <path d="M11.6667 11.6667C11.25 11.6667 10.8333 12.0833 10.8333 12.5" stroke="currentColor" stroke-linecap="round" stroke-linejoin="round" stroke-width="2"/>
  <path d="M11.7708 7.5H11.6667M11.875 7.5C11.875 7.6151 11.7818 7.7083 11.6667 7.7083 11.5516 7.7083 11.4583 7.6151 11.4583 7.5 11.4583 7.3849 11.5516 7.2917 11.6667 7.2917 11.7818 7.2917 11.875 7.3849 11.875 7.5Z" stroke="currentColor" stroke-linecap="round" stroke-width="2"/>
</svg>
