<svg xmlns="http://www.w3.org/2000/svg" width="20" height="20" viewBox="0 0 20 20" fill="none">
  <path d="M15 8.3333C15 8.3333 10 11.6667 10 17.5" stroke="currentColor" stroke-linecap="round" stroke-linejoin="round" stroke-width="2"/>
  <path d="M7.7907 9.3187C6.4482 10.3242 4.536 10.2167 3.3154 8.9961 1.2957 6.9764 1.6996 2.533 1.6996 2.533 1.6996 2.533 6.143 2.129 8.1627 4.1488 8.9623 4.9484 9.2843 6.0447 9.1286 7.0833" stroke="currentColor" stroke-linecap="round" stroke-linejoin="round" stroke-width="2"/>
  <path d="M12.4698 10.6813C11.37 9.486 11.3998 7.6249 12.559 6.4656 14.3543 4.6703 18.304 5.0293 18.304 5.0293 18.304 5.0293 18.6631 8.979 16.8678 10.7743 16.2398 11.4023 15.4058 11.6988 14.5833 11.6639" stroke="currentColor" stroke-linecap="round" stroke-linejoin="round" stroke-width="2"/>
  <path d="M5 5.8333C5 5.8333 10 10 10 17.5" stroke="currentColor" stroke-linecap="round" stroke-linejoin="round" stroke-width="2"/>
</svg>
