<svg xmlns="http://www.w3.org/2000/svg" width="20" height="20" viewBox="0 0 20 20" fill="none">
  <path d="M8.8642 14.0198L16.989 5.8951C17.3162 5.5679 17.5 5.1241 17.5 4.6614 17.5 3.6978 16.7188 2.9167 15.7553 2.9167 15.2926 2.9167 14.8488 3.1005 14.5216 3.4277L6.3968 11.5525H4.6992C4.3873 11.5525 4.2314 11.5525 4.0804 11.5809 3.9899 11.598 3.901 11.6226 3.8147 11.6545 3.6705 11.7078 3.5368 11.7881 3.2694 11.9485 2.7895 12.2364 2.5495 12.3804 2.5104 12.5511 2.4879 12.649 2.5021 12.7517 2.5503 12.84 2.6341 12.9937 2.9041 13.0672 3.4441 13.2145L6.3968 14.0198 7.2021 16.9726C7.3494 17.5126 7.423 17.7825 7.5767 17.8664 7.6649 17.9146 7.7677 17.9288 7.8656 17.9063 8.0363 17.8672 8.1802 17.6272 8.4682 17.1472 8.6286 16.8798 8.7088 16.7462 8.7622 16.602 8.7941 16.5157 8.8187 16.4268 8.8358 16.3362 8.8642 16.1852 8.8642 16.0293 8.8642 15.7175V14.0198Z" stroke="currentColor" stroke-linecap="round" stroke-linejoin="round" stroke-width="2"/>
  <path d="M14.5833 8.3333V14.9547C14.5833 15.5297 14.4271 16.0938 14.1312 16.5868 13.7984 17.1415 12.9772 17.0858 12.7224 16.4911L10.8333 12.0833" stroke="currentColor" stroke-linecap="round" stroke-linejoin="round" stroke-width="2"/>
  <path d="M12.0833 5.8333H5.4619C4.887 5.8333 4.3229 5.9896 3.8299 6.2854 3.2752 6.6182 3.3309 7.4394 3.9255 7.6943L8.3333 9.5833" stroke="currentColor" stroke-linecap="round" stroke-linejoin="round" stroke-width="2"/>
</svg>
