<svg xmlns="http://www.w3.org/2000/svg" width="20" height="20" viewBox="0 0 20 20" fill="none">
  <path d="M2.0834 6.25H17.9168" stroke="currentColor" stroke-linejoin="round" stroke-width="2"/>
  <path d="M14.1668 2.0833L11.6668 6.25" stroke="currentColor" stroke-linejoin="round" stroke-width="2"/>
  <path d="M8.3334 2.0833L5.8334 6.25" stroke="currentColor" stroke-linejoin="round" stroke-width="2"/>
  <path d="M2.0833 10C2.0833 6.268 2.0833 4.4021 3.2427 3.2427 4.4021 2.0833 6.268 2.0833 10 2.0833 13.7319 2.0833 15.5979 2.0833 16.7573 3.2427 17.9167 4.4021 17.9167 6.268 17.9167 10 17.9167 13.7319 17.9167 15.5979 16.7573 16.7573 15.5979 17.9167 13.7319 17.9167 10 17.9167 6.268 17.9167 4.4021 17.9167 3.2427 16.7573 2.0833 15.5979 2.0833 13.7319 2.0833 10Z" stroke="currentColor" stroke-width="2"/>
  <path d="M12.4609 12.4123C12.3347 12.9346 11.7381 13.3037 10.5449 14.0418 9.3914 14.7553 8.8148 15.1122 8.3499 14.9688 8.1578 14.9094 7.9827 14.7968 7.8415 14.6417 7.5 14.2665 7.5 13.5388 7.5 12.0833 7.5 10.6279 7.5 9.9002 7.8415 9.5249 7.9827 9.3698 8.1578 9.2573 8.3499 9.1979 8.8148 9.0545 9.3914 9.4113 10.5449 10.1248 11.7381 10.863 12.3347 11.2321 12.4609 11.7543 12.513 11.9699 12.513 12.1968 12.4609 12.4123Z" stroke="currentColor" stroke-linejoin="round" stroke-width="2"/>
</svg>
