<svg xmlns="http://www.w3.org/2000/svg" width="20" height="20" viewBox="0 0 20 20" fill="none">
  <path d="M2.5 12.5C2.5 10.1593 2.5 8.9888 3.0618 8.1481 3.305 7.7841 3.6175 7.4716 3.9814 7.2284 4.8222 6.6667 5.9926 6.6667 8.3333 6.6667H11.6667C14.0074 6.6667 15.1778 6.6667 16.0186 7.2284 16.3825 7.4716 16.695 7.7841 16.9383 8.1481 17.5 8.9888 17.5 10.1593 17.5 12.5 17.5 14.8408 17.5 16.0112 16.9383 16.8519 16.695 17.2158 16.3825 17.5283 16.0186 17.7716 15.1778 18.3333 14.0074 18.3333 11.6667 18.3333H8.3333C5.9926 18.3333 4.8222 18.3333 3.9814 17.7716 3.6175 17.5283 3.305 17.2158 3.0618 16.8519 2.5 16.0112 2.5 14.8408 2.5 12.5Z" stroke="currentColor" stroke-linecap="round" stroke-linejoin="round" stroke-width="2"/>
  <path d="M10.4167 13.75C10.4167 14.4403 9.857 15 9.1667 15 8.4763 15 7.9167 14.4403 7.9167 13.75 7.9167 13.0597 8.4763 12.5 9.1667 12.5 9.857 12.5 10.4167 13.0597 10.4167 13.75ZM10.4167 13.75V9.5833C10.4167 9.5833 10.75 11.0278 12.0833 11.25" stroke="currentColor" stroke-linecap="round" stroke-linejoin="round" stroke-width="2"/>
  <path d="M15.8333 6.6667C15.8184 5.6335 15.7417 5.0478 15.3485 4.6548 14.8601 4.1667 14.074 4.1667 12.5018 4.1667H7.4982C5.926 4.1667 5.1399 4.1667 4.6515 4.6548 4.2583 5.0478 4.1816 5.6335 4.1667 6.6667" stroke="currentColor" stroke-linecap="round" stroke-linejoin="round" stroke-width="2"/>
  <path d="M14.1667 4.1667C14.1667 3.3901 14.1667 3.0018 14.0398 2.6955 13.8707 2.2872 13.5462 1.9627 13.1378 1.7935 12.8315 1.6667 12.4433 1.6667 11.6667 1.6667H8.3333C7.5568 1.6667 7.1685 1.6667 6.8622 1.7935 6.4538 1.9627 6.1294 2.2872 5.9602 2.6955 5.8333 3.0018 5.8333 3.3901 5.8333 4.1667" stroke="currentColor" stroke-linecap="round" stroke-linejoin="round" stroke-width="2"/>
</svg>
