<svg xmlns="http://www.w3.org/2000/svg" width="20" height="20" viewBox="0 0 20 20" fill="none">
  <path d="M14.9504 10.3593C14.7561 11.1526 13.7221 11.7224 11.654 12.862 9.4047 14.1014 8.2801 14.7212 7.3691 14.4824 7.0606 14.4016 6.7765 14.2593 6.5378 14.0664 5.8333 13.4969 5.8333 12.3144 5.8333 9.9495 5.8333 7.5846 5.8333 6.4022 6.5378 5.8326 6.7765 5.6397 7.0606 5.4975 7.3691 5.4167 8.2801 5.1779 9.4047 5.7976 11.654 7.0371 13.7221 8.1767 14.7561 8.7464 14.9504 9.5398 15.0165 9.8097 15.0165 10.0893 14.9504 10.3593Z" stroke="currentColor" stroke-linejoin="round" stroke-width="2"/>
  <path d="M6.6667 14.1667L13.3333 8.0119M6.6667 5.8333L13.3333 11.9881" stroke="currentColor" stroke-linejoin="round" stroke-width="2"/>
  <path d="M2.0833 10C2.0833 6.268 2.0833 4.4021 3.2427 3.2427 4.4021 2.0833 6.268 2.0833 10 2.0833 13.7319 2.0833 15.5979 2.0833 16.7573 3.2427 17.9167 4.4021 17.9167 6.268 17.9167 10 17.9167 13.7319 17.9167 15.5979 16.7573 16.7573 15.5979 17.9167 13.7319 17.9167 10 17.9167 6.268 17.9167 4.4021 17.9167 3.2427 16.7573 2.0833 15.5979 2.0833 13.7319 2.0833 10Z" stroke="currentColor" stroke-linejoin="round" stroke-width="2"/>
</svg>
