<svg xmlns="http://www.w3.org/2000/svg" width="20" height="20" viewBox="0 0 20 20" fill="none">
  <path d="M17.4981 10C17.5 9.6082 17.5 10.0256 17.5 9.5833 17.5 5.8514 17.5 3.9854 16.3407 2.826 15.1813 1.6667 13.3153 1.6667 9.5833 1.6667 5.8514 1.6667 3.9854 1.6667 2.826 2.826 1.6667 3.9854 1.6667 5.8514 1.6667 9.5833 1.6667 13.3153 1.6667 15.1813 2.826 16.3407 3.9854 17.5 5.8514 17.5 9.5833 17.5 9.7249 17.5 9.8637 17.5 10 17.4999" stroke="currentColor" stroke-linecap="round" stroke-width="2"/>
  <path d="M1.6667 5.8333H17.5" stroke="currentColor" stroke-linejoin="round" stroke-width="2"/>
  <path d="M13.75 1.6667L11.25 5.8333" stroke="currentColor" stroke-linejoin="round" stroke-width="2"/>
  <path d="M7.9167 1.6667L5.4167 5.8333" stroke="currentColor" stroke-linejoin="round" stroke-width="2"/>
  <path d="M12.5125 12.8222C13.4063 12.2891 14.1865 12.5039 14.6553 12.8461 14.8474 12.9864 14.9435 13.0566 15 13.0566 15.0565 13.0566 15.1526 12.9864 15.3447 12.8461 15.8135 12.5039 16.5937 12.2891 17.4875 12.8222 18.6607 13.5217 18.9261 15.8298 16.2202 17.777 15.7048 18.1479 15.4471 18.3333 15 18.3333 14.5529 18.3333 14.2952 18.1479 13.7798 17.777 11.0739 15.8298 11.3393 13.5217 12.5125 12.8222Z" stroke="currentColor" stroke-linecap="round" stroke-width="2"/>
</svg>
