<svg xmlns="http://www.w3.org/2000/svg" width="20" height="20" viewBox="0 0 20 20" fill="none">
  <circle cx="10" cy="10" r="8.333333333333334" stroke="currentColor" stroke-width="2"/>
  <path d="M13.2878 10.329C13.1405 10.8513 12.4444 11.2203 11.0524 11.9585 9.7067 12.672 9.0338 13.0288 8.4916 12.8854 8.2674 12.8261 8.0632 12.7135 7.8984 12.5584 7.5 12.1832 7.5 11.4554 7.5 10 7.5 8.5446 7.5 7.8168 7.8984 7.4416 8.0632 7.2865 8.2674 7.1739 8.4916 7.1146 9.0338 6.9712 9.7067 7.328 11.0524 8.0415 12.4444 8.7797 13.1405 9.1488 13.2878 9.671 13.3485 9.8866 13.3485 10.1134 13.2878 10.329Z" stroke="currentColor" stroke-linejoin="round" stroke-width="2"/>
</svg>
