<svg xmlns="http://www.w3.org/2000/svg" width="20" height="20" viewBox="0 0 20 20" fill="none">
  <path d="M1.6667 7.5C1.6667 4.7501 1.6667 3.3752 2.5209 2.5209 3.3752 1.6667 4.7501 1.6667 7.5 1.6667H9.1667C11.9165 1.6667 13.2914 1.6667 14.1458 2.5209 15 3.3752 15 4.7501 15 7.5V9.1667C15 11.9165 15 13.2914 14.1458 14.1458 13.2914 15 11.9165 15 9.1667 15H7.5C4.7501 15 3.3752 15 2.5209 14.1458 1.6667 13.2914 1.6667 11.9165 1.6667 9.1667V7.5Z" stroke="currentColor" stroke-width="2"/>
  <path d="M15.1986 5.8333C16.311 5.9012 17.0193 6.0872 17.53 6.5978 18.3333 7.4012 18.3333 8.6942 18.3333 11.2803V12.8476C18.3333 15.4336 18.3333 16.7266 17.53 17.53 16.7266 18.3333 15.4336 18.3333 12.8476 18.3333H11.2803C8.6942 18.3333 7.4012 18.3333 6.5978 17.53 6.0872 17.0193 5.9012 16.311 5.8333 15.1986" stroke="currentColor" stroke-linecap="round" stroke-width="2"/>
  <path d="M9.1667 10V5C9.3518 5.3333 9.5 6.7333 10.8333 7M9.1667 10C9.1667 10.9205 8.4205 11.6667 7.5 11.6667 6.5795 11.6667 5.8333 10.9205 5.8333 10 5.8333 9.0795 6.5795 8.3333 7.5 8.3333 8.4205 8.3333 9.1667 9.0795 9.1667 10Z" stroke="currentColor" stroke-linecap="round" stroke-linejoin="round" stroke-width="2"/>
</svg>
