<svg xmlns="http://www.w3.org/2000/svg" width="20" height="20" viewBox="0 0 20 20" fill="none">
  <path d="M17.9167 10.4167V9.2083C17.9167 5.8496 17.9167 4.1702 16.8733 3.1268 15.8298 2.0833 14.1504 2.0833 10.7917 2.0833H9.2083C5.8496 2.0833 4.1702 2.0833 3.1268 3.1268 2.0833 4.1702 2.0833 5.8496 2.0833 9.2083V10.7917C2.0833 14.1504 2.0833 15.8298 3.1268 16.8733 4.1702 17.9167 5.8496 17.9167 9.2083 17.9167H10.4167" stroke="currentColor" stroke-linecap="round" stroke-width="2"/>
  <path d="M12.8763 13.2158C13.7143 12.7208 14.4458 12.9203 14.8851 13.2381 15.0652 13.3683 15.1553 13.4335 15.2083 13.4335 15.2613 13.4335 15.3514 13.3683 15.5316 13.2381 15.9709 12.9203 16.7023 12.7208 17.5404 13.2158 18.6402 13.8655 18.8891 16.0087 16.3522 17.8167 15.8691 18.1612 15.6274 18.3333 15.2083 18.3333 14.7893 18.3333 14.5476 18.1612 14.0644 17.8167 11.5276 16.0087 11.7765 13.8655 12.8763 13.2158Z" stroke="currentColor" stroke-linecap="round" stroke-width="2"/>
  <path d="M12.4674 9.8183C12.3622 10.1914 11.8651 10.455 10.8708 10.9823 9.9095 11.4919 9.4289 11.7468 9.0416 11.6443 8.8815 11.602 8.7356 11.5216 8.6179 11.4108 8.3333 11.1427 8.3333 10.6229 8.3333 9.5833 8.3333 8.5437 8.3333 8.0239 8.6179 7.7559 8.7356 7.6451 8.8815 7.5647 9.0416 7.5223 9.4289 7.4199 9.9095 7.6747 10.8708 8.1844 11.8651 8.7117 12.3622 8.9753 12.4674 9.3483 12.5108 9.5023 12.5108 9.6643 12.4674 9.8183Z" stroke="currentColor" stroke-linejoin="round" stroke-width="2"/>
</svg>
