<svg xmlns="http://www.w3.org/2000/svg" width="20" height="20" viewBox="0 0 20 20" fill="none">
  <path d="M12.4609 10.329C12.3347 10.8513 11.7381 11.2203 10.5449 11.9585 9.3914 12.672 8.8148 13.0288 8.3499 12.8854 8.1578 12.8261 7.9827 12.7135 7.8415 12.5583 7.5 12.1832 7.5 11.4554 7.5 10 7.5 8.5446 7.5 7.8168 7.8415 7.4416 7.9827 7.2865 8.1578 7.1739 8.3499 7.1146 8.8148 6.9712 9.3914 7.328 10.5449 8.0415 11.7381 8.7797 12.3347 9.1488 12.4609 9.671 12.513 9.8866 12.513 10.1134 12.4609 10.329Z" stroke="currentColor" stroke-linejoin="round" stroke-width="2"/>
  <path d="M2.0833 10C2.0833 6.268 2.0833 4.4021 3.2427 3.2427 4.4021 2.0833 6.268 2.0833 10 2.0833 13.7319 2.0833 15.5979 2.0833 16.7573 3.2427 17.9167 4.4021 17.9167 6.268 17.9167 10 17.9167 13.7319 17.9167 15.5979 16.7573 16.7573 15.5979 17.9167 13.7319 17.9167 10 17.9167 6.268 17.9167 4.4021 17.9167 3.2427 16.7573 2.0833 15.5979 2.0833 13.7319 2.0833 10Z" stroke="currentColor" stroke-width="2"/>
</svg>
