<svg xmlns="http://www.w3.org/2000/svg" width="20" height="20" viewBox="0 0 20 20" fill="none">
  <path d="M1.6667 18.3333L18.3333 18.3333" stroke="currentColor" stroke-linecap="round" stroke-linejoin="round" stroke-width="2"/>
  <path d="M3.3333 18.3333V5.626C3.3333 5.1058 3.3333 4.8457 3.4734 4.6367 3.6134 4.4276 3.8655 4.3113 4.3698 4.0787L8.1198 2.3487C9.336 1.7876 9.9441 1.5071 10.3887 1.7607 10.8333 2.0142 10.8333 2.6415 10.8333 3.896V18.3333" stroke="currentColor" stroke-linecap="round" stroke-linejoin="round" stroke-width="2"/>
  <path d="M16.6667 18.3333V9.3634C16.6667 8.8623 16.6667 8.6117 16.5215 8.4102 16.3762 8.2089 16.1148 8.0968 15.5918 7.8727L10.8333 5.8333" stroke="currentColor" stroke-linecap="round" stroke-linejoin="round" stroke-width="2"/>
  <path d="M6.25 7.5L7.9167 7.5M6.25 10.8333H7.9167M6.25 14.1667H7.9167" stroke="currentColor" stroke-linecap="round" stroke-linejoin="round" stroke-width="2"/>
</svg>
