<svg xmlns="http://www.w3.org/2000/svg" width="20" height="20" viewBox="0 0 20 20" fill="none">
  <path d="M14.8783 10.1333C14.5592 10.5088 13.9693 10.5115 13.5971 10.1393L9.8608 6.4029C9.4885 6.0307 9.4913 5.4408 9.8667 5.1216L10.8925 4.2495C11.6299 3.6225 12.5291 3.2069 13.5037 3.0424L14.1078 2.9405C14.6783 2.8442 15.2782 3.0435 15.7063 3.4715L16.5285 4.2938C16.9565 4.7218 17.1558 5.3217 17.0595 5.8922L16.9576 6.4963C16.7932 7.4709 16.3775 8.3701 15.7505 9.1075L14.8783 10.1333Z" stroke="currentColor" stroke-width="2"/>
  <path d="M16.25 3.75L17.9167 2.0833" stroke="currentColor" stroke-linecap="round" stroke-linejoin="round" stroke-width="2"/>
  <path d="M2.0833 17.9167L3.75 16.25" stroke="currentColor" stroke-linecap="round" stroke-linejoin="round" stroke-width="2"/>
  <path d="M5.1216 9.8667C5.4408 9.4913 6.0307 9.4885 6.4029 9.8608L10.1393 13.5971C10.5115 13.9693 10.5088 14.5592 10.1333 14.8783L9.1075 15.7505C8.3701 16.3775 7.4709 16.7932 6.4963 16.9576L5.8922 17.0595C5.3217 17.1558 4.7218 16.9565 4.2938 16.5285L3.4715 15.7063C3.0435 15.2782 2.8442 14.6783 2.9405 14.1078L3.0424 13.5037C3.2069 12.5291 3.6225 11.6299 4.2495 10.8925L5.1216 9.8667Z" stroke="currentColor" stroke-width="2"/>
  <path d="M7.0833 10.4167L8.75 8.75M9.5833 12.9167L11.25 11.25" stroke="currentColor" stroke-linecap="round" stroke-linejoin="round" stroke-width="2"/>
</svg>
