<svg xmlns="http://www.w3.org/2000/svg" width="20" height="20" viewBox="0 0 20 20" fill="none">
  <path d="M11.6667 6.6667V9.1667M8.3333 9.1667V6.6667" stroke="currentColor" stroke-linecap="round" stroke-linejoin="round" stroke-width="2"/>
  <path d="M6.6691 10.0222C6.6318 9.5605 7.022 9.1667 7.5167 9.1667H12.4833C12.978 9.1667 13.3682 9.5605 13.3308 10.0222L13.2287 11.2836C13.1553 12.1904 12.834 13.0642 12.2955 13.8213L11.9618 14.2906C11.6466 14.7337 11.1154 15 10.5465 15H9.4535C8.8846 15 8.3534 14.7337 8.0382 14.2906L7.7045 13.8213C7.166 13.0642 6.8447 12.1904 6.7713 11.2836L6.6691 10.0222Z" stroke="currentColor" stroke-width="2"/>
  <path d="M13.3333 17.6758C16.2765 16.387 18.3333 13.4436 18.3333 10.0187 18.3333 5.406 14.6023 1.6667 10 1.6667 5.3976 1.6667 1.6667 5.406 1.6667 10.0187 1.6667 14.3499 4.9562 17.9111 9.1678 18.3296 9.6258 18.3751 10 17.9968 10 17.5355V15.0299" stroke="currentColor" stroke-linecap="round" stroke-linejoin="round" stroke-width="2"/>
</svg>
