<svg xmlns="http://www.w3.org/2000/svg" width="20" height="20" viewBox="0 0 20 20" fill="none">
  <path d="M12.9167 1.6667V5M7.0833 5V1.6667" stroke="currentColor" stroke-linecap="round" stroke-linejoin="round" stroke-width="2"/>
  <path d="M5.0037 6.3444C4.9477 5.6189 5.533 5 6.2751 5H13.7249C14.467 5 15.0523 5.6189 14.9962 6.3444L14.8431 8.3266C14.733 9.7516 14.2509 11.1248 13.4433 12.3144L12.9427 13.0518C12.4698 13.7483 11.6731 14.1667 10.8198 14.1667H9.1802C8.3269 14.1667 7.5301 13.7483 7.0573 13.0518L6.5567 12.3144C5.749 11.1248 5.267 9.7516 5.1569 8.3266L5.0037 6.3444Z" stroke="currentColor" stroke-width="2"/>
  <path d="M10 14.1667V18.3333" stroke="currentColor" stroke-linecap="round" stroke-linejoin="round" stroke-width="2"/>
  <path d="M9.1667 7.5H10.8333" stroke="currentColor" stroke-linecap="round" stroke-linejoin="round" stroke-width="2"/>
</svg>
