<svg xmlns="http://www.w3.org/2000/svg" width="20" height="20" viewBox="0 0 20 20" fill="none">
  <path d="M9.1668 13.3333C9.1668 14.891 9.1668 15.6698 9.5017 16.25 9.7211 16.6301 10.0367 16.9457 10.4168 17.1651 10.9968 17.5 11.7757 17.5 13.3334 17.5 14.8911 17.5 15.6699 17.5 16.2501 17.1651 16.6301 16.9457 16.9457 16.6301 17.1651 16.25 17.5001 15.6698 17.5001 14.891 17.5001 13.3333 17.5001 11.7757 17.5001 10.9968 17.1651 10.4167 16.9457 10.0366 16.6301 9.721 16.2501 9.5016 15.6699 9.1667 14.8911 9.1667 13.3334 9.1667" stroke="currentColor" stroke-linecap="round" stroke-linejoin="round" stroke-width="2"/>
  <path d="M6.6669 2.5C8.2246 2.5 9.0034 2.5 9.5835 2.8349 9.9636 3.0544 10.2792 3.37 10.4986 3.75 10.8335 4.3301 10.8335 5.109 10.8335 6.6667 10.8335 8.2244 10.8335 9.0032 10.4986 9.5833 10.2792 9.9634 9.9636 10.279 9.5835 10.4984 9.0034 10.8333 8.2246 10.8333 6.6669 10.8333 5.1092 10.8333 4.3303 10.8333 3.7502 10.4984 3.3702 10.279 3.0546 9.9634 2.8351 9.5833 2.5002 9.0032 2.5002 8.2244 2.5002 6.6667 2.5002 5.109 2.5002 4.3301 2.8351 3.75 3.0546 3.37 3.3702 3.0544 3.7502 2.8349 4.3303 2.5 5.1092 2.5 6.6669 2.5Z" stroke="currentColor" stroke-linejoin="round" stroke-width="2"/>
  <path d="M6.6667 5V8.3333" stroke="currentColor" stroke-linecap="round" stroke-width="2"/>
  <path d="M8.3333 6.6667L5 6.6667" stroke="currentColor" stroke-linecap="round" stroke-width="2"/>
  <path d="M15 13.3333L11.6667 13.3333" stroke="currentColor" stroke-linecap="round" stroke-width="2"/>
</svg>
