<svg xmlns="http://www.w3.org/2000/svg" width="20" height="20" viewBox="0 0 20 20" fill="none">
  <path d="M2.5 9.1667V8.3333C2.5 5.9763 2.5 4.7978 3.2322 4.0656 3.9645 3.3333 5.143 3.3333 7.5 3.3333H12.5C14.857 3.3333 16.0355 3.3333 16.7678 4.0656 17.5 4.7978 17.5 5.9763 17.5 8.3333V9.1667C17.5 13.3088 14.1422 16.6667 10 16.6667 5.8579 16.6667 2.5 13.3088 2.5 9.1667Z" stroke="currentColor" stroke-linecap="round" stroke-linejoin="round" stroke-width="2"/>
  <path d="M7.0833 8.3333L9.2887 10.5387C9.4773 10.7273 9.7332 10.8333 10 10.8333 10.2668 10.8333 10.5227 10.7273 10.7113 10.5387L12.9167 8.3333" stroke="currentColor" stroke-linecap="round" stroke-linejoin="round" stroke-width="2"/>
</svg>
