<svg xmlns="http://www.w3.org/2000/svg" width="20" height="20" viewBox="0 0 20 20" fill="none">
  <path d="M4.375 14.896V15.0002M4.5833 15.0002C4.5833 15.1153 4.4901 15.2085 4.375 15.2085 4.2599 15.2085 4.1667 15.1153 4.1667 15.0002 4.1667 14.8851 4.2599 14.7918 4.375 14.7918 4.4901 14.7918 4.5833 14.8851 4.5833 15.0002Z" stroke="currentColor" stroke-linecap="round" stroke-linejoin="round" stroke-width="2"/>
  <path d="M15.625 14.8958V15M15.8333 15C15.8333 15.1151 15.7401 15.2083 15.625 15.2083 15.5099 15.2083 15.4167 15.1151 15.4167 15 15.4167 14.8849 15.5099 14.7917 15.625 14.7917 15.7401 14.7917 15.8333 14.8849 15.8333 15Z" stroke="currentColor" stroke-linecap="round" stroke-linejoin="round" stroke-width="2"/>
  <path d="M4.1666 17.5H15.8333C17.214 17.5 18.3333 16.3808 18.3333 15 18.3333 13.6193 17.214 12.5 15.8333 12.5H4.1666C2.7859 12.5 1.6666 13.6193 1.6666 15 1.6666 16.3808 2.7859 17.5 4.1666 17.5Z" stroke="currentColor" stroke-linecap="round" stroke-linejoin="round" stroke-width="2"/>
  <path d="M14.1667 2.5V3.3333C14.1667 4.1667 15.8333 4.1667 15.8333 5 15.8333 5.8333 14.1667 5.8333 14.1667 6.6667 14.1667 7.5 15.8333 7.5 15.8333 8.3333 15.8333 9.1667 14.1667 9.1667 14.1667 10 14.1667 10.8333 15.8333 10.8333 15.8333 11.6667V12.5" stroke="currentColor" stroke-linecap="round" stroke-linejoin="round" stroke-width="2"/>
  <path d="M3.3333 12.5V2.9167C3.3333 2.6866 3.5199 2.5 3.75 2.5 5.3608 2.5 6.6666 3.8058 6.6666 5.4167V12.5" stroke="currentColor" stroke-linecap="round" stroke-linejoin="round" stroke-width="2"/>
</svg>
