<svg xmlns="http://www.w3.org/2000/svg" width="20" height="20" viewBox="0 0 20 20" fill="none">
  <path d="M3.763 14.1667C2.9652 12.9749 2.5 11.5418 2.5 10 2.5 5.8579 5.8579 2.5 10 2.5 14.1422 2.5 17.5 5.8579 17.5 10 17.5 11.5418 17.0348 12.9749 16.2371 14.1667" stroke="currentColor" stroke-linecap="round" stroke-linejoin="round" stroke-width="2"/>
  <path d="M7.5 9.1667C7.5 7.786 8.6193 6.6667 10 6.6667 11.3808 6.6667 12.5 7.786 12.5 9.1667V10.8333C12.5 12.2141 11.3808 13.3333 10 13.3333 8.6193 13.3333 7.5 12.2141 7.5 10.8333V9.1667Z" stroke="currentColor" stroke-linecap="round" stroke-linejoin="round" stroke-width="2"/>
  <path d="M10 13.3333L10 16.6667" stroke="currentColor" stroke-linecap="round" stroke-linejoin="round" stroke-width="2"/>
  <path d="M8.3333 17.5L10 15.8333 11.6667 17.5H8.3333Z" stroke="currentColor" stroke-linecap="round" stroke-linejoin="round" stroke-width="2"/>
</svg>
