<svg xmlns="http://www.w3.org/2000/svg" width="20" height="20" viewBox="0 0 20 20" fill="none">
  <path d="M18.3333 16.5764H16.985C16.2137 16.5764 15.4067 17.1798 14.741 17.4986 13.5104 18.0879 11.1022 18.8943 9.9682 17.7674 8.1806 15.9911 7.8534 13.5068 7.9167 12.0833L3.125 12.0833C2.3196 12.0833 1.6667 11.4303 1.6667 10.6249 1.6667 9.8195 2.3196 9.1666 3.125 9.1666L8.3334 9.1666M8.3334 9.1666L11.6667 9.1666M8.3334 9.1666C8.3481 9.1471 10.1461 6.768 11.3405 6.3531 12.4097 5.9816 13.3613 6.6936 14.2428 7.2288 14.9254 7.6433 16.6097 9.1667 17.5041 9.1667H18.3333" stroke="currentColor" stroke-linecap="round" stroke-linejoin="round" stroke-width="2"/>
  <path d="M1.6667 3.75L6.6667 3.75M1.6667 3.75C1.6667 3.1665 3.3286 2.0763 3.75 1.6667M1.6667 3.75C1.6667 4.3335 3.3286 5.4237 3.75 5.8333" stroke="currentColor" stroke-linecap="round" stroke-linejoin="round" stroke-width="2"/>
</svg>
