<svg xmlns="http://www.w3.org/2000/svg" width="20" height="20" viewBox="0 0 20 20" fill="none">
  <path d="M1.6667 3.7501H6.6667M1.6667 3.7501C1.6667 3.1665 3.3286 2.0764 3.75 1.6667M1.6667 3.7501C1.6667 4.3336 3.3286 5.4238 3.75 5.8334" stroke="currentColor" stroke-linecap="round" stroke-linejoin="round" stroke-width="2"/>
  <path d="M9.1792 10.8377L6.6756 10.8377M6.6756 10.8377H3.7538C3.0613 10.8377 2.5 10.2774 2.5 9.5863 2.5 8.8951 3.0613 8.3347 3.7538 8.3347L8.3075 8.3347M6.6756 10.8377L6.698 11.7163C6.7131 12.3088 7.0367 12.8227 7.513 13.1062M8.3075 8.3347L12.1099 8.3347M8.3075 8.3347L10.6073 6.1735C12.1637 4.8632 13.2982 5.5518 13.9285 6.0353L15.9597 7.381C17.6826 8.4017 18.3333 9.5828 18.3333 10.5764V14.6437C18.3333 16.5321 16.3481 18.2929 14.5285 18.2929L10.1952 18.333C9.3534 18.3407 8.6375 17.7218 8.525 16.8891L8.3673 15.6054M9.204 13.3407H8.3673C8.0554 13.3407 7.7631 13.2552 7.513 13.1062M7.513 13.1062L7.5586 14.2193C7.5816 15.123 8.3222 15.8436 9.2278 15.8436H10.0645" stroke="currentColor" stroke-linecap="round" stroke-linejoin="round" stroke-width="2"/>
</svg>
