<svg xmlns="http://www.w3.org/2000/svg" width="20" height="20" viewBox="0 0 20 20" fill="none">
  <path d="M1.6813 3.7489H6.6747M1.6813 3.7489C1.6813 3.1657 3.341 2.0761 3.7619 1.6667M1.6813 3.7489C1.6813 4.3321 3.341 5.4218 3.7619 5.8312" stroke="currentColor" stroke-linecap="round" stroke-linejoin="round" stroke-width="2"/>
  <path d="M18.3332 9.0218L17.5428 9.0218C17.0048 9.0218 16.4812 8.8478 16.0495 8.5255L11.9638 5.4754C11.4926 5.1236 10.9079 4.8427 10.3683 5.0749 9.4946 5.4509 8.927 6.5116 10.2368 7.8098L11.6613 9.1418 2.9755 9.1418C1.2729 9.1886 1.1885 11.9305 2.9755 12.0478L7.9255 12.0478C7.7662 13.282 8.6357 19.0959 12.3193 18.2485 12.4943 18.2082 12.6718 18.168 12.8471 18.1288 13.6128 17.9573 14.9772 17.4504 15.775 16.8914 16.6054 16.3095 17.4326 16.5148 18.3332 16.5148" stroke="currentColor" stroke-linecap="round" stroke-linejoin="round" stroke-width="2"/>
</svg>
