<svg xmlns="http://www.w3.org/2000/svg" width="20" height="20" viewBox="0 0 20 20" fill="none">
  <path d="M6.6667 10.8337L6.6667 11.667C6.6667 12.5875 7.4129 13.3337 8.3333 13.3337M8.3333 13.3337L9.1667 13.3337M8.3333 13.3337C7.8731 13.3337 7.5 13.7068 7.5 14.167 7.5 15.0875 8.2462 15.8337 9.1667 15.8337M9.1667 15.8337L10 15.8337M9.1667 15.8337C8.7304 15.8337 8.3986 16.2254 8.4703 16.6557L8.5179 16.941C8.6518 17.7447 9.3472 18.3337 10.1619 18.3337L11.389 18.3333C13.2002 18.3333 14.1058 18.3333 14.8267 18.0574 15.2449 17.8974 15.7783 17.4753 16.1637 17.1377 16.497 16.8457 16.9198 16.6667 17.363 16.6667L18.3335 16.6667M8.3333 10.8335L2.9167 10.8335C2.2263 10.8335 1.6667 10.2738 1.6667 9.5835 1.6667 8.8932 2.2263 8.3335 2.9167 8.3335L11.2187 8.3333 9.8642 6.9831C9.2699 6.3906 9.3241 5.4148 9.9804 4.8914 10.4826 4.4909 11.1929 4.4798 11.7074 4.8645L15.5392 7.8642C16.2724 8.4382 17.4024 8.75 18.3335 8.75" stroke="currentColor" stroke-linecap="round" stroke-linejoin="round" stroke-width="2"/>
  <path d="M1.6667 3.75L6.6667 3.75M1.6667 3.75C1.6667 3.1665 3.3286 2.0763 3.75 1.6667M1.6667 3.75C1.6667 4.3335 3.3286 5.4237 3.75 5.8333" stroke="currentColor" stroke-linecap="round" stroke-linejoin="round" stroke-width="2"/>
</svg>
