<svg xmlns="http://www.w3.org/2000/svg" width="20" height="20" viewBox="0 0 20 20" fill="none">
  <path d="M18.3333 3.7501H13.3333M18.3333 3.7501C18.3333 3.1665 16.6714 2.0764 16.25 1.6667M18.3333 3.7501C18.3333 4.3336 16.6714 5.4238 16.25 5.8334" stroke="currentColor" stroke-linecap="round" stroke-linejoin="round" stroke-width="2"/>
  <path d="M10.8208 10.8377L13.3243 10.8377M13.3243 10.8377H16.2462C16.9387 10.8377 17.5 10.2774 17.5 9.5863 17.5 8.8951 16.9387 8.3347 16.2462 8.3347L11.6925 8.3347M13.3243 10.8377L13.302 11.7163C13.2869 12.3088 12.9633 12.8227 12.487 13.1062M11.6925 8.3347L7.8901 8.3347M11.6925 8.3347L9.3927 6.1735C7.8364 4.8632 6.7018 5.5518 6.0715 6.0353L4.0403 7.381C2.3174 8.4017 1.6667 9.5828 1.6667 10.5764V14.6437C1.6667 16.5321 3.6519 18.2929 5.4715 18.2929L9.8048 18.333C10.6466 18.3407 11.3625 17.7218 11.475 16.8891L11.6328 15.6054M10.796 13.3407H11.6328C11.9446 13.3407 12.2368 13.2552 12.487 13.1062M12.487 13.1062L12.4414 14.2193C12.4184 15.123 11.6778 15.8436 10.7722 15.8436H9.9355" stroke="currentColor" stroke-linecap="round" stroke-linejoin="round" stroke-width="2"/>
</svg>
