<svg xmlns="http://www.w3.org/2000/svg" width="20" height="20" viewBox="0 0 20 20" fill="none">
  <path d="M12.0833 8.2633L9.1667 8.2633M9.1667 8.2633L3.9583 8.2633C3.1529 8.2633 2.5 8.9163 2.5 9.7217 2.5 10.5271 3.1529 11.18 3.9583 11.18H8.3333L8.7313 13.7442C8.9724 15.3513 9.0929 16.155 9.432 16.721 9.9922 17.656 10.8333 18.3333 12.0613 18.3333 12.9167 18.3333 13.4905 18.1219 15.0322 17.608 16.0106 17.2819 16.4997 17.1188 16.8869 16.853 17.5244 16.4153 17.9898 15.7694 18.2035 15.0263 18.3333 14.5748 18.3333 14.0592 18.3333 13.028V11.8573C18.3333 10.3702 18.3333 9.6267 18.0542 8.9882 17.9281 8.6997 17.7617 8.4306 17.5602 8.1888 17.1139 7.6537 16.4489 7.3211 15.1188 6.6561 14.0402 6.1168 13.5009 5.8471 12.9418 5.834 12.6897 5.8281 12.438 5.8604 12.1955 5.9298 11.6578 6.0836 11.204 6.4806 10.2965 7.2748L9.1667 8.2633Z" stroke="currentColor" stroke-linecap="round" stroke-linejoin="round" stroke-width="2"/>
  <path d="M1.6667 3.75L6.6667 3.75M1.6667 3.75C1.6667 3.1665 3.3286 2.0763 3.75 1.6667M1.6667 3.75C1.6667 4.3335 3.3286 5.4237 3.75 5.8333" stroke="currentColor" stroke-linecap="round" stroke-linejoin="round" stroke-width="2"/>
</svg>
