<svg xmlns="http://www.w3.org/2000/svg" width="20" height="20" viewBox="0 0 20 20" fill="none">
  <path d="M18.3352 3.75H13.3383M18.3352 3.75C18.3352 3.1665 16.6743 2.0763 16.2531 1.6667M18.3352 3.75C18.3352 4.3335 16.6743 5.4237 16.2531 5.8333" stroke="currentColor" stroke-linecap="round" stroke-linejoin="round" stroke-width="2"/>
  <path d="M1.6647 9.022L2.4548 9.022C2.9924 9.022 3.5157 8.8479 3.9471 8.5257L8.0303 5.4756C8.5013 5.1238 9.0855 4.8429 9.6249 5.0751 10.498 5.4511 11.0653 6.5118 9.7562 7.81L8.3326 9.1419 17.0131 9.1419C18.7147 9.1888 18.7991 11.9308 17.0131 12.048L12.0662 12.048C12.2253 13.2822 11.3563 19.0961 7.6751 18.2487 7.5002 18.2084 7.3227 18.1683 7.1476 18.129 6.3824 17.9575 5.0187 17.4506 4.2215 16.8917 3.3915 16.3098 2.5649 16.5151 1.6647 16.5151" stroke="currentColor" stroke-linecap="round" stroke-linejoin="round" stroke-width="2"/>
</svg>
