<svg xmlns="http://www.w3.org/2000/svg" width="20" height="20" viewBox="0 0 20 20" fill="none">
  <path d="M10 18.3333L12.2223 18.3333C14.0333 18.3333 14.9389 18.3333 15.6598 18.0574 16.7623 17.6356 17.6334 16.7673 18.0566 15.6683 18.3333 14.9496 18.3333 14.0468 18.3333 12.2414 18.3333 11.2945 18.3333 10.8211 18.2362 10.3805 18.088 9.7083 17.7745 9.0833 17.324 8.5618 17.0287 8.22 16.6487 7.9359 15.8889 7.3678L12.5406 4.8645C12.0262 4.4798 11.3158 4.4909 10.8136 4.8914 10.1573 5.4148 10.1031 6.3906 10.6974 6.9831L12.0519 8.3333 3.75 8.3333C3.0596 8.3333 2.5 8.893 2.5 9.5833 2.5 10.2737 3.0596 10.8333 3.75 10.8333L6.6667 10.8333M6.6667 10.8333L6.6667 11.6667C6.6667 12.5872 7.4129 13.3333 8.3333 13.3333M6.6667 10.8333L9.1667 10.8333M8.3333 13.3333L9.1667 13.3333M8.3333 13.3333L7.5 13.3333 7.5 14.1667C7.5 15.0872 8.2462 15.8333 9.1667 15.8333M9.1667 15.8333L10 15.8333M9.1667 15.8333L8.3333 15.8333 8.5179 16.9407C8.6518 17.7443 9.3472 18.3333 10.1619 18.3333L10.8333 18.3333" stroke="currentColor" stroke-linecap="round" stroke-linejoin="round" stroke-width="2"/>
  <path d="M1.6667 3.75L6.6667 3.75M1.6667 3.75C1.6667 3.1665 3.3286 2.0763 3.75 1.6667M1.6667 3.75C1.6667 4.3335 3.3286 5.4237 3.75 5.8333" stroke="currentColor" stroke-linecap="round" stroke-linejoin="round" stroke-width="2"/>
</svg>
