<svg xmlns="http://www.w3.org/2000/svg" width="20" height="20" viewBox="0 0 20 20" fill="none">
  <path d="M18.3333 3.75H13.3333M18.3333 3.75C18.3333 3.1665 16.6714 2.0763 16.25 1.6667M18.3333 3.75C18.3333 4.3335 16.6714 5.4237 16.25 5.8333" stroke="currentColor" stroke-linecap="round" stroke-linejoin="round" stroke-width="2"/>
  <path d="M10.7717 10.8376H13.3571M13.3571 10.8376H17.0804C17.7727 10.8376 18.3338 10.2773 18.3338 9.5862 18.3338 8.895 17.7727 8.3347 17.0804 8.3347L12.5281 8.3347M13.3571 10.8376L13.3347 11.7163C13.3196 12.3087 12.9962 12.8226 12.52 13.1062M12.5281 8.3347L8.7268 8.3347M12.5281 8.3347L10.229 6.1735C8.6732 4.8631 7.539 5.5517 6.9088 6.0352L3.5983 8.4356C3.3139 8.6418 2.9717 8.7528 2.6205 8.7528H1.6765M10.8295 13.3406H11.666C11.9778 13.3406 12.2699 13.2552 12.52 13.1062M12.52 13.1062L12.4744 14.2192C12.4601 14.7811 12.1685 15.2722 11.7323 15.5633M9.9693 15.8435H10.8057C11.1482 15.8435 11.467 15.7404 11.7323 15.5633M11.7323 15.5633L11.5083 16.889C11.3958 17.7218 10.6801 18.3407 9.8386 18.3329H6.8817C6.3786 18.3329 5.8733 18.2924 5.3953 18.1352 4.9973 18.0043 4.5591 17.8208 4.2729 17.5958 3.6556 17.1106 3.4368 16.7713 2.9076 16.6831 2.4842 16.6125 1.9532 16.6027 1.6667 16.6027" stroke="currentColor" stroke-linecap="round" stroke-linejoin="round" stroke-width="2"/>
</svg>
