<svg xmlns="http://www.w3.org/2000/svg" width="20" height="20" viewBox="0 0 20 20" fill="none">
  <path d="M9.4408 6.5594L7.9167 8.3376 16.0417 8.3376C16.8471 8.3376 17.5 8.9905 17.5 9.7959 17.5 10.6013 16.8471 11.2543 16.0417 11.2543H11.6667L11.2687 13.7442C11.0276 15.3513 10.9071 16.155 10.568 16.721 10.0078 17.656 9.1667 18.3333 7.9387 18.3333 7.0833 18.3333 6.5095 18.1219 4.9677 17.608 3.9895 17.2819 3.5003 17.1188 3.1131 16.853 2.4756 16.4153 2.0102 15.7694 1.7965 15.0263 1.6667 14.5748 1.6667 14.0592 1.6667 13.028L1.6667 12.1539C1.6667 10.7829 1.6667 10.0974 1.9182 9.4872 1.9633 9.3778 2.0142 9.2708 2.0707 9.1668 2.3857 8.5867 2.9177 8.1544 3.9818 7.2899L7.4264 4.4912C7.9557 4.0611 8.7133 4.0582 9.2458 4.4843 9.8859 4.9964 9.9743 5.937 9.4408 6.5594Z" stroke="currentColor" stroke-linecap="round" stroke-linejoin="round" stroke-width="2"/>
  <path d="M18.3333 3.75L13.3333 3.75M18.3333 3.75C18.3333 3.1665 16.6714 2.0763 16.25 1.6667M18.3333 3.75C18.3333 4.3335 16.6714 5.4237 16.25 5.8333" stroke="currentColor" stroke-linecap="round" stroke-linejoin="round" stroke-width="2"/>
</svg>
