<svg xmlns="http://www.w3.org/2000/svg" width="20" height="20" viewBox="0 0 20 20" fill="none">
  <path d="M1.6667 16.5764H3.015C3.7864 16.5764 4.5933 17.1798 5.259 17.4986 6.4896 18.0879 8.8978 18.8943 10.0318 17.7674 11.8194 15.9911 12.1467 13.5068 12.0833 12.0833L16.875 12.0833C17.6804 12.0833 18.3333 11.4303 18.3333 10.6249 18.3333 9.8195 17.6804 9.1666 16.875 9.1666L11.6666 9.1666M11.6666 9.1666L8.3333 9.1666M11.6666 9.1666C11.6519 9.1471 9.8539 6.768 8.6595 6.3531 7.5904 5.9816 6.6386 6.6936 5.7572 7.2288 5.0746 7.6433 3.3904 9.1667 2.4959 9.1667H1.6667" stroke="currentColor" stroke-linecap="round" stroke-linejoin="round" stroke-width="2"/>
  <path d="M18.3333 3.75L13.3333 3.75M18.3333 3.75C18.3333 3.1665 16.6714 2.0763 16.25 1.6667M18.3333 3.75C18.3333 4.3335 16.6714 5.4237 16.25 5.8333" stroke="currentColor" stroke-linecap="round" stroke-linejoin="round" stroke-width="2"/>
</svg>
