<svg xmlns="http://www.w3.org/2000/svg" width="20" height="20" viewBox="0 0 20 20" fill="none">
  <path d="M10.5592 6.5594L12.0833 8.3376 3.9583 8.3376C3.1529 8.3376 2.5 8.9905 2.5 9.7959 2.5 10.6013 3.1529 11.2543 3.9583 11.2543H8.3333L8.7313 13.7442C8.9724 15.3513 9.0929 16.155 9.432 16.721 9.9922 17.656 10.8333 18.3333 12.0613 18.3333 12.9167 18.3333 13.4905 18.1219 15.0322 17.608 16.0106 17.2819 16.4997 17.1188 16.8869 16.853 17.5244 16.4153 17.9898 15.7694 18.2035 15.0263 18.3333 14.5748 18.3333 14.0592 18.3333 13.028V12.1539C18.3333 10.7829 18.3333 10.0974 18.0817 9.4872 18.0367 9.3778 17.9857 9.2708 17.9292 9.1668 17.6143 8.5867 17.0823 8.1544 16.0183 7.2899L12.5736 4.4912C12.0442 4.0611 11.2868 4.0582 10.7542 4.4843 10.1141 4.9964 10.0257 5.937 10.5592 6.5594Z" stroke="currentColor" stroke-linecap="round" stroke-linejoin="round" stroke-width="2"/>
  <path d="M1.6667 3.75L6.6667 3.75M1.6667 3.75C1.6667 3.1665 3.3286 2.0763 3.75 1.6667M1.6667 3.75C1.6667 4.3335 3.3286 5.4237 3.75 5.8333" stroke="currentColor" stroke-linecap="round" stroke-linejoin="round" stroke-width="2"/>
</svg>
