<svg xmlns="http://www.w3.org/2000/svg" width="20" height="20" viewBox="0 0 20 20" fill="none">
  <path d="M10 17.5C13.6819 17.5 16.6667 16.0076 16.6667 14.1667 16.6667 13.3528 15.9664 12.89 15.7896 12.1572 15.6898 11.744 15.8333 11.2593 15.8333 10.8333 15.8333 9.8866 15.6077 8.9924 15.2074 8.2018 16.7712 6.8441 18.3333 4.672 18.3333 2.5 14.8728 2.5 13.1195 4.4577 12.5831 5.6016 10.9715 4.8045 9.0285 4.8045 7.417 5.6016 6.8805 4.4577 5.1272 2.5 1.6667 2.5 1.6667 4.672 3.2287 6.8441 4.7926 8.2018 4.3922 8.9924 4.1667 9.8866 4.1667 10.8333 4.1667 11.2593 4.3101 11.744 4.2104 12.1572 4.0336 12.89 3.3333 13.3528 3.3333 14.1667 3.3333 16.0076 6.3181 17.5 10 17.5Z" stroke="currentColor" stroke-linejoin="round" stroke-width="2"/>
  <path d="M9.1667 13.3333C9.8271 13.883 10.1717 13.8948 10.8333 13.3333" stroke="currentColor" stroke-linecap="round" stroke-linejoin="round" stroke-width="2"/>
  <path d="M7.5002 10.4167H7.4927" stroke="currentColor" stroke-linecap="round" stroke-linejoin="round" stroke-width="2"/>
  <path d="M12.5067 10.4167H12.4992" stroke="currentColor" stroke-linecap="round" stroke-linejoin="round" stroke-width="2"/>
  <path d="M4.257 11.6861C5.3018 12.0204 6.8271 13.9428 4.8212 15.7816" stroke="currentColor" stroke-linecap="round" stroke-linejoin="round" stroke-width="2"/>
  <path d="M15.7438 11.7025C14.699 12.0368 13.1737 13.9592 15.1797 15.798" stroke="currentColor" stroke-linecap="round" stroke-linejoin="round" stroke-width="2"/>
</svg>
