<svg xmlns="http://www.w3.org/2000/svg" width="20" height="20" viewBox="0 0 20 20" fill="none">
  <path d="M18.3333 10C18.3333 14.6023 14.6023 18.3333 10 18.3333 5.3976 18.3333 1.6667 14.6023 1.6667 10 1.6667 5.3976 5.3976 1.6667 10 1.6667 14.6023 1.6667 18.3333 5.3976 18.3333 10Z" stroke="currentColor" stroke-width="2"/>
  <path d="M18.3333 10C18.3333 14.6023 14.6023 18.3333 10 18.3333 5.3976 18.3333 1.6667 14.6023 1.6667 10 1.6667 5.3976 5.3976 1.6667 10 1.6667 14.6023 1.6667 18.3333 5.3976 18.3333 10Z" stroke="currentColor" stroke-width="2"/>
  <path d="M12.5 10.8333C12.5 12.2141 11.3808 13.3333 10 13.3333 8.6193 13.3333 7.5 12.2141 7.5 10.8333 7.5 9.4526 8.6193 8.3333 10 8.3333 11.3808 8.3333 12.5 9.4526 12.5 10.8333Z" stroke="currentColor" stroke-width="2"/>
  <path d="M1.6667 9.1667C3.8302 10.003 5.7109 10.5567 7.4984 10.8275M18.3333 9.1692C16.1729 10.0104 14.2933 10.5651 12.5018 10.8333" stroke="currentColor" stroke-width="2"/>
</svg>
