<svg xmlns="http://www.w3.org/2000/svg" width="20" height="20" viewBox="0 0 20 20" fill="none">
  <path d="M13.0151 5.8332C13.5544 5.9365 13.9524 6.118 14.2678 6.4368 15 7.177 15 8.3684 15 10.7513V18.3332H5V10.7513C5 8.3684 5 7.177 5.7322 6.4368 6.0475 6.118 6.4456 5.9365 6.9849 5.8332" stroke="currentColor" stroke-linecap="round" stroke-linejoin="round" stroke-width="2"/>
  <path d="M15 18.3332H17.5C17.8928 18.3332 18.0892 18.3332 18.2113 18.2112 18.3333 18.0892 18.3333 17.8927 18.3333 17.4998V13.3332C18.3333 11.7618 18.3333 10.9762 17.8452 10.488 17.357 9.9998 16.5713 9.9998 15 9.9998" stroke="currentColor" stroke-linecap="round" stroke-width="2"/>
  <path d="M5 18.3332H2.5C2.1072 18.3332 1.9107 18.3332 1.7887 18.2112 1.6667 18.0892 1.6667 17.8927 1.6667 17.4998V13.3332C1.6667 11.7618 1.6667 10.9762 2.1548 10.488 2.643 9.9998 3.4286 9.9998 5 9.9998" stroke="currentColor" stroke-linecap="round" stroke-width="2"/>
  <path d="M10 18.3333L10 15.8333" stroke="currentColor" stroke-linecap="round" stroke-linejoin="round" stroke-width="2"/>
  <path d="M7.5 12.5H8.5M12.5 12.5H11.5" stroke="currentColor" stroke-linecap="round" stroke-linejoin="round" stroke-width="2"/>
  <path d="M6.7018 3.3333C9.1385 3.3333 10.0003 1.6667 10.0003 1.6667 10.0003 1.6667 10.8615 3.3333 13.2982 3.3333 13.4793 4.7396 13.044 8.0417 10.0003 9.1667 6.9566 8.0417 6.5206 4.7396 6.7018 3.3333Z" stroke="currentColor" stroke-linejoin="round" stroke-width="2"/>
</svg>
