<svg xmlns="http://www.w3.org/2000/svg" width="20" height="20" viewBox="0 0 20 20" fill="none">
  <path d="M7.8125 3.9738C7.143 4.1122 6.4885 4.313 5.8521 4.5718 5.1069 4.8749 4.7344 5.0265 4.4505 5.4483 4.1667 5.8702 4.1667 6.3481 4.1667 7.3038V14.1867C4.1667 15.4106 4.1667 16.0226 4.5625 16.4891 4.9584 16.9556 5.4995 17.0448 6.5816 17.2233 7.6781 17.4042 8.8228 17.5 10 17.5 11.1772 17.5 12.3219 17.4042 13.4184 17.2233 14.5005 17.0448 15.0416 16.9556 15.4375 16.4891 15.8333 16.0226 15.8333 15.4106 15.8333 14.1867V7.3038C15.8333 6.3481 15.8333 5.8702 15.5495 5.4483 15.2657 5.0265 14.8931 4.8749 14.1479 4.5718 13.5115 4.313 12.857 4.1122 12.1875 3.9738M7.8125 3.9738C8.5261 3.8264 9.2565 3.75 10 3.75 10.7435 3.75 11.4739 3.8264 12.1875 3.9738M7.8125 3.9738V3.3333C7.8125 2.5477 7.8125 2.1548 8.0566 1.9107 8.3007 1.6667 8.6935 1.6667 9.4792 1.6667H10.5208C11.3065 1.6667 11.6993 1.6667 11.9434 1.9107 12.1875 2.1548 12.1875 2.5477 12.1875 3.3333V3.9738" stroke="currentColor" stroke-linecap="round" stroke-linejoin="round" stroke-width="2"/>
  <path d="M8.3333 17.0833V15.8333C8.3333 15.0477 8.3333 14.6548 8.5774 14.4108 8.8215 14.1667 9.2143 14.1667 10 14.1667 10.7857 14.1667 11.1785 14.1667 11.4226 14.4108 11.6667 14.6548 11.6667 15.0477 11.6667 15.8333V17.0833" stroke="currentColor" stroke-linecap="round" stroke-linejoin="round" stroke-width="2"/>
  <path d="M15.8333 10C14.047 9.464 12.0741 9.1667 10 9.1667 7.9259 9.1667 5.953 9.464 4.1667 10" stroke="currentColor" stroke-linecap="round" stroke-linejoin="round" stroke-width="2"/>
</svg>
