<svg xmlns="http://www.w3.org/2000/svg" width="20" height="20" viewBox="0 0 20 20" fill="none">
  <path d="M18.3333 17.5H17.5C16.2905 17.5 15.2317 16.7843 15 15.8333 14.7683 16.7843 13.7095 17.5 12.5 17.5 11.2905 17.5 10.2317 16.7843 10 15.8333 9.7683 16.7843 8.7095 17.5 7.5 17.5 6.2905 17.5 5.2316 16.7843 5 15.8333 4.7684 16.7843 3.7095 17.5 2.5 17.5H1.6667" stroke="currentColor" stroke-linecap="round" stroke-linejoin="round" stroke-width="2"/>
  <path d="M15.8333 2.5L15.6126 2.5736C14.5126 2.9403 13.9625 3.1236 13.6479 3.5601 13.3333 3.9966 13.3333 4.5763 13.3333 5.7359L13.3333 14.1667" stroke="currentColor" stroke-linecap="round" stroke-linejoin="round" stroke-width="2"/>
  <path d="M9.1667 2.5L8.9459 2.5736C7.8459 2.9403 7.2959 3.1236 6.9813 3.5601 6.6667 3.9966 6.6667 4.5763 6.6667 5.7359L6.6667 14.1667" stroke="currentColor" stroke-linecap="round" stroke-linejoin="round" stroke-width="2"/>
  <path d="M6.6667 5.8333H13.3333M6.6667 9.1667H13.3333M6.6667 12.5H13.3333" stroke="currentColor" stroke-linecap="round" stroke-linejoin="round" stroke-width="2"/>
</svg>
