<svg xmlns="http://www.w3.org/2000/svg" width="20" height="20" viewBox="0 0 20 20" fill="none">
  <path d="M16.0006 11.6667C16.9421 12.3631 17.5 13.2287 17.5 14.1667 17.5 16.4678 14.1422 18.3333 10 18.3333 5.8579 18.3333 2.5 16.4678 2.5 14.1667 2.5 13.2287 3.0579 12.3631 3.9994 11.6667" stroke="currentColor" stroke-width="2"/>
  <path d="M10.6321 6.6667C9.3524 5.9303 8.2737 5.6549 7.4138 5.6644M7.4138 5.6644C5.8408 5.6818 5 6.6527 5 7.5 5 8.8808 7.1614 10 9.8275 10 12.4937 10 14.0589 8.7349 14.6551 7.5 15.8619 5 13.8505 2.0833 9.4253 1.6667 10.3639 2.804 11.2758 5.1959 7.4138 5.6644Z" stroke="currentColor" stroke-linecap="round" stroke-linejoin="round" stroke-width="2"/>
  <path d="M14.1787 8.3333C15.6959 8.9343 16.6667 9.8554 16.6667 10.8881 16.6667 12.6988 13.6819 14.1667 10 14.1667 6.3181 14.1667 3.3333 12.6988 3.3333 10.8881 3.3333 9.9657 4.108 9.1322 5.3548 8.5364" stroke="currentColor" stroke-linecap="round" stroke-linejoin="round" stroke-width="2"/>
</svg>
