<svg xmlns="http://www.w3.org/2000/svg" width="20" height="20" viewBox="0 0 20 20" fill="none">
  <path d="M4.1695 10.0008L5.0319 14.1803C5.4166 16.0445 5.6089 16.9766 6.2998 17.5257 7.6132 18.5693 12.3833 18.5726 13.7008 17.5257 14.3918 16.9766 14.5841 16.0445 14.9688 14.1803L15.8311 10.0008" stroke="currentColor" stroke-width="2"/>
  <path d="M12.5037 10.0123L11.6703 18.3325" stroke="currentColor" stroke-width="2"/>
  <path d="M9.2448 1.9271C9.5757 2.0803 9.8593 2.3747 10.0203 2.5239 10.1813 2.3747 10.4243 2.0803 10.7552 1.9271 12.0645 1.3207 13.8416 1.8098 14.5695 3.0533 14.8647 3.5577 15.0957 4.2538 15.0401 4.9905 16.0478 4.9905 17.4431 5.7444 17.4973 7.3653 17.5464 8.8332 16.7924 9.4983 16.1728 9.8133 15.8623 9.9711 15.509 10.0113 15.1605 10.0113L4.8395 10.0113C4.491 10.0113 4.1377 9.9711 3.8272 9.8133 3.2076 9.4983 2.4536 8.8332 2.5027 7.3653 2.5569 5.7444 3.9989 5.0267 5.0067 5.0267 4.9509 4.29 5.1353 3.5577 5.4305 3.0534 6.1584 1.8098 7.9355 1.3207 9.2448 1.9271Z" stroke="currentColor" stroke-linecap="round" stroke-linejoin="round" stroke-width="2"/>
</svg>
