<svg xmlns="http://www.w3.org/2000/svg" width="20" height="20" viewBox="0 0 20 20" fill="none">
  <path d="M13.1506 7.4157L9.4227 3.6877C8.6622 2.9272 7.6307 2.5 6.5552 2.5 4.3156 2.5 2.5 4.3156 2.5 6.5552 2.5 7.6307 2.9272 8.6622 3.6877 9.4227L7.4157 13.1506C8.471 14.2059 8.9987 14.7336 9.6158 14.9077 10.0522 15.0307 10.5141 15.0307 10.9504 14.9077 11.5676 14.7336 12.0953 14.2059 13.1506 13.1507 14.2059 12.0953 14.7336 11.5677 14.9077 10.9505 15.0307 10.5141 15.0307 10.0523 14.9077 9.6158 14.7336 8.9987 14.2059 8.471 13.1506 7.4157Z" stroke="currentColor" stroke-linecap="round" stroke-linejoin="round" stroke-width="2"/>
  <path d="M13.3333 13.3333L17.5 17.5" stroke="currentColor" stroke-linecap="round" stroke-linejoin="round" stroke-width="2"/>
</svg>
