<svg xmlns="http://www.w3.org/2000/svg" width="20" height="20" viewBox="0 0 20 20" fill="none">
  <path d="M1.6667 8.3333H18.3333" stroke="currentColor" stroke-linecap="round" stroke-width="2"/>
  <path d="M3.3333 8.3333L3.7533 12.9527C3.9496 15.1123 4.0478 16.1921 4.7639 16.8461 5.48 17.5 6.5642 17.5 8.7328 17.5H11.2673C13.4358 17.5 14.5201 17.5 15.2362 16.8461 15.9523 16.1921 16.0504 15.1123 16.2467 12.9527L16.6667 8.3333" stroke="currentColor" stroke-linecap="round" stroke-width="2"/>
  <path d="M3.3333 6.6667L7.5 5.5413M7.5 5.5413L12.5 4.1908M7.5 5.5413L7.6713 4.0932C7.734 3.5635 8.1103 3.1257 8.6214 2.9877L10.2622 2.5445C10.7732 2.4065 11.3163 2.596 11.6333 3.0231L12.5 4.1908M12.5 4.1908L16.6667 3.0655" stroke="currentColor" stroke-linecap="round" stroke-width="2"/>
</svg>
