<svg xmlns="http://www.w3.org/2000/svg" width="20" height="20" viewBox="0 0 20 20" fill="none">
  <path d="M18.3333 10C18.3333 14.6023 14.6023 18.3333 10 18.3333 5.3976 18.3333 1.6667 14.6023 1.6667 10 1.6667 5.3976 5.3976 1.6667 10 1.6667 14.6023 1.6667 18.3333 5.3976 18.3333 10Z" stroke="currentColor" stroke-width="2"/>
  <path d="M12.5576 8.5286C12.524 8.0453 12.2683 6.8744 11.2851 6.4418 10.0562 5.9011 8.438 6.5816 8.2866 8.3343 8.2155 9.1568 8.6139 10.0191 9.1928 10.4451 9.7248 10.8366 10.5318 10.8168 11.2851 10.8168H7.1053M9.6303 10.8168C9.4886 11.3913 8.711 13.0429 7.4719 13.7322H11.981C12.1555 13.7322 12.6477 13.7777 13.3446 13.2777" stroke="currentColor" stroke-linecap="round" stroke-linejoin="round" stroke-width="2"/>
</svg>
