<svg xmlns="http://www.w3.org/2000/svg" width="20" height="20" viewBox="0 0 20 20" fill="none">
  <path d="M2.0833 10C2.0833 6.4752 2.0833 4.7128 3.0816 3.544 3.2234 3.378 3.378 3.2234 3.544 3.0816 4.7128 2.0833 6.4752 2.0833 10 2.0833 13.5248 2.0833 15.2872 2.0833 16.456 3.0816 16.622 3.2234 16.7766 3.378 16.9183 3.544 17.9167 4.7128 17.9167 6.4752 17.9167 10 17.9167 13.5248 17.9167 15.2872 16.9183 16.456 16.7766 16.622 16.622 16.7766 16.456 16.9183 15.2872 17.9167 13.5248 17.9167 10 17.9167 6.4752 17.9167 4.7128 17.9167 3.544 16.9183 3.378 16.7766 3.2234 16.622 3.0816 16.456 2.0833 15.2872 2.0833 13.5248 2.0833 10Z" stroke="currentColor" stroke-width="2"/>
  <path d="M12.5184 8.5285C12.4825 8.0452 12.209 6.8743 11.1578 6.4417 9.8438 5.901 8.1136 6.5814 7.9517 8.3342 7.8757 9.1567 8.3017 10.019 8.9207 10.445 9.4894 10.8364 10.3524 10.8167 11.1578 10.8167H6.6886M9.3883 10.8167C9.2368 11.3912 8.4055 13.0428 7.0806 13.7321H11.9019C12.0884 13.7321 12.6147 13.7776 13.3598 13.2776" stroke="currentColor" stroke-linecap="round" stroke-linejoin="round" stroke-width="2"/>
</svg>
