<svg xmlns="http://www.w3.org/2000/svg" width="20" height="20" viewBox="0 0 20 20" fill="none">
  <path d="M2.0833 10C2.0833 6.4752 2.0833 4.7128 3.0816 3.544 3.2234 3.378 3.378 3.2234 3.544 3.0816 4.7128 2.0833 6.4752 2.0833 10 2.0833 13.5248 2.0833 15.2872 2.0833 16.456 3.0816 16.622 3.2234 16.7766 3.378 16.9183 3.544 17.9167 4.7128 17.9167 6.4752 17.9167 10 17.9167 13.5248 17.9167 15.2872 16.9183 16.456 16.7766 16.622 16.622 16.7766 16.456 16.9183 15.2872 17.9167 13.5248 17.9167 10 17.9167 6.4752 17.9167 4.7128 17.9167 3.544 16.9183 3.378 16.7766 3.2234 16.622 3.0816 16.456 2.0833 15.2872 2.0833 13.5248 2.0833 10Z" stroke="currentColor" stroke-width="2"/>
  <path d="M12.5 7.5H7.5C6.3215 7.5 5.7322 7.5 5.3661 7.8661 5 8.2322 5 8.8215 5 10 5 11.1785 5 11.7677 5.3661 12.1339 5.7322 12.5 6.3215 12.5 7.5 12.5H12.5C13.6785 12.5 14.2678 12.5 14.6339 12.1339 15 11.7677 15 11.1785 15 10 15 8.8215 15 8.2322 14.6339 7.8661 14.2678 7.5 13.6785 7.5 12.5 7.5Z" stroke="currentColor" stroke-linecap="round" stroke-linejoin="round" stroke-width="2"/>
  <path d="M8.2292 10H8.125M11.9792 10.0012H11.875M8.3333 10C8.3333 10.1151 8.2401 10.2083 8.125 10.2083 8.0099 10.2083 7.9167 10.1151 7.9167 10 7.9167 9.8849 8.0099 9.7917 8.125 9.7917 8.2401 9.7917 8.3333 9.8849 8.3333 10ZM12.0833 10.0012C12.0833 10.1163 11.9901 10.2095 11.875 10.2095 11.7599 10.2095 11.6667 10.1163 11.6667 10.0012 11.6667 9.8862 11.7599 9.7928 11.875 9.7928 11.9901 9.7928 12.0833 9.8862 12.0833 10.0012Z" stroke="currentColor" stroke-linecap="round" stroke-linejoin="round" stroke-width="2"/>
</svg>
