<svg xmlns="http://www.w3.org/2000/svg" width="20" height="20" viewBox="0 0 20 20" fill="none">
  <path d="M10.4167 6.6667L8.3333 10H11.6667L9.5833 13.3333" stroke="currentColor" stroke-linecap="round" stroke-linejoin="round" stroke-width="2"/>
  <path d="M17.5092 11.7826C17.9441 11.6629 18.1616 11.6031 18.2474 11.4887 18.3333 11.3743 18.3333 11.1902 18.3333 10.8221V9.178C18.3333 8.8099 18.3333 8.6258 18.2474 8.5114 18.1615 8.397 17.9441 8.3372 17.5092 8.2175 15.8838 7.7703 14.8666 6.0365 15.2861 4.389 15.4014 3.9359 15.4591 3.7094 15.404 3.5765 15.3489 3.4437 15.1909 3.3521 14.8747 3.169L13.4375 2.3364C13.1273 2.1567 12.9723 2.0668 12.8331 2.086 12.6938 2.1051 12.5368 2.2649 12.2227 2.5846 11.0067 3.8224 8.9947 3.8224 7.7786 2.5846 7.4645 2.2649 7.3075 2.105 7.1683 2.0859 7.0291 2.0667 6.874 2.1566 6.5638 2.3363L5.1265 3.1689C4.8104 3.352 4.6524 3.4435 4.5973 3.5764 4.5422 3.7093 4.5999 3.9358 4.7152 4.389 5.1345 6.0365 4.1164 7.7703 2.4909 8.2175 2.0559 8.3372 1.8385 8.397 1.7526 8.5114 1.6667 8.6258 1.6667 8.8098 1.6667 9.178V10.8221C1.6667 11.1902 1.6667 11.3743 1.7526 11.4887 1.8385 11.6031 2.0559 11.6629 2.4909 11.7826 4.1162 12.2298 5.1334 13.9636 4.7139 15.6111 4.5986 16.0642 4.5409 16.2907 4.596 16.4236 4.6511 16.5564 4.8091 16.648 5.1252 16.8311L6.5625 17.6638C6.8727 17.8434 7.0278 17.9333 7.167 17.9142 7.3062 17.895 7.4632 17.7351 7.7773 17.4154 8.9939 16.1766 11.0073 16.1766 12.2241 17.4153 12.5381 17.7351 12.6951 17.8949 12.8343 17.9141 12.9735 17.9332 13.1287 17.8433 13.4388 17.6637L14.8761 16.831C15.1922 16.6479 15.3503 16.5563 15.4053 16.4234 15.4604 16.2906 15.4028 16.064 15.2873 15.611 14.8677 13.9636 15.8841 12.2298 17.5092 11.7826Z" stroke="currentColor" stroke-linecap="round" stroke-width="2"/>
</svg>
