<svg xmlns="http://www.w3.org/2000/svg" width="20" height="20" viewBox="0 0 20 20" fill="none">
  <path d="M8.75 4.1667C4.838 4.1667 1.6667 7.338 1.6667 11.25 1.6667 15.162 4.838 18.3333 8.75 18.3333 12.662 18.3333 15.8333 15.162 15.8333 11.25 15.8333 10.8588 15.513 10.5343 15.1295 10.6116 13.5107 10.938 12.2917 12.3683 12.2917 14.0833M8.75 4.1667H14.4167C15.1991 4.1667 15.8515 4.8108 15.6585 5.569 15.0344 8.0203 12.8123 9.8333 10.1667 9.8333H8.75C7.5764 9.8333 6.625 10.7848 6.625 11.9583 6.625 13.1319 7.5764 14.0833 8.75 14.0833H12.2917M8.75 4.1667V7M12.2917 14.0833V14.7917M4.5 16.9167L7.3333 14.0833M2.7292 7.7083L6.625 10.8958" stroke="currentColor" stroke-linecap="round" stroke-linejoin="round" stroke-width="2"/>
  <path d="M7.5 1.6668H16.8007C17.7675 1.6668 18.4927 2.5427 18.3031 3.4815 18.0574 4.6978 16.9528 5.5654 15.7658 5.8334" stroke="currentColor" stroke-linecap="round" stroke-linejoin="round" stroke-width="2"/>
  <path d="M11.7708 6.6668H11.6667M11.875 6.6668C11.875 6.7818 11.7818 6.8751 11.6667 6.8751 11.5516 6.8751 11.4583 6.7818 11.4583 6.6668 11.4583 6.5517 11.5516 6.4584 11.6667 6.4584 11.7818 6.4584 11.875 6.5517 11.875 6.6668Z" stroke="currentColor" stroke-linecap="round" stroke-width="2"/>
</svg>
