<svg xmlns="http://www.w3.org/2000/svg" width="20" height="20" viewBox="0 0 20 20" fill="none">
  <path d="M4.1667 17.5L13.3333 17.5C14.9047 17.5 15.6903 17.5 16.1785 17.0118 16.6667 16.5237 16.6667 15.738 16.6667 14.1667L16.6667 9.1667C16.6667 7.5953 16.6667 6.8096 16.1785 6.3215 15.6903 5.8333 14.9047 5.8333 13.3333 5.8333L6.6667 5.8333" stroke="currentColor" stroke-linecap="round" stroke-linejoin="round" stroke-width="2"/>
  <path d="M6.6667 17.5H3.3333C2.4129 17.5 1.6667 16.7538 1.6667 15.8333M1.6667 15.8333C1.6667 14.9128 2.4129 14.1667 3.3333 14.1667 4.9047 14.1667 5.6904 14.1667 6.1785 13.6785 6.6667 13.1903 6.6667 12.4047 6.6667 10.8333V6.6667C6.6667 5.0953 6.6667 4.3096 6.1785 3.8215 5.6904 3.3333 4.9047 3.3333 3.3333 3.3333 2.4129 3.3333 1.6667 4.0795 1.6667 5V15.8333Z" stroke="currentColor" stroke-linecap="round" stroke-width="2"/>
  <path d="M9.1667 13.6308H9.4425C9.6841 13.6308 9.8048 13.6308 9.9067 13.6547 10.0085 13.6787 10.2022 13.7756 10.5898 13.9695 11.9253 14.6379 12.816 13.4688 13.5864 12.5228 13.9733 12.0477 14.1667 11.8102 14.1667 11.6666 14.1667 11.5231 13.9733 11.2856 13.5863 10.8105 12.816 9.8645 11.9253 8.6954 10.5898 9.3638 10.2022 9.5578 10.0085 9.6547 9.9067 9.6787 9.8048 9.7026 9.6841 9.7026 9.4425 9.7026L9.1667 9.7026" stroke="currentColor" stroke-linecap="round" stroke-linejoin="round" stroke-width="2"/>
  <path d="M16.6667 13.3333L18.3333 13.3333" stroke="currentColor" stroke-linecap="round" stroke-linejoin="round" stroke-width="2"/>
  <path d="M16.6667 16.6667L18.3333 16.6667" stroke="currentColor" stroke-linecap="round" stroke-linejoin="round" stroke-width="2"/>
  <path d="M16.6667 10L18.3333 10" stroke="currentColor" stroke-linecap="round" stroke-linejoin="round" stroke-width="2"/>
  <path d="M16.6667 6.6667L18.3333 6.6667" stroke="currentColor" stroke-linecap="round" stroke-linejoin="round" stroke-width="2"/>
</svg>
