<svg xmlns="http://www.w3.org/2000/svg" width="20" height="20" viewBox="0 0 20 20" fill="none">
  <path d="M10.8333 3.3333L2.5 3.3333" stroke="currentColor" stroke-linecap="round" stroke-linejoin="round" stroke-width="2"/>
  <path d="M9.1667 15.8333L2.5 15.8333" stroke="currentColor" stroke-linecap="round" stroke-linejoin="round" stroke-width="2"/>
  <path d="M17.5 15.8333L14.1667 15.8333" stroke="currentColor" stroke-linecap="round" stroke-linejoin="round" stroke-width="2"/>
  <path d="M17.5 9.5833L9.1667 9.5833" stroke="currentColor" stroke-linecap="round" stroke-linejoin="round" stroke-width="2"/>
  <path d="M17.5 3.3333L15.8333 3.3333" stroke="currentColor" stroke-linecap="round" stroke-linejoin="round" stroke-width="2"/>
  <path d="M4.1667 9.5833L2.5 9.5833" stroke="currentColor" stroke-linecap="round" stroke-linejoin="round" stroke-width="2"/>
  <path d="M12.0833 1.6667C12.4716 1.6667 12.6658 1.6667 12.8189 1.7301 13.0231 1.8147 13.1853 1.9769 13.2699 2.1811 13.3333 2.3342 13.3333 2.5284 13.3333 2.9167L13.3333 3.75C13.3333 4.1383 13.3333 4.3324 13.2699 4.4856 13.1853 4.6898 13.0231 4.852 12.8189 4.9366 12.6658 5 12.4716 5 12.0833 5 11.6951 5 11.5009 5 11.3478 4.9366 11.1436 4.852 10.9813 4.6898 10.8968 4.4856 10.8333 4.3324 10.8333 4.1383 10.8333 3.75L10.8333 2.9167C10.8333 2.5284 10.8333 2.3342 10.8968 2.1811 10.9813 1.9769 11.1436 1.8147 11.3478 1.7301 11.5009 1.6667 11.6951 1.6667 12.0833 1.6667Z" stroke="currentColor" stroke-linecap="round" stroke-linejoin="round" stroke-width="2"/>
  <path d="M10.4167 14.1667C10.8049 14.1667 10.9991 14.1667 11.1523 14.2301 11.3564 14.3147 11.5187 14.4769 11.6033 14.6811 11.6667 14.8343 11.6667 15.0284 11.6667 15.4167L11.6667 16.25C11.6667 16.6383 11.6667 16.8324 11.6033 16.9856 11.5187 17.1898 11.3564 17.352 11.1523 17.4366 10.9991 17.5 10.8049 17.5 10.4167 17.5 10.0284 17.5 9.8343 17.5 9.6811 17.4366 9.4769 17.352 9.3147 17.1898 9.2301 16.9856 9.1667 16.8324 9.1667 16.6383 9.1667 16.25L9.1667 15.4167C9.1667 15.0284 9.1667 14.8343 9.2301 14.6811 9.3147 14.4769 9.4769 14.3147 9.6811 14.2301 9.8343 14.1667 10.0284 14.1667 10.4167 14.1667Z" stroke="currentColor" stroke-linecap="round" stroke-linejoin="round" stroke-width="2"/>
  <path d="M7.9167 7.9167C8.3049 7.9167 8.4991 7.9167 8.6523 7.9801 8.8564 8.0647 9.0187 8.2269 9.1033 8.4311 9.1667 8.5843 9.1667 8.7784 9.1667 9.1667L9.1667 10C9.1667 10.3882 9.1667 10.5824 9.1033 10.7356 9.0187 10.9398 8.8564 11.102 8.6523 11.1866 8.4991 11.25 8.3049 11.25 7.9167 11.25 7.5284 11.25 7.3342 11.25 7.1811 11.1866 6.9769 11.102 6.8147 10.9398 6.7301 10.7356 6.6667 10.5824 6.6667 10.3882 6.6667 10L6.6667 9.1667C6.6667 8.7784 6.6667 8.5843 6.7301 8.4311 6.8147 8.2269 6.9769 8.0647 7.1811 7.9801 7.3342 7.9167 7.5284 7.9167 7.9167 7.9167Z" stroke="currentColor" stroke-linecap="round" stroke-linejoin="round" stroke-width="2"/>
</svg>
