<svg xmlns="http://www.w3.org/2000/svg" width="20" height="20" viewBox="0 0 20 20" fill="none">
  <path d="M3.3333 9.1667L3.3333 17.5" stroke="currentColor" stroke-linecap="round" stroke-linejoin="round" stroke-width="2"/>
  <path d="M15.8333 10.8333L15.8333 17.5" stroke="currentColor" stroke-linecap="round" stroke-linejoin="round" stroke-width="2"/>
  <path d="M15.8333 2.5L15.8333 5.8333" stroke="currentColor" stroke-linecap="round" stroke-linejoin="round" stroke-width="2"/>
  <path d="M9.5833 2.5L9.5833 10.8333" stroke="currentColor" stroke-linecap="round" stroke-linejoin="round" stroke-width="2"/>
  <path d="M3.3333 2.5L3.3333 4.1667" stroke="currentColor" stroke-linecap="round" stroke-linejoin="round" stroke-width="2"/>
  <path d="M9.5833 15.8333L9.5833 17.5" stroke="currentColor" stroke-linecap="round" stroke-linejoin="round" stroke-width="2"/>
  <path d="M1.6667 7.9167C1.6667 7.5284 1.6667 7.3342 1.7301 7.1811 1.8147 6.9769 1.9769 6.8147 2.1811 6.7301 2.3342 6.6667 2.5284 6.6667 2.9167 6.6667H3.75C4.1383 6.6667 4.3324 6.6667 4.4856 6.7301 4.6898 6.8147 4.852 6.9769 4.9366 7.1811 5 7.3342 5 7.5284 5 7.9167 5 8.3049 5 8.4991 4.9366 8.6523 4.852 8.8564 4.6898 9.0187 4.4856 9.1033 4.3324 9.1667 4.1383 9.1667 3.75 9.1667H2.9167C2.5284 9.1667 2.3342 9.1667 2.1811 9.1033 1.9769 9.0187 1.8147 8.8564 1.7301 8.6523 1.6667 8.4991 1.6667 8.3049 1.6667 7.9167Z" stroke="currentColor" stroke-linecap="round" stroke-linejoin="round" stroke-width="2"/>
  <path d="M14.1667 9.5833C14.1667 9.1951 14.1667 9.0009 14.2301 8.8478 14.3147 8.6436 14.4769 8.4813 14.6811 8.3968 14.8343 8.3333 15.0284 8.3333 15.4167 8.3333H16.25C16.6383 8.3333 16.8324 8.3333 16.9856 8.3968 17.1898 8.4813 17.352 8.6436 17.4366 8.8478 17.5 9.0009 17.5 9.1951 17.5 9.5833 17.5 9.9716 17.5 10.1658 17.4366 10.3189 17.352 10.5231 17.1898 10.6853 16.9856 10.7699 16.8324 10.8333 16.6383 10.8333 16.25 10.8333H15.4167C15.0284 10.8333 14.8343 10.8333 14.6811 10.7699 14.4769 10.6853 14.3147 10.5231 14.2301 10.3189 14.1667 10.1658 14.1667 9.9716 14.1667 9.5833Z" stroke="currentColor" stroke-linecap="round" stroke-linejoin="round" stroke-width="2"/>
  <path d="M7.9167 12.0833C7.9167 11.6951 7.9167 11.5009 7.9801 11.3478 8.0647 11.1436 8.2269 10.9813 8.4311 10.8968 8.5843 10.8333 8.7784 10.8333 9.1667 10.8333H10C10.3882 10.8333 10.5824 10.8333 10.7356 10.8968 10.9398 10.9813 11.102 11.1436 11.1866 11.3478 11.25 11.5009 11.25 11.6951 11.25 12.0833 11.25 12.4716 11.25 12.6658 11.1866 12.8189 11.102 13.0231 10.9398 13.1853 10.7356 13.2699 10.5824 13.3333 10.3882 13.3333 10 13.3333H9.1667C8.7784 13.3333 8.5843 13.3333 8.4311 13.2699 8.2269 13.1853 8.0647 13.0231 7.9801 12.8189 7.9167 12.6658 7.9167 12.4716 7.9167 12.0833Z" stroke="currentColor" stroke-linecap="round" stroke-linejoin="round" stroke-width="2"/>
</svg>
