<svg xmlns="http://www.w3.org/2000/svg" width="20" height="20" viewBox="0 0 20 20" fill="none">
  <path d="M2.5 8.3333C2.5 10.6903 2.5 11.8688 3.2322 12.6011 3.9645 13.3333 5.143 13.3333 7.5 13.3333H12.5C14.857 13.3333 16.0355 13.3333 16.7678 12.6011 17.5 11.8688 17.5 10.6903 17.5 8.3333V3.75H2.5V8.3333Z" stroke="currentColor" stroke-width="2"/>
  <circle cx="10" cy="17.083333333333336" r="1.25" stroke="currentColor" stroke-linecap="round" stroke-linejoin="round" stroke-width="2"/>
  <path d="M10 13.3333L10 15.8333" stroke="currentColor" stroke-linecap="round" stroke-linejoin="round" stroke-width="2"/>
  <path d="M17.5 1.6667H2.5C2.1072 1.6667 1.9107 1.6667 1.7887 1.7887 1.6667 1.9107 1.6667 2.1072 1.6667 2.5V2.9167C1.6667 3.3095 1.6667 3.5059 1.7887 3.628 1.9107 3.75 2.1072 3.75 2.5 3.75H17.5C17.8928 3.75 18.0892 3.75 18.2113 3.628 18.3333 3.5059 18.3333 3.3095 18.3333 2.9167V2.5C18.3333 2.1072 18.3333 1.9107 18.2113 1.7887 18.0892 1.6667 17.8928 1.6667 17.5 1.6667Z" stroke="currentColor" stroke-linecap="round" stroke-linejoin="round" stroke-width="2"/>
</svg>
