<svg xmlns="http://www.w3.org/2000/svg" width="20" height="20" viewBox="0 0 20 20" fill="none">
  <path d="M4.5074 14.2652C4.2087 13.0018 4.0594 12.3702 4.2549 11.8833 4.3766 11.5805 4.5851 11.3197 4.8548 11.1332 5.2882 10.8333 5.9425 10.8333 7.2513 10.8333H12.7488C14.0574 10.8333 14.7118 10.8333 15.1452 11.1332 15.4149 11.3197 15.6234 11.5805 15.7451 11.8833 15.9406 12.3702 15.7913 13.0018 15.4927 14.2652 15.1984 15.5098 15.0513 16.132 14.6839 16.5791 14.4527 16.8604 14.1627 17.0884 13.8337 17.2473 13.3108 17.5 12.6661 17.5 11.3768 17.5H8.6233C7.3339 17.5 6.6893 17.5 6.1663 17.2473 5.8374 17.0884 5.5473 16.8604 5.3161 16.5791 4.9487 16.132 4.8016 15.5098 4.5074 14.2652Z" stroke="currentColor" stroke-width="2"/>
  <path d="M2.5 17.5H17.5" stroke="currentColor" stroke-linecap="round" stroke-width="2"/>
  <path d="M9.1667 13.3333H10.8333" stroke="currentColor" stroke-linecap="round" stroke-width="2"/>
  <path d="M6.6667 9.1667C8.1987 7.0039 11.7657 6.8858 13.3333 9.1667" stroke="currentColor" stroke-linecap="round" stroke-linejoin="round" stroke-width="2"/>
  <path d="M11.6667 4.1667C11.6667 5.0871 10.9205 5.8333 10 5.8333 9.0795 5.8333 8.3333 5.0871 8.3333 4.1667 8.3333 3.2462 9.0795 2.5 10 2.5 10.9205 2.5 11.6667 3.2462 11.6667 4.1667Z" stroke="currentColor" stroke-width="2"/>
</svg>
