<svg xmlns="http://www.w3.org/2000/svg" width="20" height="20" viewBox="0 0 20 20" fill="none">
  <path d="M7.7452 11.6667C6.5996 11.6667 6.0268 11.6667 5.5476 11.4702 5.0208 11.2541 4.5694 10.8713 4.2549 10.374 3.9688 9.9216 3.8431 9.3293 3.5916 8.1447 3.3767 7.132 3.2692 6.6257 3.3737 6.2237 3.4883 5.7831 3.7687 5.4116 4.1492 5.1963 4.4962 5 4.9858 5 5.9651 5H14.0349C15.0142 5 15.5038 5 15.8508 5.1963 16.2313 5.4116 16.5117 5.7831 16.6262 6.2237 16.7308 6.6257 16.6233 7.132 16.4084 8.1447 16.1569 9.3293 16.0312 9.9216 15.7451 10.374 15.4306 10.8713 14.9793 11.2541 14.4523 11.4702 13.9732 11.6667 13.4003 11.6667 12.2548 11.6667" stroke="currentColor" stroke-width="2"/>
  <path d="M5 5L5.4291 3.2836C5.6667 2.3333 6.5205 1.6667 7.5 1.6667" stroke="currentColor" stroke-linecap="round" stroke-width="2"/>
  <path d="M15 5L14.5709 3.2836C14.3333 2.3333 13.4795 1.6667 12.5 1.6667" stroke="currentColor" stroke-linecap="round" stroke-width="2"/>
  <path d="M7.7368 10L8.3836 14.6438C8.4211 14.9129 8.4398 15.0474 8.4028 15.1518 8.2307 15.6378 7.573 15.3228 7.2172 15.4688 7.1096 15.513 7.0125 15.5837 6.9334 15.6756 6.8399 15.7841 6.7823 15.9327 6.667 16.2298 6.4491 16.7913 5.9587 17.5823 6.4858 18.1149 6.702 18.3333 7.0856 18.3333 7.853 18.3333H12.147C12.9143 18.3333 13.2981 18.3333 13.5142 18.1149 14.0413 17.5823 13.5508 16.7913 13.333 16.2298 13.2178 15.9327 13.1601 15.7841 13.0667 15.6756 12.9875 15.5837 12.8904 15.513 12.7828 15.4688 12.4271 15.3228 11.7693 15.6378 11.5972 15.1518 11.5602 15.0474 11.5789 14.9129 11.6164 14.6438L12.2632 10" stroke="currentColor" stroke-linecap="round" stroke-linejoin="round" stroke-width="2"/>
</svg>
