<svg xmlns="http://www.w3.org/2000/svg" width="20" height="20" viewBox="0 0 20 20" fill="none">
  <path d="M2.5 14.1667H17.5V6.6667C17.5 4.3096 17.5 3.1311 16.7678 2.3989 16.0355 1.6667 14.857 1.6667 12.5 1.6667H7.5C5.143 1.6667 3.9645 1.6667 3.2322 2.3989 2.5 3.1311 2.5 4.3096 2.5 6.6667V14.1667Z" stroke="currentColor" stroke-width="2"/>
  <path d="M1.6667 14.1667H18.3333" stroke="currentColor" stroke-linecap="round" stroke-linejoin="round" stroke-width="2"/>
  <path d="M7.0833 18.3333L7.3568 18.0598C7.8386 17.578 8.0794 17.3371 8.3858 17.2103 8.6921 17.0833 9.0327 17.0833 9.714 17.0833H10.2858C10.9671 17.0833 11.3077 17.0833 11.614 17.2102 11.9202 17.3371 12.1611 17.5779 12.6428 18.0597L12.9165 18.3333" stroke="currentColor" stroke-linecap="round" stroke-linejoin="round" stroke-width="2"/>
  <path d="M10 14.5833V18.3333" stroke="currentColor" stroke-linecap="round" stroke-width="2"/>
</svg>
