<svg xmlns="http://www.w3.org/2000/svg" width="20" height="20" viewBox="0 0 20 20" fill="none">
  <path d="M2.0833 9.5833C2.0833 11.9403 2.0833 13.1188 2.8156 13.8511 3.5478 14.5833 4.7263 14.5833 7.0833 14.5833H12.9167C15.2737 14.5833 16.4522 14.5833 17.1844 13.8511 17.9167 13.1188 17.9167 11.9403 17.9167 9.5833V7.9167C17.9167 5.5596 17.9167 4.3811 17.1844 3.6489 16.4522 2.9167 15.2737 2.9167 12.9167 2.9167H7.0833C4.7263 2.9167 3.5478 2.9167 2.8156 3.6489 2.0833 4.3811 2.0833 5.5596 2.0833 7.9167V9.5833Z" stroke="currentColor" stroke-width="2"/>
  <path d="M7.0833 18.3333L7.3568 18.0598C7.8386 17.578 8.0794 17.3371 8.3858 17.2103 8.6921 17.0833 9.0327 17.0833 9.714 17.0833H10.2858C10.9671 17.0833 11.3077 17.0833 11.614 17.2102 11.9202 17.3371 12.1611 17.5779 12.6428 18.0597L12.9165 18.3333" stroke="currentColor" stroke-linecap="round" stroke-linejoin="round" stroke-width="2"/>
  <path d="M10 1.6667V2.9167" stroke="currentColor" stroke-linecap="round" stroke-linejoin="round" stroke-width="2"/>
  <path d="M10 14.5833V18.3333" stroke="currentColor" stroke-linecap="round" stroke-width="2"/>
</svg>
