<svg xmlns="http://www.w3.org/2000/svg" width="20" height="20" viewBox="0 0 20 20" fill="none">
  <path d="M10 15V18.3333" stroke="currentColor" stroke-linecap="round" stroke-linejoin="round" stroke-width="2"/>
  <path d="M8.3333 15L4.1667 18.3333" stroke="currentColor" stroke-linecap="round" stroke-linejoin="round" stroke-width="2"/>
  <path d="M11.6667 15L15.8333 18.3333" stroke="currentColor" stroke-linecap="round" stroke-linejoin="round" stroke-width="2"/>
  <path d="M2.0833 10C2.0833 12.357 2.0833 13.5355 2.8156 14.2678 3.5478 15 4.7263 15 7.0833 15H12.9167C15.2737 15 16.4522 15 17.1844 14.2678 17.9167 13.5355 17.9167 12.357 17.9167 10V6.6667C17.9167 4.3096 17.9167 3.1311 17.1844 2.3989 16.4522 1.6667 15.2737 1.6667 12.9167 1.6667H7.0833C4.7263 1.6667 3.5478 1.6667 2.8156 2.3989 2.0833 3.1311 2.0833 4.3096 2.0833 6.6667V10Z" stroke="currentColor" stroke-width="2"/>
  <path d="M6.6667 10.8333V8.3333M10 10.8333V5.8333M13.3333 10.8333V9.1667" stroke="currentColor" stroke-linecap="round" stroke-width="2"/>
</svg>
