<svg xmlns="http://www.w3.org/2000/svg" width="20" height="20" viewBox="0 0 20 20" fill="none">
  <path d="M5.8333 14.1667H4.4444C3.406 14.1667 2.8868 14.1667 2.5 13.9434 2.2466 13.7971 2.0362 13.5867 1.89 13.3333 1.6667 12.9466 1.6667 12.4273 1.6667 11.3889 1.6667 9.312 1.6667 8.2735 2.1132 7.5 2.4058 6.9933 2.8266 6.5725 3.3333 6.2799 3.9124 5.9456 4.6399 5.8616 5.8404 5.8404M9.1667 5.8333H12.7777C14.8547 5.8333 15.8932 5.8333 16.6667 6.2799 17.1734 6.5725 17.5942 6.9933 17.8867 7.5 18.3333 8.2735 18.3333 9.312 18.3333 11.3889 18.3333 12.4273 18.3333 12.9466 18.11 13.3333 17.9638 13.5867 17.7533 13.7971 17.5 13.9434 17.4522 13.971 17.4023 13.9952 17.3498 14.0164" stroke="currentColor" stroke-linecap="round" stroke-linejoin="round" stroke-width="2"/>
  <path d="M14.1663 5.8333V4.1667C14.1663 2.9882 14.1663 2.3989 13.8002 2.0328 13.4341 1.6667 12.8448 1.6667 11.6662 1.6667H8.333C7.1544 1.6667 6.5652 1.6667 6.1991 2.0328 6.0565 2.1753 5.9695 2.3516 5.9163 2.5834" stroke="currentColor" stroke-linecap="round" stroke-linejoin="round" stroke-width="2"/>
  <path d="M14.1667 14.1667V15.8333C14.1667 17.0118 14.1667 17.6011 13.8006 17.9672 13.4344 18.3333 12.8452 18.3333 11.6667 18.3333H8.3333C7.1548 18.3333 6.5656 18.3333 6.1994 17.9672 5.8333 17.6011 5.8333 17.0118 5.8333 15.8333V11.6667H11.6667" stroke="currentColor" stroke-linecap="round" stroke-linejoin="round" stroke-width="2"/>
  <path d="M15.7292 8.5417H15.625M15.8333 8.5417C15.8333 8.6568 15.7401 8.75 15.625 8.75 15.5099 8.75 15.4167 8.6568 15.4167 8.5417 15.4167 8.4266 15.5099 8.3333 15.625 8.3333 15.7401 8.3333 15.8333 8.4266 15.8333 8.5417Z" stroke="currentColor" stroke-linecap="round" stroke-linejoin="round" stroke-width="2"/>
  <path d="M1.6667 1.6667L18.3333 18.3333" stroke="currentColor" stroke-linecap="round" stroke-linejoin="round" stroke-width="2"/>
</svg>
