<svg xmlns="http://www.w3.org/2000/svg" width="20" height="20" viewBox="0 0 20 20" fill="none">
  <path d="M14.1667 14.1667H15.5556C16.594 14.1667 17.1133 14.1667 17.5 13.9434 17.7533 13.7971 17.9638 13.5867 18.11 13.3333 18.3333 12.9466 18.3333 12.4273 18.3333 11.3889 18.3333 9.312 18.3333 8.2735 17.8867 7.5 17.5942 6.9933 17.1734 6.5725 16.6667 6.2799 15.8932 5.8333 14.8547 5.8333 12.7777 5.8333H7.2222C5.1453 5.8333 4.1068 5.8333 3.3333 6.2799 2.8266 6.5725 2.4058 6.9933 2.1132 7.5 1.6667 8.2735 1.6667 9.312 1.6667 11.3889 1.6667 12.4273 1.6667 12.9466 1.89 13.3333 2.0362 13.5867 2.2466 13.7971 2.5 13.9434 2.8868 14.1667 3.406 14.1667 4.4444 14.1667H5.8333" stroke="currentColor" stroke-linecap="round" stroke-linejoin="round" stroke-width="2"/>
  <path d="M14.1667 5.8333V4.1667C14.1667 2.9882 14.1667 2.3989 13.8006 2.0328 13.4344 1.6667 12.8452 1.6667 11.6667 1.6667H8.3333C7.1548 1.6667 6.5656 1.6667 6.1994 2.0328 5.8333 2.3989 5.8333 2.9882 5.8333 4.1667V5.8333" stroke="currentColor" stroke-linecap="round" stroke-linejoin="round" stroke-width="2"/>
  <path d="M14.1667 11.6667V15.8333C14.1667 17.0118 14.1667 17.6011 13.8006 17.9672 13.4344 18.3333 12.8452 18.3333 11.6667 18.3333H8.3333C7.1548 18.3333 6.5656 18.3333 6.1994 17.9672 5.8333 17.6011 5.8333 17.0118 5.8333 15.8333V11.6667H14.1667Z" stroke="currentColor" stroke-linecap="round" stroke-linejoin="round" stroke-width="2"/>
  <path d="M15.729 8.5417H15.6248M15.8332 8.5417C15.8332 8.6568 15.7399 8.75 15.6248 8.75 15.5098 8.75 15.4165 8.6568 15.4165 8.5417 15.4165 8.4266 15.5098 8.3333 15.6248 8.3333 15.7399 8.3333 15.8332 8.4266 15.8332 8.5417Z" stroke="currentColor" stroke-linecap="round" stroke-linejoin="round" stroke-width="2"/>
</svg>
