<svg xmlns="http://www.w3.org/2000/svg" width="20" height="20" viewBox="0 0 20 20" fill="none">
  <path d="M15 6.6667C13.6073 6.1434 11.8761 5.8333 10 5.8333 8.1239 5.8333 6.3927 6.1434 5 6.6667" stroke="currentColor" stroke-linecap="round" stroke-width="2"/>
  <path d="M5.8082 6.6667L5.2003 5.4896C4.7179 4.5556 4.4768 4.0886 4.6286 3.6759 4.7805 3.2631 5.2479 3.1154 6.1827 2.8198L9.4916 1.7738C9.7174 1.7024 9.8304 1.6667 9.9462 1.6667 10.0622 1.6667 10.1752 1.7024 10.401 1.7738L13.9327 2.8903C14.7748 3.1565 15.1958 3.2896 15.3562 3.6632 15.5168 4.0369 15.3443 4.4822 14.9994 5.3728L14.4983 6.6667" stroke="currentColor" stroke-linecap="round" stroke-width="2"/>
  <path d="M5.8333 6.6667V8.1043C5.8333 9.5987 6.6012 10.9835 7.8563 11.7523L8.285 12.015C9.3406 12.6617 10.6594 12.6617 11.715 12.015L12.1438 11.7523C13.3987 10.9835 14.1667 9.5987 14.1667 8.1043V6.6667" stroke="currentColor" stroke-linecap="round" stroke-width="2"/>
  <path d="M12.5 11.6667L13.3333 14.1667M13.3333 14.1667L12.1927 15.1628C11.1478 16.0754 10.6253 16.5317 10 16.5317 9.3747 16.5317 8.8522 16.0754 7.8074 15.1628L6.6667 14.1667M13.3333 14.1667L14.7784 14.6483C15.6102 14.9256 16.026 15.0643 16.3952 15.2785 16.7566 15.4882 17.0843 15.7512 17.3675 16.0584 17.6567 16.3723 18.3333 17.5 18.3333 18.3333M7.5 11.6667L6.6667 14.1667M6.6667 14.1667L5.2216 14.6483C4.3898 14.9256 3.974 15.0643 3.6048 15.2785 3.2434 15.4882 2.9157 15.7512 2.6325 16.0584 2.3433 16.3723 1.6667 17.5 1.6667 18.3333" stroke="currentColor" stroke-linecap="round" stroke-linejoin="round" stroke-width="2"/>
</svg>
