<svg xmlns="http://www.w3.org/2000/svg" width="20" height="20" viewBox="0 0 20 20" fill="none">
  <path d="M15 5.8333C13.6073 5.3101 11.8761 5 10 5 8.1239 5 6.3927 5.3101 5 5.8333" stroke="currentColor" stroke-linecap="round" stroke-width="2"/>
  <path d="M5.8333 5.8333V7.271C5.8333 8.7653 6.6012 10.1502 7.8563 10.919L8.285 11.1817C9.3406 11.8283 10.6594 11.8283 11.715 11.1817L12.1438 10.919C13.3987 10.1502 14.1667 8.7653 14.1667 7.271V5.8333" stroke="currentColor" stroke-linecap="round" stroke-width="2"/>
  <path d="M5.8333 6.6667V4.9634C5.8333 3.8427 6.6012 2.8041 7.8563 2.2274L8.285 2.0304C9.3406 1.5454 10.6594 1.5454 11.715 2.0304L12.1438 2.2274C13.3987 2.8041 14.1667 3.8427 14.1667 4.9634V6.6667" stroke="currentColor" stroke-linecap="round" stroke-width="2"/>
  <path d="M12.5 10.8333L13.3333 13.3333M13.3333 13.3333L12.1927 14.3295C11.1478 15.2421 10.6253 15.6983 10 15.6983 9.3747 15.6983 8.8522 15.2421 7.8074 14.3295L6.6667 13.3333M13.3333 13.3333L14.7784 13.815C15.6102 14.0922 16.026 14.2309 16.3952 14.4452 16.7566 14.6549 17.0843 14.9178 17.3675 15.2251 17.6567 15.539 18.3333 16.6667 18.3333 18.3333M7.5 10.8333L6.6667 13.3333M6.6667 13.3333L5.2216 13.815C4.3898 14.0922 3.974 14.2309 3.6048 14.4452 3.2434 14.6549 2.9157 14.9178 2.6325 15.2251 2.3433 15.539 1.6667 16.6667 1.6667 18.3333" stroke="currentColor" stroke-linecap="round" stroke-linejoin="round" stroke-width="2"/>
</svg>
