<svg xmlns="http://www.w3.org/2000/svg" width="20" height="20" viewBox="0 0 20 20" fill="none">
  <path d="M1.6667 10C1.6667 6.4645 1.6667 4.6967 2.8871 3.5983 4.1074 2.5 6.0716 2.5 10 2.5 13.9283 2.5 15.8926 2.5 17.1129 3.5983 18.3333 4.6967 18.3333 6.4645 18.3333 10 18.3333 13.5355 18.3333 15.3033 17.1129 16.4017 15.8926 17.5 13.9283 17.5 10 17.5 6.0716 17.5 4.1074 17.5 2.8871 16.4017 1.6667 15.3033 1.6667 13.5355 1.6667 10Z" stroke="currentColor" stroke-linecap="round" stroke-linejoin="round" stroke-width="2"/>
  <path d="M7 6.6667H6.3333C5.7048 6.6667 5.3905 6.6667 5.1953 6.8619 5 7.0572 5 7.3715 5 8V8.6667C5 9.2952 5 9.6095 5.1953 9.8048 5.3905 10 5.7048 10 6.3333 10H7C7.6285 10 7.9428 10 8.1381 9.8048 8.3333 9.6095 8.3333 9.2952 8.3333 8.6667V8C8.3333 7.3715 8.3333 7.0572 8.1381 6.8619 7.9428 6.6667 7.6285 6.6667 7 6.6667Z" stroke="currentColor" stroke-linejoin="round" stroke-width="2"/>
  <path d="M5 13.3333H8.3333" stroke="currentColor" stroke-linecap="round" stroke-linejoin="round" stroke-width="2"/>
  <path d="M11.6667 6.6667H15" stroke="currentColor" stroke-linecap="round" stroke-linejoin="round" stroke-width="2"/>
  <path d="M11.6667 10H15" stroke="currentColor" stroke-linecap="round" stroke-linejoin="round" stroke-width="2"/>
  <path d="M11.6667 13.3333H15" stroke="currentColor" stroke-linecap="round" stroke-linejoin="round" stroke-width="2"/>
</svg>
