<svg xmlns="http://www.w3.org/2000/svg" width="20" height="20" viewBox="0 0 20 20" fill="none">
  <path d="M3.3333 5.8333C3.3333 4.262 3.3333 3.4763 3.8215 2.9882 4.3096 2.5 5.0953 2.5 6.6667 2.5H12.5C14.857 2.5 16.0355 2.5 16.7678 3.2322 17.5 3.9645 17.5 5.143 17.5 7.5 17.5 9.857 17.5 11.0355 16.7678 11.7677 16.0355 12.5 14.857 12.5 12.5 12.5H3.3333V5.8333Z" stroke="currentColor" stroke-width="2"/>
  <path d="M3.3333 17.5L3.3333 6.6667" stroke="currentColor" stroke-linecap="round" stroke-width="2"/>
  <path d="M13.3333 5.8333L14.3554 6.7143C14.7852 7.0847 15 7.2699 15 7.5 15 7.7301 14.7852 7.9153 14.3554 8.2857L13.3333 9.1667" stroke="currentColor" stroke-linecap="round" stroke-linejoin="round" stroke-width="2"/>
  <path d="M7.5 5.8333L6.4779 6.7143C6.0482 7.0847 5.8333 7.2699 5.8333 7.5 5.8333 7.7301 6.0482 7.9153 6.4779 8.2857L7.5 9.1667" stroke="currentColor" stroke-linecap="round" stroke-linejoin="round" stroke-width="2"/>
  <path d="M11.25 5.8333L9.5833 9.1667" stroke="currentColor" stroke-linecap="round" stroke-linejoin="round" stroke-width="2"/>
</svg>
