<svg xmlns="http://www.w3.org/2000/svg" width="20" height="20" viewBox="0 0 20 20" fill="none">
  <path d="M15 10.4167C15 12.2576 13.5076 13.75 11.6667 13.75 9.8258 13.75 8.3333 12.2576 8.3333 10.4167 8.3333 8.5758 9.8258 7.0833 11.6667 7.0833 13.5076 7.0833 15 8.5758 15 10.4167Z" stroke="currentColor" stroke-linecap="round" stroke-linejoin="round" stroke-width="2"/>
  <path d="M4.1667 14.5833H5.8333" stroke="currentColor" stroke-linecap="round" stroke-linejoin="round" stroke-width="2"/>
  <path d="M8.3333 8.75H5.8333C4.2756 8.75 3.4968 8.75 2.9167 9.0849 2.5366 9.3043 2.221 9.6199 2.0016 10 1.6667 10.5802 1.6667 11.359 1.6667 12.9167 1.6667 14.4743 1.6667 15.2532 2.0016 15.8333 2.221 16.2134 2.5366 16.529 2.9167 16.7484 3.4968 17.0833 4.2756 17.0833 5.8333 17.0833H14.1667C15.7243 17.0833 16.5032 17.0833 17.0833 16.7484 17.4634 16.529 17.779 16.2134 17.9984 15.8333 18.3333 15.2532 18.3333 14.4743 18.3333 12.9167V12.0833C18.3333 11.3083 18.3333 10.9208 18.2482 10.6029 18.017 9.7402 17.3431 9.0663 16.4804 8.8352 16.1625 8.75 15.775 8.75 15 8.75" stroke="currentColor" stroke-linecap="round" stroke-linejoin="round" stroke-width="2"/>
  <path d="M11.6683 2.9167V4.5812" stroke="currentColor" stroke-linecap="round" stroke-linejoin="round" stroke-width="2"/>
  <path d="M16.25 4.1667L15 5.4167" stroke="currentColor" stroke-linecap="round" stroke-linejoin="round" stroke-width="2"/>
  <path d="M7.0833 4.1667L8.3333 5.4167" stroke="currentColor" stroke-linecap="round" stroke-linejoin="round" stroke-width="2"/>
</svg>
