<svg xmlns="http://www.w3.org/2000/svg" width="20" height="20" viewBox="0 0 20 20" fill="none">
  <path d="M9.5833 8.3333H5.4167C3.8543 8.3333 3.0731 8.3333 2.5254 8.7312 2.3486 8.8598 2.1931 9.0153 2.0646 9.1921 1.6667 9.7398 1.6667 10.5209 1.6667 12.0833 1.6667 13.6458 1.6667 14.4269 2.0646 14.9746 2.1931 15.1514 2.3486 15.3069 2.5254 15.4354 3.0731 15.8333 3.8543 15.8333 5.4167 15.8333H14.5833C16.1457 15.8333 16.9269 15.8333 17.4746 15.4354 17.6514 15.3069 17.8069 15.1514 17.9354 14.9746 18.3333 14.4269 18.3333 13.6458 18.3333 12.0833 18.3333 10.5209 18.3333 9.7398 17.9354 9.1921 17.8069 9.0153 17.6514 8.8598 17.4746 8.7312 17.0977 8.4573 16.6101 8.372 15.8333 8.3454" stroke="currentColor" stroke-width="2"/>
  <circle cx="12.916666666666668" cy="8.333333333333334" r="2.916666666666667" stroke="currentColor" stroke-width="2"/>
  <path d="M5.4167 15.8333L4.1667 18.3333" stroke="currentColor" stroke-linecap="round" stroke-width="2"/>
  <path d="M14.5833 15.8333L15.8333 18.3333" stroke="currentColor" stroke-linecap="round" stroke-width="2"/>
  <path d="M10.4167 4.1667L9.5833 3.3333M16.25 3.3333L15.4167 4.1667M12.9167 3.3333V1.6667" stroke="currentColor" stroke-linecap="round" stroke-width="2"/>
  <path d="M5.1042 11.6667H5M5.2083 11.6667C5.2083 11.7818 5.1151 11.875 5 11.875 4.8849 11.875 4.7917 11.7818 4.7917 11.6667 4.7917 11.5516 4.8849 11.4583 5 11.4583 5.1151 11.4583 5.2083 11.5516 5.2083 11.6667Z" stroke="currentColor" stroke-linecap="round" stroke-linejoin="round" stroke-width="2"/>
</svg>
