<svg xmlns="http://www.w3.org/2000/svg" width="20" height="20" viewBox="0 0 20 20" fill="none">
  <path d="M17.0828 10.4167C17.0833 10.1503 17.0833 9.8728 17.0833 9.5833 17.0833 6.0478 17.0833 4.28 15.985 3.1817 14.8867 2.0833 13.1188 2.0833 9.5833 2.0833 6.0478 2.0833 4.28 2.0833 3.1817 3.1817 2.0833 4.28 2.0833 6.0478 2.0833 9.5833 2.0833 13.1188 2.0833 14.8867 3.1817 15.985 4.28 17.0833 6.0478 17.0833 9.5833 17.0833 9.8728 17.0833 10.1503 17.0833 10.4167 17.0828" stroke="currentColor" stroke-linecap="round" stroke-linejoin="round" stroke-width="2"/>
  <path d="M2.5 6.25H16.6667" stroke="currentColor" stroke-linecap="round" stroke-linejoin="round" stroke-width="2"/>
  <path d="M9.5833 13.3333H10.4167M5.4167 13.3333H6.25" stroke="currentColor" stroke-linecap="round" stroke-linejoin="round" stroke-width="2"/>
  <path d="M9.5833 10H13.75M5.4167 10H6.25" stroke="currentColor" stroke-linecap="round" stroke-linejoin="round" stroke-width="2"/>
  <path d="M17.9082 13.7506L15.8336 15.8291M15.8336 15.8291L13.75 17.9167M15.8336 15.8291L17.9167 17.9161M15.8336 15.8291L13.7585 13.75" stroke="currentColor" stroke-linecap="round" stroke-linejoin="round" stroke-width="2"/>
</svg>
