<svg xmlns="http://www.w3.org/2000/svg" width="20" height="20" viewBox="0 0 20 20" fill="none">
  <path d="M2.5001 9.9999C2.5001 6.4644 2.5001 4.6966 3.5984 3.5983 4.6968 2.4999 6.4645 2.4999 10.0001 2.4999 13.5356 2.4999 15.3033 2.4999 16.4017 3.5983 17.5001 4.6966 17.5001 6.4644 17.5001 9.9999 17.5001 13.5355 17.5001 15.3033 16.4017 16.4016 15.3033 17.4999 13.5356 17.4999 10.0001 17.4999 6.4645 17.4999 4.6968 17.4999 3.5984 16.4016 2.5001 15.3033 2.5001 13.5355 2.5001 9.9999Z" stroke="currentColor" stroke-linecap="round" stroke-linejoin="round" stroke-width="2"/>
  <path d="M2.9167 6.6666H17.0834" stroke="currentColor" stroke-linecap="round" stroke-linejoin="round" stroke-width="2"/>
  <path d="M10.0001 13.7499H14.1668M5.8334 13.7499H6.6667" stroke="currentColor" stroke-linecap="round" stroke-linejoin="round" stroke-width="2"/>
  <path d="M10.0001 10.4166H14.1668M5.8334 10.4166H6.6667" stroke="currentColor" stroke-linecap="round" stroke-linejoin="round" stroke-width="2"/>
</svg>
