<svg xmlns="http://www.w3.org/2000/svg" width="20" height="20" viewBox="0 0 20 20" fill="none">
  <path d="M17.0828 10.4167C17.0833 10.1503 17.0833 9.8728 17.0833 9.5833 17.0833 6.0478 17.0833 4.28 15.985 3.1817 14.8867 2.0833 13.1188 2.0833 9.5833 2.0833 6.0478 2.0833 4.28 2.0833 3.1817 3.1817 2.0833 4.28 2.0833 6.0478 2.0833 9.5833 2.0833 13.1188 2.0833 14.8867 3.1817 15.985 4.28 17.0833 6.0478 17.0833 9.5833 17.0833 9.8728 17.0833 10.1503 17.0833 10.4167 17.0828" stroke="currentColor" stroke-linecap="round" stroke-linejoin="round" stroke-width="2"/>
  <path d="M2.5 6.25H16.6667" stroke="currentColor" stroke-linecap="round" stroke-linejoin="round" stroke-width="2"/>
  <path d="M9.5833 13.3333H10.4167M5.4167 13.3333H6.25" stroke="currentColor" stroke-linecap="round" stroke-linejoin="round" stroke-width="2"/>
  <path d="M9.5833 10H13.75M5.4167 10H6.25" stroke="currentColor" stroke-linecap="round" stroke-linejoin="round" stroke-width="2"/>
  <path d="M16.6667 16.6667L17.9167 17.9167M17.0833 15C17.0833 13.8494 16.1506 12.9167 15 12.9167 13.8494 12.9167 12.9167 13.8494 12.9167 15 12.9167 16.1506 13.8494 17.0833 15 17.0833 16.1506 17.0833 17.0833 16.1506 17.0833 15Z" stroke="currentColor" stroke-linecap="round" stroke-linejoin="round" stroke-width="2"/>
</svg>
