<svg xmlns="http://www.w3.org/2000/svg" width="20" height="20" viewBox="0 0 20 20" fill="none">
  <path d="M17.0831 10.4203C17.0837 10.1539 17.0837 9.8763 17.0837 9.5868 17.0837 6.0499 17.0837 4.2815 15.9853 3.1827 14.8869 2.084 13.1192 2.084 9.5837 2.084 6.0481 2.084 4.2804 2.084 3.182 3.1827 2.0837 4.2815 2.0837 6.0499 2.0837 9.5868 2.0837 13.1236 2.0837 14.892 3.182 15.9908 4.0922 16.9013 5.4622 17.0572 7.917 17.084" stroke="currentColor" stroke-linecap="round" stroke-linejoin="round" stroke-width="2"/>
  <path d="M2.5003 6.2506H16.667" stroke="currentColor" stroke-linecap="round" stroke-linejoin="round" stroke-width="2"/>
  <path d="M5.417 13.334H6.2503" stroke="currentColor" stroke-linecap="round" stroke-linejoin="round" stroke-width="2"/>
  <path d="M9.5837 10.0007H13.7503M5.417 10.0007H6.2503" stroke="currentColor" stroke-linecap="round" stroke-linejoin="round" stroke-width="2"/>
  <path d="M14.167 12.9173C16.1665 12.9173 17.4995 14.5853 17.9163 15.4186 17.4988 16.2523 16.1648 17.916 14.1663 17.916 12.1678 17.916 10.8346 16.2511 10.417 15.4173 10.8338 14.584 12.1675 12.9173 14.167 12.9173Z" stroke="currentColor" stroke-linecap="round" stroke-linejoin="round" stroke-width="2"/>
  <path d="M14.2712 15.4173H14.167M14.3753 15.4173C14.3753 15.5323 14.2821 15.6257 14.167 15.6257 14.0519 15.6257 13.9587 15.5323 13.9587 15.4173 13.9587 15.3023 14.0519 15.209 14.167 15.209 14.2821 15.209 14.3753 15.3023 14.3753 15.4173Z" stroke="currentColor" stroke-linecap="round" stroke-linejoin="round" stroke-width="2"/>
</svg>
