<svg xmlns="http://www.w3.org/2000/svg" width="20" height="20" viewBox="0 0 20 20" fill="none">
  <path d="M9.5833 17.0833C6.0478 17.0833 4.28 17.0833 3.1817 15.985 2.0833 14.8867 2.0833 13.1188 2.0833 9.5833 2.0833 6.0478 2.0833 4.28 3.1817 3.1817 4.28 2.0833 6.0478 2.0833 9.5833 2.0833 13.1188 2.0833 14.8867 2.0833 15.985 3.1817 17.0833 4.28 17.0833 6.0478 17.0833 9.5833" stroke="currentColor" stroke-linecap="round" stroke-linejoin="round" stroke-width="2"/>
  <path d="M2.5 6.25H16.6667" stroke="currentColor" stroke-linecap="round" stroke-linejoin="round" stroke-width="2"/>
  <path d="M9.5833 13.3333H10.4167M5.4167 13.3333H6.25" stroke="currentColor" stroke-linecap="round" stroke-linejoin="round" stroke-width="2"/>
  <path d="M9.5833 10H13.75M5.4167 10H6.25" stroke="currentColor" stroke-linecap="round" stroke-linejoin="round" stroke-width="2"/>
  <path d="M12.737 15.4872L15.8754 12.3579C16.243 11.9918 16.839 11.9918 17.2065 12.3579L17.641 12.7907C18.0086 13.1568 18.0086 13.7503 17.641 14.1164L14.5315 17.2595C14.3525 17.4378 14.1234 17.558 13.8745 17.6043L12.4638 17.9093C12.2411 17.9575 12.0427 17.7605 12.0905 17.5386L12.3908 16.1415C12.4373 15.8936 12.5579 15.6655 12.737 15.4872Z" stroke="currentColor" stroke-linecap="round" stroke-linejoin="round" stroke-width="2"/>
</svg>
