<svg xmlns="http://www.w3.org/2000/svg" width="20" height="20" viewBox="0 0 20 20" fill="none">
  <path d="M3.5631 18.3333V15.3744C3.5631 14.31 3.2791 13.7639 2.7205 12.8428 2.051 11.7387 1.6667 10.4502 1.6667 9.0741 1.6667 4.9831 5.063 1.6667 9.2525 1.6667 12.8888 1.6667 15.9277 4.1651 16.6667 7.5" stroke="currentColor" stroke-linecap="round" stroke-linejoin="round" stroke-width="2"/>
  <path d="M12.5627 12.3712L15.8258 10.3451C15.9027 10.2973 15.9412 10.2735 15.9794 10.2548 16.0177 10.2362 16.0624 10.2198 16.1517 10.1871 16.6108 10.0188 17.1196 9.8373 17.5329 10.1869 17.7513 10.3716 17.8537 10.696 18.0589 11.3448 18.2207 11.8568 18.4005 12.3626 18.3083 12.9058 18.2599 13.1903 18.1335 13.4569 17.8806 13.9902L16.6896 16.502C16.2281 17.4753 15.9973 17.9618 15.2299 18.2174 14.4626 18.4729 14.1237 18.2798 13.4458 17.8938 10.3739 16.1437 4.425 11.0503 6.137 8.7399 6.7835 7.8675 8.4362 8.1125 12.5627 12.3712ZM12.5627 12.3712L11.6748 16.7327" stroke="currentColor" stroke-linecap="round" stroke-linejoin="round" stroke-width="2"/>
</svg>
