<svg xmlns="http://www.w3.org/2000/svg" width="20" height="20" viewBox="0 0 20 20" fill="none">
  <path d="M13.3333 15C13.3333 16.6667 11.6667 18.3333 10 18.3333 8.3333 18.3333 6.6667 16.6667 6.6667 15" stroke="currentColor" stroke-linecap="round" stroke-width="2"/>
  <path d="M12.5 6.6667C12.001 5.6703 11.0683 5 10 5 8.9318 5 7.999 5.6703 7.5 6.6667" stroke="currentColor" stroke-linecap="round" stroke-width="2"/>
  <path d="M12.8432 16.1731C16.3726 18.1683 18.3333 13.6719 18.3333 10.5865 18.3333 7.5012 16.4795 5 14.1928 5 13.4122 5 12.451 5.399 11.6667 6.1971" stroke="currentColor" stroke-width="2"/>
  <path d="M7.1569 16.1731C3.6275 18.1683 1.6667 13.6719 1.6667 10.5865 1.6667 7.5012 3.5205 5 5.8073 5 6.5879 5 7.549 5.399 8.3333 6.1971" stroke="currentColor" stroke-width="2"/>
  <path d="M10 5C10 3.8889 10.5 1.6667 12.5 1.6667" stroke="currentColor" stroke-linecap="round" stroke-linejoin="round" stroke-width="2"/>
</svg>
