<svg xmlns="http://www.w3.org/2000/svg" width="20" height="20" viewBox="0 0 20 20" fill="none">
  <path d="M10.0017 18.3333C7.0101 18.3333 4.585 16.5147 4.585 13.7579 4.585 11.3841 6.5932 9.7057 7.7275 6.6292 7.8715 6.2386 7.9435 6.0433 7.9988 5.9415 8.2946 5.397 8.7127 5.121 9.3673 5.038 9.7671 4.9874 10.236 4.9873 10.6357 5.038 11.2904 5.1209 11.7086 5.3969 12.0045 5.9414 12.0598 6.0432 12.1318 6.2386 12.2758 6.6292 13.4102 9.7055 15.4183 11.3838 15.4183 13.7577 15.4183 16.5145 12.9932 18.3333 10.0017 18.3333Z" stroke="currentColor" stroke-width="2"/>
  <path d="M8.2958 11.6667C7.4433 13.1482 8.0444 18.3333 10.0008 18.3333 11.9552 18.3333 12.5617 13.1482 11.7073 11.6667" stroke="currentColor" stroke-linecap="round" stroke-width="2"/>
  <path d="M10 5V2.9167M10 2.9167L10.7628 2.726C11.3365 2.5825 11.8188 2.1956 12.0833 1.6667M10 2.9167L9.2372 2.726C8.6635 2.5825 8.1811 2.1956 7.9167 1.6667" stroke="currentColor" stroke-linecap="round" stroke-linejoin="round" stroke-width="2"/>
  <path d="M12.5017 7.5H7.5016" stroke="currentColor" stroke-linecap="round" stroke-linejoin="round" stroke-width="2"/>
</svg>
