<svg xmlns="http://www.w3.org/2000/svg" width="20" height="20" viewBox="0 0 20 20" fill="none">
  <path d="M13.3224 3.2292C13.3788 2.6042 13.2434 1.6667 12.2971 1.6667 11.1143 1.6667 8.1863 5.8333 5.8333 5.8333" stroke="currentColor" stroke-linecap="round" stroke-linejoin="round" stroke-width="2"/>
  <path d="M6.679 3.2292C6.6156 2.6042 6.7679 1.6667 7.8324 1.6667 9.1631 1.6667 12.3529 5.8333 15 5.8333" stroke="currentColor" stroke-linecap="round" stroke-linejoin="round" stroke-width="2"/>
  <path d="M3.3333 8.3333H16.6667" stroke="currentColor" stroke-linecap="round" stroke-linejoin="round" stroke-width="2"/>
  <path d="M18.2192 12.502C17.8456 10.7807 16.2273 8.7484 16.8104 6.985 16.9982 6.4172 16.5718 5.8333 15.9693 5.8333H4.0239C3.4219 5.8333 2.9969 6.4184 3.1875 6.9848 3.7809 8.7483 2.1565 10.7843 1.7814 12.5054 1.2661 14.8701 2.5182 17.3284 4.9049 17.8273 8.1311 18.5018 11.8663 18.502 15.093 17.8281 17.4813 17.3293 18.7329 14.8687 18.2192 12.502Z" stroke="currentColor" stroke-linecap="round" stroke-linejoin="round" stroke-width="2"/>
</svg>
