<svg xmlns="http://www.w3.org/2000/svg" width="20" height="20" viewBox="0 0 20 20" fill="none">
  <path d="M13.3333 11.6667C13.3333 12.357 13.893 12.9167 14.5833 12.9167 15.2737 12.9167 15.8333 12.357 15.8333 11.6667 15.8333 10.9763 15.2737 10.4167 14.5833 10.4167 13.893 10.4167 13.3333 10.9763 13.3333 11.6667Z" stroke="currentColor" stroke-width="2"/>
  <path d="M3.3333 16.6667C2.4129 16.6667 1.6667 15.9205 1.6667 15 1.6667 14.0795 2.4129 13.3333 3.3333 13.3333 4.2538 13.3333 5 14.4444 5 15 5 15.5556 4.2538 16.6667 3.3333 16.6667Z" stroke="currentColor" stroke-width="2"/>
  <path d="M6.6667 16.6667C5.7462 16.6667 5 15.4167 5 15 5 14.5833 5.7462 13.3333 6.6667 13.3333 7.5871 13.3333 8.3333 14.0795 8.3333 15 8.3333 15.9205 7.5871 16.6667 6.6667 16.6667Z" stroke="currentColor" stroke-width="2"/>
  <path d="M8.3333 5.8333H13.3333C13.9701 5.8333 14.5208 5.8333 15 5.8478 16.2945 5.8868 17.0667 6.0312 17.6011 6.5656 18.3333 7.2978 18.3333 8.4763 18.3333 10.8333V11.6667C18.3333 14.0237 18.3333 15.2022 17.6011 15.9344 16.8688 16.6667 15.6903 16.6667 13.3333 16.6667H10.8333M15 5.8478C15 5.0576 15 4.6626 14.8688 4.3517 14.6999 3.9518 14.3816 3.6335 13.9816 3.4646 13.6708 3.3333 13.2757 3.3333 12.4856 3.3333H8.3333C5.1906 3.3333 3.6193 3.3333 2.643 4.3096 1.6667 5.286 1.6667 6.024 1.6667 9.1667V10.8333" stroke="currentColor" stroke-linecap="round" stroke-width="2"/>
</svg>
