<svg xmlns="http://www.w3.org/2000/svg" width="20" height="20" viewBox="0 0 20 20" fill="none">
  <path d="M2.9167 8.3334V7.0834C2.9167 5.5121 2.9167 4.7264 3.4048 4.2382 3.893 3.7501 4.6787 3.7501 6.25 3.7501M17.0833 8.3334V7.0834C17.0833 5.5121 17.0833 4.7264 16.5952 4.2382 16.107 3.7501 15.3213 3.7501 13.75 3.7501" stroke="currentColor" stroke-linecap="round" stroke-linejoin="round" stroke-width="2"/>
  <path d="M18.3333 8.3334H15.8333" stroke="currentColor" stroke-linecap="round" stroke-linejoin="round" stroke-width="2"/>
  <path d="M4.1667 8.3334H1.6667" stroke="currentColor" stroke-linecap="round" stroke-linejoin="round" stroke-width="2"/>
  <path d="M7.8064 2.9232H12.1936C12.6409 2.9232 13.2507 2.8435 13.5638 3.2395 13.75 3.4749 13.75 3.8232 13.75 4.5197 13.75 4.9501 13.6683 5.0937 13.2608 5.2609L12.3616 5.6298C12.0194 5.7702 11.8483 5.8404 11.67 5.8328 11.0596 5.8067 10.6212 5.1611 10 5.1611 9.3788 5.1611 8.9404 5.8067 8.33 5.8328 8.1516 5.8404 7.9806 5.7702 7.6384 5.6298L6.7392 5.2609C6.3317 5.0937 6.25 4.9501 6.25 4.5197 6.25 3.8232 6.25 3.4749 6.4361 3.2395 6.7493 2.8435 7.3591 2.9232 7.8064 2.9232Z" stroke="currentColor" stroke-linecap="round" stroke-linejoin="round" stroke-width="2"/>
  <path d="M7.8064 11.6668H12.1936C12.6409 11.6668 13.2507 11.5871 13.5638 11.9831 13.75 12.2184 13.75 12.5668 13.75 13.2633 13.75 13.6937 13.6683 13.8372 13.2608 14.0044L12.3616 14.3733C12.0194 14.5137 11.8483 14.5839 11.67 14.5763 11.0596 14.5503 10.6212 13.9046 10 13.9046 9.3788 13.9046 8.9404 14.5503 8.33 14.5763 8.1516 14.5839 7.9806 14.5137 7.6384 14.3733L6.7392 14.0044C6.3317 13.8372 6.25 13.6937 6.25 13.2633 6.25 12.5668 6.25 12.2184 6.4361 11.9831 6.7493 11.5871 7.3591 11.6668 7.8064 11.6668Z" stroke="currentColor" stroke-linecap="round" stroke-linejoin="round" stroke-width="2"/>
  <path d="M2.8453 17.0118V15.7618C2.8453 14.1904 2.8453 13.4047 3.3335 12.9166 3.8216 12.4284 4.6073 12.4284 6.1786 12.4284M17.012 17.0118V15.7618C17.012 14.1904 17.012 13.4047 16.5238 12.9166 16.0357 12.4284 15.25 12.4284 13.6787 12.4284" stroke="currentColor" stroke-linecap="round" stroke-linejoin="round" stroke-width="2"/>
  <path d="M18.3333 17.0833H15.8333" stroke="currentColor" stroke-linecap="round" stroke-linejoin="round" stroke-width="2"/>
  <path d="M4.1667 17.0833H1.6667" stroke="currentColor" stroke-linecap="round" stroke-linejoin="round" stroke-width="2"/>
</svg>
