<svg xmlns="http://www.w3.org/2000/svg" width="20" height="20" viewBox="0 0 20 20" fill="none">
  <path d="M10.69 5.0008C10.7823 4.7399 10.8325 4.4592 10.8325 4.1667 10.8325 2.786 9.7133 1.6667 8.3325 1.6667 6.9518 1.6667 5.8325 2.786 5.8325 4.1667 5.8325 4.4592 5.8828 4.7399 5.9751 5.0008 4.0711 5.0077 3.055 5.0753 2.3981 5.7322 1.7413 6.3891 1.6736 7.405 1.6667 9.3087 1.9271 9.2167 2.2073 9.1667 2.4992 9.1667 3.8799 9.1667 4.9992 10.2859 4.9992 11.6667 4.9992 13.0474 3.8799 14.1667 2.4992 14.1667 2.2073 14.1667 1.9271 14.1167 1.6667 14.0247 1.6736 15.9283 1.7413 16.9443 2.3981 17.6011 3.0549 18.2579 4.0709 18.3256 5.9745 18.3325 5.8826 18.0721 5.8325 17.7919 5.8325 17.5 5.8325 16.1193 6.9518 15 8.3325 15 9.7133 15 10.8325 16.1193 10.8325 17.5 10.8325 17.7919 10.7825 18.0721 10.6906 18.3325 12.5942 18.3256 13.6102 18.2579 14.267 17.6011 14.9238 16.9442 14.9914 15.9281 14.9984 14.0242 15.2592 14.1164 15.54 14.1667 15.8325 14.1667 17.2132 14.1667 18.3325 13.0474 18.3325 11.6667 18.3325 10.2859 17.2132 9.1667 15.8325 9.1667 15.54 9.1667 15.2592 9.2169 14.9984 9.3092 14.9914 7.4052 14.9238 6.3891 14.267 5.7322 13.6101 5.0753 12.594 5.0077 10.69 5.0008Z" stroke="currentColor" stroke-linejoin="round" stroke-width="2"/>
</svg>
