<svg xmlns="http://www.w3.org/2000/svg" width="20" height="20" viewBox="0 0 20 20" fill="none">
  <path d="M10 1.6667C10.7518 1.6667 11.3958 2.2568 12.1563 3.331 12.9116 4.3981 13.2893 4.9316 13.0569 5.3825 12.8246 5.8333 12.1444 5.8333 10.7841 5.8333H9.2159C7.8556 5.8333 7.1754 5.8333 6.9431 5.3825 6.7107 4.9316 7.0884 4.3981 7.8437 3.331 8.6042 2.2568 9.2482 1.6667 10 1.6667Z" stroke="currentColor" stroke-linejoin="round" stroke-width="2"/>
  <path d="M4.8575 11.6667H15.1426C15.773 11.6667 16.0883 11.6667 16.2091 11.459 16.3298 11.2514 16.1743 10.9804 15.8633 10.4383 15.7798 10.2929 15.6961 10.1478 15.6122 10.0026 15.141 9.1878 14.9055 8.7804 14.5174 8.5569 14.1293 8.3333 13.6563 8.3333 12.7103 8.3333H7.2898C6.3437 8.3333 5.8706 8.3333 5.4826 8.5569 5.0945 8.7804 4.859 9.1878 4.3878 10.0026 4.3039 10.1478 4.2202 10.2929 4.1368 10.4383 3.8257 10.9804 3.6702 11.2514 3.791 11.459 3.9117 11.6667 4.227 11.6667 4.8575 11.6667Z" stroke="currentColor" stroke-linejoin="round" stroke-width="2"/>
  <path d="M6.8694 18.3333H13.1306C16.0916 18.3333 17.5722 18.3333 18.1393 17.4023 18.4953 16.8178 18.3443 16.1073 17.8267 15.0406 17.6262 14.6274 17.5259 14.4208 17.3231 14.2938 17.1202 14.1667 16.8749 14.1667 16.3844 14.1667H3.6156C3.1251 14.1667 2.8799 14.1667 2.677 14.2938 2.4741 14.4208 2.3738 14.6274 2.1733 15.0406 1.6557 16.1073 1.5047 16.8178 1.8608 17.4023 2.4279 18.3333 3.9084 18.3333 6.8694 18.3333Z" stroke="currentColor" stroke-linejoin="round" stroke-width="2"/>
</svg>
