<svg xmlns="http://www.w3.org/2000/svg" width="20" height="20" viewBox="0 0 20 20" fill="none">
  <path d="M10 1.6667V18.3333" stroke="currentColor" stroke-linecap="round" stroke-linejoin="round" stroke-width="2"/>
  <path d="M12.391 11.3966L18.3239 14.6553M18.3239 14.6553L18.3287 14.6579M18.3239 14.6553C18.3868 14.2912 18.1308 13.882 17.6555 13.1227L11.4869 3.2661C10.8196 2.1998 10.4859 1.6667 10 1.6667 9.5141 1.6667 9.1804 2.1998 8.5131 3.2661L2.3445 13.1227C1.8693 13.882 1.6132 14.2912 1.6761 14.6553M18.3239 14.6553C18.3187 14.686 18.3111 14.7164 18.3012 14.7467 18.1739 15.1356 17.7225 15.3159 16.8198 15.6765L10.6512 18.1407C10.3297 18.2691 10.1688 18.3333 10 18.3333 9.8312 18.3333 9.6704 18.2691 9.3488 18.1407L3.1802 15.6765C2.2775 15.3159 1.8261 15.1356 1.6988 14.7467 1.6889 14.7164 1.6814 14.686 1.6761 14.6553M1.6713 14.6579L1.6761 14.6553M1.6761 14.6553L7.609 11.3966" stroke="currentColor" stroke-linecap="round" stroke-linejoin="round" stroke-width="2"/>
</svg>
