<svg xmlns="http://www.w3.org/2000/svg" width="20" height="20" viewBox="0 0 20 20" fill="none">
  <path d="M14.5817 6.6667H13.3333V5.8333C13.3333 4.262 13.3333 3.4763 12.8452 2.9882 12.357 2.5 11.5713 2.5 10 2.5 8.4287 2.5 7.643 2.5 7.1548 2.9882 6.6667 3.4763 6.6667 4.262 6.6667 5.8333V7.5H5.415C4.2447 7.5 3.6595 7.5 3.2391 7.7809 3.0571 7.9025 2.9009 8.0587 2.7793 8.2407 2.4984 8.6611 2.4984 9.2462 2.4984 10.4167 2.4984 11.5871 2.4984 12.1723 2.7793 12.5926 2.9009 12.7746 3.0571 12.9308 3.2391 13.0524 3.6595 13.3333 4.2447 13.3333 5.415 13.3333H6.6667V14.1667C6.6667 15.738 6.6667 16.5237 7.1548 17.0118 7.643 17.5 8.4287 17.5 10 17.5 11.5713 17.5 12.357 17.5 12.8452 17.0118 13.3333 16.5237 13.3333 15.738 13.3333 14.1667V12.5H14.5817C15.7521 12.5 16.3373 12.5 16.7577 12.2191 16.9397 12.0975 17.0959 11.9413 17.2175 11.7593 17.4983 11.3389 17.4983 10.7538 17.4983 9.5833 17.4983 8.4129 17.4983 7.8278 17.2175 7.4074 17.0959 7.2254 16.9397 7.0691 16.7577 6.9475 16.3373 6.6667 15.7521 6.6667 14.5817 6.6667Z" stroke="currentColor" stroke-linecap="round" stroke-linejoin="round" stroke-width="2"/>
  <path d="M9.2707 5H9.1665M9.3748 5C9.3748 5.1151 9.2816 5.2083 9.1665 5.2083 9.0514 5.2083 8.9582 5.1151 8.9582 5 8.9582 4.8849 9.0514 4.7917 9.1665 4.7917 9.2816 4.7917 9.3748 4.8849 9.3748 5Z" stroke="currentColor" stroke-linecap="round" stroke-linejoin="round" stroke-width="2"/>
  <path d="M10.9375 15H10.8333M11.0417 15C11.0417 15.1151 10.9484 15.2083 10.8333 15.2083 10.7183 15.2083 10.625 15.1151 10.625 15 10.625 14.8849 10.7183 14.7917 10.8333 14.7917 10.9484 14.7917 11.0417 14.8849 11.0417 15Z" stroke="currentColor" stroke-linecap="round" stroke-linejoin="round" stroke-width="2"/>
  <path d="M13.3333 6.6667V8.3333C13.3333 9.119 13.3333 9.5118 13.0893 9.7559 12.8452 10 12.4523 10 11.6667 10H8.3333C7.5477 10 7.1548 10 6.9107 10.2441 6.6667 10.4882 6.6667 10.881 6.6667 11.6667V13.3333M10 12.5H13.3333M6.6667 7.5H10" stroke="currentColor" stroke-linecap="round" stroke-linejoin="round" stroke-width="2"/>
</svg>
