<svg xmlns="http://www.w3.org/2000/svg" width="20" height="20" viewBox="0 0 20 20" fill="none">
  <path d="M17.5 17.5H8.3333C5.5835 17.5 4.2085 17.5 3.3543 16.6458 2.5 15.7914 2.5 14.4165 2.5 11.6667V2.5" stroke="currentColor" stroke-linecap="round" stroke-linejoin="round" stroke-width="2"/>
  <path d="M3.75 16.2501L16.6667 3.3334" stroke="currentColor" stroke-linecap="round" stroke-linejoin="round" stroke-width="2"/>
  <path d="M11.1458 14.375H11.0417M11.25 14.375C11.25 14.4901 11.1568 14.5833 11.0417 14.5833 10.9266 14.5833 10.8333 14.4901 10.8333 14.375 10.8333 14.2599 10.9266 14.1667 11.0417 14.1667 11.1568 14.1667 11.25 14.2599 11.25 14.375Z" stroke="currentColor" stroke-linecap="round" stroke-linejoin="round" stroke-width="2"/>
  <path d="M16.1458 9.375H16.0417M16.25 9.375C16.25 9.4901 16.1568 9.5833 16.0417 9.5833 15.9266 9.5833 15.8333 9.4901 15.8333 9.375 15.8333 9.2599 15.9266 9.1667 16.0417 9.1667 16.1568 9.1667 16.25 9.2599 16.25 9.375Z" stroke="currentColor" stroke-linecap="round" stroke-linejoin="round" stroke-width="2"/>
  <path d="M11.9792 3.5417H11.875M12.0833 3.5417C12.0833 3.6567 11.9901 3.75 11.875 3.75 11.7599 3.75 11.6667 3.6567 11.6667 3.5417 11.6667 3.4266 11.7599 3.3333 11.875 3.3333 11.9901 3.3333 12.0833 3.4266 12.0833 3.5417Z" stroke="currentColor" stroke-linecap="round" stroke-linejoin="round" stroke-width="2"/>
  <path d="M7.8125 5.2083H7.7083M7.9167 5.2083C7.9167 5.3234 7.8234 5.4167 7.7083 5.4167 7.5933 5.4167 7.5 5.3234 7.5 5.2083 7.5 5.0933 7.5933 5 7.7083 5 7.8234 5 7.9167 5.0933 7.9167 5.2083Z" stroke="currentColor" stroke-linecap="round" stroke-linejoin="round" stroke-width="2"/>
  <path d="M6.1458 9.375H6.0417M6.25 9.375C6.25 9.4901 6.1567 9.5833 6.0417 9.5833 5.9266 9.5833 5.8333 9.4901 5.8333 9.375 5.8333 9.2599 5.9266 9.1667 6.0417 9.1667 6.1567 9.1667 6.25 9.2599 6.25 9.375Z" stroke="currentColor" stroke-linecap="round" stroke-linejoin="round" stroke-width="2"/>
</svg>
