<svg xmlns="http://www.w3.org/2000/svg" width="20" height="20" viewBox="0 0 20 20" fill="none">
  <path d="M2.0833 6.8223C2.1701 5.0725 2.4295 3.9816 3.2055 3.2055 3.9816 2.4295 5.0725 2.1701 6.8223 2.0833M17.9167 6.8223C17.8299 5.0725 17.5705 3.9816 16.7945 3.2055 16.0184 2.4295 14.9274 2.1701 13.1777 2.0833M13.1777 17.9167C14.9274 17.8299 16.0184 17.5705 16.7945 16.7945 17.5705 16.0184 17.8299 14.9274 17.9167 13.1777M6.8223 17.9167C5.0725 17.8299 3.9816 17.5705 3.2055 16.7945 2.4295 16.0184 2.1701 14.9274 2.0833 13.1777" stroke="currentColor" stroke-linecap="round" stroke-linejoin="round" stroke-width="2"/>
  <path d="M6.8622 10.7065C7.1685 10.8333 7.5568 10.8333 8.3333 10.8333 9.1099 10.8333 9.4982 10.8333 9.8045 10.7065 10.2128 10.5373 10.5373 10.2128 10.7065 9.8045 10.8333 9.4982 10.8333 9.1099 10.8333 8.3333 10.8333 7.5568 10.8333 7.1685 10.7065 6.8622 10.5373 6.4538 10.2128 6.1294 9.8045 5.9602 9.4982 5.8333 9.1099 5.8333 8.3333 5.8333 7.5568 5.8333 7.1685 5.8333 6.8622 5.9602 6.4538 6.1294 6.1294 6.4538 5.9602 6.8622 5.8333 7.1685 5.8333 7.5568 5.8333 8.3333 5.8333 9.1099 5.8333 9.4982 5.9602 9.8045 6.1294 10.2128 6.4538 10.5373 6.8622 10.7065Z" stroke="currentColor" stroke-linecap="round" stroke-linejoin="round" stroke-width="2"/>
  <path d="M14.1667 5.8333V5.8417" stroke="currentColor" stroke-linecap="round" stroke-linejoin="round" stroke-width="2"/>
  <path d="M14.1667 9.1667V10.8333C14.1667 12.4047 14.1667 13.1903 13.6785 13.6785 13.1903 14.1667 12.4047 14.1667 10.8333 14.1667" stroke="currentColor" stroke-linecap="round" stroke-linejoin="round" stroke-width="2"/>
  <path d="M7.5 14.1667H5.8333" stroke="currentColor" stroke-linecap="round" stroke-linejoin="round" stroke-width="2"/>
</svg>
