<svg xmlns="http://www.w3.org/2000/svg" width="20" height="20" viewBox="0 0 20 20" fill="none">
  <path d="M5.6607 5.6607C5.4167 5.9048 5.4167 6.2977 5.4167 7.0833 5.4167 7.869 5.4167 8.2618 5.6607 8.5059 5.9048 8.75 6.2977 8.75 7.0833 8.75 7.869 8.75 8.2618 8.75 8.5059 8.5059 8.75 8.2618 8.75 7.869 8.75 7.0833 8.75 6.2977 8.75 5.9048 8.5059 5.6607 8.2618 5.4167 7.869 5.4167 7.0833 5.4167 6.2977 5.4167 5.9048 5.4167 5.6607 5.6607Z" stroke="currentColor" stroke-linecap="round" stroke-linejoin="round" stroke-width="2"/>
  <path d="M11.25 8.75C12.0357 8.75 12.4285 8.75 12.6726 8.5059 12.9167 8.2618 12.9167 7.869 12.9167 7.0833 12.9167 6.2977 12.9167 5.9048 13.1608 5.6607 13.4048 5.4167 13.7977 5.4167 14.5833 5.4167" stroke="currentColor" stroke-linecap="round" stroke-linejoin="round" stroke-width="2"/>
  <path d="M5.4167 11.25H7.0833C7.869 11.25 8.2618 11.25 8.5059 11.4941 8.75 11.7382 8.75 12.131 8.75 12.9167V14.5833" stroke="currentColor" stroke-linecap="round" stroke-linejoin="round" stroke-width="2"/>
  <path d="M5.7292 14.375H5.625M5.8333 14.375C5.8333 14.4901 5.7401 14.5833 5.625 14.5833 5.5099 14.5833 5.4167 14.4901 5.4167 14.375 5.4167 14.2599 5.5099 14.1667 5.625 14.1667 5.7401 14.1667 5.8333 14.2599 5.8333 14.375Z" stroke="currentColor" stroke-linecap="round" stroke-linejoin="round" stroke-width="2"/>
  <path d="M11.4941 11.4941C11.25 11.7382 11.25 12.131 11.25 12.9167 11.25 13.7023 11.25 14.0952 11.4941 14.3393 11.7382 14.5833 12.131 14.5833 12.9167 14.5833 13.7023 14.5833 14.0952 14.5833 14.3393 14.3393 14.5833 14.0952 14.5833 13.7023 14.5833 12.9167 14.5833 12.131 14.5833 11.7382 14.3393 11.4941 14.0952 11.25 13.7023 11.25 12.9167 11.25 12.131 11.25 11.7382 11.25 11.4941 11.4941Z" stroke="currentColor" stroke-linecap="round" stroke-linejoin="round" stroke-width="2"/>
  <path d="M5.4167 17.9167C5.0297 17.9167 4.8362 17.9167 4.6734 17.8983 3.3212 17.746 2.254 16.6788 2.1017 15.3266 2.0833 15.1638 2.0833 14.9703 2.0833 14.5833M14.5833 17.9167C14.9703 17.9167 15.1638 17.9167 15.3266 17.8983 16.6788 17.746 17.746 16.6788 17.8983 15.3266 17.9167 15.1638 17.9167 14.9703 17.9167 14.5833M5.4167 2.0833C5.0297 2.0833 4.8362 2.0833 4.6734 2.1017 3.3212 2.254 2.254 3.3212 2.1017 4.6734 2.0833 4.8362 2.0833 5.0297 2.0833 5.4167M14.5833 2.0833C14.9703 2.0833 15.1638 2.0833 15.3266 2.1017 16.6788 2.254 17.746 3.3212 17.8983 4.6734 17.9167 4.8362 17.9167 5.0297 17.9167 5.4167" stroke="currentColor" stroke-linecap="round" stroke-linejoin="round" stroke-width="2"/>
</svg>
