<svg xmlns="http://www.w3.org/2000/svg" width="20" height="20" viewBox="0 0 20 20" fill="none">
  <path d="M2.5 5C2.5 3.8215 2.5 3.2322 2.8661 2.8661 3.2322 2.5 3.8215 2.5 5 2.5 6.1785 2.5 6.7678 2.5 7.1339 2.8661 7.5 3.2322 7.5 3.8215 7.5 5 7.5 6.1785 7.5 6.7678 7.1339 7.1339 6.7678 7.5 6.1785 7.5 5 7.5 3.8215 7.5 3.2322 7.5 2.8661 7.1339 2.5 6.7678 2.5 6.1785 2.5 5Z" stroke="currentColor" stroke-width="2"/>
  <path d="M2.5 15C2.5 13.8215 2.5 13.2323 2.8661 12.8661 3.2322 12.5 3.8215 12.5 5 12.5 6.1785 12.5 6.7678 12.5 7.1339 12.8661 7.5 13.2323 7.5 13.8215 7.5 15 7.5 16.1785 7.5 16.7678 7.1339 17.1339 6.7678 17.5 6.1785 17.5 5 17.5 3.8215 17.5 3.2322 17.5 2.8661 17.1339 2.5 16.7678 2.5 16.1785 2.5 15Z" stroke="currentColor" stroke-width="2"/>
  <path d="M2.5 10L7.5 10" stroke="currentColor" stroke-linecap="round" stroke-linejoin="round" stroke-width="2"/>
  <path d="M10 2.5V6.6667" stroke="currentColor" stroke-linecap="round" stroke-linejoin="round" stroke-width="2"/>
  <path d="M12.5 5C12.5 3.8215 12.5 3.2322 12.8661 2.8661 13.2323 2.5 13.8215 2.5 15 2.5 16.1785 2.5 16.7678 2.5 17.1339 2.8661 17.5 3.2322 17.5 3.8215 17.5 5 17.5 6.1785 17.5 6.7678 17.1339 7.1339 16.7678 7.5 16.1785 7.5 15 7.5 13.8215 7.5 13.2323 7.5 12.8661 7.1339 12.5 6.7678 12.5 6.1785 12.5 5Z" stroke="currentColor" stroke-width="2"/>
  <path d="M17.5 10H12.5C11.3215 10 10.7323 10 10.3661 10.3661 10 10.7323 10 11.3215 10 12.5M10 14.8077V17.1154M12.5 12.5V13.75C12.5 14.9553 13.1531 15 14.1667 15 14.6269 15 15 15.3731 15 15.8333M13.3333 17.5H12.5M15 12.5C16.1785 12.5 16.7678 12.5 17.1339 12.8667 17.5 13.2332 17.5 13.8234 17.5 15.0036 17.5 16.1838 17.5 16.7739 17.1339 17.1406 16.8667 17.4082 16.4806 17.4805 15.8333 17.5" stroke="currentColor" stroke-linecap="round" stroke-width="2"/>
</svg>
