<svg xmlns="http://www.w3.org/2000/svg" width="20" height="20" viewBox="0 0 20 20" fill="none">
  <path d="M12.8333 6.2495H12.7917M15.5833 6.2497H15.5417M12.875 6.2495C12.875 6.2956 12.8377 6.3329 12.7917 6.3329 12.7457 6.3329 12.7083 6.2956 12.7083 6.2495 12.7083 6.2035 12.7457 6.1662 12.7917 6.1662 12.8377 6.1662 12.875 6.2035 12.875 6.2495ZM15.625 6.2497C15.625 6.2957 15.5877 6.333 15.5417 6.333 15.4957 6.333 15.4583 6.2957 15.4583 6.2497 15.4583 6.2036 15.4957 6.1663 15.5417 6.1663 15.5877 6.1663 15.625 6.2036 15.625 6.2497Z" stroke="currentColor" stroke-linecap="round" stroke-linejoin="round" stroke-width="2"/>
  <path d="M14.1667 10.4723C16.4676 10.4723 18.3333 8.6875 18.3333 6.4862 18.3333 4.2848 16.4676 2.5 14.1667 2.5 11.8658 2.5 10 4.2848 10 6.4862 10 7.5438 10.4306 8.5048 11.1328 9.218 11.2875 9.375 11.3908 9.5895 11.3491 9.8103 11.2803 10.1713 11.1245 10.5081 10.8963 10.7888 11.4967 10.9004 12.1209 10.7998 12.6563 10.5152L12.6568 10.5149C12.8457 10.4144 12.9402 10.3642 13.0069 10.354 13.0737 10.3438 13.1693 10.3618 13.3606 10.3977 13.6263 10.4476 13.8961 10.4726 14.1667 10.4723Z" stroke="currentColor" stroke-linecap="round" stroke-linejoin="round" stroke-width="2"/>
  <path d="M8.3333 10.8333C8.3333 12.2141 7.214 13.3333 5.8333 13.3333 4.4526 13.3333 3.3333 12.2141 3.3333 10.8333 3.3333 9.4527 4.4526 8.3333 5.8333 8.3333 7.214 8.3333 8.3333 9.4527 8.3333 10.8333Z" stroke="currentColor" stroke-linecap="round" stroke-linejoin="round" stroke-width="2"/>
  <path d="M10 17.5C10 15.1988 8.1345 13.3333 5.8333 13.3333 3.5322 13.3333 1.6667 15.1988 1.6667 17.5" stroke="currentColor" stroke-linecap="round" stroke-linejoin="round" stroke-width="2"/>
</svg>
