<svg xmlns="http://www.w3.org/2000/svg" width="20" height="20" viewBox="0 0 20 20" fill="none">
  <path d="M8.7918 2.5C5.5815 2.5058 3.9004 2.5846 2.8261 3.6589 1.6667 4.8184 1.6667 6.6844 1.6667 10.4164 1.6667 14.1485 1.6667 16.0145 2.8261 17.1739 3.9855 18.3333 5.8515 18.3333 9.5836 18.3333 13.3156 18.3333 15.1817 18.3333 16.3411 17.1739 17.4154 16.0996 17.4943 14.4185 17.5 11.2082" stroke="currentColor" stroke-linecap="round" stroke-linejoin="round" stroke-width="2"/>
  <path d="M9.213 10.8333C8.6102 3.222 14.0019 1.063 18.3171 1.8037 18.4913 4.3261 17.2571 5.2707 14.9066 5.7069 15.3605 6.1811 16.1625 6.778 16.076 7.524 16.0144 8.0549 15.6538 8.3154 14.9328 8.8363 13.3526 9.978 11.522 10.6979 9.213 10.8333Z" stroke="currentColor" stroke-linecap="round" stroke-linejoin="round" stroke-width="2"/>
  <path d="M7.5 14.1667C9.1667 9.5833 10.8003 8.0303 12.5 6.6667" stroke="currentColor" stroke-linecap="round" stroke-linejoin="round" stroke-width="2"/>
</svg>
