<svg xmlns="http://www.w3.org/2000/svg" width="20" height="20" viewBox="0 0 20 20" fill="none">
  <path d="M10 1.6667C6.5482 1.6667 3.75 4.4649 3.75 7.9167 3.75 9.8467 4.6248 11.5723 5.9995 12.7188 6.8251 13.4074 7.5 14.3415 7.5 15.4167H12.5C12.5 14.3415 13.1748 13.4074 14.0006 12.7188 15.3752 11.5723 16.25 9.8467 16.25 7.9167 16.25 4.4649 13.4518 1.6667 10 1.6667Z" stroke="currentColor" stroke-width="2"/>
  <path d="M12.5 15.4167H7.5V17.0833C7.5 17.7737 8.0596 18.3333 8.75 18.3333H11.25C11.9403 18.3333 12.5 17.7737 12.5 17.0833V15.4167Z" stroke="currentColor" stroke-linejoin="round" stroke-width="2"/>
  <path d="M8.3333 6.6667C8.3333 5.8229 9.0795 5 10 5 10.9205 5 11.6667 5.684 11.6667 6.5278 11.6667 6.8319 11.5697 7.1153 11.4026 7.3534 10.9045 8.0629 10 8.7396 10 9.5833" stroke="currentColor" stroke-linecap="round" stroke-width="2"/>
  <path d="M9.9933 11.6667H10.0008" stroke="currentColor" stroke-linecap="round" stroke-linejoin="round" stroke-width="2"/>
</svg>
