<svg xmlns="http://www.w3.org/2000/svg" width="20" height="20" viewBox="0 0 20 20" fill="none">
  <path d="M7.0833 6.25C7.0833 5.4062 7.8295 4.5833 8.75 4.5833 9.6705 4.5833 10.4167 5.2673 10.4167 6.1111 10.4167 6.4153 10.3197 6.6986 10.1526 6.9367 9.6545 7.6463 8.75 8.3229 8.75 9.1667" stroke="currentColor" stroke-linecap="round" stroke-width="2"/>
  <path d="M8.75 11.25H8.7575" stroke="currentColor" stroke-linecap="round" stroke-linejoin="round" stroke-width="2"/>
  <path d="M6.6667 16.25C7.542 16.9748 8.5954 17.4365 9.8029 17.5157 10.7543 17.5781 11.7476 17.578 12.6971 17.5157 13.024 17.4943 13.3804 17.4173 13.6873 17.2925 14.0287 17.1537 14.1996 17.0843 14.2864 17.0948 14.3732 17.1053 14.4991 17.197 14.7509 17.3803 15.1949 17.7033 15.7543 17.9354 16.5838 17.9155 17.0032 17.9054 17.2129 17.9003 17.3068 17.7424 17.4007 17.5844 17.2838 17.3657 17.0498 16.9284 16.7255 16.3218 16.52 15.6274 16.8314 15.071 17.3678 14.2762 17.8232 13.3351 17.8898 12.3186 17.9256 11.7724 17.9256 11.2068 17.8898 10.6606 17.8455 9.9833 17.6811 9.3394 17.4177 8.75" stroke="currentColor" stroke-linecap="round" stroke-linejoin="round" stroke-width="2"/>
  <path d="M10.1971 14.1823C12.9858 13.9994 15.2071 11.7763 15.3898 8.9853 15.4256 8.4391 15.4256 7.8734 15.3898 7.3272 15.2071 4.5362 12.9858 2.313 10.1971 2.1301 9.2457 2.0677 8.2524 2.0678 7.3029 2.1301 4.5143 2.313 2.2929 4.5362 2.1102 7.3272 2.0744 7.8734 2.0744 8.4391 2.1102 8.9853 2.1767 10.0018 2.6323 10.9429 3.1686 11.7377 3.48 12.2941 3.2745 12.9885 2.9501 13.5951 2.7163 14.0324 2.5993 14.2511 2.6932 14.4091 2.7871 14.567 2.9968 14.5721 3.4163 14.5822 4.2458 14.6021 4.8051 14.37 5.2491 14.0469 5.5009 13.8637 5.6268 13.772 5.7136 13.7615 5.8004 13.751 5.9712 13.8204 6.3127 13.9592 6.6196 14.0839 6.976 14.1609 7.3029 14.1823 8.2524 14.2447 9.2457 14.2447 10.1971 14.1823Z" stroke="currentColor" stroke-linejoin="round" stroke-width="2"/>
</svg>
