<svg xmlns="http://www.w3.org/2000/svg" width="20" height="20" viewBox="0 0 20 20" fill="none">
  <path d="M17.0833 11.6667V8.75C17.0833 6.8045 17.0833 5.8317 16.6898 5.0953 16.379 4.5139 15.9028 4.0377 15.3213 3.7269 14.5849 3.3333 13.6122 3.3333 11.6667 3.3333 11.6667 2.4129 10.9205 1.6667 10 1.6667 9.0795 1.6667 8.3333 2.4129 8.3333 3.3333 6.3878 3.3333 5.415 3.3333 4.6787 3.7269 4.0972 4.0377 3.621 4.5139 3.3103 5.0953 2.9167 5.8317 2.9167 6.8045 2.9167 8.75V11.6667C2.9167 14.8093 2.9167 16.3808 3.893 17.357 4.8693 18.3333 6.4406 18.3333 9.5833 18.3333H10.4167C13.5593 18.3333 15.1308 18.3333 16.107 17.357 17.0833 16.3808 17.0833 14.8093 17.0833 11.6667Z" stroke="currentColor" stroke-linecap="square" stroke-linejoin="round" stroke-width="2"/>
  <path d="M5.4167 8.3333L8.75 8.3333" stroke="currentColor" stroke-linecap="round" stroke-width="2"/>
  <path d="M11.25 9.1667C11.25 9.1667 11.6667 9.1667 12.0833 10 12.0833 10 13.4068 7.9167 14.5833 7.5" stroke="currentColor" stroke-linecap="round" stroke-linejoin="round" stroke-width="2"/>
  <path d="M5.4167 13.3333L8.75 13.3333" stroke="currentColor" stroke-linecap="round" stroke-width="2"/>
  <path d="M11.25 14.1667C11.25 14.1667 11.6667 14.1667 12.0833 15 12.0833 15 13.4068 12.9167 14.5833 12.5" stroke="currentColor" stroke-linecap="round" stroke-linejoin="round" stroke-width="2"/>
</svg>
