<svg xmlns="http://www.w3.org/2000/svg" width="20" height="20" viewBox="0 0 20 20" fill="none">
  <path d="M8.7137 2.2001C9.4238 1.4889 10.5762 1.4889 11.2863 2.2001L12.1275 3.0426C12.4688 3.3845 12.9322 3.5764 13.4152 3.576L14.6058 3.5751C15.6108 3.5742 16.4258 4.3892 16.4249 5.3942L16.424 6.5847C16.4236 7.0678 16.6155 7.5312 16.9574 7.8725L17.7999 8.7137C18.5112 9.4238 18.5112 10.5762 17.7999 11.2863L16.9574 12.1275C16.6155 12.4688 16.4236 12.9322 16.424 13.4152L16.4249 14.6058C16.4258 15.6108 15.6108 16.4258 14.6058 16.4249L13.4152 16.424C12.9322 16.4236 12.4688 16.6155 12.1275 16.9574L11.2863 17.7999C10.5762 18.5112 9.4238 18.5112 8.7137 17.7999L7.8725 16.9574C7.5312 16.6155 7.0678 16.4236 6.5847 16.424L5.3942 16.4249C4.3892 16.4258 3.5742 15.6108 3.5751 14.6058L3.576 13.4152C3.5764 12.9322 3.3845 12.4688 3.0426 12.1275L2.2001 11.2863C1.4889 10.5762 1.4889 9.4238 2.2001 8.7137L3.0426 7.8725C3.3845 7.5312 3.5764 7.0678 3.576 6.5847L3.5751 5.3942C3.5742 4.3892 4.3892 3.5742 5.3942 3.5751L6.5847 3.576C7.0678 3.5764 7.5312 3.3845 7.8725 3.0426L8.7137 2.2001Z" stroke="currentColor" stroke-width="2"/>
  <path d="M8.3333 7.5C8.3333 6.5795 9.0795 5.8333 10 5.8333 10.9205 5.8333 11.6667 6.5795 11.6667 7.5 11.6667 7.8318 11.5697 8.1409 11.4026 8.4007 10.9045 9.1748 10 9.9128 10 10.8333V11.25M10.1037 13.9583H9.9995M10.2078 13.9583C10.2078 14.0734 10.1146 14.1667 9.9995 14.1667 9.8844 14.1667 9.7912 14.0734 9.7912 13.9583 9.7912 13.8432 9.8844 13.75 9.9995 13.75 10.1146 13.75 10.2078 13.8432 10.2078 13.9583Z" stroke="currentColor" stroke-linecap="round" stroke-linejoin="round" stroke-width="2"/>
</svg>
