<svg xmlns="http://www.w3.org/2000/svg" width="20" height="20" viewBox="0 0 20 20" fill="none">
  <path d="M14.2901 18.3334C16.6975 18.3334 17.5 16.398 17.5 14.0105 16.6975 14.8747 14.4726 16.6829 13.4877 13.1458 12.2839 8.823 8.75 9.5833 6.6667 11.6667 9.8766 11.6667 10.3189 12.4145 11.0803 14.8751 11.8827 17.4688 13.0864 18.3334 14.2901 18.3334Z" stroke="currentColor" stroke-linejoin="round" stroke-width="2"/>
  <path d="M5.4295 9.1667C5.421 9.0293 5.4167 8.8903 5.4167 8.75 5.4167 5.9886 7.0956 3.75 9.1667 3.75 11.2378 3.75 12.9167 5.9886 12.9167 8.75 12.9167 9.4935 12.7183 10.1991 12.5 10.8333" stroke="currentColor" stroke-linecap="round" stroke-width="2"/>
  <path d="M11.0344 15.5516C10.4417 15.735 9.815 15.8333 9.1667 15.8333 5.4848 15.8333 2.5 12.662 2.5 8.75 2.5 4.838 5.4848 1.6667 9.1667 1.6667 12.8486 1.6667 15.8333 4.838 15.8333 8.75 15.8333 9.7897 15.6225 10.7772 15.2438 11.6667" stroke="currentColor" stroke-linecap="round" stroke-linejoin="round" stroke-width="2"/>
</svg>
