<svg xmlns="http://www.w3.org/2000/svg" width="20" height="20" viewBox="0 0 20 20" fill="none">
  <path d="M11.6667 13.3333C11.6667 11.762 11.6667 10.9763 12.1548 10.4882 12.643 10 13.4287 10 15 10 16.5713 10 17.357 10 17.8452 10.4882 18.3333 10.9763 18.3333 11.762 18.3333 13.3333 18.3333 14.9047 18.3333 15.6903 17.8452 16.1785 17.357 16.6667 16.5713 16.6667 15 16.6667 13.4287 16.6667 12.643 16.6667 12.1548 16.1785 11.6667 15.6903 11.6667 14.9047 11.6667 13.3333Z" stroke="currentColor" stroke-width="2"/>
  <path d="M11.6667 13.3333V9.8855C11.6667 6.8297 13.7631 4.2382 16.6667 3.3333" stroke="currentColor" stroke-linecap="round" stroke-width="2"/>
  <path d="M1.6667 13.3333C1.6667 11.762 1.6667 10.9763 2.1548 10.4882 2.643 10 3.4286 10 5 10 6.5714 10 7.357 10 7.8452 10.4882 8.3333 10.9763 8.3333 11.762 8.3333 13.3333 8.3333 14.9047 8.3333 15.6903 7.8452 16.1785 7.357 16.6667 6.5714 16.6667 5 16.6667 3.4286 16.6667 2.643 16.6667 2.1548 16.1785 1.6667 15.6903 1.6667 14.9047 1.6667 13.3333Z" stroke="currentColor" stroke-width="2"/>
  <path d="M1.6667 13.3333V9.8855C1.6667 6.8297 3.7631 4.2382 6.6667 3.3333" stroke="currentColor" stroke-linecap="round" stroke-width="2"/>
</svg>
