<svg xmlns="http://www.w3.org/2000/svg" width="20" height="20" viewBox="0 0 20 20" fill="none">
  <path d="M8.3333 6.6667C8.3333 8.238 8.3333 9.0237 7.8452 9.5118 7.357 10 6.5714 10 5 10 3.4286 10 2.643 10 2.1548 9.5118 1.6667 9.0237 1.6667 8.238 1.6667 6.6667 1.6667 5.0953 1.6667 4.3096 2.1548 3.8215 2.643 3.3333 3.4286 3.3333 5 3.3333 6.5714 3.3333 7.357 3.3333 7.8452 3.8215 8.3333 4.3096 8.3333 5.0953 8.3333 6.6667Z" stroke="currentColor" stroke-width="2"/>
  <path d="M8.3333 5.8333L8.3333 9.5684C8.3333 12.8789 6.2369 15.6864 3.3333 16.6667" stroke="currentColor" stroke-linecap="round" stroke-width="2"/>
  <path d="M18.3333 6.6667C18.3333 8.238 18.3333 9.0237 17.8452 9.5118 17.357 10 16.5713 10 15 10 13.4287 10 12.643 10 12.1548 9.5118 11.6667 9.0237 11.6667 8.238 11.6667 6.6667 11.6667 5.0953 11.6667 4.3096 12.1548 3.8215 12.643 3.3333 13.4287 3.3333 15 3.3333 16.5713 3.3333 17.357 3.3333 17.8452 3.8215 18.3333 4.3096 18.3333 5.0953 18.3333 6.6667Z" stroke="currentColor" stroke-width="2"/>
  <path d="M18.3333 5.8333L18.3333 9.5684C18.3333 12.8789 16.2369 15.6864 13.3333 16.6667" stroke="currentColor" stroke-linecap="round" stroke-width="2"/>
</svg>
