<svg xmlns="http://www.w3.org/2000/svg" width="20" height="20" viewBox="0 0 20 20" fill="none">
  <path d="M16.3729 4.5306L15.8246 3.6618C15.521 3.1809 15.3692 2.9404 15.1703 2.9182 14.9714 2.8959 14.7494 3.1241 14.3053 3.5806 12.8703 5.0557 11.4351 4.8378 10 7.4903 8.5649 4.8378 7.1298 5.0557 5.6946 3.5806 5.2506 3.1241 5.0286 2.8959 4.8297 2.9182 4.6308 2.9404 4.479 3.1809 4.1754 3.6618L3.6271 4.5306C3.4152 4.8662 3.3093 5.034 3.3379 5.2107 3.3666 5.3873 3.5194 5.5083 3.8249 5.7504L8.977 9.8314C9.4695 10.2216 9.7158 10.4167 10 10.4167 10.2842 10.4167 10.5305 10.2216 11.023 9.8314L16.1751 5.7504C16.4807 5.5083 16.6334 5.3873 16.6621 5.2107 16.6907 5.034 16.5848 4.8662 16.3729 4.5306Z" stroke="currentColor" stroke-linecap="round" stroke-linejoin="round" stroke-width="2"/>
  <path d="M18.3333 7.0833L5 17.0833V13.1702M1.6667 7.0833L15 17.0833V13.1702" stroke="currentColor" stroke-linecap="round" stroke-linejoin="round" stroke-width="2"/>
</svg>
