<svg xmlns="http://www.w3.org/2000/svg" width="20" height="20" viewBox="0 0 20 20" fill="none">
  <path d="M7.5 1.6667H10.4167L11.6667 3.75H15.9417L17.0833 5.8333M18.3333 12.0833L16.9621 14.3025H14.8985L12.5001 18.3333H9.8188M4.1667 16.6667L2.9167 14.5833 3.75 12.0833 1.6667 7.9167 3.3333 5.8333" stroke="currentColor" stroke-linecap="round" stroke-linejoin="round" stroke-width="2"/>
  <path d="M15.9918 8.0518L17.0834 5.834H8.3333L9.1667 4.167 7.5 1.667 5.6239 5.834H3.3334L7.5 14.167H5L4.1666 16.667H8.75L9.793 18.3337 14.5014 10.0549 15.7834 12.0837H18.3333L15.9918 8.0518Z" stroke="currentColor" stroke-linecap="round" stroke-linejoin="round" stroke-width="2"/>
  <path d="M10.0001 12.9167L7.5 8.3333H12.5001L10.0001 12.9167Z" stroke="currentColor" stroke-linecap="round" stroke-linejoin="round" stroke-width="2"/>
</svg>
