<svg xmlns="http://www.w3.org/2000/svg" width="20" height="20" viewBox="0 0 20 20" fill="none">
  <path d="M13.8302 13.8302C11.7148 15.9455 8.2852 15.9455 6.1698 13.8302 4.0545 11.7148 4.0545 8.2852 6.1698 6.1698 7.4401 4.8996 9.1843 4.3921 10.8333 4.6474" stroke="currentColor" stroke-linecap="round" stroke-width="2"/>
  <path d="M10 10L14.1248 5.8752C14.9858 5.0142 15.4163 4.5837 15.3223 3.9598 15.2283 3.3358 14.7818 3.0998 13.8889 2.6279 12.728 2.0142 11.4046 1.6667 10 1.6667 5.3976 1.6667 1.6667 5.3976 1.6667 10 1.6667 14.6023 5.3976 18.3333 10 18.3333 14.6023 18.3333 18.3333 14.6023 18.3333 10 18.3333 8.8148 18.0859 7.6874 17.6399 6.6667" stroke="currentColor" stroke-linecap="round" stroke-width="2"/>
</svg>
