<svg xmlns="http://www.w3.org/2000/svg" width="20" height="20" viewBox="0 0 20 20" fill="none">
  <path d="M18.3333 10C18.3333 5.3976 14.6023 1.6667 10 1.6667 5.3976 1.6667 1.6667 5.3976 1.6667 10 1.6667 14.6023 5.3976 18.3333 10 18.3333 14.6023 18.3333 18.3333 14.6023 18.3333 10Z" stroke="currentColor" stroke-width="2"/>
  <path d="M15 10C15 12.7614 12.7614 15 10 15 7.2386 15 5 12.7614 5 10 5 7.2386 7.2386 5 10 5 10.7834 5 11.5247 5.1802 12.1848 5.5013 12.7788 5.7904 13.0759 5.9349 13.147 6.3584 13.2181 6.7819 12.9311 7.069 12.357 7.643L10 10" stroke="currentColor" stroke-linecap="round" stroke-linejoin="round" stroke-width="2"/>
</svg>
