<svg xmlns="http://www.w3.org/2000/svg" width="20" height="20" viewBox="0 0 20 20" fill="none">
  <path d="M10 11.25C10.6903 11.25 11.25 10.6903 11.25 10 11.25 9.3097 10.6903 8.75 10 8.75 9.3097 8.75 8.75 9.3097 8.75 10 8.75 10.6903 9.3097 11.25 10 11.25Z" stroke="currentColor" stroke-linecap="round" stroke-linejoin="round" stroke-width="2"/>
  <path d="M10 5C7.2386 5 5 7.2386 5 10 5 12.7614 7.2386 15 10 15 12.7614 15 15 12.7614 15 10 15 8.6193 14.4403 7.3693 13.5355 6.4645" stroke="currentColor" stroke-linecap="round" stroke-linejoin="round" stroke-width="2"/>
  <path d="M10 1.6667C5.3976 1.6667 1.6667 5.3976 1.6667 10 1.6667 14.6023 5.3976 18.3333 10 18.3333 14.6023 18.3333 18.3333 14.6023 18.3333 10 18.3333 7.6988 17.4006 5.6155 15.8926 4.1074L10 10" stroke="currentColor" stroke-linecap="round" stroke-linejoin="round" stroke-width="2"/>
</svg>
