<svg xmlns="http://www.w3.org/2000/svg" width="20" height="20" viewBox="0 0 20 20" fill="none">
  <circle cx="12.083333333333334" cy="11.25" r="2.916666666666667" stroke="currentColor" stroke-width="2"/>
  <path d="M1.6667 11.25C1.6667 8.1179 1.6667 6.5518 2.544 5.5062 2.6843 5.339 2.839 5.1843 3.0062 5.044 4.0518 4.1667 5.6178 4.1667 8.75 4.1667H11.25C14.3822 4.1667 15.9482 4.1667 16.9937 5.044 17.161 5.1843 17.3157 5.339 17.456 5.5062 18.3333 6.5518 18.3333 8.1179 18.3333 11.25 18.3333 14.3822 18.3333 15.9482 17.456 16.9937 17.3157 17.161 17.161 17.3157 16.9937 17.456 15.9482 18.3333 14.3822 18.3333 11.25 18.3333H8.75C5.6178 18.3333 4.0518 18.3333 3.0062 17.456 2.839 17.3157 2.6843 17.161 2.544 16.9937 1.6667 15.9482 1.6667 14.3822 1.6667 11.25Z" stroke="currentColor" stroke-linecap="round" stroke-linejoin="round" stroke-width="2"/>
  <path d="M8.3333 4.1667L11.6667 1.6667" stroke="currentColor" stroke-linecap="round" stroke-width="2"/>
  <path d="M5 10H5.8333M5 12.5H5.8333" stroke="currentColor" stroke-linecap="round" stroke-width="2"/>
</svg>
