<svg xmlns="http://www.w3.org/2000/svg" width="20" height="20" viewBox="0 0 20 20" fill="none">
  <path d="M11.6667 5H8.3333C5.1906 5 3.6193 5 2.643 5.9763 1.6667 6.9526 1.6667 8.524 1.6667 11.6667 1.6667 14.8093 1.6667 16.3808 2.643 17.357 3.6193 18.3333 5.1906 18.3333 8.3333 18.3333H11.6667C14.8093 18.3333 16.3808 18.3333 17.357 17.357 18.3333 16.3808 18.3333 14.8093 18.3333 11.6667 18.3333 8.524 18.3333 6.9526 17.357 5.9763 16.3808 5 14.8093 5 11.6667 5Z" stroke="currentColor" stroke-linecap="round" stroke-linejoin="round" stroke-width="2"/>
  <path d="M14.5529 10.0002C15.4733 11.5943 14.9271 13.6326 13.3331 14.5529 11.739 15.4733 9.7008 14.9271 8.7804 13.3331M14.5529 10.0002C13.6326 8.4063 11.5943 7.8601 10.0002 8.7804 8.4063 9.7008 7.8601 11.739 8.7804 13.3331M14.5529 10.0002L8.7804 13.3331" stroke="currentColor" stroke-linecap="round" stroke-linejoin="round" stroke-width="2"/>
  <path d="M14.1667 1.6667L5.4167 5" stroke="currentColor" stroke-linecap="round" stroke-linejoin="round" stroke-width="2"/>
  <path d="M5.1042 8.3333H5M5.2083 8.3333C5.2083 8.4484 5.1151 8.5417 5 8.5417 4.8849 8.5417 4.7917 8.4484 4.7917 8.3333 4.7917 8.2183 4.8849 8.125 5 8.125 5.1151 8.125 5.2083 8.2183 5.2083 8.3333Z" stroke="currentColor" stroke-linecap="round" stroke-linejoin="round" stroke-width="2"/>
</svg>
