<svg xmlns="http://www.w3.org/2000/svg" width="20" height="20" viewBox="0 0 20 20" fill="none">
  <path d="M1.6667 10.8333C1.6667 8.0835 1.6667 6.7085 2.3989 5.8543 3.1311 5 4.3096 5 6.6667 5H13.3333C15.6903 5 16.8688 5 17.6011 5.8543 18.3333 6.7085 18.3333 8.0835 18.3333 10.8333 18.3333 13.5832 18.3333 14.9581 17.6011 15.8124 16.8688 16.6667 15.6903 16.6667 13.3333 16.6667H6.6667C4.3096 16.6667 3.1311 16.6667 2.3989 15.8124 1.6667 14.9581 1.6667 13.5832 1.6667 10.8333Z" stroke="currentColor" stroke-linecap="round" stroke-linejoin="round" stroke-width="2"/>
  <path d="M5 16.6667V18.3333M15 16.6667V18.3333" stroke="currentColor" stroke-linecap="round" stroke-linejoin="round" stroke-width="2"/>
  <path d="M4.1667 5L15.8333 1.6667" stroke="currentColor" stroke-linecap="round" stroke-linejoin="round" stroke-width="2"/>
  <path d="M7.5 9.1667H5" stroke="currentColor" stroke-linecap="round" stroke-linejoin="round" stroke-width="2"/>
  <circle cx="12.5" cy="10.833333333333334" r="2.5" stroke="currentColor" stroke-linecap="round" stroke-linejoin="round" stroke-width="2"/>
  <path d="M5.9375 12.5H5.8333M6.0417 12.5C6.0417 12.6151 5.9484 12.7083 5.8333 12.7083 5.7183 12.7083 5.625 12.6151 5.625 12.5 5.625 12.3849 5.7183 12.2917 5.8333 12.2917 5.9484 12.2917 6.0417 12.3849 6.0417 12.5Z" stroke="currentColor" stroke-linecap="round" stroke-linejoin="round" stroke-width="2"/>
</svg>
