<svg xmlns="http://www.w3.org/2000/svg" width="20" height="20" viewBox="0 0 20 20" fill="none">
  <path d="M10 1.6667C14.6023 1.6667 18.3333 5.3976 18.3333 10 18.3333 14.6023 14.6023 18.3333 10 18.3333 5.3976 18.3333 1.6667 14.6023 1.6667 10 1.6667 8.4929 2.0668 7.0792 2.7665 5.8594" stroke="currentColor" stroke-linecap="round" stroke-linejoin="round" stroke-width="2"/>
  <path d="M4.1667 10C4.1667 13.2217 6.7783 15.8333 10 15.8333 13.2217 15.8333 15.8333 13.2217 15.8333 10 15.8333 6.7783 13.2217 4.1667 10 4.1667" stroke="currentColor" stroke-linecap="round" stroke-linejoin="round" stroke-width="2"/>
  <path d="M10 13.3333C11.8409 13.3333 13.3333 11.8409 13.3333 10 13.3333 8.1591 11.8409 6.6667 10 6.6667" stroke="currentColor" stroke-linecap="round" stroke-linejoin="round" stroke-width="2"/>
</svg>
