<svg xmlns="http://www.w3.org/2000/svg" width="20" height="20" viewBox="0 0 20 20" fill="none">
  <path d="M10 11.25C9.3097 11.25 8.75 10.6903 8.75 10 8.75 9.3097 9.3097 8.75 10 8.75 10.6903 8.75 11.25 9.3097 11.25 10 11.25 10.6903 10.6903 11.25 10 11.25Z" stroke="currentColor" stroke-width="2"/>
  <path d="M10 18.3333C5.3976 18.3333 1.6667 14.6023 1.6667 10 1.6667 5.3976 5.3976 1.6667 10 1.6667 14.6023 1.6667 18.3333 5.3976 18.3333 10 18.3333 14.6023 14.6023 18.3333 10 18.3333Z" stroke="currentColor" stroke-width="2"/>
  <path d="M15.8339 10H11.6667M15.8339 10C15.8339 9.5332 14.1666 8.3333 14.1666 8.3333M15.8339 10C15.8339 10.4668 14.1666 11.6667 14.1666 11.6667" stroke="currentColor" stroke-linecap="round" stroke-linejoin="round" stroke-width="2"/>
</svg>
