<svg xmlns="http://www.w3.org/2000/svg" width="20" height="20" viewBox="0 0 20 20" fill="none">
  <path d="M7.5 2.5C6.488 3.2601 5.8333 4.4704 5.8333 5.8335 5.8333 8.1346 7.6988 10 10 10 12.3012 10 14.1667 8.1346 14.1667 5.8335 14.1667 4.4704 13.512 3.2601 12.5 2.5" stroke="currentColor" stroke-linecap="round" stroke-width="2"/>
  <path d="M17.5 10.8333C16.7398 9.8213 15.5296 9.1667 14.1665 9.1667 11.8654 9.1667 10 11.0322 10 13.3333 10 15.6345 11.8654 17.5 14.1665 17.5 15.5296 17.5 16.7398 16.8453 17.5 15.8333" stroke="currentColor" stroke-linecap="round" stroke-width="2"/>
  <path d="M2.5 10.8333C3.2602 9.8214 4.4702 9.1667 5.8333 9.1667 8.1345 9.1667 10 11.0322 10 13.3333 10 15.6345 8.1345 17.5 5.8333 17.5 4.4703 17.5 3.2602 16.8456 2.5 15.8338" stroke="currentColor" stroke-linecap="round" stroke-width="2"/>
</svg>
