<svg xmlns="http://www.w3.org/2000/svg" width="20" height="20" viewBox="0 0 20 20" fill="none">
  <path d="M13.2305 8.4609C13.077 7.858 12.7591 7.3206 12.3273 6.8995 11.998 6.5782 11.8516 6.0746 12.0817 5.6761L13.7486 2.7889C13.9788 2.3901 14.4918 2.2504 14.8654 2.5196 16.7542 3.8801 18.0503 6.0119 18.2923 8.4538 18.3377 8.9118 17.9602 9.2858 17.5 9.2858H14.1667C13.7064 9.2858 13.344 8.9069 13.2305 8.4609Z" stroke="currentColor" stroke-linecap="round" stroke-linejoin="round" stroke-width="2"/>
  <path d="M7.6681 6.9039C7.2387 7.3244 6.9225 7.8601 6.7695 8.4609 6.656 8.9069 6.2936 9.2858 5.8333 9.2858H2.5C2.0398 9.2858 1.6623 8.9118 1.7077 8.4538 1.9494 6.0152 3.2424 3.8858 5.127 2.525 5.5006 2.2553 6.0141 2.3948 6.2445 2.7939L7.912 5.6822C8.1417 6.0799 7.9963 6.5826 7.6681 6.9039Z" stroke="currentColor" stroke-linecap="round" stroke-linejoin="round" stroke-width="2"/>
  <path d="M6.5708 16.8832C7.6167 17.356 8.7776 17.6192 10 17.6192 11.2191 17.6192 12.377 17.3574 13.4207 16.887 13.8402 16.6979 13.9753 16.1841 13.7453 15.7855L12.0777 12.8972C11.8477 12.4989 11.3388 12.3741 10.8957 12.4974 10.6107 12.5768 10.3103 12.6192 10 12.6192 9.6875 12.6192 9.385 12.5762 9.0982 12.4957 8.6545 12.3713 8.1443 12.4958 7.9139 12.8948L6.247 15.782C6.0171 16.1803 6.1518 16.6938 6.5708 16.8832Z" stroke="currentColor" stroke-linecap="round" stroke-linejoin="round" stroke-width="2"/>
  <path d="M10 9.1289V9.2852M10.2083 9.2852C10.2083 9.4002 10.1151 9.4935 10 9.4935 9.8849 9.4935 9.7917 9.4002 9.7917 9.2852 9.7917 9.1701 9.8849 9.0768 10 9.0768 10.1151 9.0768 10.2083 9.1701 10.2083 9.2852Z" stroke="currentColor" stroke-linecap="round" stroke-linejoin="round" stroke-width="2"/>
</svg>
