<svg xmlns="http://www.w3.org/2000/svg" width="20" height="20" viewBox="0 0 20 20" fill="none">
  <path d="M1.6667 12.5V10C1.6667 6.3181 4.6514 3.3333 8.3333 3.3333 11.1312 3.3333 13.6024 5.0568 14.5833 7.5" stroke="currentColor" stroke-linecap="round" stroke-linejoin="round" stroke-width="2"/>
  <path d="M4.1667 12.5V10C4.1667 7.6988 6.0321 5.8333 8.3333 5.8333 9.8756 5.8333 11.374 6.6712 12.0833 7.9167" stroke="currentColor" stroke-linecap="round" stroke-linejoin="round" stroke-width="2"/>
  <path d="M6.6667 12.5V10C6.6667 9.0795 7.4129 8.3333 8.3333 8.3333 9.1099 8.3333 9.815 8.8645 10 9.5833" stroke="currentColor" stroke-linecap="round" stroke-linejoin="round" stroke-width="2"/>
  <path d="M16.2606 12.6667C16.264 12.6667 16.2674 12.6667 16.2708 12.6667 17.4099 12.6667 18.3333 13.5621 18.3333 14.6667 18.3333 15.7713 17.4099 16.6667 16.2708 16.6667H11.4583C10.1927 16.6667 9.1667 15.6718 9.1667 14.4444 9.1667 13.2891 10.076 12.3396 11.2385 12.2323M16.2606 12.6667C16.2673 12.5935 16.2708 12.5193 16.2708 12.4444 16.2708 11.0944 15.1423 10 13.75 10 12.4315 10 11.3494 10.9816 11.2385 12.2323M16.2606 12.6667C16.2137 13.1709 16.0089 13.6309 15.6947 14M11.2385 12.2323C11.3108 12.2257 11.3842 12.2223 11.4583 12.2223 11.9743 12.2223 12.4505 12.3876 12.8336 12.6667" stroke="currentColor" stroke-linecap="round" stroke-linejoin="round" stroke-width="2"/>
</svg>
