<svg xmlns="http://www.w3.org/2000/svg" width="20" height="20" viewBox="0 0 20 20" fill="none">
  <path d="M15.1593 2.5647L15.7458 3.7476C15.8258 3.9123 16.0391 4.0702 16.2191 4.1005L17.2823 4.2786C17.9623 4.3928 18.1223 4.8902 17.6322 5.3808L16.8057 6.2142C16.6657 6.3554 16.5891 6.6276 16.6324 6.8225L16.869 7.8542C17.0557 8.6707 16.6258 8.9867 15.9092 8.5598L14.9126 7.9651C14.7326 7.8575 14.436 7.8575 14.2527 7.9651L13.2561 8.5598C12.5428 8.9867 12.1096 8.6674 12.2962 7.8542L12.5328 6.8225C12.5762 6.6276 12.4995 6.3554 12.3595 6.2142L11.5329 5.3808C11.0463 4.8902 11.203 4.3928 11.8829 4.2786L12.9461 4.1005C13.1227 4.0702 13.3361 3.9123 13.4161 3.7476L14.0027 2.5647C14.3227 1.9229 14.8426 1.9229 15.1593 2.5647Z" stroke="currentColor" stroke-linecap="round" stroke-linejoin="round" stroke-width="2"/>
  <path d="M2.0833 9.8374C2.0833 14.2995 5.7005 17.9167 10.1626 17.9167 13.8342 17.9167 16.9337 15.4676 17.9167 12.1139 16.7326 12.9743 15.2755 13.4816 13.7 13.4816 9.7337 13.4816 6.5184 10.2663 6.5184 6.3 6.5184 4.7245 7.0258 3.2674 7.8861 2.0833 4.5324 3.0663 2.0833 6.1659 2.0833 9.8374Z" stroke="currentColor" stroke-linejoin="round" stroke-width="2"/>
</svg>
