<svg xmlns="http://www.w3.org/2000/svg" width="20" height="20" viewBox="0 0 20 20" fill="none">
  <path d="M5.0599 12.5C-0.2881 5.8333 8.3436 4.1667 10.0001 1.6667 11.6563 4.1667 20.2894 5.8333 14.9389 12.5V15C14.9389 16.5713 14.9389 17.357 14.4567 17.8452 13.9746 18.3333 13.1985 18.3333 11.6463 18.3333H8.353C6.8012 18.3333 6.0252 18.3333 5.5431 17.8453 5.0609 17.3573 5.0607 16.5718 5.0604 15.0008L5.0599 12.5Z" stroke="currentColor" stroke-linecap="round" stroke-linejoin="round" stroke-width="2"/>
  <path d="M9.1667 15.8333L9.4157 15.6523C10.7612 14.6745 11.4338 14.1856 12.1988 14.1673 12.2899 14.1652 12.3811 14.1681 12.4718 14.176 13.2037 14.2398 13.75 15 14.5833 15.8333M5.4167 15.8333C6.6667 15 7.2241 14.1878 8.0671 14.1674 8.1675 14.165 8.2679 14.1683 8.3679 14.1771 8.8962 14.224 9.3706 14.4768 10 14.9539" stroke="currentColor" stroke-linecap="round" stroke-width="2"/>
  <path d="M12.5 9.9453C12.0289 10.7271 11.1717 11.25 10.1923 11.25 8.7054 11.25 7.5 10.0446 7.5 8.5577 7.5 7.5783 8.0229 6.7211 8.8048 6.25" stroke="currentColor" stroke-linecap="round" stroke-width="2"/>
  <path d="M11.7708 7.0833H11.6667M11.875 7.0833C11.875 7.1984 11.7818 7.2917 11.6667 7.2917 11.5516 7.2917 11.4583 7.1984 11.4583 7.0833 11.4583 6.9683 11.5516 6.875 11.6667 6.875 11.7818 6.875 11.875 6.9683 11.875 7.0833Z" stroke="currentColor" stroke-linecap="round" stroke-linejoin="round" stroke-width="2"/>
</svg>
