<svg xmlns="http://www.w3.org/2000/svg" width="20" height="20" viewBox="0 0 20 20" fill="none">
  <path d="M1.6667 10.4167C2.5871 10.4167 3.3333 9.6705 3.3333 8.75 3.3333 7.8295 2.5871 7.0833 1.6667 7.0833 1.6667 5.913 1.6667 5.3278 1.9476 4.9074 2.0692 4.7254 2.2254 4.5692 2.4074 4.4476 2.8278 4.1667 3.4129 4.1667 4.5833 4.1667H15.4167C16.5871 4.1667 17.1723 4.1667 17.5926 4.4476 17.7746 4.5692 17.9308 4.7254 18.0524 4.9074 18.3333 5.3278 18.3333 5.913 18.3333 7.0833 17.4128 7.0833 16.6667 7.8295 16.6667 8.75 16.6667 9.6705 17.4128 10.4167 18.3333 10.4167 18.3333 11.5871 18.3333 12.1723 18.0524 12.5926 17.9308 12.7746 17.7746 12.9308 17.5926 13.0524 17.1723 13.3333 16.5871 13.3333 15.4167 13.3333H4.5833C3.4129 13.3333 2.8278 13.3333 2.4074 13.0524 2.2254 12.9308 2.0692 12.7746 1.9476 12.5926 1.6667 12.1723 1.6667 11.5871 1.6667 10.4167Z" stroke="currentColor" stroke-linecap="round" stroke-linejoin="round" stroke-width="2"/>
  <path d="M3.3333 13.3333V15C3.3333 15.4603 3.7064 15.8333 4.1667 15.8333H6.6667C7.1269 15.8333 7.5 15.4603 7.5 15V13.3333" stroke="currentColor" stroke-linecap="round" stroke-linejoin="round" stroke-width="2"/>
  <path d="M10.8333 13.3333V15C10.8333 15.4603 11.2064 15.8333 11.6667 15.8333H15.8333C16.2936 15.8333 16.6667 15.4603 16.6667 15V13.3333" stroke="currentColor" stroke-linecap="round" stroke-linejoin="round" stroke-width="2"/>
  <path d="M10 7.5V10M13.3333 7.5V10M6.6667 7.5V10" stroke="currentColor" stroke-linecap="round" stroke-linejoin="round" stroke-width="2"/>
</svg>
