<svg xmlns="http://www.w3.org/2000/svg" width="20" height="20" viewBox="0 0 20 20" fill="none">
  <path d="M2.9167 15C2.9167 13.8215 2.9167 13.2323 3.2828 12.8661 3.6489 12.5 4.2382 12.5 5.4167 12.5H5.8333C6.619 12.5 7.0118 12.5 7.2559 12.7441 7.5 12.9882 7.5 13.381 7.5 14.1667V18.3333H2.9167V15Z" stroke="currentColor" stroke-linecap="round" stroke-linejoin="round" stroke-width="2"/>
  <path d="M12.5 15.8333C12.5 15.0477 12.5 14.6548 12.7441 14.4108 12.9882 14.1667 13.381 14.1667 14.1667 14.1667H14.5833C15.7618 14.1667 16.3511 14.1667 16.7172 14.5328 17.0833 14.8989 17.0833 15.4882 17.0833 16.6667V18.3333H12.5V15.8333Z" stroke="currentColor" stroke-linecap="round" stroke-linejoin="round" stroke-width="2"/>
  <path d="M1.6667 18.3333H18.3333" stroke="currentColor" stroke-linecap="round" stroke-linejoin="round" stroke-width="2"/>
  <path d="M7.5 13.3333C7.5 12.1548 7.5 11.5656 7.8661 11.1994 8.2322 10.8333 8.8215 10.8333 10 10.8333 11.1785 10.8333 11.7677 10.8333 12.1339 11.1994 12.5 11.5656 12.5 12.1548 12.5 13.3333V18.3333H7.5V13.3333Z" stroke="currentColor" stroke-linecap="round" stroke-linejoin="round" stroke-width="2"/>
  <path d="M10.5759 2.1481L11.1625 3.331C11.2425 3.4956 11.4558 3.6536 11.6357 3.6838L12.699 3.8619C13.3789 3.9762 13.5389 4.4735 13.0489 4.9642L12.2223 5.7976C12.0824 5.9387 12.0058 6.2109 12.0491 6.4058L12.2857 7.4375C12.4723 8.2541 12.0424 8.57 11.3258 8.1432L10.3293 7.5484C10.1493 7.4409 9.8527 7.4409 9.6693 7.5484L8.6728 8.1432C7.9595 8.57 7.5262 8.2507 7.7129 7.4375L7.9495 6.4058C7.9928 6.2109 7.9162 5.9387 7.7762 5.7976L6.9496 4.9642C6.463 4.4735 6.6197 3.9762 7.2996 3.8619L8.3628 3.6838C8.5394 3.6536 8.7528 3.4956 8.8328 3.331L9.4193 2.1481C9.7393 1.5062 10.2592 1.5062 10.5759 2.1481Z" stroke="currentColor" stroke-linecap="round" stroke-linejoin="round" stroke-width="2"/>
</svg>
