<svg xmlns="http://www.w3.org/2000/svg" width="20" height="20" viewBox="0 0 20 20" fill="none">
  <path d="M15.8333 9.1667C15.8333 8.4854 15.8333 7.8588 15.7065 7.5526 15.5796 7.2463 15.3388 7.0054 14.857 6.5237L10.9099 2.5766C10.4942 2.1608 10.2863 1.953 10.0288 1.8298 9.9752 1.8042 9.9203 1.7814 9.8643 1.7617 9.5951 1.6667 9.3012 1.6667 8.7132 1.6667 6.009 1.6667 4.6569 1.6667 3.7411 2.4051 3.5561 2.5542 3.3876 2.7228 3.2384 2.9078 2.5 3.8236 2.5 5.1757 2.5 7.8799V11.6667C2.5 14.8093 2.5 16.3808 3.4763 17.357 4.4526 18.3333 6.024 18.3333 9.1667 18.3333H15.8333M10 2.0833V2.5C10 4.857 10 6.0355 10.7323 6.7678 11.4645 7.5 12.643 7.5 15 7.5H15.4167" stroke="currentColor" stroke-linecap="round" stroke-linejoin="round" stroke-width="2"/>
  <path d="M5.8333 13.75V11.6667H7.2917C7.867 11.6667 8.3333 12.133 8.3333 12.7083 8.3333 13.2837 7.867 13.75 7.2917 13.75M5.8333 13.75V15.8333M5.8333 13.75H7.2917M7.2917 13.75L8.3333 15.8333M15 13.75V11.6667H16.4583C17.0337 11.6667 17.5 12.133 17.5 12.7083 17.5 13.2837 17.0337 13.75 16.4583 13.75M15 13.75V15.8333M15 13.75H16.4583M16.4583 13.75L17.5 15.8333M10 15.8333L11.4583 11.6667H11.875L13.3333 15.8333M10.8333 14.5833H12.5" stroke="currentColor" stroke-linecap="round" stroke-linejoin="round" stroke-width="2"/>
</svg>
