<svg xmlns="http://www.w3.org/2000/svg" width="20" height="20" viewBox="0 0 20 20" fill="none">
  <path d="M16.6667 10.8333V8.8808C16.6667 8.1995 16.6667 7.8588 16.5398 7.5526 16.4129 7.2463 16.1721 7.0054 15.6903 6.5237L11.7433 2.5766C11.3275 2.1608 11.1197 1.953 10.8621 1.8298 10.8085 1.8042 10.7537 1.7814 10.6977 1.7617 10.4284 1.6667 10.1345 1.6667 9.5465 1.6667 6.8424 1.6667 5.4903 1.6667 4.5744 2.4051 4.3894 2.5542 4.2209 2.7228 4.0717 2.9078 3.3333 3.8236 3.3333 5.1757 3.3333 7.8799V10.8333M10.8333 2.0833V2.5C10.8333 4.857 10.8333 6.0355 11.5656 6.7678 12.2978 7.5 13.4763 7.5 15.8333 7.5H16.25" stroke="currentColor" stroke-linecap="round" stroke-linejoin="round" stroke-width="2"/>
  <path d="M3.3333 15.8333V13.3333H5C5.6904 13.3333 6.25 13.893 6.25 14.5833 6.25 15.2737 5.6904 15.8333 5 15.8333H4.5833M3.3333 15.8333V18.3333M3.3333 15.8333H4.5833M4.5833 15.8333L6.25 18.3333M13.75 15.8333V13.3333H15.4167C16.107 13.3333 16.6667 13.893 16.6667 14.5833 16.6667 15.2737 16.107 15.8333 15.4167 15.8333H15M13.75 15.8333V18.3333M13.75 15.8333H15M15 15.8333L16.6667 18.3333M8.3333 18.3333L9.7917 13.3333H10.2083L11.6667 18.3333M9.1667 16.6667H10.8333" stroke="currentColor" stroke-linecap="round" stroke-linejoin="round" stroke-width="2"/>
</svg>
