<svg xmlns="http://www.w3.org/2000/svg" width="20" height="20" viewBox="0 0 20 20" fill="none">
  <path d="M2.0833 10C2.0833 6.268 2.0833 4.4021 3.2427 3.2427 4.4021 2.0833 6.268 2.0833 10 2.0833 13.7319 2.0833 15.5979 2.0833 16.7573 3.2427 17.9167 4.4021 17.9167 6.268 17.9167 10 17.9167 13.7319 17.9167 15.5979 16.7573 16.7573 15.5979 17.9167 13.7319 17.9167 10 17.9167 6.268 17.9167 4.4021 17.9167 3.2427 16.7573 2.0833 15.5979 2.0833 13.7319 2.0833 10Z" stroke="currentColor" stroke-linecap="round" stroke-linejoin="round" stroke-width="2"/>
  <path d="M5.4167 11.6667C5.4167 11.6667 6.6667 10 7.9167 11.25M5.4167 11.6667V14.5833M5.4167 11.6667V10.4167" stroke="currentColor" stroke-linecap="round" stroke-linejoin="round" stroke-width="2"/>
  <path d="M9.5833 12.5V11.875C9.5833 11.0696 10.2363 10.4167 11.0417 10.4167 11.8471 10.4167 12.5 11.0696 12.5 11.875V12.5H9.5833ZM9.5833 12.5V13.125C9.5833 13.9304 10.2363 14.5833 11.0417 14.5833 11.4497 14.5833 11.8187 14.4158 12.0833 14.1456" stroke="currentColor" stroke-linecap="round" stroke-linejoin="round" stroke-width="2"/>
  <path d="M15.1042 10.8333H15M15.2083 10.8333C15.2083 10.9484 15.1151 11.0417 15 11.0417 14.8849 11.0417 14.7917 10.9484 14.7917 10.8333 14.7917 10.7183 14.8849 10.625 15 10.625 15.1151 10.625 15.2083 10.7183 15.2083 10.8333Z" stroke="currentColor" stroke-linecap="round" stroke-linejoin="round" stroke-width="2"/>
  <path d="M15.1042 14.1667H15M15.2083 14.1667C15.2083 14.2818 15.1151 14.375 15 14.375 14.8849 14.375 14.7917 14.2818 14.7917 14.1667 14.7917 14.0516 14.8849 13.9583 15 13.9583 15.1151 13.9583 15.2083 14.0516 15.2083 14.1667Z" stroke="currentColor" stroke-linecap="round" stroke-linejoin="round" stroke-width="2"/>
</svg>
