<svg xmlns="http://www.w3.org/2000/svg" width="20" height="20" viewBox="0 0 20 20" fill="none">
  <path d="M10.0001 6.6667C14.6024 6.6667 18.3334 8.1591 18.3334 10 18.3334 11.8409 14.6024 13.3333 10.0001 13.3333 5.3977 13.3333 1.6667 11.8409 1.6667 10 1.6667 8.1591 5.3977 6.6667 10.0001 6.6667Z" stroke="currentColor" stroke-width="2"/>
  <path d="M12.9659 8.3127C15.3302 12.3477 15.9189 16.3742 14.2809 17.306 12.6429 18.2379 9.3984 15.7223 7.0342 11.6873 4.67 7.6522 4.0812 3.6258 5.7192 2.694 7.3572 1.7621 10.6017 4.2777 12.9659 8.3127Z" stroke="currentColor" stroke-width="2"/>
  <path d="M12.9659 11.6873C10.6017 15.7223 7.3572 18.2379 5.7192 17.306 4.0812 16.3742 4.67 12.3477 7.0342 8.3127 9.3984 4.2777 12.6429 1.7621 14.2809 2.694 15.9189 3.6258 15.3302 7.6522 12.9659 11.6873Z" stroke="currentColor" stroke-width="2"/>
  <path d="M10.2084 10H10.0001M10.4168 10C10.4168 10.2301 10.2302 10.4167 10.0001 10.4167 9.7699 10.4167 9.5834 10.2301 9.5834 10 9.5834 9.7699 9.7699 9.5833 10.0001 9.5833 10.2302 9.5833 10.4168 9.7699 10.4168 10Z" stroke="currentColor" stroke-linecap="round" stroke-linejoin="round" stroke-width="2"/>
</svg>
