<svg xmlns="http://www.w3.org/2000/svg" width="20" height="20" viewBox="0 0 20 20" fill="none">
  <path d="M6.7234 2.2712L6.58 2.3849C6.4257 2.5073 6.3485 2.5685 6.2717 2.6071 6.0058 2.7406 5.6883 2.7232 5.4389 2.5614 5.3668 2.5146 5.2969 2.4453 5.1572 2.3068 4.8238 1.9763 4.6571 1.811 4.5315 1.7504 4.0819 1.5333 3.542 1.755 3.3789 2.2237 3.3333 2.3546 3.3333 2.5883 3.3333 3.0558V17.2483C3.3333 17.4623 3.3333 17.5693 3.343 17.6317 3.438 18.2448 4.1552 18.5394 4.6597 18.1724 4.7109 18.1351 4.7873 18.0594 4.9399 17.9081 5.0359 17.8129 5.084 17.7653 5.1295 17.7279 5.552 17.3815 6.1529 17.3485 6.6115 17.6466 6.6609 17.6787 6.7139 17.7208 6.82 17.8048L6.9334 17.8948C7.1254 18.0471 7.2214 18.1233 7.3175 18.1753 7.6909 18.3775 8.1424 18.3775 8.5158 18.1753 8.612 18.1233 8.7079 18.0471 8.8999 17.8948L8.9583 17.8485C9.2058 17.6523 9.3296 17.5541 9.457 17.4932 9.8001 17.3291 10.1999 17.3291 10.543 17.4932 10.6704 17.5541 10.7942 17.6523 11.0417 17.8485L11.1001 17.8948C11.2921 18.0471 11.388 18.1233 11.4842 18.1753 11.8576 18.3775 12.3091 18.3775 12.6825 18.1753 12.7787 18.1233 12.8747 18.0471 13.0666 17.8948L13.18 17.8048C13.2861 17.7208 13.3392 17.6787 13.3885 17.6466 13.8471 17.3485 14.448 17.3815 14.8705 17.7279 14.916 17.7653 14.9641 17.8129 15.0601 17.9081 15.2127 18.0594 15.2891 18.1351 15.3403 18.1724 15.8448 18.5394 16.5621 18.2448 16.657 17.6317 16.6667 17.5693 16.6667 17.4623 16.6667 17.2483V3.0558C16.6667 2.5883 16.6667 2.3546 16.6211 2.2237 16.4579 1.755 15.9182 1.5333 15.4685 1.7504 15.3429 1.811 15.1762 1.9763 14.8428 2.3068 14.7031 2.4453 14.6332 2.5146 14.5612 2.5614 14.3117 2.7232 13.9942 2.7406 13.7283 2.6071 13.6515 2.5685 13.5743 2.5073 13.42 2.3849L13.2767 2.2712C12.8845 1.9602 12.6884 1.8047 12.4746 1.7348 12.2205 1.6518 11.9462 1.6518 11.6921 1.7348 11.4782 1.8047 11.2822 1.9602 10.89 2.2712L10.8333 2.3162C10.5357 2.5523 10.3868 2.6703 10.2218 2.7155 10.0767 2.7552 9.9233 2.7552 9.7782 2.7155 9.6132 2.6703 9.4643 2.5523 9.1667 2.3162L9.11 2.2712C8.7178 1.9602 8.5218 1.8047 8.3079 1.7348 8.0538 1.6518 7.7795 1.6518 7.5254 1.7348 7.3116 1.8047 7.1155 1.9602 6.7234 2.2712Z" stroke="currentColor" stroke-linecap="round" stroke-linejoin="round" stroke-width="2"/>
  <path d="M8.3333 6.6667C9.9442 6.6667 11.25 7.9725 11.25 9.5833 11.25 11.1942 9.9442 12.5 8.3333 12.5H7.5L11.6667 13.3333M7.5 9.5833H13.3333M7.5 6.6667H13.3333" stroke="currentColor" stroke-linecap="round" stroke-linejoin="round" stroke-width="2"/>
</svg>
