<svg xmlns="http://www.w3.org/2000/svg" width="20" height="20" viewBox="0 0 20 20" fill="none">
  <path d="M5.8333 6.6667L8.285 8.1162C9.7143 8.9613 10.2857 8.9613 11.715 8.1162L14.1667 6.6667" stroke="currentColor" stroke-linecap="round" stroke-linejoin="round" stroke-width="2"/>
  <path d="M18.3333 8.3552C18.2788 5.7999 18.2516 4.5223 17.3082 3.5758 16.3648 2.6294 15.0519 2.5964 12.4262 2.5305 10.8078 2.4898 9.2053 2.4898 7.587 2.5305 4.9612 2.5964 3.6483 2.6294 2.7049 3.5758 1.7616 4.5223 1.7343 5.7999 1.6798 8.3552 1.6623 9.1768 1.6623 9.9935 1.6798 10.8152 1.7343 13.3704 1.7616 14.6481 2.705 15.5945 3.6483 16.5409 4.9612 16.5739 7.587 16.6398 8.1169 16.6531 8.645 16.6621 9.1726 16.6667" stroke="currentColor" stroke-linecap="round" stroke-linejoin="round" stroke-width="2"/>
  <path d="M18.0527 13.3328C17.5846 12.3474 16.5802 11.6662 15.4167 11.6662 13.8058 11.6662 12.5 12.972 12.5 14.5828 12.5 16.1936 13.8058 17.4995 15.4167 17.4995 16.7378 17.4995 17.9746 16.6212 18.3333 15.4167M18.0527 13.3328V11.25M18.0527 13.3328L16.1898 13.4645" stroke="currentColor" stroke-linecap="round" stroke-linejoin="round" stroke-width="2"/>
</svg>
