<svg xmlns="http://www.w3.org/2000/svg" width="20" height="20" viewBox="0 0 20 20" fill="none">
  <path d="M1.6667 10C1.6667 7.6665 1.6667 6.4997 2.1208 5.6084 2.5203 4.8244 3.1577 4.1869 3.9417 3.7875 4.833 3.3333 5.9998 3.3333 8.3333 3.3333H11.6667C14.0003 3.3333 15.167 3.3333 16.0583 3.7875 16.8423 4.1869 17.4797 4.8244 17.8792 5.6084 18.3333 6.4997 18.3333 7.6665 18.3333 10 18.3333 12.3336 18.3333 13.5003 17.8792 14.3917 17.4797 15.1757 16.8423 15.8131 16.0583 16.2125 15.167 16.6667 14.0003 16.6667 11.6667 16.6667H8.3333C5.9998 16.6667 4.833 16.6667 3.9417 16.2125 3.1577 15.8131 2.5203 15.1757 2.1208 14.3917 1.6667 13.5003 1.6667 12.3336 1.6667 10Z" stroke="currentColor" stroke-linejoin="round" stroke-width="2"/>
</svg>
