<svg xmlns="http://www.w3.org/2000/svg" width="20" height="20" viewBox="0 0 20 20" fill="none">
  <path d="M6.4077 2.0319L4.4615 3.5159C3.6514 4.1337 3.2464 4.4425 3.349 4.7213 3.4516 5 3.9703 5 5.0076 5H13.3333C13.6371 5 13.7889 5 13.9294 4.953 14.0699 4.9061 14.1885 4.8156 14.4257 4.6348L16.3718 3.1507C17.1819 2.533 17.5869 2.2242 17.4843 1.9454 17.3818 1.6667 16.8631 1.6667 15.8257 1.6667H7.5C7.1963 1.6667 7.0444 1.6667 6.9039 1.7136 6.7634 1.7606 6.6449 1.851 6.4077 2.0319Z" stroke="currentColor" stroke-width="2"/>
  <path d="M3.349 18.055C3.4516 18.3337 3.9703 18.3337 5.0076 18.3337H13.3333C13.6371 18.3337 13.7889 18.3337 13.9294 18.2868M3.349 18.055C3.2464 17.7763 3.6514 17.4673 4.4615 16.8497L6.4077 15.3656C6.6449 15.1847 6.7634 15.0943 6.9039 15.0473M3.349 18.055V4.7216M6.9039 15.0473C7.0444 15.0004 7.1963 15.0004 7.5 15.0004H11.6667M6.9039 15.0473V7.5004M13.9294 18.2868C14.0699 18.2398 14.1885 18.1493 14.4257 17.9685L16.3718 16.4844C17.1819 15.8667 17.5869 15.5579 17.4843 15.2792V1.9458M13.9294 18.2868V4.9534" stroke="currentColor" stroke-linecap="round" stroke-linejoin="round" stroke-width="2"/>
</svg>
