<svg xmlns="http://www.w3.org/2000/svg" width="20" height="20" viewBox="0 0 20 20" fill="none">
  <path d="M14.9999 13.3323C13.7499 14.1658 12.2368 15.8143 11.6667 18.3333M12.5 16.1143C10.5267 11.6755 14.5073 10.1784 17.5369 10.0119 17.9026 9.9918 18.0854 9.9818 18.2167 10.1113 18.348 10.2408 18.3404 10.4255 18.3253 10.7947 18.1995 13.865 16.9405 18.0892 12.5 16.1143Z" stroke="currentColor" stroke-linecap="round" stroke-linejoin="round" stroke-width="2"/>
  <path d="M9.1667 16.6667H5.0175C3.1125 16.6667 2.16 16.6667 1.7932 16.0546 1.4264 15.4425 1.8854 14.619 2.8035 12.9722L3.9932 10.8378C4.6092 9.7327 4.9173 9.1802 5.3994 9.1669 5.8815 9.1537 6.2202 9.6884 6.8977 10.7579L7.4821 11.6805" stroke="currentColor" stroke-linecap="round" stroke-linejoin="round" stroke-width="2"/>
  <path d="M6.6667 6.6949L7.493 5.1294C8.7105 2.8231 9.3193 1.67 10.2441 1.6667 11.1689 1.6633 11.7849 2.8121 13.017 5.1095L13.2206 5.4892C13.9851 6.9147 14.3673 7.6274 14.0607 8.0708 13.754 8.5141 13.002 8.336 11.4979 7.9798L11.4292 7.9636" stroke="currentColor" stroke-linecap="round" stroke-linejoin="round" stroke-width="2"/>
</svg>
