<svg xmlns="http://www.w3.org/2000/svg" width="20" height="20" viewBox="0 0 20 20" fill="none">
  <path d="M7.5 3.1025C4.16 3.8604 1.6667 6.8474 1.6667 10.4167 1.6667 10.8426 1.7022 11.2602 1.7704 11.6667M7.5 3.1025L5 2.0833M7.5 3.1025L6.6667 5.4167M15.8871 13.75C16.3861 12.7458 16.6667 11.614 16.6667 10.4167 16.6667 6.7004 13.9638 3.6155 10.4167 3.0204M15.8871 13.75L18.3333 12.0833M15.8871 13.75L14.5833 11.25M2.9296 14.5833C4.2751 16.5933 6.5663 17.9167 9.1667 17.9167 11.0876 17.9167 12.8398 17.1945 14.1667 16.0069M2.9296 14.5833H5.8333M2.9296 14.5833V17.5" stroke="currentColor" stroke-linecap="round" stroke-linejoin="round" stroke-width="2"/>
</svg>
