<svg xmlns="http://www.w3.org/2000/svg" width="20" height="20" viewBox="0 0 20 20" fill="none">
  <path d="M9.0322 16.4693H13.7226C16.1103 16.4693 17.3042 16.4693 17.8852 15.8365 18.0482 15.6589 18.1744 15.4533 18.2572 15.2305 18.5523 14.4366 17.9725 13.4364 16.8128 11.4362M9.0322 16.4693L11.4637 14.6052M9.0322 16.4693L11.4637 18.3333M15.408 9.0128L12.9225 4.7254C11.8588 2.8906 11.327 1.9732 10.5836 1.7511 10.2067 1.6385 9.8028 1.6385 9.4259 1.7511 8.6825 1.9732 8.1507 2.8906 7.087 4.7254M15.408 9.0128L12.5098 7.922M15.408 9.0128L15.8823 6.0636M5.6821 7.1487L3.1128 11.5807C2.0294 13.4496 1.4877 14.384 1.7196 15.1344 1.8099 15.4266 1.9735 15.693 2.1961 15.9105 2.768 16.4693 3.8835 16.4693 6.1144 16.4693M5.6821 7.1487L6.1335 10.1013M5.6821 7.1487L2.7754 8.2188" stroke="currentColor" stroke-linecap="round" stroke-linejoin="round" stroke-width="2"/>
</svg>
