<svg xmlns="http://www.w3.org/2000/svg" width="20" height="20" viewBox="0 0 20 20" fill="none">
  <path d="M12.5 14.1667C11.7963 14.6911 10.933 15 10 15 9.067 15 8.2036 14.6911 7.5 14.1667" stroke="currentColor" stroke-linecap="round" stroke-linejoin="round" stroke-width="2"/>
  <path d="M15.4167 3.75C15.4167 4.4404 14.857 5 14.1667 5 13.4763 5 12.9167 4.4404 12.9167 3.75 12.9167 3.0596 13.4763 2.5 14.1667 2.5 14.857 2.5 15.4167 3.0596 15.4167 3.75Z" stroke="currentColor" stroke-linecap="round" stroke-linejoin="round" stroke-width="2"/>
  <path d="M12.9167 3.75C11.9444 3.8889 10 4.8333 10 7.5" stroke="currentColor" stroke-linecap="round" stroke-linejoin="round" stroke-width="2"/>
  <path d="M10 17.5C13.6819 17.5 16.6667 15.2614 16.6667 12.5 16.6667 12.2068 16.6311 11.92 16.5666 11.6407 17.5668 11.488 18.3333 10.6262 18.3333 9.5833 18.3333 8.4328 17.4006 7.5 16.25 7.5 15.4086 7.5 14.6851 7.9994 14.3562 8.7174 13.1878 7.9599 11.6658 7.5 10 7.5 8.3339 7.5 6.8115 7.9597 5.6429 8.7174 5.314 7.9996 4.5913 7.5 3.75 7.5 2.5994 7.5 1.6667 8.4328 1.6667 9.5833 1.6667 10.6259 2.4328 11.4877 3.4326 11.6407 3.3681 11.9199 3.3333 12.2069 3.3333 12.5 3.3333 15.2614 6.3181 17.5 10 17.5Z" stroke="currentColor" stroke-linecap="round" stroke-linejoin="round" stroke-width="2"/>
  <path d="M12.7083 10.8333H12.5M12.9167 10.8333C12.9167 11.0634 12.7301 11.25 12.5 11.25 12.2698 11.25 12.0833 11.0634 12.0833 10.8333 12.0833 10.6033 12.2698 10.4167 12.5 10.4167 12.7301 10.4167 12.9167 10.6033 12.9167 10.8333Z" stroke="currentColor" stroke-linecap="round" stroke-linejoin="round" stroke-width="2"/>
  <path d="M8.125 10.8333H7.9167M8.3333 10.8333C8.3333 11.0634 8.1468 11.25 7.9167 11.25 7.6865 11.25 7.5 11.0634 7.5 10.8333 7.5 10.6033 7.6865 10.4167 7.9167 10.4167 8.1468 10.4167 8.3333 10.6033 8.3333 10.8333Z" stroke="currentColor" stroke-linecap="round" stroke-linejoin="round" stroke-width="2"/>
</svg>
