<svg xmlns="http://www.w3.org/2000/svg" width="20" height="20" viewBox="0 0 20 20" fill="none">
  <path d="M10 10V9.3333M10.8333 10C10.8333 9.5397 10.4603 9.1667 10 9.1667 9.5397 9.1667 9.1667 9.5397 9.1667 10 9.1667 10.4603 9.5397 10.8333 10 10.8333 10.4603 10.8333 10.8333 10.4603 10.8333 10Z" stroke="currentColor" stroke-linecap="round" stroke-linejoin="round" stroke-width="2"/>
  <path d="M10 17.5C5.8579 17.5 2.5 14.1422 2.5 10 2.5 5.8579 5.8579 2.5 10 2.5 13.3333 2.5 15 3.75 17.0833 6.25" stroke="currentColor" stroke-linecap="round" stroke-linejoin="round" stroke-width="2"/>
  <path d="M13.3333 6.4362C13.3333 6.4362 16.7508 6.9548 17.2695 6.4362 17.7882 5.9175 17.2695 2.5 17.2695 2.5" stroke="currentColor" stroke-linecap="round" stroke-linejoin="round" stroke-width="2"/>
</svg>
