<svg xmlns="http://www.w3.org/2000/svg" width="20" height="20" viewBox="0 0 20 20" fill="none">
  <path d="M17.4543 10.8333C17.4845 10.5597 17.5 10.2817 17.5 10 17.5 5.8579 14.1422 2.5 10 2.5 7.6439 2.5 5.5416 3.5864 4.1667 5.2856M2.5458 9.1667C2.5155 9.4403 2.5 9.7183 2.5 10 2.5 14.1422 5.8579 17.5 10 17.5 12.3561 17.5 14.4583 16.4136 15.8333 14.7144" stroke="currentColor" stroke-linecap="round" stroke-linejoin="round" stroke-width="2"/>
  <path d="M6.6667 5.8333H5.8333C4.6548 5.8333 4.0656 5.8333 3.6994 5.4672 3.3333 5.1011 3.3333 4.5118 3.3333 3.3333V2.5" stroke="currentColor" stroke-linecap="round" stroke-linejoin="round" stroke-width="2"/>
  <path d="M13.3333 14.1667H14.1667C15.3452 14.1667 15.9344 14.1667 16.3006 14.5328 16.6667 14.8989 16.6667 15.4882 16.6667 16.6667V17.5" stroke="currentColor" stroke-linecap="round" stroke-linejoin="round" stroke-width="2"/>
</svg>
