<svg xmlns="http://www.w3.org/2000/svg" width="20" height="20" viewBox="0 0 20 20" fill="none">
  <path d="M2.5 2.5001L17.5 17.5001" stroke="currentColor" stroke-linecap="round" stroke-linejoin="round" stroke-width="2"/>
  <path d="M16.25 5.4168C14.5833 3.3334 12.5 2.5001 10 2.5001 9.012 2.5001 8.0687 2.6911 7.2048 3.0383M3.75 14.5834C5.4167 16.6668 7.5 17.5001 10 17.5001 12.0711 17.5001 13.9461 16.6607 15.3033 15.3034M17.4543 9.1668C17.4845 9.4404 17.5 9.7184 17.5 10.0001 17.5 10.9881 17.309 11.9314 16.9618 12.7953M2.5458 10.8334C2.5155 10.5598 2.5 10.2818 2.5 10.0001 2.5 7.929 3.3395 6.054 4.6967 4.6968" stroke="currentColor" stroke-linecap="round" stroke-linejoin="round" stroke-width="2"/>
  <path d="M13.3333 5.649C13.3333 5.649 16.0673 6.0639 16.4823 5.649 16.8972 5.2341 16.4823 2.5001 16.4823 2.5001" stroke="currentColor" stroke-linecap="round" stroke-linejoin="round" stroke-width="2"/>
  <path d="M6.6667 14.3509C6.6667 14.3509 3.9326 13.9361 3.5177 14.351 3.1028 14.7658 3.5177 17.4999 3.5177 17.4999" stroke="currentColor" stroke-linecap="round" stroke-linejoin="round" stroke-width="2"/>
</svg>
