<svg xmlns="http://www.w3.org/2000/svg" width="20" height="20" viewBox="0 0 20 20" fill="none">
  <path d="M2.5458 10.8333C2.5155 10.5597 2.5 10.2817 2.5 10 2.5 5.8579 5.8579 2.5 10 2.5 12.3561 2.5 14.4583 3.5864 15.8333 5.2856M17.4543 9.1667C17.4845 9.4403 17.5 9.7183 17.5 10 17.5 14.1422 14.1422 17.5 10 17.5 7.6439 17.5 5.5416 16.4136 4.1667 14.7144" stroke="currentColor" stroke-linecap="round" stroke-linejoin="round" stroke-width="2"/>
  <path d="M13.3333 5.8333H14.1667C15.3452 5.8333 15.9344 5.8333 16.3006 5.4672 16.6667 5.1011 16.6667 4.5118 16.6667 3.3333V2.5" stroke="currentColor" stroke-linecap="round" stroke-linejoin="round" stroke-width="2"/>
  <path d="M6.6667 14.1667H5.8333C4.6548 14.1667 4.0656 14.1667 3.6994 14.5328 3.3333 14.8989 3.3333 15.4882 3.3333 16.6667V17.5" stroke="currentColor" stroke-linecap="round" stroke-linejoin="round" stroke-width="2"/>
</svg>
