<svg xmlns="http://www.w3.org/2000/svg" width="20" height="20" viewBox="0 0 20 20" fill="none">
  <path d="M13.8855 2.5V10.8333M17.496 4.5797L10.2792 8.7464M17.5002 8.7468L10.2833 4.5801" stroke="currentColor" stroke-linecap="round" stroke-linejoin="round" stroke-width="2"/>
  <path d="M8.1747 12.8197C8.3333 13.1851 8.3333 13.6512 8.3333 14.5833 8.3333 15.5155 8.3333 15.9816 8.1747 16.3469 7.9812 16.7924 7.6258 17.1478 7.1803 17.3413 6.815 17.5 6.3489 17.5 5.4167 17.5 4.4845 17.5 4.0184 17.5 3.6531 17.3413 3.2076 17.1478 2.8522 16.7924 2.6587 16.3469 2.5 15.9816 2.5 15.5155 2.5 14.5833 2.5 13.6512 2.5 13.1851 2.6587 12.8197 2.8522 12.3742 3.2076 12.0188 3.6531 11.8253 4.0184 11.6667 4.4845 11.6667 5.4167 11.6667 6.3489 11.6667 6.815 11.6667 7.1803 11.8253 7.6258 12.0188 7.9812 12.3742 8.1747 12.8197Z" stroke="currentColor" stroke-linecap="round" stroke-linejoin="round" stroke-width="2"/>
</svg>
