<svg xmlns="http://www.w3.org/2000/svg" width="20" height="20" viewBox="0 0 20 20" fill="none">
  <path d="M12.6389 0.8331L13.1372 1.7646C13.4741 2.3944 13.6425 2.7092 13.5312 2.8441 13.4198 2.9789 13.0529 2.87 12.3193 2.6522 11.5858 2.4344 10.807 2.3173 10 2.3173 5.6277 2.3173 2.0833 5.7569 2.0833 9.9998 2.0833 11.3991 2.4688 12.7111 3.1424 13.8411M7.3611 19.1665L6.8628 18.235C6.5259 17.6053 6.3575 17.2903 6.4688 17.1555 6.5802 17.0207 6.9471 17.1296 7.6807 17.3474 8.4142 17.5652 9.193 17.6823 10 17.6823 14.3723 17.6823 17.9167 14.2428 17.9167 9.9998 17.9167 8.6005 17.5312 7.2885 16.8576 6.1585" stroke="currentColor" stroke-linecap="round" stroke-linejoin="round" stroke-width="2"/>
</svg>
