<svg xmlns="http://www.w3.org/2000/svg" width="20" height="20" viewBox="0 0 20 20" fill="none">
  <path d="M10.8333 15.8243C10.768 16.6782 10.6058 17.2368 10.2029 17.6464 9.5285 18.332 8.443 18.332 6.272 18.332 4.101 18.332 3.0155 18.332 2.3411 17.6464 1.6667 16.9609 1.6667 15.8576 1.6667 13.6508V9.6384C1.6667 7.4318 1.6667 6.3284 2.3411 5.6429 2.7511 5.2261 3.3131 5.0627 4.1787 4.9986" stroke="currentColor" stroke-linecap="round" stroke-width="2"/>
  <path d="M13.3987 1.6686H11.6013C9.184 1.6686 7.9754 1.6686 7.258 2.4213 6.5406 3.174 6.616 4.363 6.7668 6.7409L6.8716 8.3948C6.9063 8.9413 6.9236 9.2146 6.985 9.4425 7.2218 10.3227 7.9461 10.9933 8.8521 11.1715 9.0867 11.2176 9.3644 11.2176 9.92 11.2176 10.694 11.2176 10.6835 11.8569 10.6835 12.4898 10.6835 12.9806 10.6835 13.2261 10.8434 13.3104 11.0033 13.3948 11.2105 13.2586 11.6249 12.9863L14.0911 11.3658C14.2524 11.2597 14.3974 11.2176 14.5873 11.2176 15.6058 11.2176 16.1151 11.2176 16.5278 11.0644 17.9577 10.5335 18.0765 9.2123 18.1591 7.9102L18.2333 6.7409C18.384 4.363 18.4594 3.174 17.742 2.4213 17.0246 1.6686 15.816 1.6686 13.3987 1.6686Z" stroke="currentColor" stroke-linejoin="round" stroke-width="2"/>
  <path d="M11.5285 7.0257C9.5215 5.5971 12.4994 4.1685 12.4994 4.1685 12.4994 4.1685 15.4788 5.5971 13.4719 7.0257M11.5285 7.0257H13.4719M11.5285 7.0257L11.0423 9.1686M13.4719 7.0257L14.1517 9.1686" stroke="currentColor" stroke-linecap="round" stroke-linejoin="round" stroke-width="2"/>
  <path d="M6.3542 15.8353H6.25M6.4583 15.8353C6.4583 15.9503 6.3651 16.0436 6.25 16.0436 6.1349 16.0436 6.0417 15.9503 6.0417 15.8353 6.0417 15.7202 6.1349 15.6269 6.25 15.6269 6.3651 15.6269 6.4583 15.7202 6.4583 15.8353Z" stroke="currentColor" stroke-linecap="round" stroke-linejoin="round" stroke-width="2"/>
</svg>
