<svg xmlns="http://www.w3.org/2000/svg" width="20" height="20" viewBox="0 0 20 20" fill="none">
  <path d="M2.5 7.3333C2.5 5.8333 4.2177 4.3333 6.4039 4.3333L14.1312 4.3333C16 4.3333 17.5 3.2083 17.5 2.0833" stroke="currentColor" stroke-linecap="round" stroke-linejoin="round" stroke-width="2"/>
  <path d="M13.75 4.5833L13.3333 9.1667" stroke="currentColor" stroke-linecap="round" stroke-linejoin="round" stroke-width="2"/>
  <path d="M8.3333 4.5833C8.2222 7.1354 8 11.875 7.6667 13.3333 7.3333 14.7917 6.6667 16.25 5 16.25" stroke="currentColor" stroke-linecap="round" stroke-linejoin="round" stroke-width="2"/>
  <path d="M15.2778 14.5833H13.0556M17.5 14.5833C17.5 16.4243 16.0076 17.9167 14.1667 17.9167 12.3258 17.9167 10.8333 16.4243 10.8333 14.5833 10.8333 12.7424 12.3258 11.25 14.1667 11.25 16.0076 11.25 17.5 12.7424 17.5 14.5833Z" stroke="currentColor" stroke-linecap="round" stroke-width="2"/>
</svg>
