<svg xmlns="http://www.w3.org/2000/svg" width="20" height="20" viewBox="0 0 20 20" fill="none">
  <path d="M1.6667 8.3333C2.3164 5.1534 4.7243 2.6078 7.8385 1.7415 8.0999 1.6688 8.2306 1.6324 8.301 1.7103 8.3714 1.7882 8.3195 1.917 8.2158 2.1746L7.5 3.75M11.6667 1.6667C14.8466 2.3164 17.3923 4.7243 18.2585 7.8385 18.3313 8.0999 18.3676 8.2306 18.2897 8.301 18.2118 8.3714 18.083 8.3195 17.8253 8.2158L16.25 7.5M18.3333 11.6667C17.6836 14.8466 15.2757 17.3923 12.1615 18.2585 11.9001 18.3313 11.7694 18.3676 11.699 18.2897 11.6286 18.2118 11.6805 18.083 11.7842 17.8253L12.5 16.25M8.3333 18.3333C5.1534 17.6836 2.6078 15.2757 1.7415 12.1615 1.6688 11.9001 1.6324 11.7694 1.7103 11.699 1.7882 11.6286 1.917 11.6805 2.1746 11.7842L3.75 12.5" stroke="currentColor" stroke-linecap="round" stroke-width="2"/>
  <path d="M7.1774 9.7206L10.0933 5.9777C10.3214 5.685 10.7488 5.8672 10.7488 6.2571V9.1542C10.7488 9.3878 10.9165 9.5771 11.1233 9.5771H12.5415C12.8637 9.5771 13.0354 10.0062 12.8226 10.2794L9.9067 14.0222C9.6786 14.315 9.2512 14.1328 9.2512 13.7429V10.8458C9.2512 10.6123 9.0835 10.4229 8.8768 10.4229H7.4585C7.1363 10.4229 6.9646 9.9938 7.1774 9.7206Z" stroke="currentColor" stroke-linecap="round" stroke-linejoin="round" stroke-width="2"/>
</svg>
