<svg xmlns="http://www.w3.org/2000/svg" width="20" height="20" viewBox="0 0 20 20" fill="none">
  <path d="M15 6.0519C17.01 7.1731 18.3333 9.0825 18.3333 11.2495 18.3333 12.965 17.5039 14.5191 16.1611 15.6484 15.9598 15.8178 15.8333 16.063 15.8333 16.3261V18.3328H14.1667L13.5052 17.3889C13.4025 17.2425 13.218 17.1788 13.0448 17.2234 11.604 17.5938 10.0627 17.5938 8.6219 17.2234 8.4487 17.1788 8.2642 17.2425 8.1615 17.3889L7.5 18.3328H5.8333V16.3457C5.8333 16.0717 5.6986 15.8152 5.473 15.6596 4.5774 15.0421 1.6667 13.834 1.6667 12.548V11.2495C1.6667 10.7563 2.0398 10.3566 2.5 10.3566 3.0055 10.3566 3.4182 10.1602 3.585 9.6378 4.0594 8.1526 5.1736 6.8848 6.6667 6.0519" stroke="currentColor" stroke-linecap="round" stroke-linejoin="round" stroke-width="2"/>
  <path d="M11.25 1.6672L9.1667 5.0005H12.5L10.4167 8.3338" stroke="currentColor" stroke-linecap="round" stroke-linejoin="round" stroke-width="2"/>
  <path d="M6.7708 10.0005H6.6667M6.875 10.0005C6.875 10.1156 6.7817 10.2088 6.6667 10.2088 6.5516 10.2088 6.4583 10.1156 6.4583 10.0005 6.4583 9.8854 6.5516 9.7922 6.6667 9.7922 6.7817 9.7922 6.875 9.8854 6.875 10.0005Z" stroke="currentColor" stroke-linecap="round" stroke-linejoin="round" stroke-width="2"/>
</svg>
