<svg xmlns="http://www.w3.org/2000/svg" width="20" height="20" viewBox="0 0 20 20" fill="none">
  <path d="M9.1667 9.1667L5 5" stroke="currentColor" stroke-width="2"/>
  <path d="M4.1667 6.25L6.25 4.1667 3.75 2.9167 2.9167 3.75 4.1667 6.25Z" stroke="currentColor" stroke-linejoin="round" stroke-width="2"/>
  <path d="M16.6458 7.4791C17.4882 6.6366 17.7076 5.407 17.3038 4.3629L16.1188 5.5479H14.4521V3.8812L15.6371 2.6962C14.593 2.2925 13.3634 2.5118 12.5209 3.3543 11.6782 4.1971 11.4589 5.4273 11.8633 6.4716L6.4716 11.8633C5.4273 11.4589 4.1971 11.6782 3.3543 12.5209 2.5118 13.3634 2.2925 14.593 2.6962 15.6371L3.8812 14.4521 5.5479 14.4521 5.5479 16.1188 4.3629 17.3038C5.407 17.7076 6.6366 17.4882 7.4791 16.6458 8.3212 15.8036 8.5408 14.5746 8.1376 13.5307L13.5307 8.1376C14.5746 8.5408 15.8036 8.3212 16.6458 7.4791Z" stroke="currentColor" stroke-linejoin="round" stroke-width="2"/>
  <path d="M9.8308 12.0833L14.5008 16.7534C14.9407 17.1933 15.6538 17.1933 16.0937 16.7534L16.7534 16.0937C17.1933 15.6538 17.1933 14.9407 16.7534 14.5008L12.0834 9.8308" stroke="currentColor" stroke-linejoin="round" stroke-width="2"/>
</svg>
