<svg xmlns="http://www.w3.org/2000/svg" width="20" height="20" viewBox="0 0 20 20" fill="none">
  <path d="M18.3333 8.3333L18.3333 2.8075C18.3333 2.5546 18.0982 2.4102 17.9333 2.562L16.6667 3.7285" stroke="currentColor" stroke-linecap="round" stroke-linejoin="round" stroke-width="2"/>
  <path d="M11.9903 2.5L12.8261 3.3131C13.1994 3.6764 13.3861 3.858 13.3203 4.0123 13.2547 4.1667 12.9907 4.1667 12.4627 4.1667H7.6619C4.3508 4.1667 1.6667 6.7783 1.6667 10 1.6667 11.2393 2.0639 12.3885 2.7412 13.3333" stroke="currentColor" stroke-linecap="round" stroke-linejoin="round" stroke-width="2"/>
  <path d="M6.343 17.5L5.5073 16.6869C5.1339 16.3236 4.9473 16.142 5.013 15.9877 5.0787 15.8333 5.3427 15.8333 5.8707 15.8333H12.3382C15.2083 15.8333 17.7453 13.871 18.3333 11.25" stroke="currentColor" stroke-linecap="round" stroke-linejoin="round" stroke-width="2"/>
</svg>
