<svg xmlns="http://www.w3.org/2000/svg" width="20" height="20" viewBox="0 0 20 20" fill="none">
  <path d="M18.3333 10C18.3333 14.6023 14.6023 18.3333 10 18.3333 5.3976 18.3333 1.6667 14.6023 1.6667 10 1.6667 5.3976 5.3976 1.6667 10 1.6667 12.5344 1.6667 14.8046 2.7981 16.333 4.5833" stroke="currentColor" stroke-linecap="round" stroke-linejoin="round" stroke-width="2"/>
  <path d="M16.6667 2.0833V5H13.75" stroke="currentColor" stroke-linecap="round" stroke-linejoin="round" stroke-width="2"/>
  <path d="M13.2878 10.2981C13.1405 10.8203 12.4444 11.1894 11.0524 11.9276 9.7067 12.6411 9.0338 12.9979 8.4916 12.8545 8.2674 12.7952 8.0632 12.6826 7.8984 12.5274 7.5 12.1523 7.5 11.4245 7.5 9.9691 7.5 8.5136 7.5 7.7859 7.8984 7.4107 8.0632 7.2556 8.2674 7.143 8.4916 7.0837 9.0338 6.9403 9.7067 7.2971 11.0524 8.0106 12.4444 8.7488 13.1405 9.1178 13.2878 9.6401 13.3485 9.8557 13.3485 10.0825 13.2878 10.2981Z" stroke="currentColor" stroke-linecap="round" stroke-linejoin="round" stroke-width="2"/>
</svg>
