<svg xmlns="http://www.w3.org/2000/svg" width="20" height="20" viewBox="0 0 20 20" fill="none">
  <path d="M8.0525 16.7593C8.3333 16.3389 8.3333 15.7538 8.3333 14.5833 8.3333 13.4129 8.3333 12.8277 8.0525 12.4074 7.9309 12.2254 7.7746 12.0692 7.5926 11.9476 7.1722 11.6667 6.5871 11.6667 5.4167 11.6667 4.2463 11.6667 3.6611 11.6667 3.2407 11.9476 3.0587 12.0692 2.9025 12.2254 2.7809 12.4074 2.5 12.8277 2.5 13.4129 2.5 14.5833 2.5 15.7538 2.5 16.3389 2.7809 16.7593 2.9025 16.9413 3.0587 17.0975 3.2407 17.2191 3.6611 17.5 4.2463 17.5 5.4167 17.5 6.5871 17.5 7.1722 17.5 7.5926 17.2191 7.7746 17.0975 7.9309 16.9413 8.0525 16.7593Z" stroke="currentColor" stroke-linecap="round" stroke-linejoin="round" stroke-width="2"/>
  <path d="M16.2966 2.5C16.5028 2.5427 16.6715 2.6079 16.8201 2.7072 17.0072 2.8322 17.1678 2.9928 17.2928 3.1799 17.3921 3.3285 17.4572 3.4971 17.5 3.7034M16.2966 8.3333C16.5028 8.2906 16.6715 8.2254 16.8201 8.1261 17.0072 8.0011 17.1678 7.8405 17.2928 7.6534 17.3921 7.5048 17.4572 7.3362 17.5 7.1299M11.6667 3.7034C11.7094 3.4971 11.7746 3.3285 11.8738 3.1799 11.9988 2.9928 12.1595 2.8322 12.3466 2.7072 12.4952 2.6079 12.6638 2.5427 12.8701 2.5M12.8701 8.3333C12.6638 8.2906 12.4952 8.2254 12.3466 8.1261 12.1595 8.0011 11.9988 7.8405 11.8738 7.6534 11.7746 7.5048 11.7094 7.3362 11.6667 7.1299" stroke="currentColor" stroke-linecap="round" stroke-linejoin="round" stroke-width="2"/>
  <path d="M15 11.6675C15.8991 11.6714 16.3921 11.7024 16.7593 11.9478 16.9413 12.0694 17.0975 12.2257 17.2191 12.4077 17.5 12.828 17.5 13.4132 17.5 14.5836 17.5 15.754 17.5 16.3392 17.2191 16.7595 17.0975 16.9415 16.9413 17.0978 16.7593 17.2193 16.3921 17.4647 15.8991 17.4958 15 17.4997" stroke="currentColor" stroke-linecap="round" stroke-linejoin="round" stroke-width="2"/>
  <path d="M10.2809 11.6658C11.18 11.6698 11.673 11.7008 12.0402 11.9462 12.2222 12.0678 12.3784 12.224 12.5 12.406 12.7809 12.8263 12.7809 13.4116 12.7809 14.5819 12.7809 15.7523 12.7809 16.3375 12.5 16.7579 12.3784 16.9399 12.2222 17.0962 12.0402 17.2178 11.673 17.4631 11.18 17.4942 10.2809 17.4981" stroke="currentColor" stroke-linecap="round" stroke-linejoin="round" stroke-width="2"/>
  <path d="M3.3333 6.25C3.3333 6.25 4.8677 8.3333 5.4167 8.3333 5.9657 8.3333 7.5 6.25 7.5 6.25M5.4167 7.0833V5.4166C5.4167 5.0297 5.4167 4.8361 5.4381 4.6737 5.5858 3.5519 6.4685 2.6691 7.5904 2.5214 7.7528 2.5 7.9463 2.5 8.3333 2.5" stroke="currentColor" stroke-linecap="round" stroke-linejoin="round" stroke-width="2"/>
</svg>
