<svg xmlns="http://www.w3.org/2000/svg" width="20" height="20" viewBox="0 0 20 20" fill="none">
  <path d="M5 16.3526C4.4258 16.1899 3.9731 15.9431 3.5983 15.5683 2.5 14.47 2.5 12.7022 2.5 9.1667 2.5 5.6311 2.5 3.8634 3.5983 2.765 4.6967 1.6667 6.4645 1.6667 10 1.6667 13.5355 1.6667 15.3033 1.6667 16.4017 2.765 17.5 3.8634 17.5 5.6311 17.5 9.1667 17.5 12.7022 17.5 14.47 16.4017 15.5683 16.0269 15.9431 15.5743 16.1899 15 16.3526" stroke="currentColor" stroke-linecap="round" stroke-width="2"/>
  <path d="M10 16.8273C9.6548 16.8273 9.3771 17.0934 8.8215 17.6257 8.2828 18.1417 8.0135 18.3997 7.7865 18.3187 7.7586 18.3088 7.7317 18.2957 7.7064 18.2796 7.5 18.1488 7.5 17.7593 7.5 16.9802L7.5 14.376C7.5 13.0988 7.5 12.4603 7.8661 12.0634 8.2322 11.6667 8.8215 11.6667 10 11.6667 11.1785 11.6667 11.7677 11.6667 12.1339 12.0634 12.5 12.4603 12.5 13.0988 12.5 14.376V16.9802C12.5 17.7593 12.5 18.1488 12.2937 18.2796 12.2683 18.2957 12.2414 18.3088 12.2136 18.3187 11.9865 18.3997 11.7172 18.1417 11.1785 17.6257 10.6229 17.0934 10.3452 16.8273 10 16.8273Z" stroke="currentColor" stroke-linecap="round" stroke-linejoin="round" stroke-width="2"/>
  <path d="M6.6667 8.3333H13.3333" stroke="currentColor" stroke-linecap="round" stroke-linejoin="round" stroke-width="2"/>
  <path d="M6.6667 5L10 5" stroke="currentColor" stroke-linecap="round" stroke-linejoin="round" stroke-width="2"/>
</svg>
