<svg xmlns="http://www.w3.org/2000/svg" width="20" height="20" viewBox="0 0 20 20" fill="none">
  <path d="M7.0833 12.5C7.0833 12.5 4.1667 14.6481 4.1667 15.4167 4.1667 16.1852 7.0833 18.3333 7.0833 18.3333" stroke="currentColor" stroke-linecap="round" stroke-linejoin="round" stroke-width="2"/>
  <path d="M4.5833 15.4167L11.25 15.4167C13.9896 15.4167 15.3593 15.4167 16.2813 14.66 16.4501 14.5215 16.6048 14.3668 16.7433 14.198 17.5 13.276 17.5 11.9063 17.5 9.1667" stroke="currentColor" stroke-linecap="round" stroke-linejoin="round" stroke-width="2"/>
  <path d="M12.9167 7.5C12.9167 7.5 15.8333 5.3519 15.8333 4.5833 15.8333 3.8147 12.9167 1.6667 12.9167 1.6667" stroke="currentColor" stroke-linecap="round" stroke-linejoin="round" stroke-width="2"/>
  <path d="M15.4167 4.5833L8.75 4.5833C6.0104 4.5833 4.6407 4.5833 3.7187 5.34 3.5499 5.4785 3.3952 5.6332 3.2566 5.802 2.5 6.724 2.5 8.0938 2.5 10.8333" stroke="currentColor" stroke-linecap="round" stroke-linejoin="round" stroke-width="2"/>
</svg>
