<svg xmlns="http://www.w3.org/2000/svg" width="20" height="20" viewBox="0 0 20 20" fill="none">
  <path d="M17.9167 10C17.9167 14.3723 14.3723 17.9167 10 17.9167 5.6278 17.9167 2.0833 14.3723 2.0833 10 2.0833 5.6277 5.6278 2.0833 10 2.0833 13.2463 2.0833 16.0363 4.0373 17.2579 6.8333M17.9167 4.5833L17.5208 7.2292 15 6.6667" stroke="currentColor" stroke-linecap="round" stroke-linejoin="round" stroke-width="2"/>
  <path d="M8.3333 9.1667V7.9167C8.3333 6.9962 9.0795 6.25 10 6.25 10.9205 6.25 11.6667 6.9962 11.6667 7.9167V9.1667M9.375 13.75H10.625C11.6023 13.75 12.091 13.75 12.4276 13.4917 12.5143 13.4252 12.5918 13.3476 12.6583 13.2609 12.9167 12.9243 12.9167 12.4357 12.9167 11.4583 12.9167 10.481 12.9167 9.9923 12.6583 9.6558 12.5918 9.5691 12.5143 9.4915 12.4276 9.425 12.091 9.1667 11.6023 9.1667 10.625 9.1667H9.375C8.3977 9.1667 7.909 9.1667 7.5724 9.425 7.4857 9.4915 7.4081 9.5691 7.3416 9.6558 7.0833 9.9923 7.0833 10.481 7.0833 11.4583 7.0833 12.4357 7.0833 12.9243 7.3416 13.2609 7.4081 13.3476 7.4857 13.4252 7.5724 13.4917 7.909 13.75 8.3977 13.75 9.375 13.75Z" stroke="currentColor" stroke-linejoin="round" stroke-width="2"/>
</svg>
