<svg xmlns="http://www.w3.org/2000/svg" width="20" height="20" viewBox="0 0 20 20" fill="none">
  <path d="M14.1667 3.3333H17.5M14.1667 3.3333C14.1667 3.8001 15.4119 4.6723 15.8333 5M14.1667 3.3333C14.1667 2.8665 15.4119 1.9944 15.8333 1.6667" stroke="currentColor" stroke-linecap="round" stroke-linejoin="round" stroke-width="2"/>
  <path d="M5.8333 3.3333H2.5M5.8333 3.3333C5.8333 2.8665 4.5881 1.9944 4.1667 1.6667M5.8333 3.3333C5.8333 3.8001 4.5881 4.6723 4.1667 5" stroke="currentColor" stroke-linecap="round" stroke-linejoin="round" stroke-width="2"/>
  <path d="M8.1957 18.3333L8.1957 17.5428C8.1957 17.0048 8.0217 16.4812 7.6997 16.0496L4.6517 11.9638C4.3002 11.4926 4.0194 10.908 4.2515 10.3683 4.6272 9.4946 5.6871 8.927 6.9845 10.2369L8.3155 11.6614 8.3155 2.9755C8.3624 1.2729 11.1024 1.1885 11.2196 2.9755L11.2196 7.9255C12.4529 7.7662 18.2629 8.6357 17.4161 12.3193 17.3758 12.4943 17.3357 12.6719 17.2964 12.8471 17.1251 13.6128 16.6185 14.9772 16.0599 15.775 15.4784 16.6055 15.6836 17.4327 15.6836 18.3333" stroke="currentColor" stroke-linecap="round" stroke-linejoin="round" stroke-width="2"/>
</svg>
