<svg xmlns="http://www.w3.org/2000/svg" width="20" height="20" viewBox="0 0 20 20" fill="none">
  <path d="M6.1395 10.1425L7.9177 11.6667V3.5417C7.9177 2.7363 8.5706 2.0833 9.376 2.0833 10.1814 2.0833 10.8343 2.7363 10.8343 3.5417V7.9167L13.3243 8.3146C14.9314 8.5557 15.7351 8.6763 16.3011 9.0153 17.2361 9.5755 17.9134 10.4167 17.9134 11.6447 17.9134 12.5 17.702 13.0738 17.1881 14.6156 16.862 15.5939 16.6989 16.083 16.4331 16.4703 15.9953 17.1077 15.3495 17.5732 14.6063 17.7868 14.1549 17.9167 13.6393 17.9167 12.6081 17.9167H11.734C10.363 17.9167 9.6775 17.9167 9.0672 17.6651 8.9578 17.62 8.8508 17.5691 8.7468 17.5126 8.1668 17.1976 7.7345 16.6656 6.87 15.6016L4.0713 12.1569C3.6412 11.6276 3.6383 10.8701 4.0644 10.3375 4.5765 9.6974 5.5171 9.609 6.1395 10.1425Z" stroke="currentColor" stroke-linecap="round" stroke-linejoin="round" stroke-width="2"/>
  <path d="M13.3333 3.75L16.6667 3.75M13.3333 3.75C13.3333 4.2168 14.5786 5.089 15 5.4167M13.3333 3.75C13.3333 3.2832 14.5786 2.411 15 2.0833" stroke="currentColor" stroke-linecap="round" stroke-linejoin="round" stroke-width="2"/>
  <path d="M5.4167 3.75L2.0833 3.75M5.4167 3.75C5.4167 3.2832 4.1714 2.411 3.75 2.0833M5.4167 3.75C5.4167 4.2168 4.1714 5.089 3.75 5.4167" stroke="currentColor" stroke-linecap="round" stroke-linejoin="round" stroke-width="2"/>
</svg>
