<svg xmlns="http://www.w3.org/2000/svg" width="20" height="20" viewBox="0 0 20 20" fill="none">
  <path d="M2.0833 5C2.0833 3.7163 2.0833 3.0745 2.3723 2.6029 2.5339 2.3391 2.7558 2.1173 3.0196 1.9556 3.4911 1.6667 4.133 1.6667 5.4167 1.6667 6.7004 1.6667 7.3422 1.6667 7.8137 1.9556 8.0776 2.1173 8.2994 2.3391 8.4611 2.6029 8.75 3.0745 8.75 3.7163 8.75 5 8.75 6.2837 8.75 6.9256 8.4611 7.3971 8.2994 7.6609 8.0776 7.8827 7.8137 8.0444 7.3422 8.3333 6.7004 8.3333 5.4167 8.3333 4.133 8.3333 3.4911 8.3333 3.0196 8.0444 2.7558 7.8827 2.5339 7.6609 2.3723 7.3971 2.0833 6.9256 2.0833 6.2837 2.0833 5Z" stroke="currentColor" stroke-width="2"/>
  <path d="M3.1514 12.3181C4.0238 11.4457 4.46 11.0095 4.9768 10.8854 5.2659 10.816 5.5674 10.816 5.8566 10.8854 6.3734 11.0095 6.8096 11.4457 7.6819 12.3181 8.5543 13.1904 8.9905 13.6266 9.1146 14.1434 9.184 14.4326 9.184 14.7341 9.1146 15.0232 8.9905 15.5401 8.5543 15.9763 7.6819 16.8486 6.8096 17.721 6.3734 18.1572 5.8566 18.2813 5.5674 18.3507 5.2659 18.3507 4.9768 18.2813 4.46 18.1572 4.0238 17.721 3.1514 16.8486 2.279 15.9763 1.8428 15.5401 1.7187 15.0232 1.6493 14.7341 1.6493 14.4326 1.7187 14.1434 1.8428 13.6266 2.279 13.1904 3.1514 12.3181Z" stroke="currentColor" stroke-width="2"/>
  <path d="M11.6667 15C11.6667 13.7163 11.6667 13.0744 11.9556 12.6029 12.1173 12.3391 12.3391 12.1173 12.6029 11.9556 13.0744 11.6667 13.7163 11.6667 15 11.6667 16.2837 11.6667 16.9256 11.6667 17.3971 11.9556 17.6609 12.1173 17.8828 12.3391 18.0444 12.6029 18.3333 13.0744 18.3333 13.7163 18.3333 15 18.3333 16.2837 18.3333 16.9256 18.0444 17.3971 17.8828 17.6609 17.6609 17.8828 17.3971 18.0444 16.9256 18.3333 16.2837 18.3333 15 18.3333 13.7163 18.3333 13.0744 18.3333 12.6029 18.0444 12.3391 17.8828 12.1173 17.6609 11.9556 17.3971 11.6667 16.9256 11.6667 16.2837 11.6667 15Z" stroke="currentColor" stroke-width="2"/>
  <path d="M15 1.6667V8.3333M18.3333 5L11.6667 5" stroke="currentColor" stroke-linecap="round" stroke-linejoin="round" stroke-width="2"/>
</svg>
