<svg xmlns="http://www.w3.org/2000/svg" width="20" height="20" viewBox="0 0 20 20" fill="none">
  <path d="M5 14.1667C3.75 14.1667 3.75 13.3333 2.5 13.3333L3.4759 9.9176C3.8084 8.754 3.9746 8.1722 4.4202 7.8361 4.8657 7.5 5.4708 7.5 6.681 7.5H13.319C14.5292 7.5 15.1343 7.5 15.5798 7.8361 16.0254 8.1722 16.1916 8.754 16.5241 9.9176L17.5 13.3333C16.25 13.3333 16.25 14.1667 15 14.1667 13.75 14.1667 13.75 13.3333 12.5 13.3333 11.25 13.3333 11.25 14.1667 10 14.1667 8.75 14.1667 8.75 13.3333 7.5 13.3333 6.25 13.3333 6.25 14.1667 5 14.1667Z" stroke="currentColor" stroke-linecap="round" stroke-linejoin="round" stroke-width="2"/>
  <path d="M6.6667 7.5V6.6667C6.6667 4.8257 8.1591 3.3333 10 3.3333M13.3333 7.5V6.6667C13.3333 4.8257 11.8409 3.3333 10 3.3333M10 3.3333V2.5" stroke="currentColor" stroke-linecap="round" stroke-linejoin="round" stroke-width="2"/>
  <path d="M10 14.1667V17.5M10 17.5H11.6667M10 17.5H8.3333" stroke="currentColor" stroke-linecap="round" stroke-linejoin="round" stroke-width="2"/>
</svg>
