<svg xmlns="http://www.w3.org/2000/svg" width="20" height="20" viewBox="0 0 20 20" fill="none">
  <path d="M16.25 4.5833L15.8333 9.5833M3.75 4.5833L4.2538 12.9473C4.3829 15.0894 4.4474 16.1604 4.9822 16.9306 5.2467 17.3114 5.5873 17.6328 5.9825 17.8744 6.4677 18.1709 7.0529 18.2875 7.9167 18.3333" stroke="currentColor" stroke-linecap="round" stroke-width="2"/>
  <path d="M9.1667 12.9167L10.1136 14.1381C10.59 12.3599 12.4178 11.3046 14.196 11.7811 15.1063 12.025 15.8271 12.6229 16.25 13.3872M17.5 17.0833L16.5531 15.8636C16.0766 17.6418 14.2488 18.6971 12.4706 18.2206 11.5815 17.9823 10.8731 17.4063 10.4466 16.6675" stroke="currentColor" stroke-linecap="round" stroke-linejoin="round" stroke-width="2"/>
  <path d="M2.5 4.5833H17.5M13.3798 4.5833L12.8109 3.4098C12.433 2.6302 12.244 2.2404 11.9181 1.9973 11.8458 1.9434 11.7693 1.8955 11.6892 1.8539 11.3283 1.6667 10.8951 1.6667 10.0288 1.6667 9.1407 1.6667 8.6967 1.6667 8.3297 1.8618 8.2484 1.905 8.1708 1.9549 8.0977 2.011 7.768 2.2639 7.5839 2.668 7.2155 3.4761L6.7108 4.5833" stroke="currentColor" stroke-linecap="round" stroke-width="2"/>
</svg>
