<svg xmlns="http://www.w3.org/2000/svg" width="20" height="20" viewBox="0 0 20 20" fill="none">
  <path d="M3.3333 17.5008L5.8339 15" stroke="currentColor" stroke-linecap="round" stroke-linejoin="round" stroke-width="2"/>
  <path d="M12.5 8.3342L11.6667 9.1675" stroke="currentColor" stroke-linecap="round" stroke-linejoin="round" stroke-width="2"/>
  <path d="M14.9999 2.5008L12.4999 5.0008C12.0456 5.4552 11.8184 5.6824 11.6969 5.9275 11.4658 6.3938 11.4658 6.9412 11.6969 7.4075 11.8184 7.6526 12.0456 7.8798 12.4999 8.3342 12.9543 8.7885 13.1815 9.0158 13.4266 9.1372 13.8929 9.3682 14.4403 9.3682 14.9067 9.1372 15.1517 9.0158 15.3789 8.7885 15.8333 8.3342L18.3332 5.8342" stroke="currentColor" stroke-linecap="round" stroke-linejoin="round" stroke-width="2"/>
  <path d="M16.6667 4.1667L14.1667 6.6667" stroke="currentColor" stroke-linecap="round" stroke-linejoin="round" stroke-width="2"/>
  <path d="M16.6667 17.5L10 10.8333M10 10.8333L1.6667 2.5C1.6667 5.7015 2.9384 8.7718 5.2022 11.0355L7.5 13.3333 10 10.8333Z" stroke="currentColor" stroke-linecap="round" stroke-linejoin="round" stroke-width="2"/>
</svg>
