<svg xmlns="http://www.w3.org/2000/svg" width="20" height="20" viewBox="0 0 20 20" fill="none">
  <path d="M2.5 10.8333V6.6667H17.5V10.8333C17.5 13.976 17.5 15.5474 16.5237 16.5237 15.5474 17.5 13.976 17.5 10.8333 17.5H9.1667C6.024 17.5 4.4526 17.5 3.4763 16.5237 2.5 15.5474 2.5 13.976 2.5 10.8333Z" stroke="currentColor" stroke-linecap="round" stroke-linejoin="round" stroke-width="2"/>
  <path d="M2.5 6.6667L3.2212 5.0641C3.7804 3.8212 4.0601 3.1998 4.6269 2.8499 5.1938 2.5 5.9208 2.5 7.375 2.5H12.625C14.0792 2.5 14.8062 2.5 15.3731 2.8499 15.9399 3.1998 16.2196 3.8212 16.7788 5.0641L17.5 6.6667" stroke="currentColor" stroke-linecap="round" stroke-width="2"/>
  <path d="M10 6.6667V2.5" stroke="currentColor" stroke-linecap="round" stroke-width="2"/>
  <path d="M7.0833 11.25H11.6667C12.5872 11.25 13.3333 11.9962 13.3333 12.9167 13.3333 13.8372 12.5872 14.5833 11.6667 14.5833H10.8333M8.3333 9.5833L6.6667 11.25 8.3333 12.9167" stroke="currentColor" stroke-linecap="round" stroke-linejoin="round" stroke-width="2"/>
</svg>
