<svg xmlns="http://www.w3.org/2000/svg" width="20" height="20" viewBox="0 0 20 20" fill="none">
  <path d="M15.7791 11.6211L15.2205 8.5807C14.9793 7.2675 14.8586 6.6109 14.3808 6.2221 13.9031 5.8333 13.2168 5.8333 11.8443 5.8333H8.1557C6.7832 5.8333 6.0969 5.8333 5.6192 6.2221 5.1414 6.6109 5.0208 7.2675 4.7795 8.5807L4.2209 11.6211C3.7201 14.3468 3.4697 15.7098 4.2407 16.6049 5.0118 17.5 6.4363 17.5 9.2853 17.5H10.7148C13.5637 17.5 14.9882 17.5 15.7593 16.6049 16.5303 15.7098 16.2799 14.3468 15.7791 11.6211Z" stroke="currentColor" stroke-linecap="round" stroke-width="2"/>
  <path d="M10 8.75V14.1667M7.9167 12.5L10 14.5833 12.0833 12.5" stroke="currentColor" stroke-linecap="round" stroke-linejoin="round" stroke-width="2"/>
  <path d="M17.5 9.1667C17.6307 9.1007 17.7443 9.0177 17.8452 8.9129 18.3333 8.4063 18.3333 7.5908 18.3333 5.9598 18.3333 4.3288 18.3333 3.5134 17.8452 3.0067 17.357 2.5 16.5713 2.5 15 2.5L5 2.5C3.4286 2.5 2.643 2.5 2.1548 3.0067 1.6667 3.5134 1.6667 4.3288 1.6667 5.9598 1.6667 7.5908 1.6667 8.4063 2.1548 8.9129 2.2557 9.0177 2.3694 9.1007 2.5 9.1667" stroke="currentColor" stroke-linecap="round" stroke-width="2"/>
</svg>
