<svg xmlns="http://www.w3.org/2000/svg" width="20" height="20" viewBox="0 0 20 20" fill="none">
  <path d="M10 9.1658C9.0795 9.1658 8.3333 9.7249 8.3333 10.4146 8.3333 11.1043 9.0795 11.6633 10 11.6633 10.9205 11.6633 11.6667 12.2225 11.6667 12.9122 11.6667 13.6017 10.9205 14.1609 10 14.1609M10 9.1658C10.7257 9.1658 11.343 9.5133 11.5718 9.9983M10 9.1658V8.3333M10 14.1609C9.2743 14.1609 8.657 13.8134 8.4282 13.3284M10 14.1609L10.0023 15" stroke="currentColor" stroke-linecap="round" stroke-width="2"/>
  <path d="M17.5 9.1667C17.6307 9.1007 17.7443 9.0177 17.8452 8.9129 18.3333 8.4063 18.3333 7.5908 18.3333 5.9598 18.3333 4.3288 18.3333 3.5134 17.8452 3.0067 17.357 2.5 16.5713 2.5 15 2.5L5 2.5C3.4286 2.5 2.643 2.5 2.1548 3.0067 1.6667 3.5134 1.6667 4.3288 1.6667 5.9598 1.6667 7.5908 1.6667 8.4063 2.1548 8.9129 2.2557 9.0177 2.3694 9.1007 2.5 9.1667" stroke="currentColor" stroke-linecap="round" stroke-width="2"/>
  <circle cx="10" cy="11.666666666666668" r="5.833333333333334" stroke="currentColor" stroke-width="2"/>
  <path d="M4.1667 5.8333H15.8333" stroke="currentColor" stroke-linecap="round" stroke-linejoin="round" stroke-width="2"/>
</svg>
