<svg xmlns="http://www.w3.org/2000/svg" width="20" height="20" viewBox="0 0 20 20" fill="none">
  <path d="M6.7135 3.9906C8.2628 2.4413 9.0374 1.6667 10 1.6667 10.9626 1.6667 11.7372 2.4413 13.2865 3.9906L16.0094 6.7135C17.5587 8.2628 18.3333 9.0374 18.3333 10 18.3333 10.9626 17.5587 11.7372 16.0094 13.2865L13.2865 16.0094C11.7372 17.5587 10.9626 18.3333 10 18.3333 9.0374 18.3333 8.2628 17.5587 6.7135 16.0094L3.9906 13.2865C2.4413 11.7372 1.6667 10.9626 1.6667 10 1.6667 9.0374 2.4413 8.2628 3.9906 6.7135L6.7135 3.9906Z" stroke="currentColor" stroke-linejoin="round" stroke-width="2"/>
</svg>
