<svg xmlns="http://www.w3.org/2000/svg" width="20" height="20" viewBox="0 0 20 20" fill="none">
  <path d="M5.7618 4.9965C7.7597 2.7766 8.7587 1.6667 10 1.6667 11.2413 1.6667 12.2403 2.7766 14.2382 4.9965L14.5031 5.2909C16.501 7.5108 17.5 8.6208 17.5 10 17.5 11.3792 16.501 12.4893 14.5031 14.7092L14.2382 15.0035C12.2403 17.2234 11.2413 18.3333 10 18.3333 8.7587 18.3333 7.7597 17.2234 5.7618 15.0035L5.4969 14.7092C3.499 12.4893 2.5 11.3792 2.5 10 2.5 8.6208 3.499 7.5108 5.4969 5.2909L5.7618 4.9965Z" stroke="currentColor" stroke-linejoin="round" stroke-width="2"/>
</svg>
