<svg xmlns="http://www.w3.org/2000/svg" width="20" height="20" viewBox="0 0 20 20" fill="none">
  <path d="M7.5 5H12.5" stroke="currentColor" stroke-linecap="round" stroke-linejoin="round" stroke-width="2"/>
  <path d="M6.2593 3.7705L9.9012 8.3333M7.6357 11.0798L5.7695 8.5857C5.27 7.9182 5 7.1063 5 6.2719 5 5.7323 5.113 5.1987 5.3316 4.7057L5.3608 4.6399C6.0006 3.1969 6.3205 2.4754 6.9421 2.071 7.5638 1.6667 8.353 1.6667 9.9316 1.6667H10.0684C11.647 1.6667 12.4363 1.6667 13.0578 2.071 13.6795 2.4754 13.9994 3.1969 14.6393 4.6399L14.6684 4.7057C14.887 5.1987 15 5.7323 15 6.2719 15 7.1063 14.73 7.9182 14.2305 8.5857L7.5798 17.474C7.4537 17.6425 7.3905 17.727 7.3341 17.7885 6.698 18.4831 5.6168 18.5183 4.9369 17.8668 4.8766 17.8091 4.8082 17.729 4.6713 17.5689 4.5765 17.4581 4.529 17.4025 4.4909 17.3504 4.0709 16.7754 4.0578 15.9976 4.4581 15.4087 4.4944 15.3553 4.5399 15.2983 4.631 15.1842L13.7407 3.7705M13.8918 13.3333L15.3691 15.1842C15.4601 15.2983 15.5057 15.3553 15.5419 15.4087 15.9422 15.9976 15.9291 16.7754 15.5091 17.3504 15.4711 17.4025 15.4235 17.4581 15.3288 17.5689 15.1918 17.729 15.1234 17.8091 15.0632 17.8668 14.3832 18.5183 13.302 18.4831 12.6659 17.7885 12.6095 17.727 12.5463 17.6426 12.4202 17.474L11.5043 16.25" stroke="currentColor" stroke-linecap="round" stroke-linejoin="round" stroke-width="2"/>
</svg>
