<svg xmlns="http://www.w3.org/2000/svg" width="20" height="20" viewBox="0 0 20 20" fill="none">
  <path d="M3.2595 10H15.0738C16.4095 10 16.8988 10.3089 16.5656 11.6518 15.9778 14.0205 14.3133 14.6088 12.7753 16.1549 12.4016 16.5308 12.9832 17.086 12.9835 17.4993 12.9841 18.2775 12.244 18.3333 11.6545 18.3333H6.6788C6.0893 18.3333 5.3492 18.2775 5.3498 17.4993 5.3502 17.0948 5.9143 16.5132 5.558 16.1549 4.0201 14.6088 2.3556 14.0205 1.7677 11.6518 1.4345 10.3089 1.9238 10 3.2595 10Z" stroke="currentColor" stroke-linejoin="round" stroke-width="2"/>
  <path d="M15.4167 10C15.4167 8.5074 13.8334 7.4902 12.5 8.0768M8.3333 5.8043C8.0392 5.4102 7.6104 5.1237 7.1158 5.0143 5.5219 4.6617 4.0842 6.3819 4.7626 7.9157 3.7238 8.0344 2.9167 8.9223 2.9167 10M13.5767 7.9023C14.2278 6.4018 12.8488 4.6535 11.2176 5.0143 10.8207 2.773 7.5126 2.773 7.1158 5.0143" stroke="currentColor" stroke-linecap="round" stroke-linejoin="round" stroke-width="2"/>
  <path d="M14.1667 7.5L18.3333 2.5" stroke="currentColor" stroke-linecap="round" stroke-linejoin="round" stroke-width="2"/>
  <path d="M13.3333 5L15 1.6667" stroke="currentColor" stroke-linecap="round" stroke-linejoin="round" stroke-width="2"/>
</svg>
