<svg xmlns="http://www.w3.org/2000/svg" width="20" height="20" viewBox="0 0 20 20" fill="none">
  <path d="M3.3333 6.6667V5.404C3.3333 3.1479 3.3333 2.0199 3.9924 1.7273 4.6515 1.4347 5.4362 2.2145 7.0055 3.7739L16.0696 12.7809C17.7267 14.4276 18.5553 15.251 18.2819 15.9588 18.0085 16.6667 16.8619 16.6667 14.5688 16.6667H13.3333M10.8333 18.3333C10.8333 17.5477 10.8333 17.1548 10.5893 16.9108 10.3452 16.6667 9.9523 16.6667 9.1667 16.6667H5.5046C4.4811 16.6667 3.9693 16.6667 3.6513 16.3363 3.3333 16.006 3.3333 15.4743 3.3333 14.411V10.8333C3.3333 10.0477 3.3333 9.6548 3.0893 9.4108 2.8452 9.1667 2.4523 9.1667 1.6667 9.1667" stroke="currentColor" stroke-linecap="round" stroke-linejoin="round" stroke-width="2"/>
  <path d="M3.3333 12.5H4.1667C5.738 12.5 6.5237 12.5 7.0118 12.9882 7.5 13.4763 7.5 14.262 7.5 15.8333V16.6667" stroke="currentColor" stroke-linecap="round" stroke-width="2"/>
</svg>
