<svg xmlns="http://www.w3.org/2000/svg" width="20" height="20" viewBox="0 0 20 20" fill="none">
  <path d="M2.5 4.5833L10.8333 4.5833" stroke="currentColor" stroke-linecap="round" stroke-width="2"/>
  <path d="M15.5 14.0772C14.6111 14.6725 14.1667 14.9702 14.1667 15.4167 14.1667 15.8632 14.6111 16.1608 15.5 16.7562 16.3889 17.3515 16.8333 17.6491 17.1667 17.4259 17.5 17.2027 17.5 16.6073 17.5 15.4167 17.5 14.226 17.5 13.6307 17.1667 13.4074 16.8333 13.1843 16.3889 13.4818 15.5 14.0772Z" stroke="currentColor" stroke-linecap="round" stroke-width="2"/>
  <path d="M15.5 3.2439C14.6111 3.8392 14.1667 4.1368 14.1667 4.5833 14.1667 5.0298 14.6111 5.3275 15.5 5.9228 16.3889 6.5181 16.8333 6.8158 17.1667 6.5925 17.5 6.3693 17.5 5.774 17.5 4.5833 17.5 3.3927 17.5 2.7974 17.1667 2.5741 16.8333 2.3509 16.3889 2.6485 15.5 3.2439Z" stroke="currentColor" stroke-linecap="round" stroke-width="2"/>
  <path d="M2.5 10L10.8333 10" stroke="currentColor" stroke-linecap="round" stroke-width="2"/>
  <path d="M2.5 15.4167L10.8333 15.4167" stroke="currentColor" stroke-linecap="round" stroke-width="2"/>
</svg>
