<svg xmlns="http://www.w3.org/2000/svg" width="20" height="20" viewBox="0 0 20 20" fill="none">
  <path d="M10 1.6667C5.3976 1.6667 1.6667 5.3976 1.6667 10 1.6667 14.6023 5.3976 18.3333 10 18.3333 14.6023 18.3333 18.3333 14.6023 18.3333 10 18.3333 5.3976 14.6023 1.6667 10 1.6667Z" stroke="currentColor" stroke-linecap="round" stroke-linejoin="round" stroke-width="2"/>
  <path d="M5.4167 11.25C5.4167 12.6308 6.536 13.75 7.9167 13.75 8.7863 13.75 9.5521 13.306 10 12.6324 10.4479 13.306 11.2138 13.75 12.0833 13.75 13.4641 13.75 14.5833 12.6308 14.5833 11.25 14.5833 9.9603 13.6067 8.8987 12.3527 8.7643 12.448 8.4997 12.5 8.2142 12.5 7.9167 12.5 6.536 11.3808 5.4167 10 5.4167 8.6193 5.4167 7.5 6.536 7.5 7.9167 7.5 8.2142 7.552 8.4997 7.6474 8.7643 6.3933 8.8987 5.4167 9.9603 5.4167 11.25Z" stroke="currentColor" stroke-linecap="round" stroke-linejoin="round" stroke-width="2"/>
</svg>
