<svg xmlns="http://www.w3.org/2000/svg" width="20" height="20" viewBox="0 0 20 20" fill="none">
  <path d="M10.4167 2.0833H9.5833C6.0478 2.0833 4.28 2.0833 3.1817 3.1817 2.0833 4.28 2.0833 6.0478 2.0833 9.5833V10.4167C2.0833 13.9522 2.0833 15.72 3.1817 16.8183 4.28 17.9167 6.0478 17.9167 9.5833 17.9167H10.4167C13.9522 17.9167 15.72 17.9167 16.8183 16.8183 17.9167 15.72 17.9167 13.9522 17.9167 10.4167V9.5833C17.9167 6.0478 17.9167 4.28 16.8183 3.1817 15.72 2.0833 13.9522 2.0833 10.4167 2.0833Z" stroke="currentColor" stroke-linecap="round" stroke-linejoin="round" stroke-width="2"/>
  <path d="M15.8333 8.75V9.5833C15.8333 10.9641 14.7141 12.0833 13.3333 12.0833" stroke="currentColor" stroke-linecap="round" stroke-linejoin="round" stroke-width="2"/>
  <path d="M9.1667 7.0833V10.4167C9.1667 10.8769 9.5397 11.25 10 11.25H10.8333C11.2936 11.25 11.6667 10.8769 11.6667 10.4167" stroke="currentColor" stroke-linecap="round" stroke-linejoin="round" stroke-width="2"/>
  <path d="M6.6667 7.0833V10.4167C6.6667 10.8769 6.2936 11.25 5.8333 11.25H5C4.5398 11.25 4.1667 10.8769 4.1667 10.4167" stroke="currentColor" stroke-linecap="round" stroke-linejoin="round" stroke-width="2"/>
  <path d="M9.2917 13.4167H9.25M11.6237 13.4167H11.582M9.3333 13.4167C9.3333 13.4627 9.296 13.5 9.25 13.5 9.204 13.5 9.1667 13.4627 9.1667 13.4167 9.1667 13.3707 9.204 13.3333 9.25 13.3333 9.296 13.3333 9.3333 13.3707 9.3333 13.4167ZM11.6653 13.4167C11.6653 13.4627 11.6281 13.5 11.582 13.5 11.536 13.5 11.4987 13.4627 11.4987 13.4167 11.4987 13.3707 11.536 13.3333 11.582 13.3333 11.6281 13.3333 11.6653 13.3707 11.6653 13.4167Z" stroke="currentColor" stroke-linecap="round" stroke-linejoin="round" stroke-width="2"/>
</svg>
