<svg xmlns="http://www.w3.org/2000/svg" width="20" height="20" viewBox="0 0 20 20" fill="none">
  <path d="M12.9167 2.0833C12.9167 4.4404 12.9167 5.6189 13.6489 6.3511 14.3812 7.0833 15.5597 7.0833 17.9167 7.0833" stroke="currentColor" stroke-linecap="round" stroke-width="2"/>
  <path d="M12.9167 17.9167C12.9167 15.5597 12.9167 14.3812 13.6489 13.6489 14.3812 12.9167 15.5597 12.9167 17.9167 12.9167" stroke="currentColor" stroke-linecap="round" stroke-width="2"/>
  <path d="M7.0833 2.0833C7.0833 4.4404 7.0833 5.6189 6.3511 6.3511 5.6189 7.0833 4.4404 7.0833 2.0833 7.0833" stroke="currentColor" stroke-linecap="round" stroke-width="2"/>
  <path d="M7.0833 17.9167C7.0833 15.5597 7.0833 14.3812 6.3511 13.6489 5.6189 12.9167 4.4404 12.9167 2.0833 12.9167" stroke="currentColor" stroke-linecap="round" stroke-width="2"/>
  <path d="M12.5 10.0001C12.5 11.3808 11.3808 12.5001 10 12.5001 8.6193 12.5001 7.5 11.3808 7.5 10.0001 7.5 8.6194 8.6193 7.5001 10 7.5001 11.3808 7.5001 12.5 8.6194 12.5 10.0001Z" stroke="currentColor" stroke-linecap="round" stroke-width="2"/>
  <path d="M10 2.0833V3.75" stroke="currentColor" stroke-linecap="round" stroke-linejoin="round" stroke-width="2"/>
  <path d="M17.9167 10L16.25 10" stroke="currentColor" stroke-linecap="round" stroke-linejoin="round" stroke-width="2"/>
  <path d="M10 16.25V17.9167" stroke="currentColor" stroke-linecap="round" stroke-linejoin="round" stroke-width="2"/>
  <path d="M3.75 10L2.0833 10" stroke="currentColor" stroke-linecap="round" stroke-linejoin="round" stroke-width="2"/>
</svg>
