<svg xmlns="http://www.w3.org/2000/svg" width="20" height="20" viewBox="0 0 20 20" fill="none">
  <path d="M17.357 4.3096C16.3808 3.3333 14.8093 3.3333 11.6667 3.3333L8.3333 3.3333C5.1906 3.3333 3.6193 3.3333 2.643 4.3096M17.357 4.3096C18.3333 5.286 18.3333 6.8573 18.3333 10 18.3333 13.1427 18.3333 14.7141 17.357 15.6903M17.357 4.3096C17.357 4.3096 17.357 4.3096 17.357 4.3096ZM2.643 4.3096C1.6667 5.286 1.6667 6.8573 1.6667 10 1.6667 13.1427 1.6667 14.7141 2.643 15.6903M2.643 4.3096C2.643 4.3096 2.643 4.3096 2.643 4.3096ZM2.643 15.6903C3.6193 16.6667 5.1906 16.6667 8.3333 16.6667H11.6667C14.8093 16.6667 16.3808 16.6667 17.357 15.6903M2.643 15.6903C2.643 15.6903 2.643 15.6903 2.643 15.6903ZM17.357 15.6903C17.357 15.6903 17.357 15.6903 17.357 15.6903Z" stroke="currentColor" stroke-linejoin="round" stroke-width="2"/>
  <path d="M10.8333 10L9.1667 10" stroke="currentColor" stroke-linecap="round" stroke-linejoin="round" stroke-width="2"/>
  <path d="M15.4167 10L13.75 10" stroke="currentColor" stroke-linecap="round" stroke-linejoin="round" stroke-width="2"/>
  <path d="M6.25 10L4.5833 10" stroke="currentColor" stroke-linecap="round" stroke-linejoin="round" stroke-width="2"/>
</svg>
