<svg xmlns="http://www.w3.org/2000/svg" width="20" height="20" viewBox="0 0 20 20" fill="none">
  <path d="M4.3096 2.6429C3.3333 3.6192 3.3333 5.1906 3.3333 8.3333L3.3333 11.6666C3.3333 14.8093 3.3333 16.3807 4.3096 17.3569M4.3096 2.6429C5.286 1.6666 6.8573 1.6666 10 1.6666 13.1427 1.6666 14.7141 1.6666 15.6903 2.6429M4.3096 2.6429C4.3096 2.6429 4.3096 2.6429 4.3096 2.6429ZM4.3096 17.3569C5.286 18.3332 6.8573 18.3332 10 18.3332 13.1427 18.3332 14.7141 18.3332 15.6903 17.3569M4.3096 17.3569C4.3096 17.3569 4.3096 17.3569 4.3096 17.3569ZM15.6903 17.3569C16.6667 16.3807 16.6667 14.8093 16.6667 11.6666L16.6667 8.3333C16.6667 5.1906 16.6667 3.6192 15.6903 2.6429M15.6903 17.3569C15.6903 17.3569 15.6903 17.3569 15.6903 17.3569ZM15.6903 2.6429C15.6903 2.6429 15.6903 2.6429 15.6903 2.6429Z" stroke="currentColor" stroke-linejoin="round" stroke-width="2"/>
  <path d="M10 9.1666L10 10.8333" stroke="currentColor" stroke-linecap="round" stroke-linejoin="round" stroke-width="2"/>
  <path d="M10 4.5833L10 6.2499" stroke="currentColor" stroke-linecap="round" stroke-linejoin="round" stroke-width="2"/>
  <path d="M10 13.7499L10 15.4166" stroke="currentColor" stroke-linecap="round" stroke-linejoin="round" stroke-width="2"/>
</svg>
