<svg xmlns="http://www.w3.org/2000/svg" width="20" height="20" viewBox="0 0 20 20" fill="none">
  <path d="M15.8333 13.3333L14.1667 13.3333M10.8333 13.3333L9.1667 13.3333M5.8333 13.3333L4.1667 13.3333" stroke="currentColor" stroke-linecap="round" stroke-linejoin="round" stroke-width="2"/>
  <path d="M13.3333 4.8755C13.3333 7.1042 10.8696 8.7217 10.1783 9.1187 10.0668 9.1827 9.9332 9.1827 9.8217 9.1187 9.1304 8.7217 6.6667 7.1042 6.6667 4.8755 6.6667 3.1667 8.1591 1.6667 10 1.6667 11.8409 1.6667 13.3333 3.1667 13.3333 4.8755Z" stroke="currentColor" stroke-linecap="round" stroke-linejoin="round" stroke-width="2"/>
  <path d="M15 8.3333C16.2945 8.3724 17.0667 8.517 17.6011 9.0522 18.3333 9.7855 18.3333 10.9657 18.3333 13.3261 18.3333 15.6865 18.3333 16.8668 17.6011 17.6001 16.8688 18.3333 15.6903 18.3333 13.3333 18.3333H6.6667C4.3096 18.3333 3.1311 18.3333 2.3989 17.6001 1.6667 16.8668 1.6667 15.6865 1.6667 13.3261 1.6667 10.9657 1.6667 9.7855 2.3989 9.0522 2.9333 8.517 3.7055 8.3724 5 8.3333" stroke="currentColor" stroke-linecap="round" stroke-linejoin="round" stroke-width="2"/>
  <path d="M10.1123 5H10.0082M10.2165 5C10.2165 5.1151 10.1232 5.2083 10.0082 5.2083 9.8931 5.2083 9.7998 5.1151 9.7998 5 9.7998 4.8849 9.8931 4.7917 10.0082 4.7917 10.1232 4.7917 10.2165 4.8849 10.2165 5Z" stroke="currentColor" stroke-linecap="round" stroke-linejoin="round" stroke-width="2"/>
</svg>
