<svg xmlns="http://www.w3.org/2000/svg" width="20" height="20" viewBox="0 0 20 20" fill="none">
  <path d="M15 8.4017C16.2945 8.4407 17.0667 8.5853 17.6011 9.1205 18.3333 9.8538 18.3333 11.034 18.3333 13.3945 18.3333 15.7549 18.3333 16.9351 17.6011 17.6684 16.8688 18.4017 15.6903 18.4017 13.3333 18.4017H6.6667C4.3096 18.4017 3.1311 18.4017 2.3989 17.6684 1.6667 16.9351 1.6667 15.7549 1.6667 13.3945 1.6667 11.034 1.6667 9.8538 2.3989 9.1205 2.9333 8.5853 3.7055 8.4407 5 8.4017" stroke="currentColor" stroke-linecap="round" stroke-linejoin="round" stroke-width="2"/>
  <path d="M15.8333 13.4017L14.1667 13.4017M10.8333 13.4017L9.1667 13.4017M5.8333 13.4017L4.1667 13.4017" stroke="currentColor" stroke-linecap="round" stroke-linejoin="round" stroke-width="2"/>
  <path d="M10 1.735C8.2741 1.735 6.875 3.0917 6.875 4.7653 6.875 5.7222 7.2656 6.4663 8.0469 7.1309 8.5976 7.5994 9.5995 8.6043 10 9.235 10.4208 8.6168 11.4024 7.5994 11.9532 7.1309 12.7343 6.4663 13.125 5.7222 13.125 4.7653 13.125 3.0917 11.7259 1.735 10 1.735Z" stroke="currentColor" stroke-linecap="round" stroke-linejoin="round" stroke-width="2"/>
  <path d="M10.1123 4.6517H10.0082M10.2165 4.6517C10.2165 4.7668 10.1232 4.86 10.0082 4.86 9.8931 4.86 9.7998 4.7668 9.7998 4.6517 9.7998 4.5366 9.8931 4.4434 10.0082 4.4434 10.1232 4.4434 10.2165 4.5366 10.2165 4.6517Z" stroke="currentColor" stroke-linecap="round" stroke-linejoin="round" stroke-width="2"/>
</svg>
