<svg xmlns="http://www.w3.org/2000/svg" width="20" height="20" viewBox="0 0 20 20" fill="none">
  <path d="M1.6667 18.3316V9.9962" stroke="currentColor" stroke-linecap="round" stroke-linejoin="round" stroke-width="2"/>
  <path d="M18.3333 18.3316V9.9962" stroke="currentColor" stroke-linecap="round" stroke-linejoin="round" stroke-width="2"/>
  <path d="M10 18.3312V17.4981" stroke="currentColor" stroke-linecap="round" stroke-linejoin="round" stroke-width="2"/>
  <path d="M10 14.997V14.1639" stroke="currentColor" stroke-linecap="round" stroke-linejoin="round" stroke-width="2"/>
  <path d="M4.7711 4.712L5.4627 5.3445M5.4627 5.3445C5.5954 5.1208 5.8253 4.7291 5.9015 4.484 6.5672 2.3424 6.6262 1.7525 7.6542 1.6682H12.3432C13.3713 1.7525 13.4302 2.3424 14.0959 4.484 14.1721 4.7291 14.3605 5.1208 14.4932 5.3445M5.4627 5.3445C4.9588 6.1939 4.2911 6.7497 4.191 7.4836 4.1747 7.6037 4.191 8.9432 4.191 9.915 4.191 10.6452 4.8943 10.6229 5.5795 10.6798 6.0149 10.7158 6.451 10.7948 6.8879 10.7993 9.3094 10.824 10.9105 10.8266 13.3059 10.8005 13.7691 10.7954 14.2358 10.7083 14.6975 10.6692 15.2188 10.6249 15.7637 10.5662 15.8064 9.915 15.87 8.9442 15.8228 7.6037 15.8064 7.4836 15.7063 6.7497 14.9971 6.1939 14.4932 5.3445M5.4627 5.3445H14.4932M14.4932 5.3445L15.3033 4.712M4.3364 7.0245L5.3434 7.7909M8.7984 8.7593L11.2473 8.7593M14.6834 7.772L15.7957 7.4173M5.9015 10.7125L5.8365 12.0823M14.1518 10.7296V12.0823" stroke="currentColor" stroke-linecap="round" stroke-width="2"/>
</svg>
