<svg xmlns="http://www.w3.org/2000/svg" width="20" height="20" viewBox="0 0 20 20" fill="none">
  <path d="M10 3.3333V1.6667" stroke="currentColor" stroke-linecap="round" stroke-linejoin="round" stroke-width="2"/>
  <path d="M16.6667 18.3333C16.6667 14.6514 13.6819 11.6667 10 11.6667 6.3181 11.6667 3.3333 14.6514 3.3333 18.3333" stroke="currentColor" stroke-linecap="round" stroke-linejoin="round" stroke-width="2"/>
  <path d="M7.8125 6.875H7.7083M7.9167 6.875C7.9167 6.9901 7.8234 7.0833 7.7083 7.0833 7.5933 7.0833 7.5 6.9901 7.5 6.875 7.5 6.7599 7.5933 6.6667 7.7083 6.6667 7.8234 6.6667 7.9167 6.7599 7.9167 6.875Z" stroke="currentColor" stroke-linecap="round" stroke-linejoin="round" stroke-width="2"/>
  <path d="M12.3958 6.875H12.2917M12.5 6.875C12.5 6.9901 12.4068 7.0833 12.2917 7.0833 12.1766 7.0833 12.0833 6.9901 12.0833 6.875 12.0833 6.7599 12.1766 6.6667 12.2917 6.6667 12.4068 6.6667 12.5 6.7599 12.5 6.875Z" stroke="currentColor" stroke-linecap="round" stroke-linejoin="round" stroke-width="2"/>
  <path d="M12.6282 3.3333H7.3718C6.3258 3.3333 5.8028 3.3333 5.395 3.5169 4.9308 3.7258 4.5591 4.0974 4.3502 4.5616 4.1667 4.9695 4.1667 5.4925 4.1667 6.5385 4.1667 8.2121 4.1667 9.0488 4.4603 9.7014 4.7946 10.4441 5.3892 11.0388 6.132 11.373 6.7845 11.6667 7.6213 11.6667 9.2948 11.6667H10.7052C12.3788 11.6667 13.2155 11.6667 13.8681 11.373 14.6108 11.0388 15.2054 10.4441 15.5397 9.7014 15.8333 9.0488 15.8333 8.2121 15.8333 6.5385 15.8333 5.4925 15.8333 4.9695 15.6497 4.5616 15.4408 4.0974 15.0693 3.7258 14.605 3.5169 14.1973 3.3333 13.6742 3.3333 12.6282 3.3333Z" stroke="currentColor" stroke-linecap="round" stroke-linejoin="round" stroke-width="2"/>
</svg>
