<svg xmlns="http://www.w3.org/2000/svg" width="20" height="20" viewBox="0 0 20 20" fill="none">
  <path d="M15.8333 13.3333V11.6667C15.8333 9.3097 15.8333 8.1311 15.1011 7.3989 14.3688 6.6667 13.1903 6.6667 10.8333 6.6667H9.1667C6.8096 6.6667 5.6311 6.6667 4.8989 7.3989 4.1667 8.1311 4.1667 9.3097 4.1667 11.6667V13.3333C4.1667 15.6903 4.1667 16.8688 4.8989 17.6011 5.6311 18.3333 6.8096 18.3333 9.1667 18.3333H10.8333C13.1903 18.3333 14.3688 18.3333 15.1011 17.6011 15.8333 16.8688 15.8333 15.6903 15.8333 13.3333Z" stroke="currentColor" stroke-linejoin="round" stroke-width="2"/>
  <path d="M15.8333 15C17.0118 15 17.6011 15 17.9672 14.6339 18.3333 14.2678 18.3333 13.6785 18.3333 12.5 18.3333 11.3215 18.3333 10.7323 17.9672 10.3661 17.6011 10 17.0118 10 15.8333 10" stroke="currentColor" stroke-linejoin="round" stroke-width="2"/>
  <path d="M4.1667 15C2.9882 15 2.3989 15 2.0328 14.6339 1.6667 14.2678 1.6667 13.6785 1.6667 12.5 1.6667 11.3215 1.6667 10.7323 2.0328 10.3661 2.3989 10 2.9882 10 4.1667 10" stroke="currentColor" stroke-linejoin="round" stroke-width="2"/>
  <path d="M11.25 2.9167C11.25 3.607 10.6903 4.1667 10 4.1667 9.3097 4.1667 8.75 3.607 8.75 2.9167 8.75 2.2263 9.3097 1.6667 10 1.6667 10.6903 1.6667 11.25 2.2263 11.25 2.9167Z" stroke="currentColor" stroke-width="2"/>
  <path d="M10 4.1667V6.6667" stroke="currentColor" stroke-linecap="round" stroke-linejoin="round" stroke-width="2"/>
  <path d="M7.5 10.8333V11.6667" stroke="currentColor" stroke-linecap="round" stroke-linejoin="round" stroke-width="2"/>
  <path d="M12.5 10.8333V11.6667" stroke="currentColor" stroke-linecap="round" stroke-linejoin="round" stroke-width="2"/>
  <path d="M8.3333 14.5833C8.3333 14.5833 8.8889 15 10 15 11.1111 15 11.6667 14.5833 11.6667 14.5833" stroke="currentColor" stroke-linecap="round" stroke-width="2"/>
</svg>
