<svg xmlns="http://www.w3.org/2000/svg" width="20" height="20" viewBox="0 0 20 20" fill="none">
  <path d="M1.6667 14.1667C3.7138 16.2125 6.6888 17.5 10 17.5 13.3112 17.5 16.2862 16.2125 18.3333 14.1667" stroke="currentColor" stroke-linecap="round" stroke-linejoin="round" stroke-width="2"/>
  <path d="M17.0833 14.5833L15.7871 13.071C15.0103 12.1647 14.5833 11.0106 14.5833 9.8171V7.5L15 6.6667 17.5 7.5 18.3333 6.25 15.4167 3.75V2.5L14.1667 3.75C14.1667 3.75 12.2984 4.6841 11.792 7.0908 11.6498 7.7663 11.107 8.3333 10.4167 8.3333H8.3683C7.1984 8.3333 6.25 9.2818 6.25 10.4517 6.25 11.2457 6.0269 12.0237 5.606 12.697L3.75 15.4167" stroke="currentColor" stroke-linecap="round" stroke-linejoin="round" stroke-width="2"/>
  <path d="M7.0833 8.75C7.0833 8.75 6.5578 8.5322 6.2604 7.9374 5.963 7.3426 5.4637 7.0833 4.8784 7.0833 4.0251 7.0833 3.3333 7.7751 3.3333 8.6284V9.6548C3.3333 10.4094 3.0336 11.1331 2.5 11.6667" stroke="currentColor" stroke-linecap="round" stroke-linejoin="round" stroke-width="2"/>
  <path d="M15.8333 15.8333L13.7819 13.5255C12.9665 12.6082 11.7978 12.0833 10.5705 12.0833 9.1683 12.0833 7.8545 12.7674 7.0504 13.9161L5.4167 16.25" stroke="currentColor" stroke-linecap="round" stroke-linejoin="round" stroke-width="2"/>
</svg>
