<svg xmlns="http://www.w3.org/2000/svg" width="20" height="20" viewBox="0 0 20 20" fill="none">
  <path d="M9.8344 5.4079L11.0724 4.1699C12.4663 2.776 14.2912 2.1978 16.2226 2.1033 16.9738 2.0666 17.3494 2.0482 17.6506 2.3494 17.9518 2.6506 17.9334 3.0262 17.8967 3.7774 17.8022 5.7088 17.224 7.5337 15.8301 8.9276L14.5921 10.1656C13.5726 11.1851 13.2828 11.475 13.4968 12.5808 13.708 13.4256 13.9124 14.2436 13.2982 14.8578 12.5531 15.6029 11.8734 15.6029 11.1283 14.8578L5.1421 8.8717C4.3971 8.1266 4.3971 7.4469 5.1421 6.7018 5.7564 6.0876 6.5744 6.292 7.4191 6.5032 8.525 6.7173 8.8149 6.4274 9.8344 5.4079Z" stroke="currentColor" stroke-linejoin="round" stroke-width="2"/>
  <path d="M2.0833 17.9167L6.25 13.75" stroke="currentColor" stroke-linecap="round" stroke-width="2"/>
  <path d="M7.0833 17.9167L8.75 16.25" stroke="currentColor" stroke-linecap="round" stroke-width="2"/>
  <path d="M2.0833 12.9167L3.75 11.25" stroke="currentColor" stroke-linecap="round" stroke-width="2"/>
  <path d="M14.2708 5.8333H14.1667M14.375 5.8333C14.375 5.9484 14.2818 6.0417 14.1667 6.0417 14.0516 6.0417 13.9583 5.9484 13.9583 5.8333 13.9583 5.7183 14.0516 5.625 14.1667 5.625 14.2818 5.625 14.375 5.7183 14.375 5.8333Z" stroke="currentColor" stroke-linecap="round" stroke-linejoin="round" stroke-width="2"/>
</svg>
