<svg xmlns="http://www.w3.org/2000/svg" width="20" height="20" viewBox="0 0 20 20" fill="none">
  <path d="M6.6667 8.4723L10.1027 5.0362C11.0401 4.0988 11.5087 3.6301 12.026 3.2526 13.0873 2.4781 14.3182 1.9682 15.6163 1.7655 16.249 1.6667 16.9118 1.6667 18.2375 1.6667 18.3068 1.6667 18.3333 1.6984 18.3333 1.7625 18.3333 3.0882 18.3333 3.751 18.2345 4.3837 18.0318 5.6818 17.5219 6.9127 16.7474 7.974 16.3699 8.4913 15.9012 8.9599 14.9638 9.8973L11.5277 13.3333" stroke="currentColor" stroke-linecap="round" stroke-linejoin="round" stroke-width="2"/>
  <path d="M8.6175 6.7487C7.1984 6.7487 5.4148 6.448 4.0869 6.9981 3.1139 7.4011 2.398 8.3343 1.6667 9.0656L4.4216 10.2463C5.1517 10.5592 4.7054 11.4805 4.5846 12.0848 4.4499 12.7583 4.4574 12.7831 4.943 13.2687L6.7313 15.057C7.2169 15.5426 7.2417 15.5502 7.9151 15.4154 8.5195 15.2946 9.4408 14.8483 9.7537 15.5783L10.9344 18.3333C11.6657 17.6021 12.5989 16.8861 13.0019 15.9131 13.552 14.5852 13.2513 12.8016 13.2513 11.3825" stroke="currentColor" stroke-linejoin="round" stroke-width="2"/>
  <path d="M10 16.6667L9.1667 17.5" stroke="currentColor" stroke-linecap="round" stroke-linejoin="round" stroke-width="2"/>
  <path d="M3.3333 10L2.5 10.8333" stroke="currentColor" stroke-linecap="round" stroke-linejoin="round" stroke-width="2"/>
  <path d="M12.5 3.4C13.5 3.55 14.55 3.95 15.1345 4.55 15.8813 5.2101 16.4 6.1 16.6 7.5" stroke="currentColor" stroke-linecap="square" stroke-width="2"/>
  <path d="M14.95 5.0501L13.75 6.2501" stroke="currentColor" stroke-linecap="round" stroke-width="2"/>
</svg>
