<svg xmlns="http://www.w3.org/2000/svg" width="20" height="20" viewBox="0 0 20 20" fill="none">
  <path d="M15.364 4.636C14.763 4.0351 14.0835 3.6192 13.4548 3.4232 13.1936 3.3418 13.0629 3.301 12.8063 3.3643 12.5495 3.4275 12.4083 3.5687 12.1258 3.8512L3.8512 12.1258C3.5687 12.4083 3.4275 12.5495 3.3643 12.8063 3.301 13.0629 3.3418 13.1936 3.4232 13.4548 3.6192 14.0835 4.0351 14.763 4.636 15.364 5.237 15.9649 5.9165 16.3808 6.5452 16.5768 6.8064 16.6582 6.9371 16.699 7.1938 16.6358 7.4505 16.5725 7.5917 16.4313 7.8742 16.1488L16.1488 7.8742C16.4313 7.5917 16.5725 7.4505 16.6358 7.1938 16.699 6.9371 16.6582 6.8064 16.5768 6.5452 16.3808 5.9165 15.9649 5.237 15.364 4.636Z" stroke="currentColor" stroke-linecap="round" stroke-width="2"/>
  <path d="M16.0753 5C16.8128 4.7111 17.6576 4.1573 17.9575 3.8574 18.4586 3.3562 18.4586 2.5437 17.9575 2.0425 17.4563 1.5414 16.6438 1.5414 16.1426 2.0425 15.8427 2.3424 15.2889 3.1872 15 3.9247" stroke="currentColor" stroke-width="2"/>
  <path d="M5 16.0753C4.7111 16.8128 4.1573 17.6576 3.8574 17.9575 3.3562 18.4586 2.5437 18.4586 2.0425 17.9575 1.5414 17.4563 1.5414 16.6438 2.0425 16.1426 2.3424 15.8427 3.1872 15.2889 3.9247 15" stroke="currentColor" stroke-width="2"/>
</svg>
