<svg xmlns="http://www.w3.org/2000/svg" width="20" height="20" viewBox="0 0 20 20" fill="none">
  <path d="M15 6.6667H10.4306C9.75 6.6667 9.55 6.7 9.4158 7.3867L8.295 12.0578C8.0183 13.1645 7.8755 13.3278 7.6 13.35 7.3 13.25 7.1581 12.9936 6.65 11.95L6.3626 11.3167C6.1437 10.8672 6.0713 10.6775 5.85 10.6167 5.517 10.525 5.256 10.784 5 10.95" stroke="currentColor" stroke-linecap="round" stroke-linejoin="round" stroke-width="2"/>
  <path d="M10.9196 9.5267C11.2696 9.5152 11.6496 9.5001 11.8576 9.8468 12.1437 10.4238 12.5963 11.6061 12.7646 11.9812 12.8488 12.1254 12.8996 12.2501 13.1996 12.3501 13.424 12.3789 13.7496 12.3868 13.7496 12.3868" stroke="currentColor" stroke-linecap="round" stroke-width="2"/>
  <path d="M13.9506 9.5166C13.2454 9.5166 12.8254 10.3049 12.4306 10.7989 11.9228 11.5545 11.4006 12.3999 10.7406 12.3766" stroke="currentColor" stroke-linecap="round" stroke-width="2"/>
  <path d="M15 17.5C16.0268 17.5 16.8592 16.5406 16.8592 15.3572 16.8592 13.484 16.776 12.2388 18.0611 10.7576 18.4241 10.3392 18.4241 9.6608 18.0611 9.2424 16.776 7.7613 16.8592 6.516 16.8592 4.6429 16.8592 3.4594 16.0268 2.5 15 2.5" stroke="currentColor" stroke-linecap="round" stroke-linejoin="round" stroke-width="2"/>
  <path d="M5 17.5C3.9732 17.5 3.1408 16.5406 3.1408 15.3572 3.1408 13.484 3.224 12.2388 1.9389 10.7576 1.5759 10.3392 1.5759 9.6608 1.9389 9.2424 3.1958 7.7938 3.1408 6.5333 3.1408 4.6429 3.1408 3.4594 3.9732 2.5 5 2.5" stroke="currentColor" stroke-linecap="round" stroke-linejoin="round" stroke-width="2"/>
</svg>
