<svg xmlns="http://www.w3.org/2000/svg" width="20" height="20" viewBox="0 0 20 20" fill="none">
  <path d="M6.6645 11.1562L6.1035 11.4316 6.1035 11.4316 6.6645 11.1562ZM6.9044 11.6447L6.3434 11.9202 6.9044 11.6447ZM8.5001 11.5173L7.8941 11.3645V11.3645L8.5001 11.5173ZM9.4748 7.6516L10.0808 7.8044 10.0808 7.8044 9.4748 7.6516ZM10.2961 7.0833V7.7083 7.0833ZM14.5833 7.7083C14.9285 7.7083 15.2083 7.4285 15.2083 7.0833 15.2083 6.7382 14.9285 6.4583 14.5833 6.4583V7.7083ZM7.8471 12.9157L7.7974 12.2927H7.7974L7.8471 12.9157ZM6.2059 10.5478L6.0414 11.1508 6.0414 11.1508 6.2059 10.5478ZM5.0786 10.3077C4.7883 10.4944 4.7043 10.8811 4.891 11.1714 5.0777 11.4618 5.4644 11.5458 5.7548 11.359L5.0786 10.3077ZM10.6695 11.4583C10.3243 11.4583 10.0445 11.7382 10.0445 12.0833 10.0445 12.4285 10.3243 12.7083 10.6695 12.7083V11.4583ZM13.6105 10.2083C13.9557 10.2083 14.2355 9.9285 14.2355 9.5833 14.2355 9.2382 13.9557 8.9583 13.6105 8.9583V10.2083ZM11.8711 10.2116L11.2974 10.4597 11.8711 10.2116ZM12.4089 11.4551L12.9826 11.207 12.4089 11.4551ZM12.6685 11.9153L13.0827 11.4473 13.0827 11.4473 12.6685 11.9153ZM13.4375 12.7083C13.7827 12.7083 14.0625 12.4285 14.0625 12.0833 14.0625 11.7382 13.7827 11.4583 13.4375 11.4583V12.7083ZM12.8613 12.0331L13.0923 11.4523 13.0923 11.4523 12.8613 12.0331ZM10.8425 8.9583C10.4973 8.9583 10.2175 9.2382 10.2175 9.5833 10.2175 9.9285 10.4973 10.2083 10.8425 10.2083V8.9583ZM11.4187 9.6336L11.1878 10.2143 11.4187 9.6336ZM11.6115 9.7514L12.0258 9.2834 11.6115 9.7514ZM6.1035 11.4316L6.3434 11.9202 7.4654 11.3693 7.2256 10.8807 6.1035 11.4316ZM9.1062 11.6702L10.0808 7.8044 8.8688 7.4988 7.8941 11.3645 9.1062 11.6702ZM10.2961 7.7083H14.5833V6.4583H10.2961V7.7083ZM6.3434 11.9202C6.5462 12.3332 6.7275 12.7059 6.9025 12.964 7.061 13.1978 7.3737 13.5804 7.8968 13.5387L7.7974 12.2927C8.0138 12.2754 8.0672 12.4544 7.9371 12.2624 7.8234 12.0948 7.6866 11.8198 7.4654 11.3693L6.3434 11.9202ZM7.8941 11.3645C7.7732 11.8438 7.6988 12.1323 7.6245 12.3118 7.5887 12.3982 7.5736 12.4055 7.5925 12.3856 7.6271 12.3491 7.7011 12.3003 7.7974 12.2927L7.8968 13.5387C8.4348 13.4958 8.6718 13.0501 8.7795 12.7898 8.8973 12.5052 8.9961 12.1067 9.1062 11.6702L7.8941 11.3645ZM7.2256 10.8807C7.1429 10.7124 7.0515 10.5224 6.9498 10.3756 6.8336 10.2078 6.6559 10.0227 6.3704 9.9448L6.0414 11.1508C6.0006 11.1396 5.9634 11.1193 5.936 11.0971 5.9132 11.0786 5.9091 11.0683 5.9221 11.0871 5.9356 11.1066 5.9564 11.1409 5.9887 11.2024 6.0209 11.2635 6.0567 11.3363 6.1035 11.4316L7.2256 10.8807ZM10.0808 7.8044C10.1069 7.7008 10.1262 7.6596 10.1318 7.6492 10.1325 7.6482 10.1143 7.6786 10.0722 7.7052 10.0363 7.7277 10.0186 7.7246 10.0581 7.7187 10.1018 7.7123 10.1717 7.7083 10.2961 7.7083V6.4583C10.0628 6.4583 9.706 6.4587 9.4063 6.6473 9.0662 6.8613 8.9408 7.2129 8.8688 7.4988L10.0808 7.8044ZM5.7548 11.359C5.7847 11.3398 5.8169 11.3184 5.8436 11.3009 5.8719 11.2823 5.8979 11.2654 5.9235 11.2493 5.9756 11.2166 6.0173 11.193 6.0525 11.1765 6.1348 11.1379 6.1129 11.1702 6.0414 11.1508L6.3704 9.9448C6.021 9.8495 5.7113 9.9559 5.5219 10.0447 5.3363 10.1317 5.153 10.2598 5.0786 10.3077L5.7548 11.359ZM10.6695 12.7083C11.2006 12.7083 11.6072 12.4218 11.8957 12.1391 12.1829 11.8576 12.4375 11.4947 12.6501 11.1946L11.63 10.4721C11.3999 10.7969 11.2118 11.0591 11.0207 11.2463 10.831 11.4323 10.7237 11.4583 10.6695 11.4583V12.7083ZM12.6501 11.1946C12.8801 10.8697 13.0682 10.6076 13.2592 10.4203 13.449 10.2343 13.5564 10.2083 13.6105 10.2083V8.9583C13.0794 8.9583 12.6728 9.2448 12.3843 9.5276 12.0972 9.8091 11.8426 10.1719 11.63 10.4721L12.6501 11.1946ZM11.2974 10.4597L11.5663 11.0814 12.7137 10.5853 12.4448 9.9634 11.2974 10.4597ZM11.5663 11.0814L11.8353 11.7033 12.9826 11.207 12.7137 10.5853 11.5663 11.0814ZM11.8353 11.7033C11.9198 11.8986 12.0276 12.1826 12.2543 12.3833L13.0827 11.4473C13.1079 11.4696 13.1116 11.4851 13.0932 11.4507 13.083 11.4318 13.0697 11.4045 13.0506 11.3623 13.0314 11.3199 13.0101 11.2706 12.9826 11.207L11.8353 11.7033ZM13.4375 11.4583C13.2791 11.4583 13.1918 11.458 13.1276 11.4536 13.0709 11.4496 13.0726 11.4445 13.0923 11.4523L12.6304 12.6138C12.8951 12.7191 13.1922 12.7083 13.4375 12.7083V11.4583ZM12.2543 12.3833C12.3661 12.4823 12.4941 12.5596 12.6304 12.6138L13.0923 11.4523C13.0851 11.4494 13.0823 11.4469 13.0827 11.4473L12.2543 12.3833ZM10.8425 10.2083C11.0009 10.2083 11.0883 10.2087 11.1525 10.2131 11.2091 10.2171 11.2074 10.2222 11.1878 10.2143L11.6496 9.0528C11.3849 8.9476 11.0878 8.9583 10.8425 8.9583V10.2083ZM12.4448 9.9634C12.3603 9.7681 12.2524 9.4841 12.0258 9.2834L11.1973 10.2193C11.1722 10.1971 11.1684 10.1816 11.1869 10.216 11.197 10.2348 11.2103 10.2622 11.2294 10.3044 11.2486 10.3468 11.2699 10.3961 11.2974 10.4597L12.4448 9.9634ZM11.1878 10.2143C11.1949 10.2172 11.1977 10.2198 11.1973 10.2193L12.0258 9.2834C11.9139 9.1843 11.786 9.1071 11.6496 9.0528L11.1878 10.2143Z" fill="currentColor"/>
  <circle cx="10" cy="10" r="8.333333333333334" stroke="currentColor" stroke-width="2"/>
</svg>
