<svg xmlns="http://www.w3.org/2000/svg" width="20" height="20" viewBox="0 0 20 20" fill="none">
  <path d="M14.7708 2.0833C15.9288 2.2115 16.7082 2.5012 17.2899 3.1559 18.3333 4.3301 18.3333 6.2201 18.3333 10 18.3333 13.7799 18.3333 15.6698 17.2899 16.8442 16.7082 17.4988 15.9288 17.7885 14.7708 17.9167M5.2292 17.9167C4.0713 17.7885 3.2918 17.4988 2.7101 16.8442 1.6667 15.6698 1.6667 13.7799 1.6667 10 1.6667 6.2201 1.6667 4.3301 2.7101 3.1559 3.2918 2.5012 4.0713 2.2115 5.2292 2.0833" stroke="currentColor" stroke-linecap="round" stroke-linejoin="round" stroke-width="2"/>
  <path d="M15 6.6667H10.4306C9.75 6.6667 9.55 6.7 9.4158 7.3867L8.295 12.0578C8.0183 13.1645 7.8755 13.3278 7.6 13.35 7.3 13.25 7.1581 12.9936 6.65 11.95L6.3626 11.3167C6.1437 10.8672 6.0713 10.6775 5.85 10.6167 5.517 10.525 5.256 10.784 5 10.95" stroke="currentColor" stroke-linecap="round" stroke-linejoin="round" stroke-width="2"/>
  <path d="M10.9196 9.5267C11.2696 9.5152 11.6496 9.5001 11.8576 9.8468 12.1437 10.4238 12.5963 11.6061 12.7646 11.9812 12.8488 12.1254 12.8996 12.2501 13.1996 12.3501 13.424 12.3789 13.7496 12.3868 13.7496 12.3868" stroke="currentColor" stroke-linecap="round" stroke-width="2"/>
  <path d="M13.9506 9.5166C13.2454 9.5166 12.8254 10.3049 12.4306 10.7989 11.9228 11.5545 11.4006 12.3999 10.7406 12.3766" stroke="currentColor" stroke-linecap="round" stroke-width="2"/>
</svg>
