<svg xmlns="http://www.w3.org/2000/svg" width="20" height="20" viewBox="0 0 20 20" fill="none">
  <path d="M18.3333 4.1667H11.3448C10.3165 4.1667 9.9708 4.2832 9.7158 5.3033L7.7826 13.0347C7.3246 14.8665 7.0955 15.7824 6.4873 15.8313 5.8791 15.8803 5.4586 15.0167 4.6175 13.2893L4.1418 12.3123C3.7795 11.5683 3.5984 11.1963 3.2321 11.0956 2.6809 10.9439 2.0903 11.3919 1.6667 11.6667" stroke="currentColor" stroke-linecap="round" stroke-linejoin="round" stroke-width="2"/>
  <path d="M12.0003 9.17C12.6503 9.1 13.4448 9.1988 13.7003 9.7 14.2103 10.7 15.0503 12.8 15.3503 13.45 15.5003 13.7 15.6503 14 16.2503 14.15 16.6503 14.2 17.1699 14.1629 17.1699 14.1629" stroke="currentColor" stroke-linecap="round" stroke-width="2"/>
  <path d="M17.5004 9.165C16.2504 9.165 15.4504 10.55 14.7504 11.4 13.8504 12.7 12.8504 14.25 11.6504 14.15" stroke="currentColor" stroke-linecap="round" stroke-width="2"/>
</svg>
