<svg xmlns="http://www.w3.org/2000/svg" width="20" height="20" viewBox="0 0 20 20" fill="none">
  <path d="M6.3613 11.3213L5.7954 11.5866 5.7954 11.5866 6.3613 11.3213ZM6.623 11.8797L6.057 12.1448 6.623 11.8797ZM8.3638 11.7341L7.7561 11.5878V11.5878L8.3638 11.7341ZM9.427 7.3162L10.0347 7.4624V7.4624L9.427 7.3162ZM10.323 6.6667V7.2917 6.6667ZM15 7.2917C15.3452 7.2917 15.625 7.0118 15.625 6.6667 15.625 6.3215 15.3452 6.0417 15 6.0417V7.2917ZM7.6514 13.3323L7.5993 12.7094 7.5993 12.7094 7.6514 13.3323ZM5.861 10.626L5.6892 11.227 5.6892 11.227 5.861 10.626ZM4.6508 10.4341C4.3645 10.6269 4.2888 11.0153 4.4817 11.3017 4.6746 11.5879 5.063 11.6636 5.3492 11.4707L4.6508 10.4341ZM10.7304 11.7559C10.3853 11.7559 10.1054 12.0358 10.1054 12.3809 10.1054 12.7262 10.3853 13.0059 10.7304 13.0059V11.7559ZM13.9388 10.1488C14.2839 10.1488 14.5638 9.869 14.5638 9.5238 14.5638 9.1787 14.2839 8.8988 13.9388 8.8988V10.1488ZM12.0412 10.2418L11.4635 10.4802V10.4802L12.0412 10.2418ZM12.6279 11.663L13.2057 11.4245V11.4245L12.6279 11.663ZM12.9111 12.1889L13.3361 11.7307 13.3361 11.7307 12.9111 12.1889ZM13.75 13.0059C14.0952 13.0059 14.375 12.7262 14.375 12.3809 14.375 12.0358 14.0952 11.7559 13.75 11.7559V13.0059ZM13.1215 12.3235L13.3618 11.7466V11.7466L13.1215 12.3235ZM10.9191 8.8988C10.5739 8.8988 10.2941 9.1787 10.2941 9.5238 10.2941 9.869 10.5739 10.1488 10.9191 10.1488V8.8988ZM11.5476 9.5813L11.3072 10.1582V10.1582L11.5476 9.5813ZM11.758 9.7158L12.183 9.2576H12.183L11.758 9.7158ZM5.7954 11.5866L6.057 12.1448 7.1889 11.6144 6.9272 11.0561 5.7954 11.5866ZM8.9714 11.8803L10.0347 7.4624 8.8193 7.1699 7.7561 11.5878 8.9714 11.8803ZM10.323 7.2917H15V6.0417H10.323V7.2917ZM6.057 12.1448C6.2796 12.6198 6.4741 13.0381 6.6605 13.3262 6.8252 13.5806 7.1503 14.0013 7.7034 13.955L7.5993 12.7094C7.8179 12.6911 7.8601 12.8791 7.7099 12.6469 7.5814 12.4484 7.4289 12.1265 7.1889 11.6144L6.057 12.1448ZM7.7561 11.5878C7.6252 12.1319 7.5419 12.4714 7.4573 12.6855 7.3584 12.9357 7.3695 12.7286 7.5993 12.7094L7.7034 13.955C8.2678 13.9078 8.5091 13.4251 8.6198 13.1449 8.7448 12.8287 8.8504 12.383 8.9714 11.8803L7.7561 11.5878ZM6.9272 11.0561C6.8359 10.8612 6.7396 10.6519 6.6334 10.4912 6.5148 10.3118 6.3323 10.1107 6.0328 10.0251L5.6892 11.227C5.6492 11.2155 5.6146 11.1952 5.5913 11.1753 5.5729 11.1597 5.5732 11.1541 5.5905 11.1804 5.6082 11.2072 5.6329 11.2502 5.669 11.322 5.7048 11.3934 5.7445 11.478 5.7954 11.5866L6.9272 11.0561ZM10.0347 7.4624C10.0643 7.3393 10.0879 7.2824 10.0998 7.2596 10.1072 7.2457 10.0962 7.2704 10.0596 7.2946 10.0281 7.3154 10.0145 7.3108 10.0593 7.3039 10.1091 7.2962 10.1871 7.2917 10.323 7.2917V6.0417C10.0658 6.0417 9.6864 6.0434 9.3715 6.251 9.0235 6.4805 8.8955 6.8535 8.8193 7.1699L10.0347 7.4624ZM5.3492 11.4707C5.3817 11.4488 5.4164 11.4248 5.4457 11.4047 5.4767 11.3833 5.5054 11.3637 5.5338 11.3451 5.5915 11.307 5.6389 11.2788 5.6797 11.2588 5.7742 11.2124 5.7578 11.2466 5.6892 11.227L6.0328 10.0251C5.661 9.9188 5.3307 10.0377 5.1287 10.1368 4.93 10.2344 4.7344 10.3777 4.6508 10.4341L5.3492 11.4707ZM10.7304 13.0059C11.2991 13.0059 11.732 12.6853 12.0385 12.3706 12.346 12.0549 12.6195 11.6468 12.8523 11.3024L11.8168 10.6023C11.5668 10.9722 11.3573 11.2784 11.1431 11.4984 10.9278 11.7194 10.8001 11.7559 10.7304 11.7559V13.0059ZM12.8523 11.3024C13.1023 10.9326 13.3117 10.6263 13.5261 10.4063 13.7413 10.1853 13.8691 10.1488 13.9388 10.1488V8.8988C13.37 8.8988 12.9372 9.2194 12.6306 9.5342 12.3231 9.8499 12.0497 10.2579 11.8168 10.6023L12.8523 11.3024ZM11.4635 10.4802L11.7568 11.1909 12.9123 10.7139 12.6189 10.0032 11.4635 10.4802ZM11.7568 11.1909L12.0503 11.9015 13.2057 11.4245 12.9123 10.7139 11.7568 11.1909ZM12.0503 11.9015C12.1451 12.1313 12.2548 12.4327 12.4861 12.6472L13.3361 11.7307C13.355 11.7482 13.3534 11.7568 13.3298 11.7107 13.3013 11.6551 13.2682 11.5759 13.2057 11.4245L12.0503 11.9015ZM13.75 11.7559C13.5775 11.7559 13.4812 11.7556 13.41 11.7504 13.347 11.7458 13.3453 11.7397 13.3618 11.7466L12.8812 12.9004C13.1623 13.0176 13.4795 13.0059 13.75 13.0059V11.7559ZM12.4861 12.6472C12.6022 12.7548 12.7363 12.8402 12.8812 12.9004L13.3618 11.7466C13.35 11.7417 13.3416 11.7358 13.3361 11.7307L12.4861 12.6472ZM10.9191 10.1488C11.0916 10.1488 11.1879 10.1492 11.2592 10.1543 11.3221 10.1589 11.3239 10.1651 11.3072 10.1582L11.788 9.0043C11.5068 8.8872 11.1897 8.8988 10.9191 8.8988V10.1488ZM12.6189 10.0032C12.524 9.7734 12.4143 9.4721 12.183 9.2576L11.333 10.1742C11.3141 10.1566 11.3158 10.148 11.3393 10.1941 11.3677 10.2497 11.401 10.3288 11.4635 10.4802L12.6189 10.0032ZM11.3072 10.1582C11.3192 10.1631 11.3276 10.1691 11.333 10.1742L12.183 9.2576C12.0669 9.1499 11.9328 9.0646 11.788 9.0043L11.3072 10.1582Z" fill="currentColor"/>
  <path d="M15 2.5C15.9116 2.6567 16.5825 2.934 17.1129 3.4243 18.3333 4.5525 18.3333 6.3683 18.3333 10 18.3333 13.6317 18.3333 15.4475 17.1129 16.5757 16.5825 17.066 15.9116 17.3433 15 17.5" stroke="currentColor" stroke-linecap="round" stroke-linejoin="round" stroke-width="2"/>
  <path d="M5 2.5C4.0884 2.6567 3.4175 2.934 2.8871 3.4243 1.6667 4.5525 1.6667 6.3683 1.6667 10 1.6667 13.6317 1.6667 15.4475 2.8871 16.5757 3.4175 17.066 4.0884 17.3433 5 17.5" stroke="currentColor" stroke-linecap="round" stroke-linejoin="round" stroke-width="2"/>
</svg>
