<svg xmlns="http://www.w3.org/2000/svg" width="20" height="20" viewBox="0 0 20 20" fill="none">
  <path d="M11.7702 2.1769C12.676 1.2698 14.1858 1.5722 15.6955 3.084 18.111 5.5028 17.5072 7.9217 17.2052 8.8288L14.7897 11.2476C13.122 12.9175 10.4183 12.9175 8.7507 11.2476 7.0831 9.5777 7.0831 6.8703 8.7507 5.2005L11.7702 2.1769ZM17.2052 8.8288C15.6955 7.5185 11.7702 5.8052 8.1468 9.4334M11.7702 2.1769C11.2669 2.8824 10.8039 4.8376 12.9779 7.0146 14.7982 6.1032 15.2438 3.7785 15.1211 2.6694" stroke="currentColor" stroke-linecap="round" stroke-linejoin="round" stroke-width="2"/>
  <path d="M4.2227 15.1383C4.0882 14.6988 4.3681 14.2403 4.8212 14.1931 6.1096 14.0586 6.9159 14.4436 7.5 15.0046 8.0479 15.5308 8.4394 16.3667 8.736 17.3097 8.8733 17.7464 8.6066 18.209 8.1579 18.2775 7.2731 18.4126 6.5547 18.3111 5.913 17.8547 5.2644 17.4265 4.6618 16.5727 4.2227 15.1383Z" stroke="currentColor" stroke-linecap="round" stroke-linejoin="round" stroke-width="2"/>
  <path d="M7.5 10C3.787 12.5 2.5 18.3333 2.5 18.3333" stroke="currentColor" stroke-linecap="round" stroke-linejoin="round" stroke-width="2"/>
</svg>
