<svg xmlns="http://www.w3.org/2000/svg" width="20" height="20" viewBox="0 0 20 20" fill="none">
  <path d="M6.07 9.2169L2.9788 7.0655C2.4666 6.7091 2.3456 6.0025 2.7085 5.4873 3.0714 4.9722 3.7807 4.8436 4.2929 5.2L10.4754 9.5028 10.9597 9.8312 10.9339 7.7152C10.9339 6.9568 11.5944 6.3667 12.3498 6.4505 12.9277 6.5146 13.3889 6.9608 13.4712 7.5352L14.0063 11.2739C14.1277 12.1224 14.1885 12.5467 14.1581 12.9539 14.1116 13.5752 13.9113 14.1752 13.5748 14.7 13.3544 15.044 13.0508 15.3471 12.4435 15.9532L11.1637 17.2303C9.8963 18.4952 7.9116 18.6938 6.4178 17.7053L3.6732 15.8892 3.3641 15.674C2.8519 15.3176 2.7309 14.611 3.0938 14.0958 3.4567 13.5807 4.1661 13.452 4.6782 13.8085L4.9874 14.0237M6.07 9.2169L6.9974 9.8623M6.07 9.2169C5.5578 8.8604 4.8485 8.9891 4.4856 9.5042 4.1227 10.0194 4.2437 10.7259 4.7559 11.0824L5.3741 11.5127M5.3741 11.5127L5.6833 11.7278M5.3741 11.5127C4.862 11.1563 4.1526 11.2849 3.7897 11.8 3.4268 12.3152 3.5478 13.0217 4.06 13.3782L4.3691 13.5933" stroke="currentColor" stroke-linecap="round" stroke-linejoin="round" stroke-width="2"/>
  <path d="M7.8031 4.1372C8.1339 4.4669 9.5727 4.3718 10.1035 4.3056M7.8031 4.1372C7.4724 3.8075 7.4629 2.1975 7.5293 1.6684M7.8031 4.1372C8.654 2.6637 12.037 0.3132 15.394 2.6637 17.0162 3.7995 17.2451 4.5153 17.5017 4.9948" stroke="currentColor" stroke-linecap="round" stroke-linejoin="round" stroke-width="2"/>
</svg>
