<svg xmlns="http://www.w3.org/2000/svg" width="20" height="20" viewBox="0 0 20 20" fill="none">
  <path d="M17.0309 10.4218C19.5183 5.8355 18.3845 2.7224 14.129 2.5 11.0361 2.5591 7.8456 4.2255 5.2989 6.8036 3.1617 8.9672 1.0574 12.0658 1.8299 15.015 2.0005 15.6662 2.3331 16.1098 2.8585 16.5273 4.2703 17.6492 5.6562 17.748 8.3253 17.0927 11.0282 16.2714 12.704 15.034 14.117 13.7681M14.117 13.7681C14.1184 13.7668 14.1199 13.7654 14.1214 13.7641 14.1241 13.7617 14.1223 13.7573 14.1188 13.7573 14.1161 13.7573 14.1142 13.76 14.1151 13.7625 14.1158 13.7644 14.1163 13.7663 14.117 13.7681ZM14.117 13.7681C14.4257 14.6808 14.2302 15.4953 13.6988 17.0927" stroke="currentColor" stroke-linecap="round" stroke-linejoin="round" stroke-width="2"/>
</svg>
