<svg xmlns="http://www.w3.org/2000/svg" width="20" height="20" viewBox="0 0 20 20" fill="none">
  <path d="M14.5747 8.5553C15.0516 8.2262 15.1675 7.5783 14.8336 7.1082 14.4997 6.6381 13.8423 6.5239 13.3654 6.853L8.7599 10.0316 7.9906 10.5913 8.0153 8.5824C8.0153 7.8839 7.3992 7.3403 6.6947 7.4175 6.1557 7.4765 5.7255 7.8875 5.6488 8.4167L5.1496 11.8608C5.0363 12.6424 4.9797 13.0332 5.0081 13.4083 5.0514 13.9807 5.2383 14.5333 5.552 15.0168 5.7577 15.3338 6.0409 15.6129 6.6073 16.1712L7.7699 17.3172C8.9659 18.496 10.8443 18.6678 12.2398 17.7259L15.612 15.4502 17.0513 14.4568C17.5282 14.1277 17.644 13.4798 17.3101 13.0098 16.9762 12.5397 16.3188 12.4254 15.8419 12.7546M14.5747 8.5553L15.7261 7.7607C16.203 7.4315 16.8603 7.5458 17.1943 8.0159 17.5282 8.4859 17.4123 9.1338 16.9353 9.463L15.784 10.2576M14.5747 8.5553L11.9841 10.3432M15.8419 12.7546L16.9933 11.9599C17.4702 11.6307 17.5861 10.9828 17.2522 10.5128 16.9183 10.0427 16.2609 9.9284 15.784 10.2576M15.8419 12.7546L14.4028 13.7478M15.784 10.2576L13.1934 12.0456" stroke="currentColor" stroke-linecap="round" stroke-linejoin="round" stroke-width="2"/>
  <path d="M12.1968 4.1372C11.8661 4.4669 10.4273 4.3718 9.8965 4.3056M12.1968 4.1372C12.5276 3.8075 12.5371 2.1975 12.4707 1.6684M12.1968 4.1372C11.346 2.6637 7.963 0.3132 4.606 2.6637 2.9838 3.7995 2.7549 4.5153 2.4984 4.9948" stroke="currentColor" stroke-linecap="round" stroke-linejoin="round" stroke-width="2"/>
</svg>
