<svg xmlns="http://www.w3.org/2000/svg" width="20" height="20" viewBox="0 0 20 20" fill="none">
  <path d="M13.93 9.2169L17.0213 7.0655C17.5334 6.7091 17.6544 6.0025 17.2916 5.4873 16.9287 4.9722 16.2193 4.8436 15.7071 5.2L9.5246 9.5028 9.0403 9.8312 9.0661 7.7152C9.0661 6.9568 8.4056 6.3667 7.6503 6.4505 7.0723 6.5146 6.6111 6.9608 6.5288 7.5352L5.9937 11.2739C5.8722 12.1224 5.8115 12.5467 5.8419 12.9539 5.8884 13.5752 6.0888 14.1752 6.4251 14.7 6.6456 15.044 6.9492 15.3471 7.5565 15.9532L8.8363 17.2303C10.1037 18.4952 12.0884 18.6938 13.5822 17.7053L16.3268 15.8892 16.6359 15.674C17.1482 15.3176 17.2692 14.611 16.9063 14.0958 16.5433 13.5807 15.834 13.452 15.3218 13.8085L15.0127 14.0237M13.93 9.2169L13.0027 9.8623M13.93 9.2169C14.4422 8.8604 15.1516 8.9891 15.5144 9.5042 15.8773 10.0194 15.7563 10.7259 15.2442 11.0824L14.6259 11.5127M14.6259 11.5127L14.3168 11.7278M14.6259 11.5127C15.1381 11.1563 15.8475 11.2849 16.2103 11.8 16.5732 12.3152 16.4522 13.0217 15.9401 13.3782L15.6309 13.5933" stroke="currentColor" stroke-linecap="round" stroke-linejoin="round" stroke-width="2"/>
  <path d="M12.1968 4.1372C11.8661 4.4669 10.4273 4.3718 9.8965 4.3056M12.1968 4.1372C12.5276 3.8075 12.5371 2.1975 12.4707 1.6684M12.1968 4.1372C11.346 2.6637 7.963 0.3132 4.606 2.6637 2.9838 3.7995 2.7549 4.5153 2.4984 4.9948" stroke="currentColor" stroke-linecap="round" stroke-linejoin="round" stroke-width="2"/>
</svg>
