<svg xmlns="http://www.w3.org/2000/svg" width="20" height="20" viewBox="0 0 20 20" fill="none">
  <path d="M16.6726 12.1385L16.1322 11.8109C15.6655 11.5423 15.2983 11.1303 15.085 10.6362L13.0667 5.9592C12.9939 5.7905 12.8941 5.6499 12.7733 5.5341 12.2397 5.0224 11.3173 5.2391 10.8693 5.8269 10.0422 6.9121 11.1533 7.9396 10.9185 8.8444L4.4659 5.2174C2.965 4.4076 1.6687 6.559 3.1606 7.5528L6.9801 9.677C6.2445 10.6375 4.3793 15.2959 6.7695 16.7166 6.9054 16.7973 7.056 16.8511 7.2071 16.8978 7.3043 16.9278 7.4016 16.958 7.498 16.9881 8.2483 17.2222 9.6669 17.5167 10.639 17.4318 11.6509 17.3436 12.2851 17.8831 13.0667 18.3329" stroke="currentColor" stroke-linecap="round" stroke-linejoin="round" stroke-width="2"/>
  <path d="M7.8015 4.1371C8.1323 4.4668 9.5712 4.3716 10.1019 4.3054M7.8015 4.1371C7.4708 3.8074 7.4613 2.1973 7.5277 1.6683M7.8015 4.1371C8.6524 2.6635 12.0354 0.3131 15.3923 2.6635 17.0146 3.7994 17.2435 4.5152 17.5 4.9947" stroke="currentColor" stroke-linecap="round" stroke-linejoin="round" stroke-width="2"/>
</svg>
