<svg xmlns="http://www.w3.org/2000/svg" width="20" height="20" viewBox="0 0 20 20" fill="none">
  <path d="M16.6667 1.6667V4.2768C16.6667 4.5217 16.3607 4.6326 16.2039 4.4444 14.6788 2.7396 12.4625 1.6667 9.9957 1.6667 5.3957 1.6667 1.6667 5.3976 1.6667 10 1.6667 13.2985 3.5821 16.1494 6.3608 17.5" stroke="currentColor" stroke-linecap="round" stroke-linejoin="round" stroke-width="2"/>
  <path d="M10.2211 18.3334C9.832 18.3334 9.4491 18.3073 9.0741 18.257M18.1122 7.2223C18.2058 7.5533 18.2793 7.8878 18.3333 8.2242M18.3045 11.2818C18.2459 11.6151 18.1697 11.9453 18.0763 12.2704M16.8059 14.9969C16.6073 15.2914 16.392 15.575 16.1608 15.8456M13.8095 17.8006C13.5148 17.9693 13.208 18.122 12.8898 18.257" stroke="currentColor" stroke-linecap="round" stroke-linejoin="round" stroke-width="2"/>
</svg>
