<svg xmlns="http://www.w3.org/2000/svg" width="20" height="20" viewBox="0 0 20 20" fill="none">
  <path d="M6.3533 8.7157L5.9833 9.3533C5.5747 10.0575 5.8172 10.9579 6.5249 11.3645M6.5249 11.3645L7.1657 11.7327M6.5249 11.3645C6.1711 11.1613 5.7186 11.2819 5.5143 11.634 5.1057 12.3383 5.3482 13.2387 6.0559 13.6453M6.0559 13.6453L6.6966 14.0134M6.0559 13.6453C5.7205 13.4526 5.2915 13.6057 5.1556 13.9666L5.0655 14.2059C4.8118 14.8799 5.0849 15.6377 5.7113 15.9976L6.655 16.5393C8.0475 17.3393 8.7438 17.7393 9.4205 17.8468 9.8131 17.909 10.4106 17.8216 10.8567 17.7336 11.2427 17.6574 11.6472 17.7073 11.9879 17.903L12.7341 18.3317M7.6348 9.4518L3.4701 7.0592C2.9393 6.7542 2.7575 6.0789 3.0639 5.5507 3.3703 5.0225 4.0491 4.8416 4.5799 5.1465L10.963 8.8134 10.521 7.1821C10.327 6.4664 10.8019 5.7437 11.5388 5.6332 12.1028 5.5486 12.6538 5.8539 12.8786 6.3754L14.4932 10.363C14.8021 11.1259 15.5325 11.8637 16.2483 12.2749" stroke="currentColor" stroke-linecap="round" stroke-linejoin="round" stroke-width="2"/>
  <path d="M7.3857 4.1372C7.7165 4.4669 9.1553 4.3718 9.6861 4.3056M7.3857 4.1372C7.055 3.8075 7.0455 2.1975 7.1119 1.6684M7.3857 4.1372C8.2366 2.6637 11.6196 0.3132 14.9766 2.6637 16.5988 3.7995 16.8277 4.5153 17.0843 4.9948" stroke="currentColor" stroke-linecap="round" stroke-linejoin="round" stroke-width="2"/>
</svg>
