<svg xmlns="http://www.w3.org/2000/svg" width="20" height="20" viewBox="0 0 20 20" fill="none">
  <path d="M5.8333 12.5C5.8333 15.2498 5.8333 16.6248 6.6876 17.4791 7.5419 18.3333 8.9168 18.3333 11.6667 18.3333 14.4165 18.3333 15.7914 18.3333 16.6458 17.4791 17.5 16.6248 17.5 15.2498 17.5 12.5 17.5 9.7502 17.5 8.3753 16.6458 7.5209 15.7914 6.6667 14.4165 6.6667 11.6667 6.6667 8.9168 6.6667 7.5419 6.6667 6.6876 7.5209 5.8333 8.3753 5.8333 9.7502 5.8333 12.5Z" stroke="currentColor" stroke-linecap="round" stroke-linejoin="round" stroke-width="2"/>
  <path d="M7.9832 1.6667L9.1047 2.5918C9.7016 3.0842 10 3.3304 10 3.6364L9.1667 3.6364C6.024 3.6364 4.4526 3.6364 3.4763 4.6127 2.5 5.589 2.5 7.1603 2.5 10.303V10.8333" stroke="currentColor" stroke-linecap="round" stroke-linejoin="round" stroke-width="2"/>
</svg>
