<svg xmlns="http://www.w3.org/2000/svg" width="20" height="20" viewBox="0 0 20 20" fill="none">
  <path d="M3.3084 12.3437L3.8495 12.016C4.317 11.7473 4.6847 11.3351 4.8983 10.8408L6.9196 6.1616C6.9924 5.9929 7.0924 5.8522 7.2133 5.7363 7.7477 5.2244 8.6714 5.4412 9.1201 6.0292 9.9484 7.1149 8.8358 8.1429 9.0708 9.0482L15.5328 5.4195C17.0359 4.6093 18.3341 6.7616 16.84 7.7559L13.015 9.8812C13.7517 10.842 15.6196 15.5026 13.2258 16.9239 13.0898 17.0047 12.939 17.0584 12.7877 17.1052 12.6903 17.1352 12.5929 17.1654 12.4963 17.1956 11.745 17.4298 10.3242 17.7243 9.3508 17.6395 8.3373 17.5512 7.7023 18.0909 6.9196 18.5409" stroke="currentColor" stroke-linecap="round" stroke-linejoin="round" stroke-width="2"/>
  <path d="M12.2062 3.9338C11.8751 4.2642 10.4348 4.1689 9.9036 4.1026M12.2062 3.9338C12.5372 3.6035 12.5467 1.9902 12.4802 1.4601M12.2062 3.9338C11.3544 2.4574 7.9682 0.1022 4.608 2.4574 2.9843 3.5955 2.7551 4.3127 2.4984 4.7932" stroke="currentColor" stroke-linecap="round" stroke-linejoin="round" stroke-width="2"/>
</svg>
