<svg xmlns="http://www.w3.org/2000/svg" width="20" height="20" viewBox="0 0 20 20" fill="none">
  <path d="M4.2895 9.9328C3.7702 9.6378 3.101 9.822 2.7949 10.3443 2.4887 10.8666 2.6616 11.5292 3.1809 11.8243L4.4346 12.5366M4.2895 9.9328L3.0357 9.2205C2.5164 8.9254 2.3436 8.2629 2.6498 7.7406 2.9559 7.2183 3.625 7.0341 4.1443 7.3292L5.0845 7.8636M4.2895 9.9328L7.7371 11.8918M4.4346 12.5366C3.9153 12.2416 3.2461 12.4258 2.94 12.9481 2.6339 13.4703 2.8067 14.1329 3.326 14.428L7.1917 16.6245C8.554 17.3986 9.2352 17.7856 9.8998 17.885 10.2854 17.9428 10.8738 17.8513 11.3134 17.7606 11.6937 17.6822 12.0911 17.7275 12.4244 17.9169L13.1545 18.3317M4.4346 12.5366L7.2554 14.1394M5.0845 7.8636C4.5655 7.5684 4.3929 6.906 4.699 6.3838 5.0051 5.8615 5.6742 5.6773 6.1935 5.9724L11.4978 8.9861 11.0777 7.3857C10.8934 6.6834 11.3669 5.9683 12.0927 5.8528 12.648 5.7645 13.1873 6.0597 13.4037 6.5706L14.9559 10.4778C15.2529 11.2254 15.9647 11.9443 16.665 12.3423M5.0845 7.8636L8.2188 9.6444" stroke="currentColor" stroke-linecap="round" stroke-linejoin="round" stroke-width="2"/>
  <path d="M7.8024 4.1372C8.1331 4.4669 9.572 4.3718 10.1028 4.3056M7.8024 4.1372C7.4717 3.8075 7.4622 2.1975 7.5286 1.6684M7.8024 4.1372C8.6533 2.6637 12.0363 0.3132 15.3933 2.6637 17.0154 3.7995 17.2443 4.5153 17.5009 4.9948" stroke="currentColor" stroke-linecap="round" stroke-linejoin="round" stroke-width="2"/>
</svg>
