<svg xmlns="http://www.w3.org/2000/svg" width="20" height="20" viewBox="0 0 20 20" fill="none">
  <path d="M13.6459 8.7157L14.0158 9.3533C14.4245 10.0575 14.182 10.9579 13.4743 11.3645M13.4743 11.3645L12.8336 11.7327M13.4743 11.3645C13.8282 11.1613 14.2806 11.2819 14.4849 11.634 14.8935 12.3383 14.651 13.2387 13.9433 13.6453M13.9433 13.6453L13.3026 14.0134M13.9433 13.6453C14.2787 13.4526 14.7078 13.6057 14.8436 13.9666L14.9337 14.2059C15.1874 14.8799 14.9143 15.6377 14.2879 15.9976L13.3443 16.5393C11.9518 17.3393 11.2554 17.7393 10.5787 17.8468 10.1861 17.909 9.5886 17.8216 9.1424 17.7336 8.7565 17.6574 8.3519 17.7073 8.0112 17.903L7.265 18.3317M12.3644 9.4518L16.5291 7.0592C17.0599 6.7542 17.2418 6.0789 16.9353 5.5507 16.6288 5.0225 15.9502 4.8416 15.4193 5.1465L9.0362 8.8134 9.4782 7.1821C9.6722 6.4664 9.1973 5.7437 8.4603 5.6332 7.8964 5.5486 7.3454 5.8539 7.1205 6.3754L5.506 10.363C5.1971 11.1259 4.4667 11.8637 3.7508 12.2749" stroke="currentColor" stroke-linecap="round" stroke-linejoin="round" stroke-width="2"/>
  <path d="M12.6135 4.1372C12.2828 4.4669 10.8439 4.3718 10.3132 4.3056M12.6135 4.1372C12.9443 3.8075 12.9537 2.1975 12.8873 1.6684M12.6135 4.1372C11.7627 2.6637 8.3797 0.3132 5.0227 2.6637 3.4005 3.7995 3.1716 4.5153 2.915 4.9948" stroke="currentColor" stroke-linecap="round" stroke-linejoin="round" stroke-width="2"/>
</svg>
