<svg xmlns="http://www.w3.org/2000/svg" width="20" height="20" viewBox="0 0 20 20" fill="none">
  <path d="M9.5833 4.1667H13.75C14.525 4.1667 14.9125 4.1667 15.2304 4.2519 16.0931 4.483 16.767 5.1569 16.9982 6.0196 17.0833 6.3375 17.0833 6.725 17.0833 7.5M17.0833 10.8333V13.3333C17.0833 15.6903 17.0833 16.8688 16.3511 17.6011 15.6188 18.3333 14.4403 18.3333 12.0833 18.3333H7.9167C5.5596 18.3333 4.3811 18.3333 3.6489 17.6011 2.9167 16.8688 2.9167 15.6903 2.9167 13.3333V7.5C2.9167 6.725 2.9167 6.3375 3.0019 6.0196 3.233 5.1569 3.9069 4.483 4.7696 4.2519 5.0875 4.1667 5.475 4.1667 6.25 4.1667" stroke="currentColor" stroke-linecap="round" stroke-linejoin="round" stroke-width="2"/>
  <path d="M12.0833 1.6667C12.0833 1.6667 9.5833 3.5079 9.5833 4.1667 9.5833 4.8255 12.0833 6.6667 12.0833 6.6667" stroke="currentColor" stroke-linecap="round" stroke-linejoin="round" stroke-width="2"/>
</svg>
