<svg xmlns="http://www.w3.org/2000/svg" width="20" height="20" viewBox="0 0 20 20" fill="none">
  <path d="M11.3662 7.2724L11.7803 9.4583 5.0177 5.6008C4.3473 5.2184 3.4901 5.4453 3.1031 6.1076 2.716 6.77 2.9457 7.6169 3.6161 7.9993L7.2575 10.0764 6.3922 12.3128C5.8206 13.749 5.5347 14.467 5.545 15.0935 5.5619 16.1283 5.9365 17.0847 6.9586 17.6677 7.6705 18.0738 8.2497 18.1724 9.7799 18.4818 10.7508 18.6781 11.2363 18.7763 11.6864 18.7414 12.4273 18.6841 13.1251 18.374 13.6601 17.8643 13.985 17.5548 14.2328 17.1307 14.7283 16.2828L15.1484 15.5639C15.8072 14.4365 16.1366 13.8728 16.2205 13.2516 16.2355 13.1402 16.2446 13.028 16.2475 12.9157 16.2641 12.2891 16.029 11.6811 15.5588 10.4649L14.0367 6.5281C13.8028 5.9231 13.1737 5.561 12.5257 5.6585 11.7468 5.7758 11.2212 6.5073 11.3662 7.2724Z" stroke="currentColor" stroke-linecap="round" stroke-linejoin="round" stroke-width="2"/>
  <path d="M7.3857 3.7205C7.7165 4.0503 9.1553 3.9551 9.6861 3.8889M7.3857 3.7205C7.055 3.3908 7.0455 1.7808 7.1119 1.2517M7.3857 3.7205C8.2366 2.247 11.6196-0.1034 14.9766 2.247 16.5988 3.3829 16.8277 4.0987 17.0843 4.5782" stroke="currentColor" stroke-linecap="round" stroke-linejoin="round" stroke-width="2"/>
</svg>
