<svg xmlns="http://www.w3.org/2000/svg" width="20" height="20" viewBox="0 0 20 20" fill="none">
  <path d="M1.6667 8.3333C1.6667 11.0832 1.6667 12.4581 2.5209 13.3124 3.3752 14.1667 4.7501 14.1667 7.5 14.1667 10.2498 14.1667 11.6248 14.1667 12.4791 13.3124 13.3333 12.4581 13.3333 11.0832 13.3333 8.3333 13.3333 5.5835 13.3333 4.2085 12.4791 3.3543 11.6248 2.5 10.2498 2.5 7.5 2.5 4.7501 2.5 3.3752 2.5 2.5209 3.3543 1.6667 4.2085 1.6667 5.5835 1.6667 8.3333Z" stroke="currentColor" stroke-linecap="round" stroke-linejoin="round" stroke-width="2"/>
  <path d="M18.3333 12.0168L17.4083 10.8953C16.9158 10.2984 16.6696 10 16.3637 10V10.8333C16.3637 13.976 16.3637 15.5474 15.3873 16.5237 14.411 17.5 12.8397 17.5 9.697 17.5H9.1667" stroke="currentColor" stroke-linecap="round" stroke-linejoin="round" stroke-width="2"/>
</svg>
