<svg xmlns="http://www.w3.org/2000/svg" width="20" height="20" viewBox="0 0 20 20" fill="none">
  <path d="M15.7098 9.9328C16.2291 9.6378 16.8982 9.822 17.2043 10.3443 17.5104 10.8666 17.3377 11.5292 16.8183 11.8243L15.5647 12.5366M15.7098 9.9328L16.9634 9.2205C17.4827 8.9254 17.6556 8.2629 17.3494 7.7406 17.0433 7.2183 16.3742 7.0341 15.8548 7.3292L14.9147 7.8636M15.7098 9.9328L12.2621 11.8918M15.5647 12.5366C16.0839 12.2416 16.7531 12.4258 17.0593 12.9481 17.3653 13.4703 17.1925 14.1329 16.6732 14.428L12.8075 16.6245C11.4452 17.3986 10.764 17.7856 10.0993 17.885 9.7137 17.9428 9.1253 17.8513 8.6858 17.7606 8.3055 17.6822 7.908 17.7275 7.5747 17.9169L6.8447 18.3317M15.5647 12.5366L12.7438 14.1394M14.9147 7.8636C15.4337 7.5684 15.6063 6.906 15.3003 6.3838 14.9941 5.8615 14.325 5.6773 13.8057 5.9724L8.5013 8.9861 8.9214 7.3857C9.1058 6.6834 8.6323 5.9683 7.9065 5.8528 7.3511 5.7645 6.8119 6.0597 6.5954 6.5706L5.0432 10.4778C4.7462 11.2254 4.0345 11.9443 3.3342 12.3423M14.9147 7.8636L11.7804 9.6444" stroke="currentColor" stroke-linecap="round" stroke-linejoin="round" stroke-width="2"/>
  <path d="M12.1968 4.1372C11.8661 4.4669 10.4273 4.3718 9.8965 4.3056M12.1968 4.1372C12.5276 3.8075 12.5371 2.1975 12.4707 1.6684M12.1968 4.1372C11.346 2.6637 7.963 0.3132 4.606 2.6637 2.9838 3.7995 2.7549 4.5153 2.4984 4.9948" stroke="currentColor" stroke-linecap="round" stroke-linejoin="round" stroke-width="2"/>
</svg>
