<svg xmlns="http://www.w3.org/2000/svg" width="20" height="20" viewBox="0 0 20 20" fill="none">
  <path d="M12.5 14.1667C15.2498 14.1667 16.6248 14.1667 17.4791 13.3124 18.3333 12.4581 18.3333 11.0832 18.3333 8.3333 18.3333 5.5835 18.3333 4.2085 17.4791 3.3543 16.6248 2.5 15.2498 2.5 12.5 2.5 9.7502 2.5 8.3753 2.5 7.5209 3.3543 6.6667 4.2085 6.6667 5.5835 6.6667 8.3333 6.6667 11.0832 6.6667 12.4581 7.5209 13.3124 8.3753 14.1667 9.7502 14.1667 12.5 14.1667Z" stroke="currentColor" stroke-linecap="round" stroke-linejoin="round" stroke-width="2"/>
  <path d="M1.6667 12.0168L2.5918 10.8953C3.0842 10.2984 3.3304 10 3.6364 10L3.6364 10.8333C3.6364 13.976 3.6364 15.5474 4.6127 16.5237 5.589 17.5 7.1603 17.5 10.303 17.5L10.8333 17.5" stroke="currentColor" stroke-linecap="round" stroke-linejoin="round" stroke-width="2"/>
</svg>
