<svg xmlns="http://www.w3.org/2000/svg" width="20" height="20" viewBox="0 0 20 20" fill="none">
  <path d="M10.4167 4.1667H6.25C5.475 4.1667 5.0875 4.1667 4.7696 4.2519 3.9069 4.483 3.233 5.1569 3.0019 6.0196 2.9167 6.3375 2.9167 6.725 2.9167 7.5M2.9167 10.8333V13.3333C2.9167 15.6903 2.9167 16.8688 3.6489 17.6011 4.3811 18.3333 5.5596 18.3333 7.9167 18.3333H12.0833C14.4403 18.3333 15.6188 18.3333 16.3511 17.6011 17.0833 16.8688 17.0833 15.6903 17.0833 13.3333V7.5C17.0833 6.725 17.0833 6.3375 16.9982 6.0196 16.767 5.1569 16.0931 4.483 15.2304 4.2519 14.9125 4.1667 14.525 4.1667 13.75 4.1667" stroke="currentColor" stroke-linecap="round" stroke-linejoin="round" stroke-width="2"/>
  <path d="M7.9167 1.6667C7.9167 1.6667 10.4167 3.5079 10.4167 4.1667 10.4167 4.8255 7.9167 6.6667 7.9167 6.6667" stroke="currentColor" stroke-linecap="round" stroke-linejoin="round" stroke-width="2"/>
</svg>
