<svg xmlns="http://www.w3.org/2000/svg" width="20" height="20" viewBox="0 0 20 20" fill="none">
  <path d="M2.5 12.5C2.5 15.2498 2.5 16.6248 3.3543 17.4791 4.2085 18.3333 5.5835 18.3333 8.3333 18.3333 11.0832 18.3333 12.4581 18.3333 13.3124 17.4791 14.1667 16.6248 14.1667 15.2498 14.1667 12.5 14.1667 9.7502 14.1667 8.3753 13.3124 7.5209 12.4581 6.6667 11.0832 6.6667 8.3333 6.6667 5.5835 6.6667 4.2085 6.6667 3.3543 7.5209 2.5 8.3753 2.5 9.7502 2.5 12.5Z" stroke="currentColor" stroke-linecap="round" stroke-linejoin="round" stroke-width="2"/>
  <path d="M12.0168 1.6667L10.8953 2.5918C10.2984 3.0842 10 3.3304 10 3.6364L10.8333 3.6364C13.976 3.6364 15.5474 3.6364 16.5237 4.6127 17.5 5.589 17.5 7.1603 17.5 10.303V10.8333" stroke="currentColor" stroke-linecap="round" stroke-linejoin="round" stroke-width="2"/>
</svg>
