<svg xmlns="http://www.w3.org/2000/svg" width="20" height="20" viewBox="0 0 20 20" fill="none">
  <path d="M15 18.3333H5C3.4286 18.3333 2.643 18.3333 2.1548 17.8452 1.6667 17.357 1.6667 16.5713 1.6667 15 1.6667 13.4287 1.6667 12.643 2.1548 12.1548 2.643 11.6667 3.4286 11.6667 5 11.6667H15C16.5713 11.6667 17.357 11.6667 17.8452 12.1548 18.3333 12.643 18.3333 13.4287 18.3333 15 18.3333 16.5713 18.3333 17.357 17.8452 17.8452 17.357 18.3333 16.5713 18.3333 15 18.3333Z" stroke="currentColor" stroke-linecap="round" stroke-linejoin="round" stroke-width="2"/>
  <path d="M11.6667 11.6667V5.4167" stroke="currentColor" stroke-linecap="round" stroke-linejoin="round" stroke-width="2"/>
  <path d="M16.8963 8.75C18.8123 6.794 18.8123 3.6227 16.8963 1.6667M14.5833 6.3889C15.222 5.7369 15.222 4.6798 14.5833 4.0278" stroke="currentColor" stroke-linecap="round" stroke-linejoin="round" stroke-width="2"/>
  <path d="M8.4375 15H8.3333M8.5417 15C8.5417 15.1151 8.4484 15.2083 8.3333 15.2083 8.2183 15.2083 8.125 15.1151 8.125 15 8.125 14.8849 8.2183 14.7917 8.3333 14.7917 8.4484 14.7917 8.5417 14.8849 8.5417 15Z" stroke="currentColor" stroke-linecap="round" stroke-linejoin="round" stroke-width="2"/>
  <path d="M11.7708 15H11.6667M11.875 15C11.875 15.1151 11.7818 15.2083 11.6667 15.2083 11.5516 15.2083 11.4583 15.1151 11.4583 15 11.4583 14.8849 11.5516 14.7917 11.6667 14.7917 11.7818 14.7917 11.875 14.8849 11.875 15Z" stroke="currentColor" stroke-linecap="round" stroke-linejoin="round" stroke-width="2"/>
  <path d="M5.1042 15H5M5.2083 15C5.2083 15.1151 5.1151 15.2083 5 15.2083 4.8849 15.2083 4.7917 15.1151 4.7917 15 4.7917 14.8849 4.8849 14.7917 5 14.7917 5.1151 14.7917 5.2083 14.8849 5.2083 15Z" stroke="currentColor" stroke-linecap="round" stroke-linejoin="round" stroke-width="2"/>
</svg>
