<svg xmlns="http://www.w3.org/2000/svg" width="20" height="20" viewBox="0 0 20 20" fill="none">
  <path d="M14.5833 18.3333H5.4167C3.8543 18.3333 3.0731 18.3333 2.5254 17.8912 2.3486 17.7485 2.1931 17.5757 2.0646 17.3792 1.6667 16.7707 1.6667 15.9027 1.6667 14.1667 1.6667 12.4307 1.6667 11.5627 2.0646 10.9542 2.1931 10.7577 2.3486 10.5848 2.5254 10.4421 3.0731 10 3.8543 10 5.4167 10H14.5833C16.1457 10 16.9269 10 17.4746 10.4421 17.6514 10.5848 17.8069 10.7577 17.9354 10.9542 18.3333 11.5627 18.3333 12.4307 18.3333 14.1667 18.3333 15.9027 18.3333 16.7707 17.9354 17.3792 17.8069 17.5757 17.6514 17.7485 17.4746 17.8912 16.9269 18.3333 16.1457 18.3333 14.5833 18.3333Z" stroke="currentColor" stroke-linecap="round" stroke-linejoin="round" stroke-width="2"/>
  <path d="M13.7147 3.7248C13.9531 3.9744 14.3487 3.9835 14.5983 3.7451 14.8479 3.5067 14.8571 3.1111 14.6187 2.8615L14.1667 3.2931 13.7147 3.7248ZM8.0897 4.8247C7.8513 5.0744 7.8604 5.47 8.11 5.7084 8.3597 5.9468 8.7553 5.9377 8.9937 5.6881L8.5417 5.2564 8.0897 4.8247ZM6.2147 2.8615C5.9763 3.1111 5.9854 3.5067 6.235 3.7451 6.4846 3.9835 6.8803 3.9744 7.1187 3.7248L6.6667 3.2931 6.2147 2.8615ZM11.8397 5.6881C12.0781 5.9377 12.4737 5.9468 12.7233 5.7084 12.9729 5.47 12.9821 5.0744 12.7437 4.8247L12.2917 5.2564 11.8397 5.6881ZM10.458 8.1253C10.8032 8.1253 11.083 7.8455 11.083 7.5003 11.083 7.1552 10.8032 6.8753 10.458 6.8753V7.5003 8.1253ZM10.4163 6.8753C10.0712 6.8753 9.7913 7.1552 9.7913 7.5003 9.7913 7.8455 10.0712 8.1253 10.4163 8.1253V7.5003 6.8753ZM14.1667 3.2931L14.6187 2.8615C13.5491 1.7415 12.0633 1.0417 10.4167 1.0417V1.6667 2.2917C11.699 2.2917 12.8648 2.8349 13.7147 3.7248L14.1667 3.2931ZM10.4167 4.4432V3.8182C9.5023 3.8182 8.6794 4.2073 8.0897 4.8247L8.5417 5.2564 8.9937 5.6881C9.3637 5.3006 9.8665 5.0682 10.4167 5.0682V4.4432ZM10.4167 1.6667V1.0417C8.7701 1.0417 7.2842 1.7415 6.2147 2.8615L6.6667 3.2931 7.1187 3.7248C7.9685 2.8349 9.1343 2.2917 10.4167 2.2917V1.6667ZM12.2917 5.2564L12.7437 4.8247C12.1539 4.2073 11.331 3.8182 10.4167 3.8182V4.4432 5.0682C10.9668 5.0682 11.4697 5.3006 11.8397 5.6881L12.2917 5.2564ZM10.4997 7.5003H9.8747C9.8747 7.2012 10.1172 6.9587 10.4163 6.9587V7.5837 8.2087C10.8075 8.2087 11.1247 7.8915 11.1247 7.5003H10.4997ZM10.4163 7.5837V6.9587C10.7155 6.9587 10.958 7.2012 10.958 7.5003H10.333 9.708C9.708 7.8915 10.0252 8.2087 10.4163 8.2087V7.5837ZM10.333 7.5003H10.958C10.958 7.7995 10.7155 8.042 10.4163 8.042V7.417 6.792C10.0252 6.792 9.708 7.1091 9.708 7.5003H10.333ZM10.4163 7.417V8.042C10.1172 8.042 9.8747 7.7995 9.8747 7.5003H10.4997 11.1247C11.1247 7.1091 10.8075 6.792 10.4163 6.792V7.417ZM10.458 7.5003V6.8753H10.4163V7.5003 8.1253H10.458V7.5003Z" fill="currentColor"/>
  <path d="M15.1042 14.1667H15M11.7708 14.1667H11.6667M15.2083 14.1667C15.2083 14.2818 15.1151 14.375 15 14.375 14.8849 14.375 14.7917 14.2818 14.7917 14.1667 14.7917 14.0516 14.8849 13.9583 15 13.9583 15.1151 13.9583 15.2083 14.0516 15.2083 14.1667ZM11.875 14.1667C11.875 14.2818 11.7818 14.375 11.6667 14.375 11.5516 14.375 11.4583 14.2818 11.4583 14.1667 11.4583 14.0516 11.5516 13.9583 11.6667 13.9583 11.7818 13.9583 11.875 14.0516 11.875 14.1667Z" stroke="currentColor" stroke-linecap="round" stroke-linejoin="round" stroke-width="2"/>
  <path d="M5 14.1667H8.3333" stroke="currentColor" stroke-linecap="round" stroke-linejoin="round" stroke-width="2"/>
</svg>
