<svg xmlns="http://www.w3.org/2000/svg" width="20" height="20" viewBox="0 0 20 20" fill="none">
  <path d="M15.5987 8.9292C15.4382 9.0816 15.2235 9.1667 15.0001 9.1667 14.7767 9.1667 14.562 9.0816 14.4014 8.9292 12.9306 7.5264 10.9596 5.9593 11.9208 3.684 12.4405 2.4539 13.6881 1.6667 15.0001 1.6667 16.3121 1.6667 17.5596 2.4539 18.0793 3.684 19.0393 5.9564 17.0732 7.5312 15.5987 8.9292Z" stroke="currentColor" stroke-width="2"/>
  <path d="M15.1123 5H15.0082M15.2165 5C15.2165 5.1151 15.1232 5.2083 15.0082 5.2083 14.8931 5.2083 14.7998 5.1151 14.7998 5 14.7998 4.8849 14.8931 4.7917 15.0082 4.7917 15.1232 4.7917 15.2165 4.8849 15.2165 5Z" stroke="currentColor" stroke-linecap="round" stroke-linejoin="round" stroke-width="2"/>
  <circle cx="4.166666666666667" cy="15.833333333333334" r="2.5" stroke="currentColor" stroke-linecap="round" stroke-linejoin="round" stroke-width="2"/>
  <path d="M9.1667 5.8333H7.9167C6.3058 5.8333 5 6.9526 5 8.3333 5 9.7141 6.3058 10.8333 7.9167 10.8333H10.4167C12.0275 10.8333 13.3333 11.9526 13.3333 13.3333 13.3333 14.7141 12.0275 15.8333 10.4167 15.8333H9.1667" stroke="currentColor" stroke-linecap="round" stroke-linejoin="round" stroke-width="2"/>
  <path d="M15.1123 5H15.0082M15.2165 5C15.2165 5.1151 15.1232 5.2083 15.0082 5.2083 14.8931 5.2083 14.7998 5.1151 14.7998 5 14.7998 4.8849 14.8931 4.7917 15.0082 4.7917 15.1232 4.7917 15.2165 4.8849 15.2165 5Z" stroke="currentColor" stroke-linecap="round" stroke-linejoin="round" stroke-width="2"/>
</svg>
