<svg xmlns="http://www.w3.org/2000/svg" width="20" height="20" viewBox="0 0 20 20" fill="none">
  <circle cx="4.166666666666667" cy="15.805666666666667" r="2.5" stroke="currentColor" stroke-linecap="round" stroke-linejoin="round" stroke-width="2"/>
  <path d="M9.5833 5.8057H7.9167C6.3058 5.8057 5 6.9249 5 8.3057 5 9.6864 6.3058 10.8057 7.9167 10.8057H10.4167C12.0275 10.8057 13.3333 11.9249 13.3333 13.3057 13.3333 14.6864 12.0275 15.8057 10.4167 15.8057H9.1667" stroke="currentColor" stroke-linecap="round" stroke-linejoin="round" stroke-width="2"/>
  <path d="M15.2083 1.6943C13.4824 1.6943 12.0833 3.051 12.0833 4.7246 12.0833 5.6815 12.474 6.4256 13.2552 7.0902 13.8059 7.5587 14.8078 8.5636 15.2083 9.1943 15.6292 8.5762 16.6107 7.5587 17.1615 7.0902 17.9427 6.4256 18.3333 5.6815 18.3333 4.7246 18.3333 3.051 16.9343 1.6943 15.2083 1.6943Z" stroke="currentColor" stroke-linecap="round" stroke-linejoin="round" stroke-width="2"/>
  <path d="M15.3207 4.611H15.2165M15.4248 4.611C15.4248 4.7261 15.3315 4.8193 15.2165 4.8193 15.1014 4.8193 15.0082 4.7261 15.0082 4.611 15.0082 4.4959 15.1014 4.4027 15.2165 4.4027 15.3315 4.4027 15.4248 4.4959 15.4248 4.611Z" stroke="currentColor" stroke-linecap="round" stroke-linejoin="round" stroke-width="2"/>
</svg>
