<svg xmlns="http://www.w3.org/2000/svg" width="20" height="20" viewBox="0 0 20 20" fill="none">
  <path d="M17.5 15.4167C17.5 16.5871 17.5 17.1723 17.184 17.5926 17.0473 17.7746 16.8714 17.9308 16.6667 18.0524 16.1938 18.3333 15.5354 18.3333 14.2188 18.3333L5.7813 18.3333C4.4646 18.3333 3.8062 18.3333 3.3333 18.0524 3.1286 17.9308 2.9528 17.7746 2.816 17.5926 2.5 17.1723 2.5 16.5871 2.5 15.4167 2.5 14.2463 2.5 13.6611 2.816 13.2408 2.9528 13.0588 3.1286 12.9025 3.3333 12.7809 3.8062 12.5 4.4646 12.5 5.7813 12.5L14.2188 12.5C15.5354 12.5 16.1938 12.5 16.6667 12.7809 16.8714 12.9025 17.0473 13.0588 17.184 13.2408 17.5 13.6611 17.5 14.2463 17.5 15.4167Z" stroke="currentColor" stroke-width="2"/>
  <path d="M10.0521 3.3333L5.7813 3.3333C4.4646 3.3333 3.8062 3.3333 3.3333 3.6142 3.1286 3.7358 2.9528 3.8921 2.816 4.0741 2.5 4.4944 2.5 5.0796 2.5 6.25 2.5 7.4204 2.5 8.0056 2.816 8.4259 2.9528 8.6079 3.1286 8.7642 3.3333 8.8858 3.8062 9.1667 4.4646 9.1667 5.7813 9.1667L14.2188 9.1667C15.5354 9.1667 16.1938 9.1667 16.6667 8.8858" stroke="currentColor" stroke-linecap="round" stroke-width="2"/>
  <path d="M17.5 6.6661L12.5 1.6667M17.5 1.6672L12.5 6.6667" stroke="currentColor" stroke-linecap="round" stroke-linejoin="round" stroke-width="2"/>
</svg>
