<svg xmlns="http://www.w3.org/2000/svg" width="20" height="20" viewBox="0 0 20 20" fill="none">
  <path d="M5.8333 5.4167C5.8333 4.2463 5.8333 3.6611 6.1142 3.2407 6.2358 3.0587 6.3921 2.9025 6.5741 2.7809 6.9944 2.5 7.5796 2.5 8.75 2.5H15.4167C16.5871 2.5 17.1723 2.5 17.5926 2.7809 17.7746 2.9025 17.9308 3.0587 18.0524 3.2407 18.3333 3.6611 18.3333 4.2463 18.3333 5.4167 18.3333 6.5871 18.3333 7.1722 18.0524 7.5926 17.9308 7.7746 17.7746 7.9309 17.5926 8.0525 17.1723 8.3333 16.5871 8.3333 15.4167 8.3333H8.75C7.5796 8.3333 6.9944 8.3333 6.5741 8.0525 6.3921 7.9309 6.2358 7.7746 6.1142 7.5926 5.8333 7.1722 5.8333 6.5871 5.8333 5.4167Z" stroke="currentColor" stroke-width="2"/>
  <path d="M5.8333 14.5833C5.8333 13.4129 5.8333 12.8277 6.1142 12.4074 6.2358 12.2254 6.3921 12.0692 6.5741 11.9476 6.9944 11.6667 7.5796 11.6667 8.75 11.6667H15.4167C16.5871 11.6667 17.1723 11.6667 17.5926 11.9476 17.7746 12.0692 17.9308 12.2254 18.0524 12.4074 18.3333 12.8277 18.3333 13.4129 18.3333 14.5833 18.3333 15.7538 18.3333 16.3389 18.0524 16.7593 17.9308 16.9413 17.7746 17.0975 17.5926 17.2191 17.1723 17.5 16.5871 17.5 15.4167 17.5H8.75C7.5796 17.5 6.9944 17.5 6.5741 17.2191 6.3921 17.0975 6.2358 16.9413 6.1142 16.7593 5.8333 16.3389 5.8333 15.7538 5.8333 14.5833Z" stroke="currentColor" stroke-width="2"/>
  <path d="M1.6667 7.5L2.9443 8.8215C3.4814 9.3771 3.75 9.6548 3.75 10 3.75 10.3452 3.4814 10.6229 2.9443 11.1785L1.6667 12.5" stroke="currentColor" stroke-linecap="round" stroke-linejoin="round" stroke-width="2"/>
</svg>
