<svg xmlns="http://www.w3.org/2000/svg" width="20" height="20" viewBox="0 0 20 20" fill="none">
  <path d="M15.4167 16.25C15.4167 14.4723 15.0456 12.7812 14.3766 11.25M2.9167 3.75C4.6944 3.75 6.3855 4.1211 7.9167 4.7901" stroke="currentColor" stroke-linecap="round" stroke-linejoin="round" stroke-width="2"/>
  <path d="M9.5833 16.25C9.5833 12.5681 6.5986 9.5833 2.9167 9.5833" stroke="currentColor" stroke-linecap="round" stroke-linejoin="round" stroke-width="2"/>
  <path d="M3.5417 15.8333H3.3333M3.75 15.8333C3.75 16.0634 3.5635 16.25 3.3333 16.25 3.1032 16.25 2.9167 16.0634 2.9167 15.8333 2.9167 15.6033 3.1032 15.4167 3.3333 15.4167 3.5635 15.4167 3.75 15.6033 3.75 15.8333Z" stroke="currentColor" stroke-linecap="round" stroke-linejoin="round" stroke-width="2"/>
  <path d="M10.4167 7.0833C10.4167 7.0833 11.25 7.0833 12.0833 8.75 12.0833 8.75 14.7304 4.5833 17.0833 3.75" stroke="currentColor" stroke-linecap="round" stroke-linejoin="round" stroke-width="2"/>
</svg>
