<svg xmlns="http://www.w3.org/2000/svg" width="20" height="20" viewBox="0 0 20 20" fill="none">
  <path d="M15 17.5C15 16.3457 14.8435 15.2278 14.5507 14.1667M2.5 5C3.6543 5 4.7721 5.1565 5.8333 5.4494" stroke="currentColor" stroke-linecap="round" stroke-linejoin="round" stroke-width="2"/>
  <path d="M9.1667 17.5C9.1667 13.8181 6.1819 10.8333 2.5 10.8333" stroke="currentColor" stroke-linecap="round" stroke-linejoin="round" stroke-width="2"/>
  <path d="M3.125 17.0833H2.9167M3.3333 17.0833C3.3333 17.3134 3.1468 17.5 2.9167 17.5 2.6866 17.5 2.5 17.3134 2.5 17.0833 2.5 16.8533 2.6866 16.6667 2.9167 16.6667 3.1468 16.6667 3.3333 16.8533 3.3333 17.0833Z" stroke="currentColor" stroke-linecap="round" stroke-linejoin="round" stroke-width="2"/>
  <path d="M12.2136 6.4266C11.902 6.278 11.529 6.4101 11.3803 6.7216 11.2317 7.0332 11.3638 7.4062 11.6753 7.5548L11.9444 6.9907 12.2136 6.4266ZM12.8703 7.9167L12.3319 8.2339C12.4491 8.4329 12.6665 8.551 12.8972 8.5411 13.1278 8.5312 13.3343 8.3949 13.4341 8.1866L12.8703 7.9167ZM15.0185 6.1522C15.3224 5.9886 15.4362 5.6095 15.2726 5.3056 15.1089 5.0017 14.7299 4.8879 14.426 5.0515L14.7222 5.6019 15.0185 6.1522ZM17.5 6.6667H16.875C16.875 8.6227 15.2893 10.2083 13.3333 10.2083V10.8333 11.4583C15.9797 11.4583 18.125 9.313 18.125 6.6667H17.5ZM13.3333 10.8333V10.2083C11.3773 10.2083 9.7917 8.6227 9.7917 6.6667H9.1667 8.5417C8.5417 9.313 10.687 11.4583 13.3333 11.4583V10.8333ZM9.1667 6.6667H9.7917C9.7917 4.7107 11.3773 3.125 13.3333 3.125V2.5 1.875C10.687 1.875 8.5417 4.0203 8.5417 6.6667H9.1667ZM13.3333 2.5V3.125C15.2893 3.125 16.875 4.7107 16.875 6.6667H17.5 18.125C18.125 4.0203 15.9797 1.875 13.3333 1.875V2.5ZM11.9444 6.9907C11.6753 7.5548 11.6752 7.5547 11.6749 7.5546 11.6748 7.5546 11.6747 7.5545 11.6745 7.5545 11.6743 7.5543 11.674 7.5542 11.6738 7.5541 11.6733 7.5539 11.6728 7.5536 11.6724 7.5534 11.6716 7.553 11.6708 7.5527 11.6703 7.5524 11.669 7.5518 11.6683 7.5514 11.6679 7.5512 11.6673 7.5509 11.6685 7.5515 11.6713 7.5531 11.6771 7.5561 11.6893 7.5629 11.7068 7.5736 11.742 7.5952 11.7978 7.6323 11.8653 7.6868 12.0002 7.7962 12.1781 7.9729 12.3319 8.2339L12.8703 7.9167 13.4088 7.5994C13.1658 7.187 12.8807 6.9007 12.6519 6.7154 12.5375 6.6227 12.4363 6.5546 12.3598 6.5078 12.3216 6.4843 12.2893 6.4661 12.2645 6.4528 12.2522 6.4461 12.2416 6.4406 12.233 6.4363 12.2287 6.4341 12.225 6.4322 12.2218 6.4306 12.2201 6.4298 12.2186 6.4291 12.2172 6.4284 12.2166 6.4281 12.2159 6.4278 12.2153 6.4275 12.215 6.4273 12.2147 6.4272 12.2144 6.4271 12.2142 6.427 12.2141 6.4269 12.214 6.4268 12.2137 6.4267 12.2136 6.4266 11.9444 6.9907ZM12.8703 7.9167C13.4341 8.1866 13.434 8.1867 13.434 8.1868 13.434 8.1868 13.4339 8.1869 13.4339 8.1869 13.4339 8.187 13.4338 8.1871 13.4338 8.1871 13.4338 8.1871 13.4338 8.187 13.4339 8.1869 13.4341 8.1865 13.4345 8.1858 13.4351 8.1846 13.4362 8.1823 13.4381 8.1783 13.4408 8.1729 13.4462 8.1619 13.4547 8.1449 13.4661 8.1225 13.4888 8.0777 13.5232 8.0116 13.5676 7.93 13.6569 7.7663 13.7854 7.5433 13.9422 7.3059 14.2746 6.8029 14.6655 6.3422 15.0185 6.1522L14.7222 5.6019 14.426 5.0515C13.7776 5.4006 13.2426 6.0972 12.8993 6.6169 12.7183 6.8908 12.5717 7.1455 12.4702 7.3316 12.4193 7.4249 12.3793 7.5018 12.3517 7.5562 12.3378 7.5834 12.3271 7.605 12.3195 7.6203 12.3158 7.628 12.3127 7.6341 12.3107 7.6385 12.3096 7.6407 12.3087 7.6425 12.308 7.6439 12.3077 7.6446 12.3074 7.6451 12.3072 7.6456 12.3071 7.6459 12.307 7.646 12.3069 7.6462 12.3068 7.6463 12.3068 7.6464 12.3068 7.6465 12.3068 7.6466 12.3067 7.6467 12.8703 7.9167Z" fill="currentColor"/>
</svg>
