<svg xmlns="http://www.w3.org/2000/svg" width="20" height="20" viewBox="0 0 20 20" fill="none">
  <path d="M9.1667 17.5C9.1667 13.8181 6.1819 10.8333 2.5 10.8333" stroke="currentColor" stroke-linecap="round" stroke-linejoin="round" stroke-width="2"/>
  <path d="M3.125 17.0833H2.9167M3.3333 17.0833C3.3333 17.3134 3.1468 17.5 2.9167 17.5 2.6866 17.5 2.5 17.3134 2.5 17.0833 2.5 16.8533 2.6866 16.6667 2.9167 16.6667 3.1468 16.6667 3.3333 16.8533 3.3333 17.0833Z" stroke="currentColor" stroke-linecap="round" stroke-linejoin="round" stroke-width="2"/>
  <path d="M13.3333 8.3333H13.3408M13.3333 6.25V4.5833M17.5 6.6667C17.5 8.9678 15.6345 10.8333 13.3333 10.8333 11.0322 10.8333 9.1667 8.9678 9.1667 6.6667 9.1667 4.3655 11.0322 2.5 13.3333 2.5 15.6345 2.5 17.5 4.3655 17.5 6.6667Z" stroke="currentColor" stroke-linecap="round" stroke-linejoin="round" stroke-width="2"/>
  <path d="M15 17.5C15 16.3457 14.8435 15.2278 14.5507 14.1667M2.5 5C3.6543 5 4.7721 5.1565 5.8333 5.4494" stroke="currentColor" stroke-linecap="round" stroke-linejoin="round" stroke-width="2"/>
</svg>
