<svg xmlns="http://www.w3.org/2000/svg" width="20" height="20" viewBox="0 0 20 20" fill="none">
  <path d="M15 17.5C15 16.039 14.7493 14.6366 14.2888 13.3333M2.5 5C4.2778 5 5.9688 5.3711 7.5 6.0401" stroke="currentColor" stroke-linecap="round" stroke-linejoin="round" stroke-width="2"/>
  <path d="M9.1667 17.5C9.1667 13.8181 6.1819 10.8333 2.5 10.8333" stroke="currentColor" stroke-linecap="round" stroke-linejoin="round" stroke-width="2"/>
  <path d="M3.125 17.0833H2.9167M3.3333 17.0833C3.3333 17.3134 3.1468 17.5 2.9167 17.5 2.6866 17.5 2.5 17.3134 2.5 17.0833 2.5 16.8533 2.6866 16.6667 2.9167 16.6667 3.1468 16.6667 3.3333 16.8533 3.3333 17.0833Z" stroke="currentColor" stroke-linecap="round" stroke-linejoin="round" stroke-width="2"/>
  <path d="M12.5 5.8333V4.1667C12.5 3.2462 13.2462 2.5 14.1667 2.5 14.6644 2.5 15.1113 2.7182 15.4167 3.0642" stroke="currentColor" stroke-linecap="round" stroke-linejoin="round" stroke-width="2"/>
  <path d="M15.4167 5.8333H12.9167C12.1378 5.8333 11.7484 5.8333 11.4583 6.0008 11.2683 6.1105 11.1105 6.2683 11.0008 6.4583 10.8333 6.7484 10.8333 7.1378 10.8333 7.9167 10.8333 8.6955 10.8333 9.0849 11.0008 9.375 11.1105 9.565 11.2683 9.7228 11.4583 9.8325 11.7484 10 12.1378 10 12.9167 10H15.4167C16.1955 10 16.5849 10 16.875 9.8325 17.065 9.7228 17.2228 9.565 17.3325 9.375 17.5 9.0849 17.5 8.6955 17.5 7.9167 17.5 7.1378 17.5 6.7484 17.3325 6.4583 17.2228 6.2683 17.065 6.1105 16.875 6.0008 16.5849 5.8333 16.1955 5.8333 15.4167 5.8333Z" stroke="currentColor" stroke-linecap="round" stroke-linejoin="round" stroke-width="2"/>
</svg>
