<svg xmlns="http://www.w3.org/2000/svg" width="20" height="20" viewBox="0 0 20 20" fill="none">
  <path d="M3.856 5C4.2261 3.5623 5.5312 2.5 7.0844 2.5 8.9253 2.5 10.4177 3.9924 10.4177 5.8333 10.4177 6.8289 9.9812 7.7226 9.2892 8.3333H14.1488C15.2973 8.3333 15.8343 7.4006 15.8343 6.25 18.751 9.1667 18.3083 12.5 18.3083 12.5 18.3083 15.4167 15.4177 17.5 10.8343 17.5H7.4933C4.9663 17.5 2.9177 15.448 2.9177 12.9167 2.9177 11.0921 3.982 9.5165 5.5227 8.779 4.97 8.4853 4.5097 8.0407 4.197 7.5M3.856 5L1.6677 5.8333C1.8261 6.6667 2.5537 7.5 4.197 7.5M3.856 5L4.3453 5.7122C4.7269 6.2677 4.6649 7.015 4.197 7.5" stroke="currentColor" stroke-linecap="round" stroke-linejoin="round" stroke-width="2"/>
  <path d="M9.1677 15H10.4177C12.2587 15 14.5843 12.6743 14.5843 10.8333H9.1677C8.0171 10.8333 7.0844 11.7661 7.0844 12.9167 7.0844 14.0673 8.0171 15 9.1677 15Z" stroke="currentColor" stroke-linecap="round" stroke-linejoin="round" stroke-width="2"/>
  <path d="M6.8744 5.2083H6.9786M7.0827 5.2083C7.0827 5.0933 6.9895 5 6.8744 5 6.7593 5 6.6661 5.0933 6.6661 5.2083 6.6661 5.3234 6.7593 5.4167 6.8744 5.4167 6.9895 5.4167 7.0827 5.3234 7.0827 5.2083Z" stroke="currentColor" stroke-linecap="round" stroke-width="2"/>
</svg>
