<svg xmlns="http://www.w3.org/2000/svg" width="20" height="20" viewBox="0 0 20 20" fill="none">
  <path d="M3.75 5.5357C3.75 4.6939 3.75 4.273 4.0115 4.0115 4.273 3.75 4.6939 3.75 5.5357 3.75H14.4642C15.3061 3.75 15.727 3.75 15.9885 4.0115 16.25 4.273 16.25 4.6939 16.25 5.5357V14.4642C16.25 15.3061 16.25 15.727 15.9885 15.9885 15.727 16.25 15.3061 16.25 14.4642 16.25H5.5357C4.6939 16.25 4.273 16.25 4.0115 15.9885 3.75 15.727 3.75 15.3061 3.75 14.4642V5.5357Z" stroke="currentColor" stroke-linecap="round" stroke-width="2"/>
  <path d="M8.7575 2.5452C9.3433 1.9595 9.6361 1.6667 10 1.6667 10.3639 1.6667 10.6568 1.9595 11.2425 2.5452L17.4548 8.7575C18.0405 9.3433 18.3333 9.6361 18.3333 10 18.3333 10.3639 18.0405 10.6568 17.4548 11.2425L11.2425 17.4548C10.6568 18.0405 10.3639 18.3333 10 18.3333 9.6361 18.3333 9.3433 18.0405 8.7575 17.4548L2.5452 11.2425C1.9595 10.6568 1.6667 10.3639 1.6667 10 1.6667 9.6361 1.9595 9.3433 2.5452 8.7575L8.7575 2.5452Z" stroke="currentColor" stroke-linecap="round" stroke-width="2"/>
  <circle cx="10" cy="10" r="1.6666666666666667" stroke="currentColor" stroke-linecap="round" stroke-width="2"/>
</svg>
