<svg xmlns="http://www.w3.org/2000/svg" width="20" height="20" viewBox="0 0 20 20" fill="none">
  <path d="M12.9167 6.4687L14.9069 6.6572C16.0722 6.7675 17.0833 5.9008 17.0833 4.7916 17.0833 3.7561 16.1971 2.9167 15.1039 2.9167H12.9167" stroke="currentColor" stroke-linecap="round" stroke-linejoin="round" stroke-width="2"/>
  <path d="M10.0759 5.4167L8.3506 8.6528V12.4148M8.3506 12.4148V15.4167C5.6545 15.4167 4.039 14.8611 2.9167 14.5833V8.0078C2.9167 4.7358 5.5976 2.0833 8.9046 2.0833 10.2066 2.0833 11.1916 2.2424 11.8811 2.4329 12.6569 2.6473 13.1097 3.3464 13.2677 4.1279 13.3826 4.6966 13.3465 5.2894 13.1612 5.8396L8.3506 12.4148Z" stroke="currentColor" stroke-linecap="round" stroke-linejoin="round" stroke-width="2"/>
  <path d="M7.0833 15.4167V17.9167M7.0833 17.9167H6.25C5.4643 17.9167 5.0715 17.9167 4.8274 17.6726 4.5833 17.4285 4.5833 17.0357 4.5833 16.25V15.4167M7.0833 17.9167H8.3333" stroke="currentColor" stroke-linecap="round" stroke-linejoin="round" stroke-width="2"/>
</svg>
