<svg xmlns="http://www.w3.org/2000/svg" width="20" height="20" viewBox="0 0 20 20" fill="none">
  <path d="M15.9177 15H6.6358C4.1909 15 2.9685 15 2.2234 14.069 0.8091 12.3019 2.4206 7.6032 3.3968 5.8333 3.7277 7.8333 7.1346 7.7778 8.3756 7.5 7.5488 5.8343 8.6526 5.2784 9.2044 5.0005L9.2054 5C11.6667 7.9167 16.9291 9.5033 18.2187 12.6823 18.7757 14.0556 17.1885 15 15.9177 15Z" stroke="currentColor" stroke-linecap="round" stroke-linejoin="round" stroke-width="2"/>
  <path d="M1.6667 11.6667C5.1372 12.8578 7.2758 13.2035 10.0181 12.3366 10.849 12.0739 11.2645 11.9426 11.5234 11.9604 11.7824 11.9783 12.3108 12.2246 13.3673 12.7173 14.6869 13.3327 16.4976 13.6869 18.3333 12.7986" stroke="currentColor" stroke-linejoin="round" stroke-width="2"/>
  <path d="M11.25 7.9167L12.5 6.6667" stroke="currentColor" stroke-linecap="round" stroke-linejoin="round" stroke-width="2"/>
  <path d="M12.9167 9.1667L14.1667 7.9167" stroke="currentColor" stroke-linecap="round" stroke-linejoin="round" stroke-width="2"/>
</svg>
