<svg xmlns="http://www.w3.org/2000/svg" width="20" height="20" viewBox="0 0 20 20" fill="none">
  <path d="M11.4345 11.4345C11.7536 11.1154 11.9359 10.69 12.3006 9.8392L13.5977 6.8125C13.728 6.5084 13.7932 6.3564 13.7184 6.2816 13.6437 6.2068 13.4916 6.272 13.1875 6.4023L10.1608 7.6994C9.31 8.0641 8.8846 8.2464 8.5655 8.5655M11.4345 11.4345C11.1154 11.7536 10.69 11.9359 9.8392 12.3006L6.8125 13.5977C6.5084 13.728 6.3564 13.7932 6.2816 13.7184 6.2068 13.6437 6.272 13.4916 6.4023 13.1875L7.6994 10.1608C8.0641 9.31 8.2464 8.8846 8.5655 8.5655M11.4345 11.4345L8.5655 8.5655" stroke="currentColor" stroke-linecap="round" stroke-linejoin="round" stroke-width="2"/>
  <path d="M18.3333 10C18.3333 14.6023 14.6023 18.3333 10 18.3333 5.3976 18.3333 1.6667 14.6023 1.6667 10 1.6667 5.3976 5.3976 1.6667 10 1.6667 14.6023 1.6667 18.3333 5.3976 18.3333 10Z" stroke="currentColor" stroke-width="2"/>
  <path d="M10 1.6667L10 2.9167M10 18.3333L10 17.0833" stroke="currentColor" stroke-linecap="round" stroke-linejoin="round" stroke-width="2"/>
  <path d="M18.3333 10L17.0833 10M1.6667 10L2.9167 10" stroke="currentColor" stroke-linecap="round" stroke-linejoin="round" stroke-width="2"/>
</svg>
