<svg xmlns="http://www.w3.org/2000/svg" width="20" height="20" viewBox="0 0 20 20" fill="none">
  <path d="M13.3333 14.1667L13.5083 14.3416C13.8155 14.6488 13.9692 14.8025 14.1552 14.7922 14.3412 14.7819 14.4768 14.6122 14.7483 14.2728L15.833 12.9167M10.8333 12.8786V13.2003C10.8333 14.2018 10.8333 14.7026 10.957 15.1609 11.1097 15.7269 11.3993 16.2488 11.8013 16.6831 12.1268 17.0347 12.5565 17.3084 13.4157 17.8559 13.8003 18.101 13.9927 18.2236 14.1971 18.2806 14.4496 18.3509 14.7171 18.3509 14.9696 18.2806 15.174 18.2236 15.3663 18.101 15.751 17.8559 16.6102 17.3084 17.0398 17.0347 17.3653 16.6831 17.7674 16.2488 18.057 15.7269 18.2097 15.1609 18.3333 14.7026 18.3333 14.2018 18.3333 13.2003V12.8786C18.3333 12.2549 18.3333 11.9431 18.2152 11.6798 18.1423 11.5173 18.0378 11.3703 17.9077 11.2467 17.6966 11.0463 17.3975 10.9367 16.7992 10.7178L15.5708 10.2682C15.0825 10.0894 14.8383 10 14.5833 10 14.3283 10 14.0842 10.0894 13.5958 10.2682L12.3675 10.7178C11.7692 10.9367 11.4701 11.0463 11.259 11.2467 11.1288 11.3703 11.0244 11.5173 10.9515 11.6798 10.8333 11.9431 10.8333 12.2549 10.8333 12.8786Z" stroke="currentColor" stroke-linecap="round" stroke-linejoin="round" stroke-width="2"/>
  <path d="M13.476 6.5909V7.9167M13.476 6.5909C13.476 5.9633 14.0038 5.4546 14.6547 5.4546 15.3057 5.4546 15.8333 5.9633 15.8333 6.5909V7.9167M13.476 6.5909V4.3182C13.476 3.6906 12.9483 3.1818 12.2973 3.1818 11.6464 3.1818 11.1187 3.6906 11.1187 4.3182M11.1187 4.3182V7.9167M11.1187 4.3182V2.803C11.1187 2.1754 10.591 1.6667 9.94 1.6667 9.2891 1.6667 8.7613 2.1754 8.7613 2.803V5.0758M8.7613 5.0758C8.7613 4.4482 8.2337 3.9394 7.5827 3.9394 6.9318 3.9394 6.404 4.4482 6.404 5.0758V10.5317C6.404 10.8783 5.9603 11.0428 5.7187 10.7858L3.8093 8.7536C3.4846 8.3702 2.9359 8.2404 2.4641 8.4353 1.6238 8.7825 1.4267 10.0086 1.9728 10.7153 2.9073 11.9248 3.8648 13.5762 4.6378 15.0323 5.6869 17.0085 7.7574 18.3333 10.0599 18.3333M8.7613 5.0758V7.9167" stroke="currentColor" stroke-linecap="round" stroke-linejoin="round" stroke-width="2"/>
</svg>
