<svg xmlns="http://www.w3.org/2000/svg" width="20" height="20" viewBox="0 0 20 20" fill="none">
  <path d="M5 15C3.8281 14.2188 3.1712 13.3039 2.8281 12.4568 2.5883 11.8647 2.4684 11.5686 2.7162 11.2009 2.9639 10.8333 3.3648 10.8333 4.1667 10.8333L15.8333 10.8333C16.6352 10.8333 17.0361 10.8333 17.2838 11.2009 17.5316 11.5686 17.4117 11.8647 17.1718 12.4568 16.8288 13.3039 16.1719 14.2188 15 15" stroke="currentColor" stroke-linecap="round" stroke-width="2"/>
  <path d="M13.2014 2.8872L14.9258 5.258C15.6497 6.2533 16.0116 6.7509 15.7467 7.1254 15.4818 7.5 14.7679 7.5 13.3402 7.5L8.8569 7.5C7.0348 7.5 6.1237 7.5 5.8839 7.0512 5.6441 6.6024 6.2685 6.0658 7.5174 4.9926L10.2763 2.6219C11.0469 1.9598 11.4322 1.6287 11.8893 1.6701 12.3463 1.7116 12.6313 2.1035 13.2014 2.8872Z" stroke="currentColor" stroke-linecap="round" stroke-width="2"/>
  <path d="M11.6667 10.8333L11.6667 1.6667" stroke="currentColor" stroke-linecap="round" stroke-width="2"/>
  <path d="M1.6667 17.5L18.3333 17.5" stroke="currentColor" stroke-linecap="round" stroke-width="2"/>
</svg>
