<svg xmlns="http://www.w3.org/2000/svg" width="20" height="20" viewBox="0 0 20 20" fill="none">
  <path d="M5 15.8333C3.8281 15.0521 3.1712 14.1373 2.8281 13.2902 2.5883 12.698 2.4684 12.4019 2.7162 12.0343 2.9639 11.6667 3.3648 11.6667 4.1667 11.6667L15.8333 11.6667C16.6352 11.6667 17.0361 11.6667 17.2838 12.0343 17.5316 12.4019 17.4117 12.698 17.1718 13.2902 16.8288 14.1373 16.1719 15.0521 15 15.8333" stroke="currentColor" stroke-linecap="round" stroke-width="2"/>
  <path d="M12.5874 3.0616L14.168 5.771C14.8316 6.9085 15.1634 7.4772 14.9206 7.9053 14.6777 8.3333 14.0234 8.3333 12.7146 8.3333L8.605 8.3333C6.9346 8.3333 6.0995 8.3333 5.8797 7.8204 5.6599 7.3075 6.2323 6.6942 7.3771 5.4678L9.9061 2.7584C10.6124 2.0016 10.9656 1.6233 11.3846 1.6706 11.8036 1.718 12.0648 2.1659 12.5874 3.0616Z" stroke="currentColor" stroke-linecap="round" stroke-width="2"/>
  <path d="M11.6667 11.6667L11.6667 2.5" stroke="currentColor" stroke-linecap="round" stroke-width="2"/>
  <path d="M1.6667 18.0069C2.3329 18.4217 3.1941 18.4217 3.8765 18.0069 4.9652 17.331 6.3788 17.331 7.4837 18.0069 7.4837 18.0222 7.5 18.0222 7.5 18.0222 8.1662 18.437 9.0437 18.437 9.7098 18.0222 10.8148 17.3464 12.2284 17.3464 13.3333 18.0222 13.9995 18.437 14.8607 18.4217 15.5432 18.0069 16.3774 17.489 17.4026 17.3679 18.3333 17.6438" stroke="currentColor" stroke-linecap="round" stroke-width="2"/>
</svg>
