<svg xmlns="http://www.w3.org/2000/svg" width="20" height="20" viewBox="0 0 20 20" fill="none">
  <path d="M11.6667 10.4167C11.6667 11.3372 10.9205 12.0833 10 12.0833 9.0795 12.0833 8.3333 11.3372 8.3333 10.4167 8.3333 9.4962 9.0795 8.75 10 8.75 10.9205 8.75 11.6667 9.4962 11.6667 10.4167Z" stroke="currentColor" stroke-linejoin="round" stroke-width="2"/>
  <path d="M10 15.073C9.9042 15.229 9.7994 15.3853 9.6854 15.5414 8.5908 17.0393 7.0799 17.9201 5.8333 17.9167L5.5819 16.1876 3.8503 16.4842C3.4618 15.3064 3.874 13.5558 4.9686 12.0578 3.2792 11.4712 2.0348 10.3304 1.6667 9.167L3.2162 8.3905 2.4113 6.8358C3.4008 6.1003 5.35 6.0113 7.0912 6.5868 7.0912 4.5833 7.78 2.808 8.7833 2.0833L10 3.3333 11.2168 2.0833C12.2201 2.808 12.9183 4.5833 12.9088 6.5868 14.65 6.0113 16.5992 6.1003 17.5887 6.8358L16.7838 8.3905 18.3333 9.167C17.9653 10.3304 16.7208 11.4712 15.0314 12.0578 16.126 13.5558 16.5383 15.3064 16.1498 16.4842L14.4182 16.1876 14.1667 17.9167C12.9201 17.9201 11.4092 17.0393 10.3146 15.5414 10.2006 15.3853 10.0958 15.229 10 15.073Z" stroke="currentColor" stroke-linejoin="round" stroke-width="2"/>
</svg>
