<svg xmlns="http://www.w3.org/2000/svg" width="20" height="20" viewBox="0 0 20 20" fill="none">
  <path d="M12.5077 4.168C11.4529 2.6562 9.488 1.667 7.5045 1.667 4.2808 1.667 1.6675 4.2797 1.6675 7.5026 1.6675 10.5853 4.0585 13.1244 7.0876 13.3382" stroke="currentColor" stroke-linecap="round" stroke-width="2"/>
  <path d="M7.5041 5.8354V7.9195L6.2533 8.7532" stroke="currentColor" stroke-linecap="round" stroke-linejoin="round" stroke-width="2"/>
  <path d="M10.5123 12.9572C9.3781 11.5771 9.1846 10.1913 10.8075 8.5085 12.5124 6.9875 13.4943 6.2682 13.7558 5.8354 14.0174 6.2682 15.0152 6.9875 16.7201 8.5085 18.2652 9.8869 18.1681 11.5771 17.0338 12.9572M10.5123 12.9572H10.0769M10.5123 12.9572H17.0338M17.0338 12.9572H17.4174M9.1846 12.9572H10.0769M10.0769 12.9572V17.5778C10.1103 18.1343 10.0769 18.3939 11.0862 18.321H13.7401M17.4174 12.9572H18.3334M17.4174 12.9572V17.6624C17.5148 18.4182 16.913 18.2856 16.5282 18.321H13.7401M13.7401 18.321L13.7696 16.5422" stroke="currentColor" stroke-linecap="round" stroke-linejoin="round" stroke-width="2"/>
</svg>
