<svg xmlns="http://www.w3.org/2000/svg" width="20" height="20" viewBox="0 0 20 20" fill="none">
  <path d="M14.5833 15C14.344 14.3673 14.1303 13.4479 13.3333 12.9167 12.0833 12.0833 10.8333 11.6667 10.8333 10.4167 10.8333 9.1667 10.4167 6.6667 10.4167 6.6667L10.9962 6.0567C12.4113 6.6872 13.75 4.9006 13.75 3.75 13.75 2.5994 12.8172 1.6667 11.6667 1.6667 10.5161 1.6667 9.5833 2.5994 9.5833 3.75 9.5833 4.5833 8.9167 5.0833 7.9167 5.4167 6.6667 5.8333 5 6.6667 5 10.8333 5 14.1667 6.5278 15.2778 7.0833 15.8333 4.4167 15.8333 3.75 17.5 3.75 18.3333H14.5833C15.5038 18.3333 16.25 17.5872 16.25 16.6667 16.25 15.7462 15.5038 15 14.5833 15ZM14.5833 15C8.1433 15 7.5499 11.1111 7.9167 9.1667" stroke="currentColor" stroke-linecap="round" stroke-linejoin="round" stroke-width="2"/>
</svg>
