<svg xmlns="http://www.w3.org/2000/svg" width="20" height="20" viewBox="0 0 20 20" fill="none">
  <path d="M16.9893 5.4773C17.6577 4.7952 17.6538 3.7003 16.9773 3.0233 16.3008 2.3462 15.2064 2.3421 14.5248 3.0109 13.8442 2.3297 12.7406 2.3297 12.0599 3.0109 11.8472 3.2238 11.7009 3.4782 11.6212 3.748 10.9661 3.4127 10.1433 3.5193 9.5951 4.0681 9.1136 4.5499 8.973 5.2435 9.1728 5.8493 8.7504 5.8662 8.333 6.0359 8.0105 6.3586 7.3298 7.0398 7.3298 8.1442 8.0105 8.8253 8.5559 9.3712 8.7614 10.1283 8.627 10.8333H15.25C15.4997 10.7507 15.7346 10.61 15.9333 10.4111 16.4817 9.8622 16.5881 9.0388 16.2527 8.3831 16.5225 8.3033 16.7768 8.1574 16.9897 7.9444 17.6703 7.2632 17.67 6.1584 16.9893 5.4773Z" stroke="currentColor" stroke-linecap="round" stroke-linejoin="round" stroke-width="2"/>
  <path d="M14.1667 5.8333L9.1667 10.8333" stroke="currentColor" stroke-linecap="round" stroke-linejoin="round" stroke-width="2"/>
  <path d="M11.5741 17.5H8.4259C5.1531 17.5 2.5 14.8468 2.5 11.5741 2.5 11.165 2.8316 10.8333 3.2407 10.8333H16.7593C17.1683 10.8333 17.5 11.165 17.5 11.5741 17.5 14.8468 14.8468 17.5 11.5741 17.5Z" stroke="currentColor" stroke-linecap="round" stroke-linejoin="round" stroke-width="2"/>
  <path d="M4.7261 10.8333C3.8765 10.1458 3.3333 9.0947 3.3333 7.9167 3.3333 5.8456 5.0123 4.1667 7.0833 4.1667 7.8542 4.1667 8.5708 4.3993 9.1667 4.7981" stroke="currentColor" stroke-linecap="round" stroke-linejoin="round" stroke-width="2"/>
</svg>
