<svg xmlns="http://www.w3.org/2000/svg" width="20" height="20" viewBox="0 0 20 20" fill="none">
  <path d="M14.5833 4.1667C15.2737 4.1667 15.8333 4.7263 15.8333 5.4167 15.8333 6.107 15.2737 6.6667 14.5833 6.6667 13.893 6.6667 13.3333 6.107 13.3333 5.4167 13.3333 4.7263 13.893 4.1667 14.5833 4.1667Z" stroke="currentColor" stroke-linecap="round" stroke-linejoin="round" stroke-width="2"/>
  <path d="M2.3119 9.2866C1.4759 10.2203 1.4579 11.6288 2.2251 12.6198 3.7476 14.5861 5.4139 16.2524 7.3803 17.7748 8.3712 18.5421 9.7797 18.5241 10.7134 17.6882 13.2483 15.4185 15.5696 13.0466 17.8099 10.4399 18.0314 10.1822 18.1699 9.8664 18.201 9.528 18.3385 8.0317 18.621 3.7206 17.4503 2.5498 16.2794 1.379 11.9683 1.6615 10.472 1.799 10.1336 1.8301 9.8178 1.9686 9.56 2.1901 6.9534 4.4304 4.5815 6.7518 2.3119 9.2866Z" stroke="currentColor" stroke-width="2"/>
  <path d="M11.4903 10.3055C11.5081 9.9713 11.6018 9.36 11.0938 8.8954M11.0938 8.8954C10.9365 8.7517 10.7217 8.6219 10.4291 8.5188 9.3819 8.1497 8.0957 9.385 9.0056 10.5158 9.4947 11.1235 9.8718 11.3105 9.8362 12.0007 9.8113 12.4863 9.3343 12.9935 8.7058 13.1867 8.1597 13.3546 7.5573 13.1323 7.1763 12.7066 6.7111 12.1868 6.7581 11.6967 6.7541 11.4832M11.0938 8.8954L11.6672 8.322M7.2178 12.7714L6.6732 13.316" stroke="currentColor" stroke-linecap="round" stroke-linejoin="round" stroke-width="2"/>
</svg>
