<svg xmlns="http://www.w3.org/2000/svg" width="20" height="20" viewBox="0 0 20 20" fill="none">
  <path d="M5.8219 3.0835C8.1528 5.6623 11.9968 0.0966 14.2713 2.1165 15.58 3.2787 15.1663 5.8448 13.4672 7.5167" stroke="currentColor" stroke-linecap="round" stroke-width="2"/>
  <path d="M11.4914 11.6532C11.5062 11.3745 11.5845 10.8644 11.1606 10.4768M11.1606 10.4768C11.0294 10.3568 10.8501 10.2486 10.606 10.1626 9.7323 9.8547 8.6592 10.8853 9.4183 11.8287 9.8264 12.3358 10.141 12.4917 10.1114 13.0677 10.0906 13.4728 9.6926 13.896 9.1682 14.0572 8.7126 14.1973 8.21 14.0118 7.8921 13.6566 7.504 13.2229 7.5432 12.8141 7.5399 12.6358M11.1606 10.4768L11.639 9.9983M7.9267 13.7107L7.4723 14.165" stroke="currentColor" stroke-linecap="round" stroke-linejoin="round" stroke-width="2"/>
  <path d="M15.2272 5.5275C15.9984 5.6757 16.1714 6.1627 16.4017 7.5142 16.6091 8.7313 16.6672 10.192 16.6672 10.8138 16.6461 11.0429 16.5521 11.2568 16.4017 11.4312 14.7891 13.1212 11.5887 16.3128 9.9734 17.8982 9.3395 18.4641 8.3831 18.4763 7.7103 17.9568 6.3327 16.7177 5.0091 15.3169 3.7125 14.0521 3.1916 13.3812 3.2038 12.4274 3.7714 11.7953 5.4802 10.0227 8.5723 6.9884 10.3178 5.3121 10.4928 5.1621 10.7072 5.0683 10.9369 5.0473 11.3286 5.0472 12.0004 5.0998 12.6549 5.1378" stroke="currentColor" stroke-linecap="round" stroke-width="2"/>
</svg>
