<svg xmlns="http://www.w3.org/2000/svg" width="20" height="20" viewBox="0 0 20 20" fill="none">
  <path d="M8.75 15.2502V4.8454C8.75 3.5226 8.3697 2.434 6.7642 2.5031 5.4239 2.5608 4.1678 3.2474 3.1704 4.0781 1.3858 5.5646 1.4381 7.2998 2.0573 9.3353L4.0441 15.8673C4.338 16.8337 5.2796 17.5 6.351 17.5 7.6759 17.5 8.75 16.4928 8.75 15.2502Z" stroke="currentColor" stroke-linecap="round" stroke-linejoin="round" stroke-width="2"/>
  <path d="M11.25 15.2502V4.8454C11.25 3.5226 11.6303 2.434 13.2357 2.5031 14.5762 2.5608 15.8322 3.2474 16.8296 4.0781 18.6143 5.5646 18.5618 7.2998 17.9428 9.3353L15.9559 15.8673C15.662 16.8337 14.7204 17.5 13.649 17.5 12.3241 17.5 11.25 16.4928 11.25 15.2502Z" stroke="currentColor" stroke-linecap="round" stroke-linejoin="round" stroke-width="2"/>
  <path d="M2.5 10.8333C2.5 10 3.0833 7.75 5.4167 7.0833M5.4167 7.0833C7.5 7.5 8.3333 8.3333 8.75 8.75M5.4167 7.0833V5.8333" stroke="currentColor" stroke-linecap="round" stroke-linejoin="round" stroke-width="2"/>
  <path d="M17.5 10.8333C17.5 10 16.9167 7.75 14.5833 7.0833M14.5833 7.0833C12.5 7.5 11.6667 8.3333 11.25 8.75M14.5833 7.0833V5.8333" stroke="currentColor" stroke-linecap="round" stroke-linejoin="round" stroke-width="2"/>
</svg>
