<svg xmlns="http://www.w3.org/2000/svg" width="20" height="20" viewBox="0 0 20 20" fill="none">
  <path d="M16.9223 12.776C13.9883 15.7101 9.278 15.7567 6.344 12.8227 3.4099 9.8886 3.4567 5.1784 6.3907 2.2444M16.9223 12.776C18.3197 11.3786 17.0949 7.8882 14.1868 4.98 11.2785 2.0717 7.7881 0.847 6.3907 2.2444M16.9223 12.776C15.5249 14.1734 12.0345 12.9487 9.1263 10.0404M6.3907 2.2444C4.9933 3.6418 6.2181 7.1322 9.1263 10.0404M9.1263 10.0404L11.6667 7.5" stroke="currentColor" stroke-linecap="round" stroke-linejoin="round" stroke-width="2"/>
  <path d="M5.4067 12.5L3.9592 14.5737C2.7936 16.2436 2.2108 17.0785 2.642 17.7059 3.0732 18.3333 4.2299 18.3333 6.5433 18.3333H10.1234C12.4367 18.3333 13.5934 18.3333 14.0247 17.7059 14.4175 17.1343 13.9688 16.3905 13.0044 15" stroke="currentColor" stroke-linecap="round" stroke-linejoin="round" stroke-width="2"/>
</svg>
