<svg xmlns="http://www.w3.org/2000/svg" width="20" height="20" viewBox="0 0 20 20" fill="none">
  <path d="M7.5 18.3333L5 12.5 2.5 18.3333H7.5Z" stroke="currentColor" stroke-linecap="round" stroke-linejoin="round" stroke-width="2"/>
  <path d="M15.1598 11.1127C16.2372 12.1902 16.776 12.7289 16.6482 13.561 16.6423 13.5994 16.629 13.6662 16.6197 13.7039 16.4194 14.5216 15.8707 14.7489 14.773 15.2036 13.7692 15.6193 12.6934 15.8333 11.6069 15.8333 10.5204 15.8333 9.4445 15.6193 8.4407 15.2036 7.4369 14.7878 6.5249 14.1783 5.7566 13.4101 4.9883 12.6418 4.3789 11.7297 3.9631 10.7259 3.5473 9.7222 3.3333 8.6463 3.3333 7.5598 3.3333 6.4733 3.5473 5.3974 3.9631 4.3936 4.4178 3.296 4.6451 2.7472 5.4627 2.5469 5.5005 2.5377 5.5673 2.5244 5.6057 2.5185 6.4378 2.3907 6.9765 2.9294 8.054 4.0069L15.1598 11.1127Z" stroke="currentColor" stroke-linecap="round" stroke-linejoin="round" stroke-width="2"/>
  <circle cx="15.833333333333334" cy="3.3333333333333335" r="1.6666666666666667" stroke="currentColor" stroke-width="2"/>
  <path d="M10.4167 5.9441L14.7612 4.6078 13.2305 8.7744" stroke="currentColor" stroke-linecap="round" stroke-linejoin="round" stroke-width="2"/>
</svg>
