<svg xmlns="http://www.w3.org/2000/svg" width="20" height="20" viewBox="0 0 20 20" fill="none">
  <path d="M10.4463 5.0909C11.6787 3.8586 13.6767 3.8586 14.9091 5.0909 16.1414 6.3233 16.1414 8.3214 14.9091 9.5537L13.1239 11.3388C12.4068 12.056 12.0482 12.4146 11.6142 12.4833 11.474 12.5056 11.3312 12.5056 11.191 12.4833 10.757 12.4146 10.3984 12.056 9.6813 11.3388L8.6612 10.3188C7.944 9.6016 7.5854 9.243 7.5167 8.809 7.4945 8.6688 7.4945 8.526 7.5167 8.3858 7.5854 7.9518 7.944 7.5932 8.6612 6.8761L10.4463 5.0909Z" stroke="currentColor" stroke-width="2"/>
  <path d="M5.7069 11.6667C5.806 12.9755 7.015 14.1737 8.3333 14.2754M2.5049 12.6984C2.3767 15.2218 4.7948 17.6182 7.3368 17.4955" stroke="currentColor" stroke-linecap="round" stroke-linejoin="round" stroke-width="2"/>
  <path d="M10.4411 4.6079L9.1113 3.2228C8.6296 2.7409 8.3887 2.5 8.0893 2.5 7.7899 2.5 7.549 2.7409 7.0671 3.2228L6.5561 3.7338C6.0743 4.2156 5.8333 4.4566 5.8333 4.7559 5.8333 5.0553 6.0743 5.2962 6.5561 5.778L7.7652 6.9872M15.3512 9.4625L16.7773 10.8887C17.2591 11.3704 17.5 11.6113 17.5 11.9108 17.5 12.2101 17.2591 12.451 16.7773 12.9328L16.2662 13.4439C15.7843 13.9257 15.5434 14.1667 15.2441 14.1667 14.9447 14.1667 14.7038 13.9257 14.222 13.4439L12.9259 12.1479" stroke="currentColor" stroke-width="2"/>
</svg>
