<svg xmlns="http://www.w3.org/2000/svg" width="20" height="20" viewBox="0 0 20 20" fill="none">
  <path d="M13.5008 6.4992C14.8353 7.8336 16.9989 7.8336 18.3333 6.4992L13.5008 1.6667C12.1664 3.0011 12.1664 5.1647 13.5008 6.4992Z" stroke="currentColor" stroke-linecap="round" stroke-linejoin="round" stroke-width="2"/>
  <path d="M13.3333 6.6667L12.0833 7.9167" stroke="currentColor" stroke-linecap="round" stroke-linejoin="round" stroke-width="2"/>
  <path d="M12.3602 10.8342C12.862 10.3323 13.1128 10.0814 13.1128 9.7697 13.1128 9.4578 12.862 9.207 12.3602 8.7052L11.2957 7.6407C10.7938 7.1389 10.5429 6.8879 10.2312 6.8879 9.9194 6.8879 9.6685 7.1389 9.1667 7.6407L5.6614 11.1459C4.7795 12.0278 4.7795 13.4576 5.6614 14.3394 6.5432 15.2213 7.973 15.2213 8.8549 14.3394L12.3602 10.8342Z" stroke="currentColor" stroke-linecap="round" stroke-linejoin="round" stroke-width="2"/>
  <path d="M12.8907 14.0469L14.0469 12.8907C14.592 12.3456 14.8645 12.0731 15.2032 12.0731 15.5418 12.0731 15.8144 12.3456 16.3595 12.8907L17.5158 14.0469C18.0608 14.592 18.3333 14.8645 18.3333 15.2032 18.3333 15.5418 18.0608 15.8144 17.5158 16.3595L16.3595 17.5158C15.8144 18.0608 15.5418 18.3333 15.2032 18.3333 14.8645 18.3333 14.592 18.0608 14.0469 17.5158L12.8907 16.3595C12.3456 15.8144 12.0731 15.5418 12.0731 15.2032 12.0731 14.8645 12.3456 14.592 12.8907 14.0469Z" stroke="currentColor" stroke-linecap="round" stroke-linejoin="round" stroke-width="2"/>
  <path d="M2.4843 3.6405L3.6405 2.4843C4.1856 1.9392 4.4581 1.6667 4.7968 1.6667 5.1355 1.6667 5.408 1.9392 5.9531 2.4843L7.1093 3.6405C7.6544 4.1856 7.9269 4.4581 7.9269 4.7968 7.9269 5.1355 7.6544 5.408 7.1093 5.9531L5.9531 7.1093C5.408 7.6544 5.1355 7.9269 4.7968 7.9269 4.4581 7.9269 4.1856 7.6544 3.6405 7.1093L2.4843 5.9531C1.9392 5.408 1.6667 5.1355 1.6667 4.7968 1.6667 4.4581 1.9392 4.1856 2.4843 3.6405Z" stroke="currentColor" stroke-linecap="round" stroke-linejoin="round" stroke-width="2"/>
  <path d="M13.3333 13.3333L11.6667 11.6667M8.3333 8.3333L6.6667 6.6667" stroke="currentColor" stroke-linecap="round" stroke-linejoin="round" stroke-width="2"/>
</svg>
