<svg xmlns="http://www.w3.org/2000/svg" width="20" height="20" viewBox="0 0 20 20" fill="none">
  <path d="M4.6967 15.3032C3.3395 13.9459 2.5 12.0709 2.5 9.9999 2.5 5.8577 5.8579 2.4999 10 2.4999 12.0711 2.4999 13.9461 3.3393 15.3033 4.6966M16.9118 7.0832C17.2906 7.9798 17.5 8.9653 17.5 9.9999 17.5 14.142 14.1422 17.4999 10 17.4999 8.9655 17.4999 7.9799 17.2904 7.0833 16.9116" stroke="currentColor" stroke-linecap="round" stroke-linejoin="round" stroke-width="2"/>
  <path d="M13.191 3.1846C15.4436 1.7828 17.2671 1.2661 18.0004 1.9982 19.284 3.2795 16.7426 7.9007 12.3241 12.3198 7.9055 16.739 3.2831 19.2828 1.9995 18.0015 1.2701 17.2733 1.776 15.4666 3.1597 13.2312" stroke="currentColor" stroke-linecap="round" stroke-linejoin="round" stroke-width="2"/>
</svg>
