<svg xmlns="http://www.w3.org/2000/svg" width="20" height="20" viewBox="0 0 20 20" fill="none">
  <path d="M4.4796 12.3546C2.8173 14.6882 2.0786 16.5939 2.7424 17.2577 3.4061 17.9213 5.3119 17.1827 7.6454 15.5203 8.9701 14.5768 10.4326 13.3354 11.884 11.884 13.3354 10.4326 14.5768 8.9701 15.5203 7.6454 17.1827 5.3119 17.9213 3.4061 17.2577 2.7424 16.5939 2.0786 14.6882 2.8173 12.3546 4.4796M15.5203 7.6454C15.8291 8.3683 16 9.1643 16 10 16 13.3138 13.3138 16 10 16 9.1643 16 8.3683 15.8291 7.6454 15.5203M14.2427 5.7574C13.1568 4.6716 11.6568 4 10 4 6.6863 4 4 6.6863 4 10 4 11.6568 4.6716 13.1568 5.7574 14.2427" stroke="currentColor" stroke-linecap="round" stroke-linejoin="round" stroke-width="2"/>
</svg>
