<svg xmlns="http://www.w3.org/2000/svg" width="20" height="20" viewBox="0 0 20 20" fill="none">
  <path d="M18.3333 7.0833C18.3333 8.2339 17.4006 9.1667 16.25 9.1667 15.0994 9.1667 14.1667 8.2339 14.1667 7.0833 14.1667 5.9327 15.0994 5 16.25 5 17.4006 5 18.3333 5.9327 18.3333 7.0833Z" stroke="currentColor" stroke-linecap="round" stroke-width="2"/>
  <path d="M4.6967 15.3033C3.3395 13.9461 2.5 12.0711 2.5 10 2.5 5.8579 5.8579 2.5 10 2.5 11.3661 2.5 12.6468 2.8652 13.75 3.5034M7.0833 16.9118C7.9799 17.2906 8.9655 17.5 10 17.5 14.1422 17.5 17.5 14.1422 17.5 10 17.5 9.6123 17.4706 9.2315 17.4138 8.8596" stroke="currentColor" stroke-linecap="round" stroke-linejoin="round" stroke-width="2"/>
  <path d="M17.6444 5.3167C18.3903 3.7667 18.5639 2.5607 18.0004 1.9982 17.2723 1.2714 15.4698 1.7755 13.2394 3.1545M15.2541 9.0248C14.4148 10.0989 13.4281 11.2157 12.3241 12.3198 7.9055 16.739 3.2831 19.2828 1.9995 18.0015 1.2686 17.2718 1.7781 15.4589 3.1685 13.217" stroke="currentColor" stroke-linecap="round" stroke-width="2"/>
</svg>
