<svg xmlns="http://www.w3.org/2000/svg" width="20" height="20" viewBox="0 0 20 20" fill="none">
  <path d="M10 4.7225L10 6.25M18.3333 2.5L16.6667 4.5833 18.3333 5.1665M1.6667 2.5L3.3333 4.5833 1.6667 5.1665M12.5 4.3544L12.9167 5.8333M7.5 4.3544L7.0833 5.8333" stroke="currentColor" stroke-linecap="round" stroke-linejoin="round" stroke-width="2"/>
  <path d="M10 9.1667C12.0853 9.1667 14.0525 8.5596 15.7853 7.4846 16.7034 6.9151 16.9189 5.5117 16.3626 4.4667 15.7511 3.3182 14.4543 3.0667 13.41 3.603 12.3633 4.1406 11.2107 4.4383 10 4.4383 8.7893 4.4383 7.6367 4.1406 6.59 3.603 5.5456 3.0667 4.2489 3.3182 3.6374 4.4667 3.0811 5.5117 3.2966 6.9151 4.2147 7.4846 5.9475 8.5596 7.9147 9.1667 10 9.1667Z" stroke="currentColor" stroke-linecap="round" stroke-linejoin="round" stroke-width="2"/>
  <path d="M10 13.0558V14.3887M10 13.0558C10.8667 13.0558 11.7053 12.9275 12.5 12.6878M3.2739 13.0826C3.9204 12.0031 5.2912 11.7667 6.3951 12.2707 6.7523 12.4339 7.1212 12.5735 7.5 12.6878 8.2947 12.9275 9.1333 13.0558 10 13.0558M3.2739 13.0826C2.6858 14.0648 2.9136 15.3838 3.8842 15.9191 5.716 16.9294 7.7955 17.5 10 17.5 12.2044 17.5 14.284 16.9294 16.1157 15.9191 17.0863 15.3838 17.3142 14.0648 16.726 13.0826M3.2739 13.0826L1.6667 10.8333M3.2739 13.0826L1.6667 13.4998M16.726 13.0826C16.0796 12.0031 14.7088 11.7667 13.6048 12.2707 13.2477 12.4339 12.8788 12.5735 12.5 12.6878M16.726 13.0826L18.3333 13.4998M16.726 13.0558L18.3333 10.8333M12.5 12.6878L12.9167 13.9443M7.5 12.6878L7.0833 13.9443" stroke="currentColor" stroke-linecap="round" stroke-linejoin="round" stroke-width="2"/>
</svg>
