<svg xmlns="http://www.w3.org/2000/svg" width="20" height="20" viewBox="0 0 20 20" fill="none">
  <path d="M14.0656 1.6667H10C7.643 1.6667 6.4645 1.6667 5.7322 2.3989 5 3.1311 5 4.3096 5 6.6667V10C5 12.357 5 13.5355 5.7322 14.2678 6.4645 15 7.643 15 10 15H13.3333C15.6903 15 16.8688 15 17.6011 14.2678 18.3333 13.5355 18.3333 12.357 18.3333 10V5.9344C18.3333 5.2134 18.3333 4.8529 18.2376 4.5169 18.185 4.3323 18.1113 4.1544 18.018 3.9867 17.8482 3.6815 17.5932 3.4265 17.0833 2.9167 16.5735 2.4068 16.3185 2.1519 16.0133 1.982 15.8456 1.8887 15.6677 1.815 15.4831 1.7624 15.1472 1.6667 14.7866 1.6667 14.0656 1.6667Z" stroke="currentColor" stroke-linecap="round" stroke-linejoin="round" stroke-width="2"/>
  <path d="M1.6667 5V10.0002C1.6667 13.9286 1.6667 15.8928 2.8871 17.1131 4.1074 18.3335 6.0716 18.3335 10 18.3335L15 18.3335" stroke="currentColor" stroke-linecap="round" stroke-linejoin="round" stroke-width="2"/>
  <path d="M8.3333 1.6667C8.3333 3.238 8.3333 4.0237 8.8215 4.5118 9.3097 5 10.0953 5 11.6667 5 13.238 5 14.0237 5 14.5118 4.5118 15 4.0237 15 3.238 15 1.6667" stroke="currentColor" stroke-linecap="round" stroke-linejoin="round" stroke-width="2"/>
  <path d="M15 15V12.5C15 10.9287 15 10.143 14.5118 9.6548 14.0237 9.1667 13.238 9.1667 11.6667 9.1667 10.0953 9.1667 9.3097 9.1667 8.8215 9.6548 8.3333 10.143 8.3333 10.9287 8.3333 12.5V15" stroke="currentColor" stroke-linecap="round" stroke-linejoin="round" stroke-width="2"/>
</svg>
