<svg xmlns="http://www.w3.org/2000/svg" width="20" height="20" viewBox="0 0 20 20" fill="none">
  <path d="M16.4544 10.8333C17.1135 9.8885 17.5 8.7393 17.5 7.5 17.5 4.2783 14.8883 1.6667 11.6667 1.6667 8.445 1.6667 5.8333 4.2783 5.8333 7.5 5.8333 8.3947 6.0347 9.2423 6.3947 10" stroke="currentColor" stroke-linecap="round" stroke-linejoin="round" stroke-width="2"/>
  <path d="M13.3333 9.3172C13.0012 9.9761 12.3967 10.4167 11.7061 10.4167 10.6577 10.4167 9.8077 9.401 9.8077 8.1482V6.8519C9.8077 5.599 10.6577 4.5833 11.7061 4.5833 12.3967 4.5833 13.0012 5.0239 13.3333 5.6827M8.75 7.5H11.891" stroke="currentColor" stroke-linecap="round" stroke-width="2"/>
  <path d="M2.5 11.6667H4.4957C4.7408 11.6667 4.9826 11.7219 5.2018 11.828L6.9035 12.6513C7.1227 12.7574 7.3645 12.8126 7.6096 12.8126H8.4784C9.3187 12.8126 10 13.4718 10 14.285 10 14.3178 9.9775 14.3468 9.9448 14.3558L7.8274 14.9413C7.4476 15.0462 7.0408 15.0097 6.6875 14.8387L4.8684 13.9586M10 13.75L13.8273 12.5741C14.5058 12.3627 15.2393 12.6133 15.6643 13.2019 15.9716 13.6274 15.8464 14.2368 15.3988 14.4952L9.1357 18.1088C8.7374 18.3386 8.2675 18.3947 7.8293 18.2647L2.5 16.6833" stroke="currentColor" stroke-linecap="round" stroke-linejoin="round" stroke-width="2"/>
</svg>
