<svg xmlns="http://www.w3.org/2000/svg" width="20" height="20" viewBox="0 0 20 20" fill="none">
  <path d="M17.9167 6.2502C17.8404 4.7118 17.6123 3.7526 16.93 3.0702 16.2477 2.3879 15.2884 2.1598 13.75 2.0836M2.0833 6.2495C2.1596 4.7111 2.3877 3.7519 3.07 3.0696 3.7523 2.3872 4.7115 2.1591 6.25 2.0829M17.9167 13.7498C17.8404 15.2883 17.6123 16.2474 16.93 16.9298 16.2477 17.6121 15.2884 17.8402 13.75 17.9164M2.0833 13.7505C2.1596 15.2889 2.3877 16.2482 3.07 16.9305 3.7523 17.6128 4.7115 17.8409 6.25 17.9172" stroke="currentColor" stroke-linecap="round" stroke-linejoin="round" stroke-width="2"/>
  <path d="M9.2053 14.2763C7.7947 13.2422 5 10.8778 5 8.7502 5 7.344 6.0526 6.204 7.5 6.204 8.25 6.204 9 6.4491 10 7.4295 11 6.4491 11.75 6.204 12.5 6.204 13.9473 6.204 15 7.344 15 8.7502 15 10.8778 12.2053 13.2422 10.7947 14.2763 10.32 14.6243 9.68 14.6243 9.2053 14.2763Z" stroke="currentColor" stroke-linecap="round" stroke-linejoin="round" stroke-width="2"/>
</svg>
