<svg xmlns="http://www.w3.org/2000/svg" width="20" height="20" viewBox="0 0 20 20" fill="none">
  <path d="M5.4167 17.9167C5.0297 17.9167 4.8362 17.9167 4.6734 17.8983 3.3212 17.746 2.254 16.6788 2.1017 15.3266 2.0833 15.1638 2.0833 14.9703 2.0833 14.5833M14.5833 17.9167C14.9703 17.9167 15.1638 17.9167 15.3266 17.8983 16.6788 17.746 17.746 16.6788 17.8983 15.3266 17.9167 15.1638 17.9167 14.9703 17.9167 14.5833M5.4167 2.0833C5.0297 2.0833 4.8362 2.0833 4.6734 2.1017 3.3212 2.254 2.254 3.3212 2.1017 4.6734 2.0833 4.8362 2.0833 5.0297 2.0833 5.4167M14.5833 2.0833C14.9703 2.0833 15.1638 2.0833 15.3266 2.1017 16.6788 2.254 17.746 3.3212 17.8983 4.6734 17.9167 4.8362 17.9167 5.0297 17.9167 5.4167" stroke="currentColor" stroke-linecap="round" stroke-linejoin="round" stroke-width="2"/>
  <path d="M5.7322 5.7322C6.4645 5 7.643 5 10 5 12.357 5 13.5355 5 14.2678 5.7322 15 6.4645 15 7.643 15 10 15 12.357 15 13.5355 14.2678 14.2678 13.5355 15 12.357 15 10 15 7.643 15 6.4645 15 5.7322 14.2678 5 13.5355 5 12.357 5 10 5 7.643 5 6.4645 5.7322 5.7322Z" stroke="currentColor" stroke-linecap="round" stroke-linejoin="round" stroke-width="2"/>
  <path d="M5.4167 12.9167L6.6944 11.5435C7.1393 11.0654 7.8607 11.0654 8.3056 11.5435 8.7716 12.0443 9.5346 12.017 9.9686 11.484L11.1426 10.0421C11.6407 9.4304 12.526 9.4304 13.0241 10.0421L14.8003 12.2232" stroke="currentColor" stroke-linecap="round" stroke-linejoin="round" stroke-width="2"/>
  <path d="M8.6458 8.125H8.5417M8.75 8.125C8.75 8.2401 8.6568 8.3333 8.5417 8.3333 8.4266 8.3333 8.3333 8.2401 8.3333 8.125 8.3333 8.0099 8.4266 7.9167 8.5417 7.9167 8.6568 7.9167 8.75 8.0099 8.75 8.125Z" stroke="currentColor" stroke-linecap="round" stroke-linejoin="round" stroke-width="2"/>
</svg>
