<svg xmlns="http://www.w3.org/2000/svg" width="20" height="20" viewBox="0 0 20 20" fill="none">
  <path d="M14.1667 3.3333C14.1667 2.5477 14.1667 2.1548 14.4108 1.9107 14.6548 1.6667 15.0477 1.6667 15.8333 1.6667H16.6667C17.4523 1.6667 17.8452 1.6667 18.0892 1.9107 18.3333 2.1548 18.3333 2.5477 18.3333 3.3333V4.1667C18.3333 4.9523 18.3333 5.3452 18.0892 5.5893 17.8452 5.8333 17.4523 5.8333 16.6667 5.8333H15.8333C15.0477 5.8333 14.6548 5.8333 14.4108 5.5893 14.1667 5.3452 14.1667 4.9523 14.1667 4.1667V3.3333Z" stroke="currentColor" stroke-width="2"/>
  <path d="M7.9167 9.5833C7.9167 8.7977 7.9167 8.4048 8.1607 8.1607 8.4048 7.9167 8.7977 7.9167 9.5833 7.9167H10.4167C11.2023 7.9167 11.5952 7.9167 11.8393 8.1607 12.0833 8.4048 12.0833 8.7977 12.0833 9.5833V10.4167C12.0833 11.2023 12.0833 11.5952 11.8393 11.8393 11.5952 12.0833 11.2023 12.0833 10.4167 12.0833H9.5833C8.7977 12.0833 8.4048 12.0833 8.1607 11.8393 7.9167 11.5952 7.9167 11.2023 7.9167 10.4167V9.5833Z" stroke="currentColor" stroke-width="2"/>
  <path d="M14.1667 15.8333C14.1667 15.0477 14.1667 14.6548 14.4108 14.4108 14.6548 14.1667 15.0477 14.1667 15.8333 14.1667H16.6667C17.4523 14.1667 17.8452 14.1667 18.0892 14.4108 18.3333 14.6548 18.3333 15.0477 18.3333 15.8333V16.6667C18.3333 17.4523 18.3333 17.8452 18.0892 18.0892 17.8452 18.3333 17.4523 18.3333 16.6667 18.3333H15.8333C15.0477 18.3333 14.6548 18.3333 14.4108 18.0892 14.1667 17.8452 14.1667 17.4523 14.1667 16.6667V15.8333Z" stroke="currentColor" stroke-width="2"/>
  <path d="M1.6667 15.8333C1.6667 15.0477 1.6667 14.6548 1.9107 14.4108 2.1548 14.1667 2.5477 14.1667 3.3333 14.1667H4.1667C4.9523 14.1667 5.3452 14.1667 5.5893 14.4108 5.8333 14.6548 5.8333 15.0477 5.8333 15.8333V16.6667C5.8333 17.4523 5.8333 17.8452 5.5893 18.0892 5.3452 18.3333 4.9523 18.3333 4.1667 18.3333H3.3333C2.5477 18.3333 2.1548 18.3333 1.9107 18.0892 1.6667 17.8452 1.6667 17.4523 1.6667 16.6667V15.8333Z" stroke="currentColor" stroke-width="2"/>
  <path d="M1.6667 3.3333C1.6667 2.5477 1.6667 2.1548 1.9107 1.9107 2.1548 1.6667 2.5477 1.6667 3.3333 1.6667H4.1667C4.9523 1.6667 5.3452 1.6667 5.5893 1.9107 5.8333 2.1548 5.8333 2.5477 5.8333 3.3333V4.1667C5.8333 4.9523 5.8333 5.3452 5.5893 5.5893 5.3452 5.8333 4.9523 5.8333 4.1667 5.8333H3.3333C2.5477 5.8333 2.1548 5.8333 1.9107 5.5893 1.6667 5.3452 1.6667 4.9523 1.6667 4.1667V3.3333Z" stroke="currentColor" stroke-width="2"/>
  <path d="M3.75 10.8333V5.8712M9.1667 3.75H14.1667M16.25 9.1667V14.1667M12.9167 12.9167L12.0833 12.0833" stroke="currentColor" stroke-linecap="round" stroke-linejoin="round" stroke-width="2"/>
</svg>
