<svg xmlns="http://www.w3.org/2000/svg" width="20" height="20" viewBox="0 0 20 20" fill="none">
  <path d="M6.2767 8.9843L6.2087 9.0837C5.5546 10.0397 4.4709 10.6113 3.3125 10.6113H3.2333C2.5813 10.6113 2.2548 11.3997 2.7158 11.8607L8.1393 17.2842C8.6003 17.7453 9.3887 17.4187 9.3887 16.7667V16.6875C9.3887 15.5292 9.9603 14.4454 10.9163 13.7912L11.0157 13.7233C12.7775 12.5178 13.0107 10.0082 11.5013 8.4987 9.9918 6.9892 7.4822 7.2225 6.2767 8.9843Z" stroke="currentColor" stroke-linecap="round" stroke-linejoin="round" stroke-width="2"/>
  <path d="M15.8333 14.1667C15.6818 14.9872 15.2866 15.7603 14.6441 16.3804 14.0394 16.9641 13.2942 17.3362 12.5 17.5" stroke="currentColor" stroke-linecap="round" stroke-width="2"/>
  <path d="M5.8333 4.1667C5.032 4.3378 4.2802 4.7269 3.6702 5.3369 3.0602 5.9469 2.6712 6.6987 2.5 7.5" stroke="currentColor" stroke-linecap="round" stroke-width="2"/>
  <path d="M10.8333 7.3353L14.0743 3.23C14.7863 2.3283 16.1255 2.2498 16.9378 3.0622 17.7502 3.8745 17.6717 5.2138 16.77 5.9256L12.6647 9.1667" stroke="currentColor" stroke-linecap="round" stroke-linejoin="round" stroke-width="2"/>
  <path d="M6.6667 16.0948C5.9041 16.8573 4.6678 16.8573 3.9052 16.0948 3.1427 15.3323 3.1427 14.0959 3.9052 13.3333" stroke="currentColor" stroke-width="2"/>
</svg>
