<svg xmlns="http://www.w3.org/2000/svg" width="20" height="20" viewBox="0 0 20 20" fill="none">
  <path d="M9.9548 5L7.9865 14.2379C7.8299 14.9731 7.9161 15.2483 8.456 15.7763L10.6394 17.9112C10.9273 18.1926 11.0712 18.3333 11.25 18.3333 11.4288 18.3333 11.5728 18.1926 11.8606 17.9112L14.044 15.7763C14.5839 15.2483 14.6701 14.9731 14.5135 14.2379L12.5452 5" stroke="currentColor" stroke-linecap="round" stroke-linejoin="round" stroke-width="2"/>
  <path d="M8.7973 2.6034C8.7412 2.1668 8.7131 1.9485 8.8411 1.8076 8.9692 1.6667 9.1956 1.6667 9.6484 1.6667H12.8516C13.3044 1.6667 13.5308 1.6667 13.6589 1.8076 13.7869 1.9485 13.7588 2.1668 13.7027 2.6034L13.6603 2.9328C13.5415 3.856 13.4822 4.3176 13.1853 4.6171 13.1371 4.6657 13.0848 4.7105 13.0292 4.751 12.6865 5 12.2077 5 11.25 5 10.2923 5 9.8135 5 9.4708 4.751 9.4152 4.7105 9.3629 4.6657 9.3147 4.6171 9.0178 4.3176 8.9585 3.856 8.8397 2.9327L8.7973 2.6034Z" stroke="currentColor" stroke-linecap="round" stroke-linejoin="round" stroke-width="2"/>
  <path d="M8.3332 12.5C7.8268 13.0771 7.3979 13.3333 7.0832 13.3333 6.6796 13.3333 5.9529 12.3162 5.6304 11.5795 5.4791 11.2338 5.4034 11.061 5.4184 10.8423 5.4335 10.6237 5.5326 10.4638 5.7308 10.1439 6.8517 8.3353 8.762 6.6843 9.9999 5" stroke="currentColor" stroke-linejoin="round" stroke-width="2"/>
</svg>
