<svg xmlns="http://www.w3.org/2000/svg" width="20" height="20" viewBox="0 0 20 20" fill="none">
  <path d="M14.5833 15.8333V18.3333" stroke="currentColor" stroke-linecap="round" stroke-linejoin="round" stroke-width="2"/>
  <path d="M5.4167 15.8333V18.3333" stroke="currentColor" stroke-linecap="round" stroke-linejoin="round" stroke-width="2"/>
  <path d="M3.3333 8.3333C3.3333 5.1906 3.3333 3.6193 4.3096 2.643 5.286 1.6667 6.8573 1.6667 10 1.6667 13.1427 1.6667 14.7141 1.6667 15.6903 2.643 16.6667 3.6193 16.6667 5.1906 16.6667 8.3333V10.8333C16.6667 13.1903 16.6667 14.3688 15.9344 15.1011 15.2022 15.8333 14.0237 15.8333 11.6667 15.8333H8.3333C5.9763 15.8333 4.7978 15.8333 4.0656 15.1011 3.3333 14.3688 3.3333 13.1903 3.3333 10.8333V8.3333Z" stroke="currentColor" stroke-linejoin="round" stroke-width="2"/>
  <path d="M5.8333 13.3333H6.6667" stroke="currentColor" stroke-linecap="round" stroke-linejoin="round" stroke-width="2"/>
  <path d="M13.3333 13.3333H14.1667" stroke="currentColor" stroke-linecap="round" stroke-linejoin="round" stroke-width="2"/>
  <path d="M1.6667 6.6667L1.6667 8.3333" stroke="currentColor" stroke-linecap="round" stroke-linejoin="round" stroke-width="2"/>
  <path d="M18.3333 6.6667L18.3333 8.3333" stroke="currentColor" stroke-linecap="round" stroke-linejoin="round" stroke-width="2"/>
  <path d="M3.75 4.1667L16.25 4.1667" stroke="currentColor" stroke-linecap="round" stroke-width="2"/>
  <path d="M3.75 10.8333L16.25 10.8333" stroke="currentColor" stroke-linecap="round" stroke-width="2"/>
  <path d="M10 10.8333V4.1667" stroke="currentColor" stroke-linecap="round" stroke-linejoin="round" stroke-width="2"/>
</svg>
