<svg xmlns="http://www.w3.org/2000/svg" width="20" height="20" viewBox="0 0 20 20" fill="none">
  <path d="M2.0833 10C2.0833 6.268 2.0833 4.4021 3.2427 3.2427 4.4021 2.0833 6.268 2.0833 10 2.0833 13.7319 2.0833 15.5979 2.0833 16.7573 3.2427 17.9167 4.4021 17.9167 6.268 17.9167 10 17.9167 13.7319 17.9167 15.5979 16.7573 16.7573 15.5979 17.9167 13.7319 17.9167 10 17.9167 6.268 17.9167 4.4021 17.9167 3.2427 16.7573 2.0833 15.5979 2.0833 13.7319 2.0833 10Z" stroke="currentColor" stroke-width="2"/>
  <path d="M11.1973 7.9651L8.8333 10M8.8333 10L5.8333 12.5M8.8333 10L11.2457 11.9887M8.8333 10L5.8333 7.5M13.3333 7.0833C13.3333 7.7737 12.7737 8.3333 12.0833 8.3333 11.393 8.3333 10.8333 7.7737 10.8333 7.0833 10.8333 6.393 11.393 5.8333 12.0833 5.8333 12.7737 5.8333 13.3333 6.393 13.3333 7.0833ZM13.3333 12.9167C13.3333 13.607 12.7737 14.1667 12.0833 14.1667 11.393 14.1667 10.8333 13.607 10.8333 12.9167 10.8333 12.2263 11.393 11.6667 12.0833 11.6667 12.7737 11.6667 13.3333 12.2263 13.3333 12.9167Z" stroke="currentColor" stroke-linecap="round" stroke-linejoin="round" stroke-width="2"/>
</svg>
