<svg xmlns="http://www.w3.org/2000/svg" width="20" height="20" viewBox="0 0 20 20" fill="none">
  <path d="M17.5 5C17.5 6.3807 16.3808 7.5 15 7.5 13.6193 7.5 12.5 6.3807 12.5 5 12.5 3.6193 13.6193 2.5 15 2.5 16.3808 2.5 17.5 3.6193 17.5 5Z" stroke="currentColor" stroke-width="2"/>
  <path d="M17.5 15C17.5 16.3808 16.3808 17.5 15 17.5 13.6193 17.5 12.5 16.3808 12.5 15 12.5 13.6193 13.6193 12.5 15 12.5 16.3808 12.5 17.5 13.6193 17.5 15Z" stroke="currentColor" stroke-width="2"/>
  <path d="M12.5 6.6667L2.5 15.8333" stroke="currentColor" stroke-linecap="round" stroke-linejoin="round" stroke-width="2"/>
  <path d="M12.5002 13.3333L9.1667 10" stroke="currentColor" stroke-linecap="round" stroke-linejoin="round" stroke-width="2"/>
  <path d="M2.5 4.1668L7.0833 8.3333" stroke="currentColor" stroke-linecap="round" stroke-linejoin="round" stroke-width="2"/>
</svg>
