<svg xmlns="http://www.w3.org/2000/svg" width="20" height="20" viewBox="0 0 20 20" fill="none">
  <path d="M2.0833 10C2.0833 6.268 2.0833 4.4021 3.2427 3.2427 4.4021 2.0833 6.268 2.0833 10 2.0833 13.7319 2.0833 15.5979 2.0833 16.7573 3.2427 17.9167 4.4021 17.9167 6.268 17.9167 10 17.9167 13.7319 17.9167 15.5979 16.7573 16.7573 15.5979 17.9167 13.7319 17.9167 10 17.9167 6.268 17.9167 4.4021 17.9167 3.2427 16.7573 2.0833 15.5979 2.0833 13.7319 2.0833 10Z" stroke="currentColor" stroke-width="2"/>
  <path d="M11.25 7.9167L9.1667 10M9.1667 10L5.8333 13.3333M9.1667 10L11.25 12.0833M9.1667 10L5.8333 6.6667M14.1667 6.6667C14.1667 7.5871 13.4205 8.3333 12.5 8.3333 11.5795 8.3333 10.8333 7.5871 10.8333 6.6667 10.8333 5.7462 11.5795 5 12.5 5 13.4205 5 14.1667 5.7462 14.1667 6.6667ZM14.1667 13.3333C14.1667 14.2538 13.4205 15 12.5 15 11.5795 15 10.8333 14.2538 10.8333 13.3333 10.8333 12.4128 11.5795 11.6667 12.5 11.6667 13.4205 11.6667 14.1667 12.4128 14.1667 13.3333Z" stroke="currentColor" stroke-linecap="round" stroke-linejoin="round" stroke-width="2"/>
</svg>
