<svg xmlns="http://www.w3.org/2000/svg" width="20" height="20" viewBox="0 0 20 20" fill="none">
  <path d="M1.6667 13.3333C1.6667 10.6818 3.5322 9.1667 5.8333 9.1667 8.1345 9.1667 10 10.6818 10 13.3333H1.6667Z" stroke="currentColor" stroke-linejoin="round" stroke-width="2"/>
  <path d="M4.1667 6.6667H7.5" stroke="currentColor" stroke-linecap="round" stroke-linejoin="round" stroke-width="2"/>
  <path d="M8.3333 13.3333C8.3333 14.7141 7.214 15.8333 5.8333 15.8333 4.4526 15.8333 3.3333 14.7141 3.3333 13.3333" stroke="currentColor" stroke-width="2"/>
  <circle cx="16.666666666666668" cy="14.166666666666668" r="1.6666666666666667" stroke="currentColor" stroke-width="2"/>
  <path d="M13.3333 6.6667C14.4444 7.1981 16.6667 9.3116 16.6667 12.5M13.3249 4.1667H13.7805C14.6012 4.1667 15.3538 4.6494 15.7341 5.4195 15.997 5.9522 15.7341 6.6667 14.9874 6.6667H13.3249M13.3249 4.1667V6.6667M13.3249 4.1667H10.787M13.3249 6.6667C13.3249 8.2609 13.148 13.3333 10 13.3333H14.7221" stroke="currentColor" stroke-linecap="round" stroke-linejoin="round" stroke-width="2"/>
</svg>
