<svg xmlns="http://www.w3.org/2000/svg" width="20" height="20" viewBox="0 0 20 20" fill="none">
  <path d="M3.3132 14.1667C2.4897 14.1667 2.078 14.1667 1.8259 13.7941 1.5738 13.4216 1.6576 13.0275 1.8252 12.2393 2.3589 9.7298 3.9507 8.3333 5.8315 8.3333 7.7782 8.3333 9.4153 9.8293 9.8899 12.5073 10.0156 13.2166 10.0785 13.5712 9.8278 13.8689 9.5772 14.1667 9.1703 14.1667 8.3563 14.1667H3.3132Z" stroke="currentColor" stroke-linejoin="round" stroke-width="2"/>
  <path d="M4.1667 5.8333H7.5" stroke="currentColor" stroke-linecap="round" stroke-linejoin="round" stroke-width="2"/>
  <path d="M8.3333 14.1667C8.3333 15.5474 7.214 16.6667 5.8333 16.6667 4.4526 16.6667 3.3333 15.5474 3.3333 14.1667" stroke="currentColor" stroke-width="2"/>
  <circle cx="16.666666666666668" cy="13.333333333333334" r="1.6666666666666667" stroke="currentColor" stroke-width="2"/>
  <path d="M12.6003 3.3333H13.4435C13.4895 3.3333 13.5125 3.3333 13.5338 3.3336 14.8163 3.3488 15.9852 4.0434 16.5728 5.1394 16.5826 5.1576 16.5929 5.1774 16.6134 5.2169 16.6196 5.2287 16.6226 5.2345 16.6247 5.2388 16.7586 5.5115 16.5562 5.8264 16.2426 5.8332 16.2377 5.8333 16.2308 5.8333 16.2172 5.8333H14.0104C13.7659 5.8333 13.6437 5.8333 13.5926 5.9104 13.5414 5.9874 13.593 6.094 13.696 6.3071L14.5471 8.0682C14.8655 8.7272 15.0247 9.0566 14.988 9.3993 14.9513 9.7418 14.7254 10.0331 14.2737 10.6157L12.9467 12.3274C12.5641 12.8209 12.3728 13.0678 12.0976 13.2005 11.8223 13.3333 11.5022 13.3333 10.8619 13.3333H10" stroke="currentColor" stroke-linecap="round" stroke-linejoin="round" stroke-width="2"/>
</svg>
