<svg xmlns="http://www.w3.org/2000/svg" width="20" height="20" viewBox="0 0 20 20" fill="none">
  <circle cx="10" cy="3.3333333333333335" r="1.6666666666666667" stroke="currentColor" stroke-width="2"/>
  <path d="M8.3333 3.3333H5" stroke="currentColor" stroke-linecap="round" stroke-linejoin="round" stroke-width="2"/>
  <path d="M15 3.3333H11.6667" stroke="currentColor" stroke-linecap="round" stroke-linejoin="round" stroke-width="2"/>
  <path d="M7.5 16.6667C6.3938 16.6371 5.7503 16.5235 5.3515 16.0871 4.8123 15.4971 4.9744 14.5953 5.2987 12.7917L5.8082 9.9581C6.0126 8.8214 6.1148 8.2531 6.412 7.8219 6.7044 7.3977 7.128 7.0651 7.6274 6.8675 8.1352 6.6667 8.7568 6.6667 10 6.6667 11.2432 6.6667 11.8648 6.6667 12.3726 6.8675 12.872 7.0651 13.2956 7.3977 13.588 7.8219 13.8852 8.2531 13.9874 8.8214 14.1918 9.9581L14.7013 12.7917C15.0256 14.5953 15.1878 15.4971 14.6485 16.0871 14.2515 16.5215 13.6121 16.6363 12.515 16.6667" stroke="currentColor" stroke-linecap="round" stroke-width="2"/>
  <path d="M10 15V18.3333" stroke="currentColor" stroke-linecap="round" stroke-linejoin="round" stroke-width="2"/>
</svg>
