<svg xmlns="http://www.w3.org/2000/svg" width="20" height="20" viewBox="0 0 20 20" fill="none">
  <path d="M1.6667 10C1.7761 12.6613 3.498 17.8683 9.4166 18.3148 9.765 18.3412 9.9392 18.3543 9.9892 18.2487 10.0392 18.1431 9.9132 18.0206 9.6614 17.7757L8.5313 16.6764" stroke="currentColor" stroke-linecap="round" stroke-width="2"/>
  <path d="M18.3333 10.0001C18.2239 7.3388 16.502 2.1317 10.5834 1.6852 10.235 1.6589 10.0608 1.6458 10.0108 1.7514 9.9608 1.857 10.0868 1.9795 10.3386 2.2244L11.4688 3.3236" stroke="currentColor" stroke-linecap="round" stroke-width="2"/>
  <path d="M6.7299 11.2048C5.594 10.0689 5.0261 9.501 5.0009 8.8205 4.9757 8.1399 5.503 7.6126 6.5578 6.5578 7.6125 5.5031 8.1399 4.9757 8.8204 5.0009 9.501 5.0261 10.0689 5.5941 11.2048 6.7299L13.2701 8.7952C14.406 9.9312 14.9739 10.4991 14.9992 11.1797 15.0243 11.8602 14.497 12.3875 13.4423 13.4423 12.3875 14.497 11.8601 15.0244 11.1796 14.9992 10.499 14.974 9.9311 14.4061 8.7952 13.2702L6.7299 11.2048Z" stroke="currentColor" stroke-linecap="round" stroke-width="2"/>
</svg>
