<svg xmlns="http://www.w3.org/2000/svg" width="20" height="20" viewBox="0 0 20 20" fill="none">
  <path d="M18.1818 14.0946C17.9408 17.8283 15.2483 18.1523 14.9036 18.3134 17.9339 14.0946 11.1888 9.805 10.2519 9.3044 9.3151 8.8039 8.063 8.225 7.4206 7.8028 6.356 7.1032 5.9783 6.4543 5.6927 5.9467 5.2347 5.1328 5.2055 3.2104 7.2541 3.1103 9.3026 3.0102 10.7142 3.861 10.8077 4.3836 10.6424 5.5424 12.8507 7.6644 14.7736 6.1143 16.9923 4.3258 14.9841 1.7753 14.1039 1.6667 17.994 1.857 18.1971 5.0665 18.3042 6.7589L18.3042 6.7606C18.3042 6.7606 18.4226 10.3609 18.1818 14.0946Z" stroke="currentColor" stroke-linecap="round" stroke-linejoin="round" stroke-width="2"/>
  <path d="M4.9102 17.9886C5.2168 15.6655 2.9522 14.6718 1.9523 15.0602 1.9523 15.0602 1.6667 13.8951 1.6667 11.8918V8.4167C1.9113 9.111 3.2467 10.9941 6.6309 12.5627 10.0151 14.1313 10.8156 15.5547 10.8156 16.029 10.8652 16.434 10.737 17.4207 9.7808 18.2812 8.3379 18.3527 5.2816 18.4183 4.9102 17.9886Z" stroke="currentColor" stroke-linecap="round" stroke-linejoin="round" stroke-width="2"/>
</svg>
