<svg xmlns="http://www.w3.org/2000/svg" width="20" height="20" viewBox="0 0 20 20" fill="none">
  <path d="M5 7.5H3.8095C2.9742 7.5 2.5566 7.5 2.2516 7.3084 2.0926 7.2085 1.9582 7.074 1.8583 6.915 1.6667 6.6101 1.6667 6.1925 1.6667 5.3571V4.1667C1.6667 3.2462 2.4129 2.5 3.3333 2.5 4.2538 2.5 5 3.2462 5 4.1667V7.5Z" stroke="currentColor" stroke-linecap="round" stroke-linejoin="round" stroke-width="2"/>
  <path d="M5 7.5V15.8333C5 16.7538 5.7462 17.5 6.6667 17.5M6.6667 17.5H15.9524C16.6173 17.5 16.9498 17.5 17.2172 17.4065 17.6959 17.2389 18.0723 16.8626 18.2398 16.3838 18.3333 16.1165 18.3333 15.784 18.3333 15.1191 18.3333 14.6203 18.3333 14.3709 18.2632 14.1705 18.1376 13.8114 17.8553 13.5291 17.4962 13.4035 17.2958 13.3333 17.0463 13.3333 16.5476 13.3333H10.8333C9.6548 13.3333 9.0656 13.3333 8.6994 13.6994 8.3333 14.0656 8.3333 14.6548 8.3333 15.8333 8.3333 16.7538 7.5871 17.5 6.6667 17.5Z" stroke="currentColor" stroke-linecap="round" stroke-linejoin="round" stroke-width="2"/>
  <path d="M3.3333 2.5H11.6667C13.6308 2.5 14.6129 2.5 15.2232 3.1102 15.8333 3.7204 15.8333 4.7025 15.8333 6.6667V13.3333" stroke="currentColor" stroke-linecap="round" stroke-linejoin="round" stroke-width="2"/>
  <path d="M8.3333 5.8333H12.5" stroke="currentColor" stroke-linecap="round" stroke-linejoin="round" stroke-width="2"/>
  <path d="M8.3333 9.1667H10.8333" stroke="currentColor" stroke-linecap="round" stroke-linejoin="round" stroke-width="2"/>
</svg>
