<svg xmlns="http://www.w3.org/2000/svg" width="20" height="20" viewBox="0 0 20 20" fill="none">
  <path d="M11.6667 10C11.6667 10.9205 10.9205 11.6667 10 11.6667 9.0795 11.6667 8.3333 10.9205 8.3333 10 8.3333 9.0795 9.0795 8.3333 10 8.3333 10.9205 8.3333 11.6667 9.0795 11.6667 10Z" stroke="currentColor" stroke-width="2"/>
  <path d="M9.944 1.6669C11.0948 1.6329 13.8007 6.1205 13.2636 6.5432 12.6546 7.0225 10.8448 5.8765 10.2684 5.6184 9.9218 5.4632 9.7716 5.4674 9.4253 5.6439 7.8575 6.4432 7.0763 6.8397 6.7387 6.5933 6.2004 6.2005 8.8209 1.7 9.944 1.6669Z" stroke="currentColor" stroke-width="2"/>
  <path d="M10.056 18.3332C8.9053 18.3669 6.1993 13.9004 6.7364 13.4797 7.3454 13.0027 9.1553 14.1433 9.7316 14.4001 10.0782 14.5546 10.2284 14.5503 10.5747 14.3748 11.0578 14.1295 12.6659 13.0004 13.2613 13.4298 13.7996 13.8208 11.1791 18.3002 10.056 18.3332Z" stroke="currentColor" stroke-width="2"/>
</svg>
