<svg xmlns="http://www.w3.org/2000/svg" width="20" height="20" viewBox="0 0 20 20" fill="none">
  <path d="M11.6667 10C11.6667 10.9205 10.9205 11.6667 10 11.6667 9.0795 11.6667 8.3333 10.9205 8.3333 10 8.3333 9.0795 9.0795 8.3333 10 8.3333 10.9205 8.3333 11.6667 9.0795 11.6667 10Z" stroke="currentColor" stroke-width="2"/>
  <path d="M1.6669 10.056C1.6329 8.9053 6.1205 6.1993 6.5432 6.7364 7.0225 7.3454 5.8765 9.1553 5.6184 9.7316 5.4632 10.0782 5.4674 10.2284 5.6439 10.5747 6.4432 12.1425 6.8397 12.9237 6.5933 13.2613 6.2005 13.7996 1.7 11.1791 1.6669 10.056Z" stroke="currentColor" stroke-width="2"/>
  <path d="M18.3324 10.056C18.3663 8.9053 13.8788 6.1993 13.4561 6.7364 12.9768 7.3454 14.1227 9.1553 14.3808 9.7316 14.5361 10.0782 14.5318 10.2284 14.3553 10.5747 13.556 12.1425 13.1596 12.9237 13.4059 13.2613 13.7988 13.7996 18.2993 11.1791 18.3324 10.056Z" stroke="currentColor" stroke-width="2"/>
</svg>
