<svg xmlns="http://www.w3.org/2000/svg" width="20" height="20" viewBox="0 0 20 20" fill="none">
  <path d="M9.1667 5.0065H14.1667" stroke="currentColor" stroke-linecap="round" stroke-linejoin="round" stroke-width="2"/>
  <path d="M9.1667 8.3333H14.1667" stroke="currentColor" stroke-linecap="round" stroke-linejoin="round" stroke-width="2"/>
  <path d="M9.1667 11.6667H11.6667" stroke="currentColor" stroke-linecap="round" stroke-linejoin="round" stroke-width="2"/>
  <path d="M15.8333 18.3333C16.7538 18.3333 17.5 17.5872 17.5 16.6667V6.6667C17.5 4.3096 17.5 3.1311 16.7678 2.3989 16.0355 1.6667 14.857 1.6667 12.5 1.6667H10.8333C8.4763 1.6667 7.2978 1.6667 6.5656 2.3989 5.8333 3.1311 5.8333 4.3096 5.8333 6.6667V15M15.8333 18.3333C14.9128 18.3333 14.1667 17.5872 14.1667 16.6667 14.1667 15.881 14.1667 15.4882 13.9226 15.2441 13.6785 15 13.2857 15 12.5 15H5.8333M15.8333 18.3333H4.1667C3.2462 18.3333 2.5 17.5872 2.5 16.6667 2.5 15.881 2.5 15.4882 2.7441 15.2441 2.9882 15 3.381 15 4.1667 15H5.8333" stroke="currentColor" stroke-linecap="round" stroke-linejoin="round" stroke-width="2"/>
</svg>
