<svg xmlns="http://www.w3.org/2000/svg" width="20" height="20" viewBox="0 0 20 20" fill="none">
  <path d="M8.1492 2.7934C8.619 2.2908 8.8538 2.0395 9.1048 1.8995 9.6613 1.5891 10.3387 1.5891 10.8952 1.8995 11.1462 2.0395 11.381 2.2908 11.8508 2.7934 12.4163 3.3986 12.9862 3.6226 13.7871 3.5955 14.4747 3.5722 14.8185 3.5606 15.0949 3.6391 15.7079 3.813 16.187 4.2921 16.3609 4.9051 16.4393 5.1815 16.4277 5.5253 16.4045 6.2129 16.3765 7.0407 16.6211 7.602 17.2066 8.1492 17.7092 8.619 17.9605 8.8538 18.1005 9.1048 18.4109 9.6613 18.4109 10.3387 18.1005 10.8952 17.9605 11.1462 17.7092 11.381 17.2066 11.8508 16.6014 12.4163 16.3774 12.9862 16.4045 13.7871 16.4277 14.4747 16.4393 14.8185 16.3609 15.0949 16.187 15.7079 15.7079 16.187 15.0949 16.3609 14.8185 16.4393 14.4747 16.4277 13.7871 16.4045 12.9862 16.3774 12.4163 16.6014 11.8508 17.2066 11.381 17.7092 11.1462 17.9605 10.8952 18.1005 10.3387 18.4109 9.6613 18.4109 9.1048 18.1005 8.8538 17.9605 8.619 17.7092 8.1492 17.2066 7.602 16.6211 7.0407 16.3765 6.2129 16.4045 5.5253 16.4277 5.1815 16.4393 4.9051 16.3609 4.2921 16.187 3.813 15.7079 3.6391 15.0949 3.5606 14.8185 3.5722 14.4747 3.5955 13.7871 3.6226 12.9862 3.3986 12.4163 2.7934 11.8508 2.2908 11.381 2.0395 11.1462 1.8995 10.8952 1.5891 10.3387 1.5891 9.6613 1.8995 9.1048 2.0395 8.8538 2.2908 8.619 2.7934 8.1492 3.3986 7.5836 3.6226 7.0138 3.5955 6.2129 3.5722 5.5253 3.5606 5.1815 3.6391 4.9051 3.813 4.2921 4.2921 3.813 4.9051 3.6391 6.107 3.298 7.1491 3.8635 8.1492 2.7934Z" stroke="currentColor" stroke-width="2"/>
</svg>
