<svg xmlns="http://www.w3.org/2000/svg" width="20" height="20" viewBox="0 0 20 20" fill="none">
  <path d="M12.9167 12.5001L14.5833 14.1668M13.75 9.5834C13.75 7.5124 12.0711 5.8334 10 5.8334 7.9289 5.8334 6.25 7.5124 6.25 9.5834 6.25 11.6545 7.9289 13.3334 10 13.3334 12.0711 13.3334 13.75 11.6545 13.75 9.5834Z" stroke="currentColor" stroke-linecap="round" stroke-linejoin="round" stroke-width="2"/>
  <path d="M12.5 17.9168C14.0519 17.9168 14.8279 17.9168 15.4493 17.6906 16.4908 17.3115 17.3114 16.4909 17.6905 15.4493 17.9167 14.828 17.9167 14.052 17.9167 12.5001M7.5 17.9168C5.9481 17.9168 5.1721 17.9168 4.5508 17.6906 3.5091 17.3115 2.6886 16.4909 2.3095 15.4493 2.0833 14.828 2.0833 14.052 2.0833 12.5001M7.5 2.0834C5.9481 2.0834 5.1721 2.0834 4.5508 2.3096 3.5091 2.6887 2.6886 3.5092 2.3095 4.5509 2.0833 5.1722 2.0833 5.9482 2.0833 7.5001M12.5 2.0834C14.0519 2.0834 14.8279 2.0834 15.4493 2.3096 16.4908 2.6887 17.3114 3.5092 17.6905 4.5509 17.9167 5.1722 17.9167 5.9482 17.9167 7.5001" stroke="currentColor" stroke-linecap="round" stroke-linejoin="round" stroke-width="2"/>
</svg>
