<svg xmlns="http://www.w3.org/2000/svg" width="20" height="20" viewBox="0 0 20 20" fill="none">
  <path d="M14.5833 14.5833L18.3333 18.3333" stroke="currentColor" stroke-linecap="round" stroke-linejoin="round" stroke-width="2"/>
  <path d="M16.6667 9.1667C16.6667 5.0245 13.3088 1.6667 9.1667 1.6667 5.0245 1.6667 1.6667 5.0245 1.6667 9.1667 1.6667 13.3088 5.0245 16.6667 9.1667 16.6667 13.3088 16.6667 16.6667 13.3088 16.6667 9.1667Z" stroke="currentColor" stroke-linejoin="round" stroke-width="2"/>
  <path d="M11.0442 7.7593C11.1316 6.7055 9.5193 5.8451 8.2872 6.4224 6.7481 7.1435 6.8823 8.9662 8.7833 9.0626 9.6292 9.1054 10.3691 9.0141 10.8719 9.559 11.3748 10.104 11.5927 11.4918 10.1104 11.9627 8.6282 12.4337 7.0833 11.5938 7.0833 10.5693M9.1425 5.4167V6.2314M9.1425 12.267V12.9167" stroke="currentColor" stroke-linecap="round" stroke-linejoin="round" stroke-width="2"/>
</svg>
