<svg xmlns="http://www.w3.org/2000/svg" width="20" height="20" viewBox="0 0 20 20" fill="none">
  <path d="M12.5 12.5L13.75 13.75" stroke="currentColor" stroke-linecap="round" stroke-linejoin="round" stroke-width="2"/>
  <path d="M14.1111 15.8543C13.6297 15.3729 13.6297 14.5924 14.1111 14.1111 14.5924 13.6297 15.3729 13.6297 15.8543 14.1111L17.5556 15.8123C18.037 16.2937 18.037 17.0743 17.5556 17.5556 17.0743 18.037 16.2937 18.037 15.8123 17.5556L14.1111 15.8543Z" stroke="currentColor" stroke-linecap="round" stroke-linejoin="round" stroke-width="2"/>
  <path d="M13.75 7.9167C13.75 4.695 11.1383 2.0833 7.9167 2.0833 4.695 2.0833 2.0833 4.695 2.0833 7.9167 2.0833 11.1383 4.695 13.75 7.9167 13.75 11.1383 13.75 13.75 11.1383 13.75 7.9167Z" stroke="currentColor" stroke-linecap="round" stroke-linejoin="round" stroke-width="2"/>
</svg>
