<svg xmlns="http://www.w3.org/2000/svg" width="20" height="20" viewBox="0 0 20 20" fill="none">
  <path d="M14.1667 14.1667L17.5 17.5" stroke="currentColor" stroke-linecap="round" stroke-linejoin="round" stroke-width="2"/>
  <path d="M15.8333 9.1667C15.8333 5.4848 12.8486 2.5 9.1667 2.5 5.4848 2.5 2.5 5.4848 2.5 9.1667 2.5 12.8486 5.4848 15.8333 9.1667 15.8333 12.8486 15.8333 15.8333 12.8486 15.8333 9.1667Z" stroke="currentColor" stroke-linecap="round" stroke-linejoin="round" stroke-width="2"/>
  <path d="M7.5 11.25C7.5 11.25 5.4167 9.7157 5.4167 9.1667 5.4167 8.6177 7.5 7.0833 7.5 7.0833" stroke="currentColor" stroke-linecap="round" stroke-linejoin="round" stroke-width="2"/>
  <path d="M10.8333 11.25C10.8333 11.25 12.9167 9.7157 12.9167 9.1667 12.9167 8.6177 10.8333 7.0833 10.8333 7.0833" stroke="currentColor" stroke-linecap="round" stroke-linejoin="round" stroke-width="2"/>
</svg>
