<svg xmlns="http://www.w3.org/2000/svg" width="20" height="20" viewBox="0 0 20 20" fill="none">
  <path d="M14.1667 14.1667L17.5 17.5" stroke="currentColor" stroke-linecap="round" stroke-linejoin="round" stroke-width="2"/>
  <path d="M15.8333 9.1667C15.8333 5.4848 12.8486 2.5 9.1667 2.5 5.4848 2.5 2.5 5.4848 2.5 9.1667 2.5 12.8486 5.4848 15.8333 9.1667 15.8333 12.8486 15.8333 15.8333 12.8486 15.8333 9.1667Z" stroke="currentColor" stroke-linecap="round" stroke-linejoin="round" stroke-width="2"/>
  <path d="M7.9103 6.25C7.3133 6.2862 6.9333 6.3857 6.6595 6.6595 6.3857 6.9333 6.2862 7.3133 6.25 7.9103M10.423 6.25C11.0201 6.2862 11.4001 6.3857 11.6738 6.6595 11.9476 6.9333 12.0472 7.3133 12.0833 7.9103M12.0769 10.5178C12.0359 11.0608 11.9328 11.4148 11.6738 11.6738 11.4001 11.9476 11.0201 12.0472 10.423 12.0833M7.9103 12.0833C7.3133 12.0472 6.9333 11.9476 6.6595 11.6738 6.4005 11.4148 6.2974 11.0608 6.2564 10.5178" stroke="currentColor" stroke-linecap="round" stroke-linejoin="round" stroke-width="2"/>
</svg>
