<svg xmlns="http://www.w3.org/2000/svg" width="20" height="20" viewBox="0 0 20 20" fill="none">
  <path d="M12.5 6.6667C13.0418 6.7206 13.4063 6.8426 13.6785 7.1183 14.1667 7.6127 14.1667 8.4085 14.1667 10 14.1667 11.5915 14.1667 12.3873 13.6785 12.8818 13.4063 13.1574 13.0418 13.2793 12.5 13.3333M7.5 13.3333C6.9583 13.2793 6.5937 13.1574 6.3215 12.8818 5.8333 12.3873 5.8333 11.5915 5.8333 10 5.8333 8.4085 5.8333 7.6127 6.3215 7.1183 6.5937 6.8426 6.9583 6.7206 7.5 6.6667" stroke="currentColor" stroke-linecap="round" stroke-linejoin="round" stroke-width="2"/>
  <path d="M2.0833 10C2.0833 6.268 2.0833 4.4021 3.2427 3.2427 4.4021 2.0833 6.268 2.0833 10 2.0833 13.7319 2.0833 15.5979 2.0833 16.7573 3.2427 17.9167 4.4021 17.9167 6.268 17.9167 10 17.9167 13.7319 17.9167 15.5979 16.7573 16.7573 15.5979 17.9167 13.7319 17.9167 10 17.9167 6.268 17.9167 4.4021 17.9167 3.2427 16.7573 2.0833 15.5979 2.0833 13.7319 2.0833 10Z" stroke="currentColor" stroke-linejoin="round" stroke-width="2"/>
</svg>
