<svg xmlns="http://www.w3.org/2000/svg" width="20" height="20" viewBox="0 0 20 20" fill="none">
  <path d="M13.3333 5C13.3333 3.6193 11.8409 2.5 10 2.5 8.1591 2.5 6.6667 3.6193 6.6667 5 6.6667 6.3807 8.282 7.5 10 7.5 12.0833 7.5 13.3333 8.6193 13.3333 10 13.3333 11.3808 11.8409 12.5 10 12.5 8.1591 12.5 6.6667 11.3808 6.6667 10" stroke="currentColor" stroke-linecap="round" stroke-linejoin="round" stroke-width="2"/>
  <path d="M13.3333 10C13.3333 8.6193 11.8409 7.5 10 7.5 8.1591 7.5 6.6667 8.6193 6.6667 10 6.6667 11.3808 8.282 12.5 10 12.5 12.0833 12.5 13.3333 13.6193 13.3333 15 13.3333 16.3808 11.8409 17.5 10 17.5 8.1591 17.5 6.6667 16.3808 6.6667 15" stroke="currentColor" stroke-linecap="round" stroke-linejoin="round" stroke-width="2"/>
</svg>
