<svg xmlns="http://www.w3.org/2000/svg" width="20" height="20" viewBox="0 0 20 20" fill="none">
  <path d="M5 10.8333C5 8.0719 7.2386 5.8333 10 5.8333 12.7614 5.8333 15 8.0719 15 10.8333 15 13.5948 12.7614 15.8333 10 15.8333 7.2386 15.8333 5 13.5948 5 10.8333Z" stroke="currentColor" stroke-width="2"/>
  <path d="M12.9167 6.6667V4.6005C12.9167 2.9802 11.6108 1.6667 10 1.6667 8.3892 1.6667 7.0833 2.9802 7.0833 4.6005V6.6667" stroke="currentColor" stroke-width="2"/>
  <path d="M10 15.8333V18.3333M10 18.3333H16.6667M10 18.3333H3.3333" stroke="currentColor" stroke-linecap="round" stroke-linejoin="round" stroke-width="2"/>
  <path d="M10.1042 10.8333H10M10.2083 10.8333C10.2083 10.9484 10.1151 11.0417 10 11.0417 9.8849 11.0417 9.7917 10.9484 9.7917 10.8333 9.7917 10.7183 9.8849 10.625 10 10.625 10.1151 10.625 10.2083 10.7183 10.2083 10.8333Z" stroke="currentColor" stroke-linecap="round" stroke-linejoin="round" stroke-width="2"/>
</svg>
