<svg xmlns="http://www.w3.org/2000/svg" width="20" height="20" viewBox="0 0 20 20" fill="none">
  <path d="M15.5907 2.9128C14.0138 2.1282 12.0841 1.6667 10 1.6667 7.9159 1.6667 5.9863 2.1282 4.4093 2.9128 3.636 3.2975 3.2493 3.4899 2.8747 4.0948 2.5 4.6997 2.5 5.2854 2.5 6.4568V9.3643C2.5 14.1004 6.2853 16.7337 8.4775 17.8615 9.0889 18.1761 9.3946 18.3333 10 18.3333 10.6054 18.3333 10.9111 18.1761 11.5224 17.8615 13.7147 16.7337 17.5 14.1004 17.5 9.3643L17.5 6.4568C17.5 5.2854 17.5 4.6997 17.1253 4.0948 16.7507 3.4899 16.364 3.2975 15.5907 2.9128Z" stroke="currentColor" stroke-linecap="round" stroke-linejoin="round" stroke-width="2"/>
  <path d="M10.1042 9.1667H10M10.2083 9.1667C10.2083 9.2818 10.1151 9.375 10 9.375 9.8849 9.375 9.7917 9.2818 9.7917 9.1667 9.7917 9.0516 9.8849 8.9583 10 8.9583 10.1151 8.9583 10.2083 9.0516 10.2083 9.1667Z" stroke="currentColor" stroke-linecap="round" stroke-width="2"/>
  <path d="M13.4375 9.1667H13.3333M13.5417 9.1667C13.5417 9.2818 13.4484 9.375 13.3333 9.375 13.2183 9.375 13.125 9.2818 13.125 9.1667 13.125 9.0516 13.2183 8.9583 13.3333 8.9583 13.4484 8.9583 13.5417 9.0516 13.5417 9.1667Z" stroke="currentColor" stroke-linecap="round" stroke-width="2"/>
  <path d="M6.7708 9.1667H6.6667M6.875 9.1667C6.875 9.2818 6.7817 9.375 6.6667 9.375 6.5516 9.375 6.4583 9.2818 6.4583 9.1667 6.4583 9.0516 6.5516 8.9583 6.6667 8.9583 6.7817 8.9583 6.875 9.0516 6.875 9.1667Z" stroke="currentColor" stroke-linecap="round" stroke-width="2"/>
</svg>
