<svg xmlns="http://www.w3.org/2000/svg" width="20" height="20" viewBox="0 0 20 20" fill="none">
  <path d="M16.5498 13.2166C17.1281 12.1268 17.5 10.8488 17.5 9.3643L17.5 6.4568C17.5 5.2855 17.5 4.6998 17.1253 4.0949 16.7507 3.49 16.364 3.2976 15.5907 2.9128 14.0138 2.1282 12.0841 1.6667 10 1.6667 8.4563 1.6667 6.9972 1.92 5.7035 2.3702M3.4513 3.4514C3.2303 3.6165 3.0512 3.8099 2.8747 4.0949 2.5 4.6998 2.5 5.2854 2.5 6.4568V9.3643C2.5 14.1004 6.2853 16.7337 8.4775 17.8616 9.0889 18.1761 9.3946 18.3334 10 18.3334 10.6054 18.3334 10.9111 18.1761 11.5224 17.8616 12.567 17.3242 13.9733 16.445 15.1593 15.1594" stroke="currentColor" stroke-linecap="round" stroke-linejoin="round" stroke-width="2"/>
  <path d="M1.6667 1.6667L18.3333 18.3334" stroke="currentColor" stroke-linecap="round" stroke-linejoin="round" stroke-width="2"/>
</svg>
