<svg xmlns="http://www.w3.org/2000/svg" width="20" height="20" viewBox="0 0 20 20" fill="none">
  <path d="M15.5907 2.9129C14.0138 2.1283 12.0841 1.6668 10 1.6668 7.9159 1.6668 5.9863 2.1283 4.4093 2.9129 3.636 3.2977 3.2493 3.49 2.8747 4.0949 2.5 4.6998 2.5 5.2855 2.5 6.4569V9.3643C2.5 14.1005 6.2853 16.7338 8.4775 17.8616 9.0889 18.1762 9.3946 18.3334 10 18.3334 10.6054 18.3334 10.9111 18.1762 11.5224 17.8616 13.7147 16.7338 17.5 14.1005 17.5 9.3643L17.5 6.4569C17.5 5.2855 17.5 4.6998 17.1253 4.0949 16.7507 3.49 16.364 3.2977 15.5907 2.9129Z" stroke="currentColor" stroke-linecap="round" stroke-linejoin="round" stroke-width="2"/>
  <path d="M10 7.5001V8.3334M9.1667 7.9168C9.1667 8.1378 9.2545 8.3498 9.4108 8.506 9.567 8.6623 9.779 8.7501 10 8.7501 10.221 8.7501 10.433 8.6623 10.5893 8.506 10.7455 8.3498 10.8333 8.1378 10.8333 7.9168 10.8333 7.6958 10.7455 7.4838 10.5893 7.3275 10.433 7.1712 10.221 7.0834 10 7.0834 9.779 7.0834 9.567 7.1712 9.4108 7.3275 9.2545 7.4838 9.1667 7.6958 9.1667 7.9168Z" stroke="currentColor" stroke-linecap="round" stroke-linejoin="round" stroke-width="2"/>
  <path d="M10.625 11.6668H9.375L10 8.7501 10.625 11.6668Z" stroke="currentColor" stroke-linecap="round" stroke-linejoin="round" stroke-width="2"/>
</svg>
