<svg xmlns="http://www.w3.org/2000/svg" width="20" height="20" viewBox="0 0 20 20" fill="none">
  <path d="M6.6667 14.1667H13.3333" stroke="currentColor" stroke-linecap="round" stroke-linejoin="round" stroke-width="2"/>
  <path d="M11.25 14.1667V10M8.75 10.8333V14.1667" stroke="currentColor" stroke-linecap="round" stroke-linejoin="round" stroke-width="2"/>
  <path d="M13.253 4.6967L14.439 4.432M14.439 4.432L15.625 4.1673M14.439 4.432L14.9866 6.7253M2.9745 6.991L4.1605 6.7263M4.1605 6.7263L5.3465 6.4615M4.1605 6.7263L4.7081 9.0195M2.1385 9.5931L17.5562 6.1517C17.8837 6.0786 18.2105 6.276 18.2862 6.5927 18.513 7.5426 17.9003 8.4904 16.9178 8.7097L3.8721 11.6217C2.8896 11.8409 1.9092 11.2487 1.6824 10.2988 1.6068 9.9822 1.811 9.6662 2.1385 9.5931Z" stroke="currentColor" stroke-linecap="round" stroke-linejoin="round" stroke-width="2"/>
</svg>
