<svg xmlns="http://www.w3.org/2000/svg" width="20" height="20" viewBox="0 0 20 20" fill="none">
  <path d="M9.1667 11.6667L7.5595 7.0833M7.5595 7.0833L6.1494 3.062C6.1103 2.9504 6.0907 2.8946 6.066 2.8472 5.9711 2.6655 5.8091 2.5413 5.6245 2.5085 5.5763 2.5 5.5231 2.5 5.4167 2.5 5.3103 2.5 5.2571 2.5 5.2089 2.5085 5.0242 2.5413 4.8622 2.6655 4.7674 2.8472 4.7426 2.8946 4.723 2.9504 4.6839 3.062L3.2738 7.0833M7.5595 7.0833L3.2738 7.0833M3.2738 7.0833L1.6667 11.6667" stroke="currentColor" stroke-linecap="round" stroke-linejoin="round" stroke-width="2"/>
  <path d="M16.6667 15.8333C16.6667 16.7538 15.9205 17.5 15 17.5 14.0795 17.5 13.3333 16.7538 13.3333 15.8333M16.6667 15.8333C16.6667 14.9128 15.9205 14.1667 15 14.1667 14.0795 14.1667 13.3333 14.9128 13.3333 15.8333M16.6667 15.8333H18.3333M13.3333 15.8333H6.6667M6.6667 15.8333C6.6667 16.7538 5.9205 17.5 5 17.5 4.0795 17.5 3.3333 16.7538 3.3333 15.8333M6.6667 15.8333C6.6667 14.9128 5.9205 14.1667 5 14.1667 4.0795 14.1667 3.3333 14.9128 3.3333 15.8333M3.3333 15.8333H1.6667" stroke="currentColor" stroke-linecap="round" stroke-width="2"/>
  <path d="M12.5 7.0833V4.1667C12.5 3.381 12.5 2.9882 12.7441 2.7441 12.9882 2.5 13.381 2.5 14.1667 2.5H15.2083C16.474 2.5 17.5 3.526 17.5 4.7917 17.5 6.0573 16.474 7.0833 15.2083 7.0833H12.5ZM12.5 7.0833H16.0417C17.3073 7.0833 18.3333 8.1094 18.3333 9.375 18.3333 10.6407 17.3073 11.6667 16.0417 11.6667H14.1667C13.381 11.6667 12.9882 11.6667 12.7441 11.4226 12.5 11.1785 12.5 10.7857 12.5 10V7.0833Z" stroke="currentColor" stroke-linecap="round" stroke-linejoin="round" stroke-width="2"/>
</svg>
