<svg xmlns="http://www.w3.org/2000/svg" width="20" height="20" viewBox="0 0 20 20" fill="none">
  <path d="M4.1667 1.6667V6.6667M1.6667 4.1667H6.6667" stroke="currentColor" stroke-linecap="round" stroke-linejoin="round" stroke-width="2"/>
  <path d="M16.6667 15L16.6667 5.8333M5.8333 16.6667H15M15 4.1667H10M4.1667 10V15" stroke="currentColor" stroke-linecap="round" stroke-linejoin="round" stroke-width="2"/>
  <path d="M15 4.1667C15 3.381 15 2.9882 15.2441 2.7441 15.4882 2.5 15.881 2.5 16.6667 2.5 17.4523 2.5 17.8452 2.5 18.0892 2.7441 18.3333 2.9882 18.3333 3.381 18.3333 4.1667 18.3333 4.9523 18.3333 5.3452 18.0892 5.5893 17.8452 5.8333 17.4523 5.8333 16.6667 5.8333 15.881 5.8333 15.4882 5.8333 15.2441 5.5893 15 5.3452 15 4.9523 15 4.1667Z" stroke="currentColor" stroke-width="2"/>
  <path d="M15 16.6667C15 15.881 15 15.4882 15.2441 15.2441 15.4882 15 15.881 15 16.6667 15 17.4523 15 17.8452 15 18.0892 15.2441 18.3333 15.4882 18.3333 15.881 18.3333 16.6667 18.3333 17.4523 18.3333 17.8452 18.0892 18.0892 17.8452 18.3333 17.4523 18.3333 16.6667 18.3333 15.881 18.3333 15.4882 18.3333 15.2441 18.0892 15 17.8452 15 17.4523 15 16.6667Z" stroke="currentColor" stroke-width="2"/>
  <path d="M2.5 16.6667C2.5 15.881 2.5 15.4882 2.7441 15.2441 2.9882 15 3.381 15 4.1667 15 4.9523 15 5.3452 15 5.5893 15.2441 5.8333 15.4882 5.8333 15.881 5.8333 16.6667 5.8333 17.4523 5.8333 17.8452 5.5893 18.0892 5.3452 18.3333 4.9523 18.3333 4.1667 18.3333 3.381 18.3333 2.9882 18.3333 2.7441 18.0892 2.5 17.8452 2.5 17.4523 2.5 16.6667Z" stroke="currentColor" stroke-width="2"/>
</svg>
