<svg xmlns="http://www.w3.org/2000/svg" width="20" height="20" viewBox="0 0 20 20" fill="none">
  <path d="M7.5 12.4983L4.1667 17.915M6.5644 13.8047L5.3369 13.0379C4.9572 12.8007 4.4583 12.9173 4.2213 13.2988L3.0401 15.2011C2.8073 15.5758 2.9132 16.0689 3.2788 16.3136L4.5893 17.1904" stroke="currentColor" stroke-linecap="round" stroke-linejoin="round" stroke-width="2"/>
  <path d="M8.3334 10.8317L9.7257 8.047C10.1493 7.2001 11.0149 6.665 11.9618 6.665H12.4122C13.248 6.665 14.0286 7.0828 14.4923 7.7783L15.4168 9.165 17.0834 10.415M13.3334 7.0817V11.5558C13.3334 11.6283 13.3429 11.7005 13.3616 11.7706L15.0001 17.915 11.2533 12.2948C10.9795 11.8842 10.8334 11.4017 10.8334 10.9081V7.0817" stroke="currentColor" stroke-linecap="round" stroke-linejoin="round" stroke-width="2"/>
  <path d="M12.0833 14.1276L10 17.9167 12.9167 14.5828" stroke="currentColor" stroke-linecap="round" stroke-linejoin="round" stroke-width="2"/>
  <path d="M12.0833 4.5817C12.7737 4.5817 13.3333 4.0221 13.3333 3.3317 13.3333 2.6414 12.7737 2.0817 12.0833 2.0817 11.393 2.0817 10.8333 2.6414 10.8333 3.3317 10.8333 4.0221 11.393 4.5817 12.0833 4.5817Z" stroke="currentColor" stroke-linecap="round" stroke-linejoin="round" stroke-width="2"/>
</svg>
