<svg xmlns="http://www.w3.org/2000/svg" width="20" height="20" viewBox="0 0 20 20" fill="none">
  <path d="M14.1667 5C14.1546 3.5779 14.0757 2.7939 13.5585 2.2769 12.9482 1.6667 11.9659 1.6667 10.0013 1.6667H7.5008C5.5363 1.6667 4.554 1.6667 3.9437 2.2769 3.3333 2.8871 3.3333 3.8691 3.3333 5.8333V14.1667C3.3333 16.1308 3.3333 17.1129 3.9437 17.7232 4.554 18.3333 5.5363 18.3333 7.5008 18.3333H10.0013C11.9659 18.3333 12.9482 18.3333 13.5585 17.7232 14.0757 17.2061 14.1546 16.4221 14.1667 14.9999" stroke="currentColor" stroke-linecap="round" stroke-linejoin="round" stroke-width="2"/>
  <path d="M10.4167 1.6667H7.0833L7.5 2.5H10L10.4167 1.6667Z" stroke="currentColor" stroke-linecap="round" stroke-linejoin="round" stroke-width="2"/>
  <path d="M15.8333 10.0281H10M14.1667 7.5C14.1667 7.5 15.8643 8.8724 16.5173 9.6278 16.6223 9.7492 16.672 9.8856 16.6663 10.0211 16.6611 10.1426 16.6114 10.2635 16.5173 10.3723 15.864 11.1276 14.1667 12.5 14.1667 12.5" stroke="currentColor" stroke-linecap="round" stroke-linejoin="round" stroke-width="2"/>
</svg>
