<svg xmlns="http://www.w3.org/2000/svg" width="20" height="20" viewBox="0 0 20 20" fill="none">
  <path d="M8.1063 2.8042C8.3333 3.2498 8.3333 3.8332 8.3333 5 8.3333 6.1668 8.3333 6.7502 8.1063 7.1958 7.9065 7.5878 7.5878 7.9065 7.1958 8.1063 6.7502 8.3333 6.1668 8.3333 5 8.3333 3.8332 8.3333 3.2498 8.3333 2.8042 8.1063 2.4122 7.9065 2.0935 7.5878 1.8937 7.1958 1.6667 6.7502 1.6667 6.1668 1.6667 5 1.6667 3.8332 1.6667 3.2498 1.8937 2.8042 2.0935 2.4122 2.4122 2.0935 2.8042 1.8937 3.2498 1.6667 3.8332 1.6667 5 1.6667 6.1668 1.6667 6.7502 1.6667 7.1958 1.8937 7.5878 2.0935 7.9065 2.4122 8.1063 2.8042Z" stroke="currentColor" stroke-linecap="round" stroke-linejoin="round" stroke-width="2"/>
  <path d="M18.1062 12.8042C18.3333 13.2498 18.3333 13.8333 18.3333 15 18.3333 16.1668 18.3333 16.7502 18.1062 17.1958 17.9065 17.5878 17.5878 17.9065 17.1958 18.1062 16.7502 18.3333 16.1668 18.3333 15 18.3333 13.8333 18.3333 13.2498 18.3333 12.8042 18.1062 12.4122 17.9065 12.0935 17.5878 11.8938 17.1958 11.6667 16.7502 11.6667 16.1668 11.6667 15 11.6667 13.8333 11.6667 13.2498 11.8938 12.8042 12.0935 12.4122 12.4122 12.0935 12.8042 11.8938 13.2498 11.6667 13.8333 11.6667 15 11.6667 16.1668 11.6667 16.7502 11.6667 17.1958 11.8938 17.5878 12.0935 17.9065 12.4122 18.1062 12.8042Z" stroke="currentColor" stroke-linecap="round" stroke-linejoin="round" stroke-width="2"/>
  <path d="M11.6667 5C12.4416 5 12.8291 5 13.147 5.0852 14.0097 5.3163 14.6836 5.9902 14.9148 6.8529 15 7.1709 15 7.5584 15 8.3333M5 11.6667C5 12.4417 5 12.8292 5.0852 13.1471 5.3163 14.0097 5.9902 14.6837 6.8529 14.9148 7.1708 15 7.5583 15 8.3333 15" stroke="currentColor" stroke-linecap="round" stroke-linejoin="round" stroke-width="2"/>
</svg>
