<svg xmlns="http://www.w3.org/2000/svg" width="20" height="20" viewBox="0 0 20 20" fill="none">
  <path d="M10 15C7.7634 15 5.7213 15.3147 4.1667 15.8333" stroke="currentColor" stroke-linecap="round" stroke-linejoin="round" stroke-width="2"/>
  <path d="M15 10.8333C16.8409 10.8333 18.3333 9.3409 18.3333 7.5 18.3333 5.6591 16.8409 4.1667 15 4.1667 14.3139 4.1667 13.6763 4.3739 13.1462 4.7293 12.6906 3.431 11.454 2.5 10 2.5 8.546 2.5 7.3094 3.431 6.8538 4.7293 6.3238 4.3739 5.6861 4.1667 5 4.1667 3.1591 4.1667 1.6667 5.6591 1.6667 7.5 1.6667 9.3409 3.1591 10.8333 5 10.8333V15.4167" stroke="currentColor" stroke-linecap="round" stroke-linejoin="round" stroke-width="2"/>
  <path d="M17.5 15.4167L12.5 15.4167M17.5 15.4167C17.5 16.0002 15.8381 17.0904 15.4167 17.5M17.5 15.4167C17.5 14.8332 15.8381 13.7429 15.4167 13.3333" stroke="currentColor" stroke-linecap="round" stroke-linejoin="round" stroke-width="2"/>
</svg>
