<svg xmlns="http://www.w3.org/2000/svg" width="20" height="20" viewBox="0 0 20 20" fill="none">
  <circle cx="10" cy="10" r="8.333333333333334" stroke="currentColor" stroke-linecap="round" stroke-linejoin="round" stroke-width="2"/>
  <path d="M6.6689 7.5157C6.6689 7.5157 6.8771 6.9968 6.3531 6.7427 5.4196 6.29 4.1971 7.9684 5.7219 8.8943 7.2986 9.8518 8.3333 8.0805 8.3333 6.7427" stroke="currentColor" stroke-linecap="round" stroke-linejoin="round" stroke-width="2"/>
  <path d="M13.3312 8.3177C13.3312 8.3177 13.1228 8.8365 13.6468 9.0907 14.5804 9.5433 15.8029 7.865 14.2781 6.939 12.7014 5.9815 11.6667 7.7529 11.6667 9.0907" stroke="currentColor" stroke-linecap="round" stroke-linejoin="round" stroke-width="2"/>
  <path d="M13.3333 13.8333L13.1089 13.6667C12.5104 13.2223 11.806 13.2223 11.2076 13.6667L10.9832 13.8333C10.3847 14.2777 9.6803 14.2777 9.0818 13.8333L8.8573 13.6667C8.2589 13.2223 7.5545 13.2223 6.956 13.6667L6.6667 13.8816" stroke="currentColor" stroke-linecap="round" stroke-linejoin="round" stroke-width="2"/>
</svg>
