<svg xmlns="http://www.w3.org/2000/svg" width="20" height="20" viewBox="0 0 20 20" fill="none">
  <path d="M7.9151 12.5L14.1651 6.25" stroke="currentColor" stroke-linecap="round" stroke-linejoin="round" stroke-width="2"/>
  <path d="M6.6719 6.3991L12.7725 3.5157C15.3073 2.3176 16.5748 1.7186 17.3832 2.3195 18.1916 2.9205 17.9606 4.29 17.4987 7.0291L16.7029 11.7473C16.4009 13.5383 16.2498 14.4337 15.5824 14.8243 14.9149 15.2148 14.0478 14.9148 12.3138 14.315L7.009 12.4802C3.766 11.3584 2.1445 10.7976 2.0835 9.6971 2.0225 8.5966 3.5723 7.8641 6.6719 6.3991Z" stroke="currentColor" stroke-linecap="round" stroke-linejoin="round" stroke-width="2"/>
  <path d="M7.9151 12.9167V14.7728C7.9151 16.7508 7.9151 17.7398 8.5069 17.8976 9.0988 18.0553 9.722 17.2324 10.9685 15.5866L11.6651 14.5833" stroke="currentColor" stroke-linecap="round" stroke-linejoin="round" stroke-width="2"/>
</svg>
