<svg xmlns="http://www.w3.org/2000/svg" width="20" height="20" viewBox="0 0 20 20" fill="none">
  <path d="M4.1667 16.6667L6.1774 14.6559M6.1774 14.6559C6.8476 15.3262 7.7736 15.7408 8.7963 15.7408 10.8418 15.7408 12.5 14.0825 12.5 12.037 12.5 9.9915 10.8418 8.3333 8.7963 8.3333 6.7508 8.3333 5.0926 9.9915 5.0926 12.037 5.0926 13.0597 5.5071 13.9858 6.1774 14.6559Z" stroke="currentColor" stroke-linecap="round" stroke-width="2"/>
  <path d="M2.5 12.6564C1.97 11.7428 1.6667 10.6826 1.6667 9.5519 1.6667 6.1175 4.4649 3.3333 7.9167 3.3333H12.0833C15.5351 3.3333 18.3333 6.1175 18.3333 9.5519 18.3333 12.2595 16.5942 14.563 14.1667 15.4167" stroke="currentColor" stroke-linecap="round" stroke-width="2"/>
</svg>
