<svg xmlns="http://www.w3.org/2000/svg" width="20" height="20" viewBox="0 0 20 20" fill="none">
  <path d="M15.4167 2.5H4.5833C4.1961 2.5 4.0025 2.5 3.8415 2.532 3.1804 2.6635 2.6635 3.1804 2.532 3.8415 2.5 4.0025 2.5 4.1961 2.5 4.5833 2.5 4.9706 2.5 5.1642 2.532 5.3251 2.6635 5.9863 3.1804 6.5031 3.8415 6.6346 4.0025 6.6667 4.1961 6.6667 4.5833 6.6667H15.4167C15.8039 6.6667 15.9975 6.6667 16.1585 6.6346 16.8197 6.5031 17.3365 5.9863 17.468 5.3251 17.5 5.1642 17.5 4.9706 17.5 4.5833 17.5 4.1961 17.5 4.0025 17.468 3.8415 17.3365 3.1804 16.8197 2.6635 16.1585 2.532 15.9975 2.5 15.8039 2.5 15.4167 2.5Z" stroke="currentColor" stroke-linecap="round" stroke-linejoin="round" stroke-width="2"/>
  <path d="M15.4167 9.1667H4.5833C4.1961 9.1667 4.0025 9.1667 3.8415 9.1987 3.1804 9.3302 2.6635 9.847 2.532 10.5082 2.5 10.6692 2.5 10.8628 2.5 11.25 2.5 11.6373 2.5 11.8308 2.532 11.9918 2.6635 12.653 3.1804 13.1698 3.8415 13.3013 4.0025 13.3333 4.1961 13.3333 4.5833 13.3333H15.4167C15.8039 13.3333 15.9975 13.3333 16.1585 13.3013 16.8197 13.1698 17.3365 12.653 17.468 11.9918 17.5 11.8308 17.5 11.6373 17.5 11.25 17.5 10.8628 17.5 10.6692 17.468 10.5082 17.3365 9.847 16.8197 9.3302 16.1585 9.1987 15.9975 9.1667 15.8039 9.1667 15.4167 9.1667Z" stroke="currentColor" stroke-linecap="round" stroke-linejoin="round" stroke-width="2"/>
  <path d="M10 15.8333V17.5M4.1667 17.5H15.8333" stroke="currentColor" stroke-linecap="round" stroke-linejoin="round" stroke-width="2"/>
  <path d="M5.042 4.582H5.0003M5.0837 4.582C5.0837 4.6281 5.0464 4.6654 5.0003 4.6654 4.9543 4.6654 4.917 4.6281 4.917 4.582 4.917 4.536 4.9543 4.4987 5.0003 4.4987 5.0464 4.4987 5.0837 4.536 5.0837 4.582Z" stroke="currentColor" stroke-linecap="round" stroke-linejoin="round" stroke-width="2"/>
  <path d="M7.542 4.582H7.5003M7.5837 4.582C7.5837 4.6281 7.5463 4.6654 7.5003 4.6654 7.4543 4.6654 7.417 4.6281 7.417 4.582 7.417 4.536 7.4543 4.4987 7.5003 4.4987 7.5463 4.4987 7.5837 4.536 7.5837 4.582Z" stroke="currentColor" stroke-linecap="round" stroke-linejoin="round" stroke-width="2"/>
  <path d="M5.042 11.2487H5.0003M5.0837 11.2487C5.0837 11.2948 5.0464 11.332 5.0003 11.332 4.9543 11.332 4.917 11.2948 4.917 11.2487 4.917 11.2027 4.9543 11.1653 5.0003 11.1653 5.0464 11.1653 5.0837 11.2027 5.0837 11.2487Z" stroke="currentColor" stroke-linecap="round" stroke-linejoin="round" stroke-width="2"/>
  <path d="M7.542 11.2487H7.5003M7.5837 11.2487C7.5837 11.2948 7.5463 11.332 7.5003 11.332 7.4543 11.332 7.417 11.2948 7.417 11.2487 7.417 11.2027 7.4543 11.1653 7.5003 11.1653 7.5463 11.1653 7.5837 11.2027 7.5837 11.2487Z" stroke="currentColor" stroke-linecap="round" stroke-linejoin="round" stroke-width="2"/>
</svg>
