<svg xmlns="http://www.w3.org/2000/svg" width="20" height="20" viewBox="0 0 20 20" fill="none">
  <path d="M15 2.5H5C4.2234 2.5 3.8352 2.5 3.5289 2.6269 3.1205 2.796 2.796 3.1205 2.6269 3.5289 2.5 3.8352 2.5 4.2234 2.5 5 2.5 5.7766 2.5 6.1649 2.6269 6.4711 2.796 6.8795 3.1205 7.204 3.5289 7.3731 3.8352 7.5 4.2234 7.5 5 7.5H15C15.7766 7.5 16.1648 7.5 16.4712 7.3731 16.8795 7.204 17.204 6.8795 17.3732 6.4711 17.5 6.1649 17.5 5.7766 17.5 5 17.5 4.2234 17.5 3.8352 17.3732 3.5289 17.204 3.1205 16.8795 2.796 16.4712 2.6269 16.1648 2.5 15.7766 2.5 15 2.5Z" stroke="currentColor" stroke-linecap="round" stroke-linejoin="round" stroke-width="2"/>
  <path d="M15 7.5H5C4.2234 7.5 3.8352 7.5 3.5289 7.6269 3.1205 7.796 2.796 8.1205 2.6269 8.5288 2.5 8.8352 2.5 9.2234 2.5 10 2.5 10.7766 2.5 11.1648 2.6269 11.4712 2.796 11.8795 3.1205 12.204 3.5289 12.3732 3.8352 12.5 4.2234 12.5 5 12.5H15C15.7766 12.5 16.1648 12.5 16.4712 12.3732 16.8795 12.204 17.204 11.8795 17.3732 11.4712 17.5 11.1648 17.5 10.7766 17.5 10 17.5 9.2234 17.5 8.8352 17.3732 8.5288 17.204 8.1205 16.8795 7.796 16.4712 7.6269 16.1648 7.5 15.7766 7.5 15 7.5Z" stroke="currentColor" stroke-linecap="round" stroke-linejoin="round" stroke-width="2"/>
  <path d="M15 12.5H5C4.2234 12.5 3.8352 12.5 3.5289 12.6268 3.1205 12.796 2.796 13.1205 2.6269 13.5288 2.5 13.8352 2.5 14.2234 2.5 15 2.5 15.7766 2.5 16.1648 2.6269 16.4712 2.796 16.8795 3.1205 17.204 3.5289 17.3732 3.8352 17.5 4.2234 17.5 5 17.5H15C15.7766 17.5 16.1648 17.5 16.4712 17.3732 16.8795 17.204 17.204 16.8795 17.3732 16.4712 17.5 16.1648 17.5 15.7766 17.5 15 17.5 14.2234 17.5 13.8352 17.3732 13.5288 17.204 13.1205 16.8795 12.796 16.4712 12.6268 16.1648 12.5 15.7766 12.5 15 12.5Z" stroke="currentColor" stroke-linecap="round" stroke-linejoin="round" stroke-width="2"/>
  <path d="M5 5H5.0083" stroke="currentColor" stroke-linecap="round" stroke-linejoin="round" stroke-width="2"/>
  <path d="M5 10H5.0083" stroke="currentColor" stroke-linecap="round" stroke-linejoin="round" stroke-width="2"/>
  <path d="M5 15H5.0083" stroke="currentColor" stroke-linecap="round" stroke-linejoin="round" stroke-width="2"/>
  <path d="M7.5 5H7.5083" stroke="currentColor" stroke-linecap="round" stroke-linejoin="round" stroke-width="2"/>
  <path d="M7.5 10H7.5083" stroke="currentColor" stroke-linecap="round" stroke-linejoin="round" stroke-width="2"/>
  <path d="M7.5 15H7.5083" stroke="currentColor" stroke-linecap="round" stroke-linejoin="round" stroke-width="2"/>
</svg>
