<svg xmlns="http://www.w3.org/2000/svg" width="20" height="20" viewBox="0 0 20 20" fill="none">
  <path d="M16.1811 13.0944C19.4733 8.9198 18.5839 4.7792 16.2188 3.3285 13.9841 1.9577 12.0337 2.5101 10.862 3.39L9.9998 4.0347M16.1811 13.0944C15.3908 14.0963 14.3598 15.1003 13.0504 16.0695 11.7619 17.0232 11.1177 17.5 10 17.5 8.8823 17.5 8.2381 17.0232 6.9496 16.0695 0.1848 11.0624 0.8484 5.1274 3.7812 3.3285 6.0159 1.9577 7.9664 2.5101 9.138 3.39L9.9998 4.0347M16.1811 13.0944L11.5768 7.8707C11.3883 7.6568 11.0728 7.6108 10.831 7.7619L9.0092 8.9005C8.3682 9.3012 7.5361 9.211 6.9958 8.6822 6.282 7.9839 6.354 6.8147 7.1481 6.2092L9.9998 4.0347" stroke="currentColor" stroke-linecap="round" stroke-linejoin="round" stroke-width="2"/>
</svg>
