<svg xmlns="http://www.w3.org/2000/svg" width="20" height="20" viewBox="0 0 20 20" fill="none">
  <path d="M3.3333 11.6667H18.3333" stroke="currentColor" stroke-linecap="round" stroke-linejoin="round" stroke-width="2"/>
  <path d="M4.1667 18.3333L4.9421 17.5578C5.3828 17.1173 5.6031 16.8969 5.8807 16.7717 6.1583 16.6463 6.4693 16.6269 7.0912 16.5881L9.8016 16.4187C11.1337 16.3354 11.7998 16.2937 12.3858 16.0123 12.972 15.7308 13.4209 15.237 14.3187 14.2494L16.6667 11.6667H13.75L12.2559 13.1608C12.1566 13.2601 12.1068 13.3098 12.0552 13.3537 11.7893 13.5795 11.4593 13.7162 11.1118 13.7445 11.0441 13.75 10.9738 13.75 10.8333 13.75M1.6667 15.8333L4.2315 13.2686C4.8472 12.6527 5.1551 12.3448 5.5181 12.1303 5.7884 11.9706 6.08 11.8498 6.3841 11.7717 6.7924 11.6667 7.2279 11.6667 8.0987 11.6667H8.75C9.1373 11.6667 9.3308 11.6667 9.4918 11.6987 10.153 11.8302 10.6698 12.347 10.8013 13.0082 10.8333 13.1692 10.8333 13.3628 10.8333 13.75M10.8333 13.75H7.9167" stroke="currentColor" stroke-linecap="round" stroke-linejoin="round" stroke-width="2"/>
  <path d="M4.1667 9.5833C4.1667 5.9014 7.1514 2.9167 10.8333 2.9167M10.8333 2.9167C14.5152 2.9167 17.5 5.9014 17.5 9.5833M10.8333 2.9167V1.6667" stroke="currentColor" stroke-linecap="round" stroke-linejoin="round" stroke-width="2"/>
</svg>
