<svg xmlns="http://www.w3.org/2000/svg" width="20" height="20" viewBox="0 0 20 20" fill="none">
  <path d="M15.8333 3.3333H4.1667C3.3901 3.3333 3.0018 3.3333 2.6955 3.4602 2.2872 3.6294 1.9627 3.9538 1.7935 4.3622 1.6667 4.6685 1.6667 5.0568 1.6667 5.8333 1.6667 6.6099 1.6667 6.9982 1.7935 7.3045 1.9627 7.7129 2.2872 8.0373 2.6955 8.2065 3.0018 8.3333 3.3901 8.3333 4.1667 8.3333H15.8333C16.6099 8.3333 16.9982 8.3333 17.3045 8.2065 17.7128 8.0373 18.0373 7.7129 18.2065 7.3045 18.3333 6.9982 18.3333 6.6099 18.3333 5.8333 18.3333 5.0568 18.3333 4.6685 18.2065 4.3622 18.0373 3.9538 17.7128 3.6294 17.3045 3.4602 16.9982 3.3333 16.6099 3.3333 15.8333 3.3333Z" stroke="currentColor" stroke-linecap="round" stroke-linejoin="round" stroke-width="2"/>
  <path d="M15.8333 11.6667H4.1667C3.3901 11.6667 3.0018 11.6667 2.6955 11.7935 2.2872 11.9627 1.9627 12.2872 1.7935 12.6955 1.6667 13.0018 1.6667 13.3901 1.6667 14.1667 1.6667 14.9432 1.6667 15.3315 1.7935 15.6378 1.9627 16.0462 2.2872 16.3707 2.6955 16.5398 3.0018 16.6667 3.3901 16.6667 4.1667 16.6667H15.8333C16.6099 16.6667 16.9982 16.6667 17.3045 16.5398 17.7128 16.3707 18.0373 16.0462 18.2065 15.6378 18.3333 15.3315 18.3333 14.9432 18.3333 14.1667 18.3333 13.3901 18.3333 13.0018 18.2065 12.6955 18.0373 12.2872 17.7128 11.9627 17.3045 11.7935 16.9982 11.6667 16.6099 11.6667 15.8333 11.6667Z" stroke="currentColor" stroke-linecap="round" stroke-linejoin="round" stroke-width="2"/>
  <path d="M5.1042 5.8333H5M5.2083 5.8333C5.2083 5.9484 5.1151 6.0417 5 6.0417 4.8849 6.0417 4.7917 5.9484 4.7917 5.8333 4.7917 5.7183 4.8849 5.625 5 5.625 5.1151 5.625 5.2083 5.7183 5.2083 5.8333Z" stroke="currentColor" stroke-linecap="round" stroke-linejoin="round" stroke-width="2"/>
  <path d="M8.4375 5.8333H8.3333M8.5417 5.8333C8.5417 5.9484 8.4484 6.0417 8.3333 6.0417 8.2183 6.0417 8.125 5.9484 8.125 5.8333 8.125 5.7183 8.2183 5.625 8.3333 5.625 8.4484 5.625 8.5417 5.7183 8.5417 5.8333Z" stroke="currentColor" stroke-linecap="round" stroke-linejoin="round" stroke-width="2"/>
  <path d="M5.1042 14.1667H5M5.2083 14.1667C5.2083 14.2818 5.1151 14.375 5 14.375 4.8849 14.375 4.7917 14.2818 4.7917 14.1667 4.7917 14.0516 4.8849 13.9583 5 13.9583 5.1151 13.9583 5.2083 14.0516 5.2083 14.1667Z" stroke="currentColor" stroke-linecap="round" stroke-linejoin="round" stroke-width="2"/>
  <path d="M8.4375 14.1667H8.3333M8.5417 14.1667C8.5417 14.2818 8.4484 14.375 8.3333 14.375 8.2183 14.375 8.125 14.2818 8.125 14.1667 8.125 14.0516 8.2183 13.9583 8.3333 13.9583 8.4484 13.9583 8.5417 14.0516 8.5417 14.1667Z" stroke="currentColor" stroke-linecap="round" stroke-linejoin="round" stroke-width="2"/>
</svg>
