<svg xmlns="http://www.w3.org/2000/svg" width="20" height="20" viewBox="0 0 20 20" fill="none">
  <path d="M7.99 16.4C7.66 16.7 7.3192 17.0701 7.18 17.0888 7.0408 17.1076 6.8954 17.0195 6.5853 16.8434L5 15.95C4.6 15.75 4.58 15.6 4.58 15.55 4.58 15.5 4.58 15.2883 4.71 14.8537 5.1265 13.25 4.15 11.55 2.4908 11.1166 2.0559 10.9993 1.8385 10.9407 1.7526 10.8285 1.6667 10.7164 1.6667 10.536 1.6667 10.1753V8.5723C1.6667 8.2116 1.6667 8.0312 1.7526 7.919 1.8385 7.8069 2.0559 7.7483 2.4908 7.631 4.1164 7.1927 5.1345 5.5411 4.7152 3.9264 4.5999 3.4823 4.5423 3.2602 4.5973 3.13 4.6524 2.9998 4.8104 2.9101 5.1265 2.7306L6.5638 1.9146C6.874 1.7385 7.0291 1.6504 7.1683 1.6692 7.3075 1.6879 7.4645 1.8446 7.7786 2.1579 8.9947 3.3711 11.0067 3.3711 12.2227 2.158 12.5368 1.8447 12.6938 1.688 12.833 1.6692 12.9723 1.6505 13.1273 1.7385 13.4376 1.9147L14.8748 2.7307C15.1909 2.9102 15.3489 2.9999 15.404 3.1301 15.4591 3.2604 15.4014 3.4824 15.2861 3.9264 14.8666 5.5411 15.8838 7.2017 17.5092 7.64 17.9441 7.7573 18.1615 7.8178 18.2474 7.93 18.3333 8.0421 18.3333 8.3993 18.3333 8.76" stroke="currentColor" stroke-linecap="round" stroke-width="2"/>
  <path d="M12.5 14.35C12.5 14.35 13.3333 14.5867 13.75 15.42 13.75 15.42 14.6635 13.3367 15.84 12.92" stroke="currentColor" stroke-linecap="round" stroke-linejoin="round" stroke-width="2"/>
  <path d="M18.3333 14.1667C18.3333 16.4678 16.4678 18.3333 14.1667 18.3333 11.8655 18.3333 10 16.4678 10 14.1667 10 11.8655 11.8655 10 14.1667 10 16.4678 10 18.3333 11.8655 18.3333 14.1667Z" stroke="currentColor" stroke-linecap="round" stroke-width="2"/>
  <path d="M12.3996 7.7498C11.7496 6.8498 10.7696 6.4998 9.9696 6.4998 8.4696 6.5198 7.0996 7.759 7.0996 9.3698 7.0996 10.2579 7.3496 10.8998 8.0496 11.5998" stroke="currentColor" stroke-linecap="round" stroke-width="2"/>
</svg>
