<svg xmlns="http://www.w3.org/2000/svg" width="20" height="20" viewBox="0 0 20 20" fill="none">
  <path d="M2.0833 10C2.0833 6.268 2.0833 4.4021 3.2427 3.2427 4.4021 2.0833 6.268 2.0833 10 2.0833 13.7319 2.0833 15.5979 2.0833 16.7573 3.2427 17.9167 4.4021 17.9167 6.268 17.9167 10 17.9167 13.7319 17.9167 15.5979 16.7573 16.7573 15.5979 17.9167 13.7319 17.9167 10 17.9167 6.268 17.9167 4.4021 17.9167 3.2427 16.7573 2.0833 15.5979 2.0833 13.7319 2.0833 10Z" stroke="currentColor" stroke-linejoin="round" stroke-width="2"/>
  <path d="M8.3333 12.9167C8.3333 13.607 7.7737 14.1667 7.0833 14.1667 6.393 14.1667 5.8333 13.607 5.8333 12.9167 5.8333 12.2263 6.393 11.6667 7.0833 11.6667 7.7737 11.6667 8.3333 12.2263 8.3333 12.9167Z" stroke="currentColor" stroke-width="2"/>
  <path d="M14.1667 7.0833C14.1667 6.393 13.607 5.8333 12.9167 5.8333 12.2263 5.8333 11.6667 6.393 11.6667 7.0833 11.6667 7.7737 12.2263 8.3333 12.9167 8.3333 13.607 8.3333 14.1667 7.7737 14.1667 7.0833Z" stroke="currentColor" stroke-width="2"/>
  <path d="M7.0833 11.6667V5.8333" stroke="currentColor" stroke-linecap="round" stroke-width="2"/>
  <path d="M12.9167 8.3333V14.1667" stroke="currentColor" stroke-linecap="round" stroke-width="2"/>
</svg>
