<svg xmlns="http://www.w3.org/2000/svg" width="20" height="20" viewBox="0 0 20 20" fill="none">
  <path d="M12.9167 10C12.9167 11.6108 11.6108 12.9167 10 12.9167 8.3892 12.9167 7.0833 11.6108 7.0833 10 7.0833 8.3892 8.3892 7.0833 10 7.0833 11.6108 7.0833 12.9167 8.3892 12.9167 10Z" stroke="currentColor" stroke-width="2"/>
  <path d="M17.3255 7.6267C17.9974 8.7848 18.3333 9.3638 18.3333 10 18.3333 10.6362 17.9974 11.2152 17.3255 12.3733L15.7224 15.1365C15.0532 16.29 14.7186 16.8668 14.1683 17.1834 13.618 17.5 12.9502 17.5 11.6144 17.5L8.3856 17.5C7.0499 17.5 6.382 17.5 5.8317 17.1834 5.2815 16.8668 4.9468 16.29 4.2776 15.1365L2.6745 12.3733C2.0026 11.2152 1.6667 10.6362 1.6667 10 1.6667 9.3638 2.0026 8.7848 2.6745 7.6267L4.2776 4.8635C4.9468 3.71 5.2815 3.1332 5.8317 2.8166 6.382 2.5 7.0499 2.5 8.3856 2.5L11.6144 2.5C12.9502 2.5 13.618 2.5 14.1683 2.8166 14.7186 3.1332 15.0532 3.71 15.7224 4.8635L17.3255 7.6267Z" stroke="currentColor" stroke-width="2"/>
</svg>
