<svg xmlns="http://www.w3.org/2000/svg" width="20" height="20" viewBox="0 0 20 20" fill="none">
  <path d="M2.0833 10C2.0833 6.268 2.0833 4.4021 3.2427 3.2427 4.4021 2.0833 6.268 2.0833 10 2.0833 13.7319 2.0833 15.5979 2.0833 16.7573 3.2427 17.9167 4.4021 17.9167 6.268 17.9167 10 17.9167 13.7319 17.9167 15.5979 16.7573 16.7573 15.5979 17.9167 13.7319 17.9167 10 17.9167 6.268 17.9167 4.4021 17.9167 3.2427 16.7573 2.0833 15.5979 2.0833 13.7319 2.0833 10Z" stroke="currentColor" stroke-linejoin="round" stroke-width="2"/>
  <path d="M7.0833 8.3333C6.393 8.3333 5.8333 7.7737 5.8333 7.0833 5.8333 6.393 6.393 5.8333 7.0833 5.8333 7.7737 5.8333 8.3333 6.393 8.3333 7.0833 8.3333 7.7737 7.7737 8.3333 7.0833 8.3333Z" stroke="currentColor" stroke-width="2"/>
  <path d="M12.9167 14.1667C13.607 14.1667 14.1667 13.607 14.1667 12.9167 14.1667 12.2263 13.607 11.6667 12.9167 11.6667 12.2263 11.6667 11.6667 12.2263 11.6667 12.9167 11.6667 13.607 12.2263 14.1667 12.9167 14.1667Z" stroke="currentColor" stroke-width="2"/>
  <path d="M8.3333 7.0833L14.1667 7.0833" stroke="currentColor" stroke-linecap="round" stroke-width="2"/>
  <path d="M11.6667 12.9167L5.8333 12.9167" stroke="currentColor" stroke-linecap="round" stroke-width="2"/>
</svg>
