<svg xmlns="http://www.w3.org/2000/svg" width="20" height="20" viewBox="0 0 20 20" fill="none">
  <path d="M13.5902 3.6533C13.0977 3.6533 12.8514 3.6533 12.6271 3.57 12.5959 3.5585 12.5653 3.5458 12.535 3.5319 12.3175 3.4321 12.1434 3.258 11.7951 2.9097 10.9935 2.1081 10.5928 1.7074 10.0996 1.6704 10.0333 1.6654 9.9667 1.6654 9.9004 1.6704 9.4073 1.7074 9.0064 2.1081 8.2049 2.9097 7.8566 3.258 7.6825 3.4321 7.465 3.5319 7.4348 3.5458 7.404 3.5585 7.3729 3.57 7.1485 3.6533 6.9023 3.6533 6.4098 3.6533H6.3189C5.0623 3.6533 4.434 3.6533 4.0437 4.0437 3.6533 4.434 3.6533 5.0623 3.6533 6.3189V6.4098C3.6533 6.9023 3.6533 7.1485 3.57 7.3729 3.5585 7.404 3.5458 7.4348 3.5319 7.465 3.4321 7.6825 3.258 7.8566 2.9097 8.2049 2.1081 9.0064 1.7074 9.4073 1.6704 9.9004 1.6654 9.9667 1.6654 10.0333 1.6704 10.0996 1.7074 10.5928 2.1081 10.9935 2.9097 11.7951 3.258 12.1434 3.4321 12.3175 3.5319 12.535 3.5458 12.5653 3.5585 12.5959 3.57 12.6271 3.6533 12.8514 3.6533 13.0977 3.6533 13.5902V13.6811C3.6533 14.9377 3.6533 15.566 4.0437 15.9563 4.434 16.3468 5.0623 16.3468 6.3189 16.3468H6.4098C6.9023 16.3468 7.1485 16.3468 7.3729 16.43 7.404 16.4415 7.4348 16.4543 7.465 16.4681 7.6825 16.5679 7.8566 16.742 8.2049 17.0903 9.0064 17.8918 9.4073 18.2927 9.9004 18.3296 9.9667 18.3346 10.0333 18.3346 10.0996 18.3296 10.5928 18.2927 10.9935 17.8918 11.7951 17.0903 12.1434 16.742 12.3175 16.5679 12.535 16.4681 12.5653 16.4543 12.5959 16.4415 12.6271 16.43 12.8514 16.3468 13.0977 16.3468 13.5902 16.3468H13.6811C14.9377 16.3468 15.566 16.3468 15.9563 15.9563 16.3468 15.566 16.3468 14.9377 16.3468 13.6811V13.5902C16.3468 13.0977 16.3468 12.8514 16.43 12.6271 16.4415 12.5959 16.4543 12.5653 16.4681 12.535 16.5679 12.3175 16.742 12.1434 17.0903 11.7951 17.8918 10.9935 18.2927 10.5928 18.3296 10.0996 18.3346 10.0333 18.3346 9.9667 18.3296 9.9004 18.2927 9.4073 17.8918 9.0064 17.0903 8.2049 16.742 7.8566 16.5679 7.6825 16.4681 7.465 16.4543 7.4348 16.4415 7.404 16.43 7.3729 16.3468 7.1485 16.3468 6.9023 16.3468 6.4098V6.3189C16.3468 5.0623 16.3468 4.434 15.9563 4.0437 15.566 3.6533 14.9377 3.6533 13.6811 3.6533H13.5902Z" stroke="currentColor" stroke-width="2"/>
  <path d="M12.9167 10C12.9167 11.6108 11.6108 12.9167 10 12.9167 8.3892 12.9167 7.0833 11.6108 7.0833 10 7.0833 8.3892 8.3892 7.0833 10 7.0833 11.6108 7.0833 12.9167 8.3892 12.9167 10Z" stroke="currentColor" stroke-width="2"/>
</svg>
