<svg xmlns="http://www.w3.org/2000/svg" width="20" height="20" viewBox="0 0 20 20" fill="none">
  <path d="M14.1667 12.5V14.1667M14.1742 15.8333H14.1667M18.3333 14.1667C18.3333 16.4678 16.4678 18.3333 14.1667 18.3333 11.8655 18.3333 10 16.4678 10 14.1667 10 11.8655 11.8655 10 14.1667 10 16.4678 10 18.3333 11.8655 18.3333 14.1667Z" stroke="currentColor" stroke-linecap="round" stroke-width="2"/>
  <path d="M12.5239 7.7039C12.019 6.8346 11.0777 6.25 10 6.25 8.3892 6.25 7.0833 7.5558 7.0833 9.1667 7.0833 10.0548 7.4802 10.8501 8.1063 11.385" stroke="currentColor" stroke-linecap="round" stroke-width="2"/>
  <path d="M18.32 8.95C18.3 8.5 17.9974 7.9515 17.3255 6.7933L15.7224 4.0302C15.0532 2.8766 14.7186 2.2999 14.1683 1.9833 13.618 1.6667 12.9502 1.6667 11.6144 1.6667H8.3856C7.0499 1.6667 6.382 1.6667 5.8317 1.9833 5.2815 2.2999 4.9468 2.8766 4.2776 4.0302L2.6745 6.7933C2.0026 7.9515 1.6667 8.5305 1.6667 9.1667 1.6667 9.8028 2.0026 10.3818 2.6745 11.54L4.2776 14.3032C4.9468 15.4567 5.2815 16.0335 5.8317 16.3501 6.35 16.6 6.6643 16.6667 8 16.6667" stroke="currentColor" stroke-linecap="round" stroke-width="2"/>
</svg>
