<svg xmlns="http://www.w3.org/2000/svg" width="20" height="20" viewBox="0 0 20 20" fill="none">
  <path d="M14.1667 12.5V14.1667M14.1742 15.8333H14.1667M18.3333 14.1667C18.3333 16.4678 16.4678 18.3333 14.1667 18.3333 11.8655 18.3333 10 16.4678 10 14.1667 10 11.8655 11.8655 10 14.1667 10 16.4678 10 18.3333 11.8655 18.3333 14.1667Z" stroke="currentColor" stroke-linecap="round" stroke-width="2"/>
  <path d="M11.9867 7.8646C11.4659 7.3798 10.7676 7.0833 10 7.0833 8.3892 7.0833 7.0833 8.3892 7.0833 10 7.0833 10.7676 7.3798 11.4659 7.8646 11.9867" stroke="currentColor" stroke-linecap="round" stroke-width="2"/>
  <path d="M8.15 17.03C7.7787 16.6587 7.657 16.5472 7.4214 16.4491 7.1846 16.3503 6.9381 16.3468 6.4098 16.3468 5.1532 16.3468 4.434 16.3468 4.0437 15.9563 3.6533 15.566 3.6533 14.8468 3.6533 13.5902 3.6533 13.0648 3.6498 12.8181 3.5525 12.5823 3.4548 12.3456 3.283 12.1685 2.9097 11.7951 2.4397 11.325 1.6667 10.7383 1.6667 10 1.6667 9.2617 2.4396 8.6749 2.9097 8.2049 3.2813 7.8333 3.4531 7.6567 3.5511 7.421 3.6496 7.1841 3.6533 6.9377 3.6533 6.4098 3.6533 5.1532 3.6533 4.434 4.0437 4.0437 4.434 3.6533 5.1532 3.6533 6.4098 3.6533 6.9341 3.6533 7.1805 3.65 7.4161 3.5532 7.6538 3.4554 7.8307 3.2839 8.2049 2.9097 8.6749 2.4396 9.342 1.6667 10 1.6667 10.658 1.6667 11.325 2.4397 11.7951 2.9097 12.1691 3.2836 12.3463 3.4553 12.5834 3.553 12.8189 3.6499 13.0656 3.6533 13.5902 3.6533 14.8468 3.6533 15.566 3.6533 15.9563 4.0437 16.3468 4.434 16.3468 5.1532 16.3468 6.4098 16.3468 6.9365 16.3502 7.183 16.4482 7.4193 16.5463 7.6558 16.6576 7.7676 17.03 8.14" stroke="currentColor" stroke-linecap="round" stroke-width="2"/>
</svg>
