<svg xmlns="http://www.w3.org/2000/svg" width="20" height="20" viewBox="0 0 20 20" fill="none">
  <path d="M16.86 8.3783C17.26 7.9284 17.95 7.2484 17.9132 6.9714 17.9415 6.7021 17.7957 6.4491 17.5041 5.943L17.0928 5.2292C16.7818 4.6893 16.6262 4.4194 16.3615 4.3118 16.0969 4.2041 15.7976 4.2891 15.199 4.4589L14.1821 4.7454C13.7999 4.8335 13.399 4.7835 13.05 4.6042L12.7693 4.4422C12.4701 4.2506 12.2399 3.968 12.1125 3.6358L11.8342 2.8047C11.6513 2.2546 11.5598 1.9796 11.3419 1.8223 11.1241 1.665 10.8347 1.665 10.2562 1.665H9.3272C8.7485 1.665 8.4592 1.665 8.2414 1.8223 8.0236 1.9796 7.9321 2.2546 7.7491 2.8047L7.4709 3.6358C7.3434 3.968 7.1133 4.2506 6.814 4.4422L6.5333 4.6042C6.1844 4.7835 5.7834 4.8335 5.4012 4.7454L4.3844 4.4589C3.7858 4.2891 3.4865 4.2041 3.2218 4.3118 2.9571 4.4194 2.8016 4.6893 2.4905 5.2292L2.0792 5.943C1.7876 6.4491 1.6419 6.7021 1.6701 6.9714 1.6985 7.2408 1.8936 7.4579 2.284 7.892L3.1432 8.8525C3.3531 9.1183 3.5023 9.5817 3.5023 9.9982 3.5023 10.415 3.3532 10.8782 3.1432 11.1441L2.284 12.1047C1.8936 12.5388 1.6985 12.7558 1.6701 13.0252 1.6419 13.2946 1.7876 13.5476 2.0792 14.0536L2.4905 14.7674C2.8016 15.3073 2.9571 15.5772 3.2218 15.6848 3.4865 15.7925 3.7858 15.7076 4.3844 15.5377L5.4012 15.2513C5.7834 15.1631 6.1844 15.2132 6.5334 15.3925L6.8141 15.5545C7.1134 15.7462 7.3434 16.0287 7.4708 16.3608L7.7491 17.1921C7.9321 17.7421 8.0333 18.028 8.2 18.1483 8.25 18.1845 8.45 18.3483 8.94 18.3333" stroke="currentColor" stroke-linecap="round" stroke-width="2"/>
  <path d="M12.5 14.3484C12.5 14.3484 13.3333 14.5851 13.75 15.4184 13.75 15.4184 14.6635 13.3351 15.84 12.9184" stroke="currentColor" stroke-linecap="round" stroke-linejoin="round" stroke-width="2"/>
  <path d="M18.3333 14.165C18.3333 16.4662 16.4678 18.3317 14.1667 18.3317 11.8655 18.3317 10 16.4662 10 14.165 10 11.8638 11.8655 9.9983 14.1667 9.9983 16.4678 9.9983 18.3333 11.8638 18.3333 14.165Z" stroke="currentColor" stroke-linecap="round" stroke-width="2"/>
  <path d="M11.7999 7.8683C11.0999 7.2984 10.5499 7.0784 9.7499 7.0784 8.2499 7.0983 6.8799 8.3375 6.8799 9.9483 6.8799 10.8364 7.1499 11.3983 7.6599 11.9883" stroke="currentColor" stroke-linecap="round" stroke-width="2"/>
</svg>
