<svg xmlns="http://www.w3.org/2000/svg" width="20" height="20" viewBox="0 0 20 20" fill="none">
  <path d="M14.1915 11.1235C14.6428 10.9159 14.8683 10.8122 14.9342 10.7094 15 10.6067 15 10.443 15 10.1156V9.8844C15 9.5571 15 9.3933 14.9342 9.2906 14.8683 9.1878 14.6427 9.0841 14.1915 8.8766 13.5224 8.5689 13.0928 7.8957 13.1158 7.1911 13.1333 6.6528 13.1422 6.3837 13.0838 6.2813 13.0253 6.179 12.884 6.1015 12.6013 5.9466L12.3323 5.7993C12.0583 5.6491 11.9212 5.5741 11.8041 5.5796 11.687 5.5851 11.4879 5.7201 11.0898 5.99 10.4422 6.4288 9.5587 6.4288 8.9111 5.9899 8.5128 5.72 8.3138 5.5851 8.1967 5.5795 8.0796 5.574 7.9426 5.6491 7.6684 5.7993L7.3996 5.9466C7.1169 6.1015 6.9755 6.1789 6.9171 6.2812 6.8587 6.3835 6.8675 6.6527 6.8849 7.1911 6.9078 7.8957 6.4778 8.5689 5.8085 8.8766 5.3573 9.084 5.1317 9.1877 5.0659 9.2905 5 9.3933 5 9.557 5 9.8844V10.1156C5 10.443 5 10.6067 5.0659 10.7095 5.1317 10.8123 5.3573 10.916 5.8085 11.1235 6.4776 11.4312 6.9073 12.1044 6.8842 12.8089 6.8667 13.3473 6.8579 13.6164 6.9163 13.7188 6.9746 13.8211 7.116 13.8985 7.3988 14.0534L7.6676 14.2008C7.9418 14.3509 8.0789 14.426 8.196 14.4205 8.3131 14.4149 8.5121 14.28 8.9102 14.01 9.5583 13.5706 10.4426 13.5706 11.0906 14.01 11.4887 14.2799 11.6877 14.4149 11.8048 14.4204 11.9219 14.426 12.059 14.3509 12.3332 14.2007L12.602 14.0534C12.8848 13.8984 13.0263 13.821 13.0846 13.7186 13.143 13.6163 13.1342 13.3472 13.1164 12.8089 13.0933 12.1044 13.5227 11.4312 14.1915 11.1235Z" stroke="currentColor" stroke-linecap="round" stroke-width="2"/>
  <circle cx="10" cy="10" r="1.4583333333333335" stroke="currentColor" stroke-width="2"/>
  <path d="M15.8333 1.6667V4.0488C14.3302 2.5753 12.2713 1.6667 10 1.6667 5.3976 1.6667 1.6667 5.3976 1.6667 10 1.6667 11.1852 1.9141 12.3126 2.3601 13.3333M4.1667 18.3333V15.9512C5.6698 17.4248 7.7288 18.3333 10 18.3333 14.6023 18.3333 18.3333 14.6023 18.3333 10 18.3333 8.8148 18.0859 7.6874 17.6399 6.6667" stroke="currentColor" stroke-linecap="round" stroke-linejoin="round" stroke-width="2"/>
</svg>
