<svg xmlns="http://www.w3.org/2000/svg" width="20" height="20" viewBox="0 0 20 20" fill="none">
  <path d="M10.2742 4.9603L8.75 6.7889C9.9081 6.7889 10.4871 6.7889 10.9278 6.9668 11.6961 7.2772 12.2659 7.9576 12.4504 8.785 12.5563 9.2594 12.4703 9.8483 12.2986 11.0259L11.6667 14.5009H16.0417C16.8471 14.5009 17.5 15.1723 17.5 16.0004 17.5 16.8286 16.8471 17.5 16.0417 17.5H9.2088C6.8355 17.5 5.6488 17.5 4.7456 17.0173 3.9849 16.6107 3.3645 15.9728 2.9693 15.1902 2.5 14.2612 2.5 13.0407 2.5 10.5996 2.5 9.3021 2.5 8.6533 2.7138 8.0694 2.7797 7.8894 2.8603 7.7153 2.9546 7.5492 3.2605 7.0104 3.7502 6.6013 4.7295 5.7831L8.2597 2.8337C8.7891 2.3914 9.5466 2.3885 10.0792 2.8266 10.7193 3.3532 10.8077 4.3204 10.2742 4.9603Z" stroke="currentColor" stroke-linecap="round" stroke-linejoin="round" stroke-width="2"/>
</svg>
