<svg xmlns="http://www.w3.org/2000/svg" width="20" height="20" viewBox="0 0 20 20" fill="none">
  <path d="M6.2596 8.3333C6.2596 7.643 6.8187 7.0834 7.5085 7.0834 8.1983 7.0834 8.7574 7.643 8.7574 8.3333M6.2596 8.3333L5.2211 3.2358C5.1143 2.5717 4.5415 2.0833 3.8694 2.0833 3.0374 2.0833 2.3977 2.8199 2.5136 3.6444L3.7617 10.9724C3.7617 10.9724 4.0348 13.4872 4.3105 14.2082 4.6472 15.5745 5.4269 16.4512 5.4269 17.9168M6.2596 8.3333V10C6.2596 10.6904 6.8187 11.25 7.5085 11.25 8.1983 11.25 8.7574 10.6904 8.7574 10V9.5834M11.2552 9.1667L11.2553 7.5C11.2556 6.8099 11.8147 6.2506 12.5043 6.2506 13.194 6.2506 13.7532 6.8102 13.7532 7.5006L13.753 9.1667C13.753 9.8571 13.1938 10.4167 12.5041 10.4167 11.8143 10.4167 11.2552 9.8571 11.2552 9.1667ZM11.2553 7.5V7.9167C11.2553 7.2264 10.6962 6.6667 10.0063 6.6667 9.3166 6.6667 8.7574 7.2264 8.7574 7.9167V9.5834M11.2552 9.1667L11.2552 9.5833C11.2553 10.2737 10.6961 10.8333 10.0063 10.8333 9.3166 10.8333 8.7574 10.2737 8.7574 9.5834M13.7532 10.8021L15.1022 9.4476C15.6943 8.8533 16.6693 8.9075 17.1923 9.5638 17.5923 10.0659 17.6034 10.7763 17.2191 11.2908L14.2219 15.1227C13.6484 15.8558 13.3368 16.9857 13.3368 17.9168" stroke="currentColor" stroke-linecap="round" stroke-linejoin="round" stroke-width="2"/>
</svg>
