<svg xmlns="http://www.w3.org/2000/svg" width="20" height="20" viewBox="0 0 20 20" fill="none">
  <path d="M14.7597 9.7258L13.0328 11.25C13.0328 10.0919 13.0328 9.5129 12.8647 9.0723 12.5715 8.3039 11.9289 7.7341 11.1475 7.5495 10.6994 7.4437 10.1433 7.5296 9.0311 7.7014L5.7492 8.3333V3.9583C5.7492 3.1529 5.1151 2.5 4.3329 2.5 3.5507 2.5 2.9167 3.1529 2.9167 3.9583V10.9829C2.9167 13.1755 2.9167 14.2718 3.319 15.1196 3.7307 15.9872 4.4295 16.686 5.2971 17.0978 6.1449 17.5 7.2412 17.5 9.4337 17.5 10.6592 17.5 11.2719 17.5 11.8233 17.2863 11.9933 17.2203 12.1578 17.1397 12.3147 17.0454 12.8235 16.7395 13.2099 16.2498 13.9827 15.2705L16.7682 11.7403C17.1858 11.2109 17.1887 10.4534 16.7749 9.9208 16.2776 9.2808 15.3641 9.1923 14.7597 9.7258Z" stroke="currentColor" stroke-linecap="round" stroke-linejoin="round" stroke-width="2"/>
</svg>
