<svg xmlns="http://www.w3.org/2000/svg" width="20" height="20" viewBox="0 0 20 20" fill="none">
  <path d="M10.4168 11.2426H10.0002C9.3097 11.2426 8.7502 11.8018 8.7502 12.4915 8.7502 13.1813 9.3097 13.7404 10.0002 13.7404H11.6668C12.3572 13.7404 12.9168 13.1813 12.9168 12.4915 12.9168 11.8018 12.3572 11.2426 11.6668 11.2426M11.6668 13.7404L16.7643 14.7789C17.4285 14.8857 17.9168 15.4585 17.9168 16.1307 17.9168 16.9626 17.1803 17.6022 16.3558 17.4864L9.0277 16.2383C9.0277 16.2383 6.513 15.9652 5.792 15.6895 4.4065 15.3481 3.5562 14.5731 2.0833 14.5731M10.8335 8.7448L12.5002 8.7447C13.1903 8.7444 13.7496 8.1853 13.7496 7.4958 13.7496 6.806 13.19 6.2468 12.4996 6.2468L10.8335 6.247C10.1431 6.247 9.5835 6.8062 9.5835 7.4959 9.5835 8.1857 10.1431 8.7448 10.8335 8.7448ZM12.5002 8.7447H12.0835C12.7738 8.7447 13.3335 9.3038 13.3335 9.9937 13.3335 10.6834 12.7738 11.2426 12.0835 11.2426H10.4168M10.8335 8.7448L10.4168 8.7448C9.7265 8.7448 9.1668 9.3039 9.1668 9.9937 9.1668 10.6834 9.7264 11.2426 10.4168 11.2426M9.1981 6.2468L10.5526 4.8977C11.1469 4.3058 11.0927 3.3307 10.4364 2.8078 9.9343 2.4076 9.2238 2.3966 8.7094 2.7809L4.8775 5.7781C4.1444 6.3516 3.0144 6.6631 2.0833 6.6631" stroke="currentColor" stroke-linecap="round" stroke-linejoin="round" stroke-width="2"/>
</svg>
