<svg xmlns="http://www.w3.org/2000/svg" width="20" height="20" viewBox="0 0 20 20" fill="none">
  <path d="M5.8333 10.8333C5.8333 8.5322 7.6988 6.6667 10 6.6667 12.3012 6.6667 14.1667 8.5322 14.1667 10.8333V15C14.1667 16.5713 14.1667 17.357 13.6785 17.8452 13.1903 18.3333 12.4047 18.3333 10.8333 18.3333H9.1667C7.5953 18.3333 6.8096 18.3333 6.3215 17.8452 5.8333 17.357 5.8333 16.5713 5.8333 15V10.8333Z" stroke="currentColor" stroke-linecap="round" stroke-linejoin="round" stroke-width="2"/>
  <path d="M8.3333 6.6667V5.8333C8.3333 5.0477 8.3333 4.6548 8.5774 4.4107 8.8215 4.1667 9.2143 4.1667 10 4.1667 10.7857 4.1667 11.1785 4.1667 11.4226 4.4107 11.6667 4.6548 11.6667 5.0477 11.6667 5.8333V6.6667" stroke="currentColor" stroke-linecap="round" stroke-linejoin="round" stroke-width="2"/>
  <path d="M10 4.1667V1.6667M10 1.6667H8.3333M10 1.6667H12.2875C12.9185 1.6667 13.5263 1.9053 13.9887 2.3347L14.1667 2.5" stroke="currentColor" stroke-linecap="round" stroke-linejoin="round" stroke-width="2"/>
  <path d="M5.8333 10.8333H14.1667" stroke="currentColor" stroke-linecap="round" stroke-linejoin="round" stroke-width="2"/>
</svg>
