<svg xmlns="http://www.w3.org/2000/svg" width="20" height="20" viewBox="0 0 20 20" fill="none">
  <path d="M3.3333 6.6667C5.1743 6.6667 6.6667 5.1743 6.6667 3.3333 6.6667 2.7268 6.6667 2.4236 6.6865 2.3342 6.7772 1.9264 6.901 1.8009 7.3075 1.7043 7.3965 1.6832 7.5722 1.6807 7.9236 1.6756 8.5476 1.6667 9.2367 1.6667 10 1.6667 11.1428 1.6667 12.1194 1.6667 12.9598 1.6967 13.2998 1.7089 13.4699 1.7149 13.5723 1.7456 13.9247 1.851 14.0469 1.9778 14.1398 2.3337 14.1667 2.4371 14.1667 2.7358 14.1667 3.3333 14.1667 5.1743 15.6591 6.6667 17.5 6.6667 17.9109 6.6667 18.3025 6.9526 18.3133 7.3634 18.3333 8.1286 18.3333 9.0008 18.3333 10 18.3333 10.7633 18.3333 11.4524 18.3244 12.0763 18.3193 12.4277 18.3168 12.6035 18.2957 12.6926 18.1992 13.099 18.0736 13.2228 17.6657 13.3135 17.5764 13.3333 17.2732 13.3333 16.6667 13.3333 14.8258 13.3333 13.3333 14.8258 13.3333 16.6667 13.3333 17.2732 13.3333 17.5764 13.3135 17.6657 13.2228 18.0736 13.099 18.1992 12.6926 18.2957 12.6035 18.3168 12.4277 18.3193 12.0764 18.3244 11.4524 18.3333 10.7633 18.3333 10 18.3333 9.2367 18.3333 8.5476 18.3333 7.9236 18.3244 7.5722 18.3193 7.3965 18.3168 7.3075 18.2957 6.901 18.1992 6.7772 18.0736 6.6865 17.6657 6.6667 17.5764 6.6667 17.2732 6.6667 16.6667 6.6667 14.8258 5.1743 13.3333 3.3333 13.3333 2.7268 13.3333 2.4236 13.3333 2.3342 13.3135 1.9264 13.2228 1.8009 13.099 1.7043 12.6926 1.6832 12.6035 1.6807 12.4277 1.6756 12.0763 1.6667 11.4524 1.6667 10.7633 1.6667 10 1.6667 9.2367 1.6667 8.5476 1.6756 7.9236 1.6807 7.5722 1.6832 7.3965 1.7043 7.3075 1.8009 6.901 1.9264 6.7772 2.3342 6.6865 2.4236 6.6667 2.7268 6.6667 3.3333 6.6667Z" stroke="currentColor" stroke-linejoin="round" stroke-width="2"/>
</svg>
