<svg xmlns="http://www.w3.org/2000/svg" width="20" height="20" viewBox="0 0 20 20" fill="none">
  <path d="M11.1152 8.3333H8.8848C7.6061 8.3333 6.9667 8.3333 6.7379 7.9108 6.509 7.4883 6.8479 6.9335 7.5256 5.8239L8.6408 3.9981C9.2508 2.9994 9.5558 2.5 10 2.5 10.4442 2.5 10.7492 2.9994 11.3593 3.9981L12.4744 5.8239C13.1522 6.9335 13.491 7.4883 13.2622 7.9108 13.0333 8.3333 12.3939 8.3333 11.1152 8.3333Z" stroke="currentColor" stroke-linecap="round" stroke-linejoin="round" stroke-width="2"/>
  <circle cx="14.583333333333334" cy="14.583333333333334" r="2.916666666666667" stroke="currentColor" stroke-linejoin="round" stroke-width="2"/>
  <path d="M8.0525 16.7593C8.3333 16.3389 8.3333 15.7538 8.3333 14.5833 8.3333 13.4129 8.3333 12.8277 8.0525 12.4074 7.9309 12.2254 7.7746 12.0692 7.5926 11.9476 7.1722 11.6667 6.5871 11.6667 5.4167 11.6667 4.2463 11.6667 3.6611 11.6667 3.2407 11.9476 3.0587 12.0692 2.9025 12.2254 2.7809 12.4074 2.5 12.8277 2.5 13.4129 2.5 14.5833 2.5 15.7538 2.5 16.3389 2.7809 16.7593 2.9025 16.9413 3.0587 17.0975 3.2407 17.2191 3.6611 17.5 4.2463 17.5 5.4167 17.5 6.5871 17.5 7.1722 17.5 7.5926 17.2191 7.7746 17.0975 7.9309 16.9413 8.0525 16.7593Z" stroke="currentColor" stroke-linecap="round" stroke-linejoin="round" stroke-width="2"/>
</svg>
