<svg xmlns="http://www.w3.org/2000/svg" width="20" height="20" viewBox="0 0 20 20" fill="none">
  <path d="M8.3347 2.5C5.8795 2.5267 4.5091 2.6827 3.5987 3.5932 2.4999 4.692 2.4999 6.4604 2.4999 9.9972 2.4999 13.5341 2.4999 15.3025 3.5987 16.4013 4.6974 17.5 6.4658 17.5 10.0027 17.5 13.5395 17.5 15.3079 17.5 16.4067 16.4013 17.3173 15.4906 17.4732 14.1198 17.4999 11.6636" stroke="currentColor" stroke-linecap="round" stroke-linejoin="round" stroke-width="2"/>
  <path d="M11.6667 2.5H15C16.1785 2.5 16.7678 2.5 17.1339 2.8661 17.5 3.2322 17.5 3.8215 17.5 5V8.3333M16.6667 3.3333L9.1667 10.8333" stroke="currentColor" stroke-linecap="round" stroke-linejoin="round" stroke-width="2"/>
</svg>
