<svg xmlns="http://www.w3.org/2000/svg" width="20" height="20" viewBox="0 0 20 20" fill="none">
  <path d="M5.4026 3.0485C5.0976 2.7116 4.6569 2.5 4.1667 2.5 3.2462 2.5 2.5 3.2462 2.5 4.1667 2.5 4.6569 2.7116 5.0976 3.0485 5.4026 3.3442 5.6703 3.7364 5.8333 4.1667 5.8333 5.0871 5.8333 5.8333 5.0871 5.8333 4.1667 5.8333 3.7364 5.6703 3.3442 5.4026 3.0485ZM5.4026 3.0485C6.7203 2.1753 8.3008 1.6667 10 1.6667 10.5708 1.6667 11.1282 1.7241 11.6667 1.8334M16.9608 5.4167C17.8283 6.7316 18.3333 8.3068 18.3333 10 18.3333 10.5708 18.2759 11.1282 18.1667 11.6667M14.5974 16.9515C13.2797 17.8248 11.6992 18.3333 10 18.3333 9.4292 18.3333 8.8718 18.2759 8.3333 18.1667M14.5974 16.9515C14.9023 17.2884 15.3432 17.5 15.8333 17.5 16.7538 17.5 17.5 16.7538 17.5 15.8333 17.5 15.3432 17.2884 14.9023 16.9515 14.5974 16.6558 14.3297 16.2636 14.1667 15.8333 14.1667 14.9128 14.1667 14.1667 14.9128 14.1667 15.8333 14.1667 16.2636 14.3297 16.6558 14.5974 16.9515ZM3.0485 14.5974C2.1753 13.2797 1.6667 11.6992 1.6667 10 1.6667 9.4292 1.7241 8.8718 1.8334 8.3333M3.0485 14.5974C2.7116 14.9023 2.5 15.3432 2.5 15.8333 2.5 16.7538 3.2462 17.5 4.1667 17.5 4.6569 17.5 5.0976 17.2884 5.4026 16.9515 5.6703 16.6558 5.8333 16.2636 5.8333 15.8333 5.8333 14.9128 5.0871 14.1667 4.1667 14.1667 3.7364 14.1667 3.3442 14.3297 3.0485 14.5974ZM17.5 4.1667C17.5 5.0871 16.7538 5.8333 15.8333 5.8333 14.9128 5.8333 14.1667 5.0871 14.1667 4.1667 14.1667 3.7364 14.3297 3.3442 14.5974 3.0485 14.9023 2.7116 15.3432 2.5 15.8333 2.5 16.7538 2.5 17.5 3.2462 17.5 4.1667Z" stroke="currentColor" stroke-linecap="round" stroke-linejoin="round" stroke-width="2"/>
  <path d="M6.6667 8.7315C7.624 7.9526 8.7674 7.5 9.9955 7.5 11.2274 7.5 12.3742 7.9555 13.3333 8.7388M11.8119 10.8333C11.2652 10.4924 10.6483 10.3006 9.9955 10.3006 9.346 10.3006 8.732 10.4905 8.1873 10.8282" stroke="currentColor" stroke-linecap="round" stroke-width="2"/>
  <path d="M10 13.3333H10.0053" stroke="currentColor" stroke-linecap="round" stroke-linejoin="round" stroke-width="2"/>
</svg>
