<svg xmlns="http://www.w3.org/2000/svg" width="20" height="20" viewBox="0 0 20 20" fill="none">
  <path d="M15.8334 10.8333V11.6667C15.8334 14.4165 15.8334 15.7914 14.9791 16.6458 14.1248 17.5 12.7499 17.5 10.0001 17.5H8.3334C5.5835 17.5 4.2086 17.5 3.3543 16.6458 2.5 15.7914 2.5 14.4165 2.5 11.6667V10C2.5 7.2501 2.5 5.8752 3.3543 5.0209 4.2086 4.1667 5.5835 4.1667 8.3334 4.1667H9.1668" stroke="currentColor" stroke-linecap="round" stroke-linejoin="round" stroke-width="2"/>
  <path d="M11.6667 2.5H15C16.1785 2.5 16.7678 2.5 17.1339 2.8661 17.5 3.2322 17.5 3.8215 17.5 5V8.3333M16.6667 3.3333L9.1667 10.8333" stroke="currentColor" stroke-linecap="round" stroke-linejoin="round" stroke-width="2"/>
</svg>
