<svg xmlns="http://www.w3.org/2000/svg" width="20" height="20" viewBox="0 0 20 20" fill="none">
  <path d="M7.8299 3.75H6.9618C4.5066 3.75 3.279 3.75 2.5162 4.4822 1.7535 5.2145 1.7535 6.393 1.7535 8.75V12.0833C1.7535 14.4403 1.7535 15.6188 2.5162 16.3511 3.279 17.0833 4.5066 17.0833 6.9618 17.0833H10.4673C12.9226 17.0833 14.1502 17.0833 14.9129 16.3511 15.4071 15.8767 15.5811 15.2149 15.6423 14.1667" stroke="currentColor" stroke-linecap="round" stroke-linejoin="round" stroke-width="2"/>
  <path d="M13.4722 5.8333V3.2113C13.4722 3.0486 13.6097 2.9167 13.7792 2.9167 13.8605 2.9167 13.9386 2.9477 13.9962 3.003L17.9396 6.7887C18.1362 6.9774 18.2465 7.2332 18.2465 7.5 18.2465 7.7668 18.1362 8.0227 17.9396 8.2113L13.9962 11.997C13.9386 12.0523 13.8605 12.0833 13.7792 12.0833 13.6097 12.0833 13.4722 11.9514 13.4722 11.7887V9.1667H10.9298C7.3958 9.1667 6.0938 12.0833 6.0938 12.0833V10C6.0938 7.6988 8.037 5.8333 10.434 5.8333H13.4722Z" stroke="currentColor" stroke-linecap="round" stroke-linejoin="round" stroke-width="2"/>
</svg>
