<svg xmlns="http://www.w3.org/2000/svg" width="20" height="20" viewBox="0 0 20 20" fill="none">
  <path d="M7.5 3.75C4.587 4.7509 2.5 7.4515 2.5 10.6259 2.5 11.6316 2.7094 12.5897 3.0883 13.4612M12.5 3.75C15.413 4.7509 17.5 7.4515 17.5 10.6259 17.5 11.478 17.3496 12.296 17.0733 13.0562M13.75 16.9413C12.6468 17.5617 11.3661 17.9167 10 17.9167 8.6339 17.9167 7.3531 17.5617 6.25 16.9413" stroke="currentColor" stroke-width="2"/>
  <path d="M12.5 4.1667C12.5 5.5474 11.3808 6.6667 10 6.6667 8.6193 6.6667 7.5 5.5474 7.5 4.1667 7.5 2.786 8.6193 1.6667 10 1.6667 11.3808 1.6667 12.5 2.786 12.5 4.1667Z" stroke="currentColor" stroke-width="2"/>
  <circle cx="4.166666666666667" cy="15.833333333333334" r="2.5" stroke="currentColor" stroke-width="2"/>
  <circle cx="15.833333333333334" cy="15.833333333333334" r="2.5" stroke="currentColor" stroke-width="2"/>
</svg>
