<svg xmlns="http://www.w3.org/2000/svg" width="20" height="20" viewBox="0 0 20 20" fill="none">
  <path d="M16.6667 15.8333V8.3333C16.6667 5.1906 16.6667 3.6193 15.7478 2.643 14.8289 1.6667 13.35 1.6667 10.3922 1.6667L9.6078 1.6667C6.65 1.6667 5.1711 1.6667 4.2522 2.643 3.3333 3.6193 3.3333 5.1906 3.3333 8.3333L3.3333 15.8333" stroke="currentColor" stroke-linecap="round" stroke-linejoin="round" stroke-width="2"/>
  <path d="M14.1667 13.3333H5.8333C4.4526 13.3333 3.3333 14.4526 3.3333 15.8333 3.3333 17.2141 4.4526 18.3333 5.8333 18.3333H14.1667C15.5474 18.3333 16.6667 17.2141 16.6667 15.8333 16.6667 14.4526 15.5474 13.3333 14.1667 13.3333Z" stroke="currentColor" stroke-linecap="round" stroke-linejoin="round" stroke-width="2"/>
  <path d="M6.6667 9.1667H9.1667M7.9167 5.625V5.8333M7.5 8.3333H8.3333C9.2538 8.3333 10 9.0795 10 10H5.8333C5.8333 9.0795 6.5795 8.3333 7.5 8.3333ZM8.5417 5.625C8.5417 5.9702 8.2618 6.25 7.9167 6.25 7.5715 6.25 7.2917 5.9702 7.2917 5.625 7.2917 5.2798 7.5715 5 7.9167 5 8.2618 5 8.5417 5.2798 8.5417 5.625Z" stroke="currentColor" stroke-linecap="round" stroke-linejoin="round" stroke-width="2"/>
  <path d="M12.0833 9.1667H13.3333M12.0833 5.625V5.8333M12.0833 8.3333H12.5C13.4205 8.3333 14.1667 9.0795 14.1667 10H12.0833V8.3333ZM12.7083 5.625C12.7083 5.9702 12.4285 6.25 12.0833 6.25 11.7382 6.25 11.4583 5.9702 11.4583 5.625 11.4583 5.2798 11.7382 5 12.0833 5 12.4285 5 12.7083 5.2798 12.7083 5.625Z" stroke="currentColor" stroke-linecap="round" stroke-linejoin="round" stroke-width="2"/>
  <path d="M6.1458 15.8333H6.0417M6.25 15.8333C6.25 15.9484 6.1567 16.0417 6.0417 16.0417 5.9266 16.0417 5.8333 15.9484 5.8333 15.8333 5.8333 15.7182 5.9266 15.625 6.0417 15.625 6.1567 15.625 6.25 15.7182 6.25 15.8333Z" stroke="currentColor" stroke-linecap="round" stroke-linejoin="round" stroke-width="2"/>
  <path d="M9.0625 15.8333H8.9583M9.1667 15.8333C9.1667 15.9484 9.0734 16.0417 8.9583 16.0417 8.8433 16.0417 8.75 15.9484 8.75 15.8333 8.75 15.7182 8.8433 15.625 8.9583 15.625 9.0734 15.625 9.1667 15.7182 9.1667 15.8333Z" stroke="currentColor" stroke-linecap="round" stroke-linejoin="round" stroke-width="2"/>
</svg>
