<svg xmlns="http://www.w3.org/2000/svg" width="20" height="20" viewBox="0 0 20 20" fill="none">
  <path d="M17.0833 4.5833C17.0833 5.964 15.9641 7.0833 14.5833 7.0833 13.2026 7.0833 12.0833 5.964 12.0833 4.5833 12.0833 3.2026 13.2026 2.0833 14.5833 2.0833 15.9641 2.0833 17.0833 3.2026 17.0833 4.5833Z" stroke="currentColor" stroke-width="2"/>
  <path d="M7.0833 9.5833C7.0833 10.9641 5.964 12.0833 4.5833 12.0833 3.2026 12.0833 2.0833 10.9641 2.0833 9.5833 2.0833 8.2026 3.2026 7.0833 4.5833 7.0833 5.964 7.0833 7.0833 8.2026 7.0833 9.5833Z" stroke="currentColor" stroke-width="2"/>
  <path d="M17.9167 15.4167C17.9167 16.7974 16.7974 17.9167 15.4167 17.9167 14.0359 17.9167 12.9167 16.7974 12.9167 15.4167 12.9167 14.0359 14.0359 12.9167 15.4167 12.9167 16.7974 12.9167 17.9167 14.0359 17.9167 15.4167Z" stroke="currentColor" stroke-width="2"/>
  <path d="M12.1123 3.8176C11.7962 3.773 11.4731 3.75 11.1444 3.75 8.5812 3.75 6.3505 5.1519 5.2005 7.2193M16.4276 6.2454C17.3592 7.3875 17.9167 8.838 17.9167 10.4167 17.9167 11.5632 17.6227 12.6421 17.1048 13.5843M13.2347 16.7598C12.5764 16.9698 11.8738 17.0833 11.1444 17.0833 7.9857 17.0833 5.3321 14.9545 4.5833 12.0748" stroke="currentColor" stroke-width="2"/>
</svg>
