<svg xmlns="http://www.w3.org/2000/svg" width="20" height="20" viewBox="0 0 20 20" fill="none">
  <path d="M1.6667 9.1667C3.6098 7.1315 6.3694 7.0357 8.3333 9.1667M7.0792 3.75C7.0792 4.9006 6.1452 5.8333 4.9929 5.8333 3.8407 5.8333 2.9066 4.9006 2.9066 3.75 2.9066 2.5994 3.8407 1.6667 4.9929 1.6667 6.1452 1.6667 7.0792 2.5994 7.0792 3.75Z" stroke="currentColor" stroke-linecap="round" stroke-width="2"/>
  <path d="M11.6667 18.3333C13.6098 16.2982 16.3693 16.2023 18.3333 18.3333M17.0793 12.9167C17.0793 14.0673 16.1452 15 14.9929 15 13.8407 15 12.9067 14.0673 12.9067 12.9167 12.9067 11.7661 13.8407 10.8333 14.9929 10.8333 16.1452 10.8333 17.0793 11.7661 17.0793 12.9167Z" stroke="currentColor" stroke-linecap="round" stroke-width="2"/>
  <path d="M2.5 11.6667C2.5 14.8917 5.1083 17.5 8.3333 17.5L7.5 15.8333" stroke="currentColor" stroke-linecap="round" stroke-linejoin="round" stroke-width="2"/>
  <path d="M12.5 2.5H17.5M12.5 5H17.5M12.5 7.5H15.4167" stroke="currentColor" stroke-linecap="round" stroke-linejoin="round" stroke-width="2"/>
</svg>
