<svg xmlns="http://www.w3.org/2000/svg" width="20" height="20" viewBox="0 0 20 20" fill="none">
  <path d="M10.5988 13.5126C10.4382 13.6649 10.2235 13.75 10.0001 13.75 9.7767 13.75 9.562 13.6649 9.4014 13.5126 7.9306 12.1098 5.9596 10.5426 6.9208 8.2674 7.4405 7.0372 8.6881 6.25 10.0001 6.25 11.3121 6.25 12.5596 7.0372 13.0793 8.2674 14.0393 10.5398 12.0732 12.1146 10.5988 13.5126Z" stroke="currentColor" stroke-width="2"/>
  <path d="M8.3333 18.1667C8.8718 18.2759 9.4292 18.3333 10 18.3333 14.6031 18.3333 18.3333 14.6018 18.3333 10 18.3333 5.3982 14.6031 1.6667 10 1.6667 9.4292 1.6667 8.8718 1.7241 8.3333 1.8334M1.8334 11.6667C1.7241 11.1282 1.6667 10.5708 1.6667 10 1.6667 9.4292 1.7241 8.8718 1.8334 8.3333M5.4167 16.9608C4.4723 16.3377 3.6622 15.5277 3.0392 14.5833M3.0392 5.4167C3.6622 4.4723 4.4723 3.6622 5.4167 3.0392" stroke="currentColor" stroke-linecap="round" stroke-linejoin="round" stroke-width="2"/>
  <path d="M10.1123 9.5833H10.0082M10.2165 9.5833C10.2165 9.6984 10.1232 9.7917 10.0082 9.7917 9.8931 9.7917 9.7998 9.6984 9.7998 9.5833 9.7998 9.4683 9.8931 9.375 10.0082 9.375 10.1232 9.375 10.2165 9.4683 10.2165 9.5833Z" stroke="currentColor" stroke-linecap="round" stroke-linejoin="round" stroke-width="2"/>
</svg>
