<svg xmlns="http://www.w3.org/2000/svg" width="20" height="20" viewBox="0 0 20 20" fill="none">
  <path d="M9.9999 6.25C8.2741 6.25 6.875 7.6067 6.875 9.2803 6.875 10.2373 7.2656 10.9813 8.0468 11.6459 8.5975 12.1143 9.5994 13.1193 9.9999 13.75 10.4207 13.1318 11.4024 12.1143 11.9531 11.6459 12.7343 10.9813 13.1249 10.2373 13.1249 9.2803 13.1249 7.6067 11.7258 6.25 9.9999 6.25Z" stroke="currentColor" stroke-linecap="round" stroke-linejoin="round" stroke-width="2"/>
  <path d="M10.1123 9.1667H10.0081M10.2164 9.1667C10.2164 9.2818 10.1232 9.375 10.0081 9.375 9.893 9.375 9.7998 9.2818 9.7998 9.1667 9.7998 9.0516 9.893 8.9583 10.0081 8.9583 10.1232 8.9583 10.2164 9.0516 10.2164 9.1667Z" stroke="currentColor" stroke-linecap="round" stroke-linejoin="round" stroke-width="2"/>
  <path d="M8.3333 18.1667C8.8718 18.2759 9.4292 18.3333 10 18.3333 14.6031 18.3333 18.3333 14.6018 18.3333 10 18.3333 5.3982 14.6031 1.6667 10 1.6667 9.4292 1.6667 8.8718 1.7241 8.3333 1.8334M1.8334 11.6667C1.7241 11.1282 1.6667 10.5708 1.6667 10 1.6667 9.4292 1.7241 8.8718 1.8334 8.3333M5.4167 16.9608C4.4723 16.3377 3.6622 15.5277 3.0392 14.5833M3.0392 5.4167C3.6622 4.4723 4.4723 3.6622 5.4167 3.0392" stroke="currentColor" stroke-linecap="round" stroke-linejoin="round" stroke-width="2"/>
</svg>
