<svg xmlns="http://www.w3.org/2000/svg" width="20" height="20" viewBox="0 0 20 20" fill="none">
  <path d="M17.5 5.4167C17.5 6.7974 16.3808 7.9167 15 7.9167 13.6193 7.9167 12.5 6.7974 12.5 5.4167 12.5 4.036 13.6193 2.9167 15 2.9167 16.3808 2.9167 17.5 4.036 17.5 5.4167Z" stroke="currentColor" stroke-width="2"/>
  <path d="M7.5 10C7.5 11.3808 6.3807 12.5 5 12.5 3.6193 12.5 2.5 11.3808 2.5 10 2.5 8.6193 3.6193 7.5 5 7.5 6.3807 7.5 7.5 8.6193 7.5 10Z" stroke="currentColor" stroke-width="2"/>
  <path d="M17.5 14.5833C17.5 15.9641 16.3808 17.0833 15 17.0833 13.6193 17.0833 12.5 15.9641 12.5 14.5833 12.5 13.2026 13.6193 12.0833 15 12.0833 16.3808 12.0833 17.5 13.2026 17.5 14.5833Z" stroke="currentColor" stroke-width="2"/>
  <path d="M7.2738 8.9579L12.6904 6.4583M7.2738 11.0417L12.6904 13.5413" stroke="currentColor" stroke-width="2"/>
</svg>
