<svg xmlns="http://www.w3.org/2000/svg" width="20" height="20" viewBox="0 0 20 20" fill="none">
  <path d="M12.1214 4.1296C12.1839 4.3872 12.2004 4.6614 12.1623 4.9422L11.4773 9.9792M12.1214 4.1296C11.5948 1.9568 8.4053 1.9568 7.8785 4.1296M12.1214 4.1296C13.4275 2.7892 15.7718 4.1236 15.8333 5.7993M15.8333 5.7993C16.6667 5.9391 18.3333 6.7201 18.3333 8.7257 18.3333 10.5369 16.1607 12.45 14.0141 13.9706 13.529 14.3142 13.2864 14.4861 13.1313 14.6105 12.6524 14.9946 12.3501 15.306 11.9804 15.796 11.8607 15.9548 11.7365 16.1414 11.4883 16.5147L11.2947 16.8061C11.0065 17.2395 10.5205 17.5 10 17.5 9.4795 17.5 8.9935 17.2395 8.7053 16.8061L8.5117 16.5147C8.2635 16.1414 8.1394 15.9548 8.0196 15.796 7.6499 15.306 7.3476 14.9946 6.8688 14.6105 6.7136 14.4861 6.471 14.3142 5.9859 13.9706 3.8393 12.45 1.6667 10.5369 1.6667 8.7257 1.6667 6.7201 3.3333 5.9391 4.1667 5.7993M15.8333 5.7993C15.8897 7.3323 14.842 9.3903 13.9147 10.8148M7.8785 4.1296C7.8161 4.3872 7.7996 4.6614 7.8378 4.9422L8.5228 9.9792M7.8785 4.1296C6.5725 2.7892 4.2282 4.1236 4.1667 5.7993M4.1667 5.7993C4.1103 7.3323 5.158 9.3903 6.0853 10.8148" stroke="currentColor" stroke-linecap="round" stroke-linejoin="round" stroke-width="2"/>
  <path d="M15 13.3333L14.3677 16.4952C14.2508 17.0794 13.7378 17.5 13.1419 17.5H6.8581C6.2622 17.5 5.7492 17.0794 5.6324 16.4952L5 13.3333" stroke="currentColor" stroke-linecap="round" stroke-linejoin="round" stroke-width="2"/>
</svg>
