<svg xmlns="http://www.w3.org/2000/svg" width="20" height="20" viewBox="0 0 20 20" fill="none">
  <path d="M7.9167 7.5C7.9167 6.3494 8.8494 5.4167 10 5.4167 11.1506 5.4167 12.0833 6.3494 12.0833 7.5 12.0833 8.2141 11.7241 8.8443 11.1764 9.2197 10.6069 9.6099 10 10.143 10 10.8333" stroke="currentColor" stroke-linecap="round" stroke-linejoin="round" stroke-width="2"/>
  <path d="M10.1042 13.5417H10M10.2083 13.5417C10.2083 13.6568 10.1151 13.75 10 13.75 9.8849 13.75 9.7917 13.6568 9.7917 13.5417 9.7917 13.4266 9.8849 13.3333 10 13.3333 10.1151 13.3333 10.2083 13.4266 10.2083 13.5417Z" stroke="currentColor" stroke-linecap="round" stroke-linejoin="round" stroke-width="2"/>
  <path d="M15.5907 2.9128C14.0138 2.1282 12.0841 1.6667 10 1.6667 7.9159 1.6667 5.9863 2.1282 4.4093 2.9128 3.636 3.2975 3.2493 3.4899 2.8747 4.0948 2.5 4.6997 2.5 5.2854 2.5 6.4568V9.3643C2.5 14.1004 6.2853 16.7337 8.4775 17.8615 9.0889 18.1761 9.3946 18.3333 10 18.3333 10.6054 18.3333 10.9111 18.1761 11.5224 17.8615 13.7147 16.7337 17.5 14.1004 17.5 9.3643L17.5 6.4568C17.5 5.2854 17.5 4.6997 17.1253 4.0948 16.7507 3.4899 16.364 3.2975 15.5907 2.9128Z" stroke="currentColor" stroke-linecap="round" stroke-linejoin="round" stroke-width="2"/>
</svg>
