<svg xmlns="http://www.w3.org/2000/svg" width="20" height="20" viewBox="0 0 20 20" fill="none">
  <path d="M17.5 9.3196V6.9003C17.5 5.5337 17.5 4.8503 17.1633 4.4045 16.8265 3.9587 16.0651 3.7422 14.5423 3.3094 13.5018 3.0136 12.5847 2.6573 11.8519 2.332 10.8528 1.8885 10.3533 1.6668 10 1.6668 9.6467 1.6668 9.1472 1.8885 8.1481 2.332 7.4153 2.6573 6.4982 3.0136 5.4578 3.3094 3.9349 3.7422 3.1735 3.9587 2.8368 4.4045 2.5 4.8503 2.5 5.5337 2.5 6.9003V9.3196C2.5 14.0072 6.719 16.8197 8.8283 17.9329 9.3343 18.1999 9.5872 18.3334 10 18.3334 10.4128 18.3334 10.6658 18.1999 11.1717 17.9329 13.281 16.8197 17.5 14.0072 17.5 9.3196Z" stroke="currentColor" stroke-linecap="round" stroke-width="2"/>
  <path d="M10 13.3334C10.1163 13.3334 10.2245 13.2804 10.4408 13.1744L12.1793 12.3224C12.9487 11.9454 13.3333 11.7569 13.3333 11.4584V7.7084M10 13.3334C9.8837 13.3334 9.7755 13.2804 9.5593 13.1744L7.8206 12.3224C7.0513 11.9454 6.6667 11.7569 6.6667 11.4584V7.7084M10 13.3334V9.5834M6.6667 7.7084C6.6667 8.0069 7.0513 8.1955 7.8206 8.5724L9.5593 9.4244C9.7755 9.5304 9.8837 9.5834 10 9.5834 10.1163 9.5834 10.2245 9.5304 10.4408 9.4244L12.1793 8.5724C12.9487 8.1955 13.3333 8.0069 13.3333 7.7084 13.3333 7.4099 12.9487 7.2214 12.1793 6.8444L10.4408 5.9924C10.2245 5.8864 10.1163 5.8334 10 5.8334 9.8837 5.8334 9.7755 5.8864 9.5593 5.9924L7.8206 6.8444C7.0513 7.2214 6.6667 7.4099 6.6667 7.7084Z" stroke="currentColor" stroke-linejoin="round" stroke-width="2"/>
</svg>
