<svg xmlns="http://www.w3.org/2000/svg" width="20" height="20" viewBox="0 0 20 20" fill="none">
  <path d="M15.5907 2.9128C14.0137 2.1282 12.084 1.6667 9.9999 1.6667 7.9159 1.6667 5.9862 2.1282 4.4093 2.9128 3.6359 3.2975 3.2493 3.4899 2.8746 4.0948 2.5 4.6997 2.5 5.2854 2.5 6.4568V9.3643C2.5 14.1004 6.2852 16.7337 8.4775 17.8615 9.0888 18.1761 9.3945 18.3333 9.9999 18.3333 10.6053 18.3333 10.911 18.1761 11.5224 17.8615 13.7147 16.7337 17.4999 14.1004 17.4999 9.3643L17.4999 6.4568C17.4999 5.2854 17.4999 4.6997 17.1253 4.0948 16.7506 3.4899 16.3639 3.2975 15.5907 2.9128Z" stroke="currentColor" stroke-linecap="round" stroke-linejoin="round" stroke-width="2"/>
  <path d="M9.9999 9.1667C10.9204 9.1667 11.6666 8.4205 11.6666 7.5 11.6666 6.5795 10.9204 5.8333 9.9999 5.8333 9.0795 5.8333 8.3333 6.5795 8.3333 7.5 8.3333 8.4205 9.0795 9.1667 9.9999 9.1667ZM9.9999 9.1667V11.25M11.6666 13.3333H10.8333C10.3731 13.3333 9.9999 12.9603 9.9999 12.5V11.25M9.9999 11.25H11.2499" stroke="currentColor" stroke-linecap="round" stroke-linejoin="round" stroke-width="2"/>
</svg>
