<svg xmlns="http://www.w3.org/2000/svg" width="20" height="20" viewBox="0 0 20 20" fill="none">
  <path d="M16.25 14.5833C16.25 15.7339 15.3173 16.6667 14.1667 16.6667 13.0161 16.6667 12.0833 15.7339 12.0833 14.5833 12.0833 13.4328 13.0161 12.5 14.1667 12.5 15.3173 12.5 16.25 13.4328 16.25 14.5833Z" stroke="currentColor" stroke-width="2"/>
  <path d="M7.9167 14.5833C7.9167 15.7339 6.9839 16.6667 5.8333 16.6667 4.6827 16.6667 3.75 15.7339 3.75 14.5833 3.75 13.4328 4.6827 12.5 5.8333 12.5 6.9839 12.5 7.9167 13.4328 7.9167 14.5833Z" stroke="currentColor" stroke-width="2"/>
  <path d="M12.0833 14.5833H7.9167M16.25 14.5833H16.886C17.0693 14.5833 17.1609 14.5833 17.2379 14.5737 17.8058 14.503 18.253 14.0558 18.3238 13.4879 18.3333 13.4109 18.3333 13.3193 18.3333 13.136V10.8333C18.3333 7.8418 15.9083 5.4167 12.9167 5.4167M12.5 12.9167V5.8333C12.5 4.6548 12.5 4.0656 12.1339 3.6994 11.7677 3.3333 11.1785 3.3333 10 3.3333H4.1667C2.9882 3.3333 2.3989 3.3333 2.0328 3.6994 1.6667 4.0656 1.6667 4.6548 1.6667 5.8333V12.5C1.6667 13.2788 1.6667 13.6683 1.8341 13.9583 1.9438 14.1483 2.1016 14.3062 2.2917 14.4158 2.5817 14.5833 2.9712 14.5833 3.75 14.5833" stroke="currentColor" stroke-linecap="round" stroke-linejoin="round" stroke-width="2"/>
</svg>
