<svg xmlns="http://www.w3.org/2000/svg" width="20" height="20" viewBox="0 0 20 20" fill="none">
  <path d="M3.3333 8.2313V5H15V8.2313C15 10.6364 15 11.839 14.2407 12.5862 13.4813 13.3333 12.2592 13.3333 9.8148 13.3333H8.5185C6.0742 13.3333 4.852 13.3333 4.0927 12.5862 3.3333 11.839 3.3333 10.6364 3.3333 8.2313Z" stroke="currentColor" stroke-linecap="round" stroke-linejoin="round" stroke-width="2"/>
  <path d="M3.3333 5L3.8942 3.718C4.3292 2.7237 4.5467 2.2265 4.9876 1.9466 5.4285 1.6667 5.994 1.6667 7.125 1.6667H11.2083C12.3393 1.6667 12.9048 1.6667 13.3458 1.9466 13.7866 2.2265 14.0041 2.7237 14.4391 3.718L15 5" stroke="currentColor" stroke-linecap="round" stroke-width="2"/>
  <path d="M7.9167 7.5H10.4167" stroke="currentColor" stroke-linecap="round" stroke-width="2"/>
  <path d="M2.5 13.3333H15C16.3808 13.3333 17.5 14.4526 17.5 15.8333 17.5 17.2141 16.3808 18.3333 15 18.3333H2.5" stroke="currentColor" stroke-linecap="round" stroke-linejoin="round" stroke-width="2"/>
  <path d="M9.2708 15.8333H9.1667M9.375 15.8333C9.375 15.9484 9.2818 16.0417 9.1667 16.0417 9.0516 16.0417 8.9583 15.9484 8.9583 15.8333 8.9583 15.7182 9.0516 15.625 9.1667 15.625 9.2818 15.625 9.375 15.7182 9.375 15.8333Z" stroke="currentColor" stroke-linecap="round" stroke-linejoin="round" stroke-width="2"/>
  <path d="M14.2708 15.8333H14.1667M14.375 15.8333C14.375 15.9484 14.2818 16.0417 14.1667 16.0417 14.0516 16.0417 13.9583 15.9484 13.9583 15.8333 13.9583 15.7182 14.0516 15.625 14.1667 15.625 14.2818 15.625 14.375 15.7182 14.375 15.8333Z" stroke="currentColor" stroke-linecap="round" stroke-linejoin="round" stroke-width="2"/>
  <path d="M4.2708 15.8333H4.1667M4.375 15.8333C4.375 15.9484 4.2817 16.0417 4.1667 16.0417 4.0516 16.0417 3.9583 15.9484 3.9583 15.8333 3.9583 15.7182 4.0516 15.625 4.1667 15.625 4.2817 15.625 4.375 15.7182 4.375 15.8333Z" stroke="currentColor" stroke-linecap="round" stroke-linejoin="round" stroke-width="2"/>
</svg>
