<svg xmlns="http://www.w3.org/2000/svg" width="20" height="20" viewBox="0 0 20 20" fill="none">
  <path d="M6.6667 16.25C6.6667 15.4643 6.6667 15.0715 6.9107 14.8274 7.1548 14.5833 7.5477 14.5833 8.3333 14.5833 9.119 14.5833 9.5118 14.5833 9.7559 14.8274 10 15.0715 10 15.4643 10 16.25 10 17.0357 10 17.4285 9.7559 17.6726 9.5118 17.9167 9.119 17.9167 8.3333 17.9167 7.5477 17.9167 7.1548 17.9167 6.9107 17.6726 6.6667 17.4285 6.6667 17.0357 6.6667 16.25Z" stroke="currentColor" stroke-linejoin="round" stroke-width="2"/>
  <path d="M10 16.25C10 15.4643 10 15.0715 10.2441 14.8274 10.4882 14.5833 10.881 14.5833 11.6667 14.5833 12.4523 14.5833 12.8452 14.5833 13.0893 14.8274 13.3333 15.0715 13.3333 15.4643 13.3333 16.25 13.3333 17.0357 13.3333 17.4285 13.0893 17.6726 12.8452 17.9167 12.4523 17.9167 11.6667 17.9167 10.881 17.9167 10.4882 17.9167 10.2441 17.6726 10 17.4285 10 17.0357 10 16.25Z" stroke="currentColor" stroke-linejoin="round" stroke-width="2"/>
  <path d="M8.3333 12.9167C8.3333 12.131 8.3333 11.7382 8.5774 11.4941 8.8215 11.25 9.2143 11.25 10 11.25 10.7857 11.25 11.1785 11.25 11.4226 11.4941 11.6667 11.7382 11.6667 12.131 11.6667 12.9167 11.6667 13.7023 11.6667 14.0952 11.4226 14.3393 11.1785 14.5833 10.7857 14.5833 10 14.5833 9.2143 14.5833 8.8215 14.5833 8.5774 14.3393 8.3333 14.0952 8.3333 13.7023 8.3333 12.9167Z" stroke="currentColor" stroke-linejoin="round" stroke-width="2"/>
  <path d="M15.8333 11.2767V16.6717C15.8333 17.0584 15.8333 17.2518 15.8968 17.4043 15.9813 17.6077 16.1436 17.7692 16.3478 17.8535 16.5009 17.9167 16.6951 17.9167 17.0833 17.9167 17.4716 17.9167 17.6657 17.9167 17.8189 17.8535 18.0231 17.7692 18.1853 17.6077 18.2699 17.4043 18.3333 17.2518 18.3333 17.0584 18.3333 16.6717V9.2412C18.3333 7.8056 18.3333 7.0878 17.9853 6.5015 17.6373 5.9153 17.0058 5.5694 15.7429 4.8776L12.4096 3.0516C11.2313 2.4061 10.6422 2.0833 10 2.0833 9.3578 2.0833 8.7687 2.4061 7.5904 3.0516L4.2571 4.8776C2.9942 5.5694 2.3627 5.9153 2.0147 6.5015 1.6667 7.0878 1.6667 7.8056 1.6667 9.2412V16.6717C1.6667 17.0584 1.6667 17.2518 1.7301 17.4043 1.8147 17.6077 1.9769 17.7692 2.1811 17.8535 2.3342 17.9167 2.5284 17.9167 2.9167 17.9167 3.3049 17.9167 3.4991 17.9167 3.6522 17.8535 3.8564 17.7692 4.0187 17.6077 4.1032 17.4043 4.1667 17.2518 4.1667 17.0584 4.1667 16.6717V11.2767C4.1667 9.7116 4.1667 8.929 4.6548 8.4428 5.143 7.9566 5.9287 7.9566 7.5 7.9566H12.5C14.0713 7.9566 14.857 7.9566 15.3452 8.4428 15.8333 8.929 15.8333 9.7116 15.8333 11.2767Z" stroke="currentColor" stroke-linecap="round" stroke-linejoin="round" stroke-width="2"/>
</svg>
