<svg xmlns="http://www.w3.org/2000/svg" width="20" height="20" viewBox="0 0 20 20" fill="none">
  <path d="M5 7.5V13.9034C5 15.4127 5 16.1673 5.4882 16.6363 6.5832 17.6881 13.2132 17.8837 14.5118 16.6363 15 16.1673 15 15.4127 15 13.9034V7.5" stroke="currentColor" stroke-linecap="round" stroke-width="2"/>
  <path d="M4.7839 10L2.536 7.8243C1.9565 7.2634 1.6667 6.9829 1.6667 6.6344 1.6667 6.2858 1.9565 6.0054 2.536 5.4444L4.2035 3.8305C4.4924 3.5509 4.6369 3.4111 4.8091 3.3081 4.9813 3.2051 5.1751 3.1425 5.5627 3.0175L6.9343 2.575C7.1348 2.5103 7.2351 2.4779 7.3033 2.5168 7.3714 2.5557 7.393 2.6677 7.436 2.8918 7.6613 4.064 8.7236 4.9515 10 4.9515 11.2764 4.9515 12.3387 4.064 12.564 2.8918 12.607 2.6677 12.6286 2.5557 12.6968 2.5168 12.7649 2.4779 12.8652 2.5103 13.0658 2.575L14.4373 3.0175C14.8249 3.1425 15.0188 3.2051 15.1909 3.3081 15.3632 3.4111 15.5076 3.5509 15.7965 3.8305L17.464 5.4444C18.0436 6.0054 18.3333 6.2858 18.3333 6.6344 18.3333 6.9829 18.0436 7.2634 17.464 7.8243L15.2161 10" stroke="currentColor" stroke-linecap="round" stroke-linejoin="round" stroke-width="2"/>
</svg>
