<svg xmlns="http://www.w3.org/2000/svg" width="20" height="20" viewBox="0 0 20 20" fill="none">
  <path d="M5.8333 5C5.8333 6.3807 6.9526 7.5 8.3333 7.5 9.7141 7.5 10.8333 6.3807 10.8333 5" stroke="currentColor" stroke-linecap="round" stroke-linejoin="round" stroke-width="2"/>
  <path d="M9.2598 2.5H7.4069C5.181 2.5 4.0681 2.5 3.3497 3.1839 2.6314 3.8677 2.5697 4.986 2.4462 7.2227L2.1702 12.2227C2.0335 14.6982 1.9652 15.9361 2.7003 16.718 3.4353 17.5 4.6672 17.5 7.1309 17.5H9.5358C11.9995 17.5 13.2314 17.5 13.9664 16.718 14.7014 15.9361 14.6331 14.6982 14.4964 12.2227L14.2204 7.2226C14.0969 4.986 14.0353 3.8677 13.3169 3.1839 12.5986 2.5 11.4857 2.5 9.2598 2.5Z" stroke="currentColor" stroke-linecap="round" stroke-linejoin="round" stroke-width="2"/>
  <path d="M10.7402 2.5H12.5931C14.8189 2.5 15.9318 2.5 16.6502 3.1839 17.3685 3.8677 17.4303 4.986 17.5538 7.2226L17.8298 12.2227C17.9664 14.6982 18.0348 15.9361 17.2997 16.718 16.5647 17.5 15.3328 17.5 12.8691 17.5H10.4642" stroke="currentColor" stroke-linecap="round" stroke-linejoin="round" stroke-width="2"/>
</svg>
