<svg xmlns="http://www.w3.org/2000/svg" width="20" height="20" viewBox="0 0 20 20" fill="none">
  <path d="M16.8138 10.4261C16.5218 7.9242 16.0952 6.0482 15.6995 4.7154 15.3751 3.6226 15.2128 3.0762 14.5477 2.5798 13.8825 2.0833 13.2026 2.0833 11.8428 2.0833H7.324C5.9641 2.0833 5.2842 2.0833 4.619 2.5798 3.9538 3.0762 3.7916 3.6226 3.4672 4.7154 3.0716 6.0482 2.6449 7.9242 2.3529 10.4261 2.0088 13.3748 1.8368 14.8491 2.8311 15.9662 3.8254 17.0833 5.4368 17.0833 8.6597 17.0833H10.507" stroke="currentColor" stroke-linecap="round" stroke-linejoin="round" stroke-width="2"/>
  <path d="M7.0833 5.4167C7.0833 6.7974 8.2026 7.9167 9.5833 7.9167 10.9641 7.9167 12.0833 6.7974 12.0833 5.4167" stroke="currentColor" stroke-linecap="round" stroke-linejoin="round" stroke-width="2"/>
  <path d="M12.9167 15.4167H17.9167M15.4167 17.9167V12.9167" stroke="currentColor" stroke-linecap="round" stroke-linejoin="round" stroke-width="2"/>
</svg>
