<svg xmlns="http://www.w3.org/2000/svg" width="20" height="20" viewBox="0 0 20 20" fill="none">
  <path d="M17.1334 9.5833L17.3517 8.2796C17.5094 7.3386 17.5882 6.8681 17.3455 6.559 17.1028 6.25 16.6544 6.25 15.7577 6.25H4.2423C3.3456 6.25 2.8972 6.25 2.6545 6.559 2.4118 6.8681 2.4906 7.3386 2.6482 8.2796L3.6174 14.0651C3.9591 16.1053 4.13 17.1254 4.8067 17.7293 5.4835 18.3333 6.3892 18.3333 8.3333 18.3333H10" stroke="currentColor" stroke-linecap="round" stroke-width="2"/>
  <path d="M5.8333 6.25V5.8333C5.8333 3.5322 7.6988 1.6667 10 1.6667 12.3012 1.6667 14.1667 3.5322 14.1667 5.8333V6.25" stroke="currentColor" stroke-width="2"/>
  <path d="M3.75 14.5833H8.75" stroke="currentColor" stroke-linecap="round" stroke-width="2"/>
  <path d="M17.5 14.5833V12.5C15.8333 12.5 14.5833 11.6667 14.5833 11.6667 14.5833 11.6667 13.3333 12.5 11.6667 12.5V14.5833C11.6667 17.5 14.5833 18.3333 14.5833 18.3333 14.5833 18.3333 17.5 17.5 17.5 14.5833Z" stroke="currentColor" stroke-linecap="round" stroke-linejoin="round" stroke-width="2"/>
</svg>
