<svg xmlns="http://www.w3.org/2000/svg" width="20" height="20" viewBox="0 0 20 20" fill="none">
  <path d="M2.7696 10.8428C3.0616 8.3408 3.4882 6.4649 3.8839 5.1321 4.2083 4.0393 4.3705 3.4928 5.0357 2.9964 5.7009 2.5 6.3808 2.5 7.7406 2.5H12.2594C13.6193 2.5 14.2992 2.5 14.9643 2.9964 15.6295 3.4928 15.7918 4.0393 16.1162 5.1321 16.5118 6.4649 16.9384 8.3408 17.2304 10.8428 17.5746 13.7914 17.7466 15.2658 16.7523 16.3828 15.7579 17.5 14.1465 17.5 10.9237 17.5H9.0763C5.8535 17.5 4.2421 17.5 3.2478 16.3828 2.2534 15.2658 2.4255 13.7914 2.7696 10.8428Z" stroke="currentColor" stroke-linecap="round" stroke-linejoin="round" stroke-width="2"/>
  <path d="M7.5 5.8333C7.5 7.214 8.6193 8.3333 10 8.3333 11.3808 8.3333 12.5 7.214 12.5 5.8333" stroke="currentColor" stroke-linecap="round" stroke-linejoin="round" stroke-width="2"/>
</svg>
