<svg xmlns="http://www.w3.org/2000/svg" width="20" height="20" viewBox="0 0 20 20" fill="none">
  <path d="M10.8333 18.3333H8.3333C5.5835 18.3333 4.2085 18.3333 3.3543 17.4791 2.5 16.6248 2.5 15.2498 2.5 12.5V9.1667C2.5 7.5953 2.5 6.8096 2.9882 6.3215 3.4763 5.8333 4.262 5.8333 5.8333 5.8333H12.5C14.0713 5.8333 14.857 5.8333 15.3452 6.3215 15.8333 6.8096 15.8333 7.5953 15.8333 9.1667V10" stroke="currentColor" stroke-linecap="round" stroke-linejoin="round" stroke-width="2"/>
  <path d="M12.5 7.9167C12.5 4.695 11.0076 1.6667 9.1667 1.6667 7.3257 1.6667 5.8333 4.695 5.8333 7.9167" stroke="currentColor" stroke-linecap="round" stroke-linejoin="round" stroke-width="2"/>
  <path d="M17.5 15.8333C17.5 15.8333 15.6588 18.3333 15 18.3333 14.3412 18.3333 12.5 15.8333 12.5 15.8333M15 17.9167V12.5" stroke="currentColor" stroke-linecap="round" stroke-linejoin="round" stroke-width="2"/>
</svg>
