<svg xmlns="http://www.w3.org/2000/svg" width="20" height="20" viewBox="0 0 20 20" fill="none">
  <path d="M11.0417 18.3333H8.5417C5.7918 18.3333 4.4169 18.3333 3.5626 17.4791 2.7083 16.6248 2.7083 15.2498 2.7083 12.5V9.1667C2.7083 7.5953 2.7083 6.8096 3.1965 6.3215 3.6846 5.8333 4.4703 5.8333 6.0417 5.8333H12.7083C14.2797 5.8333 15.0653 5.8333 15.5535 6.3215 16.0417 6.8096 16.0417 7.5953 16.0417 9.1667V10.8333" stroke="currentColor" stroke-linecap="round" stroke-linejoin="round" stroke-width="2"/>
  <path d="M12.7083 7.9167C12.7083 4.695 11.2159 1.6667 9.375 1.6667 7.5341 1.6667 6.0417 4.695 6.0417 7.9167" stroke="currentColor" stroke-linecap="round" stroke-linejoin="round" stroke-width="2"/>
  <path d="M12.7083 15.8333H17.7083M15.2083 18.3333V13.3333" stroke="currentColor" stroke-linecap="round" stroke-linejoin="round" stroke-width="2"/>
</svg>
