<svg xmlns="http://www.w3.org/2000/svg" width="20" height="20" viewBox="0 0 20 20" fill="none">
  <path d="M6.6667 13.3333L13.9334 12.7278C16.2072 12.5383 16.7176 12.0417 16.9696 9.7741L17.5 5" stroke="currentColor" stroke-linecap="round" stroke-width="2"/>
  <path d="M5 5H7.0833M18.3333 5H15.4167" stroke="currentColor" stroke-linecap="round" stroke-width="2"/>
  <path d="M9.1667 7.0833C9.5762 7.5047 10.6665 9.1667 11.25 9.1667M13.3333 7.0833C12.9238 7.5047 11.8335 9.1667 11.25 9.1667M11.25 9.1667V2.5" stroke="currentColor" stroke-linecap="round" stroke-linejoin="round" stroke-width="2"/>
  <circle cx="5" cy="16.666666666666668" r="1.6666666666666667" stroke="currentColor" stroke-width="2"/>
  <circle cx="14.166666666666668" cy="16.666666666666668" r="1.6666666666666667" stroke="currentColor" stroke-width="2"/>
  <path d="M6.6667 16.6667L12.5 16.6667" stroke="currentColor" stroke-linecap="round" stroke-width="2"/>
  <path d="M1.6667 1.6667H2.4717C3.2589 1.6667 3.9451 2.1872 4.1361 2.9291L6.6154 12.5638C6.7407 13.0507 6.6335 13.5664 6.3235 13.968L5.5268 15" stroke="currentColor" stroke-linecap="round" stroke-width="2"/>
</svg>
