<svg xmlns="http://www.w3.org/2000/svg" width="20" height="20" viewBox="0 0 20 20" fill="none">
  <path d="M8.3333 18.3333C6.3892 18.3333 5.4835 18.3333 4.8067 17.7293 4.13 17.1254 3.9591 16.1053 3.6174 14.0651L2.6482 8.2796C2.4906 7.3386 2.4118 6.8681 2.6545 6.559 2.8972 6.25 3.3456 6.25 4.2423 6.25H15.7577C16.6544 6.25 17.1028 6.25 17.3455 6.559 17.5882 6.8681 17.5094 7.3386 17.3517 8.2796L17.1334 9.5833" stroke="currentColor" stroke-linecap="round" stroke-width="2"/>
  <path d="M10.9515 12.0348C11.9572 11.4257 12.8348 11.6712 13.3621 12.0623 13.5783 12.2226 13.6864 12.3027 13.75 12.3027 13.8136 12.3027 13.9217 12.2226 14.1379 12.0623 14.6652 11.6712 15.5428 11.4257 16.5485 12.0348 17.8682 12.8344 18.1668 15.4722 15.1227 17.6975 14.5428 18.1214 14.2529 18.3333 13.75 18.3333 13.2471 18.3333 12.9572 18.1214 12.3773 17.6975 9.3332 15.4722 9.6318 12.8344 10.9515 12.0348Z" stroke="currentColor" stroke-linecap="round" stroke-width="2"/>
  <path d="M5.8333 6.25V5.8333C5.8333 3.5322 7.6988 1.6667 10 1.6667 12.3012 1.6667 14.1667 3.5322 14.1667 5.8333V6.25" stroke="currentColor" stroke-width="2"/>
  <path d="M3.75 14.5833H7.9167" stroke="currentColor" stroke-linecap="round" stroke-width="2"/>
</svg>
