<svg xmlns="http://www.w3.org/2000/svg" width="20" height="20" viewBox="0 0 20 20" fill="none">
  <path d="M11.25 18.3333H8.3333C5.5835 18.3333 4.2085 18.3333 3.3543 17.4791 2.5 16.6248 2.5 15.2498 2.5 12.5V9.1667C2.5 7.5953 2.5 6.8096 2.9882 6.3215 3.4763 5.8333 4.262 5.8333 5.8333 5.8333H12.5C14.0713 5.8333 14.857 5.8333 15.3452 6.3215 15.8333 6.8096 15.8333 7.5953 15.8333 9.1667V10" stroke="currentColor" stroke-linecap="round" stroke-linejoin="round" stroke-width="2"/>
  <path d="M12.5 7.9167C12.5 4.695 11.0076 1.6667 9.1667 1.6667 7.3257 1.6667 5.8333 4.695 5.8333 7.9167" stroke="currentColor" stroke-linecap="round" stroke-linejoin="round" stroke-width="2"/>
  <path d="M16.8636 12.9362C16.3379 12.6615 15.6947 12.5 15 12.5 14.3053 12.5 13.6621 12.6615 13.1364 12.9362 12.8787 13.0708 12.7498 13.1382 12.6249 13.3498 12.5 13.5616 12.5 13.7666 12.5 14.1765V15.1942C12.5 16.8518 13.7617 17.7734 14.4925 18.1682 14.6963 18.2783 14.7982 18.3333 15 18.3333 15.2018 18.3333 15.3037 18.2783 15.5075 18.1682 16.2383 17.7734 17.5 16.8518 17.5 15.1942L17.5 14.1766C17.5 13.7666 17.5 13.5616 17.3751 13.3498 17.2503 13.1382 17.1213 13.0708 16.8636 12.9362Z" stroke="currentColor" stroke-linecap="round" stroke-linejoin="round" stroke-width="2"/>
</svg>
