<svg xmlns="http://www.w3.org/2000/svg" width="20" height="20" viewBox="0 0 20 20" fill="none">
  <path d="M6.6667 5.8333H13.3333C14.9047 5.8333 15.6903 5.8333 16.1785 6.3215 16.6667 6.8096 16.6667 7.5953 16.6667 9.1667V12.5C16.6667 15.2498 16.6667 16.6248 15.8124 17.4791 14.9581 18.3333 13.5832 18.3333 10.8333 18.3333H9.1667C6.4168 18.3333 5.0419 18.3333 4.1876 17.4791 3.3333 16.6248 3.3333 15.2498 3.3333 12.5V9.1667C3.3333 7.5953 3.3333 6.8096 3.8215 6.3215 4.3096 5.8333 5.0953 5.8333 6.6667 5.8333Z" stroke="currentColor" stroke-linecap="round" stroke-linejoin="round" stroke-width="2"/>
  <path d="M13.3333 7.9167C13.3333 4.695 11.8409 1.6667 10 1.6667 8.1591 1.6667 6.6667 4.695 6.6667 7.9167" stroke="currentColor" stroke-linecap="round" stroke-linejoin="round" stroke-width="2"/>
</svg>
