<svg xmlns="http://www.w3.org/2000/svg" width="20" height="20" viewBox="0 0 20 20" fill="none">
  <path d="M9.5833 18.3333H8.3997C6.4555 18.3333 5.4835 18.3333 4.8067 17.7293 4.13 17.1254 3.9591 16.1053 3.6174 14.0651L2.6482 8.2796C2.4906 7.3386 2.4118 6.8681 2.6545 6.559 2.8972 6.25 3.3456 6.25 4.2423 6.25H15.7577C16.6544 6.25 17.1028 6.25 17.3455 6.559 17.5882 6.8681 17.5094 7.3386 17.3517 8.2796L16.7844 11.6667" stroke="currentColor" stroke-linecap="round" stroke-width="2"/>
  <path d="M11.6667 16.9444C11.6667 16.9444 12.3958 16.9444 13.125 18.3333 13.125 18.3333 15.4412 14.8611 17.5 14.1667" stroke="currentColor" stroke-linecap="round" stroke-linejoin="round" stroke-width="2"/>
  <path d="M5.8333 6.25V5.8333C5.8333 3.5322 7.6988 1.6667 10 1.6667 12.3012 1.6667 14.1667 3.5322 14.1667 5.8333V6.25" stroke="currentColor" stroke-width="2"/>
  <path d="M3.75 14.5833H9.5833" stroke="currentColor" stroke-linecap="round" stroke-width="2"/>
</svg>
