<svg xmlns="http://www.w3.org/2000/svg" width="20" height="20" viewBox="0 0 20 20" fill="none">
  <path d="M9.1563 12.6026L8.5472 16.8545C8.3528 18.2115 8.0278 18.4556 6.6676 18.2861L3.16 17.8488C1.8385 17.6842 1.5846 17.3783 1.687 16.0504L2.3003 8.1002C2.3477 7.4855 2.3714 7.1782 2.4321 6.8773 2.5855 6.1155 3.0104 5.4464 3.1852 4.6962 3.287 4.2595 3.2509 3.7966 3.2509 3.3491 3.2509 1.9551 3.5443 1.6667 4.9382 1.6667H15.0618C16.4557 1.6667 16.7491 1.9551 16.7491 3.3491 16.7491 3.7966 16.7131 4.2595 16.8148 4.6962 16.9897 5.4464 17.4145 6.1155 17.5679 6.8773 18.1644 9.8381 18.0811 13.0438 18.313 16.0504 18.4154 17.3783 18.1615 17.6842 16.84 17.8488L13.3324 18.2861C11.9723 18.4556 11.6472 18.2115 11.4528 16.8545L10.8437 12.6026" stroke="currentColor" stroke-linecap="round" stroke-linejoin="round" stroke-width="2"/>
  <path d="M7.5 11.25C8.1338 11.8838 8.498 12.5 9.4403 12.5H10.5597C11.502 12.5 11.8663 11.8838 12.5 11.25" stroke="currentColor" stroke-linecap="round" stroke-linejoin="round" stroke-width="2"/>
  <path d="M3.3333 4.1667H16.6667" stroke="currentColor" stroke-linecap="round" stroke-linejoin="round" stroke-width="2"/>
  <path d="M2.5 9.1667C5.8333 9.1723 5.8333 5.8352 5.8333 4.1667" stroke="currentColor" stroke-linecap="round" stroke-linejoin="round" stroke-width="2"/>
  <path d="M14.1667 4.1667C14.1667 5.8352 14.1667 9.1723 17.5 9.1667" stroke="currentColor" stroke-linecap="round" stroke-linejoin="round" stroke-width="2"/>
</svg>
