<svg xmlns="http://www.w3.org/2000/svg" width="20" height="20" viewBox="0 0 20 20" fill="none">
  <path d="M13.75 3.9226V6.25L16.0773 6.2504C16.4547 6.2504 16.8166 6.1005 17.0834 5.8337L17.6219 5.2952C17.8107 5.1065 17.9167 4.8505 17.9167 4.5836 17.9167 4.3167 17.8107 4.0606 17.6218 3.8719L16.1271 2.3776C15.9386 2.1892 15.6829 2.0833 15.4164 2.0833 15.1498 2.0833 14.8941 2.1892 14.7056 2.3778L14.1667 2.9167C13.8999 3.1835 13.75 3.5453 13.75 3.9226Z" stroke="currentColor" stroke-linecap="round" stroke-linejoin="round" stroke-width="2"/>
  <path d="M13.75 6.25L7.0834 12.9167" stroke="currentColor" stroke-linecap="round" stroke-linejoin="round" stroke-width="2"/>
  <path d="M4.696 17.9168H4.5432C3.3833 17.9168 2.8034 17.9168 2.4431 17.5566 2.0829 17.1963 2.083 16.6163 2.0833 15.4565L2.0834 15.3045C2.0834 13.5648 2.7745 11.8965 4.0046 10.6664 4.9616 9.7092 5.4402 9.2305 6.0269 9.1743 6.1308 9.1644 6.2355 9.1644 6.3394 9.1743 6.9261 9.2304 7.4047 9.709 8.3618 10.6662L9.3338 11.6382C10.2913 12.5958 10.7701 13.0746 10.8259 13.6618 10.8358 13.7648 10.8358 13.8687 10.826 13.9718 10.7703 14.5589 10.2917 15.0378 9.3343 15.9958 8.1042 17.2258 6.4357 17.9168 4.696 17.9168Z" stroke="currentColor" stroke-linecap="round" stroke-linejoin="round" stroke-width="2"/>
</svg>
