<svg xmlns="http://www.w3.org/2000/svg" width="20" height="20" viewBox="0 0 20 20" fill="none">
  <path d="M5.1102 13.878C5.7814 14.1084 6.5129 13.7528 6.744 13.0835L7.7204 10.256C7.8745 9.8098 8.3622 9.5727 8.8096 9.7263L9.6198 10.0045C10.0673 10.1582 10.5549 9.921 10.709 9.4748L12.6618 3.8199C12.8159 3.3738 12.5781 2.8875 12.1306 2.7339 9.8933 1.9658 7.455 3.1515 6.6847 5.3823L4.3134 12.249C4.0822 12.9183 4.439 13.6476 5.1102 13.878ZM5.1102 13.878L4.4972 15.653C4.183 16.5629 3.4336 17.256 2.5 17.5M15.0693 4.9326L17.5 5.7671M14.2324 7.3561L16.6631 8.1906M13.3955 9.7797L15.8262 10.6142" stroke="currentColor" stroke-linecap="round" stroke-linejoin="round" stroke-width="2"/>
</svg>
