<svg xmlns="http://www.w3.org/2000/svg" width="20" height="20" viewBox="0 0 20 20" fill="none">
  <path d="M10 9.5833V10.4167M10.8333 10C10.8333 10.4603 10.4603 10.8333 10 10.8333 9.5397 10.8333 9.1667 10.4603 9.1667 10 9.1667 9.5397 9.5397 9.1667 10 9.1667 10.4603 9.1667 10.8333 9.5397 10.8333 10Z" stroke="currentColor" stroke-linecap="round" stroke-linejoin="round" stroke-width="2"/>
  <path d="M6.6414 7.5253C6.8855 7.7693 7.2812 7.7693 7.5253 7.5253 7.7693 7.2812 7.7693 6.8855 7.5253 6.6414L7.0833 7.0833 6.6414 7.5253ZM2.9419 2.0581C2.6979 1.814 2.3021 1.814 2.0581 2.0581 1.814 2.3021 1.814 2.6979 2.0581 2.9419L2.5 2.5 2.9419 2.0581ZM8.125 4.1667C8.125 3.8215 7.8452 3.5417 7.5 3.5417 7.1548 3.5417 6.875 3.8215 6.875 4.1667H7.5 8.125ZM4.1667 6.875C3.8215 6.875 3.5417 7.1548 3.5417 7.5 3.5417 7.8452 3.8215 8.125 4.1667 8.125V7.5 6.875ZM7.0833 7.0833L7.5253 6.6414 2.9419 2.0581 2.5 2.5 2.0581 2.9419 6.6414 7.5253 7.0833 7.0833ZM7.5 4.1667H6.875V5.3333H7.5 8.125V4.1667H7.5ZM5.3333 7.5V6.875H4.1667V7.5 8.125H5.3333V7.5ZM7.5 5.3333H6.875C6.875 5.8617 6.8737 6.1951 6.8409 6.4388 6.8106 6.6645 6.7639 6.7176 6.7408 6.7408L7.1827 7.1827 7.6246 7.6246C7.9188 7.3305 8.0308 6.9696 8.0798 6.6053 8.1263 6.259 8.125 5.8264 8.125 5.3333H7.5ZM5.3333 7.5V8.125C5.8264 8.125 6.259 8.1263 6.6053 8.0798 6.9696 8.0308 7.3305 7.9188 7.6246 7.6246L7.1827 7.1827 6.7408 6.7408C6.7176 6.7639 6.6645 6.8106 6.4388 6.8409 6.1951 6.8737 5.8617 6.875 5.3333 6.875V7.5Z" fill="currentColor"/>
  <path d="M12.4748 6.6414C12.2307 6.8855 12.2307 7.2812 12.4748 7.5253 12.7188 7.7693 13.1145 7.7693 13.3586 7.5253L12.9167 7.0833 12.4748 6.6414ZM17.9419 2.9419C18.186 2.6979 18.186 2.3021 17.9419 2.0581 17.6978 1.814 17.3022 1.814 17.0581 2.0581L17.5 2.5 17.9419 2.9419ZM13.125 4.1667C13.125 3.8215 12.8452 3.5417 12.5 3.5417 12.1548 3.5417 11.875 3.8215 11.875 4.1667H12.5 13.125ZM15.8333 8.125C16.1785 8.125 16.4583 7.8452 16.4583 7.5 16.4583 7.1548 16.1785 6.875 15.8333 6.875V7.5 8.125ZM12.9167 7.0833L13.3586 7.5253 17.9419 2.9419 17.5 2.5 17.0581 2.0581 12.4748 6.6414 12.9167 7.0833ZM12.5 4.1667H11.875V5.3333H12.5 13.125V4.1667H12.5ZM14.6667 7.5V8.125H15.8333V7.5 6.875H14.6667V7.5ZM12.5 5.3333H11.875C11.875 5.8264 11.8737 6.259 11.9202 6.6053 11.9693 6.9696 12.0813 7.3305 12.3753 7.6246L12.8173 7.1827 13.2592 6.7408C13.2361 6.7176 13.1894 6.6645 13.1591 6.4388 13.1263 6.1951 13.125 5.8617 13.125 5.3333H12.5ZM14.6667 7.5V6.875C14.1383 6.875 13.8049 6.8737 13.5612 6.8409 13.3355 6.8106 13.2824 6.7639 13.2592 6.7408L12.8173 7.1827 12.3753 7.6246C12.6695 7.9188 13.0303 8.0308 13.3947 8.0798 13.741 8.1263 14.1737 8.125 14.6667 8.125V7.5Z" fill="currentColor"/>
  <path d="M7.5253 13.3586C7.7693 13.1145 7.7693 12.7188 7.5253 12.4748 7.2812 12.2307 6.8855 12.2307 6.6414 12.4748L7.0833 12.9167 7.5253 13.3586ZM2.0581 17.0581C1.814 17.3022 1.814 17.6978 2.0581 17.9419 2.3021 18.186 2.6979 18.186 2.9419 17.9419L2.5 17.5 2.0581 17.0581ZM6.875 15.8333C6.875 16.1785 7.1548 16.4583 7.5 16.4583 7.8452 16.4583 8.125 16.1785 8.125 15.8333H7.5 6.875ZM4.1667 11.875C3.8215 11.875 3.5417 12.1548 3.5417 12.5 3.5417 12.8452 3.8215 13.125 4.1667 13.125V12.5 11.875ZM7.0833 12.9167L6.6414 12.4748 2.0581 17.0581 2.5 17.5 2.9419 17.9419 7.5253 13.3586 7.0833 12.9167ZM7.5 15.8333H8.125V14.6667H7.5 6.875V15.8333H7.5ZM5.3333 12.5V11.875H4.1667V12.5 13.125H5.3333V12.5ZM7.5 14.6667H8.125C8.125 14.1737 8.1263 13.741 8.0798 13.3947 8.0308 13.0303 7.9188 12.6695 7.6246 12.3753L7.1827 12.8173 6.7408 13.2592C6.7639 13.2824 6.8106 13.3355 6.8409 13.5612 6.8737 13.8049 6.875 14.1383 6.875 14.6667H7.5ZM5.3333 12.5V13.125C5.8617 13.125 6.1951 13.1263 6.4388 13.1591 6.6645 13.1894 6.7176 13.2361 6.7408 13.2592L7.1827 12.8173 7.6246 12.3753C7.3305 12.0813 6.9696 11.9693 6.6053 11.9202 6.259 11.8737 5.8264 11.875 5.3333 11.875V12.5Z" fill="currentColor"/>
  <path d="M13.3586 12.4748C13.1145 12.2307 12.7188 12.2307 12.4748 12.4748 12.2307 12.7188 12.2307 13.1145 12.4748 13.3586L12.9167 12.9167 13.3586 12.4748ZM17.0581 17.9419C17.3022 18.186 17.6978 18.186 17.9419 17.9419 18.186 17.6978 18.186 17.3022 17.9419 17.0581L17.5 17.5 17.0581 17.9419ZM11.875 15.8333C11.875 16.1785 12.1548 16.4583 12.5 16.4583 12.8452 16.4583 13.125 16.1785 13.125 15.8333H12.5 11.875ZM15.8333 13.125C16.1785 13.125 16.4583 12.8452 16.4583 12.5 16.4583 12.1548 16.1785 11.875 15.8333 11.875V12.5 13.125ZM12.9167 12.9167L12.4748 13.3586 17.0581 17.9419 17.5 17.5 17.9419 17.0581 13.3586 12.4748 12.9167 12.9167ZM12.5 15.8333H13.125V14.6667H12.5 11.875V15.8333H12.5ZM14.6667 12.5V13.125H15.8333V12.5 11.875H14.6667V12.5ZM12.5 14.6667H13.125C13.125 14.1383 13.1263 13.8049 13.1591 13.5612 13.1894 13.3355 13.2361 13.2824 13.2592 13.2592L12.8173 12.8173 12.3753 12.3753C12.0813 12.6695 11.9693 13.0303 11.9202 13.3947 11.8737 13.741 11.875 14.1737 11.875 14.6667H12.5ZM14.6667 12.5V11.875C14.1737 11.875 13.741 11.8737 13.3947 11.9202 13.0303 11.9693 12.6695 12.0813 12.3753 12.3753L12.8173 12.8173 13.2592 13.2592C13.2824 13.2361 13.3355 13.1894 13.5612 13.1591 13.8049 13.1263 14.1383 13.125 14.6667 13.125V12.5Z" fill="currentColor"/>
</svg>
