<svg xmlns="http://www.w3.org/2000/svg" width="20" height="20" viewBox="0 0 20 20" fill="none">
  <path d="M13.75 14.5833L15 13.125H13.4506C12.5773 13.125 12.1407 13.125 11.7722 12.9401 11.4038 12.7553 11.1615 12.4147 10.6771 11.7334L8.2118 8.2666C7.7274 7.5854 7.4852 7.2448 7.1167 7.0599 6.7482 6.875 6.3116 6.875 5.4383 6.875H5M13.75 5.4167L15 6.875H13.4506C12.5773 6.875 12.1407 6.875 11.7722 7.0599 11.4038 7.2448 11.1615 7.5854 10.6771 8.2666M5 13.125H5.4383C6.3116 13.125 6.7482 13.125 7.1167 12.9401 7.4852 12.7553 7.7274 12.4147 8.2118 11.7334" stroke="currentColor" stroke-linecap="round" stroke-linejoin="round" stroke-width="2"/>
  <path d="M2.0833 10C2.0833 6.268 2.0833 4.4021 3.2427 3.2427 4.4021 2.0833 6.268 2.0833 10 2.0833 13.7319 2.0833 15.5979 2.0833 16.7573 3.2427 17.9167 4.4021 17.9167 6.268 17.9167 10 17.9167 13.7319 17.9167 15.5979 16.7573 16.7573 15.5979 17.9167 13.7319 17.9167 10 17.9167 6.268 17.9167 4.4021 17.9167 3.2427 16.7573 2.0833 15.5979 2.0833 13.7319 2.0833 10Z" stroke="currentColor" stroke-width="2"/>
</svg>
