<svg xmlns="http://www.w3.org/2000/svg" width="20" height="20" viewBox="0 0 20 20" fill="none">
  <path d="M16.298 3.3333L17.0459 4.1465C17.3801 4.5097 17.5472 4.6913 17.4884 4.8457 17.4296 5 17.1933 5 16.7208 5 15.663 5 14.3976 4.8291 13.4259 5.3944 12.8253 5.7439 12.4069 6.3543 11.6993 7.5M2.5 15H3.8174C5.4239 15 6.2272 15 6.9052 14.6056 7.5059 14.2561 7.9242 13.6457 8.6318 12.5" stroke="currentColor" stroke-linecap="round" stroke-linejoin="round" stroke-width="2"/>
  <path d="M16.298 16.6667L17.0459 15.8536C17.3801 15.4903 17.5472 15.3087 17.4884 15.1543 17.4296 15 17.1933 15 16.7208 15 15.663 15 14.3976 15.1709 13.4259 14.6056 12.748 14.2112 12.3024 13.4846 11.4113 12.0313L8.9198 7.9687C8.0287 6.5154 7.5831 5.7888 6.9052 5.3944 6.2272 5 5.4239 5 3.8174 5H2.5" stroke="currentColor" stroke-linecap="round" stroke-linejoin="round" stroke-width="2"/>
</svg>
