<svg xmlns="http://www.w3.org/2000/svg" width="20" height="20" viewBox="0 0 20 20" fill="none">
  <path d="M1.6667 10C1.6667 6.8752 1.6667 5.3128 2.4624 4.2176 2.7194 3.8638 3.0305 3.5528 3.3842 3.2958 4.4795 2.5 6.0419 2.5 9.1667 2.5H10.8333C13.9581 2.5 15.5205 2.5 16.6158 3.2958 16.9695 3.5528 17.2806 3.8638 17.5376 4.2176 18.3333 5.3128 18.3333 6.8752 18.3333 10 18.3333 13.1248 18.3333 14.6872 17.5376 15.7824 17.2806 16.1362 16.9695 16.4473 16.6158 16.7043 15.5205 17.5 13.9581 17.5 10.8333 17.5H9.1667C6.0419 17.5 4.4795 17.5 3.3842 16.7043 3.0305 16.4473 2.7194 16.1362 2.4624 15.7824 1.6667 14.6872 1.6667 13.1248 1.6667 10Z" stroke="currentColor" stroke-linejoin="round" stroke-width="2"/>
  <path d="M7.9167 2.9167L7.9167 17.0833" stroke="currentColor" stroke-linejoin="round" stroke-width="2"/>
  <path d="M4.1667 5.8333C4.1667 5.8333 4.9285 5.8333 5.4167 5.8333" stroke="currentColor" stroke-linecap="round" stroke-linejoin="round" stroke-width="2"/>
  <path d="M4.1667 9.1667H5.4167" stroke="currentColor" stroke-linecap="round" stroke-linejoin="round" stroke-width="2"/>
  <path d="M14.1667 8.3333L13.1446 9.2143C12.7148 9.5847 12.5 9.7699 12.5 10 12.5 10.2301 12.7148 10.4153 13.1446 10.7857L14.1667 11.6667" stroke="currentColor" stroke-linecap="round" stroke-linejoin="round" stroke-width="2"/>
</svg>
