<svg xmlns="http://www.w3.org/2000/svg" width="20" height="20" viewBox="0 0 20 20" fill="none">
  <path d="M5.8333 14.1667V13.3333C5.8333 12.5477 5.8333 12.1548 5.5893 11.9108 5.3452 11.6667 4.9523 11.6667 4.1667 11.6667 3.381 11.6667 2.9882 11.6667 2.7441 11.9108 2.5 12.1548 2.5 12.5477 2.5 13.3333V14.1667C2.5 14.9523 2.5 15.3452 2.7441 15.5893 2.9882 15.8333 3.381 15.8333 4.1667 15.8333 4.9523 15.8333 5.3452 15.8333 5.5893 15.5893 5.8333 15.3452 5.8333 14.9523 5.8333 14.1667Z" stroke="currentColor" stroke-linecap="round" stroke-linejoin="round" stroke-width="2"/>
  <path d="M11.6667 14.1667V10C11.6667 9.2143 11.6667 8.8215 11.4226 8.5774 11.1785 8.3333 10.7857 8.3333 10 8.3333 9.2143 8.3333 8.8215 8.3333 8.5774 8.5774 8.3333 8.8215 8.3333 9.2143 8.3333 10V14.1667C8.3333 14.9523 8.3333 15.3452 8.5774 15.5893 8.8215 15.8333 9.2143 15.8333 10 15.8333 10.7857 15.8333 11.1785 15.8333 11.4226 15.5893 11.6667 15.3452 11.6667 14.9523 11.6667 14.1667Z" stroke="currentColor" stroke-linecap="round" stroke-linejoin="round" stroke-width="2"/>
  <path d="M17.5 14.1667V6.6667C17.5 5.881 17.5 5.4882 17.2559 5.2441 17.0118 5 16.619 5 15.8333 5 15.0477 5 14.6548 5 14.4108 5.2441 14.1667 5.4882 14.1667 5.881 14.1667 6.6667V14.1667C14.1667 14.9523 14.1667 15.3452 14.4108 15.5893 14.6548 15.8333 15.0477 15.8333 15.8333 15.8333 16.619 15.8333 17.0118 15.8333 17.2559 15.5893 17.5 15.3452 17.5 14.9523 17.5 14.1667Z" stroke="currentColor" stroke-linecap="round" stroke-linejoin="round" stroke-width="2"/>
</svg>
