<svg xmlns="http://www.w3.org/2000/svg" width="20" height="20" viewBox="0 0 20 20" fill="none">
  <path d="M17.5 15.8333L15 15.8333" stroke="currentColor" stroke-linecap="round" stroke-linejoin="round" stroke-width="2"/>
  <path d="M11.6667 15.8333L9.1667 15.8333" stroke="currentColor" stroke-linecap="round" stroke-linejoin="round" stroke-width="2"/>
  <path d="M5.8333 14.1667V13.3333C5.8333 12.5477 5.8333 12.1548 5.5893 11.9108 5.3452 11.6667 4.9523 11.6667 4.1667 11.6667 3.381 11.6667 2.9882 11.6667 2.7441 11.9108 2.5 12.1548 2.5 12.5477 2.5 13.3333V14.1667C2.5 14.9523 2.5 15.3452 2.7441 15.5893 2.9882 15.8333 3.381 15.8333 4.1667 15.8333 4.9523 15.8333 5.3452 15.8333 5.5893 15.5893 5.8333 15.3452 5.8333 14.9523 5.8333 14.1667Z" stroke="currentColor" stroke-linecap="round" stroke-linejoin="round" stroke-width="2"/>
</svg>
