<svg xmlns="http://www.w3.org/2000/svg" width="20" height="20" viewBox="0 0 20 20" fill="none">
  <path d="M4.1667 8.3333L4.1667 15.8333" stroke="currentColor" stroke-linecap="round" stroke-width="2"/>
  <path d="M4.8404 7.7343C4.5295 8.1336 4.374 8.3333 4.1667 8.3333 3.9593 8.3333 3.8039 8.1336 3.493 7.7343L2.8715 6.9359C1.9771 5.7871 1.5299 5.2127 1.7036 4.7401 1.7213 4.692 1.743 4.6455 1.7685 4.6012 2.0192 4.1667 2.735 4.1667 4.1667 4.1667 5.5983 4.1667 6.3142 4.1667 6.5648 4.6012 6.5903 4.6455 6.6121 4.692 6.6298 4.7401 6.8034 5.2127 6.3562 5.7871 5.4619 6.9359L4.8404 7.7343Z" stroke="currentColor" stroke-linecap="round" stroke-width="2"/>
  <path d="M7.5 10.8333V15.8333" stroke="currentColor" stroke-linecap="round" stroke-width="2"/>
  <path d="M10.8333 9.1667L10.8333 15.8333" stroke="currentColor" stroke-linecap="round" stroke-width="2"/>
  <path d="M14.1667 8.3333L14.1667 15.8333" stroke="currentColor" stroke-linecap="round" stroke-width="2"/>
  <path d="M17.5 15.8333L18.3333 15.8333" stroke="currentColor" stroke-linecap="round" stroke-width="2"/>
</svg>
