<svg xmlns="http://www.w3.org/2000/svg" width="20" height="20" viewBox="0 0 20 20" fill="none">
  <path d="M3.3333 17.5V11.9947C3.3333 9.8052 3.3333 8.7105 3.6323 7.7536 4.058 6.391 5.5614 4.9349 6.7271 4.0868 7.4733 3.5439 8.1781 3.3287 9.888 2.7428 10.1608 2.6493 10.2973 2.6026 10.5442 2.5565 10.791 2.5104 10.8507 2.5081 10.97 2.5034 11.2753 2.4914 11.6508 2.5083 12.049 2.5995 12.335 2.665 12.6188 2.7723 13.1863 2.9868L14.779 3.6413C15.3876 3.8914 15.6955 4.5728 15.4809 5.1949 15.2534 5.8543 14.5275 6.1971 13.8737 5.9538M8.4241 6.6667C8.4241 6.6667 10.6036 5.5893 11.4752 5.4826 11.9588 5.4233 12.5293 5.5401 13.1132 5.7188L13.8737 5.9538M10 17.5C10.3033 16.25 11.8168 15.6636 11.8168 15.6636 12.5 15.4167 13.5029 14.9382 13.939 14.5833L16.3006 13.0422C16.8247 12.6157 16.567 11.9874 16.0944 11.674 14.5654 10.6601 13.0992 11.5442 11.6883 12.2459 10.4606 12.8565 8.8483 11.9685 8.8483 10.6032 8.8483 8.7406 11.7538 7.881 13.2374 8.4713L15.0661 9.0079C15.7408 9.2059 16.4482 8.8149 16.6261 8.1458 16.7868 7.5415 16.4577 6.9155 15.8632 6.6942L13.8737 5.9538" stroke="currentColor" stroke-linecap="round" stroke-linejoin="round" stroke-width="2"/>
</svg>
