<svg xmlns="http://www.w3.org/2000/svg" width="20" height="20" viewBox="0 0 20 20" fill="none">
  <path d="M10.0297 18.2738C14.6157 18.2738 18.3333 14.5562 18.3333 9.9703 18.3333 5.3843 14.6157 1.6667 10.0297 1.6667 5.4438 1.6667 1.7262 5.3843 1.7262 9.9703 1.7262 11.4827 1.4349 12.9007 2.1414 14.122L1.7262 18.2738 5.878 17.8587C7.0993 18.5652 8.5173 18.2738 10.0297 18.2738Z" stroke="currentColor" stroke-linecap="round" stroke-linejoin="round" stroke-width="2"/>
  <path d="M10 15.8333C13.2217 15.8333 15.8333 13.2217 15.8333 10 15.8333 6.7783 13.2217 4.1667 10 4.1667 6.7783 4.1667 4.1667 6.7783 4.1667 10 4.1667 11.0625 4.5037 12.0587 5 12.9167L4.1667 15.8333 7.0833 15C7.9413 15.4963 8.9375 15.8333 10 15.8333Z" stroke="currentColor" stroke-linecap="round" stroke-linejoin="round" stroke-width="2"/>
</svg>
