<svg xmlns="http://www.w3.org/2000/svg" width="20" height="20" viewBox="0 0 20 20" fill="none">
  <path d="M5 8.3333L5 15.8333" stroke="currentColor" stroke-linecap="round" stroke-width="2"/>
  <path d="M5.6737 7.7343C5.3628 8.1336 5.2073 8.3333 5 8.3333 4.7927 8.3333 4.6372 8.1336 4.3263 7.7343L3.7048 6.9359C2.8105 5.7871 2.3633 5.2127 2.5369 4.7401 2.5546 4.692 2.5763 4.6455 2.6019 4.6012 2.8525 4.1667 3.5683 4.1667 5 4.1667 6.4317 4.1667 7.1475 4.1667 7.3981 4.6012 7.4237 4.6455 7.4454 4.692 7.4631 4.7401 7.6367 5.2127 7.1895 5.7871 6.2952 6.9359L5.6737 7.7343Z" stroke="currentColor" stroke-linecap="round" stroke-width="2"/>
  <path d="M8.3333 10.8333V15.8333" stroke="currentColor" stroke-linecap="round" stroke-width="2"/>
  <path d="M10.8333 15.8333L11.6667 15.8333" stroke="currentColor" stroke-linecap="round" stroke-width="2"/>
  <path d="M14.1667 15.8333L15 15.8333" stroke="currentColor" stroke-linecap="round" stroke-width="2"/>
  <path d="M17.5 15.8333L18.3333 15.8333" stroke="currentColor" stroke-linecap="round" stroke-width="2"/>
</svg>
