<svg xmlns="http://www.w3.org/2000/svg" width="20" height="20" viewBox="0 0 20 20" fill="none">
  <path d="M1.6667 11.5723C1.6667 8.5213 1.6667 6.9958 2.5655 6.0293 2.5987 5.9936 2.6327 5.9586 2.6674 5.9245 3.6071 5 5.0902 5 8.0564 5 8.7593 5 9.098 5.0025 9.4203 5.1262 9.7308 5.2454 9.9908 5.4683 10.5107 5.914L11.9341 7.1339C12.6222 7.7237 12.9662 8.0186 13.1498 8.4217 13.3333 8.8249 13.3333 9.2856 13.3333 10.2068V12.3333C13.3333 14.8332 13.3333 16.0831 12.7144 16.9593 12.5145 17.2423 12.2726 17.4912 11.9974 17.6968 11.1456 18.3333 9.9304 18.3333 7.5 18.3333 5.0696 18.3333 3.8544 18.3333 3.0026 17.6968 2.7274 17.4912 2.4855 17.2423 2.2856 16.9593 1.6667 16.0831 1.6667 14.8332 1.6667 12.3333V11.5723Z" stroke="currentColor" stroke-width="2"/>
  <path d="M13.3149 13.3333C15.4057 13.3333 16.4512 13.3333 17.1841 12.7763 17.4208 12.5964 17.6289 12.3787 17.8008 12.131 18.3333 11.3643 18.3333 10.2707 18.3333 8.0833V6.2226C18.3333 5.4165 18.3333 5.0135 18.1754 4.6607 18.0175 4.308 17.7215 4.0499 17.1295 3.5339L15.9051 2.4664C15.4577 2.0764 15.234 1.8814 14.967 1.7771 14.6897 1.6689 14.3983 1.6667 13.7936 1.6667 11.2417 1.6667 9.9658 1.6667 9.1574 2.4756 9.1275 2.5055 9.0983 2.5361 9.0697 2.5673 8.5768 3.1064 8.3981 3.8443 8.3333 5" stroke="currentColor" stroke-width="2"/>
</svg>
