<svg xmlns="http://www.w3.org/2000/svg" width="20" height="20" viewBox="0 0 20 20" fill="none">
  <path d="M7.9167 15L6.9899 14.2173C6.4966 13.8006 6.25 13.5923 6.25 13.3333 6.25 13.0744 6.4966 12.8661 6.9899 12.4494L7.9167 11.6667M12.0833 11.6667L13.0101 12.4494C13.5033 12.8661 13.75 13.0744 13.75 13.3333 13.75 13.5923 13.5033 13.8006 13.0101 14.2173L12.0833 15" stroke="currentColor" stroke-linecap="round" stroke-linejoin="round" stroke-width="2"/>
  <path d="M2.5 9.882C2.5 6.0683 2.5 4.1615 3.6556 2.9533 3.6983 2.9087 3.742 2.865 3.7866 2.8223 4.9948 1.6667 6.9017 1.6667 10.7153 1.6667 11.6192 1.6667 12.0546 1.6698 12.469 1.8245 12.8681 1.9734 13.2024 2.252 13.871 2.8092L15.7009 4.3341C16.5856 5.0713 17.0279 5.44 17.264 5.9439 17.5 6.4478 17.5 7.0236 17.5 8.1752V10.8333C17.5 13.9581 17.5 15.5205 16.7043 16.6158 16.4473 16.9695 16.1362 17.2806 15.7824 17.5376 14.6872 18.3333 13.1248 18.3333 10 18.3333 6.8752 18.3333 5.3128 18.3333 4.2176 17.5376 3.8638 17.2806 3.5528 16.9695 3.2958 16.6158 2.5 15.5205 2.5 13.9581 2.5 10.8333V9.882Z" stroke="currentColor" stroke-width="2"/>
</svg>
