<svg xmlns="http://www.w3.org/2000/svg" width="20" height="20" viewBox="0 0 20 20" fill="none">
  <path d="M2.5 9.882C2.5 6.0683 2.5 4.1615 3.6556 2.9533 3.6983 2.9087 3.742 2.865 3.7866 2.8223 4.9948 1.6667 6.9017 1.6667 10.7153 1.6667 11.6192 1.6667 12.0546 1.6698 12.469 1.8245 12.8681 1.9734 13.2024 2.252 13.871 2.8092L15.7009 4.3341C16.5856 5.0713 17.0279 5.44 17.264 5.9439 17.5 6.4478 17.5 7.0236 17.5 8.1752V10.8333C17.5 13.9581 17.5 15.5205 16.7043 16.6158 16.4473 16.9695 16.1362 17.2806 15.7824 17.5376 14.6872 18.3333 13.1248 18.3333 10 18.3333 6.8752 18.3333 5.3128 18.3333 4.2176 17.5376 3.8638 17.2806 3.5528 16.9695 3.2958 16.6158 2.5 15.5205 2.5 13.9581 2.5 10.8333V9.882Z" stroke="currentColor" stroke-width="2"/>
  <path d="M5.8333 12.0833C5.8333 13.4582 5.8333 14.1458 6.1994 14.5728 6.5656 15 7.1548 15 8.3333 15H11.6667C12.8452 15 13.4344 15 13.8006 14.5728 14.1667 14.1458 14.1667 13.4582 14.1667 12.0833M5.8333 12.0833C5.8333 10.7084 5.8333 10.0209 6.1994 9.5938 6.5656 9.1667 7.1548 9.1667 8.3333 9.1667H11.6667C12.8452 9.1667 13.4344 9.1667 13.8006 9.5938 14.1667 10.0209 14.1667 10.7084 14.1667 12.0833M5.8333 12.0833H7.5M14.1667 12.0833H12.5" stroke="currentColor" stroke-linecap="round" stroke-linejoin="round" stroke-width="2"/>
</svg>
