<svg xmlns="http://www.w3.org/2000/svg" width="20" height="20" viewBox="0 0 20 20" fill="none">
  <path d="M8.3333 5.8333H10M11.6667 5.8333H10M11.6667 14.1667H10M8.3333 14.1667H10M10 5.8333V14.1667" stroke="currentColor" stroke-linecap="round" stroke-linejoin="round" stroke-width="2"/>
  <path d="M18.3333 5.8333V14.1667L14.1667 5.8333V14.1667" stroke="currentColor" stroke-linecap="round" stroke-linejoin="round" stroke-width="2"/>
  <path d="M5.5747 7.1797C5.2198 6.377 4.5357 5.8333 3.75 5.8333H3.3333C2.4129 5.8333 1.6667 6.7661 1.6667 7.9167 1.6667 9.0672 2.4129 10 3.3333 10H4.1667C5.0871 10 5.8333 10.9328 5.8333 12.0833 5.8333 13.2339 5.0871 14.1667 4.1667 14.1667H3.75C2.8957 14.1667 2.1615 13.5239 1.84 12.6042" stroke="currentColor" stroke-linecap="round" stroke-width="2"/>
</svg>
