<svg xmlns="http://www.w3.org/2000/svg" width="20" height="20" viewBox="0 0 20 20" fill="none">
  <path d="M4.1679 11.6667C4.1682 9.8148 4.013 3.3333 7.0848 3.3333 8.6952 3.3333 10.0006 6.3181 10.0006 10 10.0006 13.6819 11.306 16.6667 12.9163 16.6667 15.9882 16.6667 15.8333 10.1852 15.8333 8.3333" stroke="currentColor" stroke-linecap="round" stroke-width="2"/>
  <path d="M1.6667 10H4.1667" stroke="currentColor" stroke-linecap="round" stroke-linejoin="round" stroke-width="2"/>
  <path d="M15.8333 10H18.3333" stroke="currentColor" stroke-linecap="round" stroke-linejoin="round" stroke-width="2"/>
  <path d="M6.6667 10H13.3333" stroke="currentColor" stroke-linecap="round" stroke-linejoin="round" stroke-width="2"/>
  <path d="M17.4288 2.3611C17.2573 1.9565 16.7942 1.6667 16.25 1.6667 15.5597 1.6667 15 2.133 15 2.7083 15 3.2836 15.5597 3.75 16.25 3.75 16.9403 3.75 17.5 4.2164 17.5 4.7917 17.5 5.367 16.9403 5.8333 16.25 5.8333 15.7058 5.8333 15.2428 5.5435 15.0712 5.1389" stroke="currentColor" stroke-linecap="round" stroke-width="2"/>
  <path d="M4.6199 14.1667C3.9094 14.1667 3.3333 14.7263 3.3333 15.4167V17.0833C3.3333 17.7737 3.9094 18.3333 4.6199 18.3333M4.6199 14.1667C5.1801 14.1667 5.6567 14.5145 5.8333 15M4.6199 14.1667C4.0597 14.1667 3.5832 14.5145 3.4065 15M4.6199 18.3333C4.0597 18.3333 3.5832 17.9855 3.4065 17.5M4.6199 18.3333C5.1801 18.3333 5.6567 17.9855 5.8333 17.5" stroke="currentColor" stroke-linecap="round" stroke-width="2"/>
</svg>
