<svg xmlns="http://www.w3.org/2000/svg" width="20" height="20" viewBox="0 0 20 20" fill="none">
  <path d="M10 11.6667C12.6724 11.6667 14.9286 9.8988 15.6445 7.478 15.8371 6.8267 15.9334 6.501 15.6814 6.1672 15.4293 5.8333 15.0199 5.8333 14.2011 5.8333H5.7989C4.9801 5.8333 4.5707 5.8333 4.3186 6.1672 4.0666 6.501 4.1629 6.8267 4.3555 7.478 5.0714 9.8988 7.3276 11.6667 10 11.6667Z" stroke="currentColor" stroke-width="2"/>
  <path d="M10.8333 5.8333V2.9167C10.8333 2.2263 11.393 1.6667 12.0833 1.6667 12.7737 1.6667 13.3333 2.2263 13.3333 2.9167V3.3333" stroke="currentColor" stroke-linecap="round" stroke-linejoin="round" stroke-width="2"/>
  <path d="M8.3333 5.8333V5C8.3333 4.2143 8.3333 3.8215 8.0893 3.5774 7.8452 3.3333 7.4523 3.3333 6.6667 3.3333" stroke="currentColor" stroke-linecap="round" stroke-linejoin="round" stroke-width="2"/>
  <path d="M12.0833 11.6667L11.6667 18.3333M7.9167 11.6667L8.3333 18.3333" stroke="currentColor" stroke-linecap="round" stroke-linejoin="round" stroke-width="2"/>
  <path d="M6.6667 18.3333H13.3333" stroke="currentColor" stroke-linecap="round" stroke-linejoin="round" stroke-width="2"/>
</svg>
