<svg xmlns="http://www.w3.org/2000/svg" width="20" height="20" viewBox="0 0 20 20" fill="none">
  <path d="M9.1667 10H10.8333C11.7538 10 12.5 10.7462 12.5 11.6667V12.5C12.5 13.4205 11.7538 14.1667 10.8333 14.1667H9.1667C8.2462 14.1667 7.5 13.4205 7.5 12.5V11.6667C7.5 10.7462 8.2462 10 9.1667 10Z" stroke="currentColor" stroke-linecap="round" stroke-linejoin="round" stroke-width="2"/>
  <path d="M7.5 12.0833V7.5C7.5 6.5795 8.2462 5.8333 9.1667 5.8333H10.8333C11.7538 5.8333 12.5 6.5795 12.5 7.5" stroke="currentColor" stroke-linecap="round" stroke-linejoin="round" stroke-width="2"/>
  <path d="M18.3333 10C18.3333 14.6023 14.6023 18.3333 10 18.3333 5.3976 18.3333 1.6667 14.6023 1.6667 10 1.6667 5.3976 5.3976 1.6667 10 1.6667 14.6023 1.6667 18.3333 5.3976 18.3333 10Z" stroke="currentColor" stroke-linecap="round" stroke-linejoin="round" stroke-width="2"/>
</svg>
