<svg xmlns="http://www.w3.org/2000/svg" width="20" height="20" viewBox="0 0 20 20" fill="none">
  <path d="M16.6653 3.75C16.6653 4.4403 16.1059 5 15.416 5 14.726 5 14.1667 4.4403 14.1667 3.75 14.1667 3.0596 14.726 2.5 15.416 2.5 16.1059 2.5 16.6653 3.0596 16.6653 3.75Z" stroke="currentColor" stroke-width="2"/>
  <path d="M10.3989 6.516L11.2948 5.7097C11.7496 5.3004 12.4339 5.2805 12.9118 5.6628L14.1667 6.6667M10.3989 6.516L12.75 8.0833 14.1667 6.6667M10.3989 6.516L5 2.9167M10.4167 10.4167L9.2557 9.6427C8.6941 9.2683 8.5489 8.539 8.8589 7.9893M10.4167 10.4167L12.384 11.8219C12.8493 12.1543 12.8493 12.8458 12.384 13.1781L10.4167 14.5833M10.4167 10.4167L11.25 9.5833M14.1667 6.6667L14.5833 9.3056 17.5 11.25" stroke="currentColor" stroke-linecap="round" stroke-linejoin="round" stroke-width="2"/>
  <path d="M2.5 10L14.1667 17.5 16.25 17.0833" stroke="currentColor" stroke-linecap="round" stroke-linejoin="round" stroke-width="2"/>
</svg>
