<svg xmlns="http://www.w3.org/2000/svg" width="20" height="20" viewBox="0 0 20 20" fill="none">
  <path d="M6.6618 4.5981C6.6618 6.2071 8.1564 7.5116 10 7.5116 11.8437 7.5116 13.3382 6.2071 13.3382 4.5981 13.3382 2.989 11.8437 1.6846 10 1.6846 8.1564 1.6846 6.6618 2.989 6.6618 4.5981Z" stroke="currentColor" stroke-width="2"/>
  <path d="M3.7586 10.0001C3.0534 10.0143 2.3869 10.1731 2.1634 10.3589 1.9063 10.7472 2.4908 11.6126 2.5805 11.9768L2.2861 14.3622 2.0865 16.4563C1.9655 18.6803 5.3143 19.2255 5.4098 16.4563L4.8994 12.0226C5.1213 11.3585 5.6574 10.4798 5.2654 10.2745 4.8617 10.063 4.2988 9.9891 3.7586 10.0001ZM3.7586 10.0001C3.7187 9.002 3.6615 6.9164 3.9864 6.2566" stroke="currentColor" stroke-linecap="round" stroke-linejoin="round" stroke-width="2"/>
  <path d="M16.2414 10C16.9466 10.0143 17.6131 10.173 17.8367 10.3588 18.0938 10.7472 17.5092 11.6125 17.4195 11.9768L17.7139 14.3621 17.9135 16.4563C18.0345 18.6803 14.6857 19.2254 14.5902 16.4563L15.1006 12.0225C14.8787 11.3584 14.3426 10.4798 14.7346 10.2744 15.1383 10.0629 15.7012 9.9891 16.2414 10ZM16.2414 10C16.2743 9.1783 16.3233 7.7262 16.1546 6.7827 16.0907 6.4249 15.983 6.0754 15.8622 5.7326 14.6077 2.1738 9.0095-0.5115 5.0092 4.1573" stroke="currentColor" stroke-linecap="round" stroke-linejoin="round" stroke-width="2"/>
</svg>
