<svg xmlns="http://www.w3.org/2000/svg" width="20" height="20" viewBox="0 0 20 20" fill="none">
  <path d="M12.5 2.5H10V16.6667H12.5V12.0833H13.2553C13.5603 12.0833 13.8408 12.2499 13.9869 12.5176L16.0131 16.2324C16.1592 16.5001 16.4398 16.6667 16.7447 16.6667H19.1667L15.8333 10.8333 19.1667 6.6667H16.6667C16.4043 6.6667 16.1574 6.7902 16 7L14 9.6667C13.8426 9.8765 13.5957 10 13.3333 10H12.5V2.5Z" stroke="currentColor" stroke-linejoin="round" stroke-width="2"/>
  <path d="M3.7505 9.1671C4.088 7.9544 6.3894 8.7504 7.0839 9.1671L8.3338 7.9167C8.3338 7.9167 7.28 6.6667 5.0007 6.6667 3.2789 6.6667 1.128 7.0158 1.128 9.9325 1.128 12.8492 6.4235 12.2453 5.5909 14.1648 5.1127 15.2675 2.6313 14.2578 1.798 13.7023L0.8333 15.5987C1.5278 16.0154 3.2507 16.6667 4.584 16.6667 6.0766 16.6667 8.3338 15.7607 8.3338 13.101 8.3338 10.4413 3.3251 10.6957 3.7505 9.1671Z" stroke="currentColor" stroke-linecap="round" stroke-linejoin="round" stroke-width="2"/>
</svg>
