<svg xmlns="http://www.w3.org/2000/svg" width="20" height="20" viewBox="0 0 20 20" fill="none">
  <path d="M10 2.5C5.8579 2.5 2.5 5.4848 2.5 9.1667 2.5 11.1418 3.4663 12.9162 5.0015 14.137 5.1496 14.2547 5.2236 14.3136 5.2427 14.3297 5.6602 14.6828 5.8161 15.0059 5.8326 15.5524 5.8333 15.5774 5.8333 15.6256 5.8333 15.7218 5.8333 15.8253 5.8333 15.8772 5.8356 15.9208 5.8804 16.7725 6.5608 17.4529 7.4125 17.4977 7.4562 17.5 7.508 17.5 7.6115 17.5H12.3885C12.492 17.5 12.5438 17.5 12.5875 17.4977 13.4392 17.4529 14.1196 16.7725 14.1643 15.9208 14.1667 15.8772 14.1667 15.8253 14.1667 15.7218 14.1667 15.6256 14.1667 15.5774 14.1674 15.5524 14.1838 15.0059 14.3398 14.6828 14.7573 14.3297 14.7764 14.3136 14.8504 14.2547 14.9985 14.137 16.5338 12.9162 17.5 11.1418 17.5 9.1667 17.5 5.4848 14.1422 2.5 10 2.5Z" stroke="currentColor" stroke-linecap="round" stroke-linejoin="round" stroke-width="2"/>
  <path d="M8.3333 17.5V15.8333" stroke="currentColor" stroke-linecap="round" stroke-linejoin="round" stroke-width="2"/>
  <path d="M11.6667 17.5V15.8333" stroke="currentColor" stroke-linecap="round" stroke-linejoin="round" stroke-width="2"/>
  <path d="M6.6667 9.1667V8.75M7.5 9.1667C7.5 9.6269 7.1269 10 6.6667 10 6.2064 10 5.8333 9.6269 5.8333 9.1667 5.8333 8.7064 6.2064 8.3333 6.6667 8.3333 7.1269 8.3333 7.5 8.7064 7.5 9.1667Z" stroke="currentColor" stroke-linecap="round" stroke-linejoin="round" stroke-width="2"/>
  <path d="M13.3333 9.1667V8.75M14.1667 9.1667C14.1667 9.6269 13.7936 10 13.3333 10 12.8731 10 12.5 9.6269 12.5 9.1667 12.5 8.7064 12.8731 8.3333 13.3333 8.3333 13.7936 8.3333 14.1667 8.7064 14.1667 9.1667Z" stroke="currentColor" stroke-linecap="round" stroke-linejoin="round" stroke-width="2"/>
  <path d="M10.4167 12.5L10 11.6667 9.5833 12.5H10.4167Z" stroke="currentColor" stroke-linecap="round" stroke-linejoin="round" stroke-width="2"/>
</svg>
