<svg xmlns="http://www.w3.org/2000/svg" width="20" height="20" viewBox="0 0 20 20" fill="none">
  <path d="M12.5 8.3333C12.5 7.4129 11.3808 6.6667 10 6.6667 8.6193 6.6667 7.5 7.4129 7.5 8.3333 7.5 9.2538 8.6193 10 10 10 11.3808 10 12.5 10.7462 12.5 11.6667 12.5 12.5872 11.3808 13.3333 10 13.3333 8.6193 13.3333 7.5 12.5872 7.5 11.6667" stroke="currentColor" stroke-linecap="round" stroke-width="2"/>
  <path d="M15 16.6667C16.8409 16.6667 18.3333 15.1743 18.3333 13.3333 18.3333 12.4673 18.0031 11.6785 17.4617 11.0858 16.8993 10.4702 16.7135 10.2173 16.6396 9.3978 16.5043 7.8976 15.8625 6.4344 14.7141 5.286 12.8979 3.4698 10.2946 2.9206 8.0023 3.6383 7.2165 3.8843 6.9102 3.8093 6.1244 3.5277 5.7731 3.4019 5.3946 3.3333 5 3.3333 3.1591 3.3333 1.6667 4.8257 1.6667 6.6667 1.6667 7.5327 1.9969 8.3215 2.5383 8.9142 3.1007 9.5298 3.2865 9.7827 3.3604 10.6022 3.4957 12.1024 4.1375 13.5656 5.286 14.7141 7.1021 16.5303 9.7054 17.0794 11.9977 16.3618 12.7836 16.1157 13.0898 16.1908 13.8756 16.4723 14.2268 16.5981 14.6054 16.6667 15 16.6667Z" stroke="currentColor" stroke-width="2"/>
</svg>
