<svg xmlns="http://www.w3.org/2000/svg" width="20" height="20" viewBox="0 0 20 20" fill="none">
  <path d="M10.8333 7.7083V3.125C10.8333 2.3196 11.4863 1.6667 12.2917 1.6667 13.0971 1.6667 13.75 2.3196 13.75 3.125V7.7083C13.75 8.5137 13.0971 9.1667 12.2917 9.1667 11.4863 9.1667 10.8333 8.5137 10.8333 7.7083Z" stroke="currentColor" stroke-linecap="round" stroke-linejoin="round" stroke-width="2"/>
  <path d="M6.25 16.875V12.2917C6.25 11.4863 6.9029 10.8333 7.7083 10.8333 8.5137 10.8333 9.1667 11.4863 9.1667 12.2917V16.875C9.1667 17.6804 8.5137 18.3333 7.7083 18.3333 6.9029 18.3333 6.25 17.6804 6.25 16.875Z" stroke="currentColor" stroke-linecap="round" stroke-linejoin="round" stroke-width="2"/>
  <path d="M12.2917 10.8333L16.875 10.8333C17.6804 10.8333 18.3333 11.4863 18.3333 12.2917 18.3333 13.0971 17.6804 13.75 16.875 13.75L12.2917 13.75C11.4863 13.75 10.8333 13.0971 10.8333 12.2917 10.8333 11.4863 11.4863 10.8333 12.2917 10.8333Z" stroke="currentColor" stroke-linecap="round" stroke-linejoin="round" stroke-width="2"/>
  <path d="M3.125 6.25L7.7083 6.25C8.5137 6.25 9.1667 6.9029 9.1667 7.7083 9.1667 8.5137 8.5137 9.1667 7.7083 9.1667L3.125 9.1667C2.3196 9.1667 1.6667 8.5137 1.6667 7.7083 1.6667 6.9029 2.3196 6.25 3.125 6.25Z" stroke="currentColor" stroke-linecap="round" stroke-linejoin="round" stroke-width="2"/>
  <path d="M5.8333 3.125C5.8333 3.9304 6.4863 4.5833 7.2917 4.5833H8.75V3.125C8.75 2.3196 8.0971 1.6667 7.2917 1.6667 6.4863 1.6667 5.8333 2.3196 5.8333 3.125Z" stroke="currentColor" stroke-linejoin="round" stroke-width="2"/>
  <path d="M14.1667 16.875C14.1667 16.0696 13.5137 15.4167 12.7083 15.4167H11.25V16.875C11.25 17.6804 11.9029 18.3333 12.7083 18.3333 13.5137 18.3333 14.1667 17.6804 14.1667 16.875Z" stroke="currentColor" stroke-linejoin="round" stroke-width="2"/>
  <path d="M16.875 5.8333C16.0696 5.8333 15.4167 6.4863 15.4167 7.2917L15.4167 8.75H16.875C17.6804 8.75 18.3333 8.0971 18.3333 7.2917 18.3333 6.4863 17.6804 5.8333 16.875 5.8333Z" stroke="currentColor" stroke-linejoin="round" stroke-width="2"/>
  <path d="M3.125 14.1667C3.9304 14.1667 4.5833 13.5137 4.5833 12.7083V11.25L3.125 11.25C2.3196 11.25 1.6667 11.9029 1.6667 12.7083 1.6667 13.5137 2.3196 14.1667 3.125 14.1667Z" stroke="currentColor" stroke-linejoin="round" stroke-width="2"/>
</svg>
