<svg xmlns="http://www.w3.org/2000/svg" width="20" height="20" viewBox="0 0 20 20" fill="none">
  <path d="M10.8333 1.7078C10.5593 1.6806 10.2813 1.6667 10 1.6667 5.3976 1.6667 1.6667 5.3976 1.6667 10 1.6667 14.6023 5.3976 18.3333 10 18.3333 14.6023 18.3333 18.3333 14.6023 18.3333 10 18.3333 9.4292 18.2759 8.8718 18.1667 8.3333" stroke="currentColor" stroke-linecap="round" stroke-linejoin="round" stroke-width="2"/>
  <path d="M8.3333 9.1667H7.2559C6.8786 9.1667 6.5168 9.0168 6.25 8.75M11.6667 9.1667H12.7441C13.1213 9.1667 13.4832 9.0168 13.75 8.75" stroke="currentColor" stroke-linecap="round" stroke-linejoin="round" stroke-width="2"/>
  <circle cx="10" cy="13.333333333333334" r="1.6666666666666667" stroke="currentColor" stroke-linecap="round" stroke-linejoin="round" stroke-width="2"/>
  <path d="M14.1667 1.6667H16.6228C17.1396 1.6667 17.3979 1.6667 17.4668 1.8334 17.5356 2.0002 17.3598 2.2002 17.0082 2.6002L14.9872 4.8998C14.6356 5.2998 14.4598 5.4998 14.5286 5.6666 14.5974 5.8333 14.8557 5.8333 15.3725 5.8333H17.5" stroke="currentColor" stroke-linecap="round" stroke-linejoin="round" stroke-width="2"/>
</svg>
