<svg xmlns="http://www.w3.org/2000/svg" width="20" height="20" viewBox="0 0 20 20" fill="none">
  <path d="M10 6.0962C11.3808 6.0962 12.5 4.3354 12.5 1.6667 13.4187 2.0218 14.5485 2.0033 14.5045 3.1367 14.4608 4.2604 14.8262 5.6893 15.9728 6.7642 16.4908 7.2499 16.6667 7.4712 16.6667 8.1663V13.7472C16.6667 15.6455 16.6667 16.5946 16.0565 17.1843 14.3264 18.8563 5.377 18.5697 3.9435 17.1843 3.3333 16.5946 3.3333 15.6455 3.3333 13.7472V8.1663C3.3333 7.4712 3.5092 7.2499 4.0273 6.7642 5.1738 5.6893 5.5392 4.2604 5.4955 3.1367 5.4515 2.0033 6.5813 2.0218 7.5 1.6667 7.5 4.3354 8.6193 6.0962 10 6.0962Z" stroke="currentColor" stroke-linecap="round" stroke-linejoin="round" stroke-width="2"/>
  <path d="M12.5 1.6667C11.8338 2.1853 10.9585 2.5 10 2.5 9.0415 2.5 8.1663 2.1853 7.5 1.6667" stroke="currentColor" stroke-width="2"/>
</svg>
