<svg xmlns="http://www.w3.org/2000/svg" width="20" height="20" viewBox="0 0 20 20" fill="none">
  <path d="M18.3333 9.1974C17.6592 9.8827 16.1884 10.9053 14.2217 11.6993M14.2217 11.6993C13.7713 11.8812 13.2928 12.0497 12.7889 12.1973 12.1613 12.4168 10.8583 13.174 10.9063 14.8448L10.8518 17.4694C10.8517 17.7578 11.1978 18.2173 11.8612 18.3117 12.6793 18.4281 13.8903 18.0803 14.4461 17.3705 15.2755 16.3113 15.2315 13.8141 14.2217 11.6993ZM1.6667 9.1711C2.3408 9.8563 3.7719 10.9053 5.7386 11.6993M5.7386 11.6993C6.1889 11.8812 6.6674 12.0497 7.1713 12.1973 8.2933 12.5262 9.1132 13.4971 9.1581 14.7468 9.203 15.9965 9.2591 16.7097 9.054 17.0452 8.8488 17.3807 8.3668 17.5198 7.828 17.5485 7.2892 17.5773 6.1444 17.2852 5.5887 16.5755 4.7593 15.5162 4.7288 13.8141 5.7386 11.6993ZM8.3129 8.7496C8.3129 9.4399 7.7513 9.9996 7.0585 9.9996 6.3656 9.9996 5.804 9.4399 5.804 8.7496 5.804 8.0592 6.3656 7.4996 7.0585 7.4996 7.7513 7.4996 8.3129 8.0592 8.3129 8.7496ZM14.167 8.7496C14.167 9.4399 13.6054 9.9996 12.9126 9.9996 12.2198 9.9996 11.6581 9.4399 11.6581 8.7496 11.6581 8.0592 12.2198 7.4996 12.9126 7.4996 13.6054 7.4996 14.167 8.0592 14.167 8.7496Z" stroke="currentColor" stroke-linecap="round" stroke-linejoin="round" stroke-width="2"/>
  <path d="M16.6744 7.4996C16.6668 4.9043 16.5845 3.5285 15.6954 2.6426 14.7156 1.6663 13.1387 1.6663 9.9848 1.6663 6.8309 1.6663 5.2539 1.6663 4.2741 2.6426 3.3851 3.5285 3.3028 4.9043 3.2951 7.4996" stroke="currentColor" stroke-linecap="round" stroke-linejoin="round" stroke-width="2"/>
</svg>
