<svg xmlns="http://www.w3.org/2000/svg" width="20" height="20" viewBox="0 0 20 20" fill="none">
  <path d="M3.75 10C3.75 7.2604 3.75 5.8907 4.5066 4.9687 4.6452 4.7999 4.7999 4.6452 4.9687 4.5066 5.8907 3.75 7.2604 3.75 10 3.75 12.7396 3.75 14.1093 3.75 15.0313 4.5066 15.2001 4.6452 15.3548 4.7999 15.4933 4.9687 16.25 5.8907 16.25 7.2604 16.25 10 16.25 12.7396 16.25 14.1093 15.4933 15.0313 15.3548 15.2001 15.2001 15.3548 15.0313 15.4933 14.1093 16.25 12.7396 16.25 10 16.25 7.2604 16.25 5.8907 16.25 4.9687 15.4933 4.7999 15.3548 4.6452 15.2001 4.5066 15.0313 3.75 14.1093 3.75 12.7396 3.75 10Z" stroke="currentColor" stroke-width="2"/>
  <path d="M7.5 18.3333H12.5" stroke="currentColor" stroke-linecap="round" stroke-width="2"/>
  <path d="M7.5 1.6667H12.5" stroke="currentColor" stroke-linecap="round" stroke-width="2"/>
  <path d="M8.3333 8.3333L10.8333 10.8333M12.5 7.5L9.1667 10.8333" stroke="currentColor" stroke-linecap="round" stroke-linejoin="round" stroke-width="2"/>
</svg>
