<svg xmlns="http://www.w3.org/2000/svg" width="20" height="20" viewBox="0 0 20 20" fill="none">
  <path d="M6.6667 5C5.3106 5.0248 4.5315 5.1402 4.0046 5.677 3.3333 6.3607 3.3333 7.4613 3.3333 9.6623V13.6642C3.3333 15.8653 3.3333 16.9658 4.0046 17.6496 4.6758 18.3333 5.7561 18.3333 7.9167 18.3333 10.0773 18.3333 11.1576 18.3333 11.8287 17.6496 12.5 16.9658 12.5 15.8653 12.5 13.6642V11.2465" stroke="currentColor" stroke-linecap="round" stroke-linejoin="round" stroke-width="2"/>
  <path d="M10.4167 5.7206C11.0088 5.2484 11.7441 4.992 12.5015 4.9935 13.2588 4.995 13.9931 5.2544 14.5833 5.7289M12.5 8.3333H12.5083M8.3333 3.1292C9.5158 2.1825 10.9853 1.6667 12.5 1.6667" stroke="currentColor" stroke-linecap="round" stroke-linejoin="round" stroke-width="2"/>
  <path d="M15 1.6667L16.6667 3.3333M16.6667 1.6667L15 3.3333" stroke="currentColor" stroke-linecap="round" stroke-linejoin="round" stroke-width="2"/>
  <path d="M7.5 15.8333H8.3333" stroke="currentColor" stroke-linecap="round" stroke-linejoin="round" stroke-width="2"/>
</svg>
