<svg xmlns="http://www.w3.org/2000/svg" width="20" height="20" viewBox="0 0 20 20" fill="none">
  <path d="M15.8736 13.7435C16.8784 12.7838 17.5 11.4579 17.5 9.9935 17.5 8.529 16.8784 7.2032 15.8736 6.2435M14.1667 8.1185C14.6691 8.5983 14.9799 9.2613 14.9799 9.9935 14.9799 10.7258 14.6691 11.3887 14.1667 11.8685" stroke="currentColor" stroke-linecap="round" stroke-linejoin="round" stroke-width="2"/>
  <path d="M13.3333 5.8333C13.3333 3.8691 13.3333 2.8871 12.7232 2.2769 12.1129 1.6667 11.1308 1.6667 9.1667 1.6667H6.6667C4.7025 1.6667 3.7204 1.6667 3.1102 2.2769 2.5 2.8871 2.5 3.8691 2.5 5.8333V14.1667C2.5 16.1308 2.5 17.1129 3.1102 17.7232 3.7204 18.3333 4.7025 18.3333 6.6667 18.3333H9.1667C11.1308 18.3333 12.1129 18.3333 12.7232 17.7232 13.3333 17.1129 13.3333 16.1308 13.3333 14.1667" stroke="currentColor" stroke-linecap="round" stroke-linejoin="round" stroke-width="2"/>
  <path d="M9.5833 1.6667H6.25L6.6667 2.5H9.1667L9.5833 1.6667Z" stroke="currentColor" stroke-linecap="round" stroke-linejoin="round" stroke-width="2"/>
</svg>
