<svg xmlns="http://www.w3.org/2000/svg" width="20" height="20" viewBox="0 0 20 20" fill="none">
  <path d="M13.3333 2.5C15.2824 2.5 16.2569 2.5 16.9684 2.9471 17.3394 3.1802 17.6532 3.4939 17.8863 3.8649 18.3333 4.5764 18.3333 5.5509 18.3333 7.5 18.3333 9.4491 18.3333 10.4236 17.8863 11.1351 17.6532 11.5061 17.3394 11.8198 16.9684 12.0529 16.2569 12.5 15.2824 12.5 13.3333 12.5L6.6667 12.5C4.7176 12.5 3.7431 12.5 3.0316 12.0529 2.6606 11.8198 2.3468 11.5061 2.1137 11.1351 1.6667 10.4236 1.6667 9.4491 1.6667 7.5 1.6667 5.5509 1.6667 4.5764 2.1137 3.8649 2.3468 3.4939 2.6606 3.1802 3.0316 2.9471 3.7431 2.5 4.7176 2.5 6.6667 2.5L13.3333 2.5Z" stroke="currentColor" stroke-linecap="round" stroke-width="2"/>
  <path d="M5.8333 10H14.1667" stroke="currentColor" stroke-linecap="round" stroke-width="2"/>
  <path d="M5 17.5C5.9205 17.5 6.6667 16.7538 6.6667 15.8333V15" stroke="currentColor" stroke-linecap="round" stroke-linejoin="round" stroke-width="2"/>
  <path d="M15 17.5C14.0795 17.5 13.3333 16.7538 13.3333 15.8333V15" stroke="currentColor" stroke-linecap="round" stroke-linejoin="round" stroke-width="2"/>
  <path d="M10 15V17.5" stroke="currentColor" stroke-linecap="round" stroke-linejoin="round" stroke-width="2"/>
  <path d="M15.1042 5.8333H15M15.2083 5.8333C15.2083 5.9484 15.1151 6.0417 15 6.0417 14.8849 6.0417 14.7917 5.9484 14.7917 5.8333 14.7917 5.7183 14.8849 5.625 15 5.625 15.1151 5.625 15.2083 5.7183 15.2083 5.8333Z" stroke="currentColor" stroke-linecap="round" stroke-linejoin="round" stroke-width="2"/>
</svg>
