<svg xmlns="http://www.w3.org/2000/svg" width="20" height="20" viewBox="0 0 20 20" fill="none">
  <path d="M7.5 12.0833V7.9167C7.5 6.7463 7.5 6.1611 7.2191 5.7407 7.0975 5.5587 6.9413 5.4025 6.7593 5.2809 6.3389 5 5.7537 5 4.5833 5 3.4129 5 2.8278 5 2.4074 5.2809 2.2254 5.4025 2.0692 5.5587 1.9476 5.7407 1.6667 6.1611 1.6667 6.7463 1.6667 7.9167V12.0833C1.6667 13.2538 1.6667 13.8389 1.9476 14.2593 2.0692 14.4413 2.2254 14.5975 2.4074 14.7191 2.8278 15 3.4129 15 4.5833 15 5.7537 15 6.3389 15 6.7593 14.7191 6.9413 14.5975 7.0975 14.4413 7.2191 14.2593 7.5 13.8389 7.5 13.2538 7.5 12.0833Z" stroke="currentColor" stroke-linecap="round" stroke-linejoin="round" stroke-width="2"/>
  <path d="M16.6667 4.1667C17.663 5.3311 18.3333 7.5074 18.3333 10 18.3333 12.4927 17.663 14.6689 16.6667 15.8333" stroke="currentColor" stroke-linecap="round" stroke-linejoin="round" stroke-width="2"/>
  <path d="M13.75 5.8333C14.4972 6.665 15 8.2195 15 10 15 11.7804 14.4972 13.335 13.75 14.1667" stroke="currentColor" stroke-linecap="round" stroke-linejoin="round" stroke-width="2"/>
  <path d="M10.8333 7.5C11.3315 7.999 11.6667 8.9318 11.6667 10 11.6667 11.0683 11.3315 12.001 10.8333 12.5" stroke="currentColor" stroke-linecap="round" stroke-linejoin="round" stroke-width="2"/>
</svg>
