<svg xmlns="http://www.w3.org/2000/svg" width="20" height="20" viewBox="0 0 20 20" fill="none">
  <path d="M11.25 1.6667H8.75C6.7858 1.6667 5.8037 1.6667 5.1935 2.2769 4.5833 2.8871 4.5833 3.8691 4.5833 5.8333V14.1667C4.5833 16.1308 4.5833 17.1129 5.1935 17.7232 5.8037 18.3333 6.7858 18.3333 8.75 18.3333H11.25C13.2142 18.3333 14.1962 18.3333 14.8065 17.7232 15.4167 17.1129 15.4167 16.1308 15.4167 14.1667V5.8333C15.4167 3.8691 15.4167 2.8871 14.8065 2.2769 14.1962 1.6667 13.2142 1.6667 11.25 1.6667Z" stroke="currentColor" stroke-linecap="round" stroke-linejoin="round" stroke-width="2"/>
  <path d="M11.6667 1.6667H8.3333L8.5197 2.0393C8.6608 2.3217 8.9494 2.5 9.265 2.5H10.735C11.0506 2.5 11.3392 2.3217 11.4803 2.0393L11.6667 1.6667Z" stroke="currentColor" stroke-linecap="round" stroke-linejoin="round" stroke-width="2"/>
  <path d="M10.4201 6.6667L8.9078 8.6667C8.4679 9.2484 8.2479 9.5393 8.3641 9.7697 8.4802 10 8.8468 10 9.5799 10H10.4201C11.1533 10 11.5198 10 11.6359 10.2303 11.7521 10.4607 11.5321 10.7516 11.0922 11.3333L9.5799 13.3333" stroke="currentColor" stroke-linecap="round" stroke-linejoin="round" stroke-width="2"/>
</svg>
