<svg xmlns="http://www.w3.org/2000/svg" width="20" height="20" viewBox="0 0 20 20" fill="none">
  <path d="M1.6668 8.75L1.6668 11.25C1.6668 13.2142 1.6668 14.1962 2.277 14.8065 2.8872 15.4167 3.8693 15.4167 5.8335 15.4167H14.1668C16.131 15.4167 17.1131 15.4167 17.7233 14.8065 18.3335 14.1962 18.3335 13.2142 18.3335 11.25V8.75C18.3335 6.7858 18.3335 5.8037 17.7233 5.1935 17.1131 4.5833 16.131 4.5833 14.1668 4.5833L5.8335 4.5833C3.8693 4.5833 2.8872 4.5833 2.277 5.1935 1.6668 5.8037 1.6668 6.7858 1.6668 8.75Z" stroke="currentColor" stroke-linecap="round" stroke-linejoin="round" stroke-width="2"/>
  <path d="M1.6666 7.9167L1.6666 11.25 2.5 10.8333 2.5 8.3333 1.6666 7.9167Z" stroke="currentColor" stroke-linecap="round" stroke-linejoin="round" stroke-width="2"/>
</svg>
