<svg xmlns="http://www.w3.org/2000/svg" width="20" height="20" viewBox="0 0 20 20" fill="none">
  <path d="M5.8333 9.1667C5.8333 7.5953 5.8333 6.8096 6.3215 6.3215 6.8096 5.8333 7.5953 5.8333 9.1667 5.8333H10.8333C12.4047 5.8333 13.1903 5.8333 13.6785 6.3215 14.1667 6.8096 14.1667 7.5953 14.1667 9.1667V10.8333C14.1667 12.4047 14.1667 13.1903 13.6785 13.6785 13.1903 14.1667 12.4047 14.1667 10.8333 14.1667H9.1667C7.5953 14.1667 6.8096 14.1667 6.3215 13.6785 5.8333 13.1903 5.8333 12.4047 5.8333 10.8333V9.1667Z" stroke="currentColor" stroke-width="2"/>
  <path d="M7.0833 5.8333C7.0833 5.8333 7.6575 4.7173 7.7869 3.3341 7.8569 2.5844 7.892 2.2095 8.1033 1.9973 8.3146 1.7851 8.5692 1.7601 9.0785 1.7103 9.3475 1.6839 9.6553 1.6667 10 1.6667 10.3448 1.6667 10.6525 1.6839 10.9215 1.7103 11.4308 1.7601 11.6854 1.7851 11.8968 1.9973 12.108 2.2095 12.1431 2.5844 12.2132 3.3341 12.3425 4.7173 12.9167 5.8333 12.9167 5.8333" stroke="currentColor" stroke-linecap="round" stroke-linejoin="round" stroke-width="2"/>
  <path d="M12.9167 14.1667C12.9167 14.1667 12.3425 15.2827 12.2132 16.6659 12.1431 17.4157 12.108 17.7905 11.8968 18.0028 11.6854 18.2149 11.4308 18.2399 10.9215 18.2898 10.6525 18.3161 10.3448 18.3333 10 18.3333 9.6553 18.3333 9.3475 18.3161 9.0785 18.2898 8.5692 18.2399 8.3146 18.2149 8.1033 18.0028 7.892 17.7905 7.8569 17.4157 7.7869 16.6659 7.6575 15.2827 7.0833 14.1667 7.0833 14.1667" stroke="currentColor" stroke-linecap="round" stroke-linejoin="round" stroke-width="2"/>
</svg>
