<svg xmlns="http://www.w3.org/2000/svg" width="20" height="20" viewBox="0 0 20 20" fill="none">
  <path d="M3.75 10C3.75 7.2604 3.75 5.8907 4.5066 4.9687 4.6452 4.7999 4.7999 4.6452 4.9687 4.5066 5.8907 3.75 7.2604 3.75 10 3.75 12.7396 3.75 14.1093 3.75 15.0313 4.5066 15.2001 4.6452 15.3548 4.7999 15.4933 4.9687 16.25 5.8907 16.25 7.2604 16.25 10 16.25 12.7396 16.25 14.1093 15.4933 15.0313 15.3548 15.2001 15.2001 15.3548 15.0313 15.4933 14.1093 16.25 12.7396 16.25 10 16.25 7.2604 16.25 5.8907 16.25 4.9687 15.4933 4.7999 15.3548 4.6452 15.2001 4.5066 15.0313 3.75 14.1093 3.75 12.7396 3.75 10Z" stroke="currentColor" stroke-width="2"/>
  <path d="M7.5 18.3333H12.5" stroke="currentColor" stroke-linecap="round" stroke-width="2"/>
  <path d="M7.5 1.6667H12.5" stroke="currentColor" stroke-linecap="round" stroke-width="2"/>
  <path d="M7.8234 7.7761C8.6056 7.3192 9.2882 7.5034 9.6983 7.7967 9.8665 7.9169 9.9505 7.9771 10 7.9771 10.0495 7.9771 10.1335 7.9169 10.3017 7.7967 10.7118 7.5034 11.3944 7.3192 12.1766 7.7761 13.2031 8.3758 13.4353 10.3542 11.0677 12.0232 10.6167 12.3411 10.3912 12.5 10 12.5 9.6088 12.5 9.3833 12.3411 8.9323 12.0232 6.5647 10.3542 6.7969 8.3758 7.8234 7.7761Z" stroke="currentColor" stroke-linecap="round" stroke-width="2"/>
</svg>
