<svg xmlns="http://www.w3.org/2000/svg" width="20" height="20" viewBox="0 0 20 20" fill="none">
  <path d="M4.5833 5C4.5954 3.5779 4.6744 2.7939 5.1916 2.2769 5.802 1.6667 6.7845 1.6667 8.7495 1.6667H11.2505C13.2155 1.6667 14.198 1.6667 14.8084 2.2769 15.3256 2.7939 15.4046 3.5779 15.4167 5M15.4167 15.0001C15.4046 16.4222 15.3256 17.2062 14.8084 17.7232 14.198 18.3333 13.2155 18.3333 11.2505 18.3333H8.7495C6.7845 18.3333 5.802 18.3333 5.1916 17.7232 4.6744 17.2062 4.5954 16.4222 4.5833 15" stroke="currentColor" stroke-linecap="round" stroke-linejoin="round" stroke-width="2"/>
  <path d="M16.25 7.0833C16.25 7.0833 15.4167 7.3717 15.4167 8.1771 15.4167 8.9825 16.25 9.1946 16.25 10 16.25 10.8054 15.4167 11.0175 15.4167 11.8229 15.4167 12.6283 16.25 12.9167 16.25 12.9167" stroke="currentColor" stroke-linecap="round" stroke-linejoin="round" stroke-width="2"/>
  <path d="M3.75 7.0833C3.75 7.0833 4.5833 7.3717 4.5833 8.1771 4.5833 8.9825 3.75 9.1946 3.75 10 3.75 10.8054 4.5833 11.0175 4.5833 11.8229 4.5833 12.6283 3.75 12.9167 3.75 12.9167" stroke="currentColor" stroke-linecap="round" stroke-linejoin="round" stroke-width="2"/>
  <path d="M11.6667 1.6667H8.3333L8.75 2.5H11.25L11.6667 1.6667Z" stroke="currentColor" stroke-linecap="round" stroke-linejoin="round" stroke-width="2"/>
</svg>
