<svg xmlns="http://www.w3.org/2000/svg" width="20" height="20" viewBox="0 0 20 20" fill="none">
  <circle cx="10" cy="10" r="5" stroke="currentColor" stroke-width="2"/>
  <path d="M6.6667 6.25C6.6667 6.25 7.4145 4.9402 7.5516 3.3496 7.6154 2.61 7.6473 2.2402 7.8553 2.0268 8.0633 1.8135 8.3142 1.7855 8.816 1.7294 9.1478 1.6922 9.5425 1.6667 10 1.6667 10.4575 1.6667 10.8522 1.6922 11.184 1.7294 11.6858 1.7855 11.9367 1.8135 12.1447 2.0268 12.3527 2.2402 12.3846 2.61 12.4483 3.3496 12.5856 4.9402 13.3333 6.25 13.3333 6.25" stroke="currentColor" stroke-linecap="round" stroke-linejoin="round" stroke-width="2"/>
  <path d="M13.3333 13.75C13.3333 13.75 12.5856 15.0598 12.4483 16.6503 12.3846 17.39 12.3527 17.7598 12.1447 17.9732 11.9367 18.1865 11.6858 18.2145 11.184 18.2707 10.8522 18.3078 10.4575 18.3333 10 18.3333 9.5425 18.3333 9.1478 18.3078 8.816 18.2707 8.3142 18.2145 8.0633 18.1865 7.8553 17.9732 7.6473 17.7598 7.6154 17.39 7.5516 16.6503 7.4145 15.0598 6.6667 13.75 6.6667 13.75" stroke="currentColor" stroke-linecap="round" stroke-linejoin="round" stroke-width="2"/>
</svg>
