<svg xmlns="http://www.w3.org/2000/svg" width="20" height="20" viewBox="0 0 20 20" fill="none">
  <path d="M17.75 8.75C17.8593 9.2885 17.9167 9.8459 17.9167 10.4167 17.9167 15.019 14.1857 18.75 9.5833 18.75 4.981 18.75 1.25 15.019 1.25 10.4167 1.25 5.8143 4.981 2.0833 9.5833 2.0833 10.1541 2.0833 10.7115 2.1407 11.25 2.25" stroke="currentColor" stroke-linecap="round" stroke-linejoin="round" stroke-width="2"/>
  <path d="M16.245 1.25V6.25M18.75 3.745L13.75 3.745" stroke="currentColor" stroke-linecap="round" stroke-linejoin="round" stroke-width="2"/>
  <path d="M6.25 12.9167C7.0101 13.9287 8.2203 14.5833 9.5833 14.5833 10.9464 14.5833 12.1566 13.9287 12.9167 12.9167" stroke="currentColor" stroke-linecap="round" stroke-linejoin="round" stroke-width="2"/>
  <path d="M12.6042 7.4058V7.8471M6.5625 7.4058V7.8471M6.875 7.7083C6.875 7.3632 6.7351 7.0833 6.5625 7.0833 6.3899 7.0833 6.25 7.3632 6.25 7.7083 6.25 8.0535 6.3899 8.3333 6.5625 8.3333 6.7351 8.3333 6.875 8.0535 6.875 7.7083ZM12.9167 7.7083C12.9167 7.3632 12.7768 7.0833 12.6042 7.0833 12.4316 7.0833 12.2917 7.3632 12.2917 7.7083 12.2917 8.0535 12.4316 8.3333 12.6042 8.3333 12.7768 8.3333 12.9167 8.0535 12.9167 7.7083Z" stroke="currentColor" stroke-linecap="round" stroke-linejoin="round" stroke-width="2"/>
</svg>
