<svg xmlns="http://www.w3.org/2000/svg" width="20" height="20" viewBox="0 0 20 20" fill="none">
  <path d="M14.1568 5.8333C14.1228 4.1541 13.9732 3.1817 13.3124 2.5209 12.4581 1.6667 11.0832 1.6667 8.3333 1.6667 5.5835 1.6667 4.2085 1.6667 3.3543 2.5209 2.5 3.3752 2.5 4.7501 2.5 7.5V12.5C2.5 15.2498 2.5 16.6248 3.3543 17.4791 4.2085 18.3333 5.5835 18.3333 8.3333 18.3333 11.0832 18.3333 12.4581 18.3333 13.3124 17.4791 14.1667 16.6248 14.1667 15.2498 14.1667 12.5L14.1568 10.8333" stroke="currentColor" stroke-linecap="round" stroke-linejoin="round" stroke-width="2"/>
  <path d="M15 5.8333H8.3333C7.5568 5.8333 7.1685 5.8333 6.8622 5.9602 6.4538 6.1294 6.1294 6.4538 5.9602 6.8622 5.8333 7.1685 5.8333 7.5568 5.8333 8.3333 5.8333 9.1099 5.8333 9.4982 5.9602 9.8045 6.1294 10.2128 6.4538 10.5373 6.8622 10.7065 7.1685 10.8333 7.5568 10.8333 8.3333 10.8333V12.5L10.8333 10.8333H15C15.7766 10.8333 16.1648 10.8333 16.4712 10.7065 16.8795 10.5373 17.204 10.2128 17.3732 9.8045 17.5 9.4982 17.5 9.1099 17.5 8.3333 17.5 7.5568 17.5 7.1685 17.3732 6.8622 17.204 6.4538 16.8795 6.1294 16.4712 5.9602 16.1648 5.8333 15.7766 5.8333 15 5.8333Z" stroke="currentColor" stroke-linecap="round" stroke-linejoin="round" stroke-width="2"/>
  <path d="M8.4375 15.8333H8.3333M8.5417 15.8333C8.5417 15.9484 8.4484 16.0417 8.3333 16.0417 8.2183 16.0417 8.125 15.9484 8.125 15.8333 8.125 15.7182 8.2183 15.625 8.3333 15.625 8.4484 15.625 8.5417 15.7182 8.5417 15.8333Z" stroke="currentColor" stroke-linecap="round" stroke-linejoin="round" stroke-width="2"/>
  <path d="M11.7708 8.3333H11.6667M11.875 8.3333C11.875 8.4484 11.7818 8.5417 11.6667 8.5417 11.5516 8.5417 11.4583 8.4484 11.4583 8.3333 11.4583 8.2183 11.5516 8.125 11.6667 8.125 11.7818 8.125 11.875 8.2183 11.875 8.3333Z" stroke="currentColor" stroke-linecap="round" stroke-linejoin="round" stroke-width="2"/>
  <path d="M8.8542 8.3339H8.75M8.9583 8.3339C8.9583 8.449 8.8651 8.5423 8.75 8.5423 8.6349 8.5423 8.5417 8.449 8.5417 8.3339 8.5417 8.2189 8.6349 8.1256 8.75 8.1256 8.8651 8.1256 8.9583 8.2189 8.9583 8.3339Z" stroke="currentColor" stroke-linecap="round" stroke-linejoin="round" stroke-width="2"/>
  <path d="M14.6875 8.3333H14.5833M14.7917 8.3333C14.7917 8.4484 14.6984 8.5417 14.5833 8.5417 14.4682 8.5417 14.375 8.4484 14.375 8.3333 14.375 8.2183 14.4682 8.125 14.5833 8.125 14.6984 8.125 14.7917 8.2183 14.7917 8.3333Z" stroke="currentColor" stroke-linecap="round" stroke-linejoin="round" stroke-width="2"/>
</svg>
