<svg xmlns="http://www.w3.org/2000/svg" width="20" height="20" viewBox="0 0 20 20" fill="none">
  <path d="M5.4796 6.187C5.4796 3.6905 7.5035 1.6667 10 1.6667 12.4965 1.6667 14.5203 3.6905 14.5203 6.187 14.5203 10.1435 14.7176 12.1213 18.3333 13.7037 16.4815 14.1667 16.0185 14.6297 15.5556 16.4815 12.3148 16.4815 11.8518 18.3333 10 18.3333 8.1482 18.3333 7.6852 16.4815 4.4444 16.4815 3.9815 14.6297 3.5185 14.1667 1.6667 13.7037 5.2824 12.1213 5.4796 10.1435 5.4796 6.187Z" stroke="currentColor" stroke-linecap="round" stroke-linejoin="round" stroke-width="2"/>
  <path d="M1.6667 13.3333C4.853 11.5976 4.853 9.9586 2.4632 7.5" stroke="currentColor" stroke-linecap="round" stroke-width="2"/>
  <path d="M18.3333 13.3333C15.147 11.5976 15.147 9.9586 17.5368 7.5" stroke="currentColor" stroke-linecap="round" stroke-width="2"/>
</svg>
