<svg xmlns="http://www.w3.org/2000/svg" width="20" height="20" viewBox="0 0 20 20" fill="none">
  <path d="M17.5 11.875L16.8074 11.3258C16.0192 10.7008 15.625 10.3883 15.625 10 15.625 9.6117 16.0192 9.2992 16.8074 8.6742L17.5 8.125M2.5 8.125L3.1926 8.6742C3.9809 9.2992 4.375 9.6117 4.375 10 4.375 10.3883 3.9809 10.7008 3.1926 11.3258L2.5 11.875" stroke="currentColor" stroke-linecap="round" stroke-linejoin="round" stroke-width="2"/>
  <path d="M12.1432 17.5L12.2735 16.6177C12.4218 15.6135 12.4959 15.1114 12.8349 14.9155 13.1739 14.7196 13.6453 14.9063 14.5882 15.2798L15.4167 15.608M7.8568 2.5L7.7265 3.3823C7.5782 4.3865 7.5041 4.8886 7.1651 5.0845 6.8261 5.2804 6.3547 5.0937 5.4118 4.7202L4.5833 4.392" stroke="currentColor" stroke-linecap="round" stroke-linejoin="round" stroke-width="2"/>
  <path d="M4.1667 15.6098L5.0586 15.2813C6.0737 14.9074 6.5812 14.7204 6.946 14.9162 7.3108 15.1119 7.3904 15.6139 7.5495 16.6178L7.6894 17.5M15.8333 4.3902L14.9414 4.7187C13.9263 5.0926 13.4187 5.2796 13.054 5.0838 12.6893 4.8881 12.6097 4.3861 12.4505 3.3822L12.3107 2.5" stroke="currentColor" stroke-linecap="round" stroke-linejoin="round" stroke-width="2"/>
  <path d="M15.8333 10.0002H4.1667M12.9167 14.9998L7.0833 5M12.9167 5.0002L7.0833 15" stroke="currentColor" stroke-linejoin="round" stroke-width="2"/>
</svg>
