<svg xmlns="http://www.w3.org/2000/svg" width="20" height="20" viewBox="0 0 20 20" fill="none">
  <path d="M11.25 5V4.1667C11.25 3.381 11.25 2.9882 11.4941 2.7441 11.7382 2.5 12.131 2.5 12.9167 2.5H15.4167C16.2023 2.5 16.5952 2.5 16.8392 2.7441 17.0833 2.9882 17.0833 3.381 17.0833 4.1667V5H11.25Z" stroke="currentColor" stroke-linecap="round" stroke-linejoin="round" stroke-width="2"/>
  <path d="M17.0833 5V11.1162C17.0833 12.0021 16.7308 12.8515 16.1034 13.4769L12.9301 16.6404C11.7832 17.7865 9.9238 17.7865 8.7768 16.6404 7.6299 15.4944 7.63 13.6362 8.7768 12.4902L11.25 10V5" stroke="currentColor" stroke-linecap="round" stroke-linejoin="round" stroke-width="2"/>
  <path d="M8.75 5H6.25V4.1667C6.25 3.381 6.25 2.9882 6.4941 2.7441 6.7382 2.5 7.131 2.5 7.9167 2.5H8.75" stroke="currentColor" stroke-linecap="round" stroke-linejoin="round" stroke-width="2"/>
  <path d="M6.25 5V10L3.7768 12.4902C2.63 13.6362 2.6299 15.4944 3.7768 16.6404 4.4514 17.3145 5.3724 17.5921 6.25 17.4733" stroke="currentColor" stroke-linecap="round" stroke-linejoin="round" stroke-width="2"/>
  <path d="M9.1667 12.0833L13.3333 16.25" stroke="currentColor" stroke-linecap="round" stroke-linejoin="round" stroke-width="2"/>
  <path d="M4.1667 12.0833L5.8333 13.75" stroke="currentColor" stroke-linecap="round" stroke-linejoin="round" stroke-width="2"/>
  <path d="M17.0833 10C15.7026 10 14.5833 11.1193 14.5833 12.5 14.5833 13.1403 14.8241 13.7243 15.2199 14.1667" stroke="currentColor" stroke-linecap="round" stroke-linejoin="round" stroke-width="2"/>
</svg>
