<svg xmlns="http://www.w3.org/2000/svg" width="20" height="20" viewBox="0 0 20 20" fill="none">
  <path d="M4.9393 3.2395L5.7503 2.2664C5.996 1.9715 6.1189 1.824 6.2869 1.7453 6.4548 1.6667 6.6468 1.6667 7.0306 1.6667H12.9694C13.3533 1.6667 13.5452 1.6667 13.7132 1.7453 13.8812 1.824 14.004 1.9715 14.2497 2.2664L15.0608 3.2395C15.4431 3.6984 15.6342 3.9278 15.7338 4.2027 15.8333 4.4777 15.8333 4.7763 15.8333 5.3735V14.6265C15.8333 15.2238 15.8333 15.5223 15.7338 15.7973 15.6342 16.0723 15.4431 16.3017 15.0608 16.7604L13.9998 18.0335C13.877 18.1809 13.8156 18.2547 13.7316 18.294 13.6476 18.3333 13.5516 18.3333 13.3597 18.3333H6.6403C6.4484 18.3333 6.3524 18.3333 6.2684 18.294 6.1844 18.2547 6.123 18.1809 6.0001 18.0335L4.9393 16.7604C4.5569 16.3017 4.3658 16.0723 4.2662 15.7973 4.1667 15.5223 4.1667 15.2238 4.1667 14.6265V5.3735C4.1667 4.7763 4.1667 4.4777 4.2662 4.2027 4.3658 3.9278 4.5569 3.6984 4.9393 3.2395Z" stroke="currentColor" stroke-linecap="round" stroke-width="2"/>
  <path d="M4.1667 4.1667L15.8333 4.1667" stroke="currentColor" stroke-width="2"/>
  <path d="M4.1667 15.8333H15.8333" stroke="currentColor" stroke-width="2"/>
  <path d="M5 1.6667H15" stroke="currentColor" stroke-linecap="round" stroke-width="2"/>
  <circle cx="10" cy="10" r="2.0833333333333335" stroke="currentColor" stroke-width="2"/>
</svg>
