<svg xmlns="http://www.w3.org/2000/svg" width="20" height="20" viewBox="0 0 20 20" fill="none">
  <path d="M6.6667 15L5.8333 18.3333M13.3333 15L14.1667 18.3333" stroke="currentColor" stroke-linecap="round" stroke-linejoin="round" stroke-width="2"/>
  <path d="M15 7.5C13.5808 7.5 13.3333 9.1667 13.3333 9.1667 13.1361 9.9557 13.0497 11.7867 12.3622 12.3235 12.1362 12.5 11.8237 12.5 11.1987 12.5H8.8013C8.1763 12.5 7.8639 12.5 7.6378 12.3235 6.9503 11.7867 6.8639 9.9557 6.6667 9.1667 6.6667 9.1667 6.4193 7.5 5 7.5 4.0795 7.5 3.3333 8.2462 3.3333 9.1667 3.3333 9.7836 3.6685 10.3222 4.1667 10.6103L4.4852 12.2883C4.7315 13.5855 4.8546 14.2341 5.3171 14.6171 5.7796 15 6.4397 15 7.7601 15H12.2399C13.5603 15 14.2204 15 14.6829 14.6171 15.1454 14.2341 15.2685 13.5855 15.5147 12.2883L15.8333 10.6103C16.3315 10.3222 16.6667 9.7836 16.6667 9.1667 16.6667 8.2462 15.9205 7.5 15 7.5Z" stroke="currentColor" stroke-linecap="round" stroke-linejoin="round" stroke-width="2"/>
  <path d="M7.0833 10.4167C7.8606 9.898 8.8818 9.5833 10 9.5833 11.1183 9.5833 12.1393 9.898 12.9167 10.4167" stroke="currentColor" stroke-linecap="round" stroke-width="2"/>
  <path d="M5.8469 7.5L5.6935 6.4226C5.3784 4.2098 5.2209 3.1033 5.8419 2.385 6.4628 1.6667 7.5768 1.6667 9.8048 1.6667H10.1952C12.4232 1.6667 13.5372 1.6667 14.1582 2.385 14.7791 3.1033 14.6216 4.2098 14.3065 6.4226L14.1531 7.5" stroke="currentColor" stroke-linecap="round" stroke-linejoin="round" stroke-width="2"/>
</svg>
