<svg xmlns="http://www.w3.org/2000/svg" width="20" height="20" viewBox="0 0 20 20" fill="none">
  <path d="M5.8333 13.3333V15.8333M14.1667 13.3333V15.8333" stroke="currentColor" stroke-linecap="round" stroke-linejoin="round" stroke-width="2"/>
  <path d="M17.4997 7.7236C16.7025 7.2633 15.6832 7.5365 15.2229 8.3336L14.3818 10.3243C14.1732 10.8179 14.1499 10.8333 13.6141 10.8333H6.3859C5.8501 10.8333 5.8268 10.8179 5.6183 10.3244L4.777 8.3336C4.3168 7.5365 3.2974 7.2633 2.5003 7.7236 1.7031 8.1838 1.43 9.2031 1.8902 10.0002 2.2494 10.6224 3.2458 10.5698 3.4071 11.0538 3.7737 12.154 3.957 12.7041 4.3935 13.0187 4.83 13.3333 5.4098 13.3333 6.5694 13.3333H13.4305C14.5902 13.3333 15.17 13.3333 15.6065 13.0187 16.043 12.704 16.2263 12.1539 16.5929 11.0538 16.7542 10.5698 17.7506 10.6223 18.1097 10.0002 18.5699 9.2031 18.2968 8.1838 17.4997 7.7236Z" stroke="currentColor" stroke-linecap="round" stroke-linejoin="round" stroke-width="2"/>
  <path d="M3.75 7.5L3.7834 7.4111C4.3719 5.8417 4.6661 5.057 5.3085 4.6119 5.9509 4.1667 6.7889 4.1667 8.465 4.1667H11.535C13.2111 4.1667 14.0491 4.1667 14.6915 4.6119 15.3339 5.057 15.6282 5.8417 16.2167 7.4111L16.25 7.5" stroke="currentColor" stroke-linecap="round" stroke-linejoin="round" stroke-width="2"/>
</svg>
