<svg xmlns="http://www.w3.org/2000/svg" width="20" height="20" viewBox="0 0 20 20" fill="none">
  <path d="M5.527 15.2188L4.1923 5.0832C4.0922 4.3233 4.2632 4.1667 5.1046 4.1667H14.0621C14.9034 4.1667 15.0745 4.3233 14.9744 5.0832L13.6397 15.2188C13.4579 16.5985 13.3671 17.2883 12.8449 17.7031 11.7637 18.562 7.3558 18.5246 6.3217 17.7031 5.7996 17.2883 5.7087 16.5985 5.527 15.2188Z" stroke="currentColor" stroke-linecap="round" stroke-linejoin="round" stroke-width="2"/>
  <path d="M11.25 15.8333L11.6217 2.4511C11.6476 2.0106 12.0123 1.6667 12.4536 1.6667H15.8345" stroke="currentColor" stroke-linecap="round" stroke-width="2"/>
  <path d="M5 8.3333C5.1515 8.0556 5.6515 7.5 6.7424 7.5 8.1061 7.5 7.7462 8.3333 8.6553 8.3333 9.5644 8.3333 10.928 7.5 12.2917 7.5 13.6553 7.5 14.5833 8.3333 14.5833 8.3333" stroke="currentColor" stroke-linecap="round" stroke-width="2"/>
  <path d="M8.4375 13.3333H8.3333M8.5417 13.3333C8.5417 13.4484 8.4484 13.5417 8.3333 13.5417 8.2183 13.5417 8.125 13.4484 8.125 13.3333 8.125 13.2183 8.2183 13.125 8.3333 13.125 8.4484 13.125 8.5417 13.2183 8.5417 13.3333Z" stroke="currentColor" stroke-linecap="round" stroke-width="2"/>
</svg>
