<svg xmlns="http://www.w3.org/2000/svg" width="20" height="20" viewBox="0 0 20 20" fill="none">
  <path d="M8.3333 8.3333C8.3333 9.2538 9.0795 10 10 10 10.9205 10 11.6667 9.2538 11.6667 8.3333 11.6667 7.4129 10.9205 6.6667 10 6.6667 9.0795 6.6667 8.3333 7.4129 8.3333 8.3333Z" stroke="currentColor" stroke-width="2"/>
  <path d="M15.2045 12.5C16.1194 11.3587 16.6667 9.9099 16.6667 8.3333 16.6667 4.6514 13.6819 1.6667 10 1.6667 6.3181 1.6667 3.3333 4.6514 3.3333 8.3333 3.3333 9.9099 3.8806 11.3587 4.7955 12.5" stroke="currentColor" stroke-linecap="round" stroke-width="2"/>
  <path d="M2.5 15.4167C2.5 14.2463 2.5 13.6611 2.7528 13.2408 2.8622 13.0588 3.0029 12.9025 3.1666 12.7809 3.545 12.5 4.0716 12.5 5.125 12.5H14.875C15.9283 12.5 16.455 12.5 16.8333 12.7809 16.9972 12.9025 17.1378 13.0588 17.2472 13.2408 17.5 13.6611 17.5 14.2463 17.5 15.4167 17.5 16.5871 17.5 17.1723 17.2472 17.5926 17.1378 17.7746 16.9972 17.9308 16.8333 18.0524 16.455 18.3333 15.9283 18.3333 14.875 18.3333H5.125C4.0716 18.3333 3.545 18.3333 3.1666 18.0524 3.0029 17.9308 2.8622 17.7746 2.7528 17.5926 2.5 17.1723 2.5 16.5871 2.5 15.4167Z" stroke="currentColor" stroke-width="2"/>
  <path d="M9.1667 15H10.8333" stroke="currentColor" stroke-linecap="round" stroke-linejoin="round" stroke-width="2"/>
  <path d="M13.242 5.5088L14.9182 3.8326" stroke="currentColor" stroke-linecap="round" stroke-linejoin="round" stroke-width="2"/>
</svg>
