<svg xmlns="http://www.w3.org/2000/svg" width="20" height="20" viewBox="0 0 20 20" fill="none">
  <path d="M1.6667 2.5C3.2198 2.5 3.9964 2.5 4.6089 2.7537 5.4257 3.092 6.0746 3.741 6.4129 4.5577 6.6667 5.1703 6.6667 5.9469 6.6667 7.5 5.1135 7.5 4.337 7.5 3.7244 7.2463 2.9076 6.908 2.2587 6.259 1.9204 5.4423 1.6667 4.8297 1.6667 4.0531 1.6667 2.5Z" stroke="currentColor" stroke-linejoin="round" stroke-width="2"/>
  <path d="M10 4.1667C8.9646 4.1667 8.4468 4.1667 8.0385 4.3358 7.494 4.5614 7.0614 4.994 6.8358 5.5385 6.6667 5.9469 6.6667 6.4646 6.6667 7.5 7.7021 7.5 8.2198 7.5 8.6282 7.3308 9.1727 7.1053 9.6053 6.6727 9.8308 6.1282 10 5.7198 10 5.2021 10 4.1667Z" stroke="currentColor" stroke-linejoin="round" stroke-width="2"/>
  <path d="M6.6667 7.5V11.6667" stroke="currentColor" stroke-linecap="round" stroke-width="2"/>
  <path d="M10 11.6667L1.6667 11.6667" stroke="currentColor" stroke-linecap="round" stroke-width="2"/>
  <path d="M10 14.1667L1.6667 14.1667" stroke="currentColor" stroke-linecap="round" stroke-width="2"/>
  <path d="M10 16.6667L1.6667 16.6667" stroke="currentColor" stroke-linecap="round" stroke-width="2"/>
  <path d="M13.3333 15.4195C13.3333 14.3735 14.211 13.3398 14.827 12.7431 15.1616 12.419 15.6718 12.419 16.0063 12.7431 16.6223 13.3398 17.5 14.3735 17.5 15.4195 17.5 16.4451 16.7111 17.5 15.4167 17.5 14.1223 17.5 13.3333 16.4451 13.3333 15.4195Z" stroke="currentColor" stroke-width="2"/>
</svg>
