<svg xmlns="http://www.w3.org/2000/svg" width="20" height="20" viewBox="0 0 20 20" fill="none">
  <path d="M14.1667 16.2528C14.1667 15.2068 15.0443 14.1731 15.6603 13.5764 15.9949 13.2523 16.5051 13.2523 16.8397 13.5764 17.4557 14.1731 18.3333 15.2068 18.3333 16.2528 18.3333 17.2784 17.5444 18.3333 16.25 18.3333 14.9556 18.3333 14.1667 17.2784 14.1667 16.2528Z" stroke="currentColor" stroke-width="2"/>
  <path d="M18.3332 10C14.9161 10 11.9793 12.0568 10.6933 15" stroke="currentColor" stroke-linecap="round" stroke-width="2"/>
  <path d="M18.332 6.6667C13.0469 6.6667 8.5827 10.1808 7.1484 15" stroke="currentColor" stroke-linecap="round" stroke-width="2"/>
  <path d="M18.3328 3.3333C11.1941 3.3333 5.2202 8.32 3.7044 15" stroke="currentColor" stroke-linecap="round" stroke-width="2"/>
  <path d="M1.6667 8.3333C2.3985 8.3333 3.1082 8.4277 3.7845 8.6048" stroke="currentColor" stroke-linecap="round" stroke-width="2"/>
  <path d="M1.6667 5C3.2217 5 4.7057 5.3042 6.0623 5.8564" stroke="currentColor" stroke-linecap="round" stroke-width="2"/>
  <path d="M1.6667 1.6667C4.3128 1.6667 6.7989 2.3518 8.9572 3.5545" stroke="currentColor" stroke-linecap="round" stroke-width="2"/>
</svg>
