<svg xmlns="http://www.w3.org/2000/svg" width="20" height="20" viewBox="0 0 20 20" fill="none">
  <path d="M2.5 2.5C4.0531 2.5 4.8297 2.5 5.4423 2.7537 6.259 3.092 6.908 3.741 7.2463 4.5577 7.5 5.1703 7.5 5.9469 7.5 7.5 5.9469 7.5 5.1703 7.5 4.5577 7.2463 3.741 6.908 3.092 6.259 2.7537 5.4423 2.5 4.8297 2.5 4.0531 2.5 2.5Z" stroke="currentColor" stroke-linejoin="round" stroke-width="2"/>
  <path d="M10.8333 4.1667C9.7979 4.1667 9.2802 4.1667 8.8718 4.3358 8.3273 4.5614 7.8947 4.994 7.6692 5.5385 7.5 5.9469 7.5 6.4646 7.5 7.5 8.5354 7.5 9.0532 7.5 9.4615 7.3308 10.006 7.1053 10.4387 6.6727 10.6642 6.1282 10.8333 5.7198 10.8333 5.2021 10.8333 4.1667Z" stroke="currentColor" stroke-linejoin="round" stroke-width="2"/>
  <path d="M7.5 7.5V11.6667" stroke="currentColor" stroke-linecap="round" stroke-width="2"/>
  <path d="M10.8333 11.6667L2.5 11.6667" stroke="currentColor" stroke-linecap="round" stroke-width="2"/>
  <path d="M10.8333 14.1667L2.5 14.1667" stroke="currentColor" stroke-linecap="round" stroke-width="2"/>
  <path d="M10.8333 16.6667L2.5 16.6667" stroke="currentColor" stroke-linecap="round" stroke-width="2"/>
  <path d="M15.8333 17.5C17.2141 17.5 18.3333 16.3808 18.3333 15 18.3333 14.4198 18.1357 13.8858 17.8042 13.4617 17.3842 12.9244 17.1742 12.6557 17.1288 12.5238 17.0833 12.392 17.0833 12.219 17.0833 11.8732V8.75C17.0833 8.0596 16.5237 7.5 15.8333 7.5 15.143 7.5 14.5833 8.0596 14.5833 8.75V11.8732C14.5833 12.219 14.5833 12.392 14.5379 12.5238 14.4925 12.6557 14.2825 12.9244 13.8625 13.4617 13.5309 13.8858 13.3333 14.4198 13.3333 15 13.3333 16.3808 14.4526 17.5 15.8333 17.5Z" stroke="currentColor" stroke-linejoin="round" stroke-width="2"/>
</svg>
