<svg xmlns="http://www.w3.org/2000/svg" width="20" height="20" viewBox="0 0 20 20" fill="none">
  <path d="M10.6933 15.0001C10.9535 14.4047 11.2812 13.8457 11.6667 13.3325" stroke="currentColor" stroke-linecap="round" stroke-width="2"/>
  <path d="M18.332 6.6667C13.0469 6.6667 8.5827 10.1808 7.1484 15" stroke="currentColor" stroke-linecap="round" stroke-width="2"/>
  <path d="M18.3328 3.3333C11.1941 3.3333 5.2202 8.32 3.7044 15" stroke="currentColor" stroke-linecap="round" stroke-width="2"/>
  <path d="M15.8333 18.3333C17.2141 18.3333 18.3333 17.2141 18.3333 15.8333 18.3333 15.2532 18.1357 14.7192 17.8042 14.295 17.3842 13.7577 17.1742 13.4891 17.1288 13.3572 17.0833 13.2253 17.0833 13.0523 17.0833 12.7065V10.4167C17.0833 9.7263 16.5237 9.1667 15.8333 9.1667 15.143 9.1667 14.5833 9.7263 14.5833 10.4167V12.7065C14.5833 13.0523 14.5833 13.2253 14.5379 13.3572 14.4925 13.4891 14.2825 13.7577 13.8625 14.295 13.5309 14.7192 13.3333 15.2532 13.3333 15.8333 13.3333 17.2141 14.4526 18.3333 15.8333 18.3333Z" stroke="currentColor" stroke-linejoin="round" stroke-width="2"/>
  <path d="M1.6667 8.3333C2.3985 8.3333 3.1082 8.4277 3.7845 8.6048" stroke="currentColor" stroke-linecap="round" stroke-width="2"/>
  <path d="M1.6667 5C3.2217 5 4.7057 5.3042 6.0623 5.8564" stroke="currentColor" stroke-linecap="round" stroke-width="2"/>
  <path d="M1.6667 1.6667C4.3128 1.6667 6.7989 2.3518 8.9572 3.5545" stroke="currentColor" stroke-linecap="round" stroke-width="2"/>
</svg>
