<svg xmlns="http://www.w3.org/2000/svg" width="20" height="20" viewBox="0 0 20 20" fill="none">
  <path d="M2.9167 5.608C2.1243 6.8832 1.6667 8.3882 1.6667 10 1.6667 14.6023 5.3976 18.3333 10 18.3333 10.871 18.3333 11.7108 18.1997 12.5 17.9518M16.9608 14.5833C17.8283 13.2684 18.3333 11.6932 18.3333 10 18.3333 5.3976 14.6023 1.6667 10 1.6667 9.129 1.6667 8.2892 1.8003 7.5 2.0482" stroke="currentColor" stroke-linecap="round" stroke-linejoin="round" stroke-width="2"/>
  <circle cx="4.166666666666667" cy="4.166666666666667" r="1.6666666666666667" stroke="currentColor" stroke-linecap="round" stroke-linejoin="round" stroke-width="2"/>
  <circle cx="15.833333333333334" cy="15.833333333333334" r="1.6666666666666667" stroke="currentColor" stroke-linecap="round" stroke-linejoin="round" stroke-width="2"/>
  <circle cx="6.666666666666667" cy="12.5" r="1.6666666666666667" stroke="currentColor" stroke-linecap="round" stroke-linejoin="round" stroke-width="2"/>
  <path d="M10 14.1667C12.3012 14.1667 14.1667 12.3012 14.1667 10 14.1667 7.6988 12.3012 5.8333 10 5.8333 7.6988 5.8333 5.8333 7.6988 5.8333 10 5.8333 10.2854 5.862 10.5641 5.9167 10.8333" stroke="currentColor" stroke-linecap="round" stroke-linejoin="round" stroke-width="2"/>
  <path d="M10.1042 10H10M10.2083 10C10.2083 10.1151 10.1151 10.2083 10 10.2083 9.8849 10.2083 9.7917 10.1151 9.7917 10 9.7917 9.8849 9.8849 9.7917 10 9.7917 10.1151 9.7917 10.2083 9.8849 10.2083 10Z" stroke="currentColor" stroke-linecap="round" stroke-linejoin="round" stroke-width="2"/>
</svg>
