<svg xmlns="http://www.w3.org/2000/svg" width="20" height="20" viewBox="0 0 20 20" fill="none">
  <path d="M1.6667 8.3333C2.3164 5.1534 4.7243 2.6078 7.8385 1.7415 8.0999 1.6688 8.2306 1.6324 8.301 1.7103 8.3714 1.7882 8.3195 1.917 8.2158 2.1746L7.5 3.75M11.6667 1.6667C14.8466 2.3164 17.3923 4.7243 18.2585 7.8385 18.3313 8.0999 18.3676 8.2306 18.2897 8.301 18.2118 8.3714 18.083 8.3195 17.8253 8.2158L16.25 7.5M18.3333 11.6667C17.6836 14.8466 15.2757 17.3923 12.1615 18.2585 11.9001 18.3313 11.7694 18.3676 11.699 18.2897 11.6286 18.2118 11.6805 18.083 11.7842 17.8253L12.5 16.25M8.3333 18.3333C5.1534 17.6836 2.6078 15.2757 1.7415 12.1615 1.6688 11.9001 1.6324 11.7694 1.7103 11.699 1.7882 11.6286 1.917 11.6805 2.1746 11.7842L3.75 12.5" stroke="currentColor" stroke-linecap="round" stroke-width="2"/>
  <path d="M12.5 10C12.5 11.3808 11.3808 12.5 10 12.5M12.5 10C12.5 8.6193 11.3808 7.5 10 7.5M12.5 10H13.75M10 12.5C8.6193 12.5 7.5 11.3808 7.5 10M10 12.5V13.75M7.5 10C7.5 8.6193 8.6193 7.5 10 7.5M7.5 10L6.25 10M10 7.5V6.25M11.7677 8.2322L12.6517 7.3484M8.2322 11.7677L7.3484 12.6517M11.7677 11.7677L12.6517 12.6517M8.2322 8.2322L7.3484 7.3484" stroke="currentColor" stroke-linecap="round" stroke-linejoin="round" stroke-width="2"/>
</svg>
