<svg xmlns="http://www.w3.org/2000/svg" width="20" height="20" viewBox="0 0 20 20" fill="none">
  <path d="M7.5 6.6667C7.5 5.286 8.6193 4.1667 10 4.1667 11.3808 4.1667 12.5 5.286 12.5 6.6667" stroke="currentColor" stroke-linecap="round" stroke-width="2"/>
  <path d="M13.1611 9.1667H6.8389C6.0282 9.1667 5.6228 9.1667 5.3121 9.3893 5.0013 9.6118 4.859 10.0042 4.5743 10.7888L3.9697 12.4555C3.4129 13.9901 3.1346 14.7573 3.4953 15.2953 3.856 15.8333 4.6487 15.8333 6.2343 15.8333H13.7657C15.3513 15.8333 16.144 15.8333 16.5048 15.2953 16.8654 14.7573 16.5871 13.9901 16.0303 12.4555L15.4257 10.7888C15.141 10.0042 14.9987 9.6118 14.6879 9.3893 14.3772 9.1667 13.9718 9.1667 13.1611 9.1667Z" stroke="currentColor" stroke-linecap="round" stroke-linejoin="round" stroke-width="2"/>
  <path d="M10 9.1667V15.8333" stroke="currentColor" stroke-linecap="round" stroke-linejoin="round" stroke-width="2"/>
  <path d="M15.8333 12.5H4.1667" stroke="currentColor" stroke-linecap="round" stroke-linejoin="round" stroke-width="2"/>
  <path d="M10 15.8333V18.3333M10 18.3333H11.6667M10 18.3333H8.3333" stroke="currentColor" stroke-linecap="round" stroke-linejoin="round" stroke-width="2"/>
  <path d="M10 2.0833V1.6667" stroke="currentColor" stroke-linecap="round" stroke-linejoin="round" stroke-width="2"/>
  <path d="M14.5833 6.6667H15" stroke="currentColor" stroke-linecap="round" stroke-linejoin="round" stroke-width="2"/>
  <path d="M5 6.6667L5.4167 6.6667" stroke="currentColor" stroke-linecap="round" stroke-linejoin="round" stroke-width="2"/>
  <path d="M13.2406 3.4257L13.5352 3.1311" stroke="currentColor" stroke-linecap="round" stroke-linejoin="round" stroke-width="2"/>
  <path d="M6.4648 3.1315L6.7595 3.4261" stroke="currentColor" stroke-linecap="round" stroke-linejoin="round" stroke-width="2"/>
</svg>
