<svg xmlns="http://www.w3.org/2000/svg" width="20" height="20" viewBox="0 0 20 20" fill="none">
  <path d="M9.5183 6.1486C9.746 5.9384 9.8598 5.8333 10 5.8333 10.1402 5.8333 10.254 5.9384 10.4817 6.1486L10.8698 6.5068C10.9894 6.6171 11.0492 6.6723 11.1253 6.6959 11.2016 6.7195 11.2839 6.7084 11.4486 6.6862L11.9833 6.614C12.297 6.5717 12.4538 6.5505 12.5673 6.6291 12.6806 6.7077 12.708 6.8565 12.7628 7.1542L12.856 7.6617C12.8848 7.818 12.8992 7.8961 12.9463 7.9579 12.9933 8.0198 13.0668 8.057 13.2137 8.1313L13.6907 8.3728C13.9707 8.5144 14.1106 8.5853 14.1539 8.7124 14.1972 8.8396 14.1276 8.9753 13.9885 9.2469L13.7513 9.7097C13.6783 9.8522 13.6418 9.9236 13.6418 10 13.6418 10.0764 13.6783 10.1478 13.7513 10.2903L13.9885 10.7531C14.1276 11.0247 14.1972 11.1604 14.1539 11.2876 14.1106 11.4147 13.9707 11.4856 13.6907 11.6272L13.2137 11.8687C13.0668 11.943 12.9933 11.9803 12.9463 12.0421 12.8992 12.1039 12.8848 12.1821 12.856 12.3383L12.7628 12.8458C12.708 13.1435 12.6806 13.2923 12.5673 13.3709 12.4538 13.4495 12.297 13.4283 11.9833 13.386L11.4486 13.3138C11.2839 13.2916 11.2016 13.2805 11.1253 13.3042 11.0492 13.3277 10.9894 13.3829 10.8698 13.4933L10.4817 13.8514C10.254 14.0616 10.1402 14.1667 10 14.1667 9.8598 14.1667 9.746 14.0616 9.5183 13.8514L9.1302 13.4933C9.0106 13.3829 8.9508 13.3277 8.8747 13.3042 8.7984 13.2805 8.7161 13.2916 8.5514 13.3138L8.0167 13.386C7.703 13.4283 7.5461 13.4495 7.4328 13.3709 7.3194 13.2923 7.292 13.1435 7.2373 12.8458L7.144 12.3383C7.1152 12.1821 7.1009 12.1039 7.0538 12.0421 7.0067 11.9803 6.9332 11.943 6.7863 11.8687L6.3092 11.6272C6.0294 11.4856 5.8894 11.4147 5.8461 11.2876 5.8028 11.1604 5.8724 11.0247 6.0115 10.7531L6.2487 10.2903C6.3217 10.1478 6.3583 10.0764 6.3583 10 6.3583 9.9236 6.3217 9.8522 6.2487 9.7097L6.0115 9.2469C5.8724 8.9753 5.8028 8.8396 5.8461 8.7124 5.8894 8.5853 6.0294 8.5144 6.3092 8.3728L6.7863 8.1313C6.9332 8.057 7.0067 8.0198 7.0538 7.9579 7.1009 7.8961 7.1152 7.818 7.144 7.6617L7.2373 7.1542C7.292 6.8565 7.3194 6.7077 7.4328 6.6291 7.5461 6.5505 7.703 6.5717 8.0167 6.614L8.5514 6.6862C8.7161 6.7084 8.7984 6.7195 8.8747 6.6959 8.9508 6.6723 9.0106 6.6171 9.1302 6.5068L9.5183 6.1486Z" stroke="currentColor" stroke-width="2"/>
  <path d="M5.4026 3.0485C5.0976 2.7116 4.6569 2.5 4.1667 2.5 3.2462 2.5 2.5 3.2462 2.5 4.1667 2.5 4.6569 2.7116 5.0976 3.0485 5.4026M5.4026 3.0485C5.6703 3.3442 5.8333 3.7364 5.8333 4.1667 5.8333 5.0871 5.0871 5.8333 4.1667 5.8333 3.7364 5.8333 3.3442 5.6703 3.0485 5.4026M5.4026 3.0485C6.7203 2.1753 8.3008 1.6667 10 1.6667 14.6023 1.6667 18.3333 5.3976 18.3333 10 18.3333 11.6932 17.8283 13.2684 16.9608 14.5833M3.0485 5.4026C2.1753 6.7203 1.6667 8.3008 1.6667 10 1.6667 14.6023 5.3976 18.3333 10 18.3333 11.6992 18.3333 13.2797 17.8248 14.5974 16.9515M14.5974 16.9515C14.9023 17.2884 15.3432 17.5 15.8333 17.5 16.7538 17.5 17.5 16.7538 17.5 15.8333 17.5 14.9128 16.7538 14.1667 15.8333 14.1667 14.9128 14.1667 14.1667 14.9128 14.1667 15.8333 14.1667 16.2636 14.3297 16.6558 14.5974 16.9515Z" stroke="currentColor" stroke-linecap="round" stroke-width="2"/>
</svg>
