<svg xmlns="http://www.w3.org/2000/svg" width="20" height="20" viewBox="0 0 20 20" fill="none">
  <path d="M5.8333 17.4995V12.4568C5.8333 11.978 5.8333 11.7386 5.6413 11.6791 5.2192 11.5481 4.5833 12.4992 4.5833 12.4992M5.8333 17.4995H4.5833M5.8333 17.4995H7.0833" stroke="currentColor" stroke-linecap="round" stroke-linejoin="round" stroke-width="2"/>
  <path d="M7.5 5.4167V3.9583C7.5 3.2709 7.5 2.9271 7.2559 2.7136 7.0118 2.5 6.619 2.5 5.8333 2.5 5.0477 2.5 4.6548 2.5 4.4107 2.7136 4.1667 2.9271 4.1667 3.2709 4.1667 3.9583 4.1667 4.6458 4.1667 4.9895 4.4107 5.2031 4.6548 5.4167 5.0477 5.4167 5.8333 5.4167H7.5ZM7.5 5.4167V6.1458C7.5 7.177 7.5 7.6926 7.1339 8.013 6.7678 8.3333 6.1785 8.3333 5 8.3333H4.1667" stroke="currentColor" stroke-linecap="round" stroke-linejoin="round" stroke-width="2"/>
  <path d="M13.7501 16.6658V3.3325M13.7501 16.6658C13.1665 16.6658 12.0763 15.0039 11.6668 14.5825M13.7501 16.6658C14.3336 16.6658 15.4238 15.0039 15.8334 14.5825" stroke="currentColor" stroke-linecap="round" stroke-linejoin="round" stroke-width="2"/>
</svg>
