<svg xmlns="http://www.w3.org/2000/svg" width="20" height="20" viewBox="0 0 20 20" fill="none">
  <path d="M5.8333 8.3328V3.2901C5.8333 2.8113 5.8333 2.572 5.6413 2.5124 5.2192 2.3814 4.5833 3.3325 4.5833 3.3325M5.8333 8.3328H4.5833M5.8333 8.3328H7.0833" stroke="currentColor" stroke-linecap="round" stroke-linejoin="round" stroke-width="2"/>
  <path d="M7.5 14.5826V13.1242C7.5 12.4368 7.5 12.0931 7.2559 11.8795 7.0118 11.6659 6.619 11.6659 5.8333 11.6659 5.0477 11.6659 4.6548 11.6659 4.4107 11.8795 4.1667 12.0931 4.1667 12.4368 4.1667 13.1242 4.1667 13.8118 4.1667 14.1555 4.4107 14.3691 4.6548 14.5826 5.0477 14.5826 5.8333 14.5826H7.5ZM7.5 14.5826V15.3117C7.5 16.343 7.5 16.8586 7.1339 17.1789 6.7678 17.4992 6.1785 17.4992 5 17.4992H4.1667" stroke="currentColor" stroke-linecap="round" stroke-linejoin="round" stroke-width="2"/>
  <path d="M13.75 16.6659V3.3326M13.75 16.6659C13.1665 16.6659 12.0762 15.004 11.6667 14.5826M13.75 16.6659C14.3335 16.6659 15.4238 15.004 15.8333 14.5826" stroke="currentColor" stroke-linecap="round" stroke-linejoin="round" stroke-width="2"/>
</svg>
