<svg xmlns="http://www.w3.org/2000/svg" width="20" height="20" viewBox="0 0 20 20" fill="none">
  <path d="M13.2806 1.6667L13.6808 2.0488C14.0384 2.3902 14.2172 2.5609 14.1542 2.7059 14.0913 2.851 13.8385 2.851 13.3328 2.851H7.1385C4.5759 2.851 2.4054 4.4538 1.6667 6.6667" stroke="currentColor" stroke-linecap="round" stroke-linejoin="round" stroke-width="2"/>
  <path d="M6.6845 18.3333L6.3191 17.9827C5.9616 17.6395 5.7829 17.468 5.8458 17.3222 5.9087 17.1764 6.1615 17.1764 6.667 17.1764H12.86C15.4252 17.1764 17.5974 15.5616 18.3333 13.3333" stroke="currentColor" stroke-linecap="round" stroke-linejoin="round" stroke-width="2"/>
  <path d="M12.5 7.9167H14.9562C15.4729 7.9167 15.7313 7.9167 15.8001 8.0834 15.8689 8.2502 15.6931 8.4502 15.3415 8.8503L13.3205 11.1498C12.9689 11.5498 12.7931 11.7498 12.8619 11.9166 12.9307 12.0833 13.1891 12.0833 13.7058 12.0833H15.8333" stroke="currentColor" stroke-linecap="round" stroke-linejoin="round" stroke-width="2"/>
  <path d="M2.5 12.0833L3.9622 8.8231C4.2332 8.2188 4.3687 7.9167 4.5833 7.9167 4.7979 7.9167 4.9334 8.2188 5.2045 8.8231L6.6667 12.0833" stroke="currentColor" stroke-linecap="round" stroke-linejoin="round" stroke-width="2"/>
  <path d="M9.1667 10H10" stroke="currentColor" stroke-linecap="round" stroke-linejoin="round" stroke-width="2"/>
</svg>
