<svg xmlns="http://www.w3.org/2000/svg" width="20" height="20" viewBox="0 0 20 20" fill="none">
  <path d="M12.4998 6.3946L13.674 5.1558C14.299 4.4964 14.6115 4.1667 14.9998 4.1667 15.3882 4.1667 15.7007 4.4964 16.3257 5.1558L17.4998 6.3946M14.9998 4.2394L14.9998 7.8853C14.9998 9.7466 14.9998 10.6772 14.6275 11.4977 14.2551 12.3184 13.5548 12.9312 12.1541 14.1568L11.6665 14.5834" stroke="currentColor" stroke-linecap="round" stroke-linejoin="round" stroke-width="2"/>
  <path d="M2.5 5.4167C2.5 4.3957 2.5 3.8853 2.6987 3.4953 2.8735 3.1523 3.1523 2.8735 3.4953 2.6987 3.8853 2.5 4.3957 2.5 5.4167 2.5 6.4376 2.5 6.9481 2.5 7.338 2.6987 7.681 2.8735 7.9599 3.1523 8.1347 3.4953 8.3333 3.8853 8.3333 4.3957 8.3333 5.4167 8.3333 6.4376 8.3333 6.9481 8.1347 7.338 7.9599 7.681 7.681 7.9599 7.338 8.1347 6.9481 8.3333 6.4376 8.3333 5.4167 8.3333 4.3957 8.3333 3.8853 8.3333 3.4953 8.1347 3.1523 7.9599 2.8735 7.681 2.6987 7.338 2.5 6.9481 2.5 6.4376 2.5 5.4167Z" stroke="currentColor" stroke-width="2"/>
  <path d="M2.5 14.5833C2.5 13.5624 2.5 13.0519 2.6987 12.662 2.8735 12.319 3.1523 12.0401 3.4953 11.8653 3.8853 11.6667 4.3957 11.6667 5.4167 11.6667 6.4376 11.6667 6.9481 11.6667 7.338 11.8653 7.681 12.0401 7.9599 12.319 8.1347 12.662 8.3333 13.0519 8.3333 13.5624 8.3333 14.5833 8.3333 15.6043 8.3333 16.1148 8.1347 16.5047 7.9599 16.8477 7.681 17.1266 7.338 17.3013 6.9481 17.5 6.4376 17.5 5.4167 17.5 4.3957 17.5 3.8853 17.5 3.4953 17.3013 3.1523 17.1266 2.8735 16.8477 2.6987 16.5047 2.5 16.1148 2.5 15.6043 2.5 14.5833Z" stroke="currentColor" stroke-width="2"/>
</svg>
