<svg xmlns="http://www.w3.org/2000/svg" width="20" height="20" viewBox="0 0 20 20" fill="none">
  <path d="M12.8123 17.8326C12.9588 17.5995 12.7697 17.2262 12.3913 16.4794 12.1904 16.0828 11.0762 14.0766 11.4626 13.6748 11.5636 13.5697 11.92 13.6591 12.6327 13.8378 13.6793 14.1004 15.0245 14.008 16.1902 13.1428 20.6077 9.8639 12.6523 1.6667 10 1.6667 7.3477 1.6667-0.6078 9.8639 3.8098 13.1428 4.9755 14.008 6.3207 14.1004 7.3672 13.8378 8.08 13.6591 8.4364 13.5697 8.5374 13.6748 8.9238 14.0766 7.8096 16.0828 7.6087 16.4794 7.2303 17.2262 7.0412 17.5995 7.1877 17.8326 7.5335 18.3823 12.3242 18.6087 12.8123 17.8326Z" stroke="currentColor" stroke-linecap="round" stroke-linejoin="round" stroke-width="2"/>
</svg>
