<svg xmlns="http://www.w3.org/2000/svg" width="20" height="20" viewBox="0 0 20 20" fill="none">
  <path d="M17.743 10.8333H2.257C0.9907 10.8333 2.0699 12.6983 2.6412 12.9842L4.6086 13.9688C4.8052 14.0672 4.9036 14.1163 4.985 14.1883 5.7167 14.8348 5.8502 15.9742 6.7749 16.4694 7.1431 16.6667 7.5793 16.6667 8.4519 16.6667H11.5481C12.4207 16.6667 12.8569 16.6667 13.2251 16.4694 14.1498 15.9742 14.2833 14.8348 15.015 14.1883 15.0964 14.1163 15.1947 14.0672 15.3914 13.9688L17.3588 12.9842C17.9301 12.6983 19.0093 10.8333 17.743 10.8333Z" stroke="currentColor" stroke-linecap="round" stroke-linejoin="round" stroke-width="2"/>
  <path d="M12.5 10.8333C12.5 8.0719 10.2614 5.8333 7.5 5.8333 4.7386 5.8333 2.5 8.0719 2.5 10.8333" stroke="currentColor" stroke-linecap="round" stroke-linejoin="round" stroke-width="2"/>
  <path d="M17.5 10.8333C17.5 8.5322 15.6457 6.6667 13.3583 6.6667 12.5884 6.6667 11.8676 6.8782 11.25 7.2465" stroke="currentColor" stroke-linecap="round" stroke-linejoin="round" stroke-width="2"/>
  <path d="M5.8333 10.1852C5.8333 9.1624 6.5795 8.3333 7.5 8.3333 8.4205 8.3333 9.1667 9.1624 9.1667 10.1852V11.6667" stroke="currentColor" stroke-linecap="round" stroke-linejoin="round" stroke-width="2"/>
  <path d="M7.5 5.463C7.8594 3.9918 9.4402 3.0687 11.0308 3.4011 12.6213 3.7334 13.6195 5.1955 13.2601 6.6667" stroke="currentColor" stroke-linecap="round" stroke-linejoin="round" stroke-width="2"/>
</svg>
