<svg xmlns="http://www.w3.org/2000/svg" width="20" height="20" viewBox="0 0 20 20" fill="none">
  <path d="M17.9167 10.5719V9.4281C17.9167 8.0656 17.9167 7.3843 17.6629 6.7718 17.4092 6.1592 16.9275 5.6775 15.9641 4.714L15.2859 4.036C14.3225 3.0725 13.8408 2.5908 13.2283 2.3371 12.6157 2.0833 11.9344 2.0833 10.5719 2.0833H9.4281C8.0656 2.0833 7.3843 2.0833 6.7718 2.3371 6.1592 2.5908 5.6775 3.0725 4.714 4.036L4.036 4.714C3.0725 5.6775 2.5908 6.1592 2.3371 6.7718 2.0833 7.3843 2.0833 8.0656 2.0833 9.4281V10.5719C2.0833 11.9344 2.0833 12.6157 2.3371 13.2283 2.5908 13.8408 3.0725 14.3225 4.036 15.2859L4.714 15.9641C5.6775 16.9275 6.1592 17.4092 6.7718 17.6629 7.3843 17.9167 8.0656 17.9167 9.4281 17.9167H10.5719C11.9344 17.9167 12.6157 17.9167 13.2283 17.6629 13.8408 17.4092 14.3225 16.9275 15.2859 15.9641L15.9641 15.2859C16.9275 14.3225 17.4092 13.8408 17.6629 13.2283 17.9167 12.6157 17.9167 11.9344 17.9167 10.5719Z" stroke="currentColor" stroke-linecap="round" stroke-linejoin="round" stroke-width="2"/>
  <path d="M10 6.6667V10" stroke="currentColor" stroke-linecap="round" stroke-linejoin="round" stroke-width="2"/>
  <path d="M10.1042 13.125H10M10.2083 13.125C10.2083 13.2401 10.1151 13.3333 10 13.3333 9.8849 13.3333 9.7917 13.2401 9.7917 13.125 9.7917 13.0099 9.8849 12.9167 10 12.9167 10.1151 12.9167 10.2083 13.0099 10.2083 13.125Z" stroke="currentColor" stroke-linecap="round" stroke-linejoin="round" stroke-width="2"/>
</svg>
