<svg xmlns="http://www.w3.org/2000/svg" width="20" height="20" viewBox="0 0 20 20" fill="none">
  <path d="M3.7814 12.5781C2.4065 7.1747 4.9968 3.8026 10.0002 1.6667 15.0038 3.8026 17.5935 7.1747 16.2186 12.5781 16.1189 12.9698 16.1313 13.3858 16.278 13.7617L17.4246 16.6983C17.8707 17.8408 16.222 18.1126 15.521 18.2601 13.5922 18.6659 11.7223 17.3422 11.4108 15.3503 11.1909 13.944 11.9861 13.7133 13.0255 13.1808 13.0255 13.1808 14.3222 12.7379 14.3222 11.4094 14.3222 10.4311 13.5482 9.638 12.5933 9.638 11.9953 9.638 11.4684 9.8117 10.9458 10.3764 10.4393 10.9238 10.1862 11.1975 10.0003 11.1975 9.8145 11.1975 9.5612 10.9238 9.0547 10.3765 8.5318 9.8117 8.0048 9.638 7.4068 9.638 6.4519 9.638 5.6778 10.4311 5.6778 11.4094 5.6778 12.7379 6.9745 13.1808 6.9745 13.1808 8.014 13.7133 8.8091 13.944 8.5892 15.3503 8.2776 17.3422 6.4078 18.6659 4.479 18.2601 3.778 18.1126 2.1293 17.8408 2.5754 16.6983L3.722 13.7617C3.8687 13.3858 3.8811 12.9698 3.7814 12.5781Z" stroke="currentColor" stroke-linejoin="round" stroke-width="2"/>
  <path d="M8.3333 16.6667H11.6667" stroke="currentColor" stroke-linecap="round" stroke-linejoin="round" stroke-width="2"/>
  <path d="M10.1042 6.6667H10M10.2083 6.6667C10.2083 6.7817 10.1151 6.875 10 6.875 9.8849 6.875 9.7917 6.7817 9.7917 6.6667 9.7917 6.5516 9.8849 6.4583 10 6.4583 10.1151 6.4583 10.2083 6.5516 10.2083 6.6667Z" stroke="currentColor" stroke-linecap="round" stroke-width="2"/>
</svg>
