<svg xmlns="http://www.w3.org/2000/svg" width="20" height="20" viewBox="0 0 20 20" fill="none">
  <path d="M14.1569 1.9837L14.7893 2.4423C15.8517 3.2127 16.7858 4.1458 17.5569 5.2071L18.016 5.8389C18.4966 6.5002 18.4245 7.4124 17.8461 7.9903L14.0704 11.7621C13.675 12.1571 13.1074 12.3273 12.5597 12.2149L10.8618 11.8668C10.314 11.7545 9.7464 11.9246 9.351 12.3196L3.8733 17.7918C3.5468 18.1332 2.8124 18.7348 2.0188 17.9421 1.2994 17.2234 1.8501 16.4383 2.192 16.112L7.6696 10.6399C8.065 10.2449 8.2353 9.6779 8.1229 9.1307L7.7744 7.4345C7.662 6.8873 7.8323 6.3203 8.2277 5.9253L12.0033 2.1534C12.5818 1.5756 13.4949 1.5036 14.1569 1.9837Z" stroke="currentColor" stroke-linecap="round" stroke-linejoin="round" stroke-width="2"/>
  <path d="M12.6839 8.905L14.4793 7.1097" stroke="currentColor" stroke-linecap="round" stroke-width="2"/>
  <path d="M11.1458 7.3679L12.9412 5.5726" stroke="currentColor" stroke-linecap="round" stroke-width="2"/>
</svg>
