<svg xmlns="http://www.w3.org/2000/svg" width="20" height="20" viewBox="0 0 20 20" fill="none">
  <path d="M2.9167 8.3333C2.9167 5.1906 2.9167 3.6193 3.954 2.643 4.9913 1.6667 6.6609 1.6667 10 1.6667 13.3391 1.6667 15.0087 1.6667 16.046 2.643 17.0833 3.6193 17.0833 5.1906 17.0833 8.3333V11.6667C17.0833 14.8093 17.0833 16.3808 16.046 17.357 15.0087 18.3333 13.3391 18.3333 10 18.3333 6.6609 18.3333 4.9913 18.3333 3.954 17.357 2.9167 16.3808 2.9167 14.8093 2.9167 11.6667V8.3333Z" stroke="currentColor" stroke-width="2"/>
  <circle cx="10" cy="12.083333333333334" r="2.916666666666667" stroke="currentColor" stroke-width="2"/>
  <path d="M8.3333 5H11.6667" stroke="currentColor" stroke-linecap="round" stroke-width="2"/>
</svg>
