<svg xmlns="http://www.w3.org/2000/svg" width="20" height="20" viewBox="0 0 20 20" fill="none">
  <path d="M17.0833 11.25V8.75C17.0833 5.6178 17.0833 4.0518 16.206 3.0062 16.0657 2.839 15.911 2.6843 15.7437 2.544 14.6982 1.6667 13.1322 1.6667 10 1.6667 6.8678 1.6667 5.3018 1.6667 4.2562 2.544 4.089 2.6843 3.9343 2.839 3.794 3.0062 2.9167 4.0518 2.9167 5.6178 2.9167 8.75V11.25C2.9167 14.3822 2.9167 15.9482 3.794 16.9937 3.9343 17.161 4.089 17.3157 4.2562 17.456 5.3018 18.3333 6.8678 18.3333 10 18.3333 13.1322 18.3333 14.6982 18.3333 15.7437 17.456 15.911 17.3157 16.0657 17.161 16.206 16.9937 17.0833 15.9482 17.0833 14.3822 17.0833 11.25Z" stroke="currentColor" stroke-linecap="round" stroke-width="2"/>
  <path d="M12.9167 12.5C12.9167 14.1108 11.6108 15.4167 10 15.4167 8.3892 15.4167 7.0833 14.1108 7.0833 12.5 7.0833 10.8892 8.3892 9.5833 10 9.5833 11.6108 9.5833 12.9167 10.8892 12.9167 12.5Z" stroke="currentColor" stroke-width="2"/>
  <path d="M11.25 5.8333C11.25 6.5237 10.6903 7.0833 10 7.0833 9.3097 7.0833 8.75 6.5237 8.75 5.8333 8.75 5.143 9.3097 4.5833 10 4.5833 10.6903 4.5833 11.25 5.143 11.25 5.8333Z" stroke="currentColor" stroke-width="2"/>
</svg>
