<svg xmlns="http://www.w3.org/2000/svg" width="20" height="20" viewBox="0 0 20 20" fill="none">
  <path d="M1.6667 2.5H5.6105C7.7864 2.5 8.8744 2.5 9.8899 2.8343 10.9055 3.1687 11.7807 3.815 13.5311 5.1076L16.6074 7.3793C16.641 7.4041 16.6578 7.4165 16.6737 7.4285 17.7076 8.2073 18.3208 9.4225 18.3332 10.7169 18.3333 10.7368 18.3333 10.7576 18.3333 10.7994 18.3333 10.8309 18.3333 10.8467 18.3331 10.86 18.3188 11.7596 17.5929 12.4854 16.6933 12.4998 16.68 12.5 16.6642 12.5 16.6328 12.5H1.6667" stroke="currentColor" stroke-linecap="round" stroke-width="2"/>
  <path d="M1.6667 9.1667H5.0792C7.2407 9.1667 8.3215 9.1667 9.3214 9.5425 10.3213 9.9183 11.1653 10.6417 12.8532 12.0884L13.3333 12.5" stroke="currentColor" stroke-linecap="round" stroke-width="2"/>
  <path d="M8.3333 5.8333H14.1667" stroke="currentColor" stroke-linecap="round" stroke-width="2"/>
  <path d="M1.6667 15.8333H18.3333" stroke="currentColor" stroke-linecap="round" stroke-width="2"/>
  <path d="M15 15.8333V17.5" stroke="currentColor" stroke-linecap="round" stroke-linejoin="round" stroke-width="2"/>
  <path d="M10 15.8333V17.5" stroke="currentColor" stroke-linecap="round" stroke-linejoin="round" stroke-width="2"/>
  <path d="M5 15.8333V17.5" stroke="currentColor" stroke-linecap="round" stroke-linejoin="round" stroke-width="2"/>
</svg>
