<svg xmlns="http://www.w3.org/2000/svg" width="20" height="20" viewBox="0 0 20 20" fill="none">
  <path d="M16.6668 5.8333C17.6965 6.8997 18.3334 8.3728 18.3334 10 18.3334 11.6272 17.6965 13.1003 16.6668 14.1667M14.2678 8.2322C14.7203 8.6847 15.0001 9.3097 15.0001 10 15.0001 10.6903 14.7203 11.3153 14.2678 11.7677" stroke="currentColor" stroke-linecap="round" stroke-linejoin="round" stroke-width="2"/>
  <path d="M7.5001 16.6667V15.8333C7.5001 15.0477 7.5001 14.6548 7.7442 14.4108 7.9883 14.1667 8.3811 14.1667 9.1668 14.1667 10.0872 14.1667 10.8334 13.4205 10.8334 12.5V7.9167C10.8334 5.3854 8.7814 3.3333 6.2501 3.3333 3.7188 3.3333 1.6668 5.3854 1.6668 7.9167 1.6668 8.6589 1.8432 9.36 2.1565 9.9802 2.5307 10.721 2.8085 11.5478 2.6278 12.3578L1.6668 16.6667" stroke="currentColor" stroke-linecap="round" stroke-linejoin="round" stroke-width="2"/>
</svg>
