<svg xmlns="http://www.w3.org/2000/svg" width="20" height="20" viewBox="0 0 20 20" fill="none">
  <path d="M8.2424 11.7576C10.1043 13.6194 12.6575 14.0849 14.9848 11.7576 17.3122 9.4303 18.356 5.0152 16.6704 3.3296 14.9848 1.644 10.5698 2.6878 8.2424 5.0152 5.9151 7.3425 6.3806 9.8957 8.2424 11.7576Z" stroke="currentColor" stroke-width="2"/>
  <path d="M2.5 17.5C2.8445 17.0436 3.3791 16.5686 4.3147 16.3399 5.0603 16.1577 5.4331 16.0666 5.5718 15.9721 5.8506 15.7823 5.9376 15.6301 5.9538 15.3037 5.9618 15.1412 5.8742 14.8906 5.699 14.3892 5.5239 13.8878 5.4363 13.6372 5.4443 13.4748 5.4604 13.1483 5.5474 12.9961 5.8263 12.8063 5.965 12.7118 6.3378 12.6208 7.0833 12.4385 7.7489 12.2758 8.1546 11.9824 8.3333 11.6667" stroke="currentColor" stroke-linecap="round" stroke-width="2"/>
</svg>
