<svg xmlns="http://www.w3.org/2000/svg" width="20" height="20" viewBox="0 0 20 20" fill="none">
  <path d="M5.8333 9.1667L16.3292 5.793C17.0269 5.5687 17.5 4.9197 17.5 4.1869 17.5 3.2553 16.7447 2.5 15.8131 2.5H4.1869C3.2553 2.5 2.5 3.2553 2.5 4.1869 2.5 4.9197 2.9731 5.5687 3.6707 5.793L4.0984 5.9304C4.9352 6.1994 5.3536 6.3339 5.5934 6.663 5.8333 6.992 5.8333 7.4315 5.8333 8.3105V9.1667ZM5.8333 9.1667V13.3333" stroke="currentColor" stroke-linecap="round" stroke-linejoin="round" stroke-width="2"/>
  <path d="M14.1667 10.8333L3.6707 14.207C2.9731 14.4313 2.5 15.0802 2.5 15.8131 2.5 16.7447 3.2553 17.5 4.1869 17.5H15.8131C16.7447 17.5 17.5 16.7447 17.5 15.8131 17.5 15.0802 17.0269 14.4313 16.3292 14.207L15.9017 14.0696C15.0648 13.8006 14.6464 13.6661 14.4066 13.337 14.1667 13.0079 14.1667 12.5685 14.1667 11.6895V10.8333ZM14.1667 10.8333V6.6667" stroke="currentColor" stroke-linecap="round" stroke-linejoin="round" stroke-width="2"/>
</svg>
