<svg xmlns="http://www.w3.org/2000/svg" width="20" height="20" viewBox="0 0 20 20" fill="none">
  <path d="M18.3332 5.4183L15.467 8.2844C14.9788 8.7726 14.1874 8.7726 13.6993 8.2844L13.1248 7.71 12.5503 7.1355C12.0622 6.6474 12.0622 5.8559 12.5503 5.3677L15.4165 2.5016M13.1248 7.71L3.3331 17.5017" stroke="currentColor" stroke-linecap="round" stroke-linejoin="round" stroke-width="2"/>
  <path d="M16.6667 4.1658L14.5833 6.2492" stroke="currentColor" stroke-linecap="round" stroke-linejoin="round" stroke-width="2"/>
  <path d="M6.6576 7.4918C5.6623 8.4871 4.2973 8.7359 3.0531 7.4918 1.809 6.2476 1.1567 3.9815 2.152 2.9862 3.1474 1.9908 5.4134 2.6431 6.6576 3.8873 7.9018 5.1314 7.653 6.4964 6.6576 7.4918ZM6.6576 7.4918L16.6667 17.5008" stroke="currentColor" stroke-linecap="round" stroke-width="2"/>
  <path d="M7.6712 1.9972C8.4102 1.7826 9.1917 1.6675 10 1.6675 10.9597 1.6675 11.8816 1.8297 12.7397 2.1283M1.7078 9.1675C1.6806 9.4416 1.6667 9.7196 1.6667 10.0008 1.6667 11.694 2.1717 13.2692 3.0392 14.5842M6.4772 17.5551C7.5473 18.0549 8.741 18.3342 10 18.3342 11.2703 18.3342 12.4742 18.0499 13.5517 17.5416M16.9608 14.5842C17.8283 13.2692 18.3333 11.694 18.3333 10.0008 18.3333 9.519 18.2924 9.0467 18.2139 8.5873" stroke="currentColor" stroke-linecap="round" stroke-width="2"/>
</svg>
