<svg xmlns="http://www.w3.org/2000/svg" width="20" height="20" viewBox="0 0 20 20" fill="none">
  <path d="M6.6667 1.6667V7.5" stroke="currentColor" stroke-linecap="round" stroke-linejoin="round" stroke-width="2"/>
  <path d="M6.6667 11.6667L10.8333 7.5 7.4032 4.0699C6.9316 3.5983 6.292 3.3333 5.625 3.3333 4.958 3.3333 4.3184 3.5983 3.8468 4.0699L3.2366 4.6801C2.765 5.1517 2.5 5.7914 2.5 6.4583 2.5 7.1253 2.765 7.765 3.2366 8.2366L6.6667 11.6667Z" stroke="currentColor" stroke-linecap="round" stroke-linejoin="round" stroke-width="2"/>
  <path d="M10.8333 7.5L6.6667 11.6667 7.3019 14.2077C7.4183 14.6733 7.8367 15 8.3167 15 8.5942 15 8.8602 14.8898 9.0564 14.6936L13.8603 9.8897C14.0565 9.6935 14.1667 9.4275 14.1667 9.1501 14.1667 8.6701 13.84 8.2517 13.3743 8.1353L10.8333 7.5Z" stroke="currentColor" stroke-linecap="round" stroke-linejoin="round" stroke-width="2"/>
  <path d="M15 15.8333L16.6667 17.5M15.8333 12.5H17.5M11.6667 16.6667V18.3333" stroke="currentColor" stroke-linecap="round" stroke-linejoin="round" stroke-width="2"/>
</svg>
