<svg xmlns="http://www.w3.org/2000/svg" width="20" height="20" viewBox="0 0 20 20" fill="none">
  <path d="M8.3333 6.6667V5C8.3333 4.6125 8.3333 4.4188 8.2907 4.2598 8.1752 3.8284 7.8382 3.4915 7.4069 3.3759 7.2479 3.3333 7.0542 3.3333 6.6667 3.3333 6.2792 3.3333 6.0854 3.3333 5.9265 3.3759 5.4951 3.4915 5.1582 3.8284 5.0426 4.2598 5 4.4188 5 4.6125 5 5V6.6667H8.3333Z" stroke="currentColor" stroke-linecap="round" stroke-linejoin="round" stroke-width="2"/>
  <path d="M8.3333 6.6667H5L4.453 7.4872C3.8973 8.3208 3.6194 8.7376 3.4764 9.21 3.3333 9.6823 3.3333 10.1833 3.3333 11.1852V15C3.3333 16.5713 3.3333 17.357 3.8215 17.8452 4.3096 18.3333 5.0953 18.3333 6.6667 18.3333 8.238 18.3333 9.0237 18.3333 9.5118 17.8452 10 17.357 10 16.5713 10 15V11.1852C10 10.1833 10 9.6823 9.857 9.21 9.7139 8.7376 9.4361 8.3208 8.8803 7.4872L8.3333 6.6667Z" stroke="currentColor" stroke-linecap="round" stroke-linejoin="round" stroke-width="2"/>
  <path d="M9.5833 10H9.1667C7.9882 10 7.3989 10 7.0328 10.3661 6.6667 10.7323 6.6667 11.3215 6.6667 12.5 6.6667 13.6785 6.6667 14.2678 7.0328 14.6339 7.3989 15 7.9882 15 9.1667 15H9.5833" stroke="currentColor" stroke-linecap="round" stroke-linejoin="round" stroke-width="2"/>
  <path d="M11.5625 5H11.4583M16.5625 5H16.4583M14.0625 6.6666H13.9583M14.0625 3.3333H13.9583M16.5625 1.875H16.4583M16.5625 8.125H16.4583M11.6667 5C11.6667 5.115 11.5734 5.2083 11.4583 5.2083 11.3433 5.2083 11.25 5.115 11.25 5 11.25 4.8849 11.3433 4.7916 11.4583 4.7916 11.5734 4.7916 11.6667 4.8849 11.6667 5ZM16.6667 5C16.6667 5.115 16.5734 5.2083 16.4583 5.2083 16.3433 5.2083 16.25 5.115 16.25 5 16.25 4.8849 16.3433 4.7916 16.4583 4.7916 16.5734 4.7916 16.6667 4.8849 16.6667 5ZM14.1667 6.6666C14.1667 6.7817 14.0734 6.875 13.9583 6.875 13.8432 6.875 13.75 6.7817 13.75 6.6666 13.75 6.5516 13.8432 6.4583 13.9583 6.4583 14.0734 6.4583 14.1667 6.5516 14.1667 6.6666ZM14.1667 3.3333C14.1667 3.4483 14.0734 3.5416 13.9583 3.5416 13.8432 3.5416 13.75 3.4483 13.75 3.3333 13.75 3.2182 13.8432 3.125 13.9583 3.125 14.0734 3.125 14.1667 3.2182 14.1667 3.3333ZM16.6667 1.875C16.6667 1.9901 16.5734 2.0833 16.4583 2.0833 16.3433 2.0833 16.25 1.9901 16.25 1.875 16.25 1.7599 16.3433 1.6667 16.4583 1.6667 16.5734 1.6667 16.6667 1.7599 16.6667 1.875ZM16.6667 8.125C16.6667 8.2401 16.5734 8.3333 16.4583 8.3333 16.3433 8.3333 16.25 8.2401 16.25 8.125 16.25 8.0099 16.3433 7.9167 16.4583 7.9167 16.5734 7.9167 16.6667 8.0099 16.6667 8.125Z" stroke="currentColor" stroke-linecap="round" stroke-linejoin="round" stroke-width="2"/>
</svg>
