<svg xmlns="http://www.w3.org/2000/svg" width="20" height="20" viewBox="0 0 20 20" fill="none">
  <path d="M2.0833 10C2.0833 6.268 2.0833 4.4021 3.2427 3.2427 4.4021 2.0833 6.268 2.0833 10 2.0833 13.7319 2.0833 15.5979 2.0833 16.7573 3.2427 17.9167 4.4021 17.9167 6.268 17.9167 10 17.9167 13.7319 17.9167 15.5979 16.7573 16.7573 15.5979 17.9167 13.7319 17.9167 10 17.9167 6.268 17.9167 4.4021 17.9167 3.2427 16.7573 2.0833 15.5979 2.0833 13.7319 2.0833 10Z" stroke="currentColor" stroke-width="2"/>
  <path d="M7.0122 8.3333C6.8406 7.8478 6.3776 7.5 5.8333 7.5 5.143 7.5 4.5833 8.0596 4.5833 8.75 4.5833 9.4403 5.143 10 5.8333 10 6.5237 10 7.0833 10.5597 7.0833 11.25 7.0833 11.9403 6.5237 12.5 5.8333 12.5 5.2891 12.5 4.8261 12.1522 4.6545 11.6667" stroke="currentColor" stroke-linecap="round" stroke-width="2"/>
  <path d="M10.4167 12.5C9.7263 12.5 9.1667 11.9403 9.1667 11.25V8.75C9.1667 8.0596 9.7263 7.5 10.4167 7.5 11.107 7.5 11.6667 8.0596 11.6667 8.75V11.25C11.6667 11.9403 11.107 12.5 10.4167 12.5ZM10.4167 12.5L11.6667 13.75" stroke="currentColor" stroke-linecap="round" stroke-width="2"/>
  <path d="M13.75 7.5V10.8333C13.75 11.619 13.75 12.0118 13.9941 12.2559 14.2382 12.5 14.631 12.5 15.4167 12.5" stroke="currentColor" stroke-linecap="round" stroke-width="2"/>
</svg>
