<svg xmlns="http://www.w3.org/2000/svg" width="20" height="20" viewBox="0 0 20 20" fill="none">
  <path d="M10 18.3333C14.6023 18.3333 18.3333 14.6023 18.3333 10 18.3333 5.3976 14.6023 1.6667 10 1.6667 5.3976 1.6667 1.6667 5.3976 1.6667 10 1.6667 14.6023 5.3976 18.3333 10 18.3333Z" stroke="currentColor" stroke-width="2"/>
  <path d="M6.0775 9.34C6.6305 9.3109 7.0839 9.3407 7.3008 9.85 7.5508 10.4371 8.2508 12.3 8.4008 12.7 8.5738 13.1611 8.8508 13.4 9.6875 13.33" stroke="currentColor" stroke-linecap="round" stroke-width="2"/>
  <path d="M9.9266 9.34C9.0266 9.29 8.2481 10.7193 7.8866 11.35 7.4366 12.05 6.6999 13.35 5.8366 13.33" stroke="currentColor" stroke-linecap="round" stroke-width="2"/>
  <path d="M14.5833 9.1667H12.0833C12.0833 9.1667 13.7541 8.066 13.937 7.9409 14.1199 7.8158 14.5833 7.5449 14.5833 6.9403 14.5833 6.3357 13.9792 5.8333 13.3394 5.8333 12.6997 5.8333 12.0833 6.2788 12.0833 6.9465" stroke="currentColor" stroke-linecap="round" stroke-linejoin="round" stroke-width="2"/>
</svg>
