<svg xmlns="http://www.w3.org/2000/svg" width="20" height="20" viewBox="0 0 20 20" fill="none">
  <path d="M10.8333 14.1667L17.5 14.1667" stroke="currentColor" stroke-linecap="round" stroke-width="2"/>
  <path d="M9.1667 18.3333C7.8215 18.3333 6.724 18.305 5.5216 18.2508 4.0925 18.1863 2.9182 17.0958 2.7273 15.7039 2.6027 14.7956 2.5 13.8647 2.5 12.9167 2.5 11.9687 2.6027 11.0378 2.7273 10.1294 2.9182 8.7375 4.0925 7.6471 5.5216 7.5826 6.724 7.5283 7.9455 7.5 9.2907 7.5 10.6358 7.5 11.8573 7.5283 13.0598 7.5826 14.4443 7.6451 15.5897 8.6705 15.8333 10" stroke="currentColor" stroke-linecap="round" stroke-width="2"/>
  <path d="M5.4167 7.5V5.4167C5.4167 3.3456 7.0956 1.6667 9.1667 1.6667 11.2378 1.6667 12.9167 3.3456 12.9167 5.4167V7.5" stroke="currentColor" stroke-linecap="round" stroke-linejoin="round" stroke-width="2"/>
</svg>
