<svg xmlns="http://www.w3.org/2000/svg" width="20" height="20" viewBox="0 0 20 20" fill="none">
  <path d="M2.0833 10C2.0833 6.268 2.0833 4.4021 3.2427 3.2427 4.4021 2.0833 6.268 2.0833 10 2.0833 13.7319 2.0833 15.5979 2.0833 16.7573 3.2427 17.9167 4.4021 17.9167 6.268 17.9167 10 17.9167 13.7319 17.9167 15.5979 16.7573 16.7573 15.5979 17.9167 13.7319 17.9167 10 17.9167 6.268 17.9167 4.4021 17.9167 3.2427 16.7573 2.0833 15.5979 2.0833 13.7319 2.0833 10Z" stroke="currentColor" stroke-width="2"/>
  <path d="M9.0277 6.6667L7.3243 8.4287C6.6081 9.1694 6.25 9.5397 6.25 10 6.25 10.4603 6.6081 10.8306 7.3243 11.5713L9.0277 13.3333M13.75 6.6667L12.0465 8.4287C11.3303 9.1694 10.9723 9.5397 10.9723 10 10.9723 10.4603 11.3303 10.8306 12.0465 11.5713L13.75 13.3333" stroke="currentColor" stroke-linecap="round" stroke-linejoin="round" stroke-width="2"/>
</svg>
