<svg xmlns="http://www.w3.org/2000/svg" width="20" height="20" viewBox="0 0 20 20" fill="none">
  <path d="M15.4168 9.583C15.1877 8.7288 14.146 7.4967 12.5627 7.583 12.5627 7.583 10.9528 7.4967 9.3257 7.4967 7.6987 7.4967 6.8752 7.5205 5.6043 7.583 4.7502 7.583 3.396 8.0622 2.8752 9.5205 2.3954 10.9793 2.4165 13.9992 2.7085 15.5413 2.7711 16.3333 3.2069 17.4578 4.5002 18.0413 5.1252 18.4163 9.0418 18.2913 9.5835 18.333" stroke="currentColor" stroke-linecap="round" stroke-width="2"/>
  <path d="M5.4303 6.8302C5.3886 4.8505 5.3051 3.2876 7.5997 1.9956 8.3715 1.683 9.5188 1.4121 10.9373 2.0789 12.4183 2.975 12.6028 3.9233 12.7313 4.1628 13.0859 5.1006 12.8982 6.4343 12.9398 6.9761" stroke="currentColor" stroke-linecap="round" stroke-width="2"/>
  <path d="M13.0585 15.37C13.3085 15.49 13.6185 15.8 13.7685 16.05 13.8185 16.4 14.0685 15.05 15.2885 14.25M17.5002 15C17.5002 16.8409 16.0078 18.3333 14.1668 18.3333 12.3259 18.3333 10.8335 16.8409 10.8335 15 10.8335 13.1591 12.3259 11.6667 14.1668 11.6667 16.0078 11.6667 17.5002 13.1591 17.5002 15Z" stroke="currentColor" stroke-linecap="round" stroke-width="2"/>
</svg>
