<svg xmlns="http://www.w3.org/2000/svg" width="20" height="20" viewBox="0 0 20 20" fill="none">
  <path d="M17.2729 11.9708C17.5 12.4165 17.5 12.9999 17.5 14.1667 17.5 15.3334 17.5 15.9168 17.2729 16.3625 17.0732 16.7545 16.7545 17.0732 16.3625 17.2729 15.9168 17.5 15.3334 17.5 14.1667 17.5 12.9999 17.5 12.4165 17.5 11.9708 17.2729 11.5788 17.0732 11.2602 16.7545 11.0604 16.3625 10.8333 15.9168 10.8333 15.3334 10.8333 14.1667 10.8333 12.9999 10.8333 12.4165 11.0604 11.9708 11.2602 11.5788 11.5788 11.2602 11.9708 11.0604 12.4165 10.8333 12.9999 10.8333 14.1667 10.8333 15.3334 10.8333 15.9168 10.8333 16.3625 11.0604 16.7545 11.2602 17.0732 11.5788 17.2729 11.9708Z" stroke="currentColor" stroke-linecap="round" stroke-linejoin="round" stroke-width="2"/>
  <path d="M13.2696 8.3333C13.236 8.1283 13.1847 7.958 13.1062 7.8042 12.9065 7.4122 12.5878 7.0935 12.1958 6.8937 11.7502 6.6667 11.1668 6.6667 10 6.6667 8.8332 6.6667 8.2498 6.6667 7.8042 6.8937 7.4122 7.0935 7.0935 7.4122 6.8937 7.8042 6.6667 8.2498 6.6667 8.8332 6.6667 10 6.6667 11.1668 6.6667 11.7502 6.8937 12.1958 7.0935 12.5878 7.4122 12.9065 7.8042 13.1062 7.958 13.1847 8.1283 13.236 8.3333 13.2696" stroke="currentColor" stroke-linecap="round" stroke-linejoin="round" stroke-width="2"/>
  <path d="M9.1029 4.1667C9.0693 3.9616 9.018 3.7914 8.9396 3.6375 8.7398 3.2455 8.4212 2.9268 8.0292 2.7271 7.5835 2.5 7.0001 2.5 5.8333 2.5 4.6666 2.5 4.0832 2.5 3.6375 2.7271 3.2455 2.9268 2.9268 3.2455 2.7271 3.6375 2.5 4.0832 2.5 4.6666 2.5 5.8333 2.5 7.0001 2.5 7.5835 2.7271 8.0292 2.9268 8.4212 3.2455 8.7398 3.6375 8.9396 3.7914 9.018 3.9616 9.0693 4.1667 9.1029" stroke="currentColor" stroke-linecap="round" stroke-linejoin="round" stroke-width="2"/>
</svg>
