<svg xmlns="http://www.w3.org/2000/svg" width="20" height="20" viewBox="0 0 20 20" fill="none">
  <path d="M2.0833 10C2.0833 6.268 2.0833 4.4021 3.2427 3.2427 4.4021 2.0833 6.268 2.0833 10 2.0833 13.7319 2.0833 15.5979 2.0833 16.7573 3.2427 17.9167 4.4021 17.9167 6.268 17.9167 10 17.9167 13.7319 17.9167 15.5979 16.7573 16.7573 15.5979 17.9167 13.7319 17.9167 10 17.9167 6.268 17.9167 4.4021 17.9167 3.2427 16.7573 2.0833 15.5979 2.0833 13.7319 2.0833 10Z" stroke="currentColor" stroke-width="2"/>
  <path d="M13.3333 9.0277L11.5713 7.3243C10.8306 6.6081 10.4603 6.25 10 6.25 9.5397 6.25 9.1694 6.6081 8.4287 7.3243L6.6667 9.0277M13.3333 13.75L11.5713 12.0465C10.8306 11.3303 10.4603 10.9723 10 10.9723 9.5397 10.9723 9.1694 11.3303 8.4287 12.0465L6.6667 13.75" stroke="currentColor" stroke-linecap="round" stroke-linejoin="round" stroke-width="2"/>
</svg>
