<svg xmlns="http://www.w3.org/2000/svg" width="20" height="20" viewBox="0 0 20 20" fill="none">
  <path d="M13.7623 13.7624C14.2413 13.2834 14.1617 11.2485 14.1617 11.2485M13.7623 13.7624C13.2833 14.2414 11.2484 14.1617 11.2484 14.1617M13.7623 13.7624L10.8333 10.8333M6.2375 6.2376C6.7166 5.7586 8.7515 5.8383 8.7515 5.8383M6.2375 6.2376C5.7585 6.7166 5.8383 8.7515 5.8383 8.7515M6.2375 6.2376L9.1667 9.1667" stroke="currentColor" stroke-linecap="round" stroke-linejoin="round" stroke-width="2"/>
  <path d="M2.0833 10C2.0833 6.268 2.0833 4.4021 3.2427 3.2427 4.4021 2.0833 6.268 2.0833 10 2.0833 13.7319 2.0833 15.5979 2.0833 16.7573 3.2427 17.9167 4.4021 17.9167 6.268 17.9167 10 17.9167 13.7319 17.9167 15.5979 16.7573 16.7573 15.5979 17.9167 13.7319 17.9167 10 17.9167 6.268 17.9167 4.4021 17.9167 3.2427 16.7573 2.0833 15.5979 2.0833 13.7319 2.0833 10Z" stroke="currentColor" stroke-width="2"/>
</svg>
