<svg xmlns="http://www.w3.org/2000/svg" width="20" height="20" viewBox="0 0 20 20" fill="none">
  <path d="M2.0833 10C2.0833 6.268 2.0833 4.4021 3.2427 3.2427 4.4021 2.0833 6.268 2.0833 10 2.0833 13.7319 2.0833 15.5979 2.0833 16.7573 3.2427 17.9167 4.4021 17.9167 6.268 17.9167 10 17.9167 13.7319 17.9167 15.5979 16.7573 16.7573 15.5979 17.9167 13.7319 17.9167 10 17.9167 6.268 17.9167 4.4021 17.9167 3.2427 16.7573 2.0833 15.5979 2.0833 13.7319 2.0833 10Z" stroke="currentColor" stroke-width="2"/>
  <path d="M6.6667 7.5L13.3333 7.5M6.6667 7.5C6.6667 6.8481 8.3333 5.8333 8.3333 5.8333M6.6667 7.5C6.6667 8.1519 8.3333 9.1667 8.3333 9.1667M13.3333 12.5H6.6667M13.3333 12.5C13.3333 11.8482 11.6667 10.8333 11.6667 10.8333M13.3333 12.5C13.3333 13.1518 11.6667 14.1667 11.6667 14.1667" stroke="currentColor" stroke-linecap="round" stroke-linejoin="round" stroke-width="2"/>
</svg>
