<svg xmlns="http://www.w3.org/2000/svg" width="20" height="20" viewBox="0 0 20 20" fill="none">
  <path d="M2.0833 10C2.0833 6.268 2.0833 4.4021 3.2427 3.2427 4.4021 2.0833 6.268 2.0833 10 2.0833 13.7319 2.0833 15.5979 2.0833 16.7573 3.2427 17.9167 4.4021 17.9167 6.268 17.9167 10 17.9167 13.7319 17.9167 15.5979 16.7573 16.7573 15.5979 17.9167 13.7319 17.9167 10 17.9167 6.268 17.9167 4.4021 17.9167 3.2427 16.7573 2.0833 15.5979 2.0833 13.7319 2.0833 10Z" stroke="currentColor" stroke-width="2"/>
  <path d="M10.8194 9.1806C10.3404 8.7016 10.4201 6.6667 10.4201 6.6667M10.8194 9.1806C11.2984 9.6596 13.3333 9.5798 13.3333 9.5798M10.8194 9.1806L14.1667 5.8333M9.1776 10.8223C8.6986 10.3433 6.6637 10.4231 6.6637 10.4231M9.1776 10.8223C9.6566 11.3013 9.5768 13.3362 9.5768 13.3362M9.1776 10.8223L5.8333 14.1666" stroke="currentColor" stroke-linecap="round" stroke-linejoin="round" stroke-width="2"/>
</svg>
