<svg xmlns="http://www.w3.org/2000/svg" width="20" height="20" viewBox="0 0 20 20" fill="none">
  <path d="M2.0833 10C2.0833 6.268 2.0833 4.4021 3.2427 3.2427 4.4021 2.0833 6.268 2.0833 10 2.0833 13.7319 2.0833 15.5979 2.0833 16.7573 3.2427 17.9167 4.4021 17.9167 6.268 17.9167 10 17.9167 13.7319 17.9167 15.5979 16.7573 16.7573 15.5979 17.9167 13.7319 17.9167 10 17.9167 6.268 17.9167 4.4021 17.9167 3.2427 16.7573 2.0833 15.5979 2.0833 13.7319 2.0833 10Z" stroke="currentColor" stroke-width="2"/>
  <path d="M10.3878 12.5888C11.0305 13.1393 11.9411 14.2518 12.3189 14.1384M12.3189 14.1384C12.7591 14.1384 13.5984 13.0473 14.2138 12.5889M12.3189 14.1384C12.1908 12.1463 12.5848 9.5787 11.7452 8.5328 10.8133 7.4318 8.1638 7.8334 5.8186 7.7231M5.8186 7.7231C5.7693 8.2787 6.8533 8.996 7.4146 9.6276M5.8186 7.7231C5.716 7.354 6.8771 6.4102 7.4122 5.8569" stroke="currentColor" stroke-linecap="round" stroke-linejoin="round" stroke-width="2"/>
</svg>
