<svg xmlns="http://www.w3.org/2000/svg" width="20" height="20" viewBox="0 0 20 20" fill="none">
  <path d="M10 17.9167H10 10C13.732 17.9167 15.5979 17.9167 16.7573 16.7573 17.9167 15.5979 17.9167 13.7319 17.9167 10V10 10C17.9167 6.268 17.9167 4.4021 16.7573 3.2427 15.5979 2.0833 13.732 2.0833 10 2.0833 6.2681 2.0833 4.4021 2.0833 3.2427 3.2427 2.0834 4.4021 2.0834 6.268 2.0834 10 2.0834 13.7319 2.0834 15.5979 3.2427 16.7573 4.4021 17.9167 6.2681 17.9167 10 17.9167Z" stroke="currentColor" stroke-linecap="round" stroke-linejoin="round" stroke-width="2"/>
  <path d="M6.6666 13.3333V7.1987C6.6666 6.9049 6.9049 6.6667 7.1987 6.6667 7.3856 6.6667 7.5588 6.7647 7.655 6.925L10 10.8333 12.345 6.925C12.4412 6.7647 12.6143 6.6667 12.8012 6.6667 13.0951 6.6667 13.3333 6.9049 13.3333 7.1987V13.3333" stroke="currentColor" stroke-linecap="round" stroke-linejoin="round" stroke-width="2"/>
</svg>
