<svg xmlns="http://www.w3.org/2000/svg" width="20" height="20" viewBox="0 0 20 20" fill="none">
  <path d="M7.5 10C7.5 8.8215 7.5 8.2322 7.8661 7.8661 8.2322 7.5 8.8215 7.5 10 7.5H10.8333C11.2208 7.5 11.4146 7.5 11.5735 7.4574 12.0049 7.3418 12.3418 7.0049 12.4574 6.5735 12.5 6.4146 12.5 6.2208 12.5 5.8333 12.5 5.0584 12.5 4.6709 12.4148 4.3529 12.1837 3.4902 11.5098 2.8164 10.6471 2.5852 10.3292 2.5 9.9417 2.5 9.1667 2.5H7.5C5.143 2.5 3.9645 2.5 3.2322 3.2322 2.5 3.9645 2.5 5.143 2.5 7.5V10C2.5 11.3808 3.6193 12.5 5 12.5" stroke="currentColor" stroke-linecap="round" stroke-linejoin="round" stroke-width="2"/>
  <path d="M12.5 10C12.5 11.1785 12.5 11.7677 12.1339 12.1339 11.7677 12.5 11.1785 12.5 10 12.5H9.1667C8.7792 12.5 8.5854 12.5 8.4265 12.5426 7.9951 12.6582 7.6582 12.9951 7.5426 13.4265 7.5 13.5854 7.5 13.7792 7.5 14.1667 7.5 14.9417 7.5 15.3292 7.5852 15.6471 7.8163 16.5098 8.4902 17.1837 9.3529 17.4148 9.6708 17.5 10.0583 17.5 10.8333 17.5H12.5C14.857 17.5 16.0355 17.5 16.7678 16.7678 17.5 16.0355 17.5 14.857 17.5 12.5V10C17.5 8.6193 16.3808 7.5 15 7.5" stroke="currentColor" stroke-linecap="round" stroke-linejoin="round" stroke-width="2"/>
</svg>
