<svg xmlns="http://www.w3.org/2000/svg" width="20" height="20" viewBox="0 0 20 20" fill="none">
  <path d="M14.9523 14.2143L14.1667 15M14.1667 15L13.381 15.7857M14.1667 15L14.9523 15.7857M14.1667 15L13.381 14.2143M16.5237 17.357C15.2219 18.6588 13.1114 18.6588 11.8097 17.357 10.5079 16.0553 10.5079 13.9447 11.8097 12.643 13.1114 11.3413 15.2219 11.3413 16.5237 12.643 17.8254 13.9447 17.8254 16.0553 16.5237 17.357Z" stroke="currentColor" stroke-linecap="round" stroke-width="2"/>
  <path d="M9.5833 18.3324C9.4458 18.333 9.3069 18.3333 9.1667 18.3333 7.8461 18.3333 6.6469 18.305 5.4664 18.2508 4.0634 18.1863 2.9106 17.0958 2.7232 15.7039 2.6009 14.7956 2.5 13.8647 2.5 12.9167 2.5 11.9687 2.6009 11.0378 2.7232 10.1294 2.9106 8.7375 4.0634 7.6471 5.4664 7.5826 6.6469 7.5283 7.8461 7.5 9.1667 7.5 10.4872 7.5 11.6864 7.5283 12.8669 7.5826 14.0803 7.6384 15.0402 8.4615 15.4167 9.5833" stroke="currentColor" stroke-linecap="round" stroke-width="2"/>
  <path d="M5.4167 7.5V5.4167C5.4167 3.3456 7.0956 1.6667 9.1667 1.6667 11.2378 1.6667 12.9167 3.3456 12.9167 5.4167V7.5" stroke="currentColor" stroke-linecap="round" stroke-linejoin="round" stroke-width="2"/>
</svg>
