<svg xmlns="http://www.w3.org/2000/svg" width="20" height="20" viewBox="0 0 20 20" fill="none">
  <path d="M2.0833 10C2.0833 6.268 2.0833 4.4021 3.2427 3.2427 4.4021 2.0833 6.268 2.0833 10 2.0833 13.7319 2.0833 15.5979 2.0833 16.7573 3.2427 17.9167 4.4021 17.9167 6.268 17.9167 10 17.9167 13.7319 17.9167 15.5979 16.7573 16.7573 15.5979 17.9167 13.7319 17.9167 10 17.9167 6.268 17.9167 4.4021 17.9167 3.2427 16.7573 2.0833 15.5979 2.0833 13.7319 2.0833 10Z" stroke="currentColor" stroke-width="2"/>
  <path d="M9.1806 9.1806C9.6596 8.7016 9.5799 6.6667 9.5799 6.6667M9.1806 9.1806C8.7016 9.6596 6.6667 9.5798 6.6667 9.5798M9.1806 9.1806L5.8333 5.8333M10.8224 10.8223C11.3014 10.3433 13.3363 10.4231 13.3363 10.4231M10.8224 10.8223C10.3434 11.3013 10.4232 13.3362 10.4232 13.3362M10.8224 10.8223L14.1667 14.1666" stroke="currentColor" stroke-linecap="round" stroke-linejoin="round" stroke-width="2"/>
</svg>
