<svg xmlns="http://www.w3.org/2000/svg" width="20" height="20" viewBox="0 0 20 20" fill="none">
  <path d="M7.9167 17.0833C5.9735 17.0833 5.002 17.0833 4.2485 16.732 3.4495 16.3594 2.8073 15.7172 2.4347 14.9182 2.0833 14.1647 2.0833 13.1932 2.0833 11.25V9.5833C2.0833 6.0478 2.0833 4.28 3.1817 3.1817 4.28 2.0833 6.0478 2.0833 9.5833 2.0833H11.25C13.1932 2.0833 14.1647 2.0833 14.9182 2.4347 15.7172 2.8073 16.3594 3.4495 16.732 4.2485 17.0833 5.002 17.0833 5.9735 17.0833 7.9167" stroke="currentColor" stroke-linecap="round" stroke-linejoin="round" stroke-width="2"/>
  <path d="M10.8678 16.0873L9.3739 11.796C8.8122 10.1822 8.5313 9.3752 8.9535 8.9533 9.3757 8.5314 10.1833 8.8121 11.7983 9.3734L16.0841 10.863C16.98 11.1743 17.428 11.3301 17.5247 11.6316 17.5513 11.7148 17.5605 11.8025 17.5517 11.8893 17.5196 12.2043 17.1137 12.4494 16.3018 12.9395 16.0761 13.0757 15.8993 13.1824 15.7658 13.2789 15.6617 13.3542 15.6096 13.3918 15.5943 13.5837 15.5789 13.7754 15.6528 13.8494 15.8007 13.9973L17.5737 15.7702C17.7933 15.9898 17.9167 16.2877 17.9167 16.5983 17.9167 16.9088 17.7933 17.2067 17.5737 17.4263L17.4352 17.5648C17.2099 17.7901 16.9043 17.9167 16.5857 17.9167 16.2671 17.9167 15.9615 17.7901 15.7362 17.5648L13.9863 15.8148C13.8368 15.6654 13.7622 15.5907 13.5697 15.6068 13.3771 15.6228 13.3389 15.6763 13.2626 15.7833 13.1694 15.914 13.0662 16.0852 12.9353 16.3023 12.4512 17.1052 12.2093 17.5066 11.8986 17.5419 11.807 17.5523 11.7142 17.5427 11.6267 17.5137 11.3299 17.4152 11.1759 16.9725 10.8678 16.0873Z" stroke="currentColor" stroke-linecap="round" stroke-linejoin="round" stroke-width="2"/>
</svg>
