<svg xmlns="http://www.w3.org/2000/svg" width="20" height="20" viewBox="0 0 20 20" fill="none">
  <circle cx="7.083333333333334" cy="7.083333333333334" r="1.25" stroke="currentColor" stroke-linecap="round" stroke-linejoin="round" stroke-width="2"/>
  <path d="M8.3333 8.3333L10 10M14.1667 14.1667L12.0833 12.0833M8.3333 11.6667L10 10M14.1667 5.8333L10 10" stroke="currentColor" stroke-linecap="round" stroke-linejoin="round" stroke-width="2"/>
  <circle cx="7.083333333333334" cy="12.916666666666668" r="1.25" stroke="currentColor" stroke-linecap="round" stroke-linejoin="round" stroke-width="2"/>
  <path d="M11.6667 17.9167C12.1163 17.9123 12.5318 17.9043 12.9167 17.8891M8.3334 17.9167C7.8838 17.9123 7.4683 17.9043 7.0833 17.8891M15.8333 17.3911C16.1879 17.2331 16.4912 17.028 16.7573 16.7618 17.9167 15.6021 17.9167 13.7356 17.9167 10.0024 17.9167 6.2693 17.9167 4.4028 16.7573 3.2431 15.5979 2.0833 13.7319 2.0833 10 2.0833 6.268 2.0833 4.4021 2.0833 3.2427 3.2431 2.0833 4.4028 2.0833 6.2693 2.0833 10.0024 2.0833 13.7356 2.0833 15.6021 3.2427 16.7618 3.5088 17.028 3.8121 17.2331 4.1667 17.3911" stroke="currentColor" stroke-linecap="round" stroke-linejoin="round" stroke-width="2"/>
</svg>
