<svg xmlns="http://www.w3.org/2000/svg" width="20" height="20" viewBox="0 0 20 20" fill="none">
  <path d="M10 17.5H10 10C13.5355 17.5 15.3033 17.5 16.4017 16.4017 17.5 15.3033 17.5 13.5355 17.5 10V10 10C17.5 6.4645 17.5 4.6967 16.4017 3.5983 15.3033 2.5 13.5355 2.5 10 2.5 6.4645 2.5 4.6967 2.5 3.5983 3.5983 2.5 4.6967 2.5 6.4645 2.5 10 2.5 13.5355 2.5 15.3033 3.5983 16.4017 4.6967 17.5 6.4645 17.5 10 17.5Z" stroke="currentColor" stroke-linecap="round" stroke-linejoin="round" stroke-width="2"/>
  <path d="M13.1062 7.8042C13.3333 8.2498 13.3333 8.8332 13.3333 10 13.3333 11.1668 13.3333 11.7502 13.1062 12.1958 12.9065 12.5878 12.5878 12.9065 12.1958 13.1062 11.7502 13.3333 11.1668 13.3333 10 13.3333 8.8332 13.3333 8.2498 13.3333 7.8042 13.1062 7.4122 12.9065 7.0935 12.5878 6.8937 12.1958 6.6667 11.7502 6.6667 11.1668 6.6667 10 6.6667 8.8332 6.6667 8.2498 6.8937 7.8042 7.0935 7.4122 7.4122 7.0935 7.8042 6.8937 8.2498 6.6667 8.8332 6.6667 10 6.6667 11.1668 6.6667 11.7502 6.6667 12.1958 6.8937 12.5878 7.0935 12.9065 7.4122 13.1062 7.8042Z" stroke="currentColor" stroke-linecap="round" stroke-linejoin="round" stroke-width="2"/>
</svg>
