<svg xmlns="http://www.w3.org/2000/svg" width="20" height="20" viewBox="0 0 20 20" fill="none">
  <path d="M2.0833 10C2.0833 6.268 2.0833 4.4021 3.2427 3.2427 4.4021 2.0833 6.268 2.0833 10 2.0833 13.7319 2.0833 15.5979 2.0833 16.7573 3.2427 17.9167 4.4021 17.9167 6.268 17.9167 10 17.9167 13.7319 17.9167 15.5979 16.7573 16.7573 15.5979 17.9167 13.7319 17.9167 10 17.9167 6.268 17.9167 4.4021 17.9167 3.2427 16.7573 2.0833 15.5979 2.0833 13.7319 2.0833 10Z" stroke="currentColor" stroke-width="2"/>
  <path d="M13.75 9.6213C13.75 8.2493 13.7237 7.7273 12.25 7.7273L7.2838 7.7273C6.4894 7.7273 6.3986 7.5396 6.8919 6.9168L7.75 5.8333M6.25 10.3788C6.25 11.7507 6.2763 12.2728 7.75 12.2728H12.7162C13.5106 12.2728 13.6013 12.4604 13.1082 13.0832L12.25 14.1667" stroke="currentColor" stroke-linecap="round" stroke-linejoin="round" stroke-width="2"/>
</svg>
