<svg xmlns="http://www.w3.org/2000/svg" width="20" height="20" viewBox="0 0 20 20" fill="none">
  <path d="M8.3323 2.0833C7.8825 2.0876 7.4667 2.0957 7.0815 2.111M11.6677 2.0833C12.1175 2.0876 12.5333 2.0957 12.9185 2.111M15.8369 2.6091C16.1917 2.7671 16.4953 2.9723 16.7615 3.2385 17.0278 3.5048 17.2328 3.8083 17.3909 4.1631M2.6091 4.1631C2.7671 3.8083 2.9723 3.5048 3.2385 3.2385 3.5048 2.9723 3.8083 2.7671 4.1631 2.6091M17.9167 8.3323C17.9123 7.8825 17.9043 7.4667 17.8891 7.0815M17.9167 11.6677C17.9123 12.1174 17.9043 12.5333 17.8891 12.9184M17.3909 15.8369C17.2328 16.1917 17.0278 16.4953 16.7615 16.7615 16.4953 17.0278 16.1917 17.2328 15.8369 17.3909M12.9185 17.889C12.5333 17.9043 12.1175 17.9123 11.6677 17.9167M8.3323 17.9167C7.8825 17.9123 7.4667 17.9043 7.0815 17.889M4.1631 17.3909C3.8083 17.2328 3.5048 17.0278 3.2385 16.7615 2.9723 16.4953 2.7671 16.1917 2.6091 15.8369M2.0833 11.6677C2.0876 12.1174 2.0957 12.5333 2.111 12.9184M2.0833 8.3324C2.0876 7.8825 2.0957 7.4667 2.111 7.0815" stroke="currentColor" stroke-linecap="round" stroke-linejoin="round" stroke-width="2"/>
  <path d="M10 6.6667V10" stroke="currentColor" stroke-linecap="round" stroke-linejoin="round" stroke-width="2"/>
  <path d="M6.6667 6.6667V11.6667" stroke="currentColor" stroke-linecap="round" stroke-linejoin="round" stroke-width="2"/>
  <path d="M13.3333 6.6667V13.3333" stroke="currentColor" stroke-linecap="round" stroke-linejoin="round" stroke-width="2"/>
</svg>
