<svg xmlns="http://www.w3.org/2000/svg" width="20" height="20" viewBox="0 0 20 20" fill="none">
  <path d="M2.0833 10C2.0833 6.268 2.0833 4.4021 3.2427 3.2427 4.4021 2.0833 6.268 2.0833 10 2.0833 13.7319 2.0833 15.5979 2.0833 16.7573 3.2427 17.9167 4.4021 17.9167 6.268 17.9167 10 17.9167 13.7319 17.9167 15.5979 16.7573 16.7573 15.5979 17.9167 13.7319 17.9167 10 17.9167 6.268 17.9167 4.4021 17.9167 3.2427 16.7573 2.0833 15.5979 2.0833 13.7319 2.0833 10Z" stroke="currentColor" stroke-width="2"/>
  <path d="M10.9723 6.6667L12.6758 8.4287C13.3919 9.1694 13.75 9.5397 13.75 10 13.75 10.4603 13.3919 10.8306 12.6758 11.5713L10.9723 13.3333M6.25 6.6667L7.9535 8.4287C8.6697 9.1694 9.0277 9.5397 9.0277 10 9.0277 10.4603 8.6697 10.8306 7.9535 11.5713L6.25 13.3333" stroke="currentColor" stroke-linecap="round" stroke-linejoin="round" stroke-width="2"/>
</svg>
