<svg xmlns="http://www.w3.org/2000/svg" width="20" height="20" viewBox="0 0 20 20" fill="none">
  <path d="M3.5565 15.7039C3.7439 17.0958 4.8968 18.1863 6.2997 18.2508 7.4802 18.305 8.6794 18.3333 10 18.3333 11.3206 18.3333 12.5198 18.305 13.7003 18.2508 15.1032 18.1863 16.2561 17.0958 16.4435 15.7039 16.5658 14.7956 16.6667 13.8647 16.6667 12.9167 16.6667 11.9687 16.5658 11.0378 16.4435 10.1294 16.2561 8.7375 15.1032 7.6471 13.7003 7.5826 12.5198 7.5283 11.3206 7.5 10 7.5 8.6794 7.5 7.4802 7.5283 6.2997 7.5826 4.8968 7.6471 3.7439 8.7375 3.5565 10.1294 3.4342 11.0378 3.3333 11.9687 3.3333 12.9167 3.3333 13.8647 3.4342 14.7956 3.5565 15.7039Z" stroke="currentColor" stroke-width="2"/>
  <path d="M6.25 7.5V5.4167C6.25 3.3456 7.9289 1.6667 10 1.6667 12.0711 1.6667 13.75 3.3456 13.75 5.4167V7.5" stroke="currentColor" stroke-linecap="round" stroke-linejoin="round" stroke-width="2"/>
  <path d="M8.0208 12.9167H7.9167M8.125 12.9167C8.125 13.0318 8.0317 13.125 7.9167 13.125 7.8016 13.125 7.7083 13.0318 7.7083 12.9167 7.7083 12.8016 7.8016 12.7083 7.9167 12.7083 8.0317 12.7083 8.125 12.8016 8.125 12.9167Z" stroke="currentColor" stroke-linecap="round" stroke-width="2"/>
  <path d="M12.1875 12.9167H12.0833M12.2917 12.9167C12.2917 13.0318 12.1984 13.125 12.0833 13.125 11.9683 13.125 11.875 13.0318 11.875 12.9167 11.875 12.8016 11.9683 12.7083 12.0833 12.7083 12.1984 12.7083 12.2917 12.8016 12.2917 12.9167Z" stroke="currentColor" stroke-linecap="round" stroke-width="2"/>
</svg>
