<svg xmlns="http://www.w3.org/2000/svg" width="20" height="20" viewBox="0 0 20 20" fill="none">
  <path d="M2.0833 9.9999C2.0833 6.268 2.0833 4.402 3.2427 3.2426 4.4021 2.0833 6.268 2.0833 10 2.0833 13.7319 2.0833 15.5979 2.0833 16.7573 3.2426 17.9167 4.402 17.9167 6.268 17.9167 9.9999 17.9167 13.7319 17.9167 15.5978 16.7573 16.7572 15.5979 17.9166 13.7319 17.9166 10 17.9166 6.268 17.9166 4.4021 17.9166 3.2427 16.7572 2.0833 15.5978 2.0833 13.7319 2.0833 9.9999Z" stroke="currentColor" stroke-width="2"/>
  <path d="M13.1673 13.1674L6.8326 6.8327M13.1673 13.1674C13.537 12.7978 13.1748 11.0543 13.1673 10.5279M13.1673 13.1674C12.7978 13.5371 11.0543 13.1749 10.5279 13.1674M6.8326 6.8327C7.2023 6.463 8.9457 6.8252 9.4721 6.8327M6.8326 6.8327C6.463 7.2023 6.8251 8.9457 6.8326 9.4722" stroke="currentColor" stroke-linecap="round" stroke-linejoin="round" stroke-width="2"/>
</svg>
