<svg xmlns="http://www.w3.org/2000/svg" width="20" height="20" viewBox="0 0 20 20" fill="none">
  <path d="M2.0833 10C2.0833 6.268 2.0833 4.4021 3.2427 3.2427 4.4021 2.0833 6.268 2.0833 10 2.0833 13.7319 2.0833 15.5979 2.0833 16.7573 3.2427 17.9167 4.4021 17.9167 6.268 17.9167 10 17.9167 13.7319 17.9167 15.5979 16.7573 16.7573 15.5979 17.9167 13.7319 17.9167 10 17.9167 6.268 17.9167 4.4021 17.9167 3.2427 16.7573 2.0833 15.5979 2.0833 13.7319 2.0833 10Z" stroke="currentColor" stroke-linejoin="round" stroke-width="2"/>
  <path d="M15 6.6584H10.4306C9.75 6.6584 9.55 6.6918 9.4158 7.3785L8.295 12.0495C8.0183 13.1563 7.8755 13.3196 7.6 13.3418 7.3 13.2418 7.1581 12.9853 6.65 11.9418L6.3626 11.3084C6.1437 10.8589 6.0713 10.6693 5.85 10.6084 5.517 10.5168 5.256 10.7758 5 10.9418M10.9196 9.5185C11.2696 9.5069 11.6496 9.4918 11.8576 9.8385 12.1437 10.4155 12.5963 11.5978 12.7646 11.9729 12.8488 12.1172 12.8996 12.2418 13.1996 12.3418 13.424 12.3707 13.7496 12.3785 13.7496 12.3785M13.9506 9.5083C13.2454 9.5083 12.8254 10.2967 12.4306 10.7907 11.9228 11.5463 11.4006 12.3917 10.7406 12.3683" stroke="currentColor" stroke-linecap="round" stroke-linejoin="round" stroke-width="2"/>
</svg>
