<svg xmlns="http://www.w3.org/2000/svg" width="20" height="20" viewBox="0 0 20 20" fill="none">
  <path d="M12.25 5.8333L13.1082 6.9168C13.6013 7.5396 13.5106 7.7273 12.7162 7.7273L7.75 7.7273C6.3798 7.7273 6.25 8.4376 6.25 9.6213M7.75 14.1667L6.8919 13.0832C6.3986 12.4604 6.4894 12.2728 7.2838 12.2728H12.25C13.6202 12.2728 13.75 11.5625 13.75 10.3788" stroke="currentColor" stroke-linecap="round" stroke-linejoin="round" stroke-width="2"/>
  <path d="M2.0833 10C2.0833 6.268 2.0833 4.4021 3.2427 3.2427 4.4021 2.0833 6.268 2.0833 10 2.0833 13.7319 2.0833 15.5979 2.0833 16.7573 3.2427 17.9167 4.4021 17.9167 6.268 17.9167 10 17.9167 13.7319 17.9167 15.5979 16.7573 16.7573 15.5979 17.9167 13.7319 17.9167 10 17.9167 6.268 17.9167 4.4021 17.9167 3.2427 16.7573 2.0833 15.5979 2.0833 13.7319 2.0833 10Z" stroke="currentColor" stroke-width="2"/>
</svg>
