<svg xmlns="http://www.w3.org/2000/svg" width="20" height="20" viewBox="0 0 20 20" fill="none">
  <path d="M7.0833 7.0833V10.4167M7.0833 10.4167V14.5833M7.0833 10.4167H10.4167M9.5833 5.4167H10.4167C11.7974 5.4167 12.9167 6.536 12.9167 7.9167 12.9167 8.1692 12.8793 8.4131 12.8096 8.6429" stroke="currentColor" stroke-linecap="round" stroke-linejoin="round" stroke-width="2"/>
  <path d="M1.6667 1.6667L18.3333 18.3333" stroke="currentColor" stroke-linecap="round" stroke-linejoin="round" stroke-width="2"/>
  <path d="M16.7573 16.7573C15.5979 17.9167 13.732 17.9167 10 17.9167 6.2681 17.9167 4.4021 17.9167 3.2427 16.7573 2.0834 15.5979 2.0834 13.7319 2.0834 10 2.0834 6.268 2.0834 4.4021 3.2427 3.2427M6.3256 2.1589C7.2986 2.0833 8.4983 2.0833 10 2.0833 13.732 2.0833 15.5979 2.0833 16.7573 3.2427 17.9167 4.4021 17.9167 6.268 17.9167 10 17.9167 11.5018 17.9167 12.7014 17.8412 13.6744" stroke="currentColor" stroke-linecap="round" stroke-linejoin="round" stroke-width="2"/>
</svg>
