<svg xmlns="http://www.w3.org/2000/svg" width="20" height="20" viewBox="0 0 20 20" fill="none">
  <path d="M16.9183 3.544C17.9167 4.7128 17.9167 6.4752 17.9167 10 17.9167 13.5248 17.9167 15.2872 16.9183 16.456 16.7766 16.622 16.622 16.7766 16.456 16.9183 15.2872 17.9167 13.5248 17.9167 10 17.9167 6.4752 17.9167 4.7128 17.9167 3.544 16.9183 3.378 16.7766 3.2234 16.622 3.0816 16.456 2.0833 15.2872 2.0833 13.5248 2.0833 10 2.0833 6.4752 2.0833 4.7128 3.0816 3.544 3.2234 3.378 3.378 3.2234 3.544 3.0816 4.7128 2.0833 6.4752 2.0833 10 2.0833 13.5248 2.0833 15.2872 2.0833 16.456 3.0816 16.622 3.2234 16.7766 3.378 16.9183 3.544Z" stroke="currentColor" stroke-linecap="round" stroke-linejoin="round" stroke-width="2"/>
  <path d="M12.5 7.5L6.6667 13.3333" stroke="currentColor" stroke-linecap="round" stroke-width="2"/>
  <path d="M8.3333 6.7606C8.3333 6.7606 12.3573 6.4214 12.9679 7.0321 13.5786 7.6427 13.2393 11.6667 13.2393 11.6667" stroke="currentColor" stroke-linecap="round" stroke-linejoin="round" stroke-width="2"/>
</svg>
