<svg xmlns="http://www.w3.org/2000/svg" width="20" height="20" viewBox="0 0 20 20" fill="none">
  <path d="M9.2215 18.3333C7.8653 18.3333 6.7588 18.305 5.5464 18.2508 4.1056 18.1863 2.9217 17.0958 2.7292 15.7039 2.6036 14.7956 2.5 13.8647 2.5 12.9167 2.5 11.9687 2.6036 11.0378 2.7292 10.1294 2.9217 8.7375 4.1056 7.6471 5.5464 7.5826 6.7588 7.5283 7.9903 7.5 9.3466 7.5 10.7027 7.5 11.9343 7.5283 13.1467 7.5826 14.3928 7.6384 15.4467 8.4615 15.8333 9.5833" stroke="currentColor" stroke-linecap="round" stroke-width="2"/>
  <path d="M5.4167 7.5V5.4167C5.4167 3.3456 7.0956 1.6667 9.1667 1.6667 11.2378 1.6667 12.9167 3.3456 12.9167 5.4167V7.5" stroke="currentColor" stroke-linecap="round" stroke-linejoin="round" stroke-width="2"/>
  <path d="M14.1667 18.3333L14.1667 11.6667M10.8333 15H17.5" stroke="currentColor" stroke-linecap="round" stroke-width="2"/>
</svg>
