<svg xmlns="http://www.w3.org/2000/svg" width="20" height="20" viewBox="0 0 20 20" fill="none">
  <path d="M17.9167 8.3353C17.9123 7.8856 17.9043 7.4699 17.889 7.0849M17.9167 11.6696C17.9123 12.1193 17.9043 12.5349 17.889 12.92M17.3909 4.1673C17.2328 3.8126 17.0278 3.5092 16.7615 3.2431 15.6014 2.0833 13.7343 2.0833 10 2.0833 6.2658 2.0833 4.3986 2.0833 3.2385 3.2431 2.9723 3.5092 2.7671 3.8126 2.6091 4.1673M17.3909 15.8376C17.2328 16.1923 17.0278 16.4957 16.7615 16.7618 16.4952 17.028 16.1917 17.2331 15.8369 17.3911M11.6677 17.9167C12.1175 17.9123 12.5333 17.9043 12.9185 17.8891M8.3324 17.9167C7.8825 17.9123 7.4667 17.9043 7.0815 17.8891M4.1631 17.3911C3.8083 17.2331 3.5048 17.028 3.2385 16.7618 2.9723 16.4957 2.7671 16.1923 2.6091 15.8376M2.111 12.92C2.0957 12.5349 2.0876 12.1193 2.0833 11.6696M2.0833 8.3353C2.0876 7.8856 2.0957 7.4699 2.111 7.0849" stroke="currentColor" stroke-linecap="round" stroke-linejoin="round" stroke-width="2"/>
</svg>
