<svg xmlns="http://www.w3.org/2000/svg" width="20" height="20" viewBox="0 0 20 20" fill="none">
  <path d="M2.0833 10C2.0833 6.268 2.0833 4.4021 3.2427 3.2427 4.4021 2.0833 6.268 2.0833 10 2.0833 13.7319 2.0833 15.5979 2.0833 16.7573 3.2427 17.9167 4.4021 17.9167 6.268 17.9167 10 17.9167 13.7319 17.9167 15.5979 16.7573 16.7573 15.5979 17.9167 13.7319 17.9167 10 17.9167 6.268 17.9167 4.4021 17.9167 3.2427 16.7573 2.0833 15.5979 2.0833 13.7319 2.0833 10Z" stroke="currentColor" stroke-width="2"/>
  <path d="M8.2014 10.5491C7.6411 11.2073 6.5025 12.0227 6.7052 12.4098M6.7052 12.4098C6.5923 12.8045 7.6946 13.5848 8.2039 14.18M6.7052 12.4098C9.0013 12.4571 10.4061 12.194 11.7622 10.9147 13.1745 9.5823 13.4374 8.1445 13.3231 5.8378" stroke="currentColor" stroke-linecap="round" stroke-linejoin="round" stroke-width="2"/>
</svg>
