<svg xmlns="http://www.w3.org/2000/svg" width="20" height="20" viewBox="0 0 20 20" fill="none">
  <path d="M2.0833 10C2.0833 6.268 2.0833 4.4021 3.2427 3.2427 4.4021 2.0833 6.268 2.0833 10 2.0833 13.7319 2.0833 15.5979 2.0833 16.7573 3.2427 17.9167 4.4021 17.9167 6.268 17.9167 10 17.9167 13.7319 17.9167 15.5979 16.7573 16.7573 15.5979 17.9167 13.7319 17.9167 10 17.9167 6.268 17.9167 4.4021 17.9167 3.2427 16.7573 2.0833 15.5979 2.0833 13.7319 2.0833 10Z" stroke="currentColor" stroke-width="2"/>
  <path d="M9.6252 12.5871C8.9824 13.1376 8.0719 14.2501 7.694 14.1367M7.694 14.1367C7.2539 14.1367 6.4146 13.0455 5.7992 12.5872M7.694 14.1367C7.8222 12.1445 7.4281 9.5769 8.2678 8.531 9.1997 7.43 11.8492 7.8317 14.1944 7.7213M14.1944 7.7213C14.2437 8.2769 13.1597 8.9943 12.5984 9.6258M14.1944 7.7213C14.297 7.3523 13.1359 6.4085 12.6008 5.8552" stroke="currentColor" stroke-linecap="round" stroke-linejoin="round" stroke-width="2"/>
</svg>
