<svg xmlns="http://www.w3.org/2000/svg" width="20" height="20" viewBox="0 0 20 20" fill="none">
  <path d="M14.0237 5.8853C15 6.7706 15 8.1954 15 11.0451V12.2883C15 15.1379 15 16.5628 14.0237 17.4481 13.0474 18.3333 11.476 18.3333 8.3333 18.3333 5.1906 18.3333 3.6193 18.3333 2.643 17.4481 1.6667 16.5628 1.6667 15.1379 1.6667 12.2883V11.0451C1.6667 8.1954 1.6667 6.7706 2.643 5.8853 3.6193 5 5.1906 5 8.3333 5 11.476 5 13.0474 5 14.0237 5.8853Z" stroke="currentColor" stroke-linecap="round" stroke-linejoin="round" stroke-width="2"/>
  <path d="M5.0553 5C5.1445 3.8434 5.3758 3.0959 5.9757 2.552 6.952 1.6667 8.5233 1.6667 11.666 1.6667 14.8087 1.6667 16.3801 1.6667 17.3564 2.552 18.3327 3.4372 18.3327 4.8621 18.3327 7.7118V8.9549C18.3327 11.8046 18.3327 13.2294 17.3564 14.1148 16.8121 14.6083 16.0828 14.8267 14.9993 14.9233" stroke="currentColor" stroke-linecap="round" stroke-linejoin="round" stroke-width="2"/>
  <path d="M8.9093 8.8148L9.4958 9.9977C9.5758 10.1623 9.7891 10.3202 9.9691 10.3505L11.0323 10.5286C11.7123 10.6428 11.8723 11.1402 11.3823 11.6308L10.5557 12.4643C10.4158 12.6054 10.3391 12.8776 10.3824 13.0725L10.619 14.1042C10.8057 14.9208 10.3758 15.2367 9.6592 14.8098L8.6626 14.2151C8.4826 14.1075 8.186 14.1075 8.0027 14.2151L7.0061 14.8098C6.2928 15.2367 5.8596 14.9174 6.0462 14.1042L6.2828 13.0725C6.3262 12.8776 6.2495 12.6054 6.1095 12.4643L5.283 11.6308C4.7963 11.1402 4.953 10.6428 5.6329 10.5286L6.6961 10.3505C6.8728 10.3202 7.0861 10.1623 7.1661 9.9977L7.7527 8.8148C8.0726 8.1729 8.5926 8.1729 8.9093 8.8148Z" stroke="currentColor" stroke-linecap="round" stroke-linejoin="round" stroke-width="2"/>
</svg>
