<svg xmlns="http://www.w3.org/2000/svg" width="20" height="20" viewBox="0 0 20 20" fill="none">
  <path d="M17.0833 12.5H2.9167C2.5284 12.5 2.3342 12.5 2.1811 12.5634 1.9769 12.648 1.8147 12.8102 1.7301 13.0144 1.6667 13.1676 1.6667 13.3617 1.6667 13.75 1.6667 14.1383 1.6667 14.3324 1.7301 14.4856 1.8147 14.6898 1.9769 14.852 2.1811 14.9366 2.3342 15 2.5284 15 2.9167 15H17.0833C17.4716 15 17.6657 15 17.8189 14.9366 18.0231 14.852 18.1853 14.6898 18.2699 14.4856 18.3333 14.3324 18.3333 14.1383 18.3333 13.75 18.3333 13.3617 18.3333 13.1676 18.2699 13.0144 18.1853 12.8102 18.0231 12.648 17.8189 12.5634 17.6657 12.5 17.4716 12.5 17.0833 12.5Z" stroke="currentColor" stroke-linecap="round" stroke-linejoin="round" stroke-width="2"/>
  <path d="M15 10H5C4.2143 10 3.8215 10 3.5774 10.2441 3.3333 10.4882 3.3333 10.881 3.3333 11.6667V12.5H16.6667V11.6667C16.6667 10.881 16.6667 10.4882 16.4226 10.2441 16.1785 10 15.7857 10 15 10Z" stroke="currentColor" stroke-linecap="round" stroke-linejoin="round" stroke-width="2"/>
  <path d="M13.3333 7.5H6.6667C5.881 7.5 5.4882 7.5 5.2441 7.7441 5 7.9882 5 8.381 5 9.1667V10H15V9.1667C15 8.381 15 7.9882 14.7559 7.7441 14.5118 7.5 14.119 7.5 13.3333 7.5Z" stroke="currentColor" stroke-linecap="round" stroke-linejoin="round" stroke-width="2"/>
  <path d="M11.6667 5H8.3333C7.5477 5 7.1548 5 6.9107 5.2441 6.6667 5.4882 6.6667 5.881 6.6667 6.6667V7.5H13.3333V6.6667C13.3333 5.881 13.3333 5.4882 13.0893 5.2441 12.8452 5 12.4523 5 11.6667 5Z" stroke="currentColor" stroke-linecap="round" stroke-linejoin="round" stroke-width="2"/>
</svg>
