<svg xmlns="http://www.w3.org/2000/svg" width="20" height="20" viewBox="0 0 20 20" fill="none">
  <path d="M8.3333 12.5H2.9167C2.5284 12.5 2.3342 12.5 2.1811 12.5634 1.9769 12.648 1.8147 12.8102 1.7301 13.0144 1.6667 13.1676 1.6667 13.3617 1.6667 13.75 1.6667 14.1383 1.6667 14.3324 1.7301 14.4856 1.8147 14.6898 1.9769 14.852 2.1811 14.9366 2.3342 15 2.5284 15 2.9167 15H8.3333V12.5Z" stroke="currentColor" stroke-linecap="round" stroke-linejoin="round" stroke-width="2"/>
  <path d="M10.8333 10H5.8333C5.0477 10 4.6548 10 4.4107 10.2441 4.1667 10.4882 4.1667 10.881 4.1667 11.6667V12.5H10.8333V10Z" stroke="currentColor" stroke-linecap="round" stroke-linejoin="round" stroke-width="2"/>
  <path d="M8.3333 15H15C16.5713 15 17.357 15 17.8452 14.5118 18.3333 14.0237 18.3333 13.238 18.3333 11.6667V6.6667C18.3333 5.881 18.3333 5.4882 18.0892 5.2441 17.8452 5 17.4523 5 16.6667 5H15.8333" stroke="currentColor" stroke-linecap="round" stroke-linejoin="round" stroke-width="2"/>
  <path d="M13.3333 7.5H8.3333C7.5477 7.5 7.1548 7.5 6.9107 7.7441 6.6667 7.9882 6.6667 8.381 6.6667 9.1667V10H13.3333V7.5Z" stroke="currentColor" stroke-linecap="round" stroke-linejoin="round" stroke-width="2"/>
  <path d="M15.8333 5H10.8333C10.0477 5 9.6548 5 9.4108 5.2441 9.1667 5.4882 9.1667 5.881 9.1667 6.6667V7.5H15.8333V5Z" stroke="currentColor" stroke-linecap="round" stroke-linejoin="round" stroke-width="2"/>
</svg>
