<svg xmlns="http://www.w3.org/2000/svg" width="20" height="20" viewBox="0 0 20 20" fill="none">
  <path d="M14.5833 2.9167H15.4167C16.2023 2.9167 16.5952 2.9167 16.8392 3.1607 17.0833 3.4048 17.0833 3.7977 17.0833 4.5833V13.75C17.0833 15.3213 17.0833 16.107 16.5952 16.5952 16.107 17.0833 15.3213 17.0833 13.75 17.0833H4.5833C3.7977 17.0833 3.4048 17.0833 3.1607 16.8392 2.9167 16.5952 2.9167 16.2023 2.9167 15.4167V14.5833C2.9167 13.7977 2.9167 13.4048 3.1607 13.1608 3.4048 12.9167 3.7977 12.9167 4.5833 12.9167H6.25V11.25C6.25 10.4643 6.25 10.0715 6.4941 9.8274 6.7382 9.5833 7.131 9.5833 7.9167 9.5833H9.5833V7.9167C9.5833 7.131 9.5833 6.7382 9.8274 6.4941 10.0715 6.25 10.4643 6.25 11.25 6.25H12.9167V4.5833C12.9167 3.7977 12.9167 3.4048 13.1608 3.1607 13.4048 2.9167 13.7977 2.9167 14.5833 2.9167Z" stroke="currentColor" stroke-linejoin="round" stroke-width="2"/>
</svg>
