<svg xmlns="http://www.w3.org/2000/svg" width="20" height="20" viewBox="0 0 20 20" fill="none">
  <path d="M6.6667 5C9.4281 5 11.6667 4.2538 11.6667 3.3333 11.6667 2.4129 9.4281 1.6667 6.6667 1.6667 3.9052 1.6667 1.6667 2.4129 1.6667 3.3333 1.6667 4.2538 3.9052 5 6.6667 5Z" stroke="currentColor" stroke-width="2"/>
  <path d="M12.9167 7.5C9.9252 7.5 7.5 9.9251 7.5 12.9167 7.5 15.9082 9.9252 18.3333 12.9167 18.3333 15.9082 18.3333 18.3333 15.9083 18.3333 12.9167 18.3333 9.9251 15.9082 7.5 12.9167 7.5Z" stroke="currentColor" stroke-linecap="round" stroke-linejoin="round" stroke-width="2"/>
  <path d="M12.9167 15.8333C13.0039 15.8333 13.085 15.7921 13.2472 15.7097L14.5512 15.047C15.1282 14.7538 15.4167 14.6072 15.4167 14.375V11.4583M12.9167 15.8333C12.8294 15.8333 12.7483 15.7921 12.5861 15.7097L11.2822 15.047C10.7052 14.7538 10.4167 14.6072 10.4167 14.375V11.4583M12.9167 15.8333V12.9167M15.4167 11.4583C15.4167 11.2262 15.1282 11.0796 14.5512 10.7863L13.2472 10.1237C13.085 10.0412 13.0039 10 12.9167 10 12.8294 10 12.7483 10.0412 12.5861 10.1237L11.2822 10.7863C10.7052 11.0796 10.4167 11.2262 10.4167 11.4583M15.4167 11.4583C15.4167 11.6905 15.1282 11.8371 14.5512 12.1303L13.2472 12.793C13.085 12.8754 13.0039 12.9167 12.9167 12.9167M10.4167 11.4583C10.4167 11.6905 10.7052 11.8371 11.2822 12.1303L12.5861 12.793C12.7483 12.8754 12.8294 12.9167 12.9167 12.9167" stroke="currentColor" stroke-linejoin="round" stroke-width="2"/>
  <path d="M1.6667 3.3333V6.6848 10.0362C1.6667 10.6227 2.6486 11.3607 5.1082 11.6667M1.7561 7.1231C2.7597 8.008 4.549 8.3835 6.4613 8.3835M11.657 3.4345V5.1133" stroke="currentColor" stroke-linecap="round" stroke-linejoin="round" stroke-width="2"/>
</svg>
