<svg xmlns="http://www.w3.org/2000/svg" width="20" height="20" viewBox="0 0 20 20" fill="none">
  <path d="M8.3261 12.5C8.3261 11.6679 8.2568 9.6957 6.7983 6.8913 6.1513 5.6473 6.16 4.3452 6.4005 3.3198 6.4791 2.9848 6.6772 2.8138 6.9463 2.6292 7.257 2.4161 7.4124 2.3095 7.5734 2.219 8.0891 1.9287 8.6608 1.7515 9.2505 1.6992 9.7401 1.6558 10.2599 1.6558 10.7495 1.6992 11.3392 1.7515 11.9109 1.9287 12.4267 2.219 12.5876 2.3095 12.743 2.4161 13.0538 2.6292 13.3227 2.8138 13.5209 2.9848 13.5995 3.3198 13.84 4.3452 13.8487 5.6473 13.2017 6.8913 11.7432 9.6957 11.6739 11.6679 11.6739 12.5" stroke="currentColor" stroke-linecap="round" stroke-linejoin="round" stroke-width="2"/>
  <path d="M5.9069 14.7792C6.2736 13.6792 6.4569 13.1292 6.8934 12.8146 7.3299 12.5 7.9097 12.5 9.0692 12.5H10.9308C12.0903 12.5 12.6701 12.5 13.1066 12.8146 13.5431 13.1292 13.7264 13.6792 14.0931 14.7792L14.1667 15H5.8333L5.9069 14.7792Z" stroke="currentColor" stroke-width="2"/>
  <path d="M3.5439 16.8186C3.7216 16.3708 3.8105 16.147 3.9351 15.9626 4.2531 15.4918 4.7578 15.1614 5.336 15.0454 5.5626 15 5.8157 15 6.3219 15L13.6781 15C14.1843 15 14.4374 15 14.6639 15.0454 15.2422 15.1614 15.7469 15.4918 16.0649 15.9626 16.1895 16.147 16.2784 16.3708 16.4562 16.8186 16.5938 17.1653 16.6626 17.3386 16.6663 17.4787 16.6763 17.8416 16.4362 18.1687 16.073 18.2875 15.9328 18.3333 15.7368 18.3333 15.3449 18.3333H4.6551C4.2632 18.3333 4.0672 18.3333 3.927 18.2875 3.5638 18.1687 3.3238 17.8416 3.3336 17.4787 3.3374 17.3386 3.4062 17.1653 3.5439 16.8186Z" stroke="currentColor" stroke-width="2"/>
</svg>
