<svg xmlns="http://www.w3.org/2000/svg" width="20" height="20" viewBox="0 0 20 20" fill="none">
  <path d="M14.7222 17.5H5.2778C5.0194 17.5 4.8903 17.5 4.7843 17.4645 4.4967 17.3682 4.2721 17.0874 4.1951 16.7279 4.1667 16.5955 4.1667 16.434 4.1667 16.1111 4.1667 15.4653 4.1667 15.1424 4.2235 14.8775 4.3776 14.1585 4.8268 13.597 5.402 13.4043 5.6139 13.3333 5.8722 13.3333 6.3889 13.3333H13.6111C14.1277 13.3333 14.3861 13.3333 14.598 13.4043 15.1732 13.597 15.6224 14.1585 15.7766 14.8775 15.8333 15.1424 15.8333 15.4653 15.8333 16.1111 15.8333 16.434 15.8333 16.5955 15.8049 16.7279 15.7279 17.0874 15.5032 17.3682 15.2157 17.4645 15.1098 17.5 14.9806 17.5 14.7222 17.5Z" stroke="currentColor" stroke-linecap="round" stroke-linejoin="round" stroke-width="2"/>
  <path d="M7.917 13.3333C8.3459 11.2103 8.4038 9.9719 8.1303 9.2081 8.0709 9.0423 7.9697 8.8957 7.867 8.7528 7.1893 7.8096 6.8815 7.073 6.7645 6.6177 6.6961 6.351 6.6748 6.0718 6.6871 5.7966 6.7094 5.2967 6.8718 4.5393 7.399 3.8017 8.1074 2.8107 9.4274 2.5058 10.0003 2.5 10.5733 2.5058 11.9277 2.8107 12.6362 3.8017 13.1633 4.5393 13.3258 5.2967 13.3481 5.7966 13.3604 6.0718 13.3391 6.351 13.2706 6.6177 13.1538 7.073 12.8459 7.8096 12.1682 8.7528 12.0655 8.8957 11.9643 9.0423 11.9049 9.2081 11.6314 9.9719 11.6548 11.2103 12.0837 13.3333" stroke="currentColor" stroke-linecap="round" stroke-linejoin="round" stroke-width="2"/>
  <path d="M11.6667 10.8333H8.3333" stroke="currentColor" stroke-linecap="round" stroke-width="2"/>
</svg>
