<svg xmlns="http://www.w3.org/2000/svg" width="20" height="20" viewBox="0 0 20 20" fill="none">
  <path d="M18.3333 10C18.3333 14.6023 14.6023 18.3333 10 18.3333 5.3976 18.3333 1.6667 14.6023 1.6667 10M7.0833 2.1913C7.9911 1.8521 8.9739 1.6667 10 1.6667 11.0261 1.6667 12.0089 1.8521 12.9167 2.1913" stroke="currentColor" stroke-linecap="round" stroke-linejoin="round" stroke-width="2"/>
  <path d="M6.2652 4.5277L6.7052 5.4149C6.7652 5.5384 6.9252 5.6568 7.0602 5.6795L7.8576 5.8131C8.3675 5.8988 8.4875 6.2718 8.12 6.6398L7.5001 7.2648C7.3951 7.3707 7.3376 7.5748 7.3701 7.721L7.5476 8.4947C7.6876 9.1073 7.3651 9.3442 6.8277 9.0241L6.0803 8.578C5.9453 8.4973 5.7228 8.4973 5.5853 8.578L4.8379 9.0241C4.303 9.3442 3.978 9.1048 4.118 8.4947L4.2955 7.721C4.328 7.5748 4.2705 7.3707 4.1655 7.2648L3.5455 6.6398C3.1806 6.2718 3.2981 5.8988 3.808 5.8131L4.6054 5.6795C4.7379 5.6568 4.8979 5.5384 4.9579 5.4149L5.3978 4.5277C5.6378 4.0463 6.0278 4.0463 6.2652 4.5277Z" stroke="currentColor" stroke-linecap="round" stroke-linejoin="round" stroke-width="2"/>
  <path d="M14.5986 4.5277L15.0385 5.4149C15.0985 5.5384 15.2585 5.6568 15.3935 5.6795L16.1909 5.8131C16.7008 5.8988 16.8208 6.2718 16.4533 6.6398L15.8334 7.2648C15.7284 7.3707 15.6709 7.5748 15.7034 7.721L15.8809 8.4947C16.0209 9.1073 15.6984 9.3442 15.161 9.0241L14.4136 8.578C14.2786 8.4973 14.0562 8.4973 13.9187 8.578L13.1713 9.0241C12.6363 9.3442 12.3113 9.1048 12.4513 8.4947L12.6288 7.721C12.6613 7.5748 12.6038 7.3707 12.4988 7.2648L11.8789 6.6398C11.5139 6.2718 11.6314 5.8988 12.1413 5.8131L12.9388 5.6795C13.0712 5.6568 13.2312 5.5384 13.2913 5.4149L13.7312 4.5277C13.9712 4.0463 14.3611 4.0463 14.5986 4.5277Z" stroke="currentColor" stroke-linecap="round" stroke-linejoin="round" stroke-width="2"/>
  <path d="M6.6667 12.5C7.4268 13.512 8.6369 14.1667 10 14.1667 11.3631 14.1667 12.5732 13.512 13.3333 12.5" stroke="currentColor" stroke-linecap="round" stroke-linejoin="round" stroke-width="2"/>
</svg>
