<svg xmlns="http://www.w3.org/2000/svg" width="20" height="20" viewBox="0 0 20 20" fill="none">
  <path d="M6.0789 14.1667C2.942 6.0417 7.3859 2.4479 10 1.6667 12.6141 2.4479 17.058 6.0417 13.9211 14.1667 13.4474 13.9063 12 13.3854 10 13.3854 8 13.3854 6.5526 13.9063 6.0789 14.1667Z" stroke="currentColor" stroke-linecap="round" stroke-linejoin="round" stroke-width="2"/>
  <path d="M11.6667 7.5C11.6667 6.5795 10.9205 5.8333 10 5.8333 9.0795 5.8333 8.3333 6.5795 8.3333 7.5 8.3333 8.4205 9.0795 9.1667 10 9.1667 10.9205 9.1667 11.6667 8.4205 11.6667 7.5Z" stroke="currentColor" stroke-width="2"/>
  <path d="M14.5833 12.9647C15.7851 13.0757 17.2565 13.4018 18.3178 14.1667 18.3178 14.1667 18.7537 10.0535 15 9.1667" stroke="currentColor" stroke-linecap="round" stroke-linejoin="round" stroke-width="2"/>
  <path d="M5.4167 12.9647C4.215 13.0757 2.7435 13.4018 1.6822 14.1667 1.6822 14.1667 1.2463 10.0535 5 9.1667" stroke="currentColor" stroke-linecap="round" stroke-linejoin="round" stroke-width="2"/>
  <path d="M7.9167 15.8333C7.9167 15.8333 8.2639 17.9167 10 18.3333 11.7361 17.9167 12.0833 15.8333 12.0833 15.8333" stroke="currentColor" stroke-linecap="round" stroke-linejoin="round" stroke-width="2"/>
</svg>
