<svg xmlns="http://www.w3.org/2000/svg" width="20" height="20" viewBox="0 0 20 20" fill="none">
  <path d="M15.4198 12.0833L17.6231 9.9104C18.8467 8.6838 18.4472 7.4404 16.7492 7.1548L14.094 6.7095C13.6445 6.6339 13.1118 6.2391 12.9121 5.8274L11.4472 2.8701C10.6564 1.2655 9.358 1.2655 8.5589 2.8701L7.9167 4.1667" stroke="currentColor" stroke-linecap="round" stroke-linejoin="round" stroke-width="2"/>
  <path d="M6.0797 6.6666C6.0222 6.6856 5.9654 6.7001 5.91 6.7095L3.2501 7.1548C1.549 7.4404 1.1571 8.6838 2.3745 9.9104L4.4425 11.9939C4.7927 12.3468 4.9845 13.0273 4.8761 13.5146L4.284 16.0938C3.8171 18.1268 4.9011 18.9249 6.6855 17.858L9.1787 16.371C9.6372 16.1022 10.3794 16.1022 10.8297 16.371L13.3228 17.858C15.1156 18.9249 16.1913 18.1352 15.7242 16.0938L15.6645 15.8333" stroke="currentColor" stroke-linecap="round" stroke-linejoin="round" stroke-width="2"/>
  <path d="M1.6667 1.6667L18.3333 18.3333" stroke="currentColor" stroke-linecap="round" stroke-width="2"/>
</svg>
