<svg xmlns="http://www.w3.org/2000/svg" width="20" height="20" viewBox="0 0 20 20" fill="none">
  <path d="M15.8333 7.5C15.8333 10.7217 13.2217 13.3333 10 13.3333 6.7783 13.3333 4.1667 10.7217 4.1667 7.5 4.1667 4.2783 6.7783 1.6667 10 1.6667 13.2217 1.6667 15.8333 4.2783 15.8333 7.5Z" stroke="currentColor" stroke-linecap="round" stroke-linejoin="round" stroke-width="2"/>
  <path d="M6.6667 12.5V17.094C6.6667 17.8229 6.6667 18.1873 6.897 18.3028 7.1273 18.4183 7.4182 18.1996 8 17.7622L9 17.0104C9.4815 16.6485 9.7223 16.4675 10 16.4675 10.2777 16.4675 10.5185 16.6485 11 17.0104L12 17.7622C12.5818 18.1996 12.8727 18.4183 13.103 18.3028 13.3333 18.1873 13.3333 17.8229 13.3333 17.094V12.5" stroke="currentColor" stroke-linecap="round" stroke-linejoin="round" stroke-width="2"/>
  <path d="M9.7238 4.3435C9.8388 4.1079 10.1612 4.1079 10.2762 4.3435L10.9541 5.7332C10.9991 5.8254 11.0836 5.8896 11.1815 5.9059L12.6552 6.151C12.9049 6.1926 13.0045 6.5123 12.8258 6.6993L11.7708 7.8043C11.701 7.8775 11.6687 7.9811 11.6842 8.0833L11.9167 9.6253C11.9561 9.8865 11.6954 10.0842 11.4698 9.9642L10.1407 9.2569C10.0523 9.2098 9.9477 9.2098 9.8593 9.2569L8.5302 9.9642C8.3046 10.0842 8.0439 9.8865 8.0833 9.6253L8.3158 8.0833C8.3312 7.9811 8.299 7.8775 8.2291 7.8043L7.1741 6.6993C6.9955 6.5123 7.0951 6.1926 7.3448 6.151L8.8185 5.9059C8.9164 5.8896 9.0009 5.8254 9.0459 5.7332L9.7238 4.3435Z" stroke="currentColor" stroke-linecap="round" stroke-linejoin="round" stroke-width="2"/>
</svg>
