<svg xmlns="http://www.w3.org/2000/svg" width="20" height="20" viewBox="0 0 20 20" fill="none">
  <path d="M9.7238 4.3435C9.8388 4.1079 10.1612 4.1079 10.2762 4.3435L10.9541 5.7332C10.9991 5.8254 11.0836 5.8896 11.1815 5.9059L12.6552 6.151C12.9049 6.1926 13.0045 6.5123 12.8258 6.6993L11.7708 7.8043C11.701 7.8775 11.6687 7.9811 11.6842 8.0833L11.9167 9.6253C11.9561 9.8865 11.6954 10.0842 11.4698 9.9642L10.1407 9.2569C10.0523 9.2098 9.9477 9.2098 9.8593 9.2569L8.5302 9.9642C8.3046 10.0842 8.0439 9.8865 8.0833 9.6253L8.3158 8.0833C8.3312 7.9811 8.299 7.8775 8.2291 7.8043L7.1741 6.6993C6.9955 6.5123 7.0951 6.1926 7.3448 6.151L8.8185 5.9059C8.9164 5.8896 9.0009 5.8254 9.0459 5.7332L9.7238 4.3435Z" stroke="currentColor" stroke-linecap="round" stroke-linejoin="round" stroke-width="2"/>
  <path d="M15.8333 7.5C15.8333 10.7217 13.2217 13.3333 10 13.3333 6.7783 13.3333 4.1667 10.7217 4.1667 7.5 4.1667 4.2783 6.7783 1.6667 10 1.6667 13.2217 1.6667 15.8333 4.2783 15.8333 7.5Z" stroke="currentColor" stroke-linecap="round" stroke-linejoin="round" stroke-width="2"/>
  <path d="M10.8333 13.6187L12.1887 17.2094C12.4618 17.9329 12.5983 18.2947 12.8358 18.3333 13.0739 18.2982 13.3656 17.9003 13.6507 17.181 13.8548 16.6659 13.9568 16.4084 14.1671 16.2696 14.2316 16.227 14.3021 16.1933 14.3767 16.1696 14.6197 16.0923 14.8992 16.1679 15.4581 16.319 16.0557 16.4806 16.4709 16.4355 16.6348 16.319 16.6831 16.2847 16.6348 16.3164 16.6348 16.3164 16.7313 16.1453 16.6011 15.8782 16.3407 15.3443L14.5467 11.6667" stroke="currentColor" stroke-linecap="round" stroke-linejoin="round" stroke-width="2"/>
  <path d="M9.1667 13.6184L7.8113 17.2086C7.5382 17.9319 7.2681 18.2947 7.0306 18.3333 6.7925 18.2982 6.6499 17.9386 6.3648 17.2193 6.1607 16.7044 6.0431 16.4078 5.8329 16.2688 5.7684 16.2263 5.6979 16.1927 5.6234 16.1689 5.3803 16.0917 5.1008 16.1673 4.5419 16.3183 3.9442 16.4798 3.5291 16.4322 3.3651 16.3157 3.2686 16.1446 3.3989 15.8776 3.6594 15.3437L5.4532 11.6667" stroke="currentColor" stroke-linecap="round" stroke-linejoin="round" stroke-width="2"/>
</svg>
