<svg xmlns="http://www.w3.org/2000/svg" width="20" height="20" viewBox="0 0 20 20" fill="none">
  <path d="M5.8333 9.4123C10.2367 1.2055 15.7196 1.1108 17.9107 2.0894 18.8892 4.2804 18.7945 9.7633 10.5877 14.1667 10.5026 13.6774 10.0293 12.3958 8.8168 11.1833 7.6043 9.9707 6.3226 9.4974 5.8333 9.4123Z" stroke="currentColor" stroke-linecap="round" stroke-linejoin="round" stroke-width="2"/>
  <path d="M11.6667 14C13.369 14.7778 13.5508 16.1724 13.7866 17.5 13.7866 17.5 17.3519 15.0401 15.0713 11.6667" stroke="currentColor" stroke-linecap="round" stroke-linejoin="round" stroke-width="2"/>
  <path d="M6 8.3332C5.2222 6.6309 3.8275 6.4492 2.5 6.2133 2.5 6.2133 4.96 2.6479 8.3333 4.9286" stroke="currentColor" stroke-linecap="round" stroke-linejoin="round" stroke-width="2"/>
  <path d="M5.1739 11.6665C4.6473 12.1931 3.7521 13.7202 4.384 15.6158 6.2797 16.2477 7.8068 15.3526 8.3333 14.826" stroke="currentColor" stroke-linecap="round" stroke-linejoin="round" stroke-width="2"/>
  <path d="M15.0793 6.4608C15.0793 5.6107 14.3902 4.9215 13.54 4.9215 12.6898 4.9215 12.0007 5.6107 12.0007 6.4608 12.0007 7.311 12.6898 8.0002 13.54 8.0002 14.3902 8.0002 15.0793 7.311 15.0793 6.4608Z" stroke="currentColor" stroke-width="2"/>
</svg>
