<svg xmlns="http://www.w3.org/2000/svg" width="20" height="20" viewBox="0 0 20 20" fill="none">
  <path d="M10 1.6667L10.0028 16.1693C9.7025 16.1687 9.4029 16.2359 9.1769 16.371L6.6855 17.858C4.894 18.925 3.8192 18.1352 4.2858 16.0938L4.8774 13.5146C4.9857 13.0273 4.7941 12.3468 4.4441 11.9939L2.3777 9.9104C1.1528 8.6838 1.5527 7.4404 3.2526 7.1548L5.9106 6.7095C6.3605 6.6339 6.8938 6.2391 7.0938 5.8274L8.5603 2.8701C8.9553 2.0693 9.4771 1.6681 10 1.6667ZM10 1.6667H10.0028M12.5 17.3697L13.3181 17.858C15.1013 18.925 16.1845 18.1268 15.7178 16.0938L15.1262 13.5146C15.0179 13.0273 15.2096 12.3468 15.5595 11.9939L17.626 9.9104C18.8425 8.6838 18.4509 7.4404 16.7511 7.1548L14.093 6.7095C13.6514 6.6339 13.1182 6.2391 12.9182 5.8274L12.5 4.9842" stroke="currentColor" stroke-linecap="round" stroke-linejoin="round" stroke-width="2"/>
</svg>
