<svg xmlns="http://www.w3.org/2000/svg" width="20" height="20" viewBox="0 0 20 20" fill="none">
  <path d="M17.5 14.5C17.5 15.9143 17.5 16.6213 16.9576 17.0607 16.4153 17.5 15.5423 17.5 13.7963 17.5H12.8703C11.1244 17.5 10.2514 17.5 9.7091 17.0607 9.1667 16.6213 9.1667 15.9143 9.1667 14.5L9.1667 5.5C9.1667 4.0858 9.1667 3.3787 9.7091 2.9393 10.2514 2.5 11.1244 2.5 12.8703 2.5L13.7963 2.5C15.5423 2.5 16.4153 2.5 16.9576 2.9393 17.5 3.3787 17.5 4.0858 17.5 5.5L17.5 14.5Z" stroke="currentColor" stroke-linejoin="round" stroke-width="2"/>
  <path d="M2.5 4.2008C2.5 3.399 2.5 2.9982 2.7441 2.7491 2.9882 2.5 3.381 2.5 4.1667 2.5 4.9523 2.5 5.3452 2.5 5.5893 2.7491 5.8333 2.9982 5.8333 3.399 5.8333 4.2008L5.8333 13.2398C5.8333 13.996 5.8333 14.3741 5.7702 14.7398 5.7125 15.0746 5.6156 15.4011 5.4817 15.7123 5.3354 16.0523 5.1299 16.3669 4.7188 16.9962 4.5357 17.2765 4.4441 17.4167 4.3291 17.4664 4.2252 17.5112 4.1081 17.5112 4.0043 17.4664 3.8893 17.4167 3.7977 17.2765 3.6145 16.9962 3.2035 16.3669 2.9979 16.0523 2.8516 15.7123 2.7177 15.4011 2.6208 15.0746 2.5631 14.7398 2.5 14.3741 2.5 13.996 2.5 13.2398L2.5 4.2008Z" stroke="currentColor" stroke-linejoin="round" stroke-width="2"/>
  <path d="M9.5833 13.75L11.25 13.75" stroke="currentColor" stroke-linecap="round" stroke-linejoin="round" stroke-width="2"/>
  <path d="M9.5833 10L11.25 10" stroke="currentColor" stroke-linecap="round" stroke-linejoin="round" stroke-width="2"/>
  <path d="M9.5833 6.25L11.25 6.25" stroke="currentColor" stroke-linecap="round" stroke-linejoin="round" stroke-width="2"/>
  <path d="M5.8333 5.8333C5.8333 6.2936 5.0871 6.6667 4.1667 6.6667 3.2462 6.6667 2.5 6.2936 2.5 5.8333" stroke="currentColor" stroke-width="2"/>
</svg>
