<svg xmlns="http://www.w3.org/2000/svg" width="20" height="20" viewBox="0 0 20 20" fill="none">
  <path d="M10.4167 4.1667H9.5833C6.4406 4.1667 4.8693 4.1667 3.893 5.143 2.9167 6.1193 2.9167 7.6906 2.9167 10.8333V11.6667C2.9167 14.8093 2.9167 16.3808 3.893 17.357 4.8693 18.3333 6.4406 18.3333 9.5833 18.3333L10.4167 18.3333C13.5593 18.3333 15.1308 18.3333 16.107 17.357 17.0833 16.3808 17.0833 14.8093 17.0833 11.6667V10.8333C17.0833 7.6906 17.0833 6.1193 16.107 5.143 15.1308 4.1667 13.5593 4.1667 10.4167 4.1667Z" stroke="currentColor" stroke-linecap="round" stroke-linejoin="round" stroke-width="2"/>
  <path d="M9.1667 6.25C9.1667 6.9404 9.7263 7.5 10.4167 7.5 11.107 7.5 11.6667 6.9404 11.6667 6.25V3.3333C11.6667 2.4129 10.9205 1.6667 10 1.6667 9.0795 1.6667 8.3333 2.4129 8.3333 3.3333V4.1667" stroke="currentColor" stroke-linecap="round" stroke-linejoin="round" stroke-width="2"/>
  <path d="M6.25 14.5833H10.4167M6.25 11.25H13.75" stroke="currentColor" stroke-linecap="round" stroke-linejoin="round" stroke-width="2"/>
</svg>
