<svg xmlns="http://www.w3.org/2000/svg" width="20" height="20" viewBox="0 0 20 20" fill="none">
  <path d="M11.6667 17.0833V16.6667C11.6667 14.3097 11.6667 13.1312 12.3989 12.3989 13.1312 11.6667 14.3097 11.6667 16.6667 11.6667H17.0833" stroke="currentColor" stroke-linecap="round" stroke-linejoin="round" stroke-width="2"/>
  <path d="M10.8333 2.5H9.1667C6.024 2.5 4.4526 2.5 3.4763 3.4763 2.5 4.4526 2.5 6.024 2.5 9.1667V10.8333C2.5 13.976 2.5 15.5474 3.4763 16.5237 4.4526 17.5 6.024 17.5 9.1667 17.5H10.2859C10.9672 17.5 11.3078 17.5 11.6141 17.3732 11.9204 17.2462 12.1613 17.0054 12.643 16.5237L16.5237 12.643C17.0054 12.1613 17.2462 11.9204 17.3732 11.6141 17.5 11.3078 17.5 10.9672 17.5 10.2859V9.1667C17.5 6.024 17.5 4.4526 16.5237 3.4763 15.5474 2.5 13.976 2.5 10.8333 2.5Z" stroke="currentColor" stroke-linecap="round" stroke-linejoin="round" stroke-width="2"/>
</svg>
