<svg xmlns="http://www.w3.org/2000/svg" width="20" height="20" viewBox="0 0 20 20" fill="none">
  <path d="M2.5 10.8333V9.1667C2.5 6.024 2.5 4.4526 3.4763 3.4763 4.4526 2.5 6.024 2.5 9.1667 2.5H10.5719C11.9344 2.5 12.6157 2.5 13.2283 2.7537 13.8408 3.0075 14.3226 3.4892 15.286 4.4527L15.5474 4.7141C16.5108 5.6775 16.9925 6.1592 17.2462 6.7718 17.5 7.3843 17.5 8.0656 17.5 9.4281V10.8333C17.5 13.976 17.5 15.5474 16.5237 16.5237 15.5474 17.5 13.976 17.5 10.8333 17.5H9.1667C6.024 17.5 4.4526 17.5 3.4763 16.5237 2.5 15.5474 2.5 13.976 2.5 10.8333Z" stroke="currentColor" stroke-linecap="round" stroke-linejoin="round" stroke-width="2"/>
  <path d="M12.5 2.9167C12.5 4.8713 12.5 5.8486 13.0166 6.5219 13.1496 6.6952 13.3048 6.8504 13.4781 6.9834 14.1513 7.5 15.1287 7.5 17.0834 7.5" stroke="currentColor" stroke-linecap="round" stroke-linejoin="round" stroke-width="2"/>
  <path d="M12.0833 13.3333C11.5127 13.8547 10.7882 14.1667 10 14.1667 9.2118 14.1667 8.4873 13.8547 7.9167 13.3333M6.875 10.1042V10.2083M13.125 10.1048V10.2089M7.0833 10.2083C7.0833 10.3234 6.9901 10.4167 6.875 10.4167 6.7599 10.4167 6.6667 10.3234 6.6667 10.2083 6.6667 10.0933 6.7599 10 6.875 10 6.9901 10 7.0833 10.0933 7.0833 10.2083ZM13.3333 10.2089C13.3333 10.3239 13.2401 10.4173 13.125 10.4173 13.0099 10.4173 12.9167 10.3239 12.9167 10.2089 12.9167 10.0938 13.0099 10.0006 13.125 10.0006 13.2401 10.0006 13.3333 10.0938 13.3333 10.2089Z" stroke="currentColor" stroke-linecap="round" stroke-linejoin="round" stroke-width="2"/>
</svg>
