<svg xmlns="http://www.w3.org/2000/svg" width="20" height="20" viewBox="0 0 20 20" fill="none">
  <path d="M9.5833 4.1667C11.9403 4.1667 13.1188 4.1667 13.8511 4.8989 14.5833 5.6311 14.5833 6.8096 14.5833 9.1667 14.5833 15.8333 17.9167 15.8333 17.9167 15.8333H6.0322C5.7589 15.8333 5.6222 15.8333 5.3124 15.7527 5.0025 15.6719 4.9532 15.6444 4.8547 15.5893 3.9046 15.0585 2.0833 13.4785 2.0833 9.1667 2.0833 6.8096 2.0833 5.6311 2.8156 4.8989 3.5478 4.1667 4.7263 4.1667 7.0833 4.1667" stroke="currentColor" stroke-linecap="round" stroke-linejoin="round" stroke-width="2"/>
  <path d="M2.0833 8.3333V13.3333C2.0833 15.6903 2.0833 16.8688 2.8156 17.6011 3.5478 18.3333 4.7263 18.3333 7.0833 18.3333H9.6468C12.0038 18.3333 13.1823 18.3333 13.9145 17.6011 14.3228 17.1928 14.5034 16.6459 14.5833 15.8333" stroke="currentColor" stroke-linecap="round" stroke-linejoin="round" stroke-width="2"/>
  <path d="M9.5833 2.9167V5.4167C9.5833 5.8049 9.5833 5.9991 9.5199 6.1522 9.4353 6.3564 9.2731 6.5187 9.0689 6.6032 8.9158 6.6667 8.7216 6.6667 8.3333 6.6667 7.9451 6.6667 7.7509 6.6667 7.5978 6.6032 7.3936 6.5187 7.2313 6.3564 7.1468 6.1522 7.0833 5.9991 7.0833 5.8049 7.0833 5.4167V2.9167C7.0833 2.5284 7.0833 2.3342 7.1468 2.1811 7.2313 1.9769 7.3936 1.8147 7.5978 1.7301 7.7509 1.6667 7.9451 1.6667 8.3333 1.6667 8.7216 1.6667 8.9158 1.6667 9.0689 1.7301 9.2731 1.8147 9.4353 1.9769 9.5199 2.1811 9.5833 2.3342 9.5833 2.5284 9.5833 2.9167Z" stroke="currentColor" stroke-linecap="round" stroke-linejoin="round" stroke-width="2"/>
</svg>
