<svg xmlns="http://www.w3.org/2000/svg" width="20" height="20" viewBox="0 0 20 20" fill="none">
  <circle cx="10" cy="10" r="8.333333333333334" stroke="currentColor" stroke-width="2"/>
  <path d="M7.824 12.6358C8.2444 12.9167 8.8296 12.9167 10 12.9167 11.1704 12.9167 11.7556 12.9167 12.1759 12.6358 12.3579 12.5142 12.5142 12.3579 12.6358 12.1759 12.9167 11.7556 12.9167 11.1704 12.9167 10 12.9167 8.8296 12.9167 8.2444 12.6358 7.824 12.5142 7.6421 12.3579 7.4858 12.1759 7.3642 11.7556 7.0833 11.1704 7.0833 10 7.0833 8.8296 7.0833 8.2444 7.0833 7.824 7.3642 7.6421 7.4858 7.4858 7.6421 7.3642 7.824 7.0833 8.2444 7.0833 8.8296 7.0833 10 7.0833 11.1704 7.0833 11.7556 7.3642 12.1759 7.4858 12.3579 7.6421 12.5142 7.824 12.6358Z" stroke="currentColor" stroke-linecap="round" stroke-linejoin="round" stroke-width="2"/>
</svg>
