<svg xmlns="http://www.w3.org/2000/svg" width="20" height="20" viewBox="0 0 20 20" fill="none">
  <path d="M3.3333 10C3.3333 7.2673 3.3333 5.901 4.0115 4.9324 4.2624 4.5741 4.5741 4.2624 4.9324 4.0115 5.901 3.3333 7.2673 3.3333 10 3.3333 12.7327 3.3333 14.099 3.3333 15.0676 4.0115 15.4259 4.2624 15.7376 4.5741 15.9885 4.9324 16.6667 5.901 16.6667 7.2673 16.6667 10 16.6667 12.7327 16.6667 14.099 15.9885 15.0676 15.7376 15.4259 15.4259 15.7376 15.0676 15.9885 14.099 16.6667 12.7327 16.6667 10 16.6667 7.2673 16.6667 5.901 16.6667 4.9324 15.9885 4.5741 15.7376 4.2624 15.4259 4.0115 15.0676 3.3333 14.099 3.3333 12.7327 3.3333 10Z" stroke="currentColor" stroke-width="2"/>
</svg>
