<svg xmlns="http://www.w3.org/2000/svg" width="20" height="20" viewBox="0 0 20 20" fill="none">
  <path d="M2.5 9.1555V12.911C2.5 15.2714 2.5 16.4517 3.2323 17.185 3.9645 17.9183 5.143 17.9183 7.5 17.9183H12.5001C14.8571 17.9183 16.0356 17.9183 16.7678 17.185 17.5001 16.4517 17.5001 15.2714 17.5001 12.911V9.1555" stroke="currentColor" stroke-width="2"/>
  <path d="M5.8334 14.9784H9.1668" stroke="currentColor" stroke-linecap="round" stroke-width="2"/>
  <path d="M14.8298 2.0837L5.1249 2.108C3.6764 2.0334 3.3051 3.1488 3.3051 3.6941 3.3051 4.1817 3.2422 4.8927 2.3544 6.2289 1.4667 7.565 1.5334 7.962 2.034 8.887 2.4495 9.6547 3.5062 9.9546 4.0572 10.0051 5.8074 10.0448 6.6589 8.5332 6.6589 7.4708 7.5271 10.1402 9.9963 10.1402 11.0966 9.835 12.1988 9.5292 13.1432 8.4345 13.3659 7.4708 13.4959 8.6684 13.8902 9.3673 15.0552 9.8475 16.2621 10.3449 17.3 9.5847 17.8207 9.0973 18.3414 8.61 18.6756 7.528 17.7473 6.3389 17.1072 5.5188 16.8404 4.7462 16.7528 3.9455 16.702 3.4816 16.6573 2.983 16.331 2.6658 15.854 2.2021 15.1697 2.0614 14.8298 2.0837Z" stroke="currentColor" stroke-linecap="round" stroke-linejoin="round" stroke-width="2"/>
</svg>
