<svg xmlns="http://www.w3.org/2000/svg" width="20" height="20" viewBox="0 0 20 20" fill="none">
  <path d="M12.4761 6.25C12.4761 6.25 12.8927 6.25 13.3094 7.0833 13.3094 7.0833 14.6329 5 15.8094 4.5833" stroke="currentColor" stroke-linecap="round" stroke-linejoin="round" stroke-width="2"/>
  <path d="M15.8295 12.535L15.8534 16.3273C15.8123 17.4468 14.8899 18.3333 13.766 18.3333H4.494C3.3404 18.3333 2.4052 17.4012 2.4052 16.2512L2.477 10.8629M7.4842 5.0108L4.2897 4.9574C3.5483 4.9394 2.8838 5.4107 2.6576 6.1147L1.7434 8.9615C1.6352 9.2982 1.6277 9.6662 1.8073 9.9712 2.4619 11.0828 4.2195 12.5993 7.0144 10.9692M6.2049 9.4435C6.53 10.5004 7.8044 12.3549 10.405 11.281" stroke="currentColor" stroke-linecap="round" stroke-linejoin="round" stroke-width="2"/>
  <path d="M18.3336 5.8468C18.3336 8.1554 16.4654 10.027 14.161 10.027 11.8565 10.027 9.9883 8.1554 9.9883 5.8468 9.9883 3.5382 11.8565 1.6667 14.161 1.6667 16.4654 1.6667 18.3336 3.5382 18.3336 5.8468Z" stroke="currentColor" stroke-linecap="round" stroke-width="2"/>
</svg>
