<svg xmlns="http://www.w3.org/2000/svg" width="20" height="20" viewBox="0 0 20 20" fill="none">
  <path d="M2.5 8.75V12.5C2.5 14.857 2.5 16.0355 3.2322 16.7678 3.9645 17.5 5.143 17.5 7.5 17.5H10.4167M17.5 8.75V10.4167" stroke="currentColor" stroke-linecap="round" stroke-width="2"/>
  <path d="M5.8333 14.1667H9.1667" stroke="currentColor" stroke-linecap="round" stroke-width="2"/>
  <path d="M12.5 15.4167H18.3333M15.4167 18.3333V12.5" stroke="currentColor" stroke-linecap="round" stroke-width="2"/>
  <path d="M14.8289 1.6688L5.124 1.6917C3.6756 1.6212 3.3042 2.6763 3.3042 3.1921 3.3042 3.6535 3.2413 4.326 2.3536 5.59 1.4658 6.854 1.5325 7.2295 2.0331 8.1045 2.4486 8.8308 3.5054 9.1145 4.0564 9.1622 5.8065 9.1998 6.6581 7.7698 6.6581 6.7648 7.5263 9.2901 9.9955 9.2901 11.0957 9.0013 12.198 8.7121 13.1423 7.6765 13.3651 6.7648 13.495 7.8978 13.8893 8.5589 15.0544 9.0132 16.2613 9.4838 17.2991 8.7645 17.8198 8.3035 18.3406 7.8425 18.6748 6.819 17.7465 5.6941 17.1063 4.9183 16.8395 4.1875 16.7519 3.43 16.7011 2.9911 16.6565 2.5195 16.3301 2.2194 15.8532 1.7808 15.1688 1.6477 14.8289 1.6688Z" stroke="currentColor" stroke-linecap="round" stroke-linejoin="round" stroke-width="2"/>
</svg>
