<svg xmlns="http://www.w3.org/2000/svg" width="20" height="20" viewBox="0 0 20 20" fill="none">
  <path d="M2.4976 8.7453V12.4975C2.4976 14.8558 2.4976 16.0351 3.2298 16.7678 3.962 17.5004 5.1405 17.5004 7.4976 17.5004H10.4143M17.4976 8.7453V10.8298" stroke="currentColor" stroke-linecap="round" stroke-width="2"/>
  <path d="M5.8309 14.1581H9.1643" stroke="currentColor" stroke-linecap="round" stroke-width="2"/>
  <path d="M13.3309 13.3316L15.8309 15.8331M15.8309 15.8331L18.3309 18.3345M15.8309 15.8331L13.3309 18.3345M15.8309 15.8331L18.3309 13.3316" stroke="currentColor" stroke-linecap="round" stroke-width="2"/>
  <path d="M14.8289 1.6678L5.124 1.6908C3.6756 1.6199 3.3042 2.6803 3.3042 3.1987 3.3042 3.6623 3.2413 4.3381 2.3536 5.6084 1.4658 6.8786 1.5325 7.256 2.0331 8.1354 2.4486 8.8652 3.5054 9.1503 4.0564 9.1983 5.8065 9.2361 6.6581 7.799 6.6581 6.7891 7.5263 9.3268 9.9955 9.3268 11.0957 9.0367 12.198 8.7459 13.1423 7.7052 13.3651 6.7891 13.495 7.9276 13.8893 8.592 15.0544 9.0486 16.2613 9.5214 17.2991 8.7987 17.8198 8.3353 18.3406 7.872 18.6748 6.8435 17.7465 5.713 17.1063 4.9334 16.8395 4.1989 16.7519 3.4377 16.7011 2.9966 16.6565 2.5227 16.3301 2.2211 15.8532 1.7803 15.1688 1.6466 14.8289 1.6678Z" stroke="currentColor" stroke-linecap="round" stroke-linejoin="round" stroke-width="2"/>
</svg>
