<svg xmlns="http://www.w3.org/2000/svg" width="20" height="20" viewBox="0 0 20 20" fill="none">
  <path d="M2.9167 8.3333V12.5C2.9167 14.857 2.9167 16.0355 3.6489 16.7678 4.3811 17.5 5.5597 17.5 7.9167 17.5H12.0833C14.4403 17.5 15.6189 17.5 16.3511 16.7678 17.0833 16.0355 17.0833 14.857 17.0833 12.5V8.3333" stroke="currentColor" stroke-linecap="round" stroke-linejoin="round" stroke-width="2"/>
  <path d="M14.1667 6.2515C14.1667 7.4021 13.2339 8.3333 12.0833 8.3333 10.9328 8.3333 10 7.4006 10 6.25 10 7.4006 9.0672 8.3333 7.9167 8.3333 6.7661 8.3333 5.8334 7.4006 5.8334 6.25 5.8334 7.4006 4.8555 8.3333 3.6492 8.3333 2.9999 8.3333 2.4167 8.0631 2.0167 7.6341 1.3289 6.8965 1.7713 5.8117 2.3454 4.9904L2.6684 4.5488C3.4032 3.5439 3.7706 3.0415 4.3041 2.7708 4.8376 2.5001 5.46 2.5002 6.7049 2.5003L13.2959 2.5012C14.5404 2.5014 15.1627 2.5014 15.6959 2.7721 16.2292 3.0429 16.5965 3.5451 17.3312 4.5496L17.6546 4.9919C18.2287 5.8132 18.6712 6.898 17.9833 7.6356 17.5833 8.0646 17.0002 8.3348 16.3508 8.3348 15.1445 8.3348 14.1667 7.4021 14.1667 6.2515Z" stroke="currentColor" stroke-linecap="round" stroke-linejoin="round" stroke-width="2"/>
  <path d="M12.4976 14.1667C11.9277 14.6727 11.0206 15 9.9988 15 8.9769 15 8.0698 14.6727 7.5 14.1667" stroke="currentColor" stroke-linecap="round" stroke-linejoin="round" stroke-width="2"/>
</svg>
