<svg xmlns="http://www.w3.org/2000/svg" width="20" height="20" viewBox="0 0 20 20" fill="none">
  <path d="M14.8293 1.6688L5.1244 1.6917C3.676 1.6212 3.3046 2.6763 3.3046 3.1921 3.3046 3.6535 3.2417 4.326 2.354 5.59 1.4662 6.854 1.5329 7.2295 2.0335 8.1045 2.449 8.8308 3.5058 9.1145 4.0568 9.1622 5.807 9.1998 6.6585 7.7698 6.6585 6.7648 7.5267 9.2901 9.9959 9.2901 11.0961 9.0013 12.1984 8.7121 13.1427 7.6765 13.3655 6.7648 13.4954 7.8978 13.8898 8.5589 15.0548 9.0132 16.2617 9.4838 17.2995 8.7645 17.8203 8.3035 18.341 7.8425 18.6752 6.819 17.7469 5.6941 17.1067 4.9183 16.8399 4.1875 16.7523 3.43 16.7015 2.9911 16.6569 2.5195 16.3305 2.2194 15.8536 1.7808 15.1692 1.6477 14.8293 1.6688Z" stroke="currentColor" stroke-linecap="round" stroke-linejoin="round" stroke-width="2"/>
  <path d="M2.4988 8.75V12.5C2.4988 14.857 2.4988 16.0355 3.231 16.7678 3.9632 17.5 5.1418 17.5 7.4988 17.5H10.8321" stroke="currentColor" stroke-linecap="round" stroke-width="2"/>
  <path d="M5.8321 14.1667H9.1654" stroke="currentColor" stroke-linecap="round" stroke-width="2"/>
  <path d="M15.4154 11.25C17.0263 11.25 18.3321 12.5313 18.3321 14.1119 18.3321 15.8998 16.569 16.7788 15.7279 18.1191 15.5487 18.4047 15.2951 18.4047 15.1029 18.1191 14.2356 16.8298 12.4988 15.8626 12.4988 14.1119 12.4988 12.5313 13.8046 11.25 15.4154 11.25Z" stroke="currentColor" stroke-linejoin="round" stroke-width="2"/>
  <path d="M15.5228 14.1667H15.4187M15.627 14.1667C15.627 14.2818 15.5337 14.375 15.4187 14.375 15.3037 14.375 15.2103 14.2818 15.2103 14.1667 15.2103 14.0516 15.3037 13.9583 15.4187 13.9583 15.5337 13.9583 15.627 14.0516 15.627 14.1667Z" stroke="currentColor" stroke-linecap="round" stroke-linejoin="round" stroke-width="2"/>
</svg>
