<svg xmlns="http://www.w3.org/2000/svg" width="20" height="20" viewBox="0 0 20 20" fill="none">
  <path d="M2.9167 8.3332V12.4999C2.9167 14.8569 2.9167 16.0354 3.6489 16.7677 4.3811 17.4999 5.5596 17.4999 7.9167 17.4999H10M17.0833 10.8333V8.3332" stroke="currentColor" stroke-linecap="round" stroke-linejoin="round" stroke-width="2"/>
  <path d="M14.1667 6.2514C14.1667 7.402 13.2339 8.3332 12.0833 8.3332 10.9328 8.3332 10 7.4005 10 6.2499 10 7.4005 9.0672 8.3332 7.9167 8.3332 6.7661 8.3332 5.8333 7.4005 5.8333 6.2499 5.8333 7.4005 4.8555 8.3332 3.6492 8.3332 2.9999 8.3332 2.4167 8.063 2.0167 7.634 1.3288 6.8964 1.7713 5.8116 2.3454 4.9902L2.6683 4.5487C3.4032 3.5438 3.7706 3.0414 4.3041 2.7707 4.8376 2.5 5.46 2.5 6.7049 2.5002L13.2959 2.5011C14.5404 2.5013 15.1627 2.5013 15.6959 2.7721 16.2292 3.0428 16.5965 3.545 17.3312 4.5495L17.6546 4.9918C18.2287 5.8131 18.6712 6.898 17.9833 7.6355 17.5833 8.0645 17.0001 8.3347 16.3508 8.3347 15.1445 8.3347 14.1667 7.402 14.1667 6.2514Z" stroke="currentColor" stroke-linecap="round" stroke-linejoin="round" stroke-width="2"/>
  <path d="M12.9167 13.3333L17.0833 17.4999M12.9167 17.4999L17.0833 13.3333" stroke="currentColor" stroke-linecap="round" stroke-linejoin="round" stroke-width="2"/>
</svg>
