<svg xmlns="http://www.w3.org/2000/svg" width="20" height="20" viewBox="0 0 20 20" fill="none">
  <path d="M2.5004 9.1662V12.4943C2.5004 14.8543 2.5004 16.0342 3.2326 16.7673 3.9648 17.5004 5.1433 17.5004 7.5004 17.5004H9.167" stroke="currentColor" stroke-linecap="round" stroke-linejoin="round" stroke-width="2"/>
  <path d="M14.5833 12.7777L14.5833 11.6667M14.5833 12.7777C13.8011 12.7777 13.1148 13.1948 12.7281 13.8221M14.5833 12.7777C15.3656 12.7777 16.0519 13.1948 16.4386 13.8221M14.5833 18.3333L14.5833 17.2222M14.5833 17.2222C13.8011 17.2222 13.1148 16.8052 12.7281 16.1779M14.5833 17.2222C15.3656 17.2222 16.0519 16.8052 16.4386 16.1779M11.6667 16.8518L12.7281 16.1779M17.5 13.1482L16.4386 13.8221M11.6667 13.1482L12.7281 13.8221M17.5 16.8518L16.4386 16.1779M12.7281 16.1779C12.5176 15.8364 12.3958 15.4327 12.3958 15 12.3958 14.5673 12.5176 14.1636 12.7281 13.8221M16.4386 13.8221C16.6491 14.1636 16.7708 14.5673 16.7708 15 16.7708 15.4327 16.6491 15.8364 16.4386 16.1779" stroke="currentColor" stroke-linecap="round" stroke-linejoin="round" stroke-width="2"/>
  <path d="M14.8273 1.6689L5.1224 1.6931C3.6739 1.6185 3.3026 2.7353 3.3026 3.2812 3.3026 3.7695 3.2397 4.4812 2.3519 5.819 1.4642 7.1568 1.5309 7.5543 2.0315 8.4804 2.447 9.2491 3.5037 9.5493 4.0547 9.5998 5.8049 9.6397 6.6564 8.1262 6.6564 7.0625 7.5246 9.7352 9.9938 9.7352 11.0941 9.4296 12.1963 9.1234 13.1407 8.0274 13.3634 7.0625 13.4934 8.2616 13.8877 8.9613 15.0528 9.4421 16.2596 9.9402 17.2975 9.1789 17.8182 8.691 18.3389 8.203 18.6731 7.1198 17.7448 5.9292 17.1047 5.1081 16.8379 4.3346 16.7503 3.5329 16.6995 3.0684 16.6549 2.5693 16.3285 2.2516 15.8515 1.7874 15.1672 1.6466 14.8273 1.6689Z" stroke="currentColor" stroke-linecap="round" stroke-linejoin="round" stroke-width="2"/>
</svg>
