<svg xmlns="http://www.w3.org/2000/svg" width="20" height="20" viewBox="0 0 20 20" fill="none">
  <path d="M2.9167 8.3331V12.4998C2.9167 14.8568 2.9167 16.0353 3.6489 16.7676 4.3811 17.4998 5.5596 17.4998 7.9167 17.4998H12.0833C14.4403 17.4998 15.6188 17.4998 16.3511 16.7676 17.0833 16.0353 17.0833 14.8568 17.0833 12.4998V8.3331" stroke="currentColor" stroke-linecap="round" stroke-linejoin="round" stroke-width="2"/>
  <path d="M6.6667 14.9998H13.3333" stroke="currentColor" stroke-linecap="round" stroke-linejoin="round" stroke-width="2"/>
  <path d="M14.1667 6.2513C14.1667 7.4019 13.2339 8.3331 12.0833 8.3331 10.9328 8.3331 10 7.4004 10 6.2498 10 7.4004 9.0672 8.3331 7.9167 8.3331 6.7661 8.3331 5.8333 7.4004 5.8333 6.2498 5.8333 7.4004 4.8555 8.3331 3.6492 8.3331 2.9999 8.3331 2.4167 8.0629 2.0167 7.6339 1.3288 6.8963 1.7713 5.8115 2.3454 4.9901L2.6683 4.5486C3.4032 3.5437 3.7706 3.0413 4.3041 2.7706 4.8376 2.4999 5.46 2.4999 6.7049 2.5001L13.2959 2.501C14.5404 2.5012 15.1627 2.5012 15.6959 2.772 16.2292 3.0427 16.5965 3.5449 17.3312 4.5494L17.6546 4.9917C18.2287 5.813 18.6712 6.8979 17.9833 7.6354 17.5833 8.0644 17.0001 8.3347 16.3508 8.3347 15.1445 8.3347 14.1667 7.4019 14.1667 6.2513Z" stroke="currentColor" stroke-linecap="round" stroke-linejoin="round" stroke-width="2"/>
</svg>
