<svg xmlns="http://www.w3.org/2000/svg" width="20" height="20" viewBox="0 0 20 20" fill="none">
  <path d="M5.4167 14.584L8.7508 11.25M11.2508 8.75L14.5842 5.4167" stroke="currentColor" stroke-linecap="round" stroke-linejoin="round" stroke-width="2"/>
  <path d="M11.6667 10C11.6667 10.9205 10.9205 11.6667 10 11.6667 9.0795 11.6667 8.3333 10.9205 8.3333 10 8.3333 9.0795 9.0795 8.3333 10 8.3333 10.9205 8.3333 11.6667 9.0795 11.6667 10Z" stroke="currentColor" stroke-width="2"/>
  <path d="M17.5 4.1667C17.5 5.0871 16.7538 5.8333 15.8333 5.8333 14.9128 5.8333 14.1667 5.0871 14.1667 4.1667 14.1667 3.2462 14.9128 2.5 15.8333 2.5 16.7538 2.5 17.5 3.2462 17.5 4.1667Z" stroke="currentColor" stroke-width="2"/>
  <path d="M5.8333 15.8333C5.8333 16.7538 5.0871 17.5 4.1667 17.5 3.2462 17.5 2.5 16.7538 2.5 15.8333 2.5 14.9128 3.2462 14.1667 4.1667 14.1667 5.0871 14.1667 5.8333 14.9128 5.8333 15.8333Z" stroke="currentColor" stroke-width="2"/>
</svg>
