<svg xmlns="http://www.w3.org/2000/svg" width="20" height="20" viewBox="0 0 20 20" fill="none">
  <path d="M5.8333 3.75C5.8333 4.5833 6.6667 4.5833 6.6667 5.4167 6.6667 6.25 5.8333 6.25 5.8333 7.0833 5.8333 7.9167 6.6667 7.9167 6.6667 8.75 6.6667 9.5833 5.8333 9.5833 5.8333 10.4167 5.8333 11.25 6.6667 11.25 6.6667 12.0833" stroke="currentColor" stroke-linecap="round" stroke-linejoin="round" stroke-width="2"/>
  <path d="M13.3333 3.75C13.3333 4.5833 14.1667 4.5833 14.1667 5.4167 14.1667 6.25 13.3333 6.25 13.3333 7.0833 13.3333 7.9167 14.1667 7.9167 14.1667 8.75 14.1667 9.5833 13.3333 9.5833 13.3333 10.4167 13.3333 11.25 14.1667 11.25 14.1667 12.0833" stroke="currentColor" stroke-linecap="round" stroke-linejoin="round" stroke-width="2"/>
  <path d="M6.25 14.1667V18.3333" stroke="currentColor" stroke-linecap="round" stroke-linejoin="round" stroke-width="2"/>
  <path d="M13.75 14.1667V18.3333" stroke="currentColor" stroke-linecap="round" stroke-linejoin="round" stroke-width="2"/>
  <path d="M3.75 4.1667C3.75 2.786 4.8693 1.6667 6.25 1.6667 7.6307 1.6667 8.75 2.786 8.75 4.1667V11.6667C8.75 13.0474 7.6307 14.1667 6.25 14.1667 4.8693 14.1667 3.75 13.0474 3.75 11.6667V4.1667Z" stroke="currentColor" stroke-width="2"/>
  <path d="M11.25 4.1667C11.25 2.786 12.3693 1.6667 13.75 1.6667 15.1308 1.6667 16.25 2.786 16.25 4.1667V11.6667C16.25 13.0474 15.1308 14.1667 13.75 14.1667 12.3693 14.1667 11.25 13.0474 11.25 11.6667V4.1667Z" stroke="currentColor" stroke-width="2"/>
</svg>
