<svg xmlns="http://www.w3.org/2000/svg" width="20" height="20" viewBox="0 0 20 20" fill="none">
  <path d="M18.3333 10C18.3333 14.6023 14.6023 18.3333 10 18.3333 5.3976 18.3333 1.6667 14.6023 1.6667 10 1.6667 5.3976 5.3976 1.6667 10 1.6667 14.6023 1.6667 18.3333 5.3976 18.3333 10Z" stroke="currentColor" stroke-linecap="round" stroke-linejoin="round" stroke-width="2"/>
  <path d="M15.8333 11.6667C13.75 12.0833 12.0833 13.75 11.6667 15.8333" stroke="currentColor" stroke-linecap="round" stroke-linejoin="round" stroke-width="2"/>
  <path d="M4.1667 11.6667C6.25 12.0833 7.9167 13.75 8.3333 15.8333" stroke="currentColor" stroke-linecap="round" stroke-linejoin="round" stroke-width="2"/>
  <path d="M15.8333 9.1667C14.0706 8.6327 12.0914 8.3333 10 8.3333 7.9086 8.3333 5.9294 8.6327 4.1667 9.1667" stroke="currentColor" stroke-linecap="round" stroke-linejoin="round" stroke-width="2"/>
  <path d="M10.2083 11.25H10M10.4167 11.25C10.4167 11.4801 10.2301 11.6667 10 11.6667 9.7699 11.6667 9.5833 11.4801 9.5833 11.25 9.5833 11.0199 9.7699 10.8333 10 10.8333 10.2301 10.8333 10.4167 11.0199 10.4167 11.25Z" stroke="currentColor" stroke-linecap="round" stroke-linejoin="round" stroke-width="2"/>
</svg>
