<svg xmlns="http://www.w3.org/2000/svg" width="20" height="20" viewBox="0 0 20 20" fill="none">
  <path d="M14.375 3.3333V7.0833C10.8268 5.6459 8.8868 5.9014 8.7902 6.7851 8.6935 7.6687 9.9731 8.1854 10.625 8.3333 10.625 8.3333 15.2083 9.1667 15.2083 12.9167 15.2083 16.6667 11.0417 17.5 8.9583 17.5 7.2917 17.5 5.4861 16.8317 4.7917 16.554V12.6361C5.4583 13.0158 7.1416 13.8028 8.5417 13.9133 10.2918 14.0513 10.7603 13.6471 10.8786 13.1366 11.0943 12.2057 9.5348 11.6612 8.5417 11.25 5.875 10.25 4.7917 9.1667 4.7917 7.0833 4.7917 3.3333 8.125 2.5 10.2083 2.5 12.2083 2.5 13.8194 3.0556 14.375 3.3333Z" stroke="currentColor" stroke-linejoin="round" stroke-width="2"/>
</svg>
