<svg xmlns="http://www.w3.org/2000/svg" width="20" height="20" viewBox="0 0 20 20" fill="none">
  <path d="M6.6667 18.3333H15C16.5713 18.3333 17.357 18.3333 17.8452 17.8452 18.3333 17.357 18.3333 16.5713 18.3333 15V14.1667C18.3333 12.5953 18.3333 11.8097 17.8452 11.3215 17.357 10.8333 16.5713 10.8333 15 10.8333L12.5 10.8333C10.9287 10.8333 10.143 10.8333 9.6548 10.3452 9.1667 9.857 9.1667 9.0713 9.1667 7.5V5C9.1667 3.4286 9.1667 2.643 8.6785 2.1548 8.1904 1.6667 7.4047 1.6667 5.8333 1.6667L5 1.6667C3.4286 1.6667 2.643 1.6667 2.1548 2.1548 1.6667 2.643 1.6667 3.4286 1.6667 5L1.6667 13.3333C1.6667 15.6903 1.6667 16.8688 2.3989 17.6011 3.1311 18.3333 4.3096 18.3333 6.6667 18.3333Z" stroke="currentColor" stroke-linecap="round" stroke-linejoin="round" stroke-width="2"/>
  <path d="M8.3333 13.75C8.3333 14.9006 7.4006 15.8333 6.25 15.8333 5.0994 15.8333 4.1667 14.9006 4.1667 13.75 4.1667 12.5994 5.0994 11.6667 6.25 11.6667 7.4006 11.6667 8.3333 12.5994 8.3333 13.75Z" stroke="currentColor" stroke-width="2"/>
  <path d="M5.4167 8.3333V1.6667" stroke="currentColor" stroke-linecap="round" stroke-width="2"/>
  <path d="M11.6667 14.5833H18.3333" stroke="currentColor" stroke-linecap="round" stroke-width="2"/>
</svg>
