<svg xmlns="http://www.w3.org/2000/svg" width="20" height="20" viewBox="0 0 20 20" fill="none">
  <path d="M15 10.8333C16.5713 10.8333 17.357 10.8333 17.8452 11.3215 18.3333 11.8097 18.3333 12.5953 18.3333 14.1667V15C18.3333 16.5713 18.3333 17.357 17.8452 17.8452 17.357 18.3333 16.5713 18.3333 15 18.3333H6.6667C4.3096 18.3333 3.1311 18.3333 2.3989 17.6011 1.6667 16.8688 1.6667 15.6903 1.6667 13.3333L1.6667 5C1.6667 3.4286 1.6667 2.643 2.1548 2.1548 2.643 1.6667 3.4286 1.6667 5 1.6667L5.8333 1.6667C7.4047 1.6667 8.1904 1.6667 8.6785 2.1548 9.1667 2.643 9.1667 3.4286 9.1667 5" stroke="currentColor" stroke-linecap="round" stroke-linejoin="round" stroke-width="2"/>
  <path d="M12.5 10C12.5 11.3808 11.3808 12.5 10 12.5 8.6193 12.5 7.5 11.3808 7.5 10 7.5 8.6193 8.6193 7.5 10 7.5 11.3808 7.5 12.5 8.6193 12.5 10Z" stroke="currentColor" stroke-width="2"/>
</svg>
