<svg xmlns="http://www.w3.org/2000/svg" width="20" height="20" viewBox="0 0 20 20" fill="none">
  <path d="M1.6667 4.1667C1.6667 2.0983 2.0983 1.6667 4.1667 1.6667H5.8333C7.9017 1.6667 8.3333 2.0983 8.3333 4.1667 8.3333 6.235 7.9017 6.6667 5.8333 6.6667H4.1667C2.0983 6.6667 1.6667 6.235 1.6667 4.1667Z" stroke="currentColor" stroke-width="2"/>
  <path d="M12.5 7.5C12.5 5.4317 12.8777 5 14.6875 5H16.1458C17.9557 5 18.3333 5.4317 18.3333 7.5 18.3333 9.5683 17.9557 10 16.1458 10H14.6875C12.8777 10 12.5 9.5683 12.5 7.5Z" stroke="currentColor" stroke-width="2"/>
  <path d="M10.8333 15.8333C10.8333 13.765 11.265 13.3333 13.3333 13.3333H15C17.0683 13.3333 17.5 13.765 17.5 15.8333 17.5 17.9017 17.0683 18.3333 15 18.3333H13.3333C11.265 18.3333 10.8333 17.9017 10.8333 15.8333Z" stroke="currentColor" stroke-width="2"/>
  <path d="M12.5 5.8333L8.3333 4.1667 11.3095 13.3333" stroke="currentColor" stroke-linecap="round" stroke-linejoin="round" stroke-width="2"/>
</svg>
