<svg xmlns="http://www.w3.org/2000/svg" width="20" height="20" viewBox="0 0 20 20" fill="none">
  <path d="M1.6667 10C1.6667 7.9317 2.0983 7.5 4.1667 7.5H5.8333C7.9017 7.5 8.3333 7.9317 8.3333 10 8.3333 12.0683 7.9017 12.5 5.8333 12.5H4.1667C2.0983 12.5 1.6667 12.0683 1.6667 10Z" stroke="currentColor" stroke-width="2"/>
  <path d="M11.6667 5.8333C11.6667 3.765 12.0983 3.3333 14.1667 3.3333H15.8333C17.9017 3.3333 18.3333 3.765 18.3333 5.8333 18.3333 7.9017 17.9017 8.3333 15.8333 8.3333H14.1667C12.0983 8.3333 11.6667 7.9017 11.6667 5.8333Z" stroke="currentColor" stroke-width="2"/>
  <path d="M11.6667 14.1667C11.6667 12.0983 12.0983 11.6667 14.1667 11.6667H15.8333C17.9017 11.6667 18.3333 12.0983 18.3333 14.1667 18.3333 16.235 17.9017 16.6667 15.8333 16.6667H14.1667C12.0983 16.6667 11.6667 16.235 11.6667 14.1667Z" stroke="currentColor" stroke-width="2"/>
  <path d="M11.6667 5.8333L9.1667 10 11.6667 14.1667" stroke="currentColor" stroke-linecap="round" stroke-linejoin="round" stroke-width="2"/>
</svg>
