<svg xmlns="http://www.w3.org/2000/svg" width="20" height="20" viewBox="0 0 20 20" fill="none">
  <path d="M12.5017 4.1667C12.5017 2.9882 12.5017 2.3989 12.9287 2.0328 13.3556 1.6667 14.0429 1.6667 15.4173 1.6667 16.7918 1.6667 17.4792 1.6667 17.9061 2.0328 18.3331 2.3989 18.3331 2.9882 18.3331 4.1667 18.3331 5.3452 18.3331 5.9344 17.9061 6.3006 17.4792 6.6667 16.7918 6.6667 15.4173 6.6667 14.0429 6.6667 13.3556 6.6667 12.9287 6.3006 12.5017 5.9344 12.5017 5.3452 12.5017 4.1667Z" stroke="currentColor" stroke-width="2"/>
  <path d="M12.5017 15.8333C12.5017 14.6548 12.5017 14.0656 12.9287 13.6994 13.3556 13.3333 14.0429 13.3333 15.4173 13.3333 16.7918 13.3333 17.4792 13.3333 17.9061 13.6994 18.3331 14.0656 18.3331 14.6548 18.3331 15.8333 18.3331 17.0118 18.3331 17.6011 17.9061 17.9672 17.4792 18.3333 16.7918 18.3333 15.4173 18.3333 14.0429 18.3333 13.3556 18.3333 12.9287 17.9672 12.5017 17.6011 12.5017 17.0118 12.5017 15.8333Z" stroke="currentColor" stroke-width="2"/>
  <path d="M5.852 8.3332L5.852 11.6667M7.5108 10L4.1569 10" stroke="currentColor" stroke-linecap="round" stroke-linejoin="round" stroke-width="2"/>
  <path d="M5.8567 14.197C8.1708 14.197 10.0468 12.3205 10.0468 10.0057 10.0468 7.6908 8.1708 5.8143 5.8567 5.8143M5.8567 14.197C3.5426 14.197 1.6667 12.3205 1.6667 10.0057 1.6667 7.6908 3.5426 5.8143 5.8567 5.8143M5.8567 14.197C5.7984 15.9719 7.1353 16.627 8.0627 16.661H10.0018M5.8567 5.8143C5.7978 4.0143 7.123 3.3813 8.0627 3.3415H10.0018" stroke="currentColor" stroke-linecap="round" stroke-linejoin="round" stroke-width="2"/>
</svg>
