<svg xmlns="http://www.w3.org/2000/svg" width="20" height="20" viewBox="0 0 20 20" fill="none">
  <path d="M1.6667 16.25C1.6667 15.2679 1.6667 14.7768 2.0328 14.4718 2.3989 14.1667 2.9882 14.1667 4.1667 14.1667 5.3452 14.1667 5.9344 14.1667 6.3006 14.4718 6.6667 14.7768 6.6667 15.2679 6.6667 16.25 6.6667 17.2321 6.6667 17.7232 6.3006 18.0282 5.9344 18.3333 5.3452 18.3333 4.1667 18.3333 2.9882 18.3333 2.3989 18.3333 2.0328 18.0282 1.6667 17.7232 1.6667 17.2321 1.6667 16.25Z" stroke="currentColor" stroke-width="2"/>
  <path d="M13.3333 16.25C13.3333 15.2679 13.3333 14.7768 13.6994 14.4718 14.0656 14.1667 14.6548 14.1667 15.8333 14.1667 17.0118 14.1667 17.6011 14.1667 17.9672 14.4718 18.3333 14.7768 18.3333 15.2679 18.3333 16.25 18.3333 17.2321 18.3333 17.7232 17.9672 18.0282 17.6011 18.3333 17.0118 18.3333 15.8333 18.3333 14.6548 18.3333 14.0656 18.3333 13.6994 18.0282 13.3333 17.7232 13.3333 17.2321 13.3333 16.25Z" stroke="currentColor" stroke-width="2"/>
  <path d="M15.8333 14.1667C15.8333 11.4089 15.2135 10.8333 12.2436 10.8333H7.7564C4.7865 10.8333 4.1667 11.4089 4.1667 14.1667" stroke="currentColor" stroke-linecap="round" stroke-linejoin="round" stroke-width="2"/>
  <path d="M10 8.3333H10.4688C11.7854 8.3333 12.4437 8.3333 12.9167 8.0212 13.1214 7.8861 13.2972 7.7125 13.434 7.5103 13.75 7.0432 13.75 6.393 13.75 5.0926 13.75 4.3123 13.75 3.9222 13.5604 3.642 13.4783 3.5206 13.3728 3.4165 13.25 3.3354 12.9663 3.1482 12.5713 3.1482 11.7813 3.1482H10.5354C10.4272 3.1482 10.373 3.1482 10.3232 3.1409 10.1371 3.1139 9.9706 3.0129 9.8632 2.8617 9.8345 2.8213 9.8105 2.7738 9.7625 2.6789 9.5657 2.2902 9.3858 1.8989 8.9497 1.7374 8.7588 1.6667 8.5405 1.6667 8.1041 1.6667 7.4229 1.6667 7.0823 1.6667 6.8268 1.8075 6.6446 1.9079 6.4943 2.0564 6.3926 2.2363 6.25 2.4887 6.25 2.8251 6.25 3.4979V4.6296C6.25 6.3756 6.25 7.2485 6.7992 7.7909 7.3484 8.3333 8.2322 8.3333 10 8.3333Z" stroke="currentColor" stroke-linecap="round" stroke-width="2"/>
</svg>
