<svg xmlns="http://www.w3.org/2000/svg" width="20" height="20" viewBox="0 0 20 20" fill="none">
  <path d="M6.6667 15.8333C6.6667 17.2141 5.5474 18.3333 4.1667 18.3333 2.786 18.3333 1.6667 17.2141 1.6667 15.8333 1.6667 14.4526 2.786 13.3333 4.1667 13.3333 5.5474 13.3333 6.6667 14.4526 6.6667 15.8333Z" stroke="currentColor" stroke-width="2"/>
  <path d="M18.3333 15.8333C18.3333 17.2141 17.2141 18.3333 15.8333 18.3333 14.4526 18.3333 13.3333 17.2141 13.3333 15.8333 13.3333 14.4526 14.4526 13.3333 15.8333 13.3333 17.2141 13.3333 18.3333 14.4526 18.3333 15.8333Z" stroke="currentColor" stroke-width="2"/>
  <path d="M15.8333 13.3333C15.7027 11.2892 14.9739 10.8333 12.5099 10.8333H7.4901C5.0261 10.8333 4.2972 11.2892 4.1667 13.3333" stroke="currentColor" stroke-linecap="round" stroke-linejoin="round" stroke-width="2"/>
  <path d="M10 8.3333H10.4688C11.7854 8.3333 12.4437 8.3333 12.9167 8.0212 13.1214 7.8861 13.2972 7.7125 13.434 7.5103 13.75 7.0432 13.75 6.393 13.75 5.0926 13.75 4.3123 13.75 3.9222 13.5604 3.642 13.4783 3.5206 13.3728 3.4165 13.25 3.3354 12.9663 3.1482 12.5713 3.1482 11.7813 3.1482H10.5354C10.4272 3.1482 10.373 3.1482 10.3232 3.1409 10.1371 3.1139 9.9706 3.0129 9.8632 2.8617 9.8345 2.8213 9.8105 2.7738 9.7625 2.6789 9.5657 2.2902 9.3858 1.8989 8.9497 1.7374 8.7588 1.6667 8.5405 1.6667 8.1041 1.6667 7.4229 1.6667 7.0823 1.6667 6.8268 1.8075 6.6446 1.9079 6.4943 2.0564 6.3926 2.2363 6.25 2.4887 6.25 2.8251 6.25 3.4979V4.6296C6.25 6.3756 6.25 7.2485 6.7992 7.7909 7.3484 8.3333 8.2322 8.3333 10 8.3333Z" stroke="currentColor" stroke-linecap="round" stroke-width="2"/>
</svg>
