<svg xmlns="http://www.w3.org/2000/svg" width="20" height="20" viewBox="0 0 20 20" fill="none">
  <path d="M12.5131 4.1667C12.5131 2.9882 12.5131 2.3989 12.9394 2.0328 13.3657 1.6667 14.0518 1.6667 15.4242 1.6667 16.7964 1.6667 17.4826 1.6667 17.9088 2.0328 18.3352 2.3989 18.3352 2.9882 18.3352 4.1667 18.3352 5.3452 18.3352 5.9344 17.9088 6.3006 17.4826 6.6667 16.7964 6.6667 15.4242 6.6667 14.0518 6.6667 13.3657 6.6667 12.9394 6.3006 12.5131 5.9344 12.5131 5.3452 12.5131 4.1667Z" stroke="currentColor" stroke-width="2"/>
  <path d="M12.5131 15.8333C12.5131 14.6548 12.5131 14.0656 12.9394 13.6994 13.3657 13.3333 14.0518 13.3333 15.4242 13.3333 16.7964 13.3333 17.4826 13.3333 17.9088 13.6994 18.3352 14.0656 18.3352 14.6548 18.3352 15.8333 18.3352 17.0118 18.3352 17.6011 17.9088 17.9672 17.4826 18.3333 16.7964 18.3333 15.4242 18.3333 14.0518 18.3333 13.3657 18.3333 12.9394 17.9672 12.5131 17.6011 12.5131 17.0118 12.5131 15.8333Z" stroke="currentColor" stroke-width="2"/>
  <path d="M7.1177 8.7354L4.6028 11.2457M7.1177 11.2457L4.6028 8.7354" stroke="currentColor" stroke-linecap="round" stroke-linejoin="round" stroke-width="2"/>
  <path d="M5.8711 14.1928C8.1751 14.1928 10.0086 12.3091 10.0086 9.9943 10.0086 7.6795 8.1408 5.8029 5.8368 5.8029M5.8711 14.1928C3.5671 14.1928 1.6651 12.3091 1.6651 9.9943 1.6651 7.6795 3.5329 5.8029 5.8368 5.8029M5.8711 14.1928C5.8131 15.9677 7.1098 16.6157 8.0332 16.6496H10.0086M5.8368 5.8029C5.7782 4.0029 7.0976 3.3699 8.0332 3.3301H10.0175" stroke="currentColor" stroke-linecap="round" stroke-linejoin="round" stroke-width="2"/>
</svg>
