<svg xmlns="http://www.w3.org/2000/svg" width="20" height="20" viewBox="0 0 20 20" fill="none">
  <path d="M1.6667 10.8333C1.6667 10.0477 1.6667 9.6548 1.9107 9.4108 2.1548 9.1667 2.5477 9.1667 3.3333 9.1667 4.119 9.1667 4.5118 9.1667 4.7559 9.4108 5 9.6548 5 10.0477 5 10.8333 5 11.619 5 12.0118 4.7559 12.2559 4.5118 12.5 4.119 12.5 3.3333 12.5 2.5477 12.5 2.1548 12.5 1.9107 12.2559 1.6667 12.0118 1.6667 11.619 1.6667 10.8333Z" stroke="currentColor" stroke-width="2"/>
  <path d="M15 10.8333C15 10.0477 15 9.6548 15.2441 9.4108 15.4882 9.1667 15.881 9.1667 16.6667 9.1667 17.4523 9.1667 17.8452 9.1667 18.0892 9.4108 18.3333 9.6548 18.3333 10.0477 18.3333 10.8333 18.3333 11.619 18.3333 12.0118 18.0892 12.2559 17.8452 12.5 17.4523 12.5 16.6667 12.5 15.881 12.5 15.4882 12.5 15.2441 12.2559 15 12.0118 15 11.619 15 10.8333Z" stroke="currentColor" stroke-width="2"/>
  <path d="M10 5.8332V11.6666M10 15.8333V18.3332M3.3333 9.1667V7.5C3.3333 4.7422 3.9089 4.1667 6.6667 4.1667M16.6667 9.1667V7.5C16.6667 4.7422 16.0911 4.1667 13.3333 4.1667" stroke="currentColor" stroke-linecap="round" stroke-linejoin="round" stroke-width="2"/>
  <path d="M12.0833 13.75C12.0833 14.9006 11.1506 15.8333 10 15.8333 8.8494 15.8333 7.9167 14.9006 7.9167 13.75 7.9167 12.5994 8.8494 11.6667 10 11.6667 11.1506 11.6667 12.0833 12.5994 12.0833 13.75Z" stroke="currentColor" stroke-width="2"/>
  <path d="M8.3333 1.6667H11.6667C13.1793 1.6667 13.3333 2.4375 13.3333 3.75 13.3333 5.0625 13.1793 5.8333 11.6667 5.8333H8.3333C6.8207 5.8333 6.6667 5.0625 6.6667 3.75 6.6667 2.4375 6.8207 1.6667 8.3333 1.6667Z" stroke="currentColor" stroke-width="2"/>
</svg>
