<svg xmlns="http://www.w3.org/2000/svg" width="20" height="20" viewBox="0 0 20 20" fill="none">
  <path d="M12.0833 13.75C12.0833 14.9006 11.1506 15.8333 10 15.8333 8.8494 15.8333 7.9167 14.9006 7.9167 13.75 7.9167 12.5994 8.8494 11.6667 10 11.6667 11.1506 11.6667 12.0833 12.5994 12.0833 13.75Z" stroke="currentColor" stroke-width="2"/>
  <path d="M8.5714 1.6667H11.4286C13.1573 1.6667 13.3333 2.4375 13.3333 3.75 13.3333 5.0625 13.1573 5.8333 11.4286 5.8333H8.5714C6.8427 5.8333 6.6667 5.0625 6.6667 3.75 6.6667 2.4375 6.8427 1.6667 8.5714 1.6667Z" stroke="currentColor" stroke-width="2"/>
  <path d="M3.3333 10.8333C3.5397 9.4808 4.3706 9.1667 6.6563 9.1667H13.3461C15.6318 9.1667 16.4603 9.4808 16.6667 10.8333" stroke="currentColor" stroke-linecap="round" stroke-linejoin="round" stroke-width="2"/>
  <path d="M1.6667 12.5C1.6667 11.7143 1.6667 11.3215 1.9107 11.0774 2.1548 10.8333 2.5477 10.8333 3.3333 10.8333 4.119 10.8333 4.5118 10.8333 4.7559 11.0774 5 11.3215 5 11.7143 5 12.5 5 13.2857 5 13.6785 4.7559 13.9226 4.5118 14.1667 4.119 14.1667 3.3333 14.1667 2.5477 14.1667 2.1548 14.1667 1.9107 13.9226 1.6667 13.6785 1.6667 13.2857 1.6667 12.5Z" stroke="currentColor" stroke-width="2"/>
  <path d="M15 12.5C15 11.7143 15 11.3215 15.2441 11.0774 15.4882 10.8333 15.881 10.8333 16.6667 10.8333 17.4523 10.8333 17.8452 10.8333 18.0892 11.0774 18.3333 11.3215 18.3333 11.7143 18.3333 12.5 18.3333 13.2857 18.3333 13.6785 18.0892 13.9226 17.8452 14.1667 17.4523 14.1667 16.6667 14.1667 15.881 14.1667 15.4882 14.1667 15.2441 13.9226 15 13.6785 15 13.2857 15 12.5Z" stroke="currentColor" stroke-width="2"/>
  <path d="M10 5.8333L10 11.6667" stroke="currentColor" stroke-linecap="round" stroke-linejoin="round" stroke-width="2"/>
  <path d="M10 15.8333L10 18.3333" stroke="currentColor" stroke-linecap="round" stroke-linejoin="round" stroke-width="2"/>
</svg>
