<svg xmlns="http://www.w3.org/2000/svg" width="20" height="20" viewBox="0 0 20 20" fill="none">
  <path d="M12.518 4.1667C12.518 2.9882 12.518 2.3989 12.944 2.0328 13.3699 1.6667 14.0555 1.6667 15.4267 1.6667 16.7978 1.6667 17.4833 1.6667 17.9093 2.0328 18.3353 2.3989 18.3353 2.9882 18.3353 4.1667 18.3353 5.3452 18.3353 5.9344 17.9093 6.3006 17.4833 6.6667 16.7978 6.6667 15.4267 6.6667 14.0555 6.6667 13.3699 6.6667 12.944 6.3006 12.518 5.9344 12.518 5.3452 12.518 4.1667Z" stroke="currentColor" stroke-width="2"/>
  <path d="M12.518 15.8333C12.518 14.6548 12.518 14.0656 12.944 13.6994 13.3699 13.3333 14.0555 13.3333 15.4267 13.3333 16.7978 13.3333 17.4833 13.3333 17.9093 13.6994 18.3353 14.0656 18.3353 14.6548 18.3353 15.8333 18.3353 17.0118 18.3353 17.6011 17.9093 17.9672 17.4833 18.3333 16.7978 18.3333 15.4267 18.3333 14.0555 18.3333 13.3699 18.3333 12.944 17.9672 12.518 17.6011 12.518 17.0118 12.518 15.8333Z" stroke="currentColor" stroke-width="2"/>
  <path d="M5.8793 14.2026C8.1877 14.2026 10.0248 12.3188 10.0248 10.004 10.0248 7.6892 8.1534 5.8127 5.8449 5.8127M5.8793 14.2026C3.5709 14.2026 1.6652 12.3188 1.6652 10.004 1.6652 7.6892 3.5365 5.8127 5.8449 5.8127M5.8793 14.2026C5.8211 15.9774 7.1204 16.6254 8.0456 16.6593H10.0248M5.8449 5.8127C5.7862 4.0126 7.1081 3.3796 8.0456 3.3398H10.0337" stroke="currentColor" stroke-linecap="round" stroke-linejoin="round" stroke-width="2"/>
  <path d="M7.2577 9.0657L5.5316 10.8718C5.4665 10.9399 5.3581 10.9403 5.2925 10.8727L4.4825 10.0382" stroke="currentColor" stroke-linecap="round" stroke-linejoin="round" stroke-width="2"/>
</svg>
