<svg xmlns="http://www.w3.org/2000/svg" width="20" height="20" viewBox="0 0 20 20" fill="none">
  <path d="M11.6667 2.9167C14.8093 2.9167 16.3808 2.9167 17.357 3.954 18.3333 4.9913 18.3333 6.6609 18.3333 10 18.3333 13.3391 18.3333 15.0087 17.357 16.046 16.3808 17.0833 14.8093 17.0833 11.6667 17.0833L8.3333 17.0833C5.1906 17.0833 3.6193 17.0833 2.643 16.046 1.6667 15.0087 1.6667 13.3391 1.6667 10 1.6667 6.6609 1.6667 4.9913 2.643 3.954 3.6193 2.9167 5.1906 2.9167 8.3333 2.9167L11.6667 2.9167Z" stroke="currentColor" stroke-linejoin="round" stroke-width="2"/>
  <path d="M4.1667 12.9167C5.5072 11.1355 8.6282 11.0383 10 12.9167M8.5408 8.5418C8.5408 9.3472 7.8879 10.0001 7.0825 10.0001 6.2771 10.0001 5.6242 9.3472 5.6242 8.5418 5.6242 7.7364 6.2771 7.0834 7.0825 7.0834 7.8879 7.0834 8.5408 7.7364 8.5408 8.5418Z" stroke="currentColor" stroke-linecap="round" stroke-width="2"/>
  <path d="M12.5 7.9167L15.8333 7.9167" stroke="currentColor" stroke-linecap="round" stroke-width="2"/>
  <path d="M12.5 11.25H14.1667" stroke="currentColor" stroke-linecap="round" stroke-width="2"/>
</svg>
