<svg xmlns="http://www.w3.org/2000/svg" width="20" height="20" viewBox="0 0 20 20" fill="none">
  <path d="M15.8333 4.1667L10 1.6667 4.1667 4.1667 7.0833 5.4167V7.0833C7.0833 7.0833 8.0556 6.6667 10 6.6667 11.9444 6.6667 12.9167 7.0833 12.9167 7.0833V5.4167L15.8333 4.1667ZM15.8333 4.1667V7.5" stroke="currentColor" stroke-linecap="round" stroke-linejoin="round" stroke-width="2"/>
  <path d="M12.9167 7.0833V7.9167C12.9167 9.5275 11.6108 10.8333 10 10.8333 8.3892 10.8333 7.0833 9.5275 7.0833 7.9167V7.0833" stroke="currentColor" stroke-linecap="round" stroke-linejoin="round" stroke-width="2"/>
  <path d="M6.4855 13.9194C5.5685 14.4898 3.1642 15.6545 4.6286 17.1118 5.3439 17.8238 6.1406 18.3329 7.1422 18.3329H12.8577C13.8594 18.3329 14.6561 17.8238 15.3714 17.1118 16.8358 15.6545 14.4315 14.4898 13.5145 13.9194 11.3643 12.5818 8.6357 12.5818 6.4855 13.9194Z" stroke="currentColor" stroke-linecap="round" stroke-linejoin="round" stroke-width="2"/>
</svg>
