<svg xmlns="http://www.w3.org/2000/svg" width="20" height="20" viewBox="0 0 20 20" fill="none">
  <path d="M14.6349 7.6853L14.1963 8.4583C13.7838 9.1854 13.5775 9.549 13.1282 9.5808 12.6789 9.6125 12.4885 9.3526 12.1076 8.8328 11.6825 8.2526 11.4132 7.5709 11.3178 6.858 11.2287 6.1919 11.1841 5.8588 11.0762 5.6953 10.9039 5.4343 10.5579 5.2907 10.2993 5.1388 9.6181 4.7385 9.2774 4.5384 9.188 4.1987 9.0986 3.859 9.2952 3.5124 9.6885 2.8192 10.0818 2.126 10.2785 1.7794 10.6123 1.6884 10.9461 1.5974 11.2868 1.7975 11.9679 2.1977 12.2266 2.3497 12.5218 2.5828 12.8301 2.604 13.0232 2.6174 13.3289 2.4901 13.9403 2.2357 14.5948 1.9633 15.3096 1.8597 16.0159 1.9443 16.6487 2.02 16.9652 2.0579 17.1628 2.4697 17.3604 2.8815 17.1542 3.2451 16.7416 3.9722L16.3036 4.7443M14.6349 7.6853L14.9967 7.8979C15.7948 8.3668 16.8153 8.0885 17.2762 7.2764 17.7369 6.4642 17.4635 5.4257 16.6654 4.9568L16.3036 4.7443M14.6349 7.6853L16.3036 4.7443" stroke="currentColor" stroke-width="2"/>
  <path d="M5.8333 10.8333C5.8333 11.7538 5.0871 12.5 4.1667 12.5 3.2462 12.5 2.5 11.7538 2.5 10.8333 2.5 9.9128 3.2462 9.1667 4.1667 9.1667 5.0871 9.1667 5.8333 9.9128 5.8333 10.8333Z" stroke="currentColor" stroke-width="2"/>
  <path d="M5 10L10.8333 5.8333" stroke="currentColor" stroke-linejoin="round" stroke-width="2"/>
  <path d="M5.8333 18.3333H11.6667" stroke="currentColor" stroke-linecap="round" stroke-linejoin="round" stroke-width="2"/>
  <path d="M5 12.5L9.1667 18.3333" stroke="currentColor" stroke-linecap="round" stroke-linejoin="round" stroke-width="2"/>
</svg>
