<svg xmlns="http://www.w3.org/2000/svg" width="20" height="20" viewBox="0 0 20 20" fill="none">
  <path d="M15 10.8333V12.5C15 13.4205 14.2538 14.1667 13.3333 14.1667 12.4128 14.1667 11.6667 13.4205 11.6667 12.5V10.8333M5 10.8333V12.5C5 13.4205 5.7462 14.1667 6.6667 14.1667 7.5871 14.1667 8.3333 13.4205 8.3333 12.5V7.5C8.3333 6.5795 9.0795 5.8333 10 5.8333 10.9205 5.8333 11.6667 6.5795 11.6667 7.5V8.3333" stroke="currentColor" stroke-linecap="round" stroke-width="2"/>
  <path d="M2.0833 10C2.0833 6.268 2.0833 4.4021 3.2427 3.2427 4.4021 2.0833 6.268 2.0833 10 2.0833 13.7319 2.0833 15.5979 2.0833 16.7573 3.2427 17.9167 4.4021 17.9167 6.268 17.9167 10 17.9167 13.7319 17.9167 15.5979 16.7573 16.7573 15.5979 17.9167 13.7319 17.9167 10 17.9167 6.268 17.9167 4.4021 17.9167 3.2427 16.7573 2.0833 15.5979 2.0833 13.7319 2.0833 10Z" stroke="currentColor" stroke-linejoin="round" stroke-width="2"/>
</svg>
