<svg xmlns="http://www.w3.org/2000/svg" width="20" height="20" viewBox="0 0 20 20" fill="none">
  <circle cx="10" cy="11.666666666666668" r="3.3333333333333335" stroke="currentColor" stroke-linecap="round" stroke-linejoin="round" stroke-width="2"/>
  <path d="M5.8333 1.6667V2.5M5.8333 4.5833V5.4167M5.8333 7.5V8.3333M14.1667 1.6667V2.5M14.1667 4.5833V5.4167M14.1667 7.5V8.3333M10 1.6667V2.5M10 4.5833V5.4167" stroke="currentColor" stroke-linecap="round" stroke-linejoin="round" stroke-width="2"/>
  <path d="M1.6667 10V13.3333C1.6667 15.6903 1.6667 16.8688 2.3989 17.6011 3.1311 18.3333 4.3096 18.3333 6.6667 18.3333H13.3333C15.6903 18.3333 16.8688 18.3333 17.6011 17.6011 18.3333 16.8688 18.3333 15.6903 18.3333 13.3333V10" stroke="currentColor" stroke-linecap="round" stroke-linejoin="round" stroke-width="2"/>
  <path d="M1.6667 12.3931C3.5534 13.9886 5.1452 13.1077 6.6847 12.3608 7.9972 11.7242 9.2717 11.1849 10.6583 12.3608 13.3723 14.6221 15.7577 12.2938 18.3333 11.8313" stroke="currentColor" stroke-linecap="round" stroke-width="2"/>
</svg>
