<svg xmlns="http://www.w3.org/2000/svg" width="20" height="20" viewBox="0 0 20 20" fill="none">
  <path d="M15.8333 10H8.0342C7.2208 10 6.4042 10.7083 5.7324 11.0904 5.4466 11.2529 5.3038 11.3342 5.1726 11.3088 5.0414 11.2834 4.9047 11.125 4.6314 10.8082 4.0592 10.1448 3.4404 10 2.5 10 2.0398 10 1.6667 10.4352 1.6667 10.9723V14.8611C1.6667 15.3981 2.0398 15.8333 2.5 15.8333 3.4405 15.8333 4.0592 15.6886 4.6314 15.0252 4.9047 14.7083 5.0414 14.5499 5.1726 14.5245 5.3038 14.4992 5.4466 14.5804 5.7324 14.7429 6.4042 15.125 7.2208 15.8333 8.0342 15.8333H15.8333C17.2141 15.8333 18.3333 14.5275 18.3333 12.9167 18.3333 11.3058 17.2141 10 15.8333 10Z" stroke="currentColor" stroke-linecap="round" stroke-linejoin="round" stroke-width="2"/>
  <path d="M8.75 10L9.2162 8.9696C9.5389 8.2561 9.7003 7.8993 10.0098 7.6996 10.3192 7.5 10.7108 7.5 11.4939 7.5H11.8394C12.6226 7.5 13.0142 7.5 13.3236 7.6996 13.633 7.8993 13.7944 8.2561 14.1172 8.9696L14.5833 10" stroke="currentColor" stroke-linecap="round" stroke-linejoin="round" stroke-width="2"/>
  <path d="M11.6667 7.5V4.1667C11.6667 3.7064 12.0397 3.3333 12.5 3.3333H13.3333" stroke="currentColor" stroke-linecap="round" stroke-linejoin="round" stroke-width="2"/>
</svg>
