<svg xmlns="http://www.w3.org/2000/svg" width="20" height="20" viewBox="0 0 20 20" fill="none">
  <path d="M12.0833 16.25H11.25C8.893 16.25 7.7145 16.25 6.9822 15.5178 6.25 14.7855 6.25 13.607 6.25 11.25V9.5833M6.25 6.6667V9.5833M6.25 9.5833H10" stroke="currentColor" stroke-linecap="round" stroke-linejoin="round" stroke-width="2"/>
  <path d="M12.0833 16.25C12.0833 15.2679 12.0833 14.7768 12.3763 14.4718 12.6691 14.1667 13.1405 14.1667 14.0833 14.1667H15.0833C16.0262 14.1667 16.4976 14.1667 16.7904 14.4718 17.0833 14.7768 17.0833 15.2679 17.0833 16.25 17.0833 17.2321 17.0833 17.7232 16.7904 18.0282 16.4976 18.3333 16.0262 18.3333 15.0833 18.3333H14.0833C13.1405 18.3333 12.6691 18.3333 12.3763 18.0282 12.0833 17.7232 12.0833 17.2321 12.0833 16.25Z" stroke="currentColor" stroke-width="2"/>
  <path d="M4.8214 1.6667H7.6786C9.4073 1.6667 9.5833 2.5916 9.5833 4.1667 9.5833 5.7417 9.4073 6.6667 7.6786 6.6667H4.8214C3.0927 6.6667 2.9167 5.7417 2.9167 4.1667 2.9167 2.5916 3.0927 1.6667 4.8214 1.6667Z" stroke="currentColor" stroke-width="2"/>
  <path d="M14.5833 7.5V11.6667M16.6667 9.5833L12.5 9.5833" stroke="currentColor" stroke-linecap="round" stroke-linejoin="round" stroke-width="2"/>
</svg>
