<svg xmlns="http://www.w3.org/2000/svg" width="20" height="20" viewBox="0 0 20 20" fill="none">
  <path d="M5.0019 3.3332C3.7074 3.3722 2.9353 3.5166 2.4008 4.051 1.6686 4.7833 1.6686 5.9618 1.6686 8.3188L1.6647 13.3334C1.6647 15.6905 1.6647 16.869 2.3969 17.6013 3.1292 18.3334 4.3077 18.3334 6.6647 18.3334H13.3313C15.6883 18.3334 16.8669 18.3334 17.5991 17.6013 18.3313 16.869 18.3313 15.6905 18.3313 13.3334L18.3353 8.3188C18.3353 5.9618 18.3353 4.7833 17.603 4.051 17.0686 3.5166 16.2965 3.3722 15.0019 3.3332" stroke="currentColor" stroke-linecap="round" stroke-linejoin="round" stroke-width="2"/>
  <path d="M14.998 3.3332L14.3919 5.2135C13.7416 7.1988 13.4165 8.1915 12.6785 8.3202 11.9404 8.4488 11.2604 7.4852 9.998 5.8332L13.3313 1.6666 14.998 3.3332Z" stroke="currentColor" stroke-linecap="round" stroke-linejoin="round" stroke-width="2"/>
  <path d="M4.998 3.3332L5.6042 5.2135C6.2544 7.1988 6.5795 8.1915 7.3176 8.3202 8.0556 8.4488 8.7356 7.4852 9.998 5.8332L6.6647 1.6666 4.998 3.3332Z" stroke="currentColor" stroke-linecap="round" stroke-linejoin="round" stroke-width="2"/>
  <path d="M13.3313 1.6666H6.6647" stroke="currentColor" stroke-linecap="round" stroke-linejoin="round" stroke-width="2"/>
  <path d="M7.9147 8.3332L8.748 9.9999H11.248L12.0813 8.3332" stroke="currentColor" stroke-linecap="round" stroke-linejoin="round" stroke-width="2"/>
  <path d="M8.748 9.9999L7.498 18.3332M12.498 18.3332L11.248 9.9999" stroke="currentColor" stroke-linecap="round" stroke-linejoin="round" stroke-width="2"/>
</svg>
