<svg xmlns="http://www.w3.org/2000/svg" width="20" height="20" viewBox="0 0 20 20" fill="none">
  <path d="M16.25 10.4256C16.25 9.1891 15.5093 7.1368 12.5468 5.4881 8.8435 3.4272 6.0956 4.0527 5.1403 5.4881 4.3173 6.7246 3.9059 8.3733 7.6091 12.4949H6.249C5.4643 12.4949 5.0708 12.4961 4.8269 12.7396 4.5833 12.9835 4.5833 13.3759 4.5833 14.1606 4.5833 14.9453 4.5833 15.3376 4.8269 15.5816 5.0708 15.8251 5.4643 15.8262 6.249 15.8262H7.9167C8.8875 15.8908 10.8293 15.5427 10.8293 13.6329M16.25 10.4256C15.8333 10.6948 14.5833 11.985 12.9167 11.6621L13.75 13.7442C14.3056 13.883 15.5 14.8268 15.8333 15.8262H13.0505C12.4524 15.8262 11.9002 15.5059 11.6035 14.987L10.8293 13.6329M16.25 10.4256H16.4648C17.7268 10.4256 18.75 11.4482 18.75 12.7095 18.75 13.9708 17.7268 14.9934 16.4648 14.9934H15.4167M12.5468 8.7472C11.8416 8.7472 10.9945 8.9938 10.2517 9.2858 9.3964 9.6219 9.1192 10.6421 9.5752 11.4396L10.8293 13.6329" stroke="currentColor" stroke-linecap="round" stroke-linejoin="round" stroke-width="2"/>
  <path d="M4.5834 12.9167C3.749 12.9167 2.7477 11.6667 2.0802 11.6667 1.3908 11.6667 1.271 11.9511 1.2502 14.1647 1.2415 15.0851 1.5783 15.8333 2.5 15.8333" stroke="currentColor" stroke-linecap="round" stroke-linejoin="round" stroke-width="2"/>
</svg>
