<svg xmlns="http://www.w3.org/2000/svg" width="20" height="20" viewBox="0 0 20 20" fill="none">
  <path d="M15.8333 14.2858C15.8333 15.5387 15.8333 16.1652 15.542 16.6226 15.39 16.8611 15.1856 17.0628 14.9438 17.2126 14.4801 17.5 13.8449 17.5 12.5746 17.5H7.6655C5.5114 17.5 4.4343 17.5 4.2047 16.8878 3.9751 16.2755 4.7929 15.5842 6.4284 14.2014L9.714 11.4236C10.4965 10.762 10.8878 10.4312 10.8878 10 10.8878 9.5688 10.4965 9.238 9.714 8.5764L6.4284 5.7986C4.7929 4.4158 3.9751 3.7245 4.2047 3.1122 4.4343 2.5 5.5114 2.5 7.6655 2.5H12.5746C13.8449 2.5 14.4801 2.5 14.9438 2.7874 15.1856 2.9373 15.39 3.1389 15.542 3.3774 15.8333 3.8348 15.8333 4.4613 15.8333 5.7143" stroke="currentColor" stroke-linecap="round" stroke-linejoin="round" stroke-width="2"/>
</svg>
