<svg xmlns="http://www.w3.org/2000/svg" width="20" height="20" viewBox="0 0 20 20" fill="none">
  <path d="M14.7708 2.0833C15.9288 2.2115 16.7082 2.5012 17.2899 3.1559 18.3333 4.3301 18.3333 6.2201 18.3333 10 18.3333 13.7799 18.3333 15.6698 17.2899 16.8442 16.7082 17.4988 15.9288 17.7885 14.7708 17.9167M5.2292 17.9167C4.0713 17.7885 3.2918 17.4988 2.7101 16.8442 1.6667 15.6698 1.6667 13.7799 1.6667 10 1.6667 6.2201 1.6667 4.3301 2.7101 3.1559 3.2918 2.5012 4.0713 2.2115 5.2292 2.0833" stroke="currentColor" stroke-linecap="round" stroke-linejoin="round" stroke-width="2"/>
  <path d="M12.4998 12.0822C12.4984 12.5222 12.4858 12.7614 12.3752 12.9416 12.103 13.3843 11.5613 13.3313 11.1034 13.3313H8.9995C8.0763 13.3313 7.6147 13.3313 7.5163 13.0594 7.4179 12.7875 7.7684 12.4804 8.4693 11.8662L9.8774 10.6323C10.2128 10.3385 10.3805 10.1915 10.3805 10 10.3805 9.8085 10.2128 9.6615 9.8774 9.3677L8.4693 8.1338C7.7684 7.5196 7.4179 7.2125 7.5163 6.9406 7.6147 6.6686 8.0763 6.6686 8.9995 6.6686H11.1034C11.5613 6.6686 12.103 6.6157 12.3752 7.0584 12.4858 7.2386 12.4984 7.4778 12.4998 7.9179" stroke="currentColor" stroke-linecap="round" stroke-linejoin="round" stroke-width="2"/>
</svg>
