<svg xmlns="http://www.w3.org/2000/svg" width="20" height="20" viewBox="0 0 20 20" fill="none">
  <path d="M14.1667 10C14.1667 12.3012 12.3012 14.1667 10 14.1667 7.6988 14.1667 5.8333 12.3012 5.8333 10 5.8333 7.6988 7.6988 5.8333 10 5.8333 12.3012 5.8333 14.1667 7.6988 14.1667 10Z" stroke="currentColor" stroke-width="2"/>
  <path d="M10 1.6667C9.6856 1.9444 9.2454 2.6667 10 3.3333M10 16.6667C10.3144 16.9444 10.7546 17.6667 10 18.3333M16.25 3.7523C15.8071 3.7249 14.9378 3.9358 15.0035 4.9987M4.5798 14.5833C4.6072 15.0263 4.3963 15.8956 3.3333 15.8298M4.1689 3.75C4.1415 4.1934 4.3526 5.0636 5.4167 4.9977M15 14.5855C15.4429 14.5596 16.3123 14.759 16.2465 15.764M18.3333 10C18.0556 9.6856 17.3333 9.2454 16.6667 10M3.3333 9.5833C3.0556 9.8978 2.3333 10.3379 1.6667 9.5833" stroke="currentColor" stroke-linecap="round" stroke-width="2"/>
</svg>
