<svg xmlns="http://www.w3.org/2000/svg" width="20" height="20" viewBox="0 0 20 20" fill="none">
  <path d="M14.5647 7.5375C14.5708 7.5375 14.5771 7.5375 14.5833 7.5375 16.6544 7.5375 18.3333 9.2289 18.3333 11.3155 18.3333 12.7989 17.4848 13.9651 16.25 14.5833M14.5647 7.5375C14.577 7.3992 14.5833 7.2592 14.5833 7.1177 14.5833 4.5674 12.5313 2.5 10 2.5 7.6027 2.5 5.6353 4.3543 5.4337 6.7169M14.5647 7.5375C14.4794 8.4899 14.1072 9.359 13.5357 10.0562M5.4337 6.7169C3.32 6.9196 1.6667 8.7132 1.6667 10.8957 1.6667 12.4869 2.5454 13.8714 3.8406 14.5833M5.4337 6.7169C5.5652 6.7043 5.6985 6.6979 5.8333 6.6979 6.7715 6.6979 7.6373 7.0103 8.3338 7.5375" stroke="currentColor" stroke-linecap="round" stroke-linejoin="round" stroke-width="2"/>
  <path d="M7.5 3.0456C6.9213 2.2121 5.9591 1.6667 4.8699 1.6667 3.1008 1.6667 1.6667 3.1056 1.6667 4.8807 1.6667 5.9613 2.1982 6.9173 3.0132 7.5" stroke="currentColor" stroke-width="2"/>
  <path d="M10.0009 12.0833V13.3333M7.5 14.5833V15.8333M12.5 14.5833V15.8333M5.4167 17.0833V18.3333M14.5833 17.0833V18.3333M10 17.0833V18.3333" stroke="currentColor" stroke-linecap="round" stroke-width="2"/>
</svg>
