<svg xmlns="http://www.w3.org/2000/svg" width="20" height="20" viewBox="0 0 20 20" fill="none">
  <path d="M7.5 3.8789C6.9213 3.0454 5.9591 2.5 4.8699 2.5 3.1008 2.5 1.6667 3.939 1.6667 5.714 1.6667 6.7946 2.1982 7.7507 3.0132 8.3333" stroke="currentColor" stroke-width="2"/>
  <path d="M14.5647 8.3409C14.5708 8.3409 14.5771 8.3409 14.5833 8.3409 16.6544 8.3409 18.3333 10.0224 18.3333 12.0966 18.3333 14.0427 16.8554 15.643 14.9623 15.8333M14.5647 8.3409C14.577 8.2035 14.5833 8.0643 14.5833 7.9236 14.5833 5.3885 12.5313 3.3333 10 3.3333 7.6027 3.3333 5.6353 5.1766 5.4337 7.5253M14.5647 8.3409C14.4794 9.2878 14.1072 10.1517 13.5357 10.8447M5.4337 7.5253C3.32 7.7267 1.6667 9.5097 1.6667 11.6793 1.6667 13.6982 3.0981 15.4467 5 15.8333M5.4337 7.5253C5.5652 7.5127 5.6985 7.5063 5.8333 7.5063 6.7715 7.5063 7.6373 7.8169 8.3338 8.3409" stroke="currentColor" stroke-linecap="round" stroke-linejoin="round" stroke-width="2"/>
  <path d="M7.9167 16.2528C7.9167 15.2068 8.7943 14.1731 9.4103 13.5764 9.7449 13.2523 10.2551 13.2523 10.5897 13.5764 11.2057 14.1731 12.0833 15.2068 12.0833 16.2528 12.0833 17.2784 11.2944 18.3333 10 18.3333 8.7056 18.3333 7.9167 17.2784 7.9167 16.2528Z" stroke="currentColor" stroke-width="2"/>
</svg>
