<svg xmlns="http://www.w3.org/2000/svg" width="20" height="20" viewBox="0 0 20 20" fill="none">
  <path d="M14.5647 9.1668C14.5708 9.1667 14.5771 9.1667 14.5833 9.1667 16.6544 9.1667 18.3333 10.8456 18.3333 12.9167 18.3333 14.8543 16.8853 16.4693 15 16.6667M14.5647 9.1668C14.577 9.0295 14.5833 8.8905 14.5833 8.75 14.5833 6.2187 12.5313 4.1667 10 4.1667 7.6027 4.1667 5.6353 6.0072 5.4337 8.3523M14.5647 9.1668C14.4794 10.1121 14.1072 10.9747 13.5357 11.6667M5.4337 8.3523C3.32 8.5534 1.6667 10.3337 1.6667 12.5 1.6667 14.5158 3.0981 16.2601 5 16.6461M5.4337 8.3523C5.5652 8.3398 5.6985 8.3333 5.8333 8.3333 6.7715 8.3333 7.6373 8.6434 8.3338 9.1667" stroke="currentColor" stroke-linecap="round" stroke-linejoin="round" stroke-width="2"/>
  <path d="M7.9167 16.2528C7.9167 15.2068 8.7943 14.1732 9.4103 13.5764 9.7449 13.2523 10.2551 13.2523 10.5897 13.5764 11.2057 14.1732 12.0833 15.2068 12.0833 16.2528 12.0833 17.2785 11.2944 18.3333 10 18.3333 8.7056 18.3333 7.9167 17.2785 7.9167 16.2528Z" stroke="currentColor" stroke-width="2"/>
  <path d="M2.4662 7.6615C1.8489 5.3932 3.216 3.0617 5.5198 2.4539M2.4662 7.6615L1.6667 7.8724M2.4662 7.6615C2.6197 8.2255 2.8814 8.7326 3.2235 9.1667M5.5198 2.4539L5.3055 1.6667M5.5198 2.4539C7.2223 2.0047 8.9598 2.6227 10 3.8914M2.8971 4.4358L2.0537 3.9553M9.2839 2.0477L8.7975 2.8791" stroke="currentColor" stroke-linecap="round" stroke-width="2"/>
</svg>
