<svg xmlns="http://www.w3.org/2000/svg" width="20" height="20" viewBox="0 0 20 20" fill="none">
  <path d="M7.5 3.0456C6.9213 2.2121 5.9591 1.6667 4.8699 1.6667 3.1008 1.6667 1.6667 3.1056 1.6667 4.8807 1.6667 5.9613 2.1982 6.9173 3.0132 7.5" stroke="currentColor" stroke-width="2"/>
  <path d="M14.5647 7.5076C14.5708 7.5076 14.5771 7.5076 14.5833 7.5076 16.6544 7.5076 18.3333 9.1891 18.3333 11.2633 18.3333 12.8985 17.2898 14.0678 15.8333 14.5833M14.5647 7.5076C14.577 7.3702 14.5833 7.231 14.5833 7.0903 14.5833 4.5551 12.5313 2.5 10 2.5 7.6027 2.5 5.6353 4.3433 5.4337 6.6919M14.5647 7.5076C14.4794 8.4544 14.1072 9.3183 13.5357 10.0113M5.4337 6.6919C3.32 6.8934 1.6667 8.6763 1.6667 10.846 1.6667 12.5572 2.6951 13.9253 4.1667 14.5833M5.4337 6.6919C5.5652 6.6794 5.6985 6.673 5.8333 6.673 6.7715 6.673 7.6373 6.9835 8.3338 7.5076" stroke="currentColor" stroke-linecap="round" stroke-linejoin="round" stroke-width="2"/>
  <path d="M10.1042 12.2917H10M7.6042 14.7917H7.5M5.1042 17.2917H5M10.1042 18.125H10M15.1042 17.2917H15M12.6042 14.7917H12.5M10.2083 12.2917C10.2083 12.4068 10.1151 12.5 10 12.5 9.8849 12.5 9.7917 12.4068 9.7917 12.2917 9.7917 12.1766 9.8849 12.0833 10 12.0833 10.1151 12.0833 10.2083 12.1766 10.2083 12.2917ZM7.7083 14.7917C7.7083 14.9068 7.6151 15 7.5 15 7.3849 15 7.2917 14.9068 7.2917 14.7917 7.2917 14.6766 7.3849 14.5833 7.5 14.5833 7.6151 14.5833 7.7083 14.6766 7.7083 14.7917ZM5.2083 17.2917C5.2083 17.4068 5.1151 17.5 5 17.5 4.8849 17.5 4.7917 17.4068 4.7917 17.2917 4.7917 17.1766 4.8849 17.0833 5 17.0833 5.1151 17.0833 5.2083 17.1766 5.2083 17.2917ZM10.2083 18.125C10.2083 18.2401 10.1151 18.3333 10 18.3333 9.8849 18.3333 9.7917 18.2401 9.7917 18.125 9.7917 18.0099 9.8849 17.9167 10 17.9167 10.1151 17.9167 10.2083 18.0099 10.2083 18.125ZM15.2083 17.2917C15.2083 17.4068 15.1151 17.5 15 17.5 14.8849 17.5 14.7917 17.4068 14.7917 17.2917 14.7917 17.1766 14.8849 17.0833 15 17.0833 15.1151 17.0833 15.2083 17.1766 15.2083 17.2917ZM12.7083 14.7917C12.7083 14.9068 12.6151 15 12.5 15 12.3849 15 12.2917 14.9068 12.2917 14.7917 12.2917 14.6766 12.3849 14.5833 12.5 14.5833 12.6151 14.5833 12.7083 14.6766 12.7083 14.7917Z" stroke="currentColor" stroke-linecap="round" stroke-linejoin="round" stroke-width="2"/>
</svg>
