<svg xmlns="http://www.w3.org/2000/svg" width="20" height="20" viewBox="0 0 20 20" fill="none">
  <path d="M14.5647 10.0001C14.5708 10 14.5771 10 14.5833 10 16.6544 10 18.3333 11.6789 18.3333 13.75 18.3333 15.8211 16.6544 17.5 14.5833 17.5H5.8333C3.5322 17.5 1.6667 15.6345 1.6667 13.3333 1.6667 11.1669 3.32 9.3867 5.4337 9.1856M14.5647 10.0001C14.577 9.8628 14.5833 9.7238 14.5833 9.5833 14.5833 7.052 12.5313 5 10 5 7.6027 5 5.6353 6.8405 5.4337 9.1856M14.5647 10.0001C14.4794 10.9454 14.1072 11.808 13.5357 12.5M5.4337 9.1856C5.5652 9.1731 5.6985 9.1667 5.8333 9.1667 6.7715 9.1667 7.6373 9.4768 8.3338 10" stroke="currentColor" stroke-linecap="round" stroke-linejoin="round" stroke-width="2"/>
  <path d="M2.4662 8.4947C1.8489 6.2265 3.216 3.895 5.5198 3.2872M2.4662 8.4947L1.6667 8.7057M2.4662 8.4947C2.6197 9.0588 2.8814 9.5658 3.2235 10M5.5198 3.2872L5.3055 2.5M5.5198 3.2872C7.2223 2.838 8.9598 3.456 10 4.7247M2.8971 5.2691L2.0537 4.7886M9.2839 2.881L8.7975 3.7125" stroke="currentColor" stroke-linecap="round" stroke-width="2"/>
</svg>
