<svg xmlns="http://www.w3.org/2000/svg" width="20" height="20" viewBox="0 0 20 20" fill="none">
  <path d="M2.4662 7.6614C1.8489 5.3932 3.216 3.0616 5.5198 2.4539M2.4662 7.6614L1.6667 7.8724M2.4662 7.6614C2.6197 8.2255 2.8814 8.7325 3.2235 9.1667M5.5198 2.4539L5.3055 1.6667M5.5198 2.4539C7.2223 2.0047 8.9598 2.6227 10 3.8913M2.8971 4.4358L2.0537 3.9552M9.2839 2.0477L8.7975 2.8791" stroke="currentColor" stroke-linecap="round" stroke-width="2"/>
  <path d="M14.5647 9.1743C14.5708 9.1743 14.5771 9.1743 14.5833 9.1743 16.6544 9.1743 18.3333 10.8558 18.3333 12.9299 18.3333 14.5652 17.2898 15.7344 15.8333 16.25M14.5647 9.1743C14.577 9.0368 14.5833 8.8977 14.5833 8.7569 14.5833 6.2218 12.5313 4.1667 10 4.1667 7.6027 4.1667 5.6353 6.01 5.4337 8.3586M14.5647 9.1743C14.4962 9.9349 14.1667 10.4167 13.75 10.8333M5.4337 8.3586C3.32 8.5601 1.6667 10.343 1.6667 12.5127 1.6667 14.2238 2.6951 15.5919 4.1667 16.25M5.4337 8.3586C5.5652 8.3461 5.6985 8.3397 5.8333 8.3397 6.5923 8.3397 7.3038 8.5428 7.9167 8.8979" stroke="currentColor" stroke-linecap="round" stroke-linejoin="round" stroke-width="2"/>
  <path d="M6.7708 13.125H6.6667M10.1042 14.7917H10M13.4375 13.125H13.3333M13.4375 16.4583H13.3333M10.1042 18.125H10M6.7708 16.4583H6.6667M6.875 13.125C6.875 13.2401 6.7817 13.3333 6.6667 13.3333 6.5516 13.3333 6.4583 13.2401 6.4583 13.125 6.4583 13.0099 6.5516 12.9167 6.6667 12.9167 6.7817 12.9167 6.875 13.0099 6.875 13.125ZM10.2083 14.7917C10.2083 14.9068 10.1151 15 10 15 9.8849 15 9.7917 14.9068 9.7917 14.7917 9.7917 14.6766 9.8849 14.5833 10 14.5833 10.1151 14.5833 10.2083 14.6766 10.2083 14.7917ZM13.5417 13.125C13.5417 13.2401 13.4484 13.3333 13.3333 13.3333 13.2183 13.3333 13.125 13.2401 13.125 13.125 13.125 13.0099 13.2183 12.9167 13.3333 12.9167 13.4484 12.9167 13.5417 13.0099 13.5417 13.125ZM13.5417 16.4583C13.5417 16.5734 13.4484 16.6667 13.3333 16.6667 13.2183 16.6667 13.125 16.5734 13.125 16.4583 13.125 16.3433 13.2183 16.25 13.3333 16.25 13.4484 16.25 13.5417 16.3433 13.5417 16.4583ZM10.2083 18.125C10.2083 18.2401 10.1151 18.3333 10 18.3333 9.8849 18.3333 9.7917 18.2401 9.7917 18.125 9.7917 18.0099 9.8849 17.9167 10 17.9167 10.1151 17.9167 10.2083 18.0099 10.2083 18.125ZM6.875 16.4583C6.875 16.5734 6.7817 16.6667 6.6667 16.6667 6.5516 16.6667 6.4583 16.5734 6.4583 16.4583 6.4583 16.3433 6.5516 16.25 6.6667 16.25 6.7817 16.25 6.875 16.3433 6.875 16.4583Z" stroke="currentColor" stroke-linecap="round" stroke-linejoin="round" stroke-width="2"/>
</svg>
