<svg xmlns="http://www.w3.org/2000/svg" width="20" height="20" viewBox="0 0 20 20" fill="none">
  <path d="M14.5647 7.415L14.5833 7.415C16.6544 7.415 18.3333 9.0653 18.3333 11.1012 18.3333 12.3793 17.6717 13.5054 16.6667 14.1667M14.5647 7.415C14.577 7.2801 14.5833 7.1435 14.5833 7.0054 14.5833 4.5171 12.5313 2.5 10 2.5 7.6027 2.5 5.6353 4.3092 5.4337 6.6144M14.5647 7.415C14.4794 8.3443 14.1072 9.1922 13.5357 9.8724M5.4337 6.6144C3.32 6.8121 1.6667 8.5621 1.6667 10.6916 1.6667 12.0315 2.3214 13.221 3.3333 13.9683M5.4337 6.6144C5.5652 6.6021 5.6985 6.5958 5.8333 6.5958 6.7715 6.5958 7.6373 6.9006 8.3338 7.415" stroke="currentColor" stroke-linecap="round" stroke-linejoin="round" stroke-width="2"/>
  <path d="M7.5 3.0456C6.9213 2.2121 5.9591 1.6667 4.8699 1.6667 3.1008 1.6667 1.6667 3.1056 1.6667 4.8807 1.6667 5.9613 2.1982 6.9173 3.0132 7.5" stroke="currentColor" stroke-width="2"/>
  <path d="M6.6667 14.7149L6.9389 14.5C7.502 14.0556 8.1647 14.0556 8.7278 14.5L8.9389 14.6667C9.502 15.1111 10.1647 15.1111 10.7278 14.6667L10.9389 14.5C11.502 14.0556 12.1647 14.0556 12.7278 14.5L12.9389 14.6667C13.066 14.767 13.1982 14.8447 13.3332 14.8997M11.6667 18L11.8911 17.8333C12.4896 17.3889 13.194 17.3889 13.7924 17.8333L14.0168 18C14.6153 18.4444 15.3198 18.4444 15.9182 18L16.1427 17.8333C16.7411 17.3889 17.4455 17.3889 18.044 17.8333L18.3333 18.0483M8.3333 18L8.1089 17.8333C7.5104 17.3889 6.806 17.3889 6.2076 17.8333L5.9831 18C5.3847 18.4444 4.6803 18.4444 4.0818 18L3.8574 17.8333C3.2589 17.3889 2.5545 17.3889 1.956 17.8333L1.6667 18.0483" stroke="currentColor" stroke-linecap="round" stroke-linejoin="round" stroke-width="2"/>
</svg>
