<svg xmlns="http://www.w3.org/2000/svg" width="20" height="20" viewBox="0 0 20 20" fill="none">
  <path d="M7.5 3.0456C6.9213 2.2121 5.9591 1.6667 4.8699 1.6667 3.1008 1.6667 1.6667 3.1056 1.6667 4.8807 1.6667 5.9613 2.1982 6.9173 3.0132 7.5" stroke="currentColor" stroke-width="2"/>
  <path d="M14.5647 7.5076C14.5708 7.5076 14.5771 7.5076 14.5833 7.5076 16.6544 7.5076 18.3333 9.1891 18.3333 11.2633 18.3333 12.8985 17.2898 14.0678 15.8333 14.5833M14.5647 7.5076C14.577 7.3702 14.5833 7.231 14.5833 7.0903 14.5833 4.5551 12.5313 2.5 10 2.5 7.6027 2.5 5.6353 4.3433 5.4337 6.6919M14.5647 7.5076C14.4794 8.4544 14.1072 9.3183 13.5357 10.0113M5.4337 6.6919C3.32 6.8934 1.6667 8.6763 1.6667 10.846 1.6667 12.5572 2.6951 13.9253 4.1667 14.5833M5.4337 6.6919C5.5652 6.6794 5.6985 6.673 5.8333 6.673 6.7715 6.673 7.6373 6.9835 8.3338 7.5076" stroke="currentColor" stroke-linecap="round" stroke-linejoin="round" stroke-width="2"/>
  <path d="M10.0362 10.8333L9.0892 11.6967C8.633 12.1633 8.633 12.91 9.1132 13.3767 9.3533 13.61 9.7001 13.75 10.0362 13.75 10.3723 13.75 10.6498 13.6333 10.8898 13.4233 11.3701 12.9567 11.3701 12.1867 10.8898 11.72L10.0362 10.8333Z" stroke="currentColor" stroke-linejoin="round" stroke-width="2"/>
  <path d="M7.1195 15.4167L6.1725 16.28C5.7163 16.7467 5.7164 17.4933 6.1965 17.96 6.4366 18.1933 6.7834 18.3333 7.1195 18.3333 7.4557 18.3333 7.7331 18.2167 7.9732 18.0067 8.4534 17.54 8.4534 16.77 7.9732 16.3033L7.1195 15.4167Z" stroke="currentColor" stroke-linejoin="round" stroke-width="2"/>
  <path d="M12.9528 15.4167L12.0058 16.28C11.5497 16.7467 11.5497 17.4933 12.0298 17.96 12.27 18.1933 12.6168 18.3333 12.9528 18.3333 13.289 18.3333 13.5664 18.2167 13.8065 18.0067 14.2868 17.54 14.2868 16.77 13.8065 16.3033L12.9528 15.4167Z" stroke="currentColor" stroke-linejoin="round" stroke-width="2"/>
</svg>
