<svg xmlns="http://www.w3.org/2000/svg" width="20" height="20" viewBox="0 0 20 20" fill="none">
  <path d="M7.5 3.0456C6.9213 2.2121 5.9591 1.6667 4.8699 1.6667 3.1008 1.6667 1.6667 3.1056 1.6667 4.8807 1.6667 5.9613 2.1982 6.9173 3.0132 7.5" stroke="currentColor" stroke-width="2"/>
  <path d="M14.5647 7.5076C14.5708 7.5076 14.5771 7.5076 14.5833 7.5076 16.6544 7.5076 18.3333 9.1891 18.3333 11.2633 18.3333 12.8985 17.2898 14.0678 15.8333 14.5833M14.5647 7.5076C14.577 7.3702 14.5833 7.231 14.5833 7.0903 14.5833 4.5551 12.5313 2.5 10 2.5 7.6027 2.5 5.6353 4.3433 5.4337 6.6919M14.5647 7.5076C14.4794 8.4544 14.1072 9.3183 13.5357 10.0113M5.4337 6.6919C3.32 6.8934 1.6667 8.6763 1.6667 10.846 1.6667 12.5572 2.6951 13.9253 4.1667 14.5833M5.4337 6.6919C5.5652 6.6794 5.6985 6.673 5.8333 6.673 6.7715 6.673 7.6373 6.9835 8.3338 7.5076" stroke="currentColor" stroke-linecap="round" stroke-linejoin="round" stroke-width="2"/>
  <path d="M10 11.6667V16.6667M12.0833 12.9167L7.9168 15.4167M7.9167 12.9167L12.0833 15.4167" stroke="currentColor" stroke-linecap="round" stroke-linejoin="round" stroke-width="2"/>
</svg>
