<svg xmlns="http://www.w3.org/2000/svg" width="20" height="20" viewBox="0 0 20 20" fill="none">
  <path d="M7.5 3.0456C6.9213 2.2121 5.9591 1.6667 4.8699 1.6667 3.1008 1.6667 1.6667 3.1056 1.6667 4.8807 1.6667 5.9613 2.1982 6.9173 3.0132 7.5" stroke="currentColor" stroke-width="2"/>
  <path d="M14.5647 7.2478C14.5708 7.2477 14.5771 7.2477 14.5833 7.2477 16.6544 7.2477 18.3333 8.8419 18.3333 10.8085 18.3333 12.3589 17.2898 13.6778 15.8333 14.1667M14.5647 7.2478C14.577 7.1174 14.5833 6.9855 14.5833 6.8521 14.5833 4.4485 12.5313 2.5 10 2.5 7.6027 2.5 5.6353 4.2477 5.4337 6.4744M14.5647 7.2478C14.4794 8.1454 14.1072 8.9645 13.5357 9.6216M5.4337 6.4744C3.32 6.6654 1.6667 8.3558 1.6667 10.4128 1.6667 11.7073 2.3213 12.8565 3.3333 13.5783M5.4337 6.4744C5.5652 6.4625 5.6985 6.4564 5.8333 6.4564 6.7715 6.4564 7.6373 6.7509 8.3338 7.2477" stroke="currentColor" stroke-linecap="round" stroke-linejoin="round" stroke-width="2"/>
  <path d="M7.5653 11.25L6.0869 13.4865C5.889 13.7859 5.7901 13.9356 5.8514 14.0512 5.9127 14.1667 6.0911 14.1667 6.4479 14.1667H7.7188C8.0756 14.1667 8.254 14.1667 8.3153 14.2822 8.3766 14.3978 8.2776 14.5474 8.0797 14.8468L6.6013 17.0833" stroke="currentColor" stroke-linecap="round" stroke-linejoin="round" stroke-width="2"/>
  <path d="M13.3333 15.4167L12.5 17.0833" stroke="currentColor" stroke-linecap="round" stroke-linejoin="round" stroke-width="2"/>
  <path d="M10.8333 15.4167L10 17.0833" stroke="currentColor" stroke-linecap="round" stroke-linejoin="round" stroke-width="2"/>
</svg>
