<svg xmlns="http://www.w3.org/2000/svg" width="20" height="20" viewBox="0 0 20 20" fill="none">
  <path d="M14.5647 9.1668C14.5708 9.1667 14.5771 9.1667 14.5833 9.1667 16.6544 9.1667 18.3333 10.8456 18.3333 12.9167 18.3333 14.9878 16.6544 16.6667 14.5833 16.6667H5.8333C3.5322 16.6667 1.6667 14.8012 1.6667 12.5 1.6667 10.3336 3.32 8.5534 5.4337 8.3523M14.5647 9.1668C14.577 9.0295 14.5833 8.8905 14.5833 8.75 14.5833 6.2187 12.5313 4.1667 10 4.1667 7.6027 4.1667 5.6353 6.0072 5.4337 8.3523M14.5647 9.1668C14.4794 10.1121 14.1072 10.9747 13.5357 11.6667M5.4337 8.3523C5.5652 8.3398 5.6985 8.3333 5.8333 8.3333 6.7715 8.3333 7.6373 8.6434 8.3338 9.1667" stroke="currentColor" stroke-linecap="round" stroke-linejoin="round" stroke-width="2"/>
  <path d="M7.5 4.7122C6.9213 3.8788 5.9591 3.3333 4.8699 3.3333 3.1008 3.3333 1.6667 4.7723 1.6667 6.5473 1.6667 7.628 2.1982 8.584 3.0132 9.1667" stroke="currentColor" stroke-width="2"/>
</svg>
