<svg xmlns="http://www.w3.org/2000/svg" width="20" height="20" viewBox="0 0 20 20" fill="none">
  <path d="M7.5653 12.4999L6.0869 14.7364C5.889 15.0358 5.7901 15.1855 5.8514 15.301 5.9127 15.4166 6.0911 15.4166 6.4479 15.4166H7.7188C8.0756 15.4166 8.254 15.4166 8.3153 15.5321 8.3766 15.6477 8.2776 15.7973 8.0797 16.0968L6.6013 18.3332" stroke="currentColor" stroke-linecap="round" stroke-linejoin="round" stroke-width="2"/>
  <path d="M13.3333 16.6666L12.5 18.3332" stroke="currentColor" stroke-linecap="round" stroke-linejoin="round" stroke-width="2"/>
  <path d="M10.8333 16.6666L10 18.3332" stroke="currentColor" stroke-linecap="round" stroke-linejoin="round" stroke-width="2"/>
  <path d="M2.4662 7.6614C1.8489 5.3932 3.216 3.0616 5.5198 2.4539M2.4662 7.6614L1.6667 7.8724M2.4662 7.6614C2.6197 8.2255 2.8814 8.7325 3.2235 9.1667M5.5198 2.4539L5.3055 1.6667M5.5198 2.4539C7.2223 2.0047 8.9598 2.6227 10 3.8913M2.8971 4.4358L2.0537 3.9552M9.2839 2.0477L8.7975 2.8791" stroke="currentColor" stroke-linecap="round" stroke-width="2"/>
  <path d="M14.5647 9.084C14.5708 9.0839 14.5771 9.0839 14.5833 9.0839 16.6544 9.0839 18.3333 10.7351 18.3333 12.7719 18.3333 14.3777 17.2898 15.7437 15.8333 16.25M14.5647 9.084C14.577 8.949 14.5833 8.8123 14.5833 8.6742 14.5833 6.1847 12.5313 4.1667 10 4.1667 7.6027 4.1667 5.6353 5.9767 5.4337 8.283M14.5647 9.084C14.4794 10.0138 14.1072 10.862 13.5357 11.5426M5.4337 8.283C3.32 8.4808 1.6667 10.2316 1.6667 12.3621 1.6667 13.7028 2.3213 14.893 3.3333 15.6406M5.4337 8.283C5.5652 8.2707 5.6985 8.2644 5.8333 8.2644 6.7715 8.2644 7.6373 8.5693 8.3338 9.0839" stroke="currentColor" stroke-linecap="round" stroke-linejoin="round" stroke-width="2"/>
</svg>
