<svg xmlns="http://www.w3.org/2000/svg" width="20" height="20" viewBox="0 0 20 20" fill="none">
  <path d="M2.5928 6.9954C2.0373 4.9791 3.2677 2.9066 5.3411 2.3664M2.5928 6.9954L1.8733 7.1828M2.5928 6.9954C2.731 7.4967 2.9665 7.9474 3.2744 8.3333M5.3411 2.3664L5.1482 1.6667M5.3411 2.3664C6.8733 1.9671 8.4372 2.5164 9.3733 3.6442M2.9806 4.1281L2.2216 3.7009M8.7288 2.0054L8.291 2.7444" stroke="currentColor" stroke-linecap="round" stroke-width="2"/>
  <path d="M12.0015 18.2622C12.1218 18.3083 12.2513 18.3333 12.3861 18.3333 13.0233 18.3333 13.5399 17.7737 13.5399 17.0833 13.5399 16.393 13.0233 15.8333 12.3861 15.8333 12.1598 15.8333 11.9488 15.9038 11.7708 16.0257 10.8864 16.6854 9.2483 17.5315 7.3861 17.7508M5.0784 17.6613C4.5632 17.5529 4.0472 17.3784 3.5399 17.1232" stroke="currentColor" stroke-linecap="round" stroke-width="2"/>
  <path d="M16.0399 17.5C16.255 17.5 16.8363 17.5 17.7066 17.5" stroke="currentColor" stroke-linecap="round" stroke-width="2"/>
  <path d="M14.5516 8.1773C14.5578 8.1773 14.564 8.1772 14.5703 8.1772 16.6413 8.1772 18.1267 9.75 18.1267 11.5 18.1067 13.85 15.8067 14.9 14.5567 14.81M14.5516 8.1773C14.5639 8.047 14.5703 7.915 14.5703 7.7816 14.5516 5.5572 12.5898 3.75 10.2567 3.75 7.9237 3.75 6.0567 5.35 5.8874 7.45M14.5516 8.1773C14.4067 9.1 14.1567 9.68 13.5567 10.4M5.8874 7.45C3.7737 7.641 2.3067 9.25 2.2867 11.15 2.4067 13.2 3.8567 14.0366 4.9567 14.5 7.7567 15.6 10.6667 14.8 11.6667 13.2 12.0567 12.3 11.4067 11.3 10.5067 11.15 9.9067 11 8.6617 11.34 8.6267 12.6M5.8874 7.45C6.0189 7.4381 6.1825 7.432 6.3174 7.432 7.2567 7.45 8.0267 7.77 8.6267 8.17" stroke="currentColor" stroke-linecap="round" stroke-linejoin="round" stroke-width="2"/>
</svg>
