<svg xmlns="http://www.w3.org/2000/svg" width="20" height="20" viewBox="0 0 20 20" fill="none">
  <path d="M7.5 3.8789C6.9213 3.0454 5.9591 2.5 4.8699 2.5 3.1008 2.5 1.6667 3.939 1.6667 5.714 1.6667 6.7946 2.1982 7.7507 3.0132 8.3333" stroke="currentColor" stroke-width="2"/>
  <path d="M5.8333 15.4167C3.5322 15.4167 1.6667 13.6133 1.6667 11.3889 1.6667 9.2948 3.32 7.5738 5.4337 7.3794M14.5833 15.4167C16.6544 15.4167 18.3333 13.7937 18.3333 11.7917 18.3333 9.7897 16.6544 8.1667 14.5833 8.1667 14.5771 8.1667 14.5708 8.1667 14.5647 8.1667M14.5647 8.1667C14.577 8.034 14.5833 7.8997 14.5833 7.7639 14.5833 5.317 12.5313 3.3333 10 3.3333 7.6027 3.3333 5.6353 5.1125 5.4337 7.3794M14.5647 8.1667C14.4794 9.0806 14.1072 9.9144 13.5357 10.5833M5.4337 7.3794C5.5652 7.3673 5.6985 7.3611 5.8333 7.3611 6.7715 7.3611 7.6373 7.6609 8.3338 8.1667" stroke="currentColor" stroke-linecap="round" stroke-linejoin="round" stroke-width="2"/>
  <path d="M10.482 11.6667L9.0036 13.9032C8.8057 14.2026 8.7068 14.3522 8.7681 14.4678 8.8293 14.5833 9.0078 14.5833 9.3646 14.5833H10.6354C10.9923 14.5833 11.1707 14.5833 11.2319 14.6988 11.2933 14.8144 11.1943 14.9641 10.9964 15.2635L9.518 17.5" stroke="currentColor" stroke-linecap="round" stroke-linejoin="round" stroke-width="2"/>
</svg>
