<svg xmlns="http://www.w3.org/2000/svg" width="20" height="20" viewBox="0 0 20 20" fill="none">
  <path d="M7.5041 3.4622C6.9253 2.6288 5.9631 2.0833 4.874 2.0833 3.1049 2.0833 1.6707 3.5223 1.6707 5.2973 1.6707 6.378 2.2023 7.334 3.0173 7.9167" stroke="currentColor" stroke-width="2"/>
  <path d="M11.799 17.8455C11.9193 17.8916 12.0488 17.9167 12.1836 17.9167 12.8208 17.9167 13.3374 17.357 13.3374 16.6667 13.3374 15.9763 12.8208 15.4167 12.1836 15.4167 11.9573 15.4167 11.7463 15.4872 11.5683 15.6091 10.6839 16.2688 9.0458 17.1148 7.1835 17.3342M4.8759 17.2447C4.3607 17.1363 3.8446 16.9617 3.3374 16.7065" stroke="currentColor" stroke-linecap="round" stroke-width="2"/>
  <path d="M15.8374 17.0833C16.0525 17.0833 16.6338 17.0833 17.5041 17.0833" stroke="currentColor" stroke-linecap="round" stroke-width="2"/>
  <path d="M14.5652 7.0016C14.5713 7.0016 14.5776 7.0016 14.5838 7.0016 16.6541 7.0016 18.247 8.6333 18.3319 10.5418 18.3969 13.0833 16.1878 14.4233 14.5885 14.3733M14.5652 7.0016C14.5775 6.8713 14.5838 6.7393 14.5838 6.6059 14.5838 4.1333 12.5307 2.0833 10.0004 2.0833 7.5515 2.0833 5.6209 3.981 5.4194 6.2077M14.5652 7.0016C14.48 7.8993 14.1987 8.6833 13.5289 9.4633M5.4194 6.2077C3.3066 6.3987 1.7689 8.1333 1.6689 10.1462 1.6039 12.0833 2.9534 13.4333 4.6027 14.0833 7.6514 15.2333 10.5502 14.2533 11.5198 12.6033 11.9296 11.7533 11.4498 10.5333 10.3003 10.3083 9.6006 10.1333 8.4011 10.5833 8.3311 11.9183M5.4194 6.2077C5.5508 6.1958 5.6841 6.1898 5.8189 6.1898 6.7566 6.1898 7.6014 6.4333 8.3411 7.0033" stroke="currentColor" stroke-linecap="round" stroke-linejoin="round" stroke-width="2"/>
</svg>
