<svg xmlns="http://www.w3.org/2000/svg" width="20" height="20" viewBox="0 0 20 20" fill="none">
  <path d="M4.1732 13.9213C4.1428 13.6057 4.2141 13.4763 4.4845 13.2965 7.7578 11.1209 13.0629 11.1234 15.5984 13.3038 15.7972 13.4747 15.8496 13.5974 15.8293 13.853 15.7298 15.1013 15.3925 16.5431 14.3458 17.361 12.6843 18.6593 7.3074 18.6556 5.6506 17.361 4.6153 16.552 4.2914 15.1517 4.1732 13.9213Z" stroke="currentColor" stroke-linejoin="round" stroke-width="2"/>
  <path d="M4.1667 15C2.5 14.1667 1.6667 11.876 1.6667 10 1.6667 5.3976 5.3976 1.6667 10 1.6667 14.6023 1.6667 18.3333 5.3976 18.3333 10 18.3333 11.876 17.5 14.1667 15.8333 15" stroke="currentColor" stroke-width="2"/>
  <circle cx="10" cy="5.833333333333334" r="2.5" stroke="currentColor" stroke-width="2"/>
  <path d="M2.808 5.8333C3.8905 6.0952 4.4388 7.4166 4.0327 8.7848 3.6675 10.0154 2.6544 10.8647 1.6667 10.8324" stroke="currentColor" stroke-width="2"/>
  <path d="M17.1929 5.8333C16.1098 6.0952 15.561 7.4166 15.9673 8.7848 16.3327 10.0147 17.3454 10.8638 18.3333 10.8325" stroke="currentColor" stroke-width="2"/>
  <path d="M7.6042 15H7.5M7.7083 15C7.7083 15.1151 7.6151 15.2083 7.5 15.2083 7.3849 15.2083 7.2917 15.1151 7.2917 15 7.2917 14.8849 7.3849 14.7917 7.5 14.7917 7.6151 14.7917 7.7083 14.8849 7.7083 15Z" stroke="currentColor" stroke-linecap="round" stroke-width="2"/>
  <path d="M12.6042 15H12.5M12.7083 15C12.7083 15.1151 12.6151 15.2083 12.5 15.2083 12.3849 15.2083 12.2917 15.1151 12.2917 15 12.2917 14.8849 12.3849 14.7917 12.5 14.7917 12.6151 14.7917 12.7083 14.8849 12.7083 15Z" stroke="currentColor" stroke-linecap="round" stroke-width="2"/>
</svg>
