<svg xmlns="http://www.w3.org/2000/svg" width="20" height="20" viewBox="0 0 20 20" fill="none">
  <path d="M3.3333 10L2.6187 8.3933C2.4933 8.0827 2.4611 7.7408 2.5519 7.4187 3.4415 4.2629 5.9981 1.6667 10 1.6667 14.0018 1.6667 16.5585 4.2629 17.4482 7.4187 17.5389 7.7408 17.5067 8.0827 17.3813 8.3933L16.6667 10" stroke="currentColor" stroke-linecap="round" stroke-linejoin="round" stroke-width="2"/>
  <path d="M15 8.3333C13.604 7.2863 11.8738 6.6667 10 6.6667 8.1262 6.6667 6.396 7.2863 5 8.3333" stroke="currentColor" stroke-linecap="round" stroke-linejoin="round" stroke-width="2"/>
  <path d="M12.5 6.6667C12.5 3.3333 7.5001 3.3333 7.5 6.6667" stroke="currentColor" stroke-linecap="round" stroke-linejoin="round" stroke-width="2"/>
  <path d="M7.5 14.1667C7.9171 14.5275 9.1659 14.8883 10 14.1667 10.8341 14.8883 12.0829 14.5275 12.5 14.1667" stroke="currentColor" stroke-linecap="round" stroke-linejoin="round" stroke-width="2"/>
  <path d="M15.4108 12.0833L15.8272 10.8333C16.0386 10.3523 16.5096 9.999 17.0762 10 18.007 10.0017 18.3903 10.8673 18.3266 11.6667 18.182 13.4796 17.3969 15 15.4108 15 14.3644 17.1107 12.4143 18.2503 10 18.3333 7.5857 18.2503 5.6356 17.1107 4.5892 15 2.6031 15 1.818 13.4796 1.6734 11.6667 1.6097 10.8673 1.993 10.0017 2.9239 10 3.4904 9.999 3.9614 10.3523 4.1728 10.8333L4.5892 12.0833" stroke="currentColor" stroke-linecap="round" stroke-linejoin="round" stroke-width="2"/>
  <path d="M7.6042 10.8333H7.5M7.7083 10.8333C7.7083 10.9484 7.6151 11.0417 7.5 11.0417 7.3849 11.0417 7.2917 10.9484 7.2917 10.8333 7.2917 10.7183 7.3849 10.625 7.5 10.625 7.6151 10.625 7.7083 10.7183 7.7083 10.8333Z" stroke="currentColor" stroke-linecap="round" stroke-width="2"/>
  <path d="M12.6042 10.8333H12.5M12.7083 10.8333C12.7083 10.9484 12.6151 11.0417 12.5 11.0417 12.3849 11.0417 12.2917 10.9484 12.2917 10.8333 12.2917 10.7183 12.3849 10.625 12.5 10.625 12.6151 10.625 12.7083 10.7183 12.7083 10.8333Z" stroke="currentColor" stroke-linecap="round" stroke-width="2"/>
</svg>
