<svg xmlns="http://www.w3.org/2000/svg" width="20" height="20" viewBox="0 0 20 20" fill="none">
  <path d="M8.3774 5.4225C11.1112 2.6887 15.301 1.5346 17.4492 1.6786 17.7517 1.6989 17.9029 1.709 18.097 1.903 18.291 2.0971 18.3012 2.2483 18.3214 2.5509 18.4654 4.699 17.3113 8.8888 14.5776 11.6226 12.0381 14.1621 8.1794 16.5826 5.6754 18.0404 5.3811 18.2117 5.2339 18.2974 5.1107 18.3208 4.7596 18.3872 4.405 18.1834 4.2858 17.8466 4.244 17.7283 4.244 17.5547 4.244 17.2073 4.244 16.877 4.244 16.7117 4.2086 16.576 4.1086 16.1916 3.8084 15.8914 3.424 15.7913 3.2882 15.756 3.123 15.756 2.7926 15.756 2.4453 15.756 2.2717 15.756 2.1534 15.7142 1.8166 15.595 1.6127 15.2403 1.6792 14.8893 1.7025 14.7661 1.7882 14.6189 1.9596 14.3246 3.4174 11.8207 5.8379 7.9619 8.3774 5.4225Z" stroke="currentColor" stroke-linecap="round" stroke-linejoin="round" stroke-width="2"/>
  <path d="M17.5 6.6667C14.5076 11.778 8.6646 7.0443 4.5833 10.4167" stroke="currentColor" stroke-linecap="round" stroke-linejoin="round" stroke-width="2"/>
  <path d="M5.8333 14.1667L6.6667 13.3333" stroke="currentColor" stroke-linecap="round" stroke-linejoin="round" stroke-width="2"/>
</svg>
