<svg xmlns="http://www.w3.org/2000/svg" width="20" height="20" viewBox="0 0 20 20" fill="none">
  <path d="M10.8333 7.5C10.8333 8.4205 11.5795 9.1667 12.5 9.1667 13.4205 9.1667 14.1667 8.4205 14.1667 7.5 14.1667 6.5795 13.4205 5.8333 12.5 5.8333 11.5795 5.8333 10.8333 6.5795 10.8333 7.5Z" stroke="currentColor" stroke-width="2"/>
  <path d="M8.3333 7.5C8.3333 9.8012 10.1988 11.6667 12.5 11.6667 14.8012 11.6667 16.6667 9.8012 16.6667 7.5 16.6667 5.1988 14.8012 3.3333 12.5 3.3333 10.1988 3.3333 8.3333 5.1988 8.3333 7.5Z" stroke="currentColor" stroke-width="2"/>
  <path d="M9.5833 1.6667L6.2806 13.6767M5 18.3333L5.6875 15.8333" stroke="currentColor" stroke-linecap="round" stroke-linejoin="round" stroke-width="2"/>
  <path d="M18.3333 10.4167L1.6667 15" stroke="currentColor" stroke-linecap="round" stroke-linejoin="round" stroke-width="2"/>
</svg>
