<svg xmlns="http://www.w3.org/2000/svg" width="20" height="20" viewBox="0 0 20 20" fill="none">
  <circle cx="10" cy="10" r="8.333333333333334" stroke="currentColor" stroke-linecap="round" stroke-linejoin="round" stroke-width="2"/>
  <path d="M7.5 14.1665C8.1964 13.6433 9.062 13.3333 10 13.3333 10.938 13.3333 11.8037 13.6433 12.5 14.1665" stroke="currentColor" stroke-linecap="round" stroke-linejoin="round" stroke-width="2"/>
  <path d="M5.8333 6.6756C5.8333 6.6756 7.0079 6.5695 7.6632 7.09M7.6632 7.09L7.444 7.7856C7.3575 8.0599 7.5836 8.3333 7.897 8.3333 8.2264 8.3333 8.4439 8.0362 8.2743 7.779 8.124 7.551 7.9192 7.2933 7.6632 7.09ZM11.6667 6.6756C11.6667 6.6756 12.8412 6.5695 13.4966 7.09M13.4966 7.09L13.2773 7.7856C13.1908 8.0599 13.4169 8.3333 13.7303 8.3333 14.0598 8.3333 14.2773 8.0362 14.1077 7.779 13.9573 7.551 13.7526 7.2933 13.4966 7.09Z" stroke="currentColor" stroke-linecap="round" stroke-linejoin="round" stroke-width="2"/>
</svg>
