<svg xmlns="http://www.w3.org/2000/svg" width="20" height="20" viewBox="0 0 20 20" fill="none">
  <path d="M14.3777 16.5972C16.5108 15.1789 17.9167 12.7537 17.9167 10 17.9167 5.6277 14.3723 2.0833 10 2.0833 9.3953 2.0833 8.8065 2.1511 8.2407 2.2795M14.3777 16.5972V14.1667M14.3777 16.5972H17.0833M5.6019 3.4165C3.4802 4.8366 2.0833 7.2552 2.0833 10 2.0833 14.3723 5.6277 17.9167 10 17.9167 10.6047 17.9167 11.1935 17.8489 11.7593 17.7205M5.6019 3.4165V5.8333M5.6019 3.4165H2.9167" stroke="currentColor" stroke-linecap="round" stroke-linejoin="round" stroke-width="2"/>
  <path d="M10.4167 5.8333L7.5 10H12.5L9.5833 14.1667" stroke="currentColor" stroke-linecap="round" stroke-linejoin="round" stroke-width="2"/>
</svg>
