<svg xmlns="http://www.w3.org/2000/svg" width="20" height="20" viewBox="0 0 20 20" fill="none">
  <path d="M16.6667 10.8333V8.8808C16.6667 8.1995 16.6667 7.8588 16.5398 7.5526 16.4129 7.2463 16.1721 7.0054 15.6903 6.5237L11.7433 2.5766C11.3275 2.1608 11.1197 1.953 10.8621 1.8298 10.8085 1.8042 10.7537 1.7814 10.6977 1.7617 10.4284 1.6667 10.1345 1.6667 9.5465 1.6667 6.8424 1.6667 5.4903 1.6667 4.5744 2.4051 4.3894 2.5542 4.2209 2.7228 4.0717 2.9078 3.3333 3.8236 3.3333 5.1757 3.3333 7.8799V10.8333M10.8333 2.0833V2.5C10.8333 4.857 10.8333 6.0355 11.5656 6.7678 12.2978 7.5 13.4763 7.5 15.8333 7.5H16.25" stroke="currentColor" stroke-linecap="round" stroke-linejoin="round" stroke-width="2"/>
  <path d="M5.8335 13.3333H4.1667C3.7064 13.3333 3.3333 13.7064 3.3333 14.1667V15C3.3333 15.4603 3.7064 15.8333 4.1667 15.8333H5.0002C5.4604 15.8333 5.8335 16.2064 5.8335 16.6667V17.5C5.8335 17.9602 5.4604 18.3333 5.0002 18.3333H3.3333" stroke="currentColor" stroke-linecap="round" stroke-linejoin="round" stroke-width="2"/>
  <path d="M11.6668 13.3333L10.0661 18.1356C10.0267 18.2537 9.9162 18.3333 9.7918 18.3333 9.6673 18.3333 9.5568 18.2537 9.5174 18.1356L7.9167 13.3333" stroke="currentColor" stroke-linecap="round" stroke-linejoin="round" stroke-width="2"/>
  <path d="M16.6667 14.1667C16.6667 13.7064 16.2936 13.3333 15.8333 13.3333H14.5833C14.1231 13.3333 13.75 13.7064 13.75 14.1667V17.5C13.75 17.9602 14.1231 18.3333 14.5833 18.3333H15.8333C16.2936 18.3333 16.6667 17.9602 16.6667 17.5V16.25H15.8333" stroke="currentColor" stroke-linecap="round" stroke-linejoin="round" stroke-width="2"/>
</svg>
