<svg xmlns="http://www.w3.org/2000/svg" width="20" height="20" viewBox="0 0 20 20" fill="none">
  <path d="M14.1667 4.3056C14.1667 5.4562 12.5 6.6667 12.5 6.6667 12.5 6.6667 10.8333 5.4562 10.8333 4.3056 10.8333 3.155 11.5795 2.5 12.5 2.5 13.4205 2.5 14.1667 3.155 14.1667 4.3056Z" stroke="currentColor" stroke-linejoin="round" stroke-width="2"/>
  <path d="M5.1635 5.1761C6.9857 5.7146 8.3333 8.6427 8.3333 8.6427 8.3333 8.6427 5.8467 10.4377 4.0245 9.8993 2.2023 9.3607 1.42 7.9969 1.7345 6.6926 2.049 5.3883 3.3413 4.6376 5.1635 5.1761Z" stroke="currentColor" stroke-linejoin="round" stroke-width="2"/>
  <path d="M15.125 16.7334C12.0481 18.4972 6.6667 16.6652 6.6667 16.6652 6.6667 16.6652 7.7594 11.1218 10.8363 9.3581 13.9132 7.5943 16.6247 8.2413 17.809 10.2779 18.9932 12.3146 18.2018 14.9696 15.125 16.7334Z" stroke="currentColor" stroke-linejoin="round" stroke-width="2"/>
  <path d="M13.3333 8.75C13.3333 11.2832 14.6636 13.6199 16.6667 15.0553M9.1667 10.8818C9.3192 13.2432 11.4248 15.74 13.3333 17.0833" stroke="currentColor" stroke-linecap="round" stroke-linejoin="round" stroke-width="2"/>
</svg>
