<svg xmlns="http://www.w3.org/2000/svg" width="20" height="20" viewBox="0 0 20 20" fill="none">
  <path d="M16.2533 1.665V6.6591M16.2533 1.665C15.6704 1.665 14.5814 3.325 14.1723 3.7459M16.2533 1.665C16.8361 1.665 17.925 3.325 18.3342 3.7459" stroke="currentColor" stroke-linecap="round" stroke-linejoin="round" stroke-width="2"/>
  <path d="M4.6134 12.037V8.3125M4.6134 8.3125V3.7106C4.6134 3.0267 5.184 2.4756 5.8687 2.4756 6.5534 2.4756 7.0929 3.0267 7.0929 3.7106V7.0449M4.6134 8.3125C3.5156 9.3062 2.3342 10.5614 2.1751 10.883 1.4348 12.0084 1.5124 12.5533 2.3374 13.9304 3.0381 15.1001 3.9804 16.3981 4.0354 16.4603 4.5952 17.0941 4.4839 17.0943 5.2954 17.6893 6.02 18.1916 7.523 18.5416 11.0467 18.1916 13.9172 17.7488 14.6049 15.246 14.5899 14.05V11.0964C14.7688 8.6416 13.7414 8.5308 11.8761 8.2891M7.0929 7.0449V9.1506M7.0929 7.0449C7.5584 6.2867 9.2491 6.5931 9.5786 8.0249M9.6083 9.1472V8.3125C9.6083 8.2467 9.6051 8.1807 9.5958 8.1156M9.5786 8.0249C9.58 8.0309 9.5813 8.037 9.5827 8.043 9.588 8.0671 9.5923 8.0913 9.5958 8.1156M9.5786 8.0249C9.582 8.0541 9.5877 8.0843 9.5958 8.1156M9.5786 8.0249C9.4616 7.0269 11.9933 7.2702 12.0964 9.0252V9.9792" stroke="currentColor" stroke-linecap="round" stroke-width="2"/>
</svg>
