<svg xmlns="http://www.w3.org/2000/svg" width="20" height="20" viewBox="0 0 20 20" fill="none">
  <path d="M15.4167 10V12.2223C15.4167 14.0333 15.4167 14.9389 15.1408 15.6598 14.7189 16.7623 13.8506 17.6334 12.7516 18.0566 12.0329 18.3333 11.1302 18.3333 9.3247 18.3333 8.3778 18.3333 7.9044 18.3333 7.4638 18.2362 6.7916 18.088 6.1667 17.7745 5.6452 17.324 5.3033 17.0287 5.0193 16.6487 4.4511 15.8889L1.9478 12.5406C1.5632 12.0262 1.5742 11.3158 1.9747 10.8136 2.4981 10.1573 3.474 10.1031 4.0664 10.6974L5.4167 12.0519V3.75C5.4167 3.0596 5.9763 2.5 6.6667 2.5 7.357 2.5 7.9167 3.0596 7.9167 3.75V6.6667M7.9167 6.6667H8.75C9.6705 6.6667 10.4167 7.4129 10.4167 8.3333M7.9167 6.6667V9.1667M10.4167 8.3333V9.1667M10.4167 8.3333V7.5H11.25C12.1705 7.5 12.9167 8.2462 12.9167 9.1667M12.9167 9.1667V10M12.9167 9.1667V8.3333L14.024 8.5179C14.8277 8.6518 15.4167 9.3472 15.4167 10.1619V10.8333" stroke="currentColor" stroke-linecap="round" stroke-linejoin="round" stroke-width="2"/>
  <path d="M16.25 6.6667L16.25 1.6667M16.25 6.6667C15.6665 6.6667 14.5762 5.0048 14.1667 4.5833M16.25 6.6667C16.8335 6.6667 17.9238 5.0048 18.3333 4.5833" stroke="currentColor" stroke-linecap="round" stroke-linejoin="round" stroke-width="2"/>
</svg>
