<svg xmlns="http://www.w3.org/2000/svg" width="20" height="20" viewBox="0 0 20 20" fill="none">
  <path d="M15.4176 6.6737V1.6813M15.4176 6.6737C14.8343 6.6737 13.7444 5.0143 13.335 4.5935M15.4176 6.6737C16.0008 6.6737 17.0907 5.0143 17.5001 4.5935" stroke="currentColor" stroke-linecap="round" stroke-linejoin="round" stroke-width="2"/>
  <path d="M5.4274 11.2624V2.9049C5.4274 2.2202 5.9831 1.6651 6.6686 1.6651 7.3541 1.6651 7.9098 2.2202 7.9098 2.9049V7.24M7.9098 7.24V9.1763M7.9098 7.24C8.5805 6.3079 10.0827 6.6184 10.4024 8.0674 10.4078 8.0915 10.4121 8.1157 10.4155 8.1401M10.4282 9.173V8.3373C10.4282 8.2713 10.4248 8.2053 10.4155 8.1401M10.4155 8.1401C10.8266 7.0148 12.9191 7.4387 12.9191 9.0508M12.9191 9.0508V10.0058M12.9191 9.0508C13.2557 7.8087 15.4656 8.6768 15.4177 10.1288V12.7776C15.4153 14.2159 15.1752 15.2589 14.32 16.1167 13.53 17.0599 13.7158 17.5879 13.6962 18.3348M5.4274 7.4922C4.3283 8.4871 3.0808 9.8467 2.9215 10.1687 2.1804 11.2954 2.444 12.1795 3.4972 13.6813 4.281 14.799 5.3322 16.0446 5.3873 16.1069 5.9478 16.7414 5.8379 17.2466 5.8379 18.3257" stroke="currentColor" stroke-linecap="round" stroke-width="2"/>
</svg>
