<svg xmlns="http://www.w3.org/2000/svg" width="20" height="20" viewBox="0 0 20 20" fill="none">
  <path d="M4.8927 10.5592L6.671 12.0833V3.9583C6.671 3.1529 7.3239 2.5 8.1293 2.5 8.9347 2.5 9.5876 3.1529 9.5876 3.9583V8.3333L12.0775 8.7313C13.6847 8.9724 14.4883 9.0929 15.0543 9.432 15.9893 9.9922 16.6667 10.8333 16.6667 12.0613 16.6667 12.9167 16.4553 13.4905 15.9413 15.0322 15.6152 16.0106 15.4522 16.4997 15.1863 16.8869 14.7486 17.5244 14.1028 17.9898 13.3596 18.2035 12.9082 18.3333 12.3926 18.3333 11.3613 18.3333H10.4872C9.1163 18.3333 8.4307 18.3333 7.8205 18.0817 7.7111 18.0367 7.6041 17.9857 7.5001 17.9292 6.92 17.6143 6.4878 17.0823 5.6233 16.0183L2.8245 12.5736C2.3944 12.0442 2.3916 11.2868 2.8176 10.7542 3.3297 10.1141 4.2703 10.0257 4.8927 10.5592Z" stroke="currentColor" stroke-linecap="round" stroke-linejoin="round" stroke-width="2"/>
  <path d="M12.5 3.75L17.5 3.75M12.5 3.75C12.5 3.1665 14.1619 2.0763 14.5833 1.6667M12.5 3.75C12.5 4.3335 14.1619 5.4237 14.5833 5.8333" stroke="currentColor" stroke-linecap="round" stroke-linejoin="round" stroke-width="2"/>
</svg>
