<svg xmlns="http://www.w3.org/2000/svg" width="20" height="20" viewBox="0 0 20 20" fill="none">
  <path d="M12.5065 3.7475H17.4995M12.5065 3.7475C12.5065 3.1647 14.1661 2.0758 14.5869 1.6667M12.5065 3.7475C12.5065 4.3303 14.1661 5.4192 14.5869 5.8283" stroke="currentColor" stroke-linecap="round" stroke-linejoin="round" stroke-width="2"/>
  <path d="M5.4469 12.0385V8.314M5.4469 8.314V3.7122C5.4469 3.0284 6.0173 2.4772 6.7019 2.4772 7.3864 2.4772 7.9258 3.0284 7.9258 3.7122V7.0465M5.4469 8.314C4.3493 9.3077 3.1682 10.5629 3.0091 10.8844 2.2691 12.0099 2.3466 12.5548 3.1714 13.9318 3.8719 15.1014 4.814 16.3995 4.869 16.4618 5.4287 17.0955 5.3174 17.0956 6.1287 17.6906 6.8531 18.1929 8.3558 18.5429 11.8786 18.1929 14.7484 17.7501 15.436 15.2474 15.4211 14.0514V11.0979C15.5998 8.6431 14.5728 8.5322 12.7078 8.2906M7.9258 7.0465V9.1521M7.9258 7.0465C8.3912 6.2882 10.0814 6.5946 10.4109 8.0264M10.4407 9.1488V8.314C10.4407 8.2482 10.4374 8.1822 10.4281 8.1171M10.4109 8.0264C10.4123 8.0324 10.4137 8.0385 10.415 8.0446 10.4203 8.0686 10.4246 8.0928 10.4281 8.1171M10.4109 8.0264C10.4143 8.0556 10.42 8.0858 10.4281 8.1171M10.4109 8.0264C10.2939 7.0285 12.8251 7.2717 12.9282 9.0268V9.9807" stroke="currentColor" stroke-linecap="round" stroke-width="2"/>
</svg>
