<svg xmlns="http://www.w3.org/2000/svg" width="20" height="20" viewBox="0 0 20 20" fill="none">
  <path d="M16.25 10V12.2223C16.25 14.0333 16.25 14.9389 15.9741 15.6598 15.5523 16.7623 14.6839 17.6334 13.5849 18.0566 12.8663 18.3333 11.9635 18.3333 10.158 18.3333 9.2112 18.3333 8.7378 18.3333 8.2972 18.2362 7.625 18.088 7 17.7745 6.4785 17.324 6.1367 17.0287 5.8526 16.6487 5.2845 15.8889L2.7812 12.5406C2.3965 12.0262 2.4076 11.3158 2.808 10.8136 3.3314 10.1573 4.3073 10.1031 4.8998 10.6974L6.25 12.0519V3.75C6.25 3.0596 6.8096 2.5 7.5 2.5 8.1904 2.5 8.75 3.0596 8.75 3.75V6.6667M8.75 6.6667H9.5833C10.5038 6.6667 11.25 7.4129 11.25 8.3333M8.75 6.6667V9.1667M11.25 8.3333V9.1667M11.25 8.3333V7.5H12.0833C13.0038 7.5 13.75 8.2462 13.75 9.1667M13.75 9.1667V10M13.75 9.1667V8.3333L14.8573 8.5179C15.661 8.6518 16.25 9.3472 16.25 10.1619V10.8333" stroke="currentColor" stroke-linecap="round" stroke-linejoin="round" stroke-width="2"/>
  <path d="M17.5 3.75L12.5 3.75M17.5 3.75C17.5 3.1665 15.8381 2.0763 15.4167 1.6667M17.5 3.75C17.5 4.3335 15.8381 5.4237 15.4167 5.8333" stroke="currentColor" stroke-linecap="round" stroke-linejoin="round" stroke-width="2"/>
</svg>
