<svg xmlns="http://www.w3.org/2000/svg" width="20" height="20" viewBox="0 0 20 20" fill="none">
  <path d="M5.3467 12.0833V9.1667M5.3467 9.1667V3.9583C5.3467 3.1529 5.9996 2.5 6.805 2.5 7.6104 2.5 8.2633 3.1529 8.2633 3.9583V8.3333L10.8275 8.7313C12.4347 8.9724 13.2383 9.0929 13.8043 9.432 14.7393 9.9922 15.4167 10.8333 15.4167 12.0613 15.4167 12.9167 15.2053 13.4905 14.6913 15.0322 14.3652 16.0106 14.2022 16.4997 13.9363 16.8869 13.4986 17.5244 12.8528 17.9898 12.1096 18.2035 11.6582 18.3333 11.1426 18.3333 10.1113 18.3333H8.9406C7.4535 18.3333 6.71 18.3333 6.0715 18.0542 5.7831 17.9281 5.514 17.7617 5.2722 17.5602 4.737 17.1139 4.4045 16.4489 3.7394 15.1188 3.2001 14.0402 2.9305 13.5009 2.9174 12.9418 2.9114 12.6897 2.9437 12.438 3.0131 12.1955 3.1669 11.6578 3.564 11.204 4.3581 10.2965L5.3467 9.1667Z" stroke="currentColor" stroke-linecap="round" stroke-linejoin="round" stroke-width="2"/>
  <path d="M15 6.6667L15 1.6667M15 6.6667C14.4165 6.6667 13.3262 5.0048 12.9167 4.5833M15 6.6667C15.5835 6.6667 16.6738 5.0048 17.0833 4.5833" stroke="currentColor" stroke-linecap="round" stroke-linejoin="round" stroke-width="2"/>
</svg>
