<svg xmlns="http://www.w3.org/2000/svg" width="20" height="20" viewBox="0 0 20 20" fill="none">
  <path d="M15.4167 1.665V6.665M15.4167 1.665C14.8332 1.665 13.7429 3.327 13.3333 3.7484M15.4167 1.665C16.0002 1.665 17.0904 3.327 17.5 3.7484" stroke="currentColor" stroke-linecap="round" stroke-linejoin="round" stroke-width="2"/>
  <path d="M5.4265 11.2622V2.9048C5.4265 2.2201 5.9822 1.665 6.6677 1.665 7.3532 1.665 7.9089 2.2201 7.9089 2.9048V7.2399M7.9089 7.2399V9.1762M7.9089 7.2399C8.5797 6.3078 10.0818 6.6183 10.4016 8.0673 10.4069 8.0914 10.4112 8.1156 10.4147 8.14M10.4273 9.1729V8.3372C10.4273 8.2713 10.424 8.2052 10.4147 8.14M10.4147 8.14C10.8257 7.0147 12.7127 7.4438 12.9183 9.0508M12.9183 9.0508V10.0058M12.9183 9.0508C13.2548 7.8086 15.4647 8.6768 15.4168 10.1287V12.7774C15.4144 14.2158 15.1743 15.2588 14.3192 16.1167 13.5292 17.0598 13.715 17.5877 13.6953 18.3347M5.4265 7.4921C4.3274 8.4869 3.0799 9.8466 2.9207 10.1686 2.1796 11.2953 2.4432 12.1794 3.4963 13.6813 4.2801 14.7989 5.3313 16.0445 5.3864 16.1068 5.9469 16.7413 5.8371 17.2465 5.8371 18.3256" stroke="currentColor" stroke-linecap="round" stroke-width="2"/>
</svg>
