<svg xmlns="http://www.w3.org/2000/svg" width="20" height="20" viewBox="0 0 20 20" fill="none">
  <path d="M12.5 3.7516H17.5M12.5 3.7516C12.5 3.1681 14.1619 2.0779 14.5833 1.6683M12.5 3.7516C12.5 4.3352 14.1619 5.4253 14.5833 5.835" stroke="currentColor" stroke-linecap="round" stroke-linejoin="round" stroke-width="2"/>
  <path d="M12.8261 18.3317C12.7829 16.7367 12.8903 16.5446 13.0043 16.1898 13.1182 15.835 13.9152 14.5554 14.1972 13.6412 15.1094 10.6835 14.2592 10.0544 13.1256 9.2157 11.8685 8.2855 9.4973 7.8144 8.3214 7.9164V3.1218C8.3214 2.3191 7.6707 1.6683 6.8679 1.6683 6.0651 1.6683 5.4144 2.3191 5.4144 3.1218V8.3051M5.4148 18.3323V17.4878C5.3611 16.7008 4.5794 15.7696 3.6056 14.4305 2.6042 12.98 2.3891 12.2477 2.5466 11.5707 2.6277 11.2245 2.8383 10.6527 3.8721 9.6753L5.4144 8.3051M5.4144 11.6936V8.3051" stroke="currentColor" stroke-linecap="round" stroke-linejoin="round" stroke-width="2"/>
</svg>
