<svg xmlns="http://www.w3.org/2000/svg" width="20" height="20" viewBox="0 0 20 20" fill="none">
  <path d="M9.0545 8.0706L9.7862 3.9673C9.9074 3.2874 9.4483 2.6391 8.7608 2.5192 8.0734 2.3993 7.4178 2.8533 7.2966 3.5332L5.8333 11.7399 5.712 12.3759 4.074 10.6977C3.4797 10.1033 2.5007 10.1576 1.9757 10.8138 1.5739 11.316 1.5628 12.0264 1.9487 12.5408L4.4599 15.8892C5.0298 16.649 5.3148 17.0289 5.6577 17.3243 6.1808 17.7748 6.8077 18.0882 7.482 18.2364 7.924 18.3336 8.3989 18.3336 9.3488 18.3336H11.3505C13.3328 18.3336 15.0406 16.9371 15.4342 14.9943L16.1574 11.4247 16.2306 11.0143C16.3518 10.3345 15.8928 9.6862 15.2053 9.5663 14.5178 9.4464 13.8622 9.9003 13.741 10.5803L13.6678 10.9906M9.0545 8.0706L8.8351 9.3017M9.0545 8.0706C9.1758 7.3908 9.8313 6.9368 10.5188 7.0567 11.2063 7.1766 11.6653 7.8249 11.5441 8.5048L11.3978 9.3254M11.3978 9.3254L11.3246 9.7358M11.3978 9.3254C11.519 8.6456 12.1746 8.1916 12.8621 8.3115 13.5495 8.4313 14.0086 9.0797 13.8873 9.7596L13.8142 10.1699" stroke="currentColor" stroke-linecap="round" stroke-linejoin="round" stroke-width="2"/>
  <path d="M18.3333 3.75H12.9167M18.3333 3.75C18.3333 3.1665 16.6714 2.0763 16.25 1.6667M18.3333 3.75C18.3333 4.3335 16.6714 5.4237 16.25 5.8333" stroke="currentColor" stroke-linecap="round" stroke-linejoin="round" stroke-width="2"/>
</svg>
