<svg xmlns="http://www.w3.org/2000/svg" width="20" height="20" viewBox="0 0 20 20" fill="none">
  <path d="M8.7503 6.6667H9.5837C10.5042 6.6667 11.2503 7.4129 11.2503 8.3333M11.2503 8.3333V9.1667M11.2503 8.3333C11.2503 7.8731 11.6234 7.5 12.0837 7.5 13.0042 7.5 13.7503 8.2462 13.7503 9.1667M13.7503 9.1667V10M13.7503 9.1667C13.7503 8.7304 14.1421 8.3986 14.5723 8.4703L14.8577 8.5179C15.6613 8.6518 16.2503 9.3472 16.2503 10.1619L16.25 11.389C16.25 13.2002 16.25 14.1058 15.9741 14.8267 15.8141 15.2449 15.3919 15.7783 15.0543 16.1637 14.7623 16.497 14.5833 16.9198 14.5833 17.363V18.3335M8.7502 8.3333V2.9167C8.7502 2.2263 8.1905 1.6667 7.5002 1.6667 6.8098 1.6667 6.2502 2.2263 6.2502 2.9167L6.25 11.2187 4.8998 9.8642C4.3073 9.2699 3.3314 9.3241 2.808 9.9804 2.4076 10.4826 2.3965 11.1929 2.7812 11.7074L5.7809 15.5392C6.3548 16.2724 6.6667 17.4024 6.6667 18.3335" stroke="currentColor" stroke-linecap="round" stroke-linejoin="round" stroke-width="2"/>
  <path d="M15.4167 1.6667L15.4167 6.6667M15.4167 1.6667C14.8332 1.6667 13.7429 3.3286 13.3333 3.75M15.4167 1.6667C16.0002 1.6667 17.0904 3.3286 17.5 3.75" stroke="currentColor" stroke-linecap="round" stroke-linejoin="round" stroke-width="2"/>
</svg>
