<svg xmlns="http://www.w3.org/2000/svg" width="20" height="20" viewBox="0 0 20 20" fill="none">
  <path d="M7.917 6.6667H8.7503C9.6708 6.6667 10.417 7.4129 10.417 8.3333M10.417 8.3333V9.1667M10.417 8.3333C10.417 7.8731 10.7901 7.5 11.2503 7.5 12.1708 7.5 12.917 8.2462 12.917 9.1667M12.917 9.1667V10M12.917 9.1667C12.917 8.7304 13.3087 8.3986 13.739 8.4703L14.0243 8.5179C14.828 8.6518 15.417 9.3472 15.417 10.1619L15.4167 11.389C15.4167 13.2002 15.4167 14.1058 15.1408 14.8267 14.9808 15.2449 14.5586 15.7783 14.221 16.1637 13.929 16.497 13.75 16.9198 13.75 17.363V18.3335M7.9168 8.3333V2.9167C7.9168 2.2263 7.3572 1.6667 6.6668 1.6667 5.9765 1.6667 5.4168 2.2263 5.4168 2.9167L5.4167 11.2187 4.0664 9.8642C3.474 9.2699 2.4981 9.3241 1.9747 9.9804 1.5742 10.4826 1.5632 11.1929 1.9478 11.7074L4.9476 15.5392C5.5215 16.2724 5.8333 17.4024 5.8333 18.3335" stroke="currentColor" stroke-linecap="round" stroke-linejoin="round" stroke-width="2"/>
  <path d="M12.5 3.75L17.5 3.75M12.5 3.75C12.5 3.1665 14.1619 2.0763 14.5833 1.6667M12.5 3.75C12.5 4.3335 14.1619 5.4237 14.5833 5.8333" stroke="currentColor" stroke-linecap="round" stroke-linejoin="round" stroke-width="2"/>
</svg>
