<svg xmlns="http://www.w3.org/2000/svg" width="20" height="20" viewBox="0 0 20 20" fill="none">
  <path d="M12.5008 3.7499H17.5008M12.5008 3.7499C12.5008 3.1664 14.1628 2.0762 14.5842 1.6666M12.5008 3.7499C12.5008 4.3334 14.1628 5.4236 14.5842 5.8332" stroke="currentColor" stroke-linecap="round" stroke-linejoin="round" stroke-width="2"/>
  <path d="M5.4273 11.2622V2.9048C5.4273 2.2201 5.9831 1.665 6.6685 1.665 7.354 1.665 7.9097 2.2201 7.9097 2.9048V7.2399M7.9097 7.2399V9.1762M7.9097 7.2399C8.5805 6.3078 10.0827 6.6183 10.4024 8.0673 10.4077 8.0914 10.412 8.1156 10.4155 8.14M10.4281 9.1729V8.3372C10.4281 8.2713 10.4248 8.2052 10.4155 8.14M10.4155 8.14C10.8265 7.0147 12.7136 7.4438 12.919 9.0508M12.919 9.0508V10.0058M12.919 9.0508C13.2557 7.8086 15.4655 8.6768 15.4177 10.1287V12.7774C15.4152 14.2158 15.1751 15.2588 14.32 16.1167 13.53 17.0598 13.7158 17.5877 13.6962 18.3347M5.4273 7.4921C4.3282 8.4869 3.0808 9.8466 2.9215 10.1686 2.1804 11.2953 2.444 12.1794 3.4971 13.6813 4.2809 14.7989 5.3322 16.0445 5.3872 16.1068 5.9477 16.7413 5.8379 17.2465 5.8379 18.3256" stroke="currentColor" stroke-linecap="round" stroke-width="2"/>
</svg>
