<svg xmlns="http://www.w3.org/2000/svg" width="20" height="20" viewBox="0 0 20 20" fill="none">
  <path d="M15.4167 1.6699V6.668M15.4167 1.6699C14.8332 1.6699 13.7429 3.3312 13.3333 3.7524M15.4167 1.6699C16.0002 1.6699 17.0904 3.3312 17.5 3.7524" stroke="currentColor" stroke-linecap="round" stroke-linejoin="round" stroke-width="2"/>
  <path d="M14.0777 18.3235C14.0346 16.7292 14.142 16.5372 14.2559 16.1825 14.3698 15.8278 15.1668 14.5488 15.4488 13.6349 16.361 10.6783 15.5107 10.0495 14.3772 9.2111 13.1201 8.2813 10.749 7.8104 9.5731 7.9123V3.1196C9.5731 2.3172 8.9223 1.6667 8.1195 1.6667 7.3167 1.6667 6.666 2.3172 6.666 3.1196V11.6692L4.9492 9.8531C4.4161 9.2752 3.5596 9.2166 2.9749 9.7423 2.4209 10.2404 2.3401 11.0793 2.7888 11.6741L3.8657 13.1015M6.5582 18.3333L6.5419 17.458C6.5777 16.4319 5.831 15.7624 4.8572 14.4239 4.787 14.3275 4.7188 14.2342 4.6523 14.1441M4.6523 14.1441C4.3572 13.7437 4.0976 13.4026 3.8657 13.1015M4.6523 14.1441L5.6268 15.4358M4.6523 14.1441L3.8657 13.1015M3.8657 13.1015C3.3896 12.4834 3.0301 12.0342 2.7203 11.5879" stroke="currentColor" stroke-linecap="round" stroke-linejoin="round" stroke-width="2"/>
</svg>
