<svg xmlns="http://www.w3.org/2000/svg" width="20" height="20" viewBox="0 0 20 20" fill="none">
  <path d="M8.3337 6.6667H9.167C10.0875 6.6667 10.8337 7.4129 10.8337 8.3333M10.8337 8.3333V9.1667M10.8337 8.3333C10.8337 7.8731 11.2068 7.5 11.667 7.5 12.5875 7.5 13.3337 8.2462 13.3337 9.1667M13.3337 9.1667V10M13.3337 9.1667C13.3337 8.7304 13.7254 8.3986 14.1557 8.4703L14.441 8.5179C15.2447 8.6518 15.8337 9.3472 15.8337 10.1619L15.8333 11.389C15.8333 13.2002 15.8333 14.1058 15.5574 14.8267 15.3974 15.2449 14.9753 15.7783 14.6377 16.1637 14.3457 16.497 14.1667 16.9198 14.1667 17.363V18.3335M8.3335 8.3333V2.9167C8.3335 2.2263 7.7739 1.6667 7.0835 1.6667 6.3932 1.6667 5.8335 2.2263 5.8335 2.9167L5.8333 11.2187 4.4831 9.8642C3.8906 9.2699 2.9148 9.3241 2.3914 9.9804 1.9909 10.4826 1.9798 11.1929 2.3645 11.7074L5.3642 15.5392C5.9382 16.2724 6.25 17.4024 6.25 18.3335" stroke="currentColor" stroke-linecap="round" stroke-linejoin="round" stroke-width="2"/>
  <path d="M17.9167 3.75L12.9167 3.75M17.9167 3.75C17.9167 3.1665 16.2548 2.0763 15.8333 1.6667M17.9167 3.75C17.9167 4.3335 16.2548 5.4237 15.8333 5.8333" stroke="currentColor" stroke-linecap="round" stroke-linejoin="round" stroke-width="2"/>
</svg>
