<svg xmlns="http://www.w3.org/2000/svg" width="20" height="20" viewBox="0 0 20 20" fill="none">
  <path d="M17.5008 3.7492H12.5008M17.5008 3.7492C17.5008 3.1659 15.8389 2.0761 15.4175 1.6667M17.5008 3.7492C17.5008 4.3325 15.8389 5.4223 15.4175 5.8318" stroke="currentColor" stroke-linecap="round" stroke-linejoin="round" stroke-width="2"/>
  <path d="M14.0785 18.3237C14.0353 16.7293 14.1427 16.5373 14.2568 16.1826 14.3707 15.8279 15.1676 14.5489 15.4496 13.6351 16.3618 10.6784 15.5116 10.0496 14.378 9.2112 13.1209 8.2813 10.7498 7.8104 9.5738 7.9124V3.1197C9.5738 2.3172 8.9231 1.6667 8.1203 1.6667 7.3176 1.6667 6.6668 2.3172 6.6668 3.1197V11.6693L4.95 9.8532C4.417 9.2752 3.5604 9.2167 2.9758 9.7423 2.4217 10.2405 2.3409 11.0794 2.7896 11.6742L3.8665 13.1017M6.559 18.3335L6.5427 17.4582C6.5785 16.4321 5.8318 15.7626 4.858 14.4241 4.7879 14.3276 4.7196 14.2344 4.6531 14.1442M4.6531 14.1442C4.3581 13.7438 4.0985 13.4027 3.8665 13.1017M4.6531 14.1442L5.6276 15.4359M4.6531 14.1442L3.8665 13.1017M3.8665 13.1017C3.3904 12.4835 3.031 12.0343 2.7211 11.588" stroke="currentColor" stroke-linecap="round" stroke-linejoin="round" stroke-width="2"/>
</svg>
