<svg xmlns="http://www.w3.org/2000/svg" width="20" height="20" viewBox="0 0 20 20" fill="none">
  <path d="M16.2525 6.656V1.6667M16.2525 6.656C15.6699 6.656 14.5814 4.9976 14.1725 4.5771M16.2525 6.656C16.8351 6.656 17.9236 4.9976 18.3325 4.5771" stroke="currentColor" stroke-linecap="round" stroke-linejoin="round" stroke-width="2"/>
  <path d="M4.6138 12.0442V8.3232M4.6138 8.3232V3.7257C4.6138 3.0425 5.1841 2.4919 5.8685 2.4919 6.5529 2.4919 7.0922 3.0425 7.0922 3.7257V7.0568M4.6138 8.3232C3.5164 9.3159 2.3355 10.57 2.1765 10.8912 1.4366 12.0156 1.5141 12.5599 2.3387 13.9358 3.0391 15.1043 3.981 16.4011 4.036 16.4633 4.5956 17.0964 4.4843 17.0965 5.2954 17.691 6.0197 18.1928 7.5221 18.5425 11.0442 18.1928 13.9135 17.7504 14.6009 15.2501 14.586 14.0552V11.1044C14.7647 8.6519 13.7378 8.5412 11.8733 8.2998M7.0922 7.0568V9.1605M7.0922 7.0568C7.5575 6.2993 9.2474 6.6054 9.5768 8.0359M9.6066 9.1572V8.3232C9.6066 8.2575 9.6032 8.1915 9.594 8.1265M9.5768 8.0359C9.5782 8.0419 9.5796 8.0479 9.5809 8.054 9.5862 8.078 9.5905 8.1022 9.594 8.1265M9.5768 8.0359C9.5802 8.065 9.5859 8.0952 9.594 8.1265M9.5768 8.0359C9.4598 7.0389 11.9905 7.2819 12.0936 9.0353V9.9883" stroke="currentColor" stroke-linecap="round" stroke-width="2"/>
</svg>
