<svg xmlns="http://www.w3.org/2000/svg" width="20" height="20" viewBox="0 0 20 20" fill="none">
  <path d="M10.8333 7.0833H9.1667C7.9999 7.0833 7.4165 7.0833 6.9708 7.3104 6.5789 7.5101 6.2601 7.8289 6.0604 8.2209 5.8333 8.6665 5.8333 9.2499 5.8333 10.4167 5.8333 11.5834 5.8333 12.1668 6.0604 12.6125 6.2601 13.0045 6.5789 13.3232 6.9708 13.5229 7.4165 13.75 7.9999 13.75 9.1667 13.75H10.8333C12.0001 13.75 12.5835 13.75 13.0292 13.5229 13.4212 13.3232 13.7398 13.0045 13.9396 12.6125 14.1667 12.1668 14.1667 11.5834 14.1667 10.4167 14.1667 9.2499 14.1667 8.6665 13.9396 8.2209 13.7398 7.8289 13.4212 7.5101 13.0292 7.3104 12.5835 7.0833 12.0001 7.0833 10.8333 7.0833Z" stroke="currentColor" stroke-linecap="round" stroke-linejoin="round" stroke-width="2"/>
  <path d="M8.3333 7.0833L8.5197 6.7107C8.6608 6.4283 8.9494 6.25 9.265 6.25H10.735C11.0506 6.25 11.3392 6.4283 11.4803 6.7107L11.6667 7.0833" stroke="currentColor" stroke-linecap="round" stroke-linejoin="round" stroke-width="2"/>
  <path d="M10.1668 3.3333L8.5001 1.8334C9.0386 1.7241 9.5959 1.6667 10.1668 1.6667 14.1983 1.6667 17.5613 4.5296 18.3333 8.3333M9.8333 16.6667L11.5 18.1667C10.9615 18.2759 10.4041 18.3333 9.8333 18.3333 5.8017 18.3333 2.4388 15.4704 1.6667 11.6667" stroke="currentColor" stroke-linecap="round" stroke-linejoin="round" stroke-width="2"/>
  <path d="M10 10V10.4167M10.8333 10.4167C10.8333 10.8769 10.4603 11.25 10 11.25 9.5397 11.25 9.1667 10.8769 9.1667 10.4167 9.1667 9.9564 9.5397 9.5833 10 9.5833 10.4603 9.5833 10.8333 9.9564 10.8333 10.4167Z" stroke="currentColor" stroke-linecap="round" stroke-linejoin="round" stroke-width="2"/>
</svg>
