<svg xmlns="http://www.w3.org/2000/svg" width="20" height="20" viewBox="0 0 20 20" fill="none">
  <path d="M6.6554 7.9094L4.7309 6.2609C3.4617 5.1691 3.4574 3.5845 3.3219 2.5163 4.7106 2.5822 5.7862 2.7079 6.7229 3.4991L7.7028 4.6124 8.7632 5.803M16.2144 15.3484L13.7438 12.8486M11.6846 15.3484C11.7034 15.1216 11.8519 14.5334 12.534 13.9033 13.1459 13.3378 14.473 11.9828 15.0693 11.3953 15.4072 11.0624 15.961 10.8289 16.2144 10.8293M12.9736 10.6734L14.0874 11.9057M11.3969 12.0303L12.6421 13.1249M17.0513 14.9836C17.7433 14.9849 18.3343 15.496 18.3329 16.1876 18.3316 16.8791 17.7433 17.4854 17.0513 17.4842 16.3593 17.4828 15.8257 16.8743 15.827 16.1828 15.8717 15.4947 16.3807 15.0761 17.0513 14.9836Z" stroke="currentColor" stroke-linecap="round" stroke-linejoin="round" stroke-width="2"/>
  <path d="M3.8299 15.3275L6.2949 12.9173M3.8013 10.8226C4.0283 10.841 4.6613 10.9926 5.2283 11.7009 5.7489 12.3512 7.1531 13.6088 7.7422 14.2036 8.0759 14.5406 8.3092 15.0742 8.3092 15.3275M6.0537 11.8583L12.9196 3.8868C14.0368 2.64 15.5983 2.6128 16.6697 2.4984 16.5765 3.8845 16.4296 4.9568 15.6196 5.8771L7.1247 13.2719M4.1718 16.249C4.1718 16.9405 3.6108 17.5012 2.9188 17.5012 2.2268 17.5012 1.6659 16.9405 1.6659 16.249 1.6659 15.5574 2.2268 14.9968 2.9188 14.9968 3.6108 14.9968 4.1718 15.5574 4.1718 16.249Z" stroke="currentColor" stroke-linecap="round" stroke-linejoin="round" stroke-width="2"/>
</svg>
