<svg xmlns="http://www.w3.org/2000/svg" width="20" height="20" viewBox="0 0 20 20" fill="none">
  <path d="M12.0833 1.6667H7.9167C5.5596 1.6667 4.3811 1.6667 3.6489 2.3989 2.9167 3.1311 2.9167 4.3096 2.9167 6.6667V13.3333C2.9167 15.6903 2.9167 16.8688 3.6489 17.6011 4.3811 18.3333 5.5596 18.3333 7.9167 18.3333H12.0833C14.4403 18.3333 15.6188 18.3333 16.3511 17.6011 17.0833 16.8688 17.0833 15.6903 17.0833 13.3333V6.6667C17.0833 4.3096 17.0833 3.1311 16.3511 2.3989 15.6188 1.6667 14.4403 1.6667 12.0833 1.6667Z" stroke="currentColor" stroke-linecap="round" stroke-width="2"/>
  <path d="M8.3333 3.75H11.6667" stroke="currentColor" stroke-linecap="round" stroke-width="2"/>
  <path d="M10.1042 15.8333H10M10.2083 15.8333C10.2083 15.9484 10.1151 16.0417 10 16.0417 9.8849 16.0417 9.7917 15.9484 9.7917 15.8333 9.7917 15.7182 9.8849 15.625 10 15.625 10.1151 15.625 10.2083 15.7182 10.2083 15.8333Z" stroke="currentColor" stroke-linecap="round" stroke-linejoin="round" stroke-width="2"/>
</svg>
