<svg xmlns="http://www.w3.org/2000/svg" width="20" height="20" viewBox="0 0 20 20" fill="none">
  <path d="M14.4632 10.0428L16.7706 11.6348C17.2561 11.9696 17.4988 12.1371 17.5 12.3592 17.5012 12.5814 17.2602 12.7508 16.7784 13.0893L16.298 13.4269C15.5043 13.9846 15.1074 14.2635 14.7853 14.1363 14.4632 14.0091 14.4632 13.5735 14.4632 12.7022V10.0428ZM14.4632 10.0428L14.4011 10M14.4632 10.0428V9.9572M14.4011 10L11.6667 8.1136M14.4011 10L14.4632 9.9572M14.4011 10L11.6667 11.8864M14.4632 9.9572L16.7706 8.3652C17.2561 8.0304 17.4988 7.8629 17.5 7.6407 17.5012 7.4186 17.2602 7.2493 16.7784 6.9107L16.298 6.5731C15.5043 6.0154 15.1074 5.7365 14.7853 5.8637 14.4632 5.9909 14.4632 6.4265 14.4632 7.2977V9.9572Z" stroke="currentColor" stroke-linecap="round" stroke-linejoin="round" stroke-width="2"/>
  <path d="M17.5 16.4017C16.3829 17.5 14.5851 17.5 10.9894 17.5H9.2943C5.6986 17.5 3.9008 17.5 2.7837 16.4017 1.6667 15.3033 1.6667 13.5355 1.6667 10 1.6667 6.4645 1.6667 4.6967 2.7837 3.5983 3.9008 2.5 5.6986 2.5 9.2943 2.5H10.9894C14.5851 2.5 16.3829 2.5 17.5 3.5983" stroke="currentColor" stroke-linecap="round" stroke-width="2"/>
  <path d="M5.4167 2.9167V17.0833" stroke="currentColor" stroke-linejoin="round" stroke-width="2"/>
</svg>
