<svg xmlns="http://www.w3.org/2000/svg" width="20" height="20" viewBox="0 0 20 20" fill="none">
  <path d="M18.3333 15C18.1676 15.5743 17.9159 16.0269 17.534 16.4017 16.4145 17.5 14.6128 17.5 11.0094 17.5H9.3108C5.7073 17.5 3.9056 17.5 2.7861 16.4017 1.6667 15.3033 1.6667 13.5355 1.6667 10 1.6667 6.4645 1.6667 4.6967 2.7861 3.5983 3.9056 2.5 5.7073 2.5 9.3108 2.5H11.0094C14.6128 2.5 16.4145 2.5 17.534 3.5983 17.9159 3.9731 18.1676 4.4258 18.3333 5" stroke="currentColor" stroke-linecap="round" stroke-width="2"/>
  <path d="M5.4167 2.9167V17.0833" stroke="currentColor" stroke-linejoin="round" stroke-width="2"/>
  <path d="M16.3528 10.0019C16.3528 10.5487 16.7962 10.9919 17.3429 10.9919 17.8898 10.9919 18.333 10.5487 18.333 10.0019 18.333 9.4551 17.8898 9.0118 17.3429 9.0118 16.7962 9.0118 16.3528 9.4551 16.3528 10.0019ZM16.3528 10.0019L8.3545 10.0052M10.3208 7.1004L11.2556 7.1367C11.5913 7.1498 11.8864 7.3632 12.0039 7.678L12.8639 10.0033M11.8283 12.9103L12.7631 12.8739C13.0989 12.8609 13.394 12.6474 13.5115 12.3326L14.3594 10.0027" stroke="currentColor" stroke-linecap="round" stroke-linejoin="round" stroke-width="2"/>
</svg>
