<svg xmlns="http://www.w3.org/2000/svg" width="20" height="20" viewBox="0 0 20 20" fill="none">
  <path d="M1.6667 10C1.6667 6.4645 1.6667 4.6967 2.765 3.5983 3.8634 2.5 5.6311 2.5 9.1667 2.5H10.8333C14.3688 2.5 16.1367 2.5 17.235 3.5983 18.3333 4.6967 18.3333 6.4645 18.3333 10 18.3333 13.5355 18.3333 15.3033 17.235 16.4017 16.1367 17.5 14.3688 17.5 10.8333 17.5H9.1667C5.6311 17.5 3.8634 17.5 2.765 16.4017 1.6667 15.3033 1.6667 13.5355 1.6667 10Z" stroke="currentColor" stroke-width="2"/>
  <path d="M5.4167 2.5V17.5" stroke="currentColor" stroke-linejoin="round" stroke-width="2"/>
  <path d="M14.1715 7.4037L14.6783 7.9085C15.1072 8.3357 15.1072 9.0282 14.6784 9.4552L12.0229 12.1499C11.814 12.358 11.5467 12.4983 11.2564 12.5523L9.6106 12.9082C9.3508 12.9643 9.1193 12.7345 9.175 12.4755L9.5253 10.8457C9.5796 10.5564 9.7204 10.2903 9.9293 10.0823L12.6186 7.4037C13.0474 6.9766 13.7427 6.9766 14.1715 7.4037Z" stroke="currentColor" stroke-linecap="round" stroke-linejoin="round" stroke-width="2"/>
</svg>
