<svg xmlns="http://www.w3.org/2000/svg" width="20" height="20" viewBox="0 0 20 20" fill="none">
  <path d="M1.6667 16.6667H3.3333C5.6904 16.6667 6.8689 16.6667 7.6011 15.9344 8.3333 15.2022 8.3333 14.0237 8.3333 11.6667V8.3333C8.3333 5.9763 8.3333 4.7978 7.6011 4.0656 6.8689 3.3333 5.6904 3.3333 3.3333 3.3333H1.6667" stroke="currentColor" stroke-linecap="round" stroke-linejoin="round" stroke-width="2"/>
  <path d="M18.3333 3.3333C17.0388 3.3724 16.2667 3.5171 15.7322 4.0527 15 4.7865 15 5.9676 15 8.3297V11.6703C15 14.0324 15 15.2135 15.7322 15.9473 16.2667 16.4829 17.0388 16.6276 18.3333 16.6667" stroke="currentColor" stroke-linecap="round" stroke-linejoin="round" stroke-width="2"/>
  <path d="M5 3.3333V16.6667" stroke="currentColor" stroke-linecap="round" stroke-linejoin="round" stroke-width="2"/>
  <path d="M11.6667 2.5V3.75M11.6667 7.0833V8.3333M11.6667 11.6667V12.9167M11.6667 16.25V17.5" stroke="currentColor" stroke-linecap="round" stroke-linejoin="round" stroke-width="2"/>
  <path d="M1.6667 10H8.3333" stroke="currentColor" stroke-linecap="round" stroke-linejoin="round" stroke-width="2"/>
  <path d="M1.6667 6.6667H8.3333" stroke="currentColor" stroke-linecap="round" stroke-linejoin="round" stroke-width="2"/>
  <path d="M1.6667 13.3333H8.3333" stroke="currentColor" stroke-linecap="round" stroke-linejoin="round" stroke-width="2"/>
  <path d="M15 10H18.3333" stroke="currentColor" stroke-linecap="round" stroke-linejoin="round" stroke-width="2"/>
  <path d="M15 6.6667H18.3333" stroke="currentColor" stroke-linecap="round" stroke-linejoin="round" stroke-width="2"/>
  <path d="M15 13.3333H18.3333" stroke="currentColor" stroke-linecap="round" stroke-linejoin="round" stroke-width="2"/>
</svg>
