<svg xmlns="http://www.w3.org/2000/svg" width="20" height="20" viewBox="0 0 20 20" fill="none">
  <path d="M10.4167 13.75H17.0833M17.5 13.75C17.5 15.8211 15.8211 17.5 13.75 17.5 11.6789 17.5 10 15.8211 10 13.75 10 11.6789 11.6789 10 13.75 10 15.8211 10 17.5 11.6789 17.5 13.75Z" stroke="currentColor" stroke-linecap="round" stroke-linejoin="round" stroke-width="2"/>
  <path d="M3.75 3.75L8.75 8.75M10 6.25C10 8.3211 8.3211 10 6.25 10 4.1789 10 2.5 8.3211 2.5 6.25 2.5 4.1789 4.1789 2.5 6.25 2.5 8.3211 2.5 10 4.1789 10 6.25Z" stroke="currentColor" stroke-linecap="round" stroke-linejoin="round" stroke-width="2"/>
</svg>
