<svg xmlns="http://www.w3.org/2000/svg" width="20" height="20" viewBox="0 0 20 20" fill="none">
  <path d="M5 6.6667L13.3333 15" stroke="currentColor" stroke-linejoin="round" stroke-width="2"/>
  <path d="M2.0734 15.1557C3.5599 14.2213 5.8325 12.8229 6.167 11.4039 6.271 10.9626 6.0372 10.5346 5.8354 10.1285 4.8589 8.1642 4.8369 5.877 6.2886 4.4273 8.82 1.899 14.2544 0.4126 16.9225 3.0769 19.5875 5.7381 18.1018 11.1677 15.5702 13.6957 14.1183 15.1455 11.8287 15.1242 9.8616 14.1489 9.4548 13.9473 9.0262 13.7137 8.5841 13.8177 7.163 14.1517 5.7622 16.4205 4.8265 17.9049 3.8098 19.5178 0.5287 16.1265 2.0734 15.1557Z" stroke="currentColor" stroke-linejoin="round" stroke-width="2"/>
</svg>
