<svg xmlns="http://www.w3.org/2000/svg" width="20" height="20" viewBox="0 0 20 20" fill="none">
  <path d="M18.3333 3.3333L1.6667 3.3333" stroke="currentColor" stroke-linecap="round" stroke-linejoin="round" stroke-width="2"/>
  <path d="M2.5 3.3333V3.8801C2.5 4.6856 2.69 5.476 3.0497 6.1667L3.5071 7.0451C4.3213 8.6087 4.3857 10.5433 3.678 12.1742L2.7443 14.3258C2.5837 14.6961 2.5 15.1044 2.5 15.5184V16.6667M17.5 3.3333V3.8801C17.5 4.6856 17.31 5.476 16.9503 6.1667L16.4929 7.0451C15.6787 8.6087 15.6143 10.5433 16.322 12.1742L17.2557 14.3258C17.4163 14.6961 17.5 15.1044 17.5 15.5184V16.6667" stroke="currentColor" stroke-linecap="round" stroke-linejoin="round" stroke-width="2"/>
  <path d="M4.1667 10H15.8333" stroke="currentColor" stroke-linecap="round" stroke-linejoin="round" stroke-width="2"/>
  <path d="M3.75 12.5H16.25" stroke="currentColor" stroke-linecap="round" stroke-linejoin="round" stroke-width="2"/>
  <path d="M11.6667 5.8333C11.4624 6.3441 11.0448 6.6667 10.588 6.6667H9.412C8.9552 6.6667 8.5376 6.3441 8.3333 5.8333" stroke="currentColor" stroke-linecap="round" stroke-linejoin="round" stroke-width="2"/>
</svg>
