<svg xmlns="http://www.w3.org/2000/svg" width="20" height="20" viewBox="0 0 20 20" fill="none">
  <path d="M3.3333 10V18.3333M16.6667 10V18.3333" stroke="currentColor" stroke-linecap="round" stroke-linejoin="round" stroke-width="2"/>
  <path d="M2.5 10H17.5" stroke="currentColor" stroke-linecap="round" stroke-linejoin="round" stroke-width="2"/>
  <path d="M3.3333 14.1667L16.6667 14.1667" stroke="currentColor" stroke-linecap="round" stroke-linejoin="round" stroke-width="2"/>
  <path d="M9.1667 12.0833L10.8333 12.0833" stroke="currentColor" stroke-linecap="round" stroke-linejoin="round" stroke-width="2"/>
  <path d="M11.9883 2.7961C11.9021 2.6549 11.8243 2.5218 11.7552 2.3998 11.546 2.0309 11.4414 1.8464 11.2752 1.7565 11.1089 1.6667 10.8868 1.6667 10.4427 1.6667H9.5573C9.1132 1.6667 8.8911 1.6667 8.7248 1.7565 8.5586 1.8464 8.454 2.0309 8.2449 2.3998L8.2449 2.3998C8.1758 2.5218 8.0979 2.6549 8.0117 2.7961 7.0107 4.4365 6.5102 5.2567 6.71 5.545 6.9098 5.8333 7.8497 5.8333 9.7297 5.8333H9.7297 10.2703 10.2703C12.1502 5.8333 13.0902 5.8333 13.29 5.545 13.4898 5.2567 12.9893 4.4365 11.9883 2.7961Z" stroke="currentColor" stroke-linecap="round" stroke-linejoin="round" stroke-width="2"/>
  <path d="M10 5.8333V10" stroke="currentColor" stroke-linecap="round" stroke-linejoin="round" stroke-width="2"/>
</svg>
