<svg xmlns="http://www.w3.org/2000/svg" width="20" height="20" viewBox="0 0 20 20" fill="none">
  <path d="M16.6667 18.3333V16.6667C16.6667 14.3097 16.6667 13.1312 15.9344 12.3989 15.2022 11.6667 14.0237 11.6667 11.6667 11.6667L8.3333 11.6667C5.9763 11.6667 4.7978 11.6667 4.0656 12.3989 3.3333 13.1312 3.3333 14.3097 3.3333 16.6667L3.3333 18.3333" stroke="currentColor" stroke-linecap="round" stroke-linejoin="round" stroke-width="2"/>
  <path d="M3.3333 1.6667C3.3724 2.9612 3.5171 3.7333 4.0527 4.2678 4.7865 5 5.9676 5 8.3297 5H11.6703C14.0324 5 15.2135 5 15.9473 4.2678 16.4829 3.7333 16.6276 2.9612 16.6667 1.6667" stroke="currentColor" stroke-linecap="round" stroke-linejoin="round" stroke-width="2"/>
  <path d="M3.3333 15L16.6667 15" stroke="currentColor" stroke-linecap="round" stroke-linejoin="round" stroke-width="2"/>
  <path d="M2.5 8.3333L3.75 8.3333M7.0833 8.3333L8.3333 8.3333M11.6667 8.3333L12.9167 8.3333M16.25 8.3333L17.5 8.3333" stroke="currentColor" stroke-linecap="round" stroke-linejoin="round" stroke-width="2"/>
  <path d="M10 18.3333L10 11.6667" stroke="currentColor" stroke-linecap="round" stroke-linejoin="round" stroke-width="2"/>
  <path d="M6.6667 18.3333L6.6667 11.6667" stroke="currentColor" stroke-linecap="round" stroke-linejoin="round" stroke-width="2"/>
  <path d="M13.3333 18.3333L13.3333 11.6667" stroke="currentColor" stroke-linecap="round" stroke-linejoin="round" stroke-width="2"/>
  <path d="M10 5L10 1.6667" stroke="currentColor" stroke-linecap="round" stroke-linejoin="round" stroke-width="2"/>
  <path d="M6.6667 5L6.6667 1.6667" stroke="currentColor" stroke-linecap="round" stroke-linejoin="round" stroke-width="2"/>
  <path d="M13.3333 5L13.3333 1.6667" stroke="currentColor" stroke-linecap="round" stroke-linejoin="round" stroke-width="2"/>
</svg>
