<svg xmlns="http://www.w3.org/2000/svg" width="20" height="20" viewBox="0 0 20 20" fill="none">
  <path d="M4.1667 16.6667V18.3333M15.8333 16.6667V18.3333" stroke="currentColor" stroke-linecap="round" stroke-linejoin="round" stroke-width="2"/>
  <path d="M14.6297 8.3333H5.3704C3.6244 8.3333 2.7515 8.3333 2.2091 8.8215 1.6667 9.3097 1.6667 10.0953 1.6667 11.6667V13.3333C1.6667 14.9047 1.6667 15.6903 2.2091 16.1785 2.7515 16.6667 3.6244 16.6667 5.3704 16.6667H14.6297C16.3756 16.6667 17.2486 16.6667 17.7909 16.1785 18.3333 15.6903 18.3333 14.9047 18.3333 13.3333V11.6667C18.3333 10.0953 18.3333 9.3097 17.7909 8.8215 17.2486 8.3333 16.3756 8.3333 14.6297 8.3333Z" stroke="currentColor" stroke-linecap="round" stroke-linejoin="round" stroke-width="2"/>
  <path d="M10 8.3334L10 16.6668" stroke="currentColor" stroke-linecap="round" stroke-linejoin="round" stroke-width="2"/>
  <path d="M13.3333 12.5001L14.1667 12.5001" stroke="currentColor" stroke-linecap="round" stroke-linejoin="round" stroke-width="2"/>
  <path d="M5.8333 12.5001L6.6667 12.5001" stroke="currentColor" stroke-linecap="round" stroke-linejoin="round" stroke-width="2"/>
  <path d="M6.6667 1.6667C5.0865 1.6667 3.7592 2.7331 3.3865 4.1751 3.2131 4.846 3.4648 5 4.1282 5H9.2051C9.8685 5 10.1203 4.846 9.9468 4.1751 9.5741 2.7331 8.2468 1.6667 6.6667 1.6667Z" stroke="currentColor" stroke-linejoin="round" stroke-width="2"/>
  <path d="M6.6667 5V8.3333" stroke="currentColor" stroke-linecap="round" stroke-linejoin="round" stroke-width="2"/>
  <path d="M9.1667 5V6.25" stroke="currentColor" stroke-linecap="round" stroke-linejoin="round" stroke-width="2"/>
</svg>
