<svg xmlns="http://www.w3.org/2000/svg" width="20" height="20" viewBox="0 0 20 20" fill="none">
  <path d="M10 7.5C6.3992 7.5 3.325 9.9473 2.1113 13.3936 1.6719 14.6413 1.4522 15.265 1.9571 15.9658 2.462 16.6667 3.2861 16.6667 4.9343 16.6667H15.0657C16.7139 16.6667 17.538 16.6667 18.0429 15.9658 18.5478 15.265 18.3281 14.6413 17.8888 13.3936 16.6751 9.9473 13.6008 7.5 10 7.5Z" stroke="currentColor" stroke-width="2"/>
  <path d="M17.7743 12.5C18.581 11.4399 18.5147 9.9749 17.5751 8.9815 17.1438 8.5254 16.8809 7.9455 16.827 7.3361 16.7032 5.9381 15.5217 4.8223 14.0398 4.7157L13.8698 4.7035C13.2139 4.6563 12.5857 4.4186 12.0754 4.0267 10.8715 3.1022 9.1285 3.1022 7.9246 4.0267 7.4143 4.4186 6.7861 4.6563 6.1302 4.7035L5.9602 4.7157C4.4783 4.8223 3.2969 5.9381 3.173 7.3361 3.1191 7.9455 2.8563 8.5254 2.4249 8.9815 1.4854 9.9749 1.419 11.4399 2.2257 12.5" stroke="currentColor" stroke-linecap="round" stroke-width="2"/>
  <path d="M5.1042 14.1667H5M5.2083 14.1667C5.2083 14.2818 5.1151 14.375 5 14.375 4.8849 14.375 4.7917 14.2818 4.7917 14.1667 4.7917 14.0516 4.8849 13.9583 5 13.9583 5.1151 13.9583 5.2083 14.0516 5.2083 14.1667Z" stroke="currentColor" stroke-linecap="round" stroke-width="2"/>
  <path d="M6.7708 11.6667H6.6667M6.875 11.6667C6.875 11.7818 6.7817 11.875 6.6667 11.875 6.5516 11.875 6.4583 11.7818 6.4583 11.6667 6.4583 11.5516 6.5516 11.4583 6.6667 11.4583 6.7817 11.4583 6.875 11.5516 6.875 11.6667Z" stroke="currentColor" stroke-linecap="round" stroke-width="2"/>
</svg>
