<svg xmlns="http://www.w3.org/2000/svg" width="20" height="20" viewBox="0 0 20 20" fill="none">
  <path d="M15.0483 7.1137L14.215 6.6024C13.3794 6.0897 12.9617 5.8333 12.5 5.8333 12.0383 5.8333 11.6206 6.0897 10.785 6.6024L9.9517 7.1137C9.1612 7.5987 8.766 7.8412 8.5497 8.232 8.3333 8.6228 8.3333 9.0941 8.3333 10.0368V14.9245C8.3333 16.5314 8.3333 17.3349 8.8215 17.8341 9.3097 18.3333 10.0953 18.3333 11.6667 18.3333H13.3333C14.9047 18.3333 15.6903 18.3333 16.1785 17.8341 16.6667 17.3349 16.6667 16.5314 16.6667 14.9245V10.0368C16.6667 9.0941 16.6667 8.6228 16.4503 8.232 16.234 7.8412 15.8387 7.5987 15.0483 7.1137Z" stroke="currentColor" stroke-linecap="round" stroke-linejoin="round" stroke-width="2"/>
  <path d="M11.6667 5.9234C11.1343 5.4126 10.8159 5.144 10.4145 5.0431 9.9478 4.9258 9.4576 5.0574 8.4771 5.3205L7.4992 5.5829C6.5717 5.8318 6.1079 5.9562 5.7857 6.2636 5.4635 6.5709 5.3387 7.008 5.089 7.8821L3.7944 12.4143C3.3688 13.9043 3.1559 14.6493 3.5172 15.2363 3.8278 15.741 5.0696 16.3616 6.25 16.6667" stroke="currentColor" stroke-linecap="round" stroke-linejoin="round" stroke-width="2"/>
  <path d="M12.0789 8.3333C12.78 7.8672 13.4023 7.1191 13.789 6.1888 14.5873 4.268 14.0787 2.2977 12.653 1.788 11.2272 1.2782 9.4243 2.422 8.626 4.3428 8.4925 4.6639 8.3956 4.9864 8.3333 5.3032" stroke="currentColor" stroke-linecap="round" stroke-width="2"/>
</svg>
