<svg xmlns="http://www.w3.org/2000/svg" width="20" height="20" viewBox="0 0 20 20" fill="none">
  <path d="M5.8333 14.5833H12.5V12.5H1.875C1.6814 12.5 1.5846 12.5 1.5041 12.516 1.1735 12.5818 0.9151 12.8402 0.8493 13.1707 0.8333 13.2513 0.8333 13.3481 0.8333 13.5417 0.8333 13.7352 0.8333 13.8321 0.8493 13.9126 0.9151 14.2432 1.1735 14.5016 1.5041 14.5673 1.5846 14.5833 1.6814 14.5833 1.875 14.5833H2.5" stroke="currentColor" stroke-linecap="round" stroke-linejoin="round" stroke-width="2"/>
  <path d="M14.1667 14.5833H12.5V7.9167C12.5 7.131 12.5 6.7382 12.7441 6.4941 12.9882 6.25 13.381 6.25 14.1667 6.25H14.7793C15.7012 6.25 16.1621 6.25 16.5442 6.4663 16.9262 6.6827 17.1634 7.0779 17.6377 7.8683L18.6917 9.625C18.9277 10.0183 19.0458 10.2151 19.1062 10.4334 19.1667 10.6517 19.1667 10.8812 19.1667 11.3399V12.9167C19.1667 13.7023 19.1667 14.0952 18.9226 14.3393 18.6785 14.5833 18.2857 14.5833 17.5 14.5833M14.1667 14.5833C14.1667 15.5038 14.9128 16.25 15.8333 16.25 16.7538 16.25 17.5 15.5038 17.5 14.5833M14.1667 14.5833C14.1667 13.6628 14.9128 12.9167 15.8333 12.9167 16.7538 12.9167 17.5 13.6628 17.5 14.5833M18.75 10.4167H16.6667C15.881 10.4167 15.4882 10.4167 15.2441 10.1726 15 9.9285 15 9.5357 15 8.75V8.3333" stroke="currentColor" stroke-linecap="round" stroke-linejoin="round" stroke-width="2"/>
  <path d="M5.8333 14.5833C5.8333 15.5038 5.0871 16.25 4.1667 16.25 3.2462 16.25 2.5 15.5038 2.5 14.5833 2.5 13.6628 3.2462 12.9167 4.1667 12.9167 5.0871 12.9167 5.8333 13.6628 5.8333 14.5833Z" stroke="currentColor" stroke-linecap="round" stroke-linejoin="round" stroke-width="2"/>
  <path d="M1.0027 5.4602C0.8933 5.963 0.8333 6.5105 0.8333 7.0833 0.8333 7.6562 0.8933 8.2037 1.0027 8.7065 1.1435 9.3546 1.214 9.6787 1.6718 10.0477 2.1297 10.4167 2.5899 10.4167 3.5103 10.4167H7.7397C8.6602 10.4167 9.1203 10.4167 9.5782 10.0477 10.036 9.6787 10.1065 9.3546 10.2473 8.7065 10.3567 8.2037 10.4167 7.6562 10.4167 7.0833 10.4167 6.5105 10.3567 5.963 10.2473 5.4602 10.1065 4.8121 10.036 4.488 9.5782 4.119 9.1203 3.75 8.6602 3.75 7.7397 3.75H3.5103C2.5899 3.75 2.1297 3.75 1.6718 4.119 1.214 4.488 1.1435 4.8121 1.0027 5.4602Z" stroke="currentColor" stroke-linecap="round" stroke-linejoin="round" stroke-width="2"/>
  <path d="M7.2917 3.75V10.4167M3.9583 10.4167V3.75" stroke="currentColor" stroke-linecap="round" stroke-linejoin="round" stroke-width="2"/>
</svg>
