<svg xmlns="http://www.w3.org/2000/svg" width="20" height="20" viewBox="0 0 20 20" fill="none">
  <path d="M13.8473 0.8333C14.0531 1.4747 14.1667 2.1784 14.1667 2.9167 14.1667 5.9082 12.3012 8.3333 10 8.3333 7.6988 8.3333 5.8333 5.9082 5.8333 2.9167 5.8333 2.1784 5.9469 1.4747 6.1527 0.8333" stroke="currentColor" stroke-width="2"/>
  <path d="M14.5835 14.1667C16.1943 14.1667 17.5 12.8596 17.5 11.2472 17.5 10.1844 16.842 9.5635 16.4101 8.6773 15.5818 6.9777 16.398 4.8742 16.9164 3.0976 17.0211 2.7389 16.8591 2.3604 16.5349 2.175L14.3791 0.9418C14.2403 0.8624 14.0817 0.8239 13.9223 0.8353 12.5499 0.9332 10.9673 1.2776 10 2.4885 9.0327 1.2776 7.4501 0.9332 6.0778 0.8353 5.9183 0.8239 5.7597 0.8624 5.6209 0.9418L3.4651 2.175C3.1409 2.3604 2.9789 2.7389 3.0836 3.0976 3.602 4.8742 4.4183 6.9777 3.5899 8.6773 3.158 9.5635 2.5 10.1844 2.5 11.2472 2.5 12.8596 3.8058 14.1667 5.4165 14.1667" stroke="currentColor" stroke-linecap="round" stroke-linejoin="round" stroke-width="2"/>
  <path d="M11.6667 13.5417C10.4363 13.0267 9.7175 12.947 8.3333 13.5417" stroke="currentColor" stroke-linecap="round" stroke-width="2"/>
  <path d="M4.1667 14.1667V18.3333" stroke="currentColor" stroke-linecap="round" stroke-width="2"/>
  <path d="M15.8333 14.1667V18.3333" stroke="currentColor" stroke-linecap="round" stroke-width="2"/>
  <path d="M14.1667 2.5C12.7285 2.8759 11.6667 4.1919 11.6667 5.7575 11.6667 6.3953 11.8429 6.9917 12.149 7.5M5.8333 2.5C7.2715 2.8759 8.3333 4.1919 8.3333 5.7575 8.3333 6.3953 8.1571 6.9917 7.851 7.5" stroke="currentColor" stroke-linecap="round" stroke-width="2"/>
</svg>
