<svg xmlns="http://www.w3.org/2000/svg" width="20" height="20" viewBox="0 0 20 20" fill="none">
  <path d="M10.8333 5C10.8333 3.1591 9.3409 1.6667 7.5 1.6667 5.6591 1.6667 4.1667 3.1591 4.1667 5" stroke="currentColor" stroke-linecap="round" stroke-linejoin="round" stroke-width="2"/>
  <path d="M8.5985 7.4341V5.303C8.5985 4.6754 8.0897 4.1667 7.4621 4.1667 6.8345 4.1667 6.3258 4.6754 6.3258 5.303V11.8797L5.0983 10.6677C4.5597 10.136 3.6725 10.1845 3.1967 10.7718 2.8326 11.2211 2.8226 11.8567 3.1723 12.317L5.448 15.3127C5.9645 15.9927 6.2227 16.3326 6.5335 16.5968 7.0076 16.9999 7.5757 17.2803 8.1868 17.413 8.5873 17.4999 9.0178 17.4999 9.8785 17.4999 11.5198 17.4999 12.3405 17.4999 12.9938 17.2523 13.9929 16.8737 14.7823 16.0942 15.1658 15.1078 15.4167 14.4628 15.4167 13.6526 15.4167 12.0321V10.1886C15.4167 9.4597 14.8812 8.8375 14.1506 8.7177L13.8912 8.6751C13.5 8.6109 13.1439 8.9078 13.1439 9.2982M8.5985 7.4341L9.0362 7.2188C9.2465 7.1152 9.4818 7.0484 9.7106 7.1024 10.3763 7.2594 10.8713 7.8491 10.8713 8.5526M8.5985 7.4341V9.2982M10.8713 8.5526V9.2982M10.8713 8.5526C10.8713 8.1408 11.2104 7.8069 11.6288 7.8069 12.4656 7.8069 13.1439 8.4746 13.1439 9.2982M13.1439 9.2982V10.0438" stroke="currentColor" stroke-linecap="round" stroke-linejoin="round" stroke-width="2"/>
</svg>
