<svg xmlns="http://www.w3.org/2000/svg" width="20" height="20" viewBox="0 0 20 20" fill="none">
  <path d="M5.5853 10.9681L7.2589 12.4121V5.1316C7.2589 4.3686 7.8734 3.75 8.6315 3.75 9.3895 3.75 10.004 4.3685 10.004 5.1316V8.8595L12.3475 9.2365C13.8601 9.4649 14.6164 9.5791 15.1492 9.9003 16.0292 10.431 16.6667 11.2279 16.6667 12.3913 16.6667 13.2016 16.4677 13.7452 15.984 15.2058 15.6771 16.1326 15.5237 16.596 15.2734 16.9628 14.8614 17.5668 14.2536 18.0078 13.5541 18.2102 13.1293 18.3332 12.644 18.3332 11.6734 18.3332H10.8507C9.5604 18.3332 8.9153 18.3332 8.3409 18.0948 8.2379 18.0521 8.1372 18.0038 8.0393 17.9503 7.4934 17.6519 7.0865 17.1479 6.2729 16.1399L3.6388 12.8766C3.234 12.3751 3.2313 11.6574 3.6323 11.1529 4.1142 10.5464 4.9995 10.4627 5.5853 10.9681Z" stroke="currentColor" stroke-linecap="round" stroke-linejoin="round" stroke-width="2"/>
  <path d="M11.9303 5C11.9303 3.1591 10.4379 1.6667 8.597 1.6667 6.7561 1.6667 5.2637 3.1591 5.2637 5" stroke="currentColor" stroke-linecap="round" stroke-linejoin="round" stroke-width="2"/>
</svg>
