<svg xmlns="http://www.w3.org/2000/svg" width="20" height="20" viewBox="0 0 20 20" fill="none">
  <path d="M5.8229 5.0231C5.768 4.256 6.2405 2.7384 7.5371 2.1038 8.0717 1.779 9.5393 1.2762 10.9428 2.1722 12.3261 3.0553 12.4194 4.3573 12.5065 5.0145" stroke="currentColor" stroke-linecap="round" stroke-linejoin="round" stroke-width="2"/>
  <path d="M14.3042 18.3349C14.2664 16.9716 14.3524 16.8365 14.4521 16.5332 14.5518 16.2299 15.249 15.1362 15.4957 14.3548 16.2937 11.8265 15.5499 11.2888 14.5582 10.5717 13.4584 9.7767 11.4796 9.3818 10.4508 9.469V5.4366C10.4508 4.7504 9.793 4.1894 9.0907 4.1894 8.3884 4.1894 7.7428 4.7504 7.7428 5.4366V12.3632L6.31 11.1208C5.8437 10.6266 5.0943 10.5765 4.5829 11.026 4.0982 11.452 4.0275 12.1694 4.42 12.6779L5.3622 13.8986M7.7035 18.3349V17.6239C7.7348 16.7465 7.0815 16.174 6.2296 15.0294 6.1682 14.9469 6.1085 14.8672 6.0503 14.7901M6.0503 14.7901C5.7922 14.4477 5.5651 14.156 5.3622 13.8986M6.0503 14.7901L6.9029 15.8947M6.0503 14.7901L5.3622 13.8986M5.3622 13.8986C4.9456 13.37 4.6312 12.9859 4.3601 12.6043" stroke="currentColor" stroke-linecap="round" stroke-linejoin="round" stroke-width="2"/>
</svg>
