<svg xmlns="http://www.w3.org/2000/svg" width="20" height="20" viewBox="0 0 20 20" fill="none">
  <path d="M6.4347 12.4123V9.6491M6.4347 9.6491V5.1316C6.4347 4.3686 7.0441 3.75 7.7958 3.75 8.5475 3.75 9.1569 4.3685 9.1569 5.1316V8.8597L11.5501 9.2367C13.0502 9.4651 13.8002 9.5793 14.3285 9.9005 15.2012 10.4312 15.8333 11.2281 15.8333 12.3914 15.8333 13.2018 15.636 13.7454 15.1563 15.206 14.852 16.1328 14.6998 16.5962 14.4517 16.963 14.0431 17.567 13.4404 18.0079 12.7468 18.2103 12.3254 18.3333 11.8442 18.3333 10.8818 18.3333H9.789C8.4011 18.3333 7.7071 18.3333 7.1112 18.0689 6.842 17.9494 6.5908 17.7918 6.3651 17.6008 5.8656 17.1782 5.5553 16.5481 4.9346 15.288 4.4312 14.2662 4.1795 13.7553 4.1673 13.2256 4.1618 12.9867 4.1919 12.7483 4.2567 12.5186 4.4002 12.0092 4.7708 11.5793 5.512 10.7195L6.4347 9.6491Z" stroke="currentColor" stroke-linecap="round" stroke-linejoin="round" stroke-width="2"/>
  <path d="M11.097 5C11.097 3.1591 9.6046 1.6667 7.7637 1.6667 5.9227 1.6667 4.4303 3.1591 4.4303 5" stroke="currentColor" stroke-linecap="round" stroke-linejoin="round" stroke-width="2"/>
</svg>
