<svg xmlns="http://www.w3.org/2000/svg" width="20" height="20" viewBox="0 0 20 20" fill="none">
  <path d="M6.4838 11.6307V7.911M6.4838 7.911V3.315C6.4838 2.6321 7.053 2.0816 7.7361 2.0816 8.4192 2.0816 8.9574 2.6321 8.9574 3.315V6.645M6.4838 7.911C5.3886 8.9033 4.21 10.157 4.0513 10.4781 3.3128 11.6021 3.3902 12.1463 4.2132 13.5216 4.9122 14.6898 5.8523 15.9861 5.9071 16.0482 6.4657 16.6812 6.3546 16.6812 7.1642 17.2756 7.8871 17.7772 9.3865 18.1268 12.9018 17.7772 15.7655 17.3349 16.4516 14.8355 16.4367 13.641V10.6913C16.6151 8.2396 15.5903 8.1289 13.7293 7.8876M8.9574 6.645V8.748M8.9574 6.645C9.4218 5.8878 11.1085 6.1938 11.4373 7.6237M11.4669 8.7447V7.911C11.4669 7.8453 11.4637 7.7793 11.4544 7.7143M11.4373 7.6237C11.4386 7.6297 11.44 7.6358 11.4413 7.6418 11.4466 7.6658 11.4509 7.69 11.4544 7.7143M11.4373 7.6237C11.4407 7.6529 11.4463 7.6831 11.4544 7.7143M11.4373 7.6237C11.3205 6.6271 13.8463 6.87 13.9491 8.6228V9.5754" stroke="currentColor" stroke-linecap="round" stroke-width="2"/>
</svg>
