<svg xmlns="http://www.w3.org/2000/svg" width="20" height="20" viewBox="0 0 20 20" fill="none">
  <path d="M6.2579 11.9605V5.0803C6.2579 4.3956 6.7657 3.7549 7.4517 3.7549 8.1376 3.7549 8.7658 4.2988 8.7658 4.9835V8.551M8.7658 8.551L8.7587 9.5308M8.7658 8.551C9.2343 6.7867 11.3927 7.4636 11.2605 8.8473 11.2581 8.8718 11.2605 9.4625 11.2605 9.4625M11.2605 9.4625V10.413M11.2605 9.4625C11.4966 7.8703 14.1125 7.8267 13.7789 10.2544M13.7789 10.2544L13.7599 10.8279M13.7789 10.2544C14.1699 8.5793 16.3081 8.9399 16.2513 10.4838V13.5566C16.2491 14.8704 15.9924 15.4986 15.314 16.2892 15.1807 16.4444 15.0511 16.605 14.9539 16.785 14.5971 17.4461 14.7608 17.6274 14.7014 18.3272M6.2579 8.6777C5.1581 9.6725 4.4178 10.5808 4.196 10.8519 3.4544 11.9787 3.643 12.7167 4.6969 14.2185 5.4812 15.3361 6.2017 16.1395 6.2568 16.2018 6.8177 16.8363 6.7681 17.2548 6.7681 18.3338" stroke="currentColor" stroke-linecap="round" stroke-linejoin="round" stroke-width="2"/>
  <path d="M10.8619 5C10.8619 3.1591 9.366 1.6667 7.5208 1.6667 5.6755 1.6667 4.1797 3.1591 4.1797 5" stroke="currentColor" stroke-linecap="round" stroke-linejoin="round" stroke-width="2"/>
</svg>
