<svg xmlns="http://www.w3.org/2000/svg" width="20" height="20" viewBox="0 0 20 20" fill="none">
  <path d="M11.6534 5.0103C11.6534 3.1646 10.1709 1.6683 8.3422 1.6683 6.5134 1.6683 5.0309 3.1646 5.0309 5.0103" stroke="currentColor" stroke-linecap="round" stroke-linejoin="round" stroke-width="2"/>
  <path d="M7.8136 18.3271L7.7266 17.4139C7.3203 15.7328 6.765 15.5112 5.8611 14.3063 5.453 13.7623 4.6002 12.9915 3.9031 11.9503 3.4385 11.2565 4.0584 9.6794 5.4716 10.1602 5.7069 10.2402 5.9046 10.4006 6.08 10.5767L7.452 11.9548C7.4408 10.0068 7.4658 6.0411 7.4355 4.8242 7.4052 3.6073 9.517 3.2157 9.6414 4.8795V8.6223M9.6414 8.6223V9.3437M9.6414 8.6223C10.332 7.7073 11.6387 7.6751 11.8288 9.2069M11.8288 9.2069C11.8598 9.4563 11.8622 9.7477 11.8288 10.084M11.8288 9.2069C12.1778 8.1367 13.7105 8.5617 14.0155 9.8073M14.0155 9.8073C14.0878 10.1025 14.0155 10.4442 14.0446 10.8387M14.0155 9.8073C14.2136 9.2069 16.4037 9.1626 16.1954 11.4817L16.25 13.5849C16.1663 14.8408 15.9819 15.3669 15.5307 15.9739 15.2968 16.2886 14.9901 16.5657 14.8729 16.9398 14.7748 17.2533 14.7129 17.7123 14.7806 18.3334" stroke="currentColor" stroke-linecap="round" stroke-linejoin="round" stroke-width="2"/>
</svg>
