<svg xmlns="http://www.w3.org/2000/svg" width="20" height="20" viewBox="0 0 20 20" fill="none">
  <path d="M14.1667 10C14.1667 12.3012 12.3012 14.1667 10 14.1667 7.6988 14.1667 5.8333 12.3012 5.8333 10 5.8333 7.6988 7.6988 5.8333 10 5.8333" stroke="currentColor" stroke-linecap="round" stroke-width="2"/>
  <path d="M11.6667 1.8334C11.1282 1.7241 10.5708 1.6667 10 1.6667 5.3976 1.6667 1.6667 5.3976 1.6667 10 1.6667 14.6023 5.3976 18.3333 10 18.3333 14.6023 18.3333 18.3333 14.6023 18.3333 10 18.3333 9.4292 18.2759 8.8718 18.1667 8.3333" stroke="currentColor" stroke-linecap="round" stroke-width="2"/>
  <path d="M10.0253 9.9688L13.8193 6.1747M16.4503 3.6205L15.9893 1.9646C15.9044 1.6918 15.5762 1.583 15.3549 1.7639 14.1582 2.7418 12.8545 4.0591 13.9192 6.1368 16.0643 7.1371 17.2888 5.7882 18.2278 4.6544 18.4146 4.4288 18.3019 4.0897 18.0206 4.0084L16.4503 3.6205Z" stroke="currentColor" stroke-linecap="round" stroke-linejoin="round" stroke-width="2"/>
</svg>
