<svg xmlns="http://www.w3.org/2000/svg" width="20" height="20" viewBox="0 0 20 20" fill="none">
  <path d="M10 1.6667C14.6023 1.6667 18.3333 5.3976 18.3333 10 18.3333 14.6023 14.6023 18.3333 10 18.3333 5.3976 18.3333 1.6667 14.6023 1.6667 10 1.6667 5.3976 5.3976 1.6667 10 1.6667Z" stroke="currentColor" stroke-linejoin="round" stroke-width="2"/>
  <path d="M10 5C12.7614 5 15 7.2386 15 10 15 12.7614 12.7614 15 10 15 7.2386 15 5 12.7614 5 10 5 7.2386 7.2386 5 10 5Z" stroke="currentColor" stroke-linejoin="round" stroke-width="2"/>
  <path d="M10 8.3333C10.9205 8.3333 11.6667 9.0795 11.6667 10 11.6667 10.9205 10.9205 11.6667 10 11.6667 9.0795 11.6667 8.3333 10.9205 8.3333 10 8.3333 9.0795 9.0795 8.3333 10 8.3333Z" stroke="currentColor" stroke-linejoin="round" stroke-width="2"/>
</svg>
