<svg xmlns="http://www.w3.org/2000/svg" width="20" height="20" viewBox="0 0 20 20" fill="none">
  <path d="M13.0889 3.1071C13.0889 3.9033 12.444 4.5488 11.6484 4.5488 10.8528 4.5488 10.2079 3.9033 10.2079 3.1071 10.2079 2.3108 10.8528 1.6653 11.6484 1.6653 12.444 1.6653 13.0889 2.3108 13.0889 3.1071Z" stroke="currentColor" stroke-width="2"/>
  <path d="M9.3989 4.6308C9.3989 5.427 8.754 6.0725 7.9584 6.0725 7.1628 6.0725 6.5179 5.427 6.5179 4.6308 6.5179 3.8346 7.1628 3.1891 7.9584 3.1891 8.754 3.1891 9.3989 3.8346 9.3989 4.6308Z" stroke="currentColor" stroke-width="2"/>
  <path d="M7.8729 8.3405C7.8729 9.1368 7.228 9.7822 6.4324 9.7822 5.6368 9.7822 4.9919 9.1368 4.9919 8.3405 4.9919 7.5443 5.6368 6.8988 6.4324 6.8988 7.228 6.8988 7.8729 7.5443 7.8729 8.3405Z" stroke="currentColor" stroke-width="2"/>
  <path d="M9.3838 12.0378C9.3838 12.8341 8.7388 13.4795 7.9433 13.4795 7.1477 13.4795 6.5028 12.8341 6.5028 12.0378 6.5028 11.2416 7.1477 10.5961 7.9433 10.5961 8.7388 10.5961 9.3838 11.2416 9.3838 12.0378Z" stroke="currentColor" stroke-width="2"/>
  <path d="M13.0922 13.5772C13.0922 14.3733 12.4473 15.0188 11.6517 15.0188 10.8561 15.0188 10.2112 14.3733 10.2112 13.5772 10.2112 12.7809 10.8561 12.1354 11.6517 12.1354 12.4473 12.1354 13.0922 12.7809 13.0922 13.5772Z" stroke="currentColor" stroke-width="2"/>
  <path d="M16.8009 12.0378C16.8009 12.8341 16.1559 13.4795 15.3603 13.4795 14.5648 13.4795 13.9198 12.8341 13.9198 12.0378 13.9198 11.2416 14.5648 10.5961 15.3603 10.5961 16.1559 10.5961 16.8009 11.2416 16.8009 12.0378Z" stroke="currentColor" stroke-width="2"/>
  <path d="M18.332 8.3405C18.332 9.1368 17.687 9.7822 16.8914 9.7822 16.0959 9.7822 15.4509 9.1368 15.4509 8.3405 15.4509 7.5443 16.0959 6.8988 16.8914 6.8988 17.687 6.8988 18.332 7.5443 18.332 8.3405Z" stroke="currentColor" stroke-width="2"/>
  <path d="M16.8009 4.6429C16.8009 5.4391 16.1559 6.0846 15.3603 6.0846 14.5648 6.0846 13.9198 5.4391 13.9198 4.6429 13.9198 3.8466 14.5648 3.2012 15.3603 3.2012 16.1559 3.2012 16.8009 3.8466 16.8009 4.6429Z" stroke="currentColor" stroke-width="2"/>
  <path d="M6.4655 12.3728L2.4057 14.4178C1.8003 14.7462 1.4385 15.1274 1.8336 15.8325 2.0004 16.1407 2.3518 16.6588 2.8582 17.1687M7.6224 13.5283L5.5824 17.5759C5.1245 18.4848 4.6859 18.379 4.3251 18.2497 3.7501 17.9651 3.2563 17.5694 2.8582 17.1687M2.8582 17.1687L4.2544 15.7442" stroke="currentColor" stroke-linecap="round" stroke-linejoin="round" stroke-width="2"/>
</svg>
