<svg xmlns="http://www.w3.org/2000/svg" width="20" height="20" viewBox="0 0 20 20" fill="none">
  <path d="M16.0417 11.6667V6.6667C16.0417 4.3096 16.0417 3.1311 15.3094 2.3989 14.5772 1.6667 13.3987 1.6667 11.0417 1.6667H7.7083C5.3513 1.6667 4.1728 1.6667 3.4406 2.3989 2.7083 3.1311 2.7083 4.3096 2.7083 6.6667V13.3333C2.7083 15.6903 2.7083 16.8688 3.4406 17.6011 4.1728 18.3333 5.3513 18.3333 7.7083 18.3333H11.0417" stroke="currentColor" stroke-linecap="round" stroke-linejoin="round" stroke-width="2"/>
  <path d="M12.2917 1.6667H6.4583C6.4583 2.8452 6.4583 3.4344 6.8244 3.8006 7.1906 4.1667 7.7798 4.1667 8.9583 4.1667H9.7917C10.9702 4.1667 11.5594 4.1667 11.9256 3.8006 12.2917 3.4344 12.2917 2.8452 12.2917 1.6667Z" stroke="currentColor" stroke-linecap="round" stroke-linejoin="round" stroke-width="2"/>
  <path d="M6.0417 12.5H9.375M6.0417 9.1667H12.7083" stroke="currentColor" stroke-linecap="round" stroke-linejoin="round" stroke-width="2"/>
  <path d="M17.7083 14.1667L15.625 16.25M15.625 16.25L13.5417 18.3333M15.625 16.25L17.7083 18.3333M15.625 16.25L13.5417 14.1667" stroke="currentColor" stroke-linecap="round" stroke-linejoin="round" stroke-width="2"/>
</svg>
