<svg xmlns="http://www.w3.org/2000/svg" width="20" height="20" viewBox="0 0 20 20" fill="none">
  <path d="M16.6667 13.3333V6.6667C16.6667 4.3096 16.6667 3.1311 15.9344 2.3989 15.2022 1.6667 14.0237 1.6667 11.6667 1.6667H8.3333C5.9763 1.6667 4.7978 1.6667 4.0656 2.3989 3.3333 3.1311 3.3333 4.3096 3.3333 6.6667V13.3333C3.3333 15.6903 3.3333 16.8688 4.0656 17.6011 4.7978 18.3333 5.9763 18.3333 8.3333 18.3333H11.6667C14.0237 18.3333 15.2022 18.3333 15.9344 17.6011 16.6667 16.8688 16.6667 15.6903 16.6667 13.3333Z" stroke="currentColor" stroke-linecap="round" stroke-linejoin="round" stroke-width="2"/>
  <path d="M12.9167 1.6667H7.0833C7.0833 2.8452 7.0833 3.4344 7.4494 3.8006 7.8156 4.1667 8.4048 4.1667 9.5833 4.1667H10.4167C11.5952 4.1667 12.1844 4.1667 12.5506 3.8006 12.9167 3.4344 12.9167 2.8452 12.9167 1.6667Z" stroke="currentColor" stroke-linecap="round" stroke-linejoin="round" stroke-width="2"/>
  <path d="M6.6667 12.5H10M6.6667 9.1667H13.3333" stroke="currentColor" stroke-linecap="round" stroke-linejoin="round" stroke-width="2"/>
</svg>
