<svg xmlns="http://www.w3.org/2000/svg" width="20" height="20" viewBox="0 0 20 20" fill="none">
  <path d="M11.2483 1.6667H7.0817C6.3914 1.6667 5.8317 2.2263 5.8317 2.9167 5.8317 3.607 6.3914 4.1667 7.0817 4.1667H11.2483C11.9388 4.1667 12.4983 3.607 12.4983 2.9167 12.4983 2.2263 11.9388 1.6667 11.2483 1.6667Z" stroke="currentColor" stroke-linecap="round" stroke-linejoin="round" stroke-width="2"/>
  <path d="M5.8317 12.5H8.6888M5.8317 9.1667H12.4983" stroke="currentColor" stroke-linecap="round" stroke-linejoin="round" stroke-width="2"/>
  <path d="M15.8318 11.25V7.9022C15.8318 5.5452 15.8318 4.3667 15.0995 3.6345 14.5651 3.1001 13.7929 2.9557 12.4984 2.9167M9.9983 18.3329L7.4984 18.3329C5.1414 18.3329 3.9628 18.3329 3.2306 17.6007 2.4984 16.8684 2.4984 15.6899 2.4984 13.3329L2.4984 7.9022C2.4984 5.5452 2.4984 4.3667 3.2306 3.6345 3.765 3.1001 4.5371 2.9557 5.8316 2.9167" stroke="currentColor" stroke-linecap="round" stroke-linejoin="round" stroke-width="2"/>
  <path d="M11.665 16.6667C11.665 16.6667 12.4983 16.6667 13.3317 18.3333 13.3317 18.3333 15.1454 14.1667 17.4983 13.3333" stroke="currentColor" stroke-linecap="round" stroke-linejoin="round" stroke-width="2"/>
</svg>
