<svg xmlns="http://www.w3.org/2000/svg" width="20" height="20" viewBox="0 0 20 20" fill="none">
  <path d="M15.8333 11.25V6.6667C15.8333 4.3096 15.8333 3.1311 15.1011 2.3989 14.3688 1.6667 13.1903 1.6667 10.8333 1.6667H7.5C5.143 1.6667 3.9645 1.6667 3.2322 2.3989 2.5 3.1311 2.5 4.3096 2.5 6.6667V13.3333C2.5 15.6903 2.5 16.8688 3.2322 17.6011 3.9645 18.3333 5.143 18.3333 7.5 18.3333H10" stroke="currentColor" stroke-linecap="round" stroke-linejoin="round" stroke-width="2"/>
  <path d="M12.0833 1.6667H6.25C6.25 2.8452 6.25 3.4344 6.6161 3.8006 6.9822 4.1667 7.5715 4.1667 8.75 4.1667H9.5833C10.7618 4.1667 11.3511 4.1667 11.7173 3.8006 12.0833 3.4344 12.0833 2.8452 12.0833 1.6667Z" stroke="currentColor" stroke-linecap="round" stroke-linejoin="round" stroke-width="2"/>
  <path d="M5.8333 12.5H9.1667M5.8333 9.1667H12.5" stroke="currentColor" stroke-linecap="round" stroke-linejoin="round" stroke-width="2"/>
  <path d="M11.6667 16.6667C11.6667 16.6667 12.5 16.6667 13.3333 18.3333 13.3333 18.3333 15.1471 14.1667 17.5 13.3333" stroke="currentColor" stroke-linecap="round" stroke-linejoin="round" stroke-width="2"/>
</svg>
