<svg xmlns="http://www.w3.org/2000/svg" width="20" height="20" viewBox="0 0 20 20" fill="none">
  <path d="M11.25 1.6667H7.0833C6.393 1.6667 5.8333 2.2263 5.8333 2.9167 5.8333 3.607 6.393 4.1667 7.0833 4.1667H11.25C11.9403 4.1667 12.5 3.607 12.5 2.9167 12.5 2.2263 11.9403 1.6667 11.25 1.6667Z" stroke="currentColor" stroke-linecap="round" stroke-linejoin="round" stroke-width="2"/>
  <path d="M5.8333 12.5H8.6905M5.8333 9.1667H12.5" stroke="currentColor" stroke-linecap="round" stroke-linejoin="round" stroke-width="2"/>
  <path d="M15.8333 9.9996L15.8333 7.9022C15.8333 5.5452 15.8333 4.3667 15.1011 3.6345 14.5667 3.1001 13.7946 2.9557 12.5 2.9167M9.1667 18.3329L7.5 18.3329C5.143 18.3329 3.9645 18.3329 3.2322 17.6007 2.5 16.8684 2.5 15.6899 2.5 13.3329L2.5 7.9022C2.5 5.5452 2.5 4.3667 3.2322 3.6345 3.7666 3.1001 4.5388 2.9557 5.8333 2.9167" stroke="currentColor" stroke-linecap="round" stroke-linejoin="round" stroke-width="2"/>
  <path d="M13.1139 18.0439L11.6667 18.3333 11.9561 16.8861C12.0149 16.5922 12.1594 16.3222 12.3713 16.1103L15.7593 12.7223C16.0557 12.4259 16.5364 12.4259 16.8329 12.7223L17.2777 13.1671C17.5741 13.4636 17.5741 13.9443 17.2777 14.2408L13.8898 17.6287C13.6778 17.8406 13.4078 17.9851 13.1139 18.0439Z" stroke="currentColor" stroke-linecap="round" stroke-linejoin="round" stroke-width="2"/>
</svg>
