<svg xmlns="http://www.w3.org/2000/svg" width="20" height="20" viewBox="0 0 20 20" fill="none">
  <path d="M4.1667 7.5V15.8333M7.5 7.5V15.8333" stroke="currentColor" stroke-linecap="round" stroke-linejoin="round" stroke-width="2"/>
  <path d="M12.5 7.5V10M15.8333 7.5V10" stroke="currentColor" stroke-linecap="round" stroke-linejoin="round" stroke-width="2"/>
  <path d="M17.3958 18.125H17.2917M12.8125 13.5417H12.7083M17.5 13.3333L12.5 18.3333M17.5 18.125C17.5 18.2401 17.4068 18.3333 17.2917 18.3333 17.1766 18.3333 17.0833 18.2401 17.0833 18.125 17.0833 18.0099 17.1766 17.9167 17.2917 17.9167 17.4068 17.9167 17.5 18.0099 17.5 18.125ZM12.9167 13.5417C12.9167 13.6568 12.8234 13.75 12.7083 13.75 12.5933 13.75 12.5 13.6568 12.5 13.5417 12.5 13.4266 12.5933 13.3333 12.7083 13.3333 12.8234 13.3333 12.9167 13.4266 12.9167 13.5417Z" stroke="currentColor" stroke-linecap="round" stroke-linejoin="round" stroke-width="2"/>
  <path d="M17.7932 7.5H2.2068C1.9085 7.5 1.6667 7.2554 1.6667 6.9537 1.6667 6.7688 1.7592 6.5965 1.9125 6.4957L7.2751 2.9707C8.5976 2.1014 9.2589 1.6667 10 1.6667 10.7411 1.6667 11.4024 2.1014 12.7249 2.9707L18.0876 6.4957C18.2408 6.5965 18.3333 6.7688 18.3333 6.9537 18.3333 7.2554 18.0915 7.5 17.7932 7.5Z" stroke="currentColor" stroke-linecap="round" stroke-linejoin="round" stroke-width="2"/>
  <path d="M9.1667 18.3333H3.0401C2.2072 18.3333 1.7908 18.3333 1.6871 18.0761 1.5835 17.8189 1.878 17.5162 2.4669 16.9108L3.0401 16.3215C3.2744 16.0807 3.3916 15.9602 3.5405 15.8968 3.6895 15.8333 3.8552 15.8333 4.1865 15.8333H9.1667" stroke="currentColor" stroke-linecap="round" stroke-linejoin="round" stroke-width="2"/>
  <path d="M10.1042 4.7917H10M10.2083 4.7917C10.2083 4.9067 10.1151 5 10 5 9.8849 5 9.7917 4.9067 9.7917 4.7917 9.7917 4.6766 9.8849 4.5833 10 4.5833 10.1151 4.5833 10.2083 4.6766 10.2083 4.7917Z" stroke="currentColor" stroke-linecap="round" stroke-linejoin="round" stroke-width="2"/>
</svg>
