<svg xmlns="http://www.w3.org/2000/svg" width="20" height="20" viewBox="0 0 20 20" fill="none">
  <path d="M18.3333 14.1018V16.25C18.3333 16.6383 18.3333 16.8324 18.2699 16.9856 18.1853 17.1898 18.0231 17.352 17.8189 17.4366 17.6657 17.5 17.4716 17.5 17.0833 17.5 16.6951 17.5 16.5009 17.5 16.3478 17.4366 16.1436 17.352 15.9813 17.1898 15.8968 16.9856 15.8333 16.8324 15.8333 16.6383 15.8333 16.25 15.8333 15.8617 15.8333 15.6676 15.7699 15.5144 15.6853 15.3102 15.5231 15.148 15.3189 15.0634 15.1657 15 14.9716 15 14.5833 15H5.4167C5.0284 15 4.8342 15 4.6811 15.0634 4.4769 15.148 4.3147 15.3102 4.2301 15.5144 4.1667 15.6676 4.1667 15.8617 4.1667 16.25 4.1667 16.6383 4.1667 16.8324 4.1032 16.9856 4.0187 17.1898 3.8564 17.352 3.6522 17.4366 3.4991 17.5 3.3049 17.5 2.9167 17.5 2.5284 17.5 2.3342 17.5 2.1811 17.4366 1.9769 17.352 1.8147 17.1898 1.7301 16.9856 1.6667 16.8324 1.6667 16.6383 1.6667 16.25V14.1018C1.6667 13.1 1.6667 12.599 1.8097 12.1267 1.9527 11.6542 2.2306 11.2374 2.7863 10.4038L3.3333 9.5833 4.1346 7.6603C4.7561 6.1688 5.0668 5.4231 5.6966 5.0032 6.3264 4.5833 7.1343 4.5833 8.75 4.5833H11.25C12.8658 4.5833 13.6736 4.5833 14.3034 5.0032 14.9332 5.4231 15.2439 6.1688 15.8654 7.6603L16.6667 9.5833 17.2137 10.4038C17.7694 11.2374 18.0473 11.6542 18.1903 12.1267 18.3333 12.599 18.3333 13.1 18.3333 14.1018Z" stroke="currentColor" stroke-linecap="round" stroke-linejoin="round" stroke-width="2"/>
  <path d="M1.6667 8.3333L3.3333 9.5833 5 10H15L16.6667 9.5833 18.3333 8.3333" stroke="currentColor" stroke-linecap="round" stroke-linejoin="round" stroke-width="2"/>
  <path d="M12.5 4.5833V4.1667C12.5 3.381 12.5 2.9882 12.2559 2.7441 12.0118 2.5 11.619 2.5 10.8333 2.5H9.1667C8.381 2.5 7.9882 2.5 7.7441 2.7441 7.5 2.9882 7.5 3.381 7.5 4.1667V4.5833" stroke="currentColor" stroke-linecap="round" stroke-linejoin="round" stroke-width="2"/>
  <path d="M5.1042 12.5H5M5.2083 12.5C5.2083 12.6151 5.1151 12.7083 5 12.7083 4.8849 12.7083 4.7917 12.6151 4.7917 12.5 4.7917 12.3849 4.8849 12.2917 5 12.2917 5.1151 12.2917 5.2083 12.3849 5.2083 12.5Z" stroke="currentColor" stroke-linecap="round" stroke-linejoin="round" stroke-width="2"/>
  <path d="M15.1042 12.5H15M15.2083 12.5C15.2083 12.6151 15.1151 12.7083 15 12.7083 14.8849 12.7083 14.7917 12.6151 14.7917 12.5 14.7917 12.3849 14.8849 12.2917 15 12.2917 15.1151 12.2917 15.2083 12.3849 15.2083 12.5Z" stroke="currentColor" stroke-linecap="round" stroke-linejoin="round" stroke-width="2"/>
</svg>
