<svg xmlns="http://www.w3.org/2000/svg" width="20" height="20" viewBox="0 0 20 20" fill="none">
  <path d="M15.2088 8.75H16.3669C17.9098 8.75 18.3684 8.9712 18.3313 10.0698 18.2698 11.8895 17.4492 14.0039 14.1667 14.5833" stroke="currentColor" stroke-linecap="round" stroke-width="2"/>
  <path d="M4.9552 17.1788C2.1432 15.0167 1.7289 11.9501 1.6679 8.7501 1.6415 7.3678 2.0427 7.0833 3.8827 7.0833H12.784C14.6239 7.0833 15.0252 7.3678 14.9988 8.7501 14.9378 11.9501 14.5234 15.0167 11.7114 17.1788 10.9112 17.794 10.2359 17.9167 9.0995 17.9167H7.5672C6.4307 17.9167 5.7555 17.794 4.9552 17.1788Z" stroke="currentColor" stroke-linecap="round" stroke-width="2"/>
  <path d="M8.3333 7.0833V11.25M7.0869 13.5805L7.3301 12.0376C7.4014 11.5857 7.8285 11.25 8.3324 11.25 8.8362 11.25 9.2633 11.5857 9.3346 12.0376L9.5778 13.5805C9.709 14.412 6.9718 14.3105 7.0869 13.5805Z" stroke="currentColor" stroke-linecap="round" stroke-linejoin="round" stroke-width="2"/>
  <path d="M9.4241 2.0833C8.9685 2.3655 8.3343 3.3333 8.3343 4.5833M6.2831 3.3333C6.2831 3.3333 5.8333 3.75 5.8333 4.5833M11.6677 3.3333C11.4399 3.4744 11.25 4.1667 11.25 4.5833" stroke="currentColor" stroke-linecap="round" stroke-linejoin="round" stroke-width="2"/>
</svg>
