<svg xmlns="http://www.w3.org/2000/svg" width="20" height="20" viewBox="0 0 20 20" fill="none">
  <path d="M1.6667 1.6667H13.3333C14.9047 1.6667 15.6903 1.6667 16.1785 2.1548 16.6667 2.643 16.6667 3.4286 16.6667 5V10C16.6667 11.5713 16.6667 12.357 16.1785 12.8452 15.6903 13.3333 14.9047 13.3333 13.3333 13.3333H7.5" stroke="currentColor" stroke-linecap="round" stroke-linejoin="round" stroke-width="2"/>
  <path d="M8.3333 5.4167H13.3333" stroke="currentColor" stroke-linecap="round" stroke-linejoin="round" stroke-width="2"/>
  <path d="M1.6667 14.1667V10.8333C1.6667 10.0477 1.6667 9.6548 1.9107 9.4108 2.1548 9.1667 2.5477 9.1667 3.3333 9.1667H5M1.6667 14.1667H5M1.6667 14.1667V18.3333M5 14.1667V9.1667M5 14.1667V18.3333M5 9.1667H7.5 10" stroke="currentColor" stroke-linecap="round" stroke-linejoin="round" stroke-width="2"/>
  <path d="M5 5.4167C5 6.3371 4.2538 7.0833 3.3333 7.0833 2.4129 7.0833 1.6667 6.3371 1.6667 5.4167 1.6667 4.4962 2.4129 3.75 3.3333 3.75 4.2538 3.75 5 4.4962 5 5.4167Z" stroke="currentColor" stroke-width="2"/>
</svg>
