<svg xmlns="http://www.w3.org/2000/svg" width="20" height="20" viewBox="0 0 20 20" fill="none">
  <path d="M2.0833 10C2.0833 6.268 2.0833 4.4021 3.2427 3.2427 4.4021 2.0833 6.268 2.0833 10 2.0833 13.7319 2.0833 15.5979 2.0833 16.7573 3.2427 17.9167 4.4021 17.9167 6.268 17.9167 10 17.9167 13.7319 17.9167 15.5979 16.7573 16.7573 15.5979 17.9167 13.7319 17.9167 10 17.9167 6.268 17.9167 4.4021 17.9167 3.2427 16.7573 2.0833 15.5979 2.0833 13.7319 2.0833 10Z" stroke="currentColor" stroke-linejoin="round" stroke-width="2"/>
  <path d="M15.8311 10.0698C15.8023 10.5102 15.4098 10.8438 14.625 11.5111 13.3978 12.5545 12.7841 13.0762 12.2792 12.8736 12.2278 12.853 12.1782 12.8276 12.1309 12.7978 11.7705 12.5708 11.6899 12.0167 11.6718 10.9985H8.3281C8.3101 12.0167 8.2295 12.5708 7.8691 12.7978 7.8218 12.8276 7.7722 12.853 7.7207 12.8736 7.2159 13.0762 6.6023 12.5545 5.375 11.5111 4.5902 10.8438 4.1978 10.5102 4.169 10.0698 4.1659 10.0233 4.1659 9.9767 4.169 9.9302 4.1978 9.4898 4.5902 9.1562 5.375 8.4889 6.6023 7.4455 7.2159 6.9238 7.7207 7.1264 7.7722 7.147 7.8218 7.1724 7.8691 7.2022 8.2192 7.4227 8.3053 7.9519 8.3264 8.9152H11.6736C11.6948 7.9519 11.7808 7.4227 12.1309 7.2022 12.1782 7.1724 12.2278 7.147 12.2792 7.1264 12.7841 6.9238 13.3978 7.4455 14.625 8.4889 15.4098 9.1562 15.8023 9.4898 15.8311 9.9302 15.8341 9.9767 15.8341 10.0233 15.8311 10.0698Z" stroke="currentColor" stroke-linecap="round" stroke-linejoin="round" stroke-width="2"/>
</svg>
