<svg xmlns="http://www.w3.org/2000/svg" width="20" height="20" viewBox="0 0 20 20" fill="none">
  <path d="M5.8333 1.6667L6.6667 3.3333M9.1667 1.6667L8.75 2.9167M3.75 4.1667L5 4.5833" stroke="currentColor" stroke-linecap="round" stroke-linejoin="round" stroke-width="2"/>
  <path d="M8.75 12.5V10.2083C8.75 9.633 9.2163 9.1667 9.7917 9.1667 10.367 9.1667 10.8333 9.633 10.8333 10.2083V15C10.8333 16.8409 9.3409 18.3333 7.5 18.3333H6.8627C5.7051 18.3333 4.6305 17.7328 4.0238 16.747L1.8112 13.1515C1.7167 12.998 1.6667 12.8212 1.6667 12.6409V12.5926C1.6667 12.0813 2.0812 11.6667 2.5926 11.6667 3.0589 11.6667 3.498 11.8863 3.7778 12.2592L4.5833 13.3333V9.375C4.5833 8.7997 5.0497 8.3333 5.625 8.3333 6.2003 8.3333 6.6667 8.7997 6.6667 9.375V12.5 8.5417C6.6667 7.9664 7.133 7.5 7.7083 7.5 8.2836 7.5 8.75 7.9664 8.75 8.5417V12.5Z" stroke="currentColor" stroke-linecap="round" stroke-linejoin="round" stroke-width="2"/>
  <path d="M9.5833 5.2083C9.7574 5.0775 9.9738 5 10.2083 5 10.7837 5 11.25 5.4664 11.25 6.0417V7.0833 4.375C11.25 3.7997 11.7163 3.3333 12.2917 3.3333 12.867 3.3333 13.3333 3.7997 13.3333 4.375V7.0833 5.2083C13.3333 4.633 13.7997 4.1667 14.375 4.1667 14.9503 4.1667 15.4167 4.633 15.4167 5.2083V9.1667L16.2222 8.0926C16.502 7.7196 16.9411 7.5 17.4074 7.5 17.9188 7.5 18.3333 7.9146 18.3333 8.4259V8.4743C18.3333 8.6545 18.2833 8.8313 18.1888 8.9848L15.9763 12.6371C15.4783 13.4461 14.6653 13.9956 13.75 14.1667" stroke="currentColor" stroke-linecap="round" stroke-linejoin="round" stroke-width="2"/>
</svg>
