<svg xmlns="http://www.w3.org/2000/svg" width="20" height="20" viewBox="0 0 20 20" fill="none">
  <path d="M15.8386 8.3375V5.4198C15.8386 3.348 14.1529 1.6685 12.0734 1.6685 9.994 1.6685 8.3083 3.348 8.3083 5.4198V8.3375" stroke="currentColor" stroke-linecap="round" stroke-width="2"/>
  <path d="M12.0733 7.5039V6.2535" stroke="currentColor" stroke-linecap="round" stroke-width="2"/>
  <path d="M1.808 9.2738L5.5437 14.0858C5.5757 14.1271 5.594 14.1772 5.5959 14.2294L5.6708 16.2163C5.6968 16.907 6.1769 17.4978 6.8496 17.6668L7.0559 17.7187C10.3739 18.5523 13.8498 18.535 17.1593 17.6683 17.8072 17.4987 18.2637 16.9218 18.2782 16.2545L18.3285 13.9283C18.3997 10.6512 17.3387 9.9452 16.8197 9.4693 15.6184 8.368 13.8308 8.1032 12.1141 8.1032 9.1371 8.1032 7.7038 8.9496 7.0385 9.5251 6.8924 9.6514 6.6816 9.6817 6.5151 9.5836L3.2031 7.6319C2.9152 7.4622 2.5456 7.5304 2.3378 7.7917L1.8129 8.4515C1.6217 8.6918 1.6197 9.0312 1.808 9.2738Z" stroke="currentColor" stroke-linecap="round" stroke-linejoin="round" stroke-width="2"/>
</svg>
