<svg xmlns="http://www.w3.org/2000/svg" width="20" height="20" viewBox="0 0 20 20" fill="none">
  <path d="M13.4996 2.1843C14.172 1.7942 14.5083 1.5991 14.8377 1.6878 15.1673 1.7766 15.3613 2.1144 15.7496 2.7902L16.9849 4.9404C17.3732 5.6162 17.5673 5.9541 17.4789 6.2852 17.3907 6.6163 17.0544 6.8114 16.382 7.2016L13.5292 8.8568C12.8568 9.247 12.5206 9.4421 12.1911 9.3533 11.8616 9.2646 11.6674 8.9268 11.2793 8.251L10.0439 6.1007C9.6557 5.425 9.4616 5.0871 9.5498 4.7559 9.6382 4.4248 9.9743 4.2297 10.6468 3.8396L13.4996 2.1843Z" stroke="currentColor" stroke-width="2"/>
  <path d="M9.6321 5.384L11.691 8.9678 8.8382 10.623C8.1657 11.0131 7.8295 11.2082 7.5 11.1195 7.1705 11.0308 6.9764 10.6928 6.5882 10.0171L6.1764 9.3003C5.7882 8.6246 5.5941 8.2867 5.6823 7.9556 5.7706 7.6245 6.1069 7.4294 6.7793 7.0392L9.6321 5.384Z" stroke="currentColor" stroke-width="2"/>
  <path d="M5.7646 8.5836L6.9999 10.7338 4.5037 12.1822C4.1714 12.375 4.0052 12.4714 3.8428 12.4929 3.6263 12.5216 3.4073 12.4626 3.234 12.329 3.104 12.2287 3.0081 12.0617 2.8162 11.7278 2.6244 11.3938 2.5284 11.2268 2.5071 11.0637 2.4785 10.846 2.5372 10.6259 2.6702 10.4518 2.7699 10.3212 2.9361 10.2248 3.2684 10.032L5.7646 8.5836Z" stroke="currentColor" stroke-width="2"/>
  <path d="M6.25 18.3333L10 10 13.75 18.3333" stroke="currentColor" stroke-linecap="round" stroke-linejoin="round" stroke-width="2"/>
</svg>
