<svg xmlns="http://www.w3.org/2000/svg" width="20" height="20" viewBox="0 0 20 20" fill="none">
  <path d="M9.9878 12.8403L12.689 15.9113C13.6898 17.0491 14.1902 17.618 14.7139 17.4795 15.2377 17.341 15.4173 16.5923 15.7765 15.0948L17.7691 6.7882C18.3223 4.4819 18.5989 3.3288 17.984 2.76 17.3692 2.1912 16.3033 2.6144 14.1718 3.4607L4.2823 7.3871C2.5774 8.064 1.725 8.4024 1.6709 8.984 1.6654 9.0435 1.6653 9.1034 1.6706 9.1629 1.723 9.7447 2.5743 10.0861 4.2771 10.7686 5.0487 11.0778 5.4344 11.2325 5.711 11.5287 5.7421 11.5619 5.772 11.5964 5.8007 11.632 6.0555 11.9487 6.1642 12.3643 6.3817 13.1953L6.7888 14.7508C7.0004 15.5596 7.1062 15.964 7.3834 16.0192 7.6606 16.0743 7.9019 15.7389 8.3845 15.0683L9.9878 12.8403ZM9.9878 12.8403L9.723 12.5642C9.4216 12.2501 9.2709 12.0931 9.2709 11.8979 9.2709 11.7027 9.4216 11.5457 9.723 11.2315L12.7005 8.1284" stroke="currentColor" stroke-linecap="round" stroke-linejoin="round" stroke-width="2"/>
</svg>
