<svg xmlns="http://www.w3.org/2000/svg" width="20" height="20" viewBox="0 0 20 20" fill="none">
  <path d="M15.8333 18.3333L11.6667 10.8333 7.5 18.3333" stroke="currentColor" stroke-linecap="round" stroke-linejoin="round" stroke-width="2"/>
  <path d="M13.2663 3.3333L5.856 7.7133C5.0374 8.197 4.757 9.2685 5.2296 10.1065L6.0852 11.6237C6.5578 12.4617 7.6045 12.7488 8.423 12.265L15.8333 7.8851" stroke="currentColor" stroke-linejoin="round" stroke-width="2"/>
  <path d="M13.5163 3.7131C13.1397 3.0606 13.3632 2.2264 14.0153 1.8497 14.6675 1.473 15.5014 1.6965 15.8779 2.349L18.1504 6.2869C18.5269 6.9394 18.3035 7.7736 17.6513 8.1503 16.9992 8.5271 16.1653 8.3035 15.7888 7.651L13.5163 3.7131Z" stroke="currentColor" stroke-linecap="round" stroke-linejoin="round" stroke-width="2"/>
  <path d="M1.6667 11.8871L2.2818 13.0268M2.2818 13.0268L2.8969 14.1667M2.2818 13.0268L5.4167 11.25" stroke="currentColor" stroke-linecap="round" stroke-linejoin="round" stroke-width="2"/>
</svg>
