<svg xmlns="http://www.w3.org/2000/svg" width="20" height="20" viewBox="0 0 20 20" fill="none">
  <path d="M15 11.6667H5C2.9317 11.6667 2.5 12.0983 2.5 14.1667V15.8333C2.5 17.9017 2.9317 18.3333 5 18.3333H15C17.0683 18.3333 17.5 17.9017 17.5 15.8333V14.1667C17.5 12.0983 17.0683 11.6667 15 11.6667Z" stroke="currentColor" stroke-linecap="round" stroke-linejoin="round" stroke-width="2"/>
  <path d="M5.8333 15H6.6667" stroke="currentColor" stroke-linecap="round" stroke-linejoin="round" stroke-width="2"/>
  <path d="M13.3333 15H14.1667" stroke="currentColor" stroke-linecap="round" stroke-linejoin="round" stroke-width="2"/>
  <path d="M5 5.8333V5C5 3.4286 5 2.643 5.4882 2.1548 5.9763 1.6667 6.762 1.6667 8.3333 1.6667H11.6667C13.238 1.6667 14.0237 1.6667 14.5118 2.1548 15 2.643 15 3.4286 15 5V5.8333C15 7.4047 15 8.1904 14.5118 8.6785 14.0237 9.1667 13.238 9.1667 11.6667 9.1667H8.3333C6.762 9.1667 5.9763 9.1667 5.4882 8.6785 5 8.1904 5 7.4047 5 5.8333Z" stroke="currentColor" stroke-linecap="round" stroke-linejoin="round" stroke-width="2"/>
  <path d="M8.75 9.1667L8.3333 11.6667M11.25 9.1667L11.6667 11.6667" stroke="currentColor" stroke-linecap="round" stroke-linejoin="round" stroke-width="2"/>
  <path d="M10 11.6667V18.3333" stroke="currentColor" stroke-linecap="round" stroke-linejoin="round" stroke-width="2"/>
</svg>
