<svg xmlns="http://www.w3.org/2000/svg" width="20" height="20" viewBox="0 0 20 20" fill="none">
  <path d="M10 18.3333C12.3012 18.3333 14.1667 16.4678 14.1667 14.1667 14.1667 12.8037 13.5123 11.5935 12.5004 10.8333V4.1671C12.5004 3.3901 12.5004 3.0017 12.3734 2.6952 12.2043 2.2871 11.88 1.9628 11.4718 1.7937 11.1654 1.6667 10.7769 1.6667 10 1.6667 9.2231 1.6667 8.8346 1.6667 8.5282 1.7937 8.12 1.9628 7.7957 2.2871 7.6266 2.6952 7.4996 3.0017 7.4996 3.3901 7.4996 4.1671V10.8333C6.4878 11.5935 5.8333 12.8037 5.8333 14.1667 5.8333 16.4678 7.6988 18.3333 10 18.3333Z" stroke="currentColor" stroke-linejoin="round" stroke-width="2"/>
  <path d="M10 12.5C9.0795 12.5 8.3333 13.2462 8.3333 14.1667 8.3333 15.0872 9.0795 15.8333 10 15.8333 10.9205 15.8333 11.6667 15.0872 11.6667 14.1667 11.6667 13.2462 10.9205 12.5 10 12.5ZM10 12.5V6.6667" stroke="currentColor" stroke-linecap="round" stroke-linejoin="round" stroke-width="2"/>
</svg>
