<svg xmlns="http://www.w3.org/2000/svg" width="20" height="20" viewBox="0 0 20 20" fill="none">
  <path d="M12.9343 12.3662L6.3024 13.6983 7.6344 7.066M15.7246 10.7537C13.6106 12.8678 10.4467 13.1315 8.658 11.3426 6.8692 9.5537 7.1329 6.3897 9.2469 4.2755 11.3609 2.1614 14.5247 1.8977 16.3135 3.6866 18.1023 5.4755 17.8386 8.6395 15.7246 10.7537ZM5.8608 13.2556L6.7441 14.139C6.9068 14.3016 6.9068 14.5653 6.7441 14.7279L4.0942 17.378C3.9316 17.5407 3.6679 17.5407 3.5053 17.378L2.622 16.4947C2.4594 16.332 2.4594 16.0683 2.622 15.9058L5.2719 13.2556C5.4346 13.0929 5.6982 13.0929 5.8608 13.2556Z" stroke="currentColor" stroke-linecap="round" stroke-linejoin="round" stroke-width="2"/>
  <path d="M13.7559 6.2368L13.75 6.2427M11.25 8.7502L11.2441 8.7562M13.75 8.7502L13.7441 8.7562M11.2559 6.2437L11.25 6.2496" stroke="currentColor" stroke-linecap="round" stroke-linejoin="round" stroke-width="2"/>
</svg>
