<svg xmlns="http://www.w3.org/2000/svg" width="20" height="20" viewBox="0 0 20 20" fill="none">
  <circle cx="4.16665" cy="4.166666666666667" r="1.6666666666666667" stroke="currentColor" stroke-linecap="round" stroke-linejoin="round" stroke-width="2"/>
  <path d="M2.5996 15.7538L6.0608 10.3651C6.1823 10.1399 6.4145 10 6.6667 10 6.9189 10 7.151 10.1399 7.2726 10.3651L10.7338 15.7538C11.4641 16.8908 11.8292 17.4593 11.5973 17.8963 11.3655 18.3333 10.6988 18.3333 9.3655 18.3333H3.9679C2.6345 18.3333 1.9678 18.3333 1.736 17.8963 1.5042 17.4593 1.8693 16.8908 2.5996 15.7538Z" stroke="currentColor" stroke-linecap="round" stroke-linejoin="round" stroke-width="2"/>
  <path d="M6.6666 10V18.3333" stroke="currentColor" stroke-linecap="round" stroke-linejoin="round" stroke-width="2"/>
  <path d="M8.319 18.3333H16.0143C17.3569 18.3333 18.0282 18.3333 18.2628 17.8975 18.4973 17.4617 18.1314 16.8938 17.3997 15.7583L14.1777 10.7583C13.9386 10.3873 13.819 10.2018 13.6347 10.1009 13.4503 10 13.231 10 12.7923 10H6.6666" stroke="currentColor" stroke-linecap="round" stroke-linejoin="round" stroke-width="2"/>
  <path d="M17.5 4.1667C16.9444 3.8889 15.6667 3 15 1.6667 14.3333 3 13.0556 3.8889 12.5 4.1667" stroke="currentColor" stroke-linecap="round" stroke-linejoin="round" stroke-width="2"/>
  <path d="M17.5 7.5C16.9444 7.2222 15.6667 6.3333 15 5 14.3333 6.3333 13.0556 7.2222 12.5 7.5" stroke="currentColor" stroke-linecap="round" stroke-linejoin="round" stroke-width="2"/>
  <path d="M15 1.6667V11.6667" stroke="currentColor" stroke-linecap="round" stroke-linejoin="round" stroke-width="2"/>
</svg>
