<svg xmlns="http://www.w3.org/2000/svg" width="20" height="20" viewBox="0 0 20 20" fill="none">
  <path d="M6.6666 1.6673H13.3333" stroke="currentColor" stroke-linecap="round" stroke-linejoin="round" stroke-width="2"/>
  <path d="M4.6109 9.2924C4.6109 9.2924 7.1109 8.5208 9.1943 10.8354M15.4443 9.6782C15.4443 9.6782 14.9346 10.4942 14.1943 10.8356" stroke="currentColor" stroke-linecap="round" stroke-width="2"/>
  <path d="M7.939 1.6674V5.2152C7.939 5.7668 7.6459 6.2425 7.1616 6.502 4.6739 7.8352 2.3374 11.6123 4.7883 15.4834 5.3369 16.433 7.1473 18.3323 10 18.3323 12.8527 18.3323 14.663 16.433 15.2116 15.4834 17.6626 11.6123 15.326 7.8352 12.8383 6.502 12.354 6.2425 12.0603 5.7668 12.0603 5.2152V1.6674" stroke="currentColor" stroke-linecap="round" stroke-linejoin="round" stroke-width="2"/>
  <path d="M11.7708 11.6673H11.6666M11.8749 11.6673C11.8749 11.7824 11.7816 11.8757 11.6666 11.8757 11.5515 11.8757 11.4583 11.7824 11.4583 11.6673 11.4583 11.5523 11.5515 11.459 11.6666 11.459 11.7816 11.459 11.8749 11.5523 11.8749 11.6673Z" stroke="currentColor" stroke-linecap="round" stroke-linejoin="round" stroke-width="2"/>
  <path d="M8.4374 15.0007H8.3332M8.5416 15.0007C8.5416 15.1158 8.4482 15.209 8.3332 15.209 8.2182 15.209 8.1249 15.1158 8.1249 15.0007 8.1249 14.8856 8.2182 14.7923 8.3332 14.7923 8.4482 14.7923 8.5416 14.8856 8.5416 15.0007Z" stroke="currentColor" stroke-linecap="round" stroke-linejoin="round" stroke-width="2"/>
</svg>
