<svg xmlns="http://www.w3.org/2000/svg" width="20" height="20" viewBox="0 0 20 20" fill="none">
  <path d="M6.6667 1.6667H13.3333" stroke="currentColor" stroke-linecap="round" stroke-linejoin="round" stroke-width="2"/>
  <path d="M13.5156 10.837L13.3268 11.3459C12.9349 12.2083 11.7596 13.1199 9.8008 11.9318 8.5393 11.1668 7.4472 10.5526 6.6664 10.9667L6.0158 11.2843" stroke="currentColor" stroke-linecap="round" stroke-linejoin="round" stroke-width="2"/>
  <path d="M12.1103 1.6667V7.1383C12.1103 7.7319 12.1103 8.0287 12.192 8.3102 12.2738 8.5917 12.4331 8.8433 12.7517 9.3467L14.4051 11.9583C16.1896 14.7772 17.0818 16.1865 16.4793 17.2599 15.8766 18.3333 14.1931 18.3333 10.8262 18.3333H9.1738C5.8069 18.3333 4.1234 18.3333 3.5208 17.2599 2.9182 16.1865 3.8104 14.7772 5.5949 11.9583L7.2483 9.3467C7.5669 8.8433 7.7262 8.5917 7.808 8.3102 7.8898 8.0287 7.8898 7.7319 7.8898 7.1383V1.6667" stroke="currentColor" stroke-linecap="round" stroke-linejoin="round" stroke-width="2"/>
  <path d="M12.6042 15.8333H12.5M12.7083 15.8333C12.7083 15.9484 12.6151 16.0417 12.5 16.0417 12.3849 16.0417 12.2917 15.9484 12.2917 15.8333 12.2917 15.7182 12.3849 15.625 12.5 15.625 12.6151 15.625 12.7083 15.7182 12.7083 15.8333Z" stroke="currentColor" stroke-linecap="round" stroke-linejoin="round" stroke-width="2"/>
  <path d="M8.4375 14.1667H8.3333M8.5417 14.1667C8.5417 14.2818 8.4484 14.375 8.3333 14.375 8.2183 14.375 8.125 14.2818 8.125 14.1667 8.125 14.0516 8.2183 13.9583 8.3333 13.9583 8.4484 13.9583 8.5417 14.0516 8.5417 14.1667Z" stroke="currentColor" stroke-linecap="round" stroke-linejoin="round" stroke-width="2"/>
</svg>
