<svg xmlns="http://www.w3.org/2000/svg" width="20" height="20" viewBox="0 0 20 20" fill="none">
  <path d="M13.3333 1.6667V15C13.3333 16.8409 11.8409 18.3333 10 18.3333 8.1591 18.3333 6.6667 16.8409 6.6667 15V1.6667" stroke="currentColor" stroke-width="2"/>
  <path d="M6.6667 7.1302C7.4074 6.1691 8.5922 6.8619 10 7.7651 11.8518 8.9533 12.963 8.0417 13.3333 7.1793" stroke="currentColor" stroke-linecap="round" stroke-width="2"/>
  <path d="M5.8333 1.6667H14.1667" stroke="currentColor" stroke-linecap="round" stroke-linejoin="round" stroke-width="2"/>
  <path d="M10.9375 11.6667H10.8333M11.0417 11.6667C11.0417 11.7818 10.9484 11.875 10.8333 11.875 10.7183 11.875 10.625 11.7818 10.625 11.6667 10.625 11.5516 10.7183 11.4583 10.8333 11.4583 10.9484 11.4583 11.0417 11.5516 11.0417 11.6667Z" stroke="currentColor" stroke-linecap="round" stroke-linejoin="round" stroke-width="2"/>
  <path d="M9.2708 15H9.1667M9.375 15C9.375 15.1151 9.2818 15.2083 9.1667 15.2083 9.0516 15.2083 8.9583 15.1151 8.9583 15 8.9583 14.8849 9.0516 14.7917 9.1667 14.7917 9.2818 14.7917 9.375 14.8849 9.375 15Z" stroke="currentColor" stroke-linecap="round" stroke-linejoin="round" stroke-width="2"/>
</svg>
