<svg xmlns="http://www.w3.org/2000/svg" width="20" height="20" viewBox="0 0 20 20" fill="none">
  <path d="M5.8333 4.1667C5.8333 3.381 5.8333 2.9882 6.0774 2.7441 6.3215 2.5 6.7143 2.5 7.5 2.5 8.2857 2.5 8.6785 2.5 8.9226 2.7441 9.1667 2.9882 9.1667 3.381 9.1667 4.1667V7.5C9.1667 8.2857 9.1667 8.6785 8.9226 8.9226 8.6785 9.1667 8.2857 9.1667 7.5 9.1667 6.7143 9.1667 6.3215 9.1667 6.0774 8.9226 5.8333 8.6785 5.8333 8.2857 5.8333 7.5V4.1667Z" stroke="currentColor" stroke-width="2"/>
  <path d="M10.8333 12.5C10.8333 11.7143 10.8333 11.3215 11.0774 11.0774 11.3215 10.8333 11.7143 10.8333 12.5 10.8333 13.2857 10.8333 13.6785 10.8333 13.9226 11.0774 14.1667 11.3215 14.1667 11.7143 14.1667 12.5 14.1667 13.2857 14.1667 13.6785 13.9226 13.9226 13.6785 14.1667 13.2857 14.1667 12.5 14.1667 11.7143 14.1667 11.3215 14.1667 11.0774 13.9226 10.8333 13.6785 10.8333 13.2857 10.8333 12.5Z" stroke="currentColor" stroke-width="2"/>
  <path d="M7.5 15.8333C7.5 15.0477 7.5 14.6548 7.7441 14.4108 7.9882 14.1667 8.381 14.1667 9.1667 14.1667H15.8333C16.619 14.1667 17.0118 14.1667 17.2559 14.4108 17.5 14.6548 17.5 15.0477 17.5 15.8333 17.5 16.619 17.5 17.0118 17.2559 17.2559 17.0118 17.5 16.619 17.5 15.8333 17.5H9.1667C8.381 17.5 7.9882 17.5 7.7441 17.2559 7.5 17.0118 7.5 16.619 7.5 15.8333Z" stroke="currentColor" stroke-width="2"/>
  <path d="M2.5 7.5C2.5 6.7143 2.5 6.3215 2.7441 6.0774 2.9882 5.8333 3.381 5.8333 4.1667 5.8333 4.9523 5.8333 5.3452 5.8333 5.5893 6.0774 5.8333 6.3215 5.8333 6.7143 5.8333 7.5V10.8333C5.8333 11.619 5.8333 12.0118 5.5893 12.2559 5.3452 12.5 4.9523 12.5 4.1667 12.5 3.381 12.5 2.9882 12.5 2.7441 12.2559 2.5 12.0118 2.5 11.619 2.5 10.8333V7.5Z" stroke="currentColor" stroke-width="2"/>
</svg>
