<svg xmlns="http://www.w3.org/2000/svg" width="20" height="20" viewBox="0 0 20 20" fill="none">
  <path d="M1.6667 16.6667V5.8514C1.6667 4.2539 1.6667 3.3334 2.0324 3.3334 2.4666 3.3334 2.7794 3.8836 3.5419 5.2274L8.9581 14.7726C9.7206 16.1164 10.0194 16.6667 10.4676 16.6667 10.8333 16.6667 10.8333 15.7462 10.8333 14.1487V3.3333" stroke="currentColor" stroke-linecap="round" stroke-linejoin="round" stroke-width="2"/>
  <path d="M13.3333 10.8333L18.3333 10.8333" stroke="currentColor" stroke-linecap="round" stroke-linejoin="round" stroke-width="2"/>
  <path d="M13.8172 3.8173C14.4622 3.1723 17.2045 3.1723 17.8495 3.8173 18.4946 4.4624 18.4946 7.2047 17.8495 7.8497 17.2045 8.4948 14.4622 8.4948 13.8172 7.8497 13.1721 7.2047 13.1721 4.4624 13.8172 3.8173Z" stroke="currentColor" stroke-linecap="round" stroke-linejoin="round" stroke-width="2"/>
</svg>
