<svg xmlns="http://www.w3.org/2000/svg" width="20" height="20" viewBox="0 0 20 20" fill="none">
  <path d="M12.5 17.5008H7.5" stroke="currentColor" stroke-linecap="round" stroke-linejoin="round" stroke-width="2"/>
  <path d="M10 2.5V17.5007M10 2.5C11.1562 2.5 12.6412 2.5255 13.8237 2.6471 14.3238 2.6985 14.5738 2.7242 14.7951 2.8149 15.2555 3.0036 15.6265 3.4172 15.7662 3.8973 15.8333 4.1282 15.8333 4.3916 15.8333 4.9185M10 2.5C8.8438 2.5 7.3587 2.5255 6.1763 2.6471 5.6762 2.6985 5.4262 2.7242 5.2049 2.8149 4.7445 3.0036 4.3735 3.4172 4.2338 3.8973 4.1667 4.1282 4.1667 4.3916 4.1667 4.9185" stroke="currentColor" stroke-linecap="round" stroke-width="2"/>
</svg>
