<svg xmlns="http://www.w3.org/2000/svg" width="20" height="20" viewBox="0 0 20 20" fill="none">
  <path d="M8.8095 15H4.5238M6.6667 2.5V15M6.6667 2.5C5.6757 2.5 4.4027 2.6022 3.3892 2.7029 2.9606 2.7455 2.7463 2.7668 2.5566 2.8418 2.162 2.998 1.8439 3.3405 1.7242 3.738 1.6667 3.9291 1.6667 4.1472 1.6667 4.5833M6.6667 2.5C7.6577 2.5 8.9306 2.6022 9.9441 2.7029 10.3727 2.7455 10.5871 2.7668 10.7767 2.8418 11.1713 2.998 11.4894 3.3405 11.6091 3.738 11.6667 3.9291 11.6667 4.1472 11.6667 4.5833" stroke="currentColor" stroke-linecap="round" stroke-width="2"/>
  <path d="M16.4286 17.5H13.5714M15 10V17.5M15 10C14.3393 10 13.4907 10.0682 12.8151 10.1353 12.5293 10.1637 12.3864 10.1778 12.2599 10.2279 11.9969 10.332 11.7848 10.5603 11.705 10.8253 11.6667 10.9527 11.6667 11.0981 11.6667 11.3889M15 10C15.6607 10 16.5093 10.0682 17.1849 10.1353 17.4708 10.1637 17.6136 10.1778 17.7401 10.2279 18.0031 10.332 18.2152 10.5603 18.295 10.8253 18.3333 10.9527 18.3333 11.0981 18.3333 11.3889" stroke="currentColor" stroke-linecap="round" stroke-width="2"/>
</svg>
