<svg xmlns="http://www.w3.org/2000/svg" width="20" height="20" viewBox="0 0 20 20" fill="none">
  <path d="M16.4583 4.9066L16.4578 7.2695M16.4578 7.2695L18.3333 6.4218M16.4578 7.2695L14.5833 6.4218M16.4578 7.2695L14.9583 9.0732M16.4578 7.2695L17.9583 9.0732" stroke="currentColor" stroke-linecap="round" stroke-width="2"/>
  <path d="M10 17.5014H5" stroke="currentColor" stroke-linecap="round" stroke-width="2"/>
  <path d="M13.3333 4.9982C13.3333 4.4507 13.3333 4.177 13.2662 3.9371 13.1265 3.4381 12.7555 3.0083 12.2951 2.8123 12.0738 2.7181 11.8238 2.6913 11.3237 2.6379 10.1412 2.5115 8.6562 2.4982 7.5 2.4982 6.3438 2.4982 4.8587 2.5115 3.6763 2.6379 3.1763 2.6913 2.9262 2.7181 2.7049 2.8123 2.2445 3.0083 1.8735 3.4381 1.7338 3.9371 1.6667 4.177 1.6667 4.4507 1.6667 4.9982" stroke="currentColor" stroke-linecap="round" stroke-width="2"/>
  <path d="M7.5 2.7915L7.5 17.5013" stroke="currentColor" stroke-linecap="round" stroke-width="2"/>
</svg>
