<svg xmlns="http://www.w3.org/2000/svg" width="20" height="20" viewBox="0 0 20 20" fill="none">
  <path d="M18.3333 11.25L16.9047 7.5M16.9047 7.5L15.6513 4.2098C15.6166 4.1185 15.5992 4.0728 15.5772 4.034 15.4928 3.8854 15.3488 3.7837 15.1847 3.757 15.1418 3.75 15.0946 3.75 15 3.75 14.9054 3.75 14.8582 3.75 14.8153 3.757 14.6512 3.7837 14.5072 3.8854 14.4228 4.034 14.4008 4.0728 14.3834 4.1185 14.3487 4.2098L13.0953 7.5M16.9047 7.5L13.0953 7.5M13.0953 7.5L11.6667 11.25" stroke="currentColor" stroke-linecap="round" stroke-linejoin="round" stroke-width="2"/>
  <path d="M1.6667 3.75L4.3486 10.7902C4.3834 10.8815 4.4008 10.9272 4.4228 10.9659 4.5072 11.1146 4.6512 11.2163 4.8153 11.243 4.8581 11.25 4.9054 11.25 5 11.25 5.0946 11.25 5.1419 11.25 5.1847 11.243 5.3488 11.2163 5.4928 11.1146 5.5772 10.9659 5.5992 10.9272 5.6166 10.8815 5.6514 10.7902L8.3333 3.75" stroke="currentColor" stroke-linecap="round" stroke-linejoin="round" stroke-width="2"/>
  <path d="M10 16.25H18.3333M18.3333 16.25C18.3333 16.5262 18.0556 16.7483 17.5 17.1928L16.5952 17.9167M18.3333 16.25C18.3333 15.9738 18.0556 15.7517 17.5 15.3072L16.5952 14.5833" stroke="currentColor" stroke-linecap="round" stroke-linejoin="round" stroke-width="2"/>
  <path d="M12.0833 2.0833L7.9167 12.9167" stroke="currentColor" stroke-linecap="round" stroke-linejoin="round" stroke-width="2"/>
</svg>
