<svg xmlns="http://www.w3.org/2000/svg" width="20" height="20" viewBox="0 0 20 20" fill="none">
  <path d="M2.5 2.9167H4.1667" stroke="currentColor" stroke-linecap="round" stroke-linejoin="round" stroke-width="2"/>
  <path d="M15.8333 2.9167H17.5" stroke="currentColor" stroke-linecap="round" stroke-linejoin="round" stroke-width="2"/>
  <path d="M2.5 7.9167H4.1667" stroke="currentColor" stroke-linecap="round" stroke-linejoin="round" stroke-width="2"/>
  <path d="M15.8333 7.9167H17.5" stroke="currentColor" stroke-linecap="round" stroke-linejoin="round" stroke-width="2"/>
  <path d="M2.5 12.9167H17.5" stroke="currentColor" stroke-linecap="round" stroke-linejoin="round" stroke-width="2"/>
  <path d="M2.5 17.5H17.5" stroke="currentColor" stroke-linecap="round" stroke-linejoin="round" stroke-width="2"/>
  <path d="M7.1548 8.6785C7.643 9.1666 8.4287 9.1666 10 9.1666 11.5713 9.1666 12.357 9.1666 12.8452 8.6785 13.3333 8.1903 13.3333 7.4046 13.3333 5.8333 13.3333 4.2619 13.3333 3.4763 12.8452 2.9881 12.357 2.5 11.5713 2.5 10 2.5 8.4287 2.5 7.643 2.5 7.1548 2.9881 6.6667 3.4763 6.6667 4.2619 6.6667 5.8333 6.6667 7.4046 6.6667 8.1903 7.1548 8.6785Z" stroke="currentColor" stroke-linecap="round" stroke-linejoin="round" stroke-width="2"/>
</svg>
