<svg xmlns="http://www.w3.org/2000/svg" width="20" height="20" viewBox="0 0 20 20" fill="none">
  <path d="M2.5 2.5H17.5" stroke="currentColor" stroke-linecap="round" stroke-linejoin="round" stroke-width="2"/>
  <path d="M2.5 17.5H17.5" stroke="currentColor" stroke-linecap="round" stroke-linejoin="round" stroke-width="2"/>
  <path d="M2.5 7.5H4.1667" stroke="currentColor" stroke-linecap="round" stroke-linejoin="round" stroke-width="2"/>
  <path d="M15.8333 7.5H17.5" stroke="currentColor" stroke-linecap="round" stroke-linejoin="round" stroke-width="2"/>
  <path d="M2.5 12.5H4.1667" stroke="currentColor" stroke-linecap="round" stroke-linejoin="round" stroke-width="2"/>
  <path d="M15.8333 12.5H17.5" stroke="currentColor" stroke-linecap="round" stroke-linejoin="round" stroke-width="2"/>
  <path d="M7.1548 12.8452C7.643 13.3333 8.4287 13.3333 10 13.3333 11.5713 13.3333 12.357 13.3333 12.8452 12.8452 13.3333 12.357 13.3333 11.5713 13.3333 10 13.3333 8.4287 13.3333 7.643 12.8452 7.1548 12.357 6.6667 11.5713 6.6667 10 6.6667 8.4287 6.6667 7.643 6.6667 7.1548 7.1548 6.6667 7.643 6.6667 8.4287 6.6667 10 6.6667 11.5713 6.6667 12.357 7.1548 12.8452Z" stroke="currentColor" stroke-linecap="round" stroke-linejoin="round" stroke-width="2"/>
</svg>
