<svg xmlns="http://www.w3.org/2000/svg" width="20" height="20" viewBox="0 0 20 20" fill="none">
  <path d="M10.8333 3.3333L18.3333 3.3333" stroke="currentColor" stroke-linecap="round" stroke-linejoin="round" stroke-width="2"/>
  <path d="M10.8333 6.6667L18.3333 6.6667" stroke="currentColor" stroke-linecap="round" stroke-linejoin="round" stroke-width="2"/>
  <path d="M1.6667 10H18.3333" stroke="currentColor" stroke-linecap="round" stroke-linejoin="round" stroke-width="2"/>
  <path d="M10.8333 16.6667L18.3333 16.6667" stroke="currentColor" stroke-linecap="round" stroke-linejoin="round" stroke-width="2"/>
  <path d="M10.8333 13.3333L18.3333 13.3333" stroke="currentColor" stroke-linecap="round" stroke-linejoin="round" stroke-width="2"/>
  <path d="M6.6667 7.0833L5.5952 4.5833M5.5952 4.5833L4.6552 2.3899C4.6291 2.329 4.616 2.2986 4.5995 2.2727 4.5363 2.1736 4.4283 2.1058 4.3052 2.088 4.2731 2.0833 4.2376 2.0833 4.1667 2.0833 4.0957 2.0833 4.0603 2.0833 4.0281 2.088 3.905 2.1058 3.7971 2.1736 3.7338 2.2727 3.7173 2.2986 3.7042 2.329 3.6781 2.3899L2.7381 4.5833M5.5952 4.5833L2.7381 4.5833M2.7381 4.5833L1.6667 7.0833" stroke="currentColor" stroke-linecap="round" stroke-linejoin="round" stroke-width="2"/>
  <path d="M6.6667 17.9167L5.5952 15.4167M5.5952 15.4167L4.6552 13.2233C4.6291 13.1623 4.616 13.1319 4.5995 13.106 4.5363 13.0069 4.4283 12.9392 4.3052 12.9213 4.2731 12.9167 4.2376 12.9167 4.1667 12.9167 4.0957 12.9167 4.0603 12.9167 4.0281 12.9213 3.905 12.9392 3.7971 13.0069 3.7338 13.106 3.7173 13.1319 3.7042 13.1623 3.6781 13.2233L2.7381 15.4167M5.5952 15.4167L2.7381 15.4167M2.7381 15.4167L1.6667 17.9167" stroke="currentColor" stroke-linecap="round" stroke-linejoin="round" stroke-width="2"/>
</svg>
