<svg xmlns="http://www.w3.org/2000/svg" width="20" height="20" viewBox="0 0 20 20" fill="none">
  <path d="M5.8324 7.9167C5.6319 6.2542 6.5956 5.9141 9.9991 5.8333M9.9991 5.8333C13.4352 5.9172 14.4502 6.3319 14.1657 7.9167M9.9991 5.8333V14.1667M8.3324 14.1667H11.6658" stroke="currentColor" stroke-linecap="round" stroke-linejoin="round" stroke-width="2"/>
  <path d="M3.2427 3.2427C2.0833 4.4021 2.0833 6.268 2.0833 10 2.0833 13.7319 2.0833 15.5979 3.2427 16.7573 4.4021 17.9167 6.268 17.9167 10 17.9167 13.7319 17.9167 15.5979 17.9167 16.7573 16.7573 17.9167 15.5979 17.9167 13.7319 17.9167 10 17.9167 6.268 17.9167 4.4021 16.7573 3.2427 15.5979 2.0833 13.7319 2.0833 10 2.0833 6.268 2.0833 4.4021 2.0833 3.2427 3.2427Z" stroke="currentColor" stroke-linecap="round" stroke-linejoin="round" stroke-width="2"/>
</svg>
