<svg xmlns="http://www.w3.org/2000/svg" width="20" height="20" viewBox="0 0 20 20" fill="none">
  <path d="M2.4983 2.5184C4.3296 2.475 5.2247 2.4209 5.8316 3.7628M5.8316 3.7628C6.296 2.7195 6.9893 2.4227 9.1649 2.5184M5.8316 3.7628V15.7914M5.8316 15.7914C6.0241 17.2398 6.778 17.5862 9.1649 17.4505M5.8316 15.7914C5.5787 17.2761 4.8102 17.6448 2.4983 17.4505M3.3316 9.9845H8.3316" stroke="currentColor" stroke-linecap="round" stroke-linejoin="round" stroke-width="2"/>
  <path d="M17.4748 13.3026V17.0357M17.4748 13.3026C17.5142 12.6198 17.5156 12.0997 17.4333 11.6751 17.2395 10.6743 16.1906 10.0712 15.1757 9.9485 14.2043 9.8311 13.4245 10.0804 12.6358 11.2263M17.4748 13.3026L15.1088 13.3026C14.7452 13.3026 14.3786 13.3201 14.0283 13.4172 11.8878 14.0104 12.0447 17.0033 14.1916 17.3723 14.43 17.4133 14.6735 17.4307 14.9149 17.42 15.4788 17.3949 15.999 17.1234 16.4454 16.7792 16.9684 16.3759 17.4748 15.8131 17.4748 14.9618V13.3026Z" stroke="currentColor" stroke-linecap="round" stroke-linejoin="round" stroke-width="2"/>
</svg>
