<svg xmlns="http://www.w3.org/2000/svg" width="20" height="20" viewBox="0 0 20 20" fill="none">
  <path d="M2.5 2.5H17.5" stroke="currentColor" stroke-linecap="round" stroke-linejoin="round" stroke-width="2"/>
  <path d="M2.5 17.5H17.5" stroke="currentColor" stroke-linecap="round" stroke-linejoin="round" stroke-width="2"/>
  <path d="M12.5 7.5H17.5" stroke="currentColor" stroke-linecap="round" stroke-linejoin="round" stroke-width="2"/>
  <path d="M12.5 12.5H17.5" stroke="currentColor" stroke-linecap="round" stroke-linejoin="round" stroke-width="2"/>
  <path d="M2.9882 12.8452C3.4763 13.3333 4.262 13.3333 5.8333 13.3333 7.4047 13.3333 8.1904 13.3333 8.6785 12.8452 9.1667 12.357 9.1667 11.5713 9.1667 10 9.1667 8.4287 9.1667 7.643 8.6785 7.1548 8.1904 6.6667 7.4047 6.6667 5.8333 6.6667 4.262 6.6667 3.4763 6.6667 2.9882 7.1548 2.5 7.643 2.5 8.4287 2.5 10 2.5 11.5713 2.5 12.357 2.9882 12.8452Z" stroke="currentColor" stroke-linecap="round" stroke-linejoin="round" stroke-width="2"/>
</svg>
