<svg xmlns="http://www.w3.org/2000/svg" width="20" height="20" viewBox="0 0 20 20" fill="none">
  <path d="M11.6667 15.8333L9.2558 8.9566C8.1362 5.7633 7.5765 4.1667 6.6667 4.1667 5.7569 4.1667 5.1971 5.7633 4.0776 8.9566L1.6667 15.8333M3.75 10H9.5833" stroke="currentColor" stroke-linecap="round" stroke-linejoin="round" stroke-width="2"/>
  <path d="M18.3077 11.616V15.366M18.3077 11.616C18.347 10.9301 18.3485 10.4076 18.2662 9.9811 18.072 8.9757 17.0215 8.3699 16.005 8.2467 15.0321 8.1287 14.2513 8.3792 13.4613 9.5303M18.3077 11.616L15.938 11.616C15.5739 11.616 15.2068 11.6336 14.856 11.7311 12.7121 12.3271 12.8692 15.3336 15.0194 15.7042 15.2583 15.7453 15.5021 15.763 15.7439 15.7522 16.3086 15.727 16.8296 15.4542 17.2767 15.1084 17.8004 14.7033 18.3077 14.1379 18.3077 13.2827V11.616Z" stroke="currentColor" stroke-linecap="round" stroke-linejoin="round" stroke-width="2"/>
</svg>
