<svg xmlns="http://www.w3.org/2000/svg" width="20" height="20" viewBox="0 0 20 20" fill="none">
  <path d="M10.4167 17.5H5.4167" stroke="currentColor" stroke-linecap="round" stroke-linejoin="round" stroke-width="2"/>
  <path d="M13.75 5C13.75 4.4766 13.75 4.2149 13.6828 3.9856 13.5432 3.5086 13.1722 3.0976 12.7118 2.9102 12.4905 2.8201 12.2404 2.7946 11.7403 2.7435 10.5579 2.6227 9.0728 2.5 7.9167 2.5 6.7605 2.5 5.2754 2.6227 4.093 2.7435 3.5929 2.7946 3.3429 2.8201 3.1216 2.9102 2.6612 3.0976 2.2901 3.5086 2.1505 3.9856 2.0833 4.2149 2.0833 4.4766 2.0833 5" stroke="currentColor" stroke-linecap="round" stroke-width="2"/>
  <path d="M7.9167 2.7905L7.9167 17.3738" stroke="currentColor" stroke-linecap="round" stroke-width="2"/>
  <path d="M17.9167 17.5H16.25C15.8572 17.5 15.6608 17.5 15.5387 17.3805 15.4167 17.2611 15.4167 17.0688 15.4167 16.6842V15.8972C15.4167 15.2343 15.5633 15.1044 16.2503 15.0912 16.8974 15.0787 17.2834 15.0323 17.5506 14.8611 17.9167 14.6263 17.9167 14.2486 17.9167 13.493 17.9167 12.0495 15.4167 12.6052 15.4167 12.6052" stroke="currentColor" stroke-linecap="round" stroke-linejoin="round" stroke-width="2"/>
</svg>
