<svg xmlns="http://www.w3.org/2000/svg" width="20" height="20" viewBox="0 0 20 20" fill="none">
  <path d="M8.8095 17.5H4.5238M6.6667 2.5V17.5M6.6667 2.5C5.6757 2.5 4.4027 2.6022 3.3892 2.7029 2.9606 2.7455 2.7463 2.7668 2.5566 2.8418 2.162 2.998 1.8439 3.3405 1.7242 3.738 1.6667 3.9291 1.6667 4.1472 1.6667 4.5833M6.6667 2.5C7.1727 2.5 7.7523 2.5267 8.3333 2.5661" stroke="currentColor" stroke-linecap="round" stroke-width="2"/>
  <path d="M15.4755 17.5H11.1898M13.3327 2.5V17.5M13.3327 2.5C14.3236 2.5 15.5966 2.6022 16.6101 2.7029 17.0388 2.7455 17.253 2.7668 17.4428 2.8418 17.8373 2.998 18.1554 3.3405 18.2751 3.738 18.3327 3.9291 18.3327 4.1472 18.3327 4.5833M13.3327 2.5C12.8268 2.5 12.2473 2.5266 11.6666 2.5661" stroke="currentColor" stroke-linecap="round" stroke-width="2"/>
</svg>
