<svg xmlns="http://www.w3.org/2000/svg" width="20" height="20" viewBox="0 0 20 20" fill="none">
  <path d="M16.6667 15V5M5 16.6667H15M15 3.3333H5M3.3333 5V15" stroke="currentColor" stroke-linecap="round" stroke-linejoin="round" stroke-width="2"/>
  <path d="M13.2615 8.3333C13.4906 6.9211 12.4612 6.7228 9.9637 6.6667 7.2784 6.7162 6.4209 7.0261 6.6658 8.3333M9.9637 6.6667V13.3333M8.727 13.3333H11.2004" stroke="currentColor" stroke-linecap="round" stroke-linejoin="round" stroke-width="2"/>
  <path d="M17.5 1.6667H15.8333C15.3731 1.6667 15 2.0398 15 2.5V4.1667C15 4.6269 15.3731 5 15.8333 5H17.5C17.9602 5 18.3333 4.6269 18.3333 4.1667V2.5C18.3333 2.0398 17.9602 1.6667 17.5 1.6667Z" stroke="currentColor" stroke-width="2"/>
  <path d="M4.1667 1.6667H2.5C2.0398 1.6667 1.6667 2.0398 1.6667 2.5V4.1667C1.6667 4.6269 2.0398 5 2.5 5H4.1667C4.6269 5 5 4.6269 5 4.1667V2.5C5 2.0398 4.6269 1.6667 4.1667 1.6667Z" stroke="currentColor" stroke-width="2"/>
  <path d="M17.5 15H15.8333C15.3731 15 15 15.3731 15 15.8333V17.5C15 17.9602 15.3731 18.3333 15.8333 18.3333H17.5C17.9602 18.3333 18.3333 17.9602 18.3333 17.5V15.8333C18.3333 15.3731 17.9602 15 17.5 15Z" stroke="currentColor" stroke-width="2"/>
  <path d="M4.1667 15H2.5C2.0398 15 1.6667 15.3731 1.6667 15.8333V17.5C1.6667 17.9602 2.0398 18.3333 2.5 18.3333H4.1667C4.6269 18.3333 5 17.9602 5 17.5V15.8333C5 15.3731 4.6269 15 4.1667 15Z" stroke="currentColor" stroke-width="2"/>
</svg>
