<svg xmlns="http://www.w3.org/2000/svg" width="20" height="20" viewBox="0 0 20 20" fill="none">
  <path d="M2.5 2.9167H7.5" stroke="currentColor" stroke-linecap="round" stroke-linejoin="round" stroke-width="2"/>
  <path d="M2.5 7.9167H7.5" stroke="currentColor" stroke-linecap="round" stroke-linejoin="round" stroke-width="2"/>
  <path d="M2.5 12.9167H17.5" stroke="currentColor" stroke-linecap="round" stroke-linejoin="round" stroke-width="2"/>
  <path d="M2.5 17.9167H17.5" stroke="currentColor" stroke-linecap="round" stroke-linejoin="round" stroke-width="2"/>
  <path d="M11.3215 8.2618C11.8097 8.75 12.5953 8.75 14.1667 8.75 15.738 8.75 16.5237 8.75 17.0118 8.2618 17.5 7.7737 17.5 6.988 17.5 5.4167 17.5 3.8453 17.5 3.0596 17.0118 2.5715 16.5237 2.0833 15.738 2.0833 14.1667 2.0833 12.5953 2.0833 11.8097 2.0833 11.3215 2.5715 10.8333 3.0596 10.8333 3.8453 10.8333 5.4167 10.8333 6.988 10.8333 7.7737 11.3215 8.2618Z" stroke="currentColor" stroke-linecap="round" stroke-linejoin="round" stroke-width="2"/>
</svg>
