<svg xmlns="http://www.w3.org/2000/svg" width="20" height="20" viewBox="0 0 20 20" fill="none">
  <path d="M10 17.5H5" stroke="currentColor" stroke-linecap="round" stroke-linejoin="round" stroke-width="2"/>
  <path d="M8.125 2.5C8.125 2.1548 7.8452 1.875 7.5 1.875 7.1548 1.875 6.875 2.1548 6.875 2.5H8.125ZM6.875 17.5C6.875 17.8452 7.1548 18.125 7.5 18.125 7.8452 18.125 8.125 17.8452 8.125 17.5H6.875ZM6.875 2.5V17.5H8.125V2.5H6.875Z" fill="currentColor"/>
  <path d="M13.3333 5C13.3333 4.4766 13.3333 4.2149 13.2662 3.9856 13.1265 3.5086 12.7555 3.0976 12.2951 2.9102 12.0738 2.8201 11.8238 2.7946 11.3237 2.7435 10.1412 2.6227 8.6562 2.5 7.5 2.5 6.3438 2.5 4.8587 2.6227 3.6763 2.7435 3.1763 2.7946 2.9262 2.8201 2.7049 2.9102 2.2445 3.0976 1.8735 3.5086 1.7338 3.9856 1.6667 4.2149 1.6667 4.4766 1.6667 5" stroke="currentColor" stroke-linecap="round" stroke-width="2"/>
  <path d="M18.3333 10H16.6667C16.2738 10 16.0774 10 15.9553 9.8805 15.8333 9.7611 15.8333 9.5687 15.8333 9.1842V8.3972C15.8333 7.7343 15.98 7.6044 16.667 7.5912 17.3141 7.5786 17.7001 7.5324 17.9672 7.3611 18.3333 7.1263 18.3333 6.7486 18.3333 5.993 18.3333 4.5495 15.8333 5.1051 15.8333 5.1051" stroke="currentColor" stroke-linecap="round" stroke-linejoin="round" stroke-width="2"/>
</svg>
