<svg xmlns="http://www.w3.org/2000/svg" width="20" height="20" viewBox="0 0 20 20" fill="none">
  <path d="M9.1667 16.6675H4.1667" stroke="currentColor" stroke-linecap="round" stroke-linejoin="round" stroke-width="2"/>
  <path d="M10 3.3333L6.6667 16.6673M10 3.3333C11.1562 3.3333 12.6412 3.3588 13.8237 3.4804 14.3238 3.5318 14.5738 3.5575 14.7951 3.6482 15.2555 3.8369 15.6265 4.2505 15.7662 4.7307 15.8333 4.9615 15.8333 5.2249 15.8333 5.7518M10 3.3333C8.8438 3.3333 7.3587 3.3588 6.1763 3.4804 5.6762 3.5318 5.4262 3.5575 5.2049 3.6482 4.7445 3.8369 4.3735 4.2505 4.2338 4.7307 4.1667 4.9615 4.1667 5.2249 4.1667 5.7518" stroke="currentColor" stroke-linecap="round" stroke-width="2"/>
  <path d="M11.6667 12.5L15.8333 16.6667M11.6667 16.6667L15.8333 12.5" stroke="currentColor" stroke-linecap="round" stroke-linejoin="round" stroke-width="2"/>
</svg>
