<svg xmlns="http://www.w3.org/2000/svg" width="20" height="20" viewBox="0 0 20 20" fill="none">
  <path d="M18.3333 15.8333H1.6667M18.3333 15.8333C18.3333 15.3665 17.0038 14.4943 16.6667 14.1667M18.3333 15.8333C18.3333 16.3002 17.0038 17.1723 16.6667 17.5M1.6667 15.8333C1.6667 15.3665 2.9962 14.4943 3.3333 14.1667M1.6667 15.8333C1.6667 16.3002 2.9962 17.1723 3.3333 17.5" stroke="currentColor" stroke-linecap="round" stroke-linejoin="round" stroke-width="2"/>
  <path d="M18.3333 11.6667L16.7262 7.0833M16.7262 7.0833L15.3161 3.062C15.277 2.9504 15.2574 2.8946 15.2327 2.8472 15.1377 2.6655 14.9758 2.5413 14.7911 2.5085 14.7429 2.5 14.6898 2.5 14.5833 2.5 14.4769 2.5 14.4238 2.5 14.3756 2.5085 14.1909 2.5413 14.0289 2.6655 13.934 2.8472 13.9093 2.8946 13.8897 2.9504 13.8506 3.062L12.4405 7.0833M16.7262 7.0833L12.4405 7.0833M12.4405 7.0833L10.8333 11.6667" stroke="currentColor" stroke-linecap="round" stroke-linejoin="round" stroke-width="2"/>
  <path d="M1.6667 2.5L4.6839 11.1047C4.723 11.2163 4.7426 11.2721 4.7674 11.3195 4.8622 11.5012 5.0242 11.6254 5.2089 11.6582 5.2571 11.6667 5.3103 11.6667 5.4167 11.6667 5.5231 11.6667 5.5763 11.6667 5.6245 11.6582 5.8091 11.6254 5.9711 11.5012 6.066 11.3195 6.0907 11.2721 6.1103 11.2163 6.1494 11.1047L9.1667 2.5" stroke="currentColor" stroke-linecap="round" stroke-linejoin="round" stroke-width="2"/>
</svg>
