<svg xmlns="http://www.w3.org/2000/svg" width="20" height="20" viewBox="0 0 20 20" fill="none">
  <path d="M6.25 12.5H3.75M5 2.5V12.5M5 2.5C4.3393 2.5 3.4907 2.5954 2.8151 2.6894 2.5293 2.7291 2.3864 2.749 2.2599 2.8191 1.9969 2.9648 1.7848 3.2844 1.705 3.6554 1.6667 3.8338 1.6667 4.0374 1.6667 4.4444M5 2.5C5.6607 2.5 6.5093 2.5954 7.185 2.6894 7.4707 2.7291 7.6136 2.749 7.7401 2.8191 8.0031 2.9648 8.2152 3.2844 8.295 3.6554 8.3333 3.8338 8.3333 4.0374 8.3333 4.4444" stroke="currentColor" stroke-linecap="round" stroke-width="2"/>
  <path d="M16.25 12.5H13.75M15 2.5V12.5M15 2.5C14.3393 2.5 13.4907 2.5954 12.8151 2.6894 12.5293 2.7291 12.3864 2.749 12.2599 2.8191 11.9969 2.9648 11.7848 3.2844 11.705 3.6554 11.6667 3.8338 11.6667 4.0374 11.6667 4.4444M15 2.5C15.6607 2.5 16.5093 2.5954 17.1849 2.6894 17.4708 2.7291 17.6136 2.749 17.7401 2.8191 18.0031 2.9648 18.2152 3.2844 18.295 3.6554 18.3333 3.8338 18.3333 4.0374 18.3333 4.4444" stroke="currentColor" stroke-linecap="round" stroke-width="2"/>
  <path d="M1.6667 15.8333H8.3333" stroke="currentColor" stroke-linecap="round" stroke-linejoin="round" stroke-width="2"/>
  <path d="M11.6667 15.8333L18.3333 15.8333" stroke="currentColor" stroke-linecap="round" stroke-linejoin="round" stroke-width="2"/>
  <circle cx="10" cy="15.833333333333334" r="1.6666666666666667" stroke="currentColor" stroke-linecap="round" stroke-linejoin="round" stroke-width="2"/>
</svg>
