<svg xmlns="http://www.w3.org/2000/svg" width="20" height="20" viewBox="0 0 20 20" fill="none">
  <path d="M2.5 2.5001H17.5" stroke="currentColor" stroke-linecap="round" stroke-linejoin="round" stroke-width="2"/>
  <path d="M2.5 17.5001H17.5" stroke="currentColor" stroke-linecap="round" stroke-linejoin="round" stroke-width="2"/>
  <path d="M2.5 7.5H7.5" stroke="currentColor" stroke-linecap="round" stroke-linejoin="round" stroke-width="2"/>
  <path d="M2.5 12.5H7.5" stroke="currentColor" stroke-linecap="round" stroke-linejoin="round" stroke-width="2"/>
  <path d="M11.3215 12.8452C11.8097 13.3333 12.5953 13.3333 14.1667 13.3333 15.738 13.3333 16.5237 13.3333 17.0118 12.8452 17.5 12.357 17.5 11.5713 17.5 10 17.5 8.4287 17.5 7.643 17.0118 7.1548 16.5237 6.6667 15.738 6.6667 14.1667 6.6667 12.5953 6.6667 11.8097 6.6667 11.3215 7.1548 10.8333 7.643 10.8333 8.4287 10.8333 10 10.8333 11.5713 10.8333 12.357 11.3215 12.8452Z" stroke="currentColor" stroke-linecap="round" stroke-linejoin="round" stroke-width="2"/>
</svg>
