<svg xmlns="http://www.w3.org/2000/svg" width="20" height="20" viewBox="0 0 20 20" fill="none">
  <path d="M4.1667 5C4.1667 3.8215 4.1667 3.2322 4.5328 2.8661 4.8989 2.5 5.4882 2.5 6.6667 2.5H10.4824C12.5172 2.5 14.1667 4.1789 14.1667 6.25 14.1667 8.3211 12.5172 10 10.4824 10H4.1667V5Z" stroke="currentColor" fill-rule="evenodd" clip-rule="evenodd" stroke-linecap="round" stroke-linejoin="round" stroke-width="2"/>
  <path d="M10.3572 10H11.3889C13.3833 10 15 11.6789 15 13.75 15 15.8211 13.3833 17.5 11.3889 17.5H6.6667C5.4882 17.5 4.8989 17.5 4.5328 17.1339 4.1667 16.7678 4.1667 16.1785 4.1667 15V10" stroke="currentColor" stroke-linecap="round" stroke-linejoin="round" stroke-width="2"/>
</svg>
