<svg xmlns="http://www.w3.org/2000/svg" width="20" height="20" viewBox="0 0 20 20" fill="none">
  <path d="M12.5 2.9167H17.5" stroke="currentColor" stroke-linecap="round" stroke-linejoin="round" stroke-width="2"/>
  <path d="M12.5 7.9167H17.5" stroke="currentColor" stroke-linecap="round" stroke-linejoin="round" stroke-width="2"/>
  <path d="M2.5 12.9167H17.5" stroke="currentColor" stroke-linecap="round" stroke-linejoin="round" stroke-width="2"/>
  <path d="M2.5 17.9167H17.5" stroke="currentColor" stroke-linecap="round" stroke-linejoin="round" stroke-width="2"/>
  <path d="M2.9882 8.2618C3.4763 8.75 4.262 8.75 5.8333 8.75 7.4047 8.75 8.1904 8.75 8.6785 8.2618 9.1667 7.7737 9.1667 6.988 9.1667 5.4167 9.1667 3.8453 9.1667 3.0596 8.6785 2.5715 8.1904 2.0833 7.4047 2.0833 5.8333 2.0833 4.262 2.0833 3.4763 2.0833 2.9882 2.5715 2.5 3.0596 2.5 3.8453 2.5 5.4167 2.5 6.988 2.5 7.7737 2.9882 8.2618Z" stroke="currentColor" stroke-linecap="round" stroke-linejoin="round" stroke-width="2"/>
</svg>
