<svg xmlns="http://www.w3.org/2000/svg" width="20" height="20" viewBox="0 0 20 20" fill="none">
  <path d="M7.5 17.5C7.5 16.7234 7.5 16.3352 7.3731 16.0288 7.204 15.6205 6.8795 15.296 6.4711 15.1268 6.1649 15 5.7766 15 5 15 4.2234 15 3.8352 15 3.5289 15.1268 3.1205 15.296 2.796 15.6205 2.6269 16.0288 2.5 16.3352 2.5 16.7234 2.5 17.5" stroke="currentColor" stroke-linecap="round" stroke-linejoin="round" stroke-width="2"/>
  <path d="M12.5 17.5C12.5 16.7234 12.5 16.3352 12.3732 16.0288 12.204 15.6205 11.8795 15.296 11.4712 15.1268 11.1648 15 10.7766 15 10 15 9.2234 15 8.8352 15 8.5288 15.1268 8.1205 15.296 7.796 15.6205 7.6269 16.0288 7.5 16.3352 7.5 16.7234 7.5 17.5" stroke="currentColor" stroke-linecap="round" stroke-linejoin="round" stroke-width="2"/>
  <path d="M17.5 17.5C17.5 16.7234 17.5 16.3352 17.3732 16.0288 17.204 15.6205 16.8795 15.296 16.4712 15.1268 16.1648 15 15.7766 15 15 15 14.2234 15 13.8352 15 13.5288 15.1268 13.1205 15.296 12.796 15.6205 12.6268 16.0288 12.5 16.3352 12.5 16.7234 12.5 17.5" stroke="currentColor" stroke-linecap="round" stroke-linejoin="round" stroke-width="2"/>
  <path d="M11.6667 2.5C11.6667 6.1667 14.6667 9.1667 18.3333 9.1667" stroke="currentColor" stroke-linecap="round" stroke-linejoin="round" stroke-width="2"/>
  <path d="M15.8333 2.5C15.8333 6.6667 18.3333 9.1667 18.3333 9.1667 18.3333 9.1667 16.6667 10 16.6667 12.5" stroke="currentColor" stroke-linecap="round" stroke-linejoin="round" stroke-width="2"/>
  <path d="M8.3333 2.5C8.3333 6.1667 5.3333 9.1667 1.6667 9.1667" stroke="currentColor" stroke-linecap="round" stroke-linejoin="round" stroke-width="2"/>
  <path d="M4.1667 2.5C4.1667 6.6667 1.6667 9.1667 1.6667 9.1667 1.6667 9.1667 3.3333 10 3.3333 12.5" stroke="currentColor" stroke-linecap="round" stroke-linejoin="round" stroke-width="2"/>
</svg>
