<svg xmlns="http://www.w3.org/2000/svg" width="20" height="20" viewBox="0 0 20 20" fill="none">
  <path d="M2.5 18.3333V16.25C2.5 14.5264 2.7878 14.1667 4.1667 14.1667H14.1667C15.5456 14.1667 15.8333 14.5264 15.8333 16.25V18.3333H2.5Z" stroke="currentColor" stroke-linecap="round" stroke-linejoin="round" stroke-width="2"/>
  <path d="M1.6667 18.3333H18.3333" stroke="currentColor" stroke-linecap="round" stroke-linejoin="round" stroke-width="2"/>
  <path d="M14.5938 5C13.3082 3.3333 15.2824 2.5 15.8333 1.6667 16.3843 2.5 18.3585 3.3333 17.0729 5H14.5938Z" stroke="currentColor" stroke-linecap="round" stroke-linejoin="round" stroke-width="2"/>
  <path d="M14.5833 5L14.1667 14.1667M14.1667 18.3333H17.5L17.0833 5" stroke="currentColor" stroke-linecap="round" stroke-linejoin="round" stroke-width="2"/>
  <path d="M9.1672 6.6667C10.82 8.5417 14.166 9.1667 14.166 14.1667H4.1667C4.1667 9.1667 7.5126 8.5417 9.1655 6.6667" stroke="currentColor" stroke-linecap="round" stroke-linejoin="round" stroke-width="2"/>
</svg>
