<svg xmlns="http://www.w3.org/2000/svg" width="20" height="20" viewBox="0 0 20 20" fill="none">
  <path d="M14.5833 18.3333C16.4243 18.3333 17.9167 16.8409 17.9167 15 17.9167 14.1113 17.5689 13.3038 17.002 12.7063 16.5798 12.2612 16.3686 12.0386 16.3093 11.8899 16.25 11.7412 16.25 11.5446 16.25 11.1513V3.3333C16.25 2.4129 15.5038 1.6667 14.5833 1.6667 13.6628 1.6667 12.9167 2.4129 12.9167 3.3333V11.1513C12.9167 11.5446 12.9167 11.7412 12.8573 11.8899 12.7981 12.0386 12.5869 12.2612 12.1647 12.7063 11.5977 13.3038 11.25 14.1113 11.25 15 11.25 16.8409 12.7424 18.3333 14.5833 18.3333Z" stroke="currentColor" stroke-linecap="round" stroke-linejoin="round" stroke-width="2"/>
  <path d="M7.5379 4.1667V7.2135M7.5379 7.2135V11.9532M7.5379 7.2135L9.2424 5.5208M7.5379 7.2135L5.8333 5.5208M7.5379 11.9532L7.5379 15M7.5379 11.9532L5.8333 13.6458M7.5379 11.9532L9.2424 13.6458M3.447 7.8906L5.1515 9.5833M5.1515 9.5833L3.447 11.276M5.1515 9.5833H9.5833M5.1515 9.5833H2.0833" stroke="currentColor" stroke-linecap="round" stroke-linejoin="round" stroke-width="2"/>
</svg>
