<svg xmlns="http://www.w3.org/2000/svg" width="20" height="20" viewBox="0 0 20 20" fill="none">
  <path d="M11.6667 13.3333C12.4367 13.3333 13.0611 12.9069 13.0611 12.3809 13.0611 11.3637 13.0724 10.9447 13.9625 10.3368 14.2348 10.1508 14.2348 9.8493 13.9625 9.6633 13.0724 9.0553 13.0611 8.6363 13.0611 7.6191 13.0611 7.0931 12.4367 6.6667 11.6667 6.6667M8.3333 13.3333C7.5632 13.3333 6.9389 12.9069 6.9389 12.3809 6.9389 11.3637 6.9276 10.9447 6.0375 10.3368 5.7653 10.1508 5.7653 9.8493 6.0375 9.6633 6.9276 9.0553 6.9389 8.6363 6.9389 7.6191 6.9389 7.0931 7.5632 6.6667 8.3333 6.6667" stroke="currentColor" stroke-linecap="round" stroke-linejoin="round" stroke-width="2"/>
  <circle cx="10" cy="10" r="8.333333333333334" stroke="currentColor" stroke-width="2"/>
</svg>
