<svg xmlns="http://www.w3.org/2000/svg" width="20" height="20" viewBox="0 0 20 20" fill="none">
  <path d="M2.0833 10C2.0833 6.268 2.0833 4.4021 3.2427 3.2427 4.4021 2.0833 6.268 2.0833 10 2.0833 13.7319 2.0833 15.5979 2.0833 16.7573 3.2427 17.9167 4.4021 17.9167 6.268 17.9167 10 17.9167 13.7319 17.9167 15.5979 16.7573 16.7573 15.5979 17.9167 13.7319 17.9167 10 17.9167 6.268 17.9167 4.4021 17.9167 3.2427 16.7573 2.0833 15.5979 2.0833 13.7319 2.0833 10Z" stroke="currentColor" stroke-linecap="round" stroke-linejoin="round" stroke-width="2"/>
  <path d="M14.1667 7.9912C13.2603 4.6194 10.1437 4.8301 10.1437 4.8301 10.1437 4.8301 5.8333 4.5431 5.8333 9.9999 5.8333 15.4568 10.1437 15.1697 10.1437 15.1697 10.1437 15.1697 12.7056 15.3403 13.8793 12.9184 14.2624 11.8507 14.1667 9.7153 10.431 9.7153 10.431 9.7153 8.7069 9.7153 8.7069 11.1521 8.7069 11.7133 9.2816 12.3016 10.1437 12.3016 11.0057 12.3016 11.9662 11.7112 12.1552 10.5774 12.7299 7.1291 9.569 6.8418 8.7069 8.2786" stroke="currentColor" stroke-linecap="round" stroke-width="2"/>
</svg>
