<svg xmlns="http://www.w3.org/2000/svg" width="20" height="20" viewBox="0 0 20 20" fill="none">
  <path d="M2.0833 10C2.0833 6.268 2.0833 4.4021 3.2427 3.2427 4.4021 2.0833 6.268 2.0833 10 2.0833 13.7319 2.0833 15.5979 2.0833 16.7573 3.2427 17.9167 4.4021 17.9167 6.268 17.9167 10 17.9167 13.7319 17.9167 15.5979 16.7573 16.7573 15.5979 17.9167 13.7319 17.9167 10 17.9167 6.268 17.9167 4.4021 17.9167 3.2427 16.7573 2.0833 15.5979 2.0833 13.7319 2.0833 10Z" stroke="currentColor" stroke-linecap="round" stroke-linejoin="round" stroke-width="2"/>
  <path d="M10.4167 10H9.5833M10.4167 10C11.5672 10 12.5 9.0672 12.5 7.9167 12.5 6.7661 11.5672 5.8333 10.4167 5.8333H9.5833C8.4328 5.8333 7.5 6.7661 7.5 7.9167M10.4167 10C11.5672 10 12.5 10.9328 12.5 12.0833 12.5 13.2339 11.5672 14.1667 10.4167 14.1667H9.5833C8.4328 14.1667 7.5 13.2339 7.5 12.0833" stroke="currentColor" stroke-linecap="round" stroke-linejoin="round" stroke-width="2"/>
</svg>
