<svg xmlns="http://www.w3.org/2000/svg" width="20" height="20" viewBox="0 0 20 20" fill="none">
  <path d="M10 10.8333L14.1667 14.5833M10 10.8333L5.8333 14.5833M10 10.8333V6.6667" stroke="currentColor" stroke-width="2"/>
  <path d="M15.1596 13.7047C15.5901 13.4571 15.8053 13.3333 16.0417 13.3333 16.278 13.3333 16.4932 13.4571 16.9237 13.7047L17.4513 14.0081C17.8818 14.2557 18.097 14.3794 18.2152 14.5833 18.3333 14.7873 18.3333 15.0348 18.3333 15.5299V16.1368C18.3333 16.6318 18.3333 16.8794 18.2152 17.0833 18.097 17.2873 17.8818 17.411 17.4513 17.6586L16.9237 17.962C16.4932 18.2096 16.278 18.3333 16.0417 18.3333 15.8053 18.3333 15.5901 18.2096 15.1596 17.962L14.6321 17.6586C14.2016 17.411 13.9863 17.2873 13.8682 17.0833 13.75 16.8794 13.75 16.6318 13.75 16.1368V15.5299C13.75 15.0348 13.75 14.7873 13.8682 14.5833 13.9863 14.3794 14.2016 14.2557 14.6321 14.0081L15.1596 13.7047Z" stroke="currentColor" stroke-width="2"/>
  <path d="M3.0763 13.7047C3.5068 13.4571 3.722 13.3333 3.9583 13.3333 4.1947 13.3333 4.4099 13.4571 4.8404 13.7047L5.3679 14.0081C5.7984 14.2557 6.0137 14.3794 6.1318 14.5833 6.25 14.7873 6.25 15.0348 6.25 15.5299V16.1368C6.25 16.6318 6.25 16.8794 6.1318 17.0833 6.0137 17.2873 5.7984 17.411 5.3679 17.6586L4.8404 17.962C4.4099 18.2096 4.1947 18.3333 3.9583 18.3333 3.722 18.3333 3.5068 18.2096 3.0763 17.962L2.5487 17.6586C2.1183 17.411 1.903 17.2873 1.7848 17.0833 1.6667 16.8794 1.6667 16.6318 1.6667 16.1368V15.5299C1.6667 15.0348 1.6667 14.7873 1.7848 14.5833 1.903 14.3794 2.1183 14.2557 2.5487 14.0081L3.0763 13.7047Z" stroke="currentColor" stroke-width="2"/>
  <path d="M9.1179 2.038C9.5484 1.7905 9.7637 1.6667 10 1.6667 10.2363 1.6667 10.4516 1.7905 10.8821 2.038L11.4096 2.3414C11.8401 2.589 12.0553 2.7128 12.1735 2.9167 12.2917 3.1206 12.2917 3.3681 12.2917 3.8633V4.4701C12.2917 4.9652 12.2917 5.2128 12.1735 5.4167 12.0553 5.6206 11.8401 5.7443 11.4096 5.9919L10.8821 6.2953C10.4516 6.5429 10.2363 6.6667 10 6.6667 9.7637 6.6667 9.5484 6.5429 9.1179 6.2953L8.5904 5.9919C8.1599 5.7443 7.9447 5.6206 7.8265 5.4167 7.7083 5.2128 7.7083 4.9652 7.7083 4.4701V3.8633C7.7083 3.3681 7.7083 3.1206 7.8265 2.9167 7.9447 2.7128 8.1599 2.589 8.5904 2.3414L9.1179 2.038Z" stroke="currentColor" stroke-width="2"/>
</svg>
