<svg xmlns="http://www.w3.org/2000/svg" width="20" height="20" viewBox="0 0 20 20" fill="none">
  <path d="M10 9.5833C10.4129 9.5833 10.7968 9.4179 11.5646 9.0871L12.1186 8.8483C13.484 8.26 14.1667 7.9659 14.1667 7.5 14.1667 7.0342 13.484 6.74 12.1186 6.1516L11.5646 5.9129C10.7968 5.5821 10.4129 5.4167 10 5.4167 9.5871 5.4167 9.2032 5.5821 8.4354 5.9129L7.8814 6.1516C6.516 6.74 5.8333 7.0342 5.8333 7.5 5.8333 7.9659 6.516 8.26 7.8814 8.8483L8.4354 9.0871C9.2032 9.4179 9.5871 9.5833 10 9.5833ZM10 9.5833V14.5833" stroke="currentColor" stroke-linejoin="round" stroke-width="2"/>
  <path d="M14.1667 7.5V12.5C14.1667 12.9658 13.484 13.26 12.1186 13.8483L11.5646 14.0871C10.7968 14.4179 10.4129 14.5833 10 14.5833 9.5871 14.5833 9.2032 14.4179 8.4354 14.0871L7.8814 13.8483C6.516 13.26 5.8333 12.9658 5.8333 12.5V7.5" stroke="currentColor" stroke-linejoin="round" stroke-width="2"/>
  <path d="M7.6202 2.0833C5.406 2.134 4.1127 2.3455 3.2291 3.2291 2.3455 4.1127 2.134 5.406 2.0833 7.6202M12.3798 2.0833C14.594 2.134 15.8872 2.3455 16.7709 3.2291 17.6545 4.1127 17.866 5.406 17.9167 7.6202M12.3798 17.9167C14.594 17.866 15.8872 17.6545 16.7709 16.7709 17.6545 15.8872 17.866 14.594 17.9167 12.3798M7.6202 17.9167C5.406 17.866 4.1127 17.6545 3.2291 16.7709 2.3455 15.8872 2.134 14.594 2.0833 12.3798" stroke="currentColor" stroke-linecap="round" stroke-linejoin="round" stroke-width="2"/>
</svg>
