<svg xmlns="http://www.w3.org/2000/svg" width="20" height="20" viewBox="0 0 20 20" fill="none">
  <path d="M6.4664 11.2329L6.4512 4.1907C6.4497 3.4997 7.01 2.9387 7.7018 2.9387 8.3924 2.9387 8.9523 3.498 8.9523 4.188M8.9523 4.188V8.338M8.9523 4.188L8.9523 2.9144C8.9523 2.2244 9.5122 1.665 10.2028 1.665 10.8946 1.665 11.4549 2.226 11.4534 2.9171L11.4534 9.1753M13.9545 9.9981V8.454M13.9545 8.454V4.569C13.956 3.878 13.3957 3.317 12.704 3.317 12.0133 3.317 11.4534 3.8764 11.4534 4.5663M13.9545 8.454C14.6267 8.3533 16.2703 8.454 16.4563 10.0019V13.07C16.4563 14.2029 16.2648 15.1195 15.1071 16.4507 14.6776 17.0134 14.7372 17.5789 14.7372 18.335M6.4584 7.4993C5.9275 7.9626 4.5848 9.2315 3.8321 10.3796 2.7867 11.9742 4.8515 14.0523 5.7058 15.2101 6.9693 16.7207 6.885 16.6785 6.885 18.3293" stroke="currentColor" stroke-linecap="round" stroke-width="2"/>
</svg>
