<svg xmlns="http://www.w3.org/2000/svg" width="20" height="20" viewBox="0 0 20 20" fill="none">
  <path d="M9.5837 5C9.5837 4.3096 9.0241 3.75 8.3337 3.75 7.6433 3.75 7.0837 4.3096 7.0837 5V11.6356L5.7331 10.2808C5.1406 9.6864 4.1648 9.7407 3.6414 10.3969 3.2409 10.8991 3.2298 11.6095 3.6145 12.1239L6.1178 15.4723C6.6859 16.2321 6.97 16.612 7.3118 16.9073 7.8333 17.3578 8.4583 17.6713 9.1305 17.8195 9.5711 17.9167 10.0445 17.9167 10.9913 17.9167 12.7968 17.9167 13.6996 17.9167 14.4183 17.6399 15.5173 17.2168 16.3856 16.3457 16.8074 15.2432 17.0833 14.5223 17.0833 13.6167 17.0833 11.8056V9.5833C17.0833 8.6628 16.3375 7.9167 15.417 7.9167H14.5837M9.5837 5V3.3333C9.5837 2.643 10.1433 2.0833 10.8337 2.0833 11.5241 2.0833 12.0837 2.643 12.0837 3.3333V5M9.5837 5V8.75M12.0837 5V8.75M12.0837 5C12.0837 4.3096 12.6433 3.75 13.3337 3.75 14.0241 3.75 14.5837 4.3096 14.5837 5V7.9167M14.5837 7.9167V9.5833" stroke="currentColor" stroke-linecap="round" stroke-linejoin="round" stroke-width="2"/>
</svg>
