<svg xmlns="http://www.w3.org/2000/svg" width="20" height="20" viewBox="0 0 20 20" fill="none">
  <path d="M18.3333 10C18.3333 14.6023 14.6023 18.3333 10 18.3333 5.3976 18.3333 1.6667 14.6023 1.6667 10 1.6667 5.3976 5.3976 1.6667 10 1.6667 14.6023 1.6667 18.3333 5.3976 18.3333 10Z" stroke="currentColor" stroke-width="2"/>
  <path d="M14.1667 7.9912C13.2603 4.6194 10.1437 4.8301 10.1437 4.8301 10.1437 4.8301 5.8333 4.5431 5.8333 9.9999 5.8333 15.4568 10.1437 15.1697 10.1437 15.1697 10.1437 15.1697 12.7056 15.3403 13.8793 12.9184 14.2624 11.8507 14.1667 9.7153 10.431 9.7153 10.431 9.7153 8.7069 9.7153 8.7069 11.1521 8.7069 11.7133 9.2816 12.3016 10.1437 12.3016 11.0057 12.3016 11.9662 11.7112 12.1552 10.5774 12.7299 7.1291 9.569 6.8418 8.7069 8.2786" stroke="currentColor" stroke-linecap="round" stroke-width="2"/>
</svg>
