<svg xmlns="http://www.w3.org/2000/svg" width="20" height="20" viewBox="0 0 20 20" fill="none">
  <path d="M6.4716 11.6586V4.9857C6.4701 4.294 6.9951 3.7351 7.6868 3.7351 8.3774 3.7351 8.9575 4.2977 8.9575 4.9884M8.9575 4.9884V8.7347M8.9575 4.9884V3.3322C8.9575 2.6415 9.5173 2.0816 10.208 2.0816 10.8998 2.0816 11.4601 2.6431 11.4586 3.3349V8.7292M13.9597 9.565V4.9884C13.9612 4.2967 13.4008 3.7351 12.7092 3.7351 12.0185 3.7351 11.4586 4.295 11.4586 4.9857M13.9597 8.0214C14.6318 7.9205 16.2865 8.0214 16.4556 9.5689V12.6205C16.4556 13.7545 16.5419 15.1187 15.5703 16.2788 14.9873 17.1463 13.7422 17.6211 13.7422 17.6211 12.4589 18.0448 11.2972 17.8737 10.5368 17.9013 9.6738 17.9328 9.0833 17.9358 8.36 17.7753 8.36 17.7753 6.7103 17.4938 5.6614 15.7211 4.8558 14.3597 2.7614 12.4424 3.8489 10.7105 4.5505 9.5932 5.9363 8.3708 6.4716 7.9032" stroke="currentColor" stroke-linecap="round" stroke-width="2"/>
</svg>
