<svg xmlns="http://www.w3.org/2000/svg" width="20" height="20" viewBox="0 0 20 20" fill="none">
  <path d="M10.6751 4.7578C10.7949 4.078 10.341 3.4296 9.6611 3.3098 8.9813 3.1899 8.3329 3.6438 8.213 4.3237L7.5619 8.0167 6.7892 12.2485 4.9073 10.2808C4.313 9.6865 3.3341 9.7407 2.809 10.397 2.4073 10.8992 2.3962 11.6095 2.782 12.124L5.2932 15.4723C5.8631 16.2322 6.1481 16.6121 6.491 16.9074 7.0142 17.3579 7.6411 17.6713 8.3154 17.8196 8.7573 17.9168 9.2323 17.9168 10.1821 17.9168H12.2505C14.2025 17.9168 15.8929 16.5616 16.3174 14.6563L17.4099 9.7533 17.4823 9.3429C17.6022 8.663 17.1482 8.0147 16.4683 7.8948 15.7885 7.7749 15.1402 8.2289 15.0203 8.9088M10.6751 4.7578L10.9645 3.1165C11.0843 2.4366 11.7327 1.9827 12.4125 2.1025 13.0924 2.2224 13.5463 2.8707 13.4265 3.5506L13.1371 5.192M10.6751 4.7578L10.0238 8.4508M13.1371 5.192L12.4859 8.885M13.1371 5.192C13.2569 4.5121 13.9053 4.0581 14.5852 4.178 15.265 4.2979 15.719 4.9462 15.5991 5.6261L15.0203 8.9088M15.0203 8.9088L14.9479 9.3191" stroke="currentColor" stroke-linecap="round" stroke-linejoin="round" stroke-width="2"/>
</svg>
