<svg xmlns="http://www.w3.org/2000/svg" width="20" height="20" viewBox="0 0 20 20" fill="none">
  <path d="M18.3333 10C18.3333 5.3976 14.6023 1.6667 10 1.6667 5.3976 1.6667 1.6667 5.3976 1.6667 10 1.6667 14.6023 5.3976 18.3333 10 18.3333 14.6023 18.3333 18.3333 14.6023 18.3333 10Z" stroke="currentColor" stroke-width="2"/>
  <path d="M10.9604 12.678L10.8125 12.2142C10.6913 11.8342 10.6306 11.6442 10.6773 11.4942 10.7149 11.3727 10.7978 11.2681 10.9106 11.1993 11.05 11.1141 11.2609 11.1141 11.6828 11.1141H11.9073C13.3351 11.1141 14.049 11.1141 14.3862 10.7039 14.4247 10.657 14.459 10.6072 14.4887 10.5549 14.7481 10.0973 14.4532 9.4811 13.8633 8.2484 13.3221 7.1173 13.0514 6.5517 12.5489 6.2188 12.5002 6.1866 12.4503 6.1562 12.3991 6.1277 11.87 5.8333 11.2145 5.8333 9.9036 5.8333H9.6193C8.031 5.8333 7.2368 5.8333 6.7434 6.2973 6.25 6.7614 6.25 7.5082 6.25 9.0018V9.5267C6.25 10.3117 6.25 10.7042 6.3935 11.0634 6.537 11.4226 6.8119 11.718 7.3615 12.3087L9.6345 14.7517C9.6915 14.8129 9.72 14.8436 9.7452 14.8648 9.9798 15.0629 10.3418 15.0407 10.5469 14.8154 10.5688 14.7913 10.5929 14.7574 10.6409 14.6897 10.716 14.5837 10.7536 14.5308 10.7863 14.4782 11.0793 14.0083 11.168 13.4501 11.0338 12.9202 11.0188 12.861 10.9993 12.7999 10.9604 12.678Z" stroke="currentColor" stroke-linecap="round" stroke-linejoin="round" stroke-width="2"/>
</svg>
