<svg xmlns="http://www.w3.org/2000/svg" width="20" height="20" viewBox="0 0 20 20" fill="none">
  <path d="M1.6667 10.4167C1.6667 9.4962 2.4129 8.75 3.3333 8.75 4.714 8.75 5.8333 9.8693 5.8333 11.25V14.5833C5.8333 15.9641 4.714 17.0833 3.3333 17.0833 2.4129 17.0833 1.6667 16.3372 1.6667 15.4167V10.4167Z" stroke="currentColor" stroke-linecap="round" stroke-linejoin="round" stroke-width="2"/>
  <path d="M12.8989 6.5052L12.677 7.222C12.4952 7.8093 12.4042 8.1029 12.4742 8.3348 12.5307 8.5224 12.6549 8.6842 12.8242 8.7906 13.0333 8.9221 13.3498 8.9221 13.9826 8.9221H14.3193C16.461 8.9221 17.5318 8.9221 18.0377 9.5561 18.0954 9.6285 18.1468 9.7056 18.1913 9.7864 18.5804 10.4934 18.1381 11.4459 17.2533 13.3509 16.4414 15.0991 16.0354 15.9732 15.2817 16.4877 15.2088 16.5374 15.1337 16.5844 15.0569 16.6284 14.2633 17.0833 13.2802 17.0833 11.3137 17.0833H10.8872C8.5048 17.0833 7.3136 17.0833 6.5735 16.3663 5.8333 15.6491 5.8333 14.4949 5.8333 12.1866V11.3752C5.8333 10.1622 5.8333 9.5557 6.0486 9.0005 6.2639 8.4453 6.6761 7.9889 7.5006 7.0759L10.9101 3.3005C10.9956 3.2058 11.0383 3.1584 11.0761 3.1256 11.4279 2.8194 11.971 2.8539 12.2787 3.202 12.3117 3.2393 12.3477 3.2916 12.4197 3.3963 12.5323 3.56 12.5887 3.6419 12.6378 3.723 13.0773 4.4493 13.2103 5.312 13.009 6.131 12.9865 6.2224 12.9573 6.3167 12.8989 6.5052Z" stroke="currentColor" stroke-linecap="round" stroke-linejoin="round" stroke-width="2"/>
</svg>
