<svg xmlns="http://www.w3.org/2000/svg" width="20" height="20" viewBox="0 0 20 20" fill="none">
  <path d="M2.0833 10C2.0833 6.268 2.0833 4.4021 3.2427 3.2427 4.4021 2.0833 6.268 2.0833 10 2.0833 13.7319 2.0833 15.5979 2.0833 16.7573 3.2427 17.9167 4.4021 17.9167 6.268 17.9167 10 17.9167 13.7319 17.9167 15.5979 16.7573 16.7573 15.5979 17.9167 13.7319 17.9167 10 17.9167 6.268 17.9167 4.4021 17.9167 3.2427 16.7573 2.0833 15.5979 2.0833 13.7319 2.0833 10Z" stroke="currentColor" stroke-linejoin="round" stroke-width="2"/>
  <path d="M10.5438 12.2613L10.3958 11.7976C10.2746 11.4175 10.2139 11.2275 10.2606 11.0775 10.2983 10.9561 10.3811 10.8514 10.4939 10.7826 10.6333 10.6974 10.8443 10.6974 11.2662 10.6974H11.4906C12.9184 10.6974 13.6323 10.6974 13.9695 10.2873 14.0081 10.2403 14.0423 10.1905 14.072 10.1383 14.3314 9.6807 14.0365 9.0644 13.4467 7.8318 12.9054 6.7006 12.6348 6.135 12.1323 5.8021 12.0836 5.7699 12.0336 5.7395 11.9824 5.711 11.4533 5.4167 10.7978 5.4167 9.4869 5.4167H9.2026C7.6143 5.4167 6.8202 5.4167 6.3267 5.8807 5.8333 6.3447 5.8333 7.0915 5.8333 8.5852V9.1101C5.8333 9.8951 5.8333 10.2875 5.9769 10.6468 6.1204 11.0059 6.3952 11.3013 6.9448 11.8921L9.2178 14.335C9.2748 14.3963 9.3033 14.4269 9.3285 14.4481 9.5631 14.6463 9.9252 14.624 10.1303 14.3988 10.1522 14.3746 10.1762 14.3407 10.2242 14.273 10.2993 14.167 10.3369 14.1141 10.3697 14.0616 10.6627 13.5917 10.7513 13.0334 10.6171 12.5035 10.6021 12.4443 10.5827 12.3833 10.5438 12.2613Z" stroke="currentColor" stroke-linecap="round" stroke-linejoin="round" stroke-width="2"/>
</svg>
