<svg xmlns="http://www.w3.org/2000/svg" width="20" height="20" viewBox="0 0 20 20" fill="none">
  <path d="M6.3771 3.9887L6.2291 4.4524C6.1079 4.8325 6.0473 5.0225 6.0939 5.1725 6.1316 5.2939 6.2144 5.3986 6.3272 5.4674 6.4667 5.5526 6.6776 5.5526 7.0995 5.5526H7.324C8.7518 5.5526 9.4657 5.5526 9.8028 5.9628 9.8414 6.0096 9.8757 6.0595 9.9053 6.1118 10.1647 6.5693 9.8698 7.1856 9.28 8.4183 8.7387 9.5494 8.4681 10.115 7.9656 10.4479 7.9169 10.4801 7.8669 10.5105 7.8157 10.539 7.2867 10.8333 6.6312 10.8333 5.3202 10.8333H5.0359C3.4476 10.8333 2.6535 10.8333 2.1601 10.3693 1.6667 9.9053 1.6667 9.1585 1.6667 7.6649V7.1399C1.6667 6.355 1.6667 5.9625 1.8102 5.6033 1.9537 5.244 2.2285 4.9487 2.7782 4.358L5.0512 1.915C5.1082 1.8537 5.1367 1.8231 5.1618 1.8019 5.3964 1.6037 5.7585 1.626 5.9636 1.8513 5.9855 1.8754 6.0095 1.9093 6.0576 1.977 6.1327 2.083 6.1702 2.136 6.203 2.1884 6.496 2.6584 6.5847 3.2166 6.4504 3.7465 6.4355 3.8057 6.416 3.8667 6.3771 3.9887Z" stroke="currentColor" stroke-linecap="round" stroke-linejoin="round" stroke-width="2"/>
  <path d="M13.6229 16.0113L13.7708 15.5476C13.8921 15.1675 13.9528 14.9775 13.9061 14.8275 13.8684 14.7061 13.7856 14.6014 13.6728 14.5326 13.5333 14.4474 13.3224 14.4474 12.9005 14.4474H12.6761C11.2483 14.4474 10.5343 14.4474 10.1972 14.0373 10.1586 13.9903 10.1243 13.9405 10.0947 13.8883 9.8353 13.4307 10.1302 12.8144 10.72 11.5817 11.2613 10.4506 11.5319 9.885 12.0344 9.5521 12.0831 9.5199 12.1331 9.4895 12.1843 9.461 12.7133 9.1667 13.3688 9.1667 14.6798 9.1667H14.9641C16.5524 9.1667 17.3465 9.1667 17.8399 9.6307 18.3333 10.0947 18.3333 10.8415 18.3333 12.3352V12.8601C18.3333 13.6451 18.3333 14.0375 18.1898 14.3968 18.0463 14.7559 17.7715 15.0513 17.2218 15.6421L14.9488 18.085C14.8918 18.1463 14.8633 18.1769 14.8382 18.1982 14.6036 18.3963 14.2415 18.374 14.0364 18.1488 14.0145 18.1246 13.9904 18.0907 13.9424 18.023 13.8673 17.917 13.8298 17.8641 13.797 17.8116 13.504 17.3417 13.4153 16.7834 13.5496 16.2535 13.5646 16.1943 13.584 16.1333 13.6229 16.0113Z" stroke="currentColor" stroke-linecap="round" stroke-linejoin="round" stroke-width="2"/>
</svg>
