<svg xmlns="http://www.w3.org/2000/svg" width="20" height="20" viewBox="0 0 20 20" fill="none">
  <path d="M18.3333 10C18.3333 5.3976 14.6023 1.6667 10 1.6667 5.3976 1.6667 1.6667 5.3976 1.6667 10 1.6667 14.6023 5.3976 18.3333 10 18.3333 14.6023 18.3333 18.3333 14.6023 18.3333 10Z" stroke="currentColor" stroke-width="2"/>
  <path d="M10.9604 7.3219L10.8125 7.7856C10.6913 8.1657 10.6306 8.3557 10.6773 8.5057 10.7149 8.6272 10.7978 8.7318 10.9106 8.8007 11.05 8.8858 11.2609 8.8858 11.6828 8.8858H11.9073C13.3351 8.8858 14.049 8.8858 14.3862 9.296 14.4247 9.3428 14.459 9.3927 14.4887 9.445 14.7481 9.9025 14.4532 10.5188 13.8633 11.7514 13.3221 12.8826 13.0514 13.4482 12.5489 13.7811 12.5002 13.8133 12.4503 13.8438 12.3991 13.8722 11.87 14.1666 11.2145 14.1666 9.9036 14.1666H9.6193C8.031 14.1666 7.2368 14.1666 6.7434 13.7025 6.25 13.2385 6.25 12.4917 6.25 10.9981V10.4731C6.25 9.6882 6.25 9.2957 6.3935 8.9365 6.537 8.5773 6.8119 8.2819 7.3615 7.6912L9.6345 5.2482C9.6915 5.187 9.72 5.1563 9.7452 5.1351 9.9798 4.9369 10.3418 4.9592 10.5469 5.1845 10.5688 5.2086 10.5929 5.2425 10.6409 5.3102 10.716 5.4162 10.7536 5.4692 10.7863 5.5217 11.0793 5.9916 11.168 6.5498 11.0338 7.0797 11.0188 7.1389 10.9993 7.1999 10.9604 7.3219Z" stroke="currentColor" stroke-linecap="round" stroke-linejoin="round" stroke-width="2"/>
</svg>
