<svg xmlns="http://www.w3.org/2000/svg" width="20" height="20" viewBox="0 0 20 20" fill="none">
  <path d="M2.0833 10C2.0833 6.268 2.0833 4.4021 3.2427 3.2427 4.4021 2.0833 6.268 2.0833 10 2.0833 13.7319 2.0833 15.5979 2.0833 16.7573 3.2427 17.9167 4.4021 17.9167 6.268 17.9167 10 17.9167 13.7319 17.9167 15.5979 16.7573 16.7573 15.5979 17.9167 13.7319 17.9167 10 17.9167 6.268 17.9167 4.4021 17.9167 3.2427 16.7573 2.0833 15.5979 2.0833 13.7319 2.0833 10Z" stroke="currentColor" stroke-linejoin="round" stroke-width="2"/>
  <path d="M10.5438 7.7387L10.3958 8.2024C10.2746 8.5825 10.2139 8.7725 10.2606 8.9225 10.2983 9.0439 10.3811 9.1486 10.4939 9.2174 10.6333 9.3026 10.8443 9.3026 11.2662 9.3026H11.4906C12.9184 9.3026 13.6323 9.3026 13.9695 9.7128 14.0081 9.7597 14.0423 9.8095 14.072 9.8618 14.3314 10.3193 14.0365 10.9356 13.4467 12.1683 12.9054 13.2994 12.6348 13.865 12.1323 14.1979 12.0836 14.2301 12.0336 14.2605 11.9824 14.289 11.4533 14.5833 10.7978 14.5833 9.4869 14.5833H9.2026C7.6143 14.5833 6.8202 14.5833 6.3267 14.1193 5.8333 13.6553 5.8333 12.9085 5.8333 11.4148V10.8899C5.8333 10.1049 5.8333 9.7125 5.9769 9.3533 6.1204 8.9941 6.3952 8.6987 6.9448 8.108L9.2178 5.665C9.2748 5.6037 9.3033 5.5731 9.3285 5.5519 9.5631 5.3537 9.9252 5.376 10.1303 5.6013 10.1522 5.6254 10.1762 5.6593 10.2242 5.727 10.2993 5.833 10.3369 5.886 10.3697 5.9384 10.6627 6.4084 10.7513 6.9666 10.6171 7.4965 10.6021 7.5557 10.5827 7.6167 10.5438 7.7387Z" stroke="currentColor" stroke-linecap="round" stroke-linejoin="round" stroke-width="2"/>
</svg>
