<svg xmlns="http://www.w3.org/2000/svg" width="20" height="20" viewBox="0 0 20 20" fill="none">
  <path d="M12.5152 7.8611L12.9552 8.7483C13.0152 8.8718 13.1752 8.9902 13.3102 9.0129L14.1076 9.1465C14.6175 9.2323 14.7375 9.6053 14.37 9.9732L13.7501 10.5983C13.6451 10.7041 13.5876 10.9083 13.6201 11.0544L13.7976 11.8282C13.9376 12.4407 13.6151 12.6776 13.0777 12.3575L12.3303 11.9114C12.1952 11.8308 11.9728 11.8308 11.8353 11.9114L11.0879 12.3575C10.553 12.6776 10.228 12.4382 10.368 11.8282L10.5455 11.0544C10.5779 10.9083 10.5205 10.7041 10.4155 10.5983L9.7956 9.9732C9.4306 9.6053 9.5481 9.2323 10.058 9.1465L10.8554 9.0129C10.9879 8.9902 11.1479 8.8718 11.2079 8.7483L11.6478 7.8611C11.8878 7.3797 12.2778 7.3797 12.5152 7.8611Z" stroke="currentColor" stroke-linecap="round" stroke-linejoin="round" stroke-width="2"/>
  <path d="M6.6667 14.1667L6.6667 17.0833" stroke="currentColor" stroke-linecap="round" stroke-linejoin="round" stroke-width="2"/>
  <path d="M6.6667 2.9167V5.8333" stroke="currentColor" stroke-linecap="round" stroke-linejoin="round" stroke-width="2"/>
  <path d="M18.3333 7.3991C18.2776 6.1141 18.1213 5.2775 17.6836 4.6157 17.4318 4.235 17.119 3.9038 16.7593 3.6372 15.7873 2.9167 14.4158 2.9167 11.6732 2.9167H8.3275C5.5848 2.9167 4.2134 2.9167 3.2414 3.6372 2.8817 3.9038 2.5689 4.235 2.3171 4.6157 1.8794 5.2774 1.7231 6.1139 1.6674 7.3987 1.6578 7.6184 1.8471 7.7865 2.0544 7.7865 3.2092 7.7865 4.1454 8.7775 4.1454 10 4.1454 11.2225 3.2092 12.2135 2.0544 12.2135 1.8471 12.2135 1.6578 12.3816 1.6674 12.6013 1.7231 13.8862 1.8794 14.7226 2.3171 15.3843 2.5689 15.765 2.8817 16.0962 3.2414 16.3628 4.2134 17.0833 5.5848 17.0833 8.3276 17.0833H11.6732C14.4158 17.0833 15.7873 17.0833 16.7593 16.3628 17.119 16.0962 17.4318 15.765 17.6836 15.3843 18.1213 14.7225 18.2776 13.8859 18.3333 12.6009V7.3991Z" stroke="currentColor" stroke-linejoin="round" stroke-width="2"/>
</svg>
