<svg xmlns="http://www.w3.org/2000/svg" width="20" height="20" viewBox="0 0 20 20" fill="none">
  <path d="M9.5619 14.4215C12.0728 11.7349 14.4968 9.9124 17.5418 7.3315 18.4531 6.5589 18.5938 5.2048 17.8789 4.2454 17.1191 3.2258 15.6753 3.022 14.698 3.8326 11.9089 6.146 9.739 8.3735 7.6807 10.7542 7.5727 10.8792 7.5186 10.9417 7.4626 10.9768 7.3204 11.066 7.1428 11.0669 6.9997 10.9793 6.9433 10.9447 6.8892 10.8834 6.781 10.7609L5.6842 9.5191C4.6834 8.3859 2.8884 8.5114 2.0528 9.7728 1.4681 10.6556 1.5547 11.8254 2.2631 12.6112L3.983 14.5191C5.2694 15.9461 5.9127 16.6597 6.6849 16.6666 7.4571 16.6736 8.1587 15.9229 9.5619 14.4215Z" stroke="currentColor" stroke-width="2"/>
</svg>
