<svg xmlns="http://www.w3.org/2000/svg" width="20" height="20" viewBox="0 0 20 20" fill="none">
  <path d="M2.0536 7.7865C1.8465 7.7865 1.6575 7.6186 1.667 7.3991 1.7228 6.1141 1.879 5.2775 2.3167 4.6157 2.5686 4.235 2.8814 3.9038 3.241 3.6372 4.2131 2.9167 5.5845 2.9167 8.3272 2.9167H11.6728C14.4155 2.9167 15.7869 2.9167 16.759 3.6372 17.1187 3.9038 17.4314 4.235 17.6833 4.6157 18.121 5.2774 18.2773 6.1139 18.333 7.3987 18.3425 7.6184 18.1532 7.7865 17.9459 7.7865 16.7911 7.7865 15.8549 8.7775 15.8549 10 15.8549 11.2225 16.7911 12.2135 17.9459 12.2135 18.1532 12.2135 18.3425 12.3816 18.333 12.6013 18.2773 13.8862 18.121 14.7226 17.6833 15.3843 17.4314 15.765 17.1187 16.0962 16.759 16.3628 15.7869 17.0833 14.4155 17.0833 11.6728 17.0833H8.3272C5.5845 17.0833 4.2131 17.0833 3.241 16.3628 2.8814 16.0962 2.5686 15.765 2.3167 15.3843 1.879 14.7225 1.7228 13.8859 1.667 12.6009 1.6575 12.3814 1.8465 12.2135 2.0536 12.2135 3.2084 12.2135 4.1446 11.2225 4.1446 10 4.1446 8.7775 3.2084 7.7865 2.0536 7.7865Z" stroke="currentColor" stroke-linejoin="round" stroke-width="2"/>
  <path d="M7.5 2.9167L7.5 17.0833" stroke="currentColor" stroke-linecap="round" stroke-linejoin="round" stroke-width="2"/>
</svg>
