<svg xmlns="http://www.w3.org/2000/svg" width="20" height="20" viewBox="0 0 20 20" fill="none">
  <path d="M6.1051 15.0767C5.8323 15.3056 5.5961 15.4191 5.3501 15.4167 4.7833 15.4109 4.3112 14.8312 3.3669 13.6717L2.1044 12.1215C1.5845 11.4832 1.5209 10.5327 1.9501 9.8154 2.4404 8.9962 3.3806 8.7667 4.1134 9.1777M9.1018 7.0833C9.7611 6.3882 10.4646 5.6935 11.2319 4.989 11.6021 4.6491 12.0635 4.5287 12.5 4.6057" stroke="currentColor" stroke-linecap="round" stroke-width="2"/>
  <path d="M11.7548 13.5925C13.638 11.4097 15.456 9.9288 17.7397 7.8318 18.4232 7.2041 18.5288 6.1039 17.9925 5.3244 17.4227 4.496 16.3398 4.3304 15.6068 4.989 13.515 6.8686 11.8876 8.6784 10.3438 10.6128 10.2628 10.7143 10.2223 10.7651 10.1803 10.7937 10.0737 10.8661 9.9404 10.8669 9.8332 10.7957 9.7908 10.7676 9.7503 10.7178 9.6691 10.6182L8.8465 9.6093C8.0959 8.6886 6.7496 8.7905 6.123 9.8154 5.6844 10.5327 5.7494 11.4832 6.2806 12.1215L7.5706 13.6717C8.5354 14.8312 9.0178 15.4109 9.597 15.4167 10.1762 15.4223 10.7023 14.8123 11.7548 13.5925Z" stroke="currentColor" stroke-width="2"/>
</svg>
