<svg xmlns="http://www.w3.org/2000/svg" width="20" height="20" viewBox="0 0 20 20" fill="none">
  <path d="M18.2172 4.4931C18.5729 5.4136 18.074 6.0438 17.1084 6.6646 16.3292 7.1655 15.3366 7.7081 14.2848 8.6358 13.2537 9.5453 12.2473 10.6406 11.3531 11.7188 10.4624 12.7925 9.7054 13.8217 9.1705 14.5838 8.8248 15.0762 8.3425 15.8108 8.3425 15.8108 8.0023 16.3489 7.3908 16.6747 6.7351 16.6665 6.0792 16.6583 5.4767 16.3177 5.1513 15.7709 4.3194 14.3733 3.6775 13.8214 3.3824 13.6232 2.593 13.0927 1.6667 13.0143 1.6667 11.7779 1.6667 10.7962 2.4957 10.0002 3.5185 10.0002 4.2405 10.0269 4.9116 10.3108 5.5063 10.7105 5.8864 10.9659 6.2891 11.3038 6.7079 11.7484 7.1995 11.078 7.7918 10.3044 8.4558 9.5039 9.4202 8.3414 10.5584 7.0942 11.7791 6.0176 12.979 4.9593 14.3663 3.9686 15.8368 3.4448 16.7958 3.1033 17.8614 3.5727 18.2172 4.4931Z" stroke="currentColor" stroke-linecap="round" stroke-linejoin="round" stroke-width="2"/>
</svg>
