<svg xmlns="http://www.w3.org/2000/svg" width="20" height="20" viewBox="0 0 20 20" fill="none">
  <path d="M16.4238 6.3753C16.5548 6.2444 16.7804 6.231 16.9131 6.3758 17.6903 7.2235 18.1205 7.8513 18.2622 8.5464 18.3437 8.9464 18.3553 9.3535 18.2964 9.7495 18.1374 10.8197 17.2703 11.6868 15.5362 13.4209L13.4209 15.5362C11.6868 17.2703 10.8197 18.1374 9.7495 18.2964 9.3535 18.3553 8.9464 18.3437 8.5464 18.2622 7.8513 18.1205 7.2237 17.6904 6.3761 16.9133 6.2311 16.7805 6.2445 16.5546 6.3756 16.4235 7.1058 15.6933 7.0711 14.4748 6.2981 13.7018 5.5252 12.9289 4.3067 12.8943 3.5765 13.6244 3.4454 13.7555 3.2195 13.7689 3.0866 13.6239 2.3095 12.7763 1.8795 12.1487 1.7378 11.4536 1.6563 11.0536 1.6447 10.6465 1.7036 10.2505 1.8626 9.1803 2.7297 8.3132 4.4638 6.5791L6.5791 4.4638C8.3132 2.7297 9.1803 1.8626 10.2505 1.7036 10.6465 1.6447 11.0536 1.6563 11.4536 1.7378 12.1487 1.8795 12.7765 2.3096 13.6242 3.0869 13.769 3.2196 13.7557 3.4453 13.6247 3.5762 12.8945 4.3064 12.9293 5.5249 13.7022 6.2978 14.4751 7.0708 15.6937 7.1055 16.4238 6.3753Z" stroke="currentColor" stroke-linejoin="round" stroke-width="2"/>
  <path d="M15.8333 12.5L7.5 4.1667" stroke="currentColor" stroke-linecap="round" stroke-linejoin="round" stroke-width="2"/>
</svg>
