<svg xmlns="http://www.w3.org/2000/svg" width="20" height="20" viewBox="0 0 20 20" fill="none">
  <path d="M18.3333 7.3991C18.2776 6.1141 18.1213 5.2775 17.6836 4.6157 17.4318 4.235 17.119 3.9038 16.7593 3.6372 15.7873 2.9167 14.4158 2.9167 11.6732 2.9167H8.3275C5.5848 2.9167 4.2134 2.9167 3.2414 3.6372 2.8817 3.9038 2.5689 4.235 2.3171 4.6157 1.8794 5.2774 1.7231 6.1139 1.6674 7.3987 1.6578 7.6184 1.8471 7.7865 2.0544 7.7865 3.2092 7.7865 4.1454 8.7775 4.1454 10 4.1454 11.2225 3.2092 12.2135 2.0544 12.2135 1.8471 12.2135 1.6578 12.3816 1.6674 12.6013 1.7231 13.8862 1.8794 14.7226 2.3171 15.3843 2.5689 15.765 2.8817 16.0962 3.2414 16.3628 4.2134 17.0833 5.5848 17.0833 8.3276 17.0833H11.6732C14.4158 17.0833 15.7873 17.0833 16.7593 16.3628 17.119 16.0962 17.4318 15.765 17.6836 15.3843 18.1213 14.7225 18.2776 13.8859 18.3333 12.6009V7.3991Z" stroke="currentColor" stroke-linejoin="round" stroke-width="2"/>
  <path d="M10.8333 10L14.1667 10" stroke="currentColor" stroke-linecap="round" stroke-linejoin="round" stroke-width="2"/>
  <path d="M7.5 13.3333L14.1667 13.3333" stroke="currentColor" stroke-linecap="round" stroke-linejoin="round" stroke-width="2"/>
</svg>
