<svg xmlns="http://www.w3.org/2000/svg" width="20" height="20" viewBox="0 0 20 20" fill="none">
  <path d="M2.0833 10C2.0833 6.268 2.0833 4.4021 3.2427 3.2427 4.4021 2.0833 6.268 2.0833 10 2.0833 13.7319 2.0833 15.5979 2.0833 16.7573 3.2427 17.9167 4.4021 17.9167 6.268 17.9167 10 17.9167 13.7319 17.9167 15.5979 16.7573 16.7573 15.5979 17.9167 13.7319 17.9167 10 17.9167 6.268 17.9167 4.4021 17.9167 3.2427 16.7573 2.0833 15.5979 2.0833 13.7319 2.0833 10Z" stroke="currentColor" stroke-linejoin="round" stroke-width="2"/>
  <path d="M8.7799 9.1729C8.0965 9.0763 6.5389 9.2362 5.7751 10.6485 5.0113 12.0608 5.7811 13.5307 6.2615 14.0891 6.7358 14.6115 8.2436 15.6008 9.8428 14.6349 10.2393 14.3955 10.7331 14.2169 11.2933 12.3461L11.2282 4.9845C11.1201 5.7952 12.0155 7.6965 14.565 7.9214" stroke="currentColor" stroke-linecap="round" stroke-linejoin="round" stroke-width="2"/>
</svg>
