<svg xmlns="http://www.w3.org/2000/svg" width="20" height="20" viewBox="0 0 20 20" fill="none">
  <path d="M16.4583 4.5833C16.4583 5.2737 15.8987 5.8333 15.2083 5.8333 14.518 5.8333 13.9583 5.2737 13.9583 4.5833 13.9583 3.893 14.518 3.3333 15.2083 3.3333 15.8987 3.3333 16.4583 3.893 16.4583 4.5833Z" stroke="currentColor" stroke-linejoin="round" stroke-width="2"/>
  <path d="M14.2971 7.7142L5.9621 2.7273C5.194 2.2678 4.1971 2.5275 3.7527 3.3031 3.2833 4.1223 3.6265 5.1665 4.4911 5.5497L7.9586 7.0833 6.8478 16.34C6.7738 16.957 7.2555 17.5 7.8769 17.5 8.3997 17.5 8.8406 17.1108 8.9054 16.5921L9.9816 7.9831 13.4005 9.4983C13.8827 9.712 14.4481 9.5098 14.684 9.0392 14.922 8.5646 14.7534 7.9873 14.2971 7.7142Z" stroke="currentColor" stroke-linecap="round" stroke-linejoin="round" stroke-width="2"/>
</svg>
