<svg xmlns="http://www.w3.org/2000/svg" width="20" height="20" viewBox="0 0 20 20" fill="none">
  <path d="M2.0833 10C2.0833 6.268 2.0833 4.4021 3.2427 3.2427 4.4021 2.0833 6.268 2.0833 10 2.0833 13.7319 2.0833 15.5979 2.0833 16.7573 3.2427 17.9167 4.4021 17.9167 6.268 17.9167 10 17.9167 13.7319 17.9167 15.5979 16.7573 16.7573 15.5979 17.9167 13.7319 17.9167 10 17.9167 6.268 17.9167 4.4021 17.9167 3.2427 16.7573 2.0833 15.5979 2.0833 13.7319 2.0833 10Z" stroke="currentColor" stroke-linejoin="round" stroke-width="2"/>
  <path d="M10.0065 8.7568C9.3162 8.7568 8.7565 9.3165 8.7565 10.0068 8.7565 10.6972 9.3162 11.2568 10.0065 11.2568 10.6968 11.2568 11.2565 10.6972 11.2565 10.0068 11.2565 9.3165 10.6968 8.7568 10.0065 8.7568ZM10.0065 8.7568V5.8325M12.5122 12.5165L10.8884 10.8927" stroke="currentColor" stroke-linecap="round" stroke-linejoin="round" stroke-width="2"/>
</svg>
