<svg xmlns="http://www.w3.org/2000/svg" width="20" height="20" viewBox="0 0 20 20" fill="none">
  <path d="M5.8333 16.25C5.8333 17.4006 4.9006 18.3333 3.75 18.3333 2.5994 18.3333 1.6667 17.4006 1.6667 16.25 1.6667 15.0994 2.5994 14.1667 3.75 14.1667 4.9006 14.1667 5.8333 15.0994 5.8333 16.25Z" stroke="currentColor" stroke-width="2"/>
  <path d="M18.3333 16.25C18.3333 17.4006 17.4006 18.3333 16.25 18.3333 15.0994 18.3333 14.1667 17.4006 14.1667 16.25 14.1667 15.0994 15.0994 14.1667 16.25 14.1667 17.4006 14.1667 18.3333 15.0994 18.3333 16.25Z" stroke="currentColor" stroke-width="2"/>
  <path d="M16.25 14.1667C16.1101 12.1225 15.3293 11.6667 12.6892 11.6667H7.3108C4.6708 11.6667 3.8899 12.1225 3.75 14.1667" stroke="currentColor" stroke-linecap="round" stroke-linejoin="round" stroke-width="2"/>
  <path d="M10 5.4167L10.8333 4.1667M13.75 5.4167C13.75 7.4877 12.0711 9.1667 10 9.1667 7.9289 9.1667 6.25 7.4877 6.25 5.4167 6.25 3.3456 7.9289 1.6667 10 1.6667 12.0711 1.6667 13.75 3.3456 13.75 5.4167Z" stroke="currentColor" stroke-linecap="round" stroke-width="2"/>
</svg>
