<svg xmlns="http://www.w3.org/2000/svg" width="20" height="20" viewBox="0 0 20 20" fill="none">
  <path d="M7.3078 2.0833C7.0811 2.1644 6.8588 2.2545 6.6415 2.3533M4.5208 3.7214C4.3321 3.8869 4.1509 4.0605 3.9778 4.2415M2.5265 6.304C2.3717 6.615 2.2359 6.9368 2.1208 7.2679M1.6801 9.4928C1.6616 9.8173 1.6623 10.1482 1.682 10.4727M2.1404 12.7215C2.2512 13.033 2.3803 13.3362 2.5265 13.6298M3.9091 15.6196C4.1126 15.8375 4.3277 16.0449 4.5535 16.2409M6.4803 17.5053C6.8089 17.6628 7.1494 17.8005 7.5 17.9167" stroke="currentColor" stroke-linecap="round" stroke-linejoin="round" stroke-width="2"/>
  <path d="M10 18.3333C14.6023 18.3333 18.3333 14.6023 18.3333 10 18.3333 5.3976 14.6023 1.6667 10 1.6667" stroke="currentColor" stroke-linecap="round" stroke-width="2"/>
  <path d="M10 11.25C10.6903 11.25 11.25 10.6903 11.25 10 11.25 9.3097 10.6903 8.75 10 8.75M10 11.25C9.3097 11.25 8.75 10.6903 8.75 10 8.75 9.3097 9.3097 8.75 10 8.75M10 11.25V13.3333M10 8.75V5" stroke="currentColor" stroke-linecap="round" stroke-width="2"/>
</svg>
