<svg xmlns="http://www.w3.org/2000/svg" width="20" height="20" viewBox="0 0 20 20" fill="none">
  <path d="M3.3333 7.5C3.7936 7.5 4.1667 7.1269 4.1667 6.6667 4.1667 6.2064 3.7936 5.8333 3.3333 5.8333 2.8731 5.8333 2.5 6.2064 2.5 6.6667 2.5 7.1269 2.8731 7.5 3.3333 7.5Z" stroke="currentColor" stroke-linecap="round" stroke-linejoin="round" stroke-width="2"/>
  <path d="M3.3333 14.1667C3.7936 14.1667 4.1667 13.7936 4.1667 13.3333 4.1667 12.8731 3.7936 12.5 3.3333 12.5 2.8731 12.5 2.5 12.8731 2.5 13.3333 2.5 13.7936 2.8731 14.1667 3.3333 14.1667Z" stroke="currentColor" stroke-linecap="round" stroke-linejoin="round" stroke-width="2"/>
  <path d="M3.3333 17.5V2.5" stroke="currentColor" stroke-linecap="round" stroke-linejoin="round" stroke-width="2"/>
  <path d="M8.2618 7.8452L7.7946 7.378C7.7449 7.3283 7.7201 7.3034 7.6982 7.2776 7.5853 7.1447 7.5169 6.9797 7.5028 6.8059 7.5 6.7721 7.5 6.7369 7.5 6.6667 7.5 6.5964 7.5 6.5613 7.5028 6.5275 7.5169 6.3537 7.5853 6.1887 7.6982 6.0557 7.7201 6.0299 7.7449 6.0051 7.7946 5.9554L8.2618 5.4882C8.5027 5.2473 8.6232 5.1269 8.7762 5.0634 8.9294 5 9.0998 5 9.4403 5H14.1667C14.9523 5 15.3452 5 15.5893 5.2441 15.8333 5.4882 15.8333 5.881 15.8333 6.6667 15.8333 7.4523 15.8333 7.8452 15.5893 8.0893 15.3452 8.3333 14.9523 8.3333 14.1667 8.3333H9.4403C9.0998 8.3333 8.9294 8.3333 8.7762 8.2699 8.6232 8.2065 8.5027 8.086 8.2618 7.8452Z" stroke="currentColor" stroke-linecap="round" stroke-linejoin="round" stroke-width="2"/>
  <path d="M8.2618 14.5118L7.7946 14.0447C7.7449 13.9949 7.7201 13.9701 7.6982 13.9443 7.5853 13.8113 7.5169 13.6463 7.5028 13.4725 7.5 13.4388 7.5 13.4036 7.5 13.3333 7.5 13.2631 7.5 13.2279 7.5028 13.1942 7.5169 13.0203 7.5853 12.8553 7.6982 12.7224 7.7201 12.6966 7.7449 12.6717 7.7946 12.622L8.2618 12.1548C8.5027 11.914 8.6232 11.7935 8.7762 11.7301 8.9294 11.6667 9.0998 11.6667 9.4403 11.6667H15.8333C16.619 11.6667 17.0118 11.6667 17.2559 11.9108 17.5 12.1548 17.5 12.5477 17.5 13.3333 17.5 14.119 17.5 14.5118 17.2559 14.7559 17.0118 15 16.619 15 15.8333 15H9.4403C9.0998 15 8.9294 15 8.7762 14.9366 8.6232 14.8732 8.5027 14.7527 8.2618 14.5118Z" stroke="currentColor" stroke-linecap="round" stroke-linejoin="round" stroke-width="2"/>
</svg>
