<svg xmlns="http://www.w3.org/2000/svg" width="20" height="20" viewBox="0 0 20 20" fill="none">
  <path d="M6.9798 2.5C6.8015 2.5666 6.6262 2.6393 6.4541 2.7177M17.2648 13.5843C17.3499 13.3999 17.4284 13.2118 17.5 13.0204M15.4157 16.1373C15.5588 16.0037 15.6971 15.8651 15.8303 15.7217M12.7241 17.8102C12.8858 17.7492 13.0451 17.6833 13.2018 17.6126M10.13 18.3283C9.9376 18.3349 9.7438 18.3349 9.5513 18.3283M6.4894 17.617C6.6401 17.6848 6.7932 17.7482 6.9485 17.8069M3.8938 15.7673C4.0077 15.8881 4.1252 16.0053 4.2463 16.119M2.1939 13.0538C2.2563 13.2185 2.3239 13.3807 2.3964 13.5403M1.6708 10.4211C1.6654 10.2477 1.6654 10.0732 1.6708 9.8995M2.1879 7.281C2.2492 7.118 2.3155 6.9576 2.3868 6.7998M3.88 4.566C4.0006 4.4376 4.1252 4.3131 4.2538 4.1927" stroke="currentColor" stroke-linecap="round" stroke-linejoin="round" stroke-width="2"/>
  <path d="M11.25 10C11.25 10.6903 10.6903 11.25 10 11.25 9.3097 11.25 8.75 10.6903 8.75 10 8.75 9.3097 9.3097 8.75 10 8.75M11.25 10C11.25 9.3097 10.6903 8.75 10 8.75M11.25 10H13.3333M10 8.75V5" stroke="currentColor" stroke-linecap="round" stroke-width="2"/>
  <path d="M18.3333 10C18.3333 5.3976 14.6023 1.6667 10 1.6667" stroke="currentColor" stroke-linecap="round" stroke-width="2"/>
</svg>
