<svg xmlns="http://www.w3.org/2000/svg" width="20" height="20" viewBox="0 0 20 20" fill="none">
  <path d="M16.6667 6.6667C16.6667 8.2774 15.3608 9.5833 13.75 9.5833 12.1392 9.5833 10.8333 8.2774 10.8333 6.6667 10.8333 5.0558 12.1392 3.75 13.75 3.75 15.3608 3.75 16.6667 5.0558 16.6667 6.6667Z" stroke="currentColor" stroke-linecap="square" stroke-width="2"/>
  <path d="M12.3592 4.1023C11.9807 2.9307 10.8809 2.0833 9.5833 2.0833 7.9725 2.0833 6.6667 3.3892 6.6667 5 6.6667 6.6108 7.9725 7.9167 9.5833 7.9167 10.0869 7.9167 10.5607 7.789 10.9741 7.5644" stroke="currentColor" stroke-linecap="round" stroke-width="2"/>
  <path d="M3.3333 11.25H5.329C5.5741 11.25 5.8159 11.3053 6.0351 11.4113L7.7368 12.2347C7.956 12.3407 8.1978 12.3959 8.4429 12.3959H9.3117C10.1521 12.3959 10.8333 13.0552 10.8333 13.8683 10.8333 13.9012 10.8108 13.9301 10.7782 13.9391L8.6608 14.5246C8.2809 14.6296 7.8742 14.593 7.5208 14.422L5.7018 13.5419M10.8333 13.3333L14.6607 12.1574C15.3392 11.946 16.0726 12.1967 16.4976 12.7852 16.8049 13.2108 16.6797 13.8202 16.2321 14.0785L9.9691 17.6921C9.5708 17.9219 9.1007 17.978 8.6627 17.848L3.3333 16.2666" stroke="currentColor" stroke-linecap="round" stroke-linejoin="round" stroke-width="2"/>
</svg>
