<svg xmlns="http://www.w3.org/2000/svg" width="20" height="20" viewBox="0 0 20 20" fill="none">
  <circle cx="10" cy="10" r="8.333333333333334" stroke="currentColor" stroke-linecap="round" stroke-linejoin="round" stroke-width="2"/>
  <path d="M5.8333 6.6667C6.0079 7.1522 6.479 7.5 7.0327 7.5 7.5864 7.5 8.0574 7.1522 8.232 6.6667M11.768 6.6667C11.9426 7.1522 12.4136 7.5 12.9673 7.5 13.521 7.5 13.9921 7.1522 14.1667 6.6667" stroke="currentColor" stroke-linecap="round" stroke-linejoin="round" stroke-width="2"/>
  <path d="M10 11.25C11.3943 11.25 12.5915 12.0466 13.1081 13.1837 13.3168 13.6432 13.4213 13.8729 13.2408 14.0623 13.0602 14.2518 12.7423 14.1594 12.1062 13.9747 11.5033 13.7996 10.7516 13.6419 10 13.6419 9.2484 13.6419 8.4968 13.7996 7.8938 13.9747 7.2578 14.1594 6.9398 14.2518 6.7593 14.0623 6.5788 13.8729 6.6832 13.6432 6.8919 13.1837 7.4085 12.0466 8.6057 11.25 10 11.25Z" stroke="currentColor" stroke-linecap="round" stroke-linejoin="round" stroke-width="2"/>
</svg>
