<svg xmlns="http://www.w3.org/2000/svg" width="20" height="20" viewBox="0 0 20 20" fill="none">
  <path d="M8.3333 7.9167C8.3333 10.448 6.841 12.5 5 12.5 3.1591 12.5 1.6667 10.448 1.6667 7.9167 1.6667 5.3854 3.1591 3.3333 5 3.3333 6.841 3.3333 8.3333 5.3854 8.3333 7.9167Z" stroke="currentColor" stroke-width="2"/>
  <path d="M18.1773 8.9119C18.2783 8.471 18.3333 7.9956 18.3333 7.5 18.3333 5.1988 17.1463 3.3333 15.6818 3.3333L5 3.3333C7.6293 3.3333 8.8087 6.6292 8.3521 8.8055 7.88 11.0562 5.9829 13.6408 6.1573 15.9426 6.1883 16.3519 6.4993 16.6667 6.8726 16.6667H15.3004C15.7097 16.6667 16.0315 16.2819 15.9975 15.8333 15.8276 13.5903 17.6771 11.0944 18.1773 8.9119Z" stroke="currentColor" stroke-width="2"/>
  <path d="M5.1042 7.9167H5M5.2083 7.9167C5.2083 8.0317 5.1151 8.125 5 8.125 4.8849 8.125 4.7917 8.0317 4.7917 7.9167 4.7917 7.8016 4.8849 7.7083 5 7.7083 5.1151 7.7083 5.2083 7.8016 5.2083 7.9167Z" stroke="currentColor" stroke-linecap="round" stroke-linejoin="round" stroke-width="2"/>
</svg>
