<svg xmlns="http://www.w3.org/2000/svg" width="20" height="20" viewBox="0 0 20 20" fill="none">
  <path d="M6.6667 9.1667H14.2793C15.5001 9.1667 16.1105 9.1667 16.4791 9.7794 16.8477 10.3922 16.6306 10.7828 16.1964 11.5641 15.3348 13.115 13.6629 14.1667 11.7417 14.1667 10.4547 14.1667 9.2794 13.6946 8.3848 12.9167" stroke="currentColor" stroke-linecap="round" stroke-linejoin="round" stroke-width="2"/>
  <path d="M6.6667 9.1667V3.3333C6.6667 2.5477 6.6667 2.1548 6.4226 1.9107 6.1785 1.6667 5.7857 1.6667 5 1.6667 4.2143 1.6667 3.8215 1.6667 3.5774 1.9107 3.3333 2.1548 3.3333 2.5477 3.3333 3.3333V9.1667C3.3333 9.9523 3.3333 10.3452 3.5774 10.5893 3.8215 10.8333 4.2143 10.8333 5 10.8333 5.7857 10.8333 6.1785 10.8333 6.4226 10.5893 6.6667 10.3452 6.6667 9.9523 6.6667 9.1667Z" stroke="currentColor" stroke-linecap="round" stroke-linejoin="round" stroke-width="2"/>
  <path d="M5.8333 5.8333L8.3333 5.8333" stroke="currentColor" stroke-linecap="round" stroke-linejoin="round" stroke-width="2"/>
  <path d="M13.3333 14.1667C12.5 15 13.3333 17.5 14.9997 18.3333H3.3333C4.1667 17.5 5.5833 14.8333 4.5833 10.8333" stroke="currentColor" stroke-linecap="round" stroke-linejoin="round" stroke-width="2"/>
</svg>
