<svg xmlns="http://www.w3.org/2000/svg" width="20" height="20" viewBox="0 0 20 20" fill="none">
  <path d="M12.0003 11.6667C12.8098 10.9065 13.3333 9.6963 13.3333 8.3333 13.3333 6.0321 11.8409 4.1667 10 4.1667 8.1591 4.1667 6.6667 6.0321 6.6667 8.3333 6.6667 9.6963 7.1902 10.9065 7.9997 11.6667" stroke="currentColor" stroke-width="2"/>
  <path d="M6.7556 11.6667H13.2444C13.7325 11.6667 14.1667 12.0119 14.1667 12.5 14.1667 13.7588 13.6085 15.0754 12.7261 15.9385 12.2888 16.3663 11.8624 16.8101 12.3918 17.3905 12.4714 17.4778 12.5638 17.5538 12.6415 17.6429 12.9148 17.9565 12.6215 18.3333 12.2689 18.3333H7.7311C7.3785 18.3333 7.0851 17.9565 7.3585 17.6429 7.4362 17.5538 7.5286 17.4778 7.6083 17.3905 8.1376 16.8101 7.7112 16.3663 7.2739 15.9385 6.3915 15.0754 5.8333 13.7588 5.8333 12.5 5.8333 12.0119 6.2675 11.6667 6.7556 11.6667Z" stroke="currentColor" stroke-width="2"/>
  <path d="M15.2411 10C15.737 10 16.1522 9.6418 16.2015 9.1716L16.5079 6.2515C16.6857 4.5574 16.7745 3.7103 16.4439 3.0697 15.6217 1.4765 13.6948 1.6745 12.162 1.6745H7.838C6.3052 1.6745 4.3784 1.4765 3.5561 3.0697 3.2255 3.7103 3.3143 4.5574 3.4921 6.2515L3.7985 9.1716C3.8478 9.6418 4.263 10 4.7589 10" stroke="currentColor" stroke-linecap="round" stroke-linejoin="round" stroke-width="2"/>
</svg>
