<svg xmlns="http://www.w3.org/2000/svg" width="20" height="20" viewBox="0 0 20 20" fill="none">
  <path d="M9.6153 6.0445C9.7945 5.7629 10.2055 5.7629 10.3847 6.0445L10.9031 6.859C11.4763 7.7598 12.2402 8.5237 13.141 9.0969L13.9555 9.6153C14.2371 9.7945 14.2371 10.2055 13.9555 10.3847L13.141 10.9031C12.2402 11.4763 11.4763 12.2402 10.9031 13.141L10.3847 13.9555C10.2055 14.2371 9.7945 14.2371 9.6153 13.9555L9.0969 13.141C8.5237 12.2402 7.7598 11.4763 6.859 10.9031L6.0445 10.3847C5.7629 10.2055 5.7629 9.7945 6.0445 9.6153L6.859 9.0969C7.7598 8.5237 8.5237 7.7598 9.0969 6.859L9.6153 6.0445Z" stroke="currentColor" stroke-linejoin="round" stroke-width="2"/>
  <circle cx="10" cy="10" r="8.333333333333334" stroke="currentColor" stroke-linejoin="round" stroke-width="2"/>
</svg>
