<svg xmlns="http://www.w3.org/2000/svg" width="20" height="20" viewBox="0 0 20 20" fill="none">
  <path d="M2.0833 10C2.0833 6.4752 2.0833 4.7128 3.0816 3.544 3.2234 3.378 3.378 3.2234 3.544 3.0816 4.7128 2.0833 6.4752 2.0833 10 2.0833 13.5248 2.0833 15.2872 2.0833 16.456 3.0816 16.622 3.2234 16.7766 3.378 16.9183 3.544 17.9167 4.7128 17.9167 6.4752 17.9167 10 17.9167 13.5248 17.9167 15.2872 16.9183 16.456 16.7766 16.622 16.622 16.7766 16.456 16.9183 15.2872 17.9167 13.5248 17.9167 10 17.9167 6.4752 17.9167 4.7128 17.9167 3.544 16.9183 3.378 16.7766 3.2234 16.622 3.0816 16.456 2.0833 15.2872 2.0833 13.5248 2.0833 10Z" stroke="currentColor" stroke-linejoin="round" stroke-width="2"/>
  <path d="M9.6153 6.0445C9.7945 5.7629 10.2055 5.7629 10.3847 6.0445L10.9031 6.859C11.4763 7.7598 12.2402 8.5237 13.141 9.0969L13.9555 9.6153C14.2371 9.7945 14.2371 10.2055 13.9555 10.3847L13.141 10.9031C12.2402 11.4763 11.4763 12.2402 10.9031 13.141L10.3847 13.9555C10.2055 14.2371 9.7945 14.2371 9.6153 13.9555L9.0969 13.141C8.5237 12.2402 7.7598 11.4763 6.859 10.9031L6.0445 10.3847C5.7629 10.2055 5.7629 9.7945 6.0445 9.6153L6.859 9.0969C7.7598 8.5237 8.5237 7.7598 9.0969 6.859L9.6153 6.0445Z" stroke="currentColor" stroke-linejoin="round" stroke-width="2"/>
</svg>
