<svg xmlns="http://www.w3.org/2000/svg" width="20" height="20" viewBox="0 0 20 20" fill="none">
  <path d="M16.3758 10C17.3517 9.0718 17.9792 7.894 18.2581 7.2967 18.3143 7.1763 18.3333 7.0441 18.3333 6.9118M3.6242 10C2.6482 9.0718 2.0208 7.894 1.7419 7.2967 1.6857 7.1763 1.6667 7.0441 1.6667 6.9118M18.3333 6.9118L15.8333 6.9118M18.3333 6.9118C18.3333 6.7799 18.3146 6.6478 18.2585 6.5277 17.7573 5.4541 16.1279 2.5 13.3702 2.5 12.5032 2.5 11.7789 2.9484 11.2268 3.4762 10.7569 3.9254 10.5218 4.15 10.47 4.1865 10.0278 4.4978 9.9722 4.4978 9.53 4.1865 9.4782 4.15 9.2431 3.9254 8.7732 3.4762 8.221 2.9484 7.4968 2.5 6.6298 2.5 3.8721 2.5 2.2426 5.4541 1.7415 6.5277 1.6854 6.6478 1.6667 6.7799 1.6667 6.9118M1.6667 6.9118H4.1667" stroke="currentColor" stroke-linecap="round" stroke-linejoin="round" stroke-width="2"/>
  <path d="M10 7.5L10.2252 7.272C10.6078 6.8844 11.1267 6.6667 11.6678 6.6667 12.6178 6.6667 13.4422 7.3309 13.6558 8.2686L14.464 11.8161C15.1265 14.7238 12.9462 17.5 10 17.5 7.0538 17.5 4.8735 14.7238 5.536 11.8161L6.3442 8.2686C6.5578 7.3309 7.3821 6.6667 8.3322 6.6667 8.8733 6.6667 9.3923 6.8844 9.7748 7.272L10 7.5ZM10 7.5V10" stroke="currentColor" stroke-linecap="round" stroke-linejoin="round" stroke-width="2"/>
</svg>
