<svg xmlns="http://www.w3.org/2000/svg" width="20" height="20" viewBox="0 0 20 20" fill="none">
  <circle cx="10" cy="10" r="8.333333333333334" stroke="currentColor" stroke-linecap="round" stroke-linejoin="round" stroke-width="2"/>
  <path d="M12.9167 13.2215L12.0833 15C13.3288 14.501 14.1667 13.5683 14.1667 12.5H5.8333C5.8333 13.5683 6.6712 14.501 7.9167 15L7.0833 13.2215" stroke="currentColor" stroke-linecap="round" stroke-linejoin="round" stroke-width="2"/>
  <path d="M7.9167 12.5V16.25C7.9167 17.4006 8.8494 18.3333 10 18.3333 11.1506 18.3333 12.0833 17.4006 12.0833 16.25V12.5" stroke="currentColor" stroke-linecap="round" stroke-linejoin="round" stroke-width="2"/>
  <path d="M5.4167 7.3333C5.7017 6.9285 6.1555 6.6667 6.6667 6.6667 7.1778 6.6667 7.6316 6.9285 7.9167 7.3333M12.0833 7.3333C12.3683 6.9285 12.8222 6.6667 13.3333 6.6667 13.8445 6.6667 14.2983 6.9285 14.5833 7.3333" stroke="currentColor" stroke-linecap="round" stroke-linejoin="round" stroke-width="2"/>
</svg>
