<svg xmlns="http://www.w3.org/2000/svg" width="20" height="20" viewBox="0 0 20 20" fill="none">
  <path d="M10 18.3329C14.6023 18.3329 18.3333 14.6019 18.3333 9.9996 18.3333 5.3972 14.6023 1.6662 10 1.6662 5.3976 1.6662 1.6667 5.3972 1.6667 9.9996 1.6667 11.0258 1.8522 12.0088 2.1915 12.9166" stroke="currentColor" stroke-linecap="round" stroke-linejoin="round" stroke-width="2"/>
  <path d="M5.2842 11.6663C5.9706 13.6083 7.8227 14.9997 9.9997 14.9997 12.1768 14.9997 14.0287 13.6083 14.7152 11.6663M9.1667 15L7.6891 17.2578C7.1062 18.2863 5.8153 18.6387 4.8057 18.0448 3.7962 17.451 3.4503 16.1358 4.0331 15.1072L5.5107 12.5" stroke="currentColor" stroke-linecap="round" stroke-linejoin="round" stroke-width="2"/>
  <path d="M8.3333 7.3326C8.0483 6.9278 7.5945 6.666 7.0833 6.666 6.5722 6.666 6.1184 6.9278 5.8333 7.3326" stroke="currentColor" stroke-linecap="round" stroke-linejoin="round" stroke-width="2"/>
  <path d="M13.4375 6.9885V7.4297M13.125 7.291C13.125 6.9458 13.2649 6.666 13.4375 6.666 13.6101 6.666 13.75 6.9458 13.75 7.291 13.75 7.6361 13.6101 7.916 13.4375 7.916 13.2649 7.916 13.125 7.6361 13.125 7.291Z" stroke="currentColor" stroke-linecap="round" stroke-linejoin="round" stroke-width="2"/>
</svg>
