<svg xmlns="http://www.w3.org/2000/svg" width="20" height="20" viewBox="0 0 20 20" fill="none">
  <path d="M10.8333 9.1667L15 5" stroke="currentColor" stroke-width="2"/>
  <path d="M15.8333 5.8333L14.1667 4.1667 16.25 2.9167 17.0833 3.75 15.8333 5.8333Z" stroke="currentColor" stroke-linejoin="round" stroke-width="2"/>
  <path d="M3.3543 7.4791C2.5118 6.6366 2.2925 5.407 2.6962 4.3629L3.8812 5.5479H5.5479V3.8812L4.3629 2.6962C5.407 2.2925 6.6366 2.5118 7.4791 3.3543 8.3218 4.1971 8.5411 5.4273 8.1367 6.4716L13.5284 11.8633C14.5728 11.4589 15.8029 11.6782 16.6458 12.5209 17.4882 13.3634 17.7076 14.593 17.3038 15.6371L16.1188 14.4521 14.4521 14.4521V16.1188L15.6371 17.3038C14.593 17.7076 13.3634 17.4882 12.5209 16.6458 11.6788 15.8036 11.4592 14.5746 11.8624 13.5307L6.4693 8.1376C5.4254 8.5408 4.1964 8.3212 3.3543 7.4791Z" stroke="currentColor" stroke-linejoin="round" stroke-width="2"/>
  <path d="M10.1692 12.0833L5.4991 16.7534C5.0593 17.1933 4.3462 17.1933 3.9063 16.7534L3.2466 16.0937C2.8067 15.6538 2.8067 14.9407 3.2466 14.5008L7.9166 9.8308" stroke="currentColor" stroke-linejoin="round" stroke-width="2"/>
</svg>
