<svg xmlns="http://www.w3.org/2000/svg" width="20" height="20" viewBox="0 0 20 20" fill="none">
  <path d="M2.5 12.5V11.6667H17.5V12.5C17.5 14.857 17.5 16.0355 16.7678 16.7678 16.0355 17.5 14.857 17.5 12.5 17.5H7.5C5.143 17.5 3.9645 17.5 3.2322 16.7678 2.5 16.0355 2.5 14.857 2.5 12.5Z" stroke="currentColor" stroke-linecap="round" stroke-linejoin="round" stroke-width="2"/>
  <path d="M2.5 11.6667L2.5 10.8333C2.5 9.6065 2.5 8.9932 2.764 8.4653 3.0279 7.9374 3.5186 7.5694 4.5 6.8334 5.1608 6.3377 5.4912 6.0899 5.8761 5.9616 6.261 5.8333 6.674 5.8333 7.5 5.8333H12.5C13.326 5.8333 13.739 5.8333 14.1239 5.9616 14.5087 6.0899 14.8392 6.3377 15.5 6.8333 16.4814 7.5694 16.9722 7.9374 17.2361 8.4653 17.5 8.9932 17.5 9.6066 17.5 10.8333V11.6667H2.5Z" stroke="currentColor" stroke-linecap="round" stroke-linejoin="round" stroke-width="2"/>
  <path d="M13.3333 10V13.3333" stroke="currentColor" stroke-linecap="round" stroke-linejoin="round" stroke-width="2"/>
  <path d="M6.6667 10V13.3333" stroke="currentColor" stroke-linecap="round" stroke-linejoin="round" stroke-width="2"/>
  <path d="M7.0833 5.8334V5.4167C7.0833 4.2463 7.0833 3.6611 7.3642 3.2408 7.4858 3.0588 7.642 2.9025 7.824 2.7809 8.2444 2.5 8.8296 2.5 10 2.5 11.1703 2.5 11.7556 2.5 12.1759 2.7809 12.3579 2.9025 12.5142 3.0588 12.6358 3.2408 12.9167 3.6611 12.9167 4.2463 12.9167 5.4167V5.8334" stroke="currentColor" stroke-linecap="round" stroke-linejoin="round" stroke-width="2"/>
</svg>
