<svg xmlns="http://www.w3.org/2000/svg" width="20" height="20" viewBox="0 0 20 20" fill="none">
  <path d="M16.6667 5.8333C16.6667 7.6743 13.6819 9.1667 10 9.1667 6.3181 9.1667 3.3333 7.6743 3.3333 5.8333 3.3333 3.9924 6.3181 2.5 10 2.5 13.6819 2.5 16.6667 3.9924 16.6667 5.8333Z" stroke="currentColor" stroke-width="2"/>
  <path d="M15 11.6667C15 13.0474 12.7614 14.1667 10 14.1667 7.2386 14.1667 5 13.0474 5 11.6667 5 10.2859 7.2386 9.1667 10 9.1667" stroke="currentColor" stroke-linecap="round" stroke-width="2"/>
  <path d="M13.3333 15.8333C13.3333 16.7538 11.8409 17.5 10 17.5 8.1591 17.5 6.6667 16.7538 6.6667 15.8333 6.6667 14.9128 8.1591 14.1667 10 14.1667" stroke="currentColor" stroke-linecap="round" stroke-width="2"/>
</svg>
