<svg xmlns="http://www.w3.org/2000/svg" width="20" height="20" viewBox="0 0 20 20" fill="none">
  <path d="M7.5008 3.3341C7.7654 3.3333 8.0426 3.3333 8.3333 3.3333H11.6667C14.8093 3.3333 16.3808 3.3333 17.357 4.3096 18.3333 5.286 18.3333 6.8573 18.3333 10 18.3333 11.7717 18.3333 13.0439 18.1584 13.9917M3.6785 3.6785C3.2659 3.8215 2.9289 4.0237 2.643 4.3096 1.6667 5.286 1.6667 6.8573 1.6667 10 1.6667 13.1427 1.6667 14.7141 2.643 15.6903 3.6193 16.6667 5.1906 16.6667 8.3333 16.6667H11.6667C13.8889 16.6667 15.3254 16.6667 16.3215 16.3215" stroke="currentColor" stroke-linecap="round" stroke-linejoin="round" stroke-width="2"/>
  <path d="M1.6667 11.6667H11.6667M18.3333 11.6667H15.8333" stroke="currentColor" stroke-linecap="round" stroke-linejoin="round" stroke-width="2"/>
  <path d="M10 11.6667V16.6667" stroke="currentColor" stroke-linecap="round" stroke-linejoin="round" stroke-width="2"/>
  <path d="M1.6667 1.6667L18.3333 18.3333" stroke="currentColor" stroke-linecap="round" stroke-linejoin="round" stroke-width="2"/>
</svg>
