<svg xmlns="http://www.w3.org/2000/svg" width="20" height="20" viewBox="0 0 20 20" fill="none">
  <path d="M14.2852 18.3317C14.2421 16.7367 14.3495 16.5446 14.4634 16.1898 14.5774 15.835 15.3743 14.5554 15.6563 13.6412 16.5686 10.6835 15.7183 10.0544 14.5847 9.2157 13.3276 8.2855 10.9565 7.8144 9.7806 7.9164V3.1218C9.7806 2.3191 9.1298 1.6683 8.327 1.6683 7.5243 1.6683 6.8735 2.3191 6.8735 3.1218V8.3051M6.8739 18.3323V17.4878C6.8202 16.7008 6.0386 15.7696 5.0648 14.4305 4.0634 12.98 3.8482 12.2477 4.0057 11.5707 4.0869 11.2245 4.2974 10.6527 5.3312 9.6753L6.8735 8.3051M6.8735 11.6936V8.3051" stroke="currentColor" stroke-linecap="round" stroke-linejoin="round" stroke-width="2"/>
</svg>
