<svg xmlns="http://www.w3.org/2000/svg" width="20" height="20" viewBox="0 0 20 20" fill="none">
  <path d="M16.25 10C15.9691 9.4065 15.6373 8.948 15.0543 8.5987 14.4883 8.2596 13.6847 8.1391 12.0775 7.898L9.5876 7.5V3.125C9.5876 2.3196 8.9347 1.6667 8.1293 1.6667 7.3239 1.6667 6.671 2.3196 6.671 3.125V11.25L4.8927 9.7258C4.2703 9.1923 3.3297 9.2808 2.8176 9.9208 2.3916 10.4534 2.3944 11.2109 2.8245 11.7403L5.6233 15.1849C6.4878 16.2489 6.92 16.7809 7.5001 17.0959 7.6041 17.1524 7.7111 17.2033 7.8205 17.2484 8.3538 17.4683 8.9446 17.496 10 17.4995" stroke="currentColor" stroke-linecap="round" stroke-linejoin="round" stroke-width="2"/>
  <path d="M12.5 16.25C12.5 15.4712 12.5 15.0817 12.6675 14.7917 12.7772 14.6017 12.935 14.4438 13.125 14.3342 13.4151 14.1667 13.8045 14.1667 14.5833 14.1667H15.4167C16.1955 14.1667 16.5849 14.1667 16.875 14.3342 17.065 14.4438 17.2228 14.6017 17.3325 14.7917 17.5 15.0817 17.5 15.4712 17.5 16.25 17.5 17.0288 17.5 17.4183 17.3325 17.7083 17.2228 17.8983 17.065 18.0562 16.875 18.1658 16.5849 18.3333 16.1955 18.3333 15.4167 18.3333H14.5833C13.8045 18.3333 13.4151 18.3333 13.125 18.1658 12.935 18.0562 12.7772 17.8983 12.6675 17.7083 12.5 17.4183 12.5 17.0288 12.5 16.25Z" stroke="currentColor" stroke-width="2"/>
  <path d="M13.75 12.9167C13.75 12.2263 14.3097 11.6667 15 11.6667 15.6903 11.6667 16.25 12.2263 16.25 12.9167V14.1667H13.75V12.9167Z" stroke="currentColor" stroke-width="2"/>
</svg>
