<svg xmlns="http://www.w3.org/2000/svg" width="20" height="20" viewBox="0 0 20 20" fill="none">
  <path d="M6.18 11.6667V8.75M6.18 8.75V3.5417C6.18 2.7363 6.8329 2.0833 7.6383 2.0833 8.4438 2.0833 9.0967 2.7363 9.0967 3.5417V7.9167L11.6608 8.3146C13.268 8.5557 14.0717 8.6763 14.6377 9.0153 15.5727 9.5755 16.25 10.4167 16.25 11.6447 16.25 12.5 16.0386 13.0738 15.5247 14.6156 15.1986 15.5939 15.0355 16.083 14.7697 16.4703 14.3319 17.1077 13.6861 17.5732 12.9429 17.7868 12.4915 17.9167 11.9759 17.9167 10.9447 17.9167H9.7739C8.2868 17.9167 7.5433 17.9167 6.9049 17.6376 6.6164 17.5114 6.3473 17.3451 6.1055 17.1435 5.5703 16.6973 5.2378 16.0323 4.5728 14.7022 4.0335 13.6236 3.7638 13.0843 3.7507 12.5252 3.7448 12.273 3.7771 12.0213 3.8464 11.7788 4.0003 11.2412 4.3973 10.7873 5.1914 9.8798L6.18 8.75Z" stroke="currentColor" stroke-linecap="round" stroke-linejoin="round" stroke-width="2"/>
</svg>
