<svg xmlns="http://www.w3.org/2000/svg" width="20" height="20" viewBox="0 0 20 20" fill="none">
  <path d="M17.8737 11.6412L17.4337 12.0852 17.8737 11.6412ZM17.6552 15.4595L18.2173 15.7328 18.2173 15.7328 17.6552 15.4595ZM10.8333 12.715L10.4218 13.1854C10.6063 13.3468 10.8683 13.3855 11.0916 13.2842 11.3149 13.1828 11.4583 12.9603 11.4583 12.715H10.8333ZM9.3846 11.4475L9.7962 10.9771 9.795 10.9761 9.3846 11.4475ZM7.7556 13.0591L8.2511 12.6782C8.2486 12.675 8.2462 12.6718 8.2437 12.6687L7.7556 13.0591ZM9.9772 15.9491L10.4727 15.5682 9.9772 15.9491ZM7.7502 11.6035L7.2592 11.2168 7.2592 11.2168 7.7502 11.6035ZM16.281 18.3333C16.281 18.6785 16.5608 18.9583 16.906 18.9583 17.2512 18.9583 17.531 18.6785 17.531 18.3333H16.281ZM10.1601 18.3333C10.1601 18.6785 10.4399 18.9583 10.7851 18.9583 11.1303 18.9583 11.4101 18.6785 11.4101 18.3333H10.1601ZM10.6908 17.077L11.2868 16.8887 11.2868 16.8887 10.6908 17.077ZM10.6642 16.9983L11.2518 16.7855 11.2518 16.7855 10.6642 16.9983ZM13.3333 9.983H12.7083C12.7083 10.1535 12.778 10.3167 12.9012 10.4345 13.0243 10.5524 13.1903 10.6149 13.3607 10.6074L13.3333 9.983ZM17.4337 12.0852C17.6713 12.3206 17.7703 12.7639 17.6694 13.4274 17.573 14.0613 17.3168 14.7264 17.0932 15.1861L18.2173 15.7328C18.4725 15.2081 18.7832 14.4176 18.9052 13.6153 19.0227 12.8427 18.9915 11.869 18.3136 11.1973L17.4337 12.0852ZM17.0932 15.1861C17.0386 15.2983 16.9694 15.4213 16.8854 15.5692 16.8049 15.711 16.7116 15.8742 16.6262 16.0423 16.4608 16.3679 16.281 16.7931 16.281 17.2547H17.531C17.531 17.0992 17.5962 16.8929 17.7408 16.6083 17.8103 16.4713 17.8881 16.3348 17.9723 16.1865 18.0531 16.0443 18.1423 15.8869 18.2173 15.7328L17.0932 15.1861ZM11.2448 12.2446L9.7962 10.9771 8.9731 11.9179 10.4218 13.1854 11.2448 12.2446ZM7.2601 13.44L9.4817 16.33 10.4727 15.5682 8.2511 12.6782 7.2601 13.44ZM7.2592 11.2168C6.7439 11.8711 6.7473 12.7992 7.2675 13.4495L8.2437 12.6687C8.0864 12.4721 8.0853 12.1881 8.2412 11.9902L7.2592 11.2168ZM9.795 10.9761C9.0339 10.3136 7.8824 10.4255 7.2592 11.2168L8.2412 11.9902C8.4246 11.7573 8.7548 11.7279 8.9742 11.9189L9.795 10.9761ZM16.281 17.2547V18.3333H17.531V17.2547H16.281ZM11.4101 18.3333C11.4101 17.733 11.4168 17.3 11.2868 16.8887L10.0949 17.2653C10.1533 17.4503 10.1601 17.6561 10.1601 18.3333H11.4101ZM9.4817 16.33C9.8921 16.8639 10.0107 17.0293 10.0764 17.2109L11.2518 16.7855C11.1048 16.3793 10.8363 16.0413 10.4727 15.5682L9.4817 16.33ZM11.2868 16.8887C11.2758 16.8541 11.2642 16.8197 11.2518 16.7855L10.0764 17.2109C10.083 17.2289 10.0891 17.2471 10.0949 17.2653L11.2868 16.8887ZM10.2083 6.25V12.715H11.4583V6.25H10.2083ZM12.7083 6.25V9.983H13.9583V6.25H12.7083ZM13.3607 10.6074C14.4204 10.561 16.1602 10.8232 17.4337 12.0852L18.3136 11.1973C16.7006 9.599 14.5595 9.3038 13.306 9.3587L13.3607 10.6074ZM11.4583 6.25C11.4583 5.9048 11.7382 5.625 12.0833 5.625V4.375C11.0478 4.375 10.2083 5.2145 10.2083 6.25H11.4583ZM12.0833 5.625C12.4285 5.625 12.7083 5.9048 12.7083 6.25H13.9583C13.9583 5.2145 13.1188 4.375 12.0833 4.375V5.625Z" fill="currentColor"/>
  <path d="M18.3333 8.3332C18.3333 5.1905 18.3333 3.6192 17.357 2.6429 16.3808 1.6666 14.8093 1.6666 11.6667 1.6666H8.3333C5.1906 1.6666 3.6193 1.6666 2.643 2.6429 1.6667 3.6192 1.6667 5.1905 1.6667 8.3332V9.9999C1.6667 11.5531 1.6667 12.3296 1.9204 12.9422 2.2587 13.7589 2.9076 14.4078 3.7244 14.7462 4.2161 14.9498 4.8135 14.99 5.8333 14.998" stroke="currentColor" stroke-linecap="round" stroke-width="2"/>
</svg>
