<svg xmlns="http://www.w3.org/2000/svg" width="20" height="20" viewBox="0 0 20 20" fill="none">
  <path d="M10.0934 7.2372L10.8042 3.1339C10.9219 2.4541 10.476 1.8057 9.8082 1.6859 9.1403 1.566 8.5035 2.0199 8.3858 2.6998L6.9643 10.9064 6.8464 11.5424 5.2552 9.8642C4.6779 9.2699 3.7269 9.3241 3.2168 9.9804 2.8266 10.4826 2.8158 11.1929 3.1906 11.7074L5.6301 15.0556C6.1837 15.8154 6.4605 16.1954 6.7936 16.4907 7.3018 16.9412 7.9108 17.2547 8.5659 17.4028 8.9953 17.5 9.4566 17.5 10.3793 17.5H12.3238C14.2494 17.5 15.9084 16.1035 16.2908 14.1608L16.9934 10.5912 17.0645 10.1809C17.1822 9.501 16.7363 8.8527 16.0685 8.7328 15.4007 8.6129 14.7638 9.0669 14.646 9.7468L14.575 10.1571M10.0934 7.2372L9.8803 8.4682M10.0934 7.2372C10.2112 6.5574 10.8481 6.1034 11.5159 6.2233 12.1837 6.3432 12.6297 6.9915 12.5119 7.6713L12.3697 8.492M12.3697 8.492L12.2987 8.9023M12.3697 8.492C12.4875 7.8121 13.1243 7.3582 13.7922 7.4781 14.46 7.5979 14.9059 8.2462 14.7882 8.9261L14.7171 9.3364" stroke="currentColor" stroke-linecap="round" stroke-linejoin="round" stroke-width="2"/>
</svg>
