<svg xmlns="http://www.w3.org/2000/svg" width="20" height="20" viewBox="0 0 20 20" fill="none">
  <path d="M10.4548 8.1018H11.2375C12.1022 8.1018 12.8032 8.8066 12.8032 9.6759M12.8032 9.6759V10.4629M12.8032 9.6759C12.8032 9.2412 13.1536 8.8888 13.5859 8.8888 14.4506 8.8888 15.1516 9.5936 15.1516 10.4629M15.1516 10.4629V11.2499M15.1516 10.4629C15.1516 10.0509 15.5195 9.7375 15.9238 9.8052L16.1917 9.8502C16.9467 9.9767 17.5 10.6333 17.5 11.4028L17.4997 11.7748C17.4997 13.4853 17.4997 14.3405 17.2405 15.0214 17.0902 15.4163 16.6936 15.9201 16.3765 16.2841 16.1022 16.5989 15.9341 16.9983 15.9341 17.4168V18.3333M10.4546 9.6759V5.3472C10.4546 4.6952 9.9288 4.1667 9.2803 4.1667 8.6318 4.1667 8.1061 4.6952 8.1061 5.3472L8.106 11.6139 6.8376 10.3347C6.2811 9.7733 5.3644 9.8246 4.8727 10.4444 4.4965 10.9187 4.4861 11.5896 4.8474 12.0755L7.6653 15.6944C8.2044 16.3868 8.4974 17.454 8.4974 18.3333" stroke="currentColor" stroke-linecap="round" stroke-linejoin="round" stroke-width="2"/>
  <path d="M5 6.6667H4.3137C3.0659 6.6667 2.442 6.6667 2.0543 6.3006 1.6667 5.9344 1.6667 5.3452 1.6667 4.1667 1.6667 2.9882 1.6667 2.3989 2.0543 2.0328 2.442 1.6667 3.0659 1.6667 4.3137 1.6667H14.0196C15.2674 1.6667 15.8913 1.6667 16.279 2.0328 16.6667 2.3989 16.6667 2.9882 16.6667 4.1667 16.6667 5.3452 16.6667 5.9344 16.279 6.3006 15.8913 6.6667 15.2674 6.6667 14.0196 6.6667H13.3333" stroke="currentColor" stroke-linecap="round" stroke-linejoin="round" stroke-width="2"/>
</svg>
