<svg xmlns="http://www.w3.org/2000/svg" width="20" height="20" viewBox="0 0 20 20" fill="none">
  <path d="M7.1112 11.3773L8.75 12.8102V5.4172C8.75 4.7265 9.3099 4.1667 10.0005 4.1667 10.6908 4.1667 11.2505 4.7259 11.2511 5.4161L11.2538 9.3858 13.4507 9.7419C14.8688 9.9577 15.5779 10.0655 16.0773 10.3689 16.9023 10.8701 17.5 11.6667 17.5 12.7214 17.5 13.4868 17.3135 14.0002 16.86 15.3797 16.5723 16.2549 16.4284 16.6926 16.1938 17.0391 15.8076 17.6094 15.2378 18.0259 14.582 18.2171 14.1837 18.3332 13.7287 18.3332 12.8188 18.3332H12.0476C10.8378 18.3332 10.233 18.3332 9.6946 18.1082 9.598 18.0678 9.5037 18.0222 9.4118 17.9717 8.9 17.6898 8.5187 17.2138 7.7558 16.2618L5.2863 13.1798C4.9068 12.7062 4.9043 12.0284 5.2802 11.5518 5.7321 10.9792 6.562 10.9 7.1112 11.3773Z" stroke="currentColor" stroke-linecap="round" stroke-linejoin="round" stroke-width="2"/>
  <path d="M5.8333 6.6667H5.1471C3.8992 6.6667 3.2753 6.6667 2.8877 6.3006 2.5 5.9344 2.5 5.3452 2.5 4.1667 2.5 2.9882 2.5 2.3989 2.8877 2.0328 3.2753 1.6667 3.8992 1.6667 5.1471 1.6667H14.8529C16.1008 1.6667 16.7247 1.6667 17.1123 2.0328 17.5 2.3989 17.5 2.9882 17.5 4.1667 17.5 5.3452 17.5 5.9344 17.1123 6.3006 16.7247 6.6667 16.1008 6.6667 14.8529 6.6667H14.1667" stroke="currentColor" stroke-linecap="round" stroke-linejoin="round" stroke-width="2"/>
</svg>
