<svg xmlns="http://www.w3.org/2000/svg" width="20" height="20" viewBox="0 0 20 20" fill="none">
  <path d="M14.9111 18.3235C14.868 16.7292 14.9754 16.5372 15.0893 16.1825 15.2033 15.8278 16.0002 14.5488 16.2822 13.6349 17.1945 10.6783 16.3442 10.0495 15.2106 9.2111 13.9535 8.2813 11.5824 7.8104 10.4065 7.9123V3.1196C10.4065 2.3172 9.7557 1.6667 8.9529 1.6667 8.1502 1.6667 7.4994 2.3172 7.4994 3.1196V11.6692L5.7826 9.8531C5.2496 9.2752 4.393 9.2166 3.8084 9.7423 3.2544 10.2404 3.1735 11.0793 3.6222 11.6741L4.6992 13.1015M7.3916 18.3333L7.3753 17.458C7.4111 16.4319 6.6645 15.7624 5.6906 14.4239 5.6205 14.3275 5.5522 14.2342 5.4857 14.1441M5.4857 14.1441C5.1907 13.7437 4.9311 13.4026 4.6992 13.1015M5.4857 14.1441L6.4602 15.4358M5.4857 14.1441L4.6992 13.1015M4.6992 13.1015C4.223 12.4834 3.8636 12.0342 3.5537 11.5879" stroke="currentColor" stroke-linecap="round" stroke-linejoin="round" stroke-width="2"/>
</svg>
