<svg xmlns="http://www.w3.org/2000/svg" width="20" height="20" viewBox="0 0 20 20" fill="none">
  <path d="M5.8333 6.664H5.1471C3.8992 6.664 3.2753 6.664 2.8877 6.2982 2.5 5.9324 2.5 5.3436 2.5 4.1661 2.5 2.9887 2.5 2.3999 2.8877 2.0341 3.2753 1.6683 3.8992 1.6683 5.1471 1.6683H14.8529C16.1008 1.6683 16.7247 1.6683 17.1123 2.0341 17.5 2.3999 17.5 2.9887 17.5 4.1661 17.5 5.3436 17.5 5.9324 17.1123 6.2982 16.7247 6.664 16.1008 6.664 14.8529 6.664H13.75" stroke="currentColor" stroke-linecap="round" stroke-linejoin="round" stroke-width="2"/>
  <path d="M15.0247 18.3261C14.9833 16.8979 15.0999 16.7099 15.2095 16.3922 15.319 16.0744 15.9987 14.9464 16.2697 14.1278 17.1467 11.4793 16.476 11.0315 15.4253 10.2269 14.2215 9.3051 12.184 8.836 10.9122 8.9373V5.5289C10.9122 4.8101 10.2243 4.1846 9.4527 4.1846 8.681 4.1846 7.9975 4.8101 7.9975 5.5289V11.9888L6.3547 10.591C5.9115 10.1432 5.2023 10.1842 4.6889 10.5231 4.5291 10.6286 4.3996 10.7766 4.3173 10.9494 4.0837 11.4399 4.1511 11.9952 4.5191 12.4497L5.4531 13.6536M7.94 18.331V17.5422C8.0005 16.5736 7.1207 15.7957 6.1846 14.5967M6.1846 14.5967C6.1172 14.5102 6.2485 14.6775 6.1846 14.5967ZM6.1846 14.5967C5.901 14.238 5.676 13.9233 5.4531 13.6536M6.1846 14.5967L7.1071 15.7248M6.1846 14.5967L5.4531 13.6536" stroke="currentColor" stroke-linecap="round" stroke-linejoin="round" stroke-width="2"/>
</svg>
