<svg xmlns="http://www.w3.org/2000/svg" width="20" height="20" viewBox="0 0 20 20" fill="none">
  <path d="M5.3094 10.1425L7.0876 11.6667V3.5417C7.0876 2.7363 7.7405 2.0833 8.5459 2.0833 9.3513 2.0833 10.0043 2.7363 10.0043 3.5417V7.9167L12.4942 8.3146C14.1013 8.5557 14.905 8.6763 15.471 9.0153 16.406 9.5755 17.0833 10.4167 17.0833 11.6447 17.0833 12.5 16.8719 13.0738 16.358 14.6156 16.0319 15.5939 15.8688 16.083 15.603 16.4703 15.1653 17.1077 14.5194 17.5732 13.7763 17.7868 13.3248 17.9167 12.8093 17.9167 11.778 17.9167H10.9039C9.5329 17.9167 8.8474 17.9167 8.2372 17.6651 8.1277 17.62 8.0208 17.5691 7.9168 17.5126 7.3367 17.1976 6.9044 16.6656 6.0399 15.6016L3.2412 12.1569C2.8111 11.6276 2.8082 10.8701 3.2343 10.3375 3.7464 9.6974 4.687 9.609 5.3094 10.1425Z" stroke="currentColor" stroke-linecap="round" stroke-linejoin="round" stroke-width="2"/>
</svg>
