<svg xmlns="http://www.w3.org/2000/svg" width="20" height="20" viewBox="0 0 20 20" fill="none">
  <path d="M12.3487 7.8703H13.1062C13.943 7.8703 14.6213 8.5336 14.6213 9.3518M14.6213 9.3518V10.0925M14.6213 9.3518C14.6213 8.9427 14.9605 8.6111 15.3789 8.6111 16.2157 8.6111 16.894 9.2743 16.894 10.0925M16.894 10.0925V10.8333M16.894 10.0925C16.894 9.7048 17.2501 9.4098 17.6412 9.4736L17.9007 9.5158C18.6312 9.6349 19.1667 10.253 19.1667 10.9772L19.1663 11.3273C19.1663 12.9371 19.1663 13.742 18.9156 14.3828 18.7701 14.7546 18.3863 15.2287 18.0793 15.5713 17.8139 15.8676 17.6513 16.2435 17.6513 16.6373V17.5M12.3485 9.3518V5.2778C12.3485 4.6641 11.8398 4.1667 11.2122 4.1667 10.5846 4.1667 10.0758 4.6641 10.0758 5.2778L10.0757 11.1758 8.8482 9.9718C8.3096 9.4436 7.4225 9.4918 6.9467 10.0752 6.5826 10.5215 6.5726 11.1529 6.9223 11.6103L9.6493 15.0163C10.171 15.6679 10.4544 16.6724 10.4544 17.5" stroke="currentColor" stroke-linecap="round" stroke-linejoin="round" stroke-width="2"/>
  <path d="M5.8351 15C4.8148 14.9921 4.2172 14.9519 3.7253 14.7482 2.9082 14.4098 2.259 13.7608 1.9205 12.9439 1.6667 12.3313 1.6667 11.5546 1.6667 10.0013V8.3343C1.6667 5.1912 1.6667 3.6196 2.6434 2.6431 3.6201 1.6667 5.1922 1.6667 8.3363 1.6667H11.671C14.8151 1.6667 16.3871 1.6667 17.3638 2.6431 18.1501 3.4291 18.3034 4.6008 18.3333 6.6674" stroke="currentColor" stroke-linecap="round" stroke-width="2"/>
</svg>
