<svg xmlns="http://www.w3.org/2000/svg" width="20" height="20" viewBox="0 0 20 20" fill="none">
  <path d="M9.3298 11.7866L10.8333 13.1351V6.2499C10.8333 5.5596 11.393 4.9999 12.0833 4.9999 12.7737 4.9999 13.3333 5.5596 13.3333 6.2499V9.985L14.824 10.2473C16.053 10.4504 16.6675 10.5519 17.1004 10.8374 17.8153 11.3092 18.3333 12.0175 18.3333 13.0516 18.3333 13.7719 18.1717 14.2552 17.7787 15.5535 17.5293 16.3773 17.4046 16.7892 17.2013 17.1152 16.8666 17.6521 16.3728 18.0441 15.8044 18.224 15.4592 18.3333 15.0649 18.3333 14.2763 18.3333H13.6079C12.5595 18.3333 12.0353 18.3333 11.5687 18.1215 11.4849 18.0835 11.4032 18.0407 11.3236 17.9931 10.88 17.7278 10.5495 17.2798 9.8883 16.3837L7.7481 13.483C7.4193 13.0373 7.4171 12.3993 7.7429 11.9508 8.1345 11.4118 8.8537 11.3373 9.3298 11.7866Z" stroke="currentColor" stroke-linecap="round" stroke-linejoin="round" stroke-width="2"/>
  <path d="M18.3333 8.3332C18.3333 5.1905 18.3333 3.6192 17.357 2.6429 16.3808 1.6666 14.8093 1.6666 11.6667 1.6666H8.3333C5.1906 1.6666 3.6193 1.6666 2.643 2.6429 1.6667 3.6192 1.6667 5.1905 1.6667 8.3332V9.9999C1.6667 11.5531 1.6667 12.3296 1.9204 12.9422 2.2587 13.7589 2.9076 14.4078 3.7244 14.7462 4.2161 14.9498 4.8135 14.99 5.8333 14.998" stroke="currentColor" stroke-linecap="round" stroke-width="2"/>
</svg>
