<svg xmlns="http://www.w3.org/2000/svg" width="20" height="20" viewBox="0 0 20 20" fill="none">
  <path d="M7.0833 11.6667L6.6306 12.0976C6.8068 12.2828 7.078 12.3419 7.3154 12.247 7.5527 12.1521 7.7083 11.9223 7.7083 11.6667H7.0833ZM5.2362 9.7261L5.6889 9.2952C5.6765 9.2822 5.6636 9.2697 5.6502 9.2578L5.2362 9.7261ZM3.2313 11.7405L3.7296 11.3633C3.7272 11.3602 3.7247 11.3569 3.7222 11.3538L3.2313 11.7405ZM5.9655 15.353L5.4672 15.7303H5.4672L5.9655 15.353ZM3.2246 9.9211L2.7307 9.5381 2.7307 9.5381 3.2246 9.9211ZM6.3348 18.3333C6.3348 18.6785 6.6147 18.9583 6.9598 18.9583 7.305 18.9583 7.5848 18.6785 7.5848 18.3333H6.3348ZM6.8439 16.7629L7.4406 16.5773 6.8439 16.7629ZM6.811 16.6644L7.3997 16.4547 7.3997 16.4546 6.811 16.6644ZM10 7.9167H9.375C9.375 8.0872 9.4448 8.2504 9.568 8.3683 9.6913 8.4863 9.8573 8.5487 10.0278 8.5411L10 7.9167ZM15.0002 10.0493C15.2575 10.2793 15.6526 10.2572 15.8827 9.9998 16.1127 9.7425 16.0905 9.3474 15.8332 9.1173L15.0002 10.0493ZM7.536 11.2358L5.6889 9.2952 4.7835 10.1569 6.6306 12.0976 7.536 11.2358ZM2.7329 12.1178L5.4672 15.7303 6.4639 14.9758 3.7296 11.3633 2.7329 12.1178ZM2.7307 9.5381C2.1418 10.2973 2.1457 11.3723 2.7403 12.1273L3.7222 11.3538C3.483 11.05 3.4813 10.6099 3.7184 10.3041L2.7307 9.5381ZM5.6502 9.2578C4.7736 8.4827 3.446 8.6157 2.7307 9.5381L3.7184 10.3041C3.996 9.9462 4.4921 9.9024 4.8222 10.1943L5.6502 9.2578ZM7.5848 18.3333C7.5848 17.5728 7.5914 17.0616 7.4406 16.5773L6.2471 16.9487C6.3283 17.2097 6.3348 17.4969 6.3348 18.3333H7.5848ZM5.4672 15.7303C5.9663 16.3897 6.1311 16.6183 6.2223 16.8742L7.3997 16.4546C7.2291 15.9757 6.9174 15.575 6.4639 14.9758L5.4672 15.7303ZM7.4406 16.5773C7.4278 16.5361 7.4142 16.4953 7.3997 16.4547L6.2223 16.8742C6.231 16.8988 6.2393 16.9237 6.2471 16.9487L7.4406 16.5773ZM6.4583 3.125V11.6667H7.7083V3.125H6.4583ZM9.375 3.125V7.9167H10.625V3.125H9.375ZM7.7083 3.125C7.7083 2.6648 8.0814 2.2917 8.5417 2.2917V1.0417C7.3911 1.0417 6.4583 1.9744 6.4583 3.125H7.7083ZM8.5417 2.2917C9.0019 2.2917 9.375 2.6648 9.375 3.125H10.625C10.625 1.9744 9.6922 1.0417 8.5417 1.0417V2.2917ZM10.0278 8.5411C11.3302 8.4832 13.4347 8.65 15.0002 10.0493L15.8332 9.1173C13.8967 7.3864 11.3765 7.2298 9.9723 7.2923L10.0278 8.5411Z" fill="currentColor"/>
  <path d="M12.0833 16.25C12.0833 15.4712 12.0833 15.0817 12.2508 14.7917 12.3605 14.6017 12.5183 14.4438 12.7083 14.3342 12.9984 14.1667 13.3878 14.1667 14.1667 14.1667H15C15.7788 14.1667 16.1683 14.1667 16.4583 14.3342 16.6483 14.4438 16.8062 14.6017 16.9158 14.7917 17.0833 15.0817 17.0833 15.4712 17.0833 16.25 17.0833 17.0288 17.0833 17.4183 16.9158 17.7083 16.8062 17.8983 16.6483 18.0562 16.4583 18.1658 16.1683 18.3333 15.7788 18.3333 15 18.3333H14.1667C13.3878 18.3333 12.9984 18.3333 12.7083 18.1658 12.5183 18.0562 12.3605 17.8983 12.2508 17.7083 12.0833 17.4183 12.0833 17.0288 12.0833 16.25Z" stroke="currentColor" stroke-width="2"/>
  <path d="M13.3333 12.9167C13.3333 12.2263 13.893 11.6667 14.5833 11.6667 15.2737 11.6667 15.8333 12.2263 15.8333 12.9167V14.1667H13.3333V12.9167Z" stroke="currentColor" stroke-width="2"/>
</svg>
