<svg xmlns="http://www.w3.org/2000/svg" width="20" height="20" viewBox="0 0 20 20" fill="none">
  <path d="M9.3561 6.4912V2.9825C9.3561 2.2558 8.7794 1.6667 8.0682 1.6667 7.3569 1.6667 6.7803 2.2558 6.7803 2.9825V11.7213L5.3891 10.2955C4.7787 9.6699 3.7733 9.727 3.234 10.4178 2.8214 10.9464 2.81 11.6942 3.2063 12.2358L5.7855 15.7602C6.3708 16.5601 6.6635 16.96 7.0157 17.2708 7.553 17.7451 8.1969 18.0751 8.8895 18.2311 9.3434 18.3333 9.8313 18.3333 10.8068 18.3333 12.6669 18.3333 13.597 18.3333 14.3375 18.042 15.4698 17.5966 16.3644 16.6796 16.7991 15.5192 17.0833 14.7602 17.0833 13.807 17.0833 11.9006V9.7318C17.0833 8.8742 16.4765 8.1423 15.6485 8.0013L15.3545 7.9512C14.9112 7.8757 14.5076 8.225 14.5076 8.6843M9.3561 6.4912L9.8521 6.2379C10.0905 6.116 10.3572 6.0374 10.6164 6.1009 11.371 6.2857 11.9318 6.9794 11.9318 7.807M9.3561 6.4912V8.6843M11.9318 7.807V8.6843M11.9318 7.807C11.9318 7.3226 12.3163 6.9298 12.7904 6.9298 13.7387 6.9298 14.5076 7.7153 14.5076 8.6843M14.5076 8.6843V9.5614" stroke="currentColor" stroke-linecap="round" stroke-linejoin="round" stroke-width="2"/>
</svg>
