<svg xmlns="http://www.w3.org/2000/svg" width="20" height="20" viewBox="0 0 20 20" fill="none">
  <path d="M5.6249 11.6667C5.6249 12.0118 5.9047 12.2917 6.2499 12.2917 6.5951 12.2917 6.8749 12.0118 6.8749 11.6667H5.6249ZM9.1666 7.9167H8.5416C8.5416 8.0872 8.6113 8.2504 8.7345 8.3683 8.8578 8.4863 9.0239 8.5487 9.1943 8.5411L9.1666 7.9167ZM5.625 18.3333C5.625 18.6785 5.9048 18.9583 6.25 18.9583 6.5952 18.9583 6.875 18.6785 6.875 18.3333H5.625ZM4.3121 14.2428L3.7779 14.5672 3.7779 14.5672 4.3121 14.2428ZM3.4364 11.3405L4.0268 11.5456H4.0268L3.4364 11.3405ZM6.6264 8.8323C6.9019 8.6245 6.9568 8.2326 6.749 7.957 6.5411 7.6814 6.1492 7.6265 5.8737 7.8344L6.6264 8.8323ZM14.1668 10.0493C14.4242 10.2793 14.8193 10.2573 15.0493 9.9998 15.2793 9.7425 15.2573 9.3474 14.9998 9.1173L14.1668 10.0493ZM5.6249 3.125V11.6667H6.8749V3.125H5.6249ZM8.5416 3.125V7.9167H9.7916V3.125H8.5416ZM6.8749 3.125C6.8749 2.6648 7.248 2.2917 7.7082 2.2917V1.0417C6.5576 1.0417 5.6249 1.9744 5.6249 3.125H6.8749ZM7.7082 2.2917C8.1684 2.2917 8.5416 2.6648 8.5416 3.125H9.7916C9.7916 1.9744 8.8588 1.0417 7.7082 1.0417V2.2917ZM5.625 17.5041V18.3333H6.875V17.5041H5.625ZM3.7779 14.5672C3.9009 14.7698 4.0949 15.03 4.29 15.2898 4.4938 15.5613 4.7155 15.8539 4.9244 16.1523 5.1342 16.452 5.3183 16.74 5.4481 16.9958 5.5862 17.2683 5.625 17.4325 5.625 17.5041H6.875C6.875 17.1285 6.7233 16.7468 6.5629 16.4304 6.3941 16.0976 6.1715 15.7542 5.9485 15.4356 5.7248 15.1159 5.488 14.8035 5.2896 14.5393 5.0824 14.2634 4.9306 14.0572 4.8464 13.9184L3.7779 14.5672ZM4.0268 11.5456C4.0931 11.3547 4.262 11.0869 4.5309 10.766 4.7909 10.4557 5.1087 10.1372 5.4236 9.8462 5.7371 9.5565 6.0393 9.3018 6.2635 9.1192 6.3754 9.0282 6.4673 8.9556 6.5307 8.9061 6.5624 8.8814 6.5869 8.8625 6.6032 8.85 6.6113 8.8438 6.6174 8.8391 6.6213 8.8361 6.6233 8.8347 6.6247 8.8336 6.6255 8.8329 6.626 8.8326 6.6262 8.8324 6.6264 8.8323 6.6264 8.8323 6.6265 8.8323 6.6265 8.8323 6.6265 8.8323 6.6264 8.8323 6.6264 8.8323 6.6264 8.8323 6.6264 8.8323 6.25 8.3333 5.8737 7.8344 5.8736 7.8344 5.8735 7.8345 5.8735 7.8345 5.8734 7.8346 5.8733 7.8346 5.8732 7.8347 5.873 7.8349 5.8727 7.835 5.8723 7.8354 5.8717 7.8358 5.871 7.8364 5.8695 7.8375 5.8675 7.839 5.8649 7.841 5.8597 7.8449 5.8523 7.8506 5.8428 7.8579 5.8238 7.8724 5.7964 7.8936 5.7617 7.9206 5.6924 7.9747 5.5937 8.0527 5.4744 8.1498 5.2362 8.3437 4.9132 8.6159 4.5753 8.9282 4.2388 9.239 3.8793 9.5973 3.5727 9.9633 3.275 10.3187 2.988 10.7266 2.846 11.1353L4.0268 11.5456ZM4.8464 13.9185C4.5542 13.4373 4.2862 13.0465 4.1122 12.624 3.9492 12.2283 3.9078 11.8881 4.0268 11.5456L2.846 11.1353C2.5936 11.862 2.7224 12.5322 2.9564 13.1001 3.1792 13.6411 3.5348 14.1669 3.7779 14.5672L4.8464 13.9185ZM9.1943 8.5411C10.4969 8.4832 12.6013 8.6499 14.1668 10.0493L14.9998 9.1173C13.0633 7.3863 10.543 7.2298 9.1387 7.2923L9.1943 8.5411Z" fill="currentColor"/>
  <path d="M11.6667 16.25C11.6667 15.4712 11.6667 15.0817 11.8342 14.7917 11.9438 14.6017 12.1017 14.4438 12.2917 14.3342 12.5818 14.1667 12.9712 14.1667 13.75 14.1667H14.5833C15.3622 14.1667 15.7516 14.1667 16.0417 14.3342 16.2317 14.4438 16.3895 14.6017 16.4992 14.7917 16.6667 15.0817 16.6667 15.4712 16.6667 16.25 16.6667 17.0288 16.6667 17.4183 16.4992 17.7083 16.3895 17.8983 16.2317 18.0562 16.0417 18.1658 15.7516 18.3333 15.3622 18.3333 14.5833 18.3333H13.75C12.9712 18.3333 12.5818 18.3333 12.2917 18.1658 12.1017 18.0562 11.9438 17.8983 11.8342 17.7083 11.6667 17.4183 11.6667 17.0288 11.6667 16.25Z" stroke="currentColor" stroke-width="2"/>
  <path d="M12.9167 12.9167C12.9167 12.2263 13.4763 11.6667 14.1667 11.6667 14.857 11.6667 15.4167 12.2263 15.4167 12.9167V14.1667H12.9167V12.9167Z" stroke="currentColor" stroke-width="2"/>
</svg>
