<svg xmlns="http://www.w3.org/2000/svg" width="20" height="20" viewBox="0 0 20 20" fill="none">
  <path d="M5.4167 17.5L5.4167 9.5833C5.4167 7.052 7.4687 5 10 5 12.5313 5 14.5833 7.052 14.5833 9.5833L14.5833 17.5" stroke="currentColor" stroke-linecap="round" stroke-linejoin="round" stroke-width="2"/>
  <path d="M2.5 10.8333V10C2.5 5.8579 5.8579 2.5 10 2.5 14.1422 2.5 17.5 5.8579 17.5 10V10.8333" stroke="currentColor" stroke-linecap="round" stroke-linejoin="round" stroke-width="2"/>
  <path d="M12.0833 9.5833C12.0833 8.4328 11.1506 7.5 10 7.5 8.8494 7.5 7.9167 8.4328 7.9167 9.5833V10.625C7.9167 11.2003 8.383 11.6667 8.9583 11.6667H11.0417C11.617 11.6667 12.0833 11.2003 12.0833 10.625V9.5833Z" stroke="currentColor" stroke-linecap="round" stroke-linejoin="round" stroke-width="2"/>
</svg>
