<svg xmlns="http://www.w3.org/2000/svg" width="20" height="20" viewBox="0 0 20 20" fill="none">
  <path d="M7.4922 18.3341L7.4527 17.6901 7.3075 17.0695C6.8474 15.2483 6.204 15.0468 5.1804 13.7415 4.7183 13.1522 3.8837 12.3518 3.0943 11.2238 2.5682 10.4723 3.2232 8.6761 4.8235 9.1969 5.0899 9.2836 5.3138 9.4573 5.5123 9.648L7.0649 11.2238C7.0522 9.1137 7.0815 4.1276 7.0473 2.8093 7.013 1.491 9.4042 1.0668 9.5451 2.8692V7.531M9.5451 7.531V8.3124M9.5451 7.531C10.3271 6.5397 11.8067 6.5048 12.022 8.1642M12.022 8.1642C12.057 8.4344 12.0598 8.75 12.022 9.1143M12.022 8.1642C12.4172 7.0049 14.2162 7.4581 14.5616 8.8073M14.5616 8.8073C14.6434 9.1272 14.5287 9.5453 14.5616 9.9726M14.5616 8.8073C14.7859 8.1571 17.3051 8.1906 17.0693 10.7028L17.0398 12.9569C17.0398 14.2945 16.8614 14.9147 16.3504 15.5722 16.1618 15.8151 15.9008 16.058 15.7183 16.3242 15.576 16.532 15.4842 16.7737 15.4442 17.0223 15.3884 17.3687 15.381 17.8481 15.3983 18.3072" stroke="currentColor" stroke-linecap="round" stroke-linejoin="round" stroke-width="2"/>
</svg>
