<svg xmlns="http://www.w3.org/2000/svg" width="20" height="20" viewBox="0 0 20 20" fill="none">
  <path d="M5.7633 11.2457V8.3304M5.7633 8.3304V3.1244C5.7633 2.3193 6.4163 1.6667 7.2217 1.6667 8.0271 1.6667 8.68 2.3193 8.68 3.1244V7.4974L11.2442 7.8952C12.8513 8.1362 13.655 8.2567 14.221 8.5956 14.804 8.9448 15.1358 9.4031 15.4167 9.9963M5.7633 8.3304L4.7748 9.4597C3.9806 10.3668 3.5836 10.8204 3.4298 11.3579 3.3604 11.6002 3.3281 11.8517 3.334 12.1038 3.3471 12.6628 3.6168 13.2018 4.1561 14.2799 4.8211 15.6094 5.1536 16.2742 5.6888 16.7202 5.9306 16.9217 6.1998 17.0879 6.4882 17.214 7.3141 17.5749 8.2831 17.4918 9.1667 17.4918" stroke="currentColor" stroke-linecap="round" stroke-linejoin="round" stroke-width="2"/>
  <path d="M11.6667 16.25C11.6667 15.4712 11.6667 15.0817 11.8342 14.7917 11.9438 14.6017 12.1017 14.4438 12.2917 14.3342 12.5818 14.1667 12.9712 14.1667 13.75 14.1667H14.5833C15.3622 14.1667 15.7516 14.1667 16.0417 14.3342 16.2317 14.4438 16.3895 14.6017 16.4992 14.7917 16.6667 15.0817 16.6667 15.4712 16.6667 16.25 16.6667 17.0288 16.6667 17.4183 16.4992 17.7083 16.3895 17.8983 16.2317 18.0562 16.0417 18.1658 15.7516 18.3333 15.3622 18.3333 14.5833 18.3333H13.75C12.9712 18.3333 12.5818 18.3333 12.2917 18.1658 12.1017 18.0562 11.9438 17.8983 11.8342 17.7083 11.6667 17.4183 11.6667 17.0288 11.6667 16.25Z" stroke="currentColor" stroke-width="2"/>
  <path d="M12.9167 12.9167C12.9167 12.2263 13.4763 11.6667 14.1667 11.6667 14.857 11.6667 15.4167 12.2263 15.4167 12.9167V14.1667H12.9167V12.9167Z" stroke="currentColor" stroke-width="2"/>
</svg>
