<svg xmlns="http://www.w3.org/2000/svg" width="20" height="20" viewBox="0 0 20 20" fill="none">
  <path d="M18.3333 11.3158V11.4521M18.3333 11.4521C18.3333 10.766 17.8336 10.1805 17.1517 10.0677L16.2121 9.9123V10.614M18.3333 11.4521V13.1872C18.3333 14.7123 18.3333 15.4749 18.0993 16.082 17.7413 17.0103 17.0045 17.7439 16.0721 18.1003 15.4623 18.3333 14.6963 18.3333 13.1644 18.3333 12.361 18.3333 11.9593 18.3333 11.5855 18.2515 11.0151 18.1267 10.4848 17.8628 10.0423 17.4833 9.7523 17.2347 9.5113 16.9148 9.0293 16.2748L6.9052 13.4553C6.5789 13.022 6.5882 12.4238 6.928 12.0009 7.3721 11.4482 8.2001 11.4026 8.7028 11.9031L9.7778 13.0437V6.1765C9.7778 5.5267 10.3001 5 10.9444 5 11.5887 5 12.1111 5.5267 12.1111 6.1765V8.5088M12.1111 8.5088H12.6768C13.4578 8.5088 14.0909 9.1372 14.0909 9.9123M12.1111 8.5088V10.614M14.0909 9.9123V10.614M14.0909 9.9123V9.2105H14.798C15.579 9.2105 16.2121 9.8389 16.2121 10.614M16.2121 10.614V11.3158" stroke="currentColor" stroke-linecap="round" stroke-linejoin="round" stroke-width="2"/>
  <path d="M18.3333 6.6751C18.3034 4.6053 18.1501 3.4319 17.3638 2.6446 16.3871 1.6667 14.8151 1.6667 11.671 1.6667H8.3363C5.1922 1.6667 3.6201 1.6667 2.6434 2.6446 1.6667 3.6226 1.6667 5.1966 1.6667 8.3446V10.0141C1.6667 11.5698 1.6667 12.3477 1.9205 12.9613 2.259 13.7794 2.9082 14.4294 3.7253 14.7683 4.065 14.9093 4.4551 14.972 5 15" stroke="currentColor" stroke-linecap="round" stroke-width="2"/>
</svg>
