<svg xmlns="http://www.w3.org/2000/svg" width="20" height="20" viewBox="0 0 20 20" fill="none">
  <path d="M6.3334 11.2873V7.4761M6.3334 7.4761V2.8557C6.3334 2.171 6.9298 1.6684 7.6288 1.6684 8.3279 1.6684 8.8879 2.171 8.8879 2.8557L8.9447 7.0829M6.3334 7.4761C5.2125 8.4709 3.9862 9.6224 3.8238 9.9444 3.068 11.0712 3.1275 12.081 4.4139 13.8063 5.2341 14.9064 6.2064 16.0274 6.2668 16.0857 6.9341 16.7298 6.7533 17.6012 6.7533 18.3318M8.9447 7.0829V9.1911M8.9447 7.0829C9.5418 6.3813 11.146 6.6306 11.4824 8.0641M11.5128 9.1877V8.352C11.5128 8.2861 11.5095 8.2201 11.5 8.1549M11.4824 8.0641C11.4838 8.0701 11.4853 8.0761 11.4866 8.0822 11.492 8.1063 11.4964 8.1305 11.5 8.1549M11.4824 8.0641C11.4859 8.0933 11.4918 8.1235 11.5 8.1549M11.4824 8.0641C11.6725 7.0829 13.9478 7.3085 14.0531 9.0657V10.0207M14.8699 18.3279V17.462C14.9025 16.4398 15.7677 16.1307 16.2818 15.0141 16.8015 13.9872 16.6442 11.3792 16.6442 10.1304 16.6667 9.8343 16.4643 8.9723 15.5261 8.6462 15.2313 8.5063 14.5683 8.3055 13.9976 8.7075" stroke="currentColor" stroke-linecap="round" stroke-width="2"/>
</svg>
