<svg xmlns="http://www.w3.org/2000/svg" width="20" height="20" viewBox="0 0 20 20" fill="none">
  <path d="M14.1684 17.5C15.0886 17.5 15.8345 16.7538 15.8345 15.8333 15.8345 14.9128 15.0886 14.1667 14.1684 14.1667 13.2483 14.1667 12.5024 14.9128 12.5024 15.8333 12.5024 16.7538 13.2483 17.5 14.1684 17.5Z" stroke="currentColor" stroke-width="2"/>
  <path d="M5.8384 17.5C6.7585 17.5 7.5044 16.7538 7.5044 15.8333 7.5044 14.9128 6.7585 14.1667 5.8384 14.1667 4.9183 14.1667 4.1724 14.9128 4.1724 15.8333 4.1724 16.7538 4.9183 17.5 5.8384 17.5Z" stroke="currentColor" stroke-width="2"/>
  <path d="M1.6732 6.7857C1.8018 7.2019 2.2026 7.5 2.6105 7.5 3.128 7.5 3.5475 7.0203 3.5475 6.4286 3.5475 5.8368 3.128 5.3571 2.6105 5.3571L2.8883 2.8129C2.9079 2.6341 3.0407 2.5 3.1983 2.5H5.0052L10.0032 10M5.0052 2.5L6.6712 10.8333M15.8343 15.8333C18.0695 15.8333 18.3333 15.06 18.3333 12.9271 18.3333 11.9063 18.3333 11.3958 18.1333 10.9648 17.9245 10.5148 17.5482 10.2345 16.7567 9.6609 15.9706 9.0913 15.4117 8.4508 14.8791 7.5687 14.1196 6.3105 13.7398 5.6815 13.1702 5.3407 12.6008 5 11.929 5 10.5855 5H10.0032V10.8333" stroke="currentColor" stroke-linecap="round" stroke-linejoin="round" stroke-width="2"/>
  <path d="M4.1721 15.83C4.1721 15.83 3.2059 15.8386 2.906 15.8 2.6561 15.7 2.3524 15.4654 2.1563 15.335 1.5565 14.9363 1.6765 15.1 1.6765 14.74 1.6765 14.1772 1.6731 11.6719 1.6731 11.6719L1.6731 10.8719C1.6731 10.8219 1.6217 10.8326 2.0063 10.8386L17.9001 10.8386M7.5042 15.835H12.5023" stroke="currentColor" stroke-linecap="round" stroke-width="2"/>
</svg>
