<svg xmlns="http://www.w3.org/2000/svg" width="20" height="20" viewBox="0 0 20 20" fill="none">
  <path d="M4.1667 6.6667V5.4167C4.1667 4.6378 4.1667 4.2484 4.3341 3.9583 4.4438 3.7683 4.6016 3.6105 4.7917 3.5008 5.0817 3.3333 5.4712 3.3333 6.25 3.3333 7.0289 3.3333 7.4183 3.3333 7.7083 3.5008 7.8984 3.6105 8.0562 3.7683 8.1659 3.9583 8.3333 4.2484 8.3333 4.6378 8.3333 5.4167V6.6667H4.1667Z" stroke="currentColor" stroke-linecap="round" stroke-linejoin="round" stroke-width="2"/>
  <path d="M13.3333 16.6667H6.6667C4.3096 16.6667 3.1311 16.6667 2.3989 15.9344 1.6667 15.2022 1.6667 14.0237 1.6667 11.6667 1.6667 9.3097 1.6667 8.1311 2.3989 7.3989 3.1311 6.6667 4.3096 6.6667 6.6667 6.6667H13.3333C15.6903 6.6667 16.8688 6.6667 17.6011 7.3989 18.3333 8.1311 18.3333 9.3097 18.3333 11.6667 18.3333 14.0237 18.3333 15.2022 17.6011 15.9344 16.8688 16.6667 15.6903 16.6667 13.3333 16.6667Z" stroke="currentColor" stroke-linecap="round" stroke-linejoin="round" stroke-width="2"/>
  <path d="M11.6667 6.6667V5.4167C11.6667 4.6378 11.6667 4.2484 11.8342 3.9583 11.9438 3.7683 12.1017 3.6105 12.2917 3.5008 12.5818 3.3333 12.9712 3.3333 13.75 3.3333 14.5288 3.3333 14.9183 3.3333 15.2083 3.5008 15.3983 3.6105 15.5562 3.7683 15.6658 3.9583 15.8333 4.2484 15.8333 4.6378 15.8333 5.4167V6.6667H11.6667Z" stroke="currentColor" stroke-linecap="round" stroke-linejoin="round" stroke-width="2"/>
</svg>
