<svg xmlns="http://www.w3.org/2000/svg" width="20" height="20" viewBox="0 0 20 20" fill="none">
  <path d="M11.25 5.4167C11.25 6.107 10.6903 6.6667 10 6.6667 9.3097 6.6667 8.75 6.107 8.75 5.4167 8.75 4.7263 9.3097 4.1667 10 4.1667 10.6903 4.1667 11.25 4.7263 11.25 5.4167Z" stroke="currentColor" stroke-width="2"/>
  <path d="M11.25 10.4167C11.25 11.107 10.6903 11.6667 10 11.6667 9.3097 11.6667 8.75 11.107 8.75 10.4167 8.75 9.7263 9.3097 9.1667 10 9.1667 10.6903 9.1667 11.25 9.7263 11.25 10.4167Z" stroke="currentColor" stroke-width="2"/>
  <path d="M10 14.1667C8.4423 14.1667 7.6635 14.1667 7.0833 13.8317 6.7033 13.6123 6.3877 13.2967 6.1683 12.9167 5.8333 12.3365 5.8333 11.5577 5.8333 10L5.8333 5.8333C5.8333 4.2756 5.8333 3.4968 6.1683 2.9167 6.3877 2.5366 6.7033 2.221 7.0833 2.0016 7.6635 1.6667 8.4423 1.6667 10 1.6667 11.5577 1.6667 12.3365 1.6667 12.9167 2.0016 13.2967 2.221 13.6123 2.5366 13.8317 2.9167 14.1667 3.4968 14.1667 4.2756 14.1667 5.8333V10C14.1667 11.5577 14.1667 12.3365 13.8317 12.9167 13.6123 13.2967 13.2967 13.6123 12.9167 13.8317 12.3365 14.1667 11.5577 14.1667 10 14.1667Z" stroke="currentColor" stroke-width="2"/>
  <path d="M10 14.1667V18.3333" stroke="currentColor" stroke-linecap="round" stroke-linejoin="round" stroke-width="2"/>
  <path d="M5.8333 6.6667L4.9635 5.9362C3.8679 5.0163 3.3201 4.5563 3.3336 4.1385 3.339 3.9686 3.3939 3.8046 3.4907 3.6684 3.7288 3.3333 4.4303 3.3333 5.8333 3.3333" stroke="currentColor" stroke-linecap="round" stroke-linejoin="round" stroke-width="2"/>
  <path d="M14.1667 6.6667L15.0365 5.9362C16.1321 5.0163 16.6799 4.5563 16.6664 4.1385 16.6609 3.9686 16.6062 3.8046 16.5093 3.6684 16.2712 3.3333 15.5697 3.3333 14.1667 3.3333" stroke="currentColor" stroke-linecap="round" stroke-linejoin="round" stroke-width="2"/>
  <path d="M14.1667 12.5L15.0365 11.7696C16.1321 10.8496 16.6799 10.3896 16.6664 9.9718 16.6609 9.802 16.6062 9.6379 16.5093 9.5018 16.2712 9.1667 15.5697 9.1667 14.1667 9.1667" stroke="currentColor" stroke-linecap="round" stroke-linejoin="round" stroke-width="2"/>
  <path d="M5.8333 12.5L4.9635 11.7696C3.8679 10.8496 3.3201 10.3896 3.3336 9.9718 3.339 9.802 3.3939 9.6379 3.4907 9.5018 3.7288 9.1667 4.4303 9.1667 5.8333 9.1667" stroke="currentColor" stroke-linecap="round" stroke-linejoin="round" stroke-width="2"/>
</svg>
