<svg xmlns="http://www.w3.org/2000/svg" width="20" height="20" viewBox="0 0 20 20" fill="none">
  <path d="M12.0833 7.5H15C16.5713 7.5 17.357 7.5 17.8452 7.9882 18.3333 8.4763 18.3333 9.262 18.3333 10.8333V11.6667H13.3333M17.5 7.5L17.2026 6.013C16.9461 4.7302 16.8178 4.0889 16.357 3.7111 15.8962 3.3333 15.2421 3.3333 13.934 3.3333H10.8993C9.5913 3.3333 8.9372 3.3333 8.4763 3.7111 8.0156 4.0889 7.8873 4.7302 7.6307 6.0129L7.5 6.6667" stroke="currentColor" stroke-linecap="round" stroke-linejoin="round" stroke-width="2"/>
  <path d="M18.3333 11.6667V13.3333H17.5V11.6667H18.3333Z" stroke="currentColor" stroke-linecap="round" stroke-linejoin="round" stroke-width="2"/>
  <path d="M10 10.8333H5C3.4286 10.8333 2.643 10.8333 2.1548 11.3215 1.6667 11.8097 1.6667 12.5953 1.6667 14.1667V15H13.3333V14.1667C13.3333 12.5953 13.3333 11.8097 12.8452 11.3215 12.357 10.8333 11.5713 10.8333 10 10.8333Z" stroke="currentColor" stroke-linecap="round" stroke-linejoin="round" stroke-width="2"/>
  <path d="M12.5 10.8333L12.2026 9.3463C11.9461 8.0636 11.8178 7.4222 11.357 7.0444 10.8962 6.6667 10.2421 6.6667 8.934 6.6667H6.066C4.7579 6.6667 4.1038 6.6667 3.643 7.0444 3.1822 7.4222 3.054 8.0636 2.7974 9.3463L2.5 10.8333" stroke="currentColor" stroke-linecap="round" stroke-linejoin="round" stroke-width="2"/>
  <path d="M9.1667 14.1667H5.8333L5 15H10L9.1667 14.1667Z" stroke="currentColor" stroke-linecap="round" stroke-linejoin="round" stroke-width="2"/>
  <path d="M11.25 12.9167V12.925" stroke="currentColor" stroke-linecap="round" stroke-linejoin="round" stroke-width="2"/>
  <path d="M3.75 12.9167V12.925" stroke="currentColor" stroke-linecap="round" stroke-linejoin="round" stroke-width="2"/>
  <path d="M1.6667 16.6667V15H2.5V16.6667H1.6667Z" stroke="currentColor" stroke-linecap="round" stroke-linejoin="round" stroke-width="2"/>
  <path d="M13.3333 15V16.6667H12.5V15H13.3333Z" stroke="currentColor" stroke-linecap="round" stroke-linejoin="round" stroke-width="2"/>
  <path d="M16.2503 9.5833V9.5917" stroke="currentColor" stroke-linecap="round" stroke-linejoin="round" stroke-width="2"/>
</svg>
