<svg xmlns="http://www.w3.org/2000/svg" width="20" height="20" viewBox="0 0 20 20" fill="none">
  <path d="M16.6667 8.3333C16.6667 12.0152 13.6819 16.6667 10 16.6667 6.3181 16.6667 3.3333 12.0152 3.3333 8.3333 3.3333 4.6514 6.3181 1.6667 10 1.6667 13.6819 1.6667 16.6667 4.6514 16.6667 8.3333Z" stroke="currentColor" stroke-linecap="round" stroke-linejoin="round" stroke-width="2"/>
  <path d="M6.6667 15C7.4492 13.9839 8.6516 13.3333 10 13.3333 11.3484 13.3333 12.5508 13.9839 13.3333 15" stroke="currentColor" stroke-linecap="round" stroke-linejoin="round" stroke-width="2"/>
  <path d="M7.7072 8.0031C8.4228 8.2127 9.1949 8.3333 10 8.3333 10.8051 8.3333 11.5772 8.2127 12.2928 8.0031 13.2584 7.7202 13.6822 7.1751 12.9961 6.3234 11.5748 4.5589 8.4252 4.5589 7.0039 6.3234 6.3178 7.1751 6.7416 7.7202 7.7072 8.0031Z" stroke="currentColor" stroke-linecap="round" stroke-linejoin="round" stroke-width="2"/>
  <path d="M4.1667 15.8333L2.5 18.3333M15.8333 15.8333L17.5 18.3333" stroke="currentColor" stroke-linecap="round" stroke-linejoin="round" stroke-width="2"/>
</svg>
