<svg xmlns="http://www.w3.org/2000/svg" width="20" height="20" viewBox="0 0 20 20" fill="none">
  <path d="M4.1667 1.6667H11.6667M15.8333 1.6667H11.6667M11.6667 1.6667L10 4.1667" stroke="currentColor" stroke-linecap="round" stroke-linejoin="round" stroke-width="2"/>
  <path d="M6.6667 16.6667L5.8333 18.3333" stroke="currentColor" stroke-linecap="round" stroke-linejoin="round" stroke-width="2"/>
  <path d="M13.3333 16.6667L14.1667 18.3333" stroke="currentColor" stroke-linecap="round" stroke-linejoin="round" stroke-width="2"/>
  <path d="M4.1667 10.8333V10C4.1667 7.2501 4.1667 5.8752 5.0209 5.0209 5.8752 4.1667 7.2501 4.1667 10 4.1667 12.7498 4.1667 14.1248 4.1667 14.9791 5.0209 15.8333 5.8752 15.8333 7.2501 15.8333 10V10.8333C15.8333 13.5832 15.8333 14.9581 14.9791 15.8124 14.1248 16.6667 12.7498 16.6667 10 16.6667 7.2501 16.6667 5.8752 16.6667 5.0209 15.8124 4.1667 14.9581 4.1667 13.5832 4.1667 10.8333Z" stroke="currentColor" stroke-linejoin="round" stroke-width="2"/>
  <path d="M4.1667 11.6667C4.1667 11.6667 6.8889 12.5 10 12.5 13.1111 12.5 15.8333 11.6667 15.8333 11.6667" stroke="currentColor" stroke-linejoin="round" stroke-width="2"/>
  <path d="M13.75 14.1667H15.4167" stroke="currentColor" stroke-linecap="round" stroke-width="2"/>
  <path d="M4.5833 6.6667H15.4167" stroke="currentColor" stroke-linecap="round" stroke-width="2"/>
  <path d="M4.5833 14.1667H6.25" stroke="currentColor" stroke-linecap="round" stroke-width="2"/>
</svg>
