<svg xmlns="http://www.w3.org/2000/svg" width="20" height="20" viewBox="0 0 20 20" fill="none">
  <path d="M18.3333 5C18.3333 3.8332 18.3333 3.2498 18.1062 2.8042 17.9065 2.4122 17.5878 2.0935 17.1958 1.8937 16.7502 1.6667 16.1668 1.6667 15 1.6667 13.8333 1.6667 13.2498 1.6667 12.8042 1.8937 12.4122 2.0935 12.0935 2.4122 11.8938 2.8042 11.6667 3.2498 11.6667 3.8332 11.6667 5V15C11.6667 16.1668 11.6667 16.7502 11.8938 17.1958 12.0935 17.5878 12.4122 17.9065 12.8042 18.1062 13.2498 18.3333 13.8333 18.3333 15 18.3333 16.1668 18.3333 16.7502 18.3333 17.1958 18.1062 17.5878 17.9065 17.9065 17.5878 18.1062 17.1958 18.3333 16.7502 18.3333 16.1668 18.3333 15V5Z" stroke="currentColor" stroke-width="2"/>
  <path d="M5 10H11.6667M5 10C5 9.4165 6.6619 8.3263 7.0833 7.9167M5 10C5 10.5835 6.6619 11.6738 7.0833 12.0833" stroke="currentColor" stroke-linecap="round" stroke-linejoin="round" stroke-width="2"/>
  <path d="M6.6667 18.3333C4.7176 18.3333 3.7431 18.3333 3.0316 17.8863 2.6606 17.6532 2.3468 17.3394 2.1137 16.9684 1.6667 16.2569 1.6667 15.2824 1.6667 13.3333V6.6667C1.6667 4.7176 1.6667 3.7431 2.1137 3.0316 2.3468 2.6606 2.6606 2.3468 3.0316 2.1137 3.7431 1.6667 4.7176 1.6667 6.6667 1.6667" stroke="currentColor" stroke-linecap="round" stroke-width="2"/>
</svg>
