<svg xmlns="http://www.w3.org/2000/svg" width="20" height="20" viewBox="0 0 20 20" fill="none">
  <path d="M15 1.6666C16.1668 1.6666 16.7502 1.6666 17.1958 1.8937 17.5878 2.0934 17.9065 2.4121 18.1062 2.8041 18.3333 3.2498 18.3333 3.8332 18.3333 5 18.3333 6.1667 18.3333 6.7501 18.1062 7.1958 17.9065 7.5878 17.5878 7.9065 17.1958 8.1062 16.7502 8.3333 16.1668 8.3333 15 8.3333L5 8.3333C3.8332 8.3333 3.2498 8.3333 2.8042 8.1062 2.4122 7.9065 2.0935 7.5878 1.8937 7.1958 1.6667 6.7501 1.6667 6.1667 1.6667 5 1.6667 3.8332 1.6667 3.2498 1.8937 2.8041 2.0935 2.4121 2.4122 2.0934 2.8042 1.8937 3.2498 1.6666 3.8332 1.6666 5 1.6666L15 1.6666Z" stroke="currentColor" stroke-width="2"/>
  <path d="M10 14.9999L10 8.3333M10 14.9999C9.4165 14.9999 8.3263 13.338 7.9167 12.9166M10 14.9999C10.5835 14.9999 11.6738 13.338 12.0833 12.9166" stroke="currentColor" stroke-linecap="round" stroke-linejoin="round" stroke-width="2"/>
  <path d="M1.6667 13.3333C1.6667 15.2823 1.6667 16.2569 2.1137 16.9684 2.3468 17.3394 2.6606 17.6531 3.0316 17.8863 3.7431 18.3332 4.7176 18.3332 6.6667 18.3332L13.3333 18.3332C15.2824 18.3332 16.2569 18.3332 16.9684 17.8863 17.3394 17.6531 17.6532 17.3394 17.8863 16.9684 18.3333 16.2569 18.3333 15.2823 18.3333 13.3333" stroke="currentColor" stroke-linecap="round" stroke-width="2"/>
</svg>
