<svg xmlns="http://www.w3.org/2000/svg" width="20" height="20" viewBox="0 0 20 20" fill="none">
  <path d="M3.8163 7.1725L1.6667 7.0451C3.2075 3.0874 7.6314 0.8332 11.9445 1.954 16.5384 3.1477 19.2671 7.7179 18.0392 12.1619 17.0236 15.8376 13.6194 18.2756 9.8733 18.3333" stroke="currentColor" stroke-linecap="round" stroke-linejoin="round" stroke-width="2"/>
  <path d="M10 18.3333C5.4167 18.3333 1.6667 14.1667 1.6667 9.1667" stroke="currentColor" stroke-linecap="round" stroke-linejoin="round" stroke-width="2"/>
  <path d="M11.3366 8.1015C11.0437 7.7939 10.3255 7.0711 9.191 7.5843 8.0565 8.0974 7.8763 9.7483 9.5923 9.9238 10.368 10.003 10.8737 9.8317 11.3366 10.3162 11.7996 10.8006 11.8856 12.1478 10.7021 12.5108 9.5185 12.8739 8.7517 12.2743 8.5454 12.0868M9.9232 6.6829V7.3421M9.9232 12.6226V13.3496" stroke="currentColor" stroke-linecap="round" stroke-linejoin="round" stroke-width="2"/>
</svg>
