<svg xmlns="http://www.w3.org/2000/svg" width="20" height="20" viewBox="0 0 20 20" fill="none">
  <path d="M4.6667 18.3333C4.6667 17.5969 4.0697 17 3.3333 17M7.3333 18.3333C7.3333 16.1242 5.5425 14.3333 3.3333 14.3333M10 18.3333C10 14.6514 7.0152 11.6667 3.3333 11.6667" stroke="currentColor" stroke-linecap="round" stroke-width="2"/>
  <path d="M4.1666 9.1667V7.9167C4.1666 5.1771 4.1666 3.8073 4.9233 2.8853 5.0618 2.7166 5.2165 2.5618 5.3853 2.4233 6.3072 1.6667 7.6771 1.6667 10.4167 1.6667 13.1563 1.6667 14.526 1.6667 15.448 2.4233 15.6168 2.5618 15.7715 2.7166 15.91 2.8853 16.6667 3.8073 16.6667 5.1771 16.6667 7.9167V14.1667C16.6667 14.9411 16.6667 15.3283 16.6026 15.6503 16.3396 16.9726 15.3059 18.0063 13.9837 18.2693 13.6617 18.3333 13.2744 18.3333 12.5 18.3333" stroke="currentColor" stroke-linecap="round" stroke-width="2"/>
</svg>
