<svg xmlns="http://www.w3.org/2000/svg" width="20" height="20" viewBox="0 0 20 20" fill="none">
  <path d="M4.1667 4.8563H6.4167M9.1667 4.8563H7.9167M6.4167 4.8563H7.9167M6.4167 4.8563V4.1667M7.9167 4.8563C7.6529 5.7995 7.1006 6.691 6.4702 7.4745M4.8631 9.1667C5.3727 8.6981 5.9482 8.1234 6.4702 7.4745M6.4702 7.4745C6.1488 7.0977 5.6988 6.488 5.5702 6.2121M6.4702 7.4745L7.4345 8.477" stroke="currentColor" stroke-linecap="round" stroke-linejoin="round" stroke-width="2"/>
  <path d="M11.25 15.8333L11.9444 14.1667M15.4167 15.8333L14.7222 14.1667M11.9444 14.1667L13.3333 10.8333 14.7222 14.1667M11.9444 14.1667H14.7222" stroke="currentColor" stroke-linecap="round" stroke-linejoin="round" stroke-width="2"/>
  <path d="M11.6667 8.3333V6.6667C11.6667 4.3096 11.6667 3.1311 10.9344 2.3989 10.2022 1.6667 9.0237 1.6667 6.6667 1.6667 4.3096 1.6667 3.1311 1.6667 2.3989 2.3989 1.6667 3.1311 1.6667 4.3096 1.6667 6.6667 1.6667 9.0237 1.6667 10.2022 2.3989 10.9344 3.1311 11.6667 4.3096 11.6667 6.6667 11.6667H8.3333" stroke="currentColor" stroke-linecap="round" stroke-width="2"/>
  <path d="M8.3333 13.3333C8.3333 10.9763 8.3333 9.7978 9.0656 9.0656 9.7978 8.3333 10.9763 8.3333 13.3333 8.3333 15.6903 8.3333 16.8688 8.3333 17.6011 9.0656 18.3333 9.7978 18.3333 10.9763 18.3333 13.3333 18.3333 15.6903 18.3333 16.8688 17.6011 17.6011 16.8688 18.3333 15.6903 18.3333 13.3333 18.3333 10.9763 18.3333 9.7978 18.3333 9.0656 17.6011 8.3333 16.8688 8.3333 15.6903 8.3333 13.3333Z" stroke="currentColor" stroke-width="2"/>
  <path d="M3.3333 13.75C3.3333 14.9204 3.3333 15.5056 3.6142 15.9259 3.7358 16.1079 3.8921 16.2642 4.0741 16.3858 4.4944 16.6667 5.0796 16.6667 6.25 16.6667" stroke="currentColor" stroke-linecap="round" stroke-linejoin="round" stroke-width="2"/>
  <path d="M16.6667 6.25C16.6667 5.0796 16.6667 4.4944 16.3858 4.0741 16.2642 3.8921 16.1079 3.7358 15.9259 3.6142 15.5056 3.3333 14.9204 3.3333 13.75 3.3333" stroke="currentColor" stroke-linecap="round" stroke-linejoin="round" stroke-width="2"/>
</svg>
