<svg xmlns="http://www.w3.org/2000/svg" width="20" height="20" viewBox="0 0 20 20" fill="none">
  <path d="M15.8333 8.75V8.3333C15.8333 5.1906 15.8333 3.6193 14.857 2.6429 13.8807 1.6667 12.3093 1.6667 9.1667 1.6667 6.0241 1.6667 4.4527 1.6667 3.4764 2.643 2.5001 3.6193 2.5001 5.1906 2.5001 8.3332L2.5 12.0833C2.5 14.8228 2.5 16.1927 3.2566 17.1146 3.3952 17.2834 3.5499 17.4382 3.7187 17.5768 4.6407 18.3333 6.0105 18.3333 8.75 18.3333" stroke="currentColor" stroke-linecap="round" stroke-linejoin="round" stroke-width="2"/>
  <path d="M5.8333 5.8333H12.5M5.8333 9.1667H9.1667" stroke="currentColor" stroke-linecap="round" stroke-linejoin="round" stroke-width="2"/>
  <path d="M15 15.4167L13.75 14.9583V12.9167M10 14.5833C10 16.6544 11.6789 18.3333 13.75 18.3333 15.8211 18.3333 17.5 16.6544 17.5 14.5833 17.5 12.5122 15.8211 10.8333 13.75 10.8333 11.6789 10.8333 10 12.5122 10 14.5833Z" stroke="currentColor" stroke-linecap="round" stroke-linejoin="round" stroke-width="2"/>
</svg>
