<svg xmlns="http://www.w3.org/2000/svg" width="20" height="20" viewBox="0 0 20 20" fill="none">
  <path d="M13.3333 7.5C13.3333 10.7217 10.7217 13.3333 7.5 13.3333 4.2783 13.3333 1.6667 10.7217 1.6667 7.5 1.6667 4.2783 4.2783 1.6667 7.5 1.6667 10.7217 1.6667 13.3333 4.2783 13.3333 7.5Z" stroke="currentColor" stroke-width="2"/>
  <path d="M6.6883 13.0056C6.674 12.8389 6.6667 12.6703 6.6667 12.5 6.6667 9.2783 9.2783 6.6667 12.5 6.6667 12.7389 6.6667 12.9744 6.681 13.2058 6.7089M15.8308 7.7104C17.3434 8.7643 18.3333 10.5166 18.3333 12.5 18.3333 15.7217 15.7217 18.3333 12.5 18.3333 10.5166 18.3333 8.7643 17.3434 7.7104 15.8308" stroke="currentColor" stroke-linecap="round" stroke-linejoin="round" stroke-width="2"/>
  <path d="M5.4167 2.0833L12.9167 9.5833M2.0833 5.4167L9.5833 12.9167" stroke="currentColor" stroke-width="2"/>
</svg>
