<svg xmlns="http://www.w3.org/2000/svg" width="20" height="20" viewBox="0 0 20 20" fill="none">
  <path d="M10 4.1667C12.2211 4.1667 13.3317 4.1667 14.1208 4.6894 14.2069 4.7465 14.2892 4.8076 14.3674 4.8726 15.0834 5.4675 15.2405 6.4088 15.5546 8.2915L15.8607 10.1263C16.3038 12.7817 16.5253 14.1093 15.6521 14.9713 14.779 15.8333 13.2126 15.8333 10.0798 15.8333H9.9202C6.7874 15.8333 5.221 15.8333 4.3479 14.9713 3.4747 14.1093 3.6963 12.7817 4.1393 10.1263L4.4454 8.2915C4.7595 6.4088 4.9166 5.4675 5.6325 4.8726 5.7107 4.8076 5.7931 4.7465 5.8793 4.6894 6.6683 4.1667 7.7789 4.1667 10 4.1667Z" stroke="currentColor" stroke-width="2"/>
  <path d="M10 18.3333L10 1.6667" stroke="currentColor" stroke-linecap="round" stroke-width="2"/>
</svg>
