<svg xmlns="http://www.w3.org/2000/svg" width="20" height="20" viewBox="0 0 20 20" fill="none">
  <path d="M4.1667 10C4.1667 7.7789 4.1667 6.6683 4.6894 5.8793 4.7465 5.7931 4.8076 5.7107 4.8726 5.6325 5.4675 4.9166 6.4088 4.7595 8.2915 4.4454L10.1263 4.1393C12.7817 3.6963 14.1093 3.4747 14.9713 4.3479 15.8333 5.221 15.8333 6.7874 15.8333 9.9202V10.0798C15.8333 13.2126 15.8333 14.779 14.9713 15.6522 14.1093 16.5253 12.7817 16.3038 10.1263 15.8607L8.2915 15.5546C6.4088 15.2405 5.4675 15.0834 4.8726 14.3674 4.8076 14.2892 4.7465 14.2069 4.6894 14.1208 4.1667 13.3317 4.1667 12.2211 4.1667 10Z" stroke="currentColor" stroke-width="2"/>
  <path d="M18.3333 10L1.6667 10" stroke="currentColor" stroke-linecap="round" stroke-width="2"/>
</svg>
