<svg xmlns="http://www.w3.org/2000/svg" width="20" height="20" viewBox="0 0 20 20" fill="none">
  <path d="M13.3333 5.4167H6.6667C4.3096 5.4167 3.1311 5.4167 2.3989 6.1489 1.6667 6.8811 1.6667 8.0596 1.6667 10.4167V12.5C1.6667 14.857 1.6667 16.0355 2.3989 16.7678 3.1311 17.5 4.3096 17.5 6.6667 17.5H13.3333C15.6903 17.5 16.8688 17.5 17.6011 16.7678 18.3333 16.0355 18.3333 14.857 18.3333 12.5V10.4167C18.3333 8.0596 18.3333 6.8811 17.6011 6.1489 16.8688 5.4167 15.6903 5.4167 13.3333 5.4167Z" stroke="currentColor" stroke-linecap="round" stroke-linejoin="round" stroke-width="2"/>
  <path d="M6.25 5.4167V9.1667M6.25 17.5V12.5M13.75 5.4167V17.5" stroke="currentColor" stroke-linecap="round" stroke-linejoin="round" stroke-width="2"/>
  <path d="M7.5 9.1667H5C4.5398 9.1667 4.1667 9.5397 4.1667 10V11.6667C4.1667 12.1269 4.5398 12.5 5 12.5H7.5C7.9602 12.5 8.3333 12.1269 8.3333 11.6667V10C8.3333 9.5397 7.9602 9.1667 7.5 9.1667Z" stroke="currentColor" stroke-linecap="round" stroke-linejoin="round" stroke-width="2"/>
  <path d="M7.0833 5.4167C7.0833 4.2463 7.0833 3.6611 7.3642 3.2407 7.4858 3.0587 7.6421 2.9025 7.824 2.7809 8.2444 2.5 8.8296 2.5 10 2.5 11.1704 2.5 11.7556 2.5 12.1759 2.7809 12.3579 2.9025 12.5142 3.0587 12.6358 3.2407 12.9167 3.6611 12.9167 4.2463 12.9167 5.4167" stroke="currentColor" stroke-linecap="round" stroke-linejoin="round" stroke-width="2"/>
</svg>
