<svg xmlns="http://www.w3.org/2000/svg" width="20" height="20" viewBox="0 0 20 20" fill="none">
  <path d="M13.9463 12.1988C13.2624 9.5259 11.1528 7.5679 10 6.8318 10.4167 6.3884 11.6386 6.0482 12.9167 6.3885 14.1948 6.7287 15.8333 8.1621 15.8333 10.3792 15.8333 11.2345 15.5749 11.9868 15.2451 12.5861 14.9045 13.2049 14.1222 12.8858 13.9463 12.1988Z" stroke="currentColor" stroke-linecap="round" stroke-linejoin="round" stroke-width="2"/>
  <path d="M13.8465 2.9167C10.7693 2.9167 10 5.4167 10 6.6667 12.3893 5.3726 14.9332 5.5857 16.5513 5.9407 17.1205 6.0656 17.6654 5.6543 17.4531 5.1244 17.039 4.0911 16.0167 2.9167 13.8465 2.9167Z" stroke="currentColor" stroke-linecap="round" stroke-linejoin="round" stroke-width="2"/>
  <path d="M5.3305 2.0833C3.838 2.0833 2.9376 2.754 2.5628 3.4404 2.3553 3.8202 2.6928 4.1958 3.128 4.2532 4.9256 4.4904 7.955 5.103 10 6.25 9.5755 4.5833 8.302 2.0833 5.3305 2.0833Z" stroke="currentColor" stroke-linecap="round" stroke-linejoin="round" stroke-width="2"/>
  <path d="M10.8333 7.9167C10.6944 10.2777 10.4167 13.75 9.1667 17.9167" stroke="currentColor" stroke-linecap="round" stroke-linejoin="round" stroke-width="2"/>
  <path d="M7.9167 10.4167C7.5 11.8056 6.1667 15.25 4.1667 17.9167" stroke="currentColor" stroke-linecap="round" stroke-linejoin="round" stroke-width="2"/>
  <path d="M7.0833 5.4167C8.75 5.4167 9.5833 6.3483 10 6.8142 6.604 7.9531 5.1455 9.711 4.271 11.5834 3.9941 12.1762 3.3106 12.2922 3.1253 11.6563 2.9982 11.2203 2.9167 10.6932 2.9167 10.0749 2.9167 6.8142 5.8333 5.4167 7.0833 5.4167Z" stroke="currentColor" stroke-linecap="round" stroke-linejoin="round" stroke-width="2"/>
</svg>
