<svg xmlns="http://www.w3.org/2000/svg" width="20" height="20" viewBox="0 0 20 20" fill="none">
  <path d="M10 18.3333V7.5" stroke="currentColor" stroke-linecap="round" stroke-linejoin="round" stroke-width="2"/>
  <path d="M7.5016 15.0017C6.1209 15.0017 5.0016 13.8528 5.0016 12.4721 3.5882 12.2699 2.5016 11.0543 2.5016 9.585 2.5016 8.3377 3.2846 7.2732 4.3858 6.8563 4.246 6.5445 4.1683 6.1988 4.1683 5.835 4.1683 4.4543 5.2876 3.335 6.6683 3.335 6.9935 3.335 7.3042 3.3971 7.5892 3.51 7.8781 2.4487 8.8487 1.6683 10.0017 1.6683 11.1545 1.6683 12.1252 2.4487 12.4141 3.51 12.6991 3.3971 13.0098 3.335 13.335 3.335 14.7157 3.335 15.835 4.4543 15.835 5.835 15.835 6.1988 15.7573 6.5445 15.6175 6.8563 16.7187 7.2732 17.5017 8.3377 17.5017 9.585 17.5017 11.0544 16.415 12.27 15.0014 12.4721 15.0014 13.8528 13.8823 15.0017 12.5017 15.0017" stroke="currentColor" stroke-linecap="round" stroke-linejoin="round" stroke-width="2"/>
  <path d="M10 12.5L12.0833 10.4167" stroke="currentColor" stroke-linecap="round" stroke-linejoin="round" stroke-width="2"/>
  <path d="M10 10.8333L7.9167 8.75" stroke="currentColor" stroke-linecap="round" stroke-linejoin="round" stroke-width="2"/>
  <path d="M8.3333 18.3333H11.6667" stroke="currentColor" stroke-linecap="round" stroke-linejoin="round" stroke-width="2"/>
</svg>
