<svg xmlns="http://www.w3.org/2000/svg" width="20" height="20" viewBox="0 0 20 20" fill="none">
  <path d="M2.5 10.8333V7.5C2.5 6.1193 3.6193 5 5 5H6.6667C8.0474 5 9.1667 6.1193 9.1667 7.5V10.8333C9.1667 12.2141 8.0474 13.3333 6.6667 13.3333H5C3.6193 13.3333 2.5 12.2141 2.5 10.8333Z" stroke="currentColor" stroke-linecap="round" stroke-linejoin="round" stroke-width="2"/>
  <path d="M8.3333 2.9167L9.2999 1.9501C9.4814 1.7686 9.7276 1.6667 9.9842 1.6667 10.2594 1.6667 10.5216 1.7838 10.7052 1.9888L13.9941 5.6607C14.1046 5.7713 14.1667 5.9211 14.1667 6.0774 14.1667 6.4028 13.9028 6.6667 13.5774 6.6667H12.5L15.6608 9.8274C15.7713 9.9379 15.8333 10.0878 15.8333 10.2441 15.8333 10.5695 15.5695 10.8333 15.2441 10.8333H14.1667L17.3274 13.9941C17.4379 14.1046 17.5 14.2545 17.5 14.4108 17.5 14.7362 17.2362 15 16.9108 15H10" stroke="currentColor" stroke-linecap="round" stroke-linejoin="round" stroke-width="2"/>
  <path d="M10.8333 15V18.3333" stroke="currentColor" stroke-linecap="round" stroke-linejoin="round" stroke-width="2"/>
  <path d="M5.8334 9.1667V18.3333" stroke="currentColor" stroke-linecap="round" stroke-linejoin="round" stroke-width="2"/>
</svg>
