<svg xmlns="http://www.w3.org/2000/svg" width="20" height="20" viewBox="0 0 20 20" fill="none">
  <path d="M2.0833 10C2.0833 6.268 2.0833 4.4021 3.2427 3.2427 4.4021 2.0833 6.268 2.0833 10 2.0833 13.7319 2.0833 15.5979 2.0833 16.7573 3.2427 17.9167 4.4021 17.9167 6.268 17.9167 10 17.9167 13.7319 17.9167 15.5979 16.7573 16.7573 15.5979 17.9167 13.7319 17.9167 10 17.9167 6.268 17.9167 4.4021 17.9167 3.2427 16.7573 2.0833 15.5979 2.0833 13.7319 2.0833 10Z" stroke="currentColor" stroke-linejoin="round" stroke-width="2"/>
  <path d="M5 6.6667C5 5.881 5 5.4882 5.2441 5.2441 5.4882 5 5.881 5 6.6667 5H7.0833C7.869 5 8.2618 5 8.5059 5.2441 8.75 5.4882 8.75 5.881 8.75 6.6667V12.5C8.75 13.2857 8.75 13.6785 8.5059 13.9226 8.2618 14.1667 7.869 14.1667 7.0833 14.1667H6.6667C5.881 14.1667 5.4882 14.1667 5.2441 13.9226 5 13.6785 5 13.2857 5 12.5V6.6667Z" stroke="currentColor" stroke-width="2"/>
  <path d="M11.25 6.6667C11.25 5.881 11.25 5.4882 11.4941 5.2441 11.7382 5 12.131 5 12.9167 5H13.3333C14.119 5 14.5118 5 14.7559 5.2441 15 5.4882 15 5.881 15 6.6667V8.3333C15 9.119 15 9.5118 14.7559 9.7559 14.5118 10 14.119 10 13.3333 10H12.9167C12.131 10 11.7382 10 11.4941 9.7559 11.25 9.5118 11.25 9.119 11.25 8.3333V6.6667Z" stroke="currentColor" stroke-width="2"/>
</svg>
