<svg xmlns="http://www.w3.org/2000/svg" width="20" height="20" viewBox="0 0 20 20" fill="none">
  <path d="M2.5 11.6675L5.8333 8.3342C6.5688 7.5987 6.9365 7.2309 7.3879 7.1903 7.4625 7.1836 7.5375 7.1836 7.6121 7.1903 8.0635 7.2309 8.4312 7.5987 9.1667 8.3342 9.9022 9.0696 10.2698 9.4373 10.7212 9.478 10.7958 9.4848 10.8708 9.4848 10.9455 9.478 11.3968 9.4373 11.7645 9.0696 12.5 8.3342L16.6667 4.1675M13.3333 12.5008L16.6667 15.8342" stroke="currentColor" stroke-linecap="round" stroke-linejoin="round" stroke-width="2"/>
  <path d="M13.3333 16.437C13.3333 16.437 16.7508 16.9556 17.2695 16.437 17.7882 15.9183 17.2695 12.5008 17.2695 12.5008" stroke="currentColor" stroke-linecap="round" stroke-linejoin="round" stroke-width="2"/>
  <path d="M13.3333 3.564C13.3333 3.564 16.7508 3.0454 17.2695 3.564 17.7882 4.0827 17.2695 7.5002 17.2695 7.5002" stroke="currentColor" stroke-linecap="round" stroke-linejoin="round" stroke-width="2"/>
</svg>
