<svg xmlns="http://www.w3.org/2000/svg" width="20" height="20" viewBox="0 0 20 20" fill="none">
  <path d="M2.5 14.4468V5.9198C2.5 4.3513 2.5 3.5671 2.9738 3.3719 3.4476 3.1767 4.0053 3.7313 5.1206 4.8403L15.2303 14.894C16.3457 16.0031 16.9032 16.5577 16.707 17.0288 16.5108 17.5 15.7221 17.5 14.1449 17.5H5.5702C4.1229 17.5 3.3992 17.5 2.9496 17.0529 2.5 16.6058 2.5 15.8862 2.5 14.4468Z" stroke="currentColor" stroke-linecap="round" stroke-linejoin="round" stroke-width="2"/>
  <path d="M17.4299 10.6974L14.5671 7.85M17.4299 10.6974C17.565 10.5643 17.4651 9.4606 17.4551 8.7612M17.4299 10.6974C17.2949 10.8306 16.6656 10.7412 15.5064 10.682" stroke="currentColor" stroke-linecap="round" stroke-linejoin="round" stroke-width="2"/>
  <path d="M9.2742 2.5692L12.1371 5.4167M9.2742 2.5692C9.1392 2.7024 9.239 3.8061 9.249 4.5055M9.2742 2.5692C9.4093 2.4361 10.0385 2.5255 11.1977 2.5846" stroke="currentColor" stroke-linecap="round" stroke-linejoin="round" stroke-width="2"/>
  <path d="M17.4239 2.5697L14.5606 5.4167M17.4239 2.5697C17.29 2.4354 16.1801 2.5347 15.4768 2.5447M17.4239 2.5697C17.5577 2.704 17.4678 3.3298 17.4084 4.4825" stroke="currentColor" stroke-linecap="round" stroke-linejoin="round" stroke-width="2"/>
  <ellipse cx="13.406500000000001" cy="6.678875" rx="1.1522333333333332" ry="1.1458333333333335" stroke="currentColor" stroke-width="2"/>
</svg>
