<svg xmlns="http://www.w3.org/2000/svg" width="20" height="20" viewBox="0 0 20 20" fill="none">
  <path d="M11.604 3.3152C11.0815 2.7717 10.5797 2.5 10 2.5 9.4203 2.5 8.9185 2.7717 8.396 3.3152M13.6278 6.25C13.8238 6.5768 14.0303 6.9249 14.2495 7.2944L14.6186 7.9167M6.3722 6.25C6.1761 6.5768 5.9696 6.9249 5.7505 7.2944L5.3814 7.9167M16.1013 10.4167C16.4638 11.0286 16.7888 11.5812 17.0712 12.0833M3.8987 10.4167C3.5362 11.0286 3.2113 11.5812 2.9288 12.0833M18.3079 15C18.3743 15.4716 18.3121 15.8759 18.103 16.2449 17.8249 16.7359 17.3603 17.0348 16.6667 17.2168M1.6921 15C1.6257 15.4716 1.6879 15.8759 1.897 16.2449 2.1751 16.7359 2.6397 17.0348 3.3333 17.2168M13.3333 17.4947C12.8233 17.4998 12.2687 17.5 11.6667 17.5M8.3333 17.5C7.7313 17.5 7.1767 17.4998 6.6667 17.4947" stroke="currentColor" stroke-linecap="round" stroke-linejoin="round" stroke-width="2"/>
</svg>
