<svg xmlns="http://www.w3.org/2000/svg" width="20" height="20" viewBox="0 0 20 20" fill="none">
  <path d="M2.5 1.6667H3.5843C4.5723 1.6667 5.0663 1.6667 5.4012 1.9762 5.7361 2.2857 5.8014 2.8026 5.932 3.8363L6.8714 11.2739C7.0455 12.6522 7.1326 13.3413 7.5791 13.754 8.0257 14.1667 8.6843 14.1667 10.0017 14.1667H18.3333" stroke="currentColor" stroke-linecap="round" stroke-width="2"/>
  <circle cx="9.583333333333334" cy="16.25" r="1.25" stroke="currentColor" stroke-width="2"/>
  <circle cx="15.416666666666668" cy="16.25" r="1.25" stroke="currentColor" stroke-width="2"/>
  <path d="M15 11.6667H13.3333C11.762 11.6667 10.9763 11.6667 10.4882 11.1785 10 10.6903 10 9.9047 10 8.3333V6.6667C10 5.0953 10 4.3096 10.4882 3.8215 10.9763 3.3333 11.762 3.3333 13.3333 3.3333H15C16.5713 3.3333 17.357 3.3333 17.8452 3.8215 18.3333 4.3096 18.3333 5.0953 18.3333 6.6667V8.3333C18.3333 9.9047 18.3333 10.6903 17.8452 11.1785 17.357 11.6667 16.5713 11.6667 15 11.6667Z" stroke="currentColor" stroke-linecap="round" stroke-linejoin="round" stroke-width="2"/>
  <path d="M13.75 5.8333L14.5833 5.8333" stroke="currentColor" stroke-linecap="round" stroke-linejoin="round" stroke-width="2"/>
</svg>
