<svg xmlns="http://www.w3.org/2000/svg" width="20" height="20" viewBox="0 0 20 20" fill="none">
  <path d="M1.6667 1.6667H2.751C3.7389 1.6667 4.2329 1.6667 4.5678 1.9762 4.9028 2.2857 4.968 2.8026 5.0986 3.8363L6.0381 11.2739C6.2122 12.6522 6.2992 13.3413 6.7458 13.754 7.1924 14.1667 7.851 14.1667 9.1683 14.1667H17.5" stroke="currentColor" stroke-linecap="round" stroke-width="2"/>
  <circle cx="8.75" cy="16.25" r="1.25" stroke="currentColor" stroke-width="2"/>
  <circle cx="14.583333333333334" cy="16.25" r="1.25" stroke="currentColor" stroke-width="2"/>
  <path d="M16.6667 11.6667H11.6667C10.881 11.6667 10.4882 11.6667 10.2441 11.3616 10 11.0565 10 10.5654 10 9.5833 10 8.6013 10 8.1102 10.2441 7.8051 10.4882 7.5 10.881 7.5 11.6667 7.5H16.6667C17.4523 7.5 17.8452 7.5 18.0892 7.8051 18.3333 8.1102 18.3333 8.6013 18.3333 9.5833 18.3333 10.5654 18.3333 11.0565 18.0892 11.3616 17.8452 11.6667 17.4523 11.6667 16.6667 11.6667Z" stroke="currentColor" stroke-linecap="round" stroke-linejoin="round" stroke-width="2"/>
  <path d="M15 7.5H10C9.2143 7.5 8.8215 7.5 8.5774 7.1949 8.3333 6.8898 8.3333 6.3988 8.3333 5.4167 8.3333 4.4346 8.3333 3.9435 8.5774 3.6384 8.8215 3.3333 9.2143 3.3333 10 3.3333H15C15.7857 3.3333 16.1785 3.3333 16.4226 3.6384 16.6667 3.9435 16.6667 4.4346 16.6667 5.4167 16.6667 6.3988 16.6667 6.8898 16.4226 7.1949 16.1785 7.5 15.7857 7.5 15 7.5Z" stroke="currentColor" stroke-linecap="round" stroke-linejoin="round" stroke-width="2"/>
</svg>
