<svg xmlns="http://www.w3.org/2000/svg" width="20" height="20" viewBox="0 0 20 20" fill="none">
  <path d="M10.1303 6.0258L9.4069 5.1331 11.8433 3.5413C3.8242 2.2746 2.6296 7.1995 2.5805 7.4202L2.5758 7.4415 2.5684 7.4708C2.3981 8.0998 2.383 8.7613 2.5243 9.4021 2.6656 10.0428 2.9593 10.645 3.3817 11.1599L4.1051 12.0527 1.6667 13.6458C9.6856 14.92 10.8823 9.9866 10.9314 9.7654L10.9362 9.7442 10.9435 9.7149C11.1138 9.0859 11.1289 8.4244 10.9877 7.7836 10.8464 7.1429 10.5527 6.5408 10.1303 6.0258Z" stroke="currentColor" stroke-linejoin="round" stroke-width="2"/>
  <circle cx="6.754941666666667" cy="8.593333333333334" r="1.8591083333333334" stroke="currentColor" stroke-width="2"/>
  <path d="M16.25 5.8333V10.4167C16.25 13.8684 13.4518 16.6667 10 16.6667M16.25 5.8333C16.8335 5.8333 17.9238 7.4953 18.3333 7.9167M16.25 5.8333C15.6665 5.8333 14.5762 7.4953 14.1667 7.9167" stroke="currentColor" stroke-linecap="round" stroke-linejoin="round" stroke-width="2"/>
</svg>
