<svg xmlns="http://www.w3.org/2000/svg" width="20" height="20" viewBox="0 0 20 20" fill="none">
  <path d="M15.1374 12.7898L15.5233 11.8254C15.5233 11.8254 16.0658 12.3453 16.6768 12.9318 17.3865 13.6128 17.7413 13.9533 18.0118 13.7987 18.2823 13.644 18.173 13.1828 17.9542 12.2603 17.6215 10.8578 17.1125 9.5 16.4372 8.2198 15.6424 6.7153 14.3548 5.5297 12.7901 4.8614L11.8253 4.4756C11.8253 4.4756 12.3176 3.9618 12.8857 3.3698 13.5839 2.6421 13.9331 2.2783 13.7795 2.0081 13.6259 1.7379 13.1498 1.8483 12.1974 2.069 10.5254 2.4564 8.6419 3.1247 7.1428 4.2772 6.1304 5.0295 5.3416 6.043 4.861 7.2092L4.4753 8.1736C4.4753 8.1736 3.9625 7.6824 3.3711 7.1152 2.6424 6.4161 2.2781 6.0666 2.008 6.2202 1.7378 6.3738 1.8483 6.8504 2.0693 7.8038 2.4638 9.5057 3.1493 11.4262 4.3402 12.9377 5.0844 13.9125 6.0746 14.6719 7.209 15.1379L8.1742 15.5241C8.1742 15.5241 7.6541 16.0666 7.0676 16.6776 6.3872 17.3864 6.047 17.7408 6.2016 18.0113 6.3563 18.2819 6.8171 18.1727 7.7386 17.9542 9.1273 17.625 10.4724 17.1233 11.7422 16.4588 13.2634 15.6643 14.463 14.368 15.1374 12.7898Z" stroke="currentColor" stroke-linejoin="round" stroke-width="2"/>
  <circle cx="10" cy="10" r="2.5" stroke="currentColor" stroke-width="2"/>
</svg>
