<svg xmlns="http://www.w3.org/2000/svg" width="20" height="20" viewBox="0 0 20 20" fill="none">
  <path d="M14.1667 16.6667C15.0872 16.6667 15.8333 15.9205 15.8333 15 15.8333 14.0795 15.0872 13.3333 14.1667 13.3333 13.2462 13.3333 12.5 14.0795 12.5 15 12.5 15.9205 13.2462 16.6667 14.1667 16.6667Z" stroke="currentColor" stroke-width="2"/>
  <path d="M5.8333 16.6667C6.7538 16.6667 7.5 15.9205 7.5 15 7.5 14.0795 6.7538 13.3333 5.8333 13.3333 4.9129 13.3333 4.1667 14.0795 4.1667 15 4.1667 15.9205 4.9129 16.6667 5.8333 16.6667Z" stroke="currentColor" stroke-width="2"/>
  <path d="M15.8333 9.1667H18.3333V10.8333C18.3333 12.7975 18.3333 13.7796 17.7232 14.3898 17.3174 14.7955 16.7473 14.9315 15.8333 14.977M4.1667 14.977C3.2527 14.9315 2.6826 14.7955 2.2769 14.3898 1.6667 13.7796 1.6667 12.7975 1.6667 10.8333V7.5C1.6667 5.5358 1.6667 4.5537 2.2769 3.9435 2.8871 3.3333 3.8691 3.3333 5.8333 3.3333H8.5833C9.514 3.3333 9.9793 3.3333 10.3559 3.4557 11.117 3.703 11.7137 4.2997 11.961 5.0608 12.0833 5.4374 12.0833 5.9027 12.0833 6.8333 12.0833 7.8507 12.0833 8.3593 11.8048 8.7033 11.7498 8.7712 11.6878 8.8332 11.62 8.8881 11.276 9.1667 10.7673 9.1667 9.75 9.1667H6.6667M12.5 15H7.5" stroke="currentColor" stroke-linecap="round" stroke-linejoin="round" stroke-width="2"/>
  <path d="M12.0833 5H13.601C14.8138 5 15.4202 5 15.9137 5.2948 16.4072 5.5895 16.6947 6.1234 17.2697 7.1913L18.3333 9.1667" stroke="currentColor" stroke-linecap="round" stroke-linejoin="round" stroke-width="2"/>
  <path d="M8.3333 10.8333C8.3333 10.8333 7.7732 10.3697 7.2811 9.9301 6.9331 9.6502 6.6667 9.4105 6.6667 9.1707 6.6667 8.9582 6.8746 8.7607 7.2132 8.4513 7.6932 8.0516 8.3333 7.5 8.3333 7.5" stroke="currentColor" stroke-linecap="round" stroke-linejoin="round" stroke-width="2"/>
</svg>
