<svg xmlns="http://www.w3.org/2000/svg" width="20" height="20" viewBox="0 0 20 20" fill="none">
  <circle cx="14.166666666666668" cy="15" r="1.6666666666666667" stroke="currentColor" stroke-width="2"/>
  <circle cx="5.833333333333334" cy="15" r="1.6666666666666667" stroke="currentColor" stroke-width="2"/>
  <path d="M9.1667 14.1667H12.5M11.25 5.8333H12.0358C13.1278 5.8333 13.6738 5.8333 14.1367 6.0954 14.5997 6.3575 14.9083 6.8414 15.5257 7.8092 15.9585 8.4878 16.4129 8.9804 17.0518 9.4187 17.6951 9.8598 18.001 10.0755 18.1708 10.4217 18.3333 10.7532 18.3333 11.1458 18.3333 11.9311 18.3333 12.9663 18.3333 13.484 18.0425 13.8129 18.03 13.8271 18.0173 13.8408 18.0041 13.8542 17.6979 14.1667 17.2162 14.1667 16.2525 14.1667H15.8333" stroke="currentColor" stroke-linecap="round" stroke-linejoin="round" stroke-width="2"/>
  <path d="M10.8333 5.8333L11.6618 7.9046C12.0678 8.9195 12.2707 9.4269 12.694 9.7134 13.1173 10 13.6638 10 14.7568 10H17.5" stroke="currentColor" stroke-linecap="round" stroke-linejoin="round" stroke-width="2"/>
  <path d="M4.058 14.1667C2.9307 14.1667 2.3671 14.1667 2.0169 13.8006 1.6667 13.4344 1.6667 12.8452 1.6667 11.6667V5.8333C1.6667 4.6548 1.6667 4.0656 2.0169 3.6994 2.3671 3.3333 2.9307 3.3333 4.058 3.3333H8.442C9.5693 3.3333 10.1329 3.3333 10.4832 3.6994 10.8333 4.0656 10.8333 4.6548 10.8333 5.8333V14.1667H7.2464" stroke="currentColor" stroke-linecap="round" stroke-linejoin="round" stroke-width="2"/>
</svg>
