<svg xmlns="http://www.w3.org/2000/svg" width="20" height="20" viewBox="0 0 20 20" fill="none">
  <path d="M17.5 11.6667L17.2982 9.648C17.1938 8.6052 17.1418 8.0839 16.8342 7.6992 16.5267 7.3144 16.0296 7.1488 15.0354 6.8174 14.7279 6.7149 14.5195 6.6145 14.3225 6.3542 13.6932 5.5222 12.7863 3.9053 12.1063 3.5483 11.6968 3.3333 11.214 3.3333 10.2483 3.3333H9.1667C8.381 3.3333 7.9882 3.3333 7.7441 3.5774 7.5 3.8215 7.5 4.2143 7.5 5V11.25" stroke="currentColor" stroke-linecap="round" stroke-linejoin="round" stroke-width="2"/>
  <path d="M7.5 7.9167H2.5V11.6667" stroke="currentColor" stroke-linecap="round" stroke-linejoin="round" stroke-width="2"/>
  <path d="M14.5833 6.6667H11.6667C10.881 6.6667 10.4882 6.6667 10.2441 6.4226 10 6.1785 10 5.7857 10 5V3.3333" stroke="currentColor" stroke-linecap="round" stroke-linejoin="round" stroke-width="2"/>
  <path d="M7.5 4.1667H6.6667" stroke="currentColor" stroke-linecap="round" stroke-linejoin="round" stroke-width="2"/>
  <path d="M10 8.75H10.8333" stroke="currentColor" stroke-linecap="round" stroke-linejoin="round" stroke-width="2"/>
  <path d="M11.25 14.1667H8.75M7.9167 11.6667H12.0833M3.75 11.6667H2.9167C2.5284 11.6667 2.3342 11.6667 2.1811 11.7301 1.6686 11.9424 1.6667 12.4415 1.6667 12.9167 1.6667 13.3918 1.6686 13.8909 2.1811 14.1033 2.3342 14.1667 2.5284 14.1667 2.9167 14.1667M16.25 11.6667H17.0833C17.4716 11.6667 17.6657 11.6667 17.8189 11.7301 18.3314 11.9424 18.3333 12.4415 18.3333 12.9167 18.3333 13.3918 18.3314 13.8909 17.8189 14.1033 17.6657 14.1667 17.4716 14.1667 17.0833 14.1667" stroke="currentColor" stroke-linecap="round" stroke-linejoin="round" stroke-width="2"/>
  <path d="M8.75 13.75C8.75 15.3608 7.4442 16.6667 5.8333 16.6667 4.2225 16.6667 2.9167 15.3608 2.9167 13.75 2.9167 12.1392 4.2225 10.8333 5.8333 10.8333 7.4442 10.8333 8.75 12.1392 8.75 13.75Z" stroke="currentColor" stroke-linecap="round" stroke-linejoin="round" stroke-width="2"/>
  <path d="M14.1667 16.6667C15.7775 16.6667 17.0833 15.3608 17.0833 13.75 17.0833 12.1392 15.7775 10.8333 14.1667 10.8333 12.5558 10.8333 11.25 12.1392 11.25 13.75 11.25 15.3608 12.5558 16.6667 14.1667 16.6667Z" stroke="currentColor" stroke-linecap="round" stroke-linejoin="round" stroke-width="2"/>
</svg>
