<svg xmlns="http://www.w3.org/2000/svg" width="20" height="20" viewBox="0 0 20 20" fill="none">
  <circle cx="14.166666666666668" cy="15" r="1.6666666666666667" stroke="currentColor" stroke-width="2"/>
  <circle cx="5.833333333333334" cy="15" r="1.6666666666666667" stroke="currentColor" stroke-width="2"/>
  <path d="M4.1667 14.977C3.2527 14.9315 2.6826 14.7955 2.2769 14.3898 1.8711 13.9841 1.7352 13.4139 1.6896 12.5M7.5 15H12.5M15.8333 14.977C16.7473 14.9315 17.3174 14.7955 17.7232 14.3898 18.3333 13.7796 18.3333 12.7975 18.3333 10.8333V9.1667H14.4167C13.7962 9.1667 13.486 9.1667 13.235 9.0851 12.7276 8.9203 12.3298 8.5224 12.1649 8.015 12.0833 7.764 12.0833 7.4538 12.0833 6.8333 12.0833 5.9027 12.0833 5.4374 11.961 5.0608 11.7137 4.2997 11.117 3.703 10.3559 3.4557 9.9793 3.3333 9.514 3.3333 8.5833 3.3333H1.6667" stroke="currentColor" stroke-linecap="round" stroke-linejoin="round" stroke-width="2"/>
  <path d="M1.6667 6.6667H6.6667" stroke="currentColor" stroke-linecap="round" stroke-linejoin="round" stroke-width="2"/>
  <path d="M1.6667 9.1667H5" stroke="currentColor" stroke-linecap="round" stroke-linejoin="round" stroke-width="2"/>
  <path d="M12.0833 5H13.601C14.8138 5 15.4202 5 15.9137 5.2948 16.4072 5.5895 16.6947 6.1234 17.2697 7.1913L18.3333 9.1667" stroke="currentColor" stroke-linecap="round" stroke-linejoin="round" stroke-width="2"/>
</svg>
