<svg xmlns="http://www.w3.org/2000/svg" width="20" height="20" viewBox="0 0 20 20" fill="none">
  <path d="M3.06 8.7893L6.2331 4.8723C7.9644 2.7352 8.83 1.6666 10.0001 1.6666 11.1702 1.6666 12.0358 2.7352 13.7671 4.8723L16.9402 8.7893C17.3673 9.3165 17.5808 9.5801 17.472 9.79 17.3631 10 17.0128 10 16.3123 10H3.6878C2.9873 10 2.6371 10 2.5282 9.79 2.4194 9.5801 2.6329 9.3165 3.06 8.7893Z" stroke="currentColor" stroke-linecap="round" stroke-linejoin="round" stroke-width="2"/>
  <path d="M5.0001 7.0897C7.7735 7.8392 9.0177 4.3595 11.3163 6.592 12.5001 7.7417 13.6804 7.6708 15.0001 7.0897" stroke="currentColor" stroke-linecap="round" stroke-width="2"/>
  <path d="M8.3335 18.3332V14.9999C8.3335 14.0794 9.0798 13.3333 10.0002 13.3333 10.9207 13.3333 11.6668 14.0794 11.6668 14.9999V18.3332" stroke="currentColor" stroke-linecap="round" stroke-linejoin="round" stroke-width="2"/>
  <path d="M16.2502 9.9999L16.2502 16.6666C16.2502 17.4522 16.2502 17.8451 16.0062 18.0892 15.7621 18.3332 15.3693 18.3332 14.5835 18.3332L5.4169 18.3332C4.6312 18.3332 4.2384 18.3332 3.9943 18.0892 3.7502 17.8451 3.7502 17.4522 3.7502 16.6666L3.7502 9.9999" stroke="currentColor" stroke-linecap="round" stroke-linejoin="round" stroke-width="2"/>
</svg>
