<svg xmlns="http://www.w3.org/2000/svg" width="20" height="20" viewBox="0 0 20 20" fill="none">
  <path d="M4.998 10V14.7368C4.998 16.246 4.998 17.0007 5.4857 17.4696 6.0399 18.0023 8.0128 18.3154 9.9938 18.3326 11.9238 18.3493 13.8614 18.0852 14.5018 17.4696 14.9895 17.0007 14.9895 16.246 14.9895 14.7368V10" stroke="currentColor" stroke-linecap="round" stroke-linejoin="round" stroke-width="2"/>
  <path d="M4.7686 11.685C4.0472 11.4236 2.6914 11.1995 2.0799 10.586 1.2383 9.7417 1.7822 8.6001 2.8142 6.4491 3.2787 5.4809 4.1675 4.7687 5.203 4.4871 5.3437 4.4489 5.4657 4.3609 5.5466 4.2396L6.6161 2.5739C6.647 2.5276 6.6862 2.4878 6.7338 2.459 7.2159 2.1683 8.4101 1.6667 9.9938 1.6667 11.5774 1.6667 12.6934 2.1683 13.1754 2.459 13.2231 2.4878 13.2623 2.5276 13.2932 2.5739L14.3934 4.2239C14.4743 4.3452 14.5963 4.4332 14.737 4.4714 15.7726 4.753 16.6209 5.3751 17.0855 6.3433 18.2447 8.4511 18.7588 9.7256 17.9171 10.5699 17.3056 11.1834 15.9312 11.4263 15.2097 11.6877" stroke="currentColor" stroke-linecap="round" stroke-linejoin="round" stroke-width="2"/>
  <path d="M5.4175 4.5833L8.9454 7.3272C9.4507 7.7202 9.7033 7.9167 10.0008 7.9167 10.2983 7.9167 10.5509 7.7202 11.0563 7.3272L14.5842 4.5833" stroke="currentColor" stroke-linecap="round" stroke-linejoin="round" stroke-width="2"/>
  <path d="M7.9175 2.5L9.1675 7.5M12.0842 2.5L10.8342 7.5" stroke="currentColor" stroke-linecap="round" stroke-linejoin="round" stroke-width="2"/>
</svg>
