<svg xmlns="http://www.w3.org/2000/svg" width="20" height="20" viewBox="0 0 20 20" fill="none">
  <path d="M5.8887 10.002C5.8887 10.002 5.8885 12.502 8.3329 13.3353" stroke="currentColor" stroke-linecap="round" stroke-linejoin="round" stroke-width="2"/>
  <path d="M18.3333 17.8131C17.1289 18.4889 15.588 18.4889 14.3837 17.8131 13.6574 17.3983 12.701 17.3983 11.9748 17.8131 11.9748 17.8131 11.9572 17.8131 11.9572 17.8284 10.7528 18.5043 9.2118 18.5043 8.0252 17.8284 7.2813 17.4137 6.3425 17.4137 5.6164 17.8284M5.6164 17.8131C4.412 18.4889 2.8711 18.4889 1.6667 17.8131" stroke="currentColor" stroke-linecap="round" stroke-width="2"/>
  <path d="M9.1667 5.8354C9.1667 10.2076 12.7111 13.752 17.0833 13.752H18.3333" stroke="currentColor" stroke-linecap="round" stroke-width="2"/>
  <path d="M5.7399 5.7721C6.0499 5.9521 6.6499 6.4021 7.6499 6.2221 8.8499 5.8521 9.8341 5.5426 10.5999 6.0021 11.3499 6.4521 11.8499 6.8521 12.1499 6.6521 12.2982 6.6818 12.5463 6.1136 12.4949 5.3021 12.4598 4.7452 12.2673 4.0737 11.8399 3.4021 11.5899 3.0521 11.429 2.9294 11.3999 2.9021 9.7801 1.3809 7.1656 1.1313 4.8499 2.9021 2.2499 5.0021 1.8999 7.6521 1.7499 8.9522 1.4999 11.4522 1.8999 14.3022 2.2999 15.8522" stroke="currentColor" stroke-linecap="round" stroke-width="2"/>
</svg>
