<svg xmlns="http://www.w3.org/2000/svg" width="20" height="20" viewBox="0 0 20 20" fill="none">
  <path d="M6.5834 9.1819H5.8423C5.1489 9.1819 4.9999 9.0415 5 8.3484L5.0002 6.8885C5.0003 6.3425 4.9897 6.3432 5.5438 6.0758 6.9658 5.3896 8.2167 4.0693 8.5513 2.4941 8.6422 2.0667 8.6876 1.853 8.8036 1.7598 8.9196 1.6667 9.1068 1.6667 9.4812 1.6667H10.6268C11.0238 1.6667 11.2223 1.6667 11.3457 1.7887 11.4691 1.9107 11.4691 2.1072 11.4691 2.5V5.4707C11.4691 6.1636 11.618 6.304 12.3113 6.304H13.861C14.5544 6.304 14.7034 6.4444 14.7033 7.1375L14.7032 8.3487C14.7031 9.0416 14.5541 9.1819 13.8608 9.1819H12.3111C11.6177 9.1819 11.4687 9.3223 11.4688 10.0153L11.4691 13.5497C11.4691 15.0168 12.7691 15.5002 13.9121 14.9938 14.3098 14.8176 14.3157 14.8293 14.4373 15.1991L14.9167 16.6568C15.0744 17.1363 15.0307 17.3155 14.5886 17.5697 11.312 19.4527 7.4261 17.8078 7.4261 13.14L7.4258 10.0152C7.4257 9.3223 7.2767 9.1819 6.5834 9.1819Z" stroke="currentColor" stroke-linejoin="round" stroke-width="2"/>
</svg>
