<svg xmlns="http://www.w3.org/2000/svg" width="20" height="20" viewBox="0 0 20 20" fill="none">
  <path d="M5.8015 10.8826L3.807 16.8498C3.6909 17.1972 3.6328 17.3709 3.4893 17.4499 3.1868 17.6165 1.9412 17.3403 1.7261 17.0209 1.6354 16.8863 1.6622 16.7069 1.7158 16.3482L3.0133 7.6601C3.2342 6.1807 3.5824 5.7221 4.9455 5.1042L7.5 3.7645V2.5084C7.5 1.8147 7.6458 1.671 8.3397 1.671L11.6603 1.6667C12.3542 1.6667 12.5 1.8104 12.5 2.5041V3.7602L15.0544 5.1042C16.4177 5.7221 16.7658 6.1807 16.9868 7.6601L18.2843 16.3482C18.3378 16.7069 18.3646 16.8863 18.2739 17.0209 18.0587 17.3403 16.8133 17.6165 16.5108 17.4499 16.3672 17.3709 16.3092 17.1972 16.193 16.8498L14.1985 10.8826" stroke="currentColor" stroke-linecap="round" stroke-linejoin="round" stroke-width="2"/>
  <path d="M5.4167 8.3333C5.5551 9.164 5.7298 9.9965 5.7993 10.8362 5.9587 12.7628 5.8333 14.7358 5.8333 16.6667 5.8333 18.0456 6.1211 18.3333 7.5 18.3333H12.5C13.8789 18.3333 14.1667 18.0456 14.1667 16.6667 14.1667 14.7358 14.0412 12.7628 14.2008 10.8362 14.2703 9.9965 14.4449 9.164 14.5833 8.3333" stroke="currentColor" stroke-linecap="round" stroke-linejoin="round" stroke-width="2"/>
  <path d="M7.5 4.1667C9 5.2778 11 5.2778 12.5 4.1667" stroke="currentColor" stroke-linecap="round" stroke-linejoin="round" stroke-width="2"/>
</svg>
