<svg xmlns="http://www.w3.org/2000/svg" width="20" height="20" viewBox="0 0 20 20" fill="none">
  <path d="M7.5 15.8333L10 12.5 12.5 15.8333M7.5 11.6667H12.5" stroke="currentColor" stroke-linecap="round" stroke-linejoin="round" stroke-width="2"/>
  <path d="M1.6667 18.3333V11.6667C1.6667 10.881 1.6667 10.4882 1.9107 10.2441 2.1548 10 2.5477 10 3.3333 10H5.8333C6.619 10 7.0118 10 7.2559 10.2441 7.5 10.4882 7.5 10.881 7.5 11.6667V18.3333" stroke="currentColor" stroke-linecap="round" stroke-width="2"/>
  <path d="M2.5 10V8.3333C2.5 7.5477 2.5 7.1548 2.7441 6.9107 2.9882 6.6667 3.381 6.6667 4.1667 6.6667H5C5.7857 6.6667 6.1785 6.6667 6.4226 6.9107 6.6667 7.1548 6.6667 7.5477 6.6667 8.3333V10" stroke="currentColor" stroke-linecap="round" stroke-width="2"/>
  <path d="M3.3333 6.6667V4.5833C3.3333 4.1951 3.3333 4.0009 3.3968 3.8478 3.4813 3.6436 3.6436 3.4813 3.8478 3.3968 4.0009 3.3333 4.1951 3.3333 4.5833 3.3333 4.9716 3.3333 5.1658 3.3333 5.3189 3.3968 5.5231 3.4813 5.6853 3.6436 5.7699 3.8478 5.8333 4.0009 5.8333 4.1951 5.8333 4.5833V6.6667" stroke="currentColor" stroke-linecap="round" stroke-width="2"/>
  <path d="M12.5 18.3333V11.6667C12.5 10.881 12.5 10.4882 12.7441 10.2441 12.9882 10 13.381 10 14.1667 10H16.6667C17.4523 10 17.8452 10 18.0892 10.2441 18.3333 10.4882 18.3333 10.881 18.3333 11.6667V18.3333" stroke="currentColor" stroke-linecap="round" stroke-width="2"/>
  <path d="M1.6667 18.3333H18.3333" stroke="currentColor" stroke-linecap="round" stroke-linejoin="round" stroke-width="2"/>
  <path d="M4.5833 3.3333V1.6667" stroke="currentColor" stroke-linecap="round" stroke-width="2"/>
  <path d="M13.3333 10V8.3333C13.3333 7.5477 13.3333 7.1548 13.5774 6.9107 13.8215 6.6667 14.2143 6.6667 15 6.6667H15.8333C16.619 6.6667 17.0118 6.6667 17.2559 6.9107 17.5 7.1548 17.5 7.5477 17.5 8.3333V10" stroke="currentColor" stroke-linecap="round" stroke-width="2"/>
  <path d="M14.1667 6.6667V4.5833C14.1667 4.1951 14.1667 4.0009 14.2301 3.8478 14.3147 3.6436 14.4769 3.4813 14.6811 3.3968 14.8343 3.3333 15.0284 3.3333 15.4167 3.3333 15.8049 3.3333 15.9991 3.3333 16.1523 3.3968 16.3564 3.4813 16.5187 3.6436 16.6032 3.8478 16.6667 4.0009 16.6667 4.1951 16.6667 4.5833V6.6667" stroke="currentColor" stroke-linecap="round" stroke-width="2"/>
  <path d="M15.4167 3.3333V1.6667" stroke="currentColor" stroke-linecap="round" stroke-width="2"/>
  <path d="M4.5833 18.3333V16.6667" stroke="currentColor" stroke-linecap="round" stroke-width="2"/>
  <path d="M15.4167 18.3333V16.6667" stroke="currentColor" stroke-linecap="round" stroke-width="2"/>
</svg>
