<svg xmlns="http://www.w3.org/2000/svg" width="20" height="20" viewBox="0 0 20 20" fill="none">
  <path d="M7.9167 7.9167H6.25C4.2954 7.9167 3.318 7.9167 2.6448 8.4332 2.4714 8.5663 2.3163 8.7214 2.1833 8.8948 1.6667 9.568 1.6667 10.5453 1.6667 12.5 1.6667 14.4547 1.6667 15.432 2.1833 16.1053 2.3163 16.2786 2.4714 16.4338 2.6448 16.5667 3.318 17.0833 4.2954 17.0833 6.25 17.0833H7.9167C9.8713 17.0833 10.8487 17.0833 11.5219 16.5667 11.6952 16.4338 11.8504 16.2786 11.9834 16.1053 12.5 15.432 12.5 14.4547 12.5 12.5 12.5 10.5453 12.5 9.568 11.9834 8.8948 11.8504 8.7214 11.6952 8.5663 11.5219 8.4332 10.8487 7.9167 9.8713 7.9167 7.9167 7.9167Z" stroke="currentColor" stroke-width="2"/>
  <path d="M9.7917 7.9167V5.625C9.7917 4.1292 8.5791 2.9167 7.0833 2.9167 5.5876 2.9167 4.375 4.1292 4.375 5.625V7.9167" stroke="currentColor" stroke-linecap="round" stroke-width="2"/>
  <path d="M17.8167 16.1053L18.3126 16.4858 17.8167 16.1053ZM17.3553 16.5667L17.7358 17.0626 17.3553 16.5667ZM17.3553 8.4332L17.7358 7.9374 17.3553 8.4332ZM17.8167 8.8948L18.3126 8.5143 17.8167 8.8948ZM15 7.9167C15 8.2618 15.2798 8.5417 15.625 8.5417 15.9702 8.5417 16.25 8.2618 16.25 7.9167H15ZM14.1677 7.2919C13.8224 7.2913 13.5422 7.5707 13.5417 7.9159 13.5412 8.2611 13.8205 8.5413 14.1657 8.5418L14.1677 7.2919ZM14.1657 16.4582C13.8205 16.4587 13.5412 16.7389 13.5417 17.0841 13.5422 17.4292 13.8224 17.7087 14.1677 17.7082L14.1657 16.4582ZM11.3778 2.6675C11.0717 2.827 10.9529 3.2045 11.1124 3.5106 11.272 3.8167 11.6494 3.9355 11.9555 3.776L11.3778 2.6675ZM17.7083 12.5C17.7083 13.4918 17.7074 14.1834 17.6477 14.7131 17.5894 15.2302 17.4818 15.5151 17.3208 15.7248L18.3126 16.4858C18.6683 16.0222 18.819 15.4817 18.8898 14.8532 18.9593 14.2372 18.9583 13.4628 18.9583 12.5H17.7083ZM17.3208 15.7248C17.2211 15.8548 17.1048 15.9711 16.9748 16.0708L17.7358 17.0626C17.9524 16.8963 18.1463 16.7024 18.3126 16.4858L17.3208 15.7248ZM18.9583 12.5C18.9583 11.5373 18.9593 10.7628 18.8898 10.1468 18.819 9.5183 18.6683 8.9778 18.3126 8.5143L17.3208 9.2752C17.4818 9.4849 17.5894 9.7698 17.6477 10.2869 17.7074 10.8166 17.7083 11.5082 17.7083 12.5H18.9583ZM16.9748 8.9292C17.1048 9.0289 17.2211 9.1453 17.3208 9.2752L18.3126 8.5143C18.1463 8.2976 17.9524 8.1037 17.7358 7.9374L16.9748 8.9292ZM16.25 7.9167V5.625H15V7.9167H16.25ZM16.25 5.625C16.25 3.7841 14.7576 2.2917 12.9167 2.2917V3.5417C14.0673 3.5417 15 4.4744 15 5.625H16.25ZM14.1657 8.5418C15.0141 8.5432 15.6128 8.5536 16.0733 8.6159 16.5213 8.6767 16.7803 8.78 16.9748 8.9292L17.7358 7.9374C17.3065 7.6081 16.8114 7.4545 16.2412 7.3773 15.6835 7.3017 14.9997 7.2932 14.1677 7.2919L14.1657 8.5418ZM14.1677 17.7082C14.9997 17.7068 15.6835 17.6983 16.2412 17.6228 16.8114 17.5455 17.3065 17.3919 17.7358 17.0626L16.9748 16.0708C16.7803 16.22 16.5213 16.3233 16.0733 16.3841 15.6128 16.4464 15.0141 16.4568 14.1657 16.4582L14.1677 17.7082ZM11.9555 3.776C12.2424 3.6265 12.5687 3.5417 12.9167 3.5417V2.2917C12.3628 2.2917 11.8388 2.4272 11.3778 2.6675L11.9555 3.776Z" fill="currentColor"/>
  <path d="M5 12.5C5 12.5 5.8333 12.9167 6.25 14.1667 6.25 14.1667 7.5 11.6667 9.1667 10.8333" stroke="currentColor" stroke-linecap="round" stroke-linejoin="round" stroke-width="2"/>
</svg>
