<svg xmlns="http://www.w3.org/2000/svg" width="20" height="20" viewBox="0 0 20 20" fill="none">
  <path d="M6.423 11.6853V7.8923M6.423 7.8923L6.4556 5.0901C6.4556 4.2893 6.981 3.7635 7.624 3.736 8.4075 3.7024 8.9618 4.2064 8.9618 5.0071L8.9798 8.722 8.9618 3.3925C8.9618 2.5917 9.4988 2.0833 10.2066 2.0833 10.9145 2.0833 11.4563 2.5521 11.4563 3.3528V5.8043L11.4665 8.758V7.9244C11.4665 7.8731 11.4645 7.8216 11.4592 7.7706M6.423 7.8923L4.8902 9.4259C4.4779 9.8987 3.9919 10.4584 3.8373 10.7395 3.5125 11.3302 3.464 11.8515 3.6564 12.4656 3.8741 13.0185 4.0696 13.4153 4.4667 13.9329 4.7571 14.3114 5.0382 14.8502 5.3316 15.2263 5.7542 15.7683 5.9851 16.1115 6.2406 16.4447 6.2683 16.4808 6.2949 16.5136 6.3207 16.5435 6.6825 16.9632 7.1886 17.2356 7.6753 17.5013L7.8614 17.6028C8.4978 17.8092 9.3874 17.9859 10.8386 17.8926 11.9057 17.8937 13.1275 18.0058 13.9362 17.5617 13.9711 17.5425 14.0066 17.5243 14.0434 17.5092L14.2948 17.4053C15.4723 16.8167 16.2934 15.5633 16.4178 14.2547 16.4743 13.6598 16.4517 13.0092 16.4528 12.3536V9.6556C16.3177 8.6362 15.7891 7.9782 13.758 7.9397M11.4592 7.7706C11.4577 7.7563 11.4559 7.742 11.4539 7.7277M11.4592 7.7706C11.4645 7.7946 11.4504 7.7034 11.4539 7.7277M11.4539 7.7277C11.4539 6.7359 13.1653 6.9014 13.758 7.9397M13.9558 9.5888V8.6362C13.9451 8.3729 13.8723 8.14 13.758 7.9397" stroke="currentColor" stroke-linecap="round" stroke-linejoin="round" stroke-width="2"/>
</svg>
