<svg xmlns="http://www.w3.org/2000/svg" width="20" height="20" viewBox="0 0 20 20" fill="none">
  <path d="M6.8858 18.3343V17.6144C6.8858 17.2276 6.8748 16.8268 6.6878 16.4881 6.4844 16.1197 6.1625 15.8101 5.7396 15.2667 5.4461 14.8894 5.1513 14.5117 4.8607 14.1321 4.4634 13.6129 4.0399 12.9663 3.7794 12.4093 3.4931 11.7973 3.4419 11.0576 3.767 10.4652 3.9217 10.1832 4.175 9.8212 4.5875 9.3471L6.4524 7.4193M6.4524 11.2013V7.4193M6.4524 7.4193L6.4201 4.3336C6.4201 3.5305 6.9944 2.8795 7.7027 2.8795 8.411 2.8795 8.9238 3.402 8.9238 4.205L9.0078 8.3327 8.9238 3.1208C8.9238 2.3177 9.498 1.6667 10.2063 1.6667 10.9147 1.6667 11.4889 2.3177 11.4889 3.1208L11.4567 6.2065 11.4669 9.1688V8.3327C11.4669 8.2813 11.4649 8.2297 11.4597 8.1786M11.4597 8.1786C11.4582 8.1642 11.4564 8.1498 11.4543 8.1355M11.4597 8.1786C11.4649 8.2026 11.4508 8.1111 11.4543 8.1355M11.4543 8.1355C11.4543 7.1408 13.1668 7.3068 13.7599 8.3481M13.9579 10.002V9.0467C13.9472 8.7826 13.8743 8.549 13.7599 8.3481M13.7599 8.3481C15.7923 8.3868 16.3213 9.0467 16.4565 10.069V12.7748C16.454 14.2138 16.2139 15.2572 15.3588 16.1153 14.5688 17.0589 14.7547 17.5871 14.735 18.3343" stroke="currentColor" stroke-linecap="round" stroke-linejoin="round" stroke-width="2"/>
</svg>
