<svg xmlns="http://www.w3.org/2000/svg" width="20" height="20" viewBox="0 0 20 20" fill="none">
  <path d="M10.6759 4.7578C10.7958 4.078 10.3418 3.4296 9.662 3.3098 8.9821 3.1899 8.3338 3.6438 8.2139 4.3237L7.5627 8.0167 6.7892 12.2485 4.9073 10.2808C4.313 9.6865 3.3341 9.7407 2.809 10.397 2.4073 10.8992 2.3962 11.6095 2.782 12.124L5.2932 15.4723C5.8631 16.2322 6.1481 16.6121 6.491 16.9074 7.0142 17.3579 7.6411 17.6713 8.3154 17.8196 8.7573 17.9168 9.2323 17.9168 10.1821 17.9168H12.2508C14.2027 17.9168 15.893 16.5617 16.3177 14.6567L17.4108 9.7533 17.4832 9.3429C17.6031 8.663 17.1491 8.0147 16.4693 7.8948 15.7893 7.7749 15.141 8.2289 15.0212 8.9088M10.6759 4.7578L10.9653 3.1165C11.0853 2.4366 11.7336 1.9827 12.4134 2.1025 13.0933 2.2224 13.5473 2.8707 13.4273 3.5506L12.7038 7.654M10.6759 4.7578L10.0248 8.4508M12.7038 7.654L12.4868 8.885M12.7038 7.654C12.8238 6.9741 13.472 6.5201 14.1519 6.64 14.8318 6.7599 15.2858 7.4082 15.1658 8.0881L15.0212 8.9088M15.0212 8.9088L14.9488 9.3191" stroke="currentColor" stroke-linecap="round" stroke-linejoin="round" stroke-width="2"/>
</svg>
