<svg xmlns="http://www.w3.org/2000/svg" width="20" height="20" viewBox="0 0 20 20" fill="none">
  <path d="M14.2425 9.1666V9.9999M14.2425 9.1666C14.2425 8.2461 13.5189 7.5 12.6263 7.5 12.1801 7.5 11.8183 7.873 11.8183 8.3333L11.818 9.1666V2.9167C11.818 2.2263 11.2753 1.6667 10.6059 1.6667 9.9364 1.6667 9.3938 2.2263 9.3938 2.9167L9.3939 4.1666M14.2425 9.1666C14.2425 8.7304 14.6223 8.3986 15.0396 8.4703L15.3163 8.5178C16.0955 8.6517 16.6667 9.3471 16.6667 10.1618L16.6663 11.3889C16.6663 13.2 16.6663 14.1056 16.3988 14.8266 16.2437 15.2448 15.8343 15.7781 15.5069 16.1635 15.2238 16.4969 15.0503 16.9198 15.0503 17.3628V18.3333M9.3939 4.1666C9.3939 3.4763 8.8513 2.9167 8.1819 2.9167 7.5124 2.9167 6.9698 3.4763 6.9698 4.1666L6.9696 11.2186 5.6603 9.8642C5.0858 9.2698 4.1395 9.3241 3.632 9.9803 3.2437 10.4825 3.233 11.1928 3.606 11.7073L6.5147 15.5392C7.0713 16.2723 7.3736 17.4023 7.3736 18.3333M9.3939 4.1666V8.3333" stroke="currentColor" stroke-linecap="round" stroke-linejoin="round" stroke-width="2"/>
</svg>
