<svg xmlns="http://www.w3.org/2000/svg" width="20" height="20" viewBox="0 0 20 20" fill="none">
  <path d="M2.0833 10.0001C2.0833 6.2682 2.0833 4.4022 3.2427 3.2428 4.4021 2.0834 6.268 2.0834 10 2.0834 13.7319 2.0834 15.5979 2.0834 16.7573 3.2428 17.9167 4.4022 17.9167 6.2682 17.9167 10.0001 17.9167 13.7321 17.9167 15.598 16.7573 16.7574 15.5979 17.9168 13.7319 17.9168 10 17.9168 6.268 17.9168 4.4021 17.9168 3.2427 16.7574 2.0833 15.598 2.0833 13.7321 2.0833 10.0001Z" stroke="currentColor" stroke-linejoin="round" stroke-width="2"/>
  <path d="M15 10.0001H13.5C12.9478 10.0001 12.5 10.4478 12.5 11.0001V11.5001C12.5 12.0524 12.9478 12.5001 13.5 12.5001H14C14.5523 12.5001 15 12.9478 15 13.5001V14.0001C15 14.5524 14.5523 15.0001 14 15.0001H12.5" stroke="currentColor" stroke-linecap="round" stroke-linejoin="round" stroke-width="2"/>
  <path d="M7.0833 10.0001H8.75M10.4167 10.0001H8.75M8.75 10.0001V15.0001" stroke="currentColor" stroke-linecap="round" stroke-linejoin="round" stroke-width="2"/>
</svg>
