<svg xmlns="http://www.w3.org/2000/svg" width="20" height="20" viewBox="0 0 20 20" fill="none">
  <path d="M15 7.9167C15 5.1552 12.7614 2.9167 10 2.9167 7.2386 2.9167 5 5.1552 5 7.9167" stroke="currentColor" stroke-linecap="round" stroke-linejoin="round" stroke-width="2"/>
  <path d="M15 13.3333C14.0019 15.0769 12.1365 16.25 10 16.25 7.8635 16.25 5.998 15.0769 5 13.3333" stroke="currentColor" stroke-linecap="round" stroke-linejoin="round" stroke-width="2"/>
  <path d="M15 7.9167C16.25 8.3333 17.9167 9.1667 18.8488 10.1664 19.0509 10.323 19.1667 10.5655 19.1667 10.8211 19.1667 11.0906 19.0393 11.3456 18.814 11.4933 16.7122 12.8722 13.544 13.75 10 13.75 6.456 13.75 3.2878 12.8722 1.186 11.4933 0.9607 11.3456 0.8333 11.0906 0.8333 10.8211 0.8333 10.5655 0.9491 10.323 1.1512 10.1664 2.0833 9.1667 3.75 8.3333 5 7.9167" stroke="currentColor" stroke-linecap="round" stroke-linejoin="round" stroke-width="2"/>
  <path d="M15 7.9167C13.8598 8.4227 12.0445 8.75 10 8.75 7.9555 8.75 6.1403 8.4227 5 7.9167" stroke="currentColor" stroke-linecap="round" stroke-linejoin="round" stroke-width="2"/>
  <path d="M10.042 11.2492H10.0003M10.0837 11.2492C10.0837 11.2952 10.0463 11.3326 10.0003 11.3326 9.9543 11.3326 9.917 11.2952 9.917 11.2492 9.917 11.2033 9.9543 11.1659 10.0003 11.1659 10.0463 11.1659 10.0837 11.2033 10.0837 11.2492Z" stroke="currentColor" stroke-linecap="round" stroke-linejoin="round" stroke-width="2"/>
  <path d="M14.2087 10.8328H14.167M14.2503 10.8328C14.2503 10.8788 14.213 10.9161 14.167 10.9161 14.121 10.9161 14.0837 10.8788 14.0837 10.8328 14.0837 10.7868 14.121 10.7494 14.167 10.7494 14.213 10.7494 14.2503 10.7868 14.2503 10.8328Z" stroke="currentColor" stroke-linecap="round" stroke-linejoin="round" stroke-width="2"/>
  <path d="M5.8753 10.832H5.8337M5.917 10.832C5.917 10.8781 5.8797 10.9153 5.8337 10.9153 5.7876 10.9153 5.7503 10.8781 5.7503 10.832 5.7503 10.786 5.7876 10.7487 5.8337 10.7487 5.8797 10.7487 5.917 10.786 5.917 10.832Z" stroke="currentColor" stroke-linecap="round" stroke-linejoin="round" stroke-width="2"/>
</svg>
