<svg xmlns="http://www.w3.org/2000/svg" width="20" height="20" viewBox="0 0 20 20" fill="none">
  <path d="M10 2.9167V1.6667" stroke="currentColor" stroke-linecap="round" stroke-linejoin="round" stroke-width="2"/>
  <path d="M10 2.9167C10.7827 2.9167 13.7268 6.0777 14.1902 10.1698 15.0894 10.3909 17.1769 10.5833 18.3333 9.5833 17.5454 5.7796 14.1139 2.9167 10 2.9167ZM10 2.9167C9.1157 2.9167 8.2629 3.049 7.4611 3.2944M10 2.9167C9.6961 2.9167 9.0663 3.3932 8.3825 4.2158M5.8098 10.1698C7.0466 10.8573 8.4765 11.25 10 11.25 10.3975 11.25 10.7886 11.2233 11.1716 11.1716M5.8098 10.1698C4.9107 10.3909 2.8233 10.5833 1.6667 9.5833 2.0723 7.6249 3.1789 5.9158 4.7185 4.7185M5.8098 10.1698C5.9497 8.9345 6.3157 7.7841 6.7799 6.7799" stroke="currentColor" stroke-linecap="round" stroke-linejoin="round" stroke-width="2"/>
  <path d="M10 11.25V17.0833C10 17.7737 9.4403 18.3333 8.75 18.3333 8.0596 18.3333 7.5 17.7737 7.5 17.0833V16.6667" stroke="currentColor" stroke-linecap="round" stroke-linejoin="round" stroke-width="2"/>
  <path d="M1.6667 1.6667L18.3333 18.3333" stroke="currentColor" stroke-linecap="round" stroke-linejoin="round" stroke-width="2"/>
</svg>
