<svg xmlns="http://www.w3.org/2000/svg" width="20" height="20" viewBox="0 0 20 20" fill="none">
  <path d="M18.2799 10.6766L17.4788 6.8218C17.2146 5.5501 17.0824 4.9143 16.6229 4.5405 16.1635 4.1667 15.5141 4.1667 14.2152 4.1667H5.7848C4.4859 4.1667 3.8365 4.1667 3.3771 4.5405 2.9176 4.9143 2.7854 5.5501 2.5212 6.8218L1.7201 10.6766C1.5576 11.4586 1.7356 12.2988 2.675 12.4765 3.2312 12.5818 3.8221 12.4645 4.3856 12.5307 5.643 12.6785 6.7701 13.3489 7.4698 14.3652 8.0827 15.4922 8.6708 15.8333 10 15.8333 11.3292 15.8333 11.9173 15.4922 12.5302 14.3652 13.2299 13.3489 14.357 12.6785 15.6144 12.5307 16.1779 12.4645 16.7688 12.5818 17.325 12.4765 18.2644 12.2988 18.4424 11.4586 18.2799 10.6766Z" stroke="currentColor" stroke-linecap="round" stroke-linejoin="round" stroke-width="2"/>
  <path d="M13.3333 13.3333L11.5762 6.6667M6.6667 13.3333L8.4238 6.6667" stroke="currentColor" stroke-linecap="round" stroke-linejoin="round" stroke-width="2"/>
  <path d="M2.9167 6.6667H17.0833" stroke="currentColor" stroke-linecap="round" stroke-linejoin="round" stroke-width="2"/>
</svg>
