<svg xmlns="http://www.w3.org/2000/svg" width="20" height="20" viewBox="0 0 20 20" fill="none">
  <path d="M11.6667 14.1667L11.9553 14.996C12.2193 15.7828 12.3513 16.1763 12.6583 16.4097 12.6771 16.4239 12.6964 16.4378 12.716 16.451 13.0358 16.6667 13.4532 16.6667 14.2878 16.6667 16.1938 16.6667 17.1467 16.6667 17.7594 16.0636 17.7948 16.0288 17.833 15.9883 17.8657 15.951 18.4318 15.3044 18.3732 14.4015 18.2558 12.5956 18.0635 9.6342 17.6863 7.2544 17.3217 5.5837 17.1017 4.5758 16.9917 4.0719 16.531 3.7026 16.0702 3.3333 15.4998 3.3333 14.3592 3.3333H5.6409C4.5002 3.3333 3.9299 3.3333 3.469 3.7026 3.0082 4.0719 2.8983 4.5758 2.6783 5.5837 2.3137 7.2544 1.9365 9.6342 1.7441 12.5956 1.6268 14.4015 1.5682 15.3044 2.1344 15.951 2.167 15.9883 2.2052 16.0288 2.2406 16.0636 2.8534 16.6667 3.8063 16.6667 5.7121 16.6667 6.5468 16.6667 6.9642 16.6667 7.284 16.451 7.3036 16.4378 7.3229 16.4239 7.3417 16.4097 7.6487 16.1763 7.7807 15.7828 8.0447 14.996L8.3229 14.1667" stroke="currentColor" stroke-linecap="round" stroke-linejoin="round" stroke-width="2"/>
  <path d="M7.0833 12.5C7.5824 13.4963 8.9318 14.5833 10 14.5833 11.0683 14.5833 12.4177 13.4963 12.9167 12.5" stroke="currentColor" stroke-linecap="round" stroke-width="2"/>
  <path d="M2.5 6.6667H17.5" stroke="currentColor" stroke-linecap="round" stroke-linejoin="round" stroke-width="2"/>
</svg>
