<svg xmlns="http://www.w3.org/2000/svg" width="20" height="20" viewBox="0 0 20 20" fill="none">
  <path d="M11.6667 15.4167C11.6667 13.1944 13.25 8.3333 17.9167 8.3333M8.3333 15.4167C8.3333 13.1944 6.75 8.3333 2.0833 8.3333" stroke="currentColor" stroke-linecap="round" stroke-linejoin="round" stroke-width="2"/>
  <path d="M8.75 6.6667H11.25" stroke="currentColor" stroke-linecap="round" stroke-linejoin="round" stroke-width="2"/>
  <path d="M1.6667 6.6667V7.9674C1.6667 8.2185 1.6877 8.445 1.7567 8.6865 2.4476 11.1029 4.9336 14.7221 7.9396 15.7188 8.209 15.8082 8.4601 15.8333 8.7437 15.8333H11.2563C11.5399 15.8333 11.791 15.8082 12.0604 15.7188 15.0664 14.7221 17.5524 11.1029 18.2432 8.6865 18.3123 8.445 18.3333 8.2185 18.3333 7.9674V6.6667C18.3333 5.4882 18.3333 4.8989 17.9672 4.5328 17.6011 4.1667 17.0118 4.1667 15.8333 4.1667H4.1667C2.9882 4.1667 2.3989 4.1667 2.0328 4.5328 1.6667 4.8989 1.6667 5.4882 1.6667 6.6667Z" stroke="currentColor" stroke-linecap="round" stroke-linejoin="round" stroke-width="2"/>
</svg>
