<svg xmlns="http://www.w3.org/2000/svg" width="20" height="20" viewBox="0 0 20 20" fill="none">
  <path d="M8.6236 8.3333H11.3764C13.0685 8.3333 13.9145 8.3333 14.1251 7.8262 14.3357 7.319 13.7374 6.7221 12.5409 5.5283L11.1645 4.1549 11.1645 4.1549C10.6156 3.6072 10.3411 3.3333 10 3.3333 9.6589 3.3333 9.3844 3.6072 8.8355 4.1549L7.4591 5.5283 7.4591 5.5283C6.2626 6.7221 5.6644 7.319 5.8749 7.8262 6.0855 8.3333 6.9315 8.3333 8.6236 8.3333Z" fill="currentColor" stroke="currentColor" stroke-linecap="round" stroke-linejoin="round" stroke-width="2"/>
  <path d="M8.6236 11.6667H11.3764C13.0685 11.6667 13.9145 11.6667 14.1251 12.1738 14.3357 12.681 13.7374 13.2779 12.5409 14.4718L11.1645 15.8451C10.6156 16.3928 10.3411 16.6667 10 16.6667 9.6589 16.6667 9.3844 16.3928 8.8355 15.8451L7.4591 14.4718C6.2626 13.2779 5.6644 12.681 5.8749 12.1738 6.0855 11.6667 6.9315 11.6667 8.6236 11.6667Z" stroke="currentColor" stroke-linecap="round" stroke-linejoin="round" stroke-width="2"/>
</svg>
