<svg xmlns="http://www.w3.org/2000/svg" width="20" height="20" viewBox="0 0 20 20" fill="none">
  <path d="M5 3.3333C5 4.2538 4.2538 5 3.3333 5 2.4129 5 1.6667 4.2538 1.6667 3.3333 1.6667 2.4129 2.4129 1.6667 3.3333 1.6667 4.2538 1.6667 5 2.4129 5 3.3333Z" stroke="currentColor" stroke-width="2"/>
  <path d="M18.3333 3.3333C18.3333 4.2538 17.5872 5 16.6667 5 15.7462 5 15 4.2538 15 3.3333 15 2.4129 15.7462 1.6667 16.6667 1.6667 17.5872 1.6667 18.3333 2.4129 18.3333 3.3333Z" stroke="currentColor" stroke-width="2"/>
  <path d="M18.3333 16.6667C18.3333 17.5872 17.5872 18.3333 16.6667 18.3333 15.7462 18.3333 15 17.5872 15 16.6667 15 15.7462 15.7462 15 16.6667 15 17.5872 15 18.3333 15.7462 18.3333 16.6667Z" stroke="currentColor" stroke-width="2"/>
  <path d="M5 16.6667C5 17.5872 4.2538 18.3333 3.3333 18.3333 2.4129 18.3333 1.6667 17.5872 1.6667 16.6667 1.6667 15.7462 2.4129 15 3.3333 15 4.2538 15 5 15.7462 5 16.6667Z" stroke="currentColor" stroke-width="2"/>
  <path d="M8.8748 7.067L7.9676 7.511C6.8225 8.0714 6.25 8.3515 6.25 8.75 6.25 9.1485 6.8225 9.4287 7.9676 9.989L8.8748 10.4329C9.4202 10.6998 9.6929 10.8333 10 10.8333 10.3071 10.8333 10.5798 10.6998 11.1253 10.4329L12.0324 9.989C13.1775 9.4287 13.75 9.1485 13.75 8.75 13.75 8.3515 13.1775 8.0714 12.0324 7.511L11.1253 7.067C10.5798 6.8001 10.3071 6.6667 10 6.6667 9.6929 6.6667 9.4202 6.8001 8.8748 7.067Z" stroke="currentColor" stroke-linecap="round" stroke-linejoin="round" stroke-width="2"/>
  <path d="M13.75 11.25C13.75 11.6485 13.1775 11.9287 12.0324 12.489L11.1253 12.9329C10.5798 13.1998 10.3071 13.3333 10 13.3333 9.6929 13.3333 9.4202 13.1998 8.8748 12.9329L7.9676 12.489C6.8225 11.9287 6.25 11.6485 6.25 11.25" stroke="currentColor" stroke-linecap="round" stroke-linejoin="round" stroke-width="2"/>
</svg>
