<svg xmlns="http://www.w3.org/2000/svg" width="20" height="20" viewBox="0 0 20 20" fill="none">
  <path d="M8.75 8.3333H6.25C5.4745 8.3333 5.0867 8.3333 4.7729 8.2314 4.1386 8.0253 3.6414 7.528 3.4353 6.8938 3.3333 6.58 3.3333 6.1922 3.3333 5.4167 3.3333 4.6411 3.3333 4.2534 3.4353 3.9396 3.6414 3.3053 4.1386 2.808 4.7729 2.602 5.0867 2.5 5.4745 2.5 6.25 2.5H8.75C9.5255 2.5 9.9133 2.5 10.2271 2.602 10.8613 2.808 11.3586 3.3053 11.5647 3.9396 11.6667 4.2534 11.6667 4.6411 11.6667 5.4167 11.6667 6.1922 11.6667 6.58 11.5647 6.8938 11.3586 7.528 10.8613 8.0253 10.2271 8.2314 9.9133 8.3333 9.5255 8.3333 8.75 8.3333Z" stroke="currentColor" stroke-linecap="round" stroke-linejoin="round" stroke-width="2"/>
  <path d="M13.75 17.5H11.25C10.4745 17.5 10.0867 17.5 9.7729 17.398 9.1387 17.1919 8.6414 16.6947 8.4353 16.0604 8.3333 15.7467 8.3333 15.3588 8.3333 14.5833 8.3333 13.8078 8.3333 13.42 8.4353 13.1062 8.6414 12.472 9.1387 11.9748 9.7729 11.7687 10.0867 11.6667 10.4745 11.6667 11.25 11.6667H13.75C14.5255 11.6667 14.9133 11.6667 15.2271 11.7687 15.8613 11.9748 16.3586 12.472 16.5647 13.1062 16.6667 13.42 16.6667 13.8078 16.6667 14.5833 16.6667 15.3588 16.6667 15.7467 16.5647 16.0604 16.3586 16.6947 15.8613 17.1919 15.2271 17.398 14.9133 17.5 14.5255 17.5 13.75 17.5Z" stroke="currentColor" stroke-linecap="round" stroke-linejoin="round" stroke-width="2"/>
</svg>
