<svg xmlns="http://www.w3.org/2000/svg" width="20" height="20" viewBox="0 0 20 20" fill="none">
  <circle cx="10" cy="10" r="8.333333333333334" stroke="currentColor" stroke-linecap="round" stroke-linejoin="round" stroke-width="2"/>
  <path d="M10 6.25C10.3452 6.25 10.625 5.9702 10.625 5.625 10.625 5.2798 10.3452 5 10 5M10 6.25C9.6548 6.25 9.375 5.9702 9.375 5.625 9.375 5.2798 9.6548 5 10 5M10 6.25V5" stroke="currentColor" stroke-linecap="round" stroke-linejoin="round" stroke-width="2"/>
  <path d="M13.3333 7.5C12.4742 8.0155 11.2978 8.3333 10 8.3333 8.7023 8.3333 7.5257 8.0155 6.6667 7.5" stroke="currentColor" stroke-linecap="round" stroke-linejoin="round" stroke-width="2"/>
  <path d="M10.8333 11.6667L11.6667 15M10.8333 11.6667V8.3333M10.8333 11.6667H10M8.3333 15L9.1667 11.6667M9.1667 11.6667V8.3333M9.1667 11.6667H10M10 11.6667V8.3333" stroke="currentColor" stroke-linecap="round" stroke-linejoin="round" stroke-width="2"/>
</svg>
