<svg xmlns="http://www.w3.org/2000/svg" width="20" height="20" viewBox="0 0 20 20" fill="none">
  <path d="M11.25 10.8333V9.5833C11.25 8.4129 11.25 7.8278 10.9691 7.4074 10.8475 7.2254 10.6913 7.0691 10.5093 6.9475 10.1421 6.7022 9.6491 6.6712 8.75 6.6672 8.6199 6.6667 8.4813 6.6667 8.3333 6.6667 7.163 6.6667 6.5778 6.6667 6.1574 6.9475 5.9754 7.0691 5.8192 7.2254 5.6976 7.4074 5.4167 7.8278 5.4167 8.4129 5.4167 9.5833V14.5833C5.4167 15.7538 5.4167 16.3389 5.6976 16.7593 5.8192 16.9413 5.9754 17.0975 6.1574 17.2191 6.5778 17.5 7.163 17.5 8.3333 17.5 9.5038 17.5 10.0889 17.5 10.5093 17.2191 10.6913 17.0975 10.8475 16.9413 10.9691 16.7593 11.1253 16.5256 11.1946 16.241 11.2254 15.8333" stroke="currentColor" stroke-linecap="round" stroke-width="2"/>
  <path d="M8.75 9.1667V10.4167C8.75 11.5871 8.75 12.1723 9.0309 12.5926 9.1525 12.7746 9.3088 12.9308 9.4908 13.0524 9.8579 13.2978 10.3509 13.3288 11.25 13.3328 11.3801 13.3333 11.5188 13.3333 11.6667 13.3333 12.8371 13.3333 13.4223 13.3333 13.8426 13.0524 14.0246 12.9308 14.1808 12.7746 14.3024 12.5926 14.5833 12.1723 14.5833 11.5871 14.5833 10.4167V5.4167C14.5833 4.2463 14.5833 3.6611 14.3024 3.2407 14.1808 3.0587 14.0246 2.9025 13.8426 2.7809 13.4223 2.5 12.8371 2.5 11.6667 2.5 10.4962 2.5 9.9111 2.5 9.4908 2.7809 9.3088 2.9025 9.1525 3.0587 9.0309 3.2407 8.8748 3.4744 8.8054 3.759 8.7746 4.1667" stroke="currentColor" stroke-linecap="round" stroke-width="2"/>
  <path d="M16.6667 8.75L18.3333 7.5M16.6667 12.0833L18.3333 13.3333" stroke="currentColor" stroke-linecap="round" stroke-width="2"/>
  <path d="M3.3333 8.75L1.6667 7.5M3.3333 12.0833L1.6667 13.3333" stroke="currentColor" stroke-linecap="round" stroke-width="2"/>
</svg>
