<svg xmlns="http://www.w3.org/2000/svg" width="20" height="20" viewBox="0 0 20 20" fill="none">
  <path d="M7.9366 12.0304L12.0308 7.9362" stroke="currentColor" stroke-linecap="round" stroke-width="2"/>
  <path d="M17.5135 13.3407H15.8437M13.339 17.516V15.8459" stroke="currentColor" stroke-linecap="round" stroke-linejoin="round" stroke-width="2"/>
  <path d="M2.4858 6.6599H4.1555M6.6602 2.4846V4.1547" stroke="currentColor" stroke-linecap="round" stroke-linejoin="round" stroke-width="2"/>
  <path d="M12.5897 10.474C13.5397 11.0903 14.5136 10.9259 15.2255 10.2138L17.7208 7.718C18.5359 6.9027 18.5359 5.5809 17.7208 4.7656L15.233 2.2773C14.4179 1.4621 13.0963 1.4621 12.2813 2.2773L9.7859 4.7732C9.2012 5.3581 8.8635 6.4698 9.5551 7.4251" stroke="currentColor" stroke-linecap="round" stroke-linejoin="round" stroke-width="2"/>
  <path d="M10.4742 12.5905C11.0903 13.5407 10.9259 14.5148 10.2141 15.2269L7.7187 17.7228C6.9036 18.538 5.5821 18.538 4.767 17.7228L2.2792 15.2344C1.4641 14.4192 1.4641 13.0973 2.2792 12.2821L4.7745 9.7862C5.3593 9.2013 6.4708 8.8636 7.4259 9.5553" stroke="currentColor" stroke-linecap="round" stroke-linejoin="round" stroke-width="2"/>
</svg>
