<svg xmlns="http://www.w3.org/2000/svg" width="20" height="20" viewBox="0 0 20 20" fill="none">
  <path d="M10.1195 8.9092L10.2919 8.7368C11.9408 7.0878 14.6143 7.0878 16.2632 8.7368 17.9123 10.3857 17.9123 13.0592 16.2632 14.7081L13.8748 17.0966C12.2258 18.7456 9.5523 18.7456 7.9034 17.0966 6.2544 15.4477 6.2544 12.7742 7.9034 11.1253L8.2903 10.7383" stroke="currentColor" stroke-linecap="round" stroke-width="2"/>
  <path d="M16.7097 9.2617L17.0966 8.8748C18.7456 7.2258 18.7456 4.5523 17.0966 2.9034 15.4477 1.2544 12.7742 1.2544 11.1253 2.9034L8.7368 5.2919C7.0878 6.9409 7.0878 9.6143 8.7368 11.2633 10.3857 12.9123 13.0592 12.9123 14.7081 11.2633L14.8805 11.0908" stroke="currentColor" stroke-linecap="round" stroke-width="2"/>
  <path d="M3.75 3.3333L5 5M1.6667 6.6667L4.1667 7.5M2.5 11.25L4.1667 10" stroke="currentColor" stroke-linecap="round" stroke-linejoin="round" stroke-width="2"/>
</svg>
