<svg xmlns="http://www.w3.org/2000/svg" width="20" height="20" viewBox="0 0 20 20" fill="none">
  <path d="M11.6667 17.9167H8.3333C5.5937 17.9167 4.2239 17.9167 3.302 17.16 3.1332 17.0215 2.9784 16.8668 2.8399 16.698 2.0833 15.776 2.0833 14.4063 2.0833 11.6667 2.0833 8.9271 2.0833 7.5573 2.8399 6.6354 2.9784 6.4666 3.1332 6.3118 3.302 6.1733 4.2239 5.4167 5.5937 5.4167 8.3333 5.4167H11.6667C14.4062 5.4167 15.776 5.4167 16.6979 6.1733 16.8668 6.3118 17.0215 6.4666 17.16 6.6354 17.9167 7.5573 17.9167 8.9271 17.9167 11.6667 17.9167 14.4063 17.9167 15.776 17.16 16.698 17.0215 16.8668 16.8668 17.0215 16.6979 17.16 15.776 17.9167 14.4062 17.9167 11.6667 17.9167Z" stroke="currentColor" stroke-linecap="round" stroke-linejoin="round" stroke-width="2"/>
  <path d="M2.0833 12.0833V8.75C2.0833 5.6073 2.0833 4.036 3.0596 3.0596 4.0359 2.0833 5.6073 2.0833 8.75 2.0833H11.25C14.3927 2.0833 15.964 2.0833 16.9403 3.0596 17.9167 4.036 17.9167 5.6073 17.9167 8.75V12.0833" stroke="currentColor" stroke-linecap="round" stroke-linejoin="round" stroke-width="2"/>
  <path d="M12.5 11.25C12.5 11.25 10.6587 8.75 9.9999 8.75 9.3412 8.75 7.5 11.25 7.5 11.25M9.9999 9.1667L10 14.5833" stroke="currentColor" stroke-linecap="round" stroke-linejoin="round" stroke-width="2"/>
</svg>
