<svg xmlns="http://www.w3.org/2000/svg" width="20" height="20" viewBox="0 0 20 20" fill="none">
  <path d="M13.3333 8.3333C14.5001 8.3333 15.0835 8.3333 15.5292 8.5604 15.9212 8.7602 16.2398 9.0788 16.4396 9.4708 16.6667 9.9165 16.6667 10.4999 16.6667 11.6667V14.1667C16.6667 16.1308 16.6667 17.1129 16.0565 17.7232 15.4462 18.3333 14.4642 18.3333 12.5 18.3333H7.5C5.5358 18.3333 4.5537 18.3333 3.9435 17.7232 3.3333 17.1129 3.3333 16.1308 3.3333 14.1667V11.6667C3.3333 10.4999 3.3333 9.9165 3.5604 9.4708 3.7601 9.0788 4.0789 8.7602 4.4709 8.5604 4.9165 8.3333 5.4999 8.3333 6.6667 8.3333" stroke="currentColor" stroke-linecap="round" stroke-linejoin="round" stroke-width="2"/>
  <path d="M10 13.3333V3.3333" stroke="currentColor" stroke-linecap="round" stroke-linejoin="round" stroke-width="2"/>
  <path d="M12.5 5C12.5 5 10.6587 2.5 10 2.5 9.3412 2.5 7.5 5 7.5 5" stroke="currentColor" stroke-linecap="round" stroke-linejoin="round" stroke-width="2"/>
</svg>
