<svg xmlns="http://www.w3.org/2000/svg" width="20" height="20" viewBox="0 0 20 20" fill="none">
  <path d="M2.0834 11.25V5.4167H17.9168V11.25C17.9168 14.3927 17.9168 15.9641 16.9404 16.9403 15.9641 17.9167 14.3928 17.9167 11.2501 17.9167H8.7501C5.6074 17.9167 4.036 17.9167 3.0597 16.9403 2.0834 15.9641 2.0834 14.3927 2.0834 11.25Z" stroke="currentColor" stroke-linecap="round" stroke-linejoin="round" stroke-width="2"/>
  <path d="M2.0834 5.4167L2.5834 4.75C3.5648 3.4414 4.0555 2.7872 4.7593 2.4352 5.4632 2.0833 6.281 2.0833 7.9167 2.0833H12.0834C13.7191 2.0833 14.5369 2.0833 15.2408 2.4352 15.9446 2.7872 16.4353 3.4414 17.4168 4.75L17.9168 5.4167" stroke="currentColor" stroke-linecap="round" stroke-linejoin="round" stroke-width="2"/>
  <path d="M12.5001 11.25C12.5001 11.25 10.6588 8.75 10 8.75 9.3413 8.75 7.5 11.25 7.5 11.25M10 9.1667L10.0001 14.5833" stroke="currentColor" stroke-linecap="round" stroke-linejoin="round" stroke-width="2"/>
</svg>
