<svg xmlns="http://www.w3.org/2000/svg" width="20" height="20" viewBox="0 0 20 20" fill="none">
  <path d="M4.375 17.5H15.625C15.8185 17.5 15.9152 17.5 15.9967 17.492 16.788 17.414 17.414 16.788 17.492 15.9967 17.5 15.9152 17.5 15.8185 17.5 15.625 17.5 15.4315 17.5 15.3348 17.492 15.2533 17.414 14.462 16.788 13.836 15.9967 13.758 15.9152 13.75 15.8185 13.75 15.625 13.75H14.2173C14.027 13.75 13.9318 13.75 13.8406 13.7601 13.5264 13.7948 13.2285 13.9182 12.9817 14.1158 12.9101 14.1732 12.8428 14.2405 12.7083 14.375 12.5738 14.5095 12.5066 14.5768 12.4349 14.6342 12.1882 14.8318 11.8902 14.9552 11.5761 14.9899 11.4848 15 11.3897 15 11.1994 15H8.8006C8.6103 15 8.5152 15 8.4239 14.9899 8.1097 14.9552 7.8119 14.8318 7.5651 14.6342 7.4934 14.5768 7.4262 14.5095 7.2917 14.375 7.1572 14.2405 7.0899 14.1732 7.0182 14.1158 6.7715 13.9182 6.4736 13.7948 6.1594 13.7601 6.0681 13.75 5.973 13.75 5.7828 13.75H4.375C4.1815 13.75 4.0848 13.75 4.0033 13.758 3.212 13.836 2.586 14.462 2.508 15.2533 2.5 15.3348 2.5 15.4315 2.5 15.625 2.5 15.8185 2.5 15.9152 2.508 15.9967 2.586 16.788 3.212 17.414 4.0033 17.492 4.0848 17.5 4.1815 17.5 4.375 17.5Z" stroke="currentColor" stroke-linecap="round" stroke-linejoin="round" stroke-width="2"/>
  <path d="M13.75 6.25C13.75 6.25 10.9882 2.5 10 2.5 9.0118 2.5 6.25 6.25 6.25 6.25M10 3.3333V12.5" stroke="currentColor" stroke-linecap="round" stroke-linejoin="round" stroke-width="2"/>
</svg>
