<svg xmlns="http://www.w3.org/2000/svg" width="20" height="20" viewBox="0 0 20 20" fill="none">
  <path d="M11.25 6.25V4.5833C11.25 3.4129 11.25 2.8278 10.9691 2.4074 10.8475 2.2254 10.6913 2.0692 10.5093 1.9476 10.0889 1.6667 9.5038 1.6667 8.3333 1.6667 7.163 1.6667 6.5778 1.6667 6.1574 1.9476 5.9754 2.0692 5.8192 2.2254 5.6976 2.4074 5.4167 2.8278 5.4167 3.4129 5.4167 4.5833V6.25" stroke="currentColor" stroke-linecap="round" stroke-linejoin="round" stroke-width="2"/>
  <path d="M7.9167 3.75H8.75" stroke="currentColor" stroke-linecap="round" stroke-linejoin="round" stroke-width="2"/>
  <path d="M14.7348 12.3148C14.8966 12.1172 15.3042 11.7614 15.8333 11.6272M9.4318 12.3148C9.2701 12.1172 8.8625 11.7614 8.3333 11.6272M14.7348 16.0185C14.8966 16.2162 15.3042 16.5719 15.8333 16.7062M9.4318 16.0185C9.2701 16.2162 8.8625 16.5719 8.3333 16.7062M14.7348 14.1667H15.8333M9.4318 14.1667H8.3333M12.0833 17.5C10.6189 17.5 9.4318 16.3392 9.4318 14.9074V13.4259C9.4318 11.9941 10.6189 10.8333 12.0833 10.8333 13.5478 10.8333 14.7348 11.9941 14.7348 13.4259V14.9074C14.7348 16.3392 13.5478 17.5 12.0833 17.5Z" stroke="currentColor" stroke-linecap="round" stroke-linejoin="round" stroke-width="2"/>
  <path d="M12.4964 8.7512C12.4814 7.7175 12.4048 7.1315 12.0118 6.7384 11.5237 6.25 10.738 6.25 9.1667 6.25H7.5C5.9287 6.25 5.143 6.25 4.6548 6.7384 4.1667 7.2268 4.1667 8.0128 4.1667 9.5849V14.1704C4.1667 14.9452 4.1667 15.3326 4.2307 15.6547 4.4937 16.9777 5.5274 18.0118 6.8497 18.2749 7.0282 18.3104 7.2267 18.3262 7.5 18.3333" stroke="currentColor" stroke-linecap="round" stroke-linejoin="round" stroke-width="2"/>
</svg>
