<svg xmlns="http://www.w3.org/2000/svg" width="20" height="20" viewBox="0 0 20 20" fill="none">
  <path d="M9.1532 13.75H7.5135C6.6602 13.75 5.8635 13.3316 5.3907 12.6352L4.89 11.8978C4.0824 10.7082 3.6003 9.3349 3.4902 7.91L3.3371 5.9278C3.281 5.2023 3.8663 4.5833 4.6085 4.5833H12.0583C12.8003 4.5833 13.3857 5.2023 13.3296 5.9278L13.2725 6.6667" stroke="currentColor" stroke-linecap="round" stroke-width="2"/>
  <path d="M11.25 5V4.5833C11.25 3.4129 11.25 2.8278 10.9691 2.4074 10.8475 2.2254 10.6913 2.0692 10.5093 1.9476 10.0889 1.6667 9.5038 1.6667 8.3333 1.6667 7.163 1.6667 6.5778 1.6667 6.1574 1.9476 5.9754 2.0692 5.8192 2.2254 5.6976 2.4074 5.4167 2.8278 5.4167 3.4129 5.4167 4.5833V5" stroke="currentColor" stroke-width="2"/>
  <path d="M8.3333 14.1667V18.3333" stroke="currentColor" stroke-linecap="round" stroke-linejoin="round" stroke-width="2"/>
  <path d="M7.5 7.0833H9.1667" stroke="currentColor" stroke-linecap="round" stroke-linejoin="round" stroke-width="2"/>
  <path d="M10 11.25C10 11.25 10.8333 11.25 11.6667 12.9167 11.6667 12.9167 14.3138 8.75 16.6667 7.9167" stroke="currentColor" stroke-linecap="round" stroke-linejoin="round" stroke-width="2"/>
</svg>
