<svg xmlns="http://www.w3.org/2000/svg" width="20" height="20" viewBox="0 0 20 20" fill="none">
  <path d="M12.5093 9.5838C12.5093 8.0124 12.5093 7.2267 12.0205 6.7386 11.5318 6.2504 10.7453 6.2504 9.1722 6.2504H7.5037C5.9306 6.2504 5.1441 6.2504 4.6554 6.7386 4.1667 7.2267 4.1667 8.0124 4.1667 9.5838V14.1671C4.1667 14.9415 4.1667 15.3288 4.2308 15.6508 4.4941 16.973 5.5289 18.0067 6.8527 18.2697 7.1112 18.3211 7.4118 18.3313 7.9208 18.3332" stroke="currentColor" stroke-linecap="round" stroke-linejoin="round" stroke-width="2"/>
  <path d="M11.2581 6.2504V4.5837C11.2581 3.4134 11.2581 2.8282 10.9768 2.4078 10.8552 2.2258 10.6988 2.0696 10.5165 1.948 10.0958 1.6671 9.5099 1.6671 8.3382 1.6671 7.1665 1.6671 6.5807 1.6671 6.1598 1.948 5.9776 2.0696 5.8212 2.2258 5.6995 2.4078 5.4183 2.8282 5.4183 3.4134 5.4183 4.5837V6.2504" stroke="currentColor" stroke-linecap="round" stroke-linejoin="round" stroke-width="2"/>
  <path d="M7.9167 3.7504H8.75" stroke="currentColor" stroke-linecap="round" stroke-linejoin="round" stroke-width="2"/>
  <path d="M11.3691 15.355C11.3691 15.355 11.6837 15.451 12.1205 16.091 12.1205 16.091 12.7612 14.7093 13.6493 14.2293M15.8323 15.0139C15.8323 16.8472 14.3445 18.3332 12.5093 18.3332 10.674 18.3332 9.1862 16.8472 9.1862 15.0139 9.1862 13.1807 10.674 11.6945 12.5093 11.6945 14.3445 11.6945 15.8323 13.1807 15.8323 15.0139Z" stroke="currentColor" stroke-linecap="round" stroke-linejoin="round" stroke-width="2"/>
</svg>
