<svg xmlns="http://www.w3.org/2000/svg" width="20" height="20" viewBox="0 0 20 20" fill="none">
  <path d="M11.6456 8.7512C11.6307 7.7175 11.5542 7.1315 11.1621 6.7384 10.6749 6.25 9.8909 6.25 8.323 6.25H6.6599C5.0919 6.25 4.3079 6.25 3.8208 6.7384 3.3336 7.2268 3.3336 8.0128 3.3336 9.5849V14.1704C3.3336 14.9452 3.3336 15.3326 3.3976 15.6547 3.66 16.9777 4.6915 18.0118 6.011 18.2749 6.189 18.3104 6.3871 18.3262 6.6599 18.3333" stroke="currentColor" stroke-linecap="round" stroke-linejoin="round" stroke-width="2"/>
  <path d="M10.4013 6.25V4.5833C10.4013 3.4129 10.4013 2.8278 10.1209 2.4074 9.9997 2.2254 9.8438 2.0692 9.6621 1.9476 9.2427 1.6667 8.6587 1.6667 7.4908 1.6667 6.3229 1.6667 5.739 1.6667 5.3195 1.9476 5.1379 2.0692 4.982 2.2254 4.8607 2.4074 4.5804 2.8278 4.5804 3.4129 4.5804 4.5833V6.25" stroke="currentColor" stroke-linecap="round" stroke-linejoin="round" stroke-width="2"/>
  <path d="M7.0836 3.75H7.917" stroke="currentColor" stroke-linecap="round" stroke-linejoin="round" stroke-width="2"/>
  <path d="M8.3368 16.7672L7.7131 16.8082 8.3368 16.7672ZM16.4271 15.7767L15.8825 16.0834 15.8894 16.0956 15.8968 16.1074 16.4271 15.7767ZM13.9712 11.6568L13.4409 11.9876 13.4428 11.9906 13.9712 11.6568ZM11.008 11.6568L10.4777 11.3261V11.3261L11.008 11.6568ZM9.0784 14.8608L8.5297 14.5615H8.5297L9.0784 14.8608ZM9.7633 13.6443L9.2236 13.3292V13.3292L9.7633 13.6443ZM15.2263 13.6443L15.7708 13.3376C15.7657 13.3284 15.7603 13.3194 15.7547 13.3105L15.2263 13.6443ZM13.1207 13.3227C13.1207 12.9775 12.8409 12.6977 12.4957 12.6977 12.1506 12.6977 11.8707 12.9775 11.8707 13.3227H12.4957 13.1207ZM11.8707 14.4052C11.8707 14.7503 12.1506 15.0302 12.4957 15.0302 12.8409 15.0302 13.1207 14.7503 13.1207 14.4052H12.4957 11.8707ZM12.5375 16.9486C12.8827 16.9486 13.1625 16.6688 13.1625 16.3236 13.1625 15.9784 12.8827 15.6986 12.5375 15.6986V16.3236 16.9486ZM12.4957 15.6986C12.1506 15.6986 11.8707 15.9784 11.8707 16.3236 11.8707 16.6688 12.1506 16.9486 12.4957 16.9486V16.3236 15.6986ZM14.9083 18.3333V17.7083H10.0005V18.3333 18.9583H14.9083V18.3333ZM10.0005 18.3333V17.7083C9.4234 17.7083 8.9952 17.2549 8.9604 16.7262L8.3368 16.7672 7.7131 16.8082C7.7872 17.9348 8.707 18.9583 10.0005 18.9583V18.3333ZM16.4271 15.7767L15.8968 16.1074C16.2968 16.7488 15.7916 17.7083 14.9083 17.7083V18.3333 18.9583C16.6408 18.9583 17.9451 17.0297 16.9574 15.446L16.4271 15.7767ZM13.9712 11.6568L14.5016 11.3261C13.5722 9.8357 11.4071 9.8357 10.4777 11.3261L11.008 11.6568 11.5383 11.9876C11.9784 11.2819 13.0008 11.2819 13.4409 11.9876L13.9712 11.6568ZM9.0784 14.8608L9.6271 15.1602C9.8215 14.8038 10.0572 14.3805 10.3031 13.9593L9.7633 13.6443 9.2236 13.3292C8.9698 13.7638 8.7279 14.1983 8.5297 14.5615L9.0784 14.8608ZM9.7633 13.6443L10.3031 13.9593C10.7525 13.1893 11.2312 12.48 11.5383 11.9876L11.008 11.6568 10.4777 11.3261C10.2063 11.7613 9.6818 12.544 9.2236 13.3292L9.7633 13.6443ZM13.9712 11.6568L13.4428 11.9906 14.6978 13.9779 15.2263 13.6443 15.7547 13.3105 14.4997 11.3231 13.9712 11.6568ZM15.2263 13.6443L14.6817 13.9509 15.8825 16.0834 16.4271 15.7767 16.9717 15.47 15.7708 13.3376 15.2263 13.6443ZM8.3368 16.7672L8.9604 16.7262C8.9477 16.5322 9.0026 16.3202 9.1306 16.0513 9.2744 15.7493 9.426 15.5287 9.6271 15.1602L9.0784 14.8608 8.5297 14.5615C8.3994 14.8004 8.1575 15.1874 8.002 15.5139 7.8307 15.8737 7.6805 16.3111 7.7131 16.8082L8.3368 16.7672ZM12.4957 13.3227H11.8707V14.4052H12.4957 13.1207V13.3227H12.4957ZM12.5792 16.3236H11.9542C11.9542 16.0253 12.1958 15.7821 12.4957 15.7821V16.4071 17.0321C12.8878 17.0321 13.2042 16.7141 13.2042 16.3236H12.5792ZM12.4957 16.4071V15.7821C12.7957 15.7821 13.0373 16.0253 13.0373 16.3236H12.4123 11.7873C11.7873 16.7141 12.1037 17.0321 12.4957 17.0321V16.4071ZM12.4123 16.3236H13.0373C13.0373 16.6218 12.7957 16.8651 12.4957 16.8651V16.2401 15.6151C12.1037 15.6151 11.7873 15.9331 11.7873 16.3236H12.4123ZM12.4957 16.2401V16.8651C12.1958 16.8651 11.9542 16.6218 11.9542 16.3236H12.5792 13.2042C13.2042 15.9331 12.8878 15.6151 12.4957 15.6151V16.2401ZM12.5375 16.3236V15.6986H12.4957V16.3236 16.9486H12.5375V16.3236Z" fill="currentColor"/>
</svg>
