<svg xmlns="http://www.w3.org/2000/svg" width="20" height="20" viewBox="0 0 20 20" fill="none">
  <path d="M5.8333 9.5833C5.8333 8.012 5.8333 7.2263 6.3215 6.7382 6.8096 6.25 7.5953 6.25 9.1667 6.25H10.8333C12.4047 6.25 13.1903 6.25 13.6785 6.7382 14.1667 7.2263 14.1667 8.012 14.1667 9.5833V14.1667C14.1667 14.9411 14.1667 15.3283 14.1026 15.6503 13.8396 16.9726 12.8059 18.0063 11.4837 18.2693 11.1617 18.3333 10.7744 18.3333 10 18.3333 9.2256 18.3333 8.8383 18.3333 8.5163 18.2693 7.1941 18.0063 6.1604 16.9726 5.8974 15.6503 5.8333 15.3283 5.8333 14.9411 5.8333 14.1667V9.5833Z" stroke="currentColor" stroke-linecap="round" stroke-linejoin="round" stroke-width="2"/>
  <path d="M12.9167 6.25V4.5833C12.9167 3.4129 12.9167 2.8278 12.6358 2.4074 12.5142 2.2254 12.3579 2.0692 12.1759 1.9476 11.7556 1.6667 11.1704 1.6667 10 1.6667 8.8296 1.6667 8.2444 1.6667 7.824 1.9476 7.6421 2.0692 7.4858 2.2254 7.3642 2.4074 7.0833 2.8278 7.0833 3.4129 7.0833 4.5833V6.25" stroke="currentColor" stroke-linecap="round" stroke-linejoin="round" stroke-width="2"/>
  <path d="M9.5833 3.75H10.4167" stroke="currentColor" stroke-linecap="round" stroke-linejoin="round" stroke-width="2"/>
</svg>
