<svg xmlns="http://www.w3.org/2000/svg" width="20" height="20" viewBox="0 0 20 20" fill="none">
  <path d="M3.3646 10.4489L8.3138 5.4998C9.4803 4.3333 10.0636 3.75 10.7883 3.75 11.5131 3.75 12.0964 4.3333 13.2629 5.4998L14.5002 6.7371C15.6668 7.9036 16.25 8.4869 16.25 9.2117 16.25 9.9364 15.6668 10.5198 14.5002 11.6863L9.5511 16.6354C7.8427 18.3438 5.0729 18.3438 3.3646 16.6354 1.6563 14.9271 1.6563 12.1573 3.3646 10.4489Z" stroke="currentColor" stroke-linecap="round" stroke-linejoin="round" stroke-width="2"/>
  <path d="M7.0833 14.1667C7.0833 13.4763 6.5237 12.9167 5.8333 12.9167 5.143 12.9167 4.5833 13.4763 4.5833 14.1667 4.5833 14.857 5.143 15.4167 5.8333 15.4167 6.5237 15.4167 7.0833 14.857 7.0833 14.1667Z" stroke="currentColor" stroke-width="2"/>
  <path d="M12.0833 4.4586L13.236 3.3059C14.0511 2.4909 14.4586 2.0833 14.965 2.0833 15.4714 2.0833 15.879 2.4909 16.6941 3.3059 17.5092 4.121 17.9167 4.5285 17.9167 5.035 17.9167 5.5414 17.5092 5.9489 16.6941 6.764L15.5414 7.9167" stroke="currentColor" stroke-linejoin="round" stroke-width="2"/>
</svg>
