<svg xmlns="http://www.w3.org/2000/svg" width="20" height="20" viewBox="0 0 20 20" fill="none">
  <path d="M10.845 17.8869C10.5343 18.0661 10.1915 18.1969 9.8268 18.2693 9.5043 18.3333 9.1164 18.3333 8.3407 18.3333 7.5648 18.3333 7.177 18.3333 6.8544 18.2693 5.5298 18.0063 4.4943 16.9726 4.2308 15.6503 4.1667 15.3283 4.1667 14.9411 4.1667 14.1667V9.5833C4.1667 8.012 4.1667 7.2263 4.6557 6.7382 5.1447 6.25 5.9317 6.25 7.5058 6.25H9.1754C10.7495 6.25 11.5366 6.25 12.0256 6.7382 12.3629 7.0749 12.4676 7.5532 12.5 8.3333" stroke="currentColor" stroke-linecap="round" stroke-linejoin="round" stroke-width="2"/>
  <path d="M15.8333 10.4167L10.8333 15.4167M15.8333 15.4167L10.8333 10.4167" stroke="currentColor" stroke-linecap="round" stroke-width="2"/>
  <path d="M11.25 6.25V4.5833C11.25 3.4129 11.25 2.8278 10.9691 2.4074 10.8475 2.2254 10.6913 2.0692 10.5093 1.9476 10.0889 1.6667 9.5038 1.6667 8.3333 1.6667 7.163 1.6667 6.5778 1.6667 6.1574 1.9476 5.9754 2.0692 5.8192 2.2254 5.6976 2.4074 5.4167 2.8278 5.4167 3.4129 5.4167 4.5833V6.25" stroke="currentColor" stroke-linecap="round" stroke-linejoin="round" stroke-width="2"/>
  <path d="M7.9167 3.75H8.75" stroke="currentColor" stroke-linecap="round" stroke-linejoin="round" stroke-width="2"/>
</svg>
