<svg xmlns="http://www.w3.org/2000/svg" width="20" height="20" viewBox="0 0 20 20" fill="none">
  <path d="M11.25 7.5186C15.2594 7.6392 18.3333 8.3312 18.3333 9.1667 18.3333 10.0872 14.6023 10.8333 10 10.8333 5.3976 10.8333 1.6667 10.0872 1.6667 9.1667 1.6667 8.3312 4.7406 7.6392 8.75 7.5186" stroke="currentColor" stroke-linecap="round" stroke-linejoin="round" stroke-width="2"/>
  <path d="M11.25 8.7313V6.6667C11.25 5.881 11.25 5.4882 11.4941 5.2441 11.7382 5 12.131 5 12.9167 5H15C15.3883 5 15.5824 5 15.7356 4.9366 15.9398 4.852 16.102 4.6898 16.1866 4.4856 16.25 4.3324 16.25 4.1383 16.25 3.75 16.25 3.3617 16.25 3.1676 16.1866 3.0144 16.102 2.8102 15.9398 2.648 15.7356 2.5634 15.5824 2.5 15.3883 2.5 15 2.5H5C4.6117 2.5 4.4176 2.5 4.2644 2.5634 4.0602 2.648 3.898 2.8102 3.8134 3.0144 3.75 3.1676 3.75 3.3617 3.75 3.75 3.75 4.1383 3.75 4.3324 3.8134 4.4856 3.898 4.6898 4.0602 4.852 4.2644 4.9366 4.4176 5 4.6117 5 5 5H7.0833C7.869 5 8.2618 5 8.5059 5.2441 8.75 5.4882 8.75 5.881 8.75 6.6667V8.7313M11.25 10.8147V16.25C11.25 16.6383 11.25 16.8324 11.1866 16.9856 11.102 17.1898 10.9398 17.352 10.7356 17.4366 10.5824 17.5 10.3882 17.5 10 17.5 9.6118 17.5 9.4176 17.5 9.2644 17.4366 9.0602 17.352 8.898 17.1898 8.8134 16.9856 8.75 16.8324 8.75 16.6383 8.75 16.25V10.8147" stroke="currentColor" stroke-linecap="round" stroke-linejoin="round" stroke-width="2"/>
</svg>
