<svg xmlns="http://www.w3.org/2000/svg" width="20" height="20" viewBox="0 0 20 20" fill="none">
  <path d="M13.3333 9.1667C13.3333 7.3257 11.8409 5.8333 10 5.8333 8.1591 5.8333 6.6667 7.3257 6.6667 9.1667 6.6667 11.0076 8.1591 12.5 10 12.5 11.8409 12.5 13.3333 11.0076 13.3333 9.1667Z" stroke="currentColor" stroke-linecap="round" stroke-linejoin="round" stroke-width="2"/>
  <path d="M4.2252 12.5C3.658 11.5194 3.3333 10.3809 3.3333 9.1667 3.3333 5.4848 6.3181 2.5 10 2.5 13.6819 2.5 16.6667 5.4848 16.6667 9.1667 16.6667 10.3809 16.342 11.5194 15.7748 12.5" stroke="currentColor" stroke-linecap="round" stroke-linejoin="round" stroke-width="2"/>
  <path d="M15 17.5C15 14.7386 12.7614 12.5 10 12.5 7.2386 12.5 5 14.7386 5 17.5" stroke="currentColor" stroke-linecap="round" stroke-linejoin="round" stroke-width="2"/>
</svg>
