<svg xmlns="http://www.w3.org/2000/svg" width="20" height="20" viewBox="0 0 20 20" fill="none">
  <path d="M10.8333 5.8333C10.8333 7.6743 9.3409 9.1667 7.5 9.1667 5.6591 9.1667 4.1667 7.6743 4.1667 5.8333 4.1667 3.9924 5.6591 2.5 7.5 2.5 9.3409 2.5 10.8333 3.9924 10.8333 5.8333Z" stroke="currentColor" stroke-width="2"/>
  <path d="M12.5 9.1667C14.3409 9.1667 15.8333 7.6743 15.8333 5.8333 15.8333 3.9924 14.3409 2.5 12.5 2.5" stroke="currentColor" stroke-linecap="round" stroke-linejoin="round" stroke-width="2"/>
  <path d="M9.1667 11.6667H5.8333C3.5322 11.6667 1.6667 13.5322 1.6667 15.8333 1.6667 16.7538 2.4129 17.5 3.3333 17.5H11.6667C12.5872 17.5 13.3333 16.7538 13.3333 15.8333 13.3333 13.5322 11.4678 11.6667 9.1667 11.6667Z" stroke="currentColor" stroke-linejoin="round" stroke-width="2"/>
  <path d="M14.1667 11.6667C16.4678 11.6667 18.3333 13.5322 18.3333 15.8333 18.3333 16.7538 17.5872 17.5 16.6667 17.5H15.4167" stroke="currentColor" stroke-linecap="round" stroke-linejoin="round" stroke-width="2"/>
</svg>
