<svg xmlns="http://www.w3.org/2000/svg" width="20" height="20" viewBox="0 0 20 20" fill="none">
  <path d="M12.0833 6.25C12.0833 3.9488 10.2178 2.0833 7.9167 2.0833 5.6155 2.0833 3.75 3.9488 3.75 6.25 3.75 8.5512 5.6155 10.4167 7.9167 10.4167 10.2178 10.4167 12.0833 8.5512 12.0833 6.25Z" stroke="currentColor" stroke-linecap="round" stroke-linejoin="round" stroke-width="2"/>
  <path d="M13.75 16.25C13.75 13.0283 11.1383 10.4167 7.9167 10.4167 4.695 10.4167 2.0833 13.0283 2.0833 16.25" stroke="currentColor" stroke-linecap="round" stroke-linejoin="round" stroke-width="2"/>
  <path d="M14.5833 7.5V6.25C14.5833 5.5596 15.143 5 15.8333 5 16.5237 5 17.0833 5.5596 17.0833 6.25V7.5" stroke="currentColor" stroke-linecap="round" stroke-linejoin="round" stroke-width="2"/>
  <path d="M14.5833 7.5H17.0833C17.5436 7.5 17.9167 7.8731 17.9167 8.3333V10C17.9167 10.4603 17.5436 10.8333 17.0833 10.8333H14.5833C14.1231 10.8333 13.75 10.4603 13.75 10V8.3333C13.75 7.8731 14.1231 7.5 14.5833 7.5Z" stroke="currentColor" stroke-linecap="round" stroke-linejoin="round" stroke-width="2"/>
</svg>
