<svg xmlns="http://www.w3.org/2000/svg" width="20" height="20" viewBox="0 0 20 20" fill="none">
  <path d="M12.0833 6.25C12.0833 3.9488 10.2178 2.0833 7.9167 2.0833 5.6155 2.0833 3.75 3.9488 3.75 6.25 3.75 8.5512 5.6155 10.4167 7.9167 10.4167 10.2178 10.4167 12.0833 8.5512 12.0833 6.25Z" stroke="currentColor" stroke-linecap="round" stroke-linejoin="round" stroke-width="2"/>
  <path d="M2.0833 16.25C2.0833 13.0283 4.695 10.4167 7.9167 10.4167 8.8113 10.4167 9.6589 10.6181 10.4167 10.978" stroke="currentColor" stroke-linecap="round" stroke-linejoin="round" stroke-width="2"/>
  <path d="M17.9167 14.1667V12.0833C16.25 12.0833 15 11.25 15 11.25 15 11.25 13.75 12.0833 12.0833 12.0833V14.1667C12.0833 17.0833 15 17.9167 15 17.9167 15 17.9167 17.9167 17.0833 17.9167 14.1667Z" stroke="currentColor" stroke-linecap="round" stroke-linejoin="round" stroke-width="2"/>
</svg>
