<svg xmlns="http://www.w3.org/2000/svg" width="20" height="20" viewBox="0 0 20 20" fill="none">
  <path d="M12.5 17.9168C13.6621 17.9168 14.2432 17.9168 14.7227 17.8017 16.2462 17.4358 17.4357 16.2463 17.8015 14.7228 17.9167 14.2432 17.9167 13.6622 17.9167 12.5001M7.5 17.9168C6.3379 17.9168 5.7568 17.9168 5.2773 17.8017 3.7538 17.4358 2.5642 16.2463 2.1985 14.7228 2.0833 14.2432 2.0833 13.6622 2.0833 12.5001M7.5 2.0834C6.3379 2.0834 5.7568 2.0834 5.2773 2.1986 3.7538 2.5643 2.5642 3.7539 2.1985 5.2774 2.0833 5.7569 2.0833 6.338 2.0833 7.5001M12.5 2.0834C13.6621 2.0834 14.2432 2.0834 14.7227 2.1986 16.2462 2.5643 17.4357 3.7539 17.8015 5.2774 17.9167 5.7569 17.9167 6.338 17.9167 7.5001" stroke="currentColor" stroke-linecap="round" stroke-linejoin="round" stroke-width="2"/>
  <path d="M12.5 7.9167C12.5 6.536 11.3808 5.4167 10 5.4167 8.6193 5.4167 7.5 6.536 7.5 7.9167 7.5 9.2974 8.6193 10.4167 10 10.4167 11.3808 10.4167 12.5 9.2974 12.5 7.9167Z" stroke="currentColor" stroke-linecap="round" stroke-linejoin="round" stroke-width="2"/>
  <path d="M14.1667 14.5833C14.1667 12.2822 12.3012 10.4167 10 10.4167 7.6988 10.4167 5.8333 12.2822 5.8333 14.5833" stroke="currentColor" stroke-linecap="round" stroke-linejoin="round" stroke-width="2"/>
</svg>
