<svg xmlns="http://www.w3.org/2000/svg" width="20" height="20" viewBox="0 0 20 20" fill="none">
  <path d="M11.6667 7.0833C11.6667 4.7821 9.8012 2.9167 7.5 2.9167 5.1988 2.9167 3.3333 4.7821 3.3333 7.0833 3.3333 9.3845 5.1988 11.25 7.5 11.25 9.8012 11.25 11.6667 9.3845 11.6667 7.0833Z" stroke="currentColor" stroke-linecap="round" stroke-linejoin="round" stroke-width="2"/>
  <path d="M13.3333 17.0833C13.3333 13.8617 10.7217 11.25 7.5 11.25 4.2783 11.25 1.6667 13.8617 1.6667 17.0833" stroke="currentColor" stroke-linecap="round" stroke-linejoin="round" stroke-width="2"/>
  <path d="M15.8333 12.0833C15.8333 12.0833 18.3333 10.9804 18.3333 9.1898 18.3333 8.4867 17.807 7.9167 17.0833 7.9167 16.4913 7.9167 16.0965 8.1618 15.8333 8.652 15.5702 8.1618 15.1754 7.9167 14.5833 7.9167 13.8597 7.9167 13.3333 8.4867 13.3333 9.1898 13.3333 10.9804 15.8333 12.0833 15.8333 12.0833Z" stroke="currentColor" stroke-linecap="round" stroke-linejoin="round" stroke-width="2"/>
</svg>
