<svg xmlns="http://www.w3.org/2000/svg" width="20" height="20" viewBox="0 0 20 20" fill="none">
  <path d="M12.9167 8.75C12.9167 7.1392 11.6108 5.8333 10 5.8333 8.3892 5.8333 7.0833 7.1392 7.0833 8.75 7.0833 10.3608 8.3892 11.6667 10 11.6667 11.6108 11.6667 12.9167 10.3608 12.9167 8.75Z" stroke="currentColor" stroke-linecap="round" stroke-linejoin="round" stroke-width="2"/>
  <path d="M18.3333 10C18.3333 5.3976 14.6023 1.6667 10 1.6667 5.3976 1.6667 1.6667 5.3976 1.6667 10 1.6667 14.6023 5.3976 18.3333 10 18.3333 14.6023 18.3333 18.3333 14.6023 18.3333 10Z" stroke="currentColor" stroke-linecap="round" stroke-linejoin="round" stroke-width="2"/>
  <path d="M15 16.6667C15 13.9053 12.7614 11.6667 10 11.6667 7.2386 11.6667 5 13.9053 5 16.6667" stroke="currentColor" stroke-linecap="round" stroke-linejoin="round" stroke-width="2"/>
</svg>
