<svg xmlns="http://www.w3.org/2000/svg" width="20" height="20" viewBox="0 0 20 20" fill="none">
  <path d="M14.1667 14.1667C13.0161 14.1667 12.0833 13.2339 12.0833 12.0833 12.0833 10.9328 13.0161 10 14.1667 10 15.3173 10 16.25 10.9328 16.25 12.0833 16.25 13.2339 15.3173 14.1667 14.1667 14.1667ZM14.1667 14.1667C16.2377 14.1667 17.9167 15.8456 17.9167 17.9167M14.1667 14.1667C12.0956 14.1667 10.4167 15.8456 10.4167 17.9167" stroke="currentColor" stroke-linecap="round" stroke-linejoin="round" stroke-width="2"/>
  <path d="M5.8333 6.25C4.6827 6.25 3.75 5.3173 3.75 4.1667 3.75 3.0161 4.6827 2.0833 5.8333 2.0833 6.9839 2.0833 7.9167 3.0161 7.9167 4.1667 7.9167 5.3173 6.9839 6.25 5.8333 6.25ZM5.8333 6.25C7.9044 6.25 9.5833 7.9289 9.5833 10M5.8333 6.25C3.7623 6.25 2.0833 7.9289 2.0833 10" stroke="currentColor" stroke-linecap="round" stroke-linejoin="round" stroke-width="2"/>
  <path d="M2.9167 12.9167C2.9167 15.2203 4.7798 17.0833 7.0833 17.0833L6.6667 15.4167" stroke="currentColor" stroke-linecap="round" stroke-linejoin="round" stroke-width="2"/>
  <path d="M15.4167 7.0833C15.4167 4.7798 13.5536 2.9167 11.25 2.9167L11.6667 4.5833" stroke="currentColor" stroke-linecap="round" stroke-linejoin="round" stroke-width="2"/>
</svg>
