<svg xmlns="http://www.w3.org/2000/svg" width="20" height="20" viewBox="0 0 20 20" fill="none">
  <path d="M18.3333 10C18.3333 14.6023 14.6023 18.3333 10 18.3333 5.3976 18.3333 1.6667 14.6023 1.6667 10 1.6667 5.3976 5.3976 1.6667 10 1.6667 14.6023 1.6667 18.3333 5.3976 18.3333 10Z" stroke="currentColor" stroke-width="2"/>
  <path d="M12.2917 7.9167C12.2917 9.1823 11.2657 10.2083 10 10.2083 8.7343 10.2083 7.7083 9.1823 7.7083 7.9167 7.7083 6.651 8.7343 5.625 10 5.625 11.2657 5.625 12.2917 6.651 12.2917 7.9167Z" stroke="currentColor" stroke-width="2"/>
  <path d="M4.5833 15.8334L5.0503 15.0162C5.7921 13.718 7.1727 12.9168 8.668 12.9168H11.3319C12.8272 12.9168 14.2077 13.718 14.9496 15.0162L15.4166 15.8334" stroke="currentColor" stroke-linecap="round" stroke-linejoin="round" stroke-width="2"/>
</svg>
