<svg xmlns="http://www.w3.org/2000/svg" width="20" height="20" viewBox="0 0 20 20" fill="none">
  <path d="M12.0833 6.6667C12.0833 4.3655 10.2178 2.5 7.9167 2.5 5.6155 2.5 3.75 4.3655 3.75 6.6667 3.75 8.9678 5.6155 10.8333 7.9167 10.8333 10.2178 10.8333 12.0833 8.9678 12.0833 6.6667Z" stroke="currentColor" stroke-linecap="round" stroke-linejoin="round" stroke-width="2"/>
  <path d="M2.0833 16.6667C2.0833 13.445 4.695 10.8333 7.9167 10.8333 8.8113 10.8333 9.6589 11.0348 10.4167 11.3947" stroke="currentColor" stroke-linecap="round" stroke-linejoin="round" stroke-width="2"/>
  <path d="M12.9583 12.5417L17.0417 16.625M17.9167 14.5833C17.9167 12.9725 16.6108 11.6667 15 11.6667 13.3892 11.6667 12.0833 12.9725 12.0833 14.5833 12.0833 16.1942 13.3892 17.5 15 17.5 16.6108 17.5 17.9167 16.1942 17.9167 14.5833Z" stroke="currentColor" stroke-linecap="round" stroke-linejoin="round" stroke-width="2"/>
</svg>
