<svg xmlns="http://www.w3.org/2000/svg" width="20" height="20" viewBox="0 0 20 20" fill="none">
  <path d="M9.5834 2.0833L10.4168 2.0833C13.9522 2.0834 15.72 2.0834 16.8183 3.1818 17.9167 4.2801 17.9167 6.0478 17.9167 9.5833V10.4168C17.9167 13.9522 17.9167 15.7201 16.8183 16.8184 15.72 17.9168 13.9522 17.9168 10.4167 17.9168H9.5833C6.0478 17.9168 4.28 17.9168 3.1817 16.8184 2.0833 15.7201 2.0833 13.9522 2.0833 10.4168V9.5833C2.0833 6.0478 2.0833 4.28 3.1817 3.1816 4.2801 2.0833 6.0478 2.0833 9.5834 2.0833Z" stroke="currentColor" stroke-linecap="round" stroke-linejoin="round" stroke-width="2"/>
  <path d="M9.9999 6.1625C11.6108 6.1625 12.9166 7.4684 12.9166 9.0792 12.9166 10.69 11.6108 11.9958 9.9999 11.9958 8.3891 11.9958 7.0832 10.69 7.0832 9.0792 7.0832 7.4684 8.3891 6.1625 9.9999 6.1625Z" stroke="currentColor" stroke-linecap="round" stroke-linejoin="round" stroke-width="2"/>
  <path d="M15.8186 17.4125C15.6049 14.3853 13.0815 11.9958 9.9999 11.9958 6.9183 11.9958 4.3949 14.3853 4.1812 17.4125" stroke="currentColor" stroke-linecap="round" stroke-linejoin="round" stroke-width="2"/>
</svg>
