<svg xmlns="http://www.w3.org/2000/svg" width="20" height="20" viewBox="0 0 20 20" fill="none">
  <path d="M11.6667 5C11.6667 6.841 10.1743 8.3333 8.3333 8.3333 6.4924 8.3333 5 6.841 5 5 5 3.1591 6.4924 1.6667 8.3333 1.6667 10.1743 1.6667 11.6667 3.1591 11.6667 5Z" stroke="currentColor" stroke-linecap="round" stroke-linejoin="round" stroke-width="2"/>
  <path d="M15.4167 15.8333L14.1667 15.3333V13.3333M10.8333 15C10.8333 16.8409 12.3258 18.3333 14.1667 18.3333 16.0076 18.3333 17.5 16.8409 17.5 15 17.5 13.1591 16.0076 11.6667 14.1667 11.6667 12.3258 11.6667 10.8333 13.1591 10.8333 15Z" stroke="currentColor" stroke-linecap="round" stroke-linejoin="round" stroke-width="2"/>
  <path d="M8.75 16.6667H4.1667C3.2462 16.6667 2.5 15.9205 2.5 15 2.5 12.6988 4.3655 10.8333 6.6667 10.8333H10.4167" stroke="currentColor" stroke-linecap="round" stroke-linejoin="round" stroke-width="2"/>
</svg>
