<svg xmlns="http://www.w3.org/2000/svg" width="20" height="20" viewBox="0 0 20 20" fill="none">
  <path d="M12.5 6.6667C12.5 8.0474 11.3808 9.1667 10 9.1667 8.6193 9.1667 7.5 8.0474 7.5 6.6667 7.5 5.286 8.6193 4.1667 10 4.1667 11.3808 4.1667 12.5 5.286 12.5 6.6667Z" stroke="currentColor" stroke-linecap="round" stroke-linejoin="round" stroke-width="2"/>
  <path d="M13.3333 3.3333C14.7141 3.3333 15.8333 4.4526 15.8333 5.8333 15.8333 6.8526 15.2234 7.7294 14.3486 8.1186" stroke="currentColor" stroke-linecap="round" stroke-linejoin="round" stroke-width="2"/>
  <path d="M11.4286 11.6667H8.5714C6.599 11.6667 5 13.2657 5 15.2381 5 16.0271 5.6396 16.6667 6.4286 16.6667H13.5714C14.3604 16.6667 15 16.0271 15 15.2381 15 13.2657 13.401 11.6667 11.4286 11.6667Z" stroke="currentColor" stroke-linecap="round" stroke-linejoin="round" stroke-width="2"/>
  <path d="M14.7619 10.8333C16.7343 10.8333 18.3333 12.4323 18.3333 14.4047 18.3333 15.1938 17.6938 15.8333 16.9047 15.8333" stroke="currentColor" stroke-linecap="round" stroke-linejoin="round" stroke-width="2"/>
  <path d="M6.6667 3.3333C5.286 3.3333 4.1667 4.4526 4.1667 5.8333 4.1667 6.8526 4.7766 7.7294 5.6514 8.1186" stroke="currentColor" stroke-linecap="round" stroke-linejoin="round" stroke-width="2"/>
  <path d="M3.0952 15.8333C2.3063 15.8333 1.6667 15.1938 1.6667 14.4047 1.6667 12.4323 3.2656 10.8333 5.2381 10.8333" stroke="currentColor" stroke-linecap="round" stroke-linejoin="round" stroke-width="2"/>
</svg>
