<svg xmlns="http://www.w3.org/2000/svg" width="20" height="20" viewBox="0 0 20 20" fill="none">
  <path d="M12.5 4.1667C12.5 5.5474 11.0348 7.0833 10 7.0833 8.9652 7.0833 7.5 5.5474 7.5 4.1667 7.5 2.786 8.6193 1.6667 10 1.6667 11.3808 1.6667 12.5 2.786 12.5 4.1667Z" stroke="currentColor" stroke-width="2"/>
  <path d="M13.3679 7.5C14.6371 8.6128 15.4595 10.4974 14.721 12.2543 14.5618 12.6328 14.1968 12.8783 13.7928 12.8783 13.3821 12.8783 12.7075 12.7467 12.5764 13.2812L11.6621 17.0102C11.4714 17.7878 10.7862 18.3333 10.0001 18.3333 9.2139 18.3333 8.5287 17.7878 8.338 17.0102L7.4237 13.2812C7.2926 12.7467 6.618 12.8783 6.2072 12.8783 5.8033 12.8783 5.4382 12.6328 5.2791 12.2543 4.5406 10.4974 5.363 8.6128 6.6322 7.5" stroke="currentColor" stroke-linecap="round" stroke-width="2"/>
</svg>
