<svg xmlns="http://www.w3.org/2000/svg" width="20" height="20" viewBox="0 0 20 20" fill="none">
  <path d="M16.2547 15.7801C17.9598 14.2253 13.8208 12.1303 13.8208 12.1303 12.9718 11.7176 11.6982 11.2503 10 11.25 8.3019 11.2503 7.0283 11.7181 6.1792 12.1309 6.1792 12.1309 2.0402 14.2258 3.7453 15.7807 4.5783 16.5402 5.506 17.0833 6.6723 17.0833L13.3277 17.0828C14.494 17.0828 15.4218 16.5396 16.2547 15.7801Z" stroke="currentColor" stroke-linecap="round" stroke-linejoin="round" stroke-width="2"/>
  <path d="M12.9167 5.8333C12.9167 7.4442 11.6108 8.75 10 8.75 8.3892 8.75 7.0833 7.4442 7.0833 5.8333 7.0833 4.2225 8.3892 2.9167 10 2.9167 11.6108 2.9167 12.9167 4.2225 12.9167 5.8333Z" stroke="currentColor" stroke-linecap="round" stroke-linejoin="round" stroke-width="2"/>
  <path d="M15.8333 4.1667V7.5" stroke="currentColor" stroke-linecap="round" stroke-linejoin="round" stroke-width="2"/>
  <path d="M15.8333 10V10.0083" stroke="currentColor" stroke-linecap="round" stroke-linejoin="round" stroke-width="2"/>
</svg>
