<svg xmlns="http://www.w3.org/2000/svg" width="20" height="20" viewBox="0 0 20 20" fill="none">
  <path d="M12.0833 6.25C12.0833 3.9488 10.2178 2.0833 7.9167 2.0833 5.6155 2.0833 3.75 3.9488 3.75 6.25 3.75 8.5512 5.6155 10.4167 7.9167 10.4167 10.2178 10.4167 12.0833 8.5512 12.0833 6.25Z" stroke="currentColor" stroke-linecap="round" stroke-linejoin="round" stroke-width="2"/>
  <path d="M2.0833 16.25C2.0833 13.0283 4.695 10.4167 7.9167 10.4167 8.8113 10.4167 9.6589 10.6181 10.4167 10.978" stroke="currentColor" stroke-linecap="round" stroke-linejoin="round" stroke-width="2"/>
  <path d="M15 16.6667C15.7744 16.6667 16.4502 16.2442 16.8092 15.617M15 16.6667C14.2256 16.6667 13.5498 16.2442 13.1908 15.617M15 16.6667L15 17.9167M15 12.5C15.7743 12.5 16.45 12.9224 16.8091 13.5494M15 12.5C14.2257 12.5 13.55 12.9224 13.1909 13.5494M15 12.5L15 11.25M17.9167 12.9165L16.8091 13.5494M12.0833 16.2498L13.1908 15.617M17.9167 16.2498L16.8092 15.617M12.0833 12.9165L13.1909 13.5494M16.8091 13.5494C16.9836 13.8541 17.0833 14.2071 17.0833 14.5833 17.0833 14.9595 16.9837 15.3124 16.8092 15.617M13.1908 15.617C13.0163 15.3124 12.9167 14.9595 12.9167 14.5833 12.9167 14.2071 13.0164 13.8541 13.1909 13.5494" stroke="currentColor" stroke-linecap="round" stroke-linejoin="round" stroke-width="2"/>
</svg>
