<svg xmlns="http://www.w3.org/2000/svg" width="20" height="20" viewBox="0 0 20 20" fill="none">
  <path d="M12.9167 9.1667C12.9167 7.5558 11.6108 6.25 10 6.25 8.3892 6.25 7.0833 7.5558 7.0833 9.1667 7.0833 10.7775 8.3892 12.0833 10 12.0833 11.6108 12.0833 12.9167 10.7775 12.9167 9.1667Z" stroke="currentColor" stroke-linecap="round" stroke-linejoin="round" stroke-width="2"/>
  <path d="M12.9023 9.4582C13.1706 9.5396 13.4552 9.5833 13.75 9.5833 15.3608 9.5833 16.6667 8.2775 16.6667 6.6667 16.6667 5.0558 15.3608 3.75 13.75 3.75 12.2376 3.75 10.994 4.9012 10.8478 6.3751" stroke="currentColor" stroke-linecap="round" stroke-linejoin="round" stroke-width="2"/>
  <path d="M9.1523 6.3751C9.006 4.9012 7.7624 3.75 6.25 3.75 4.6392 3.75 3.3333 5.0558 3.3333 6.6667 3.3333 8.2775 4.6392 9.5833 6.25 9.5833 6.5448 9.5833 6.8295 9.5396 7.0977 9.4582" stroke="currentColor" stroke-linecap="round" stroke-linejoin="round" stroke-width="2"/>
  <path d="M18.3333 13.75C18.3333 11.4488 16.2813 9.5833 13.75 9.5833" stroke="currentColor" stroke-linecap="round" stroke-linejoin="round" stroke-width="2"/>
  <path d="M14.5833 16.25C14.5833 13.9488 12.5313 12.0833 10 12.0833 7.4687 12.0833 5.4167 13.9488 5.4167 16.25" stroke="currentColor" stroke-linecap="round" stroke-linejoin="round" stroke-width="2"/>
  <path d="M6.25 9.5833C3.7187 9.5833 1.6667 11.4488 1.6667 13.75" stroke="currentColor" stroke-linecap="round" stroke-linejoin="round" stroke-width="2"/>
</svg>
