<svg xmlns="http://www.w3.org/2000/svg" width="20" height="20" viewBox="0 0 20 20" fill="none">
  <path d="M11.6667 6.25C11.6667 3.9488 9.8012 2.0833 7.5 2.0833 5.1988 2.0833 3.3333 3.9488 3.3333 6.25 3.3333 8.5512 5.1988 10.4167 7.5 10.4167 9.8012 10.4167 11.6667 8.5512 11.6667 6.25Z" stroke="currentColor" stroke-linecap="round" stroke-linejoin="round" stroke-width="2"/>
  <path d="M13.3333 16.25C13.3333 13.0283 10.7217 10.4167 7.5 10.4167 4.2783 10.4167 1.6667 13.0283 1.6667 16.25" stroke="currentColor" stroke-linecap="round" stroke-linejoin="round" stroke-width="2"/>
  <path d="M15.8333 10.8333L15.8333 12.0833M15.8333 10.8333C16.4475 10.8333 16.9841 10.5011 17.2732 10.0066M15.8333 10.8333C15.2192 10.8333 14.6826 10.5011 14.3935 10.0066M15.8333 7.5L15.8333 6.25M15.8333 7.5C16.4475 7.5 16.9841 7.8322 17.2732 8.3267M15.8333 7.5C15.2192 7.5 14.6826 7.8322 14.3935 8.3267M18.3333 7.7083L17.2732 8.3267M13.3333 10.625L14.3935 10.0066M18.3333 10.625L17.2732 10.0066M13.3333 7.7083L14.3935 8.3267M17.2732 10.0066C17.4174 9.7599 17.5 9.473 17.5 9.1667 17.5 8.8603 17.4174 8.5733 17.2732 8.3267M14.3935 8.3267C14.2493 8.5733 14.1667 8.8603 14.1667 9.1667 14.1667 9.473 14.2492 9.76 14.3935 10.0066" stroke="currentColor" stroke-linecap="round" stroke-linejoin="round" stroke-width="2"/>
</svg>
