<svg xmlns="http://www.w3.org/2000/svg" width="20" height="20" viewBox="0 0 20 20" fill="none">
  <path d="M12.085 6.6667C12.085 4.3655 10.2196 2.5 7.9184 2.5 5.6172 2.5 3.7517 4.3655 3.7517 6.6667 3.7517 8.9678 5.6172 10.8333 7.9184 10.8333 10.2196 10.8333 12.085 8.9678 12.085 6.6667Z" stroke="currentColor" stroke-linecap="round" stroke-linejoin="round" stroke-width="2"/>
  <path d="M13.5313 13.0623V11.8769C13.5313 11.0704 14.185 10.4167 14.9915 10.4167 15.3891 10.4167 15.7496 10.5756 16.0129 10.8333M13.5892 17.5H16.4108C17.2416 17.5 17.915 16.8278 17.915 15.9987V14.7456C17.915 13.9164 17.2416 13.2443 16.4108 13.2443H13.5892C12.7585 13.2443 12.085 13.9164 12.085 14.7456L12.085 15.9987C12.085 16.8278 12.7585 17.5 13.5892 17.5Z" stroke="currentColor" stroke-linecap="round" stroke-linejoin="round" stroke-width="2"/>
  <path d="M2.085 16.6667C2.085 13.445 4.6967 10.8333 7.9184 10.8333 9.1578 10.8333 10.3068 11.2198 11.2517 11.8789" stroke="currentColor" stroke-linecap="round" stroke-linejoin="round" stroke-width="2"/>
</svg>
