<svg xmlns="http://www.w3.org/2000/svg" width="20" height="20" viewBox="0 0 20 20" fill="none">
  <path d="M11.6667 7.0833C11.6667 4.7821 9.8012 2.9167 7.5 2.9167 5.1988 2.9167 3.3333 4.7821 3.3333 7.0833 3.3333 9.3845 5.1988 11.25 7.5 11.25 9.8012 11.25 11.6667 9.3845 11.6667 7.0833Z" stroke="currentColor" stroke-linecap="round" stroke-linejoin="round" stroke-width="2"/>
  <path d="M13.3333 17.0833C13.3333 13.8617 10.7217 11.25 7.5 11.25 4.2783 11.25 1.6667 13.8617 1.6667 17.0833" stroke="currentColor" stroke-linecap="round" stroke-linejoin="round" stroke-width="2"/>
  <path d="M16.2653 7.4444L16.7052 8.3316C16.7652 8.4551 16.9252 8.5735 17.0602 8.5962L17.8576 8.7298C18.3675 8.8155 18.4875 9.1885 18.12 9.5564L17.5001 10.1815C17.3951 10.2873 17.3376 10.4915 17.3701 10.6377L17.5476 11.4114C17.6876 12.0239 17.3651 12.2608 16.8277 11.9408L16.0802 11.4947C15.9452 11.414 15.7228 11.414 15.5853 11.4947L14.8379 11.9408C14.303 12.2608 13.978 12.0214 14.118 11.4114L14.2955 10.6377C14.3279 10.4915 14.2705 10.2873 14.1655 10.1815L13.5456 9.5564C13.1806 9.1885 13.2981 8.8155 13.808 8.7298L14.6054 8.5962C14.7379 8.5735 14.8979 8.4551 14.9579 8.3316L15.3978 7.4444C15.6378 6.963 16.0278 6.963 16.2653 7.4444Z" stroke="currentColor" stroke-linecap="round" stroke-linejoin="round" stroke-width="2"/>
</svg>
