<svg xmlns="http://www.w3.org/2000/svg" width="20" height="20" viewBox="0 0 20 20" fill="none">
  <path d="M12.5 6.25C12.5 3.9488 10.6345 2.0833 8.3333 2.0833 6.0321 2.0833 4.1667 3.9488 4.1667 6.25 4.1667 8.5512 6.0321 10.4167 8.3333 10.4167 10.6345 10.4167 12.5 8.5512 12.5 6.25Z" stroke="currentColor" stroke-linecap="round" stroke-linejoin="round" stroke-width="2"/>
  <path d="M17.5 17.9167L16.25 16.6667M16.6667 14.5833C16.6667 13.2026 15.5474 12.0833 14.1667 12.0833 12.7859 12.0833 11.6667 13.2026 11.6667 14.5833 11.6667 15.9641 12.7859 17.0833 14.1667 17.0833 15.5474 17.0833 16.6667 15.9641 16.6667 14.5833Z" stroke="currentColor" stroke-linecap="round" stroke-linejoin="round" stroke-width="2"/>
  <path d="M2.5 16.25C2.5 13.0283 5.1117 10.4167 8.3333 10.4167 9.228 10.4167 10.0756 10.6181 10.8333 10.978" stroke="currentColor" stroke-linecap="round" stroke-linejoin="round" stroke-width="2"/>
</svg>
