<svg xmlns="http://www.w3.org/2000/svg" width="20" height="20" viewBox="0 0 20 20" fill="none">
  <path d="M10.8333 9.1667C10.8333 7.3257 9.3409 5.8333 7.5 5.8333 5.6591 5.8333 4.1667 7.3257 4.1667 9.1667 4.1667 11.0076 5.6591 12.5 7.5 12.5 9.3409 12.5 10.8333 11.0076 10.8333 9.1667Z" stroke="currentColor" stroke-linecap="round" stroke-linejoin="round" stroke-width="2"/>
  <path d="M9.1988 6.2981C9.1776 6.1462 9.1667 5.9911 9.1667 5.8333 9.1667 3.9924 10.6591 2.5 12.5 2.5 14.3409 2.5 15.8333 3.9924 15.8333 5.8333 15.8333 7.6743 14.3409 9.1667 12.5 9.1667 11.8795 9.1667 11.2987 8.9972 10.8012 8.7019" stroke="currentColor" stroke-linecap="round" stroke-linejoin="round" stroke-width="2"/>
  <path d="M12.5 17.5C12.5 14.7386 10.2614 12.5 7.5 12.5 4.7386 12.5 2.5 14.7386 2.5 17.5" stroke="currentColor" stroke-linecap="round" stroke-linejoin="round" stroke-width="2"/>
  <path d="M17.5 14.1667C17.5 11.4053 15.2614 9.1667 12.5 9.1667" stroke="currentColor" stroke-linecap="round" stroke-linejoin="round" stroke-width="2"/>
</svg>
