<svg xmlns="http://www.w3.org/2000/svg" width="20" height="20" viewBox="0 0 20 20" fill="none">
  <path d="M12.5 6.6667C12.5 4.3655 10.6345 2.5 8.3333 2.5 6.0321 2.5 4.1667 4.3655 4.1667 6.6667 4.1667 8.9678 6.0321 10.8333 8.3333 10.8333 10.6345 10.8333 12.5 8.9678 12.5 6.6667Z" stroke="currentColor" stroke-linecap="round" stroke-linejoin="round" stroke-width="2"/>
  <path d="M2.5 16.6667C2.5 13.445 5.1117 10.8333 8.3333 10.8333 9.3958 10.8333 10.392 11.1174 11.25 11.6138" stroke="currentColor" stroke-linecap="round" stroke-linejoin="round" stroke-width="2"/>
  <path d="M15.0873 12.0879L15.6005 13.1229C15.6705 13.267 15.8572 13.4052 16.0146 13.4317L16.9449 13.5875C17.5398 13.6875 17.6798 14.1227 17.2512 14.552L16.5279 15.2812C16.4054 15.4047 16.3383 15.6429 16.3762 15.8134L16.5833 16.7162C16.7467 17.4307 16.3704 17.7071 15.7434 17.3337L14.8714 16.8132C14.7139 16.7191 14.4544 16.7191 14.294 16.8132L13.422 17.3337C12.7979 17.7071 12.4188 17.4277 12.5821 16.7162L12.7892 15.8134C12.8271 15.6429 12.76 15.4047 12.6375 15.2812L11.9143 14.552C11.4884 14.1227 11.6255 13.6875 12.2205 13.5875L13.1508 13.4317C13.3053 13.4052 13.492 13.267 13.562 13.1229L14.0753 12.0879C14.3552 11.5263 14.8102 11.5263 15.0873 12.0879Z" stroke="currentColor" stroke-linecap="round" stroke-linejoin="round" stroke-width="2"/>
</svg>
