<svg xmlns="http://www.w3.org/2000/svg" width="20" height="20" viewBox="0 0 20 20" fill="none">
  <path d="M12.0833 7.0833C12.0833 4.7821 10.2178 2.9167 7.9167 2.9167 5.6155 2.9167 3.75 4.7821 3.75 7.0833 3.75 9.3845 5.6155 11.25 7.9167 11.25 10.2178 11.25 12.0833 9.3845 12.0833 7.0833Z" stroke="currentColor" stroke-linecap="round" stroke-linejoin="round" stroke-width="2"/>
  <path d="M13.75 17.0833C13.75 13.8617 11.1383 11.25 7.9167 11.25 4.695 11.25 2.0833 13.8617 2.0833 17.0833" stroke="currentColor" stroke-linecap="round" stroke-linejoin="round" stroke-width="2"/>
  <path d="M14.5833 8.2051C14.5833 7.3555 15.3295 6.6667 16.25 6.6667 17.1705 6.6667 17.9167 7.3555 17.9167 8.2051 17.9167 8.5114 17.8198 8.7968 17.6526 9.0365 17.1545 9.751 16.25 10.0158 16.25 10.8654V11.25M16.2418 13.3333H16.2493" stroke="currentColor" stroke-linecap="round" stroke-linejoin="round" stroke-width="2"/>
</svg>
