<svg xmlns="http://www.w3.org/2000/svg" width="20" height="20" viewBox="0 0 20 20" fill="none">
  <path d="M12.0833 6.6667C12.0833 4.3655 10.2178 2.5 7.9167 2.5 5.6155 2.5 3.75 4.3655 3.75 6.6667 3.75 8.9678 5.6155 10.8333 7.9167 10.8333 10.2178 10.8333 12.0833 8.9678 12.0833 6.6667Z" stroke="currentColor" stroke-linecap="round" stroke-linejoin="round" stroke-width="2"/>
  <path d="M2.0833 16.6667C2.0833 13.445 4.695 10.8333 7.9167 10.8333 8.9792 10.8333 9.9753 11.1174 10.8333 11.6138" stroke="currentColor" stroke-linecap="round" stroke-linejoin="round" stroke-width="2"/>
  <path d="M12.9167 12.3718C12.9167 11.5222 13.6628 10.8333 14.5833 10.8333 15.5038 10.8333 16.25 11.5222 16.25 12.3718 16.25 12.6781 16.1531 12.9634 15.9859 13.2032 15.4878 13.9177 14.5833 14.1824 14.5833 15.0321V15.4167M14.5752 17.5H14.5827" stroke="currentColor" stroke-linecap="round" stroke-linejoin="round" stroke-width="2"/>
</svg>
