<svg xmlns="http://www.w3.org/2000/svg" width="20" height="20" viewBox="0 0 20 20" fill="none">
  <path d="M12.9167 6.6667C12.9167 4.3655 11.0512 2.5 8.75 2.5 6.4488 2.5 4.5833 4.3655 4.5833 6.6667 4.5833 8.9678 6.4488 10.8333 8.75 10.8333 11.0512 10.8333 12.9167 8.9678 12.9167 6.6667Z" stroke="currentColor" stroke-linecap="round" stroke-linejoin="round" stroke-width="2"/>
  <path d="M2.9167 16.6667C2.9167 13.445 5.5283 10.8333 8.75 10.8333 9.8125 10.8333 10.8087 11.1174 11.6667 11.6138" stroke="currentColor" stroke-linecap="round" stroke-linejoin="round" stroke-width="2"/>
  <path d="M16.8239 12.4449L16.3051 11.9261C15.9592 11.5802 15.3983 11.5802 15.0524 11.9261L12.2618 14.7168C11.8908 15.0877 11.638 15.5602 11.5351 16.0746L11.25 17.5 12.6754 17.2149C13.1898 17.112 13.6623 16.8592 14.0333 16.4883L16.8239 13.6976C17.1698 13.3517 17.1698 12.7908 16.8239 12.4449Z" stroke="currentColor" stroke-linecap="round" stroke-linejoin="round" stroke-width="2"/>
</svg>
