<svg xmlns="http://www.w3.org/2000/svg" width="20" height="20" viewBox="0 0 20 20" fill="none">
  <path d="M12.5 2.0482C11.7108 1.8003 10.871 1.6667 10 1.6667 5.3976 1.6667 1.6667 5.3976 1.6667 10 1.6667 14.6023 5.3976 18.3333 10 18.3333 14.6023 18.3333 18.3333 14.6023 18.3333 10 18.3333 9.129 18.1997 8.2892 17.9518 7.5" stroke="currentColor" stroke-linecap="round" stroke-linejoin="round" stroke-width="2"/>
  <path d="M12.5 8.3333C12.5 9.7141 11.3808 10.8333 10 10.8333 8.6193 10.8333 7.5 9.7141 7.5 8.3333 7.5 6.9526 8.6193 5.8333 10 5.8333 11.3808 5.8333 12.5 6.9526 12.5 8.3333Z" stroke="currentColor" stroke-linecap="round" stroke-linejoin="round" stroke-width="2"/>
  <path d="M4.5833 16.2501L5.0503 15.4328C5.7921 14.1347 7.1727 13.3334 8.668 13.3334H11.3319C12.8272 13.3334 14.2077 14.1347 14.9496 15.4328L15.4166 16.2501" stroke="currentColor" stroke-linecap="round" stroke-linejoin="round" stroke-width="2"/>
  <path d="M15.8114 1.6846C15.8163 1.6607 15.8504 1.6607 15.8552 1.6846 16.1085 2.9234 17.0766 3.8915 18.3154 4.1447 18.3393 4.1496 18.3393 4.1837 18.3154 4.1886 17.0766 4.4418 16.1085 5.4099 15.8552 6.6488 15.8504 6.6726 15.8163 6.6726 15.8114 6.6488 15.5582 5.4099 14.5901 4.4418 13.3513 4.1886 13.3273 4.1837 13.3273 4.1496 13.3513 4.1447 14.5901 3.8915 15.5582 2.9234 15.8114 1.6846Z" stroke="currentColor" stroke-linecap="round" stroke-linejoin="round" stroke-width="2"/>
</svg>
