<svg xmlns="http://www.w3.org/2000/svg" width="20" height="20" viewBox="0 0 20 20" fill="none">
  <path d="M15.8665 8.6399C14.9376 8.1613 14.8002 7.7816 15.1099 6.8135 15.2728 6.3043 15.7645 5.3265 15.3954 4.8061 14.9113 4.1235 13.7823 4.6992 13.1864 4.8899 12.1912 5.2084 11.8255 5.037 11.3599 4.1334 11.0931 3.6154 10.7334 2.5001 9.9998 2.5001 9.2662 2.5001 8.9065 3.6154 8.6397 4.1334 8.1741 5.037 7.8085 5.2084 6.8132 4.8899 6.2172 4.6992 5.0883 4.1235 4.6042 4.8061 4.2351 5.3265 4.7267 6.3043 4.8897 6.8135 5.1994 7.7816 5.062 8.1613 4.1331 8.6399 3.6152 8.9068 2.4999 9.2664 2.4998 10 2.4997 10.7337 3.6151 11.0933 4.1331 11.3603 5.062 11.8388 5.1994 12.2186 4.8897 13.1867 4.7119 13.7422 4.177 14.7862 4.6978 15.3047 5.2168 15.8214 6.2588 15.2876 6.8132 15.1102 7.8085 14.7918 8.1741 14.9632 8.6397 15.8667 8.9065 16.3848 9.2662 17.5001 9.9998 17.5001 10.7334 17.5001 11.0931 16.3848 11.3599 15.8667 11.8255 14.9632 12.1912 14.7918 13.1864 15.1102 13.7408 15.2876 14.7828 15.8214 15.3018 15.3047 15.8226 14.7862 15.2877 13.7422 15.1099 13.1867 14.8002 12.2186 14.9376 11.8388 15.8665 11.3603 16.3845 11.0933 17.4999 10.7337 17.4998 10 17.4998 9.2664 16.3844 8.9068 15.8665 8.6399Z" stroke="currentColor" stroke-width="2"/>
</svg>
