<svg xmlns="http://www.w3.org/2000/svg" width="20" height="20" viewBox="0 0 20 20" fill="none">
  <path d="M10 2.5V3.75" stroke="currentColor" stroke-linecap="round" stroke-width="2"/>
  <path d="M14.1667 10.8333C14.1667 8.5322 12.3012 6.6667 10 6.6667 7.6988 6.6667 5.8333 8.5322 5.8333 10.8333" stroke="currentColor" stroke-linecap="round" stroke-width="2"/>
  <path d="M4.9902 5.8244L4.1063 4.9405" stroke="currentColor" stroke-linecap="round" stroke-width="2"/>
  <path d="M18.3333 10.8333L17.0833 10.8333" stroke="currentColor" stroke-linecap="round" stroke-width="2"/>
  <path d="M2.9167 10.8333L1.6667 10.8333" stroke="currentColor" stroke-linecap="round" stroke-width="2"/>
  <path d="M15.8919 4.9406L15.0081 5.8245" stroke="currentColor" stroke-linecap="round" stroke-width="2"/>
  <path d="M5.4167 13.3333V15.8333C5.4167 16.619 5.4167 17.0118 5.6607 17.2559 5.9048 17.5 6.2977 17.5 7.0833 17.5 7.869 17.5 8.2618 17.5 8.5059 17.2559 8.75 17.0118 8.75 16.619 8.75 15.8333V13.3333" stroke="currentColor" stroke-linecap="round" stroke-width="2"/>
  <path d="M11.25 13.3333L12.9167 17.5 14.5833 13.3333" stroke="currentColor" stroke-linecap="round" stroke-linejoin="round" stroke-width="2"/>
</svg>
