<svg xmlns="http://www.w3.org/2000/svg" width="20" height="20" viewBox="0 0 20 20" fill="none">
  <path d="M13.7533 10.8333C13.7533 8.5322 11.8878 6.6667 9.5866 6.6667 7.2854 6.6667 5.4199 8.5322 5.4199 10.8333" stroke="currentColor" stroke-linecap="round" stroke-linejoin="round" stroke-width="2"/>
  <path d="M5.0033 13.3333V15.8333C5.0033 16.619 5.0033 17.0118 5.2473 17.2559 5.4914 17.5 5.8842 17.5 6.6699 17.5 7.4556 17.5 7.8484 17.5 8.0925 17.2559 8.3366 17.0118 8.3366 16.619 8.3366 15.8333V13.3333" stroke="currentColor" stroke-linecap="round" stroke-width="2"/>
  <path d="M10.8366 13.3333L12.5032 17.5 14.1699 13.3333" stroke="currentColor" stroke-linecap="round" stroke-linejoin="round" stroke-width="2"/>
  <path d="M9.6905 3.5417H9.5863M16.8783 10.9375V10.8333M2.2949 10.9375V10.8333M14.8159 5.7508L14.7423 5.6772M4.3568 5.751L4.4305 5.6774M9.7947 3.5417C9.7947 3.6567 9.7014 3.75 9.5863 3.75 9.4713 3.75 9.378 3.6567 9.378 3.5417 9.378 3.4266 9.4713 3.3333 9.5863 3.3333 9.7014 3.3333 9.7947 3.4266 9.7947 3.5417ZM16.8783 11.0417C16.7632 11.0417 16.6699 10.9484 16.6699 10.8333 16.6699 10.7183 16.7632 10.625 16.8783 10.625 16.9933 10.625 17.0866 10.7183 17.0866 10.8333 17.0866 10.9484 16.9933 11.0417 16.8783 11.0417ZM2.2949 11.0417C2.1799 11.0417 2.0866 10.9484 2.0866 10.8333 2.0866 10.7183 2.1799 10.625 2.2949 10.625 2.41 10.625 2.5033 10.7183 2.5033 10.8333 2.5033 10.9484 2.41 11.0417 2.2949 11.0417ZM14.8896 5.8245C14.8083 5.9058 14.6763 5.9058 14.595 5.8245 14.5136 5.7431 14.5136 5.6112 14.595 5.5298 14.6763 5.4485 14.8083 5.4485 14.8896 5.5298 14.9709 5.6112 14.9709 5.7431 14.8896 5.8245ZM4.2832 5.8247C4.2018 5.7433 4.2018 5.6114 4.2832 5.53 4.3645 5.4487 4.4964 5.4487 4.5778 5.53 4.6592 5.6114 4.6592 5.7433 4.5778 5.8247 4.4964 5.906 4.3645 5.906 4.2832 5.8247Z" stroke="currentColor" stroke-linecap="round" stroke-linejoin="round" stroke-width="2"/>
</svg>
