<svg xmlns="http://www.w3.org/2000/svg" width="20" height="20" viewBox="0 0 20 20" fill="none">
  <path d="M14.1667 1.6667C14.1667 2.0916 14.1667 2.304 14.2231 2.502 14.2541 2.6107 14.2975 2.7155 14.3525 2.8144 14.4526 2.9942 14.6028 3.1445 14.9033 3.4449L16.5551 5.0968C16.8555 5.3972 17.0058 5.5474 17.1857 5.6475 17.2845 5.7025 17.3893 5.7459 17.498 5.7769 17.696 5.8333 17.9084 5.8333 18.3333 5.8333" stroke="currentColor" stroke-linecap="round" stroke-linejoin="round" stroke-width="2"/>
  <path d="M9.7442 5.8333L5.6377 9.9398C4.7504 10.8272 4.3068 11.2708 4.201 11.8025 4.1552 12.0326 4.1552 12.2695 4.201 12.4997 4.3068 13.0313 4.7504 13.475 5.6377 14.3623 6.525 15.2496 6.9687 15.6933 7.5003 15.799" stroke="currentColor" stroke-linecap="round" stroke-linejoin="round" stroke-width="2"/>
  <path d="M9.1667 5L14.1667 10" stroke="currentColor" stroke-linecap="round" stroke-linejoin="round" stroke-width="2"/>
  <path d="M6.6667 15.531L5.6921 16.2271C5.2999 16.5073 5.1038 16.6473 4.8887 16.6642 4.8053 16.6708 4.7214 16.6639 4.6402 16.6437 4.4309 16.5917 4.2604 16.4213 3.9196 16.0804 3.5788 15.7396 3.4084 15.5692 3.3563 15.3598 3.3361 15.2786 3.3292 15.1947 3.3357 15.1113 3.3527 14.8963 3.4928 14.7001 3.7729 14.3079L4.469 13.3333" stroke="currentColor" stroke-linecap="round" stroke-linejoin="round" stroke-width="2"/>
  <path d="M11.25 6.6667L15.4167 3.3333M13.3333 8.75L16.6667 4.5833" stroke="currentColor" stroke-linejoin="round" stroke-width="2"/>
  <path d="M3.75 16.25L1.6667 18.3333" stroke="currentColor" stroke-linecap="round" stroke-linejoin="round" stroke-width="2"/>
  <path d="M11.1667 15L11.6505 15.4838C11.8918 15.7252 12.0125 15.8458 12.1593 15.8392 12.3063 15.8325 12.4155 15.7014 12.634 15.4392L13.8333 14M15.8333 15C15.8333 16.8409 14.3409 18.3333 12.5 18.3333 10.6591 18.3333 9.1667 16.8409 9.1667 15 9.1667 13.1591 10.6591 11.6667 12.5 11.6667 14.3409 11.6667 15.8333 13.1591 15.8333 15Z" stroke="currentColor" stroke-linecap="round" stroke-linejoin="round" stroke-width="2"/>
</svg>
