<svg xmlns="http://www.w3.org/2000/svg" width="20" height="20" viewBox="0 0 20 20" fill="none">
  <path d="M5 17.5C4.0795 17.5 3.3333 16.7538 3.3333 15.8333 3.3333 14.9128 4.0795 14.1667 5 14.1667 5.9205 14.1667 6.6667 14.9128 6.6667 15.8333 6.6667 16.7538 5.9205 17.5 5 17.5Z" stroke="currentColor" stroke-linecap="round" stroke-linejoin="round" stroke-width="2"/>
  <path d="M8.3333 17.5H9.9786C10.5118 17.5 10.9147 17.0292 10.8193 16.5176L10.058 12.4338C9.6152 10.0593 7.4947 8.3333 5.0201 8.3333 4.5488 8.3333 4.1667 8.706 4.1667 9.1657V12.0833" stroke="currentColor" stroke-linecap="round" stroke-linejoin="round" stroke-width="2"/>
  <path d="M16.25 17.5L10.7149 5.7786C9.7697 3.7769 7.7546 2.5 5.5409 2.5 3.4012 2.5 1.6667 4.2346 1.6667 6.3743V6.5314C1.6667 8.1052 2.6737 9.5023 4.1667 10" stroke="currentColor" stroke-linecap="round" stroke-linejoin="round" stroke-width="2"/>
  <path d="M18.3333 17.5H13.75" stroke="currentColor" stroke-linecap="round" stroke-linejoin="round" stroke-width="2"/>
</svg>
