<svg xmlns="http://www.w3.org/2000/svg" width="20" height="20" viewBox="0 0 20 20" fill="none">
  <path d="M10 5L10.7947 8.2165C10.9325 8.7746 11.4333 9.1667 12.0082 9.1667H16.6667" stroke="currentColor" stroke-linecap="round" stroke-linejoin="round" stroke-width="2"/>
  <path d="M1.6667 5H10.8908C12.1813 5 12.8266 5 13.3737 5.2883 13.9208 5.5766 14.2856 6.1089 15.0152 7.1735 15.5268 7.92 16.0637 8.4618 16.8188 8.9438 17.5791 9.4292 17.9406 9.6663 18.1412 10.0472 18.3333 10.4118 18.3333 10.8438 18.3333 11.7075 18.3333 12.8463 18.3333 13.4158 17.9896 13.7776 17.9749 13.7931 17.9597 13.8083 17.9443 13.8229 17.5824 14.1667 17.013 14.1667 15.8742 14.1667M4.1667 14.1667C3.8994 14.1667 3.6542 14.1667 3.5245 14.1388 3.3948 14.111 3.2729 14.0562 3.0292 13.9465L1.6667 13.3333C1.6667 10.6713 2.0659 9.1353 2.588 7.8749 2.9303 7.0485 3.1015 6.6353 3.0307 6.2672 2.9599 5.8991 2.0833 5 2.0833 5M7.5 14.1667H12.5" stroke="currentColor" stroke-linecap="round" stroke-linejoin="round" stroke-width="2"/>
  <circle cx="14.166666666666668" cy="14.166666666666668" r="1.6666666666666667" stroke="currentColor" stroke-width="2"/>
  <circle cx="5.833333333333334" cy="14.166666666666668" r="1.6666666666666667" stroke="currentColor" stroke-width="2"/>
</svg>
