<svg xmlns="http://www.w3.org/2000/svg" width="20" height="20" viewBox="0 0 20 20" fill="none">
  <path d="M2.5 10C2.5 6.4645 2.5 4.6967 3.5983 3.5983 4.6967 2.5 6.4645 2.5 10 2.5 13.5355 2.5 15.3033 2.5 16.4017 3.5983 17.5 4.6967 17.5 6.4645 17.5 10 17.5 13.5355 17.5 15.3033 16.4017 16.4017 15.3033 17.5 13.5355 17.5 10 17.5 6.4645 17.5 4.6967 17.5 3.5983 16.4017 2.5 15.3033 2.5 13.5355 2.5 10Z" stroke="currentColor" stroke-linecap="round" stroke-linejoin="round" stroke-width="2"/>
  <path d="M2.9167 6.6667H17.0833" stroke="currentColor" stroke-linecap="round" stroke-linejoin="round" stroke-width="2"/>
  <path d="M8.75 10.8333L10 12.0833M10 12.0833L11.25 13.3333M10 12.0833L11.25 10.8333M10 12.0833L8.75 13.3333M13.3333 9.5833C13.8604 10.3023 14.1667 11.161 14.1667 12.0833 14.1667 13.0057 13.8604 13.8643 13.3333 14.5833M6.6667 9.5833C6.1396 10.3023 5.8333 11.161 5.8333 12.0833 5.8333 13.0057 6.1396 13.8643 6.6667 14.5833" stroke="currentColor" stroke-linecap="round" stroke-linejoin="round" stroke-width="2"/>
</svg>
