<svg xmlns="http://www.w3.org/2000/svg" width="20" height="20" viewBox="0 0 20 20" fill="none">
  <path d="M15.4167 6.6667C15.6783 7.5952 15.8333 8.7493 15.8333 10 15.8333 11.2507 15.6783 12.4048 15.4167 13.3333M4.5833 6.6667C4.3217 7.5952 4.1667 8.7493 4.1667 10 4.1667 11.2507 4.3217 12.4048 4.5833 13.3333M6.6667 4.5833C7.5952 4.3217 8.7493 4.1667 10 4.1667 11.2507 4.1667 12.4048 4.3217 13.3333 4.5833M6.6667 15.4167C7.5952 15.6783 8.7493 15.8333 10 15.8333 11.2507 15.8333 12.4048 15.6783 13.3333 15.4167" stroke="currentColor" stroke-linecap="round" stroke-linejoin="round" stroke-width="2"/>
  <path d="M3.8415 6.6346C4.0025 6.6667 4.1961 6.6667 4.5833 6.6667 4.9706 6.6667 5.1642 6.6667 5.3251 6.6346 5.9863 6.5031 6.5031 5.9863 6.6346 5.3251 6.6667 5.1642 6.6667 4.9706 6.6667 4.5833 6.6667 4.1961 6.6667 4.0025 6.6346 3.8415 6.5031 3.1804 5.9863 2.6635 5.3251 2.532 5.1642 2.5 4.9706 2.5 4.5833 2.5 4.1961 2.5 4.0025 2.5 3.8415 2.532 3.1804 2.6635 2.6635 3.1804 2.532 3.8415 2.5 4.0025 2.5 4.1961 2.5 4.5833 2.5 4.9706 2.5 5.1642 2.532 5.3251 2.6635 5.9863 3.1804 6.5031 3.8415 6.6346Z" stroke="currentColor" stroke-linecap="round" stroke-linejoin="round" stroke-width="2"/>
  <path d="M14.6748 6.6346C14.8358 6.6667 15.0294 6.6667 15.4167 6.6667 15.8039 6.6667 15.9975 6.6667 16.1585 6.6346 16.8197 6.5031 17.3365 5.9863 17.468 5.3251 17.5 5.1642 17.5 4.9706 17.5 4.5833 17.5 4.1961 17.5 4.0025 17.468 3.8415 17.3365 3.1804 16.8197 2.6635 16.1585 2.532 15.9975 2.5 15.8039 2.5 15.4167 2.5 15.0294 2.5 14.8358 2.5 14.6748 2.532 14.0137 2.6635 13.4968 3.1804 13.3653 3.8415 13.3333 4.0025 13.3333 4.1961 13.3333 4.5833 13.3333 4.9706 13.3333 5.1642 13.3653 5.3251 13.4968 5.9863 14.0137 6.5031 14.6748 6.6346Z" stroke="currentColor" stroke-linecap="round" stroke-linejoin="round" stroke-width="2"/>
  <path d="M3.8415 17.468C4.0025 17.5 4.1961 17.5 4.5833 17.5 4.9706 17.5 5.1642 17.5 5.3251 17.468 5.9863 17.3365 6.5031 16.8197 6.6346 16.1585 6.6667 15.9975 6.6667 15.8039 6.6667 15.4167 6.6667 15.0294 6.6667 14.8358 6.6346 14.6748 6.5031 14.0137 5.9863 13.4968 5.3251 13.3653 5.1642 13.3333 4.9706 13.3333 4.5833 13.3333 4.1961 13.3333 4.0025 13.3333 3.8415 13.3653 3.1804 13.4968 2.6635 14.0137 2.532 14.6748 2.5 14.8358 2.5 15.0294 2.5 15.4167 2.5 15.8039 2.5 15.9975 2.532 16.1585 2.6635 16.8197 3.1804 17.3365 3.8415 17.468Z" stroke="currentColor" stroke-linecap="round" stroke-linejoin="round" stroke-width="2"/>
  <path d="M14.6748 17.468C14.8358 17.5 15.0294 17.5 15.4167 17.5 15.8039 17.5 15.9975 17.5 16.1585 17.468 16.8197 17.3365 17.3365 16.8197 17.468 16.1585 17.5 15.9975 17.5 15.8039 17.5 15.4167 17.5 15.0294 17.5 14.8358 17.468 14.6748 17.3365 14.0137 16.8197 13.4968 16.1585 13.3653 15.9975 13.3333 15.8039 13.3333 15.4167 13.3333 15.0294 13.3333 14.8358 13.3333 14.6748 13.3653 14.0137 13.4968 13.4968 14.0137 13.3653 14.6748 13.3333 14.8358 13.3333 15.0294 13.3333 15.4167 13.3333 15.8039 13.3333 15.9975 13.3653 16.1585 13.4968 16.8197 14.0137 17.3365 14.6748 17.468Z" stroke="currentColor" stroke-linecap="round" stroke-linejoin="round" stroke-width="2"/>
</svg>
