<svg xmlns="http://www.w3.org/2000/svg" width="20" height="20" viewBox="0 0 20 20" fill="none">
  <path d="M14.1667 11.0257C14.1667 11.0257 13.4091 10.6411 12.6515 10.6411 11.5152 10.6411 10 12.1795 10 14.4872 10 16.7948 12.0747 18.3333 14.1667 18.3333 16.2587 18.3333 18.3333 16.7948 18.3333 14.4872 18.3333 12.1795 16.8182 10.6411 15.6818 10.6411 14.9242 10.6411 14.1667 11.0257 14.1667 11.0257ZM14.1667 11.0257C14.1667 9.8718 14.9242 8.3333 16.4394 8.3333" stroke="currentColor" stroke-linecap="round" stroke-linejoin="round" stroke-width="2"/>
  <path d="M8.8792 4.1667C9.626 4.1667 10.2315 3.607 10.2315 2.9167 10.2315 2.2263 9.626 1.6667 8.8792 1.6667H4.3713C3.6245 1.6667 3.019 2.2263 3.019 2.9167 3.019 3.607 3.6245 4.1667 4.3713 4.1667M9.3078 4.1026C10.1039 5.5745 10.7579 6.9028 11.1573 8.3333 11.1899 8.4501 11.2208 8.5675 11.25 8.6858M8.69 18.3333H5.2729C2.2893 18.3333 1.6667 17.7578 1.6667 15V11.4809C1.6667 8.6478 2.5813 6.5714 3.9206 4.0955" stroke="currentColor" stroke-linecap="round" stroke-linejoin="round" stroke-width="2"/>
</svg>
