<svg xmlns="http://www.w3.org/2000/svg" width="20" height="20" viewBox="0 0 20 20" fill="none">
  <path d="M15 9.1667C14.1667 9.1667 12.9167 9.5833 12.5 10.8333" stroke="currentColor" stroke-linecap="round" stroke-linejoin="round" stroke-width="2"/>
  <path d="M5 9.1667C5.8333 9.1667 7.0833 9.5833 7.5 10.8333" stroke="currentColor" stroke-linecap="round" stroke-linejoin="round" stroke-width="2"/>
  <path d="M14.8033 5.8333C15.8384 5.8333 16.793 5.3032 17.3429 4.4434 17.4481 4.279 17.6233 4.1667 17.8183 4.1667 18.1028 4.1667 18.3333 4.3973 18.3333 4.6817V9.1667C18.3333 11.9281 16.0948 14.1667 13.3333 14.1667 12.3686 14.1667 11.4455 14.5073 10.6615 15.4962 10.4998 15.7002 10.2603 15.8333 10 15.8333 9.7397 15.8333 9.5002 15.7002 9.3385 15.4962 8.5545 14.5073 7.6314 14.1667 6.6667 14.1667 3.9052 14.1667 1.6667 11.9281 1.6667 9.1667V4.6817C1.6667 4.3973 1.8973 4.1667 2.1817 4.1667 2.3768 4.1667 2.552 4.279 2.6571 4.4434 3.207 5.3032 4.1616 5.8333 5.1967 5.8333H6.8866C7.8884 5.8333 8.8148 6.3299 9.3719 7.1413 9.5164 7.3518 9.7447 7.5 10 7.5 10.2553 7.5 10.4836 7.3518 10.6281 7.1413 11.1852 6.3299 12.1116 5.8333 13.1134 5.8333H14.8033Z" stroke="currentColor" stroke-linecap="round" stroke-linejoin="round" stroke-width="2"/>
</svg>
