<svg xmlns="http://www.w3.org/2000/svg" width="20" height="20" viewBox="0 0 20 20" fill="none">
  <path d="M3.7587 9.0256C5.7515 7.6551 5.919 5.4607 5.3132 3.9859 5.0628 3.3764 4.9376 3.0716 5.005 2.9121 5.2458 2.342 6.9735 1.9086 7.5 1.6667L10.9768 9.7719C11.4739 10.9877 11.7225 11.5956 11.6561 12.2198 11.5897 12.8439 11.2184 13.3887 10.4758 14.4782L8.4419 17.4627C7.7887 18.4211 7.4331 18.5165 6.358 18.0958L4.4219 17.3383C3.5292 16.9889 3.3334 16.7301 3.3334 15.7654V9.781C3.3334 9.3193 3.3215 9.3263 3.7587 9.0256Z" stroke="currentColor" stroke-linecap="round" stroke-linejoin="round" stroke-width="2"/>
  <path d="M10 7.4947L12.5 1.6667C13.0265 1.9086 14.7542 2.342 14.995 2.9121 15.0624 3.0716 14.9373 3.3764 14.6868 3.9859 14.081 5.4607 14.2485 7.6551 16.2413 9.0256 16.6785 9.3263 16.6667 9.3193 16.6667 9.781V15.7654C16.6667 16.7301 16.4708 16.9889 15.5781 17.3383L13.642 18.0958C12.5669 18.5165 12.2112 18.4211 11.5581 17.4627L10 15.1764" stroke="currentColor" stroke-linecap="round" stroke-linejoin="round" stroke-width="2"/>
  <path d="M7.5 1.6667L12.5 1.6667" stroke="currentColor" stroke-linecap="round" stroke-linejoin="round" stroke-width="2"/>
  <path d="M8.8542 11.6667H8.75M8.9583 11.6667C8.9583 11.7818 8.8651 11.875 8.75 11.875 8.6349 11.875 8.5417 11.7818 8.5417 11.6667 8.5417 11.5516 8.6349 11.4583 8.75 11.4583 8.8651 11.4583 8.9583 11.5516 8.9583 11.6667Z" stroke="currentColor" stroke-linecap="round" stroke-linejoin="round" stroke-width="2"/>
</svg>
