<svg xmlns="http://www.w3.org/2000/svg" width="20" height="20" viewBox="0 0 20 20" fill="none">
  <path d="M17.5 8.75C17.5 14.1667 15 15.4167 10 15.4167 9.7141 15.4167 9.4362 15.4126 9.1667 15.4038L6.753 17.8299C6.6977 17.8854 6.6226 17.9167 6.5443 17.9167 6.3818 17.9167 6.25 17.7849 6.25 17.6223V15.0217C3.75 14.327 2.5 12.5802 2.5 8.75 2.5 3.3333 5 2.0833 10 2.0833 15 2.0833 17.5 3.3333 17.5 8.75Z" stroke="currentColor" stroke-linecap="round" stroke-linejoin="round" stroke-width="2"/>
  <path d="M10.6071 11.3867C11.2119 11.7163 11.7566 11.9278 12.109 12.0478 12.3633 12.1343 12.6386 12.0583 12.8285 11.8684L13.3333 11.3636 11.9723 10.4562C11.8206 10.3551 11.6187 10.3751 11.4898 10.5039L10.6071 11.3867ZM10.6071 11.3867C10.0002 11.0561 9.3327 10.6067 8.738 10.012 8.1433 9.4173 7.6939 8.7498 7.3633 8.1429M7.3633 8.1429C7.0338 7.5381 6.8222 6.9934 6.7022 6.641 6.6156 6.3867 6.6917 6.1114 6.8816 5.9215L7.3864 5.4167 8.2939 6.7778C8.3949 6.9294 8.3749 7.1313 8.2461 7.2602L7.3633 8.1429ZM7.1161 6.2276L7.6568 7.3089M12.5224 11.6338L11.4412 11.0932" stroke="currentColor" stroke-linecap="round" stroke-linejoin="round" stroke-width="2"/>
  <path d="M14.1667 8.3333C14.1667 6.4924 12.6743 5 10.8333 5" stroke="currentColor" stroke-linecap="round" stroke-linejoin="round" stroke-width="2"/>
  <path d="M11.6667 8.3333C11.6667 7.8731 11.2936 7.5 10.8333 7.5" stroke="currentColor" stroke-linecap="round" stroke-linejoin="round" stroke-width="2"/>
</svg>
