<svg xmlns="http://www.w3.org/2000/svg" width="20" height="20" viewBox="0 0 20 20" fill="none">
  <path d="M14.1667 12.5V7.5C14.1667 5.5358 14.1667 4.5537 13.5565 3.9435 12.9463 3.3333 11.9642 3.3333 10 3.3333 8.0358 3.3333 7.0537 3.3333 6.4435 3.9435 5.8333 4.5537 5.8333 5.5358 5.8333 7.5V12.5C5.8333 14.4642 5.8333 15.4462 6.4435 16.0565 7.0537 16.6667 8.0358 16.6667 10 16.6667 11.9642 16.6667 12.9463 16.6667 13.5565 16.0565 14.1667 15.4462 14.1667 14.4642 14.1667 12.5Z" stroke="currentColor" stroke-linecap="round" stroke-linejoin="round" stroke-width="2"/>
  <path d="M18.3333 6.6667L16.9648 7.6931C16.7771 7.8338 16.6667 8.0547 16.6667 8.2893 16.6667 8.5717 16.8262 8.8298 17.0787 8.956L17.9607 9.397C18.1891 9.5112 18.3333 9.7447 18.3333 10 18.3333 10.2553 18.1891 10.4888 17.9607 10.603L17.0787 11.044C16.8262 11.1702 16.6667 11.4283 16.6667 11.7107 16.6667 11.9453 16.7771 12.1662 16.9648 12.3069L18.3333 13.3333" stroke="currentColor" stroke-linecap="round" stroke-linejoin="round" stroke-width="2"/>
  <path d="M1.6667 6.6667L3.0352 7.6931C3.2229 7.8338 3.3333 8.0547 3.3333 8.2893 3.3333 8.5717 3.1738 8.8298 2.9213 8.956L2.0393 9.397C1.8109 9.5112 1.6667 9.7447 1.6667 10 1.6667 10.2553 1.8109 10.4888 2.0393 10.603L2.9213 11.044C3.1738 11.1702 3.3333 11.4283 3.3333 11.7107 3.3333 11.9453 3.2229 12.1662 3.0352 12.3069L1.6667 13.3333" stroke="currentColor" stroke-linecap="round" stroke-linejoin="round" stroke-width="2"/>
</svg>
