<svg xmlns="http://www.w3.org/2000/svg" width="20" height="20" viewBox="0 0 20 20" fill="none">
  <path d="M6.1115 8.75L5.1549 9.8743C4.3755 10.7903 3.9858 11.2483 3.8385 11.789 3.7749 12.0228 3.7453 12.2648 3.7506 12.5072 3.763 13.0678 4.0305 13.6078 4.5655 14.6877 5.2316 16.0319 5.5646 16.7041 6.1026 17.1528 6.3357 17.3472 6.594 17.5083 6.8705 17.6317 7.5088 17.9167 8.2534 17.9167 9.7428 17.9167H10.9582C11.9962 17.9167 12.5152 17.9167 12.9691 17.7828 13.695 17.5687 14.3261 17.1096 14.7569 16.4823 15.0263 16.0902 15.1904 15.5933 15.5187 14.5995L15.8592 13.5687C16.0608 12.9583 16.1616 12.6532 16.2042 12.3969 16.4752 10.7661 15.5205 9.1812 13.9611 8.6733 13.7161 8.5935 13.4012 8.5433 12.7715 8.443M12.4842 9.5833L13.6502 3.8522C13.8361 2.9389 13.1447 2.0833 12.2208 2.0833 11.5692 2.0833 10.9966 2.5192 10.8176 3.1515L9.4684 7.9167 8.1236 3.1668C7.9421 2.5255 7.3613 2.0833 6.7004 2.0833 5.7769 2.0833 5.0788 2.9274 5.244 3.8444L6.5783 11.25" stroke="currentColor" stroke-linecap="round" stroke-linejoin="round" stroke-width="2"/>
</svg>
