<svg xmlns="http://www.w3.org/2000/svg" width="20" height="20" viewBox="0 0 20 20" fill="none">
  <path d="M5.8151 11.2663L5.3193 8.3916M5.3193 8.3916L4.4361 3.271C4.3094 2.4517 4.7517 1.8648 5.4268 1.6995 6.11 1.5322 6.8192 2.0697 6.9129 2.657L8.3251 8.3916 9.6977 2.8039C9.8345 1.9768 10.6211 1.6088 11.3042 1.7761 11.9793 1.9414 12.3413 2.4517 12.2147 3.271L11.2332 8.7977M5.3193 8.3916C4.7484 8.9608 3.8298 9.9841 3.5409 10.63 3.4696 10.7894 3.4133 10.9564 3.3731 11.1263 3.1818 11.9371 3.6477 12.8566 4.96 14.5855 5.4853 15.2014 6.4098 16.334 6.4652 16.519 6.4707 16.5374 6.725 16.8469 6.6597 18.3316M11.5612 6.9509C12.0982 6.5621 13.5389 6.4215 14.1018 7.8943 14.1217 8.0015 14.1535 8.0861 14.1643 8.1924M14.1643 8.1924C14.2133 8.6736 14.1643 9.1336 14.1643 9.1916M14.1643 8.1924C14.4841 7.5676 16.3533 8.3339 16.5958 10.6033 16.8062 11.7476 16.508 13.3056 16.3276 13.8551 16.0594 14.672 15.3178 15.9403 15.1512 16.1301 14.4579 17.0696 14.5295 17.8743 14.5295 18.3191" stroke="currentColor" stroke-linecap="round" stroke-linejoin="round" stroke-width="2"/>
</svg>
