<svg xmlns="http://www.w3.org/2000/svg" width="20" height="20" viewBox="0 0 20 20" fill="none">
  <path d="M14.1668 12.9167V11.25L16.3334 8.3611C16.5433 8.0813 16.8726 7.9167 17.2222 7.9167 17.8359 7.9167 18.3334 8.4142 18.3334 9.0277V15.1389C18.3334 15.7525 17.8359 16.25 17.2222 16.25 16.8726 16.25 16.5433 16.0853 16.3334 15.8056L14.1668 12.9167Z" stroke="currentColor" stroke-linecap="round" stroke-linejoin="round" stroke-width="2"/>
  <path d="M8.7245 5.0209C8.7302 4.993 8.7699 4.993 8.7757 5.0209 9.0711 6.4662 10.2005 7.5957 11.6458 7.8911 11.6737 7.8968 11.6737 7.9366 11.6458 7.9422 10.2005 8.2377 9.0711 9.3672 8.7757 10.8124 8.7699 10.8403 8.7302 10.8403 8.7245 10.8124 8.4291 9.3672 7.2996 8.2377 5.8543 7.9422 5.8264 7.9366 5.8264 7.8968 5.8543 7.8911 7.2996 7.5957 8.4291 6.4662 8.7245 5.0209Z" stroke="currentColor" stroke-linecap="round" stroke-linejoin="round" stroke-width="2"/>
  <path d="M4.6264 5.8329C3.8746 5.9311 3.3283 6.1199 2.8854 6.4834 2.7166 6.6219 2.5618 6.7767 2.4233 6.9455 1.6667 7.8674 1.6667 9.2373 1.6667 11.9769 1.6667 14.7165 1.6667 16.1928 2.4233 17.1148 2.5619 17.2835 2.7166 17.4383 2.8854 17.5768 3.8074 18.3334 5.1771 18.3334 7.9167 18.3334 10.6563 18.3334 12.0261 18.3334 12.948 17.5768 13.1168 17.4383 13.2716 17.2835 13.4101 17.1148 14.1667 16.1928 14.1667 14.823 14.1667 12.0834 14.1667 10.2651 14.1667 9.0501 13.9454 8.169" stroke="currentColor" stroke-linecap="round" stroke-linejoin="round" stroke-width="2"/>
  <path d="M12.6006 1.9247C12.6709 1.5806 13.1625 1.5806 13.2328 1.9247 13.3882 2.6847 13.9821 3.2785 14.742 3.4339 15.0861 3.5042 15.0861 3.9958 14.742 4.0661 13.9821 4.2215 13.3882 4.8153 13.2328 5.5753 13.1625 5.9194 12.6709 5.9194 12.6006 5.5753 12.4453 4.8153 11.8514 4.2215 11.0914 4.0661 10.7473 3.9958 10.7473 3.5042 11.0914 3.4339 11.8514 3.2785 12.4453 2.6847 12.6006 1.9247Z" fill="currentColor"/>
</svg>
