<svg xmlns="http://www.w3.org/2000/svg" width="20" height="20" viewBox="0 0 20 20" fill="none">
  <path d="M15.8114 12.5179C15.8163 12.494 15.8504 12.494 15.8552 12.5179 16.1085 13.7568 17.0766 14.7248 18.3154 14.9781 18.3393 14.9829 18.3393 15.0171 18.3154 15.0219 17.0766 15.2752 16.1085 16.2433 15.8552 17.4821 15.8504 17.506 15.8163 17.506 15.8114 17.4821 15.5582 16.2433 14.5901 15.2752 13.3513 15.0219 13.3273 15.0171 13.3273 14.9829 13.3513 14.9781 14.5901 14.7248 15.5582 13.7568 15.8114 12.5179Z" stroke="currentColor" stroke-width="2"/>
  <path d="M12.2058 10.5606C12.8237 10.1276 13.1326 9.9112 13.2563 9.5965 13.359 9.3351 13.359 8.9983 13.2563 8.7368 13.1326 8.4222 12.8237 8.2057 12.2058 7.7727 11.7728 7.4694 11.3245 7.1685 10.9306 6.9304 10.6024 6.7321 10.2158 6.5193 9.8274 6.3149 9.1708 5.9693 8.8426 5.7965 8.5247 5.8399 8.2612 5.876 7.9857 6.0436 7.8236 6.2666 7.628 6.5356 7.6036 6.9223 7.5548 7.6958 7.5227 8.2046 7.5 8.7218 7.5 9.1667 7.5 9.6116 7.5227 10.1288 7.5548 10.6375 7.6036 11.411 7.628 11.7978 7.8236 12.0668 7.9857 12.2897 8.2612 12.4574 8.5247 12.4934 8.8426 12.5368 9.1708 12.3641 9.8274 12.0184 10.2158 11.814 10.6024 11.6013 10.9306 11.4029 11.3245 11.1648 11.7728 10.8639 12.2058 10.5606Z" stroke="currentColor" stroke-linecap="round" stroke-width="2"/>
  <path d="M18.2267 12.3631C18.3333 11.6023 18.3333 10.6066 18.3333 9.1667 18.3333 6.8331 18.3333 5.6663 17.8792 4.775 17.4797 3.991 16.8423 3.3536 16.0583 2.9541 15.167 2.5 14.0003 2.5 11.6667 2.5H8.3333C5.9998 2.5 4.833 2.5 3.9417 2.9541 3.1577 3.3536 2.5203 3.991 2.1208 4.775 1.6667 5.6663 1.6667 6.8331 1.6667 9.1667 1.6667 11.5003 1.6667 12.667 2.1208 13.5583 2.5203 14.3423 3.1577 14.9798 3.9417 15.3792 4.833 15.8333 5.9998 15.8333 8.3333 15.8333H11.1881" stroke="currentColor" stroke-linecap="round" stroke-linejoin="round" stroke-width="2"/>
</svg>
