<svg xmlns="http://www.w3.org/2000/svg" width="20" height="20" viewBox="0 0 20 20" fill="none">
  <path d="M2.5 8.3333C2.5 5.1906 2.5 3.6193 3.4763 2.643 4.4526 1.6667 6.024 1.6667 9.1667 1.6667H10.8333C13.976 1.6667 15.5474 1.6667 16.5237 2.643 17.5 3.6193 17.5 5.1906 17.5 8.3333V11.6667C17.5 14.8093 17.5 16.3808 16.5237 17.357 15.5474 18.3333 13.976 18.3333 10.8333 18.3333H9.1667C6.024 18.3333 4.4526 18.3333 3.4763 17.357 2.5 16.3808 2.5 14.8093 2.5 11.6667V8.3333Z" stroke="currentColor" stroke-width="2"/>
  <path d="M8.3333 15L7.0833 13.75M7.0833 13.75L5.8333 12.5M7.0833 13.75L5.8333 15M7.0833 13.75L8.3333 12.5" stroke="currentColor" stroke-linecap="round" stroke-width="2"/>
  <path d="M2.5 9.1667H17.5" stroke="currentColor" stroke-linecap="round" stroke-linejoin="round" stroke-width="2"/>
  <path d="M12.6042 15H12.5M12.7083 15C12.7083 15.1151 12.6151 15.2083 12.5 15.2083 12.3849 15.2083 12.2917 15.1151 12.2917 15 12.2917 14.8849 12.3849 14.7917 12.5 14.7917 12.6151 14.7917 12.7083 14.8849 12.7083 15Z" stroke="currentColor" stroke-linecap="round" stroke-width="2"/>
  <path d="M14.2708 12.5H14.1667M14.375 12.5C14.375 12.6151 14.2818 12.7083 14.1667 12.7083 14.0516 12.7083 13.9583 12.6151 13.9583 12.5 13.9583 12.3849 14.0516 12.2917 14.1667 12.2917 14.2818 12.2917 14.375 12.3849 14.375 12.5Z" stroke="currentColor" stroke-linecap="round" stroke-width="2"/>
</svg>
