<svg xmlns="http://www.w3.org/2000/svg" width="20" height="20" viewBox="0 0 20 20" fill="none">
  <path d="M1.6682 1.6666L18.3143 18.3332" stroke="currentColor" stroke-linecap="round" stroke-width="2"/>
  <path d="M14.043 14.0564C13.9353 14.8384 13.7221 15.389 13.2996 15.812 12.4463 16.6663 11.0731 16.6663 8.3267 16.6663H7.4944C4.7479 16.6663 3.3747 16.6663 2.5215 15.812 1.6682 14.9578 1.6682 13.5828 1.6682 10.833V9.1663C1.6682 6.4164 1.6682 5.0415 2.5215 4.1872 2.8069 3.9014 3.1505 3.7113 3.5843 3.5847" stroke="currentColor" stroke-linecap="round" stroke-width="2"/>
  <path d="M6.8636 3.3337C7.0651 3.3332 7.275 3.3332 7.4935 3.3332H8.3258C11.0723 3.3332 12.4455 3.3332 13.2987 4.1875 14.1518 5.0418 14.1518 6.4167 14.1518 9.1666V10.6311M14.1518 7.6927L16.0848 6.2742C17.3108 5.4505 17.8741 5.9765 18.0562 6.3736 18.4326 7.44 18.314 9.4946 18.314 12.118 18.2253 13.7957 17.996 13.9765 17.7614 14.1615L17.7589 14.1634" stroke="currentColor" stroke-linecap="round" stroke-linejoin="round" stroke-width="2"/>
</svg>
