<svg xmlns="http://www.w3.org/2000/svg" width="20" height="20" viewBox="0 0 20 20" fill="none">
  <path d="M1.6667 9.1667C1.6667 6.4168 1.6667 5.0419 2.5209 4.1876 3.3752 3.3333 4.7501 3.3333 7.5 3.3333H8.3333C11.0832 3.3333 12.4581 3.3333 13.3124 4.1876 14.1667 5.0419 14.1667 6.4168 14.1667 9.1667V10.8333C14.1667 13.5832 14.1667 14.9581 13.3124 15.8124 12.4581 16.6667 11.0832 16.6667 8.3333 16.6667H7.5C4.7501 16.6667 3.3752 16.6667 2.5209 15.8124 1.6667 14.9581 1.6667 13.5832 1.6667 10.8333V9.1667Z" stroke="currentColor" stroke-width="2"/>
  <path d="M14.1667 7.4215L14.2716 7.335C16.0348 5.8802 16.9163 5.1528 17.6248 5.504 18.3333 5.8552 18.3333 7.0196 18.3333 9.3484V10.6516C18.3333 12.9804 18.3333 14.1448 17.6248 14.496 16.9163 14.8472 16.0348 14.1198 14.2716 12.665L14.1667 12.5784" stroke="currentColor" stroke-linecap="round" stroke-width="2"/>
  <circle cx="9.583333333333334" cy="7.916666666666667" r="1.25" stroke="currentColor" stroke-width="2"/>
</svg>
