<svg xmlns="http://www.w3.org/2000/svg" width="20" height="20" viewBox="0 0 20 20" fill="none">
  <path d="M14.1667 8.3333L5.8333 8.3333C5.0568 8.3333 4.6685 8.3333 4.3622 8.2065 3.9538 8.0373 3.6294 7.7129 3.4602 7.3045 3.3333 6.9982 3.3333 6.6099 3.3333 5.8333 3.3333 5.0568 3.3333 4.6685 3.4602 4.3622 3.6294 3.9538 3.9538 3.6294 4.3622 3.4602 4.6685 3.3333 5.0568 3.3333 5.8333 3.3333H14.1667C14.9432 3.3333 15.3315 3.3333 15.6378 3.4602 16.0462 3.6294 16.3707 3.9538 16.5398 4.3622 16.6667 4.6685 16.6667 5.0568 16.6667 5.8333 16.6667 6.6099 16.6667 6.9982 16.5398 7.3045 16.3707 7.7129 16.0462 8.0373 15.6378 8.2065 15.3315 8.3333 14.9432 8.3333 14.1667 8.3333Z" stroke="currentColor" stroke-linejoin="round" stroke-width="2"/>
  <path d="M14.1667 16.6667L5.8333 16.6667C5.0568 16.6667 4.6685 16.6667 4.3622 16.5398 3.9538 16.3707 3.6294 16.0462 3.4602 15.6378 3.3333 15.3315 3.3333 14.9432 3.3333 14.1667 3.3333 13.3901 3.3333 13.0018 3.4602 12.6955 3.6294 12.2872 3.9538 11.9627 4.3622 11.7935 4.6685 11.6667 5.0568 11.6667 5.8333 11.6667H14.1667C14.9432 11.6667 15.3315 11.6667 15.6378 11.7935 16.0462 11.9627 16.3707 12.2872 16.5398 12.6955 16.6667 13.0018 16.6667 13.3901 16.6667 14.1667 16.6667 14.9432 16.6667 15.3315 16.5398 15.6378 16.3707 16.0462 16.0462 16.3707 15.6378 16.5398 15.3315 16.6667 14.9432 16.6667 14.1667 16.6667Z" stroke="currentColor" stroke-linejoin="round" stroke-width="2"/>
</svg>
