<svg xmlns="http://www.w3.org/2000/svg" width="20" height="20" viewBox="0 0 20 20" fill="none">
  <path d="M16.1992 12.8658C16.9697 12.101 17.5646 11.3409 17.9533 10.7958 18.2067 10.4406 18.3333 10.2629 18.3333 10 18.3333 9.7371 18.2067 9.5594 17.9533 9.2042 16.8149 7.6079 13.9077 4.1667 10 4.1667 9.2435 4.1667 8.5245 4.2956 7.8486 4.5152M5.6229 5.6229C3.9427 6.756 2.7018 8.2856 2.0467 9.2042 1.7933 9.5594 1.6667 9.7371 1.6667 10 1.6667 10.2629 1.7933 10.4406 2.0467 10.7958 3.1851 12.3922 6.0923 15.8333 10 15.8333 11.659 15.8333 13.1376 15.2131 14.3772 14.3772" stroke="currentColor" stroke-linecap="round" stroke-linejoin="round" stroke-width="2"/>
  <path d="M8.2149 8.3333C7.7732 8.775 7.5 9.3853 7.5 10.0593 7.5 11.4073 8.5928 12.5 9.9408 12.5 10.6148 12.5 11.225 12.2268 11.6667 11.7851" stroke="currentColor" stroke-linecap="round" stroke-width="2"/>
  <path d="M2.5 2.5L17.5 17.5" stroke="currentColor" stroke-linecap="round" stroke-linejoin="round" stroke-width="2"/>
</svg>
