<svg xmlns="http://www.w3.org/2000/svg" width="20" height="20" viewBox="0 0 20 20" fill="none">
  <path d="M5.8333 6.6165C5.8333 8.4452 6.6024 12.5188 8.6556 14.6467 9.1022 15.1095 9.805 15.1181 10.2652 14.6698 11.1599 13.7981 12.1128 12.4065 12.761 10.9688M12.761 10.9688C10.1107 10.2577 10.0238 8.2406 10.4167 7.1288 11.3816 4.8244 13.5527 5.9167 13.5527 7.8971 13.5527 8.2613 13.5038 8.6513 13.4152 9.0556M12.761 10.9688C13.3657 11.1309 14.1037 11.2252 15 11.2252" stroke="currentColor" stroke-linecap="round" stroke-width="2"/>
  <path d="M2.0833 10C2.0833 6.268 2.0833 4.4021 3.2427 3.2427 4.4021 2.0833 6.268 2.0833 10 2.0833 13.7319 2.0833 15.5979 2.0833 16.7573 3.2427 17.9167 4.4021 17.9167 6.268 17.9167 10 17.9167 13.7319 17.9167 15.5979 16.7573 16.7573 15.5979 17.9167 13.7319 17.9167 10 17.9167 6.268 17.9167 4.4021 17.9167 3.2427 16.7573 2.0833 15.5979 2.0833 13.7319 2.0833 10Z" stroke="currentColor" stroke-linejoin="round" stroke-width="2"/>
</svg>
