<svg xmlns="http://www.w3.org/2000/svg" width="20" height="20" viewBox="0 0 20 20" fill="none">
  <path d="M14.1667 7.5H5.8333C4.2756 7.5 3.4968 7.5 2.9167 7.8684 2.5366 8.1098 2.221 8.4569 2.0016 8.875 1.6667 9.5132 1.6667 10.3698 1.6667 12.0833 1.6667 13.7968 1.6667 14.6535 2.0016 15.2917 2.221 15.7098 2.5366 16.0568 2.9167 16.2982 3.4968 16.6667 4.2756 16.6667 5.8333 16.6667 6.3444 16.6667 6.6 16.6667 6.8419 16.6274 7.4875 16.5227 8.0909 16.2118 8.5773 15.7333 8.7596 15.554 8.9232 15.3381 9.2504 14.9062L9.5288 14.5386C9.6945 14.3199 9.7773 14.2106 9.8786 14.1678 9.9627 14.1323 10.0549 14.1277 10.1416 14.1547 10.2459 14.1872 10.3374 14.2878 10.5204 14.4891L11.3215 15.3703C11.5202 15.5889 11.6196 15.6983 11.723 15.7948 12.2547 16.2915 12.9147 16.5922 13.6099 16.6546 13.7451 16.6667 13.8856 16.6667 14.1667 16.6667 15.7243 16.6667 16.5032 16.6667 17.0833 16.2982 17.4634 16.0568 17.779 15.7098 17.9984 15.2917 18.3333 14.6535 18.3333 13.7968 18.3333 12.0833 18.3333 10.3698 18.3333 9.5132 17.9984 8.875 17.779 8.4569 17.4634 8.1098 17.0833 7.8684 16.5032 7.5 15.7243 7.5 14.1667 7.5Z" stroke="currentColor" stroke-linecap="round" stroke-width="2"/>
  <path d="M13.3333 10.8333H15" stroke="currentColor" stroke-linecap="round" stroke-width="2"/>
  <path d="M18.3333 12.5V10.3768C18.3333 9.5603 18.3333 9.1519 18.2689 8.7572 18.237 8.5619 18.1935 8.3698 18.1387 8.1824 18.0278 7.8034 17.8558 7.4533 17.5121 6.753 16.823 5.3494 16.4785 4.6476 15.9763 4.1761 15.7297 3.9447 15.4577 3.7566 15.1685 3.6172 14.5793 3.3333 13.9097 3.3333 12.5704 3.3333H7.4296C6.0903 3.3333 5.4207 3.3333 4.8315 3.6172 4.5422 3.7566 4.2704 3.9447 4.0238 4.1761 3.5215 4.6476 3.177 5.3494 2.4879 6.753 2.1441 7.4533 1.9723 7.8034 1.8614 8.1824 1.8065 8.3698 1.763 8.5619 1.7311 8.7572 1.6667 9.1519 1.6667 9.5603 1.6667 10.3768V12.5" stroke="currentColor" stroke-linecap="round" stroke-width="2"/>
</svg>
