<svg xmlns="http://www.w3.org/2000/svg" width="20" height="20" viewBox="0 0 20 20" fill="none">
  <path d="M10.8333 2.5H9.1667C5.6311 2.5 3.8634 2.5 2.765 3.5983 1.6667 4.6967 1.6667 6.4645 1.6667 10 1.6667 13.5355 1.6667 15.3033 2.765 16.4017 3.8634 17.5 5.6311 17.5 9.1667 17.5H10.8333C14.3688 17.5 16.1367 17.5 17.235 16.4017 18.3333 15.3033 18.3333 13.5355 18.3333 10 18.3333 6.4645 18.3333 4.6967 17.235 3.5983 16.1367 2.5 14.3688 2.5 10.8333 2.5Z" stroke="currentColor" stroke-linecap="round" stroke-width="2"/>
  <path d="M9.1667 8.3333L7.7045 11.5936C7.4334 12.1978 7.2979 12.5 7.0833 12.5 6.8687 12.5 6.7332 12.1978 6.4622 11.5936L5 8.3333M11.6667 12.5V10.8333M11.6667 10.8333V9.1667C11.6667 8.7738 11.6667 8.5774 11.7887 8.4553 11.9108 8.3333 12.1072 8.3333 12.5 8.3333H13.75C14.4403 8.3333 15 8.893 15 9.5833 15 10.2737 14.4403 10.8333 13.75 10.8333M11.6667 10.8333H13.75M13.75 10.8333L14.5833 12.5" stroke="currentColor" stroke-linecap="round" stroke-linejoin="round" stroke-width="2"/>
</svg>
