<svg xmlns="http://www.w3.org/2000/svg" width="20" height="20" viewBox="0 0 20 20" fill="none">
  <path d="M14.1798 13.75V17.735C14.1798 18.0021 14.0053 18.2283 13.7645 18.3053M14.1798 13.75L9.0643 10M14.1798 13.75V6.25M6.4558 8.0877L3.5427 5.8586C3.2119 5.6055 2.7456 5.6369 2.4514 5.9319L1.9101 6.475C1.5783 6.8078 1.5869 7.35 1.9291 7.672L4.4029 10M6.4558 8.0877L9.0643 10M6.4558 8.0877L13.1774 1.8266C13.2878 1.7238 13.4328 1.6667 13.5833 1.6667 13.6465 1.6667 13.7073 1.6765 13.7645 1.6948M9.0643 10L14.1798 6.25M14.1798 6.25V2.265C14.1798 1.9979 14.0053 1.7717 13.7645 1.6948M6.4558 11.9123L3.5427 14.1413C3.2119 14.3944 2.7456 14.3631 2.4514 14.0681L1.9101 13.525C1.5783 13.1923 1.5869 12.65 1.9291 12.328L4.4029 10M6.4558 11.9123L13.1774 18.1734C13.2878 18.2763 13.4328 18.3333 13.5833 18.3333 13.6465 18.3333 13.7073 18.3235 13.7645 18.3053M6.4558 11.9123L4.4029 10M13.7645 1.6948L17.8426 3.5292C18.1413 3.6635 18.3334 3.9613 18.3334 4.2896V15.7104C18.3334 16.0388 18.1413 16.3364 17.8426 16.4708L13.7645 18.3053" stroke="currentColor" stroke-linecap="round" stroke-linejoin="round" stroke-width="2"/>
</svg>
