<svg xmlns="http://www.w3.org/2000/svg" width="20" height="20" viewBox="0 0 20 20" fill="none">
  <path d="M18.3333 10C18.3333 14.6023 14.6023 18.3333 10 18.3333 5.3976 18.3333 1.6667 14.6023 1.6667 10 1.6667 5.3976 5.3976 1.6667 10 1.6667 14.6023 1.6667 18.3333 5.3976 18.3333 10Z" stroke="currentColor" stroke-width="2"/>
  <path d="M6.7671 2.5C6.3955 3.8492 6.4698 7.1548 9.7396 9.5833M9.7396 9.5833C13.8579 8.475 16.7708 8.875 18.3333 10.2915M9.7396 9.5833C10.2104 13.4901 7.3958 15.9583 5.8333 16.6667" stroke="currentColor" stroke-linecap="round" stroke-linejoin="round" stroke-width="2"/>
  <path d="M7.5 6.6667C9.2392 5.0947 13.6051 4.2735 17.0833 5.8453" stroke="currentColor" stroke-linejoin="round" stroke-width="2"/>
  <path d="M14.0738 9.1667C14.5648 11.5789 13.0953 15.9903 10 18.3333" stroke="currentColor" stroke-linejoin="round" stroke-width="2"/>
  <path d="M8.3333 14.1667C6.1455 13.1163 3.4653 9.1329 3.3333 5" stroke="currentColor" stroke-linejoin="round" stroke-width="2"/>
</svg>
