<svg xmlns="http://www.w3.org/2000/svg" width="20" height="20" viewBox="0 0 20 20" fill="none">
  <path d="M18.3333 18.3333L1.6667 1.6667" stroke="currentColor" stroke-linecap="round" stroke-linejoin="round" stroke-width="2"/>
  <path d="M14.1667 8.3333C14.6913 8.9723 15 9.7545 15 10.5996 15 10.9696 14.9408 11.3275 14.8302 11.6667" stroke="currentColor" stroke-linecap="round" stroke-linejoin="round" stroke-width="2"/>
  <path d="M16.6667 6.6667C17.709 7.6913 18.3333 8.996 18.3333 10.4167 18.3333 11.597 17.9024 12.6973 17.1588 13.6233" stroke="currentColor" stroke-linecap="round" stroke-linejoin="round" stroke-width="2"/>
  <path d="M11.6667 11.6667C11.6667 14.2877 11.6667 16.2761 10.895 16.6023 10.1234 16.9284 9.2152 16.0018 7.3989 14.1484 6.4583 13.1887 5.9217 12.9761 4.5833 12.9761 3.6566 12.9761 2.5229 13.0989 1.9476 12.2203 1.6667 11.7913 1.6667 11.1943 1.6667 10 1.6667 8.8058 1.6667 8.2087 1.9476 7.7797 2.5229 6.9011 3.6566 7.0239 4.5833 7.0239 5.506 7.0239 6.1308 7.0322 6.6333 6.6333M11.6667 7.9167C11.6667 5.2957 11.6883 3.7239 10.9167 3.3978 10.2743 3.1262 9.6103 3.723 8.3333 5" stroke="currentColor" stroke-linecap="round" stroke-linejoin="round" stroke-width="2"/>
</svg>
