<svg xmlns="http://www.w3.org/2000/svg" width="20" height="20" viewBox="0 0 20 20" fill="none">
  <path d="M15 12.3446V7.6554C15 5.0344 15 3.7239 14.2283 3.3978 13.4567 3.0716 12.5486 3.9983 10.7323 5.8516 9.7916 6.8114 9.2549 7.0239 7.9167 7.0239 6.9899 7.0239 5.8562 6.9011 5.2809 7.7797 5 8.2087 5 8.8058 5 10 5 11.1943 5 11.7913 5.2809 12.2203 5.8562 13.0989 6.9899 12.9761 7.9167 12.9761 9.255 12.9761 9.7916 13.1887 10.7323 14.1484 12.5486 16.0018 13.4567 16.9284 14.2283 16.6023 15 16.2761 15 14.9656 15 12.3446Z" stroke="currentColor" stroke-linecap="round" stroke-linejoin="round" stroke-width="2"/>
</svg>
