<svg xmlns="http://www.w3.org/2000/svg" width="20" height="20" viewBox="0 0 20 20" fill="none">
  <path d="M15.8333 7.5C16.3545 8.1831 16.6667 9.0528 16.6667 10 16.6667 10.9472 16.3545 11.8169 15.8333 12.5" stroke="currentColor" stroke-linecap="round" stroke-linejoin="round" stroke-width="2"/>
  <path d="M13.3333 12.3446V7.6554C13.3333 5.0344 13.3333 3.7239 12.5623 3.3978 11.7912 3.0716 10.8837 3.9983 9.0686 5.8516 8.1287 6.8114 7.5924 7.0239 6.255 7.0239 5.0855 7.0239 4.5007 7.0239 4.0806 7.3105 3.2086 7.9055 3.3405 9.0683 3.3405 10 3.3405 10.9317 3.2086 12.0945 4.0806 12.6895 4.5007 12.9761 5.0855 12.9761 6.255 12.9761 7.5924 12.9761 8.1287 13.1887 9.0686 14.1484 10.8837 16.0018 11.7912 16.9284 12.5623 16.6023 13.3333 16.2761 13.3333 14.9656 13.3333 12.3446Z" stroke="currentColor" stroke-linecap="round" stroke-linejoin="round" stroke-width="2"/>
</svg>
