<svg xmlns="http://www.w3.org/2000/svg" width="20" height="20" viewBox="0 0 20 20" fill="none">
  <path d="M11.6667 12.3446V7.6554C11.6667 5.0344 11.6667 3.7239 10.8956 3.3978 10.1245 3.0716 9.2169 3.9983 7.4019 5.8516 6.462 6.8114 5.9257 7.0239 4.5884 7.0239 3.4188 7.0239 2.834 7.0239 2.414 7.3105 1.542 7.9055 1.6738 9.0683 1.6738 10 1.6738 10.9317 1.542 12.0945 2.414 12.6895 2.834 12.9761 3.4188 12.9761 4.5884 12.9761 5.9257 12.9761 6.462 13.1887 7.4019 14.1484 9.2169 16.0018 10.1245 16.9284 10.8956 16.6023 11.6667 16.2761 11.6667 14.9656 11.6667 12.3446Z" stroke="currentColor" stroke-linecap="round" stroke-linejoin="round" stroke-width="2"/>
  <path d="M14.1667 10L18.3333 10" stroke="currentColor" stroke-linecap="round" stroke-width="2"/>
</svg>
