<svg xmlns="http://www.w3.org/2000/svg" width="20" height="20" viewBox="0 0 20 20" fill="none">
  <path d="M3.667 15.4167C2.4199 13.96 1.6667 12.0679 1.6667 10 1.6667 5.3976 5.3976 1.6667 10 1.6667 14.6023 1.6667 18.3333 5.3976 18.3333 10 18.3333 12.0679 17.5801 13.96 16.333 15.4167" stroke="currentColor" stroke-linecap="round" stroke-linejoin="round" stroke-width="2"/>
  <path d="M6.25 6.6667C6.6467 6.9311 7.3676 7.2581 7.4588 7.7843 7.4641 7.8149 7.4677 7.8457 7.4696 7.8766 7.4911 8.2338 7.2008 8.5448 6.6204 9.1667M13.75 6.6667C13.3533 6.9312 12.6324 7.2581 12.5412 7.7843 12.5358 7.8149 12.5323 7.8457 12.5304 7.8766 12.5089 8.2338 12.7992 8.5448 13.3797 9.1667" stroke="currentColor" stroke-linecap="round" stroke-linejoin="round" stroke-width="2"/>
  <path d="M5.8333 15.8333C6.2273 13.9315 7.9431 12.5 10 12.5 12.0569 12.5 13.7728 13.9315 14.1667 15.8333" stroke="currentColor" stroke-linecap="round" stroke-linejoin="round" stroke-width="2"/>
  <path d="M10 15.8333L10 17.5" stroke="currentColor" stroke-linecap="round" stroke-linejoin="round" stroke-width="2"/>
  <path d="M7.0546 13.75C7.0546 15.4068 7.3813 17.2771 5.8333 18.3333" stroke="currentColor" stroke-linecap="round" stroke-linejoin="round" stroke-width="2"/>
  <path d="M12.945 13.75C12.945 15.4007 12.6206 17.2787 14.1667 18.3333" stroke="currentColor" stroke-linecap="round" stroke-linejoin="round" stroke-width="2"/>
</svg>
