<svg xmlns="http://www.w3.org/2000/svg" width="20" height="20" viewBox="0 0 20 20" fill="none">
  <path d="M5.8333 2.5H14.1667C15.7243 2.5 16.5032 2.5 17.0833 2.8349 17.4634 3.0544 17.779 3.37 17.9984 3.75 18.3333 4.3301 18.3333 5.109 18.3333 6.6667 18.3333 8.2244 18.3333 9.0032 17.9984 9.5833 17.779 9.9634 17.4634 10.279 17.0833 10.4984 16.5032 10.8333 15.7243 10.8333 14.1667 10.8333H13.8386C13.2662 10.8333 12.9799 10.8333 12.7122 10.7738 12.3537 10.6943 12.0172 10.5366 11.7265 10.3122 11.5093 10.1445 11.3261 9.9247 10.9597 9.4849 10.6677 9.1345 10.5217 8.9593 10.3541 8.8807 10.1297 8.7754 9.8703 8.7754 9.6459 8.8807 9.4783 8.9593 9.3323 9.1345 9.0403 9.4849 8.6739 9.9247 8.4907 10.1445 8.2735 10.3122 7.9829 10.5366 7.6463 10.6943 7.2878 10.7738 7.0201 10.8333 6.7338 10.8333 6.1614 10.8333H5.8333C4.2756 10.8333 3.4968 10.8333 2.9167 10.4984 2.5366 10.279 2.221 9.9634 2.0016 9.5833 1.6667 9.0032 1.6667 8.2244 1.6667 6.6667 1.6667 5.109 1.6667 4.3301 2.0016 3.75 2.221 3.37 2.5366 3.0544 2.9167 2.8349 3.4968 2.5 4.2756 2.5 5.8333 2.5Z" stroke="currentColor" stroke-linecap="round" stroke-linejoin="round" stroke-width="2"/>
  <path d="M4.1667 5H5.8333" stroke="currentColor" stroke-linecap="round" stroke-linejoin="round" stroke-width="2"/>
  <path d="M10.0838 15.8333L8.4002 14.1667M10.0838 15.8333L8.4002 17.5M10.0838 15.8333C5.8756 15.8333 2.3407 14.1667 1.6667 12.5M12.6093 15.6426C15.502 15.1928 17.7219 13.991 18.3333 12.5" stroke="currentColor" stroke-linecap="round" stroke-linejoin="round" stroke-width="2"/>
</svg>
