<svg xmlns="http://www.w3.org/2000/svg" width="20" height="20" viewBox="0 0 20 20" fill="none">
  <path d="M5.8333 7.5H14.1667C15.7243 7.5 16.5032 7.5 17.0833 7.8349 17.4634 8.0544 17.779 8.3699 17.9984 8.75 18.3333 9.3302 18.3333 10.109 18.3333 11.6667 18.3333 13.2243 18.3333 14.0032 17.9984 14.5833 17.779 14.9634 17.4634 15.279 17.0833 15.4984 16.5032 15.8333 15.7243 15.8333 14.1667 15.8333H13.8386C13.2662 15.8333 12.9799 15.8333 12.7122 15.7738 12.3537 15.6943 12.0172 15.5366 11.7265 15.3122 11.5093 15.1445 11.3261 14.9247 10.9597 14.4849 10.6677 14.1345 10.5217 13.9593 10.3541 13.8807 10.1297 13.7754 9.8703 13.7754 9.6459 13.8807 9.4783 13.9593 9.3323 14.1345 9.0403 14.4849 8.6739 14.9247 8.4907 15.1445 8.2735 15.3122 7.9829 15.5366 7.6463 15.6943 7.2878 15.7738 7.0201 15.8333 6.7338 15.8333 6.1614 15.8333H5.8333C4.2756 15.8333 3.4968 15.8333 2.9167 15.4984 2.5366 15.279 2.221 14.9634 2.0016 14.5833 1.6667 14.0032 1.6667 13.2243 1.6667 11.6667 1.6667 10.109 1.6667 9.3302 2.0016 8.75 2.221 8.3699 2.5366 8.0544 2.9167 7.8349 3.4968 7.5 4.2756 7.5 5.8333 7.5Z" stroke="currentColor" stroke-linecap="round" stroke-linejoin="round" stroke-width="2"/>
  <path d="M4.1667 10H5.8333" stroke="currentColor" stroke-linecap="round" stroke-linejoin="round" stroke-width="2"/>
  <path d="M18.3333 10.8333V9.857C18.3333 8.8956 18.3333 8.4149 18.2057 7.967 18.1355 7.7209 18.0373 7.4837 17.9128 7.2601 17.6864 6.8531 17.3465 6.5131 16.6667 5.8333 15.9868 5.1535 15.6469 4.8136 15.2399 4.5871 15.0163 4.4627 14.7791 4.3645 14.533 4.2944 14.0851 4.1667 13.6044 4.1667 12.643 4.1667H7.357C6.3956 4.1667 5.9149 4.1667 5.467 4.2944 5.2209 4.3645 4.9837 4.4627 4.7601 4.5871 4.3531 4.8136 4.0132 5.1535 3.3333 5.8333 2.6535 6.5132 2.3136 6.8531 2.0871 7.2601 1.9627 7.4837 1.8645 7.7209 1.7944 7.967 1.6667 8.4149 1.6667 8.8956 1.6667 9.857V10.8333" stroke="currentColor" stroke-linecap="round" stroke-linejoin="round" stroke-width="2"/>
</svg>
