<svg xmlns="http://www.w3.org/2000/svg" width="20" height="20" viewBox="0 0 20 20" fill="none">
  <path d="M17.9167 10.4167C17.9167 15.019 14.1857 18.75 9.5833 18.75 4.981 18.75 1.25 15.019 1.25 10.4167 1.25 5.8143 4.981 2.0833 9.5833 2.0833 10.5573 2.0833 11.4923 2.2504 12.3611 2.5575" stroke="currentColor" stroke-linecap="round" stroke-width="2"/>
  <path d="M16.25 7.5C16.25 8.6506 15.3173 9.5833 14.1667 9.5833 13.0161 9.5833 12.0833 8.6506 12.0833 7.5 12.0833 6.3494 13.0161 5.4167 14.1667 5.4167 15.3173 5.4167 16.25 6.3494 16.25 7.5ZM16.25 7.5V1.25C16.5278 1.6667 16.75 3.4167 18.75 3.75" stroke="currentColor" stroke-linecap="round" stroke-linejoin="round" stroke-width="2"/>
  <path d="M10.8333 10.4167C10.8333 9.7263 10.2737 9.1667 9.5833 9.1667 8.893 9.1667 8.3333 9.7263 8.3333 10.4167 8.3333 11.107 8.893 11.6667 9.5833 11.6667 10.2737 11.6667 10.8333 11.107 10.8333 10.4167Z" stroke="currentColor" stroke-width="2"/>
</svg>
