<svg xmlns="http://www.w3.org/2000/svg" width="20" height="20" viewBox="0 0 20 20" fill="none">
  <path d="M18.3333 10C18.3333 14.6023 14.6023 18.3333 10 18.3333 5.3976 18.3333 1.6667 14.6023 1.6667 10 1.6667 5.3976 5.3976 1.6667 10 1.6667 14.6023 1.6667 18.3333 5.3976 18.3333 10Z" stroke="currentColor" stroke-width="2"/>
  <path d="M7.5 5C6.357 5.4464 5.4464 6.357 5 7.5" stroke="currentColor" stroke-linecap="round" stroke-width="2"/>
  <path d="M11.6667 10C11.6667 9.0795 10.9205 8.3333 10 8.3333 9.0795 8.3333 8.3333 9.0795 8.3333 10 8.3333 10.9205 9.0795 11.6667 10 11.6667 10.9205 11.6667 11.6667 10.9205 11.6667 10Z" stroke="currentColor" stroke-width="2"/>
</svg>
