<svg xmlns="http://www.w3.org/2000/svg" width="20" height="20" viewBox="0 0 20 20" fill="none">
  <path d="M16.6667 18.3347V13.3563C16.6667 12.5655 16.6667 12.1702 16.5347 11.8586 16.3678 11.4646 16.0557 11.1498 15.6632 10.9796 15.3527 10.8449 14.9573 10.8415 14.1667 10.8347 14.1667 15.0014 10 16.6681 10 16.6681 10 16.6681 5.8333 15.0014 5.8333 10.8347 5.0568 10.8347 4.6685 10.8347 4.3622 10.9616 3.9538 11.1308 3.6294 11.4552 3.4602 11.8636 3.3333 12.1699 3.3333 12.5582 3.3333 13.3347V18.3347" stroke="currentColor" stroke-linecap="round" stroke-linejoin="round" stroke-width="2"/>
  <path d="M10 11.25L11.6667 10.4167V12.0833L10 11.25ZM10 11.25L8.3333 10.4168V12.0835L10 11.25Z" stroke="currentColor" stroke-linecap="round" stroke-linejoin="round" stroke-width="2"/>
  <path d="M12.9167 5.4167V4.5833C12.9167 2.9725 11.6108 1.6667 10 1.6667 8.3892 1.6667 7.0833 2.9725 7.0833 4.5833V5.4167C7.0833 7.0275 8.3892 8.3333 10 8.3333 11.6108 8.3333 12.9167 7.0275 12.9167 5.4167Z" stroke="currentColor" stroke-linecap="round" stroke-linejoin="round" stroke-width="2"/>
</svg>
