<svg xmlns="http://www.w3.org/2000/svg" width="20" height="20" viewBox="0 0 20 20" fill="none">
  <path d="M13.75 17.5V12.9167C13.75 12.5294 13.75 12.3358 13.718 12.1748 13.5865 11.5137 13.0697 10.9968 12.4085 10.8653 12.2475 10.8333 11.6667 10.8333 11.6667 10.8333 11.25 14.9994 7.9167 15.8333 7.9167 15.8333 7.9167 15.8333 4.5833 15 4.1667 10.8333 4.1667 10.8333 3.5859 10.8333 3.4249 10.8653 2.7637 10.9968 2.2469 11.5137 2.1154 12.1748 2.0833 12.3358 2.0833 12.5294 2.0833 12.9167V17.5" stroke="currentColor" stroke-linecap="round" stroke-linejoin="round" stroke-width="2"/>
  <path d="M7.9167 11.2498L9.5833 10.4165V12.0832L7.9167 11.2498ZM7.9167 11.2498L6.25 10.4167V12.0833L7.9167 11.2498Z" stroke="currentColor" stroke-linecap="round" stroke-linejoin="round" stroke-width="2"/>
  <path d="M10.4167 5.7813V5.0521C10.4167 3.6426 9.2974 2.5 7.9167 2.5 6.536 2.5 5.4167 3.6426 5.4167 5.0521V5.7813C5.4167 7.1907 6.536 8.3333 7.9167 8.3333 9.2974 8.3333 10.4167 7.1907 10.4167 5.7813Z" stroke="currentColor" stroke-linecap="round" stroke-linejoin="round" stroke-width="2"/>
  <path d="M17.9167 17.5V12.9167C17.9167 12.5294 17.9167 12.3358 17.8847 12.1748 17.7532 11.5137 17.2363 10.9968 16.5752 10.8653 16.4142 10.8333 16.2206 10.8333 15.8333 10.8333" stroke="currentColor" stroke-linecap="round" stroke-linejoin="round" stroke-width="2"/>
  <path d="M12.0833 2.6452C12.344 2.5512 12.6245 2.5 12.9167 2.5 14.2974 2.5 15.4167 3.6426 15.4167 5.0521V5.7813C15.4167 7.1907 14.2974 8.3333 12.9167 8.3333 12.6245 8.3333 12.344 8.2822 12.0833 8.1881" stroke="currentColor" stroke-linecap="round" stroke-linejoin="round" stroke-width="2"/>
</svg>
