<svg xmlns="http://www.w3.org/2000/svg" width="20" height="20" viewBox="0 0 20 20" fill="none">
  <path d="M5 10.4167L6.4484 8.2441C6.5919 8.0288 6.7836 7.8499 7.0083 7.7215L8.8325 6.6791C9.3016 6.411 9.8736 6.3951 10.3568 6.6368 10.9043 6.9105 11.2215 7.4886 11.4551 8.0543 11.8391 8.9845 12.832 10 15 10" stroke="currentColor" stroke-linecap="round" stroke-linejoin="round" stroke-width="2"/>
  <path d="M10.8333 7.5L9.8143 12.1626M8.75 7.0833L8.1455 9.8038C8.0058 10.4325 8.2408 11.0854 8.7492 11.4808L11.6667 13.75 12.9167 17.5" stroke="currentColor" stroke-linecap="round" stroke-linejoin="round" stroke-width="2"/>
  <path d="M7.9167 13.3333L7.5 14.5833 5.4167 17.0833" stroke="currentColor" stroke-linecap="round" stroke-linejoin="round" stroke-width="2"/>
  <path d="M12.5 3.75C12.5 4.4404 11.9403 5 11.25 5 10.5597 5 10 4.4404 10 3.75 10 3.0596 10.5597 2.5 11.25 2.5 11.9403 2.5 12.5 3.0596 12.5 3.75Z" stroke="currentColor" stroke-linecap="round" stroke-linejoin="round" stroke-width="2"/>
</svg>
