<svg xmlns="http://www.w3.org/2000/svg" width="20" height="20" viewBox="0 0 20 20" fill="none">
  <path d="M10 17.9167H12.5C14.857 17.9167 16.0355 17.9167 16.7678 17.1844 17.5 16.4522 17.5 15.2737 17.5 12.9167V12.0833C17.5 9.7263 17.5 8.5478 16.7678 7.8156 16.0355 7.0833 14.857 7.0833 12.5 7.0833H2.5V10.4167" stroke="currentColor" stroke-linecap="round" stroke-linejoin="round" stroke-width="2"/>
  <path d="M12.5 7.0819V3.4252C12.5 2.6841 11.8992 2.0833 11.1581 2.0833 10.9447 2.0833 10.7343 2.1342 10.5445 2.2318L3.1353 6.0411C2.7452 6.2416 2.5 6.6434 2.5 7.0819" stroke="currentColor" stroke-linecap="round" stroke-linejoin="round" stroke-width="2"/>
  <path d="M14.5833 12.9167C14.8134 12.9167 15 12.7301 15 12.5 15 12.2699 14.8134 12.0833 14.5833 12.0833M14.5833 12.9167C14.3533 12.9167 14.1667 12.7301 14.1667 12.5 14.1667 12.2699 14.3533 12.0833 14.5833 12.0833M14.5833 12.9167V12.0833" stroke="currentColor" stroke-linecap="round" stroke-linejoin="round" stroke-width="2"/>
  <path d="M7.5 12.9167L2.5 17.9167M2.5 12.9167L7.5 17.9167" stroke="currentColor" stroke-linecap="round" stroke-linejoin="round" stroke-width="2"/>
</svg>
