<svg xmlns="http://www.w3.org/2000/svg" width="20" height="20" viewBox="0 0 20 20" fill="none">
  <path d="M1.6667 10C1.6667 6.8573 1.6667 5.286 2.643 4.3096 3.6193 3.3333 5.1906 3.3333 8.3333 3.3333H11.6667C14.8093 3.3333 16.3808 3.3333 17.357 4.3096 18.3333 5.286 18.3333 6.8573 18.3333 10 18.3333 13.1427 18.3333 14.7141 17.357 15.6903 16.3808 16.6667 14.8093 16.6667 11.6667 16.6667H8.3333C5.1906 16.6667 3.6193 16.6667 2.643 15.6903 1.6667 14.7141 1.6667 13.1427 1.6667 10Z" stroke="currentColor" stroke-linecap="round" stroke-linejoin="round" stroke-width="2"/>
  <path d="M1.6667 8.3333H5.1643C5.7598 8.3333 6.0576 8.3333 6.3246 8.4267 6.4877 8.4837 6.6409 8.5657 6.7788 8.6698 7.0045 8.8402 7.1697 9.0878 7.5 9.5833 7.8303 10.0788 7.9955 10.3265 8.2212 10.4969 8.3591 10.601 8.5123 10.683 8.6754 10.74 8.9424 10.8333 9.2402 10.8333 9.8357 10.8333H10.1643C10.7598 10.8333 11.0576 10.8333 11.3246 10.74 11.4877 10.683 11.6409 10.601 11.7788 10.4969 12.0045 10.3265 12.1697 10.0788 12.5 9.5833 12.8303 9.0878 12.9955 8.8402 13.2213 8.6698 13.3591 8.5657 13.5123 8.4837 13.6754 8.4267 13.9424 8.3333 14.2402 8.3333 14.8357 8.3333H18.3333" stroke="currentColor" stroke-linecap="round" stroke-linejoin="round" stroke-width="2"/>
</svg>
