<svg xmlns="http://www.w3.org/2000/svg" width="20" height="20" viewBox="0 0 20 20" fill="none">
  <path d="M10.8333 2.9167H11.6667C12.4417 2.9167 12.8292 2.9167 13.1471 3.0019 14.0097 3.233 14.6837 3.9069 14.9148 4.7696 15 5.0875 15 5.475 15 6.25H4.1667C3.2462 6.25 2.5 5.5038 2.5 4.5833 2.5 3.6629 3.2462 2.9167 4.1667 2.9167H6.6667" stroke="currentColor" stroke-linecap="round" stroke-linejoin="round" stroke-width="2"/>
  <path d="M2.5 4.5833V12.9167C2.5 15.2737 2.5 16.4522 3.2322 17.1844 3.9645 17.9167 5.143 17.9167 7.5 17.9167H12.5C14.857 17.9167 16.0355 17.9167 16.7678 17.1844 17.5 16.4522 17.5 15.2737 17.5 12.9167V11.25C17.5 8.893 17.5 7.7145 16.7678 6.9822 16.0355 6.25 14.857 6.25 12.5 6.25H5.8333" stroke="currentColor" stroke-linecap="round" stroke-linejoin="round" stroke-width="2"/>
  <path d="M17.5 10.4167H15.8333C15.4458 10.4167 15.2521 10.4167 15.0932 10.4593 14.6618 10.5748 14.3248 10.9117 14.2093 11.3432 14.1667 11.5021 14.1667 11.6958 14.1667 12.0833 14.1667 12.4708 14.1667 12.6646 14.2093 12.8235 14.3248 13.2549 14.6618 13.5918 15.0932 13.7074 15.2521 13.75 15.4458 13.75 15.8333 13.75H17.5" stroke="currentColor" stroke-linecap="round" stroke-linejoin="round" stroke-width="2"/>
  <path d="M8.75 2.0833C10.3608 2.0833 11.6667 3.3892 11.6667 5 11.6667 5.4473 11.566 5.8711 11.386 6.25H6.114C5.934 5.8711 5.8333 5.4473 5.8333 5 5.8333 3.3892 7.1392 2.0833 8.75 2.0833Z" stroke="currentColor" stroke-linecap="round" stroke-linejoin="round" stroke-width="2"/>
</svg>
