<svg xmlns="http://www.w3.org/2000/svg" width="20" height="20" viewBox="0 0 20 20" fill="none">
  <path d="M3.3321 11.6695V18.3331" stroke="currentColor" stroke-linecap="round" stroke-linejoin="round" stroke-width="2"/>
  <path d="M3.3321 15.2522L6.632 16.5399C8.7299 17.3586 9.779 17.768 10.526 17.3083 11.2731 16.8485 11.2731 15.7937 11.2731 13.6838V6.6718" stroke="currentColor" stroke-linecap="round" stroke-linejoin="round" stroke-width="2"/>
  <path d="M11.2927 2.4991V1.6669" stroke="currentColor" stroke-linecap="round" stroke-linejoin="round" stroke-width="2"/>
  <path d="M5.8984 6.6717H16.6679M7.7904 5.1755C7.2505 5.6797 7.1439 5.7583 6.996 5.8966 6.784 6.095 6.7115 6.3986 6.7853 6.6789L8.4967 13.1772C8.6084 13.6015 8.9592 13.9214 9.3933 13.9948 10.6389 14.2055 11.9097 14.213 13.155 13.9932 13.5665 13.9205 13.899 13.618 14.0091 13.2163L15.8057 6.6564C15.8766 6.3974 15.8265 6.1123 15.6395 5.919 15.4872 5.7615 15.3805 5.7036 14.8149 5.1755 14.1879 4.5899 13.5877 3.5331 13.3342 3.2123 13.0807 2.8914 12.8857 2.7339 12.5639 2.6612 11.7337 2.4735 10.8718 2.4735 10.0414 2.6612 9.7198 2.7339 9.5538 2.8526 9.2713 3.2123 8.9886 3.5719 8.4175 4.5899 7.7904 5.1755Z" stroke="currentColor" stroke-linecap="round" stroke-linejoin="round" stroke-width="2"/>
</svg>
