<svg xmlns="http://www.w3.org/2000/svg" width="20" height="20" viewBox="0 0 20 20" fill="none">
  <path d="M10 11.6667C8.9058 11.6667 7.9759 10.9637 7.637 9.9849 7.4864 9.55 7.1269 9.1667 6.6667 9.1667 4.7025 9.1667 3.7204 9.1667 3.1102 9.7768 2.5 10.3871 2.5 11.3692 2.5 13.3333 2.5 15.2975 2.5 16.2796 3.1102 16.8898 3.7204 17.5 4.7025 17.5 6.6667 17.5H13.3333C15.2975 17.5 16.2796 17.5 16.8898 16.8898 17.5 16.2796 17.5 15.2975 17.5 13.3333 17.5 11.3692 17.5 10.3871 16.8898 9.7768 16.2796 9.1667 15.2975 9.1667 13.3333 9.1667 12.8731 9.1667 12.5136 9.55 12.363 9.9849 12.0241 10.9637 11.0942 11.6667 10 11.6667Z" stroke="currentColor" stroke-linecap="round" stroke-linejoin="round" stroke-width="2"/>
  <path d="M17.5 14.1667V10C17.5 8.0358 17.5 7.0537 16.8898 6.4435 16.2796 5.8333 15.2975 5.8333 13.3333 5.8333H6.6667C4.7025 5.8333 3.7204 5.8333 3.1102 6.4435 2.5 7.0537 2.5 8.0358 2.5 10V14.1667" stroke="currentColor" stroke-linecap="round" stroke-linejoin="round" stroke-width="2"/>
  <path d="M17.5 10.8333V6.6667C17.5 4.7025 17.5 3.7204 16.8898 3.1102 16.2796 2.5 15.2975 2.5 13.3333 2.5H6.6667C4.7025 2.5 3.7204 2.5 3.1102 3.1102 2.5 3.7204 2.5 4.7025 2.5 6.6667V10.8333" stroke="currentColor" stroke-linecap="round" stroke-linejoin="round" stroke-width="2"/>
</svg>
