<svg xmlns="http://www.w3.org/2000/svg" width="20" height="20" viewBox="0 0 20 20" fill="none">
  <path d="M2.5 7.0833H12.5C14.857 7.0833 16.0355 7.0833 16.7678 7.8156 17.5 8.5478 17.5 9.7263 17.5 12.0833V12.9167C17.5 15.2737 17.5 16.4522 16.7678 17.1844 16.0355 17.9167 14.857 17.9167 12.5 17.9167H7.5C5.143 17.9167 3.9645 17.9167 3.2322 17.1844 2.5 16.4522 2.5 15.2737 2.5 12.9167V7.0833Z" stroke="currentColor" stroke-linecap="square" stroke-linejoin="round" stroke-width="2"/>
  <path d="M12.5 7.0819V3.4252C12.5 2.6841 11.8992 2.0833 11.1581 2.0833 10.9447 2.0833 10.7343 2.1342 10.5445 2.2318L3.1353 6.0411C2.7452 6.2416 2.5 6.6434 2.5 7.0819" stroke="currentColor" stroke-linecap="round" stroke-linejoin="round" stroke-width="2"/>
</svg>
