<svg xmlns="http://www.w3.org/2000/svg" width="20" height="20" viewBox="0 0 20 20" fill="none">
  <path d="M1.6667 1.6667L18.3333 18.3333" stroke="currentColor" stroke-linecap="round" stroke-linejoin="round" stroke-width="2"/>
  <path d="M5.8333 5.8333H4.1667C3.2462 5.8333 2.5 5.0871 2.5 4.1666 2.5 3.7064 2.6866 3.2897 2.9882 2.9881" stroke="currentColor" stroke-linecap="round" stroke-linejoin="round" stroke-width="2"/>
  <path d="M17.5002 10H15.8335C15.446 10 15.2523 10 15.0932 10.0426 14.6619 10.1582 14.325 10.4951 14.2094 10.9265" stroke="currentColor" stroke-linecap="round" stroke-linejoin="round" stroke-width="2"/>
  <path d="M9.1667 5.8333H12.5C14.857 5.8333 16.0355 5.8333 16.7678 6.5656 17.5 7.2978 17.5 8.4763 17.5 10.8333V14.1667" stroke="currentColor" stroke-linecap="round" stroke-linejoin="round" stroke-width="2"/>
  <path d="M2.5 4.1667V12.5C2.5 14.857 2.5 16.0355 3.2322 16.7678 3.9645 17.5 5.143 17.5 7.5 17.5H17.5" stroke="currentColor" stroke-linecap="round" stroke-linejoin="round" stroke-width="2"/>
  <path d="M5.8333 2.5H11.6667C12.4417 2.5 12.8292 2.5 13.1471 2.5852 14.0097 2.8164 14.6837 3.4902 14.9148 4.3529 15 4.6709 15 5.0584 15 5.8333" stroke="currentColor" stroke-linecap="round" stroke-linejoin="round" stroke-width="2"/>
</svg>
