<svg xmlns="http://www.w3.org/2000/svg" width="20" height="20" viewBox="0 0 20 20" fill="none">
  <path d="M15.4307 1.6788H6.57C5.7048 1.6788 4.5328 1.5268 3.9326 2.2989 3.5769 2.7565 3.5769 3.432 3.5769 4.7831 3.5769 5.865 5.0328 6.6756 5.0164 7.0915 5 7.508 3.5769 8.3387 3.5769 9.4468V14.6092C3.5769 15.1038 3.3433 15.487 3.1331 15.9231 2.6123 17.0033 2.3519 17.5435 2.5872 17.9384 2.8226 18.3333 3.4048 18.3333 4.5693 18.3333H13.2116C14.7255 18.3333 15.4825 18.3333 15.9527 17.8455 16.4231 17.3577 16.4231 16.5727 16.4231 15.0024V5.4029C16.4231 4.9083 16.6567 4.5252 16.8669 4.0891 17.3878 3.0088 17.6481 2.4687 17.4127 2.0737 17.1774 1.6788 16.5952 1.6788 15.4307 1.6788Z" stroke="currentColor" stroke-linecap="round" stroke-width="2"/>
  <path d="M12.5 15H7.5" stroke="currentColor" stroke-linecap="round" stroke-width="2"/>
  <path d="M11.25 6.25C11.25 6.9404 10.6903 7.5 10 7.5 9.3097 7.5 8.75 6.9404 8.75 6.25 8.75 5.5596 9.3097 5 10 5 10.6903 5 11.25 5.5596 11.25 6.25Z" stroke="currentColor" stroke-width="2"/>
  <path d="M8.2427 9.6297C7.7842 9.8929 6.5821 10.4304 7.3143 11.1031 7.672 11.4317 8.0703 11.6667 8.5711 11.6667H11.4289C11.9297 11.6667 12.3281 11.4317 12.6858 11.1031 13.4179 10.4304 12.2157 9.8929 11.7573 9.6297 10.6821 9.0123 9.3179 9.0123 8.2427 9.6297Z" stroke="currentColor" stroke-width="2"/>
</svg>
