<svg xmlns="http://www.w3.org/2000/svg" width="20" height="20" viewBox="0 0 20 20" fill="none">
  <path d="M5 16.6667V18.3333M15 16.6667V18.3333" stroke="currentColor" stroke-linecap="round" stroke-linejoin="round" stroke-width="2"/>
  <path d="M2.5 11.6667V6.6667C2.5 4.3096 2.5 3.1311 3.2753 2.3989 4.0506 1.6667 5.2984 1.6667 7.7941 1.6667H12.2059C14.7016 1.6667 15.9494 1.6667 16.7247 2.3989 17.5 3.1311 17.5 4.3096 17.5 6.6667V11.6667C17.5 14.0237 17.5 15.2022 16.7247 15.9344 15.9494 16.6667 14.7016 16.6667 12.2059 16.6667H7.7941C5.2984 16.6667 4.0506 16.6667 3.2753 15.9344 2.5 15.2022 2.5 14.0237 2.5 11.6667Z" stroke="currentColor" stroke-linecap="round" stroke-linejoin="round" stroke-width="2"/>
  <path d="M10 16.6667V1.6667" stroke="currentColor" stroke-linecap="round" stroke-linejoin="round" stroke-width="2"/>
  <path d="M7.5 8.3333V9.1667" stroke="currentColor" stroke-linecap="round" stroke-linejoin="round" stroke-width="2"/>
  <path d="M12.5 8.3333V9.1667" stroke="currentColor" stroke-linecap="round" stroke-linejoin="round" stroke-width="2"/>
</svg>
