<svg xmlns="http://www.w3.org/2000/svg" width="20" height="20" viewBox="0 0 20 20" fill="none">
  <path d="M5.8333 18.3333V11.6667C5.8333 10.0953 5.8333 9.3097 6.3215 8.8215 6.8096 8.3333 7.5953 8.3333 9.1667 8.3333H10.8333C12.4047 8.3333 13.1903 8.3333 13.6785 8.8215 14.1667 9.3097 14.1667 10.0953 14.1667 11.6667V18.3333H5.8333Z" stroke="currentColor" stroke-linecap="round" stroke-linejoin="round" stroke-width="2"/>
  <path d="M5.8333 11.6667H14.1667" stroke="currentColor" stroke-linecap="round" stroke-linejoin="round" stroke-width="2"/>
  <path d="M5.8333 15H14.1667" stroke="currentColor" stroke-linecap="round" stroke-linejoin="round" stroke-width="2"/>
  <path d="M15.1072 4.36L12.6073 2.831C11.338 2.0548 10.7034 1.6667 10 1.6667 9.2966 1.6667 8.662 2.0548 7.3928 2.831L4.8928 4.36C3.7236 5.0751 3.139 5.4326 2.8195 6.0028 2.5 6.5729 2.5 7.2586 2.5 8.6298V13.3293C2.5 15.6883 2.5 16.8677 3.2322 17.6005 3.9645 18.3333 5.143 18.3333 7.5 18.3333H12.5C14.857 18.3333 16.0355 18.3333 16.7678 17.6005 17.5 16.8677 17.5 15.6883 17.5 13.3293V8.6298C17.5 7.2586 17.5 6.5729 17.1805 6.0028 16.861 5.4326 16.2764 5.0751 15.1072 4.36Z" stroke="currentColor" stroke-linecap="round" stroke-linejoin="round" stroke-width="2"/>
</svg>
