<svg xmlns="http://www.w3.org/2000/svg" width="20" height="20" viewBox="0 0 20 20" fill="none">
  <path d="M2.5 11.6667V8.3333C2.5 5.1906 2.5 3.6193 3.4763 2.643 4.4526 1.6667 6.024 1.6667 9.1667 1.6667H10.8333C13.976 1.6667 15.5474 1.6667 16.5237 2.643 17.5 3.6193 17.5 5.1906 17.5 8.3333V11.6667C17.5 14.8093 17.5 16.3808 16.5237 17.357 15.5474 18.3333 13.976 18.3333 10.8333 18.3333H9.1667C6.024 18.3333 4.4526 18.3333 3.4763 17.357 2.5 16.3808 2.5 14.8093 2.5 11.6667Z" stroke="currentColor" stroke-linecap="round" stroke-linejoin="round" stroke-width="2"/>
  <path d="M14.1667 10.8333C14.1667 13.1345 12.3012 15 10 15 7.6988 15 5.8333 13.1345 5.8333 10.8333 5.8333 8.5322 7.6988 6.6667 10 6.6667 12.3012 6.6667 14.1667 8.5322 14.1667 10.8333Z" stroke="currentColor" stroke-linecap="round" stroke-linejoin="round" stroke-width="2"/>
  <path d="M5.8333 10.8333C7.2222 9.7223 8.6111 9.7223 10 10.8333 11.3889 11.9444 12.7777 11.9444 14.1667 10.8333" stroke="currentColor" stroke-linecap="round" stroke-linejoin="round" stroke-width="2"/>
  <path d="M5.9375 5H5.8333M6.0417 5C6.0417 5.1151 5.9484 5.2083 5.8333 5.2083 5.7183 5.2083 5.625 5.1151 5.625 5 5.625 4.8849 5.7183 4.7917 5.8333 4.7917 5.9484 4.7917 6.0417 4.8849 6.0417 5Z" stroke="currentColor" stroke-linecap="round" stroke-linejoin="round" stroke-width="2"/>
</svg>
