<svg xmlns="http://www.w3.org/2000/svg" width="20" height="20" viewBox="0 0 20 20" fill="none">
  <path d="M2.5 4.1667H7.0247C7.582 4.1667 8.1023 3.8882 8.4114 3.4245L9.0886 2.4088C9.3977 1.9452 9.9181 1.6667 10.4753 1.6667H14.2154C14.9328 1.6667 15.5697 2.1257 15.7965 2.8063L16.25 4.1667M17.5 4.1667H6.6667" stroke="currentColor" stroke-linecap="round" stroke-width="2"/>
  <path d="M16.25 4.1667L15.8333 9.5833M3.75 4.1667L4.2538 12.9468C4.3829 15.0891 4.4474 16.1603 4.9822 16.9305 5.2467 17.3113 5.5873 17.6328 5.9825 17.8743 6.4677 18.1709 7.0529 18.2875 7.9167 18.3333" stroke="currentColor" stroke-linecap="round" stroke-width="2"/>
  <path d="M9.1667 12.915L10.1136 14.1365C10.59 12.3582 12.4178 11.303 14.196 11.7794 15.1063 12.0233 15.8271 12.6213 16.25 13.3855M17.5 17.0817L16.5531 15.8619C16.0766 17.6402 14.2488 18.6954 12.4706 18.2189 11.5815 17.9808 10.8731 17.4047 10.4466 16.6658" stroke="currentColor" stroke-linecap="round" stroke-linejoin="round" stroke-width="2"/>
</svg>
