<svg xmlns="http://www.w3.org/2000/svg" width="20" height="20" viewBox="0 0 20 20" fill="none">
  <path d="M5 10C5 7.643 5 6.4645 5.7322 5.7322 6.4645 5 7.643 5 10 5 12.357 5 13.5355 5 14.2678 5.7322 15 6.4645 15 7.643 15 10 15 12.357 15 13.5355 14.2678 14.2678 13.5355 15 12.357 15 10 15 7.643 15 6.4645 15 5.7322 14.2678 5 13.5355 5 12.357 5 10Z" stroke="currentColor" stroke-width="2"/>
  <path d="M13.3333 5L13.1063 4.092C12.8276 2.977 12.6882 2.4195 12.2916 2.075 12.2477 2.0369 12.2019 2.0012 12.1543 1.9679 11.724 1.6667 11.1493 1.6667 10 1.6667 8.8507 1.6667 8.276 1.6667 7.8456 1.9679 7.798 2.0012 7.7522 2.0369 7.7084 2.075 7.3118 2.4195 7.1724 2.977 6.8937 4.092L6.6667 5" stroke="currentColor" stroke-width="2"/>
  <path d="M6.6667 15L6.8937 15.908C7.1724 17.023 7.3118 17.5805 7.7084 17.925 7.7522 17.9631 7.798 17.9988 7.8456 18.0322 8.276 18.3333 8.8507 18.3333 10 18.3333 11.1493 18.3333 11.724 18.3333 12.1543 18.0322 12.2019 17.9988 12.2477 17.9631 12.2916 17.925 12.6882 17.5805 12.8276 17.023 13.1063 15.908L13.3333 15" stroke="currentColor" stroke-width="2"/>
  <path d="M10 8.3333V10.0042L10.8333 10.8333" stroke="currentColor" stroke-linecap="round" stroke-linejoin="round" stroke-width="2"/>
</svg>
