<svg xmlns="http://www.w3.org/2000/svg" width="20" height="20" viewBox="0 0 20 20" fill="none">
  <path d="M10.4167 4.5833H8.75C7.9643 4.5833 7.5715 4.5833 7.3274 4.8274 7.0833 5.0715 7.0833 5.4643 7.0833 6.25V7.9167C7.0833 8.7023 7.0833 9.0952 7.3274 9.3393 7.5715 9.5833 7.9643 9.5833 8.75 9.5833H10.4167C11.2023 9.5833 11.5952 9.5833 11.8393 9.3393 12.0833 9.0952 12.0833 8.7023 12.0833 7.9167V6.25C12.0833 5.4643 12.0833 5.0715 11.8393 4.8274 11.5952 4.5833 11.2023 4.5833 10.4167 4.5833Z" stroke="currentColor" stroke-linejoin="round" stroke-width="2"/>
  <path d="M10.8333 9.5833H8.3333V17.9167H10.8333V9.5833Z" stroke="currentColor" stroke-linecap="round" stroke-linejoin="round" stroke-width="2"/>
  <path d="M6.25 17.9167H12.9167" stroke="currentColor" stroke-linecap="round" stroke-linejoin="round" stroke-width="2"/>
  <path d="M12.0833 5.8333H15.4167C16.7974 5.8333 17.9167 6.9526 17.9167 8.3333V10.4167H15.4167V8.3333H12.0833V5.8333Z" stroke="currentColor" stroke-linejoin="round" stroke-width="2"/>
  <path d="M12.0833 2.0833H7.5829C6.5315 2.0833 6.0058 2.0833 5.5916 2.3525 5.1774 2.6217 4.9639 3.1021 4.5369 4.0629L2.0833 9.5833" stroke="currentColor" stroke-linecap="round" stroke-linejoin="round" stroke-width="2"/>
  <path d="M16.6667 12.9167L17.1318 12.4992C17.0133 12.3672 16.8442 12.2917 16.6667 12.2917 16.4892 12.2917 16.3201 12.3672 16.2015 12.4992L16.6667 12.9167ZM17.2917 15C17.2917 15.3452 17.0118 15.625 16.6667 15.625V16.875C17.7022 16.875 18.5417 16.0355 18.5417 15H17.2917ZM16.6667 15.625C16.3215 15.625 16.0417 15.3452 16.0417 15H14.7917C14.7917 16.0355 15.6312 16.875 16.6667 16.875V15.625ZM16.0417 15C16.0417 15.0025 16.0422 14.9742 16.0643 14.9072 16.0852 14.8433 16.1192 14.7635 16.1677 14.6693 16.2652 14.4799 16.402 14.2689 16.5491 14.0643 16.6946 13.8621 16.8414 13.6781 16.9526 13.544 17.0078 13.4772 17.0537 13.4237 17.0853 13.3872 17.101 13.369 17.1132 13.3552 17.1212 13.3461 17.1252 13.3416 17.1281 13.3383 17.1299 13.3362 17.1308 13.3353 17.1314 13.3346 17.1318 13.3342 17.1319 13.334 17.132 13.3339 17.132 13.3339 17.132 13.3339 17.132 13.3339 17.132 13.3339 17.132 13.3339 17.1319 13.334 17.1319 13.334 17.1319 13.334 17.1318 13.3341 16.6667 12.9167 16.2015 12.4992 16.2014 12.4993 16.2014 12.4993 16.2013 12.4994 16.2013 12.4995 16.2013 12.4995 16.2012 12.4997 16.201 12.4998 16.2008 12.4999 16.2006 12.5002 16.2003 12.5007 16.1997 12.5012 16.1989 12.5022 16.1978 12.5035 16.1963 12.5051 16.1933 12.5084 16.1893 12.513 16.1841 12.5188 16.1738 12.5306 16.1591 12.5473 16.1407 12.5685 16.1038 12.611 16.0521 12.6716 15.9902 12.7463 15.8669 12.8949 15.7012 13.1023 15.5343 13.3346 15.3688 13.5645 15.1932 13.8313 15.0563 14.0972 14.9298 14.3429 14.7917 14.6711 14.7917 15H16.0417ZM16.6667 12.9167C16.2015 13.3341 16.2014 13.334 16.2014 13.334 16.2014 13.334 16.2013 13.3339 16.2013 13.3339 16.2013 13.3339 16.2013 13.3339 16.2013 13.3339 16.2013 13.3339 16.2014 13.334 16.2016 13.3342 16.2019 13.3346 16.2025 13.3353 16.2034 13.3362 16.2053 13.3383 16.2082 13.3416 16.2122 13.3461 16.2202 13.3552 16.2323 13.369 16.2481 13.3872 16.2797 13.4237 16.3255 13.4772 16.3808 13.544 16.4919 13.6781 16.6388 13.8621 16.7843 14.0643 16.9313 14.2689 17.0682 14.4799 17.1657 14.6693 17.2142 14.7635 17.2482 14.8433 17.2691 14.9072 17.2911 14.9742 17.2917 15.0025 17.2917 15H18.5417C18.5417 14.6711 18.4036 14.3429 18.2771 14.0972 18.1402 13.8313 17.9645 13.5645 17.7991 13.3346 17.6321 13.1023 17.4664 12.8949 17.3432 12.7463 17.2813 12.6716 17.2295 12.611 17.1927 12.5685 17.1743 12.5473 17.1596 12.5306 17.1493 12.5188 17.1441 12.513 17.14 12.5084 17.1371 12.5051 17.1356 12.5035 17.1344 12.5022 17.1336 12.5012 17.1331 12.5007 17.1328 12.5002 17.1325 12.4999 17.1323 12.4998 17.1322 12.4997 17.1321 12.4995 17.1321 12.4995 17.132 12.4994 17.1319 12.4993 17.1319 12.4993 17.1318 12.4992 16.6667 12.9167Z" fill="currentColor"/>
  <path d="M9.5833 2.0833V4.5833" stroke="currentColor" stroke-linecap="round" stroke-linejoin="round" stroke-width="2"/>
</svg>
