<svg xmlns="http://www.w3.org/2000/svg" width="20" height="20" viewBox="0 0 20 20" fill="none">
  <path d="M13.239 3.3971C14.2907 4.6267 14.9343 6.2778 14.9343 8.0931 14.9343 11.8933 12.1137 14.974 8.6343 14.974 6.7014 14.974 5.0322 14.0907 3.8985 12.6868" stroke="currentColor" stroke-linecap="round" stroke-width="2"/>
  <path d="M13.6813 2.9773L11.1302 5.3461C11.0555 5.4155 11.0605 5.5349 11.1281 5.6112 11.6923 6.249 11.7067 7.6191 11.0596 8.4755 10.3712 9.3863 9.3468 9.2628 8.9783 9.0732L8.7696 9.6596C8.6906 9.8815 8.4676 10.0183 8.2339 9.9882L6.8656 9.812C6.7616 9.7986 6.6574 9.8348 6.5841 9.9098L4.1496 12.4029 2.9839 13.6488C2.2688 14.4132 2.3376 15.6278 3.2528 16.1359 6.1472 17.7428 10.7972 18.6098 14.8688 14.7799 18.6313 10.8916 17.674 6.1731 16.1925 3.2976 15.7033 2.3482 14.464 2.2505 13.6813 2.9773Z" stroke="currentColor" stroke-linecap="round" stroke-linejoin="round" stroke-width="2"/>
</svg>
