<svg xmlns="http://www.w3.org/2000/svg" width="20" height="20" viewBox="0 0 20 20" fill="none">
  <path d="M7.0999 7.2572C7.9002 7.6341 7.7668 8.6703 7.6001 9.1414 8.6253 7.1562 11.5256 5.018 11.5256 8.5817 11.7766 8.1815 12.5295 7.2857 13.5334 6.9048 14.7884 6.4286 15.7288 7.3809 14.2317 8.8095 14.2317 8.8095 13.4832 9.5238 12.7347 10.9524 11.9862 12.3809 9.9901 13.8095 9.3504 10.5543 7.5999 14.7936 5.5995 13.6162 5.0993 10.79 4.5992 7.9638 6.0996 6.7862 7.0999 7.2572Z" stroke="currentColor" stroke-linecap="round" stroke-linejoin="round" stroke-width="2"/>
  <path d="M2.0833 10C2.0833 6.268 2.0833 4.4021 3.2427 3.2427 4.4021 2.0833 6.268 2.0833 10 2.0833 13.7319 2.0833 15.5979 2.0833 16.7573 3.2427 17.9167 4.4021 17.9167 6.268 17.9167 10 17.9167 13.7319 17.9167 15.5979 16.7573 16.7573 15.5979 17.9167 13.7319 17.9167 10 17.9167 6.268 17.9167 4.4021 17.9167 3.2427 16.7573 2.0833 15.5979 2.0833 13.7319 2.0833 10Z" stroke="currentColor" stroke-linejoin="round" stroke-width="2"/>
</svg>
