<svg xmlns="http://www.w3.org/2000/svg" width="20" height="20" viewBox="0 0 20 20" fill="none">
  <path d="M15 9.1667C15 8.4854 15 7.8588 14.8732 7.5526 14.7462 7.2463 14.5054 7.0054 14.0237 6.5237L10.0766 2.5766C9.6608 2.1608 9.453 1.953 9.1954 1.8298 9.1418 1.8042 9.087 1.7814 9.031 1.7617 8.7617 1.6667 8.4678 1.6667 7.8799 1.6667 5.1757 1.6667 3.8236 1.6667 2.9078 2.4051 2.7228 2.5542 2.5542 2.7228 2.4051 2.9078 1.6667 3.8236 1.6667 5.1757 1.6667 7.8799V11.6667C1.6667 14.8093 1.6667 16.3808 2.643 17.357 3.6193 18.3333 5.1906 18.3333 8.3333 18.3333H15M9.1667 2.0833V2.5C9.1667 4.857 9.1667 6.0355 9.8989 6.7678 10.6312 7.5 11.8097 7.5 14.1667 7.5H14.5833" stroke="currentColor" stroke-linecap="round" stroke-linejoin="round" stroke-width="2"/>
  <path d="M5 11.6667V15.8333L6.6667 13.75 8.3333 15.8333V11.6667M10.4167 15.8333L11.875 11.6667H12.2917L13.75 15.8333M11.25 14.5833H12.9167M15 11.6667L16.4583 15.8333H16.875L18.3333 11.6667" stroke="currentColor" stroke-linecap="round" stroke-linejoin="round" stroke-width="2"/>
</svg>
