<svg xmlns="http://www.w3.org/2000/svg" width="20" height="20" viewBox="0 0 20 20" fill="none">
  <path d="M15.7628 9.7498L14.4775 13.1928C13.8789 14.7963 13.5796 15.5981 13.0908 16.1475 12.3433 16.9876 11.2669 17.479 10.1291 17.4996 9.385 17.513 8.5653 17.2221 6.9258 16.6403 6.0659 16.3352 5.636 16.1826 5.268 15.9546 4.7066 15.6068 4.2427 15.1278 3.9181 14.5609 3.7052 14.1893 3.5729 13.7614 3.3081 12.9056L2.1415 9.1344C1.9623 8.555 2.2071 7.9296 2.7368 7.6141 3.429 7.2017 4.3331 7.4681 4.6746 8.1852L5.4536 9.8207 7.6469 3.9452C7.8751 3.334 8.5683 3.0189 9.1952 3.2413 9.8221 3.4638 10.1453 4.1396 9.9171 4.7509M9.9171 4.7509L10.468 3.2752C10.6962 2.664 11.3893 2.3489 12.0162 2.5714 12.6431 2.7938 12.9663 3.4696 12.7382 4.0809L12.1873 5.5565M9.9171 4.7509L8.6777 8.071M12.1873 5.5565C12.4155 4.9453 13.1087 4.6301 13.7355 4.8526 14.3624 5.075 14.6857 5.7509 14.4575 6.3621L13.9067 7.8377M12.1873 5.5565L10.9478 8.8766M15.4882 10.4878L16.1768 8.6433C16.405 8.0321 16.0818 7.3563 15.4548 7.1338 14.828 6.9113 14.1348 7.2265 13.9067 7.8377M13.9067 7.8377L13.2181 9.6823" stroke="currentColor" stroke-linecap="round" stroke-linejoin="round" stroke-width="2"/>
  <path d="M17.7756 11.6667C18.2308 13.0295 17.5478 14.5219 16.25 15" stroke="currentColor" stroke-linecap="round" stroke-width="2"/>
</svg>
