<svg xmlns="http://www.w3.org/2000/svg" width="20" height="20" viewBox="0 0 20 20" fill="none">
  <path d="M11.7704 4.791C11.9986 4.1662 12.6918 3.8441 13.3187 4.0715 13.9457 4.2989 14.2689 4.9897 14.0408 5.6145L13.4898 7.1229M11.7704 4.791L12.3213 3.2826C12.5495 2.6579 12.2263 1.967 11.5993 1.7396 10.9723 1.5122 10.2792 1.8343 10.051 2.4591L9.638 3.5905M11.7704 4.791L10.2555 8.9391M9.638 3.5905C9.8658 2.9658 9.5426 2.2753 8.9158 2.0479 8.2889 1.8205 7.5957 2.1427 7.3675 2.7674L5.0366 9.1493 4.2581 7.4786C3.9165 6.7456 3.0124 6.4732 2.3201 6.8947 1.7905 7.2173 1.5456 7.8566 1.7249 8.4488L3.1825 12.9049C3.4614 13.7575 3.3711 14.8829 3.0633 15.7256M9.638 3.5905L8.2608 7.3614M10.2527 18.3333L10.5734 17.455C10.7199 17.054 11.0222 16.7303 11.3975 16.5248 11.8315 16.2871 12.3912 15.9435 12.6747 15.6177 13.1636 15.0561 13.4629 14.2365 14.0616 12.5974L15.7602 7.9464C15.9883 7.3216 15.6651 6.6308 15.0382 6.4034 14.4113 6.176 13.718 6.4981 13.4898 7.1229M12.2503 10.5168L13.4898 7.1229" stroke="currentColor" stroke-linecap="round" stroke-linejoin="round" stroke-width="2"/>
  <path d="M17.3589 10.8333C17.8142 12.1962 17.1312 13.6886 15.8333 14.1667" stroke="currentColor" stroke-linecap="round" stroke-width="2"/>
</svg>
