<svg xmlns="http://www.w3.org/2000/svg" width="20" height="20" viewBox="0 0 20 20" fill="none">
  <path d="M13.6451 7.5008H13.5409M8.2285 7.5008H8.1243M13.7492 7.5008C13.7492 7.6159 13.656 7.7092 13.5409 7.7092 13.4259 7.7092 13.3326 7.6159 13.3326 7.5008 13.3326 7.3858 13.4259 7.2925 13.5409 7.2925 13.656 7.2925 13.7492 7.3858 13.7492 7.5008ZM8.3326 7.5008C8.3326 7.6159 8.2393 7.7092 8.1243 7.7092 8.0092 7.7092 7.916 7.6159 7.916 7.5008 7.916 7.3858 8.0092 7.2925 8.1243 7.2925 8.2393 7.2925 8.3326 7.3858 8.3326 7.5008Z" stroke="currentColor" stroke-linecap="round" stroke-linejoin="round" stroke-width="2"/>
  <path d="M13.3326 10.8342C12.8336 11.5814 11.9009 12.0842 10.8326 12.0842 9.7643 12.0842 8.8317 11.5814 8.3326 10.8342" stroke="currentColor" stroke-linecap="round" stroke-linejoin="round" stroke-width="2"/>
  <path d="M9.1676 15.8325C9.1676 16.753 8.4214 17.4992 7.5009 17.4992 6.5804 17.4992 5.8342 16.753 5.8342 15.8325 5.8342 14.9121 6.5804 14.1658 7.5009 14.1658 8.4214 14.1658 9.1676 14.9121 9.1676 15.8325Z" stroke="currentColor" stroke-linecap="round" stroke-linejoin="round" stroke-width="2"/>
  <path d="M12.5009 15.8325C12.5009 16.753 13.2471 17.4992 14.1676 17.4992 15.0881 17.4992 15.8343 16.753 15.8343 15.8325 15.8343 15.3356 15.6168 14.8895 15.2718 14.5842" stroke="currentColor" stroke-linecap="round" stroke-linejoin="round" stroke-width="2"/>
  <path d="M9.4 15.6796C9.8619 15.7808 10.3418 15.8342 10.834 15.8342 14.5159 15.8342 17.5007 12.8494 17.5007 9.1675 17.5007 5.4856 14.5159 2.5008 10.834 2.5008 7.1521 2.5008 4.1673 5.4856 4.1673 9.1675 4.1673 9.9469 3.9996 11.5017 2.4993 12.2518 3.2081 13.8466 4.4306 14.7716 5.8342 15.3038" stroke="currentColor" stroke-linecap="round" stroke-linejoin="round" stroke-width="2"/>
</svg>
