<svg xmlns="http://www.w3.org/2000/svg" width="20" height="20" viewBox="0 0 20 20" fill="none">
  <path d="M2.5 10C2.5 6.4645 2.5 4.6967 3.5983 3.5983 4.6967 2.5 6.4645 2.5 10 2.5 13.5355 2.5 15.3033 2.5 16.4017 3.5983 17.5 4.6967 17.5 6.4645 17.5 10 17.5 13.5355 17.5 15.3033 16.4017 16.4017 15.3033 17.5 13.5355 17.5 10 17.5 6.4645 17.5 4.6967 17.5 3.5983 16.4017 2.5 15.3033 2.5 13.5355 2.5 10Z" stroke="currentColor" stroke-linecap="round" stroke-linejoin="round" stroke-width="2"/>
  <path d="M2.9167 6.6667H17.0833" stroke="currentColor" stroke-linecap="round" stroke-linejoin="round" stroke-width="2"/>
  <path d="M10.8333 10L14.1667 10" stroke="currentColor" stroke-linecap="round" stroke-linejoin="round" stroke-width="2"/>
  <path d="M10.8333 13.3333H12.5" stroke="currentColor" stroke-linecap="round" stroke-linejoin="round" stroke-width="2"/>
  <path d="M7.5 6.6667V17.5" stroke="currentColor" stroke-linecap="round" stroke-linejoin="round" stroke-width="2"/>
</svg>
