<svg xmlns="http://www.w3.org/2000/svg" width="20" height="20" viewBox="0 0 20 20" fill="none">
  <path d="M1.6667 12.9168V13.3334C1.6667 14.1192 1.6667 14.5121 2.0024 14.762 2.3382 15.0119 2.6599 14.9155 3.3035 14.7228 7.0833 13.5906 11.25 10.4168 11.25 10.4168L10.1023 12.5353C9.5068 13.6346 9.2091 14.1842 9.4496 14.5921 9.6901 15.0001 10.3119 15.0001 11.5555 15.0001H12.6398C13.1243 15.0001 13.3666 15.0001 13.5633 14.8811 13.76 14.7621 13.8737 14.5467 14.1013 14.116L17.6224 7.4493C18.2003 6.3554 18.4891 5.8084 18.2479 5.4042 18.0068 5.0001 17.3915 5.0001 16.161 5.0001H14.7617C14.2639 5.0001 14.015 5.0001 13.815 5.1245 13.615 5.249 13.5038 5.4731 13.2811 5.9214L13.2811 5.9214 12.0833 8.3331 11.8492 6.4597C11.7622 5.7646 11.7188 5.417 11.4825 5.2084 11.2462 4.9998 10.8959 4.9998 10.1953 4.9998L9.2214 5.0001C8.6538 5.0001 8.3701 5.0001 8.1592 5.142 7.9482 5.2839 7.834 5.5648 7.6054 6.1266 6.8217 8.0529 5.5073 10.2432 3.3054 10.9872 2.4213 11.2858 1.9793 11.4351 1.823 11.6529 1.6667 11.8707 1.6667 12.2194 1.6667 12.9168Z" stroke="currentColor" stroke-linejoin="round" stroke-width="2"/>
  <path d="M1.6667 6.6665V7.0831C1.6667 7.8688 1.6667 8.2616 1.9107 8.5057 2.1548 8.7498 2.5477 8.7498 3.3333 8.7498H3.75C4.5357 8.7498 4.9285 8.7498 5.1726 8.5057 5.4167 8.2616 5.4167 7.8688 5.4167 7.0831V6.6665C5.4167 5.8808 5.4167 5.488 5.1726 5.2439 4.9285 4.9998 4.5357 4.9998 3.75 4.9998H3.3333C2.5477 4.9998 2.1548 4.9998 1.9107 5.2439 1.6667 5.488 1.6667 5.8808 1.6667 6.6665Z" stroke="currentColor" stroke-linejoin="round" stroke-width="2"/>
</svg>
