<svg xmlns="http://www.w3.org/2000/svg" width="20" height="20" viewBox="0 0 20 20" fill="none">
  <path d="M4.2183 10.8333C3.1936 11.402 2.5 12.495 2.5 13.75 2.5 15.5909 3.9924 17.0833 5.8333 17.0833 7.6743 17.0833 9.1667 15.5909 9.1667 13.75H14.1667" stroke="currentColor" stroke-linecap="round" stroke-linejoin="round" stroke-width="2"/>
  <path d="M10 6.25L12.5476 10.8356C13.0269 10.5687 13.5791 10.4167 14.1667 10.4167 16.0076 10.4167 17.5 11.9091 17.5 13.75 17.5 15.5909 16.0076 17.0833 14.1667 17.0833 13.3784 17.0833 12.654 16.8097 12.0833 16.3522" stroke="currentColor" stroke-linecap="round" stroke-linejoin="round" stroke-width="2"/>
  <path d="M10 7.0833C10.4603 7.0833 10.8333 6.7102 10.8333 6.25 10.8333 5.7898 10.4603 5.4167 10 5.4167M10 7.0833C9.5397 7.0833 9.1667 6.7102 9.1667 6.25 9.1667 5.7898 9.5397 5.4167 10 5.4167M10 7.0833V5.4167" stroke="currentColor" stroke-width="2"/>
  <path d="M5.8333 14.5833C6.2936 14.5833 6.6667 14.2103 6.6667 13.75 6.6667 13.2897 6.2936 12.9167 5.8333 12.9167M5.8333 14.5833C5.3731 14.5833 5 14.2103 5 13.75 5 13.2897 5.3731 12.9167 5.8333 12.9167M5.8333 14.5833V12.9167" stroke="currentColor" stroke-width="2"/>
  <path d="M14.1667 14.5833C14.6269 14.5833 15 14.2103 15 13.75 15 13.2897 14.6269 12.9167 14.1667 12.9167M14.1667 14.5833C13.7064 14.5833 13.3333 14.2103 13.3333 13.75 13.3333 13.2897 13.7064 12.9167 14.1667 12.9167M14.1667 14.5833V12.9167" stroke="currentColor" stroke-width="2"/>
  <path d="M13.3333 6.25C13.3333 4.4091 11.8409 2.9167 10 2.9167 8.1591 2.9167 6.6667 4.4091 6.6667 6.25 6.6667 7.5033 7.3584 8.5951 8.3809 9.1644L5.8333 13.75" stroke="currentColor" stroke-linecap="round" stroke-linejoin="round" stroke-width="2"/>
</svg>
