<svg xmlns="http://www.w3.org/2000/svg" width="20" height="20" viewBox="0 0 20 20" fill="none">
  <path d="M4.2183 10.4167C3.1936 10.9853 2.5 12.0783 2.5 13.3333 2.5 15.1743 3.9924 16.6667 5.8333 16.6667 7.6743 16.6667 9.1667 15.1743 9.1667 13.3333H13.3333" stroke="currentColor" stroke-linecap="round" stroke-linejoin="round" stroke-width="2"/>
  <path d="M12.0833 15.9356C12.654 16.393 13.3784 16.6667 14.1667 16.6667 14.8743 16.6667 15.5304 16.4462 16.0701 16.0701M13.4177 10.0844C13.6585 10.0292 13.9092 10 14.1667 10 16.0076 10 17.5 11.4924 17.5 13.3333 17.5 13.5908 17.4708 13.8415 17.4156 14.0823" stroke="currentColor" stroke-linecap="round" stroke-linejoin="round" stroke-width="2"/>
  <path d="M2.5 2.5L17.5 17.5" stroke="currentColor" stroke-linecap="round" stroke-linejoin="round" stroke-width="2"/>
  <path d="M10 6.6667C10.4603 6.6667 10.8333 6.2936 10.8333 5.8333 10.8333 5.3731 10.4603 5 10 5M10 6.6667C9.5397 6.6667 9.1667 6.2936 9.1667 5.8333 9.1667 5.3731 9.5397 5 10 5M10 6.6667V5" stroke="currentColor" stroke-linecap="round" stroke-linejoin="round" stroke-width="2"/>
  <path d="M5.8333 14.1667C6.2936 14.1667 6.6667 13.7936 6.6667 13.3333 6.6667 12.8731 6.2936 12.5 5.8333 12.5M5.8333 14.1667C5.3731 14.1667 5 13.7936 5 13.3333 5 12.8731 5.3731 12.5 5.8333 12.5M5.8333 14.1667V12.5" stroke="currentColor" stroke-linecap="round" stroke-linejoin="round" stroke-width="2"/>
  <path d="M13.3333 5.8333C13.3333 3.9924 11.8409 2.5 10 2.5 8.8667 2.5 7.8655 3.0656 7.2632 3.9299M5.8333 13.3333L8.3809 8.7477" stroke="currentColor" stroke-linecap="round" stroke-linejoin="round" stroke-width="2"/>
</svg>
