<svg xmlns="http://www.w3.org/2000/svg" width="20" height="20" viewBox="0 0 20 20" fill="none">
  <path d="M2.5 6.25H16.6667" stroke="currentColor" stroke-linecap="round" stroke-linejoin="round" stroke-width="2"/>
  <path d="M8.75 17.0833C5.6073 17.0833 4.036 17.0833 3.0596 16.107 2.0833 15.1308 2.0833 13.5593 2.0833 10.4167V8.75C2.0833 5.6073 2.0833 4.036 3.0596 3.0596 4.036 2.0833 5.6073 2.0833 8.75 2.0833H10.4167C13.5593 2.0833 15.1308 2.0833 16.107 3.0596 17.0833 4.036 17.0833 5.6073 17.0833 8.75" stroke="currentColor" stroke-linecap="round" stroke-linejoin="round" stroke-width="2"/>
  <path d="M12.9167 13.75V12.0833C12.9167 11.1628 13.6628 10.4167 14.5833 10.4167 15.5038 10.4167 16.25 11.1628 16.25 12.0833V13.75" stroke="currentColor" stroke-linecap="round" stroke-linejoin="round" stroke-width="2"/>
  <path d="M15.8333 13.75H13.3333C12.5545 13.75 12.1651 13.75 11.875 13.9175 11.685 14.0272 11.5272 14.185 11.4175 14.375 11.25 14.6651 11.25 15.0545 11.25 15.8333 11.25 16.6122 11.25 17.0016 11.4175 17.2917 11.5272 17.4817 11.685 17.6395 11.875 17.7492 12.1651 17.9167 12.5545 17.9167 13.3333 17.9167H15.8333C16.6122 17.9167 17.0016 17.9167 17.2917 17.7492 17.4817 17.6395 17.6395 17.4817 17.7492 17.2917 17.9167 17.0016 17.9167 16.6122 17.9167 15.8333 17.9167 15.0545 17.9167 14.6651 17.7492 14.375 17.6395 14.185 17.4817 14.0272 17.2917 13.9175 17.0016 13.75 16.6122 13.75 15.8333 13.75Z" stroke="currentColor" stroke-linecap="round" stroke-linejoin="round" stroke-width="2"/>
</svg>
