<svg xmlns="http://www.w3.org/2000/svg" width="20" height="20" viewBox="0 0 20 20" fill="none">
  <path d="M6.1458 5.8333H6.0417M6.25 5.8333C6.25 5.9484 6.1567 6.0417 6.0417 6.0417 5.9266 6.0417 5.8333 5.9484 5.8333 5.8333 5.8333 5.7183 5.9266 5.625 6.0417 5.625 6.1567 5.625 6.25 5.7183 6.25 5.8333Z" stroke="currentColor" stroke-linecap="round" stroke-linejoin="round" stroke-width="2"/>
  <path d="M10.7292 5.8333H10.625M10.8333 5.8333C10.8333 5.9484 10.7401 6.0417 10.625 6.0417 10.5099 6.0417 10.4167 5.9484 10.4167 5.8333 10.4167 5.7183 10.5099 5.625 10.625 5.625 10.7401 5.625 10.8333 5.7183 10.8333 5.8333Z" stroke="currentColor" stroke-linecap="round" stroke-linejoin="round" stroke-width="2"/>
  <path d="M11.5625 12.5H11.4583M15.3125 12.5H15.2083M11.6667 12.5C11.6667 12.6151 11.5734 12.7083 11.4583 12.7083 11.3433 12.7083 11.25 12.6151 11.25 12.5 11.25 12.3849 11.3433 12.2917 11.4583 12.2917 11.5734 12.2917 11.6667 12.3849 11.6667 12.5ZM15.4167 12.5C15.4167 12.6151 15.3234 12.7083 15.2083 12.7083 15.0932 12.7083 15 12.6151 15 12.5 15 12.3849 15.0932 12.2917 15.2083 12.2917 15.3234 12.2917 15.4167 12.3849 15.4167 12.5Z" stroke="currentColor" stroke-linecap="round" stroke-linejoin="round" stroke-width="2"/>
  <path d="M8.3333 13.3333C8.3333 15.6345 10.5719 17.5 13.3333 17.5 14.0893 17.5 14.8061 17.3602 15.4485 17.1099 15.6055 17.0488 15.776 17.0267 15.9417 17.0574L18.3333 17.5 17.7903 15.8085C17.7109 15.5615 17.7563 15.2944 17.8813 15.0671 18.1715 14.5392 18.3333 13.952 18.3333 13.3333 18.3333 11.0322 16.0948 9.1667 13.3333 9.1667 10.5719 9.1667 8.3333 11.0322 8.3333 13.3333Z" stroke="currentColor" stroke-linejoin="round" stroke-width="2"/>
  <path d="M14.8943 9.3738C14.9637 9.0362 15 8.6884 15 8.3333 15 5.1117 12.0152 2.5 8.3333 2.5 4.6514 2.5 1.6667 5.1117 1.6667 8.3333 1.6667 9.2603 1.9138 10.1367 2.3535 10.9151 2.4759 11.1317 2.5164 11.3878 2.4437 11.6256L1.6667 14.1667 4.9284 13.5328C5.1015 13.4992 5.2802 13.5228 5.4427 13.5912 6.3463 13.9718 7.3678 14.1798 8.4332 14.166" stroke="currentColor" stroke-linejoin="round" stroke-width="2"/>
</svg>
