<svg xmlns="http://www.w3.org/2000/svg" width="20" height="20" viewBox="0 0 20 20" fill="none">
  <path d="M5.5689 4.1667C4.4318 4.2181 3.7292 4.378 3.2322 4.8758 2.5 5.6093 2.5 6.7899 2.5 9.1509V13.3247C2.5 15.6858 2.5 16.8663 3.2322 17.5998 3.9645 18.3333 5.143 18.3333 7.5 18.3333H12.5C14.857 18.3333 16.0355 18.3333 16.7678 17.5998 17.5 16.8663 17.5 15.6858 17.5 13.3247V9.1509C17.5 6.7899 17.5 5.6093 16.7678 4.8758 16.2707 4.378 15.5682 4.2181 14.4312 4.1667" stroke="currentColor" stroke-linejoin="round" stroke-width="2"/>
  <path d="M5.8544 5.4502C5.4539 3.8836 5.2537 3.1003 5.5792 2.5257 5.6658 2.3728 5.7765 2.2341 5.9073 2.1148 6.3983 1.6667 7.2239 1.6667 8.8752 1.6667H11.1248C12.7761 1.6667 13.6017 1.6667 14.0928 2.1148 14.2235 2.2341 14.3342 2.3728 14.4208 2.5257 14.7462 3.1003 14.5461 3.8836 14.1456 5.4502 13.8262 6.6992 13.6667 7.3236 13.2398 7.7346 13.1236 7.8465 12.9947 7.9449 12.8555 8.028 12.3443 8.3333 11.6861 8.3333 10.3697 8.3333H9.6303C8.314 8.3333 7.6557 8.3333 7.1445 8.028 7.0054 7.9449 6.8764 7.8465 6.7602 7.7346 6.3334 7.3236 6.1737 6.6992 5.8544 5.4502Z" stroke="currentColor" stroke-linejoin="round" stroke-width="2"/>
  <path d="M8.3333 15H11.6667" stroke="currentColor" stroke-linecap="round" stroke-linejoin="round" stroke-width="2"/>
  <path d="M9.5833 8.3333L10.4167 5.8333" stroke="currentColor" stroke-linecap="round" stroke-linejoin="round" stroke-width="2"/>
</svg>
