<svg xmlns="http://www.w3.org/2000/svg" width="20" height="20" viewBox="0 0 20 20" fill="none">
  <path d="M3.3333 11.7246C4.1787 11.7246 5.3594 11.4738 6.0995 12.0161L7.5682 13.0923C8.1139 13.4922 8.7048 13.3604 9.3138 13.2648 10.1158 13.1389 10.8333 13.8229 10.8333 14.7135 10.8333 14.9568 9.106 15.5754 8.8563 15.693 8.3659 15.924 7.8025 15.8672 7.3585 15.5418L5.7018 14.3278" stroke="currentColor" stroke-linecap="round" stroke-linejoin="round" stroke-width="2"/>
  <path d="M10.8333 14.1667L14.2425 12.5913C14.8537 12.3783 15.5276 12.5446 15.9831 13.0208L16.5421 13.6052C16.7418 13.814 16.6948 14.1647 16.4479 14.3081L9.9024 18.1096C9.5081 18.3386 9.0428 18.3945 8.6091 18.2649L3.3333 16.6891" stroke="currentColor" stroke-linecap="round" stroke-linejoin="round" stroke-width="2"/>
  <path d="M10.0016 10C10.0016 10 11.7516 8.1345 11.7516 5.8333 11.7516 3.5322 10.0016 1.6667 10.0016 1.6667 10.0016 1.6667 8.2516 3.5322 8.2516 5.8333 8.2516 8.1345 10.0016 10 10.0016 10ZM10.0016 10C10.0016 10 12.5574 9.943 14.1683 8.2993 15.7791 6.6556 15.8349 4.0476 15.8349 4.0476 15.8349 4.0476 14.777 4.0712 13.5935 4.5257M10.0016 10C10.0016 10 7.4458 9.943 5.8349 8.2993 4.2241 6.6556 4.1683 4.0476 4.1683 4.0476 4.1683 4.0476 5.2261 4.0712 6.4096 4.5257" stroke="currentColor" stroke-linecap="round" stroke-linejoin="round" stroke-width="2"/>
</svg>
