<svg xmlns="http://www.w3.org/2000/svg" width="20" height="20" viewBox="0 0 20 20" fill="none">
  <path d="M10 18.3333C14.6023 18.3333 18.3333 14.6023 18.3333 10 18.3333 5.3976 14.6023 1.6667 10 1.6667 5.3976 1.6667 1.6667 5.3976 1.6667 10 1.6667 11.1491 1.8992 12.2438 2.3199 13.2398 2.5523 13.7901 2.6686 14.0653 2.6829 14.2733 2.6973 14.4813 2.6361 14.7101 2.5137 15.1677L1.6667 18.3333 4.8323 17.4863C5.2899 17.3639 5.5187 17.3027 5.7267 17.3171 5.9347 17.3314 6.2099 17.4477 6.7603 17.6802 7.7562 18.1008 8.8509 18.3333 10 18.3333Z" stroke="currentColor" stroke-linejoin="round" stroke-width="2"/>
  <path d="M7.1568 10.3144L7.8826 9.413C8.1885 9.0331 8.5666 8.6794 8.5963 8.1736 8.6037 8.0458 8.5138 7.4721 8.334 6.3249 8.2633 5.874 7.8424 5.8333 7.4778 5.8333 7.0026 5.8333 6.765 5.8333 6.5291 5.9411 6.231 6.0773 5.9248 6.4603 5.8576 6.7811 5.8045 7.035 5.844 7.2099 5.923 7.5597 6.2585 9.0457 7.0457 10.5132 8.2662 11.7338 9.4868 12.9543 10.9543 13.7415 12.4403 14.077 12.7901 14.156 12.965 14.1955 13.2189 14.1423 13.5397 14.0752 13.9227 13.7691 14.0589 13.4708 14.1667 13.2349 14.1667 12.9974 14.1667 12.5222 14.1667 12.1576 14.126 11.7367 13.6751 11.666 12.5278 11.4862 11.9543 11.3963 11.8264 11.4038 11.3206 11.4334 10.9669 11.8115 10.587 12.1174L9.6856 12.8432" stroke="currentColor" stroke-width="2"/>
</svg>
