<svg xmlns="http://www.w3.org/2000/svg" width="20" height="20" viewBox="0 0 20 20" fill="none">
  <path d="M13.4048 8.2622C14.3078 8.2798 15.4696 8.0769 16.3917 7.1549 17.5491 5.9975 17.5733 4.4623 17.4506 3.5356 17.3818 3.0156 16.9844 2.6183 16.4643 2.5494 15.5376 2.4266 14.0023 2.4509 12.8448 3.6083 11.929 4.5241 11.7226 5.6763 11.7372 6.5765M11.7372 6.5765C11.7508 7.4195 11.9582 8.0416 11.9582 8.0416 11.9582 8.0416 12.4103 8.1923 13.0661 8.2451 13.1739 8.2538 13.2872 8.2599 13.4048 8.2622M13.4048 8.2622C13.2946 8.251 13.1817 8.2451 13.0661 8.2451M13.4048 8.2622C14.7543 8.3988 15.7047 9.3289 16.2242 10.0003 16.5485 10.4194 16.5509 10.9881 16.2243 11.4053 16.1365 11.5174 16.0363 11.6363 15.9238 11.7571M11.7372 6.5765C11.745 6.6691 11.7491 6.7637 11.7491 6.8602M11.7372 6.5765C11.6203 5.1956 10.6688 4.2531 9.9895 3.7488 9.575 3.4412 9.0223 3.4453 8.6144 3.7617 8.4968 3.8529 8.3713 3.9579 8.2436 4.077M6.6259 13.3741C6.0428 13.9612 5.7512 14.5442 5.7512 14.5442 5.7512 14.5442 6.9335 16.9086 9.298 16.9086 10.8141 16.9086 11.8442 15.9366 12.3882 15.239 12.7108 14.8253 12.7108 14.2631 12.3882 13.8494 11.8442 13.1518 10.8141 12.1798 9.298 12.1798 8.1236 12.1798 7.2409 12.7631 6.6498 13.3502M6.6259 13.3741C6.6338 13.3662 6.6418 13.3582 6.6498 13.3502M6.6259 13.3741L6.6498 13.3502M6.6259 13.3741L2.5 17.5M6.6498 13.3502L9.5833 10.4167M6.9343 6.9343C6.9828 9.2494 9.298 10.4069 9.298 10.4069M13.0661 13.0661C10.7511 13.0173 9.5936 10.7025 9.5936 10.7025M3.0911 10.7021C3.0911 13.0665 5.4557 14.2487 5.4557 14.2487 5.4557 14.2487 7.8202 13.0665 7.8202 10.7021 7.8202 9.186 6.848 8.156 6.1504 7.6121 5.7367 7.2895 5.1746 7.2895 4.7609 7.6121 4.0633 8.156 3.0911 9.186 3.0911 10.7021Z" stroke="currentColor" stroke-linecap="round" stroke-linejoin="round" stroke-width="2"/>
  <path d="M2.5 2.5L17.5 17.5" stroke="currentColor" stroke-linecap="round" stroke-linejoin="round" stroke-width="2"/>
</svg>
