<svg xmlns="http://www.w3.org/2000/svg" width="20" height="20" viewBox="0 0 20 20" fill="none">
  <path d="M11.9582 8.0424L2.5 17.5M16.3917 7.1549C14.6182 8.9282 11.9582 8.0416 11.9582 8.0416 11.9582 8.0416 11.0714 5.3816 12.8448 3.6083 14.0023 2.4509 15.5376 2.4266 16.4643 2.5494 16.9844 2.6183 17.3818 3.0156 17.4506 3.5356 17.5733 4.4623 17.5491 5.9975 16.3917 7.1549ZM13.1404 13.0669C10.7758 13.0669 9.5936 10.7025 9.5936 10.7025 9.5936 10.7025 10.7758 8.3381 13.1404 8.3381 14.6565 8.3381 15.6865 9.3102 16.2305 10.0077 16.5532 10.4214 16.5532 10.9836 16.2305 11.3973 15.6865 12.0948 14.6565 13.0669 13.1404 13.0669ZM6.9335 6.8603C6.9335 9.2248 9.298 10.4069 9.298 10.4069 9.298 10.4069 11.6626 9.2248 11.6626 6.8603 11.6626 5.3443 10.6904 4.3143 9.9928 3.7703 9.5791 3.4478 9.017 3.4478 8.6033 3.7703 7.9057 4.3143 6.9335 5.3443 6.9335 6.8603ZM9.298 16.9086C6.9335 16.9086 5.7512 14.5442 5.7512 14.5442 5.7512 14.5442 6.9335 12.1798 9.298 12.1798 10.8141 12.1798 11.8442 13.1518 12.3882 13.8494 12.7108 14.2631 12.7108 14.8253 12.3882 15.239 11.8442 15.9366 10.8141 16.9086 9.298 16.9086ZM3.0911 10.7021C3.0911 13.0665 5.4557 14.2487 5.4557 14.2487 5.4557 14.2487 7.8202 13.0665 7.8202 10.7021 7.8202 9.186 6.848 8.156 6.1504 7.6121 5.7367 7.2895 5.1746 7.2895 4.7609 7.6121 4.0633 8.156 3.0911 9.186 3.0911 10.7021Z" stroke="currentColor" stroke-linecap="round" stroke-linejoin="round" stroke-width="2"/>
</svg>
