<svg xmlns="http://www.w3.org/2000/svg" width="20" height="20" viewBox="0 0 20 20" fill="none">
  <path d="M16.6841 9.1841C14.7396 11.1287 11.8495 11.3914 10.2291 9.7709 8.6086 8.1505 8.8713 5.2605 10.8159 3.3159 12.7604 1.3713 15.6505 1.1086 17.2709 2.7291 18.8914 4.3495 18.6287 7.2396 16.6841 9.1841Z" stroke="currentColor" stroke-width="2"/>
  <path d="M14.9355 7.4355C12.9713 9.3998 10.8482 10.4613 10.1934 9.8066 9.5387 9.1518 10.6003 7.0287 12.5645 5.0645 14.5288 3.1002 16.6518 2.0387 17.3066 2.6934 17.9613 3.3482 16.8998 5.4713 14.9355 7.4355Z" stroke="currentColor" stroke-width="2"/>
  <path d="M6.2898 15.53L3.8634 17.9564C3.3608 18.459 2.5461 18.459 2.0436 17.9564 1.541 17.4539 1.541 16.6392 2.0436 16.1367L4.47 13.7103C4.9725 13.2077 5.7873 13.2077 6.2898 13.7103 6.7923 14.2127 6.7923 15.0275 6.2898 15.53Z" stroke="currentColor" stroke-linecap="round" stroke-linejoin="round" stroke-width="2"/>
  <path d="M6.6667 13.3333L10 10" stroke="currentColor" stroke-linecap="round" stroke-linejoin="round" stroke-width="2"/>
</svg>
