<svg xmlns="http://www.w3.org/2000/svg" width="20" height="20" viewBox="0 0 20 20" fill="none">
  <path d="M17.0938 8.9422L12.6465 15.0075C11.4281 16.6692 10.8189 17.5 10 17.5 9.1811 17.5 8.5719 16.6692 7.3535 15.0075L2.9062 8.9422C2.0067 7.7154 1.5569 7.102 1.6895 6.3138 1.8221 5.5256 2.348 5.1801 3.3997 4.489 5.3191 3.2277 7.5798 2.5 10 2.5 12.4202 2.5 14.6809 3.2277 16.6003 4.489 17.6521 5.1801 18.1779 5.5256 18.3105 6.3138 18.4431 7.102 17.9933 7.7154 17.0938 8.9422Z" stroke="currentColor" stroke-width="2"/>
  <path d="M15.8333 11.6667C12.2393 9.4444 7.7608 9.4444 4.1667 11.6667" stroke="currentColor" stroke-width="2"/>
  <path d="M13.3333 14.1667C11.2208 13.0556 8.7792 13.0556 6.6667 14.1667" stroke="currentColor" stroke-width="2"/>
</svg>
