<svg xmlns="http://www.w3.org/2000/svg" width="20" height="20" viewBox="0 0 20 20" fill="none">
  <path d="M1.6667 6.5164C3.9584 4.4666 6.9253 3.3333 10 3.3333 13.0747 3.3333 16.0416 4.4666 18.3333 6.5164M4.1667 9.8823C5.3217 8.7501 6.7716 7.9872 8.3333 7.6684M7.0833 12.8573C7.4487 12.4991 7.8731 12.2148 8.3333 12.014" stroke="currentColor" stroke-linecap="round" stroke-linejoin="round" stroke-width="2"/>
  <path d="M17.8874 11.25C17.3111 10.2537 16.2338 9.5833 15 9.5833 13.7272 9.5833 12.6209 10.2967 12.0594 11.3456M12.1126 14.5833C12.6889 15.5797 13.7662 16.25 15 16.25 16.2689 16.25 17.3723 15.541 17.9353 14.4975M14.1667 11.6667H13.3333C12.5477 11.6667 12.1548 11.6667 11.9108 11.4226 11.6667 11.1785 11.6667 10.7857 11.6667 10V9.1667M15.8333 14.1667H16.6667C17.4523 14.1667 17.8452 14.1667 18.0892 14.4108 18.3333 14.6548 18.3333 15.0477 18.3333 15.8333V16.6667" stroke="currentColor" stroke-linecap="round" stroke-linejoin="round" stroke-width="2"/>
</svg>
