<svg xmlns="http://www.w3.org/2000/svg" width="20" height="20" viewBox="0 0 20 20" fill="none">
  <path d="M17.5 9.2409C17.5 14.0545 12.4927 17.1825 10.6609 18.1657 10.2445 18.3893 9.7555 18.3893 9.3391 18.1657 7.5073 17.1825 2.5 14.0545 2.5 9.2409 2.5 5.0578 5.8579 1.6667 10 1.6667 14.1422 1.6667 17.5 5.0578 17.5 9.2409Z" stroke="currentColor" stroke-linecap="round" stroke-linejoin="round" stroke-width="2"/>
  <path d="M7.9167 10.7206C8.5088 10.2484 9.2441 9.992 10.0015 9.9935 10.7588 9.995 11.4931 10.2544 12.0833 10.7289M10 13.3333H10.0083M5.8333 8.1292C7.0158 7.1825 8.4853 6.6667 10 6.6667 11.5147 6.6667 12.9842 7.1825 14.1667 8.1292" stroke="currentColor" stroke-linecap="round" stroke-linejoin="round" stroke-width="2"/>
</svg>
