<svg xmlns="http://www.w3.org/2000/svg" width="20" height="20" viewBox="0 0 20 20" fill="none">
  <path d="M7.0833 12.9167C8.14 11.8601 9.5315 11.4733 10.8333 11.7564" stroke="currentColor" stroke-linecap="round" stroke-linejoin="round" stroke-width="2"/>
  <path d="M4.5833 10C7.2277 7.3753 10.1018 6.806 12.9167 8.3458" stroke="currentColor" stroke-linecap="round" stroke-linejoin="round" stroke-width="2"/>
  <path d="M1.6667 6.6667C6.9298 2.2222 13.0702 2.2222 18.3333 6.6666" stroke="currentColor" stroke-linecap="round" stroke-linejoin="round" stroke-width="2"/>
  <path d="M13.4003 17.3811L13.1468 17.9523 13.1468 17.9523 13.4003 17.3811ZM12.611 16.5354L12.0281 16.7608H12.0281L12.611 16.5354ZM18.2223 16.5354L18.8053 16.7608 18.8053 16.7608 18.2223 16.5354ZM17.4331 17.3811L17.6866 17.9523 17.6866 17.9523 17.4331 17.3811ZM17.4331 12.9314L17.6866 12.3602V12.3602L17.4331 12.9314ZM18.2223 13.7771L18.8053 13.5517 18.8053 13.5517 18.2223 13.7771ZM13.4003 12.9314L13.1468 12.3602V12.3602L13.4003 12.9314ZM12.611 13.7771L12.0281 13.5517V13.5517L12.611 13.7771ZM13.3333 12.8125C13.3333 13.1577 13.6132 13.4375 13.9583 13.4375 14.3035 13.4375 14.5833 13.1577 14.5833 12.8125H13.3333ZM16.25 12.8125C16.25 13.1577 16.5298 13.4375 16.875 13.4375 17.2202 13.4375 17.5 13.1577 17.5 12.8125H16.25ZM14.6875 13.4375H16.1458V12.1875H14.6875V13.4375ZM16.1458 16.875H14.6875V18.125H16.1458V16.875ZM14.6875 16.875C14.3386 16.875 14.1104 16.8746 13.9352 16.8618 13.7663 16.8494 13.6948 16.828 13.6538 16.8098L13.1468 17.9523C13.3737 18.0531 13.606 18.0911 13.844 18.1085 14.0754 18.1254 14.3569 18.125 14.6875 18.125V16.875ZM11.875 15.1563C11.875 15.5122 11.8747 15.8085 11.8902 16.0509 11.9059 16.2981 11.9398 16.5325 12.0281 16.7608L13.194 16.3101C13.1712 16.2512 13.1496 16.1601 13.1376 15.9715 13.1253 15.778 13.125 15.5283 13.125 15.1563H11.875ZM13.6538 16.8098C13.4559 16.722 13.2856 16.5472 13.194 16.3101L12.0281 16.7608C12.2324 17.2895 12.6299 17.723 13.1468 17.9523L13.6538 16.8098ZM17.7083 15.1563C17.7083 15.5283 17.708 15.778 17.6958 15.9715 17.6838 16.1601 17.6622 16.2512 17.6393 16.3101L18.8053 16.7608C18.8935 16.5325 18.9274 16.2981 18.9432 16.0509 18.9587 15.8085 18.9583 15.5122 18.9583 15.1563H17.7083ZM16.1458 18.125C16.4764 18.125 16.7579 18.1254 16.9893 18.1085 17.2273 18.0911 17.4597 18.0531 17.6866 17.9523L17.1796 16.8098C17.1385 16.828 17.067 16.8494 16.8982 16.8618 16.7229 16.8746 16.4948 16.875 16.1458 16.875V18.125ZM17.6393 16.3101C17.5478 16.5472 17.3774 16.722 17.1796 16.8098L17.6866 17.9523C18.2034 17.723 18.6009 17.2895 18.8053 16.7608L17.6393 16.3101ZM16.1458 13.4375C16.4948 13.4375 16.7229 13.4379 16.8982 13.4507 17.067 13.4631 17.1385 13.4845 17.1796 13.5027L17.6866 12.3602C17.4597 12.2594 17.2273 12.2214 16.9893 12.204 16.7579 12.1871 16.4764 12.1875 16.1458 12.1875V13.4375ZM18.9583 15.1563C18.9583 14.8003 18.9587 14.504 18.9432 14.2616 18.9274 14.0144 18.8935 13.78 18.8053 13.5517L17.6393 14.0024C17.6622 14.0613 17.6838 14.1524 17.6958 14.341 17.708 14.5345 17.7083 14.7843 17.7083 15.1563H18.9583ZM17.1796 13.5027C17.3774 13.5905 17.5478 13.7653 17.6393 14.0024L18.8053 13.5517C18.6009 13.0231 18.2034 12.5895 17.6866 12.3602L17.1796 13.5027ZM14.6875 12.1875C14.3569 12.1875 14.0754 12.1871 13.844 12.204 13.606 12.2214 13.3737 12.2594 13.1468 12.3602L13.6538 13.5027C13.6948 13.4845 13.7663 13.4631 13.9352 13.4507 14.1104 13.4379 14.3386 13.4375 14.6875 13.4375V12.1875ZM13.125 15.1563C13.125 14.7843 13.1253 14.5345 13.1376 14.341 13.1496 14.1524 13.1712 14.0613 13.194 14.0024L12.0281 13.5517C11.9398 13.78 11.9059 14.0144 11.8902 14.2616 11.8747 14.504 11.875 14.8003 11.875 15.1563H13.125ZM13.1468 12.3602C12.6299 12.5895 12.2324 13.0231 12.0281 13.5517L13.194 14.0024C13.2856 13.7653 13.4559 13.5905 13.6538 13.5027L13.1468 12.3602ZM14.5833 12.8125V11.4063H13.3333V12.8125H14.5833ZM16.25 11.4063V12.8125H17.5V11.4063H16.25ZM15.4167 10.625C15.8985 10.625 16.25 10.996 16.25 11.4063H17.5C17.5 10.2632 16.5457 9.375 15.4167 9.375V10.625ZM14.5833 11.4063C14.5833 10.996 14.9348 10.625 15.4167 10.625V9.375C14.2877 9.375 13.3333 10.2632 13.3333 11.4063H14.5833Z" fill="currentColor"/>
</svg>
