<svg xmlns="http://www.w3.org/2000/svg" width="20" height="20" viewBox="0 0 20 20" fill="none">
  <path d="M1.6667 6.9331C3.9584 4.8832 6.9253 3.75 10 3.75M4.1667 10.2989C5.7244 8.772 7.8187 7.9167 10 7.9167M7.0833 13.2739C7.8622 12.5104 8.9093 12.0828 10 12.0828 11.0907 12.0828 12.1378 12.5104 12.9167 13.2739M10.1047 16.0417H10.0005M10.2088 16.0417C10.2088 16.1568 10.1156 16.25 10.0005 16.25 9.8854 16.25 9.7922 16.1568 9.7922 16.0417 9.7922 15.9266 9.8854 15.8333 10.0005 15.8333 10.1156 15.8333 10.2088 15.9266 10.2088 16.0417Z" stroke="currentColor" stroke-linecap="round" stroke-linejoin="round" stroke-width="2"/>
  <path d="M12.5 6.25C12.8922 6.3836 13.8279 6.7701 14.1667 7.9167 14.1667 7.9167 16.2745 4.4444 18.3333 3.75" stroke="currentColor" stroke-linecap="round" stroke-linejoin="round" stroke-width="2"/>
</svg>
