<svg xmlns="http://www.w3.org/2000/svg" width="20" height="20" viewBox="0 0 20 20" fill="none">
  <path d="M1.6667 6.5164C3.9584 4.4666 6.9253 3.3333 10 3.3333 13.0747 3.3333 16.0416 4.4666 18.3333 6.5164M4.1667 9.8823C5.7244 8.3553 7.8187 7.5001 10 7.5001 11.1933 7.5001 12.3606 7.756 13.4283 8.2379M7.0833 12.8573C7.8622 12.0938 8.9093 11.6662 10 11.6662" stroke="currentColor" stroke-linecap="round" stroke-linejoin="round" stroke-width="2"/>
  <path d="M10.8333 16.6667V15.5509C10.8333 15.0457 11.034 14.5613 11.3912 14.204L15.2585 10.3368C15.4741 10.1211 15.7665 10 16.0714 10 16.3763 10 16.6688 10.1211 16.8843 10.3368L17.1633 10.6157C17.3789 10.8313 17.5 11.1237 17.5 11.4286 17.5 11.7335 17.3789 12.0259 17.1633 12.2415L13.296 16.1088C12.9388 16.466 12.4543 16.6667 11.9491 16.6667H10.8333Z" stroke="currentColor" stroke-linecap="round" stroke-linejoin="round" stroke-width="2"/>
</svg>
