<svg xmlns="http://www.w3.org/2000/svg" width="20" height="20" viewBox="0 0 20 20" fill="none">
  <path d="M1.6667 6.5164C3.9584 4.4666 6.9253 3.3333 10 3.3333M4.1667 9.8823C5.7244 8.3553 7.8187 7.5001 10 7.5001M7.0833 12.8573C7.8622 12.0938 8.9093 11.6662 10 11.6662 11.0907 11.6662 12.1378 12.0938 12.9167 12.8573M10.1047 15.625H10.0005M10.2088 15.625C10.2088 15.7401 10.1156 15.8333 10.0005 15.8333 9.8854 15.8333 9.7922 15.7401 9.7922 15.625 9.7922 15.5099 9.8854 15.4167 10.0005 15.4167 10.1156 15.4167 10.2088 15.5099 10.2088 15.625Z" stroke="currentColor" stroke-linecap="round" stroke-linejoin="round" stroke-width="2"/>
  <path d="M13.3333 3.3333L18.3333 8.3333M18.3333 3.3333L13.3333 8.3333" stroke="currentColor" stroke-linecap="round" stroke-linejoin="round" stroke-width="2"/>
</svg>
