<svg xmlns="http://www.w3.org/2000/svg" width="20" height="20" viewBox="0 0 20 20" fill="none">
  <path d="M1.6667 6.9331C3.3283 5.4469 5.3448 4.4425 7.5 4.0026M18.3333 6.9331C16.6717 5.4469 14.6552 4.4425 12.5 4.0026M4.1667 10.2989C5.1133 9.3711 6.258 8.6913 7.5 8.3006M15.8333 10.2989C14.8868 9.3711 13.742 8.6913 12.5 8.3006M7.0833 13.2739C7.2149 13.145 7.3542 13.0256 7.5 12.9162M12.9167 13.2739C12.7851 13.145 12.6458 13.0256 12.5 12.9162M10.1047 16.0418H10.0005M10.2088 16.0418C10.2088 16.1568 10.1156 16.2501 10.0005 16.2501 9.8854 16.2501 9.7922 16.1568 9.7922 16.0418 9.7922 15.9267 9.8854 15.8334 10.0005 15.8334 10.1156 15.8334 10.2088 15.9267 10.2088 16.0418Z" stroke="currentColor" stroke-linecap="round" stroke-linejoin="round" stroke-width="2"/>
  <path d="M10 12.9168V3.7501" stroke="currentColor" stroke-linecap="round" stroke-linejoin="round" stroke-width="2"/>
</svg>
