<svg xmlns="http://www.w3.org/2000/svg" width="20" height="20" viewBox="0 0 20 20" fill="none">
  <path d="M7.0833 12.9167C8.14 11.8601 9.5315 11.4733 10.8333 11.7564" stroke="currentColor" stroke-linecap="round" stroke-linejoin="round" stroke-width="2"/>
  <path d="M4.5833 10C7.2277 7.3753 10.1018 6.806 12.9167 8.3458" stroke="currentColor" stroke-linecap="round" stroke-linejoin="round" stroke-width="2"/>
  <path d="M1.6667 6.6667C6.9298 2.2222 13.0702 2.2222 18.3333 6.6666" stroke="currentColor" stroke-linecap="round" stroke-linejoin="round" stroke-width="2"/>
  <path d="M13.776 12.8V11.6269C13.776 10.7284 14.5106 10 15.4167 10 15.8239 10 16.1966 10.1472 16.4834 10.3908M14.8697 17.5H15.9636C16.8148 17.5 17.2403 17.5 17.5624 17.3293 17.8168 17.1944 18.0252 16.9878 18.1612 16.7356 18.3333 16.4161 18.3333 15.9941 18.3333 15.15 18.3333 14.3059 18.3333 13.8839 18.1612 13.5644 18.0252 13.3122 17.8168 13.1056 17.5624 12.9708 17.2403 12.8 16.8148 12.8 15.9636 12.8H14.8697C14.0186 12.8 13.593 12.8 13.2709 12.9708 13.0165 13.1056 12.8082 13.3122 12.6722 13.5644 12.5 13.8839 12.5 14.3059 12.5 15.15 12.5 15.9941 12.5 16.4161 12.6722 16.7356 12.8082 16.9878 13.0165 17.1944 13.2709 17.3293 13.593 17.5 14.0186 17.5 14.8697 17.5Z" stroke="currentColor" stroke-linecap="round" stroke-width="2"/>
</svg>
