<svg xmlns="http://www.w3.org/2000/svg" width="20" height="20" viewBox="0 0 20 20" fill="none">
  <path d="M1.6667 7.3497C2.5466 6.5627 3.5261 5.9108 4.5729 5.4063M18.3333 7.3497C16.0416 5.2999 13.0747 4.1667 10 4.1667 8.9902 4.1667 7.9921 4.2889 7.0257 4.5257M4.1667 10.7156C5.1882 9.7142 6.4404 9.0018 7.7966 8.6299M15.8333 10.7156C14.4865 9.3953 12.7385 8.5773 10.88 8.38M7.0833 13.6906C7.8622 12.9271 8.9093 12.4995 10 12.4995 10.9065 12.4995 11.7827 12.7953 12.5 13.3333M10.1047 16.4583H10.0005M10.2088 16.4583C10.2088 16.5734 10.1156 16.6667 10.0005 16.6667 9.8854 16.6667 9.7922 16.5734 9.7922 16.4583 9.7922 16.3433 9.8854 16.25 10.0005 16.25 10.1156 16.25 10.2088 16.3433 10.2088 16.4583Z" stroke="currentColor" stroke-linecap="round" stroke-linejoin="round" stroke-width="2"/>
  <path d="M2.5 3.3333L15.8333 16.6667" stroke="currentColor" stroke-linecap="round" stroke-linejoin="round" stroke-width="2"/>
</svg>
