<svg xmlns="http://www.w3.org/2000/svg" width="20" height="20" viewBox="0 0 20 20" fill="none">
  <path d="M2.0833 10C2.0833 6.268 2.0833 4.4021 3.2427 3.2427 4.4021 2.0833 6.268 2.0833 10 2.0833 13.7319 2.0833 15.5979 2.0833 16.7573 3.2427 17.9167 4.4021 17.9167 6.268 17.9167 10 17.9167 13.7319 17.9167 15.5979 16.7573 16.7573 15.5979 17.9167 13.7319 17.9167 10 17.9167 6.268 17.9167 4.4021 17.9167 3.2427 16.7573 2.0833 15.5979 2.0833 13.7319 2.0833 10Z" stroke="currentColor" stroke-linejoin="round" stroke-width="2"/>
  <path d="M4.1667 6.6667H5.0417M5.0417 6.6667H5.8333M5.0417 6.6667L7.1894 12.3506C7.6469 13.5613 7.8757 14.1667 8.25 14.1667 8.6243 14.1667 8.8531 13.5613 9.3106 12.3506L11.4583 6.6667H12.0833M7.9167 6.6667H8.5417L10.6894 12.3506C11.1469 13.5613 11.3757 14.1667 11.75 14.1667 12.1243 14.1667 12.3531 13.5613 12.8106 12.3506L14.9583 6.6667M14.9583 6.6667H14.1667M14.9583 6.6667H15.8333" stroke="currentColor" stroke-linecap="round" stroke-linejoin="round" stroke-width="2"/>
</svg>
