<svg xmlns="http://www.w3.org/2000/svg" width="20" height="20" viewBox="0 0 20 20" fill="none">
  <path d="M11.6667 9.0553C11.6667 9.9766 10.9205 10.7233 10 10.7233 9.0795 10.7233 8.3333 9.9766 8.3333 9.0553 8.3333 8.1341 9.0795 7.3873 10 7.3873 10.9205 7.3873 11.6667 8.1341 11.6667 9.0553Z" stroke="currentColor" stroke-width="2"/>
  <path d="M11.6589 8.9036L16.6667 11.9732C15.9763 13.1697 14.4473 13.5796 13.2516 12.8888L9.7811 10.7073" stroke="currentColor" stroke-linecap="round" stroke-linejoin="round" stroke-width="2"/>
  <path d="M11.2367 7.9204L11.2367 1.973C9.8559 1.973 8.764 3.0933 8.764 4.4748 8.764 4.4748 8.764 6.5748 8.764 7.9204" stroke="currentColor" stroke-linecap="round" stroke-linejoin="round" stroke-width="2"/>
  <path d="M8.3392 8.9054L3.3333 11.9734C4.0237 13.1699 5.5527 13.5798 6.7484 12.8891L10.2181 10.7085" stroke="currentColor" stroke-linecap="round" stroke-linejoin="round" stroke-width="2"/>
  <path d="M11.2085 14.0578L11.4752 15.743C11.6635 17.0803 11.7577 17.7489 11.5456 18.1963 11.3334 18.6438 10.9223 18.6438 10.0999 18.6438H9.9001C9.0777 18.6438 8.6666 18.6438 8.4544 18.1963 8.2423 17.7489 8.3365 17.0803 8.5248 15.743L8.7915 14.0578" stroke="currentColor" stroke-linecap="round" stroke-linejoin="round" stroke-width="2"/>
</svg>
