<svg xmlns="http://www.w3.org/2000/svg" width="20" height="20" viewBox="0 0 20 20" fill="none">
  <path d="M11.25 9.1667C11.25 9.857 10.6903 10.4167 10 10.4167 9.3097 10.4167 8.75 9.857 8.75 9.1667 8.75 8.4763 9.3097 7.9167 10 7.9167 10.6903 7.9167 11.25 8.4763 11.25 9.1667Z" stroke="currentColor" stroke-width="2"/>
  <path d="M17.5 8.75C17.4902 8.5897 17.4757 8.4306 17.4563 8.273 17.1831 6.0484 15.967 4.1211 14.2268 2.9167M5.7731 2.9167C4.033 4.1211 2.8169 6.0484 2.5437 8.273 2.5244 8.4306 2.5097 8.5897 2.5 8.75" stroke="currentColor" stroke-linecap="round" stroke-width="2"/>
  <path d="M10 7.9167V5.8333" stroke="currentColor" stroke-linecap="round" stroke-width="2"/>
  <path d="M8.4992 3.3251L8.6256 4.5895C8.6722 5.0548 8.6954 5.2874 8.8086 5.459 8.8861 5.5764 8.9921 5.6723 9.1167 5.7378 9.2987 5.8333 9.5324 5.8333 10 5.8333 10.4676 5.8333 10.7013 5.8333 10.8833 5.7378 11.0079 5.6723 11.1139 5.5764 11.1914 5.459 11.3046 5.2874 11.3278 5.0548 11.3744 4.5895L11.5008 3.3251C11.5697 2.6358 11.6043 2.2912 11.4443 2.0455 11.3962 1.9715 11.3365 1.9055 11.2676 1.8502 11.039 1.6667 10.6927 1.6667 10 1.6667 9.3073 1.6667 8.961 1.6667 8.7324 1.8502 8.6635 1.9055 8.6038 1.9715 8.5557 2.0455 8.3957 2.2912 8.4303 2.6358 8.4992 3.3251Z" stroke="currentColor" stroke-linecap="round" stroke-width="2"/>
  <path d="M8.9168 9.7917L7.1126 10.8333" stroke="currentColor" stroke-linecap="round" stroke-width="2"/>
  <path d="M5.6925 13.3873L6.7243 12.6456C7.104 12.3727 7.2938 12.2362 7.3858 12.0524 7.4487 11.9266 7.4788 11.7868 7.4732 11.6462 7.465 11.4408 7.3481 11.2383 7.1143 10.8334 6.8805 10.4285 6.7636 10.226 6.5899 10.1163 6.4709 10.0411 6.3349 9.9973 6.1944 9.9888 5.9892 9.9766 5.7761 10.0728 5.3499 10.2651L4.1916 10.7878C3.5603 11.0728 3.2446 11.2152 3.1118 11.4765 3.0717 11.5553 3.0445 11.6399 3.031 11.7272 2.9863 12.017 3.1595 12.3169 3.5058 12.9168 3.8522 13.5167 4.0253 13.8166 4.2986 13.9228 4.3809 13.9548 4.4679 13.9735 4.5561 13.9782 4.8488 13.9938 5.1301 13.7916 5.6925 13.3873Z" stroke="currentColor" stroke-linecap="round" stroke-width="2"/>
  <path d="M11.0832 9.7917L12.8873 10.8333" stroke="currentColor" stroke-linecap="round" stroke-width="2"/>
  <path d="M15.8082 10.787L14.65 10.2643C14.2238 10.0719 14.0107 9.9758 13.8055 9.988 13.6651 9.9964 13.529 10.0403 13.41 10.1154 13.2363 10.2253 13.1194 10.4277 12.8856 10.8326 12.6518 11.2376 12.5349 11.44 12.5267 11.6454 12.5211 11.786 12.5512 11.9258 12.6141 12.0516 12.7061 12.2354 12.8959 12.3718 13.2756 12.6448L14.3074 13.3865C14.8698 13.7908 15.1511 13.9929 15.4438 13.9773 15.532 13.9727 15.6189 13.9539 15.7013 13.9219 15.9746 13.8158 16.1478 13.5158 16.4941 12.9159 16.8404 12.3161 17.0136 12.0162 16.9689 11.7264 16.9554 11.6391 16.9282 11.5545 16.8881 11.4757 16.7553 11.2144 16.4396 11.0719 15.8082 10.787Z" stroke="currentColor" stroke-linecap="round" stroke-width="2"/>
  <path d="M10 10.4167V18.3333" stroke="currentColor" stroke-linecap="round" stroke-width="2"/>
  <path d="M15 18.3333H5" stroke="currentColor" stroke-linecap="round" stroke-width="2"/>
</svg>
