<svg xmlns="http://www.w3.org/2000/svg" width="20" height="20" viewBox="0 0 20 20" fill="none">
  <path d="M11.25 9.1667C11.25 9.857 10.6903 10.4167 10 10.4167 9.3097 10.4167 8.75 9.857 8.75 9.1667 8.75 8.4763 9.3097 7.9167 10 7.9167 10.6903 7.9167 11.25 8.4763 11.25 9.1667Z" stroke="currentColor" stroke-width="2"/>
  <path d="M17.5 8.75C17.4902 8.5897 17.4757 8.4306 17.4563 8.273 17.1831 6.0484 15.967 4.1211 14.2268 2.9167M5.7731 2.9167C4.033 4.1211 2.8169 6.0484 2.5437 8.273 2.5244 8.4306 2.5097 8.5897 2.5 8.75" stroke="currentColor" stroke-linecap="round" stroke-width="2"/>
  <path d="M10 7.9167V5.8333" stroke="currentColor" stroke-linecap="round" stroke-width="2"/>
  <path d="M8.75 9.5833L7.0833 10.8333" stroke="currentColor" stroke-linecap="round" stroke-width="2"/>
  <path d="M11.2483 9.5833L12.915 10.8333" stroke="currentColor" stroke-linecap="round" stroke-width="2"/>
  <path d="M10 10.4167V18.3333" stroke="currentColor" stroke-linecap="round" stroke-width="2"/>
  <path d="M15 18.3333H5" stroke="currentColor" stroke-linecap="round" stroke-width="2"/>
  <path d="M8.4002 3.3251L8.5349 4.5895C8.5831 5.0409 8.6064 5.5151 9.0584 5.7378 9.2523 5.8333 9.5016 5.8333 10 5.8333 10.4984 5.8333 10.7477 5.8333 10.9416 5.7378 11.3936 5.5151 11.4169 5.0409 11.4651 4.5895L11.5998 3.3251C11.6518 2.8377 11.8042 2.1914 11.3512 1.8502 11.1075 1.6667 10.7383 1.6667 10 1.6667 9.2617 1.6667 8.8925 1.6667 8.6488 1.8502 8.1959 2.1914 8.3482 2.8377 8.4002 3.3251Z" stroke="currentColor" stroke-linecap="round" stroke-width="2"/>
  <path d="M15.9094 10.7788L14.7306 10.2578C14.3098 10.0717 13.8816 9.8526 13.4568 10.1356 13.2745 10.2571 13.1482 10.4753 12.8954 10.9115 12.6428 11.3478 12.5164 11.5659 12.502 11.784 12.4683 12.2922 12.873 12.5523 13.2449 12.8224L14.2871 13.5794C14.6888 13.8712 15.1791 14.3312 15.7083 14.1072 15.9931 13.9866 16.1803 13.6635 16.5547 13.0172 16.929 12.3709 17.1163 12.0478 17.0786 11.7417 17.0087 11.1728 16.3638 10.9796 15.9094 10.7788Z" stroke="currentColor" stroke-linecap="round" stroke-width="2"/>
  <path d="M4.0906 10.7788L5.2694 10.2578C5.6902 10.0717 6.1185 9.8526 6.5432 10.1356 6.7255 10.2571 6.8518 10.4753 7.1045 10.9115 7.3573 11.3478 7.4836 11.5659 7.498 11.784 7.5316 12.2922 7.127 12.5523 6.7551 12.8224L5.7129 13.5794C5.3112 13.8712 4.8209 14.3312 4.2916 14.1072 4.0069 13.9866 3.8197 13.6635 3.4453 13.0172 3.071 12.3709 2.8838 12.0478 2.9214 11.7417 2.9914 11.1728 3.6362 10.9796 4.0906 10.7788Z" stroke="currentColor" stroke-linecap="round" stroke-width="2"/>
</svg>
