<svg xmlns="http://www.w3.org/2000/svg" width="20" height="20" viewBox="0 0 20 20" fill="none">
  <path d="M10 11.6667L10 18.3333" stroke="currentColor" stroke-linecap="round" stroke-width="2"/>
  <path d="M15 18.3333H5" stroke="currentColor" stroke-linecap="round" stroke-width="2"/>
  <circle cx="10" cy="10.416666666666668" r="1.25" stroke="currentColor" stroke-linecap="round" stroke-width="2"/>
  <ellipse cx="10" cy="4.166666666666667" rx="1.6666666666666667" ry="2.5" stroke="currentColor" stroke-linecap="round" stroke-width="2"/>
  <path d="M14.3853 14.959C13.2045 14.2811 12.6157 13.097 13.0702 12.3143 13.5248 11.5314 14.8504 11.4464 16.0313 12.1243 17.2122 12.8023 17.801 13.9863 17.3465 14.7691 16.8919 15.5519 15.5663 15.6369 14.3853 14.959Z" stroke="currentColor" stroke-linecap="round" stroke-width="2"/>
  <path d="M5.6146 14.959C6.7955 14.2811 7.3843 13.097 6.9298 12.3143 6.4753 11.5314 5.1496 11.4464 3.9687 12.1243 2.7878 12.8023 2.199 13.9863 2.6535 14.7691 3.108 15.5519 4.4338 15.6369 5.6146 14.959Z" stroke="currentColor" stroke-linecap="round" stroke-width="2"/>
  <path d="M10 6.6667V9.1667" stroke="currentColor" stroke-width="2"/>
  <path d="M10.8333 10.8333L13.3333 12.5" stroke="currentColor" stroke-width="2"/>
  <path d="M9.1667 10.8333L6.6667 12.5" stroke="currentColor" stroke-width="2"/>
  <path d="M6.25 2.5C4.0082 3.7555 2.5 6.1021 2.5 8.7898 2.5 9.2022 2.5355 9.6064 2.6037 10M13.75 2.5C15.9918 3.7555 17.5 6.1021 17.5 8.7898 17.5 9.2022 17.4645 9.6064 17.3963 10" stroke="currentColor" stroke-linecap="round" stroke-width="2"/>
</svg>
