<svg xmlns="http://www.w3.org/2000/svg" width="20" height="20" viewBox="0 0 20 20" fill="none">
  <path d="M12.0833 7.5C12.0833 8.6506 11.1506 9.5833 10 9.5833 8.8494 9.5833 7.9167 8.6506 7.9167 7.5 7.9167 6.3494 8.8494 5.4167 10 5.4167 11.1506 5.4167 12.0833 6.3494 12.0833 7.5Z" stroke="currentColor" stroke-width="2"/>
  <path d="M3.3333 2.3744C4.2538 1.4308 5.7462 1.4308 6.6667 2.3744L9.6612 5.4441C8.7991 5.5851 8.1149 6.2553 7.9531 7.1102L3.3333 2.3744Z" stroke="currentColor" stroke-linecap="round" stroke-linejoin="round" stroke-width="2"/>
  <path d="M16.6667 12.6257C15.7462 13.5693 14.2538 13.5693 13.3333 12.6257L10.3388 9.5559C11.2009 9.4149 11.8851 8.7448 12.0469 7.8898L16.6667 12.6257Z" stroke="currentColor" stroke-linecap="round" stroke-linejoin="round" stroke-width="2"/>
  <path d="M16.6667 2.3745C15.7462 1.4309 14.2538 1.4309 13.3333 2.3745L10.339 5.4441C11.2011 5.5852 11.8852 6.2554 12.0469 7.1103L16.6667 2.3745Z" stroke="currentColor" stroke-linecap="round" stroke-linejoin="round" stroke-width="2"/>
  <path d="M3.3333 12.6258C4.2538 13.5694 5.7462 13.5694 6.6667 12.6258L9.6613 9.5559C8.7992 9.415 8.115 8.7448 7.9531 7.8899L3.3333 12.6258Z" stroke="currentColor" stroke-linecap="round" stroke-linejoin="round" stroke-width="2"/>
  <path d="M11.2085 13.3333L11.4752 15.4343C11.6635 16.7708 11.7577 17.4391 11.5456 17.8862 11.3334 18.3333 10.9223 18.3333 10.0999 18.3333H9.9001C9.0777 18.3333 8.6666 18.3333 8.4544 17.8862 8.2423 17.4391 8.3365 16.7708 8.5248 15.4343L8.7915 13.3333" stroke="currentColor" stroke-linecap="round" stroke-linejoin="round" stroke-width="2"/>
</svg>
