<svg xmlns="http://www.w3.org/2000/svg" width="20" height="20" viewBox="0 0 20 20" fill="none">
  <circle cx="10" cy="10" r="8.333333333333334" stroke="currentColor" stroke-linecap="round" stroke-linejoin="round" stroke-width="2"/>
  <path d="M13.75 5.8333C13.1944 5.9722 12.3333 6.5 11.6667 7.5 12.2223 7.3611 13.2892 7.2762 14.1667 8.3333" stroke="currentColor" stroke-linecap="round" stroke-linejoin="round" stroke-width="2"/>
  <path d="M6.6667 12.5C7.4268 13.512 8.6369 14.1667 10 14.1667 11.3631 14.1667 12.5732 13.512 13.3333 12.5" stroke="currentColor" stroke-linecap="round" stroke-linejoin="round" stroke-width="2"/>
  <path d="M6.9792 6.9892V7.4304M7.2917 7.2917C7.2917 6.9465 7.1518 6.6667 6.9792 6.6667 6.8066 6.6667 6.6667 6.9465 6.6667 7.2917 6.6667 7.6368 6.8066 7.9167 6.9792 7.9167 7.1518 7.9167 7.2917 7.6368 7.2917 7.2917Z" stroke="currentColor" stroke-linecap="round" stroke-linejoin="round" stroke-width="2"/>
</svg>
