<svg xmlns="http://www.w3.org/2000/svg" width="20" height="20" viewBox="0 0 20 20" fill="none">
  <path d="M14.5647 6.9983L14.5833 6.9983C16.6544 6.9983 18.3333 8.6487 18.3333 10.6845 18.3333 11.9626 17.6717 13.0888 16.6667 13.75M14.5647 6.9983C14.577 6.8634 14.5833 6.7268 14.5833 6.5887 14.5833 4.1005 12.5313 2.0833 10 2.0833 7.6027 2.0833 5.6353 3.8925 5.4337 6.1977M14.5647 6.9983C14.4794 7.9276 14.1072 8.7756 13.5357 9.4558M8.3338 6.9983C7.6373 6.4839 6.7715 6.1791 5.8333 6.1791 5.6985 6.1791 5.5652 6.1854 5.4337 6.1977 3.32 6.3955 1.6667 8.1454 1.6667 10.2749 1.6667 11.7405 2.4497 13.0263 3.6269 13.75" stroke="currentColor" stroke-linecap="round" stroke-linejoin="round" stroke-width="2"/>
  <path d="M6.6667 13.3148C7.624 12.5359 8.7674 12.0833 9.9955 12.0833 11.2274 12.0833 12.3742 12.5388 13.3333 13.3222M11.8119 15.4167C11.2652 15.0758 10.6483 14.8839 9.9955 14.8839 9.346 14.8839 8.732 15.0738 8.1873 15.4115" stroke="currentColor" stroke-linecap="round" stroke-linejoin="round" stroke-width="2"/>
  <path d="M10 17.9167H10.0053" stroke="currentColor" stroke-linecap="round" stroke-linejoin="round" stroke-width="2"/>
</svg>
