<svg xmlns="http://www.w3.org/2000/svg" width="20" height="20" viewBox="0 0 20 20" fill="none">
  <path d="M12.0833 9.1667H7.9167C6.3618 9.1667 5.5843 9.1667 4.9845 9.4555 4.3892 9.7422 3.9089 10.2225 3.6222 10.8178 3.3333 11.4176 3.3333 12.1951 3.3333 13.75 3.3333 15.3049 3.3333 16.0824 3.6222 16.6822 3.9089 17.2775 4.3892 17.7578 4.9845 18.0445 5.5843 18.3333 6.3618 18.3333 7.9167 18.3333H12.0833C13.6383 18.3333 14.4158 18.3333 15.0155 18.0445 15.6108 17.7578 16.0912 17.2775 16.3778 16.6822 16.6667 16.0824 16.6667 15.3049 16.6667 13.75 16.6667 12.1951 16.6667 11.4176 16.3778 10.8178 16.0912 10.2225 15.6108 9.7422 15.0155 9.4555 14.4158 9.1667 13.6383 9.1667 12.0833 9.1667Z" stroke="currentColor" stroke-linecap="round" stroke-linejoin="round" stroke-width="2"/>
  <path d="M10.8333 12.5H13.3333" stroke="currentColor" stroke-linecap="round" stroke-linejoin="round" stroke-width="2"/>
  <path d="M7.9167 5.825C8.5088 5.3538 9.2441 5.0979 10.0015 5.0994 10.7588 5.1009 11.4931 5.3598 12.0833 5.8333M5.8333 3.1263C7.0158 2.1814 8.4853 1.6667 10 1.6667 11.5147 1.6667 12.9842 2.1814 14.1667 3.1263" stroke="currentColor" stroke-linecap="round" stroke-linejoin="round" stroke-width="2"/>
</svg>
