<svg xmlns="http://www.w3.org/2000/svg" width="20" height="20" viewBox="0 0 20 20" fill="none">
  <path d="M11.6667 3.3333C11.6667 4.2538 10.9205 5 10 5 9.0795 5 8.3333 4.2538 8.3333 3.3333 8.3333 2.4129 9.0795 1.6667 10 1.6667 10.9205 1.6667 11.6667 2.4129 11.6667 3.3333Z" stroke="currentColor" stroke-linecap="round" stroke-linejoin="round" stroke-width="2"/>
  <path d="M8.3335 13.3333V16.6667C8.3335 17.4523 8.3335 17.8452 8.5776 18.0892 8.8217 18.3333 9.2145 18.3333 10.0002 18.3333 10.7858 18.3333 11.1787 18.3333 11.4228 18.0892 11.6668 17.8452 11.6668 17.4523 11.6668 16.6667V13.3333L11.8836 13.3339C13.1773 13.3338 13.8241 13.3337 14.0773 12.9291 14.3304 12.5246 14.026 11.9773 13.4173 10.8829L11.9173 8.1863C11.5397 7.5073 10.8023 7.0832 9.9997 7.0833 9.1973 7.0835 8.4604 7.5075 8.0828 8.1863L6.5828 10.8829C5.974 11.9773 5.6696 12.5245 5.9228 12.9291 6.1759 13.3337 6.8228 13.3338 8.1164 13.3339L8.3335 13.3333Z" stroke="currentColor" stroke-linejoin="round" stroke-width="2"/>
</svg>
