<svg xmlns="http://www.w3.org/2000/svg" width="20" height="20" viewBox="0 0 20 20" fill="none">
  <path d="M1.6667 5H2.5M2.5 5L6.2142 14.5768C6.7561 15.9741 7.0271 16.6728 7.4847 16.6667 7.9423 16.6605 8.1957 15.9549 8.7025 14.5437L8.75 14.4113M2.5 5H5.4167M5.4167 5H6.2142M5.4167 5L8.75 14.4113M8.75 14.4113L10.68 9.1667" stroke="currentColor" stroke-linecap="round" stroke-linejoin="round" stroke-width="2"/>
  <path d="M8.3333 5H9.1667M9.1667 5L12.8808 14.5768C13.4227 15.9741 13.6938 16.6728 14.1513 16.6667 14.6089 16.6605 14.8623 15.9549 15.3692 14.5437L15.4167 14.4113M9.1667 5H12.0833M12.0833 5H12.8808M12.0833 5L15.4167 14.4113M15.4167 14.4113L17.1073 9.7033M17.1073 9.7033L17.9481 7.6958C18.2846 6.7703 18.4029 5.7812 18.2941 4.8037 18.1636 3.6316 17.6313 2.5 16.251 2.5 14.9693 2.5 14.3418 3.9356 15.1582 4.9114 16.4751 6.4854 17.6433 8.2295 17.1073 9.7033Z" stroke="currentColor" stroke-linecap="round" stroke-linejoin="round" stroke-width="2"/>
</svg>
