<svg xmlns="http://www.w3.org/2000/svg" width="20" height="20" viewBox="0 0 20 20" fill="none">
  <path d="M12.5 15C12.5 13.8215 12.5 13.2323 12.8661 12.8661 13.2323 12.5 13.8215 12.5 15 12.5 16.1785 12.5 16.7678 12.5 17.1339 12.8661 17.5 13.2323 17.5 13.8215 17.5 15 17.5 16.1785 17.5 16.7678 17.1339 17.1339 16.7678 17.5 16.1785 17.5 15 17.5 13.8215 17.5 13.2323 17.5 12.8661 17.1339 12.5 16.7678 12.5 16.1785 12.5 15Z" stroke="currentColor" stroke-width="2"/>
  <path d="M2.5 7.5C2.5 6.3215 2.5 5.7322 2.8661 5.3661 3.2322 5 3.8215 5 5 5 6.1785 5 6.7678 5 7.1339 5.3661 7.5 5.7322 7.5 6.3215 7.5 7.5 7.5 8.6785 7.5 9.2677 7.1339 9.6339 6.7678 10 6.1785 10 5 10 3.8215 10 3.2322 10 2.8661 9.6339 2.5 9.2677 2.5 8.6785 2.5 7.5Z" stroke="currentColor" stroke-width="2"/>
  <path d="M7.5 7.5H10C12.357 7.5 13.5355 7.5 14.2678 8.2322 15 8.9645 15 10.143 15 12.5" stroke="currentColor" stroke-linecap="round" stroke-linejoin="round" stroke-width="2"/>
  <path d="M5 10V18.3333M5 5V1.6667" stroke="currentColor" stroke-linecap="round" stroke-linejoin="round" stroke-width="2"/>
</svg>
