<svg xmlns="http://www.w3.org/2000/svg" width="20" height="20" viewBox="0 0 20 20" fill="none">
  <path d="M10.8333 3.75C10.8333 4.4404 10.2737 5 9.5833 5 8.893 5 8.3333 4.4404 8.3333 3.75 8.3333 3.0596 8.893 2.5 9.5833 2.5 10.2737 2.5 10.8333 3.0596 10.8333 3.75Z" stroke="currentColor" stroke-width="2"/>
  <path d="M9.1231 17.5L10.0655 14.659C10.4017 13.6456 10.5698 13.1389 10.3184 12.7885 10.0672 12.4382 9.5356 12.4382 8.4725 12.4382H7.4441M15 6.9545L13.5533 7.7853C12.8218 8.2053 12.4561 8.4153 12.0519 8.4341 11.6478 8.4528 11.2643 8.2777 10.4974 7.9274L9.8448 7.6293M7.4441 12.4382H6.6044C5.8139 12.4382 5.4187 12.4382 5.1667 12.1272 4.9147 11.8162 4.9868 11.4663 5.1311 10.7668 5.3726 9.5953 5.8576 8.1392 6.7435 7.1489 6.988 6.8756 7.1102 6.739 7.3792 6.6825 7.6482 6.626 7.8633 6.7243 8.2936 6.9208L9.8448 7.6293M7.4441 12.4382C7.6453 11.3415 8.407 8.8443 9.8448 7.6293" stroke="currentColor" stroke-linecap="round" stroke-linejoin="round" stroke-width="2"/>
</svg>
