<svg xmlns="http://www.w3.org/2000/svg" width="20" height="20" viewBox="0 0 20 20" fill="none">
  <path d="M2.5 3.3333C2.5 1.9544 2.7878 1.6667 4.1667 1.6667H7.5C8.8789 1.6667 9.1667 1.9544 9.1667 3.3333 9.1667 4.7122 8.8789 5 7.5 5H4.1667C2.7878 5 2.5 4.7122 2.5 3.3333Z" stroke="currentColor" stroke-width="2"/>
  <path d="M10.8333 10.8333C10.8333 9.4544 11.1211 9.1667 12.5 9.1667H15.8333C17.2123 9.1667 17.5 9.4544 17.5 10.8333 17.5 12.2123 17.2123 12.5 15.8333 12.5H12.5C11.1211 12.5 10.8333 12.2123 10.8333 10.8333Z" stroke="currentColor" stroke-width="2"/>
  <path d="M10.8333 16.6667C10.8333 15.2878 11.1211 15 12.5 15H15.8333C17.2123 15 17.5 15.2878 17.5 16.6667 17.5 18.0456 17.2123 18.3333 15.8333 18.3333H12.5C11.1211 18.3333 10.8333 18.0456 10.8333 16.6667Z" stroke="currentColor" stroke-width="2"/>
  <path d="M14.1667 9.1667C14.1667 8.7794 14.1667 8.5858 14.1347 8.4248 14.0032 7.7637 13.4863 7.2469 12.8252 7.1154 12.6642 7.0833 12.4706 7.0833 12.0833 7.0833H7.9167C7.5294 7.0833 7.3359 7.0833 7.1748 7.0513 6.5137 6.9198 5.9969 6.403 5.8654 5.7418 5.8333 5.5808 5.8333 5.3872 5.8333 5" stroke="currentColor" stroke-linecap="round" stroke-linejoin="round" stroke-width="2"/>
  <path d="M14.1667 12.5V15" stroke="currentColor" stroke-linecap="round" stroke-linejoin="round" stroke-width="2"/>
</svg>
