<svg xmlns="http://www.w3.org/2000/svg" width="20" height="20" viewBox="0 0 20 20" fill="none">
  <path d="M14.1667 3.75C14.1667 4.4404 13.607 5 12.9167 5 12.2263 5 11.6667 4.4404 11.6667 3.75 11.6667 3.0596 12.2263 2.5 12.9167 2.5 13.607 2.5 14.1667 3.0596 14.1667 3.75Z" stroke="currentColor" stroke-width="2"/>
  <path d="M12.5 17.5007L11.9466 15.3207C11.7634 14.5993 11.3846 13.9403 10.8506 13.4145L9.5833 12.1665M5 9.2945C5.8333 7.6531 7.1147 6.7019 10 6.6678M10 6.6678C10.1822 6.6656 10.4537 6.665 10.7248 6.665 11.1456 6.6651 11.3559 6.6651 11.5235 6.7435 11.6911 6.8217 11.863 7.0271 12.2068 7.4379 12.3053 7.5556 12.4065 7.6611 12.5 7.7312M10 6.6678L8.9424 8.2996C8.361 9.1968 8.0702 9.6454 8.0589 10.1164 8.0539 10.3262 8.0885 10.535 8.1609 10.732 8.3236 11.1742 8.7435 11.5049 9.5833 12.1665M12.5 7.7312C13.4622 8.4527 14.9689 8.7434 16.6667 6.8326M12.5 7.7312L9.5833 12.1665" stroke="currentColor" stroke-linecap="round" stroke-linejoin="round" stroke-width="2"/>
  <path d="M3.3333 14.7752L3.8985 14.9097C5.3389 15.2523 6.836 14.597 7.5 13.3333" stroke="currentColor" stroke-linecap="round" stroke-linejoin="round" stroke-width="2"/>
</svg>
