<svg xmlns="http://www.w3.org/2000/svg" width="20" height="20" viewBox="0 0 20 20" fill="none">
  <path d="M5.8303 7.9178C5.8303 8.606 5.271 9.1639 4.581 9.1639 3.891 9.1639 3.3317 8.606 3.3317 7.9178 3.3317 7.2295 3.891 6.6716 4.581 6.6716 5.271 6.6716 5.8303 7.2295 5.8303 7.9178Z" stroke="currentColor" stroke-width="2"/>
  <path d="M7.4715 2.5L8.187 7.3095C8.211 7.471 8.2231 7.634 8.2231 7.7973V7.8646C8.2231 8.0389 8.2048 8.2126 8.1684 8.3831L8.1269 8.5777C8.1127 8.6443 8.0904 8.7089 8.0604 8.7701L5.8266 13.3242M8.6868 7.2953L13.2852 9.2159 13.7506 9.4178C14.0324 9.5401 14.2472 9.7782 14.3397 10.0705L16.6683 17.4992M7.9245 9.9664L12.1952 11.6423M12.1952 11.6423L10.0154 17.3943M12.1952 11.6423L14.0138 9.8383" stroke="currentColor" stroke-linecap="round" stroke-linejoin="round" stroke-width="2"/>
</svg>
