<svg xmlns="http://www.w3.org/2000/svg" width="20" height="20" viewBox="0 0 20 20" fill="none">
  <path d="M13.3333 4.5833C13.3333 5.2737 12.7737 5.8333 12.0833 5.8333 11.393 5.8333 10.8333 5.2737 10.8333 4.5833 10.8333 3.893 11.393 3.3333 12.0833 3.3333 12.7737 3.3333 13.3333 3.893 13.3333 4.5833Z" stroke="currentColor" stroke-width="2"/>
  <path d="M11.9668 12.5L12.7533 12.045C13.6488 11.5269 14.0966 11.2678 14.1571 10.8987 14.1666 10.841 14.169 10.7826 14.1644 10.7245 14.1352 10.3524 13.7103 10.0658 12.8608 9.4923L8.9383 6.8447C7.3976 5.8048 7.0432 3.9093 8.1258 2.5" stroke="currentColor" stroke-linecap="round" stroke-linejoin="round" stroke-width="2"/>
  <path d="M8.9383 6.8447C6.8549 8.928 5.8333 14.6937 5.8333 17.5003M8.9383 6.8447C7.3976 5.8048 7.0432 3.9093 8.1258 2.5M8.9383 6.8447L11.1438 8.3333M11.9668 12.5L12.7533 12.045C13.6488 11.5269 14.0966 11.2678 14.1571 10.8987 14.1666 10.841 14.169 10.7826 14.1644 10.7245 14.1352 10.3524 13.7103 10.0658 12.8608 9.4923L11.1438 8.3333M12.5002 17.5003C11.689 16.5539 10.8548 15.25 10.0418 14.0482 9.4722 13.2062 9.1874 12.7852 9.1538 12.3443M11.1438 8.3333C10.4748 9.1992 10.0137 10.0173 9.6688 10.7452 9.303 11.5174 9.1201 11.9036 9.1538 12.3443M9.1538 12.3443L6.6667 11.6667" stroke="currentColor" stroke-linecap="round" stroke-linejoin="round" stroke-width="2"/>
</svg>
