<svg xmlns="http://www.w3.org/2000/svg" width="20" height="20" viewBox="0 0 20 20" fill="none">
  <path d="M5 4.5833C5 3.8045 5 3.4151 5.1675 3.125 5.2772 2.935 5.435 2.7772 5.625 2.6675 5.9151 2.5 6.3045 2.5 7.0833 2.5H9.5833C10.3622 2.5 10.7516 2.5 11.0417 2.6675 11.2317 2.7772 11.3895 2.935 11.4992 3.125 11.6667 3.4151 11.6667 3.8045 11.6667 4.5833 11.6667 5.3622 11.6667 5.7516 11.4992 6.0417 11.3895 6.2317 11.2317 6.3895 11.0417 6.4992 10.7516 6.6667 10.3622 6.6667 9.5833 6.6667H7.0833C6.3045 6.6667 5.9151 6.6667 5.625 6.4992 5.435 6.3895 5.2772 6.2317 5.1675 6.0417 5 5.7516 5 5.3622 5 4.5833Z" stroke="currentColor" stroke-width="2"/>
  <path d="M5 12.9167C5 12.1378 5 11.7484 5.1675 11.4583 5.2772 11.2683 5.435 11.1105 5.625 11.0008 5.9151 10.8333 6.3045 10.8333 7.0833 10.8333H9.5833C10.3622 10.8333 10.7516 10.8333 11.0417 11.0008 11.2317 11.1105 11.3895 11.2683 11.4992 11.4583 11.6667 11.7484 11.6667 12.1378 11.6667 12.9167 11.6667 13.6955 11.6667 14.0849 11.4992 14.375 11.3895 14.565 11.2317 14.7228 11.0417 14.8325 10.7516 15 10.3622 15 9.5833 15H7.0833C6.3045 15 5.9151 15 5.625 14.8325 5.435 14.7228 5.2772 14.565 5.1675 14.375 5 14.0849 5 13.6955 5 12.9167Z" stroke="currentColor" stroke-width="2"/>
  <path d="M17.3665 14.284C18.0111 13.6394 18.3333 13.3172 18.3333 12.9167 18.3333 12.5162 18.0111 12.1939 17.3665 11.5493L17.2007 11.3835C16.5561 10.7389 16.2338 10.4167 15.8333 10.4167 15.4328 10.4167 15.1106 10.7389 14.466 11.3835L14.3002 11.5493C13.6556 12.1939 13.3333 12.5162 13.3333 12.9167 13.3333 13.3172 13.6556 13.6394 14.3002 14.284L14.466 14.4498C15.1106 15.0944 15.4328 15.4167 15.8333 15.4167 16.2338 15.4167 16.5561 15.0944 17.2007 14.4498L17.3665 14.284Z" stroke="currentColor" stroke-width="2"/>
  <path d="M5.005 4.5833H1.6732M1.6732 4.5833V1.6667M1.6732 4.5833V10C1.6732 10.9198 1.5471 12.0566 2.4136 12.6358 2.8337 12.9167 3.4187 12.9167 4.5885 12.9167M11.6687 12.9167H13.3346M15.8334 10.4167V7.9167C15.8334 6.3453 15.8334 5.5596 15.3455 5.0715 14.8576 4.5833 14.0723 4.5833 12.5016 4.5833H11.6687" stroke="currentColor" stroke-linecap="round" stroke-linejoin="round" stroke-width="2"/>
  <path d="M18.3334 18.3333C17.5568 18.3333 17.1686 18.3333 16.8623 18.2246 16.4539 18.0796 16.1295 17.8015 15.9603 17.4514 15.8334 17.1889 15.8334 16.8561 15.8334 16.1905V15.8333" stroke="currentColor" stroke-linecap="round" stroke-linejoin="round" stroke-width="2"/>
</svg>
