<svg xmlns="http://www.w3.org/2000/svg" width="20" height="20" viewBox="0 0 20 20" fill="none">
  <path d="M12.5 4.1667C12.5 5.5474 11.3808 6.6667 10 6.6667 8.6193 6.6667 7.5 5.5474 7.5 4.1667 7.5 2.786 8.6193 1.6667 10 1.6667 11.3808 1.6667 12.5 2.786 12.5 4.1667Z" stroke="currentColor" stroke-width="2"/>
  <path d="M10 6.6667V7.5M10 7.5C10 8.2766 10 8.6648 10.148 8.9712 10.3453 9.3795 10.7239 9.704 11.2003 9.8732 11.5577 10 12.0107 10 12.9167 10 13.8227 10 14.2757 10 14.633 10.1268 15.1094 10.296 15.488 10.6205 15.6853 11.0288 15.8333 11.3352 15.8333 11.7234 15.8333 12.5V13.3333M10 7.5C10 8.2766 10 8.6648 9.852 8.9712 9.6547 9.3795 9.2761 9.704 8.7997 9.8732 8.4423 10 7.9893 10 7.0833 10 6.1773 10 5.7243 10 5.367 10.1268 4.8906 10.296 4.512 10.6205 4.3147 11.0288 4.1667 11.3352 4.1667 11.7234 4.1667 12.5V13.3333" stroke="currentColor" stroke-linecap="round" stroke-linejoin="round" stroke-width="2"/>
  <path d="M6.6667 15.8333C6.6667 17.2141 5.5474 18.3333 4.1667 18.3333 2.786 18.3333 1.6667 17.2141 1.6667 15.8333 1.6667 14.4526 2.786 13.3333 4.1667 13.3333 5.5474 13.3333 6.6667 14.4526 6.6667 15.8333Z" stroke="currentColor" stroke-width="2"/>
  <path d="M18.3333 15.8333C18.3333 17.2141 17.2141 18.3333 15.8333 18.3333 14.4526 18.3333 13.3333 17.2141 13.3333 15.8333 13.3333 14.4526 14.4526 13.3333 15.8333 13.3333 17.2141 13.3333 18.3333 14.4526 18.3333 15.8333Z" stroke="currentColor" stroke-width="2"/>
</svg>
