<svg xmlns="http://www.w3.org/2000/svg" width="20" height="20" viewBox="0 0 20 20" fill="none">
  <path d="M2.5 3.6667C2.5 2.7239 2.5 2.2525 2.7929 1.9596 3.0858 1.6667 3.5572 1.6667 4.5 1.6667H4.6667C5.6095 1.6667 6.0809 1.6667 6.3738 1.9596 6.6667 2.2525 6.6667 2.7239 6.6667 3.6667V3.8333C6.6667 4.7761 6.6667 5.2476 6.3738 5.5404 6.0809 5.8333 5.6095 5.8333 4.6667 5.8333H4.5C3.5572 5.8333 3.0858 5.8333 2.7929 5.5404 2.5 5.2476 2.5 4.7761 2.5 3.8333V3.6667Z" stroke="currentColor" stroke-width="2"/>
  <path d="M13.3333 7.8333C13.3333 6.8905 13.3333 6.4191 13.6263 6.1262 13.9191 5.8333 14.3905 5.8333 15.3333 5.8333H15.5C16.4428 5.8333 16.9143 5.8333 17.2071 6.1262 17.5 6.4191 17.5 6.8905 17.5 7.8333V8C17.5 8.9428 17.5 9.4143 17.2071 9.7071 16.9143 10 16.4428 10 15.5 10H15.3333C14.3905 10 13.9191 10 13.6263 9.7071 13.3333 9.4143 13.3333 8.9428 13.3333 8V7.8333Z" stroke="currentColor" stroke-width="2"/>
  <path d="M2.5 12C2.5 11.0572 2.5 10.5858 2.7929 10.2929 3.0858 10 3.5572 10 4.5 10H4.6667C5.6095 10 6.0809 10 6.3738 10.2929 6.6667 10.5858 6.6667 11.0572 6.6667 12V12.1667C6.6667 13.1095 6.6667 13.5809 6.3738 13.8737 6.0809 14.1667 5.6095 14.1667 4.6667 14.1667H4.5C3.5572 14.1667 3.0858 14.1667 2.7929 13.8737 2.5 13.5809 2.5 13.1095 2.5 12.1667V12Z" stroke="currentColor" stroke-width="2"/>
  <path d="M13.3333 16.1667C13.3333 15.2238 13.3333 14.7524 13.6263 14.4596 13.9191 14.1667 14.3905 14.1667 15.3333 14.1667H15.5C16.4428 14.1667 16.9143 14.1667 17.2071 14.4596 17.5 14.7524 17.5 15.2238 17.5 16.1667V16.3333C17.5 17.2762 17.5 17.7476 17.2071 18.0404 16.9143 18.3333 16.4428 18.3333 15.5 18.3333H15.3333C14.3905 18.3333 13.9191 18.3333 13.6263 18.0404 13.3333 17.7476 13.3333 17.2762 13.3333 16.3333V16.1667Z" stroke="currentColor" stroke-width="2"/>
  <path d="M6.6667 3.75L12.5 7.9167 7.5 12.0833 13.3333 16.25" stroke="currentColor" stroke-linecap="round" stroke-linejoin="round" stroke-width="2"/>
</svg>
