<svg xmlns="http://www.w3.org/2000/svg" width="20" height="20" viewBox="0 0 20 20" fill="none">
  <path d="M8.0784 3.0164C9.0134 2.1105 9.4809 1.6576 10.0528 1.6667 10.6247 1.6757 11.0776 2.1432 11.9835 3.0782 12.8893 4.0133 13.3422 4.4808 13.3332 5.0526 13.3242 5.6245 12.8567 6.0775 11.9216 6.9833 10.9866 7.8892 10.5191 8.3421 9.9472 8.3331 9.3753 8.324 8.9224 7.8565 8.0165 6.9215 7.1107 5.9864 6.6577 5.5189 6.6668 4.9471 6.6759 4.3752 7.1434 3.9222 8.0784 3.0164Z" stroke="currentColor" stroke-width="2"/>
  <path d="M5.8333 11.2498C5.8333 12.4004 4.9006 13.3332 3.75 13.3332 2.5994 13.3332 1.6667 12.4004 1.6667 11.2498 1.6667 10.0992 2.5994 9.1665 3.75 9.1665 4.9006 9.1665 5.8333 10.0992 5.8333 11.2498Z" stroke="currentColor" stroke-width="2"/>
  <path d="M18.3333 11.2498C18.3333 10.0992 17.4006 9.1665 16.25 9.1665 15.0994 9.1665 14.1667 10.0992 14.1667 11.2498 14.1667 12.4004 15.0994 13.3332 16.25 13.3332 17.4006 13.3332 18.3333 12.4004 18.3333 11.2498Z" stroke="currentColor" stroke-width="2"/>
  <path d="M10 8.3332L10 14.1665" stroke="currentColor" stroke-linecap="round" stroke-linejoin="round" stroke-width="2"/>
  <path d="M7.9167 7.0832L5.4167 9.5832" stroke="currentColor" stroke-linecap="round" stroke-linejoin="round" stroke-width="2"/>
  <path d="M12.0833 7.0832L14.5833 9.5832" stroke="currentColor" stroke-linecap="round" stroke-linejoin="round" stroke-width="2"/>
  <path d="M7.9167 16.1665C7.9167 15.2237 7.9167 14.7523 8.2096 14.4594 8.5024 14.1665 8.9738 14.1665 9.9167 14.1665H10.0833C11.0262 14.1665 11.4976 14.1665 11.7904 14.4594 12.0833 14.7523 12.0833 15.2237 12.0833 16.1665V16.3332C12.0833 17.276 12.0833 17.7474 11.7904 18.0403 11.4976 18.3332 11.0262 18.3332 10.0833 18.3332H9.9167C8.9738 18.3332 8.5024 18.3332 8.2096 18.0403 7.9167 17.7474 7.9167 17.276 7.9167 16.3332V16.1665Z" stroke="currentColor" stroke-width="2"/>
</svg>
