<svg xmlns="http://www.w3.org/2000/svg" width="20" height="20" viewBox="0 0 20 20" fill="none">
  <path d="M17.5 16.25C17.5 17.4006 16.5673 18.3333 15.4167 18.3333 14.2661 18.3333 13.3333 17.4006 13.3333 16.25 13.3333 15.0994 14.2661 14.1667 15.4167 14.1667 16.5673 14.1667 17.5 15.0994 17.5 16.25Z" stroke="currentColor" stroke-width="2"/>
  <path d="M17.5 7.9167C17.5 9.0672 16.5673 10 15.4167 10 14.2661 10 13.3333 9.0672 13.3333 7.9167 13.3333 6.7661 14.2661 5.8333 15.4167 5.8333 16.5673 5.8333 17.5 6.7661 17.5 7.9167Z" stroke="currentColor" stroke-width="2"/>
  <path d="M6.6667 12.0833C6.6667 13.2339 5.7339 14.1667 4.5833 14.1667 3.4327 14.1667 2.5 13.2339 2.5 12.0833 2.5 10.9328 3.4327 10 4.5833 10 5.7339 10 6.6667 10.9328 6.6667 12.0833Z" stroke="currentColor" stroke-width="2"/>
  <path d="M6.6667 3.75C6.6667 4.9006 5.7339 5.8333 4.5833 5.8333 3.4327 5.8333 2.5 4.9006 2.5 3.75 2.5 2.5994 3.4327 1.6667 4.5833 1.6667 5.7339 1.6667 6.6667 2.5994 6.6667 3.75Z" stroke="currentColor" stroke-width="2"/>
  <path d="M6.6667 3.75L12.9167 7.9167 7.0833 12.0833 13.3333 16.25" stroke="currentColor" stroke-linecap="round" stroke-linejoin="round" stroke-width="2"/>
</svg>
