<svg xmlns="http://www.w3.org/2000/svg" width="20" height="20" viewBox="0 0 20 20" fill="none">
  <path d="M12.0835 3.75C12.0835 4.4404 11.5238 5 10.8335 5 10.1431 5 9.5835 4.4404 9.5835 3.75 9.5835 3.0596 10.1431 2.5 10.8335 2.5 11.5238 2.5 12.0835 3.0596 12.0835 3.75Z" stroke="currentColor" stroke-width="2"/>
  <path d="M15.8333 7.4089L11.6481 6.9095M15.8333 17.5L15.4532 14.6084C15.2419 13.0018 15.1363 12.1984 14.5762 11.7748 14.0162 11.3513 13.2268 11.4776 11.6481 11.7304L10.1168 11.9756M11.6481 6.9095L10.1859 6.7351C9.517 6.6553 9.1826 6.6154 8.9288 6.7868 8.675 6.9583 8.5825 7.2866 8.3975 7.9434L7.8406 9.92C7.5193 11.0603 7.3587 11.6304 7.66 11.9756 7.9612 12.3208 8.5388 12.2283 9.6938 12.0433L10.1168 11.9756M11.6481 6.9095L10.1168 11.9756" stroke="currentColor" stroke-linecap="round" stroke-linejoin="round" stroke-width="2"/>
  <path d="M8.3333 14.1667L7.8727 15.088C7.6308 15.5718 7.2385 15.9641 6.7546 16.206L4.1667 17.5" stroke="currentColor" stroke-linecap="round" stroke-linejoin="round" stroke-width="2"/>
</svg>
