<svg xmlns="http://www.w3.org/2000/svg" width="20" height="20" viewBox="0 0 20 20" fill="none">
  <path d="M15 17.9167C16.8409 17.9167 18.3333 16.4243 18.3333 14.5833 18.3333 12.7424 16.8409 11.25 15 11.25 13.1591 11.25 11.6667 12.7424 11.6667 14.5833 11.6667 16.4243 13.1591 17.9167 15 17.9167Z" stroke="currentColor" stroke-linecap="round" stroke-linejoin="round" stroke-width="2"/>
  <path d="M15.042 16.1665H15.0003M15.0837 16.1665C15.0837 16.2125 15.0463 16.2498 15.0003 16.2498 14.9543 16.2498 14.917 16.2125 14.917 16.1665 14.917 16.1205 14.9543 16.0832 15.0003 16.0832 15.0463 16.0832 15.0837 16.1205 15.0837 16.1665Z" stroke="currentColor" stroke-linecap="round" stroke-linejoin="round" stroke-width="2"/>
  <path d="M15 14.1667V12.9167" stroke="currentColor" stroke-linecap="round" stroke-linejoin="round" stroke-width="2"/>
  <path d="M9.1667 17.0833H6.6667C4.3096 17.0833 3.1311 17.0833 2.3989 16.3511 1.6667 15.6188 1.6667 14.4403 1.6667 12.0833V10C1.6667 7.643 1.6667 6.4645 2.3989 5.7322 3.1311 5 4.3096 5 6.6667 5H12.5C14.857 5 16.0355 5 16.7678 5.7322 17.3572 6.3217 17.4776 7.2003 17.5 8.75" stroke="currentColor" stroke-linecap="round" stroke-linejoin="round" stroke-width="2"/>
  <path d="M6.6667 5C6.6667 3.8296 6.6667 3.2444 6.9475 2.8241 7.0691 2.6421 7.2254 2.4858 7.4074 2.3642 7.8278 2.0833 8.4129 2.0833 9.5833 2.0833 10.7538 2.0833 11.3389 2.0833 11.7593 2.3642 11.9413 2.4858 12.0975 2.6421 12.2191 2.8241 12.5 3.2444 12.5 3.8296 12.5 5" stroke="currentColor" stroke-linecap="round" stroke-linejoin="round" stroke-width="2"/>
</svg>
