<svg xmlns="http://www.w3.org/2000/svg" width="20" height="20" viewBox="0 0 20 20" fill="none">
  <path d="M9.1721 17.5H8.0046C5.0168 17.5 3.523 17.5 2.5948 16.5542 1.6667 15.6084 1.6667 14.0862 1.6667 11.0417 1.6667 7.9972 1.6667 6.4749 2.5948 5.5291 3.523 4.5833 5.0168 4.5833 8.0046 4.5833H11.1735C14.1612 4.5833 15.6551 4.5833 16.5832 5.5291 17.2973 6.2568 17.462 7.3258 17.5 9.1667" stroke="currentColor" stroke-linecap="round" stroke-linejoin="round" stroke-width="2"/>
  <path d="M14.5833 18.3333C16.6544 18.3333 18.3333 16.6544 18.3333 14.5833 18.3333 12.5122 16.6544 10.8333 14.5833 10.8333 12.5122 10.8333 10.8333 12.5122 10.8333 14.5833 10.8333 16.6544 12.5122 18.3333 14.5833 18.3333Z" stroke="currentColor" stroke-linecap="round" stroke-width="2"/>
  <path d="M16.25 15L15.7618 15.4617C15.2062 15.9872 14.9285 16.25 14.5833 16.25M12.9167 15L13.4048 15.4617C13.9604 15.9872 14.2382 16.25 14.5833 16.25M14.5833 16.25V12.9167" stroke="currentColor" stroke-linecap="round" stroke-linejoin="round" stroke-width="2"/>
  <path d="M13.3333 4.5833L13.2506 4.3258C12.838 3.0424 12.6318 2.4007 12.1408 2.0337 11.6497 1.6667 10.9975 1.6667 9.693 1.6667H9.4737C8.1692 1.6667 7.517 1.6667 7.0259 2.0337 6.5349 2.4007 6.3286 3.0424 5.9161 4.3258L5.8333 4.5833" stroke="currentColor" stroke-linecap="round" stroke-linejoin="round" stroke-width="2"/>
</svg>
