<svg xmlns="http://www.w3.org/2000/svg" width="20" height="20" viewBox="0 0 20 20" fill="none">
  <path d="M13.3333 3.75C13.3333 4.4404 12.7737 5 12.0833 5 11.393 5 10.8333 4.4404 10.8333 3.75 10.8333 3.0596 11.393 2.5 12.0833 2.5 12.7737 2.5 13.3333 3.0596 13.3333 3.75Z" stroke="currentColor" stroke-width="2"/>
  <path d="M4.1667 10L5.3968 8.0619C5.6141 7.7196 5.7227 7.5485 5.8646 7.4094 6.0065 7.2703 6.1765 7.1683 6.5166 6.9642L7.2847 6.5032C8.0034 6.0718 8.3628 5.8561 8.7602 5.835 9.1575 5.8139 9.5358 5.9905 10.2923 6.3436L11.7048 7.003C12.0158 7.1482 12.1713 7.2208 12.3073 7.3224 12.4038 7.3944 12.4927 7.477 12.5725 7.5687 12.6851 7.6982 12.7727 7.8515 12.9478 8.158 13.2559 8.6974 13.41 8.9672 13.6273 9.1572 13.7806 9.2912 13.9556 9.3953 14.144 9.4644 14.4109 9.5623 14.7103 9.5623 15.3092 9.5623H15.8333" stroke="currentColor" stroke-linecap="round" stroke-linejoin="round" stroke-width="2"/>
  <path d="M9.5833 6.25L6.6667 11.6667M6.6667 11.6667L7.8724 13.3547C8.3704 14.0519 8.2586 15.0133 7.6136 15.5777L5.4167 17.5M6.6667 11.6667H9.5833M14.1667 15L12.1667 12.3333C11.8519 11.9137 11.3579 11.6667 10.8333 11.6667H9.5833M9.5833 11.6667L12.5 7.5" stroke="currentColor" stroke-linecap="round" stroke-linejoin="round" stroke-width="2"/>
</svg>
