<svg xmlns="http://www.w3.org/2000/svg" width="20" height="20" viewBox="0 0 20 20" fill="none">
  <path d="M7.5 4.1667C7.5 2.9882 7.5 2.3989 7.8661 2.0328 8.2322 1.6667 8.8215 1.6667 10 1.6667 11.1785 1.6667 11.7677 1.6667 12.1339 2.0328 12.5 2.3989 12.5 2.9882 12.5 4.1667 12.5 5.3452 12.5 5.9344 12.1339 6.3006 11.7677 6.6667 11.1785 6.6667 10 6.6667 8.8215 6.6667 8.2322 6.6667 7.8661 6.3006 7.5 5.9344 7.5 5.3452 7.5 4.1667Z" stroke="currentColor" stroke-width="2"/>
  <path d="M1.6667 15.8333C1.6667 14.6548 1.6667 14.0656 2.0328 13.6994 2.3989 13.3333 2.9882 13.3333 4.1667 13.3333 5.3452 13.3333 5.9344 13.3333 6.3006 13.6994 6.6667 14.0656 6.6667 14.6548 6.6667 15.8333 6.6667 17.0118 6.6667 17.6011 6.3006 17.9672 5.9344 18.3333 5.3452 18.3333 4.1667 18.3333 2.9882 18.3333 2.3989 18.3333 2.0328 17.9672 1.6667 17.6011 1.6667 17.0118 1.6667 15.8333Z" stroke="currentColor" stroke-width="2"/>
  <path d="M13.3333 15.8333C13.3333 14.6548 13.3333 14.0656 13.6994 13.6994 14.0656 13.3333 14.6548 13.3333 15.8333 13.3333 17.0118 13.3333 17.6011 13.3333 17.9672 13.6994 18.3333 14.0656 18.3333 14.6548 18.3333 15.8333 18.3333 17.0118 18.3333 17.6011 17.9672 17.9672 17.6011 18.3333 17.0118 18.3333 15.8333 18.3333 14.6548 18.3333 14.0656 18.3333 13.6994 17.9672 13.3333 17.6011 13.3333 17.0118 13.3333 15.8333Z" stroke="currentColor" stroke-width="2"/>
  <path d="M10 6.6667V7.5M10 7.5C10 8.2766 10 8.6648 10.148 8.9712 10.3453 9.3795 10.7239 9.704 11.2003 9.8732 11.5577 10 12.0107 10 12.9167 10 13.8227 10 14.2757 10 14.633 10.1268 15.1094 10.296 15.488 10.6205 15.6853 11.0288 15.8333 11.3352 15.8333 11.7234 15.8333 12.5V13.3333M10 7.5C10 8.2766 10 8.6648 9.852 8.9712 9.6547 9.3795 9.2761 9.704 8.7997 9.8732 8.4423 10 7.9893 10 7.0833 10 6.1773 10 5.7243 10 5.367 10.1268 4.8906 10.296 4.512 10.6205 4.3147 11.0288 4.1667 11.3352 4.1667 11.7234 4.1667 12.5V13.3333" stroke="currentColor" stroke-linecap="round" stroke-linejoin="round" stroke-width="2"/>
</svg>
