<svg xmlns="http://www.w3.org/2000/svg" width="20" height="20" viewBox="0 0 20 20" fill="none">
  <path d="M2.5 15.8333C2.5 17.0118 2.5 17.6011 2.8661 17.9672 3.2322 18.3333 3.8215 18.3333 5 18.3333 6.1785 18.3333 6.7678 18.3333 7.1339 17.9672 7.5 17.6011 7.5 17.0118 7.5 15.8333 7.5 14.6548 7.5 14.0656 7.1339 13.6994 6.7678 13.3333 6.1785 13.3333 5 13.3333 3.8215 13.3333 3.2322 13.3333 2.8661 13.6994 2.5 14.0656 2.5 14.6548 2.5 15.8333Z" stroke="currentColor" stroke-width="2"/>
  <path d="M2.5 4.1667C2.5 5.3452 2.5 5.9344 2.8661 6.3006 3.2322 6.6667 3.8215 6.6667 5 6.6667 6.1785 6.6667 6.7678 6.6667 7.1339 6.3006 7.5 5.9344 7.5 5.3452 7.5 4.1667 7.5 2.9882 7.5 2.3989 7.1339 2.0328 6.7678 1.6667 6.1785 1.6667 5 1.6667 3.8215 1.6667 3.2322 1.6667 2.8661 2.0328 2.5 2.3989 2.5 2.9882 2.5 4.1667Z" stroke="currentColor" stroke-width="2"/>
  <path d="M12.5 11.6667C12.5 12.8452 12.5 13.4344 12.8661 13.8006 13.2323 14.1667 13.8215 14.1667 15 14.1667 16.1785 14.1667 16.7678 14.1667 17.1339 13.8006 17.5 13.4344 17.5 12.8452 17.5 11.6667 17.5 10.4882 17.5 9.8989 17.1339 9.5328 16.7678 9.1667 16.1785 9.1667 15 9.1667 13.8215 9.1667 13.2323 9.1667 12.8661 9.5328 12.5 9.8989 12.5 10.4882 12.5 11.6667Z" stroke="currentColor" stroke-width="2"/>
  <path d="M5 6.6667V13.3333" stroke="currentColor" stroke-linecap="round" stroke-linejoin="round" stroke-width="2"/>
  <path d="M12.5 11.6667H10C7.2386 11.6667 5 9.4281 5 6.6667" stroke="currentColor" stroke-linecap="round" stroke-linejoin="round" stroke-width="2"/>
</svg>
