<svg xmlns="http://www.w3.org/2000/svg" width="20" height="20" viewBox="0 0 20 20" fill="none">
  <path d="M2.5 4.1667C2.5 2.9882 2.5 2.3989 2.8661 2.0328 3.2322 1.6667 3.8215 1.6667 5 1.6667 6.1785 1.6667 6.7678 1.6667 7.1339 2.0328 7.5 2.3989 7.5 2.9882 7.5 4.1667 7.5 5.3452 7.5 5.9344 7.1339 6.3006 6.7678 6.6667 6.1785 6.6667 5 6.6667 3.8215 6.6667 3.2322 6.6667 2.8661 6.3006 2.5 5.9344 2.5 5.3452 2.5 4.1667Z" stroke="currentColor" stroke-width="2"/>
  <path d="M2.5 15.8333C2.5 14.6548 2.5 14.0656 2.8661 13.6994 3.2322 13.3333 3.8215 13.3333 5 13.3333 6.1785 13.3333 6.7678 13.3333 7.1339 13.6994 7.5 14.0656 7.5 14.6548 7.5 15.8333 7.5 17.0118 7.5 17.6011 7.1339 17.9672 6.7678 18.3333 6.1785 18.3333 5 18.3333 3.8215 18.3333 3.2322 18.3333 2.8661 17.9672 2.5 17.6011 2.5 17.0118 2.5 15.8333Z" stroke="currentColor" stroke-width="2"/>
  <path d="M12.5 5.8333C12.5 4.6548 12.5 4.0656 12.8661 3.6994 13.2323 3.3333 13.8215 3.3333 15 3.3333 16.1785 3.3333 16.7678 3.3333 17.1339 3.6994 17.5 4.0656 17.5 4.6548 17.5 5.8333 17.5 7.0118 17.5 7.6011 17.1339 7.9672 16.7678 8.3333 16.1785 8.3333 15 8.3333 13.8215 8.3333 13.2323 8.3333 12.8661 7.9672 12.5 7.6011 12.5 7.0118 12.5 5.8333Z" stroke="currentColor" stroke-width="2"/>
  <path d="M5 13.3333V6.6667" stroke="currentColor" stroke-linecap="round" stroke-linejoin="round" stroke-width="2"/>
  <path d="M15 8.3333C15 9.7141 13.8808 10.8333 12.5 10.8333H7.5C6.1193 10.8333 5 11.9526 5 13.3333" stroke="currentColor" stroke-linecap="round" stroke-linejoin="round" stroke-width="2"/>
</svg>
