<svg xmlns="http://www.w3.org/2000/svg" width="20" height="20" viewBox="0 0 20 20" fill="none">
  <path d="M16.9653 11.1306C15.9741 12.1217 14.109 12.0832 11.2493 12.0832 9.4095 12.0832 7.9178 10.5893 7.9169 8.7494 7.9169 5.8917 7.8783 4.0255 8.8696 3.0345 9.8608 2.0434 10.2986 2.0836 14.6895 2.0836 15.1138 2.0817 15.3274 2.5949 15.0274 2.895L12.7666 5.156C12.1928 5.7298 12.1912 6.6603 12.7651 7.2341 13.339 7.8079 14.2695 7.808 14.8435 7.2342L17.1049 4.9738C17.405 4.6738 17.9183 4.8874 17.9164 5.3116 17.9164 9.7018 17.9566 10.1396 16.9653 11.1306Z" stroke="currentColor" stroke-width="2"/>
  <path d="M11.25 12.0833L6.107 17.2263C5.1866 18.1468 3.6942 18.1468 2.7737 17.2263 1.8532 16.3058 1.8532 14.8134 2.7737 13.893L7.9167 8.75" stroke="currentColor" stroke-linecap="round" stroke-width="2"/>
  <path d="M4.5908 15.4167H4.5833" stroke="currentColor" stroke-linecap="round" stroke-linejoin="round" stroke-width="2"/>
</svg>
