<svg xmlns="http://www.w3.org/2000/svg" width="20" height="20" viewBox="0 0 20 20" fill="none">
  <path d="M15 5.9216C14.9999 7.1315 13.8242 8.2463 12.0581 9.9917 10.9218 11.1147 9.078 11.1133 7.9411 9.991 6.1762 8.2468 4.9999 7.1313 5 5.9214 5.0001 4.7115 5.2953 4.4688 8.0071 1.7888 8.268 1.5287 8.7168 1.7116 8.7168 2.0778L8.717 4.8377C8.717 5.5382 9.2907 6.1071 9.9995 6.107 10.7083 6.107 11.283 5.5391 11.2832 4.8385L11.2837 2.0786C11.2838 1.7124 11.7328 1.5294 11.9937 1.7895 14.705 4.4691 15.0001 4.7117 15 5.9216Z" stroke="currentColor" stroke-width="2"/>
  <path d="M12.5 10L12.5 15.971C12.5 17.2757 11.3808 18.3333 10 18.3333 8.6193 18.3333 7.5 17.2757 7.5 15.971L7.5 10" stroke="currentColor" stroke-linecap="round" stroke-width="2"/>
  <path d="M10.0053 15.8329L10 15.8383" stroke="currentColor" stroke-linecap="round" stroke-linejoin="round" stroke-width="2"/>
</svg>
