<svg xmlns="http://www.w3.org/2000/svg" width="20" height="20" viewBox="0 0 20 20" fill="none">
  <rect width="16.666666666666668" height="15" rx="4.166666666666667" transform="matrix(4.37114e-08 -1 -1 -4.37114e-08 21 22)" stroke="currentColor" stroke-width="2"/>
  <path d="M10 4.1667L10 11.6667" stroke="currentColor" stroke-linecap="round" stroke-linejoin="round" stroke-width="2"/>
  <path d="M10 11.9434C9.2058 11.9434 8.4521 11.8557 7.7742 11.6981 7.0454 11.5288 6.25 12.0628 6.25 12.8374 6.25 13.242 6.4718 13.6167 6.8389 13.7533 7.1087 13.8536 7.3976 13.9414 7.7024 14.0151 8.1956 14.1342 8.6293 14.456 8.8437 14.9318L8.9323 15.1286C9.1262 15.5586 9.5424 15.8333 10 15.8333 10.4576 15.8333 10.8738 15.5586 11.0677 15.1286L11.1563 14.9318C11.3708 14.456 11.8044 14.1342 12.2976 14.0151 12.6023 13.9414 12.8913 13.8536 13.1611 13.7533 13.5282 13.6167 13.75 13.242 13.75 12.8374 13.75 12.0628 12.9546 11.5288 12.2258 11.6981 11.5479 11.8557 10.7942 11.9434 10 11.9434Z" stroke="currentColor" stroke-linecap="round" stroke-width="2"/>
  <path d="M12.5 5.8333C12.1778 6.3488 11.7367 6.6667 11.25 6.6667 10.7633 6.6667 10.3222 6.3488 10 5.8333 9.6778 6.3488 9.2367 6.6667 8.75 6.6667 8.2633 6.6667 7.8221 6.3488 7.5 5.8333" stroke="currentColor" stroke-linecap="round" stroke-linejoin="round" stroke-width="2"/>
  <path d="M5.8333 8.3333C6.3702 8.8488 7.1056 9.1667 7.9167 9.1667 8.7278 9.1667 9.4631 8.8488 10 8.3333 10.5369 8.8488 11.2722 9.1667 12.0833 9.1667 12.8944 9.1667 13.6297 8.8488 14.1667 8.3333" stroke="currentColor" stroke-linecap="round" stroke-linejoin="round" stroke-width="2"/>
</svg>
