<svg xmlns="http://www.w3.org/2000/svg" width="20" height="20" viewBox="0 0 20 20" fill="none">
  <path d="M16.25 9.1667C16.25 8.4854 16.25 7.8588 16.1232 7.5526 15.9962 7.2463 15.7554 7.0054 15.2737 6.5237L11.3266 2.5766C10.9108 2.1608 10.703 1.953 10.4454 1.8298 10.3918 1.8042 10.337 1.7814 10.281 1.7617 10.0117 1.6667 9.7178 1.6667 9.1298 1.6667 6.4257 1.6667 5.0736 1.6667 4.1578 2.4051 3.9728 2.5542 3.8042 2.7228 3.6551 2.9078 2.9167 3.8236 2.9167 5.1757 2.9167 7.8799V11.6667C2.9167 14.8093 2.9167 16.3808 3.893 17.357 4.8693 18.3333 6.4406 18.3333 9.5833 18.3333H16.25M10.4167 2.0833V2.5C10.4167 4.857 10.4167 6.0355 11.1489 6.7678 11.8812 7.5 13.0597 7.5 15.4167 7.5H15.8333" stroke="currentColor" stroke-linecap="round" stroke-linejoin="round" stroke-width="2"/>
  <path d="M15.4167 11.6665V14.1665C15.4167 14.9522 15.4167 15.345 15.6608 15.5891 15.9048 15.8332 16.2977 15.8332 17.0833 15.8332" stroke="currentColor" stroke-linecap="round" stroke-linejoin="round" stroke-width="2"/>
  <path d="M6.6667 11.6667L7.9167 13.75M7.9167 13.75L9.1667 15.8333M7.9167 13.75L9.1667 11.6667M7.9167 13.75L6.6667 15.8333" stroke="currentColor" stroke-linecap="round" stroke-linejoin="round" stroke-width="2"/>
  <path d="M13.3333 11.6667H12.0833C11.6231 11.6667 11.25 12.0397 11.25 12.5V12.9167C11.25 13.3769 11.6231 13.75 12.0833 13.75H12.5C12.9603 13.75 13.3333 14.1231 13.3333 14.5833V15C13.3333 15.4603 12.9603 15.8333 12.5 15.8333H11.25" stroke="currentColor" stroke-linecap="round" stroke-linejoin="round" stroke-width="2"/>
</svg>
