<svg xmlns="http://www.w3.org/2000/svg" width="20" height="20" viewBox="0 0 20 20" fill="none">
  <path d="M2.0833 10C2.0833 6.268 2.0833 4.4021 3.2427 3.2427 4.4021 2.0833 6.268 2.0833 10 2.0833 13.7319 2.0833 15.5979 2.0833 16.7573 3.2427 17.9167 4.4021 17.9167 6.268 17.9167 10 17.9167 13.7319 17.9167 15.5979 16.7573 16.7573 15.5979 17.9167 13.7319 17.9167 10 17.9167 6.268 17.9167 4.4021 17.9167 3.2427 16.7573 2.0833 15.5979 2.0833 13.7319 2.0833 10Z" stroke="currentColor" stroke-linejoin="round" stroke-width="2"/>
  <path d="M13.3333 7.5C10.6803 7.5 9.3198 12.5173 6.6667 12.5173" stroke="currentColor" stroke-linecap="round" stroke-linejoin="round" stroke-width="2"/>
  <path d="M12.9508 12.5173C12.2768 12.5173 11.9064 12.5173 11.6223 12.4165 11.461 12.3592 11.3141 12.2791 11.1888 12.1801 10.9682 12.0058 10.8473 11.756 10.6052 11.2566L9.3963 8.7607C9.1543 8.2613 9.0333 8.0116 8.8128 7.8373 8.6875 7.7383 8.5406 7.6582 8.3793 7.6009 8.0951 7.5 7.7248 7.5 7.0508 7.5" stroke="currentColor" stroke-linecap="round" stroke-linejoin="round" stroke-width="2"/>
</svg>
