<svg xmlns="http://www.w3.org/2000/svg" width="20" height="20" viewBox="0 0 20 20" fill="none">
  <path d="M3.4336 10.4137C3.3677 10.7853 3.3333 11.168 3.3333 11.5588 3.3333 11.7056 3.3382 11.8513 3.3477 11.9956 3.3919 12.6633 3.414 12.9972 3.7385 13.218 4.0629 13.4388 4.4318 13.3163 5.1695 13.0713L5.8449 12.8471C7.4832 12.3029 8.3024 12.0309 8.3325 11.4812 8.3626 10.9314 7.5781 10.5698 6.0091 9.8468L5.3613 9.5483C4.6549 9.2227 4.3017 9.06 3.9552 9.2433 3.6087 9.4268 3.5503 9.7557 3.4336 10.4137Z" stroke="currentColor" stroke-width="2"/>
  <path d="M15.2688 10.2646L14.8762 10.3604C13.0188 10.8133 12.0901 11.0397 11.7605 10.5852 11.431 10.1306 11.9902 9.3945 13.1087 7.9223L13.343 7.6138C13.8149 6.9925 14.0509 6.6819 14.4578 6.6673 14.8646 6.6526 15.0869 6.9027 15.5316 7.4028 15.81 7.716 16.0568 8.0552 16.2671 8.4161 16.5996 8.9865 16.7658 9.2717 16.6043 9.625 16.4429 9.9783 16.0516 10.0738 15.2688 10.2646Z" stroke="currentColor" stroke-width="2"/>
  <path d="M14.9497 15.9162C15.1258 15.6839 15.2878 15.4378 15.4343 15.1796 15.7497 14.6234 15.9074 14.3453 15.7995 13.9759 15.7957 13.9629 15.7896 13.9439 15.7851 13.9311 15.6583 13.5693 15.3295 13.4485 14.6718 13.2069 12.9576 12.5773 12.1005 12.2624 11.78 12.7105 11.7673 12.7282 11.7554 12.7463 11.7442 12.7651 11.4576 13.241 11.9833 14.0592 13.0349 15.6958 13.4383 16.3237 13.6401 16.6376 13.9865 16.6647 13.9991 16.6657 14.0177 16.6665 14.0303 16.6666 14.3776 16.6707 14.5683 16.4192 14.9497 15.9162Z" stroke="currentColor" stroke-width="2"/>
  <path d="M10 16.7308V16.4826C10 14.5315 10 13.5559 9.5124 13.3628 9.0248 13.1698 8.4843 13.9313 7.4035 15.4544L7.2654 15.6492C6.8223 16.2734 6.6008 16.5856 6.6839 16.977 6.7669 17.3683 7.0422 17.5093 7.5929 17.7912 7.9008 17.9488 8.223 18.077 8.5568 18.1728 9.1434 18.3413 9.4367 18.4256 9.7183 18.1786 10 17.9317 10 17.5313 10 16.7308Z" stroke="currentColor" stroke-width="2"/>
  <path d="M10 3.2348V5.4704C10 7.8142 10 8.9862 9.3521 9.1495 8.7041 9.3128 8.0415 8.3079 6.7163 6.2981L5.5272 4.4946C5.1222 3.8803 4.9197 3.5732 5.0297 3.2344 5.1396 2.8956 5.4522 2.7561 6.0773 2.4771 6.7557 2.1744 7.4866 1.9404 8.2451 1.7951 8.9791 1.6545 9.3461 1.5841 9.673 1.8256 10 2.067 10 2.4563 10 3.2348Z" stroke="currentColor" stroke-width="2"/>
</svg>
