<svg xmlns="http://www.w3.org/2000/svg" width="20" height="20" viewBox="0 0 20 20" fill="none">
  <path d="M7.5 8.3333C7.5 11.555 10 14.1667 10 14.1667 10 14.1667 12.5 11.555 12.5 8.3333 12.5 5.1117 10 2.5 10 2.5 10 2.5 7.5 5.1117 7.5 8.3333Z" stroke="currentColor" stroke-linejoin="round" stroke-width="2"/>
  <path d="M5.2758 6.6667C3.4285 5.8718 1.6667 5.8333 1.6667 5.8333 1.6667 5.8333 1.7464 9.4845 4.0476 11.7858 6.3488 14.0869 10 14.1667 10 14.1667 10 14.1667 13.6512 14.0869 15.9524 11.7858 18.2536 9.4845 18.3333 5.8333 18.3333 5.8333 18.3333 5.8333 16.5715 5.8718 14.7243 6.6667" stroke="currentColor" stroke-linecap="round" stroke-linejoin="round" stroke-width="2"/>
  <path d="M10.0173 14.1667C9.8787 15.2778 10.5503 17.5 12.9279 17.5 14.5911 17.5 15.4227 15.8333 18.3333 17.5 18 15.8333 17.3332 14.7666 16.3607 14.1667M9.9828 14.1667C10.1213 15.2778 9.4497 17.5 7.0721 17.5 5.4089 17.5 4.5773 15.8333 1.6667 17.5 2 15.8333 2.6668 14.7666 3.6392 14.1667" stroke="currentColor" stroke-linecap="round" stroke-linejoin="round" stroke-width="2"/>
</svg>
