<svg xmlns="http://www.w3.org/2000/svg" width="20" height="20" viewBox="0 0 20 20" fill="none">
  <path d="M18.3333 10C18.3333 14.6023 14.6023 18.3333 10 18.3333 5.3976 18.3333 1.6667 14.6023 1.6667 10 1.6667 5.3976 5.3976 1.6667 10 1.6667 14.6023 1.6667 18.3333 5.3976 18.3333 10Z" stroke="currentColor" stroke-width="2"/>
  <path d="M15.7106 3.9312C15.032 7.8516 11.614 10.8333 7.4996 10.8333 5.2895 10.8333 3.2803 9.9729 1.7887 8.5688M18.1747 8.3751C16.4107 12.2814 12.481 15 7.9163 15 5.9461 15 4.0942 14.4935 2.4837 13.6037M3.0452 5.407C4.04 6.1956 5.2982 6.6666 6.6663 6.6666 9.4843 6.6666 11.8356 4.6685 12.3806 2.0117" stroke="currentColor" stroke-linecap="round" stroke-linejoin="round" stroke-width="2"/>
</svg>
