<svg xmlns="http://www.w3.org/2000/svg" width="20" height="20" viewBox="0 0 20 20" fill="none">
  <path d="M6.5716 8.3333C7.1431 9.4973 7.7537 10.5874 7.6127 11.9285 7.3872 14.0724 4.7876 14.8793 3.1252 15.867 2.036 16.5141 2.4433 18.3333 3.7799 18.3333 5.4004 18.3333 6.8467 18.204 8.3088 17.5168L11.1759 15.7523C11.5739 15.5653 12.0761 15.645 12.5 15.8333" stroke="currentColor" stroke-linecap="round" stroke-linejoin="round" stroke-width="2"/>
  <path d="M13.3421 8.3333C12.7585 9.4973 12.135 10.5874 12.279 11.9285 12.5093 14.0724 15.1639 14.8793 16.8616 15.867 17.9738 16.5141 17.5579 18.3333 16.193 18.3333 14.5382 18.3333 13.0612 18.204 11.5681 17.5168L8.6402 15.7523C8.2985 15.595 7.8815 15.6264 7.5 15.7523" stroke="currentColor" stroke-linecap="round" stroke-linejoin="round" stroke-width="2"/>
  <path d="M8.3333 3.3333C8.3333 4.2538 9.0795 5 10 5 10.9205 5 11.6667 4.2538 11.6667 3.3333 11.6667 2.4129 10.9205 1.6667 10 1.6667 9.0795 1.6667 8.3333 2.4129 8.3333 3.3333Z" stroke="currentColor" stroke-width="2"/>
  <path d="M2.5 13.3333C4.5382 13.3333 5.4531 11.0791 5.7445 9.5243 5.8205 9.1184 5.9437 8.7138 6.2135 8.4012 7.1304 7.3389 8.4867 6.6667 10 6.6667 11.5133 6.6667 12.8696 7.3389 13.7864 8.4012 14.0563 8.7138 14.1795 9.1184 14.2556 9.5243 14.5469 11.0791 15.4617 13.3333 17.5 13.3333" stroke="currentColor" stroke-linecap="round" stroke-linejoin="round" stroke-width="2"/>
</svg>
