<svg xmlns="http://www.w3.org/2000/svg" width="20" height="20" viewBox="0 0 20 20" fill="none">
  <path d="M8.7545 12.5085L14.2833 8.7491C14.4394 8.6332 14.5787 8.4962 14.6969 8.3427 15.1014 7.817 15.0934 7.0879 14.837 6.478 14.2665 5.1209 12.9127 4.1667 11.3333 4.1667 10.5537 4.1667 9.829 4.3992 9.2264 4.798L3.3268 8.9639" stroke="currentColor" stroke-linecap="round" stroke-linejoin="round" stroke-width="2"/>
  <path d="M4.996 11.2555C4.996 11.8355 5.3031 12.9883 6.6965 13.3046 7.5348 13.4949 9.9772 12.6921 8.7822 10.3654 7.5872 8.0388 4.7096 8.0267 3.539 8.8063 2.8237 9.2408 1.4344 10.5969 1.6978 12.3997 1.7913 13.4919 2.6513 15.708 5.3437 15.8347H13.5864C14.3546 15.7738 14.5133 15.6624 15.0984 15.2135 15.8855 14.5067 17.2001 13.2071 17.9638 12.3515 18.1288 12.1667 18.3068 11.9764 18.3297 11.7297V11.7297C18.4511 10.4158 16.4573 10.9849 15.0131 10.8283" stroke="currentColor" stroke-linecap="round" stroke-linejoin="round" stroke-width="2"/>
</svg>
