<svg xmlns="http://www.w3.org/2000/svg" width="20" height="20" viewBox="0 0 20 20" fill="none">
  <path d="M7.5769 13.3333C7.3191 13.9016 6.7251 14.155 6.1991 14.4302L3.1605 16.0194C1.9404 16.6576 2.5496 18.3333 3.8582 18.3333 6.7684 18.3333 9.0697 16.922 11.7003 15.8333 12.3625 15.5593 12.6834 15.6179 13.3333 15.9093" stroke="currentColor" stroke-linecap="round" stroke-linejoin="round" stroke-width="2"/>
  <path d="M7.5 15.9093C8.15 15.6179 8.4708 15.5593 9.133 15.8333 11.7637 16.922 14.065 18.3333 16.9752 18.3333 18.2838 18.3333 18.8929 16.6576 17.6728 16.0194L14.6342 14.4302C14.1082 14.155 13.5142 13.9016 13.2564 13.3333" stroke="currentColor" stroke-linecap="round" stroke-linejoin="round" stroke-width="2"/>
  <path d="M8.3333 3.3333C8.3333 4.2538 9.0795 5 10 5 10.9205 5 11.6667 4.2538 11.6667 3.3333 11.6667 2.4129 10.9205 1.6667 10 1.6667 9.0795 1.6667 8.3333 2.4129 8.3333 3.3333Z" stroke="currentColor" stroke-width="2"/>
  <path d="M10 6.6667C7.2386 6.6667 5 8.9053 5 11.6667 7.7614 11.6667 10 9.4281 10 6.6667Z" stroke="currentColor" stroke-linejoin="round" stroke-width="2"/>
  <path d="M10 6.6667C12.7614 6.6667 15 8.9053 15 11.6667 12.2386 11.6667 10 9.4281 10 6.6667Z" stroke="currentColor" stroke-linejoin="round" stroke-width="2"/>
</svg>
