<svg xmlns="http://www.w3.org/2000/svg" width="20" height="20" viewBox="0 0 20 20" fill="none">
  <path d="M12.9926 4.7934C14.3151 5.2959 15.1911 7.1686 14.1012 8.5604 13.7308 9.0333 13.1874 9.3741 12.5609 9.496M14.1012 8.5604C15.7115 8.5606 17.592 10.6652 16.1547 12.5M7.5 9.1039C6.891 8.6275 6.1206 8.4766 5.4162 8.6018 3.926 8.8666 2.5695 10.8868 3.8332 12.5M11.5342 6.5908C12.3957 6.04 12.8556 5.4121 12.9926 4.7934 13.3454 3.1997 11.5559 1.6667 8.9672 1.6667 9.6643 2.1124 9.9057 2.6591 9.8817 3.1696 9.7559 5.8434 4.7286 4.3585 5.4162 8.6018" stroke="currentColor" stroke-linecap="round" stroke-linejoin="round" stroke-width="2"/>
  <path d="M2.5 12.5L3.1901 14.7812C3.7078 16.4926 3.9667 17.3483 4.6303 17.8407 5.2939 18.3333 6.1879 18.3333 7.9759 18.3333H12.0241C13.8121 18.3333 14.7061 18.3333 15.3697 17.8407 16.0333 17.3483 16.2922 16.4926 16.8099 14.7812L17.5 12.5" stroke="currentColor" stroke-linecap="round" stroke-width="2"/>
  <path d="M1.6667 12.5H18.3333" stroke="currentColor" stroke-linecap="round" stroke-width="2"/>
</svg>
