<svg xmlns="http://www.w3.org/2000/svg" width="20" height="20" viewBox="0 0 20 20" fill="none">
  <path d="M10 17.0833C11.5081 17.0833 12.9543 16.9343 14.2945 16.6612 15.9686 16.3199 16.8057 16.1493 17.5695 15.1672 18.3333 14.1851 18.3333 13.0578 18.3333 10.8029V9.1971C18.3333 6.9423 18.3333 5.8149 17.5695 4.8328 16.8057 3.8507 15.9686 3.6801 14.2945 3.3388 12.9543 3.0656 11.5081 2.9167 10 2.9167 8.4919 2.9167 7.0457 3.0656 5.7055 3.3388 4.0314 3.6801 3.1943 3.8507 2.4305 4.8328 1.6667 5.8149 1.6667 6.9423 1.6667 9.1971V10.8029C1.6667 13.0578 1.6667 14.1851 2.4305 15.1672 3.1943 16.1493 4.0314 16.3199 5.7055 16.6612 7.0457 16.9343 8.4919 17.0833 10 17.0833Z" stroke="currentColor" stroke-width="2"/>
  <path d="M13.3018 10.2608C13.1781 10.7656 12.5201 11.1282 11.2041 11.8534 9.7727 12.6421 9.057 13.0365 8.4773 12.8846 8.281 12.8331 8.1002 12.7426 7.9483 12.6198 7.5 12.2574 7.5 11.5049 7.5 10 7.5 8.4951 7.5 7.7426 7.9483 7.3802 8.1002 7.2574 8.281 7.1669 8.4773 7.1155 9.057 6.9635 9.7727 7.3579 11.2041 8.1466 12.5201 8.8718 13.1781 9.2344 13.3018 9.7393 13.3438 9.9111 13.3438 10.0889 13.3018 10.2608Z" stroke="currentColor" stroke-linejoin="round" stroke-width="2"/>
</svg>
