<svg xmlns="http://www.w3.org/2000/svg" width="20" height="20" viewBox="0 0 20 20" fill="none">
  <path d="M18.3333 7.9167H1.6667V12.9167C1.6667 15.2737 1.6667 16.4522 2.3989 17.1844 3.1311 17.9167 4.3096 17.9167 6.6667 17.9167H13.3333C15.6903 17.9167 16.8688 17.9167 17.6011 17.1844 18.3333 16.4522 18.3333 15.2737 18.3333 12.9167V7.9167Z" stroke="currentColor" stroke-linecap="round" stroke-linejoin="round" stroke-width="2"/>
  <path d="M8.3333 17.9167V13.75C8.3333 12.8295 9.0795 12.0833 10 12.0833 10.9205 12.0833 11.6667 12.8295 11.6667 13.75V17.9167" stroke="currentColor" stroke-linecap="round" stroke-linejoin="round" stroke-width="2"/>
  <path d="M15 7.9167V17.9167" stroke="currentColor" stroke-linecap="round" stroke-linejoin="round" stroke-width="2"/>
  <path d="M5 7.9167V17.9167" stroke="currentColor" stroke-linecap="round" stroke-linejoin="round" stroke-width="2"/>
  <path d="M18.3333 7.9167L13.1235 3.8409C11.6258 2.6692 10.8769 2.0833 10 2.0833 9.1231 2.0833 8.3742 2.6692 6.8765 3.8409L1.6667 7.9167" stroke="currentColor" stroke-linecap="round" stroke-linejoin="round" stroke-width="2"/>
  <path d="M12.5 7.9167L10.9371 3.8409C10.4878 2.6692 10.2631 2.0833 10 2.0833 9.7369 2.0833 9.5122 2.6692 9.0629 3.8409L7.5 7.9167" stroke="currentColor" stroke-linecap="round" stroke-linejoin="round" stroke-width="2"/>
</svg>
