<svg xmlns="http://www.w3.org/2000/svg" width="20" height="20" viewBox="0 0 20 20" fill="none">
  <path d="M15.8068 8.6293C15.503 6.944 14.557 5.6891 13.7347 4.952 13.4954 4.7375 13.3758 4.6302 13.1115 4.531 12.8472 4.4317 12.62 4.4317 12.1657 4.4317H11.1677C10.7133 4.4317 10.4862 4.4317 10.2218 4.531 9.9576 4.6302 9.8379 4.7375 9.5987 4.952 8.7763 5.6891 7.8304 6.944 7.5265 8.6293 7.3004 9.8831 8.5552 10.8333 9.9576 10.8333H13.3758C14.7781 10.8333 16.0329 9.8831 15.8068 8.6293Z" stroke="currentColor" stroke-width="2"/>
  <path d="M3.3333 11.6667H5.329C5.5741 11.6667 5.8159 11.7219 6.0351 11.828L7.7368 12.6513C7.956 12.7574 8.1978 12.8126 8.4429 12.8126H9.3117C10.1521 12.8126 10.8333 13.4718 10.8333 14.285 10.8333 14.3178 10.8108 14.3468 10.7782 14.3558L8.6608 14.9413C8.2809 15.0462 7.8742 15.0097 7.5208 14.8387L5.7018 13.9586M10.8333 13.75L14.6607 12.5741C15.3392 12.3627 16.0726 12.6133 16.4976 13.2019 16.8049 13.6274 16.6797 14.2368 16.2321 14.4952L9.9691 18.1088C9.5708 18.3386 9.1007 18.3947 8.6627 18.2647L3.3333 16.6833" stroke="currentColor" stroke-linecap="round" stroke-linejoin="round" stroke-width="2"/>
</svg>
