<svg xmlns="http://www.w3.org/2000/svg" width="20" height="20" viewBox="0 0 20 20" fill="none">
  <path d="M7.1901 10.5613H6.8077C5.5712 10.5613 4.953 10.5613 4.6895 10.1537 4.426 9.7461 4.677 9.1782 5.1792 8.0424L6.6889 4.6277C7.1455 3.595 7.3738 3.0787 7.8166 2.7893 8.2595 2.5 8.8216 2.5 9.9458 2.5H11.687C13.0527 2.5 13.7355 2.5 13.993 2.9461 14.2506 3.3923 13.9118 3.9882 13.2343 5.1802L12.341 6.7516C12.0042 7.3441 11.8358 7.6404 11.8381 7.8829 11.8412 8.1981 12.0088 8.4885 12.2795 8.6475 12.4878 8.7699 12.8272 8.7699 13.5062 8.7699 14.3644 8.7699 14.7936 8.7699 15.0171 8.9185 15.3074 9.1115 15.4594 9.4568 15.4062 9.8027 15.3652 10.0688 15.0765 10.388 14.4992 11.0264L9.8866 16.1269C8.9806 17.1288 8.5276 17.6297 8.2234 17.4712 7.9192 17.3126 8.0653 16.6518 8.3574 15.3302L8.9298 12.7413C9.1522 11.735 9.2634 11.2318 8.9959 10.8966 8.7284 10.5613 8.2156 10.5613 7.1901 10.5613Z" stroke="currentColor" stroke-linejoin="round" stroke-width="2"/>
</svg>
