<svg xmlns="http://www.w3.org/2000/svg" width="20" height="20" viewBox="0 0 20 20" fill="none">
  <path d="M16.6667 10.8333V8.8808C16.6667 8.1995 16.6667 7.8588 16.5398 7.5526 16.4129 7.2463 16.1721 7.0054 15.6903 6.5237L11.7433 2.5766C11.3275 2.1608 11.1197 1.953 10.8621 1.8298 10.8085 1.8042 10.7537 1.7814 10.6977 1.7617 10.4284 1.6667 10.1345 1.6667 9.5465 1.6667 6.8424 1.6667 5.4903 1.6667 4.5744 2.4051 4.3894 2.5542 4.2209 2.7228 4.0717 2.9078 3.3333 3.8236 3.3333 5.1757 3.3333 7.8799V10.8333M10.8333 2.0833V2.5C10.8333 4.857 10.8333 6.0355 11.5656 6.7678 12.2978 7.5 13.4763 7.5 15.8333 7.5H16.25" stroke="currentColor" stroke-linecap="round" stroke-linejoin="round" stroke-width="2"/>
  <path d="M9.1667 13.3333H10M10 13.3333H10.8333M10 13.3333V18.3333M10 18.3333H9.1667M10 18.3333H10.8333M12.9167 18.3333V13.3333H14.4682C15.0563 13.3333 15.6647 13.6263 15.791 14.2007 15.844 14.4417 15.8424 14.6698 15.7907 14.9102 15.6613 15.5115 15.0327 15.8333 14.4177 15.8333H13.3333M4.1667 13.3333H6.8333C6.9714 13.3333 7.0833 13.4452 7.0833 13.5833V13.6712C7.0833 13.7225 7.0676 13.7725 7.0381 13.8146L4.2239 17.8348C4.1867 17.8881 4.1667 17.9515 4.1667 18.0165 4.1667 18.1915 4.3085 18.3333 4.4835 18.3333H6.9362" stroke="currentColor" stroke-linecap="round" stroke-linejoin="round" stroke-width="2"/>
</svg>
