<svg xmlns="http://www.w3.org/2000/svg" width="20" height="20" viewBox="0 0 20 20" fill="none">
  <path d="M1.6667 8.3333V6.6667C1.6667 5.881 1.6667 5.4882 1.9107 5.2441 2.1548 5 2.5477 5 3.3333 5H5.8333C8.976 5 10.5474 5 11.5237 5.9763 12.5 6.9526 12.5 8.524 12.5 11.6667V13.3333C12.5 14.119 12.5 14.5118 12.2559 14.7559 12.0118 15 11.619 15 10.8333 15H8.3333C5.1906 15 3.6193 15 2.643 14.0237 1.6667 13.0474 1.6667 11.476 1.6667 8.3333Z" stroke="currentColor" stroke-linecap="round" stroke-linejoin="round" stroke-width="2"/>
  <path d="M14.9162 7.5587L15.4997 6.9961C16.7079 5.8309 17.312 5.2483 17.8227 5.4592 18.3333 5.6701 18.3333 6.5022 18.3333 8.1663V11.8337C18.3333 13.4978 18.3333 14.3299 17.8227 14.5407 17.312 14.7517 16.7079 14.1691 15.4997 13.0039L14.9162 12.4413C14.1768 11.7282 14.1667 11.7044 14.1667 10.6859V9.3141C14.1667 8.2956 14.1768 8.2719 14.9162 7.5587Z" stroke="currentColor" stroke-linecap="round" stroke-linejoin="round" stroke-width="2"/>
</svg>
