<svg xmlns="http://www.w3.org/2000/svg" width="20" height="20" viewBox="0 0 20 20" fill="none">
  <path d="M15.418 15.9348L17.5 18.0181M16.6667 12.6014C16.6667 10.0702 14.6147 8.0181 12.0833 8.0181 9.552 8.0181 7.5 10.0702 7.5 12.6014 7.5 15.1328 9.552 17.1848 12.0833 17.1848 14.6147 17.1848 16.6667 15.1328 16.6667 12.6014Z" stroke="currentColor" stroke-linecap="round" stroke-linejoin="round" stroke-width="2"/>
  <path d="M12.0833 10.9348V14.2681M13.75 12.6014H10.4167" stroke="currentColor" stroke-linecap="round" stroke-linejoin="round" stroke-width="2"/>
  <path d="M8.3333 3.0181H11.6667M2.5 8.8514V12.1848M5.4167 18.0181C3.8058 18.0181 2.5 16.7123 2.5 15.1014M14.5833 3.0181C16.1942 3.0181 17.5 4.3239 17.5 5.9348M2.5 5.9348C2.5 4.3239 3.8058 3.0181 5.4167 3.0181" stroke="currentColor" stroke-linecap="round" stroke-linejoin="round" stroke-width="2"/>
</svg>
