<svg xmlns="http://www.w3.org/2000/svg" width="20" height="20" viewBox="0 0 20 20" fill="none">
  <path d="M2.0833 10C2.0833 6.268 2.0833 4.4021 3.2427 3.2427 4.4021 2.0833 6.268 2.0833 10 2.0833 13.7319 2.0833 15.5979 2.0833 16.7573 3.2427 17.9167 4.4021 17.9167 6.268 17.9167 10 17.9167 13.7319 17.9167 15.5979 16.7573 16.7573 15.5979 17.9167 13.7319 17.9167 10 17.9167 6.268 17.9167 4.4021 17.9167 3.2427 16.7573 2.0833 15.5979 2.0833 13.7319 2.0833 10Z" stroke="currentColor" stroke-linejoin="round" stroke-width="2"/>
  <path d="M5.4167 9.1667V8.3333C5.4167 7.9405 5.4167 7.7441 5.5387 7.622 5.6607 7.5 5.8572 7.5 6.25 7.5H7.5C9.0713 7.5 9.857 7.5 10.3452 7.9882 10.8333 8.4763 10.8333 9.262 10.8333 10.8333V11.6667C10.8333 12.0595 10.8333 12.2559 10.7113 12.378 10.5893 12.5 10.3928 12.5 10 12.5H8.75C7.1787 12.5 6.393 12.5 5.9048 12.0118 5.4167 11.5237 5.4167 10.738 5.4167 9.1667Z" stroke="currentColor" stroke-linecap="round" stroke-linejoin="round" stroke-width="2"/>
  <path d="M12.8748 8.7793L13.1665 8.498C13.7706 7.9155 14.0727 7.6242 14.328 7.7296 14.5833 7.8351 14.5833 8.2511 14.5833 9.0832V10.9168C14.5833 11.7489 14.5833 12.1649 14.328 12.2704 14.0727 12.3758 13.7706 12.0846 13.1665 11.502L12.8748 11.2207C12.5051 10.8641 12.5 10.8522 12.5 10.3429V9.6571C12.5 9.1478 12.5051 9.1359 12.8748 8.7793Z" stroke="currentColor" stroke-linecap="round" stroke-linejoin="round" stroke-width="2"/>
</svg>
