<svg xmlns="http://www.w3.org/2000/svg" width="20" height="20" viewBox="0 0 20 20" fill="none">
  <path d="M15.418 15.4167L17.5 17.5M16.6667 12.0833C16.6667 9.552 14.6147 7.5 12.0833 7.5 9.552 7.5 7.5 9.552 7.5 12.0833 7.5 14.6147 9.552 16.6667 12.0833 16.6667 14.6147 16.6667 16.6667 14.6147 16.6667 12.0833Z" stroke="currentColor" stroke-linecap="round" stroke-linejoin="round" stroke-width="2"/>
  <path d="M13.75 12.0833H10.4167" stroke="currentColor" stroke-linecap="round" stroke-linejoin="round" stroke-width="2"/>
  <path d="M8.3333 2.5H11.6667M2.5 8.3333V11.6667M5.4167 17.5C3.8058 17.5 2.5 16.1942 2.5 14.5833M14.5833 2.5C16.1942 2.5 17.5 3.8058 17.5 5.4167M2.5 5.4167C2.5 3.8058 3.8058 2.5 5.4167 2.5" stroke="currentColor" stroke-linecap="round" stroke-linejoin="round" stroke-width="2"/>
</svg>
